<?xml version="1.0" encoding="utf-8"?>
<!-- Generator: Adobe Illustrator 16.0.0, SVG Export Plug-In . SVG Version: 6.00 Build 0)  -->
<!DOCTYPE svg PUBLIC "-//W3C//DTD SVG 1.1//EN" "http://www.w3.org/Graphics/SVG/1.1/DTD/svg11.dtd">
<svg version="1.1" id="Capa_1" xmlns="http://www.w3.org/2000/svg" xmlns:xlink="http://www.w3.org/1999/xlink" x="0px" y="0px"
	 width="218.657px" height="218.149px" viewBox="142.292 301.87 218.657 218.149"
	 enable-background="new 142.292 301.87 218.657 218.149" xml:space="preserve">
<g enable-background="new    ">
	<ellipse fill="#F2951B" enable-background="new    " cx="251.621" cy="410.944" rx="109.329" ry="109.075"/>
</g>
<g>
	<g>
		<path fill="#FFFFFF" d="M238.013,465.66v-3.237h21.664c1.391,0,2.329-0.179,2.813-0.535s0.726-0.989,0.726-1.897
			c0-0.894-0.242-1.514-0.726-1.862c-0.484-0.348-1.422-0.522-2.813-0.522h-21.664v-3.237h21.301c2.299,0,3.858,0.414,4.682,1.241
			c0.821,0.828,1.233,2.306,1.233,4.431c0,2.094-0.417,3.553-1.252,4.381s-2.389,1.241-4.663,1.241h-21.301V465.66z"/>
		<path fill="#FFFFFF" d="M238.013,448.915v-4.236l25.166-5.135v-0.049l-25.166,0.463v-2.8h26.762v4.284l-24.821,5.087v0.097
			l24.821-0.438v2.727H238.013z"/>
		<path fill="#FFFFFF" d="M238.013,431.608v-3.285h26.762v3.285H238.013z"/>
		<path fill="#FFFFFF" d="M238.013,422.847v-3.627c0-3.067,0.36-5.071,1.08-6.012c0.72-0.941,2.368-1.412,4.944-1.412h14.714
			c2.563,0,4.209,0.479,4.935,1.436c0.726,0.958,1.089,2.954,1.089,5.988v3.627H238.013z M239.991,419.755h22.807v-0.998
			c0-1.492-0.184-2.479-0.553-2.957s-1.183-0.717-2.44-0.717H243.04c-1.27,0-2.096,0.242-2.477,0.729
			c-0.381,0.486-0.572,1.469-0.572,2.945V419.755L239.991,419.755z"/>
		<path fill="#FFFFFF" d="M238.013,403.302v-4.527l26.762-5.186v3.334l-7.439,1.242v5.891l7.439,1.339v3.262L238.013,403.302z
			 M239.991,401.159l15.385,2.604v-5.184l-15.385,2.434V401.159z"/>
		<path fill="#FFFFFF" d="M238.013,390.304v-3.627c0-3.066,0.36-5.07,1.08-6.012c0.72-0.94,2.368-1.412,4.944-1.412h14.714
			c2.563,0,4.209,0.479,4.935,1.436c0.726,0.958,1.089,2.954,1.089,5.986v3.627h-26.762V390.304z M239.991,387.212h22.807v-0.998
			c0-1.492-0.184-2.479-0.553-2.957s-1.183-0.717-2.44-0.717H243.04c-1.27,0-2.096,0.242-2.477,0.729
			c-0.381,0.487-0.572,1.469-0.572,2.944V387.212L239.991,387.212z"/>
		<path fill="#FFFFFF" d="M243.564,356.229h1.705c0.46,0,1.022,0.097,1.688,0.292c0.666,0.193,1.379,0.479,2.141,0.852l13.698,6.719
			v-7.717h1.978v10.467h-2.631l-12.556-6.135l-0.163-0.072c-1.706-0.877-3.151-1.314-4.336-1.314h-1.651
			c-1.112,0-1.905,0.158-2.376,0.475c-0.472,0.316-0.708,0.84-0.708,1.57c0,0.764,0.251,1.303,0.753,1.619
			c0.502,0.316,1.394,0.475,2.676,0.475h1.742v3.141h-1.379c-2.177,0-3.668-0.389-4.473-1.168c-0.804-0.779-1.207-2.135-1.207-4.065
			c0-1.85,0.387-3.167,1.161-3.955C240.402,356.622,241.714,356.229,243.564,356.229z"/>
	</g>
</g>
</svg>
