<?xml version="1.0" encoding="utf-8"?>
<!-- Generator: Adobe Illustrator 16.0.0, SVG Export Plug-In . SVG Version: 6.00 Build 0)  -->
<!DOCTYPE svg PUBLIC "-//W3C//DTD SVG 1.1//EN" "http://www.w3.org/Graphics/SVG/1.1/DTD/svg11.dtd">
<svg version="1.1" id="Capa_1" xmlns="http://www.w3.org/2000/svg" xmlns:xlink="http://www.w3.org/1999/xlink" x="0px" y="0px"
	 width="218.657px" height="218.149px" viewBox="-88.708 301.87 218.657 218.149"
	 enable-background="new -88.708 301.87 218.657 218.149" xml:space="preserve">
<g enable-background="new    ">
	<ellipse fill="#0092AE" enable-background="new    " cx="20.621" cy="410.944" rx="109.329" ry="109.075"/>
</g>
<g>
	<g>
		<path fill="#FFFFFF" d="M0,469.723v-3.237h21.664c1.392,0,2.328-0.179,2.813-0.535c0.483-0.356,0.726-0.989,0.726-1.897
			c0-0.894-0.241-1.514-0.726-1.862c-0.483-0.349-1.421-0.522-2.813-0.522H0v-3.237h21.302c2.299,0,3.857,0.414,4.682,1.241
			c0.822,0.828,1.233,2.306,1.233,4.431c0,2.094-0.418,3.553-1.253,4.381s-2.389,1.241-4.662,1.241H0V469.723z"/>
		<path fill="#FFFFFF" d="M0,452.978v-4.236l25.165-5.135v-0.049L0,444.021v-2.8h26.763v4.284l-24.82,5.087v0.097l24.82-0.438v2.727
			H0z"/>
		<path fill="#FFFFFF" d="M0,435.671v-3.285h26.763v3.285H0z"/>
		<path fill="#FFFFFF" d="M0,426.909v-3.627c0-3.067,0.36-5.071,1.08-6.012c0.721-0.941,2.368-1.412,4.944-1.412h14.715
			c2.564,0,4.209,0.479,4.937,1.436c0.726,0.958,1.088,2.954,1.088,5.988v3.627H0z M1.978,423.817h22.807v-0.998
			c0-1.492-0.185-2.479-0.554-2.957c-0.368-0.479-1.183-0.717-2.439-0.717H5.025c-1.271,0-2.095,0.242-2.477,0.729
			s-0.571,1.469-0.571,2.945V423.817L1.978,423.817z"/>
		<path fill="#FFFFFF" d="M0,407.364v-4.527l26.763-5.186v3.334l-7.438,1.242v5.891l7.438,1.339v3.262L0,407.364z M1.978,405.222
			l15.386,2.604v-5.184l-15.386,2.434V405.222z"/>
		<path fill="#FFFFFF" d="M0,394.366v-3.627c0-3.066,0.36-5.07,1.08-6.012c0.721-0.94,2.368-1.412,4.944-1.412h14.715
			c2.564,0,4.209,0.479,4.937,1.436c0.726,0.958,1.088,2.954,1.088,5.986v3.627H0V394.366z M1.978,391.274h22.807v-0.998
			c0-1.492-0.185-2.479-0.554-2.957c-0.368-0.479-1.183-0.717-2.439-0.717H5.025c-1.271,0-2.095,0.242-2.477,0.729
			s-0.571,1.469-0.571,2.944V391.274L1.978,391.274z"/>
		<path fill="#FFFFFF" d="M0.871,366.424v-4.356h17.2v-2.629h1.814v2.629h6.876v2.896h-6.876v6.475H17.58L0.871,366.424z
			 M2.649,364.866l15.422,4.041v-3.943l-15.422-0.391V364.866z"/>
	</g>
</g>
</svg>
