<?xml version="1.0" encoding="utf-8"?>
<!-- Generator: Adobe Illustrator 16.0.0, SVG Export Plug-In . SVG Version: 6.00 Build 0)  -->
<!DOCTYPE svg PUBLIC "-//W3C//DTD SVG 1.1//EN" "http://www.w3.org/Graphics/SVG/1.1/DTD/svg11.dtd">
<svg version="1.1" id="Capa_1" xmlns="http://www.w3.org/2000/svg" xmlns:xlink="http://www.w3.org/1999/xlink" x="0px" y="0px"
	 width="218.657px" height="218.149px" viewBox="-88.708 301.87 218.657 218.149"
	 enable-background="new -88.708 301.87 218.657 218.149" xml:space="preserve">
<g enable-background="new    ">
	<ellipse fill="#F2951B" enable-background="new    " cx="20.621" cy="410.944" rx="109.329" ry="109.075"/>
</g>
<g>
	<g>
		<path fill="#FFFFFF" d="M7.013,478.035v-3.237h21.664c1.391,0,2.327-0.179,2.812-0.535s0.726-0.989,0.726-1.897
			c0-0.894-0.24-1.514-0.726-1.862c-0.483-0.349-1.421-0.522-2.812-0.522H7.013v-3.237h21.301c2.299,0,3.857,0.414,4.682,1.241
			c0.822,0.828,1.233,2.306,1.233,4.431c0,2.094-0.417,3.553-1.252,4.381s-2.39,1.241-4.663,1.241H7.013V478.035z"/>
		<path fill="#FFFFFF" d="M7.013,461.29v-4.236l25.165-5.135v-0.049l-25.165,0.463v-2.8h26.762v4.284l-24.82,5.087v0.097
			l24.82-0.438v2.727H7.013z"/>
		<path fill="#FFFFFF" d="M7.013,443.983v-3.285h26.762v3.285H7.013z"/>
		<path fill="#FFFFFF" d="M7.013,435.222v-3.627c0-3.067,0.359-5.071,1.08-6.012c0.72-0.941,2.366-1.412,4.942-1.412H27.75
			c2.564,0,4.209,0.479,4.937,1.436c0.726,0.958,1.088,2.954,1.088,5.988v3.627H7.013z M8.99,432.13h22.808v-0.998
			c0-1.492-0.186-2.479-0.555-2.957c-0.368-0.479-1.182-0.717-2.438-0.717H12.038c-1.27,0-2.095,0.242-2.477,0.729
			c-0.381,0.486-0.571,1.469-0.571,2.945V432.13z"/>
		<path fill="#FFFFFF" d="M7.013,415.677v-4.527l26.762-5.186v3.334l-7.438,1.242v5.891l7.438,1.339v3.262L7.013,415.677z
			 M8.99,413.534l15.386,2.604v-5.184L8.99,413.388V413.534z"/>
		<path fill="#FFFFFF" d="M7.013,402.679v-3.627c0-3.066,0.359-5.07,1.08-6.012c0.72-0.94,2.366-1.412,4.942-1.412H27.75
			c2.564,0,4.209,0.479,4.937,1.436c0.726,0.958,1.088,2.954,1.088,5.986v3.627H7.013V402.679z M8.99,399.587h22.808v-0.998
			c0-1.492-0.186-2.479-0.555-2.957c-0.368-0.479-1.182-0.717-2.438-0.717H12.038c-1.27,0-2.095,0.242-2.477,0.729
			c-0.381,0.487-0.571,1.469-0.571,2.944V399.587z"/>
		<path fill="#FFFFFF" d="M13.146,368.651h1.796v3.141h-2.159c-1.27,0-2.159,0.149-2.667,0.449
			c-0.508,0.301-0.762,0.814-0.762,1.545c0,0.715,0.208,1.209,0.626,1.485c0.417,0.276,1.352,0.414,2.803,0.414h5.951
			c-0.314-0.423-0.544-0.884-0.689-1.388c-0.145-0.502-0.218-1.11-0.218-1.826c0-1.443,0.375-2.473,1.125-3.09
			c0.75-0.616,2.026-0.926,3.828-0.926h5.716c2.237,0,3.753,0.377,4.545,1.133c0.792,0.754,1.188,2.104,1.188,4.053
			c0,1.914-0.408,3.258-1.226,4.027c-0.816,0.771-2.332,1.156-4.545,1.156H13.146c-2.201,0-3.698-0.374-4.49-1.12
			c-0.793-0.745-1.189-2.053-1.189-3.919c0-1.914,0.406-3.249,1.217-4.003C9.492,369.029,10.98,368.651,13.146,368.651z
			 M23.07,371.548c-1.282,0-2.178,0.158-2.686,0.476c-0.509,0.315-0.763,0.856-0.763,1.619s0.254,1.302,0.763,1.618
			c0.508,0.315,1.402,0.475,2.686,0.475h5.806c1.282,0,2.172-0.158,2.667-0.475c0.496-0.317,0.744-0.855,0.744-1.618
			c0-0.779-0.248-1.322-0.744-1.632c-0.495-0.308-1.385-0.461-2.667-0.461H23.07V371.548z"/>
	</g>
</g>
</svg>
