<?xml version="1.0" encoding="utf-8"?>
<!-- Generator: Adobe Illustrator 16.0.0, SVG Export Plug-In . SVG Version: 6.00 Build 0)  -->
<!DOCTYPE svg PUBLIC "-//W3C//DTD SVG 1.1//EN" "http://www.w3.org/Graphics/SVG/1.1/DTD/svg11.dtd">
<svg version="1.1" id="Capa_1" xmlns="http://www.w3.org/2000/svg" xmlns:xlink="http://www.w3.org/1999/xlink" x="0px" y="0px"
	 width="88.205px" height="181.722px" viewBox="0 0 88.205 181.722" enable-background="new 0 0 88.205 181.722"
	 xml:space="preserve">
<path opacity="0.7" fill="#FFFFFF" d="M0,181.722V0c14.562,0.422,29.237,4.354,42.735,12.146
	c43.473,25.094,58.376,80.68,33.283,124.145C59.685,164.597,30.422,180.791,0,181.722z"/>
<g>
	<g>
		<path fill="#331842" d="M16.475,129.763v-2.197l16.859-2.333v-0.239l-16.859-2.197v-2.061l18.726,2.725v3.372L16.475,129.763z"/>
		<path fill="#331842" d="M20.296,110.45h11.083c1.608,0,2.7,0.29,3.275,0.868c0.575,0.579,0.863,1.612,0.863,3.1
			c0,1.465-0.292,2.487-0.876,3.066c-0.584,0.579-1.671,0.869-3.263,0.869H20.296c-1.574,0-2.651-0.292-3.231-0.877
			c-0.58-0.585-0.87-1.615-0.87-3.091s0.288-2.5,0.863-3.074C17.635,110.737,18.714,110.45,20.296,110.45z M20.042,112.715
			c-0.948,0-1.597,0.125-1.949,0.375c-0.351,0.25-0.527,0.692-0.527,1.328c0,0.625,0.171,1.059,0.514,1.303s0.997,0.366,1.961,0.366
			h11.591c0.973,0,1.629-0.125,1.968-0.375c0.339-0.25,0.508-0.692,0.508-1.329c0-0.625-0.169-1.059-0.508-1.303
			c-0.338-0.244-0.994-0.366-1.968-0.366H20.042z"/>
		<path fill="#331842" d="M16.475,106.635v-2.163h17.24v-3.9h1.485v6.063H16.475z"/>
		<path fill="#331842" d="M16.475,100.521v-2.197l16.859-2.333v-0.238l-16.859-2.197v-2.061l18.726,2.725v3.372L16.475,100.521z"/>
		<path fill="#331842" d="M16.475,89.009v-5.995h1.485v3.832h6.741v-3.662h1.473v3.662h7.541v-3.935h1.485v6.098H16.475z"/>
		<path fill="#331842" d="M16.475,79.795v-3.304c0-1.703,0.178-2.855,0.533-3.458s0.995-0.903,1.917-0.903h4.24
			c0.779,0,1.329,0.199,1.65,0.596c0.322,0.398,0.516,1.102,0.584,2.112c0.051-1.078,0.237-1.828,0.559-2.248
			c0.322-0.42,0.88-0.63,1.676-0.63h7.566v2.299h-6.995c-0.88,0-1.451,0.168-1.714,0.502c-0.262,0.335-0.394,1.025-0.394,2.069v0.8
			h9.103v2.163H16.475z M17.859,77.632h6.843v-0.767c0-0.987-0.129-1.646-0.387-1.975c-0.258-0.33-0.832-0.494-1.72-0.494h-2.603
			c-0.897,0-1.477,0.164-1.739,0.494c-0.262,0.33-0.394,0.988-0.394,1.975V77.632z"/>
		<path fill="#331842" d="M16.475,60.721v-3.168l18.726-3.627v2.333l-5.205,0.869v4.122l5.205,0.937v2.282L16.475,60.721z
			 M17.859,59.222l10.766,1.822v-3.627L17.859,59.12V59.222z"/>
		<path fill="#331842" d="M38.475,131.568v-2.265h15.158c0.973,0,1.629-0.125,1.968-0.375c0.339-0.25,0.508-0.692,0.508-1.329
			c0-0.625-0.169-1.059-0.508-1.303c-0.338-0.244-0.994-0.366-1.968-0.366H38.475v-2.265h14.904c1.608,0,2.7,0.29,3.275,0.868
			c0.575,0.579,0.863,1.612,0.863,3.1c0,1.465-0.292,2.487-0.876,3.066c-0.584,0.579-1.671,0.869-3.263,0.869H38.475z"/>
		<path fill="#331842" d="M38.475,119.851v-2.963l17.608-3.594v-0.034l-17.608,0.324v-1.959h18.726v2.998l-17.367,3.56v0.068
			l17.367-0.307v1.908H38.475z"/>
		<path fill="#331842" d="M38.475,107.742v-2.299h18.726v2.299H38.475z"/>
		<path fill="#331842" d="M38.475,101.611v-2.538c0-2.146,0.252-3.548,0.755-4.206c0.504-0.659,1.657-0.988,3.459-0.988h10.296
			c1.794,0,2.945,0.335,3.453,1.005s0.762,2.066,0.762,4.189v2.538H38.475z M39.859,99.448h15.958V98.75
			c0-1.045-0.129-1.734-0.387-2.069c-0.258-0.335-0.827-0.502-1.708-0.502h-11.73c-0.889,0-1.466,0.17-1.733,0.511
			c-0.267,0.34-0.4,1.027-0.4,2.061V99.448z"/>
		<path fill="#331842" d="M38.475,87.936v-3.168l18.726-3.627v2.333l-5.205,0.869v4.122l5.205,0.937v2.282L38.475,87.936z
			 M39.859,86.437l10.766,1.822v-3.627l-10.766,1.703V86.437z"/>
		<path fill="#331842" d="M38.475,78.841v-2.537c0-2.146,0.252-3.548,0.755-4.207c0.504-0.658,1.657-0.987,3.459-0.987h10.296
			c1.794,0,2.945,0.335,3.453,1.004c0.508,0.67,0.762,2.067,0.762,4.19v2.537H38.475z M39.859,76.678h15.958v-0.699
			c0-1.044-0.129-1.734-0.387-2.069c-0.258-0.334-0.827-0.502-1.708-0.502h-11.73c-0.889,0-1.466,0.17-1.733,0.511
			c-0.267,0.341-0.4,1.028-0.4,2.061V76.678z"/>
		<path fill="#331842" d="M38.475,67.294v-5.995h1.485v3.832h6.741V61.47h1.473v3.662h7.541v-3.934h1.485v6.097H38.475z"/>
		<path fill="#331842" d="M41.446,51.523h1.79v2.266h-1.739c-0.736,0-1.242,0.102-1.517,0.306c-0.275,0.205-0.413,0.568-0.413,1.09
			c0,0.5,0.155,0.852,0.463,1.056c0.309,0.204,0.857,0.307,1.644,0.307h0.914c0.381,0,0.772-0.071,1.174-0.213
			c0.402-0.142,0.781-0.349,1.136-0.622l3.72-2.827c0.626-0.477,1.217-0.823,1.771-1.039c0.554-0.215,1.128-0.324,1.72-0.324h1.27
			c1.625,0,2.721,0.275,3.288,0.826s0.851,1.53,0.851,2.938c0,1.374-0.229,2.331-0.686,2.87s-1.32,0.809-2.59,0.809h-2.082v-2.282
			h2.019c0.762,0,1.278-0.102,1.549-0.307c0.271-0.205,0.406-0.579,0.406-1.124c0-0.556-0.154-0.939-0.463-1.149
			c-0.309-0.21-0.988-0.315-2.038-0.315h-1.295c-0.482,0-0.92,0.06-1.314,0.179s-0.751,0.292-1.073,0.52l-3.986,2.997
			c-0.533,0.42-1.041,0.741-1.523,0.962s-0.901,0.332-1.257,0.332h-1.092c-1.456,0-2.469-0.27-3.041-0.809
			c-0.571-0.539-0.857-1.467-0.857-2.784c0-1.385,0.224-2.342,0.673-2.87C39.317,51.788,40.176,51.523,41.446,51.523z"/>
	</g>
</g>
</svg>
