<?xml version="1.0" encoding="utf-8"?>
<!-- Generator: Adobe Illustrator 16.0.0, SVG Export Plug-In . SVG Version: 6.00 Build 0)  -->
<!DOCTYPE svg PUBLIC "-//W3C//DTD SVG 1.1//EN" "http://www.w3.org/Graphics/SVG/1.1/DTD/svg11.dtd">
<svg version="1.1" id="Capa_1" xmlns="http://www.w3.org/2000/svg" xmlns:xlink="http://www.w3.org/1999/xlink" x="0px" y="0px"
	 width="39.722px" height="39.723px" viewBox="0 0 39.722 39.723" enable-background="new 0 0 39.722 39.723" xml:space="preserve">
<path fill="#A0C219" d="M19.86,0C8.894,0,0,8.894,0,19.861s8.894,19.861,19.86,19.861c10.968,0,19.861-8.894,19.861-19.861
	S30.828,0,19.86,0z M12.674,16.83c0-0.689,0.794-1.085,1.348-0.674l3.878,2.896c0.539,0.405,0.539,1.213,0,1.618l-3.878,2.897
	c-0.554,0.412-1.348,0.015-1.348-0.674V16.83z M31.135,20.67L14.021,33.464c-0.554,0.419-1.348,0.022-1.348-0.673V30.29
	c0-0.673,0.322-1.31,0.861-1.714l10.772-8.055c0.435-0.329,0.435-0.988,0-1.317l-10.772-8.055c-0.54-0.405-0.861-1.041-0.861-1.707
	V6.933c0-0.696,0.794-1.093,1.348-0.674l17.114,12.794C31.674,19.457,31.674,20.266,31.135,20.67z"/>
</svg>
