<?xml version="1.0" encoding="utf-8"?>
<!-- Generator: Adobe Illustrator 16.0.0, SVG Export Plug-In . SVG Version: 6.00 Build 0)  -->
<!DOCTYPE svg PUBLIC "-//W3C//DTD SVG 1.1//EN" "http://www.w3.org/Graphics/SVG/1.1/DTD/svg11.dtd">
<svg version="1.1" id="Capa_1" xmlns="http://www.w3.org/2000/svg" xmlns:xlink="http://www.w3.org/1999/xlink" x="0px" y="0px"
	 width="624.748px" height="188.408px" viewBox="0 0 624.748 188.408" enable-background="new 0 0 624.748 188.408"
	 xml:space="preserve">
<g>
	<rect y="90.773" fill="#0093AF" width="624.748" height="28.324"/>
	<g>
		<g>
			<path fill="#FFFFFF" d="M257.102,97.36h3.049c1.572,0,2.636,0.164,3.191,0.492c0.555,0.328,0.834,0.918,0.834,1.771v3.914
				c0,0.719-0.184,1.228-0.551,1.522c-0.367,0.297-1.017,0.478-1.949,0.539c0.995,0.047,1.688,0.219,2.074,0.517
				c0.389,0.297,0.582,0.812,0.582,1.547v6.983h-2.122v-6.457c0-0.812-0.155-1.34-0.464-1.582c-0.309-0.241-0.945-0.362-1.91-0.362
				h-0.738v8.401h-1.996V97.36L257.102,97.36z M259.098,98.638v6.316h0.707c0.912,0,1.52-0.119,1.824-0.357
				c0.303-0.238,0.455-0.768,0.455-1.588v-2.402c0-0.828-0.152-1.362-0.455-1.604c-0.305-0.242-0.912-0.362-1.824-0.362h-0.707
				V98.638z"/>
			<path fill="#FFFFFF" d="M267.822,97.36h5.534v1.371h-3.538v6.224h3.381v1.358h-3.381v6.961h3.633v1.371h-5.629V97.36z"/>
			<path fill="#FFFFFF" d="M276.328,97.36h2.734l3.317,16.255h0.031l-0.298-16.255h1.807v17.285h-2.766l-3.286-16.03h-0.063
				l0.283,16.03h-1.76L276.328,97.36L276.328,97.36z"/>
			<path fill="#FFFFFF" d="M289.47,97.36h2.924l3.349,17.285h-2.154l-0.801-4.805h-3.805l-0.865,4.805h-2.105L289.47,97.36z
				 M290.854,98.638l-1.683,9.938h3.349l-1.572-9.938H290.854z"/>
			<path fill="#FFFFFF" d="M304.498,100.103v1.652h-2.105v-1.605c0-0.672-0.098-1.137-0.291-1.395
				c-0.194-0.258-0.537-0.387-1.029-0.387c-0.451,0-0.766,0.146-0.943,0.439c-0.179,0.293-0.268,0.907-0.268,1.846v10.699
				c0,0.961,0.094,1.586,0.283,1.875c0.188,0.289,0.534,0.434,1.037,0.434c0.43,0,0.738-0.137,0.928-0.41
				c0.188-0.273,0.283-0.738,0.283-1.395v-1.863h2.105v1.922c0,1.18-0.246,1.979-0.738,2.396c-0.492,0.416-1.373,0.627-2.641,0.627
				c-1.248,0-2.117-0.271-2.609-0.81c-0.494-0.539-0.74-1.543-0.74-3.012v-10.229c0-1.462,0.246-2.457,0.74-2.988
				c0.492-0.531,1.361-0.797,2.609-0.797c1.278,0,2.161,0.207,2.648,0.621C304.254,98.138,304.498,98.931,304.498,100.103z"/>
			<path fill="#FFFFFF" d="M307.108,97.36h2.122v17.285h-2.122V97.36z"/>
			<path fill="#FFFFFF" d="M312.768,97.36h3.475l2.248,15.914h0.156l2.201-15.914h3.381v17.285h-1.746V98.662h-0.313l-2.264,15.983
				h-2.798l-2.344-15.983h-0.268v15.983h-1.729V97.36L312.768,97.36z"/>
			<path fill="#FFFFFF" d="M327.828,97.36h2.123v17.285h-2.123V97.36z"/>
			<path fill="#FFFFFF" d="M333.487,97.36h5.533v1.371h-3.537v6.224h3.381v1.358h-3.381v6.961h3.632v1.371h-5.628V97.36z"/>
			<path fill="#FFFFFF" d="M341.992,97.36h2.735l3.316,16.255h0.031l-0.299-16.255h1.809v17.285h-2.768l-3.285-16.03h-0.062
				l0.282,16.03h-1.761L341.992,97.36L341.992,97.36z"/>
			<path fill="#FFFFFF" d="M351.646,97.36h6.808v1.371h-2.39v15.914h-2.027V98.731h-2.391V97.36L351.646,97.36z"/>
			<path fill="#FFFFFF" d="M367.743,100.888v10.23c0,1.484-0.268,2.492-0.803,3.023c-0.533,0.53-1.487,0.797-2.86,0.797
				c-1.353,0-2.295-0.271-2.83-0.81c-0.533-0.539-0.801-1.543-0.801-3.012v-10.229c0-1.453,0.271-2.447,0.809-2.982
				c0.541-0.535,1.492-0.803,2.854-0.803c1.363,0,2.309,0.266,2.838,0.797S367.743,99.427,367.743,100.888z M365.651,100.653
				c0-0.875-0.114-1.475-0.346-1.799c-0.23-0.323-0.64-0.485-1.227-0.485c-0.576,0-0.977,0.157-1.202,0.475
				s-0.339,0.921-0.339,1.812v10.699c0,0.897,0.115,1.504,0.347,1.815c0.23,0.312,0.64,0.47,1.226,0.47
				c0.576,0,0.979-0.156,1.203-0.47c0.226-0.312,0.338-0.918,0.338-1.815V100.653L365.651,100.653z"/>
		</g>
	</g>
	<rect x="237.422" y="105.588" fill="#0093AF" width="4.932" height="82.82"/>
	<polygon fill="#0093AF" points="270.578,159.468 270.578,138.251 265.6,138.251 268.758,132.778 271.918,127.308 275.076,132.778 
		278.236,138.251 273.258,138.251 273.258,159.468 	"/>
</g>
</svg>
