<?xml version="1.0" encoding="utf-8"?>
<!-- Generator: Adobe Illustrator 16.0.0, SVG Export Plug-In . SVG Version: 6.00 Build 0)  -->
<!DOCTYPE svg PUBLIC "-//W3C//DTD SVG 1.1//EN" "http://www.w3.org/Graphics/SVG/1.1/DTD/svg11.dtd">
<svg version="1.1" id="Capa_1" xmlns="http://www.w3.org/2000/svg" xmlns:xlink="http://www.w3.org/1999/xlink" x="0px" y="0px"
	 width="373.218px" height="188.408px" viewBox="0 0 373.218 188.408" enable-background="new 0 0 373.218 188.408"
	 xml:space="preserve">
<g>
	<rect y="90.773" fill="#F2961C" width="372.134" height="28.324"/>
	<g>
		<g>
			<path fill="#FFFFFF" d="M104.115,97.36h5.534v1.371h-3.538v6.224h3.381v1.358h-3.381v6.961h3.633v1.371h-5.629V97.36z"/>
			<path fill="#FFFFFF" d="M112.621,97.36h3.049c1.572,0,2.636,0.164,3.191,0.492c0.555,0.328,0.834,0.918,0.834,1.771v3.914
				c0,0.719-0.184,1.228-0.551,1.522c-0.367,0.297-1.017,0.478-1.949,0.539c0.995,0.047,1.688,0.219,2.074,0.517
				c0.389,0.297,0.582,0.812,0.582,1.547v6.983h-2.122v-6.457c0-0.812-0.155-1.34-0.464-1.582c-0.309-0.241-0.945-0.362-1.91-0.362
				h-0.738v8.401h-1.996V97.36z M114.617,98.638v6.316h0.707c0.912,0,1.52-0.119,1.824-0.357c0.303-0.238,0.455-0.768,0.455-1.588
				v-2.402c0-0.828-0.152-1.362-0.455-1.604c-0.305-0.242-0.912-0.362-1.824-0.362h-0.707V98.638z"/>
			<path fill="#FFFFFF" d="M125.307,97.36h2.924l3.35,17.285h-2.154l-0.802-4.805h-3.804l-0.865,4.805h-2.106L125.307,97.36z
				 M126.69,98.638l-1.683,9.938h3.35l-1.572-9.938H126.69z"/>
			<path fill="#FFFFFF" d="M145.256,100.103v1.652h-2.105v-1.605c0-0.672-0.098-1.137-0.291-1.395
				c-0.194-0.258-0.537-0.387-1.029-0.387c-0.451,0-0.766,0.146-0.943,0.439c-0.179,0.293-0.268,0.907-0.268,1.846v10.699
				c0,0.961,0.094,1.586,0.283,1.875c0.188,0.289,0.534,0.434,1.037,0.434c0.43,0,0.738-0.137,0.928-0.41
				c0.188-0.273,0.283-0.738,0.283-1.395v-1.863h2.105v1.922c0,1.18-0.246,1.979-0.738,2.396c-0.492,0.416-1.373,0.627-2.641,0.627
				c-1.248,0-2.117-0.271-2.609-0.81c-0.494-0.539-0.74-1.543-0.74-3.012v-10.229c0-1.462,0.246-2.457,0.74-2.988
				c0.492-0.531,1.361-0.797,2.609-0.797c1.278,0,2.161,0.207,2.648,0.621C145.012,98.138,145.256,98.931,145.256,100.103z"/>
			<path fill="#FFFFFF" d="M155.066,100.888v10.23c0,1.484-0.268,2.492-0.803,3.023c-0.533,0.53-1.488,0.797-2.86,0.797
				c-1.353,0-2.296-0.271-2.83-0.81c-0.534-0.539-0.802-1.543-0.802-3.012v-10.229c0-1.453,0.27-2.447,0.81-2.982
				s1.491-0.803,2.854-0.803c1.363,0,2.308,0.266,2.837,0.797S155.066,99.427,155.066,100.888z M152.975,100.653
				c0-0.875-0.115-1.475-0.346-1.799c-0.231-0.323-0.639-0.485-1.226-0.485c-0.577,0-0.978,0.157-1.202,0.475
				c-0.227,0.316-0.339,0.921-0.339,1.812v10.699c0,0.897,0.115,1.504,0.347,1.815c0.23,0.312,0.639,0.47,1.226,0.47
				c0.576,0,0.978-0.156,1.202-0.47c0.226-0.312,0.338-0.918,0.338-1.815V100.653z"/>
			<path fill="#FFFFFF" d="M158.588,97.36h2.735l3.317,16.255h0.031l-0.299-16.255h1.808v17.285h-2.767l-3.285-16.03h-0.063
				l0.282,16.03h-1.76L158.588,97.36L158.588,97.36z"/>
			<path fill="#FFFFFF" d="M168.24,97.36h6.807v1.371h-2.389v15.914h-2.029V98.731h-2.389V97.36L168.24,97.36z"/>
			<path fill="#FFFFFF" d="M177.139,97.36h5.533v1.371h-3.537v6.224h3.38v1.358h-3.38v6.961h3.631v1.371h-5.627V97.36z"/>
			<path fill="#FFFFFF" d="M185.643,97.36h3.476l2.248,15.914h0.156l2.2-15.914h3.381v17.285h-1.745V98.662h-0.314l-2.264,15.983
				h-2.798l-2.344-15.983h-0.267v15.983h-1.729V97.36z"/>
			<path fill="#FFFFFF" d="M200.703,97.36h2.578c1.572,0,2.643,0.166,3.207,0.498c0.566,0.332,0.85,0.92,0.85,1.765v4.969
				c0,0.845-0.282,1.431-0.85,1.759c-0.564,0.328-1.635,0.491-3.207,0.491h-0.582v7.806h-1.996V97.36z M202.699,98.638v6.938h0.535
				c0.797,0,1.328-0.119,1.596-0.357c0.269-0.237,0.4-0.774,0.4-1.61v-3c0-0.836-0.133-1.373-0.4-1.611
				c-0.267-0.238-0.799-0.357-1.596-0.357h-0.535V98.638z"/>
			<path fill="#FFFFFF" d="M216.99,100.888v10.23c0,1.484-0.268,2.492-0.803,3.023c-0.533,0.53-1.488,0.797-2.859,0.797
				c-1.354,0-2.297-0.271-2.83-0.81c-0.535-0.539-0.803-1.543-0.803-3.012v-10.229c0-1.453,0.27-2.447,0.811-2.982
				c0.539-0.535,1.49-0.803,2.854-0.803s2.309,0.266,2.837,0.797C216.725,98.431,216.99,99.427,216.99,100.888z M214.898,100.653
				c0-0.875-0.115-1.475-0.346-1.799c-0.231-0.323-0.639-0.485-1.227-0.485c-0.576,0-0.978,0.157-1.201,0.475
				c-0.228,0.316-0.34,0.921-0.34,1.812v10.699c0,0.897,0.115,1.504,0.348,1.815c0.229,0.312,0.639,0.47,1.226,0.47
				c0.576,0,0.978-0.156,1.202-0.47c0.227-0.312,0.338-0.918,0.338-1.815V100.653z"/>
			<path fill="#FFFFFF" d="M220.512,97.36h3.05c1.57,0,2.637,0.164,3.189,0.492c0.558,0.328,0.834,0.918,0.834,1.771v3.914
				c0,0.719-0.184,1.228-0.551,1.522c-0.367,0.297-1.016,0.478-1.949,0.539c0.996,0.047,1.688,0.219,2.076,0.517
				c0.387,0.297,0.582,0.812,0.582,1.547v6.983h-2.123v-6.457c0-0.812-0.154-1.34-0.465-1.582c-0.309-0.241-0.945-0.362-1.908-0.362
				h-0.74v8.401h-1.995V97.36L220.512,97.36z M222.507,98.638v6.316h0.707c0.912,0,1.521-0.119,1.824-0.357
				c0.305-0.238,0.457-0.768,0.457-1.588v-2.402c0-0.828-0.152-1.362-0.457-1.604s-0.912-0.362-1.824-0.362h-0.707V98.638z"/>
			<path fill="#FFFFFF" d="M233.199,97.36h2.924l3.349,17.285h-2.154l-0.801-4.805h-3.806l-0.864,4.805h-2.104L233.199,97.36z
				 M234.582,98.638l-1.683,9.938h3.349l-1.572-9.938H234.582z M235.101,93.177h2.216l-2.06,2.613h-1.541L235.101,93.177z"/>
			<path fill="#FFFFFF" d="M241.593,97.36h2.734l3.317,16.255h0.03l-0.297-16.255h1.807v17.285h-2.766l-3.287-16.03h-0.062
				l0.283,16.03h-1.76V97.36L241.593,97.36z"/>
			<path fill="#FFFFFF" d="M252.771,97.36h5.534v1.371h-3.538v6.224h3.38v1.358h-3.38v6.961h3.632v1.371h-5.628V97.36L252.771,97.36
				z"/>
			<path fill="#FFFFFF" d="M263.24,97.36h2.924l3.35,17.285h-2.153l-0.803-4.805h-3.804l-0.864,4.805h-2.106L263.24,97.36z
				 M264.623,98.638l-1.682,9.938h3.35l-1.572-9.938H264.623z"/>
		</g>
	</g>
	<rect x="272.771" y="105.588" fill="#F2961C" width="4.932" height="82.82"/>
	<polygon fill="#F2961C" points="305.928,159.468 305.928,138.251 300.949,138.251 304.107,132.778 307.268,127.308 
		310.425,132.778 313.585,138.251 308.607,138.251 308.607,159.468 	"/>
</g>
</svg>
