<?xml version="1.0" encoding="utf-8"?>
<!-- Generator: Adobe Illustrator 16.0.0, SVG Export Plug-In . SVG Version: 6.00 Build 0)  -->
<!DOCTYPE svg PUBLIC "-//W3C//DTD SVG 1.1//EN" "http://www.w3.org/Graphics/SVG/1.1/DTD/svg11.dtd">
<svg version="1.1" id="Capa_1" xmlns="http://www.w3.org/2000/svg" xmlns:xlink="http://www.w3.org/1999/xlink" x="0px" y="0px"
	 width="210.379px" height="48.91px" viewBox="315.125 336.176 210.379 48.91"
	 enable-background="new 315.125 336.176 210.379 48.91" xml:space="preserve">
<g>
	<g>
		<polygon fill="#F2961C" points="315.125,336.176 329.267,385.086 514.167,375.055 525.503,336.176 		"/>
		<g>
			<g>
				<path fill="#331842" d="M335.505,345.331h2.721v21.682h4.904v1.869h-7.625V345.331z"/>
				<path fill="#331842" d="M345.766,345.331h2.892v23.551h-2.892V345.331z"/>
				<path fill="#331842" d="M353.477,345.331h3.728l4.521,22.145h0.043l-0.407-22.145h2.463v23.551h-3.771l-4.477-21.842h-0.084
					l0.385,21.842h-2.397L353.477,345.331L353.477,345.331z"/>
				<path fill="#331842" d="M368.707,345.331h7.539v1.867h-4.817v8.479h4.604v1.853h-4.604v9.483h4.946v1.867h-7.668V345.331
					L368.707,345.331z"/>
				<path fill="#331842" d="M382.971,345.331h3.983l4.562,23.551h-2.935l-1.092-6.547h-5.185l-1.179,6.547h-2.869L382.971,345.331z
					 M384.855,347.071l-2.292,13.539h4.562l-2.142-13.539H384.855z"/>
				<path fill="#331842" d="M401.113,345.331h3.191c2.699,0,4.461,0.316,5.291,0.949c0.828,0.635,1.242,2.084,1.242,4.352v12.949
					c0,2.256-0.422,3.705-1.264,4.342c-0.846,0.642-2.602,0.959-5.271,0.959h-3.189V345.331L401.113,345.331z M403.833,347.071
					v20.067h0.877c1.314,0,2.182-0.16,2.604-0.485c0.422-0.324,0.633-1.041,0.633-2.146v-14.754c0-1.117-0.215-1.844-0.645-2.18
					c-0.428-0.334-1.291-0.502-2.592-0.502H403.833L403.833,347.071z"/>
				<path fill="#331842" d="M415.634,345.331h7.541v1.867h-4.818v8.479h4.604v1.853h-4.604v9.483h4.947v1.867h-7.668v-23.549
					H415.634z"/>
				<path fill="#331842" d="M431.849,345.331h9.273v1.867h-3.254v21.684h-2.766v-21.684h-3.256v-1.867H431.849z"/>
				<path fill="#331842" d="M443.972,345.331h2.893v23.551h-2.893V345.331z"/>
				<path fill="#331842" d="M451.683,345.331h7.541v1.867h-4.818v8.479h4.604v1.853h-4.604v9.483h4.947v1.867h-7.668v-23.549
					H451.683z"/>
				<path fill="#331842" d="M463.271,345.331h4.732l3.064,21.682h0.213l3-21.682h4.604v23.551h-2.377v-21.779h-0.428l-3.084,21.779
					h-3.813l-3.191-21.779h-0.363v21.779h-2.357V345.331L463.271,345.331z"/>
				<path fill="#331842" d="M483.791,345.331h3.514c2.145,0,3.6,0.225,4.369,0.678c0.771,0.453,1.156,1.254,1.156,2.402v6.77
					c0,1.15-0.385,1.949-1.156,2.396c-0.77,0.447-2.229,0.67-4.369,0.67h-0.793v10.635h-2.721V345.331z M486.511,347.071v9.451
					h0.729c1.086,0,1.811-0.162,2.174-0.486c0.365-0.326,0.547-1.058,0.547-2.195v-4.088c0-1.139-0.182-1.871-0.547-2.195
					c-0.363-0.323-1.088-0.485-2.174-0.485L486.511,347.071L486.511,347.071z"/>
				<path fill="#331842" d="M505.982,350.135v13.939c0,2.021-0.365,3.395-1.094,4.119c-0.729,0.724-2.027,1.086-3.896,1.086
					c-1.842,0-3.127-0.367-3.855-1.104c-0.729-0.731-1.092-2.102-1.092-4.104v-13.938c0-1.979,0.367-3.334,1.102-4.062
					c0.736-0.73,2.031-1.097,3.891-1.097c1.854,0,3.145,0.363,3.867,1.086C505.621,346.788,505.982,348.145,505.982,350.135z
					 M503.132,349.817c0-1.193-0.158-2.011-0.471-2.451c-0.314-0.441-0.871-0.664-1.672-0.664c-0.785,0-1.332,0.215-1.641,0.646
					c-0.307,0.432-0.461,1.254-0.461,2.47v14.575c0,1.226,0.158,2.05,0.475,2.476c0.311,0.426,0.871,0.639,1.67,0.639
					c0.785,0,1.332-0.211,1.639-0.639c0.307-0.424,0.461-1.25,0.461-2.476V349.817z"/>
			</g>
		</g>
	</g>
</g>
</svg>
