<?xml version="1.0" encoding="utf-8"?>
<!-- Generator: Adobe Illustrator 16.0.0, SVG Export Plug-In . SVG Version: 6.00 Build 0)  -->
<!DOCTYPE svg PUBLIC "-//W3C//DTD SVG 1.1//EN" "http://www.w3.org/Graphics/SVG/1.1/DTD/svg11.dtd">
<svg version="1.1" id="Capa_1" xmlns="http://www.w3.org/2000/svg" xmlns:xlink="http://www.w3.org/1999/xlink" x="0px" y="0px"
	 width="672.586px" height="79.845px" viewBox="0 0 672.586 79.845" enable-background="new 0 0 672.586 79.845"
	 xml:space="preserve">
<g>
	<path fill="#A0C219" d="M297.97,39.044c-0.098-4.544-0.947-8.903-2.441-12.952C289.904,10.861,275.255,0,258.07,0
		c-21.842,0-39.576,17.544-39.906,39.308h4.883c0.33-19.067,15.879-34.425,35.023-34.425c19.057,0,34.551,15.217,35.018,34.161
		c-0.002,0.093-0.004,0.184-0.006,0.276h4.895C297.974,39.228,297.97,39.137,297.97,39.044z"/>
	<g>
		<circle fill="#A0C219" cx="251.406" cy="40.182" r="23.093"/>
		<circle fill="#779214" cx="252.972" cy="38.748" r="14.482"/>
		<circle fill="#FFFFFF" cx="251.406" cy="40.182" r="14.481"/>
		<polygon fill="#A0C219" points="280.96,28.179 286.296,40.214 280.96,52.186 267.919,52.186 267.919,28.179 		"/>
		<path fill="#FFFFFF" d="M271.423,40.182c0,11.038-8.98,20.018-20.018,20.018s-20.018-8.98-20.018-20.018
			c0-11.038,8.98-20.018,20.018-20.018S271.423,29.144,271.423,40.182z M232.283,40.182c0,10.545,8.578,19.124,19.123,19.124
			s19.123-8.579,19.123-19.124c0-10.545-8.578-19.124-19.123-19.124S232.283,29.637,232.283,40.182z"/>
	</g>
	<path fill="#F2961C" d="M368.039,39.922c0,0.087,0.004,0.173,0.004,0.26h-0.023c-0.139,19.232-15.768,34.779-35.033,34.779
		c-19.057,0-34.549-15.216-35.016-34.162c0.004-0.205,0.01-0.41,0.016-0.617c0-0.087,0.006-0.173,0.006-0.26
		c0-0.201-0.008-0.401-0.016-0.602h-4.895c-0.008,0.2-0.016,0.4-0.016,0.602c0,0.087,0.004,0.173,0.006,0.26
		c0.006,0.207,0.012,0.413,0.016,0.617c0.098,4.544,0.947,8.904,2.441,12.953c5.625,15.23,20.271,26.092,37.457,26.092
		c17.213,0,31.881-10.894,37.486-26.162c1.547-4.212,2.4-8.759,2.432-13.501h0.021c0-0.087-0.006-0.173-0.006-0.26
		c0-0.201,0.012-0.4,0.016-0.602h-4.885C368.046,39.522,368.039,39.721,368.039,39.922z"/>
	<g>
		<circle fill="#F2961C" cx="326.324" cy="40.182" r="23.093"/>
		<circle fill="#DF6C13" cx="327.888" cy="38.748" r="14.482"/>
		<circle fill="#FFFFFF" cx="326.324" cy="40.182" r="14.481"/>
		<polygon fill="#F2961C" points="355.878,28.179 361.212,40.214 355.878,52.186 342.837,52.186 342.837,28.179 		"/>
		<path fill="#FFFFFF" d="M346.339,40.182c0,11.038-8.979,20.018-20.016,20.018s-20.018-8.98-20.018-20.018
			c0-11.038,8.98-20.018,20.018-20.018S346.339,29.144,346.339,40.182z M307.199,40.182c0,10.545,8.58,19.124,19.125,19.124
			s19.123-8.579,19.123-19.124c0-10.545-8.578-19.124-19.123-19.124S307.199,29.637,307.199,40.182z"/>
	</g>
	<path fill="#331842" d="M445.439,26.146C439.83,10.886,425.166,0,407.958,0c-17.211,0-31.879,10.894-37.486,26.162
		c-1.508,4.111-2.354,8.542-2.422,13.159h4.885c0.322-19.072,15.875-34.438,35.023-34.438c19.15,0,34.703,15.365,35.025,34.438
		h4.883C447.798,34.697,446.953,30.262,445.439,26.146z"/>
	<g>
		<circle fill="#331842" cx="401.244" cy="40.182" r="23.093"/>
		<circle fill="#573376" cx="402.808" cy="38.748" r="14.482"/>
		<circle fill="#FFFFFF" cx="401.244" cy="40.182" r="14.481"/>
		<polygon fill="#331842" points="430.798,28.179 436.132,40.214 430.798,52.186 417.757,52.186 417.757,28.179 		"/>
		<path fill="#FFFFFF" d="M421.261,40.182c0,11.038-8.982,20.018-20.018,20.018c-11.039,0-20.018-8.98-20.018-20.018
			c0-11.038,8.979-20.018,20.018-20.018C412.279,20.165,421.261,29.144,421.261,40.182z M382.119,40.182
			c0,10.545,8.578,19.124,19.125,19.124c10.545,0,19.123-8.579,19.123-19.124c0-10.545-8.578-19.124-19.123-19.124
			C390.697,21.058,382.119,29.637,382.119,40.182z"/>
	</g>
	<path fill="#0093AF" d="M517.945,40.182c-0.004,0.085-0.006,0.173-0.006,0.259c0,0.055,0.002,0.107,0.002,0.161
		c-0.361,19.037-15.898,34.359-35.021,34.359c-19.266,0-34.893-15.547-35.033-34.779c0-0.081-0.006-0.159-0.006-0.24
		c0-0.007,0-0.014,0-0.021c0-0.006,0-0.013,0-0.02c0-0.195-0.01-0.387-0.014-0.582h-4.883c0.002,0.195,0.014,0.387,0.014,0.581
		c0,0.008,0,0.015,0,0.021c0,0.007,0,0.015,0,0.021c0,0.081-0.006,0.159-0.006,0.239h0.012c0.029,4.748,0.885,9.3,2.436,13.515
		c5.611,15.261,20.273,26.147,37.48,26.147c17.104,0,31.689-10.759,37.373-25.876c1.566-4.168,2.453-8.669,2.531-13.367
		c0.004-0.141,0.006-0.279,0.01-0.42c0.004-0.085,0.008-0.173,0.008-0.26c0-0.053-0.004-0.105-0.004-0.16
		c0.002-0.147,0.014-0.293,0.02-0.442h-4.885c-0.006,0.148-0.014,0.294-0.018,0.442C517.953,39.903,517.949,40.043,517.945,40.182z"
		/>
	<g>
		<circle fill="#0093AF" cx="475.99" cy="40.182" r="23.093"/>
		<circle fill="#227CC0" cx="477.556" cy="38.748" r="14.482"/>
		<path fill="#FFFFFF" d="M475.99,25.701c8,0,14.484,6.482,14.484,14.481s-6.484,14.481-14.484,14.481
			c-7.996,0-14.48-6.482-14.48-14.481S467.994,25.701,475.99,25.701z"/>
		<polygon fill="#0093AF" points="505.548,28.179 510.882,40.214 505.548,52.186 492.507,52.186 492.507,28.179 		"/>
		<path fill="#FFFFFF" d="M496.007,40.182c0,11.038-8.979,20.018-20.016,20.018s-20.02-8.98-20.02-20.018
			c0-11.038,8.982-20.018,20.02-20.018S496.007,29.144,496.007,40.182z M456.867,40.182c0,10.545,8.58,19.124,19.125,19.124
			s19.123-8.579,19.123-19.124c0-10.545-8.578-19.124-19.123-19.124S456.867,29.637,456.867,40.182z"/>
	</g>
	<path fill="#A0C219" d="M557.861,5.402c18.971,0,34.402,15.081,35.002,33.905h4.885C597.144,17.786,579.527,0.52,557.861,0.52
		c-17.105,0-31.689,10.759-37.373,25.876c-1.521,4.037-2.391,8.387-2.516,12.925h4.885C523.451,20.491,538.884,5.402,557.861,5.402z
		"/>
	<g>
		<circle fill="#A0C219" cx="550.978" cy="40.182" r="23.093"/>
		<circle fill="#779214" cx="552.542" cy="38.748" r="14.482"/>
		<circle fill="#FFFFFF" cx="550.978" cy="40.182" r="14.481"/>
		<polygon fill="#A0C219" points="580.533,28.179 585.867,40.214 580.533,52.186 567.492,52.186 567.492,28.179 		"/>
		<path fill="#FFFFFF" d="M570.996,40.182c0,11.038-8.98,20.018-20.018,20.018c-11.039,0-20.018-8.98-20.018-20.018
			c0-11.038,8.979-20.018,20.018-20.018C562.015,20.165,570.996,29.144,570.996,40.182z M531.855,40.182
			c0,10.545,8.578,19.124,19.123,19.124c10.543,0,19.123-8.579,19.123-19.124c0-10.545-8.58-19.124-19.123-19.124
			C540.433,21.058,531.855,29.637,531.855,40.182z"/>
	</g>
	<path fill="#F2961C" d="M667.673,40.182c-0.002,0.085-0.006,0.173-0.006,0.259c0,0.055,0.004,0.107,0.004,0.161
		c-0.363,19.037-15.9,34.359-35.023,34.359c-19.264,0-34.891-15.547-35.033-34.779c0-0.081-0.004-0.159-0.004-0.24
		c0-0.007,0-0.014,0-0.021c0-0.006,0-0.013,0-0.02c0-0.195-0.012-0.387-0.016-0.582h-4.883c0.002,0.195,0.014,0.387,0.014,0.581
		c0,0.008,0,0.015,0,0.021c0,0.007,0,0.015,0,0.021c0,0.081-0.004,0.159-0.004,0.239h0.01c0.031,4.748,0.885,9.3,2.436,13.515
		c5.611,15.261,20.273,26.147,37.48,26.147c17.105,0,31.689-10.759,37.373-25.876c1.568-4.168,2.453-8.669,2.531-13.367
		c0.004-0.141,0.008-0.279,0.01-0.42c0.004-0.085,0.008-0.173,0.008-0.26c0-0.053-0.004-0.105-0.004-0.16
		c0.002-0.147,0.016-0.293,0.02-0.442h-4.885c-0.004,0.148-0.014,0.294-0.018,0.442C667.681,39.903,667.679,40.043,667.673,40.182z"
		/>
	<g>
		<circle fill="#F2961C" cx="625.72" cy="40.182" r="23.093"/>
		<circle fill="#EC721F" cx="627.285" cy="38.748" r="14.482"/>
		<circle fill="#FFFFFF" cx="625.72" cy="40.182" r="14.481"/>
		<polygon fill="#F2961C" points="655.277,28.179 660.611,40.214 655.277,52.186 642.236,52.186 642.236,28.179 		"/>
		<path fill="#FFFFFF" d="M645.738,40.182c0,11.038-8.98,20.018-20.016,20.018c-11.039,0-20.02-8.98-20.02-20.018
			c0-11.038,8.98-20.018,20.02-20.018C636.757,20.165,645.738,29.144,645.738,40.182z M606.597,40.182
			c0,10.545,8.58,19.124,19.125,19.124c10.543,0,19.123-8.579,19.123-19.124c0-10.545-8.58-19.124-19.123-19.124
			C615.177,21.058,606.597,29.637,606.597,40.182z"/>
	</g>
	<g>
		<path fill="#A0C219" d="M254.491,31.147V49.36h-4.545v-9.765c0-1.41-0.034-2.257-0.101-2.542s-0.253-0.5-0.557-0.647
			c-0.304-0.146-0.981-0.219-2.031-0.219h-0.45v-2.124c2.198-0.473,3.866-1.445,5.006-2.917H254.491z"/>
	</g>
	<g>
		<path fill="#F2961C" d="M331.88,46.255v3.105h-10.001l0.003-2.599c2.962-4.845,4.723-7.843,5.282-8.994
			c0.559-1.151,0.838-2.049,0.838-2.694c0-0.495-0.084-0.864-0.253-1.108s-0.426-0.366-0.771-0.366
			c-0.346,0-0.603,0.135-0.772,0.405c-0.169,0.27-0.253,0.807-0.253,1.609v1.732h-4.072v-0.664c0-1.02,0.052-1.824,0.158-2.413
			c0.105-0.589,0.363-1.168,0.776-1.738c0.413-0.57,0.949-1.001,1.609-1.293c0.66-0.292,1.451-0.439,2.374-0.439
			c1.808,0,3.174,0.448,4.101,1.345c0.926,0.896,1.389,2.03,1.389,3.403c0,1.042-0.261,2.145-0.782,3.307
			c-0.521,1.163-2.057,3.63-4.607,7.402H331.88z"/>
	</g>
	<g>
		<path fill="#331842" d="M405.206,39.039c0.69,0.233,1.204,0.614,1.542,1.143c0.337,0.529,0.506,1.769,0.506,3.72
			c0,1.448-0.165,2.572-0.495,3.371c-0.33,0.799-0.9,1.407-1.71,1.823c-0.81,0.417-1.849,0.625-3.116,0.625
			c-1.44,0-2.57-0.242-3.392-0.726s-1.361-1.076-1.62-1.777s-0.388-1.918-0.388-3.65v-1.44h4.545v2.958
			c0,0.788,0.047,1.288,0.141,1.502c0.094,0.213,0.302,0.32,0.625,0.32c0.353,0,0.585-0.135,0.697-0.405
			c0.113-0.27,0.169-0.975,0.169-2.115v-1.26c0-0.697-0.079-1.208-0.236-1.53s-0.39-0.534-0.697-0.636
			c-0.308-0.101-0.904-0.159-1.789-0.174v-2.644c1.08,0,1.748-0.042,2.002-0.124s0.439-0.262,0.551-0.54
			c0.113-0.277,0.169-0.713,0.169-1.305v-1.012c0-0.638-0.066-1.058-0.197-1.26c-0.131-0.203-0.336-0.304-0.613-0.304
			c-0.315,0-0.531,0.107-0.647,0.321c-0.116,0.213-0.174,0.669-0.174,1.367v1.496h-4.545v-1.552c0-1.74,0.397-2.916,1.192-3.527
			s2.059-0.917,3.792-0.917c2.167,0,3.637,0.423,4.41,1.271c0.772,0.847,1.159,2.023,1.159,3.53c0,1.02-0.139,1.756-0.416,2.209
			C406.391,38.25,405.903,38.664,405.206,39.039z"/>
	</g>
	<g>
		<path fill="#0093AF" d="M480.324,31.147v11.902h1.293v3.104h-1.293v3.207h-4.545v-3.207h-5.4v-3.104l3.926-11.902H480.324z
			 M475.779,43.049v-7.751l-2.008,7.751H475.779z"/>
	</g>
	<g>
		<path fill="#A0C219" d="M556.242,31.147v2.914h-5.636v3.093c0.705-0.833,1.612-1.249,2.722-1.249c1.252,0,2.199,0.351,2.841,1.052
			c0.641,0.701,0.961,2.049,0.961,4.044v2.599c0,1.29-0.062,2.237-0.186,2.84c-0.124,0.604-0.388,1.163-0.793,1.676
			s-0.969,0.908-1.693,1.181c-0.724,0.273-1.607,0.411-2.649,0.411c-1.17,0-2.201-0.205-3.094-0.613s-1.526-1.018-1.901-1.828
			c-0.375-0.81-0.562-2.062-0.562-3.758v-0.99h4.544v1.136c0,1.178,0.042,2.014,0.124,2.509c0.083,0.495,0.367,0.742,0.855,0.742
			c0.225,0,0.407-0.071,0.545-0.214c0.139-0.142,0.214-0.296,0.225-0.461s0.024-0.881,0.04-2.148v-3.611
			c0-0.683-0.072-1.147-0.214-1.395c-0.143-0.248-0.379-0.371-0.709-0.371c-0.21,0-0.386,0.064-0.528,0.191
			c-0.143,0.128-0.235,0.265-0.276,0.411c-0.042,0.146-0.062,0.486-0.062,1.018h-4.5l0.191-9.18H556.242z"/>
	</g>
	<g>
		<path fill="#F2961C" d="M630.602,35.984h-4.545c0-0.847-0.01-1.381-0.028-1.603c-0.019-0.221-0.109-0.407-0.27-0.557
			s-0.38-0.225-0.658-0.225c-0.233,0-0.424,0.071-0.574,0.214c-0.15,0.143-0.236,0.326-0.259,0.551
			c-0.022,0.225-0.034,0.679-0.034,1.361v2.902c0.232-0.488,0.574-0.854,1.023-1.097c0.45-0.244,1.005-0.366,1.665-0.366
			c0.833,0,1.567,0.225,2.205,0.675c0.637,0.45,1.042,0.99,1.215,1.62c0.172,0.63,0.259,1.481,0.259,2.554v1.451
			c0,1.275-0.049,2.224-0.146,2.846s-0.358,1.198-0.782,1.727c-0.424,0.528-1.005,0.939-1.744,1.231
			c-0.739,0.293-1.6,0.439-2.582,0.439c-1.222,0-2.224-0.168-3.003-0.506c-0.78-0.337-1.382-0.823-1.806-1.457
			s-0.671-1.299-0.742-1.997c-0.071-0.697-0.107-2.051-0.107-4.061v-2.52c0-2.167,0.032-3.617,0.096-4.348
			c0.063-0.731,0.324-1.423,0.782-2.076s1.082-1.142,1.873-1.468c0.791-0.327,1.704-0.49,2.739-0.49
			c1.275,0,2.321,0.207,3.139,0.619c0.817,0.413,1.402,0.994,1.755,1.744S630.602,34.845,630.602,35.984z M626.057,41.666
			c0-0.645-0.071-1.087-0.214-1.327c-0.143-0.24-0.375-0.36-0.697-0.36c-0.315,0-0.546,0.114-0.692,0.343
			c-0.146,0.229-0.219,0.677-0.219,1.344v3.296c0,0.803,0.069,1.328,0.208,1.575c0.139,0.248,0.369,0.371,0.692,0.371
			c0.195,0,0.397-0.096,0.607-0.287c0.21-0.191,0.315-0.707,0.315-1.547V41.666z"/>
	</g>
	<polygon fill="#331842" points="0,15.691 14.142,64.602 199.044,54.568 210.378,15.691 	"/>
	<g>
		<path fill="#A0C219" d="M20.382,24.843h2.72v21.683h4.905v1.868h-7.625V24.843z"/>
		<path fill="#A0C219" d="M30.642,24.843h2.891v23.551h-2.891V24.843z"/>
		<path fill="#A0C219" d="M38.353,24.843h3.727l4.519,22.146h0.043l-0.407-22.146h2.463v23.551h-3.77l-4.477-21.843h-0.086
			l0.386,21.843h-2.399V24.843z"/>
		<path fill="#A0C219" d="M53.582,24.843h7.54v1.868h-4.819v8.478h4.605v1.852h-4.605v9.484h4.948v1.868h-7.668V24.843z"/>
		<path fill="#A0C219" d="M67.847,24.843h3.984l4.562,23.551h-2.935l-1.093-6.546h-5.183l-1.178,6.546h-2.87L67.847,24.843z
			 M69.731,26.583l-2.292,13.54h4.562l-2.142-13.54H69.731z"/>
		<path fill="#A0C219" d="M85.989,24.843h3.191c2.699,0,4.462,0.316,5.291,0.95c0.828,0.633,1.242,2.083,1.242,4.351v12.949
			c0,2.257-0.421,3.705-1.264,4.343c-0.843,0.639-2.599,0.958-5.269,0.958h-3.191V24.843z M88.709,26.583v20.07h0.878
			c1.314,0,2.181-0.162,2.603-0.487c0.421-0.325,0.632-1.041,0.632-2.147V29.266c0-1.118-0.214-1.845-0.643-2.18
			c-0.428-0.335-1.292-0.503-2.592-0.503H88.709z"/>
		<path fill="#A0C219" d="M100.511,24.843h7.54v1.868h-4.819v8.478h4.605v1.852h-4.605v9.484h4.948v1.868h-7.668V24.843z"/>
		<path fill="#A0C219" d="M116.725,24.843H126v1.868h-3.256v21.683h-2.763V26.711h-3.256V24.843z"/>
		<path fill="#A0C219" d="M128.848,24.843h2.892v23.551h-2.892V24.843z"/>
		<path fill="#A0C219" d="M136.559,24.843h7.54v1.868h-4.819v8.478h4.605v1.852h-4.605v9.484h4.948v1.868h-7.668V24.843z"/>
		<path fill="#A0C219" d="M148.147,24.843h4.733l3.063,21.683h0.214l2.999-21.683h4.605v23.551h-2.377V26.615h-0.428l-3.084,21.779
			h-3.812l-3.191-21.779h-0.364v21.779h-2.356V24.843z"/>
		<path fill="#A0C219" d="M168.667,24.843h3.513c2.142,0,3.599,0.226,4.37,0.678c0.771,0.453,1.157,1.253,1.157,2.403v6.77
			c0,1.15-0.386,1.948-1.157,2.395s-2.228,0.671-4.37,0.671h-0.792v10.634h-2.72V24.843z M171.387,26.583v9.452h0.729
			c1.085,0,1.81-0.162,2.174-0.487s0.546-1.056,0.546-2.196v-4.087c0-1.139-0.182-1.871-0.546-2.196s-1.089-0.487-2.174-0.487
			H171.387z"/>
		<path fill="#A0C219" d="M190.857,29.649v13.939c0,2.022-0.364,3.396-1.093,4.12c-0.728,0.724-2.027,1.085-3.898,1.085
			c-1.842,0-3.127-0.367-3.855-1.102c-0.728-0.735-1.092-2.102-1.092-4.104V29.649c0-1.979,0.367-3.334,1.103-4.063
			c0.735-0.729,2.031-1.094,3.887-1.094s3.146,0.362,3.866,1.086C190.496,26.301,190.857,27.659,190.857,29.649z M188.008,29.33
			c0-1.192-0.158-2.009-0.472-2.451s-0.871-0.663-1.67-0.663c-0.786,0-1.332,0.215-1.639,0.646s-0.46,1.253-0.46,2.467v14.578
			c0,1.224,0.157,2.049,0.471,2.475c0.314,0.426,0.871,0.639,1.67,0.639c0.785,0,1.332-0.212,1.639-0.639
			c0.307-0.425,0.461-1.25,0.461-2.475V29.33z"/>
	</g>
</g>
</svg>
