<?xml version="1.0" encoding="utf-8"?>
<!-- Generator: Adobe Illustrator 16.0.0, SVG Export Plug-In . SVG Version: 6.00 Build 0)  -->
<!DOCTYPE svg PUBLIC "-//W3C//DTD SVG 1.1//EN" "http://www.w3.org/Graphics/SVG/1.1/DTD/svg11.dtd">
<svg version="1.1" id="Capa_1" xmlns="http://www.w3.org/2000/svg" xmlns:xlink="http://www.w3.org/1999/xlink" x="0px" y="0px"
	 width="633.295px" height="394.996px" viewBox="0 0 633.295 394.996" enable-background="new 0 0 633.295 394.996"
	 xml:space="preserve">
<path fill="#2C5A67" d="M0,0l5.793,394.996l583.071-2.949l32.043-343.09c-3.527,1.631-7.5,2.446-11.654,2.209
	c-13.488-0.772-23.805-12.341-23.033-25.838c0.209-3.664,1.22-7.102,2.845-10.134L0,0z"/>
<path fill="#2C5A67" d="M611.344,14.709c-6.639-0.379-12.328,4.694-12.709,11.331c-0.379,6.637,4.693,12.325,11.334,12.704
	c6.638,0.38,12.324-4.693,12.703-11.33C623.053,20.777,617.983,15.089,611.344,14.709z M616.229,31.559
	c0.347,0.389,0.312,0.983-0.075,1.331c-0.394,0.346-0.984,0.312-1.33-0.077l-4.24-4.754l-4.756,4.24
	c-0.392,0.347-0.984,0.312-1.332-0.075c-0.34-0.39-0.305-0.984,0.076-1.332l4.754-4.24l-4.24-4.755
	c-0.346-0.391-0.305-0.982,0.086-1.333c0.379-0.336,0.978-0.312,1.322,0.077l4.242,4.755l4.756-4.241
	c0.387-0.335,0.979-0.302,1.33,0.076c0.344,0.392,0.311,0.985-0.078,1.333l-4.756,4.241L616.229,31.559z"/>
<g>
	<path fill="#2C5A67" d="M588.049,25.434c0.713-12.464,11.435-22.025,23.898-21.312c12.465,0.712,22.022,11.434,21.311,23.897
		c-0.713,12.465-11.432,22.026-23.896,21.313C596.896,48.62,587.336,37.898,588.049,25.434z M595.038,25.833
		c-0.492,8.612,6.113,16.018,14.723,16.51c8.611,0.492,16.021-6.112,16.513-14.723c0.491-8.611-6.113-16.017-14.726-16.509
		C602.938,10.618,595.53,17.222,595.038,25.833z"/>
</g>
</svg>
