<?xml version="1.0" encoding="utf-8"?>
<!-- Generator: Adobe Illustrator 16.0.0, SVG Export Plug-In . SVG Version: 6.00 Build 0)  -->
<!DOCTYPE svg PUBLIC "-//W3C//DTD SVG 1.1//EN" "http://www.w3.org/Graphics/SVG/1.1/DTD/svg11.dtd">
<svg version="1.1" id="Capa_1" xmlns="http://www.w3.org/2000/svg" xmlns:xlink="http://www.w3.org/1999/xlink" x="0px" y="0px"
	 width="418.174px" height="188.408px" viewBox="0 0 418.174 188.408" enable-background="new 0 0 418.174 188.408"
	 xml:space="preserve">
<g>
	<rect x="0.84" y="90.773" fill="#F2961C" width="417.334" height="28.324"/>
	<g>
		<g>
			<path fill="#FFFFFF" d="M83.121,100.103v1.652h-2.106v-1.605c0-0.672-0.097-1.137-0.291-1.395
				c-0.194-0.258-0.537-0.387-1.029-0.387c-0.451,0-0.766,0.146-0.943,0.439c-0.179,0.293-0.268,0.907-0.268,1.846v10.699
				c0,0.961,0.095,1.586,0.283,1.875s0.534,0.434,1.038,0.434c0.43,0,0.738-0.137,0.927-0.41s0.283-0.738,0.283-1.395v-1.863h2.106
				v1.922c0,1.18-0.246,1.979-0.738,2.396c-0.493,0.418-1.373,0.627-2.642,0.627c-1.247,0-2.117-0.271-2.609-0.81
				c-0.493-0.539-0.739-1.543-0.739-3.012v-10.229c0-1.462,0.246-2.457,0.739-2.988c0.492-0.531,1.362-0.797,2.609-0.797
				c1.278,0,2.161,0.207,2.649,0.621C82.877,98.138,83.121,98.931,83.121,100.103z"/>
			<path fill="#FFFFFF" d="M85.73,97.36h2.123v17.285H85.73V97.36z"/>
			<path fill="#FFFFFF" d="M90.07,97.36h2.027l2.154,15.562h0.22L96.5,97.36h1.902l-2.516,17.285h-3.113L90.07,97.36z"/>
			<path fill="#FFFFFF" d="M100.697,97.36h2.122v17.285h-2.122V97.36z"/>
			<path fill="#FFFFFF" d="M106.356,97.36h1.996v15.914h3.601v1.371h-5.597V97.36z"/>
			<path fill="#FFFFFF" d="M113.887,97.36h2.122v17.285h-2.122V97.36z"/>
			<path fill="#FFFFFF" d="M118.352,97.36h6.24v1.513l-4.496,14.401h4.701v1.371h-6.666v-1.629l4.527-14.285h-4.307L118.352,97.36
				L118.352,97.36z"/>
			<path fill="#FFFFFF" d="M128.947,97.36h2.924l3.348,17.285h-2.153l-0.802-4.805h-3.805l-0.864,4.805h-2.106L128.947,97.36z
				 M130.33,98.638l-1.682,9.938h3.348l-1.572-9.938H130.33z"/>
			<path fill="#FFFFFF" d="M143.977,100.103v1.652h-2.107v-1.605c0-0.672-0.097-1.137-0.291-1.395
				c-0.193-0.258-0.537-0.387-1.029-0.387c-0.451,0-0.766,0.146-0.943,0.439c-0.177,0.293-0.268,0.907-0.268,1.846v10.699
				c0,0.961,0.096,1.586,0.283,1.875c0.189,0.289,0.535,0.434,1.038,0.434c0.43,0,0.739-0.137,0.927-0.41
				c0.189-0.273,0.283-0.738,0.283-1.395v-1.863h2.107v1.922c0,1.18-0.246,1.979-0.739,2.396c-0.493,0.416-1.373,0.627-2.642,0.627
				c-1.246,0-2.117-0.271-2.609-0.81c-0.492-0.539-0.738-1.543-0.738-3.012v-10.229c0-1.462,0.246-2.457,0.738-2.988
				c0.492-0.531,1.363-0.797,2.609-0.797c1.279,0,2.162,0.207,2.649,0.621C143.732,98.138,143.977,98.931,143.977,100.103z"/>
			<path fill="#FFFFFF" d="M146.586,97.36h2.122v17.285h-2.122V97.36z"/>
			<path fill="#FFFFFF" d="M159.445,100.888v10.23c0,1.484-0.268,2.492-0.803,3.023c-0.533,0.53-1.488,0.797-2.86,0.797
				c-1.353,0-2.296-0.271-2.83-0.81c-0.534-0.539-0.802-1.543-0.802-3.012v-10.229c0-1.453,0.27-2.447,0.81-2.982
				s1.491-0.803,2.854-0.803c1.363,0,2.308,0.266,2.837,0.797C159.18,98.431,159.445,99.427,159.445,100.888z M157.354,100.653
				c0-0.875-0.115-1.475-0.346-1.799c-0.231-0.323-0.639-0.485-1.226-0.485c-0.577,0-0.978,0.157-1.202,0.475
				c-0.227,0.316-0.339,0.921-0.339,1.812v10.699c0,0.897,0.115,1.504,0.347,1.815c0.23,0.312,0.639,0.47,1.226,0.47
				c0.576,0,0.978-0.156,1.202-0.47c0.226-0.312,0.338-0.918,0.338-1.815V100.653z"/>
			<path fill="#FFFFFF" d="M162.967,97.36h2.735l3.317,16.255h0.031l-0.299-16.255h1.808v17.285h-2.767l-3.285-16.03h-0.063
				l0.282,16.03h-1.76L162.967,97.36L162.967,97.36z"/>
			<path fill="#FFFFFF" d="M174.145,97.36h5.533v1.371h-3.537v6.224h3.38v1.358h-3.38v6.961h3.631v1.371h-5.627V97.36z"/>
			<path fill="#FFFFFF" d="M188.701,100.103v1.652h-2.091v-1.605c0-0.68-0.095-1.146-0.283-1.399s-0.524-0.381-1.006-0.381
				c-0.462,0-0.786,0.143-0.975,0.428s-0.283,0.791-0.283,1.519v0.844c0,0.352,0.065,0.713,0.196,1.084
				c0.131,0.371,0.322,0.721,0.574,1.049l2.609,3.434c0.44,0.578,0.76,1.123,0.959,1.635c0.199,0.513,0.299,1.041,0.299,1.589v1.172
				c0,1.5-0.254,2.512-0.763,3.035c-0.509,0.522-1.412,0.784-2.712,0.784c-1.268,0-2.15-0.211-2.648-0.633s-0.747-1.219-0.747-2.391
				v-1.922h2.106v1.863c0,0.703,0.095,1.18,0.283,1.43c0.188,0.25,0.535,0.375,1.037,0.375c0.514,0,0.867-0.143,1.062-0.428
				c0.195-0.285,0.291-0.912,0.291-1.881v-1.195c0-0.445-0.056-0.85-0.165-1.213c-0.109-0.363-0.27-0.693-0.479-0.99l-2.767-3.68
				c-0.389-0.492-0.684-0.961-0.889-1.406c-0.204-0.445-0.307-0.832-0.307-1.16v-1.008c0-1.344,0.249-2.279,0.747-2.807
				c0.497-0.527,1.354-0.791,2.57-0.791c1.278,0,2.161,0.207,2.649,0.621C188.457,98.138,188.701,98.931,188.701,100.103z"/>
			<path fill="#FFFFFF" d="M199.375,97.36h2.029v13.759c0,1.444-0.244,2.438-0.731,2.981c-0.487,0.543-1.339,0.814-2.555,0.814
				c-1.216,0-2.062-0.215-2.539-0.645c-0.478-0.431-0.716-1.215-0.716-2.355v-1.922h2.061v1.863c0,0.719,0.086,1.194,0.259,1.43
				c0.173,0.234,0.485,0.352,0.936,0.352c0.472,0,0.799-0.152,0.982-0.457s0.274-0.914,0.274-1.828V97.36L199.375,97.36z"/>
			<path fill="#FFFFFF" d="M204.83,97.36h2.092v13.992c0,0.898,0.115,1.504,0.346,1.816s0.639,0.469,1.227,0.469
				c0.576,0,0.977-0.156,1.201-0.469c0.226-0.312,0.339-0.918,0.339-1.816V97.36h2.091v13.759c0,1.483-0.268,2.491-0.802,3.022
				s-1.488,0.797-2.86,0.797c-1.353,0-2.296-0.27-2.83-0.809c-0.535-0.539-0.803-1.543-0.803-3.012L204.83,97.36L204.83,97.36z"/>
			<path fill="#FFFFFF" d="M215.646,97.36h2.344c1.979,0,3.273,0.232,3.883,0.697s0.912,1.529,0.912,3.193v9.504
				c0,1.656-0.311,2.719-0.928,3.188c-0.619,0.47-1.907,0.703-3.867,0.703h-2.344V97.36z M217.644,98.638v14.73h0.645
				c0.965,0,1.602-0.119,1.91-0.357c0.31-0.238,0.465-0.764,0.465-1.576v-10.828c0-0.819-0.158-1.354-0.473-1.6
				c-0.315-0.246-0.948-0.369-1.902-0.369H217.644z"/>
			<path fill="#FFFFFF" d="M226.306,97.36h5.534v1.371h-3.538v6.224h3.381v1.358h-3.381v6.961h3.633v1.371h-5.629V97.36z"/>
			<path fill="#FFFFFF" d="M242.01,100.888v10.23c0,1.484-0.267,2.492-0.801,3.023c-0.535,0.53-1.487,0.797-2.86,0.797
				c-1.353,0-2.295-0.271-2.83-0.81s-0.803-1.543-0.803-3.012v-10.229c0-1.453,0.271-2.447,0.811-2.982s1.49-0.803,2.854-0.803
				s2.309,0.266,2.838,0.797S242.01,99.427,242.01,100.888z M239.92,100.653c0-0.875-0.114-1.475-0.346-1.799
				c-0.231-0.323-0.642-0.485-1.228-0.485c-0.576,0-0.978,0.157-1.203,0.475c-0.225,0.316-0.338,0.921-0.338,1.812v10.699
				c0,0.897,0.115,1.504,0.346,1.815c0.231,0.312,0.641,0.47,1.228,0.47c0.576,0,0.978-0.156,1.203-0.47
				c0.226-0.312,0.338-0.918,0.338-1.815V100.653z"/>
			<path fill="#FFFFFF" d="M252.166,100.103v1.652h-2.106v-1.605c0-0.672-0.098-1.137-0.291-1.395s-0.537-0.387-1.029-0.387
				c-0.451,0-0.766,0.146-0.943,0.439c-0.177,0.293-0.268,0.907-0.268,1.846v10.699c0,0.961,0.096,1.586,0.283,1.875
				c0.188,0.289,0.535,0.434,1.037,0.434c0.43,0,0.739-0.137,0.928-0.41s0.283-0.738,0.283-1.395v-1.863h2.106v1.922
				c0,1.18-0.246,1.979-0.739,2.396c-0.492,0.416-1.373,0.627-2.642,0.627c-1.246,0-2.117-0.271-2.609-0.81
				c-0.491-0.539-0.737-1.543-0.737-3.012v-10.229c0-1.462,0.246-2.457,0.737-2.988c0.492-0.531,1.363-0.797,2.609-0.797
				c1.278,0,2.161,0.207,2.649,0.621C251.921,98.138,252.166,98.931,252.166,100.103z"/>
			<path fill="#FFFFFF" d="M254.774,97.36h3.051c1.57,0,2.636,0.164,3.189,0.492c0.557,0.328,0.834,0.918,0.834,1.771v3.914
				c0,0.719-0.184,1.228-0.551,1.522c-0.367,0.297-1.016,0.478-1.949,0.539c0.996,0.047,1.688,0.219,2.075,0.517
				c0.388,0.297,0.582,0.812,0.582,1.547v6.983h-2.122v-6.457c0-0.812-0.154-1.34-0.465-1.582c-0.309-0.241-0.945-0.362-1.909-0.362
				h-0.739v8.401h-1.996V97.36z M256.771,98.638v6.316h0.707c0.912,0,1.521-0.119,1.824-0.357c0.305-0.238,0.456-0.768,0.456-1.588
				v-2.402c0-0.828-0.151-1.362-0.456-1.604s-0.912-0.362-1.824-0.362h-0.707V98.638z"/>
			<path fill="#FFFFFF" d="M265.497,97.36h2.122v17.285h-2.122V97.36z"/>
			<path fill="#FFFFFF" d="M277.209,100.103v1.652h-2.091v-1.605c0-0.68-0.096-1.146-0.283-1.399s-0.523-0.381-1.006-0.381
				c-0.462,0-0.786,0.143-0.975,0.428c-0.189,0.285-0.283,0.791-0.283,1.519v0.844c0,0.352,0.064,0.713,0.195,1.084
				s0.322,0.721,0.574,1.049l2.609,3.434c0.439,0.578,0.76,1.123,0.959,1.635c0.199,0.513,0.299,1.041,0.299,1.589v1.172
				c0,1.5-0.254,2.512-0.763,3.035c-0.509,0.522-1.412,0.784-2.712,0.784c-1.269,0-2.15-0.211-2.648-0.633s-0.747-1.219-0.747-2.391
				v-1.922h2.106v1.863c0,0.703,0.095,1.18,0.283,1.43c0.188,0.25,0.535,0.375,1.037,0.375c0.514,0,0.866-0.143,1.062-0.428
				c0.194-0.285,0.291-0.912,0.291-1.881v-1.195c0-0.445-0.056-0.85-0.165-1.213s-0.27-0.693-0.479-0.99l-2.768-3.68
				c-0.389-0.492-0.684-0.961-0.889-1.406s-0.308-0.832-0.308-1.16v-1.008c0-1.344,0.249-2.279,0.747-2.807
				c0.497-0.527,1.354-0.791,2.57-0.791c1.277,0,2.16,0.207,2.648,0.621C276.965,98.138,277.209,98.931,277.209,100.103z"/>
			<path fill="#FFFFFF" d="M278.481,97.36h6.808v1.371h-2.39v15.914h-2.028V98.731h-2.39V97.36z"/>
			<path fill="#FFFFFF" d="M287.381,97.36h2.121v17.285h-2.121V97.36z"/>
			<path fill="#FFFFFF" d="M295.004,97.36h2.925l3.35,17.285h-2.154l-0.802-4.805h-3.804l-0.865,4.805h-2.106L295.004,97.36z
				 M296.388,98.638l-1.683,9.938h3.351l-1.572-9.938H296.388z"/>
			<path fill="#FFFFFF" d="M303.399,97.36h2.734l3.317,16.255h0.03l-0.297-16.255h1.807v17.285h-2.766l-3.287-16.03h-0.062
				l0.283,16.03h-1.76V97.36L303.399,97.36z"/>
			<path fill="#FFFFFF" d="M316.542,97.36h2.924l3.35,17.285h-2.154l-0.801-4.805h-3.805l-0.865,4.805h-2.105L316.542,97.36z
				 M317.926,98.638l-1.683,9.938h3.349l-1.571-9.938H317.926z"/>
			<path fill="#FFFFFF" d="M330.989,100.103v1.652h-2.092v-1.605c0-0.68-0.094-1.146-0.282-1.399s-0.523-0.381-1.007-0.381
				c-0.461,0-0.785,0.143-0.975,0.428s-0.283,0.791-0.283,1.519v0.844c0,0.352,0.065,0.713,0.197,1.084
				c0.131,0.371,0.322,0.721,0.573,1.049l2.608,3.434c0.44,0.578,0.761,1.123,0.959,1.635c0.199,0.513,0.3,1.041,0.3,1.589v1.172
				c0,1.5-0.255,2.512-0.763,3.035c-0.509,0.522-1.412,0.784-2.711,0.784c-1.271,0-2.152-0.211-2.649-0.633
				c-0.498-0.422-0.747-1.219-0.747-2.391v-1.922h2.107v1.863c0,0.703,0.094,1.18,0.281,1.43c0.188,0.25,0.534,0.375,1.038,0.375
				c0.513,0,0.867-0.143,1.062-0.428c0.193-0.285,0.291-0.912,0.291-1.881v-1.195c0-0.445-0.056-0.85-0.166-1.213
				c-0.109-0.363-0.271-0.693-0.479-0.99l-2.768-3.68c-0.387-0.492-0.685-0.961-0.889-1.406c-0.203-0.445-0.306-0.832-0.306-1.16
				v-1.008c0-1.344,0.248-2.279,0.746-2.807c0.498-0.528,1.354-0.791,2.569-0.791c1.279,0,2.162,0.207,2.648,0.621
				C330.746,98.138,330.989,98.931,330.989,100.103z"/>
		</g>
	</g>
	<rect x="30.682" y="105.588" fill="#F2961C" width="4.932" height="82.82"/>
	<polygon fill="#F2961C" points="63.838,159.468 63.838,138.251 58.859,138.251 62.018,132.778 65.178,127.308 68.336,132.778 
		71.496,138.251 66.518,138.251 66.518,159.468 	"/>
</g>
</svg>
