<?xml version="1.0" encoding="utf-8"?>
<!-- Generator: Adobe Illustrator 16.0.0, SVG Export Plug-In . SVG Version: 6.00 Build 0)  -->
<!DOCTYPE svg PUBLIC "-//W3C//DTD SVG 1.1//EN" "http://www.w3.org/Graphics/SVG/1.1/DTD/svg11.dtd">
<svg version="1.1" id="Capa_1" xmlns="http://www.w3.org/2000/svg" xmlns:xlink="http://www.w3.org/1999/xlink" x="0px" y="0px"
	 width="192.654px" height="355.273px" viewBox="0 0 192.654 355.273" enable-background="new 0 0 192.654 355.273"
	 xml:space="preserve">
<g>
	<g>
		<path fill="#2B5A67" d="M145.501,42.619c6.918,0,12.525,6.244,12.525,13.945v9.379c-3.895,8.078-4.979,16.027-11.895,16.027
			l-12.75,23.452c-6.918,0-1.982-2.438-1.982-10.141V56.563c0-7.701,5.609-13.945,12.527-13.945L145.501,42.619L145.501,42.619z"/>
		<g>
			<path fill="#FFFFFF" d="M137.606,60.699c0-3.43,0-6.86,0-10.289c0.02-0.041,0.047-0.078,0.053-0.122
				c0.221-1.361,1.373-2.387,2.764-2.392c3.234-0.018,6.471-0.019,9.705,0c1.537,0.009,2.795,1.265,2.803,2.802
				c0.018,3.235,0.012,6.471,0,9.703c-0.002,0.703-0.254,1.322-0.732,1.854c-0.48,0.538-1.09,0.822-1.779,0.965
				c-3.432,0-6.859,0-10.289,0c-0.541-0.123-1.053-0.303-1.486-0.674C138.065,62.055,137.749,61.428,137.606,60.699z
				 M145.272,60.686c1.523,0,3.043,0,4.564-0.003c0.455,0,0.561-0.106,0.561-0.558c0.004-3.041,0.004-6.084,0-9.126
				c0-0.47-0.104-0.573-0.582-0.573c-3.031-0.001-6.061-0.001-9.092,0c-0.475,0-0.58,0.104-0.58,0.575
				c-0.002,3.029-0.002,6.061,0,9.093c0,0.491,0.1,0.589,0.6,0.589C142.255,60.686,143.762,60.686,145.272,60.686z"/>
			<path fill="#FFFFFF" d="M145.298,53.002c1.02,0,2.041,0.001,3.061-0.003c0.281,0,0.514,0.067,0.658,0.326
				c0.156,0.276,0.088,0.513-0.084,0.753c-1.039,1.444-2.07,2.896-3.109,4.34c-0.322,0.452-0.787,0.444-1.115-0.012
				c-1.029-1.436-2.057-2.878-3.086-4.312c-0.174-0.237-0.262-0.475-0.105-0.754c0.148-0.273,0.391-0.346,0.684-0.342
				C143.231,53.005,144.264,53.002,145.298,53.002z"/>
		</g>
		<polygon fill="#2B5A67" points="188.524,302.495 47.909,309.264 23.673,355.273 177.032,351.784 178.161,346.955 		"/>
		<polygon fill="#F2951B" points="188.745,302.331 48.163,309.774 19.411,266.443 172.341,254.452 173.952,259.144 		"/>
		<polygon fill="#F2951B" points="4.13,217.911 144.776,211.792 169.223,165.897 15.851,168.676 14.698,173.499 		"/>
		<polygon fill="#2B5A67" points="3.908,218.074 144.524,211.283 173.075,254.745 20.091,266.03 18.502,261.33 		"/>
		<polygon fill="#2B5A67" points="180.708,116.454 40.092,123.223 15.856,169.233 169.216,165.743 170.344,160.914 		"/>
		<polygon fill="#F2951B" points="180.928,116.291 40.346,123.732 11.595,80.402 164.524,68.41 166.135,73.102 		"/>
		<g>
			<path fill="#FFFFFF" d="M137.475,87.421c-0.1-0.07-0.26-0.105-0.482-0.105h-0.445v0.913h0.445c0.223,0,0.375-0.04,0.479-0.113
				c0.111-0.075,0.156-0.189,0.156-0.351C137.628,87.609,137.583,87.496,137.475,87.421z M137.475,87.421
				c-0.1-0.07-0.26-0.105-0.482-0.105h-0.445v0.913h0.445c0.223,0,0.375-0.04,0.479-0.113c0.111-0.075,0.156-0.189,0.156-0.351
				C137.628,87.609,137.583,87.496,137.475,87.421z M137.475,87.421c-0.1-0.07-0.26-0.105-0.482-0.105h-0.445v0.913h0.445
				c0.223,0,0.375-0.04,0.479-0.113c0.111-0.075,0.156-0.189,0.156-0.351C137.628,87.609,137.583,87.496,137.475,87.421z
				 M141.456,87.582c-0.189-0.173-0.488-0.261-0.9-0.261h-0.361v2.163h0.361c0.414,0,0.717-0.088,0.9-0.254
				c0.182-0.167,0.275-0.443,0.275-0.822C141.731,88.026,141.637,87.752,141.456,87.582z M137.475,87.421
				c-0.1-0.07-0.26-0.105-0.482-0.105h-0.445v0.913h0.445c0.223,0,0.375-0.04,0.479-0.113c0.111-0.075,0.156-0.189,0.156-0.351
				C137.628,87.609,137.583,87.496,137.475,87.421z M141.456,87.582c-0.189-0.173-0.488-0.261-0.9-0.261h-0.361v2.163h0.361
				c0.414,0,0.717-0.088,0.9-0.254c0.182-0.167,0.275-0.443,0.275-0.822C141.731,88.026,141.637,87.752,141.456,87.582z
				 M154.536,83.199h-20.793c-0.92,0-1.664,0.708-1.664,1.582v25.44c0,0.875,0.744,1.583,1.664,1.583h9.213l-0.607-0.699h-6.656
				c-0.914,0-1.66-0.709-1.66-1.585V93.2h20.469v16.319c0,0.876-0.738,1.585-1.66,1.585h-0.938l-0.559,0.699h3.189
				c0.92,0,1.658-0.709,1.658-1.583V84.78C156.194,83.907,155.456,83.199,154.536,83.199z M138.292,88.612
				c-0.242,0.2-0.58,0.299-1.016,0.299h-0.73v1.232h-1.014v-3.478h1.674c0.473,0,0.838,0.096,1.078,0.282
				c0.248,0.188,0.367,0.465,0.367,0.827C138.653,88.135,138.534,88.412,138.292,88.612z M142.249,89.716
				c-0.354,0.285-0.885,0.429-1.596,0.429h-1.475v-3.478h1.475c0.711,0,1.242,0.146,1.596,0.434
				c0.355,0.292,0.529,0.726,0.529,1.308C142.778,88.989,142.604,89.424,142.249,89.716z M145.936,87.33h-1.555v0.81h1.439v0.656
				h-1.439v1.349h-1.012v-3.478h2.564v0.663H145.936z M140.555,87.321h-0.361v2.163h0.361c0.414,0,0.717-0.088,0.9-0.254
				c0.182-0.167,0.275-0.443,0.275-0.822c0-0.382-0.096-0.656-0.275-0.826C141.266,87.409,140.968,87.321,140.555,87.321z
				 M137.475,87.421c-0.1-0.07-0.26-0.105-0.482-0.105h-0.445v0.913h0.445c0.223,0,0.375-0.04,0.479-0.113
				c0.111-0.075,0.156-0.189,0.156-0.351C137.628,87.609,137.583,87.496,137.475,87.421z M141.456,87.582
				c-0.189-0.173-0.488-0.261-0.9-0.261h-0.361v2.163h0.361c0.414,0,0.717-0.088,0.9-0.254c0.182-0.167,0.275-0.443,0.275-0.822
				C141.731,88.026,141.637,87.752,141.456,87.582z M137.475,87.421c-0.1-0.07-0.26-0.105-0.482-0.105h-0.445v0.913h0.445
				c0.223,0,0.375-0.04,0.479-0.113c0.111-0.075,0.156-0.189,0.156-0.351C137.628,87.609,137.583,87.496,137.475,87.421z
				 M141.456,87.582c-0.189-0.173-0.488-0.261-0.9-0.261h-0.361v2.163h0.361c0.414,0,0.717-0.088,0.9-0.254
				c0.182-0.167,0.275-0.443,0.275-0.822C141.731,88.026,141.637,87.752,141.456,87.582z M137.475,87.421
				c-0.1-0.07-0.26-0.105-0.482-0.105h-0.445v0.913h0.445c0.223,0,0.375-0.04,0.479-0.113c0.111-0.075,0.156-0.189,0.156-0.351
				C137.628,87.609,137.583,87.496,137.475,87.421z"/>
			<polygon fill="#FFFFFF" points="142.118,109.289 147.225,115.199 151.962,109.289 149.618,109.289 149.614,107.849 
				144.688,107.849 144.706,109.289 			"/>
			<path fill="#FFFFFF" d="M149.6,106.403c0,0.209-0.18,0.384-0.402,0.384h-3.984c-0.225,0-0.408-0.175-0.408-0.384l0,0
				c0-0.215,0.186-0.386,0.408-0.386h3.984C149.421,106.017,149.6,106.188,149.6,106.403L149.6,106.403z"/>
			<path fill="#FFFFFF" d="M149.6,104.846c0,0.234-0.197,0.428-0.447,0.428h-3.902c-0.244,0-0.445-0.193-0.445-0.428l0,0
				c0-0.235,0.201-0.424,0.445-0.424h3.902C149.403,104.424,149.6,104.611,149.6,104.846L149.6,104.846z"/>
		</g>
		<g>
			<path fill="#FFFFFF" d="M50.979,96.008h-2.98v-9.401h2.637c0.924,0,1.621,0.065,2.084,0.193c0.457,0.123,0.879,0.33,1.244,0.618
				c0.527,0.416,0.928,0.972,1.213,1.659c0.281,0.688,0.42,1.478,0.42,2.361c0,0.712-0.1,1.377-0.301,1.974
				c-0.205,0.596-0.486,1.097-0.854,1.49c-0.392,0.398-0.832,0.679-1.349,0.848C52.588,95.924,51.879,96.008,50.979,96.008z
				 M51.262,94.887c1.006,0,1.761-0.287,2.265-0.862c0.504-0.571,0.752-1.435,0.752-2.586c0-1.216-0.279-2.157-0.834-2.815
				c-0.562-0.653-1.363-0.981-2.402-0.981h-1.781v7.246L51.262,94.887L51.262,94.887z"/>
			<path fill="#FFFFFF" d="M62.688,93.903c0,0.683-0.248,1.229-0.73,1.645c-0.479,0.416-1.121,0.624-1.91,0.624
				c-1.02,0-1.795-0.283-2.322-0.847c-0.524-0.56-0.788-1.378-0.788-2.461c0-1.155,0.258-2.035,0.774-2.648
				c0.521-0.612,1.271-0.917,2.236-0.917c0.889,0,1.588,0.255,2.098,0.759c0.512,0.509,0.771,1.203,0.771,2.078
				c0,0.21-0.004,0.374-0.015,0.483c0,0.109-0.012,0.209-0.018,0.312h-4.643v0.13v0.262c0,0.617,0.158,1.099,0.479,1.436
				c0.318,0.339,0.766,0.505,1.346,0.505c0.482,0,0.865-0.117,1.146-0.364c0.285-0.247,0.43-0.573,0.436-0.995H62.688z
				 M58.201,92.081h3.381v-0.145c0-0.546-0.146-0.981-0.449-1.317c-0.301-0.332-0.688-0.501-1.168-0.501
				c-0.518,0-0.94,0.183-1.268,0.543C58.369,91.022,58.201,91.499,58.201,92.081z"/>
			<path fill="#FFFFFF" d="M64.01,94.037h1.209v0.027c0,0.357,0.129,0.644,0.384,0.861c0.25,0.219,0.586,0.321,1.008,0.321
				c0.405,0,0.735-0.092,0.992-0.288c0.247-0.189,0.377-0.437,0.377-0.737c0-0.23-0.062-0.415-0.193-0.556
				c-0.129-0.142-0.328-0.239-0.596-0.309l-1.392-0.327c-0.588-0.135-1.024-0.347-1.311-0.628c-0.285-0.286-0.429-0.646-0.429-1.078
				c0-0.602,0.24-1.085,0.728-1.458c0.49-0.366,1.129-0.557,1.928-0.557c0.732,0,1.312,0.156,1.73,0.461
				c0.432,0.31,0.641,0.729,0.641,1.263c0,0.052,0,0.093,0,0.121c0,0.025-0.012,0.055-0.012,0.075h-1.207v-0.056
				c0-0.311-0.104-0.565-0.334-0.741c-0.219-0.184-0.523-0.278-0.91-0.278c-0.383,0-0.689,0.095-0.938,0.278
				c-0.245,0.176-0.368,0.403-0.368,0.678c0,0.216,0.071,0.386,0.221,0.514c0.147,0.13,0.396,0.241,0.738,0.335l1.494,0.406
				c0.512,0.136,0.893,0.354,1.143,0.646c0.248,0.281,0.365,0.653,0.365,1.119c0,0.618-0.232,1.111-0.705,1.48
				c-0.474,0.371-1.107,0.559-1.912,0.559c-0.914,0-1.584-0.163-2.01-0.481c-0.429-0.319-0.642-0.818-0.642-1.497L64.01,94.037
				L64.01,94.037z"/>
			<path fill="#FFFFFF" d="M75.979,93.805c-0.056,0.766-0.298,1.347-0.73,1.754c-0.441,0.405-1.053,0.612-1.828,0.612
				c-0.928,0-1.646-0.288-2.154-0.86c-0.504-0.571-0.76-1.383-0.76-2.443c0-1.119,0.269-1.996,0.797-2.628
				c0.529-0.629,1.263-0.941,2.211-0.941c0.73,0,1.316,0.203,1.752,0.598c0.441,0.396,0.658,0.93,0.658,1.595v0.024h-1.176
				c0-0.387-0.127-0.717-0.377-0.977c-0.258-0.265-0.574-0.393-0.951-0.393c-0.508,0-0.918,0.22-1.213,0.652
				c-0.299,0.437-0.443,1.032-0.443,1.786c0,0.882,0.138,1.547,0.408,1.993c0.281,0.448,0.688,0.67,1.224,0.67
				c0.422,0,0.758-0.129,1.01-0.388c0.262-0.262,0.391-0.616,0.401-1.054L75.979,93.805L75.979,93.805z"/>
			<path fill="#FFFFFF" d="M82.662,96.008H81.58c-0.045-0.136-0.09-0.464-0.129-0.994v-0.038c-0.164,0.387-0.426,0.683-0.789,0.887
				c-0.357,0.203-0.795,0.309-1.312,0.309c-0.668,0-1.192-0.18-1.594-0.545c-0.397-0.362-0.602-0.838-0.602-1.436
				c0-0.695,0.276-1.238,0.83-1.648c0.553-0.407,1.307-0.606,2.264-0.606h1.133v-0.797c0-0.349-0.1-0.618-0.324-0.798
				c-0.217-0.185-0.539-0.273-0.967-0.273c-0.399,0-0.721,0.102-0.955,0.299c-0.239,0.198-0.356,0.472-0.373,0.824h-1.159v-0.104
				c0-0.573,0.206-1.019,0.618-1.327c0.416-0.311,1.013-0.462,1.791-0.462c0.902,0,1.562,0.162,1.972,0.479
				c0.405,0.325,0.616,0.843,0.616,1.561v4.047c0,0.056,0.007,0.136,0.013,0.254C82.629,95.748,82.639,95.872,82.662,96.008z
				 M81.381,92.759h-1.01c-0.629,0-1.111,0.12-1.457,0.349c-0.344,0.23-0.514,0.554-0.514,0.97c0,0.318,0.114,0.586,0.348,0.793
				c0.23,0.212,0.529,0.316,0.887,0.316c0.562,0,0.994-0.152,1.304-0.454c0.301-0.301,0.442-0.744,0.442-1.324V92.759z"/>
			<path fill="#FFFFFF" d="M84.541,96.008v-5.521c0-0.212-0.002-0.401-0.008-0.559c-0.008-0.154-0.019-0.312-0.035-0.467h1.217
				l0.023,1.25c0.121-0.409,0.332-0.727,0.643-0.938c0.308-0.213,0.709-0.312,1.201-0.312c0.086,0,0.174,0.003,0.258,0.01
				c0.082,0.004,0.164,0.017,0.238,0.033v1.133c-0.129-0.027-0.25-0.049-0.363-0.064c-0.106-0.01-0.209-0.017-0.293-0.017
				c-0.537,0-0.953,0.149-1.248,0.458c-0.285,0.306-0.436,0.744-0.436,1.312v3.683L84.541,96.008L84.541,96.008z"/>
			<path fill="#FFFFFF" d="M93.832,94.765c-0.127,0.26-0.379,0.479-0.756,0.67c-0.379,0.182-0.777,0.277-1.187,0.277
				c-0.926,0-1.631-0.274-2.12-0.826c-0.498-0.551-0.74-1.34-0.74-2.378c0-0.975,0.248-1.754,0.758-2.33
				c0.502-0.579,1.182-0.868,2.037-0.868c0.508,0,0.938,0.078,1.285,0.242c0.346,0.156,0.619,0.396,0.811,0.714l0.047-0.808h1.138
				c-0.019,0.184-0.033,0.367-0.039,0.547c-0.011,0.177-0.015,0.385-0.015,0.612v5.179c0,0.977-0.242,1.692-0.729,2.134
				c-0.488,0.452-1.26,0.678-2.316,0.678c-0.918,0-1.586-0.18-2.008-0.525c-0.418-0.352-0.633-0.906-0.639-1.668h1.305
				c0.004,0.438,0.131,0.768,0.379,0.994c0.246,0.23,0.613,0.348,1.088,0.348c0.578,0,1.008-0.146,1.285-0.431
				c0.281-0.286,0.418-0.729,0.418-1.331L93.832,94.765L93.832,94.765z M93.979,92.445c0-0.703-0.168-1.27-0.505-1.684
				c-0.338-0.42-0.791-0.632-1.346-0.632c-0.563,0-1.006,0.229-1.336,0.677c-0.334,0.454-0.498,1.065-0.498,1.84
				c0,0.705,0.174,1.266,0.51,1.683c0.328,0.412,0.775,0.624,1.347,0.624c0.553,0,0.994-0.226,1.33-0.674
				C93.815,93.826,93.979,93.22,93.979,92.445z"/>
			<path fill="#FFFFFF" d="M102.157,96.008h-1.082c-0.039-0.136-0.082-0.464-0.129-0.994v-0.038
				c-0.166,0.387-0.426,0.683-0.787,0.887c-0.357,0.203-0.797,0.309-1.314,0.309c-0.664,0-1.195-0.18-1.592-0.545
				c-0.402-0.362-0.604-0.838-0.604-1.436c0-0.695,0.282-1.238,0.831-1.648c0.553-0.407,1.303-0.606,2.266-0.606h1.139v-0.797
				c0-0.349-0.113-0.618-0.33-0.798c-0.221-0.185-0.537-0.273-0.963-0.273c-0.404,0-0.729,0.102-0.967,0.299
				c-0.234,0.198-0.355,0.472-0.369,0.824H97.1v-0.104c0-0.573,0.203-1.019,0.617-1.327c0.414-0.311,1.014-0.462,1.785-0.462
				c0.902,0,1.562,0.162,1.979,0.479c0.408,0.325,0.611,0.843,0.611,1.561v4.047c0,0.056,0.008,0.136,0.016,0.254
				C102.118,95.748,102.135,95.872,102.157,96.008z M100.884,92.759h-1.021c-0.623,0-1.113,0.12-1.449,0.349
				c-0.348,0.23-0.521,0.554-0.521,0.97c0,0.318,0.117,0.586,0.355,0.793c0.234,0.212,0.527,0.316,0.883,0.316
				c0.566,0,1-0.152,1.299-0.454c0.305-0.301,0.455-0.744,0.455-1.324V92.759z"/>
			<path fill="#FFFFFF" d="M104.042,96.008v-5.521c0-0.212-0.006-0.401-0.016-0.559c-0.006-0.154-0.016-0.312-0.027-0.467h1.213
				l0.02,1.25c0.123-0.409,0.336-0.727,0.643-0.938c0.311-0.213,0.713-0.312,1.203-0.312c0.09,0,0.172,0.003,0.256,0.01
				c0.084,0.004,0.16,0.017,0.24,0.033v1.133c-0.135-0.027-0.254-0.049-0.365-0.064c-0.104-0.01-0.205-0.017-0.291-0.017
				c-0.539,0-0.955,0.149-1.246,0.458c-0.291,0.306-0.438,0.744-0.438,1.312v3.683L104.042,96.008L104.042,96.008z"/>
			<path fill="#FFFFFF" d="M66.44,107.792v-8.876h3.094c0.971,0,1.695,0.204,2.174,0.605c0.477,0.413,0.715,1.021,0.715,1.837
				c0,0.873-0.279,1.516-0.832,1.929c-0.562,0.406-1.438,0.613-2.639,0.613h-1.328v3.892H66.44z M69.336,102.803
				c0.656,0,1.125-0.112,1.41-0.332c0.281-0.227,0.422-0.586,0.422-1.084c0-0.519-0.137-0.891-0.42-1.112
				c-0.281-0.219-0.75-0.334-1.412-0.334h-1.713v2.862H69.336z"/>
			<path fill="#FFFFFF" d="M76.68,107.792h-2.811v-8.876h2.488c0.868,0,1.522,0.062,1.963,0.184
				c0.434,0.114,0.828,0.311,1.174,0.583c0.5,0.395,0.879,0.917,1.143,1.566c0.271,0.648,0.4,1.394,0.4,2.228
				c0,0.673-0.096,1.298-0.289,1.862c-0.186,0.565-0.455,1.032-0.805,1.402c-0.363,0.375-0.785,0.647-1.269,0.806
				C78.199,107.71,77.53,107.792,76.68,107.792z M76.948,106.728c0.949,0,1.662-0.27,2.133-0.81c0.479-0.54,0.711-1.353,0.711-2.442
				c0-1.15-0.262-2.036-0.785-2.656c-0.531-0.617-1.287-0.927-2.268-0.927h-1.685v6.835H76.948z"/>
			<path fill="#FFFFFF" d="M82.707,107.792v-8.876h5.162v1.069h-3.978v2.718h3.767v1.057h-3.767v4.032H82.707z"/>
		</g>
		<g>
			<path fill="#FFFFFF" d="M24.902,193.821v-8.848h3.317c0.679,0,1.22,0.089,1.627,0.268c0.408,0.182,0.729,0.457,0.959,0.827
				c0.23,0.374,0.349,0.763,0.349,1.169c0,0.377-0.105,0.734-0.308,1.068c-0.207,0.333-0.518,0.604-0.93,0.807
				c0.535,0.158,0.945,0.426,1.232,0.806c0.287,0.376,0.434,0.822,0.434,1.338c0,0.416-0.09,0.801-0.266,1.155
				c-0.172,0.356-0.392,0.631-0.648,0.824c-0.256,0.194-0.578,0.338-0.967,0.438c-0.387,0.098-0.865,0.146-1.428,0.146
				L24.902,193.821L24.902,193.821z M26.072,188.69h1.914c0.52,0,0.891-0.033,1.117-0.102c0.297-0.088,0.52-0.236,0.674-0.44
				c0.149-0.206,0.223-0.463,0.223-0.771c0-0.293-0.068-0.553-0.209-0.775c-0.141-0.224-0.344-0.377-0.604-0.459
				c-0.263-0.083-0.71-0.123-1.345-0.123h-1.77V188.69z M26.072,192.776h2.203c0.379,0,0.645-0.015,0.797-0.041
				c0.268-0.049,0.494-0.129,0.676-0.242c0.182-0.112,0.328-0.276,0.445-0.491c0.116-0.217,0.178-0.464,0.178-0.746
				c0-0.328-0.086-0.615-0.254-0.86c-0.17-0.241-0.406-0.412-0.705-0.512c-0.301-0.099-0.732-0.146-1.293-0.146h-2.047V192.776z"/>
			<path fill="#FFFFFF" d="M33.062,186.222v-1.249h1.088v1.249H33.062z M33.062,193.821v-6.412h1.088v6.412H33.062z"/>
			<path fill="#FFFFFF" d="M36.802,193.821h-1.01v-8.848h1.088v3.156c0.457-0.574,1.045-0.863,1.756-0.863
				c0.396,0,0.771,0.08,1.123,0.238c0.351,0.158,0.64,0.385,0.867,0.67c0.225,0.289,0.404,0.633,0.531,1.042
				c0.129,0.404,0.192,0.842,0.192,1.306c0,1.095-0.272,1.944-0.812,2.544c-0.545,0.601-1.197,0.899-1.957,0.899
				c-0.756,0-1.352-0.316-1.779-0.947V193.821z M36.79,190.567c0,0.771,0.105,1.324,0.314,1.666
				c0.342,0.561,0.803,0.838,1.387,0.838c0.475,0,0.885-0.205,1.229-0.617c0.347-0.414,0.521-1.026,0.521-1.846
				c0-0.834-0.166-1.453-0.498-1.851c-0.33-0.399-0.732-0.598-1.203-0.598c-0.477,0-0.887,0.206-1.232,0.618
				C36.964,189.19,36.79,189.785,36.79,190.567z"/>
			<path fill="#FFFFFF" d="M42.65,193.821v-8.848h1.084v8.848H42.65z"/>
			<path fill="#FFFFFF" d="M45.427,186.222v-1.249h1.084v1.249H45.427z M45.427,193.821v-6.412h1.084v6.412H45.427z"/>
			<path fill="#FFFFFF" d="M47.763,190.616c0-1.188,0.328-2.065,0.986-2.638c0.551-0.475,1.223-0.713,2.016-0.713
				c0.886,0,1.603,0.289,2.16,0.868c0.56,0.574,0.84,1.374,0.84,2.393c0,0.824-0.123,1.472-0.37,1.944
				c-0.248,0.472-0.605,0.84-1.08,1.102c-0.476,0.261-0.988,0.394-1.55,0.394c-0.896,0-1.623-0.288-2.176-0.865
				C48.036,192.526,47.763,191.698,47.763,190.616z M48.876,190.616c0,0.819,0.18,1.435,0.537,1.843
				c0.359,0.409,0.809,0.611,1.352,0.611c0.539,0,0.99-0.205,1.349-0.615c0.354-0.409,0.535-1.034,0.535-1.879
				c0-0.791-0.183-1.389-0.539-1.798c-0.361-0.407-0.808-0.614-1.345-0.614c-0.543,0-0.991,0.204-1.352,0.609
				C49.056,189.182,48.876,189.796,48.876,190.616z"/>
			<path fill="#FFFFFF" d="M54.839,194.352l1.056,0.158c0.045,0.321,0.166,0.562,0.368,0.711c0.271,0.201,0.638,0.301,1.105,0.301
				c0.498,0,0.889-0.1,1.162-0.301c0.272-0.203,0.459-0.482,0.557-0.845c0.058-0.225,0.082-0.688,0.078-1.396
				c-0.475,0.558-1.068,0.839-1.773,0.839c-0.881,0-1.563-0.319-2.047-0.955c-0.481-0.633-0.723-1.396-0.723-2.289
				c0-0.608,0.109-1.17,0.33-1.688c0.223-0.517,0.545-0.916,0.963-1.197c0.42-0.281,0.918-0.424,1.482-0.424
				c0.756,0,1.379,0.306,1.866,0.917v-0.774h1.005v5.544c0,0.995-0.101,1.704-0.306,2.12c-0.201,0.418-0.521,0.744-0.963,0.985
				c-0.441,0.244-0.984,0.363-1.629,0.363c-0.764,0-1.383-0.174-1.852-0.518C55.05,195.56,54.823,195.046,54.839,194.352z
				 M55.74,190.502c0,0.841,0.162,1.453,0.498,1.841c0.334,0.385,0.752,0.578,1.256,0.578c0.498,0,0.92-0.191,1.256-0.575
				c0.338-0.387,0.506-0.987,0.506-1.811c0-0.78-0.172-1.373-0.521-1.772c-0.351-0.396-0.769-0.599-1.256-0.599
				c-0.486,0-0.896,0.198-1.234,0.591C55.906,189.144,55.74,189.729,55.74,190.502z"/>
			<path fill="#FFFFFF" d="M61.9,193.821v-6.412h0.979v0.976c0.248-0.455,0.479-0.756,0.689-0.899
				c0.213-0.146,0.444-0.218,0.696-0.218c0.367,0,0.738,0.117,1.115,0.351l-0.373,1.007c-0.264-0.155-0.528-0.233-0.795-0.233
				c-0.236,0-0.453,0.069-0.639,0.215c-0.193,0.143-0.326,0.342-0.406,0.595c-0.123,0.385-0.182,0.809-0.182,1.266v3.356H61.9
				V193.821z"/>
			<path fill="#FFFFFF" d="M70.21,193.03c-0.404,0.342-0.789,0.582-1.164,0.726c-0.371,0.141-0.771,0.211-1.197,0.211
				c-0.702,0-1.245-0.173-1.623-0.518c-0.377-0.343-0.567-0.784-0.567-1.315c0-0.315,0.074-0.604,0.215-0.862
				c0.143-0.26,0.33-0.465,0.562-0.625c0.232-0.154,0.49-0.273,0.781-0.354c0.211-0.059,0.535-0.11,0.963-0.166
				c0.881-0.104,1.527-0.229,1.939-0.37c0.006-0.148,0.006-0.244,0.006-0.285c0-0.442-0.102-0.754-0.305-0.935
				c-0.281-0.248-0.693-0.371-1.24-0.371c-0.514,0-0.891,0.093-1.131,0.271c-0.24,0.181-0.422,0.498-0.541,0.951l-1.061-0.146
				c0.097-0.455,0.257-0.822,0.478-1.103c0.221-0.278,0.541-0.495,0.959-0.646c0.42-0.147,0.904-0.227,1.455-0.227
				c0.545,0,0.99,0.065,1.334,0.193c0.34,0.13,0.592,0.288,0.754,0.485c0.16,0.193,0.272,0.441,0.338,0.738
				c0.039,0.185,0.053,0.518,0.053,1.002v1.448c0,1.01,0.025,1.647,0.07,1.917c0.045,0.268,0.137,0.521,0.272,0.77h-1.135
				C70.314,193.596,70.24,193.332,70.21,193.03z M70.118,190.606c-0.396,0.158-0.986,0.294-1.773,0.408
				c-0.446,0.063-0.764,0.138-0.948,0.219c-0.185,0.08-0.326,0.196-0.429,0.351c-0.1,0.155-0.147,0.328-0.147,0.518
				c0,0.29,0.106,0.531,0.328,0.724c0.219,0.194,0.539,0.291,0.963,0.291c0.418,0,0.789-0.091,1.112-0.273
				c0.324-0.186,0.568-0.435,0.722-0.752c0.117-0.246,0.174-0.606,0.174-1.086L70.118,190.606L70.118,190.606z"/>
			<path fill="#FFFFFF" d="M73.161,193.821v-5.563h-0.963v-0.849h0.963v-0.679c0-0.43,0.037-0.751,0.113-0.959
				c0.104-0.28,0.287-0.513,0.553-0.686c0.264-0.176,0.631-0.263,1.104-0.263c0.308,0,0.646,0.034,1.015,0.106l-0.162,0.946
				c-0.228-0.038-0.439-0.061-0.639-0.061c-0.33,0-0.564,0.072-0.703,0.213c-0.136,0.141-0.203,0.404-0.203,0.793v0.586h1.248v0.849
				H74.24v5.563h-1.078V193.821z"/>
			<path fill="#FFFFFF" d="M76.659,186.616l0.805-1.69h1.422l-1.325,1.69H76.659z M76.714,193.821v-6.412H77.8v6.412H76.714z"/>
			<path fill="#FFFFFF" d="M83.948,193.03c-0.402,0.342-0.789,0.582-1.162,0.726c-0.373,0.141-0.771,0.211-1.197,0.211
				c-0.703,0-1.242-0.173-1.623-0.518c-0.377-0.343-0.565-0.784-0.565-1.315c0-0.315,0.071-0.604,0.215-0.862
				c0.143-0.259,0.332-0.465,0.561-0.625c0.23-0.154,0.49-0.273,0.783-0.354c0.209-0.059,0.535-0.11,0.961-0.166
				c0.877-0.104,1.523-0.229,1.939-0.37c0.006-0.148,0.01-0.244,0.01-0.285c0-0.442-0.104-0.754-0.312-0.935
				c-0.28-0.248-0.688-0.371-1.239-0.371c-0.513,0-0.886,0.093-1.127,0.271c-0.246,0.181-0.427,0.498-0.543,0.951l-1.062-0.146
				c0.096-0.455,0.256-0.822,0.478-1.103c0.221-0.278,0.543-0.495,0.961-0.646c0.416-0.147,0.899-0.227,1.453-0.227
				c0.543,0,0.989,0.065,1.332,0.193c0.342,0.13,0.596,0.288,0.754,0.485c0.161,0.193,0.274,0.441,0.34,0.738
				c0.033,0.185,0.053,0.518,0.053,1.002v1.448c0,1.01,0.025,1.647,0.07,1.917c0.045,0.268,0.139,0.521,0.272,0.77h-1.131
				C84.054,193.596,83.982,193.332,83.948,193.03z M83.859,190.606c-0.396,0.158-0.984,0.294-1.773,0.408
				c-0.447,0.063-0.762,0.138-0.947,0.219c-0.186,0.08-0.33,0.196-0.43,0.351c-0.102,0.155-0.152,0.328-0.152,0.518
				c0,0.29,0.109,0.531,0.33,0.724c0.22,0.194,0.541,0.291,0.965,0.291c0.416,0,0.789-0.091,1.115-0.273
				c0.324-0.186,0.562-0.435,0.719-0.752c0.115-0.246,0.175-0.606,0.175-1.086L83.859,190.606L83.859,190.606z"/>
		</g>
		<g>
			<path fill="#FFFFFF" d="M137.653,195.739c0,0.851,0,1.582,0,2.411c-0.334,0.017-0.65,0.046-0.967,0.046
				c-8.627,0.002-17.254,0.084-25.879-0.041c-3.221-0.047-3.459,2.023-2.912,4.18c0.148,0.589,0.906,1.218,1.523,1.441
				c0.869,0.316,1.869,0.366,2.812,0.369c8.059,0.024,16.117,0.014,24.178,0.014c0.385,0,0.77,0,1.223,0c0,0.824,0,1.578,0,2.413
				c-0.354,0.018-0.674,0.044-0.992,0.044c-8.207,0.002-16.416,0.023-24.625-0.022c-1.23-0.008-2.504-0.203-3.684-0.561
				c-1.906-0.573-2.914-2.025-3.053-3.989c-0.066-0.968-0.023-1.978,0.18-2.923c0.455-2.11,1.977-3.302,4.152-3.37
				c1.252-0.038,2.506-0.012,3.76-0.012c7.729,0,15.461,0,23.189,0C136.909,195.739,137.257,195.739,137.653,195.739z"/>
			<path fill="#FFFFFF" d="M107.997,194.149c0-0.785,0-1.434,0-2.224c0.406,0,0.779,0,1.152,0c7.463,0,14.924,0,22.387,0
				c0.178,0,0.357,0,0.537,0c2.355-0.005,3.287-1.226,2.697-3.524c-0.203-0.794-0.697-1.347-1.482-1.515
				c-0.75-0.161-1.531-0.249-2.299-0.252c-7.283-0.019-14.566-0.011-21.848-0.011c-0.354,0-0.705,0-1.119,0c0-0.751,0-1.423,0-2.183
				c0.312-0.016,0.629-0.044,0.945-0.044c7.521-0.001,15.043-0.015,22.564,0.023c0.938,0.005,1.904,0.188,2.799,0.476
				c1.367,0.434,2.379,1.412,2.537,2.853c0.139,1.271,0.115,2.631-0.193,3.86c-0.439,1.759-1.928,2.396-3.623,2.527
				c-0.682,0.053-1.371,0.012-2.057,0.012c-7.283,0-14.566,0-21.85,0C108.794,194.149,108.44,194.149,107.997,194.149z"/>
			<path fill="#FFFFFF" d="M132.389,174.711c0,0.578,0,1.138,0,1.808c-0.355,0-0.676,0-0.992-0.001
				c-6.477-0.016-12.951-0.03-19.428-0.044c-1.447-0.004-1.982,0.473-2.102,1.851c-0.129,1.485,0.434,2.31,1.771,2.528
				c0.469,0.076,0.953,0.068,1.43,0.068c6.088,0.004,12.176,0.004,18.264,0.004c0.322,0,0.646,0,1.033,0c0,0.651,0,1.231,0,1.938
				c-0.324,0-0.641,0-0.957,0c-6.088,0-12.176,0.015-18.264-0.016c-0.883-0.004-1.793-0.124-2.643-0.364
				c-1.332-0.376-2.264-1.284-2.404-2.7c-0.094-0.957-0.066-1.975,0.162-2.901c0.344-1.402,1.529-2.238,3.094-2.244
				c6.924-0.025,13.848-0.006,20.771-0.001C132.18,174.635,132.237,174.664,132.389,174.711z"/>
			<path fill="#FFFFFF" d="M136.278,202.623c-0.205,0.271-0.289,0.487-0.441,0.558c-0.176,0.081-0.41,0.036-0.619,0.036
				c-7.996,0.001-15.994,0.005-23.988-0.014c-0.352,0.001-0.969,0.271-0.916-0.58C118.917,202.623,127.495,202.623,136.278,202.623z
				"/>
			<path fill="#FFFFFF" d="M132.618,189.194c-0.168,0.156-0.324,0.334-0.514,0.462c-0.082,0.058-0.23,0.015-0.352,0.015
				c-7.191,0.001-14.385,0.003-21.578-0.006c-0.369-0.001-0.922,0.169-0.791-0.639c7.676,0,15.354,0,23.031,0
				C132.483,189.08,132.552,189.137,132.618,189.194z"/>
			<path fill="#FFFFFF" d="M120.971,188.057c-3.551,0-7.102,0-10.648,0c-0.238,0-0.484,0.016-0.713-0.035
				c-0.104-0.025-0.234-0.197-0.234-0.304c-0.002-0.106,0.129-0.284,0.23-0.308c0.227-0.054,0.473-0.038,0.711-0.038
				c7.1-0.002,14.197-0.002,21.301,0c0.207,0,0.432-0.032,0.619,0.029c0.123,0.041,0.238,0.221,0.27,0.357
				c0.014,0.072-0.154,0.246-0.26,0.268c-0.23,0.047-0.475,0.029-0.713,0.029C128.01,188.058,124.491,188.057,120.971,188.057z"/>
			<path fill="#FFFFFF" d="M132.477,191.086c-7.707,0-15.391,0-23.311,0c0.246-0.289,0.344-0.495,0.5-0.562
				c0.178-0.077,0.41-0.035,0.617-0.035c7.129,0,14.256-0.003,21.385,0.01C132.024,190.496,132.659,190.259,132.477,191.086z"/>
			<path fill="#FFFFFF" d="M136.288,200.828c-0.213,0.277-0.303,0.479-0.455,0.563c-0.141,0.077-0.35,0.032-0.529,0.032
				c-8.057,0-16.113,0.004-24.172-0.011c-0.34,0-0.934,0.232-0.793-0.586C118.917,200.828,127.499,200.828,136.288,200.828z"/>
			<path fill="#FFFFFF" d="M111.557,180.336c0.305-0.327,0.439-0.514,0.613-0.649c0.076-0.06,0.232-0.016,0.354-0.016
				c5.996,0,11.99-0.002,17.986,0.002c0.406,0,0.916-0.099,0.709,0.663C124.768,180.336,118.309,180.336,111.557,180.336z"/>
			<path fill="#FFFFFF" d="M123.296,199.094c3.939,0,7.879,0,11.818,0c0.209,0,0.434-0.043,0.623,0.019
				c0.152,0.051,0.26,0.23,0.389,0.354c-0.121,0.096-0.229,0.235-0.365,0.276c-0.164,0.05-0.354,0.019-0.531,0.019
				c-8,0-15.998,0-23.998-0.002c-0.209,0-0.432,0.033-0.621-0.025c-0.123-0.038-0.248-0.206-0.281-0.34
				c-0.02-0.068,0.15-0.248,0.258-0.271c0.23-0.047,0.475-0.029,0.713-0.029C115.298,199.094,119.296,199.094,123.296,199.094z"/>
			<path fill="#FFFFFF" d="M121.491,179.026c-2.951,0-5.9,0.011-8.852-0.016c-0.289-0.002-0.574-0.224-0.863-0.343
				c0.271-0.104,0.539-0.295,0.809-0.296c5.961-0.018,11.92-0.014,17.881-0.014c0.117,0,0.252-0.032,0.355,0.011
				c0.162,0.07,0.301,0.19,0.449,0.29c-0.16,0.122-0.316,0.339-0.482,0.348c-0.803,0.037-1.607,0.02-2.412,0.02
				C126.079,179.027,123.784,179.027,121.491,179.026z"/>
			<path fill="#FFFFFF" d="M121.497,177.106c3.008,0,6.02-0.01,9.027,0.015c0.248,0.001,0.496,0.226,0.742,0.346
				c-0.238,0.102-0.479,0.293-0.719,0.293c-6.02,0.017-12.039,0.017-18.057-0.001c-0.238-0.001-0.479-0.206-0.713-0.315
				c0.229-0.111,0.459-0.32,0.688-0.321C115.477,177.1,118.487,177.107,121.497,177.106z"/>
		</g>
		<g>
			<g>
				<path fill="#FFFFFF" d="M63.55,285.662c-0.02,0.805-0.334,1.438-0.924,1.908c-0.604,0.469-1.406,0.705-2.418,0.705
					c-1.234,0-2.178-0.404-2.822-1.197c-0.649-0.801-0.975-1.957-0.975-3.469c0-1.516,0.34-2.688,1.02-3.511
					c0.681-0.83,1.647-1.246,2.896-1.246c0.981,0,1.753,0.226,2.321,0.677c0.558,0.446,0.857,1.068,0.878,1.857h-1.294
					c-0.042-0.472-0.251-0.845-0.622-1.136c-0.371-0.288-0.83-0.431-1.4-0.431c-0.785,0-1.397,0.327-1.832,0.985
					c-0.44,0.659-0.66,1.578-0.66,2.766c0,1.165,0.22,2.062,0.648,2.697c0.432,0.636,1.047,0.958,1.844,0.958
					c0.576,0,1.039-0.14,1.394-0.415c0.35-0.28,0.543-0.664,0.588-1.15L63.55,285.662L63.55,285.662z"/>
				<path fill="#FFFFFF" d="M65.054,288.122v-5.363c0-0.207,0-0.395-0.008-0.545c-0.002-0.15-0.016-0.304-0.021-0.454h1.172
					l0.021,1.216c0.117-0.4,0.322-0.705,0.629-0.912c0.291-0.207,0.685-0.304,1.162-0.304c0.086,0,0.17,0,0.248,0.007
					c0.084,0.007,0.16,0.018,0.232,0.032v1.099c-0.127-0.022-0.24-0.044-0.353-0.055c-0.106-0.015-0.198-0.021-0.283-0.021
					c-0.526,0-0.928,0.148-1.208,0.45c-0.281,0.29-0.429,0.717-0.429,1.271v3.579H65.054z"/>
				<path fill="#FFFFFF" d="M75.005,286.077c-0.004,0.66-0.238,1.192-0.707,1.591c-0.473,0.406-1.09,0.607-1.862,0.607
					c-0.984,0-1.74-0.271-2.253-0.818c-0.512-0.549-0.764-1.341-0.764-2.394c0-1.124,0.252-1.976,0.752-2.571
					c0.506-0.59,1.232-0.889,2.17-0.889c0.865,0,1.545,0.24,2.039,0.738c0.495,0.497,0.738,1.164,0.738,2.015
					c0,0.206,0,0.363-0.004,0.474c-0.004,0.104-0.01,0.203-0.019,0.304h-4.508v0.118v0.257c0,0.606,0.15,1.069,0.459,1.393
					c0.308,0.332,0.744,0.495,1.316,0.495c0.463,0,0.838-0.118,1.104-0.358c0.279-0.233,0.416-0.555,0.433-0.96L75.005,286.077
					L75.005,286.077z M70.647,284.305h3.281v-0.144c0-0.526-0.147-0.953-0.436-1.279c-0.291-0.321-0.674-0.479-1.129-0.479
					c-0.508,0-0.92,0.176-1.242,0.525C70.806,283.273,70.647,283.739,70.647,284.305z M71.397,280.921l1.261-2.154h1.246
					l-1.765,2.154H71.397z"/>
				<path fill="#FFFFFF" d="M81.308,288.122l-0.053-0.939c-0.293,0.385-0.602,0.666-0.926,0.838
					c-0.316,0.169-0.693,0.256-1.113,0.256c-0.873,0-1.563-0.297-2.069-0.88c-0.511-0.583-0.765-1.388-0.765-2.406
					c0-1.05,0.244-1.862,0.742-2.447c0.495-0.591,1.176-0.884,2.054-0.884c0.432,0,0.827,0.087,1.178,0.265
					c0.354,0.183,0.653,0.45,0.899,0.798v-3.733h1.168v7.866c0,0.226,0.006,0.435,0.018,0.644c0.014,0.211,0.027,0.414,0.058,0.626
					h-1.19V288.122z M77.607,284.862c0,0.811,0.164,1.457,0.5,1.928c0.33,0.474,0.771,0.711,1.311,0.711
					c0.564,0,1.008-0.221,1.342-0.66c0.332-0.438,0.496-1.026,0.496-1.775c0-0.809-0.16-1.454-0.492-1.927s-0.77-0.717-1.313-0.717
					c-0.56,0-1.006,0.225-1.339,0.661C77.771,283.529,77.607,284.118,77.607,284.862z"/>
				<path fill="#FFFFFF" d="M85.67,280.286h-1.374v-1.3h1.374V280.286z M84.404,288.122v-6.362h1.172v6.362H84.404z"/>
				<path fill="#FFFFFF" d="M86.694,281.76h1.083v-1.312l1.164-0.395v1.706h1.418v0.837h-1.418v3.903
					c0,0.328,0.056,0.548,0.159,0.652c0.113,0.104,0.331,0.158,0.65,0.158c0.086,0,0.17-0.01,0.264-0.023
					c0.1-0.018,0.203-0.031,0.318-0.06v0.88c-0.191,0.049-0.365,0.086-0.518,0.109c-0.15,0.031-0.289,0.045-0.403,0.045
					c-0.604,0-1.018-0.101-1.267-0.309c-0.246-0.208-0.369-0.552-0.369-1.046v-4.312h-1.083L86.694,281.76L86.694,281.76z"/>
				<path fill="#FFFFFF" d="M91.245,285.064c0-1.067,0.279-1.907,0.85-2.521c0.566-0.619,1.336-0.926,2.316-0.926
					c0.99,0,1.762,0.286,2.309,0.863c0.552,0.573,0.824,1.38,0.824,2.407c0,1.07-0.281,1.901-0.853,2.494
					c-0.562,0.598-1.359,0.895-2.393,0.895c-0.939,0-1.691-0.289-2.239-0.859C91.517,286.84,91.245,286.054,91.245,285.064z
					 M94.411,282.459c-0.605,0-1.08,0.228-1.436,0.682c-0.351,0.456-0.527,1.077-0.527,1.856c0,0.768,0.166,1.348,0.51,1.767
					c0.336,0.411,0.816,0.618,1.428,0.618c0.614,0,1.097-0.218,1.443-0.653c0.354-0.444,0.527-1.049,0.527-1.831
					c0-0.771-0.168-1.368-0.511-1.798C95.507,282.666,95.029,282.459,94.411,282.459z"/>
				<path fill="#FFFFFF" d="M98.741,286.206h1.176v0.022c0,0.35,0.119,0.627,0.367,0.838c0.244,0.211,0.574,0.314,0.984,0.314
					c0.393,0,0.715-0.091,0.963-0.279c0.244-0.183,0.367-0.423,0.367-0.721c0-0.224-0.064-0.402-0.189-0.531
					c-0.125-0.137-0.32-0.244-0.58-0.301l-1.352-0.32c-0.568-0.133-0.994-0.338-1.273-0.611c-0.275-0.274-0.416-0.623-0.416-1.045
					c0-0.582,0.236-1.057,0.709-1.416c0.477-0.363,1.096-0.54,1.867-0.54c0.711,0,1.279,0.149,1.691,0.446
					c0.412,0.299,0.615,0.71,0.615,1.229c0,0.05,0,0.095,0,0.115c0,0.029-0.004,0.051-0.01,0.07h-1.168v-0.051
					c0-0.302-0.107-0.547-0.326-0.725c-0.217-0.173-0.518-0.263-0.891-0.263c-0.369,0-0.67,0.09-0.91,0.263
					c-0.236,0.178-0.355,0.402-0.355,0.662c0,0.214,0.064,0.374,0.211,0.499c0.146,0.131,0.389,0.238,0.719,0.323l1.445,0.396
					c0.504,0.131,0.873,0.336,1.113,0.619c0.242,0.279,0.359,0.646,0.359,1.088c0,0.608-0.23,1.084-0.691,1.443
					c-0.457,0.36-1.076,0.541-1.854,0.541c-0.889,0-1.537-0.153-1.951-0.465c-0.416-0.312-0.621-0.793-0.621-1.454V286.206
					L98.741,286.206z"/>
			</g>
		</g>
		<g>
			<path fill="#FFFFFF" d="M146.501,286.272c-0.811,0.508-1.65,0.589-2.473,0.174c-0.348-0.174-0.66-0.323-1.053-0.395
				c-0.83-0.146-1.609-1.056-1.695-1.888c-0.014-0.182,0.084-0.384,0.029-0.545c-0.057-0.16-0.26-0.262-0.357-0.416
				c-0.406-0.644-0.334-1.829,0.277-2.333c0.043-0.03,0.057-0.13,0.047-0.195c-0.107-0.761,0.082-1.412,0.672-1.921
				c0.143-0.118,0.375-0.163,0.471-0.307c0.096-0.139,0.047-0.365,0.104-0.541c0.193-0.588,0.566-1.005,1.182-1.183
				c0.057-0.019,0.137-0.063,0.156-0.116c0.338-0.954,1.85-1.166,2.566-0.416c0.018,0.019,0.031,0.031,0.059,0.05
				c0.434-0.433,0.957-0.579,1.555-0.465c0.49,0.094,0.861,0.347,1.068,0.813c0.023,0.055,0.072,0.108,0.127,0.124
				c0.865,0.263,1.252,0.881,1.307,1.744c0,0.011,0.004,0.015,0.006,0.021c0.92,0.461,1.301,1.205,1.145,2.217
				c-0.012,0.059,0.016,0.146,0.057,0.18c0.717,0.591,0.701,2.165-0.035,2.688c-0.035,0.023-0.064,0.094-0.057,0.138
				c0.162,0.826-0.248,1.41-0.816,1.918c-0.375,0.331-0.812,0.534-1.338,0.473c-0.047-0.004-0.117,0.016-0.148,0.053
				c-0.295,0.35-0.689,0.479-1.119,0.522C147.614,286.728,147.009,286.671,146.501,286.272z M146.745,282.892
				c0,0.862,0,1.745,0,2.626c0,0.316,0.105,0.488,0.4,0.59c0.434,0.16,0.877,0.148,1.316,0.047c0.094-0.019,0.188-0.08,0.262-0.141
				c0.406-0.325,0.572-1.125,0.338-1.584c-0.129-0.254-0.447-0.416-0.697-0.357c-0.277,0.067-0.455,0.312-0.455,0.627
				c-0.002,0.064,0,0.123,0,0.195c-0.164,0.039-0.305,0.075-0.449,0.113c-0.256-0.638,0.246-1.427,0.918-1.462
				c0.771-0.041,1.352,0.594,1.291,1.411c-0.018,0.202-0.053,0.407-0.086,0.631c0.59-0.001,0.971-0.332,1.287-0.744
				c0.236-0.307,0.402-0.646,0.266-1.049c-0.139,0-0.26,0.006-0.383,0c-1.016-0.022-1.514-0.771-1.129-1.712
				c0.09-0.204,0.219-0.399,0.344-0.594c0.23-0.35,0.117-0.727-0.277-0.867c-0.104-0.034-0.207-0.059-0.314-0.075
				c-0.289-0.043-0.529,0.075-0.6,0.358c-0.062,0.23-0.084,0.482-0.053,0.716c0.1,0.766-0.354,1.346-1.125,1.358
				C147.321,282.991,147.052,282.927,146.745,282.892z M145.063,284.891c0-0.062,0-0.102,0-0.144
				c0.008-0.365-0.188-0.637-0.492-0.684c-0.297-0.043-0.623,0.176-0.711,0.5c-0.125,0.475-0.049,0.918,0.25,1.307
				c0.092,0.115,0.238,0.229,0.377,0.271c0.457,0.131,0.922,0.127,1.373-0.049c0.256-0.099,0.373-0.283,0.371-0.564
				c-0.012-0.828-0.004-1.654-0.004-2.479c0-0.061-0.008-0.126-0.012-0.195c-0.133,0.036-0.248,0.073-0.367,0.099
				c-1.021,0.219-1.779-0.408-1.574-1.408c0.031-0.16,0.006-0.34-0.023-0.512c-0.043-0.262-0.193-0.454-0.471-0.483
				c-0.316-0.039-0.615,0.036-0.807,0.305c-0.17,0.236-0.068,0.466,0.068,0.697c0.16,0.27,0.314,0.551,0.398,0.851
				c0.17,0.624-0.141,1.14-0.762,1.311c-0.264,0.074-0.545,0.077-0.854,0.114c-0.135,0.449,0.096,0.822,0.387,1.152
				c0.309,0.35,0.66,0.629,1.178,0.604c-0.031-0.238-0.07-0.451-0.086-0.669c-0.039-0.69,0.354-1.216,1.012-1.346
				c0.393-0.076,0.73,0.032,0.982,0.344c0.26,0.32,0.338,0.685,0.236,1.104C145.368,284.97,145.218,284.93,145.063,284.891z
				 M141.999,281.078c-0.666,0.317-0.834,0.61-0.775,1.338c0.053,0.625,0.424,0.929,1.039,0.855c0.564-0.068,0.814-0.454,0.609-0.98
				c-0.086-0.215-0.229-0.411-0.357-0.606c-0.293-0.451-0.248-0.92,0.152-1.281c0.34-0.311,0.748-0.402,1.199-0.334
				c0.064,0.012,0.145,0.023,0.203-0.002c0.279-0.139,0.545-0.297,0.832-0.429c0.498-0.231,0.676-0.712,0.373-1.169
				c-0.115-0.17-0.324-0.308-0.521-0.381c-0.438-0.164-0.852-0.324-0.951-0.859c-0.469,0.15-0.771,0.426-0.836,0.893
				c-0.074,0.499,0.184,0.834,0.625,1.062c-0.064,0.154-0.129,0.301-0.219,0.515c-0.295-0.241-0.555-0.456-0.834-0.686
				C141.835,279.203,141.6,280.022,141.999,281.078z M149.18,277.255c-0.203,0.493-0.305,0.592-0.836,0.782
				c-0.086,0.029-0.174,0.062-0.258,0.1c-0.309,0.117-0.461,0.354-0.516,0.665c-0.068,0.393,0.145,0.691,0.578,0.864
				c0.234,0.099,0.457,0.23,0.688,0.339c0.084,0.034,0.184,0.075,0.266,0.063c0.451-0.068,0.855,0.023,1.203,0.33
				c0.379,0.332,0.447,0.818,0.18,1.242c-0.084,0.135-0.205,0.251-0.264,0.395c-0.084,0.206-0.17,0.431-0.176,0.652
				c-0.008,0.293,0.215,0.494,0.529,0.559c0.473,0.102,0.836-0.015,1.016-0.317c0.404-0.688,0.16-1.48-0.561-1.818
				c-0.02-0.006-0.031-0.021-0.031-0.021c0.059-0.265,0.137-0.509,0.17-0.76c0.072-0.57-0.184-1.081-0.604-1.277
				c-0.123-0.059-0.199-0.062-0.285,0.066c-0.17,0.247-0.41,0.409-0.707,0.522c-0.064-0.165-0.129-0.312-0.188-0.453
				c0.504-0.3,0.703-0.666,0.625-1.105C149.932,277.666,149.596,277.329,149.18,277.255z M148.485,280.356
				c-0.146-0.062-0.277-0.115-0.404-0.174c-0.17-0.078-0.35-0.144-0.502-0.244c-0.414-0.289-0.594-0.697-0.518-1.195
				c0.08-0.508,0.314-0.902,0.854-1.051c0.125-0.033,0.248-0.076,0.363-0.133c0.488-0.234,0.543-0.764,0.1-1.083
				c-0.387-0.282-0.811-0.301-1.238-0.095c-0.262,0.131-0.395,0.352-0.395,0.646c0,1.593-0.006,3.188,0.004,4.78
				c0,0.538,0.068,0.595,0.617,0.624c0.039,0.004,0.082,0.004,0.127,0.004c0.559-0.006,0.771-0.271,0.697-0.822
				C148.126,281.168,148.143,280.738,148.485,280.356z M144.475,280.354c0.277,0.281,0.35,0.588,0.332,0.923
				c-0.004,0.142-0.01,0.284-0.029,0.427c-0.061,0.429,0.135,0.696,0.559,0.717c0.246,0.011,0.498-0.049,0.744-0.083
				c0.119-0.019,0.152-0.096,0.152-0.218c-0.004-1.699,0-3.397-0.014-5.098c0-0.169-0.084-0.361-0.191-0.483
				c-0.371-0.421-1.234-0.366-1.582,0.075c-0.25,0.324-0.182,0.713,0.184,0.91c0.162,0.09,0.342,0.141,0.52,0.199
				c0.312,0.104,0.523,0.315,0.65,0.613c0.322,0.772,0.014,1.503-0.771,1.801C144.858,280.204,144.682,280.273,144.475,280.354z"/>
			<path fill="#FFFFFF" d="M154.446,281.273c0,4.46-3.613,8.077-8.078,8.077c-4.461,0-8.078-3.617-8.078-8.077
				c0-4.465,3.617-8.083,8.078-8.083C150.833,273.19,154.446,276.808,154.446,281.273z M156.243,281.273
				c0-5.457-4.42-9.876-9.875-9.876c-5.453,0-9.873,4.419-9.873,9.876c0,4.096,2.49,7.606,6.043,9.103
				c0.004,0.002,0.963,1.115,1,1.918c0.039,0.804,0,1.072,0,1.072h5.59c0,0-0.186-0.977,0.27-1.914
				c0.219-0.447,0.416-0.772,0.57-0.989C153.639,289.021,156.243,285.454,156.243,281.273z"/>
			<path fill="#FFFFFF" d="M146.446,296.218c0.721,0,1.449-0.066,2.158,0.028c0.33,0.043,0.846,0.363,0.879,0.607
				c0.039,0.309-0.311,0.688-0.537,1c-0.195,0.266-0.48,0.467-0.689,0.725c-0.852,1.047-2.277,1.263-3.35,0.443
				c-0.561-0.426-1.094-0.898-1.568-1.418c-0.166-0.185-0.246-0.641-0.133-0.842c0.139-0.25,0.51-0.49,0.799-0.517
				c0.811-0.067,1.627-0.022,2.441-0.022C146.446,296.221,146.446,296.219,146.446,296.218z"/>
			<path fill="#FFFFFF" d="M146.311,295.498c-0.719,0-1.436,0.011-2.152-0.004c-0.549-0.01-1.025-0.188-1.037-0.828
				c-0.014-0.651,0.445-0.817,1.012-0.815c1.498,0.006,2.996,0.007,4.494,0.001c0.551-0.003,1.016,0.243,0.908,0.786
				c-0.066,0.332-0.543,0.764-0.889,0.819C147.887,295.58,147.093,295.494,146.311,295.498z"/>
			<path fill="#FFFFFF" d="M135.671,276.866c-0.764-0.441-1.383-0.801-2.15-1.246c0.402-0.701,0.773-1.346,1.225-2.132
				c0.756,0.453,1.434,0.858,2.15,1.288C136.477,275.489,136.114,276.11,135.671,276.866z"/>
			<path fill="#FFFFFF" d="M155.952,274.755c0.785-0.449,1.414-0.808,2.162-1.236c0.418,0.688,0.809,1.332,1.268,2.088
				c-0.721,0.43-1.373,0.815-2.135,1.268C156.825,276.182,156.43,275.535,155.952,274.755z"/>
			<path fill="#FFFFFF" d="M138.262,269.981c0.754-0.443,1.369-0.805,2.105-1.238c0.436,0.73,0.818,1.375,1.275,2.144
				c-0.723,0.433-1.365,0.817-2.113,1.266C139.104,271.424,138.723,270.77,138.262,269.981z"/>
			<path fill="#FFFFFF" d="M154.624,269.964c-0.467,0.793-0.836,1.422-1.264,2.147c-0.721-0.41-1.377-0.785-2.113-1.205
				c0.424-0.738,0.781-1.367,1.225-2.143C153.184,269.161,153.841,269.526,154.624,269.964z"/>
			<path fill="#FFFFFF" d="M132.366,280.58c0.75,0,1.467,0,2.271,0c0,0.724,0,1.427,0,2.213c-0.752,0-1.465,0-2.271,0
				C132.366,282.053,132.366,281.352,132.366,280.58z"/>
			<path fill="#FFFFFF" d="M145.372,267.522c0.785,0,1.463,0,2.23,0c0,0.775,0,1.489,0,2.315c-0.701,0-1.412,0-2.23,0
				C145.372,269.13,145.372,268.382,145.372,267.522z"/>
			<path fill="#FFFFFF" d="M158.276,282.762c0-0.72,0-1.39,0-2.154c0.752,0,1.502,0,2.332,0c0,0.699,0,1.369,0,2.154
				C159.854,282.762,159.106,282.762,158.276,282.762z"/>
			<path fill="#FFFFFF" d="M134.731,289.864c-0.432-0.762-0.787-1.387-1.219-2.146c0.713-0.411,1.373-0.791,2.172-1.251
				c0.354,0.762,0.67,1.442,1.031,2.227C136.077,289.071,135.493,289.414,134.731,289.864z"/>
			<path fill="#FFFFFF" d="M158.155,289.836c-0.686-0.387-1.268-0.715-1.967-1.11c0.312-0.752,0.6-1.437,0.957-2.287
				c0.793,0.461,1.475,0.855,2.219,1.289C158.934,288.476,158.559,289.13,158.155,289.836z"/>
		</g>
		<g>
			<g>
				<path fill="#FFFFFF" d="M140.782,236.477c0,1,0,2.002,0,3.002c-0.066,0.402-0.133,0.808-0.193,1.212
					c-1.109,7.203-6.838,11.671-12.23,12.874c-0.736,0.162-1.49,0.271-2.236,0.404c-0.914,0-1.832,0-2.75,0
					c-0.279-0.051-0.562-0.109-0.846-0.148c-6.438-0.906-11.83-5.835-13.318-12.188c-0.168-0.742-0.275-1.494-0.41-2.242
					c0-0.938,0-1.887,0-2.83c0.025-0.059,0.062-0.119,0.072-0.185c0.508-4.684,2.717-8.416,6.395-11.28
					c3.514-2.734,7.557-3.521,11.893-2.953c6.453,0.84,11.781,5.729,13.211,12.065C140.532,234.959,140.639,235.721,140.782,236.477
					z M124.805,251.01c6.045,0.094,13.111-4.786,13.082-12.909c-0.025-7.382-5.729-13.138-12.988-13.233
					c-7.971-0.098-13.26,6.9-13.215,13.068C111.743,245.082,117.643,251.01,124.805,251.01z"/>
				<path fill="#FFFFFF" d="M122.68,239.423c0.676,0.344,1.312,0.669,1.984,1.006c-0.715,1.288-1.752,2.085-3.15,2.418
					c-2.154,0.502-4.395-0.437-5.293-2.263c-0.666-1.346-0.699-2.78-0.354-4.219c0.301-1.227,1.021-2.144,2.1-2.773
					c1.771-1.042,5.297-0.901,6.656,1.74c-0.705,0.365-1.406,0.733-2.014,1.048c-0.436-0.375-0.773-0.778-1.197-1.018
					c-0.936-0.507-2.102-0.09-2.512,0.886c-0.463,1.088-0.459,2.212-0.033,3.321c0.297,0.755,0.871,1.174,1.68,1.222
					c0.852,0.048,1.518-0.272,1.951-1.024C122.548,239.674,122.598,239.576,122.68,239.423z"/>
				<path fill="#FFFFFF" d="M133.843,235.332c-0.695,0.369-1.381,0.73-2.092,1.109c-0.113-0.17-0.213-0.332-0.328-0.481
					c-0.441-0.59-1.037-0.858-1.77-0.785c-0.77,0.073-1.338,0.464-1.602,1.205c-0.352,1.014-0.369,2.036-0.014,3.059
					c0.283,0.807,0.846,1.296,1.717,1.354c0.879,0.058,1.562-0.291,1.996-1.082c0.041-0.071,0.082-0.146,0.127-0.213
					c0.004-0.014,0.02-0.018,0.062-0.051c0.635,0.314,1.283,0.635,1.971,0.98c-0.73,1.274-1.752,2.123-3.156,2.407
					c-1.842,0.353-3.518,0.019-4.793-1.483c-0.85-1.012-1.053-2.235-1.043-3.509c0.02-1.075,0.242-2.104,0.893-2.983
					c1.059-1.434,2.527-1.963,4.258-1.849c1.514,0.104,2.76,0.681,3.602,1.996C133.729,235.1,133.776,235.195,133.843,235.332z"/>
			</g>
		</g>
		<g>
			<g>
				<path fill="#FFFFFF" d="M42.263,234.257c-0.018,0.802-0.323,1.44-0.922,1.907c-0.602,0.474-1.403,0.716-2.422,0.716
					c-1.229,0-2.18-0.406-2.834-1.209c-0.647-0.802-0.975-1.954-0.975-3.479c0-1.516,0.342-2.688,1.026-3.52
					c0.681-0.827,1.65-1.24,2.902-1.24c0.979,0,1.756,0.223,2.314,0.676c0.573,0.449,0.862,1.068,0.887,1.861H40.94
					c-0.037-0.468-0.24-0.845-0.611-1.135c-0.373-0.291-0.844-0.438-1.41-0.438c-0.781,0-1.397,0.327-1.838,0.992
					c-0.443,0.655-0.66,1.582-0.66,2.768c0,1.174,0.215,2.07,0.654,2.703c0.432,0.64,1.049,0.958,1.844,0.958
					c0.578,0,1.049-0.137,1.391-0.413c0.354-0.276,0.554-0.66,0.599-1.147H42.263z"/>
				<path fill="#FFFFFF" d="M43.779,236.718v-5.375c0-0.209-0.002-0.386-0.008-0.537c-0.009-0.155-0.017-0.314-0.027-0.467h1.176
					l0.029,1.227c0.115-0.408,0.319-0.712,0.619-0.915c0.301-0.21,0.692-0.312,1.168-0.312c0.092,0,0.174,0.003,0.254,0.011
					c0.084,0.007,0.156,0.019,0.229,0.038v1.096c-0.127-0.032-0.241-0.043-0.352-0.057c-0.111-0.015-0.203-0.021-0.283-0.021
					c-0.527,0-0.932,0.148-1.219,0.449c-0.275,0.293-0.418,0.721-0.418,1.28v3.581L43.779,236.718L43.779,236.718z"/>
				<path fill="#FFFFFF" d="M53.745,234.673c0,0.654-0.24,1.194-0.703,1.6c-0.473,0.4-1.1,0.607-1.865,0.607
					c-0.996,0-1.748-0.279-2.26-0.824c-0.514-0.551-0.771-1.345-0.771-2.402c0-1.118,0.256-1.979,0.762-2.574
					c0.508-0.595,1.229-0.893,2.178-0.893c0.857,0,1.541,0.246,2.037,0.74c0.5,0.494,0.746,1.168,0.746,2.021
					c0,0.207-0.002,0.359-0.008,0.471c0,0.104-0.008,0.212-0.019,0.306h-4.524v0.118v0.26c0,0.604,0.155,1.068,0.471,1.397
					c0.309,0.327,0.748,0.492,1.312,0.492c0.468,0,0.837-0.118,1.111-0.357c0.277-0.234,0.42-0.559,0.426-0.961H53.745
					L53.745,234.673z M49.382,232.897h3.289v-0.141c0-0.536-0.149-0.957-0.438-1.287c-0.297-0.323-0.668-0.485-1.134-0.485
					c-0.51,0-0.92,0.177-1.241,0.532C49.538,231.864,49.382,232.324,49.382,232.897z"/>
				<path fill="#FFFFFF" d="M60.396,236.718h-1.062c-0.035-0.132-0.082-0.453-0.117-0.967v-0.04c-0.16,0.38-0.42,0.662-0.771,0.863
					c-0.349,0.203-0.771,0.306-1.277,0.306c-0.646,0-1.164-0.179-1.551-0.526c-0.394-0.361-0.586-0.828-0.586-1.401
					c0-0.676,0.271-1.213,0.809-1.605c0.535-0.393,1.271-0.589,2.203-0.589h1.107v-0.779c0-0.342-0.104-0.604-0.316-0.775
					c-0.217-0.178-0.527-0.265-0.943-0.265c-0.389,0-0.7,0.099-0.93,0.29c-0.229,0.199-0.352,0.465-0.363,0.797h-1.135v-0.094
					c0-0.57,0.203-0.993,0.609-1.294c0.404-0.303,0.983-0.45,1.742-0.45c0.877,0,1.518,0.155,1.92,0.464
					c0.399,0.313,0.6,0.819,0.6,1.521v3.938c0,0.055,0.006,0.135,0.012,0.243C60.357,236.464,60.372,236.586,60.396,236.718z
					 M59.152,233.552h-0.982c-0.615,0-1.084,0.11-1.424,0.343c-0.332,0.22-0.5,0.534-0.5,0.94c0,0.313,0.119,0.57,0.34,0.771
					c0.228,0.206,0.519,0.309,0.861,0.309c0.553,0,0.971-0.151,1.27-0.44c0.289-0.294,0.437-0.725,0.437-1.29L59.152,233.552
					L59.152,233.552z"/>
				<path fill="#FFFFFF" d="M61.384,230.339h1.084v-1.305l1.166-0.398v1.703h1.42v0.839h-1.42v3.919c0,0.332,0.054,0.546,0.16,0.647
					c0.113,0.108,0.33,0.16,0.652,0.16c0.082,0,0.172-0.005,0.268-0.02c0.092-0.013,0.199-0.037,0.318-0.067v0.886
					c-0.193,0.056-0.365,0.089-0.519,0.119c-0.153,0.022-0.286,0.037-0.407,0.037c-0.601,0-1.023-0.102-1.273-0.309
					c-0.244-0.203-0.365-0.553-0.365-1.047v-4.327h-1.084V230.339z"/>
				<path fill="#FFFFFF" d="M67.562,228.863h-1.381v-1.292h1.382L67.562,228.863L67.562,228.863z M66.288,236.718v-6.379h1.18v6.379
					H66.288z"/>
				<path fill="#FFFFFF" d="M71.271,236.718l-2.604-6.379h1.187l2.04,5.057l2.06-5.057h1.166l-2.693,6.379H71.271z"/>
				<path fill="#FFFFFF" d="M81.595,234.673c-0.006,0.654-0.246,1.194-0.713,1.6c-0.467,0.4-1.09,0.607-1.865,0.607
					c-0.989,0-1.741-0.279-2.258-0.824c-0.512-0.551-0.766-1.345-0.766-2.402c0-1.118,0.252-1.979,0.754-2.574
					c0.512-0.595,1.238-0.893,2.18-0.893c0.865,0,1.545,0.246,2.039,0.74c0.498,0.494,0.744,1.168,0.744,2.021
					c0,0.207,0,0.359-0.006,0.471c-0.004,0.104-0.01,0.212-0.018,0.306h-4.525v0.118v0.26c0,0.604,0.156,1.068,0.469,1.397
					c0.31,0.327,0.746,0.492,1.316,0.492c0.465,0,0.834-0.118,1.108-0.357c0.279-0.234,0.418-0.559,0.429-0.961H81.595
					L81.595,234.673z M77.226,232.897h3.289v-0.141c0-0.536-0.145-0.957-0.434-1.287c-0.293-0.323-0.676-0.485-1.135-0.485
					c-0.508,0-0.924,0.177-1.24,0.532C77.388,231.864,77.226,232.324,77.226,232.897z"/>
				<path fill="#FFFFFF" d="M35.945,245.884c-0.021,0.807-0.33,1.442-0.929,1.912c-0.594,0.477-1.401,0.713-2.422,0.713
					c-1.235,0-2.18-0.4-2.83-1.203c-0.649-0.795-0.979-1.961-0.979-3.478c0-1.515,0.346-2.687,1.027-3.521
					c0.686-0.83,1.647-1.244,2.901-1.244c0.98,0,1.762,0.223,2.322,0.678c0.561,0.445,0.854,1.062,0.879,1.865h-1.293
					c-0.047-0.467-0.252-0.852-0.621-1.139c-0.367-0.289-0.84-0.435-1.408-0.435c-0.78,0-1.395,0.329-1.838,0.986
					c-0.438,0.658-0.66,1.59-0.66,2.771c0,1.166,0.216,2.064,0.652,2.705c0.436,0.633,1.047,0.953,1.846,0.953
					c0.58,0,1.047-0.135,1.396-0.415c0.35-0.272,0.551-0.658,0.594-1.15L35.945,245.884L35.945,245.884z"/>
				<path fill="#FFFFFF" d="M37.143,245.286c0-1.065,0.289-1.913,0.855-2.531c0.566-0.613,1.348-0.929,2.324-0.929
					c0.996,0,1.76,0.292,2.313,0.871c0.55,0.574,0.826,1.381,0.826,2.414c0,1.069-0.287,1.902-0.854,2.498
					c-0.57,0.594-1.363,0.898-2.396,0.898c-0.947,0-1.697-0.288-2.24-0.869C37.421,247.068,37.143,246.283,37.143,245.286z
					 M40.323,242.673c-0.603,0-1.082,0.229-1.438,0.686s-0.528,1.079-0.528,1.865c0,0.76,0.17,1.35,0.508,1.769
					c0.338,0.413,0.817,0.618,1.432,0.618c0.621,0,1.104-0.217,1.447-0.66c0.354-0.438,0.527-1.05,0.527-1.824
					c0-0.778-0.164-1.379-0.511-1.811C41.429,242.889,40.941,242.673,40.323,242.673z"/>
				<path fill="#FFFFFF" d="M46.347,248.352h-1.176v-5.061c0-0.111-0.01-0.29-0.012-0.527c-0.012-0.24-0.021-0.499-0.047-0.793
					h1.196l0.037,1.084c0.166-0.355,0.422-0.637,0.769-0.845c0.35-0.204,0.742-0.313,1.17-0.313c0.432,0,0.813,0.094,1.164,0.273
					c0.342,0.182,0.651,0.467,0.926,0.847c0.334-0.401,0.658-0.689,0.992-0.856c0.328-0.176,0.715-0.264,1.146-0.264
					c0.449,0,0.855,0.096,1.229,0.279c0.363,0.188,0.625,0.434,0.787,0.748c0.071,0.142,0.127,0.332,0.162,0.56
					c0.024,0.225,0.041,0.547,0.041,0.966v3.902h-1.138v-4.068c0-0.492-0.114-0.867-0.354-1.112
					c-0.23-0.246-0.578-0.375-1.047-0.375c-0.48,0-0.863,0.147-1.17,0.448c-0.306,0.297-0.457,0.682-0.457,1.154v3.953h-1.191
					v-3.854c0-0.588-0.113-1.02-0.346-1.295c-0.228-0.278-0.574-0.418-1.058-0.418c-0.51,0-0.907,0.15-1.192,0.447
					c-0.287,0.303-0.435,0.721-0.435,1.266v3.854H46.347z"/>
				<path fill="#FFFFFF" d="M57.939,248.352h-1.187v-5.061c0-0.111,0-0.29-0.008-0.527c-0.012-0.24-0.021-0.499-0.039-0.793h1.195
					l0.037,1.084c0.163-0.355,0.426-0.637,0.768-0.845c0.352-0.204,0.734-0.313,1.164-0.313c0.432,0,0.82,0.094,1.164,0.273
					c0.35,0.182,0.66,0.467,0.934,0.847c0.33-0.401,0.656-0.689,0.99-0.856c0.328-0.176,0.709-0.264,1.148-0.264
					c0.444,0,0.852,0.096,1.217,0.279c0.373,0.188,0.635,0.434,0.795,0.748c0.078,0.142,0.127,0.332,0.16,0.56
					c0.03,0.225,0.045,0.547,0.045,0.966v3.902h-1.137v-4.068c0-0.492-0.123-0.867-0.354-1.112
					c-0.236-0.246-0.584-0.375-1.051-0.375c-0.478,0-0.865,0.147-1.172,0.448c-0.304,0.297-0.455,0.682-0.455,1.154v3.953H60.96
					v-3.854c0-0.588-0.109-1.02-0.338-1.295c-0.229-0.278-0.584-0.418-1.061-0.418c-0.507,0-0.91,0.15-1.195,0.447
					c-0.287,0.303-0.43,0.721-0.43,1.266v3.854H57.939z"/>
				<path fill="#FFFFFF" d="M67.972,245.286c0-1.065,0.291-1.913,0.853-2.531c0.582-0.613,1.348-0.929,2.33-0.929
					c0.992,0,1.764,0.292,2.317,0.871c0.545,0.574,0.82,1.381,0.82,2.414c0,1.069-0.285,1.902-0.854,2.498
					c-0.566,0.594-1.367,0.898-2.396,0.898c-0.943,0-1.693-0.288-2.244-0.869C68.247,247.068,67.972,246.283,67.972,245.286z
					 M71.154,242.673c-0.607,0-1.082,0.229-1.437,0.686c-0.348,0.456-0.53,1.079-0.53,1.865c0,0.76,0.17,1.35,0.504,1.769
					c0.346,0.413,0.817,0.618,1.438,0.618c0.613,0,1.096-0.217,1.445-0.66c0.354-0.438,0.529-1.05,0.529-1.824
					c0-0.778-0.171-1.379-0.513-1.811C72.253,242.889,71.775,242.673,71.154,242.673z"/>
				<path fill="#FFFFFF" d="M77.179,243.017c0.144-0.345,0.394-0.617,0.752-0.818c0.355-0.2,0.771-0.302,1.242-0.302
					c0.426,0,0.806,0.074,1.16,0.229c0.348,0.155,0.619,0.363,0.816,0.632c0.121,0.153,0.192,0.33,0.239,0.542
					c0.054,0.213,0.074,0.572,0.074,1.089v3.963h-1.172v-4.027c0-0.539-0.119-0.938-0.344-1.184
					c-0.23-0.252-0.592-0.383-1.078-0.383c-0.494,0-0.898,0.14-1.223,0.405c-0.314,0.265-0.47,0.617-0.47,1.039v4.148h-1.186v-5.066
					c0-0.235,0-0.468-0.008-0.684c-0.013-0.217-0.021-0.426-0.033-0.631h1.188L77.179,243.017z"/>
				<path fill="#FFFFFF" d="M82.956,246.437h1.18v0.021c0,0.345,0.123,0.627,0.375,0.837c0.244,0.213,0.564,0.313,0.979,0.313
					c0.397,0,0.717-0.094,0.967-0.273c0.246-0.187,0.367-0.429,0.367-0.729c0-0.219-0.064-0.396-0.187-0.535
					c-0.125-0.139-0.317-0.236-0.582-0.308l-1.354-0.309c-0.57-0.139-0.994-0.346-1.271-0.618c-0.286-0.277-0.42-0.631-0.42-1.048
					c0-0.583,0.234-1.055,0.705-1.414c0.474-0.362,1.104-0.551,1.869-0.551c0.723,0,1.281,0.156,1.695,0.456
					c0.414,0.294,0.623,0.706,0.623,1.23c0,0.048,0,0.084-0.006,0.113c0,0.022,0,0.051-0.009,0.072h-1.168v-0.053
					c0-0.31-0.112-0.545-0.33-0.723c-0.219-0.185-0.51-0.269-0.891-0.269c-0.367,0-0.672,0.084-0.908,0.269
					c-0.242,0.178-0.358,0.399-0.358,0.659c0,0.211,0.069,0.373,0.211,0.498c0.147,0.126,0.393,0.242,0.727,0.326l1.449,0.404
					c0.502,0.13,0.871,0.33,1.107,0.615c0.241,0.282,0.362,0.645,0.362,1.086c0,0.609-0.229,1.094-0.688,1.448
					c-0.459,0.361-1.08,0.546-1.865,0.546c-0.885,0-1.541-0.156-1.953-0.468c-0.416-0.313-0.627-0.797-0.627-1.457V246.437z"/>
			</g>
		</g>
		<g>
			<g>
				<g>
					<path fill="#FFFFFF" d="M64.731,331.53l2.758-7.182h1.024l2.938,7.182h-1.082l-0.838-2.176H66.53l-0.789,2.176H64.731z
						 M66.803,328.582h2.435l-0.748-1.993c-0.229-0.603-0.4-1.099-0.51-1.486c-0.091,0.459-0.222,0.916-0.388,1.371L66.803,328.582z
						"/>
				</g>
				<g>
					<path fill="#FFFFFF" d="M75.492,329.623l0.869,0.113c-0.095,0.596-0.336,1.062-0.728,1.404
						c-0.391,0.338-0.871,0.506-1.438,0.506c-0.713,0-1.283-0.234-1.717-0.697c-0.433-0.467-0.648-1.135-0.648-2.002
						c0-0.562,0.094-1.055,0.279-1.475c0.185-0.42,0.473-0.736,0.85-0.949c0.381-0.211,0.795-0.314,1.242-0.314
						c0.563,0,1.027,0.142,1.387,0.429c0.359,0.285,0.59,0.688,0.689,1.217l-0.855,0.133c-0.082-0.35-0.227-0.611-0.434-0.789
						c-0.209-0.176-0.457-0.264-0.75-0.264c-0.447,0-0.81,0.158-1.086,0.479c-0.275,0.316-0.418,0.82-0.418,1.511
						c0,0.698,0.135,1.209,0.401,1.522c0.269,0.316,0.619,0.478,1.052,0.478c0.346,0,0.635-0.107,0.864-0.318
						C75.287,330.389,75.432,330.065,75.492,329.623z"/>
				</g>
				<g>
					<path fill="#FFFFFF" d="M79.041,330.739l0.129,0.779c-0.25,0.055-0.475,0.078-0.666,0.078c-0.32,0-0.567-0.049-0.746-0.15
						c-0.176-0.102-0.299-0.233-0.371-0.397c-0.071-0.166-0.108-0.513-0.108-1.045v-2.992H76.63v-0.687h0.648v-1.287l0.877-0.528
						v1.815h0.887v0.687h-0.887v3.043c0,0.252,0.018,0.414,0.047,0.483c0.029,0.074,0.082,0.129,0.149,0.175
						c0.07,0.04,0.173,0.062,0.304,0.062C78.752,330.774,78.883,330.762,79.041,330.739z"/>
				</g>
				<g>
					<path fill="#FFFFFF" d="M79.91,325.36v-1.012h0.879v1.012H79.91z M79.91,331.53v-5.205h0.879v5.205H79.91z"/>
				</g>
				<g>
					<path fill="#FFFFFF" d="M83.578,331.53l-1.979-5.205h0.929l1.119,3.117c0.118,0.336,0.231,0.687,0.329,1.049
						c0.082-0.272,0.191-0.604,0.33-0.99l1.156-3.176h0.908l-1.969,5.205H83.578z"/>
				</g>
				<g>
					<path fill="#FFFFFF" d="M87.155,325.36v-1.012h0.883v1.012H87.155z M87.155,331.53v-5.205h0.883v5.205H87.155z"/>
				</g>
				<g>
					<path fill="#FFFFFF" d="M92.754,331.53v-0.656c-0.33,0.513-0.813,0.773-1.455,0.773c-0.414,0-0.795-0.115-1.143-0.344
						c-0.349-0.229-0.617-0.545-0.81-0.957c-0.19-0.408-0.286-0.883-0.286-1.414c0-0.519,0.086-0.992,0.26-1.414
						s0.434-0.746,0.778-0.971c0.347-0.228,0.732-0.339,1.16-0.339c0.314,0,0.595,0.062,0.838,0.197
						c0.246,0.131,0.445,0.306,0.599,0.517v-2.574h0.877v7.182H92.754L92.754,331.53z M89.967,328.932
						c0,0.666,0.142,1.164,0.42,1.494c0.283,0.332,0.613,0.496,0.996,0.496c0.385,0,0.713-0.158,0.98-0.474
						c0.272-0.313,0.406-0.799,0.406-1.444c0-0.712-0.138-1.234-0.412-1.566c-0.273-0.332-0.611-0.5-1.015-0.5
						c-0.393,0-0.719,0.158-0.979,0.479C90.096,327.737,89.967,328.241,89.967,328.932z"/>
				</g>
				<g>
					<path fill="#FFFFFF" d="M98.356,330.885c-0.326,0.28-0.645,0.475-0.943,0.588c-0.303,0.117-0.627,0.174-0.973,0.174
						c-0.572,0-1.013-0.141-1.318-0.42c-0.309-0.277-0.459-0.635-0.459-1.07c0-0.254,0.057-0.485,0.172-0.699
						c0.117-0.211,0.271-0.377,0.457-0.506c0.187-0.127,0.398-0.225,0.633-0.289c0.174-0.047,0.435-0.09,0.783-0.131
						c0.713-0.086,1.239-0.188,1.573-0.307c0.004-0.121,0.006-0.195,0.006-0.23c0-0.356-0.082-0.608-0.248-0.76
						c-0.229-0.197-0.562-0.297-1.006-0.297c-0.413,0-0.722,0.072-0.918,0.219c-0.197,0.146-0.344,0.4-0.438,0.771l-0.865-0.117
						c0.08-0.371,0.21-0.67,0.392-0.896c0.18-0.227,0.438-0.403,0.774-0.522c0.343-0.125,0.736-0.185,1.185-0.185
						c0.443,0,0.805,0.054,1.08,0.156c0.279,0.104,0.479,0.232,0.609,0.394c0.137,0.157,0.229,0.358,0.277,0.6
						c0.029,0.152,0.045,0.424,0.045,0.816v1.176c0,0.817,0.018,1.338,0.059,1.555c0.035,0.217,0.109,0.426,0.223,0.625h-0.92
						C98.44,331.346,98.384,331.132,98.356,330.885z M98.28,328.916c-0.316,0.132-0.797,0.242-1.439,0.334
						c-0.365,0.054-0.619,0.111-0.769,0.179c-0.15,0.063-0.265,0.16-0.349,0.287c-0.082,0.125-0.123,0.264-0.123,0.418
						c0,0.233,0.089,0.43,0.269,0.588c0.176,0.153,0.438,0.233,0.779,0.233c0.339,0,0.644-0.073,0.908-0.223
						c0.262-0.146,0.459-0.352,0.584-0.611c0.094-0.198,0.139-0.489,0.139-0.883v-0.322H98.28z"/>
				</g>
				<g>
					<path fill="#FFFFFF" d="M103.915,331.53v-0.656c-0.328,0.513-0.814,0.773-1.455,0.773c-0.414,0-0.795-0.115-1.145-0.344
						c-0.346-0.229-0.615-0.545-0.809-0.957c-0.188-0.408-0.285-0.883-0.285-1.414c0-0.519,0.086-0.992,0.26-1.414
						s0.432-0.746,0.775-0.971c0.348-0.228,0.736-0.339,1.164-0.339c0.312,0,0.594,0.062,0.836,0.197
						c0.246,0.131,0.445,0.306,0.6,0.517v-2.574h0.879v7.182H103.915L103.915,331.53z M101.13,328.932
						c0,0.666,0.139,1.164,0.42,1.494c0.279,0.332,0.611,0.496,0.992,0.496c0.389,0,0.715-0.158,0.984-0.474
						c0.268-0.314,0.4-0.799,0.4-1.444c0-0.712-0.135-1.234-0.412-1.566c-0.27-0.332-0.605-0.5-1.01-0.5
						c-0.395,0-0.721,0.158-0.98,0.479C101.259,327.737,101.13,328.241,101.13,328.932z"/>
				</g>
			</g>
			<g>
				<g>
					<path fill="#FFFFFF" d="M53.297,340.75l2.756-7.182h1.023l2.938,7.182h-1.082l-0.836-2.174h-3.004l-0.787,2.174H53.297z
						 M55.369,337.805h2.434l-0.75-1.992c-0.227-0.603-0.396-1.098-0.51-1.488c-0.092,0.459-0.221,0.918-0.385,1.373L55.369,337.805
						z"/>
				</g>
				<g>
					<path fill="#FFFFFF" d="M60.875,340.75v-4.516h-0.777v-0.688h0.777v-0.554c0-0.35,0.033-0.606,0.094-0.776
						c0.084-0.228,0.234-0.416,0.449-0.56c0.213-0.141,0.512-0.211,0.896-0.211c0.248,0,0.522,0.029,0.823,0.088l-0.133,0.771
						c-0.184-0.033-0.356-0.049-0.52-0.049c-0.269,0-0.457,0.057-0.568,0.17c-0.109,0.116-0.166,0.33-0.166,0.645v0.478h1.016v0.688
						h-1.016v4.516L60.875,340.75L60.875,340.75z"/>
				</g>
				<g>
					<path fill="#FFFFFF" d="M63.457,334.586v-1.018h0.881v1.018H63.457z M63.457,340.75v-5.202h0.881v5.202H63.457z"/>
				</g>
				<g>
					<path fill="#FFFFFF" d="M69.076,340.11c-0.326,0.279-0.641,0.477-0.941,0.588c-0.305,0.115-0.629,0.172-0.973,0.172
						c-0.572,0-1.012-0.141-1.32-0.42c-0.307-0.276-0.459-0.633-0.459-1.069c0-0.255,0.06-0.486,0.174-0.699
						c0.117-0.207,0.269-0.377,0.455-0.504c0.188-0.129,0.4-0.228,0.636-0.291c0.172-0.045,0.436-0.09,0.784-0.134
						c0.712-0.081,1.236-0.186,1.572-0.303c0-0.119,0.004-0.199,0.004-0.229c0-0.357-0.084-0.613-0.25-0.761
						c-0.227-0.198-0.559-0.297-1.004-0.297c-0.414,0-0.723,0.072-0.918,0.218c-0.199,0.143-0.346,0.401-0.438,0.772l-0.861-0.119
						c0.076-0.371,0.207-0.668,0.387-0.893c0.178-0.229,0.438-0.402,0.777-0.525c0.34-0.121,0.733-0.184,1.184-0.184
						c0.441,0,0.804,0.051,1.08,0.156c0.277,0.104,0.482,0.233,0.613,0.396c0.131,0.158,0.223,0.355,0.272,0.598
						c0.029,0.152,0.048,0.42,0.048,0.812v1.178c0,0.82,0.018,1.338,0.053,1.555c0.039,0.218,0.113,0.427,0.225,0.623h-0.92
						C69.16,340.567,69.101,340.356,69.076,340.11z M69.004,338.141c-0.317,0.131-0.801,0.242-1.438,0.332
						c-0.365,0.053-0.619,0.112-0.771,0.174c-0.147,0.068-0.268,0.164-0.348,0.291c-0.08,0.125-0.121,0.266-0.121,0.418
						c0,0.236,0.088,0.43,0.266,0.588c0.181,0.156,0.439,0.236,0.783,0.236c0.338,0,0.641-0.074,0.906-0.228
						c0.264-0.145,0.457-0.35,0.582-0.606c0.094-0.199,0.143-0.492,0.143-0.883L69.004,338.141L69.004,338.141z"/>
				</g>
				<g>
					<path fill="#FFFFFF" d="M71.264,340.75v-5.202h0.793v0.739c0.382-0.569,0.931-0.854,1.654-0.854
						c0.312,0,0.603,0.057,0.863,0.17c0.266,0.113,0.461,0.26,0.592,0.44c0.131,0.185,0.223,0.402,0.273,0.654
						c0.034,0.164,0.049,0.445,0.049,0.855v3.196H74.61v-3.161c0-0.361-0.035-0.63-0.105-0.808
						c-0.067-0.178-0.188-0.322-0.365-0.428c-0.174-0.104-0.379-0.158-0.614-0.158c-0.375,0-0.697,0.117-0.974,0.357
						c-0.271,0.237-0.407,0.688-0.407,1.356v2.84h-0.88V340.75z"/>
				</g>
				<g>
					<path fill="#FFFFFF" d="M76.377,340.75v-0.715l3.312-3.801c-0.375,0.021-0.709,0.029-0.996,0.029h-2.123v-0.717h4.254v0.586
						l-2.818,3.301l-0.543,0.602c0.396-0.026,0.767-0.041,1.113-0.041h2.406v0.756H76.377z"/>
				</g>
				<g>
					<path fill="#FFFFFF" d="M85.254,340.11c-0.328,0.279-0.641,0.477-0.942,0.588c-0.302,0.115-0.625,0.172-0.974,0.172
						c-0.574,0-1.012-0.141-1.32-0.42c-0.307-0.276-0.459-0.633-0.459-1.069c0-0.255,0.06-0.486,0.173-0.699
						c0.118-0.207,0.272-0.377,0.459-0.504c0.188-0.129,0.397-0.228,0.635-0.291c0.174-0.045,0.432-0.09,0.785-0.134
						c0.711-0.081,1.233-0.186,1.569-0.303c0.004-0.119,0.007-0.199,0.007-0.229c0-0.357-0.082-0.613-0.248-0.761
						c-0.23-0.198-0.562-0.297-1.009-0.297c-0.414,0-0.721,0.072-0.916,0.218c-0.198,0.143-0.344,0.401-0.44,0.772l-0.861-0.119
						c0.078-0.371,0.207-0.668,0.389-0.893c0.181-0.229,0.439-0.402,0.777-0.525c0.34-0.121,0.734-0.184,1.185-0.184
						c0.44,0,0.803,0.051,1.079,0.156c0.277,0.104,0.482,0.233,0.615,0.396c0.129,0.158,0.219,0.355,0.273,0.598
						c0.028,0.152,0.043,0.42,0.043,0.812v1.178c0,0.82,0.018,1.338,0.057,1.555c0.035,0.218,0.111,0.427,0.224,0.623h-0.921
						C85.34,340.567,85.28,340.356,85.254,340.11z M85.18,338.141c-0.319,0.131-0.797,0.242-1.44,0.332
						c-0.359,0.053-0.615,0.112-0.769,0.174c-0.147,0.068-0.266,0.164-0.35,0.291c-0.082,0.125-0.119,0.266-0.119,0.418
						c0,0.236,0.086,0.43,0.264,0.588c0.179,0.156,0.439,0.236,0.783,0.236c0.342,0,0.642-0.074,0.906-0.228
						c0.266-0.145,0.461-0.35,0.582-0.606c0.096-0.199,0.143-0.492,0.143-0.883V338.141z"/>
				</g>
				<g>
					<path fill="#FFFFFF" d="M87.438,340.75v-5.202h0.788v0.731c0.164-0.256,0.38-0.461,0.65-0.617
						c0.275-0.151,0.582-0.229,0.928-0.229c0.386,0,0.701,0.078,0.949,0.24c0.246,0.161,0.418,0.385,0.521,0.67
						c0.407-0.605,0.946-0.91,1.606-0.91c0.515,0,0.91,0.143,1.191,0.43c0.276,0.285,0.414,0.725,0.414,1.316v3.571h-0.875v-3.274
						c0-0.354-0.027-0.605-0.086-0.765c-0.058-0.153-0.158-0.276-0.312-0.372c-0.152-0.097-0.328-0.144-0.528-0.144
						c-0.365,0-0.671,0.123-0.912,0.365c-0.24,0.244-0.361,0.633-0.361,1.17v3.02h-0.881v-3.381c0-0.389-0.074-0.684-0.215-0.879
						c-0.146-0.197-0.384-0.295-0.709-0.295c-0.246,0-0.478,0.064-0.687,0.195c-0.213,0.131-0.367,0.324-0.461,0.574
						c-0.096,0.252-0.141,0.612-0.141,1.088v2.696L87.438,340.75L87.438,340.75z"/>
				</g>
				<g>
					<path fill="#FFFFFF" d="M95.801,334.586v-1.018h0.881v1.018H95.801z M95.801,340.75v-5.202h0.881v5.202H95.801z"/>
				</g>
				<g>
					<path fill="#FFFFFF" d="M101.589,339.076l0.91,0.113c-0.145,0.531-0.41,0.945-0.797,1.238c-0.389,0.293-0.885,0.44-1.492,0.44
						c-0.758,0-1.359-0.233-1.805-0.703c-0.451-0.465-0.672-1.127-0.672-1.973c0-0.875,0.225-1.557,0.678-2.039
						c0.447-0.479,1.033-0.723,1.752-0.723c0.695,0,1.266,0.235,1.705,0.711c0.438,0.473,0.664,1.139,0.664,1.998
						c0,0.053-0.004,0.131-0.008,0.233h-3.883c0.035,0.574,0.195,1.011,0.484,1.312c0.293,0.307,0.654,0.455,1.088,0.455
						c0.324,0,0.604-0.084,0.83-0.254C101.274,339.721,101.454,339.451,101.589,339.076z M98.694,337.649h2.902
						c-0.039-0.434-0.148-0.764-0.332-0.982c-0.281-0.34-0.645-0.512-1.092-0.512c-0.406,0-0.75,0.137-1.021,0.41
						C98.876,336.834,98.721,337.198,98.694,337.649z"/>
				</g>
				<g>
					<path fill="#FFFFFF" d="M103.608,340.75v-5.202h0.791v0.739c0.383-0.569,0.934-0.854,1.656-0.854
						c0.312,0,0.602,0.057,0.865,0.17c0.262,0.113,0.459,0.26,0.592,0.44c0.133,0.185,0.223,0.402,0.273,0.654
						c0.031,0.164,0.045,0.445,0.045,0.855v3.196h-0.879v-3.161c0-0.361-0.035-0.63-0.104-0.808
						c-0.07-0.178-0.191-0.322-0.365-0.428c-0.174-0.104-0.379-0.158-0.613-0.158c-0.379,0-0.703,0.117-0.975,0.357
						c-0.271,0.237-0.408,0.688-0.408,1.356v2.84h-0.879V340.75z"/>
				</g>
				<g>
					<path fill="#FFFFFF" d="M111.114,339.966l0.127,0.778c-0.25,0.049-0.471,0.074-0.668,0.074c-0.32,0-0.568-0.047-0.742-0.15
						c-0.178-0.102-0.301-0.233-0.375-0.396c-0.072-0.166-0.105-0.514-0.105-1.043v-2.994h-0.648v-0.688h0.648v-1.287l0.875-0.529
						v1.816h0.889v0.688h-0.889v3.043c0,0.252,0.016,0.412,0.047,0.484s0.082,0.131,0.152,0.172c0.07,0.043,0.172,0.062,0.299,0.062
						C110.823,339.996,110.954,339.987,111.114,339.966z"/>
				</g>
				<g>
					<path fill="#FFFFFF" d="M111.647,338.151c0-0.965,0.266-1.678,0.803-2.141c0.451-0.386,0.994-0.578,1.639-0.578
						c0.715,0,1.299,0.229,1.754,0.703c0.453,0.469,0.68,1.114,0.68,1.942c0,0.668-0.102,1.193-0.303,1.578
						c-0.199,0.385-0.492,0.685-0.877,0.896c-0.383,0.213-0.803,0.317-1.254,0.317c-0.73,0-1.32-0.233-1.768-0.701
						C111.868,339.701,111.647,339.03,111.647,338.151z M112.553,338.151c0,0.666,0.146,1.164,0.434,1.496
						c0.293,0.334,0.66,0.496,1.102,0.496c0.438,0,0.801-0.162,1.092-0.5c0.289-0.33,0.438-0.838,0.438-1.521
						c0-0.643-0.148-1.131-0.441-1.463c-0.287-0.33-0.654-0.496-1.086-0.496c-0.441,0-0.809,0.164-1.102,0.494
						C112.7,336.987,112.553,337.483,112.553,338.151z"/>
				</g>
			</g>
		</g>
		<g>
			<path fill="#FFFFFF" d="M139.288,341.102c0.043-0.18,0.07-0.367,0.129-0.543c0.322-0.969,1.041-1.51,1.979-1.81
				c0.078-0.022,0.156-0.041,0.25-0.065c0-0.861,0-1.721,0-2.578c0-0.172-0.004-0.344,0.002-0.516
				c0.014-0.437,0.35-0.798,0.785-0.824c0.301-0.021,0.602-0.004,0.896-0.004c0.094-0.562,0.229-0.729,0.58-0.74
				c0.379-0.012,0.525,0.15,0.645,0.719c0.264,0,0.525,0,0.809,0c-0.096-0.424-0.059-0.815,0.293-1.08
				c0.184-0.139,0.438-0.254,0.664-0.256c4.072-0.016,8.146-0.012,12.225-0.01c0.633,0.002,1.098,0.563,0.988,1.184
				c-0.008,0.049-0.008,0.097-0.016,0.174c0.102,0,0.189,0,0.275,0c0.812,0,1.619,0,2.43,0.003c0.658,0.002,1.002,0.334,1.004,0.993
				c0.01,1.564,0.008,3.127,0,4.689c-0.002,0.664-0.342,0.996-1.002,0.996c-6.529,0.002-13.061,0.002-19.59,0
				c-0.66,0-0.986-0.336-0.988-1.002c0-0.146,0-0.293,0-0.441c-0.506,0.055-1.004,0.631-1.033,1.187
				c-0.043,0.758,0.432,1.373,1.25,1.594c0.625,0.172,1.264,0.234,1.914,0.225c0.865-0.014,1.738-0.061,2.598,0.037
				c1.775,0.207,3.217,1.078,4.352,2.449c0.309,0.371,0.199,0.736-0.291,1.072c-0.098,0-0.195,0-0.295,0
				c-0.113-0.103-0.229-0.205-0.344-0.308c-0.434-0.381-0.834-0.812-1.309-1.135c-1.123-0.762-2.402-0.945-3.736-0.932
				c-0.887,0.01-1.783,0.006-2.66-0.101c-1.07-0.129-1.918-0.696-2.439-1.653c-0.191-0.354-0.246-0.781-0.363-1.177
				C139.288,341.201,139.288,341.153,139.288,341.102z"/>
			<path fill="#FFFFFF" d="M150.878,318.662c0.236,0.058,0.48,0.09,0.707,0.172c1.361,0.496,2.229,1.447,2.467,2.886
				c0.238,1.448-0.281,2.631-1.445,3.522c-0.137,0.105-0.182,0.195-0.146,0.363c0.346,1.627,0.686,3.256,1.023,4.885
				c0.014,0.062,0.035,0.125,0.061,0.213c0.084,0,0.172,0,0.26,0c0.646,0,1.293-0.006,1.939,0.004
				c0.516,0.009,0.838,0.431,0.674,0.865c-0.047,0.125-0.115,0.193-0.268,0.193c-2.471-0.006-4.943-0.006-7.414,0
				c-0.225,0-0.283-0.129-0.309-0.299c-0.07-0.437,0.223-0.755,0.709-0.761c0.539-0.008,1.078-0.004,1.619-0.004
				c0.088,0,0.178,0,0.305,0c-0.096-0.465-0.186-0.908-0.277-1.352c-0.225-1.068-0.455-2.137-0.668-3.209
				c-0.033-0.17-0.102-0.222-0.26-0.246c-1.5-0.252-2.646-1.365-2.961-2.863c-0.428-2.047,0.965-4.031,3.039-4.326
				c0.037-0.006,0.072-0.028,0.109-0.045C150.321,318.662,150.598,318.662,150.878,318.662z M152.735,322.153
				c-0.037-0.865-0.328-1.473-0.988-1.869c-0.324-0.192-0.611-0.127-0.783,0.158c-0.168,0.273-0.092,0.475,0.254,0.691
				c0.43,0.268,0.613,0.737,0.482,1.227c-0.021,0.078-0.049,0.156-0.061,0.236c-0.025,0.248,0.168,0.521,0.4,0.58
				c0.229,0.057,0.453-0.072,0.537-0.347C152.657,322.574,152.7,322.309,152.735,322.153z"/>
			<path fill="#FFFFFF" d="M152.428,333.096c-1.85,0-3.697,0-5.547,0c-0.248,0-0.293-0.054-0.27-0.304
				c0.037-0.396,0.338-0.696,0.73-0.729c0.082-0.008,0.162-0.01,0.244-0.01c3.232,0,6.465,0,9.695-0.002
				c0.336,0,0.637,0.055,0.832,0.36c0.051,0.082,0.096,0.174,0.117,0.267c0.078,0.348,0.018,0.418-0.332,0.418
				C156.077,333.096,154.253,333.096,152.428,333.096z"/>
		</g>
		<g>
			<path fill="#FFFFFF" d="M51.716,142.314v-9.076h1.933l1.95,6.239c0.035,0.132,0.087,0.315,0.15,0.558
				c0.062,0.239,0.139,0.533,0.225,0.882c0.062-0.296,0.121-0.568,0.181-0.82c0.061-0.254,0.115-0.464,0.164-0.631l1.899-6.228
				h1.865v9.076h-1.107v-6.491c0-0.368,0.003-0.702,0.007-0.996c0.004-0.297,0.01-0.597,0.018-0.904l-2.559,8.392H55.42
				l-2.621-8.478c0.015,0.323,0.021,0.672,0.027,1.044c0.008,0.375,0.01,0.771,0.01,1.194v6.238L51.716,142.314L51.716,142.314z"/>
			<path fill="#FFFFFF" d="M62.665,137.637h-1.162v-0.124c0-0.549,0.189-0.965,0.57-1.25c0.379-0.285,0.938-0.429,1.676-0.429
				c0.729,0,1.266,0.148,1.611,0.444c0.344,0.299,0.516,0.764,0.516,1.395v2.955c0,0.29,0.01,0.576,0.029,0.858
				c0.018,0.279,0.045,0.555,0.082,0.827h-1.082l-0.074-0.795c-0.213,0.277-0.461,0.486-0.744,0.634
				c-0.283,0.148-0.58,0.221-0.893,0.221c-0.537,0-0.976-0.177-1.31-0.532c-0.338-0.358-0.506-0.826-0.506-1.403
				c0-0.726,0.234-1.273,0.705-1.642c0.469-0.371,1.17-0.557,2.103-0.557h0.606v-0.312c0-0.499-0.072-0.84-0.219-1.03
				c-0.146-0.187-0.396-0.283-0.752-0.283c-0.383,0-0.67,0.081-0.865,0.244c-0.193,0.163-0.293,0.401-0.293,0.717L62.665,137.637
				L62.665,137.637z M64.806,138.996c-0.873,0-1.479,0.103-1.825,0.308c-0.345,0.202-0.517,0.546-0.517,1.028
				c0,0.313,0.094,0.572,0.281,0.779c0.188,0.207,0.428,0.312,0.715,0.312c0.426,0,0.758-0.167,0.992-0.501
				c0.236-0.336,0.354-0.812,0.354-1.433V138.996z"/>
			<path fill="#FFFFFF" d="M67.268,144.705v-7.597c0-0.324-0.004-0.562-0.012-0.714c-0.01-0.15-0.022-0.287-0.043-0.407h1.111
				l0.062,0.604c0.197-0.26,0.418-0.451,0.662-0.579c0.244-0.126,0.521-0.19,0.826-0.19c0.711,0,1.23,0.26,1.564,0.782
				c0.332,0.52,0.498,1.339,0.498,2.46c0,1.16-0.169,2.018-0.507,2.572c-0.336,0.553-0.854,0.829-1.557,0.829
				c-0.324,0-0.611-0.071-0.863-0.219c-0.252-0.146-0.469-0.363-0.649-0.654v3.111L67.268,144.705L67.268,144.705z M68.351,139.177
				c0,0.819,0.105,1.42,0.314,1.798c0.209,0.38,0.537,0.569,0.984,0.569c0.405,0,0.703-0.191,0.889-0.575
				c0.188-0.384,0.279-0.997,0.279-1.843c0-0.94-0.095-1.591-0.281-1.954c-0.189-0.364-0.512-0.545-0.967-0.545
				c-0.427,0-0.736,0.2-0.931,0.598C68.448,137.621,68.351,138.274,68.351,139.177z"/>
			<path fill="#FFFFFF" d="M74.24,137.637h-1.164v-0.124c0-0.549,0.188-0.965,0.57-1.25c0.379-0.285,0.938-0.429,1.676-0.429
				c0.729,0,1.268,0.148,1.61,0.444c0.345,0.299,0.519,0.764,0.519,1.395v2.955c0,0.29,0.008,0.576,0.027,0.858
				c0.02,0.279,0.047,0.555,0.084,0.827h-1.084l-0.074-0.795c-0.213,0.277-0.461,0.486-0.744,0.634
				c-0.281,0.148-0.58,0.221-0.892,0.221c-0.536,0-0.975-0.177-1.311-0.532c-0.336-0.358-0.504-0.826-0.504-1.403
				c0-0.726,0.234-1.273,0.703-1.642c0.469-0.371,1.17-0.557,2.102-0.557h0.607v-0.312c0-0.499-0.072-0.84-0.217-1.03
				c-0.146-0.187-0.396-0.283-0.754-0.283c-0.384,0-0.671,0.081-0.865,0.244c-0.193,0.163-0.291,0.401-0.291,0.717L74.24,137.637
				L74.24,137.637z M76.38,138.996c-0.875,0-1.481,0.103-1.828,0.308c-0.344,0.202-0.516,0.546-0.516,1.028
				c0,0.313,0.094,0.572,0.281,0.779c0.188,0.207,0.428,0.312,0.715,0.312c0.426,0,0.758-0.167,0.994-0.501
				c0.235-0.336,0.354-0.812,0.354-1.433V138.996z"/>
			<path fill="#FFFFFF" d="M45.488,150.013v0.203c0,0.861-0.228,1.531-0.683,2.014c-0.457,0.482-1.09,0.724-1.901,0.724
				c-0.386,0-0.744-0.056-1.08-0.167c-0.334-0.109-0.604-0.262-0.81-0.456c-0.344-0.314-0.588-0.77-0.729-1.363
				c-0.144-0.597-0.213-1.562-0.213-2.893c0-0.931,0.045-1.646,0.133-2.147c0.088-0.499,0.236-0.918,0.445-1.254
				c0.205-0.336,0.502-0.595,0.889-0.775c0.389-0.181,0.838-0.27,1.352-0.27c0.824,0,1.453,0.23,1.886,0.69
				c0.434,0.46,0.647,1.134,0.647,2.015h-1.271V146.2c0-0.543-0.107-0.943-0.324-1.213c-0.215-0.266-0.541-0.398-0.975-0.398
				c-0.275,0-0.517,0.055-0.724,0.158c-0.207,0.106-0.375,0.264-0.502,0.47c-0.127,0.205-0.217,0.514-0.271,0.931
				c-0.054,0.418-0.078,1.208-0.078,2.372c0,1.375,0.115,2.294,0.348,2.761c0.23,0.468,0.642,0.702,1.228,0.702
				c0.467,0,0.812-0.152,1.036-0.458c0.224-0.307,0.337-0.776,0.337-1.408v-0.104L45.488,150.013L45.488,150.013z"/>
			<path fill="#FFFFFF" d="M46.7,149.637c0-1.15,0.188-1.989,0.567-2.509c0.38-0.522,0.984-0.782,1.812-0.782
				c0.832,0,1.436,0.26,1.809,0.776c0.373,0.521,0.56,1.364,0.56,2.528c0,1.163-0.188,2.006-0.562,2.53
				c-0.375,0.522-0.977,0.784-1.805,0.784c-0.838,0-1.443-0.262-1.818-0.784C46.888,151.658,46.7,150.809,46.7,149.637z
				 M49.081,147.269c-0.451,0-0.777,0.187-0.977,0.554c-0.197,0.37-0.298,0.979-0.298,1.829c0,0.865,0.099,1.479,0.296,1.844
				c0.196,0.365,0.522,0.55,0.979,0.55c0.451,0,0.773-0.185,0.969-0.55c0.193-0.364,0.291-0.975,0.291-1.832
				c0-0.871-0.098-1.486-0.291-1.85C49.855,147.449,49.532,147.269,49.081,147.269z"/>
			<path fill="#FFFFFF" d="M56.075,152.813v-4.042c0-0.615-0.078-1.035-0.236-1.266c-0.158-0.227-0.428-0.342-0.811-0.342
				c-0.431,0-0.744,0.16-0.939,0.479c-0.197,0.317-0.297,0.822-0.297,1.515v3.655H52.71v-5.327c0-0.137-0.006-0.286-0.016-0.45
				c-0.011-0.165-0.025-0.346-0.045-0.548h1.104l0.049,0.733c0.224-0.309,0.47-0.532,0.736-0.675
				c0.27-0.143,0.582-0.213,0.938-0.213c0.521,0,0.934,0.154,1.237,0.459c0.303,0.306,0.455,0.722,0.455,1.246v4.774H56.075z"/>
			<path fill="#FFFFFF" d="M61.945,150.673h1.088c-0.012,0.726-0.217,1.29-0.617,1.689c-0.4,0.403-0.953,0.604-1.658,0.604
				c-0.834,0-1.436-0.259-1.809-0.775s-0.562-1.361-0.562-2.527c0-1.169,0.188-2.015,0.562-2.535
				c0.373-0.521,0.975-0.781,1.809-0.781c0.672,0,1.215,0.181,1.627,0.538c0.412,0.359,0.619,0.832,0.619,1.42v0.134h-1.072
				c0-0.368-0.096-0.654-0.291-0.862c-0.194-0.204-0.469-0.307-0.821-0.307c-0.48,0-0.82,0.178-1.021,0.529
				c-0.201,0.354-0.301,0.974-0.301,1.865c0,0.865,0.098,1.479,0.293,1.837c0.193,0.362,0.518,0.543,0.969,0.543
				c0.353,0,0.635-0.123,0.851-0.372C61.82,151.424,61.931,151.09,61.945,150.673z"/>
			<path fill="#FFFFFF" d="M68.712,150.829c-0.033,0.671-0.25,1.194-0.649,1.571c-0.398,0.377-0.939,0.565-1.619,0.565
				c-0.847,0-1.453-0.259-1.818-0.775c-0.367-0.517-0.551-1.381-0.551-2.589c0-1.136,0.188-1.963,0.563-2.479
				c0.379-0.518,0.979-0.775,1.806-0.775c0.78,0,1.354,0.207,1.723,0.618c0.363,0.412,0.547,1.062,0.547,1.954v0.984h-3.52v0.362
				c0,0.624,0.1,1.075,0.299,1.354c0.197,0.282,0.516,0.423,0.951,0.423c0.332,0,0.598-0.105,0.801-0.314
				c0.203-0.208,0.332-0.508,0.387-0.899H68.712z M65.198,149.085h2.442v-0.542c0-0.476-0.1-0.838-0.295-1.083
				c-0.196-0.245-0.485-0.368-0.868-0.368c-0.427,0-0.742,0.157-0.951,0.479C65.32,147.89,65.212,148.394,65.198,149.085z"/>
			<path fill="#FFFFFF" d="M69.9,155.205v-7.598c0-0.323-0.004-0.56-0.013-0.713c-0.01-0.15-0.022-0.288-0.043-0.406h1.113
				l0.061,0.604c0.197-0.261,0.419-0.453,0.662-0.579c0.244-0.126,0.521-0.191,0.826-0.191c0.711,0,1.23,0.26,1.564,0.783
				c0.332,0.519,0.498,1.339,0.498,2.459c0,1.161-0.168,2.018-0.506,2.572c-0.337,0.554-0.854,0.83-1.558,0.83
				c-0.322,0-0.61-0.072-0.863-0.22c-0.252-0.144-0.469-0.361-0.649-0.653v3.112L69.9,155.205L69.9,155.205z M70.982,149.675
				c0,0.821,0.104,1.422,0.313,1.801s0.537,0.57,0.984,0.57c0.406,0,0.703-0.191,0.889-0.575c0.188-0.385,0.279-0.999,0.279-1.845
				c0-0.939-0.094-1.589-0.281-1.951c-0.188-0.364-0.512-0.544-0.967-0.544c-0.426,0-0.736,0.197-0.93,0.596
				C71.079,148.122,70.982,148.772,70.982,149.675z"/>
			<path fill="#FFFFFF" d="M77.243,144.698v1.79h1.262v0.781h-1.262v3.79c0,0.341,0.053,0.575,0.158,0.706
				c0.104,0.129,0.297,0.191,0.573,0.191c0.101,0,0.265-0.007,0.492-0.022h0.037l-0.006,0.817c-0.168,0.037-0.326,0.064-0.473,0.082
				c-0.148,0.021-0.287,0.029-0.414,0.029c-0.533,0-0.908-0.104-1.125-0.312s-0.326-0.579-0.326-1.107v-4.172h-0.961v-0.781h0.961
				v-1.271L77.243,144.698z"/>
			<path fill="#FFFFFF" d="M80.462,146.488v4.029c0,0.612,0.078,1.031,0.232,1.258c0.155,0.229,0.428,0.341,0.812,0.341
				c0.428,0,0.738-0.156,0.937-0.471c0.196-0.314,0.295-0.816,0.295-1.503v-3.655h1.084v5.328c0.004,0.14,0.01,0.291,0.02,0.456
				c0.013,0.163,0.025,0.344,0.041,0.542h-1.102l-0.056-0.746c-0.221,0.31-0.469,0.535-0.737,0.679
				c-0.271,0.147-0.582,0.22-0.937,0.22c-0.521,0-0.932-0.152-1.235-0.458c-0.304-0.305-0.455-0.721-0.455-1.246v-4.775h1.102
				V146.488z"/>
			<path fill="#FFFFFF" d="M86.294,148.137H85.13v-0.124c0-0.548,0.189-0.966,0.57-1.252c0.379-0.284,0.938-0.428,1.676-0.428
				c0.73,0,1.269,0.148,1.611,0.445c0.346,0.299,0.518,0.763,0.518,1.396v2.951c0,0.291,0.008,0.578,0.027,0.858
				c0.02,0.281,0.047,0.556,0.084,0.829h-1.084l-0.074-0.794c-0.213,0.273-0.461,0.486-0.744,0.634
				c-0.281,0.148-0.58,0.222-0.891,0.222c-0.537,0-0.976-0.178-1.312-0.533c-0.336-0.358-0.504-0.827-0.504-1.403
				c0-0.727,0.234-1.273,0.703-1.644c0.469-0.369,1.17-0.556,2.103-0.556h0.608v-0.312c0-0.496-0.074-0.838-0.219-1.027
				c-0.146-0.188-0.396-0.283-0.754-0.283c-0.383,0-0.67,0.081-0.863,0.244c-0.195,0.162-0.293,0.4-0.293,0.717L86.294,148.137
				L86.294,148.137z M88.436,149.495c-0.873,0-1.482,0.103-1.826,0.306c-0.347,0.204-0.519,0.548-0.519,1.028
				c0,0.313,0.095,0.573,0.281,0.78c0.191,0.208,0.428,0.312,0.715,0.312c0.428,0,0.758-0.168,0.994-0.502s0.354-0.811,0.354-1.432
				C88.435,149.987,88.435,149.495,88.436,149.495z"/>
			<path fill="#FFFFFF" d="M91.966,152.813h-1.082v-9.075h1.082V152.813z"/>
		</g>
		<g>
			<path fill="#FFFFFF" d="M140.827,140.042h-8.436v-4.148h0.102c0.814-0.019,2.395-0.184,3.777-0.332
				c0.041,0.003,0.082,0.003,0.125,0.006l0.17-0.021c1.053,0.021,2.107,0.091,3.148,0.003c0.34-0.03,0.9-0.539,0.912-0.847
				c0.082-2.103,0.043-4.213,0.043-6.39h-13.424c0,0.021,0,0.046-0.004,0.067c-0.488-0.02-0.854-0.021-1.129-0.013
				c-0.02-0.049-0.033-0.098-0.055-0.146c-0.162,0.069-0.359,0.14-0.566,0.206c-0.004,0-0.004,0-0.004,0
				c-0.123,0.024-0.172,0.053-0.189,0.062c-0.008,0.003-0.01,0.006-0.01,0.006c-0.646,0.211-1.309,0.42-1.318,0.657
				c-0.094,2.192,0.1,4.399,0.203,6.755c2.594,0,5.129,0.031,7.656-0.006c-0.07,0.637-0.18,1.583-0.113,2.059
				c0.307,2.14,0.205,2.249-1.979,2.331c-1.787,0.067-3.568,0.247-5.35,0.377c0,1.029,0.02,2.002,0.021,2.941v0.003
				c-0.018-0.083-0.035-0.166-0.053-0.249c-1.252,0.229-6.369,0.901-7.396,1.511c-0.529,0.317-0.373,1.791-0.52,2.743
				c-0.023,0.149,0.029,0.333-0.039,0.447c-0.719,1.166,0.045,1.998,0.525,2.894c0.168-0.019,0.338-0.038,0.506-0.06
				c-0.139-1.287-0.234-2.58-0.428-3.858c-0.168-1.099-0.053-1.9,1.293-2.04c0.812-0.083,5.189-0.98,6.111-1.157v0.001
				c0.002,0.733-0.01,1.448-0.047,2.165c-0.055,1.12,0.283,1.507,1.438,1.49c4.098-0.061,8.197-0.009,12.295-0.042
				c0.514-0.004,1.021-0.241,1.527-0.373c0.004-0.002,0.004-0.002,0.008-0.006h0.018c-0.01,0.003-0.018,0.003-0.023,0.006
				c-0.004,0.005-0.006,0.01-0.008,0.014c1.43,0.347,1.67-0.652,1.643-1.634C141.214,143.76,140.997,142.06,140.827,140.042z"/>
			<path fill="#FFFFFF" d="M137.001,154.764c-0.074,0.002-0.146,0.009-0.223,0.015c-0.012-1.271-0.076-1.988-0.145-2.396
				c0.232,0.311,0.385,0.755,0.432,1.388c0.393-1.915-0.369-2.901-1.928-2.816c-1.783,0.099-3.57,0.234-5.357,0.269
				c-1.367,0.027-1.76,0.562-1.182,1.798c-0.182,0.213-0.523,0.424-0.525,0.64c-0.031,1.77-0.076,3.543,0.078,5.3
				c0.037,0.377,0.871,0.953,1.355,0.972c2.219,0.084,4.447-0.009,6.672-0.007c0.725,0,1.182-0.188,1.117-1.017
				C137.192,157.528,137.098,156.145,137.001,154.764z"/>
			<path fill="#FFFFFF" d="M152.02,154.395c0-0.003,0-0.003,0-0.006c-0.225-1.497-0.246-1.382-0.775-3.424
				c0.133,0,0.264-0.003,0.398-0.003c-0.004-0.202-0.006-0.402-0.006-0.606c-1.998,0-4.008-0.119-5.982,0.07
				c-0.639,0.063-1.199,0.942-1.797,1.452v6.256h8.326C152.118,156.724,152.458,155.5,152.02,154.395z"/>
			<path fill="#FFFFFF" d="M119.159,151.55c-1.814,0.312-3.635,0.598-5.449,0.896c-0.865-0.059-1.309,0.237-1.203,1.212
				c0.162,1.5,0.162,3.02,0.369,4.515c0.27,1.953,0.471,2.106,2.533,2.039c1.029-0.033,2.049-0.246,3.074-0.378
				c-0.025-0.005-0.053-0.012-0.076-0.018c0.943-0.055,1.635-0.231,1.711-0.253c0.004,0,0.006,0,0.006,0
				c0.533-0.058,1.068-0.115,1.613-0.173c-0.094-2.091-0.121-4.006-0.285-5.912C121.339,152.163,120.694,151.287,119.159,151.55z"/>
			<path fill="#FFFFFF" d="M148.809,149.252c0.186-0.031,0.365-0.062,0.551-0.094c-0.35-1.646-0.691-3.293-1.037-4.939
				c-0.25-0.282-0.49-0.802-0.75-0.811c-1.955-0.069-3.914-0.038-5.871-0.038c0.004,0.188,0.004,0.375,0.006,0.562
				c0.711,0,1.426-0.05,2.131,0.011c1.422,0.127,2.838,0.313,4.256,0.475C148.296,146.037,147.565,147.819,148.809,149.252z"/>
		</g>
	</g>
</g>
</svg>
