<?xml version="1.0" encoding="utf-8"?>
<!-- Generator: Adobe Illustrator 16.0.0, SVG Export Plug-In . SVG Version: 6.00 Build 0)  -->
<!DOCTYPE svg PUBLIC "-//W3C//DTD SVG 1.1//EN" "http://www.w3.org/Graphics/SVG/1.1/DTD/svg11.dtd">
<svg version="1.1" id="Capa_1" xmlns="http://www.w3.org/2000/svg" xmlns:xlink="http://www.w3.org/1999/xlink" x="0px" y="0px"
	 width="164.68px" height="520.838px" viewBox="0 0 164.68 520.838" enable-background="new 0 0 164.68 520.838"
	 xml:space="preserve">
<g>
	<g opacity="0.9069">
		<path fill="#A7A7A7" d="M164.679,501.933c0,10.441-36.861,18.905-82.339,18.905C36.864,520.838,0,512.374,0,501.933
			c0-10.444,36.864-18.915,82.341-18.915C127.818,483.018,164.679,491.488,164.679,501.933z"/>
	</g>
	<g>
		<path fill="#F4AB7D" d="M23.204,273.801c-1.559,5.683-3.453,8.913-1.004,10.917c2.451,2.004,1.939,10.58,1.719,14.811
			c-0.225,4.234-13.19,0.895-13.19,0.895s0-11.919,2.117-27.178C15.631,273.245,23.204,273.801,23.204,273.801z"/>
		<path fill="#F4AB7D" d="M11.221,288.763c0.074,6.832-1.56,16.264-0.074,18.787c1.485,2.524,8.464,13.737,9.652,13.441
			c1.189-0.297,0.446-2.97,0.446-2.97c2.378,2.523,5.345,4.01,4.604-2.823c-1.931-4.75-3.269-6.682-3.269-7.869
			c3.715,5.496,4.01,8.317,5.496,8.168c1.486-0.15-1.338-7.13-3.27-10.1c-1.931-2.971,0.002-13.219-1.038-16.485
			S11.221,288.763,11.221,288.763z"/>
		<g>
			<g>
				<path fill="#D28657" d="M15.296,294.854c0.141-0.094,1.127,1.203,1.879,3.697c0.421,1.213,0.726,2.749,1.351,4.232
					c0.32,0.748,0.709,1.525,1.215,2.23c0.242,0.357,0.533,0.688,0.821,0.944c0.072,0.068,0.144,0.118,0.212,0.159
					c0.049,0.035,0.032,0.021,0.041,0.023c0.008,0,0.013-0.004,0.014-0.011c-0.035,0.178,0.117-0.456,0.101-0.979
					c0.002-0.541-0.028-1.108-0.09-1.688c-0.118-1.177-0.325-2.336-0.556-3.444c-0.117-0.554-0.244-1.097-0.379-1.625
					c-0.13-0.533-0.284-1.011-0.412-1.61c-0.459-2.315,0.018-4.279,0.135-5.823c0.175-1.559,0.015-2.752-0.317-3.537
					c-0.322-0.783-0.65-1.18-0.543-1.275c0.053-0.058,0.544,0.181,1.102,0.979c0.57,0.783,0.953,2.232,0.908,3.891
					c0.01,1.647-0.289,3.556,0.178,5.434c0.602,1.956,1.251,4.35,1.502,6.85c0.066,0.624,0.101,1.248,0.09,1.885
					c-0.006,0.318-0.034,0.648-0.086,0.987c-0.035,0.283-0.243,0.926-0.613,1.311c-0.381,0.281-0.866,0.382-1.327,0.239
					c-0.219-0.093-0.472-0.175-0.617-0.299c-0.143-0.095-0.269-0.194-0.372-0.295c-0.438-0.406-0.765-0.828-1.042-1.261
					c-0.566-0.856-0.95-1.732-1.26-2.578c-0.608-1.731-0.771-3.243-1.054-4.474C15.716,296.34,15.095,294.964,15.296,294.854z"/>
			</g>
		</g>
		<path fill="#F4AB7D" d="M110.43,350.997c0.773,24.778,0.021,121.96,1.956,130.864c1.938,8.905,15.1,25.938,12.39,29.812
			c-2.712,3.873-20.134-13.938-23.618-24.392c-3.483-10.455-14.711-127.379-14.711-127.379L110.43,350.997z"/>
		<path fill="#1F152A" d="M99.997,482.249c14.713,23.811,24.488,28.167,20.229,15.778c0,0,9.583,15.002,4.936,15.389
			c-3.236,0.27-12.68-6.087-19.588-16.518l0.23,4.03l-2.71-2.323c0,0-1.229-5.735-1.967-10.099
			C100.224,485.974,99.69,483.239,99.997,482.249z"/>
		<path fill="#F4AB7D" d="M63.772,354.481c0,15.1-1.161,121.087-2.033,123.701c-0.871,2.613-15.973,18.974-33.396,17.811
			c-4.646-1.162,16.264-15.487,20.618-21.876c1.453-21.779-9.002-108.604-10.164-123.411
			C37.638,335.897,63.772,354.481,63.772,354.481z"/>
		<path fill="#1F152A" d="M62.417,472.181c0.967,4.065,0.822,8.035-2.854,21.973c-1.31,0.679-2.905,0.582-2.905,0.582
			c-0.075-3.426,0.728-5.662,0.872-10.162c-10.453,7.839-12.05,13.211-25.504,13.355c-5.645,0.062-12.775,0.969,0-8.13
			C31.054,496.572,45.767,491.54,62.417,472.181z"/>
		<path fill="#3D2113" d="M34.321,109.079c6.969-6.389,16.844-8.517,30.394-4.066c13.551,4.452,22.457,0.967,30.2,0.581
			c7.741-0.387,19.164,1.354,23.81,2.129c13.552-8.71,1.549-62.334,0.774-66.787c-0.774-4.452-48.009-32.522-56.14-30.199
			c-8.132,2.323-16.067,0-18.972,3.484c-2.903,3.486,0.772,40.073-7.357,51.106C28.901,76.364,21.931,96.108,34.321,109.079z"/>
		<path fill="#682D12" d="M107.255,73.143c-0.774,11.615-18.537,39.226-1.5,50.453c1.162-6.968,4.646-13.744,12.777-10.453
			s17.42-0.388,20.132-4.841c12.003-20.907,4.065-35.619-3.29-45.298c-7.354-9.679-9.873-25.359-9.873-25.359l-15.486,18.003"/>
		<path fill="#682D12" d="M65.295,18.672c-8.71-15.099-35.812-6.58-34.068,6.777c1.741,13.358,12,25.36,0.771,38.136
			c-11.227,12.779-19.164,31.361-9.873,42.782c9.294,11.424,6.972,12.004,5.229,14.133c12.584-4.646,12.775-10.646,5.422-26.521
			c-7.357-15.874,13.928-32.478,13.742-50.14C46.323,25.255,52.714,19.642,65.295,18.672z"/>
		<path fill="#3E2512" d="M43.421,31.643c1.849,8.442,2.431,16.345,0.843,23.157c1.383-3.61,2.293-7.261,2.254-10.96
			c-0.162-15.592,4.312-22.054,13.188-24.3C50.235,17.434,40.882,20.035,43.421,31.643z"/>
		<path fill="#C6C3BB" d="M117.097,442.37c-6.194,3.291-19.938,2.13-24.198,0.388C89.608,424.366,70.444,287.5,70.444,287.5
			s-5.035,148.478-5.229,151.577c-8.131,4.647-19.164,0.582-21.1-1.741c-2.131-15.874-6.195-100.469-7.356-117.699
			c-1.16-17.229,2.903-56.915,3.872-70.467c0.968-13.55,6.97-36.006,6.97-36.006s21.391,3.678,45.298-0.194
			C105.481,231.36,117.29,430.754,117.097,442.37z"/>
		<path fill="#EDABB1" d="M101.897,126.389c-5.082-3.63-25.117-6.679-39.638,0c-12.341,9.291-7.84,10.6-7.112,10.743
			c0.725,0.146,48.929,5.228,48.929,5.228"/>
		<path fill="#F4AB7D" d="M95.944,86.897c-1.354,15.485-5.035,38.377,10.456,47.477c-5.81,22.649-42.253,27.49-42.253,27.49
			s-7.548-26.135-4.258-31.362c12.389-2.71,11.81-15.197,12.392-32.425C75.184,91.688,95.944,86.897,95.944,86.897z"/>
		<path fill="#D28657" fill-opacity="0.5" d="M69.61,122.452c2.384-5.824,2.327-14.284,2.67-24.375
			c2.903-6.389,23.664-11.179,23.664-11.179c-0.615,7.042-1.708,15.62-1.263,23.733C85.983,118.063,75.288,121.604,69.61,122.452z"
			/>
		<path fill="#1F152A" d="M103.089,135.47c-6.388,9.873-21.221,71.446-17.541,79.963c-24.585,0.969-37.428,0-37.428,0
			c-6.582-24.004-11.073-69.977,14.285-86.431c-1.935,10.453,0.58,21.246,3.486,22.988
			C74.409,149.86,100.379,133.147,103.089,135.47z"/>
		<path fill="#F4AB7D" d="M46.146,35.935c1.451,18.293,1.162,29.328-2.034,43.558c-1.453,6.388-0.58,15.679,21.78,28.747
			c3.338,1.599,37.312-6.388,41.812-34.265c4.642-28.729-4.645-51.687-22.065-55.172C68.214,15.318,47.597,17.351,46.146,35.935z"/>
		<path fill="#F4AB7D" d="M108.865,62.552c4.938-7.597,14.519-1.935,11.423,6.196c-3.207,8.418-11.13,9.437-15.341,5.081
			C105.722,67.634,108.865,62.552,108.865,62.552z"/>
		<g>
			<g>
				<path fill="#D28657" d="M69.473,80.754c-0.067,0.179-1.458,0.021-3.587-0.923c-0.524-0.268-1.104-0.57-1.669-1.112
					c-0.277-0.268-0.564-0.617-0.729-1.097c-0.196-0.479-0.129-1.067,0.038-1.545c0.396-0.925,1.052-1.502,1.675-2.058
					c0.709-0.585,1.115-0.9,1.422-1.566c0.599-1.267,0.57-2.883,0.502-4.283c-0.079-1.423-0.252-2.726-0.381-3.823
					c-0.272-2.194-0.403-3.58-0.178-3.63c0.213-0.047,0.738,1.243,1.309,3.417c0.275,1.091,0.572,2.399,0.743,3.91
					c0.134,1.494,0.306,3.261-0.532,5.121c-0.219,0.454-0.518,0.875-0.865,1.237c-0.389,0.37-0.705,0.6-0.993,0.836
					c-0.586,0.474-1.106,0.976-1.312,1.406c-0.424,0.688,0.672,1.645,1.535,2.183C68.271,79.945,69.563,80.517,69.473,80.754z"/>
			</g>
		</g>
		<g>
			<path fill="#3D2113" d="M58.776,49.582c0.167-0.107-0.12-0.917-1.164-1.713c-1.017-0.797-2.762-1.456-4.74-1.392
				c-1.984,0.034-3.729,0.943-4.598,1.925c-0.879,0.996-0.992,1.829-0.822,1.906c0.225,0.124,0.695-0.447,1.579-1.039
				c0.884-0.585,2.255-1.129,3.896-1.165c1.631-0.053,3.115,0.321,4.099,0.754C58.024,49.276,58.581,49.732,58.776,49.582z"/>
		</g>
		<path fill="#F39200" d="M92.751,348.093c11.904-0.291,40.22-1.307,46.461-16.116c-7.694-30.635-16.552-78.983-36.588-114.701
			c-2.47-7.404,11.761-25.843,16.986-41.524c5.082-17.277,8.617-34.99,8.229-35.57c-2.131-2.032-21.587-6.244-21.587-6.244
			s-22.795,14.52-25.407,35.427c-2.613,20.908,0.292,59.963,3.339,87.405C87.233,284.208,86.363,338.22,92.751,348.093z"/>
		<path fill="#D37D00" d="M101.704,126.243c5.615,4.453,11.496,6.577,11.445,7.187c-0.822,10.116-10.283,19.915-11.445,20.884
			c-6.969,1.548-14.131,4.065-14.131,4.065c8.516,5.129,6.775,5.612,6.775,5.612c-8.133,6.971-14.906,28.265-13.938,47.429
			c-5.033-32.133-9.776-42.299,19.744-78.595C102.685,129.716,101.704,126.243,101.704,126.243z"/>
		<path fill="#DF7E00" d="M41.306,142.31c-10.552,8.18-8.134,44.526-17.037,65.82S7.815,269.497,7.815,273.756
			c7.745,6.582,17.425,4.647,20.134,1.55c8.131-22.458,16.067-63.691,18.391-77.243C42.948,178.221,41.306,142.31,41.306,142.31z"/>
		<path fill="#F39200" d="M48.612,200.145c6.357,21.224-4.791,115.426,4.211,145.045c-7.26,1.161-17.858-7.551-19.311-10.455
			c-1.451-2.903,5.809-110.343,8.712-128.056c2.902-17.714-11.18-29.184-3.051-59.964c6.39-5.226,5.953-1.597,5.953-1.597
			S40.483,172.994,48.612,200.145z"/>
		<path fill="#D37D00" d="M65.745,125.081c-10.841,10.648-26.955,25.94-16.889,76.08c-10.649-18.392-13.357-44.525-13.357-44.525
			s5.225-5.615,6-5.615c-3.872-2.904-6.192-4.064-5.612-5.42C36.465,144.247,56.235,124.066,65.745,125.081z"/>
		<path fill="#DF7E00" d="M104.222,264.464c-3.632-3.34-8.423-9.148-8.423-9.148c-4.355,9.148-7.549,26.424-6.969,30.635
			c2.902,9.583,15.824,14.954,20.181,11.614c3.922-7.113,4.064-24.826,4.064-24.826S107.124,267.369,104.222,264.464z"/>
		<path fill="#DF7E00" d="M124.935,262.915c-4.164,1.064-15.193-7.26-13.356-12.002
			C115.255,248.688,127.163,251.976,124.935,262.915z"/>
		<path fill="#F4AB7D" d="M119.319,248.688c-4.936,5.951-5.664,10.551-11.035,8.905c-4.86-1.489-7.693,7.454-14.227,8.469
			c-2.18,1.017-0.097,4.018,1.258,3.729c1.354-0.292,8.614-3.582,8.614-3.582c3.632,5.227,9.146,6.532,9.146,6.532
			c7.261-5.952,13.504-16.551,13.504-16.551L119.319,248.688z"/>
		<path fill="#D37D00" d="M127.84,140.182c0.772,1.743,28.844,68.914,28.069,79.758c-0.774,10.841-22.647,36.586-30.975,42.976
			c-1.938-9.776-13.356-12.002-13.356-12.002c6.969-10.648,20.715-29.814,21.684-35.815c0.968-6.001-15.738-36.165-16.845-38.523
			C106.156,154.699,127.065,138.439,127.84,140.182z"/>
		<path fill="#DF7E00" d="M45.758,257.495c-0.195,5.809,0.387,25.167-0.775,27.684c-1.163,2.516-7.354,8.129-8.322,7.742
			c-0.969-0.387-0.58-26.328-0.58-26.328L45.758,257.495z"/>
		<g>
			<path fill="#DF7E00" d="M97.831,227.294c-0.11-0.019-0.127-0.435-0.059-1.181c0.034-0.374,0.089-0.829,0.164-1.358
				c0.09-0.522,0.231-1.104,0.381-1.753c0.581-2.602,1.729-6.082,3.19-9.845c2.926-7.533,6.245-13.221,6.633-13.012
				c0.404,0.213-2.221,6.145-5.117,13.605c-1.448,3.728-2.753,7.106-3.604,9.573c-0.223,0.615-0.425,1.171-0.604,1.661
				c-0.152,0.492-0.297,0.916-0.424,1.261C98.137,226.935,97.942,227.313,97.831,227.294z"/>
		</g>
		<path fill="#682D12" d="M61.036,20.03c2.519,13.164,4.453,26.326,18.393,30.584c13.938,4.261,27.683-0.192,27.1,2.905
			c-0.58,3.098-3.025,14.058,0.075,14.834c4.063-4.841,4.118-6.088,6.121-8.251c3.314-3.582,14.711-3.098,14.52-12.972
			c-0.193-9.872-4.065-29.812-12.003-31.36c-7.937-1.549-17.036-2.516-24.585-10.647c-7.551-8.129-29.039-7.744-35.428,9.678
			C57.938,13.252,60.843,18.092,61.036,20.03z"/>
		<g>
			<path fill="#3D2113" d="M78.569,49.004c0.164,0.199,1.027-0.347,2.508-0.81c1.482-0.467,3.628-0.754,6.035-0.553
				c4.832,0.382,8.588,1.983,8.785,1.555c0.229-0.355-3.405-2.749-8.665-3.177c-2.606-0.223-5.048,0.292-6.593,1.113
				C79.081,47.953,78.439,48.87,78.569,49.004z"/>
		</g>
	</g>
</g>
</svg>
