<?xml version="1.0" encoding="utf-8"?>
<!-- Generator: Adobe Illustrator 16.0.0, SVG Export Plug-In . SVG Version: 6.00 Build 0)  -->
<!DOCTYPE svg PUBLIC "-//W3C//DTD SVG 1.1//EN" "http://www.w3.org/Graphics/SVG/1.1/DTD/svg11.dtd">
<svg version="1.1" id="Capa_1" xmlns="http://www.w3.org/2000/svg" xmlns:xlink="http://www.w3.org/1999/xlink" x="0px" y="0px"
	 width="164.68px" height="520.838px" viewBox="0 0 164.68 520.838" enable-background="new 0 0 164.68 520.838"
	 xml:space="preserve">
<path opacity="0.4" fill="#E73F2C" d="M82.557,86.688c-12.375,11.662-18.206,9.996-20.108,8.568
	c-1.904-1.428-6.309-7.854-6.309-7.854C61.14,90.02,76.607,89.306,82.557,86.688z"/>
<path fill="#E73F2C" d="M83.269,86.093c-11.541,3.927-23.439-5.472-27.724,1.43C64.114,90.854,74.583,91.328,83.269,86.093z"/>
<g>
	<path fill="#D18458" d="M79.581,84.787c0.037-0.122,0.451-0.128,1.041,0.047c0.299,0.083,0.648,0.197,1.031,0.34
		c0.372,0.168,0.773,0.368,1.188,0.59c0.851,0.409,1.498,0.994,1.962,1.399c0.458,0.42,0.693,0.729,0.609,0.835
		c-0.084,0.107-0.469-0.004-1.012-0.264c-0.552-0.248-1.216-0.713-2.034-1.105c-0.401-0.212-0.771-0.429-1.106-0.635
		c-0.348-0.181-0.656-0.356-0.912-0.518C79.844,85.144,79.535,84.924,79.581,84.787z"/>
</g>
</svg>
