<?xml version="1.0" encoding="utf-8"?>
<!-- Generator: Adobe Illustrator 16.0.0, SVG Export Plug-In . SVG Version: 6.00 Build 0)  -->
<!DOCTYPE svg PUBLIC "-//W3C//DTD SVG 1.1//EN" "http://www.w3.org/Graphics/SVG/1.1/DTD/svg11.dtd">
<svg version="1.1" id="Capa_1" xmlns="http://www.w3.org/2000/svg" xmlns:xlink="http://www.w3.org/1999/xlink" x="0px" y="0px"
	 width="558.614px" height="342.824px" viewBox="0 0 558.614 342.824" enable-background="new 0 0 558.614 342.824"
	 xml:space="preserve">
<g>
	<g>
		<path fill="#F2961C" d="M0,4.735h6.263v1.552H2.26v7.043h3.825v1.538H2.26v7.878h4.11v1.552H0V4.735z"/>
		<path fill="#F2961C" d="M9.626,4.735h2.26v18.011h4.074v1.552H9.626V4.735z"/>
		<path fill="#F2961C" d="M23.717,4.735h6.263v1.552h-4.003v7.043h3.825v1.538h-3.825v7.878h4.11v1.552h-6.37V4.735z"/>
		<path fill="#F2961C" d="M33.343,4.735h3.096l3.754,18.396h0.036L39.891,4.735h2.046v19.563h-3.131L35.087,6.154h-0.071
			l0.32,18.144h-1.993V4.735z"/>
		<path fill="#F2961C" d="M45.994,4.735h6.085v1.552h-3.825v7.096h3.683v1.539h-3.683v9.377h-2.26V4.735z"/>
		<path fill="#F2961C" d="M63.003,8.728v11.579c0,1.68-0.302,2.821-0.907,3.422s-1.684,0.902-3.238,0.902
			c-1.53,0-2.598-0.305-3.203-0.915c-0.605-0.61-0.907-1.746-0.907-3.409V8.728c0-1.645,0.305-2.77,0.916-3.375
			c0.611-0.606,1.687-0.909,3.229-0.909s2.613,0.301,3.212,0.902S63.003,7.074,63.003,8.728z M60.637,8.462
			c0-0.99-0.131-1.669-0.391-2.036c-0.261-0.367-0.724-0.55-1.388-0.55c-0.653,0-1.106,0.179-1.361,0.537s-0.382,1.041-0.382,2.049
			v12.109c0,1.017,0.13,1.702,0.391,2.056c0.261,0.354,0.723,0.531,1.388,0.531c0.652,0,1.106-0.177,1.361-0.531
			s0.382-1.039,0.382-2.056V8.462z"/>
		<path fill="#F2961C" d="M66.882,8.728c0-1.653,0.299-2.781,0.898-3.382c0.599-0.601,1.669-0.902,3.212-0.902
			c1.542,0,2.618,0.303,3.229,0.909c0.611,0.606,0.916,1.731,0.916,3.375v11.579c0,1.008-0.107,1.691-0.32,2.049
			s-0.587,0.661-1.121,0.908l0.071,0.08c0.415-0.168,0.827-0.296,1.237-0.385c0.409-0.089,0.798-0.133,1.165-0.133h0.391v1.472
			c-0.712,0.009-1.684,0.046-2.918,0.113c-1.234,0.067-2.117,0.1-2.651,0.1c-1.59,0-2.672-0.279-3.247-0.836
			c-0.575-0.557-0.863-1.68-0.863-3.369L66.882,8.728L66.882,8.728z M69.249,8.462v12.109c0,1.017,0.13,1.702,0.391,2.056
			c0.261,0.354,0.723,0.531,1.388,0.531c0.652,0,1.106-0.177,1.361-0.531c0.255-0.354,0.382-1.039,0.382-2.056V8.462
			c0-0.99-0.131-1.669-0.391-2.036c-0.261-0.367-0.724-0.55-1.388-0.55c-0.653,0-1.106,0.179-1.361,0.537
			C69.376,6.771,69.249,7.454,69.249,8.462z"/>
		<path fill="#F2961C" d="M79.017,4.735h2.366v15.836c0,1.017,0.13,1.702,0.391,2.056c0.261,0.354,0.723,0.531,1.388,0.531
			c0.652,0,1.106-0.177,1.361-0.531s0.382-1.039,0.382-2.056V4.735h2.366v15.571c0,1.68-0.302,2.821-0.907,3.422
			s-1.684,0.902-3.238,0.902c-1.53,0-2.598-0.305-3.203-0.915c-0.605-0.61-0.907-1.746-0.907-3.409L79.017,4.735L79.017,4.735z"/>
		<path fill="#F2961C" d="M91.258,4.735h6.263v1.552h-4.003v7.043h3.825v1.538h-3.825v7.878h4.11v1.552h-6.37V4.735z"/>
		<path fill="#F2961C" d="M106.453,4.735h3.452c1.779,0,2.983,0.186,3.612,0.557c0.628,0.372,0.943,1.039,0.943,2.003v4.43
			c0,0.814-0.208,1.389-0.623,1.725s-1.151,0.539-2.206,0.61c1.127,0.053,1.909,0.248,2.348,0.583
			c0.439,0.336,0.658,0.92,0.658,1.751v5.345c0,0.964-0.314,1.632-0.943,2.003c-0.629,0.371-1.833,0.557-3.612,0.557h-3.63
			L106.453,4.735L106.453,4.735z M108.712,6.181v7.149h0.801c1.032,0,1.72-0.135,2.064-0.405c0.344-0.27,0.516-0.869,0.516-1.797
			V8.409c0-0.938-0.172-1.543-0.516-1.817c-0.344-0.273-1.032-0.411-2.064-0.411H108.712z M108.712,14.789v8.064h0.836
			c1.091,0,1.812-0.135,2.162-0.404c0.35-0.269,0.525-0.864,0.525-1.784V16.99c0-0.919-0.175-1.517-0.525-1.791
			c-0.35-0.274-1.071-0.411-2.162-0.411L108.712,14.789L108.712,14.789z"/>
		<path fill="#F2961C" d="M118.587,4.735h2.402v19.563h-2.402V4.735z"/>
		<path fill="#F2961C" d="M133.141,8.728v11.579c0,1.68-0.302,2.821-0.907,3.422s-1.684,0.902-3.238,0.902
			c-1.53,0-2.598-0.305-3.203-0.915c-0.605-0.61-0.907-1.746-0.907-3.409V8.728c0-1.645,0.305-2.77,0.916-3.375
			c0.611-0.606,1.687-0.909,3.229-0.909c1.542,0,2.613,0.301,3.212,0.902C132.842,5.947,133.141,7.074,133.141,8.728z
			 M130.775,8.462c0-0.99-0.131-1.669-0.391-2.036c-0.261-0.367-0.724-0.55-1.388-0.55c-0.653,0-1.106,0.179-1.361,0.537
			c-0.255,0.358-0.382,1.041-0.382,2.049v12.109c0,1.017,0.13,1.702,0.391,2.056c0.261,0.354,0.723,0.531,1.388,0.531
			c0.652,0,1.106-0.177,1.361-0.531s0.382-1.039,0.382-2.056V8.462L130.775,8.462z"/>
		<path fill="#F2961C" d="M137.127,4.735h2.918c1.779,0,2.989,0.188,3.63,0.563c0.641,0.376,0.961,1.041,0.961,1.996v5.624
			c0,0.955-0.32,1.618-0.961,1.99c-0.64,0.371-1.85,0.557-3.63,0.557h-0.658v8.833h-2.26V4.735z M139.387,6.181v7.852h0.605
			c0.901,0,1.504-0.135,1.806-0.405c0.302-0.27,0.454-0.877,0.454-1.823V8.409c0-0.946-0.151-1.554-0.454-1.824
			c-0.302-0.27-0.905-0.405-1.806-0.405L139.387,6.181L139.387,6.181z"/>
		<path fill="#F2961C" d="M154.261,7.839v1.87h-2.366V7.892c0-0.769-0.107-1.297-0.32-1.585c-0.213-0.287-0.593-0.431-1.139-0.431
			c-0.522,0-0.89,0.161-1.103,0.484c-0.214,0.323-0.32,0.895-0.32,1.717v0.955c0,0.398,0.074,0.807,0.222,1.227
			c0.148,0.42,0.365,0.816,0.649,1.187l2.954,3.886c0.498,0.654,0.86,1.271,1.085,1.85c0.225,0.579,0.338,1.179,0.338,1.797v1.327
			c0,1.698-0.288,2.843-0.863,3.435c-0.575,0.592-1.598,0.889-3.069,0.889c-1.435,0-2.435-0.239-2.998-0.716
			c-0.563-0.478-0.845-1.38-0.845-2.706v-2.175h2.384v2.108c0,0.796,0.107,1.335,0.32,1.618c0.213,0.283,0.605,0.425,1.174,0.425
			c0.581,0,0.981-0.162,1.201-0.484c0.219-0.323,0.329-1.032,0.329-2.129v-1.353c0-0.504-0.062-0.962-0.187-1.373
			c-0.125-0.411-0.305-0.784-0.543-1.121l-3.131-4.165c-0.439-0.557-0.774-1.088-1.005-1.592c-0.231-0.504-0.347-0.941-0.347-1.313
			V8.515c0-1.521,0.282-2.58,0.845-3.176c0.563-0.597,1.533-0.896,2.909-0.896c1.447,0,2.447,0.234,2.998,0.703
			C153.984,5.615,154.261,6.513,154.261,7.839z"/>
		<path fill="#F2961C" d="M157.428,4.735h2.402v19.563h-2.402V4.735z"/>
		<path fill="#F2961C" d="M171.342,7.839v1.87h-2.384V7.892c0-0.76-0.11-1.286-0.329-1.578c-0.22-0.292-0.608-0.438-1.166-0.438
			c-0.51,0-0.866,0.166-1.068,0.497c-0.202,0.332-0.302,1.028-0.302,2.089v12.109c0,1.088,0.107,1.795,0.32,2.122
			c0.214,0.327,0.605,0.491,1.174,0.491c0.486,0,0.836-0.155,1.05-0.465c0.214-0.309,0.32-0.835,0.32-1.578v-2.108h2.384v2.175
			c0,1.335-0.279,2.239-0.836,2.712c-0.558,0.473-1.554,0.709-2.989,0.709c-1.412,0-2.396-0.305-2.954-0.915
			c-0.558-0.61-0.836-1.746-0.836-3.409V8.728c0-1.653,0.279-2.781,0.836-3.382s1.542-0.902,2.954-0.902
			c1.447,0,2.447,0.234,2.998,0.703C171.065,5.616,171.342,6.513,171.342,7.839z"/>
		<path fill="#F2961C" d="M182.444,8.728v11.579c0,1.68-0.302,2.821-0.907,3.422s-1.684,0.902-3.238,0.902
			c-1.53,0-2.598-0.305-3.203-0.915c-0.605-0.61-0.907-1.746-0.907-3.409V8.728c0-1.645,0.305-2.77,0.916-3.375
			c0.611-0.606,1.687-0.909,3.229-0.909s2.613,0.301,3.212,0.902S182.444,7.074,182.444,8.728z M180.078,8.462
			c0-0.99-0.131-1.669-0.391-2.036c-0.261-0.367-0.724-0.55-1.388-0.55c-0.653,0-1.106,0.179-1.361,0.537s-0.382,1.041-0.382,2.049
			v12.109c0,1.017,0.13,1.702,0.391,2.056c0.261,0.354,0.723,0.531,1.388,0.531c0.652,0,1.106-0.177,1.361-0.531
			c0.255-0.354,0.382-1.039,0.382-2.056V8.462z"/>
		<path fill="#F2961C" d="M193.28,7.839v1.87h-2.366V7.892c0-0.769-0.107-1.297-0.32-1.585C190.38,6.02,190,5.876,189.455,5.876
			c-0.522,0-0.89,0.161-1.103,0.484c-0.214,0.323-0.32,0.895-0.32,1.717v0.955c0,0.398,0.074,0.807,0.222,1.227
			c0.148,0.42,0.365,0.816,0.649,1.187l2.954,3.886c0.498,0.654,0.86,1.271,1.085,1.85c0.225,0.579,0.338,1.179,0.338,1.797v1.327
			c0,1.698-0.288,2.843-0.863,3.435c-0.575,0.592-1.598,0.889-3.069,0.889c-1.435,0-2.435-0.239-2.998-0.716
			c-0.563-0.478-0.845-1.38-0.845-2.706v-2.175h2.384v2.108c0,0.796,0.107,1.335,0.32,1.618c0.213,0.283,0.605,0.425,1.174,0.425
			c0.581,0,0.981-0.162,1.201-0.484c0.219-0.323,0.329-1.032,0.329-2.129v-1.353c0-0.504-0.062-0.962-0.187-1.373
			c-0.125-0.411-0.305-0.784-0.543-1.121l-3.131-4.165c-0.439-0.557-0.774-1.088-1.005-1.592c-0.231-0.504-0.347-0.941-0.347-1.313
			V8.515c0-1.521,0.282-2.58,0.845-3.176c0.563-0.597,1.533-0.896,2.909-0.896c1.447,0,2.447,0.234,2.998,0.703
			C193.003,5.615,193.28,6.513,193.28,7.839z"/>
		<path fill="#F2961C" d="M204.596,8.728v11.579c0,1.68-0.302,2.821-0.907,3.422s-1.684,0.902-3.238,0.902
			c-1.53,0-2.598-0.305-3.203-0.915c-0.605-0.61-0.907-1.746-0.907-3.409V8.728c0-1.645,0.305-2.77,0.916-3.375
			c0.611-0.606,1.687-0.909,3.229-0.909s2.613,0.301,3.212,0.902C204.296,5.947,204.596,7.074,204.596,8.728z M202.229,8.462
			c0-0.99-0.131-1.669-0.391-2.036c-0.261-0.367-0.724-0.55-1.388-0.55c-0.653,0-1.106,0.179-1.361,0.537s-0.382,1.041-0.382,2.049
			v12.109c0,1.017,0.13,1.702,0.391,2.056c0.261,0.354,0.723,0.531,1.388,0.531c0.652,0,1.106-0.177,1.361-0.531
			c0.255-0.354,0.382-1.039,0.382-2.056V8.462z"/>
		<path fill="#F2961C" d="M216.09,7.839v1.87h-2.384V7.892c0-0.76-0.11-1.286-0.329-1.578c-0.22-0.292-0.608-0.438-1.166-0.438
			c-0.51,0-0.866,0.166-1.068,0.497c-0.202,0.332-0.302,1.028-0.302,2.089v12.109c0,1.088,0.107,1.795,0.32,2.122
			c0.214,0.327,0.605,0.491,1.174,0.491c0.486,0,0.836-0.155,1.05-0.465c0.214-0.309,0.32-0.835,0.32-1.578v-2.108h2.384v2.175
			c0,1.335-0.279,2.239-0.836,2.712c-0.558,0.473-1.554,0.709-2.989,0.709c-1.412,0-2.396-0.305-2.954-0.915
			c-0.558-0.61-0.836-1.746-0.836-3.409V8.728c0-1.653,0.279-2.781,0.836-3.382s1.542-0.902,2.954-0.902
			c1.447,0,2.447,0.234,2.998,0.703C215.813,5.616,216.09,6.513,216.09,7.839z"/>
		<path fill="#F2961C" d="M219.043,4.735h2.402v19.563h-2.402V4.735z"/>
		<path fill="#F2961C" d="M227.673,4.735h3.309l3.79,19.563h-2.438l-0.907-5.438h-4.306l-0.979,5.438h-2.384L227.673,4.735z
			 M229.239,6.181l-1.904,11.247h3.79l-1.779-11.247H229.239z"/>
		<path fill="#F2961C" d="M237.174,4.735h2.26v18.011h4.074v1.552h-6.334V4.735z"/>
		<path fill="#F2961C" d="M249.255,4.735h2.402l2.366,8.913h0.196l2.135-8.913h2.331l-3.594,11.247v8.316h-2.295v-8.316
			L249.255,4.735z"/>
		<path fill="#F2961C" d="M266.389,4.735h2.26v18.011h4.074v1.552h-6.334V4.735z"/>
		<path fill="#F2961C" d="M277.812,4.735h3.31l3.789,19.563h-2.438l-0.907-5.438h-4.306l-0.979,5.438h-2.384L277.812,4.735z
			 M279.378,6.181l-1.904,11.247h3.79l-1.779-11.247H279.378z"/>
		<path fill="#F2961C" d="M300.391,7.839v1.87h-2.385V7.892c0-0.76-0.109-1.286-0.328-1.578c-0.221-0.292-0.608-0.438-1.166-0.438
			c-0.51,0-0.866,0.166-1.068,0.497c-0.201,0.332-0.302,1.028-0.302,2.089v12.109c0,1.088,0.106,1.795,0.319,2.122
			c0.215,0.327,0.605,0.491,1.175,0.491c0.485,0,0.836-0.155,1.05-0.465c0.214-0.309,0.32-0.835,0.32-1.578v-2.108h2.384v2.175
			c0,1.335-0.279,2.239-0.836,2.712c-0.558,0.473-1.554,0.709-2.989,0.709c-1.412,0-2.396-0.305-2.954-0.915
			c-0.558-0.61-0.836-1.746-0.836-3.409V8.728c0-1.653,0.279-2.781,0.836-3.382c0.558-0.601,1.542-0.902,2.954-0.902
			c1.447,0,2.447,0.234,2.998,0.703S300.391,6.513,300.391,7.839z"/>
		<path fill="#F2961C" d="M303.344,4.735h2.26v18.011h4.074v1.552h-6.334V4.735z"/>
		<path fill="#F2961C" d="M314.767,4.735h3.31l3.789,19.563h-2.438l-0.907-5.438h-4.306l-0.979,5.438h-2.384L314.767,4.735z
			 M316.333,6.181l-1.903,11.247h3.79L316.44,6.181H316.333z"/>
		<path fill="#F2961C" d="M331.118,7.839v1.87h-2.365V7.892c0-0.769-0.107-1.297-0.32-1.585c-0.213-0.287-0.594-0.431-1.139-0.431
			c-0.522,0-0.891,0.161-1.104,0.484c-0.214,0.323-0.32,0.895-0.32,1.717v0.955c0,0.398,0.074,0.807,0.223,1.227
			c0.148,0.42,0.365,0.816,0.648,1.187l2.954,3.886c0.498,0.654,0.86,1.271,1.085,1.85c0.225,0.579,0.338,1.179,0.338,1.797v1.327
			c0,1.698-0.287,2.843-0.863,3.435c-0.574,0.592-1.598,0.889-3.068,0.889c-1.436,0-2.436-0.239-2.998-0.716
			c-0.562-0.478-0.846-1.38-0.846-2.706v-2.175h2.385v2.108c0,0.796,0.107,1.335,0.32,1.618c0.213,0.283,0.604,0.425,1.174,0.425
			c0.58,0,0.98-0.162,1.201-0.484c0.219-0.323,0.328-1.032,0.328-2.129v-1.353c0-0.504-0.062-0.962-0.187-1.373
			c-0.125-0.411-0.306-0.784-0.543-1.121l-3.131-4.165c-0.438-0.557-0.774-1.088-1.005-1.592c-0.231-0.504-0.348-0.941-0.348-1.313
			V8.515c0-1.521,0.282-2.58,0.846-3.176c0.562-0.597,1.533-0.896,2.908-0.896c1.447,0,2.447,0.234,2.998,0.703
			S331.118,6.513,331.118,7.839z"/>
		<path fill="#F2961C" d="M334.286,4.735h2.402v19.563h-2.402V4.735z"/>
		<path fill="#F2961C" d="M340.691,4.735h6.085v1.552h-3.824v7.096h3.682v1.539h-3.682v9.377h-2.261V4.735L340.691,4.735z"/>
		<path fill="#F2961C" d="M349.551,4.735h2.402v19.563h-2.402V4.735z"/>
		<path fill="#F2961C" d="M363.465,7.839v1.87h-2.385V7.892c0-0.76-0.109-1.286-0.328-1.578c-0.221-0.292-0.608-0.438-1.166-0.438
			c-0.51,0-0.866,0.166-1.068,0.497c-0.202,0.332-0.303,1.028-0.303,2.089v12.109c0,1.088,0.107,1.795,0.32,2.122
			c0.215,0.327,0.605,0.491,1.174,0.491c0.486,0,0.836-0.155,1.051-0.465c0.214-0.309,0.32-0.835,0.32-1.578v-2.108h2.383v2.175
			c0,1.335-0.278,2.239-0.836,2.712c-0.558,0.473-1.553,0.709-2.988,0.709c-1.412,0-2.396-0.305-2.954-0.915
			c-0.558-0.61-0.836-1.746-0.836-3.409V8.728c0-1.653,0.278-2.781,0.836-3.382s1.542-0.902,2.954-0.902
			c1.447,0,2.447,0.234,2.998,0.703S363.465,6.513,363.465,7.839z"/>
		<path fill="#F2961C" d="M368.643,4.735h3.309l3.791,19.563h-2.438l-0.907-5.438h-4.307l-0.979,5.438h-2.384L368.643,4.735z
			 M370.208,6.181l-1.903,11.247h3.79l-1.779-11.247H370.208z"/>
		<path fill="#F2961C" d="M385.653,7.839v1.87h-2.384V7.892c0-0.76-0.11-1.286-0.329-1.578c-0.22-0.292-0.607-0.438-1.166-0.438
			c-0.51,0-0.865,0.166-1.068,0.497c-0.201,0.332-0.302,1.028-0.302,2.089v12.109c0,1.088,0.107,1.795,0.32,2.122
			c0.214,0.327,0.604,0.491,1.174,0.491c0.485,0,0.836-0.155,1.05-0.465c0.215-0.309,0.32-0.835,0.32-1.578v-2.108h2.384v2.175
			c0,1.335-0.278,2.239-0.836,2.712c-0.558,0.473-1.554,0.709-2.989,0.709c-1.412,0-2.396-0.305-2.953-0.915
			c-0.559-0.61-0.836-1.746-0.836-3.409V8.728c0-1.653,0.278-2.781,0.836-3.382c0.557-0.601,1.541-0.902,2.953-0.902
			c1.447,0,2.447,0.234,2.998,0.703S385.653,6.513,385.653,7.839z"/>
		<path fill="#F2961C" d="M388.606,4.735h2.402v19.563h-2.402V4.735z"/>
		<path fill="#F2961C" d="M403.161,8.728v11.579c0,1.68-0.303,2.821-0.908,3.422c-0.604,0.601-1.684,0.902-3.238,0.902
			c-1.529,0-2.598-0.305-3.202-0.915c-0.604-0.61-0.907-1.746-0.907-3.409V8.728c0-1.645,0.305-2.77,0.916-3.375
			c0.611-0.606,1.688-0.909,3.229-0.909c1.543,0,2.613,0.301,3.213,0.902S403.161,7.074,403.161,8.728z M400.793,8.462
			c0-0.99-0.131-1.669-0.391-2.036c-0.262-0.367-0.725-0.55-1.389-0.55c-0.652,0-1.105,0.179-1.359,0.537
			c-0.256,0.358-0.383,1.041-0.383,2.049v12.109c0,1.017,0.131,1.702,0.391,2.056c0.262,0.354,0.723,0.531,1.389,0.531
			c0.652,0,1.105-0.177,1.361-0.531c0.254-0.354,0.381-1.039,0.381-2.056V8.462z M399.602,0h2.51l-2.332,2.958h-1.744L399.602,0z"/>
		<path fill="#F2961C" d="M407.147,4.735h3.096l3.754,18.396h0.035l-0.338-18.396h2.047v19.563h-3.131l-3.721-18.144h-0.07
			l0.32,18.144h-1.994V4.735H407.147z"/>
		<path fill="#F2961C" d="M425.366,4.735h2.4v19.563h-2.4V4.735z"/>
		<path fill="#F2961C" d="M431.772,4.735h3.096l3.754,18.396h0.035l-0.338-18.396h2.047v19.563h-3.131l-3.721-18.144h-0.07
			l0.32,18.144h-1.994V4.735H431.772z"/>
		<path fill="#F2961C" d="M442.696,4.735h7.703v1.552h-2.703v18.011h-2.295V6.287h-2.705V4.735L442.696,4.735z"/>
		<path fill="#F2961C" d="M452.766,4.735h6.264v1.552h-4.004v7.043h3.824v1.538h-3.824v7.878h4.109v1.552h-6.369V4.735z"/>
		<path fill="#F2961C" d="M462.391,4.735h3.453c1.779,0,2.982,0.186,3.611,0.557c0.629,0.372,0.943,1.039,0.943,2.003v4.43
			c0,0.814-0.207,1.389-0.623,1.725c-0.414,0.336-1.15,0.539-2.205,0.61c1.127,0.053,1.908,0.248,2.348,0.583
			c0.439,0.336,0.658,0.92,0.658,1.751v7.905h-2.402V16.99c0-0.919-0.176-1.517-0.525-1.791c-0.35-0.274-1.07-0.411-2.162-0.411
			h-0.836v9.51h-2.26V4.735L462.391,4.735z M464.651,6.181v7.149h0.801c1.033,0,1.721-0.135,2.064-0.405
			c0.344-0.27,0.516-0.869,0.516-1.797V8.409c0-0.938-0.172-1.543-0.516-1.817c-0.344-0.273-1.031-0.411-2.064-0.411H464.651z"/>
		<path fill="#F2961C" d="M474.526,4.735h3.096l3.754,18.396h0.037l-0.338-18.396h2.045v19.563h-3.131L476.27,6.154h-0.07
			l0.318,18.144h-1.992V4.735L474.526,4.735z"/>
		<path fill="#F2961C" d="M489.401,4.735h3.309l3.791,19.563h-2.438l-0.908-5.438h-4.307l-0.979,5.438h-2.383L489.401,4.735z
			 M490.965,6.181l-1.902,11.247h3.789l-1.779-11.247H490.965z"/>
		<path fill="#F2961C" d="M506.411,7.839v1.87h-2.385V7.892c0-0.76-0.109-1.286-0.328-1.578c-0.221-0.292-0.609-0.438-1.166-0.438
			c-0.51,0-0.867,0.166-1.068,0.497c-0.203,0.332-0.303,1.028-0.303,2.089v12.109c0,1.088,0.107,1.795,0.32,2.122
			c0.215,0.327,0.605,0.491,1.174,0.491c0.486,0,0.836-0.155,1.051-0.465c0.213-0.309,0.32-0.835,0.32-1.578v-2.108h2.383v2.175
			c0,1.335-0.279,2.239-0.836,2.712c-0.559,0.473-1.553,0.709-2.988,0.709c-1.412,0-2.396-0.305-2.955-0.915
			c-0.557-0.61-0.836-1.746-0.836-3.409V8.728c0-1.653,0.279-2.781,0.836-3.382c0.559-0.601,1.543-0.902,2.955-0.902
			c1.447,0,2.447,0.234,2.998,0.703S506.411,6.513,506.411,7.839z"/>
		<path fill="#F2961C" d="M509.364,4.735h2.402v19.563h-2.402V4.735z"/>
		<path fill="#F2961C" d="M523.918,8.728v11.579c0,1.68-0.303,2.821-0.908,3.422c-0.604,0.601-1.684,0.902-3.236,0.902
			c-1.531,0-2.6-0.305-3.203-0.915c-0.605-0.61-0.908-1.746-0.908-3.409V8.728c0-1.645,0.305-2.77,0.916-3.375
			c0.611-0.606,1.688-0.909,3.23-0.909c1.541,0,2.611,0.301,3.211,0.902C523.618,5.947,523.918,7.074,523.918,8.728z M521.551,8.462
			c0-0.99-0.131-1.669-0.391-2.036c-0.26-0.367-0.723-0.55-1.387-0.55c-0.654,0-1.107,0.179-1.361,0.537
			c-0.256,0.358-0.383,1.041-0.383,2.049v12.109c0,1.017,0.131,1.702,0.391,2.056c0.262,0.354,0.723,0.531,1.389,0.531
			c0.652,0,1.105-0.177,1.361-0.531c0.254-0.354,0.381-1.039,0.381-2.056V8.462z"/>
		<path fill="#F2961C" d="M527.905,4.735H531l3.754,18.396h0.035l-0.338-18.396h2.047v19.563h-3.131l-3.719-18.144h-0.072
			l0.32,18.144h-1.992V4.735L527.905,4.735z"/>
		<path fill="#F2961C" d="M542.778,4.735h3.309l3.791,19.563h-2.438l-0.908-5.438h-4.307l-0.979,5.438h-2.383L542.778,4.735z
			 M544.344,6.181l-1.904,11.247h3.791l-1.779-11.247H544.344z"/>
		<path fill="#F2961C" d="M552.28,4.735h2.26v18.011h4.074v1.552h-6.334V4.735z"/>
		<path fill="#F2961C" d="M0,31.898h2.651c2.242,0,3.707,0.263,4.395,0.79c0.688,0.526,1.032,1.73,1.032,3.614v10.756
			c0,1.875-0.35,3.077-1.05,3.607c-0.7,0.531-2.159,0.796-4.377,0.796H0V31.898z M2.26,33.344v16.672h0.729
			c1.091,0,1.812-0.135,2.162-0.404c0.35-0.27,0.525-0.864,0.525-1.784V35.572c0-0.929-0.178-1.532-0.534-1.812
			c-0.356-0.279-1.074-0.418-2.153-0.418L2.26,33.344L2.26,33.344z"/>
		<path fill="#F2961C" d="M12.063,31.898h6.263v1.552h-4.003v7.043h3.825v1.539h-3.825v7.878h4.11v1.552h-6.37V31.898z"/>
		<path fill="#F2961C" d="M21.689,31.898h2.26v18.011h4.074v1.552h-6.334V31.898z"/>
		<path fill="#F2961C" d="M35.781,31.898h6.085v1.552h-3.825v7.096h3.683v1.538h-3.683v9.377h-2.26V31.898z"/>
		<path fill="#F2961C" d="M44.535,31.898h2.366v15.836c0,1.017,0.13,1.702,0.391,2.056s0.723,0.53,1.388,0.53
			c0.652,0,1.106-0.177,1.361-0.53c0.255-0.354,0.382-1.039,0.382-2.056V31.898h2.366v15.571c0,1.68-0.302,2.821-0.907,3.422
			c-0.605,0.602-1.684,0.902-3.238,0.902c-1.53,0-2.598-0.305-3.203-0.915s-0.907-1.747-0.907-3.409L44.535,31.898L44.535,31.898z"
			/>
		<path fill="#F2961C" d="M56.776,31.898h3.096l3.754,18.396h0.036l-0.338-18.396h2.046v19.563h-3.131L58.52,33.317h-0.071
			l0.32,18.144h-1.993V31.898z"/>
		<path fill="#F2961C" d="M76.935,35.002v1.87h-2.384v-1.817c0-0.76-0.11-1.287-0.329-1.578c-0.22-0.292-0.608-0.438-1.166-0.438
			c-0.51,0-0.866,0.166-1.068,0.498c-0.202,0.332-0.302,1.028-0.302,2.089v12.109c0,1.087,0.107,1.795,0.32,2.122
			c0.214,0.327,0.605,0.491,1.174,0.491c0.486,0,0.836-0.155,1.05-0.464c0.214-0.31,0.32-0.835,0.32-1.578v-2.109h2.384v2.175
			c0,1.335-0.279,2.239-0.836,2.712c-0.558,0.473-1.554,0.71-2.989,0.71c-1.412,0-2.396-0.305-2.954-0.915
			c-0.558-0.61-0.836-1.747-0.836-3.409V35.89c0-1.653,0.279-2.781,0.836-3.382c0.557-0.601,1.542-0.901,2.954-0.901
			c1.447,0,2.447,0.234,2.998,0.703C76.659,32.778,76.935,33.675,76.935,35.002z"/>
		<path fill="#F2961C" d="M79.888,31.898h2.402v19.563h-2.402V31.898z"/>
		<path fill="#F2961C" d="M94.443,35.89v11.579c0,1.68-0.302,2.821-0.907,3.422c-0.605,0.602-1.684,0.902-3.238,0.902
			c-1.53,0-2.598-0.305-3.203-0.915s-0.907-1.747-0.907-3.409V35.89c0-1.645,0.305-2.77,0.916-3.375s1.687-0.908,3.229-0.908
			s2.613,0.301,3.212,0.901C94.143,33.109,94.443,34.237,94.443,35.89z M92.076,35.625c0-0.99-0.131-1.669-0.391-2.036
			c-0.261-0.367-0.724-0.55-1.388-0.55c-0.653,0-1.106,0.179-1.361,0.538c-0.255,0.357-0.382,1.041-0.382,2.049v12.109
			c0,1.017,0.13,1.702,0.391,2.056c0.261,0.354,0.723,0.53,1.388,0.53c0.652,0,1.106-0.177,1.361-0.53
			c0.255-0.354,0.382-1.039,0.382-2.056V35.625z"/>
		<path fill="#F2961C" d="M98.428,31.898h3.096l3.754,18.396h0.036l-0.338-18.396h2.046v19.563h-3.131l-3.719-18.144h-0.071
			l0.32,18.144h-1.993V31.898z"/>
		<path fill="#F2961C" d="M113.303,31.898h3.309l3.79,19.563h-2.438l-0.907-5.438h-4.306l-0.979,5.438h-2.384L113.303,31.898z
			 M114.868,33.344l-1.904,11.247h3.79l-1.779-11.247H114.868z"/>
		<path fill="#F2961C" d="M122.804,31.898h3.932l2.544,18.011h0.178l2.491-18.011h3.825v19.563H133.8V33.37h-0.356l-2.562,18.091
			h-3.167l-2.651-18.091h-0.302v18.091h-1.957L122.804,31.898L122.804,31.898z"/>
		<path fill="#F2961C" d="M139.849,31.898h2.402v19.563h-2.402V31.898z"/>
		<path fill="#F2961C" d="M146.254,31.898h6.263v1.552h-4.003v7.043h3.825v1.539h-3.825v7.878h4.11v1.552h-6.37V31.898z"/>
		<path fill="#F2961C" d="M155.88,31.898h3.096l3.754,18.396h0.036l-0.338-18.396h2.046v19.563h-3.131l-3.719-18.144h-0.071
			l0.32,18.144h-1.993V31.898L155.88,31.898z"/>
		<path fill="#F2961C" d="M166.805,31.898h7.704v1.552h-2.704v18.011h-2.295V33.45h-2.704L166.805,31.898L166.805,31.898z"/>
		<path fill="#F2961C" d="M185.024,35.89v11.579c0,1.68-0.302,2.821-0.907,3.422c-0.605,0.602-1.684,0.902-3.238,0.902
			c-1.53,0-2.598-0.305-3.203-0.915s-0.907-1.747-0.907-3.409V35.89c0-1.645,0.305-2.77,0.916-3.375s1.687-0.908,3.229-0.908
			s2.613,0.301,3.212,0.901C184.725,33.109,185.024,34.237,185.024,35.89z M182.658,35.625c0-0.99-0.131-1.669-0.391-2.036
			c-0.261-0.367-0.724-0.55-1.388-0.55c-0.653,0-1.106,0.179-1.361,0.538c-0.255,0.357-0.382,1.041-0.382,2.049v12.109
			c0,1.017,0.13,1.702,0.391,2.056c0.261,0.354,0.723,0.53,1.388,0.53c0.652,0,1.106-0.177,1.361-0.53
			c0.255-0.354,0.382-1.039,0.382-2.056V35.625z"/>
		<path fill="#F2961C" d="M188.672,49.312h2.562l-1.868,4.43h-1.957L188.672,49.312z"/>
		<path fill="#F2961C" d="M200.148,31.898h2.651c2.242,0,3.707,0.263,4.395,0.79c0.688,0.526,1.032,1.73,1.032,3.614v10.756
			c0,1.875-0.35,3.077-1.05,3.607c-0.7,0.531-2.159,0.796-4.377,0.796h-2.651V31.898z M202.408,33.344v16.672h0.729
			c1.091,0,1.812-0.135,2.162-0.404c0.35-0.27,0.525-0.864,0.525-1.784V35.572c0-0.929-0.178-1.532-0.534-1.812
			c-0.356-0.279-1.074-0.418-2.153-0.418L202.408,33.344L202.408,33.344z"/>
		<path fill="#F2961C" d="M212.211,31.898h6.263v1.552h-4.003v7.043h3.825v1.539h-3.825v7.878h4.11v1.552h-6.37V31.898z"/>
		<path fill="#F2961C" d="M232.975,31.898h2.26v18.011h4.074v1.552h-6.334V31.898z"/>
		<path fill="#F2961C" d="M244.398,31.898h3.309l3.79,19.563h-2.438l-0.907-5.438h-4.306l-0.979,5.438h-2.384L244.398,31.898z
			 M245.964,33.344l-1.904,11.247h3.79l-1.779-11.247H245.964z"/>
		<path fill="#F2961C" d="M259.468,31.898h2.651c2.242,0,3.707,0.263,4.395,0.79c0.688,0.526,1.032,1.73,1.032,3.614v10.756
			c0,1.875-0.35,3.077-1.05,3.607c-0.7,0.531-2.159,0.796-4.377,0.796h-2.651V31.898z M261.728,33.344v16.672h0.729
			c1.091,0,1.812-0.135,2.162-0.404c0.35-0.27,0.525-0.864,0.525-1.784V35.572c0-0.929-0.178-1.532-0.534-1.812
			c-0.356-0.279-1.074-0.418-2.153-0.418L261.728,33.344L261.728,33.344z"/>
		<path fill="#F2961C" d="M271.531,31.898h2.402v19.563h-2.402V31.898z"/>
		<path fill="#F2961C" d="M284.788,35.002v1.87h-2.367v-1.817c0-0.77-0.106-1.298-0.319-1.585c-0.213-0.287-0.593-0.431-1.14-0.431
			c-0.521,0-0.89,0.162-1.103,0.484c-0.214,0.323-0.32,0.896-0.32,1.718v0.955c0,0.398,0.074,0.807,0.222,1.227
			s0.365,0.816,0.65,1.188l2.953,3.886c0.498,0.654,0.86,1.271,1.085,1.851c0.226,0.58,0.339,1.178,0.339,1.797v1.326
			c0,1.698-0.289,2.843-0.863,3.436c-0.575,0.592-1.598,0.889-3.069,0.889c-1.435,0-2.435-0.239-2.998-0.716
			c-0.563-0.478-0.845-1.379-0.845-2.706v-2.175h2.384v2.109c0,0.796,0.107,1.335,0.32,1.618c0.213,0.283,0.605,0.424,1.174,0.424
			c0.581,0,0.981-0.162,1.2-0.484c0.22-0.323,0.33-1.032,0.33-2.129v-1.353c0-0.504-0.062-0.961-0.188-1.373
			c-0.125-0.412-0.305-0.785-0.543-1.121l-3.131-4.164c-0.439-0.558-0.774-1.088-1.005-1.592c-0.231-0.504-0.347-0.942-0.347-1.313
			V35.68c0-1.521,0.282-2.579,0.845-3.176c0.563-0.597,1.533-0.895,2.91-0.895c1.447,0,2.447,0.234,2.998,0.703
			C284.51,32.778,284.788,33.675,284.788,35.002z"/>
		<path fill="#F2961C" d="M295.461,35.002v1.87h-2.383v-1.817c0-0.76-0.111-1.287-0.33-1.578c-0.22-0.292-0.607-0.438-1.166-0.438
			c-0.51,0-0.865,0.166-1.067,0.498s-0.302,1.028-0.302,2.089v12.109c0,1.087,0.106,1.795,0.32,2.122
			c0.213,0.327,0.604,0.491,1.174,0.491c0.485,0,0.836-0.155,1.049-0.464c0.215-0.31,0.32-0.835,0.32-1.578v-2.109h2.385v2.175
			c0,1.335-0.279,2.239-0.836,2.712c-0.559,0.473-1.555,0.71-2.989,0.71c-1.412,0-2.396-0.305-2.954-0.915
			c-0.559-0.61-0.836-1.747-0.836-3.409V35.89c0-1.653,0.279-2.781,0.836-3.382c0.557-0.601,1.542-0.901,2.954-0.901
			c1.446,0,2.446,0.234,2.997,0.703C295.187,32.778,295.461,33.675,295.461,35.002z"/>
		<path fill="#F2961C" d="M300.64,31.898h3.31l3.789,19.563h-2.438l-0.907-5.438h-4.306l-0.979,5.438h-2.384L300.64,31.898z
			 M302.206,33.344l-1.904,11.247h3.791l-1.779-11.247H302.206z"/>
		<path fill="#F2961C" d="M310.141,31.898h2.918c1.779,0,2.988,0.188,3.63,0.564s0.961,1.041,0.961,1.996v5.623
			c0,0.955-0.319,1.618-0.961,1.99c-0.64,0.372-1.851,0.557-3.63,0.557h-0.658v8.833h-2.26V31.898z M312.401,33.344v7.852h0.605
			c0.9,0,1.504-0.135,1.806-0.404c0.302-0.27,0.454-0.877,0.454-1.824v-3.395c0-0.946-0.15-1.554-0.454-1.824
			c-0.302-0.27-0.905-0.404-1.806-0.404L312.401,33.344L312.401,33.344z"/>
		<path fill="#F2961C" d="M321.849,31.898h3.31l3.789,19.563h-2.438l-0.907-5.438h-4.306l-0.979,5.438h-2.384L321.849,31.898z
			 M323.415,33.344l-1.904,11.247h3.789l-1.778-11.247H323.415z"/>
		<path fill="#F2961C" d="M338.858,35.002v1.87h-2.384v-1.817c0-0.76-0.11-1.287-0.329-1.578c-0.221-0.292-0.607-0.438-1.166-0.438
			c-0.51,0-0.866,0.166-1.068,0.498c-0.201,0.332-0.302,1.028-0.302,2.089v12.109c0,1.087,0.106,1.795,0.32,2.122
			c0.214,0.327,0.604,0.491,1.174,0.491c0.485,0,0.836-0.155,1.05-0.464c0.215-0.31,0.32-0.835,0.32-1.578v-2.109h2.384v2.175
			c0,1.335-0.278,2.239-0.836,2.712s-1.554,0.71-2.989,0.71c-1.412,0-2.396-0.305-2.953-0.915c-0.559-0.61-0.836-1.747-0.836-3.409
			V35.89c0-1.653,0.278-2.781,0.836-3.382c0.557-0.601,1.541-0.901,2.953-0.901c1.447,0,2.447,0.234,2.998,0.703
			C338.583,32.778,338.858,33.675,338.858,35.002z"/>
		<path fill="#F2961C" d="M341.812,31.898h2.401v19.563h-2.401V31.898z"/>
		<path fill="#F2961C" d="M348.217,31.898h2.65c2.242,0,3.707,0.263,4.396,0.79c0.688,0.526,1.032,1.73,1.032,3.614v10.756
			c0,1.875-0.351,3.077-1.051,3.607c-0.699,0.531-2.158,0.796-4.377,0.796h-2.65V31.898z M350.477,33.344v16.672h0.729
			c1.092,0,1.812-0.135,2.162-0.404c0.35-0.27,0.525-0.864,0.525-1.784V35.572c0-0.929-0.178-1.532-0.534-1.812
			c-0.356-0.279-1.073-0.418-2.153-0.418L350.477,33.344L350.477,33.344z"/>
		<path fill="#F2961C" d="M362.504,31.898h3.31l3.79,19.563h-2.438l-0.908-5.438h-4.305l-0.979,5.438h-2.384L362.504,31.898z
			 M364.07,33.344l-1.903,11.247h3.789l-1.778-11.247H364.07z"/>
		<path fill="#F2961C" d="M372.006,31.898h2.65c2.242,0,3.707,0.263,4.395,0.79c0.689,0.526,1.033,1.73,1.033,3.614v10.756
			c0,1.875-0.351,3.077-1.051,3.607c-0.699,0.531-2.158,0.796-4.377,0.796h-2.65V31.898z M374.266,33.344v16.672h0.729
			c1.092,0,1.812-0.135,2.162-0.404c0.35-0.27,0.525-0.864,0.525-1.784V35.572c0-0.929-0.178-1.532-0.534-1.812
			c-0.356-0.279-1.073-0.418-2.153-0.418L374.266,33.344L374.266,33.344z"/>
		<path fill="#F2961C" d="M387.627,31.898h2.402l2.366,8.913h0.196l2.135-8.913h2.33l-3.594,11.248v8.315h-2.295v-8.315
			L387.627,31.898z"/>
		<path fill="#F2961C" d="M404.762,31.898h2.65c2.242,0,3.707,0.263,4.395,0.79c0.689,0.526,1.033,1.73,1.033,3.614v10.756
			c0,1.875-0.35,3.077-1.051,3.607c-0.699,0.531-2.158,0.796-4.377,0.796h-2.65V31.898z M407.022,33.344v16.672h0.729
			c1.09,0,1.812-0.135,2.162-0.404c0.35-0.27,0.523-0.864,0.523-1.784V35.572c0-0.929-0.178-1.532-0.533-1.812
			c-0.355-0.279-1.074-0.418-2.152-0.418L407.022,33.344L407.022,33.344z"/>
		<path fill="#F2961C" d="M416.825,31.898h6.264v1.552h-4.004v7.043h3.826v1.539h-3.826v7.878h4.111v1.552h-6.371V31.898z"/>
		<path fill="#F2961C" d="M432.02,31.898h2.26v18.011h4.074v1.552h-6.334V31.898z"/>
		<path fill="#F2961C" d="M443.444,31.898h3.309l3.789,19.563h-2.438l-0.906-5.438h-4.307l-0.979,5.438h-2.385L443.444,31.898z
			 M445.008,33.344l-1.904,11.247h3.789l-1.777-11.247H445.008z"/>
		<path fill="#F2961C" d="M465.364,35.002v1.87h-2.367v-1.817c0-0.77-0.107-1.298-0.32-1.585c-0.213-0.287-0.592-0.431-1.139-0.431
			c-0.521,0-0.889,0.162-1.104,0.484c-0.213,0.323-0.318,0.896-0.318,1.718v0.955c0,0.398,0.074,0.807,0.221,1.227
			c0.148,0.42,0.365,0.816,0.65,1.188l2.953,3.886c0.498,0.654,0.859,1.271,1.086,1.851c0.225,0.58,0.338,1.178,0.338,1.797v1.326
			c0,1.698-0.289,2.843-0.863,3.436c-0.576,0.592-1.598,0.889-3.07,0.889c-1.434,0-2.434-0.239-2.998-0.716
			c-0.562-0.478-0.844-1.379-0.844-2.706v-2.175h2.383v2.109c0,0.796,0.107,1.335,0.32,1.618c0.213,0.283,0.605,0.424,1.174,0.424
			c0.582,0,0.982-0.162,1.201-0.484c0.219-0.323,0.33-1.032,0.33-2.129v-1.353c0-0.504-0.062-0.961-0.188-1.373
			c-0.125-0.412-0.305-0.785-0.543-1.121l-3.131-4.164c-0.439-0.558-0.773-1.088-1.006-1.592c-0.23-0.504-0.346-0.942-0.346-1.313
			V35.68c0-1.521,0.281-2.579,0.844-3.176c0.564-0.597,1.533-0.895,2.91-0.895c1.447,0,2.447,0.234,2.998,0.703
			C465.086,32.778,465.364,33.675,465.364,35.002z"/>
		<path fill="#F2961C" d="M470.754,31.898h3.309l3.789,19.563h-2.438l-0.906-5.438h-4.307l-0.979,5.438h-2.385L470.754,31.898z
			 M472.321,33.344l-1.904,11.247h3.789l-1.779-11.247H472.321z"/>
		<path fill="#F2961C" d="M480.254,31.898h2.26v18.011h4.074v1.552h-6.334V31.898z"/>
		<path fill="#F2961C" d="M488.67,31.898h2.367v15.836c0,1.017,0.129,1.702,0.391,2.056s0.723,0.53,1.389,0.53
			c0.65,0,1.105-0.177,1.359-0.53c0.256-0.354,0.383-1.039,0.383-2.056V31.898h2.365v15.571c0,1.68-0.301,2.821-0.906,3.422
			c-0.605,0.602-1.684,0.902-3.238,0.902c-1.529,0-2.598-0.305-3.203-0.915s-0.906-1.747-0.906-3.409V31.898L488.67,31.898z"/>
		<path fill="#F2961C" d="M500.913,31.898h2.65c2.242,0,3.707,0.263,4.395,0.79c0.688,0.526,1.033,1.73,1.033,3.614v10.756
			c0,1.875-0.352,3.077-1.051,3.607c-0.699,0.531-2.158,0.796-4.377,0.796h-2.65V31.898z M503.172,33.344v16.672h0.729
			c1.092,0,1.812-0.135,2.162-0.404c0.35-0.27,0.525-0.864,0.525-1.784V35.572c0-0.929-0.178-1.532-0.535-1.812
			c-0.355-0.279-1.072-0.418-2.152-0.418L503.172,33.344L503.172,33.344z"/>
		<path fill="#F2961C" d="M517.334,43.503h4.414V45.4h-4.414V43.503z"/>
		<path fill="#F2961C" d="M532.815,35.002v1.87h-2.385v-1.817c0-0.76-0.109-1.287-0.328-1.578c-0.221-0.292-0.609-0.438-1.166-0.438
			c-0.512,0-0.867,0.166-1.068,0.498c-0.203,0.332-0.303,1.028-0.303,2.089v12.109c0,1.087,0.107,1.795,0.32,2.122
			c0.213,0.327,0.605,0.491,1.174,0.491c0.486,0,0.836-0.155,1.051-0.464c0.213-0.31,0.318-0.835,0.318-1.578v-2.109h2.385v2.175
			c0,1.335-0.279,2.239-0.836,2.712c-0.559,0.473-1.555,0.71-2.988,0.71c-1.412,0-2.396-0.305-2.955-0.915
			c-0.557-0.61-0.836-1.747-0.836-3.409V35.89c0-1.653,0.279-2.781,0.836-3.382c0.557-0.601,1.543-0.901,2.955-0.901
			c1.447,0,2.447,0.234,2.998,0.703C532.54,32.778,532.815,33.675,532.815,35.002z"/>
		<path fill="#F2961C" d="M535.768,31.898h2.402v19.563h-2.402V31.898z"/>
		<path fill="#F2961C" d="M542.172,31.898h6.086v1.552h-3.826v7.096h3.684v1.538h-3.684v9.377h-2.26V31.898z"/>
		<path fill="#F2961C" d="M549.825,43.503h4.412V45.4h-4.412V43.503z"/>
	</g>
</g>
</svg>
