<?xml version="1.0" encoding="utf-8"?>
<!-- Generator: Adobe Illustrator 16.0.0, SVG Export Plug-In . SVG Version: 6.00 Build 0)  -->
<!DOCTYPE svg PUBLIC "-//W3C//DTD SVG 1.1//EN" "http://www.w3.org/Graphics/SVG/1.1/DTD/svg11.dtd">
<svg version="1.1" id="Capa_1" xmlns="http://www.w3.org/2000/svg" xmlns:xlink="http://www.w3.org/1999/xlink" x="0px" y="0px"
	 width="564.996px" height="321.781px" viewBox="0 0 564.996 321.781" enable-background="new 0 0 564.996 321.781"
	 xml:space="preserve">
<g>
	<g>
		<path fill="#F2961C" d="M2.046,3.796h6.263v1.552H4.306v7.043h3.825v1.539H4.306v7.878h4.11v1.552h-6.37V3.796z"/>
		<path fill="#F2961C" d="M11.672,3.796h2.26v18.012h4.074v1.552h-6.334V3.796z"/>
		<path fill="#F2961C" d="M25.763,3.796h6.263v1.552h-4.003v7.043h3.825v1.539h-3.825v7.878h4.11v1.552h-6.37V3.796z"/>
		<path fill="#F2961C" d="M35.389,3.796h3.096l3.754,18.396h0.036L41.937,3.796h2.046v19.563h-3.131L37.133,5.215h-0.071
			l0.32,18.144h-1.993V3.796z"/>
		<path fill="#F2961C" d="M48.04,3.796h6.085v1.552H50.3v7.096h3.683v1.539H50.3v9.377h-2.26V3.796z"/>
		<path fill="#F2961C" d="M65.049,7.788v11.579c0,1.68-0.302,2.82-0.907,3.422c-0.605,0.601-1.684,0.902-3.238,0.902
			c-1.53,0-2.598-0.305-3.203-0.915s-0.907-1.747-0.907-3.409V7.788c0-1.645,0.305-2.77,0.916-3.375s1.687-0.909,3.229-0.909
			s2.613,0.301,3.212,0.902C64.75,5.008,65.049,6.135,65.049,7.788z M62.683,7.523c0-0.99-0.131-1.669-0.391-2.036
			c-0.261-0.367-0.724-0.551-1.388-0.551c-0.653,0-1.106,0.18-1.361,0.538S59.16,6.515,59.16,7.523v12.109
			c0,1.017,0.13,1.703,0.391,2.056c0.261,0.354,0.723,0.53,1.388,0.53c0.652,0,1.106-0.177,1.361-0.53
			c0.255-0.354,0.382-1.039,0.382-2.056L62.683,7.523L62.683,7.523z"/>
		<path fill="#F2961C" d="M68.928,7.788c0-1.653,0.299-2.78,0.898-3.382c0.599-0.601,1.669-0.902,3.212-0.902
			c1.542,0,2.618,0.303,3.229,0.909c0.611,0.605,0.916,1.73,0.916,3.375v11.579c0,1.008-0.107,1.691-0.32,2.049
			c-0.213,0.358-0.587,0.661-1.121,0.909l0.071,0.079c0.415-0.168,0.827-0.296,1.237-0.385c0.409-0.088,0.798-0.132,1.165-0.132
			h0.391v1.472c-0.712,0.009-1.684,0.046-2.918,0.113c-1.234,0.066-2.117,0.099-2.651,0.099c-1.59,0-2.672-0.278-3.247-0.835
			c-0.575-0.558-0.863-1.68-0.863-3.369V7.788H68.928z M71.295,7.523v12.109c0,1.017,0.13,1.703,0.391,2.056
			c0.261,0.354,0.723,0.53,1.388,0.53c0.652,0,1.106-0.177,1.361-0.53c0.255-0.354,0.382-1.039,0.382-2.056V7.523
			c0-0.99-0.131-1.669-0.391-2.036c-0.261-0.367-0.724-0.551-1.388-0.551c-0.653,0-1.106,0.18-1.361,0.538
			C71.422,5.832,71.295,6.515,71.295,7.523z"/>
		<path fill="#F2961C" d="M81.063,3.796h2.366v15.836c0,1.017,0.13,1.703,0.391,2.056c0.261,0.354,0.723,0.53,1.388,0.53
			c0.652,0,1.106-0.177,1.361-0.53c0.255-0.354,0.382-1.039,0.382-2.056V3.796h2.366v15.571c0,1.68-0.302,2.82-0.907,3.422
			c-0.605,0.601-1.684,0.902-3.238,0.902c-1.53,0-2.598-0.305-3.203-0.915c-0.605-0.61-0.907-1.747-0.907-3.409L81.063,3.796
			L81.063,3.796z"/>
		<path fill="#F2961C" d="M93.304,3.796h6.263v1.552h-4.003v7.043h3.825v1.539h-3.825v7.878h4.11v1.552h-6.37V3.796z"/>
		<path fill="#F2961C" d="M108.499,3.796h3.452c1.779,0,2.983,0.186,3.612,0.558c0.628,0.371,0.943,1.039,0.943,2.002v4.43
			c0,0.813-0.208,1.388-0.623,1.724c-0.415,0.336-1.151,0.54-2.206,0.61c1.127,0.053,1.909,0.248,2.348,0.584
			s0.658,0.919,0.658,1.75V20.8c0,0.964-0.314,1.631-0.943,2.002c-0.629,0.371-1.833,0.557-3.612,0.557h-3.63L108.499,3.796
			L108.499,3.796z M110.759,5.242v7.148h0.801c1.032,0,1.72-0.135,2.064-0.404c0.344-0.27,0.516-0.869,0.516-1.797V7.47
			c0-0.937-0.172-1.543-0.516-1.817c-0.344-0.274-1.032-0.411-2.064-0.411H110.759z M110.759,13.85v8.064h0.836
			c1.091,0,1.812-0.134,2.162-0.404c0.35-0.27,0.525-0.864,0.525-1.784v-3.674c0-0.919-0.175-1.516-0.525-1.791
			c-0.35-0.274-1.071-0.411-2.162-0.411H110.759z"/>
		<path fill="#F2961C" d="M120.633,3.796h2.402v19.563h-2.402V3.796z"/>
		<path fill="#F2961C" d="M135.188,7.788v11.579c0,1.68-0.302,2.82-0.907,3.422c-0.605,0.601-1.684,0.902-3.238,0.902
			c-1.53,0-2.598-0.305-3.203-0.915s-0.907-1.747-0.907-3.409V7.788c0-1.645,0.305-2.77,0.916-3.375
			c0.611-0.605,1.687-0.909,3.229-0.909s2.613,0.301,3.212,0.902C134.888,5.008,135.188,6.135,135.188,7.788z M132.821,7.523
			c0-0.99-0.131-1.669-0.391-2.036c-0.261-0.367-0.724-0.551-1.388-0.551c-0.653,0-1.106,0.18-1.361,0.538
			c-0.255,0.358-0.382,1.041-0.382,2.049v12.109c0,1.017,0.13,1.703,0.391,2.056c0.261,0.354,0.723,0.53,1.388,0.53
			c0.652,0,1.106-0.177,1.361-0.53c0.255-0.354,0.382-1.039,0.382-2.056V7.523z"/>
		<path fill="#F2961C" d="M139.173,3.796h2.918c1.779,0,2.989,0.188,3.63,0.564c0.641,0.376,0.961,1.042,0.961,1.996v5.624
			c0,0.955-0.32,1.618-0.961,1.989c-0.64,0.372-1.85,0.558-3.63,0.558h-0.658v8.833h-2.26V3.796z M141.433,5.242v7.852h0.605
			c0.901,0,1.504-0.135,1.806-0.404c0.302-0.27,0.454-0.878,0.454-1.824V7.47c0-0.946-0.151-1.554-0.454-1.824
			c-0.302-0.27-0.905-0.404-1.806-0.404H141.433z"/>
		<path fill="#F2961C" d="M156.307,6.9v1.87h-2.366V6.953c0-0.77-0.107-1.298-0.32-1.585c-0.213-0.288-0.593-0.432-1.139-0.432
			c-0.522,0-0.89,0.162-1.103,0.484c-0.214,0.323-0.32,0.896-0.32,1.718v0.955c0,0.397,0.074,0.807,0.222,1.227
			c0.148,0.42,0.365,0.815,0.649,1.187l2.954,3.886c0.498,0.654,0.86,1.271,1.085,1.85c0.225,0.58,0.338,1.178,0.338,1.797v1.326
			c0,1.698-0.288,2.843-0.863,3.435c-0.575,0.592-1.598,0.889-3.069,0.889c-1.435,0-2.435-0.239-2.998-0.716
			c-0.563-0.478-0.845-1.379-0.845-2.706v-2.175h2.384v2.109c0,0.796,0.107,1.335,0.32,1.618c0.213,0.283,0.605,0.424,1.174,0.424
			c0.581,0,0.981-0.161,1.201-0.484c0.219-0.323,0.329-1.032,0.329-2.129v-1.353c0-0.504-0.062-0.961-0.187-1.373
			c-0.125-0.411-0.305-0.785-0.543-1.121l-3.131-4.165c-0.439-0.557-0.774-1.087-1.005-1.591c-0.231-0.504-0.347-0.942-0.347-1.313
			V7.576c0-1.521,0.282-2.58,0.845-3.177s1.533-0.895,2.909-0.895c1.447,0,2.447,0.234,2.998,0.703
			C156.031,4.676,156.307,5.573,156.307,6.9z"/>
		<path fill="#F2961C" d="M159.474,3.796h2.402v19.563h-2.402V3.796z"/>
		<path fill="#F2961C" d="M173.388,6.9v1.87h-2.384V6.953c0-0.761-0.11-1.287-0.329-1.579c-0.22-0.292-0.608-0.438-1.166-0.438
			c-0.51,0-0.866,0.166-1.068,0.498c-0.202,0.331-0.302,1.027-0.302,2.089v12.109c0,1.087,0.107,1.795,0.32,2.123
			c0.214,0.327,0.605,0.49,1.174,0.49c0.486,0,0.836-0.154,1.05-0.464c0.214-0.31,0.32-0.836,0.32-1.579v-2.109h2.384v2.175
			c0,1.335-0.279,2.24-0.836,2.712c-0.558,0.473-1.554,0.709-2.989,0.709c-1.412,0-2.396-0.305-2.954-0.915
			s-0.836-1.747-0.836-3.409V7.788c0-1.653,0.279-2.78,0.836-3.382c0.557-0.601,1.542-0.902,2.954-0.902
			c1.447,0,2.447,0.234,2.998,0.703C173.112,4.676,173.388,5.573,173.388,6.9z"/>
		<path fill="#F2961C" d="M184.49,7.788v11.579c0,1.68-0.302,2.82-0.907,3.422c-0.605,0.601-1.684,0.902-3.238,0.902
			c-1.53,0-2.598-0.305-3.203-0.915s-0.907-1.747-0.907-3.409V7.788c0-1.645,0.305-2.77,0.916-3.375
			c0.611-0.605,1.687-0.909,3.229-0.909s2.613,0.301,3.212,0.902C184.191,5.008,184.49,6.135,184.49,7.788z M182.124,7.523
			c0-0.99-0.131-1.669-0.391-2.036c-0.261-0.367-0.724-0.551-1.388-0.551c-0.653,0-1.106,0.18-1.361,0.538s-0.382,1.041-0.382,2.049
			v12.109c0,1.017,0.13,1.703,0.391,2.056c0.261,0.354,0.723,0.53,1.388,0.53c0.652,0,1.106-0.177,1.361-0.53
			c0.255-0.354,0.382-1.039,0.382-2.056V7.523z"/>
		<path fill="#F2961C" d="M195.326,6.9v1.87h-2.366V6.953c0-0.77-0.107-1.298-0.32-1.585c-0.213-0.288-0.593-0.432-1.139-0.432
			c-0.522,0-0.89,0.162-1.103,0.484c-0.214,0.323-0.32,0.896-0.32,1.718v0.955c0,0.397,0.074,0.807,0.222,1.227
			c0.148,0.42,0.365,0.815,0.649,1.187l2.954,3.886c0.498,0.654,0.86,1.271,1.085,1.85c0.225,0.58,0.338,1.178,0.338,1.797v1.326
			c0,1.698-0.288,2.843-0.863,3.435c-0.575,0.592-1.598,0.889-3.069,0.889c-1.435,0-2.435-0.239-2.998-0.716
			c-0.563-0.478-0.845-1.379-0.845-2.706v-2.175h2.384v2.109c0,0.796,0.107,1.335,0.32,1.618c0.213,0.283,0.605,0.424,1.174,0.424
			c0.581,0,0.981-0.161,1.201-0.484c0.219-0.323,0.329-1.032,0.329-2.129v-1.353c0-0.504-0.062-0.961-0.187-1.373
			c-0.125-0.411-0.305-0.785-0.543-1.121l-3.131-4.165c-0.439-0.557-0.774-1.087-1.005-1.591c-0.231-0.504-0.347-0.942-0.347-1.313
			V7.576c0-1.521,0.282-2.58,0.845-3.177s1.533-0.895,2.909-0.895c1.447,0,2.447,0.234,2.998,0.703
			C195.05,4.676,195.326,5.573,195.326,6.9z"/>
		<path fill="#F2961C" d="M206.642,7.788v11.579c0,1.68-0.302,2.82-0.907,3.422c-0.605,0.601-1.684,0.902-3.238,0.902
			c-1.53,0-2.598-0.305-3.203-0.915s-0.907-1.747-0.907-3.409V7.788c0-1.645,0.305-2.77,0.916-3.375
			c0.611-0.605,1.687-0.909,3.229-0.909s2.613,0.301,3.212,0.902C206.343,5.008,206.642,6.135,206.642,7.788z M204.276,7.523
			c0-0.99-0.131-1.669-0.391-2.036c-0.261-0.367-0.724-0.551-1.388-0.551c-0.653,0-1.106,0.18-1.361,0.538
			c-0.255,0.358-0.382,1.041-0.382,2.049v12.109c0,1.017,0.13,1.703,0.391,2.056c0.261,0.354,0.723,0.53,1.388,0.53
			c0.652,0,1.106-0.177,1.361-0.53c0.255-0.354,0.382-1.039,0.382-2.056V7.523z"/>
		<path fill="#F2961C" d="M218.136,6.9v1.87h-2.384V6.953c0-0.761-0.11-1.287-0.329-1.579c-0.22-0.292-0.608-0.438-1.166-0.438
			c-0.51,0-0.866,0.166-1.068,0.498c-0.202,0.331-0.302,1.027-0.302,2.089v12.109c0,1.087,0.107,1.795,0.32,2.123
			c0.214,0.327,0.605,0.49,1.174,0.49c0.486,0,0.836-0.154,1.05-0.464c0.214-0.31,0.32-0.836,0.32-1.579v-2.109h2.384v2.175
			c0,1.335-0.279,2.24-0.836,2.712c-0.558,0.473-1.554,0.709-2.989,0.709c-1.412,0-2.396-0.305-2.954-0.915
			s-0.836-1.747-0.836-3.409V7.788c0-1.653,0.279-2.78,0.836-3.382c0.557-0.601,1.542-0.902,2.954-0.902
			c1.447,0,2.447,0.234,2.998,0.703C217.86,4.676,218.136,5.573,218.136,6.9z"/>
		<path fill="#F2961C" d="M221.09,3.796h2.402v19.563h-2.402V3.796z"/>
		<path fill="#F2961C" d="M229.719,3.796h3.309l3.79,19.563h-2.438l-0.907-5.438h-4.306l-0.979,5.438h-2.384L229.719,3.796z
			 M231.285,5.242l-1.904,11.247h3.79l-1.779-11.247H231.285z"/>
		<path fill="#F2961C" d="M239.22,3.796h2.26v18.012h4.074v1.552h-6.334V3.796z"/>
	</g>
	<polygon fill="#F2961C" points="2.874,119.233 5.995,152.863 46.805,147.896 49.307,119.233 	"/>
	<g>
		<g>
			<path fill="#331842" d="M30.499,123.295v23.179H22.74v-12.427c0-1.794-0.058-2.873-0.173-3.235
				c-0.115-0.363-0.432-0.638-0.951-0.823c-0.519-0.188-1.674-0.279-3.467-0.279h-0.768v-2.703c3.751-0.602,6.6-1.839,8.547-3.711
				L30.499,123.295L30.499,123.295z"/>
		</g>
	</g>
	<polygon fill="#F2961C" points="2.874,160.636 5.995,194.268 46.805,189.299 49.307,160.636 	"/>
	<g>
		<g>
			<path fill="#331842" d="M32.881,183.926v3.952H15.806l0.005-3.308c5.058-6.166,8.063-9.981,9.017-11.446s1.431-2.608,1.431-3.429
				c0-0.631-0.144-1.101-0.433-1.41c-0.289-0.311-0.728-0.465-1.318-0.465c-0.59,0-1.029,0.172-1.317,0.516
				c-0.289,0.344-0.433,1.025-0.433,2.047v2.205h-6.953v-0.845c0-1.298,0.089-2.321,0.269-3.071
				c0.179-0.749,0.621-1.486,1.325-2.212s1.62-1.274,2.747-1.646c1.126-0.373,2.478-0.559,4.052-0.559
				c3.086,0,5.419,0.571,7.001,1.711c1.581,1.141,2.372,2.584,2.372,4.331c0,1.327-0.445,2.729-1.335,4.209
				c-0.89,1.479-3.512,4.62-7.865,9.421h8.51V183.926z"/>
		</g>
	</g>
	<polygon fill="#F2961C" points="2.874,202.04 5.995,235.67 46.805,230.703 49.307,202.04 	"/>
	<g>
		<g>
			<path fill="#331842" d="M30.173,216.146c1.178,0.295,2.055,0.779,2.631,1.453c0.576,0.674,0.864,2.252,0.864,4.734
				c0,1.843-0.282,3.273-0.845,4.29c-0.564,1.017-1.537,1.79-2.919,2.319c-1.382,0.531-3.156,0.795-5.32,0.795
				c-2.458,0-4.389-0.307-5.791-0.922s-2.324-1.371-2.766-2.262c-0.442-0.894-0.663-2.441-0.663-4.646v-1.833h7.76v3.766
				c0,1.002,0.08,1.64,0.24,1.911c0.16,0.271,0.515,0.408,1.066,0.408c0.602,0,0.999-0.172,1.191-0.516
				c0.192-0.345,0.288-1.24,0.288-2.691v-1.604c0-0.889-0.135-1.537-0.403-1.947c-0.269-0.41-0.666-0.68-1.191-0.81
				c-0.525-0.129-1.543-0.202-3.054-0.222v-3.365c1.844,0,2.983-0.052,3.419-0.156c0.435-0.105,0.749-0.334,0.941-0.688
				c0.192-0.353,0.288-0.906,0.288-1.661v-1.289c0-0.811-0.112-1.346-0.336-1.604c-0.224-0.258-0.573-0.388-1.047-0.388
				c-0.538,0-0.906,0.136-1.104,0.408c-0.199,0.272-0.298,0.853-0.298,1.74v1.903h-7.76v-1.976c0-2.214,0.678-3.71,2.036-4.487
				c1.357-0.779,3.515-1.168,6.473-1.168c3.7,0,6.21,0.539,7.529,1.617c1.319,1.078,1.978,2.576,1.978,4.493
				c0,1.297-0.237,2.233-0.71,2.812C32.196,215.143,31.364,215.668,30.173,216.146z"/>
		</g>
	</g>
	<polygon fill="#F2961C" points="2.874,243.443 5.995,277.074 46.805,272.105 49.307,243.443 	"/>
	<g>
		<g>
			<path fill="#331842" d="M32.026,247.505v15.147h2.209v3.951h-2.209v4.08h-7.76v-4.08h-9.219v-3.951l6.703-15.147H32.026z
				 M24.267,262.652v-9.864l-3.428,9.864H24.267z"/>
		</g>
	</g>
	<polygon fill="#F2961C" points="2.874,284.846 5.995,318.477 46.805,313.51 49.307,284.846 	"/>
	<g>
		<g>
			<path fill="#331842" d="M32.41,288.909v3.708h-9.623v3.938c1.203-1.06,2.753-1.59,4.648-1.59c2.138,0,3.755,0.446,4.85,1.34
				c1.095,0.893,1.642,2.607,1.642,5.146v3.308c0,1.643-0.106,2.848-0.317,3.615c-0.211,0.769-0.663,1.479-1.354,2.133
				s-1.655,1.155-2.89,1.503c-1.236,0.349-2.744,0.523-4.523,0.523c-1.998,0-3.758-0.261-5.282-0.78
				c-1.524-0.521-2.606-1.296-3.246-2.327c-0.64-1.03-0.96-2.625-0.96-4.78v-1.261h7.76v1.446c0,1.499,0.07,2.562,0.211,3.193
				c0.141,0.63,0.627,0.944,1.46,0.944c0.384,0,0.694-0.09,0.931-0.271c0.237-0.183,0.365-0.377,0.384-0.587
				c0.019-0.209,0.041-1.122,0.067-2.735v-4.596c0-0.868-0.122-1.461-0.365-1.775c-0.243-0.314-0.646-0.472-1.21-0.472
				c-0.359,0-0.66,0.082-0.903,0.243c-0.243,0.162-0.4,0.336-0.471,0.522c-0.07,0.187-0.105,0.618-0.105,1.296h-7.683l0.326-11.683
				H32.41V288.909z"/>
		</g>
	</g>
	<polygon fill="#F2961C" points="64.105,119.26 66.621,321.484 481.773,310.979 469.003,117.333 	"/>
</g>
</svg>
