<?xml version="1.0" encoding="utf-8"?>
<!-- Generator: Adobe Illustrator 16.0.0, SVG Export Plug-In . SVG Version: 6.00 Build 0)  -->
<!DOCTYPE svg PUBLIC "-//W3C//DTD SVG 1.1//EN" "http://www.w3.org/Graphics/SVG/1.1/DTD/svg11.dtd">
<svg version="1.1" id="Capa_1" xmlns="http://www.w3.org/2000/svg" xmlns:xlink="http://www.w3.org/1999/xlink" x="0px" y="0px"
	 width="178.462px" height="180.838px" viewBox="0 0 178.462 180.838" enable-background="new 0 0 178.462 180.838"
	 xml:space="preserve">
<g>
	<polygon opacity="0.7" fill="#FFFFFF" points="0,3.967 178.462,0 178.462,57.79 22.82,57.762 	"/>
	<polygon opacity="0.7" fill="#FFFFFF" points="0,65.491 178.462,61.524 178.462,119.314 22.82,119.286 	"/>
	<polygon opacity="0.7" fill="#FFFFFF" points="0,127.016 178.462,123.049 178.462,180.838 22.82,180.812 	"/>
	<g>
		<g>
			<path fill="#331842" d="M43.731,12.999h2.994l1.938,13.714h0.136l1.896-13.714h2.913v14.896h-1.504V14.12h-0.271l-1.951,13.775
				H47.47L45.451,14.12h-0.23v13.775h-1.49V12.999z"/>
			<path fill="#331842" d="M62.915,16.039v8.816c0,1.279-0.23,2.148-0.691,2.605c-0.461,0.458-1.283,0.687-2.466,0.687
				c-1.165,0-1.978-0.232-2.438-0.697c-0.461-0.464-0.691-1.329-0.691-2.595v-8.816c0-1.252,0.232-2.109,0.698-2.57
				c0.465-0.461,1.285-0.692,2.459-0.692c1.174,0,1.989,0.229,2.445,0.687S62.915,14.779,62.915,16.039z M61.112,15.837
				c0-0.754-0.099-1.271-0.298-1.551c-0.199-0.279-0.551-0.419-1.057-0.419c-0.497,0-0.842,0.137-1.036,0.409
				c-0.194,0.272-0.292,0.793-0.292,1.561v9.22c0,0.774,0.099,1.296,0.298,1.565c0.198,0.27,0.551,0.404,1.057,0.404
				c0.496,0,0.842-0.135,1.036-0.404c0.194-0.269,0.291-0.791,0.291-1.565V15.837z"/>
			<path fill="#331842" d="M65.949,12.999h2.019c1.707,0,2.822,0.2,3.347,0.601c0.523,0.4,0.786,1.318,0.786,2.752v8.19
				c0,1.427-0.267,2.343-0.799,2.747c-0.533,0.404-1.644,0.605-3.333,0.605h-2.019V12.999z M67.67,14.1v12.694h0.556
				c0.831,0,1.379-0.103,1.646-0.308c0.267-0.206,0.4-0.658,0.4-1.358v-9.332c0-0.707-0.135-1.166-0.406-1.378
				c-0.271-0.212-0.818-0.318-1.639-0.318H67.67z"/>
			<path fill="#331842" d="M75.135,12.999h4.769v1.182h-3.048v5.362h2.913v1.171h-2.913v5.999h3.129v1.182h-4.85V12.999z"/>
			<path fill="#331842" d="M82.464,12.999h1.721v13.714h3.103v1.182h-4.823V12.999z"/>
			<path fill="#331842" d="M95.158,16.039v8.816c0,1.279-0.23,2.148-0.69,2.605c-0.461,0.458-1.283,0.687-2.466,0.687
				c-1.165,0-1.979-0.232-2.438-0.697c-0.461-0.464-0.691-1.329-0.691-2.595v-8.816c0-1.252,0.232-2.109,0.698-2.57
				c0.465-0.461,1.285-0.692,2.459-0.692s1.989,0.229,2.445,0.687S95.158,14.779,95.158,16.039z M93.356,15.837
				c0-0.754-0.1-1.271-0.298-1.551c-0.199-0.279-0.551-0.419-1.057-0.419c-0.497,0-0.843,0.137-1.037,0.409
				c-0.194,0.272-0.292,0.793-0.292,1.561v9.22c0,0.774,0.1,1.296,0.298,1.565c0.199,0.27,0.551,0.404,1.057,0.404
				c0.497,0,0.842-0.135,1.037-0.404c0.194-0.269,0.291-0.791,0.291-1.565V15.837z"/>
			<path fill="#331842" d="M103.409,15.362v1.424h-1.802v-1.384c0-0.586-0.081-0.988-0.244-1.207s-0.452-0.328-0.867-0.328
				c-0.397,0-0.677,0.123-0.84,0.369s-0.244,0.682-0.244,1.308v0.727c0,0.303,0.057,0.615,0.169,0.935s0.278,0.621,0.495,0.904
				l2.249,2.959c0.379,0.499,0.654,0.968,0.826,1.409c0.172,0.441,0.258,0.897,0.258,1.368v1.01c0,1.292-0.219,2.165-0.657,2.616
				c-0.438,0.451-1.217,0.677-2.337,0.677c-1.093,0-1.854-0.182-2.283-0.546c-0.429-0.363-0.644-1.05-0.644-2.06v-1.656h1.815v1.605
				c0,0.606,0.082,1.017,0.244,1.232c0.163,0.215,0.46,0.323,0.894,0.323c0.442,0,0.748-0.123,0.915-0.369
				c0.167-0.246,0.25-0.786,0.25-1.621v-1.03c0-0.384-0.047-0.732-0.142-1.045c-0.095-0.313-0.232-0.597-0.413-0.854l-2.385-3.171
				c-0.334-0.424-0.589-0.828-0.766-1.212c-0.176-0.384-0.264-0.717-0.264-1v-0.868c0-1.158,0.214-1.964,0.644-2.419
				c0.429-0.454,1.167-0.682,2.215-0.682c1.102,0,1.863,0.179,2.283,0.535C103.199,13.669,103.409,14.352,103.409,15.362z"/>
			<path fill="#331842" d="M115.277,15.362v1.424h-1.802v-1.384c0-0.586-0.081-0.988-0.243-1.207
				c-0.163-0.219-0.452-0.328-0.867-0.328c-0.397,0-0.678,0.123-0.84,0.369c-0.163,0.246-0.244,0.682-0.244,1.308v0.727
				c0,0.303,0.056,0.615,0.169,0.935c0.113,0.32,0.278,0.621,0.495,0.904l2.249,2.959c0.379,0.499,0.654,0.968,0.826,1.409
				c0.171,0.441,0.257,0.897,0.257,1.368v1.01c0,1.292-0.219,2.165-0.657,2.616c-0.438,0.451-1.218,0.677-2.337,0.677
				c-1.093,0-1.854-0.182-2.283-0.546c-0.429-0.363-0.644-1.05-0.644-2.06v-1.656h1.815v1.605c0,0.606,0.081,1.017,0.244,1.232
				c0.162,0.215,0.46,0.323,0.894,0.323c0.442,0,0.748-0.123,0.915-0.369c0.167-0.246,0.25-0.786,0.25-1.621v-1.03
				c0-0.384-0.047-0.732-0.142-1.045c-0.095-0.313-0.233-0.597-0.414-0.854l-2.384-3.171c-0.334-0.424-0.589-0.828-0.766-1.212
				c-0.176-0.384-0.264-0.717-0.264-1v-0.868c0-1.158,0.214-1.964,0.644-2.419c0.429-0.454,1.167-0.682,2.215-0.682
				c1.102,0,1.862,0.179,2.283,0.535C115.067,13.669,115.277,14.352,115.277,15.362z"/>
			<path fill="#331842" d="M123.894,16.039v8.816c0,1.279-0.23,2.148-0.691,2.605c-0.46,0.458-1.282,0.687-2.466,0.687
				c-1.165,0-1.978-0.232-2.438-0.697c-0.46-0.464-0.69-1.329-0.69-2.595v-8.816c0-1.252,0.232-2.109,0.697-2.57
				c0.465-0.461,1.285-0.692,2.459-0.692s1.989,0.229,2.445,0.687S123.894,14.779,123.894,16.039z M122.091,15.837
				c0-0.754-0.099-1.271-0.298-1.551c-0.199-0.279-0.551-0.419-1.057-0.419c-0.497,0-0.842,0.137-1.036,0.409
				s-0.291,0.793-0.291,1.561v9.22c0,0.774,0.099,1.296,0.298,1.565c0.198,0.27,0.551,0.404,1.057,0.404
				c0.497,0,0.842-0.135,1.036-0.404c0.194-0.269,0.292-0.791,0.292-1.565V15.837z"/>
			<path fill="#331842" d="M126.928,12.999h2.628c1.355,0,2.271,0.141,2.75,0.424c0.479,0.283,0.718,0.791,0.718,1.525v3.374
				c0,0.619-0.158,1.057-0.474,1.312c-0.316,0.256-0.876,0.411-1.68,0.465c0.858,0.04,1.454,0.188,1.789,0.444
				c0.334,0.256,0.501,0.7,0.501,1.333v4.069c0,0.734-0.24,1.242-0.718,1.525c-0.479,0.283-1.396,0.424-2.75,0.424h-2.764V12.999z
				 M128.648,14.1v5.443h0.609c0.786,0,1.31-0.103,1.572-0.308s0.393-0.662,0.393-1.369v-2.07c0-0.713-0.131-1.175-0.393-1.383
				s-0.786-0.313-1.572-0.313H128.648z M128.648,20.654v6.14h0.637c0.831,0,1.38-0.103,1.646-0.308c0.266-0.206,0.4-0.658,0.4-1.358
				V22.33c0-0.7-0.134-1.154-0.4-1.363c-0.266-0.208-0.815-0.313-1.646-0.313H128.648z"/>
			<path fill="#331842" d="M136.167,12.999h2.628c1.354,0,2.271,0.141,2.75,0.424s0.718,0.791,0.718,1.525v3.374
				c0,0.619-0.158,1.057-0.474,1.312c-0.316,0.256-0.876,0.411-1.68,0.465c0.858,0.04,1.454,0.188,1.789,0.444
				c0.334,0.256,0.501,0.7,0.501,1.333v6.019h-1.829V22.33c0-0.7-0.133-1.154-0.399-1.363c-0.267-0.208-0.815-0.313-1.646-0.313
				h-0.637v7.241h-1.72V12.999z M137.888,14.1v5.443h0.61c0.786,0,1.31-0.103,1.572-0.308c0.262-0.206,0.393-0.662,0.393-1.369
				v-2.07c0-0.713-0.131-1.175-0.393-1.383c-0.262-0.208-0.786-0.313-1.572-0.313H137.888z"/>
			<path fill="#331842" d="M145.407,12.999h4.769v1.182h-3.048v5.362h2.913v1.171h-2.913v5.999h3.129v1.182h-4.85V12.999z"/>
			<path fill="#331842" d="M50.796,30.234h2.019c1.707,0,2.822,0.2,3.347,0.601c0.523,0.401,0.786,1.318,0.786,2.752v8.19
				c0,1.428-0.267,2.343-0.799,2.747c-0.533,0.404-1.644,0.606-3.333,0.606h-2.019V30.234z M52.517,31.335v12.694h0.556
				c0.831,0,1.379-0.103,1.646-0.308c0.267-0.205,0.4-0.658,0.4-1.358v-9.332c0-0.707-0.135-1.167-0.406-1.378
				s-0.818-0.318-1.639-0.318H52.517z"/>
			<path fill="#331842" d="M59.981,30.234h1.829V45.13h-1.829V30.234z"/>
			<path fill="#331842" d="M70.074,32.598v1.424h-1.802v-1.384c0-0.585-0.081-0.988-0.244-1.207s-0.452-0.329-0.867-0.329
				c-0.397,0-0.677,0.123-0.84,0.369c-0.163,0.246-0.244,0.682-0.244,1.308v0.727c0,0.303,0.056,0.615,0.169,0.934
				c0.113,0.32,0.278,0.621,0.495,0.904l2.249,2.959c0.379,0.498,0.655,0.968,0.827,1.408c0.171,0.441,0.257,0.897,0.257,1.369v1.01
				c0,1.292-0.219,2.164-0.657,2.615s-1.217,0.677-2.337,0.677c-1.093,0-1.854-0.182-2.282-0.545c-0.43-0.364-0.644-1.05-0.644-2.06
				v-1.656h1.815v1.605c0,0.606,0.081,1.017,0.244,1.232c0.163,0.215,0.46,0.323,0.894,0.323c0.442,0,0.747-0.123,0.915-0.369
				c0.167-0.245,0.25-0.786,0.25-1.621v-1.03c0-0.384-0.047-0.732-0.142-1.045c-0.095-0.313-0.233-0.597-0.414-0.854l-2.384-3.171
				c-0.334-0.424-0.59-0.828-0.766-1.212c-0.176-0.384-0.265-0.717-0.265-1v-0.869c0-1.158,0.215-1.964,0.644-2.418
				c0.429-0.455,1.167-0.682,2.215-0.682c1.102,0,1.863,0.178,2.283,0.535S70.074,31.588,70.074,32.598z"/>
			<path fill="#331842" d="M78.203,32.598v1.424h-1.815v-1.384c0-0.579-0.083-0.979-0.25-1.202
				c-0.167-0.222-0.463-0.333-0.887-0.333c-0.389,0-0.66,0.126-0.813,0.379c-0.153,0.253-0.23,0.783-0.23,1.591v9.22
				c0,0.828,0.082,1.367,0.244,1.616c0.163,0.249,0.461,0.374,0.895,0.374c0.37,0,0.637-0.118,0.799-0.354
				c0.163-0.235,0.244-0.637,0.244-1.202v-1.605h1.815v1.656c0,1.017-0.212,1.705-0.637,2.065c-0.425,0.36-1.184,0.54-2.276,0.54
				c-1.075,0-1.824-0.232-2.249-0.697c-0.425-0.464-0.637-1.33-0.637-2.595v-8.816c0-1.259,0.212-2.118,0.637-2.575
				c0.424-0.458,1.174-0.687,2.249-0.687c1.102,0,1.863,0.178,2.283,0.535S78.203,31.588,78.203,32.598z"/>
			<path fill="#331842" d="M82.146,30.234h2.521l2.885,14.896h-1.856l-0.691-4.141h-3.279L80.98,45.13h-1.815L82.146,30.234z
				 M83.338,31.335l-1.449,8.564h2.885l-1.355-8.564H83.338z"/>
			<path fill="#331842" d="M89.38,30.234h2.222c1.355,0,2.276,0.143,2.764,0.429c0.487,0.286,0.731,0.792,0.731,1.52v4.282
				c0,0.727-0.244,1.232-0.731,1.515c-0.488,0.282-1.409,0.424-2.764,0.424h-0.501v6.726h-1.72V30.234z M91.101,31.335v5.979h0.461
				c0.687,0,1.145-0.103,1.375-0.308s0.346-0.668,0.346-1.389v-2.585c0-0.72-0.115-1.183-0.346-1.389s-0.688-0.308-1.375-0.308
				H91.101z"/>
			<path fill="#331842" d="M98.295,30.234h2.52L103.7,45.13h-1.856l-0.691-4.141h-3.278L97.13,45.13h-1.815L98.295,30.234z
				 M99.487,31.335l-1.45,8.564h2.886l-1.354-8.564H99.487z"/>
			<path fill="#331842" d="M111.246,32.598v1.424h-1.815v-1.384c0-0.579-0.083-0.979-0.25-1.202
				c-0.167-0.222-0.463-0.333-0.888-0.333c-0.389,0-0.659,0.126-0.813,0.379c-0.154,0.253-0.23,0.783-0.23,1.591v9.22
				c0,0.828,0.081,1.367,0.244,1.616s0.46,0.374,0.894,0.374c0.37,0,0.637-0.118,0.799-0.354s0.244-0.637,0.244-1.202v-1.605h1.815
				v1.656c0,1.017-0.212,1.705-0.637,2.065c-0.424,0.36-1.183,0.54-2.276,0.54c-1.075,0-1.825-0.232-2.249-0.697
				c-0.425-0.464-0.637-1.33-0.637-2.595v-8.816c0-1.259,0.212-2.118,0.637-2.575c0.424-0.458,1.174-0.687,2.249-0.687
				c1.102,0,1.863,0.178,2.283,0.535S111.246,31.588,111.246,32.598z"/>
			<path fill="#331842" d="M113.495,30.234h1.829V45.13h-1.829V30.234z"/>
			<path fill="#331842" d="M118.373,30.234h2.019c1.707,0,2.822,0.2,3.346,0.601c0.523,0.401,0.786,1.318,0.786,2.752v8.19
				c0,1.428-0.267,2.343-0.8,2.747c-0.533,0.404-1.644,0.606-3.333,0.606h-2.019V30.234z M120.093,31.335v12.694h0.556
				c0.831,0,1.38-0.103,1.646-0.308s0.4-0.658,0.4-1.358v-9.332c0-0.707-0.136-1.167-0.406-1.378
				c-0.271-0.212-0.818-0.318-1.64-0.318H120.093z"/>
			<path fill="#331842" d="M129.251,30.234h2.521l2.885,14.896h-1.856l-0.691-4.141h-3.279l-0.745,4.141h-1.815L129.251,30.234z
				 M130.443,31.335l-1.449,8.564h2.885l-1.355-8.564H130.443z"/>
			<path fill="#331842" d="M136.486,30.234h2.019c1.707,0,2.822,0.2,3.346,0.601c0.523,0.401,0.786,1.318,0.786,2.752v8.19
				c0,1.428-0.267,2.343-0.8,2.747c-0.533,0.404-1.644,0.606-3.333,0.606h-2.019V30.234z M138.206,31.335v12.694h0.556
				c0.831,0,1.38-0.103,1.646-0.308s0.4-0.658,0.4-1.358v-9.332c0-0.707-0.136-1.167-0.406-1.378
				c-0.271-0.212-0.818-0.318-1.64-0.318H138.206z"/>
		</g>
	</g>
	<g>
		<g>
			<path fill="#331842" d="M59.826,75.523h4.769v1.182h-3.048v5.362h2.913v1.171h-2.913v5.999h3.129v1.182h-4.85V75.523z"/>
			<path fill="#331842" d="M67.155,75.523h1.721v13.714h3.103v1.182h-4.823V75.523z"/>
			<path fill="#331842" d="M77.885,75.523h4.769v1.182h-3.049v5.362h2.913v1.171h-2.913v5.999h3.13v1.182h-4.85V75.523z"/>
			<path fill="#331842" d="M85.215,75.523h2.357l2.859,14.007h0.027L90.2,75.523h1.558v14.896h-2.384l-2.832-13.815h-0.054
				l0.244,13.815h-1.517V75.523z"/>
			<path fill="#331842" d="M94.847,75.523h4.634v1.182h-2.913v5.402h2.805v1.172h-2.805v7.14h-1.721V75.523z"/>
			<path fill="#331842" d="M107.799,78.563v8.816c0,1.279-0.23,2.148-0.691,2.605c-0.46,0.458-1.282,0.687-2.466,0.687
				c-1.165,0-1.978-0.232-2.438-0.697c-0.46-0.464-0.69-1.329-0.69-2.595v-8.816c0-1.252,0.232-2.109,0.697-2.57
				c0.465-0.461,1.285-0.692,2.459-0.692s1.989,0.229,2.445,0.687S107.799,77.304,107.799,78.563z M105.997,78.361
				c0-0.754-0.099-1.271-0.298-1.551c-0.199-0.279-0.551-0.419-1.057-0.419c-0.497,0-0.842,0.137-1.036,0.409
				s-0.291,0.793-0.291,1.561v9.22c0,0.774,0.099,1.296,0.298,1.565c0.198,0.27,0.551,0.404,1.057,0.404
				c0.497,0,0.842-0.135,1.036-0.404c0.194-0.269,0.292-0.791,0.292-1.565V78.361z"/>
			<path fill="#331842" d="M110.752,78.563c0-1.259,0.228-2.118,0.684-2.575c0.456-0.458,1.271-0.687,2.445-0.687
				s1.994,0.231,2.459,0.692c0.465,0.461,0.698,1.318,0.698,2.57v8.816c0,0.768-0.081,1.288-0.244,1.56
				c-0.162,0.273-0.447,0.504-0.854,0.692l0.055,0.061c0.315-0.128,0.63-0.226,0.941-0.293s0.607-0.102,0.887-0.102h0.298v1.121
				c-0.542,0.007-1.283,0.036-2.222,0.086c-0.94,0.051-1.612,0.076-2.019,0.076c-1.21,0-2.035-0.212-2.472-0.637
				c-0.438-0.424-0.657-1.279-0.657-2.565V78.563z M112.554,78.361v9.22c0,0.774,0.1,1.296,0.298,1.565
				c0.199,0.27,0.551,0.404,1.057,0.404c0.497,0,0.842-0.135,1.037-0.404c0.194-0.269,0.292-0.791,0.292-1.565v-9.22
				c0-0.754-0.1-1.271-0.298-1.551c-0.199-0.279-0.551-0.419-1.057-0.419c-0.497,0-0.842,0.137-1.037,0.409
				S112.554,77.594,112.554,78.361z"/>
			<path fill="#331842" d="M119.992,75.523h1.802v12.058c0,0.774,0.099,1.296,0.298,1.565c0.198,0.27,0.551,0.404,1.057,0.404
				c0.496,0,0.842-0.135,1.036-0.404c0.194-0.269,0.291-0.791,0.291-1.565V75.523h1.802v11.856c0,1.279-0.23,2.148-0.691,2.605
				c-0.461,0.458-1.283,0.687-2.466,0.687c-1.165,0-1.978-0.232-2.438-0.697c-0.461-0.464-0.691-1.329-0.691-2.595V75.523z"/>
			<path fill="#331842" d="M129.312,75.523h4.769v1.182h-3.048v5.362h2.913v1.171h-2.913v5.999h3.129v1.182h-4.85V75.523z"/>
			<path fill="#331842" d="M45.222,92.759h2.628c1.354,0,2.271,0.142,2.75,0.424c0.479,0.283,0.718,0.792,0.718,1.525v3.373
				c0,0.619-0.158,1.057-0.474,1.312c-0.316,0.256-0.876,0.411-1.68,0.465c0.857,0.04,1.454,0.188,1.788,0.444
				s0.501,0.7,0.501,1.333v4.07c0,0.734-0.239,1.242-0.718,1.525c-0.479,0.283-1.396,0.424-2.75,0.424h-2.764V92.759z
				 M46.942,93.859v5.443h0.61c0.786,0,1.31-0.103,1.571-0.308c0.262-0.206,0.393-0.662,0.393-1.369v-2.07
				c0-0.713-0.131-1.175-0.393-1.383c-0.262-0.209-0.786-0.313-1.571-0.313H46.942z M46.942,100.414v6.14h0.637
				c0.831,0,1.379-0.103,1.646-0.308s0.399-0.658,0.399-1.358v-2.797c0-0.7-0.133-1.155-0.399-1.364
				c-0.267-0.208-0.815-0.312-1.646-0.312H46.942z"/>
			<path fill="#331842" d="M54.461,92.759h1.829v14.896h-1.829V92.759z"/>
			<path fill="#331842" d="M65.543,95.799v8.816c0,1.279-0.23,2.147-0.691,2.605c-0.46,0.458-1.283,0.687-2.466,0.687
				c-1.165,0-1.978-0.232-2.438-0.697s-0.691-1.33-0.691-2.595v-8.816c0-1.252,0.232-2.109,0.697-2.57
				c0.465-0.461,1.285-0.692,2.459-0.692c1.174,0,1.989,0.229,2.445,0.687C65.314,93.681,65.543,94.54,65.543,95.799z
				 M63.741,95.597c0-0.754-0.1-1.271-0.298-1.55c-0.199-0.279-0.551-0.419-1.057-0.419c-0.497,0-0.842,0.137-1.037,0.409
				s-0.291,0.793-0.291,1.561v9.22c0,0.774,0.1,1.296,0.298,1.565c0.199,0.269,0.551,0.404,1.057,0.404
				c0.497,0,0.842-0.135,1.037-0.404c0.194-0.269,0.292-0.791,0.292-1.565V95.597z"/>
			<path fill="#331842" d="M68.578,92.759H70.8c1.354,0,2.276,0.143,2.764,0.429c0.487,0.286,0.731,0.792,0.731,1.52v4.282
				c0,0.727-0.244,1.232-0.731,1.515c-0.488,0.282-1.409,0.424-2.764,0.424h-0.501v6.726h-1.72V92.759z M70.298,93.859v5.979h0.46
				c0.687,0,1.145-0.103,1.375-0.308c0.23-0.205,0.346-0.668,0.346-1.389v-2.585c0-0.72-0.115-1.183-0.346-1.389
				c-0.23-0.206-0.688-0.308-1.375-0.308H70.298z"/>
			<path fill="#331842" d="M81.624,95.122v1.424h-1.802v-1.384c0-0.585-0.081-0.988-0.244-1.207s-0.452-0.329-0.867-0.329
				c-0.397,0-0.677,0.123-0.84,0.369c-0.163,0.246-0.244,0.682-0.244,1.308v0.727c0,0.303,0.056,0.615,0.169,0.934
				c0.113,0.32,0.278,0.621,0.495,0.904l2.249,2.959c0.379,0.498,0.655,0.968,0.827,1.408c0.171,0.441,0.257,0.897,0.257,1.369v1.01
				c0,1.292-0.219,2.164-0.657,2.615s-1.217,0.677-2.337,0.677c-1.093,0-1.854-0.182-2.282-0.545c-0.43-0.364-0.644-1.05-0.644-2.06
				v-1.656h1.815v1.605c0,0.606,0.081,1.017,0.244,1.232c0.163,0.215,0.46,0.323,0.894,0.323c0.442,0,0.747-0.123,0.915-0.369
				c0.167-0.245,0.25-0.786,0.25-1.621v-1.03c0-0.384-0.047-0.732-0.142-1.045c-0.095-0.313-0.233-0.597-0.414-0.854l-2.384-3.171
				c-0.334-0.424-0.59-0.828-0.766-1.212c-0.176-0.384-0.265-0.717-0.265-1v-0.869c0-1.158,0.215-1.964,0.644-2.418
				c0.429-0.455,1.167-0.682,2.215-0.682c1.102,0,1.863,0.178,2.283,0.535S81.624,94.112,81.624,95.122z"/>
			<path fill="#331842" d="M84.036,92.759h1.829v14.896h-1.829V92.759z"/>
			<path fill="#331842" d="M94.63,95.122v1.424h-1.815v-1.384c0-0.579-0.083-0.979-0.25-1.202c-0.167-0.222-0.463-0.333-0.888-0.333
				c-0.389,0-0.659,0.126-0.813,0.379c-0.154,0.253-0.23,0.783-0.23,1.591v9.22c0,0.828,0.081,1.367,0.244,1.616
				s0.46,0.374,0.894,0.374c0.37,0,0.637-0.118,0.799-0.354s0.244-0.637,0.244-1.202v-1.605h1.815v1.656
				c0,1.017-0.212,1.705-0.637,2.065c-0.424,0.36-1.183,0.54-2.276,0.54c-1.075,0-1.825-0.232-2.249-0.697
				c-0.425-0.464-0.637-1.33-0.637-2.595v-8.816c0-1.259,0.212-2.118,0.637-2.575c0.424-0.458,1.174-0.687,2.249-0.687
				c1.102,0,1.863,0.178,2.283,0.535S94.63,94.112,94.63,95.122z"/>
			<path fill="#331842" d="M103.084,95.799v8.816c0,1.279-0.23,2.147-0.691,2.605c-0.46,0.458-1.283,0.687-2.466,0.687
				c-1.165,0-1.978-0.232-2.438-0.697s-0.691-1.33-0.691-2.595v-8.816c0-1.252,0.232-2.109,0.697-2.57
				c0.465-0.461,1.285-0.692,2.459-0.692c1.174,0,1.989,0.229,2.445,0.687C102.855,93.681,103.084,94.54,103.084,95.799z
				 M101.282,95.597c0-0.754-0.1-1.271-0.298-1.55c-0.199-0.279-0.551-0.419-1.057-0.419c-0.497,0-0.842,0.137-1.037,0.409
				S98.6,94.829,98.6,95.597v9.22c0,0.774,0.1,1.296,0.298,1.565c0.199,0.269,0.551,0.404,1.057,0.404
				c0.497,0,0.842-0.135,1.037-0.404c0.194-0.269,0.292-0.791,0.292-1.565V95.597z"/>
			<path fill="#331842" d="M111.334,95.122v1.424h-1.802v-1.384c0-0.585-0.081-0.988-0.243-1.207
				c-0.163-0.219-0.452-0.329-0.867-0.329c-0.397,0-0.678,0.123-0.84,0.369c-0.163,0.246-0.244,0.682-0.244,1.308v0.727
				c0,0.303,0.056,0.615,0.169,0.934c0.113,0.32,0.278,0.621,0.495,0.904l2.249,2.959c0.379,0.498,0.654,0.968,0.826,1.408
				c0.171,0.441,0.257,0.897,0.257,1.369v1.01c0,1.292-0.219,2.164-0.657,2.615c-0.438,0.451-1.218,0.677-2.337,0.677
				c-1.093,0-1.854-0.182-2.283-0.545c-0.429-0.364-0.644-1.05-0.644-2.06v-1.656h1.815v1.605c0,0.606,0.081,1.017,0.244,1.232
				c0.162,0.215,0.46,0.323,0.894,0.323c0.442,0,0.748-0.123,0.915-0.369c0.167-0.245,0.25-0.786,0.25-1.621v-1.03
				c0-0.384-0.047-0.732-0.142-1.045c-0.095-0.313-0.233-0.597-0.414-0.854l-2.384-3.171c-0.334-0.424-0.589-0.828-0.766-1.212
				c-0.176-0.384-0.264-0.717-0.264-1v-0.869c0-1.158,0.214-1.964,0.644-2.418s1.167-0.682,2.215-0.682
				c1.102,0,1.862,0.178,2.283,0.535C111.125,93.429,111.334,94.112,111.334,95.122z"/>
			<path fill="#331842" d="M119.951,95.799v8.816c0,1.279-0.23,2.147-0.691,2.605c-0.46,0.458-1.282,0.687-2.466,0.687
				c-1.165,0-1.978-0.232-2.438-0.697c-0.46-0.464-0.69-1.33-0.69-2.595v-8.816c0-1.252,0.232-2.109,0.697-2.57
				s1.285-0.692,2.459-0.692s1.989,0.229,2.445,0.687C119.723,93.681,119.951,94.54,119.951,95.799z M118.149,95.597
				c0-0.754-0.099-1.271-0.298-1.55c-0.199-0.279-0.551-0.419-1.057-0.419c-0.497,0-0.842,0.137-1.036,0.409
				s-0.291,0.793-0.291,1.561v9.22c0,0.774,0.099,1.296,0.298,1.565c0.198,0.269,0.551,0.404,1.057,0.404
				c0.497,0,0.842-0.135,1.036-0.404s0.292-0.791,0.292-1.565V95.597z"/>
			<path fill="#331842" d="M128.703,95.122v1.424h-1.815v-1.384c0-0.579-0.084-0.979-0.251-1.202s-0.463-0.333-0.887-0.333
				c-0.388,0-0.66,0.126-0.813,0.379c-0.153,0.253-0.23,0.783-0.23,1.591v9.22c0,0.828,0.082,1.367,0.244,1.616
				s0.461,0.374,0.894,0.374c0.371,0,0.637-0.118,0.799-0.354s0.244-0.637,0.244-1.202v-1.605h1.815v1.656
				c0,1.017-0.213,1.705-0.637,2.065c-0.425,0.36-1.184,0.54-2.276,0.54c-1.075,0-1.824-0.232-2.249-0.697s-0.637-1.33-0.637-2.595
				v-8.816c0-1.259,0.212-2.118,0.637-2.575c0.425-0.458,1.174-0.687,2.249-0.687c1.102,0,1.863,0.178,2.283,0.535
				C128.493,93.429,128.703,94.112,128.703,95.122z"/>
			<path fill="#331842" d="M130.952,92.759h1.829v14.896h-1.829V92.759z"/>
			<path fill="#331842" d="M137.522,92.759h2.52l2.885,14.896h-1.855l-0.691-4.141h-3.278l-0.745,4.141h-1.815L137.522,92.759z
				 M138.715,93.859l-1.45,8.564h2.885l-1.354-8.564H138.715z"/>
			<path fill="#331842" d="M144.757,92.759h1.721v13.714h3.103v1.182h-4.823V92.759z"/>
		</g>
	</g>
	<g>
		<g>
			<path fill="#331842" d="M94.155,150.675v1.424H92.34v-1.383c0-0.579-0.083-0.98-0.25-1.202c-0.167-0.223-0.463-0.333-0.888-0.333
				c-0.389,0-0.659,0.126-0.813,0.379s-0.23,0.783-0.23,1.59v9.221c0,0.828,0.081,1.367,0.244,1.616s0.46,0.374,0.894,0.374
				c0.37,0,0.637-0.118,0.799-0.354c0.163-0.235,0.244-0.636,0.244-1.202v-1.606h1.815v1.656c0,1.017-0.212,1.705-0.637,2.065
				c-0.424,0.36-1.183,0.54-2.276,0.54c-1.075,0-1.825-0.232-2.249-0.696c-0.425-0.465-0.637-1.33-0.637-2.596v-8.816
				c0-1.259,0.212-2.117,0.637-2.575c0.424-0.458,1.174-0.687,2.249-0.687c1.102,0,1.863,0.178,2.283,0.535
				C93.945,148.981,94.155,149.665,94.155,150.675z"/>
			<path fill="#331842" d="M96.404,148.312h1.829v14.896h-1.829V148.312z"/>
			<path fill="#331842" d="M101.282,148.312h4.633v1.182h-2.913v5.403h2.805v1.171h-2.805v7.14h-1.72V148.312z"/>
		</g>
	</g>
</g>
</svg>
