<?xml version="1.0" encoding="utf-8"?>
<!-- Generator: Adobe Illustrator 24.2.3, SVG Export Plug-In . SVG Version: 6.00 Build 0)  -->
<svg version="1.1" id="Capa_1" xmlns="http://www.w3.org/2000/svg" xmlns:xlink="http://www.w3.org/1999/xlink" x="0px" y="0px"
	 viewBox="0 0 676.9 328.9" style="enable-background:new 0 0 676.9 328.9;" xml:space="preserve">
<style type="text/css">
	.st0{fill:#2C5A67;}
	.st1{fill:#A0C219;}
	.st2{opacity:0.5;}
	.st3{fill:#FFFFFF;}
	.st4{font-family:'MyriadPro-Bold';}
	.st5{font-size:16px;}
</style>
<g>
	<g>
		<path class="st0" d="M0,0l4.8,328.9l635.1-2.5l26.7-285.7c-2.9,1.4-6.2,2-9.7,1.8C645.6,42,637,32.3,637.7,21.1
			c0.2-3.1,1-5.9,2.4-8.4L0,0z"/>
		<path class="st0" d="M658.6,12.2c-5.5-0.3-10.3,3.9-10.6,9.4s3.9,10.3,9.4,10.6s10.3-3.9,10.6-9.4
			C668.4,17.3,664.1,12.6,658.6,12.2z M662.7,26.3c0.3,0.3,0.3,0.8-0.1,1.1c-0.3,0.3-0.8,0.3-1.1-0.1l-3.5-4l-4,3.5
			c-0.3,0.3-0.8,0.3-1.1-0.1c-0.3-0.3-0.3-0.8,0.1-1.1l4-3.5l-3.5-4c-0.3-0.3-0.3-0.8,0.1-1.1c0.3-0.3,0.8-0.3,1.1,0.1l3.5,4l4-3.5
			c0.3-0.3,0.8-0.3,1.1,0.1c0.3,0.3,0.3,0.8-0.1,1.1l-4,3.5L662.7,26.3z"/>
		<g>
			<path class="st0" d="M639.2,21.2c0.6-10.4,9.5-18.3,19.9-17.7c10.4,0.6,18.3,9.5,17.7,19.9s-9.5,18.3-19.9,17.7
				C646.6,40.5,638.6,31.6,639.2,21.2z M645,21.5c-0.4,7.2,5.1,13.3,12.3,13.7s13.3-5.1,13.7-12.3s-5.1-13.3-12.3-13.7
				C651.6,8.8,645.4,14.3,645,21.5z"/>
		</g>
	</g>
	<g>
		<path class="st1" d="M221.8,23.1h3.3v26.5h6v2.3h-9.3V23.1z"/>
		<path class="st1" d="M238.6,23.1h4.9l5.6,28.8h-3.6l-1.3-8h-6.3l-1.4,8H233L238.6,23.1z M240.9,25.3l-2.8,16.6h5.6L241,25.3H240.9
			z"/>
		<path class="st1" d="M272.8,29v17.1c0,2.5-0.4,4.2-1.3,5c-0.9,0.9-2.5,1.3-4.8,1.3s-3.8-0.4-4.7-1.3c-0.9-0.9-1.3-2.6-1.3-5V29
			c0-2.4,0.5-4.1,1.4-5s2.5-1.3,4.8-1.3s3.8,0.4,4.7,1.3C272.3,24.9,272.8,26.6,272.8,29z M269.3,28.6c0-1.5-0.2-2.5-0.6-3
			s-1.1-0.8-2-0.8c-1,0-1.6,0.3-2,0.8s-0.6,1.5-0.6,3v17.8c0,1.5,0.2,2.5,0.6,3s1.1,0.8,2,0.8c1,0,1.6-0.3,2-0.8s0.6-1.5,0.6-3V28.6
			L269.3,28.6z"/>
		<path class="st1" d="M278.6,23.1h5.8l3.7,26.5h0.3l3.7-26.5h5.6v28.8h-2.9V25.3h-0.5l-3.8,26.6h-4.7L282,25.3h-0.4v26.6h-2.9
			L278.6,23.1L278.6,23.1z"/>
		<path class="st1" d="M313.8,27.7v2.8h-3.5v-2.7c0-1.1-0.2-1.9-0.5-2.3s-0.9-0.6-1.7-0.6c-0.8,0-1.3,0.2-1.6,0.7
			c-0.3,0.5-0.5,1.3-0.5,2.5v1.4c0,0.6,0.1,1.2,0.3,1.8c0.2,0.6,0.5,1.2,1,1.7l4.3,5.7c0.7,1,1.3,1.9,1.6,2.7
			c0.3,0.9,0.5,1.7,0.5,2.6v2c0,2.5-0.4,4.2-1.3,5.1c-0.8,0.9-2.4,1.3-4.5,1.3s-3.6-0.4-4.4-1.1c-0.8-0.7-1.2-2-1.2-4v-3.2h3.5v3.1
			c0,1.2,0.2,2,0.5,2.4s0.9,0.6,1.7,0.6c0.9,0,1.4-0.2,1.8-0.7c0.3-0.5,0.5-1.5,0.5-3.1v-2c0-0.7-0.1-1.4-0.3-2
			c-0.2-0.6-0.5-1.2-0.8-1.7l-4.6-6.1c-0.6-0.8-1.1-1.6-1.5-2.3c-0.3-0.7-0.5-1.4-0.5-1.9v-1.7c0-2.2,0.4-3.8,1.2-4.7
			c0.8-0.9,2.3-1.3,4.3-1.3c2.1,0,3.6,0.3,4.4,1C313.4,24.4,313.8,25.8,313.8,27.7z"/>
		<path class="st1" d="M326.7,23.1h5.1c2.6,0,4.4,0.3,5.3,0.8s1.4,1.5,1.4,2.9v6.5c0,1.2-0.3,2-0.9,2.5s-1.7,0.8-3.2,0.9
			c1.7,0.1,2.8,0.4,3.5,0.9c0.6,0.5,1,1.4,1,2.6v11.6h-3.5V41.2c0-1.4-0.3-2.2-0.8-2.6c-0.5-0.4-1.6-0.6-3.2-0.6H330v14h-3.3V23.1
			L326.7,23.1z M330,25.3v10.5h1.2c1.5,0,2.5-0.2,3-0.6c0.5-0.4,0.8-1.3,0.8-2.6v-4c0-1.4-0.3-2.3-0.8-2.7c-0.5-0.4-1.5-0.6-3-0.6
			C331.2,25.3,330,25.3,330,25.3z"/>
		<path class="st1" d="M344.6,23.1h9.2v2.3h-5.9v10.4h5.6v2.3h-5.6v11.6h6.1V52h-9.4L344.6,23.1L344.6,23.1z"/>
		<path class="st1" d="M369.8,27.7v2.8h-3.5v-2.7c0-1.1-0.2-1.9-0.5-2.3s-0.9-0.6-1.7-0.6c-0.8,0-1.3,0.2-1.6,0.7
			c-0.3,0.5-0.4,1.5-0.4,3.1v17.8c0,1.6,0.2,2.6,0.5,3.1s0.9,0.7,1.7,0.7c0.7,0,1.2-0.2,1.5-0.7s0.5-1.2,0.5-2.3v-3.1h3.5v3.2
			c0,2-0.4,3.3-1.2,4c-0.8,0.7-2.3,1-4.4,1s-3.5-0.4-4.4-1.3c-0.8-0.9-1.2-2.6-1.2-5V29c0-2.4,0.4-4.1,1.2-5
			c0.8-0.9,2.3-1.3,4.4-1.3s3.6,0.3,4.4,1C369.4,24.4,369.8,25.8,369.8,27.7z"/>
		<path class="st1" d="M386.1,29v17.1c0,2.5-0.4,4.2-1.3,5c-0.9,0.9-2.5,1.3-4.8,1.3s-3.8-0.4-4.7-1.3c-0.9-0.9-1.3-2.6-1.3-5V29
			c0-2.4,0.4-4.1,1.4-5c0.9-0.9,2.5-1.3,4.8-1.3s3.8,0.4,4.7,1.3C385.7,24.9,386.1,26.6,386.1,29z M382.6,28.6c0-1.5-0.2-2.5-0.6-3
			s-1.1-0.8-2-0.8c-1,0-1.6,0.3-2,0.8s-0.6,1.5-0.6,3v17.8c0,1.5,0.2,2.5,0.6,3s1.1,0.8,2,0.8c1,0,1.6-0.3,2-0.8s0.6-1.5,0.6-3V28.6
			z"/>
		<path class="st1" d="M392,23.1h5.8l3.7,26.5h0.3l3.7-26.5h5.6v28.8h-2.9V25.3h-0.5l-3.8,26.6h-4.7l-3.9-26.6h-0.4v26.6H392V23.1
			L392,23.1z"/>
		<path class="st1" d="M417.1,23.1h3.5v28.8h-3.5V23.1z"/>
		<path class="st1" d="M426.5,23.1h9.2v2.3h-5.9v10.4h5.6v2.3h-5.6v11.6h6.1V52h-9.4L426.5,23.1L426.5,23.1z"/>
		<path class="st1" d="M440.7,23.1h4.6l5.5,27.1h0.1l-0.5-27.1h3v28.8h-4.6l-5.5-26.7h-0.1l0.5,26.7h-2.9L440.7,23.1L440.7,23.1z"/>
		<path class="st1" d="M459.3,23.1h3.9c3.3,0,5.5,0.4,6.5,1.2c1,0.8,1.5,2.5,1.5,5.3v15.8c0,2.8-0.5,4.5-1.5,5.3s-3.2,1.2-6.4,1.2
			h-3.9L459.3,23.1L459.3,23.1z M462.7,25.3v24.6h1.1c1.6,0,2.7-0.2,3.2-0.6c0.5-0.4,0.8-1.3,0.8-2.6v-18c0-1.4-0.3-2.3-0.8-2.7
			c-0.5-0.4-1.6-0.6-3.2-0.6h-1.1V25.3z"/>
		<path class="st1" d="M480.4,23.1h4.9l5.6,28.8h-3.6l-1.3-8h-6.3l-1.4,8h-3.5L480.4,23.1z M482.7,25.3l-2.8,16.6h5.6l-2.6-16.6
			C482.8,25.3,482.7,25.3,482.7,25.3z"/>
	</g>
	<g class="st2">
		<g>
			<path class="st3" d="M226,315.8c-0.6-0.7-1.1-1.6-1.5-2.6s-0.6-2-0.6-3.1c0-0.9,0.1-1.8,0.5-2.7c0.4-1,0.9-2,1.6-3h0.8
				c-0.5,0.8-0.8,1.4-0.9,1.7c-0.2,0.5-0.4,1.1-0.6,1.7c-0.2,0.7-0.3,1.5-0.3,2.2c0,1.9,0.6,3.8,1.8,5.6H226V315.8z"/>
			<path class="st3" d="M228.3,313.2v-8.6h1.1v8.6H228.3z"/>
			<path class="st3" d="M231.3,313.2V307h0.9v0.9c0.5-0.7,1.1-1,2-1c0.4,0,0.7,0.1,1,0.2s0.6,0.3,0.7,0.5c0.2,0.2,0.3,0.5,0.3,0.8
				c0,0.2,0.1,0.5,0.1,1v3.8h-1.1v-3.8c0-0.4,0-0.8-0.1-1s-0.2-0.4-0.4-0.5s-0.5-0.2-0.7-0.2c-0.4,0-0.8,0.1-1.2,0.4
				c-0.3,0.3-0.5,0.8-0.5,1.6v3.4L231.3,313.2L231.3,313.2L231.3,313.2z"/>
			<path class="st3" d="M238.2,313.2v-5.4h-0.9V307h0.9v-0.7c0-0.4,0-0.7,0.1-0.9c0.1-0.3,0.3-0.5,0.5-0.7s0.6-0.3,1.1-0.3
				c0.3,0,0.6,0,1,0.1l-0.2,0.9c-0.2,0-0.4-0.1-0.6-0.1c-0.3,0-0.5,0.1-0.7,0.2c-0.1,0.1-0.2,0.4-0.2,0.8v0.6h1.2v0.8h-1.2v5.4
				L238.2,313.2L238.2,313.2L238.2,313.2z"/>
			<path class="st3" d="M240.9,310.1c0-1.2,0.3-2,1-2.6c0.5-0.5,1.2-0.7,2-0.7c0.9,0,1.6,0.3,2.1,0.8c0.5,0.6,0.8,1.3,0.8,2.3
				c0,0.8-0.1,1.4-0.4,1.9c-0.2,0.5-0.6,0.8-1,1.1s-1,0.4-1.5,0.4c-0.9,0-1.6-0.3-2.1-0.8S240.9,311.2,240.9,310.1z M242,310.1
				c0,0.8,0.2,1.4,0.5,1.8s0.8,0.6,1.3,0.6s1-0.2,1.3-0.6s0.5-1,0.5-1.8s-0.2-1.4-0.5-1.7s-0.8-0.6-1.3-0.6s-1,0.2-1.3,0.6
				S242,309.3,242,310.1z"/>
			<path class="st3" d="M248,313.2V307h0.9v0.9c0.2-0.4,0.5-0.7,0.7-0.9c0.2-0.1,0.4-0.2,0.7-0.2c0.4,0,0.7,0.1,1.1,0.3l-0.4,1
				c-0.3-0.2-0.5-0.2-0.8-0.2c-0.2,0-0.4,0.1-0.6,0.2s-0.3,0.3-0.4,0.6c-0.1,0.4-0.2,0.8-0.2,1.2v3.3L248,313.2L248,313.2L248,313.2
				z"/>
			<path class="st3" d="M252,313.2V307h0.9v0.9c0.2-0.3,0.5-0.6,0.8-0.7c0.3-0.2,0.7-0.3,1.1-0.3c0.5,0,0.8,0.1,1.1,0.3
				s0.5,0.5,0.6,0.8c0.5-0.7,1.1-1.1,1.9-1.1c0.6,0,1.1,0.2,1.4,0.5s0.5,0.9,0.5,1.6v4.3h-1v-3.9c0-0.4,0-0.7-0.1-0.9
				c-0.1-0.2-0.2-0.3-0.4-0.4c-0.2-0.1-0.4-0.2-0.6-0.2c-0.4,0-0.8,0.1-1.1,0.4s-0.4,0.8-0.4,1.4v3.6h-1.1v-4c0-0.5-0.1-0.8-0.3-1.1
				c-0.2-0.2-0.5-0.4-0.8-0.4s-0.6,0.1-0.8,0.2c-0.3,0.2-0.4,0.4-0.5,0.7s-0.2,0.7-0.2,1.3v3.2L252,313.2L252,313.2z"/>
			<path class="st3" d="M266.2,311.2l1.1,0.1c-0.2,0.6-0.5,1.1-1,1.5s-1.1,0.5-1.8,0.5c-0.9,0-1.6-0.3-2.2-0.8
				c-0.5-0.6-0.8-1.3-0.8-2.4c0-1,0.3-1.9,0.8-2.4c0.5-0.6,1.2-0.9,2.1-0.9c0.8,0,1.5,0.3,2,0.9s0.8,1.4,0.8,2.4c0,0.1,0,0.2,0,0.3
				h-4.6c0,0.7,0.2,1.2,0.6,1.6s0.8,0.5,1.3,0.5c0.4,0,0.7-0.1,1-0.3S266.1,311.7,266.2,311.2z M262.8,309.5h3.5
				c0-0.5-0.2-0.9-0.4-1.2c-0.3-0.4-0.8-0.6-1.3-0.6s-0.9,0.2-1.2,0.5C263,308.5,262.8,309,262.8,309.5z"/>
			<path class="st3" d="M272.1,313.2v-8.6h1.7l2,6.1c0.2,0.6,0.3,1,0.4,1.3c0.1-0.3,0.2-0.8,0.5-1.4l2.1-6h1.5v8.6h-1.1V306
				l-2.5,7.2h-1l-2.5-7.3v7.3H272.1L272.1,313.2L272.1,313.2z"/>
			<path class="st3" d="M286,313.2v-0.9c-0.5,0.7-1.1,1.1-2,1.1c-0.4,0-0.7-0.1-1-0.2s-0.6-0.3-0.7-0.5c-0.2-0.2-0.3-0.5-0.3-0.8
				c0-0.2-0.1-0.5-0.1-1V307h1.1v3.5c0,0.6,0,0.9,0.1,1.1c0.1,0.3,0.2,0.5,0.4,0.7s0.5,0.2,0.8,0.2s0.6-0.1,0.9-0.2s0.5-0.4,0.6-0.7
				s0.2-0.7,0.2-1.2V307h1.1v6.2H286L286,313.2z"/>
			<path class="st3" d="M288.6,313.2V307h0.9v0.9c0.5-0.7,1.1-1,2-1c0.4,0,0.7,0.1,1,0.2s0.5,0.3,0.7,0.5s0.3,0.5,0.3,0.8
				c0,0.2,0.1,0.5,0.1,1v3.8h-1.1v-3.8c0-0.4,0-0.8-0.1-1s-0.2-0.4-0.4-0.5s-0.5-0.2-0.7-0.2c-0.4,0-0.8,0.1-1.2,0.4
				s-0.5,0.8-0.5,1.6v3.4L288.6,313.2L288.6,313.2L288.6,313.2z"/>
			<path class="st3" d="M299.3,313.2v-0.8c-0.4,0.6-1,0.9-1.7,0.9c-0.5,0-1-0.1-1.4-0.4s-0.7-0.7-1-1.1c-0.2-0.5-0.3-1.1-0.3-1.7
				s0.1-1.2,0.3-1.7c0.2-0.5,0.5-0.9,0.9-1.2c0.4-0.3,0.9-0.4,1.4-0.4c0.4,0,0.7,0.1,1,0.2s0.5,0.4,0.7,0.6v-3.1h1v8.6L299.3,313.2
				L299.3,313.2z M296,310.1c0,0.8,0.2,1.4,0.5,1.8s0.7,0.6,1.2,0.6s0.9-0.2,1.2-0.6c0.3-0.4,0.5-1,0.5-1.7c0-0.9-0.2-1.5-0.5-1.9
				s-0.7-0.6-1.2-0.6s-0.9,0.2-1.2,0.6S296,309.3,296,310.1z"/>
			<path class="st3" d="M302,305.9v-1.2h1.1v1.2H302z M302,313.2V307h1.1v6.2H302z"/>
			<path class="st3" d="M308.7,312.5c-0.4,0.3-0.8,0.6-1.1,0.7s-0.7,0.2-1.2,0.2c-0.7,0-1.2-0.2-1.6-0.5s-0.6-0.8-0.6-1.3
				c0-0.3,0.1-0.6,0.2-0.8s0.3-0.5,0.5-0.6s0.5-0.3,0.8-0.3c0.2-0.1,0.5-0.1,0.9-0.2c0.9-0.1,1.5-0.2,1.9-0.4c0-0.1,0-0.2,0-0.3
				c0-0.4-0.1-0.7-0.3-0.9c-0.3-0.2-0.7-0.4-1.2-0.4s-0.9,0.1-1.1,0.3s-0.4,0.5-0.5,0.9l-1-0.1c0.1-0.4,0.2-0.8,0.5-1.1
				c0.2-0.3,0.5-0.5,0.9-0.6s0.9-0.2,1.4-0.2s1,0.1,1.3,0.2s0.6,0.3,0.7,0.5c0.2,0.2,0.3,0.4,0.3,0.7c0,0.2,0.1,0.5,0.1,1v1.4
				c0,1,0,1.6,0.1,1.9c0,0.3,0.1,0.5,0.3,0.7h-1.1C308.8,313,308.7,312.8,308.7,312.5z M308.6,310.1c-0.4,0.2-1,0.3-1.7,0.4
				c-0.4,0.1-0.7,0.1-0.9,0.2s-0.3,0.2-0.4,0.3c-0.1,0.2-0.1,0.3-0.1,0.5c0,0.3,0.1,0.5,0.3,0.7c0.2,0.2,0.5,0.3,0.9,0.3
				s0.8-0.1,1.1-0.3s0.5-0.4,0.7-0.7c0.1-0.2,0.2-0.6,0.2-1.1L308.6,310.1L308.6,310.1z"/>
			<path class="st3" d="M311.3,313.2v-8.6h1.1v8.6H311.3z"/>
			<path class="st3" d="M321.4,313.2v-0.8c-0.4,0.6-1,0.9-1.7,0.9c-0.5,0-1-0.1-1.4-0.4s-0.7-0.7-1-1.1c-0.2-0.5-0.3-1.1-0.3-1.7
				s0.1-1.2,0.3-1.7c0.2-0.5,0.5-0.9,0.9-1.2c0.4-0.3,0.9-0.4,1.4-0.4c0.4,0,0.7,0.1,1,0.2s0.5,0.4,0.7,0.6v-3.1h1v8.6L321.4,313.2
				L321.4,313.2z M318,310.1c0,0.8,0.2,1.4,0.5,1.8s0.7,0.6,1.2,0.6s0.9-0.2,1.2-0.6c0.3-0.4,0.5-1,0.5-1.7c0-0.9-0.2-1.5-0.5-1.9
				s-0.7-0.6-1.2-0.6s-0.9,0.2-1.2,0.6S318,309.3,318,310.1z"/>
			<path class="st3" d="M328.3,311.2l1.1,0.1c-0.2,0.6-0.5,1.1-1,1.5s-1.1,0.5-1.8,0.5c-0.9,0-1.6-0.3-2.2-0.8
				c-0.5-0.6-0.8-1.3-0.8-2.4c0-1,0.3-1.9,0.8-2.4c0.5-0.6,1.2-0.9,2.1-0.9c0.8,0,1.5,0.3,2,0.9s0.8,1.4,0.8,2.4c0,0.1,0,0.2,0,0.3
				h-4.6c0,0.7,0.2,1.2,0.6,1.6s0.8,0.5,1.3,0.5c0.4,0,0.7-0.1,1-0.3S328.1,311.7,328.3,311.2z M324.8,309.5h3.5
				c0-0.5-0.2-0.9-0.4-1.2c-0.3-0.4-0.8-0.6-1.3-0.6s-0.9,0.2-1.2,0.5C325,308.5,324.8,309,324.8,309.5z"/>
			<path class="st3" d="M334.1,313.2v-8.6h3c0.7,0,1.2,0,1.5,0.1c0.5,0.1,0.9,0.3,1.3,0.6c0.5,0.4,0.8,0.9,1,1.5s0.3,1.3,0.3,2
				s-0.1,1.2-0.2,1.7c-0.2,0.5-0.3,0.9-0.6,1.2s-0.5,0.6-0.8,0.8s-0.6,0.3-1,0.4s-0.9,0.1-1.4,0.1L334.1,313.2L334.1,313.2
				L334.1,313.2z M335.3,312.2h1.8c0.6,0,1-0.1,1.3-0.2s0.6-0.3,0.8-0.4c0.3-0.3,0.5-0.6,0.6-1.1c0.2-0.5,0.2-1,0.2-1.7
				c0-0.9-0.1-1.6-0.4-2.1s-0.7-0.8-1.1-1c-0.3-0.1-0.8-0.2-1.5-0.2h-1.8L335.3,312.2L335.3,312.2z"/>
			<path class="st3" d="M342.7,305.9v-1.2h1.1v1.2H342.7z M342.7,313.2V307h1.1v6.2H342.7z"/>
			<path class="st3" d="M344.9,311.4l1-0.2c0.1,0.4,0.2,0.7,0.5,1c0.3,0.2,0.6,0.3,1.1,0.3s0.8-0.1,1.1-0.3c0.2-0.2,0.4-0.4,0.4-0.7
				c0-0.2-0.1-0.4-0.3-0.6c-0.1-0.1-0.5-0.2-1.1-0.4c-0.8-0.2-1.3-0.4-1.6-0.5s-0.5-0.3-0.7-0.6c-0.2-0.3-0.2-0.5-0.2-0.8
				s0.1-0.5,0.2-0.8c0.1-0.2,0.3-0.4,0.5-0.6c0.2-0.1,0.4-0.2,0.7-0.3c0.3-0.1,0.6-0.1,0.9-0.1c0.5,0,0.9,0.1,1.3,0.2
				s0.6,0.3,0.8,0.6c0.2,0.2,0.3,0.6,0.4,1l-1,0.1c0-0.3-0.2-0.6-0.4-0.8s-0.5-0.3-1-0.3s-0.8,0.1-1,0.2s-0.3,0.3-0.3,0.6
				c0,0.1,0,0.3,0.1,0.4s0.2,0.2,0.4,0.3c0.1,0,0.4,0.1,0.9,0.3c0.7,0.2,1.3,0.4,1.6,0.5s0.5,0.3,0.7,0.6s0.3,0.5,0.3,0.9
				s-0.1,0.7-0.3,1s-0.5,0.6-0.9,0.7c-0.4,0.2-0.8,0.3-1.3,0.3c-0.8,0-1.4-0.2-1.9-0.5S345,312,344.9,311.4z"/>
			<path class="st3" d="M355.4,310.9l1,0.1c-0.1,0.7-0.4,1.3-0.9,1.7s-1,0.6-1.7,0.6c-0.9,0-1.5-0.3-2.1-0.8
				c-0.5-0.6-0.8-1.4-0.8-2.4c0-0.7,0.1-1.3,0.3-1.8c0.2-0.5,0.6-0.9,1-1.1c0.5-0.3,1-0.4,1.5-0.4c0.7,0,1.2,0.2,1.7,0.5
				s0.7,0.8,0.8,1.5l-1,0.2c-0.1-0.4-0.3-0.7-0.5-0.9s-0.5-0.3-0.9-0.3c-0.5,0-1,0.2-1.3,0.6s-0.5,1-0.5,1.8s0.2,1.4,0.5,1.8
				s0.7,0.6,1.3,0.6c0.4,0,0.8-0.1,1-0.4C355.1,311.9,355.3,311.5,355.4,310.9z"/>
			<path class="st3" d="M361.4,312.5c-0.4,0.3-0.8,0.6-1.1,0.7c-0.4,0.1-0.7,0.2-1.2,0.2c-0.7,0-1.2-0.2-1.6-0.5s-0.6-0.8-0.6-1.3
				c0-0.3,0.1-0.6,0.2-0.8c0.1-0.3,0.3-0.5,0.5-0.6c0.2-0.2,0.5-0.3,0.8-0.3c0.2-0.1,0.5-0.1,0.9-0.2c0.9-0.1,1.5-0.2,1.9-0.4
				c0-0.1,0-0.2,0-0.3c0-0.4-0.1-0.7-0.3-0.9c-0.3-0.2-0.7-0.4-1.2-0.4s-0.9,0.1-1.1,0.3s-0.4,0.5-0.5,0.9l-1-0.1
				c0.1-0.4,0.2-0.8,0.5-1.1c0.2-0.3,0.5-0.5,0.9-0.6s0.9-0.2,1.4-0.2s1,0.1,1.3,0.2s0.6,0.3,0.7,0.5c0.2,0.2,0.3,0.4,0.3,0.7
				c0,0.2,0.1,0.5,0.1,1v1.4c0,1,0,1.6,0.1,1.9c0,0.3,0.1,0.5,0.3,0.7h-1.1C361.5,313,361.4,312.8,361.4,312.5z M361.3,310.1
				c-0.4,0.2-1,0.3-1.7,0.4c-0.4,0.1-0.7,0.1-0.9,0.2s-0.3,0.2-0.4,0.3c-0.1,0.2-0.1,0.3-0.1,0.5c0,0.3,0.1,0.5,0.3,0.7
				c0.2,0.2,0.5,0.3,0.9,0.3s0.8-0.1,1.1-0.3c0.3-0.2,0.5-0.4,0.7-0.7c0.1-0.2,0.2-0.6,0.2-1.1L361.3,310.1L361.3,310.1z"/>
			<path class="st3" d="M364,315.6V307h1v0.8c0.2-0.3,0.5-0.6,0.8-0.7s0.6-0.2,1-0.2c0.5,0,1,0.1,1.4,0.4s0.7,0.7,0.9,1.2
				s0.3,1,0.3,1.6s-0.1,1.2-0.3,1.7c-0.2,0.5-0.6,0.9-1,1.2c-0.4,0.3-0.9,0.4-1.4,0.4c-0.4,0-0.7-0.1-0.9-0.2
				c-0.3-0.1-0.5-0.3-0.7-0.6v3L364,315.6L364,315.6L364,315.6z M365,310.2c0,0.8,0.2,1.4,0.5,1.8s0.7,0.6,1.2,0.6s0.9-0.2,1.2-0.6
				s0.5-1,0.5-1.8s-0.2-1.4-0.5-1.8s-0.7-0.6-1.2-0.6c-0.4,0-0.8,0.2-1.2,0.6C365.1,308.7,365,309.4,365,310.2z"/>
			<path class="st3" d="M374.7,312.5c-0.4,0.3-0.8,0.6-1.1,0.7c-0.4,0.1-0.7,0.2-1.2,0.2c-0.7,0-1.2-0.2-1.6-0.5s-0.6-0.8-0.6-1.3
				c0-0.3,0.1-0.6,0.2-0.8c0.1-0.3,0.3-0.5,0.5-0.6s0.5-0.3,0.8-0.3c0.2-0.1,0.5-0.1,0.9-0.2c0.9-0.1,1.5-0.2,1.9-0.4
				c0-0.1,0-0.2,0-0.3c0-0.4-0.1-0.7-0.3-0.9c-0.3-0.2-0.7-0.4-1.2-0.4s-0.9,0.1-1.1,0.3s-0.4,0.5-0.5,0.9l-1-0.1
				c0.1-0.4,0.2-0.8,0.5-1.1c0.2-0.3,0.5-0.5,0.9-0.6s0.9-0.2,1.4-0.2s1,0.1,1.3,0.2s0.6,0.3,0.7,0.5c0.2,0.2,0.3,0.4,0.3,0.7
				c0,0.2,0.1,0.5,0.1,1v1.4c0,1,0,1.6,0.1,1.9c0,0.3,0.1,0.5,0.3,0.7h-1C374.8,313,374.8,312.8,374.7,312.5z M374.7,310.1
				c-0.4,0.2-1,0.3-1.7,0.4c-0.4,0.1-0.7,0.1-0.9,0.2c-0.2,0.1-0.3,0.2-0.4,0.3c-0.1,0.2-0.1,0.3-0.1,0.5c0,0.3,0.1,0.5,0.3,0.7
				s0.5,0.3,0.9,0.3s0.8-0.1,1.1-0.3s0.5-0.4,0.7-0.7c0.1-0.2,0.2-0.6,0.2-1.1L374.7,310.1L374.7,310.1z"/>
			<path class="st3" d="M381.4,310.9l1,0.1c-0.1,0.7-0.4,1.3-0.9,1.7s-1,0.6-1.7,0.6c-0.9,0-1.5-0.3-2.1-0.8
				c-0.5-0.6-0.8-1.4-0.8-2.4c0-0.7,0.1-1.3,0.3-1.8s0.6-0.9,1-1.1c0.5-0.3,0.9-0.4,1.5-0.4c0.7,0,1.2,0.2,1.7,0.5
				c0.4,0.3,0.7,0.8,0.8,1.5l-1,0.2c-0.1-0.4-0.3-0.7-0.5-0.9s-0.5-0.3-0.9-0.3c-0.5,0-1,0.2-1.3,0.6s-0.5,1-0.5,1.8
				s0.2,1.4,0.5,1.8s0.7,0.6,1.3,0.6c0.4,0,0.8-0.1,1-0.4C381.2,311.9,381.3,311.5,381.4,310.9z"/>
			<path class="st3" d="M383.4,305.9v-1.2h1.1v1.2H383.4z M383.4,313.2V307h1.1v6.2H383.4z"/>
			<path class="st3" d="M390.1,313.2v-0.8c-0.4,0.6-1,0.9-1.7,0.9c-0.5,0-1-0.1-1.4-0.4s-0.7-0.7-1-1.1c-0.2-0.5-0.3-1.1-0.3-1.7
				s0.1-1.2,0.3-1.7c0.2-0.5,0.5-0.9,0.9-1.2c0.4-0.3,0.9-0.4,1.4-0.4c0.4,0,0.7,0.1,1,0.2s0.5,0.4,0.7,0.6v-3.1h1v8.6L390.1,313.2
				L390.1,313.2z M386.7,310.1c0,0.8,0.2,1.4,0.5,1.8s0.7,0.6,1.2,0.6s0.9-0.2,1.2-0.6c0.3-0.4,0.5-1,0.5-1.7c0-0.9-0.2-1.5-0.5-1.9
				s-0.7-0.6-1.2-0.6s-0.9,0.2-1.2,0.6C386.9,308.7,386.7,309.3,386.7,310.1z"/>
			<path class="st3" d="M396.8,312.5c-0.4,0.3-0.8,0.6-1.1,0.7c-0.4,0.1-0.7,0.2-1.2,0.2c-0.7,0-1.2-0.2-1.6-0.5s-0.6-0.8-0.6-1.3
				c0-0.3,0.1-0.6,0.2-0.8c0.1-0.3,0.3-0.5,0.5-0.6c0.2-0.2,0.5-0.3,0.8-0.3c0.2-0.1,0.5-0.1,0.9-0.2c0.9-0.1,1.5-0.2,1.9-0.4
				c0-0.1,0-0.2,0-0.3c0-0.4-0.1-0.7-0.3-0.9c-0.3-0.2-0.7-0.4-1.2-0.4s-0.9,0.1-1.1,0.3s-0.4,0.5-0.5,0.9l-1-0.1
				c0.1-0.4,0.2-0.8,0.5-1.1c0.2-0.3,0.5-0.5,0.9-0.6s0.9-0.2,1.4-0.2s1,0.1,1.3,0.2s0.6,0.3,0.7,0.5c0.2,0.2,0.3,0.4,0.3,0.7
				c0,0.2,0.1,0.5,0.1,1v1.4c0,1,0,1.6,0.1,1.9c0,0.3,0.1,0.5,0.3,0.7H397C396.9,313,396.8,312.8,396.8,312.5z M396.7,310.1
				c-0.4,0.2-1,0.3-1.7,0.4c-0.4,0.1-0.7,0.1-0.9,0.2s-0.3,0.2-0.4,0.3c-0.1,0.2-0.1,0.3-0.1,0.5c0,0.3,0.1,0.5,0.3,0.7
				c0.2,0.2,0.5,0.3,0.9,0.3s0.8-0.1,1.1-0.3s0.5-0.4,0.7-0.7c0.1-0.2,0.2-0.6,0.2-1.1L396.7,310.1L396.7,310.1z"/>
			<path class="st3" d="M403.4,313.2v-0.8c-0.4,0.6-1,0.9-1.7,0.9c-0.5,0-1-0.1-1.4-0.4s-0.7-0.7-1-1.1c-0.2-0.5-0.3-1.1-0.3-1.7
				s0.1-1.2,0.3-1.7c0.2-0.5,0.5-0.9,0.9-1.2c0.4-0.3,0.9-0.4,1.4-0.4c0.4,0,0.7,0.1,1,0.2s0.5,0.4,0.7,0.6v-3.1h1v8.6L403.4,313.2
				L403.4,313.2z M400.1,310.1c0,0.8,0.2,1.4,0.5,1.8s0.7,0.6,1.2,0.6s0.9-0.2,1.2-0.6c0.3-0.4,0.5-1,0.5-1.7c0-0.9-0.2-1.5-0.5-1.9
				s-0.7-0.6-1.2-0.6s-0.9,0.2-1.2,0.6C400.2,308.7,400.1,309.3,400.1,310.1z"/>
			<path class="st3" d="M405.6,310.6v-1.1h3.2v1.1H405.6z"/>
			<path class="st3" d="M413.2,309c0-1.4,0.4-2.5,1.1-3.4s1.8-1.2,3-1.2c0.8,0,1.5,0.2,2.1,0.6s1.1,0.9,1.5,1.6s0.5,1.4,0.5,2.3
				s-0.2,1.6-0.5,2.3c-0.4,0.7-0.9,1.2-1.5,1.6s-1.3,0.5-2.1,0.5c-0.8,0-1.5-0.2-2.2-0.6c-0.6-0.4-1.1-0.9-1.4-1.6
				C413.3,310.5,413.2,309.8,413.2,309z M414.3,309.1c0,1,0.3,1.9,0.8,2.4c0.6,0.6,1.3,0.9,2.1,0.9c0.9,0,1.6-0.3,2.1-0.9
				c0.6-0.6,0.8-1.5,0.8-2.6c0-0.7-0.1-1.3-0.4-1.8c-0.2-0.5-0.6-0.9-1-1.2c-0.5-0.3-1-0.4-1.5-0.4c-0.8,0-1.5,0.3-2.1,0.8
				S414.3,307.8,414.3,309.1z"/>
			<path class="st3" d="M422.8,313.2v-8.6h1.7l2,6.1c0.2,0.6,0.3,1,0.4,1.3c0.1-0.3,0.2-0.8,0.5-1.4l2.1-6h1.5v8.6h-1.1V306
				l-2.5,7.2h-1l-2.5-7.3v7.3H422.8L422.8,313.2z"/>
			<path class="st3" d="M432.5,310.5l1.1-0.1c0.1,0.4,0.2,0.8,0.4,1.1c0.2,0.3,0.5,0.5,0.9,0.7s0.8,0.3,1.3,0.3
				c0.4,0,0.8-0.1,1.1-0.2s0.6-0.3,0.7-0.5s0.2-0.5,0.2-0.7c0-0.3-0.1-0.5-0.2-0.7s-0.4-0.4-0.8-0.5c-0.2-0.1-0.7-0.2-1.5-0.4
				s-1.3-0.4-1.7-0.5c-0.4-0.2-0.7-0.5-0.9-0.8s-0.3-0.7-0.3-1.1s0.1-0.8,0.4-1.2c0.2-0.4,0.6-0.7,1.1-0.9c0.5-0.2,1-0.3,1.6-0.3
				s1.2,0.1,1.7,0.3c0.5,0.2,0.9,0.5,1.1,0.9c0.3,0.4,0.4,0.9,0.4,1.4l-1.1,0.1c-0.1-0.5-0.3-1-0.6-1.2c-0.3-0.3-0.8-0.4-1.5-0.4
				s-1.2,0.1-1.5,0.4s-0.5,0.6-0.5,0.9s0.1,0.6,0.3,0.8c0.2,0.2,0.8,0.4,1.7,0.6s1.6,0.4,1.9,0.5c0.5,0.2,0.9,0.5,1.1,0.9
				s0.4,0.8,0.4,1.2c0,0.5-0.1,0.9-0.4,1.3s-0.6,0.7-1.1,0.9c-0.5,0.2-1,0.3-1.7,0.3c-0.8,0-1.4-0.1-2-0.3c-0.5-0.2-0.9-0.6-1.2-1
				S432.5,311,432.5,310.5z"/>
			<path class="st3" d="M441,313.2V312h1.2v1.2c0,0.4-0.1,0.8-0.2,1.1c-0.2,0.3-0.4,0.5-0.7,0.6l-0.3-0.5c0.2-0.1,0.4-0.2,0.5-0.4
				c0.1-0.2,0.2-0.5,0.2-0.8L441,313.2L441,313.2z"/>
			<path class="st3" d="M452.6,312.2v1h-5.7c0-0.3,0-0.5,0.1-0.7c0.1-0.4,0.4-0.8,0.7-1.1c0.3-0.4,0.8-0.8,1.4-1.3
				c0.9-0.8,1.6-1.4,1.9-1.8s0.5-0.9,0.5-1.3s-0.1-0.8-0.4-1.1s-0.7-0.4-1.2-0.4s-0.9,0.2-1.2,0.5c-0.3,0.3-0.5,0.7-0.5,1.3
				l-1.1-0.1c0.1-0.8,0.4-1.4,0.8-1.9c0.5-0.4,1.1-0.6,2-0.6c0.8,0,1.5,0.2,2,0.7s0.7,1,0.7,1.7c0,0.3-0.1,0.7-0.2,1s-0.4,0.7-0.7,1
				s-0.9,0.9-1.6,1.5c-0.6,0.5-1,0.9-1.2,1.1s-0.3,0.4-0.4,0.6L452.6,312.2L452.6,312.2z"/>
			<path class="st3" d="M453.8,309c0-1,0.1-1.8,0.3-2.5s0.5-1.1,0.9-1.4s0.9-0.5,1.6-0.5c0.5,0,0.9,0.1,1.2,0.3
				c0.3,0.2,0.6,0.5,0.9,0.8c0.2,0.4,0.4,0.8,0.5,1.3s0.2,1.2,0.2,2c0,1-0.1,1.8-0.3,2.4s-0.5,1.1-0.9,1.4s-0.9,0.5-1.6,0.5
				c-0.8,0-1.5-0.3-2-0.9C454,311.8,453.8,310.6,453.8,309z M454.8,309c0,1.4,0.2,2.4,0.5,2.8c0.3,0.5,0.7,0.7,1.2,0.7
				s0.9-0.2,1.2-0.7s0.5-1.4,0.5-2.8s-0.2-2.4-0.5-2.8c-0.3-0.5-0.7-0.7-1.2-0.7s-0.9,0.2-1.2,0.6C455,306.6,454.8,307.6,454.8,309z
				"/>
			<path class="st3" d="M464.4,313.2h-1.1v-6.7c-0.3,0.2-0.6,0.5-1,0.7s-0.8,0.4-1.1,0.5v-1c0.6-0.3,1.1-0.6,1.5-1s0.8-0.8,0.9-1.1
				h0.7L464.4,313.2L464.4,313.2z"/>
			<path class="st3" d="M470.2,313.2h-1.1v-6.7c-0.3,0.2-0.6,0.5-1,0.7s-0.8,0.4-1.1,0.5v-1c0.6-0.3,1.1-0.6,1.5-1s0.8-0.8,0.9-1.1
				h0.7L470.2,313.2L470.2,313.2z"/>
			<path class="st3" d="M473.9,315.8h-0.8c1.2-1.9,1.8-3.8,1.8-5.6c0-0.7-0.1-1.5-0.3-2.2c-0.1-0.6-0.3-1.1-0.6-1.7
				c-0.2-0.4-0.5-0.9-0.9-1.8h0.8c0.7,1,1.3,2,1.6,3c0.3,0.9,0.5,1.7,0.5,2.7c0,1.1-0.2,2.1-0.6,3.1
				C474.9,314.2,474.5,315,473.9,315.8z"/>
		</g>
	</g>
	<g>
		<path class="st3" d="M111.5,151.6c0.7-1.4,1.7-1.3,2.8-0.5c-0.6,0.5-1.2,0.9-1.8,1.5c0.6,0.4,1,0.7,1.4,0.9
			c0.5,0.2,0.8,0.6,0.7,1.2c0,0.3,0,0.5,0,1c-1.1-0.6-2.1-1.2-3-1.7c-1.9,1.9-3.9,3.9-6,6c1.3,0.9,2.7,1.8,4.1,2.8
			c-0.1,0.4-0.3,0.8-0.5,1.4c-1.8-0.8-3.3-1.9-4.6-3c-2,2-3.9,4-5.9,5.9c1.8,1.7,3.8,3.1,6.1,4.3c3.1,1.6,6.3,2.7,9.7,3.1
			c0.4,0.1,0.7,0.2,0.6,0.7c0,0.3,0,0.6,0,1c-5.6-0.6-10.6-2.6-15.1-5.9c-0.1,0-0.1,0.1-0.1,0.1c-0.3,1.2-0.3,1.2-1.5,1.2
			c-0.2,0-0.4,0-0.6,0c-0.9-0.1-1.7,0.1-2.2,0.9c-0.1,0.2-0.6,0.3-0.8,0.2c-1.3-0.5-2.2,0.2-2.9,1.2c-0.1,0.1-0.1,0.2-0.3,0.3
			c6.7,6.2,14.6,9.7,23.8,10.6c0,0.2,0,0.5,0,0.7s0,0.5,0,0.8c-4.7-0.4-9.2-1.5-13.4-3.4c-4.2-1.9-8.1-4.4-11.4-7.5
			c-2,2-3.9,3.9-6,6c9.1,8.4,19.8,13.1,32.4,13.4c13.7,0.4,25.5-4.4,35.6-13.7c-1.2-1.2-2.4-2.3-3.5-3.5c-0.7-0.7-1.4-1.4-2.1-2.1
			c-0.3-0.3-0.5-0.3-0.9,0c-3.7,3.4-7.8,6-12.4,7.9c-3.7,1.5-7.6,2.4-11.6,2.8c-0.2,0-0.3,0-0.5,0c-0.1,0-0.2,0-0.2,0
			c0-0.1-0.1-0.1-0.1-0.2c0-1.2,0-1.2,1.2-1.4c1.6-0.3,3.3-0.6,4.9-0.8c1.1-0.2,1.7-0.8,1.8-1.9c0.4-3.4-0.1-6.7-2.6-9.3
			c-1.2-1.3-2.7-2.3-4.3-3.1c-0.5-0.3-0.7-0.6-0.7-1.2c0.1-1,0.1-2.1,0.1-3.1c0-0.5,0.2-0.6,0.6-0.8c1.7-0.6,3.3-1.1,4.9-1.8
			c2.2-1,3.9-2.5,4.8-4.8c1.3-3.5,0.5-7.9-3.5-10.7c-1.8-1.3-3.9-2.1-5.9-2.8c-0.2-0.1-0.4-0.3-0.4-0.5c0-2.7,0-5.4,0.1-8.2
			c1.3,0.7,2.5,1.2,4,0.8c-0.1-0.2-0.3-0.5-0.5-0.7s-0.4-1-0.2-1.2c0.3-0.4,0.5-0.7,0.8-1.1c0.1-0.1,0.3-0.1,0.5-0.2
			c0,0.1,0.1,0.1,0.1,0.2c-0.4,0.4-0.9,0.8-1.3,1.2c0,0,0,0.1,0.1,0.1c0.2,0,0.4-0.1,0.5-0.2c0.9-0.8,1.9-0.7,3-0.7
			c0.1,0,0.3,0,0.3-0.1c0.7-0.7,1.4-1.4,2.1-2.1c-0.4-0.5-1.2-0.6-1.8,0c-0.5,0.5-1,0.7-1.6,0.7c-0.2,0-0.4-0.1-0.6-0.3
			c0.5-0.2,1-0.7,1.4-0.2c0.4-0.3,0.7-0.6,1.1-0.9c0.4-0.3,0.2-0.5-0.1-0.7c1.4-0.8,1.4-0.8,2.8,0.3c1.9-2,3.8-3.9,5.7-6
			c-0.4-0.3-0.2-0.6,0-1c0.4-0.6,0.7-1.3,1.1-2.1c0.2,0.4,0.5,0.8,0.8,1.3c0.6-0.6,1.2-1.2,1.8-1.8c0.1-0.1,0-0.3,0-0.4
			c-0.1-0.2-0.3-0.4-0.4-0.7c0.3-0.1,0.6-0.2,0.9-0.3c-0.6-0.8-1.2-1.5-1.8-2.3c-0.1-0.2-0.3-0.4-0.3-0.7c-0.3-4.3-0.3-4.5-2.2-8
			c0.3-0.2,0.6-0.4,1-0.5c0.1-0.1,0.3,0,0.5,0.1c1.3,0.6,2.6,1.2,3.7,2c0.8,0.6,1.6,1.3,1.9,2.4c0.1,0.7,0.3,1.4,0.5,2.2
			c0.4,0.2,1.7-0.4,1.4,0.9c1.7-1.7,3.5-3.5,5.4-5.4c-3.9-3.8-8.4-6.9-13.4-9.3c-5.1-2.4-10.4-3.8-16-4.4c0.1-0.3,0.1-0.6,0.1-0.8
			c0-0.2,0.1-0.4,0.2-0.7c0.9,0.1,1.8,0.2,2.7,0.3c8.6,1.4,16.3,4.7,23.2,10.1c9.7,7.7,16,17.6,18.6,29.7c1,4.6,1.3,9.2,1,13.9
			c-1.4,19.9-14.1,36.6-31.7,43.7c-4.6,1.9-9.4,3.1-14.3,3.4c-15.3,1.2-28.6-3.4-39.7-13.9c-7.7-7.3-12.6-16.3-14.7-26.7
			c-0.9-4.5-1.2-9.1-0.8-13.7c1-12.3,5.8-23,14.5-31.8c6.9-7,15.2-11.7,24.8-13.9c1.8-0.4,3.6-0.7,5.4-1c0.6-0.1,0.8,0.1,0.9,1.1
			c0,0.6-0.4,0.4-0.7,0.5c-5.3,0.6-10.4,2.1-15.2,4.4c-4.7,2.2-8.9,5.1-12.6,8.6c-0.2,0.2-0.3,0.3-0.5,0.5c0,0-0.1,0.1,0,0.1
			c2,2,3.9,3.9,5.9,5.9c2.4-2.3,5.2-4.4,8.1-6c-0.4,0.8-0.8,1.7-1.2,2.5c-0.1,0.2-0.3,0.3-0.5,0.4c-1.6,1.3-3.2,2.5-4.8,3.8
			c-0.2,0.2-0.4,0.3-0.6,0.5c1.2,1.2,2.3,2.2,3.4,3.3c-1,0.8-1.7,0.7-2.4,0c-0.6-0.6-1.3-1.3-1.9-1.9c0,0-0.1,0-0.2-0.1
			c-3.2,3.3-5.7,7.2-7.6,11.4c-2.1,4.8-3.1,9.8-3.2,15c2.8,0,5.6,0,8.4,0c0.1-3.8,0.8-7.5,2.3-11c1.4-3.5,3.5-6.7,6.1-9.5
			c-1.1-0.8-0.1-1.4,0.1-2.1c0.4,0.3,0.7,0.6,1,1c4.3-4,9.3-6.7,15-7.9c0.6-0.1,1.2-0.2,1.8-0.3c0,0.6,0,1,0,1.6
			c-6,1-11.2,3.6-15.6,7.7c2,2,3.9,3.9,5.7,5.7c-0.7,1.5-1.4,2.7-1.7,4.1c-1.1,4.4-0.6,8.5,2.6,11.9c1.3,1.4,2.8,2.4,4.5,3.2
			c0.5,0.2,0.9,0.5,1.1,1C110.7,150.5,111.1,151,111.5,151.6z M82.8,111.3c-5.2,5.4-8.9,11.7-11.3,18.8c-1.6,4.8-2.3,9.6-2.4,14.7
			c2.8,0,5.6,0,8.4,0c0.3-10.6,4-19.8,11.2-27.6C86.7,115.2,84.8,113.3,82.8,111.3z M159.1,146.4c-0.4,10.6-4.3,19.6-11.4,27.2
			c2,2,4,3.9,5.9,5.9c0.1-0.1,0.2-0.2,0.3-0.3c1.2-1.4,2.5-2.8,3.6-4.3c6.3-8.3,9.5-17.6,10-28c0-0.4-0.1-0.6-0.5-0.6
			c-0.9,0-1.7,0-2.6,0C162.7,146.4,160.9,146.4,159.1,146.4z M167.5,144.8c-0.3-12.9-4.9-24-13.5-33.4c-2,2-4,4-6,6
			c1.2,1.2,2.5,2.4,3.7,3.7c0.2,0.2,0.5,0.4,0.7,0.7c1,1.5,1.9,3,2.9,4.5c0.1,0.2,0.1,0.4,0.2,0.7c-0.3-0.1-0.5-0.1-0.8-0.2
			c2.9,5.7,4.3,11.7,4.4,18C161.9,144.8,164.7,144.8,167.5,144.8z M77.5,146.4c-0.3,0-0.5,0-0.7,0c-2.3,0-4.6,0-6.9,0
			c-0.8,0-0.8,0-0.8,0.8c0.2,2.3,0.4,4.6,0.8,6.8c1.7,9.5,5.9,17.7,12.4,24.8c0.3,0.3,0.5,0.6,0.8,1c2-2,3.9-3.9,5.8-5.8
			c0.3-0.3,0.1-0.5-0.1-0.7c-1.9-2-3.6-4.2-5.1-6.5c-0.1-0.1-0.2-0.3-0.3-0.4c-0.1,0.4-0.2,0.7-0.3,1.1c-0.6,0-1-0.3-1.3-0.8
			s-0.6-1.1-0.9-1.6c-0.1-0.2-0.4-0.4-0.6-0.5c-0.6-0.2-0.9-0.6-0.9-1.2c0-0.2,0-0.4-0.1-0.7c-0.2,0.1-0.3,0.1-0.4,0.2
			c-0.6,0.3-1.4,0-1.6-0.7c-0.1-0.2-0.3-0.3-0.5-0.6c-0.1,0.6-0.1,1-0.1,1.4c-0.9-0.5-0.8-2-2.2-2c-0.1,0.5-0.2,0.9-0.2,1.4
			c0.1,0.5,0.3,1.1,0.5,1.5c0.3,0.6,0.6,1.2,1,1.9l-0.1,0.1c-0.1-0.2-0.3-0.3-0.4-0.5c-0.5-1.1-1.1-2.2-1.6-3.2
			c-0.6-1.2-1-2.4-1-3.8c0-0.3,0.1-0.6,0.1-1c0.2-0.7,0.8-0.8,1.4-1.1c0.4-0.2,0.7-0.2,0.9,0.3c-0.1,0.2-0.2,0.4-0.4,0.6
			c0.7,0.1,1.3,0.2,2.1,0.4c-0.2-0.4-0.4-0.6-0.6-0.9c1.1,0.1,2.2,0,3.1,0.8C78.2,153.7,77.7,150.1,77.5,146.4z M149.1,146.4
			c-0.4,7.8-3.2,14.5-8.5,20.1c0.9,0.9,1.7,1.7,2.6,2.6c0.6-0.8,0.2-1.9,0.7-2.8c0.4,0.1,0.8,0.2,1.1,0.4c0,0.2-0.1,0.4-0.1,0.5
			c0.7,0.6,0.5,1.5,0.7,2.3c0.2,0.7,0.4,1.4-0.4,1.8c0.4,0.4,0.8,0.8,1.3,1.3c0.1-0.2,0.2-0.4,0.4-0.6c6.5-7.1,10-15.4,10.6-25
			c0-0.5-0.1-0.7-0.6-0.7c-2.2,0-4.4,0-6.7,0C149.9,146.4,149.5,146.4,149.1,146.4z M148.7,135.9c-0.3-2.2-0.5-4.3-1.5-6.2
			c-0.7-1.5-1.7-2.8-2.5-4.2c-0.1-0.2-0.2-0.4-0.3-0.6c0.1,0,0.1-0.1,0.2-0.1c0.6,0.4,1.1,0.8,1.7,1.2c0,0.1-0.1,0.1-0.1,0.2
			c-0.2,0-0.3,0-0.6,0c0.2,0.3,0.4,0.6,0.6,0.9c1.2,1.5,2.1,3.2,2.5,5.1c0.3,1.6,0.8,3.2,0.2,4.8c-0.5,1.3-0.5,2.5-0.2,3.8
			c0.1,0.3,0.1,0.6,0.1,0.9c0.1,1.1,0.2,2.1,0.3,3.2c2.8,0,5.6,0,8.4,0c0-0.2,0-0.4,0-0.6c-0.2-5.1-1.2-9.9-3.3-14.5
			c-0.4-0.8-0.4-0.9-1.2-0.5c-0.5,0.2-0.8,0.1-1.1-0.3c-0.7-0.9-1.4-1.7-2.2-2.5c-0.4-0.5-0.7-1.2-1.6-1.1c-0.1,0-0.2-0.1-0.3-0.2
			c-0.6-0.4-1.2-0.8-1.8-1.1c-0.3-0.2-0.5-0.4-0.4-0.8c0.1-0.5-0.2-0.9-0.6-0.9c-0.5-0.1-0.9-0.1-1.4-0.1c-0.2,0-0.5,0.1-0.7,0.3
			c-0.6,0.6-1.2,1.2-1.8,1.7c-0.2,0.2-0.3,0.4-0.1,0.6c0.9,1.1,1.8,2.2,2.6,3.3c0,0.1,0.1,0.1,0.2,0.1c0.1-0.3,0.3-0.5,0.4-0.8
			c0.8,0.4,0,1,0.2,1.4c0.3,0,0.5-0.1,0.7-0.1c-0.1,0.4-0.2,0.7-0.3,1.1c0,0-0.1,0-0.2,0c0,0.1-0.1,0.1-0.1,0.2
			c0.3,0.3,0.6,0.8,1,0.9c0.6,0.1,0.8,0.4,0.8,0.9s0.1,0.9,0.4,1.3c0.1,0.2,0.1,0.4,0.1,0.6c0,0.3-0.1,0.6,0,0.8
			c0.2,0.4,0.4,0.8,0.6,1.2C147.9,136,148.2,136.1,148.7,135.9z M89.1,144.8c1.2,0,2.2,0,3.3,0c0.4,0,0.6-0.2,0.6-0.6
			c0-0.6,0.2-1.1,0.6-1.5c0.3-0.3,0.5-0.6,0.2-1c-0.1-0.1,0-0.4,0.1-0.5c0.5-0.9,0.9-1.8,1.4-2.6c0.1-0.2,0.4-0.3,0.5-0.3
			c0.7,0.1,1.2-0.1,1.7-0.6c0.2-0.2,0.5-0.3,0.8-0.4c0.4-0.2,0.9-0.4,1.2-0.9c-0.7,0.1-1.3,0.2-1.8,0.3c0-0.1-0.1-0.1-0.1-0.2
			c0.4-0.2,0.7-0.4,1.1-0.5c0.8-0.2,1.4-0.4,1.8-1.3c0.3-0.8,0.9-1.4,1.4-2.1c0.3-0.5,0.7-0.9,1-1.2c-2-2-3.9-3.9-5.9-5.9
			C91.9,130.9,89.3,137.3,89.1,144.8z M141,146.4c0.4,0.8,0.7,1.5,1.1,2.2c0.1,0.1,0.3,0.2,0.5,0.3c0.8,0.3,1.6,0.1,2.5-0.3
			c0,0.4,0,0.6,0,0.9c-0.3,0-0.5-0.1-0.8-0.1c-0.2,0-0.3-0.1-0.6-0.2c0.2,0.6,0.3,1,0.4,1.4c-0.8,0.3-1.6,0.7-2.4,0.8
			c-0.8,0.1-1.7,0-2.5,0c0.3,0.5,0.3,0.8-0.4,1c-0.5,0.1-0.9,0.5-1.2,0.9c-0.6,0.8-1,1.7-1.5,2.6c-0.1,0.1,0,0.3,0,0.4
			c0.1-0.1,0.3-0.1,0.4-0.2c0.4-0.4,0.7-0.3,0.9,0.2c0.3,0.9,0.4,1.7,0,2.6c-0.1,0.2-0.1,0.4-0.1,0.6c0,0.3,0,0.5-0.1,0.8
			c-0.3,0.7-0.7,1.3-1.1,2c0.2,0.2,0.5,0.5,0.8,0.7c0.5-0.7,0.9-1.3,1.3-1.9c0.1,0.1,0.1,0.1,0.1,0.1c0.1,0.5,0.3,1,0.4,1.5
			c0.1,0.4,0.1,0.8,0,1.2c-0.2,0.9-0.1,1.1,0.8,1.6c0.5-0.6,1.1-1.2,1.6-1.8c0.9-1.3,1.8-2.5,2.6-3.9c2.3-3.9,3.5-8.2,3.8-12.7
			c0-0.4-0.1-0.6-0.6-0.6c-0.8,0-1.6,0-2.3,0C143.4,146.4,142.3,146.4,141,146.4z M96.1,150.5c-0.1,0-0.2,0-0.2,0.1
			c-0.1-0.5-0.3-0.9-0.3-1.4c0-0.4,0.2-0.8,0.3-1.2c0.3-1.4,0.2-1.7-1.3-1.6c-0.1,0-0.3,0-0.4,0c-0.2,0.1-0.4,0.2-0.6,0.3
			s-0.5,0.3-0.7,0.3c-0.7,0.1-1.3,0.8-0.9,1.4c0.3,0.5,0.3,1,0,1.5c-0.2,0.4,0,0.5,0.3,0.7c0.4,0.3,0.7,0.6,0.9,0.9
			c0.3,0.4,0.5,0.8,0.6,1.2c0.1,0.3,0.2,0.6,0.1,0.8c-0.1,0.5-0.1,1,0.2,1.4c0.6,0.9,0.8,1.8,0.8,2.8s0.2,2,0.7,3
			c0.2,0.4,0.2,0.9,0.2,1.4s-0.2,1.1,0,1.5c0.4,0.7,1,1.2,1.5,1.8c2-2,4-4,6-6c-1.6-1.7-3-3.8-4-6c-1-2.3-1.5-4.6-1.7-7.1
			c-0.5,0-0.9,0-1.3,0C96.8,147.8,95.8,149.1,96.1,150.5z M136.4,133.4c0.3,0,0.5,0,0.9-0.1c-0.3,0.3-0.5,0.4-0.6,0.5
			c0.7,0.8,1.4,1.6,2.1,2.4c0.1,0.1,0.4,0.2,0.6,0.2c0.2,0,0.3-0.1,0.5-0.1c0,0.2,0.1,0.4,0.1,0.6c-0.4-0.1-0.6-0.1-0.8-0.2
			c0,0.2-0.1,0.5,0,0.7c0.2,0.3,0.5,0.6,1,1c0.3-0.7,0.6-1.2,0.8-1.7s1.1-0.9,1.4-0.5c0.4,0.4,0.9,0.9,1.1,1.1c-0.3,1-0.6,1.9-1,2.8
			c0.4,0.1,0.9,0.3,1.1,0.1c0.4-0.4,1.1-0.5,1.1-1.2c0-0.5,0.3-0.9,0.7-1.2c0.3-0.2,0.6-0.7,0.5-1c-0.5-1.9-1-3.8-3.1-4.6
			c-0.3-0.1-0.4-0.4-0.4-0.7c0-0.5,0.1-0.9,0.7-1c-1.1-1.8-2.2-3.4-3.6-4.8c-2,2-3.9,3.9-5.9,5.9c0.5,0.7,1,1.5,1.6,2.2
			c0.2,0.2,0.6,0.2,1,0.3C136.5,133.7,136.4,133.6,136.4,133.4z M87.5,146.4c-0.2,0-0.3,0-0.4,0c-2.5,0-5,0-7.5,0
			c-0.5,0-0.5,0.3-0.5,0.6c0.2,3.2,0.7,6.3,1.6,9.3c0.3,1,0.6,1.2,1.6,0.9c0.1,0,0.3-0.1,0.4-0.1c1.8-0.6,1.8-0.6,1.6-2.5
			c-0.1-1.1,0-2.2,0.9-3c0.2-0.2,0.4-0.5,0.6-0.7c0.3-0.4,0.6-0.8,0.7-1.3c0.1-0.4,0.3-0.5,0.6-0.6c0.2-0.1,0.4-0.3,0.4-0.4
			C87.6,147.8,87.6,147.1,87.5,146.4z M104.3,158.5c2-2,4-4,5.9-5.9c-0.6-0.9-1.2-1.8-1.8-2.7c-1,2.5-1,2.5-1.8,2.8
			c-0.2-0.3-0.3-0.6-0.5-1c0.4-0.1,0.8-0.2,1.2-0.4c-0.5-0.6-0.9-1.1-1.5-1.9c-0.3,0.8-0.5,1.3-0.8,1.9c-0.2-0.1-0.5-0.3-0.9-0.5
			c0.1-0.2,0.2-0.3,0.3-0.5c-0.4-0.3-0.8-0.7-1-0.7c-0.7,0.1-1-0.4-1.4-0.6c-0.2-0.1-0.5-0.4-0.7-0.3c-0.7,0.1-1.2-0.2-1.6-0.8
			c-0.1-0.1-0.3-0.2-0.4-0.4C99.8,151.8,101.5,155.4,104.3,158.5z M138.5,174.4c0.3,0.2,0.4,0.3,0.6,0.4c0.7,0.4,0.7,0.7,0.1,1.2
			c-0.2,0.2-0.4,0.3-0.5,0.5c-0.1,0.1-0.1,0.4-0.1,0.5c0,0.3,0,0.6-0.1,0.9c-0.1,0.4-0.3,0.7-0.4,1l0.1,0.1c2.6-1.5,5-3.3,7-5.3
			c-2-2-4-4-5.9-5.9c-0.4,0.4-0.9,0.8-1.4,1.3c0.3,0.3,0.6,0.9,0.9,0.9c1,0,1.3,0.8,1.8,1.2C139.8,172.3,139.2,173.4,138.5,174.4z
			 M141.6,141.5c0,0.1,0,0.2,0.1,0.2c0.1,0.1,0.2,0.1,0.3,0.2c0.1,0.2,0.3,0.3,0.4,0.5c-0.2,0.1-0.4,0.2-0.6,0.3
			c-0.3,0.1-0.6,0.2-0.8,0.4c-0.3,0.2-0.5,0.5-0.7,0.7c-0.1,0.2-0.3,0.5-0.2,0.6c0.1,0.2,0.4,0.3,0.6,0.3c2,0,4,0,6,0
			c0.2,0,0.5,0,0.9,0c-0.1-1.5-0.3-2.9-0.4-4.3c-0.1,0-0.1,0-0.2,0c-0.3,0.4-0.6,0.7-0.9,1.1c-0.1-0.3-0.1-0.5-0.1-0.7
			c0.2-0.5,0.3-1.1,0.6-1.6c0.3-0.6,0.1-1.1-0.2-1.7c-0.1,0.2-0.1,0.3-0.2,0.4c-0.1,0.8-0.4,1.5-1.2,1.9c-0.1,0-0.2,0.2-0.2,0.3
			c-0.1,0.4-0.5,0.5-0.9,0.6C143.2,140.9,142.4,141.2,141.6,141.5z M97.5,144.8c0.1-0.6,0.1-1.2,0.2-1.7c0.2-1.6,0.3-1.4-1.3-1.7
			c-0.6-0.1-1.3,0.1-1.5,0.5c-0.3,0.5-0.3,1.2-0.1,1.8c0.1,0.4,0.6,0.9,1,1.1C96.2,144.9,96.9,144.8,97.5,144.8z M91.9,149.2
			c-0.8-0.5-0.8-1.1-0.4-1.9c0.1-0.3,0.1-0.6,0.2-1c-0.8,0-1.5,0-2.2,0c-0.1,0-0.4,0.3-0.4,0.4c0.1,1.1,0.2,2.2,0.4,3.3
			c0,0.1,0.2,0.3,0.3,0.3c0.7,0.2,1.3,0,1.7-0.7C91.6,149.7,91.7,149.5,91.9,149.2z M134,135.5c0-0.4,0.2-0.8,0.1-1.1
			c-0.4-0.7-0.9-1.2-1.3-1.8c-1,0.5-1.2,1.3-1.2,2.2c0,0.3,0.4,0.6,0.6,0.9c-0.1,0.1-0.3,0.2-0.5,0.3c0.4,0.2,0.7,0.4,1.1,0.6
			c0.1-0.2,0.2-0.4,0.3-0.6c-0.2-0.3-0.4-0.5-0.5-0.7c0-0.1,0.1-0.1,0.1-0.2C133.1,135.2,133.5,135.3,134,135.5z M130.5,162.1
			c0.6,0.4,1.1,0.7,1.7,1c0.1,0.1,0.3,0.1,0.5,0.1c0.3,0,0.6,0,0.8,0c0.3,0.1,0.7,0.2,1,0.3c0.1,0,0.3,0,0.4-0.1
			c0-0.1,0-0.3-0.1-0.4c-0.1-0.1-0.2-0.3-0.4-0.3c-0.8-0.5-1.6-1-2.4-1.5c-0.1-0.1-0.3-0.1-0.4,0
			C131.2,161.6,130.9,161.9,130.5,162.1z M88.4,170.7c0.6,0.7,1.2,1.3,1.7,1.9c0.5-0.5,1-0.8,1.5-1.2c-0.1-0.1-0.1-0.2-0.2-0.2
			c-0.4-0.3-0.8-0.5-1.2-0.8C89.3,169.9,89.3,169.9,88.4,170.7z"/>
		<path class="st3" d="M122.4,203.7c2.1,1.4,4.3,2.8,6.4,4.3c2.1,1.5,3.9,3.3,5.7,5.4c-1.2,0.2-2.3,0.3-3.4,0.4
			c-0.2,0-0.4-0.3-0.5-0.5c-2.2-3.6-5.2-6.4-9.1-8.1c-3.5-1.5-3-1.5-6.6,0c-3.9,1.6-6.8,4.4-9,8c-0.3,0.5-0.6,0.6-1.1,0.5
			c-0.9-0.2-1.8-0.3-2.8-0.4c3.5-4,7.6-7.1,12.1-9.7c-0.5,0-0.9,0-1.4,0c-3.4,0.2-6.7,1.2-9.9,2.1c-3,0.9-6.1,1.9-9.2,2.4
			c-5.9,1-11.8,0.9-17.5-1.5c-2.1-0.9-4-2.1-5.7-3.6c1.2,0.3,2.4,0.7,3.6,1c2.6,0.5,5.1,0.4,7.7-0.1c3.8-0.8,7.6-1.7,11.5-2.6
			c4.1-0.9,8.3-1.5,12.5-1.5c4.1,0,8,0.7,11.9,2c0.4,0.1,0.8,0.1,1.2,0c4.9-1.7,9.9-2.2,15-1.9c5.2,0.4,10.2,1.6,15.2,2.9
			c3.2,0.8,6.4,1.5,9.7,1.5c2.2,0,4.4-0.3,6.5-1.1c0.2-0.1,0.5-0.2,0.8-0.2c-0.5,0.4-1.1,0.8-1.6,1.2c-3.4,2.5-7.3,3.8-11.5,4.3
			c-6.2,0.6-12.2-0.4-18.1-2.3c-2.8-0.9-5.8-1.6-8.7-2.3c-1.2-0.3-2.5-0.3-3.8-0.4C122.4,203.6,122.4,203.6,122.4,203.7z"/>
		<path class="st3" d="M122.9,102.3c1.9,0.1,3.6,0.4,5.3,1c3.2,1.1,5.9,2.7,8.1,5.3c4.1,5,3.4,14.4-4,18.3c-2.8,1.5-5.9,2.4-9,3.2
			c-2.8,0.7-5.5,1.4-8.3,2.3c-1.1,0.4-2.2,1-3.1,1.7c-2.3,1.9-2.3,5.2,0,7.2c0.6,0.6,1.4,0.9,2.1,1.4c0.2,0.1,0.4,0.4,0.4,0.5
			c0,1.9,0,3.8,0,5.7c-0.1,0-0.3-0.1-0.4-0.1c-2.2-0.7-4.3-1.5-6.2-2.8c-3.3-2.2-4.6-5.4-4.3-9.3c0.3-4.7,3-7.6,7-9.4
			c2.9-1.3,6.1-2,9.2-2.8c2.8-0.7,5.5-1.3,8.1-2.7c1.9-1,3.4-2.3,3.9-4.5c0.7-3-0.3-5.7-2.9-7.5c-1.8-1.2-3.8-1.8-5.9-2.1
			C122.9,106.1,122.9,104.2,122.9,102.3z"/>
		<path class="st3" d="M115.7,123.8c0-1.7,0-3.2,0-4.8c-0.1-6.9-0.3-13.8-0.5-20.6c-0.1-1.8-0.5-3.6-0.8-5.4s-0.5-3.7-0.1-5.5
			c0.6-2.9,3.9-4.2,6.4-2.6c1,0.6,1.4,1.6,1.6,2.7c0.3,1.7,0.1,3.5-0.3,5.2c-1,4-0.9,8.1-1,12.2c-0.1,5.7-0.3,11.5-0.4,17.2
			c0,0.2-0.1,0.5-0.2,0.5C118.9,123,117.4,123.3,115.7,123.8z"/>
		<path class="st3" d="M57.4,188c2.6,2.6,5.9,3.7,9.3,4.5c3.6,0.8,7.1,1.4,10.7,2.3c1.8,0.4,3.4,1.3,5.1,1.9
			c0.1,0.1,0.3,0.1,0.6,0.2c-0.8-0.9-1.5-1.7-2.2-2.5c-2.5-2.9-4-6.3-4.6-10.1c-0.3-1.6-0.7-3.2-1.1-4.7c0.6,0.5,1.3,1.2,1.9,1.8
			c2.8,2.8,5.5,5.7,7.3,9.2c0.6,1.1,1.1,2.3,1.5,3.5c0.9,2.3,1.7,4.6,3.2,6.7c-2.9-0.7-5.7-0.3-8.5-0.2c-5.5,0.1-10.9-0.6-15.6-3.8
			C61.7,194.6,59.3,191.5,57.4,188z"/>
		<path class="st3" d="M161.5,179.6c-1,1.8-1.2,3.9-1.5,5.8c-0.8,4.1-2.8,7.5-5.7,10.5c-0.3,0.3-0.5,0.6-0.9,1
			c0.2-0.1,0.3-0.1,0.4-0.1c3-1.6,6.3-2.4,9.7-3.1c3.2-0.7,6.4-1.4,9.6-2.2c2.3-0.6,4.4-1.8,6.1-3.6c-0.9,1.8-2,3.4-3.2,4.9
			c-3.6,4.3-8.1,6.7-13.7,7.5c-3.3,0.5-6.6,0.3-9.9,0.2c-1.7-0.1-3.3-0.1-5.1,0.4c1.7-2.3,2.5-4.8,3.4-7.3c1.5-4,4-7.3,6.9-10.4
			c1.2-1.3,2.5-2.5,3.8-3.7C161.4,179.5,161.4,179.5,161.5,179.6z"/>
		<path class="st3" d="M169.8,165.9c-0.4,2.2-0.1,4.3,0,6.5c0.2,3.3,0.2,6.6-1,9.8c-0.4,1.1-1,2.1-1.5,3.3c0.1-0.1,0.3-0.2,0.4-0.3
			c2-1.9,4.4-3.2,6.8-4.5c2.1-1.2,4.3-2.3,6.4-3.6c3-1.8,5.5-4.1,7.4-7.2c-0.2,0.6-0.4,1.3-0.6,1.9c-0.2,0.7-0.4,1.3-0.7,2
			c-1.2,3.2-2.8,6.1-5.1,8.6c-2.6,2.8-5.9,4.7-9.5,5.7c-2.5,0.8-5.1,1.3-7.7,2.1c-1.3,0.4-2.6,1-3.7,1.4c0.5-1.1,1.2-2.3,1.7-3.6
			c0.8-2.1,1.1-4.3,1.4-6.5c0.7-5.5,2.5-10.5,5.6-15.1C169.6,166.1,169.7,166.1,169.8,165.9z"/>
		<path class="st3" d="M69.1,185.3c-0.6-1.5-1.3-3.1-1.8-4.8c-0.8-2.6-0.6-5.4-0.5-8.1c0.1-2.1,0.4-4.3,0.1-6.4
			c0.8,1.5,1.7,2.9,2.5,4.4c1.8,3.5,2.7,7.2,3.2,11.1c0.5,3.6,1.2,7.1,3.3,10.1c-3.3-1.9-7.1-2.3-10.7-3.3c-3.7-1.1-7-2.7-9.8-5.4
			c-2.6-2.6-4.4-5.8-5.7-9.2c-0.5-1.3-0.9-2.6-1.3-4c0.1,0,0.1,0,0.1,0c1.8,3.2,4.5,5.6,7.6,7.4c2.3,1.4,4.7,2.7,7.1,4
			C65.3,182.4,67.4,183.7,69.1,185.3z"/>
		<path class="st3" d="M60.9,172.9c-0.1-0.6-0.2-1.3-0.4-1.9c-1-5.1-0.4-10,1.3-14.8c0.6-1.6,0.9-3.2,1.3-4.9c0.2,0.5,0.3,1,0.5,1.5
			c1.2,3.8,1.3,7.6,0.8,11.5c-0.3,2.9-0.6,5.8-0.6,8.6c0,2.2,0.5,4.4,0.7,6.5c-2.4-2.5-5.8-4.2-8.7-6.3c-3.7-2.7-6.8-5.9-8.7-10.1
			c-1.5-3.3-2.2-6.8-2.3-10.5c0-0.1,0-0.1,0.1-0.2c0.2,0.5,0.4,0.9,0.7,1.4c1.3,2.5,3.1,4.5,5,6.5c3,3.1,6,6.2,8.3,9.8
			c0.6,1,1.2,2,1.8,3C60.8,172.9,60.8,172.9,60.9,172.9z"/>
		<path class="st3" d="M175.7,172.9c0.1-0.1,0.2-0.2,0.2-0.3c2.1-3.9,5-7.3,8-10.5c2-2.2,4-4.4,5.8-6.7c0.8-0.9,1.2-2.1,1.9-3.3
			c-0.1,1.1-0.1,2.1-0.2,3.2c-0.5,3.8-1.6,7.4-3.8,10.6c-2.1,3.1-4.8,5.5-7.9,7.6c-2,1.4-4,2.7-6,4.1c-0.7,0.5-1.3,1.1-2,1.7
			c0.2-1.4,0.5-2.8,0.7-4.3c0.3-2.2,0.2-4.4,0-6.6c-0.3-2.9-0.6-5.8-0.7-8.7c-0.1-2.9,0.5-5.7,1.5-8.4c0-0.1,0.1-0.1,0.1-0.3
			c0.2,1,0.3,1.9,0.6,2.7c0.6,2.1,1.3,4.1,1.8,6.2c1,3.9,0.8,7.9-0.1,11.8c-0.1,0.3-0.1,0.6-0.2,1
			C175.6,172.9,175.7,172.9,175.7,172.9z"/>
		<path class="st3" d="M55.7,157.2c0-0.7,0-1.5,0-2.2c0-4.8,1.3-9.1,4.4-12.9c1.2-1.5,2.3-3.1,3.4-4.7c0,0.9,0,1.8,0,2.8
			c-0.2,3.7-1.3,7.2-2.8,10.5c-1.1,2.4-2.3,4.7-2.8,7.4c-0.4,1.8-0.5,3.6-0.8,5.4c0.1,0,0.1,0,0.1,0c-1.3-2.8-3.6-4.9-5.7-7.2
			c-2.4-2.6-4.4-5.4-5.2-8.9c-0.7-2.7-0.7-5.5-0.4-8.3c0.2-1.3,0.4-2.7,0.7-4c0.2,3.5,1.8,6.4,3.5,9.3c2.2,3.8,4.2,7.6,5.4,11.8
			c0.1,0.3,0.2,0.6,0.3,0.9C55.6,157.2,55.6,157.2,55.7,157.2z"/>
		<path class="st3" d="M173,137.4c1.6,2.3,3.3,4.6,4.9,6.9c1.8,2.6,2.6,5.6,2.8,8.8c0.1,1.2,0.1,2.5,0.1,3.7c0,0.1,0,0.3,0,0.3
			c0.7-1.9,1.2-3.9,2.1-5.8c1.4-2.9,2.9-5.6,4.5-8.4c1.1-2.1,2.2-4.3,2.5-6.7c0-0.4,0.1-0.7,0.2-1.1c0.2,1.3,0.5,2.7,0.6,4
			c0.4,3,0.3,6-0.6,8.9c-0.8,2.9-2.4,5.3-4.4,7.5c-1.2,1.4-2.5,2.7-3.7,4.1c-1,1.2-1.9,2.6-2.8,3.8c0-2.1-0.2-4.4-0.9-6.5
			c-0.7-1.9-1.5-3.8-2.3-5.7c-1.2-2.7-2.4-5.4-2.7-8.3c-0.2-1.8-0.3-3.6-0.4-5.4C172.9,137.4,173,137.4,173,137.4z"/>
		<path class="st3" d="M182.2,141c0.2-1.5,0.3-3,0.5-4.5c0.4-2.5,0.8-4.9,1.2-7.4c0.5-3.3,0.9-6.6,0.2-9.9c-0.1-0.5-0.2-1-0.3-1.5
			c1.4,1.9,2.5,4,3.3,6.3c1.7,4.9,1.4,9.8-0.7,14.5c-0.8,1.9-1.8,3.8-2.7,5.6c-0.5,1.1-0.9,2.3-1.3,3.1c-0.8-1.7-1.5-3.7-2.6-5.5
			c-1.3-2.1-2.8-4-4.4-6c-3-3.8-5.2-7.9-6.6-12.5c0-0.2-0.1-0.3-0.2-0.4c2.2,1.9,4.4,3.8,6.5,5.7c3.5,3.2,5.7,7.2,6.9,11.7
			c0,0.1,0.1,0.3,0.1,0.4C182.1,140.8,182.1,140.8,182.2,141z"/>
		<path class="st3" d="M54.2,147.6c-0.4-1.9-1.3-3.5-2.1-5.2c-1.3-2.6-2.6-5.1-3.2-8c-1-4.5-0.4-8.9,1.7-13c0.6-1.3,1.4-2.6,2.3-3.8
			c-0.2,0.8-0.3,1.6-0.5,2.4c-0.4,2.1-0.3,4.1,0,6.2c0.5,3.5,1.1,7,1.6,10.6c0.2,1.4,0.3,2.7,0.4,4.3c0.1-0.3,0.2-0.5,0.2-0.7
			c1.4-5.4,4.2-9.7,8.5-13.3c1.7-1.4,3.3-2.9,4.9-4.3c-0.7,1.8-1.4,3.7-2.2,5.6c-1.5,3.4-3.8,6.4-6.1,9.2c-2.4,2.9-4.3,6.1-5.3,9.8
			C54.3,147.4,54.2,147.5,54.2,147.6z"/>
		<path class="st3" d="M121.9,145.7c2.8,1,5.2,2,7.1,4c2.2,2.4,2.8,7.8-1.4,10.4c-1.8,1.1-3.9,1.8-5.9,2.4c-1.6,0.5-3.3,1.2-4.9,1.8
			c-0.4,0.2-0.8,0.4-1.2,0.6c-0.5,0.4-0.8,0.9-0.8,1.6c0,1.5,0,3,0,4.6c-1.7-1-3.4-2.1-3.9-4.2c-0.5-1.9,0.1-3.6,1.6-4.9
			c1.6-1.4,3.6-2.1,5.6-2.8c1.2-0.4,2.5-0.8,3.7-1.3c0.9-0.4,1.7-0.9,2.4-1.5c1.2-1.1,1.1-2.6-0.1-3.7c-0.6-0.5-1.3-0.8-1.9-1.2
			c-0.2-0.1-0.4-0.3-0.4-0.4C121.9,149.3,121.9,147.6,121.9,145.7z"/>
		<path class="st3" d="M62.5,105.5c-1.6,2.5-2.2,5.3-2.6,8.1c-0.6,3.6-0.8,7.2-1.9,10.9c0.2-0.2,0.2-0.2,0.3-0.3
			c2.2-4.1,5.5-7,9.4-9.4c1.4-0.8,2.8-1.6,4.1-2.5c1-0.7,1.9-1.4,2.9-2.2c-0.4,1-0.9,2.1-1.4,3.2c-1.3,2.6-3.2,4.6-5.4,6.3
			c-1.8,1.3-3.5,2.6-5.3,4c-2.9,2.3-5.1,5.2-6.8,8.5c-0.1,0.1-0.1,0.3-0.2,0.4l-0.1,0.1c0-0.7-0.1-1.4-0.1-2
			c-0.2-2.8-0.5-5.7-0.5-8.5c0-4.2,0.8-8.1,3.1-11.7C59.2,108.4,60.7,106.8,62.5,105.5z"/>
		<path class="st3" d="M174.1,105.3c1,1.1,2.2,2.1,3.1,3.3c2.5,3,3.7,6.5,4.2,10.3c0.4,3.5,0.1,7-0.2,10.5c-0.1,1.1-0.1,2.1-0.2,3.3
			c-0.2-0.4-0.4-0.8-0.6-1.2c-2-3.9-4.9-6.9-8.4-9.4c-1.6-1.2-3.2-2.4-4.8-3.7c-2.7-2.2-4.3-5.1-5.4-8.6c1.4,1.6,3.1,2.5,4.7,3.6
			c2.2,1.5,4.5,2.9,6.6,4.5s3.7,3.7,5,6.1c0.1,0.1,0.2,0.3,0.4,0.6c-0.3-1.3-0.6-2.3-0.7-3.4c-0.4-2.3-0.6-4.6-1-6.8
			c-0.8-4.8-0.8-4.8-2.7-8.8C174,105.4,174.1,105.4,174.1,105.3z"/>
		<path class="st3" d="M113.6,103.1c0,2,0.1,3.8,0.1,5.7c0,0.1-0.2,0.3-0.3,0.4c-1.7,0.8-3.1,1.9-4.3,3.4c-0.3,0.4-0.7,0.7-1,1
			c-2.3,1.8-4.7,3.4-7.3,4.7c-0.8,0.4-1.8,0.5-2.7,0.7c-0.2,0.1-0.5,0.2-0.7,0.4c-0.6,0.9-1.2,1.7-1.9,2.6c-0.1,0.2-0.2,0.4-0.4,0.5
			c0.1-0.4,0.2-0.9,0.3-1.3c-0.7,0.1-1.3,0.3-1.9,0.4c1.3-0.3,2.3-1,3-2.1c0.3-0.5,0.4-1.1,0.5-1.6c0.1-0.4,0.2-0.9,0.3-1.3
			c0.3-1,0.7-2,1.1-3c0.3-0.7,0.6-1.5,1-2.1c0.8-1.1,1.6-2.1,2.5-3c1.1-1.2,2.4-2,3.9-2.4c1.9-0.5,3.7-1.2,5.5-2.1
			C112,103.6,112.8,103.4,113.6,103.1z M101.6,112.9c1.8,0,2.3-1.5,3.3-2.4c-0.4-0.1-0.8-0.1-1.2-0.1c-0.2,0-0.5,0-0.6,0.2
			C102.6,111.3,102.1,112.1,101.6,112.9z"/>
		<path class="st3" d="M116.5,157.8c0-0.7-0.1-1.3-0.1-1.8c-0.1-4.1-0.1-8.2-0.2-12.2c-0.1-3-0.1-6-0.2-9.1c0-0.6,0.2-0.9,0.7-1
			c1.1-0.3,2.1-0.6,3.2-0.9c0.1,0,0.3,0,0.4,0c0,1.2,0,2.3,0,3.4c-0.1,3.4-0.1,6.8-0.2,10.2c-0.1,3.3-0.1,6.6-0.2,9.9
			c0,0.2-0.2,0.5-0.3,0.6C118.6,157.2,117.6,157.5,116.5,157.8z"/>
		<path class="st3" d="M174.8,116.4c-2.2-2.3-4.9-3.9-7.3-5.7c-2.2-1.6-3.9-3.6-5.2-6c-1.2-2.2-2.3-4.4-4-6.3
			c-0.5-0.6-1.1-1.2-1.5-1.7C165.5,98.7,173.1,107.4,174.8,116.4z"/>
		<path class="st3" d="M61.7,116.4c1.8-9.3,9.5-17.8,18.1-19.6c-0.4,0.5-1,1.1-1.5,1.7c-1.4,1.6-2.5,3.3-3.4,5.2
			c-1.7,3.3-4,5.9-7.1,8C65.6,113.1,63.5,114.5,61.7,116.4z"/>
		<path class="st3" d="M47,239.9c0,2.8,0,5.7,0,8.6c-0.7,0-1.3,0-2,0c0-3.7,0-7.5,0-11.3c1,0,2,0,3,0c0.1,0,0.4,0.3,0.4,0.5
			c0.6,2.2,1.2,4.4,1.8,6.5c0,0.2,0.1,0.4,0.2,0.7c0.1-0.5,0.3-0.8,0.3-1.1c0.5-2.1,1.1-4.1,1.6-6.2c0.1-0.4,0.3-0.5,0.7-0.5
			c0.9,0,1.8,0,2.8,0c0,3.8,0,7.5,0,11.3c-0.7,0-1.3,0-2,0c0-2.9,0-5.7,0-8.6c-0.1,0-0.1,0-0.2,0c-0.1,0.2-0.1,0.4-0.2,0.6
			c-0.6,2.5-1.3,5-1.9,7.5c-0.1,0.4-0.3,0.6-0.7,0.6c-1.6,0-1.6,0-1.9-1.5c-0.5-2.2-1.1-4.4-1.6-6.6C47.3,240.2,47.2,240.1,47,239.9
			C47.1,239.8,47,239.8,47,239.9z"/>
		<path class="st3" d="M119.7,164.9c0,1.5,0,2.8,0,4.2c-0.1,5.3-0.2,10.6-0.3,16c0,1.9-0.1,3.7-0.3,5.6c0,0.4-0.2,0.9-0.4,1.2
			c-0.3,0.5-0.9,0.5-1.1,0c-0.3-0.8-0.5-1.6-0.6-2.4c-0.1-3.2-0.1-6.5-0.2-9.8c-0.1-4.3-0.1-8.7-0.2-13c0-0.5,0.1-0.7,0.6-0.9
			C118.1,165.6,118.9,165.2,119.7,164.9z"/>
		<path class="st3" d="M71.5,223.5c0-1,0.2-2.2,0.8-3.2c1.2-1.9,3.1-2.6,5.4-2.4c3.7,0.4,5,3.3,4.8,6.4c0,0.5-0.1,1-0.3,1.5
			c-0.8,2.7-3.2,3.9-5.9,3.6C73.1,229,71.5,227,71.5,223.5z M80.2,223.6L80.2,223.6c-0.1-0.3,0-0.5-0.1-0.8c-0.1-1.7-1.2-2.9-2.7-3
			c-1.8-0.2-3.1,0.7-3.5,2.3c-0.3,1-0.3,2,0,3.1c0.4,1.5,1.6,2.4,3.2,2.3c1.4,0,2.5-1,2.9-2.5C80.1,224.6,80.2,224.1,80.2,223.6z"/>
		<path class="st3" d="M158.7,240.5c-0.8,0.1-1.4,0.1-2.1,0.1c0,0-0.1,0-0.1-0.1c-0.6-1.5-2-2-3.4-1.3c-0.3,0.2-0.7,0.6-0.7,0.9
			c0,0.3,0.3,0.8,0.7,0.9c0.8,0.3,1.6,0.5,2.4,0.7c0.6,0.2,1.1,0.3,1.7,0.5c1.3,0.5,1.9,1.5,1.9,2.9c0,1.3-0.6,2.4-1.8,3
			c-1.8,0.8-3.6,0.8-5.3,0c-1.3-0.6-1.9-1.8-2.1-3.3c0.7-0.1,1.4-0.2,2.1-0.3c0.1,0.1,0.1,0.3,0.2,0.4c0.6,1.6,2.5,2.3,4,1.4
			c0.5-0.3,0.8-0.7,0.7-1.3c0-0.6-0.5-0.9-1-1c-0.8-0.2-1.7-0.4-2.5-0.7c-0.6-0.2-1.1-0.4-1.6-0.6c-1-0.6-1.5-1.5-1.4-2.6
			s0.6-2,1.6-2.4c1.7-0.8,3.4-0.8,5.1,0C158.2,238.1,158.7,239.1,158.7,240.5z"/>
		<path class="st3" d="M96.9,222.3c0-0.4,0.1-0.7,0.1-1.1c0.6,0,1.2,0,1.9,0c0,0.2,0,0.4,0,0.6c0,2.2,0,4.5,0,6.7
			c0,0.5,0,1.1-0.1,1.6c-0.2,1.1-0.8,1.9-1.9,2.2c-1.3,0.4-2.7,0.4-4,0c-1.1-0.3-1.7-1.3-1.6-2.4c0.7,0.1,1.4,0.1,2,0.2
			c0.1,0,0.2,0.1,0.3,0.2c0.4,0.6,1.1,0.8,2.1,0.6c0.7-0.2,1-0.5,1.1-1.3c0-0.5,0-1,0-1.4c-0.6,0.3-1.1,0.8-1.7,0.9
			c-1.9,0.6-3.6-0.6-4.1-2.7c-0.2-1-0.2-2.1,0.1-3.1c0.8-2.6,3.9-3.1,5.4-1.4C96.6,222.1,96.7,222.1,96.9,222.3z M96.9,225.3
			c-0.1-0.5-0.2-1-0.3-1.4c-0.3-0.8-0.9-1.2-1.7-1.2c-0.8,0-1.5,0.5-1.6,1.3c-0.1,0.9-0.1,1.8,0,2.6c0.1,0.7,0.7,1.2,1.4,1.2
			c0.8,0.1,1.4-0.3,1.8-1C96.7,226.3,96.8,225.7,96.9,225.3z"/>
		<path class="st3" d="M83.2,241.3c0-1.5,0-2.8,0-4.1c0.7,0,1.4,0,2.1,0c0,3.7,0,7.5,0,11.2c-0.6,0-1.2,0-1.9,0c0-0.3,0-0.6-0.1-0.9
			c-0.6,0.3-1.1,0.8-1.7,1c-1.8,0.5-3.5-0.5-4.1-2.4c-0.3-1.2-0.3-2.3,0-3.5c0.7-2.3,3.4-3.1,5.2-1.6
			C82.9,241.1,83,241.1,83.2,241.3z M79.4,244.2c0.1,0.5,0.1,1,0.2,1.4c0.2,0.9,0.9,1.4,1.7,1.4c0.8,0,1.5-0.5,1.8-1.4
			s0.2-1.8-0.1-2.7c-0.3-0.8-0.9-1.2-1.6-1.2c-0.8,0-1.4,0.4-1.7,1.1C79.5,243.3,79.5,243.8,79.4,244.2z"/>
		<path class="st3" d="M117.1,248.4c-0.6,0-1.2,0-1.9,0c0-0.3-0.1-0.7-0.1-1c-0.6,0.3-1.1,0.8-1.7,1c-1.9,0.6-3.8-0.6-4.1-2.8
			c-0.2-1-0.1-2.1,0.1-3.1c0.6-2.4,3.3-3.2,5.2-1.6c0.1,0.1,0.2,0.1,0.4,0.3c0-0.8,0-1.4,0-2.1c0-0.7,0-1.3,0-2c0.7,0,1.4,0,2.1,0
			C117.1,240.9,117.1,244.6,117.1,248.4z M111.2,244.2c0.1,0.6,0.1,1,0.2,1.4c0.2,0.9,0.9,1.4,1.6,1.4c0.8,0,1.5-0.4,1.7-1.3
			c0.3-1,0.3-1.9-0.1-2.9c-0.3-0.7-0.8-1.1-1.5-1.1c-0.8,0-1.4,0.3-1.7,1C111.4,243.2,111.3,243.8,111.2,244.2z"/>
		<path class="st3" d="M189.6,241.3c0-1.4,0-2.7,0-4.1c0.7,0,1.4,0,2.1,0c0,3.7,0,7.5,0,11.3c-0.6,0-1.2,0-1.9,0c0-0.3,0-0.6-0.1-1
			c-0.2,0.1-0.3,0.2-0.4,0.3c-1.6,1.5-4,1.2-5.1-0.8c-0.9-1.6-0.9-3.4-0.1-5c0.9-1.8,3.3-2.3,4.9-1
			C189.2,241,189.4,241.1,189.6,241.3z M185.8,244.2c0.1,0.5,0.1,1,0.2,1.4c0.2,0.9,0.9,1.4,1.7,1.4s1.5-0.5,1.8-1.4
			s0.3-1.8-0.1-2.7c-0.3-0.7-0.9-1.1-1.6-1.2c-0.8,0-1.4,0.4-1.7,1.1C185.9,243.3,185.9,243.8,185.8,244.2z"/>
		<path class="st3" d="M133.7,223.6c-0.3,0-0.6-0.1-0.9-0.1c-0.3,0-0.5-0.1-0.9-0.2c0.3-1,0.8-1.7,1.7-2c1.2-0.4,2.5-0.4,3.7,0
			c1,0.3,1.5,1,1.5,2.2c0,0.8,0,1.6,0,2.4c0,1.1,0.1,2.2,0.2,3.4c-0.4,0-1,0.1-1.5,0c-0.3-0.1-0.4-0.5-0.7-0.9
			c-0.1,0.1-0.3,0.2-0.5,0.3c-0.9,0.7-2,0.9-3.1,0.5c-0.9-0.3-1.6-1.1-1.6-2c-0.1-1.2,0.4-1.9,1.4-2.3c1-0.3,2-0.5,3-0.8
			c0.3-0.1,0.7,0,0.7-0.6c0-0.5-0.2-0.9-0.7-1C135.1,222.4,134.4,222.6,133.7,223.6z M136.7,225.5c-0.7,0.2-1.4,0.3-2.1,0.5
			c-0.5,0.1-0.9,0.4-0.8,0.9c0,0.5,0.5,0.9,1,0.9C136.2,228,137,227.1,136.7,225.5z"/>
		<path class="st3" d="M102.6,223.6c-0.6-0.1-1.2-0.2-1.8-0.3c0.2-1,0.8-1.7,1.7-2c1.2-0.4,2.5-0.4,3.7,0c1,0.3,1.5,1,1.5,2.2
			c0,0.8,0,1.6,0,2.5c0,1.1,0.1,2.2,0.2,3.3c-0.4,0-1,0.1-1.6,0c-0.2-0.1-0.4-0.5-0.6-0.9c-0.1,0.1-0.3,0.2-0.5,0.3
			c-0.9,0.7-2,0.9-3.1,0.6c-0.9-0.3-1.6-1.1-1.6-2c-0.1-1.2,0.4-2,1.4-2.3s2-0.5,3-0.8c0.3-0.1,0.7,0,0.7-0.6c0-0.5-0.2-0.9-0.7-1
			C104,222.4,103.3,222.6,102.6,223.6z M105.6,225.5c-0.7,0.2-1.4,0.3-2.1,0.5c-0.5,0.1-0.9,0.4-0.8,1s0.5,0.8,1,0.9
			C105.1,228,105.9,227.1,105.6,225.5z"/>
		<path class="st3" d="M98.9,248.5c-0.6,0-1.1,0.1-1.6,0c-0.3-0.1-0.5-0.5-0.8-0.8c-0.1,0-0.2,0.2-0.4,0.3c-0.9,0.7-2,0.9-3.1,0.6
			c-0.9-0.3-1.6-1.1-1.6-2c-0.1-1.2,0.4-2,1.4-2.3s2-0.5,3-0.8c0.3-0.1,0.7,0,0.7-0.6c0-0.5-0.2-0.9-0.7-1c-1-0.4-1.8-0.1-2.4,0.9
			c-0.6-0.1-1.1-0.2-1.8-0.2c0.2-1,0.8-1.7,1.7-2c1.2-0.4,2.5-0.4,3.7,0c1,0.3,1.5,1,1.5,2.2c0,0.8,0,1.6,0,2.5c0,0.6,0,1.1,0,1.6
			C98.7,247.3,98.8,247.9,98.9,248.5z M96.4,244.7c-0.7,0.2-1.4,0.3-2.1,0.5c-0.5,0.1-0.9,0.4-0.8,0.9c0,0.5,0.5,0.9,1,0.9
			C96,247.2,96.8,246.2,96.4,244.7z"/>
		<path class="st3" d="M138.6,242.7c-0.6-0.1-1.2-0.2-1.8-0.3c0.3-1,0.8-1.8,1.8-2.1c1.1-0.4,2.3-0.3,3.4,0c1.2,0.3,1.6,1,1.7,2.3
			c0,0.8,0,1.6,0,2.4c0,0.6,0,1.1,0,1.7c0.1,0.5,0.2,1.1,0.3,1.7c-0.6,0-1.2,0.1-1.7,0c-0.2-0.1-0.4-0.5-0.6-0.9
			c-0.1,0.1-0.3,0.2-0.5,0.4c-0.9,0.7-2,0.9-3.1,0.5c-0.9-0.3-1.6-1.1-1.6-2c-0.1-1.2,0.4-1.9,1.4-2.3c1-0.3,2-0.5,3-0.8
			c0.3-0.1,0.7,0,0.7-0.6c0-0.5-0.2-0.9-0.7-1C140,241.5,139.3,241.8,138.6,242.7z M141.6,244.7c-0.7,0.2-1.4,0.3-2.1,0.5
			c-0.5,0.1-0.9,0.4-0.8,1c0.1,0.6,0.5,0.8,1.1,0.9C141.2,247.1,141.9,246.2,141.6,244.7z"/>
		<path class="st3" d="M165.8,247.7c-0.7,0.3-1.3,0.7-2,0.8c-0.6,0.1-1.3,0-1.8-0.2c-0.9-0.3-1.4-1.1-1.4-2.1s0.4-1.7,1.4-2.1
			c1-0.3,2-0.5,3-0.8c0.3-0.1,0.8,0,0.7-0.6c0-0.5-0.2-0.9-0.8-1c-1-0.3-1.7,0-2.3,0.9c-0.6-0.1-1.1-0.2-1.8-0.3
			c0.3-1,0.8-1.8,1.8-2.1c1.1-0.3,2.3-0.3,3.4,0c1.2,0.3,1.7,1,1.7,2.3c0,0.8,0,1.6,0,2.4c0,1.1,0.1,2.2,0.2,3.4c-0.4,0-1,0.1-1.6,0
			C166.1,248.4,166,247.9,165.8,247.7z M165.6,244.7c-0.7,0.2-1.4,0.3-2.1,0.5c-0.5,0.1-0.9,0.4-0.8,1c0.1,0.6,0.5,0.9,1.1,0.9
			C165.1,247.2,165.8,246.3,165.6,244.7z"/>
		<path class="st3" d="M126.4,244.9c-1.9,0-3.7,0-5.4,0c-0.1,0.9,0.3,1.7,1.1,2c0.9,0.3,1.4,0.1,2.1-1c0.3,0,0.7,0.1,1,0.1
			s0.6,0.1,0.9,0.1c-0.3,1.6-1.8,2.4-3.2,2.4c-3.4,0.1-4.4-2.3-4.1-4.8c0.1-0.6,0.2-1.3,0.5-1.8c0.7-1.4,2.3-2.1,3.9-1.8
			c1.7,0.3,2.8,1.4,3.1,3.1C126.3,243.8,126.4,244.3,126.4,244.9z M124.2,243.6c0-1.1-0.7-1.9-1.7-1.8c-1,0-1.6,0.8-1.5,1.8
			C122.1,243.6,123.1,243.6,124.2,243.6z"/>
		<path class="st3" d="M162.3,225.2c0,2.5-1.8,4.2-4.3,4.2s-4.2-1.7-4.2-4.3c0-2.4,1.8-4.1,4.2-4.1
			C160.6,221,162.3,222.8,162.3,225.2z M156,225.1C156,225.1,156,225.2,156,225.1c0.1,0.3,0.1,0.6,0.1,0.9c0.2,0.9,0.9,1.7,1.7,1.8
			c0.9,0.1,1.7-0.3,2-1.1c0.5-1,0.5-2.1,0-3.1c-0.3-0.7-0.9-1.1-1.7-1.1s-1.4,0.4-1.8,1.1C156.2,224.1,156.1,224.7,156,225.1z"/>
		<path class="st3" d="M73.3,248.4c0-1.4,0-2.8,0-4.2c0-0.3,0-0.6,0-0.9c0-1-0.5-1.5-1.2-1.6c-0.9-0.1-1.7,0.5-1.9,1.4
			c-0.1,0.7-0.1,1.5-0.1,2.2c0,1,0,2.1,0,3.1c-0.7,0-1.4,0-2.1,0c0-1.4,0-2.7,0-4s0-2.7,0-4c0.6,0,1.3,0,1.9,0c0,0.3,0,0.7,0.1,0.9
			c0.7-0.3,1.4-0.8,2.2-1c1.9-0.4,3.2,0.6,3.3,2.6c0,1.9,0,3.7,0,5.6C74.7,248.4,74.1,248.4,73.3,248.4z"/>
		<path class="st3" d="M117.4,229.3c-0.7,0-1.3,0-2,0c0-0.7,0-1.5,0-2.2c0-1,0-1.9,0-2.9s-0.5-1.6-1.3-1.6c-0.9-0.1-1.7,0.5-1.8,1.4
			c-0.1,0.9-0.1,1.8-0.1,2.7c0,0.8,0,1.6,0,2.5c-0.7,0-1.4,0-2.1,0c0-2.7,0-5.4,0-8.1c0.6,0,1.2,0,1.9,0c0,0.3,0.1,0.7,0.1,0.9
			c0.8-0.3,1.5-0.8,2.3-1c1.8-0.4,3.1,0.7,3.2,2.5c0,1.7,0,3.5,0,5.2C117.4,229,117.4,229.1,117.4,229.3z"/>
		<path class="st3" d="M171.5,229.3c-0.7,0-1.3,0-2,0c0-0.5,0-1.1,0-1.6c0-1.2,0-2.3,0-3.5c0-1-0.5-1.6-1.2-1.6
			c-0.9-0.1-1.8,0.5-1.8,1.4c-0.1,1.2-0.1,2.4-0.1,3.6c0,0.5,0,1.1,0,1.6c-0.7,0-1.4,0-2.1,0c0-2.7,0-5.4,0-8.1c0.6,0,1.2,0,1.9,0
			c0,0.3,0.1,0.7,0.1,0.9c0.7-0.3,1.5-0.8,2.2-1c1.8-0.4,3.2,0.7,3.2,2.5c0,1.7,0,3.5,0,5.2C171.6,229,171.6,229.1,171.5,229.3z"/>
		<path class="st3" d="M179.7,240.3c0.7,0,1.4,0,2,0c0,2.7,0,5.4,0,8.1c-0.6,0-1.2,0-1.9,0c0-0.3,0-0.7-0.1-0.9
			c-0.7,0.3-1.4,0.8-2.2,1c-1.8,0.4-3.2-0.7-3.2-2.5s0-3.5,0-5.3c0-0.1,0-0.2,0-0.4c0.7,0,1.3,0,2.1,0c0,0.4,0,0.7,0,1.1
			c0,1.4,0,2.7,0,4.1c0,1,0.5,1.5,1.3,1.5c0.9,0,1.7-0.5,1.8-1.4c0.1-1.1,0.1-2.2,0.1-3.3C179.7,241.7,179.7,241,179.7,240.3z"/>
		<path class="st3" d="M63.5,240.3c0.7,0,1.4,0,2,0c0,2.7,0,5.4,0,8.1c-0.6,0-1.2,0-1.9,0c0-0.3,0-0.7-0.1-0.9
			c-0.7,0.3-1.4,0.8-2.2,1c-1.8,0.4-3.2-0.7-3.2-2.5c0-1.9,0-3.7,0-5.7c0.7,0,1.4,0,2.1,0c0,0.2,0,0.5,0,0.7c0,1.5,0,3,0,4.4
			c0,1,0.5,1.5,1.3,1.6c1,0,1.7-0.5,1.8-1.5c0.1-1.1,0.1-2.2,0.1-3.4C63.6,241.6,63.5,241,63.5,240.3z"/>
		<path class="st3" d="M123.7,222.8c0-0.6,0-1.1,0-1.6c2.2,0,4.4,0,6.6,0c0,0.7,0.2,1.3-0.4,2c-1.2,1.3-2.3,2.7-3.4,4
			c-0.1,0.1-0.2,0.3-0.4,0.5c1.5,0,2.9,0,4.4,0c0,0.6,0,1.1,0,1.6c-2.4,0-4.8,0-7.2,0c-0.1-0.8-0.1-1.5,0.5-2.1
			c1.1-1.3,2.2-2.6,3.3-3.9c0.1-0.1,0.2-0.3,0.4-0.5C126.2,222.8,125,222.8,123.7,222.8z"/>
		<path class="st3" d="M148.1,223.6c-0.6,0.1-1.2,0.2-1.9,0.2c-0.3-0.7-0.7-1.3-1.6-1.2c-1,0-1.7,0.6-1.8,1.8c-0.1,0.7,0,1.4,0.1,2
			c0.2,1,0.8,1.5,1.6,1.5c0.9,0,1.3-0.3,1.7-1.3c0-0.1,0.1-0.2,0.1-0.3c0.6,0.1,1.3,0.1,2,0.2c-0.1,0.8-0.5,1.5-1.1,2.1
			c-1.9,1.7-5.4,0.9-6.3-1.5c-0.4-1.2-0.4-2.5,0-3.7c0.6-1.7,2.4-2.6,4.4-2.3C146.9,221.4,147.9,222.2,148.1,223.6z"/>
		<path class="st3" d="M170,237.2c0.7,0,1.3,0,2,0c0,3.8,0,7.5,0,11.3c-0.7,0-1.3,0-2,0C170,244.7,170,241,170,237.2z"/>
		<path class="st3" d="M134.7,248.4c-0.7,0-1.3,0-2,0c0-3.8,0-7.5,0-11.3c0.6,0,1.3,0,2,0C134.7,240.9,134.7,244.6,134.7,248.4z"/>
		<path class="st3" d="M100.9,237.2c0.7,0,1.3,0,2,0c0,3.8,0,7.5,0,11.3c-0.7,0-1.3,0-2,0C100.9,244.7,100.9,241,100.9,237.2z"/>
		<path class="st3" d="M121.4,170.9c4.2,1.9,6.2,5.1,6,9.4h-0.1c-0.9-2.7-2.8-4.5-5.3-5.8c-0.5-0.3-0.7-0.5-0.6-1.1
			C121.4,172.5,121.4,171.7,121.4,170.9z"/>
		<path class="st3" d="M87.5,248.4c0-2.7,0-5.4,0-8.1c0.7,0,1.3,0,2,0c0,2.7,0,5.3,0,8.1C88.9,248.4,88.3,248.4,87.5,248.4z"/>
		<path class="st3" d="M121.8,229.3c-0.7,0-1.3,0-2,0c0-2.7,0-5.4,0-8.1c0.7,0,1.3,0,2,0C121.8,223.9,121.8,226.6,121.8,229.3z"/>
		<path class="st3" d="M152,221.2c0,2.7,0,5.4,0,8.1c-0.7,0-1.3,0-2,0c0-2.7,0-5.4,0-8.1C150.6,221.2,151.3,221.2,152,221.2z"/>
		<path class="st3" d="M122.7,114.8c2.6,0.3,4.9,1,7.3,2c-0.2,0.5-0.4,0.9-0.5,1.4c-1.7-0.5-3.2-0.9-4.8-1.4c-0.5-0.1-1-0.3-1.6-0.3
			c-0.4,0-0.6-0.2-0.5-0.6C122.6,115.6,122.6,115.2,122.7,114.8z"/>
		<path class="st3" d="M114.4,140.8c-1.5-0.4-2.4-1.6-2.4-2.9c0-1.3,0.8-2.5,2.2-3.1c0,1.1,0.1,2.2,0.1,3.3c0,0.1-0.2,0.3-0.3,0.4
			c-0.6,0.5-0.6,1-0.1,1.5C114.1,140.2,114.3,140.5,114.4,140.8z"/>
		<path class="st3" d="M160.6,217.7c-0.7,0.8-1.3,1.5-2,2.1c-0.3,0.2-0.8,0.1-1.4,0.2c0.4-0.8,0.7-1.5,1-2.1c0-0.1,0.2-0.1,0.3-0.1
			C159.2,217.7,159.8,217.7,160.6,217.7z"/>
		<path class="st3" d="M119.8,218c0.7,0,1.3,0,2,0c0,0.6,0,1.1,0,1.8c-0.7,0-1.3,0-2,0C119.8,219.2,119.8,218.6,119.8,218z"/>
		<path class="st3" d="M87.6,238.9c0-0.6,0-1.2,0-1.8c0.7,0,1.3,0,2,0c0,0.6,0,1.2,0,1.8C88.9,238.9,88.3,238.9,87.6,238.9z"/>
		<path class="st3" d="M150,219.8c0-0.6,0-1.1,0-1.7c0.7,0,1.3,0,2,0c0,0.6,0,1.1,0,1.7C151.3,219.8,150.7,219.8,150,219.8z"/>
		<path class="st3" d="M128.5,100.4c-0.2,0.1-0.4,0.3-0.6,0.3c-1.5,0-3-0.1-4.5-0.2c-0.1,0-0.2-0.1-0.3-0.2c0.3,0,0.5,0,0.8,0
			c0.3-0.1,0.7-0.2,1-0.2c0.5-0.1,1.1-0.2,1.6-0.1c0.6,0,1.3,0.2,1.9,0.3C128.5,100.2,128.5,100.3,128.5,100.4z"/>
		<path class="st3" d="M121.8,153.2c0.6,0.4,1.4,0.5,1.4,1.3c0,0.9-0.7,1.1-1.4,1.5C121.8,155.1,121.8,154.2,121.8,153.2z"/>
		<path class="st3" d="M143.1,108.8c-0.7-0.4-1.3-0.9-2-1.3c0.4-0.7,0.6-0.7,1.4-0.3C143.1,107.6,143.4,108.2,143.1,108.8z"/>
		<path class="st3" d="M94.6,122c-0.1,0.3-0.1,0.5-0.2,0.8c-0.2-0.3-0.3-0.5-0.5-0.7C94.1,122.1,94.3,122,94.6,122z"/>
		<path class="st3" d="M77.9,169.2c-0.5-0.8-0.9-1.4-1.4-2.1C77.2,167.2,77.8,168,77.9,169.2z"/>
		<path class="st3" d="M96,152.9c-0.3-0.6-0.6-1.2-0.9-1.9c0.4,0,0.6,0.1,1,0.1c0.1,0.5,0.2,1.1,0.2,1.7
			C96.3,152.8,96.2,152.9,96,152.9z"/>
		<path class="st3" d="M138.3,132.1c0.2-0.2,0.3-0.4,0.5-0.5c0.6-0.3,0.7-0.5,0.4-1.1c-0.4-0.6-0.1-1.7,0.6-2.1
			c0.1-0.1,0.3-0.1,0.4-0.2c0.5-0.4,0.8-0.2,1,0.4c-0.1,0.1-0.3,0.2-0.4,0.4c0.1,0.3,0.3,0.5,0.4,0.8c0,0,0,0.1-0.1,0.1
			c-0.2-0.1-0.5-0.3-0.7-0.4c-0.2-0.1-0.4-0.3-0.7-0.5c-0.4,0.4-0.7,0.7-0.2,1.3c0.9,1.1,0.7,1.5-0.6,1.9c-0.1,0-0.3,0.1-0.4,0.1
			C138.4,132.2,138.3,132.2,138.3,132.1z"/>
		<text transform="matrix(1 0 0 1 83.3729 229.28)" class="st3 st4 st5">r</text>
	</g>
</g>
</svg>
