<?xml version="1.0" encoding="utf-8"?>
<!-- Generator: Adobe Illustrator 16.0.0, SVG Export Plug-In . SVG Version: 6.00 Build 0)  -->
<!DOCTYPE svg PUBLIC "-//W3C//DTD SVG 1.1//EN" "http://www.w3.org/Graphics/SVG/1.1/DTD/svg11.dtd">
<svg version="1.1" id="Capa_1" xmlns="http://www.w3.org/2000/svg" xmlns:xlink="http://www.w3.org/1999/xlink" x="0px" y="0px"
	 width="154.416px" height="36.006px" viewBox="448.041 243.013 154.416 36.006"
	 enable-background="new 448.041 243.013 154.416 36.006" xml:space="preserve">
<g>
	<polygon fill="#F2961C" points="448.041,243.013 458.421,279.019 594.136,273.701 602.457,243.013 	"/>
	<g>
		<g>
			<path fill="#331842" d="M483.169,255.065h1.059v8.436h1.908v0.728h-2.967V255.065L483.169,255.065z"/>
			<path fill="#331842" d="M488.519,255.065h1.552l1.772,9.162h-1.141l-0.426-2.547h-2.019l-0.457,2.547h-1.117L488.519,255.065z
				 M489.251,255.742l-0.891,5.268h1.772l-0.832-5.268H489.251z"/>
			<path fill="#331842" d="M499.392,256.935v5.422c0,0.787-0.141,1.321-0.424,1.604c-0.283,0.283-0.789,0.422-1.518,0.422
				c-0.717,0-1.217-0.144-1.5-0.429c-0.283-0.286-0.424-0.817-0.424-1.597v-5.422c0-0.771,0.143-1.297,0.428-1.581
				c0.287-0.284,0.791-0.425,1.512-0.425c0.724,0,1.226,0.141,1.504,0.422C499.251,255.632,499.392,256.161,499.392,256.935z
				 M498.285,256.811c0-0.464-0.062-0.781-0.185-0.953c-0.12-0.172-0.338-0.258-0.647-0.258c-0.305,0-0.521,0.083-0.637,0.251
				c-0.119,0.167-0.181,0.486-0.181,0.959v5.671c0,0.478,0.062,0.797,0.185,0.963c0.121,0.166,0.338,0.249,0.647,0.249
				c0.308,0,0.521-0.083,0.64-0.249c0.116-0.166,0.178-0.485,0.178-0.963V256.811L498.285,256.811z"/>
			<path fill="#331842" d="M501.259,255.065h1.842l1.191,8.436h0.084l1.166-8.436h1.793v9.162h-0.926v-8.473h-0.166l-1.201,8.473
				h-1.481l-1.24-8.473h-0.144v8.473h-0.918V255.065L501.259,255.065z"/>
			<path fill="#331842" d="M512.451,256.519v0.876h-1.109v-0.852c0-0.359-0.049-0.606-0.147-0.742
				c-0.103-0.134-0.279-0.201-0.533-0.201c-0.244,0-0.418,0.074-0.519,0.228c-0.1,0.151-0.149,0.419-0.149,0.804v0.447
				c0,0.188,0.035,0.378,0.104,0.574c0.07,0.197,0.172,0.383,0.306,0.557l1.383,1.819c0.231,0.307,0.401,0.596,0.508,0.866
				c0.105,0.271,0.158,0.553,0.158,0.842v0.621c0,0.795-0.135,1.332-0.404,1.608c-0.269,0.277-0.748,0.416-1.438,0.416
				c-0.672,0-1.142-0.111-1.404-0.335c-0.263-0.223-0.396-0.646-0.396-1.267v-1.02h1.117v0.986c0,0.373,0.051,0.625,0.15,0.758
				c0.099,0.134,0.283,0.199,0.551,0.199c0.271,0,0.459-0.075,0.563-0.228c0.102-0.15,0.151-0.482,0.151-0.997v-0.633
				c0-0.235-0.026-0.45-0.088-0.644c-0.057-0.191-0.143-0.367-0.254-0.524l-1.465-1.95c-0.207-0.262-0.363-0.509-0.474-0.746
				c-0.106-0.235-0.159-0.44-0.159-0.614v-0.534c0-0.712,0.131-1.208,0.395-1.487s0.719-0.42,1.363-0.42
				c0.678,0,1.145,0.11,1.401,0.329C512.322,255.478,512.451,255.897,512.451,256.519z"/>
			<path fill="#331842" d="M516.542,255.065h1.615c0.834,0,1.396,0.087,1.69,0.262c0.295,0.174,0.443,0.485,0.443,0.938v2.074
				c0,0.382-0.098,0.65-0.293,0.808c-0.195,0.158-0.539,0.253-1.033,0.286c0.529,0.024,0.896,0.115,1.102,0.272
				c0.205,0.158,0.308,0.432,0.308,0.819v3.702h-1.125v-3.422c0-0.432-0.082-0.71-0.246-0.84c-0.164-0.128-0.5-0.191-1.012-0.191
				h-0.394v4.454h-1.057L516.542,255.065L516.542,255.065z M517.599,255.742v3.348h0.375c0.484,0,0.808-0.063,0.97-0.188
				c0.159-0.126,0.239-0.406,0.239-0.842v-1.272c0-0.438-0.082-0.724-0.239-0.852c-0.162-0.128-0.484-0.192-0.97-0.192
				L517.599,255.742L517.599,255.742z"/>
			<path fill="#331842" d="M522.224,255.065h2.935v0.728h-1.875v3.298h1.793v0.721h-1.793v3.689h1.926v0.728h-2.984L522.224,255.065
				L522.224,255.065z"/>
			<path fill="#331842" d="M530.25,256.519v0.876h-1.117v-0.852c0-0.355-0.051-0.604-0.154-0.738
				c-0.102-0.137-0.282-0.205-0.545-0.205c-0.237,0-0.405,0.078-0.5,0.232c-0.094,0.154-0.143,0.48-0.143,0.979v5.671
				c0,0.511,0.051,0.842,0.15,0.994s0.282,0.229,0.551,0.229c0.227,0,0.391-0.072,0.492-0.218c0.1-0.146,0.147-0.391,0.147-0.738
				v-0.986h1.117v1.019c0,0.625-0.131,1.05-0.393,1.271c-0.263,0.223-0.729,0.333-1.4,0.333c-0.66,0-1.121-0.143-1.383-0.429
				c-0.263-0.286-0.394-0.817-0.394-1.597v-5.422c0-0.773,0.131-1.302,0.394-1.584c0.262-0.282,0.723-0.422,1.383-0.422
				c0.678,0,1.146,0.109,1.404,0.329C530.121,255.478,530.25,255.897,530.25,256.519z"/>
			<path fill="#331842" d="M535.449,256.935v5.422c0,0.787-0.144,1.321-0.426,1.604c-0.283,0.283-0.789,0.422-1.519,0.422
				c-0.717,0-1.217-0.144-1.5-0.429c-0.283-0.286-0.424-0.817-0.424-1.597v-5.422c0-0.771,0.143-1.297,0.428-1.581
				c0.287-0.284,0.791-0.425,1.514-0.425c0.722,0,1.224,0.141,1.505,0.422C535.306,255.632,535.449,256.161,535.449,256.935z
				 M534.339,256.811c0-0.464-0.061-0.781-0.182-0.953c-0.123-0.172-0.34-0.258-0.65-0.258c-0.305,0-0.518,0.083-0.637,0.251
				c-0.119,0.167-0.181,0.486-0.181,0.959v5.671c0,0.478,0.062,0.797,0.185,0.963c0.121,0.166,0.338,0.249,0.65,0.249
				c0.305,0,0.518-0.083,0.637-0.249s0.178-0.485,0.178-0.963V256.811z"/>
			<path fill="#331842" d="M537.316,255.065h1.842l1.188,8.436h0.084l1.166-8.436h1.793v9.162h-0.926v-8.473h-0.166l-1.201,8.473
				h-1.481l-1.24-8.473h-0.143v8.473h-0.918v-9.162H537.316z"/>
			<path fill="#331842" d="M545.298,255.065h1.125v9.162h-1.125V255.065z"/>
			<path fill="#331842" d="M548.296,255.065h2.935v0.728h-1.875v3.298h1.791v0.721h-1.791v3.689h1.926v0.728h-2.984L548.296,255.065
				L548.296,255.065z"/>
			<path fill="#331842" d="M552.804,255.065h1.451l1.758,8.615h0.019l-0.158-8.615h0.957v9.162h-1.467l-1.74-8.497h-0.033
				l0.15,8.497h-0.935v-9.162H552.804z"/>
			<path fill="#331842" d="M558.73,255.065h1.239c1.052,0,1.736,0.123,2.06,0.369c0.321,0.247,0.481,0.812,0.481,1.692v5.038
				c0,0.878-0.164,1.44-0.492,1.688c-0.325,0.249-1.01,0.373-2.049,0.373h-1.242v-9.162L558.73,255.065L558.73,255.065z
				 M559.789,255.742v7.808h0.342c0.51,0,0.848-0.063,1.012-0.188s0.246-0.403,0.246-0.835v-5.738c0-0.436-0.084-0.718-0.25-0.849
				c-0.168-0.13-0.504-0.195-1.008-0.195L559.789,255.742L559.789,255.742z"/>
			<path fill="#331842" d="M565.421,255.065h1.549l1.775,9.162h-1.144l-0.424-2.547h-2.018l-0.457,2.547h-1.117L565.421,255.065z
				 M566.154,255.742l-0.894,5.268h1.775l-0.832-5.268H566.154z"/>
		</g>
	</g>
</g>
</svg>
