<?xml version="1.0" encoding="utf-8"?>
<!-- Generator: Adobe Illustrator 16.0.0, SVG Export Plug-In . SVG Version: 6.00 Build 0)  -->
<!DOCTYPE svg PUBLIC "-//W3C//DTD SVG 1.1//EN" "http://www.w3.org/Graphics/SVG/1.1/DTD/svg11.dtd">
<svg version="1.1" id="Capa_1" xmlns="http://www.w3.org/2000/svg" xmlns:xlink="http://www.w3.org/1999/xlink" x="0px" y="0px"
	 width="154.416px" height="36.005px" viewBox="448.041 56.103 154.416 36.005"
	 enable-background="new 448.041 56.103 154.416 36.005" xml:space="preserve">
<g>
	<polygon fill="#F2961C" points="448.041,56.103 458.421,92.108 594.136,86.791 602.457,56.103 	"/>
	<g>
		<g>
			<path fill="#331842" d="M473.228,62.156h2.935v0.727h-1.875v3.299h1.793v0.72h-1.793v3.689h1.926v0.728h-2.984L473.228,62.156
				L473.228,62.156z"/>
			<path fill="#331842" d="M477.738,62.156h1.057v8.435h1.908v0.728h-2.965V62.156z"/>
			<path fill="#331842" d="M487.853,63.608v0.876h-1.114v-0.852c0-0.355-0.054-0.603-0.154-0.738
				c-0.104-0.137-0.285-0.205-0.547-0.205c-0.238,0-0.406,0.078-0.5,0.232c-0.094,0.155-0.144,0.48-0.144,0.979v5.671
				c0,0.511,0.052,0.842,0.15,0.994c0.1,0.152,0.283,0.229,0.551,0.229c0.229,0,0.394-0.071,0.492-0.217
				c0.101-0.146,0.15-0.392,0.15-0.739v-0.986h1.114v1.02c0,0.625-0.131,1.049-0.393,1.271c-0.26,0.222-0.727,0.333-1.4,0.333
				c-0.659,0-1.121-0.144-1.383-0.43c-0.26-0.286-0.391-0.817-0.391-1.596v-5.423c0-0.773,0.131-1.302,0.391-1.584
				c0.262-0.281,0.724-0.422,1.383-0.422c0.681,0,1.146,0.109,1.404,0.329C487.722,62.567,487.853,62.987,487.853,63.608z"/>
			<path fill="#331842" d="M489.236,62.156h1.125v9.161h-1.125V62.156z M490.037,59.938h1.174l-1.092,1.386h-0.816L490.037,59.938z"
				/>
			<path fill="#331842" d="M492.236,62.156h1.614c0.834,0,1.398,0.087,1.693,0.261c0.293,0.174,0.441,0.485,0.441,0.938v2.075
				c0,0.381-0.099,0.649-0.291,0.807c-0.195,0.158-0.539,0.254-1.033,0.286c0.527,0.024,0.893,0.116,1.1,0.272
				c0.205,0.158,0.31,0.432,0.31,0.82v3.701h-1.125v-3.422c0-0.432-0.082-0.71-0.246-0.839s-0.502-0.191-1.015-0.191h-0.391v4.453
				h-1.059L492.236,62.156L492.236,62.156z M493.294,62.832v3.349h0.375c0.482,0,0.805-0.063,0.967-0.188
				c0.16-0.126,0.24-0.407,0.24-0.843v-1.272c0-0.438-0.08-0.724-0.24-0.852c-0.162-0.128-0.481-0.192-0.967-0.192L493.294,62.832
				L493.294,62.832z"/>
			<path fill="#331842" d="M501.435,63.608v0.876h-1.114v-0.852c0-0.355-0.054-0.603-0.154-0.738
				c-0.104-0.137-0.285-0.205-0.547-0.205c-0.238,0-0.406,0.078-0.5,0.232c-0.094,0.155-0.144,0.48-0.144,0.979v5.671
				c0,0.511,0.052,0.842,0.15,0.994c0.1,0.152,0.283,0.229,0.551,0.229c0.229,0,0.394-0.071,0.492-0.217
				c0.1-0.146,0.15-0.392,0.15-0.739v-0.986h1.114v1.02c0,0.625-0.131,1.049-0.393,1.271c-0.26,0.222-0.727,0.333-1.4,0.333
				c-0.659,0-1.121-0.144-1.383-0.43c-0.26-0.286-0.391-0.817-0.391-1.596v-5.423c0-0.773,0.131-1.302,0.391-1.584
				c0.262-0.281,0.724-0.422,1.383-0.422c0.681,0,1.146,0.109,1.404,0.329C501.306,62.567,501.435,62.987,501.435,63.608z"/>
			<path fill="#331842" d="M502.767,62.156h1.109v7.415c0,0.478,0.062,0.798,0.182,0.964c0.123,0.166,0.341,0.249,0.65,0.249
				c0.305,0,0.518-0.083,0.637-0.249s0.181-0.486,0.181-0.964v-7.415h1.106v7.292c0,0.786-0.141,1.32-0.424,1.603
				c-0.283,0.283-0.789,0.423-1.518,0.423c-0.718,0-1.218-0.144-1.5-0.43c-0.283-0.286-0.427-0.817-0.427-1.596v-7.292H502.767z"/>
			<path fill="#331842" d="M508.501,62.156h1.057v8.435h1.908v0.728h-2.965V62.156z"/>
			<path fill="#331842" d="M516.308,64.025v5.423c0,0.786-0.141,1.32-0.424,1.603c-0.283,0.283-0.789,0.423-1.518,0.423
				c-0.717,0-1.217-0.144-1.5-0.43s-0.424-0.817-0.424-1.596v-5.423c0-0.771,0.143-1.297,0.428-1.581
				c0.287-0.283,0.791-0.425,1.512-0.425c0.724,0,1.226,0.142,1.504,0.422C516.167,62.722,516.308,63.25,516.308,64.025z
				 M515.201,63.9c0-0.464-0.063-0.78-0.185-0.952c-0.123-0.173-0.34-0.259-0.649-0.259c-0.306,0-0.519,0.083-0.638,0.251
				c-0.118,0.167-0.18,0.486-0.18,0.959v5.671c0,0.478,0.063,0.798,0.185,0.964c0.121,0.166,0.34,0.249,0.649,0.249
				c0.306,0,0.519-0.083,0.638-0.249c0.118-0.166,0.18-0.486,0.18-0.964V63.9z"/>
			<path fill="#331842" d="M520.083,62.156h1.074l1.143,8.248h0.117l1.074-8.248h1.008l-1.332,9.161h-1.65L520.083,62.156z"/>
			<path fill="#331842" d="M525.716,62.156h1.125v9.161h-1.125V62.156z"/>
			<path fill="#331842" d="M532.232,63.608v0.876h-1.115v-0.852c0-0.355-0.053-0.603-0.154-0.738
				c-0.104-0.137-0.285-0.205-0.547-0.205c-0.238,0-0.406,0.078-0.5,0.232c-0.094,0.155-0.143,0.48-0.143,0.979v5.671
				c0,0.511,0.051,0.842,0.149,0.994c0.101,0.152,0.283,0.229,0.551,0.229c0.229,0,0.394-0.071,0.492-0.217
				c0.101-0.146,0.15-0.392,0.15-0.739v-0.986h1.115v1.02c0,0.625-0.132,1.049-0.394,1.271c-0.26,0.222-0.727,0.333-1.399,0.333
				c-0.66,0-1.121-0.144-1.384-0.43c-0.26-0.286-0.391-0.817-0.391-1.596v-5.423c0-0.773,0.131-1.302,0.391-1.584
				c0.263-0.281,0.724-0.422,1.384-0.422c0.68,0,1.146,0.109,1.403,0.329C532.104,62.567,532.232,62.987,532.232,63.608z"/>
			<path fill="#331842" d="M533.615,62.156h1.125v9.161h-1.125V62.156z"/>
			<path fill="#331842" d="M540.431,64.025v5.423c0,0.786-0.141,1.32-0.424,1.603c-0.283,0.283-0.789,0.423-1.518,0.423
				c-0.717,0-1.217-0.144-1.5-0.43s-0.424-0.817-0.424-1.596v-5.423c0-0.771,0.143-1.297,0.428-1.581
				c0.287-0.283,0.791-0.425,1.512-0.425c0.724,0,1.226,0.142,1.504,0.422C540.291,62.722,540.431,63.25,540.431,64.025z
				 M539.324,63.9c0-0.464-0.063-0.78-0.185-0.952c-0.123-0.173-0.34-0.259-0.649-0.259c-0.306,0-0.519,0.083-0.638,0.251
				c-0.118,0.167-0.18,0.486-0.18,0.959v5.671c0,0.478,0.063,0.798,0.185,0.964c0.121,0.166,0.34,0.249,0.649,0.249
				c0.305,0,0.519-0.083,0.637-0.249c0.119-0.166,0.181-0.486,0.181-0.964V63.9z"/>
			<path fill="#331842" d="M545.505,63.608v0.876h-1.106v-0.852c0-0.359-0.052-0.606-0.15-0.741c-0.1-0.135-0.277-0.202-0.533-0.202
				c-0.244,0-0.416,0.075-0.516,0.228c-0.103,0.151-0.15,0.419-0.15,0.805v0.446c0,0.188,0.035,0.378,0.104,0.575
				c0.069,0.196,0.172,0.382,0.305,0.556l1.383,1.82c0.232,0.306,0.402,0.595,0.508,0.865s0.158,0.553,0.158,0.843v0.621
				c0,0.795-0.135,1.331-0.404,1.608c-0.269,0.276-0.75,0.416-1.438,0.416c-0.672,0-1.141-0.112-1.404-0.335
				c-0.263-0.224-0.396-0.646-0.396-1.268v-1.02h1.117v0.986c0,0.373,0.051,0.625,0.149,0.759c0.1,0.133,0.283,0.198,0.549,0.198
				c0.273,0,0.459-0.075,0.563-0.228c0.104-0.15,0.154-0.482,0.154-0.997v-0.633c0-0.235-0.029-0.449-0.089-0.644
				c-0.059-0.191-0.143-0.367-0.254-0.524l-1.467-1.95c-0.205-0.261-0.363-0.509-0.471-0.745c-0.108-0.236-0.162-0.441-0.162-0.615
				v-0.534c0-0.712,0.133-1.208,0.396-1.487c0.265-0.278,0.72-0.419,1.361-0.419c0.678,0,1.146,0.109,1.404,0.329
				C545.376,62.567,545.505,62.987,545.505,63.608z"/>
			<path fill="#331842" d="M550.806,64.025v5.423c0,0.786-0.143,1.32-0.426,1.603c-0.283,0.283-0.789,0.423-1.516,0.423
				c-0.717,0-1.217-0.144-1.5-0.43s-0.427-0.817-0.427-1.596v-5.423c0-0.771,0.144-1.297,0.431-1.581
				c0.285-0.283,0.789-0.425,1.512-0.425c0.721,0,1.224,0.142,1.504,0.422C550.666,62.722,550.806,63.25,550.806,64.025z
				 M549.697,63.9c0-0.464-0.062-0.78-0.185-0.952c-0.121-0.173-0.338-0.259-0.647-0.259c-0.308,0-0.521,0.083-0.64,0.251
				c-0.116,0.167-0.178,0.486-0.178,0.959v5.671c0,0.478,0.062,0.798,0.183,0.964c0.123,0.166,0.34,0.249,0.649,0.249
				c0.306,0,0.521-0.083,0.638-0.249c0.118-0.166,0.18-0.486,0.18-0.964V63.9L549.697,63.9z"/>
			<path fill="#331842" d="M555.281,62.156h2.932v0.727h-1.875v3.299h1.793v0.72h-1.793v3.689h1.926v0.728h-2.981L555.281,62.156
				L555.281,62.156z"/>
			<path fill="#331842" d="M559.789,62.156h1.449l1.758,8.614h0.018l-0.158-8.614h0.959v9.161h-1.469l-1.74-8.497h-0.032
				l0.149,8.497h-0.934V62.156L559.789,62.156z"/>
			<path fill="#331842" d="M564.904,62.156h3.606v0.727h-1.266v8.436h-1.076v-8.436h-1.266L564.904,62.156L564.904,62.156z"/>
			<path fill="#331842" d="M569.621,62.156h1.617c0.832,0,1.396,0.087,1.69,0.261c0.293,0.174,0.441,0.485,0.441,0.938v2.075
				c0,0.381-0.097,0.649-0.291,0.807c-0.195,0.158-0.539,0.254-1.033,0.286c0.527,0.024,0.896,0.116,1.1,0.272
				c0.205,0.158,0.31,0.432,0.31,0.82v3.701h-1.125v-3.422c0-0.432-0.082-0.71-0.246-0.839s-0.502-0.191-1.012-0.191h-0.394v4.453
				h-1.059L569.621,62.156L569.621,62.156z M570.679,62.832v3.349h0.375c0.482,0,0.806-0.063,0.968-0.188
				c0.159-0.126,0.239-0.407,0.239-0.843v-1.272c0-0.438-0.08-0.724-0.239-0.852c-0.16-0.128-0.482-0.192-0.968-0.192
				L570.679,62.832L570.679,62.832z"/>
			<path fill="#331842" d="M575.302,62.156h2.935v0.727h-1.875v3.299h1.793v0.72h-1.793v3.689h1.926v0.728h-2.984L575.302,62.156
				L575.302,62.156z"/>
			<path fill="#331842" d="M462.188,73.816h1.059v8.436h1.908v0.728h-2.968L462.188,73.816L462.188,73.816z"/>
			<path fill="#331842" d="M467.539,73.816h1.549l1.775,9.162h-1.144l-0.424-2.547h-2.018l-0.457,2.547h-1.117L467.539,73.816z
				 M468.271,74.493l-0.894,5.268h1.775l-0.832-5.268H468.271z"/>
			<path fill="#331842" d="M474.595,73.816h1.24c1.051,0,1.736,0.123,2.059,0.369c0.322,0.247,0.482,0.812,0.482,1.692v5.038
				c0,0.878-0.164,1.44-0.492,1.688c-0.328,0.249-1.01,0.373-2.049,0.373h-1.242v-9.162L474.595,73.816L474.595,73.816z
				 M475.654,74.493V82.3h0.342c0.512,0,0.848-0.063,1.012-0.188s0.246-0.403,0.246-0.835v-5.738c0-0.436-0.082-0.718-0.25-0.849
				c-0.166-0.13-0.502-0.195-1.008-0.195L475.654,74.493L475.654,74.493z"/>
			<path fill="#331842" d="M480.246,73.816h1.125v9.162h-1.125V73.816z"/>
			<path fill="#331842" d="M486.453,75.269v0.876h-1.107v-0.852c0-0.359-0.051-0.606-0.149-0.742
				c-0.101-0.134-0.277-0.201-0.533-0.201c-0.244,0-0.416,0.074-0.519,0.228c-0.1,0.151-0.147,0.419-0.147,0.804v0.447
				c0,0.188,0.035,0.378,0.104,0.574c0.07,0.197,0.171,0.383,0.306,0.557l1.383,1.819c0.232,0.307,0.402,0.596,0.508,0.866
				s0.158,0.553,0.158,0.842v0.621c0,0.795-0.135,1.332-0.404,1.608c-0.269,0.277-0.75,0.416-1.438,0.416
				c-0.672,0-1.142-0.111-1.404-0.335c-0.263-0.223-0.396-0.646-0.396-1.267V80.51h1.116v0.987c0,0.373,0.05,0.625,0.15,0.758
				c0.1,0.134,0.283,0.199,0.549,0.199c0.273,0,0.459-0.075,0.563-0.228c0.104-0.15,0.153-0.482,0.153-0.997v-0.633
				c0-0.236-0.028-0.45-0.088-0.644c-0.059-0.193-0.143-0.367-0.254-0.524l-1.467-1.95c-0.205-0.262-0.363-0.51-0.471-0.746
				c-0.107-0.235-0.162-0.44-0.162-0.614v-0.534c0-0.712,0.133-1.208,0.396-1.487c0.265-0.279,0.717-0.42,1.361-0.42
				c0.678,0,1.146,0.11,1.404,0.329C486.324,74.228,486.453,74.648,486.453,75.269z"/>
			<path fill="#331842" d="M491.453,75.269v0.876h-1.117v-0.852c0-0.355-0.051-0.604-0.154-0.738
				c-0.102-0.137-0.282-0.205-0.545-0.205c-0.237,0-0.405,0.077-0.5,0.232c-0.094,0.154-0.143,0.48-0.143,0.979v5.671
				c0,0.511,0.051,0.842,0.149,0.994c0.101,0.152,0.283,0.229,0.552,0.229c0.227,0,0.391-0.072,0.489-0.218
				c0.103-0.146,0.15-0.391,0.15-0.738v-0.987h1.117v1.021c0,0.625-0.131,1.049-0.394,1.27c-0.262,0.223-0.729,0.333-1.399,0.333
				c-0.66,0-1.121-0.143-1.383-0.429c-0.263-0.286-0.394-0.817-0.394-1.597v-5.422c0-0.773,0.131-1.303,0.394-1.584
				c0.262-0.282,0.723-0.422,1.383-0.422c0.678,0,1.146,0.109,1.403,0.328C491.324,74.228,491.453,74.648,491.453,75.269z"/>
			<path fill="#331842" d="M493.876,73.816h1.551l1.775,9.162h-1.144l-0.426-2.547h-2.016l-0.459,2.547h-1.115L493.876,73.816z
				 M494.611,74.493l-0.894,5.268h1.775l-0.834-5.268H494.611z"/>
			<path fill="#331842" d="M498.328,73.816h1.365c0.834,0,1.399,0.088,1.698,0.265c0.302,0.176,0.451,0.487,0.451,0.936v2.633
				c0,0.447-0.149,0.759-0.451,0.933c-0.299,0.174-0.864,0.261-1.698,0.261h-0.31v4.138h-1.057L498.328,73.816L498.328,73.816z
				 M499.384,74.493v3.677h0.283c0.422,0,0.705-0.063,0.846-0.188c0.144-0.126,0.213-0.411,0.213-0.854v-1.59
				c0-0.443-0.069-0.729-0.213-0.854c-0.141-0.126-0.424-0.188-0.846-0.188L499.384,74.493L499.384,74.493z"/>
			<path fill="#331842" d="M503.808,73.816h1.552l1.774,9.162h-1.143l-0.424-2.547h-2.019l-0.459,2.547h-1.115L503.808,73.816z
				 M504.542,74.493l-0.891,5.268h1.772l-0.832-5.268H504.542z"/>
			<path fill="#331842" d="M511.775,75.269v0.876h-1.115v-0.852c0-0.355-0.053-0.604-0.154-0.738
				c-0.104-0.137-0.285-0.205-0.547-0.205c-0.238,0-0.406,0.077-0.5,0.232c-0.094,0.154-0.141,0.48-0.141,0.979v5.671
				c0,0.511,0.049,0.842,0.147,0.994c0.103,0.152,0.283,0.229,0.551,0.229c0.229,0,0.394-0.072,0.492-0.218
				c0.101-0.146,0.15-0.391,0.15-0.738v-0.987h1.115v1.021c0,0.625-0.132,1.049-0.394,1.27c-0.26,0.223-0.727,0.333-1.397,0.333
				c-0.662,0-1.123-0.143-1.386-0.429c-0.26-0.286-0.391-0.817-0.391-1.597v-5.422c0-0.773,0.131-1.303,0.391-1.584
				c0.263-0.282,0.724-0.422,1.386-0.422c0.678,0,1.145,0.109,1.401,0.328C511.646,74.228,511.775,74.648,511.775,75.269z"/>
			<path fill="#331842" d="M513.16,73.816h1.125v9.162h-1.125V73.816z"/>
			<path fill="#331842" d="M516.158,73.816h1.242c1.049,0,1.733,0.123,2.057,0.369c0.322,0.247,0.484,0.812,0.484,1.692v5.038
				c0,0.878-0.164,1.44-0.492,1.688c-0.328,0.249-1.012,0.373-2.051,0.373h-1.24V73.816L516.158,73.816z M517.216,74.493V82.3h0.342
				c0.513,0,0.851-0.063,1.015-0.188s0.246-0.403,0.246-0.835v-5.738c0-0.436-0.084-0.718-0.25-0.849
				c-0.168-0.13-0.505-0.195-1.011-0.195L517.216,74.493L517.216,74.493z"/>
			<path fill="#331842" d="M522.849,73.816h1.552l1.772,9.162h-1.141l-0.426-2.547h-2.019l-0.457,2.547h-1.117L522.849,73.816z
				 M523.583,74.493l-0.893,5.268h1.774l-0.834-5.268H523.583z"/>
			<path fill="#331842" d="M527.298,73.816h1.242c1.049,0,1.736,0.123,2.057,0.369c0.322,0.247,0.484,0.812,0.484,1.692v5.038
				c0,0.878-0.164,1.44-0.492,1.688c-0.328,0.249-1.012,0.373-2.051,0.373h-1.24V73.816L527.298,73.816z M528.357,74.493V82.3h0.342
				c0.512,0,0.848-0.063,1.012-0.188s0.246-0.403,0.246-0.835v-5.738c0-0.436-0.082-0.718-0.25-0.849
				c-0.166-0.13-0.502-0.195-1.008-0.195L528.357,74.493L528.357,74.493z"/>
			<path fill="#331842" d="M534.615,73.816h1.125l1.106,4.175h0.093l1-4.175h1.094l-1.685,5.268v3.896h-1.075v-3.896L534.615,73.816
				z"/>
			<path fill="#331842" d="M542.638,73.816h1.06v8.436h1.908v0.728h-2.968V73.816L542.638,73.816z"/>
			<path fill="#331842" d="M547.99,73.816h1.549l1.775,9.162h-1.144l-0.424-2.547h-2.019l-0.459,2.547h-1.114L547.99,73.816z
				 M548.722,74.493l-0.893,5.268h1.774l-0.834-5.268H548.722z"/>
			<path fill="#331842" d="M555.046,73.816h1.367c0.832,0,1.4,0.088,1.699,0.265c0.301,0.176,0.45,0.487,0.45,0.936v2.633
				c0,0.447-0.149,0.759-0.45,0.933c-0.3,0.174-0.867,0.261-1.699,0.261h-0.31v4.138h-1.059L555.046,73.816L555.046,73.816z
				 M556.105,74.493v3.677h0.282c0.422,0,0.703-0.063,0.847-0.188c0.143-0.126,0.213-0.411,0.213-0.854v-1.59
				c0-0.443-0.07-0.729-0.213-0.854c-0.144-0.125-0.425-0.188-0.847-0.188L556.105,74.493L556.105,74.493z"/>
			<path fill="#331842" d="M563.679,75.686v5.422c0,0.787-0.143,1.321-0.426,1.604c-0.283,0.283-0.789,0.422-1.516,0.422
				c-0.72,0-1.22-0.143-1.5-0.429c-0.283-0.286-0.427-0.818-0.427-1.597v-5.422c0-0.771,0.144-1.297,0.431-1.581
				c0.285-0.284,0.789-0.425,1.512-0.425c0.721,0,1.223,0.141,1.504,0.422C563.538,74.383,563.679,74.911,563.679,75.686z
				 M562.572,75.561c0-0.464-0.063-0.78-0.185-0.953c-0.123-0.172-0.34-0.258-0.649-0.258c-0.306,0-0.519,0.083-0.638,0.251
				c-0.118,0.167-0.18,0.486-0.18,0.959v5.671c0,0.478,0.062,0.797,0.185,0.963c0.12,0.166,0.34,0.249,0.649,0.249
				c0.305,0,0.519-0.083,0.637-0.249c0.119-0.166,0.181-0.485,0.181-0.963V75.561z"/>
			<path fill="#331842" d="M565.546,73.816h1.615c0.834,0,1.396,0.087,1.692,0.262c0.294,0.174,0.441,0.485,0.441,0.938v2.074
				c0,0.382-0.098,0.65-0.293,0.808c-0.195,0.158-0.539,0.253-1.033,0.286c0.529,0.024,0.896,0.115,1.103,0.272
				c0.205,0.158,0.307,0.432,0.307,0.819v2.503c0,0.451-0.146,0.765-0.441,0.938c-0.295,0.174-0.856,0.262-1.69,0.262h-1.699
				L565.546,73.816L565.546,73.816z M566.604,74.493v3.348h0.375c0.483,0,0.807-0.063,0.969-0.188c0.16-0.126,0.24-0.406,0.24-0.842
				v-1.272c0-0.438-0.08-0.724-0.24-0.852c-0.162-0.128-0.484-0.192-0.969-0.192L566.604,74.493L566.604,74.493z M566.604,78.524
				V82.3h0.393c0.512,0,0.848-0.063,1.012-0.188s0.246-0.403,0.246-0.835v-1.72c0-0.432-0.082-0.71-0.246-0.84
				c-0.164-0.128-0.5-0.191-1.012-0.191L566.604,78.524L566.604,78.524z"/>
			<path fill="#331842" d="M571.229,73.816h1.616c0.832,0,1.396,0.087,1.691,0.262c0.295,0.174,0.442,0.485,0.442,0.938v2.074
				c0,0.382-0.098,0.65-0.293,0.808c-0.194,0.158-0.539,0.253-1.032,0.286c0.526,0.024,0.895,0.115,1.1,0.272
				c0.207,0.158,0.309,0.432,0.309,0.819v3.702h-1.125v-3.422c0-0.432-0.081-0.71-0.245-0.84c-0.164-0.128-0.5-0.191-1.013-0.191
				h-0.393v4.454h-1.06v-9.163H571.229z M572.287,74.493v3.348h0.375c0.481,0,0.805-0.063,0.967-0.188s0.242-0.406,0.242-0.842
				v-1.272c0-0.438-0.082-0.724-0.242-0.852s-0.482-0.192-0.967-0.192L572.287,74.493L572.287,74.493z"/>
			<path fill="#331842" d="M576.912,73.816h2.932v0.728h-1.875v3.298h1.793v0.721h-1.793v3.689h1.926v0.728h-2.981L576.912,73.816
				L576.912,73.816z"/>
			<path fill="#331842" d="M580.787,73.816h3.307v0.802l-2.383,7.634h2.492v0.728h-3.533v-0.862l2.4-7.572h-2.283V73.816z"/>
			<path fill="#331842" d="M586.402,73.816h1.551l1.772,9.162h-1.141l-0.426-2.547h-2.019l-0.457,2.547h-1.114L586.402,73.816z
				 M587.134,74.493l-0.891,5.268h1.772l-0.832-5.268H587.134z"/>
		</g>
	</g>
</g>
</svg>
