<?xml version="1.0" encoding="utf-8"?>
<!-- Generator: Adobe Illustrator 16.0.0, SVG Export Plug-In . SVG Version: 6.00 Build 0)  -->
<!DOCTYPE svg PUBLIC "-//W3C//DTD SVG 1.1//EN" "http://www.w3.org/Graphics/SVG/1.1/DTD/svg11.dtd">
<svg version="1.1" id="Capa_1" xmlns="http://www.w3.org/2000/svg" xmlns:xlink="http://www.w3.org/1999/xlink" x="0px" y="0px"
	 width="633.297px" height="394.996px" viewBox="0 0 633.297 394.996" enable-background="new 0 0 633.297 394.996"
	 xml:space="preserve">
<g>
	<g>
		<path fill="#2C5A67" d="M0,0l5.793,394.996l583.07-2.949l32.044-343.09c-3.528,1.631-7.501,2.446-11.655,2.209
			c-13.488-0.771-23.804-12.34-23.032-25.838c0.209-3.664,1.218-7.102,2.844-10.134L0,0z"/>
		<path fill="#2C5A67" d="M611.345,14.708c-6.64-0.379-12.329,4.694-12.709,11.331c-0.379,6.637,4.693,12.325,11.334,12.704
			c6.636,0.38,12.323-4.693,12.703-11.33C623.053,20.776,617.982,15.088,611.345,14.708z M616.229,31.558
			c0.346,0.389,0.312,0.984-0.075,1.331c-0.393,0.346-0.984,0.312-1.33-0.077l-4.241-4.754l-4.756,4.24
			c-0.391,0.347-0.984,0.312-1.332-0.076c-0.339-0.39-0.305-0.984,0.076-1.331l4.754-4.241l-4.239-4.755
			c-0.347-0.391-0.306-0.982,0.086-1.333c0.379-0.336,0.976-0.312,1.322,0.077l4.241,4.755l4.756-4.241
			c0.387-0.335,0.979-0.302,1.33,0.076c0.345,0.392,0.312,0.984-0.077,1.333l-4.756,4.241L616.229,31.558z"/>
		<g>
			<path fill="#2C5A67" d="M588.049,25.434c0.713-12.465,11.435-22.025,23.898-21.312c12.465,0.713,22.024,11.434,21.312,23.897
				c-0.713,12.465-11.433,22.026-23.897,21.313S587.336,37.897,588.049,25.434z M595.038,25.833
				c-0.493,8.611,6.112,16.017,14.723,16.51c8.611,0.492,16.019-6.112,16.511-14.724c0.492-8.61-6.113-16.017-14.725-16.509
				C602.938,10.617,595.53,17.222,595.038,25.833z"/>
		</g>
	</g>
	<g>
		<path fill="#A0C219" d="M159.182,72.988h5.083c2.62,0,4.393,0.273,5.319,0.82c0.925,0.547,1.389,1.53,1.389,2.949v6.523
			c0,1.198-0.306,2.044-0.917,2.539c-0.612,0.495-1.695,0.794-3.249,0.898c1.659,0.078,2.812,0.365,3.458,0.859
			c0.646,0.495,0.97,1.354,0.97,2.578v11.641h-3.537v-10.76c0-1.354-0.258-2.233-0.773-2.637c-0.515-0.403-1.577-0.605-3.184-0.605
			h-1.231v14.004h-3.328V72.988z M162.509,75.117v10.527h1.179c1.52,0,2.532-0.198,3.039-0.596c0.507-0.397,0.76-1.279,0.76-2.646
			v-4.004c0-1.38-0.253-2.272-0.76-2.676c-0.507-0.403-1.52-0.605-3.039-0.605H162.509z"/>
		<path fill="#A0C219" d="M177.051,72.988h9.223v2.285h-5.895v10.371h5.633v2.266h-5.633v11.602h6.052v2.285h-9.38V72.988
			L177.051,72.988z"/>
		<path fill="#A0C219" d="M191.226,72.988h8.961v2.285h-5.633v10.449h5.424v2.266h-5.424v13.809h-3.328V72.988z"/>
		<path fill="#A0C219" d="M204.274,72.988h3.327v26.523h6v2.285h-9.327V72.988z"/>
		<path fill="#A0C219" d="M216.824,72.988h9.223v2.285h-5.895v10.371h5.633v2.266h-5.633v11.602h6.052v2.285h-9.38V72.988
			L216.824,72.988z"/>
		<path fill="#A0C219" d="M228.405,72.988h3.511l3.249,11.484l3.013-11.484h3.328l-4.402,14.004l4.952,14.805h-3.511l-3.484-12.031
			l-3.38,12.031h-3.328l4.743-14.727L228.405,72.988z"/>
		<path fill="#A0C219" d="M245.436,72.988h3.537v28.809h-3.537V72.988z"/>
		<path fill="#A0C219" d="M266.869,78.867v17.051c0,2.474-0.445,4.154-1.336,5.039c-0.891,0.885-2.48,1.328-4.769,1.328
			c-2.253,0-3.825-0.449-4.716-1.348c-0.891-0.898-1.336-2.571-1.336-5.02v-17.05c0-2.422,0.45-4.079,1.349-4.971
			s2.485-1.338,4.756-1.338s3.847,0.443,4.729,1.328C266.428,74.772,266.869,76.433,266.869,78.867z M263.384,78.477
			c0-1.458-0.192-2.458-0.576-2.998c-0.385-0.54-1.065-0.811-2.044-0.811c-0.961,0-1.629,0.264-2.004,0.791
			c-0.376,0.527-0.562,1.533-0.562,3.018v17.832c0,1.498,0.192,2.507,0.576,3.027c0.384,0.521,1.065,0.781,2.044,0.781
			c0.96,0,1.628-0.26,2.004-0.781c0.376-0.521,0.563-1.53,0.563-3.027V78.477z"/>
		<path fill="#A0C219" d="M272.738,72.988h4.559l5.528,27.09h0.053l-0.498-27.09h3.013v28.809h-4.611l-5.476-26.719h-0.105
			l0.472,26.719h-2.935V72.988z"/>
		<path fill="#A0C219" d="M291.367,72.988h9.223v2.285h-5.895v10.371h5.633v2.266h-5.633v11.602h6.052v2.285h-9.38V72.988z"/>
		<path fill="#A0C219" d="M305.542,72.988h5.791l3.747,26.523h0.262l3.668-26.523h5.633v28.809h-2.908V75.156h-0.523l-3.773,26.641
			h-4.664l-3.904-26.641h-0.445v26.641h-2.882L305.542,72.988L305.542,72.988z"/>
		<path fill="#A0C219" d="M342.643,78.867v17.051c0,2.474-0.444,4.154-1.336,5.039c-0.891,0.885-2.479,1.328-4.769,1.328
			c-2.253,0-3.826-0.449-4.716-1.348c-0.891-0.899-1.336-2.571-1.336-5.02v-17.05c0-2.422,0.449-4.079,1.349-4.971
			s2.485-1.338,4.755-1.338s3.848,0.443,4.729,1.328C342.201,74.772,342.643,76.433,342.643,78.867z M339.158,78.477
			c0-1.458-0.192-2.458-0.577-2.998c-0.384-0.54-1.065-0.811-2.043-0.811c-0.961,0-1.629,0.264-2.004,0.791
			c-0.376,0.527-0.563,1.533-0.563,3.018v17.832c0,1.498,0.192,2.507,0.576,3.027c0.385,0.521,1.064,0.781,2.044,0.781
			c0.96,0,1.63-0.26,2.005-0.781s0.562-1.53,0.562-3.027V78.477z"/>
		<path fill="#A0C219" d="M358.6,77.559v2.754h-3.484v-2.676c0-1.133-0.157-1.911-0.473-2.334c-0.313-0.423-0.873-0.635-1.677-0.635
			c-0.769,0-1.312,0.238-1.625,0.713c-0.313,0.476-0.471,1.318-0.471,2.529v1.406c0,0.586,0.108,1.188,0.328,1.807
			c0.218,0.619,0.536,1.201,0.956,1.748l4.35,5.723c0.732,0.964,1.266,1.872,1.598,2.725s0.498,1.735,0.498,2.646v1.953
			c0,2.5-0.424,4.187-1.271,5.059c-0.849,0.872-2.354,1.309-4.521,1.309c-2.113,0-3.586-0.352-4.414-1.055
			c-0.83-0.703-1.246-2.031-1.246-3.984v-3.203h3.512v3.105c0,1.172,0.156,1.966,0.472,2.383c0.313,0.417,0.892,0.625,1.729,0.625
			c0.855,0,1.445-0.237,1.769-0.713c0.323-0.475,0.485-1.52,0.485-3.135v-1.992c0-0.742-0.092-1.416-0.275-2.021
			c-0.183-0.605-0.449-1.155-0.799-1.65l-4.611-6.133c-0.646-0.82-1.14-1.602-1.479-2.344c-0.341-0.742-0.511-1.387-0.511-1.934
			v-1.68c0-2.239,0.414-3.799,1.244-4.678c0.829-0.879,2.258-1.318,4.283-1.318c2.131,0,3.604,0.345,4.415,1.035
			C358.193,74.284,358.6,75.605,358.6,77.559z"/>
		<path fill="#A0C219" d="M367.324,98.633h3.695v3.164h-3.695V98.633z M385.193,98.633h3.693v3.164h-3.693V98.633z M403.115,98.633
			h3.693v3.164h-3.693V98.633z"/>
	</g>
	<g>
		<g>
			<path fill="#A0C219" d="M133.872,101.473c-1.492,0.678-2.944,1.4-4.445,2c-1.234,0.491-1.478,0.316-2.229-0.768
				c-1.642-2.365-3.902-3.651-6.801-3.719c-7.648-0.178-13.851-3.266-18.219-9.538C95,79.144,97.824,66.103,106.612,59.27
				c10.261-7.978,24.516-5.931,32.02,4.669c5.618,7.936,5.138,17.427,0.7,24.477c-1.822,2.895-2.347,5.773-0.886,8.92
				c0.367,0.789-0.128,1.268-0.657,1.631C136.507,99.843,135.176,100.646,133.872,101.473z M129.207,92.824
				c8.76-4.763,11.998-15.722,7.24-24.506c-4.729-8.73-15.786-12.011-24.524-7.276c-8.768,4.75-12.027,15.827-7.242,24.606
				C109.443,94.389,120.419,97.6,129.207,92.824z"/>
			<path fill="#A0C219" d="M136.758,106.84c-1.281,0.695-2.561,1.39-3.843,2.084c-0.651,0.352-1.341,0.546-1.763-0.254
				c-0.392-0.742,0.113-1.219,0.729-1.554c2.587-1.411,5.177-2.816,7.771-4.215c0.617-0.334,1.291-0.496,1.7,0.237
				c0.441,0.792-0.1,1.263-0.751,1.615C139.32,105.452,138.039,106.146,136.758,106.84z"/>
			<path fill="#A0C219" d="M134.458,102.512c1.308-0.709,2.617-1.416,3.923-2.129c0.592-0.323,1.207-0.495,1.596,0.219
				c0.399,0.732-0.036,1.211-0.676,1.558c-2.616,1.416-5.231,2.834-7.845,4.255c-0.637,0.346-1.281,0.465-1.678-0.269
				c-0.417-0.776,0.146-1.178,0.757-1.508C131.846,103.932,133.151,103.221,134.458,102.512z"/>
			<path fill="#A0C219" d="M138.097,109.385c-0.427,0.231-0.838,0.604-1.285,0.653c-0.434,0.048-1.125-0.107-1.296-0.407
				c-0.167-0.291,0.037-1.076,0.335-1.297c0.799-0.59,1.704-1.081,2.634-1.432c0.352-0.132,1.116,0.104,1.279,0.399
				c0.165,0.3-0.059,0.985-0.336,1.311c-0.314,0.366-0.878,0.521-1.333,0.768C138.096,109.381,138.096,109.383,138.097,109.385z"/>
			<path fill="#A0C219" d="M120.309,62.388c-8.003,0.008-14.484,6.503-14.477,14.506c0.008,8.004,6.501,14.486,14.504,14.479
				c8.004-0.008,14.486-6.503,14.479-14.506C134.807,68.863,128.312,62.38,120.309,62.388z M123.571,85.695l-5.905,0.005
				l-0.009-9.455c-0.001-1.365-0.045-2.187-0.133-2.46c-0.087-0.276-0.329-0.487-0.724-0.626c-0.396-0.142-1.275-0.211-2.638-0.21
				h-0.586l-0.002-2.057c2.854-0.458,5.022-1.404,6.501-2.83l3.478-0.002L123.571,85.695z"/>
		</g>
	</g>
	<g>
		<g>
			<path fill="#A0C219" d="M277.824,267.395c1.858,0,3.717,0,5.575,0c0.995,0.183,1.988,0.374,2.984,0.548
				c18.37,3.207,30.329,21.133,26.477,39.387c-3.431,16.258-18.954,27.84-35.696,25.824c-13.38-1.613-22.521-8.902-27.461-21.355
				c-1.079-2.719-1.421-5.729-2.103-8.605c0-2.054,0-4.107,0-6.162c0.086-0.217,0.217-0.427,0.252-0.652
				c2.18-13.92,9.973-23.11,23.323-27.535C273.316,268.134,275.604,267.867,277.824,267.395z M251.998,300.225
				c-0.206,15.911,13.091,29.159,29.411,28.825c15.138-0.309,27.912-13.316,27.812-28.688
				c-0.107-16.442-13.729-28.931-29.377-28.608C264.713,272.063,251.873,285.016,251.998,300.225z"/>
			<path fill="#A0C219" d="M274.011,300.363c0-4.205,0.021-8.41-0.015-12.615c-0.009-1.059,0.154-1.957,1.189-2.451
				c1.172-0.56,2.25-0.385,3.271,0.429c4.168,3.313,8.351,6.61,12.529,9.913c1.303,1.029,2.617,2.046,3.911,3.087
				c1.487,1.196,1.498,2.128,0.025,3.292c-5.442,4.303-10.895,8.592-16.335,12.895c-1.046,0.828-2.147,1.127-3.4,0.523
				c-1.192-0.574-1.193-1.633-1.186-2.75C274.026,308.58,274.011,304.471,274.011,300.363z"/>
		</g>
		<g>
			<g>
				<path fill="#A0C219" d="M322.673,285.52h4.298c2.619,0,4.401,0.276,5.344,0.83c0.943,0.554,1.416,1.532,1.416,2.938v8.281
					c0,1.406-0.472,2.383-1.416,2.93c-0.943,0.547-2.725,0.82-5.344,0.82h-0.97v13.008h-3.328V285.52z M326.001,287.648v11.562
					h0.892c1.326,0,2.213-0.198,2.659-0.596c0.445-0.398,0.669-1.293,0.669-2.687v-5c0-1.394-0.224-2.288-0.669-2.687
					c-0.446-0.396-1.333-0.596-2.659-0.596h-0.892V287.648z"/>
				<path fill="#A0C219" d="M337.816,285.52h3.328v26.522h6v2.285h-9.328V285.52z"/>
				<path fill="#A0C219" d="M354.639,285.52h4.875l5.58,28.81h-3.59l-1.336-8.008h-6.341l-1.441,8.008h-3.511L354.639,285.52z
					 M356.943,287.648l-2.803,16.562h5.582l-2.621-16.562H356.943z"/>
				<path fill="#A0C219" d="M365.669,285.52h3.537l3.485,13.125h0.287l3.146-13.125h3.433l-5.293,16.562v12.246h-3.38v-12.246
					L365.669,285.52z"/>
			</g>
		</g>
	</g>
</g>
</svg>
