<?xml version="1.0" encoding="utf-8"?>
<!-- Generator: Adobe Illustrator 16.0.0, SVG Export Plug-In . SVG Version: 6.00 Build 0)  -->
<!DOCTYPE svg PUBLIC "-//W3C//DTD SVG 1.1//EN" "http://www.w3.org/Graphics/SVG/1.1/DTD/svg11.dtd">
<svg version="1.1" id="Capa_1" xmlns="http://www.w3.org/2000/svg" xmlns:xlink="http://www.w3.org/1999/xlink" x="0px" y="0px"
	 width="178.462px" height="129.769px" viewBox="0 0 178.462 129.769" enable-background="new 0 0 178.462 129.769"
	 xml:space="preserve">
<g>
	<polygon opacity="0.7" fill="#FFFFFF" points="0,3.968 178.462,0 178.462,57.79 22.82,57.762 	"/>
	<polygon opacity="0.7" fill="#FFFFFF" points="0,65.491 178.462,61.524 178.462,119.314 22.82,119.286 	"/>
	<g>
		<g>
			<path fill="#331842" d="M34.952,12.999h1.72v13.714h3.103v1.182h-4.823V12.999z"/>
			<path fill="#331842" d="M43.649,12.999h2.52l2.886,14.896h-1.856l-0.691-4.141h-3.278l-0.745,4.141h-1.815L43.649,12.999z
				 M44.841,14.1l-1.45,8.564h2.886L44.923,14.1H44.841z"/>
			<path fill="#331842" d="M55.124,12.999h2.019c1.707,0,2.822,0.2,3.347,0.601c0.523,0.4,0.786,1.318,0.786,2.752v8.19
				c0,1.427-0.267,2.343-0.799,2.747c-0.533,0.404-1.644,0.605-3.333,0.605h-2.019V12.999z M56.845,14.1v12.694H57.4
				c0.831,0,1.379-0.103,1.646-0.308c0.267-0.206,0.4-0.658,0.4-1.358v-9.332c0-0.707-0.135-1.166-0.406-1.378
				C58.769,14.206,58.222,14.1,57.4,14.1H56.845z"/>
			<path fill="#331842" d="M64.31,12.999h1.829v14.896H64.31V12.999z"/>
			<path fill="#331842" d="M74.403,15.362v1.424h-1.802v-1.384c0-0.586-0.081-0.988-0.243-1.207
				c-0.163-0.219-0.452-0.328-0.867-0.328c-0.397,0-0.678,0.123-0.84,0.369c-0.163,0.246-0.244,0.682-0.244,1.308v0.727
				c0,0.303,0.056,0.615,0.169,0.935c0.113,0.32,0.278,0.621,0.495,0.904l2.249,2.959c0.379,0.499,0.654,0.968,0.826,1.409
				c0.171,0.441,0.257,0.897,0.257,1.368v1.01c0,1.292-0.219,2.165-0.657,2.616c-0.438,0.451-1.218,0.677-2.337,0.677
				c-1.093,0-1.854-0.182-2.283-0.546c-0.429-0.363-0.644-1.05-0.644-2.06v-1.656h1.815v1.605c0,0.606,0.081,1.017,0.244,1.232
				c0.162,0.215,0.46,0.323,0.894,0.323c0.442,0,0.748-0.123,0.915-0.369c0.167-0.246,0.25-0.786,0.25-1.621v-1.03
				c0-0.384-0.047-0.732-0.142-1.045c-0.095-0.313-0.233-0.597-0.414-0.854l-2.384-3.171c-0.334-0.424-0.589-0.828-0.766-1.212
				c-0.176-0.384-0.264-0.717-0.264-1v-0.868c0-1.158,0.214-1.964,0.644-2.419c0.429-0.454,1.167-0.682,2.215-0.682
				c1.102,0,1.862,0.179,2.283,0.535C74.193,13.669,74.403,14.352,74.403,15.362z"/>
			<path fill="#331842" d="M82.531,15.362v1.424h-1.815v-1.384c0-0.579-0.083-0.979-0.25-1.202
				c-0.167-0.222-0.463-0.333-0.888-0.333c-0.389,0-0.659,0.126-0.813,0.379c-0.154,0.252-0.23,0.782-0.23,1.591v9.22
				c0,0.828,0.081,1.367,0.244,1.616s0.46,0.374,0.894,0.374c0.37,0,0.637-0.118,0.799-0.353c0.163-0.236,0.244-0.637,0.244-1.202
				v-1.605h1.815v1.656c0,1.017-0.212,1.705-0.637,2.065c-0.424,0.36-1.183,0.541-2.276,0.541c-1.075,0-1.825-0.232-2.249-0.697
				c-0.425-0.464-0.637-1.329-0.637-2.595v-8.816c0-1.259,0.212-2.118,0.637-2.575c0.424-0.458,1.174-0.687,2.249-0.687
				c1.102,0,1.863,0.179,2.283,0.535C82.321,13.669,82.531,14.352,82.531,15.362z"/>
			<path fill="#331842" d="M86.474,12.999h2.521l2.885,14.896h-1.856l-0.691-4.141h-3.279l-0.745,4.141h-1.815L86.474,12.999z
				 M87.666,14.1l-1.449,8.564h2.885L87.747,14.1H87.666z"/>
			<path fill="#331842" d="M93.708,12.999h2.222c1.355,0,2.276,0.143,2.764,0.429c0.487,0.286,0.731,0.793,0.731,1.52v4.282
				c0,0.728-0.244,1.232-0.731,1.515c-0.488,0.283-1.409,0.424-2.764,0.424h-0.501v6.726h-1.72V12.999z M95.429,14.1v5.979h0.461
				c0.687,0,1.145-0.103,1.375-0.308c0.23-0.205,0.346-0.668,0.346-1.388v-2.586c0-0.72-0.115-1.183-0.346-1.389
				c-0.23-0.205-0.688-0.308-1.375-0.308H95.429z"/>
			<path fill="#331842" d="M102.623,12.999h2.52l2.886,14.896h-1.856l-0.691-4.141h-3.278l-0.745,4.141h-1.815L102.623,12.999z
				 M103.815,14.1l-1.45,8.564h2.886l-1.354-8.564H103.815z"/>
			<path fill="#331842" d="M115.574,15.362v1.424h-1.815v-1.384c0-0.579-0.083-0.979-0.25-1.202
				c-0.167-0.222-0.463-0.333-0.888-0.333c-0.389,0-0.659,0.126-0.813,0.379c-0.154,0.252-0.23,0.782-0.23,1.591v9.22
				c0,0.828,0.081,1.367,0.244,1.616s0.46,0.374,0.894,0.374c0.37,0,0.637-0.118,0.799-0.353c0.163-0.236,0.244-0.637,0.244-1.202
				v-1.605h1.815v1.656c0,1.017-0.212,1.705-0.637,2.065c-0.424,0.36-1.183,0.541-2.276,0.541c-1.075,0-1.825-0.232-2.249-0.697
				c-0.425-0.464-0.637-1.329-0.637-2.595v-8.816c0-1.259,0.212-2.118,0.637-2.575c0.424-0.458,1.174-0.687,2.249-0.687
				c1.102,0,1.863,0.179,2.283,0.535C115.364,13.669,115.574,14.352,115.574,15.362z"/>
			<path fill="#331842" d="M117.823,12.999h1.829v14.896h-1.829V12.999z"/>
			<path fill="#331842" d="M122.701,12.999h2.019c1.707,0,2.822,0.2,3.346,0.601c0.523,0.4,0.786,1.318,0.786,2.752v8.19
				c0,1.427-0.267,2.343-0.8,2.747c-0.533,0.404-1.644,0.605-3.333,0.605h-2.019V12.999z M124.421,14.1v12.694h0.556
				c0.831,0,1.38-0.103,1.646-0.308c0.266-0.206,0.4-0.658,0.4-1.358v-9.332c0-0.707-0.136-1.166-0.406-1.378
				c-0.271-0.212-0.818-0.318-1.64-0.318H124.421z"/>
			<path fill="#331842" d="M133.58,12.999h2.52l2.886,14.896h-1.856l-0.69-4.141h-3.279l-0.745,4.141h-1.815L133.58,12.999z
				 M134.771,14.1l-1.449,8.564h2.886l-1.355-8.564H134.771z"/>
			<path fill="#331842" d="M140.814,12.999h2.019c1.707,0,2.822,0.2,3.346,0.601c0.524,0.4,0.786,1.318,0.786,2.752v8.19
				c0,1.427-0.267,2.343-0.799,2.747c-0.533,0.404-1.644,0.605-3.333,0.605h-2.019V12.999z M142.535,14.1v12.694h0.555
				c0.831,0,1.38-0.103,1.646-0.308c0.266-0.206,0.399-0.658,0.399-1.358v-9.332c0-0.707-0.135-1.166-0.406-1.378
				c-0.271-0.212-0.817-0.318-1.64-0.318H142.535z"/>
			<path fill="#331842" d="M152.709,12.999h1.829l1.802,6.786h0.149l1.625-6.786h1.775l-2.737,8.563v6.332h-1.747v-6.332
				L152.709,12.999z"/>
			<path fill="#331842" d="M49.448,30.234h1.72v13.714h3.103v1.182h-4.823V30.234z"/>
			<path fill="#331842" d="M58.146,30.234h2.52l2.886,14.896h-1.856l-0.691-4.141h-3.278L56.98,45.13h-1.815L58.146,30.234z
				 M59.337,31.335l-1.45,8.564h2.886l-1.354-8.564H59.337z"/>
			<path fill="#331842" d="M70.596,32.598v1.424h-1.802v-1.384c0-0.585-0.081-0.988-0.244-1.207
				c-0.162-0.219-0.452-0.329-0.867-0.329c-0.397,0-0.677,0.123-0.84,0.369c-0.162,0.246-0.244,0.682-0.244,1.308v0.727
				c0,0.303,0.056,0.615,0.169,0.934c0.113,0.32,0.277,0.621,0.494,0.904l2.249,2.959c0.379,0.498,0.655,0.968,0.827,1.408
				c0.171,0.441,0.257,0.897,0.257,1.369v1.01c0,1.292-0.219,2.164-0.657,2.615c-0.438,0.451-1.217,0.677-2.337,0.677
				c-1.093,0-1.854-0.182-2.283-0.545s-0.644-1.05-0.644-2.06v-1.656h1.815v1.605c0,0.606,0.082,1.017,0.244,1.232
				c0.163,0.215,0.461,0.323,0.895,0.323c0.442,0,0.747-0.123,0.914-0.369c0.167-0.245,0.251-0.786,0.251-1.621v-1.03
				c0-0.384-0.048-0.732-0.143-1.045s-0.232-0.597-0.413-0.854l-2.384-3.171c-0.334-0.424-0.589-0.828-0.766-1.212
				s-0.264-0.717-0.264-1v-0.869c0-1.158,0.215-1.964,0.644-2.418s1.167-0.682,2.215-0.682c1.102,0,1.863,0.178,2.283,0.535
				S70.596,31.588,70.596,32.598z"/>
			<path fill="#331842" d="M77.248,30.234h2.628c1.354,0,2.271,0.142,2.75,0.424c0.479,0.283,0.718,0.792,0.718,1.525v3.373
				c0,0.619-0.158,1.057-0.474,1.312c-0.316,0.256-0.876,0.411-1.68,0.465c0.857,0.04,1.454,0.188,1.788,0.444
				s0.501,0.7,0.501,1.333v4.07c0,0.734-0.239,1.242-0.718,1.525c-0.479,0.283-1.396,0.424-2.75,0.424h-2.764V30.234z
				 M78.968,31.335v5.443h0.61c0.786,0,1.31-0.103,1.571-0.308c0.262-0.206,0.393-0.662,0.393-1.369v-2.07
				c0-0.713-0.131-1.175-0.393-1.383c-0.262-0.209-0.786-0.313-1.571-0.313H78.968z M78.968,37.89v6.14h0.637
				c0.831,0,1.379-0.103,1.646-0.308s0.399-0.658,0.399-1.358v-2.797c0-0.7-0.133-1.155-0.399-1.364
				c-0.267-0.208-0.815-0.312-1.646-0.312H78.968z"/>
			<path fill="#331842" d="M88.181,30.234h2.52l2.885,14.896H91.73l-0.691-4.141h-3.278l-0.745,4.141H85.2L88.181,30.234z
				 M89.373,31.335l-1.45,8.564h2.885l-1.354-8.564H89.373z"/>
			<path fill="#331842" d="M95.416,30.234h2.628c1.354,0,2.271,0.142,2.75,0.424c0.479,0.283,0.718,0.792,0.718,1.525v3.373
				c0,0.619-0.158,1.057-0.474,1.312c-0.316,0.256-0.876,0.411-1.68,0.465c0.858,0.04,1.454,0.188,1.789,0.444
				c0.334,0.256,0.501,0.7,0.501,1.333v6.019h-1.829v-5.564c0-0.7-0.133-1.155-0.399-1.364c-0.267-0.208-0.815-0.312-1.646-0.312
				h-0.637v7.241h-1.72V30.234z M97.136,31.335v5.443h0.61c0.786,0,1.31-0.103,1.572-0.308c0.262-0.206,0.393-0.662,0.393-1.369
				v-2.07c0-0.713-0.131-1.175-0.393-1.383c-0.262-0.209-0.786-0.313-1.572-0.313H97.136z"/>
			<path fill="#331842" d="M104.655,30.234h2.628c1.354,0,2.271,0.142,2.75,0.424c0.479,0.283,0.718,0.792,0.718,1.525v3.373
				c0,0.619-0.158,1.057-0.474,1.312c-0.316,0.256-0.876,0.411-1.68,0.465c0.857,0.04,1.454,0.188,1.788,0.444
				s0.501,0.7,0.501,1.333v6.019h-1.829v-5.564c0-0.7-0.133-1.155-0.399-1.364c-0.267-0.208-0.815-0.312-1.646-0.312h-0.637v7.241
				h-1.72V30.234z M106.375,31.335v5.443h0.61c0.786,0,1.31-0.103,1.571-0.308c0.262-0.206,0.393-0.662,0.393-1.369v-2.07
				c0-0.713-0.131-1.175-0.393-1.383c-0.262-0.209-0.786-0.313-1.571-0.313H106.375z"/>
			<path fill="#331842" d="M113.895,30.234h4.769v1.182h-3.048v5.362h2.913v1.172h-2.913v5.999h3.129v1.182h-4.85V30.234z"/>
			<path fill="#331842" d="M121.224,30.234h2.628c1.355,0,2.271,0.142,2.75,0.424c0.479,0.283,0.718,0.792,0.718,1.525v3.373
				c0,0.619-0.158,1.057-0.474,1.312c-0.316,0.256-0.876,0.411-1.68,0.465c0.858,0.04,1.454,0.188,1.789,0.444
				c0.334,0.256,0.501,0.7,0.501,1.333v6.019h-1.829v-5.564c0-0.7-0.134-1.155-0.4-1.364c-0.266-0.208-0.815-0.312-1.646-0.312
				h-0.637v7.241h-1.721V30.234z M122.944,31.335v5.443h0.609c0.786,0,1.31-0.103,1.572-0.308c0.262-0.206,0.393-0.662,0.393-1.369
				v-2.07c0-0.713-0.131-1.175-0.393-1.383c-0.262-0.209-0.786-0.313-1.572-0.313H122.944z"/>
			<path fill="#331842" d="M132.157,30.234h2.52l2.886,14.896h-1.856l-0.691-4.141h-3.278l-0.745,4.141h-1.815L132.157,30.234z
				 M133.349,31.335l-1.45,8.564h2.886l-1.354-8.564H133.349z"/>
			<path fill="#331842" d="M144.607,32.598v1.424h-1.802v-1.384c0-0.585-0.081-0.988-0.244-1.207
				c-0.162-0.219-0.452-0.329-0.867-0.329c-0.397,0-0.677,0.123-0.84,0.369c-0.162,0.246-0.244,0.682-0.244,1.308v0.727
				c0,0.303,0.056,0.615,0.169,0.934c0.113,0.32,0.277,0.621,0.494,0.904l2.249,2.959c0.379,0.498,0.655,0.968,0.827,1.408
				c0.171,0.441,0.257,0.897,0.257,1.369v1.01c0,1.292-0.219,2.164-0.657,2.615c-0.438,0.451-1.217,0.677-2.337,0.677
				c-1.093,0-1.854-0.182-2.283-0.545s-0.644-1.05-0.644-2.06v-1.656h1.815v1.605c0,0.606,0.082,1.017,0.244,1.232
				c0.163,0.215,0.461,0.323,0.895,0.323c0.442,0,0.747-0.123,0.914-0.369c0.167-0.245,0.251-0.786,0.251-1.621v-1.03
				c0-0.384-0.048-0.732-0.143-1.045s-0.232-0.597-0.413-0.854l-2.384-3.171c-0.334-0.424-0.589-0.828-0.766-1.212
				s-0.264-0.717-0.264-1v-0.869c0-1.158,0.215-1.964,0.644-2.418s1.167-0.682,2.215-0.682c1.102,0,1.863,0.178,2.283,0.535
				S144.607,31.588,144.607,32.598z"/>
		</g>
	</g>
	<g>
		<g>
			<path fill="#331842" d="M61.601,77.886v1.424h-1.802v-1.384c0-0.586-0.081-0.988-0.244-1.207s-0.452-0.328-0.867-0.328
				c-0.397,0-0.677,0.123-0.84,0.369s-0.244,0.682-0.244,1.308v0.727c0,0.303,0.056,0.615,0.169,0.935s0.278,0.621,0.495,0.904
				l2.249,2.959c0.379,0.499,0.655,0.968,0.827,1.409c0.171,0.441,0.257,0.897,0.257,1.368v1.01c0,1.292-0.219,2.165-0.657,2.616
				s-1.217,0.677-2.337,0.677c-1.093,0-1.854-0.182-2.282-0.546c-0.43-0.363-0.644-1.05-0.644-2.06V86.41h1.815v1.605
				c0,0.606,0.081,1.017,0.244,1.232c0.163,0.215,0.46,0.323,0.894,0.323c0.442,0,0.747-0.123,0.915-0.369
				c0.167-0.246,0.25-0.786,0.25-1.621v-1.03c0-0.384-0.047-0.732-0.142-1.045c-0.095-0.313-0.233-0.597-0.414-0.854l-2.384-3.171
				c-0.334-0.424-0.59-0.828-0.766-1.212c-0.176-0.384-0.265-0.717-0.265-1v-0.868c0-1.158,0.215-1.964,0.644-2.419
				c0.429-0.454,1.167-0.682,2.215-0.682c1.102,0,1.863,0.179,2.283,0.535C61.391,76.193,61.601,76.876,61.601,77.886z"/>
			<path fill="#331842" d="M64.013,75.523h1.829v14.896h-1.829V75.523z"/>
			<path fill="#331842" d="M67.575,75.523h5.866v1.182h-2.059v13.714h-1.748V76.705h-2.06V75.523z"/>
			<path fill="#331842" d="M75.162,75.523h1.802v12.058c0,0.774,0.1,1.296,0.298,1.565c0.199,0.27,0.551,0.404,1.057,0.404
				c0.497,0,0.842-0.135,1.037-0.404c0.194-0.269,0.291-0.791,0.291-1.565V75.523h1.802v11.856c0,1.279-0.23,2.148-0.69,2.605
				c-0.461,0.458-1.283,0.687-2.466,0.687c-1.165,0-1.979-0.232-2.438-0.697c-0.461-0.464-0.691-1.329-0.691-2.595V75.523z"/>
			<path fill="#331842" d="M86.177,75.523h2.52l2.886,14.896h-1.856l-0.691-4.141h-3.278l-0.745,4.141h-1.815L86.177,75.523z
				 M87.369,76.624l-1.45,8.564h2.886l-1.354-8.564H87.369z"/>
			<path fill="#331842" d="M99.128,77.886v1.424h-1.815v-1.384c0-0.579-0.083-0.979-0.25-1.202
				c-0.167-0.222-0.463-0.333-0.888-0.333c-0.389,0-0.659,0.126-0.813,0.379c-0.154,0.252-0.23,0.782-0.23,1.591v9.22
				c0,0.828,0.081,1.367,0.244,1.616s0.46,0.374,0.894,0.374c0.37,0,0.637-0.118,0.799-0.353c0.163-0.236,0.244-0.637,0.244-1.202
				V86.41h1.815v1.656c0,1.017-0.212,1.705-0.637,2.065c-0.424,0.36-1.183,0.541-2.276,0.541c-1.075,0-1.825-0.232-2.249-0.697
				c-0.425-0.464-0.637-1.329-0.637-2.595v-8.816c0-1.259,0.212-2.118,0.637-2.575c0.424-0.458,1.174-0.687,2.249-0.687
				c1.102,0,1.863,0.179,2.283,0.535C98.918,76.193,99.128,76.876,99.128,77.886z"/>
			<path fill="#331842" d="M101.377,75.523h1.829v14.896h-1.829V75.523z"/>
			<path fill="#331842" d="M112.459,78.563v8.816c0,1.279-0.23,2.148-0.69,2.605c-0.461,0.458-1.283,0.687-2.466,0.687
				c-1.165,0-1.979-0.232-2.438-0.697c-0.461-0.464-0.691-1.329-0.691-2.595v-8.816c0-1.252,0.232-2.109,0.698-2.57
				c0.465-0.461,1.285-0.692,2.459-0.692s1.989,0.229,2.445,0.687S112.459,77.304,112.459,78.563z M110.657,78.361
				c0-0.754-0.1-1.271-0.298-1.551c-0.199-0.279-0.551-0.419-1.057-0.419c-0.497,0-0.843,0.137-1.037,0.409
				c-0.194,0.272-0.292,0.793-0.292,1.561v9.22c0,0.774,0.1,1.296,0.298,1.565c0.199,0.27,0.551,0.404,1.057,0.404
				c0.497,0,0.842-0.135,1.037-0.404c0.194-0.269,0.291-0.791,0.291-1.565V78.361z"/>
			<path fill="#331842" d="M115.494,75.523h2.357l2.858,14.007h0.027l-0.258-14.007h1.558v14.896h-2.384l-2.832-13.815h-0.054
				l0.244,13.815h-1.518V75.523z"/>
			<path fill="#331842" d="M125.126,75.523h4.769v1.182h-3.049v5.362h2.913v1.171h-2.913v5.999h3.13v1.182h-4.85V75.523z"/>
			<path fill="#331842" d="M137.672,77.886v1.424h-1.802v-1.384c0-0.586-0.081-0.988-0.244-1.207s-0.452-0.328-0.867-0.328
				c-0.397,0-0.677,0.123-0.84,0.369s-0.244,0.682-0.244,1.308v0.727c0,0.303,0.057,0.615,0.169,0.935s0.278,0.621,0.495,0.904
				l2.249,2.959c0.379,0.499,0.654,0.968,0.826,1.409c0.172,0.441,0.258,0.897,0.258,1.368v1.01c0,1.292-0.219,2.165-0.657,2.616
				c-0.438,0.451-1.217,0.677-2.337,0.677c-1.093,0-1.854-0.182-2.283-0.546c-0.429-0.363-0.644-1.05-0.644-2.06V86.41h1.815v1.605
				c0,0.606,0.082,1.017,0.244,1.232c0.163,0.215,0.46,0.323,0.894,0.323c0.442,0,0.748-0.123,0.915-0.369
				c0.167-0.246,0.25-0.786,0.25-1.621v-1.03c0-0.384-0.047-0.732-0.142-1.045c-0.095-0.313-0.232-0.597-0.413-0.854l-2.385-3.171
				c-0.334-0.424-0.589-0.828-0.766-1.212c-0.176-0.384-0.264-0.717-0.264-1v-0.868c0-1.158,0.214-1.964,0.644-2.419
				c0.429-0.454,1.167-0.682,2.215-0.682c1.102,0,1.863,0.179,2.283,0.535C137.462,76.193,137.672,76.876,137.672,77.886z"/>
			<path fill="#331842" d="M32.026,92.759h2.019c1.707,0,2.822,0.2,3.346,0.601c0.524,0.401,0.786,1.318,0.786,2.752v8.19
				c0,1.428-0.267,2.343-0.799,2.747s-1.644,0.606-3.333,0.606h-2.019V92.759z M33.747,93.859v12.694h0.555
				c0.831,0,1.38-0.103,1.646-0.308c0.266-0.205,0.399-0.658,0.399-1.358v-9.332c0-0.707-0.135-1.167-0.406-1.378
				s-0.817-0.318-1.64-0.318H33.747z"/>
			<path fill="#331842" d="M41.211,92.759h4.769v1.182h-3.049v5.362h2.913v1.172h-2.913v5.999h3.13v1.182h-4.85V92.759z"/>
			<path fill="#331842" d="M51.643,92.759h1.748l1.856,13.411h0.189l1.748-13.411h1.639l-2.167,14.896h-2.682L51.643,92.759z"/>
			<path fill="#331842" d="M60.721,92.759h1.802v12.058c0,0.774,0.099,1.296,0.298,1.565c0.198,0.269,0.551,0.404,1.057,0.404
				c0.497,0,0.842-0.135,1.036-0.404s0.292-0.791,0.292-1.565V92.759h1.802v11.856c0,1.279-0.23,2.147-0.691,2.605
				c-0.46,0.458-1.282,0.687-2.466,0.687c-1.165,0-1.978-0.232-2.438-0.697c-0.46-0.464-0.69-1.33-0.69-2.595V92.759z"/>
			<path fill="#331842" d="M70.041,92.759h1.721v13.714h3.103v1.182h-4.823V92.759z"/>
			<path fill="#331842" d="M76.531,92.759h2.357l2.859,14.007h0.027l-0.257-14.007h1.558v14.896H80.69l-2.832-13.815h-0.054
				l0.244,13.815h-1.517V92.759z"/>
			<path fill="#331842" d="M86.163,92.759h4.769v1.182h-3.048v5.362h2.913v1.172h-2.913v5.999h3.129v1.182h-4.85V92.759z"/>
			<path fill="#331842" d="M93.492,92.759h2.628c1.355,0,2.271,0.142,2.75,0.424c0.479,0.283,0.718,0.792,0.718,1.525v3.373
				c0,0.619-0.158,1.057-0.474,1.312c-0.316,0.256-0.876,0.411-1.68,0.465c0.858,0.04,1.454,0.188,1.789,0.444
				c0.334,0.256,0.501,0.7,0.501,1.333v6.019h-1.829v-5.564c0-0.7-0.134-1.155-0.4-1.364c-0.266-0.208-0.815-0.312-1.646-0.312
				h-0.637v7.241h-1.721V92.759z M95.213,93.859v5.443h0.609c0.786,0,1.31-0.103,1.572-0.308c0.262-0.206,0.393-0.662,0.393-1.369
				v-2.07c0-0.713-0.131-1.175-0.393-1.383c-0.262-0.209-0.786-0.313-1.572-0.313H95.213z"/>
			<path fill="#331842" d="M104.426,92.759h2.52l2.886,14.896h-1.856l-0.691-4.141h-3.278l-0.745,4.141h-1.815L104.426,92.759z
				 M105.618,93.859l-1.45,8.564h2.886l-1.354-8.564H105.618z"/>
			<path fill="#331842" d="M111.66,92.759h2.628c1.355,0,2.271,0.142,2.75,0.424c0.479,0.283,0.718,0.792,0.718,1.525v3.373
				c0,0.619-0.158,1.057-0.475,1.312s-0.876,0.411-1.68,0.465c0.858,0.04,1.454,0.188,1.788,0.444s0.501,0.7,0.501,1.333v4.07
				c0,0.734-0.24,1.242-0.718,1.525c-0.479,0.283-1.396,0.424-2.75,0.424h-2.764V92.759z M113.381,93.859v5.443h0.609
				c0.786,0,1.31-0.103,1.571-0.308c0.262-0.206,0.393-0.662,0.393-1.369v-2.07c0-0.713-0.131-1.175-0.393-1.383
				c-0.262-0.209-0.785-0.313-1.571-0.313H113.381z M113.381,100.414v6.14h0.637c0.831,0,1.379-0.103,1.646-0.308
				c0.267-0.205,0.4-0.658,0.4-1.358v-2.797c0-0.7-0.133-1.155-0.4-1.364c-0.266-0.208-0.815-0.312-1.646-0.312H113.381z"/>
			<path fill="#331842" d="M120.899,92.759h1.829v14.896h-1.829V92.759z"/>
			<path fill="#331842" d="M125.777,92.759h1.72v13.714h3.103v1.182h-4.823V92.759z"/>
			<path fill="#331842" d="M132.267,92.759h1.829v14.896h-1.829V92.759z"/>
			<path fill="#331842" d="M137.144,92.759h2.019c1.707,0,2.822,0.2,3.346,0.601c0.524,0.401,0.786,1.318,0.786,2.752v8.19
				c0,1.428-0.267,2.343-0.799,2.747c-0.533,0.404-1.645,0.606-3.333,0.606h-2.019V92.759z M138.864,93.859v12.694h0.555
				c0.831,0,1.379-0.103,1.646-0.308s0.399-0.658,0.399-1.358v-9.332c0-0.707-0.135-1.167-0.406-1.378
				c-0.271-0.212-0.817-0.318-1.639-0.318H138.864z"/>
			<path fill="#331842" d="M148.022,92.759h2.52l2.886,14.896h-1.856l-0.691-4.141h-3.278l-0.745,4.141h-1.815L148.022,92.759z
				 M149.214,93.859l-1.45,8.564h2.886l-1.354-8.564H149.214z"/>
			<path fill="#331842" d="M155.257,92.759h2.019c1.707,0,2.822,0.2,3.346,0.601c0.524,0.401,0.786,1.318,0.786,2.752v8.19
				c0,1.428-0.267,2.343-0.799,2.747c-0.533,0.404-1.645,0.606-3.333,0.606h-2.019V92.759z M156.978,93.859v12.694h0.555
				c0.831,0,1.379-0.103,1.646-0.308s0.399-0.658,0.399-1.358v-9.332c0-0.707-0.135-1.167-0.406-1.378
				c-0.271-0.212-0.817-0.318-1.639-0.318H156.978z"/>
		</g>
	</g>
</g>
</svg>
