<?xml version="1.0" encoding="utf-8"?>
<!-- Generator: Adobe Illustrator 16.0.0, SVG Export Plug-In . SVG Version: 6.00 Build 0)  -->
<!DOCTYPE svg PUBLIC "-//W3C//DTD SVG 1.1//EN" "http://www.w3.org/Graphics/SVG/1.1/DTD/svg11.dtd">
<svg version="1.1" id="Capa_1" xmlns="http://www.w3.org/2000/svg" xmlns:xlink="http://www.w3.org/1999/xlink" x="0px" y="0px"
	 width="154.416px" height="36.006px" viewBox="448.041 196.285 154.416 36.006"
	 enable-background="new 448.041 196.285 154.416 36.006" xml:space="preserve">
<g>
	<polygon fill="#F2961C" points="448.041,196.285 458.421,232.291 594.136,226.973 602.457,196.285 	"/>
	<g>
		<g>
			<path fill="#331842" d="M516.974,208.791v0.876h-1.106v-0.852c0-0.359-0.049-0.606-0.15-0.741
				c-0.1-0.135-0.276-0.202-0.533-0.202c-0.244,0-0.416,0.075-0.516,0.228c-0.102,0.151-0.15,0.419-0.15,0.804v0.447
				c0,0.188,0.035,0.378,0.104,0.574c0.07,0.197,0.172,0.383,0.305,0.557l1.383,1.819c0.232,0.307,0.402,0.596,0.509,0.866
				c0.104,0.271,0.157,0.553,0.157,0.842v0.621c0,0.795-0.135,1.332-0.403,1.609c-0.271,0.276-0.748,0.416-1.438,0.416
				c-0.672,0-1.141-0.112-1.403-0.336c-0.265-0.223-0.396-0.646-0.396-1.268v-1.019h1.117v0.986c0,0.373,0.051,0.625,0.149,0.758
				c0.101,0.134,0.283,0.199,0.552,0.199c0.271,0,0.459-0.075,0.561-0.228c0.104-0.15,0.154-0.482,0.154-0.997v-0.633
				c0-0.236-0.029-0.45-0.088-0.644c-0.06-0.191-0.144-0.367-0.254-0.524l-1.468-1.95c-0.205-0.261-0.36-0.509-0.471-0.746
				c-0.106-0.235-0.162-0.44-0.162-0.614v-0.534c0-0.712,0.133-1.208,0.396-1.487c0.263-0.279,0.719-0.419,1.36-0.419
				c0.681,0,1.146,0.109,1.404,0.328C516.845,207.75,516.974,208.17,516.974,208.791z"/>
			<path fill="#331842" d="M519.5,207.338h1.551l1.775,9.162h-1.144l-0.426-2.547h-2.016l-0.459,2.547h-1.115L519.5,207.338z
				 M520.234,208.015l-0.894,5.269h1.775l-0.834-5.269H520.234z"/>
			<path fill="#331842" d="M523.949,207.338h1.059v8.436h1.908v0.728h-2.967V207.338L523.949,207.338z"/>
			<path fill="#331842" d="M527.89,207.338H529v7.416c0,0.478,0.061,0.797,0.182,0.963c0.123,0.166,0.341,0.249,0.65,0.249
				c0.305,0,0.518-0.083,0.637-0.249s0.181-0.485,0.181-0.963v-7.416h1.106v7.292c0,0.787-0.141,1.321-0.424,1.604
				s-0.789,0.422-1.518,0.422c-0.718,0-1.218-0.143-1.5-0.429c-0.283-0.286-0.427-0.817-0.427-1.597v-7.292H527.89z"/>
			<path fill="#331842" d="M533.625,207.338h1.24c1.051,0,1.735,0.123,2.059,0.369c0.322,0.247,0.482,0.812,0.482,1.692v5.038
				c0,0.878-0.164,1.44-0.492,1.688c-0.328,0.249-1.01,0.373-2.049,0.373h-1.242v-9.162L533.625,207.338L533.625,207.338z
				 M534.681,208.015v7.809h0.345c0.51,0,0.848-0.063,1.012-0.189s0.246-0.403,0.246-0.835v-5.738c0-0.436-0.084-0.718-0.25-0.849
				c-0.168-0.13-0.504-0.195-1.008-0.195L534.681,208.015L534.681,208.015z"/>
		</g>
	</g>
</g>
</svg>
