<?xml version="1.0" encoding="utf-8"?>
<!-- Generator: Adobe Illustrator 16.0.0, SVG Export Plug-In . SVG Version: 6.00 Build 0)  -->
<!DOCTYPE svg PUBLIC "-//W3C//DTD SVG 1.1//EN" "http://www.w3.org/Graphics/SVG/1.1/DTD/svg11.dtd">
<svg version="1.1" id="Capa_1" xmlns="http://www.w3.org/2000/svg" xmlns:xlink="http://www.w3.org/1999/xlink" x="0px" y="0px"
	 width="564.996px" height="322.434px" viewBox="0 0 564.996 322.434" enable-background="new 0 0 564.996 322.434"
	 xml:space="preserve">
<g>
	<g>
		<path fill="#F2961C" d="M2.046,4.748h2.26v18.011H8.38v1.552H2.046V4.748z"/>
		<path fill="#F2961C" d="M13.469,4.748h3.309l3.79,19.563H18.13l-0.907-5.438h-4.306l-0.979,5.438H9.555L13.469,4.748z
			 M15.035,6.193L13.131,17.44h3.79l-1.78-11.247H15.035z"/>
		<path fill="#F2961C" d="M28.539,4.748h2.651c2.242,0,3.707,0.263,4.395,0.789c0.688,0.526,1.032,1.73,1.032,3.614v10.756
			c0,1.875-0.35,3.077-1.05,3.607c-0.7,0.531-2.159,0.796-4.377,0.796h-2.651V4.748z M30.799,6.193v16.672h0.729
			c1.091,0,1.812-0.135,2.162-0.404s0.525-0.864,0.525-1.784V8.421c0-0.929-0.178-1.532-0.534-1.811
			c-0.356-0.278-1.074-0.418-2.153-0.418L30.799,6.193L30.799,6.193z"/>
		<path fill="#F2961C" d="M40.603,4.748h2.402v19.563h-2.402V4.748z"/>
		<path fill="#F2961C" d="M53.858,7.851v1.87h-2.366V7.904c0-0.769-0.107-1.297-0.32-1.585c-0.213-0.287-0.593-0.431-1.139-0.431
			c-0.522,0-0.89,0.161-1.103,0.484c-0.214,0.323-0.32,0.895-0.32,1.717v0.955c0,0.398,0.074,0.807,0.222,1.227
			s0.365,0.816,0.649,1.187l2.954,3.886c0.498,0.654,0.86,1.271,1.085,1.85c0.225,0.579,0.338,1.179,0.338,1.797v1.327
			c0,1.698-0.288,2.843-0.863,3.435c-0.575,0.592-1.598,0.889-3.069,0.889c-1.435,0-2.435-0.239-2.998-0.716
			c-0.563-0.478-0.845-1.38-0.845-2.706v-2.175h2.384v2.108c0,0.796,0.107,1.335,0.32,1.618s0.605,0.425,1.174,0.425
			c0.581,0,0.981-0.162,1.201-0.484c0.219-0.323,0.329-1.032,0.329-2.129V19.23c0-0.504-0.062-0.962-0.187-1.373
			s-0.305-0.784-0.543-1.121l-3.131-4.165c-0.439-0.557-0.774-1.088-1.005-1.592s-0.347-0.941-0.347-1.313V8.527
			c0-1.521,0.282-2.58,0.845-3.176c0.563-0.597,1.533-0.896,2.909-0.896c1.447,0,2.447,0.234,2.998,0.703
			C53.581,5.627,53.858,6.525,53.858,7.851z"/>
		<path fill="#F2961C" d="M64.533,7.851v1.87h-2.384V7.904c0-0.76-0.11-1.286-0.329-1.578c-0.22-0.292-0.608-0.438-1.166-0.438
			c-0.51,0-0.866,0.166-1.068,0.497c-0.202,0.332-0.302,1.028-0.302,2.089v12.109c0,1.088,0.107,1.795,0.32,2.122
			c0.214,0.327,0.605,0.491,1.174,0.491c0.486,0,0.836-0.155,1.05-0.465c0.214-0.309,0.32-0.835,0.32-1.578v-2.108h2.384v2.175
			c0,1.335-0.279,2.239-0.836,2.712c-0.558,0.473-1.554,0.709-2.989,0.709c-1.412,0-2.396-0.305-2.954-0.915
			s-0.836-1.746-0.836-3.409V8.74c0-1.653,0.279-2.781,0.836-3.382s1.542-0.902,2.954-0.902c1.447,0,2.447,0.234,2.998,0.703
			C64.256,5.628,64.533,6.525,64.533,7.851z"/>
		<path fill="#F2961C" d="M69.711,4.748h3.309l3.79,19.563h-2.438l-0.907-5.438h-4.306l-0.979,5.438h-2.384L69.711,4.748z
			 M71.277,6.193L69.373,17.44h3.79l-1.78-11.247H71.277z"/>
		<path fill="#F2961C" d="M79.212,4.748h2.918c1.779,0,2.989,0.188,3.63,0.563c0.641,0.376,0.961,1.041,0.961,1.996v5.624
			c0,0.955-0.32,1.618-0.961,1.99c-0.64,0.371-1.85,0.557-3.63,0.557h-0.658v8.833h-2.26V4.748z M81.472,6.193v7.852h0.605
			c0.901,0,1.504-0.135,1.806-0.405c0.302-0.27,0.454-0.877,0.454-1.823V8.421c0-0.946-0.151-1.554-0.454-1.824
			c-0.302-0.27-0.905-0.405-1.806-0.405L81.472,6.193L81.472,6.193z"/>
		<path fill="#F2961C" d="M90.92,4.748h3.309l3.79,19.563h-2.438l-0.907-5.438h-4.306l-0.979,5.438h-2.384L90.92,4.748z
			 M92.486,6.193L90.582,17.44h3.79l-1.78-11.247H92.486z"/>
		<path fill="#F2961C" d="M107.93,7.851v1.87h-2.384V7.904c0-0.76-0.11-1.286-0.329-1.578c-0.22-0.292-0.608-0.438-1.166-0.438
			c-0.51,0-0.866,0.166-1.068,0.497c-0.202,0.332-0.302,1.028-0.302,2.089v12.109c0,1.088,0.107,1.795,0.32,2.122
			c0.214,0.327,0.605,0.491,1.174,0.491c0.486,0,0.836-0.155,1.05-0.465c0.214-0.309,0.32-0.835,0.32-1.578v-2.108h2.384v2.175
			c0,1.335-0.279,2.239-0.836,2.712c-0.558,0.473-1.554,0.709-2.989,0.709c-1.412,0-2.396-0.305-2.954-0.915
			s-0.836-1.746-0.836-3.409V8.74c0-1.653,0.279-2.781,0.836-3.382s1.542-0.902,2.954-0.902c1.447,0,2.447,0.234,2.998,0.703
			C107.653,5.628,107.93,6.525,107.93,7.851z"/>
		<path fill="#F2961C" d="M110.883,4.748h2.402v19.563h-2.402V4.748z"/>
		<path fill="#F2961C" d="M117.288,4.748h2.651c2.242,0,3.707,0.263,4.395,0.789c0.688,0.526,1.032,1.73,1.032,3.614v10.756
			c0,1.875-0.35,3.077-1.05,3.607c-0.7,0.531-2.159,0.796-4.377,0.796h-2.651V4.748z M119.548,6.193v16.672h0.729
			c1.091,0,1.812-0.135,2.162-0.404s0.525-0.864,0.525-1.784V8.421c0-0.929-0.178-1.532-0.534-1.811
			c-0.356-0.278-1.074-0.418-2.153-0.418L119.548,6.193L119.548,6.193z"/>
		<path fill="#F2961C" d="M131.576,4.748h3.309l3.79,19.563h-2.438l-0.907-5.438h-4.306l-0.979,5.438h-2.384L131.576,4.748z
			 M133.141,6.193l-1.904,11.247h3.79l-1.779-11.247H133.141z"/>
		<path fill="#F2961C" d="M141.077,4.748h2.651c2.242,0,3.707,0.263,4.395,0.789c0.688,0.526,1.032,1.73,1.032,3.614v10.756
			c0,1.875-0.35,3.077-1.05,3.607c-0.7,0.531-2.159,0.796-4.377,0.796h-2.651V4.748z M143.337,6.193v16.672h0.729
			c1.091,0,1.812-0.135,2.162-0.404s0.525-0.864,0.525-1.784V8.421c0-0.929-0.178-1.532-0.534-1.811
			c-0.356-0.278-1.074-0.418-2.153-0.418L143.337,6.193L143.337,6.193z"/>
		<path fill="#F2961C" d="M156.699,4.748h2.402l2.366,8.913h0.196l2.135-8.913h2.331l-3.594,11.247v8.316h-2.295v-8.316
			L156.699,4.748z"/>
		<path fill="#F2961C" d="M173.833,4.748h2.26v18.011h4.074v1.552h-6.334V4.748z"/>
		<path fill="#F2961C" d="M185.256,4.748h3.309l3.79,19.563h-2.438l-0.907-5.438h-4.306l-0.979,5.438h-2.384L185.256,4.748z
			 M186.822,6.193l-1.904,11.247h3.79l-1.779-11.247H186.822z"/>
		<path fill="#F2961C" d="M201.607,7.851v1.87h-2.366V7.904c0-0.769-0.107-1.297-0.32-1.585c-0.213-0.287-0.593-0.431-1.139-0.431
			c-0.522,0-0.89,0.161-1.103,0.484c-0.214,0.323-0.32,0.895-0.32,1.717v0.955c0,0.398,0.074,0.807,0.222,1.227
			s0.365,0.816,0.649,1.187l2.954,3.886c0.498,0.654,0.86,1.271,1.085,1.85c0.225,0.579,0.338,1.179,0.338,1.797v1.327
			c0,1.698-0.288,2.843-0.863,3.435c-0.575,0.592-1.598,0.889-3.069,0.889c-1.435,0-2.435-0.239-2.998-0.716
			c-0.563-0.478-0.845-1.38-0.845-2.706v-2.175h2.384v2.108c0,0.796,0.107,1.335,0.32,1.618c0.213,0.283,0.605,0.425,1.174,0.425
			c0.581,0,0.981-0.162,1.201-0.484c0.219-0.323,0.329-1.032,0.329-2.129V19.23c0-0.504-0.062-0.962-0.187-1.373
			s-0.305-0.784-0.543-1.121l-3.131-4.165c-0.439-0.557-0.774-1.088-1.005-1.592s-0.347-0.941-0.347-1.313V8.527
			c0-1.521,0.282-2.58,0.845-3.176c0.563-0.597,1.533-0.896,2.909-0.896c1.447,0,2.447,0.234,2.998,0.703
			C201.33,5.627,201.607,6.525,201.607,7.851z"/>
		<path fill="#F2961C" d="M210.343,4.748h3.452c1.779,0,2.983,0.186,3.612,0.557c0.628,0.372,0.943,1.039,0.943,2.003v4.43
			c0,0.814-0.208,1.389-0.623,1.725s-1.151,0.539-2.206,0.61c1.127,0.053,1.909,0.248,2.348,0.583
			c0.439,0.336,0.658,0.92,0.658,1.751v5.345c0,0.964-0.314,1.632-0.943,2.003s-1.833,0.557-3.612,0.557h-3.63L210.343,4.748
			L210.343,4.748z M212.603,6.193v7.149h0.801c1.032,0,1.72-0.135,2.064-0.405c0.344-0.27,0.516-0.869,0.516-1.797V8.421
			c0-0.938-0.172-1.543-0.516-1.817c-0.344-0.273-1.032-0.411-2.064-0.411H212.603z M212.603,14.801v8.064h0.836
			c1.091,0,1.812-0.135,2.162-0.404s0.525-0.864,0.525-1.784v-3.674c0-0.919-0.175-1.517-0.525-1.791s-1.071-0.411-2.162-0.411
			H212.603z"/>
		<path fill="#F2961C" d="M224.702,4.748h3.309l3.79,19.563h-2.438l-0.907-5.438h-4.306l-0.979,5.438h-2.384L224.702,4.748z
			 M226.268,6.193l-1.904,11.247h3.79l-1.779-11.247H226.268z"/>
		<path fill="#F2961C" d="M234.203,4.748h3.452c1.779,0,2.983,0.186,3.612,0.557c0.628,0.372,0.943,1.039,0.943,2.003v4.43
			c0,0.814-0.208,1.389-0.623,1.725s-1.151,0.539-2.206,0.61c1.127,0.053,1.909,0.248,2.348,0.583
			c0.439,0.336,0.658,0.92,0.658,1.751v7.905h-2.402v-7.308c0-0.919-0.175-1.517-0.525-1.791s-1.071-0.411-2.162-0.411h-0.836v9.51
			h-2.26L234.203,4.748L234.203,4.748z M236.463,6.193v7.149h0.801c1.032,0,1.72-0.135,2.064-0.405
			c0.344-0.27,0.516-0.869,0.516-1.797V8.421c0-0.938-0.172-1.543-0.516-1.817c-0.344-0.273-1.032-0.411-2.064-0.411H236.463z"/>
		<path fill="#F2961C" d="M246.338,4.748h3.452c1.779,0,2.983,0.186,3.612,0.557c0.628,0.372,0.943,1.039,0.943,2.003v4.43
			c0,0.814-0.208,1.389-0.623,1.725s-1.151,0.539-2.206,0.61c1.127,0.053,1.909,0.248,2.348,0.583
			c0.439,0.336,0.658,0.92,0.658,1.751v7.905h-2.402v-7.308c0-0.919-0.175-1.517-0.525-1.791c-0.35-0.274-1.071-0.411-2.162-0.411
			h-0.836v9.51h-2.26L246.338,4.748L246.338,4.748z M248.597,6.193v7.149h0.801c1.032,0,1.72-0.135,2.064-0.405
			c0.344-0.27,0.516-0.869,0.516-1.797V8.421c0-0.938-0.172-1.543-0.516-1.817c-0.344-0.273-1.032-0.411-2.064-0.411H248.597z"/>
		<path fill="#F2961C" d="M258.472,4.748h6.263V6.3h-4.003v7.043h3.825v1.538h-3.825v7.878h4.11v1.552h-6.37V4.748z"/>
		<path fill="#F2961C" d="M268.098,4.748h3.452c1.779,0,2.983,0.186,3.612,0.557c0.628,0.372,0.943,1.039,0.943,2.003v4.43
			c0,0.814-0.208,1.389-0.623,1.725s-1.151,0.539-2.206,0.61c1.127,0.053,1.909,0.248,2.348,0.583
			c0.439,0.336,0.658,0.92,0.658,1.751v7.905h-2.402v-7.308c0-0.919-0.175-1.517-0.525-1.791s-1.071-0.411-2.162-0.411h-0.836v9.51
			h-2.26L268.098,4.748L268.098,4.748z M270.358,6.193v7.149h0.801c1.032,0,1.72-0.135,2.064-0.405
			c0.344-0.27,0.516-0.869,0.516-1.797V8.421c0-0.938-0.172-1.543-0.516-1.817c-0.344-0.273-1.032-0.411-2.064-0.411H270.358z"/>
		<path fill="#F2961C" d="M282.457,4.748h3.309l3.79,19.563h-2.438l-0.908-5.438h-4.306l-0.979,5.438h-2.384L282.457,4.748z
			 M284.022,6.193l-1.904,11.247h3.79l-1.779-11.247H284.022z"/>
		<path fill="#F2961C" d="M298.808,7.851v1.87h-2.366V7.904c0-0.769-0.106-1.297-0.319-1.585c-0.213-0.287-0.594-0.431-1.14-0.431
			c-0.522,0-0.89,0.161-1.103,0.484c-0.215,0.323-0.32,0.895-0.32,1.717v0.955c0,0.398,0.074,0.807,0.223,1.227
			c0.147,0.42,0.364,0.816,0.648,1.187l2.953,3.886c0.498,0.654,0.861,1.271,1.086,1.85c0.225,0.579,0.338,1.179,0.338,1.797v1.327
			c0,1.698-0.288,2.843-0.863,3.435c-0.574,0.592-1.598,0.889-3.068,0.889c-1.436,0-2.436-0.239-2.998-0.716
			c-0.563-0.478-0.846-1.38-0.846-2.706v-2.175h2.385v2.108c0,0.796,0.106,1.335,0.319,1.618c0.214,0.283,0.604,0.425,1.175,0.425
			c0.58,0,0.98-0.162,1.2-0.484c0.22-0.323,0.329-1.032,0.329-2.129V19.23c0-0.504-0.062-0.962-0.188-1.373
			s-0.305-0.784-0.543-1.121l-3.131-4.165c-0.438-0.557-0.773-1.088-1.004-1.592c-0.232-0.504-0.348-0.941-0.348-1.313V8.527
			c0-1.521,0.281-2.58,0.846-3.176c0.562-0.597,1.532-0.896,2.908-0.896c1.447,0,2.447,0.234,2.998,0.703
			C298.531,5.627,298.808,6.525,298.808,7.851z"/>
		<path fill="#F2961C" d="M307.544,4.748h6.084V6.3h-3.824v7.096h3.683v1.539h-3.683v9.377h-2.26V4.748L307.544,4.748z"/>
		<path fill="#F2961C" d="M316.405,4.748h2.402v19.563h-2.402V4.748z M318.113,0.012h2.51l-2.332,2.958h-1.744L318.113,0.012z"/>
		<path fill="#F2961C" d="M329.66,7.851v1.87h-2.365V7.904c0-0.769-0.107-1.297-0.32-1.585c-0.213-0.287-0.594-0.431-1.139-0.431
			c-0.522,0-0.891,0.161-1.104,0.484c-0.214,0.323-0.32,0.895-0.32,1.717v0.955c0,0.398,0.074,0.807,0.223,1.227
			s0.365,0.816,0.648,1.187l2.954,3.886c0.498,0.654,0.86,1.271,1.085,1.85c0.225,0.579,0.338,1.179,0.338,1.797v1.327
			c0,1.698-0.287,2.843-0.863,3.435c-0.574,0.592-1.598,0.889-3.068,0.889c-1.436,0-2.436-0.239-2.998-0.716
			c-0.562-0.478-0.846-1.38-0.846-2.706v-2.175h2.385v2.108c0,0.796,0.107,1.335,0.32,1.618s0.604,0.425,1.174,0.425
			c0.58,0,0.98-0.162,1.201-0.484c0.219-0.323,0.328-1.032,0.328-2.129V19.23c0-0.504-0.062-0.962-0.187-1.373
			s-0.306-0.784-0.543-1.121l-3.131-4.165c-0.438-0.557-0.774-1.088-1.005-1.592c-0.231-0.504-0.348-0.941-0.348-1.313V8.527
			c0-1.521,0.282-2.58,0.846-3.176c0.562-0.597,1.533-0.896,2.908-0.896c1.447,0,2.447,0.234,2.998,0.703
			C329.382,5.627,329.66,6.525,329.66,7.851z"/>
		<path fill="#F2961C" d="M332.828,4.748h2.401v19.563h-2.401V4.748z"/>
		<path fill="#F2961C" d="M346.742,7.851v1.87h-2.385V7.904c0-0.76-0.109-1.286-0.329-1.578s-0.608-0.438-1.166-0.438
			c-0.51,0-0.866,0.166-1.067,0.497c-0.203,0.332-0.303,1.028-0.303,2.089v12.109c0,1.088,0.107,1.795,0.32,2.122
			c0.214,0.327,0.605,0.491,1.174,0.491c0.486,0,0.836-0.155,1.051-0.465c0.213-0.309,0.319-0.835,0.319-1.578v-2.108h2.384v2.175
			c0,1.335-0.279,2.239-0.836,2.712c-0.558,0.473-1.554,0.709-2.988,0.709c-1.412,0-2.396-0.305-2.955-0.915
			c-0.558-0.61-0.836-1.746-0.836-3.409V8.74c0-1.653,0.279-2.781,0.836-3.382c0.558-0.601,1.543-0.902,2.955-0.902
			c1.446,0,2.446,0.234,2.998,0.703C346.464,5.628,346.742,6.525,346.742,7.851z"/>
		<path fill="#F2961C" d="M351.917,4.748h3.31l3.79,19.563h-2.438l-0.908-5.438h-4.305l-0.979,5.438h-2.384L351.917,4.748z
			 M353.484,6.193L351.58,17.44h3.791l-1.779-11.247H353.484z"/>
		<path fill="#F2961C" d="M368.27,7.851v1.87h-2.366V7.904c0-0.769-0.107-1.297-0.32-1.585c-0.213-0.287-0.592-0.431-1.139-0.431
			c-0.521,0-0.89,0.161-1.104,0.484c-0.213,0.323-0.319,0.895-0.319,1.717v0.955c0,0.398,0.074,0.807,0.222,1.227
			c0.148,0.42,0.365,0.816,0.649,1.187l2.954,3.886c0.498,0.654,0.859,1.271,1.085,1.85c0.225,0.579,0.338,1.179,0.338,1.797v1.327
			c0,1.698-0.288,2.843-0.863,3.435s-1.598,0.889-3.069,0.889c-1.435,0-2.435-0.239-2.998-0.716
			c-0.562-0.478-0.844-1.38-0.844-2.706v-2.175h2.383v2.108c0,0.796,0.107,1.335,0.32,1.618s0.605,0.425,1.174,0.425
			c0.582,0,0.981-0.162,1.201-0.484c0.219-0.323,0.329-1.032,0.329-2.129V19.23c0-0.504-0.062-0.962-0.187-1.373
			s-0.305-0.784-0.543-1.121l-3.131-4.165c-0.439-0.557-0.774-1.088-1.006-1.592c-0.23-0.504-0.347-0.941-0.347-1.313V8.527
			c0-1.521,0.282-2.58,0.845-3.176c0.563-0.597,1.533-0.896,2.909-0.896c1.447,0,2.447,0.234,2.998,0.703
			C367.994,5.627,368.27,6.525,368.27,7.851z"/>
		<path fill="#F2961C" d="M374.996,4.748h2.401l2.366,8.913h0.195l2.136-8.913h2.331l-3.594,11.247v8.316h-2.295v-8.316
			L374.996,4.748z"/>
		<path fill="#F2961C" d="M398.978,7.851v1.87h-2.365V7.904c0-0.769-0.107-1.297-0.32-1.585c-0.213-0.287-0.592-0.431-1.139-0.431
			c-0.521,0-0.89,0.161-1.104,0.484c-0.213,0.323-0.319,0.895-0.319,1.717v0.955c0,0.398,0.074,0.807,0.222,1.227
			c0.148,0.42,0.365,0.816,0.649,1.187l2.954,3.886c0.498,0.654,0.859,1.271,1.084,1.85c0.227,0.579,0.338,1.179,0.338,1.797v1.327
			c0,1.698-0.287,2.843-0.861,3.435c-0.576,0.592-1.6,0.889-3.07,0.889c-1.435,0-2.435-0.239-2.998-0.716
			c-0.562-0.478-0.844-1.38-0.844-2.706v-2.175h2.383v2.108c0,0.796,0.107,1.335,0.32,1.618s0.605,0.425,1.174,0.425
			c0.582,0,0.98-0.162,1.201-0.484c0.219-0.323,0.33-1.032,0.33-2.129V19.23c0-0.504-0.062-0.962-0.188-1.373
			s-0.305-0.784-0.543-1.121l-3.131-4.165c-0.439-0.557-0.774-1.088-1.006-1.592c-0.23-0.504-0.347-0.941-0.347-1.313V8.527
			c0-1.521,0.282-2.58,0.845-3.176c0.563-0.597,1.533-0.896,2.909-0.896c1.446,0,2.446,0.234,2.999,0.703
			C398.703,5.627,398.978,6.525,398.978,7.851z"/>
		<path fill="#F2961C" d="M410.294,8.74v11.579c0,1.68-0.301,2.821-0.906,3.422c-0.605,0.601-1.684,0.902-3.238,0.902
			c-1.529,0-2.598-0.305-3.203-0.915s-0.906-1.746-0.906-3.409V8.74c0-1.646,0.305-2.771,0.916-3.375
			c0.611-0.606,1.686-0.909,3.229-0.909c1.541,0,2.613,0.301,3.211,0.902C409.996,5.959,410.294,7.086,410.294,8.74z M407.929,8.474
			c0-0.99-0.131-1.669-0.391-2.036c-0.262-0.367-0.725-0.55-1.389-0.55c-0.652,0-1.105,0.179-1.361,0.537
			c-0.254,0.358-0.381,1.041-0.381,2.049v12.109c0,1.017,0.129,1.702,0.391,2.056c0.26,0.354,0.723,0.531,1.387,0.531
			c0.652,0,1.107-0.177,1.361-0.531c0.256-0.354,0.383-1.039,0.383-2.056V8.474z"/>
		<path fill="#F2961C" d="M421.791,7.851v1.87h-2.385V7.904c0-0.76-0.109-1.286-0.328-1.578c-0.221-0.292-0.609-0.438-1.166-0.438
			c-0.51,0-0.867,0.166-1.068,0.497c-0.203,0.332-0.303,1.028-0.303,2.089v12.109c0,1.088,0.107,1.795,0.32,2.122
			c0.215,0.327,0.605,0.491,1.174,0.491c0.486,0,0.836-0.155,1.051-0.465c0.213-0.309,0.32-0.835,0.32-1.578v-2.108h2.383v2.175
			c0,1.335-0.279,2.239-0.836,2.712c-0.559,0.473-1.553,0.709-2.988,0.709c-1.412,0-2.396-0.305-2.955-0.915
			c-0.557-0.61-0.836-1.746-0.836-3.409V8.74c0-1.653,0.279-2.781,0.836-3.382c0.559-0.601,1.543-0.902,2.955-0.902
			c1.447,0,2.447,0.234,2.998,0.703C421.513,5.628,421.791,6.525,421.791,7.851z"/>
		<path fill="#F2961C" d="M424.744,4.748h2.4v19.563h-2.4V4.748z"/>
		<path fill="#F2961C" d="M433.373,4.748h3.309l3.789,19.563h-2.438l-0.906-5.438h-4.307l-0.979,5.438h-2.385L433.373,4.748z
			 M434.937,6.193l-1.902,11.247h3.789l-1.779-11.247H434.937z"/>
		<path fill="#F2961C" d="M442.875,4.748h2.26v18.011h4.074v1.552h-6.334V4.748z"/>
		<path fill="#F2961C" d="M451.396,4.748h6.264V6.3h-4.004v7.043h3.826v1.538h-3.826v7.878h4.109v1.552h-6.369V4.748z"/>
		<path fill="#F2961C" d="M467.873,7.851v1.87h-2.367V7.904c0-0.769-0.105-1.297-0.32-1.585c-0.213-0.287-0.592-0.431-1.139-0.431
			c-0.521,0-0.889,0.161-1.102,0.484c-0.215,0.323-0.32,0.895-0.32,1.717v0.955c0,0.398,0.074,0.807,0.221,1.227
			c0.148,0.42,0.365,0.816,0.65,1.187l2.953,3.886c0.498,0.654,0.859,1.271,1.086,1.85c0.225,0.579,0.338,1.179,0.338,1.797v1.327
			c0,1.698-0.289,2.843-0.863,3.435c-0.576,0.592-1.598,0.889-3.068,0.889c-1.436,0-2.436-0.239-2.998-0.716
			c-0.564-0.478-0.846-1.38-0.846-2.706v-2.175h2.385v2.108c0,0.796,0.105,1.335,0.318,1.618s0.605,0.425,1.174,0.425
			c0.582,0,0.982-0.162,1.201-0.484c0.219-0.323,0.33-1.032,0.33-2.129V19.23c0-0.504-0.062-0.962-0.188-1.373
			s-0.305-0.784-0.543-1.121l-3.131-4.165c-0.439-0.557-0.773-1.088-1.006-1.592c-0.23-0.504-0.346-0.941-0.346-1.313V8.527
			c0-1.521,0.281-2.58,0.844-3.176c0.564-0.597,1.533-0.896,2.91-0.896c1.447,0,2.447,0.234,2.998,0.703
			C467.595,5.627,467.873,6.525,467.873,7.851z"/>
	</g>
	<polygon fill="#F2961C" points="2.874,120.184 5.995,153.814 46.805,148.847 49.307,120.184 	"/>
	<g>
		<g>
			<path fill="#331842" d="M30.499,124.246v23.18H22.74v-12.427c0-1.794-0.058-2.873-0.173-3.236
				c-0.115-0.362-0.432-0.637-0.951-0.823c-0.519-0.186-1.674-0.279-3.467-0.279h-0.768v-2.702c3.751-0.602,6.6-1.839,8.547-3.712
				L30.499,124.246L30.499,124.246z"/>
		</g>
	</g>
	<polygon fill="#F2961C" points="2.874,161.587 5.995,195.217 46.805,190.25 49.307,161.587 	"/>
	<g>
		<g>
			<path fill="#331842" d="M32.881,184.877v3.951H15.806l0.005-3.308c5.058-6.166,8.063-9.981,9.017-11.446
				c0.954-1.466,1.431-2.607,1.431-3.43c0-0.63-0.144-1.1-0.433-1.41s-0.728-0.465-1.318-0.465c-0.59,0-1.029,0.172-1.317,0.516
				c-0.289,0.344-0.433,1.025-0.433,2.047v2.205h-6.953v-0.845c0-1.298,0.089-2.321,0.269-3.071
				c0.179-0.748,0.621-1.486,1.325-2.211c0.704-0.727,1.62-1.275,2.747-1.646c1.126-0.373,2.478-0.559,4.052-0.559
				c3.086,0,5.419,0.569,7.001,1.711c1.581,1.141,2.372,2.584,2.372,4.33c0,1.328-0.445,2.729-1.335,4.209
				c-0.89,1.48-3.512,4.621-7.865,9.422H32.881L32.881,184.877z"/>
		</g>
	</g>
	<polygon fill="#F2961C" points="2.874,202.991 5.995,236.622 46.805,231.654 49.307,202.991 	"/>
	<g>
		<g>
			<path fill="#331842" d="M30.173,217.096c1.178,0.296,2.055,0.781,2.631,1.453c0.576,0.675,0.864,2.252,0.864,4.734
				c0,1.844-0.282,3.273-0.845,4.291c-0.564,1.018-1.537,1.791-2.919,2.32c-1.382,0.529-3.156,0.795-5.32,0.795
				c-2.458,0-4.389-0.309-5.791-0.924c-1.402-0.616-2.324-1.369-2.766-2.262c-0.442-0.894-0.663-2.441-0.663-4.646v-1.832h7.76
				v3.766c0,1.002,0.08,1.639,0.24,1.91c0.16,0.272,0.515,0.408,1.066,0.408c0.602,0,0.999-0.172,1.191-0.516
				s0.288-1.24,0.288-2.691v-1.604c0-0.889-0.135-1.537-0.403-1.947c-0.269-0.41-0.666-0.68-1.191-0.809s-1.543-0.203-3.054-0.223
				v-3.363c1.844,0,2.983-0.054,3.419-0.158c0.435-0.105,0.749-0.334,0.941-0.688s0.288-0.906,0.288-1.66v-1.289
				c0-0.812-0.112-1.347-0.336-1.604c-0.224-0.257-0.573-0.386-1.047-0.386c-0.538,0-0.906,0.136-1.104,0.408
				c-0.199,0.271-0.298,0.852-0.298,1.739v1.904h-7.76v-1.976c0-2.215,0.678-3.711,2.036-4.488c1.357-0.778,3.515-1.168,6.473-1.168
				c3.7,0,6.21,0.539,7.529,1.617c1.319,1.078,1.978,2.576,1.978,4.494c0,1.297-0.237,2.233-0.71,2.812
				C32.196,216.092,31.364,216.62,30.173,217.096z"/>
		</g>
	</g>
	<polygon fill="#F2961C" points="64.105,120.211 66.621,322.434 481.773,311.928 469.003,118.284 	"/>
</g>
</svg>
