<?xml version="1.0" encoding="utf-8"?>
<!-- Generator: Adobe Illustrator 16.0.0, SVG Export Plug-In . SVG Version: 6.00 Build 0)  -->
<!DOCTYPE svg PUBLIC "-//W3C//DTD SVG 1.1//EN" "http://www.w3.org/Graphics/SVG/1.1/DTD/svg11.dtd">
<svg version="1.1" id="Capa_1" xmlns="http://www.w3.org/2000/svg" xmlns:xlink="http://www.w3.org/1999/xlink" x="0px" y="0px"
	 width="527.314px" height="328.894px" viewBox="0 0 527.314 328.894" enable-background="new 0 0 527.314 328.894"
	 xml:space="preserve">
<g>
	<g>
		<path fill="#2C5A67" d="M0,0l4.824,328.894l485.493-2.455l26.682-285.675c-2.938,1.357-6.245,2.037-9.704,1.839
			c-11.229-0.643-19.821-10.275-19.178-21.514c0.175-3.051,1.014-5.914,2.367-8.438L0,0z"/>
		<path fill="#2C5A67" d="M509.037,12.247c-5.528-0.316-10.266,3.907-10.582,9.435c-0.316,5.526,3.907,10.262,9.437,10.579
			c5.525,0.315,10.263-3.909,10.577-9.434C518.786,17.3,514.564,12.563,509.037,12.247z M513.104,26.276
			c0.287,0.324,0.261,0.819-0.062,1.109c-0.326,0.287-0.819,0.26-1.107-0.064l-3.53-3.959l-3.96,3.531
			c-0.325,0.288-0.82,0.26-1.109-0.063c-0.282-0.325-0.254-0.819,0.063-1.108l3.958-3.531l-3.529-3.96
			c-0.289-0.324-0.255-0.817,0.071-1.109c0.315-0.279,0.812-0.259,1.102,0.064l3.531,3.959l3.958-3.53
			c0.322-0.28,0.816-0.252,1.108,0.062c0.287,0.326,0.259,0.819-0.063,1.11l-3.959,3.531L513.104,26.276z"/>
		<g>
			<path fill="#2C5A67" d="M489.641,21.177c0.594-10.379,9.521-18.339,19.898-17.746c10.378,0.593,18.34,9.521,17.744,19.899
				c-0.593,10.378-9.52,18.339-19.898,17.746C497.007,40.481,489.046,31.556,489.641,21.177z M495.459,21.51
				c-0.41,7.171,5.09,13.336,12.258,13.746c7.172,0.41,13.339-5.088,13.748-12.259c0.411-7.17-5.089-13.337-12.259-13.747
				C502.035,8.841,495.869,14.34,495.459,21.51z"/>
		</g>
	</g>
	<g>
		<path fill="#A0C219" d="M228.007,41.377v2.754h-3.485v-2.676c0-1.133-0.157-1.91-0.472-2.334
			c-0.314-0.423-0.873-0.635-1.677-0.635c-0.769,0-1.31,0.238-1.624,0.713c-0.314,0.476-0.472,1.318-0.472,2.529v1.406
			c0,0.586,0.108,1.188,0.327,1.807c0.219,0.619,0.537,1.201,0.957,1.748l4.349,5.723c0.733,0.964,1.267,1.872,1.599,2.725
			c0.332,0.854,0.498,1.735,0.498,2.646v1.953c0,2.5-0.424,4.187-1.271,5.059c-0.847,0.873-2.354,1.309-4.52,1.309
			c-2.113,0-3.585-0.352-4.414-1.055c-0.83-0.703-1.245-2.031-1.245-3.984v-3.203h3.511v3.105c0,1.172,0.157,1.967,0.472,2.383
			c0.314,0.417,0.892,0.625,1.729,0.625c0.855,0,1.445-0.237,1.769-0.713c0.323-0.475,0.484-1.52,0.484-3.135v-1.992
			c0-0.742-0.091-1.416-0.274-2.021c-0.183-0.605-0.45-1.155-0.8-1.65l-4.611-6.133c-0.646-0.82-1.14-1.602-1.48-2.344
			c-0.34-0.742-0.511-1.387-0.511-1.934v-1.68c0-2.239,0.415-3.799,1.244-4.678c0.83-0.879,2.258-1.318,4.284-1.318
			c2.131,0,3.603,0.346,4.415,1.035C227.601,38.103,228.007,39.424,228.007,41.377z"/>
		<path fill="#A0C219" d="M235.945,36.807h4.874l5.58,28.809h-3.589l-1.337-8.008h-6.34l-1.441,8.008h-3.512L235.945,36.807z
			 M238.251,38.936l-2.803,16.562h5.58l-2.62-16.562H238.251z"/>
		<path fill="#A0C219" d="M249.937,36.807h3.328V63.33h6v2.285h-9.328V36.807L249.937,36.807z"/>
		<path fill="#A0C219" d="M262.33,36.807h3.483v23.32c0,1.498,0.192,2.507,0.578,3.027c0.383,0.521,1.063,0.781,2.043,0.781
			c0.961,0,1.629-0.26,2.004-0.781s0.563-1.529,0.563-3.027v-23.32h3.483v22.93c0,2.475-0.444,4.154-1.336,5.039
			c-0.891,0.886-2.479,1.328-4.769,1.328c-2.254,0-3.825-0.449-4.717-1.348c-0.891-0.898-1.336-2.571-1.336-5.02V36.807H262.33z"/>
		<path fill="#A0C219" d="M280.356,36.807h3.903c3.302,0,5.458,0.388,6.472,1.162c1.014,0.775,1.521,2.549,1.521,5.322v15.84
			c0,2.761-0.517,4.531-1.546,5.312c-1.031,0.781-3.18,1.172-6.445,1.172h-3.904V36.807L280.356,36.807z M283.685,38.936v24.551
			h1.074c1.606,0,2.668-0.198,3.184-0.596c0.515-0.396,0.772-1.272,0.772-2.627V42.217c0-1.367-0.263-2.256-0.786-2.666
			c-0.523-0.41-1.58-0.615-3.17-0.615H283.685z"/>
	</g>
</g>
</svg>
