<?xml version="1.0" encoding="utf-8"?>
<!-- Generator: Adobe Illustrator 16.0.0, SVG Export Plug-In . SVG Version: 6.00 Build 0)  -->
<!DOCTYPE svg PUBLIC "-//W3C//DTD SVG 1.1//EN" "http://www.w3.org/Graphics/SVG/1.1/DTD/svg11.dtd">
<svg version="1.1" id="Capa_1" xmlns="http://www.w3.org/2000/svg" xmlns:xlink="http://www.w3.org/1999/xlink" x="0px" y="0px"
	 width="734.339px" height="413.176px" viewBox="0 0 734.339 413.176" enable-background="new 0 0 734.339 413.176"
	 xml:space="preserve">
<g>
	<g>
		<g>
			<path fill="#F39200" d="M341.658,279.797l0.069-14.241l-0.171-0.871c-0.007-0.038-0.002-0.074,0.014-0.107l-0.396-0.215
				l-1.006-0.302l-1.092-0.069c-0.018,0-0.036-0.006-0.053-0.012l-0.695-0.277l-1.193-0.597c-0.013-0.006-0.023-0.014-0.034-0.022
				L334.599,261c-0.022-0.019-0.039-0.043-0.049-0.07l-0.14-0.348c-0.009-0.024-0.014-0.052-0.011-0.079l0.035-0.417
				c0.001-0.018,0.006-0.035,0.013-0.052l1.007-2.432l0.233-1.184l0.042-0.616l-0.708,0.512l-0.538,0.508l-0.293,0.221l-0.443,0.224
				c-0.019,0.01-0.039,0.016-0.06,0.018l-1.356,0.139l-1.015,0.274l-0.786,0.273c-0.015,0.005-0.029,0.008-0.045,0.009l-0.486,0.035
				h-0.394l-0.21,0.091c-0.021,0.009-0.045,0.014-0.068,0.014h-0.383l-0.884,0.132l-0.368,0.184l-0.326,0.327l-0.221,0.184
				c-0.012,0.01-0.026,0.02-0.041,0.026l-0.312,0.139c-0.013,0.005-0.024,0.009-0.038,0.012l-0.85,0.171l-0.469,0.201l-1.571,0.352
				l-0.709,0.372c-0.017,0.009-0.034,0.014-0.053,0.018l-0.417,0.069l-0.359,0.037c-0.012,0.001-0.024,0.001-0.036,0l0,0
				l-0.312-0.036c-0.015-0.001-0.028-0.005-0.042-0.01l-0.279-0.104c-0.013-0.005-0.024-0.011-0.035-0.018l-0.185-0.123
				l-0.453-0.121l-0.271,0.061c-0.02,0.004-0.039,0.005-0.059,0.003l-0.868-0.105l-2.127,0.071
				c-0.012,0.002-0.025-0.001-0.037-0.002l-0.318-0.058l-0.086,0.052l-0.327,0.458l-0.994,0.962l-0.61,0.433l-0.782,0.428
				l-1.241,0.429l-1.885,1.031l-1.079,0.777l-0.404,0.439l-0.502,0.431l-0.442,0.262c-0.035,0.02-0.077,0.029-0.117,0.02
				l-0.416-0.068l-0.262-0.074c-0.031-0.009-0.059-0.025-0.081-0.049l-0.424-0.458l-0.762-0.297
				c-0.017-0.008-0.031-0.015-0.044-0.026l-0.592-0.467l-0.177,0.048l-0.098,1.82l-0.105,0.678l-0.144,0.538
				c-0.006,0.023-0.017,0.044-0.031,0.063l-0.625,0.798l-0.184,0.338l-0.203,0.779l-0.494,1.17l-0.273,0.515l-0.135,0.569
				l-0.175,0.665l-1.085,2.559c-0.005,0.016-0.016,0.031-0.025,0.044l-0.144,0.171l-0.062,0.403l0.002,0.761l0.323,0.549
				c0.007,0.011,0.012,0.022,0.016,0.034l0.062,0.189l0.268,0.434l0.171,0.341l0.195,0.227c0.014,0.018,0.025,0.037,0.032,0.059
				l0.104,0.313c0.012,0.036,0.012,0.074,0,0.109l-0.07,0.209c-0.016,0.055-0.06,0.096-0.116,0.111l-0.244,0.07
				c-0.034,0.011-0.073,0.009-0.108-0.004l-0.277-0.105c-0.028-0.01-0.053-0.026-0.073-0.05l-0.173-0.209
				c-0.017-0.021-0.028-0.044-0.035-0.07l-0.163-0.715l-0.059,0.058l-0.024,0.23l0.031,0.223c0.003,0.02,0.001,0.039-0.001,0.058
				l-0.035,0.174c-0.009,0.045-0.037,0.085-0.074,0.11c-0.039,0.025-0.086,0.036-0.131,0.025l-0.281-0.055l-0.061,0.036
				l-0.041,0.121l0,0v0.493l-0.037,0.237c-0.003,0.016-0.007,0.031-0.014,0.045l-0.277,0.591l-0.258,0.374
				c-0.012,0.017-0.027,0.031-0.044,0.042l-0.436,0.302l-1.029,1.099c-0.023,0.024-0.054,0.041-0.085,0.05l-0.278,0.069
				c-0.022,0.005-0.044,0.007-0.068,0.003l-0.242-0.035l-0.343-0.111l-0.29-0.057l-0.372,0.086l-0.263,0.233l-0.334,0.502
				l-0.158,0.388l-0.183,0.331c-0.006,0.013-0.016,0.024-0.026,0.035l-0.729,0.765l-0.711,0.572l-4.238,4.406l0.183,0.099
				c0.03,0.017,0.055,0.041,0.07,0.07l0.277,0.523c0.009,0.016,0.015,0.036,0.018,0.055l0.136,0.915l0.146,0.321l0.236,0.189
				l0.019-0.008l0.075-0.149c0.018-0.037,0.05-0.067,0.091-0.083l0.173-0.069c0.051-0.022,0.11-0.016,0.159,0.014l0.381,0.244
				c0.017,0.01,0.031,0.023,0.043,0.038l0.278,0.348c0.011,0.013,0.019,0.028,0.025,0.044l0.139,0.347
				c0.01,0.026,0.015,0.053,0.012,0.08l-0.034,0.383c-0.002,0.028-0.013,0.056-0.029,0.08l-0.18,0.269v0.419l0.697,0.538
				l0.888,0.545l0.543,0.468c0.042,0.037,0.064,0.093,0.059,0.149l-0.035,0.347l-0.107,0.44l-0.06,0.328l0.051,0.152h0.17l0,0
				l0.686-0.458c0.039-0.026,0.085-0.035,0.13-0.026l0.347,0.07c0.05,0.01,0.091,0.04,0.117,0.083l0.242,0.416l0.174,0.411
				l0.226,0.256l0.478,0.158c0.018,0.007,0.035,0.016,0.049,0.026l0.278,0.208c0.019,0.015,0.034,0.031,0.046,0.052l0.486,0.833
				l0.233,0.258l2.331,1.096l1.159,0.749h0.18l0.204-0.117l0.409-0.15c0.028-0.01,0.058-0.014,0.088-0.009l0.208,0.035l0.443,0.145
				l0.154,0.025l0.218-0.031l0.707-0.204c0.03-0.009,0.059-0.009,0.089-0.001l0.278,0.069c0.02,0.005,0.038,0.013,0.053,0.024
				l0.503,0.334l0.777,0.271c0.022,0.008,0.043,0.02,0.06,0.035l0.73,0.661l0.508,0.507l0.321,0.161l0.342,0.123l0.36,0.032h0.329
				l0.938-0.436c0.022-0.011,0.048-0.016,0.073-0.016h0.487l0,0c0.055,0,0.108,0.027,0.141,0.073l0.348,0.486
				c0.014,0.019,0.023,0.041,0.028,0.064l0.204,0.948l0.166,0.305l0.462,0.185l0.439,0.135l0.929,0.461l0.356,0.118l0.209-0.026
				l0.46-0.23c0.024-0.012,0.05-0.018,0.078-0.018h0.312l0,0c0.032,0,0.064,0.009,0.092,0.027l0.277,0.174
				c0.015,0.007,0.026,0.018,0.037,0.03l0.314,0.348l0.707,1.025l0.187,0.369l0.115,0.375c0.005,0.016,0.007,0.032,0.007,0.049
				v0.417c0,0.015-0.001,0.029-0.005,0.042l-0.103,0.418c-0.003,0.011-0.008,0.024-0.014,0.035l-0.116,0.23l0.023,0.179l0.838,1.073
				c0.013,0.016,0.021,0.031,0.028,0.049l0.555,1.564l0.551,1.201l0.092,0.135l0.128,0.043l0.791,0.032l0.323-0.058l0.197-0.147
				l0.088-0.326c0.005-0.017,0.011-0.032,0.021-0.047l0.242-0.382c0.03-0.046,0.079-0.075,0.134-0.08l0.451-0.034
				c0.026-0.004,0.047,0,0.068,0.008l0.521,0.174l0.439,0.217c0.013,0.007,0.024,0.015,0.035,0.022l0.641,0.539l0.195,0.085
				l0.226,0.028l0.494-0.099l0.313-0.003c0.028,0,0.059,0.007,0.084,0.021l0.312,0.173c0.019,0.012,0.036,0.024,0.049,0.042
				l0.46,0.559l0.235,0.105l1.137-0.101c0.02,0,0.04,0,0.061,0.007l0.383,0.104c0.015,0.005,0.032,0.012,0.046,0.021l0.382,0.244
				c0.016,0.009,0.029,0.022,0.04,0.035l0.348,0.417l0.293,0.472l0.186,0.441c0.009,0.021,0.014,0.044,0.014,0.066v0.383
				l-0.062,0.322l0.028,0.056l0.896-0.031c0.013,0,0.026,0.002,0.04,0.004l1.187,0.237l0.349-0.054l0.092-0.129l-0.062-0.559
				c-0.006-0.045,0.007-0.091,0.034-0.126l0.244-0.312c0.016-0.021,0.036-0.038,0.06-0.049l0.486-0.243l0.439-0.149
				c0.019-0.005,0.037-0.009,0.054-0.009h0.453l0,0c0.015,0,0.03,0.002,0.045,0.006l0.521,0.139c0.015,0.004,0.03,0.011,0.044,0.02
				l0.521,0.312c0.034,0.02,0.06,0.051,0.073,0.086l0.104,0.279c0.021,0.056,0.012,0.118-0.023,0.164l-0.208,0.279l-1.481,1.377
				l-0.426,0.585l0.021,0.317l0.059,0.008l0.303-0.122c0.017-0.007,0.034-0.011,0.05-0.012l0.417-0.036
				c0.052-0.003,0.095,0.012,0.13,0.044l0.347,0.312c0.026,0.023,0.044,0.053,0.054,0.086l0.103,0.418
				c0.004,0.013,0.005,0.027,0.005,0.042v0.452l-0.142,0.93l0.003,0.39l0.066,0.351l0.237,0.705c0.008,0.023,0.01,0.048,0.008,0.073
				l-0.034,0.348c-0.005,0.046-0.029,0.091-0.068,0.119l-0.312,0.244l-0.336,0.204l-0.172,0.22l0.178,0.707l0.697,0.731l0.506,0.754
				c0.039,0.058,0.039,0.133,0.001,0.191l-0.521,0.799c-0.014,0.021-0.03,0.037-0.052,0.05l-0.68,0.442l-0.226,0.227l-0.053,0.286
				l0.12,0.389l0.285,0.443l0.329,0.275l0.291-0.073l0.559-0.494c0.013-0.011,0.028-0.021,0.044-0.028l0.312-0.139
				c0.087-0.039,0.19,0,0.229,0.088l0.139,0.312c0.016,0.035,0.02,0.073,0.012,0.109l-0.07,0.312l-0.277,0.634l-0.023,0.211
				l0.16,0.186l1.09,0.855l0.382,0.088l0.385-0.059l0.342-0.199l0.151-0.33l-0.228-0.514l-0.555-0.424
				c-0.016-0.013-0.031-0.029-0.041-0.047l-0.348-0.556c-0.041-0.062-0.036-0.144,0.012-0.201l0.591-0.729
				c0.014-0.017,0.031-0.033,0.052-0.043l0.382-0.209c0.024-0.014,0.054-0.021,0.083-0.021h0.277c0.029,0,0.058,0.007,0.083,0.021
				l0.452,0.243l0.153,0.049h0.136l0.241-0.133l0.187-0.25c0.01-0.014,0.023-0.027,0.038-0.037l0.243-0.174
				c0.052-0.036,0.122-0.042,0.179-0.013l0.643,0.32l0.259-0.052l0.321-0.193l0.412-0.153c0.016-0.005,0.031-0.009,0.048-0.011
				l0.521-0.035c0.061-0.005,0.121,0.026,0.155,0.078l0.14,0.208c0.03,0.047,0.037,0.106,0.018,0.158l-0.104,0.277l-0.185,0.338
				c-0.011,0.018-0.023,0.035-0.04,0.047l-0.403,0.337l-0.108,0.135l-0.016,0.049v0.458c0,0.023-0.006,0.046-0.015,0.068
				l-0.298,0.696v0.195l0.275,0.227l0.346,0.026l0.321-0.174l0.332-0.299c0.01-0.008,0.021-0.016,0.032-0.022l0.383-0.208
				c0.025-0.014,0.055-0.022,0.083-0.022h0.556c0.022,0,0.044,0.003,0.065,0.013l1.011,0.404h0.396l0.184-0.139l0.158-0.567
				c0.006-0.025,0.019-0.048,0.035-0.068l0.209-0.242c0.019-0.022,0.041-0.038,0.067-0.048l0.347-0.14
				c0.03-0.012,0.065-0.016,0.098-0.009l0.348,0.07c0.02,0.003,0.038,0.011,0.055,0.022l0.348,0.208l0.964,0.853l0.332,0.402
				c0.016,0.019,0.025,0.042,0.033,0.064l0.104,0.382c0.008,0.029,0.008,0.059,0.001,0.088l-0.104,0.417l-0.185,0.412l-0.085,0.319
				l0.062,0.398l0.149,0.39l0.08,0.064l0.17-0.021l1.149-0.677c0.033-0.02,0.069-0.027,0.105-0.023l0.348,0.035
				c0.021,0.001,0.041,0.008,0.061,0.017l1.64,0.821l0.282,0.031c0.015,0.001,0.031,0.005,0.045,0.011l0.347,0.139
				c0.022,0.009,0.042,0.022,0.059,0.039l0.139,0.139c0.02,0.019,0.033,0.042,0.042,0.067l0.093,0.281l0.584,0.686l0.362-0.984
				l-0.217-0.652l-0.858-1.373c-0.013-0.021-0.021-0.045-0.024-0.07l-0.035-0.279c-0.002-0.026,0-0.054,0.009-0.08l0.167-0.469
				l0.03-0.237l-0.101-0.848c-0.003-0.027-0.001-0.055,0.009-0.079l-0.083-0.133l-0.275-0.055c-0.025-0.005-0.049-0.015-0.07-0.031
				l-0.139-0.104c-0.015-0.011-0.029-0.025-0.04-0.041l-0.502-0.736l-0.165-0.11l-0.504-0.203c-0.022-0.009-0.042-0.021-0.058-0.039
				l-0.174-0.174c-0.011-0.012-0.021-0.025-0.028-0.038l-0.173-0.312c-0.02-0.034-0.026-0.073-0.021-0.109l0.07-0.456l-0.003-0.202
				l-0.093-0.165l-0.308-0.185c-0.012-0.007-0.023-0.016-0.034-0.026l-0.139-0.138c-0.011-0.01-0.02-0.022-0.026-0.034l-0.209-0.348
				c-0.007-0.013-0.014-0.027-0.018-0.042l-0.07-0.242c-0.005-0.023-0.007-0.046-0.005-0.068l0.063-0.536l-0.137-0.246l-0.891-0.993
				c-0.011-0.015-0.021-0.03-0.03-0.047l-0.242-0.556c-0.02-0.042-0.02-0.092-0.001-0.136l0.174-0.416l0.728-1.116l0.122-0.454
				l-0.051-0.232l-0.253-0.316l-0.155-0.266c-0.011-0.018-0.018-0.04-0.021-0.061l-0.034-0.244l-0.002-0.719l-0.097-0.465
				l-0.2-0.434l-0.251-0.373l-0.397-0.332l-0.354-0.189l-1.853-0.684c-0.021-0.008-0.04-0.018-0.056-0.034l-0.347-0.312
				l-0.705-0.739l-0.218-0.152l-0.533-0.264l-0.226-0.15c-0.019-0.01-0.033-0.026-0.045-0.043l-0.174-0.242l-0.26-0.549l-0.107-0.16
				l-0.329-0.239l-0.902-0.201l-0.476-0.18c-0.018-0.008-0.036-0.019-0.051-0.031l-0.243-0.209
				c-0.012-0.008-0.022-0.021-0.031-0.033l-0.51-0.749l-1.165-1.062l-0.918-1.057l-0.298-0.513c-0.009-0.018-0.017-0.038-0.02-0.059
				l-0.14-0.833l0.031-1.803l0.418-14.904c0.003-0.07,0.045-0.13,0.108-0.157c0.065-0.024,0.14-0.01,0.188,0.039l0.273,0.273
				l0.352-0.108l0.46-0.232c0.023-0.013,0.051-0.018,0.078-0.018h0.521l0.558,0.101l0.422-0.064l0.428-0.133
				c0.013-0.004,0.026-0.007,0.038-0.008l1.599-0.104l0.955-0.171l0.839-0.306l0.771-0.438l0.885-0.682
				c0.025-0.019,0.055-0.032,0.088-0.035l0.347-0.035c0.031-0.002,0.062,0.002,0.093,0.016l0.639,0.303l0.641,0.117l0.235-0.287
				l0.234-0.501c0.02-0.042,0.054-0.074,0.098-0.09l0.486-0.173l0.411-0.071l0.735-0.468l0.473-0.219
				c0.016-0.008,0.034-0.014,0.052-0.015l0.59-0.07c0.02-0.002,0.039-0.001,0.057,0.002l0.486,0.104
				c0.025,0.006,0.048,0.018,0.068,0.031l0.417,0.313l1.708,1.684l0.412-0.178l0.544-0.146l0.448-0.04
				c0.063-0.003,0.118,0.021,0.155,0.068l0.207,0.278c0.029,0.038,0.041,0.086,0.033,0.132l-0.067,0.406l0.194-0.017
				c0.015-0.001,0.029-0.001,0.043,0.001l0.847,0.136l0.32-0.028l0.109-0.066l0.222-0.316c0.015-0.021,0.032-0.038,0.054-0.049
				l0.173-0.105c0.026-0.015,0.057-0.024,0.089-0.024h0.242c0.018,0,0.035,0.002,0.052,0.008l0.452,0.14l0.142,0.022l0.309-0.102
				l0.082-0.164l-0.056-0.338l-0.22-0.472l-0.131-0.129l-0.494-0.23c-0.018-0.009-0.035-0.021-0.049-0.035l-0.174-0.174
				c-0.023-0.023-0.039-0.052-0.047-0.084l-0.07-0.313c-0.009-0.046,0-0.095,0.026-0.134l0.139-0.209
				c0.012-0.017,0.027-0.032,0.044-0.045l0.215-0.153l0.128-0.206v-0.451l-0.238-1.023c-0.005-0.021-0.005-0.042-0.003-0.063
				l0.071-0.487c0.007-0.055,0.042-0.104,0.093-0.13l0.138-0.069c0.016-0.009,0.033-0.014,0.05-0.017l0.164-0.027l0.072-0.059
				v-0.168l-0.081-0.103l-0.253-0.158l-0.524-0.193c-0.023-0.009-0.044-0.022-0.062-0.04l-0.347-0.348
				c-0.038-0.037-0.056-0.09-0.05-0.144l0.09-0.759l-0.395-0.254c-0.035-0.022-0.061-0.057-0.073-0.099L356.22,282l-0.04-0.305
				l-0.048-0.135L356,281.429l-0.367-0.234c-0.016-0.01-0.03-0.023-0.042-0.037l-0.4-0.501l-0.29-0.193l-1.143-0.604l-0.314-0.057
				l-0.28,0.084l-1.087,0.782c-0.037,0.026-0.082,0.036-0.125,0.031l-0.243-0.035c-0.024-0.004-0.046-0.012-0.067-0.025
				l-0.451-0.277c-0.015-0.009-0.029-0.02-0.039-0.033l-0.256-0.288l-0.143-0.071h-0.202l-0.705,0.102l-0.788,0.002l-0.269-0.038
				l-1.016-0.347l-0.514-0.032l-2.205,0.345c-0.023,0.004-0.047,0.002-0.068-0.003l-0.279-0.068
				c-0.073-0.02-0.126-0.082-0.131-0.157l-0.029-0.411l-0.082-0.066l-0.255-0.056h-0.269l-0.543,0.16l-0.952,0.611
				c-0.034,0.022-0.074,0.031-0.116,0.026l-0.521-0.07C341.722,279.959,341.658,279.885,341.658,279.797z"/>
		</g>
	</g>
	<g>
		<g>
			<g enable-background="new    ">
				<path fill="#FFFFFF" d="M514.349,175.786l-3.766,28.459h-11.241l-4.276-28.459h7.805c0.907,7.839,1.555,14.472,1.942,19.898
					c0.382-5.484,0.788-10.353,1.218-14.606l0.514-5.292H514.349z"/>
				<path fill="#FFFFFF" d="M528.39,175.786l4.232,28.459h-7.563l-0.397-5.115h-2.647l-0.445,5.115h-7.651l3.775-28.459H528.39z
					 M524.467,194.085c-0.375-3.224-0.75-7.208-1.127-11.953c-0.754,5.45-1.228,9.434-1.42,11.953H524.467z"/>
				<path fill="#FFFFFF" d="M550.701,175.786v19.02c0,2.156-0.07,3.671-0.211,4.544s-0.557,1.77-1.248,2.689
					s-1.603,1.617-2.733,2.092s-2.464,0.712-3.999,0.712c-1.699,0-3.199-0.281-4.5-0.844s-2.273-1.295-2.918-2.197
					s-1.025-1.854-1.143-2.856s-0.176-3.108-0.176-6.319v-16.84h7.4v21.34c0,1.242,0.067,2.036,0.202,2.382s0.407,0.519,0.817,0.519
					c0.469,0,0.771-0.19,0.905-0.571s0.202-1.28,0.202-2.698v-20.971H550.701z"/>
				<path fill="#FFFFFF" d="M553.566,175.786h7.453c2.016,0,3.565,0.158,4.649,0.475s1.898,0.773,2.443,1.371
					s0.914,1.321,1.107,2.171s0.29,2.165,0.29,3.946v2.479c0,1.816-0.188,3.141-0.562,3.973s-1.063,1.471-2.065,1.916
					s-2.312,0.668-3.929,0.668h-1.986v11.461h-7.4V175.786z M560.966,180.655v7.242c0.211,0.012,0.393,0.018,0.545,0.018
					c0.68,0,1.151-0.167,1.415-0.501s0.396-1.028,0.396-2.083v-2.338c0-0.973-0.152-1.605-0.457-1.898
					S561.927,180.655,560.966,180.655z"/>
				<path fill="#FFFFFF" d="M571.636,175.786h12.34v5.695h-4.939v5.396h4.623v5.414h-4.623v6.258h5.432v5.695h-12.832V175.786z
					 M583.642,170.126l-5.783,4.764h-3.568l3.094-4.764H583.642z"/>
				<path fill="#FFFFFF" d="M602.275,184.399h-6.873v-2.109c0-0.984-0.088-1.611-0.264-1.881s-0.469-0.404-0.879-0.404
					c-0.445,0-0.782,0.182-1.011,0.545s-0.343,0.915-0.343,1.653c0,0.95,0.128,1.666,0.385,2.146
					c0.246,0.481,0.942,1.061,2.091,1.74c3.294,1.955,5.369,3.56,6.225,4.813s1.283,3.275,1.283,6.064
					c0,2.027-0.237,3.521-0.712,4.482s-1.392,1.767-2.751,2.417s-2.941,0.976-4.746,0.976c-1.98,0-3.671-0.375-5.071-1.125
					s-2.317-1.705-2.751-2.865s-0.65-2.807-0.65-4.939v-1.863h6.873v3.463c0,1.066,0.097,1.752,0.29,2.057s0.536,0.457,1.028,0.457
					s0.858-0.193,1.099-0.58s0.36-0.961,0.36-1.723c0-1.676-0.229-2.771-0.686-3.287c-0.469-0.516-1.623-1.377-3.463-2.584
					c-1.84-1.219-3.059-2.104-3.656-2.654s-1.093-1.312-1.485-2.285s-0.589-2.215-0.589-3.727c0-2.18,0.278-3.773,0.835-4.781
					s1.456-1.796,2.698-2.364s2.742-0.853,4.5-0.853c1.922,0,3.56,0.311,4.913,0.932s2.25,1.403,2.689,2.347
					s0.659,2.546,0.659,4.808V184.399z"/>
			</g>
		</g>
	</g>
	<g>
		<g>
			<path fill="#F2961C" d="M497.698,225.058v4.156h-1.68v-12.987h3.685c1.044,0.141,1.926,0.571,2.646,1.291
				c0.86,0.866,1.291,1.905,1.291,3.117c0,1.223-0.43,2.266-1.291,3.129c-0.86,0.863-1.899,1.295-3.117,1.295H497.698z
				 M497.698,217.915v5.455h1.534c0.747,0,1.387-0.267,1.92-0.799c0.533-0.533,0.799-1.178,0.799-1.936
				c0-0.752-0.267-1.393-0.799-1.924c-0.533-0.53-1.173-0.795-1.92-0.795H497.698z"/>
			<path fill="#F2961C" d="M511.927,226.348l1.68,0.601c-0.412,0.568-0.709,0.944-0.893,1.128c-0.904,0.904-1.994,1.355-3.271,1.355
				c-1.272,0-2.359-0.452-3.263-1.355s-1.355-1.994-1.355-3.271c0-1.277,0.452-2.368,1.355-3.271
				c0.904-0.903,1.991-1.355,3.263-1.355c1.277,0,2.367,0.452,3.271,1.355c0.184,0.184,0.481,0.555,0.893,1.112l-1.68,0.617
				c-0.217-0.265-0.363-0.436-0.438-0.511c-0.563-0.563-1.245-0.844-2.045-0.844c-0.795,0-1.476,0.283-2.042,0.848
				s-0.848,1.249-0.848,2.05c0,0.795,0.283,1.476,0.848,2.041s1.246,0.848,2.042,0.848c0.801,0,1.485-0.281,2.054-0.844
				C511.567,226.776,511.71,226.608,511.927,226.348z"/>
			<path fill="#F2961C" d="M516.789,216.227c2.11,0.011,3.755,0.608,4.935,1.793c1.293,1.304,1.94,2.871,1.94,4.7
				c0,1.834-0.646,3.401-1.94,4.7c-1.18,1.185-2.825,1.783-4.935,1.794h-1.233v-12.987H516.789z M517.235,217.939v9.57
				c1.336,0,2.432-0.43,3.287-1.291c0.963-0.963,1.445-2.129,1.445-3.499c0-1.363-0.482-2.529-1.445-3.498
				C519.667,218.367,518.572,217.939,517.235,217.939z"/>
			<path fill="#F2961C" d="M533.883,219.733c0.303-0.065,0.619-0.098,0.949-0.098c0.606,0,1.188,0.098,1.745,0.292
				c1.25,0.427,2.181,1.217,2.792,2.37c0.384,0.714,0.576,1.45,0.576,2.208c0,0.471-0.073,0.942-0.219,1.413
				c-0.384,1.255-1.152,2.194-2.305,2.816c-0.703,0.374-1.431,0.56-2.183,0.56c-0.477,0-0.958-0.076-1.445-0.227
				c-1.007-0.309-1.878-0.963-2.614-1.964l1.185-1.315c0.601,0.888,1.245,1.434,1.932,1.64c0.314,0.097,0.62,0.146,0.917,0.146
				c0.476,0,0.941-0.119,1.396-0.357c0.741-0.395,1.234-0.996,1.477-1.802c0.098-0.308,0.146-0.614,0.146-0.917
				c0-0.471-0.122-0.936-0.365-1.396c-0.401-0.747-1.007-1.261-1.818-1.542c-0.352-0.125-0.741-0.187-1.169-0.187
				c-0.579,0-1.32,0.144-2.224,0.43l-1.015-0.885l1.461-4.034v-0.657h4.756v1.68h-3.336L533.883,219.733z"/>
			<path fill="#F2961C" d="M543.916,225.119c0.882-0.658,1.634-1.219,2.256-1.685s1.178-0.966,1.668-1.501s0.735-1.131,0.735-1.786
				s-0.231-1.212-0.694-1.672c-0.462-0.46-1.021-0.69-1.676-0.69c-0.644,0-1.199,0.23-1.664,0.69
				c-0.395,0.395-0.641,1.077-0.739,2.045l-1.68-0.608c0.173-1.125,0.576-2.008,1.209-2.646c0.795-0.801,1.753-1.201,2.874-1.201
				c1.131,0,2.093,0.398,2.885,1.193c0.793,0.795,1.189,1.759,1.189,2.89c0,1.115-0.384,2.086-1.153,2.914
				c-0.487,0.525-1.054,1.03-1.7,1.514c-0.647,0.484-1.365,1.024-2.155,1.619c-0.693,0.514-1.08,0.958-1.161,1.331h6.169v1.688
				h-8.142C542.441,227.141,543.033,225.776,543.916,225.119z"/>
			<path fill="#F2961C" d="M561.358,224.806c0,1.271-0.45,2.358-1.352,3.259c-0.901,0.901-1.99,1.352-3.267,1.352
				c-1.271,0-2.358-0.451-3.259-1.352s-1.352-1.987-1.352-3.259v-3.969c0-1.271,0.451-2.358,1.352-3.259
				c0.901-0.901,1.987-1.351,3.259-1.351c1.277,0,2.366,0.45,3.267,1.351c0.901,0.901,1.352,1.988,1.352,3.259V224.806z
				 M559.638,220.837c0-0.795-0.283-1.475-0.848-2.038c-0.565-0.562-1.249-0.844-2.05-0.844c-0.795,0-1.476,0.282-2.041,0.844
				c-0.566,0.563-0.848,1.242-0.848,2.038v3.969c0,0.801,0.282,1.482,0.848,2.045c0.565,0.562,1.246,0.844,2.041,0.844
				c0.801,0,1.484-0.281,2.05-0.844c0.565-0.563,0.848-1.245,0.848-2.045V220.837z"/>
			<path fill="#27515D" d="M501.25,254.333l-5.938-16.354h2.249l4.262,11.724l4.272-11.724h2.259l-5.959,16.354H501.25z"/>
			<path fill="#27515D" d="M515.907,237.979l5.949,16.354h-2.249l-2.105-5.785h-4.334l-2.095,5.785h-2.259l5.949-16.354H515.907z
				 M516.735,246.432l-1.4-3.833l-1.39,3.833H516.735z"/>
			<path fill="#27515D" d="M532.486,237.979h2.126v11.52c-0.184,1.315-0.726,2.426-1.625,3.332c-1.09,1.09-2.402,1.635-3.935,1.635
				s-2.843-0.543-3.93-1.63c-1.087-1.086-1.63-2.397-1.63-3.93v-10.927h2.126v10.927c0,0.94,0.335,1.746,1.007,2.417
				c0.671,0.671,1.48,1.007,2.428,1.007c0.954,0,1.765-0.333,2.433-1.001c0.667-0.668,1.001-1.476,1.001-2.422V237.979z"/>
			<path fill="#27515D" d="M539.794,249.1v5.233h-2.116v-16.354h4.641c1.315,0.177,2.426,0.719,3.332,1.625
				c1.083,1.09,1.625,2.399,1.625,3.925c0,1.54-0.542,2.854-1.625,3.94c-1.083,1.087-2.392,1.63-3.925,1.63H539.794z
				 M539.794,240.105v6.869h1.932c0.94,0,1.746-0.335,2.417-1.007c0.671-0.671,1.007-1.483,1.007-2.438
				c0-0.947-0.335-1.755-1.007-2.422c-0.671-0.668-1.477-1.002-2.417-1.002H539.794z"/>
			<path fill="#27515D" d="M558.192,237.979v2.116h-6.695v4.998h6.695v2.116h-6.695v4.998h6.695v2.126h-8.811v-16.354H558.192z
				 M554.411,234.115h2.576l-2.78,2.852h-2.013L554.411,234.115z"/>
			<path fill="#27515D" d="M565.164,245.941c-1.159-0.389-2.097-0.942-2.816-1.661c-0.719-0.719-1.079-1.61-1.079-2.673
				c0-1.042,0.373-1.938,1.119-2.688c0.747-0.75,1.651-1.125,2.714-1.125c1.049,0,1.949,0.372,2.699,1.114
				c0.422,0.409,0.776,1.06,1.063,1.952l-1.922,0.756c-0.231-0.627-0.443-1.036-0.634-1.227c-0.334-0.327-0.736-0.491-1.206-0.491
				c-0.477,0-0.882,0.166-1.216,0.496s-0.501,0.734-0.501,1.211c0,0.477,0.167,0.883,0.501,1.216
				c0.375,0.368,0.893,0.706,1.554,1.012c1.281,0.416,2.368,1.07,3.261,1.962c1.001,0.988,1.502,2.188,1.502,3.598
				c0,1.411-0.5,2.615-1.498,3.613c-0.998,0.999-2.199,1.498-3.603,1.498c-1.411,0-2.613-0.501-3.608-1.502
				c-0.797-0.797-1.302-1.898-1.513-3.302l2.054-0.746c0.129,1.206,0.446,2.062,0.951,2.565c0.586,0.586,1.291,0.879,2.116,0.879
				s1.53-0.293,2.116-0.879c0.586-0.586,0.879-1.294,0.879-2.126c0-0.824-0.293-1.529-0.879-2.116
				C566.659,246.722,565.974,246.275,565.164,245.941z"/>
		</g>
	</g>
	<g>
		<g>
			<polyline fill="none" stroke="#FFFFFF" stroke-width="2" points="321.459,279.531 321.606,185.472 485.764,185.472 			"/>
			<g>
				<circle fill="#FFFFFF" cx="321.459" cy="279.418" r="2.256"/>
			</g>
		</g>
	</g>
</g>
</svg>
