<?xml version="1.0" encoding="utf-8"?>
<!-- Generator: Adobe Illustrator 16.0.0, SVG Export Plug-In . SVG Version: 6.00 Build 0)  -->
<!DOCTYPE svg PUBLIC "-//W3C//DTD SVG 1.1//EN" "http://www.w3.org/Graphics/SVG/1.1/DTD/svg11.dtd">
<svg version="1.1" id="Capa_1" xmlns="http://www.w3.org/2000/svg" xmlns:xlink="http://www.w3.org/1999/xlink" x="0px" y="0px"
	 width="493.161px" height="213.154px" viewBox="0 0 493.161 213.154" enable-background="new 0 0 493.161 213.154"
	 xml:space="preserve">
<g>
	<g>
		<path fill="#F2961C" d="M195.559,4.747h2.402V24.31h-2.402V4.747z"/>
		<path fill="#F2961C" d="M201.964,4.747h3.096l3.754,18.396h0.036l-0.338-18.396h2.046V24.31h-3.131l-3.719-18.144h-0.071
			l0.32,18.144h-1.993V4.747L201.964,4.747z"/>
		<path fill="#F2961C" d="M214.614,4.747h6.085v1.552h-3.825v7.096h3.683v1.539h-3.683v9.377h-2.26L214.614,4.747L214.614,4.747z"/>
		<path fill="#F2961C" d="M231.624,8.74v11.578c0,1.681-0.302,2.82-0.907,3.423c-0.605,0.601-1.684,0.901-3.238,0.901
			c-1.53,0-2.598-0.305-3.203-0.915c-0.605-0.609-0.907-1.747-0.907-3.409V8.74c0-1.646,0.305-2.771,0.916-3.375
			c0.611-0.605,1.687-0.909,3.229-0.909s2.613,0.301,3.212,0.901C231.324,5.959,231.624,7.086,231.624,8.74z M229.258,8.475
			c0-0.99-0.131-1.669-0.391-2.036c-0.261-0.366-0.724-0.551-1.388-0.551c-0.653,0-1.106,0.18-1.361,0.538
			c-0.255,0.358-0.382,1.041-0.382,2.049v12.109c0,1.017,0.13,1.703,0.391,2.056c0.261,0.354,0.723,0.53,1.388,0.53
			c0.652,0,1.106-0.177,1.361-0.53s0.382-1.039,0.382-2.056V8.475z"/>
		<path fill="#F2961C" d="M235.61,4.747h3.452c1.779,0,2.983,0.186,3.612,0.558c0.628,0.371,0.943,1.039,0.943,2.002v4.43
			c0,0.813-0.208,1.389-0.623,1.725s-1.151,0.54-2.206,0.609c1.127,0.054,1.909,0.248,2.348,0.585
			c0.439,0.336,0.658,0.919,0.658,1.75v7.904h-2.402v-7.308c0-0.919-0.175-1.517-0.525-1.791c-0.35-0.274-1.071-0.411-2.162-0.411
			h-0.836v9.51h-2.26L235.61,4.747L235.61,4.747z M237.869,6.193v7.148h0.801c1.032,0,1.72-0.135,2.064-0.404
			c0.344-0.27,0.516-0.869,0.516-1.797V8.421c0-0.938-0.172-1.543-0.516-1.817c-0.344-0.273-1.032-0.411-2.064-0.411H237.869z"/>
		<path fill="#F2961C" d="M247.745,4.747h3.932l2.544,18.012h0.178l2.491-18.012h3.824V24.31h-1.975V6.22h-0.355l-2.562,18.091
			h-3.167L250.004,6.22h-0.303v18.091h-1.957V4.747L247.745,4.747z"/>
		<path fill="#F2961C" d="M267.013,4.747h3.309l3.79,19.562h-2.438l-0.907-5.438h-4.306l-0.979,5.438h-2.384L267.013,4.747z
			 M268.579,6.193l-1.904,11.247h3.791l-1.779-11.247H268.579z"/>
		<path fill="#F2961C" d="M284.023,7.851v1.87h-2.384V7.904c0-0.761-0.11-1.286-0.329-1.578c-0.22-0.292-0.608-0.438-1.166-0.438
			c-0.511,0-0.866,0.166-1.067,0.498c-0.203,0.331-0.303,1.027-0.303,2.089v12.109c0,1.087,0.107,1.795,0.32,2.123
			c0.214,0.327,0.605,0.489,1.174,0.489c0.486,0,0.836-0.153,1.05-0.464c0.214-0.31,0.32-0.836,0.32-1.579v-2.108h2.384v2.175
			c0,1.335-0.279,2.24-0.836,2.712c-0.559,0.473-1.555,0.709-2.988,0.709c-1.412,0-2.396-0.305-2.955-0.915
			c-0.558-0.609-0.836-1.747-0.836-3.409V8.74c0-1.653,0.279-2.78,0.836-3.383c0.557-0.601,1.543-0.901,2.955-0.901
			c1.446,0,2.446,0.233,2.997,0.703C283.747,5.627,284.023,6.524,284.023,7.851z"/>
		<path fill="#F2961C" d="M286.977,4.747h2.402V24.31h-2.402V4.747z"/>
		<path fill="#F2961C" d="M301.532,8.74v11.578c0,1.681-0.303,2.82-0.908,3.423c-0.604,0.601-1.684,0.901-3.238,0.901
			c-1.529,0-2.598-0.305-3.202-0.915c-0.604-0.609-0.907-1.747-0.907-3.409V8.74c0-1.646,0.305-2.771,0.916-3.375
			c0.611-0.605,1.688-0.909,3.229-0.909c1.543,0,2.613,0.301,3.213,0.901C301.231,5.959,301.532,7.086,301.532,8.74z M299.165,8.475
			c0-0.99-0.131-1.669-0.392-2.036c-0.261-0.366-0.724-0.551-1.388-0.551c-0.653,0-1.106,0.18-1.361,0.538s-0.382,1.041-0.382,2.049
			v12.109c0,1.017,0.13,1.703,0.392,2.056c0.26,0.354,0.723,0.53,1.387,0.53c0.652,0,1.106-0.177,1.361-0.53
			c0.256-0.354,0.383-1.039,0.383-2.056V8.475z M297.972,0.013h2.509L298.15,2.97h-1.743L297.972,0.013z"/>
		<path fill="#F2961C" d="M305.516,4.747h3.096l3.754,18.396h0.036l-0.338-18.396h2.046V24.31h-3.131L307.26,6.167h-0.071
			l0.319,18.144h-1.992V4.747z"/>
		<path fill="#F2961C" d="M323.736,4.747h2.918c1.779,0,2.989,0.188,3.63,0.563s0.961,1.042,0.961,1.996v5.624
			c0,0.955-0.32,1.618-0.961,1.989c-0.64,0.372-1.85,0.558-3.63,0.558h-0.657v8.833h-2.261V4.747z M325.997,6.193v7.853h0.604
			c0.901,0,1.504-0.135,1.806-0.404c0.303-0.27,0.454-0.878,0.454-1.824V8.421c0-0.946-0.151-1.554-0.454-1.824
			c-0.302-0.27-0.904-0.404-1.806-0.404H325.997z"/>
		<path fill="#F2961C" d="M342.168,8.74v11.578c0,1.681-0.301,2.82-0.907,3.423c-0.604,0.601-1.685,0.901-3.238,0.901
			c-1.53,0-2.599-0.305-3.203-0.915c-0.604-0.609-0.907-1.747-0.907-3.409V8.74c0-1.646,0.305-2.771,0.916-3.375
			c0.611-0.605,1.688-0.909,3.229-0.909s2.612,0.301,3.211,0.901C341.87,5.959,342.168,7.086,342.168,8.74z M339.801,8.475
			c0-0.99-0.129-1.669-0.391-2.036c-0.261-0.366-0.724-0.551-1.388-0.551c-0.653,0-1.106,0.18-1.36,0.538
			c-0.256,0.358-0.383,1.041-0.383,2.049v12.109c0,1.017,0.131,1.703,0.393,2.056c0.261,0.354,0.723,0.53,1.388,0.53
			c0.651,0,1.104-0.177,1.36-0.53s0.383-1.039,0.383-2.056V8.475H339.801z"/>
		<path fill="#F2961C" d="M346.155,4.747h3.451c1.779,0,2.982,0.186,3.611,0.558c0.629,0.371,0.943,1.039,0.943,2.002v4.43
			c0,0.813-0.207,1.389-0.623,1.725s-1.15,0.54-2.205,0.609c1.125,0.054,1.908,0.248,2.348,0.585
			c0.439,0.336,0.658,0.919,0.658,1.75v7.904h-2.401v-7.308c0-0.919-0.175-1.517-0.524-1.791c-0.351-0.274-1.072-0.411-2.162-0.411
			h-0.836v9.51h-2.261L346.155,4.747L346.155,4.747z M348.415,6.193v7.148h0.799c1.033,0,1.721-0.135,2.064-0.404
			s0.516-0.869,0.516-1.797V8.421c0-0.938-0.172-1.543-0.516-1.817c-0.344-0.273-1.031-0.411-2.064-0.411H348.415z"/>
		<path fill="#F2961C" d="M370.708,7.851v1.87h-2.367V7.904c0-0.77-0.106-1.298-0.319-1.585s-0.593-0.432-1.14-0.432
			c-0.521,0-0.889,0.162-1.103,0.484s-0.319,0.896-0.319,1.718v0.955c0,0.396,0.074,0.807,0.223,1.227s0.363,0.815,0.648,1.188
			l2.953,3.886c0.498,0.654,0.86,1.271,1.086,1.85c0.225,0.58,0.338,1.179,0.338,1.798v1.325c0,1.698-0.289,2.844-0.863,3.436
			c-0.575,0.592-1.6,0.889-3.069,0.889c-1.435,0-2.435-0.239-2.998-0.716s-0.845-1.379-0.845-2.706v-2.175h2.384v2.108
			c0,0.797,0.106,1.335,0.319,1.618c0.215,0.283,0.605,0.424,1.176,0.424c0.581,0,0.98-0.16,1.201-0.483
			c0.219-0.323,0.328-1.032,0.328-2.129V19.23c0-0.504-0.062-0.961-0.187-1.373c-0.124-0.411-0.305-0.784-0.542-1.121l-3.131-4.165
			c-0.439-0.557-0.773-1.087-1.005-1.591s-0.347-0.941-0.347-1.312V8.527c0-1.521,0.281-2.579,0.846-3.177
			c0.562-0.597,1.533-0.895,2.908-0.895c1.447,0,2.447,0.233,2.998,0.703C370.432,5.627,370.708,6.524,370.708,7.851z"/>
		<path fill="#F2961C" d="M373.875,4.747h6.263v1.552h-4.003v7.043h3.824v1.539h-3.824v7.878h4.109v1.552h-6.369V4.747
			L373.875,4.747z"/>
		<path fill="#F2961C" d="M381.741,4.747h2.383l2.207,7.799l2.047-7.799h2.258l-2.988,9.51l3.361,10.054h-2.383l-2.367-8.17
			l-2.295,8.17h-2.26l3.221-10L381.741,4.747z"/>
		<path fill="#F2961C" d="M401.454,8.74v11.578c0,1.681-0.303,2.82-0.908,3.423c-0.604,0.601-1.684,0.901-3.238,0.901
			c-1.529,0-2.598-0.305-3.202-0.915c-0.604-0.609-0.908-1.747-0.908-3.409V8.74c0-1.646,0.306-2.771,0.917-3.375
			c0.611-0.605,1.688-0.909,3.229-0.909c1.543,0,2.613,0.301,3.213,0.901C401.155,5.959,401.454,7.086,401.454,8.74z M399.086,8.475
			c0-0.99-0.131-1.669-0.391-2.036c-0.262-0.366-0.725-0.551-1.389-0.551c-0.652,0-1.105,0.18-1.361,0.538
			c-0.255,0.358-0.382,1.041-0.382,2.049v12.109c0,1.017,0.13,1.703,0.392,2.056c0.26,0.354,0.723,0.53,1.387,0.53
			c0.652,0,1.107-0.177,1.361-0.53c0.256-0.353,0.383-1.039,0.383-2.056V8.475z"/>
	</g>
	<g>
		<path fill="#0093AF" d="M169.643,84.527c-0.537,0.489-1.087,0.965-1.608,1.471c-4.268,4.145-8.504,8.322-12.815,12.423
			c-0.997,0.948-0.934,1.584-0.169,2.661c10.974,15.46,8.287,37.563-6.021,49.923c-14.326,12.374-34.276,12.91-49.015,1.037
			c-8.339-6.718-12.942-15.601-13.816-26.357c-0.928-11.419,2.638-21.321,10.526-29.457c6.926-7.144,15.502-11.044,25.613-11.379
			c7.81-0.259,15.021,1.499,21.688,5.589c0.545,0.334,1.735,0.459,2.098,0.12c4.925-4.618,9.755-9.336,14.61-14.029
			c-0.046-0.204-0.092-0.409-0.138-0.614c-1.813,0-3.626,0.003-5.439,0c-2.733-0.005-2.737-0.007-2.741-2.696
			c-0.004-2.381,0.045-4.763-0.014-7.143c-0.034-1.393,0.569-1.879,1.911-1.875c8.646,0.026,17.294,0.029,25.941-0.002
			c1.38-0.006,1.883,0.549,1.879,1.901c-0.03,8.585-0.029,17.169-0.001,25.754c0.004,1.396-0.469,2.098-1.956,2.07
			c-2.694-0.05-5.389-0.051-8.083,0.003c-1.482,0.03-2-0.656-1.973-2.056c0.045-2.37,0.013-4.741,0.013-7.111
			C169.969,84.683,169.806,84.604,169.643,84.527z M149.838,122.707c0.328-14.528-11.877-26.076-25.717-26.12
			c-14.372-0.045-25.97,11.531-26.264,25.661c-0.288,13.876,11.103,26.424,25.821,26.521
			C138.688,148.868,150.352,136.286,149.838,122.707z"/>
		<path fill="#E71D73" d="M50.38,152.937c-1.817,0-3.637,0.063-5.45-0.022c-1.154-0.056-1.573,0.35-1.554,1.488
			c0.042,2.443-0.043,4.89,0.011,7.331c0.034,1.517-0.568,2.182-2.107,2.128c-2.628-0.09-5.26-0.134-7.89-0.126
			c-1.331,0.005-1.698-0.603-1.659-1.851c0.077-2.442-0.02-4.889,0.047-7.331c0.04-1.469-0.581-2.007-2.013-1.988
			c-3.32,0.044-6.645-0.083-9.962,0.026c-1.843,0.061-2.461-0.646-2.332-2.413c0.187-2.557,0.283-5.123,0.35-7.686
			c0.034-1.289,0.76-1.559,1.839-1.553c3.321,0.019,6.643-0.029,9.963,0.033c1.466,0.028,2.174-0.411,2.187-2.014
			c0.035-4.192,0.144-8.386,0.34-12.573c0.081-1.715-0.591-2.436-2.233-2.789c-8.439-1.813-15.567-6.006-20.983-12.689
			C-0.241,99.584-2.356,86.91,2.622,73.169c5.421-14.963,20.357-24.786,35.839-24.334c15.694,0.457,28.916,9.817,34.465,24.438
			c3.702,9.751,3.386,19.488-0.866,28.892c-5.179,11.454-14.237,18.473-26.437,21.395c-1.245,0.298-1.862,0.718-1.882,2.052
			c-0.069,4.507-0.173,9.013-0.34,13.516c-0.059,1.607,0.511,2.249,2.165,2.211c3.382-0.078,6.768,0.035,10.15-0.014
			c1.458-0.021,2.021,0.545,1.98,2.001c-0.073,2.566-0.08,5.139-0.015,7.705c0.038,1.503-0.623,1.992-2.038,1.937
			c-1.752-0.069-3.508-0.017-5.264-0.017C50.38,152.944,50.38,152.94,50.38,152.937z M37.578,60.453
			c-13.672-0.042-25.67,10.838-25.946,25.605c-0.283,15.119,11.814,26.926,26.718,26.73c13.921-0.185,25.687-12.386,25.438-26.477
			C63.533,71.896,52.105,60.42,37.578,60.453z"/>
	</g>
</g>
</svg>
