<?xml version="1.0" encoding="utf-8"?>
<!-- Generator: Adobe Illustrator 16.0.0, SVG Export Plug-In . SVG Version: 6.00 Build 0)  -->
<!DOCTYPE svg PUBLIC "-//W3C//DTD SVG 1.1//EN" "http://www.w3.org/Graphics/SVG/1.1/DTD/svg11.dtd">
<svg version="1.1" id="Capa_1" xmlns="http://www.w3.org/2000/svg" xmlns:xlink="http://www.w3.org/1999/xlink" x="0px" y="0px"
	 width="734.337px" height="413.177px" viewBox="0 0 734.337 413.177" enable-background="new 0 0 734.337 413.177"
	 xml:space="preserve">
<g>
	<g>
		<g>
			<path fill="#F39200" d="M165.163,228.271l0.08,0.049c0.021,0.016,0.04,0.033,0.054,0.057l0.347,0.59l0.225,0.252
				c0.017,0.02,0.029,0.043,0.036,0.067l0.069,0.243l0.072,0.323l0.062,0.146l0.275,0.423l0.09,0.053l0.264-0.025l0.394-0.164
				c0.014-0.006,0.031-0.01,0.045-0.013l0.278-0.034c0.033-0.005,0.065,0.002,0.095,0.015l0.592,0.278
				c0.042,0.02,0.074,0.058,0.091,0.104l0.034,0.104c0.019,0.055,0.008,0.113-0.025,0.159l-0.039,0.052l0.064,0.052h0.217
				c0.055,0,0.105,0.026,0.139,0.069l0.201,0.262c0.016-0.008,0.032-0.014,0.05-0.016c0.056-0.012,0.111,0.008,0.15,0.049
				l0.103,0.101l0.08,0.017l0.164-0.047l1.118-1.018c0.021-0.018,0.046-0.03,0.073-0.037l0.139-0.034
				c0.019-0.005,0.039-0.007,0.059-0.005l0.281,0.027l0.329-0.238c0.013-0.01,0.028-0.018,0.044-0.023l0.486-0.173l0.445-0.077
				c0.021-0.004,0.042-0.004,0.062,0l1.077,0.209l1.163,0.352c0.014,0.005,0.028,0.01,0.04,0.018l0.174,0.104l0.409,0.368
				c0.011,0.01,0.02,0.021,0.027,0.032l0.11,0.165l0.196,0.084l1.353,0.728l0.679,0.203l0.363,0.061l0.316-0.064l0.372-0.094
				l0.144-0.115l0.384-0.416l0.754-1.372c0.026-0.05,0.077-0.083,0.134-0.09c0.055-0.005,0.111,0.017,0.148,0.059l0.263,0.296
				l1.233,0.82l0.487,0.451l0.4,0.184l0.226,0.026l0.105-0.063l0.298-0.297c0.022-0.023,0.051-0.039,0.081-0.047l0.14-0.033
				c0.077-0.02,0.16,0.018,0.196,0.09l0.162,0.322l0.152,0.154l0.113,0.028l0.07-0.106l0.215-0.285
				c0.021-0.027,0.048-0.049,0.079-0.059l0.277-0.105c0.03-0.012,0.063-0.014,0.095-0.007l0.174,0.034
				c0.024,0.006,0.048,0.015,0.068,0.031l0.268,0.193l0.262-0.238l0.116-0.175l0.202-0.505c0.008-0.021,0.022-0.041,0.039-0.058
				l0.174-0.174c0.018-0.017,0.038-0.031,0.061-0.039l0.278-0.104l0.612-0.146l0.183-0.082l0.206-0.204l0.185-0.309l0.093-0.34
				l0.031-0.735l-0.07-0.143l-0.293-0.293c-0.02-0.02-0.033-0.042-0.043-0.068l-0.068-0.208c-0.016-0.048-0.01-0.101,0.016-0.144
				l0.104-0.174l0.502-0.611c0.038-0.048,0.098-0.07,0.154-0.062c0.02,0.003,0.039,0.008,0.057,0.017l0.883,0.441l1.02,0.205
				l2.273,0.17c0.012,0,0.026,0.003,0.04,0.008l0.625,0.208c0.018,0.007,0.032,0.015,0.047,0.024l0.852,0.613l0.328,0.131
				l1.464,0.305l0.77,0.305l0.135-0.191l0.033-1.234c0-0.012,0.002-0.025,0.006-0.036l0.068-0.278
				c0.006-0.025,0.018-0.047,0.033-0.066l0.139-0.174c0.008-0.011,0.018-0.02,0.027-0.027l0.196-0.178l-0.036-0.125l-0.15-0.18
				c-0.01-0.012-0.018-0.024-0.023-0.038l-0.278-0.591c-0.022-0.048-0.021-0.104,0.002-0.151l0.297-0.594l0.067-1.317
				c0.001-0.014,0.003-0.028,0.007-0.043l0.14-0.45l0.249-0.605l0.097-0.332l0.146-0.362c0.005-0.015,0.015-0.031,0.025-0.043
				l0.261-0.328l0.131-0.323l0.166-0.271l0.03-0.275l-0.035-0.418c-0.001-0.015,0-0.027,0.002-0.042l0.208-1.284
				c0.004-0.016,0.008-0.031,0.015-0.046l0.208-0.451l0.172-0.276l0.236-0.811c0.011-0.039,0.035-0.074,0.07-0.096l0.08-0.055
				l0.39-0.486l0.337-0.709l1.574-2.385l0.506-1.254l0.354-0.707l0.242-0.35l0.306-0.88c0.004-0.013,0.009-0.024,0.017-0.036
				l0.174-0.277c0.014-0.021,0.033-0.041,0.055-0.056l0.278-0.175l0.648-0.309v-0.082l-0.328-0.506l-0.405-0.187l-0.421-0.278
				l-0.708-0.236c-0.033-0.011-0.062-0.032-0.084-0.061l-0.104-0.139c-0.009-0.012-0.016-0.026-0.022-0.041l-0.068-0.173
				c-0.006-0.015-0.01-0.03-0.012-0.047l-0.035-0.348l0.035-0.448c0.001-0.022,0.008-0.044,0.017-0.063l0.128-0.256l0.062-0.334
				l-0.032-0.395c-0.002-0.024,0-0.048,0.008-0.069l0.068-0.209l0.212-0.529l0.292-0.479l0.389-0.927l-0.031-0.282l-0.001-0.958
				c0-0.038,0.013-0.074,0.035-0.104l-0.441-0.941l-0.947-0.38h-0.383c-0.022,0-0.046-0.003-0.067-0.013l-0.418-0.174
				c-0.08-0.033-0.123-0.123-0.099-0.207l0.139-0.487c0.006-0.022,0.018-0.043,0.03-0.062l0.14-0.174
				c0.011-0.012,0.022-0.023,0.035-0.032l0.131-0.093l-0.122-0.289c-0.007-0.02-0.012-0.042-0.012-0.064l-0.035-1.771
				c-0.001-0.017,0.002-0.034,0.007-0.053l0.167-0.565v-0.184c0-0.034,0.01-0.067,0.028-0.097l0.175-0.26l-0.028-0.25
				c-0.005-0.041,0.007-0.085,0.031-0.119l0.868-1.217c0.039-0.053,0.103-0.081,0.168-0.07l1.549,0.235l0.197-0.084
				c0.021-0.01,0.045-0.015,0.069-0.015h0.612l0.076-0.09l-0.028-0.312l-0.083-0.522l-1.473-0.225l-0.929-0.283l-0.186-0.025
				l-0.493,0.099c-0.063,0.013-0.128-0.011-0.17-0.061c-0.04-0.05-0.049-0.118-0.023-0.178l0.194-0.454v-0.15l-0.045-0.18
				l-0.082-0.041l-0.208,0.046l-0.312,0.282c-0.032,0.028-0.073,0.045-0.116,0.045h-0.209l0,0l-0.365-0.035
				c-0.029-0.004-0.059-0.015-0.083-0.032l-0.243-0.175c-0.017-0.012-0.032-0.026-0.044-0.044l-0.139-0.209
				c-0.023-0.032-0.032-0.073-0.028-0.113l0.029-0.292l-0.354-0.611c-0.045-0.077-0.023-0.176,0.051-0.229l0.203-0.146l0.109-0.247
				l0.055-0.403l-0.148,0.082c-0.025,0.015-0.055,0.022-0.084,0.022h-0.591c-0.019,0-0.037-0.004-0.055-0.01l-0.21-0.069
				c-0.011-0.004-0.022-0.009-0.033-0.017l-0.174-0.104c-0.025-0.015-0.047-0.036-0.061-0.062l-0.14-0.244
				c-0.015-0.025-0.022-0.056-0.022-0.085v-0.582l-0.774-0.678c-0.013-0.011-0.024-0.024-0.034-0.039l-0.277-0.451l-0.828-1.586
				l-0.572,0.544l-0.262,0.188l-0.359,0.364l-0.176,0.268l-0.652,1.855c-0.007,0.02-0.018,0.038-0.031,0.054l-0.938,1.112
				l-1.932,1.652l-0.152,0.188l-0.156,0.286l-0.116,0.265v0.195l0.116,0.203c0.008,0.017,0.016,0.035,0.02,0.053l0.069,0.348
				c0.009,0.044,0,0.09-0.023,0.127l-0.313,0.487l-0.715,0.755l-0.649,0.473l-1.214,1.08l-0.185,0.339l-0.336,1.175v0.215
				l0.157,0.348c0.009,0.02,0.014,0.039,0.016,0.06l0.035,0.451l0,0l0,0c0,0.021-0.001,0.041-0.007,0.062l-0.312,1.078
				c-0.011,0.035-0.034,0.069-0.066,0.092l-0.486,0.348c-0.014,0.01-0.03,0.02-0.048,0.023l-0.66,0.209l-0.427,0.106
				c-0.015,0.004-0.028,0.005-0.042,0.005h-0.174c-0.015,0-0.029-0.001-0.042-0.005l-0.169-0.042l0.396,0.691l0.189,0.283
				l0.538,0.471c0.028,0.025,0.049,0.059,0.056,0.097l0.035,0.174c0.004,0.02,0.004,0.04,0.001,0.061l-0.169,1.118l0.084,0.479
				l0.899,0.481c0.014,0.008,0.027,0.019,0.04,0.031l0.348,0.347c0.045,0.047,0.062,0.112,0.043,0.174l-0.14,0.451
				c-0.008,0.029-0.024,0.055-0.046,0.076l-0.625,0.591c-0.02,0.018-0.043,0.031-0.068,0.038l-0.555,0.174l-0.503,0.254
				l-0.569,0.604l-0.495,0.695l-0.087,0.203l-0.032,0.287c-0.007,0.054-0.037,0.102-0.083,0.129l-0.174,0.104
				c-0.026,0.016-0.058,0.024-0.089,0.024h-0.278l0,0c-0.016,0-0.031-0.002-0.046-0.006l-1.112-0.304l-0.221,0.027l-0.189,0.082
				l-0.323,0.323l-0.436,0.33l-0.749,0.715c-0.019,0.018-0.041,0.031-0.064,0.039l-0.312,0.105
				c-0.019,0.005-0.037,0.009-0.056,0.009l-0.014-0.001l-0.417-0.035c-0.02-0.001-0.037-0.007-0.055-0.014l-0.729-0.312
				l-0.299-0.101l-0.274-0.152c-0.027-0.016-0.05-0.038-0.064-0.065l-0.101-0.176l-0.211-0.047l-0.702,0.067
				c-0.031,0.002-0.062-0.002-0.092-0.018l-0.59-0.276c-0.028-0.013-0.054-0.035-0.071-0.062l-0.963-1.479l-0.241-0.24l-0.18-0.076
				h-0.207l-0.332-0.037l-0.102,0.002l-0.037,0.023l-0.19,0.254c-0.013,0.018-0.03,0.033-0.049,0.045l-0.174,0.104
				c-0.011,0.007-0.022,0.012-0.034,0.018l-0.209,0.068c-0.018,0.006-0.037,0.01-0.055,0.01h-0.243l-0.511-0.072l-0.358,0.002
				c-0.034,0-0.066-0.012-0.096-0.029l-0.104-0.07c-0.015-0.01-0.028-0.021-0.039-0.035l-0.278-0.348l-0.962-0.994l-0.229-0.057
				c-0.021-0.006-0.039-0.015-0.057-0.026l-0.42-0.29l-0.17-0.029l-0.186,0.003l-0.475,0.158l-0.364,0.231
				c-0.038,0.023-0.082,0.032-0.127,0.023l-0.175-0.035c-0.022-0.004-0.043-0.013-0.062-0.025l-0.208-0.139
				c-0.015-0.01-0.028-0.021-0.038-0.033l-0.314-0.383c-0.014-0.018-0.024-0.04-0.031-0.062l-0.07-0.244
				c-0.004-0.016-0.006-0.03-0.006-0.047v-0.553l-0.039-0.087l-0.066,0.086l-0.442,0.396l0.026,0.316
				c0.003,0.042-0.008,0.082-0.032,0.116l-0.174,0.243c-0.017,0.025-0.042,0.045-0.07,0.059l-0.313,0.139
				c-0.041,0.019-0.089,0.02-0.131,0.004l-0.278-0.105c-0.022-0.008-0.044-0.021-0.062-0.04l-0.248-0.247l-0.134-0.046l-0.224,0.024
				l-0.968,0.802c-0.024,0.021-0.054,0.034-0.086,0.037l-0.823,0.118v0.51l0.103,0.705l0.163,0.581l0.092,0.152l0.236,0.337
				c0.036,0.053,0.042,0.118,0.015,0.175c-0.026,0.057-0.082,0.094-0.145,0.099l-0.378,0.027l-0.076,0.192l0.078,0.291l0.104,0.132
				l1.201,0.96c0.062,0.05,0.083,0.134,0.051,0.206l-0.112,0.25l0.066,0.197l0.181,0.136l0.21-0.018l0.022-0.057l0.102-0.641
				c0.003-0.019,0.008-0.035,0.017-0.051l0.069-0.14c0.008-0.018,0.019-0.031,0.032-0.046l0.212-0.211l0.161-0.549l0.062-0.604
				l-0.066-0.395c-0.009-0.056,0.009-0.113,0.05-0.153s0.1-0.057,0.154-0.045l0.254,0.051c-0.006-0.018-0.009-0.037-0.009-0.055
				v-0.174c0-0.065,0.037-0.126,0.096-0.155l0.208-0.104c0.016-0.008,0.032-0.014,0.049-0.016l0.209-0.035
				c0.021-0.004,0.042-0.004,0.063,0.001l0.173,0.035c0.016,0.003,0.03,0.008,0.044,0.015l0.053,0.025l0.014-0.025l0.028-0.227
				l-0.028-0.196l-0.095-0.222c-0.03-0.07-0.012-0.152,0.047-0.201s0.142-0.056,0.206-0.014l0.382,0.242
				c0.014,0.009,0.026,0.02,0.036,0.032L169.55,209l0.181,0.132l0.265-0.078c0.09-0.029,0.186,0.021,0.215,0.11l0.064,0.193h0.257
				c0.06,0,0.115,0.031,0.146,0.082c0.033,0.05,0.037,0.112,0.012,0.167l-0.382,0.799c-0.007,0.013-0.015,0.023-0.022,0.035
				l-0.777,0.976l0.5-0.109c0.053-0.011,0.105,0.002,0.147,0.036c0.041,0.031,0.064,0.082,0.064,0.134v0.175
				c0,0.076-0.05,0.143-0.124,0.166l-0.348,0.104l-1.129,0.212c-0.078,0.014-0.149-0.021-0.186-0.09
				c-0.036-0.066-0.021-0.149,0.03-0.204l0.205-0.203l-0.063-0.019l-0.271,0.027l-0.145,0.096l-0.099,0.148l-0.098,0.588
				c-0.003,0.018-0.008,0.034-0.016,0.049l-0.155,0.312v0.293l0.064,0.026l0.305,0.188l0.402,0.2c0.028,0.014,0.05,0.033,0.067,0.06
				l0.069,0.104c0.031,0.048,0.038,0.107,0.017,0.16l-0.07,0.174c-0.015,0.041-0.044,0.073-0.083,0.091l-0.267,0.134l0.74,0.399
				l1.576-0.263l1.235-0.729l-0.062-0.9c-0.004-0.064,0.026-0.126,0.082-0.16c0.054-0.033,0.123-0.035,0.179-0.003l0.213,0.122
				l0.243,0.03l0.569-0.001c0.082,0,0.154,0.059,0.17,0.14c0.004,0.02,0.004,0.039,0,0.058l0.904-0.194
				c0.052-0.009,0.104,0.003,0.146,0.034c0.04,0.034,0.064,0.084,0.064,0.136v0.14c0,0.049-0.021,0.096-0.058,0.129l-0.327,0.294
				l-0.23,0.394l-0.283,0.426c-0.021,0.033-0.054,0.057-0.091,0.069l-0.934,0.302l0.044,0.269l0.135,0.467
				c0.018,0.062,0,0.126-0.044,0.171l-0.347,0.348c-0.051,0.049-0.125,0.064-0.189,0.037c-0.065-0.026-0.107-0.09-0.107-0.16v-0.244
				l-0.019-0.08l-0.125-0.109l-0.213,0.176l-0.02,0.174l0.147,0.197l0.356,0.227c0.08,0.051,0.104,0.158,0.054,0.238l-0.174,0.277
				c-0.012,0.02-0.027,0.036-0.046,0.05l-0.244,0.175c-0.024,0.017-0.053,0.028-0.083,0.031h-0.009h0.005l0.224,0.037
				c0.021,0.004,0.042,0.012,0.061,0.021l0.173,0.105c0.079,0.047,0.107,0.146,0.066,0.227l-0.068,0.14
				c-0.031,0.062-0.095,0.103-0.168,0.094l-0.521-0.034c-0.013,0-0.026-0.003-0.038-0.007l-0.348-0.104
				c-0.021-0.007-0.039-0.017-0.057-0.03l-0.443-0.344l-0.046,0.115l-0.062,0.361l0.074,0.266l0.183,0.082l0.915-0.23l0.43-0.07
				c0.068-0.014,0.138,0.018,0.175,0.076c0.037,0.058,0.037,0.133-0.002,0.19l-0.209,0.312c-0.021,0.03-0.05,0.054-0.085,0.067
				l-0.383,0.139l-0.396,0.1l0.02,0.067l0.085,0.012l0.267-0.118c0.017-0.008,0.034-0.013,0.051-0.014l0.312-0.035
				c0.023-0.003,0.046,0,0.07,0.006l0.347,0.104c0.062,0.02,0.109,0.072,0.122,0.137c0.011,0.064-0.016,0.131-0.067,0.17
				l-0.14,0.104c-0.016,0.014-0.034,0.022-0.055,0.027l-0.347,0.105l-0.237,0.089l-0.221,0.188l-0.197,0.122
				c-0.044,0.026-0.097,0.031-0.144,0.016l-0.209-0.068c-0.017-0.007-0.031-0.015-0.046-0.025l-0.058-0.039l-0.164,0.445
				l-0.145,0.323c-0.007,0.015-0.016,0.029-0.026,0.042l-0.403,0.471l-0.059,0.119l0.005,0.014l0.255,0.052
				c0.078,0.015,0.136,0.081,0.14,0.161c0.004,0.081-0.048,0.152-0.124,0.176L169.4,221.3c-0.017,0.006-0.033,0.008-0.051,0.008
				h-0.208c-0.06,0-0.117-0.031-0.148-0.082c-0.03-0.051-0.035-0.114-0.007-0.17l0.04-0.078l-0.255,0.018l-0.256,0.057l0.021,0.049
				c0.028,0.066,0.014,0.141-0.036,0.191l-0.104,0.104c-0.012,0.012-0.024,0.021-0.04,0.029l-0.056,0.032l0.136,0.087
				c0.062,0.039,0.092,0.112,0.076,0.184c-0.01,0.043-0.034,0.079-0.067,0.103l0.126,0.043c0.083,0.026,0.133,0.112,0.116,0.198
				l-0.07,0.348c-0.007,0.034-0.023,0.065-0.048,0.09l0.072,0.023c0.064,0.022,0.11,0.081,0.117,0.149
				c0.007,0.069-0.028,0.136-0.089,0.167l-0.04,0.022l0.133,0.107c0.025,0.019,0.043,0.043,0.054,0.071l0.07,0.174
				c0.018,0.045,0.017,0.098-0.007,0.141l-0.069,0.141c-0.023,0.049-0.069,0.083-0.122,0.092c-0.054,0.011-0.108-0.004-0.148-0.04
				l-0.264-0.234h-0.298l-0.164,0.11c-0.029,0.02-0.062,0.028-0.097,0.028h-0.174c-0.061,0-0.115-0.031-0.146-0.079l-0.039,0.104
				l-0.216,0.435l-0.104,0.375l0.229,0.314c0.015,0.02,0.024,0.043,0.03,0.067l0.035,0.174c0.008,0.046-0.001,0.092-0.026,0.131
				l-0.07,0.104c-0.026,0.039-0.068,0.066-0.114,0.074c-0.049,0.008-0.098-0.004-0.134-0.032l-0.14-0.104
				c-0.014-0.012-0.026-0.024-0.036-0.038l-0.146-0.205l-0.043,0.051l-0.085,0.279l0.028,0.34l0.184,0.275l0.755,0.925
				c0.008,0.011,0.016,0.021,0.02,0.032l0.14,0.277c0.032,0.064,0.021,0.143-0.027,0.196c-0.05,0.053-0.127,0.069-0.193,0.042
				l-0.591-0.244c-0.023-0.009-0.045-0.023-0.062-0.043l-0.347-0.381c-0.011-0.011-0.019-0.022-0.025-0.035l-0.415-0.775
				l-0.286,0.264l-0.126,0.088c-0.023,0.016-0.051,0.025-0.08,0.027l-0.347,0.034l-0.354,0.101c-0.022,0.006-0.047,0.006-0.07,0.004
				l-0.189-0.026l-0.198,0.099l-0.221,0.252l-0.135,0.219l-0.026,0.33l0.222,0.222L165.163,228.271z"/>
		</g>
	</g>
	<g>
		<g>
			<g>
				<g>
					<path fill="#FFFFFF" d="M514.816,134.903l-3.767,28.459h-11.24l-4.276-28.459h7.805c0.907,7.84,1.555,14.473,1.942,19.898
						c0.383-5.483,0.788-10.353,1.218-14.605l0.514-5.293H514.816z"/>
					<path fill="#FFFFFF" d="M528.856,134.903l4.232,28.459h-7.562l-0.397-5.115h-2.647l-0.445,5.115h-7.65l3.775-28.459H528.856z
						 M524.935,153.202c-0.375-3.223-0.75-7.207-1.127-11.953c-0.754,5.45-1.228,9.435-1.42,11.953H524.935z"/>
					<path fill="#FFFFFF" d="M541.746,134.903v22.764h4.5v5.695h-11.9v-28.459H541.746z"/>
					<path fill="#FFFFFF" d="M555.439,134.903v22.764h4.5v5.695h-11.9v-28.459H555.439z"/>
					<path fill="#FFFFFF" d="M561.732,134.903h12.34v5.695h-4.939v5.396h4.623v5.414h-4.623v6.258h5.432v5.695h-12.832V134.903z"/>
					<path fill="#FFFFFF" d="M583.037,134.903h5.537c3.574,0,5.991,0.164,7.251,0.492s2.218,0.867,2.874,1.617
						s1.066,1.586,1.23,2.506s0.246,2.727,0.246,5.422v9.967c0,2.555-0.12,4.264-0.36,5.125s-0.659,1.535-1.257,2.021
						s-1.336,0.826-2.215,1.02s-2.203,0.289-3.973,0.289h-9.334V134.903z M590.438,139.772v18.721c1.066,0,1.723-0.213,1.969-0.641
						s0.369-1.592,0.369-3.49v-11.057c0-1.289-0.041-2.115-0.123-2.479s-0.27-0.629-0.562-0.799S591.246,139.772,590.438,139.772z"
						/>
					<path fill="#FFFFFF" d="M602.936,134.903h12.34v5.695h-4.939v5.396h4.623v5.414h-4.623v6.258h5.432v5.695h-12.832V134.903z"/>
					<path fill="#FFFFFF" d="M625.295,134.903v22.764h4.5v5.695h-11.9v-28.459H625.295z"/>
					<path fill="#FFFFFF" d="M514.5,190.497h-7.4v-4.947c0-1.438-0.079-2.336-0.237-2.691c-0.158-0.357-0.507-0.535-1.046-0.535
						c-0.609,0-0.996,0.217-1.16,0.65s-0.246,1.371-0.246,2.812v13.219c0,1.383,0.082,2.285,0.246,2.707s0.533,0.633,1.107,0.633
						c0.551,0,0.911-0.212,1.081-0.635s0.255-1.416,0.255-2.979v-3.576h7.4v1.108c0,2.946-0.208,5.035-0.624,6.267
						c-0.416,1.232-1.336,2.312-2.76,3.24c-1.424,0.926-3.179,1.391-5.265,1.391c-2.168,0-3.955-0.393-5.361-1.178
						s-2.338-1.873-2.795-3.262s-0.686-3.477-0.686-6.266v-8.314c0-2.051,0.07-3.59,0.211-4.615s0.56-2.012,1.257-2.961
						s1.664-1.697,2.9-2.242s2.657-0.816,4.263-0.816c2.18,0,3.979,0.421,5.396,1.264c1.418,0.842,2.35,1.893,2.795,3.15
						s0.668,3.216,0.668,5.872V190.497z"/>
					<path fill="#FFFFFF" d="M529.946,178.104l4.232,28.459h-7.562l-0.397-5.115h-2.647l-0.445,5.115h-7.65l3.775-28.459H529.946z
						 M526.024,196.403c-0.375-3.225-0.75-7.208-1.127-11.953c-0.754,5.449-1.228,9.434-1.42,11.953H526.024z"/>
					<path fill="#FFFFFF" d="M552.258,178.104v19.02c0,2.156-0.07,3.67-0.211,4.543s-0.557,1.77-1.248,2.689
						s-1.603,1.617-2.733,2.092s-2.464,0.713-3.999,0.713c-1.699,0-3.199-0.281-4.5-0.844s-2.273-1.295-2.918-2.197
						s-1.025-1.855-1.143-2.857s-0.176-3.107-0.176-6.318v-16.84h7.4v21.34c0,1.242,0.067,2.035,0.202,2.381s0.407,0.52,0.817,0.52
						c0.469,0,0.771-0.191,0.905-0.572s0.202-1.279,0.202-2.697v-20.971H552.258z"/>
					<path fill="#FFFFFF" d="M572.402,190.497h-7.4v-4.947c0-1.438-0.079-2.336-0.237-2.691c-0.158-0.357-0.507-0.535-1.046-0.535
						c-0.609,0-0.996,0.217-1.16,0.65s-0.246,1.371-0.246,2.812v13.219c0,1.383,0.082,2.285,0.246,2.707s0.533,0.633,1.107,0.633
						c0.551,0,0.911-0.212,1.081-0.635s0.255-1.416,0.255-2.979v-3.576h7.4v1.108c0,2.946-0.208,5.035-0.624,6.267
						c-0.416,1.232-1.336,2.312-2.76,3.24c-1.424,0.926-3.179,1.391-5.265,1.391c-2.168,0-3.955-0.393-5.361-1.178
						s-2.338-1.873-2.795-3.262s-0.686-3.477-0.686-6.266v-8.314c0-2.051,0.07-3.59,0.211-4.615s0.56-2.012,1.257-2.961
						s1.664-1.697,2.9-2.242s2.657-0.816,4.263-0.816c2.18,0,3.979,0.421,5.396,1.264c1.418,0.842,2.35,1.893,2.795,3.15
						s0.668,3.216,0.668,5.872V190.497z"/>
					<path fill="#FFFFFF" d="M587.849,178.104l4.232,28.459h-7.562l-0.397-5.115h-2.647l-0.445,5.115h-7.65l3.775-28.459H587.849z
						 M583.927,196.403c-0.375-3.225-0.75-7.208-1.127-11.953c-0.754,5.449-1.228,9.434-1.42,11.953H583.927z"/>
				</g>
			</g>
		</g>
	</g>
	<g>
		<g>
			<path fill="#F2961C" d="M498.165,225.136v4.156h-1.68v-12.986h3.686c1.043,0.141,1.926,0.57,2.646,1.29
				c0.86,0.866,1.29,1.905,1.29,3.116c0,1.224-0.43,2.267-1.29,3.129c-0.86,0.863-1.899,1.295-3.117,1.295H498.165z
				 M498.165,217.993v5.455h1.534c0.747,0,1.387-0.268,1.92-0.8c0.532-0.533,0.8-1.179,0.8-1.937c0-0.752-0.268-1.393-0.8-1.924
				c-0.533-0.529-1.173-0.795-1.92-0.795H498.165z"/>
			<path fill="#F2961C" d="M512.395,226.427l1.681,0.601c-0.412,0.568-0.709,0.944-0.894,1.128
				c-0.903,0.904-1.994,1.355-3.271,1.355c-1.272,0-2.359-0.451-3.264-1.355c-0.904-0.903-1.355-1.994-1.355-3.271
				c0-1.277,0.451-2.368,1.355-3.271s1.991-1.355,3.264-1.355c1.276,0,2.367,0.452,3.271,1.355c0.185,0.185,0.481,0.555,0.894,1.112
				l-1.681,0.617c-0.217-0.266-0.362-0.436-0.438-0.512c-0.562-0.562-1.244-0.844-2.045-0.844c-0.796,0-1.477,0.282-2.042,0.848
				s-0.849,1.249-0.849,2.05c0,0.796,0.283,1.476,0.849,2.041s1.246,0.849,2.042,0.849c0.801,0,1.484-0.281,2.053-0.844
				C512.034,226.854,512.178,226.687,512.395,226.427z"/>
			<path fill="#F2961C" d="M517.256,216.306c2.11,0.01,3.755,0.607,4.935,1.793c1.294,1.305,1.94,2.871,1.94,4.699
				c0,1.835-0.646,3.401-1.94,4.7c-1.18,1.185-2.824,1.783-4.935,1.794h-1.233v-12.986H517.256z M517.702,218.018v9.569
				c1.337,0,2.433-0.43,3.287-1.29c0.963-0.963,1.445-2.13,1.445-3.499c0-1.363-0.482-2.529-1.445-3.498
				C520.135,218.445,519.039,218.018,517.702,218.018z"/>
			<path fill="#F2961C" d="M537.946,216.306v12.986h-1.68v-10.795h-1.242l1.704-2.191H537.946z"/>
			<path fill="#F2961C" d="M549.528,216.306v12.986h-1.68v-10.795h-1.242l1.705-2.191H549.528z"/>
			<path fill="#F2961C" d="M557.208,221.28c0.48-0.52,1.279-0.779,2.395-0.779c1.119,0,2.051,0.371,2.791,1.112
				c0.898,0.903,1.348,1.994,1.348,3.271c0,1.271-0.449,2.358-1.348,3.259s-1.985,1.352-3.262,1.352
				c-1.272,0-2.359-0.449-3.264-1.348c-0.865-0.871-1.301-2.08-1.307-3.629v-0.023c0-1.531,0.414-2.879,1.242-4.043
				c0.832-1.168,1.959-2.551,3.376-4.146h2.208C559.423,218.34,558.03,219.998,557.208,221.28z M556.233,224.885
				c0,0.801,0.283,1.482,0.848,2.046c0.566,0.562,1.249,0.844,2.051,0.844c0.795,0,1.475-0.281,2.041-0.844
				c0.564-0.563,0.848-1.245,0.848-2.046s-0.283-1.483-0.848-2.046c-0.566-0.562-1.246-0.844-2.041-0.844
				c-0.802,0-1.484,0.281-2.051,0.844C556.517,223.401,556.233,224.084,556.233,224.885z"/>
			<path fill="#F2961C" d="M567.163,227.385c0.23,0.228,0.345,0.503,0.345,0.827c0,0.336-0.114,0.617-0.345,0.845
				s-0.508,0.341-0.832,0.341c-0.319,0-0.596-0.113-0.828-0.341s-0.35-0.509-0.35-0.845c0-0.324,0.117-0.6,0.35-0.827
				s0.509-0.341,0.828-0.341C566.655,227.044,566.933,227.157,567.163,227.385z"/>
			<path fill="#F2961C" d="M578.165,224.885c0,1.271-0.45,2.358-1.352,3.259c-0.9,0.9-1.99,1.352-3.268,1.352
				c-1.271,0-2.357-0.451-3.258-1.352c-0.901-0.9-1.352-1.987-1.352-3.259v-3.97c0-1.271,0.45-2.357,1.352-3.259
				c0.9-0.901,1.986-1.351,3.258-1.351c1.277,0,2.367,0.449,3.268,1.351c0.901,0.901,1.352,1.987,1.352,3.259V224.885z
				 M576.444,220.915c0-0.795-0.283-1.475-0.848-2.037c-0.566-0.562-1.25-0.844-2.051-0.844c-0.795,0-1.475,0.281-2.041,0.844
				c-0.565,0.562-0.848,1.242-0.848,2.037v3.97c0,0.801,0.282,1.482,0.848,2.046c0.566,0.562,1.246,0.844,2.041,0.844
				c0.801,0,1.484-0.281,2.051-0.844c0.564-0.563,0.848-1.245,0.848-2.046V220.915z"/>
			<path fill="#F2961C" d="M586.03,216.306v12.986h-1.68v-10.795h-1.242l1.705-2.191H586.03z"/>
			<path fill="#F2961C" d="M595.227,222.604l-1.015-0.024v-1.664c0.736-0.01,1.221-0.061,1.453-0.15
				c0.232-0.089,0.486-0.279,0.764-0.572c0.275-0.291,0.413-0.627,0.413-1.006c0-0.373-0.13-0.688-0.39-0.945
				c-0.26-0.258-0.576-0.386-0.949-0.386c-0.368,0-0.682,0.127-0.941,0.382c-0.146,0.15-0.314,0.48-0.504,0.99l-1.566-0.617
				c0.232-0.73,0.518-1.256,0.853-1.574c0.601-0.596,1.32-0.894,2.159-0.894c0.855,0,1.58,0.3,2.176,0.901
				c0.595,0.6,0.893,1.314,0.893,2.143c0,0.844-0.501,1.658-1.502,2.443c0.481,0.032,0.987,0.306,1.518,0.819
				c0.773,0.833,1.161,1.808,1.161,2.923c0,1.125-0.396,2.087-1.189,2.885c-0.792,0.799-1.755,1.197-2.886,1.197
				c-1.119,0-2.078-0.4-2.873-1.201c-0.633-0.639-1.036-1.523-1.209-2.654l1.68-0.608c0.098,0.974,0.344,1.658,0.738,2.054
				c0.466,0.459,1.021,0.689,1.664,0.689c0.654,0,1.214-0.23,1.676-0.689c0.463-0.46,0.695-1.018,0.695-1.672
				c0-0.66-0.232-1.242-0.695-1.746C596.887,223.123,596.179,222.782,595.227,222.604z"/>
			<path fill="#27515D" d="M500.39,249.24l-4.717-12.987h1.786l3.385,9.311l3.394-9.311h1.793l-4.732,12.987H500.39z"/>
			<path fill="#27515D" d="M512.028,236.253l4.725,12.987h-1.786l-1.672-4.595h-3.441l-1.664,4.595h-1.794l4.725-12.987H512.028z
				 M512.687,242.966l-1.112-3.044l-1.104,3.044H512.687z"/>
			<path fill="#27515D" d="M518.376,249.24v-12.987h1.681v11.299h4.643v1.688H518.376z"/>
			<path fill="#27515D" d="M526.647,249.24v-12.987h1.68v11.299h4.643v1.688H526.647z"/>
			<path fill="#27515D" d="M541.915,236.253v1.681h-5.316v3.969h5.316v1.681h-5.316v3.969h5.316v1.688h-6.996v-12.987H541.915z"/>
			<path fill="#27515D" d="M551.128,236.253c2.11,0.012,3.756,0.609,4.936,1.794c1.293,1.304,1.939,2.871,1.939,4.7
				c0,1.834-0.646,3.4-1.939,4.699c-1.18,1.186-2.825,1.783-4.936,1.794h-1.233v-12.987H551.128z M551.575,237.966v9.57
				c1.336,0,2.432-0.431,3.287-1.291c0.963-0.963,1.444-2.129,1.444-3.498c0-1.363-0.481-2.529-1.444-3.498
				C554.007,238.394,552.911,237.966,551.575,237.966z"/>
			<path fill="#27515D" d="M567.037,236.253v1.681h-5.316v3.969h5.316v1.681h-5.316v3.969h5.316v1.688h-6.997v-12.987H567.037z"/>
			<path fill="#27515D" d="M569.27,249.24v-12.987h1.681v11.299h4.643v1.688H569.27z"/>
			<path fill="#27515D" d="M593.335,246.147l1.259,1.129c-1.537,1.401-3.163,2.102-4.878,2.102c-1.835,0-3.398-0.646-4.691-1.939
				c-1.294-1.293-1.94-2.857-1.94-4.691c0-1.829,0.646-3.393,1.94-4.691c1.293-1.299,2.856-1.949,4.691-1.949
				c1.715,0,3.341,0.701,4.878,2.104l-1.259,1.145c-1.157-1.029-2.364-1.543-3.619-1.543c-1.359,0-2.521,0.482-3.486,1.445
				c-0.967,0.963-1.449,2.127-1.449,3.49c0,1.369,0.482,2.535,1.449,3.498c0.966,0.963,2.127,1.445,3.486,1.445
				C590.971,247.69,592.178,247.176,593.335,246.147z"/>
			<path fill="#27515D" d="M601.112,236.253l4.724,12.987h-1.786l-1.672-4.595h-3.441l-1.664,4.595h-1.794l4.724-12.987H601.112z
				 M601.769,242.966l-1.111-3.044l-1.104,3.044H601.769z"/>
			<path fill="#27515D" d="M614.277,236.253h1.688v9.148c-0.146,1.044-0.576,1.926-1.291,2.646
				c-0.865,0.866-1.907,1.299-3.125,1.299c-1.217,0-2.258-0.432-3.121-1.294c-0.863-0.863-1.294-1.904-1.294-3.121v-8.678h1.688
				v8.678c0,0.746,0.266,1.387,0.799,1.919c0.533,0.533,1.176,0.8,1.928,0.8c0.758,0,1.402-0.266,1.932-0.795
				c0.531-0.531,0.796-1.172,0.796-1.924V236.253z"/>
			<path fill="#27515D" d="M628.449,246.147l1.259,1.129c-1.537,1.401-3.164,2.102-4.879,2.102c-1.834,0-3.398-0.646-4.691-1.939
				s-1.939-2.857-1.939-4.691c0-1.829,0.646-3.393,1.939-4.691s2.857-1.949,4.691-1.949c1.715,0,3.342,0.701,4.879,2.104
				l-1.259,1.145c-1.157-1.029-2.364-1.543-3.62-1.543c-1.358,0-2.52,0.482-3.486,1.445c-0.966,0.963-1.449,2.127-1.449,3.49
				c0,1.369,0.483,2.535,1.449,3.498c0.967,0.963,2.128,1.445,3.486,1.445C626.085,247.69,627.292,247.176,628.449,246.147z"/>
			<path fill="#27515D" d="M636.226,236.253l4.725,12.987h-1.787l-1.672-4.595h-3.441l-1.664,4.595h-1.793l4.724-12.987H636.226z
				 M636.883,242.966l-1.112-3.044l-1.104,3.044H636.883z"/>
		</g>
	</g>
	<g>
		<g>
			<polyline fill="none" stroke="#FFFFFF" stroke-width="2" points="196.383,214.349 405.71,214.349 405.402,185.55 485.992,185.55 
							"/>
			<g>
				<circle fill="#FFFFFF" cx="196.496" cy="214.349" r="2.256"/>
			</g>
		</g>
	</g>
</g>
</svg>
