<?xml version="1.0" encoding="utf-8"?>
<!-- Generator: Adobe Illustrator 22.0.1, SVG Export Plug-In . SVG Version: 6.00 Build 0)  -->
<svg version="1.1" id="Capa_1" xmlns="http://www.w3.org/2000/svg" xmlns:xlink="http://www.w3.org/1999/xlink" x="0px" y="0px"
	 viewBox="0 0 734.3 413.2" style="enable-background:new 0 0 734.3 413.2;" xml:space="preserve">
<style type="text/css">
	.st0{fill:#2C5A67;}
	.st1{fill:#F2961C;}
	.st2{fill:#A0C219;}
	.st3{enable-background:new    ;}
	.st4{fill:#FFFFFF;}
	.st5{fill:#1FAEBE;}
	.st6{fill:#662483;}
	.st7{fill:#A3195B;}
	.st8{fill:#E94E1B;}
	.st9{fill:#2FAC66;}
	.st10{fill:#36A9E1;}
	.st11{fill:#E02386;}
	.st12{fill:#008D36;}
	.st13{fill:#E71D73;}
	.st14{fill:#1D71B8;}
	.st15{fill:#95C11F;}
	.st16{fill:none;stroke:#FFFFFF;stroke-width:2;}
	.st17{fill:#A5A5A5;}
	.st18{font-family:'ArialMT';}
	.st19{font-size:13.1799px;}
</style>
<g>
	<g>
		<path class="st0" d="M0,0l6.7,413.2l676.1-3.4l37.2-353c-4.1,1.9-8.7,2.8-13.5,2.6c-15.6-0.9-27.6-14.3-26.7-30
			c0.2-4.2,1.4-8.2,3.3-11.8L0,0z"/>
		<path class="st0" d="M708.9,17.1c-7.7-0.4-14.3,5.4-14.7,13.1c-0.4,7.7,5.4,14.3,13.1,14.7c7.7,0.4,14.3-5.4,14.7-13.1
			C722.5,24.1,716.6,17.5,708.9,17.1z M714.5,36.6c0.4,0.5,0.4,1.1-0.1,1.5c-0.5,0.4-1.1,0.4-1.5-0.1l-4.9-5.5l-5.5,4.9
			c-0.5,0.4-1.1,0.4-1.5-0.1c-0.4-0.5-0.4-1.1,0.1-1.5l5.5-4.9l-4.9-5.5c-0.4-0.5-0.4-1.1,0.1-1.5c0.4-0.4,1.1-0.4,1.5,0.1l4.9,5.5
			l5.5-4.9c0.4-0.4,1.1-0.4,1.5,0.1c0.4,0.5,0.4,1.1-0.1,1.5l-5.5,4.9L714.5,36.6z"/>
		<g>
			<path class="st0" d="M681.9,29.5C682.7,15,695.1,4,709.6,4.8C724,5.6,735.1,18,734.3,32.5C733.5,46.9,721,58,706.6,57.2
				C692.1,56.4,681,43.9,681.9,29.5z M690,30c-0.6,10,7.1,18.6,17.1,19.1c10,0.6,18.6-7.1,19.1-17.1c0.6-10-7.1-18.6-17.1-19.1
				C699.1,12.3,690.5,20,690,30z"/>
		</g>
	</g>
	<g>
		<g>
			<path class="st1" d="M53.9,254.8l22.8-3.4v6.1l-4.1,0.3v2.1l4.1,0.4v6.1l-22.8-3C53.9,263.4,53.9,254.8,53.9,254.8z M68.5,257.9
				c-2.6,0.3-5.8,0.6-9.6,0.9c4.4,0.6,7.6,1,9.6,1.1V257.9z"/>
			<path class="st1" d="M65,238v5.4h-2.2c-0.8,0-1.3,0.1-1.5,0.2s-0.4,0.3-0.4,0.7s0.1,0.6,0.4,0.7c0.2,0.1,0.8,0.2,1.6,0.2h8.8
				c0.7,0,1.2-0.1,1.5-0.3c0.3-0.2,0.5-0.4,0.5-0.7c0-0.4-0.2-0.6-0.5-0.8c-0.3-0.1-1-0.2-2-0.2H69V238c1.5,0,2.6,0.1,3.4,0.2
				c0.7,0.1,1.5,0.4,2.3,0.9s1.4,1.2,1.8,2.1s0.6,1.9,0.6,3.2c0,1.6-0.3,2.9-0.8,3.8c-0.6,0.9-1.3,1.6-2.3,2c-1,0.4-2.4,0.6-4.2,0.6
				h-5.3c-1.6,0-2.8-0.2-3.6-0.5s-1.5-1-2.2-2c-0.6-1-1-2.3-1-3.8c0-1.5,0.3-2.8,0.9-3.8s1.4-1.8,2.4-2.1S63.3,238,65,238z"/>
			<path class="st1" d="M55.5,230.3h2.9v-1.5h3v1.5h10c1.2,0,1.9-0.1,2.1-0.2c0.1-0.1,0.2-0.7,0.2-1.6h3v2.3c0,1.3-0.1,2.2-0.2,2.8
				s-0.4,1-0.7,1.5c-0.4,0.4-0.8,0.7-1.3,0.8c-0.5,0.1-1.7,0.2-3.5,0.2h-9.5v1.2h-3V236h-2.9L55.5,230.3L55.5,230.3z"/>
			<path class="st1" d="M53.9,221.6h3v5.9h-3V221.6z M58,221.6h18.7v5.9H58V221.6z"/>
			<path class="st1" d="M58,207.8l18.7,2.7v7.4L58,220.7v-5.1l13.7-1.6c-1-0.1-3.5-0.3-7.3-0.6c-2.2-0.2-4.3-0.3-6.3-0.6
				C58,212.8,58,207.8,58,207.8z"/>
			<path class="st1" d="M53.9,201.1h3v5.9h-3V201.1z M58,201.1h18.7v5.9H58V201.1z"/>
			<path class="st1" d="M53.9,186.1h22.8v5.7h-1.4c0.6,0.5,1,1.1,1.3,1.7c0.3,0.6,0.4,1.2,0.4,1.9c0,0.9-0.2,1.6-0.7,2.3
				c-0.5,0.6-1,1.1-1.6,1.2c-0.6,0.2-1.6,0.3-3,0.3H63c-1.4,0-2.5-0.1-3.1-0.3c-0.6-0.2-1.1-0.6-1.6-1.3s-0.7-1.4-0.7-2.4
				c0-0.7,0.1-1.4,0.4-1.9c0.3-0.6,0.6-1.1,1.1-1.6h-5.3C53.9,191.8,53.9,186.1,53.9,186.1z M62.7,191.8c-0.7,0-1.1,0.1-1.4,0.2
				c-0.2,0.1-0.4,0.4-0.4,0.7c0,0.3,0.1,0.6,0.3,0.7c0.2,0.1,0.7,0.2,1.4,0.2h9.2c0.8,0,1.3-0.1,1.5-0.2c0.2-0.1,0.4-0.3,0.4-0.6
				c0-0.4-0.1-0.6-0.4-0.7c-0.3-0.1-0.9-0.2-2-0.2L62.7,191.8L62.7,191.8z"/>
			<path class="st1" d="M65.2,178.9v5.3H64c-1.4,0-2.6-0.2-3.3-0.5c-0.8-0.3-1.5-1-2.1-2c-0.6-1-0.9-2.3-0.9-3.9
				c0-1.9,0.3-3.4,1-4.4c0.7-1,1.5-1.6,2.5-1.8c1-0.2,3-0.3,6.1-0.3h9.4v5.5H75c0.7,0.3,1.2,0.8,1.5,1.3s0.5,1.2,0.5,2
				c0,1-0.3,1.9-0.8,2.7c-0.6,0.8-1.8,1.2-3.7,1.2H71c-1.4,0-2.4-0.2-2.9-0.7s-1.1-1.5-1.8-3.3c-0.7-1.9-1.2-2.9-1.5-3
				c-0.3-0.1-0.8-0.2-1.6-0.2c-1,0-1.6,0.1-1.9,0.2c-0.3,0.1-0.4,0.4-0.4,0.7c0,0.4,0.1,0.6,0.4,0.7s0.9,0.1,1.9,0.1L65.2,178.9
				L65.2,178.9z M67.8,177.1c0.7,0.9,1.2,1.4,1.7,1.6c0.5,0.1,1.1,0.2,1.9,0.2c1,0,1.6-0.1,1.9-0.2c0.3-0.1,0.4-0.4,0.4-0.8
				c0-0.4-0.1-0.6-0.3-0.7c-0.2-0.1-0.8-0.2-1.7-0.2L67.8,177.1L67.8,177.1z"/>
			<path class="st1" d="M53.9,156.5h22.8v5.7h-1.4c0.6,0.5,1,1.1,1.3,1.7c0.3,0.6,0.4,1.2,0.4,1.9c0,0.9-0.2,1.6-0.7,2.3
				c-0.5,0.6-1,1.1-1.6,1.2c-0.6,0.2-1.6,0.3-3,0.3H63c-1.4,0-2.5-0.1-3.1-0.3c-0.6-0.2-1.1-0.6-1.6-1.3s-0.7-1.4-0.7-2.4
				c0-0.7,0.1-1.4,0.4-1.9c0.3-0.6,0.6-1.1,1.1-1.6h-5.3C53.9,162.2,53.9,156.5,53.9,156.5z M62.7,162.2c-0.7,0-1.1,0.1-1.4,0.2
				c-0.2,0.1-0.4,0.4-0.4,0.7c0,0.3,0.1,0.6,0.3,0.7c0.2,0.1,0.7,0.2,1.4,0.2h9.2c0.8,0,1.3-0.1,1.5-0.2c0.2-0.1,0.4-0.3,0.4-0.6
				c0-0.4-0.1-0.6-0.4-0.7c-0.3-0.1-0.9-0.2-2-0.2L62.7,162.2L62.7,162.2z"/>
			<path class="st1" d="M53.9,136.4h22.8v5.7h-1.4c0.6,0.5,1,1.1,1.3,1.7c0.3,0.6,0.4,1.2,0.4,1.9c0,0.9-0.2,1.6-0.7,2.3
				c-0.5,0.6-1,1.1-1.6,1.2c-0.6,0.2-1.6,0.3-3,0.3H63c-1.4,0-2.5-0.1-3.1-0.3c-0.6-0.2-1.1-0.6-1.6-1.3s-0.7-1.4-0.7-2.4
				c0-0.7,0.1-1.4,0.4-1.9c0.3-0.6,0.6-1.1,1.1-1.6h-5.3C53.9,142.1,53.9,136.4,53.9,136.4z M62.7,142.1c-0.7,0-1.1,0.1-1.4,0.2
				c-0.2,0.1-0.4,0.4-0.4,0.7c0,0.3,0.1,0.6,0.3,0.7c0.2,0.1,0.7,0.2,1.4,0.2h9.2c0.8,0,1.3-0.1,1.5-0.2c0.2-0.1,0.4-0.3,0.4-0.6
				c0-0.4-0.1-0.6-0.4-0.7c-0.3-0.1-0.9-0.2-2-0.2L62.7,142.1L62.7,142.1z"/>
			<path class="st1" d="M58,121.3h18.7v5.8l-1.6-0.1c0.6,0.4,1.1,0.9,1.4,1.5c0.3,0.6,0.5,1.2,0.5,2c0,0.9-0.2,1.6-0.5,2.1
				s-0.7,1-1.2,1.2s-1,0.4-1.6,0.5c-0.5,0.1-1.6,0.1-3.2,0.1H58v-5.7h12.7c1.5,0,2.3,0,2.6-0.1s0.4-0.3,0.4-0.7
				c0-0.4-0.1-0.7-0.4-0.8c-0.3-0.1-1.2-0.1-2.7-0.1H58V121.3z"/>
			<path class="st1" d="M58,113.6l2.5,0.2c-1.8-0.8-2.7-2-2.8-3.6h6.6c0,1,0.1,1.8,0.4,2.3s0.7,0.8,1.2,0.9s1.7,0.2,3.5,0.2h7.4v5.7
				H58V113.6z"/>
			<path class="st1" d="M65.2,103.8v5.3H64c-1.4,0-2.6-0.2-3.3-0.5c-0.8-0.3-1.5-1-2.1-2c-0.6-1-0.9-2.3-0.9-3.9
				c0-1.9,0.3-3.4,1-4.4c0.7-1,1.5-1.6,2.5-1.8c1-0.2,3-0.3,6.1-0.3h9.4v5.5H75c0.7,0.3,1.2,0.8,1.5,1.3s0.5,1.2,0.5,2
				c0,1-0.3,1.9-0.8,2.7c-0.6,0.8-1.8,1.2-3.7,1.2H71c-1.4,0-2.4-0.2-2.9-0.7s-1.1-1.5-1.8-3.3c-0.7-1.9-1.2-2.9-1.5-3
				c-0.3-0.1-0.8-0.2-1.6-0.2c-1,0-1.6,0.1-1.9,0.2c-0.3,0.1-0.4,0.4-0.4,0.7c0,0.4,0.1,0.6,0.4,0.7s0.9,0.1,1.9,0.1
				C63.3,103.8,65.2,103.8,65.2,103.8z M67.8,102c0.7,0.9,1.2,1.4,1.7,1.6c0.5,0.1,1.1,0.2,1.9,0.2c1,0,1.6-0.1,1.9-0.2
				c0.3-0.1,0.4-0.4,0.4-0.8c0-0.4-0.1-0.6-0.3-0.7c-0.2-0.1-0.8-0.2-1.7-0.2L67.8,102L67.8,102z"/>
			<path class="st1" d="M58,88.6l1.7,0.1c-0.7-0.4-1.2-0.9-1.5-1.5s-0.5-1.3-0.5-2.1c0-1,0.2-1.8,0.7-2.4c0.5-0.6,1-1,1.7-1.2
				c0.7-0.2,1.9-0.3,3.5-0.3h13.1v5.7h-13c-1.3,0-2.1,0-2.4,0.1c-0.3,0.1-0.4,0.3-0.4,0.7c0,0.4,0.2,0.7,0.5,0.8
				c0.3,0.1,1.2,0.2,2.6,0.2h12.7v5.7H58V88.6z"/>
			<path class="st1" d="M55.5,73.3h2.9v-1.5h3v1.5h10c1.2,0,1.9-0.1,2.1-0.2c0.1-0.1,0.2-0.7,0.2-1.6h3v2.3c0,1.3-0.1,2.2-0.2,2.8
				s-0.4,1-0.7,1.5c-0.4,0.4-0.8,0.7-1.3,0.8c-0.5,0.1-1.7,0.2-3.5,0.2h-9.5v1.2h-3V79h-2.9L55.5,73.3L55.5,73.3z"/>
			<path class="st1" d="M67.7,57.6v7.4h4c0.8,0,1.4-0.1,1.6-0.2c0.2-0.1,0.4-0.4,0.4-0.7c0-0.4-0.2-0.7-0.5-0.9
				c-0.3-0.1-1-0.2-1.9-0.2h-2.5v-5.4h1.4c1.2,0,2,0.1,2.7,0.2c0.6,0.1,1.3,0.5,2,1c0.7,0.5,1.2,1.2,1.6,2s0.5,1.9,0.5,3.1
				c0,1.2-0.2,2.3-0.5,3.2c-0.3,0.9-0.8,1.6-1.4,2.2c-0.6,0.5-1.3,0.9-2,1.1c-0.7,0.2-1.8,0.3-3.2,0.3h-5.5c-1.6,0-2.9-0.2-3.9-0.7
				c-0.9-0.4-1.7-1.2-2.2-2.2c-0.5-1-0.8-2.2-0.8-3.5c0-1.6,0.3-2.9,0.9-4s1.4-1.8,2.4-2.2c1-0.4,2.4-0.6,4.2-0.6L67.7,57.6
				L67.7,57.6z M64.6,63.3h-1.4c-1,0-1.6,0.1-1.9,0.2c-0.3,0.1-0.4,0.3-0.4,0.6c0,0.4,0.1,0.6,0.4,0.7c0.2,0.1,0.9,0.1,1.9,0.1h1.4
				L64.6,63.3L64.6,63.3z"/>
			<path class="st1" d="M83.7,259.3h22.8v5.9H83.7V259.3z"/>
			<path class="st1" d="M94.4,244.4H99c1.7,0,2.9,0.1,3.7,0.3c0.8,0.2,1.5,0.5,2.2,1.1c0.7,0.6,1.2,1.3,1.5,2.1
				c0.3,0.9,0.5,1.9,0.5,3c0,1.3-0.1,2.3-0.4,3.2c-0.3,0.9-0.7,1.6-1.3,2c-0.6,0.5-1.2,0.8-2,1c-0.8,0.2-2,0.3-3.6,0.3h-4.8
				c-1.7,0-3.1-0.2-4.1-0.6s-1.8-1.1-2.4-2c-0.6-1-0.9-2.2-0.9-3.8c0-1.3,0.2-2.4,0.6-3.3c0.4-0.9,0.9-1.6,1.5-2.1s1.2-0.8,1.9-1
				C92.1,244.5,93.1,244.4,94.4,244.4z M93,250.1c-1,0-1.6,0.1-1.8,0.2s-0.4,0.3-0.4,0.7c0,0.3,0.1,0.6,0.4,0.7s0.9,0.2,1.8,0.2h8.4
				c0.9,0,1.5-0.1,1.7-0.2c0.3-0.1,0.4-0.3,0.4-0.7c0-0.3-0.1-0.6-0.4-0.7c-0.2-0.1-0.8-0.2-1.6-0.2H93z"/>
			<path class="st1" d="M93.8,230.9v5h-1c-0.9,0-1.4,0-1.6,0.1c-0.2,0.1-0.3,0.3-0.3,0.7c0,0.3,0.1,0.6,0.3,0.7
				c0.2,0.2,0.5,0.2,1,0.2c0.6,0,1,0,1.3-0.1c0.3-0.1,0.6-0.3,0.9-0.7c0.3-0.4,0.8-1.2,1.4-2.5c0.8-1.7,1.6-2.7,2.3-3.3
				c0.7-0.5,1.8-0.8,3.1-0.8c1.5,0,2.7,0.2,3.4,0.6s1.4,1.1,1.8,2s0.6,2,0.6,3.4c0,1.4-0.2,2.7-0.7,3.7c-0.5,1-1.1,1.7-1.8,2.1
				s-1.9,0.6-3.5,0.6H100v-5h1.2c1,0,1.7-0.1,2-0.2s0.5-0.4,0.5-0.8c0-0.4-0.1-0.7-0.3-0.8c-0.2-0.2-0.6-0.2-1.3-0.2
				c-0.9,0-1.5,0.1-1.7,0.3c-0.2,0.2-0.9,1.3-2,3.3c-0.9,1.7-1.8,2.7-2.6,3.1c-0.8,0.4-1.7,0.6-2.7,0.6c-1.5,0-2.6-0.2-3.3-0.6
				s-1.3-1.1-1.6-2s-0.6-2-0.6-3.3c0-1.2,0.2-2.3,0.5-3.2s0.7-1.5,1.2-2c0.5-0.5,1-0.7,1.4-0.8c0.4-0.1,1.1-0.1,2.1-0.1L93.8,230.9
				L93.8,230.9z"/>
			<path class="st1" d="M82.8,212.5l3.8,4.6v2.9l-3.8-2.5V212.5z M87.9,210.8h18.7v5.8l-1.6-0.1c0.6,0.4,1.1,0.9,1.4,1.5
				s0.5,1.2,0.5,2c0,0.9-0.2,1.6-0.5,2.1s-0.7,1-1.2,1.2s-1,0.4-1.6,0.5c-0.5,0.1-1.6,0.1-3.2,0.1H87.9v-5.7h12.7
				c1.5,0,2.3,0,2.6-0.1s0.4-0.3,0.4-0.7c0-0.4-0.1-0.7-0.4-0.8c-0.3-0.1-1.2-0.1-2.7-0.1H87.9V210.8z"/>
			<path class="st1" d="M83.7,202.9h22.8v5.9H83.7V202.9z"/>
			<path class="st1" d="M85.4,194.8h2.9v-1.5h3v1.5h10c1.2,0,1.9-0.1,2.1-0.2c0.1-0.1,0.2-0.7,0.2-1.6h3v2.3c0,1.3-0.1,2.2-0.2,2.8
				s-0.4,1-0.7,1.5c-0.4,0.4-0.8,0.7-1.3,0.8c-0.5,0.1-1.7,0.2-3.5,0.2h-9.5v1.2h-3v-1.2h-2.9L85.4,194.8L85.4,194.8z"/>
			<path class="st1" d="M83.7,186.2h3v5.9h-3V186.2z M87.9,186.2h18.7v5.9H87.9V186.2z"/>
			<path class="st1" d="M87.9,178.5l1.8,0.1c-0.7-0.4-1.2-1-1.6-1.6c-0.4-0.6-0.5-1.3-0.5-2.1c0-1.5,0.7-2.7,2.1-3.6
				c-0.7-0.5-1.2-1-1.6-1.6c-0.4-0.6-0.5-1.3-0.5-2c0-1,0.2-1.8,0.7-2.4c0.5-0.6,1-1,1.7-1.2s1.8-0.3,3.3-0.3h13.3v5.5H94.4
				c-1.6,0-2.6,0.1-3,0.2c-0.4,0.1-0.6,0.4-0.6,0.8c0,0.4,0.2,0.7,0.6,0.8s1.4,0.2,3,0.2h12.2v5.5H94.7c-1.8,0-2.9,0-3.3,0.1
				c-0.4,0.1-0.6,0.3-0.6,0.7c0,0.3,0.1,0.5,0.3,0.6c0.2,0.2,0.4,0.3,0.7,0.3c0.3,0,0.9,0,1.8,0h13v5.5H87.9V178.5z"/>
			<path class="st1" d="M94.4,149H99c1.7,0,2.9,0.1,3.7,0.3c0.8,0.2,1.5,0.5,2.2,1.1c0.7,0.6,1.2,1.3,1.5,2.1c0.3,0.9,0.5,1.9,0.5,3
				c0,1.3-0.1,2.3-0.4,3.2c-0.3,0.9-0.7,1.6-1.3,2c-0.6,0.5-1.2,0.8-2,1c-0.8,0.2-2,0.3-3.6,0.3h-4.8c-1.7,0-3.1-0.2-4.1-0.6
				c-1-0.4-1.8-1.1-2.4-2c-0.6-1-0.9-2.2-0.9-3.8c0-1.3,0.2-2.4,0.6-3.3c0.4-0.9,0.9-1.6,1.5-2.1s1.2-0.8,1.9-1
				C92.1,149.1,93.1,149,94.4,149z M93,154.7c-1,0-1.6,0.1-1.8,0.2s-0.4,0.3-0.4,0.7c0,0.3,0.1,0.6,0.4,0.7s0.9,0.2,1.8,0.2h8.4
				c0.9,0,1.5-0.1,1.7-0.2c0.3-0.1,0.4-0.3,0.4-0.7c0-0.3-0.1-0.6-0.4-0.7c-0.2-0.1-0.8-0.2-1.6-0.2H93z"/>
			<path class="st1" d="M93.8,135.5v5h-1c-0.9,0-1.4,0-1.6,0.1c-0.2,0.1-0.3,0.3-0.3,0.7c0,0.3,0.1,0.6,0.3,0.7
				c0.2,0.2,0.5,0.2,1,0.2c0.6,0,1,0,1.3-0.1c0.3-0.1,0.6-0.3,0.9-0.7c0.3-0.4,0.8-1.2,1.4-2.5c0.8-1.7,1.6-2.7,2.3-3.3
				c0.7-0.5,1.8-0.8,3.1-0.8c1.5,0,2.7,0.2,3.4,0.6s1.4,1.1,1.8,2s0.6,2,0.6,3.4c0,1.4-0.2,2.7-0.7,3.7c-0.5,1-1.1,1.7-1.8,2.1
				s-1.9,0.6-3.5,0.6H100v-5h1.2c1,0,1.7-0.1,2-0.2s0.5-0.4,0.5-0.8c0-0.4-0.1-0.7-0.3-0.8c-0.2-0.2-0.6-0.2-1.3-0.2
				c-0.9,0-1.5,0.1-1.7,0.3c-0.2,0.2-0.9,1.3-2,3.3c-0.9,1.7-1.8,2.7-2.6,3.1c-0.8,0.4-1.7,0.6-2.7,0.6c-1.5,0-2.6-0.2-3.3-0.6
				s-1.3-1.1-1.6-2s-0.6-2-0.6-3.3c0-1.2,0.2-2.3,0.5-3.2s0.7-1.5,1.2-2c0.5-0.5,1-0.7,1.4-0.8c0.4-0.1,1.1-0.1,2.1-0.1L93.8,135.5
				L93.8,135.5z"/>
			<path class="st1" d="M89.8,114.7v5.7c-1.1,0-1.7,0-2,0s-0.5,0.1-0.7,0.3c-0.2,0.2-0.3,0.5-0.3,0.8c0,0.3,0.1,0.5,0.3,0.7
				s0.4,0.3,0.7,0.3c0.3,0,0.9,0,1.7,0h3.6c-0.6-0.3-1.1-0.7-1.4-1.3c-0.3-0.6-0.5-1.3-0.5-2.1c0-1,0.3-2,0.8-2.8s1.2-1.3,2-1.5
				c0.8-0.2,1.9-0.3,3.2-0.3h1.8c1.6,0,2.8,0.1,3.6,0.2c0.8,0.1,1.5,0.4,2.2,1s1.2,1.3,1.5,2.2c0.4,0.9,0.6,2,0.6,3.2
				c0,1.5-0.2,2.8-0.6,3.8c-0.4,1-1,1.7-1.8,2.3c-0.8,0.5-1.6,0.8-2.5,0.9c-0.9,0.1-2.6,0.1-5.1,0.1h-3.2c-2.7,0-4.5,0-5.5-0.1
				c-0.9-0.1-1.8-0.4-2.6-1c-0.8-0.6-1.4-1.4-1.8-2.3c-0.4-1-0.6-2.1-0.6-3.4c0-1.6,0.3-2.9,0.8-3.9c0.5-1,1.2-1.8,2.2-2.2
				S88.4,114.7,89.8,114.7z M96.9,120.4c-0.8,0-1.4,0.1-1.7,0.3s-0.5,0.5-0.5,0.9c0,0.4,0.1,0.7,0.4,0.9c0.3,0.2,0.8,0.3,1.7,0.3
				h4.1c1,0,1.7-0.1,2-0.3s0.5-0.5,0.5-0.9c0-0.2-0.1-0.5-0.4-0.8c-0.2-0.3-0.9-0.4-1.9-0.4H96.9z"/>
			<path class="st1" d="M87.9,102.1l1.8,0.1c-0.7-0.4-1.2-1-1.6-1.6c-0.4-0.6-0.5-1.3-0.5-2.1c0-1.5,0.7-2.7,2.1-3.6
				c-0.7-0.5-1.2-1-1.6-1.6c-0.4-0.6-0.5-1.3-0.5-2c0-1,0.2-1.8,0.7-2.4c0.5-0.6,1-1,1.7-1.2s1.8-0.3,3.3-0.3h13.3v5.5H94.4
				c-1.6,0-2.6,0.1-3,0.2c-0.4,0.1-0.6,0.4-0.6,0.8c0,0.4,0.2,0.7,0.6,0.8s1.4,0.2,3,0.2h12.2v5.5H94.7c-1.8,0-2.9,0-3.3,0.1
				c-0.4,0.1-0.6,0.3-0.6,0.7c0,0.3,0.1,0.5,0.3,0.6c0.2,0.2,0.4,0.3,0.7,0.3c0.3,0,0.9,0,1.8,0h13v5.5H87.9V102.1z"/>
			<path class="st1" d="M97.6,72.5v7.4h4c0.8,0,1.4-0.1,1.6-0.2c0.2-0.1,0.4-0.4,0.4-0.7c0-0.4-0.2-0.7-0.5-0.9
				c-0.3-0.1-1-0.2-1.9-0.2h-2.5v-5.4h1.4c1.2,0,2,0.1,2.7,0.2c0.6,0.1,1.3,0.5,2,1c0.7,0.5,1.2,1.2,1.6,2s0.5,1.9,0.5,3.1
				c0,1.2-0.2,2.3-0.5,3.2c-0.3,0.9-0.8,1.6-1.4,2.2c-0.6,0.5-1.3,0.9-2,1.1c-0.7,0.2-1.8,0.3-3.2,0.3h-5.5c-1.6,0-2.9-0.2-3.9-0.7
				c-0.9-0.4-1.7-1.2-2.2-2.2s-0.8-2.2-0.8-3.5c0-1.6,0.3-2.9,0.9-4s1.4-1.8,2.4-2.2c1-0.4,2.4-0.6,4.2-0.6L97.6,72.5L97.6,72.5z
				 M94.5,78.2h-1.4c-1,0-1.6,0.1-1.9,0.2c-0.3,0.1-0.4,0.3-0.4,0.6c0,0.4,0.1,0.6,0.4,0.7c0.2,0.1,0.9,0.1,1.9,0.1h1.4L94.5,78.2
				L94.5,78.2z"/>
			<path class="st1" d="M93.8,59v5h-1c-0.9,0-1.4,0-1.6,0.1c-0.2,0.1-0.3,0.3-0.3,0.7c0,0.3,0.1,0.6,0.3,0.7c0.2,0.2,0.5,0.2,1,0.2
				c0.6,0,1,0,1.3-0.1c0.3-0.1,0.6-0.3,0.9-0.7c0.3-0.4,0.8-1.2,1.4-2.5c0.8-1.7,1.6-2.7,2.3-3.3c0.7-0.5,1.8-0.8,3.1-0.8
				c1.5,0,2.7,0.2,3.4,0.6s1.4,1.1,1.8,2s0.6,2,0.6,3.4c0,1.4-0.2,2.7-0.7,3.7c-0.5,1-1.1,1.7-1.8,2.1s-1.9,0.6-3.5,0.6H100v-5h1.2
				c1,0,1.7-0.1,2-0.2s0.5-0.4,0.5-0.8c0-0.4-0.1-0.7-0.3-0.8c-0.2-0.2-0.6-0.2-1.3-0.2c-0.9,0-1.5,0.1-1.7,0.3
				c-0.2,0.2-0.9,1.3-2,3.3c-0.9,1.7-1.8,2.7-2.6,3.1c-0.8,0.4-1.7,0.6-2.7,0.6c-1.5,0-2.6-0.2-3.3-0.6s-1.3-1.1-1.6-2
				s-0.6-2-0.6-3.3c0-1.2,0.2-2.3,0.5-3.2s0.7-1.5,1.2-2c0.5-0.5,1-0.7,1.4-0.8c0.4-0.1,1.1-0.1,2.1-0.1L93.8,59L93.8,59z"/>
			<path class="st1" d="M97.6,44.2v7.4h4c0.8,0,1.4-0.1,1.6-0.2c0.2-0.1,0.4-0.4,0.4-0.7c0-0.4-0.2-0.7-0.5-0.9
				c-0.3-0.1-1-0.2-1.9-0.2h-2.5v-5.4h1.4c1.2,0,2,0.1,2.7,0.2c0.6,0.1,1.3,0.5,2,1c0.7,0.5,1.2,1.2,1.6,2s0.5,1.9,0.5,3.1
				c0,1.2-0.2,2.3-0.5,3.2c-0.3,0.9-0.8,1.6-1.4,2.2c-0.6,0.5-1.3,0.9-2,1.1c-0.7,0.2-1.8,0.3-3.2,0.3h-5.5c-1.6,0-2.9-0.2-3.9-0.7
				c-0.9-0.4-1.7-1.2-2.2-2.2s-0.8-2.2-0.8-3.5c0-1.6,0.3-2.9,0.9-4s1.4-1.8,2.4-2.2c1-0.4,2.4-0.6,4.2-0.6L97.6,44.2L97.6,44.2z
				 M94.5,49.9h-1.4c-1,0-1.6,0.1-1.9,0.2c-0.3,0.1-0.4,0.3-0.4,0.6c0,0.4,0.1,0.6,0.4,0.7c0.2,0.1,0.9,0.1,1.9,0.1h1.4L94.5,49.9
				L94.5,49.9z"/>
			<path class="st1" d="M93.8,30.7v5h-1c-0.9,0-1.4,0-1.6,0.1c-0.2,0.1-0.3,0.3-0.3,0.7c0,0.3,0.1,0.6,0.3,0.7
				c0.2,0.2,0.5,0.2,1,0.2c0.6,0,1,0,1.3-0.1c0.3-0.1,0.6-0.3,0.9-0.7c0.3-0.4,0.8-1.2,1.4-2.5c0.8-1.7,1.6-2.7,2.3-3.3
				c0.7-0.5,1.8-0.8,3.1-0.8c1.5,0,2.7,0.2,3.4,0.6s1.4,1.1,1.8,2c0.4,0.9,0.6,2,0.6,3.3c0,1.4-0.2,2.7-0.7,3.7
				c-0.5,1-1.1,1.7-1.8,2.1s-1.9,0.6-3.5,0.6H100v-5h1.2c1,0,1.7-0.1,2-0.2s0.5-0.4,0.5-0.8c0-0.4-0.1-0.7-0.3-0.8
				c-0.2-0.2-0.6-0.2-1.3-0.2c-0.9,0-1.5,0.1-1.7,0.3c-0.2,0.2-0.9,1.3-2,3.3c-0.9,1.7-1.8,2.7-2.6,3.1c-0.8,0.4-1.7,0.5-2.7,0.5
				c-1.5,0-2.6-0.2-3.3-0.6s-1.3-1.1-1.6-2s-0.6-2-0.6-3.3c0-1.2,0.2-2.3,0.5-3.2s0.7-1.5,1.2-2c0.5-0.5,1-0.7,1.4-0.8
				c0.4-0.1,1.1-0.1,2.1-0.1L93.8,30.7L93.8,30.7z"/>
		</g>
		<g>
			<path class="st2" d="M62.3,360.1v5.9h-2.1c-1.3,0-2.1,0.1-2.5,0.2s-0.5,0.4-0.5,0.8c0,0.4,0.1,0.6,0.4,0.7c0.3,0.1,1,0.2,2.2,0.2
				h11c1,0,1.7-0.1,2-0.2c0.3-0.1,0.5-0.4,0.5-0.8c0-0.4-0.2-0.7-0.6-0.9c-0.4-0.2-1.1-0.2-2.1-0.2h-2.7v1.2h-3.5v-7h12.3v3.7
				l-1.6,0.5c0.7,0.4,1.2,0.9,1.6,1.5s0.5,1.3,0.5,2.2c0,1-0.2,1.9-0.7,2.8c-0.5,0.9-1.1,1.5-1.8,2c-0.7,0.5-1.5,0.7-2.2,0.8
				s-2,0.2-3.5,0.2h-6.8c-2.2,0-3.8-0.1-4.8-0.4c-1-0.2-1.9-0.9-2.7-2c-0.8-1.1-1.2-2.6-1.2-4.3c0-1.7,0.4-3.2,1.1-4.3
				c0.7-1.1,1.6-1.9,2.5-2.2s2.4-0.5,4.3-0.5L62.3,360.1L62.3,360.1z"/>
			<path class="st2" d="M53.9,357.8v-4.2c0-2.8,0.1-4.7,0.3-5.7c0.2-1,0.8-1.8,1.7-2.4c0.9-0.6,2.3-0.9,4.3-0.9c1.8,0,3,0.2,3.6,0.7
				s1,1.3,1.1,2.6c0.3-1.2,0.7-2,1.2-2.4c0.5-0.4,0.9-0.7,1.3-0.8c0.4-0.1,1.5-0.1,3.4-0.1h6v5.5h-7.6c-1.2,0-2,0.1-2.3,0.3
				c-0.3,0.2-0.4,0.7-0.4,1.5h10.3v5.9L53.9,357.8L53.9,357.8z M57.8,351.8h5.1c0-0.7-0.1-1.1-0.3-1.4c-0.2-0.3-0.8-0.4-1.8-0.4
				h-1.3c-0.7,0-1.2,0.1-1.4,0.4C57.9,350.7,57.8,351.2,57.8,351.8z"/>
			<path class="st2" d="M49.3,331.3l3.8,4.6v2.9l-3.8-2.5V331.3z M53.9,332l22.8-3.4v6.1l-4.1,0.3v2.1l4.1,0.4v6.1l-22.8-3
				C53.9,340.5,53.9,332,53.9,332z M68.5,335.1c-2.6,0.3-5.8,0.6-9.6,0.9c4.4,0.6,7.6,1,9.6,1.1V335.1z"/>
			<path class="st2" d="M53.9,327.6v-10.1h4.6v4.1h4.3v-3.7h4.3v3.7h9.6v5.9H53.9z"/>
			<path class="st2" d="M53.9,310.1h22.8v5.9H53.9V310.1z"/>
			<path class="st2" d="M63.8,293.9v5.9h-4c-1.2,0-1.9,0.1-2.2,0.2s-0.4,0.4-0.4,0.8c0,0.5,0.2,0.8,0.5,0.9s1.1,0.2,2.3,0.2h10.6
				c1.1,0,1.8-0.1,2.2-0.2c0.3-0.1,0.5-0.4,0.5-0.9c0-0.4-0.2-0.7-0.5-0.9c-0.3-0.1-1.1-0.2-2.4-0.2h-2.9v-5.9h0.9
				c2.4,0,4,0.2,5,0.5c1,0.3,1.9,1.1,2.6,2.2c0.7,1.1,1.1,2.6,1.1,4.2c0,1.7-0.3,3.2-0.9,4.3c-0.6,1.1-1.5,1.9-2.6,2.2
				c-1.1,0.4-2.8,0.5-5,0.5h-6.7c-1.6,0-2.9-0.1-3.7-0.2c-0.8-0.1-1.6-0.4-2.4-1c-0.8-0.6-1.4-1.3-1.8-2.3c-0.4-1-0.7-2.1-0.7-3.4
				c0-1.7,0.3-3.2,1-4.3c0.7-1.1,1.5-1.9,2.5-2.2s2.6-0.5,4.7-0.5L63.8,293.9L63.8,293.9z"/>
			<path class="st2" d="M53.9,281.5l22.8-3.4v6.1l-4.1,0.3v2.1l4.1,0.4v6.1l-22.8-3C53.9,290.1,53.9,281.5,53.9,281.5z M68.5,284.6
				c-2.6,0.3-5.8,0.6-9.6,0.9c4.4,0.6,7.6,1,9.6,1.1V284.6z"/>
			<path class="st2" d="M83.7,278.5h5l17.9,3.6v5.7l-18.7-4.1v5.6h-4.1L83.7,278.5L83.7,278.5z"/>
		</g>
		<g>
			<g>
				<g>
					<g class="st3">
						<path class="st4" d="M402.8,320c0.4,0.1,0.8,0.4,1,0.7c0.2,0.3,0.3,1.1,0.3,2.4c0,0.9-0.1,1.6-0.3,2.1
							c-0.2,0.5-0.6,0.9-1.1,1.2s-1.2,0.4-2,0.4c-0.9,0-1.6-0.2-2.2-0.5c-0.5-0.3-0.9-0.7-1-1.1c-0.2-0.4-0.2-1.2-0.2-2.3V322h2.9
							v1.9c0,0.5,0,0.8,0.1,1c0.1,0.1,0.2,0.2,0.4,0.2c0.2,0,0.4-0.1,0.4-0.3c0.1-0.2,0.1-0.6,0.1-1.3v-0.8c0-0.4-0.1-0.8-0.1-1
							c-0.1-0.2-0.2-0.3-0.4-0.4s-0.6-0.1-1.1-0.1v-1.7c0.7,0,1.1,0,1.3-0.1s0.3-0.2,0.4-0.3c0.1-0.2,0.1-0.5,0.1-0.8v-0.6
							c0-0.4,0-0.7-0.1-0.8c-0.1-0.1-0.2-0.2-0.4-0.2c-0.2,0-0.3,0.1-0.4,0.2s-0.1,0.4-0.1,0.9v1h-2.9v-1c0-1.1,0.3-1.9,0.8-2.2
							s1.3-0.6,2.4-0.6c1.4,0,2.3,0.3,2.8,0.8c0.5,0.5,0.7,1.3,0.7,2.2c0,0.6-0.1,1.1-0.3,1.4C403.5,319.5,403.2,319.8,402.8,320z"
							/>
						<path class="st4" d="M409.8,317v2c0,0.5,0,0.9-0.1,1.2c-0.1,0.3-0.3,0.5-0.6,0.7s-0.7,0.3-1.3,0.3c-0.6,0-1.1-0.1-1.4-0.3
							s-0.5-0.4-0.6-0.7c-0.1-0.3-0.2-0.6-0.2-1.1V317c0-0.6,0.1-1,0.2-1.3c0.1-0.3,0.3-0.5,0.7-0.7s0.7-0.3,1.2-0.3
							c0.5,0,1,0.1,1.3,0.3c0.3,0.2,0.6,0.4,0.7,0.7S409.8,316.4,409.8,317z M408,316.4c0-0.3,0-0.5,0-0.6c0-0.1-0.1-0.1-0.3-0.1
							c-0.1,0-0.2,0-0.2,0.1s-0.1,0.3-0.1,0.6v2.9c0,0.3,0,0.5,0,0.6c0,0.1,0.1,0.1,0.3,0.1c0.1,0,0.2,0,0.2-0.1
							c0-0.1,0.1-0.3,0.1-0.5V316.4z M413.2,314.8l-4.5,12h-1.1l4.5-12H413.2z M415.2,322.6v2c0,0.5,0,0.9-0.1,1.2
							c-0.1,0.3-0.3,0.5-0.6,0.7c-0.3,0.2-0.7,0.3-1.3,0.3c-0.6,0-1.1-0.1-1.4-0.3c-0.3-0.2-0.5-0.4-0.6-0.7
							c-0.1-0.3-0.2-0.6-0.2-1.1v-2.1c0-0.6,0.1-1,0.2-1.3c0.1-0.3,0.3-0.5,0.7-0.7s0.7-0.3,1.2-0.3c0.5,0,1,0.1,1.3,0.3
							c0.3,0.2,0.6,0.4,0.7,0.7C415.1,321.6,415.2,322,415.2,322.6z M413.4,322.1c0-0.3,0-0.5,0-0.6s-0.1-0.1-0.3-0.1
							c-0.1,0-0.2,0-0.2,0.1c0,0.1-0.1,0.3-0.1,0.6v2.9c0,0.3,0,0.5,0,0.6s0.1,0.1,0.3,0.1c0.1,0,0.2,0,0.2-0.1s0.1-0.3,0.1-0.5
							V322.1z"/>
					</g>
				</g>
			</g>
			<g>
				<g>
					<g class="st3">
						<path class="st5" d="M398.5,330.3v7.2h-0.9v-7.2H398.5z"/>
						<path class="st5" d="M399.9,330.3h0.8l3,5.1v-5.1h0.9v7.2h-0.8l-3-5.2v5.2h-0.9V330.3z"/>
						<path class="st5" d="M411.6,335.8l0.7,0.6c-0.8,0.8-1.7,1.2-2.7,1.2c-1,0-1.9-0.4-2.6-1.1s-1.1-1.6-1.1-2.6
							c0-1,0.4-1.9,1.1-2.6c0.7-0.7,1.6-1.1,2.6-1.1c0.9,0,1.8,0.4,2.7,1.2l-0.7,0.6c-0.6-0.6-1.3-0.9-2-0.9c-0.7,0-1.4,0.3-1.9,0.8
							s-0.8,1.2-0.8,1.9c0,0.8,0.3,1.4,0.8,1.9s1.2,0.8,1.9,0.8C410.3,336.6,410.9,336.3,411.6,335.8z"/>
						<path class="st5" d="M415.8,330.3l2.6,7.2h-1l-0.9-2.5h-1.9l-0.9,2.5h-1l2.6-7.2H415.8z M416.2,334l-0.6-1.7L415,334H416.2z"
							/>
						<path class="st5" d="M420.3,335.2v2.3h-0.9v-7.2h2c0.6,0.1,1.1,0.3,1.5,0.7c0.5,0.5,0.7,1.1,0.7,1.7c0,0.7-0.2,1.2-0.7,1.7
							c-0.5,0.5-1,0.7-1.7,0.7L420.3,335.2L420.3,335.2z M420.3,331.3v3h0.8c0.4,0,0.8-0.1,1.1-0.4c0.3-0.3,0.4-0.6,0.4-1.1
							c0-0.4-0.1-0.8-0.4-1.1c-0.3-0.3-0.6-0.4-1.1-0.4H420.3z"/>
						<path class="st5" d="M426.5,330.3l2.6,7.2h-1l-0.9-2.5h-1.9l-0.9,2.5h-1l2.6-7.2H426.5z M426.9,334l-0.6-1.7l-0.6,1.7H426.9z"
							/>
						<path class="st5" d="M435.4,335.8l0.7,0.6c-0.8,0.8-1.7,1.2-2.7,1.2c-1,0-1.9-0.4-2.6-1.1s-1.1-1.6-1.1-2.6
							c0-1,0.4-1.9,1.1-2.6c0.7-0.7,1.6-1.1,2.6-1.1c0.9,0,1.8,0.4,2.7,1.2l-0.7,0.6c-0.6-0.6-1.3-0.9-2-0.9c-0.7,0-1.4,0.3-1.9,0.8
							c-0.5,0.5-0.8,1.2-0.8,1.9c0,0.8,0.3,1.4,0.8,1.9c0.5,0.5,1.2,0.8,1.9,0.8C434.1,336.6,434.8,336.3,435.4,335.8z"/>
						<path class="st5" d="M438.2,330.3v7.2h-0.9v-7.2H438.2z"/>
						<path class="st5" d="M441.8,331.2v6.2h-0.9v-6.2h-1.7v-0.9h4.3v0.9H441.8z"/>
						<path class="st5" d="M446.7,330.3l2.6,7.2h-1l-0.9-2.5h-1.9l-0.9,2.5h-1l2.6-7.2H446.7z M447.1,334l-0.6-1.7l-0.6,1.7H447.1z"
							/>
						<path class="st5" d="M450.9,330.3c1.2,0,2.1,0.3,2.7,1c0.7,0.7,1.1,1.6,1.1,2.6c0,1-0.4,1.9-1.1,2.6c-0.6,0.7-1.6,1-2.7,1
							h-0.7v-7.2L450.9,330.3L450.9,330.3z M451.1,331.3v5.3c0.7,0,1.3-0.2,1.8-0.7c0.5-0.5,0.8-1.2,0.8-1.9c0-0.8-0.3-1.4-0.8-1.9
							C452.5,331.5,451.9,331.3,451.1,331.3z"/>
						<path class="st5" d="M461.9,331.3c0.7,0.7,1.1,1.6,1.1,2.6s-0.4,1.9-1.1,2.6c-0.7,0.7-1.6,1.1-2.6,1.1c-1,0-1.9-0.4-2.6-1.1
							c-0.7-0.7-1.1-1.6-1.1-2.6s0.4-1.9,1.1-2.6c0.7-0.7,1.6-1.1,2.6-1.1C460.4,330.2,461.2,330.6,461.9,331.3z M459.3,331.2
							c-0.8,0-1.4,0.3-1.9,0.8c-0.5,0.5-0.8,1.2-0.8,1.9c0,0.8,0.3,1.4,0.8,1.9c0.5,0.5,1.2,0.8,1.9,0.8c0.8,0,1.4-0.3,1.9-0.8
							c0.5-0.5,0.8-1.2,0.8-1.9c0-0.8-0.3-1.4-0.8-1.9C460.7,331.4,460.1,331.2,459.3,331.2z"/>
						<path class="st5" d="M468.3,335.2v2.3h-0.9v-7.2h2c0.6,0.1,1.1,0.3,1.5,0.7c0.5,0.5,0.7,1.1,0.7,1.7c0,0.7-0.2,1.2-0.7,1.7
							c-0.5,0.5-1,0.7-1.7,0.7L468.3,335.2L468.3,335.2z M468.3,331.3v3h0.8c0.4,0,0.8-0.1,1.1-0.4c0.3-0.3,0.4-0.6,0.4-1.1
							c0-0.4-0.1-0.8-0.4-1.1c-0.3-0.3-0.6-0.4-1.1-0.4H468.3z"/>
						<path class="st5" d="M476.4,330.3v0.9h-2.9v2.2h2.9v0.9h-2.9v2.2h2.9v0.9h-3.9v-7.2L476.4,330.3L476.4,330.3z"/>
						<path class="st5" d="M479.4,335.2h-0.8v2.3h-0.9v-7.2h2c0.6,0.1,1.1,0.3,1.5,0.7c0.5,0.5,0.7,1.1,0.7,1.7
							c0,0.7-0.2,1.2-0.7,1.7c-0.3,0.3-0.6,0.5-0.8,0.6l1.6,2.4h-1.1L479.4,335.2z M478.5,331.3v3h0.8c0.4,0,0.8-0.1,1.1-0.4
							c0.3-0.3,0.4-0.6,0.4-1.1c0-0.4-0.1-0.8-0.4-1.1c-0.3-0.3-0.6-0.4-1.1-0.4H478.5z"/>
						<path class="st5" d="M483.9,330.3l2.3,4l2.3-4h0.8v7.2h-0.9v-5.2l-2.2,3.9l-2.2-3.9v5.2h-0.9v-7.2H483.9z"/>
						<path class="st5" d="M493.6,330.3l2.6,7.2h-1l-0.9-2.5h-1.9l-0.9,2.5h-1l2.6-7.2H493.6z M494,334l-0.6-1.7l-0.6,1.7H494z"/>
						<path class="st5" d="M497.1,330.3h0.8l3,5.1v-5.1h0.9v7.2H501l-3-5.2v5.2h-0.9L497.1,330.3L497.1,330.3z"/>
						<path class="st5" d="M507,330.3v0.9h-2.9v2.2h2.9v0.9h-2.9v2.2h2.9v0.9h-3.9v-7.2L507,330.3L507,330.3z"/>
						<path class="st5" d="M508.3,330.3h0.8l3,5.1v-5.1h0.9v7.2h-0.8l-3-5.2v5.2h-0.9L508.3,330.3L508.3,330.3z"/>
						<path class="st5" d="M516.5,331.2v6.2h-0.9v-6.2h-1.7v-0.9h4.3v0.9H516.5z"/>
						<path class="st5" d="M522.9,330.3v0.9H520v2.2h2.9v0.9H520v2.2h2.9v0.9h-3.9v-7.2L522.9,330.3L522.9,330.3z"/>
						<path class="st5" d="M398.4,346.2v2.3h-0.9v-7.2h2c0.6,0.1,1.1,0.3,1.5,0.7c0.5,0.5,0.7,1,0.7,1.7c0,0.7-0.2,1.2-0.7,1.7
							c-0.5,0.5-1,0.7-1.7,0.7L398.4,346.2L398.4,346.2z M398.4,342.2v3h0.8c0.4,0,0.8-0.1,1.1-0.4c0.3-0.3,0.4-0.6,0.4-1.1
							s-0.1-0.8-0.4-1.1c-0.3-0.3-0.6-0.4-1.1-0.4L398.4,342.2L398.4,342.2z"/>
						<path class="st5" d="M404.7,341.3l2.6,7.2h-1l-0.9-2.5h-1.9l-0.9,2.5h-1l2.6-7.2H404.7z M405.1,345l-0.6-1.7l-0.6,1.7H405.1z"
							/>
						<path class="st5" d="M410,346.2h-0.8v2.3h-0.9v-7.2h2c0.6,0.1,1.1,0.3,1.5,0.7c0.5,0.5,0.7,1,0.7,1.7c0,0.7-0.2,1.2-0.7,1.7
							c-0.3,0.3-0.6,0.5-0.8,0.6l1.6,2.4h-1.1L410,346.2z M409.1,342.2v3h0.8c0.4,0,0.8-0.1,1.1-0.4c0.3-0.3,0.4-0.6,0.4-1.1
							s-0.1-0.8-0.4-1.1c-0.3-0.3-0.6-0.4-1.1-0.4L409.1,342.2L409.1,342.2z"/>
						<path class="st5" d="M416.1,341.3l2.6,7.2h-1l-0.9-2.5h-1.9l-0.9,2.5h-1l2.6-7.2H416.1z M416.4,345l-0.6-1.7l-0.6,1.7H416.4z"
							/>
						<path class="st5" d="M424.8,342.2v6.2h-0.9v-6.2h-1.7v-0.9h4.3v0.9H424.8z"/>
						<path class="st5" d="M429.1,346.2h-0.8v2.3h-0.9v-7.2h2c0.6,0.1,1.1,0.3,1.5,0.7c0.5,0.5,0.7,1,0.7,1.7c0,0.7-0.2,1.2-0.7,1.7
							c-0.3,0.3-0.6,0.5-0.8,0.6l1.6,2.4h-1.1L429.1,346.2z M428.3,342.2v3h0.8c0.4,0,0.8-0.1,1.1-0.4c0.3-0.3,0.4-0.6,0.4-1.1
							s-0.1-0.8-0.4-1.1c-0.3-0.3-0.6-0.4-1.1-0.4L428.3,342.2L428.3,342.2z"/>
						<path class="st5" d="M435.3,341.3l2.6,7.2h-1l-0.9-2.5h-1.9l-0.9,2.5h-1l2.6-7.2H435.3z M435.6,345l-0.6-1.7l-0.6,1.7H435.6z"
							/>
						<path class="st5" d="M440.2,341.3c0.4,0,0.8,0.1,1.1,0.4c0.3,0.3,0.4,0.6,0.4,1.1c0,0.4-0.2,0.7-0.6,0.8
							c0.3,0,0.7,0.3,1.1,0.7c0.4,0.4,0.6,0.9,0.6,1.6s-0.2,1.3-0.7,1.8c-0.5,0.5-0.9,0.7-1.4,0.7v0h-1.8v-7.2L440.2,341.3
							L440.2,341.3z M439.7,342.2v1.1h0.6c0.1,0,0.3-0.1,0.4-0.2c0.1-0.1,0.2-0.2,0.2-0.4c0-0.2-0.1-0.3-0.2-0.4
							c-0.1-0.1-0.3-0.2-0.4-0.2L439.7,342.2L439.7,342.2z M439.7,344.3v3.2h0.9v0c0.2,0,0.4-0.2,0.7-0.5c0.3-0.3,0.5-0.7,0.5-1.1
							c0-0.4-0.2-0.8-0.5-1.1c-0.3-0.3-0.7-0.5-1.1-0.5H439.7z"/>
						<path class="st5" d="M446.4,341.3l2.6,7.2h-1l-0.9-2.5h-1.9l-0.9,2.5h-1l2.6-7.2H446.4z M446.8,345l-0.6-1.7l-0.6,1.7H446.8z"
							/>
						<path class="st5" d="M452.7,346.9c0,0.5-0.1,0.9-0.4,1.2c-0.3,0.3-0.6,0.4-1.1,0.4c-0.4,0-0.8-0.1-1-0.4
							c-0.3-0.3-0.4-0.7-0.4-1.2l0.7-0.3c0.1,0.5,0.2,0.7,0.3,0.8c0.1,0.1,0.2,0.1,0.4,0.1h0c0.2,0,0.3-0.1,0.4-0.2
							c0.1-0.1,0.1-0.3,0.1-0.5v-5.6h0.9V346.9z"/>
						<path class="st5" d="M456.6,341.3l2.6,7.2h-1l-0.9-2.5h-1.9l-0.9,2.5h-1l2.6-7.2H456.6z M457,345l-0.6-1.7l-0.6,1.7H457z"/>
						<path class="st5" d="M461.9,346.2H461v2.3h-0.9v-7.2h2c0.6,0.1,1.1,0.3,1.5,0.7c0.5,0.5,0.7,1,0.7,1.7c0,0.7-0.2,1.2-0.7,1.7
							c-0.3,0.3-0.6,0.5-0.8,0.6l1.6,2.4h-1.1L461.9,346.2z M461,342.2v3h0.8c0.4,0,0.8-0.1,1.1-0.4c0.3-0.3,0.4-0.6,0.4-1.1
							s-0.1-0.8-0.4-1.1c-0.3-0.3-0.6-0.4-1.1-0.4L461,342.2L461,342.2z"/>
						<path class="st5" d="M474.1,346.8l0.7,0.6c-0.8,0.8-1.7,1.2-2.7,1.2c-1,0-1.9-0.4-2.6-1.1s-1.1-1.6-1.1-2.6
							c0-1,0.4-1.9,1.1-2.6c0.7-0.7,1.6-1.1,2.6-1.1c0.9,0,1.8,0.4,2.7,1.2l-0.7,0.6c-0.6-0.6-1.3-0.9-2-0.9c-0.7,0-1.4,0.3-1.9,0.8
							s-0.8,1.2-0.8,1.9c0,0.8,0.3,1.4,0.8,1.9c0.5,0.5,1.2,0.8,1.9,0.8C472.8,347.6,473.4,347.3,474.1,346.8z"/>
						<path class="st5" d="M482,342.3c0.7,0.7,1.1,1.6,1.1,2.6c0,1-0.4,1.9-1.1,2.6c-0.7,0.7-1.6,1.1-2.6,1.1c-1,0-1.9-0.4-2.6-1.1
							c-0.7-0.7-1.1-1.6-1.1-2.6c0-1,0.4-1.9,1.1-2.6c0.7-0.7,1.6-1.1,2.6-1.1C480.4,341.2,481.3,341.6,482,342.3z M479.4,342.2
							c-0.8,0-1.4,0.3-1.9,0.8c-0.5,0.5-0.8,1.2-0.8,1.9c0,0.8,0.3,1.4,0.8,1.9c0.5,0.5,1.2,0.8,1.9,0.8c0.8,0,1.4-0.3,1.9-0.8
							c0.5-0.5,0.8-1.2,0.8-1.9c0-0.8-0.3-1.4-0.8-1.9C480.8,342.4,480.2,342.2,479.4,342.2z"/>
						<path class="st5" d="M484.3,341.3h0.8l3,5.1v-5.1h0.9v7.2h-0.8l-3-5.2v5.2h-0.9V341.3z"/>
						<path class="st5" d="M494.5,346.2v2.3h-0.9v-7.2h2c0.6,0.1,1.1,0.3,1.5,0.7c0.5,0.5,0.7,1,0.7,1.7c0,0.7-0.2,1.2-0.7,1.7
							c-0.5,0.5-1,0.7-1.7,0.7L494.5,346.2L494.5,346.2z M494.5,342.2v3h0.8c0.4,0,0.8-0.1,1.1-0.4c0.3-0.3,0.4-0.6,0.4-1.1
							s-0.1-0.8-0.4-1.1c-0.3-0.3-0.6-0.4-1.1-0.4L494.5,342.2L494.5,342.2z"/>
						<path class="st5" d="M502.5,341.3v0.9h-2.9v2.2h2.9v0.9h-2.9v2.2h2.9v0.9h-3.9v-7.2L502.5,341.3L502.5,341.3z"/>
						<path class="st5" d="M503.8,341.3h0.8l3,5.1v-5.1h0.9v7.2h-0.8l-3-5.2v5.2h-0.9V341.3z"/>
						<path class="st5" d="M511.7,344.8c-0.5-0.2-0.9-0.4-1.2-0.7c-0.3-0.3-0.5-0.7-0.5-1.2c0-0.5,0.2-0.9,0.5-1.2
							c0.3-0.3,0.7-0.5,1.2-0.5c0.5,0,0.9,0.2,1.2,0.5c0.2,0.2,0.3,0.5,0.5,0.9l-0.8,0.3c-0.1-0.3-0.2-0.5-0.3-0.5
							c-0.1-0.1-0.3-0.2-0.5-0.2c-0.2,0-0.4,0.1-0.5,0.2c-0.1,0.1-0.2,0.3-0.2,0.5s0.1,0.4,0.2,0.5c0.2,0.2,0.4,0.3,0.7,0.4
							c0.6,0.2,1,0.5,1.4,0.9c0.4,0.4,0.7,1,0.7,1.6s-0.2,1.1-0.7,1.6s-1,0.7-1.6,0.7c-0.6,0-1.1-0.2-1.6-0.7
							c-0.3-0.4-0.6-0.8-0.7-1.4l0.9-0.3c0.1,0.5,0.2,0.9,0.4,1.1c0.3,0.3,0.6,0.4,0.9,0.4c0.4,0,0.7-0.1,0.9-0.4
							c0.3-0.3,0.4-0.6,0.4-0.9c0-0.4-0.1-0.7-0.4-0.9C512.3,345.1,512,344.9,511.7,344.8z"/>
						<path class="st5" d="M515.8,341.3v7.2h-0.9v-7.2H515.8z"/>
						<path class="st5" d="M523.4,342.3c0.7,0.7,1.1,1.6,1.1,2.6c0,1-0.4,1.9-1.1,2.6c-0.7,0.7-1.6,1.1-2.6,1.1
							c-1,0-1.9-0.4-2.6-1.1c-0.7-0.7-1.1-1.6-1.1-2.6c0-1,0.4-1.9,1.1-2.6c0.7-0.7,1.6-1.1,2.6-1.1
							C521.8,341.2,522.6,341.6,523.4,342.3z M520.8,342.2c-0.8,0-1.4,0.3-1.9,0.8c-0.5,0.5-0.8,1.2-0.8,1.9c0,0.8,0.3,1.4,0.8,1.9
							c0.5,0.5,1.2,0.8,1.9,0.8c0.8,0,1.4-0.3,1.9-0.8c0.5-0.5,0.8-1.2,0.8-1.9c0-0.8-0.3-1.4-0.8-1.9
							C522.2,342.4,521.5,342.2,520.8,342.2z"/>
						<path class="st5" d="M525.7,341.3h0.8l3,5.1v-5.1h0.9v7.2h-0.8l-3-5.2v5.2h-0.9L525.7,341.3L525.7,341.3z"/>
					</g>
				</g>
			</g>
			<g>
				<g>
					<g class="st3">
						<path class="st4" d="M444.6,264.9v11.6h-2.9v-6.2c0-0.9,0-1.4-0.1-1.6s-0.2-0.3-0.4-0.4c-0.2-0.1-0.6-0.1-1.3-0.1h-0.3v-1.4
							c1.4-0.3,2.5-0.9,3.2-1.9L444.6,264.9L444.6,264.9z"/>
						<path class="st4" d="M453.2,268.8v3.9c0,0.9,0,1.5-0.1,1.9c-0.1,0.4-0.3,0.8-0.6,1.1c-0.3,0.3-0.7,0.6-1.1,0.8
							c-0.4,0.2-0.9,0.2-1.4,0.2c-0.7,0-1.3-0.1-1.7-0.2c-0.5-0.2-0.8-0.4-1.1-0.7c-0.3-0.3-0.5-0.7-0.6-1.1c-0.1-0.4-0.2-1-0.2-1.8
							v-4c0-1.1,0.1-1.9,0.3-2.4c0.2-0.5,0.5-1,1.1-1.3c0.5-0.3,1.2-0.5,2-0.5c0.6,0,1.2,0.1,1.7,0.3c0.5,0.2,0.9,0.5,1.1,0.8
							c0.2,0.3,0.4,0.7,0.5,1.1C453.2,267.3,453.2,268,453.2,268.8z M450.3,267.9c0-0.6,0-1-0.1-1.2c-0.1-0.2-0.2-0.2-0.4-0.2
							c-0.2,0-0.4,0.1-0.4,0.2c-0.1,0.2-0.1,0.5-0.1,1.1v5.7c0,0.7,0,1.1,0.1,1.2c0.1,0.1,0.2,0.2,0.4,0.2s0.4-0.1,0.4-0.2
							s0.1-0.5,0.1-1.1V267.9z"/>
						<path class="st4" d="M459,266.9v2c0,0.5,0,0.9-0.1,1.2s-0.3,0.5-0.6,0.7c-0.3,0.2-0.7,0.3-1.3,0.3c-0.6,0-1.1-0.1-1.4-0.3
							c-0.3-0.2-0.5-0.4-0.6-0.7c-0.1-0.3-0.2-0.6-0.2-1.1v-2.1c0-0.6,0.1-1,0.2-1.3c0.1-0.3,0.3-0.5,0.7-0.7s0.7-0.3,1.2-0.3
							c0.5,0,1,0.1,1.3,0.3c0.3,0.2,0.6,0.4,0.7,0.7C458.9,265.9,459,266.3,459,266.9z M457.1,266.4c0-0.3,0-0.5,0-0.6
							c0-0.1-0.1-0.1-0.3-0.1c-0.1,0-0.2,0-0.2,0.1c0,0.1-0.1,0.3-0.1,0.6v2.9c0,0.3,0,0.5,0,0.6c0,0.1,0.1,0.1,0.3,0.1
							c0.1,0,0.2,0,0.2-0.1s0.1-0.3,0.1-0.5L457.1,266.4L457.1,266.4z M462.3,264.7l-4.5,12h-1.1l4.5-12H462.3z M464.3,272.5v2
							c0,0.5,0,0.9-0.1,1.2s-0.3,0.5-0.6,0.7s-0.7,0.3-1.3,0.3c-0.6,0-1.1-0.1-1.4-0.3c-0.3-0.2-0.5-0.4-0.7-0.7s-0.2-0.6-0.2-1.1
							v-2.1c0-0.6,0.1-1,0.2-1.3s0.3-0.5,0.7-0.7c0.3-0.2,0.7-0.3,1.2-0.3c0.5,0,1,0.1,1.3,0.3c0.3,0.2,0.6,0.4,0.7,0.7
							C464.3,271.5,464.3,271.9,464.3,272.5z M462.5,272c0-0.3,0-0.5,0-0.6c0-0.1-0.1-0.1-0.3-0.1c-0.1,0-0.2,0-0.2,0.1
							c0,0.1-0.1,0.3-0.1,0.6v2.9c0,0.3,0,0.5,0,0.6c0,0.1,0.1,0.1,0.3,0.1c0.1,0,0.2,0,0.2-0.1s0-0.3,0-0.5L462.5,272L462.5,272z"
							/>
					</g>
				</g>
			</g>
			<g>
				<g>
					<g class="st3">
						<path class="st5" d="M444.1,280.3v0.9h-2.9v2.2h2.9v0.9h-2.9v2.2h2.9v0.9h-3.9v-7.2L444.1,280.3L444.1,280.3z"/>
						<path class="st5" d="M447.2,283.7c-0.5-0.2-0.9-0.4-1.2-0.7c-0.3-0.3-0.5-0.7-0.5-1.2c0-0.5,0.2-0.8,0.5-1.2
							c0.3-0.3,0.7-0.5,1.2-0.5c0.5,0,0.9,0.2,1.2,0.5c0.2,0.2,0.3,0.5,0.5,0.9l-0.8,0.3c-0.1-0.3-0.2-0.5-0.3-0.5
							c-0.1-0.1-0.3-0.2-0.5-0.2c-0.2,0-0.4,0.1-0.5,0.2c-0.1,0.1-0.2,0.3-0.2,0.5c0,0.2,0.1,0.4,0.2,0.5c0.2,0.2,0.4,0.3,0.7,0.4
							c0.6,0.2,1,0.5,1.4,0.9c0.4,0.4,0.7,1,0.7,1.6s-0.2,1.1-0.7,1.6c-0.4,0.4-1,0.7-1.6,0.7c-0.6,0-1.1-0.2-1.6-0.7
							c-0.3-0.3-0.6-0.8-0.7-1.4l0.9-0.3c0.1,0.5,0.2,0.9,0.4,1.1c0.3,0.3,0.6,0.4,0.9,0.4s0.7-0.1,0.9-0.4c0.3-0.3,0.4-0.6,0.4-0.9
							c0-0.4-0.1-0.7-0.4-0.9C447.8,284.1,447.5,283.9,447.2,283.7z"/>
						<path class="st5" d="M452.4,281.2v6.2h-0.9v-6.2h-1.7v-0.9h4.3v0.9H452.4z"/>
						<path class="st5" d="M458.9,280.3h0.9v5c-0.1,0.6-0.3,1.1-0.7,1.5c-0.5,0.5-1.1,0.7-1.7,0.7c-0.7,0-1.2-0.2-1.7-0.7
							c-0.5-0.5-0.7-1-0.7-1.7v-4.8h0.9v4.8c0,0.4,0.1,0.8,0.4,1.1c0.3,0.3,0.6,0.4,1.1,0.4c0.4,0,0.8-0.1,1.1-0.4
							c0.3-0.3,0.4-0.6,0.4-1.1L458.9,280.3L458.9,280.3z"/>
						<path class="st5" d="M461.9,280.3c1.2,0,2.1,0.3,2.7,1c0.7,0.7,1.1,1.6,1.1,2.6c0,1-0.4,1.9-1.1,2.6c-0.6,0.7-1.6,1-2.7,1
							h-0.7v-7.2L461.9,280.3L461.9,280.3z M462.1,281.2v5.3c0.7,0,1.3-0.2,1.8-0.7c0.5-0.5,0.8-1.2,0.8-1.9c0-0.8-0.3-1.4-0.8-1.9
							C463.5,281.4,462.9,281.2,462.1,281.2z"/>
						<path class="st5" d="M467.8,280.3v7.2h-0.9v-7.2H467.8z"/>
						<path class="st5" d="M471.9,280.3l2.6,7.2h-1l-0.9-2.5h-1.9l-0.9,2.5h-1l2.6-7.2H471.9z M472.3,284l-0.6-1.7L471,284H472.3z"
							/>
						<path class="st5" d="M475.4,280.3h0.8l3,5.1v-5.1h0.9v7.2h-0.8l-3-5.2v5.2h-0.9V280.3z"/>
						<path class="st5" d="M482.2,280.3c1.2,0,2.1,0.3,2.7,1c0.7,0.7,1.1,1.6,1.1,2.6c0,1-0.4,1.9-1.1,2.6c-0.6,0.7-1.6,1-2.7,1
							h-0.7v-7.2L482.2,280.3L482.2,280.3z M482.4,281.2v5.3c0.7,0,1.3-0.2,1.8-0.7c0.5-0.5,0.8-1.2,0.8-1.9c0-0.8-0.3-1.4-0.8-1.9
							C483.7,281.4,483.1,281.2,482.4,281.2z"/>
						<path class="st5" d="M493.2,281.2c0.7,0.7,1.1,1.6,1.1,2.6c0,1-0.4,1.9-1.1,2.6s-1.6,1.1-2.6,1.1c-1,0-1.9-0.4-2.6-1.1
							c-0.7-0.7-1.1-1.6-1.1-2.6c0-1,0.4-1.9,1.1-2.6c0.7-0.7,1.6-1.1,2.6-1.1C491.6,280.2,492.5,280.5,493.2,281.2z M490.6,281.1
							c-0.8,0-1.4,0.3-1.9,0.8c-0.5,0.5-0.8,1.2-0.8,1.9s0.3,1.4,0.8,1.9c0.5,0.5,1.2,0.8,1.9,0.8c0.8,0,1.4-0.3,1.9-0.8
							s0.8-1.2,0.8-1.9s-0.3-1.4-0.8-1.9S491.4,281.1,490.6,281.1z"/>
					</g>
				</g>
			</g>
			<g>
				<g>
					<g class="st3">
						<path class="st4" d="M471.3,209.6v7.6h0.8v2h-0.8v2h-2.9v-2H465v-2l2.5-7.6H471.3z M468.4,217.1v-4.9l-1.3,4.9H468.4z"/>
						<path class="st4" d="M477.4,211.5v2c0,0.5,0,0.9-0.1,1.2s-0.3,0.5-0.6,0.7c-0.3,0.2-0.7,0.3-1.3,0.3c-0.6,0-1.1-0.1-1.4-0.3
							s-0.5-0.4-0.6-0.7c-0.1-0.3-0.2-0.6-0.2-1.1v-2.1c0-0.6,0.1-1,0.2-1.3c0.1-0.3,0.3-0.5,0.7-0.7s0.7-0.3,1.2-0.3
							c0.5,0,1,0.1,1.3,0.3c0.3,0.2,0.6,0.4,0.7,0.7C477.4,210.6,477.4,211,477.4,211.5z M475.6,211c0-0.3,0-0.5,0-0.6
							c0-0.1-0.1-0.1-0.3-0.1c-0.1,0-0.2,0-0.3,0.1s-0.1,0.3-0.1,0.6v2.9c0,0.3,0,0.5,0.1,0.6c0,0.1,0.1,0.1,0.3,0.1
							c0.1,0,0.2,0,0.2-0.1c0-0.1,0.1-0.3,0.1-0.5V211z M480.8,209.3l-4.5,12h-1.1l4.5-12H480.8z M482.8,217.1v2
							c0,0.5,0,0.9-0.1,1.2s-0.3,0.5-0.6,0.7s-0.7,0.3-1.3,0.3c-0.6,0-1.1-0.1-1.4-0.3c-0.3-0.2-0.5-0.4-0.7-0.7
							c-0.1-0.3-0.2-0.6-0.2-1.1v-2.1c0-0.6,0.1-1,0.2-1.3s0.3-0.5,0.7-0.7c0.3-0.2,0.7-0.3,1.2-0.3c0.5,0,1,0.1,1.3,0.3
							c0.3,0.2,0.6,0.4,0.7,0.7C482.8,216.2,482.8,216.6,482.8,217.1z M481,216.6c0-0.3,0-0.5,0-0.6c0-0.1-0.1-0.1-0.3-0.1
							c-0.1,0-0.2,0-0.2,0.1c0,0.1-0.1,0.3-0.1,0.6v2.9c0,0.3,0,0.5,0.1,0.6c0,0.1,0.1,0.1,0.3,0.1c0.1,0,0.2,0,0.2-0.1
							c0-0.1,0-0.3,0-0.5V216.6z"/>
					</g>
				</g>
			</g>
			<g>
				<g>
					<g class="st3">
						<path class="st5" d="M467,224.9c0.4,0,0.8,0.1,1.1,0.4s0.4,0.6,0.4,1.1c0,0.4-0.2,0.7-0.6,0.8c0.3,0,0.7,0.3,1.1,0.7
							c0.4,0.4,0.6,0.9,0.6,1.6s-0.2,1.3-0.7,1.8c-0.5,0.5-0.9,0.7-1.4,0.7v0h-1.8v-7.2L467,224.9L467,224.9z M466.5,225.8v1.1h0.6
							c0.1,0,0.3-0.1,0.4-0.2c0.1-0.1,0.2-0.2,0.2-0.4s-0.1-0.3-0.2-0.4c-0.1-0.1-0.3-0.2-0.4-0.2L466.5,225.8L466.5,225.8z
							 M466.5,227.9v3.2h0.9v0c0.2,0,0.4-0.2,0.7-0.5c0.3-0.3,0.5-0.7,0.5-1.1c0-0.4-0.2-0.8-0.5-1.1c-0.3-0.3-0.7-0.5-1.1-0.5
							L466.5,227.9L466.5,227.9z"/>
						<path class="st5" d="M474.5,224.9h0.9v5c-0.1,0.6-0.3,1.1-0.7,1.5c-0.5,0.5-1.1,0.7-1.7,0.7c-0.7,0-1.2-0.2-1.7-0.7
							s-0.7-1-0.7-1.7v-4.8h0.9v4.8c0,0.4,0.1,0.8,0.4,1.1c0.3,0.3,0.6,0.4,1.1,0.4c0.4,0,0.8-0.1,1.1-0.4c0.3-0.3,0.4-0.6,0.4-1.1
							L474.5,224.9L474.5,224.9z"/>
						<path class="st5" d="M478.6,228.4c-0.5-0.2-0.9-0.4-1.2-0.7c-0.3-0.3-0.5-0.7-0.5-1.2c0-0.5,0.2-0.8,0.5-1.2
							c0.3-0.3,0.7-0.5,1.2-0.5c0.5,0,0.9,0.2,1.2,0.5c0.2,0.2,0.3,0.5,0.5,0.9l-0.8,0.3c-0.1-0.3-0.2-0.5-0.3-0.5
							c-0.1-0.1-0.3-0.2-0.5-0.2c-0.2,0-0.4,0.1-0.5,0.2c-0.1,0.1-0.2,0.3-0.2,0.5c0,0.2,0.1,0.4,0.2,0.5c0.2,0.2,0.4,0.3,0.7,0.4
							c0.6,0.2,1,0.5,1.4,0.9c0.4,0.4,0.7,1,0.7,1.6s-0.2,1.1-0.7,1.6c-0.4,0.4-1,0.7-1.6,0.7c-0.6,0-1.1-0.2-1.6-0.7
							c-0.3-0.3-0.6-0.8-0.7-1.4l0.9-0.3c0.1,0.5,0.2,0.9,0.4,1.1c0.3,0.3,0.6,0.4,0.9,0.4s0.7-0.1,0.9-0.4c0.3-0.3,0.4-0.6,0.4-0.9
							c0-0.4-0.1-0.7-0.4-0.9C479.3,228.7,479,228.5,478.6,228.4z"/>
						<path class="st5" d="M487.3,230.4l0.7,0.6c-0.8,0.8-1.7,1.2-2.7,1.2c-1,0-1.9-0.4-2.6-1.1s-1.1-1.6-1.1-2.6
							c0-1,0.4-1.9,1.1-2.6s1.6-1.1,2.6-1.1c0.9,0,1.8,0.4,2.7,1.2l-0.7,0.6c-0.6-0.6-1.3-0.9-2-0.9c-0.7,0-1.4,0.3-1.9,0.8
							c-0.5,0.5-0.8,1.2-0.8,1.9c0,0.8,0.3,1.4,0.8,1.9c0.5,0.5,1.2,0.8,1.9,0.8C486,231.2,486.6,230.9,487.3,230.4z"/>
						<path class="st5" d="M491.6,224.9l2.6,7.2h-1l-0.9-2.5h-1.9l-0.9,2.5h-1l2.6-7.2H491.6z M491.9,228.6l-0.6-1.7l-0.6,1.7H491.9
							z"/>
						<path class="st5" d="M495.1,224.9h0.8l3,5.1v-5.1h0.9v7.2H499l-3-5.2v5.2h-0.9V224.9z"/>
						<path class="st5" d="M501.8,224.9c1.2,0,2.1,0.3,2.7,1c0.7,0.7,1.1,1.6,1.1,2.6c0,1-0.4,1.9-1.1,2.6c-0.6,0.7-1.6,1-2.7,1
							h-0.7v-7.2L501.8,224.9L501.8,224.9z M502.1,225.9v5.3c0.7,0,1.3-0.2,1.8-0.7c0.5-0.5,0.8-1.2,0.8-1.9c0-0.8-0.3-1.4-0.8-1.9
							C503.4,226.1,502.8,225.9,502.1,225.9z"/>
						<path class="st5" d="M512.9,225.9c0.7,0.7,1.1,1.6,1.1,2.6c0,1-0.4,1.9-1.1,2.6c-0.7,0.7-1.6,1.1-2.6,1.1
							c-1,0-1.9-0.4-2.6-1.1s-1.1-1.6-1.1-2.6c0-1,0.4-1.9,1.1-2.6s1.6-1.1,2.6-1.1C511.3,224.8,512.2,225.2,512.9,225.9z
							 M510.3,225.8c-0.8,0-1.4,0.3-1.9,0.8s-0.8,1.2-0.8,1.9s0.3,1.4,0.8,1.9c0.5,0.5,1.2,0.8,1.9,0.8c0.8,0,1.4-0.3,1.9-0.8
							c0.5-0.5,0.8-1.2,0.8-1.9s-0.3-1.4-0.8-1.9C511.7,226,511,225.8,510.3,225.8z"/>
						<path class="st5" d="M520.4,225.8v6.2h-0.9v-6.2h-1.7v-0.9h4.3v0.9H520.4z"/>
						<path class="st5" d="M524.7,229.8h-0.8v2.3H523v-7.2h2c0.6,0.1,1.1,0.3,1.5,0.7c0.5,0.5,0.7,1.1,0.7,1.7
							c0,0.7-0.2,1.2-0.7,1.7c-0.3,0.3-0.6,0.5-0.8,0.6l1.6,2.4h-1.1L524.7,229.8z M523.9,225.8v3h0.8c0.4,0,0.8-0.1,1.1-0.4
							c0.3-0.3,0.4-0.6,0.4-1.1c0-0.4-0.1-0.8-0.4-1.1c-0.3-0.3-0.6-0.4-1.1-0.4L523.9,225.8L523.9,225.8z"/>
						<path class="st5" d="M530.8,224.9l2.6,7.2h-1l-0.9-2.5h-1.9l-0.9,2.5h-1l2.6-7.2H530.8z M531.2,228.6l-0.6-1.7l-0.6,1.7H531.2
							z"/>
						<path class="st5" d="M535.8,224.9c0.4,0,0.8,0.1,1.1,0.4s0.4,0.6,0.4,1.1c0,0.4-0.2,0.7-0.6,0.8c0.3,0,0.7,0.3,1.1,0.7
							s0.6,0.9,0.6,1.6s-0.2,1.3-0.7,1.8c-0.5,0.5-0.9,0.7-1.4,0.7v0h-1.8v-7.2L535.8,224.9L535.8,224.9z M535.3,225.8v1.1h0.6
							c0.1,0,0.3-0.1,0.4-0.2c0.1-0.1,0.2-0.2,0.2-0.4s-0.1-0.3-0.2-0.4c-0.1-0.1-0.3-0.2-0.4-0.2L535.3,225.8L535.3,225.8z
							 M535.3,227.9v3.2h0.9v0c0.2,0,0.4-0.2,0.7-0.5c0.3-0.3,0.5-0.7,0.5-1.1c0-0.4-0.2-0.8-0.5-1.1c-0.3-0.3-0.7-0.5-1.1-0.5
							L535.3,227.9L535.3,227.9z"/>
						<path class="st5" d="M542,224.9l2.6,7.2h-1l-0.9-2.5h-1.9l-0.9,2.5h-1l2.6-7.2H542z M542.4,228.6l-0.6-1.7l-0.6,1.7H542.4z"/>
						<path class="st5" d="M548.3,230.5c0,0.5-0.1,0.9-0.4,1.2c-0.3,0.3-0.6,0.4-1.1,0.4c-0.4,0-0.8-0.1-1-0.4s-0.4-0.7-0.4-1.2
							l0.7-0.3c0.1,0.5,0.2,0.7,0.3,0.8c0.1,0.1,0.2,0.1,0.4,0.1h0c0.2,0,0.3-0.1,0.4-0.2c0.1-0.1,0.1-0.3,0.1-0.5v-5.6h0.9V230.5z"
							/>
						<path class="st5" d="M555.8,225.9c0.7,0.7,1.1,1.6,1.1,2.6c0,1-0.4,1.9-1.1,2.6s-1.6,1.1-2.6,1.1c-1,0-1.9-0.4-2.6-1.1
							c-0.7-0.7-1.1-1.6-1.1-2.6c0-1,0.4-1.9,1.1-2.6c0.7-0.7,1.6-1.1,2.6-1.1C554.3,224.8,555.1,225.2,555.8,225.9z M553.2,225.8
							c-0.8,0-1.4,0.3-1.9,0.8c-0.5,0.5-0.8,1.2-0.8,1.9s0.3,1.4,0.8,1.9c0.5,0.5,1.2,0.8,1.9,0.8c0.8,0,1.4-0.3,1.9-0.8
							s0.8-1.2,0.8-1.9s-0.3-1.4-0.8-1.9S554,225.8,553.2,225.8z"/>
					</g>
				</g>
			</g>
			<g>
				<g>
					<g class="st3">
						<path class="st4" d="M420.8,91.4v3.9c0,0.9,0,1.5-0.1,1.9c-0.1,0.4-0.3,0.8-0.6,1.1c-0.3,0.3-0.7,0.6-1.1,0.8
							c-0.4,0.2-0.9,0.2-1.4,0.2c-0.7,0-1.3-0.1-1.7-0.2c-0.5-0.2-0.8-0.4-1.1-0.7c-0.3-0.3-0.5-0.7-0.6-1.1c-0.1-0.4-0.2-1-0.2-1.8
							v-4c0-1.1,0.1-1.9,0.3-2.4c0.2-0.5,0.5-1,1.1-1.3c0.5-0.3,1.2-0.5,2-0.5c0.6,0,1.2,0.1,1.7,0.3c0.5,0.2,0.9,0.5,1.1,0.8
							c0.2,0.3,0.4,0.7,0.5,1.1C420.7,89.9,420.8,90.5,420.8,91.4z M417.9,90.4c0-0.6,0-1-0.1-1.2c-0.1-0.2-0.2-0.2-0.4-0.2
							c-0.2,0-0.4,0.1-0.4,0.2c-0.1,0.2-0.1,0.5-0.1,1.1v5.7c0,0.7,0,1.1,0.1,1.2c0.1,0.1,0.2,0.2,0.4,0.2s0.4-0.1,0.4-0.2
							s0.1-0.5,0.1-1.1V90.4z"/>
						<path class="st4" d="M426.5,89.5v2c0,0.5,0,0.9-0.1,1.2s-0.3,0.5-0.6,0.7c-0.3,0.2-0.7,0.3-1.3,0.3c-0.6,0-1.1-0.1-1.4-0.3
							c-0.3-0.2-0.5-0.4-0.6-0.7c-0.1-0.3-0.2-0.6-0.2-1.1v-2.1c0-0.6,0.1-1,0.2-1.3c0.1-0.3,0.3-0.5,0.7-0.7s0.7-0.3,1.2-0.3
							c0.5,0,1,0.1,1.3,0.3c0.3,0.2,0.6,0.4,0.7,0.7C426.5,88.5,426.5,88.9,426.5,89.5z M424.7,89c0-0.3,0-0.5,0-0.6
							c0-0.1-0.1-0.1-0.3-0.1c-0.1,0-0.2,0-0.2,0.1c0,0.1-0.1,0.3-0.1,0.6v2.9c0,0.3,0,0.5,0,0.6c0,0.1,0.1,0.1,0.3,0.1
							c0.1,0,0.2,0,0.2-0.1s0.1-0.3,0.1-0.5L424.7,89L424.7,89z M429.9,87.3l-4.5,12h-1.1l4.5-12H429.9z M431.9,95.1v2
							c0,0.5,0,0.9-0.1,1.2s-0.3,0.5-0.6,0.7s-0.7,0.3-1.3,0.3c-0.6,0-1.1-0.1-1.4-0.3c-0.3-0.2-0.5-0.4-0.7-0.7s-0.2-0.6-0.2-1.1
							v-2.1c0-0.6,0.1-1,0.2-1.3s0.3-0.5,0.7-0.7c0.3-0.2,0.7-0.3,1.2-0.3c0.5,0,1,0.1,1.3,0.3c0.3,0.2,0.6,0.4,0.7,0.7
							C431.9,94.1,431.9,94.5,431.9,95.1z M430.1,94.6c0-0.3,0-0.5,0-0.6c0-0.1-0.1-0.1-0.3-0.1c-0.1,0-0.2,0-0.2,0.1
							c0,0.1-0.1,0.3-0.1,0.6v2.9c0,0.3,0,0.5,0,0.6c0,0.1,0.1,0.1,0.3,0.1c0.1,0,0.2,0,0.2-0.1s0-0.3,0-0.5L430.1,94.6L430.1,94.6z
							"/>
					</g>
				</g>
			</g>
			<g>
				<g>
					<g class="st3">
						<path class="st5" d="M415.9,107.7H415v2.3h-0.9v-7.2h2c0.6,0.1,1.1,0.3,1.5,0.7c0.5,0.5,0.7,1.1,0.7,1.7
							c0,0.7-0.2,1.2-0.7,1.7c-0.3,0.3-0.6,0.5-0.8,0.6l1.6,2.4h-1.1L415.9,107.7z M415,103.8v3h0.8c0.4,0,0.8-0.1,1.1-0.4
							c0.3-0.3,0.4-0.6,0.4-1.1c0-0.4-0.1-0.8-0.4-1.1c-0.3-0.3-0.6-0.4-1.1-0.4L415,103.8L415,103.8z"/>
						<path class="st5" d="M423.2,102.8v0.9h-2.9v2.2h2.9v0.9h-2.9v2.2h2.9v0.9h-3.9v-7.2L423.2,102.8L423.2,102.8z"/>
						<path class="st5" d="M430,108.3l0.7,0.6c-0.8,0.8-1.7,1.2-2.7,1.2c-1,0-1.9-0.4-2.6-1.1s-1.1-1.6-1.1-2.6c0-1,0.4-1.9,1.1-2.6
							s1.6-1.1,2.6-1.1c0.9,0,1.8,0.4,2.7,1.2l-0.7,0.6c-0.6-0.6-1.3-0.8-2-0.8c-0.7,0-1.4,0.3-1.9,0.8c-0.5,0.5-0.8,1.2-0.8,1.9
							c0,0.8,0.3,1.4,0.8,1.9c0.5,0.5,1.2,0.8,1.9,0.8C428.7,109.1,429.3,108.9,430,108.3z"/>
						<path class="st5" d="M432.8,102.8v7.2h-0.9v-7.2H432.8z"/>
						<path class="st5" d="M435.7,102.8c0.4,0,0.8,0.1,1.1,0.4s0.4,0.6,0.4,1.1c0,0.4-0.2,0.7-0.6,0.8c0.3,0,0.7,0.3,1.1,0.7
							c0.4,0.4,0.6,0.9,0.6,1.6s-0.2,1.3-0.7,1.8c-0.5,0.5-0.9,0.7-1.4,0.7v0h-1.8v-7.2L435.7,102.8L435.7,102.8z M435.2,103.8v1.1
							h0.6c0.1,0,0.3-0.1,0.4-0.2c0.1-0.1,0.2-0.2,0.2-0.4s-0.1-0.3-0.2-0.4c-0.1-0.1-0.3-0.2-0.4-0.2L435.2,103.8L435.2,103.8z
							 M435.2,105.9v3.2h0.9v0c0.2,0,0.4-0.2,0.7-0.5c0.3-0.3,0.5-0.7,0.5-1.1c0-0.4-0.2-0.8-0.5-1.1s-0.7-0.5-1.1-0.5H435.2z"/>
						<path class="st5" d="M440.3,102.8v7.2h-0.9v-7.2H440.3z"/>
						<path class="st5" d="M445.6,102.8v0.9h-2.9v2.2h2.9v0.9h-2.9v2.2h2.9v0.9h-3.9v-7.2L445.6,102.8L445.6,102.8z"/>
						<path class="st5" d="M446.8,102.8h0.8l3,5.1v-5.1h0.9v7.2h-0.8l-3-5.2v5.2h-0.9V102.8z"/>
						<path class="st5" d="M453.6,102.8c1.2,0,2.1,0.3,2.7,1c0.7,0.7,1.1,1.6,1.1,2.6c0,1-0.4,1.9-1.1,2.6c-0.6,0.7-1.6,1-2.7,1
							h-0.7v-7.2C452.9,102.8,453.6,102.8,453.6,102.8z M453.8,103.8v5.3c0.7,0,1.3-0.2,1.8-0.7c0.5-0.5,0.8-1.2,0.8-1.9
							c0-0.8-0.3-1.4-0.8-1.9C455.2,104,454.5,103.8,453.8,103.8z"/>
						<path class="st5" d="M464.6,103.8c0.7,0.7,1.1,1.6,1.1,2.6c0,1-0.4,1.9-1.1,2.6s-1.6,1.1-2.6,1.1s-1.9-0.4-2.6-1.1
							c-0.7-0.7-1.1-1.6-1.1-2.6c0-1,0.4-1.9,1.1-2.6c0.7-0.7,1.6-1.1,2.6-1.1S463.9,103.1,464.6,103.8z M462,103.7
							c-0.8,0-1.4,0.3-1.9,0.8c-0.5,0.5-0.8,1.2-0.8,1.9s0.3,1.4,0.8,1.9c0.5,0.5,1.2,0.8,1.9,0.8c0.8,0,1.4-0.3,1.9-0.8
							s0.8-1.2,0.8-1.9s-0.3-1.4-0.8-1.9S462.8,103.7,462,103.7z"/>
						<path class="st5" d="M415.9,118.7H415v2.3h-0.9v-7.2h2c0.6,0.1,1.1,0.3,1.5,0.7c0.5,0.5,0.7,1.1,0.7,1.7
							c0,0.7-0.2,1.2-0.7,1.7c-0.3,0.3-0.6,0.5-0.8,0.6l1.6,2.4h-1.1L415.9,118.7z M415,114.8v3h0.8c0.4,0,0.8-0.1,1.1-0.4
							c0.3-0.3,0.4-0.6,0.4-1.1c0-0.4-0.1-0.8-0.4-1.1c-0.3-0.3-0.6-0.4-1.1-0.4L415,114.8L415,114.8z"/>
						<path class="st5" d="M423.2,113.8v0.9h-2.9v2.2h2.9v0.9h-2.9v2.2h2.9v0.9h-3.9v-7.2L423.2,113.8L423.2,113.8z"/>
						<path class="st5" d="M424.4,113.8h0.8l3,5.1v-5.1h0.9v7.2h-0.8l-3-5.2v5.2h-0.9V113.8z"/>
						<path class="st5" d="M432.7,114.8v6.2h-0.9v-6.2h-1.7v-0.9h4.3v0.9H432.7z"/>
						<path class="st5" d="M437.6,113.8l2.6,7.2h-1l-0.9-2.5h-1.9l-0.9,2.5h-1l2.6-7.2H437.6z M437.9,117.5l-0.6-1.7l-0.6,1.7H437.9
							z"/>
					</g>
				</g>
			</g>
			<g>
				<g>
					<g class="st3">
						<path class="st4" d="M345.1,45.5v11.6h-2.9v-6.2c0-0.9,0-1.4-0.1-1.6s-0.2-0.3-0.4-0.4c-0.2-0.1-0.6-0.1-1.3-0.1h-0.3v-1.4
							c1.4-0.3,2.5-0.9,3.2-1.9H345.1z"/>
						<path class="st4" d="M352,45.5V48l-1.8,9.1h-2.9l2.1-9.5h-2.9v-2.1L352,45.5L352,45.5z"/>
						<path class="st4" d="M357.4,47.5v2c0,0.5,0,0.9-0.1,1.2c-0.1,0.3-0.3,0.5-0.6,0.7s-0.7,0.3-1.3,0.3c-0.6,0-1.1-0.1-1.4-0.3
							c-0.3-0.2-0.5-0.4-0.6-0.7s-0.2-0.6-0.2-1.1v-2.1c0-0.6,0.1-1,0.2-1.3s0.3-0.5,0.7-0.7s0.7-0.3,1.2-0.3c0.5,0,1,0.1,1.3,0.3
							c0.3,0.2,0.6,0.4,0.7,0.7C357.3,46.5,357.4,46.9,357.4,47.5z M355.5,47c0-0.3,0-0.5,0-0.6c0-0.1-0.1-0.1-0.3-0.1
							c-0.1,0-0.2,0-0.3,0.1c0,0.1-0.1,0.3-0.1,0.6v2.9c0,0.3,0,0.5,0.1,0.6c0,0.1,0.1,0.1,0.3,0.1c0.1,0,0.2,0,0.2-0.1
							c0-0.1,0.1-0.3,0.1-0.5L355.5,47L355.5,47z M360.7,45.3l-4.5,12h-1.1l4.5-12H360.7z M362.7,53.1v2c0,0.5,0,0.9-0.1,1.2
							s-0.3,0.5-0.6,0.7c-0.3,0.2-0.7,0.3-1.3,0.3c-0.6,0-1.1-0.1-1.4-0.3c-0.3-0.2-0.5-0.4-0.7-0.7c-0.1-0.3-0.2-0.6-0.2-1.1v-2.1
							c0-0.6,0.1-1,0.2-1.3c0.1-0.3,0.3-0.5,0.7-0.7c0.3-0.2,0.7-0.3,1.2-0.3c0.5,0,1,0.1,1.3,0.3c0.3,0.2,0.6,0.4,0.7,0.7
							C362.7,52.1,362.7,52.5,362.7,53.1z M360.9,52.6c0-0.3,0-0.5,0-0.6s-0.1-0.1-0.3-0.1c-0.1,0-0.2,0-0.2,0.1s-0.1,0.3-0.1,0.6
							v2.9c0,0.3,0,0.5,0.1,0.6c0,0.1,0.1,0.1,0.3,0.1c0.1,0,0.2,0,0.2-0.1c0-0.1,0.1-0.3,0.1-0.5V52.6z"/>
					</g>
				</g>
			</g>
			<g>
				<g>
					<g class="st3">
						<path class="st5" d="M346.9,61.8c0.7,0.7,1.1,1.6,1.1,2.6c0,1-0.4,1.9-1.1,2.6c-0.7,0.7-1.6,1.1-2.6,1.1c-1,0-1.9-0.4-2.6-1.1
							s-1.1-1.6-1.1-2.6c0-1,0.4-1.9,1.1-2.6s1.6-1.1,2.6-1.1C345.3,60.7,346.2,61.1,346.9,61.8z M344.3,61.7
							c-0.8,0-1.4,0.3-1.9,0.8s-0.8,1.2-0.8,1.9s0.3,1.4,0.8,1.9c0.5,0.5,1.2,0.8,1.9,0.8c0.8,0,1.4-0.3,1.9-0.8
							c0.5-0.5,0.8-1.2,0.8-1.9s-0.3-1.4-0.8-1.9C345.7,61.9,345.1,61.7,344.3,61.7z"/>
						<path class="st5" d="M352.7,60.8v0.9h-2.5V64h2.5v0.9h-2.5V68h-0.9v-7.2C349.2,60.8,352.7,60.8,352.7,60.8z"/>
						<path class="st5" d="M354.9,60.8V68H354v-7.2H354.9z"/>
						<path class="st5" d="M361.9,66.3l0.7,0.6c-0.8,0.8-1.7,1.2-2.7,1.2c-1,0-1.9-0.4-2.6-1.1s-1.1-1.6-1.1-2.6
							c0-1,0.4-1.9,1.1-2.6s1.6-1.1,2.6-1.1c0.9,0,1.8,0.4,2.7,1.2l-0.7,0.6c-0.6-0.6-1.3-0.8-2-0.8c-0.7,0-1.4,0.3-1.9,0.8
							c-0.5,0.5-0.8,1.2-0.8,1.9c0,0.8,0.3,1.4,0.8,1.9c0.5,0.5,1.2,0.8,1.9,0.8C360.6,67.1,361.3,66.9,361.9,66.3z"/>
						<path class="st5" d="M364.7,60.8V68h-0.9v-7.2H364.7z"/>
						<path class="st5" d="M372.3,61.8c0.7,0.7,1.1,1.6,1.1,2.6c0,1-0.4,1.9-1.1,2.6c-0.7,0.7-1.6,1.1-2.6,1.1c-1,0-1.9-0.4-2.6-1.1
							s-1.1-1.6-1.1-2.6c0-1,0.4-1.9,1.1-2.6s1.6-1.1,2.6-1.1C370.7,60.7,371.6,61.1,372.3,61.8z M369.7,61.7
							c-0.8,0-1.4,0.3-1.9,0.8s-0.8,1.2-0.8,1.9s0.3,1.4,0.8,1.9s1.2,0.8,1.9,0.8c0.8,0,1.4-0.3,1.9-0.8c0.5-0.5,0.8-1.2,0.8-1.9
							s-0.3-1.4-0.8-1.9C371.1,61.9,370.5,61.7,369.7,61.7z"/>
						<path class="st5" d="M376.4,64.3c-0.5-0.2-0.9-0.4-1.2-0.7c-0.3-0.3-0.5-0.7-0.5-1.2c0-0.5,0.2-0.8,0.5-1.2
							c0.3-0.3,0.7-0.5,1.2-0.5c0.5,0,0.9,0.2,1.2,0.5c0.2,0.2,0.3,0.5,0.5,0.9l-0.8,0.3c-0.1-0.3-0.2-0.5-0.3-0.5
							c-0.1-0.1-0.3-0.2-0.5-0.2c-0.2,0-0.4,0.1-0.5,0.2c-0.1,0.1-0.2,0.3-0.2,0.5c0,0.2,0.1,0.4,0.2,0.5c0.2,0.2,0.4,0.3,0.7,0.4
							c0.6,0.2,1,0.5,1.4,0.9c0.4,0.4,0.7,1,0.7,1.6s-0.2,1.1-0.7,1.6c-0.4,0.4-1,0.7-1.6,0.7c-0.6,0-1.1-0.2-1.6-0.7
							c-0.3-0.3-0.6-0.8-0.7-1.4l0.9-0.3c0.1,0.5,0.2,0.9,0.4,1.1c0.3,0.3,0.6,0.4,0.9,0.4c0.4,0,0.7-0.1,0.9-0.4
							c0.3-0.3,0.4-0.6,0.4-0.9c0-0.4-0.1-0.7-0.4-0.9C377.1,64.7,376.8,64.5,376.4,64.3z"/>
						<path class="st5" d="M341.5,71.8c1.2,0,2.1,0.3,2.7,1c0.7,0.7,1.1,1.6,1.1,2.6c0,1-0.4,1.9-1.1,2.6c-0.6,0.7-1.6,1-2.7,1h-0.7
							v-7.2C340.8,71.8,341.5,71.8,341.5,71.8z M341.7,72.8v5.3c0.7,0,1.3-0.2,1.8-0.7c0.5-0.5,0.8-1.2,0.8-1.9
							c0-0.8-0.3-1.4-0.8-1.9C343,73,342.4,72.8,341.7,72.8z"/>
						<path class="st5" d="M350.2,71.8v0.9h-2.9v2.2h2.9v0.9h-2.9v2.2h2.9V79h-3.9v-7.2L350.2,71.8L350.2,71.8z"/>
						<path class="st5" d="M351.5,79v-7.2h0.9v6.2h2.6V79L351.5,79L351.5,79z"/>
						<path class="st5" d="M360.1,76v3h-0.9v-7.2h0.9v3.3h2.2v-3.3h0.9V79h-0.9v-3H360.1z"/>
						<path class="st5" d="M370.7,72.8c0.7,0.7,1.1,1.6,1.1,2.6c0,1-0.4,1.9-1.1,2.6s-1.6,1.1-2.6,1.1c-1,0-1.9-0.4-2.6-1.1
							c-0.7-0.7-1.1-1.6-1.1-2.6c0-1,0.4-1.9,1.1-2.6c0.7-0.7,1.6-1.1,2.6-1.1C369.2,71.7,370,72.1,370.7,72.8z M368.1,72.7
							c-0.8,0-1.4,0.3-1.9,0.8c-0.5,0.5-0.8,1.2-0.8,1.9s0.3,1.4,0.8,1.9c0.5,0.5,1.2,0.8,1.9,0.8c0.8,0,1.4-0.3,1.9-0.8
							s0.8-1.2,0.8-1.9s-0.3-1.4-0.8-1.9S368.9,72.7,368.1,72.7z"/>
						<path class="st5" d="M379.1,78c-0.7,0.7-1.6,1.1-2.5,1.1c-1,0-1.9-0.4-2.6-1.1s-1.1-1.6-1.1-2.6c0-1,0.4-1.9,1.1-2.6
							s1.6-1.1,2.6-1.1c0.9,0,1.8,0.4,2.7,1.2l-0.7,0.6c-0.6-0.6-1.3-0.8-2-0.8c-0.7,0-1.4,0.3-1.9,0.8c-0.5,0.5-0.8,1.2-0.8,1.9
							c0,0.8,0.3,1.4,0.8,1.9c0.5,0.5,1.2,0.8,1.9,0.8c0.6,0,1.2-0.2,1.6-0.5v-2.2h0.9L379.1,78L379.1,78z"/>
						<path class="st5" d="M383.2,71.8l2.6,7.2h-1l-0.9-2.5H382L381,79h-1l2.6-7.2H383.2z M383.5,75.5l-0.6-1.7l-0.6,1.7H383.5z"/>
						<path class="st5" d="M388.4,76.7h-0.8V79h-0.9v-7.2h2c0.6,0.1,1.1,0.3,1.5,0.7c0.5,0.5,0.7,1.1,0.7,1.7c0,0.7-0.2,1.2-0.7,1.7
							c-0.3,0.3-0.6,0.5-0.8,0.6L391,79h-1.1L388.4,76.7z M387.6,72.8v3h0.8c0.4,0,0.8-0.1,1.1-0.4c0.3-0.3,0.4-0.6,0.4-1.1
							c0-0.4-0.1-0.8-0.4-1.1c-0.3-0.3-0.6-0.4-1.1-0.4L387.6,72.8L387.6,72.8z"/>
					</g>
				</g>
			</g>
			<g>
				<g>
					<g class="st3">
						<path class="st4" d="M281,44.2v2h-6.4l0-1.7c1.9-3.1,3-5,3.4-5.7c0.4-0.7,0.5-1.3,0.5-1.7c0-0.3-0.1-0.5-0.2-0.7
							s-0.3-0.2-0.5-0.2s-0.4,0.1-0.5,0.3c-0.1,0.2-0.2,0.5-0.2,1v1.1h-2.6v-0.4c0-0.6,0-1.2,0.1-1.5c0.1-0.4,0.2-0.7,0.5-1.1
							c0.3-0.4,0.6-0.6,1-0.8c0.4-0.2,0.9-0.3,1.5-0.3c1.1,0,2,0.3,2.6,0.9c0.6,0.6,0.9,1.3,0.9,2.2c0,0.7-0.2,1.4-0.5,2.1
							c-0.3,0.7-1.3,2.3-2.9,4.7L281,44.2L281,44.2z"/>
						<path class="st4" d="M286.8,36.6v2c0,0.5,0,0.9-0.1,1.2c-0.1,0.3-0.3,0.5-0.6,0.7s-0.7,0.3-1.3,0.3c-0.6,0-1.1-0.1-1.4-0.3
							c-0.3-0.2-0.5-0.4-0.6-0.7s-0.2-0.6-0.2-1.1v-2.1c0-0.6,0.1-1,0.2-1.3s0.3-0.5,0.7-0.7s0.7-0.3,1.2-0.3c0.5,0,1,0.1,1.3,0.3
							c0.3,0.2,0.6,0.4,0.7,0.7C286.8,35.6,286.8,36,286.8,36.6z M285,36.1c0-0.3,0-0.5,0-0.6c0-0.1-0.1-0.1-0.3-0.1
							c-0.1,0-0.2,0-0.3,0.1c0,0.1-0.1,0.3-0.1,0.6V39c0,0.3,0,0.5,0.1,0.6c0,0.1,0.1,0.1,0.3,0.1c0.1,0,0.2,0,0.2-0.1
							c0-0.1,0.1-0.3,0.1-0.5L285,36.1L285,36.1z M290.2,34.4l-4.5,12h-1.1l4.5-12H290.2z M292.2,42.2v2c0,0.5,0,0.9-0.1,1.2
							s-0.3,0.5-0.6,0.7c-0.3,0.2-0.7,0.3-1.3,0.3c-0.6,0-1.1-0.1-1.4-0.3c-0.3-0.2-0.5-0.4-0.7-0.7c-0.1-0.3-0.2-0.6-0.2-1.1v-2.1
							c0-0.6,0.1-1,0.2-1.3c0.1-0.3,0.3-0.5,0.7-0.7c0.3-0.2,0.7-0.3,1.2-0.3c0.5,0,1,0.1,1.3,0.3c0.3,0.2,0.6,0.4,0.7,0.7
							C292.1,41.2,292.2,41.6,292.2,42.2z M290.4,41.7c0-0.3,0-0.5,0-0.6s-0.1-0.1-0.3-0.1c-0.1,0-0.2,0-0.2,0.1s-0.1,0.3-0.1,0.6
							v2.9c0,0.3,0,0.5,0.1,0.6c0,0.1,0.1,0.1,0.3,0.1c0.1,0,0.2,0,0.2-0.1c0-0.1,0.1-0.3,0.1-0.5V41.7z"/>
					</g>
				</g>
			</g>
			<g>
				<g>
					<g class="st3">
						<path class="st5" d="M277.6,49.9l2.6,7.2h-1l-0.9-2.5h-1.9l-0.9,2.5h-1l2.6-7.2H277.6z M277.9,53.6l-0.6-1.7l-0.6,1.7H277.9z"
							/>
						<path class="st5" d="M286.4,55.4l0.7,0.6c-0.8,0.8-1.7,1.2-2.7,1.2c-1,0-1.9-0.4-2.6-1.1s-1.1-1.6-1.1-2.6
							c0-1,0.4-1.9,1.1-2.6s1.6-1.1,2.6-1.1c0.9,0,1.8,0.4,2.7,1.2l-0.7,0.6c-0.6-0.6-1.3-0.8-2-0.8c-0.7,0-1.4,0.3-1.9,0.8
							c-0.5,0.5-0.8,1.2-0.8,1.9c0,0.8,0.3,1.4,0.8,1.9c0.5,0.5,1.2,0.8,1.9,0.8C285.1,56.2,285.8,55.9,286.4,55.4z"/>
						<path class="st5" d="M290.4,50.9v6.2h-0.9v-6.2h-1.7v-0.9h4.3v0.9H290.4z"/>
						<path class="st5" d="M294,49.9v7.2H293v-7.2H294z"/>
						<path class="st5" d="M297.6,57.1l-2.6-7.2h1l1.9,5.1l1.9-5.1h1l-2.6,7.2H297.6z"/>
						<path class="st5" d="M302.6,49.9v7.2h-0.9v-7.2H302.6z"/>
						<path class="st5" d="M304.7,49.9c1.2,0,2.1,0.3,2.7,1c0.7,0.7,1.1,1.6,1.1,2.6c0,1-0.4,1.9-1.1,2.6c-0.6,0.7-1.6,1-2.7,1H304
							v-7.2C304,49.9,304.7,49.9,304.7,49.9z M304.9,50.9v5.3c0.7,0,1.3-0.2,1.8-0.7c0.5-0.5,0.8-1.2,0.8-1.9c0-0.8-0.3-1.4-0.8-1.9
							C306.3,51.1,305.7,50.9,304.9,50.9z"/>
						<path class="st5" d="M312,49.9l2.6,7.2h-1l-0.9-2.5h-1.9l-0.9,2.5h-1l2.6-7.2H312z M312.4,53.6l-0.6-1.7l-0.6,1.7H312.4z"/>
						<path class="st5" d="M316.2,49.9c1.2,0,2.1,0.3,2.7,1c0.7,0.7,1.1,1.6,1.1,2.6c0,1-0.4,1.9-1.1,2.6c-0.6,0.7-1.6,1-2.7,1h-0.7
							v-7.2C315.5,49.9,316.2,49.9,316.2,49.9z M316.5,50.9v5.3c0.7,0,1.3-0.2,1.8-0.7c0.5-0.5,0.8-1.2,0.8-1.9
							c0-0.8-0.3-1.4-0.8-1.9C317.8,51.1,317.2,50.9,316.5,50.9z"/>
						<path class="st5" d="M325,49.9v0.9h-2.9V53h2.9V54h-2.9v2.2h2.9v0.9h-3.9v-7.2L325,49.9L325,49.9z"/>
						<path class="st5" d="M328,53.4c-0.5-0.2-0.9-0.4-1.2-0.7c-0.3-0.3-0.5-0.7-0.5-1.2c0-0.5,0.2-0.8,0.5-1.2
							c0.3-0.3,0.7-0.5,1.2-0.5c0.5,0,0.9,0.2,1.2,0.5c0.2,0.2,0.3,0.5,0.5,0.9l-0.8,0.3c-0.1-0.3-0.2-0.5-0.3-0.5
							c-0.1-0.1-0.3-0.2-0.5-0.2c-0.2,0-0.4,0.1-0.5,0.2c-0.1,0.1-0.2,0.3-0.2,0.5c0,0.2,0.1,0.4,0.2,0.5c0.2,0.2,0.4,0.3,0.7,0.4
							c0.6,0.2,1,0.5,1.4,0.9c0.4,0.4,0.7,1,0.7,1.6s-0.2,1.1-0.7,1.6c-0.4,0.4-1,0.7-1.6,0.7c-0.6,0-1.1-0.2-1.6-0.7
							c-0.3-0.3-0.6-0.8-0.7-1.4l0.9-0.3c0.1,0.5,0.2,0.9,0.4,1.1c0.3,0.3,0.6,0.4,0.9,0.4s0.7-0.1,0.9-0.4c0.3-0.3,0.4-0.6,0.4-0.9
							c0-0.4-0.1-0.7-0.4-0.9C328.7,53.8,328.4,53.6,328,53.4z"/>
						<path class="st5" d="M277.6,60.9l2.6,7.2h-1l-0.9-2.5h-1.9l-0.9,2.5h-1l2.6-7.2H277.6z M277.9,64.6l-0.6-1.7l-0.6,1.7H277.9z"
							/>
						<path class="st5" d="M284.8,60.9h0.9v5c-0.1,0.6-0.3,1.1-0.7,1.5c-0.5,0.5-1.1,0.7-1.7,0.7s-1.2-0.2-1.7-0.7
							c-0.5-0.5-0.7-1-0.7-1.7v-4.8h0.9v4.8c0,0.4,0.1,0.8,0.4,1.1s0.6,0.4,1.1,0.4c0.4,0,0.8-0.1,1.1-0.4s0.4-0.6,0.4-1.1
							L284.8,60.9L284.8,60.9z"/>
						<path class="st5" d="M289.2,61.9v6.2h-0.9v-6.2h-1.7v-0.9h4.3v0.9H289.2z"/>
						<path class="st5" d="M297.6,61.9c0.7,0.7,1.1,1.6,1.1,2.6c0,1-0.4,1.9-1.1,2.6s-1.6,1.1-2.6,1.1s-1.9-0.4-2.6-1.1
							c-0.7-0.7-1.1-1.6-1.1-2.6c0-1,0.4-1.9,1.1-2.6c0.7-0.7,1.6-1.1,2.6-1.1S296.9,61.2,297.6,61.9z M295,61.8
							c-0.8,0-1.4,0.3-1.9,0.8c-0.5,0.5-0.8,1.2-0.8,1.9s0.3,1.4,0.8,1.9c0.5,0.5,1.2,0.8,1.9,0.8c0.8,0,1.4-0.3,1.9-0.8
							s0.8-1.2,0.8-1.9s-0.3-1.4-0.8-1.9S295.8,61.8,295,61.8z"/>
						<path class="st5" d="M280.4,77.4l0.7,0.6c-0.8,0.8-1.7,1.2-2.7,1.2c-1,0-1.9-0.4-2.6-1.1s-1.1-1.6-1.1-2.6
							c0-1,0.4-1.9,1.1-2.6s1.6-1.1,2.6-1.1c0.9,0,1.8,0.4,2.7,1.2l-0.7,0.6c-0.6-0.6-1.3-0.8-2-0.8c-0.7,0-1.4,0.3-1.9,0.8
							s-0.8,1.2-0.8,1.9c0,0.8,0.3,1.4,0.8,1.9c0.5,0.5,1.2,0.8,1.9,0.8C279.1,78.2,279.8,77.9,280.4,77.4z"/>
						<path class="st5" d="M288.4,72.9c0.7,0.7,1.1,1.6,1.1,2.6c0,1-0.4,1.9-1.1,2.6s-1.6,1.1-2.6,1.1c-1,0-1.9-0.4-2.6-1.1
							c-0.7-0.7-1.1-1.6-1.1-2.6c0-1,0.4-1.9,1.1-2.6c0.7-0.7,1.6-1.1,2.6-1.1C286.8,71.8,287.7,72.2,288.4,72.9z M285.8,72.8
							c-0.8,0-1.4,0.3-1.9,0.8c-0.5,0.5-0.8,1.2-0.8,1.9s0.3,1.4,0.8,1.9c0.5,0.5,1.2,0.8,1.9,0.8c0.8,0,1.4-0.3,1.9-0.8
							s0.8-1.2,0.8-1.9s-0.3-1.4-0.8-1.9S286.6,72.8,285.8,72.8z"/>
						<path class="st5" d="M290.7,71.9h0.8l3,5.1v-5.1h0.9v7.2h-0.8l-3-5.2v5.2h-0.9V71.9z"/>
						<path class="st5" d="M298.6,75.4c-0.5-0.2-0.9-0.4-1.2-0.7c-0.3-0.3-0.5-0.7-0.5-1.2c0-0.5,0.2-0.8,0.5-1.2
							c0.3-0.3,0.7-0.5,1.2-0.5c0.5,0,0.9,0.2,1.2,0.5c0.2,0.2,0.3,0.5,0.5,0.9l-0.8,0.3c-0.1-0.3-0.2-0.5-0.3-0.5
							c-0.1-0.1-0.3-0.2-0.5-0.2c-0.2,0-0.4,0.1-0.5,0.2c-0.1,0.1-0.2,0.3-0.2,0.5c0,0.2,0.1,0.4,0.2,0.5c0.2,0.2,0.4,0.3,0.7,0.4
							c0.6,0.2,1,0.5,1.4,0.9c0.4,0.4,0.7,1,0.7,1.6s-0.2,1.1-0.7,1.6c-0.4,0.4-1,0.7-1.6,0.7c-0.6,0-1.1-0.2-1.6-0.7
							c-0.3-0.3-0.6-0.8-0.7-1.4l0.9-0.3c0.1,0.5,0.2,0.9,0.4,1.1c0.3,0.3,0.6,0.4,0.9,0.4s0.7-0.1,0.9-0.4c0.3-0.3,0.4-0.6,0.4-0.9
							c0-0.4-0.1-0.7-0.4-0.9C299.3,75.7,299,75.6,298.6,75.4z"/>
						<path class="st5" d="M305.6,71.9h0.9v5c-0.1,0.6-0.3,1.1-0.7,1.5c-0.5,0.5-1.1,0.7-1.7,0.7c-0.7,0-1.2-0.2-1.7-0.7
							c-0.5-0.5-0.7-1-0.7-1.7v-4.8h0.9v4.8c0,0.4,0.1,0.8,0.4,1.1c0.3,0.3,0.6,0.4,1.1,0.4c0.4,0,0.8-0.1,1.1-0.4
							c0.3-0.3,0.4-0.6,0.4-1.1L305.6,71.9L305.6,71.9z"/>
						<path class="st5" d="M309,71.9l2.3,4l2.3-4h0.8v7.2h-0.9v-5.2l-2.2,3.9l-2.2-3.9v5.2h-0.9v-7.2H309z"/>
						<path class="st5" d="M322.2,72.9c0.7,0.7,1.1,1.6,1.1,2.6c0,1-0.4,1.9-1.1,2.6c-0.7,0.7-1.6,1.1-2.6,1.1c-1,0-1.9-0.4-2.6-1.1
							s-1.1-1.6-1.1-2.6c0-1,0.4-1.9,1.1-2.6s1.6-1.1,2.6-1.1C320.6,71.8,321.4,72.2,322.2,72.9z M319.6,72.8
							c-0.8,0-1.4,0.3-1.9,0.8c-0.5,0.5-0.8,1.2-0.8,1.9s0.3,1.4,0.8,1.9c0.5,0.5,1.2,0.8,1.9,0.8c0.8,0,1.4-0.3,1.9-0.8
							c0.5-0.5,0.8-1.2,0.8-1.9s-0.3-1.4-0.8-1.9C321,73,320.3,72.8,319.6,72.8z"/>
					</g>
				</g>
			</g>
			<g>
				<g>
					<g class="st3">
						<path class="st4" d="M247.5,66v2h-6.4l0-1.7c1.9-3.1,3-5,3.4-5.7c0.4-0.7,0.5-1.3,0.5-1.7c0-0.3-0.1-0.5-0.2-0.7
							s-0.3-0.2-0.5-0.2s-0.4,0.1-0.5,0.3c-0.1,0.2-0.2,0.5-0.2,1v1.1h-2.6v-0.4c0-0.6,0-1.2,0.1-1.5c0.1-0.4,0.2-0.7,0.5-1.1
							c0.3-0.4,0.6-0.6,1-0.8s0.9-0.3,1.5-0.3c1.1,0,2,0.3,2.6,0.9c0.6,0.6,0.9,1.3,0.9,2.2c0,0.7-0.2,1.4-0.5,2.1
							c-0.3,0.7-1.3,2.3-2.9,4.7L247.5,66L247.5,66z"/>
						<path class="st4" d="M253.3,58.4v2c0,0.5,0,0.9-0.1,1.2c-0.1,0.3-0.3,0.5-0.6,0.7s-0.7,0.3-1.3,0.3c-0.6,0-1.1-0.1-1.4-0.3
							c-0.3-0.2-0.5-0.4-0.6-0.7s-0.2-0.6-0.2-1.1v-2.1c0-0.6,0.1-1,0.2-1.3s0.3-0.5,0.7-0.7s0.7-0.3,1.2-0.3c0.5,0,1,0.1,1.3,0.3
							c0.3,0.2,0.6,0.4,0.7,0.7C253.3,57.4,253.3,57.8,253.3,58.4z M251.5,57.9c0-0.3,0-0.5,0-0.6c0-0.1-0.1-0.1-0.3-0.1
							c-0.1,0-0.2,0-0.3,0.1c0,0.1-0.1,0.3-0.1,0.6v2.9c0,0.3,0,0.5,0.1,0.6c0,0.1,0.1,0.1,0.3,0.1c0.1,0,0.2,0,0.2-0.1
							c0-0.1,0.1-0.3,0.1-0.5L251.5,57.9L251.5,57.9z M256.7,56.2l-4.5,12h-1.1l4.5-12H256.7z M258.7,64v2c0,0.5,0,0.9-0.1,1.2
							s-0.3,0.5-0.6,0.7c-0.3,0.2-0.7,0.3-1.3,0.3c-0.6,0-1.1-0.1-1.4-0.3c-0.3-0.2-0.5-0.4-0.7-0.7c-0.1-0.3-0.2-0.6-0.2-1.1V64
							c0-0.6,0.1-1,0.2-1.3c0.1-0.3,0.3-0.5,0.7-0.7c0.3-0.2,0.7-0.3,1.2-0.3c0.5,0,1,0.1,1.3,0.3c0.3,0.2,0.6,0.4,0.7,0.7
							C258.6,63,258.7,63.4,258.7,64z M256.9,63.5c0-0.3,0-0.5,0-0.6s-0.1-0.1-0.3-0.1c-0.1,0-0.2,0-0.2,0.1s-0.1,0.3-0.1,0.6v2.9
							c0,0.3,0,0.5,0.1,0.6c0,0.1,0.1,0.1,0.3,0.1c0.1,0,0.2,0,0.2-0.1c0-0.1,0.1-0.3,0.1-0.5V63.5z"/>
					</g>
				</g>
			</g>
			<g>
				<g>
					<g class="st3">
						<path class="st5" d="M202.9,76.6v2.3h-0.9v-7.2h2c0.6,0.1,1.1,0.3,1.5,0.7c0.5,0.5,0.7,1.1,0.7,1.7c0,0.7-0.2,1.2-0.7,1.7
							s-1,0.7-1.7,0.7L202.9,76.6L202.9,76.6z M202.9,72.7v3h0.8c0.4,0,0.8-0.1,1.1-0.4c0.3-0.3,0.4-0.6,0.4-1.1
							c0-0.4-0.1-0.8-0.4-1.1c-0.3-0.3-0.6-0.4-1.1-0.4L202.9,72.7L202.9,72.7z"/>
						<path class="st5" d="M210.9,71.7v0.9H208v2.2h2.9v0.9H208V78h2.9v0.9h-3.9v-7.2L210.9,71.7L210.9,71.7z"/>
						<path class="st5" d="M212.1,71.7h0.8l3,5.1v-5.1h0.9v7.2h-0.8l-3-5.2v5.2h-0.9L212.1,71.7L212.1,71.7z"/>
						<path class="st5" d="M220,75.2c-0.5-0.2-0.9-0.4-1.2-0.7c-0.3-0.3-0.5-0.7-0.5-1.2c0-0.5,0.2-0.8,0.5-1.2
							c0.3-0.3,0.7-0.5,1.2-0.5c0.5,0,0.9,0.2,1.2,0.5c0.2,0.2,0.3,0.5,0.5,0.9l-0.8,0.3c-0.1-0.3-0.2-0.5-0.3-0.5
							c-0.1-0.1-0.3-0.2-0.5-0.2c-0.2,0-0.4,0.1-0.5,0.2c-0.1,0.1-0.2,0.3-0.2,0.5c0,0.2,0.1,0.4,0.2,0.5c0.2,0.2,0.4,0.3,0.7,0.4
							c0.6,0.2,1,0.5,1.4,0.9c0.4,0.4,0.7,1,0.7,1.6s-0.2,1.1-0.7,1.6c-0.4,0.4-1,0.7-1.6,0.7c-0.6,0-1.1-0.2-1.6-0.7
							c-0.4-0.3-0.6-0.8-0.7-1.4l0.9-0.3c0.1,0.5,0.2,0.9,0.4,1.1c0.3,0.3,0.6,0.4,0.9,0.4c0.4,0,0.7-0.1,0.9-0.4
							c0.3-0.3,0.4-0.6,0.4-0.9c0-0.4-0.1-0.7-0.4-0.9C220.7,75.6,220.4,75.4,220,75.2z"/>
						<path class="st5" d="M224.2,71.7v7.2h-0.9v-7.2H224.2z"/>
						<path class="st5" d="M231.7,72.7c0.7,0.7,1.1,1.6,1.1,2.6c0,1-0.4,1.9-1.1,2.6c-0.7,0.7-1.6,1.1-2.6,1.1c-1,0-1.9-0.4-2.6-1.1
							s-1.1-1.6-1.1-2.6c0-1,0.4-1.9,1.1-2.6s1.6-1.1,2.6-1.1C230.2,71.7,231,72,231.7,72.7z M229.1,72.6c-0.8,0-1.4,0.3-1.9,0.8
							s-0.8,1.2-0.8,1.9s0.3,1.4,0.8,1.9s1.2,0.8,1.9,0.8c0.8,0,1.4-0.3,1.9-0.8c0.5-0.5,0.8-1.2,0.8-1.9s-0.3-1.4-0.8-1.9
							C230.5,72.9,229.9,72.6,229.1,72.6z"/>
						<path class="st5" d="M234,71.7h0.8l3,5.1v-5.1h0.9v7.2H238l-3-5.2v5.2H234L234,71.7L234,71.7z"/>
						<path class="st5" d="M242.8,71.7l2.6,7.2h-1l-0.9-2.5h-1.9l-0.9,2.5h-1l2.6-7.2H242.8z M243.1,75.4l-0.6-1.7l-0.6,1.7H243.1z"
							/>
						<path class="st5" d="M247,71.7c1.2,0,2.1,0.3,2.7,1c0.7,0.7,1.1,1.6,1.1,2.6c0,1-0.4,1.9-1.1,2.6c-0.6,0.7-1.6,1-2.7,1h-0.7
							v-7.2C246.3,71.7,247,71.7,247,71.7z M247.2,72.7V78c0.7,0,1.3-0.2,1.8-0.7c0.5-0.5,0.8-1.2,0.8-1.9c0-0.8-0.3-1.4-0.8-1.9
							C248.5,72.9,247.9,72.7,247.2,72.7z"/>
						<path class="st5" d="M258,72.7c0.7,0.7,1.1,1.6,1.1,2.6c0,1-0.4,1.9-1.1,2.6s-1.6,1.1-2.6,1.1s-1.9-0.4-2.6-1.1
							c-0.7-0.7-1.1-1.6-1.1-2.6c0-1,0.4-1.9,1.1-2.6c0.7-0.7,1.6-1.1,2.6-1.1C256.4,71.7,257.3,72,258,72.7z M255.4,72.6
							c-0.8,0-1.4,0.3-1.9,0.8c-0.5,0.5-0.8,1.2-0.8,1.9s0.3,1.4,0.8,1.9c0.5,0.5,1.2,0.8,1.9,0.8c0.8,0,1.4-0.3,1.9-0.8
							s0.8-1.2,0.8-1.9s-0.3-1.4-0.8-1.9S256.2,72.6,255.4,72.6z"/>
						<path class="st5" d="M220.5,88.4c0,0.5-0.1,0.9-0.4,1.2c-0.3,0.3-0.6,0.4-1.1,0.4c-0.4,0-0.8-0.1-1-0.4
							c-0.3-0.3-0.4-0.7-0.4-1.2l0.7-0.3c0.1,0.5,0.2,0.7,0.3,0.8c0.1,0.1,0.2,0.1,0.4,0.1h0c0.2,0,0.3-0.1,0.4-0.2
							c0.1-0.1,0.1-0.3,0.1-0.5v-5.6h0.9V88.4z"/>
						<path class="st5" d="M225.8,82.7h0.9v5c-0.1,0.6-0.3,1.1-0.7,1.5c-0.5,0.5-1.1,0.7-1.7,0.7c-0.7,0-1.2-0.2-1.7-0.7
							c-0.5-0.5-0.7-1-0.7-1.7v-4.8h0.9v4.8c0,0.4,0.1,0.8,0.4,1.1c0.3,0.3,0.6,0.4,1.1,0.4c0.4,0,0.8-0.1,1.1-0.4
							c0.3-0.3,0.4-0.6,0.4-1.1L225.8,82.7L225.8,82.7z"/>
						<path class="st5" d="M229.5,82.7c0.4,0,0.8,0.1,1.1,0.4s0.4,0.6,0.4,1.1c0,0.4-0.2,0.7-0.6,0.8c0.3,0,0.7,0.3,1.1,0.7
							c0.4,0.4,0.6,0.9,0.6,1.6s-0.2,1.3-0.7,1.8c-0.5,0.5-0.9,0.7-1.4,0.7v0h-1.8v-7.2L229.5,82.7L229.5,82.7z M229,83.7v1.1h0.6
							c0.1,0,0.3-0.1,0.4-0.2c0.1-0.1,0.2-0.2,0.2-0.4s-0.1-0.3-0.2-0.4c-0.1-0.1-0.3-0.2-0.4-0.2L229,83.7L229,83.7z M229,85.8V89
							h0.9v0c0.2,0,0.4-0.2,0.7-0.5c0.3-0.3,0.5-0.7,0.5-1.1c0-0.4-0.2-0.8-0.5-1.1s-0.7-0.5-1.1-0.5H229z"/>
						<path class="st5" d="M234.1,82.7v7.2h-0.9v-7.2H234.1z"/>
						<path class="st5" d="M235.6,89.9v-7.2h0.9V89h2.6v0.9L235.6,89.9L235.6,89.9z"/>
						<path class="st5" d="M242.8,82.7l2.6,7.2h-1l-0.9-2.5h-1.9l-0.9,2.5h-1l2.6-7.2H242.8z M243.1,86.4l-0.6-1.7l-0.6,1.7H243.1z"
							/>
						<path class="st5" d="M247,82.7c1.2,0,2.1,0.3,2.7,1c0.7,0.7,1.1,1.6,1.1,2.6c0,1-0.4,1.9-1.1,2.6c-0.6,0.7-1.6,1-2.7,1h-0.7
							v-7.2C246.3,82.7,247,82.7,247,82.7z M247.2,83.7V89c0.7,0,1.3-0.2,1.8-0.7c0.5-0.5,0.8-1.2,0.8-1.9c0-0.8-0.3-1.4-0.8-1.9
							C248.5,83.9,247.9,83.7,247.2,83.7z"/>
						<path class="st5" d="M258,83.7c0.7,0.7,1.1,1.6,1.1,2.6c0,1-0.4,1.9-1.1,2.6s-1.6,1.1-2.6,1.1s-1.9-0.4-2.6-1.1
							c-0.7-0.7-1.1-1.6-1.1-2.6c0-1,0.4-1.9,1.1-2.6c0.7-0.7,1.6-1.1,2.6-1.1C256.4,82.7,257.3,83,258,83.7z M255.4,83.6
							c-0.8,0-1.4,0.3-1.9,0.8c-0.5,0.5-0.8,1.2-0.8,1.9s0.3,1.4,0.8,1.9c0.5,0.5,1.2,0.8,1.9,0.8c0.8,0,1.4-0.3,1.9-0.8
							s0.8-1.2,0.8-1.9s-0.3-1.4-0.8-1.9S256.2,83.6,255.4,83.6z"/>
					</g>
				</g>
			</g>
			<g>
				<g>
					<g class="st3">
						<path class="st4" d="M184.1,103.7v11.6h-2.9v-6.2c0-0.9,0-1.4-0.1-1.6s-0.2-0.3-0.4-0.4c-0.2-0.1-0.6-0.1-1.3-0.1h-0.3v-1.4
							c1.4-0.3,2.5-0.9,3.2-1.9C182.4,103.7,184.1,103.7,184.1,103.7z"/>
						<path class="st4" d="M191.9,103.7v7.6h0.8v2h-0.8v2H189v-2h-3.4v-2l2.5-7.6H191.9z M189,111.3v-4.9l-1.3,4.9H189z"/>
						<path class="st4" d="M198,105.7v2c0,0.5,0,0.9-0.1,1.2s-0.3,0.5-0.6,0.7c-0.3,0.2-0.7,0.3-1.3,0.3c-0.6,0-1.1-0.1-1.4-0.3
							s-0.5-0.4-0.6-0.7c-0.1-0.3-0.2-0.6-0.2-1.1v-2.1c0-0.6,0.1-1,0.2-1.3c0.1-0.3,0.3-0.5,0.7-0.7s0.7-0.3,1.2-0.3
							c0.5,0,1,0.1,1.3,0.3c0.3,0.2,0.6,0.4,0.7,0.7C198,104.8,198,105.2,198,105.7z M196.2,105.2c0-0.3,0-0.5,0-0.6
							c0-0.1-0.1-0.1-0.3-0.1c-0.1,0-0.2,0-0.3,0.1s-0.1,0.3-0.1,0.6v2.9c0,0.3,0,0.5,0.1,0.6c0,0.1,0.1,0.1,0.3,0.1
							c0.1,0,0.2,0,0.2-0.1c0-0.1,0.1-0.3,0.1-0.5L196.2,105.2L196.2,105.2z M201.4,103.5l-4.5,12h-1.1l4.5-12H201.4z M203.4,111.3
							v2c0,0.5,0,0.9-0.1,1.2s-0.3,0.5-0.6,0.7s-0.7,0.3-1.3,0.3c-0.6,0-1.1-0.1-1.4-0.3c-0.3-0.2-0.5-0.4-0.7-0.7
							c-0.1-0.3-0.2-0.6-0.2-1.1v-2.1c0-0.6,0.1-1,0.2-1.3s0.3-0.5,0.7-0.7c0.3-0.2,0.7-0.3,1.2-0.3c0.5,0,1,0.1,1.3,0.3
							c0.3,0.2,0.6,0.4,0.7,0.7C203.3,110.4,203.4,110.8,203.4,111.3z M201.6,110.8c0-0.3,0-0.5,0-0.6c0-0.1-0.1-0.1-0.3-0.1
							c-0.1,0-0.2,0-0.2,0.1c0,0.1-0.1,0.3-0.1,0.6v2.9c0,0.3,0,0.5,0.1,0.6c0,0.1,0.1,0.1,0.3,0.1c0.1,0,0.2,0,0.2-0.1
							c0-0.1,0.1-0.3,0.1-0.5L201.6,110.8L201.6,110.8z"/>
					</g>
				</g>
			</g>
			<g>
				<g>
					<g class="st3">
						<path class="st5" d="M186.9,120.1c0.7,0.7,1.1,1.6,1.1,2.6c0,1-0.4,1.9-1.1,2.6c-0.7,0.7-1.6,1.1-2.6,1.1
							c-1,0-1.9-0.4-2.6-1.1s-1.1-1.6-1.1-2.6c0-1,0.4-1.9,1.1-2.6s1.6-1.1,2.6-1.1C185.3,119,186.2,119.3,186.9,120.1z
							 M184.3,119.9c-0.8,0-1.4,0.3-1.9,0.8s-0.8,1.2-0.8,1.9s0.3,1.4,0.8,1.9s1.2,0.8,1.9,0.8c0.8,0,1.4-0.3,1.9-0.8
							c0.5-0.5,0.8-1.2,0.8-1.9s-0.3-1.4-0.8-1.9C185.7,120.2,185.1,119.9,184.3,119.9z"/>
						<path class="st5" d="M191.1,120v6.2h-0.9V120h-1.7v-0.9h4.3v0.9H191.1z"/>
						<path class="st5" d="M195.4,123.9h-0.8v2.3h-0.9v-7.2h2c0.6,0.1,1.1,0.3,1.5,0.7c0.5,0.5,0.7,1.1,0.7,1.7
							c0,0.7-0.2,1.2-0.7,1.7c-0.3,0.3-0.6,0.5-0.8,0.6l1.6,2.4h-1.1L195.4,123.9z M194.5,120v3h0.8c0.4,0,0.8-0.1,1.1-0.4
							c0.3-0.3,0.4-0.6,0.4-1.1c0-0.4-0.1-0.8-0.4-1.1c-0.3-0.3-0.6-0.4-1.1-0.4L194.5,120L194.5,120z"/>
						<path class="st5" d="M201.5,119.1l2.6,7.2h-1l-0.9-2.5h-1.9l-0.9,2.5h-1l2.6-7.2H201.5z M201.9,122.8l-0.6-1.7l-0.6,1.7H201.9
							z"/>
						<path class="st5" d="M161.5,130.1l2.6,7.2h-1l-0.9-2.5h-1.9l-0.9,2.5h-1l2.6-7.2H161.5z M161.8,133.8l-0.6-1.7l-0.6,1.7H161.8
							z"/>
						<path class="st5" d="M170.3,135.5l0.7,0.6c-0.8,0.8-1.7,1.2-2.7,1.2c-1,0-1.9-0.4-2.6-1.1s-1.1-1.6-1.1-2.6
							c0-1,0.4-1.9,1.1-2.6s1.6-1.1,2.6-1.1c0.9,0,1.8,0.4,2.7,1.2l-0.7,0.6c-0.6-0.6-1.3-0.9-2-0.9c-0.7,0-1.4,0.3-1.9,0.8
							c-0.5,0.5-0.8,1.2-0.8,1.9c0,0.8,0.3,1.4,0.8,1.9c0.5,0.5,1.2,0.8,1.9,0.8C169,136.4,169.7,136.1,170.3,135.5z"/>
						<path class="st5" d="M174.3,131v6.2h-0.9V131h-1.7v-0.9h4.3v0.9H174.3z"/>
						<path class="st5" d="M177.9,130.1v7.2h-0.9v-7.2H177.9z"/>
						<path class="st5" d="M181.4,137.2l-2.6-7.2h1l1.9,5.1l1.9-5.1h1l-2.6,7.2H181.4z"/>
						<path class="st5" d="M186.5,130.1v7.2h-0.9v-7.2H186.5z"/>
						<path class="st5" d="M188.6,130.1c1.2,0,2.1,0.3,2.7,1c0.7,0.7,1.1,1.6,1.1,2.6c0,1-0.4,1.9-1.1,2.6c-0.6,0.7-1.6,1-2.7,1
							h-0.7v-7.2L188.6,130.1L188.6,130.1z M188.8,131v5.3c0.7,0,1.3-0.2,1.8-0.7c0.5-0.5,0.8-1.2,0.8-1.9c0-0.8-0.3-1.4-0.8-1.9
							C190.2,131.3,189.6,131,188.8,131z"/>
						<path class="st5" d="M195.9,130.1l2.6,7.2h-1l-0.9-2.5h-1.9l-0.9,2.5h-1l2.6-7.2H195.9z M196.3,133.8l-0.6-1.7l-0.6,1.7H196.3
							z"/>
						<path class="st5" d="M200.1,130.1c1.2,0,2.1,0.3,2.7,1c0.7,0.7,1.1,1.6,1.1,2.6c0,1-0.4,1.9-1.1,2.6c-0.6,0.7-1.6,1-2.7,1
							h-0.7v-7.2L200.1,130.1L200.1,130.1z M200.4,131v5.3c0.7,0,1.3-0.2,1.8-0.7c0.5-0.5,0.8-1.2,0.8-1.9c0-0.8-0.3-1.4-0.8-1.9
							C201.7,131.3,201.1,131,200.4,131z"/>
					</g>
				</g>
			</g>
			<g>
				<g>
					<g class="st3">
						<path class="st4" d="M174.8,165c0.4,0.1,0.8,0.4,1,0.7s0.3,1.1,0.3,2.4c0,0.9-0.1,1.6-0.3,2.1c-0.2,0.5-0.6,0.9-1.1,1.2
							c-0.5,0.3-1.2,0.4-2,0.4c-0.9,0-1.6-0.2-2.2-0.5c-0.5-0.3-0.9-0.7-1-1.1c-0.2-0.4-0.2-1.2-0.2-2.3v-0.9h2.9v1.9
							c0,0.5,0,0.8,0.1,1s0.2,0.2,0.4,0.2c0.2,0,0.4-0.1,0.4-0.3s0.1-0.6,0.1-1.3v-0.8c0-0.4-0.1-0.8-0.1-1s-0.2-0.3-0.4-0.4
							c-0.2-0.1-0.6-0.1-1.1-0.1v-1.7c0.7,0,1.1,0,1.3-0.1c0.2-0.1,0.3-0.2,0.4-0.3c0.1-0.2,0.1-0.5,0.1-0.8v-0.6
							c0-0.4,0-0.7-0.1-0.8c-0.1-0.1-0.2-0.2-0.4-0.2c-0.2,0-0.3,0.1-0.4,0.2c-0.1,0.1-0.1,0.4-0.1,0.9v1h-2.9v-1
							c0-1.1,0.3-1.9,0.8-2.2c0.5-0.4,1.3-0.6,2.4-0.6c1.4,0,2.3,0.3,2.8,0.8s0.7,1.3,0.7,2.2c0,0.6-0.1,1.1-0.3,1.4
							C175.6,164.5,175.2,164.7,174.8,165z"/>
						<path class="st4" d="M181.9,161.9v2c0,0.5,0,0.9-0.1,1.2c-0.1,0.3-0.3,0.5-0.6,0.7s-0.7,0.3-1.3,0.3c-0.6,0-1.1-0.1-1.4-0.3
							c-0.3-0.2-0.5-0.4-0.6-0.7s-0.2-0.6-0.2-1.1v-2.1c0-0.6,0.1-1,0.2-1.3s0.3-0.5,0.7-0.7s0.7-0.3,1.2-0.3c0.5,0,1,0.1,1.3,0.3
							c0.3,0.2,0.6,0.4,0.7,0.7C181.8,161,181.9,161.4,181.9,161.9z M180,161.4c0-0.3,0-0.5,0-0.6c0-0.1-0.1-0.1-0.3-0.1
							c-0.1,0-0.2,0-0.3,0.1c0,0.1-0.1,0.3-0.1,0.6v2.9c0,0.3,0,0.5,0.1,0.6c0,0.1,0.1,0.1,0.3,0.1c0.1,0,0.2,0,0.2-0.1
							c0-0.1,0.1-0.3,0.1-0.5L180,161.4L180,161.4z M185.2,159.7l-4.5,12h-1.1l4.5-12H185.2z M187.2,167.5v2c0,0.5,0,0.9-0.1,1.2
							s-0.3,0.5-0.6,0.7c-0.3,0.2-0.7,0.3-1.3,0.3c-0.6,0-1.1-0.1-1.4-0.3c-0.3-0.2-0.5-0.4-0.7-0.7c-0.1-0.3-0.2-0.6-0.2-1.1v-2.1
							c0-0.6,0.1-1,0.2-1.3c0.1-0.3,0.3-0.5,0.7-0.7c0.3-0.2,0.7-0.3,1.2-0.3c0.5,0,1,0.1,1.3,0.3c0.3,0.2,0.6,0.4,0.7,0.7
							C187.2,166.6,187.2,167,187.2,167.5z M185.4,167c0-0.3,0-0.5,0-0.6s-0.1-0.1-0.3-0.1c-0.1,0-0.2,0-0.2,0.1s-0.1,0.3-0.1,0.6
							v2.9c0,0.3,0,0.5,0.1,0.6c0,0.1,0.1,0.1,0.3,0.1c0.1,0,0.2,0,0.2-0.1c0-0.1,0.1-0.3,0.1-0.5V167z"/>
					</g>
				</g>
			</g>
			<g>
				<g>
					<g class="st3">
						<path class="st5" d="M171.2,175.3h0.8l3,5.1v-5.1h0.9v7.2h-0.8l-3-5.2v5.2h-0.9L171.2,175.3L171.2,175.3z"/>
						<path class="st5" d="M183.4,176.3c0.7,0.7,1.1,1.6,1.1,2.6c0,1-0.4,1.9-1.1,2.6c-0.7,0.7-1.6,1.1-2.6,1.1
							c-1,0-1.9-0.4-2.6-1.1s-1.1-1.6-1.1-2.6c0-1,0.4-1.9,1.1-2.6s1.6-1.1,2.6-1.1C181.8,175.2,182.7,175.6,183.4,176.3z
							 M180.8,176.1c-0.8,0-1.4,0.3-1.9,0.8s-0.8,1.2-0.8,1.9s0.3,1.4,0.8,1.9s1.2,0.8,1.9,0.8c0.8,0,1.4-0.3,1.9-0.8
							c0.5-0.5,0.8-1.2,0.8-1.9s-0.3-1.4-0.8-1.9C182.2,176.4,181.5,176.1,180.8,176.1z"/>
						<path class="st5" d="M149.2,186.3c1.2,0,2.1,0.3,2.7,1c0.7,0.7,1.1,1.6,1.1,2.6c0,1-0.4,1.9-1.1,2.6c-0.6,0.7-1.6,1-2.7,1
							h-0.7v-7.2L149.2,186.3L149.2,186.3z M149.4,187.2v5.3c0.7,0,1.3-0.2,1.8-0.7c0.5-0.5,0.8-1.2,0.8-1.9c0-0.8-0.3-1.4-0.8-1.9
							C150.8,187.5,150.2,187.2,149.4,187.2z"/>
						<path class="st5" d="M157.9,186.3v0.9H155v2.2h2.9v0.9H155v2.2h2.9v0.9h-3.9v-7.2L157.9,186.3L157.9,186.3z"/>
						<path class="st5" d="M162.6,186.3v0.9h-2.5v2.2h2.5v0.9h-2.5v3.1h-0.9v-7.2L162.6,186.3L162.6,186.3z"/>
						<path class="st5" d="M164.9,186.3v7.2h-0.9v-7.2H164.9z"/>
						<path class="st5" d="M166.3,186.3h0.8l3,5.1v-5.1h0.9v7.2h-0.8l-3-5.2v5.2h-0.9L166.3,186.3L166.3,186.3z"/>
						<path class="st5" d="M173.4,186.3v7.2h-0.9v-7.2H173.4z"/>
						<path class="st5" d="M175.5,186.3c1.2,0,2.1,0.3,2.7,1c0.7,0.7,1.1,1.6,1.1,2.6c0,1-0.4,1.9-1.1,2.6c-0.6,0.7-1.6,1-2.7,1
							h-0.7v-7.2L175.5,186.3L175.5,186.3z M175.7,187.2v5.3c0.7,0,1.3-0.2,1.8-0.7c0.5-0.5,0.8-1.2,0.8-1.9c0-0.8-0.3-1.4-0.8-1.9
							C177.1,187.5,176.5,187.2,175.7,187.2z"/>
						<path class="st5" d="M186.6,187.3c0.7,0.7,1.1,1.6,1.1,2.6c0,1-0.4,1.9-1.1,2.6s-1.6,1.1-2.6,1.1s-1.9-0.4-2.6-1.1
							c-0.7-0.7-1.1-1.6-1.1-2.6c0-1,0.4-1.9,1.1-2.6c0.7-0.7,1.6-1.1,2.6-1.1S185.8,186.6,186.6,187.3z M184,187.1
							c-0.8,0-1.4,0.3-1.9,0.8c-0.5,0.5-0.8,1.2-0.8,1.9s0.3,1.4,0.8,1.9c0.5,0.5,1.2,0.8,1.9,0.8c0.8,0,1.4-0.3,1.9-0.8
							s0.8-1.2,0.8-1.9s-0.3-1.4-0.8-1.9S184.7,187.1,184,187.1z"/>
					</g>
				</g>
			</g>
			<g>
				<g>
					<g class="st3">
						<path class="st4" d="M178.5,209.5v11.6h-2.9v-6.2c0-0.9,0-1.4-0.1-1.6s-0.2-0.3-0.4-0.4c-0.2-0.1-0.6-0.1-1.3-0.1h-0.3v-1.4
							c1.4-0.3,2.5-0.9,3.2-1.9H178.5z"/>
						<path class="st4" d="M184.3,211.5v2c0,0.5,0,0.9-0.1,1.2c-0.1,0.3-0.3,0.5-0.6,0.7s-0.7,0.3-1.3,0.3c-0.6,0-1.1-0.1-1.4-0.3
							s-0.5-0.4-0.6-0.7c-0.1-0.3-0.2-0.6-0.2-1.1v-2.1c0-0.6,0.1-1,0.2-1.3s0.3-0.5,0.7-0.7s0.7-0.3,1.2-0.3c0.5,0,1,0.1,1.3,0.3
							s0.6,0.4,0.7,0.7S184.3,211,184.3,211.5z M182.5,211c0-0.3,0-0.5,0-0.6c0-0.1-0.1-0.1-0.3-0.1c-0.1,0-0.2,0-0.2,0.1
							s-0.1,0.3-0.1,0.6v2.9c0,0.3,0,0.5,0.1,0.6c0,0.1,0.1,0.1,0.3,0.1c0.1,0,0.2,0,0.2-0.1c0-0.1,0.1-0.3,0.1-0.5L182.5,211
							L182.5,211z M187.7,209.3l-4.5,12h-1.1l4.5-12H187.7z M189.7,217.1v2c0,0.5,0,0.9-0.1,1.2s-0.3,0.5-0.6,0.7
							c-0.3,0.2-0.7,0.3-1.3,0.3c-0.6,0-1.1-0.1-1.4-0.3c-0.3-0.2-0.5-0.4-0.6-0.7c-0.1-0.3-0.2-0.6-0.2-1.1v-2.1
							c0-0.6,0.1-1,0.2-1.3c0.1-0.3,0.3-0.5,0.7-0.7c0.3-0.2,0.7-0.3,1.2-0.3c0.5,0,1,0.1,1.3,0.3c0.3,0.2,0.6,0.4,0.7,0.7
							C189.6,216.2,189.7,216.6,189.7,217.1z M187.9,216.6c0-0.3,0-0.5,0-0.6s-0.1-0.1-0.3-0.1c-0.1,0-0.2,0-0.2,0.1
							c0,0.1-0.1,0.3-0.1,0.6v2.9c0,0.3,0,0.5,0.1,0.6c0,0.1,0.1,0.1,0.3,0.1c0.1,0,0.2,0,0.2-0.1s0.1-0.3,0.1-0.5V216.6z"/>
					</g>
				</g>
			</g>
			<g>
				<g>
					<g class="st3">
						<path class="st5" d="M176.8,224.9h0.8l3,5.1v-5.1h0.9v7.2h-0.8l-3-5.2v5.2h-0.9L176.8,224.9L176.8,224.9z"/>
						<path class="st5" d="M189,225.9c0.7,0.7,1.1,1.6,1.1,2.6c0,1-0.4,1.9-1.1,2.6c-0.7,0.7-1.6,1.1-2.6,1.1c-1,0-1.9-0.4-2.6-1.1
							s-1.1-1.6-1.1-2.6c0-1,0.4-1.9,1.1-2.6s1.6-1.1,2.6-1.1C187.4,224.8,188.3,225.1,189,225.9z M186.4,225.7
							c-0.8,0-1.4,0.3-1.9,0.8c-0.5,0.5-0.8,1.2-0.8,1.9s0.3,1.4,0.8,1.9c0.5,0.5,1.2,0.8,1.9,0.8c0.8,0,1.4-0.3,1.9-0.8
							c0.5-0.5,0.8-1.2,0.8-1.9s-0.3-1.4-0.8-1.9C187.8,226,187.2,225.7,186.4,225.7z"/>
						<path class="st5" d="M162.4,235.9l2.6,7.2h-1l-0.9-2.5h-1.9l-0.9,2.5h-1l2.6-7.2H162.4z M162.7,239.6l-0.6-1.7l-0.6,1.7H162.7
							z"/>
						<path class="st5" d="M166.8,240.7v2.3h-0.9v-7.2h2c0.6,0.1,1.1,0.3,1.5,0.7c0.5,0.5,0.7,1.1,0.7,1.7c0,0.7-0.2,1.2-0.7,1.7
							c-0.5,0.5-1,0.7-1.7,0.7L166.8,240.7L166.8,240.7z M166.8,236.8v3h0.8c0.4,0,0.8-0.1,1.1-0.4c0.3-0.3,0.4-0.6,0.4-1.1
							c0-0.4-0.1-0.8-0.4-1.1c-0.3-0.3-0.6-0.4-1.1-0.4L166.8,236.8L166.8,236.8z"/>
						<path class="st5" d="M171,243v-7.2h0.9v6.2h2.6v0.9L171,243L171,243z"/>
						<path class="st5" d="M176.6,235.9v7.2h-0.9v-7.2H176.6z"/>
						<path class="st5" d="M183.5,241.3l0.7,0.6c-0.8,0.8-1.7,1.2-2.7,1.2c-1,0-1.9-0.4-2.6-1.1s-1.1-1.6-1.1-2.6
							c0-1,0.4-1.9,1.1-2.6s1.6-1.1,2.6-1.1c0.9,0,1.8,0.4,2.7,1.2l-0.7,0.6c-0.6-0.6-1.3-0.9-2-0.9c-0.7,0-1.4,0.3-1.9,0.8
							s-0.8,1.2-0.8,1.9c0,0.8,0.3,1.4,0.8,1.9c0.5,0.5,1.2,0.8,1.9,0.8C182.2,242.2,182.9,241.9,183.5,241.3z"/>
						<path class="st5" d="M187.8,235.9l2.6,7.2h-1l-0.9-2.5h-1.9l-0.9,2.5h-1l2.6-7.2H187.8z M188.2,239.6l-0.6-1.7l-0.6,1.7H188.2
							z"/>
					</g>
				</g>
			</g>
			<g>
				<g>
					<g class="st3">
						<path class="st4" d="M235.3,325.5c0.4,0.1,0.8,0.4,1,0.7c0.2,0.3,0.3,1.1,0.3,2.4c0,0.9-0.1,1.6-0.3,2.1
							c-0.2,0.5-0.6,0.9-1.1,1.2c-0.5,0.3-1.2,0.4-2,0.4c-0.9,0-1.6-0.2-2.2-0.5c-0.5-0.3-0.9-0.7-1-1.1c-0.2-0.4-0.2-1.2-0.2-2.3
							v-0.9h2.9v1.9c0,0.5,0,0.8,0.1,1c0.1,0.1,0.2,0.2,0.4,0.2c0.2,0,0.4-0.1,0.4-0.3c0.1-0.2,0.1-0.6,0.1-1.3v-0.8
							c0-0.4-0.1-0.8-0.1-1c-0.1-0.2-0.2-0.3-0.4-0.4s-0.6-0.1-1.1-0.1v-1.7c0.7,0,1.1,0,1.3-0.1c0.2-0.1,0.3-0.2,0.4-0.3
							s0.1-0.5,0.1-0.8V323c0-0.4,0-0.7-0.1-0.8c-0.1-0.1-0.2-0.2-0.4-0.2c-0.2,0-0.3,0.1-0.4,0.2c-0.1,0.1-0.1,0.4-0.1,0.9v1h-2.9
							v-1c0-1.1,0.3-1.9,0.8-2.2c0.5-0.4,1.3-0.6,2.4-0.6c1.4,0,2.3,0.3,2.8,0.8s0.7,1.3,0.7,2.2c0,0.6-0.1,1.1-0.3,1.4
							C236.1,325,235.8,325.2,235.3,325.5z"/>
						<path class="st4" d="M242.8,320.4V332H240v-6.2c0-0.9,0-1.4-0.1-1.6s-0.2-0.3-0.4-0.4s-0.6-0.1-1.3-0.1H238v-1.4
							c1.4-0.3,2.5-0.9,3.2-1.9H242.8z"/>
						<path class="st4" d="M248.7,322.4v2c0,0.5,0,0.9-0.1,1.2s-0.3,0.5-0.6,0.7c-0.3,0.2-0.7,0.3-1.3,0.3c-0.6,0-1.1-0.1-1.4-0.3
							s-0.5-0.4-0.6-0.7c-0.1-0.3-0.2-0.6-0.2-1.1v-2.1c0-0.6,0.1-1,0.2-1.3c0.1-0.3,0.3-0.5,0.7-0.7s0.7-0.3,1.2-0.3
							c0.5,0,1,0.1,1.3,0.3c0.3,0.2,0.6,0.4,0.7,0.7C248.6,321.4,248.7,321.9,248.7,322.4z M246.9,321.9c0-0.3,0-0.5,0-0.6
							c0-0.1-0.1-0.1-0.3-0.1c-0.1,0-0.2,0-0.3,0.1s-0.1,0.3-0.1,0.6v2.9c0,0.3,0,0.5,0.1,0.6s0.1,0.1,0.3,0.1c0.1,0,0.2,0,0.2-0.1
							c0-0.1,0.1-0.3,0.1-0.5L246.9,321.9L246.9,321.9z M252.1,320.2l-4.5,12h-1.1l4.5-12H252.1z M254.1,328v2c0,0.5,0,0.9-0.1,1.2
							c-0.1,0.3-0.3,0.5-0.6,0.7s-0.7,0.3-1.3,0.3c-0.6,0-1.1-0.1-1.4-0.3c-0.3-0.2-0.5-0.4-0.7-0.7c-0.1-0.3-0.2-0.6-0.2-1.1V328
							c0-0.6,0.1-1,0.2-1.3c0.1-0.3,0.3-0.5,0.7-0.7s0.7-0.3,1.2-0.3c0.5,0,1,0.1,1.3,0.3c0.3,0.2,0.6,0.4,0.7,0.7
							C254,327,254.1,327.5,254.1,328z M252.2,327.5c0-0.3,0-0.5,0-0.6c0-0.1-0.1-0.1-0.3-0.1c-0.1,0-0.2,0-0.2,0.1
							c0,0.1-0.1,0.3-0.1,0.6v2.9c0,0.3,0,0.5,0.1,0.6s0.1,0.1,0.3,0.1c0.1,0,0.2,0,0.2-0.1c0-0.1,0.1-0.3,0.1-0.5L252.2,327.5
							L252.2,327.5z"/>
					</g>
				</g>
			</g>
			<g>
				<g>
					<g class="st3">
						<path class="st5" d="M130,335.8v7.2h-0.9v-7.2H130z"/>
						<path class="st5" d="M131.5,335.8h0.8l3,5.1v-5.1h0.9v7.2h-0.8l-3-5.2v5.2h-0.9L131.5,335.8L131.5,335.8z"/>
						<path class="st5" d="M143.1,341.2l0.7,0.6c-0.8,0.8-1.7,1.2-2.7,1.2c-1,0-1.9-0.4-2.6-1.1s-1.1-1.6-1.1-2.6
							c0-1,0.4-1.9,1.1-2.6c0.7-0.7,1.6-1.1,2.6-1.1c0.9,0,1.8,0.4,2.7,1.2l-0.7,0.6c-0.6-0.6-1.3-0.9-2-0.9c-0.7,0-1.4,0.3-1.9,0.8
							s-0.8,1.2-0.8,1.9c0,0.8,0.3,1.4,0.8,1.9s1.2,0.8,1.9,0.8C141.8,342.1,142.5,341.8,143.1,341.2z"/>
						<path class="st5" d="M147.4,335.8l2.6,7.2h-1l-0.9-2.5h-1.9l-0.9,2.5h-1l2.6-7.2H147.4z M147.7,339.5l-0.6-1.7l-0.6,1.7H147.7
							z"/>
						<path class="st5" d="M151.8,340.6v2.3h-0.9v-7.2h2c0.6,0.1,1.1,0.3,1.5,0.7c0.5,0.5,0.7,1.1,0.7,1.7c0,0.7-0.2,1.2-0.7,1.7
							c-0.5,0.5-1,0.7-1.7,0.7L151.8,340.6L151.8,340.6z M151.8,336.7v3h0.8c0.4,0,0.8-0.1,1.1-0.4c0.3-0.3,0.4-0.6,0.4-1.1
							c0-0.4-0.1-0.8-0.4-1.1c-0.3-0.3-0.6-0.4-1.1-0.4H151.8z"/>
						<path class="st5" d="M158.1,335.8l2.6,7.2h-1l-0.9-2.5h-1.9l-0.9,2.5h-1l2.6-7.2H158.1z M158.4,339.5l-0.6-1.7l-0.6,1.7H158.4
							z"/>
						<path class="st5" d="M166.9,341.2l0.7,0.6c-0.8,0.8-1.7,1.2-2.7,1.2c-1,0-1.9-0.4-2.6-1.1s-1.1-1.6-1.1-2.6
							c0-1,0.4-1.9,1.1-2.6c0.7-0.7,1.6-1.1,2.6-1.1c0.9,0,1.8,0.4,2.7,1.2l-0.7,0.6c-0.6-0.6-1.3-0.9-2-0.9c-0.7,0-1.4,0.3-1.9,0.8
							c-0.5,0.5-0.8,1.2-0.8,1.9c0,0.8,0.3,1.4,0.8,1.9c0.5,0.5,1.2,0.8,1.9,0.8C165.6,342.1,166.3,341.8,166.9,341.2z"/>
						<path class="st5" d="M169.8,335.8v7.2h-0.9v-7.2H169.8z"/>
						<path class="st5" d="M173.3,336.7v6.2h-0.9v-6.2h-1.7v-0.9h4.3v0.9H173.3z"/>
						<path class="st5" d="M178.2,335.8l2.6,7.2h-1l-0.9-2.5H177l-0.9,2.5h-1l2.6-7.2H178.2z M178.6,339.5l-0.6-1.7l-0.6,1.7H178.6z
							"/>
						<path class="st5" d="M182.4,335.8c1.2,0,2.1,0.3,2.7,1c0.7,0.7,1.1,1.6,1.1,2.6c0,1-0.4,1.9-1.1,2.6c-0.6,0.7-1.6,1-2.7,1
							h-0.7v-7.2L182.4,335.8L182.4,335.8z M182.7,336.7v5.3c0.7,0,1.3-0.2,1.8-0.7c0.5-0.5,0.8-1.2,0.8-1.9c0-0.8-0.3-1.4-0.8-1.9
							C184,337,183.4,336.7,182.7,336.7z"/>
						<path class="st5" d="M193.5,336.8c0.7,0.7,1.1,1.6,1.1,2.6s-0.4,1.9-1.1,2.6c-0.7,0.7-1.6,1.1-2.6,1.1c-1,0-1.9-0.4-2.6-1.1
							c-0.7-0.7-1.1-1.6-1.1-2.6s0.4-1.9,1.1-2.6c0.7-0.7,1.6-1.1,2.6-1.1C191.9,335.7,192.8,336,193.5,336.8z M190.9,336.6
							c-0.8,0-1.4,0.3-1.9,0.8c-0.5,0.5-0.8,1.2-0.8,1.9c0,0.8,0.3,1.4,0.8,1.9c0.5,0.5,1.2,0.8,1.9,0.8c0.8,0,1.4-0.3,1.9-0.8
							c0.5-0.5,0.8-1.2,0.8-1.9c0-0.8-0.3-1.4-0.8-1.9C192.3,336.9,191.6,336.6,190.9,336.6z"/>
						<path class="st5" d="M199.9,340.6v2.3h-0.9v-7.2h2c0.6,0.1,1.1,0.3,1.5,0.7c0.5,0.5,0.7,1.1,0.7,1.7c0,0.7-0.2,1.2-0.7,1.7
							c-0.5,0.5-1,0.7-1.7,0.7L199.9,340.6L199.9,340.6z M199.9,336.7v3h0.8c0.4,0,0.8-0.1,1.1-0.4c0.3-0.3,0.4-0.6,0.4-1.1
							c0-0.4-0.1-0.8-0.4-1.1c-0.3-0.3-0.6-0.4-1.1-0.4H199.9z"/>
						<path class="st5" d="M207.9,335.8v0.9H205v2.2h2.9v0.9H205v2.2h2.9v0.9h-3.9v-7.2L207.9,335.8L207.9,335.8z"/>
						<path class="st5" d="M210.9,340.6h-0.8v2.3h-0.9v-7.2h2c0.6,0.1,1.1,0.3,1.5,0.7c0.5,0.5,0.7,1.1,0.7,1.7
							c0,0.7-0.2,1.2-0.7,1.7c-0.3,0.3-0.6,0.5-0.8,0.6l1.6,2.4h-1.1L210.9,340.6z M210.1,336.7v3h0.8c0.4,0,0.8-0.1,1.1-0.4
							c0.3-0.3,0.4-0.6,0.4-1.1c0-0.4-0.1-0.8-0.4-1.1c-0.3-0.3-0.6-0.4-1.1-0.4H210.1z"/>
						<path class="st5" d="M215.5,335.8l2.3,4l2.3-4h0.8v7.2H220v-5.2l-2.2,3.9l-2.2-3.9v5.2h-0.9v-7.2H215.5z"/>
						<path class="st5" d="M225.2,335.8l2.6,7.2h-1l-0.9-2.5H224l-0.9,2.5h-1l2.6-7.2H225.2z M225.5,339.5l-0.6-1.7l-0.6,1.7H225.5z
							"/>
						<path class="st5" d="M228.7,335.8h0.8l3,5.1v-5.1h0.9v7.2h-0.8l-3-5.2v5.2h-0.9L228.7,335.8L228.7,335.8z"/>
						<path class="st5" d="M238.6,335.8v0.9h-2.9v2.2h2.9v0.9h-2.9v2.2h2.9v0.9h-3.9v-7.2L238.6,335.8L238.6,335.8z"/>
						<path class="st5" d="M239.8,335.8h0.8l3,5.1v-5.1h0.9v7.2h-0.8l-3-5.2v5.2h-0.9V335.8z"/>
						<path class="st5" d="M248,336.7v6.2h-0.9v-6.2h-1.7v-0.9h4.3v0.9H248z"/>
						<path class="st5" d="M254.5,335.8v0.9h-2.9v2.2h2.9v0.9h-2.9v2.2h2.9v0.9h-3.9v-7.2L254.5,335.8L254.5,335.8z"/>
						<path class="st5" d="M130.8,351.6v2.3h-0.9v-7.2h2c0.6,0.1,1.1,0.3,1.5,0.7c0.5,0.5,0.7,1,0.7,1.7c0,0.7-0.2,1.2-0.7,1.7
							c-0.5,0.5-1,0.7-1.7,0.7L130.8,351.6L130.8,351.6z M130.8,347.7v3h0.8c0.4,0,0.8-0.1,1.1-0.4c0.3-0.3,0.4-0.6,0.4-1.1
							s-0.1-0.8-0.4-1.1c-0.3-0.3-0.6-0.4-1.1-0.4L130.8,347.7L130.8,347.7z"/>
						<path class="st5" d="M137.1,346.8l2.6,7.2h-1l-0.9-2.5h-1.9l-0.9,2.5h-1l2.6-7.2H137.1z M137.4,350.5l-0.6-1.7l-0.6,1.7H137.4
							z"/>
						<path class="st5" d="M142.3,351.6h-0.8v2.3h-0.9v-7.2h2c0.6,0.1,1.1,0.3,1.5,0.7c0.5,0.5,0.7,1,0.7,1.7c0,0.7-0.2,1.2-0.7,1.7
							c-0.3,0.3-0.6,0.5-0.8,0.6l1.6,2.4h-1.1L142.3,351.6z M141.5,347.7v3h0.8c0.4,0,0.8-0.1,1.1-0.4c0.3-0.3,0.4-0.6,0.4-1.1
							s-0.1-0.8-0.4-1.1c-0.3-0.3-0.6-0.4-1.1-0.4L141.5,347.7L141.5,347.7z"/>
						<path class="st5" d="M148.5,346.8l2.6,7.2h-1l-0.9-2.5h-1.9l-0.9,2.5h-1l2.6-7.2H148.5z M148.8,350.5l-0.6-1.7l-0.6,1.7H148.8
							z"/>
						<path class="st5" d="M157.2,347.7v6.2h-0.9v-6.2h-1.7v-0.9h4.3v0.9H157.2z"/>
						<path class="st5" d="M161.5,351.6h-0.8v2.3h-0.9v-7.2h2c0.6,0.1,1.1,0.3,1.5,0.7c0.5,0.5,0.7,1,0.7,1.7c0,0.7-0.2,1.2-0.7,1.7
							c-0.3,0.3-0.6,0.5-0.8,0.6l1.6,2.4h-1.1L161.5,351.6z M160.7,347.7v3h0.8c0.4,0,0.8-0.1,1.1-0.4c0.3-0.3,0.4-0.6,0.4-1.1
							s-0.1-0.8-0.4-1.1c-0.3-0.3-0.6-0.4-1.1-0.4L160.7,347.7L160.7,347.7z"/>
						<path class="st5" d="M167.6,346.8l2.6,7.2h-1l-0.9-2.5h-1.9l-0.9,2.5h-1l2.6-7.2H167.6z M168,350.5l-0.6-1.7l-0.6,1.7H168z"/>
						<path class="st5" d="M172.6,346.8c0.4,0,0.8,0.1,1.1,0.4c0.3,0.3,0.4,0.6,0.4,1.1c0,0.4-0.2,0.7-0.6,0.8
							c0.3,0,0.7,0.3,1.1,0.7c0.4,0.4,0.6,0.9,0.6,1.6s-0.2,1.3-0.7,1.8c-0.5,0.5-0.9,0.7-1.4,0.7v0h-1.8v-7.2L172.6,346.8
							L172.6,346.8z M172.1,347.7v1.1h0.6c0.1,0,0.3-0.1,0.4-0.2c0.1-0.1,0.2-0.2,0.2-0.4c0-0.2-0.1-0.3-0.2-0.4
							c-0.1-0.1-0.3-0.2-0.4-0.2L172.1,347.7L172.1,347.7z M172.1,349.8v3.2h0.9v0c0.2,0,0.4-0.2,0.7-0.5c0.3-0.3,0.5-0.7,0.5-1.1
							c0-0.4-0.2-0.8-0.5-1.1c-0.3-0.3-0.7-0.5-1.1-0.5H172.1z"/>
						<path class="st5" d="M178.8,346.8l2.6,7.2h-1l-0.9-2.5h-1.9l-0.9,2.5h-1l2.6-7.2H178.8z M179.1,350.5l-0.6-1.7l-0.6,1.7H179.1
							z"/>
						<path class="st5" d="M185.1,352.4c0,0.5-0.1,0.9-0.4,1.2c-0.3,0.3-0.6,0.4-1.1,0.4c-0.4,0-0.8-0.1-1-0.4
							c-0.3-0.3-0.4-0.7-0.4-1.2l0.7-0.3c0.1,0.5,0.2,0.7,0.3,0.8c0.1,0.1,0.2,0.1,0.4,0.1h0c0.2,0,0.3-0.1,0.4-0.2
							c0.1-0.1,0.1-0.3,0.1-0.5v-5.6h0.9L185.1,352.4L185.1,352.4z"/>
						<path class="st5" d="M189,346.8l2.6,7.2h-1l-0.9-2.5h-1.9l-0.9,2.5h-1l2.6-7.2H189z M189.4,350.5l-0.6-1.7l-0.6,1.7H189.4z"/>
						<path class="st5" d="M194.3,351.6h-0.8v2.3h-0.9v-7.2h2c0.6,0.1,1.1,0.3,1.5,0.7c0.5,0.5,0.7,1,0.7,1.7c0,0.7-0.2,1.2-0.7,1.7
							c-0.3,0.3-0.6,0.5-0.8,0.6l1.6,2.4h-1.1L194.3,351.6z M193.4,347.7v3h0.8c0.4,0,0.8-0.1,1.1-0.4c0.3-0.3,0.4-0.6,0.4-1.1
							s-0.1-0.8-0.4-1.1c-0.3-0.3-0.6-0.4-1.1-0.4L193.4,347.7L193.4,347.7z"/>
						<path class="st5" d="M202.7,350.3c-0.5-0.2-0.9-0.4-1.2-0.7s-0.5-0.7-0.5-1.2c0-0.5,0.2-0.9,0.5-1.2c0.3-0.3,0.7-0.5,1.2-0.5
							c0.5,0,0.9,0.2,1.2,0.5c0.2,0.2,0.3,0.5,0.5,0.9l-0.8,0.3c-0.1-0.3-0.2-0.5-0.3-0.5c-0.1-0.1-0.3-0.2-0.5-0.2
							c-0.2,0-0.4,0.1-0.5,0.2c-0.1,0.1-0.2,0.3-0.2,0.5s0.1,0.4,0.2,0.5c0.2,0.2,0.4,0.3,0.7,0.4c0.6,0.2,1,0.5,1.4,0.9
							c0.4,0.4,0.7,1,0.7,1.6s-0.2,1.1-0.7,1.6s-1,0.7-1.6,0.7c-0.6,0-1.1-0.2-1.6-0.7c-0.3-0.4-0.6-0.8-0.7-1.4l0.9-0.3
							c0.1,0.5,0.2,0.9,0.4,1.1c0.3,0.3,0.6,0.4,0.9,0.4s0.7-0.1,0.9-0.4c0.3-0.3,0.4-0.6,0.4-0.9c0-0.4-0.1-0.7-0.4-0.9
							C203.4,350.6,203.1,350.4,202.7,350.3z"/>
						<path class="st5" d="M206.8,346.8v7.2h-0.9v-7.2H206.8z"/>
						<path class="st5" d="M208.3,346.8h0.8l3,5.1v-5.1h0.9v7.2h-0.8l-3-5.2v5.2h-0.9L208.3,346.8L208.3,346.8z"/>
						<path class="st5" d="M218.4,351.6v2.3h-0.9v-7.2h2c0.6,0.1,1.1,0.3,1.5,0.7c0.5,0.5,0.7,1,0.7,1.7c0,0.7-0.2,1.2-0.7,1.7
							c-0.5,0.5-1,0.7-1.7,0.7L218.4,351.6L218.4,351.6z M218.4,347.7v3h0.8c0.4,0,0.8-0.1,1.1-0.4c0.3-0.3,0.4-0.6,0.4-1.1
							s-0.1-0.8-0.4-1.1c-0.3-0.3-0.6-0.4-1.1-0.4L218.4,347.7L218.4,347.7z"/>
						<path class="st5" d="M226.5,346.8v0.9h-2.9v2.2h2.9v0.9h-2.9v2.2h2.9v0.9h-3.9v-7.2L226.5,346.8L226.5,346.8z"/>
						<path class="st5" d="M227.7,346.8h0.8l3,5.1v-5.1h0.9v7.2h-0.8l-3-5.2v5.2h-0.9L227.7,346.8L227.7,346.8z"/>
						<path class="st5" d="M235.6,350.3c-0.5-0.2-0.9-0.4-1.2-0.7s-0.5-0.7-0.5-1.2c0-0.5,0.2-0.9,0.5-1.2c0.3-0.3,0.7-0.5,1.2-0.5
							c0.5,0,0.9,0.2,1.2,0.5c0.2,0.2,0.3,0.5,0.5,0.9l-0.8,0.3c-0.1-0.3-0.2-0.5-0.3-0.5c-0.1-0.1-0.3-0.2-0.5-0.2
							c-0.2,0-0.4,0.1-0.5,0.2c-0.1,0.1-0.2,0.3-0.2,0.5s0.1,0.4,0.2,0.5c0.2,0.2,0.4,0.3,0.7,0.4c0.6,0.2,1,0.5,1.4,0.9
							c0.4,0.4,0.7,1,0.7,1.6s-0.2,1.1-0.7,1.6s-1,0.7-1.6,0.7c-0.6,0-1.1-0.2-1.6-0.7c-0.3-0.4-0.6-0.8-0.7-1.4l0.9-0.3
							c0.1,0.5,0.2,0.9,0.4,1.1c0.3,0.3,0.6,0.4,0.9,0.4s0.7-0.1,0.9-0.4c0.3-0.3,0.4-0.6,0.4-0.9c0-0.4-0.1-0.7-0.4-0.9
							C236.3,350.6,236,350.4,235.6,350.3z"/>
						<path class="st5" d="M239.7,346.8v7.2h-0.9v-7.2H239.7z"/>
						<path class="st5" d="M247.3,347.7c0.7,0.7,1.1,1.6,1.1,2.6c0,1-0.4,1.9-1.1,2.6c-0.7,0.7-1.6,1.1-2.6,1.1s-1.9-0.4-2.6-1.1
							c-0.7-0.7-1.1-1.6-1.1-2.6c0-1,0.4-1.9,1.1-2.6c0.7-0.7,1.6-1.1,2.6-1.1S246.6,347,247.3,347.7z M244.7,347.6
							c-0.8,0-1.4,0.3-1.9,0.8c-0.5,0.5-0.8,1.2-0.8,1.9c0,0.8,0.3,1.4,0.8,1.9c0.5,0.5,1.2,0.8,1.9,0.8c0.8,0,1.4-0.3,1.9-0.8
							c0.5-0.5,0.8-1.2,0.8-1.9c0-0.8-0.3-1.4-0.8-1.9C246.1,347.9,245.5,347.6,244.7,347.6z"/>
						<path class="st5" d="M249.6,346.8h0.8l3,5.1v-5.1h0.9v7.2h-0.8l-3-5.2v5.2h-0.9V346.8z"/>
					</g>
				</g>
			</g>
			<g>
				<g>
					<g class="st3">
						<path class="st4" d="M573.7,119.1V155h-9v-19.2c0-2.8-0.1-4.4-0.2-5c-0.1-0.6-0.5-1-1.1-1.3c-0.6-0.3-1.9-0.4-4-0.4h-0.9v-4.2
							c4.3-0.9,7.6-2.8,9.9-5.7C568.5,119.1,573.7,119.1,573.7,119.1z"/>
						<path class="st4" d="M596.5,148.9v6.1h-19.7l0-5.1c5.8-9.5,9.3-15.4,10.4-17.7c1.1-2.3,1.7-4,1.7-5.3c0-1-0.2-1.7-0.5-2.2
							c-0.3-0.5-0.8-0.7-1.5-0.7c-0.7,0-1.2,0.3-1.5,0.8c-0.3,0.5-0.5,1.6-0.5,3.2v3.4h-8V130c0-2,0.1-3.6,0.3-4.8s0.7-2.3,1.5-3.4
							c0.8-1.1,1.9-2,3.2-2.5c1.3-0.6,2.9-0.9,4.7-0.9c3.6,0,6.3,0.9,8.1,2.6s2.7,4,2.7,6.7c0,2.1-0.5,4.2-1.5,6.5
							s-4.1,7.1-9.1,14.6L596.5,148.9L596.5,148.9z"/>
						<path class="st4" d="M620.4,125.2v6.2c0,1.6-0.2,2.8-0.5,3.6c-0.3,0.8-1,1.5-2,2.1c-1,0.6-2.3,0.9-4,0.9
							c-1.9,0-3.3-0.3-4.3-0.9s-1.7-1.3-2-2.1c-0.3-0.8-0.5-1.9-0.5-3.4v-6.4c0-1.8,0.2-3.1,0.5-3.9c0.4-0.8,1.1-1.5,2.1-2.1
							c1-0.5,2.3-0.8,3.8-0.8c1.7,0,3.1,0.3,4.1,0.9c1,0.6,1.8,1.3,2.1,2.1C620.2,122.3,620.4,123.5,620.4,125.2z M614.7,123.7
							c0-0.9,0-1.5-0.1-1.8c-0.1-0.2-0.4-0.3-0.8-0.3c-0.4,0-0.7,0.1-0.8,0.4c-0.1,0.2-0.2,0.8-0.2,1.7v9c0,1,0.1,1.7,0.2,1.9
							c0.1,0.2,0.4,0.3,0.8,0.3c0.4,0,0.6-0.1,0.7-0.4c0.1-0.2,0.2-0.8,0.2-1.7L614.7,123.7L614.7,123.7z M630.9,118.4l-14,37.3
							h-3.4l14.1-37.3C627.5,118.4,630.9,118.4,630.9,118.4z M637.1,142.6v6.2c0,1.6-0.2,2.8-0.5,3.6s-1,1.5-2,2.1
							c-1,0.6-2.3,0.9-4,0.9c-1.9,0-3.3-0.3-4.3-0.9s-1.7-1.3-2-2.1c-0.3-0.8-0.5-1.9-0.5-3.4v-6.5c0-1.8,0.2-3.1,0.5-3.9
							c0.4-0.9,1.1-1.5,2.1-2.1c1-0.5,2.3-0.8,3.8-0.8c1.7,0,3.1,0.3,4.1,0.9s1.7,1.3,2.1,2.1S637.1,140.9,637.1,142.6z M631.4,141
							c0-0.9,0-1.5-0.1-1.8c-0.1-0.2-0.4-0.3-0.8-0.3c-0.4,0-0.7,0.1-0.8,0.4s-0.2,0.8-0.2,1.8v9c0,1,0.1,1.6,0.2,1.8
							s0.4,0.3,0.8,0.3c0.4,0,0.7-0.1,0.8-0.3c0.1-0.2,0.2-0.8,0.2-1.7L631.4,141L631.4,141z"/>
					</g>
				</g>
			</g>
			<g>
				<g>
					<path class="st5" d="M559.5,171.6v11.2h-1.7v-11.2h-3v-1.7h7.7v1.7H559.5z"/>
					<path class="st5" d="M567.3,178.7h-1.5v4.1h-1.7v-12.9h3.7c1,0.1,1.9,0.6,2.6,1.3c0.9,0.9,1.3,1.9,1.3,3.1
						c0,1.2-0.4,2.2-1.3,3.1c-0.6,0.6-1,0.9-1.4,1l2.9,4.4h-2L567.3,178.7z M565.8,171.6v5.4h1.5c0.7,0,1.4-0.3,1.9-0.8
						c0.5-0.5,0.8-1.2,0.8-1.9c0-0.7-0.3-1.4-0.8-1.9c-0.5-0.5-1.2-0.8-1.9-0.8H565.8z"/>
					<path class="st5" d="M578.3,169.9l4.7,12.9h-1.8l-1.7-4.6h-3.4l-1.7,4.6h-1.8l4.7-12.9H578.3z M579,176.6l-1.1-3l-1.1,3H579z"
						/>
					<path class="st5" d="M587.2,169.9c0.7,0,1.4,0.3,1.9,0.8c0.5,0.5,0.8,1.2,0.8,1.9c0,0.8-0.4,1.2-1.2,1.4
						c0.6,0.1,1.2,0.5,1.9,1.2c0.7,0.7,1.1,1.7,1.1,3c0,1.3-0.4,2.4-1.3,3.3c-0.8,0.9-1.7,1.3-2.5,1.3v0h-3.3v-12.9L587.2,169.9
						L587.2,169.9z M586.3,171.6v2h1.1c0.2,0,0.5-0.1,0.6-0.3c0.2-0.2,0.3-0.4,0.3-0.7s-0.1-0.5-0.3-0.7s-0.5-0.3-0.8-0.3H586.3z
						 M586.3,175.3v5.8h1.6v0c0.3,0,0.8-0.3,1.3-0.8c0.6-0.6,0.8-1.3,0.8-2.1c0-0.8-0.3-1.5-0.8-2c-0.6-0.6-1.2-0.8-2-0.8
						L586.3,175.3L586.3,175.3z"/>
					<path class="st5" d="M598.4,169.9l4.7,12.9h-1.8l-1.7-4.6h-3.4l-1.7,4.6h-1.8l4.7-12.9H598.4z M599,176.6l-1.1-3l-1.1,3H599z"
						/>
					<path class="st5" d="M609.8,180c0,0.9-0.2,1.6-0.7,2.1c-0.5,0.5-1.2,0.8-1.9,0.8c-0.7,0-1.4-0.3-1.9-0.8s-0.8-1.2-0.8-2.1
						l1.3-0.5c0.2,0.8,0.3,1.3,0.6,1.5c0.2,0.1,0.4,0.2,0.7,0.2h0c0.3,0,0.6-0.1,0.8-0.3c0.2-0.2,0.2-0.5,0.2-1v-10.1h1.7L609.8,180
						L609.8,180z"/>
					<path class="st5" d="M616.8,169.9l4.7,12.9h-1.8l-1.7-4.6h-3.4l-1.7,4.6h-1.8l4.7-12.9H616.8z M617.4,176.6l-1.1-3l-1.1,3
						H617.4z"/>
					<path class="st5" d="M623.1,169.9h1.5l5.3,9.2v-9.2h1.7v12.9h-1.5l-5.4-9.3v9.3h-1.7L623.1,169.9L623.1,169.9z"/>
					<path class="st5" d="M635.2,169.9c2.1,0,3.7,0.6,4.9,1.8c1.3,1.3,1.9,2.8,1.9,4.7c0,1.8-0.6,3.4-1.9,4.7
						c-1.2,1.2-2.8,1.8-4.9,1.8H634v-12.9L635.2,169.9L635.2,169.9z M635.7,171.6v9.5c1.3,0,2.4-0.4,3.3-1.3c1-1,1.4-2.1,1.4-3.5
						c0-1.4-0.5-2.5-1.4-3.5C638.1,172,637,171.6,635.7,171.6z"/>
					<path class="st5" d="M655.1,171.7c1.3,1.3,1.9,2.8,1.9,4.7c0,1.8-0.6,3.4-1.9,4.7c-1.3,1.3-2.8,1.9-4.7,1.9s-3.4-0.6-4.7-1.9
						c-1.3-1.3-1.9-2.8-1.9-4.7c0-1.8,0.6-3.4,1.9-4.7c1.3-1.3,2.8-1.9,4.7-1.9S653.8,170.4,655.1,171.7z M650.5,171.4
						c-1.4,0-2.5,0.5-3.5,1.4c-1,1-1.4,2.1-1.4,3.5s0.5,2.5,1.4,3.5s2.1,1.4,3.5,1.4c1.4,0,2.5-0.5,3.5-1.4c1-1,1.4-2.1,1.4-3.5
						c0-1.4-0.5-2.5-1.4-3.5C653,171.9,651.8,171.4,650.5,171.4z"/>
				</g>
			</g>
			<path class="st6" d="M328.5,182.5c-1.4-5.2-2.8-9.9-4.1-14.5c-4.9-17.9-9.9-35.7-14.8-53.6c-1.9-7-3.8-14-5.8-21
				c-0.6-1.9,0-2.6,1.9-3.1c28.6-6.6,54.9-1.4,78.9,15.5c4.1,2.9,7.5,6.6,11.3,9.9c1.2,1.1,1.2,2,0,3.1c-6.9,6.5-13.7,13-20.6,19.6
				c-0.2,0.2-0.5,0.5-0.8,0.7c-7.2,7-14.4,14-21.6,20.9c-7.4,7.1-14.9,14.2-22.4,21.3C330.1,181.5,329.5,181.8,328.5,182.5z"/>
			<path class="st7" d="M303.3,192.2c-3.2-0.5-5.8-0.9-8.5-1.3c-27.5-4.4-55.1-8.8-82.6-13.2c-3-0.5-3.2-0.7-2.6-3.8
				c3.3-16.7,10.5-31.4,21.6-44.3c6.4-7.4,13.8-13.5,22-18.8c2.1-1.4,2.7-1.2,3.9,0.9c15,25.9,29.9,51.9,44.9,77.8
				C302.4,190.3,302.7,190.9,303.3,192.2z"/>
			<path class="st1" d="M344.5,196.6c0.8-1,1.3-1.6,1.8-2.2c1.6-1.6,3.4-3,5-4.6c10.6-10.1,21.1-20.3,31.6-30.4
				c8.1-7.8,16.3-15.5,24.5-23.3c1.3-1.3,2.8-2.4,4.1-3.7c1.2-1.2,2.2-1.1,3.1,0.1c3.9,5.2,8.2,10.2,11.6,15.7
				c8.6,14.1,12.7,29.5,13.3,46c0.1,2-0.5,2.5-2.5,2.5c-29.9-0.1-59.9-0.1-89.8-0.1C346.5,196.8,345.8,196.7,344.5,196.6z"/>
			<path class="st8" d="M343.1,218.3c3.9,1,7.8,1.9,11.7,2.9c17.5,4.6,35.1,9.2,52.6,13.7c8.3,2.2,16.6,4.3,24.9,6.4
				c1.8,0.5,2,1.3,1.6,2.9c-3.8,12.8-9.8,24.4-18.3,34.5c-3.6,4.2-7.8,7.9-11.7,11.9c-1.3,1.3-2.2,0.5-3-0.5
				c-2.9-3.5-5.8-7.1-8.7-10.7c-6.4-7.9-12.8-15.8-19.2-23.6c-6.2-7.7-12.4-15.4-18.6-23c-3.8-4.7-7.6-9.3-11.4-14
				C343,218.6,343,218.4,343.1,218.3z"/>
			<path class="st9" d="M347.3,208.3c0.7,0,1.4-0.1,2.1-0.1c29.7,0,59.3,0,89,0c2.1,0,2.9,0.6,2.6,2.7c-0.9,6.5-1.6,12.9-2.5,19.4
				c-0.2,1.7-0.9,2.2-2.8,1.8c-23-6-46.1-12-69.2-18c-5.8-1.5-11.7-3-17.5-4.6c-0.6-0.2-1.2-0.4-1.8-0.6
				C347.3,208.6,347.3,208.4,347.3,208.3z"/>
			<path class="st10" d="M297.2,203.6c-2.8,0.1-5.5,0.3-8.3,0.4c-14.6,0.4-29.2,0.8-43.8,1.3c-12.1,0.4-24.3,0.8-36.4,1.2
				c-4.7,0.1-4.8,0.1-4.6-4.5c0.1-4,0.6-7.9,0.8-11.9c0.1-1.3,0.7-1.7,2-1.5c16.5,2.7,33.1,5.3,49.6,8c12.8,2,25.6,4.1,38.4,6.1
				c0.8,0.1,1.5,0.3,2.3,0.5C297.2,203.3,297.2,203.4,297.2,203.6z"/>
			<path class="st11" d="M337.4,226.6c2.2,2.7,4.4,5.3,6.6,8c5.8,7.1,11.5,14.1,17.3,21.2c5.3,6.5,10.6,13.1,15.9,19.7
				c5.7,7,11.3,13.9,17.1,20.8c1.4,1.7,1.5,2.4-0.5,3.8c-3.7,2.5-7.5,4.9-11.2,7.4c-1.4,0.9-2.1,0.6-2.9-0.8
				c-6-11.3-12.1-22.5-18.1-33.7c-7.7-14.3-15.4-28.7-23.1-43c-0.5-1-1-2-1.5-3C337.1,226.8,337.3,226.7,337.4,226.6z"/>
			<path class="st12" d="M313.8,180.9c-1.4-3.3-2.8-6.5-4.2-9.8c-8.8-20.9-17.5-41.8-26.2-62.7c-1.6-3.7-3.1-7.5-4.7-11.2
				c-0.6-1.4-0.4-2.2,1.1-2.6c2.6-0.9,5.2-1.8,7.8-2.7c1.5-0.6,2.3-0.3,2.8,1.5c3.2,11.9,6.5,23.7,9.8,35.6
				c4.5,16.1,8.9,32.2,13.4,48.2c0.3,1.2,0.6,2.4,0.9,3.5C314.2,180.8,314,180.9,313.8,180.9z"/>
			<path class="st13" d="M310.8,181.5c-0.7-1.2-1.4-2.4-2.1-3.7c-13.4-23.1-26.7-46.2-40.1-69.4c-1-1.7-2-3.5-3-5.2
				c-0.7-1.1-0.6-1.9,0.6-2.5c2.4-1.2,4.8-2.4,7.2-3.6c1.6-0.9,2.6-0.5,3.3,1.3c3.6,8.8,7.3,17.6,11,26.4
				c5.8,13.9,11.7,27.7,17.5,41.6c2.1,4.9,4.1,9.9,6.1,14.8C311.1,181.3,311,181.4,310.8,181.5z"/>
			<path class="st14" d="M294.4,207.5c-9.3,0.9-18.6,1.8-27.8,2.7c-13.6,1.3-27.2,2.6-40.8,3.9c-6.5,0.6-13,1.2-19.5,1.9
				c-1.4,0.1-2-0.4-2.1-1.8c-0.2-4.4-1.2-4.5,4-4.6c17.3-0.5,34.7-1.1,52-1.7c8.5-0.3,17-0.4,25.5-0.7c2.9-0.1,5.7-0.2,8.6-0.3
				C294.4,207.1,294.4,207.3,294.4,207.5z"/>
			<path class="st15" d="M223.7,266c1,2.3,2.1,4.5,3.4,6.7c0.9,1.7,1.9,3.4,3,5c0.1,0.8,0.6,1.5,1.3,2c3.3,5,7.2,9.7,11.6,14.1
				c25,25,60.4,33,92.2,24.1c0,0,0,0,0.1,0c6.4-1.6,12.5-4,18.5-6.9c0.8-0.4,1.3-0.8,1.5-1.3c0.3-0.6,0.1-1.3-0.4-2.2
				c-1.1-1.8-2-3.8-3-5.6c-10.3-19.3-20.7-38.6-31-57.9c-2.7-5-5.4-10.1-8.1-15.1c-0.2-0.4-0.4-0.9-0.7-1.2c-0.5-0.7-1.1-1.2-2.3-1
				c-10.2,1-20.3,2-30.5,3c-10.7,1-21.4,2.1-32.2,3.1c-5.5,0.5-11,1-16.5,1.5l-14.8,1.2C216.6,245.9,219.2,256.2,223.7,266z"/>
			<g>
				<g>
					<polyline class="st16" points="406.6,174.4 495.3,174.4 495.4,129.7 541.8,129.7 					"/>
					<g>
						<circle class="st4" cx="406.9" cy="174.4" r="7.5"/>
					</g>
				</g>
			</g>
		</g>
	</g>
</g>
<text transform="matrix(1 0 0 1 409.1805 382.3695)"><tspan x="0" y="0" class="st17 st18 st19">Figura 12. Trabajando 12 %</tspan><tspan x="18" y="15.8" class="st17 st18 st19">Fuente: MSPS (2018)</tspan></text>
<polygon class="st5" points="246.2,344.5 247.3,344.5 246.1,345.8 245.2,345.8 "/>
<polygon class="st5" points="522.4,339 523.5,339 522.3,340.2 521.4,340.2 "/>
</svg>
