<?xml version="1.0" encoding="utf-8"?>
<!-- Generator: Adobe Illustrator 16.0.0, SVG Export Plug-In . SVG Version: 6.00 Build 0)  -->
<!DOCTYPE svg PUBLIC "-//W3C//DTD SVG 1.1//EN" "http://www.w3.org/Graphics/SVG/1.1/DTD/svg11.dtd">
<svg version="1.1" id="Capa_1" xmlns="http://www.w3.org/2000/svg" xmlns:xlink="http://www.w3.org/1999/xlink" x="0px" y="0px"
	 width="734.338px" height="413.177px" viewBox="0 0 734.338 413.177" enable-background="new 0 0 734.338 413.177"
	 xml:space="preserve">
<g>
	<g>
		<g>
			<path fill="#F39200" d="M208.062,67.377l1.11-0.598l0.971-0.522c0.017-0.01,0.036-0.008,0.055-0.01
				c0.019-0.003,0.035-0.012,0.054-0.01c0.036,0.006,0.071,0.022,0.098,0.051c0.055,0.055,0.065,0.139,0.028,0.206l-1.077,1.911
				l-0.107,0.271l0.031,0.106l0.143,0.062l0.25,0.027l0.38-0.126c0.013-0.005,0.025-0.007,0.04-0.009l0.382-0.035
				c0.047-0.004,0.095,0.011,0.13,0.043c0.036,0.031,0.058,0.076,0.06,0.123l0.034,0.799l0.03,0.27l0.195,0.39
				c0.012,0.024,0.018,0.051,0.018,0.078v0.243c0,0.019-0.003,0.037-0.009,0.055l-0.068,0.209c-0.007,0.016-0.015,0.031-0.023,0.045
				l-0.333,0.466l-0.033,0.101l0.099,0.138l0.485,0.258l1.849,0.614l0.23,0.051l0.255-0.143c0.03-0.016,0.063-0.023,0.098-0.021
				l0.486,0.035c0.084,0.006,0.151,0.072,0.16,0.156l0.035,0.348c0.003,0.029-0.002,0.061-0.015,0.088l-0.166,0.367l-0.162,0.711
				l0.097,0.521c0.004,0.021,0.004,0.043,0.001,0.063l-0.069,0.383l-0.249,0.752l-0.101,0.437l-0.065,0.742
				c-0.003,0.026-0.012,0.052-0.025,0.075l-0.158,0.253l-0.117,0.503l0.025-0.021l0.024-0.021c0.012-0.01,0.026-0.012,0.04-0.019
				c0.041-0.02,0.087-0.028,0.131-0.013l0.388,0.139l0.474-0.445c0.016-0.015,0.032-0.027,0.052-0.035l0.313-0.139
				c0.026-0.014,0.058-0.018,0.087-0.015l0,0l0,0l0.348,0.034c0.013,0.002,0.025,0.004,0.037,0.008l0.418,0.14
				c0.016,0.005,0.03,0.013,0.044,0.022l0.659,0.461l0.237,0.027l0.248-0.062c0.021-0.006,0.042-0.006,0.063-0.004l0.277,0.035
				c0.015,0,0.029,0.005,0.043,0.011l0.348,0.138c0.017,0.008,0.031,0.017,0.045,0.027l0.938,0.764
				c0.01,0.01,0.02,0.018,0.026,0.029l0.487,0.625l0.983,0.844l0.223,0.166h0.602c0.018,0,0.034,0.002,0.05,0.007l0.695,0.208
				c0.047,0.016,0.087,0.049,0.107,0.094c0.021,0.046,0.021,0.098,0.001,0.143l-0.459,1.051l0.039,0.115l0.089,0.112l0.336,0.122
				l0.391,0.089l0.497-0.124l0.261-0.131c0.024-0.012,0.051-0.018,0.078-0.018h0.173c0.059,0,0.113,0.029,0.146,0.076l0.19,0.287
				l0.46,0.328l0.186,0.09c0.029,0.016,0.055,0.039,0.071,0.066l0.104,0.174c0.036,0.061,0.032,0.138-0.011,0.193l-0.104,0.139
				l-0.305,0.477l-0.51,1.201l0.161,0.241c0.025,0.04,0.034,0.089,0.024,0.136l-0.02,0.08l-0.08,0.352v0.239l0.095,0.414
				l0.305,0.644c0.005,0.01,0.009,0.021,0.012,0.033l0.244,1.006c0.003,0.015,0.004,0.028,0.004,0.041v0.312l0.062,0.29l0.078,0.157
				l0.201,0.172l0.188,0.094c0.013,0.008,0.023,0.015,0.034,0.022l0.417,0.348c0.018,0.015,0.032,0.033,0.042,0.054l0.452,0.868
				l0.397,0.828l0.964,0.599l0.636,0.266c0.015,0.006,0.027,0.013,0.039,0.021l2.224,1.702l1.134,1.236l1.188,1.813l0.3,0.301
				c0.011,0.011,0.021,0.023,0.028,0.035l0.139,0.244c0.015,0.026,0.022,0.057,0.022,0.087v0.173c0,0.047-0.019,0.091-0.051,0.123
				l-0.296,0.297l-0.301,0.533c-0.009,0.018-0.022,0.033-0.036,0.047l-0.562,0.494l-0.174,0.404l0.41,2.695l0.222,0.626l0.25,0.25
				c0.022,0.023,0.039,0.053,0.047,0.083c0.001,0.008-0.003,0.015-0.002,0.021c0.003,0.025,0.006,0.05-0.003,0.074l-0.025,0.077
				v0.493l0.067,0.677l0.205,0.772l0.039,0.446c0.001,0.02,0,0.038-0.004,0.058l-0.07,0.277l-0.316,0.917
				c-0.005,0.014-0.011,0.024-0.018,0.036l-0.174,0.277c-0.034,0.057-0.096,0.089-0.162,0.082l-0.383-0.035
				c-0.013-0.002-0.026-0.004-0.038-0.009l-0.138-0.045l-0.02,0.058l-0.068,0.572c-0.001,0.018-0.006,0.034-0.013,0.05l-0.243,0.556
				c-0.009,0.018-0.018,0.033-0.031,0.047l-0.347,0.383c-0.008,0.009-0.018,0.018-0.027,0.024l-0.486,0.348
				c-0.016,0.01-0.032,0.019-0.05,0.024l-0.556,0.173c-0.014,0.005-0.027,0.007-0.042,0.008l-0.625,0.034l0,0l0,0l-0.758-0.066
				l-0.175,0.051l-0.458,0.392l-0.225,0.151c-0.018,0.012-0.037,0.021-0.058,0.025l-0.415,0.098l0.093,0.351
				c0.007,0.025,0.007,0.052,0.002,0.076l-0.035,0.174c-0.006,0.031-0.021,0.06-0.042,0.083l-0.347,0.382l-0.232,0.321v0.257
				c0,0.024-0.005,0.05-0.016,0.072l-0.119,0.261l5.386,4.396c0.016,0.013,0.029,0.029,0.04,0.048l0.417,0.729l0.441,0.609
				l0.233,0.266c0.014,0.016,0.024,0.034,0.033,0.054l0.242,0.66c0.005,0.014,0.009,0.028,0.01,0.042l0.243,2.363l0.196,0.64
				l0.241,0.394l0.559,0.33c0.034,0.021,0.061,0.055,0.073,0.092l0.104,0.313c0.01,0.027,0.011,0.056,0.007,0.084l-0.069,0.417
				c-0.003,0.018-0.01,0.035-0.018,0.053l-0.347,0.658c-0.009,0.017-0.02,0.03-0.031,0.043l-0.417,0.416
				c-0.01,0.011-0.021,0.02-0.034,0.026l-0.521,0.313l-0.472,0.347l-0.249,0.528l-0.309,1.921l0.001,0.702l0.1,0.574l0.433,0.966
				l0.784,0.955l0.441,0.407l0.369,0.113l0.363-0.083l0.488-0.424l0.276-0.341l0.407-0.984l0.253-0.438
				c0.011-0.019,0.026-0.036,0.044-0.05l0.938-0.729c0.045-0.035,0.104-0.046,0.158-0.028c0.055,0.016,0.097,0.059,0.114,0.113
				l0.417,1.319c0.009,0.031,0.011,0.063,0.003,0.095l-0.139,0.556l-0.145,0.399c-0.006,0.013-0.011,0.025-0.019,0.037l-0.209,0.312
				l-0.488,0.527l-0.15,0.271l-0.093,0.46l0.098,0.523l0.003,0.97c0,0.018-0.002,0.034-0.007,0.051l-0.234,0.77l0.033,0.56
				l0.169,0.699l0.374,0.912l0.214,0.747l0.239,0.648c0.005,0.012,0.008,0.024,0.01,0.037l0.069,0.521l0.095,0.473l0.194,0.279
				l0.491,0.214l0.406,0.062l0.673-0.066c0.007-0.001,0.012-0.002,0.018-0.002c0.015,0,0.028,0.003,0.043,0.005l0.323,0.081
				l7.425-7.082l0.131-0.913l0.283-0.996l0.277-0.66l0.025-0.153l-0.053-0.214l-0.193-0.288c-0.014-0.021-0.023-0.046-0.027-0.072
				l-0.033-0.243l-0.002-0.928c0-0.015,0.002-0.03,0.006-0.045l0.104-0.383c0.006-0.022,0.018-0.044,0.033-0.063l1.299-1.608
				l0.061-0.178c0.014-0.042,0.043-0.076,0.08-0.097l0.25-0.14l0.078-0.256v-0.773c0-0.019,0.002-0.037,0.008-0.055l0.139-0.416
				l0.021-0.159l-0.08-0.161l-0.197-0.293c-0.031-0.045-0.039-0.102-0.021-0.152l0.07-0.208c0.006-0.02,0.016-0.038,0.029-0.053
				l0.115-0.146l0.061-0.24l0.201-1.32l-0.033-0.467l-0.27-1.38l-0.08-0.155l-0.215-0.186c-0.029-0.025-0.049-0.059-0.057-0.096
				l-0.312-1.424c-0.006-0.026-0.006-0.053,0.002-0.079l0.055-0.231l-0.4-1.271c-0.004-0.014-0.006-0.027-0.008-0.039l-0.035-0.452
				l0.035-0.479l0.178-0.757l0.223-0.576l0,0c-0.021-0.043-0.025-0.093-0.008-0.138c0.016-0.046,0.051-0.081,0.094-0.1l0.545-0.229
				l0.141-0.226l0.18-0.252l0.227-0.23c0.021-0.021,0.047-0.035,0.076-0.045l0.193-0.055l0.178-0.201l0.02-0.122l-0.059-0.205
				l-0.068-0.411l-0.094-0.186c-0.016-0.029-0.021-0.064-0.016-0.098l0.033-0.277c0.004-0.039,0.021-0.074,0.051-0.103l0.209-0.21
				l0.057-0.23l0.209-0.459l0.031-0.218l-0.002-0.636l0,0c0-0.021,0.004-0.041,0.012-0.061l0.033-0.088l0.07-0.189l0.189-0.31
				l0.035-0.093l-0.045-0.178l-0.141-0.141c-0.025-0.025-0.043-0.061-0.049-0.098l-0.029-0.208l-0.006-0.036l0,0l0,0
				c-0.004-0.034,0.002-0.07,0.018-0.102l0.174-0.348l0.082-0.285l-0.17-1.633l-0.16-0.505l-0.514-0.923
				c-0.008-0.018-0.014-0.035-0.018-0.053l-0.104-0.557l-0.004-0.809l-0.055-0.221l-0.574-0.742
				c-0.014-0.02-0.023-0.041-0.027-0.064l-0.094-0.434l-0.012-0.053l-0.037-1.561c0-0.014,0-0.026,0.004-0.039l0.104-0.521
				c0.002-0.015,0.008-0.028,0.014-0.041l0.408-0.85l0.094-0.439l-0.062-0.589l-0.277-0.4l-0.393-0.376l-0.395-0.376l-0.398-0.504
				c-0.008-0.012-0.016-0.023-0.021-0.037l-0.277-0.625c-0.008-0.02-0.014-0.041-0.016-0.062l-0.033-0.694
				c-0.002-0.024,0.002-0.05,0.012-0.073l0.215-0.536l-0.477-0.2l-1.914-0.104c-0.025,0-0.051-0.008-0.074-0.02l-0.764-0.417
				c-0.076-0.042-0.109-0.132-0.08-0.212l0.107-0.295l-0.139-0.184l-0.295-0.229l-0.111-0.11l-0.264,0.384
				c-0.029,0.042-0.076,0.07-0.127,0.075l-0.729,0.069c-0.023,0.002-0.041,0-0.061-0.005l-0.799-0.208l-0.686-0.287
				c-0.057-0.023-0.096-0.076-0.104-0.138c-0.008-0.062,0.018-0.124,0.068-0.16l0.107-0.081l-0.141-0.125l-0.956-0.547
				c-0.02-0.012-0.037-0.026-0.052-0.045l-0.348-0.452l-0.614-0.953l-0.345-0.231l-0.855-0.032
				c-0.049-0.002-0.095-0.025-0.126-0.062l-0.174-0.208c-0.024-0.029-0.038-0.065-0.04-0.102l-0.032-0.61l-0.121-0.169l-0.416-0.225
				l-0.473-0.154l-0.399-0.031l-0.188,0.053l-0.187,0.125c-0.013,0.008-0.026,0.016-0.041,0.02l-0.208,0.069
				c-0.008,0.003-0.016,0.002-0.024,0.004c-0.028,0.005-0.057,0.003-0.085-0.005c-0.005-0.002-0.011-0.002-0.016-0.004l-0.313-0.14
				c-0.037-0.017-0.066-0.045-0.084-0.081l-0.104-0.209l-0.177-0.624l-0.039-0.052l-0.687-0.062l-0.314,0.031l-0.315,0.173
				l-0.22,0.313l-0.159,0.162l0,0l0,0c-0.005,0.005-0.011,0.008-0.017,0.012c-0.03,0.023-0.066,0.039-0.105,0.039h-0.001h-0.242
				c-0.017,0-0.032-0.002-0.048-0.006l-0.243-0.07c-0.023-0.007-0.045-0.018-0.063-0.033l-0.209-0.174
				c-0.012-0.011-0.023-0.023-0.033-0.037l-0.139-0.209c-0.01-0.016-0.019-0.031-0.023-0.05l-0.196-0.724l-0.34-0.371l-0.712-0.475
				l-0.224-0.184c-0.013-0.012-0.024-0.023-0.033-0.038l-0.277-0.417c-0.016-0.022-0.026-0.049-0.028-0.076l-0.032-0.29
				l-0.048-0.118l-0.131-0.131l-0.405-0.21h-0.288c-0.015,0-0.028-0.002-0.043-0.006l-0.055-0.013l-0.084-0.021
				c-0.01-0.002-0.015-0.012-0.024-0.016c-0.027-0.013-0.055-0.025-0.072-0.049l-0.104-0.139c-0.012-0.017-0.021-0.035-0.027-0.055
				l-0.099-0.326l-0.07-0.119l-0.201-0.125h-0.234l-0.285,0.095l-0.284,0.161c-0.076,0.043-0.173,0.021-0.225-0.051l-0.556-0.749
				l-0.598,0.09c-0.098,0.013-0.184-0.052-0.197-0.146l-0.14-0.903c-0.002-0.019-0.002-0.036,0-0.055l0.349-2.118l0.061-0.21
				l0.209-0.71l-0.055-0.302l-0.243-0.335l-0.611-0.544c-0.013-0.011-0.024-0.024-0.033-0.041l-0.209-0.347
				c-0.012-0.02-0.02-0.041-0.022-0.064l-0.069-0.486c-0.003-0.021-0.003-0.043,0.003-0.063l0.104-0.452l0.178-0.537l0.089-0.421
				l-0.109-0.329l-0.766-0.699c-0.011-0.01-0.02-0.021-0.028-0.032l-0.207-0.312l-0.222-0.476c-0.006-0.011-0.01-0.023-0.014-0.036
				l-0.104-0.485c-0.003-0.012-0.004-0.025-0.004-0.037l0,0v-1.111l0.036-0.533c0.001-0.021,0.005-0.041,0.014-0.059l0.139-0.312
				c0.013-0.029,0.033-0.053,0.059-0.071l0.243-0.174l0.856-0.431l0.212-0.162l0.113-0.281l0.061-0.551l-0.057-0.114l-0.267-0.147
				c-0.014-0.008-0.026-0.018-0.038-0.029l-0.069-0.069c-0.016-0.016-0.028-0.034-0.037-0.054l-0.304-0.711l-0.186-0.247l-0.229-0.2
				l-0.65-0.13l-0.203-0.078c-0.012-0.006-0.023-0.011-0.034-0.019l-0.434-0.301l-0.361-0.131c-0.023-0.009-0.045-0.023-0.063-0.041
				l-0.277-0.277c-0.025-0.025-0.043-0.06-0.049-0.096l-0.104-0.66c-0.004-0.017-0.004-0.033-0.001-0.049l0.069-0.521
				c0.002-0.016,0.006-0.029,0.011-0.044l0.313-0.765l0.165-0.803c0.003-0.018,0.009-0.033,0.018-0.049l0.116-0.209l-0.412-0.5
				l-1.027-1.199l-0.584-0.454l-0.487-0.13c-0.029-0.008-0.057-0.023-0.078-0.045l-0.976-0.977l-1.228,0.26
				c-0.07,0.014-0.143-0.016-0.182-0.076l-0.673-1.043l-0.312-0.188c-0.041-0.024-0.07-0.064-0.08-0.111
				c-0.012-0.046-0.001-0.095,0.024-0.134l0.157-0.237l-0.006-0.017l-0.31-0.112l-0.386-0.062l-0.888-0.067
				c-0.033-0.002-0.065-0.014-0.091-0.034l-0.14-0.104c-0.021-0.016-0.039-0.037-0.051-0.061l-0.31-0.586
				c-0.008-0.014-0.015-0.029-0.018-0.045l-0.069-0.312c-0.006-0.029-0.005-0.061,0.004-0.088l0.277-0.904l0.028-0.313
				c0.005-0.045,0.026-0.087,0.062-0.116l0.208-0.174l0.227-0.132l0.094-0.163v-0.475l-0.059-0.279l-0.105-0.157l-0.465-0.364
				l-0.154-0.152c-0.027-0.028-0.045-0.064-0.05-0.103l-0.035-0.278c-0.002-0.02-0.001-0.039,0.004-0.059l0.069-0.312
				c0.004-0.018,0.01-0.033,0.019-0.049l0.11-0.193l-0.117-0.118c-0.06-0.06-0.068-0.155-0.019-0.224l0.117-0.165l-0.235-0.107
				l-0.025,0.007l-0.138,0.165l-0.229,0.364c-0.007,0.01-0.015,0.02-0.024,0.029l-0.208,0.209c-0.022,0.021-0.051,0.038-0.081,0.045
				l-1.545,0.377l-0.538,0.271c-0.012,0.005-0.023,0.01-0.036,0.013l-0.01,0.002c-0.003,0.02-0.011,0.037-0.02,0.055l-0.14,0.242
				c-0.007,0.015-0.018,0.027-0.028,0.037l-0.208,0.209c-0.013,0.013-0.026,0.022-0.043,0.031l-0.05,0.2
				c-0.017,0.065-0.069,0.115-0.135,0.128l-0.174,0.035l-0.168,0.003l-0.38,0.178l0.1,0.139c0.021,0.03,0.032,0.064,0.032,0.101
				v0.141c0,0.045-0.019,0.09-0.051,0.122l-0.209,0.208c-0.011,0.011-0.023,0.021-0.037,0.028l-0.242,0.139l-0.344,0.118
				l-0.286,0.039l-0.185,0.078l-0.169,0.197l-0.035,0.07l0.205,0.045c0.06,0.014,0.108,0.057,0.127,0.115l0.07,0.208
				c0.005,0.015,0.007,0.028,0.009,0.044l0.035,0.521c0.001,0.025-0.003,0.052-0.013,0.076l-0.113,0.282l0.224,0.037
				c0.047,0.008,0.089,0.035,0.116,0.076l0.068,0.104c0.016,0.021,0.024,0.047,0.028,0.071l0.069,0.487l0.002,0.615
				c0,0.014-0.002,0.03-0.007,0.045l-0.138,0.52c-0.012,0.041-0.037,0.077-0.072,0.102l-0.312,0.207
				c-0.05,0.034-0.113,0.039-0.168,0.014l-0.383-0.174c-0.075-0.034-0.116-0.118-0.097-0.2l0.104-0.417
				c0.004-0.012,0.008-0.023,0.015-0.034l0.094-0.19l-0.329,0.381l-0.196,0.161c-0.01,0.008-0.021,0.015-0.031,0.02l-0.253,0.126
				l-0.128,0.146c0.018-0.007,0.038-0.011,0.06-0.011h0.175c0.081,0,0.151,0.056,0.169,0.136l0.136,0.594l0.038-0.031
				c0.03-0.024,0.068-0.039,0.108-0.039h0.174c0.092,0,0.167,0.072,0.173,0.163l0.035,0.556l0.136,0.6
				c0.002,0.012,0.004,0.024,0.004,0.037v0.556c0,0.051-0.022,0.1-0.062,0.133l-0.243,0.208l-0.888,0.57
				c-0.018,0.011-0.034,0.019-0.054,0.023l-0.452,0.104c-0.066,0.016-0.135-0.01-0.176-0.062l0.072,0.108
				c0.036,0.053,0.039,0.122,0.01,0.178c-0.031,0.057-0.09,0.092-0.153,0.092l-0.406,0.006l0.084,0.252
				c0.011,0.033,0.012,0.069,0.002,0.104l-0.069,0.243c-0.006,0.021-0.016,0.039-0.027,0.056l-0.197,0.262l-0.131,0.295
				c-0.005,0.012-0.011,0.021-0.018,0.031l-0.347,0.486c-0.015,0.02-0.031,0.035-0.052,0.047l-0.961,0.564l-0.234,0.539l0.167,0.025
				l0.864-0.512l0.922-0.955c0.008-0.009,0.017-0.016,0.027-0.023l0.973-0.66l0.741-0.424c0.063-0.037,0.146-0.028,0.201,0.021
				s0.073,0.13,0.045,0.197l-0.091,0.211v0.451l-0.036,0.268l-0.073,0.295c-0.005,0.019-0.012,0.036-0.022,0.051l-0.242,0.383
				l-0.232,0.502c-0.006,0.01-0.012,0.021-0.019,0.03l-0.104,0.139c-0.02,0.025-0.045,0.046-0.074,0.058l-0.308,0.123l-0.135,0.156
				l0.028,0.391L208.062,67.377z"/>
		</g>
	</g>
	<g>
		<g>
			<g>
				<g>
					<path fill="#FFFFFF" d="M497.14,175.864h7.383c2.332,0,4.099,0.182,5.3,0.545s2.171,1.098,2.909,2.205
						c0.738,1.106,1.107,2.889,1.107,5.349c0,1.663-0.261,2.822-0.782,3.478c-0.521,0.656-1.55,1.16-3.085,1.512
						c1.711,0.387,2.871,1.028,3.48,1.926c0.609,0.896,0.914,2.271,0.914,4.124v2.638c0,1.924-0.22,3.348-0.659,4.274
						s-1.14,1.56-2.101,1.899s-2.93,0.51-5.906,0.51h-8.561V175.864z M504.54,180.733v6.328c0.316-0.012,0.562-0.018,0.738-0.018
						c0.727,0,1.189-0.178,1.389-0.535s0.299-1.381,0.299-3.068c0-0.891-0.082-1.514-0.246-1.871s-0.378-0.584-0.642-0.678
						S505.302,180.745,504.54,180.733z M504.54,191.491v7.963c1.043-0.035,1.708-0.199,1.995-0.492s0.431-1.014,0.431-2.162v-2.654
						c0-1.219-0.129-1.957-0.387-2.215S505.642,191.526,504.54,191.491z"/>
					<path fill="#FFFFFF" d="M533.931,192.528c0,2.859-0.067,4.885-0.202,6.074s-0.557,2.275-1.266,3.26s-1.667,1.74-2.874,2.268
						s-2.613,0.791-4.219,0.791c-1.523,0-2.892-0.248-4.104-0.746s-2.188-1.246-2.927-2.242s-1.178-2.08-1.318-3.252
						s-0.211-3.223-0.211-6.152v-4.869c0-2.859,0.067-4.883,0.202-6.072s0.557-2.277,1.266-3.262s1.667-1.74,2.874-2.268
						s2.613-0.791,4.219-0.791c1.523,0,2.892,0.25,4.104,0.748s2.188,1.244,2.927,2.24s1.178,2.08,1.318,3.252
						s0.211,3.223,0.211,6.152V192.528z M526.53,183.177c0-1.324-0.073-2.17-0.22-2.539s-0.448-0.555-0.905-0.555
						c-0.387,0-0.683,0.15-0.888,0.449s-0.308,1.18-0.308,2.645v13.289c0,1.652,0.067,2.672,0.202,3.059s0.448,0.58,0.94,0.58
						c0.504,0,0.826-0.223,0.967-0.668s0.211-1.506,0.211-3.182V183.177z"/>
					<path fill="#FFFFFF" d="M544.091,175.864v22.764h4.5v5.695h-11.9v-28.459H544.091z"/>
					<path fill="#FFFFFF" d="M557.784,175.864v28.459h-7.4v-28.459H557.784z M560.069,170.204l-5.783,4.764h-3.568l3.094-4.764
						H560.069z"/>
					<path fill="#FFFFFF" d="M578.351,175.864l-3.766,28.459h-11.241l-4.276-28.459h7.805c0.907,7.84,1.555,14.473,1.942,19.898
						c0.382-5.483,0.788-10.353,1.218-14.605l0.514-5.293H578.351z"/>
					<path fill="#FFFFFF" d="M592.391,175.864l4.232,28.459h-7.563l-0.397-5.115h-2.647l-0.445,5.115h-7.651l3.775-28.459H592.391z
						 M588.469,194.163c-0.375-3.223-0.75-7.207-1.127-11.953c-0.754,5.45-1.228,9.435-1.42,11.953H588.469z"/>
					<path fill="#FFFFFF" d="M597.88,175.864h5.238c3.492,0,5.856,0.135,7.093,0.404s2.244,0.959,3.023,2.066
						s1.169,2.873,1.169,5.299c0,2.215-0.275,3.703-0.826,4.465s-1.635,1.219-3.252,1.371c1.465,0.363,2.449,0.85,2.953,1.459
						s0.817,1.17,0.94,1.68s0.185,1.912,0.185,4.209v7.506h-6.873v-9.457c0-1.523-0.12-2.467-0.36-2.83s-0.87-0.545-1.89-0.545
						v12.832h-7.4V175.864z M605.28,180.733v6.328c0.832,0,1.415-0.113,1.749-0.342s0.501-0.971,0.501-2.225v-1.564
						c0-0.902-0.161-1.494-0.483-1.775S606.136,180.733,605.28,180.733z"/>
				</g>
			</g>
		</g>
	</g>
	<g>
		<g>
			<path fill="#F2961C" d="M498.085,225.136v4.156h-1.68v-12.986h3.685c1.044,0.141,1.926,0.57,2.646,1.29
				c0.86,0.866,1.291,1.905,1.291,3.116c0,1.224-0.43,2.267-1.291,3.129c-0.86,0.863-1.899,1.295-3.117,1.295H498.085z
				 M498.085,217.993v5.455h1.534c0.747,0,1.387-0.268,1.92-0.8c0.533-0.533,0.799-1.179,0.799-1.937
				c0-0.752-0.267-1.393-0.799-1.924c-0.533-0.529-1.173-0.795-1.92-0.795H498.085z"/>
			<path fill="#F2961C" d="M512.314,226.427l1.68,0.601c-0.412,0.568-0.709,0.944-0.893,1.128c-0.904,0.904-1.994,1.355-3.271,1.355
				c-1.272,0-2.359-0.451-3.263-1.355c-0.904-0.903-1.355-1.994-1.355-3.271c0-1.277,0.452-2.368,1.355-3.271
				s1.991-1.355,3.263-1.355c1.277,0,2.367,0.452,3.271,1.355c0.184,0.185,0.481,0.555,0.893,1.112l-1.68,0.617
				c-0.217-0.266-0.363-0.436-0.438-0.512c-0.563-0.562-1.245-0.844-2.045-0.844c-0.795,0-1.476,0.282-2.042,0.848
				s-0.848,1.249-0.848,2.05c0,0.796,0.283,1.476,0.848,2.041s1.246,0.849,2.042,0.849c0.801,0,1.485-0.281,2.054-0.844
				C511.954,226.854,512.098,226.687,512.314,226.427z"/>
			<path fill="#F2961C" d="M517.176,216.306c2.11,0.01,3.755,0.607,4.935,1.793c1.293,1.305,1.94,2.871,1.94,4.699
				c0,1.835-0.646,3.401-1.94,4.7c-1.18,1.185-2.825,1.783-4.935,1.794h-1.233v-12.986H517.176z M517.623,218.018v9.569
				c1.336,0,2.432-0.43,3.287-1.29c0.963-0.963,1.445-2.13,1.445-3.499c0-1.363-0.482-2.529-1.445-3.498
				C520.055,218.445,518.959,218.018,517.623,218.018z"/>
			<path fill="#F2961C" d="M537.549,216.306h1.469v7.8h1.145v1.681h-1.145v3.506h-1.68v-3.506h-5.316L537.549,216.306z
				 M537.338,220.096l-2.395,4.01h2.395V220.096z"/>
			<path fill="#F2961C" d="M546.827,229.454c-1.331,0-2.395-0.398-3.19-1.197c-0.795-0.798-1.193-1.76-1.193-2.885
				c0-1.386,0.76-2.633,2.281-3.742c-0.73-0.785-1.096-1.6-1.096-2.443c0-0.828,0.296-1.543,0.889-2.143
				c0.592-0.602,1.316-0.901,2.171-0.901h0.268c0.855,0,1.58,0.3,2.175,0.901c0.595,0.6,0.893,1.314,0.893,2.143
				c0,0.844-0.395,1.65-1.185,2.419c1.58,1.126,2.37,2.381,2.37,3.767c0,1.125-0.398,2.087-1.193,2.885
				C549.221,229.056,548.158,229.454,546.827,229.454z M546.827,227.733c0.855,0,1.514-0.23,1.977-0.689
				c0.463-0.46,0.694-1.018,0.694-1.672c0-0.66-0.23-1.236-0.69-1.729c-0.454-0.497-1.115-0.836-1.98-1.015
				c-0.871,0.179-1.534,0.518-1.988,1.015c-0.455,0.493-0.682,1.069-0.682,1.729c0,0.654,0.23,1.212,0.69,1.672
				C545.306,227.503,545.966,227.733,546.827,227.733z M546.786,217.863c-0.038-0.005-0.07-0.008-0.097-0.008
				c-0.368,0-0.682,0.128-0.942,0.386c-0.26,0.257-0.39,0.572-0.39,0.945c0,0.379,0.137,0.715,0.41,1.006
				c0.273,0.293,0.521,0.482,0.743,0.568c0.119,0.044,0.225,0.073,0.316,0.09c0.092-0.017,0.198-0.046,0.317-0.09
				c0.216-0.086,0.462-0.275,0.738-0.568c0.276-0.291,0.414-0.627,0.414-1.006c0-0.373-0.13-0.688-0.39-0.945
				c-0.26-0.258-0.576-0.386-0.95-0.386c-0.021,0-0.051,0.003-0.089,0.008H546.786z"/>
			<path fill="#F2961C" d="M554.899,227.385c0.23,0.228,0.345,0.503,0.345,0.827c0,0.336-0.115,0.617-0.345,0.845
				c-0.23,0.228-0.507,0.341-0.832,0.341c-0.319,0-0.595-0.113-0.828-0.341c-0.232-0.228-0.349-0.509-0.349-0.845
				c0-0.324,0.117-0.6,0.349-0.827c0.233-0.228,0.509-0.341,0.828-0.341C554.392,227.044,554.669,227.157,554.899,227.385z"/>
			<path fill="#F2961C" d="M562.988,216.306h1.469v7.8h1.145v1.681h-1.145v3.506h-1.68v-3.506h-5.316L562.988,216.306z
				 M562.777,220.096l-2.395,4.01h2.395V220.096z"/>
			<path fill="#F2961C" d="M570.667,219.812c0.303-0.064,0.619-0.098,0.949-0.098c0.606,0,1.188,0.098,1.745,0.293
				c1.25,0.427,2.181,1.217,2.792,2.369c0.384,0.715,0.576,1.451,0.576,2.208c0,0.472-0.073,0.942-0.219,1.413
				c-0.384,1.255-1.152,2.193-2.305,2.816c-0.703,0.373-1.431,0.56-2.183,0.56c-0.477,0-0.958-0.075-1.445-0.228
				c-1.007-0.309-1.878-0.963-2.614-1.964l1.185-1.315c0.601,0.889,1.245,1.435,1.932,1.641c0.314,0.097,0.62,0.146,0.917,0.146
				c0.476,0,0.941-0.119,1.396-0.356c0.741-0.396,1.234-0.996,1.477-1.803c0.098-0.309,0.146-0.613,0.146-0.917
				c0-0.471-0.122-0.937-0.365-1.396c-0.401-0.748-1.007-1.262-1.818-1.543c-0.352-0.125-0.741-0.187-1.169-0.187
				c-0.579,0-1.32,0.144-2.224,0.431l-1.015-0.885l1.461-4.035v-0.656h4.756v1.68h-3.336L570.667,219.812z"/>
			<path fill="#F2961C" d="M584.94,221.212c-1.345,1.507-2.385,2.783-3.121,3.826c-0.736,1.045-1.131,2.463-1.185,4.254h-1.713
				c0.065-2.213,0.514-3.902,1.348-5.068c0.833-1.166,1.826-2.395,2.979-3.686c1.152-1.291,1.772-2.142,1.858-2.553h-6.168v-1.68
				h8.076C586.976,218.069,586.284,219.704,584.94,221.212z"/>
			<path fill="#27515D" d="M499.035,236.253c0.752,0,1.396,0.268,1.932,0.8c0.536,0.533,0.804,1.176,0.804,1.928
				c0,0.774-0.39,1.253-1.169,1.437c0.562,0.082,1.203,0.482,1.919,1.201c0.717,0.721,1.076,1.716,1.076,2.987
				s-0.446,2.37-1.339,3.296c-0.839,0.871-1.68,1.312-2.524,1.322v0.017h-3.328v-12.987H499.035z M498.085,237.934v2.054h1.096
				c0.249-0.021,0.462-0.117,0.641-0.284c0.195-0.179,0.292-0.419,0.292-0.723c0-0.303-0.101-0.554-0.304-0.751
				s-0.461-0.296-0.775-0.296H498.085z M498.085,241.716v5.836h1.647v-0.024c0.346-0.021,0.776-0.3,1.291-0.836
				c0.568-0.585,0.853-1.28,0.853-2.086c0-0.796-0.283-1.476-0.848-2.042c-0.566-0.564-1.246-0.848-2.042-0.848H498.085z"/>
			<path fill="#27515D" d="M516.689,238.03c1.299,1.299,1.948,2.865,1.948,4.7s-0.649,3.401-1.948,4.7
				c-1.298,1.299-2.865,1.947-4.7,1.947c-1.834,0-3.401-0.648-4.699-1.947c-1.299-1.299-1.948-2.865-1.948-4.7
				s0.649-3.401,1.948-4.7c1.298-1.299,2.865-1.947,4.699-1.947C513.824,236.083,515.391,236.731,516.689,238.03z M511.989,237.779
				c-1.369,0-2.536,0.483-3.502,1.448c-0.966,0.967-1.449,2.134-1.449,3.503s0.484,2.538,1.453,3.507
				c0.968,0.969,2.135,1.453,3.498,1.453c1.369,0,2.537-0.484,3.502-1.453c0.966-0.969,1.449-2.138,1.449-3.507
				s-0.483-2.536-1.449-3.503C514.526,238.263,513.358,237.779,511.989,237.779z"/>
			<path fill="#27515D" d="M520.877,249.24v-12.987h1.68v11.299h4.643v1.688H520.877z"/>
			<path fill="#27515D" d="M530.642,233.185h2.045l-2.208,2.266h-1.599L530.642,233.185z M530.991,236.253v12.987h-1.68v-12.987
				H530.991z"/>
			<path fill="#27515D" d="M537.5,249.24l-4.716-12.987h1.786l3.385,9.311l3.393-9.311h1.794l-4.732,12.987H537.5z"/>
			<path fill="#27515D" d="M549.141,236.253l4.724,12.987h-1.786l-1.672-4.595h-3.441l-1.664,4.595h-1.794l4.724-12.987H549.141z
				 M549.798,242.966l-1.112-3.044l-1.104,3.044H549.798z"/>
			<path fill="#27515D" d="M558.702,245.085h-1.534v4.155h-1.68v-12.987h3.685c1.044,0.141,1.926,0.571,2.646,1.291
				c0.86,0.865,1.291,1.904,1.291,3.117c0,1.223-0.43,2.268-1.291,3.133c-0.595,0.596-1.05,0.931-1.364,1.006l2.881,4.44h-2.037
				L558.702,245.085z M557.168,237.941v5.454h1.534c0.747,0,1.387-0.266,1.92-0.799c0.533-0.533,0.799-1.178,0.799-1.936
				c0-0.752-0.267-1.394-0.799-1.924c-0.533-0.531-1.173-0.796-1.92-0.796H557.168z"/>
		</g>
	</g>
	<g>
		<g>
			<polyline fill="none" stroke="#FFFFFF" stroke-width="2" points="243.645,100.018 405.32,185.55 485.912,185.55 			"/>
			<g>
				<circle fill="#FFFFFF" cx="243.744" cy="100.071" r="2.255"/>
			</g>
		</g>
	</g>
</g>
</svg>
