<?xml version="1.0" encoding="utf-8"?>
<!-- Generator: Adobe Illustrator 16.0.0, SVG Export Plug-In . SVG Version: 6.00 Build 0)  -->
<!DOCTYPE svg PUBLIC "-//W3C//DTD SVG 1.1//EN" "http://www.w3.org/Graphics/SVG/1.1/DTD/svg11.dtd">
<svg version="1.1" id="Capa_1" xmlns="http://www.w3.org/2000/svg" xmlns:xlink="http://www.w3.org/1999/xlink" x="0px" y="0px"
	 width="734.339px" height="413.176px" viewBox="0 0 734.339 413.176" enable-background="new 0 0 734.339 413.176"
	 xml:space="preserve">
<g>
	<g>
		<g>
			<polygon fill="none" points="149.987,245.667 149.966,245.561 149.852,245.871 149.969,245.837 			"/>
			<path fill="none" d="M298.801,12.163l0.086-0.013c0.059-0.009,0.119,0.013,0.158,0.059s0.053,0.11,0.033,0.167l-0.113,0.337
				l0.078,0.117l0.078,0.065c0.006-0.048,0.029-0.092,0.068-0.123l0.141-0.104l0.428-0.243l-0.115-0.049
				c-0.076-0.032-0.119-0.113-0.102-0.194l0.035-0.174v-0.001l-0.09,0.089c-0.055,0.054-0.137,0.066-0.205,0.03
				c-0.066-0.036-0.102-0.112-0.088-0.187l0.031-0.154L298.801,12.163z"/>
			<polygon fill="none" points="299.332,13.215 299.377,13.146 299.299,13.107 			"/>
			<polygon fill="#A0C219" points="298.988,11.485 298.764,11.731 299.139,11.397 			"/>
			<path fill="#D7E3A3" d="M149.009,245.925l0.502-0.132l0.199-0.542l-0.031-0.699l-0.187-0.433l-0.539-0.641
				c-0.017-0.021-0.029-0.044-0.035-0.07l-0.035-0.139c-0.01-0.04-0.005-0.083,0.014-0.12l0.041-0.082l-0.047-0.183l-0.154-0.216
				c-0.01-0.014-0.018-0.029-0.023-0.047l-0.118-0.354l-0.359-0.205l-0.41,0.146c-0.045,0.016-0.095,0.013-0.137-0.008l-0.333-0.167
				l-0.09,0.05l-0.015,0.104l0.321,0.61l0.162,0.223c0.034,0.049,0.042,0.114,0.018,0.169l-0.104,0.243
				c-0.014,0.03-0.034,0.056-0.061,0.074l-0.291,0.204l-0.044,0.22l0.217,0.433l0.505,0.668l0.596,0.628L149.009,245.925z"/>
			<path fill="#F39200" d="M317.609,243.465l0.312-0.208l8.953-3.74l-0.053-0.033l-1.814-1.093l-0.35-0.063l-0.383-0.027
				l-0.221,0.249c-0.033,0.038-0.08,0.058-0.131,0.058h-0.174c-0.051,0-0.1-0.022-0.133-0.061l-0.59-0.695l-0.139-0.113h-0.068
				l0.02,0.114l0.123,0.216c0.008,0.015,0.016,0.029,0.02,0.044l0.068,0.279c0.004,0.013,0.004,0.027,0.004,0.042v0.209l0,0
				c0,0.033-0.01,0.067-0.027,0.096l-0.057,0.084l-0.082,0.124c-0.012,0.016-0.023,0.028-0.039,0.04l-0.428,0.337l-0.545,0.428
				c0,0-0.002,0-0.002,0.001c-0.025,0.02-0.059,0.029-0.092,0.031c-0.004,0-0.008,0.004-0.012,0.004
				c-0.016,0-0.029-0.001-0.043-0.005l-0.139-0.036c-0.061-0.014-0.107-0.061-0.125-0.12l-0.07-0.243
				c-0.004-0.015-0.006-0.032-0.006-0.048l0,0v-0.229l-0.041-0.067l-0.059-0.012l-0.213,0.053l-0.287,0.19l-0.365,0.186
				c-0.014,0.008-0.031,0.013-0.047,0.016l-0.383,0.07l0,0l0,0c-0.035,0.007-0.072,0.001-0.107-0.015l-0.209-0.105
				c-0.029-0.016-0.057-0.039-0.072-0.069l-0.258-0.45l-0.303-0.193h-0.258l-0.555,0.262c-0.047,0.022-0.102,0.022-0.148,0
				c-0.049-0.022-0.082-0.063-0.094-0.114l-0.035-0.14c-0.006-0.022-0.008-0.044-0.004-0.066l0.031-0.222l-0.025-0.225l-0.199-0.179
				l-0.053,0.009l-0.062,0.094l0.027,0.249v0.001l0,0c0.006,0.052-0.012,0.105-0.049,0.141l-0.07,0.07l-0.068,0.069
				c-0.029,0.029-0.066,0.046-0.105,0.05c-0.039,0.003-0.08-0.005-0.115-0.029l-0.207-0.139c-0.021-0.014-0.039-0.032-0.053-0.053
				l-0.258-0.419l-0.328-0.219l-0.025,0.1l0.061,0.308l0.004,0.348c0,0.027-0.006,0.054-0.018,0.078l-0.104,0.209
				c-0.018,0.033-0.045,0.061-0.078,0.077l-0.07,0.035l-0.07,0.034c-0.029,0.015-0.064,0.019-0.098,0.015
				c-0.029-0.003-0.059-0.013-0.082-0.031l-0.141-0.105c-0.043-0.032-0.068-0.084-0.068-0.139v-0.208l0.064-0.464l-0.02-0.046
				l-0.363-0.084l-0.404-0.068c-0.023-0.002-0.043-0.01-0.061-0.021l-0.359-0.209l-0.902,0.194
				c-0.039,0.009-0.082,0.004-0.117-0.015l-0.557-0.266l-0.064,0.081c-0.014,0.017-0.029,0.031-0.049,0.043l-0.154,0.088
				l-0.088,0.051c-0.043,0.023-0.09,0.028-0.135,0.015l-0.244-0.07c-0.023-0.006-0.045-0.018-0.064-0.034l-0.242-0.208l-0.199-0.141
				l-0.094-0.016l-0.738,0.579c-0.02,0.016-0.041,0.025-0.064,0.032l-0.279,0.068c-0.014,0.004-0.027,0.005-0.041,0.005h-0.244l0,0
				c-0.031,0-0.064-0.009-0.092-0.026l-0.1-0.062l-0.156-0.098l-0.197-0.056h-0.359c-0.033,0-0.066-0.01-0.096-0.03l-0.209-0.139
				c-0.02-0.014-0.037-0.031-0.049-0.053l-0.174-0.277c-0.008-0.013-0.016-0.027-0.02-0.042l-0.027-0.091l-0.062-0.207l-0.119-0.1
				h-0.053l-0.068,0.104l-0.133,0.594c-0.004,0.021-0.014,0.042-0.025,0.059l-0.139,0.208c-0.021,0.032-0.053,0.057-0.088,0.069
				l-0.209,0.07c-0.061,0.019-0.127,0.005-0.174-0.038l-0.379-0.347l-0.057-0.009l-0.059,0.071l-0.162,0.458
				c-0.023,0.062-0.078,0.106-0.143,0.114l-0.277,0.035c-0.033,0.005-0.066-0.001-0.096-0.015l-0.451-0.208l-0.775-0.471h-0.033
				l-0.26,0.377c-0.021,0.028-0.049,0.05-0.082,0.063l-0.279,0.103c-0.037,0.015-0.078,0.015-0.117,0.003l-0.52-0.174l-0.432-0.06
				l-0.57,0.067l-0.311,0.001l-0.195,0.048l-0.137,0.192l-0.262,0.265c-0.016,0.016-0.031,0.027-0.051,0.036l-1.008,0.452
				c-0.029,0.015-0.064,0.018-0.096,0.015l-0.486-0.07c-0.061-0.008-0.111-0.048-0.137-0.104l-0.104-0.242
				c-0.01-0.024-0.014-0.052-0.012-0.078l0.025-0.538l-0.287,0.288c-0.012,0.013-0.029,0.023-0.045,0.033l-0.277,0.138
				c-0.043,0.021-0.088,0.025-0.133,0.009l-0.312-0.104c-0.023-0.008-0.047-0.022-0.066-0.04l-0.83-0.796l-0.051-0.009l-0.006,0.009
				v0.671l-0.072,0.445c-0.004,0.031-0.018,0.061-0.039,0.086l-0.207,0.242c-0.057,0.063-0.146,0.079-0.219,0.037l-0.244-0.138
				c-0.039-0.023-0.07-0.062-0.082-0.109l-0.164-0.657l-0.074-0.093l-0.082-0.013l-0.234,0.129l-0.223,0.255
				c-0.014,0.017-0.033,0.03-0.053,0.04l-0.486,0.244c-0.014,0.006-0.029,0.012-0.045,0.015l-2.449,0.477l-0.031,0.03
				c-0.023,0.024-0.053,0.041-0.084,0.047l-0.453,0.105l-0.295,0.1c-0.025,0.008-0.051,0.01-0.074,0.008l-0.312-0.035
				c-0.014-0.001-0.025-0.009-0.039-0.013c-0.035-0.013-0.068-0.034-0.09-0.067l-0.064-0.105c-0.061,0.023-0.131,0.014-0.182-0.031
				l-0.234-0.205l-0.029-0.003l-0.814-0.062l-0.553-0.144c-0.023-0.007-0.045-0.017-0.064-0.032l-0.346-0.277
				c-0.02-0.015-0.033-0.031-0.045-0.051l-0.1-0.179l-0.178-0.316l-0.232-0.07l-0.436,0.126l-0.896,0.172l-0.191,0.097l-0.07,0.211
				l0.031,0.417l0.068,0.4c0.002,0.013,0.002,0.026,0.002,0.039v0.001l0,0l-0.035,0.555c-0.004,0.048-0.025,0.092-0.061,0.123
				c-0.008,0.007-0.02,0.009-0.027,0.015c-0.023,0.013-0.049,0.021-0.074,0.022c-0.01,0.001-0.02,0.003-0.031,0.002l0,0l0,0
				l-0.027-0.002l-0.256-0.029l-0.26,0.059l-0.289,0.161l-0.258,0.171l-0.031,0.081l0.027,0.197l0.004,0.034l0.033,0.466
				c0.002,0.017,0,0.035-0.004,0.052l-0.105,0.451c-0.014,0.066-0.068,0.117-0.133,0.131c-0.068,0.012-0.135-0.012-0.176-0.066
				l-0.104-0.139c-0.01-0.014-0.018-0.03-0.025-0.046l-0.264-0.762l-0.26-0.26l-0.115,0.014l-0.148,0.224l-0.131,0.46
				c-0.016,0.052-0.053,0.094-0.104,0.114c-0.049,0.021-0.104,0.015-0.15-0.01l-0.857-0.496l-0.305,0.026l-0.861,0.762
				c-0.004,0.003-0.01,0.008-0.014,0.011c-0.006,0.004-0.012,0.008-0.018,0.01l-0.381,0.209c-0.014,0.007-0.027,0.013-0.043,0.017
				l-0.416,0.104c-0.01,0.002-0.021,0.003-0.033,0.005l-0.799,0.032l-0.154,0.078l-0.506,0.438
				c-0.043,0.037-0.098,0.052-0.154,0.038l-0.279-0.07l-0.467-0.066c-0.023-0.003-0.045-0.011-0.064-0.023l-0.111-0.065v0.002
				l0.105,0.128l0.256,0.158c0.049,0.032,0.08,0.088,0.08,0.148l0,0v0.173l0,0c0,0.096-0.076,0.174-0.174,0.174h-0.518l-0.186,0.187
				l-0.062,0.429l0.002,0.636c0,0.066-0.037,0.127-0.098,0.157c-0.018,0.007-0.037,0.006-0.057,0.008
				c-0.047,0.006-0.092-0.001-0.127-0.03l-0.174-0.139c-0.018-0.014-0.031-0.029-0.041-0.049l-0.359-0.62l-0.088-0.051l-0.18,0.182
				l-0.164,0.917c-0.012,0.066-0.061,0.119-0.123,0.137l-0.242,0.069c-0.002,0.001-0.006,0-0.006,0
				c-0.051,0.014-0.102,0.004-0.145-0.026c-0.002-0.001-0.002-0.001-0.004-0.001l0,0l0,0l-0.039-0.03l-0.1-0.076
				c-0.025-0.018-0.045-0.044-0.057-0.074l-0.07-0.173l-0.162-0.746l-0.15-0.074l-0.658,0.15l-0.215,0.188l-0.195,0.45
				c-0.006,0.015-0.014,0.03-0.025,0.042l-0.312,0.382c-0.016,0.021-0.039,0.032-0.062,0.043c-0.004,0.002-0.01,0.01-0.016,0.011
				c-0.031,0.01-0.062,0.014-0.096,0.005l-0.59-0.14c-0.047-0.01-0.086-0.039-0.109-0.079l-0.188-0.313l-0.178-0.118
				c-0.018-0.012-0.033-0.028-0.047-0.044l-0.1-0.144l-0.1-0.142l-0.129-0.019l-0.396,0.122l-1.957,1.112l-0.285,0.542
				c-0.016,0.034-0.043,0.061-0.078,0.078l-0.346,0.174l-0.059,0.21l0.086,0.086l0.086,0.085c0.016,0.016,0.029,0.035,0.037,0.055
				l0.105,0.244c0.016,0.039,0.018,0.083,0.004,0.123l-0.068,0.208c-0.02,0.06-0.07,0.104-0.131,0.115l-0.479,0.096l-0.15,0.126
				l-0.098,0.168l-0.025,0.047l0,0l0,0c-0.018,0.03-0.043,0.054-0.072,0.07l-0.402,0.2l-0.473,0.372l-0.322,0.217
				c-0.035,0.023-0.08,0.032-0.123,0.027l-0.242-0.035c-0.037-0.006-0.072-0.023-0.098-0.05l-0.09-0.088h-0.111l-0.324,0.088
				l-0.764,0.667c-0.023,0.021-0.053,0.035-0.084,0.042l-0.172,0.034c-0.029,0.006-0.059,0.002-0.086-0.007
				c-0.016-0.005-0.031-0.009-0.045-0.019l-0.355-0.221v0.285l0,0c0,0.031-0.01,0.062-0.025,0.089l-0.104,0.173
				c-0.02,0.031-0.047,0.056-0.08,0.07l-0.244,0.105c-0.021,0.009-0.045,0.013-0.068,0.013h-0.209c-0.039,0-0.078-0.013-0.107-0.038
				l-0.174-0.138c-0.023-0.02-0.041-0.044-0.053-0.072l-0.115-0.287l-0.029-0.014l-0.533,0.095c-0.033,0.006-0.07,0.001-0.102-0.014
				l-0.307-0.14l-0.578,0.29l0.018,0.021l0.066,0.084c0.014,0.016,0.021,0.033,0.029,0.052c0.004,0.009,0.004,0.021,0.006,0.03
				c0,0.009,0.004,0.018,0.004,0.026l0,0v0.207v0.002c0,0.058-0.029,0.111-0.076,0.144l-0.209,0.14
				c-0.025,0.017-0.057,0.026-0.086,0.028l-0.572,0.034l-0.365,0.099l0,0l0,0c-0.035,0.011-0.07,0.008-0.105-0.002l-0.221-0.079
				l-0.312-0.11l-0.102,0.034l-0.211,0.272c-0.025,0.032-0.062,0.054-0.104,0.062l-0.174,0.035
				c-0.018,0.004-0.035,0.004-0.053,0.002c-0.002,0-0.004,0-0.004,0c-0.057-0.008-0.105-0.042-0.133-0.095l-0.068-0.139
				c-0.016-0.03-0.021-0.063-0.018-0.097l0,0l0,0l0.025-0.23l-0.029-0.03h-0.107l-0.055,0.09l-0.201,0.405
				c-0.037,0.073-0.117,0.111-0.197,0.091l-0.139-0.036c-0.014-0.002-0.023-0.01-0.033-0.017c-0.033-0.016-0.062-0.04-0.082-0.074
				l-0.08-0.164l-0.09-0.053h-0.301l-0.299,0.269c-0.01,0.009-0.023,0.012-0.035,0.018c-0.029,0.016-0.059,0.022-0.092,0.019
				c-0.014,0-0.029,0.003-0.043-0.002l-0.105-0.034c-0.023-0.009-0.045-0.022-0.062-0.039c-0.006-0.005-0.008-0.012-0.012-0.017
				c-0.012-0.015-0.023-0.027-0.031-0.046l-0.07-0.173c-0.008-0.021-0.012-0.043-0.012-0.065l0,0v-0.277l0,0l0.029-0.245
				l-0.021-0.038l-0.045,0.247c-0.004,0.02-0.012,0.039-0.021,0.055l-0.105,0.174c-0.039,0.066-0.115,0.097-0.191,0.079
				l-0.139-0.034c-0.023-0.006-0.047-0.018-0.066-0.034l-0.15-0.119l-0.139-0.047l-0.725,0.099
				c-0.062,0.008-0.125-0.018-0.162-0.068l-0.105-0.14l-0.299-0.486l-0.654,0.393c-0.014,0.007-0.029,0.014-0.047,0.02l-0.277,0.068
				c-0.014,0.004-0.027,0.005-0.043,0.005h-0.174c-0.053,0-0.102-0.024-0.135-0.065l-0.139-0.174
				c-0.021-0.026-0.035-0.058-0.037-0.093l-0.02-0.218l-0.324,0.201l-0.145,0.144v0.137l0.059,0.143
				c0.01,0.026,0.01,0.055,0.008,0.083c0,0.003,0.002,0.007,0,0.009v0.001l0,0l-0.033,0.207c-0.004,0.026-0.014,0.049-0.029,0.071
				l-0.312,0.451l-0.195,0.395c-0.006,0.012-0.014,0.024-0.021,0.034l-0.141,0.169l-0.098,0.886l0.033,2.967l0,0l0,0l-0.068,11.293
				c0,0.038-0.012,0.072-0.035,0.104l-0.26,0.348l0.15,0.543l0.035,0.297l2.338,3.439l0.361,0.357l1.164,0.888l0.369,0.403
				c0.01,0.011,0.02,0.023,0.025,0.036l0.34,0.645l0.336,0.403l0.227,0.41l0.289,0.788c0.004,0.013,0.008,0.026,0.01,0.04
				l0.033,0.312l0.037,0.529l0.062,0.493l1.145,1.315l2.346,2.068l0.615,0.78l0.816,0.262c0.016,0.004,0.027,0.011,0.039,0.018
				l0.279,0.174c0.027,0.017,0.049,0.042,0.062,0.07l0.139,0.277l0.139,0.341l0.213,0.306l0.428,0.295l0.459,0.295l1.203,0.369
				h0.428l0.305-0.031l0.307-0.124l0.477-0.316l0.326-0.524c0.01-0.017,0.023-0.031,0.039-0.044l0.521-0.417l0.467-0.504
				l0.359-0.323c0.014-0.013,0.031-0.023,0.047-0.031l0.73-0.312l0.246-0.167l0.117-0.237l0.086-0.263v-0.229l-0.1-0.433
				c-0.006-0.028-0.006-0.058,0.002-0.087l0.07-0.242l0.174-0.419l0.064-0.364l0.074-0.259c0.008-0.023,0.018-0.044,0.033-0.062
				l0.312-0.382c0.018-0.022,0.043-0.041,0.07-0.051l0.174-0.069l0.391-0.101h0.002l0.039-0.041l0.059-0.17
				c0.016-0.048,0.053-0.087,0.1-0.106l0.174-0.069c0.039-0.017,0.084-0.017,0.125-0.001l0.279,0.104
				c0.01,0.004,0.021,0.009,0.031,0.016l0.381,0.244c0.02,0.012,0.035,0.024,0.047,0.043l0.301,0.399l0.18,0.144l0.387-0.595v-0.157
				c0-0.083,0.059-0.152,0.139-0.169l0.834-0.173c0.033-0.008,0.07-0.004,0.102,0.008l0.764,0.313l0.371,0.22l0.688,0.609
				l1.867,1.221l0.568,0.167l0.738,0.098c0.016,0.001,0.031,0.006,0.047,0.013l0.312,0.139c0.018,0.008,0.033,0.02,0.047,0.033
				l1.078,1.007c0.01,0.011,0.02,0.021,0.027,0.033l0.242,0.383c0.012,0.015,0.02,0.032,0.023,0.05l0.104,0.417l0.039,0.763
				l0.064,0.339l0.111,0.25l0.166,0.12l0.336,0.03c0.012,0.001,0.025,0.003,0.039,0.008l0.311,0.104
				c0.051,0.017,0.09,0.053,0.109,0.103l0.174,0.452c0.004,0.014,0.008,0.03,0.01,0.045l0.064,0.68l0.047,0.063l0.145,0.061
				l0.141-0.04l0.141-0.142c0.033-0.033,0.076-0.052,0.123-0.052l0,0h0.174c0.074,0,0.139,0.047,0.164,0.116l0.174,0.487
				c0.01,0.023,0.012,0.049,0.01,0.075l-0.037,0.347l-0.107,0.442l-0.023,0.273l0.156,0.157l0.619,0.196
				c0.027,0.007,0.051,0.022,0.07,0.042l0.209,0.208c0.016,0.016,0.027,0.034,0.037,0.053l0.406,0.916l0.109,0.132l1.525,0.1
				l0.447,0.109l1.094,0.387c0.018,0.007,0.033,0.016,0.049,0.028l0.174,0.14c0.016,0.011,0.025,0.023,0.037,0.039l0.139,0.209
				c0.01,0.014,0.016,0.031,0.021,0.048l0.123,0.425l0.119,0.079l0.846,0.092l4.354-4.525l0,0l0,0l0.139-0.112l0.57-0.458
				l0.359-0.376l0.34-0.356l0.057-0.105l0.105-0.188l0.166-0.399l0.363-0.551c0.008-0.013,0.018-0.023,0.027-0.034l0.312-0.277
				c0.023-0.02,0.049-0.034,0.078-0.04l0.105-0.023l0.346-0.081c0.023-0.007,0.049-0.007,0.072-0.001l0.348,0.07l0.334,0.109
				l0.178,0.023l0.098-0.024l0.098-0.025l1.008-1.074c0.008-0.009,0.02-0.017,0.027-0.023l0.133-0.091l0.295-0.205l0.174-0.247
				l0.051-0.074l0.252-0.543l0.031-0.186l-0.002-0.491v-0.001c0-0.018,0.002-0.036,0.01-0.055l0.035-0.104l0.033-0.105
				c0.012-0.039,0.039-0.072,0.074-0.093l0.176-0.105c0.018-0.01,0.039-0.018,0.061-0.022c0.02-0.004,0.041-0.003,0.062,0.001
				l0.168,0.034l-0.027-0.187c-0.002-0.014-0.002-0.029,0-0.044l0.035-0.313c0.002-0.038,0.021-0.075,0.051-0.104l0.068-0.068
				l0.068-0.07c0.023-0.021,0.051-0.038,0.082-0.045l0.109-0.027l0.029-0.008l0,0l0,0c0.059-0.016,0.121,0.002,0.164,0.045
				l0.105,0.104c0.023,0.024,0.039,0.054,0.047,0.087l0.162,0.721l0.119,0.142l0.182,0.068l0.1-0.029l0.021-0.066l-0.074-0.226
				l-0.188-0.217c-0.01-0.011-0.018-0.022-0.023-0.036l-0.174-0.347l-0.27-0.438c-0.008-0.011-0.014-0.023-0.018-0.037l-0.062-0.19
				l-0.338-0.575c-0.016-0.026-0.025-0.057-0.025-0.088v-0.833l0.07-0.479c0.006-0.031,0.02-0.06,0.039-0.084l0.158-0.189
				l0.748-1.763l0.32-0.749l0.059-0.243l0.244-0.98c0.002-0.014,0.008-0.028,0.016-0.042l0.277-0.521l0.479-1.133l0.201-0.775
				c0.004-0.013,0.008-0.026,0.016-0.039l0.207-0.382l0.621-0.794l0.129-0.487l0.102-0.642l0.102-1.928
				c0.004-0.075,0.055-0.139,0.127-0.158l0.383-0.105c0.027-0.006,0.055-0.007,0.08-0.002c0.027,0.006,0.053,0.017,0.074,0.034
				l0.318,0.252l0.32,0.253l0.219,0.085l0.557,0.218c0.025,0.009,0.047,0.024,0.064,0.044l0.418,0.45l0.197,0.057l0.334,0.054
				l0.363-0.211l0.461-0.398l0.402-0.438c0.008-0.009,0.018-0.017,0.025-0.023l1.113-0.8l1.928-1.053l1.244-0.429l0.736-0.405
				l0.574-0.406l0.951-0.922l0.328-0.461c0.012-0.02,0.031-0.037,0.051-0.048l0.174-0.104c0.037-0.022,0.08-0.03,0.121-0.023l0,0
				l0,0l0.182,0.034l0.182,0.034l2.137-0.07l0,0l0,0l0.863,0.103l0.285-0.063c0.025-0.005,0.055-0.005,0.082,0.002l0.521,0.139
				c0.018,0.005,0.035,0.013,0.051,0.023l0.193,0.127l0.238,0.089l0.271,0.031l0.33-0.032l0.379-0.063l0.703-0.37
				c0.014-0.007,0.029-0.013,0.043-0.015l1.564-0.348l0.455-0.198c0.012-0.005,0.023-0.009,0.035-0.012l0.848-0.17l0.275-0.12
				l0.188-0.158l0.336-0.337c0.014-0.013,0.029-0.025,0.047-0.033l0.416-0.208c0.016-0.008,0.033-0.014,0.053-0.017l0.938-0.139
				l0.371-0.001l0.211-0.09c0.023-0.009,0.045-0.015,0.068-0.015h0.418l0.449-0.032l0.779-0.271l1.053-0.281l1.352-0.141
				l0.389-0.194l0.252-0.191l0.539-0.51l0.961-0.696l0.027-0.404c0.004-0.049,0.027-0.094,0.064-0.123l0.73-0.591l0.896-0.554
				l0.191-0.223c0.012-0.013,0.023-0.024,0.037-0.034l0.537-0.347l0.078-0.261v-0.066l-0.068-0.117l-0.475-0.508
				c-0.01-0.009-0.018-0.02-0.023-0.031l-0.361-0.626l-0.273-0.19h-0.129l-0.232,0.174c-0.018,0.013-0.037,0.023-0.059,0.028
				l-0.383,0.104c-0.016,0.004-0.035,0.008-0.053,0.006l0,0l0,0l-0.67-0.032l-0.17,0.041l-0.07,0.165
				c-0.01,0.024-0.027,0.046-0.047,0.063c-0.02,0.017-0.043,0.029-0.07,0.036l-0.139,0.035c-0.025,0.006-0.051,0.007-0.076,0.001
				l0,0l0,0l-0.049-0.009l-0.096-0.02l-0.189,0.027l-0.025,0.002l-0.668,0.204c-0.018,0.005-0.033,0.006-0.051,0.006h-0.555h-0.002
				c-0.014,0-0.031-0.001-0.047-0.006l-0.137-0.039l-0.105-0.03l0,0v-0.001c-0.021-0.005-0.041-0.015-0.061-0.03l-0.254-0.198
				l-0.207,0.025l-0.1,0.034l-0.283,0.097c-0.02,0.006-0.037,0.009-0.055,0.009l-0.408,0.016l-0.006,0.025l0.027,0.174
				c0.006,0.027,0.004,0.057-0.006,0.083l-0.068,0.208c-0.008,0.021-0.02,0.039-0.033,0.055c-0.002,0.002-0.002,0.005-0.004,0.007
				c-0.018,0.018-0.037,0.032-0.061,0.043l-0.242,0.104c-0.045,0.02-0.096,0.019-0.139-0.001l-0.314-0.139l-0.529-0.297h-0.232
				c-0.02,0-0.037-0.004-0.055-0.009l-1.225-0.408h-0.291l-0.58,0.193l-0.158,0.095c-0.018,0.012-0.041,0.02-0.062,0.023
				l-0.867,0.139c-0.049,0.008-0.098-0.005-0.135-0.037c-0.039-0.03-0.062-0.075-0.066-0.123l-0.031-0.438l-0.117-0.163
				l-0.199-0.085l-0.111-0.027l-0.492-0.14l-1.178-0.312c-0.02-0.005-0.037-0.014-0.055-0.025l-0.451-0.313l-0.336-0.333
				c-0.018-0.016-0.029-0.037-0.039-0.059l-0.277-0.695l-0.967-1.86l-1.135-1.613l-0.449-0.48l-0.479-0.255l-0.535-0.132
				c-0.012-0.003-0.025-0.009-0.039-0.015l-1.18-0.626l-0.646-0.202l-0.645-0.202c-0.027-0.008-0.051-0.023-0.072-0.042
				l-0.242-0.243c-0.041-0.04-0.059-0.096-0.049-0.152l0.035-0.208C317.543,243.533,317.57,243.492,317.609,243.465z"/>
			<polygon fill="#7C7C7C" points="316.109,238.343 316.109,238.341 316.07,238.598 316.072,238.64 316.109,238.566 			"/>
		</g>
	</g>
	<g>
		<g>
			<g>
				<g>
					<path fill="#FFFFFF" d="M514.745,186.341h-7.4v-2.584c0-1.629-0.07-2.648-0.211-3.059s-0.475-0.615-1.002-0.615
						c-0.457,0-0.768,0.176-0.932,0.527s-0.246,1.254-0.246,2.707v13.658c0,1.277,0.082,2.118,0.246,2.522s0.492,0.606,0.984,0.606
						c0.539,0,0.905-0.229,1.099-0.686s0.29-1.348,0.29-2.672v-3.375h-1.494v-4.324h8.666v15.275h-4.65l-0.685-2.039
						c-0.505,0.879-1.141,1.538-1.909,1.978c-0.768,0.439-1.674,0.659-2.717,0.659c-1.244,0-2.408-0.302-3.492-0.905
						c-1.085-0.604-1.908-1.351-2.472-2.241s-0.915-1.825-1.056-2.804s-0.211-2.446-0.211-4.403v-8.455
						c0-2.719,0.146-4.693,0.439-5.924s1.134-2.358,2.522-3.384s3.185-1.538,5.388-1.538c2.168,0,3.967,0.445,5.396,1.336
						s2.361,1.948,2.795,3.173s0.65,3.003,0.65,5.335V186.341z"/>
					<path fill="#FFFFFF" d="M534.433,175.865v19.02c0,2.156-0.07,3.671-0.211,4.544s-0.557,1.77-1.248,2.689
						s-1.603,1.617-2.733,2.092s-2.464,0.712-3.999,0.712c-1.699,0-3.199-0.281-4.5-0.844s-2.273-1.295-2.918-2.197
						s-1.025-1.854-1.143-2.856s-0.176-3.108-0.176-6.319v-16.84h7.4v21.34c0,1.242,0.067,2.036,0.202,2.382
						s0.407,0.519,0.817,0.519c0.469,0,0.771-0.19,0.905-0.571s0.202-1.28,0.202-2.698v-20.971H534.433z"/>
					<path fill="#FFFFFF" d="M550.091,175.865l4.231,28.459h-7.563l-0.396-5.115h-2.647l-0.444,5.115h-7.651l3.774-28.459H550.091z
						 M546.168,194.164c-0.374-3.224-0.75-7.208-1.127-11.953c-0.754,5.45-1.228,9.434-1.421,11.953H546.168z"/>
					<path fill="#FFFFFF" d="M573.175,175.865l-3.766,28.459h-11.242l-4.275-28.459h7.805c0.906,7.839,1.555,14.472,1.942,19.898
						c0.382-5.484,0.788-10.353,1.218-14.606l0.514-5.292H573.175z"/>
					<path fill="#FFFFFF" d="M581.823,175.865v28.459h-7.4v-28.459H581.823z"/>
					<path fill="#FFFFFF" d="M597.587,175.865l4.231,28.459h-7.563l-0.396-5.115h-2.647l-0.444,5.115h-7.651l3.774-28.459H597.587z
						 M593.664,194.164c-0.374-3.224-0.75-7.208-1.127-11.953c-0.754,5.45-1.228,9.434-1.421,11.953H593.664z"/>
					<path fill="#FFFFFF" d="M603.075,175.865h5.238c3.492,0,5.856,0.135,7.093,0.404s2.244,0.958,3.023,2.065
						s1.169,2.874,1.169,5.3c0,2.215-0.275,3.703-0.826,4.465s-1.635,1.219-3.252,1.371c1.465,0.363,2.449,0.85,2.953,1.459
						s0.817,1.169,0.94,1.679s0.185,1.913,0.185,4.21v7.506h-6.873v-9.457c0-1.523-0.12-2.467-0.36-2.83s-0.87-0.545-1.89-0.545
						v12.832h-7.4V175.865z M610.476,180.734v6.328c0.832,0,1.415-0.114,1.749-0.343s0.501-0.97,0.501-2.224v-1.564
						c0-0.902-0.161-1.494-0.483-1.775S611.331,180.734,610.476,180.734z"/>
					<path fill="#FFFFFF" d="M622.464,175.865h12.34v5.695h-4.939v5.396h4.623v5.414h-4.623v6.258h5.432v5.695h-12.832V175.865z"/>
				</g>
			</g>
		</g>
	</g>
	<g>
		<g>
			<path fill="#F2961C" d="M498.71,225.136v4.156h-1.68v-12.987h3.685c1.044,0.141,1.927,0.571,2.646,1.291
				c0.861,0.866,1.291,1.905,1.291,3.117c0,1.223-0.43,2.266-1.291,3.129c-0.859,0.863-1.898,1.295-3.117,1.295H498.71z
				 M498.71,217.993v5.455h1.533c0.748,0,1.387-0.267,1.92-0.799c0.533-0.533,0.8-1.178,0.8-1.936c0-0.752-0.267-1.393-0.8-1.924
				c-0.533-0.53-1.172-0.795-1.92-0.795H498.71z"/>
			<path fill="#F2961C" d="M512.938,226.427l1.681,0.601c-0.411,0.568-0.709,0.944-0.894,1.128
				c-0.903,0.904-1.994,1.355-3.271,1.355c-1.272,0-2.359-0.452-3.263-1.355c-0.904-0.904-1.355-1.994-1.355-3.271
				c0-1.277,0.451-2.368,1.355-3.271c0.903-0.903,1.99-1.355,3.263-1.355c1.276,0,2.367,0.452,3.271,1.355
				c0.185,0.184,0.482,0.555,0.894,1.112l-1.681,0.617c-0.217-0.265-0.362-0.436-0.438-0.511c-0.563-0.563-1.245-0.844-2.046-0.844
				c-0.796,0-1.476,0.283-2.042,0.848c-0.564,0.565-0.848,1.249-0.848,2.05c0,0.795,0.283,1.476,0.848,2.041
				c0.566,0.565,1.246,0.848,2.042,0.848c0.801,0,1.485-0.281,2.054-0.844C512.579,226.854,512.722,226.687,512.938,226.427z"/>
			<path fill="#F2961C" d="M517.8,216.305c2.111,0.011,3.756,0.608,4.936,1.793c1.293,1.304,1.939,2.871,1.939,4.7
				c0,1.834-0.646,3.401-1.939,4.7c-1.18,1.185-2.824,1.783-4.936,1.794h-1.232v-12.987H517.8z M518.247,218.018v9.57
				c1.336,0,2.432-0.43,3.287-1.291c0.963-0.963,1.445-2.129,1.445-3.499c0-1.363-0.482-2.529-1.445-3.498
				C520.679,218.445,519.583,218.018,518.247,218.018z"/>
			<path fill="#F2961C" d="M538.491,216.305v12.987h-1.681v-10.795h-1.242l1.704-2.191H538.491z"/>
			<path fill="#F2961C" d="M545.646,227.385c0.23,0.227,0.345,0.503,0.345,0.828c0,0.335-0.114,0.617-0.345,0.844
				c-0.23,0.227-0.508,0.341-0.832,0.341c-0.319,0-0.596-0.114-0.828-0.341c-0.232-0.228-0.35-0.509-0.35-0.844
				c0-0.325,0.117-0.601,0.35-0.828c0.232-0.228,0.509-0.341,0.828-0.341C545.138,227.043,545.415,227.157,545.646,227.385z"/>
			<path fill="#F2961C" d="M554.063,221.211c-1.346,1.507-2.386,2.783-3.121,3.827c-0.736,1.044-1.131,2.462-1.186,4.253h-1.713
				c0.064-2.213,0.514-3.903,1.348-5.069c0.833-1.166,1.826-2.395,2.979-3.685s1.772-2.142,1.859-2.553h-6.169v-1.68h8.076
				C556.099,218.069,555.407,219.705,554.063,221.211z"/>
			<path fill="#F2961C" d="M561.04,219.812c0.303-0.065,0.619-0.098,0.949-0.098c0.605,0,1.188,0.098,1.744,0.292
				c1.25,0.427,2.182,1.217,2.793,2.37c0.385,0.714,0.576,1.45,0.576,2.208c0,0.471-0.072,0.942-0.219,1.413
				c-0.385,1.255-1.152,2.194-2.306,2.816c-0.703,0.374-1.431,0.56-2.183,0.56c-0.477,0-0.959-0.076-1.445-0.227
				c-1.007-0.309-1.878-0.963-2.613-1.964l1.185-1.315c0.601,0.888,1.245,1.434,1.932,1.64c0.313,0.097,0.62,0.146,0.917,0.146
				c0.477,0,0.941-0.119,1.396-0.357c0.741-0.395,1.234-0.996,1.477-1.802c0.098-0.308,0.146-0.614,0.146-0.917
				c0-0.471-0.121-0.936-0.365-1.396c-0.4-0.747-1.006-1.261-1.818-1.542c-0.352-0.125-0.74-0.187-1.168-0.187
				c-0.58,0-1.32,0.144-2.225,0.43l-1.015-0.885l1.462-4.034v-0.657h4.756v1.68h-3.336L561.04,219.812z"/>
			<path fill="#F2961C" d="M575.313,221.211c-1.346,1.507-2.386,2.783-3.121,3.827c-0.736,1.044-1.131,2.462-1.186,4.253h-1.713
				c0.064-2.213,0.514-3.903,1.348-5.069c0.833-1.166,1.826-2.395,2.979-3.685s1.772-2.142,1.859-2.553h-6.169v-1.68h8.076
				C577.349,218.069,576.657,219.705,575.313,221.211z"/>
			<path fill="#27515D" d="M511.216,252.173c-1.684,1.608-3.608,2.412-5.775,2.412c-2.311,0-4.279-0.814-5.908-2.443
				s-2.442-3.598-2.442-5.908c0-2.303,0.813-4.272,2.442-5.908s3.598-2.453,5.908-2.453c2.16,0,4.207,0.883,6.143,2.647
				l-1.584,1.441c-1.458-1.294-2.979-1.942-4.559-1.942c-1.711,0-3.174,0.606-4.391,1.819c-1.216,1.213-1.824,2.678-1.824,4.395
				c0,1.724,0.608,3.193,1.824,4.406c1.217,1.213,2.68,1.819,4.391,1.819c1.472,0,2.691-0.389,3.659-1.166v-4.937h2.116V252.173z"/>
			<path fill="#27515D" d="M523.389,238.058h2.126v11.52c-0.184,1.315-0.726,2.426-1.625,3.332c-1.09,1.09-2.402,1.635-3.936,1.635
				s-2.843-0.543-3.93-1.63c-1.087-1.086-1.631-2.397-1.631-3.93v-10.927h2.127v10.927c0,0.94,0.335,1.746,1.006,2.417
				c0.672,0.671,1.48,1.007,2.428,1.007c0.954,0,1.766-0.333,2.434-1.001c0.667-0.668,1.001-1.476,1.001-2.422V238.058z"/>
			<path fill="#27515D" d="M534.243,238.058l5.949,16.354h-2.248l-2.105-5.785h-4.334l-2.096,5.785h-2.259l5.948-16.354H534.243z
				 M535.071,246.511l-1.4-3.833l-1.39,3.833H535.071z"/>
			<path fill="#27515D" d="M546.591,254.412l-5.938-16.354h2.248l4.262,11.724l4.273-11.724h2.258l-5.959,16.354H546.591z"/>
			<path fill="#27515D" d="M558.06,238.058v16.354h-2.115v-16.354H558.06z"/>
			<path fill="#27515D" d="M567.411,238.058l5.949,16.354h-2.248l-2.105-5.785h-4.334l-2.096,5.785h-2.259l5.948-16.354H567.411z
				 M568.239,246.511l-1.4-3.833l-1.39,3.833H568.239z"/>
			<path fill="#27515D" d="M579.452,249.178h-1.932v5.233h-2.115v-16.354h4.641c1.314,0.177,2.426,0.719,3.332,1.625
				c1.083,1.09,1.625,2.399,1.625,3.925c0,1.54-0.542,2.855-1.625,3.945c-0.75,0.75-1.322,1.172-1.718,1.268l3.628,5.591h-2.564
				L579.452,249.178z M577.521,240.184v6.869h1.932c0.94,0,1.746-0.335,2.418-1.007c0.671-0.671,1.006-1.483,1.006-2.438
				c0-0.947-0.335-1.755-1.006-2.422c-0.672-0.668-1.478-1.002-2.418-1.002H577.521z"/>
			<path fill="#27515D" d="M596.185,238.058v2.116h-6.695v4.998h6.695v2.116h-6.695v4.998h6.695v2.126h-8.811v-16.354H596.185z"/>
		</g>
	</g>
	<g>
		<g>
			<polyline fill="none" stroke="#FFFFFF" stroke-width="2" points="291.338,249.666 291.164,185.55 486.537,185.55 			"/>
			<g>
				<circle fill="#FFFFFF" cx="291.338" cy="249.553" r="2.256"/>
			</g>
		</g>
	</g>
</g>
</svg>
