<?xml version="1.0" encoding="utf-8"?>
<!-- Generator: Adobe Illustrator 16.0.0, SVG Export Plug-In . SVG Version: 6.00 Build 0)  -->
<!DOCTYPE svg PUBLIC "-//W3C//DTD SVG 1.1//EN" "http://www.w3.org/Graphics/SVG/1.1/DTD/svg11.dtd">
<svg version="1.1" id="Capa_1" xmlns="http://www.w3.org/2000/svg" xmlns:xlink="http://www.w3.org/1999/xlink" x="0px" y="0px"
	 width="197.461px" height="39.796px" viewBox="0 295.81 197.461 39.796" enable-background="new 0 295.81 197.461 39.796"
	 xml:space="preserve">
<g>
	<polygon opacity="0.7" fill="#FFFFFF" enable-background="new    " points="0,298.542 197.461,295.81 197.461,335.606 
		25.25,335.586 	"/>
	<g>
		<g>
			<path fill="#331842" d="M46.94,300.299h2.437l2.79,14.404h-1.795l-0.668-4.004h-3.17l-0.721,4.004h-1.756L46.94,300.299z
				 M48.093,301.366l-1.401,8.281h2.79l-1.31-8.281H48.093z"/>
			<path fill="#331842" d="M59.464,302.584v1.377h-1.755v-1.338c0-0.56-0.081-0.947-0.243-1.162
				c-0.162-0.215-0.448-0.321-0.858-0.321c-0.376,0-0.638,0.122-0.786,0.366c-0.148,0.244-0.223,0.757-0.223,1.537v8.916
				c0,0.801,0.079,1.322,0.236,1.563c0.157,0.24,0.445,0.361,0.865,0.361c0.358,0,0.615-0.113,0.772-0.342
				c0.157-0.229,0.236-0.615,0.236-1.162v-1.553h1.755v1.602c0,0.982-0.205,1.648-0.615,1.996c-0.411,0.35-1.145,0.523-2.201,0.523
				c-1.039,0-1.764-0.227-2.175-0.674c-0.41-0.449-0.615-1.285-0.615-2.512v-8.524c0-1.217,0.205-2.047,0.615-2.489
				c0.411-0.442,1.136-0.664,2.175-0.664c1.065,0,1.802,0.172,2.208,0.518C59.261,300.95,59.464,301.609,59.464,302.584z"/>
			<path fill="#331842" d="M67.167,302.584v1.377h-1.755v-1.338c0-0.56-0.081-0.947-0.243-1.162s-0.448-0.321-0.858-0.321
				c-0.376,0-0.638,0.122-0.786,0.366s-0.223,0.757-0.223,1.537v8.916c0,0.801,0.079,1.322,0.236,1.563
				c0.157,0.24,0.445,0.361,0.865,0.361c0.358,0,0.615-0.113,0.772-0.342c0.157-0.229,0.236-0.615,0.236-1.162v-1.553h1.755v1.602
				c0,0.982-0.205,1.648-0.615,1.996c-0.411,0.35-1.145,0.523-2.201,0.523c-1.039,0-1.764-0.227-2.175-0.674
				c-0.41-0.449-0.615-1.285-0.615-2.512v-8.524c0-1.217,0.205-2.047,0.615-2.489c0.411-0.442,1.136-0.664,2.175-0.664
				c1.065,0,1.802,0.172,2.208,0.518C66.964,300.95,67.167,301.609,67.167,302.584z"/>
			<path fill="#331842" d="M69.342,300.299h4.611v1.144h-2.947v5.187h2.816v1.133h-2.816v5.801h3.026v1.143h-4.69V300.299z"/>
			<path fill="#331842" d="M81.473,302.584v1.377H79.73v-1.338c0-0.565-0.078-0.955-0.235-1.166
				c-0.157-0.211-0.437-0.317-0.839-0.317c-0.384,0-0.655,0.118-0.812,0.356c-0.157,0.237-0.236,0.658-0.236,1.265v0.702
				c0,0.293,0.055,0.596,0.164,0.904c0.109,0.31,0.269,0.601,0.478,0.873l2.174,2.861c0.367,0.482,0.633,0.938,0.799,1.361
				c0.166,0.428,0.249,0.869,0.249,1.324v0.977c0,1.25-0.212,2.094-0.635,2.529c-0.424,0.438-1.177,0.654-2.26,0.654
				c-1.057,0-1.793-0.176-2.208-0.527s-0.622-1.016-0.622-1.992v-1.602h1.756v1.553c0,0.586,0.078,0.982,0.235,1.191
				c0.157,0.209,0.445,0.311,0.865,0.311c0.428,0,0.723-0.117,0.884-0.355c0.162-0.236,0.242-0.76,0.242-1.566v-0.996
				c0-0.371-0.046-0.709-0.137-1.012c-0.092-0.303-0.225-0.576-0.4-0.824l-2.306-3.066c-0.323-0.41-0.569-0.801-0.74-1.172
				c-0.17-0.371-0.255-0.693-0.255-0.967v-0.84c0-1.119,0.207-1.899,0.622-2.34c0.415-0.438,1.129-0.658,2.142-0.658
				c1.065,0,1.802,0.172,2.208,0.518C81.27,300.95,81.473,301.609,81.473,302.584z"/>
			<path fill="#331842" d="M89.805,303.241v8.523c0,1.238-0.223,2.078-0.668,2.521c-0.446,0.441-1.241,0.664-2.384,0.664
				c-1.127,0-1.913-0.227-2.358-0.674c-0.445-0.449-0.668-1.285-0.668-2.512v-8.524c0-1.211,0.225-2.038,0.675-2.485
				c0.449-0.444,1.242-0.668,2.378-0.668c1.135,0,1.923,0.222,2.364,0.664C89.584,301.193,89.805,302.023,89.805,303.241z
				 M88.062,303.043c0-0.729-0.096-1.229-0.288-1.498c-0.192-0.271-0.533-0.405-1.021-0.405c-0.48,0-0.814,0.132-1.002,0.396
				s-0.282,0.768-0.282,1.51v8.916c0,0.748,0.096,1.254,0.288,1.514c0.192,0.262,0.533,0.391,1.022,0.391
				c0.48,0,0.814-0.129,1.002-0.391c0.188-0.26,0.281-0.766,0.281-1.514V303.043z"/>
			<path fill="#331842" d="M98.478,300.299h2.437l2.791,14.404h-1.795l-0.668-4.004h-3.171l-0.72,4.004h-1.755L98.478,300.299z
				 M99.629,301.366l-1.401,8.281h2.791l-1.31-8.281H99.629z"/>
			<path fill="#331842" d="M114.618,302.584v1.377h-1.742v-1.338c0-0.565-0.078-0.955-0.235-1.166s-0.437-0.317-0.839-0.317
				c-0.385,0-0.655,0.118-0.813,0.356c-0.156,0.237-0.236,0.658-0.236,1.265v0.702c0,0.293,0.056,0.596,0.164,0.904
				c0.109,0.31,0.27,0.601,0.479,0.873l2.174,2.861c0.367,0.482,0.633,0.938,0.799,1.361c0.166,0.428,0.25,0.869,0.25,1.324v0.977
				c0,1.25-0.213,2.094-0.636,2.529c-0.424,0.438-1.177,0.654-2.26,0.654c-1.058,0-1.793-0.176-2.208-0.527
				s-0.622-1.016-0.622-1.992v-1.602h1.756v1.553c0,0.586,0.078,0.982,0.235,1.191c0.156,0.209,0.445,0.311,0.865,0.311
				c0.428,0,0.723-0.117,0.883-0.355c0.162-0.236,0.242-0.76,0.242-1.566v-0.996c0-0.371-0.045-0.709-0.137-1.012
				s-0.225-0.576-0.4-0.824l-2.306-3.066c-0.323-0.41-0.569-0.801-0.739-1.172s-0.256-0.693-0.256-0.967v-0.84
				c0-1.119,0.207-1.899,0.623-2.34c0.414-0.438,1.129-0.658,2.141-0.658c1.066,0,1.803,0.172,2.209,0.518
				C114.415,300.95,114.618,301.609,114.618,302.584z"/>
			<path fill="#331842" d="M116.95,300.299h4.61v1.144h-2.947v5.187h2.816v1.133h-2.816v5.801h3.026v1.143h-4.689V300.299z"/>
			<path fill="#331842" d="M124.038,300.299h2.541c1.311,0,2.195,0.138,2.659,0.41c0.464,0.273,0.694,0.767,0.694,1.476v3.262
				c0,0.601-0.153,1.022-0.458,1.271c-0.306,0.248-0.847,0.396-1.625,0.449c0.83,0.039,1.405,0.182,1.729,0.43
				c0.322,0.248,0.484,0.678,0.484,1.289v5.82h-1.77v-5.381c0-0.678-0.129-1.117-0.385-1.318c-0.259-0.201-0.789-0.303-1.593-0.303
				H125.7v7.002h-1.664v-14.406H124.038z M125.702,301.366v5.264h0.588c0.76,0,1.268-0.1,1.521-0.299
				c0.253-0.197,0.38-0.64,0.38-1.322v-2.002c0-0.689-0.126-1.137-0.38-1.338c-0.253-0.201-0.761-0.304-1.521-0.304L125.702,301.366
				L125.702,301.366z"/>
			<path fill="#331842" d="M131.872,300.299h1.689l1.794,12.969h0.185l1.689-12.969h1.585l-2.096,14.404h-2.595L131.872,300.299z"/>
			<path fill="#331842" d="M140.727,300.299h1.77v14.404h-1.77V300.299z"/>
			<path fill="#331842" d="M150.972,302.584v1.377h-1.755v-1.338c0-0.56-0.081-0.947-0.243-1.162
				c-0.161-0.215-0.447-0.321-0.856-0.321c-0.377,0-0.639,0.122-0.787,0.366s-0.223,0.757-0.223,1.537v8.916
				c0,0.801,0.078,1.322,0.234,1.563c0.158,0.24,0.445,0.361,0.865,0.361c0.358,0,0.617-0.113,0.773-0.342
				c0.157-0.229,0.236-0.615,0.236-1.162v-1.553h1.755v1.602c0,0.982-0.205,1.648-0.616,1.996c-0.411,0.35-1.145,0.523-2.201,0.523
				c-1.039,0-1.765-0.227-2.175-0.674c-0.411-0.449-0.616-1.285-0.616-2.512v-8.524c0-1.217,0.205-2.047,0.616-2.489
				c0.41-0.442,1.136-0.664,2.175-0.664c1.065,0,1.801,0.172,2.207,0.518C150.769,300.95,150.972,301.609,150.972,302.584z"/>
			<path fill="#331842" d="M153.146,300.299h1.769v14.404h-1.769V300.299z"/>
			<path fill="#331842" d="M163.862,303.241v8.523c0,1.238-0.223,2.078-0.668,2.521c-0.445,0.441-1.24,0.664-2.384,0.664
				c-1.126,0-1.913-0.227-2.358-0.674c-0.445-0.449-0.668-1.285-0.668-2.512v-8.524c0-1.211,0.225-2.038,0.674-2.485
				c0.451-0.444,1.244-0.668,2.379-0.668s1.922,0.222,2.365,0.664C163.642,301.193,163.862,302.023,163.862,303.241z
				 M162.12,303.043c0-0.729-0.096-1.229-0.287-1.498c-0.192-0.271-0.533-0.405-1.022-0.405c-0.479,0-0.813,0.132-1.002,0.396
				s-0.281,0.768-0.281,1.51v8.916c0,0.748,0.097,1.254,0.288,1.514c0.191,0.262,0.533,0.391,1.021,0.391
				c0.48,0,0.814-0.129,1.002-0.391c0.188-0.26,0.281-0.766,0.281-1.514V303.043z"/>
			<path fill="#331842" d="M171.84,302.584v1.377h-1.741v-1.338c0-0.565-0.079-0.955-0.236-1.166s-0.437-0.317-0.838-0.317
				c-0.385,0-0.655,0.118-0.812,0.356c-0.157,0.237-0.236,0.658-0.236,1.265v0.702c0,0.293,0.055,0.596,0.164,0.904
				c0.109,0.31,0.27,0.601,0.479,0.873l2.176,2.861c0.367,0.482,0.633,0.938,0.799,1.361c0.166,0.428,0.248,0.869,0.248,1.324v0.977
				c0,1.25-0.211,2.094-0.635,2.529c-0.424,0.438-1.178,0.654-2.26,0.654c-1.058,0-1.793-0.176-2.207-0.527
				c-0.416-0.352-0.623-1.016-0.623-1.992v-1.602h1.756v1.553c0,0.586,0.078,0.982,0.235,1.191s0.445,0.311,0.864,0.311
				c0.428,0,0.723-0.117,0.885-0.355c0.161-0.236,0.242-0.76,0.242-1.566v-0.996c0-0.371-0.046-0.709-0.139-1.012
				c-0.092-0.303-0.225-0.576-0.398-0.824l-2.307-3.066c-0.322-0.41-0.569-0.801-0.739-1.172s-0.256-0.693-0.256-0.967v-0.84
				c0-1.119,0.208-1.899,0.622-2.34c0.416-0.438,1.129-0.658,2.143-0.658c1.064,0,1.801,0.172,2.207,0.518
				C171.638,300.95,171.84,301.609,171.84,302.584z"/>
			<path fill="#331842" d="M47.798,317.536h1.952c1.65,0,2.729,0.195,3.236,0.582c0.507,0.387,0.76,1.273,0.76,2.66v7.92
				c0,1.381-0.258,2.266-0.773,2.656c-0.515,0.391-1.59,0.586-3.223,0.586h-1.952V317.536z M49.462,318.6v12.275h0.537
				c0.804,0,1.334-0.098,1.592-0.297c0.257-0.199,0.386-0.637,0.386-1.314v-9.021c0-0.686-0.131-1.129-0.393-1.334
				s-0.79-0.309-1.585-0.309H49.462L49.462,318.6z"/>
			<path fill="#331842" d="M56.68,317.536h4.611v1.143h-2.948v5.188h2.817v1.133h-2.817v5.801h3.026v1.143h-4.69L56.68,317.536
				L56.68,317.536z"/>
			<path fill="#331842" d="M67.868,317.536h2.542c1.31,0,2.196,0.137,2.66,0.41c0.463,0.273,0.694,0.766,0.694,1.475v3.262
				c0,0.6-0.153,1.023-0.459,1.271c-0.306,0.248-0.847,0.396-1.624,0.449c0.829,0.039,1.406,0.182,1.729,0.43
				c0.323,0.248,0.485,0.676,0.485,1.289v5.82h-1.769v-5.383c0-0.676-0.129-1.115-0.387-1.316c-0.258-0.201-0.788-0.303-1.592-0.303
				h-0.615v7.002h-1.664V317.536z M69.532,318.6v5.266h0.589c0.76,0,1.267-0.1,1.52-0.299s0.38-0.641,0.38-1.322v-2.002
				c0-0.691-0.126-1.137-0.38-1.338c-0.254-0.203-0.76-0.305-1.52-0.305H69.532L69.532,318.6z"/>
			<path fill="#331842" d="M76.803,317.536h4.611v1.143h-2.947v5.188h2.816v1.133h-2.816v5.801h3.026v1.143h-4.69V317.536z"/>
			<path fill="#331842" d="M83.89,317.536h1.664V324h2.738v-6.465h1.664v14.404h-1.664v-6.885h-2.738v6.885H83.89V317.536z"/>
			<path fill="#331842" d="M94.593,317.536h2.437l2.79,14.404h-1.795l-0.668-4.004h-3.17l-0.721,4.004H91.71L94.593,317.536z
				 M95.746,318.6l-1.401,8.281h2.79l-1.31-8.281H95.746z"/>
			<path fill="#331842" d="M101.588,317.536h2.543c1.31,0,2.195,0.137,2.658,0.41s0.694,0.766,0.694,1.475v3.262
				c0,0.6-0.153,1.023-0.458,1.271c-0.306,0.248-0.847,0.396-1.625,0.449c0.83,0.039,1.406,0.182,1.729,0.43
				c0.324,0.248,0.484,0.676,0.484,1.289v3.936c0,0.709-0.23,1.201-0.693,1.475s-1.35,0.41-2.659,0.41h-2.673V317.536
				L101.588,317.536z M103.252,318.6v5.266h0.59c0.76,0,1.266-0.1,1.52-0.299s0.381-0.641,0.381-1.322v-2.002
				c0-0.691-0.127-1.137-0.381-1.338c-0.254-0.203-0.76-0.305-1.52-0.305H103.252L103.252,318.6z M103.252,324.938v5.938h0.617
				c0.803,0,1.334-0.098,1.59-0.297c0.258-0.199,0.388-0.637,0.388-1.314v-2.705c0-0.676-0.13-1.115-0.388-1.316
				c-0.256-0.203-0.787-0.303-1.59-0.303h-0.617V324.938z"/>
			<path fill="#331842" d="M110.523,317.536h1.769v14.404h-1.769V317.536z"/>
			<path fill="#331842" d="M115.241,317.536h1.663v13.262h3v1.145h-4.663V317.536z"/>
			<path fill="#331842" d="M121.515,317.536h1.769v14.404h-1.769V317.536z"/>
			<path fill="#331842" d="M124.959,317.536h5.672v1.143h-1.99v13.264h-1.689v-13.264h-1.992V317.536z"/>
			<path fill="#331842" d="M134.013,317.536h2.437l2.791,14.404h-1.795l-0.668-4.004h-3.17l-0.72,4.004h-1.757L134.013,317.536z
				 M135.167,318.6l-1.402,8.281h2.791l-1.311-8.281H135.167z"/>
			<path fill="#331842" d="M146.538,319.821v1.377h-1.756v-1.338c0-0.561-0.08-0.947-0.242-1.162s-0.447-0.322-0.857-0.322
				c-0.376,0-0.639,0.123-0.786,0.367c-0.149,0.244-0.224,0.756-0.224,1.537v8.916c0,0.801,0.078,1.322,0.236,1.563
				c0.156,0.24,0.444,0.361,0.864,0.361c0.358,0,0.616-0.115,0.772-0.342c0.158-0.229,0.236-0.615,0.236-1.162v-1.553h1.756v1.602
				c0,0.982-0.205,1.648-0.617,1.996c-0.41,0.348-1.144,0.521-2.2,0.521c-1.04,0-1.765-0.225-2.175-0.674
				c-0.412-0.449-0.616-1.285-0.616-2.51v-8.525c0-1.217,0.204-2.047,0.616-2.488c0.41-0.443,1.135-0.664,2.175-0.664
				c1.065,0,1.801,0.172,2.206,0.518C146.334,318.184,146.538,318.844,146.538,319.821z"/>
			<path fill="#331842" d="M148.711,317.536h1.77v14.404h-1.77V317.536z"/>
			<path fill="#331842" d="M159.428,320.475V329c0,1.238-0.223,2.078-0.668,2.521c-0.445,0.441-1.24,0.662-2.385,0.662
				c-1.125,0-1.912-0.225-2.357-0.674s-0.668-1.285-0.668-2.51v-8.525c0-1.211,0.225-2.039,0.674-2.484s1.243-0.668,2.378-0.668
				c1.136,0,1.923,0.221,2.365,0.664C159.208,318.428,159.428,319.258,159.428,320.475z M157.686,320.28
				c0-0.729-0.096-1.229-0.288-1.498c-0.192-0.271-0.532-0.406-1.022-0.406c-0.479,0-0.813,0.133-1.002,0.396
				c-0.188,0.264-0.281,0.768-0.281,1.51v8.916c0,0.748,0.097,1.252,0.289,1.514c0.191,0.26,0.533,0.391,1.021,0.391
				c0.48,0,0.814-0.131,1.002-0.391s0.281-0.766,0.281-1.514V320.28z M156.808,314.049h1.849l-1.717,2.178h-1.283L156.808,314.049z"
				/>
			<path fill="#331842" d="M162.362,317.536h2.28l2.765,13.545h0.025l-0.249-13.545h1.507v14.404h-2.307l-2.737-13.359h-0.054
				l0.236,13.359h-1.468L162.362,317.536L162.362,317.536z"/>
		</g>
	</g>
</g>
</svg>
