<?xml version="1.0" encoding="utf-8"?>
<!-- Generator: Adobe Illustrator 16.0.0, SVG Export Plug-In . SVG Version: 6.00 Build 0)  -->
<!DOCTYPE svg PUBLIC "-//W3C//DTD SVG 1.1//EN" "http://www.w3.org/Graphics/SVG/1.1/DTD/svg11.dtd">
<svg version="1.1" id="Capa_1" xmlns="http://www.w3.org/2000/svg" xmlns:xlink="http://www.w3.org/1999/xlink" x="0px" y="0px"
	 width="734.339px" height="413.176px" viewBox="0 0 734.339 413.176" enable-background="new 0 0 734.339 413.176"
	 xml:space="preserve">
<g>
	<path fill="#F29100" d="M410.732,275.115l-0.104-0.556c-0.007-0.036-0.002-0.074,0.015-0.107l0.397-0.827l-0.031-0.492
		l-0.163-0.554l-0.223-0.414l-0.225-0.224l-0.233-0.2l-0.252-0.253c-0.025-0.023-0.042-0.055-0.049-0.088l-0.07-0.348
		c-0.003-0.02-0.003-0.04-0.001-0.06l0.135-0.913l-0.062-0.471l-0.231-0.497l-0.477-0.782l-0.253-0.539
		c-0.007-0.014-0.013-0.029-0.015-0.046l-0.068-0.452l-0.003-1.068l-0.064-0.479l-2.009-5.297l-0.408-0.779
		c-0.005-0.012-0.01-0.021-0.013-0.033l-0.063-0.221l-0.074-0.125L405.795,259c-0.02-0.016-0.035-0.034-0.047-0.056l-0.162-0.292
		l-0.157-0.156l-0.191-0.264c-0.014-0.02-0.023-0.042-0.028-0.064l-0.069-0.312c-0.012-0.05,0-0.104,0.032-0.145l0.383-0.486
		l0.075-0.129l0.062-0.331l-0.068-1.239l-0.106-0.293l-0.285-0.143l-0.425-0.129l-0.375-0.184c-0.031-0.016-0.057-0.04-0.074-0.071
		l-0.173-0.312l-0.425-1.025c-0.006-0.011-0.008-0.022-0.011-0.034l-0.136-0.711l-0.375-0.887c-0.009-0.021-0.013-0.045-0.013-0.067
		v-0.416c0-0.039,0.013-0.077,0.035-0.106l0.244-0.313l0.454-0.423l0.258-0.399l-0.108-0.352l-0.125-0.187
		c-0.02-0.028-0.03-0.062-0.03-0.097v-0.427l-0.048-0.168l-0.167-0.141l-0.725-0.459l-0.811-0.237
		c-0.016-0.003-0.033-0.011-0.047-0.021l-0.209-0.14l-0.479-0.473l-0.193-0.137l-0.246-0.06c-0.02-0.005-0.037-0.014-0.055-0.024
		l-0.209-0.14c-0.024-0.017-0.045-0.04-0.058-0.067l-0.141-0.277l-0.195-0.526l-0.177-0.147l-0.715-0.44
		c-0.018-0.012-0.032-0.026-0.044-0.043l-0.174-0.244c-0.009-0.012-0.017-0.025-0.022-0.04l-0.094-0.25l-0.117-0.143l-0.224-0.055
		c-0.03-0.008-0.059-0.024-0.081-0.047l-0.104-0.104l-0.393-0.462c-0.008-0.01-0.016-0.021-0.022-0.033l-0.147-0.296l-0.435-0.218
		c-0.012-0.006-0.023-0.013-0.033-0.021l-0.209-0.174c-0.016-0.014-0.027-0.027-0.038-0.044l-0.104-0.175
		c-0.007-0.011-0.013-0.021-0.017-0.034l-0.139-0.416l-0.079-0.155l-0.296-0.267l-0.39-0.12h-1.016
		c-0.043,0-0.082-0.014-0.115-0.043l-0.277-0.244c-0.024-0.021-0.043-0.049-0.054-0.081l-0.138-0.486l-0.145-1.103l-0.124-0.362
		l-0.32-0.48l-0.332-0.276l-0.366,0.084l-0.43,0.168c-0.028,0.011-0.062,0.014-0.092,0.009l-0.591-0.105
		c-0.016-0.002-0.032-0.008-0.047-0.015l-0.974-0.486c-0.02-0.011-0.037-0.025-0.052-0.041l-0.213-0.243l-0.098-0.032l-0.391,0.179
		c-0.015,0.008-0.031,0.013-0.048,0.015l-0.243,0.034c-0.013,0.002-0.024,0.003-0.035,0.002l-0.489-0.032l-0.374,0.115l-0.199,0.227
		l-0.165,0.297c-0.011,0.02-0.025,0.036-0.042,0.051l-0.348,0.278c-0.054,0.042-0.123,0.05-0.184,0.021
		c-0.061-0.028-0.099-0.089-0.099-0.156v-1.599c0-0.03,0.008-0.062,0.023-0.087l0.382-0.66c0.009-0.016,0.02-0.028,0.032-0.04
		l7.608-7.018l1.422-1.353c0.013-0.013,0.026-0.021,0.043-0.029l0.276-0.141c0.015-0.006,0.029-0.011,0.043-0.014l0.722-0.162
		l0.234-0.176l1.41-1.754l0.558-0.921l0.092-0.856l-0.685-0.747l-0.832-0.333l-0.372-0.221c-0.023-0.012-0.041-0.031-0.057-0.054
		l-0.312-0.487l-1.605-4.106l-0.619-0.817l-0.79-0.379l-0.439,0.031l-0.401,0.069l-0.479,0.001c-0.03,0-0.057-0.006-0.083-0.021
		l-0.451-0.242c-0.02-0.011-0.036-0.024-0.051-0.04l-0.416-0.486c-0.017-0.021-0.029-0.045-0.036-0.071l-0.139-0.556l-0.142-1.148
		l-0.202-0.573l-0.924-1.567c-0.009-0.018-0.017-0.035-0.02-0.055l-0.105-0.521l-0.104-1.46l-0.145-0.457l-0.029-0.014l-0.331,0.138
		l-0.274,0.214l-1.131,1.577c-0.013,0.017-0.028,0.031-0.044,0.043l-0.313,0.212l-0.659,0.448c-0.025,0.017-0.054,0.025-0.084,0.028
		l-0.869,0.07c-0.027,0-0.053-0.002-0.077-0.012l-0.869-0.348l-0.795-0.443l-0.466,0.321l-0.341,0.154
		c-0.029,0.013-0.062,0.019-0.093,0.013l-0.277-0.035c-0.059-0.006-0.107-0.041-0.133-0.094l-0.141-0.277
		c-0.009-0.02-0.016-0.041-0.017-0.062l-0.066-0.752l-0.307,0.514c-0.019,0.031-0.046,0.054-0.078,0.068l-0.313,0.14
		c-0.028,0.012-0.062,0.017-0.091,0.014c-0.008-0.002-0.015-0.007-0.022-0.01c-0.021-0.005-0.044-0.01-0.063-0.025l-0.451-0.348
		c-0.018-0.013-0.032-0.03-0.044-0.049l-0.336-0.572l-0.125-0.124l-0.157,0.035l-0.156,0.208l-0.234,0.571
		c-0.006,0.012-0.014,0.025-0.021,0.037l-0.209,0.277l-0.53,0.602c-0.01,0.012-0.021,0.021-0.033,0.029l-0.312,0.209
		c-0.04,0.026-0.088,0.035-0.135,0.024l-0.312-0.069c-0.044-0.01-0.082-0.035-0.106-0.073l-0.14-0.208
		c-0.015-0.022-0.023-0.049-0.027-0.074s-0.001-0.053,0.008-0.078l0.069-0.209l0.142-0.254l0.036-0.125l-0.131-0.131l-0.439,0.136
		l-0.922,0.513c-0.041,0.022-0.09,0.027-0.136,0.015c-0.045-0.015-0.083-0.046-0.104-0.089l-0.174-0.348
		c-0.011-0.021-0.017-0.043-0.018-0.066l-0.034-0.537l-0.111-0.393l-0.425-0.197l-0.983-0.137l-0.462-0.03l-0.2,0.101l0.021,0.24
		l0.273,0.304c0.015,0.017,0.026,0.035,0.034,0.056l0.104,0.277c0.012,0.031,0.015,0.062,0.009,0.094
		c-0.006,0.029-0.02,0.059-0.04,0.083l-0.227,0.259l-0.154,0.338l-0.064,0.362c-0.01,0.046-0.036,0.087-0.075,0.112l-0.209,0.139
		c-0.027,0.019-0.059,0.029-0.091,0.03l-1.008,0.035l-0.372,0.053l-0.08,0.183l0.023,0.186l0.218,0.312
		c0.038,0.053,0.043,0.122,0.014,0.18c-0.03,0.058-0.091,0.094-0.154,0.094h-0.153l-0.225,0.057l-0.173,0.123l-0.086,0.229
		c-0.022,0.058-0.071,0.1-0.131,0.109l-0.686,0.131l-0.333,0.273l-0.255,0.316l-0.164,0.363c-0.009,0.021-0.026,0.037-0.043,0.053
		c-0.004,0.004-0.007,0.009-0.01,0.014l0,0l0,0l-0.035,0.025l-0.104,0.078c-0.018,0.014-0.037,0.021-0.059,0.025
		c-0.005,0.002-0.009,0.006-0.014,0.006c-0.026,0.006-0.053,0.004-0.08-0.004l-0.243-0.068c-0.02-0.006-0.037-0.014-0.053-0.025
		l-0.207-0.147l-0.204-0.024l-0.156,0.105l-0.217,0.222c-0.009,0.009-0.02,0.017-0.031,0.024l-0.277,0.174
		c-0.023,0.014-0.049,0.021-0.075,0.025l-0.661,0.062l-0.068,0.007l0,0l0,0c-0.027,0.001-0.053-0.001-0.077-0.011l-0.381-0.139
		l-0.425-0.176l-0.165-0.041l-0.453,0.394c-0.022,0.019-0.049,0.032-0.078,0.038l-0.539,0.115l-0.02,0.154l0.001,0.291l0,0l0,0
		c0,0.016-0.001,0.032-0.007,0.049l-0.068,0.242c-0.016,0.055-0.059,0.098-0.112,0.117l-0.312,0.104
		c-0.019,0.007-0.036,0.01-0.055,0.01h-0.243c-0.014,0-0.026-0.002-0.039-0.004l-0.607-0.127l-0.168,0.131l0.082,0.38l0.037,0.403
		h-0.001h0.001c0.004,0.046-0.012,0.093-0.041,0.128c-0.03,0.036-0.074,0.059-0.121,0.062l-0.521,0.034
		c-0.058,0.005-0.112-0.021-0.147-0.064l-0.262-0.327l-0.122-0.082l-0.184,0.046l-0.78,0.408c-0.024,0.014-0.052,0.02-0.08,0.02
		h-0.312c-0.019,0-0.038-0.003-0.055-0.009l-0.208-0.068c-0.064-0.022-0.11-0.078-0.118-0.145l-0.021-0.166l-0.182-0.055
		l-0.16,0.061l-0.124,0.246l0.035,0.893l0,0v0.002c0.001,0.062-0.029,0.12-0.082,0.152l-0.278,0.174
		c-0.034,0.021-0.075,0.03-0.116,0.025l-1.528-0.208l-0.256-0.084l-0.178,0.134l-0.295,0.523c-0.008,0.013-0.017,0.025-0.028,0.037
		l-0.173,0.174c-0.019,0.019-0.039,0.031-0.064,0.041l-0.382,0.139c-0.021,0.007-0.045,0.007-0.066,0.006
		c-0.008,0-0.014,0.002-0.021,0.001c-0.027-0.004-0.056-0.017-0.079-0.035l-0.175-0.138c-0.014-0.012-0.025-0.025-0.035-0.041
		l-0.14-0.207l-0.081-0.078c-0.038-0.037-0.057-0.09-0.051-0.141l0,0l0,0l0.049-0.47c-0.03-0.004-0.061-0.016-0.085-0.034
		l-0.417-0.312l-0.125-0.062l-0.214,0.048l-0.49,0.392c-0.023,0.018-0.05,0.031-0.08,0.035l-0.174,0.03l-0.034,0.005h-0.001l0,0
		c-0.015,0.002-0.029-0.005-0.045-0.007c-0.057-0.007-0.111-0.034-0.138-0.087l-0.035-0.07c-0.016-0.029-0.021-0.063-0.018-0.096
		l0.032-0.286l-0.017-0.082l-0.069-0.052l-0.396-0.164c-0.023-0.011-0.045-0.025-0.063-0.045l-0.238-0.271l-0.088-0.017
		l-0.213,0.029l-0.304,0.003c-0.051,0-0.1-0.023-0.132-0.063l-0.174-0.207l-0.164-0.26l-0.216-0.12l-0.178,0.04l-0.113,0.182
		l-0.03,0.307c-0.009,0.088-0.085,0.156-0.174,0.156h-0.174c-0.036,0-0.072-0.012-0.101-0.033l-0.343-0.248l-0.026-0.003
		l-0.375-0.026l-0.646,0.223l-0.225,0.078l-0.499,0.075l-0.366,0.133l-0.189,0.097c-0.05,0.023-0.106,0.023-0.156,0l-0.209-0.105
		c-0.025-0.012-0.046-0.03-0.063-0.054l-0.173-0.243l-0.192-0.188l-0.289-0.079l-0.403,0.125l-0.675,0.304
		c-0.017,0.007-0.031,0.012-0.048,0.015l-0.453,0.06l-0.068,0.009l-0.533,0.037l-0.409-0.035l-0.376,0.031l-0.118,0.078
		l-0.024,0.083l0.102,0.102c0.027,0.027,0.044,0.062,0.049,0.099l0.035,0.243c0.003,0.015,0.003,0.03,0.001,0.044l0,0l0,0
		l-0.104,0.904c-0.005,0.043-0.027,0.084-0.062,0.113l-0.417,0.347c-0.031,0.026-0.07,0.042-0.11,0.042h-0.213l-0.04,0.069
		l-0.029,0.052l-0.093,1.077l-0.009,0.101c-0.001,0.025-0.009,0.05-0.021,0.072l-0.139,0.242c-0.023,0.04-0.062,0.07-0.105,0.082
		c-0.044,0.013-0.092,0.006-0.132-0.018l-0.244-0.139c-0.01-0.006-0.021-0.014-0.029-0.021l-0.383-0.348l-0.432-0.308l-0.297-0.026
		l-0.346,0.125l-0.62,0.112c-0.014,0.002-0.026,0.002-0.037,0.002l-1.579-0.069l-0.28,0.053l-0.203,0.377
		c-0.005,0.01-0.014,0.021-0.02,0.029l-0.174,0.208c-0.037,0.045-0.096,0.067-0.154,0.062s-0.109-0.042-0.135-0.094l-0.233-0.469
		l-0.178-0.204l-0.095-0.059l-0.311,0.048l-0.048,0.008l-0.258,0.143l-0.188,0.221l-0.613,0.922
		c-0.037,0.055-0.103,0.082-0.168,0.074l-0.244-0.034l-0.325-0.071c-0.018-0.004-0.033-0.011-0.049-0.02l-0.243-0.139
		c-0.029-0.017-0.054-0.043-0.069-0.074l-0.047-0.094l-0.205-0.127l-0.517-0.065l-0.63,0.034l-0.194,0.047l0.022,0.042l0.512,0.714
		c0.034,0.047,0.042,0.106,0.022,0.161l-0.139,0.382l-0.165,0.978c-0.009,0.044-0.032,0.083-0.068,0.11l-0.277,0.208
		c-0.029,0.022-0.067,0.034-0.105,0.034h-0.763v0.416v0.002c0,0.055-0.026,0.105-0.07,0.139l-0.099,0.074l-0.085,0.23l-0.146,0.294
		c-0.009,0.017-0.02,0.031-0.032,0.044l-0.29,0.289l0.021,0.188l0.17,0.254l0.29,0.226c0.013,0.009,0.023,0.021,0.032,0.032
		l0.209,0.278c0.012,0.015,0.02,0.031,0.025,0.05l0.069,0.207c0.008,0.026,0.012,0.054,0.008,0.079
		c-0.004,0.026-0.014,0.051-0.027,0.072l-0.07,0.105c-0.025,0.037-0.064,0.064-0.11,0.074l-0.306,0.061l-0.09,0.071l-0.048,0.289
		l0.352,0.606c0.012,0.021,0.02,0.045,0.022,0.068l0.034,0.312v0.001l0,0c0.001,0.019,0.001,0.038-0.004,0.057l-0.068,0.312
		c-0.013,0.055-0.05,0.101-0.102,0.123l-0.243,0.104c-0.047,0.02-0.1,0.018-0.146-0.004l-0.139-0.07
		c-0.04-0.021-0.072-0.057-0.087-0.1l-0.104-0.311l-0.007,0.069l0.062,0.247l0,0c0.008,0.027,0.008,0.058,0,0.084l0,0l-0.069,0.278
		c-0.014,0.056-0.054,0.101-0.107,0.12l-0.278,0.105c-0.028,0.01-0.061,0.013-0.09,0.01l-0.207-0.036
		c-0.037-0.006-0.069-0.022-0.095-0.049l-0.225-0.225l-0.037,0.02l-0.046,0.112c-0.015,0.037-0.041,0.066-0.075,0.086l-0.539,0.305
		l-0.299,0.265l-0.504,0.606l-0.362,0.668c-0.012,0.021-0.029,0.04-0.049,0.056l-0.397,0.298l0.432,0.087l0.257,0.072
		c0.022,0.007,0.045,0.019,0.063,0.034l0.209,0.174c0.031,0.025,0.053,0.063,0.06,0.104l0.035,0.209l0,0l0,0
		c0.006,0.036,0,0.073-0.016,0.106l-0.105,0.209c-0.016,0.029-0.039,0.055-0.068,0.072l-0.244,0.139
		c-0.015,0.009-0.028,0.014-0.044,0.018l-0.209,0.068l0.022,0.127l0.195,0.393c0.007,0.012,0.012,0.025,0.015,0.038l0.104,0.452
		l0.039,0.584l0,0l0,0c0.001,0.021-0.001,0.045-0.008,0.066l-0.139,0.417c-0.013,0.038-0.039,0.07-0.073,0.093l-1.188,0.746
		l-0.169,0.226l-0.062,0.213l-0.067,0.303c-0.006,0.028-0.02,0.056-0.039,0.078l-0.278,0.312c-0.011,0.014-0.023,0.024-0.038,0.033
		l-0.556,0.348l-1.946,0.803l-0.745,0.607l-0.002,0.002c-0.012,0.01-0.026,0.018-0.042,0.024l-9.24,3.856l-0.22,0.148l-0.008,0.048
		l0.15,0.149l1.279,0.404l1.19,0.628l0.536,0.133c0.015,0.004,0.028,0.009,0.039,0.016l0.521,0.278
		c0.019,0.01,0.032,0.021,0.045,0.035l0.487,0.521l1.162,1.652l0.983,1.896l0.272,0.676l0.287,0.288l0.402,0.276l1.774,0.477
		l0.27,0.113c0.03,0.013,0.054,0.033,0.074,0.059l0.174,0.244c0.019,0.025,0.028,0.057,0.031,0.088l0.021,0.297l0.648-0.103
		l0.145-0.087c0.012-0.007,0.023-0.012,0.036-0.016l0.624-0.209c0.018-0.007,0.036-0.01,0.055-0.01h0.347
		c0.02,0,0.038,0.003,0.057,0.01l1.224,0.408h0.25c0.029,0,0.058,0.008,0.084,0.021l0.556,0.313l0.229,0.101l0.102-0.044
		l0.031-0.093l-0.027-0.166c-0.004-0.023-0.003-0.049,0.003-0.07l0.035-0.14c0.011-0.05,0.045-0.091,0.09-0.113l0.139-0.07
		c0.025-0.011,0.051-0.019,0.078-0.019h0.39l0.39-0.129l0.311-0.043c0.046-0.006,0.093,0.008,0.129,0.035l0.284,0.223l0.188,0.054
		h0.507l0.671-0.201l0.268-0.04c0.02-0.003,0.038-0.003,0.059,0.002l0.135,0.026l0.019-0.004l0.069-0.165
		c0.022-0.049,0.065-0.086,0.118-0.1l0.277-0.068c0.018-0.006,0.033-0.008,0.051-0.006l0.667,0.034l0.324-0.089l0.252-0.188
		c0.03-0.022,0.065-0.035,0.104-0.035h0.244c0.034,0,0.069,0.012,0.098,0.031l0.348,0.244c0.021,0.014,0.039,0.033,0.052,0.056
		l0.372,0.643l0.472,0.508c0.01,0.007,0.018,0.018,0.022,0.027l0.104,0.174c0.016,0.027,0.024,0.059,0.024,0.09v0.139
		c0,0.017-0.002,0.033-0.007,0.051l-0.104,0.347c-0.013,0.039-0.038,0.074-0.073,0.097l-0.568,0.367l-0.192,0.225
		c-0.012,0.014-0.026,0.025-0.041,0.035l-0.904,0.555l-0.651,0.53l-0.099,1.418l-0.246,1.237l-1.006,2.44l-0.03,0.349l0.107,0.27
		l2.451,2.043l1.164,0.58l0.656,0.263l1.082,0.068c0.015,0,0.028,0.003,0.04,0.007l1.042,0.312c0.011,0.003,0.022,0.008,0.033,0.014
		l0.795,0.431h0.732l0.378-0.095l0.989-0.512c0.012-0.006,0.024-0.011,0.037-0.015l0.418-0.104c0.013-0.005,0.027-0.005,0.041-0.005
		h0.417c0.013,0,0.025,0,0.037,0.004l0.459,0.098l0.916-0.098l1.572-0.719c0.02-0.008,0.039-0.013,0.06-0.016l0.903-0.068
		c0.018-0.001,0.035,0,0.052,0.004l1.668,0.383l1.778,0.729l0.951,0.137l8.208-0.002l18.883-0.034l-0.045-0.03
		c-0.027-0.017-0.047-0.04-0.061-0.066l-0.068-0.14c-0.016-0.029-0.021-0.063-0.019-0.096l0.03-0.27l-0.032-0.083l-0.123-0.083
		l-0.821-0.032c-0.087-0.004-0.158-0.071-0.164-0.159l-0.037-0.416l0.031-0.482l-0.125-0.169l-0.517-0.059
		c-0.031-0.004-0.059-0.017-0.084-0.034l-0.139-0.105c-0.075-0.056-0.093-0.159-0.039-0.237l0.441-0.643l1.381-3.49
		c0.014-0.033,0.035-0.062,0.065-0.081l0.208-0.139c0.077-0.052,0.18-0.034,0.235,0.04l0.104,0.139
		c0.022,0.03,0.035,0.066,0.035,0.104v0.452l0.02,0.087l0.147,0.146l0.141,0.058l0.458,0.095l0.549,0.218
		c0.02,0.008,0.038,0.019,0.052,0.032l0.348,0.312c0.016,0.014,0.027,0.028,0.038,0.047l0.242,0.451l0.532,1.519l0.438,0.978
		l0.639,0.873l0.718,0.621l0.739,0.191h0.789l0.814-0.204l0.746-0.272l0.86-0.498l0.715-0.648l2.791-3.761l1.785-1.893
		c0.014-0.015,0.031-0.025,0.049-0.034l0.887-0.443l0.647-0.512l0.387-0.281c0.023-0.018,0.052-0.028,0.081-0.031l0.804-0.102
		l0.154-0.077l0.358-0.392c0.015-0.017,0.033-0.029,0.05-0.039l0.209-0.104c0.029-0.015,0.062-0.02,0.094-0.018l0.383,0.034
		c0.015,0.003,0.028,0.006,0.043,0.011l0.972,0.348l0.396,0.179c0.02,0.008,0.036,0.021,0.051,0.035l0.591,0.591
		c0.012,0.011,0.021,0.022,0.028,0.038l0.488,0.868l0.738,1.826l0.548,0.989l2.521,3.348l0.921,1.869l0.808,2.489l0.249,1.484
		c0.002,0.015,0.003,0.03,0.002,0.044l-0.591,6.739l0.103,1.168l0.137,0.467l0.341,0.05l3.508-0.964l0.695-0.135l-0.388-0.804
		C410.739,275.145,410.734,275.13,410.732,275.115z"/>
	<g>
		<g>
			<g enable-background="new    ">
				<path fill="#FFFFFF" d="M513.734,186.263h-7.4v-2.584c0-1.629-0.07-2.648-0.211-3.059s-0.475-0.615-1.002-0.615
					c-0.457,0-0.768,0.176-0.932,0.527s-0.246,1.254-0.246,2.707v13.658c0,1.277,0.082,2.118,0.246,2.522s0.492,0.606,0.984,0.606
					c0.539,0,0.905-0.229,1.099-0.686s0.29-1.348,0.29-2.672v-3.375h-1.494v-4.324h8.666v15.275h-4.65l-0.685-2.039
					c-0.505,0.879-1.141,1.538-1.909,1.978c-0.768,0.439-1.674,0.659-2.717,0.659c-1.244,0-2.408-0.302-3.492-0.905
					c-1.085-0.604-1.908-1.351-2.472-2.241s-0.915-1.825-1.056-2.804s-0.211-2.446-0.211-4.403v-8.455
					c0-2.719,0.146-4.693,0.439-5.924s1.134-2.358,2.522-3.384s3.185-1.538,5.388-1.538c2.168,0,3.967,0.445,5.396,1.336
					s2.361,1.948,2.795,3.173s0.65,3.003,0.65,5.335V186.263z"/>
				<path fill="#FFFFFF" d="M533.421,175.786v19.02c0,2.156-0.07,3.671-0.211,4.544s-0.557,1.77-1.248,2.689
					s-1.603,1.617-2.733,2.092s-2.464,0.712-3.999,0.712c-1.699,0-3.199-0.281-4.5-0.844s-2.273-1.295-2.918-2.197
					s-1.025-1.854-1.143-2.856s-0.176-3.108-0.176-6.319v-16.84h7.4v21.34c0,1.242,0.067,2.036,0.202,2.382s0.407,0.519,0.817,0.519
					c0.469,0,0.771-0.19,0.905-0.571s0.202-1.28,0.202-2.698v-20.971H533.421z"/>
				<path fill="#FFFFFF" d="M549.08,175.786l4.231,28.459h-7.563l-0.396-5.115h-2.647l-0.444,5.115h-7.651l3.774-28.459H549.08z
					 M545.157,194.085c-0.374-3.224-0.75-7.208-1.127-11.953c-0.754,5.45-1.228,9.434-1.421,11.953H545.157z"/>
				<path fill="#FFFFFF" d="M561.968,175.786v28.459h-7.4v-28.459H561.968z"/>
				<path fill="#FFFFFF" d="M581.462,175.786v28.459h-6.486l-3.85-12.938v12.938h-6.188v-28.459h6.188l4.148,12.814v-12.814H581.462
					z"/>
				<path fill="#FFFFFF" d="M591.833,175.786v28.459h-7.4v-28.459H591.833z"/>
				<path fill="#FFFFFF" d="M607.597,175.786l4.231,28.459h-7.563l-0.396-5.115h-2.647l-0.444,5.115h-7.651l3.774-28.459H607.597z
					 M603.674,194.085c-0.374-3.224-0.75-7.208-1.127-11.953c-0.754,5.45-1.228,9.434-1.421,11.953H603.674z"/>
			</g>
		</g>
	</g>
	<g>
		<g>
			<path fill="#F2961C" d="M497.699,225.058v4.155h-1.681v-12.986h3.685c1.045,0.141,1.927,0.57,2.646,1.291
				c0.86,0.865,1.291,1.904,1.291,3.116c0,1.224-0.431,2.267-1.291,3.129c-0.86,0.863-1.899,1.295-3.117,1.295H497.699z
				 M497.699,217.914v5.455h1.533c0.747,0,1.387-0.267,1.92-0.799c0.533-0.533,0.799-1.179,0.799-1.937
				c0-0.752-0.266-1.394-0.799-1.924s-1.173-0.796-1.92-0.796H497.699z"/>
			<path fill="#F2961C" d="M511.927,226.348l1.68,0.602c-0.411,0.568-0.709,0.943-0.893,1.128c-0.904,0.903-1.994,1.355-3.271,1.355
				c-1.271,0-2.359-0.452-3.263-1.355s-1.355-1.994-1.355-3.271c0-1.277,0.452-2.368,1.355-3.271
				c0.903-0.904,1.991-1.355,3.263-1.355c1.277,0,2.367,0.451,3.271,1.355c0.184,0.184,0.481,0.555,0.893,1.111l-1.68,0.617
				c-0.217-0.266-0.363-0.436-0.438-0.512c-0.563-0.562-1.245-0.844-2.046-0.844c-0.795,0-1.476,0.283-2.041,0.848
				c-0.565,0.566-0.848,1.25-0.848,2.051c0,0.795,0.282,1.475,0.848,2.041c0.565,0.564,1.246,0.848,2.041,0.848
				c0.801,0,1.486-0.281,2.055-0.844C511.567,226.775,511.71,226.607,511.927,226.348z"/>
			<path fill="#F2961C" d="M516.789,216.227c2.11,0.011,3.756,0.608,4.936,1.793c1.293,1.305,1.939,2.871,1.939,4.7
				c0,1.835-0.646,3.401-1.939,4.7c-1.18,1.185-2.825,1.783-4.936,1.793h-1.233v-12.986H516.789z M517.236,217.939v9.569
				c1.336,0,2.432-0.431,3.287-1.29c0.963-0.963,1.444-2.13,1.444-3.499c0-1.363-0.481-2.529-1.444-3.498
				C519.667,218.367,518.572,217.939,517.236,217.939z"/>
			<path fill="#F2961C" d="M535.092,222.525l-1.015-0.025v-1.663c0.736-0.011,1.221-0.062,1.453-0.15s0.486-0.28,0.764-0.572
				c0.275-0.292,0.413-0.628,0.413-1.007c0-0.373-0.13-0.688-0.39-0.945c-0.26-0.257-0.576-0.385-0.949-0.385
				c-0.368,0-0.682,0.127-0.941,0.381c-0.146,0.151-0.314,0.481-0.504,0.99l-1.566-0.617c0.232-0.73,0.518-1.255,0.853-1.574
				c0.601-0.596,1.32-0.893,2.159-0.893c0.855,0,1.58,0.3,2.176,0.9c0.595,0.601,0.893,1.314,0.893,2.143
				c0,0.845-0.501,1.659-1.502,2.443c0.481,0.033,0.987,0.307,1.518,0.82c0.773,0.833,1.161,1.807,1.161,2.922
				c0,1.125-0.396,2.088-1.189,2.886c-0.792,0.798-1.755,1.196-2.886,1.196c-1.119,0-2.078-0.4-2.873-1.201
				c-0.633-0.638-1.036-1.522-1.209-2.654l1.68-0.607c0.098,0.973,0.344,1.658,0.738,2.053c0.466,0.46,1.021,0.689,1.664,0.689
				c0.654,0,1.214-0.229,1.676-0.689c0.463-0.459,0.695-1.018,0.695-1.672c0-0.66-0.232-1.242-0.695-1.745
				C536.752,223.045,536.044,222.703,535.092,222.525z"/>
			<path fill="#F2961C" d="M548.087,224.238c-0.481,0.52-1.279,0.779-2.395,0.779c-1.12,0-2.051-0.371-2.792-1.113
				c-0.898-0.902-1.348-1.993-1.348-3.271c0-1.271,0.449-2.358,1.348-3.259c0.897-0.9,1.985-1.352,3.263-1.352
				c1.271,0,2.359,0.449,3.264,1.348c0.865,0.871,1.301,2.08,1.307,3.628v0.024c0,1.531-0.414,2.879-1.242,4.042
				c-0.834,1.169-1.959,2.552-3.377,4.147h-2.207C545.872,227.179,547.265,225.52,548.087,224.238z M549.062,220.634
				c0-0.801-0.283-1.482-0.849-2.046c-0.565-0.562-1.249-0.844-2.05-0.844c-0.795,0-1.477,0.281-2.041,0.844
				c-0.566,0.563-0.849,1.245-0.849,2.046s0.282,1.483,0.849,2.046c0.564,0.562,1.246,0.844,2.041,0.844
				c0.801,0,1.484-0.281,2.05-0.844S549.062,221.435,549.062,220.634z"/>
			<path fill="#F2961C" d="M554.67,221.202c0.481-0.52,1.28-0.779,2.395-0.779c1.12,0,2.051,0.37,2.792,1.112
				c0.898,0.903,1.348,1.994,1.348,3.271c0,1.271-0.449,2.357-1.348,3.258c-0.898,0.901-1.986,1.352-3.263,1.352
				c-1.272,0-2.359-0.449-3.263-1.348c-0.866-0.871-1.302-2.08-1.307-3.628v-0.024c0-1.531,0.413-2.879,1.241-4.042
				c0.833-1.169,1.959-2.552,3.376-4.147h2.209C556.886,218.262,555.493,219.92,554.67,221.202z M553.697,224.807
				c0,0.801,0.282,1.482,0.848,2.045s1.248,0.844,2.05,0.844c0.796,0,1.476-0.281,2.041-0.844s0.849-1.244,0.849-2.045
				s-0.283-1.483-0.849-2.047c-0.565-0.562-1.245-0.844-2.041-0.844c-0.802,0-1.484,0.281-2.05,0.844
				C553.979,223.323,553.697,224.006,553.697,224.807z"/>
			<path fill="#26515D" d="M510.204,252.095c-1.683,1.608-3.608,2.412-5.774,2.412c-2.311,0-4.279-0.814-5.908-2.442
				c-1.629-1.629-2.443-3.599-2.443-5.908c0-2.303,0.814-4.273,2.443-5.908s3.598-2.453,5.908-2.453c2.16,0,4.207,0.883,6.143,2.647
				l-1.584,1.44c-1.459-1.294-2.979-1.941-4.559-1.941c-1.711,0-3.174,0.606-4.391,1.819s-1.824,2.679-1.824,4.396
				c0,1.724,0.607,3.192,1.824,4.405s2.68,1.819,4.391,1.819c1.471,0,2.691-0.389,3.658-1.166v-4.936h2.116V252.095z"/>
			<path fill="#26515D" d="M522.376,237.979h2.127v11.52c-0.185,1.315-0.727,2.426-1.625,3.332
				c-1.091,1.091-2.402,1.636-3.936,1.636s-2.844-0.544-3.93-1.63c-1.088-1.087-1.631-2.397-1.631-3.93v-10.928h2.126v10.928
				c0,0.939,0.335,1.746,1.007,2.416c0.671,0.672,1.48,1.008,2.428,1.008c0.953,0,1.765-0.334,2.433-1.002
				c0.667-0.668,1.001-1.476,1.001-2.422V237.979z"/>
			<path fill="#26515D" d="M533.232,237.979l5.949,16.354h-2.249l-2.105-5.785h-4.334l-2.095,5.785h-2.26l5.949-16.354H533.232z
				 M534.06,246.432l-1.4-3.832l-1.391,3.832H534.06z"/>
			<path fill="#26515D" d="M543.545,237.979v16.354h-2.116v-16.354H543.545z"/>
			<path fill="#26515D" d="M546.827,237.979h1.932l6.746,11.674v-11.674h2.126v16.354h-1.85l-6.838-11.815v11.815h-2.116V237.979z"
				/>
			<path fill="#26515D" d="M563.017,237.979v16.354h-2.115v-16.354H563.017z"/>
			<path fill="#26515D" d="M572.369,237.979l5.949,16.354h-2.248l-2.105-5.785h-4.334l-2.096,5.785h-2.259l5.948-16.354H572.369z
				 M573.197,246.432l-1.4-3.832l-1.39,3.832H573.197z"/>
		</g>
	</g>
	<g>
		<g>
			<polyline fill="none" stroke="#FFFFFF" stroke-width="2" points="364.179,241.102 364.324,185.472 485.764,185.472 			"/>
			<g>
				<circle fill="#FFFFFF" cx="364.179" cy="240.988" r="2.256"/>
			</g>
		</g>
	</g>
</g>
</svg>
