<?xml version="1.0" encoding="utf-8"?>
<!-- Generator: Adobe Illustrator 16.0.0, SVG Export Plug-In . SVG Version: 6.00 Build 0)  -->
<!DOCTYPE svg PUBLIC "-//W3C//DTD SVG 1.1//EN" "http://www.w3.org/Graphics/SVG/1.1/DTD/svg11.dtd">
<svg version="1.1" id="Capa_1" xmlns="http://www.w3.org/2000/svg" xmlns:xlink="http://www.w3.org/1999/xlink" x="0px" y="0px"
	 width="618.254px" height="285.84px" viewBox="0 0 618.254 285.84" enable-background="new 0 0 618.254 285.84"
	 xml:space="preserve">
<g>
	<g>
		<g>
			<path fill="#575756" d="M516.875,106.503h1.79c0.484,0,0.856,0.038,1.116,0.114c0.26,0.076,0.456,0.186,0.587,0.33
				s0.219,0.317,0.266,0.521c0.047,0.204,0.07,0.52,0.07,0.948v0.595c0,0.438-0.045,0.754-0.135,0.954
				c-0.091,0.2-0.255,0.354-0.496,0.46c-0.241,0.107-0.556,0.16-0.944,0.16h-0.477v2.752h-1.777V106.503L516.875,106.503z
				 M518.653,107.672v1.739c0.051,0.002,0.094,0.004,0.131,0.004c0.163,0,0.276-0.04,0.34-0.12s0.095-0.247,0.095-0.5v-0.562
				c0-0.233-0.037-0.385-0.109-0.456C519.036,107.708,518.884,107.672,518.653,107.672z"/>
			<path fill="#575756" d="M524.934,109.851h-1.607v-0.646c0-0.225-0.019-0.378-0.055-0.458c-0.037-0.08-0.104-0.12-0.203-0.12
				s-0.165,0.035-0.198,0.105c-0.034,0.07-0.051,0.228-0.051,0.473v2.643c0,0.2,0.024,0.35,0.075,0.45
				c0.052,0.1,0.125,0.15,0.225,0.15c0.115,0,0.193-0.052,0.234-0.156s0.061-0.301,0.061-0.591v-0.667h1.52
				c-0.003,0.447-0.019,0.783-0.049,1.006c-0.029,0.224-0.124,0.454-0.283,0.688c-0.158,0.235-0.366,0.412-0.623,0.532
				c-0.256,0.12-0.572,0.179-0.949,0.179c-0.481,0-0.863-0.082-1.145-0.247s-0.48-0.396-0.597-0.692s-0.175-0.718-0.175-1.265
				v-1.591c0-0.476,0.048-0.834,0.144-1.077c0.097-0.242,0.3-0.458,0.612-0.648c0.312-0.19,0.691-0.285,1.14-0.285
				c0.445,0,0.825,0.094,1.141,0.283c0.314,0.189,0.524,0.426,0.629,0.713C524.882,108.917,524.934,109.324,524.934,109.851z"/>
			<path fill="#575756" d="M525.491,106.503h1.33c0.857,0,1.438,0.04,1.741,0.118c0.302,0.078,0.531,0.208,0.689,0.388
				c0.157,0.18,0.256,0.381,0.295,0.602c0.04,0.221,0.06,0.655,0.06,1.302v2.394c0,0.614-0.029,1.024-0.086,1.231
				c-0.059,0.207-0.158,0.369-0.303,0.485c-0.144,0.117-0.32,0.198-0.531,0.245c-0.212,0.046-0.529,0.07-0.954,0.07h-2.242
				L525.491,106.503L525.491,106.503z M527.269,107.672v4.496c0.257,0,0.414-0.051,0.474-0.154c0.059-0.103,0.089-0.382,0.089-0.838
				v-2.655c0-0.31-0.01-0.508-0.03-0.595c-0.02-0.087-0.064-0.151-0.135-0.192S527.463,107.672,527.269,107.672z"/>
			<path fill="#575756" d="M533.449,107.735l-0.068,0.737c0.248-0.527,0.606-0.807,1.076-0.838v1.971
				c-0.312,0-0.542,0.042-0.688,0.127c-0.146,0.084-0.236,0.202-0.27,0.353c-0.034,0.15-0.051,0.497-0.051,1.041v2.212h-1.706
				v-5.602L533.449,107.735L533.449,107.735z"/>
			<path fill="#575756" d="M538.7,110.636h-2.208v1.211c0,0.253,0.018,0.417,0.055,0.49c0.037,0.073,0.107,0.11,0.211,0.11
				c0.13,0,0.216-0.049,0.26-0.146c0.043-0.097,0.065-0.285,0.065-0.564v-0.739h1.617v0.414c0,0.346-0.022,0.612-0.065,0.798
				s-0.146,0.384-0.306,0.595c-0.16,0.211-0.364,0.369-0.61,0.475s-0.555,0.158-0.927,0.158c-0.36,0-0.678-0.052-0.954-0.156
				c-0.275-0.104-0.49-0.247-0.644-0.429c-0.154-0.182-0.261-0.381-0.319-0.6c-0.059-0.218-0.089-0.535-0.089-0.952v-1.634
				c0-0.49,0.065-0.876,0.198-1.159c0.132-0.283,0.349-0.5,0.649-0.65c0.302-0.15,0.647-0.226,1.039-0.226
				c0.479,0,0.873,0.091,1.185,0.272c0.311,0.182,0.528,0.422,0.653,0.722s0.188,0.721,0.188,1.264L538.7,110.636L538.7,110.636z
				 M536.991,109.724v-0.409c0-0.29-0.016-0.477-0.046-0.562c-0.031-0.085-0.095-0.126-0.19-0.126c-0.118,0-0.19,0.036-0.219,0.107
				c-0.028,0.071-0.042,0.265-0.042,0.581v0.409H536.991z"/>
			<path fill="#575756" d="M543.133,107.735v4.314c0,0.583-0.013,0.959-0.04,1.129c-0.026,0.17-0.122,0.35-0.285,0.54
				c-0.163,0.19-0.391,0.335-0.682,0.435c-0.291,0.1-0.658,0.15-1.1,0.15c-0.543,0-0.979-0.092-1.31-0.276
				c-0.329-0.185-0.5-0.547-0.511-1.087h1.655c0,0.248,0.09,0.372,0.27,0.372c0.129,0,0.215-0.038,0.258-0.114
				c0.042-0.076,0.063-0.235,0.063-0.477v-0.423c-0.146,0.133-0.3,0.233-0.462,0.3c-0.162,0.068-0.331,0.102-0.509,0.102
				c-0.308,0-0.56-0.062-0.759-0.186c-0.197-0.124-0.334-0.286-0.406-0.487c-0.073-0.201-0.11-0.488-0.11-0.859v-2.035
				c0-0.532,0.096-0.915,0.287-1.148s0.483-0.35,0.874-0.35c0.214,0,0.409,0.043,0.584,0.131c0.176,0.087,0.333,0.219,0.471,0.394
				l0.123-0.423h1.588V107.735z M541.423,109.222c0-0.256-0.015-0.419-0.044-0.49c-0.029-0.071-0.095-0.105-0.196-0.105
				c-0.099,0-0.168,0.04-0.209,0.12s-0.061,0.238-0.061,0.475v1.882c0,0.251,0.015,0.413,0.046,0.488
				c0.031,0.075,0.096,0.112,0.194,0.112c0.112,0,0.186-0.045,0.219-0.135c0.034-0.09,0.051-0.294,0.051-0.612V109.222
				L541.423,109.222z"/>
			<path fill="#575756" d="M545.497,106.503v0.891h-1.756v-0.891H545.497z M545.497,107.735v5.602h-1.756v-5.602H545.497z"/>
			<path fill="#575756" d="M549.592,109.525h-1.511v-0.304c0-0.259-0.015-0.423-0.044-0.492c-0.03-0.069-0.104-0.103-0.221-0.103
				c-0.097,0-0.167,0.031-0.216,0.095c-0.048,0.064-0.071,0.158-0.071,0.285c0,0.171,0.012,0.297,0.035,0.377
				c0.024,0.081,0.097,0.168,0.216,0.264s0.364,0.235,0.736,0.418c0.495,0.242,0.82,0.47,0.976,0.684
				c0.154,0.214,0.231,0.525,0.231,0.933c0,0.456-0.059,0.8-0.177,1.032s-0.316,0.411-0.593,0.536
				c-0.277,0.125-0.612,0.188-1.003,0.188c-0.434,0-0.805-0.067-1.112-0.202c-0.308-0.135-0.52-0.318-0.635-0.549
				s-0.173-0.58-0.173-1.047v-0.27h1.511v0.354c0,0.301,0.019,0.497,0.057,0.587s0.113,0.135,0.227,0.135
				c0.121,0,0.206-0.03,0.253-0.091s0.072-0.188,0.072-0.382c0-0.267-0.031-0.435-0.094-0.502c-0.064-0.068-0.395-0.268-0.992-0.6
				c-0.5-0.281-0.806-0.537-0.916-0.766c-0.109-0.229-0.164-0.502-0.164-0.817c0-0.448,0.059-0.777,0.177-0.99
				c0.118-0.212,0.318-0.376,0.602-0.492c0.283-0.115,0.612-0.173,0.986-0.173c0.372,0,0.687,0.047,0.948,0.141
				c0.26,0.095,0.46,0.219,0.599,0.374c0.139,0.155,0.224,0.298,0.253,0.43c0.03,0.132,0.044,0.339,0.044,0.621L549.592,109.525
				L549.592,109.525z"/>
			<path fill="#575756" d="M551.977,106.988v0.882h0.461v0.887h-0.461v2.997c0,0.369,0.02,0.574,0.058,0.616
				s0.196,0.063,0.475,0.063v0.903h-0.688c-0.389,0-0.666-0.016-0.832-0.048c-0.166-0.033-0.312-0.107-0.439-0.224
				c-0.127-0.117-0.206-0.25-0.237-0.401c-0.03-0.151-0.046-0.504-0.046-1.062v-2.845H549.9v-0.887h0.366v-0.882L551.977,106.988
				L551.977,106.988z"/>
			<path fill="#575756" d="M554.519,107.735l-0.067,0.737c0.248-0.527,0.605-0.807,1.076-0.838v1.971
				c-0.312,0-0.542,0.042-0.688,0.127c-0.146,0.084-0.237,0.202-0.27,0.353c-0.034,0.15-0.052,0.497-0.052,1.041v2.212h-1.706
				v-5.602L554.519,107.735L554.519,107.735z"/>
			<path fill="#575756" d="M557.431,109.905h-1.6v-0.375c0-0.434,0.05-0.768,0.15-1.003c0.1-0.235,0.3-0.442,0.602-0.623
				c0.301-0.18,0.692-0.27,1.174-0.27c0.577,0,1.011,0.102,1.305,0.306c0.293,0.204,0.469,0.454,0.527,0.751
				c0.06,0.297,0.089,0.908,0.089,1.834v2.812h-1.658v-0.499c-0.104,0.2-0.239,0.35-0.403,0.45c-0.165,0.1-0.361,0.15-0.589,0.15
				c-0.298,0-0.572-0.083-0.821-0.251s-0.374-0.534-0.374-1.1v-0.46c0-0.419,0.066-0.705,0.198-0.857s0.46-0.329,0.983-0.532
				c0.561-0.219,0.86-0.367,0.899-0.443c0.04-0.076,0.059-0.23,0.059-0.464c0-0.292-0.021-0.483-0.064-0.572
				c-0.044-0.089-0.116-0.133-0.217-0.133c-0.115,0-0.188,0.037-0.216,0.112c-0.027,0.074-0.041,0.268-0.041,0.58v0.587H557.431z
				 M557.972,110.674c-0.272,0.2-0.431,0.367-0.475,0.502c-0.044,0.135-0.065,0.33-0.065,0.583c0,0.29,0.02,0.477,0.058,0.561
				s0.112,0.127,0.226,0.127c0.107,0,0.177-0.033,0.209-0.099s0.048-0.24,0.048-0.521V110.674z"/>
			<path fill="#575756" d="M564.144,106.503v6.834h-1.706v-0.406c-0.162,0.169-0.335,0.296-0.515,0.381
				c-0.18,0.084-0.369,0.126-0.565,0.126c-0.265,0-0.494-0.069-0.688-0.208c-0.194-0.14-0.319-0.301-0.374-0.483
				c-0.055-0.183-0.083-0.481-0.083-0.895v-2.622c0-0.431,0.028-0.736,0.083-0.916s0.181-0.338,0.378-0.475
				c0.197-0.136,0.433-0.205,0.705-0.205c0.211,0,0.405,0.038,0.58,0.114c0.176,0.076,0.336,0.19,0.479,0.343v-1.588H564.144z
				 M562.438,109.146c0-0.206-0.018-0.343-0.053-0.414c-0.035-0.071-0.104-0.105-0.209-0.105c-0.101,0-0.17,0.031-0.205,0.095
				s-0.053,0.205-0.053,0.424v2.744c0,0.228,0.018,0.377,0.051,0.449c0.034,0.072,0.099,0.108,0.194,0.108
				c0.11,0,0.183-0.04,0.219-0.121c0.037-0.08,0.056-0.276,0.056-0.589V109.146L562.438,109.146z"/>
			<path fill="#575756" d="M566.28,109.905h-1.601v-0.375c0-0.434,0.051-0.768,0.15-1.003c0.1-0.235,0.3-0.442,0.602-0.623
				c0.302-0.18,0.692-0.27,1.175-0.27c0.577,0,1.011,0.102,1.304,0.306s0.469,0.454,0.528,0.751
				c0.059,0.297,0.089,0.908,0.089,1.834v2.812h-1.659v-0.499c-0.104,0.2-0.239,0.35-0.403,0.45c-0.165,0.1-0.36,0.15-0.589,0.15
				c-0.298,0-0.572-0.083-0.821-0.251c-0.248-0.168-0.374-0.534-0.374-1.1v-0.46c0-0.419,0.066-0.705,0.198-0.857
				s0.46-0.329,0.984-0.532c0.56-0.219,0.859-0.367,0.898-0.443c0.04-0.076,0.06-0.23,0.06-0.464c0-0.292-0.022-0.483-0.065-0.572
				c-0.044-0.089-0.116-0.133-0.217-0.133c-0.115,0-0.187,0.037-0.215,0.112c-0.028,0.074-0.042,0.268-0.042,0.58v0.587H566.28z
				 M566.82,110.674c-0.273,0.2-0.432,0.367-0.476,0.502c-0.044,0.135-0.064,0.33-0.064,0.583c0,0.29,0.019,0.477,0.057,0.561
				s0.113,0.127,0.227,0.127c0.106,0,0.177-0.033,0.209-0.099c0.031-0.066,0.048-0.24,0.048-0.521V110.674z"/>
			<path fill="#575756" d="M572.595,109.525h-1.511v-0.304c0-0.259-0.015-0.423-0.044-0.492c-0.03-0.069-0.104-0.103-0.221-0.103
				c-0.097,0-0.167,0.031-0.216,0.095c-0.048,0.064-0.071,0.158-0.071,0.285c0,0.171,0.012,0.297,0.036,0.377
				c0.023,0.081,0.096,0.168,0.215,0.264s0.365,0.235,0.736,0.418c0.495,0.242,0.82,0.47,0.976,0.684s0.231,0.525,0.231,0.933
				c0,0.456-0.059,0.8-0.177,1.032s-0.315,0.411-0.593,0.536s-0.612,0.188-1.003,0.188c-0.434,0-0.804-0.067-1.112-0.202
				c-0.308-0.135-0.52-0.318-0.635-0.549s-0.173-0.58-0.173-1.047v-0.27h1.511v0.354c0,0.301,0.019,0.497,0.057,0.587
				s0.113,0.135,0.227,0.135c0.121,0,0.206-0.03,0.253-0.091s0.072-0.188,0.072-0.382c0-0.267-0.031-0.435-0.094-0.502
				c-0.064-0.068-0.395-0.268-0.991-0.6c-0.501-0.281-0.807-0.537-0.916-0.766c-0.11-0.229-0.165-0.502-0.165-0.817
				c0-0.448,0.059-0.777,0.177-0.99c0.118-0.212,0.318-0.376,0.602-0.492c0.283-0.115,0.612-0.173,0.986-0.173
				c0.372,0,0.688,0.047,0.948,0.141c0.26,0.095,0.46,0.219,0.599,0.374c0.139,0.155,0.225,0.298,0.253,0.43
				c0.03,0.132,0.044,0.339,0.044,0.621L572.595,109.525L572.595,109.525z"/>
			<path fill="#575756" d="M578.568,110.636h-2.208v1.211c0,0.253,0.018,0.417,0.055,0.49c0.037,0.073,0.106,0.11,0.211,0.11
				c0.13,0,0.216-0.049,0.26-0.146c0.043-0.097,0.065-0.285,0.065-0.564v-0.739h1.617v0.414c0,0.346-0.022,0.612-0.065,0.798
				s-0.146,0.384-0.306,0.595c-0.16,0.211-0.364,0.369-0.61,0.475s-0.555,0.158-0.927,0.158c-0.36,0-0.678-0.052-0.954-0.156
				c-0.276-0.104-0.49-0.247-0.644-0.429c-0.154-0.182-0.261-0.381-0.319-0.6c-0.06-0.218-0.089-0.535-0.089-0.952v-1.634
				c0-0.49,0.065-0.876,0.197-1.159c0.133-0.283,0.35-0.5,0.65-0.65s0.647-0.226,1.039-0.226c0.479,0,0.873,0.091,1.184,0.272
				c0.312,0.182,0.529,0.422,0.654,0.722s0.188,0.721,0.188,1.264L578.568,110.636L578.568,110.636z M576.858,109.724v-0.409
				c0-0.29-0.016-0.477-0.047-0.562c-0.03-0.085-0.094-0.126-0.189-0.126c-0.118,0-0.191,0.036-0.219,0.107
				c-0.028,0.071-0.042,0.265-0.042,0.581v0.409H576.858z"/>
			<path fill="#575756" d="M580.861,107.735l-0.03,0.516c0.124-0.206,0.275-0.36,0.454-0.463s0.385-0.154,0.619-0.154
				c0.292,0,0.531,0.069,0.718,0.207c0.186,0.138,0.305,0.312,0.359,0.521c0.053,0.21,0.079,0.56,0.079,1.049v3.926h-1.704v-3.879
				c0-0.386-0.014-0.621-0.038-0.705c-0.025-0.084-0.097-0.126-0.211-0.126c-0.121,0-0.197,0.048-0.229,0.146
				s-0.046,0.356-0.046,0.779v3.787h-1.706v-5.602h1.734V107.735z"/>
			<path fill="#575756" d="M521.025,118.084h-1.777v-1.188c0-0.345-0.019-0.561-0.057-0.646s-0.122-0.128-0.251-0.128
				c-0.146,0-0.239,0.052-0.279,0.156s-0.06,0.329-0.06,0.675v3.174c0,0.333,0.021,0.549,0.06,0.65s0.128,0.152,0.266,0.152
				c0.132,0,0.22-0.051,0.261-0.152s0.061-0.34,0.061-0.715v-0.859h1.777v0.266c0,0.708-0.051,1.209-0.15,1.505
				s-0.321,0.555-0.663,0.778s-0.763,0.334-1.264,0.334c-0.521,0-0.95-0.094-1.287-0.283c-0.338-0.188-0.562-0.45-0.671-0.783
				c-0.11-0.333-0.165-0.835-0.165-1.505v-1.997c0-0.492,0.017-0.862,0.051-1.108s0.135-0.483,0.302-0.711
				c0.167-0.228,0.4-0.407,0.697-0.538c0.297-0.131,0.638-0.196,1.024-0.196c0.522,0,0.955,0.101,1.296,0.303
				c0.341,0.203,0.563,0.455,0.671,0.757c0.106,0.302,0.16,0.772,0.16,1.41L521.025,118.084L521.025,118.084z"/>
			<path fill="#575756" d="M525.47,118.308v1.372c0,0.504-0.024,0.873-0.076,1.108c-0.051,0.235-0.158,0.455-0.324,0.659
				c-0.166,0.204-0.38,0.354-0.64,0.452c-0.26,0.097-0.559,0.146-0.896,0.146c-0.377,0-0.697-0.042-0.958-0.125
				c-0.263-0.083-0.465-0.208-0.61-0.375c-0.145-0.167-0.249-0.37-0.31-0.608c-0.062-0.238-0.093-0.595-0.093-1.07v-1.435
				c0-0.521,0.056-0.927,0.169-1.22c0.112-0.292,0.314-0.527,0.607-0.705c0.293-0.177,0.667-0.266,1.123-0.266
				c0.383,0,0.711,0.057,0.986,0.171c0.274,0.114,0.485,0.262,0.635,0.445s0.251,0.372,0.306,0.566
				C525.443,117.616,525.47,117.911,525.47,118.308z M523.765,117.886c0-0.287-0.015-0.468-0.046-0.542
				c-0.031-0.075-0.097-0.112-0.197-0.112c-0.102,0-0.17,0.037-0.203,0.112c-0.034,0.074-0.052,0.255-0.052,0.542v2.528
				c0,0.265,0.018,0.437,0.052,0.517c0.033,0.081,0.1,0.121,0.197,0.121c0.102,0,0.168-0.037,0.201-0.11
				c0.032-0.073,0.048-0.231,0.048-0.473V117.886L523.765,117.886z"/>
			<path fill="#575756" d="M527.788,115.108v6.834h-1.756v-6.834H527.788z"/>
			<path fill="#575756" d="M532.259,118.308v1.372c0,0.504-0.024,0.873-0.076,1.108c-0.051,0.235-0.158,0.455-0.324,0.659
				c-0.166,0.204-0.38,0.354-0.64,0.452c-0.26,0.097-0.559,0.146-0.896,0.146c-0.377,0-0.697-0.042-0.958-0.125
				c-0.263-0.083-0.465-0.208-0.61-0.375c-0.145-0.167-0.249-0.37-0.31-0.608c-0.062-0.238-0.094-0.595-0.094-1.07v-1.435
				c0-0.521,0.057-0.927,0.169-1.22c0.113-0.292,0.315-0.527,0.608-0.705c0.293-0.177,0.667-0.266,1.123-0.266
				c0.383,0,0.711,0.057,0.986,0.171c0.274,0.114,0.485,0.262,0.635,0.445s0.251,0.372,0.306,0.566
				C532.231,117.616,532.259,117.911,532.259,118.308z M530.553,117.886c0-0.287-0.015-0.468-0.046-0.542
				c-0.031-0.075-0.097-0.112-0.198-0.112c-0.101,0-0.169,0.037-0.203,0.112c-0.033,0.074-0.051,0.255-0.051,0.542v2.528
				c0,0.265,0.018,0.437,0.051,0.517c0.034,0.081,0.101,0.121,0.198,0.121c0.102,0,0.168-0.037,0.201-0.11
				c0.032-0.073,0.048-0.231,0.048-0.473V117.886L530.553,117.886z"/>
			<path fill="#575756" d="M534.504,116.341l-0.03,0.533c0.133-0.211,0.29-0.37,0.474-0.476c0.183-0.106,0.391-0.159,0.625-0.159
				c0.456,0,0.814,0.211,1.076,0.634c0.144-0.211,0.305-0.37,0.485-0.476s0.38-0.159,0.6-0.159c0.29,0,0.529,0.07,0.72,0.211
				c0.189,0.141,0.312,0.313,0.365,0.517c0.053,0.204,0.08,0.536,0.08,0.994v3.981h-1.655v-3.651c0-0.479-0.017-0.775-0.049-0.889
				c-0.032-0.114-0.108-0.171-0.227-0.171c-0.121,0-0.199,0.056-0.233,0.168c-0.035,0.113-0.054,0.41-0.054,0.891v3.651h-1.654
				v-3.559c0-0.549-0.014-0.878-0.04-0.988c-0.027-0.11-0.102-0.165-0.223-0.165c-0.076,0-0.141,0.029-0.193,0.086
				c-0.054,0.057-0.083,0.128-0.089,0.211c-0.007,0.083-0.01,0.26-0.01,0.53v3.884h-1.654v-5.602h1.687V116.341z"/>
			<path fill="#575756" d="M541.191,115.108v1.618c0.141-0.164,0.298-0.286,0.471-0.366c0.173-0.081,0.361-0.121,0.562-0.121
				c0.234,0,0.437,0.037,0.608,0.11c0.172,0.073,0.302,0.176,0.393,0.308c0.092,0.132,0.145,0.262,0.163,0.388
				c0.02,0.126,0.027,0.397,0.027,0.811v2.524c0,0.411-0.027,0.717-0.082,0.918c-0.055,0.201-0.184,0.375-0.386,0.523
				c-0.203,0.147-0.443,0.221-0.723,0.221c-0.199,0-0.386-0.043-0.559-0.131s-0.331-0.219-0.475-0.394l-0.11,0.423h-1.596v-6.834
				h1.705V115.108z M541.71,117.933c0-0.29-0.018-0.479-0.055-0.568c-0.037-0.089-0.108-0.133-0.215-0.133
				c-0.104,0-0.173,0.039-0.203,0.116c-0.031,0.078-0.046,0.272-0.046,0.585v2.415c0,0.301,0.017,0.494,0.053,0.578
				c0.035,0.084,0.104,0.127,0.209,0.127c0.106,0,0.177-0.044,0.209-0.131s0.048-0.297,0.048-0.629V117.933L541.71,117.933z"/>
			<path fill="#575756" d="M545.734,115.108v0.891h-1.756v-0.891H545.734z M545.734,116.341v5.602h-1.756v-5.602H545.734z"/>
			<path fill="#575756" d="M547.87,118.511h-1.601v-0.375c0-0.434,0.051-0.768,0.15-1.003c0.1-0.235,0.3-0.442,0.603-0.623
				c0.301-0.18,0.691-0.27,1.174-0.27c0.577,0,1.011,0.102,1.304,0.306s0.469,0.454,0.528,0.751
				c0.059,0.297,0.089,0.908,0.089,1.834v2.812h-1.659v-0.499c-0.104,0.2-0.239,0.35-0.403,0.45c-0.165,0.1-0.36,0.15-0.589,0.15
				c-0.298,0-0.571-0.083-0.82-0.251s-0.374-0.534-0.374-1.1v-0.46c0-0.419,0.065-0.705,0.197-0.857
				c0.133-0.152,0.46-0.329,0.984-0.532c0.56-0.219,0.86-0.367,0.898-0.443c0.04-0.076,0.06-0.23,0.06-0.464
				c0-0.292-0.022-0.483-0.065-0.572c-0.044-0.089-0.115-0.133-0.217-0.133c-0.115,0-0.187,0.037-0.215,0.112
				c-0.028,0.074-0.042,0.268-0.042,0.58v0.587H547.87z M548.41,119.279c-0.273,0.2-0.432,0.367-0.476,0.502
				c-0.044,0.135-0.064,0.33-0.064,0.583c0,0.29,0.019,0.477,0.057,0.561s0.113,0.127,0.227,0.127c0.106,0,0.177-0.033,0.209-0.099
				c0.031-0.066,0.048-0.24,0.048-0.521V119.279z"/>
			<path fill="#575756" d="M553.961,116.341l-0.03,0.495c0.152-0.2,0.319-0.35,0.502-0.448c0.184-0.098,0.384-0.148,0.601-0.148
				c0.264,0,0.493,0.071,0.686,0.213c0.193,0.143,0.313,0.306,0.361,0.492s0.072,0.501,0.072,0.945v2.36
				c0,0.509-0.03,0.872-0.092,1.087c-0.061,0.215-0.184,0.387-0.371,0.515s-0.413,0.192-0.678,0.192
				c-0.211,0-0.406-0.049-0.587-0.148c-0.18-0.099-0.345-0.245-0.494-0.439v1.284h-1.706v-6.4H553.961z M554.447,117.97
				c0-0.346-0.014-0.556-0.038-0.629c-0.025-0.073-0.097-0.109-0.211-0.109c-0.113,0-0.186,0.042-0.218,0.126
				s-0.049,0.289-0.049,0.612v2.322c0,0.337,0.018,0.548,0.052,0.633c0.033,0.085,0.106,0.127,0.219,0.127
				c0.11,0,0.178-0.039,0.205-0.116c0.026-0.077,0.04-0.265,0.04-0.563V117.97z"/>
			<path fill="#575756" d="M560.572,118.308v1.372c0,0.504-0.025,0.873-0.076,1.108s-0.159,0.455-0.325,0.659
				c-0.166,0.204-0.379,0.354-0.639,0.452c-0.26,0.097-0.56,0.146-0.897,0.146c-0.377,0-0.696-0.042-0.958-0.125
				s-0.465-0.208-0.609-0.375c-0.146-0.167-0.249-0.37-0.311-0.608s-0.093-0.595-0.093-1.07v-1.435c0-0.521,0.056-0.927,0.169-1.22
				c0.113-0.292,0.315-0.527,0.608-0.705c0.293-0.177,0.667-0.266,1.123-0.266c0.383,0,0.711,0.057,0.985,0.171
				c0.275,0.114,0.486,0.262,0.636,0.445c0.148,0.183,0.25,0.372,0.306,0.566C560.545,117.616,560.572,117.911,560.572,118.308z
				 M558.866,117.886c0-0.287-0.016-0.468-0.046-0.542c-0.031-0.075-0.098-0.112-0.198-0.112s-0.169,0.037-0.203,0.112
				c-0.034,0.074-0.051,0.255-0.051,0.542v2.528c0,0.265,0.017,0.437,0.051,0.517c0.034,0.081,0.1,0.121,0.198,0.121
				c0.101,0,0.168-0.037,0.201-0.11c0.031-0.073,0.048-0.231,0.048-0.473V117.886L558.866,117.886z"/>
			<path fill="#575756" d="M562.839,116.341l-0.067,0.737c0.247-0.527,0.605-0.807,1.075-0.838v1.971
				c-0.312,0-0.542,0.042-0.688,0.127c-0.146,0.084-0.237,0.202-0.271,0.353c-0.033,0.15-0.051,0.497-0.051,1.041v2.212h-1.706
				v-5.602L562.839,116.341L562.839,116.341z"/>
			<path fill="#575756" d="M569.632,115.108v6.834h-1.706v-0.406c-0.163,0.169-0.335,0.296-0.515,0.381
				c-0.18,0.084-0.369,0.126-0.566,0.126c-0.264,0-0.494-0.069-0.688-0.208c-0.194-0.14-0.319-0.301-0.374-0.483
				c-0.055-0.183-0.083-0.481-0.083-0.895v-2.622c0-0.431,0.028-0.736,0.083-0.916c0.055-0.18,0.181-0.338,0.378-0.475
				c0.197-0.136,0.432-0.205,0.705-0.205c0.211,0,0.405,0.038,0.58,0.114c0.176,0.076,0.336,0.19,0.479,0.343v-1.588H569.632z
				 M567.926,117.751c0-0.206-0.018-0.343-0.053-0.414c-0.035-0.071-0.105-0.105-0.209-0.105c-0.101,0-0.17,0.031-0.205,0.095
				s-0.053,0.205-0.053,0.424v2.744c0,0.228,0.017,0.377,0.051,0.449c0.034,0.072,0.098,0.108,0.194,0.108
				c0.109,0,0.183-0.04,0.219-0.121c0.037-0.08,0.055-0.276,0.055-0.589L567.926,117.751L567.926,117.751z"/>
			<path fill="#575756" d="M574.106,119.241h-2.208v1.211c0,0.253,0.018,0.417,0.055,0.49c0.037,0.073,0.106,0.11,0.211,0.11
				c0.13,0,0.216-0.049,0.26-0.146c0.043-0.097,0.065-0.285,0.065-0.564v-0.739h1.617v0.414c0,0.346-0.022,0.612-0.065,0.798
				s-0.146,0.384-0.306,0.595c-0.16,0.211-0.364,0.369-0.61,0.475c-0.246,0.106-0.555,0.158-0.927,0.158
				c-0.36,0-0.679-0.052-0.954-0.156c-0.276-0.104-0.49-0.247-0.645-0.429c-0.153-0.182-0.26-0.381-0.318-0.6
				c-0.06-0.218-0.089-0.535-0.089-0.952v-1.634c0-0.49,0.065-0.876,0.197-1.159c0.133-0.283,0.35-0.5,0.65-0.65
				s0.647-0.226,1.039-0.226c0.478,0,0.873,0.091,1.184,0.272c0.312,0.182,0.529,0.422,0.654,0.722
				c0.125,0.3,0.188,0.721,0.188,1.264L574.106,119.241L574.106,119.241z M572.396,118.329v-0.409c0-0.29-0.016-0.477-0.047-0.562
				c-0.03-0.085-0.094-0.126-0.189-0.126c-0.118,0-0.191,0.036-0.219,0.107c-0.028,0.071-0.042,0.265-0.042,0.581v0.409H572.396z"/>
			<path fill="#575756" d="M576.398,116.341l-0.03,0.495c0.151-0.2,0.318-0.35,0.502-0.448c0.183-0.098,0.383-0.148,0.6-0.148
				c0.265,0,0.493,0.071,0.687,0.213c0.192,0.143,0.312,0.306,0.36,0.492s0.072,0.501,0.072,0.945v2.36
				c0,0.509-0.03,0.872-0.091,1.087s-0.184,0.387-0.372,0.515c-0.187,0.128-0.413,0.192-0.677,0.192
				c-0.211,0-0.407-0.049-0.587-0.148c-0.181-0.099-0.346-0.245-0.494-0.439v1.284h-1.706v-6.4H576.398z M576.884,117.97
				c0-0.346-0.013-0.556-0.038-0.629c-0.024-0.073-0.096-0.109-0.211-0.109c-0.113,0-0.185,0.042-0.218,0.126
				c-0.032,0.084-0.048,0.289-0.048,0.612v2.322c0,0.337,0.017,0.548,0.051,0.633s0.107,0.127,0.219,0.127
				c0.11,0,0.179-0.039,0.205-0.116c0.027-0.077,0.04-0.265,0.04-0.563V117.97z"/>
			<path fill="#575756" d="M580.675,118.511h-1.6v-0.375c0-0.434,0.05-0.768,0.149-1.003c0.101-0.235,0.301-0.442,0.603-0.623
				c0.301-0.18,0.692-0.27,1.174-0.27c0.577,0,1.011,0.102,1.304,0.306s0.47,0.454,0.528,0.751c0.06,0.297,0.089,0.908,0.089,1.834
				v2.812h-1.659v-0.499c-0.104,0.2-0.238,0.35-0.402,0.45c-0.165,0.1-0.361,0.15-0.589,0.15c-0.299,0-0.572-0.083-0.821-0.251
				s-0.374-0.534-0.374-1.1v-0.46c0-0.419,0.065-0.705,0.198-0.857c0.132-0.152,0.46-0.329,0.983-0.532
				c0.561-0.219,0.86-0.367,0.899-0.443c0.04-0.076,0.059-0.23,0.059-0.464c0-0.292-0.021-0.483-0.064-0.572
				c-0.044-0.089-0.116-0.133-0.218-0.133c-0.114,0-0.187,0.037-0.215,0.112c-0.027,0.074-0.042,0.268-0.042,0.58v0.587H580.675z
				 M581.215,119.279c-0.272,0.2-0.431,0.367-0.475,0.502c-0.044,0.135-0.065,0.33-0.065,0.583c0,0.29,0.02,0.477,0.058,0.561
				s0.112,0.127,0.226,0.127c0.107,0,0.177-0.033,0.209-0.099s0.048-0.24,0.048-0.521V119.279z"/>
			<path fill="#575756" d="M585.213,116.341l-0.068,0.737c0.248-0.527,0.606-0.807,1.076-0.838v1.971
				c-0.312,0-0.542,0.042-0.688,0.127c-0.146,0.084-0.237,0.202-0.271,0.353c-0.034,0.15-0.051,0.497-0.051,1.041v2.212h-1.706
				v-5.602L585.213,116.341L585.213,116.341z"/>
			<path fill="#575756" d="M588.556,115.594v0.882h0.46v0.887h-0.46v2.997c0,0.369,0.02,0.574,0.058,0.616s0.195,0.063,0.475,0.063
				v0.903H588.4c-0.389,0-0.666-0.016-0.832-0.048c-0.166-0.033-0.312-0.107-0.439-0.224c-0.127-0.117-0.206-0.25-0.237-0.401
				c-0.03-0.151-0.046-0.504-0.046-1.062v-2.845h-0.367v-0.887h0.367v-0.882L588.556,115.594L588.556,115.594z"/>
			<path fill="#575756" d="M590.916,118.511h-1.6v-0.375c0-0.434,0.05-0.768,0.149-1.003c0.101-0.235,0.3-0.442,0.603-0.623
				c0.301-0.18,0.691-0.27,1.174-0.27c0.577,0,1.011,0.102,1.304,0.306s0.469,0.454,0.528,0.751
				c0.059,0.297,0.089,0.908,0.089,1.834v2.812h-1.659v-0.499c-0.104,0.2-0.239,0.35-0.402,0.45c-0.165,0.1-0.361,0.15-0.59,0.15
				c-0.298,0-0.571-0.083-0.82-0.251s-0.374-0.534-0.374-1.1v-0.46c0-0.419,0.065-0.705,0.197-0.857
				c0.133-0.152,0.46-0.329,0.984-0.532c0.56-0.219,0.86-0.367,0.899-0.443c0.04-0.076,0.059-0.23,0.059-0.464
				c0-0.292-0.021-0.483-0.064-0.572c-0.045-0.089-0.116-0.133-0.218-0.133c-0.114,0-0.187,0.037-0.215,0.112
				c-0.028,0.074-0.042,0.268-0.042,0.58v0.587H590.916z M591.456,119.279c-0.273,0.2-0.431,0.367-0.475,0.502
				c-0.044,0.135-0.065,0.33-0.065,0.583c0,0.29,0.019,0.477,0.057,0.561s0.113,0.127,0.227,0.127c0.106,0,0.177-0.033,0.209-0.099
				s0.048-0.24,0.048-0.521V119.279z"/>
			<path fill="#575756" d="M595.433,116.341l-0.029,0.533c0.132-0.211,0.29-0.37,0.473-0.476s0.391-0.159,0.625-0.159
				c0.456,0,0.815,0.211,1.076,0.634c0.144-0.211,0.305-0.37,0.485-0.476s0.381-0.159,0.6-0.159c0.29,0,0.53,0.07,0.72,0.211
				c0.19,0.141,0.312,0.313,0.365,0.517c0.053,0.204,0.08,0.536,0.08,0.994v3.981h-1.655v-3.651c0-0.479-0.016-0.775-0.049-0.889
				c-0.032-0.114-0.108-0.171-0.227-0.171c-0.12,0-0.198,0.056-0.233,0.168c-0.035,0.113-0.053,0.41-0.053,0.891v3.651h-1.655
				v-3.559c0-0.549-0.014-0.878-0.04-0.988c-0.027-0.11-0.102-0.165-0.222-0.165c-0.076,0-0.142,0.029-0.194,0.086
				s-0.083,0.128-0.089,0.211s-0.009,0.26-0.009,0.53v3.884h-1.655v-5.602h1.687V116.341z"/>
			<path fill="#575756" d="M604.277,119.241h-2.208v1.211c0,0.253,0.018,0.417,0.055,0.49c0.037,0.073,0.106,0.11,0.211,0.11
				c0.13,0,0.216-0.049,0.26-0.146c0.043-0.097,0.065-0.285,0.065-0.564v-0.739h1.617v0.414c0,0.346-0.022,0.612-0.065,0.798
				s-0.146,0.384-0.306,0.595s-0.364,0.369-0.61,0.475c-0.246,0.106-0.555,0.158-0.927,0.158c-0.36,0-0.678-0.052-0.954-0.156
				s-0.49-0.247-0.644-0.429c-0.154-0.182-0.261-0.381-0.319-0.6c-0.06-0.218-0.089-0.535-0.089-0.952v-1.634
				c0-0.49,0.065-0.876,0.197-1.159c0.133-0.283,0.35-0.5,0.65-0.65s0.647-0.226,1.039-0.226c0.479,0,0.873,0.091,1.184,0.272
				c0.312,0.182,0.529,0.422,0.654,0.722c0.125,0.3,0.188,0.721,0.188,1.264L604.277,119.241L604.277,119.241z M602.567,118.329
				v-0.409c0-0.29-0.016-0.477-0.046-0.562c-0.031-0.085-0.095-0.126-0.19-0.126c-0.118,0-0.191,0.036-0.219,0.107
				c-0.028,0.071-0.042,0.265-0.042,0.581v0.409H602.567z"/>
			<path fill="#575756" d="M606.569,116.341l-0.03,0.516c0.124-0.206,0.275-0.36,0.454-0.463s0.385-0.154,0.619-0.154
				c0.292,0,0.531,0.069,0.718,0.207c0.186,0.138,0.305,0.312,0.359,0.521c0.053,0.21,0.079,0.56,0.079,1.049v3.926h-1.704v-3.879
				c0-0.386-0.014-0.621-0.038-0.705c-0.025-0.084-0.097-0.126-0.212-0.126c-0.12,0-0.196,0.048-0.228,0.146
				c-0.031,0.098-0.046,0.356-0.046,0.779v3.787h-1.706v-5.602h1.734V116.341z"/>
			<path fill="#575756" d="M611.154,115.594v0.882h0.46v0.887h-0.46v2.997c0,0.369,0.019,0.574,0.057,0.616s0.196,0.063,0.475,0.063
				v0.903h-0.688c-0.388,0-0.666-0.016-0.832-0.048c-0.166-0.033-0.312-0.107-0.439-0.224c-0.127-0.117-0.205-0.25-0.236-0.401
				s-0.046-0.504-0.046-1.062v-2.845h-0.367v-0.887h0.367v-0.882L611.154,115.594L611.154,115.594z"/>
			<path fill="#575756" d="M615.848,118.308v1.372c0,0.504-0.024,0.873-0.075,1.108c-0.052,0.235-0.159,0.455-0.325,0.659
				c-0.166,0.204-0.379,0.354-0.64,0.452c-0.26,0.097-0.559,0.146-0.896,0.146c-0.377,0-0.697-0.042-0.958-0.125
				c-0.262-0.083-0.465-0.208-0.61-0.375c-0.145-0.167-0.249-0.37-0.31-0.608c-0.062-0.238-0.093-0.595-0.093-1.07v-1.435
				c0-0.521,0.056-0.927,0.169-1.22c0.112-0.292,0.314-0.527,0.607-0.705c0.293-0.177,0.667-0.266,1.123-0.266
				c0.383,0,0.711,0.057,0.986,0.171c0.275,0.114,0.486,0.262,0.635,0.445c0.149,0.183,0.251,0.372,0.307,0.566
				C615.821,117.616,615.848,117.911,615.848,118.308z M614.143,117.886c0-0.287-0.015-0.468-0.046-0.542
				c-0.03-0.075-0.097-0.112-0.197-0.112c-0.102,0-0.169,0.037-0.203,0.112c-0.034,0.074-0.052,0.255-0.052,0.542v2.528
				c0,0.265,0.018,0.437,0.052,0.517c0.034,0.081,0.1,0.121,0.197,0.121c0.102,0,0.169-0.037,0.201-0.11
				c0.032-0.073,0.048-0.231,0.048-0.473V117.886L614.143,117.886z"/>
		</g>
		<path fill="#A0C219" d="M580.989,44.113c-0.148,1.076-0.278,2.154-0.451,3.229c-2.07,12.852-8.703,22.703-19.773,29.459
			c-7.531,4.596-15.801,6.354-24.61,5.508c-5.812-0.559-11.217-2.334-16.286-5.199c-1.771-0.998-2.072-0.934-3.522,0.518
			c-6.647,6.648-13.293,13.301-19.946,19.941c-2,1.998-4.273,3.471-7.121,4.045c-4.7,0.949-9.97-3.244-10.02-8.037
			c-0.039-3.676,1.696-6.508,4.175-8.992c6.688-6.703,13.39-13.391,20.084-20.086c1.261-1.262,1.341-1.635,0.444-3.199
			c-2.723-4.76-4.512-9.852-5.179-15.283c-0.775-6.318-0.251-12.562,2.001-18.553c4.549-12.105,12.84-20.529,25.015-25.039
			c3.362-1.244,6.845-1.969,10.417-2.266c0.225-0.02,0.442-0.104,0.663-0.158c1.855,0,3.709,0,5.564,0
			c0.29,0.057,0.577,0.141,0.87,0.164c4.351,0.344,8.564,1.332,12.536,3.1c12.771,5.682,20.867,15.328,24.11,28.953
			c0.494,2.076,0.694,4.219,1.03,6.332C580.989,40.404,580.989,42.258,580.989,44.113z M570.198,41.256
			c-0.151-16.805-13.332-30.387-30.427-30.428c-16.868-0.039-30.416,13.338-30.495,30.439
			c-0.078,16.799,13.739,30.574,30.508,30.451C556.765,71.594,570.045,58.17,570.198,41.256z"/>
		<path fill="#A0C219" d="M541.547,16.441c3.562,0.121,6.968,0.84,10.254,2.145c2.289,0.908,3.376,3.271,2.564,5.506
			c-0.809,2.223-3.176,3.379-5.495,2.525c-2.957-1.09-5.95-1.754-9.115-1.363c-6.632,0.814-11.501,4.18-14.573,10.111
			c-0.596,1.15-1.117,2.332-2.343,2.977c-1.622,0.857-3.54,0.641-4.896-0.553c-1.318-1.16-1.81-3.111-1.094-4.807
			c1.445-3.424,3.5-6.451,6.209-8.998c3.771-3.545,8.195-5.883,13.287-6.865C538.059,16.789,539.812,16.662,541.547,16.441z"/>
		<g>
			<path fill="#A0C219" d="M516.832,92.916h1.383l0.991,7.923h0.127l1.06-7.923h1.304l-1.441,8.833h-1.96L516.832,92.916z"/>
			<path fill="#A0C219" d="M527.898,95.219v2.621h-3.354v1.865c0,0.527,0.069,0.885,0.208,1.074
				c0.138,0.189,0.384,0.284,0.738,0.284c0.338,0,0.576-0.097,0.715-0.292c0.138-0.195,0.208-0.55,0.208-1.065v-0.979h1.487v0.722
				c0,0.974-0.178,1.637-0.53,1.989c-0.354,0.352-0.98,0.528-1.879,0.528c-0.892,0-1.517-0.179-1.873-0.537
				c-0.357-0.358-0.536-1.024-0.536-1.998v-4.21c0-0.98,0.175-1.644,0.525-1.994c0.35-0.35,0.978-0.524,1.885-0.524
				c0.891,0,1.516,0.179,1.873,0.537C527.72,93.596,527.898,94.256,527.898,95.219z M526.411,94.952
				c0-0.521-0.069-0.876-0.208-1.065c-0.138-0.189-0.377-0.284-0.715-0.284c-0.347,0-0.59,0.1-0.732,0.301
				c-0.142,0.201-0.213,0.55-0.213,1.048v1.994h1.867L526.411,94.952L526.411,94.952z"/>
			<path fill="#A0C219" d="M533.351,92.718v1.074h-0.241c-0.607,0-1.037,0.113-1.291,0.339c-0.254,0.227-0.381,0.618-0.381,1.173
				v6.444h-1.418v-8.833h1.326l0.092,0.542c0.2-0.241,0.444-0.427,0.732-0.559s0.601-0.198,0.939-0.198
				c0.022,0,0.062,0.003,0.114,0.009C533.277,92.715,533.32,92.718,533.351,92.718z"/>
			<path fill="#A0C219" d="M541.305,93.457l0.115-0.542h1.325v9.787c0,0.974-0.177,1.636-0.53,1.985s-0.979,0.524-1.879,0.524
				c-0.861,0-1.477-0.17-1.85-0.511c-0.373-0.341-0.56-0.921-0.56-1.74v-0.473h1.487v0.473c0,0.539,0.066,0.899,0.202,1.083
				c0.135,0.183,0.375,0.275,0.72,0.275c0.354,0,0.604-0.099,0.749-0.296c0.146-0.198,0.219-0.552,0.219-1.062v-2.148
				c-0.191,0.252-0.431,0.438-0.715,0.559c-0.284,0.12-0.622,0.18-1.014,0.18c-0.6,0-1.024-0.147-1.274-0.442
				s-0.375-0.815-0.375-1.56v-4.821c0-0.75,0.127-1.276,0.38-1.577c0.254-0.301,0.677-0.451,1.269-0.451
				c0.376,0,0.711,0.064,1.003,0.193C540.87,93.023,541.112,93.211,541.305,93.457z M541.305,94.952
				c0-0.504-0.072-0.858-0.219-1.061c-0.146-0.204-0.388-0.305-0.726-0.305c-0.354,0-0.604,0.099-0.749,0.296
				c-0.146,0.198-0.22,0.554-0.22,1.07V99.3c0,0.521,0.073,0.88,0.22,1.078c0.146,0.198,0.396,0.296,0.749,0.296
				c0.338,0,0.58-0.103,0.726-0.309c0.146-0.207,0.219-0.562,0.219-1.065V94.952z"/>
			<path fill="#A0C219" d="M548.244,92.718v1.074h-0.242c-0.607,0-1.037,0.113-1.291,0.339c-0.254,0.227-0.38,0.618-0.38,1.173
				v6.444h-1.418v-8.833h1.326l0.092,0.542c0.2-0.241,0.444-0.427,0.731-0.559c0.288-0.132,0.602-0.198,0.939-0.198
				c0.023,0,0.062,0.003,0.115,0.009S548.213,92.718,548.244,92.718z"/>
			<path fill="#A0C219" d="M553.892,94.978v6.771h-1.325l-0.093-0.542c-0.191,0.247-0.436,0.434-0.731,0.563
				s-0.636,0.193-1.021,0.193c-0.6,0-1.023-0.15-1.273-0.451c-0.25-0.301-0.375-0.826-0.375-1.577v-1.762
				c0-0.693,0.251-1.186,0.755-1.478c0.503-0.292,1.385-0.455,2.646-0.49v-1.254c0-0.533-0.066-0.891-0.201-1.074
				c-0.136-0.183-0.375-0.275-0.721-0.275c-0.331,0-0.566,0.084-0.709,0.253c-0.142,0.169-0.213,0.46-0.213,0.872v0.49h-1.418
				v-0.241c0-0.882,0.173-1.482,0.52-1.8c0.346-0.318,0.96-0.477,1.844-0.477c0.859,0,1.462,0.161,1.804,0.481
				C553.721,93.503,553.892,94.102,553.892,94.978z M552.463,97.066c-0.738,0.023-1.239,0.12-1.504,0.292
				c-0.265,0.172-0.398,0.481-0.398,0.928v1.418c0,0.527,0.069,0.885,0.207,1.074c0.139,0.189,0.385,0.284,0.738,0.284
				c0.346,0,0.594-0.102,0.744-0.305c0.15-0.203,0.225-0.554,0.225-1.052L552.463,97.066z M551.932,89.839h1.625l-1.51,1.917h-1.13
				L551.932,89.839z"/>
			<path fill="#A0C219" d="M558.653,88.886v0.911h-0.208c-0.331,0-0.56,0.047-0.687,0.142c-0.127,0.094-0.189,0.265-0.189,0.511
				v2.466h1.084v0.876h-1.084v7.957h-1.418v-7.957h-0.772v-0.876h0.772V91c0-0.905,0.131-1.487,0.392-1.744
				c0.261-0.258,0.753-0.387,1.477-0.387c0.16,0,0.287,0.001,0.38,0.004C558.491,88.875,558.576,88.88,558.653,88.886z"/>
			<path fill="#A0C219" d="M559.794,89.075h1.579v1.34h-1.579V89.075z M559.863,92.916h1.418v8.833h-1.418V92.916z"/>
			<path fill="#A0C219" d="M567.84,95.219v0.567h-1.486v-0.833c0-0.579-0.053-0.948-0.156-1.108
				c-0.104-0.16-0.294-0.241-0.571-0.241s-0.469,0.09-0.576,0.271s-0.161,0.54-0.161,1.079v4.752c0,0.55,0.057,0.914,0.167,1.091
				c0.111,0.177,0.31,0.266,0.595,0.266c0.269,0,0.453-0.082,0.553-0.245c0.1-0.164,0.15-0.534,0.15-1.113V98.76h1.486v0.688
				c0,0.974-0.163,1.637-0.49,1.989c-0.326,0.352-0.9,0.528-1.723,0.528c-0.814,0-1.385-0.181-1.712-0.542
				c-0.327-0.361-0.49-1.025-0.49-1.993v-4.21c0-0.98,0.161-1.644,0.484-1.994s0.895-0.524,1.718-0.524
				c0.814,0,1.387,0.179,1.718,0.537C567.675,93.596,567.84,94.256,567.84,95.219z"/>
			<path fill="#A0C219" d="M574.479,95.219v4.229c0,0.974-0.177,1.637-0.529,1.989c-0.354,0.352-0.98,0.528-1.879,0.528
				c-0.892,0-1.517-0.179-1.873-0.537c-0.357-0.358-0.536-1.024-0.536-1.998v-4.21c0-0.979,0.175-1.644,0.524-1.994
				c0.351-0.35,0.979-0.524,1.886-0.524c0.891,0,1.516,0.179,1.873,0.537C574.301,93.596,574.479,94.256,574.479,95.219z
				 M572.993,94.952c0-0.521-0.069-0.876-0.208-1.065s-0.377-0.284-0.715-0.284c-0.347,0-0.591,0.1-0.732,0.301
				c-0.142,0.201-0.213,0.55-0.213,1.048v4.752c0,0.527,0.069,0.885,0.208,1.074c0.138,0.189,0.384,0.284,0.738,0.284
				c0.338,0,0.575-0.097,0.715-0.292c0.138-0.195,0.208-0.55,0.208-1.065L572.993,94.952L572.993,94.952z"/>
			<path fill="#A0C219" d="M585.096,91.979v2.08c0,0.407-0.092,0.708-0.276,0.902c-0.185,0.195-0.492,0.324-0.922,0.386
				c0.43,0.058,0.737,0.184,0.922,0.378c0.185,0.195,0.276,0.496,0.276,0.902v2.621c0,1.06-0.179,1.777-0.536,2.152
				c-0.356,0.375-0.997,0.563-1.919,0.563c-0.906,0-1.543-0.193-1.907-0.58c-0.365-0.387-0.549-1.104-0.549-2.152v-0.842h1.465v1.04
				c0,0.607,0.074,1.028,0.225,1.263s0.405,0.353,0.767,0.353s0.613-0.116,0.756-0.348c0.142-0.232,0.213-0.654,0.213-1.267v-2.681
				c0-0.373-0.095-0.623-0.282-0.752c-0.188-0.129-0.567-0.193-1.135-0.193h-0.403v-0.937h0.403c0.561,0,0.938-0.067,1.13-0.202
				c0.191-0.134,0.288-0.388,0.288-0.76v-2.097c0-0.67-0.065-1.108-0.196-1.314c-0.131-0.207-0.365-0.31-0.703-0.31
				c-0.346,0-0.59,0.118-0.731,0.353c-0.143,0.235-0.214,0.659-0.214,1.271v0.791h-1.486V91.98c0-1.025,0.18-1.73,0.542-2.114
				c0.36-0.384,0.991-0.576,1.89-0.576c0.884,0,1.502,0.19,1.856,0.571C584.919,90.242,585.096,90.948,585.096,91.979z"/>
		</g>
	</g>
	<g>
		<g>
			<path fill="#575756" d="M516.875,267.542h1.79c0.484,0,0.856,0.038,1.116,0.114s0.456,0.186,0.587,0.33
				c0.131,0.144,0.219,0.316,0.266,0.521s0.07,0.521,0.07,0.948v0.595c0,0.437-0.045,0.755-0.135,0.954
				c-0.091,0.2-0.255,0.354-0.496,0.46s-0.556,0.16-0.944,0.16h-0.477v2.752h-1.777V267.542L516.875,267.542z M518.653,268.712
				v1.739c0.051,0.002,0.094,0.004,0.131,0.004c0.163,0,0.276-0.04,0.34-0.12s0.095-0.247,0.095-0.5v-0.562
				c0-0.233-0.037-0.385-0.109-0.457C519.036,268.747,518.884,268.712,518.653,268.712z"/>
			<path fill="#575756" d="M524.934,270.891h-1.607v-0.646c0-0.225-0.019-0.378-0.055-0.458c-0.037-0.08-0.104-0.12-0.203-0.12
				s-0.165,0.035-0.198,0.105c-0.034,0.069-0.051,0.228-0.051,0.473v2.643c0,0.2,0.024,0.35,0.075,0.45
				c0.052,0.101,0.125,0.149,0.225,0.149c0.115,0,0.193-0.051,0.234-0.155s0.061-0.301,0.061-0.591v-0.667h1.52
				c-0.003,0.446-0.019,0.782-0.049,1.006c-0.029,0.224-0.124,0.454-0.283,0.688c-0.158,0.234-0.366,0.412-0.623,0.531
				c-0.256,0.12-0.572,0.18-0.949,0.18c-0.481,0-0.863-0.082-1.145-0.248c-0.281-0.164-0.48-0.396-0.597-0.691
				s-0.175-0.718-0.175-1.266v-1.59c0-0.477,0.048-0.834,0.144-1.078c0.097-0.241,0.3-0.457,0.612-0.647
				c0.312-0.19,0.691-0.285,1.14-0.285c0.445,0,0.825,0.095,1.141,0.283c0.314,0.188,0.524,0.426,0.629,0.713
				C524.882,269.957,524.934,270.364,524.934,270.891z"/>
			<path fill="#575756" d="M525.491,267.542h1.33c0.857,0,1.438,0.04,1.741,0.118c0.302,0.078,0.531,0.208,0.689,0.388
				c0.157,0.181,0.256,0.382,0.295,0.603c0.04,0.221,0.06,0.654,0.06,1.302v2.394c0,0.614-0.029,1.024-0.086,1.231
				c-0.059,0.207-0.158,0.368-0.303,0.485c-0.144,0.117-0.32,0.197-0.531,0.244c-0.212,0.047-0.529,0.07-0.954,0.07h-2.242
				L525.491,267.542L525.491,267.542z M527.269,268.712v4.496c0.257,0,0.414-0.051,0.474-0.153c0.059-0.104,0.089-0.383,0.089-0.839
				v-2.655c0-0.31-0.01-0.508-0.03-0.595c-0.02-0.087-0.064-0.151-0.135-0.192S527.463,268.712,527.269,268.712z"/>
			<path fill="#575756" d="M533.449,268.775l-0.068,0.736c0.248-0.527,0.606-0.807,1.076-0.838v1.971
				c-0.312,0-0.542,0.043-0.688,0.127c-0.146,0.084-0.236,0.203-0.27,0.354c-0.034,0.15-0.051,0.497-0.051,1.041v2.212h-1.706
				v-5.603H533.449L533.449,268.775z"/>
			<path fill="#575756" d="M538.7,271.675h-2.208v1.211c0,0.253,0.018,0.417,0.055,0.49s0.107,0.11,0.211,0.11
				c0.13,0,0.216-0.049,0.26-0.146c0.043-0.097,0.065-0.285,0.065-0.564v-0.738h1.617v0.414c0,0.346-0.022,0.611-0.065,0.798
				s-0.146,0.384-0.306,0.595s-0.364,0.369-0.61,0.475c-0.246,0.106-0.555,0.158-0.927,0.158c-0.36,0-0.678-0.052-0.954-0.156
				c-0.275-0.104-0.49-0.246-0.644-0.428c-0.154-0.183-0.261-0.382-0.319-0.601c-0.059-0.218-0.089-0.535-0.089-0.952v-1.634
				c0-0.49,0.065-0.876,0.198-1.159c0.132-0.283,0.349-0.5,0.649-0.65c0.302-0.149,0.647-0.226,1.039-0.226
				c0.479,0,0.873,0.091,1.185,0.272c0.311,0.182,0.528,0.422,0.653,0.722s0.188,0.721,0.188,1.264L538.7,271.675L538.7,271.675z
				 M536.991,270.764v-0.41c0-0.289-0.016-0.477-0.046-0.562c-0.031-0.085-0.095-0.126-0.19-0.126c-0.118,0-0.19,0.036-0.219,0.107
				c-0.028,0.07-0.042,0.265-0.042,0.58v0.41H536.991L536.991,270.764z"/>
			<path fill="#575756" d="M543.133,268.775v4.313c0,0.583-0.013,0.959-0.04,1.129c-0.026,0.171-0.122,0.351-0.285,0.54
				c-0.163,0.19-0.391,0.335-0.682,0.436c-0.291,0.1-0.658,0.149-1.1,0.149c-0.543,0-0.979-0.092-1.31-0.276
				c-0.329-0.185-0.5-0.547-0.511-1.086h1.655c0,0.248,0.09,0.371,0.27,0.371c0.129,0,0.215-0.037,0.258-0.113
				c0.042-0.076,0.063-0.235,0.063-0.478v-0.423c-0.146,0.133-0.3,0.232-0.462,0.301c-0.162,0.067-0.331,0.102-0.509,0.102
				c-0.308,0-0.56-0.062-0.759-0.187c-0.197-0.124-0.334-0.286-0.406-0.487c-0.073-0.2-0.11-0.487-0.11-0.858v-2.035
				c0-0.532,0.096-0.915,0.287-1.147c0.191-0.233,0.483-0.351,0.874-0.351c0.214,0,0.409,0.043,0.584,0.132
				c0.176,0.086,0.333,0.219,0.471,0.394l0.123-0.423h1.588V268.775z M541.423,270.261c0-0.256-0.015-0.419-0.044-0.489
				c-0.029-0.071-0.095-0.105-0.196-0.105c-0.099,0-0.168,0.04-0.209,0.12s-0.061,0.237-0.061,0.475v1.882
				c0,0.252,0.015,0.414,0.046,0.488c0.031,0.075,0.096,0.112,0.194,0.112c0.112,0,0.186-0.046,0.219-0.136
				c0.034-0.09,0.051-0.293,0.051-0.611V270.261L541.423,270.261z"/>
			<path fill="#575756" d="M545.497,267.542v0.892h-1.756v-0.892H545.497z M545.497,268.775v5.602h-1.756v-5.602H545.497z"/>
			<path fill="#575756" d="M549.592,270.564h-1.511v-0.303c0-0.26-0.015-0.424-0.044-0.492c-0.03-0.069-0.104-0.104-0.221-0.104
				c-0.097,0-0.167,0.031-0.216,0.096c-0.048,0.063-0.071,0.157-0.071,0.284c0,0.171,0.012,0.297,0.035,0.377
				c0.024,0.081,0.097,0.168,0.216,0.265c0.119,0.096,0.364,0.234,0.736,0.418c0.495,0.242,0.82,0.47,0.976,0.684
				c0.154,0.214,0.231,0.525,0.231,0.934c0,0.455-0.059,0.799-0.177,1.031s-0.316,0.411-0.593,0.536
				c-0.277,0.125-0.612,0.188-1.003,0.188c-0.434,0-0.805-0.067-1.112-0.203c-0.308-0.135-0.52-0.317-0.635-0.549
				c-0.115-0.23-0.173-0.58-0.173-1.047v-0.27h1.511v0.354c0,0.301,0.019,0.498,0.057,0.588s0.113,0.135,0.227,0.135
				c0.121,0,0.206-0.03,0.253-0.092c0.047-0.061,0.072-0.188,0.072-0.381c0-0.268-0.031-0.436-0.094-0.502
				c-0.064-0.068-0.395-0.269-0.992-0.601c-0.5-0.281-0.806-0.537-0.916-0.767c-0.109-0.229-0.164-0.502-0.164-0.816
				c0-0.448,0.059-0.777,0.177-0.99c0.118-0.212,0.318-0.376,0.602-0.492c0.283-0.115,0.612-0.173,0.986-0.173
				c0.372,0,0.687,0.048,0.948,0.142c0.26,0.095,0.46,0.219,0.599,0.373c0.139,0.156,0.224,0.299,0.253,0.431
				c0.03,0.132,0.044,0.339,0.044,0.621L549.592,270.564L549.592,270.564z"/>
			<path fill="#575756" d="M551.977,268.027v0.883h0.461v0.887h-0.461v2.997c0,0.369,0.02,0.574,0.058,0.616
				s0.196,0.062,0.475,0.062v0.903h-0.688c-0.389,0-0.666-0.017-0.832-0.048c-0.166-0.033-0.312-0.107-0.439-0.225
				s-0.206-0.25-0.237-0.4c-0.03-0.151-0.046-0.504-0.046-1.062v-2.845H549.9v-0.887h0.366v-0.882H551.977L551.977,268.027z"/>
			<path fill="#575756" d="M554.519,268.775l-0.067,0.736c0.248-0.527,0.605-0.807,1.076-0.838v1.971
				c-0.312,0-0.542,0.043-0.688,0.127c-0.146,0.084-0.237,0.203-0.27,0.354c-0.034,0.15-0.052,0.497-0.052,1.041v2.212h-1.706
				v-5.603H554.519L554.519,268.775z"/>
			<path fill="#575756" d="M557.431,270.945h-1.6v-0.375c0-0.434,0.05-0.769,0.15-1.004c0.1-0.234,0.3-0.441,0.602-0.623
				c0.301-0.18,0.692-0.27,1.174-0.27c0.577,0,1.011,0.102,1.305,0.307c0.293,0.203,0.469,0.453,0.527,0.75
				c0.06,0.297,0.089,0.908,0.089,1.834v2.812h-1.658v-0.499c-0.104,0.2-0.239,0.351-0.403,0.45c-0.165,0.1-0.361,0.15-0.589,0.15
				c-0.298,0-0.572-0.084-0.821-0.252s-0.374-0.533-0.374-1.1v-0.46c0-0.419,0.066-0.705,0.198-0.856
				c0.132-0.152,0.46-0.33,0.983-0.532c0.561-0.22,0.86-0.367,0.899-0.443c0.04-0.075,0.059-0.229,0.059-0.464
				c0-0.292-0.021-0.482-0.064-0.572c-0.044-0.089-0.116-0.133-0.217-0.133c-0.115,0-0.188,0.037-0.216,0.112
				c-0.027,0.073-0.041,0.268-0.041,0.579v0.588H557.431z M557.972,271.713c-0.272,0.2-0.431,0.367-0.475,0.502
				s-0.065,0.33-0.065,0.583c0,0.29,0.02,0.478,0.058,0.562s0.112,0.127,0.226,0.127c0.107,0,0.177-0.033,0.209-0.1
				c0.032-0.065,0.048-0.24,0.048-0.521V271.713z"/>
			<path fill="#575756" d="M564.144,267.542v6.834h-1.706v-0.405c-0.162,0.168-0.335,0.295-0.515,0.381
				c-0.18,0.084-0.369,0.125-0.565,0.125c-0.265,0-0.494-0.068-0.688-0.207c-0.194-0.141-0.319-0.302-0.374-0.483
				c-0.055-0.183-0.083-0.481-0.083-0.896v-2.621c0-0.432,0.028-0.736,0.083-0.916c0.055-0.181,0.181-0.338,0.378-0.476
				c0.197-0.136,0.433-0.205,0.705-0.205c0.211,0,0.405,0.038,0.58,0.114c0.176,0.076,0.336,0.189,0.479,0.343v-1.588H564.144
				L564.144,267.542z M562.438,270.186c0-0.207-0.018-0.344-0.053-0.414c-0.035-0.071-0.104-0.105-0.209-0.105
				c-0.101,0-0.17,0.031-0.205,0.095c-0.035,0.064-0.053,0.205-0.053,0.425v2.744c0,0.228,0.018,0.377,0.051,0.448
				c0.034,0.072,0.099,0.108,0.194,0.108c0.11,0,0.183-0.041,0.219-0.121c0.037-0.08,0.056-0.276,0.056-0.59V270.186
				L562.438,270.186z"/>
			<path fill="#575756" d="M566.28,270.945h-1.601v-0.375c0-0.434,0.051-0.769,0.15-1.004c0.1-0.234,0.3-0.441,0.602-0.623
				c0.302-0.18,0.692-0.27,1.175-0.27c0.577,0,1.011,0.102,1.304,0.307c0.293,0.203,0.469,0.453,0.528,0.75
				c0.059,0.297,0.089,0.908,0.089,1.834v2.812h-1.659v-0.499c-0.104,0.2-0.239,0.351-0.403,0.45c-0.165,0.1-0.36,0.15-0.589,0.15
				c-0.298,0-0.572-0.084-0.821-0.252c-0.248-0.168-0.374-0.533-0.374-1.1v-0.46c0-0.419,0.066-0.705,0.198-0.856
				c0.132-0.152,0.46-0.33,0.984-0.532c0.56-0.22,0.859-0.367,0.898-0.443c0.04-0.075,0.06-0.229,0.06-0.464
				c0-0.292-0.022-0.482-0.065-0.572c-0.044-0.089-0.116-0.133-0.217-0.133c-0.115,0-0.187,0.037-0.215,0.112
				c-0.028,0.073-0.042,0.268-0.042,0.579v0.588H566.28z M566.82,271.713c-0.273,0.2-0.432,0.367-0.476,0.502
				s-0.064,0.33-0.064,0.583c0,0.29,0.019,0.478,0.057,0.562s0.113,0.127,0.227,0.127c0.106,0,0.177-0.033,0.209-0.1
				c0.031-0.065,0.048-0.24,0.048-0.521V271.713z"/>
			<path fill="#575756" d="M572.595,270.564h-1.511v-0.303c0-0.26-0.015-0.424-0.044-0.492c-0.03-0.069-0.104-0.104-0.221-0.104
				c-0.097,0-0.167,0.031-0.216,0.096c-0.048,0.063-0.071,0.157-0.071,0.284c0,0.171,0.012,0.297,0.036,0.377
				c0.023,0.081,0.096,0.168,0.215,0.265c0.119,0.096,0.365,0.234,0.736,0.418c0.495,0.242,0.82,0.47,0.976,0.684
				s0.231,0.525,0.231,0.934c0,0.455-0.059,0.799-0.177,1.031s-0.315,0.411-0.593,0.536s-0.612,0.188-1.003,0.188
				c-0.434,0-0.804-0.067-1.112-0.203c-0.308-0.135-0.52-0.317-0.635-0.549c-0.115-0.23-0.173-0.58-0.173-1.047v-0.27h1.511v0.354
				c0,0.301,0.019,0.498,0.057,0.588s0.113,0.135,0.227,0.135c0.121,0,0.206-0.03,0.253-0.092c0.047-0.061,0.072-0.188,0.072-0.381
				c0-0.268-0.031-0.436-0.094-0.502c-0.064-0.068-0.395-0.269-0.991-0.601c-0.501-0.281-0.807-0.537-0.916-0.767
				c-0.11-0.229-0.165-0.502-0.165-0.816c0-0.448,0.059-0.777,0.177-0.99c0.118-0.212,0.318-0.376,0.602-0.492
				c0.283-0.115,0.612-0.173,0.986-0.173c0.372,0,0.688,0.048,0.948,0.142c0.26,0.095,0.46,0.219,0.599,0.373
				c0.139,0.156,0.225,0.299,0.253,0.431c0.03,0.132,0.044,0.339,0.044,0.621L572.595,270.564L572.595,270.564z"/>
			<path fill="#575756" d="M576.441,268.775l-0.03,0.494c0.151-0.199,0.318-0.35,0.502-0.447c0.183-0.098,0.383-0.148,0.6-0.148
				c0.265,0,0.493,0.071,0.687,0.213c0.192,0.143,0.312,0.307,0.36,0.492s0.072,0.501,0.072,0.945v2.359
				c0,0.51-0.03,0.873-0.091,1.088s-0.184,0.387-0.372,0.515c-0.187,0.128-0.413,0.192-0.677,0.192
				c-0.211,0-0.407-0.049-0.587-0.148c-0.181-0.1-0.346-0.245-0.494-0.439v1.284h-1.706v-6.399H576.441z M576.926,270.404
				c0-0.346-0.013-0.557-0.038-0.629c-0.024-0.073-0.096-0.109-0.211-0.109c-0.112,0-0.185,0.042-0.218,0.126
				c-0.032,0.084-0.048,0.289-0.048,0.612v2.322c0,0.336,0.017,0.547,0.051,0.633c0.034,0.084,0.107,0.127,0.219,0.127
				c0.11,0,0.179-0.039,0.205-0.116c0.027-0.077,0.04-0.265,0.04-0.563V270.404z"/>
			<path fill="#575756" d="M583.052,270.742v1.372c0,0.504-0.024,0.872-0.076,1.108c-0.051,0.234-0.158,0.454-0.324,0.658
				s-0.38,0.354-0.64,0.452c-0.26,0.097-0.559,0.146-0.896,0.146c-0.377,0-0.697-0.041-0.958-0.125
				c-0.263-0.082-0.465-0.207-0.61-0.375c-0.145-0.166-0.249-0.369-0.31-0.607c-0.062-0.238-0.093-0.596-0.093-1.07v-1.435
				c0-0.521,0.056-0.927,0.169-1.22c0.112-0.293,0.314-0.527,0.607-0.705s0.667-0.267,1.123-0.267c0.383,0,0.711,0.058,0.986,0.171
				c0.274,0.114,0.485,0.262,0.635,0.445s0.251,0.372,0.306,0.566C583.024,270.05,583.052,270.346,583.052,270.742z M581.346,270.32
				c0-0.287-0.015-0.469-0.046-0.543s-0.097-0.111-0.198-0.111c-0.101,0-0.169,0.037-0.202,0.111
				c-0.034,0.074-0.052,0.256-0.052,0.543v2.527c0,0.266,0.018,0.438,0.052,0.518c0.033,0.08,0.1,0.121,0.197,0.121
				c0.102,0,0.168-0.037,0.201-0.11c0.032-0.073,0.048-0.231,0.048-0.474V270.32L581.346,270.32z"/>
			<path fill="#575756" d="M585.319,268.775l-0.068,0.736c0.248-0.527,0.606-0.807,1.076-0.838v1.971
				c-0.312,0-0.542,0.043-0.688,0.127c-0.146,0.084-0.236,0.203-0.27,0.354c-0.034,0.15-0.051,0.497-0.051,1.041v2.212h-1.706
				v-5.603H585.319L585.319,268.775z"/>
			<path fill="#575756" d="M519.48,277.38v1.241l-1.259,3.238h1.259v1.123h-2.909v-1.174l1.284-3.306h-1.153v-1.123H519.48z"/>
			<path fill="#575756" d="M523.719,279.348v1.373c0,0.504-0.024,0.872-0.076,1.107c-0.051,0.234-0.158,0.455-0.324,0.658
				c-0.166,0.205-0.379,0.354-0.64,0.453c-0.26,0.097-0.559,0.146-0.896,0.146c-0.377,0-0.697-0.042-0.958-0.125
				c-0.262-0.083-0.465-0.208-0.61-0.375c-0.145-0.167-0.249-0.37-0.31-0.608c-0.062-0.238-0.094-0.595-0.094-1.069v-1.435
				c0-0.521,0.057-0.928,0.17-1.221c0.112-0.292,0.314-0.527,0.607-0.705c0.293-0.177,0.667-0.266,1.123-0.266
				c0.383,0,0.711,0.057,0.986,0.171c0.274,0.114,0.485,0.262,0.635,0.444c0.149,0.184,0.251,0.373,0.306,0.566
				C523.691,278.654,523.719,278.951,523.719,279.348z M522.013,278.926c0-0.287-0.015-0.468-0.046-0.542
				c-0.031-0.075-0.097-0.112-0.198-0.112c-0.101,0-0.169,0.037-0.202,0.112c-0.034,0.074-0.052,0.255-0.052,0.542v2.528
				c0,0.265,0.018,0.437,0.052,0.517c0.033,0.081,0.1,0.121,0.197,0.121c0.102,0,0.168-0.037,0.201-0.109
				c0.032-0.073,0.048-0.231,0.048-0.474V278.926L522.013,278.926z"/>
			<path fill="#575756" d="M526.015,277.38l-0.029,0.517c0.124-0.207,0.274-0.36,0.454-0.463c0.179-0.104,0.385-0.154,0.618-0.154
				c0.292,0,0.532,0.068,0.719,0.207c0.186,0.138,0.305,0.312,0.358,0.521c0.053,0.21,0.08,0.56,0.08,1.05v3.926h-1.705v-3.879
				c0-0.387-0.013-0.621-0.038-0.705c-0.024-0.084-0.096-0.127-0.211-0.127c-0.121,0-0.196,0.049-0.228,0.146
				s-0.046,0.355-0.046,0.779v3.787h-1.706v-5.603h1.733V277.38z"/>
			<path fill="#575756" d="M530.325,279.55h-1.601v-0.375c0-0.434,0.051-0.768,0.15-1.003c0.1-0.234,0.3-0.441,0.602-0.623
				c0.302-0.18,0.692-0.27,1.175-0.27c0.577,0,1.011,0.102,1.304,0.306s0.469,0.454,0.528,0.751
				c0.059,0.297,0.089,0.908,0.089,1.834v2.812h-1.659v-0.5c-0.104,0.201-0.239,0.351-0.403,0.451
				c-0.165,0.1-0.36,0.149-0.589,0.149c-0.298,0-0.572-0.083-0.821-0.251c-0.248-0.168-0.373-0.534-0.373-1.1v-0.461
				c0-0.418,0.065-0.705,0.197-0.856s0.46-0.329,0.984-0.532c0.56-0.219,0.859-0.367,0.898-0.443c0.04-0.075,0.06-0.229,0.06-0.463
				c0-0.293-0.022-0.483-0.065-0.572c-0.044-0.09-0.115-0.133-0.217-0.133c-0.115,0-0.187,0.037-0.215,0.111
				s-0.042,0.268-0.042,0.58v0.587H530.325z M530.865,280.318c-0.273,0.201-0.432,0.367-0.476,0.502
				c-0.044,0.136-0.064,0.33-0.064,0.584c0,0.289,0.019,0.477,0.057,0.561s0.113,0.127,0.227,0.127c0.106,0,0.177-0.033,0.209-0.099
				c0.031-0.065,0.048-0.24,0.048-0.521V280.318z"/>
			<path fill="#575756" d="M538.557,277.38v4.313c0,0.584-0.013,0.959-0.04,1.13c-0.026,0.17-0.122,0.35-0.284,0.54
				c-0.163,0.189-0.392,0.335-0.683,0.435c-0.291,0.101-0.658,0.15-1.1,0.15c-0.543,0-0.979-0.093-1.31-0.276
				c-0.328-0.186-0.5-0.547-0.511-1.087h1.655c0,0.248,0.09,0.372,0.27,0.372c0.13,0,0.216-0.038,0.259-0.114
				c0.042-0.075,0.062-0.235,0.062-0.477v-0.423c-0.146,0.133-0.3,0.232-0.462,0.3s-0.331,0.102-0.509,0.102
				c-0.308,0-0.56-0.062-0.758-0.186s-0.334-0.286-0.407-0.487s-0.11-0.488-0.11-0.859v-2.035c0-0.531,0.097-0.914,0.287-1.147
				c0.191-0.233,0.483-0.351,0.874-0.351c0.214,0,0.409,0.043,0.584,0.132c0.176,0.087,0.333,0.219,0.471,0.394l0.123-0.423h1.588
				V277.38z M536.847,278.867c0-0.256-0.015-0.419-0.044-0.49c-0.028-0.07-0.095-0.105-0.195-0.105c-0.1,0-0.168,0.041-0.209,0.121
				s-0.062,0.237-0.062,0.475v1.882c0,0.251,0.015,0.413,0.046,0.487c0.031,0.076,0.097,0.113,0.194,0.113
				c0.113,0,0.186-0.045,0.219-0.136c0.034-0.09,0.051-0.294,0.051-0.612V278.867L536.847,278.867z"/>
			<path fill="#575756" d="M543.028,280.281h-2.208v1.211c0,0.253,0.018,0.417,0.055,0.49c0.037,0.072,0.107,0.109,0.211,0.109
				c0.13,0,0.216-0.049,0.26-0.146c0.043-0.096,0.065-0.284,0.065-0.563v-0.739h1.617v0.414c0,0.346-0.022,0.612-0.065,0.799
				c-0.043,0.186-0.146,0.383-0.306,0.595c-0.16,0.211-0.364,0.368-0.61,0.475s-0.555,0.158-0.927,0.158
				c-0.36,0-0.678-0.052-0.954-0.156s-0.49-0.247-0.644-0.429c-0.154-0.182-0.261-0.381-0.319-0.6s-0.089-0.535-0.089-0.953v-1.633
				c0-0.49,0.065-0.877,0.198-1.16c0.132-0.282,0.349-0.5,0.649-0.649s0.647-0.226,1.039-0.226c0.479,0,0.873,0.091,1.185,0.271
				c0.311,0.182,0.528,0.422,0.653,0.723c0.125,0.299,0.188,0.721,0.188,1.264L543.028,280.281L543.028,280.281z M541.318,279.369
				v-0.409c0-0.29-0.016-0.478-0.047-0.562c-0.03-0.086-0.094-0.127-0.189-0.127c-0.118,0-0.191,0.037-0.219,0.107
				c-0.028,0.071-0.042,0.266-0.042,0.581v0.409H541.318L541.318,279.369z"/>
			<path fill="#575756" d="M547.443,279.348v1.373c0,0.504-0.025,0.872-0.076,1.107c-0.051,0.234-0.159,0.455-0.325,0.658
				c-0.166,0.205-0.379,0.354-0.639,0.453c-0.261,0.097-0.56,0.146-0.897,0.146c-0.377,0-0.697-0.042-0.958-0.125
				c-0.262-0.083-0.465-0.208-0.609-0.375c-0.146-0.167-0.249-0.37-0.311-0.608s-0.093-0.595-0.093-1.069v-1.435
				c0-0.521,0.056-0.928,0.169-1.221c0.113-0.292,0.315-0.527,0.608-0.705c0.293-0.177,0.666-0.266,1.122-0.266
				c0.384,0,0.712,0.057,0.986,0.171c0.275,0.114,0.486,0.262,0.635,0.444c0.149,0.184,0.251,0.373,0.307,0.566
				C547.416,278.654,547.443,278.951,547.443,279.348z M545.738,278.926c0-0.287-0.016-0.468-0.046-0.542
				c-0.031-0.075-0.098-0.112-0.198-0.112c-0.102,0-0.169,0.037-0.203,0.112c-0.034,0.074-0.051,0.255-0.051,0.542v2.528
				c0,0.265,0.017,0.437,0.051,0.517c0.034,0.081,0.1,0.121,0.198,0.121c0.101,0,0.168-0.037,0.2-0.109
				c0.032-0.073,0.049-0.231,0.049-0.474V278.926L545.738,278.926z"/>
			<path fill="#575756" d="M551.88,277.38v4.313c0,0.584-0.013,0.959-0.04,1.13c-0.026,0.17-0.122,0.35-0.285,0.54
				c-0.163,0.189-0.391,0.335-0.682,0.435c-0.291,0.101-0.658,0.15-1.1,0.15c-0.543,0-0.979-0.093-1.31-0.276
				c-0.329-0.186-0.5-0.547-0.511-1.087h1.655c0,0.248,0.09,0.372,0.27,0.372c0.129,0,0.215-0.038,0.258-0.114
				c0.042-0.075,0.063-0.235,0.063-0.477v-0.423c-0.146,0.133-0.3,0.232-0.462,0.3s-0.331,0.102-0.509,0.102
				c-0.308,0-0.56-0.062-0.759-0.186c-0.197-0.124-0.334-0.286-0.406-0.487c-0.073-0.201-0.11-0.488-0.11-0.859v-2.035
				c0-0.531,0.096-0.914,0.287-1.147s0.482-0.351,0.874-0.351c0.214,0,0.409,0.043,0.584,0.132c0.176,0.087,0.333,0.219,0.471,0.394
				l0.123-0.423h1.588V277.38z M550.17,278.867c0-0.256-0.015-0.419-0.044-0.49c-0.029-0.07-0.095-0.105-0.196-0.105
				c-0.099,0-0.168,0.041-0.209,0.121s-0.061,0.237-0.061,0.475v1.882c0,0.251,0.015,0.413,0.046,0.487
				c0.031,0.076,0.096,0.113,0.194,0.113c0.112,0,0.186-0.045,0.219-0.136c0.034-0.09,0.051-0.294,0.051-0.612V278.867
				L550.17,278.867z"/>
			<path fill="#575756" d="M554.194,277.38l-0.068,0.737c0.248-0.527,0.606-0.807,1.076-0.838v1.971
				c-0.312,0-0.542,0.042-0.688,0.127c-0.146,0.084-0.236,0.202-0.27,0.354c-0.034,0.149-0.051,0.496-0.051,1.041v2.211h-1.706
				v-5.602L554.194,277.38L554.194,277.38z"/>
			<path fill="#575756" d="M557.106,279.55h-1.601v-0.375c0-0.434,0.05-0.768,0.15-1.003c0.1-0.234,0.3-0.441,0.602-0.623
				c0.301-0.18,0.692-0.27,1.174-0.27c0.577,0,1.012,0.102,1.305,0.306s0.469,0.454,0.527,0.751c0.06,0.297,0.09,0.908,0.09,1.834
				v2.812h-1.659v-0.5c-0.104,0.201-0.239,0.351-0.403,0.451c-0.165,0.1-0.361,0.149-0.589,0.149c-0.298,0-0.572-0.083-0.821-0.251
				s-0.374-0.534-0.374-1.1v-0.461c0-0.418,0.066-0.705,0.198-0.856s0.46-0.329,0.984-0.532c0.56-0.219,0.859-0.367,0.898-0.443
				c0.04-0.075,0.06-0.229,0.06-0.463c0-0.293-0.022-0.483-0.065-0.572c-0.044-0.09-0.116-0.133-0.217-0.133
				c-0.115,0-0.188,0.037-0.215,0.111c-0.028,0.074-0.042,0.268-0.042,0.58v0.587H557.106z M558.9,275.861l-1.39,1.144h-0.856
				l0.743-1.144H558.9z M557.646,280.318c-0.273,0.201-0.432,0.367-0.476,0.502c-0.044,0.136-0.064,0.33-0.064,0.584
				c0,0.289,0.019,0.477,0.057,0.561s0.113,0.127,0.226,0.127c0.107,0,0.178-0.033,0.209-0.099c0.032-0.065,0.049-0.24,0.049-0.521
				V280.318z"/>
			<path fill="#575756" d="M562.113,276.148v0.865c-0.353,0-0.56,0.016-0.623,0.049c-0.063,0.031-0.096,0.125-0.096,0.275v0.178
				h0.719v0.887h-0.405v4.58h-1.706v-4.58h-0.35v-0.887h0.35c0-0.369,0.013-0.615,0.038-0.74c0.025-0.123,0.088-0.233,0.188-0.332
				c0.1-0.098,0.239-0.17,0.42-0.221c0.18-0.051,0.46-0.076,0.84-0.076h0.625V276.148z"/>
			<path fill="#575756" d="M564.194,276.148v0.891h-1.757v-0.891H564.194z M564.194,277.38v5.603h-1.757v-5.603H564.194z"/>
			<path fill="#575756" d="M568.576,279.496h-1.608v-0.646c0-0.225-0.018-0.377-0.055-0.457s-0.104-0.121-0.203-0.121
				c-0.098,0-0.165,0.035-0.198,0.105s-0.051,0.229-0.051,0.473v2.644c0,0.2,0.025,0.35,0.076,0.45
				c0.051,0.1,0.125,0.149,0.224,0.149c0.115,0,0.193-0.052,0.234-0.155c0.041-0.104,0.061-0.301,0.061-0.592v-0.666h1.521
				c-0.003,0.446-0.02,0.782-0.049,1.006c-0.03,0.224-0.124,0.453-0.283,0.688s-0.367,0.412-0.623,0.532s-0.573,0.179-0.95,0.179
				c-0.481,0-0.863-0.082-1.144-0.247c-0.281-0.165-0.481-0.396-0.598-0.692c-0.115-0.295-0.175-0.717-0.175-1.265v-1.591
				c0-0.477,0.048-0.834,0.145-1.077c0.096-0.241,0.3-0.458,0.611-0.647c0.312-0.19,0.692-0.285,1.141-0.285
				c0.444,0,0.824,0.094,1.14,0.283c0.315,0.188,0.525,0.426,0.629,0.713C568.524,278.562,568.576,278.969,568.576,279.496z"/>
			<path fill="#575756" d="M570.606,279.55h-1.601v-0.375c0-0.434,0.05-0.768,0.15-1.003c0.1-0.234,0.3-0.441,0.602-0.623
				c0.301-0.18,0.692-0.27,1.174-0.27c0.577,0,1.012,0.102,1.305,0.306s0.469,0.454,0.527,0.751c0.06,0.297,0.09,0.908,0.09,1.834
				v2.812h-1.659v-0.5c-0.104,0.201-0.239,0.351-0.403,0.451c-0.165,0.1-0.361,0.149-0.589,0.149c-0.298,0-0.572-0.083-0.821-0.251
				s-0.374-0.534-0.374-1.1v-0.461c0-0.418,0.066-0.705,0.198-0.856s0.46-0.329,0.984-0.532c0.56-0.219,0.859-0.367,0.898-0.443
				c0.04-0.075,0.06-0.229,0.06-0.463c0-0.293-0.022-0.483-0.065-0.572c-0.044-0.09-0.116-0.133-0.217-0.133
				c-0.115,0-0.188,0.037-0.215,0.111c-0.028,0.074-0.042,0.268-0.042,0.58v0.587H570.606z M571.146,280.318
				c-0.272,0.201-0.431,0.367-0.475,0.502c-0.044,0.136-0.064,0.33-0.064,0.584c0,0.289,0.019,0.477,0.057,0.561
				s0.113,0.127,0.226,0.127c0.107,0,0.178-0.033,0.209-0.099c0.032-0.065,0.048-0.24,0.048-0.521V280.318z"/>
		</g>
		<path fill="#A0C219" d="M516.52,199.588c0.338-2.111,0.537-4.256,1.031-6.33c3.243-13.627,11.341-23.271,24.109-28.955
			c3.973-1.768,8.188-2.756,12.538-3.1c0.293-0.023,0.58-0.107,0.87-0.162c1.854,0,3.709,0,5.562,0
			c0.221,0.053,0.439,0.139,0.664,0.156c3.572,0.297,7.055,1.021,10.417,2.268c12.174,4.508,20.465,12.934,25.015,25.037
			c2.253,5.992,2.776,12.234,2.002,18.555c-0.668,5.43-2.456,10.521-5.18,15.281c-0.896,1.566-0.816,1.938,0.444,3.199
			c6.694,6.695,13.396,13.385,20.084,20.088c2.479,2.482,4.214,5.316,4.175,8.99c-0.05,4.795-5.319,8.988-10.02,8.037
			c-2.848-0.574-5.122-2.047-7.121-4.043c-6.654-6.644-13.3-13.295-19.947-19.943c-1.451-1.449-1.753-1.516-3.522-0.516
			c-5.068,2.865-10.476,4.639-16.286,5.197c-8.81,0.848-17.079-0.91-24.611-5.509c-11.069-6.756-17.702-16.604-19.772-29.459
			c-0.174-1.071-0.303-2.151-0.452-3.229C516.52,203.297,516.52,201.443,516.52,199.588z M557.726,232.758
			c16.769,0.125,30.587-13.652,30.509-30.451c-0.08-17.1-13.627-30.479-30.497-30.438c-17.094,0.041-30.273,13.623-30.425,30.428
			C527.464,219.209,540.745,232.633,557.726,232.758z"/>
		<path fill="#A0C219" d="M555.962,177.48c-3.562,0.121-6.969,0.842-10.255,2.146c-2.288,0.908-3.376,3.271-2.563,5.504
			c0.808,2.224,3.177,3.379,5.495,2.524c2.957-1.09,5.949-1.754,9.115-1.362c6.632,0.813,11.5,4.181,14.572,10.11
			c0.597,1.152,1.119,2.332,2.343,2.979c1.623,0.854,3.541,0.64,4.897-0.555c1.318-1.16,1.809-3.111,1.093-4.808
			c-1.446-3.422-3.5-6.449-6.209-8.998c-3.771-3.545-8.195-5.881-13.287-6.864C559.45,177.828,557.697,177.701,555.962,177.48z"/>
		<g>
			<path fill="#A0C219" d="M516.878,250.114h1.487l1.579,11.411h0.161l1.486-11.411h1.396l-1.845,12.674h-2.281L516.878,250.114z"/>
			<path fill="#A0C219" d="M529.201,256.258v2.621h-3.354v1.865c0,0.527,0.069,0.885,0.208,1.074
				c0.139,0.188,0.385,0.283,0.738,0.283c0.338,0,0.576-0.097,0.715-0.291c0.139-0.195,0.208-0.551,0.208-1.065v-0.979h1.487v0.723
				c0,0.974-0.177,1.637-0.53,1.988c-0.354,0.353-0.979,0.528-1.879,0.528c-0.891,0-1.516-0.179-1.873-0.537
				c-0.356-0.358-0.536-1.024-0.536-1.997v-4.211c0-0.979,0.175-1.644,0.525-1.994c0.35-0.35,0.978-0.523,1.885-0.523
				c0.891,0,1.516,0.179,1.873,0.537C529.021,254.636,529.201,255.296,529.201,256.258z M527.714,255.992
				c0-0.521-0.069-0.876-0.208-1.065c-0.138-0.188-0.377-0.284-0.715-0.284c-0.346,0-0.59,0.101-0.732,0.301
				c-0.142,0.201-0.213,0.551-0.213,1.049v1.994h1.867L527.714,255.992L527.714,255.992z"/>
			<path fill="#A0C219" d="M534.653,253.758v1.074h-0.242c-0.607,0-1.037,0.113-1.291,0.339c-0.254,0.228-0.38,0.618-0.38,1.173
				v6.444h-1.418v-8.833h1.326l0.092,0.542c0.199-0.241,0.443-0.427,0.731-0.56c0.288-0.131,0.602-0.197,0.939-0.197
				c0.022,0,0.062,0.003,0.115,0.009C534.579,253.755,534.622,253.758,534.653,253.758z"/>
			<path fill="#A0C219" d="M542.607,254.497l0.114-0.542h1.325v9.787c0,0.974-0.177,1.636-0.53,1.984
				c-0.354,0.35-0.979,0.524-1.879,0.524c-0.86,0-1.477-0.17-1.85-0.511c-0.373-0.342-0.56-0.922-0.56-1.74v-0.473h1.487V264
				c0,0.539,0.067,0.898,0.202,1.083c0.135,0.183,0.375,0.274,0.72,0.274c0.354,0,0.604-0.099,0.749-0.295
				c0.146-0.198,0.219-0.553,0.219-1.062v-2.148c-0.191,0.252-0.431,0.438-0.715,0.56c-0.283,0.12-0.622,0.18-1.014,0.18
				c-0.599,0-1.024-0.147-1.274-0.442s-0.375-0.814-0.375-1.56v-4.821c0-0.75,0.128-1.275,0.381-1.576
				c0.254-0.301,0.676-0.451,1.268-0.451c0.376,0,0.711,0.064,1.003,0.193C542.173,254.062,542.415,254.25,542.607,254.497z
				 M542.607,255.992c0-0.504-0.073-0.858-0.22-1.061c-0.146-0.205-0.388-0.306-0.726-0.306c-0.354,0-0.604,0.099-0.749,0.296
				c-0.146,0.198-0.219,0.555-0.219,1.07v4.348c0,0.521,0.072,0.881,0.219,1.078c0.146,0.198,0.396,0.296,0.749,0.296
				c0.338,0,0.58-0.103,0.726-0.309c0.146-0.207,0.22-0.562,0.22-1.065V255.992z"/>
			<path fill="#A0C219" d="M549.546,253.758v1.074h-0.242c-0.606,0-1.037,0.113-1.291,0.339c-0.254,0.228-0.38,0.618-0.38,1.173
				v6.444h-1.418v-8.833h1.326l0.092,0.542c0.2-0.241,0.444-0.427,0.732-0.56c0.288-0.131,0.601-0.197,0.938-0.197
				c0.023,0,0.062,0.003,0.115,0.009S549.515,253.758,549.546,253.758z"/>
			<path fill="#A0C219" d="M555.195,256.018v6.771h-1.326l-0.092-0.542c-0.192,0.247-0.437,0.435-0.732,0.563
				s-0.636,0.192-1.02,0.192c-0.601,0-1.024-0.149-1.274-0.451c-0.25-0.301-0.375-0.825-0.375-1.577v-1.762
				c0-0.693,0.251-1.186,0.755-1.479c0.503-0.291,1.385-0.454,2.646-0.489v-1.254c0-0.533-0.067-0.892-0.202-1.074
				s-0.375-0.274-0.72-0.274c-0.331,0-0.567,0.084-0.709,0.252c-0.143,0.17-0.214,0.461-0.214,0.873v0.489h-1.418v-0.241
				c0-0.882,0.173-1.481,0.52-1.8c0.346-0.317,0.96-0.477,1.844-0.477c0.86,0,1.462,0.161,1.804,0.481
				C555.024,254.542,555.195,255.141,555.195,256.018z M553.765,258.105c-0.737,0.022-1.238,0.119-1.504,0.291
				c-0.265,0.172-0.397,0.481-0.397,0.929v1.418c0,0.526,0.068,0.885,0.207,1.073c0.138,0.189,0.384,0.285,0.737,0.285
				c0.347,0,0.595-0.103,0.744-0.306c0.15-0.203,0.226-0.554,0.226-1.052L553.765,258.105z M553.235,250.879h1.625l-1.511,1.917
				h-1.13L553.235,250.879z"/>
			<path fill="#A0C219" d="M559.956,249.925v0.911h-0.208c-0.331,0-0.559,0.047-0.686,0.143c-0.128,0.094-0.19,0.265-0.19,0.511
				v2.466h1.084v0.876h-1.084v7.957h-1.418v-7.957h-0.772v-0.876h0.772v-1.916c0-0.905,0.131-1.487,0.392-1.744
				c0.262-0.258,0.753-0.387,1.477-0.387c0.161,0,0.288,0.001,0.38,0.004S559.879,249.919,559.956,249.925z"/>
			<path fill="#A0C219" d="M561.097,250.114h1.579v1.34h-1.579V250.114z M561.166,253.955h1.418v8.833h-1.418V253.955z"/>
			<path fill="#A0C219" d="M569.143,256.258v0.567h-1.486v-0.833c0-0.579-0.053-0.948-0.156-1.108
				c-0.104-0.159-0.294-0.241-0.571-0.241c-0.276,0-0.469,0.09-0.575,0.271c-0.108,0.181-0.161,0.54-0.161,1.079v4.752
				c0,0.55,0.056,0.914,0.167,1.091c0.11,0.178,0.309,0.266,0.594,0.266c0.269,0,0.453-0.082,0.553-0.244
				c0.1-0.164,0.15-0.534,0.15-1.113v-0.945h1.486v0.688c0,0.975-0.162,1.638-0.489,1.99c-0.327,0.352-0.901,0.527-1.724,0.527
				c-0.814,0-1.385-0.181-1.712-0.542c-0.327-0.36-0.489-1.024-0.489-1.993v-4.21c0-0.979,0.16-1.644,0.483-1.993
				c0.323-0.351,0.896-0.524,1.718-0.524c0.814,0,1.388,0.179,1.719,0.536C568.977,254.636,569.143,255.296,569.143,256.258z"/>
			<path fill="#A0C219" d="M575.782,256.258v4.229c0,0.974-0.177,1.637-0.53,1.988c-0.354,0.353-0.98,0.528-1.879,0.528
				c-0.891,0-1.516-0.179-1.873-0.537s-0.536-1.024-0.536-1.997v-4.211c0-0.979,0.175-1.644,0.525-1.994
				c0.35-0.35,0.978-0.523,1.885-0.523c0.891,0,1.516,0.179,1.873,0.537C575.604,254.636,575.782,255.296,575.782,256.258z
				 M574.295,255.992c0-0.521-0.069-0.876-0.208-1.065c-0.138-0.188-0.377-0.284-0.715-0.284c-0.346,0-0.59,0.101-0.732,0.301
				c-0.142,0.201-0.213,0.551-0.213,1.049v4.752c0,0.527,0.069,0.885,0.208,1.074c0.139,0.188,0.384,0.283,0.738,0.283
				c0.338,0,0.576-0.097,0.715-0.291c0.138-0.195,0.208-0.551,0.208-1.065L574.295,255.992L574.295,255.992z"/>
			<path fill="#A0C219" d="M583.562,250.527h2.063v8.146h1.245v0.859h-1.245v3.257h-1.372v-3.257h-3.066v-1.091L583.562,250.527z
				 M584.301,251.369l-1.913,7.304h1.867l0.185-7.304H584.301z"/>
		</g>
	</g>
	<g>
		<path fill="#F2961C" d="M6.158,41.896h2.651c2.242,0,3.707,0.263,4.395,0.789s1.032,1.73,1.032,3.614v10.756
			c0,1.875-0.35,3.077-1.05,3.607c-0.7,0.531-2.159,0.796-4.377,0.796H6.158V41.896z M8.418,43.342v16.672h0.729
			c1.091,0,1.812-0.135,2.162-0.404s0.525-0.864,0.525-1.784V45.57c0-0.929-0.178-1.532-0.534-1.811
			c-0.356-0.278-1.074-0.418-2.153-0.418L8.418,43.342L8.418,43.342z"/>
		<path fill="#F2961C" d="M18.221,41.896h2.402v19.563h-2.402V41.896z"/>
		<path fill="#F2961C" d="M31.477,45v1.87H29.11v-1.817c0-0.769-0.107-1.297-0.32-1.585c-0.213-0.287-0.593-0.431-1.139-0.431
			c-0.522,0-0.89,0.161-1.103,0.484c-0.214,0.323-0.32,0.895-0.32,1.717v0.955c0,0.398,0.074,0.807,0.222,1.227
			c0.148,0.42,0.365,0.816,0.649,1.187l2.954,3.886c0.498,0.654,0.86,1.271,1.085,1.85c0.225,0.579,0.338,1.179,0.338,1.797v1.327
			c0,1.698-0.288,2.843-0.863,3.435c-0.575,0.592-1.598,0.889-3.069,0.889c-1.435,0-2.435-0.239-2.998-0.716
			c-0.563-0.478-0.845-1.38-0.845-2.706v-2.175h2.384v2.108c0,0.796,0.107,1.335,0.32,1.618c0.213,0.283,0.605,0.425,1.174,0.425
			c0.581,0,0.981-0.162,1.201-0.484c0.219-0.323,0.329-1.032,0.329-2.129V56.38c0-0.504-0.062-0.962-0.187-1.373
			c-0.125-0.411-0.305-0.784-0.543-1.121l-3.131-4.165c-0.439-0.557-0.774-1.088-1.005-1.592s-0.347-0.941-0.347-1.313v-1.141
			c0-1.521,0.282-2.58,0.845-3.176c0.563-0.597,1.533-0.896,2.909-0.896c1.447,0,2.447,0.234,2.998,0.703
			C31.199,42.775,31.477,43.674,31.477,45z"/>
		<path fill="#F2961C" d="M32.918,41.896h7.704v1.552h-2.704v18.011h-2.295V43.448h-2.704L32.918,41.896L32.918,41.896z"/>
		<path fill="#F2961C" d="M42.989,41.896h3.452c1.779,0,2.983,0.186,3.612,0.557c0.628,0.372,0.943,1.039,0.943,2.003v4.43
			c0,0.814-0.208,1.389-0.623,1.725c-0.415,0.336-1.151,0.539-2.206,0.61c1.127,0.053,1.909,0.248,2.348,0.583
			c0.439,0.336,0.658,0.92,0.658,1.751v7.905h-2.402v-7.308c0-0.919-0.175-1.517-0.525-1.791s-1.071-0.411-2.162-0.411h-0.836v9.51
			h-2.26L42.989,41.896L42.989,41.896z M45.248,43.342v7.149h0.801c1.032,0,1.72-0.135,2.064-0.405
			c0.344-0.27,0.516-0.869,0.516-1.797V45.57c0-0.938-0.172-1.543-0.516-1.817c-0.344-0.273-1.032-0.411-2.064-0.411H45.248z"/>
		<path fill="#F2961C" d="M55.123,41.896h2.402v19.563h-2.402V41.896z"/>
		<path fill="#F2961C" d="M61.528,41.896h3.452c1.779,0,2.983,0.186,3.612,0.557c0.628,0.372,0.943,1.039,0.943,2.003v4.43
			c0,0.814-0.208,1.389-0.623,1.725c-0.415,0.336-1.151,0.539-2.206,0.61c1.127,0.053,1.909,0.248,2.348,0.583
			c0.439,0.336,0.658,0.92,0.658,1.751V58.9c0,0.964-0.314,1.632-0.943,2.003c-0.629,0.371-1.833,0.557-3.612,0.557h-3.63
			L61.528,41.896L61.528,41.896z M63.788,43.342v7.149h0.801c1.032,0,1.72-0.135,2.064-0.405c0.344-0.27,0.516-0.869,0.516-1.797
			V45.57c0-0.938-0.172-1.543-0.516-1.817c-0.344-0.273-1.032-0.411-2.064-0.411H63.788z M63.788,51.95v8.064h0.836
			c1.091,0,1.812-0.135,2.162-0.404s0.525-0.864,0.525-1.784v-3.674c0-0.919-0.175-1.517-0.525-1.791s-1.071-0.411-2.162-0.411
			H63.788z"/>
		<path fill="#F2961C" d="M73.556,41.896h2.366v15.836c0,1.017,0.13,1.702,0.391,2.056s0.723,0.531,1.388,0.531
			c0.652,0,1.106-0.177,1.361-0.531s0.382-1.039,0.382-2.056V41.896h2.366v15.571c0,1.68-0.302,2.821-0.907,3.422
			s-1.684,0.902-3.238,0.902c-1.53,0-2.598-0.305-3.203-0.915s-0.907-1.746-0.907-3.409L73.556,41.896L73.556,41.896z"/>
		<path fill="#F2961C" d="M93.306,45v1.87h-2.384v-1.817c0-0.76-0.11-1.286-0.329-1.578c-0.22-0.292-0.608-0.438-1.166-0.438
			c-0.51,0-0.866,0.166-1.068,0.497c-0.202,0.332-0.302,1.028-0.302,2.089v12.109c0,1.088,0.107,1.795,0.32,2.122
			c0.214,0.327,0.605,0.491,1.174,0.491c0.486,0,0.836-0.155,1.05-0.465c0.214-0.309,0.32-0.835,0.32-1.578v-2.108h2.384v2.175
			c0,1.335-0.279,2.239-0.836,2.712c-0.558,0.473-1.554,0.709-2.989,0.709c-1.412,0-2.396-0.305-2.954-0.915
			s-0.836-1.746-0.836-3.409V45.889c0-1.653,0.279-2.781,0.836-3.382c0.557-0.601,1.542-0.902,2.954-0.902
			c1.447,0,2.447,0.234,2.998,0.703C93.029,42.777,93.306,43.674,93.306,45z"/>
		<path fill="#F2961C" d="M96.259,41.896h2.402v19.563h-2.402V41.896z"/>
		<path fill="#F2961C" d="M110.813,45.889v11.579c0,1.68-0.302,2.821-0.907,3.422c-0.605,0.601-1.684,0.902-3.238,0.902
			c-1.53,0-2.598-0.305-3.203-0.915s-0.907-1.746-0.907-3.409V45.889c0-1.645,0.305-2.77,0.916-3.375
			c0.611-0.606,1.687-0.909,3.229-0.909s2.613,0.301,3.212,0.902C110.514,43.108,110.813,44.235,110.813,45.889z M108.447,45.623
			c0-0.99-0.131-1.669-0.391-2.036c-0.261-0.367-0.724-0.55-1.388-0.55c-0.653,0-1.106,0.179-1.361,0.537
			c-0.255,0.358-0.382,1.041-0.382,2.049v12.109c0,1.017,0.13,1.702,0.391,2.056c0.261,0.354,0.723,0.531,1.388,0.531
			c0.652,0,1.106-0.177,1.361-0.531s0.382-1.039,0.382-2.056V45.623z M107.255,37.161h2.509l-2.331,2.958h-1.744L107.255,37.161z"/>
		<path fill="#F2961C" d="M114.799,41.896h3.096l3.754,18.396h0.036l-0.338-18.396h2.046v19.563h-3.131l-3.719-18.144h-0.071
			l0.32,18.144h-1.993V41.896z"/>
		<path fill="#F2961C" d="M141.328,45.889v1.008h-2.366v-1.273c0-0.99-0.139-1.669-0.418-2.036c-0.279-0.367-0.762-0.55-1.45-0.55
			c-0.664,0-1.133,0.19-1.406,0.57s-0.409,1.052-0.409,2.016v12.083c0,1.034,0.149,1.733,0.447,2.096
			c0.298,0.362,0.828,0.544,1.591,0.544c0.226,0,0.477-0.016,0.751-0.047c0.274-0.031,0.572-0.077,0.894-0.139l0.018-6.871h-2.028
			v-1.445h4.377v9.284c-0.724,0.221-1.429,0.387-2.117,0.497c-0.688,0.111-1.382,0.166-2.082,0.166c-1.566,0-2.66-0.308-3.283-0.922
			c-0.623-0.614-0.934-1.748-0.934-3.402V45.889c0-1.645,0.308-2.77,0.925-3.375c0.617-0.605,1.714-0.909,3.292-0.909
			c1.566,0,2.657,0.299,3.274,0.896C141.021,43.098,141.328,44.227,141.328,45.889z"/>
		<path fill="#F2961C" d="M145.26,41.896h6.263v1.552h-4.003v7.043h3.825v1.538h-3.825v7.878h4.11v1.552h-6.37V41.896z"/>
		<path fill="#F2961C" d="M163.034,45.889v11.579c0,1.68-0.302,2.821-0.907,3.422s-1.684,0.902-3.238,0.902
			c-1.53,0-2.598-0.305-3.203-0.915s-0.907-1.746-0.907-3.409V45.889c0-1.645,0.305-2.77,0.916-3.375
			c0.611-0.606,1.687-0.909,3.229-0.909s2.613,0.301,3.212,0.902C162.735,43.108,163.034,44.235,163.034,45.889z M160.668,45.623
			c0-0.99-0.131-1.669-0.391-2.036c-0.261-0.367-0.724-0.55-1.388-0.55c-0.653,0-1.106,0.179-1.361,0.537
			c-0.255,0.358-0.382,1.041-0.382,2.049v12.109c0,1.017,0.13,1.702,0.391,2.056c0.261,0.354,0.723,0.531,1.388,0.531
			c0.652,0,1.106-0.177,1.361-0.531s0.382-1.039,0.382-2.056V45.623z"/>
		<path fill="#F2961C" d="M175.329,45.889v1.008h-2.366v-1.273c0-0.99-0.139-1.669-0.418-2.036c-0.279-0.367-0.762-0.55-1.45-0.55
			c-0.664,0-1.133,0.19-1.406,0.57s-0.409,1.052-0.409,2.016v12.083c0,1.034,0.149,1.733,0.447,2.096
			c0.298,0.362,0.828,0.544,1.591,0.544c0.226,0,0.477-0.016,0.751-0.047c0.274-0.031,0.572-0.077,0.894-0.139l0.018-6.871h-2.028
			v-1.445h4.377v9.284c-0.724,0.221-1.429,0.387-2.117,0.497c-0.688,0.111-1.382,0.166-2.082,0.166c-1.566,0-2.66-0.308-3.283-0.922
			c-0.623-0.614-0.934-1.748-0.934-3.402V45.889c0-1.645,0.308-2.77,0.925-3.375c0.617-0.605,1.714-0.909,3.292-0.909
			c1.566,0,2.657,0.299,3.274,0.896C175.022,43.098,175.329,44.227,175.329,45.889z"/>
		<path fill="#F2961C" d="M179.261,41.896h3.452c1.779,0,2.983,0.186,3.612,0.557c0.628,0.372,0.943,1.039,0.943,2.003v4.43
			c0,0.814-0.208,1.389-0.623,1.725c-0.415,0.336-1.151,0.539-2.206,0.61c1.127,0.053,1.909,0.248,2.348,0.583
			c0.439,0.336,0.658,0.92,0.658,1.751v7.905h-2.402v-7.308c0-0.919-0.175-1.517-0.525-1.791s-1.071-0.411-2.162-0.411h-0.836v9.51
			h-2.26L179.261,41.896L179.261,41.896z M181.521,43.342v7.149h0.801c1.032,0,1.72-0.135,2.064-0.405
			c0.344-0.27,0.516-0.869,0.516-1.797V45.57c0-0.938-0.172-1.543-0.516-1.817c-0.344-0.273-1.032-0.411-2.064-0.411H181.521z"/>
		<path fill="#F2961C" d="M193.62,41.896h3.309l3.79,19.563h-2.438l-0.907-5.438h-4.306l-0.979,5.438h-2.384L193.62,41.896z
			 M195.186,43.342l-1.904,11.247h3.79l-1.779-11.247H195.186z M195.773,37.161h2.509l-2.331,2.958h-1.744L195.773,37.161z"/>
		<path fill="#F2961C" d="M203.121,41.896h6.085v1.552h-3.825v7.096h3.683v1.539h-3.683v9.377h-2.26V41.896L203.121,41.896z"/>
		<path fill="#F2961C" d="M211.982,41.896h2.402v19.563h-2.402V41.896z"/>
		<path fill="#F2961C" d="M225.896,45v1.87h-2.384v-1.817c0-0.76-0.11-1.286-0.329-1.578c-0.22-0.292-0.608-0.438-1.166-0.438
			c-0.51,0-0.866,0.166-1.068,0.497c-0.202,0.332-0.302,1.028-0.302,2.089v12.109c0,1.088,0.107,1.795,0.32,2.122
			c0.214,0.327,0.605,0.491,1.174,0.491c0.486,0,0.836-0.155,1.05-0.465c0.214-0.309,0.32-0.835,0.32-1.578v-2.108h2.384v2.175
			c0,1.335-0.279,2.239-0.836,2.712c-0.558,0.473-1.554,0.709-2.989,0.709c-1.412,0-2.396-0.305-2.954-0.915
			c-0.558-0.61-0.836-1.746-0.836-3.409V45.889c0-1.653,0.279-2.781,0.836-3.382c0.557-0.601,1.542-0.902,2.954-0.902
			c1.447,0,2.447,0.234,2.998,0.703C225.619,42.777,225.896,43.674,225.896,45z"/>
		<path fill="#F2961C" d="M231.073,41.896h3.309l3.79,19.563h-2.438l-0.907-5.438h-4.306l-0.979,5.438h-2.384L231.073,41.896z
			 M232.639,43.342l-1.904,11.247h3.79l-1.779-11.247H232.639z"/>
	</g>
</g>
</svg>
