<?xml version="1.0" encoding="utf-8"?>
<!-- Generator: Adobe Illustrator 16.0.0, SVG Export Plug-In . SVG Version: 6.00 Build 0)  -->
<!DOCTYPE svg PUBLIC "-//W3C//DTD SVG 1.1//EN" "http://www.w3.org/Graphics/SVG/1.1/DTD/svg11.dtd">
<svg version="1.1" id="Capa_1" xmlns="http://www.w3.org/2000/svg" xmlns:xlink="http://www.w3.org/1999/xlink" x="0px" y="0px"
	 width="734.339px" height="413.177px" viewBox="0 0 734.339 413.177" enable-background="new 0 0 734.339 413.177"
	 xml:space="preserve">
<g>
	<g>
		<g>
			<path fill="#F39200" d="M188.866,97.233l0.175,0.487l0.381,1.864l0.536,0.77l0.413,0.722l0.304,0.304l1.215,0.438
				c0.021,0.007,0.04,0.019,0.057,0.035l0.382,0.347c0.011,0.01,0.021,0.021,0.028,0.033l0.764,1.146
				c0.015,0.021,0.023,0.044,0.027,0.069l0.312,1.945l0.037,1.03l-0.07,1.024c-0.003,0.038-0.017,0.074-0.042,0.101l-1.25,1.459
				l-1.101,1.584l-1.203,2.41l-0.704,1.093l-0.422,0.748l0.067,2.14l-0.07,0.65l-0.318,1.14c-0.004,0.016-0.01,0.03-0.019,0.044
				l-0.82,1.334l-0.856,3.114v2.234l0,0l0.201,0.988l1.45,3.178l0.597,1.883l10.192,0.273l2.269,0.104l0.192-0.055l0.188-0.118
				l0.023-0.163l0.109-0.373c0.006-0.018,0.014-0.034,0.024-0.05l1.633-2.328c0.011-0.015,0.023-0.028,0.039-0.04l0.66-0.487
				c0.015-0.011,0.031-0.02,0.048-0.024l0.834-0.278l1.41-0.283l0.838-0.339l0.391-0.243l0.519-0.81l0.445-1.917
				c0.005-0.02,0.013-0.04,0.024-0.056l0.278-0.417c0.008-0.012,0.017-0.022,0.026-0.032l0.418-0.382l0.605-0.374l0.707-1.584
				c0.01-0.019,0.021-0.037,0.036-0.051l0.382-0.382l1.241-0.855l0.633-0.533l0.856-1.097l1.435-1.54l0.78-1.192
				c0.02-0.03,0.049-0.053,0.081-0.066l0.348-0.139l0.605-0.18l1.77-0.18l0.549,0.034l0.709,0.167l0.249-0.083l0.331-0.198
				c0.018-0.01,0.036-0.018,0.056-0.021l0.348-0.069l0.507-0.038l1.214,0.065l0.64-0.863l0.618-0.963l0.4-0.44l0.408-0.302
				c0.019-0.013,0.039-0.022,0.061-0.027l0.335-0.084l0.124-0.271v-0.275c0-0.037,0.012-0.072,0.033-0.102l0.278-0.382l0.326-0.361
				l0.018-0.088l-0.129-0.48c-0.004-0.016-0.006-0.034-0.006-0.051l0.034-1.287l-0.116-0.319l-0.241-0.271l-0.294-0.196
				l-0.548-0.543c-0.01-0.009-0.018-0.021-0.024-0.032l-0.644-1.049l-0.843-0.641l-0.445-0.381h-0.248l-0.486,0.032l-1.264,0.444
				l-1.013,0.315l-2.441,1.206c-0.067,0.034-0.148,0.019-0.201-0.035l-0.856-0.891l-0.749-0.511l-0.948-0.438
				c-0.019-0.008-0.035-0.02-0.05-0.035l-0.243-0.243c-0.011-0.012-0.021-0.024-0.029-0.039l-0.174-0.312l-0.151-0.446
				c-0.004-0.011-0.007-0.023-0.008-0.035l-0.139-1.181l-0.001-1.003l-0.444-1.505l-0.075-0.511l-0.002-0.372
				c0-0.012,0.001-0.025,0.004-0.038l0.129-0.58l-0.438-1.415c-0.007-0.021-0.009-0.043-0.008-0.065l0.069-0.938
				c0.004-0.036,0.017-0.07,0.04-0.098l0.174-0.209c0.009-0.009,0.018-0.019,0.027-0.026l0.451-0.348l0.432-0.467
				c0.008-0.009,0.017-0.017,0.027-0.023l0.347-0.243c0.011-0.007,0.021-0.013,0.031-0.018l0.243-0.104
				c0.017-0.007,0.034-0.012,0.052-0.013l0.347-0.035l1.123-0.3l0.153-0.108l0.097-1.067c0.002-0.027,0.011-0.053,0.026-0.077
				l0.121-0.195l-0.025-0.052l-0.406-0.606c-0.006-0.01-0.012-0.021-0.017-0.032l-0.069-0.174c-0.018-0.044-0.017-0.094,0.003-0.138
				l0.148-0.321l-0.892-0.646l-4.034-1.857c-0.03-0.015-0.056-0.036-0.073-0.063l-0.66-1.007c-0.013-0.02-0.021-0.043-0.025-0.066
				l-0.161-0.932l-0.28-0.178l-0.442-0.032c-0.015-0.001-0.028-0.003-0.042-0.008l-0.104-0.035c-0.044-0.014-0.08-0.046-0.101-0.087
				l-0.067-0.136l-0.791-0.189c-0.033-0.008-0.063-0.025-0.087-0.051l-0.417-0.451l-0.301-0.432l-1.209-0.57l-0.662-0.163
				c-0.02-0.004-0.037-0.013-0.055-0.024l-0.192-0.128l-0.607-0.237c-0.068-0.026-0.112-0.092-0.111-0.166l0.032-1.327l-0.326-0.101
				l-0.469-0.06l-0.469,0.062l-0.423,0.228l-0.715,0.479c-0.054,0.035-0.123,0.039-0.179,0.008
				c-0.057-0.029-0.092-0.088-0.092-0.153v-0.136l-0.126-0.127l-0.091,0.061c-0.017,0.011-0.034,0.019-0.054,0.024l-0.14,0.034
				c-0.042,0.01-0.088,0.005-0.126-0.017l-0.312-0.173c-0.051-0.027-0.083-0.077-0.09-0.133c-0.006-0.056,0.017-0.111,0.059-0.149
				l0.278-0.243c0.018-0.015,0.037-0.026,0.06-0.034l0.022-0.008l-0.801,0.169l-0.791,0.039c-0.052,0.003-0.098-0.016-0.131-0.051
				l-0.202-0.202l-0.341-0.045l-0.104,0.209l-0.066,0.561c-0.005,0.044-0.028,0.086-0.062,0.115l-0.557,0.451l-0.683,0.398
				c-0.01,0.005-0.021,0.01-0.031,0.014l-0.73,0.243l-0.942,0.28l-0.181,0.093l-0.203,0.147l-0.216,0.246l-0.079,0.158l-0.031,0.384
				v0.402c0,0.021-0.004,0.041-0.011,0.062l-0.104,0.277c-0.018,0.048-0.056,0.085-0.104,0.103l-0.382,0.139l-0.652,0.274
				c-0.021,0.01-0.044,0.014-0.067,0.014h-0.031l-0.112,0.225l-0.239,1.95c-0.002,0.015-0.006,0.03-0.012,0.043l-0.139,0.347
				c-0.007,0.019-0.018,0.035-0.031,0.05l-0.242,0.278l-0.778,0.708l-0.416,0.482l-0.215,0.614l0.196,0.783
				c0.014,0.055,0,0.113-0.037,0.156l-0.208,0.243c-0.009,0.009-0.018,0.018-0.027,0.026l-0.815,0.611l-0.229,0.293l-0.086,0.18
				c-0.01,0.021-0.025,0.041-0.044,0.056l-0.208,0.174c-0.027,0.022-0.062,0.037-0.098,0.039l-0.378,0.032l-0.523,0.294
				c-0.013,0.006-0.026,0.012-0.04,0.016l-1.388,0.373l-0.062,0.052l0.094,0.149c0.017,0.028,0.026,0.06,0.026,0.092v0.139
				c0,0.049-0.021,0.096-0.057,0.128l-0.231,0.209l0.618,0.616C188.844,97.187,188.858,97.209,188.866,97.233z"/>
		</g>
	</g>
	<g>
		<g>
			<g>
				<g>
					<path fill="#FFFFFF" d="M514.538,188.257h-7.4v-4.946c0-1.438-0.079-2.336-0.237-2.692s-0.507-0.535-1.046-0.535
						c-0.609,0-0.996,0.217-1.16,0.65s-0.246,1.371-0.246,2.812v13.219c0,1.383,0.082,2.285,0.246,2.707s0.533,0.633,1.107,0.633
						c0.551,0,0.911-0.211,1.081-0.634s0.255-1.416,0.255-2.978v-3.577h7.4v1.109c0,2.946-0.208,5.035-0.624,6.267
						c-0.416,1.232-1.336,2.312-2.76,3.239c-1.424,0.927-3.179,1.391-5.265,1.391c-2.168,0-3.955-0.393-5.361-1.178
						s-2.338-1.872-2.795-3.261s-0.686-3.478-0.686-6.267v-8.314c0-2.051,0.07-3.589,0.211-4.614s0.56-2.013,1.257-2.962
						s1.664-1.696,2.9-2.241s2.657-0.817,4.263-0.817c2.18,0,3.979,0.421,5.396,1.264c1.418,0.842,2.35,1.893,2.795,3.151
						s0.668,3.215,0.668,5.872V188.257z"/>
					<path fill="#FFFFFF" d="M534.103,192.529c0,2.859-0.067,4.884-0.202,6.073s-0.557,2.276-1.266,3.261s-1.667,1.74-2.874,2.268
						s-2.613,0.791-4.219,0.791c-1.523,0-2.892-0.249-4.104-0.747s-2.188-1.245-2.927-2.241s-1.178-2.08-1.318-3.252
						s-0.211-3.223-0.211-6.152v-4.869c0-2.859,0.067-4.884,0.202-6.073s0.557-2.276,1.266-3.261s1.667-1.74,2.874-2.268
						s2.613-0.791,4.219-0.791c1.523,0,2.892,0.249,4.104,0.747s2.188,1.245,2.927,2.241s1.178,2.08,1.318,3.252
						s0.211,3.223,0.211,6.152V192.529z M531.519,170.205l-5.783,4.764h-3.568l3.094-4.764H531.519z M526.702,183.177
						c0-1.324-0.073-2.171-0.22-2.54s-0.448-0.554-0.905-0.554c-0.387,0-0.683,0.149-0.888,0.448s-0.308,1.181-0.308,2.646v13.289
						c0,1.652,0.067,2.672,0.202,3.059s0.448,0.58,0.94,0.58c0.504,0,0.826-0.223,0.967-0.668s0.211-1.506,0.211-3.182V183.177z"/>
					<path fill="#FFFFFF" d="M536.862,175.865h5.238c3.492,0,5.856,0.135,7.093,0.404s2.244,0.958,3.023,2.065
						s1.169,2.874,1.169,5.3c0,2.215-0.275,3.703-0.826,4.465s-1.635,1.219-3.252,1.371c1.465,0.363,2.449,0.85,2.953,1.459
						s0.817,1.169,0.94,1.679s0.185,1.913,0.185,4.21v7.506h-6.873v-9.457c0-1.523-0.12-2.467-0.36-2.83s-0.87-0.545-1.89-0.545
						v12.832h-7.4V175.865z M544.263,180.734v6.328c0.832,0,1.415-0.114,1.749-0.343s0.501-0.97,0.501-2.224v-1.564
						c0-0.902-0.161-1.494-0.483-1.775S545.118,180.734,544.263,180.734z"/>
					<path fill="#FFFFFF" d="M556.251,175.865h5.537c3.574,0,5.991,0.164,7.251,0.492s2.218,0.867,2.874,1.617
						s1.066,1.585,1.23,2.505s0.246,2.728,0.246,5.423v9.967c0,2.555-0.12,4.263-0.36,5.124s-0.659,1.535-1.257,2.021
						s-1.336,0.826-2.215,1.02s-2.203,0.29-3.973,0.29h-9.334V175.865z M563.651,180.734v18.721c1.066,0,1.723-0.214,1.969-0.642
						s0.369-1.591,0.369-3.489v-11.057c0-1.289-0.041-2.115-0.123-2.479s-0.27-0.63-0.562-0.8S564.46,180.734,563.651,180.734z"/>
					<path fill="#FFFFFF" d="M593.06,192.529c0,2.859-0.067,4.884-0.202,6.073s-0.557,2.276-1.266,3.261s-1.667,1.74-2.874,2.268
						s-2.613,0.791-4.219,0.791c-1.523,0-2.892-0.249-4.104-0.747s-2.188-1.245-2.927-2.241s-1.178-2.08-1.318-3.252
						s-0.211-3.223-0.211-6.152v-4.869c0-2.859,0.067-4.884,0.202-6.073s0.557-2.276,1.266-3.261s1.667-1.74,2.874-2.268
						s2.613-0.791,4.219-0.791c1.523,0,2.892,0.249,4.104,0.747s2.188,1.245,2.927,2.241s1.178,2.08,1.318,3.252
						s0.211,3.223,0.211,6.152V192.529z M585.659,183.177c0-1.324-0.073-2.171-0.22-2.54s-0.448-0.554-0.905-0.554
						c-0.387,0-0.683,0.149-0.888,0.448s-0.308,1.181-0.308,2.646v13.289c0,1.652,0.067,2.672,0.202,3.059s0.448,0.58,0.94,0.58
						c0.504,0,0.826-0.223,0.967-0.668s0.211-1.506,0.211-3.182V183.177z"/>
					<path fill="#FFFFFF" d="M595.819,175.865h7.383c2.332,0,4.099,0.182,5.3,0.544c1.201,0.363,2.171,1.098,2.909,2.205
						c0.738,1.107,1.107,2.89,1.107,5.349c0,1.663-0.261,2.822-0.782,3.478c-0.521,0.656-1.55,1.16-3.085,1.511
						c1.711,0.387,2.871,1.029,3.48,1.926s0.914,2.272,0.914,4.125v2.638c0,1.923-0.22,3.348-0.659,4.274s-1.14,1.56-2.101,1.899
						c-0.961,0.34-2.93,0.51-5.906,0.51h-8.561V175.865z M603.22,180.734v6.328c0.316-0.012,0.562-0.018,0.738-0.018
						c0.727,0,1.189-0.179,1.389-0.536s0.299-1.38,0.299-3.067c0-0.891-0.082-1.515-0.246-1.872s-0.378-0.583-0.642-0.677
						S603.981,180.746,603.22,180.734z M603.22,191.492v7.963c1.043-0.035,1.708-0.199,1.995-0.492s0.431-1.014,0.431-2.162v-2.654
						c0-1.219-0.129-1.957-0.387-2.215S604.321,191.527,603.22,191.492z"/>
					<path fill="#FFFFFF" d="M628.493,175.865l4.231,28.459h-7.563l-0.396-5.115h-2.647l-0.444,5.115h-7.651l3.774-28.459H628.493z
						 M624.57,194.164c-0.374-3.224-0.75-7.208-1.127-11.953c-0.754,5.45-1.228,9.434-1.421,11.953H624.57z"/>
				</g>
			</g>
		</g>
	</g>
	<g>
		<g>
			<path fill="#F2961C" d="M498.204,225.136v4.156h-1.68v-12.987h3.686c1.043,0.141,1.926,0.571,2.646,1.291
				c0.86,0.866,1.29,1.905,1.29,3.117c0,1.223-0.43,2.266-1.29,3.129c-0.86,0.863-1.899,1.295-3.117,1.295H498.204z
				 M498.204,217.993v5.455h1.534c0.747,0,1.387-0.267,1.92-0.799c0.532-0.533,0.8-1.178,0.8-1.936c0-0.752-0.268-1.393-0.8-1.924
				c-0.533-0.53-1.173-0.795-1.92-0.795H498.204z"/>
			<path fill="#F2961C" d="M512.434,226.427l1.681,0.601c-0.412,0.568-0.709,0.944-0.894,1.128
				c-0.903,0.904-1.994,1.355-3.271,1.355c-1.272,0-2.359-0.452-3.264-1.355s-1.355-1.994-1.355-3.271
				c0-1.277,0.451-2.368,1.355-3.271c0.904-0.903,1.991-1.355,3.264-1.355c1.276,0,2.367,0.452,3.271,1.355
				c0.185,0.184,0.481,0.555,0.894,1.112l-1.681,0.617c-0.217-0.265-0.362-0.436-0.438-0.511c-0.562-0.563-1.244-0.844-2.045-0.844
				c-0.796,0-1.477,0.283-2.042,0.848s-0.849,1.249-0.849,2.05c0,0.795,0.283,1.476,0.849,2.041s1.246,0.848,2.042,0.848
				c0.801,0,1.484-0.281,2.053-0.844C512.073,226.854,512.217,226.687,512.434,226.427z"/>
			<path fill="#F2961C" d="M517.295,216.305c2.11,0.011,3.755,0.608,4.935,1.793c1.294,1.304,1.94,2.871,1.94,4.7
				c0,1.834-0.646,3.401-1.94,4.7c-1.18,1.185-2.824,1.783-4.935,1.794h-1.233v-12.987H517.295z M517.741,218.018v9.57
				c1.337,0,2.433-0.43,3.287-1.291c0.963-0.963,1.445-2.129,1.445-3.499c0-1.363-0.482-2.529-1.445-3.498
				C520.174,218.445,519.078,218.018,517.741,218.018z"/>
			<path fill="#F2961C" d="M535.599,222.604l-1.015-0.024v-1.664c0.735-0.011,1.22-0.061,1.453-0.15
				c0.232-0.089,0.487-0.28,0.763-0.572c0.276-0.292,0.414-0.627,0.414-1.006c0-0.374-0.13-0.688-0.389-0.946
				c-0.26-0.257-0.577-0.385-0.95-0.385c-0.368,0-0.683,0.127-0.942,0.381c-0.146,0.151-0.313,0.481-0.502,0.99l-1.567-0.617
				c0.233-0.73,0.517-1.255,0.853-1.575c0.601-0.595,1.32-0.893,2.159-0.893c0.854,0,1.579,0.3,2.175,0.901s0.893,1.315,0.893,2.143
				c0,0.844-0.5,1.659-1.501,2.443c0.481,0.032,0.987,0.306,1.518,0.819c0.774,0.833,1.161,1.808,1.161,2.922
				c0,1.125-0.396,2.087-1.189,2.886c-0.793,0.798-1.754,1.197-2.885,1.197c-1.121,0-2.078-0.4-2.874-1.201
				c-0.634-0.638-1.036-1.523-1.21-2.654l1.681-0.608c0.098,0.974,0.344,1.658,0.739,2.053c0.465,0.46,1.02,0.69,1.664,0.69
				c0.654,0,1.213-0.23,1.676-0.69c0.463-0.459,0.693-1.017,0.693-1.672c0-0.66-0.23-1.242-0.693-1.745
				S536.552,222.782,535.599,222.604z"/>
			<path fill="#F2961C" d="M544.698,221.281c0.48-0.52,1.279-0.779,2.395-0.779c1.119,0,2.051,0.371,2.791,1.112
				c0.898,0.904,1.348,1.994,1.348,3.271c0,1.271-0.449,2.358-1.348,3.259s-1.985,1.352-3.262,1.352
				c-1.272,0-2.359-0.449-3.264-1.348c-0.865-0.871-1.301-2.081-1.307-3.628v-0.024c0-1.532,0.414-2.879,1.242-4.042
				c0.832-1.169,1.959-2.551,3.376-4.147h2.208C546.913,218.34,545.521,219.998,544.698,221.281z M543.724,224.885
				c0,0.801,0.283,1.482,0.848,2.045c0.566,0.562,1.249,0.844,2.051,0.844c0.795,0,1.475-0.281,2.041-0.844
				c0.564-0.563,0.848-1.245,0.848-2.045s-0.283-1.483-0.848-2.046c-0.566-0.562-1.246-0.844-2.041-0.844
				c-0.802,0-1.484,0.281-2.051,0.844C544.007,223.402,543.724,224.084,543.724,224.885z"/>
			<path fill="#F2961C" d="M554.653,227.385c0.23,0.227,0.345,0.503,0.345,0.828c0,0.335-0.114,0.617-0.345,0.844
				c-0.23,0.227-0.508,0.341-0.832,0.341c-0.319,0-0.596-0.114-0.828-0.341c-0.232-0.228-0.35-0.509-0.35-0.844
				c0-0.325,0.117-0.601,0.35-0.828c0.232-0.228,0.509-0.341,0.828-0.341C554.146,227.043,554.423,227.157,554.653,227.385z"/>
			<path fill="#F2961C" d="M560.671,222.604l-1.014-0.024v-1.664c0.735-0.011,1.22-0.061,1.453-0.15
				c0.232-0.089,0.486-0.28,0.763-0.572c0.276-0.292,0.413-0.627,0.413-1.006c0-0.374-0.129-0.688-0.389-0.946
				c-0.26-0.257-0.576-0.385-0.949-0.385c-0.369,0-0.683,0.127-0.942,0.381c-0.146,0.151-0.313,0.481-0.503,0.99l-1.566-0.617
				c0.232-0.73,0.517-1.255,0.852-1.575c0.602-0.595,1.32-0.893,2.16-0.893c0.854,0,1.579,0.3,2.175,0.901
				c0.595,0.601,0.893,1.315,0.893,2.143c0,0.844-0.501,1.659-1.501,2.443c0.48,0.032,0.986,0.306,1.518,0.819
				c0.773,0.833,1.16,1.808,1.16,2.922c0,1.125-0.396,2.087-1.189,2.886c-0.792,0.798-1.754,1.197-2.885,1.197
				c-1.12,0-2.078-0.4-2.873-1.201c-0.634-0.638-1.037-1.523-1.21-2.654l1.681-0.608c0.098,0.974,0.344,1.658,0.738,2.053
				c0.465,0.46,1.02,0.69,1.664,0.69c0.654,0,1.213-0.23,1.676-0.69c0.463-0.459,0.694-1.017,0.694-1.672
				c0-0.66-0.231-1.242-0.694-1.745S561.624,222.782,560.671,222.604z"/>
			<path fill="#F2961C" d="M573.688,221.211c-1.345,1.507-2.386,2.783-3.121,3.827c-0.735,1.044-1.131,2.462-1.185,4.253h-1.713
				c0.064-2.213,0.514-3.903,1.348-5.069c0.832-1.166,1.826-2.395,2.979-3.685s1.771-2.142,1.858-2.553h-6.169v-1.68h8.076
				C575.724,218.069,575.032,219.705,573.688,221.211z"/>
			<path fill="#F2961C" d="M583.942,216.305h1.47v7.8h1.145v1.68h-1.145v3.506h-1.681v-3.506h-5.316L583.942,216.305z
				 M583.731,220.096l-2.395,4.01h2.395V220.096z"/>
			<path fill="#27515D" d="M506.573,246.147l1.258,1.128c-1.537,1.402-3.163,2.103-4.879,2.103c-1.834,0-3.398-0.647-4.691-1.94
				c-1.293-1.293-1.939-2.857-1.939-4.692c0-1.829,0.646-3.393,1.939-4.691s2.857-1.948,4.691-1.948
				c1.716,0,3.342,0.701,4.879,2.103l-1.258,1.145c-1.158-1.028-2.365-1.542-3.621-1.542c-1.357,0-2.52,0.482-3.486,1.445
				c-0.965,0.963-1.448,2.127-1.448,3.49c0,1.369,0.483,2.536,1.448,3.499c0.967,0.963,2.129,1.445,3.486,1.445
				C504.208,247.69,505.415,247.176,506.573,246.147z"/>
			<path fill="#27515D" d="M520.997,238.031c1.299,1.299,1.947,2.865,1.947,4.7s-0.648,3.401-1.947,4.7s-2.865,1.948-4.7,1.948
				c-1.834,0-3.401-0.649-4.699-1.948c-1.299-1.299-1.948-2.865-1.948-4.7s0.649-3.401,1.948-4.7
				c1.298-1.299,2.865-1.948,4.699-1.948C518.132,236.083,519.698,236.732,520.997,238.031z M516.297,237.779
				c-1.368,0-2.536,0.483-3.503,1.449c-0.965,0.966-1.448,2.133-1.448,3.502s0.484,2.538,1.453,3.506
				c0.968,0.969,2.135,1.453,3.498,1.453c1.369,0,2.536-0.484,3.503-1.453c0.966-0.968,1.449-2.137,1.449-3.506
				s-0.483-2.537-1.449-3.502C518.833,238.262,517.666,237.779,516.297,237.779z M516.792,233.185h2.046l-2.208,2.265h-1.6
				L516.792,233.185z"/>
			<path fill="#27515D" d="M528.399,245.084h-1.534v4.156h-1.681v-12.987h3.686c1.044,0.141,1.926,0.571,2.646,1.291
				c0.859,0.866,1.29,1.905,1.29,3.117c0,1.223-0.431,2.268-1.29,3.133c-0.596,0.595-1.051,0.931-1.364,1.006l2.882,4.44h-2.037
				L528.399,245.084z M526.865,237.941v5.455h1.534c0.746,0,1.387-0.267,1.92-0.799c0.532-0.533,0.799-1.178,0.799-1.936
				c0-0.752-0.267-1.393-0.799-1.924c-0.533-0.53-1.174-0.795-1.92-0.795H526.865z"/>
			<path fill="#27515D" d="M535.923,236.253c2.111,0.011,3.756,0.608,4.936,1.793c1.293,1.304,1.939,2.871,1.939,4.7
				c0,1.834-0.646,3.401-1.939,4.7c-1.18,1.185-2.824,1.783-4.936,1.794h-1.232v-12.987H535.923z M536.37,237.966v9.57
				c1.336,0,2.432-0.43,3.287-1.291c0.963-0.963,1.445-2.129,1.445-3.499c0-1.363-0.482-2.529-1.445-3.498
				C538.802,238.394,537.706,237.966,536.37,237.966z"/>
			<path fill="#27515D" d="M555.979,238.031c1.299,1.299,1.949,2.865,1.949,4.7s-0.65,3.401-1.949,4.7
				c-1.298,1.299-2.865,1.948-4.699,1.948s-3.4-0.649-4.699-1.948s-1.948-2.865-1.948-4.7s0.649-3.401,1.948-4.7
				s2.865-1.948,4.699-1.948S554.682,236.732,555.979,238.031z M551.28,237.779c-1.369,0-2.536,0.483-3.502,1.449
				c-0.967,0.966-1.449,2.133-1.449,3.502s0.484,2.538,1.453,3.506c0.969,0.969,2.135,1.453,3.498,1.453
				c1.369,0,2.537-0.484,3.502-1.453c0.967-0.968,1.449-2.137,1.449-3.506s-0.482-2.537-1.449-3.502
				C553.817,238.262,552.649,237.779,551.28,237.779z"/>
			<path fill="#27515D" d="M562.798,236.253c0.753,0,1.396,0.267,1.933,0.799c0.536,0.533,0.804,1.176,0.804,1.928
				c0,0.774-0.39,1.253-1.169,1.437c0.562,0.082,1.202,0.482,1.919,1.202c0.718,0.72,1.076,1.715,1.076,2.987
				s-0.446,2.37-1.34,3.295c-0.838,0.872-1.68,1.312-2.523,1.323v0.016h-3.328v-12.987H562.798z M561.849,237.934v2.053h1.096
				c0.249-0.021,0.463-0.116,0.642-0.284c0.194-0.179,0.292-0.419,0.292-0.723c0-0.303-0.102-0.553-0.305-0.751
				c-0.203-0.197-0.461-0.296-0.775-0.296H561.849z M561.849,241.716v5.836h1.648v-0.024c0.346-0.021,0.775-0.3,1.29-0.836
				c0.568-0.584,0.853-1.28,0.853-2.086c0-0.795-0.283-1.476-0.848-2.042c-0.566-0.565-1.246-0.848-2.042-0.848H561.849z"/>
			<path fill="#27515D" d="M574.048,236.253l4.725,12.987h-1.786l-1.672-4.594h-3.441l-1.664,4.594h-1.794l4.725-12.987H574.048z
				 M574.706,242.966l-1.112-3.044l-1.104,3.044H574.706z"/>
		</g>
	</g>
	<g>
		<g>
			<polyline fill="none" stroke="#FFFFFF" stroke-width="2" points="208.4,99.87 405.439,185.55 486.031,185.55 			"/>
			<g>
				<circle fill="#FFFFFF" cx="208.504" cy="99.915" r="2.256"/>
			</g>
		</g>
	</g>
</g>
</svg>
