<?xml version="1.0" encoding="utf-8"?>
<!-- Generator: Adobe Illustrator 16.0.0, SVG Export Plug-In . SVG Version: 6.00 Build 0)  -->
<!DOCTYPE svg PUBLIC "-//W3C//DTD SVG 1.1//EN" "http://www.w3.org/Graphics/SVG/1.1/DTD/svg11.dtd">
<svg version="1.1" id="Capa_1" xmlns="http://www.w3.org/2000/svg" xmlns:xlink="http://www.w3.org/1999/xlink" x="0px" y="0px"
	 width="734.338px" height="413.177px" viewBox="0 0 734.338 413.177" enable-background="new 0 0 734.338 413.177"
	 xml:space="preserve">
<g>
	<g>
		<g>
			<path fill="#F39200" d="M206.133,85.197l0.184,0.123l0.665,0.166l1.282,0.602c0.028,0.013,0.053,0.033,0.069,0.059l0.312,0.451
				l0.366,0.394l0.817,0.196c0.05,0.012,0.092,0.046,0.114,0.091l0.088,0.15l0.465,0.033c0.028,0.002,0.057,0.011,0.08,0.026
				l0.383,0.243c0.041,0.027,0.069,0.069,0.077,0.118l0.168,0.972l0.613,0.936l4.019,1.854l1.037,0.747
				c0.067,0.048,0.09,0.138,0.056,0.213l-0.178,0.384l0.035,0.087l0.407,0.611l0.081,0.157c0.025,0.055,0.023,0.119-0.009,0.17
				l-0.152,0.243l-0.1,1.104c-0.005,0.05-0.031,0.097-0.072,0.125l-0.243,0.174c-0.018,0.012-0.036,0.021-0.057,0.027l-1.182,0.312
				l-0.347,0.037l-0.203,0.087l-0.317,0.222l-0.439,0.473l-0.457,0.355l-0.126,0.151l-0.062,0.849l0.441,1.427
				c0.009,0.029,0.01,0.06,0.004,0.09l-0.136,0.606v0.328l0.068,0.462l0.446,1.504c0.005,0.016,0.007,0.032,0.007,0.049v1.008
				l0.136,1.143l0.134,0.4l0.148,0.261l0.205,0.205l0.943,0.438l0.79,0.536c0.01,0.006,0.019,0.014,0.027,0.023l0.78,0.812
				l2.353-1.159l1.032-0.323l1.279-0.449c0.016-0.005,0.03-0.009,0.046-0.01l0.521-0.035h0.324c0.041,0,0.082,0.015,0.112,0.042
				l0.487,0.417l0.86,0.653c0.017,0.013,0.032,0.029,0.043,0.047l0.649,1.06l0.506,0.507l0.287,0.186
				c0.012,0.009,0.023,0.018,0.032,0.029l0.278,0.312c0.015,0.017,0.026,0.036,0.034,0.056l0.139,0.382
				c0.007,0.021,0.011,0.042,0.01,0.064l-0.028,1.095l0.341-0.081l0.182-0.121l0.471-0.405c0.019-0.016,0.041-0.028,0.064-0.036
				l0.243-0.069c0.021-0.006,0.042-0.009,0.063-0.006l0.766,0.069l0.577-0.034l0.509-0.159l0.448-0.321l0.316-0.347l0.222-0.506
				l0.065-0.565c0.002-0.012,0.005-0.023,0.008-0.034l0.07-0.209c0.023-0.07,0.09-0.119,0.164-0.119h0.104
				c0.019,0,0.037,0.002,0.055,0.009l0.189,0.063l0.256,0.023l0.106-0.17l0.307-0.885l0.058-0.234l-0.032-0.388l-0.203-0.77
				l-0.074-0.722l-0.001-0.538c0-0.019,0.003-0.038,0.009-0.055l0.001-0.003l-0.202-0.202c-0.019-0.019-0.032-0.042-0.041-0.065
				l-0.243-0.696l-0.425-2.775c-0.004-0.032-0.001-0.064,0.012-0.094l0.208-0.487c0.011-0.024,0.027-0.045,0.045-0.062l0.568-0.501
				l0.299-0.531c0.008-0.014,0.018-0.026,0.028-0.037l0.263-0.262v-0.056l-0.105-0.183l-0.296-0.296
				c-0.009-0.009-0.016-0.018-0.022-0.028l-1.182-1.807l-1.095-1.193l-2.183-1.668l-0.639-0.269l-1.032-0.637
				c-0.028-0.018-0.051-0.043-0.064-0.073l-0.417-0.869l-0.434-0.832l-0.374-0.312l-0.19-0.095
				c-0.013-0.007-0.024-0.014-0.035-0.023l-0.243-0.208c-0.018-0.016-0.032-0.033-0.042-0.054l-0.104-0.208
				c-0.008-0.014-0.013-0.029-0.016-0.043l-0.068-0.347l-0.004-0.326l-0.234-0.971l-0.305-0.644
				c-0.006-0.011-0.01-0.023-0.013-0.035l-0.104-0.452c-0.002-0.012-0.004-0.025-0.004-0.039v-0.277c0-0.013,0.002-0.027,0.004-0.04
				l0.088-0.379l-0.167-0.25c-0.03-0.045-0.037-0.101-0.02-0.151l0.068-0.209l0.492-1.126l0.368-0.566l-0.02-0.03l-0.162-0.082
				l-0.511-0.362c-0.017-0.012-0.032-0.027-0.043-0.044L223,82.562h-0.039l-0.241,0.121c-0.012,0.006-0.023,0.01-0.036,0.013
				l-0.556,0.139c-0.026,0.006-0.055,0.006-0.081,0.001l-0.452-0.104l-0.402-0.146c-0.03-0.01-0.056-0.03-0.076-0.054l-0.139-0.174
				c-0.013-0.016-0.023-0.034-0.028-0.054l-0.07-0.208c-0.014-0.041-0.012-0.086,0.006-0.125l0.407-0.932l-0.482-0.145h-0.635
				c-0.037,0-0.073-0.012-0.104-0.035l-0.278-0.208l-1.017-0.875l-0.498-0.634l-0.902-0.735l-0.302-0.122l-0.224-0.027l-0.246,0.062
				c-0.021,0.005-0.041,0.005-0.062,0.004l-0.312-0.035c-0.029-0.004-0.057-0.014-0.08-0.031l-0.675-0.472l-0.374-0.125
				l-0.282-0.027l-0.241,0.106l-0.151,0.151l-0.388,0.354c-0.047,0.042-0.116,0.056-0.175,0.035l-0.393-0.14l-0.375,0.318
				c-0.058,0.047-0.139,0.054-0.202,0.015c-0.064-0.039-0.097-0.114-0.079-0.188l0.243-1.042c0.004-0.018,0.012-0.036,0.021-0.052
				l0.152-0.244l0.065-0.721l0.108-0.476l0.247-0.745l0.058-0.326l-0.098-0.525c-0.006-0.023-0.005-0.048,0.001-0.071l0.173-0.764
				c0.003-0.012,0.007-0.022,0.011-0.033l0.156-0.34l-0.017-0.155l-0.289-0.021l-0.267,0.148c-0.037,0.021-0.08,0.028-0.122,0.019
				l-0.312-0.07l-1.894-0.63l-0.549-0.289c-0.022-0.012-0.044-0.03-0.059-0.052l-0.175-0.243c-0.031-0.046-0.04-0.103-0.022-0.156
				l0.069-0.208c0.006-0.016,0.014-0.031,0.024-0.046l0.331-0.466l0.053-0.156v-0.174l-0.19-0.381
				c-0.01-0.018-0.015-0.038-0.017-0.058l-0.036-0.312l-0.026-0.629l-0.181,0.017l-0.398,0.132c-0.023,0.008-0.05,0.01-0.074,0.008
				l-0.312-0.035c-0.017-0.002-0.033-0.007-0.049-0.014l-0.244-0.104c-0.048-0.02-0.083-0.062-0.098-0.111l-0.069-0.244
				c-0.011-0.037-0.01-0.076,0.005-0.112l0.139-0.348l0.793-1.409l-1.591,0.858l0.113,0.271c0.009,0.024,0.014,0.05,0.012,0.075
				l-0.033,0.764l-0.313,1.367v0.467c0,0.012-0.001,0.024-0.004,0.036l-0.104,0.486l-0.247,0.813l-0.322,0.684l-0.122,0.437v0.531
				c0,0.016-0.002,0.032-0.007,0.049l-0.382,1.319l-0.21,0.633c-0.01,0.025-0.023,0.048-0.043,0.067l-0.981,0.982l0.087-0.044
				c0.024-0.013,0.051-0.018,0.077-0.018h0.486c0.031,0,0.06,0.008,0.086,0.022l0.244,0.139l0.285,0.22h0.323
				c0.064,0,0.122,0.035,0.152,0.092l0.231,0.429l0.155,0.156l0.291,0.361c0.009,0.012,0.018,0.024,0.023,0.038l0.277,0.626
				c0.011,0.022,0.016,0.049,0.016,0.074l-0.035,1.39c0,0.015-0.003,0.03-0.008,0.044l-0.451,1.528l-0.567,1.107
				c-0.01,0.019-0.024,0.036-0.04,0.05l-0.903,0.799l-0.331,0.223c-0.04,0.026-0.09,0.036-0.136,0.024l-0.382-0.09l-0.027,1.123
				l0.512,0.199C206.111,85.184,206.123,85.19,206.133,85.197z"/>
		</g>
	</g>
	<g>
		<g>
			<g>
				<g>
					<path fill="#FFFFFF" d="M513.007,184.478h-6.873v-2.109c0-0.984-0.088-1.611-0.264-1.881s-0.469-0.404-0.879-0.404
						c-0.445,0-0.782,0.182-1.011,0.545s-0.343,0.915-0.343,1.653c0,0.95,0.128,1.666,0.385,2.146
						c0.246,0.481,0.942,1.061,2.091,1.74c3.294,1.955,5.369,3.56,6.225,4.813s1.283,3.275,1.283,6.064
						c0,2.027-0.237,3.521-0.712,4.482s-1.392,1.767-2.751,2.417s-2.941,0.976-4.746,0.976c-1.98,0-3.671-0.375-5.071-1.125
						s-2.317-1.705-2.751-2.865s-0.65-2.807-0.65-4.939v-1.863h6.873v3.463c0,1.066,0.097,1.752,0.29,2.057s0.536,0.457,1.028,0.457
						s0.858-0.193,1.099-0.58s0.36-0.961,0.36-1.723c0-1.676-0.229-2.771-0.686-3.287c-0.469-0.516-1.623-1.377-3.463-2.584
						c-1.84-1.219-3.059-2.104-3.656-2.654s-1.093-1.312-1.485-2.285s-0.589-2.215-0.589-3.727c0-2.18,0.278-3.773,0.835-4.781
						s1.456-1.796,2.698-2.364s2.742-0.853,4.5-0.853c1.922,0,3.56,0.311,4.913,0.932s2.25,1.403,2.689,2.347
						s0.659,2.546,0.659,4.808V184.478z"/>
					<path fill="#FFFFFF" d="M532.765,175.865v19.02c0,2.156-0.07,3.671-0.211,4.544s-0.557,1.77-1.248,2.689
						s-1.603,1.617-2.733,2.092s-2.464,0.712-3.999,0.712c-1.699,0-3.199-0.281-4.5-0.844s-2.273-1.295-2.918-2.197
						s-1.025-1.854-1.143-2.856s-0.176-3.108-0.176-6.319v-16.84h7.4v21.34c0,1.242,0.067,2.036,0.202,2.382
						s0.407,0.519,0.817,0.519c0.469,0,0.771-0.19,0.905-0.571s0.202-1.28,0.202-2.698v-20.971H532.765z"/>
					<path fill="#FFFFFF" d="M552.909,188.257h-7.4v-4.946c0-1.438-0.079-2.336-0.237-2.692s-0.507-0.535-1.046-0.535
						c-0.609,0-0.996,0.217-1.16,0.65s-0.246,1.371-0.246,2.812v13.219c0,1.383,0.082,2.285,0.246,2.707s0.533,0.633,1.107,0.633
						c0.551,0,0.911-0.211,1.081-0.634s0.255-1.416,0.255-2.978v-3.577h7.4v1.109c0,2.946-0.208,5.035-0.624,6.267
						c-0.416,1.232-1.336,2.312-2.76,3.239c-1.424,0.927-3.179,1.391-5.265,1.391c-2.168,0-3.955-0.393-5.361-1.178
						s-2.338-1.872-2.795-3.261s-0.686-3.478-0.686-6.267v-8.314c0-2.051,0.07-3.589,0.211-4.614s0.56-2.013,1.257-2.962
						s1.664-1.696,2.9-2.241s2.657-0.817,4.263-0.817c2.18,0,3.979,0.421,5.396,1.264c1.418,0.842,2.35,1.893,2.795,3.151
						s0.668,3.215,0.668,5.872V188.257z"/>
					<path fill="#FFFFFF" d="M555.563,175.865h5.238c3.492,0,5.856,0.135,7.093,0.404s2.244,0.958,3.023,2.065
						s1.169,2.874,1.169,5.3c0,2.215-0.275,3.703-0.826,4.465s-1.635,1.219-3.252,1.371c1.465,0.363,2.449,0.85,2.953,1.459
						s0.817,1.169,0.94,1.679s0.185,1.913,0.185,4.21v7.506h-6.873v-9.457c0-1.523-0.12-2.467-0.36-2.83s-0.87-0.545-1.89-0.545
						v12.832h-7.4V175.865z M562.964,180.734v6.328c0.832,0,1.415-0.114,1.749-0.343s0.501-0.97,0.501-2.224v-1.564
						c0-0.902-0.161-1.494-0.483-1.775S563.819,180.734,562.964,180.734z"/>
					<path fill="#FFFFFF" d="M574.952,175.865h12.34v5.695h-4.939v5.396h4.623v5.414h-4.623v6.258h5.432v5.695h-12.832V175.865z"/>
				</g>
			</g>
		</g>
	</g>
	<g>
		<g>
			<path fill="#F2961C" d="M498.273,225.136v4.156h-1.68v-12.987h3.685c1.044,0.141,1.926,0.571,2.646,1.291
				c0.86,0.866,1.291,1.905,1.291,3.117c0,1.223-0.43,2.266-1.291,3.129c-0.86,0.863-1.899,1.295-3.117,1.295H498.273z
				 M498.273,217.993v5.455h1.534c0.747,0,1.387-0.267,1.92-0.799c0.533-0.533,0.799-1.178,0.799-1.936
				c0-0.752-0.267-1.393-0.799-1.924c-0.533-0.53-1.173-0.795-1.92-0.795H498.273z"/>
			<path fill="#F2961C" d="M512.502,226.427l1.68,0.601c-0.412,0.568-0.709,0.944-0.893,1.128c-0.904,0.904-1.994,1.355-3.271,1.355
				c-1.272,0-2.359-0.452-3.263-1.355s-1.355-1.994-1.355-3.271c0-1.277,0.452-2.368,1.355-3.271
				c0.904-0.903,1.991-1.355,3.263-1.355c1.277,0,2.367,0.452,3.271,1.355c0.184,0.184,0.481,0.555,0.893,1.112l-1.68,0.617
				c-0.217-0.265-0.363-0.436-0.438-0.511c-0.563-0.563-1.245-0.844-2.045-0.844c-0.795,0-1.476,0.283-2.042,0.848
				s-0.848,1.249-0.848,2.05c0,0.795,0.283,1.476,0.848,2.041s1.246,0.848,2.042,0.848c0.801,0,1.485-0.281,2.054-0.844
				C512.142,226.854,512.285,226.687,512.502,226.427z"/>
			<path fill="#F2961C" d="M517.363,216.305c2.11,0.011,3.755,0.608,4.935,1.793c1.293,1.304,1.94,2.871,1.94,4.7
				c0,1.834-0.646,3.401-1.94,4.7c-1.18,1.185-2.825,1.783-4.935,1.794h-1.233v-12.987H517.363z M517.81,218.018v9.57
				c1.336,0,2.432-0.43,3.287-1.291c0.963-0.963,1.445-2.129,1.445-3.499c0-1.363-0.482-2.529-1.445-3.498
				C520.242,218.445,519.146,218.018,517.81,218.018z"/>
			<path fill="#F2961C" d="M535.667,222.604l-1.015-0.024v-1.664c0.736-0.011,1.22-0.061,1.453-0.15
				c0.232-0.089,0.487-0.28,0.763-0.572c0.276-0.292,0.414-0.627,0.414-1.006c0-0.374-0.13-0.688-0.389-0.946
				c-0.26-0.257-0.577-0.385-0.95-0.385c-0.368,0-0.682,0.127-0.942,0.381c-0.146,0.151-0.314,0.481-0.503,0.99l-1.567-0.617
				c0.233-0.73,0.517-1.255,0.853-1.575c0.601-0.595,1.32-0.893,2.159-0.893c0.855,0,1.58,0.3,2.175,0.901
				c0.595,0.601,0.893,1.315,0.893,2.143c0,0.844-0.5,1.659-1.501,2.443c0.481,0.032,0.987,0.306,1.518,0.819
				c0.774,0.833,1.161,1.808,1.161,2.922c0,1.125-0.396,2.087-1.189,2.886c-0.792,0.798-1.754,1.197-2.885,1.197
				c-1.12,0-2.078-0.4-2.874-1.201c-0.633-0.638-1.036-1.523-1.209-2.654l1.68-0.608c0.098,0.974,0.344,1.658,0.739,2.053
				c0.465,0.46,1.02,0.69,1.664,0.69c0.654,0,1.213-0.23,1.676-0.69c0.463-0.459,0.694-1.017,0.694-1.672
				c0-0.66-0.231-1.242-0.694-1.745C537.327,223.123,536.62,222.782,535.667,222.604z"/>
			<path fill="#F2961C" d="M545.075,219.812c0.303-0.065,0.619-0.098,0.949-0.098c0.606,0,1.188,0.098,1.745,0.292
				c1.25,0.427,2.181,1.217,2.792,2.37c0.384,0.714,0.576,1.45,0.576,2.208c0,0.471-0.073,0.942-0.219,1.413
				c-0.384,1.255-1.152,2.194-2.305,2.816c-0.703,0.374-1.431,0.56-2.183,0.56c-0.477,0-0.958-0.076-1.445-0.227
				c-1.007-0.309-1.878-0.963-2.614-1.964l1.185-1.315c0.601,0.888,1.245,1.434,1.932,1.64c0.314,0.097,0.62,0.146,0.917,0.146
				c0.476,0,0.941-0.119,1.396-0.357c0.741-0.395,1.234-0.996,1.477-1.802c0.098-0.308,0.146-0.614,0.146-0.917
				c0-0.471-0.122-0.936-0.365-1.396c-0.401-0.747-1.007-1.261-1.818-1.542c-0.352-0.125-0.741-0.187-1.169-0.187
				c-0.579,0-1.32,0.144-2.224,0.43l-1.015-0.885l1.461-4.034v-0.657h4.756v1.68h-3.336L545.075,219.812z"/>
			<path fill="#F2961C" d="M554.908,227.385c0.23,0.227,0.345,0.503,0.345,0.828c0,0.335-0.115,0.617-0.345,0.844
				c-0.23,0.227-0.507,0.341-0.832,0.341c-0.319,0-0.595-0.114-0.828-0.341c-0.232-0.228-0.349-0.509-0.349-0.844
				c0-0.325,0.117-0.601,0.349-0.828c0.233-0.228,0.509-0.341,0.828-0.341C554.401,227.043,554.678,227.157,554.908,227.385z"/>
			<path fill="#F2961C" d="M562.997,216.305h1.469v7.8h1.145v1.68h-1.145v3.506h-1.68v-3.506h-5.316L562.997,216.305z
				 M562.786,220.096l-2.395,4.01h2.395V220.096z"/>
			<path fill="#F2961C" d="M570.367,221.281c0.481-0.52,1.28-0.779,2.395-0.779c1.12,0,2.051,0.371,2.792,1.112
				c0.898,0.904,1.348,1.994,1.348,3.271c0,1.271-0.449,2.358-1.348,3.259s-1.986,1.352-3.263,1.352
				c-1.272,0-2.359-0.449-3.263-1.348c-0.866-0.871-1.301-2.081-1.307-3.628v-0.024c0-1.532,0.414-2.879,1.242-4.042
				c0.833-1.169,1.959-2.551,3.376-4.147h2.208C572.583,218.34,571.189,219.998,570.367,221.281z M569.393,224.885
				c0,0.801,0.283,1.482,0.848,2.045c0.565,0.562,1.249,0.844,2.05,0.844c0.795,0,1.476-0.281,2.041-0.844
				c0.565-0.563,0.848-1.245,0.848-2.045s-0.283-1.483-0.848-2.046c-0.565-0.562-1.246-0.844-2.041-0.844
				c-0.801,0-1.484,0.281-2.05,0.844C569.675,223.402,569.393,224.084,569.393,224.885z"/>
			<path fill="#F2961C" d="M580.521,225.197c0.882-0.658,1.634-1.219,2.256-1.685s1.178-0.966,1.668-1.501s0.735-1.131,0.735-1.786
				s-0.231-1.212-0.694-1.672c-0.462-0.46-1.021-0.69-1.676-0.69c-0.644,0-1.199,0.23-1.664,0.69
				c-0.395,0.395-0.641,1.077-0.739,2.045l-1.68-0.608c0.173-1.125,0.576-2.008,1.209-2.646c0.795-0.801,1.753-1.201,2.874-1.201
				c1.131,0,2.093,0.398,2.885,1.193c0.793,0.795,1.189,1.759,1.189,2.89c0,1.115-0.384,2.086-1.153,2.914
				c-0.487,0.525-1.054,1.03-1.7,1.514c-0.647,0.484-1.365,1.024-2.155,1.619c-0.693,0.514-1.08,0.958-1.161,1.331h6.169v1.688
				h-8.142C579.046,227.22,579.639,225.854,580.521,225.197z"/>
			<path fill="#27515D" d="M499.896,242.576c-0.92-0.308-1.665-0.748-2.236-1.319c-0.571-0.571-0.856-1.278-0.856-2.123
				c0-0.828,0.296-1.54,0.889-2.135c0.592-0.595,1.311-0.893,2.155-0.893c0.833,0,1.548,0.295,2.143,0.885
				c0.335,0.325,0.617,0.842,0.844,1.55l-1.526,0.601c-0.184-0.498-0.352-0.823-0.503-0.974c-0.265-0.26-0.584-0.39-0.958-0.39
				c-0.378,0-0.701,0.131-0.966,0.394c-0.265,0.263-0.397,0.583-0.397,0.962s0.132,0.701,0.397,0.966
				c0.298,0.292,0.709,0.56,1.234,0.804c1.017,0.33,1.88,0.85,2.589,1.558c0.795,0.785,1.193,1.737,1.193,2.857
				s-0.396,2.077-1.189,2.869c-0.792,0.793-1.747,1.189-2.861,1.189c-1.12,0-2.075-0.398-2.865-1.193
				c-0.633-0.633-1.033-1.507-1.201-2.622l1.631-0.593c0.103,0.958,0.354,1.637,0.755,2.038c0.465,0.465,1.025,0.698,1.68,0.698
				s1.215-0.232,1.681-0.698c0.465-0.465,0.698-1.028,0.698-1.688c0-0.655-0.232-1.215-0.698-1.68
				C501.084,243.196,500.54,242.841,499.896,242.576z"/>
			<path fill="#27515D" d="M512.672,236.253h1.688v9.147c-0.146,1.044-0.577,1.927-1.291,2.646
				c-0.866,0.866-1.908,1.299-3.125,1.299c-1.218,0-2.258-0.432-3.121-1.294c-0.863-0.863-1.294-1.904-1.294-3.121v-8.677h1.688
				v8.677c0,0.747,0.267,1.387,0.8,1.919c0.533,0.533,1.175,0.8,1.928,0.8c0.757,0,1.401-0.265,1.932-0.795s0.795-1.171,0.795-1.924
				V236.253z"/>
			<path fill="#27515D" d="M526.844,246.147l1.258,1.128c-1.537,1.402-3.163,2.103-4.878,2.103c-1.834,0-3.398-0.647-4.691-1.94
				c-1.293-1.293-1.94-2.857-1.94-4.692c0-1.829,0.646-3.393,1.94-4.691c1.293-1.299,2.857-1.948,4.691-1.948
				c1.715,0,3.341,0.701,4.878,2.103l-1.258,1.145c-1.158-1.028-2.365-1.542-3.62-1.542c-1.358,0-2.52,0.482-3.486,1.445
				c-0.966,0.963-1.449,2.127-1.449,3.49c0,1.369,0.483,2.536,1.449,3.499c0.966,0.963,2.128,1.445,3.486,1.445
				C524.479,247.69,525.687,247.176,526.844,246.147z"/>
			<path fill="#27515D" d="M533.337,245.084h-1.534v4.156h-1.68v-12.987h3.685c1.044,0.141,1.926,0.571,2.646,1.291
				c0.86,0.866,1.291,1.905,1.291,3.117c0,1.223-0.43,2.268-1.291,3.133c-0.595,0.595-1.05,0.931-1.364,1.006l2.881,4.44h-2.037
				L533.337,245.084z M531.804,237.941v5.455h1.534c0.747,0,1.387-0.267,1.92-0.799c0.533-0.533,0.799-1.178,0.799-1.936
				c0-0.752-0.267-1.393-0.799-1.924c-0.533-0.53-1.173-0.795-1.92-0.795H531.804z"/>
			<path fill="#27515D" d="M546.625,236.253v1.68h-5.316v3.969h5.316v1.681h-5.316v3.969h5.316v1.688h-6.997v-12.987H546.625z"/>
		</g>
	</g>
	<g>
		<g>
			<polyline fill="none" stroke="#FFFFFF" stroke-width="2" points="220.822,87.956 405.508,185.55 486.1,185.55 			"/>
			<g>
				<circle fill="#FFFFFF" cx="220.921" cy="88.009" r="2.256"/>
			</g>
		</g>
	</g>
</g>
</svg>
