<?xml version="1.0" encoding="utf-8"?>
<!-- Generator: Adobe Illustrator 16.0.0, SVG Export Plug-In . SVG Version: 6.00 Build 0)  -->
<!DOCTYPE svg PUBLIC "-//W3C//DTD SVG 1.1//EN" "http://www.w3.org/Graphics/SVG/1.1/DTD/svg11.dtd">
<svg version="1.1" id="Capa_1" xmlns="http://www.w3.org/2000/svg" xmlns:xlink="http://www.w3.org/1999/xlink" x="0px" y="0px"
	 width="734.339px" height="413.177px" viewBox="0 0 734.339 413.177" enable-background="new 0 0 734.339 413.177"
	 xml:space="preserve">
<g>
	<g>
		<g>
			<path fill="#F39200" d="M236.217,154.602c-0.008,0.019-0.018,0.035-0.029,0.05l-0.174,0.209
				c-0.022,0.026-0.053,0.046-0.086,0.056l-0.242,0.069c-0.037,0.01-0.075,0.008-0.11-0.004l-0.147-0.056l-1.001,1.518l-0.605,0.68
				c-0.009,0.009-0.02,0.019-0.03,0.026l-0.707,0.492l0.118,0.618l0.199,0.696l0.234,0.436l0.354,1.084l0.89,1.369l0.468,0.497
				l0.302,0.268l0.495,0.293l0.538,0.21l0.265-0.079l0.565-0.433l0.334-0.187c0.02-0.013,0.042-0.019,0.064-0.022l0.312-0.034
				c0.04-0.004,0.078,0.005,0.111,0.025l0.278,0.174c0.021,0.013,0.039,0.03,0.053,0.052l0.208,0.312
				c0.007,0.01,0.013,0.02,0.017,0.031l0.278,0.694l0.235,0.435l0.182,0.471c0.009,0.021,0.012,0.041,0.012,0.062l0,0v0.417
				c0,0.028-0.006,0.055-0.02,0.081l-0.555,1.076l-0.126,0.454l-0.026,0.276l0.265,0.703l0.252,0.047l0.11-0.022l0.251-0.157
				l0.307-0.246l0.297-0.494c0.013-0.021,0.029-0.04,0.05-0.055l0.451-0.312c0.068-0.047,0.157-0.04,0.218,0.015l0.455,0.424
				l0.967,0.266c0.031,0.01,0.061,0.027,0.082,0.051l0.312,0.348c0.018,0.021,0.031,0.044,0.039,0.069l0.172,0.604h0.285
				c0.016,0,0.033,0.003,0.049,0.007l0.242,0.069c0.02,0.005,0.037,0.015,0.053,0.026l0.244,0.173
				c0.021,0.015,0.039,0.035,0.051,0.058l0.418,0.765l0.518,0.644l0.719,0.406l0.201-0.024l0.26-0.097l0.199-0.043l0.463-0.167
				c0.014-0.005,0.027-0.008,0.043-0.01l0.381-0.034c0.014-0.002,0.027-0.001,0.041,0l0.242,0.035
				c0.016,0.002,0.031,0.007,0.045,0.013l0.244,0.104c0.014,0.006,0.027,0.014,0.039,0.023l0.174,0.139
				c0.043,0.035,0.068,0.09,0.064,0.146l-0.016,0.252l0.758-0.479c0.014-0.01,0.031-0.018,0.049-0.021l1.529-0.382l0.748-0.107
				c0.008-0.002,0.016-0.003,0.023-0.003l0.012,0.001l0.521,0.034c0.016,0.002,0.031,0.005,0.047,0.01l0.486,0.174l0.447,0.258
				l0.475,0.398l0.102,0.119l0.057-0.033l0.111-0.395v-0.496l0.213-1.212l0.238-0.694v-0.955l-0.098-0.397
				c-0.008-0.028-0.008-0.059,0-0.087l0.105-0.383c0.004-0.016,0.01-0.031,0.02-0.045l0.432-0.698l0.1-0.796
				c0.002-0.024,0.012-0.049,0.023-0.07l0.279-0.451c0.01-0.017,0.023-0.031,0.039-0.045l0.961-0.762l0.055-0.221
				c0.004-0.018,0.012-0.033,0.021-0.048l0.764-1.251c0.029-0.046,0.076-0.076,0.127-0.082c0.055-0.007,0.105,0.012,0.145,0.05
				l0.326,0.327l1.051,0.508c0.016,0.007,0.029,0.017,0.043,0.028l0.938,0.868c0.012,0.012,0.021,0.023,0.029,0.037l0.277,0.451
				l0.119,0.308c0.008,0.021,0.012,0.04,0.012,0.062l0,0v0.418c0,0.012-0.002,0.023-0.004,0.035l-0.105,0.486l-0.352,0.995
				c-0.006,0.012-0.01,0.022-0.018,0.034l-0.348,0.555c-0.018,0.029-0.043,0.051-0.072,0.065l-0.443,0.207l-0.086,0.401
				c-0.01,0.045-0.037,0.084-0.076,0.109l-0.602,0.392l0.084,0.646l0.857,1.121l0.234,0.156l0.109-0.014l0.275-0.734
				c0.01-0.026,0.025-0.049,0.045-0.067l0.459-0.426l0.229-0.555l0.094-0.489c0.004-0.022,0.014-0.044,0.025-0.062l0.07-0.104
				c0.023-0.036,0.061-0.062,0.102-0.072l0.139-0.034c0.031-0.008,0.062-0.007,0.094,0.002l0.77,0.234l0.471-0.027l1.088-1.715
				l0.41-1.163c0.016-0.042,0.045-0.077,0.086-0.097l0.416-0.209c0.025-0.012,0.051-0.018,0.078-0.018h0.141
				c0.014,0,0.027,0.001,0.041,0.004l0.277,0.07c0.02,0.004,0.039,0.014,0.057,0.025l0.557,0.382l0.719,0.358l2.127,0.344
				l0.318-0.002l0.16-0.161l0.299-1.102c0.008-0.024,0.02-0.047,0.037-0.066l1.771-2.085l0.225-0.393l0.328-0.404
				c0.02-0.022,0.043-0.04,0.072-0.051l0.625-0.244l0.717-0.172l0.346-0.26l0.4-1.099c0.014-0.038,0.041-0.069,0.076-0.091
				l0.416-0.242l0.277-0.107l0.303-0.242l0.146-0.232l0.055-0.189l-0.033-0.42c-0.002-0.014,0-0.028,0.002-0.043l0.062-0.37
				l-0.262-0.686c-0.016-0.037-0.016-0.079-0.002-0.118l0.439-1.283l-0.1-0.97c-0.004-0.017-0.002-0.034,0.002-0.05l0.164-0.859
				l-0.09-0.27l-0.156-0.343l-0.174-0.202l-0.217-0.124c-0.014-0.007-0.027-0.019-0.039-0.03l-0.695-0.729
				c-0.014-0.016-0.025-0.034-0.035-0.054l-0.174-0.416c-0.02-0.049-0.016-0.104,0.008-0.15l0.209-0.382
				c0.021-0.041,0.061-0.071,0.105-0.084l0.486-0.14c0.016-0.004,0.031-0.006,0.047-0.006h0.209c0.045,0,0.086,0.017,0.119,0.045
				l0.451,0.417l0.787,0.616c0.014,0.01,0.023,0.021,0.033,0.035l0.381,0.521l0.26,0.511l0.459,1.146l0.287,0.072l0.535-0.148
				l0.801-0.835c0.016-0.015,0.033-0.027,0.053-0.036l0.451-0.209l0.191-0.141l0.158-0.211v-1.332l0,0
				c0-0.024,0.006-0.049,0.016-0.072l0.174-0.382l0.863-1.587l0.377-1.746l0.098-0.852l-0.234-0.765
				c-0.006-0.017-0.006-0.034-0.006-0.05v-0.383l0.035-0.332c0.002-0.013,0.004-0.026,0.008-0.039l0.154-0.426l-0.473-1.258
				c-0.002,0.005-0.006,0.01-0.01,0.014l-0.209,0.243c-0.01,0.011-0.018,0.019-0.027,0.026l-0.141,0.104
				c-0.025,0.02-0.057,0.031-0.09,0.034l-0.451,0.034c-0.092,0.005-0.17-0.056-0.184-0.145l-0.105-0.626
				c-0.004-0.017-0.004-0.035,0-0.053v-0.001l0.102-0.675l-0.035-0.36l-0.064-0.526l-0.154-0.342l-0.273-0.049l-0.262,0.029
				l-0.219,0.094l-0.693,0.149c-0.021,0.005-0.047,0.004-0.068,0.001l-0.475-0.096l-0.139,0.252
				c-0.01,0.014-0.018,0.027-0.029,0.039l-0.174,0.174c-0.068,0.066-0.178,0.066-0.246,0l-0.07-0.07
				c-0.02-0.021-0.035-0.045-0.043-0.072l-0.104-0.348l-0.068-0.158l-0.068-0.027l-0.268,0.031h-0.277l-0.1,0.025l-0.539,0.27
				c-0.062,0.029-0.135,0.021-0.188-0.022l-0.627-0.521l-0.258-0.159c-0.014-0.01-0.027-0.021-0.039-0.033l-0.225-0.258
				l-0.127-0.076l-0.564-0.133l-0.504-0.066c-0.018-0.002-0.033-0.006-0.049-0.014l-0.623-0.277l-0.133-0.084
				c-0.027-0.02-0.051-0.047-0.064-0.08l-0.139-0.347c-0.01-0.026-0.014-0.054-0.012-0.081s0.012-0.054,0.027-0.077l1.277-2.009
				l-0.113-0.344c-0.01-0.023-0.012-0.049-0.01-0.072l0,0l0,0l0.033-0.319l-0.045-0.199l-0.162-0.069
				c-0.012-0.005-0.025-0.012-0.035-0.02l-0.139-0.105c-0.016-0.011-0.027-0.023-0.039-0.039l-0.66-0.938
				c-0.045-0.063-0.041-0.15,0.01-0.212l0.83-0.995l0.029-1.144l-0.207-0.092c-0.053-0.023-0.09-0.073-0.1-0.13l-0.027-0.16
				l-0.211-0.24l-0.709-1.098c-0.01-0.014-0.016-0.027-0.021-0.043l-0.137-0.451c-0.01-0.029-0.012-0.06-0.004-0.09l0.061-0.276
				l-0.051-0.249l-1.615-1.28c-0.018-0.013-0.031-0.028-0.043-0.047l-0.207-0.347c-0.008-0.012-0.014-0.023-0.018-0.035
				l-0.104-0.312l-0.178-0.781c-0.006-0.021-0.006-0.042-0.004-0.062l0.061-0.33l-0.609-0.127l-0.381,0.118l-0.221,0.157
				c-0.043,0.031-0.1,0.041-0.15,0.025l-0.328-0.099l-0.535-0.034c-0.021,0-0.041-0.005-0.059-0.013l-0.104-0.044l-0.119-0.051
				l-0.219-0.032l-0.498,0.002l-0.734-0.104l-0.434,0.033c-0.027,0.003-0.053-0.002-0.078-0.012l-0.326-0.131l-0.229-0.028
				l-0.102,0.021l-0.154,0.128l-0.316,0.508l-0.236,1.048l-0.078,0.199c-0.027,0.071-0.1,0.118-0.178,0.109l-1.111-0.104
				l-0.74,0.035l0,0l0,0l-0.486-0.071l-0.264-0.075c-0.051-0.014-0.092-0.05-0.111-0.098l-0.082-0.19l-0.338-0.197l-1.25-0.169
				l-0.467-0.107l-0.375-0.146l-0.371-0.221c-0.012-0.007-0.023-0.016-0.033-0.026l-0.174-0.173c-0.01-0.01-0.018-0.021-0.025-0.032
				l-0.277-0.451c-0.018-0.028-0.027-0.06-0.027-0.092l0,0v-0.167l-0.041-0.082l-0.574-0.643l-0.523-0.457l-0.535-0.268
				c-0.012-0.006-0.023-0.014-0.035-0.021l-0.416-0.348l-0.32-0.381l-2.877-0.135c-0.047-0.002-0.09-0.022-0.119-0.058
				c-0.033-0.034-0.049-0.079-0.047-0.124l0.035-0.695c0.002-0.028,0.01-0.056,0.025-0.08l0.047-0.081l0.164-0.282l-0.129-0.729
				c-0.004-0.021-0.004-0.042,0-0.063l0.035-0.208c0.002-0.015,0.006-0.027,0.01-0.04l0.105-0.243
				c0.01-0.021,0.021-0.039,0.037-0.054l0.416-0.417l0.404-0.296l0.617-0.521l0.145-0.346v-0.354l-0.123-0.369l-0.105-0.156
				l-0.246-0.155c-0.016-0.009-0.029-0.022-0.041-0.035l-0.15-0.181l-0.09-0.045l-0.26-0.064c-0.035-0.01-0.066-0.029-0.09-0.057
				l-0.207-0.242c-0.025-0.028-0.039-0.062-0.041-0.099l-0.033-0.379l-0.953-1.669l-0.186-0.514c-0.006-0.014-0.008-0.025-0.01-0.04
				l-0.129-1.105c-0.02,0.018-0.043,0.03-0.068,0.038l-0.199,0.058l-0.176,0.176l-0.324,0.491c-0.021,0.033-0.055,0.06-0.092,0.072
				l-0.104,0.035l-0.336,0.145c-0.002,0.01-0.006,0.021-0.01,0.031l-0.244,0.625l-0.166,0.707l-0.029,0.425l0.031,0.404l0.412,1.302
				c0.01,0.03,0.01,0.063,0.002,0.094l0,0l0,0l-0.029,0.119l-0.029,0.119l0.291,1.328l0.199,0.17
				c0.018,0.016,0.031,0.034,0.043,0.055l0.104,0.209c0.008,0.014,0.012,0.029,0.016,0.044l0.277,1.424l0.037,0.508
				c0.002,0.013,0,0.026-0.002,0.038l-0.207,1.355l-0.072,0.293c-0.008,0.024-0.018,0.048-0.033,0.067l-0.121,0.149l-0.031,0.098
				l0.16,0.242l0.115,0.228c0.016,0.031,0.021,0.067,0.018,0.102v0.001l0,0l-0.008,0.049l-0.027,0.193l-0.109,0.338l-0.029,0.083
				v0.771c0,0.018-0.002,0.034-0.006,0.051l-0.105,0.348c-0.012,0.043-0.041,0.079-0.08,0.102l-0.256,0.141l-0.047,0.145
				c-0.006,0.02-0.018,0.037-0.029,0.055l-1.297,1.604l-0.09,0.325v0.88l0.027,0.179l0.188,0.28c0.012,0.017,0.02,0.035,0.023,0.054
				l0.07,0.278c0.006,0.023,0.008,0.047,0.002,0.07l-0.035,0.209c-0.002,0.014-0.006,0.026-0.012,0.039l-0.277,0.66l-0.271,0.953
				l-0.133,0.949c0,0.008-0.008,0.014-0.01,0.021l-0.16,1.071l0.24,3.003l0.094,0.429l0.223,0.319l0.271,0.338
				c0.008,0.01,0.014,0.02,0.02,0.031l0.174,0.347c0.01,0.017,0.014,0.034,0.018,0.054l0.139,0.973c0.006,0.034,0,0.07-0.018,0.102
				l-0.312,0.626c-0.012,0.023-0.029,0.045-0.051,0.062l-0.555,0.416l-1.939,0.955l-0.178,0.129l-0.119,0.301
				c-0.008,0.02-0.02,0.038-0.035,0.054l-0.955,1.024l-0.719,1.402l-0.328,0.442c-0.01,0.014-0.021,0.025-0.037,0.035l-4.306,3.196
				l-0.897,0.434c-0.016,0.008-0.032,0.014-0.05,0.016l-0.938,0.139l-0.278,0.077l-0.106,0.268l-0.025,0.144l-0.344,0.865
				l0.067,2.117l0.056,0.233l0.352,0.384c0.009,0.01,0.017,0.021,0.022,0.031l0.139,0.243c0.012,0.02,0.019,0.042,0.021,0.064
				l0.036,0.278c0.003,0.028,0,0.056-0.01,0.082L236.217,154.602z"/>
		</g>
	</g>
	<g>
		<g>
			<g>
				<g>
					<path fill="#FFFFFF" d="M512.94,184.478h-6.873v-2.109c0-0.984-0.088-1.611-0.264-1.881s-0.469-0.404-0.879-0.404
						c-0.445,0-0.782,0.182-1.011,0.546s-0.343,0.915-0.343,1.653c0,0.949,0.129,1.666,0.385,2.146
						c0.246,0.48,0.943,1.061,2.092,1.74c3.295,1.955,5.369,3.559,6.225,4.812s1.283,3.275,1.283,6.064
						c0,2.027-0.237,3.521-0.712,4.482s-1.392,1.768-2.751,2.418s-2.941,0.975-4.746,0.975c-1.98,0-3.671-0.375-5.071-1.125
						s-2.317-1.705-2.751-2.865s-0.65-2.807-0.65-4.939v-1.863h6.873v3.463c0,1.066,0.097,1.752,0.29,2.057s0.536,0.457,1.028,0.457
						s0.858-0.193,1.099-0.58s0.36-0.961,0.36-1.723c0-1.676-0.229-2.771-0.686-3.287c-0.469-0.516-1.623-1.377-3.463-2.584
						c-1.84-1.219-3.059-2.104-3.656-2.654s-1.093-1.312-1.485-2.285s-0.589-2.215-0.589-3.727c0-2.18,0.278-3.773,0.835-4.781
						s1.456-1.795,2.698-2.363s2.742-0.854,4.5-0.854c1.922,0,3.56,0.311,4.913,0.932s2.25,1.404,2.689,2.348
						s0.659,2.545,0.659,4.807V184.478z"/>
					<path fill="#FFFFFF" d="M528.669,175.864l4.231,28.459h-7.563l-0.396-5.115h-2.647l-0.444,5.115h-7.651l3.774-28.459H528.669z
						 M524.746,194.163c-0.374-3.223-0.75-7.207-1.127-11.953c-0.754,5.45-1.228,9.435-1.421,11.953H524.746z"/>
					<path fill="#FFFFFF" d="M550.681,175.864v28.459h-6.486l-3.85-12.938v12.938h-6.188v-28.459h6.188l4.148,12.814v-12.814
						H550.681z"/>
					<path fill="#FFFFFF" d="M568.558,175.864v5.695h-4.395v22.764h-7.4V181.56h-4.377v-5.695H568.558z"/>
					<path fill="#FFFFFF" d="M583.038,175.864l4.231,28.459h-7.563l-0.396-5.115h-2.647l-0.444,5.115h-7.651l3.774-28.459H583.038z
						 M579.115,194.163c-0.374-3.223-0.75-7.207-1.127-11.953c-0.754,5.45-1.228,9.435-1.421,11.953H579.115z"/>
					<path fill="#FFFFFF" d="M605.05,175.864v28.459h-6.486l-3.85-12.938v12.938h-6.188v-28.459h6.188l4.148,12.814v-12.814H605.05z
						"/>
					<path fill="#FFFFFF" d="M608.021,175.864h5.537c3.574,0,5.991,0.164,7.251,0.492s2.218,0.867,2.874,1.617
						s1.066,1.586,1.23,2.506s0.246,2.727,0.246,5.422v9.967c0,2.555-0.12,4.264-0.36,5.125s-0.659,1.535-1.257,2.021
						s-1.336,0.826-2.215,1.02s-2.203,0.289-3.973,0.289h-9.334V175.864z M615.421,180.733v18.721c1.066,0,1.723-0.213,1.969-0.641
						s0.369-1.592,0.369-3.49v-11.057c0-1.289-0.041-2.115-0.123-2.479s-0.27-0.629-0.562-0.799S616.229,180.733,615.421,180.733z"
						/>
					<path fill="#FFFFFF" d="M627.919,175.864h12.34v5.695h-4.939v5.396h4.623v5.414h-4.623v6.258h5.432v5.695h-12.832V175.864z"/>
					<path fill="#FFFFFF" d="M642.878,175.864h5.238c3.492,0,5.856,0.135,7.093,0.404s2.244,0.959,3.023,2.066
						s1.169,2.873,1.169,5.299c0,2.215-0.275,3.703-0.826,4.465s-1.635,1.219-3.252,1.371c1.465,0.363,2.449,0.85,2.953,1.459
						s0.817,1.17,0.94,1.68s0.185,1.912,0.185,4.209v7.506h-6.873v-9.457c0-1.523-0.12-2.467-0.36-2.83s-0.87-0.545-1.89-0.545
						v12.832h-7.4V175.864z M650.278,180.733v6.328c0.832,0,1.415-0.113,1.749-0.342s0.501-0.971,0.501-2.225v-1.564
						c0-0.902-0.161-1.494-0.483-1.775S651.134,180.733,650.278,180.733z"/>
				</g>
			</g>
		</g>
	</g>
	<g>
		<g>
			<path fill="#F2961C" d="M498.206,225.136v4.156h-1.68v-12.986h3.686c1.043,0.141,1.926,0.57,2.646,1.29
				c0.86,0.866,1.29,1.905,1.29,3.116c0,1.224-0.43,2.267-1.29,3.129c-0.86,0.863-1.899,1.295-3.117,1.295H498.206z
				 M498.206,217.993v5.455h1.534c0.747,0,1.387-0.268,1.92-0.8c0.532-0.533,0.8-1.179,0.8-1.937c0-0.752-0.268-1.393-0.8-1.924
				c-0.533-0.529-1.173-0.795-1.92-0.795H498.206z"/>
			<path fill="#F2961C" d="M512.436,226.427l1.681,0.601c-0.412,0.568-0.709,0.944-0.894,1.128
				c-0.903,0.904-1.994,1.355-3.271,1.355c-1.272,0-2.359-0.451-3.264-1.355c-0.904-0.903-1.355-1.994-1.355-3.271
				c0-1.277,0.451-2.368,1.355-3.271s1.991-1.355,3.264-1.355c1.276,0,2.367,0.452,3.271,1.355c0.185,0.185,0.481,0.555,0.894,1.112
				l-1.681,0.617c-0.217-0.266-0.362-0.436-0.438-0.512c-0.562-0.562-1.244-0.844-2.045-0.844c-0.796,0-1.477,0.282-2.042,0.848
				s-0.849,1.249-0.849,2.05c0,0.796,0.283,1.476,0.849,2.041s1.246,0.849,2.042,0.849c0.801,0,1.484-0.281,2.053-0.844
				C512.075,226.854,512.219,226.687,512.436,226.427z"/>
			<path fill="#F2961C" d="M517.297,216.306c2.11,0.01,3.755,0.607,4.935,1.793c1.294,1.305,1.94,2.871,1.94,4.699
				c0,1.835-0.646,3.401-1.94,4.7c-1.18,1.185-2.824,1.783-4.935,1.794h-1.233v-12.986H517.297z M517.743,218.018v9.569
				c1.337,0,2.433-0.43,3.287-1.29c0.963-0.963,1.445-2.13,1.445-3.499c0-1.363-0.482-2.529-1.445-3.498
				C520.176,218.445,519.08,218.018,517.743,218.018z"/>
			<path fill="#F2961C" d="M535.99,229.454c-1.331,0-2.395-0.398-3.19-1.197c-0.795-0.798-1.192-1.76-1.192-2.885
				c0-1.386,0.761-2.633,2.28-3.742c-0.73-0.785-1.096-1.6-1.096-2.443c0-0.828,0.297-1.543,0.889-2.143
				c0.593-0.602,1.316-0.901,2.172-0.901h0.268c0.855,0,1.58,0.3,2.176,0.901c0.595,0.6,0.893,1.314,0.893,2.143
				c0,0.844-0.395,1.65-1.186,2.419c1.58,1.126,2.371,2.381,2.371,3.767c0,1.125-0.398,2.087-1.193,2.885
				C538.385,229.056,537.321,229.454,535.99,229.454z M535.99,227.733c0.854,0,1.515-0.23,1.977-0.689
				c0.463-0.46,0.694-1.018,0.694-1.672c0-0.66-0.23-1.236-0.69-1.729c-0.454-0.497-1.114-0.836-1.98-1.015
				c-0.871,0.179-1.534,0.518-1.988,1.015c-0.454,0.493-0.683,1.069-0.683,1.729c0,0.654,0.23,1.212,0.69,1.672
				C534.47,227.503,535.13,227.733,535.99,227.733z M535.95,217.863c-0.038-0.005-0.07-0.008-0.098-0.008
				c-0.368,0-0.682,0.128-0.941,0.386c-0.26,0.257-0.391,0.572-0.391,0.945c0,0.379,0.137,0.715,0.41,1.006
				c0.273,0.293,0.521,0.482,0.743,0.568c0.119,0.044,0.225,0.073,0.316,0.09c0.093-0.017,0.198-0.046,0.317-0.09
				c0.216-0.086,0.462-0.275,0.738-0.568c0.275-0.291,0.414-0.627,0.414-1.006c0-0.373-0.131-0.688-0.391-0.945
				c-0.26-0.258-0.576-0.386-0.949-0.386c-0.021,0-0.051,0.003-0.09,0.008H535.95z"/>
			<path fill="#F2961C" d="M551.088,224.885c0,1.271-0.45,2.358-1.352,3.259s-1.989,1.352-3.267,1.352
				c-1.271,0-2.358-0.451-3.26-1.352c-0.9-0.9-1.352-1.987-1.352-3.259v-3.97c0-1.271,0.451-2.357,1.352-3.259
				c0.901-0.901,1.988-1.351,3.26-1.351c1.277,0,2.365,0.449,3.267,1.351s1.352,1.987,1.352,3.259V224.885z M549.367,220.915
				c0-0.795-0.282-1.475-0.849-2.037c-0.564-0.562-1.248-0.844-2.049-0.844c-0.796,0-1.477,0.281-2.041,0.844
				c-0.566,0.562-0.849,1.242-0.849,2.037v3.97c0,0.801,0.282,1.482,0.849,2.046c0.564,0.562,1.245,0.844,2.041,0.844
				c0.801,0,1.484-0.281,2.049-0.844c0.566-0.563,0.849-1.245,0.849-2.046V220.915z"/>
			<path fill="#F2961C" d="M554.525,227.385c0.229,0.228,0.345,0.503,0.345,0.827c0,0.336-0.115,0.617-0.345,0.845
				c-0.23,0.228-0.507,0.341-0.832,0.341c-0.319,0-0.595-0.113-0.828-0.341c-0.232-0.228-0.349-0.509-0.349-0.845
				c0-0.324,0.116-0.6,0.349-0.827c0.233-0.228,0.509-0.341,0.828-0.341C554.019,227.044,554.295,227.157,554.525,227.385z"/>
			<path fill="#F2961C" d="M562.923,224.316c-0.482,0.52-1.28,0.779-2.395,0.779c-1.121,0-2.051-0.37-2.793-1.112
				c-0.898-0.903-1.348-1.994-1.348-3.271c0-1.271,0.449-2.357,1.348-3.258c0.898-0.901,1.986-1.352,3.264-1.352
				c1.271,0,2.359,0.449,3.263,1.348c0.866,0.871,1.302,2.08,1.307,3.627v0.025c0,1.531-0.414,2.879-1.241,4.041
				c-0.834,1.17-1.959,2.553-3.377,4.148h-2.208C560.706,227.257,562.1,225.599,562.923,224.316z M563.896,220.712
				c0-0.801-0.282-1.482-0.849-2.045c-0.564-0.562-1.248-0.844-2.049-0.844c-0.796,0-1.477,0.281-2.041,0.844
				c-0.566,0.562-0.85,1.244-0.85,2.045s0.283,1.483,0.85,2.046c0.564,0.563,1.245,0.845,2.041,0.845
				c0.801,0,1.484-0.281,2.049-0.845C563.614,222.195,563.896,221.513,563.896,220.712z"/>
			<path fill="#F2961C" d="M569.813,219.812c0.303-0.064,0.619-0.098,0.949-0.098c0.605,0,1.188,0.098,1.745,0.293
				c1.25,0.427,2.181,1.217,2.792,2.369c0.385,0.715,0.576,1.451,0.576,2.208c0,0.472-0.072,0.942-0.219,1.413
				c-0.385,1.255-1.152,2.193-2.305,2.816c-0.703,0.373-1.432,0.56-2.184,0.56c-0.477,0-0.958-0.075-1.445-0.228
				c-1.006-0.309-1.877-0.963-2.613-1.964l1.186-1.315c0.6,0.889,1.244,1.435,1.932,1.641c0.313,0.097,0.619,0.146,0.917,0.146
				c0.476,0,0.941-0.119,1.396-0.356c0.742-0.396,1.234-0.996,1.478-1.803c0.098-0.309,0.146-0.613,0.146-0.917
				c0-0.471-0.122-0.937-0.365-1.396c-0.401-0.748-1.007-1.262-1.818-1.543c-0.353-0.125-0.741-0.187-1.169-0.187
				c-0.579,0-1.32,0.144-2.225,0.431l-1.014-0.885l1.461-4.035v-0.656h4.756v1.68h-3.336L569.813,219.812z"/>
			<path fill="#F2961C" d="M583.758,216.306h1.47v7.8h1.145v1.681h-1.145v3.506h-1.681v-3.506h-5.316L583.758,216.306z
				 M583.547,220.096l-2.395,4.01h2.395V220.096z"/>
			<path fill="#27515D" d="M499.829,242.576c-0.92-0.308-1.664-0.748-2.236-1.319c-0.57-0.57-0.855-1.277-0.855-2.122
				c0-0.828,0.296-1.54,0.889-2.135c0.592-0.595,1.311-0.894,2.154-0.894c0.834,0,1.549,0.296,2.144,0.885
				c0.335,0.325,0.616,0.842,0.845,1.551l-1.526,0.602c-0.185-0.498-0.353-0.823-0.503-0.975c-0.266-0.26-0.585-0.39-0.959-0.39
				c-0.378,0-0.7,0.132-0.965,0.394c-0.266,0.263-0.398,0.583-0.398,0.962s0.133,0.7,0.398,0.966
				c0.297,0.293,0.709,0.561,1.233,0.804c1.017,0.33,1.88,0.85,2.589,1.558c0.796,0.785,1.193,1.738,1.193,2.857
				c0,1.121-0.396,2.077-1.189,2.869c-0.792,0.793-1.746,1.189-2.861,1.189c-1.119,0-2.074-0.397-2.865-1.193
				c-0.633-0.633-1.033-1.506-1.201-2.621l1.632-0.593c0.103,0.958,0.354,1.638,0.755,2.038c0.465,0.465,1.025,0.697,1.68,0.697
				c0.655,0,1.215-0.232,1.682-0.697c0.465-0.466,0.697-1.029,0.697-1.689c0-0.654-0.232-1.215-0.697-1.68
				C501.018,243.196,500.474,242.841,499.829,242.576z"/>
			<path fill="#27515D" d="M510.284,236.253l4.725,12.987h-1.787l-1.672-4.595h-3.441l-1.664,4.595h-1.793l4.724-12.987H510.284z
				 M510.941,242.966l-1.112-3.044l-1.104,3.044H510.941z"/>
			<path fill="#27515D" d="M516.632,236.253h1.533l5.357,9.27v-9.27h1.688v12.987h-1.469l-5.431-9.384v9.384h-1.68V236.253z"/>
			<path fill="#27515D" d="M531.55,237.934v11.307h-1.688v-11.307h-3.027v-1.681h7.743v1.681H531.55z"/>
			<path fill="#27515D" d="M540.431,236.253l4.724,12.987h-1.786l-1.672-4.595h-3.441l-1.664,4.595h-1.794l4.724-12.987H540.431z
				 M541.087,242.966l-1.111-3.044l-1.104,3.044H541.087z"/>
			<path fill="#27515D" d="M546.778,236.253h1.533l5.357,9.27v-9.27h1.688v12.987h-1.469l-5.43-9.384v9.384h-1.68V236.253z"/>
			<path fill="#27515D" d="M559.026,236.253c2.109,0.012,3.755,0.609,4.935,1.794c1.294,1.304,1.94,2.871,1.94,4.7
				c0,1.834-0.646,3.4-1.94,4.699c-1.18,1.186-2.825,1.783-4.935,1.794h-1.234v-12.987H559.026z M559.473,237.966v9.57
				c1.337,0,2.433-0.431,3.287-1.291c0.963-0.963,1.444-2.129,1.444-3.498c0-1.363-0.481-2.529-1.444-3.498
				C561.905,238.394,560.81,237.966,559.473,237.966z"/>
			<path fill="#27515D" d="M574.935,236.253v1.681h-5.316v3.969h5.316v1.681h-5.316v3.969h5.316v1.688h-6.996v-12.987H574.935z"/>
			<path fill="#27515D" d="M580.382,245.085h-1.534v4.155h-1.681v-12.987h3.686c1.044,0.141,1.926,0.571,2.646,1.291
				c0.859,0.865,1.29,1.904,1.29,3.117c0,1.223-0.431,2.268-1.29,3.133c-0.596,0.596-1.051,0.931-1.364,1.006l2.882,4.44h-2.037
				L580.382,245.085z M578.848,237.941v5.454h1.534c0.746,0,1.387-0.266,1.92-0.799c0.532-0.533,0.799-1.178,0.799-1.936
				c0-0.752-0.267-1.394-0.799-1.924c-0.533-0.531-1.174-0.796-1.92-0.796H578.848z"/>
		</g>
	</g>
	<g>
		<g>
			<polyline fill="none" stroke="#FFFFFF" stroke-width="2" points="263.093,136.945 405.441,185.55 486.033,185.55 			"/>
			<g>
				<circle fill="#FFFFFF" cx="263.199" cy="136.981" r="2.256"/>
			</g>
		</g>
	</g>
</g>
</svg>
