<?xml version="1.0" encoding="utf-8"?>
<!-- Generator: Adobe Illustrator 22.0.1, SVG Export Plug-In . SVG Version: 6.00 Build 0)  -->
<svg version="1.1" id="Capa_1" xmlns="http://www.w3.org/2000/svg" xmlns:xlink="http://www.w3.org/1999/xlink" x="0px" y="0px"
	 viewBox="0 0 723.8 355.4" style="enable-background:new 0 0 723.8 355.4;" xml:space="preserve">
<style type="text/css">
	.st0{fill:#F2961C;}
	.st1{fill:#A0C219;}
	.st2{enable-background:new    ;}
	.st3{fill:#575756;}
	.st4{fill:#3C691A;}
	.st5{fill:#95C11F;}
	.st6{fill:#E94E1B;}
	.st7{fill:#662483;}
	.st8{fill:#E02386;}
	.st9{fill:#2FAC66;}
	.st10{fill:none;stroke:#575756;stroke-width:2;}
	.st11{fill:#A5A5A5;}
	.st12{font-family:'ArialMT';}
	.st13{font-size:13.1799px;}
</style>
<g>
	<g>
		<path class="st0" d="M4.5,237.7v-6c0-1.6,0.1-2.9,0.4-3.7s0.6-1.5,1.1-2c0.5-0.4,1.1-0.7,1.7-0.9c0.7-0.2,1.7-0.2,3.2-0.2h2
			c1.5,0,2.5,0.1,3.2,0.5c0.7,0.3,1.2,0.9,1.5,1.7c0.4,0.8,0.5,1.9,0.5,3.2v1.6h9.2v5.9L4.5,237.7L4.5,237.7z M8.5,231.7h5.8
			c0-0.2,0-0.3,0-0.4c0-0.5-0.1-0.9-0.4-1.1c-0.3-0.2-0.8-0.3-1.7-0.3h-1.9c-0.8,0-1.3,0.1-1.5,0.4C8.6,230.4,8.5,231,8.5,231.7z"/>
		<path class="st0" d="M15.7,210.7v5.4h-2.2c-0.8,0-1.3,0.1-1.5,0.2s-0.4,0.3-0.4,0.7c0,0.3,0.1,0.5,0.4,0.7s0.8,0.2,1.6,0.2h8.8
			c0.7,0,1.2-0.1,1.5-0.3c0.3-0.2,0.5-0.4,0.5-0.7c0-0.4-0.2-0.6-0.5-0.8c-0.3-0.1-1-0.2-2-0.2h-2.2v-5.1c1.5,0,2.6,0.1,3.4,0.2
			c0.7,0.1,1.5,0.4,2.3,0.9c0.8,0.5,1.4,1.2,1.8,2.1c0.4,0.9,0.6,1.9,0.6,3.2c0,1.6-0.3,2.9-0.8,3.8s-1.3,1.6-2.3,2
			c-1,0.4-2.4,0.6-4.2,0.6H15c-1.6,0-2.8-0.2-3.6-0.5s-1.5-1-2.2-2c-0.6-1-1-2.3-1-3.8c0-1.5,0.3-2.8,0.9-3.8
			c0.6-1.1,1.4-1.8,2.4-2.1C12.6,210.9,14,210.7,15.7,210.7z"/>
		<path class="st0" d="M4.5,208.9v-4.4c0-2.9,0.1-4.8,0.4-5.8c0.3-1,0.7-1.8,1.3-2.3c0.6-0.5,1.3-0.9,2-1s2.2-0.2,4.4-0.2h8
			c2,0,3.4,0.1,4.1,0.3c0.7,0.2,1.2,0.5,1.6,1c0.4,0.5,0.7,1.1,0.8,1.8c0.2,0.7,0.2,1.8,0.2,3.2v7.5L4.5,208.9L4.5,208.9z
			 M8.5,202.9h15c0-0.9-0.2-1.4-0.5-1.6c-0.3-0.2-1.3-0.3-2.8-0.3h-8.9c-1,0-1.7,0-2,0.1c-0.3,0.1-0.5,0.2-0.6,0.5
			C8.5,201.9,8.5,202.3,8.5,202.9z"/>
		<path class="st0" d="M14.6,176.4v5h-1c-0.9,0-1.4,0-1.6,0.1c-0.2,0.1-0.3,0.3-0.3,0.7c0,0.3,0.1,0.6,0.3,0.7
			c0.2,0.2,0.5,0.2,1,0.2c0.6,0,1,0,1.3-0.1c0.3-0.1,0.6-0.3,0.9-0.7c0.3-0.4,0.8-1.2,1.4-2.5c0.8-1.7,1.6-2.7,2.3-3.3
			c0.7-0.5,1.8-0.8,3.1-0.8c1.5,0,2.7,0.2,3.4,0.6c0.8,0.4,1.4,1.1,1.8,2c0.4,0.9,0.6,2,0.6,3.4c0,1.4-0.2,2.7-0.7,3.7
			c-0.5,1-1.1,1.7-1.8,2.1c-0.8,0.4-1.9,0.6-3.5,0.6h-0.9v-5.1H22c1,0,1.7-0.1,2-0.2s0.5-0.4,0.5-0.8c0-0.4-0.1-0.7-0.3-0.8
			c-0.2-0.2-0.6-0.2-1.3-0.2c-0.9,0-1.5,0.1-1.7,0.3c-0.2,0.2-0.9,1.3-2,3.3c-0.9,1.7-1.8,2.7-2.6,3.1c-0.8,0.4-1.7,0.6-2.7,0.6
			c-1.5,0-2.6-0.2-3.3-0.6s-1.3-1.1-1.6-2c-0.4-0.9-0.6-2-0.6-3.3c0-1.2,0.2-2.3,0.5-3.2c0.3-0.9,0.7-1.5,1.2-2
			c0.5-0.5,1-0.7,1.4-0.8c0.4-0.1,1.1-0.1,2.1-0.1L14.6,176.4L14.6,176.4z"/>
		<path class="st0" d="M18.4,161.5v7.4h4c0.8,0,1.4-0.1,1.6-0.2c0.2-0.1,0.4-0.4,0.4-0.7c0-0.4-0.2-0.7-0.5-0.9
			c-0.3-0.1-1-0.2-1.9-0.2h-2.5v-5.4H21c1.2,0,2,0.1,2.7,0.2c0.6,0.1,1.3,0.5,2,1c0.7,0.5,1.2,1.2,1.6,2s0.5,1.9,0.5,3.1
			c0,1.2-0.2,2.3-0.5,3.2c-0.3,0.9-0.8,1.6-1.4,2.2c-0.6,0.5-1.3,0.9-2,1.1c-0.7,0.2-1.8,0.3-3.2,0.3h-5.5c-1.6,0-2.9-0.2-3.9-0.7
			c-0.9-0.4-1.7-1.2-2.2-2.2s-0.8-2.2-0.8-3.5c0-1.6,0.3-2.9,0.9-4c0.6-1,1.4-1.8,2.4-2.2c1-0.4,2.4-0.6,4.2-0.6L18.4,161.5
			C18.4,161.5,18.4,161.5,18.4,161.5z M15.3,167.2h-1.4c-1,0-1.6,0.1-1.9,0.2c-0.3,0.1-0.4,0.3-0.4,0.6c0,0.4,0.1,0.6,0.4,0.7
			c0.2,0.1,0.9,0.1,1.9,0.1h1.4L15.3,167.2L15.3,167.2z"/>
		<path class="st0" d="M8.7,146.7h14.4c1.9,0,3.2,0,3.8,0.1c0.6,0.1,1.2,0.4,1.8,1s1.1,1.3,1.5,2.3c0.3,1,0.5,2.2,0.5,3.7
			c0,1.8-0.3,3.3-0.9,4.4s-1.8,1.7-3.6,1.7v-5.5c0.8,0,1.2-0.3,1.2-0.9c0-0.4-0.1-0.7-0.4-0.9s-0.8-0.2-1.6-0.2h-1.4
			c0.4,0.5,0.8,1,1,1.5s0.3,1.1,0.3,1.7c0,1-0.2,1.9-0.6,2.5c-0.4,0.7-1,1.1-1.6,1.4c-0.7,0.2-1.6,0.4-2.9,0.4h-6.8
			c-1.8,0-3.1-0.3-3.8-1c-0.8-0.6-1.2-1.6-1.2-2.9c0-0.7,0.1-1.4,0.4-2c0.3-0.6,0.7-1.1,1.3-1.6L8.7,152L8.7,146.7L8.7,146.7z
			 M13.6,152.4c-0.9,0-1.4,0-1.6,0.1c-0.2,0.1-0.4,0.3-0.4,0.7c0,0.3,0.1,0.6,0.4,0.7s0.8,0.2,1.6,0.2h6.3c0.8,0,1.4-0.1,1.6-0.2
			c0.2-0.1,0.4-0.3,0.4-0.6c0-0.4-0.1-0.6-0.5-0.7s-1-0.2-2-0.2L13.6,152.4L13.6,152.4z"/>
		<path class="st0" d="M3.6,133.3l3.8,4.6v2.9l-3.8-2.5C3.6,138.3,3.6,133.3,3.6,133.3z M8.7,131.6h18.7v5.8l-1.6-0.1
			c0.6,0.4,1.1,0.9,1.4,1.5s0.5,1.2,0.5,2c0,0.9-0.2,1.6-0.5,2.1s-0.7,1-1.2,1.2s-1,0.4-1.6,0.5c-0.5,0.1-1.6,0.1-3.2,0.1H8.7V139
			h12.7c1.5,0,2.3,0,2.6-0.1c0.3-0.1,0.4-0.3,0.4-0.7c0-0.4-0.1-0.7-0.4-0.8c-0.3-0.1-1.2-0.1-2.7-0.1H8.7V131.6z"/>
		<path class="st0" d="M8.7,123.8l1.7,0.1c-0.7-0.4-1.2-0.9-1.5-1.5s-0.5-1.3-0.5-2.1c0-1,0.2-1.8,0.7-2.4c0.5-0.6,1-1,1.7-1.2
			c0.7-0.2,1.9-0.3,3.5-0.3h13.1v5.7h-13c-1.3,0-2.1,0-2.4,0.1c-0.3,0.1-0.4,0.3-0.4,0.7c0,0.4,0.2,0.7,0.5,0.8
			c0.3,0.1,1.2,0.2,2.6,0.2h12.7v5.7H8.7V123.8z"/>
		<path class="st0" d="M6.2,103.4h2.9v-1.5h3v1.5h10c1.2,0,1.9-0.1,2.1-0.2c0.1-0.1,0.2-0.7,0.2-1.6h3v2.3c0,1.3-0.1,2.2-0.2,2.8
			s-0.4,1-0.7,1.5c-0.4,0.4-0.8,0.7-1.3,0.8c-0.5,0.1-1.7,0.2-3.5,0.2h-9.5v1.2h-3v-1.2H6.2V103.4z"/>
		<path class="st0" d="M18.4,87.7V95h4c0.8,0,1.4-0.1,1.6-0.2c0.2-0.1,0.4-0.4,0.4-0.7c0-0.4-0.2-0.7-0.5-0.9
			c-0.3-0.1-1-0.2-1.9-0.2h-2.5v-5.4H21c1.2,0,2,0.1,2.7,0.2c0.6,0.1,1.3,0.5,2,1c0.7,0.5,1.2,1.2,1.6,2c0.4,0.8,0.5,1.9,0.5,3.1
			c0,1.2-0.2,2.3-0.5,3.2c-0.3,0.9-0.8,1.6-1.4,2.2c-0.6,0.5-1.3,0.9-2,1.1c-0.7,0.2-1.8,0.3-3.2,0.3h-5.5c-1.6,0-2.9-0.2-3.9-0.7
			c-0.9-0.4-1.7-1.2-2.2-2.2s-0.8-2.2-0.8-3.5c0-1.6,0.3-2.9,0.9-4s1.4-1.8,2.4-2.2c1-0.4,2.4-0.6,4.2-0.6L18.4,87.7
			C18.4,87.7,18.4,87.7,18.4,87.7z M15.3,93.4h-1.4c-1,0-1.6,0.1-1.9,0.2c-0.3,0.1-0.4,0.3-0.4,0.6c0,0.4,0.1,0.6,0.4,0.7
			c0.2,0.1,0.9,0.1,1.9,0.1h1.4L15.3,93.4L15.3,93.4z"/>
		<path class="st0" d="M8.7,80l1.7,0.1c-0.7-0.4-1.2-0.9-1.5-1.5s-0.5-1.3-0.5-2.1c0-1,0.2-1.8,0.7-2.4c0.5-0.6,1-1,1.7-1.2
			c0.7-0.2,1.9-0.3,3.5-0.3h13.1v5.7h-13c-1.3,0-2.1,0-2.4,0.1c-0.3,0.1-0.4,0.3-0.4,0.7c0,0.4,0.2,0.7,0.5,0.8
			c0.3,0.1,1.2,0.2,2.6,0.2h12.7v5.7H8.7V80z"/>
		<path class="st0" d="M18.4,57.8v7.4h4c0.8,0,1.4-0.1,1.6-0.2c0.2-0.1,0.4-0.4,0.4-0.7c0-0.4-0.2-0.7-0.5-0.9
			c-0.3-0.1-1-0.2-1.9-0.2h-2.5v-5.4H21c1.2,0,2,0.1,2.7,0.2c0.6,0.1,1.3,0.5,2,1c0.7,0.5,1.2,1.2,1.6,2s0.5,1.9,0.5,3.1
			c0,1.2-0.2,2.3-0.5,3.2c-0.3,0.9-0.8,1.6-1.4,2.2c-0.6,0.5-1.3,0.9-2,1.1c-0.7,0.2-1.8,0.3-3.2,0.3h-5.5c-1.6,0-2.9-0.2-3.9-0.7
			C10.3,69.8,9.6,69,9.1,68s-0.8-2.2-0.8-3.5c0-1.6,0.3-2.9,0.9-4s1.4-1.8,2.4-2.2c1-0.4,2.4-0.6,4.2-0.6L18.4,57.8
			C18.4,57.8,18.4,57.8,18.4,57.8z M15.3,63.5h-1.4c-1,0-1.6,0.1-1.9,0.2c-0.3,0.1-0.4,0.3-0.4,0.6c0,0.4,0.1,0.6,0.4,0.7
			c0.2,0.1,0.9,0.1,1.9,0.1h1.4L15.3,63.5C15.3,63.5,15.3,63.5,15.3,63.5z"/>
		<path class="st0" d="M8.7,50.1l1.7,0.1c-0.7-0.4-1.2-0.9-1.5-1.5s-0.5-1.3-0.5-2.1c0-1,0.2-1.8,0.7-2.4c0.5-0.6,1-1,1.7-1.2
			c0.7-0.2,1.9-0.3,3.5-0.3h13.1v5.7h-13c-1.3,0-2.1,0-2.4,0.1c-0.3,0.1-0.4,0.3-0.4,0.7c0,0.4,0.2,0.7,0.5,0.8
			c0.3,0.1,1.2,0.2,2.6,0.2h12.7v5.7H8.7V50.1z"/>
		<path class="st0" d="M15.7,28.2v5.4h-2.2c-0.8,0-1.3,0.1-1.5,0.2s-0.4,0.3-0.4,0.7s0.1,0.5,0.4,0.7s0.8,0.2,1.6,0.2h8.8
			c0.7,0,1.2-0.1,1.5-0.3c0.3-0.2,0.5-0.4,0.5-0.7c0-0.4-0.2-0.6-0.5-0.8c-0.3-0.1-1-0.2-2-0.2h-2.2v-5.1c1.5,0,2.6,0.1,3.4,0.2
			c0.7,0.1,1.5,0.4,2.3,0.9s1.4,1.2,1.8,2.1c0.4,0.9,0.6,1.9,0.6,3.2c0,1.6-0.3,2.9-0.8,3.8s-1.3,1.6-2.3,2c-1,0.4-2.4,0.6-4.2,0.6
			H15c-1.6,0-2.8-0.2-3.6-0.5s-1.5-1-2.2-2c-0.6-1-1-2.3-1-3.8c0-1.5,0.3-2.8,0.9-3.8s1.4-1.8,2.4-2.1C12.6,28.4,14,28.2,15.7,28.2z
			"/>
		<path class="st0" d="M4.5,20.7h3v5.9h-3V20.7z M8.7,20.7h18.7v5.9H8.7V20.7z"/>
		<path class="st0" d="M15.9,13.5v5.3h-1.3c-1.4,0-2.6-0.2-3.4-0.5c-0.8-0.3-1.5-1-2.1-2c-0.6-1-0.9-2.3-0.9-3.9
			c0-1.9,0.3-3.4,1-4.4c0.7-1,1.5-1.6,2.5-1.8c1-0.2,3-0.3,6.1-0.3h9.4v5.5h-1.7c0.7,0.3,1.2,0.8,1.5,1.3s0.5,1.2,0.5,2
			c0,1-0.3,1.9-0.8,2.7c-0.6,0.8-1.8,1.2-3.7,1.2h-1.5c-1.4,0-2.4-0.2-2.9-0.7s-1.1-1.5-1.8-3.3c-0.7-1.9-1.2-2.9-1.5-3
			c-0.3-0.1-0.8-0.2-1.6-0.2c-1,0-1.6,0.1-1.9,0.2c-0.3,0.1-0.4,0.4-0.4,0.7c0,0.4,0.1,0.6,0.4,0.7s0.9,0.1,1.9,0.1
			C14,13.5,15.9,13.5,15.9,13.5z M18.5,11.7c0.7,0.9,1.2,1.4,1.7,1.6c0.5,0.1,1.1,0.2,1.9,0.2c1,0,1.6-0.1,1.9-0.2
			c0.3-0.1,0.4-0.4,0.4-0.8c0-0.4-0.1-0.6-0.3-0.7c-0.2-0.1-0.8-0.2-1.7-0.2L18.5,11.7L18.5,11.7z"/>
		<path class="st0" d="M34.4,224.9h22.8v5.7h-1.4c0.6,0.5,1,1.1,1.3,1.7c0.3,0.6,0.4,1.2,0.4,1.9c0,0.9-0.2,1.6-0.7,2.3
			c-0.5,0.6-1,1.1-1.6,1.2s-1.6,0.3-3,0.3h-8.8c-1.4,0-2.5-0.1-3.1-0.3s-1.1-0.6-1.6-1.3s-0.7-1.4-0.7-2.4c0-0.7,0.1-1.4,0.4-1.9
			c0.3-0.6,0.6-1.1,1.1-1.6h-5.3V224.9z M43.3,230.6c-0.7,0-1.1,0.1-1.4,0.2c-0.2,0.1-0.4,0.4-0.4,0.7c0,0.3,0.1,0.6,0.3,0.7
			c0.2,0.1,0.7,0.2,1.4,0.2h9.2c0.8,0,1.3-0.1,1.5-0.2c0.2-0.1,0.4-0.3,0.4-0.6c0-0.4-0.1-0.6-0.4-0.7s-0.9-0.2-2-0.2L43.3,230.6
			L43.3,230.6z"/>
		<path class="st0" d="M48.2,209.9v7.4h4c0.8,0,1.4-0.1,1.6-0.2c0.2-0.1,0.4-0.4,0.4-0.7c0-0.4-0.2-0.7-0.5-0.9
			c-0.3-0.1-1-0.2-1.9-0.2h-2.5v-5.4h1.4c1.2,0,2,0.1,2.7,0.2c0.6,0.1,1.3,0.5,2,1c0.7,0.5,1.2,1.2,1.6,2c0.4,0.8,0.5,1.9,0.5,3.1
			c0,1.2-0.2,2.3-0.5,3.2c-0.3,0.9-0.8,1.6-1.4,2.1c-0.6,0.5-1.3,0.9-2,1.1s-1.8,0.3-3.2,0.3H45c-1.6,0-2.9-0.2-3.9-0.7
			c-0.9-0.4-1.7-1.2-2.2-2.2s-0.8-2.2-0.8-3.5c0-1.6,0.3-2.9,0.9-4s1.4-1.8,2.4-2.2c1-0.4,2.4-0.6,4.2-0.6L48.2,209.9L48.2,209.9z
			 M45.2,215.6h-1.4c-1,0-1.6,0.1-1.9,0.2c-0.3,0.1-0.4,0.3-0.4,0.6c0,0.4,0.1,0.6,0.4,0.7c0.2,0.1,0.9,0.1,1.9,0.1h1.4L45.2,215.6
			L45.2,215.6z"/>
		<path class="st0" d="M34.4,197.1h22.8v5.9H34.4V197.1z"/>
		<path class="st0" d="M45.8,190v5.3h-1.3c-1.4,0-2.6-0.2-3.3-0.5c-0.8-0.3-1.5-1-2.1-2c-0.6-1-0.9-2.3-0.9-3.9c0-1.9,0.3-3.4,1-4.4
			c0.7-1,1.5-1.6,2.5-1.8c1-0.2,3-0.3,6.1-0.3h9.4v5.5h-1.7c0.7,0.3,1.2,0.8,1.5,1.3c0.3,0.6,0.5,1.2,0.5,2c0,1-0.3,1.9-0.8,2.7
			c-0.6,0.8-1.8,1.2-3.7,1.2h-1.5c-1.4,0-2.4-0.2-2.9-0.7c-0.5-0.4-1.1-1.5-1.8-3.3c-0.7-1.9-1.2-2.9-1.5-3
			c-0.3-0.1-0.8-0.2-1.6-0.2c-1,0-1.6,0.1-1.9,0.2c-0.3,0.1-0.4,0.4-0.4,0.7c0,0.4,0.1,0.6,0.4,0.7s0.9,0.1,1.9,0.1L45.8,190
			L45.8,190z M48.4,188.2c0.7,0.9,1.2,1.4,1.7,1.6c0.5,0.1,1.1,0.2,1.9,0.2c1,0,1.6-0.1,1.9-0.2c0.3-0.1,0.4-0.4,0.4-0.8
			c0-0.4-0.1-0.6-0.3-0.7c-0.2-0.1-0.8-0.2-1.7-0.2L48.4,188.2L48.4,188.2z"/>
		<path class="st0" d="M38.5,163.6l18.7,2.7v7.4l-18.7,2.9v-5.1l13.7-1.6c-1-0.1-3.5-0.3-7.3-0.6c-2.2-0.2-4.3-0.3-6.3-0.6V163.6z"
			/>
		<path class="st0" d="M34.4,156.9h3v5.9h-3V156.9z M38.5,156.9h18.7v5.9H38.5V156.9z"/>
		<path class="st0" d="M38.5,143.1l18.7,2.7v7.4l-18.7,2.9V151l13.7-1.6c-1-0.1-3.5-0.3-7.3-0.6c-2.2-0.2-4.3-0.3-6.3-0.6V143.1z"/>
		<path class="st0" d="M34.4,136.4h3v5.9h-3V136.4z M38.5,136.4h18.7v5.9H38.5V136.4z"/>
		<path class="st0" d="M48.2,121.4v7.4h4c0.8,0,1.4-0.1,1.6-0.2c0.2-0.1,0.4-0.4,0.4-0.7c0-0.4-0.2-0.7-0.5-0.9
			c-0.3-0.1-1-0.2-1.9-0.2h-2.5v-5.4h1.4c1.2,0,2,0.1,2.7,0.2c0.6,0.1,1.3,0.5,2,1c0.7,0.5,1.2,1.2,1.6,2c0.4,0.8,0.5,1.9,0.5,3.1
			c0,1.2-0.2,2.3-0.5,3.2c-0.3,0.9-0.8,1.6-1.4,2.2c-0.6,0.5-1.3,0.9-2,1.1c-0.7,0.2-1.8,0.3-3.2,0.3H45c-1.6,0-2.9-0.2-3.9-0.7
			c-0.9-0.4-1.7-1.2-2.2-2.2c-0.5-1-0.8-2.2-0.8-3.5c0-1.6,0.3-2.9,0.9-4s1.4-1.8,2.4-2.2c1-0.4,2.4-0.6,4.2-0.6L48.2,121.4
			L48.2,121.4z M45.2,127.2h-1.4c-1,0-1.6,0.1-1.9,0.2c-0.3,0.1-0.4,0.3-0.4,0.6c0,0.4,0.1,0.6,0.4,0.7c0.2,0.1,0.9,0.1,1.9,0.1h1.4
			L45.2,127.2L45.2,127.2z"/>
		<path class="st0" d="M38.5,113.8l1.7,0.1c-0.7-0.4-1.2-0.9-1.5-1.5s-0.5-1.3-0.5-2.1c0-1,0.2-1.8,0.7-2.4c0.5-0.6,1-1,1.7-1.2
			c0.7-0.2,1.9-0.3,3.5-0.3h13.1v5.7h-13c-1.3,0-2.1,0-2.4,0.1c-0.3,0.1-0.4,0.3-0.4,0.7c0,0.4,0.2,0.7,0.5,0.8
			c0.3,0.1,1.2,0.2,2.6,0.2h12.6v5.7H38.5V113.8z"/>
		<path class="st0" d="M34.4,91.5h22.8v5.7h-1.4c0.6,0.5,1,1.1,1.3,1.7c0.3,0.6,0.4,1.2,0.4,1.9c0,0.9-0.2,1.7-0.7,2.3
			c-0.5,0.6-1,1.1-1.6,1.2c-0.6,0.2-1.6,0.3-3,0.3h-8.8c-1.4,0-2.5-0.1-3.1-0.3c-0.6-0.2-1.1-0.6-1.6-1.3c-0.5-0.7-0.7-1.4-0.7-2.4
			c0-0.7,0.1-1.4,0.4-1.9c0.3-0.6,0.6-1.1,1.1-1.6h-5.3V91.5z M43.3,97.2c-0.7,0-1.1,0.1-1.4,0.2c-0.2,0.1-0.4,0.3-0.4,0.7
			c0,0.3,0.1,0.6,0.3,0.7c0.2,0.1,0.7,0.2,1.4,0.2h9.2c0.8,0,1.3-0.1,1.5-0.2c0.2-0.1,0.4-0.3,0.4-0.6c0-0.4-0.1-0.6-0.4-0.7
			s-0.9-0.2-2-0.2H43.3z"/>
		<path class="st0" d="M45.8,84.4v5.3h-1.3c-1.4,0-2.6-0.2-3.3-0.5c-0.8-0.3-1.5-1-2.1-2c-0.6-1-0.9-2.3-0.9-3.9
			c0-1.9,0.3-3.4,1-4.4c0.7-1,1.5-1.6,2.5-1.8c1-0.2,3-0.3,6.1-0.3h9.4v5.5h-1.7c0.7,0.3,1.2,0.8,1.5,1.3s0.5,1.2,0.5,2
			c0,1-0.3,1.9-0.8,2.7c-0.6,0.8-1.8,1.2-3.7,1.2h-1.5c-1.4,0-2.4-0.2-2.9-0.7s-1.1-1.5-1.8-3.3c-0.7-1.9-1.2-2.9-1.5-3
			c-0.3-0.1-0.8-0.2-1.6-0.2c-1,0-1.6,0.1-1.9,0.2c-0.3,0.1-0.4,0.4-0.4,0.7c0,0.4,0.1,0.6,0.4,0.7s0.9,0.1,1.9,0.1H45.8z
			 M48.4,82.6c0.7,0.9,1.2,1.4,1.7,1.6c0.5,0.1,1.1,0.2,1.9,0.2c1,0,1.6-0.1,1.9-0.2c0.3-0.1,0.4-0.4,0.4-0.8c0-0.4-0.1-0.6-0.3-0.7
			c-0.2-0.1-0.8-0.2-1.7-0.2L48.4,82.6L48.4,82.6z"/>
	</g>
	<g>
		<path class="st1" d="M13,332.7v5.9h-2.1c-1.3,0-2.1,0.1-2.5,0.2s-0.5,0.4-0.5,0.8c0,0.4,0.1,0.6,0.4,0.7c0.3,0.1,1,0.2,2.2,0.2h11
			c1,0,1.7-0.1,2-0.2c0.3-0.1,0.5-0.4,0.5-0.8c0-0.4-0.2-0.7-0.5-0.9c-0.4-0.2-1.1-0.2-2.1-0.2h-2.7v1.2h-3.5v-7h12.3v3.7l-1.6,0.5
			c0.7,0.4,1.2,0.9,1.6,1.5s0.5,1.3,0.5,2.2c0,1-0.2,1.9-0.7,2.8c-0.5,0.9-1.1,1.5-1.8,2c-0.7,0.5-1.5,0.7-2.2,0.8
			c-0.8,0.1-2,0.2-3.5,0.2h-6.8c-2.2,0-3.8-0.1-4.8-0.4c-1-0.2-1.9-0.9-2.7-2c-0.8-1.1-1.2-2.6-1.2-4.3c0-1.7,0.4-3.2,1.1-4.3
			c0.7-1.1,1.6-1.9,2.5-2.2s2.4-0.5,4.3-0.5L13,332.7C13,332.7,13,332.7,13,332.7z"/>
		<path class="st1" d="M4.5,330.4v-4.2c0-2.8,0.1-4.7,0.3-5.7c0.2-1,0.8-1.8,1.7-2.4c0.9-0.6,2.3-0.9,4.3-0.9c1.8,0,3,0.2,3.6,0.7
			c0.6,0.4,1,1.3,1.1,2.6c0.3-1.2,0.7-2,1.2-2.4c0.5-0.4,0.9-0.7,1.3-0.8c0.4-0.1,1.5-0.1,3.4-0.1h6v5.5h-7.6c-1.2,0-2,0.1-2.3,0.3
			c-0.3,0.2-0.4,0.7-0.4,1.5h10.3v5.9L4.5,330.4L4.5,330.4z M8.5,324.5h5.1c0-0.7-0.1-1.1-0.3-1.4c-0.2-0.3-0.8-0.4-1.8-0.4h-1.3
			c-0.7,0-1.2,0.1-1.4,0.4C8.6,323.3,8.5,323.8,8.5,324.5z"/>
		<path class="st1" d="M0,303.9l3.8,4.6v2.9L0,308.9V303.9z M4.5,304.6l22.8-3.4v6.1l-4.1,0.3v2.1l4.1,0.4v6.1l-22.8-3
			C4.5,313.2,4.5,304.6,4.5,304.6z M19.2,307.7c-2.6,0.3-5.8,0.6-9.6,0.9c4.4,0.6,7.6,1,9.6,1.1V307.7z"/>
		<path class="st1" d="M4.5,300.2v-10.1h4.6v4.1h4.3v-3.7h4.3v3.7h9.6v5.9L4.5,300.2L4.5,300.2z"/>
		<path class="st1" d="M4.5,282.7h22.8v5.9H4.5V282.7z"/>
		<path class="st1" d="M14.5,266.5v5.9h-4c-1.2,0-1.9,0.1-2.2,0.2c-0.3,0.1-0.4,0.4-0.4,0.8c0,0.5,0.2,0.8,0.5,0.9
			c0.3,0.1,1.1,0.2,2.3,0.2h10.6c1.1,0,1.8-0.1,2.2-0.2c0.3-0.1,0.5-0.4,0.5-0.9c0-0.4-0.2-0.7-0.5-0.9c-0.3-0.1-1.1-0.2-2.4-0.2
			h-2.9v-5.9h0.9c2.4,0,4,0.2,5,0.5c1,0.3,1.9,1.1,2.6,2.2c0.7,1.1,1.1,2.5,1.1,4.2c0,1.7-0.3,3.2-0.9,4.3c-0.6,1.1-1.5,1.9-2.6,2.2
			c-1.1,0.4-2.8,0.6-5,0.6h-6.7c-1.6,0-2.9-0.1-3.7-0.2c-0.8-0.1-1.6-0.4-2.4-1c-0.8-0.6-1.4-1.3-1.8-2.3c-0.4-1-0.7-2.1-0.7-3.4
			c0-1.8,0.3-3.2,1-4.3c0.7-1.1,1.5-1.9,2.5-2.2c1-0.4,2.6-0.5,4.7-0.5L14.5,266.5L14.5,266.5z"/>
		<path class="st1" d="M4.5,254.1l22.8-3.4v6.1l-4.1,0.3v2.1l4.1,0.4v6.1l-22.8-3C4.5,262.7,4.5,254.1,4.5,254.1z M19.2,257.2
			c-2.6,0.3-5.8,0.6-9.6,0.9c4.4,0.6,7.6,1,9.6,1.1V257.2z"/>
		<path class="st1" d="M34.4,252.9h3.7v7.1H42c-1-0.9-1.6-2-1.6-3.4c0-1.6,0.4-2.8,1.3-3.6c0.9-0.8,2.6-1.2,5.1-1.2H50
			c1.6,0,2.8,0.1,3.6,0.2c0.8,0.2,1.5,0.5,2.1,1c0.6,0.5,1.1,1.2,1.5,2.1c0.3,0.9,0.5,2,0.5,3.3c0,1.5-0.3,2.8-0.8,3.9
			c-0.5,1.1-1.3,1.9-2.3,2.4c-1,0.5-2.6,0.7-4.7,0.7h-1.2v-5.7h1.4c1.5,0,2.5-0.1,3.1-0.2c0.6-0.1,0.9-0.5,0.9-1.1
			c0-0.3-0.1-0.5-0.3-0.7c-0.2-0.2-0.4-0.3-0.6-0.3c-0.2,0-1.1,0-2.7,0h-4.5c-0.9,0-1.4,0.1-1.7,0.3c-0.3,0.2-0.5,0.5-0.5,0.9
			c0,0.3,0.1,0.5,0.2,0.7c0.2,0.2,0.3,0.3,0.5,0.3c0.2,0.1,0.6,0.1,1.3,0.1v5.6l-11.5-0.2L34.4,252.9L34.4,252.9z"/>
	</g>
	<g>
		<path class="st0" d="M503.3,198.5h2.3l2.4,17.6h0.2l2.3-17.6h2.2l-2.8,19.6h-3.5L503.3,198.5z"/>
		<path class="st0" d="M515.3,198.5h2.4v19.6h-2.4V198.5z"/>
		<path class="st0" d="M520.3,198.5h2.3l2.4,17.6h0.2l2.3-17.6h2.2l-2.8,19.6h-3.5L520.3,198.5z"/>
		<path class="st0" d="M532.3,198.5h2.4v19.6h-2.4V198.5z"/>
		<path class="st0" d="M538.7,198.5h6.3v1.6h-4v7h3.8v1.5h-3.8v7.9h4.1v1.6h-6.4V198.5z"/>
		<path class="st0" d="M548.3,198.5h3.1l3.8,18.4h0l-0.3-18.4h2v19.6h-3.1l-3.7-18.1H550l0.3,18.1h-2L548.3,198.5L548.3,198.5z"/>
		<path class="st0" d="M561,198.5h2.7c2.2,0,3.7,0.3,4.4,0.8s1,1.7,1,3.6v10.8c0,1.9-0.4,3.1-1,3.6c-0.7,0.5-2.2,0.8-4.4,0.8H561
			V198.5z M563.2,200v16.7h0.7c1.1,0,1.8-0.1,2.2-0.4c0.3-0.3,0.5-0.9,0.5-1.8v-12.3c0-0.9-0.2-1.5-0.5-1.8
			c-0.4-0.3-1.1-0.4-2.2-0.4H563.2z"/>
		<path class="st0" d="M575.2,198.5h3.3l3.8,19.6h-2.4l-0.9-5.4h-4.3l-1,5.4h-2.4L575.2,198.5z M576.8,200l-1.9,11.2h3.8l-1.8-11.2
			H576.8z"/>
	</g>
	<g>
		<g>
			<g>
				<g class="st2">
					<path class="st3" d="M381.2,58.6v7.6h0.8v2h-0.8v2h-2.9v-2h-3.4v-2l2.5-7.6L381.2,58.6L381.2,58.6z M378.3,66.1v-4.9l-1.3,4.9
						H378.3z"/>
					<path class="st3" d="M387.3,60.5v2c0,0.5,0,0.9-0.1,1.2c-0.1,0.3-0.3,0.5-0.6,0.7c-0.3,0.2-0.7,0.3-1.3,0.3
						c-0.6,0-1.1-0.1-1.4-0.3s-0.5-0.4-0.6-0.7c-0.1-0.3-0.2-0.6-0.2-1.1v-2.1c0-0.6,0.1-1,0.2-1.3c0.1-0.3,0.3-0.5,0.7-0.7
						s0.7-0.3,1.2-0.3c0.5,0,1,0.1,1.3,0.3c0.3,0.2,0.6,0.4,0.7,0.7C387.3,59.6,387.3,60,387.3,60.5z M385.5,60c0-0.3,0-0.5,0-0.6
						c0-0.1-0.1-0.1-0.3-0.1c-0.1,0-0.2,0-0.2,0.1s-0.1,0.3-0.1,0.6V63c0,0.3,0,0.5,0.1,0.6c0,0.1,0.1,0.1,0.3,0.1
						c0.1,0,0.2,0,0.2-0.1s0.1-0.3,0.1-0.5L385.5,60C385.5,60,385.5,60,385.5,60z M390.7,58.3l-4.5,12h-1.1l4.5-12
						C389.6,58.3,390.7,58.3,390.7,58.3z M392.7,66.1v2c0,0.5,0,0.9-0.1,1.2s-0.3,0.5-0.6,0.7c-0.3,0.2-0.7,0.3-1.3,0.3
						c-0.6,0-1.1-0.1-1.4-0.3c-0.3-0.2-0.5-0.4-0.7-0.7c-0.1-0.3-0.2-0.6-0.2-1.1v-2.1c0-0.6,0.1-1,0.2-1.3c0.1-0.3,0.3-0.5,0.7-0.7
						c0.3-0.2,0.7-0.3,1.2-0.3c0.5,0,1,0.1,1.3,0.3c0.3,0.2,0.6,0.4,0.7,0.7C392.7,65.2,392.7,65.6,392.7,66.1z M390.9,65.6
						c0-0.3,0-0.5,0-0.6c0-0.1-0.1-0.1-0.3-0.1c-0.1,0-0.2,0-0.2,0.1s-0.1,0.3-0.1,0.6v2.9c0,0.3,0,0.5,0,0.6c0,0.1,0.1,0.1,0.3,0.1
						c0.1,0,0.2,0,0.2-0.1c0-0.1,0-0.3,0-0.5V65.6z"/>
				</g>
			</g>
		</g>
		<g>
			<g>
				<g class="st2">
					<path class="st4" d="M377.6,81.1l-2.6-7.2h1l1.9,5.1l1.9-5.1h1l-2.6,7.2H377.6z"/>
					<path class="st4" d="M382.6,73.9v7.2h-0.9v-7.2H382.6z"/>
					<path class="st4" d="M386.2,81.1l-2.6-7.2h1l1.9,5.1l1.9-5.1h1l-2.6,7.2H386.2z"/>
					<path class="st4" d="M391.2,73.9v7.2h-0.9v-7.2H391.2z"/>
					<path class="st4" d="M396.5,73.9v0.9h-2.9V77h2.9v0.9h-2.9v2.2h2.9v0.9h-3.9v-7.2L396.5,73.9L396.5,73.9z"/>
					<path class="st4" d="M397.8,73.9h0.8l3,5.1v-5.1h0.9v7.2h-0.8l-3-5.2v5.2h-0.9L397.8,73.9L397.8,73.9z"/>
					<path class="st4" d="M404.5,73.9c1.2,0,2.1,0.3,2.7,1c0.7,0.7,1.1,1.6,1.1,2.6c0,1-0.4,1.9-1.1,2.6c-0.6,0.7-1.6,1-2.7,1h-0.7
						v-7.2C403.8,73.9,404.5,73.9,404.5,73.9z M404.8,74.9v5.3c0.7,0,1.3-0.2,1.8-0.7c0.5-0.5,0.8-1.2,0.8-1.9
						c0-0.8-0.3-1.4-0.8-1.9C406.1,75.1,405.5,74.9,404.8,74.9z"/>
					<path class="st4" d="M411.9,73.9l2.6,7.2h-1l-0.9-2.5h-1.9l-0.9,2.5h-1l2.6-7.2H411.9z M412.2,77.6l-0.6-1.7l-0.6,1.7H412.2z"
						/>
					<path class="st4" d="M419.2,73.9c1.2,0,2.1,0.3,2.7,1c0.7,0.7,1.1,1.6,1.1,2.6c0,1-0.4,1.9-1.1,2.6c-0.6,0.7-1.6,1-2.7,1h-0.7
						v-7.2C418.5,73.9,419.2,73.9,419.2,73.9z M419.5,74.9v5.3c0.7,0,1.3-0.2,1.8-0.7c0.5-0.5,0.8-1.2,0.8-1.9
						c0-0.8-0.3-1.4-0.8-1.9C420.8,75.1,420.2,74.9,419.5,74.9z"/>
					<path class="st4" d="M428,73.9v0.9H425V77h2.9v0.9H425v2.2h2.9v0.9h-3.9v-7.2L428,73.9L428,73.9z"/>
					<path class="st4" d="M436.3,73.9h0.9v5c-0.1,0.6-0.3,1.1-0.7,1.5c-0.5,0.5-1.1,0.7-1.7,0.7s-1.2-0.2-1.7-0.7
						c-0.5-0.5-0.7-1-0.7-1.7v-4.8h0.9v4.8c0,0.4,0.1,0.8,0.4,1.1c0.3,0.3,0.6,0.4,1.1,0.4c0.4,0,0.8-0.1,1.1-0.4s0.4-0.6,0.4-1.1
						L436.3,73.9L436.3,73.9z"/>
					<path class="st4" d="M438.6,73.9h0.8l3,5.1v-5.1h0.9v7.2h-0.8l-3-5.2v5.2h-0.9L438.6,73.9L438.6,73.9z"/>
					<path class="st4" d="M449.9,74.8v6.2h-0.9v-6.2h-1.7v-0.9h4.3v0.9H449.9z"/>
					<path class="st4" d="M456.3,73.9v0.9h-2.9V77h2.9v0.9h-2.9v2.2h2.9v0.9h-3.9v-7.2L456.3,73.9L456.3,73.9z"/>
					<path class="st4" d="M459.3,78.8h-0.8v2.3h-0.9v-7.2h2c0.6,0.1,1.1,0.3,1.5,0.7c0.5,0.5,0.7,1.1,0.7,1.7c0,0.7-0.2,1.2-0.7,1.7
						c-0.3,0.3-0.6,0.5-0.8,0.6l1.6,2.4h-1.1L459.3,78.8z M458.4,74.8v3h0.8c0.4,0,0.8-0.1,1.1-0.4c0.3-0.3,0.4-0.6,0.4-1.1
						c0-0.4-0.1-0.8-0.4-1.1c-0.3-0.3-0.6-0.4-1.1-0.4L458.4,74.8L458.4,74.8z"/>
					<path class="st4" d="M468.3,79.4L469,80c-0.8,0.8-1.7,1.2-2.7,1.2c-1,0-1.9-0.4-2.6-1.1s-1.1-1.6-1.1-2.6c0-1,0.4-1.9,1.1-2.6
						c0.7-0.7,1.6-1.1,2.6-1.1c0.9,0,1.8,0.4,2.7,1.2l-0.7,0.6c-0.6-0.6-1.3-0.8-2-0.8c-0.7,0-1.4,0.3-1.9,0.8
						c-0.5,0.5-0.8,1.2-0.8,1.9c0,0.8,0.3,1.4,0.8,1.9c0.5,0.5,1.2,0.8,1.9,0.8C467,80.2,467.6,79.9,468.3,79.4z"/>
					<path class="st4" d="M474,73.9v0.9H471V77h2.9v0.9H471v2.2h2.9v0.9h-3.9v-7.2L474,73.9L474,73.9z"/>
					<path class="st4" d="M477,78.8h-0.8v2.3h-0.9v-7.2h2c0.6,0.1,1.1,0.3,1.5,0.7c0.5,0.5,0.7,1.1,0.7,1.7c0,0.7-0.2,1.2-0.7,1.7
						c-0.3,0.3-0.6,0.5-0.8,0.6l1.6,2.4h-1.1L477,78.8z M476.1,74.8v3h0.8c0.4,0,0.8-0.1,1.1-0.4c0.3-0.3,0.4-0.6,0.4-1.1
						c0-0.4-0.1-0.8-0.4-1.1c-0.3-0.3-0.6-0.4-1.1-0.4L476.1,74.8L476.1,74.8z"/>
					<path class="st4" d="M486.6,74.9c0.7,0.7,1.1,1.6,1.1,2.6c0,1-0.4,1.9-1.1,2.6c-0.7,0.7-1.6,1.1-2.6,1.1c-1,0-1.9-0.4-2.6-1.1
						c-0.7-0.7-1.1-1.6-1.1-2.6c0-1,0.4-1.9,1.1-2.6s1.6-1.1,2.6-1.1C485,73.8,485.8,74.2,486.6,74.9z M484,74.7
						c-0.8,0-1.4,0.3-1.9,0.8c-0.5,0.5-0.8,1.2-0.8,1.9s0.3,1.4,0.8,1.9c0.5,0.5,1.2,0.8,1.9,0.8c0.8,0,1.4-0.3,1.9-0.8
						c0.5-0.5,0.8-1.2,0.8-1.9s-0.3-1.4-0.8-1.9C485.4,75,484.7,74.7,484,74.7z"/>
					<path class="st4" d="M377.3,88.4c-0.5-0.2-0.9-0.4-1.2-0.7c-0.3-0.3-0.5-0.7-0.5-1.2c0-0.5,0.2-0.8,0.5-1.2
						c0.3-0.3,0.7-0.5,1.2-0.5c0.5,0,0.9,0.2,1.2,0.5c0.2,0.2,0.3,0.5,0.5,0.9l-0.8,0.3c-0.1-0.3-0.2-0.5-0.3-0.5
						c-0.1-0.1-0.3-0.2-0.5-0.2c-0.2,0-0.4,0.1-0.5,0.2c-0.1,0.1-0.2,0.3-0.2,0.5c0,0.2,0.1,0.4,0.2,0.5c0.2,0.2,0.4,0.3,0.7,0.4
						c0.6,0.2,1,0.5,1.4,0.9c0.4,0.4,0.7,1,0.7,1.6s-0.2,1.1-0.7,1.6s-1,0.7-1.6,0.7c-0.6,0-1.1-0.2-1.6-0.7
						c-0.4-0.3-0.6-0.8-0.7-1.4l0.9-0.3c0.1,0.5,0.2,0.9,0.4,1.1c0.3,0.3,0.6,0.4,0.9,0.4s0.7-0.1,0.9-0.4c0.3-0.3,0.4-0.6,0.4-0.9
						c0-0.4-0.1-0.7-0.4-0.9C377.9,88.7,377.6,88.5,377.3,88.4z"/>
					<path class="st4" d="M381.4,84.9v7.2h-0.9v-7.2H381.4z"/>
					<path class="st4" d="M382.8,84.9h0.8l3,5.1v-5.1h0.9v7.2h-0.8l-3-5.2v5.2h-0.9L382.8,84.9L382.8,84.9z"/>
					<path class="st4" d="M393,89.8v2.3h-0.9v-7.2h2c0.6,0.1,1.1,0.3,1.5,0.7c0.5,0.5,0.7,1.1,0.7,1.7c0,0.7-0.2,1.2-0.7,1.7
						c-0.5,0.5-1,0.7-1.7,0.7L393,89.8L393,89.8z M393,85.8v3h0.8c0.4,0,0.8-0.1,1.1-0.4c0.3-0.3,0.4-0.6,0.4-1.1
						c0-0.4-0.1-0.8-0.4-1.1c-0.3-0.3-0.6-0.4-1.1-0.4L393,85.8L393,85.8z"/>
					<path class="st4" d="M399.3,84.9l2.6,7.2h-1l-0.9-2.5h-1.9l-0.9,2.5h-1l2.6-7.2H399.3z M399.6,88.6l-0.6-1.7l-0.6,1.7H399.6z"
						/>
					<path class="st4" d="M408.7,91.1c-0.7,0.7-1.6,1.1-2.5,1.1c-1,0-1.9-0.4-2.6-1.1c-0.7-0.7-1.1-1.6-1.1-2.6c0-1,0.4-1.9,1.1-2.6
						s1.6-1.1,2.6-1.1c0.9,0,1.8,0.4,2.7,1.2l-0.7,0.6c-0.6-0.6-1.3-0.8-2-0.8c-0.7,0-1.4,0.3-1.9,0.8c-0.5,0.5-0.8,1.2-0.8,1.9
						c0,0.8,0.3,1.4,0.8,1.9c0.5,0.5,1.2,0.8,1.9,0.8c0.6,0,1.2-0.2,1.6-0.5v-2.2h0.9L408.7,91.1L408.7,91.1z"/>
					<path class="st4" d="M412.7,84.9l2.6,7.2h-1l-0.9-2.5h-1.9l-0.9,2.5h-1l2.6-7.2H412.7z M413.1,88.6l-0.6-1.7l-0.6,1.7H413.1z"
						/>
					<path class="st4" d="M418,89.8h-0.8v2.3h-0.9v-7.2h2c0.6,0.1,1.1,0.3,1.5,0.7c0.5,0.5,0.7,1.1,0.7,1.7c0,0.7-0.2,1.2-0.7,1.7
						c-0.3,0.3-0.6,0.5-0.8,0.6l1.6,2.4h-1.1L418,89.8z M417.1,85.8v3h0.8c0.4,0,0.8-0.1,1.1-0.4c0.3-0.3,0.4-0.6,0.4-1.1
						c0-0.4-0.1-0.8-0.4-1.1c-0.3-0.3-0.6-0.4-1.1-0.4L417.1,85.8L417.1,85.8z"/>
					<path class="st4" d="M427.2,84.9l2.6,7.2h-1l-0.9-2.5H426l-0.9,2.5h-1l2.6-7.2H427.2z M427.5,88.6l-0.6-1.7l-0.6,1.7H427.5z"/>
					<path class="st4" d="M432.5,89.8h-0.8v2.3h-0.9v-7.2h2c0.6,0.1,1.1,0.3,1.5,0.7c0.5,0.5,0.7,1.1,0.7,1.7c0,0.7-0.2,1.2-0.7,1.7
						c-0.3,0.3-0.6,0.5-0.8,0.6l1.6,2.4h-1.1L432.5,89.8z M431.6,85.8v3h0.8c0.4,0,0.8-0.1,1.1-0.4c0.3-0.3,0.4-0.6,0.4-1.1
						c0-0.4-0.1-0.8-0.4-1.1c-0.3-0.3-0.6-0.4-1.1-0.4L431.6,85.8L431.6,85.8z"/>
					<path class="st4" d="M437.7,89.8h-0.8v2.3h-0.9v-7.2h2c0.6,0.1,1.1,0.3,1.5,0.7c0.5,0.5,0.7,1.1,0.7,1.7c0,0.7-0.2,1.2-0.7,1.7
						c-0.3,0.3-0.6,0.5-0.8,0.6l1.6,2.4h-1.1L437.7,89.8z M436.8,85.8v3h0.8c0.4,0,0.8-0.1,1.1-0.4c0.3-0.3,0.4-0.6,0.4-1.1
						c0-0.4-0.1-0.8-0.4-1.1c-0.3-0.3-0.6-0.4-1.1-0.4L436.8,85.8L436.8,85.8z"/>
					<path class="st4" d="M442.2,84.9v7.2h-0.9v-7.2H442.2z"/>
					<path class="st4" d="M447.5,84.9v0.9h-2.9V88h2.9v0.9h-2.9v2.2h2.9v0.9h-3.9v-7.2L447.5,84.9L447.5,84.9z"/>
					<path class="st4" d="M448.7,84.9h0.8l3,5.1v-5.1h0.9v7.2h-0.8l-3-5.2v5.2h-0.9L448.7,84.9L448.7,84.9z"/>
					<path class="st4" d="M455.4,84.9c1.2,0,2.1,0.3,2.7,1c0.7,0.7,1.1,1.6,1.1,2.6c0,1-0.4,1.9-1.1,2.6c-0.6,0.7-1.6,1-2.7,1h-0.7
						v-7.2C454.8,84.9,455.4,84.9,455.4,84.9z M455.7,85.8v5.3c0.7,0,1.3-0.2,1.8-0.7c0.5-0.5,0.8-1.2,0.8-1.9
						c0-0.8-0.3-1.4-0.8-1.9C457,86.1,456.4,85.8,455.7,85.8z"/>
					<path class="st4" d="M466.5,85.9c0.7,0.7,1.1,1.6,1.1,2.6c0,1-0.4,1.9-1.1,2.6s-1.6,1.1-2.6,1.1s-1.9-0.4-2.6-1.1
						s-1.1-1.6-1.1-2.6c0-1,0.4-1.9,1.1-2.6s1.6-1.1,2.6-1.1C464.9,84.8,465.8,85.2,466.5,85.9z M463.9,85.7c-0.8,0-1.4,0.3-1.9,0.8
						c-0.5,0.5-0.8,1.2-0.8,1.9s0.3,1.4,0.8,1.9c0.5,0.5,1.2,0.8,1.9,0.8c0.8,0,1.4-0.3,1.9-0.8c0.5-0.5,0.8-1.2,0.8-1.9
						s-0.3-1.4-0.8-1.9S464.7,85.7,463.9,85.7z"/>
				</g>
			</g>
		</g>
		<g>
			<g>
				<g class="st2">
					<path class="st3" d="M286.2,15.8v2h-6.4l0-1.7c1.9-3.1,3-5,3.4-5.7c0.4-0.7,0.5-1.3,0.5-1.7c0-0.3-0.1-0.6-0.2-0.7
						c-0.1-0.2-0.3-0.2-0.5-0.2s-0.4,0.1-0.5,0.3c-0.1,0.2-0.2,0.5-0.2,1v1.1h-2.6V9.7c0-0.6,0-1.2,0.1-1.5c0.1-0.4,0.2-0.7,0.5-1.1
						c0.3-0.4,0.6-0.6,1-0.8c0.4-0.2,0.9-0.3,1.5-0.3c1.1,0,2,0.3,2.6,0.9c0.6,0.6,0.9,1.3,0.9,2.2c0,0.7-0.2,1.4-0.5,2.1
						c-0.3,0.7-1.3,2.3-2.9,4.7H286.2z"/>
					<path class="st3" d="M292.5,6.2v11.6h-2.9v-6.2c0-0.9,0-1.4-0.1-1.6s-0.2-0.3-0.4-0.4c-0.2-0.1-0.6-0.1-1.3-0.1h-0.3V8.1
						c1.4-0.3,2.5-0.9,3.2-1.9C290.8,6.2,292.5,6.2,292.5,6.2z"/>
					<path class="st3" d="M298.3,8.2v2c0,0.5,0,0.9-0.1,1.2c-0.1,0.3-0.3,0.5-0.6,0.7c-0.3,0.2-0.7,0.3-1.3,0.3
						c-0.6,0-1.1-0.1-1.4-0.3s-0.5-0.4-0.6-0.7c-0.1-0.3-0.2-0.6-0.2-1.1V8.2c0-0.6,0.1-1,0.2-1.3c0.1-0.3,0.3-0.5,0.7-0.7
						c0.3-0.2,0.7-0.3,1.2-0.3c0.5,0,1,0.1,1.3,0.3c0.3,0.2,0.6,0.4,0.7,0.7C298.3,7.2,298.3,7.6,298.3,8.2z M296.5,7.7
						c0-0.3,0-0.5,0-0.6c0-0.1-0.1-0.1-0.3-0.1c-0.1,0-0.2,0-0.2,0.1c0,0.1-0.1,0.3-0.1,0.6v2.9c0,0.3,0,0.5,0,0.6
						c0,0.1,0.1,0.1,0.3,0.1c0.1,0,0.2,0,0.2-0.1c0-0.1,0.1-0.3,0.1-0.5L296.5,7.7L296.5,7.7z M301.7,6l-4.5,12h-1.1l4.5-12
						C300.6,6,301.7,6,301.7,6z M303.7,13.8v2c0,0.5,0,0.9-0.1,1.2s-0.3,0.5-0.6,0.7c-0.3,0.2-0.7,0.3-1.3,0.3
						c-0.6,0-1.1-0.1-1.4-0.3c-0.3-0.2-0.5-0.4-0.7-0.7c-0.1-0.3-0.2-0.6-0.2-1.1v-2.1c0-0.6,0.1-1,0.2-1.3c0.1-0.3,0.3-0.5,0.7-0.7
						c0.3-0.2,0.7-0.3,1.2-0.3c0.5,0,1,0.1,1.3,0.3c0.3,0.2,0.6,0.4,0.7,0.7C303.7,12.8,303.7,13.2,303.7,13.8z M301.9,13.3
						c0-0.3,0-0.5,0-0.6c0-0.1-0.1-0.1-0.3-0.1c-0.1,0-0.2,0-0.2,0.1s-0.1,0.3-0.1,0.6v2.9c0,0.3,0,0.5,0,0.6c0,0.1,0.1,0.1,0.3,0.1
						c0.1,0,0.2,0,0.2-0.1c0-0.1,0-0.3,0-0.5V13.3z"/>
				</g>
			</g>
		</g>
		<g>
			<g>
				<g class="st2">
					<path class="st4" d="M282.3,28.7l-2.6-7.2h1l1.9,5.1l1.9-5.1h1l-2.6,7.2H282.3z"/>
					<path class="st4" d="M287.3,21.5v7.2h-0.9v-7.2H287.3z"/>
					<path class="st4" d="M290.9,28.7l-2.6-7.2h1l1.9,5.1l1.9-5.1h1l-2.6,7.2H290.9z"/>
					<path class="st4" d="M295.9,21.5v7.2H295v-7.2H295.9z"/>
					<path class="st4" d="M301.2,21.5v0.9h-2.9v2.2h2.9v0.9h-2.9v2.2h2.9v0.9h-3.9v-7.2L301.2,21.5L301.2,21.5z"/>
					<path class="st4" d="M302.4,21.5h0.8l3,5.1v-5.1h0.9v7.2h-0.8l-3-5.2v5.2h-0.9L302.4,21.5L302.4,21.5z"/>
					<path class="st4" d="M309.2,21.5c1.2,0,2.1,0.3,2.7,1c0.7,0.7,1.1,1.6,1.1,2.6c0,1-0.4,1.9-1.1,2.6c-0.6,0.7-1.6,1-2.7,1h-0.7
						v-7.2H309.2z M309.4,22.5v5.3c0.7,0,1.3-0.2,1.8-0.7c0.5-0.5,0.8-1.2,0.8-1.9c0-0.8-0.3-1.4-0.8-1.9
						C310.8,22.7,310.2,22.5,309.4,22.5z"/>
					<path class="st4" d="M316.5,21.5l2.6,7.2h-1l-0.9-2.5h-1.9l-0.9,2.5h-1l2.6-7.2H316.5z M316.9,25.2l-0.6-1.7l-0.6,1.7H316.9z"
						/>
					<path class="st4" d="M323.9,21.5c1.2,0,2.1,0.3,2.7,1c0.7,0.7,1.1,1.6,1.1,2.6c0,1-0.4,1.9-1.1,2.6c-0.6,0.7-1.6,1-2.7,1h-0.7
						v-7.2H323.9z M324.1,22.5v5.3c0.7,0,1.3-0.2,1.8-0.7c0.5-0.5,0.8-1.2,0.8-1.9c0-0.8-0.3-1.4-0.8-1.9
						C325.5,22.7,324.9,22.5,324.1,22.5z"/>
					<path class="st4" d="M332.6,21.5v0.9h-2.9v2.2h2.9v0.9h-2.9v2.2h2.9v0.9h-3.9v-7.2L332.6,21.5L332.6,21.5z"/>
					<path class="st4" d="M341,21.5h0.9v5c-0.1,0.6-0.3,1.1-0.7,1.5c-0.5,0.5-1.1,0.7-1.7,0.7s-1.2-0.2-1.7-0.7
						c-0.5-0.5-0.7-1-0.7-1.7v-4.8h0.9v4.8c0,0.4,0.1,0.8,0.4,1.1c0.3,0.3,0.6,0.4,1.1,0.4c0.4,0,0.8-0.1,1.1-0.4s0.4-0.6,0.4-1.1
						L341,21.5L341,21.5z"/>
					<path class="st4" d="M343.3,21.5h0.8l3,5.1v-5.1h0.9v7.2h-0.8l-3-5.2v5.2h-0.9L343.3,21.5L343.3,21.5z"/>
					<path class="st4" d="M355.9,21.5v0.9h-2.5v2.2h2.5v0.9h-2.5v3.1h-0.9v-7.2H355.9z"/>
					<path class="st4" d="M359.4,21.5l2.6,7.2h-1l-0.9-2.5h-1.9l-0.9,2.5h-1l2.6-7.2H359.4z M359.8,25.2l-0.6-1.7l-0.6,1.7H359.8z"
						/>
					<path class="st4" d="M364,21.5l2.3,4l2.3-4h0.8v7.2h-0.9v-5.2l-2.2,3.9l-2.2-3.9v5.2h-0.9v-7.2H364z"/>
					<path class="st4" d="M372,21.5v7.2h-0.9v-7.2H372z"/>
					<path class="st4" d="M373.5,28.7v-7.2h0.9v6.2h2.6v0.9L373.5,28.7L373.5,28.7z"/>
					<path class="st4" d="M379,21.5v7.2h-0.9v-7.2H379z"/>
					<path class="st4" d="M383.1,21.5l2.6,7.2h-1l-0.9-2.5h-1.9l-0.9,2.5h-1l2.6-7.2H383.1z M383.5,25.2l-0.6-1.7l-0.6,1.7H383.5z"
						/>
					<path class="st4" d="M388.4,26.4h-0.8v2.3h-0.9v-7.2h2c0.6,0.1,1.1,0.3,1.5,0.7c0.5,0.5,0.7,1,0.7,1.7c0,0.7-0.2,1.2-0.7,1.7
						c-0.3,0.3-0.6,0.5-0.8,0.6l1.6,2.4h-1.1L388.4,26.4z M387.6,22.5v3h0.8c0.4,0,0.8-0.1,1.1-0.4c0.3-0.3,0.4-0.6,0.4-1.1
						c0-0.4-0.1-0.8-0.4-1.1c-0.3-0.3-0.6-0.4-1.1-0.4L387.6,22.5L387.6,22.5z"/>
					<path class="st4" d="M282,36c-0.5-0.2-0.9-0.4-1.2-0.7c-0.3-0.3-0.5-0.7-0.5-1.2c0-0.5,0.2-0.8,0.5-1.2
						c0.3-0.3,0.7-0.5,1.2-0.5c0.5,0,0.9,0.2,1.2,0.5c0.2,0.2,0.3,0.5,0.5,0.9l-0.8,0.3c-0.1-0.3-0.2-0.5-0.3-0.5
						c-0.1-0.1-0.3-0.2-0.5-0.2c-0.2,0-0.4,0.1-0.5,0.2c-0.1,0.1-0.2,0.3-0.2,0.5c0,0.2,0.1,0.4,0.2,0.5c0.2,0.2,0.4,0.3,0.7,0.4
						c0.6,0.2,1,0.5,1.4,0.9c0.4,0.4,0.7,1,0.7,1.6s-0.2,1.1-0.7,1.6s-1,0.7-1.6,0.7c-0.6,0-1.1-0.2-1.6-0.7
						c-0.3-0.3-0.6-0.8-0.7-1.4l0.9-0.3c0.1,0.5,0.2,0.9,0.4,1.1c0.3,0.3,0.6,0.4,0.9,0.4s0.7-0.1,0.9-0.4c0.3-0.3,0.4-0.6,0.4-0.9
						c0-0.4-0.1-0.7-0.4-0.9C282.6,36.4,282.3,36.2,282,36z"/>
					<path class="st4" d="M286.1,32.5v7.2h-0.9v-7.2H286.1z"/>
					<path class="st4" d="M287.5,32.5h0.8l3,5.1v-5.1h0.9v7.2h-0.8l-3-5.2v5.2h-0.9L287.5,32.5L287.5,32.5z"/>
					<path class="st4" d="M297.7,37.4v2.3h-0.9v-7.2h2c0.6,0.1,1.1,0.3,1.5,0.7c0.5,0.5,0.7,1,0.7,1.7c0,0.7-0.2,1.2-0.7,1.7
						c-0.5,0.5-1,0.7-1.7,0.7L297.7,37.4L297.7,37.4z M297.7,33.5v3h0.8c0.4,0,0.8-0.1,1.1-0.4c0.3-0.3,0.4-0.6,0.4-1.1
						c0-0.4-0.1-0.8-0.4-1.1c-0.3-0.3-0.6-0.4-1.1-0.4L297.7,33.5L297.7,33.5z"/>
					<path class="st4" d="M303.9,32.5l2.6,7.2h-1l-0.9-2.5h-1.9l-0.9,2.5h-1l2.6-7.2H303.9z M304.3,36.2l-0.6-1.7l-0.6,1.7H304.3z"
						/>
					<path class="st4" d="M313.3,38.7c-0.7,0.7-1.6,1.1-2.5,1.1c-1,0-1.9-0.4-2.6-1.1s-1.1-1.6-1.1-2.6c0-1,0.4-1.9,1.1-2.6
						s1.6-1.1,2.6-1.1c0.9,0,1.8,0.4,2.7,1.2l-0.7,0.6c-0.6-0.6-1.3-0.8-2-0.8c-0.7,0-1.4,0.3-1.9,0.8c-0.5,0.5-0.8,1.2-0.8,1.9
						c0,0.8,0.3,1.4,0.8,1.9c0.5,0.5,1.2,0.8,1.9,0.8c0.6,0,1.2-0.2,1.6-0.5v-2.2h0.9L313.3,38.7L313.3,38.7z"/>
					<path class="st4" d="M317.4,32.5l2.6,7.2h-1l-0.9-2.5h-1.9l-0.9,2.5h-1l2.6-7.2H317.4z M317.7,36.2l-0.6-1.7l-0.6,1.7H317.7z"
						/>
					<path class="st4" d="M322.7,37.4h-0.8v2.3h-0.9v-7.2h2c0.6,0.1,1.1,0.3,1.5,0.7c0.5,0.5,0.7,1,0.7,1.7c0,0.7-0.2,1.2-0.7,1.7
						c-0.3,0.3-0.6,0.5-0.8,0.6l1.6,2.4h-1.1L322.7,37.4z M321.8,33.5v3h0.8c0.4,0,0.8-0.1,1.1-0.4c0.3-0.3,0.4-0.6,0.4-1.1
						c0-0.4-0.1-0.8-0.4-1.1c-0.3-0.3-0.6-0.4-1.1-0.4L321.8,33.5L321.8,33.5z"/>
					<path class="st4" d="M331.9,32.5l2.6,7.2h-1l-0.9-2.5h-1.9l-0.9,2.5h-1l2.6-7.2H331.9z M332.2,36.2l-0.6-1.7l-0.6,1.7H332.2z"
						/>
					<path class="st4" d="M337.1,37.4h-0.8v2.3h-0.9v-7.2h2c0.6,0.1,1.1,0.3,1.5,0.7c0.5,0.5,0.7,1,0.7,1.7c0,0.7-0.2,1.2-0.7,1.7
						c-0.3,0.3-0.6,0.5-0.8,0.6l1.6,2.4h-1.1L337.1,37.4z M336.3,33.5v3h0.8c0.4,0,0.8-0.1,1.1-0.4c0.3-0.3,0.4-0.6,0.4-1.1
						c0-0.4-0.1-0.8-0.4-1.1c-0.3-0.3-0.6-0.4-1.1-0.4L336.3,33.5L336.3,33.5z"/>
					<path class="st4" d="M342.4,37.4h-0.8v2.3h-0.9v-7.2h2c0.6,0.1,1.1,0.3,1.5,0.7c0.5,0.5,0.7,1,0.7,1.7c0,0.7-0.2,1.2-0.7,1.7
						c-0.3,0.3-0.6,0.5-0.8,0.6l1.6,2.4h-1.1L342.4,37.4z M341.5,33.5v3h0.8c0.4,0,0.8-0.1,1.1-0.4c0.3-0.3,0.4-0.6,0.4-1.1
						c0-0.4-0.1-0.8-0.4-1.1c-0.3-0.3-0.6-0.4-1.1-0.4L341.5,33.5L341.5,33.5z"/>
					<path class="st4" d="M346.8,32.5v7.2h-0.9v-7.2H346.8z"/>
					<path class="st4" d="M352.1,32.5v0.9h-2.9v2.2h2.9v0.9h-2.9v2.2h2.9v0.9h-3.9v-7.2L352.1,32.5L352.1,32.5z"/>
					<path class="st4" d="M353.4,32.5h0.8l3,5.1v-5.1h0.9v7.2h-0.8l-3-5.2v5.2h-0.9L353.4,32.5L353.4,32.5z"/>
					<path class="st4" d="M360.1,32.5c1.2,0,2.1,0.3,2.7,1c0.7,0.7,1.1,1.6,1.1,2.6c0,1-0.4,1.9-1.1,2.6c-0.6,0.7-1.6,1-2.7,1h-0.7
						v-7.2C359.4,32.5,360.1,32.5,360.1,32.5z M360.4,33.5v5.3c0.7,0,1.3-0.2,1.8-0.7c0.5-0.5,0.8-1.2,0.8-1.9
						c0-0.8-0.3-1.4-0.8-1.9C361.7,33.7,361.1,33.5,360.4,33.5z"/>
					<path class="st4" d="M371.2,33.5c0.7,0.7,1.1,1.6,1.1,2.6c0,1-0.4,1.9-1.1,2.6c-0.7,0.7-1.6,1.1-2.6,1.1s-1.9-0.4-2.6-1.1
						s-1.1-1.6-1.1-2.6c0-1,0.4-1.9,1.1-2.6s1.6-1.1,2.6-1.1C369.6,32.5,370.5,32.8,371.2,33.5z M368.6,33.4c-0.8,0-1.4,0.3-1.9,0.8
						s-0.8,1.2-0.8,1.9s0.3,1.4,0.8,1.9c0.5,0.5,1.2,0.8,1.9,0.8c0.8,0,1.4-0.3,1.9-0.8c0.5-0.5,0.8-1.2,0.8-1.9
						c0-0.8-0.3-1.4-0.8-1.9C370,33.7,369.3,33.4,368.6,33.4z"/>
				</g>
			</g>
		</g>
		<g>
			<g>
				<g class="st2">
					<path class="st3" d="M172.5,58.1c0.4,0.1,0.8,0.4,1,0.7s0.3,1.1,0.3,2.4c0,0.9-0.1,1.6-0.3,2.1c-0.2,0.5-0.6,0.9-1.1,1.2
						s-1.2,0.4-2,0.4c-0.9,0-1.6-0.2-2.2-0.5c-0.5-0.3-0.9-0.7-1-1.1c-0.2-0.4-0.2-1.2-0.2-2.3v-0.9h2.9V62c0,0.5,0,0.8,0.1,1
						s0.2,0.2,0.4,0.2c0.2,0,0.4-0.1,0.4-0.3s0.1-0.6,0.1-1.3v-0.8c0-0.4-0.1-0.8-0.1-1c-0.1-0.2-0.2-0.3-0.4-0.4s-0.6-0.1-1.1-0.1
						v-1.7c0.7,0,1.1,0,1.3-0.1c0.2-0.1,0.3-0.2,0.4-0.3c0.1-0.2,0.1-0.5,0.1-0.8v-0.6c0-0.4,0-0.7-0.1-0.8
						c-0.1-0.1-0.2-0.2-0.4-0.2c-0.2,0-0.3,0.1-0.4,0.2c-0.1,0.1-0.1,0.4-0.1,0.9v1H167v-1c0-1.1,0.3-1.9,0.8-2.2
						c0.5-0.4,1.3-0.6,2.4-0.6c1.4,0,2.3,0.3,2.8,0.8c0.5,0.5,0.7,1.3,0.7,2.2c0,0.6-0.1,1.1-0.3,1.4
						C173.2,57.6,172.9,57.9,172.5,58.1z"/>
					<path class="st3" d="M179.5,55.1v2c0,0.5,0,0.9-0.1,1.2c-0.1,0.3-0.3,0.5-0.6,0.7c-0.3,0.2-0.7,0.3-1.3,0.3
						c-0.6,0-1.1-0.1-1.4-0.3c-0.3-0.2-0.5-0.4-0.6-0.7s-0.2-0.6-0.2-1.1v-2.1c0-0.6,0.1-1,0.2-1.3c0.1-0.3,0.3-0.5,0.7-0.7
						s0.7-0.3,1.2-0.3c0.5,0,1,0.1,1.3,0.3c0.3,0.2,0.6,0.4,0.7,0.7C179.5,54.1,179.5,54.5,179.5,55.1z M177.7,54.6
						c0-0.3,0-0.5,0-0.6c0-0.1-0.1-0.1-0.3-0.1c-0.1,0-0.2,0-0.2,0.1s-0.1,0.3-0.1,0.6v2.9c0,0.3,0,0.5,0.1,0.6
						c0,0.1,0.1,0.1,0.3,0.1c0.1,0,0.2,0,0.2-0.1c0-0.1,0.1-0.3,0.1-0.5L177.7,54.6C177.7,54.6,177.7,54.6,177.7,54.6z M182.9,52.9
						l-4.5,12h-1.1l4.5-12C181.8,52.9,182.9,52.9,182.9,52.9z M184.9,60.7v2c0,0.5,0,0.9-0.1,1.2c-0.1,0.3-0.3,0.5-0.6,0.7
						c-0.3,0.2-0.7,0.3-1.3,0.3c-0.6,0-1.1-0.1-1.4-0.3c-0.3-0.2-0.5-0.4-0.7-0.7c-0.1-0.3-0.2-0.6-0.2-1.1v-2.1
						c0-0.6,0.1-1,0.2-1.3c0.1-0.3,0.3-0.5,0.7-0.7c0.3-0.2,0.7-0.3,1.2-0.3c0.5,0,1,0.1,1.3,0.3c0.3,0.2,0.6,0.4,0.7,0.7
						C184.9,59.7,184.9,60.1,184.9,60.7z M183.1,60.2c0-0.3,0-0.5,0-0.6c0-0.1-0.1-0.1-0.3-0.1c-0.1,0-0.2,0-0.2,0.1
						s-0.1,0.3-0.1,0.6v2.9c0,0.3,0,0.5,0.1,0.6c0,0.1,0.1,0.1,0.3,0.1c0.1,0,0.2,0,0.2-0.1c0-0.1,0.1-0.3,0.1-0.5V60.2z"/>
				</g>
			</g>
		</g>
		<g>
			<g>
				<g class="st2">
					<path class="st4" d="M168.5,69.4c0.7,0.7,1.1,1.6,1.1,2.6c0,1-0.4,1.9-1.1,2.6c-0.7,0.7-1.6,1.1-2.6,1.1s-1.9-0.4-2.6-1.1
						c-0.7-0.7-1.1-1.6-1.1-2.6c0-1,0.4-1.9,1.1-2.6s1.6-1.1,2.6-1.1C166.9,68.4,167.7,68.7,168.5,69.4z M165.9,69.3
						c-0.8,0-1.4,0.3-1.9,0.8c-0.5,0.5-0.8,1.2-0.8,1.9s0.3,1.4,0.8,1.9c0.5,0.5,1.2,0.8,1.9,0.8c0.8,0,1.4-0.3,1.9-0.8
						c0.5-0.5,0.8-1.2,0.8-1.9s-0.3-1.4-0.8-1.9C167.3,69.6,166.6,69.3,165.9,69.3z"/>
					<path class="st4" d="M172.6,69.4v6.2h-0.9v-6.2H170v-0.9h4.3v0.9H172.6z"/>
					<path class="st4" d="M176.9,73.3h-0.8v2.3h-0.9v-7.2h2c0.6,0.1,1.1,0.3,1.5,0.7c0.5,0.5,0.7,1.1,0.7,1.7c0,0.7-0.2,1.2-0.7,1.7
						c-0.3,0.3-0.6,0.5-0.8,0.6l1.6,2.4h-1.1L176.9,73.3z M176.1,69.4v3h0.8c0.4,0,0.8-0.1,1.1-0.4c0.3-0.3,0.4-0.6,0.4-1.1
						c0-0.4-0.1-0.8-0.4-1.1c-0.3-0.3-0.6-0.4-1.1-0.4L176.1,69.4L176.1,69.4z"/>
					<path class="st4" d="M183.1,68.5l2.6,7.2h-1l-0.9-2.5h-1.9l-0.9,2.5h-1l2.6-7.2H183.1z M183.4,72.2l-0.6-1.7l-0.6,1.7H183.4z"
						/>
				</g>
			</g>
		</g>
		<g>
			<g>
				<g class="st2">
					<path class="st3" d="M122.4,160.6v2H116l0-1.7c1.9-3.1,3-5,3.4-5.7c0.4-0.7,0.5-1.3,0.5-1.7c0-0.3-0.1-0.6-0.2-0.7
						s-0.3-0.2-0.5-0.2c-0.2,0-0.4,0.1-0.5,0.3c-0.1,0.2-0.2,0.5-0.2,1v1.1H116v-0.4c0-0.6,0-1.2,0.1-1.5c0.1-0.4,0.2-0.7,0.5-1.1
						c0.3-0.4,0.6-0.6,1-0.8s0.9-0.3,1.5-0.3c1.2,0,2,0.3,2.6,0.9c0.6,0.6,0.9,1.3,0.9,2.2c0,0.7-0.2,1.4-0.5,2.1
						c-0.3,0.7-1.3,2.3-2.9,4.7L122.4,160.6L122.4,160.6z"/>
					<path class="st3" d="M130.5,151v1.9h-3.6v2c0.4-0.5,1-0.8,1.7-0.8c0.8,0,1.4,0.2,1.8,0.7s0.6,1.3,0.6,2.6v1.7
						c0,0.8,0,1.4-0.1,1.8s-0.2,0.7-0.5,1.1c-0.3,0.3-0.6,0.6-1.1,0.8c-0.5,0.2-1,0.3-1.7,0.3c-0.7,0-1.4-0.1-2-0.4
						c-0.6-0.3-1-0.6-1.2-1.2c-0.2-0.5-0.4-1.3-0.4-2.4v-0.6h2.9v0.7c0,0.7,0,1.3,0.1,1.6c0.1,0.3,0.2,0.5,0.5,0.5
						c0.1,0,0.3,0,0.3-0.1s0.1-0.2,0.1-0.3c0-0.1,0-0.6,0-1.4v-2.3c0-0.4,0-0.7-0.1-0.9c-0.1-0.2-0.2-0.2-0.5-0.2
						c-0.1,0-0.2,0-0.3,0.1s-0.1,0.2-0.2,0.3c0,0.1,0,0.3,0,0.6h-2.9l0.1-5.8L130.5,151L130.5,151z"/>
					<path class="st3" d="M136.8,153v2c0,0.5,0,0.9-0.1,1.2c-0.1,0.3-0.3,0.5-0.6,0.7c-0.3,0.2-0.7,0.3-1.3,0.3
						c-0.6,0-1.1-0.1-1.4-0.3s-0.5-0.4-0.6-0.7s-0.2-0.6-0.2-1.1V153c0-0.6,0.1-1,0.2-1.3c0.1-0.3,0.3-0.5,0.7-0.7s0.7-0.3,1.2-0.3
						c0.5,0,1,0.1,1.3,0.3c0.3,0.2,0.6,0.4,0.7,0.7C136.7,152,136.8,152.4,136.8,153z M134.9,152.5c0-0.3,0-0.5,0-0.6
						c0-0.1-0.1-0.1-0.3-0.1c-0.1,0-0.2,0-0.2,0.1s-0.1,0.3-0.1,0.6v2.9c0,0.3,0,0.5,0.1,0.6c0,0.1,0.1,0.1,0.3,0.1
						c0.1,0,0.2,0,0.2-0.1c0-0.1,0.1-0.3,0.1-0.5L134.9,152.5L134.9,152.5L134.9,152.5z M140.2,150.8l-4.5,12h-1.1l4.5-12H140.2z
						 M142.2,158.6v2c0,0.5,0,0.9-0.1,1.2s-0.3,0.5-0.6,0.7c-0.3,0.2-0.7,0.3-1.3,0.3c-0.6,0-1.1-0.1-1.4-0.3
						c-0.3-0.2-0.5-0.4-0.7-0.7c-0.1-0.3-0.2-0.6-0.2-1.1v-2.1c0-0.6,0.1-1,0.2-1.3c0.1-0.3,0.3-0.5,0.7-0.7
						c0.3-0.2,0.7-0.3,1.2-0.3c0.5,0,1,0.1,1.3,0.3c0.3,0.2,0.6,0.4,0.7,0.7C142.1,157.6,142.2,158,142.2,158.6z M140.3,158.1
						c0-0.3,0-0.5,0-0.6c0-0.1-0.1-0.1-0.3-0.1c-0.1,0-0.2,0-0.2,0.1s-0.1,0.3-0.1,0.6v2.9c0,0.3,0,0.5,0.1,0.6
						c0,0.1,0.1,0.1,0.3,0.1c0.1,0,0.2,0,0.2-0.1c0-0.1,0.1-0.3,0.1-0.5V158.1z"/>
				</g>
			</g>
		</g>
		<g>
			<g>
				<g class="st2">
					<path class="st4" d="M86.6,166.3l2.6,7.2h-1l-0.9-2.5h-1.9l-0.9,2.5h-1l2.6-7.2H86.6z M87,170l-0.6-1.7l-0.6,1.7H87z"/>
					<path class="st4" d="M91.9,171.2h-0.8v2.3h-0.9v-7.2h2c0.6,0.1,1.1,0.3,1.5,0.7c0.5,0.5,0.7,1.1,0.7,1.7c0,0.7-0.2,1.2-0.7,1.7
						c-0.3,0.3-0.6,0.5-0.8,0.6l1.6,2.4h-1.1L91.9,171.2z M91.1,167.3v3h0.8c0.4,0,0.8-0.1,1.1-0.4c0.3-0.3,0.4-0.6,0.4-1.1
						c0-0.4-0.1-0.8-0.4-1.1c-0.3-0.3-0.6-0.4-1.1-0.4L91.1,167.3L91.1,167.3z"/>
					<path class="st4" d="M97.1,171.2h-0.8v2.3h-0.9v-7.2h2c0.6,0.1,1.1,0.3,1.5,0.7c0.5,0.5,0.7,1.1,0.7,1.7c0,0.7-0.2,1.2-0.7,1.7
						c-0.3,0.3-0.6,0.5-0.8,0.6l1.6,2.4h-1.1L97.1,171.2z M96.3,167.3v3h0.8c0.4,0,0.8-0.1,1.1-0.4c0.3-0.3,0.4-0.6,0.4-1.1
						c0-0.4-0.1-0.8-0.4-1.1c-0.3-0.3-0.6-0.4-1.1-0.4L96.3,167.3L96.3,167.3z"/>
					<path class="st4" d="M101.6,166.3v7.2h-0.9v-7.2H101.6z"/>
					<path class="st4" d="M106.9,166.3v0.9H104v2.2h2.9v0.9H104v2.2h2.9v0.9h-3.9v-7.2L106.9,166.3L106.9,166.3z"/>
					<path class="st4" d="M108.2,166.3h0.8l3,5.1v-5.1h0.9v7.2h-0.8l-3-5.2v5.2h-0.9C108.2,173.5,108.2,166.3,108.2,166.3z"/>
					<path class="st4" d="M114.9,166.3c1.2,0,2.1,0.3,2.7,1c0.7,0.7,1.1,1.6,1.1,2.6c0,1-0.4,1.9-1.1,2.6c-0.7,0.7-1.6,1-2.7,1h-0.7
						v-7.2L114.9,166.3L114.9,166.3z M115.2,167.3v5.3c0.7,0,1.3-0.2,1.8-0.7c0.5-0.5,0.8-1.2,0.8-1.9c0-0.8-0.3-1.4-0.8-1.9
						C116.5,167.5,115.9,167.3,115.2,167.3z"/>
					<path class="st4" d="M126,167.3c0.7,0.7,1.1,1.6,1.1,2.6c0,1-0.4,1.9-1.1,2.6c-0.7,0.7-1.6,1.1-2.6,1.1s-1.9-0.4-2.6-1.1
						s-1.1-1.6-1.1-2.6c0-1,0.4-1.9,1.1-2.6c0.7-0.7,1.6-1.1,2.6-1.1C124.4,166.3,125.2,166.6,126,167.3z M123.4,167.2
						c-0.8,0-1.4,0.3-1.9,0.8c-0.5,0.5-0.8,1.2-0.8,1.9s0.3,1.4,0.8,1.9c0.5,0.5,1.2,0.8,1.9,0.8c0.8,0,1.4-0.3,1.9-0.8
						s0.8-1.2,0.8-1.9s-0.3-1.4-0.8-1.9C124.8,167.5,124.1,167.2,123.4,167.2z"/>
					<path class="st4" d="M137.6,167.3c0.7,0.7,1.1,1.6,1.1,2.6c0,1-0.4,1.9-1.1,2.6s-1.6,1.1-2.6,1.1s-1.9-0.4-2.6-1.1
						s-1.1-1.6-1.1-2.6c0-1,0.4-1.9,1.1-2.6s1.6-1.1,2.6-1.1C136,166.3,136.9,166.6,137.6,167.3z M135,167.2c-0.8,0-1.4,0.3-1.9,0.8
						c-0.5,0.5-0.8,1.2-0.8,1.9s0.3,1.4,0.8,1.9c0.5,0.5,1.2,0.8,1.9,0.8c0.8,0,1.4-0.3,1.9-0.8s0.8-1.2,0.8-1.9s-0.3-1.4-0.8-1.9
						C136.4,167.5,135.7,167.2,135,167.2z"/>
					<path class="st4" d="M77.3,180.8c-0.5-0.2-0.9-0.4-1.2-0.7c-0.3-0.3-0.5-0.7-0.5-1.2c0-0.5,0.2-0.8,0.5-1.2
						c0.3-0.3,0.7-0.5,1.2-0.5c0.5,0,0.9,0.2,1.2,0.5c0.2,0.2,0.3,0.5,0.5,0.9l-0.8,0.3c-0.1-0.3-0.2-0.5-0.3-0.5
						c-0.1-0.1-0.3-0.2-0.5-0.2c-0.2,0-0.4,0.1-0.5,0.2c-0.1,0.1-0.2,0.3-0.2,0.5c0,0.2,0.1,0.4,0.2,0.5c0.2,0.2,0.4,0.3,0.7,0.4
						c0.6,0.2,1,0.5,1.4,0.9c0.4,0.4,0.7,1,0.7,1.6s-0.2,1.1-0.7,1.6s-1,0.7-1.6,0.7c-0.6,0-1.1-0.2-1.6-0.7
						c-0.3-0.4-0.6-0.8-0.7-1.4l0.9-0.3c0.1,0.5,0.2,0.9,0.4,1.1c0.3,0.3,0.6,0.4,0.9,0.4s0.7-0.1,0.9-0.4c0.3-0.3,0.4-0.6,0.4-0.9
						c0-0.4-0.1-0.7-0.4-0.9C78,181.2,77.7,181,77.3,180.8z"/>
					<path class="st4" d="M84.3,177.3h0.9v5c-0.1,0.6-0.3,1.1-0.7,1.5c-0.5,0.5-1.1,0.7-1.7,0.7s-1.2-0.2-1.7-0.7
						c-0.5-0.5-0.7-1-0.7-1.7v-4.8h0.9v4.8c0,0.4,0.1,0.8,0.4,1.1c0.3,0.3,0.6,0.4,1.1,0.4c0.4,0,0.8-0.1,1.1-0.4
						c0.3-0.3,0.4-0.6,0.4-1.1C84.3,182.1,84.3,177.3,84.3,177.3z"/>
					<path class="st4" d="M88.1,177.3c0.4,0,0.8,0.1,1.1,0.4c0.3,0.3,0.4,0.6,0.4,1.1c0,0.4-0.2,0.7-0.6,0.8c0.3,0,0.7,0.3,1.1,0.7
						c0.4,0.4,0.6,0.9,0.6,1.6s-0.2,1.3-0.7,1.8c-0.5,0.5-0.9,0.7-1.4,0.7v0h-1.8v-7.2L88.1,177.3C88.1,177.3,88.1,177.3,88.1,177.3
						z M87.5,178.3v1.1h0.6c0.1,0,0.3-0.1,0.4-0.2c0.1-0.1,0.2-0.2,0.2-0.4c0-0.2-0.1-0.3-0.2-0.4s-0.3-0.2-0.4-0.2L87.5,178.3
						L87.5,178.3z M87.5,180.4v3.2h0.9v0c0.2,0,0.4-0.2,0.7-0.5c0.3-0.3,0.5-0.7,0.5-1.1c0-0.4-0.2-0.8-0.5-1.1
						c-0.3-0.3-0.7-0.5-1.1-0.5H87.5z"/>
					<path class="st4" d="M91.5,181.3h3v0.9h-3V181.3z"/>
					<path class="st4" d="M98.3,177.3l2.6,7.2h-1L99,182h-1.9l-0.9,2.5h-1l2.6-7.2H98.3z M98.6,181l-0.6-1.7l-0.6,1.7H98.6z"/>
					<path class="st4" d="M103.5,182.2h-0.8v2.3h-0.9v-7.2h2c0.6,0.1,1.1,0.3,1.5,0.7c0.5,0.5,0.7,1.1,0.7,1.7
						c0,0.7-0.2,1.2-0.7,1.7c-0.3,0.3-0.6,0.5-0.8,0.6l1.6,2.4H105L103.5,182.2z M102.7,178.3v3h0.8c0.4,0,0.8-0.1,1.1-0.4
						c0.3-0.3,0.4-0.6,0.4-1.1s-0.1-0.8-0.4-1.1c-0.3-0.3-0.6-0.4-1.1-0.4L102.7,178.3L102.7,178.3z"/>
					<path class="st4" d="M108.8,182.2h-0.8v2.3H107v-7.2h2c0.6,0.1,1.1,0.3,1.5,0.7c0.5,0.5,0.7,1.1,0.7,1.7c0,0.7-0.2,1.2-0.7,1.7
						c-0.3,0.3-0.6,0.5-0.8,0.6l1.6,2.4h-1.1L108.8,182.2z M107.9,178.3v3h0.8c0.4,0,0.8-0.1,1.1-0.4c0.3-0.3,0.4-0.6,0.4-1.1
						s-0.1-0.8-0.4-1.1c-0.3-0.3-0.6-0.4-1.1-0.4L107.9,178.3L107.9,178.3z"/>
					<path class="st4" d="M113.2,177.3v7.2h-0.9v-7.2H113.2z"/>
					<path class="st4" d="M118.5,177.3v0.9h-2.9v2.2h2.9v0.9h-2.9v2.2h2.9v0.9h-3.9v-7.2L118.5,177.3L118.5,177.3z"/>
					<path class="st4" d="M119.8,177.3h0.8l3,5.1v-5.1h0.9v7.2h-0.8l-3-5.2v5.2h-0.9L119.8,177.3L119.8,177.3z"/>
					<path class="st4" d="M126.5,177.3c1.2,0,2.1,0.3,2.7,1c0.7,0.7,1.1,1.6,1.1,2.6c0,1-0.4,1.9-1.1,2.6c-0.6,0.7-1.6,1-2.7,1h-0.7
						v-7.2H126.5z M126.8,178.3v5.3c0.7,0,1.3-0.2,1.8-0.7c0.5-0.5,0.8-1.2,0.8-1.9c0-0.8-0.3-1.4-0.8-1.9
						C128.1,178.5,127.5,178.3,126.8,178.3z"/>
					<path class="st4" d="M137.6,178.3c0.7,0.7,1.1,1.6,1.1,2.6c0,1-0.4,1.9-1.1,2.6s-1.6,1.1-2.6,1.1s-1.9-0.4-2.6-1.1
						s-1.1-1.6-1.1-2.6c0-1,0.4-1.9,1.1-2.6s1.6-1.1,2.6-1.1C136,177.2,136.9,177.6,137.6,178.3z M135,178.2c-0.8,0-1.4,0.3-1.9,0.8
						c-0.5,0.5-0.8,1.2-0.8,1.9s0.3,1.4,0.8,1.9c0.5,0.5,1.2,0.8,1.9,0.8c0.8,0,1.4-0.3,1.9-0.8c0.5-0.5,0.8-1.2,0.8-1.9
						s-0.3-1.4-0.8-1.9C136.4,178.4,135.7,178.2,135,178.2z"/>
				</g>
			</g>
		</g>
		<g>
			<g>
				<g class="st2">
					<path class="st3" d="M187.2,283.1h-2.9c0-0.5,0-0.9,0-1c0-0.1-0.1-0.3-0.2-0.4c-0.1-0.1-0.2-0.1-0.4-0.1c-0.1,0-0.3,0-0.4,0.1
						c-0.1,0.1-0.1,0.2-0.2,0.4c0,0.1,0,0.4,0,0.9v1.8c0.1-0.3,0.4-0.5,0.7-0.7c0.3-0.2,0.6-0.2,1.1-0.2c0.5,0,1,0.1,1.4,0.4
						c0.4,0.3,0.7,0.6,0.8,1s0.2,0.9,0.2,1.6v0.9c0,0.8,0,1.4-0.1,1.8c-0.1,0.4-0.2,0.8-0.5,1.1c-0.3,0.3-0.6,0.6-1.1,0.8
						c-0.5,0.2-1,0.3-1.6,0.3c-0.8,0-1.4-0.1-1.9-0.3c-0.5-0.2-0.9-0.5-1.1-0.9c-0.3-0.4-0.4-0.8-0.5-1.3c0-0.4-0.1-1.3-0.1-2.6
						v-1.6c0-1.4,0-2.3,0.1-2.8s0.2-0.9,0.5-1.3c0.3-0.4,0.7-0.7,1.2-0.9s1.1-0.3,1.7-0.3c0.8,0,1.5,0.1,2,0.4
						c0.5,0.3,0.9,0.6,1.1,1.1C187.1,281.8,187.2,282.4,187.2,283.1z M184.3,286.7c0-0.4,0-0.7-0.1-0.8c-0.1-0.2-0.2-0.2-0.4-0.2
						c-0.2,0-0.3,0.1-0.4,0.2c-0.1,0.1-0.1,0.4-0.1,0.9v2.1c0,0.5,0,0.8,0.1,1c0.1,0.2,0.2,0.2,0.4,0.2c0.1,0,0.3-0.1,0.4-0.2
						c0.1-0.1,0.2-0.4,0.2-1L184.3,286.7L184.3,286.7z"/>
					<path class="st3" d="M192.9,282v2c0,0.5,0,0.9-0.1,1.2c-0.1,0.3-0.3,0.5-0.6,0.7s-0.7,0.3-1.3,0.3c-0.6,0-1.1-0.1-1.4-0.3
						c-0.3-0.2-0.5-0.4-0.6-0.7s-0.2-0.6-0.2-1.1V282c0-0.6,0.1-1,0.2-1.3c0.1-0.3,0.3-0.5,0.7-0.7s0.7-0.3,1.2-0.3
						c0.5,0,1,0.1,1.3,0.3c0.3,0.2,0.6,0.4,0.7,0.7S192.9,281.4,192.9,282z M191,281.5c0-0.3,0-0.5,0-0.6c0-0.1-0.1-0.1-0.3-0.1
						c-0.1,0-0.2,0-0.2,0.1s-0.1,0.3-0.1,0.6v2.9c0,0.3,0,0.5,0.1,0.6c0,0.1,0.1,0.1,0.3,0.1c0.1,0,0.2,0,0.2-0.1
						c0-0.1,0.1-0.3,0.1-0.5L191,281.5L191,281.5L191,281.5z M196.3,279.8l-4.5,12h-1.1l4.5-12H196.3z M198.3,287.6v2
						c0,0.5,0,0.9-0.1,1.2s-0.3,0.5-0.6,0.7c-0.3,0.2-0.7,0.3-1.3,0.3c-0.6,0-1.1-0.1-1.4-0.3c-0.3-0.2-0.5-0.4-0.7-0.7
						c-0.1-0.3-0.2-0.6-0.2-1.1v-2.1c0-0.6,0.1-1,0.2-1.3c0.1-0.3,0.3-0.5,0.7-0.7c0.3-0.2,0.7-0.3,1.2-0.3c0.5,0,1,0.1,1.3,0.3
						s0.6,0.4,0.7,0.7C198.2,286.6,198.3,287,198.3,287.6z M196.4,287.1c0-0.3,0-0.5,0-0.6c0-0.1-0.1-0.1-0.3-0.1
						c-0.1,0-0.2,0-0.2,0.1c0,0.1-0.1,0.3-0.1,0.6v2.9c0,0.3,0,0.5,0.1,0.6c0,0.1,0.1,0.1,0.3,0.1c0.1,0,0.2,0,0.2-0.1
						c0-0.1,0.1-0.3,0.1-0.5V287.1z"/>
				</g>
			</g>
		</g>
		<g>
			<g>
				<g class="st2">
					<path class="st4" d="M117.2,302.5l-2.6-7.2h1l1.9,5.1l1.9-5.1h1l-2.6,7.2H117.2z"/>
					<path class="st4" d="M122.2,295.3v7.2h-0.9v-7.2H122.2z"/>
					<path class="st4" d="M125.8,302.5l-2.6-7.2h1l1.9,5.1l1.9-5.1h1l-2.6,7.2H125.8z"/>
					<path class="st4" d="M130.8,295.3v7.2h-0.9v-7.2H130.8z"/>
					<path class="st4" d="M136.1,295.3v0.9h-2.9v2.2h2.9v0.9h-2.9v2.2h2.9v0.9h-3.9v-7.2L136.1,295.3L136.1,295.3z"/>
					<path class="st4" d="M137.4,295.3h0.8l3,5.1v-5.1h0.9v7.2h-0.8l-3-5.2v5.2h-0.9L137.4,295.3L137.4,295.3z"/>
					<path class="st4" d="M144.1,295.3c1.2,0,2.1,0.3,2.7,1c0.7,0.7,1.1,1.6,1.1,2.6c0,1-0.4,1.9-1.1,2.6c-0.6,0.7-1.6,1-2.7,1h-0.7
						v-7.2L144.1,295.3L144.1,295.3z M144.4,296.3v5.3c0.7,0,1.3-0.2,1.8-0.7c0.5-0.5,0.8-1.2,0.8-1.9c0-0.8-0.3-1.4-0.8-1.9
						C145.7,296.5,145.1,296.3,144.4,296.3z"/>
					<path class="st4" d="M151.5,295.3l2.6,7.2h-1l-0.9-2.5h-1.9l-0.9,2.5h-1l2.6-7.2H151.5z M151.8,299l-0.6-1.7l-0.6,1.7H151.8z"
						/>
					<path class="st4" d="M159,300.2v2.3h-0.9v-7.2h2c0.6,0.1,1.1,0.3,1.5,0.7c0.5,0.5,0.7,1.1,0.7,1.7c0,0.7-0.2,1.2-0.7,1.7
						s-1,0.7-1.7,0.7L159,300.2L159,300.2z M159,296.3v3h0.8c0.4,0,0.8-0.1,1.1-0.4c0.3-0.3,0.4-0.6,0.4-1.1c0-0.4-0.1-0.8-0.4-1.1
						c-0.3-0.3-0.6-0.4-1.1-0.4L159,296.3L159,296.3z"/>
					<path class="st4" d="M165,300.2h-0.8v2.3h-0.9v-7.2h2c0.6,0.1,1.1,0.3,1.5,0.7c0.5,0.5,0.7,1.1,0.7,1.7c0,0.7-0.2,1.2-0.7,1.7
						c-0.3,0.3-0.6,0.5-0.8,0.6l1.6,2.4h-1.1L165,300.2z M164.2,296.3v3h0.8c0.4,0,0.8-0.1,1.1-0.4c0.3-0.3,0.4-0.6,0.4-1.1
						c0-0.4-0.1-0.8-0.4-1.1c-0.3-0.3-0.6-0.4-1.1-0.4L164.2,296.3L164.2,296.3z"/>
					<path class="st4" d="M174.6,296.3c0.7,0.7,1.1,1.6,1.1,2.6c0,1-0.4,1.9-1.1,2.6c-0.7,0.7-1.6,1.1-2.6,1.1s-1.9-0.4-2.6-1.1
						c-0.7-0.7-1.1-1.6-1.1-2.6c0-1,0.4-1.9,1.1-2.6s1.6-1.1,2.6-1.1C173,295.3,173.9,295.6,174.6,296.3z M172,296.2
						c-0.8,0-1.4,0.3-1.9,0.8c-0.5,0.5-0.8,1.2-0.8,1.9s0.3,1.4,0.8,1.9c0.5,0.5,1.2,0.8,1.9,0.8c0.8,0,1.4-0.3,1.9-0.8
						c0.5-0.5,0.8-1.2,0.8-1.9s-0.3-1.4-0.8-1.9S172.8,296.2,172,296.2z"/>
					<path class="st4" d="M177.9,300.2v2.3h-0.9v-7.2h2c0.6,0.1,1.1,0.3,1.5,0.7c0.5,0.5,0.7,1.1,0.7,1.7c0,0.7-0.2,1.2-0.7,1.7
						s-1,0.7-1.7,0.7L177.9,300.2L177.9,300.2z M177.9,296.3v3h0.8c0.4,0,0.8-0.1,1.1-0.4c0.3-0.3,0.4-0.6,0.4-1.1
						c0-0.4-0.1-0.8-0.4-1.1c-0.3-0.3-0.6-0.4-1.1-0.4L177.9,296.3L177.9,296.3z"/>
					<path class="st4" d="M183.1,295.3v7.2h-0.9v-7.2H183.1z"/>
					<path class="st4" d="M187.2,295.3l2.6,7.2h-1l-0.9-2.5H186l-0.9,2.5h-1l2.6-7.2H187.2z M187.5,299l-0.6-1.7l-0.6,1.7H187.5z"/>
					<path class="st4" d="M195.6,299.6l-2.5-4.3h1.1l1.9,3.2l1.9-3.2h1.1l-2.5,4.3v2.9h-0.9V299.6z"/>
					<path class="st4" d="M118,313.5v-7.2h0.9v6.2h2.6v0.9L118,313.5L118,313.5z"/>
					<path class="st4" d="M125.3,306.3l2.6,7.2h-1l-0.9-2.5h-1.9l-0.9,2.5h-1l2.6-7.2H125.3z M125.6,310l-0.6-1.7l-0.6,1.7
						L125.6,310L125.6,310z"/>
					<path class="st4" d="M135.8,306.3v0.9h-2.9v2.2h2.9v0.9h-2.9v2.2h2.9v0.9h-3.9v-7.2L135.8,306.3L135.8,306.3z"/>
					<path class="st4" d="M138.8,309.8c-0.5-0.2-0.9-0.4-1.2-0.7c-0.3-0.3-0.5-0.7-0.5-1.2c0-0.5,0.2-0.8,0.5-1.2
						c0.3-0.3,0.7-0.5,1.2-0.5c0.5,0,0.9,0.2,1.2,0.5c0.2,0.2,0.3,0.5,0.5,0.9l-0.8,0.3c-0.1-0.3-0.2-0.5-0.3-0.5
						c-0.1-0.1-0.3-0.2-0.5-0.2c-0.2,0-0.4,0.1-0.5,0.2s-0.2,0.3-0.2,0.5c0,0.2,0.1,0.4,0.2,0.5c0.2,0.2,0.4,0.3,0.7,0.4
						c0.6,0.2,1,0.5,1.4,0.9c0.4,0.4,0.7,1,0.7,1.6s-0.2,1.1-0.7,1.6s-1,0.7-1.6,0.7c-0.6,0-1.1-0.2-1.6-0.7
						c-0.3-0.3-0.6-0.8-0.7-1.4l0.9-0.3c0.1,0.5,0.2,0.9,0.4,1.1c0.3,0.3,0.6,0.4,0.9,0.4s0.7-0.1,0.9-0.4c0.3-0.3,0.4-0.6,0.4-0.9
						c0-0.4-0.1-0.7-0.4-0.9C139.5,310.2,139.2,310,138.8,309.8z"/>
					<path class="st4" d="M144.1,307.3v6.2h-0.9v-6.2h-1.7v-0.9h4.3v0.9H144.1z"/>
					<path class="st4" d="M149,306.3l2.6,7.2h-1l-0.9-2.5h-1.9l-0.9,2.5h-1l2.6-7.2H149z M149.3,310l-0.6-1.7l-0.6,1.7H149.3z"/>
					<path class="st4" d="M156.6,311.2v2.3h-0.9v-7.2h2c0.6,0.1,1.1,0.3,1.5,0.7c0.5,0.5,0.7,1,0.7,1.7c0,0.7-0.2,1.2-0.7,1.7
						c-0.5,0.5-1,0.7-1.7,0.7L156.6,311.2L156.6,311.2z M156.6,307.3v3h0.8c0.4,0,0.8-0.1,1.1-0.4c0.3-0.3,0.4-0.6,0.4-1.1
						c0-0.4-0.1-0.8-0.4-1.1c-0.3-0.3-0.6-0.4-1.1-0.4L156.6,307.3L156.6,307.3z"/>
					<path class="st4" d="M162.8,306.3l2.6,7.2h-1l-0.9-2.5h-1.9l-0.9,2.5h-1l2.6-7.2H162.8z M163.2,310l-0.6-1.7L162,310H163.2z"/>
					<path class="st4" d="M172.2,312.5c-0.7,0.7-1.6,1.1-2.5,1.1c-1,0-1.9-0.4-2.6-1.1s-1.1-1.6-1.1-2.6c0-1,0.4-1.9,1.1-2.6
						s1.6-1.1,2.6-1.1c0.9,0,1.8,0.4,2.7,1.2l-0.7,0.6c-0.6-0.6-1.3-0.9-2-0.9c-0.7,0-1.4,0.3-1.9,0.8c-0.5,0.5-0.8,1.2-0.8,1.9
						c0,0.8,0.3,1.4,0.8,1.9c0.5,0.5,1.2,0.8,1.9,0.8c0.6,0,1.2-0.2,1.6-0.5V310h0.9V312.5z"/>
					<path class="st4" d="M176.3,306.3l2.6,7.2h-1L177,311h-1.9l-0.9,2.5h-1l2.6-7.2H176.3z M176.6,310l-0.6-1.7l-0.6,1.7H176.6z"/>
					<path class="st4" d="M179.8,306.3h0.8l3,5.1v-5.1h0.9v7.2h-0.8l-3-5.2v5.2h-0.9L179.8,306.3L179.8,306.3z"/>
					<path class="st4" d="M186.5,306.3c1.2,0,2.1,0.3,2.7,1c0.7,0.7,1.1,1.6,1.1,2.6c0,1-0.4,1.9-1.1,2.6c-0.6,0.7-1.6,1-2.7,1h-0.7
						v-7.2L186.5,306.3L186.5,306.3z M186.8,307.3v5.3c0.7,0,1.3-0.2,1.8-0.7c0.5-0.5,0.8-1.2,0.8-1.9c0-0.8-0.3-1.4-0.8-1.9
						C188.1,307.5,187.5,307.3,186.8,307.3z"/>
					<path class="st4" d="M197.6,307.3c0.7,0.7,1.1,1.6,1.1,2.6c0,1-0.4,1.9-1.1,2.6s-1.6,1.1-2.6,1.1s-1.9-0.4-2.6-1.1
						s-1.1-1.6-1.1-2.6c0-1,0.4-1.9,1.1-2.6c0.7-0.7,1.6-1.1,2.6-1.1C196,306.2,196.9,306.6,197.6,307.3z M195,307.2
						c-0.8,0-1.4,0.3-1.9,0.8c-0.5,0.5-0.8,1.2-0.8,1.9s0.3,1.4,0.8,1.9c0.5,0.5,1.2,0.8,1.9,0.8c0.8,0,1.4-0.3,1.9-0.8
						s0.8-1.2,0.8-1.9s-0.3-1.4-0.8-1.9C196.4,307.4,195.7,307.2,195,307.2z"/>
				</g>
			</g>
		</g>
		<path class="st5" d="M391.7,188.7c-0.3,48.5-36.4,89.5-84.8,95.8c-16.5,2.1-32.4,0-48-5.9c-2.3-0.9-2.7-1.8-1.7-4.1
			c10.1-23.2,20.1-46.4,30.2-69.5c2.1-4.8,4.1-9.7,6.3-14.5c0.5-1.2,1.5-2.4,2.5-3.1c25.4-17.3,50.9-34.6,76.3-51.9
			c1.7-1.2,2.5-0.6,3.5,0.9c7.7,11.9,12.4,24.9,14.4,38.9C391,179.7,391.3,184.2,391.7,188.7z"/>
		<path class="st6" d="M252.4,172.9c-3.3,3.2-6,5.8-8.6,8.4c-19.4,19.3-38.7,38.7-58.1,58.1c-2.3,2.3-2.3,2.3-4.5,0
			c-15-16.2-23.8-35.2-25.7-57.2C153,155,161,131,178.4,110.1c1-1.2,2.2-2.2,3.1-3.4c1.3-1.8,2.3-1.6,3.8-0.1
			c11.6,11.7,23.2,23.3,34.9,34.9c9.9,9.9,19.7,19.7,29.6,29.5C250.4,171.7,251.2,172.1,252.4,172.9z"/>
		<path class="st7" d="M277.5,148.8c-2-2.9-4-5.6-5.8-8.3c-15.6-22.9-31.1-45.8-46.7-68.7c-1.7-2.5-1.7-2.6,0.9-4.3
			c13.3-8.4,27.9-13.3,43.6-14.6c26.2-2,49.4,5.4,69.9,21.8c1.7,1.4,2,2.2,0.4,4c-14.1,15.9-28.2,31.9-42.3,47.9
			c-6,6.8-12,13.6-18,20.4C278.9,147.6,278.3,148.1,277.5,148.8z"/>
		<path class="st8" d="M261.5,194.7c-1.7,3.9-3.3,7.8-5,11.7c-10.3,23.8-20.6,47.6-30.9,71.3c-2.2,5-1.6,4.3-5.9,2.2
			c-8.8-4.2-16.7-9.9-23.9-16.5c-1.7-1.6-1.6-2.5,0-4c21.2-21.1,42.4-42.3,63.6-63.5c0.5-0.5,1.1-1,1.7-1.5
			C261.2,194.5,261.3,194.6,261.5,194.7z"/>
		<path class="st0" d="M296.9,154.7c4.1-4.7,8.2-9.3,12.3-14c11.6-13.1,23.1-26.2,34.7-39.3c4.2-4.7,8.4-9.4,12.5-14.2
			c1.3-1.5,2.3-1.7,3.7-0.1c4,4.6,8.1,9.2,12.2,13.8c1.3,1.5,1.2,2.5-0.5,3.6c-10.8,7.3-21.6,14.6-32.4,22c-13.3,9-26.5,18-39.8,27
			c-0.8,0.5-1.6,1.1-2.4,1.6C297.1,154.9,297,154.8,296.9,154.7z"/>
		<path class="st9" d="M257,150.6c-0.6-0.5-1.2-1.1-1.7-1.6c-20.3-20.3-40.5-40.5-60.8-60.7c-1.6-1.6-1.8-2.6,0-4
			c3.2-2.5,6.3-5.1,9.3-7.7c1.6-1.4,2.7-1.1,3.9,0.6c5.8,8.7,11.7,17.3,17.6,25.9c10.2,15,20.4,30,30.6,45c0.5,0.7,1,1.5,1.5,2.2
			C257.2,150.4,257.1,150.5,257,150.6z"/>
		<g>
			<g>
				<g class="st2">
					<path class="st3" d="M528.3,92.6v23.4h2.5v6.1h-2.5v6.3h-9v-6.3h-10.6v-6.1l7.7-23.4C516.5,92.6,528.3,92.6,528.3,92.6z
						 M519.4,116.1v-15.3l-4,15.3H519.4z"/>
					<path class="st3" d="M546.5,92.6v35.9h-9v-19.2c0-2.8-0.1-4.4-0.2-5c-0.1-0.6-0.5-1-1.1-1.3s-1.9-0.4-4-0.4h-0.9v-4.2
						c4.3-0.9,7.6-2.8,9.9-5.7C541.3,92.6,546.5,92.6,546.5,92.6z"/>
					<path class="st3" d="M570.4,98.8v6.2c0,1.6-0.2,2.8-0.5,3.6c-0.3,0.8-1,1.5-2,2.1c-1,0.6-2.3,0.9-4,0.9c-1.9,0-3.3-0.3-4.3-0.9
						c-1-0.6-1.7-1.3-2-2.1s-0.5-1.9-0.5-3.4v-6.4c0-1.8,0.2-3.1,0.5-3.9c0.4-0.8,1.1-1.5,2.1-2.1c1-0.5,2.3-0.8,3.8-0.8
						c1.7,0,3.1,0.3,4.1,0.9c1,0.6,1.8,1.3,2.1,2.1C570.3,95.8,570.4,97,570.4,98.8z M564.8,97.2c0-0.9,0-1.5-0.1-1.8
						s-0.4-0.3-0.8-0.3c-0.4,0-0.7,0.1-0.8,0.4s-0.2,0.8-0.2,1.7v9c0,1,0.1,1.7,0.2,1.9c0.1,0.2,0.4,0.3,0.8,0.3
						c0.4,0,0.6-0.1,0.7-0.4c0.1-0.2,0.2-0.8,0.2-1.7L564.8,97.2L564.8,97.2z M580.9,92l-14,37.3h-3.4L577.5,92
						C577.5,92,580.9,92,580.9,92z M587.1,116.1v6.2c0,1.6-0.2,2.8-0.5,3.6s-1,1.5-2,2.1c-1,0.6-2.3,0.9-4,0.9
						c-1.9,0-3.3-0.3-4.3-0.9c-1-0.6-1.7-1.3-2-2.1s-0.5-1.9-0.5-3.4v-6.5c0-1.8,0.2-3.1,0.5-3.9c0.4-0.8,1.1-1.5,2.1-2.1
						c1-0.5,2.3-0.8,3.8-0.8c1.7,0,3.1,0.3,4.1,0.9c1,0.6,1.7,1.3,2.1,2.1C586.9,113.1,587.1,114.4,587.1,116.1z M581.4,114.5
						c0-0.9,0-1.5-0.1-1.8c-0.1-0.2-0.4-0.3-0.8-0.3c-0.4,0-0.7,0.1-0.8,0.4c-0.1,0.2-0.2,0.8-0.2,1.8v9c0,1,0.1,1.6,0.2,1.8
						c0.1,0.2,0.4,0.3,0.8,0.3c0.4,0,0.7-0.1,0.8-0.3c0.1-0.2,0.2-0.8,0.2-1.7L581.4,114.5L581.4,114.5z"/>
				</g>
			</g>
		</g>
		<g>
			<g>
				<polyline class="st10" points="358.6,193.4 447.4,193.4 447.4,148.7 493.9,148.7 				"/>
				<g>
					<circle class="st3" cx="359" cy="193.4" r="7.5"/>
				</g>
			</g>
		</g>
		<g>
			<g>
				<path class="st4" d="M509.6,156.3l-4.7-12.9h1.8l3.4,9.2l3.4-9.2h1.8l-4.7,12.9H509.6z"/>
				<path class="st4" d="M518.7,143.4v12.9H517v-12.9H518.7z"/>
				<path class="st4" d="M525.1,156.3l-4.7-12.9h1.8l3.4,9.2l3.4-9.2h1.8l-4.7,12.9H525.1z"/>
				<path class="st4" d="M534.1,143.4v12.9h-1.7v-12.9H534.1z"/>
				<path class="st4" d="M543.7,143.4v1.7h-5.3v3.9h5.3v1.7h-5.3v3.9h5.3v1.7h-6.9v-12.9H543.7z"/>
				<path class="st4" d="M545.9,143.4h1.5l5.3,9.2v-9.2h1.7v12.9h-1.5l-5.4-9.3v9.3h-1.7L545.9,143.4L545.9,143.4z"/>
				<path class="st4" d="M558,143.4c2.1,0,3.7,0.6,4.9,1.8c1.3,1.3,1.9,2.8,1.9,4.7c0,1.8-0.6,3.4-1.9,4.7c-1.2,1.2-2.8,1.8-4.9,1.8
					h-1.2v-12.9H558z M558.5,145.1v9.5c1.3,0,2.4-0.4,3.3-1.3c1-1,1.4-2.1,1.4-3.5c0-1.4-0.5-2.5-1.4-3.5
					C560.9,145.5,559.8,145.1,558.5,145.1z"/>
				<path class="st4" d="M571.3,143.4l4.7,12.9h-1.8l-1.7-4.6h-3.4l-1.7,4.6h-1.8l4.7-12.9H571.3z M571.9,150.1l-1.1-3l-1.1,3H571.9
					z"/>
				<path class="st4" d="M584.9,152.2v4.1h-1.7v-12.9h3.7c1,0.1,1.9,0.6,2.6,1.3c0.9,0.9,1.3,1.9,1.3,3.1c0,1.2-0.4,2.2-1.3,3.1
					s-1.9,1.3-3.1,1.3L584.9,152.2L584.9,152.2z M584.9,145.1v5.4h1.5c0.7,0,1.4-0.3,1.9-0.8c0.5-0.5,0.8-1.2,0.8-1.9
					c0-0.7-0.3-1.4-0.8-1.9c-0.5-0.5-1.2-0.8-1.9-0.8H584.9z"/>
				<path class="st4" d="M595.7,152.2h-1.5v4.1h-1.7v-12.9h3.7c1,0.1,1.9,0.6,2.6,1.3c0.9,0.9,1.3,1.9,1.3,3.1
					c0,1.2-0.4,2.2-1.3,3.1c-0.6,0.6-1,0.9-1.4,1l2.9,4.4h-2L595.7,152.2z M594.2,145.1v5.4h1.5c0.7,0,1.4-0.3,1.9-0.8
					c0.5-0.5,0.8-1.2,0.8-1.9c0-0.7-0.3-1.4-0.8-1.9c-0.5-0.5-1.2-0.8-1.9-0.8H594.2z"/>
				<path class="st4" d="M613,145.2c1.3,1.3,1.9,2.8,1.9,4.7c0,1.8-0.6,3.4-1.9,4.7s-2.8,1.9-4.7,1.9c-1.8,0-3.4-0.6-4.7-1.9
					s-1.9-2.8-1.9-4.7c0-1.8,0.6-3.4,1.9-4.7c1.3-1.3,2.8-1.9,4.7-1.9C610.1,143.2,611.7,143.9,613,145.2z M608.3,144.9
					c-1.4,0-2.5,0.5-3.5,1.4s-1.4,2.1-1.4,3.5s0.5,2.5,1.4,3.5c1,1,2.1,1.4,3.5,1.4c1.4,0,2.5-0.5,3.5-1.4s1.4-2.1,1.4-3.5
					c0-1.4-0.5-2.5-1.4-3.5C610.8,145.4,609.7,144.9,608.3,144.9z"/>
				<path class="st4" d="M618.8,152.2v4.1h-1.7v-12.9h3.7c1,0.1,1.9,0.6,2.6,1.3c0.9,0.9,1.3,1.9,1.3,3.1c0,1.2-0.4,2.2-1.3,3.1
					c-0.9,0.9-1.9,1.3-3.1,1.3L618.8,152.2L618.8,152.2z M618.8,145.1v5.4h1.5c0.7,0,1.4-0.3,1.9-0.8c0.5-0.5,0.8-1.2,0.8-1.9
					c0-0.7-0.3-1.4-0.8-1.9c-0.5-0.5-1.2-0.8-1.9-0.8H618.8z"/>
				<path class="st4" d="M628.2,143.4v12.9h-1.7v-12.9H628.2z"/>
				<path class="st4" d="M635.5,143.4l4.7,12.9h-1.8l-1.7-4.6h-3.4l-1.7,4.6H630l4.7-12.9H635.5z M636.2,150.1l-1.1-3l-1.1,3H636.2z
					"/>
				<path class="st4" d="M509.6,164.9v11.2h-1.7v-11.2h-3v-1.7h7.7v1.7H509.6z"/>
				<path class="st4" d="M524.7,165c1.3,1.3,1.9,2.8,1.9,4.7c0,1.8-0.6,3.4-1.9,4.7s-2.8,1.9-4.7,1.9s-3.4-0.6-4.7-1.9
					s-1.9-2.8-1.9-4.7c0-1.8,0.6-3.4,1.9-4.7c1.3-1.3,2.8-1.9,4.7-1.9S523.4,163.7,524.7,165z M520,164.7c-1.4,0-2.5,0.5-3.5,1.4
					s-1.4,2.1-1.4,3.5s0.5,2.5,1.4,3.5c1,1,2.1,1.4,3.5,1.4c1.4,0,2.5-0.5,3.5-1.4s1.4-2.1,1.4-3.5c0-1.4-0.5-2.5-1.4-3.5
					S521.4,164.7,520,164.7z"/>
				<path class="st4" d="M532.1,164.9v11.2h-1.7v-11.2h-3v-1.7h7.7v1.7H532.1z"/>
				<path class="st4" d="M541,163.2l4.7,12.9h-1.8l-1.7-4.6h-3.4l-1.7,4.6h-1.8l4.7-12.9H541z M541.6,169.9l-1.1-3l-1.1,3H541.6z"/>
				<path class="st4" d="M547.2,176.1v-12.9h1.7v11.2h4.6v1.7L547.2,176.1L547.2,176.1z"/>
				<path class="st4" d="M562.4,163.2v1.7h-5.3v3.9h5.3v1.7h-5.3v3.9h5.3v1.7h-6.9v-12.9L562.4,163.2L562.4,163.2z"/>
				<path class="st4" d="M566.5,163.2l4.2,7.2l4.2-7.2h1.5v12.9h-1.7v-9.3l-4,7l-4-7v9.3H565v-12.9H566.5z"/>
				<path class="st4" d="M583.1,164.9v11.2h-1.7v-11.2h-3v-1.7h7.7v1.7H583.1z"/>
				<path class="st4" d="M594.6,163.2v1.7h-5.3v3.9h5.3v1.7h-5.3v3.9h5.3v1.7h-6.9v-12.9L594.6,163.2L594.6,163.2z"/>
				<path class="st4" d="M596.8,163.2h1.5l5.3,9.2v-9.2h1.7v12.9h-1.5l-5.4-9.3v9.3h-1.7L596.8,163.2L596.8,163.2z"/>
				<path class="st4" d="M615.1,172v4.1h-1.7v-12.9h3.7c1,0.1,1.9,0.6,2.6,1.3c0.9,0.9,1.3,1.9,1.3,3.1c0,1.2-0.4,2.2-1.3,3.1
					s-1.9,1.3-3.1,1.3L615.1,172L615.1,172z M615.1,164.9v5.4h1.5c0.7,0,1.4-0.3,1.9-0.8c0.5-0.5,0.8-1.2,0.8-1.9
					c0-0.7-0.3-1.4-0.8-1.9c-0.5-0.5-1.2-0.8-1.9-0.8H615.1z"/>
				<path class="st4" d="M626.4,163.2l4.7,12.9h-1.8l-1.7-4.6h-3.4l-1.7,4.6h-1.8l4.7-12.9H626.4z M627.1,169.9l-1.1-3l-1.1,3H627.1
					z"/>
				<path class="st4" d="M643.3,174.3c-1.3,1.3-2.8,1.9-4.5,1.9c-1.8,0-3.4-0.6-4.7-1.9s-1.9-2.8-1.9-4.7c0-1.8,0.6-3.4,1.9-4.7
					c1.3-1.3,2.8-1.9,4.7-1.9c1.7,0,3.3,0.7,4.8,2.1l-1.2,1.1c-1.1-1-2.3-1.5-3.6-1.5c-1.3,0-2.5,0.5-3.5,1.4c-1,1-1.4,2.1-1.4,3.5
					c0,1.4,0.5,2.5,1.4,3.5c1,1,2.1,1.4,3.5,1.4c1.2,0,2.1-0.3,2.9-0.9v-3.9h1.7L643.3,174.3L643.3,174.3z"/>
				<path class="st4" d="M650.6,163.2l4.7,12.9h-1.8l-1.7-4.6h-3.4l-1.7,4.6H645l4.7-12.9H650.6z M651.3,169.9l-1.1-3l-1.1,3H651.3z
					"/>
				<path class="st4" d="M658.1,163.2c2.1,0,3.7,0.6,4.9,1.8c1.3,1.3,1.9,2.8,1.9,4.7c0,1.8-0.6,3.4-1.9,4.7
					c-1.2,1.2-2.8,1.8-4.9,1.8h-1.2v-12.9L658.1,163.2L658.1,163.2z M658.6,164.9v9.5c1.3,0,2.4-0.4,3.3-1.3c1-1,1.4-2.1,1.4-3.5
					c0-1.4-0.5-2.5-1.4-3.5C661,165.3,659.9,164.9,658.6,164.9z"/>
				<path class="st4" d="M671.4,163.2l4.7,12.9h-1.8l-1.7-4.6h-3.4l-1.7,4.6h-1.8l4.7-12.9H671.4z M672,169.9l-1.1-3l-1.1,3H672z"/>
			</g>
		</g>
	</g>
</g>
<text transform="matrix(1 0 0 1 279.6929 330.3974)"><tspan x="0" y="0" class="st11 st12 st13">Figura 10. Vivienda propia 41 %</tspan><tspan x="30" y="15.8" class="st11 st12 st13">Fuente: MSPS (2018)</tspan></text>
</svg>
