<?xml version="1.0" encoding="utf-8"?>
<!-- Generator: Adobe Illustrator 16.0.0, SVG Export Plug-In . SVG Version: 6.00 Build 0)  -->
<!DOCTYPE svg PUBLIC "-//W3C//DTD SVG 1.1//EN" "http://www.w3.org/Graphics/SVG/1.1/DTD/svg11.dtd">
<svg version="1.1" id="Capa_1" xmlns="http://www.w3.org/2000/svg" xmlns:xlink="http://www.w3.org/1999/xlink" x="0px" y="0px"
	 width="734.339px" height="413.176px" viewBox="0 0 734.339 413.176" enable-background="new 0 0 734.339 413.176"
	 xml:space="preserve">
<g>
	<g>
		<g>
			<path fill="#F39200" d="M349.378,162.91l-0.939,0.173c-0.011,0.002-0.024,0.004-0.037,0.003l-4.944-0.173l-0.681,0.162
				l-0.647,0.389l-0.189,0.221l-0.491,0.526l-0.503,0.775l-1.654,3.796l-0.392,0.678c-0.006,0.011-0.015,0.023-0.024,0.033
				l-0.979,1.014l-0.093,0.275c-0.004,0.014-0.01,0.026-0.018,0.038l-0.8,1.25c-0.007,0.011-0.015,0.02-0.023,0.03l-0.555,0.555
				l-0.748,0.572l-0.775,0.495l-0.717,0.325c-0.011,0.005-0.023,0.008-0.035,0.011l-0.974,0.208l-1.87,0.074l-0.841,0.17
				l-1.428,0.581c-0.015,0.005-0.028,0.009-0.043,0.011l-0.503,0.066l-0.444,0.159l-1.473,1.096l-1.585,0.847l-0.461,0.366
				l-0.429,0.286l-1.009,0.421l-0.326,0.296l-0.117,0.353l-0.068,1.089c-0.002,0.038-0.017,0.074-0.041,0.103l-0.209,0.243
				c-0.02,0.023-0.044,0.04-0.072,0.05l-0.352,0.128l-4.074,3.558c-0.012,0.01-0.023,0.017-0.038,0.024l-0.415,0.208
				c-0.011,0.005-0.022,0.01-0.033,0.013l-0.854,0.229l-0.328,0.357l-1.552,3.69c-0.006,0.011-0.012,0.021-0.019,0.032l-0.485,0.695
				c-0.009,0.012-0.018,0.022-0.029,0.031l-0.218,0.191l-0.069,36.432v11.32l0.313-0.062c0.042-0.009,0.084-0.001,0.121,0.021
				l0.39,0.227l0.385,0.064l0.463,0.106c0.054,0.012,0.099,0.049,0.121,0.1l0.054-0.216c0.019-0.078,0.088-0.132,0.169-0.132h0.172
				c0.035,0,0.069,0.01,0.098,0.03l0.416,0.278c0.022,0.014,0.039,0.031,0.052,0.053l0.292,0.441l-0.021-0.192
				c-0.005-0.04,0.006-0.082,0.027-0.115l0.139-0.209c0.027-0.04,0.069-0.067,0.116-0.075l0.209-0.035
				c0.054-0.009,0.105,0.008,0.145,0.041l0.312,0.279c0.032,0.029,0.052,0.068,0.057,0.111l0.035,0.312
				c0.001,0.014,0.001,0.03-0.002,0.044l-0.012,0.091l0.357-0.168c0.023-0.01,0.049-0.017,0.073-0.017l0,0h0.348
				c0.034,0,0.066,0.011,0.094,0.027l0.382,0.244c0.023,0.016,0.044,0.036,0.059,0.061l0.252,0.439l0.108,0.055l0.301-0.055
				l0.325-0.162l0.295-0.197c0.016-0.011,0.034-0.019,0.054-0.024l0.277-0.069c0.024-0.006,0.051-0.007,0.077-0.002l0.173,0.035
				c0.048,0.01,0.09,0.039,0.115,0.081l0.104,0.174c0.018,0.027,0.025,0.058,0.025,0.089v0.254l0,0l0.024,0.09l0.854-0.67
				l0.094-0.142l0,0v-0.134l-0.059-0.234L322.029,238c-0.011-0.019-0.018-0.038-0.021-0.059l-0.033-0.209
				c-0.007-0.036-0.002-0.072,0.016-0.106l0.068-0.138c0.03-0.058,0.091-0.096,0.156-0.096h0.243c0.04,0,0.08,0.015,0.112,0.041
				l0.208,0.173l0.574,0.654l0.226-0.254c0.036-0.04,0.09-0.062,0.143-0.058l0.486,0.035l0.401,0.071
				c0.021,0.004,0.04,0.012,0.059,0.023l2.083,1.256l0.67-0.547c0.013-0.011,0.029-0.02,0.044-0.026l1.945-0.799l0.509-0.32
				l0.231-0.26l0.132-0.523c0.005-0.021,0.016-0.039,0.028-0.056l0.207-0.278c0.014-0.017,0.028-0.031,0.047-0.043l1.162-0.731
				l0.11-0.325l-0.033-0.523l-0.095-0.403l-0.199-0.399c-0.008-0.015-0.014-0.031-0.016-0.047l-0.035-0.209
				c-0.007-0.036-0.001-0.074,0.016-0.106l0.07-0.139c0.021-0.045,0.063-0.079,0.112-0.091l0.254-0.063l0.178-0.102l0.056-0.111
				l-0.016-0.089l-0.131-0.109l-0.208-0.06l-0.506-0.1c-0.043-0.009-0.08-0.032-0.105-0.066l-0.105-0.139
				c-0.045-0.062-0.045-0.146,0-0.208l0.104-0.138c0.011-0.015,0.021-0.026,0.035-0.036l0.387-0.29l0.365-0.663l0.539-0.653
				l0.33-0.295c0.009-0.009,0.02-0.016,0.031-0.022l0.502-0.283l0.046-0.117c0.017-0.04,0.046-0.073,0.085-0.091l0.207-0.104
				c0.067-0.033,0.149-0.02,0.201,0.033l0.273,0.274l0.107,0.016l0.149-0.055l0.036-0.146l-0.058-0.236
				c-0.006-0.021-0.008-0.042-0.006-0.062l0.035-0.312c0.004-0.027,0.013-0.054,0.028-0.076l0.07-0.105
				c0.041-0.061,0.115-0.089,0.187-0.071l0.139,0.034c0.05,0.013,0.09,0.045,0.113,0.09l0.069,0.14l0.128,0.372l0.088-0.038
				l0.044-0.197l-0.027-0.248l-0.364-0.629c-0.021-0.035-0.027-0.076-0.021-0.115l0.068-0.417c0.008-0.043,0.029-0.081,0.063-0.107
				l0.174-0.139c0.021-0.017,0.046-0.029,0.074-0.034l0.253-0.051l-0.027-0.08l-0.177-0.237l-0.294-0.228
				c-0.017-0.011-0.028-0.026-0.039-0.041l-0.209-0.313c-0.014-0.022-0.024-0.049-0.027-0.076l-0.035-0.312
				c-0.006-0.053,0.012-0.105,0.05-0.143l0.327-0.328l0.126-0.251l0.098-0.262c0.012-0.031,0.032-0.058,0.059-0.078l0.069-0.052l0,0
				v-0.504c0-0.096,0.078-0.174,0.174-0.174h0.881l0.176-0.132l0.162-0.939l0.115-0.326l-0.468-0.655l-0.149-0.259
				c-0.025-0.048-0.029-0.105-0.008-0.156c0.022-0.05,0.066-0.086,0.12-0.1l0.452-0.103l0.688-0.039l0.588,0.071
				c0.024,0.002,0.05,0.01,0.07,0.024l0.277,0.174c0.027,0.016,0.049,0.041,0.063,0.069l0.047,0.091l0.175,0.099l0.408,0.082
				l0.563-0.848l0.222-0.259c0.013-0.016,0.03-0.029,0.048-0.039l0.312-0.174c0.019-0.01,0.038-0.016,0.058-0.021l0.452-0.069
				c0.04-0.006,0.08,0.003,0.115,0.023l0.174,0.104c0.016,0.01,0.03,0.022,0.043,0.037l0.209,0.242
				c0.009,0.01,0.016,0.023,0.023,0.037l0.123,0.246l0.228-0.425c0.025-0.047,0.07-0.08,0.122-0.088l0.382-0.07
				c0.014-0.003,0.026-0.003,0.039-0.003l1.579,0.069l0.571-0.102l0.354-0.13c0.024-0.009,0.049-0.012,0.074-0.011l0.383,0.035
				c0.031,0.002,0.061,0.013,0.085,0.031l0.486,0.347l0.385,0.348l0.075,0.044l0.034-0.06l0.101-1.177
				c0.002-0.025,0.01-0.049,0.022-0.071l0.139-0.244c0.031-0.054,0.088-0.087,0.15-0.087h0.25l0.315-0.263l0.095-0.811l-0.025-0.164
				l-0.132-0.133c-0.045-0.044-0.061-0.111-0.044-0.171l0.068-0.243c0.012-0.04,0.038-0.074,0.072-0.098l0.208-0.139
				c0.024-0.017,0.054-0.026,0.083-0.028l0.451-0.035l0.412,0.035l0.493-0.035l0.484-0.065l0.672-0.302l0.472-0.146
				c0.03-0.01,0.064-0.01,0.098-0.002l0.382,0.104c0.028,0.008,0.056,0.023,0.076,0.044l0.244,0.244l0.166,0.229l0.093,0.047
				l0.131-0.066l0.4-0.146c0.011-0.004,0.022-0.007,0.035-0.009l0.485-0.069l0.872-0.304c0.021-0.008,0.045-0.012,0.069-0.01
				l0.485,0.034c0.032,0.002,0.063,0.014,0.09,0.034l0.299,0.216l0.018-0.163c0.002-0.026,0.01-0.052,0.024-0.075l0.174-0.277
				c0.025-0.041,0.064-0.068,0.109-0.078l0.312-0.07c0.042-0.007,0.085-0.002,0.124,0.019l0.312,0.174
				c0.024,0.014,0.047,0.035,0.062,0.059l0.174,0.279l0.107,0.127h0.197l0.218-0.034c0.021-0.003,0.04-0.003,0.06,0.002l0.174,0.034
				c0.036,0.008,0.069,0.027,0.096,0.056l0.251,0.283l0.38,0.158c0.014,0.006,0.026,0.013,0.038,0.022l0.139,0.104
				c0.033,0.026,0.058,0.063,0.066,0.105l0.034,0.173c0.004,0.018,0.005,0.036,0.004,0.054l-0.018,0.147l0.466-0.372
				c0.02-0.016,0.044-0.028,0.069-0.034l0.312-0.07c0.039-0.009,0.08-0.004,0.115,0.015l0.209,0.104l0.396,0.296h0.117
				c0.049,0,0.096,0.021,0.128,0.057c0.033,0.036,0.049,0.085,0.044,0.135l-0.061,0.578l0.045,0.044l0.146,0.212l0.076,0.061
				l0.256-0.092l0.129-0.129l0.301-0.534c0.013-0.022,0.027-0.041,0.047-0.055l0.278-0.208c0.046-0.034,0.105-0.043,0.16-0.026
				l0.312,0.105l1.434,0.192l0.14-0.087l-0.031-0.837c-0.001-0.029,0.006-0.058,0.019-0.084l0.174-0.348
				c0.02-0.039,0.053-0.069,0.094-0.084l0.278-0.105c0.036-0.013,0.075-0.014,0.111-0.004l0.347,0.105
				c0.066,0.02,0.114,0.077,0.122,0.146l0.022,0.168l0.078,0.026h0.24l0.761-0.397c0.014-0.006,0.026-0.012,0.039-0.016l0.279-0.068
				c0.047-0.013,0.097-0.004,0.137,0.024l0.209,0.138c0.016,0.01,0.028,0.023,0.039,0.036l0.222,0.278l0.253-0.017l-0.019-0.206
				l-0.102-0.466c-0.014-0.065,0.011-0.132,0.063-0.172l0.312-0.244c0.037-0.028,0.085-0.04,0.131-0.035l0.244,0.035l0.446,0.103
				h0.195l0.2-0.066l0.036-0.132v-0.288l0.036-0.299c0.009-0.074,0.064-0.133,0.138-0.149l0.615-0.129l0.487-0.423
				c0.043-0.036,0.101-0.049,0.155-0.036l0.278,0.069l0.78,0.304l0.649-0.061l0.226-0.141l0.229-0.229l0.235-0.161
				c0.034-0.023,0.077-0.033,0.115-0.028l0.312,0.035c0.029,0.002,0.058,0.014,0.082,0.031l0.22,0.156l0.13,0.037l0.034-0.025
				l0.155-0.341c0.007-0.014,0.014-0.026,0.023-0.037l0.277-0.348c0.008-0.01,0.017-0.018,0.025-0.025l0.383-0.314
				c0.021-0.018,0.049-0.03,0.076-0.036l0.634-0.121l0.07-0.187c0.013-0.032,0.034-0.059,0.062-0.079l0.242-0.174
				c0.019-0.013,0.037-0.022,0.061-0.029l0.18-0.044l-0.072-0.104c-0.017-0.023-0.026-0.051-0.03-0.078l-0.035-0.278
				c-0.004-0.031,0.002-0.063,0.014-0.092l0.14-0.312c0.024-0.055,0.074-0.094,0.135-0.102l0.485-0.07l0.977-0.035l0.105-0.07
				l0.057-0.31c0.002-0.014,0.007-0.027,0.013-0.042l0.174-0.381c0.008-0.015,0.017-0.029,0.027-0.043l0.175-0.2l-0.056-0.15
				l-0.29-0.323c-0.026-0.028-0.042-0.063-0.044-0.102l-0.036-0.416c-0.006-0.072,0.033-0.138,0.096-0.17l0.348-0.174
				c0.028-0.014,0.059-0.02,0.089-0.018l0.521,0.035l1.021,0.141c0.017,0.002,0.034,0.007,0.051,0.014l0.52,0.244
				c0.047,0.022,0.08,0.061,0.094,0.11l0.139,0.486c0.004,0.012,0.006,0.023,0.006,0.036l0.034,0.521l0.076,0.153l0.779-0.433
				c0.011-0.005,0.021-0.01,0.032-0.013l0.557-0.174c0.061-0.02,0.129-0.003,0.175,0.043l0.277,0.278
				c0.046,0.044,0.061,0.11,0.044,0.171l-0.07,0.243c-0.004,0.014-0.009,0.027-0.016,0.039l-0.139,0.244l-0.029,0.094l0.055,0.081
				l0.172,0.039l0.232-0.154l0.505-0.574l0.187-0.249l0.235-0.57c0.005-0.014,0.013-0.027,0.021-0.038l0.208-0.279
				c0.025-0.034,0.061-0.055,0.103-0.064l0.312-0.07c0.058-0.012,0.117,0.005,0.16,0.047l0.208,0.208
				c0.01,0.011,0.019,0.022,0.026,0.034l0.331,0.562l0.342,0.263l0.169-0.074l0.493-0.822c0.035-0.06,0.104-0.091,0.173-0.083
				c0.069,0.01,0.125,0.06,0.143,0.127l0.105,0.382l0.071,0.796l0.083,0.165l0.137,0.019l0.269-0.119l0.529-0.367
				c0.055-0.037,0.124-0.04,0.183-0.009l0.868,0.488l0.811,0.321l0.782-0.062l0.909-0.617l1.128-1.573
				c0.01-0.014,0.021-0.025,0.035-0.036l0.312-0.243c0.014-0.01,0.026-0.019,0.041-0.023l0.328-0.137l0.046-0.279l-0.112-0.336
				l-0.249-0.25c-0.023-0.023-0.039-0.053-0.047-0.085l-0.162-0.714l-0.416-0.416l-0.434-0.333c-0.026-0.02-0.046-0.045-0.058-0.075
				l-0.174-0.451c-0.003-0.013-0.008-0.026-0.009-0.039l-0.105-0.729l-0.203-0.707l-0.143-0.816
				c-0.003-0.017-0.003-0.034-0.001-0.051l0.104-0.869c0.002-0.022,0.009-0.043,0.021-0.062l0.405-0.746l0.056-0.217l-0.056-0.245
				l-0.298-0.498c-0.006-0.01-0.012-0.022-0.016-0.034l-0.104-0.312c-0.009-0.03-0.012-0.06-0.006-0.09l0.036-0.173
				c0.002-0.013,0.006-0.024,0.011-0.036l0.123-0.279v-0.114l-0.038-0.052l-0.23-0.087c-0.022-0.008-0.044-0.022-0.062-0.039
				l-0.105-0.105c-0.023-0.023-0.039-0.053-0.046-0.086l-0.169-0.774l-0.142-0.255l-0.195-0.136
				c-0.016,0.016-0.033,0.028-0.053,0.037c-0.062,0.027-0.137,0.016-0.188-0.03l-0.382-0.348l-0.19-0.225
				c-0.018-0.021-0.029-0.044-0.035-0.07l-0.07-0.277c-0.003-0.021-0.007-0.042-0.003-0.061l0.034-0.313
				c0.004-0.033,0.017-0.063,0.036-0.089l0.141-0.174c0.013-0.016,0.028-0.03,0.046-0.041l0.137-0.082l0.063-0.106l0.03-0.208
				l-0.037-0.696c-0.001-0.019,0.001-0.038,0.007-0.056l0.168-0.606l0.068-1.301l0.107-0.513c0.005-0.021,0.013-0.04,0.024-0.057
				l0.242-0.382l0.149-0.332l0.066-1.011c0.002-0.014,0.005-0.026,0.009-0.04l0.117-0.385l-0.072-0.146
				c-0.022-0.043-0.024-0.094-0.008-0.14l0.094-0.249v-0.239l-0.26-0.52c-0.007-0.013-0.012-0.028-0.016-0.044l-0.034-0.174
				c-0.003-0.015-0.003-0.03-0.003-0.045l0.035-0.521l0.141-0.918l0.312-0.912l0.034-0.429l-0.037-1.023
				c0-0.016,0.002-0.032,0.005-0.048l0.036-0.138c0.006-0.027,0.019-0.053,0.037-0.073l0.21-0.24l0.021-0.146l-0.04-0.1
				l-0.431-0.463l-0.155-0.231c-0.01-0.015-0.018-0.031-0.021-0.049l-0.07-0.243l-0.074-0.473l-0.002-0.304
				c0-0.015,0.001-0.029,0.005-0.042l0.07-0.278l0.214-0.574l0.023-0.155l-0.034-0.538l-0.064-0.38l-0.133-0.33l-0.228-0.354
				c-0.011-0.017-0.019-0.035-0.022-0.055l-0.209-0.902c-0.006-0.024-0.006-0.051-0.001-0.076l0.209-0.973
				c0.004-0.02,0.012-0.039,0.023-0.056l0.59-0.938c0.011-0.016,0.021-0.029,0.036-0.041l0.868-0.729
				c0.035-0.031,0.082-0.043,0.129-0.04l0.291,0.029l0.17-0.096l0.336-0.369c0.019-0.018,0.041-0.032,0.065-0.041l0.675-0.235
				l0.17-0.114l0.401-0.468c0.009-0.01,0.02-0.02,0.031-0.029l0.242-0.173c0.019-0.013,0.038-0.021,0.06-0.027l0.231-0.058
				l0.074-0.076l0.267-0.794c0.006-0.02,0.017-0.038,0.028-0.054l0.394-0.492l0.042-0.166l-0.027-0.04l-0.399-0.431
				c-0.024-0.026-0.04-0.059-0.046-0.094l-0.068-0.486l-0.242-1.349l-0.002-1.108l0.176-1.037c0.003-0.012,0.005-0.024,0.01-0.036
				l0.384-0.938l0.57-0.897c0.006-0.012,0.015-0.022,0.025-0.032l1.372-1.304l0.196-0.327c0.006-0.01,0.013-0.02,0.021-0.028
				l1.112-1.216c0.012-0.012,0.024-0.022,0.039-0.031l0.348-0.208l0.829-0.348l0.217-0.189l0.083-0.331l-0.063-0.47l-0.149-0.418
				l-0.546-0.385c-0.018-0.013-0.033-0.03-0.045-0.048l-0.869-1.354c-0.018-0.028-0.026-0.061-0.026-0.094v-0.903
				c0-0.018,0.001-0.034,0.006-0.05l0.104-0.348c0.008-0.023,0.019-0.046,0.036-0.064l0.243-0.278
				c0.008-0.01,0.018-0.019,0.028-0.026l0.237-0.171l-0.495-0.036c-0.035-0.002-0.067-0.015-0.095-0.036l-0.624-0.486l-0.627-0.625
				l-0.653-0.392l-3.622-0.863l-1.606-0.135l-0.424-0.104h-0.146l-0.213,0.107l-0.396,0.428l-0.257,0.223
				c-0.025,0.022-0.058,0.036-0.092,0.04l-0.277,0.035l-0.312,0.001l-0.17,0.042l-0.064,0.175l-0.032,0.224
				c-0.003,0.022-0.011,0.043-0.021,0.062l-0.138,0.243c-0.009,0.014-0.019,0.026-0.029,0.037l-0.174,0.174
				c-0.021,0.02-0.045,0.034-0.071,0.042l-0.452,0.139l-0.793,0.276l-1.005,0.146c-0.014,0.002-0.028,0.002-0.04,0.001l-2.969-0.276
				l-0.987,0.136l-2.641,0.929c-0.019,0.006-0.038,0.01-0.059,0.01h-0.834c-0.015,0-0.029-0.001-0.045-0.006l-1.528-0.417
				l-0.454-0.029l-0.477,0.034l-1.683,0.515c-0.015,0.004-0.028,0.007-0.042,0.007l-1.417,0.067l-0.208,0.118l-0.6,0.504
				c-0.012,0.01-0.025,0.019-0.04,0.026l-0.314,0.138c-0.028,0.014-0.06,0.018-0.092,0.014l-0.555-0.069
				c-0.019-0.003-0.036-0.007-0.052-0.016l-0.955-0.443l-0.468-0.101l-0.496-0.03c-0.014-0.001-0.028-0.004-0.042-0.008
				l-1.494-0.486l-0.457-0.062l-1.461,0.071c-0.014,0-0.028-0.001-0.042-0.003l-0.521-0.104l-0.574-0.178l-0.465-0.123l-0.366,0.122
				c-0.043,0.015-0.09,0.011-0.131-0.008l-0.849-0.408l-0.443-0.095l-0.506,0.032l-0.392,0.151l-0.634,0.634
				c-0.014,0.012-0.026,0.022-0.042,0.03l-0.497,0.266l-1.337,1.337c-0.012,0.011-0.024,0.021-0.038,0.029l-1.354,0.764
				c-0.062,0.035-0.138,0.029-0.193-0.015l-0.521-0.417l-0.974-1.143l-0.399-0.2l-0.547,0.122l-1.094,0.513
				c-0.012,0.005-0.023,0.01-0.036,0.012l-0.597,0.133l-2.304,1.409C349.418,162.898,349.398,162.906,349.378,162.91z"/>
		</g>
	</g>
	<g>
		<g>
			<g>
				<g>
					<path fill="#FFFFFF" d="M514.866,175.865l-3.766,28.459h-11.241l-4.276-28.459h7.805c0.907,7.839,1.555,14.472,1.942,19.898
						c0.382-5.484,0.788-10.353,1.218-14.606l0.514-5.292H514.866z"/>
					<path fill="#FFFFFF" d="M523.515,175.865v28.459h-7.4v-28.459H523.515z"/>
					<path fill="#FFFFFF" d="M543.765,188.257h-7.4v-4.946c0-1.438-0.079-2.336-0.237-2.692s-0.507-0.535-1.046-0.535
						c-0.609,0-0.996,0.217-1.16,0.65s-0.246,1.371-0.246,2.812v13.219c0,1.383,0.082,2.285,0.246,2.707s0.533,0.633,1.107,0.633
						c0.551,0,0.911-0.211,1.081-0.634s0.255-1.416,0.255-2.978v-3.577h7.4v1.109c0,2.946-0.208,5.035-0.624,6.267
						c-0.416,1.232-1.336,2.312-2.76,3.239c-1.424,0.927-3.179,1.391-5.265,1.391c-2.168,0-3.955-0.393-5.361-1.178
						s-2.338-1.872-2.795-3.261s-0.686-3.478-0.686-6.267v-8.314c0-2.051,0.07-3.589,0.211-4.614s0.56-2.013,1.257-2.962
						s1.664-1.696,2.9-2.241s2.657-0.817,4.263-0.817c2.18,0,3.979,0.421,5.396,1.264c1.418,0.842,2.35,1.893,2.795,3.151
						s0.668,3.215,0.668,5.872V188.257z"/>
					<path fill="#FFFFFF" d="M563.435,175.865v28.459h-7.4v-11.953h-2.215v11.953h-7.4v-28.459h7.4v10.178h2.215v-10.178H563.435z"
						/>
					<path fill="#FFFFFF" d="M579.198,175.865l4.232,28.459h-7.563l-0.397-5.115h-2.647l-0.445,5.115h-7.651l3.775-28.459H579.198z
						 M575.275,194.164c-0.375-3.224-0.75-7.208-1.127-11.953c-0.754,5.45-1.228,9.434-1.42,11.953H575.275z"/>
					<path fill="#FFFFFF" d="M584.687,175.865h5.537c3.574,0,5.991,0.164,7.251,0.492s2.218,0.867,2.874,1.617
						s1.066,1.585,1.23,2.505s0.246,2.728,0.246,5.423v9.967c0,2.555-0.12,4.263-0.36,5.124s-0.659,1.535-1.257,2.021
						s-1.336,0.826-2.215,1.02s-2.203,0.29-3.973,0.29h-9.334V175.865z M592.087,180.734v18.721c1.066,0,1.723-0.214,1.969-0.642
						s0.369-1.591,0.369-3.489v-11.057c0-1.289-0.041-2.115-0.123-2.479s-0.27-0.63-0.562-0.8S592.896,180.734,592.087,180.734z"/>
					<path fill="#FFFFFF" d="M617.377,175.865l4.232,28.459h-7.563l-0.397-5.115h-2.647l-0.445,5.115h-7.651l3.775-28.459H617.377z
						 M613.455,194.164c-0.375-3.224-0.75-7.208-1.127-11.953c-0.754,5.45-1.228,9.434-1.42,11.953H613.455z"/>
				</g>
			</g>
		</g>
	</g>
	<g>
		<g>
			<path fill="#F2961C" d="M498.216,225.136v4.156h-1.68v-12.987h3.685c1.044,0.141,1.926,0.571,2.646,1.291
				c0.86,0.866,1.291,1.905,1.291,3.117c0,1.223-0.43,2.266-1.291,3.129c-0.86,0.863-1.899,1.295-3.117,1.295H498.216z
				 M498.216,217.993v5.455h1.534c0.747,0,1.387-0.267,1.92-0.799c0.533-0.533,0.799-1.178,0.799-1.936
				c0-0.752-0.267-1.393-0.799-1.924c-0.533-0.53-1.173-0.795-1.92-0.795H498.216z"/>
			<path fill="#F2961C" d="M512.445,226.427l1.68,0.601c-0.412,0.568-0.709,0.944-0.893,1.128c-0.904,0.904-1.994,1.355-3.271,1.355
				c-1.272,0-2.359-0.452-3.263-1.355s-1.355-1.994-1.355-3.271c0-1.277,0.452-2.368,1.355-3.271
				c0.904-0.903,1.991-1.355,3.263-1.355c1.277,0,2.367,0.452,3.271,1.355c0.184,0.184,0.481,0.555,0.893,1.112l-1.68,0.617
				c-0.217-0.265-0.363-0.436-0.438-0.511c-0.563-0.563-1.245-0.844-2.045-0.844c-0.795,0-1.476,0.283-2.042,0.848
				s-0.848,1.249-0.848,2.05c0,0.795,0.283,1.476,0.848,2.041s1.246,0.848,2.042,0.848c0.801,0,1.485-0.281,2.054-0.844
				C512.084,226.854,512.228,226.687,512.445,226.427z"/>
			<path fill="#F2961C" d="M517.306,216.305c2.11,0.011,3.755,0.608,4.935,1.793c1.293,1.304,1.94,2.871,1.94,4.7
				c0,1.834-0.646,3.401-1.94,4.7c-1.18,1.185-2.825,1.783-4.935,1.794h-1.233v-12.987H517.306z M517.753,218.018v9.57
				c1.336,0,2.432-0.43,3.287-1.291c0.963-0.963,1.445-2.129,1.445-3.499c0-1.363-0.482-2.529-1.445-3.498
				C520.185,218.445,519.089,218.018,517.753,218.018z"/>
			<path fill="#F2961C" d="M536,229.454c-1.331,0-2.395-0.399-3.19-1.197c-0.795-0.798-1.193-1.76-1.193-2.886
				c0-1.385,0.76-2.633,2.281-3.742c-0.73-0.785-1.096-1.599-1.096-2.443c0-0.828,0.296-1.542,0.889-2.143
				c0.592-0.601,1.316-0.901,2.171-0.901h0.268c0.855,0,1.58,0.3,2.175,0.901s0.893,1.315,0.893,2.143
				c0,0.844-0.395,1.65-1.185,2.419c1.58,1.125,2.37,2.381,2.37,3.766c0,1.125-0.398,2.087-1.193,2.886
				C538.394,229.055,537.331,229.454,536,229.454z M536,227.733c0.855,0,1.514-0.23,1.977-0.69c0.463-0.459,0.694-1.017,0.694-1.672
				c0-0.66-0.23-1.236-0.69-1.729c-0.454-0.498-1.115-0.836-1.98-1.015c-0.871,0.179-1.534,0.517-1.988,1.015
				c-0.455,0.493-0.682,1.069-0.682,1.729c0,0.655,0.23,1.212,0.69,1.672C534.479,227.503,535.139,227.733,536,227.733z
				 M535.959,217.863c-0.038-0.005-0.07-0.008-0.097-0.008c-0.368,0-0.682,0.128-0.942,0.385c-0.26,0.257-0.39,0.572-0.39,0.946
				c0,0.379,0.137,0.714,0.41,1.006c0.273,0.292,0.521,0.482,0.743,0.568c0.119,0.043,0.225,0.073,0.316,0.089
				c0.092-0.017,0.198-0.046,0.317-0.089c0.216-0.086,0.462-0.276,0.738-0.568c0.276-0.292,0.414-0.627,0.414-1.006
				c0-0.374-0.13-0.688-0.39-0.946c-0.26-0.257-0.576-0.385-0.95-0.385c-0.021,0-0.051,0.002-0.089,0.008H535.959z"/>
			<path fill="#F2961C" d="M548.183,216.305h1.469v7.8h1.145v1.68h-1.145v3.506h-1.68v-3.506h-5.316L548.183,216.305z
				 M547.972,220.096l-2.395,4.01h2.395V220.096z"/>
			<path fill="#F2961C" d="M555.553,221.281c0.481-0.52,1.28-0.779,2.395-0.779c1.12,0,2.051,0.371,2.792,1.112
				c0.898,0.904,1.348,1.994,1.348,3.271c0,1.271-0.449,2.358-1.348,3.259s-1.986,1.352-3.263,1.352
				c-1.272,0-2.359-0.449-3.263-1.348c-0.866-0.871-1.301-2.081-1.307-3.628v-0.024c0-1.532,0.414-2.879,1.242-4.042
				c0.833-1.169,1.959-2.551,3.376-4.147h2.208C557.769,218.34,556.375,219.998,555.553,221.281z M554.579,224.885
				c0,0.801,0.283,1.482,0.848,2.045c0.565,0.562,1.249,0.844,2.05,0.844c0.795,0,1.476-0.281,2.041-0.844
				c0.565-0.563,0.848-1.245,0.848-2.045s-0.283-1.483-0.848-2.046c-0.565-0.562-1.246-0.844-2.041-0.844
				c-0.801,0-1.484,0.281-2.05,0.844C554.862,223.402,554.579,224.084,554.579,224.885z"/>
			<path fill="#27515D" d="M501.768,254.412l-5.938-16.354h2.249l4.262,11.724l4.272-11.724h2.259l-5.959,16.354H501.768z"/>
			<path fill="#27515D" d="M513.236,238.058v16.354h-2.116v-16.354H513.236z"/>
			<path fill="#27515D" d="M529.17,250.517l1.584,1.421c-1.936,1.765-3.983,2.647-6.143,2.647c-2.31,0-4.279-0.814-5.908-2.443
				c-1.629-1.628-2.443-3.598-2.443-5.908c0-2.303,0.814-4.272,2.443-5.908c1.628-1.635,3.598-2.453,5.908-2.453
				c2.16,0,4.208,0.883,6.143,2.647l-1.584,1.441c-1.458-1.294-2.978-1.942-4.559-1.942c-1.71,0-3.174,0.606-4.39,1.819
				s-1.824,2.678-1.824,4.395c0,1.724,0.608,3.193,1.824,4.406s2.68,1.819,4.39,1.819
				C526.192,252.459,527.712,251.812,529.17,250.517z"/>
			<path fill="#27515D" d="M535.416,247.645v6.767H533.3v-16.354h2.116v7.472h5.049v-7.472h2.116v16.354h-2.116v-6.767H535.416z"/>
			<path fill="#27515D" d="M551.719,238.058l5.949,16.354h-2.249l-2.105-5.785h-4.334l-2.095,5.785h-2.259l5.949-16.354H551.719z
				 M552.547,246.511l-1.4-3.833l-1.39,3.833H552.547z"/>
			<path fill="#27515D" d="M561.266,238.058c2.657,0.014,4.729,0.767,6.214,2.259c1.628,1.643,2.443,3.615,2.443,5.918
				c0,2.31-0.814,4.283-2.443,5.918c-1.485,1.492-3.557,2.245-6.214,2.259h-1.554v-16.354H561.266z M561.828,240.214v12.051
				c1.683,0,3.063-0.542,4.14-1.625c1.213-1.213,1.819-2.682,1.819-4.406c0-1.717-0.606-3.185-1.819-4.405
				C564.891,240.752,563.511,240.214,561.828,240.214z"/>
			<path fill="#27515D" d="M578.048,238.058l5.949,16.354h-2.249l-2.105-5.785h-4.334l-2.095,5.785h-2.259l5.949-16.354H578.048z
				 M578.876,246.511l-1.4-3.833l-1.39,3.833H578.876z"/>
		</g>
	</g>
	<g>
		<g>
			<polyline fill="none" stroke="#FFFFFF" stroke-width="2" points="357.134,196.062 357.259,185.55 486.044,185.55 			"/>
			<g>
				<circle fill="#FFFFFF" cx="357.136" cy="195.949" r="2.256"/>
			</g>
		</g>
	</g>
</g>
</svg>
