<?xml version="1.0" encoding="utf-8"?>
<!-- Generator: Adobe Illustrator 16.0.0, SVG Export Plug-In . SVG Version: 6.00 Build 0)  -->
<!DOCTYPE svg PUBLIC "-//W3C//DTD SVG 1.1//EN" "http://www.w3.org/Graphics/SVG/1.1/DTD/svg11.dtd">
<svg version="1.1" id="Capa_1" xmlns="http://www.w3.org/2000/svg" xmlns:xlink="http://www.w3.org/1999/xlink" x="0px" y="0px"
	 width="197.461px" height="39.795px" viewBox="0 210.752 197.461 39.795" enable-background="new 0 210.752 197.461 39.795"
	 xml:space="preserve">
<g>
	<polygon opacity="0.7" fill="#FFFFFF" enable-background="new    " points="0,213.485 197.461,210.752 197.461,250.547 
		25.25,250.529 	"/>
	<g>
		<g>
			<path fill="#331842" d="M78.846,223.752h5.866v1.182h-2.059v13.714h-1.748v-13.714h-2.06L78.846,223.752L78.846,223.752z"/>
			<path fill="#331842" d="M86.514,223.752h2.628c1.354,0,2.271,0.141,2.75,0.424s0.718,0.791,0.718,1.525v3.373
				c0,0.619-0.158,1.057-0.474,1.313c-0.316,0.256-0.876,0.41-1.68,0.465c0.858,0.04,1.454,0.188,1.789,0.443
				c0.334,0.256,0.501,0.701,0.501,1.334v6.019h-1.829v-5.563c0-0.701-0.133-1.154-0.399-1.363
				c-0.267-0.208-0.815-0.313-1.646-0.313h-0.637v7.24h-1.72L86.514,223.752L86.514,223.752z M88.234,224.853v5.442h0.61
				c0.786,0,1.31-0.103,1.572-0.308c0.262-0.206,0.393-0.661,0.393-1.368v-2.07c0-0.713-0.131-1.176-0.393-1.383
				c-0.262-0.209-0.786-0.313-1.572-0.313H88.234L88.234,224.853z"/>
			<path fill="#331842" d="M97.447,223.752h2.521l2.886,14.896h-1.856l-0.69-4.142h-3.278l-0.745,4.142h-1.815L97.447,223.752z
				 M98.639,224.853l-1.45,8.563h2.886l-1.354-8.563H98.639z"/>
			<path fill="#331842" d="M104.682,223.752h2.628c1.354,0,2.271,0.141,2.75,0.424s0.718,0.791,0.718,1.525v3.373
				c0,0.619-0.158,1.057-0.475,1.313c-0.317,0.255-0.877,0.41-1.68,0.465c0.857,0.04,1.453,0.188,1.787,0.443
				s0.502,0.701,0.502,1.334v4.068c0,0.734-0.24,1.242-0.719,1.525s-1.396,0.424-2.75,0.424h-2.764v-14.895H104.682z
				 M106.402,224.853v5.442h0.609c0.786,0,1.31-0.103,1.571-0.308c0.262-0.206,0.393-0.661,0.393-1.368v-2.07
				c0-0.713-0.131-1.176-0.393-1.383c-0.263-0.209-0.785-0.313-1.571-0.313H106.402L106.402,224.853z M106.402,231.407v6.141h0.638
				c0.83,0,1.379-0.104,1.646-0.309s0.399-0.658,0.399-1.357v-2.799c0-0.699-0.133-1.153-0.399-1.363
				c-0.267-0.207-0.815-0.313-1.646-0.313H106.402z"/>
			<path fill="#331842" d="M115.614,223.752h2.521l2.885,14.896h-1.855l-0.691-4.142h-3.279l-0.744,4.142h-1.816L115.614,223.752z
				 M116.807,224.853l-1.449,8.563h2.885l-1.354-8.563H116.807z"/>
			<path fill="#331842" d="M125.396,223.752h1.748v11.855c0,1.246-0.21,2.102-0.63,2.57c-0.42,0.468-1.154,0.701-2.201,0.701
				c-1.048,0-1.777-0.185-2.188-0.555c-0.412-0.371-0.617-1.047-0.617-2.029v-1.656h1.775v1.605c0,0.619,0.074,1.029,0.223,1.231
				c0.15,0.202,0.418,0.303,0.808,0.303c0.406,0,0.688-0.131,0.847-0.394c0.158-0.262,0.237-0.788,0.237-1.576v-12.057H125.396z"/>
			<path fill="#331842" d="M136.383,226.792v8.816c0,1.279-0.229,2.148-0.69,2.605c-0.46,0.457-1.282,0.687-2.466,0.687
				c-1.165,0-1.979-0.231-2.438-0.696c-0.461-0.465-0.69-1.33-0.69-2.596v-8.816c0-1.252,0.231-2.108,0.696-2.569
				c0.466-0.462,1.285-0.692,2.459-0.692c1.175,0,1.99,0.229,2.445,0.688C136.157,224.674,136.383,225.534,136.383,226.792z
				 M134.583,226.59c0-0.754-0.1-1.271-0.299-1.551s-0.551-0.42-1.057-0.42c-0.497,0-0.842,0.137-1.036,0.409
				s-0.291,0.793-0.291,1.562v9.22c0,0.774,0.099,1.296,0.298,1.565c0.198,0.27,0.551,0.403,1.057,0.403
				c0.498,0,0.843-0.135,1.037-0.403c0.193-0.27,0.291-0.791,0.291-1.565V226.59L134.583,226.59z"/>
		</g>
	</g>
</g>
</svg>
