<?xml version="1.0" encoding="utf-8"?>
<!-- Generator: Adobe Illustrator 16.0.0, SVG Export Plug-In . SVG Version: 6.00 Build 0)  -->
<!DOCTYPE svg PUBLIC "-//W3C//DTD SVG 1.1//EN" "http://www.w3.org/Graphics/SVG/1.1/DTD/svg11.dtd">
<svg version="1.1" id="Capa_1" xmlns="http://www.w3.org/2000/svg" xmlns:xlink="http://www.w3.org/1999/xlink" x="0px" y="0px"
	 width="197.461px" height="336.657px" viewBox="0 0 197.461 336.657" enable-background="new 0 0 197.461 336.657"
	 xml:space="preserve">
<g>
	<polygon opacity="0.7" fill="#FFFFFF" enable-background="new    " points="0,2.731 197.461,0 197.461,39.794 25.25,39.775 	"/>
	<g>
		<g>
			<path fill="#331842" d="M29.884,12.999h1.829v14.896h-1.829V12.999z"/>
			<path fill="#331842" d="M34.762,12.999h2.357l2.859,14.007h0.027l-0.257-14.007h1.558v14.896h-2.384L36.09,14.08h-0.054
				l0.244,13.815h-1.517L34.762,12.999L34.762,12.999z"/>
			<path fill="#331842" d="M44.394,12.999h4.633v1.182h-2.913v5.402h2.805v1.172h-2.805v7.14h-1.72V12.999z"/>
			<path fill="#331842" d="M57.346,16.038v8.816c0,1.279-0.23,2.148-0.691,2.605c-0.46,0.458-1.282,0.687-2.466,0.687
				c-1.165,0-1.978-0.232-2.438-0.697c-0.46-0.464-0.69-1.329-0.69-2.595v-8.816c0-1.252,0.232-2.109,0.697-2.57
				c0.465-0.461,1.285-0.692,2.459-0.692c1.174,0,1.989,0.229,2.445,0.687S57.346,14.779,57.346,16.038z M55.543,15.836
				c0-0.754-0.099-1.271-0.298-1.551c-0.199-0.279-0.551-0.419-1.057-0.419c-0.497,0-0.842,0.137-1.036,0.409
				c-0.194,0.272-0.291,0.793-0.291,1.561v9.22c0,0.774,0.099,1.296,0.298,1.565c0.198,0.27,0.551,0.404,1.057,0.404
				c0.497,0,0.842-0.135,1.036-0.404s0.292-0.791,0.292-1.565L55.543,15.836L55.543,15.836z"/>
			<path fill="#331842" d="M60.38,12.999h2.628c1.354,0,2.271,0.141,2.75,0.424c0.479,0.283,0.718,0.791,0.718,1.525v3.374
				c0,0.619-0.158,1.057-0.474,1.312c-0.316,0.256-0.876,0.411-1.68,0.465c0.858,0.04,1.454,0.188,1.789,0.444
				c0.334,0.256,0.501,0.7,0.501,1.333v6.019h-1.829V22.33c0-0.7-0.133-1.154-0.399-1.363c-0.267-0.208-0.815-0.313-1.646-0.313
				h-0.637v7.241h-1.72L60.38,12.999L60.38,12.999z M62.101,14.099v5.443h0.61c0.786,0,1.31-0.103,1.572-0.308
				c0.262-0.206,0.393-0.662,0.393-1.369v-2.07c0-0.713-0.131-1.175-0.393-1.383c-0.262-0.208-0.786-0.313-1.572-0.313H62.101z"/>
			<path fill="#331842" d="M69.62,12.999h2.994l1.938,13.714h0.135l1.896-13.714h2.913v14.896h-1.504V14.119h-0.271L75.77,27.894
				h-2.412L71.34,14.119h-0.23v13.775h-1.49V12.999z"/>
			<path fill="#331842" d="M84.292,12.999h2.52l2.885,14.896h-1.855l-0.691-4.141h-3.278l-0.745,4.141h-1.815L84.292,12.999z
				 M85.484,14.099l-1.45,8.564h2.885l-1.354-8.564H85.484z"/>
			<path fill="#331842" d="M97.244,15.361v1.424h-1.815v-1.384c0-0.579-0.083-0.979-0.25-1.202
				c-0.167-0.222-0.463-0.333-0.888-0.333c-0.388,0-0.659,0.126-0.812,0.379c-0.154,0.252-0.23,0.782-0.23,1.591v9.22
				c0,0.828,0.081,1.367,0.244,1.616c0.162,0.249,0.46,0.374,0.894,0.374c0.371,0,0.637-0.118,0.8-0.353
				c0.162-0.236,0.244-0.637,0.244-1.202v-1.605h1.815v1.656c0,1.017-0.212,1.705-0.637,2.065c-0.425,0.36-1.183,0.541-2.276,0.541
				c-1.075,0-1.825-0.232-2.249-0.697c-0.425-0.464-0.637-1.329-0.637-2.595V16.04c0-1.259,0.212-2.118,0.637-2.575
				c0.424-0.458,1.174-0.687,2.249-0.687c1.102,0,1.862,0.179,2.283,0.535C97.034,13.668,97.244,14.352,97.244,15.361z"/>
			<path fill="#331842" d="M99.493,12.999h1.829v14.896h-1.829V12.999z"/>
			<path fill="#331842" d="M110.575,16.038v8.816c0,1.279-0.229,2.148-0.691,2.605c-0.459,0.458-1.281,0.687-2.465,0.687
				c-1.166,0-1.979-0.232-2.438-0.697c-0.46-0.464-0.69-1.329-0.69-2.595v-8.816c0-1.252,0.232-2.109,0.697-2.57
				c0.465-0.461,1.285-0.692,2.459-0.692s1.989,0.229,2.445,0.687S110.575,14.779,110.575,16.038z M108.773,15.836
				c0-0.754-0.099-1.271-0.298-1.551c-0.199-0.279-0.551-0.419-1.057-0.419c-0.498,0-0.842,0.137-1.037,0.409
				c-0.193,0.272-0.291,0.793-0.291,1.561v9.22c0,0.774,0.1,1.296,0.299,1.565c0.197,0.27,0.551,0.404,1.057,0.404
				c0.497,0,0.842-0.135,1.036-0.404s0.292-0.791,0.292-1.565L108.773,15.836L108.773,15.836z M107.866,9.393h1.909L108,11.645
				h-1.328L107.866,9.393z"/>
			<path fill="#331842" d="M113.609,12.999h2.356l2.859,14.007h0.026l-0.257-14.007h1.558v14.896h-2.385l-2.831-13.815h-0.055
				l0.244,13.815h-1.519V12.999H113.609z"/>
			<path fill="#331842" d="M127.482,12.999h2.222c1.355,0,2.276,0.143,2.764,0.429c0.488,0.286,0.732,0.793,0.732,1.521v4.282
				c0,0.728-0.244,1.232-0.732,1.515c-0.486,0.283-1.408,0.424-2.764,0.424h-0.5v6.726h-1.722V12.999L127.482,12.999z
				 M129.204,14.099v5.979h0.461c0.686,0,1.145-0.103,1.375-0.308c0.229-0.205,0.344-0.668,0.344-1.388v-2.586
				c0-0.72-0.114-1.183-0.344-1.389c-0.23-0.205-0.689-0.308-1.375-0.308H129.204z"/>
			<path fill="#331842" d="M141.518,16.038v8.816c0,1.279-0.23,2.148-0.691,2.605c-0.461,0.458-1.283,0.687-2.466,0.687
				c-1.165,0-1.978-0.232-2.438-0.697c-0.461-0.464-0.69-1.329-0.69-2.595v-8.816c0-1.252,0.231-2.109,0.698-2.57
				c0.465-0.461,1.285-0.692,2.459-0.692s1.988,0.229,2.445,0.687C141.29,13.921,141.518,14.779,141.518,16.038z M139.715,15.836
				c0-0.754-0.098-1.271-0.297-1.551c-0.199-0.279-0.551-0.419-1.058-0.419c-0.497,0-0.842,0.137-1.036,0.409
				c-0.193,0.272-0.291,0.793-0.291,1.561v9.22c0,0.774,0.098,1.296,0.297,1.565c0.198,0.27,0.551,0.404,1.058,0.404
				c0.495,0,0.842-0.135,1.036-0.404c0.193-0.269,0.291-0.791,0.291-1.565V15.836L139.715,15.836z"/>
			<path fill="#331842" d="M144.553,12.999h2.628c1.354,0,2.271,0.141,2.75,0.424c0.479,0.283,0.718,0.791,0.718,1.525v3.374
				c0,0.619-0.158,1.057-0.475,1.312c-0.317,0.255-0.877,0.411-1.68,0.465c0.857,0.04,1.453,0.188,1.787,0.444
				s0.502,0.7,0.502,1.333v6.019h-1.83V22.33c0-0.7-0.133-1.154-0.399-1.363c-0.267-0.208-0.815-0.313-1.646-0.313h-0.638v7.241
				h-1.722V12.999H144.553z M146.273,14.099v5.443h0.608c0.787,0,1.311-0.103,1.572-0.308c0.262-0.206,0.393-0.662,0.393-1.369
				v-2.07c0-0.713-0.131-1.175-0.393-1.383c-0.263-0.208-0.785-0.313-1.572-0.313H146.273z"/>
			<path fill="#331842" d="M163.249,15.361v1.424h-1.802v-1.384c0-0.586-0.081-0.988-0.243-1.207
				c-0.162-0.219-0.451-0.328-0.867-0.328c-0.396,0-0.678,0.123-0.84,0.369c-0.162,0.246-0.244,0.682-0.244,1.308v0.727
				c0,0.303,0.057,0.615,0.17,0.935c0.113,0.32,0.277,0.621,0.494,0.904l2.25,2.959c0.379,0.499,0.653,0.968,0.826,1.409
				c0.17,0.441,0.256,0.897,0.256,1.368v1.01c0,1.292-0.219,2.165-0.656,2.616c-0.438,0.451-1.219,0.677-2.338,0.677
				c-1.092,0-1.854-0.182-2.282-0.546c-0.429-0.363-0.644-1.05-0.644-2.06v-1.656h1.814v1.605c0,0.606,0.081,1.017,0.244,1.232
				c0.162,0.215,0.46,0.323,0.894,0.323c0.442,0,0.748-0.123,0.915-0.369c0.167-0.246,0.25-0.786,0.25-1.621v-1.03
				c0-0.384-0.047-0.732-0.142-1.045s-0.233-0.597-0.414-0.854l-2.384-3.171c-0.334-0.424-0.59-0.828-0.767-1.212
				c-0.176-0.384-0.264-0.717-0.264-1v-0.868c0-1.158,0.214-1.964,0.644-2.419c0.43-0.454,1.168-0.682,2.215-0.682
				c1.103,0,1.862,0.179,2.283,0.535C163.04,13.668,163.249,14.352,163.249,15.361z"/>
			<path fill="#331842" d="M165.661,12.999h4.769v1.182h-3.048v5.362h2.912v1.171h-2.912v5.999h3.129v1.182h-4.85V12.999
				L165.661,12.999z"/>
			<path fill="#331842" d="M171.648,12.999h1.815l1.68,5.938l1.559-5.938h1.721l-2.276,7.241l2.562,7.655h-1.815l-1.802-6.221
				l-1.748,6.221h-1.721l2.451-7.614L171.648,12.999z"/>
			<path fill="#331842" d="M186.659,16.038v8.816c0,1.279-0.229,2.148-0.691,2.605c-0.461,0.457-1.282,0.687-2.465,0.687
				c-1.166,0-1.979-0.232-2.438-0.697c-0.46-0.464-0.69-1.329-0.69-2.595v-8.816c0-1.252,0.231-2.109,0.696-2.57
				c0.466-0.461,1.285-0.692,2.459-0.692c1.175,0,1.989,0.229,2.445,0.687S186.659,14.779,186.659,16.038z M184.857,15.836
				c0-0.754-0.101-1.271-0.298-1.551c-0.199-0.279-0.551-0.419-1.057-0.419c-0.498,0-0.842,0.137-1.037,0.409
				s-0.291,0.793-0.291,1.561v9.22c0,0.774,0.1,1.296,0.298,1.565c0.198,0.27,0.551,0.404,1.057,0.404
				c0.497,0,0.843-0.135,1.037-0.404s0.292-0.791,0.292-1.565L184.857,15.836L184.857,15.836z"/>
		</g>
	</g>
	<polygon opacity="0.7" fill="#FFFFFF" enable-background="new    " points="0,44.968 197.461,42.236 197.461,82.031 25.25,82.012 	
		"/>
	<g>
		<g>
			<path fill="#331842" d="M92.475,55.235h4.769v1.182h-3.049v5.363h2.913v1.171h-2.913v5.999h3.13v1.182h-4.85V55.235z"/>
			<path fill="#331842" d="M99.805,55.235h2.02c1.706,0,2.821,0.201,3.346,0.601c0.523,0.401,0.785,1.318,0.785,2.752v8.19
				c0,1.427-0.267,2.343-0.799,2.747c-0.533,0.404-1.644,0.606-3.332,0.606h-2.02V55.235z M101.525,56.336V69.03h0.556
				c0.83,0,1.379-0.104,1.646-0.308c0.267-0.205,0.399-0.658,0.399-1.358v-9.331c0-0.707-0.135-1.167-0.406-1.379
				c-0.271-0.212-0.817-0.318-1.641-0.318H101.525z"/>
			<path fill="#331842" d="M110.683,55.235h2.521l2.885,14.896h-1.855l-0.689-4.141h-3.279l-0.745,4.141h-1.815L110.683,55.235z
				 M111.875,56.336l-1.449,8.564h2.886l-1.354-8.564H111.875z"/>
			<path fill="#331842" d="M117.918,55.235h2.019c1.707,0,2.821,0.201,3.347,0.601c0.523,0.401,0.785,1.318,0.785,2.752v8.19
				c0,1.427-0.268,2.343-0.799,2.747c-0.533,0.404-1.645,0.606-3.333,0.606h-2.019V55.235z M119.639,56.336V69.03h0.555
				c0.831,0,1.379-0.104,1.646-0.308c0.267-0.205,0.398-0.658,0.398-1.358v-9.331c0-0.707-0.135-1.167-0.406-1.379
				c-0.271-0.212-0.816-0.318-1.639-0.318H119.639z"/>
		</g>
	</g>
	<polygon opacity="0.7" fill="#FFFFFF" enable-background="new    " points="0,87.205 197.461,84.473 197.461,124.268 
		25.25,124.249 	"/>
	<g>
		<g>
			<path fill="#331842" d="M65.084,89.963h1.952c1.65,0,2.729,0.194,3.236,0.581c0.506,0.388,0.76,1.274,0.76,2.661v7.92
				c0,1.381-0.258,2.266-0.773,2.656c-0.515,0.39-1.59,0.586-3.223,0.586h-1.952V89.963z M66.748,91.028v12.275h0.537
				c0.804,0,1.334-0.099,1.592-0.298c0.257-0.198,0.386-0.636,0.386-1.313v-9.023c0-0.684-0.131-1.128-0.393-1.333
				c-0.262-0.205-0.79-0.308-1.585-0.308H66.748z"/>
			<path fill="#331842" d="M73.966,89.963h1.769v14.404h-1.769V89.963z"/>
			<path fill="#331842" d="M83.727,92.249v1.377h-1.743v-1.338c0-0.566-0.079-0.955-0.236-1.167
				c-0.157-0.211-0.437-0.317-0.838-0.317c-0.384,0-0.655,0.119-0.812,0.356c-0.157,0.238-0.236,0.659-0.236,1.265v0.703
				c0,0.293,0.055,0.595,0.164,0.903c0.109,0.31,0.269,0.601,0.479,0.874l2.174,2.861c0.367,0.482,0.633,0.937,0.799,1.362
				c0.166,0.427,0.249,0.868,0.249,1.323v0.977c0,1.25-0.212,2.094-0.636,2.529c-0.424,0.437-1.177,0.654-2.26,0.654
				c-1.057,0-1.793-0.176-2.208-0.527s-0.622-1.016-0.622-1.992v-1.602h1.755v1.553c0,0.586,0.079,0.983,0.236,1.191
				c0.157,0.209,0.445,0.312,0.865,0.312c0.428,0,0.723-0.118,0.884-0.356c0.162-0.237,0.242-0.76,0.242-1.567v-0.996
				c0-0.371-0.046-0.708-0.137-1.011c-0.092-0.303-0.226-0.577-0.4-0.825l-2.306-3.066c-0.323-0.41-0.57-0.801-0.74-1.172
				c-0.17-0.371-0.255-0.693-0.255-0.967v-0.84c0-1.119,0.207-1.899,0.622-2.339c0.415-0.44,1.129-0.659,2.142-0.659
				c1.065,0,1.801,0.173,2.208,0.518C83.523,90.612,83.727,91.272,83.727,92.249z"/>
			<path fill="#331842" d="M84.788,89.963h5.672v1.143h-1.991v13.262h-1.69V91.106h-1.991V89.963z"/>
			<path fill="#331842" d="M92.202,89.963h2.542c1.31,0,2.196,0.137,2.659,0.41c0.463,0.273,0.694,0.766,0.694,1.475v3.262
				c0,0.6-0.153,1.022-0.458,1.27c-0.306,0.248-0.847,0.397-1.625,0.449c0.83,0.039,1.406,0.183,1.729,0.43
				c0.323,0.248,0.484,0.678,0.484,1.289v5.82H96.46v-5.381c0-0.677-0.129-1.116-0.387-1.318c-0.257-0.201-0.788-0.303-1.591-0.303
				h-0.616v7.002h-1.664V89.963z M93.866,91.028v5.264h0.589c0.76,0,1.266-0.099,1.52-0.298c0.253-0.198,0.38-0.64,0.38-1.323
				v-2.002c0-0.689-0.127-1.136-0.38-1.338c-0.254-0.201-0.76-0.303-1.52-0.303H93.866z"/>
			<path fill="#331842" d="M101.137,89.963h1.769v14.404h-1.769V89.963z"/>
			<path fill="#331842" d="M105.854,89.963h2.541c1.311,0,2.195,0.137,2.66,0.41c0.463,0.273,0.693,0.766,0.693,1.475v3.262
				c0,0.6-0.152,1.022-0.457,1.27c-0.307,0.248-0.848,0.397-1.625,0.449c0.83,0.039,1.405,0.183,1.729,0.43
				c0.322,0.248,0.484,0.678,0.484,1.289v3.936c0,0.71-0.231,1.201-0.693,1.475c-0.463,0.273-1.35,0.41-2.66,0.41h-2.672V89.963z
				 M107.517,91.028v5.264h0.589c0.76,0,1.268-0.099,1.52-0.298c0.254-0.198,0.381-0.64,0.381-1.323v-2.002
				c0-0.689-0.127-1.136-0.381-1.338c-0.252-0.201-0.76-0.303-1.52-0.303H107.517z M107.517,97.366v5.938h0.616
				c0.804,0,1.334-0.099,1.592-0.298c0.257-0.198,0.386-0.636,0.386-1.313v-2.705c0-0.677-0.129-1.116-0.386-1.318
				c-0.258-0.201-0.788-0.303-1.592-0.303L107.517,97.366L107.517,97.366z"/>
			<path fill="#331842" d="M114.709,89.963h1.742v11.66c0,0.749,0.096,1.254,0.289,1.514c0.191,0.261,0.532,0.391,1.021,0.391
				c0.48,0,0.814-0.13,1.002-0.391c0.188-0.26,0.281-0.765,0.281-1.514v-11.66h1.744v11.465c0,1.237-0.224,2.077-0.668,2.521
				c-0.447,0.443-1.242,0.664-2.386,0.664c-1.126,0-1.913-0.225-2.358-0.674s-0.668-1.285-0.668-2.51V89.963L114.709,89.963z"/>
			<path fill="#331842" d="M129.25,92.249v1.377h-1.756v-1.338c0-0.56-0.08-0.947-0.242-1.162c-0.16-0.215-0.446-0.322-0.857-0.322
				c-0.375,0-0.639,0.122-0.786,0.366c-0.149,0.244-0.223,0.757-0.223,1.538v8.916c0,0.801,0.079,1.322,0.235,1.562
				c0.157,0.241,0.445,0.361,0.864,0.361c0.358,0,0.616-0.113,0.772-0.342c0.158-0.228,0.236-0.615,0.236-1.162v-1.553h1.756v1.602
				c0,0.983-0.207,1.649-0.617,1.997c-0.409,0.349-1.143,0.522-2.199,0.522c-1.04,0-1.766-0.225-2.176-0.674
				c-0.41-0.449-0.615-1.285-0.615-2.51v-8.525c0-1.217,0.205-2.047,0.615-2.49c0.41-0.442,1.136-0.664,2.176-0.664
				c1.064,0,1.801,0.173,2.207,0.518C129.047,90.612,129.25,91.272,129.25,92.249z"/>
			<path fill="#331842" d="M131.426,89.963h1.769v14.404h-1.769V89.963z"/>
			<path fill="#331842" d="M142.142,92.903v8.525c0,1.237-0.224,2.077-0.668,2.52c-0.445,0.443-1.24,0.664-2.386,0.664
				c-1.125,0-1.912-0.225-2.356-0.674c-0.446-0.449-0.668-1.285-0.668-2.51v-8.525c0-1.211,0.226-2.039,0.674-2.485
				c0.45-0.445,1.243-0.669,2.378-0.669c1.137,0,1.924,0.222,2.365,0.664C141.92,90.856,142.142,91.686,142.142,92.903z
				 M140.399,92.708c0-0.729-0.098-1.229-0.288-1.499c-0.192-0.27-0.532-0.405-1.022-0.405c-0.479,0-0.813,0.132-1.002,0.396
				c-0.188,0.264-0.28,0.767-0.28,1.509v8.916c0,0.749,0.096,1.254,0.288,1.514c0.191,0.261,0.531,0.391,1.021,0.391
				c0.479,0,0.813-0.13,1.002-0.391c0.188-0.26,0.281-0.765,0.281-1.514V92.708L140.399,92.708z M139.521,86.477h1.847l-1.716,2.178
				h-1.284L139.521,86.477z"/>
			<path fill="#331842" d="M145.077,89.963h2.279l2.764,13.545h0.026l-0.249-13.545h1.507v14.404h-2.306l-2.738-13.359h-0.053
				l0.236,13.359h-1.469V89.963H145.077z"/>
			<path fill="#331842" d="M76.259,110.139v0.742h-1.742v-0.938c0-0.729-0.103-1.229-0.308-1.499
				c-0.206-0.27-0.562-0.405-1.068-0.405c-0.489,0-0.834,0.14-1.035,0.42s-0.302,0.775-0.302,1.484v8.896
				c0,0.762,0.11,1.276,0.329,1.543c0.22,0.267,0.61,0.4,1.172,0.4c0.167,0,0.351-0.011,0.553-0.034s0.421-0.057,0.658-0.103
				l0.013-5.059h-1.494v-1.064h3.223v6.836c-0.532,0.163-1.052,0.285-1.559,0.366c-0.507,0.082-1.018,0.122-1.533,0.122
				c-1.152,0-1.958-0.226-2.417-0.679c-0.458-0.453-0.688-1.288-0.688-2.505v-8.525c0-1.211,0.227-2.04,0.681-2.485
				c0.454-0.445,1.262-0.669,2.423-0.669c1.153,0,1.957,0.22,2.411,0.659C76.032,108.083,76.259,108.915,76.259,110.139z"/>
			<path fill="#331842" d="M79.154,107.199h4.611v1.143h-2.947v5.186h2.816v1.133h-2.816v5.801h3.026v1.143h-4.69V107.199z"/>
			<path fill="#331842" d="M92.242,110.139v8.525c0,1.237-0.223,2.077-0.668,2.52c-0.446,0.443-1.241,0.664-2.384,0.664
				c-1.127,0-1.913-0.225-2.358-0.674c-0.445-0.449-0.668-1.286-0.668-2.51v-8.525c0-1.211,0.225-2.04,0.675-2.485
				c0.449-0.446,1.242-0.669,2.378-0.669c1.135,0,1.923,0.221,2.364,0.664S92.242,108.921,92.242,110.139z M90.499,109.943
				c0-0.729-0.096-1.229-0.288-1.499s-0.533-0.405-1.021-0.405c-0.48,0-0.814,0.132-1.002,0.396s-0.282,0.767-0.282,1.509v8.916
				c0,0.749,0.096,1.253,0.288,1.514c0.192,0.26,0.533,0.391,1.022,0.391c0.48,0,0.814-0.13,1.002-0.391
				c0.188-0.26,0.281-0.765,0.281-1.514V109.943z"/>
			<path fill="#331842" d="M101.293,110.139v0.742h-1.742v-0.938c0-0.729-0.102-1.229-0.307-1.499
				c-0.207-0.27-0.562-0.405-1.069-0.405c-0.489,0-0.834,0.14-1.035,0.42c-0.201,0.28-0.302,0.775-0.302,1.484v8.896
				c0,0.762,0.11,1.276,0.329,1.543c0.22,0.267,0.61,0.4,1.172,0.4c0.167,0,0.351-0.011,0.553-0.034s0.421-0.057,0.658-0.103
				l0.013-5.059H98.07v-1.064h3.224v6.836c-0.532,0.163-1.053,0.285-1.56,0.366c-0.507,0.082-1.018,0.122-1.533,0.122
				c-1.152,0-1.958-0.226-2.417-0.679c-0.458-0.453-0.688-1.288-0.688-2.505v-8.525c0-1.211,0.227-2.04,0.681-2.485
				c0.454-0.445,1.262-0.669,2.423-0.669c1.153,0,1.957,0.22,2.411,0.659C101.067,108.083,101.293,108.915,101.293,110.139z"/>
			<path fill="#331842" d="M104.189,107.199h2.542c1.311,0,2.195,0.137,2.66,0.41c0.463,0.273,0.693,0.765,0.693,1.475v3.262
				c0,0.599-0.152,1.022-0.459,1.27c-0.306,0.248-0.847,0.397-1.623,0.449c0.828,0.039,1.406,0.182,1.729,0.43
				c0.323,0.248,0.484,0.677,0.484,1.289v5.82h-1.769v-5.381c0-0.677-0.129-1.117-0.387-1.318c-0.259-0.201-0.788-0.303-1.593-0.303
				h-0.614v7.002h-1.664V107.199z M105.854,108.264v5.264h0.589c0.761,0,1.267-0.099,1.521-0.298
				c0.252-0.199,0.379-0.64,0.379-1.323v-2.002c0-0.69-0.125-1.136-0.379-1.338c-0.254-0.202-0.76-0.303-1.521-0.303H105.854z"/>
			<path fill="#331842" d="M114.762,107.199h2.438l2.791,14.404h-1.796l-0.668-4.004h-3.17l-0.721,4.004h-1.755L114.762,107.199z
				 M115.915,108.264l-1.401,8.281h2.79l-1.311-8.281H115.915z M116.347,103.713h1.847l-1.716,2.178h-1.284L116.347,103.713z"/>
			<path fill="#331842" d="M121.756,107.199h4.48v1.143h-2.816v5.225h2.711v1.133h-2.711v6.904h-1.664V107.199L121.756,107.199z"/>
			<path fill="#331842" d="M128.282,107.199h1.768v14.404h-1.768V107.199z"/>
			<path fill="#331842" d="M138.526,109.484v1.377h-1.755v-1.338c0-0.56-0.081-0.947-0.242-1.162
				c-0.161-0.215-0.448-0.322-0.858-0.322c-0.375,0-0.637,0.122-0.785,0.366c-0.148,0.244-0.223,0.757-0.223,1.538v8.916
				c0,0.801,0.078,1.322,0.235,1.562c0.157,0.24,0.444,0.361,0.864,0.361c0.357,0,0.615-0.114,0.773-0.342
				c0.156-0.228,0.235-0.615,0.235-1.162v-1.553h1.755v1.602c0,0.983-0.206,1.649-0.615,1.997c-0.412,0.348-1.145,0.522-2.201,0.522
				c-1.041,0-1.765-0.225-2.176-0.674c-0.41-0.449-0.615-1.286-0.615-2.51v-8.525c0-1.217,0.205-2.047,0.615-2.49
				c0.411-0.443,1.135-0.664,2.176-0.664c1.064,0,1.801,0.172,2.207,0.518C138.324,107.847,138.526,108.508,138.526,109.484z"/>
			<path fill="#331842" d="M142.338,107.199h2.437l2.79,14.404h-1.795l-0.668-4.004h-3.17l-0.721,4.004h-1.756L142.338,107.199z
				 M143.491,108.264l-1.4,8.281h2.789l-1.31-8.281H143.491z"/>
		</g>
	</g>
	<polygon opacity="0.7" fill="#FFFFFF" enable-background="new    " points="0,129.442 197.461,126.71 197.461,166.505 
		25.25,166.486 	"/>
	<g>
		<g>
			<path fill="#331842" d="M78.216,139.708h1.748l1.855,13.412h0.19l1.748-13.412h1.64l-2.168,14.896h-2.683L78.216,139.708z"/>
			<path fill="#331842" d="M87.374,139.708h1.829v14.896h-1.829V139.708z"/>
			<path fill="#331842" d="M91.113,139.708h1.748l1.855,13.412h0.19l1.748-13.412h1.64l-2.168,14.896h-2.683L91.113,139.708z"/>
			<path fill="#331842" d="M100.271,139.708h1.829v14.896h-1.829V139.708z"/>
			<path fill="#331842" d="M105.149,139.708h4.77v1.182h-3.049v5.363h2.912v1.171h-2.912v5.999h3.129v1.182h-4.85V139.708z"/>
			<path fill="#331842" d="M112.479,139.708h2.357l2.858,14.008h0.027l-0.257-14.008h1.558v14.896h-2.384l-2.832-13.815h-0.055
				l0.244,13.815h-1.517L112.479,139.708L112.479,139.708z"/>
			<path fill="#331842" d="M122.111,139.708h2.019c1.707,0,2.822,0.201,3.347,0.601c0.522,0.401,0.786,1.318,0.786,2.752v8.19
				c0,1.427-0.268,2.343-0.801,2.747c-0.532,0.404-1.644,0.606-3.332,0.606h-2.02L122.111,139.708L122.111,139.708z M123.831,140.81
				v12.694h0.557c0.83,0,1.38-0.103,1.646-0.308c0.266-0.205,0.399-0.658,0.399-1.358v-9.331c0-0.707-0.136-1.167-0.406-1.379
				s-0.817-0.318-1.64-0.318H123.831z"/>
			<path fill="#331842" d="M132.989,139.708h2.521l2.885,14.896h-1.855l-0.691-4.141h-3.279l-0.744,4.141h-1.816L132.989,139.708z
				 M134.182,140.81l-1.449,8.564h2.885l-1.354-8.564H134.182z"/>
		</g>
	</g>
	<polygon opacity="0.7" fill="#FFFFFF" enable-background="new    " points="0,171.679 197.461,168.948 197.461,208.743 
		25.25,208.723 	"/>
	<g>
		<g>
			<path fill="#331842" d="M50.815,181.946h2.357l2.858,14.008h0.027l-0.258-14.008h1.558v14.896h-2.384l-2.832-13.815h-0.054
				l0.244,13.815h-1.518v-14.896H50.815z"/>
			<path fill="#331842" d="M60.448,181.946h1.829v14.896h-1.829V181.946z"/>
			<path fill="#331842" d="M64.187,181.946h1.748l1.856,13.411h0.189l1.748-13.411h1.639L69.2,196.84h-2.682L64.187,181.946z"/>
			<path fill="#331842" d="M73.346,181.946h4.769v1.182h-3.048v5.363h2.913v1.17h-2.913v6h3.129v1.182h-4.85V181.946z"/>
			<path fill="#331842" d="M80.675,181.946h1.721v13.715h3.103v1.182h-4.823L80.675,181.946L80.675,181.946z"/>
			<path fill="#331842" d="M91.404,181.946h2.019c1.707,0,2.822,0.2,3.347,0.602c0.523,0.399,0.786,1.318,0.786,2.752v8.189
				c0,1.428-0.267,2.344-0.799,2.747c-0.533,0.404-1.644,0.604-3.333,0.604h-2.019L91.404,181.946L91.404,181.946z M93.125,183.045
				v12.695h0.556c0.831,0,1.379-0.104,1.646-0.309c0.267-0.206,0.4-0.658,0.4-1.357v-9.332c0-0.707-0.135-1.166-0.406-1.379
				c-0.271-0.212-0.818-0.318-1.639-0.318H93.125z"/>
			<path fill="#331842" d="M100.59,181.946h4.769v1.182h-3.048v5.363h2.913v1.17h-2.913v6h3.13v1.182h-4.851V181.946z"/>
			<path fill="#331842" d="M112.161,181.946h4.769v1.182h-3.048v5.363h2.912v1.17h-2.912v6h3.129v1.182h-4.85V181.946z"/>
			<path fill="#331842" d="M124.706,184.309v1.424h-1.803v-1.384c0-0.586-0.081-0.988-0.244-1.207
				c-0.162-0.22-0.451-0.328-0.867-0.328c-0.396,0-0.676,0.123-0.84,0.369c-0.162,0.246-0.244,0.683-0.244,1.308v0.727
				c0,0.304,0.057,0.615,0.17,0.936s0.276,0.621,0.494,0.904l2.248,2.959c0.379,0.499,0.655,0.968,0.827,1.408
				c0.171,0.441,0.257,0.898,0.257,1.369v1.01c0,1.292-0.219,2.164-0.656,2.615c-0.438,0.451-1.217,0.678-2.338,0.678
				c-1.092,0-1.854-0.182-2.282-0.547c-0.429-0.362-0.644-1.049-0.644-2.059v-1.656h1.814v1.604c0,0.606,0.082,1.017,0.244,1.231
				s0.461,0.324,0.895,0.324c0.442,0,0.747-0.123,0.914-0.369s0.251-0.787,0.251-1.621v-1.03c0-0.384-0.048-0.731-0.144-1.046
				c-0.094-0.312-0.231-0.596-0.412-0.854l-2.385-3.171c-0.334-0.424-0.588-0.827-0.766-1.212c-0.177-0.384-0.264-0.717-0.264-1
				v-0.867c0-1.158,0.215-1.965,0.645-2.42c0.428-0.453,1.166-0.682,2.215-0.682c1.102,0,1.862,0.179,2.283,0.535
				C124.495,182.616,124.706,183.299,124.706,184.309z"/>
			<path fill="#331842" d="M125.803,181.946h5.865v1.182h-2.06v13.715h-1.748v-13.715h-2.059L125.803,181.946L125.803,181.946z"/>
			<path fill="#331842" d="M133.389,181.946h1.802v12.059c0,0.773,0.099,1.295,0.298,1.564c0.198,0.27,0.551,0.404,1.057,0.404
				c0.496,0,0.843-0.135,1.037-0.404c0.193-0.27,0.291-0.791,0.291-1.564v-12.059h1.801v11.855c0,1.279-0.229,2.148-0.69,2.605
				c-0.461,0.459-1.282,0.688-2.466,0.688c-1.165,0-1.979-0.232-2.438-0.697c-0.461-0.464-0.691-1.329-0.691-2.596V181.946
				L133.389,181.946z"/>
			<path fill="#331842" d="M142.709,181.946h2.02c1.707,0,2.822,0.2,3.348,0.602c0.522,0.399,0.785,1.318,0.785,2.752v8.189
				c0,1.428-0.267,2.344-0.799,2.747c-0.533,0.404-1.645,0.604-3.333,0.604h-2.019v-14.895H142.709z M144.431,183.045v12.695h0.556
				c0.831,0,1.379-0.104,1.646-0.309c0.267-0.206,0.4-0.658,0.4-1.357v-9.332c0-0.707-0.136-1.166-0.406-1.379
				c-0.271-0.212-0.818-0.318-1.64-0.318H144.431z"/>
			<path fill="#331842" d="M151.896,181.946h1.829v14.896h-1.829V181.946z"/>
			<path fill="#331842" d="M162.978,184.985v8.816c0,1.279-0.229,2.148-0.69,2.605c-0.461,0.456-1.283,0.686-2.467,0.686
				c-1.164,0-1.979-0.231-2.438-0.696c-0.461-0.464-0.691-1.329-0.691-2.595v-8.816c0-1.252,0.232-2.109,0.697-2.57
				s1.285-0.691,2.459-0.691s1.988,0.229,2.445,0.688C162.749,182.868,162.978,183.726,162.978,184.985z M161.176,184.784
				c0-0.754-0.1-1.271-0.299-1.551c-0.198-0.279-0.551-0.419-1.057-0.419c-0.496,0-0.842,0.138-1.037,0.409
				s-0.291,0.793-0.291,1.561v9.221c0,0.773,0.1,1.295,0.299,1.564s0.551,0.404,1.057,0.404c0.497,0,0.842-0.135,1.037-0.404
				c0.193-0.27,0.291-0.791,0.291-1.564V184.784L161.176,184.784z"/>
			<path fill="#331842" d="M171.228,184.309v1.424h-1.802v-1.384c0-0.586-0.081-0.988-0.243-1.207
				c-0.163-0.22-0.452-0.328-0.867-0.328c-0.397,0-0.678,0.123-0.84,0.369c-0.163,0.246-0.244,0.683-0.244,1.308v0.727
				c0,0.304,0.056,0.615,0.169,0.936s0.278,0.621,0.495,0.904l2.249,2.959c0.379,0.499,0.654,0.968,0.826,1.408
				c0.171,0.441,0.257,0.898,0.257,1.369v1.01c0,1.292-0.22,2.164-0.657,2.615s-1.218,0.678-2.337,0.678
				c-1.093,0-1.854-0.182-2.282-0.547c-0.43-0.362-0.645-1.049-0.645-2.059v-1.656h1.814v1.604c0,0.606,0.082,1.017,0.244,1.231
				s0.461,0.324,0.895,0.324c0.441,0,0.748-0.123,0.914-0.369c0.168-0.246,0.25-0.787,0.25-1.621v-1.03
				c0-0.384-0.047-0.731-0.141-1.046c-0.096-0.312-0.234-0.596-0.414-0.854l-2.385-3.171c-0.334-0.424-0.589-0.827-0.766-1.212
				c-0.176-0.384-0.264-0.717-0.264-1v-0.867c0-1.158,0.213-1.965,0.644-2.42c0.429-0.453,1.167-0.682,2.215-0.682
				c1.103,0,1.862,0.179,2.283,0.535C171.018,182.616,171.228,183.299,171.228,184.309z"/>
		</g>
	</g>
	<polygon opacity="0.7" fill="#FFFFFF" enable-background="new    " points="0,213.485 197.461,210.752 197.461,250.547 
		25.25,250.529 	"/>
	<g>
		<g>
			<path fill="#331842" d="M78.846,223.752h5.866v1.182h-2.059v13.714h-1.748v-13.714h-2.06L78.846,223.752L78.846,223.752z"/>
			<path fill="#331842" d="M86.514,223.752h2.628c1.354,0,2.271,0.141,2.75,0.424s0.718,0.791,0.718,1.525v3.373
				c0,0.619-0.158,1.057-0.474,1.312c-0.316,0.256-0.876,0.41-1.68,0.465c0.858,0.04,1.454,0.188,1.789,0.443
				c0.334,0.256,0.501,0.701,0.501,1.334v6.019h-1.829v-5.563c0-0.701-0.133-1.154-0.399-1.363
				c-0.267-0.208-0.815-0.312-1.646-0.312h-0.637v7.24h-1.72L86.514,223.752L86.514,223.752z M88.234,224.853v5.442h0.61
				c0.786,0,1.31-0.103,1.572-0.308c0.262-0.206,0.393-0.661,0.393-1.368v-2.07c0-0.713-0.131-1.176-0.393-1.383
				c-0.262-0.209-0.786-0.313-1.572-0.313H88.234L88.234,224.853z"/>
			<path fill="#331842" d="M97.447,223.752h2.521l2.886,14.896h-1.856l-0.69-4.142h-3.278l-0.745,4.142h-1.815L97.447,223.752z
				 M98.639,224.853l-1.45,8.563h2.886l-1.354-8.563H98.639z"/>
			<path fill="#331842" d="M104.682,223.752h2.628c1.354,0,2.271,0.141,2.75,0.424s0.718,0.791,0.718,1.525v3.373
				c0,0.619-0.158,1.057-0.475,1.312c-0.317,0.255-0.877,0.41-1.68,0.465c0.857,0.04,1.453,0.188,1.787,0.443
				s0.502,0.701,0.502,1.334v4.068c0,0.734-0.24,1.242-0.719,1.525s-1.396,0.424-2.75,0.424h-2.764v-14.895H104.682z
				 M106.402,224.853v5.442h0.609c0.786,0,1.31-0.103,1.571-0.308c0.262-0.206,0.393-0.661,0.393-1.368v-2.07
				c0-0.713-0.131-1.176-0.393-1.383c-0.263-0.209-0.785-0.313-1.571-0.313H106.402L106.402,224.853z M106.402,231.407v6.141h0.638
				c0.83,0,1.379-0.104,1.646-0.309s0.399-0.658,0.399-1.357v-2.799c0-0.699-0.133-1.153-0.399-1.363
				c-0.267-0.207-0.815-0.312-1.646-0.312H106.402z"/>
			<path fill="#331842" d="M115.614,223.752h2.521l2.885,14.896h-1.855l-0.691-4.142h-3.279l-0.744,4.142h-1.816L115.614,223.752z
				 M116.807,224.853l-1.449,8.563h2.885l-1.354-8.563H116.807z"/>
			<path fill="#331842" d="M125.396,223.752h1.748v11.855c0,1.246-0.21,2.102-0.63,2.57c-0.42,0.468-1.154,0.701-2.201,0.701
				c-1.048,0-1.777-0.185-2.188-0.555c-0.412-0.371-0.617-1.047-0.617-2.029v-1.656h1.775v1.605c0,0.619,0.074,1.029,0.223,1.231
				c0.15,0.202,0.418,0.303,0.808,0.303c0.406,0,0.688-0.131,0.847-0.394c0.158-0.262,0.237-0.788,0.237-1.576v-12.057H125.396z"/>
			<path fill="#331842" d="M136.383,226.792v8.816c0,1.279-0.229,2.148-0.69,2.605c-0.46,0.457-1.282,0.687-2.466,0.687
				c-1.165,0-1.979-0.231-2.438-0.696c-0.461-0.465-0.69-1.33-0.69-2.596v-8.816c0-1.252,0.231-2.108,0.696-2.569
				c0.466-0.462,1.285-0.692,2.459-0.692c1.175,0,1.99,0.229,2.445,0.688C136.157,224.674,136.383,225.534,136.383,226.792z
				 M134.583,226.59c0-0.754-0.1-1.271-0.299-1.551s-0.551-0.42-1.057-0.42c-0.497,0-0.842,0.137-1.036,0.409
				s-0.291,0.793-0.291,1.562v9.22c0,0.774,0.099,1.296,0.298,1.565c0.198,0.27,0.551,0.403,1.057,0.403
				c0.498,0,0.843-0.135,1.037-0.403c0.193-0.27,0.291-0.791,0.291-1.565V226.59L134.583,226.59z"/>
		</g>
	</g>
	<polygon opacity="0.7" fill="#FFFFFF" enable-background="new    " points="0,255.305 197.461,252.573 197.461,292.368 
		25.25,292.349 	"/>
	<g>
		<g>
			<path fill="#331842" d="M43.662,267.935v1.424h-1.815v-1.383c0-0.579-0.083-0.979-0.25-1.202s-0.463-0.333-0.887-0.333
				c-0.389,0-0.66,0.126-0.813,0.379s-0.23,0.783-0.23,1.591v9.221c0,0.828,0.082,1.367,0.244,1.615
				c0.163,0.25,0.461,0.375,0.895,0.375c0.37,0,0.637-0.119,0.799-0.354c0.163-0.235,0.244-0.636,0.244-1.202v-1.605h1.815v1.656
				c0,1.016-0.212,1.704-0.637,2.064c-0.425,0.359-1.184,0.54-2.276,0.54c-1.075,0-1.824-0.231-2.249-0.696s-0.637-1.33-0.637-2.596
				v-8.816c0-1.259,0.212-2.117,0.637-2.574c0.424-0.459,1.174-0.688,2.249-0.688c1.102,0,1.863,0.178,2.283,0.535
				C43.452,266.243,43.662,266.924,43.662,267.935z"/>
			<path fill="#331842" d="M52.116,268.612v8.816c0,1.279-0.23,2.146-0.691,2.605c-0.46,0.457-1.282,0.687-2.466,0.687
				c-1.165,0-1.978-0.231-2.438-0.696s-0.69-1.33-0.69-2.596v-8.816c0-1.252,0.232-2.109,0.697-2.57
				c0.465-0.461,1.285-0.69,2.459-0.69c1.174,0,1.989,0.229,2.445,0.687C51.888,266.497,52.116,267.353,52.116,268.612z
				 M50.314,268.411c0-0.754-0.099-1.271-0.298-1.551c-0.199-0.279-0.551-0.419-1.057-0.419c-0.497,0-0.842,0.136-1.036,0.409
				c-0.194,0.271-0.291,0.792-0.291,1.561v9.221c0,0.773,0.099,1.295,0.298,1.564c0.198,0.27,0.551,0.404,1.057,0.404
				c0.497,0,0.842-0.135,1.036-0.404s0.292-0.791,0.292-1.564L50.314,268.411L50.314,268.411z"/>
			<path fill="#331842" d="M55.151,265.572h2.628c1.354,0,2.271,0.142,2.75,0.425c0.479,0.281,0.718,0.791,0.718,1.524v3.373
				c0,0.62-0.158,1.058-0.474,1.313s-0.876,0.41-1.68,0.463c0.858,0.041,1.454,0.188,1.789,0.444c0.334,0.257,0.501,0.7,0.501,1.333
				v4.07c0,0.734-0.239,1.242-0.718,1.525s-1.396,0.424-2.75,0.424h-2.764V265.572z M56.871,266.672v5.443h0.61
				c0.786,0,1.31-0.103,1.572-0.308c0.262-0.205,0.393-0.661,0.393-1.368v-2.07c0-0.714-0.131-1.175-0.393-1.384
				c-0.262-0.208-0.786-0.313-1.572-0.313H56.871L56.871,266.672z M56.871,273.227v6.141h0.637c0.831,0,1.38-0.104,1.646-0.309
				c0.266-0.205,0.399-0.658,0.399-1.357v-2.798c0-0.7-0.133-1.155-0.399-1.364c-0.267-0.207-0.815-0.312-1.646-0.312H56.871z"/>
			<path fill="#331842" d="M64.391,265.572h4.769v1.183h-3.048v5.363h2.913v1.17h-2.913v6h3.129v1.182h-4.85V265.572z"/>
			<path fill="#331842" d="M71.72,265.572h2.628c1.355,0,2.271,0.142,2.75,0.425c0.479,0.282,0.718,0.791,0.718,1.524v3.373
				c0,0.62-0.158,1.058-0.475,1.313c-0.317,0.256-0.876,0.41-1.68,0.463c0.858,0.041,1.454,0.188,1.788,0.444
				c0.334,0.257,0.501,0.7,0.501,1.333v6.02h-1.829v-5.563c0-0.7-0.133-1.155-0.4-1.364c-0.266-0.207-0.815-0.312-1.646-0.312H73.44
				v7.24h-1.72V265.572z M73.44,266.672v5.443h0.609c0.786,0,1.31-0.103,1.571-0.308c0.262-0.205,0.393-0.661,0.393-1.368v-2.07
				c0-0.714-0.131-1.175-0.393-1.384c-0.262-0.208-0.785-0.313-1.571-0.313H73.44L73.44,266.672z"/>
			<path fill="#331842" d="M79.645,265.572h5.866v1.183h-2.059v13.715h-1.748v-13.715h-2.059V265.572z"/>
			<path fill="#331842" d="M87.232,265.572h1.802v12.06c0,0.773,0.099,1.295,0.298,1.564c0.198,0.27,0.551,0.404,1.057,0.404
				c0.496,0,0.842-0.135,1.036-0.404c0.194-0.27,0.291-0.791,0.291-1.564v-12.06h1.802v11.856c0,1.279-0.23,2.146-0.691,2.605
				c-0.461,0.457-1.283,0.687-2.466,0.687c-1.165,0-1.978-0.232-2.438-0.696c-0.461-0.465-0.691-1.33-0.691-2.596V265.572z"/>
			<path fill="#331842" d="M96.553,265.572h2.628c1.354,0,2.271,0.142,2.75,0.425c0.479,0.282,0.718,0.791,0.718,1.524v3.373
				c0,0.62-0.158,1.058-0.475,1.313c-0.317,0.256-0.877,0.41-1.68,0.463c0.857,0.041,1.453,0.188,1.787,0.444
				c0.334,0.257,0.502,0.7,0.502,1.333v6.02h-1.83v-5.563c0-0.7-0.133-1.155-0.399-1.364c-0.267-0.207-0.815-0.312-1.646-0.312
				h-0.637v7.24H96.55v-14.896H96.553z M98.273,266.672v5.443h0.609c0.787,0,1.31-0.103,1.572-0.308s0.393-0.661,0.393-1.368v-2.07
				c0-0.714-0.131-1.175-0.393-1.384c-0.263-0.208-0.785-0.313-1.572-0.313H98.273L98.273,266.672z"/>
			<path fill="#331842" d="M107.486,265.572h2.521l2.886,14.896h-1.856l-0.689-4.141h-3.279l-0.745,4.141h-1.815L107.486,265.572z
				 M108.678,266.672l-1.449,8.564h2.887l-1.355-8.564H108.678z"/>
			<path fill="#331842" d="M118.961,265.572h4.769v1.183h-3.048v5.363h2.913v1.17h-2.913v6h3.129v1.182h-4.85V265.572z"/>
			<path fill="#331842" d="M126.29,265.572h2.357l2.857,14.009h0.027l-0.257-14.009h1.558v14.896h-2.385l-2.83-13.814h-0.056
				l0.244,13.814h-1.519v-14.896H126.29z"/>
			<path fill="#331842" d="M145.379,267.935v1.424h-1.803v-1.383c0-0.585-0.08-0.988-0.244-1.207
				c-0.162-0.22-0.451-0.329-0.867-0.329c-0.396,0-0.676,0.123-0.84,0.369c-0.162,0.246-0.244,0.682-0.244,1.309v0.728
				c0,0.303,0.057,0.614,0.17,0.934c0.113,0.32,0.277,0.621,0.494,0.904l2.248,2.959c0.379,0.498,0.656,0.968,0.828,1.409
				c0.17,0.441,0.256,0.896,0.256,1.369v1.01c0,1.293-0.219,2.165-0.656,2.615c-0.438,0.451-1.217,0.677-2.338,0.677
				c-1.092,0-1.854-0.183-2.282-0.546s-0.644-1.051-0.644-2.061v-1.656h1.814v1.606c0,0.606,0.082,1.017,0.244,1.231
				c0.163,0.217,0.461,0.324,0.895,0.324c0.442,0,0.748-0.123,0.914-0.369c0.168-0.246,0.252-0.787,0.252-1.621v-1.03
				c0-0.384-0.049-0.731-0.144-1.045s-0.231-0.599-0.413-0.854l-2.384-3.171c-0.335-0.425-0.589-0.827-0.767-1.212
				c-0.177-0.384-0.264-0.717-0.264-1v-0.869c0-1.158,0.215-1.964,0.645-2.418c0.429-0.455,1.166-0.682,2.215-0.682
				c1.102,0,1.863,0.178,2.283,0.535S145.379,266.924,145.379,267.935z"/>
			<path fill="#331842" d="M149.484,265.572h2.521l2.886,14.896h-1.856l-0.689-4.141h-3.279l-0.745,4.141h-1.815L149.484,265.572z
				 M150.676,266.672l-1.449,8.564h2.886l-1.354-8.564H150.676z"/>
			<path fill="#331842" d="M156.719,265.572h1.72v13.716h3.103v1.182h-4.822V265.572z"/>
			<path fill="#331842" d="M163.127,265.572h1.802v12.06c0,0.773,0.099,1.295,0.298,1.564c0.197,0.27,0.551,0.404,1.057,0.404
				c0.498,0,0.842-0.135,1.036-0.404s0.292-0.791,0.292-1.564v-12.06h1.803v11.856c0,1.279-0.23,2.146-0.691,2.605
				c-0.46,0.457-1.282,0.687-2.467,0.687c-1.164,0-1.978-0.232-2.438-0.696c-0.46-0.465-0.689-1.33-0.689-2.596v-11.856H163.127z"/>
			<path fill="#331842" d="M172.447,265.572h2.019c1.707,0,2.822,0.201,3.348,0.601c0.523,0.402,0.786,1.318,0.786,2.752v8.191
				c0,1.426-0.267,2.342-0.8,2.746c-0.532,0.404-1.643,0.605-3.332,0.605h-2.02L172.447,265.572L172.447,265.572z M174.168,266.672
				v12.695h0.556c0.831,0,1.379-0.104,1.646-0.309c0.268-0.205,0.4-0.658,0.4-1.357v-9.332c0-0.707-0.135-1.166-0.406-1.379
				c-0.271-0.212-0.818-0.318-1.639-0.318H174.168z"/>
		</g>
	</g>
	<polygon opacity="0.7" fill="#FFFFFF" enable-background="new    " points="0,298.542 197.461,295.81 197.461,335.606 
		25.25,335.586 	"/>
	<g>
		<g>
			<path fill="#331842" d="M46.94,300.299h2.437l2.79,14.404h-1.795l-0.668-4.004h-3.17l-0.721,4.004h-1.756L46.94,300.299z
				 M48.093,301.366l-1.401,8.281h2.79l-1.31-8.281H48.093z"/>
			<path fill="#331842" d="M59.464,302.584v1.377h-1.755v-1.338c0-0.56-0.081-0.947-0.243-1.162
				c-0.162-0.215-0.448-0.321-0.858-0.321c-0.376,0-0.638,0.122-0.786,0.366c-0.148,0.244-0.223,0.757-0.223,1.537v8.916
				c0,0.801,0.079,1.322,0.236,1.562c0.157,0.24,0.445,0.361,0.865,0.361c0.358,0,0.615-0.113,0.772-0.342
				c0.157-0.229,0.236-0.615,0.236-1.162v-1.553h1.755v1.602c0,0.982-0.205,1.648-0.615,1.996c-0.411,0.35-1.145,0.523-2.201,0.523
				c-1.039,0-1.764-0.227-2.175-0.674c-0.41-0.449-0.615-1.285-0.615-2.512v-8.524c0-1.217,0.205-2.047,0.615-2.489
				c0.411-0.442,1.136-0.664,2.175-0.664c1.065,0,1.802,0.172,2.208,0.518C59.261,300.95,59.464,301.609,59.464,302.584z"/>
			<path fill="#331842" d="M67.167,302.584v1.377h-1.755v-1.338c0-0.56-0.081-0.947-0.243-1.162s-0.448-0.321-0.858-0.321
				c-0.376,0-0.638,0.122-0.786,0.366s-0.223,0.757-0.223,1.537v8.916c0,0.801,0.079,1.322,0.236,1.562
				c0.157,0.24,0.445,0.361,0.865,0.361c0.358,0,0.615-0.113,0.772-0.342c0.157-0.229,0.236-0.615,0.236-1.162v-1.553h1.755v1.602
				c0,0.982-0.205,1.648-0.615,1.996c-0.411,0.35-1.145,0.523-2.201,0.523c-1.039,0-1.764-0.227-2.175-0.674
				c-0.41-0.449-0.615-1.285-0.615-2.512v-8.524c0-1.217,0.205-2.047,0.615-2.489c0.411-0.442,1.136-0.664,2.175-0.664
				c1.065,0,1.802,0.172,2.208,0.518C66.964,300.95,67.167,301.609,67.167,302.584z"/>
			<path fill="#331842" d="M69.342,300.299h4.611v1.144h-2.947v5.187h2.816v1.133h-2.816v5.801h3.026v1.143h-4.69V300.299z"/>
			<path fill="#331842" d="M81.473,302.584v1.377H79.73v-1.338c0-0.565-0.078-0.955-0.235-1.166
				c-0.157-0.211-0.437-0.317-0.839-0.317c-0.384,0-0.655,0.118-0.812,0.356c-0.157,0.237-0.236,0.658-0.236,1.265v0.702
				c0,0.293,0.055,0.596,0.164,0.904c0.109,0.31,0.269,0.601,0.478,0.873l2.174,2.861c0.367,0.482,0.633,0.938,0.799,1.361
				c0.166,0.428,0.249,0.869,0.249,1.324v0.977c0,1.25-0.212,2.094-0.635,2.529c-0.424,0.438-1.177,0.654-2.26,0.654
				c-1.057,0-1.793-0.176-2.208-0.527s-0.622-1.016-0.622-1.992v-1.602h1.756v1.553c0,0.586,0.078,0.982,0.235,1.191
				c0.157,0.209,0.445,0.311,0.865,0.311c0.428,0,0.723-0.117,0.884-0.355c0.162-0.236,0.242-0.76,0.242-1.566v-0.996
				c0-0.371-0.046-0.709-0.137-1.012c-0.092-0.303-0.225-0.576-0.4-0.824l-2.306-3.066c-0.323-0.41-0.569-0.801-0.74-1.172
				c-0.17-0.371-0.255-0.693-0.255-0.967v-0.84c0-1.119,0.207-1.899,0.622-2.34c0.415-0.438,1.129-0.658,2.142-0.658
				c1.065,0,1.802,0.172,2.208,0.518C81.27,300.95,81.473,301.609,81.473,302.584z"/>
			<path fill="#331842" d="M89.805,303.241v8.523c0,1.238-0.223,2.078-0.668,2.521c-0.446,0.441-1.241,0.664-2.384,0.664
				c-1.127,0-1.913-0.227-2.358-0.674c-0.445-0.449-0.668-1.285-0.668-2.512v-8.524c0-1.211,0.225-2.038,0.675-2.485
				c0.449-0.444,1.242-0.668,2.378-0.668c1.135,0,1.923,0.222,2.364,0.664C89.584,301.193,89.805,302.023,89.805,303.241z
				 M88.062,303.043c0-0.729-0.096-1.229-0.288-1.498c-0.192-0.271-0.533-0.405-1.021-0.405c-0.48,0-0.814,0.132-1.002,0.396
				s-0.282,0.768-0.282,1.51v8.916c0,0.748,0.096,1.254,0.288,1.514c0.192,0.262,0.533,0.391,1.022,0.391
				c0.48,0,0.814-0.129,1.002-0.391c0.188-0.26,0.281-0.766,0.281-1.514V303.043z"/>
			<path fill="#331842" d="M98.478,300.299h2.437l2.791,14.404h-1.795l-0.668-4.004h-3.171l-0.72,4.004h-1.755L98.478,300.299z
				 M99.629,301.366l-1.401,8.281h2.791l-1.31-8.281H99.629z"/>
			<path fill="#331842" d="M114.618,302.584v1.377h-1.742v-1.338c0-0.565-0.078-0.955-0.235-1.166s-0.437-0.317-0.839-0.317
				c-0.385,0-0.655,0.118-0.812,0.356c-0.156,0.237-0.236,0.658-0.236,1.265v0.702c0,0.293,0.056,0.596,0.164,0.904
				c0.109,0.31,0.27,0.601,0.479,0.873l2.174,2.861c0.367,0.482,0.633,0.938,0.799,1.361c0.166,0.428,0.25,0.869,0.25,1.324v0.977
				c0,1.25-0.213,2.094-0.636,2.529c-0.424,0.438-1.177,0.654-2.26,0.654c-1.058,0-1.793-0.176-2.208-0.527
				s-0.622-1.016-0.622-1.992v-1.602h1.756v1.553c0,0.586,0.078,0.982,0.235,1.191c0.156,0.209,0.445,0.311,0.865,0.311
				c0.428,0,0.723-0.117,0.883-0.355c0.162-0.236,0.242-0.76,0.242-1.566v-0.996c0-0.371-0.045-0.709-0.137-1.012
				s-0.225-0.576-0.4-0.824l-2.306-3.066c-0.323-0.41-0.569-0.801-0.739-1.172s-0.256-0.693-0.256-0.967v-0.84
				c0-1.119,0.207-1.899,0.623-2.34c0.414-0.438,1.129-0.658,2.141-0.658c1.066,0,1.803,0.172,2.209,0.518
				C114.415,300.95,114.618,301.609,114.618,302.584z"/>
			<path fill="#331842" d="M116.95,300.299h4.61v1.144h-2.947v5.187h2.816v1.133h-2.816v5.801h3.026v1.143h-4.689V300.299z"/>
			<path fill="#331842" d="M124.038,300.299h2.541c1.311,0,2.195,0.138,2.659,0.41c0.464,0.273,0.694,0.767,0.694,1.476v3.262
				c0,0.601-0.153,1.022-0.458,1.271c-0.306,0.248-0.847,0.396-1.625,0.449c0.83,0.039,1.405,0.182,1.729,0.43
				c0.322,0.248,0.484,0.678,0.484,1.289v5.82h-1.77v-5.381c0-0.678-0.129-1.117-0.385-1.318c-0.259-0.201-0.789-0.303-1.593-0.303
				H125.7v7.002h-1.664v-14.406H124.038z M125.702,301.366v5.264h0.588c0.76,0,1.268-0.1,1.521-0.299
				c0.253-0.197,0.38-0.64,0.38-1.322v-2.002c0-0.689-0.126-1.137-0.38-1.338c-0.253-0.201-0.761-0.304-1.521-0.304L125.702,301.366
				L125.702,301.366z"/>
			<path fill="#331842" d="M131.872,300.299h1.689l1.794,12.969h0.185l1.689-12.969h1.585l-2.096,14.404h-2.595L131.872,300.299z"/>
			<path fill="#331842" d="M140.727,300.299h1.77v14.404h-1.77V300.299z"/>
			<path fill="#331842" d="M150.972,302.584v1.377h-1.755v-1.338c0-0.56-0.081-0.947-0.243-1.162
				c-0.161-0.215-0.447-0.321-0.856-0.321c-0.377,0-0.639,0.122-0.787,0.366s-0.223,0.757-0.223,1.537v8.916
				c0,0.801,0.078,1.322,0.234,1.562c0.158,0.24,0.445,0.361,0.865,0.361c0.358,0,0.617-0.113,0.773-0.342
				c0.157-0.229,0.236-0.615,0.236-1.162v-1.553h1.755v1.602c0,0.982-0.205,1.648-0.616,1.996c-0.411,0.35-1.145,0.523-2.201,0.523
				c-1.039,0-1.765-0.227-2.175-0.674c-0.411-0.449-0.616-1.285-0.616-2.512v-8.524c0-1.217,0.205-2.047,0.616-2.489
				c0.41-0.442,1.136-0.664,2.175-0.664c1.065,0,1.801,0.172,2.207,0.518C150.769,300.95,150.972,301.609,150.972,302.584z"/>
			<path fill="#331842" d="M153.146,300.299h1.769v14.404h-1.769V300.299z"/>
			<path fill="#331842" d="M163.862,303.241v8.523c0,1.238-0.223,2.078-0.668,2.521c-0.445,0.441-1.24,0.664-2.384,0.664
				c-1.126,0-1.913-0.227-2.358-0.674c-0.445-0.449-0.668-1.285-0.668-2.512v-8.524c0-1.211,0.225-2.038,0.674-2.485
				c0.451-0.444,1.244-0.668,2.379-0.668s1.922,0.222,2.365,0.664C163.642,301.193,163.862,302.023,163.862,303.241z
				 M162.12,303.043c0-0.729-0.096-1.229-0.287-1.498c-0.192-0.271-0.533-0.405-1.022-0.405c-0.479,0-0.813,0.132-1.002,0.396
				s-0.281,0.768-0.281,1.51v8.916c0,0.748,0.097,1.254,0.288,1.514c0.191,0.262,0.533,0.391,1.021,0.391
				c0.48,0,0.814-0.129,1.002-0.391c0.188-0.26,0.281-0.766,0.281-1.514V303.043z"/>
			<path fill="#331842" d="M171.84,302.584v1.377h-1.741v-1.338c0-0.565-0.079-0.955-0.236-1.166s-0.437-0.317-0.838-0.317
				c-0.385,0-0.655,0.118-0.812,0.356c-0.157,0.237-0.236,0.658-0.236,1.265v0.702c0,0.293,0.055,0.596,0.164,0.904
				c0.109,0.31,0.27,0.601,0.479,0.873l2.176,2.861c0.367,0.482,0.633,0.938,0.799,1.361c0.166,0.428,0.248,0.869,0.248,1.324v0.977
				c0,1.25-0.211,2.094-0.635,2.529c-0.424,0.438-1.178,0.654-2.26,0.654c-1.058,0-1.793-0.176-2.207-0.527
				c-0.416-0.352-0.623-1.016-0.623-1.992v-1.602h1.756v1.553c0,0.586,0.078,0.982,0.235,1.191s0.445,0.311,0.864,0.311
				c0.428,0,0.723-0.117,0.885-0.355c0.161-0.236,0.242-0.76,0.242-1.566v-0.996c0-0.371-0.046-0.709-0.139-1.012
				c-0.092-0.303-0.225-0.576-0.398-0.824l-2.307-3.066c-0.322-0.41-0.569-0.801-0.739-1.172s-0.256-0.693-0.256-0.967v-0.84
				c0-1.119,0.208-1.899,0.622-2.34c0.416-0.438,1.129-0.658,2.143-0.658c1.064,0,1.801,0.172,2.207,0.518
				C171.638,300.95,171.84,301.609,171.84,302.584z"/>
			<path fill="#331842" d="M47.798,317.536h1.952c1.65,0,2.729,0.195,3.236,0.582c0.507,0.387,0.76,1.273,0.76,2.66v7.92
				c0,1.381-0.258,2.266-0.773,2.656c-0.515,0.391-1.59,0.586-3.223,0.586h-1.952V317.536z M49.462,318.6v12.275h0.537
				c0.804,0,1.334-0.098,1.592-0.297c0.257-0.199,0.386-0.637,0.386-1.314v-9.021c0-0.686-0.131-1.129-0.393-1.334
				s-0.79-0.309-1.585-0.309H49.462L49.462,318.6z"/>
			<path fill="#331842" d="M56.68,317.536h4.611v1.143h-2.948v5.188h2.817v1.133h-2.817v5.801h3.026v1.143h-4.69L56.68,317.536
				L56.68,317.536z"/>
			<path fill="#331842" d="M67.868,317.536h2.542c1.31,0,2.196,0.137,2.66,0.41c0.463,0.273,0.694,0.766,0.694,1.475v3.262
				c0,0.6-0.153,1.023-0.459,1.271c-0.306,0.248-0.847,0.396-1.624,0.449c0.829,0.039,1.406,0.182,1.729,0.43
				c0.323,0.248,0.485,0.676,0.485,1.289v5.82h-1.769v-5.383c0-0.676-0.129-1.115-0.387-1.316c-0.258-0.201-0.788-0.303-1.592-0.303
				h-0.615v7.002h-1.664V317.536z M69.532,318.6v5.266h0.589c0.76,0,1.267-0.1,1.52-0.299s0.38-0.641,0.38-1.322v-2.002
				c0-0.691-0.126-1.137-0.38-1.338c-0.254-0.203-0.76-0.305-1.52-0.305H69.532L69.532,318.6z"/>
			<path fill="#331842" d="M76.803,317.536h4.611v1.143h-2.947v5.188h2.816v1.133h-2.816v5.801h3.026v1.143h-4.69V317.536z"/>
			<path fill="#331842" d="M83.89,317.536h1.664V324h2.738v-6.465h1.664v14.404h-1.664v-6.885h-2.738v6.885H83.89V317.536z"/>
			<path fill="#331842" d="M94.593,317.536h2.437l2.79,14.404h-1.795l-0.668-4.004h-3.17l-0.721,4.004H91.71L94.593,317.536z
				 M95.746,318.6l-1.401,8.281h2.79l-1.31-8.281H95.746z"/>
			<path fill="#331842" d="M101.588,317.536h2.543c1.31,0,2.195,0.137,2.658,0.41s0.694,0.766,0.694,1.475v3.262
				c0,0.6-0.153,1.023-0.458,1.271c-0.306,0.248-0.847,0.396-1.625,0.449c0.83,0.039,1.406,0.182,1.729,0.43
				c0.324,0.248,0.484,0.676,0.484,1.289v3.936c0,0.709-0.23,1.201-0.693,1.475s-1.35,0.41-2.659,0.41h-2.673V317.536
				L101.588,317.536z M103.252,318.6v5.266h0.59c0.76,0,1.266-0.1,1.52-0.299s0.381-0.641,0.381-1.322v-2.002
				c0-0.691-0.127-1.137-0.381-1.338c-0.254-0.203-0.76-0.305-1.52-0.305H103.252L103.252,318.6z M103.252,324.938v5.938h0.617
				c0.803,0,1.334-0.098,1.59-0.297c0.258-0.199,0.388-0.637,0.388-1.314v-2.705c0-0.676-0.13-1.115-0.388-1.316
				c-0.256-0.203-0.787-0.303-1.59-0.303h-0.617V324.938z"/>
			<path fill="#331842" d="M110.523,317.536h1.769v14.404h-1.769V317.536z"/>
			<path fill="#331842" d="M115.241,317.536h1.663v13.262h3v1.145h-4.663V317.536z"/>
			<path fill="#331842" d="M121.515,317.536h1.769v14.404h-1.769V317.536z"/>
			<path fill="#331842" d="M124.959,317.536h5.672v1.143h-1.99v13.264h-1.689v-13.264h-1.992V317.536z"/>
			<path fill="#331842" d="M134.013,317.536h2.437l2.791,14.404h-1.795l-0.668-4.004h-3.17l-0.72,4.004h-1.757L134.013,317.536z
				 M135.167,318.6l-1.402,8.281h2.791l-1.311-8.281H135.167z"/>
			<path fill="#331842" d="M146.538,319.821v1.377h-1.756v-1.338c0-0.561-0.08-0.947-0.242-1.162s-0.447-0.322-0.857-0.322
				c-0.376,0-0.639,0.123-0.786,0.367c-0.149,0.244-0.224,0.756-0.224,1.537v8.916c0,0.801,0.078,1.322,0.236,1.562
				c0.156,0.24,0.444,0.361,0.864,0.361c0.358,0,0.616-0.115,0.772-0.342c0.158-0.229,0.236-0.615,0.236-1.162v-1.553h1.756v1.602
				c0,0.982-0.205,1.648-0.617,1.996c-0.41,0.348-1.144,0.521-2.2,0.521c-1.04,0-1.765-0.225-2.175-0.674
				c-0.412-0.449-0.616-1.285-0.616-2.51v-8.525c0-1.217,0.204-2.047,0.616-2.488c0.41-0.443,1.135-0.664,2.175-0.664
				c1.065,0,1.801,0.172,2.206,0.518C146.334,318.184,146.538,318.844,146.538,319.821z"/>
			<path fill="#331842" d="M148.711,317.536h1.77v14.404h-1.77V317.536z"/>
			<path fill="#331842" d="M159.428,320.475V329c0,1.238-0.223,2.078-0.668,2.521c-0.445,0.441-1.24,0.662-2.385,0.662
				c-1.125,0-1.912-0.225-2.357-0.674s-0.668-1.285-0.668-2.51v-8.525c0-1.211,0.225-2.039,0.674-2.484s1.243-0.668,2.378-0.668
				c1.136,0,1.923,0.221,2.365,0.664C159.208,318.428,159.428,319.258,159.428,320.475z M157.686,320.28
				c0-0.729-0.096-1.229-0.288-1.498c-0.192-0.271-0.532-0.406-1.022-0.406c-0.479,0-0.813,0.133-1.002,0.396
				c-0.188,0.264-0.281,0.768-0.281,1.51v8.916c0,0.748,0.097,1.252,0.289,1.514c0.191,0.26,0.533,0.391,1.021,0.391
				c0.48,0,0.814-0.131,1.002-0.391s0.281-0.766,0.281-1.514V320.28z M156.808,314.049h1.849l-1.717,2.178h-1.283L156.808,314.049z"
				/>
			<path fill="#331842" d="M162.362,317.536h2.28l2.765,13.545h0.025l-0.249-13.545h1.507v14.404h-2.307l-2.737-13.359h-0.054
				l0.236,13.359h-1.468L162.362,317.536L162.362,317.536z"/>
		</g>
	</g>
</g>
</svg>
