<?xml version="1.0" encoding="utf-8"?>
<!-- Generator: Adobe Illustrator 16.0.0, SVG Export Plug-In . SVG Version: 6.00 Build 0)  -->
<!DOCTYPE svg PUBLIC "-//W3C//DTD SVG 1.1//EN" "http://www.w3.org/Graphics/SVG/1.1/DTD/svg11.dtd">
<svg version="1.1" id="Capa_1" xmlns="http://www.w3.org/2000/svg" xmlns:xlink="http://www.w3.org/1999/xlink" x="0px" y="0px"
	 width="734.338px" height="413.176px" viewBox="0 0 734.338 413.176" enable-background="new 0 0 734.338 413.176"
	 xml:space="preserve">
<g>
	<g>
		<g>
			<polygon fill="none" points="167.06,204.374 167.054,204.363 167.057,204.37 			"/>
			<path fill="none" d="M167.394,205.68c0.01,0.001,0.018,0.003,0.026,0.006l0.277,0.105c0.027,0.009,0.053,0.027,0.072,0.049
				l0.346,0.41l0.038,0.009l0.218-0.064c-0.016-0.004-0.032-0.008-0.048-0.016l-0.278-0.14c-0.023-0.01-0.042-0.027-0.059-0.046
				l-0.335-0.419L167.394,205.68z"/>
			<polygon fill="none" points="167.371,204.774 167.347,204.747 167.366,204.771 			"/>
			<path fill="none" d="M168.824,205.949l0.363-0.332l0.223-0.291l0.001-0.001c0,0,0,0,0.001-0.002l0.195-0.245l-0.305-0.005
				c-0.004,0.023-0.012,0.045-0.023,0.066l-0.417,0.695c-0.009,0.015-0.021,0.028-0.033,0.04l-0.246,0.22l0.146-0.081
				L168.824,205.949z"/>
			<path fill="#F39200" d="M167.727,204.648l0.292,0.058l1.948,0.031c0.066,0.001,0.126,0.04,0.154,0.1
				c0.028,0.059,0.02,0.131-0.021,0.183l-0.351,0.437l0.13,0.285c0.01,0.023,0.016,0.048,0.016,0.073v0.566l0.053,0.186l0.273,0.333
				l0.159,0.106l0.07,0.014l0.323-0.206c0.013-0.008,0.025-0.013,0.039-0.018l0.521-0.174c0.019-0.006,0.036-0.009,0.055-0.009
				h0.243l0.237,0.038c0.025,0.004,0.049,0.014,0.069,0.029l0.427,0.294l0.247,0.062c0.032,0.008,0.061,0.023,0.083,0.046
				l1.007,1.043l0.311,0.363h0.328l0.512,0.072l0.189-0.001l0.165-0.055l0.128-0.078l0.188-0.25c0.013-0.016,0.026-0.03,0.043-0.04
				l0.104-0.07c0.029-0.019,0.062-0.028,0.097-0.028h0.172l0.334,0.035h0.224c0.022,0,0.046,0.003,0.068,0.013l0.243,0.105
				c0.021,0.009,0.039,0.021,0.055,0.037l0.278,0.278c0.008,0.008,0.016,0.018,0.021,0.029l0.946,1.451l0.502,0.237l0.682-0.065
				c0.02-0.001,0.038,0,0.055,0.004l0.312,0.068c0.049,0.012,0.089,0.042,0.114,0.084l0.115,0.203l0.202,0.114l0.281,0.091
				l0.717,0.307l0.354,0.03l0.242-0.082l0.735-0.702l0.433-0.326l0.329-0.332c0.016-0.016,0.034-0.029,0.055-0.036l0.243-0.105
				c0.015-0.007,0.029-0.01,0.046-0.012l0.279-0.035c0.023-0.002,0.045-0.001,0.066,0.005l1.124,0.306h0.207l0.059-0.035
				l0.025-0.227c0.002-0.017,0.006-0.034,0.013-0.049l0.104-0.244c0.006-0.012,0.011-0.022,0.018-0.033l0.521-0.729l0.606-0.643
				c0.013-0.015,0.029-0.027,0.048-0.036l0.556-0.279l0.543-0.171l0.563-0.533l0.095-0.307l-0.256-0.256l-0.95-0.509
				c-0.046-0.024-0.079-0.07-0.088-0.122l-0.104-0.591c-0.003-0.019-0.003-0.038-0.001-0.056l0.169-1.116l-0.018-0.087l-0.511-0.447
				c-0.012-0.011-0.021-0.022-0.03-0.034l-0.21-0.314l-0.422-0.739c-0.009-0.017-0.016-0.035-0.02-0.052l-0.034-0.174
				c-0.016-0.078,0.021-0.155,0.093-0.19l0.139-0.068c0.038-0.018,0.08-0.023,0.119-0.013l0.258,0.063l0,0h0.131l0.396-0.099
				l0.623-0.197l0.415-0.297l0.287-0.989l-0.03-0.389l-0.161-0.354c-0.011-0.023-0.016-0.048-0.016-0.073v-0.277
				c0-0.018,0.003-0.033,0.007-0.048l0.347-1.216c0.005-0.012,0.01-0.024,0.016-0.036l0.208-0.382
				c0.01-0.019,0.022-0.034,0.038-0.048l1.25-1.111l0.639-0.462l0.671-0.708l0.254-0.401l-0.05-0.251l-0.125-0.218
				c-0.015-0.027-0.022-0.055-0.022-0.086v-0.278c0-0.024,0.005-0.048,0.015-0.07l0.139-0.313l0.181-0.327l0.191-0.235l1.932-1.653
				l0.898-1.068l0.648-1.846c0.004-0.014,0.013-0.027,0.02-0.039l0.208-0.312l0.404-0.408l0.265-0.192l0.624-0.596l0.032-1.025
				l-0.322-0.547c-0.018-0.029-0.025-0.062-0.023-0.096l0.033-0.666l-0.229-0.784l-1.898-3.142c-0.014-0.023-0.022-0.05-0.024-0.078
				l-0.07-1.008c-0.001-0.021,0.002-0.043,0.008-0.064l0.418-1.32c0.009-0.032,0.027-0.06,0.054-0.08l0.451-0.383l1.174-0.707
				l0.263-1.211l0.031-0.599c0.002-0.041,0.018-0.079,0.046-0.108l0.756-0.817l-0.789-0.82l-0.149-0.186l-0.261-0.478
				c-0.016-0.03-0.022-0.064-0.02-0.099l0.034-0.382l0.274-1.004l-0.062-0.523l-0.156-0.283l-0.658-1.107
				c-0.006-0.011-0.012-0.022-0.015-0.034l-0.174-0.521l-0.111-0.652c-0.002-0.016-0.003-0.034-0.001-0.049l0.069-0.556
				c0.002-0.014,0.005-0.027,0.01-0.041l0.609-1.592l-0.12-0.909l-0.474-0.251h-0.582c-0.023,0-0.046-0.004-0.066-0.013
				l-0.591-0.243c-0.027-0.012-0.052-0.03-0.07-0.053l-0.66-0.833c-0.011-0.015-0.02-0.03-0.025-0.046l-0.557-1.459
				c-0.005-0.014-0.008-0.027-0.01-0.042l-0.168-1.419l-0.205-0.322l-0.355-0.266l-0.787-0.099l-0.848,0.001l-0.883,0.104
				l-0.746,0.17l-1.134,0.107l-1.322,0.104l-1.017,0.239l-1.875,0.074l-0.617-0.071l-0.651-0.179
				c-0.021-0.005-0.042-0.016-0.06-0.03l-0.313-0.243c-0.012-0.009-0.022-0.02-0.031-0.032l-0.208-0.278
				c-0.018-0.023-0.029-0.051-0.033-0.08l-0.065-0.453l-0.216-0.371l-0.646-0.68c-0.021-0.022-0.036-0.049-0.043-0.078l-0.034-0.139
				l-0.092-0.458l-0.021-0.015l-0.355-0.096c-0.029-0.007-0.056-0.023-0.076-0.045l-0.139-0.139
				c-0.021-0.021-0.037-0.048-0.046-0.076l-0.104-0.383c-0.007-0.024-0.009-0.048-0.005-0.072l0.07-0.451l0.146-0.446
				c0.008-0.025,0.022-0.048,0.039-0.067l0.031-0.03l-0.082-0.036c-0.045-0.021-0.08-0.06-0.095-0.108
				c-0.015-0.049-0.008-0.102,0.02-0.144l0.208-0.329l-0.02-0.164l-0.174-0.204c-0.011-0.012-0.02-0.026-0.026-0.041l-0.174-0.382
				c-0.02-0.044-0.021-0.096-0.001-0.141c0.021-0.045,0.058-0.08,0.104-0.096l0.248-0.083l-0.135-0.036
				c-0.056-0.016-0.101-0.057-0.119-0.112l-0.069-0.209c-0.014-0.041-0.012-0.086,0.006-0.125l0.139-0.313
				c0.008-0.016,0.018-0.031,0.028-0.043l0.187-0.213l-0.01-0.049l-0.453-0.567l-0.197,0.066c-0.063,0.021-0.133,0.004-0.179-0.042
				l-0.208-0.209c-0.012-0.011-0.021-0.024-0.029-0.039l-0.158-0.285l-0.22-0.188c-0.04-0.033-0.061-0.081-0.061-0.132v-0.392
				l-0.086-0.288l-0.157-0.183l-0.236-0.094l-0.207,0.104c-0.086,0.043-0.189,0.008-0.233-0.078l-0.139-0.278
				c-0.017-0.031-0.022-0.067-0.017-0.102l0.069-0.486c0.003-0.023,0.011-0.045,0.023-0.065l0.208-0.347
				c0.031-0.053,0.088-0.085,0.149-0.085h0.139c0.038,0,0.073,0.012,0.104,0.035l0.04,0.03l0.014-0.074l-0.458-0.061l-0.241-0.077
				c-0.04-0.014-0.074-0.042-0.096-0.079l-0.139-0.243c-0.016-0.026-0.022-0.056-0.022-0.086v-0.139l0,0
				c-0.003,0.003-0.006,0.007-0.009,0.012c-0.039,0.042-0.097,0.062-0.152,0.057l-0.277-0.035c-0.03-0.003-0.059-0.015-0.082-0.033
				l-0.14-0.104c-0.025-0.02-0.045-0.044-0.058-0.075l-0.069-0.173c-0.009-0.021-0.012-0.042-0.012-0.064v-0.21l-0.022-0.056
				l-0.081-0.016l-0.397-0.032c-0.065-0.005-0.121-0.047-0.146-0.107c-0.024-0.06-0.014-0.129,0.028-0.179l0.434-0.529l-0.034-0.119
				l-0.297-0.208c-0.035-0.023-0.059-0.059-0.069-0.1l-0.068-0.278c-0.005-0.014-0.007-0.028-0.007-0.042v-0.84l-0.061-0.182
				c-0.014-0.043-0.011-0.091,0.011-0.132c0.02-0.042,0.057-0.073,0.099-0.086l1.043-0.348c0.012-0.004,0.023-0.006,0.036-0.008
				l0.272-0.031l0.697-0.431c0.031-0.02,0.07-0.028,0.107-0.025l1.062,0.1l0.128-0.063l0.079-0.106l0.294-0.297l0.174-0.233
				l0.085-0.283l-0.101-0.833l-0.099-0.357l-0.104-0.202l-0.238-0.148c-0.011-0.007-0.021-0.015-0.03-0.025l-0.069-0.069
				c-0.017-0.016-0.028-0.034-0.037-0.055l-0.208-0.486c-0.017-0.037-0.019-0.08-0.007-0.119l0.104-0.347
				c0.012-0.042,0.041-0.077,0.077-0.099l0.348-0.208l0.479-0.187c0.012-0.004,0.024-0.007,0.036-0.01l0.695-0.104l1.503-0.14
				l0.503-0.001c0.015,0,0.028,0.001,0.043,0.006l1.91,0.486l0.43,0.143l0.308,0.167l0.41,0.026l0.796-1.367l0.065-0.425
				l-0.071-2.583l-0.47-1.411l-0.286-0.413l-0.99-0.854l-0.246-0.184l-0.285-0.095l-0.768-0.096
				c-0.023-0.004-0.047-0.012-0.068-0.024l-0.625-0.383l-0.474-0.398l-1.898-2.35l-2.412-2.619l-2.417-1.727l-3.004-2.758
				l-0.256-0.291c-0.011-0.011-0.019-0.023-0.024-0.037l-0.175-0.347c-0.036-0.073-0.017-0.162,0.047-0.213l0.174-0.139
				c0.006-0.004,0.012-0.009,0.019-0.012c-0.071-0.025-0.118-0.09-0.118-0.165v-0.973c0-0.051,0.021-0.1,0.062-0.132
				c0.039-0.033,0.091-0.048,0.141-0.039l0.558,0.093l0.464-0.309l0.46-0.465l0.354-0.251l0.267-0.296l0.442-2.35l0.148-0.379
				c0.005-0.013,0.012-0.024,0.021-0.037l0.172-0.243c0.016-0.019,0.032-0.035,0.052-0.047l0.384-0.235l0.057-0.373
				c0.004-0.026,0.015-0.052,0.03-0.073l0.156-0.219l0.122-0.427l-0.171-1.913l-0.101-0.428l-0.163-0.349l-0.282-1.149h-0.601
				c-0.015,0-0.025-0.001-0.038-0.004l-0.313-0.069c-0.022-0.005-0.045-0.016-0.064-0.03l-0.521-0.382
				c-0.018-0.013-0.034-0.03-0.046-0.051l-1.876-3.126l-0.225-0.253l-0.304-0.24l-1.156-0.442c-0.013-0.005-0.024-0.011-0.035-0.019
				l-1.529-1.042c-0.031-0.021-0.055-0.053-0.066-0.089l-0.174-0.521l-0.215-0.919l-0.165-0.428l-0.195-0.321l-0.188-0.249
				l-0.3-0.266c-0.013-0.011-0.023-0.024-0.032-0.039l-0.278-0.452c-0.01-0.016-0.017-0.033-0.021-0.05l-0.191-0.794l-0.173-0.095
				l-0.026,0.039l-0.031,0.372c-0.004,0.051-0.03,0.097-0.071,0.127l-0.244,0.174c-0.024,0.018-0.055,0.029-0.085,0.032
				l-0.383,0.035l-0.326,0.091l-0.298,0.189l-0.007,0.037l0.107,0.187c0.015,0.025,0.022,0.055,0.022,0.086v0.417
				c0,0.025-0.006,0.051-0.018,0.073l-0.277,0.591c-0.007,0.017-0.018,0.031-0.03,0.045l-0.877,0.943l-0.188,0.631v0.437
				l0.079,0.053l0.669-0.063c0.025-0.002,0.051,0.001,0.075,0.01l0.382,0.139c0.02,0.007,0.037,0.019,0.055,0.032l0.242,0.208
				c0.015,0.012,0.028,0.028,0.038,0.045l0.381,0.66l0.357,0.816c0.007,0.017,0.011,0.033,0.014,0.051l0.173,1.633l0.197,0.78
				l0.23,0.346l0.205,0.077l0.291,0.032c0.012,0.002,0.024,0.004,0.035,0.008l0.312,0.104c0.035,0.012,0.065,0.034,0.087,0.064
				l0.174,0.243l0.504,1.106l0.817,1.189l0.705,1.337c0.007,0.012,0.012,0.024,0.015,0.036l0.485,1.842l0.039,0.553l0.146,0.292
				l0.188,0.188l0.222,0.155l0.265,0.261c0.015,0.015,0.025,0.032,0.035,0.051l0.174,0.382c0.033,0.074,0.012,0.162-0.054,0.211
				l-0.139,0.104c-0.03,0.022-0.066,0.034-0.104,0.034h-0.869l-0.66,0.136l-0.746,0.239l-0.675,0.356l-0.446,0.479l-0.578,1.293
				c-0.007,0.013-0.014,0.024-0.021,0.035l-0.674,0.875l-0.045,0.184l0.275,0.611l0.429,0.429c0.017,0.015,0.028,0.035,0.037,0.055
				l0.174,0.417c0.028,0.068,0.01,0.146-0.044,0.196l-0.695,0.625l-3.272,2.058l-1.063,1.063l-0.603,0.498
				c-0.028,0.024-0.062,0.037-0.099,0.04l-0.521,0.035c-0.05,0.001-0.099-0.015-0.134-0.05l-0.243-0.244
				c-0.022-0.021-0.038-0.048-0.046-0.078l-0.307-1.16l-0.163-0.294l-0.579-0.834l-0.215-0.054c-0.054-0.013-0.099-0.052-0.12-0.104
				l-0.068-0.173c-0.017-0.043-0.017-0.091,0.002-0.133l0.064-0.151l-0.137-0.182l-1.146-0.979l-0.14-0.06l-0.409,0.23l-0.121,0.729
				l0.102,0.984l0.203,0.699l0.51,1.013c0.008,0.017,0.015,0.036,0.017,0.055l0.069,0.52c0.003,0.027,0,0.055-0.008,0.082
				l-0.209,0.59c-0.007,0.017-0.015,0.034-0.027,0.048l-0.347,0.452c-0.015,0.02-0.034,0.036-0.055,0.047l-0.452,0.243
				c-0.016,0.007-0.029,0.014-0.047,0.017l-0.486,0.104c-0.025,0.005-0.052,0.005-0.077-0.001l-0.396-0.099l-1.667,5.357
				c0.037,0.01,0.069,0.033,0.092,0.063l0.367,0.5l0.234,0.176l0.286,0.095c0.061,0.021,0.104,0.072,0.115,0.134
				c0.006,0.031,0.003,0.062-0.007,0.09l0.061,0.018c0.04,0.012,0.074,0.039,0.096,0.074l0.174,0.278l0.127,0.282l0.161,0.092
				l0.379,0.032c0.025,0.001,0.05,0.01,0.071,0.022l0.243,0.138c0.017,0.009,0.03,0.021,0.042,0.033l1.668,1.803
				c0.03-0.054,0.088-0.086,0.15-0.086h0.173c0.065,0,0.124,0.035,0.154,0.092l0.729,1.39l0.29,0.933
				c0.016,0.05,0.008,0.104-0.021,0.147l-0.278,0.417c-0.018,0.027-0.044,0.049-0.074,0.062l-0.553,0.246l-0.176,0.555l0.062,0.958
				l0.024-0.05c0.023-0.045,0.064-0.078,0.113-0.091l0.278-0.07c0.053-0.014,0.11,0,0.154,0.035l0.175,0.148l0.551,0.129
				c0.022,0.005,0.043,0.015,0.061,0.027l0.348,0.243l0.684,0.68l0.5,0.641c0.008,0.011,0.016,0.022,0.021,0.036l0.938,2.084
				c0.019,0.042,0.021,0.09,0.004,0.132l-0.098,0.259l-0.032,0.258l0.001,0.364l0.208-0.093c0.003-0.001,0.007-0.002,0.01-0.003
				l-0.056-0.101c-0.033-0.059-0.029-0.132,0.011-0.186l0.278-0.382c0.01-0.013,0.021-0.025,0.034-0.036l0.451-0.348
				c0.02-0.014,0.041-0.024,0.064-0.031l0.555-0.139c0.044-0.011,0.09-0.005,0.129,0.017l0.799,0.452l0.178,0.056
				c0.02,0.007,0.037,0.016,0.054,0.029l0.173,0.139c0.03,0.024,0.052,0.057,0.061,0.094l0.069,0.277
				c0.003,0.014,0.005,0.028,0.005,0.042v0.313c0,0.016-0.002,0.033-0.006,0.048l-0.132,0.463v0.129l0.17,0.122
				c0.011,0.009,0.021,0.018,0.03,0.028l0.418,0.487l0.773,0.601c0.022,0.017,0.039,0.039,0.051,0.065l0.174,0.381
				c0.009,0.02,0.014,0.04,0.016,0.06l0.035,0.521c0,0.016,0,0.031-0.004,0.046l-0.104,0.521c-0.005,0.027-0.017,0.052-0.034,0.075
				l-0.244,0.304l-0.03,0.433l-0.11,0.416c-0.004,0.015-0.01,0.029-0.018,0.042l-0.324,0.58l0.197,0.123
				c0.015,0.01,0.027,0.021,0.039,0.035l0.208,0.243c0.02,0.022,0.033,0.05,0.039,0.079l0.07,0.348c0.003,0.022,0.003,0.046,0,0.068
				l-0.07,0.347c-0.012,0.058-0.052,0.106-0.106,0.127c-0.055,0.022-0.117,0.014-0.165-0.02l-0.243-0.174
				c-0.022-0.016-0.041-0.037-0.055-0.063l-0.003-0.006l-0.313,0.098l-0.005,0.033l0.376,0.532c0.011,0.016,0.02,0.034,0.025,0.053
				l0.069,0.242l0.04,0.378l-0.034,0.449l-0.071,0.464c-0.002,0.013-0.005,0.025-0.01,0.037l-0.348,0.869l-0.217,0.4
				c-0.014,0.023-0.03,0.043-0.052,0.058l-0.243,0.173c-0.075,0.055-0.179,0.04-0.238-0.032l-0.554-0.694l-0.597-0.497l0.014,0.026
				c0.017,0.026,0.023,0.055,0.023,0.084v0.382c0,0.012-0.002,0.024-0.004,0.036l-0.174,0.833l-0.03,0.88l0.091,0.3l0.232,0.399
				l1.409,1.75l0.633,0.914c0.01,0.013,0.017,0.028,0.021,0.044l0.184,0.548v-0.111c0-0.096,0.078-0.173,0.174-0.173h0.173
				c0.073,0,0.14,0.046,0.164,0.115l0.903,2.536c0.005,0.015,0.008,0.031,0.01,0.046l0.029,0.449l0.188,0.161
				c0.014,0.012,0.025,0.025,0.034,0.041l0.938,1.529l0.359,0.857c0.008,0.018,0.011,0.036,0.013,0.054l0.07,0.974
				c0.001,0.018,0,0.036-0.005,0.054l-0.139,0.556l-0.11,0.297c-0.007,0.018-0.019,0.035-0.03,0.049l-0.173,0.209l-0.23,0.196
				l-0.531,0.365l-0.154,0.309c-0.032,0.065-0.103,0.104-0.177,0.095l-0.194-0.025l-0.019,0.019l0.025,0.194
				c0.003,0.028,0,0.056-0.01,0.082l-0.207,0.584c-0.009,0.026-0.023,0.049-0.043,0.068l-0.138,0.139
				c-0.02,0.019-0.042,0.034-0.068,0.042l-0.521,0.174c-0.037,0.013-0.078,0.012-0.115-0.002l-0.382-0.139l-0.36-0.212l-0.355-0.119
				l-0.266,0.053l-0.194,0.139l-0.159,0.191c-0.013,0.015-0.026,0.026-0.042,0.035l-0.278,0.174
				c-0.014,0.009-0.027,0.016-0.043,0.021l-0.244,0.069c-0.012,0.004-0.024,0.006-0.035,0.007l-0.5,0.033l-0.134,0.045l-0.246,0.337
				l-0.54,1.121c-0.006,0.013-0.014,0.025-0.024,0.037l-0.208,0.243c-0.027,0.033-0.067,0.054-0.11,0.059l-0.236,0.029l-0.126,0.083
				l-0.024,0.074l0.079,0.127h0.042l0.211-0.09c0.021-0.009,0.045-0.014,0.068-0.014h0.277c0.043,0,0.083,0.016,0.114,0.043
				l0.049,0.042c0.008-0.012,0.016-0.023,0.027-0.034l0.174-0.173c0.021-0.021,0.046-0.037,0.074-0.044l0.244-0.07
				c0.016-0.004,0.031-0.006,0.047-0.006h0.348c0.018,0,0.037,0.003,0.055,0.009l0.312,0.104c0.025,0.008,0.049,0.022,0.066,0.042
				l0.21,0.209l0.192,0.265l0.204,0.201l0.095,0.047l0.465,0.1c0.033,0.007,0.062,0.023,0.086,0.047l0.174,0.174
				c0.041,0.042,0.059,0.1,0.048,0.157l-0.027,0.137l0.16,0.672l0.076,0.152l0.208,0.149c0.044,0.031,0.071,0.082,0.072,0.136
				c0.002,0.054-0.022,0.106-0.064,0.14l-0.174,0.139c-0.031,0.025-0.068,0.039-0.109,0.039h-0.139
				c-0.039,0-0.077-0.014-0.109-0.039l-0.064-0.051v0.128l0.069,0.184l0.078,0.039l0.275-0.11c0.051-0.021,0.109-0.015,0.156,0.014
				c0.047,0.03,0.076,0.08,0.081,0.135l0.069,0.938l0.087,0.404l0.164,0.135c0.021,0.018,0.037,0.04,0.048,0.065l0.104,0.244
				c0.011,0.024,0.016,0.052,0.014,0.08l-0.034,0.521l0.027,0.403l0.231,0.128c0.075,0.042,0.108,0.135,0.076,0.216l-0.278,0.694
				l-0.202,0.746l-0.131,0.765l0.136,3.459l0.163,0.388c0.006,0.016,0.01,0.034,0.012,0.051l0.278,2.987l0.136,0.761l0.331-0.111
				c0.048-0.017,0.099-0.01,0.144,0.015c0.043,0.026,0.072,0.07,0.082,0.119l0.131,0.719l0.979,1.181
				c0.014,0.017,0.023,0.037,0.032,0.058l0.241,0.765c0.018,0.053,0.008,0.11-0.024,0.155c-0.033,0.044-0.085,0.071-0.14,0.071
				h-0.14c-0.065,0-0.125-0.037-0.155-0.096l-0.208-0.417l-0.244-0.333l-0.358-0.238l-0.234-0.032l0.016,0.071
				c0.003,0.012,0.004,0.024,0.004,0.038v0.354l0.072,0.217l0.491,0.246c0.049,0.024,0.082,0.069,0.093,0.122l0.069,0.348
				c0.005,0.021,0.005,0.043,0.001,0.064l-0.069,0.382c-0.003,0.013-0.007,0.025-0.012,0.038l-0.104,0.243
				c-0.022,0.051-0.067,0.088-0.122,0.1c-0.056,0.013-0.111-0.001-0.154-0.039l-0.169-0.151l-0.028,2.594
				c0,0.012,0,0.025-0.004,0.037l-0.243,1.078l-0.039,0.4l0.229-0.082c0.054-0.02,0.112-0.01,0.157,0.021
				c0.048,0.032,0.075,0.085,0.075,0.143v0.174c0,0.067-0.039,0.128-0.101,0.157l-0.479,0.224l-0.194,0.277l-0.167,0.97
				c-0.003,0.012-0.006,0.023-0.01,0.035l-0.14,0.347c-0.005,0.011-0.011,0.023-0.019,0.035l-0.598,0.848l0.771,1.345
				L167.727,204.648z"/>
			<polygon fill="#7C7C7C" points="177.507,148.289 177.482,148.324 177.486,148.343 			"/>
		</g>
	</g>
	<g>
		<g>
			<g>
				<g>
					<path fill="#FFFFFF" d="M515.044,188.257h-7.4v-4.946c0-1.438-0.079-2.336-0.237-2.692s-0.507-0.535-1.046-0.535
						c-0.609,0-0.996,0.217-1.16,0.65s-0.246,1.371-0.246,2.812v13.219c0,1.383,0.082,2.285,0.246,2.707s0.533,0.633,1.107,0.633
						c0.551,0,0.911-0.211,1.081-0.634s0.255-1.416,0.255-2.978v-3.577h7.4v1.109c0,2.946-0.208,5.035-0.624,6.267
						c-0.416,1.232-1.336,2.312-2.76,3.239c-1.424,0.927-3.179,1.391-5.265,1.391c-2.168,0-3.955-0.393-5.361-1.178
						s-2.338-1.872-2.795-3.261s-0.686-3.478-0.686-6.267v-8.314c0-2.051,0.07-3.589,0.211-4.614s0.56-2.013,1.257-2.962
						s1.664-1.696,2.9-2.241s2.657-0.817,4.263-0.817c2.18,0,3.979,0.421,5.396,1.264c1.418,0.842,2.35,1.893,2.795,3.151
						s0.668,3.215,0.668,5.872V188.257z"/>
					<path fill="#FFFFFF" d="M534.714,175.865v28.459h-7.4v-11.953h-2.215v11.953h-7.4v-28.459h7.4v10.178h2.215v-10.178H534.714z"
						/>
					<path fill="#FFFFFF" d="M554.595,192.529c0,2.859-0.067,4.884-0.202,6.073s-0.557,2.276-1.266,3.261s-1.667,1.74-2.874,2.268
						s-2.613,0.791-4.219,0.791c-1.523,0-2.892-0.249-4.104-0.747s-2.188-1.245-2.927-2.241s-1.178-2.08-1.318-3.252
						s-0.211-3.223-0.211-6.152v-4.869c0-2.859,0.067-4.884,0.202-6.073s0.557-2.276,1.266-3.261s1.667-1.74,2.874-2.268
						s2.613-0.791,4.219-0.791c1.523,0,2.892,0.249,4.104,0.747s2.188,1.245,2.927,2.241s1.178,2.08,1.318,3.252
						s0.211,3.223,0.211,6.152V192.529z M547.194,183.177c0-1.324-0.073-2.171-0.22-2.54s-0.448-0.554-0.905-0.554
						c-0.387,0-0.683,0.149-0.888,0.448s-0.308,1.181-0.308,2.646v13.289c0,1.652,0.067,2.672,0.202,3.059s0.448,0.58,0.94,0.58
						c0.504,0,0.826-0.223,0.967-0.668s0.211-1.506,0.211-3.182V183.177z"/>
					<path fill="#FFFFFF" d="M574.634,188.257h-7.4v-4.946c0-1.438-0.079-2.336-0.237-2.692s-0.507-0.535-1.046-0.535
						c-0.609,0-0.996,0.217-1.16,0.65s-0.246,1.371-0.246,2.812v13.219c0,1.383,0.082,2.285,0.246,2.707s0.533,0.633,1.107,0.633
						c0.551,0,0.911-0.211,1.081-0.634s0.255-1.416,0.255-2.978v-3.577h7.4v1.109c0,2.946-0.208,5.035-0.624,6.267
						c-0.416,1.232-1.336,2.312-2.76,3.239c-1.424,0.927-3.179,1.391-5.265,1.391c-2.168,0-3.955-0.393-5.361-1.178
						s-2.338-1.872-2.795-3.261s-0.686-3.478-0.686-6.267v-8.314c0-2.051,0.07-3.589,0.211-4.614s0.56-2.013,1.257-2.962
						s1.664-1.696,2.9-2.241s2.657-0.817,4.263-0.817c2.18,0,3.979,0.421,5.396,1.264c1.418,0.842,2.35,1.893,2.795,3.151
						s0.668,3.215,0.668,5.872V188.257z"/>
					<path fill="#FFFFFF" d="M594.198,192.529c0,2.859-0.067,4.884-0.202,6.073s-0.557,2.276-1.266,3.261s-1.667,1.74-2.874,2.268
						s-2.613,0.791-4.219,0.791c-1.523,0-2.892-0.249-4.104-0.747s-2.188-1.245-2.927-2.241s-1.178-2.08-1.318-3.252
						s-0.211-3.223-0.211-6.152v-4.869c0-2.859,0.067-4.884,0.202-6.073s0.557-2.276,1.266-3.261s1.667-1.74,2.874-2.268
						s2.613-0.791,4.219-0.791c1.523,0,2.892,0.249,4.104,0.747s2.188,1.245,2.927,2.241s1.178,2.08,1.318,3.252
						s0.211,3.223,0.211,6.152V192.529z M591.614,170.205l-5.783,4.764h-3.568l3.094-4.764H591.614z M586.798,183.177
						c0-1.324-0.073-2.171-0.22-2.54s-0.448-0.554-0.905-0.554c-0.387,0-0.683,0.149-0.888,0.448s-0.308,1.181-0.308,2.646v13.289
						c0,1.652,0.067,2.672,0.202,3.059s0.448,0.58,0.94,0.58c0.504,0,0.826-0.223,0.967-0.668s0.211-1.506,0.211-3.182V183.177z"/>
				</g>
			</g>
		</g>
	</g>
	<g>
		<g>
			<path fill="#F2961C" d="M498.711,225.136v4.156h-1.681v-12.987h3.685c1.045,0.141,1.927,0.571,2.646,1.291
				c0.86,0.866,1.291,1.905,1.291,3.117c0,1.223-0.431,2.266-1.291,3.129c-0.86,0.863-1.899,1.295-3.117,1.295H498.711z
				 M498.711,217.993v5.455h1.533c0.747,0,1.387-0.267,1.92-0.799c0.533-0.533,0.799-1.178,0.799-1.936
				c0-0.752-0.266-1.393-0.799-1.924c-0.533-0.53-1.173-0.795-1.92-0.795H498.711z"/>
			<path fill="#F2961C" d="M512.939,226.427l1.68,0.601c-0.411,0.568-0.709,0.944-0.893,1.128c-0.904,0.904-1.994,1.355-3.271,1.355
				c-1.271,0-2.359-0.452-3.263-1.355s-1.355-1.994-1.355-3.271c0-1.277,0.452-2.368,1.355-3.271
				c0.903-0.903,1.991-1.355,3.263-1.355c1.277,0,2.367,0.452,3.271,1.355c0.184,0.184,0.481,0.555,0.893,1.112l-1.68,0.617
				c-0.217-0.265-0.363-0.436-0.438-0.511c-0.563-0.563-1.245-0.844-2.046-0.844c-0.795,0-1.476,0.283-2.041,0.848
				s-0.848,1.249-0.848,2.05c0,0.795,0.282,1.476,0.848,2.041s1.246,0.848,2.041,0.848c0.801,0,1.486-0.281,2.055-0.844
				C512.579,226.854,512.723,226.687,512.939,226.427z"/>
			<path fill="#F2961C" d="M517.801,216.305c2.11,0.011,3.756,0.608,4.936,1.793c1.293,1.304,1.939,2.871,1.939,4.7
				c0,1.834-0.646,3.401-1.939,4.7c-1.18,1.185-2.825,1.783-4.936,1.794h-1.233v-12.987H517.801z M518.248,218.018v9.57
				c1.336,0,2.432-0.43,3.287-1.291c0.963-0.963,1.444-2.129,1.444-3.499c0-1.363-0.481-2.529-1.444-3.498
				C520.68,218.445,519.584,218.018,518.248,218.018z"/>
			<path fill="#F2961C" d="M538.174,216.305h1.47v7.8h1.145v1.68h-1.145v3.506h-1.681v-3.506h-5.316L538.174,216.305z
				 M537.963,220.096l-2.395,4.01h2.395V220.096z"/>
			<path fill="#F2961C" d="M545.021,227.385c0.229,0.227,0.344,0.503,0.344,0.828c0,0.335-0.114,0.617-0.344,0.844
				c-0.23,0.227-0.508,0.341-0.832,0.341c-0.32,0-0.596-0.114-0.828-0.341c-0.232-0.228-0.35-0.509-0.35-0.844
				c0-0.325,0.117-0.601,0.35-0.828c0.232-0.228,0.508-0.341,0.828-0.341C544.514,227.043,544.791,227.157,545.021,227.385z"/>
			<path fill="#F2961C" d="M553.438,221.211c-1.345,1.507-2.386,2.783-3.121,3.827c-0.735,1.044-1.131,2.462-1.185,4.253h-1.713
				c0.064-2.213,0.514-3.903,1.348-5.069c0.832-1.166,1.826-2.395,2.979-3.685s1.771-2.142,1.858-2.553h-6.169v-1.68h8.076
				C555.475,218.069,554.783,219.705,553.438,221.211z"/>
			<path fill="#F2961C" d="M560.106,221.281c0.481-0.52,1.28-0.779,2.395-0.779c1.12,0,2.051,0.371,2.792,1.112
				c0.898,0.904,1.348,1.994,1.348,3.271c0,1.271-0.449,2.358-1.348,3.259s-1.986,1.352-3.263,1.352
				c-1.272,0-2.359-0.449-3.263-1.348c-0.866-0.871-1.302-2.081-1.307-3.628v-0.024c0-1.532,0.413-2.879,1.241-4.042
				c0.833-1.169,1.959-2.551,3.376-4.147h2.209C562.322,218.34,560.929,219.998,560.106,221.281z M559.133,224.885
				c0,0.801,0.282,1.482,0.848,2.045c0.565,0.562,1.248,0.844,2.05,0.844c0.796,0,1.476-0.281,2.041-0.844
				c0.565-0.563,0.849-1.245,0.849-2.045s-0.283-1.483-0.849-2.046c-0.565-0.562-1.245-0.844-2.041-0.844
				c-0.802,0-1.484,0.281-2.05,0.844C559.415,223.402,559.133,224.084,559.133,224.885z"/>
			<path fill="#F2961C" d="M572.104,222.604l-1.016-0.024v-1.664c0.736-0.011,1.221-0.061,1.453-0.15s0.487-0.28,0.764-0.572
				c0.275-0.292,0.414-0.627,0.414-1.006c0-0.374-0.131-0.688-0.39-0.946c-0.26-0.257-0.577-0.385-0.95-0.385
				c-0.367,0-0.682,0.127-0.941,0.381c-0.146,0.151-0.314,0.481-0.503,0.99l-1.567-0.617c0.233-0.73,0.518-1.255,0.854-1.575
				c0.6-0.595,1.32-0.893,2.158-0.893c0.855,0,1.58,0.3,2.176,0.901s0.893,1.315,0.893,2.143c0,0.844-0.5,1.659-1.502,2.443
				c0.482,0.032,0.988,0.306,1.518,0.819c0.774,0.833,1.162,1.808,1.162,2.922c0,1.125-0.396,2.087-1.189,2.886
				c-0.793,0.798-1.755,1.197-2.886,1.197c-1.12,0-2.078-0.4-2.874-1.201c-0.633-0.638-1.035-1.523-1.209-2.654l1.68-0.608
				c0.098,0.974,0.344,1.658,0.739,2.053c0.466,0.46,1.021,0.69,1.664,0.69c0.654,0,1.214-0.23,1.676-0.69
				c0.463-0.459,0.694-1.017,0.694-1.672c0-0.66-0.231-1.242-0.694-1.745C573.764,223.123,573.056,222.782,572.104,222.604z"/>
			<path fill="#27515D" d="M510,250.517l1.584,1.421c-1.936,1.765-3.982,2.647-6.143,2.647c-2.311,0-4.279-0.814-5.908-2.443
				s-2.443-3.598-2.443-5.908c0-2.303,0.814-4.272,2.443-5.908s3.598-2.453,5.908-2.453c2.16,0,4.207,0.883,6.143,2.647L510,241.962
				c-1.459-1.294-2.979-1.942-4.559-1.942c-1.711,0-3.174,0.606-4.391,1.819s-1.824,2.678-1.824,4.395
				c0,1.724,0.607,3.193,1.824,4.406s2.68,1.819,4.391,1.819C507.021,252.459,508.541,251.812,510,250.517z"/>
			<path fill="#27515D" d="M516.244,247.645v6.767h-2.115v-16.354h2.115v7.472h5.05v-7.472h2.116v16.354h-2.116v-6.767H516.244z"/>
			<path fill="#27515D" d="M540.51,240.296c1.635,1.636,2.453,3.608,2.453,5.918s-0.818,4.283-2.453,5.918s-3.607,2.453-5.918,2.453
				s-4.283-0.818-5.918-2.453c-1.636-1.635-2.453-3.608-2.453-5.918s0.817-4.283,2.453-5.918c1.635-1.635,3.607-2.453,5.918-2.453
				S538.875,238.661,540.51,240.296z M534.592,239.979c-1.725,0-3.194,0.608-4.41,1.825c-1.217,1.216-1.824,2.687-1.824,4.411
				c0,1.724,0.609,3.196,1.829,4.416s2.688,1.83,4.405,1.83c1.724,0,3.193-0.61,4.41-1.83s1.824-2.692,1.824-4.416
				c0-1.724-0.607-3.194-1.824-4.411S536.315,239.979,534.592,239.979z"/>
			<path fill="#27515D" d="M558.438,250.517l1.585,1.421c-1.936,1.765-3.983,2.647-6.144,2.647c-2.31,0-4.279-0.814-5.907-2.443
				c-1.629-1.628-2.442-3.598-2.442-5.908c0-2.303,0.813-4.272,2.442-5.908c1.628-1.635,3.598-2.453,5.907-2.453
				c2.16,0,4.208,0.883,6.144,2.647l-1.585,1.441c-1.457-1.294-2.978-1.942-4.559-1.942c-1.71,0-3.174,0.606-4.39,1.819
				s-1.824,2.678-1.824,4.395c0,1.724,0.608,3.193,1.824,4.406s2.68,1.819,4.39,1.819
				C555.46,252.459,556.98,251.812,558.438,250.517z"/>
			<path fill="#27515D" d="M576.602,240.296c1.635,1.636,2.453,3.608,2.453,5.918s-0.818,4.283-2.453,5.918
				c-1.636,1.635-3.608,2.453-5.918,2.453c-2.311,0-4.283-0.818-5.918-2.453c-1.637-1.635-2.453-3.608-2.453-5.918
				s0.816-4.283,2.453-5.918c1.635-1.635,3.607-2.453,5.918-2.453C572.993,237.843,574.966,238.661,576.602,240.296z
				 M570.684,239.979c-1.725,0-3.195,0.608-4.411,1.825s-1.824,2.687-1.824,4.411c0,1.724,0.609,3.196,1.829,4.416
				c1.221,1.22,2.688,1.83,4.406,1.83c1.723,0,3.193-0.61,4.41-1.83s1.824-2.692,1.824-4.416c0-1.724-0.607-3.194-1.824-4.411
				S572.406,239.979,570.684,239.979z M571.307,234.194h2.576l-2.781,2.852h-2.014L571.307,234.194z"/>
		</g>
	</g>
	<g>
		<g>
			<polyline fill="none" stroke="#FFFFFF" stroke-width="2" points="172.264,137.474 405.945,185.55 486.537,185.55 			"/>
			<g>
				<circle fill="#FFFFFF" cx="172.374" cy="137.496" r="2.256"/>
			</g>
		</g>
	</g>
</g>
</svg>
