<?xml version="1.0" encoding="utf-8"?>
<!-- Generator: Adobe Illustrator 16.0.0, SVG Export Plug-In . SVG Version: 6.00 Build 0)  -->
<!DOCTYPE svg PUBLIC "-//W3C//DTD SVG 1.1//EN" "http://www.w3.org/Graphics/SVG/1.1/DTD/svg11.dtd">
<svg version="1.1" id="Capa_1" xmlns="http://www.w3.org/2000/svg" xmlns:xlink="http://www.w3.org/1999/xlink" x="0px" y="0px"
	 width="734.338px" height="413.176px" viewBox="0 0 734.338 413.176" enable-background="new 0 0 734.338 413.176"
	 xml:space="preserve">
<g>
	<g>
		<g>
			<path fill="#F39200" d="M292.785,292.633l0.184-0.276l0.025-0.296l-0.113-0.285l-0.244-0.304l-0.281-0.18l-0.029,0.011
				l-0.076,0.15c-0.02,0.038-0.051,0.067-0.09,0.083l-0.174,0.068c-0.029,0.012-0.061,0.016-0.09,0.012
				c-0.031-0.005-0.061-0.017-0.084-0.037l-0.348-0.279c-0.021-0.015-0.037-0.039-0.049-0.063l-0.174-0.381
				c-0.008-0.016-0.012-0.031-0.014-0.047l-0.135-0.909l-0.24-0.449l-0.305-0.167l-0.939-0.1c-0.027-0.004-0.055-0.013-0.076-0.028
				l-0.209-0.139c-0.035-0.023-0.061-0.057-0.07-0.097l-0.133-0.46l-0.109-0.163l-0.129-0.104l-1.049-0.372l-0.402-0.1l-1.566-0.1
				c-0.047-0.002-0.09-0.025-0.123-0.062l-0.172-0.208c-0.012-0.013-0.02-0.027-0.025-0.042l-0.404-0.908l-0.156-0.155l-0.148-0.047
				l-0.471-0.149c-0.027-0.008-0.051-0.022-0.07-0.043l-0.244-0.243c-0.035-0.036-0.055-0.088-0.051-0.138l0.035-0.382l0.055-0.222
				l0.055-0.222l0.002-0.027l0.025-0.255l-0.113-0.32l-0.107,0.107c-0.021,0.021-0.047,0.036-0.076,0.044l-0.244,0.069l0,0
				c-0.039,0.011-0.078,0.008-0.113-0.007h-0.002l-0.244-0.104c-0.027-0.012-0.051-0.031-0.07-0.056l-0.104-0.139
				c-0.02-0.026-0.031-0.056-0.033-0.088l-0.068-0.705l-0.137-0.354l-0.215-0.071l-0.361-0.032
				c-0.031-0.004-0.061-0.014-0.086-0.033l-0.242-0.174c-0.025-0.018-0.047-0.042-0.059-0.07l-0.139-0.313
				c-0.006-0.012-0.01-0.026-0.012-0.039l-0.07-0.383l-0.037-0.753l-0.092-0.354l-0.217-0.341l-1.039-0.972l-0.264-0.117
				l-0.74-0.102l-0.615-0.179c-0.018-0.005-0.033-0.013-0.047-0.022l-1.91-1.251l-0.682-0.605l-0.32-0.189l-0.691-0.281
				l-0.643,0.134v0.068c0,0.034-0.01,0.066-0.029,0.095l-0.52,0.798c-0.029,0.042-0.07,0.069-0.119,0.077l0,0l0,0
				c-0.049,0.007-0.098-0.005-0.135-0.035l-0.348-0.279c-0.014-0.009-0.023-0.02-0.031-0.031l-0.293-0.391l-0.342-0.216
				l-0.197-0.074l-0.037,0.014l-0.043,0.131c-0.01,0.026-0.023,0.049-0.043,0.069l-0.051,0.052l-0.053,0.051
				c-0.021,0.023-0.051,0.039-0.08,0.047l-0.527,0.149l-0.262,0.321l-0.059,0.208l-0.066,0.366c-0.002,0.012-0.006,0.024-0.01,0.036
				l-0.174,0.417l-0.051,0.18l0.094,0.409c0.004,0.013,0.004,0.025,0.004,0.04v0.278c0,0.018-0.002,0.037-0.01,0.054l-0.102,0.312
				l-0.15,0.301c-0.012,0.027-0.033,0.05-0.059,0.067l-0.312,0.209l-0.73,0.316l-0.326,0.293l-0.477,0.51l-0.516,0.416l-0.332,0.531
				c-0.014,0.021-0.029,0.039-0.051,0.053l-0.521,0.347c-0.01,0.007-0.02,0.012-0.031,0.016l-0.348,0.139
				c-0.016,0.006-0.031,0.011-0.047,0.012l-0.348,0.035l-0.469,0.001c-0.018,0-0.033-0.002-0.051-0.008l-1.25-0.382
				c-0.016-0.004-0.029-0.012-0.043-0.02l-0.488-0.312l-0.455-0.316c-0.018-0.012-0.031-0.026-0.043-0.043l-0.244-0.348
				c-0.008-0.012-0.014-0.023-0.02-0.035l-0.139-0.347l-0.111-0.222l-0.217-0.136l-0.848-0.271c-0.035-0.01-0.064-0.031-0.084-0.059
				l-0.625-0.798l-2.342-2.063l-1.197-1.37c-0.021-0.026-0.037-0.06-0.041-0.093l-0.068-0.556l-0.068-0.815l-0.271-0.744
				l-0.197-0.359l-0.328-0.388c-0.008-0.01-0.014-0.021-0.02-0.03l-0.338-0.641l-0.332-0.366l-1.158-0.881l-0.4-0.398l-2.383-3.499
				c-0.016-0.023-0.025-0.05-0.027-0.079l-0.035-0.312l-0.084-0.297l-0.055-0.194l-0.074-0.012l-1.74-0.28l-2.203,0.172
				l-0.883,0.001l-0.688-0.106l-13.855-4.871c-0.015-0.005-0.029-0.013-0.042-0.022l-0.938-0.66
				c-0.014-0.01-0.026-0.022-0.036-0.035l-0.296-0.372l-0.504-0.635c-0.008-0.011-0.015-0.023-0.021-0.034l-0.521-1.112
				c-0.006-0.013-0.011-0.025-0.013-0.04l-0.209-1.077l-0.004-0.833c0-0.018,0.004-0.038,0.01-0.054l0.243-0.729
				c0.006-0.019,0.016-0.035,0.026-0.051l0.452-0.591l0.532-0.569l0.317-0.447l0.122-0.366v-0.417l-0.225-0.449l-0.337-0.503
				l-0.62-0.695l-0.789-0.883l-0.399-0.612c-0.008-0.013-0.014-0.027-0.02-0.041l-0.208-0.662l-0.111-0.863l0.034-0.76l0.141-1.194
				l1.316-5.173l-0.031-0.764l-0.237-0.385l-0.426-0.328l-0.464-0.428c-0.01-0.009-0.019-0.019-0.026-0.03l-0.348-0.521
				c-0.007-0.011-0.013-0.022-0.018-0.034l0,0v-0.001l-0.66-1.735l-0.181-0.297l-0.293-0.26l-0.372-0.213l-0.366-0.112l-0.066-0.021
				l-0.065-0.008l-1.018-0.125l-2.302-0.753l-0.271,0.099l-0.055,0.02l-0.168,0.085l-1.233,1.13l-1.022,1.299l-0.436,0.81
				l-0.268,0.708l-0.119,0.387l0.169,0.479l0.504,0.315c0.014,0.008,0.025,0.017,0.036,0.028l0.521,0.555
				c0.02,0.021,0.034,0.048,0.041,0.078l0.175,0.693c0.009,0.038,0.006,0.076-0.009,0.111l-0.174,0.416
				c-0.007,0.019-0.017,0.034-0.03,0.048l-0.799,0.904l-2.004,1.552c-0.017,0.011-0.034,0.022-0.054,0.027l-0.764,0.244
				c-0.038,0.012-0.078,0.01-0.113-0.002l-0.279-0.105l-0.688-0.376l-0.21-0.026l-0.166,0.046l-0.246,0.247l-0.31,0.472
				l-0.758,2.614l-0.32,0.718l-0.365,0.516l-0.88,0.988c-0.013,0.013-0.027,0.026-0.043,0.035l-0.244,0.139l-1.062,0.756
				l-0.45,0.385l-0.506,0.945l-0.733,1.223l-1.773,2.817c-0.009,0.014-0.019,0.025-0.031,0.036l-1.755,1.584l-1.552,2.31
				l-1.15,1.568l-1.541,1.683l-0.437,0.504l-0.304,0.541c-0.008,0.015-0.018,0.026-0.029,0.038l-0.347,0.347l-1.238,0.887
				l-0.395,0.399l-0.369,0.471l-0.43,0.432c-0.016,0.015-0.034,0.028-0.055,0.038l-0.486,0.207
				c-0.012,0.005-0.025,0.009-0.038,0.012l-0.591,0.104l0,0c-0.01,0.001-0.02,0.003-0.03,0.003s-0.02-0.001-0.03-0.003l-0.59-0.104
				l-1.156-0.033l-1.447-0.233l-0.365,0.253l-1.44,2.263l-0.5,1.104l-0.135,0.778c-0.003,0.014-0.008,0.029-0.014,0.042
				l-0.173,0.382c-0.007,0.012-0.013,0.023-0.021,0.034l-0.431,0.561l-0.061,0.244l-0.271,3.012l0.029,0.231l0.254,0.508
				l0.244,0.275l0.367,0.213l1.016,0.198l0.87-0.167l0,0l0,0c0.026-0.005,0.055-0.004,0.08,0.003l0.243,0.069
				c0.026,0.008,0.05,0.021,0.069,0.039l2.227,2.024l0.225-0.049c0.023-0.006,0.047-0.006,0.072-0.001l0.347,0.07
				c0.013,0.001,0.024,0.005,0.036,0.01l0.592,0.265h0.38l0.89-0.07c0.021-0.001,0.041,0,0.06,0.007l0.382,0.104
				c0.02,0.005,0.038,0.014,0.054,0.026l0.348,0.242c0.03,0.022,0.054,0.052,0.065,0.087l0.104,0.312
				c0.006,0.019,0.009,0.037,0.009,0.056v0.312l0.032,0.332l0.252,0.474l1.25,1.488l0.357,0.178l0.907,0.101
				c0.022,0.003,0.044,0.009,0.063,0.02l0.451,0.244l0.412,0.273l0.368,0.122h0.389l1.582-0.137c0.013-0.001,0.025-0.001,0.037,0
				l1.077,0.139c0.019,0.002,0.037,0.008,0.054,0.017l0.938,0.451c0.019,0.009,0.036,0.022,0.051,0.036l1.396,1.465l0.876,0.325
				l1.938,0.136l1.303-0.172c0.021-0.002,0.041-0.001,0.062,0.004l0.452,0.104l0.586,0.254c0.012,0.004,0.021,0.011,0.032,0.017
				l0.242,0.173l0.23,0.229c0.016,0.016,0.028,0.034,0.037,0.053l0.104,0.244c0.013,0.03,0.016,0.062,0.012,0.094l-0.065,0.427
				l0.025,0.182l0.19,0.318l0.54,0.638c0.014,0.016,0.023,0.033,0.03,0.052l0.14,0.383c0.006,0.018,0.01,0.039,0.01,0.059v0.417
				l-0.137,0.766l0.062,0.37l0.297,0.758l0.336,0.427l0.392,0.14l0.751-0.164l0.562-0.233c0.021-0.009,0.044-0.014,0.066-0.014
				h0.242l0,0c0.024,0,0.05,0.005,0.071,0.015l0.312,0.139c0.038,0.017,0.068,0.046,0.085,0.082l0.07,0.139
				c0.008,0.014,0.013,0.03,0.015,0.047l0.083,0.393l0.153,0.022l0.157-0.001l0.428-0.132c0.027-0.008,0.056-0.009,0.083-0.004
				l0.904,0.174c0.058,0.01,0.107,0.052,0.129,0.107l0.243,0.625c0.009,0.024,0.013,0.052,0.011,0.077l-0.139,1.599l0.031,0.261
				l0.343,1.06l0.105,0.787l0.114,0.161l0.952,0.295c0.011,0.004,0.022,0.007,0.032,0.014l1.47,0.819l2.611,0.481
				c0.019,0.003,0.036,0.008,0.052,0.018l0.834,0.453c0.02,0.01,0.038,0.026,0.052,0.044l0.557,0.695
				c0.02,0.023,0.031,0.053,0.036,0.083l0.14,0.973c0.004,0.036-0.002,0.07-0.017,0.103l-0.14,0.277l-0.204,0.276l-0.031,0.125
				l0.19,0.127l0.428,0.131c0.034,0.011,0.065,0.033,0.088,0.062l0.104,0.139c0.048,0.063,0.047,0.15-0.003,0.212l-0.139,0.173
				l-0.295,0.564l-0.131,0.166l-0.015,0.07l0.247,0.429c0.01,0.019,0.017,0.036,0.02,0.056l0.104,0.591l0.081,0.235l0.011,0.009
				l0.024,0.019l0.136-0.022c0.02-0.004,0.04-0.002,0.059,0l0.384,0.07l0.315-0.003c0.032,0,0.062,0.008,0.09,0.024l0.052,0.031
				l0.122,0.073c0.018,0.01,0.033,0.025,0.046,0.041l0.14,0.174c0.015,0.02,0.025,0.041,0.031,0.064l0.071,0.263l0.061,0.23
				l0.1,0.15l0.259,0.144l0.066,0.019l0.4,0.114l0.409,0.062l0.361-0.032l0.391-0.1c0.031-0.009,0.065-0.006,0.097,0.003
				l0.208,0.069c0.015,0.005,0.029,0.011,0.042,0.021l0.185,0.123l0.291,0.079l0.225-0.112l0.221-0.628
				c0.017-0.048,0.053-0.085,0.099-0.105l0.348-0.139c0.042-0.017,0.09-0.015,0.131,0.001l0.418,0.174
				c0.053,0.022,0.092,0.07,0.103,0.127l0.043,0.207l0.027,0.139l0.032,0.316l0.128,0.17h0.262l0.77-0.301
				c0.031-0.012,0.066-0.014,0.099-0.008l0,0l0,0l0.053,0.01l0.434,0.093c0.015,0.003,0.028,0.008,0.042,0.015l0.833,0.417
				l0.267,0.188c0.021,0.014,0.037,0.034,0.05,0.054l0.139,0.244c0.01,0.016,0.017,0.034,0.021,0.052l0.069,0.348l0.204,0.679
				l0.083,0.161l0.139,0.167l0.191,0.097l0.115-0.024l0.144-0.061c0.013-0.005,0.026-0.007,0.04-0.01l0.243-0.036l0.534-0.035
				c0.031-0.003,0.062,0.004,0.089,0.017l0.209,0.105c0.027,0.013,0.05,0.035,0.065,0.061c0.002,0.001,0.004,0.002,0.005,0.005l0,0
				h0.001l0.042,0.069l0.062,0.104c0.01,0.016,0.017,0.033,0.021,0.051l0.095,0.412l0.062,0.078h0.296l0.348-0.158l0.445-0.114
				c0.021-0.005,0.041-0.006,0.062-0.004c0.02,0.001,0.039,0.008,0.059,0.017l0.416,0.207l1.311,0.954
				c0.01,0.008,0.021,0.017,0.029,0.027l0.75,0.887l0.455,0.323l1.094,0.479l1.818,0.514l1.76,0.345l0.346-0.004l0.279-0.124
				l0.65-0.343c0.023-0.013,0.051-0.02,0.08-0.02h0.348c0.021,0,0.045,0.004,0.066,0.014l0.416,0.173l0.783,0.478l0.248,0.031
				c0.039,0.004,0.074,0.022,0.104,0.049l0.137,0.139c0.023,0.022,0.039,0.051,0.047,0.081l0.035,0.14
				c0.006,0.026,0.008,0.054,0,0.08l-0.096,0.416l0.016,0.074l0.092,0.074l0.109,0.022l0.533-0.034c0.012-0.001,0.023,0,0.035,0.001
				l0.242,0.035c0.033,0.004,0.062,0.019,0.088,0.039l0.207,0.174c0.023,0.018,0.041,0.041,0.051,0.069l0.277,0.694l0.141,0.25
				l0.244,0.134l1.686,0.27l1.023-0.067l1.094,0.034l0.453-0.062l0.352-0.223l0.189-0.161c0.018-0.014,0.035-0.025,0.057-0.031
				l0.209-0.07c0.035-0.011,0.074-0.011,0.109,0l0.418,0.139c0.018,0.007,0.035,0.016,0.051,0.027l0.764,0.591l0.887,0.883
				l0.844,0.648l0.861,0.065l0.773-0.168c0.014-0.003,0.025-0.004,0.037-0.004h0.6l0.486-0.153l0.49-0.522
				c0.008-0.007,0.016-0.015,0.025-0.022l1.424-1.008c0.061-0.042,0.139-0.042,0.197-0.002l2.582,1.73l1.494-0.291l0.84-0.538
				c0.018-0.011,0.039-0.02,0.059-0.024l0.662-0.139c0.01-0.003,0.021-0.004,0.033-0.004c0.021,0,0.045,0.005,0.064,0.013
				l0.695,0.278c0.018,0.006,0.033,0.015,0.045,0.027l2.467,2.014l0.574,0.371l0.527,0.247l0.227-0.022l0.197-0.254l0.301-0.503
				l1.131-1.278l0.742-0.673c0.016-0.013,0.031-0.025,0.051-0.031l0.59-0.244c0.053-0.022,0.111-0.017,0.158,0.013l0.729,0.451
				c0.012,0.007,0.023,0.016,0.031,0.024l0.717,0.717l0.729,0.475l0.93-0.154l0.588-0.491l0.227-0.228l0.094-0.518l-0.035-0.64
				v-0.844l0.143-0.761c0.004-0.024,0.012-0.045,0.025-0.063l0.418-0.626l0.541-0.547l0.4-0.537l0.721-1.201l0.367-0.41
				c0.016-0.016,0.029-0.027,0.049-0.038l1.229-0.648l0.885-0.852c0.014-0.011,0.027-0.022,0.043-0.03l0.557-0.278
				c0.016-0.008,0.033-0.013,0.053-0.016l0.729-0.105l3.205,0.033l0.867-0.166l0.682-0.292l0.441-0.442l0.334-0.702l0.27-0.979
				c0.006-0.024,0.02-0.047,0.035-0.067l0.867-1.007c0.012-0.012,0.021-0.022,0.035-0.031l1.494-1.007l4.334-1.925l1.182-0.642
				l1.416-1.417l-0.568-0.515l-0.766-0.266c-0.014-0.005-0.027-0.012-0.039-0.02l-0.496-0.331l-0.203-0.05l-0.533,0.152l-0.15,0.042
				L304,300.58c-0.02,0.002-0.035,0.002-0.053-0.001l-0.209-0.034l-0.443-0.146l-0.135-0.021l-0.342,0.125l-0.217,0.125
				c-0.025,0.016-0.055,0.023-0.084,0.023h-0.277c-0.035,0-0.068-0.01-0.096-0.028l-1.182-0.764l-2.342-1.1
				c-0.021-0.009-0.041-0.023-0.055-0.042l-0.279-0.312l-0.488-0.831l-0.229-0.171l-0.492-0.165
				c-0.029-0.011-0.055-0.028-0.076-0.05l-0.279-0.314c-0.01-0.014-0.021-0.029-0.029-0.047l-0.174-0.417l-0.193-0.328l-0.201-0.04
				l-0.668,0.446c-0.029,0.02-0.062,0.03-0.098,0.03l0,0h-0.348l0,0c-0.072,0-0.141-0.048-0.164-0.12l-0.104-0.312
				c-0.01-0.027-0.012-0.057-0.006-0.085l0.068-0.383l0.107-0.428l0.021-0.233l-0.453-0.393l-0.881-0.539l-0.779-0.602
				c-0.043-0.032-0.068-0.083-0.068-0.138v-0.555C292.754,292.695,292.766,292.663,292.785,292.633z"/>
		</g>
	</g>
	<g>
		<g>
			<g>
				<g>
					<path fill="#FFFFFF" d="M514.271,188.257h-7.4v-4.946c0-1.438-0.079-2.336-0.237-2.692s-0.507-0.535-1.046-0.535
						c-0.609,0-0.996,0.217-1.16,0.65s-0.246,1.371-0.246,2.812v13.219c0,1.383,0.082,2.285,0.246,2.707s0.533,0.633,1.107,0.633
						c0.551,0,0.911-0.211,1.081-0.634s0.255-1.416,0.255-2.978v-3.577h7.4v1.109c0,2.946-0.208,5.035-0.624,6.267
						c-0.416,1.232-1.336,2.312-2.76,3.239c-1.424,0.927-3.179,1.391-5.265,1.391c-2.168,0-3.955-0.393-5.361-1.178
						s-2.338-1.872-2.795-3.261s-0.686-3.478-0.686-6.267v-8.314c0-2.051,0.07-3.589,0.211-4.614s0.56-2.013,1.257-2.962
						s1.664-1.696,2.9-2.241s2.657-0.817,4.263-0.817c2.18,0,3.979,0.421,5.396,1.264c1.418,0.842,2.35,1.893,2.795,3.151
						s0.668,3.215,0.668,5.872V188.257z"/>
					<path fill="#FFFFFF" d="M529.717,175.865l4.232,28.459h-7.563l-0.397-5.115h-2.647l-0.445,5.115h-7.651l3.775-28.459H529.717z
						 M525.795,194.164c-0.375-3.224-0.75-7.208-1.127-11.953c-0.754,5.45-1.228,9.434-1.42,11.953H525.795z"/>
					<path fill="#FFFFFF" d="M552.134,204.324v3.445h-5.59c-1.348,0-2.297-0.104-2.848-0.312s-0.923-0.517-1.116-0.925
						c-0.193-0.409-0.29-1.145-0.29-2.208c-1.676-0.047-3.117-0.486-4.324-1.318s-2.004-1.89-2.391-3.173s-0.58-3.202-0.58-5.757
						v-8.807c0-1.934,0.114-3.407,0.343-4.421s0.7-1.969,1.415-2.865s1.635-1.573,2.76-2.03s2.373-0.686,3.744-0.686
						c1.652,0,3.126,0.281,4.421,0.843c1.295,0.562,2.262,1.277,2.9,2.144c0.639,0.867,1.055,1.766,1.248,2.698
						c0.193,0.931,0.29,2.316,0.29,4.156v9.243c0,2.53-0.123,4.247-0.369,5.148c-0.246,0.902-0.718,1.62-1.415,2.153
						c-0.697,0.533-1.626,0.94-2.786,1.221c0.035,0.637,0.167,1.038,0.396,1.203s0.771,0.248,1.626,0.248H552.134z M544.716,183.177
						c0-1.324-0.073-2.171-0.22-2.54s-0.448-0.554-0.905-0.554c-0.387,0-0.683,0.149-0.888,0.448s-0.308,1.181-0.308,2.646v13.289
						c0,1.652,0.067,2.672,0.202,3.059s0.448,0.58,0.94,0.58c0.504,0,0.826-0.223,0.967-0.668s0.211-1.506,0.211-3.182V183.177z"/>
					<path fill="#FFFFFF" d="M571.698,175.865v19.02c0,2.156-0.07,3.671-0.211,4.544s-0.557,1.77-1.248,2.689
						s-1.603,1.617-2.733,2.092s-2.464,0.712-3.999,0.712c-1.699,0-3.199-0.281-4.5-0.844s-2.273-1.295-2.918-2.197
						s-1.025-1.854-1.143-2.856s-0.176-3.108-0.176-6.319v-16.84h7.4v21.34c0,1.242,0.067,2.036,0.202,2.382
						s0.407,0.519,0.817,0.519c0.469,0,0.771-0.19,0.905-0.571s0.202-1.28,0.202-2.698v-20.971H571.698z"/>
					<path fill="#FFFFFF" d="M574.563,175.865h12.34v5.695h-4.939v5.396h4.623v5.414h-4.623v6.258h5.432v5.695h-12.832V175.865z"/>
					<path fill="#FFFFFF" d="M604.429,175.865v5.695h-4.395v22.764h-7.4V181.56h-4.377v-5.695H604.429z"/>
					<path fill="#FFFFFF" d="M618.909,175.865l4.232,28.459h-7.563l-0.397-5.115h-2.647l-0.445,5.115h-7.651l3.775-28.459H618.909z
						 M619.774,170.205l-5.783,4.764h-3.568l3.094-4.764H619.774z M614.986,194.164c-0.375-3.224-0.75-7.208-1.127-11.953
						c-0.754,5.45-1.228,9.434-1.42,11.953H614.986z"/>
				</g>
			</g>
		</g>
	</g>
	<g>
		<g>
			<path fill="#F2961C" d="M497.937,225.136v4.156h-1.68v-12.987h3.685c1.044,0.141,1.926,0.571,2.646,1.291
				c0.86,0.866,1.291,1.905,1.291,3.117c0,1.223-0.43,2.266-1.291,3.129c-0.86,0.863-1.899,1.295-3.117,1.295H497.937z
				 M497.937,217.993v5.455h1.534c0.747,0,1.387-0.267,1.92-0.799c0.533-0.533,0.799-1.178,0.799-1.936
				c0-0.752-0.267-1.393-0.799-1.924c-0.533-0.53-1.173-0.795-1.92-0.795H497.937z"/>
			<path fill="#F2961C" d="M512.166,226.427l1.68,0.601c-0.412,0.568-0.709,0.944-0.893,1.128c-0.904,0.904-1.994,1.355-3.271,1.355
				c-1.272,0-2.359-0.452-3.263-1.355s-1.355-1.994-1.355-3.271c0-1.277,0.452-2.368,1.355-3.271
				c0.904-0.903,1.991-1.355,3.263-1.355c1.277,0,2.367,0.452,3.271,1.355c0.184,0.184,0.481,0.555,0.893,1.112l-1.68,0.617
				c-0.217-0.265-0.363-0.436-0.438-0.511c-0.563-0.563-1.245-0.844-2.045-0.844c-0.795,0-1.476,0.283-2.042,0.848
				s-0.848,1.249-0.848,2.05c0,0.795,0.283,1.476,0.848,2.041s1.246,0.848,2.042,0.848c0.801,0,1.485-0.281,2.054-0.844
				C511.806,226.854,511.949,226.687,512.166,226.427z"/>
			<path fill="#F2961C" d="M517.027,216.305c2.11,0.011,3.755,0.608,4.935,1.793c1.293,1.304,1.94,2.871,1.94,4.7
				c0,1.834-0.646,3.401-1.94,4.7c-1.18,1.185-2.825,1.783-4.935,1.794h-1.233v-12.987H517.027z M517.474,218.018v9.57
				c1.336,0,2.432-0.43,3.287-1.291c0.963-0.963,1.445-2.129,1.445-3.499c0-1.363-0.482-2.529-1.445-3.498
				C519.906,218.445,518.811,218.018,517.474,218.018z"/>
			<path fill="#F2961C" d="M537.718,216.305v12.987h-1.68v-10.795h-1.242l1.705-2.191H537.718z"/>
			<path fill="#F2961C" d="M546.914,222.604l-1.015-0.024v-1.664c0.736-0.011,1.22-0.061,1.453-0.15
				c0.232-0.089,0.487-0.28,0.763-0.572c0.276-0.292,0.414-0.627,0.414-1.006c0-0.374-0.13-0.688-0.389-0.946
				c-0.26-0.257-0.577-0.385-0.95-0.385c-0.368,0-0.682,0.127-0.942,0.381c-0.146,0.151-0.314,0.481-0.503,0.99l-1.567-0.617
				c0.233-0.73,0.517-1.255,0.853-1.575c0.601-0.595,1.32-0.893,2.159-0.893c0.855,0,1.58,0.3,2.175,0.901
				c0.595,0.601,0.893,1.315,0.893,2.143c0,0.844-0.5,1.659-1.501,2.443c0.481,0.032,0.987,0.306,1.518,0.819
				c0.774,0.833,1.161,1.808,1.161,2.922c0,1.125-0.396,2.087-1.189,2.886c-0.792,0.798-1.754,1.197-2.885,1.197
				c-1.12,0-2.078-0.4-2.874-1.201c-0.633-0.638-1.036-1.523-1.209-2.654l1.68-0.608c0.098,0.974,0.344,1.658,0.739,2.053
				c0.465,0.46,1.02,0.69,1.664,0.69c0.654,0,1.213-0.23,1.676-0.69c0.463-0.459,0.694-1.017,0.694-1.672
				c0-0.66-0.231-1.242-0.694-1.745C548.574,223.123,547.866,222.782,546.914,222.604z"/>
			<path fill="#F2961C" d="M555.49,227.385c0.23,0.227,0.345,0.503,0.345,0.828c0,0.335-0.115,0.617-0.345,0.844
				c-0.23,0.227-0.507,0.341-0.832,0.341c-0.319,0-0.595-0.114-0.828-0.341c-0.232-0.228-0.349-0.509-0.349-0.844
				c0-0.325,0.117-0.601,0.349-0.828c0.233-0.228,0.509-0.341,0.828-0.341C554.982,227.043,555.259,227.157,555.49,227.385z"/>
			<path fill="#F2961C" d="M560.299,219.812c0.303-0.065,0.619-0.098,0.949-0.098c0.606,0,1.188,0.098,1.745,0.292
				c1.25,0.427,2.181,1.217,2.792,2.37c0.384,0.714,0.576,1.45,0.576,2.208c0,0.471-0.073,0.942-0.219,1.413
				c-0.384,1.255-1.152,2.194-2.305,2.816c-0.703,0.374-1.431,0.56-2.183,0.56c-0.477,0-0.958-0.076-1.445-0.227
				c-1.007-0.309-1.878-0.963-2.614-1.964l1.185-1.315c0.601,0.888,1.245,1.434,1.932,1.64c0.314,0.097,0.62,0.146,0.917,0.146
				c0.476,0,0.941-0.119,1.396-0.357c0.741-0.395,1.234-0.996,1.477-1.802c0.098-0.308,0.146-0.614,0.146-0.917
				c0-0.471-0.122-0.936-0.365-1.396c-0.401-0.747-1.007-1.261-1.818-1.542c-0.352-0.125-0.741-0.187-1.169-0.187
				c-0.579,0-1.32,0.144-2.224,0.43l-1.015-0.885l1.461-4.034v-0.657h4.756v1.68h-3.336L560.299,219.812z"/>
			<path fill="#F2961C" d="M570.964,219.812c0.303-0.065,0.619-0.098,0.949-0.098c0.606,0,1.188,0.098,1.745,0.292
				c1.25,0.427,2.181,1.217,2.792,2.37c0.384,0.714,0.576,1.45,0.576,2.208c0,0.471-0.073,0.942-0.219,1.413
				c-0.384,1.255-1.152,2.194-2.305,2.816c-0.703,0.374-1.431,0.56-2.183,0.56c-0.477,0-0.958-0.076-1.445-0.227
				c-1.007-0.309-1.878-0.963-2.614-1.964l1.185-1.315c0.601,0.888,1.245,1.434,1.932,1.64c0.314,0.097,0.62,0.146,0.917,0.146
				c0.476,0,0.941-0.119,1.396-0.357c0.741-0.395,1.234-0.996,1.477-1.802c0.098-0.308,0.146-0.614,0.146-0.917
				c0-0.471-0.122-0.936-0.365-1.396c-0.401-0.747-1.007-1.261-1.818-1.542c-0.352-0.125-0.741-0.187-1.169-0.187
				c-0.579,0-1.32,0.144-2.224,0.43l-1.015-0.885l1.461-4.034v-0.657h4.756v1.68h-3.336L570.964,219.812z"/>
			<path fill="#F2961C" d="M587.823,224.885c0,1.271-0.45,2.358-1.352,3.259c-0.901,0.901-1.99,1.352-3.267,1.352
				c-1.271,0-2.358-0.451-3.259-1.352s-1.352-1.987-1.352-3.259v-3.969c0-1.271,0.451-2.358,1.352-3.259
				c0.901-0.901,1.987-1.351,3.259-1.351c1.277,0,2.366,0.45,3.267,1.351c0.901,0.901,1.352,1.988,1.352,3.259V224.885z
				 M586.102,220.916c0-0.795-0.283-1.475-0.848-2.038c-0.565-0.562-1.249-0.844-2.05-0.844c-0.795,0-1.476,0.282-2.041,0.844
				c-0.566,0.563-0.848,1.242-0.848,2.038v3.969c0,0.801,0.282,1.482,0.848,2.045c0.565,0.562,1.246,0.844,2.041,0.844
				c0.801,0,1.484-0.281,2.05-0.844c0.565-0.563,0.848-1.245,0.848-2.045V220.916z"/>
			<path fill="#27515D" d="M509.226,250.517l1.584,1.421c-1.936,1.765-3.983,2.647-6.143,2.647c-2.31,0-4.279-0.814-5.908-2.443
				c-1.629-1.628-2.443-3.598-2.443-5.908c0-2.303,0.814-4.272,2.443-5.908c1.628-1.635,3.598-2.453,5.908-2.453
				c2.16,0,4.208,0.883,6.143,2.647l-1.584,1.441c-1.458-1.294-2.978-1.942-4.559-1.942c-1.71,0-3.174,0.606-4.39,1.819
				s-1.824,2.678-1.824,4.395c0,1.724,0.608,3.193,1.824,4.406s2.68,1.819,4.39,1.819
				C506.248,252.459,507.768,251.812,509.226,250.517z"/>
			<path fill="#27515D" d="M519.018,238.058l5.949,16.354h-2.249l-2.105-5.785h-4.334l-2.095,5.785h-2.259l5.949-16.354H519.018z
				 M519.846,246.511l-1.4-3.833l-1.39,3.833H519.846z"/>
			<path fill="#27515D" d="M538.214,253.85c0.157,0.095,0.32,0.204,0.491,0.327c0.477,0.252,0.8,0.405,0.971,0.46
				c0.075,0.02,0.146,0.03,0.215,0.03c0.116,0,0.231-0.034,0.348-0.102c0.177-0.102,0.293-0.252,0.347-0.45
				c0.021-0.062,0.044-0.313,0.072-0.756h2.136c-0.048,0.668-0.102,1.11-0.164,1.329c-0.218,0.756-0.671,1.325-1.359,1.707
				c-0.436,0.252-0.893,0.378-1.37,0.378c-0.266,0-0.532-0.038-0.797-0.113c-0.436-0.116-1.019-0.409-1.748-0.879
				c-0.586-0.307-0.992-0.494-1.216-0.562c-0.13-0.034-0.252-0.051-0.368-0.051c-0.205,0-0.402,0.055-0.593,0.164
				c-0.313,0.177-0.518,0.443-0.613,0.797c-0.014,0.034-0.038,0.259-0.072,0.674h-2.136c0.055-0.647,0.109-1.07,0.164-1.267
				c0.116-0.416,0.293-0.784,0.532-1.104c-1.608-0.307-3.025-1.073-4.252-2.3c-1.636-1.635-2.453-3.608-2.453-5.918
				s0.817-4.283,2.453-5.918c1.635-1.635,3.608-2.453,5.918-2.453s4.283,0.818,5.918,2.453c1.635,1.636,2.453,3.608,2.453,5.918
				s-0.818,4.283-2.453,5.918C539.9,252.868,539.093,253.44,538.214,253.85z M534.718,239.979c-1.724,0-3.194,0.608-4.411,1.825
				s-1.824,2.687-1.824,4.411c0,1.724,0.609,3.196,1.83,4.416c1.22,1.22,2.688,1.83,4.405,1.83c1.724,0,3.194-0.61,4.411-1.83
				c1.216-1.22,1.824-2.692,1.824-4.416c0-1.724-0.608-3.194-1.824-4.411C537.912,240.587,536.442,239.979,534.718,239.979z"/>
			<path fill="#27515D" d="M554.905,238.058h2.126v11.52c-0.184,1.315-0.726,2.426-1.625,3.332c-1.09,1.09-2.402,1.635-3.935,1.635
				s-2.843-0.543-3.93-1.63c-1.087-1.086-1.63-2.397-1.63-3.93v-10.927h2.126v10.927c0,0.94,0.335,1.746,1.007,2.417
				c0.671,0.671,1.48,1.007,2.428,1.007c0.954,0,1.765-0.333,2.433-1.001c0.667-0.668,1.001-1.476,1.001-2.422V238.058z"/>
			<path fill="#27515D" d="M568.908,238.058v2.116h-6.695v4.998h6.695v2.116h-6.695v4.998h6.695v2.126h-8.811v-16.354H568.908z"/>
			<path fill="#27515D" d="M576.635,240.173v14.238h-2.126v-14.238h-3.812v-2.116h9.751v2.116H576.635z"/>
			<path fill="#27515D" d="M588.563,238.058l5.949,16.354h-2.249l-2.105-5.785h-4.334l-2.095,5.785h-2.259l5.949-16.354H588.563z
				 M588.615,234.194h2.576l-2.78,2.852h-2.014L588.615,234.194z M589.392,246.511l-1.4-3.833l-1.39,3.833H589.392z"/>
		</g>
	</g>
	<g>
		<g>
			<polyline fill="none" stroke="#FFFFFF" stroke-width="2" points="243.996,280.663 405.172,185.55 485.764,185.55 			"/>
			<g>
				<circle fill="#FFFFFF" cx="244.094" cy="280.606" r="2.256"/>
			</g>
		</g>
	</g>
</g>
</svg>
