<?xml version="1.0" encoding="utf-8"?>
<!-- Generator: Adobe Illustrator 22.0.1, SVG Export Plug-In . SVG Version: 6.00 Build 0)  -->
<svg version="1.1" id="Capa_1" xmlns="http://www.w3.org/2000/svg" xmlns:xlink="http://www.w3.org/1999/xlink" x="0px" y="0px"
	 viewBox="0 0 764.3 375.3" style="enable-background:new 0 0 764.3 375.3;" xml:space="preserve">
<style type="text/css">
	.st0{fill:#F2961C;}
	.st1{fill:#A0C219;}
	.st2{enable-background:new    ;}
	.st3{fill:#575756;}
	.st4{fill:#3C691A;}
	.st5{fill:#95C11F;}
	.st6{fill:#E94E1B;}
	.st7{fill:#662483;}
	.st8{fill:#E02386;}
	.st9{fill:#2FAC66;}
	.st10{fill:none;stroke:#575756;stroke-width:2;}
	.st11{fill:#A5A5A5;}
	.st12{font-family:'ArialMT';}
	.st13{font-size:13.1799px;}
</style>
<g>
	<g>
		<path class="st0" d="M4.5,257.5v-6c0-1.6,0.1-2.9,0.4-3.7s0.6-1.5,1.1-2c0.5-0.4,1.1-0.7,1.7-0.9c0.7-0.2,1.7-0.2,3.2-0.2h2
			c1.5,0,2.5,0.1,3.2,0.5c0.7,0.3,1.2,0.9,1.5,1.7c0.4,0.8,0.5,1.9,0.5,3.2v1.6h9.2v5.9L4.5,257.5L4.5,257.5z M8.5,251.6h5.8
			c0-0.2,0-0.3,0-0.4c0-0.5-0.1-0.9-0.4-1.1c-0.3-0.2-0.8-0.3-1.7-0.3h-1.9c-0.8,0-1.3,0.1-1.5,0.4C8.6,250.3,8.5,250.8,8.5,251.6z"
			/>
		<path class="st0" d="M15.7,230.6v5.4h-2.2c-0.8,0-1.3,0.1-1.5,0.2c-0.3,0.1-0.4,0.3-0.4,0.7c0,0.3,0.1,0.6,0.4,0.7
			c0.2,0.1,0.8,0.2,1.6,0.2h8.8c0.7,0,1.2-0.1,1.5-0.3c0.3-0.2,0.5-0.4,0.5-0.7c0-0.4-0.2-0.6-0.5-0.8c-0.3-0.1-1-0.2-2-0.2h-2.2
			v-5.1c1.5,0,2.6,0.1,3.4,0.2c0.7,0.1,1.5,0.4,2.3,0.9c0.8,0.5,1.4,1.2,1.8,2.1c0.4,0.9,0.6,1.9,0.6,3.2c0,1.6-0.3,2.9-0.8,3.8
			c-0.5,0.9-1.3,1.6-2.3,2c-1,0.4-2.4,0.6-4.2,0.6H15c-1.6,0-2.8-0.2-3.6-0.5s-1.5-1-2.2-2c-0.6-1-1-2.3-1-3.8
			c0-1.5,0.3-2.8,0.9-3.8s1.4-1.8,2.4-2.1C12.6,230.8,14,230.6,15.7,230.6z"/>
		<path class="st0" d="M4.5,228.8v-4.4c0-2.9,0.1-4.8,0.4-5.8c0.3-1,0.7-1.8,1.3-2.3c0.6-0.5,1.3-0.9,2-1c0.7-0.1,2.2-0.2,4.4-0.2h8
			c2,0,3.4,0.1,4.1,0.3c0.7,0.2,1.2,0.5,1.6,1c0.4,0.5,0.7,1.1,0.8,1.8c0.2,0.7,0.2,1.8,0.2,3.2v7.5L4.5,228.8L4.5,228.8z
			 M8.5,222.8h15c0-0.9-0.2-1.4-0.5-1.6c-0.3-0.2-1.3-0.3-2.8-0.3h-8.9c-1,0-1.7,0-2,0.1c-0.3,0.1-0.5,0.2-0.6,0.5
			C8.5,221.7,8.5,222.2,8.5,222.8z"/>
		<path class="st0" d="M8.7,202.2l2.5,0.2c-1.8-0.8-2.7-2-2.8-3.6h6.6c0,1,0.1,1.8,0.4,2.3c0.3,0.5,0.7,0.8,1.2,0.9
			c0.5,0.1,1.7,0.2,3.5,0.2h7.4v5.7H8.7V202.2z"/>
		<path class="st0" d="M18.4,184.6v7.4h4c0.8,0,1.4-0.1,1.6-0.2c0.2-0.1,0.4-0.4,0.4-0.7c0-0.4-0.2-0.7-0.5-0.9
			c-0.3-0.1-1-0.2-1.9-0.2h-2.5v-5.4H21c1.2,0,2,0.1,2.7,0.2c0.6,0.1,1.3,0.5,2,1c0.7,0.5,1.2,1.2,1.6,2s0.5,1.9,0.5,3.1
			c0,1.2-0.2,2.3-0.5,3.2c-0.3,0.9-0.8,1.6-1.4,2.2c-0.6,0.5-1.3,0.9-2,1.1c-0.7,0.2-1.8,0.3-3.2,0.3h-5.5c-1.6,0-2.9-0.2-3.9-0.7
			c-0.9-0.4-1.7-1.2-2.2-2.2s-0.8-2.2-0.8-3.5c0-1.6,0.3-2.9,0.9-4c0.6-1,1.4-1.8,2.4-2.2c1-0.4,2.4-0.6,4.2-0.6L18.4,184.6
			C18.4,184.6,18.4,184.6,18.4,184.6z M15.3,190.3h-1.4c-1,0-1.6,0.1-1.9,0.2c-0.3,0.1-0.4,0.3-0.4,0.6c0,0.4,0.1,0.6,0.4,0.7
			c0.2,0.1,0.9,0.1,1.9,0.1h1.4L15.3,190.3L15.3,190.3z"/>
		<path class="st0" d="M8.7,169.8h14.4c1.9,0,3.2,0,3.8,0.1c0.6,0.1,1.2,0.4,1.8,1s1.1,1.3,1.5,2.3c0.3,1,0.5,2.2,0.5,3.7
			c0,1.8-0.3,3.3-0.9,4.4s-1.8,1.7-3.6,1.7v-5.5c0.8,0,1.2-0.3,1.2-0.9c0-0.4-0.1-0.7-0.4-0.9s-0.8-0.2-1.6-0.2h-1.4
			c0.4,0.5,0.8,1,1,1.5s0.3,1.1,0.3,1.7c0,1-0.2,1.9-0.6,2.5c-0.4,0.7-1,1.1-1.6,1.4c-0.7,0.2-1.6,0.4-2.9,0.4h-6.8
			c-1.8,0-3.1-0.3-3.8-1c-0.8-0.6-1.2-1.6-1.2-2.9c0-0.7,0.1-1.4,0.4-2c0.3-0.6,0.7-1.1,1.3-1.6l-1.4-0.4L8.7,169.8L8.7,169.8z
			 M13.6,175.5c-0.9,0-1.4,0-1.6,0.1c-0.2,0.1-0.4,0.3-0.4,0.7c0,0.3,0.1,0.6,0.4,0.7s0.8,0.2,1.6,0.2h6.3c0.8,0,1.4-0.1,1.6-0.2
			c0.2-0.1,0.4-0.3,0.4-0.6c0-0.4-0.1-0.6-0.5-0.7s-1-0.2-2-0.2L13.6,175.5L13.6,175.5z"/>
		<path class="st0" d="M4.5,161.9h3v5.9h-3V161.9z M8.7,161.9h18.7v5.9H8.7V161.9z"/>
		<path class="st0" d="M14.6,148.3v5h-1c-0.9,0-1.4,0-1.6,0.1c-0.2,0.1-0.3,0.3-0.3,0.7c0,0.3,0.1,0.6,0.3,0.7
			c0.2,0.2,0.5,0.2,1,0.2c0.6,0,1,0,1.3-0.1c0.3-0.1,0.6-0.3,0.9-0.7c0.3-0.4,0.8-1.2,1.4-2.5c0.8-1.7,1.6-2.7,2.3-3.3
			c0.7-0.5,1.8-0.8,3.1-0.8c1.5,0,2.7,0.2,3.4,0.6c0.8,0.4,1.4,1.1,1.8,2c0.4,0.9,0.6,2,0.6,3.4c0,1.4-0.2,2.7-0.7,3.7
			c-0.5,1-1.1,1.7-1.8,2.1s-1.9,0.6-3.5,0.6h-0.9v-5H22c1,0,1.7-0.1,2-0.2s0.5-0.4,0.5-0.8c0-0.4-0.1-0.7-0.3-0.8
			c-0.2-0.2-0.6-0.2-1.3-0.2c-0.9,0-1.5,0.1-1.7,0.3c-0.2,0.2-0.9,1.3-2,3.3c-0.9,1.7-1.8,2.7-2.6,3.1c-0.8,0.4-1.7,0.6-2.7,0.6
			c-1.5,0-2.6-0.2-3.3-0.6c-0.7-0.4-1.3-1.1-1.6-2c-0.4-0.9-0.6-2-0.6-3.3c0-1.2,0.2-2.3,0.5-3.2s0.7-1.5,1.2-2
			c0.5-0.5,1-0.7,1.4-0.8c0.4-0.1,1.1-0.1,2.1-0.1L14.6,148.3L14.6,148.3z"/>
		<path class="st0" d="M6.2,140.3h2.9v-1.5h3v1.5h10c1.2,0,1.9-0.1,2.1-0.2c0.1-0.1,0.2-0.7,0.2-1.6h3v2.3c0,1.3-0.1,2.2-0.2,2.8
			s-0.4,1-0.7,1.5c-0.4,0.4-0.8,0.7-1.3,0.8c-0.5,0.1-1.7,0.2-3.5,0.2h-9.5v1.2h-3V146H6.2V140.3z"/>
		<path class="st0" d="M8.7,131.8l2.5,0.2c-1.8-0.8-2.7-2-2.8-3.6h6.6c0,1,0.1,1.8,0.4,2.3c0.3,0.5,0.7,0.8,1.2,0.9s1.7,0.2,3.5,0.2
			h7.4v5.7H8.7V131.8z"/>
		<path class="st0" d="M15.9,122.1v5.3h-1.3c-1.4,0-2.6-0.2-3.4-0.5c-0.8-0.3-1.5-1-2.1-2c-0.6-1-0.9-2.3-0.9-3.9
			c0-1.9,0.3-3.4,1-4.4c0.7-1,1.5-1.6,2.5-1.8c1-0.2,3-0.3,6.1-0.3h9.4v5.5h-1.7c0.7,0.3,1.2,0.8,1.5,1.3s0.5,1.2,0.5,2
			c0,1-0.3,1.9-0.8,2.7c-0.6,0.8-1.8,1.2-3.7,1.2h-1.5c-1.4,0-2.4-0.2-2.9-0.7s-1.1-1.5-1.8-3.3c-0.7-1.9-1.2-2.9-1.5-3
			c-0.3-0.1-0.8-0.2-1.6-0.2c-1,0-1.6,0.1-1.9,0.2c-0.3,0.1-0.4,0.4-0.4,0.7c0,0.4,0.1,0.6,0.4,0.7s0.9,0.1,1.9,0.1H15.9z
			 M18.5,120.3c0.7,0.9,1.2,1.4,1.7,1.6c0.5,0.1,1.1,0.2,1.9,0.2c1,0,1.6-0.1,1.9-0.2c0.3-0.1,0.4-0.4,0.4-0.8
			c0-0.4-0.1-0.6-0.3-0.7c-0.2-0.1-0.8-0.2-1.7-0.2L18.5,120.3L18.5,120.3z"/>
		<path class="st0" d="M4.5,99.6h22.8v5.7H26c0.6,0.5,1,1.1,1.3,1.7c0.3,0.6,0.4,1.2,0.4,1.9c0,0.9-0.2,1.7-0.7,2.3
			c-0.5,0.6-1,1.1-1.6,1.2c-0.6,0.2-1.6,0.3-3,0.3h-8.8c-1.4,0-2.5-0.1-3.1-0.3c-0.6-0.2-1.1-0.6-1.6-1.3c-0.5-0.7-0.7-1.4-0.7-2.4
			c0-0.7,0.1-1.4,0.4-1.9c0.3-0.6,0.6-1.1,1.1-1.6H4.5V99.6z M13.4,105.3c-0.7,0-1.1,0.1-1.4,0.2c-0.2,0.1-0.4,0.3-0.4,0.7
			c0,0.3,0.1,0.6,0.3,0.7c0.2,0.1,0.7,0.2,1.4,0.2h9.2c0.8,0,1.3-0.1,1.5-0.2c0.2-0.1,0.4-0.3,0.4-0.6c0-0.4-0.1-0.6-0.4-0.7
			s-0.9-0.2-2-0.2H13.4z"/>
		<path class="st0" d="M15.9,92.5v5.3h-1.3c-1.4,0-2.6-0.2-3.4-0.5c-0.8-0.3-1.5-1-2.1-2c-0.6-1-0.9-2.3-0.9-3.9
			c0-1.9,0.3-3.4,1-4.4c0.7-1,1.5-1.6,2.5-1.8c1-0.2,3-0.3,6.1-0.3h9.4v5.5h-1.7c0.7,0.3,1.2,0.8,1.5,1.3s0.5,1.2,0.5,2
			c0,1-0.3,1.9-0.8,2.7c-0.6,0.8-1.8,1.2-3.7,1.2h-1.5c-1.4,0-2.4-0.2-2.9-0.7s-1.1-1.5-1.8-3.3c-0.7-1.9-1.2-2.9-1.5-3
			c-0.3-0.1-0.8-0.2-1.6-0.2c-1,0-1.6,0.1-1.9,0.2c-0.3,0.1-0.4,0.4-0.4,0.7c0,0.4,0.1,0.6,0.4,0.7s0.9,0.1,1.9,0.1
			C14,92.5,15.9,92.5,15.9,92.5z M18.5,90.7c0.7,0.9,1.2,1.4,1.7,1.6c0.5,0.1,1.1,0.2,1.9,0.2c1,0,1.6-0.1,1.9-0.2
			c0.3-0.1,0.4-0.4,0.4-0.8c0-0.4-0.1-0.6-0.3-0.7c-0.2-0.1-0.8-0.2-1.7-0.2L18.5,90.7L18.5,90.7z"/>
		<path class="st0" d="M14.6,71.4v5h-1c-0.9,0-1.4,0-1.6,0.1c-0.2,0.1-0.3,0.3-0.3,0.7c0,0.3,0.1,0.6,0.3,0.7c0.2,0.2,0.5,0.2,1,0.2
			c0.6,0,1,0,1.3-0.1c0.3-0.1,0.6-0.3,0.9-0.7c0.3-0.4,0.8-1.2,1.4-2.5c0.8-1.7,1.6-2.7,2.3-3.3c0.7-0.5,1.8-0.8,3.1-0.8
			c1.5,0,2.7,0.2,3.4,0.6c0.8,0.4,1.4,1.1,1.8,2s0.6,2,0.6,3.3c0,1.4-0.2,2.7-0.7,3.7c-0.5,1-1.1,1.7-1.8,2.1s-1.9,0.6-3.5,0.6h-0.9
			v-5H22c1,0,1.7-0.1,2-0.2s0.5-0.4,0.5-0.8c0-0.4-0.1-0.7-0.3-0.8c-0.2-0.2-0.6-0.2-1.3-0.2c-0.9,0-1.5,0.1-1.7,0.3
			c-0.2,0.2-0.9,1.3-2,3.3c-0.9,1.7-1.8,2.7-2.6,3.1c-0.8,0.4-1.7,0.6-2.7,0.6c-1.5,0-2.6-0.2-3.3-0.6s-1.3-1.1-1.6-2
			s-0.6-2-0.6-3.3c0-1.2,0.2-2.3,0.5-3.2c0.3-0.9,0.7-1.5,1.2-2c0.5-0.5,1-0.7,1.4-0.8c0.4-0.1,1.1-0.1,2.1-0.1L14.6,71.4L14.6,71.4
			z"/>
		<path class="st0" d="M44.5,246.1v5h-1c-0.9,0-1.4,0-1.6,0.1c-0.2,0.1-0.3,0.3-0.3,0.7c0,0.3,0.1,0.6,0.3,0.7
			c0.2,0.2,0.5,0.2,1,0.2c0.6,0,1,0,1.3-0.1c0.3-0.1,0.6-0.3,0.9-0.7c0.3-0.4,0.8-1.2,1.4-2.5c0.8-1.7,1.6-2.7,2.3-3.3
			c0.7-0.5,1.8-0.8,3.1-0.8c1.5,0,2.7,0.2,3.4,0.6c0.8,0.4,1.4,1.1,1.8,2s0.6,2,0.6,3.4c0,1.4-0.2,2.7-0.7,3.7
			c-0.5,1-1.1,1.7-1.8,2.1c-0.8,0.4-1.9,0.6-3.5,0.6h-0.9v-5h1.2c1,0,1.7-0.1,2-0.2s0.5-0.4,0.5-0.8c0-0.4-0.1-0.7-0.3-0.8
			c-0.2-0.2-0.6-0.2-1.3-0.2c-0.9,0-1.5,0.1-1.7,0.3c-0.2,0.2-0.9,1.3-2,3.3c-0.9,1.7-1.8,2.7-2.6,3.1c-0.8,0.4-1.7,0.5-2.7,0.5
			c-1.5,0-2.6-0.2-3.3-0.6c-0.7-0.4-1.3-1.1-1.6-2c-0.4-0.9-0.6-2-0.6-3.3c0-1.2,0.2-2.3,0.5-3.2s0.7-1.5,1.2-2
			c0.5-0.5,1-0.7,1.4-0.8c0.4-0.1,1.1-0.1,2.1-0.1L44.5,246.1L44.5,246.1z"/>
		<path class="st0" d="M48.2,231.2v7.4h4c0.8,0,1.4-0.1,1.6-0.2c0.2-0.1,0.4-0.4,0.4-0.7c0-0.4-0.2-0.7-0.5-0.9
			c-0.3-0.1-1-0.2-1.9-0.2h-2.5v-5.4h1.4c1.2,0,2,0.1,2.7,0.2c0.6,0.1,1.3,0.5,2,1c0.7,0.5,1.2,1.2,1.6,2s0.5,1.9,0.5,3.1
			c0,1.2-0.2,2.3-0.5,3.2c-0.3,0.9-0.8,1.6-1.4,2.2c-0.6,0.5-1.3,0.9-2,1.1c-0.7,0.2-1.8,0.3-3.2,0.3H45c-1.6,0-2.9-0.2-3.9-0.7
			c-0.9-0.4-1.7-1.2-2.2-2.2s-0.8-2.2-0.8-3.5c0-1.6,0.3-2.9,0.9-4c0.6-1,1.4-1.8,2.4-2.2c1-0.4,2.4-0.6,4.2-0.6L48.2,231.2
			L48.2,231.2z M45.2,236.9h-1.4c-1,0-1.6,0.1-1.9,0.2c-0.3,0.1-0.4,0.3-0.4,0.6c0,0.4,0.1,0.6,0.4,0.7c0.2,0.1,0.9,0.1,1.9,0.1h1.4
			L45.2,236.9L45.2,236.9z"/>
		<path class="st0" d="M38.5,216.4H53c1.9,0,3.2,0,3.8,0.1c0.6,0.1,1.2,0.4,1.8,1s1.1,1.3,1.5,2.3c0.3,1,0.5,2.2,0.5,3.7
			c0,1.8-0.3,3.3-0.9,4.4c-0.6,1.1-1.8,1.7-3.6,1.7V224c0.8,0,1.2-0.3,1.2-0.9c0-0.4-0.1-0.7-0.4-0.9c-0.3-0.1-0.8-0.2-1.6-0.2h-1.4
			c0.4,0.5,0.8,1,1,1.5c0.2,0.5,0.3,1.1,0.3,1.7c0,1-0.2,1.9-0.6,2.5c-0.4,0.7-1,1.1-1.6,1.4c-0.7,0.2-1.6,0.4-2.9,0.4h-6.8
			c-1.8,0-3.1-0.3-3.8-1c-0.8-0.6-1.2-1.6-1.2-2.9c0-0.7,0.1-1.4,0.4-2s0.7-1.1,1.3-1.6l-1.4-0.4L38.5,216.4L38.5,216.4z
			 M43.5,222.1c-0.9,0-1.4,0-1.6,0.1c-0.2,0.1-0.4,0.3-0.4,0.7c0,0.3,0.1,0.6,0.4,0.7c0.3,0.1,0.8,0.2,1.6,0.2h6.3
			c0.8,0,1.4-0.1,1.6-0.2c0.2-0.1,0.4-0.3,0.4-0.6c0-0.4-0.2-0.6-0.5-0.7s-1-0.2-2-0.2L43.5,222.1L43.5,222.1z"/>
		<path class="st0" d="M33.5,203l3.8,4.6v2.9l-3.8-2.5V203z M38.5,201.3h18.7v5.8l-1.6-0.1c0.6,0.4,1.1,0.9,1.4,1.5s0.5,1.2,0.5,2
			c0,0.9-0.2,1.6-0.5,2.1c-0.3,0.6-0.7,1-1.2,1.2s-1,0.4-1.6,0.5c-0.5,0.1-1.6,0.1-3.2,0.1H38.5v-5.7h12.7c1.5,0,2.3,0,2.6-0.1
			s0.4-0.3,0.4-0.7c0-0.4-0.1-0.7-0.4-0.8c-0.3-0.1-1.2-0.1-2.7-0.1H38.5V201.3z"/>
		<path class="st0" d="M38.5,193.5l1.7,0.1c-0.7-0.4-1.2-0.9-1.5-1.5s-0.5-1.3-0.5-2.1c0-1,0.2-1.8,0.7-2.4c0.5-0.6,1-1,1.7-1.2
			c0.7-0.2,1.9-0.3,3.5-0.3h13.1v5.7h-13c-1.3,0-2.1,0-2.4,0.1c-0.3,0.1-0.4,0.3-0.4,0.7c0,0.4,0.2,0.7,0.5,0.8
			c0.3,0.1,1.2,0.2,2.6,0.2h12.6v5.7H38.5V193.5z"/>
		<path class="st0" d="M33.5,167.7l3.8,4.6v2.9l-3.8-2.5V167.7z M38.5,166h18.7v5.8l-1.6-0.1c0.6,0.4,1.1,0.9,1.4,1.5s0.5,1.2,0.5,2
			c0,0.9-0.2,1.6-0.5,2.1s-0.7,1-1.2,1.2s-1,0.4-1.6,0.5c-0.5,0.1-1.6,0.1-3.2,0.1H38.5v-5.7h12.7c1.5,0,2.3,0,2.6-0.1
			c0.3-0.1,0.4-0.3,0.4-0.7c0-0.4-0.1-0.7-0.4-0.8c-0.3-0.1-1.2-0.1-2.7-0.1H38.5V166z"/>
		<path class="st0" d="M34.4,158.1h22.8v5.9H34.4V158.1z"/>
		<path class="st0" d="M36.1,150.1H39v-1.5h3v1.5h10c1.2,0,1.9-0.1,2.1-0.2c0.1-0.1,0.2-0.7,0.2-1.6h3v2.3c0,1.3-0.1,2.2-0.2,2.8
			c-0.1,0.6-0.4,1-0.7,1.5c-0.4,0.4-0.8,0.7-1.3,0.8c-0.5,0.1-1.7,0.2-3.5,0.2H42v1.2h-3v-1.2h-2.9V150.1z"/>
		<path class="st0" d="M34.4,141.4h3v5.9h-3V141.4z M38.5,141.4h18.7v5.9H38.5V141.4z"/>
		<path class="st0" d="M38.5,133.8l1.8,0.1c-0.7-0.4-1.2-1-1.6-1.6c-0.4-0.6-0.5-1.3-0.5-2.1c0-1.5,0.7-2.7,2.1-3.6
			c-0.7-0.5-1.2-1-1.6-1.6c-0.4-0.6-0.5-1.3-0.5-2c0-1,0.2-1.8,0.7-2.4c0.5-0.6,1-1,1.7-1.2s1.8-0.3,3.3-0.3h13.3v5.5H45.1
			c-1.6,0-2.6,0.1-3,0.2s-0.6,0.4-0.6,0.8c0,0.4,0.2,0.7,0.6,0.8s1.4,0.2,3,0.2h12.2v5.5H45.4c-1.8,0-2.9,0-3.3,0.1
			c-0.4,0.1-0.6,0.3-0.6,0.7c0,0.3,0.1,0.5,0.3,0.6c0.2,0.2,0.4,0.3,0.7,0.3c0.3,0,0.9,0,1.8,0h13v5.5H38.5V133.8z"/>
		<path class="st0" d="M45.1,104.2h4.6c1.7,0,2.9,0.1,3.7,0.3c0.8,0.2,1.5,0.5,2.2,1.1c0.7,0.6,1.2,1.3,1.5,2.1
			c0.3,0.9,0.5,1.9,0.5,3c0,1.3-0.1,2.3-0.4,3.2c-0.3,0.9-0.7,1.6-1.3,2c-0.6,0.5-1.2,0.8-2,1c-0.8,0.2-2,0.3-3.6,0.3h-4.8
			c-1.7,0-3.1-0.2-4.1-0.6s-1.8-1.1-2.4-2s-0.9-2.2-0.9-3.8c0-1.3,0.2-2.4,0.6-3.3c0.4-0.9,0.9-1.6,1.5-2.1s1.2-0.8,1.9-1
			C42.8,104.3,43.8,104.2,45.1,104.2z M43.7,109.9c-1,0-1.6,0.1-1.8,0.2s-0.4,0.3-0.4,0.7c0,0.3,0.1,0.6,0.4,0.7s0.9,0.2,1.8,0.2
			h8.4c0.9,0,1.5-0.1,1.7-0.2c0.3-0.1,0.4-0.3,0.4-0.7c0-0.3-0.1-0.6-0.4-0.7c-0.2-0.1-0.8-0.2-1.6-0.2H43.7z"/>
		<path class="st0" d="M38.5,91.5l1.7,0.1c-0.7-0.4-1.2-0.9-1.5-1.5s-0.5-1.3-0.5-2.1c0-1,0.2-1.8,0.7-2.4c0.5-0.6,1-1,1.7-1.2
			c0.7-0.2,1.9-0.3,3.5-0.3h13.1v5.7h-13c-1.3,0-2.1,0-2.4,0.1c-0.3,0.1-0.4,0.3-0.4,0.7c0,0.4,0.2,0.7,0.5,0.8
			c0.3,0.1,1.2,0.2,2.6,0.2h12.6v5.7H38.5V91.5z"/>
		<path class="st0" d="M34.4,76.3h3v5.9h-3V76.3z M38.5,76.3h18.7v5.9H38.5V76.3z"/>
		<path class="st0" d="M38.5,62.4l18.7,2.7v7.4l-18.7,2.9v-5.1l13.7-1.6c-1-0.1-3.5-0.3-7.3-0.6c-2.2-0.2-4.3-0.3-6.3-0.6V62.4z"/>
		<path class="st0" d="M48.2,48.7v7.4h4c0.8,0,1.4-0.1,1.6-0.2c0.2-0.1,0.4-0.4,0.4-0.7c0-0.4-0.2-0.7-0.5-0.9
			c-0.3-0.1-1-0.2-1.9-0.2h-2.5v-5.4h1.4c1.2,0,2,0.1,2.7,0.2c0.6,0.1,1.3,0.5,2,1c0.7,0.5,1.2,1.2,1.6,2c0.4,0.8,0.5,1.9,0.5,3.1
			c0,1.2-0.2,2.3-0.5,3.2c-0.3,0.9-0.8,1.6-1.4,2.2c-0.6,0.5-1.3,0.9-2,1.1c-0.7,0.2-1.8,0.3-3.2,0.3H45c-1.6,0-2.9-0.2-3.9-0.7
			c-0.9-0.4-1.7-1.2-2.2-2.2c-0.5-1-0.8-2.2-0.8-3.5c0-1.6,0.3-2.9,0.9-4s1.4-1.8,2.4-2.2c1-0.4,2.4-0.6,4.2-0.6L48.2,48.7
			L48.2,48.7z M45.2,54.4h-1.4c-1,0-1.6,0.1-1.9,0.2c-0.3,0.1-0.4,0.3-0.4,0.6c0,0.4,0.1,0.6,0.4,0.7c0.2,0.1,0.9,0.1,1.9,0.1h1.4
			L45.2,54.4L45.2,54.4z"/>
		<path class="st0" d="M34.4,41h22.8v5.9H34.4V41z"/>
		<path class="st0" d="M34.4,20.9h22.8v5.7h-1.4c0.6,0.5,1,1.1,1.3,1.7c0.3,0.6,0.4,1.2,0.4,1.9c0,0.9-0.2,1.6-0.7,2.3
			c-0.5,0.6-1,1.1-1.6,1.2c-0.6,0.2-1.6,0.3-3,0.3h-8.8c-1.4,0-2.5-0.1-3.1-0.3c-0.6-0.2-1.1-0.6-1.6-1.3c-0.5-0.7-0.7-1.4-0.7-2.4
			c0-0.7,0.1-1.4,0.4-1.9c0.3-0.6,0.6-1.1,1.1-1.6h-5.3V20.9z M43.3,26.6c-0.7,0-1.1,0.1-1.4,0.2c-0.2,0.1-0.4,0.4-0.4,0.7
			c0,0.3,0.1,0.6,0.3,0.7c0.2,0.1,0.7,0.2,1.4,0.2h9.2c0.8,0,1.3-0.1,1.5-0.2c0.2-0.1,0.4-0.3,0.4-0.6c0-0.4-0.1-0.6-0.4-0.7
			s-0.9-0.2-2-0.2H43.3z"/>
		<path class="st0" d="M48.2,5.9v7.4h4c0.8,0,1.4-0.1,1.6-0.2c0.2-0.1,0.4-0.4,0.4-0.7c0-0.4-0.2-0.7-0.5-0.9
			c-0.3-0.1-1-0.2-1.9-0.2h-2.5V5.9h1.4c1.2,0,2,0.1,2.7,0.2c0.6,0.1,1.3,0.5,2,1c0.7,0.5,1.2,1.2,1.6,2s0.5,1.9,0.5,3.1
			c0,1.2-0.2,2.3-0.5,3.2c-0.3,0.9-0.8,1.6-1.4,2.2c-0.6,0.5-1.3,0.9-2,1.1c-0.7,0.2-1.8,0.3-3.2,0.3H45c-1.6,0-2.9-0.2-3.9-0.7
			c-0.9-0.4-1.7-1.2-2.2-2.2c-0.5-1-0.8-2.2-0.8-3.5c0-1.6,0.3-2.9,0.9-4s1.4-1.8,2.4-2.2c1-0.4,2.4-0.6,4.2-0.6L48.2,5.9L48.2,5.9z
			 M45.2,11.6h-1.4c-1,0-1.6,0.1-1.9,0.2c-0.3,0.1-0.4,0.3-0.4,0.6c0,0.4,0.1,0.6,0.4,0.7c0.2,0.1,0.9,0.1,1.9,0.1h1.4L45.2,11.6
			L45.2,11.6z"/>
		<path class="st0" d="M78.1,244.8v7.4h4c0.8,0,1.4-0.1,1.6-0.2c0.2-0.1,0.4-0.4,0.4-0.7c0-0.4-0.2-0.7-0.5-0.9
			c-0.3-0.1-1-0.2-1.9-0.2h-2.5v-5.4h1.4c1.2,0,2,0.1,2.7,0.2c0.6,0.1,1.3,0.5,2,1s1.2,1.2,1.6,2c0.4,0.8,0.5,1.9,0.5,3.1
			c0,1.2-0.2,2.3-0.5,3.2c-0.3,0.9-0.8,1.6-1.4,2.2c-0.6,0.5-1.3,0.9-2,1.1c-0.7,0.2-1.8,0.3-3.2,0.3h-5.5c-1.6,0-2.9-0.2-3.9-0.7
			c-0.9-0.4-1.7-1.2-2.2-2.2c-0.5-1-0.8-2.2-0.8-3.5c0-1.6,0.3-2.9,0.9-4s1.4-1.8,2.4-2.2c1-0.4,2.4-0.6,4.2-0.6L78.1,244.8
			L78.1,244.8z M75.1,250.5h-1.4c-1,0-1.6,0.1-1.9,0.2c-0.3,0.1-0.4,0.3-0.4,0.6c0,0.4,0.1,0.6,0.4,0.7c0.2,0.1,0.9,0.1,1.9,0.1h1.4
			L75.1,250.5L75.1,250.5z"/>
		<path class="st0" d="M74.4,231.3v5h-1c-0.9,0-1.4,0-1.6,0.1c-0.2,0.1-0.3,0.3-0.3,0.7c0,0.3,0.1,0.6,0.3,0.7
			c0.2,0.2,0.5,0.2,1,0.2c0.6,0,1,0,1.3-0.1c0.3-0.1,0.6-0.3,0.9-0.7c0.3-0.4,0.8-1.2,1.4-2.5c0.8-1.7,1.6-2.7,2.3-3.3
			c0.7-0.5,1.8-0.8,3.1-0.8c1.5,0,2.7,0.2,3.4,0.6c0.8,0.4,1.4,1.1,1.8,2s0.6,2,0.6,3.4c0,1.4-0.2,2.7-0.7,3.7
			c-0.5,1-1.1,1.7-1.8,2.1c-0.8,0.4-1.9,0.6-3.5,0.6h-0.9v-5.1h1.2c1,0,1.7-0.1,2-0.2c0.3-0.1,0.5-0.4,0.5-0.8
			c0-0.4-0.1-0.7-0.3-0.8c-0.2-0.2-0.6-0.2-1.3-0.2c-0.9,0-1.5,0.1-1.7,0.3c-0.2,0.2-0.9,1.3-2,3.3c-0.9,1.7-1.8,2.7-2.6,3.1
			c-0.8,0.4-1.7,0.6-2.7,0.6c-1.5,0-2.6-0.2-3.3-0.6s-1.3-1.1-1.6-2c-0.4-0.9-0.6-2-0.6-3.3c0-1.2,0.2-2.3,0.5-3.2
			c0.3-0.9,0.7-1.5,1.2-2c0.5-0.5,1-0.7,1.4-0.8c0.4-0.1,1.1-0.1,2.1-0.1L74.4,231.3L74.4,231.3z"/>
		<path class="st0" d="M65.9,223.3h2.9v-1.5h3v1.5h10c1.2,0,1.9-0.1,2.1-0.2c0.1-0.1,0.2-0.7,0.2-1.6h3v2.3c0,1.3-0.1,2.2-0.2,2.8
			c-0.1,0.6-0.4,1-0.7,1.5c-0.4,0.4-0.8,0.7-1.3,0.8s-1.7,0.2-3.5,0.2h-9.5v1.2h-3v-1.2h-2.9L65.9,223.3L65.9,223.3z"/>
		<path class="st0" d="M68.4,207.5h18.7v5.8l-1.6-0.1c0.6,0.4,1.1,0.9,1.4,1.5s0.5,1.2,0.5,2c0,0.9-0.2,1.6-0.5,2.1
			c-0.3,0.6-0.7,1-1.2,1.2s-1,0.4-1.6,0.5c-0.5,0.1-1.6,0.1-3.2,0.1H68.4v-5.7h12.7c1.5,0,2.3,0,2.6-0.1s0.4-0.3,0.4-0.7
			c0-0.4-0.1-0.7-0.4-0.8c-0.3-0.1-1.2-0.1-2.7-0.1H68.4V207.5z"/>
		<path class="st0" d="M64.3,192.5h22.8v5.7h-1.4c0.6,0.5,1,1.1,1.3,1.7c0.3,0.6,0.4,1.2,0.4,1.9c0,0.9-0.2,1.6-0.7,2.3
			c-0.5,0.6-1,1.1-1.6,1.2c-0.6,0.2-1.6,0.3-3,0.3h-8.8c-1.4,0-2.5-0.1-3.1-0.3c-0.6-0.2-1.1-0.6-1.6-1.3c-0.5-0.7-0.7-1.4-0.7-2.4
			c0-0.7,0.1-1.4,0.4-1.9c0.3-0.6,0.6-1.1,1.1-1.6h-5.3L64.3,192.5L64.3,192.5z M73.1,198.2c-0.7,0-1.1,0.1-1.4,0.2
			c-0.2,0.1-0.4,0.4-0.4,0.7c0,0.3,0.1,0.6,0.3,0.7c0.2,0.1,0.7,0.2,1.4,0.2h9.2c0.8,0,1.3-0.1,1.5-0.2c0.2-0.1,0.4-0.3,0.4-0.6
			c0-0.4-0.1-0.6-0.4-0.7c-0.3-0.1-0.9-0.2-2-0.2L73.1,198.2L73.1,198.2z"/>
		<path class="st0" d="M64.3,184.6h3v5.9h-3V184.6z M68.4,184.6h18.7v5.9H68.4V184.6z"/>
		<path class="st0" d="M75,169.7h4.6c1.7,0,2.9,0.1,3.7,0.3c0.8,0.2,1.5,0.5,2.2,1.1c0.7,0.6,1.2,1.3,1.5,2.1c0.3,0.9,0.5,1.9,0.5,3
			c0,1.3-0.1,2.3-0.4,3.2c-0.3,0.9-0.7,1.6-1.3,2c-0.6,0.5-1.2,0.8-2,1c-0.8,0.2-2,0.3-3.6,0.3h-4.8c-1.7,0-3.1-0.2-4.1-0.6
			s-1.8-1.1-2.4-2c-0.6-1-0.9-2.2-0.9-3.8c0-1.3,0.2-2.4,0.6-3.3c0.4-0.9,0.9-1.6,1.5-2.1c0.6-0.5,1.2-0.8,1.9-1
			C72.7,169.8,73.7,169.7,75,169.7z M73.6,175.4c-1,0-1.6,0.1-1.8,0.2c-0.2,0.1-0.4,0.3-0.4,0.7c0,0.3,0.1,0.6,0.4,0.7
			s0.9,0.2,1.8,0.2H82c0.9,0,1.5-0.1,1.7-0.2c0.3-0.1,0.4-0.3,0.4-0.7c0-0.3-0.1-0.6-0.4-0.7c-0.2-0.1-0.8-0.2-1.6-0.2H73.6z"/>
		<path class="st0" d="M74.4,156.1v5h-1c-0.9,0-1.4,0-1.6,0.1c-0.2,0.1-0.3,0.3-0.3,0.7c0,0.3,0.1,0.6,0.3,0.7
			c0.2,0.2,0.5,0.2,1,0.2c0.6,0,1,0,1.3-0.1c0.3-0.1,0.6-0.3,0.9-0.7c0.3-0.4,0.8-1.2,1.4-2.5c0.8-1.7,1.6-2.7,2.3-3.3
			c0.7-0.5,1.8-0.8,3.1-0.8c1.5,0,2.7,0.2,3.4,0.6s1.4,1.1,1.8,2c0.4,0.9,0.6,2,0.6,3.4c0,1.4-0.2,2.7-0.7,3.7
			c-0.5,1-1.1,1.7-1.8,2.1s-1.9,0.6-3.5,0.6h-0.9v-5h1.2c1,0,1.7-0.1,2-0.2c0.3-0.1,0.5-0.4,0.5-0.8c0-0.4-0.1-0.7-0.3-0.8
			c-0.2-0.2-0.6-0.2-1.3-0.2c-0.9,0-1.5,0.1-1.7,0.3c-0.2,0.2-0.9,1.3-2,3.3c-0.9,1.7-1.8,2.7-2.6,3.1c-0.8,0.4-1.7,0.6-2.7,0.6
			c-1.5,0-2.6-0.2-3.3-0.6c-0.7-0.4-1.3-1.1-1.6-2c-0.4-0.9-0.6-2-0.6-3.3c0-1.2,0.2-2.3,0.5-3.2s0.7-1.5,1.2-2
			c0.5-0.5,1-0.7,1.4-0.8c0.4-0.1,1.1-0.1,2.1-0.1L74.4,156.1L74.4,156.1z"/>
		<path class="st0" d="M75.7,144v5.3h-1.3c-1.4,0-2.6-0.2-3.3-0.5c-0.8-0.3-1.5-1-2.1-2c-0.6-1-0.9-2.3-0.9-3.9c0-1.9,0.3-3.4,1-4.4
			c0.7-1,1.5-1.6,2.5-1.8c1-0.2,3-0.3,6.1-0.3h9.4v5.5h-1.7c0.7,0.3,1.2,0.8,1.5,1.3s0.5,1.2,0.5,2c0,1-0.3,1.9-0.8,2.7
			c-0.6,0.8-1.8,1.2-3.7,1.2h-1.5c-1.4,0-2.4-0.2-2.9-0.7s-1.1-1.5-1.8-3.3c-0.7-1.9-1.2-2.9-1.5-3c-0.3-0.1-0.8-0.2-1.6-0.2
			c-1,0-1.6,0.1-1.9,0.2c-0.3,0.1-0.4,0.4-0.4,0.7c0,0.4,0.1,0.6,0.4,0.7s0.9,0.1,1.9,0.1L75.7,144L75.7,144z M78.2,142.2
			c0.7,0.9,1.2,1.4,1.7,1.6c0.5,0.1,1.1,0.2,1.9,0.2c1,0,1.6-0.1,1.9-0.2c0.3-0.1,0.4-0.4,0.4-0.8c0-0.4-0.1-0.6-0.3-0.7
			c-0.2-0.1-0.8-0.2-1.7-0.2L78.2,142.2L78.2,142.2z"/>
		<path class="st0" d="M68.4,128.7l1.7,0.1c-0.7-0.5-1.2-1.1-1.5-1.7s-0.5-1.3-0.5-2c0-0.9,0.2-1.6,0.7-2.3s1-1,1.6-1.2
			c0.6-0.2,1.7-0.2,3.2-0.2h7.9c1.7,0,2.9,0.1,3.6,0.3c0.7,0.2,1.3,0.6,1.7,1.2c0.4,0.6,0.6,1.4,0.6,2.3c0,0.7-0.2,1.4-0.5,2
			c-0.3,0.6-0.8,1.2-1.5,1.6h4.3v5.7H68.4L68.4,128.7L68.4,128.7z M73.9,127.1c-1.2,0-1.9,0-2.1,0.1s-0.4,0.3-0.4,0.7
			c0,0.4,0.1,0.6,0.4,0.7c0.3,0.1,1,0.2,2,0.2h7.8c1.1,0,1.8-0.1,2.1-0.2c0.3-0.1,0.4-0.4,0.4-0.7c0-0.4-0.1-0.6-0.4-0.7
			c-0.3-0.1-0.9-0.1-1.9-0.1L73.9,127.1L73.9,127.1z"/>
		<path class="st0" d="M68.4,113.9l2.5,0.2c-1.8-0.8-2.7-2-2.8-3.6h6.6c0,1,0.1,1.8,0.4,2.3c0.3,0.5,0.7,0.8,1.2,0.9
			s1.7,0.2,3.5,0.2h7.4v5.7H68.4V113.9z"/>
		<path class="st0" d="M75,96.3h4.6c1.7,0,2.9,0.1,3.7,0.3c0.8,0.2,1.5,0.5,2.2,1.1c0.7,0.6,1.2,1.3,1.5,2.1c0.3,0.9,0.5,1.9,0.5,3
			c0,1.3-0.1,2.3-0.4,3.2c-0.3,0.9-0.7,1.6-1.3,2c-0.6,0.5-1.2,0.8-2,1c-0.8,0.2-2,0.3-3.6,0.3h-4.8c-1.7,0-3.1-0.2-4.1-0.6
			s-1.8-1.1-2.4-2s-0.9-2.2-0.9-3.8c0-1.3,0.2-2.4,0.6-3.3c0.4-0.9,0.9-1.6,1.5-2.1s1.2-0.8,1.9-1C72.7,96.4,73.7,96.3,75,96.3z
			 M73.6,102c-1,0-1.6,0.1-1.8,0.2c-0.2,0.1-0.4,0.3-0.4,0.7c0,0.3,0.1,0.6,0.4,0.7s0.9,0.2,1.8,0.2H82c0.9,0,1.5-0.1,1.7-0.2
			c0.3-0.1,0.4-0.3,0.4-0.7c0-0.3-0.1-0.6-0.4-0.7c-0.2-0.1-0.8-0.2-1.6-0.2H73.6z"/>
		<path class="st0" d="M64.3,88.8h5.4c-0.5-0.5-1-1-1.2-1.6c-0.3-0.6-0.4-1.2-0.4-1.9c0-0.8,0.1-1.5,0.4-2c0.2-0.6,0.6-1,1-1.3
			c0.4-0.3,0.9-0.5,1.3-0.5c0.4-0.1,1.3-0.1,2.7-0.1h8.4c1.4,0,2.4,0.1,3.1,0.3c0.7,0.2,1.3,0.6,1.7,1.3c0.5,0.7,0.7,1.5,0.7,2.4
			c0,0.7-0.1,1.3-0.4,1.9c-0.3,0.6-0.7,1.1-1.3,1.6l1.4,0.4v5.3H64.3V88.8z M73.7,87c-1,0-1.6,0.1-1.9,0.2c-0.3,0.1-0.4,0.4-0.4,0.7
			c0,0.3,0.1,0.6,0.4,0.7c0.3,0.1,0.9,0.2,2,0.2h8.1c1,0,1.7-0.1,1.9-0.2c0.3-0.1,0.4-0.3,0.4-0.7c0-0.4-0.1-0.6-0.4-0.7
			c-0.3-0.1-1-0.2-2.1-0.2L73.7,87L73.7,87z"/>
		<path class="st0" d="M75.7,74.4v5.3h-1.3c-1.4,0-2.6-0.2-3.3-0.5c-0.8-0.3-1.5-1-2.1-2c-0.6-1-0.9-2.3-0.9-3.9
			c0-1.9,0.3-3.4,1-4.4c0.7-1,1.5-1.6,2.5-1.8c1-0.2,3-0.3,6.1-0.3h9.4v5.5h-1.7c0.7,0.3,1.2,0.8,1.5,1.3s0.5,1.2,0.5,2
			c0,1-0.3,1.9-0.8,2.7c-0.6,0.8-1.8,1.2-3.7,1.2h-1.5c-1.4,0-2.4-0.2-2.9-0.7s-1.1-1.5-1.8-3.3c-0.7-1.9-1.2-2.9-1.5-3
			c-0.3-0.1-0.8-0.2-1.6-0.2c-1,0-1.6,0.1-1.9,0.2c-0.3,0.1-0.4,0.4-0.4,0.7c0,0.4,0.1,0.6,0.4,0.7s0.9,0.1,1.9,0.1H75.7z
			 M78.2,72.5c0.7,0.9,1.2,1.4,1.7,1.6c0.5,0.1,1.1,0.2,1.9,0.2c1,0,1.6-0.1,1.9-0.2c0.3-0.1,0.4-0.4,0.4-0.8c0-0.4-0.1-0.6-0.3-0.7
			c-0.2-0.1-0.8-0.2-1.7-0.2L78.2,72.5L78.2,72.5z"/>
		<path class="st0" d="M64.3,51.9h22.8v5.7h-1.4c0.6,0.5,1,1.1,1.3,1.7c0.3,0.6,0.4,1.2,0.4,1.9c0,0.9-0.2,1.7-0.7,2.3
			c-0.5,0.6-1,1.1-1.6,1.2c-0.6,0.2-1.6,0.3-3,0.3h-8.8c-1.4,0-2.5-0.1-3.1-0.3c-0.6-0.2-1.1-0.6-1.6-1.3c-0.5-0.7-0.7-1.4-0.7-2.4
			c0-0.7,0.1-1.4,0.4-1.9c0.3-0.6,0.6-1.1,1.1-1.6h-5.3L64.3,51.9L64.3,51.9z M73.1,57.6c-0.7,0-1.1,0.1-1.4,0.2
			c-0.2,0.1-0.4,0.3-0.4,0.7c0,0.3,0.1,0.6,0.3,0.7c0.2,0.1,0.7,0.2,1.4,0.2h9.2c0.8,0,1.3-0.1,1.5-0.2c0.2-0.1,0.4-0.3,0.4-0.6
			c0-0.4-0.1-0.6-0.4-0.7s-0.9-0.2-2-0.2H73.1z"/>
		<path class="st0" d="M75,37h4.6c1.7,0,2.9,0.1,3.7,0.3c0.8,0.2,1.5,0.5,2.2,1.1c0.7,0.6,1.2,1.3,1.5,2.1c0.3,0.9,0.5,1.9,0.5,3
			c0,1.3-0.1,2.3-0.4,3.2c-0.3,0.9-0.7,1.6-1.3,2c-0.6,0.5-1.2,0.8-2,1c-0.8,0.2-2,0.3-3.6,0.3h-4.8c-1.7,0-3.1-0.2-4.1-0.6
			s-1.8-1.1-2.4-2c-0.6-1-0.9-2.2-0.9-3.8c0-1.3,0.2-2.4,0.6-3.3c0.4-0.9,0.9-1.6,1.5-2.1s1.2-0.8,1.9-1C72.7,37.1,73.7,37,75,37z
			 M73.6,42.7c-1,0-1.6,0.1-1.8,0.2c-0.2,0.1-0.4,0.3-0.4,0.7c0,0.3,0.1,0.6,0.4,0.7s0.9,0.2,1.8,0.2H82c0.9,0,1.5-0.1,1.7-0.2
			c0.3-0.1,0.4-0.3,0.4-0.7c0-0.3-0.1-0.6-0.4-0.7c-0.2-0.1-0.8-0.2-1.6-0.2H73.6z"/>
		<path class="st0" d="M74.4,23.5v5h-1c-0.9,0-1.4,0-1.6,0.1c-0.2,0.1-0.3,0.3-0.3,0.7c0,0.3,0.1,0.6,0.3,0.7c0.2,0.2,0.5,0.2,1,0.2
			c0.6,0,1,0,1.3-0.1c0.3-0.1,0.6-0.3,0.9-0.7c0.3-0.4,0.8-1.2,1.4-2.5c0.8-1.7,1.6-2.7,2.3-3.3c0.7-0.5,1.8-0.8,3.1-0.8
			c1.5,0,2.7,0.2,3.4,0.6s1.4,1.1,1.8,2c0.4,0.9,0.6,2,0.6,3.4c0,1.4-0.2,2.7-0.7,3.7c-0.5,1-1.1,1.7-1.8,2.1s-1.9,0.6-3.5,0.6h-0.9
			v-5h1.2c1,0,1.7-0.1,2-0.2c0.3-0.1,0.5-0.4,0.5-0.8c0-0.4-0.1-0.7-0.3-0.8c-0.2-0.2-0.6-0.2-1.3-0.2c-0.9,0-1.5,0.1-1.7,0.3
			c-0.2,0.2-0.9,1.3-2,3.3c-0.9,1.7-1.8,2.7-2.6,3.1c-0.8,0.4-1.7,0.5-2.7,0.5c-1.5,0-2.6-0.2-3.3-0.6c-0.7-0.4-1.3-1.1-1.6-2
			c-0.4-0.9-0.6-2-0.6-3.3c0-1.2,0.2-2.3,0.5-3.2s0.7-1.5,1.2-2c0.5-0.5,1-0.7,1.4-0.8c0.4-0.1,1.1-0.1,2.1-0.1L74.4,23.5L74.4,23.5
			z"/>
	</g>
	<g>
		<path class="st1" d="M13,352.6v5.9h-2.1c-1.3,0-2.1,0.1-2.5,0.2c-0.3,0.1-0.5,0.4-0.5,0.8c0,0.4,0.1,0.6,0.4,0.7
			c0.3,0.1,1,0.2,2.2,0.2h11c1,0,1.7-0.1,2-0.2c0.3-0.1,0.5-0.4,0.5-0.8c0-0.4-0.2-0.7-0.5-0.9c-0.4-0.2-1.1-0.2-2.1-0.2h-2.7v1.2
			h-3.5v-7h12.3v3.7l-1.6,0.5c0.7,0.4,1.2,0.9,1.6,1.5c0.4,0.6,0.5,1.3,0.5,2.2c0,1-0.2,1.9-0.7,2.8c-0.5,0.9-1.1,1.5-1.8,2
			s-1.5,0.7-2.2,0.8c-0.8,0.1-2,0.2-3.5,0.2h-6.8c-2.2,0-3.8-0.1-4.8-0.4c-1-0.2-1.9-0.9-2.7-2c-0.8-1.1-1.2-2.6-1.2-4.3
			c0-1.7,0.4-3.2,1.1-4.3s1.6-1.9,2.5-2.2c1-0.3,2.4-0.5,4.3-0.5L13,352.6C13,352.6,13,352.6,13,352.6z"/>
		<path class="st1" d="M4.5,350.3v-4.2c0-2.8,0.1-4.7,0.3-5.7c0.2-1,0.8-1.8,1.7-2.4c0.9-0.6,2.3-0.9,4.3-0.9c1.8,0,3,0.2,3.6,0.7
			c0.6,0.4,1,1.3,1.1,2.6c0.3-1.2,0.7-2,1.2-2.4c0.5-0.4,0.9-0.7,1.3-0.8c0.4-0.1,1.5-0.1,3.4-0.1h6v5.5h-7.6c-1.2,0-2,0.1-2.3,0.3
			c-0.3,0.2-0.4,0.7-0.4,1.5h10.3v5.9L4.5,350.3L4.5,350.3z M8.5,344.3h5.1c0-0.7-0.1-1.1-0.3-1.4c-0.2-0.3-0.8-0.4-1.8-0.4h-1.3
			c-0.7,0-1.2,0.1-1.4,0.4C8.6,343.2,8.5,343.7,8.5,344.3z"/>
		<path class="st1" d="M0,323.8l3.8,4.6v2.9L0,328.8C0,328.8,0,323.8,0,323.8z M4.5,324.5l22.8-3.4v6.1l-4.1,0.3v2.1l4.1,0.4v6.1
			l-22.8-3V324.5z M19.2,327.6c-2.6,0.3-5.8,0.6-9.6,0.9c4.4,0.6,7.6,1,9.6,1.1V327.6z"/>
		<path class="st1" d="M4.5,320.1V310h4.6v4.1h4.3v-3.7h4.3v3.7h9.6v5.9H4.5z"/>
		<path class="st1" d="M4.5,302.6h22.8v5.9H4.5V302.6z"/>
		<path class="st1" d="M14.5,286.4v5.9h-4c-1.2,0-1.9,0.1-2.2,0.2s-0.4,0.4-0.4,0.8c0,0.5,0.2,0.8,0.5,0.9c0.3,0.1,1.1,0.2,2.3,0.2
			h10.6c1.1,0,1.8-0.1,2.2-0.2c0.3-0.1,0.5-0.4,0.5-0.9c0-0.4-0.2-0.7-0.5-0.9c-0.3-0.1-1.1-0.2-2.4-0.2h-2.9v-5.9h0.9
			c2.4,0,4,0.2,5,0.5c1,0.3,1.9,1.1,2.6,2.2c0.7,1.1,1.1,2.5,1.1,4.2c0,1.7-0.3,3.2-0.9,4.3c-0.6,1.1-1.5,1.9-2.6,2.2
			c-1.1,0.4-2.8,0.5-5,0.5h-6.7c-1.6,0-2.9-0.1-3.7-0.2c-0.8-0.1-1.6-0.4-2.4-1c-0.8-0.6-1.4-1.3-1.8-2.3c-0.4-1-0.7-2.1-0.7-3.4
			c0-1.7,0.3-3.2,1-4.3c0.7-1.1,1.5-1.9,2.5-2.2s2.6-0.5,4.7-0.5L14.5,286.4L14.5,286.4z"/>
		<path class="st1" d="M4.5,274l22.8-3.4v6.1l-4.1,0.3v2.1l4.1,0.4v6.1l-22.8-3C4.5,282.6,4.5,274,4.5,274z M19.2,277.1
			c-2.6,0.3-5.8,0.6-9.6,0.9c4.4,0.6,7.6,1,9.6,1.1V277.1z"/>
		<path class="st1" d="M40.5,271.7v5.7c-1.1,0-1.7,0-2,0c-0.3,0-0.5,0.1-0.7,0.3c-0.2,0.2-0.3,0.5-0.3,0.8c0,0.3,0.1,0.5,0.3,0.7
			c0.2,0.2,0.4,0.3,0.7,0.3c0.3,0,0.9,0,1.7,0h3.6c-0.6-0.3-1.1-0.7-1.4-1.3c-0.3-0.6-0.5-1.3-0.5-2.1c0-1,0.3-2,0.8-2.8
			c0.6-0.8,1.2-1.3,2-1.5c0.8-0.2,1.9-0.3,3.2-0.3h1.8c1.6,0,2.8,0.1,3.6,0.2c0.8,0.1,1.5,0.4,2.2,1s1.2,1.3,1.5,2.2
			c0.4,0.9,0.6,2,0.6,3.2c0,1.5-0.2,2.8-0.6,3.8c-0.4,1-1,1.7-1.8,2.3c-0.8,0.5-1.6,0.8-2.5,0.9c-0.9,0.1-2.6,0.1-5.1,0.1h-3.2
			c-2.7,0-4.5,0-5.5-0.1c-0.9-0.1-1.8-0.4-2.6-1c-0.8-0.6-1.4-1.4-1.8-2.3c-0.4-1-0.6-2.1-0.6-3.4c0-1.6,0.3-2.9,0.8-3.9
			c0.5-1,1.2-1.8,2.2-2.2S39.1,271.7,40.5,271.7z M47.6,277.4c-0.8,0-1.4,0.1-1.7,0.3c-0.3,0.2-0.5,0.5-0.5,0.9
			c0,0.4,0.1,0.7,0.4,0.9c0.3,0.2,0.8,0.3,1.7,0.3h4.1c1,0,1.7-0.1,2-0.3s0.5-0.5,0.5-0.9c0-0.2-0.1-0.5-0.4-0.8
			c-0.2-0.3-0.9-0.4-1.9-0.4L47.6,277.4L47.6,277.4z"/>
	</g>
	<g>
		<path class="st0" d="M504.8,125.8h3.1l3.8,18.4h0l-0.3-18.4h2v19.6h-3.1l-3.7-18.1h-0.1l0.3,18.1h-2L504.8,125.8L504.8,125.8z"/>
		<path class="st0" d="M517.5,125.8h2.4v19.6h-2.4V125.8z"/>
		<path class="st0" d="M522.4,125.8h2.3l2.4,17.6h0.2l2.3-17.6h2.2l-2.8,19.6h-3.5L522.4,125.8z"/>
		<path class="st0" d="M534.4,125.8h6.3v1.6h-4v7h3.8v1.5h-3.8v7.9h4.1v1.6h-6.4V125.8z"/>
		<path class="st0" d="M544,125.8h2.3v18h4.1v1.6H544V125.8z"/>
		<path class="st0" d="M558.1,125.8h2.7c2.2,0,3.7,0.3,4.4,0.8c0.7,0.5,1,1.7,1,3.6v10.8c0,1.9-0.4,3.1-1.1,3.6
			c-0.7,0.5-2.2,0.8-4.4,0.8h-2.7L558.1,125.8L558.1,125.8z M560.4,127.2v16.7h0.7c1.1,0,1.8-0.1,2.2-0.4c0.4-0.3,0.5-0.9,0.5-1.8
			v-12.3c0-0.9-0.2-1.5-0.5-1.8c-0.4-0.3-1.1-0.4-2.2-0.4C561.1,127.2,560.4,127.2,560.4,127.2z"/>
		<path class="st0" d="M570.2,125.8h6.3v1.6h-4v7h3.8v1.5h-3.8v7.9h4.1v1.6h-6.4L570.2,125.8L570.2,125.8z"/>
		<path class="st0" d="M585.4,125.8h6.3v1.6h-4v7h3.8v1.5h-3.8v7.9h4.1v1.6h-6.4V125.8z"/>
		<path class="st0" d="M601.8,128.9v1.9h-2.4v-1.8c0-0.8-0.1-1.3-0.3-1.6c-0.2-0.3-0.6-0.4-1.1-0.4c-0.5,0-0.9,0.2-1.1,0.5
			c-0.2,0.3-0.3,0.9-0.3,1.7v1c0,0.4,0.1,0.8,0.2,1.2c0.1,0.4,0.4,0.8,0.6,1.2l3,3.9c0.5,0.7,0.9,1.3,1.1,1.9
			c0.2,0.6,0.3,1.2,0.3,1.8v1.3c0,1.7-0.3,2.8-0.9,3.4c-0.6,0.6-1.6,0.9-3.1,0.9c-1.4,0-2.4-0.2-3-0.7c-0.6-0.5-0.8-1.4-0.8-2.7
			v-2.2h2.4v2.1c0,0.8,0.1,1.3,0.3,1.6c0.2,0.3,0.6,0.4,1.2,0.4c0.6,0,1-0.2,1.2-0.5c0.2-0.3,0.3-1,0.3-2.1v-1.4
			c0-0.5-0.1-1-0.2-1.4s-0.3-0.8-0.5-1.1l-3.1-4.2c-0.4-0.6-0.8-1.1-1-1.6c-0.2-0.5-0.3-0.9-0.3-1.3v-1.1c0-1.5,0.3-2.6,0.8-3.2
			c0.6-0.6,1.5-0.9,2.9-0.9c1.4,0,2.4,0.2,3,0.7C601.6,126.6,601.8,127.5,601.8,128.9z"/>
		<path class="st0" d="M603.3,125.8h7.7v1.6h-2.7v18H606v-18h-2.7V125.8z"/>
		<path class="st0" d="M613.3,125.8h2.4v15.8c0,1,0.1,1.7,0.4,2.1c0.3,0.4,0.7,0.5,1.4,0.5c0.7,0,1.1-0.2,1.4-0.5s0.4-1,0.4-2.1
			v-15.8h2.4v15.6c0,1.7-0.3,2.8-0.9,3.4c-0.6,0.6-1.7,0.9-3.2,0.9c-1.5,0-2.6-0.3-3.2-0.9c-0.6-0.6-0.9-1.7-0.9-3.4L613.3,125.8
			L613.3,125.8z"/>
		<path class="st0" d="M625.5,125.8h2.7c2.2,0,3.7,0.3,4.4,0.8c0.7,0.5,1,1.7,1,3.6v10.8c0,1.9-0.4,3.1-1,3.6
			c-0.7,0.5-2.2,0.8-4.4,0.8h-2.7V125.8z M627.8,127.2v16.7h0.7c1.1,0,1.8-0.1,2.2-0.4c0.4-0.3,0.5-0.9,0.5-1.8v-12.3
			c0-0.9-0.2-1.5-0.5-1.8c-0.4-0.3-1.1-0.4-2.2-0.4C628.5,127.2,627.8,127.2,627.8,127.2z"/>
		<path class="st0" d="M637.6,125.8h2.4v19.6h-2.4V125.8z"/>
		<path class="st0" d="M652.1,129.7v11.6c0,1.7-0.3,2.8-0.9,3.4c-0.6,0.6-1.7,0.9-3.2,0.9c-1.5,0-2.6-0.3-3.2-0.9
			c-0.6-0.6-0.9-1.7-0.9-3.4v-11.6c0-1.6,0.3-2.8,0.9-3.4c0.6-0.6,1.7-0.9,3.2-0.9s2.6,0.3,3.2,0.9
			C651.8,127,652.1,128.1,652.1,129.7z M649.7,129.5c0-1-0.1-1.7-0.4-2c-0.3-0.4-0.7-0.6-1.4-0.6c-0.7,0-1.1,0.2-1.4,0.5
			c-0.3,0.4-0.4,1-0.4,2v12.1c0,1,0.1,1.7,0.4,2.1c0.3,0.4,0.7,0.5,1.4,0.5c0.7,0,1.1-0.2,1.4-0.5c0.3-0.4,0.4-1,0.4-2.1
			L649.7,129.5L649.7,129.5z"/>
		<path class="st0" d="M662.9,128.9v1.9h-2.4v-1.8c0-0.8-0.1-1.3-0.3-1.6c-0.2-0.3-0.6-0.4-1.1-0.4c-0.5,0-0.9,0.2-1.1,0.5
			s-0.3,0.9-0.3,1.7v1c0,0.4,0.1,0.8,0.2,1.2s0.4,0.8,0.6,1.2l3,3.9c0.5,0.7,0.9,1.3,1.1,1.9c0.2,0.6,0.3,1.2,0.3,1.8v1.3
			c0,1.7-0.3,2.8-0.9,3.4c-0.6,0.6-1.6,0.9-3.1,0.9c-1.4,0-2.4-0.2-3-0.7c-0.6-0.5-0.8-1.4-0.8-2.7v-2.2h2.4v2.1
			c0,0.8,0.1,1.3,0.3,1.6c0.2,0.3,0.6,0.4,1.2,0.4c0.6,0,1-0.2,1.2-0.5c0.2-0.3,0.3-1,0.3-2.1v-1.4c0-0.5-0.1-1-0.2-1.4
			c-0.1-0.4-0.3-0.8-0.5-1.1l-3.1-4.2c-0.4-0.6-0.8-1.1-1-1.6c-0.2-0.5-0.3-0.9-0.3-1.3v-1.1c0-1.5,0.3-2.6,0.8-3.2s1.5-0.9,2.9-0.9
			c1.4,0,2.4,0.2,3,0.7C662.7,126.6,662.9,127.5,662.9,128.9z"/>
	</g>
	<g>
		<g>
			<g>
				<g class="st2">
					<path class="st3" d="M249.7,47v7.6h0.8v2h-0.8v2h-2.9v-2h-3.4v-2l2.5-7.6H249.7z M246.8,54.6v-4.9l-1.3,4.9H246.8z"/>
					<path class="st3" d="M255.8,49v2c0,0.5,0,0.9-0.1,1.2c-0.1,0.3-0.3,0.5-0.6,0.7c-0.3,0.2-0.7,0.3-1.3,0.3
						c-0.6,0-1.1-0.1-1.4-0.3c-0.3-0.2-0.5-0.4-0.6-0.7s-0.2-0.6-0.2-1.1V49c0-0.6,0.1-1,0.2-1.3c0.1-0.3,0.3-0.5,0.7-0.7
						s0.7-0.3,1.2-0.3c0.5,0,1,0.1,1.3,0.3c0.3,0.2,0.6,0.4,0.7,0.7C255.7,48,255.8,48.4,255.8,49z M254,48.5c0-0.3,0-0.5,0-0.6
						c0-0.1-0.1-0.1-0.3-0.1c-0.1,0-0.2,0-0.2,0.1s-0.1,0.3-0.1,0.6v2.9c0,0.3,0,0.5,0.1,0.6c0,0.1,0.1,0.1,0.3,0.1
						c0.1,0,0.2,0,0.2-0.1c0-0.1,0.1-0.3,0.1-0.5L254,48.5L254,48.5z M259.2,46.8l-4.5,12h-1.1l4.5-12H259.2z M261.2,54.6v2
						c0,0.5,0,0.9-0.1,1.2s-0.3,0.5-0.6,0.7c-0.3,0.2-0.7,0.3-1.3,0.3c-0.6,0-1.1-0.1-1.4-0.3c-0.3-0.2-0.5-0.4-0.7-0.7
						c-0.1-0.3-0.2-0.6-0.2-1.1v-2.1c0-0.6,0.1-1,0.2-1.3c0.1-0.3,0.3-0.5,0.7-0.7c0.3-0.2,0.7-0.3,1.2-0.3c0.5,0,1,0.1,1.3,0.3
						c0.3,0.2,0.6,0.4,0.7,0.7C261.1,53.6,261.2,54,261.2,54.6z M259.3,54.1c0-0.3,0-0.5,0-0.6c0-0.1-0.1-0.1-0.3-0.1
						c-0.1,0-0.2,0-0.2,0.1s-0.1,0.3-0.1,0.6V57c0,0.3,0,0.5,0,0.6c0,0.1,0.1,0.1,0.3,0.1c0.1,0,0.2,0,0.2-0.1c0-0.1,0-0.3,0-0.5
						V54.1z"/>
				</g>
			</g>
		</g>
		<g>
			<g>
				<g class="st2">
					<path class="st4" d="M206.5,67.2v2.3h-0.9v-7.2h2c0.6,0.1,1.1,0.3,1.5,0.7c0.5,0.5,0.7,1,0.7,1.7c0,0.7-0.2,1.2-0.7,1.7
						s-1,0.7-1.7,0.7L206.5,67.2L206.5,67.2z M206.5,63.3v3h0.8c0.4,0,0.8-0.1,1.1-0.4c0.3-0.3,0.4-0.6,0.4-1.1
						c0-0.4-0.1-0.8-0.4-1.1c-0.3-0.3-0.6-0.4-1.1-0.4L206.5,63.3L206.5,63.3z"/>
					<path class="st4" d="M212.5,67.2h-0.8v2.3h-0.9v-7.2h2c0.6,0.1,1.1,0.3,1.5,0.7c0.5,0.5,0.7,1,0.7,1.7c0,0.7-0.2,1.2-0.7,1.7
						c-0.3,0.3-0.6,0.5-0.8,0.6l1.6,2.4h-1.1L212.5,67.2z M211.6,63.3v3h0.8c0.4,0,0.8-0.1,1.1-0.4c0.3-0.3,0.4-0.6,0.4-1.1
						c0-0.4-0.1-0.8-0.4-1.1c-0.3-0.3-0.6-0.4-1.1-0.4L211.6,63.3L211.6,63.3z"/>
					<path class="st4" d="M219.8,62.3v0.9h-2.9v2.2h2.9v0.9h-2.9v2.2h2.9v0.9h-3.9v-7.2L219.8,62.3L219.8,62.3z"/>
					<path class="st4" d="M224.9,62.3v0.9H222v2.2h2.9v0.9H222v2.2h2.9v0.9H221v-7.2L224.9,62.3L224.9,62.3z"/>
					<path class="st4" d="M227.9,65.8c-0.5-0.2-0.9-0.4-1.2-0.7c-0.3-0.3-0.5-0.7-0.5-1.2c0-0.5,0.2-0.8,0.5-1.2
						c0.3-0.3,0.7-0.5,1.2-0.5c0.5,0,0.9,0.2,1.2,0.5c0.2,0.2,0.3,0.5,0.5,0.9l-0.8,0.3c-0.1-0.3-0.2-0.5-0.3-0.5
						c-0.1-0.1-0.3-0.2-0.5-0.2c-0.2,0-0.4,0.1-0.5,0.2c-0.1,0.1-0.2,0.3-0.2,0.5c0,0.2,0.1,0.4,0.2,0.5c0.2,0.2,0.4,0.3,0.7,0.4
						c0.6,0.2,1,0.5,1.4,0.9c0.4,0.4,0.7,1,0.7,1.6s-0.2,1.1-0.7,1.6s-1,0.7-1.6,0.7c-0.6,0-1.1-0.2-1.6-0.7
						c-0.3-0.3-0.6-0.8-0.7-1.4l0.9-0.3c0.1,0.5,0.2,0.9,0.4,1.1c0.3,0.3,0.6,0.4,0.9,0.4s0.7-0.1,0.9-0.4c0.3-0.3,0.4-0.6,0.4-0.9
						c0-0.4-0.1-0.7-0.4-0.9C228.6,66.2,228.3,66,227.9,65.8z"/>
					<path class="st4" d="M236.6,67.8l0.7,0.6c-0.8,0.8-1.7,1.2-2.7,1.2c-1,0-1.9-0.4-2.6-1.1s-1.1-1.6-1.1-2.6c0-1,0.4-1.9,1.1-2.6
						s1.6-1.1,2.6-1.1c0.9,0,1.8,0.4,2.7,1.2l-0.7,0.6c-0.6-0.6-1.3-0.8-2-0.8c-0.7,0-1.4,0.3-1.9,0.8c-0.5,0.5-0.8,1.2-0.8,1.9
						c0,0.8,0.3,1.4,0.8,1.9c0.5,0.5,1.2,0.8,1.9,0.8C235.3,68.6,235.9,68.4,236.6,67.8z"/>
					<path class="st4" d="M244.5,63.3c0.7,0.7,1.1,1.6,1.1,2.6c0,1-0.4,1.9-1.1,2.6c-0.7,0.7-1.6,1.1-2.6,1.1s-1.9-0.4-2.6-1.1
						c-0.7-0.7-1.1-1.6-1.1-2.6c0-1,0.4-1.9,1.1-2.6s1.6-1.1,2.6-1.1C243,62.3,243.8,62.6,244.5,63.3z M241.9,63.2
						c-0.8,0-1.4,0.3-1.9,0.8c-0.5,0.5-0.8,1.2-0.8,1.9s0.3,1.4,0.8,1.9c0.5,0.5,1.2,0.8,1.9,0.8c0.8,0,1.4-0.3,1.9-0.8
						c0.5-0.5,0.8-1.2,0.8-1.9s-0.3-1.4-0.8-1.9C243.3,63.5,242.7,63.2,241.9,63.2z"/>
					<path class="st4" d="M246.8,69.5v-7.2h0.9v6.2h2.6v0.9L246.8,69.5L246.8,69.5z"/>
					<path class="st4" d="M254.1,62.3l2.6,7.2h-1l-0.9-2.5h-1.9l-0.9,2.5h-1l2.6-7.2C253.6,62.3,254.1,62.3,254.1,62.3z M254.4,66
						l-0.6-1.7l-0.6,1.7H254.4z"/>
					<path class="st4" d="M259.3,67.2h-0.8v2.3h-0.9v-7.2h2c0.6,0.1,1.1,0.3,1.5,0.7c0.5,0.5,0.7,1,0.7,1.7c0,0.7-0.2,1.2-0.7,1.7
						c-0.3,0.3-0.6,0.5-0.8,0.6l1.6,2.4h-1.1L259.3,67.2z M258.5,63.3v3h0.8c0.4,0,0.8-0.1,1.1-0.4c0.3-0.3,0.4-0.6,0.4-1.1
						c0-0.4-0.1-0.8-0.4-1.1c-0.3-0.3-0.6-0.4-1.1-0.4L258.5,63.3L258.5,63.3z"/>
				</g>
			</g>
		</g>
		<g>
			<g>
				<g class="st2">
					<path class="st3" d="M143,148.9c0.4,0.1,0.8,0.4,1,0.7s0.3,1.1,0.3,2.4c0,0.9-0.1,1.6-0.3,2.1c-0.2,0.5-0.6,0.9-1.1,1.2
						s-1.2,0.4-2,0.4c-0.9,0-1.6-0.2-2.2-0.5c-0.5-0.3-0.9-0.7-1-1.1c-0.2-0.4-0.2-1.2-0.2-2.3v-0.9h2.9v1.9c0,0.5,0,0.8,0.1,1
						s0.2,0.2,0.4,0.2c0.2,0,0.4-0.1,0.4-0.3s0.1-0.6,0.1-1.3v-0.8c0-0.4-0.1-0.8-0.1-1c-0.1-0.2-0.2-0.3-0.4-0.4
						c-0.2-0.1-0.6-0.1-1.1-0.1v-1.7c0.7,0,1.1,0,1.3-0.1c0.2-0.1,0.3-0.2,0.4-0.3c0.1-0.2,0.1-0.5,0.1-0.8v-0.6
						c0-0.4,0-0.7-0.1-0.8c-0.1-0.1-0.2-0.2-0.4-0.2c-0.2,0-0.3,0.1-0.4,0.2c-0.1,0.1-0.1,0.4-0.1,0.9v1h-2.9v-1
						c0-1.1,0.3-1.9,0.8-2.2c0.5-0.4,1.3-0.6,2.4-0.6c1.4,0,2.3,0.3,2.8,0.8c0.5,0.5,0.7,1.3,0.7,2.2c0,0.6-0.1,1.1-0.3,1.4
						C143.8,148.4,143.5,148.7,143,148.9z"/>
					<path class="st3" d="M152.3,153.5v2h-6.4l0-1.7c1.9-3.1,3-5,3.4-5.7c0.4-0.7,0.5-1.3,0.5-1.7c0-0.3-0.1-0.6-0.2-0.7
						s-0.3-0.2-0.5-0.2s-0.4,0.1-0.5,0.3c-0.1,0.2-0.2,0.5-0.2,1v1.1h-2.6v-0.4c0-0.6,0-1.2,0.1-1.5c0.1-0.4,0.2-0.7,0.5-1.1
						c0.3-0.4,0.6-0.6,1-0.8s0.9-0.3,1.5-0.3c1.1,0,2,0.3,2.6,0.9c0.6,0.6,0.9,1.3,0.9,2.2c0,0.7-0.2,1.4-0.5,2.1
						c-0.3,0.7-1.3,2.3-2.9,4.7L152.3,153.5L152.3,153.5z"/>
					<path class="st3" d="M158.1,145.8v2c0,0.5,0,0.9-0.1,1.2c-0.1,0.3-0.3,0.5-0.6,0.7c-0.3,0.2-0.7,0.3-1.3,0.3
						c-0.6,0-1.1-0.1-1.4-0.3c-0.3-0.2-0.5-0.4-0.6-0.7s-0.2-0.6-0.2-1.1v-2.1c0-0.6,0.1-1,0.2-1.3c0.1-0.3,0.3-0.5,0.7-0.7
						s0.7-0.3,1.2-0.3c0.5,0,1,0.1,1.3,0.3c0.3,0.2,0.6,0.4,0.7,0.7C158.1,144.9,158.1,145.3,158.1,145.8z M156.3,145.3
						c0-0.3,0-0.5,0-0.6c0-0.1-0.1-0.1-0.3-0.1c-0.1,0-0.2,0-0.2,0.1s-0.1,0.3-0.1,0.6v2.9c0,0.3,0,0.5,0.1,0.6
						c0,0.1,0.1,0.1,0.3,0.1c0.1,0,0.2,0,0.2-0.1c0-0.1,0.1-0.3,0.1-0.5L156.3,145.3L156.3,145.3L156.3,145.3z M161.5,143.6l-4.5,12
						h-1.1l4.5-12H161.5z M163.5,151.4v2c0,0.5,0,0.9-0.1,1.2s-0.3,0.5-0.6,0.7c-0.3,0.2-0.7,0.3-1.3,0.3c-0.6,0-1.1-0.1-1.4-0.3
						c-0.3-0.2-0.5-0.4-0.7-0.7c-0.1-0.3-0.2-0.6-0.2-1.1v-2.1c0-0.6,0.1-1,0.2-1.3c0.1-0.3,0.3-0.5,0.7-0.7
						c0.3-0.2,0.7-0.3,1.2-0.3c0.5,0,1,0.1,1.3,0.3c0.3,0.2,0.6,0.4,0.7,0.7C163.5,150.5,163.5,150.9,163.5,151.4z M161.7,150.9
						c0-0.3,0-0.5,0-0.6c0-0.1-0.1-0.1-0.3-0.1c-0.1,0-0.2,0-0.2,0.1s-0.1,0.3-0.1,0.6v2.9c0,0.3,0,0.5,0.1,0.6
						c0,0.1,0.1,0.1,0.3,0.1c0.1,0,0.2,0,0.2-0.1c0-0.1,0.1-0.3,0.1-0.5V150.9z"/>
				</g>
			</g>
		</g>
		<g>
			<g>
				<g class="st2">
					<path class="st4" d="M122.4,159.2h0.8l3,5.1v-5.1h0.9v7.2h-0.8l-3-5.2v5.2h-0.9L122.4,159.2L122.4,159.2z"/>
					<path class="st4" d="M129.4,159.2v7.2h-0.9v-7.2H129.4z"/>
					<path class="st4" d="M130.9,159.2h0.8l3,5.1v-5.1h0.9v7.2h-0.8l-3-5.2v5.2h-0.9L130.9,159.2L130.9,159.2z"/>
					<path class="st4" d="M143,165.4c-0.7,0.7-1.6,1.1-2.5,1.1c-1,0-1.9-0.4-2.6-1.1s-1.1-1.6-1.1-2.6c0-1,0.4-1.9,1.1-2.6
						s1.6-1.1,2.6-1.1c0.9,0,1.8,0.4,2.7,1.2l-0.7,0.6c-0.6-0.6-1.3-0.9-2-0.9c-0.7,0-1.4,0.3-1.9,0.8c-0.5,0.5-0.8,1.2-0.8,1.9
						c0,0.8,0.3,1.4,0.8,1.9c0.5,0.5,1.2,0.8,1.9,0.8c0.6,0,1.2-0.2,1.6-0.5v-2.2h0.9V165.4z"/>
					<path class="st4" d="M148.4,159.2h0.9v5c-0.1,0.6-0.3,1.1-0.7,1.5c-0.5,0.5-1.1,0.7-1.7,0.7s-1.2-0.2-1.7-0.7
						c-0.5-0.5-0.7-1-0.7-1.7v-4.8h0.9v4.8c0,0.4,0.1,0.8,0.4,1.1c0.3,0.3,0.6,0.4,1.1,0.4c0.4,0,0.8-0.1,1.1-0.4s0.4-0.6,0.4-1.1
						L148.4,159.2L148.4,159.2z"/>
					<path class="st4" d="M150.6,159.2h0.8l3,5.1v-5.1h0.9v7.2h-0.8l-3-5.2v5.2h-0.9L150.6,159.2L150.6,159.2z"/>
					<path class="st4" d="M162.8,160.2c0.7,0.7,1.1,1.6,1.1,2.6c0,1-0.4,1.9-1.1,2.6s-1.6,1.1-2.6,1.1s-1.9-0.4-2.6-1.1
						s-1.1-1.6-1.1-2.6c0-1,0.4-1.9,1.1-2.6s1.6-1.1,2.6-1.1C161.3,159.1,162.1,159.5,162.8,160.2z M160.3,160.1
						c-0.8,0-1.4,0.3-1.9,0.8c-0.5,0.5-0.8,1.2-0.8,1.9s0.3,1.4,0.8,1.9c0.5,0.5,1.2,0.8,1.9,0.8c0.8,0,1.4-0.3,1.9-0.8
						s0.8-1.2,0.8-1.9s-0.3-1.4-0.8-1.9C161.6,160.3,161,160.1,160.3,160.1z"/>
				</g>
			</g>
		</g>
		<g>
			<g>
				<g class="st2">
					<path class="st3" d="M189,263.6v3.9c0,0.9,0,1.5-0.1,1.9c-0.1,0.4-0.3,0.8-0.6,1.1c-0.3,0.4-0.7,0.6-1.1,0.8
						c-0.4,0.2-0.9,0.2-1.4,0.2c-0.7,0-1.3-0.1-1.7-0.2c-0.5-0.2-0.8-0.4-1.1-0.7s-0.5-0.7-0.6-1.1c-0.1-0.4-0.2-1-0.2-1.8v-4
						c0-1.1,0.1-1.9,0.3-2.4c0.2-0.5,0.5-1,1.1-1.3c0.5-0.3,1.2-0.5,2-0.5c0.6,0,1.2,0.1,1.7,0.3c0.5,0.2,0.9,0.5,1.1,0.8
						c0.2,0.3,0.4,0.7,0.5,1.1C189,262.1,189,262.8,189,263.6z M186.1,262.7c0-0.6,0-1-0.1-1.2c-0.1-0.2-0.2-0.2-0.4-0.2
						c-0.2,0-0.4,0.1-0.4,0.2c-0.1,0.2-0.1,0.5-0.1,1.1v5.7c0,0.7,0,1.1,0.1,1.2c0.1,0.1,0.2,0.2,0.4,0.2s0.4-0.1,0.4-0.2
						c0.1-0.2,0.1-0.5,0.1-1.1V262.7z"/>
					<path class="st3" d="M194.8,261.7v2c0,0.5,0,0.9-0.1,1.2c-0.1,0.3-0.3,0.5-0.6,0.7c-0.3,0.2-0.7,0.3-1.3,0.3
						c-0.6,0-1.1-0.1-1.4-0.3c-0.3-0.2-0.5-0.4-0.6-0.7c-0.1-0.3-0.2-0.6-0.2-1.1v-2.1c0-0.6,0.1-1,0.2-1.3s0.3-0.5,0.7-0.7
						c0.3-0.2,0.7-0.3,1.2-0.3c0.5,0,1,0.1,1.3,0.3c0.3,0.2,0.6,0.4,0.7,0.7C194.7,260.7,194.8,261.1,194.8,261.7z M193,261.2
						c0-0.3,0-0.5,0-0.6c0-0.1-0.1-0.1-0.3-0.1c-0.1,0-0.2,0-0.2,0.1s-0.1,0.3-0.1,0.6v2.9c0,0.3,0,0.5,0.1,0.6
						c0,0.1,0.1,0.1,0.3,0.1c0.1,0,0.2,0,0.2-0.1c0-0.1,0.1-0.3,0.1-0.5L193,261.2L193,261.2L193,261.2z M198.2,259.5l-4.5,12h-1.1
						l4.5-12H198.2z M200.2,267.3v2c0,0.5,0,0.9-0.1,1.2s-0.3,0.5-0.6,0.7c-0.3,0.2-0.7,0.3-1.3,0.3c-0.6,0-1.1-0.1-1.4-0.3
						c-0.3-0.2-0.5-0.4-0.7-0.7c-0.1-0.3-0.2-0.6-0.2-1.1v-2.1c0-0.6,0.1-1,0.2-1.3c0.1-0.3,0.3-0.5,0.7-0.7
						c0.3-0.2,0.7-0.3,1.2-0.3c0.5,0,1,0.1,1.3,0.3s0.6,0.4,0.7,0.7C200.1,266.3,200.2,266.7,200.2,267.3z M198.3,266.8
						c0-0.3,0-0.5,0-0.6c0-0.1-0.1-0.1-0.3-0.1c-0.1,0-0.2,0-0.2,0.1s-0.1,0.3-0.1,0.6v2.9c0,0.3,0,0.5,0.1,0.6
						c0,0.1,0.1,0.1,0.3,0.1c0.1,0,0.2,0,0.2-0.1c0-0.1,0.1-0.3,0.1-0.5V266.8z"/>
				</g>
			</g>
		</g>
		<g>
			<g>
				<g class="st2">
					<path class="st4" d="M146.6,279.9v2.3h-0.9v-7.2h2c0.6,0.1,1.1,0.3,1.5,0.7c0.5,0.5,0.7,1,0.7,1.7c0,0.7-0.2,1.2-0.7,1.7
						c-0.5,0.5-1,0.7-1.7,0.7L146.6,279.9L146.6,279.9z M146.6,276v3h0.8c0.4,0,0.8-0.1,1.1-0.4c0.3-0.3,0.4-0.6,0.4-1.1
						c0-0.4-0.1-0.8-0.4-1.1c-0.3-0.3-0.6-0.4-1.1-0.4L146.6,276L146.6,276z"/>
					<path class="st4" d="M156.9,276c0.7,0.7,1.1,1.6,1.1,2.6c0,1-0.4,1.9-1.1,2.6c-0.7,0.7-1.6,1.1-2.6,1.1s-1.9-0.4-2.6-1.1
						c-0.7-0.7-1.1-1.6-1.1-2.6c0-1,0.4-1.9,1.1-2.6s1.6-1.1,2.6-1.1C155.4,275,156.2,275.3,156.9,276z M154.4,275.9
						c-0.8,0-1.4,0.3-1.9,0.8c-0.5,0.5-0.8,1.2-0.8,1.9c0,0.8,0.3,1.4,0.8,1.9c0.5,0.5,1.2,0.8,1.9,0.8c0.8,0,1.4-0.3,1.9-0.8
						c0.5-0.5,0.8-1.2,0.8-1.9c0-0.8-0.3-1.4-0.8-1.9S155.1,275.9,154.4,275.9z"/>
					<path class="st4" d="M161.1,278.5c-0.5-0.2-0.9-0.4-1.2-0.7c-0.3-0.3-0.5-0.7-0.5-1.2c0-0.5,0.2-0.8,0.5-1.2
						c0.3-0.3,0.7-0.5,1.2-0.5c0.5,0,0.9,0.2,1.2,0.5c0.2,0.2,0.3,0.5,0.5,0.9l-0.8,0.3c-0.1-0.3-0.2-0.5-0.3-0.5
						c-0.1-0.1-0.3-0.2-0.5-0.2c-0.2,0-0.4,0.1-0.5,0.2s-0.2,0.3-0.2,0.5s0.1,0.4,0.2,0.5c0.2,0.2,0.4,0.3,0.7,0.4
						c0.6,0.2,1,0.5,1.4,0.9c0.4,0.4,0.7,1,0.7,1.6c0,0.6-0.2,1.1-0.7,1.6c-0.4,0.4-1,0.7-1.6,0.7c-0.6,0-1.1-0.2-1.6-0.7
						c-0.3-0.3-0.6-0.8-0.7-1.4l0.9-0.3c0.1,0.5,0.2,0.9,0.4,1.1c0.3,0.3,0.6,0.4,0.9,0.4s0.7-0.1,0.9-0.4c0.3-0.3,0.4-0.6,0.4-0.9
						c0-0.4-0.1-0.7-0.4-0.9C161.7,278.9,161.4,278.7,161.1,278.5z"/>
					<path class="st4" d="M166.3,276v6.2h-0.9V276h-1.7v-0.9h4.3v0.9H166.3z"/>
					<path class="st4" d="M175,281.2c-0.7,0.7-1.6,1.1-2.5,1.1c-1,0-1.9-0.4-2.6-1.1s-1.1-1.6-1.1-2.6c0-1,0.4-1.9,1.1-2.6
						c0.7-0.7,1.6-1.1,2.6-1.1c0.9,0,1.8,0.4,2.7,1.2l-0.7,0.6c-0.6-0.6-1.3-0.9-2-0.9c-0.7,0-1.4,0.3-1.9,0.8
						c-0.5,0.5-0.8,1.2-0.8,1.9c0,0.8,0.3,1.4,0.8,1.9c0.5,0.5,1.2,0.8,1.9,0.8c0.6,0,1.2-0.2,1.6-0.5v-2.2h0.9V281.2z"/>
					<path class="st4" d="M178.1,279.9h-0.8v2.3h-0.9v-7.2h2c0.6,0.1,1.1,0.3,1.5,0.7c0.5,0.5,0.7,1,0.7,1.7c0,0.7-0.2,1.2-0.7,1.7
						c-0.3,0.3-0.6,0.5-0.8,0.6l1.6,2.4h-1.1L178.1,279.9z M177.3,276v3h0.8c0.4,0,0.8-0.1,1.1-0.4c0.3-0.3,0.4-0.6,0.4-1.1
						c0-0.4-0.1-0.8-0.4-1.1c-0.3-0.3-0.6-0.4-1.1-0.4L177.3,276L177.3,276z"/>
					<path class="st4" d="M184.3,275.1l2.6,7.2h-1l-0.9-2.5h-1.9l-0.9,2.5h-1l2.6-7.2H184.3z M184.6,278.8l-0.6-1.7l-0.6,1.7H184.6z
						"/>
					<path class="st4" d="M188.4,275.1c1.2,0,2.1,0.3,2.7,1c0.7,0.7,1.1,1.6,1.1,2.6c0,1-0.4,1.9-1.1,2.6c-0.6,0.7-1.6,1-2.7,1h-0.7
						v-7.2L188.4,275.1L188.4,275.1z M188.7,276v5.3c0.7,0,1.3-0.2,1.8-0.7c0.5-0.5,0.8-1.2,0.8-1.9c0-0.8-0.3-1.4-0.8-1.9
						C190,276.2,189.4,276,188.7,276z"/>
					<path class="st4" d="M199.5,276c0.7,0.7,1.1,1.6,1.1,2.6c0,1-0.4,1.9-1.1,2.6c-0.7,0.7-1.6,1.1-2.6,1.1s-1.9-0.4-2.6-1.1
						c-0.7-0.7-1.1-1.6-1.1-2.6c0-1,0.4-1.9,1.1-2.6s1.6-1.1,2.6-1.1C197.9,275,198.8,275.3,199.5,276z M196.9,275.9
						c-0.8,0-1.4,0.3-1.9,0.8c-0.5,0.5-0.8,1.2-0.8,1.9c0,0.8,0.3,1.4,0.8,1.9c0.5,0.5,1.2,0.8,1.9,0.8c0.8,0,1.4-0.3,1.9-0.8
						c0.5-0.5,0.8-1.2,0.8-1.9c0-0.8-0.3-1.4-0.8-1.9S197.7,275.9,196.9,275.9z"/>
				</g>
			</g>
		</g>
		<g>
			<g>
				<g class="st2">
					<path class="st3" d="M215.8,293.3v2h-6.4l0-1.7c1.9-3.1,3-5,3.4-5.7c0.4-0.7,0.5-1.3,0.5-1.7c0-0.3-0.1-0.5-0.2-0.7
						c-0.1-0.2-0.3-0.2-0.5-0.2s-0.4,0.1-0.5,0.3c-0.1,0.2-0.2,0.5-0.2,1v1.1h-2.6v-0.4c0-0.6,0-1.2,0.1-1.5
						c0.1-0.4,0.2-0.7,0.5-1.1c0.3-0.4,0.6-0.6,1-0.8s0.9-0.3,1.5-0.3c1.1,0,2,0.3,2.6,0.9c0.6,0.6,0.9,1.3,0.9,2.2
						c0,0.7-0.2,1.4-0.5,2.1c-0.3,0.7-1.3,2.3-2.9,4.7L215.8,293.3L215.8,293.3z"/>
					<path class="st3" d="M221.6,285.7v2c0,0.5,0,0.9-0.1,1.2c-0.1,0.3-0.3,0.5-0.6,0.7c-0.3,0.2-0.7,0.3-1.3,0.3
						c-0.6,0-1.1-0.1-1.4-0.3c-0.3-0.2-0.5-0.4-0.6-0.7c-0.1-0.3-0.2-0.6-0.2-1.1v-2.1c0-0.6,0.1-1,0.2-1.3s0.3-0.5,0.7-0.7
						c0.3-0.2,0.7-0.3,1.2-0.3c0.5,0,1,0.1,1.3,0.3c0.3,0.2,0.6,0.4,0.7,0.7C221.6,284.7,221.6,285.1,221.6,285.7z M219.8,285.2
						c0-0.3,0-0.5,0-0.6c0-0.1-0.1-0.1-0.3-0.1c-0.1,0-0.2,0-0.2,0.1s-0.1,0.3-0.1,0.6v2.9c0,0.3,0,0.5,0.1,0.6
						c0,0.1,0.1,0.1,0.3,0.1c0.1,0,0.2,0,0.2-0.1c0-0.1,0.1-0.3,0.1-0.5L219.8,285.2L219.8,285.2L219.8,285.2z M225,283.5l-4.5,12
						h-1.1l4.5-12H225z M227,291.3v2c0,0.5,0,0.9-0.1,1.2s-0.3,0.5-0.6,0.7c-0.3,0.2-0.7,0.3-1.3,0.3c-0.6,0-1.1-0.1-1.4-0.3
						c-0.3-0.2-0.5-0.4-0.7-0.7c-0.1-0.3-0.2-0.6-0.2-1.1v-2.1c0-0.6,0.1-1,0.2-1.3c0.1-0.3,0.3-0.5,0.7-0.7
						c0.3-0.2,0.7-0.3,1.2-0.3c0.5,0,1,0.1,1.3,0.3s0.6,0.4,0.7,0.7C227,290.3,227,290.7,227,291.3z M225.2,290.8c0-0.3,0-0.5,0-0.6
						c0-0.1-0.1-0.1-0.3-0.1c-0.1,0-0.2,0-0.2,0.1s-0.1,0.3-0.1,0.6v2.9c0,0.3,0,0.5,0.1,0.6c0,0.1,0.1,0.1,0.3,0.1
						c0.1,0,0.2,0,0.2-0.1c0-0.1,0.1-0.3,0.1-0.5V290.8z"/>
				</g>
			</g>
		</g>
		<g>
			<g>
				<g class="st2">
					<path class="st4" d="M167.3,299.1h0.9v5c-0.1,0.6-0.3,1.1-0.7,1.5c-0.5,0.5-1.1,0.7-1.7,0.7s-1.2-0.2-1.7-0.7
						c-0.5-0.5-0.7-1-0.7-1.7v-4.8h0.9v4.8c0,0.4,0.1,0.8,0.4,1.1c0.3,0.3,0.6,0.4,1.1,0.4c0.4,0,0.8-0.1,1.1-0.4s0.4-0.6,0.4-1.1
						L167.3,299.1L167.3,299.1z"/>
					<path class="st4" d="M169.6,299.1h0.8l3,5.1v-5.1h0.9v7.2h-0.8l-3-5.2v5.2h-0.9L169.6,299.1L169.6,299.1z"/>
					<path class="st4" d="M176.7,299.1v7.2h-0.9v-7.2H176.7z"/>
					<path class="st4" d="M180.3,306.2l-2.6-7.2h1l1.9,5.1l1.9-5.1h1l-2.6,7.2H180.3z"/>
					<path class="st4" d="M188.1,299.1v0.9h-2.9v2.2h2.9v0.9h-2.9v2.2h2.9v0.9h-3.9v-7.2L188.1,299.1L188.1,299.1z"/>
					<path class="st4" d="M191.1,303.9h-0.8v2.3h-0.9v-7.2h2c0.6,0.1,1.1,0.3,1.5,0.7c0.5,0.5,0.7,1,0.7,1.7c0,0.7-0.2,1.2-0.7,1.7
						c-0.3,0.3-0.6,0.5-0.8,0.6l1.6,2.4h-1.1L191.1,303.9z M190.3,300v3h0.8c0.4,0,0.8-0.1,1.1-0.4c0.3-0.3,0.4-0.6,0.4-1.1
						c0-0.4-0.1-0.8-0.4-1.1c-0.3-0.3-0.6-0.4-1.1-0.4L190.3,300L190.3,300z"/>
					<path class="st4" d="M196.4,302.5c-0.5-0.2-0.9-0.4-1.2-0.7c-0.3-0.3-0.5-0.7-0.5-1.2c0-0.5,0.2-0.8,0.5-1.2
						c0.3-0.3,0.7-0.5,1.2-0.5c0.5,0,0.9,0.2,1.2,0.5c0.2,0.2,0.3,0.5,0.5,0.9l-0.8,0.3c-0.1-0.3-0.2-0.5-0.3-0.5
						c-0.1-0.1-0.3-0.2-0.5-0.2c-0.2,0-0.4,0.1-0.5,0.2s-0.2,0.3-0.2,0.5s0.1,0.4,0.2,0.5c0.2,0.2,0.4,0.3,0.7,0.4
						c0.6,0.2,1,0.5,1.4,0.9c0.4,0.4,0.7,1,0.7,1.6c0,0.6-0.2,1.1-0.7,1.6c-0.4,0.4-1,0.7-1.6,0.7c-0.6,0-1.1-0.2-1.6-0.7
						c-0.3-0.3-0.6-0.8-0.7-1.4l0.9-0.3c0.1,0.5,0.2,0.9,0.4,1.1c0.3,0.3,0.6,0.4,0.9,0.4s0.7-0.1,0.9-0.4c0.3-0.3,0.4-0.6,0.4-0.9
						c0-0.4-0.1-0.7-0.4-0.9C197.1,302.9,196.8,302.7,196.4,302.5z"/>
					<path class="st4" d="M200.5,299.1v7.2h-0.9v-7.2H200.5z"/>
					<path class="st4" d="M204.1,300v6.2h-0.9V300h-1.7v-0.9h4.3v0.9H204.1z"/>
					<path class="st4" d="M209,299.1l2.6,7.2h-1l-0.9-2.5h-1.9l-0.9,2.5h-1l2.6-7.2H209z M209.4,302.8l-0.6-1.7l-0.6,1.7H209.4z"/>
					<path class="st4" d="M214.3,303.9h-0.8v2.3h-0.9v-7.2h2c0.6,0.1,1.1,0.3,1.5,0.7c0.5,0.5,0.7,1,0.7,1.7c0,0.7-0.2,1.2-0.7,1.7
						c-0.3,0.3-0.6,0.5-0.8,0.6l1.6,2.4h-1.1L214.3,303.9z M213.4,300v3h0.8c0.4,0,0.8-0.1,1.1-0.4c0.3-0.3,0.4-0.6,0.4-1.1
						c0-0.4-0.1-0.8-0.4-1.1c-0.3-0.3-0.6-0.4-1.1-0.4L213.4,300L213.4,300z"/>
					<path class="st4" d="M218.8,299.1v7.2h-0.9v-7.2H218.8z"/>
					<path class="st4" d="M226.3,300c0.7,0.7,1.1,1.6,1.1,2.6c0,1-0.4,1.9-1.1,2.6c-0.7,0.7-1.6,1.1-2.6,1.1s-1.9-0.4-2.6-1.1
						c-0.7-0.7-1.1-1.6-1.1-2.6c0-1,0.4-1.9,1.1-2.6s1.6-1.1,2.6-1.1C224.8,299,225.6,299.3,226.3,300z M223.8,299.9
						c-0.8,0-1.4,0.3-1.9,0.8c-0.5,0.5-0.8,1.2-0.8,1.9c0,0.8,0.3,1.4,0.8,1.9c0.5,0.5,1.2,0.8,1.9,0.8c0.8,0,1.4-0.3,1.9-0.8
						c0.5-0.5,0.8-1.2,0.8-1.9c0-0.8-0.3-1.4-0.8-1.9S224.5,299.9,223.8,299.9z"/>
				</g>
			</g>
		</g>
		<g>
			<g>
				<g class="st2">
					<path class="st3" d="M247.3,304.2v2h-6.4l0-1.7c1.9-3.1,3-5,3.4-5.7c0.4-0.7,0.5-1.3,0.5-1.7c0-0.3-0.1-0.5-0.2-0.7
						s-0.3-0.2-0.5-0.2s-0.4,0.1-0.5,0.3c-0.1,0.2-0.2,0.5-0.2,1v1.1h-2.6v-0.4c0-0.6,0-1.2,0.1-1.5c0.1-0.4,0.2-0.7,0.5-1.1
						c0.3-0.4,0.6-0.6,1-0.8s0.9-0.3,1.5-0.3c1.1,0,2,0.3,2.6,0.9c0.6,0.6,0.9,1.3,0.9,2.2c0,0.7-0.2,1.4-0.5,2.1
						c-0.3,0.7-1.3,2.3-2.9,4.7L247.3,304.2L247.3,304.2z"/>
					<path class="st3" d="M253.1,296.6v2c0,0.5,0,0.9-0.1,1.2c-0.1,0.3-0.3,0.5-0.6,0.7c-0.3,0.2-0.7,0.3-1.3,0.3
						c-0.6,0-1.1-0.1-1.4-0.3c-0.3-0.2-0.5-0.4-0.6-0.7c-0.1-0.3-0.2-0.6-0.2-1.1v-2.1c0-0.6,0.1-1,0.2-1.3c0.1-0.3,0.3-0.5,0.7-0.7
						s0.7-0.3,1.2-0.3c0.5,0,1,0.1,1.3,0.3c0.3,0.2,0.6,0.4,0.7,0.7C253.1,295.6,253.1,296.1,253.1,296.6z M251.3,296.1
						c0-0.3,0-0.5,0-0.6c0-0.1-0.1-0.1-0.3-0.1c-0.1,0-0.2,0-0.2,0.1s-0.1,0.3-0.1,0.6v2.9c0,0.3,0,0.5,0.1,0.6
						c0,0.1,0.1,0.1,0.3,0.1c0.1,0,0.2,0,0.2-0.1c0-0.1,0.1-0.3,0.1-0.5L251.3,296.1L251.3,296.1L251.3,296.1z M256.5,294.4l-4.5,12
						h-1.1l4.5-12H256.5z M258.5,302.2v2c0,0.5,0,0.9-0.1,1.2c-0.1,0.3-0.3,0.5-0.6,0.7c-0.3,0.2-0.7,0.3-1.3,0.3
						c-0.6,0-1.1-0.1-1.4-0.3c-0.3-0.2-0.5-0.4-0.7-0.7c-0.1-0.3-0.2-0.6-0.2-1.1v-2.1c0-0.6,0.1-1,0.2-1.3c0.1-0.3,0.3-0.5,0.7-0.7
						c0.3-0.2,0.7-0.3,1.2-0.3c0.5,0,1,0.1,1.3,0.3c0.3,0.2,0.6,0.4,0.7,0.7S258.5,301.7,258.5,302.2z M256.7,301.7
						c0-0.3,0-0.5,0-0.6c0-0.1-0.1-0.1-0.3-0.1c-0.1,0-0.2,0-0.2,0.1s-0.1,0.3-0.1,0.6v2.9c0,0.3,0,0.5,0,0.6c0,0.1,0.1,0.1,0.3,0.1
						c0.1,0,0.2,0,0.2-0.1c0-0.1,0-0.3,0-0.5V301.7z"/>
				</g>
			</g>
		</g>
		<g>
			<g>
				<g class="st2">
					<path class="st4" d="M243.4,310.9v6.2h-0.9v-6.2h-1.7V310h4.3v0.9H243.4z"/>
					<path class="st4" d="M249.8,310v0.9h-2.9v2.2h2.9v0.9h-2.9v2.2h2.9v0.9h-3.9V310L249.8,310L249.8,310z M248.1,308.3h1.1
						l-1.2,1.2h-0.9L248.1,308.3z"/>
					<path class="st4" d="M256.6,315.4l0.7,0.6c-0.8,0.8-1.7,1.2-2.7,1.2c-1,0-1.9-0.4-2.6-1.1s-1.1-1.6-1.1-2.6
						c0-1,0.4-1.9,1.1-2.6s1.6-1.1,2.6-1.1c0.9,0,1.8,0.4,2.7,1.2l-0.7,0.6c-0.6-0.6-1.3-0.9-2-0.9c-0.7,0-1.4,0.3-1.9,0.8
						c-0.5,0.5-0.8,1.2-0.8,1.9c0,0.8,0.3,1.4,0.8,1.9c0.5,0.5,1.2,0.8,1.9,0.8C255.2,316.3,255.9,316,256.6,315.4z"/>
					<path class="st4" d="M258.4,310h0.8l3,5.1V310h0.9v7.2h-0.8l-3-5.2v5.2h-0.9L258.4,310L258.4,310z"/>
					<path class="st4" d="M265.4,310v7.2h-0.9V310H265.4z"/>
					<path class="st4" d="M272.4,315.4l0.7,0.6c-0.8,0.8-1.7,1.2-2.7,1.2c-1,0-1.9-0.4-2.6-1.1s-1.1-1.6-1.1-2.6
						c0-1,0.4-1.9,1.1-2.6s1.6-1.1,2.6-1.1c0.9,0,1.8,0.4,2.7,1.2l-0.7,0.6c-0.6-0.6-1.3-0.9-2-0.9c-0.7,0-1.4,0.3-1.9,0.8
						c-0.5,0.5-0.8,1.2-0.8,1.9c0,0.8,0.3,1.4,0.8,1.9c0.5,0.5,1.2,0.8,1.9,0.8C271.1,316.3,271.8,316,272.4,315.4z"/>
					<path class="st4" d="M280.4,311c0.7,0.7,1.1,1.6,1.1,2.6c0,1-0.4,1.9-1.1,2.6s-1.6,1.1-2.6,1.1c-1,0-1.9-0.4-2.6-1.1
						s-1.1-1.6-1.1-2.6c0-1,0.4-1.9,1.1-2.6s1.6-1.1,2.6-1.1C278.8,309.9,279.7,310.2,280.4,311z M277.8,310.8
						c-0.8,0-1.4,0.3-1.9,0.8c-0.5,0.5-0.8,1.2-0.8,1.9s0.3,1.4,0.8,1.9s1.2,0.8,1.9,0.8c0.8,0,1.4-0.3,1.9-0.8
						c0.5-0.5,0.8-1.2,0.8-1.9s-0.3-1.4-0.8-1.9C279.2,311.1,278.5,310.8,277.8,310.8z"/>
					<path class="st4" d="M292,311c0.7,0.7,1.1,1.6,1.1,2.6c0,1-0.4,1.9-1.1,2.6s-1.6,1.1-2.6,1.1c-1,0-1.9-0.4-2.6-1.1
						s-1.1-1.6-1.1-2.6c0-1,0.4-1.9,1.1-2.6s1.6-1.1,2.6-1.1C290.4,309.9,291.3,310.2,292,311z M289.4,310.8c-0.8,0-1.4,0.3-1.9,0.8
						c-0.5,0.5-0.8,1.2-0.8,1.9s0.3,1.4,0.8,1.9c0.5,0.5,1.2,0.8,1.9,0.8c0.8,0,1.4-0.3,1.9-0.8c0.5-0.5,0.8-1.2,0.8-1.9
						s-0.3-1.4-0.8-1.9C290.8,311.1,290.2,310.8,289.4,310.8z"/>
					<path class="st4" d="M243.4,321.9v6.2h-0.9v-6.2h-1.7V321h4.3v0.9H243.4z"/>
					<path class="st4" d="M249.8,321v0.9h-2.9v2.2h2.9v0.9h-2.9v2.2h2.9v0.9h-3.9V321L249.8,321L249.8,321z"/>
					<path class="st4" d="M256.6,326.4l0.7,0.6c-0.8,0.8-1.7,1.2-2.7,1.2c-1,0-1.9-0.4-2.6-1.1s-1.1-1.6-1.1-2.6
						c0-1,0.4-1.9,1.1-2.6s1.6-1.1,2.6-1.1c0.9,0,1.8,0.4,2.7,1.2l-0.7,0.6c-0.6-0.6-1.3-0.9-2-0.9c-0.7,0-1.4,0.3-1.9,0.8
						c-0.5,0.5-0.8,1.2-0.8,1.9c0,0.8,0.3,1.4,0.8,1.9c0.5,0.5,1.2,0.8,1.9,0.8C255.2,327.3,255.9,327,256.6,326.4z"/>
					<path class="st4" d="M258.4,321h0.8l3,5.1V321h0.9v7.2h-0.8l-3-5.2v5.2h-0.9L258.4,321L258.4,321z"/>
					<path class="st4" d="M270.6,321.9c0.7,0.7,1.1,1.6,1.1,2.6c0,1-0.4,1.9-1.1,2.6s-1.6,1.1-2.6,1.1c-1,0-1.9-0.4-2.6-1.1
						s-1.1-1.6-1.1-2.6c0-1,0.4-1.9,1.1-2.6s1.6-1.1,2.6-1.1C269,320.9,269.9,321.2,270.6,321.9z M268,321.8c-0.8,0-1.4,0.3-1.9,0.8
						c-0.5,0.5-0.8,1.2-0.8,1.9s0.3,1.4,0.8,1.9c0.5,0.5,1.2,0.8,1.9,0.8c0.8,0,1.4-0.3,1.9-0.8c0.5-0.5,0.8-1.2,0.8-1.9
						s-0.3-1.4-0.8-1.9C269.4,322.1,268.7,321.8,268,321.8z M268.3,319.3h1.1l-1.2,1.2h-0.9L268.3,319.3z"/>
					<path class="st4" d="M272.9,328.1V321h0.9v6.2h2.6v0.9L272.9,328.1L272.9,328.1z"/>
					<path class="st4" d="M283.3,321.9c0.7,0.7,1.1,1.6,1.1,2.6c0,1-0.4,1.9-1.1,2.6s-1.6,1.1-2.6,1.1c-1,0-1.9-0.4-2.6-1.1
						s-1.1-1.6-1.1-2.6c0-1,0.4-1.9,1.1-2.6s1.6-1.1,2.6-1.1C281.7,320.9,282.5,321.2,283.3,321.9z M280.7,321.8
						c-0.8,0-1.4,0.3-1.9,0.8c-0.5,0.5-0.8,1.2-0.8,1.9s0.3,1.4,0.8,1.9c0.5,0.5,1.2,0.8,1.9,0.8c0.8,0,1.4-0.3,1.9-0.8
						c0.5-0.5,0.8-1.2,0.8-1.9s-0.3-1.4-0.8-1.9C282.1,322.1,281.4,321.8,280.7,321.8z"/>
					<path class="st4" d="M291.6,327.1c-0.7,0.7-1.6,1.1-2.5,1.1c-1,0-1.9-0.4-2.6-1.1s-1.1-1.6-1.1-2.6c0-1,0.4-1.9,1.1-2.6
						s1.6-1.1,2.6-1.1c0.9,0,1.8,0.4,2.7,1.2l-0.7,0.6c-0.6-0.6-1.3-0.9-2-0.9c-0.7,0-1.4,0.3-1.9,0.8c-0.5,0.5-0.8,1.2-0.8,1.9
						c0,0.8,0.3,1.4,0.8,1.9c0.5,0.5,1.2,0.8,1.9,0.8c0.6,0,1.2-0.2,1.6-0.5v-2.2h0.9L291.6,327.1L291.6,327.1z"/>
					<path class="st4" d="M299.2,321.9c0.7,0.7,1.1,1.6,1.1,2.6c0,1-0.4,1.9-1.1,2.6s-1.6,1.1-2.6,1.1c-1,0-1.9-0.4-2.6-1.1
						s-1.1-1.6-1.1-2.6c0-1,0.4-1.9,1.1-2.6s1.6-1.1,2.6-1.1C297.6,320.9,298.5,321.2,299.2,321.9z M296.6,321.8
						c-0.8,0-1.4,0.3-1.9,0.8c-0.5,0.5-0.8,1.2-0.8,1.9s0.3,1.4,0.8,1.9c0.5,0.5,1.2,0.8,1.9,0.8c0.8,0,1.4-0.3,1.9-0.8
						c0.5-0.5,0.8-1.2,0.8-1.9s-0.3-1.4-0.8-1.9C298,322.1,297.3,321.8,296.6,321.8z"/>
				</g>
			</g>
		</g>
		<g>
			<g>
				<g class="st2">
					<path class="st3" d="M333.4,294.6v11.6h-2.9V300c0-0.9,0-1.4-0.1-1.6s-0.2-0.3-0.4-0.4c-0.2-0.1-0.6-0.1-1.3-0.1h-0.3v-1.4
						c1.4-0.3,2.5-0.9,3.2-1.9L333.4,294.6L333.4,294.6z"/>
					<path class="st3" d="M335.2,303.1h2.9c0,0.5,0,0.9,0,1s0.1,0.3,0.2,0.4c0.1,0.1,0.2,0.1,0.4,0.1c0.1,0,0.3,0,0.4-0.1
						c0.1-0.1,0.1-0.2,0.2-0.4c0-0.1,0-0.4,0-0.9v-1.8c-0.1,0.3-0.4,0.5-0.6,0.7c-0.3,0.2-0.6,0.2-1.1,0.2c-0.5,0-1-0.1-1.4-0.4
						c-0.4-0.3-0.7-0.6-0.8-1c-0.1-0.4-0.2-0.9-0.2-1.6v-0.9c0-0.8,0-1.4,0.1-1.8s0.2-0.8,0.5-1.1c0.3-0.3,0.6-0.6,1.1-0.8
						c0.5-0.2,1-0.3,1.6-0.3c0.8,0,1.4,0.1,1.9,0.3s0.9,0.5,1.2,0.9s0.4,0.8,0.5,1.3c0,0.4,0.1,1.3,0.1,2.6v1.6c0,1.4,0,2.3-0.1,2.8
						c0,0.5-0.2,0.9-0.5,1.3s-0.7,0.7-1.2,0.9c-0.5,0.2-1.1,0.3-1.7,0.3c-0.8,0-1.5-0.1-2-0.4c-0.5-0.3-0.9-0.6-1.1-1.1
						C335.4,304.5,335.2,303.9,335.2,303.1z M338.1,299.5c0,0.5,0.1,0.8,0.2,0.9c0.1,0.1,0.3,0.2,0.4,0.2c0.2,0,0.3-0.1,0.4-0.2
						c0.1-0.1,0.1-0.4,0.1-0.9v-2.1c0-0.5,0-0.8-0.1-1c-0.1-0.2-0.2-0.2-0.4-0.2c-0.1,0-0.3,0.1-0.4,0.2c-0.1,0.1-0.2,0.4-0.2,1
						L338.1,299.5L338.1,299.5z"/>
					<path class="st3" d="M347.9,296.6v2c0,0.5,0,0.9-0.1,1.2c-0.1,0.3-0.3,0.5-0.6,0.7c-0.3,0.2-0.7,0.3-1.3,0.3
						c-0.6,0-1.1-0.1-1.4-0.3s-0.5-0.4-0.6-0.7c-0.1-0.3-0.2-0.6-0.2-1.1v-2.1c0-0.6,0.1-1,0.2-1.3c0.1-0.3,0.3-0.5,0.7-0.7
						s0.7-0.3,1.2-0.3c0.5,0,1,0.1,1.3,0.3c0.3,0.2,0.6,0.4,0.7,0.7C347.8,295.6,347.9,296.1,347.9,296.6z M346.1,296.1
						c0-0.3,0-0.5,0-0.6c0-0.1-0.1-0.1-0.3-0.1c-0.1,0-0.2,0-0.2,0.1s-0.1,0.3-0.1,0.6v2.9c0,0.3,0,0.5,0,0.6c0,0.1,0.1,0.1,0.3,0.1
						c0.1,0,0.2,0,0.2-0.1c0-0.1,0.1-0.3,0.1-0.5L346.1,296.1L346.1,296.1L346.1,296.1z M351.3,294.4l-4.5,12h-1.1l4.5-12H351.3z
						 M353.3,302.2v2c0,0.5,0,0.9-0.1,1.2c-0.1,0.3-0.3,0.5-0.6,0.7c-0.3,0.2-0.7,0.3-1.3,0.3c-0.6,0-1.1-0.1-1.4-0.3
						c-0.3-0.2-0.5-0.4-0.7-0.7c-0.1-0.3-0.2-0.6-0.2-1.1v-2.1c0-0.6,0.1-1,0.2-1.3c0.1-0.3,0.3-0.5,0.7-0.7
						c0.3-0.2,0.7-0.3,1.2-0.3c0.5,0,1,0.1,1.3,0.3c0.3,0.2,0.6,0.4,0.7,0.7C353.2,301.2,353.3,301.7,353.3,302.2z M351.4,301.7
						c0-0.3,0-0.5,0-0.6c0-0.1-0.1-0.1-0.3-0.1c-0.1,0-0.2,0-0.2,0.1s-0.1,0.3-0.1,0.6v2.9c0,0.3,0,0.5,0,0.6c0,0.1,0.1,0.1,0.3,0.1
						c0.1,0,0.2,0,0.2-0.1c0-0.1,0-0.3,0-0.5V301.7z"/>
				</g>
			</g>
		</g>
		<g>
			<g>
				<g class="st2">
					<path class="st4" d="M330.6,310c0.4,0,0.8,0.1,1.1,0.4s0.4,0.6,0.4,1.1c0,0.4-0.2,0.7-0.6,0.8c0.3,0,0.7,0.3,1.1,0.7
						c0.4,0.4,0.6,0.9,0.6,1.6s-0.2,1.3-0.7,1.8c-0.5,0.5-0.9,0.7-1.4,0.7v0h-1.8V310L330.6,310L330.6,310z M330,310.9v1.1h0.6
						c0.1,0,0.3-0.1,0.4-0.2c0.1-0.1,0.2-0.2,0.2-0.4s-0.1-0.3-0.2-0.4c-0.1-0.1-0.3-0.2-0.4-0.2L330,310.9L330,310.9z M330,313v3.2
						h0.9v0c0.2,0,0.4-0.2,0.7-0.5c0.3-0.3,0.5-0.7,0.5-1.1c0-0.4-0.2-0.8-0.5-1.1c-0.3-0.3-0.7-0.5-1.1-0.5H330L330,313z"/>
					<path class="st4" d="M336.8,310l2.6,7.2h-1l-0.9-2.5h-1.9l-0.9,2.5h-1l2.6-7.2H336.8z M336.8,308.3h1.1l-1.2,1.2h-0.9
						L336.8,308.3z M337.2,313.7l-0.6-1.7l-0.6,1.7H337.2z"/>
					<path class="st4" d="M342.1,313.5c-0.5-0.2-0.9-0.4-1.2-0.7c-0.3-0.3-0.5-0.7-0.5-1.2c0-0.5,0.2-0.8,0.5-1.2
						c0.3-0.3,0.7-0.5,1.2-0.5c0.5,0,0.9,0.2,1.2,0.5c0.2,0.2,0.3,0.5,0.5,0.9l-0.8,0.3c-0.1-0.3-0.2-0.5-0.3-0.5
						c-0.1-0.1-0.3-0.2-0.5-0.2c-0.2,0-0.4,0.1-0.5,0.2s-0.2,0.3-0.2,0.5c0,0.2,0.1,0.4,0.2,0.5c0.2,0.2,0.4,0.3,0.7,0.4
						c0.6,0.2,1,0.5,1.4,0.9c0.4,0.4,0.7,1,0.7,1.6s-0.2,1.1-0.7,1.6c-0.4,0.4-1,0.7-1.6,0.7c-0.6,0-1.1-0.2-1.6-0.7
						c-0.3-0.3-0.6-0.8-0.7-1.4l0.9-0.3c0.1,0.5,0.2,0.9,0.4,1.1c0.3,0.3,0.6,0.4,0.9,0.4s0.7-0.1,0.9-0.4c0.3-0.3,0.4-0.6,0.4-0.9
						c0-0.4-0.1-0.7-0.4-0.9C342.8,313.8,342.5,313.6,342.1,313.5z"/>
					<path class="st4" d="M346.2,310v7.2h-0.9V310H346.2z"/>
					<path class="st4" d="M353.2,315.4l0.7,0.6c-0.8,0.8-1.7,1.2-2.7,1.2c-1,0-1.9-0.4-2.6-1.1s-1.1-1.6-1.1-2.6
						c0-1,0.4-1.9,1.1-2.6s1.6-1.1,2.6-1.1c0.9,0,1.8,0.4,2.7,1.2l-0.7,0.6c-0.6-0.6-1.3-0.9-2-0.9c-0.7,0-1.4,0.3-1.9,0.8
						c-0.5,0.5-0.8,1.2-0.8,1.9c0,0.8,0.3,1.4,0.8,1.9c0.5,0.5,1.2,0.8,1.9,0.8C351.9,316.3,352.6,316,353.2,315.4z"/>
					<path class="st4" d="M357.5,310l2.6,7.2h-1l-0.9-2.5h-1.9l-0.9,2.5h-1l2.6-7.2H357.5z M357.9,313.7l-0.6-1.7l-0.6,1.7H357.9z"
						/>
					<path class="st4" d="M330.9,324.5c-0.5-0.2-0.9-0.4-1.2-0.7c-0.3-0.3-0.5-0.7-0.5-1.2c0-0.5,0.2-0.8,0.5-1.2
						c0.3-0.3,0.7-0.5,1.2-0.5c0.5,0,0.9,0.2,1.2,0.5c0.2,0.2,0.3,0.5,0.5,0.9l-0.8,0.3c-0.1-0.3-0.2-0.5-0.3-0.5
						c-0.1-0.1-0.3-0.2-0.5-0.2c-0.2,0-0.4,0.1-0.5,0.2s-0.2,0.3-0.2,0.5c0,0.2,0.1,0.4,0.2,0.5c0.2,0.2,0.4,0.3,0.7,0.4
						c0.6,0.2,1,0.5,1.4,0.9c0.4,0.4,0.7,1,0.7,1.6s-0.2,1.1-0.7,1.6c-0.4,0.4-1,0.7-1.6,0.7c-0.6,0-1.1-0.2-1.6-0.7
						c-0.3-0.3-0.6-0.8-0.7-1.4l0.9-0.3c0.1,0.5,0.2,0.9,0.4,1.1c0.3,0.3,0.6,0.4,0.9,0.4s0.7-0.1,0.9-0.4c0.3-0.3,0.4-0.6,0.4-0.9
						c0-0.4-0.1-0.7-0.4-0.9C331.6,324.8,331.3,324.6,330.9,324.5z"/>
					<path class="st4" d="M337.9,321v0.9H335v2.2h2.9v0.9H335v2.2h2.9v0.9H334V321L337.9,321L337.9,321z"/>
					<path class="st4" d="M344.7,326.4l0.7,0.6c-0.8,0.8-1.7,1.2-2.7,1.2c-1,0-1.9-0.4-2.6-1.1s-1.1-1.6-1.1-2.6
						c0-1,0.4-1.9,1.1-2.6s1.6-1.1,2.6-1.1c0.9,0,1.8,0.4,2.7,1.2l-0.7,0.6c-0.6-0.6-1.3-0.9-2-0.9c-0.7,0-1.4,0.3-1.9,0.8
						c-0.5,0.5-0.8,1.2-0.8,1.9c0,0.8,0.3,1.4,0.8,1.9c0.5,0.5,1.2,0.8,1.9,0.8C343.4,327.3,344,327,344.7,326.4z"/>
					<path class="st4" d="M350.4,321h0.9v5c-0.1,0.6-0.3,1.1-0.7,1.5c-0.5,0.5-1.1,0.7-1.7,0.7s-1.2-0.2-1.7-0.7
						c-0.5-0.5-0.7-1-0.7-1.7V321h0.9v4.8c0,0.4,0.1,0.8,0.4,1.1c0.3,0.3,0.6,0.4,1.1,0.4c0.4,0,0.8-0.1,1.1-0.4s0.4-0.6,0.4-1.1
						L350.4,321L350.4,321z"/>
					<path class="st4" d="M352.7,321h0.8l3,5.1V321h0.9v7.2h-0.8l-3-5.2v5.2h-0.9L352.7,321L352.7,321z"/>
					<path class="st4" d="M359.4,321c1.2,0,2.1,0.3,2.7,1c0.7,0.7,1.1,1.6,1.1,2.6c0,1-0.4,1.9-1.1,2.6c-0.6,0.7-1.6,1-2.7,1h-0.7
						V321L359.4,321L359.4,321z M359.7,321.9v5.3c0.7,0,1.3-0.2,1.8-0.7c0.5-0.5,0.8-1.2,0.8-1.9c0-0.8-0.3-1.4-0.8-1.9
						C361,322.1,360.4,321.9,359.7,321.9z"/>
					<path class="st4" d="M366.8,321l2.6,7.2h-1l-0.9-2.5h-1.9l-0.9,2.5h-1l2.6-7.2H366.8z M367.1,324.7l-0.6-1.7l-0.6,1.7H367.1z"
						/>
					<path class="st4" d="M372,325.8h-0.8v2.3h-0.9V321h2c0.6,0.1,1.1,0.3,1.5,0.7c0.5,0.5,0.7,1,0.7,1.7c0,0.7-0.2,1.2-0.7,1.7
						c-0.3,0.3-0.6,0.5-0.8,0.6l1.6,2.4h-1.1L372,325.8z M371.2,321.9v3h0.8c0.4,0,0.8-0.1,1.1-0.4c0.3-0.3,0.4-0.6,0.4-1.1
						c0-0.4-0.1-0.8-0.4-1.1c-0.3-0.3-0.6-0.4-1.1-0.4L371.2,321.9L371.2,321.9z"/>
					<path class="st4" d="M376.5,321v7.2h-0.9V321H376.5z"/>
					<path class="st4" d="M380.6,321l2.6,7.2h-1l-0.9-2.5h-1.9l-0.9,2.5h-1l2.6-7.2H380.6z M381,324.7l-0.6-1.7l-0.6,1.7H381z"/>
				</g>
			</g>
		</g>
		<g>
			<path class="st5" d="M339,80.6c19.6,7.1,35.8,18.9,48,35.8c16.8,23.3,22.7,49.4,17.3,77.5c-3.7,19.4-12.3,36.6-26.4,50.8
				c-2.4,2.4-2.4,2.4-4.7,0c-10.3-10.8-20.6-21.5-31-32.3c-11.3-11.7-22.6-23.3-33.8-35c-1.3-1.4-2.4-3.3-2.8-5.1
				c-4.8-23-9.4-46-14.1-69c-1.6-7.8-3.2-15.6-4.9-23.4c-0.4-1.8,0-2.6,1.9-3c12-2.2,24.1-2.2,36.1,0.2
				C329.5,78.1,334.2,79.4,339,80.6z"/>
			<path class="st6" d="M185,147.9c6.4-19.7,18.4-35.3,34.8-47.7c4.1-3.1,8.7-5.6,13.1-8.2c2.8-1.6,2.9-1.5,4.3,1.4
				c7.9,16.2,15.8,32.5,23.7,48.7c5.8,12,11.6,24,17.5,35.9c0.9,1.9,0.8,3.2-0.5,4.8c-15.1,18.6-30.2,37.2-45.2,55.8
				c-4.8,5.9-9.6,11.8-14.2,17.7c-1.4,1.7-2.2,1.7-3.8,0.3c-14.3-12.2-24.4-27.2-30.2-45c-5.7-17.2-6.8-34.7-2.6-52.5
				C182.7,155.5,184,151.7,185,147.9z"/>
			<path class="st7" d="M371.9,261.9c-5.4,5.4-11.1,9.7-17.3,13.4c-11.5,6.9-23.8,11.5-37,13.5c-12,1.8-24,1.6-35.8-1.1
				c-6.2-1.4-12.1-3.8-18.2-5.6c-1.8-0.6-2.3-1.6-1.5-3.3c2.8-6.4,5.6-12.8,8.5-19.2c3.9-8.7,7.9-17.3,11.8-25.9
				c3.7-8.1,7.5-16.2,11.2-24.4c2.6-5.7,5.2-11.4,7.8-17.2c1-2.3,1.3-2.2,3.1-0.4c7,7.3,14,14.5,21,21.7
				c6.7,6.9,13.3,13.9,19.9,20.8c6.2,6.4,12.5,12.8,18.7,19.3C366.6,256.2,369.2,258.9,371.9,261.9z"/>
			<path class="st8" d="M290.4,172.2c-2.7-5.6-5.3-11.2-8-16.8c-11.3-23.2-22.6-46.4-33.9-69.6c-0.8-1.6-1.4-2.9,1-3.7
				c6.3-2.1,12.5-4.4,18.8-6.4c2.9-0.9,3.2-0.6,3.9,2.5c4.2,20.6,8.5,41.2,12.7,61.8c2.1,10.3,4.1,20.6,6.1,30.8
				c0.1,0.4,0.1,0.8,0.2,1.1C290.9,172.1,290.6,172.1,290.4,172.2z"/>
			<path class="st9" d="M288.6,194.6c-0.3,0.6-0.6,1.3-1,1.9c-16.2,26.2-32.4,52.4-48.5,78.6c-1.2,1.9-2.2,2.3-4,0.8
				c-1.9-1.6-4-3-6.1-4.3c-1.7-1.1-1.7-2.2-0.4-3.7c5.2-6.3,10.4-12.7,15.6-19.1c10-12.4,20-24.9,30-37.3
				c4.5-5.6,9.1-11.1,13.6-16.7c0.1-0.2,0.4-0.2,0.6-0.4C288.3,194.4,288.4,194.5,288.6,194.6z"/>
			<path class="st0" d="M291.1,196.8c-2.8,6.2-5.5,12.5-8.3,18.7c-3.9,8.5-7.8,17-11.7,25.5c-6.3,13.7-12.5,27.4-18.7,41.1
				c-0.8,1.7-1.8,2.1-3.4,1.3c-2.5-1.3-5-2.7-7.4-4c-1.6-0.9-0.8-1.8-0.2-2.8c6.7-10.9,13.5-21.8,20.2-32.7
				c9.4-15.2,18.8-30.5,28.2-45.7c0.3-0.5,0.7-1,1-1.5C290.9,196.7,291,196.7,291.1,196.8z"/>
		</g>
		<g>
			<g>
				<g class="st2">
					<path class="st3" d="M533.1,22.7v23.4h2.5v6.1h-2.5v6.3h-9v-6.3h-10.6v-6.1l7.7-23.4L533.1,22.7L533.1,22.7z M524.1,46.2V30.9
						l-4,15.3H524.1z"/>
					<path class="st3" d="M551.3,22.7v35.9h-9V39.4c0-2.8-0.1-4.4-0.2-5c-0.1-0.6-0.5-1-1.1-1.3c-0.6-0.3-1.9-0.4-4-0.4h-0.9v-4.2
						c4.3-0.9,7.6-2.8,9.9-5.7H551.3z"/>
					<path class="st3" d="M575.2,28.8V35c0,1.6-0.2,2.8-0.5,3.6c-0.3,0.8-1,1.5-2,2.1c-1,0.6-2.3,0.9-4,0.9c-1.9,0-3.3-0.3-4.3-0.9
						c-1-0.6-1.7-1.3-2-2c-0.3-0.8-0.5-1.9-0.5-3.4v-6.4c0-1.8,0.2-3.1,0.5-3.9s1.1-1.5,2.1-2.1c1-0.5,2.3-0.8,3.8-0.8
						c1.7,0,3.1,0.3,4.1,0.9c1,0.6,1.8,1.3,2.1,2.1C575,25.8,575.2,27.1,575.2,28.8z M569.5,27.3c0-0.9,0-1.5-0.1-1.8
						c-0.1-0.2-0.4-0.3-0.8-0.3c-0.4,0-0.7,0.1-0.8,0.4s-0.2,0.8-0.2,1.7v9c0,1,0.1,1.7,0.2,1.9c0.1,0.2,0.4,0.3,0.8,0.3
						c0.4,0,0.6-0.1,0.7-0.4s0.2-0.8,0.2-1.7L569.5,27.3L569.5,27.3z M585.6,22l-14,37.3h-3.4L582.2,22H585.6z M591.8,46.2v6.2
						c0,1.6-0.2,2.8-0.5,3.6c-0.3,0.8-1,1.5-2,2.1s-2.3,0.9-4,0.9c-1.9,0-3.3-0.3-4.3-0.9s-1.7-1.3-2-2.1c-0.3-0.8-0.5-1.9-0.5-3.4
						v-6.5c0-1.8,0.2-3.1,0.5-3.9c0.4-0.8,1.1-1.5,2.1-2.1c1-0.5,2.3-0.8,3.8-0.8c1.7,0,3.1,0.3,4.1,0.9c1,0.6,1.7,1.3,2.1,2.1
						S591.8,44.5,591.8,46.2z M586.1,44.6c0-0.9,0-1.5-0.1-1.8c-0.1-0.2-0.4-0.3-0.8-0.3c-0.4,0-0.7,0.1-0.8,0.4s-0.2,0.8-0.2,1.8v9
						c0,1,0.1,1.6,0.2,1.8c0.1,0.2,0.4,0.3,0.8,0.3c0.4,0,0.6-0.1,0.8-0.3c0.1-0.2,0.2-0.8,0.2-1.7L586.1,44.6L586.1,44.6z"/>
				</g>
			</g>
		</g>
		<g>
			<g>
				<polyline class="st10" points="363.3,123.5 452.1,123.5 452.2,78.8 498.6,78.8 				"/>
				<g>
					<circle class="st3" cx="363.7" cy="123.5" r="7.5"/>
				</g>
			</g>
		</g>
		<g>
			<g>
				<path class="st4" d="M513.1,73.5c0.7,0,1.4,0.3,1.9,0.8c0.5,0.5,0.8,1.2,0.8,1.9c0,0.8-0.4,1.2-1.2,1.4c0.6,0.1,1.2,0.5,1.9,1.2
					c0.7,0.7,1.1,1.7,1.1,3c0,1.3-0.4,2.4-1.3,3.3c-0.8,0.9-1.7,1.3-2.5,1.3v0h-3.3V73.5H513.1z M512.1,75.1v2h1.1
					c0.2,0,0.5-0.1,0.6-0.3c0.2-0.2,0.3-0.4,0.3-0.7s-0.1-0.5-0.3-0.7s-0.5-0.3-0.8-0.3H512.1z M512.1,78.9v5.8h1.6v0
					c0.3,0,0.8-0.3,1.3-0.8c0.6-0.6,0.8-1.3,0.8-2.1c0-0.8-0.3-1.5-0.8-2c-0.6-0.6-1.2-0.8-2-0.8L512.1,78.9L512.1,78.9z"/>
				<path class="st4" d="M524.3,73.5l4.7,12.9h-1.8l-1.7-4.6h-3.4l-1.7,4.6h-1.8l4.7-12.9H524.3z M524.4,70.4h2l-2.2,2.2h-1.6
					L524.4,70.4z M525,80.1l-1.1-3l-1.1,3C522.8,80.1,525,80.1,525,80.1z"/>
				<path class="st4" d="M533.9,79.8c-0.9-0.3-1.7-0.7-2.2-1.3c-0.6-0.6-0.8-1.3-0.8-2.1c0-0.8,0.3-1.5,0.9-2.1
					c0.6-0.6,1.3-0.9,2.1-0.9c0.8,0,1.5,0.3,2.1,0.9c0.3,0.3,0.6,0.8,0.8,1.5l-1.5,0.6c-0.2-0.5-0.3-0.8-0.5-1
					c-0.3-0.3-0.6-0.4-1-0.4c-0.4,0-0.7,0.1-1,0.4c-0.3,0.3-0.4,0.6-0.4,1c0,0.4,0.1,0.7,0.4,1c0.3,0.3,0.7,0.6,1.2,0.8
					c1,0.3,1.9,0.8,2.6,1.5c0.8,0.8,1.2,1.7,1.2,2.8s-0.4,2.1-1.2,2.8c-0.8,0.8-1.7,1.2-2.8,1.2c-1.1,0-2.1-0.4-2.8-1.2
					c-0.6-0.6-1-1.5-1.2-2.6l1.6-0.6c0.1,1,0.4,1.6,0.7,2c0.5,0.5,1,0.7,1.7,0.7s1.2-0.2,1.7-0.7c0.5-0.5,0.7-1,0.7-1.7
					c0-0.6-0.2-1.2-0.7-1.7C535.1,80.4,534.5,80,533.9,79.8z"/>
				<path class="st4" d="M541.3,73.5v12.9h-1.7V73.5H541.3z"/>
				<path class="st4" d="M553.9,83.3l1.2,1.1c-1.5,1.4-3.1,2.1-4.8,2.1c-1.8,0-3.4-0.6-4.7-1.9c-1.3-1.3-1.9-2.8-1.9-4.7
					c0-1.8,0.6-3.4,1.9-4.7c1.3-1.3,2.8-1.9,4.7-1.9c1.7,0,3.3,0.7,4.8,2.1l-1.2,1.1c-1.1-1-2.3-1.5-3.6-1.5c-1.3,0-2.5,0.5-3.5,1.4
					c-1,1-1.4,2.1-1.4,3.5c0,1.4,0.5,2.5,1.4,3.5c1,1,2.1,1.4,3.5,1.4C551.5,84.8,552.7,84.3,553.9,83.3z"/>
				<path class="st4" d="M561.6,73.5l4.7,12.9h-1.8l-1.7-4.6h-3.4l-1.7,4.6H556l4.7-12.9H561.6z M562.2,80.1l-1.1-3l-1.1,3
					C560,80.1,562.2,80.1,562.2,80.1z"/>
				<path class="st4" d="M579.6,82.2v4.1h-1.7V73.5h3.7c1,0.1,1.9,0.6,2.6,1.3c0.9,0.9,1.3,1.9,1.3,3.1c0,1.2-0.4,2.2-1.3,3.1
					c-0.9,0.9-1.9,1.3-3.1,1.3L579.6,82.2L579.6,82.2z M579.6,75.2v5.4h1.5c0.7,0,1.4-0.3,1.9-0.8c0.5-0.5,0.8-1.2,0.8-1.9
					c0-0.7-0.3-1.4-0.8-1.9c-0.5-0.5-1.2-0.8-1.9-0.8C581.1,75.2,579.6,75.2,579.6,75.2z"/>
				<path class="st4" d="M590.3,82.2h-1.5v4.1h-1.7V73.5h3.7c1,0.1,1.9,0.6,2.6,1.3c0.9,0.9,1.3,1.9,1.3,3.1c0,1.2-0.4,2.2-1.3,3.1
					c-0.6,0.6-1,0.9-1.4,1l2.9,4.4h-2L590.3,82.2z M588.8,75.2v5.4h1.5c0.7,0,1.4-0.3,1.9-0.8c0.5-0.5,0.8-1.2,0.8-1.9
					c0-0.7-0.3-1.4-0.8-1.9c-0.5-0.5-1.2-0.8-1.9-0.8C590.3,75.2,588.8,75.2,588.8,75.2z"/>
				<path class="st4" d="M598.4,73.5v12.9h-1.7V73.5H598.4z"/>
				<path class="st4" d="M602.9,73.5l4.2,7.2l4.2-7.2h1.5v12.9h-1.7v-9.3l-4,7l-4-7v9.3h-1.7V73.5H602.9z"/>
				<path class="st4" d="M620.3,73.5l4.7,12.9h-1.8l-1.7-4.6h-3.4l-1.7,4.6h-1.8l4.7-12.9H620.3z M621,80.1l-1.1-3l-1.1,3
					C618.8,80.1,621,80.1,621,80.1z"/>
				<path class="st4" d="M629.8,82.2h-1.5v4.1h-1.7V73.5h3.7c1,0.1,1.9,0.6,2.6,1.3c0.9,0.9,1.3,1.9,1.3,3.1c0,1.2-0.4,2.2-1.3,3.1
					c-0.6,0.6-1,0.9-1.4,1l2.9,4.4h-2L629.8,82.2z M628.3,75.2v5.4h1.5c0.7,0,1.4-0.3,1.9-0.8c0.5-0.5,0.8-1.2,0.8-1.9
					c0-0.7-0.3-1.4-0.8-1.9c-0.5-0.5-1.2-0.8-1.9-0.8C629.8,75.2,628.3,75.2,628.3,75.2z"/>
				<path class="st4" d="M637.9,73.5v12.9h-1.7V73.5H637.9z"/>
				<path class="st4" d="M645.2,73.5l4.7,12.9h-1.8l-1.7-4.6h-3.4l-1.7,4.6h-1.8l4.7-12.9H645.2z M645.9,80.1l-1.1-3l-1.1,3
					C643.7,80.1,645.9,80.1,645.9,80.1z"/>
			</g>
		</g>
	</g>
</g>
<text transform="matrix(1 0 0 1 351.1447 349.5782)"><tspan x="0" y="0" class="st11 st12 st13">Figura 11. Bsica primaria 41 %</tspan><tspan x="30" y="15.8" class="st11 st12 st13">Fuente: MSPS (2018)</tspan></text>
</svg>
