<?xml version="1.0" encoding="utf-8"?>
<!-- Generator: Adobe Illustrator 16.0.0, SVG Export Plug-In . SVG Version: 6.00 Build 0)  -->
<!DOCTYPE svg PUBLIC "-//W3C//DTD SVG 1.1//EN" "http://www.w3.org/Graphics/SVG/1.1/DTD/svg11.dtd">
<svg version="1.1" id="Capa_1" xmlns="http://www.w3.org/2000/svg" xmlns:xlink="http://www.w3.org/1999/xlink" x="0px" y="0px"
	 width="618.411px" height="325.324px" viewBox="0 0 618.411 325.324" enable-background="new 0 0 618.411 325.324"
	 xml:space="preserve">
<g>
	<g>
		<path fill="#F2961C" d="M6.158,3.796h6.263v1.552H8.418v7.043h3.825v1.539H8.418v7.878h4.11v1.552h-6.37V3.796z"/>
		<path fill="#F2961C" d="M15.784,3.796h2.651c2.242,0,3.707,0.264,4.395,0.79s1.032,1.731,1.032,3.614v10.756
			c0,1.875-0.35,3.077-1.05,3.607s-2.159,0.796-4.377,0.796h-2.651V3.796z M18.043,5.242v16.671h0.729
			c1.091,0,1.812-0.134,2.162-0.404c0.35-0.27,0.524-0.864,0.524-1.784V7.47c0-0.928-0.178-1.532-0.533-1.811
			c-0.356-0.279-1.074-0.417-2.153-0.417H18.043z"/>
		<path fill="#F2961C" d="M30.071,3.796h3.309l3.79,19.563h-2.438l-0.907-5.438H29.52l-0.979,5.438h-2.384L30.071,3.796z
			 M31.637,5.242l-1.904,11.247h3.79L31.744,5.242H31.637z"/>
		<path fill="#F2961C" d="M39.573,3.796h2.651c2.242,0,3.707,0.264,4.395,0.79c0.687,0.525,1.031,1.73,1.031,3.614v10.756
			c0,1.875-0.35,3.077-1.05,3.607c-0.7,0.53-2.159,0.796-4.377,0.796h-2.651V3.796H39.573z M41.833,5.242v16.671h0.729
			c1.091,0,1.812-0.134,2.161-0.404c0.35-0.27,0.525-0.864,0.525-1.784V7.47c0-0.928-0.178-1.532-0.534-1.811
			c-0.355-0.279-1.073-0.417-2.152-0.417H41.833z"/>
	</g>
	<g>
		<g>
			<path fill="#575756" d="M516.875,145.986h1.33c0.857,0,1.439,0.04,1.74,0.118c0.303,0.079,0.533,0.208,0.689,0.388
				c0.158,0.18,0.256,0.381,0.295,0.602c0.041,0.221,0.061,0.655,0.061,1.302v2.394c0,0.614-0.029,1.024-0.086,1.231
				c-0.059,0.207-0.16,0.369-0.303,0.485c-0.145,0.117-0.32,0.198-0.531,0.245c-0.211,0.046-0.529,0.07-0.955,0.07h-2.242v-6.835
				H516.875z M518.653,147.155v4.496c0.256,0,0.414-0.051,0.473-0.154c0.061-0.103,0.088-0.382,0.088-0.838v-2.655
				c0-0.31-0.01-0.508-0.027-0.595c-0.021-0.087-0.066-0.151-0.137-0.192C518.981,147.176,518.846,147.155,518.653,147.155z"/>
			<path fill="#575756" d="M523.36,145.986v0.891h-1.756v-0.891H523.36z M523.36,147.218v5.602h-1.756v-5.602H523.36z"/>
			<path fill="#575756" d="M527.456,149.008h-1.512v-0.304c0-0.259-0.016-0.423-0.045-0.492c-0.029-0.069-0.104-0.103-0.221-0.103
				c-0.096,0-0.168,0.031-0.215,0.095c-0.049,0.064-0.072,0.158-0.072,0.285c0,0.171,0.012,0.297,0.035,0.377
				c0.025,0.081,0.098,0.168,0.217,0.264c0.119,0.096,0.365,0.235,0.736,0.418c0.494,0.242,0.82,0.47,0.975,0.684
				s0.232,0.525,0.232,0.933c0,0.456-0.059,0.8-0.178,1.032c-0.117,0.232-0.316,0.411-0.592,0.536
				c-0.277,0.125-0.613,0.188-1.002,0.188c-0.436,0-0.807-0.067-1.113-0.202c-0.309-0.135-0.521-0.318-0.635-0.549
				c-0.115-0.231-0.174-0.58-0.174-1.047v-0.27h1.512v0.354c0,0.301,0.018,0.497,0.057,0.587c0.037,0.09,0.113,0.135,0.227,0.135
				c0.119,0,0.205-0.03,0.252-0.091s0.072-0.188,0.072-0.382c0-0.267-0.031-0.435-0.094-0.502c-0.064-0.068-0.395-0.268-0.992-0.6
				c-0.5-0.281-0.807-0.537-0.916-0.766s-0.164-0.502-0.164-0.817c0-0.448,0.061-0.777,0.178-0.99
				c0.117-0.212,0.318-0.376,0.602-0.492c0.283-0.115,0.611-0.173,0.986-0.173c0.371,0,0.688,0.047,0.947,0.141
				c0.26,0.095,0.459,0.219,0.6,0.374c0.139,0.155,0.223,0.298,0.252,0.43s0.045,0.339,0.045,0.621V149.008L527.456,149.008z"/>
			<path fill="#575756" d="M529.84,146.471v0.882h0.459v0.887h-0.459v2.997c0,0.369,0.02,0.574,0.057,0.616
				c0.039,0.042,0.195,0.063,0.475,0.063v0.903h-0.688c-0.389,0-0.666-0.016-0.832-0.048c-0.166-0.033-0.312-0.107-0.438-0.224
				c-0.127-0.117-0.207-0.25-0.238-0.401c-0.029-0.151-0.045-0.504-0.045-1.062v-2.845h-0.367v-0.887h0.367v-0.882h1.709V146.471z"
				/>
			<path fill="#575756" d="M532.381,147.218l-0.066,0.737c0.246-0.527,0.605-0.807,1.074-0.838v1.971
				c-0.311,0-0.541,0.042-0.688,0.127c-0.146,0.084-0.236,0.202-0.27,0.353c-0.033,0.15-0.051,0.497-0.051,1.041v2.212h-1.707
				v-5.602L532.381,147.218L532.381,147.218z"/>
			<path fill="#575756" d="M535.526,145.986v0.891h-1.756v-0.891H535.526z M535.526,147.218v5.602h-1.756v-5.602H535.526z"/>
			<path fill="#575756" d="M537.844,145.986v1.618c0.141-0.164,0.297-0.286,0.471-0.366c0.174-0.081,0.359-0.121,0.562-0.121
				c0.234,0,0.438,0.037,0.607,0.11c0.172,0.073,0.303,0.176,0.393,0.308c0.09,0.132,0.146,0.262,0.164,0.388
				s0.027,0.397,0.027,0.811v2.524c0,0.411-0.027,0.717-0.084,0.918c-0.057,0.201-0.184,0.375-0.387,0.523
				c-0.201,0.147-0.441,0.221-0.721,0.221c-0.201,0-0.387-0.043-0.561-0.131c-0.172-0.088-0.33-0.219-0.475-0.394l-0.109,0.423
				h-1.598v-6.834h1.709V145.986z M538.364,148.81c0-0.29-0.02-0.479-0.057-0.568c-0.035-0.089-0.107-0.133-0.215-0.133
				c-0.104,0-0.172,0.039-0.203,0.116c-0.029,0.078-0.045,0.272-0.045,0.585v2.415c0,0.301,0.018,0.494,0.053,0.578
				c0.035,0.084,0.104,0.127,0.209,0.127s0.176-0.044,0.209-0.131c0.031-0.087,0.049-0.297,0.049-0.629V148.81L538.364,148.81z"/>
			<path fill="#575756" d="M544.536,147.218v5.602h-1.736l0.029-0.465c-0.117,0.189-0.264,0.331-0.438,0.425
				c-0.172,0.095-0.373,0.142-0.596,0.142c-0.256,0-0.469-0.045-0.639-0.135c-0.168-0.09-0.293-0.209-0.373-0.359
				c-0.08-0.149-0.131-0.305-0.15-0.466c-0.02-0.162-0.029-0.483-0.029-0.965v-3.778h1.705v3.812c0,0.437,0.014,0.695,0.039,0.777
				c0.027,0.082,0.102,0.123,0.219,0.123c0.127,0,0.201-0.042,0.227-0.127c0.023-0.084,0.035-0.356,0.035-0.814v-3.77h1.707V147.218
				z"/>
			<path fill="#575756" d="M548.917,149.333h-1.607v-0.646c0-0.225-0.018-0.378-0.055-0.458s-0.104-0.12-0.203-0.12
				c-0.098,0-0.166,0.035-0.197,0.105c-0.033,0.07-0.053,0.228-0.053,0.473v2.643c0,0.2,0.025,0.35,0.076,0.45
				c0.051,0.1,0.125,0.15,0.225,0.15c0.115,0,0.193-0.052,0.234-0.156s0.062-0.301,0.062-0.591v-0.667h1.52
				c-0.004,0.447-0.02,0.783-0.049,1.006c-0.029,0.224-0.123,0.454-0.283,0.688c-0.158,0.234-0.367,0.412-0.623,0.532
				c-0.256,0.12-0.572,0.179-0.949,0.179c-0.48,0-0.861-0.082-1.145-0.247c-0.281-0.165-0.48-0.396-0.596-0.692
				c-0.117-0.296-0.176-0.718-0.176-1.265v-1.591c0-0.476,0.049-0.834,0.145-1.077c0.096-0.242,0.299-0.458,0.611-0.648
				s0.691-0.285,1.141-0.285c0.443,0,0.824,0.094,1.139,0.283c0.316,0.188,0.525,0.426,0.629,0.713
				C548.866,148.4,548.917,148.807,548.917,149.333z"/>
			<path fill="#575756" d="M551.178,145.986v0.891h-1.756v-0.891H551.178z M551.178,147.218v5.602h-1.756v-5.602H551.178z"/>
			<path fill="#575756" d="M555.651,149.186v1.372c0,0.504-0.025,0.873-0.076,1.108s-0.16,0.455-0.326,0.659
				c-0.166,0.204-0.379,0.354-0.639,0.452c-0.262,0.097-0.561,0.146-0.896,0.146c-0.377,0-0.695-0.042-0.959-0.125
				c-0.262-0.083-0.465-0.208-0.609-0.375s-0.248-0.37-0.311-0.608c-0.061-0.238-0.092-0.595-0.092-1.07v-1.435
				c0-0.521,0.057-0.927,0.168-1.22c0.113-0.292,0.316-0.527,0.609-0.705c0.291-0.177,0.666-0.266,1.121-0.266
				c0.383,0,0.713,0.057,0.986,0.171c0.273,0.114,0.486,0.262,0.635,0.445s0.25,0.372,0.307,0.566
				C555.624,148.493,555.651,148.789,555.651,149.186z M555.143,145.699l-1.389,1.144h-0.855l0.742-1.144H555.143z M553.946,148.764
				c0-0.287-0.018-0.468-0.047-0.542c-0.031-0.075-0.098-0.112-0.199-0.112s-0.168,0.037-0.201,0.112
				c-0.035,0.074-0.051,0.255-0.051,0.542v2.528c0,0.265,0.016,0.437,0.051,0.517c0.033,0.081,0.1,0.121,0.197,0.121
				c0.102,0,0.168-0.037,0.201-0.11c0.031-0.073,0.049-0.231,0.049-0.473V148.764z"/>
			<path fill="#575756" d="M557.948,147.218l-0.029,0.516c0.123-0.206,0.273-0.36,0.453-0.463c0.178-0.103,0.385-0.154,0.619-0.154
				c0.291,0,0.531,0.069,0.717,0.207c0.186,0.138,0.305,0.312,0.359,0.521c0.053,0.21,0.08,0.56,0.08,1.049v3.926h-1.705v-3.879
				c0-0.386-0.014-0.621-0.039-0.705s-0.096-0.126-0.211-0.126c-0.121,0-0.197,0.048-0.229,0.146
				c-0.031,0.097-0.047,0.356-0.047,0.779v3.787h-1.705v-5.602h1.736V147.218z"/>
			<path fill="#575756" d="M566.135,145.986v6.834h-1.705v-0.406c-0.164,0.169-0.336,0.296-0.516,0.381
				c-0.18,0.084-0.369,0.126-0.564,0.126c-0.266,0-0.494-0.069-0.688-0.208c-0.195-0.14-0.318-0.301-0.373-0.483
				c-0.055-0.183-0.084-0.481-0.084-0.895v-2.622c0-0.431,0.029-0.736,0.084-0.916c0.055-0.18,0.18-0.338,0.377-0.475
				c0.197-0.136,0.432-0.205,0.705-0.205c0.211,0,0.404,0.038,0.58,0.114s0.336,0.19,0.479,0.343v-1.588H566.135z M564.43,148.628
				c0-0.206-0.018-0.343-0.053-0.414c-0.035-0.071-0.104-0.105-0.209-0.105c-0.1,0-0.168,0.031-0.205,0.095
				c-0.035,0.064-0.053,0.205-0.053,0.424v2.744c0,0.228,0.018,0.377,0.051,0.449c0.033,0.072,0.1,0.108,0.195,0.108
				c0.109,0,0.182-0.04,0.219-0.121c0.037-0.08,0.055-0.276,0.055-0.589V148.628L564.43,148.628z"/>
			<path fill="#575756" d="M570.612,150.119h-2.209v1.211c0,0.253,0.02,0.417,0.055,0.49c0.037,0.073,0.107,0.11,0.211,0.11
				c0.129,0,0.217-0.049,0.26-0.146c0.043-0.097,0.066-0.285,0.066-0.564v-0.739h1.617v0.414c0,0.346-0.021,0.612-0.066,0.798
				c-0.043,0.186-0.145,0.384-0.305,0.595c-0.162,0.211-0.365,0.369-0.611,0.475s-0.555,0.158-0.926,0.158
				c-0.361,0-0.678-0.052-0.955-0.156c-0.275-0.104-0.49-0.247-0.643-0.429c-0.154-0.182-0.262-0.381-0.318-0.6
				c-0.061-0.218-0.09-0.535-0.09-0.952v-1.634c0-0.49,0.066-0.876,0.199-1.159c0.131-0.283,0.348-0.5,0.648-0.65
				c0.301-0.15,0.648-0.226,1.039-0.226c0.479,0,0.873,0.091,1.186,0.272c0.311,0.182,0.527,0.422,0.652,0.722
				c0.125,0.3,0.189,0.721,0.189,1.264V150.119L570.612,150.119z M568.901,149.207v-0.409c0-0.29-0.016-0.477-0.045-0.562
				c-0.031-0.084-0.096-0.126-0.191-0.126c-0.117,0-0.191,0.036-0.219,0.107c-0.027,0.071-0.041,0.265-0.041,0.581v0.409H568.901
				L568.901,149.207z"/>
			<path fill="#575756" d="M574.448,145.986v6.834h-1.756v-6.834H574.448z"/>
			<path fill="#575756" d="M576.584,149.388h-1.6v-0.375c0-0.434,0.049-0.768,0.148-1.003c0.1-0.235,0.301-0.442,0.602-0.623
				c0.301-0.18,0.691-0.27,1.174-0.27c0.578,0,1.012,0.102,1.305,0.306c0.291,0.204,0.469,0.454,0.527,0.751
				c0.059,0.297,0.09,0.908,0.09,1.834v2.812h-1.66v-0.499c-0.104,0.2-0.238,0.35-0.402,0.45s-0.361,0.15-0.59,0.15
				c-0.297,0-0.57-0.083-0.82-0.251c-0.248-0.168-0.373-0.534-0.373-1.1v-0.46c0-0.419,0.064-0.705,0.197-0.857
				s0.461-0.329,0.984-0.532c0.559-0.219,0.859-0.367,0.898-0.443c0.039-0.076,0.059-0.23,0.059-0.464
				c0-0.292-0.02-0.483-0.064-0.572c-0.043-0.089-0.115-0.133-0.217-0.133c-0.117,0-0.188,0.037-0.217,0.112
				c-0.027,0.074-0.041,0.268-0.041,0.58V149.388L576.584,149.388z M577.125,150.157c-0.271,0.2-0.432,0.367-0.475,0.502
				c-0.045,0.135-0.066,0.33-0.066,0.583c0,0.29,0.02,0.477,0.057,0.561c0.039,0.084,0.113,0.127,0.227,0.127
				c0.105,0,0.176-0.033,0.209-0.099s0.049-0.24,0.049-0.521V150.157z"/>
			<path fill="#575756" d="M518.559,155.824l-0.027,0.495c0.15-0.2,0.318-0.35,0.502-0.448c0.182-0.099,0.383-0.148,0.6-0.148
				c0.266,0,0.492,0.071,0.686,0.213c0.193,0.143,0.312,0.306,0.361,0.492c0.047,0.186,0.072,0.501,0.072,0.945v2.36
				c0,0.509-0.031,0.872-0.092,1.087c-0.061,0.215-0.186,0.387-0.371,0.515c-0.188,0.128-0.414,0.192-0.678,0.192
				c-0.211,0-0.406-0.049-0.586-0.148c-0.182-0.099-0.346-0.245-0.494-0.439v1.284h-1.705v-6.4H518.559L518.559,155.824z
				 M519.045,157.453c0-0.346-0.014-0.556-0.039-0.629c-0.023-0.073-0.096-0.109-0.211-0.109c-0.111,0-0.184,0.042-0.217,0.126
				c-0.031,0.084-0.047,0.289-0.047,0.612v2.322c0,0.337,0.016,0.548,0.051,0.633c0.033,0.084,0.105,0.127,0.219,0.127
				c0.109,0,0.178-0.039,0.205-0.116s0.039-0.265,0.039-0.563V157.453L519.045,157.453z"/>
			<path fill="#575756" d="M525.17,157.791v1.372c0,0.504-0.023,0.873-0.076,1.108c-0.051,0.235-0.158,0.455-0.324,0.659
				c-0.166,0.204-0.379,0.354-0.641,0.452c-0.26,0.097-0.559,0.146-0.896,0.146c-0.377,0-0.695-0.042-0.957-0.125
				c-0.264-0.083-0.467-0.208-0.611-0.375s-0.248-0.37-0.309-0.608c-0.062-0.238-0.094-0.595-0.094-1.07v-1.435
				c0-0.521,0.057-0.927,0.168-1.22c0.113-0.292,0.316-0.527,0.609-0.705c0.293-0.177,0.666-0.266,1.123-0.266
				c0.383,0,0.711,0.057,0.984,0.171c0.273,0.114,0.486,0.262,0.637,0.445c0.148,0.183,0.25,0.372,0.305,0.566
				C525.143,157.099,525.17,157.394,525.17,157.791z M523.465,157.369c0-0.287-0.016-0.468-0.047-0.542
				c-0.031-0.075-0.096-0.112-0.197-0.112s-0.17,0.037-0.203,0.112c-0.033,0.074-0.051,0.255-0.051,0.542v2.528
				c0,0.265,0.018,0.437,0.051,0.517c0.033,0.081,0.1,0.121,0.197,0.121c0.104,0,0.168-0.037,0.201-0.11
				c0.033-0.073,0.049-0.231,0.049-0.473V157.369L523.465,157.369z"/>
			<path fill="#575756" d="M527.438,154.591v1.618c0.141-0.164,0.299-0.286,0.471-0.366c0.174-0.081,0.361-0.121,0.562-0.121
				c0.234,0,0.438,0.037,0.609,0.11c0.17,0.073,0.301,0.176,0.393,0.308c0.092,0.132,0.145,0.262,0.162,0.388
				c0.02,0.126,0.027,0.397,0.027,0.811v2.524c0,0.411-0.027,0.717-0.082,0.918c-0.055,0.201-0.184,0.375-0.387,0.523
				c-0.201,0.147-0.443,0.221-0.723,0.221c-0.199,0-0.385-0.043-0.559-0.131c-0.174-0.087-0.332-0.219-0.475-0.394l-0.111,0.423
				h-1.596v-6.834h1.707V154.591z M527.958,157.416c0-0.29-0.018-0.479-0.055-0.568c-0.037-0.089-0.109-0.133-0.217-0.133
				c-0.104,0-0.172,0.039-0.201,0.116c-0.031,0.078-0.047,0.272-0.047,0.585v2.415c0,0.301,0.018,0.494,0.053,0.578
				s0.104,0.127,0.209,0.127c0.107,0,0.178-0.044,0.209-0.131c0.031-0.087,0.049-0.297,0.049-0.629V157.416L527.958,157.416z"/>
			<path fill="#575756" d="M531.981,154.591v6.834h-1.758v-6.834H531.981z"/>
			<path fill="#575756" d="M534.116,157.994h-1.6v-0.375c0-0.434,0.051-0.768,0.15-1.003c0.1-0.235,0.299-0.442,0.602-0.623
				c0.301-0.18,0.691-0.27,1.174-0.27c0.576,0,1.01,0.102,1.303,0.306c0.293,0.204,0.469,0.454,0.529,0.751
				c0.059,0.297,0.088,0.908,0.088,1.834v2.812h-1.66v-0.499c-0.104,0.2-0.238,0.35-0.402,0.45s-0.361,0.15-0.59,0.15
				c-0.297,0-0.572-0.083-0.82-0.251s-0.375-0.534-0.375-1.1v-0.46c0-0.419,0.066-0.705,0.199-0.857s0.459-0.329,0.984-0.532
				c0.559-0.219,0.859-0.367,0.898-0.443c0.039-0.076,0.061-0.23,0.061-0.464c0-0.292-0.023-0.483-0.066-0.572
				c-0.043-0.089-0.115-0.133-0.217-0.133c-0.115,0-0.188,0.037-0.215,0.112c-0.029,0.074-0.043,0.268-0.043,0.58V157.994z
				 M534.657,158.762c-0.273,0.2-0.432,0.367-0.475,0.502c-0.043,0.135-0.064,0.33-0.064,0.583c0,0.29,0.018,0.477,0.057,0.561
				c0.037,0.084,0.113,0.127,0.227,0.127c0.105,0,0.176-0.033,0.209-0.099c0.031-0.066,0.049-0.24,0.049-0.521v-1.153H534.657z"/>
			<path fill="#575756" d="M540.719,157.939h-1.607v-0.646c0-0.225-0.02-0.378-0.057-0.458c-0.035-0.08-0.104-0.12-0.201-0.12
				s-0.164,0.035-0.197,0.105c-0.035,0.07-0.051,0.228-0.051,0.473v2.643c0,0.2,0.023,0.35,0.074,0.45
				c0.053,0.1,0.125,0.15,0.225,0.15c0.115,0,0.193-0.052,0.234-0.156s0.061-0.301,0.061-0.591v-0.667h1.52
				c-0.002,0.447-0.018,0.783-0.047,1.006c-0.031,0.224-0.125,0.454-0.283,0.688s-0.365,0.412-0.623,0.532
				c-0.258,0.12-0.572,0.179-0.949,0.179c-0.482,0-0.863-0.082-1.145-0.247c-0.283-0.165-0.48-0.396-0.598-0.692
				c-0.117-0.297-0.176-0.718-0.176-1.265v-1.591c0-0.476,0.049-0.834,0.145-1.077c0.096-0.242,0.299-0.458,0.611-0.648
				c0.312-0.19,0.691-0.285,1.141-0.285c0.445,0,0.824,0.094,1.139,0.283c0.316,0.189,0.525,0.426,0.631,0.713
				C540.668,157.005,540.719,157.413,540.719,157.939z"/>
			<path fill="#575756" d="M542.981,154.591v0.891h-1.756v-0.891H542.981z M542.981,155.824v5.602h-1.756v-5.602H542.981z"/>
			<path fill="#575756" d="M547.452,157.791v1.372c0,0.504-0.025,0.873-0.076,1.108s-0.158,0.455-0.324,0.659
				c-0.166,0.204-0.379,0.354-0.639,0.452c-0.262,0.097-0.561,0.146-0.898,0.146c-0.377,0-0.695-0.042-0.957-0.125
				s-0.465-0.208-0.609-0.375c-0.146-0.167-0.248-0.37-0.311-0.608c-0.062-0.238-0.094-0.595-0.094-1.07v-1.435
				c0-0.521,0.059-0.927,0.17-1.22c0.113-0.292,0.314-0.527,0.607-0.705c0.293-0.177,0.668-0.266,1.123-0.266
				c0.383,0,0.711,0.057,0.984,0.171c0.275,0.114,0.486,0.262,0.637,0.445c0.148,0.183,0.25,0.372,0.305,0.566
				C547.424,157.099,547.452,157.394,547.452,157.791z M546.946,154.304l-1.391,1.144H544.7l0.744-1.144H546.946z M545.747,157.369
				c0-0.287-0.016-0.468-0.047-0.542c-0.031-0.075-0.096-0.112-0.197-0.112s-0.17,0.037-0.203,0.112
				c-0.033,0.074-0.051,0.255-0.051,0.542v2.528c0,0.265,0.018,0.437,0.051,0.517c0.033,0.081,0.102,0.121,0.199,0.121
				c0.1,0,0.168-0.037,0.199-0.11c0.033-0.073,0.049-0.231,0.049-0.473V157.369z"/>
			<path fill="#575756" d="M549.749,155.824l-0.029,0.516c0.125-0.206,0.275-0.36,0.453-0.463c0.18-0.103,0.385-0.154,0.619-0.154
				c0.293,0,0.531,0.069,0.717,0.207c0.188,0.138,0.307,0.312,0.359,0.521c0.055,0.21,0.08,0.56,0.08,1.049v3.926h-1.705v-3.879
				c0-0.386-0.012-0.621-0.037-0.705s-0.096-0.126-0.211-0.126c-0.121,0-0.197,0.048-0.23,0.146
				c-0.029,0.097-0.045,0.356-0.045,0.779v3.787h-1.707v-5.602h1.736V155.824z"/>
			<path fill="#575756" d="M557.829,157.939h-1.607v-0.646c0-0.225-0.02-0.378-0.055-0.458c-0.037-0.08-0.104-0.12-0.203-0.12
				s-0.166,0.035-0.199,0.105c-0.033,0.07-0.051,0.228-0.051,0.473v2.643c0,0.2,0.025,0.35,0.076,0.45
				c0.051,0.1,0.125,0.15,0.225,0.15c0.115,0,0.193-0.052,0.234-0.156s0.061-0.301,0.061-0.591v-0.667h1.52
				c-0.002,0.447-0.02,0.783-0.049,1.006c-0.029,0.224-0.123,0.454-0.283,0.688c-0.158,0.235-0.367,0.412-0.623,0.532
				c-0.256,0.12-0.572,0.179-0.949,0.179c-0.48,0-0.863-0.082-1.145-0.247c-0.281-0.165-0.48-0.396-0.598-0.692
				s-0.176-0.718-0.176-1.265v-1.591c0-0.476,0.049-0.834,0.145-1.077c0.096-0.242,0.301-0.458,0.611-0.648
				c0.312-0.19,0.693-0.285,1.141-0.285c0.445,0,0.824,0.094,1.141,0.283c0.314,0.188,0.523,0.426,0.629,0.713
				C557.776,157.006,557.829,157.413,557.829,157.939z"/>
			<path fill="#575756" d="M562.194,157.791v1.372c0,0.504-0.025,0.873-0.076,1.108s-0.16,0.455-0.326,0.659
				c-0.166,0.204-0.379,0.354-0.639,0.452c-0.262,0.097-0.561,0.146-0.898,0.146c-0.377,0-0.695-0.042-0.957-0.125
				s-0.465-0.208-0.609-0.375c-0.146-0.167-0.25-0.37-0.311-0.608c-0.062-0.238-0.094-0.595-0.094-1.07v-1.435
				c0-0.521,0.057-0.927,0.17-1.22c0.113-0.292,0.314-0.527,0.607-0.705c0.293-0.177,0.666-0.266,1.123-0.266
				c0.383,0,0.711,0.057,0.984,0.171c0.275,0.114,0.486,0.262,0.637,0.445c0.148,0.183,0.25,0.372,0.307,0.566
				C562.167,157.099,562.194,157.394,562.194,157.791z M560.489,157.369c0-0.287-0.018-0.468-0.047-0.542
				c-0.031-0.075-0.098-0.112-0.197-0.112c-0.102,0-0.17,0.037-0.203,0.112c-0.035,0.074-0.051,0.255-0.051,0.542v2.528
				c0,0.265,0.016,0.437,0.051,0.517c0.033,0.081,0.1,0.121,0.197,0.121c0.102,0,0.168-0.037,0.201-0.11
				c0.031-0.073,0.049-0.231,0.049-0.473V157.369L560.489,157.369z"/>
			<path fill="#575756" d="M564.491,155.824l-0.029,0.516c0.123-0.206,0.275-0.36,0.453-0.463c0.18-0.103,0.385-0.154,0.619-0.154
				c0.293,0,0.533,0.069,0.719,0.207c0.186,0.138,0.305,0.312,0.357,0.521c0.055,0.21,0.08,0.56,0.08,1.049v3.926h-1.705v-3.879
				c0-0.386-0.014-0.621-0.037-0.705c-0.025-0.084-0.098-0.126-0.211-0.126c-0.121,0-0.197,0.048-0.229,0.146
				c-0.031,0.098-0.047,0.356-0.047,0.779v3.787h-1.705v-5.602h1.734V155.824z"/>
			<path fill="#575756" d="M572.68,154.591v6.834h-1.707v-0.406c-0.162,0.169-0.334,0.296-0.514,0.381
				c-0.18,0.084-0.369,0.126-0.566,0.126c-0.264,0-0.494-0.069-0.688-0.208c-0.195-0.14-0.32-0.301-0.375-0.483
				c-0.055-0.183-0.082-0.481-0.082-0.895v-2.622c0-0.431,0.027-0.736,0.082-0.916c0.055-0.18,0.182-0.338,0.379-0.475
				c0.197-0.136,0.432-0.205,0.705-0.205c0.211,0,0.404,0.038,0.58,0.114s0.336,0.19,0.479,0.343v-1.588H572.68z M570.973,157.234
				c0-0.206-0.018-0.343-0.053-0.414c-0.035-0.071-0.104-0.105-0.209-0.105c-0.102,0-0.17,0.031-0.205,0.095
				s-0.053,0.205-0.053,0.424v2.744c0,0.228,0.018,0.377,0.051,0.449c0.035,0.072,0.1,0.108,0.195,0.108
				c0.109,0,0.182-0.04,0.219-0.121c0.037-0.08,0.055-0.276,0.055-0.589V157.234z"/>
			<path fill="#575756" d="M575.047,154.591v0.891h-1.756v-0.891H575.047z M575.047,155.824v5.602h-1.756v-5.602H575.047z"/>
			<path fill="#575756" d="M579.143,157.614h-1.512v-0.304c0-0.259-0.014-0.423-0.043-0.492c-0.031-0.069-0.104-0.103-0.221-0.103
				c-0.096,0-0.168,0.031-0.217,0.095c-0.047,0.064-0.07,0.158-0.07,0.285c0,0.171,0.012,0.297,0.035,0.377
				c0.023,0.081,0.096,0.168,0.215,0.264c0.119,0.096,0.365,0.235,0.736,0.418c0.496,0.242,0.82,0.47,0.977,0.684
				c0.154,0.214,0.232,0.525,0.232,0.933c0,0.456-0.061,0.8-0.178,1.032c-0.117,0.232-0.316,0.411-0.594,0.536
				c-0.275,0.125-0.611,0.188-1.002,0.188c-0.434,0-0.805-0.067-1.113-0.202c-0.309-0.135-0.52-0.318-0.635-0.549
				s-0.174-0.58-0.174-1.047v-0.27h1.512v0.354c0,0.301,0.02,0.497,0.059,0.587c0.037,0.09,0.111,0.135,0.225,0.135
				c0.121,0,0.207-0.03,0.254-0.091c0.049-0.061,0.072-0.188,0.072-0.382c0-0.267-0.031-0.435-0.094-0.502
				c-0.064-0.068-0.396-0.268-0.992-0.6c-0.5-0.281-0.805-0.537-0.916-0.766c-0.109-0.229-0.164-0.502-0.164-0.817
				c0-0.448,0.059-0.777,0.176-0.99c0.119-0.212,0.32-0.376,0.604-0.492c0.283-0.115,0.609-0.173,0.984-0.173
				c0.373,0,0.688,0.047,0.949,0.141c0.26,0.095,0.459,0.219,0.6,0.374c0.139,0.155,0.225,0.298,0.254,0.43s0.043,0.339,0.043,0.621
				v0.326H579.143z"/>
			<path fill="#575756" d="M583.5,157.939h-1.609v-0.646c0-0.225-0.018-0.378-0.055-0.458c-0.035-0.08-0.104-0.12-0.203-0.12
				c-0.098,0-0.164,0.035-0.197,0.105c-0.033,0.07-0.051,0.228-0.051,0.473v2.643c0,0.2,0.025,0.35,0.076,0.45
				c0.051,0.1,0.125,0.15,0.223,0.15c0.115,0,0.193-0.052,0.234-0.156s0.062-0.301,0.062-0.591v-0.667h1.52
				c-0.004,0.447-0.02,0.783-0.049,1.006c-0.029,0.224-0.125,0.454-0.283,0.688c-0.16,0.235-0.367,0.412-0.623,0.532
				c-0.256,0.12-0.574,0.179-0.951,0.179c-0.48,0-0.861-0.082-1.143-0.247c-0.283-0.165-0.482-0.396-0.6-0.692
				c-0.115-0.296-0.174-0.718-0.174-1.265v-1.591c0-0.476,0.047-0.834,0.145-1.077c0.096-0.242,0.299-0.458,0.611-0.648
				c0.312-0.19,0.691-0.285,1.141-0.285c0.443,0,0.824,0.094,1.139,0.283c0.316,0.188,0.525,0.426,0.629,0.713
				C583.448,157.006,583.5,157.413,583.5,157.939z"/>
			<path fill="#575756" d="M585.53,157.994h-1.6v-0.375c0-0.434,0.051-0.768,0.15-1.003c0.1-0.235,0.299-0.442,0.602-0.623
				c0.301-0.18,0.691-0.27,1.174-0.27c0.576,0,1.012,0.102,1.305,0.306c0.293,0.204,0.469,0.454,0.527,0.751
				c0.059,0.297,0.088,0.908,0.088,1.834v2.812h-1.658v-0.499c-0.105,0.2-0.24,0.35-0.404,0.45s-0.359,0.15-0.588,0.15
				c-0.299,0-0.572-0.083-0.822-0.251c-0.248-0.168-0.373-0.534-0.373-1.1v-0.46c0-0.419,0.066-0.705,0.197-0.857
				c0.133-0.152,0.461-0.329,0.984-0.532c0.561-0.219,0.859-0.367,0.898-0.443c0.041-0.076,0.061-0.23,0.061-0.464
				c0-0.292-0.021-0.483-0.066-0.572c-0.043-0.089-0.115-0.133-0.217-0.133c-0.115,0-0.186,0.037-0.215,0.112
				c-0.027,0.074-0.041,0.268-0.041,0.58v0.587H585.53z M586.071,158.762c-0.273,0.2-0.432,0.367-0.477,0.502
				c-0.043,0.135-0.064,0.33-0.064,0.583c0,0.29,0.02,0.477,0.057,0.561c0.039,0.084,0.113,0.127,0.227,0.127
				c0.107,0,0.176-0.033,0.209-0.099c0.031-0.066,0.049-0.24,0.049-0.521V158.762z"/>
			<path fill="#575756" d="M590.096,155.824l-0.027,0.495c0.15-0.2,0.318-0.35,0.502-0.448c0.182-0.099,0.383-0.148,0.6-0.148
				c0.264,0,0.492,0.071,0.686,0.213c0.193,0.143,0.312,0.306,0.361,0.492c0.047,0.186,0.072,0.501,0.072,0.945v2.36
				c0,0.509-0.031,0.872-0.092,1.087c-0.061,0.215-0.186,0.387-0.371,0.515c-0.188,0.128-0.414,0.192-0.678,0.192
				c-0.211,0-0.406-0.049-0.586-0.148c-0.182-0.099-0.346-0.245-0.494-0.439v1.284h-1.705v-6.4H590.096L590.096,155.824z
				 M590.583,157.453c0-0.346-0.012-0.556-0.037-0.629c-0.025-0.073-0.096-0.109-0.211-0.109c-0.113,0-0.186,0.042-0.217,0.126
				c-0.033,0.084-0.049,0.289-0.049,0.612v2.322c0,0.337,0.018,0.548,0.051,0.633c0.033,0.084,0.107,0.127,0.219,0.127
				s0.178-0.039,0.205-0.116s0.041-0.265,0.041-0.563v-2.403H590.583z"/>
			<path fill="#575756" d="M594.374,157.994h-1.6v-0.375c0-0.434,0.051-0.768,0.148-1.003c0.102-0.235,0.301-0.442,0.604-0.623
				c0.301-0.18,0.691-0.27,1.174-0.27c0.576,0,1.012,0.102,1.303,0.306c0.293,0.204,0.469,0.454,0.529,0.751
				c0.059,0.297,0.088,0.908,0.088,1.834v2.812h-1.658v-0.499c-0.104,0.2-0.238,0.35-0.404,0.45c-0.164,0.1-0.359,0.15-0.588,0.15
				c-0.299,0-0.572-0.083-0.82-0.251c-0.25-0.168-0.373-0.534-0.373-1.1v-0.46c0-0.419,0.064-0.705,0.197-0.857
				s0.461-0.329,0.982-0.532c0.561-0.219,0.861-0.367,0.9-0.443c0.039-0.076,0.059-0.23,0.059-0.464
				c0-0.292-0.021-0.483-0.066-0.572c-0.043-0.089-0.115-0.133-0.217-0.133c-0.115,0-0.188,0.037-0.215,0.112
				c-0.029,0.074-0.043,0.268-0.043,0.58V157.994L594.374,157.994z M594.915,158.762c-0.273,0.2-0.432,0.367-0.475,0.502
				c-0.045,0.135-0.066,0.33-0.066,0.583c0,0.29,0.02,0.477,0.057,0.561c0.039,0.084,0.113,0.127,0.227,0.127
				c0.105,0,0.176-0.033,0.209-0.099s0.049-0.24,0.049-0.521V158.762z"/>
			<path fill="#575756" d="M600.975,157.939h-1.607v-0.646c0-0.225-0.02-0.378-0.055-0.458c-0.037-0.08-0.104-0.12-0.203-0.12
				c-0.098,0-0.164,0.035-0.197,0.105c-0.035,0.07-0.051,0.228-0.051,0.473v2.643c0,0.2,0.023,0.35,0.076,0.45
				c0.051,0.1,0.125,0.15,0.223,0.15c0.115,0,0.193-0.052,0.234-0.156s0.062-0.301,0.062-0.591v-0.667h1.52
				c-0.004,0.447-0.02,0.783-0.049,1.006c-0.029,0.224-0.125,0.454-0.281,0.688c-0.16,0.235-0.367,0.412-0.623,0.532
				c-0.256,0.12-0.574,0.179-0.951,0.179c-0.48,0-0.863-0.082-1.145-0.247c-0.279-0.165-0.479-0.396-0.598-0.692
				c-0.115-0.297-0.174-0.718-0.174-1.265v-1.591c0-0.476,0.047-0.834,0.143-1.077c0.098-0.242,0.301-0.458,0.613-0.648
				c0.311-0.19,0.691-0.285,1.139-0.285c0.445,0,0.824,0.094,1.141,0.283s0.525,0.426,0.629,0.713
				C600.924,157.006,600.975,157.413,600.975,157.939z"/>
			<path fill="#575756" d="M603.239,154.591v0.891h-1.756v-0.891H603.239z M603.239,155.824v5.602h-1.756v-5.602H603.239z"/>
			<path fill="#575756" d="M607.731,154.591v6.834h-1.707v-0.406c-0.162,0.169-0.334,0.296-0.516,0.381
				c-0.18,0.084-0.369,0.126-0.564,0.126c-0.266,0-0.494-0.069-0.689-0.208c-0.193-0.14-0.318-0.301-0.373-0.483
				c-0.055-0.183-0.082-0.481-0.082-0.895v-2.622c0-0.431,0.027-0.736,0.082-0.916c0.055-0.18,0.182-0.338,0.377-0.475
				c0.197-0.136,0.434-0.205,0.705-0.205c0.211,0,0.404,0.038,0.58,0.114s0.336,0.19,0.48,0.343v-1.588H607.731z M606.026,157.234
				c0-0.206-0.02-0.343-0.055-0.414c-0.033-0.071-0.104-0.105-0.209-0.105c-0.102,0-0.17,0.031-0.205,0.095
				c-0.033,0.064-0.053,0.205-0.053,0.424v2.744c0,0.228,0.018,0.377,0.051,0.449c0.035,0.072,0.1,0.108,0.195,0.108
				c0.109,0,0.182-0.04,0.219-0.121c0.037-0.08,0.057-0.276,0.057-0.589V157.234z"/>
			<path fill="#575756" d="M609.868,157.994h-1.602v-0.375c0-0.434,0.051-0.768,0.15-1.003c0.1-0.235,0.301-0.442,0.604-0.623
				c0.301-0.18,0.691-0.27,1.174-0.27c0.576,0,1.01,0.102,1.303,0.306c0.293,0.204,0.469,0.454,0.529,0.751
				c0.059,0.297,0.088,0.908,0.088,1.834v2.812h-1.66v-0.499c-0.104,0.2-0.238,0.35-0.402,0.45c-0.166,0.1-0.361,0.15-0.59,0.15
				c-0.299,0-0.572-0.083-0.82-0.251s-0.373-0.534-0.373-1.1v-0.46c0-0.419,0.064-0.705,0.197-0.857
				c0.131-0.152,0.459-0.329,0.984-0.532c0.559-0.219,0.859-0.367,0.898-0.443c0.039-0.076,0.059-0.23,0.059-0.464
				c0-0.292-0.021-0.483-0.064-0.572c-0.045-0.089-0.115-0.133-0.217-0.133c-0.117,0-0.188,0.037-0.215,0.112
				c-0.029,0.074-0.043,0.268-0.043,0.58V157.994L609.868,157.994z M610.407,158.762c-0.273,0.2-0.432,0.367-0.475,0.502
				c-0.045,0.135-0.064,0.33-0.064,0.583c0,0.29,0.018,0.477,0.057,0.561c0.037,0.084,0.113,0.127,0.227,0.127
				c0.105,0,0.176-0.033,0.209-0.099c0.031-0.066,0.047-0.24,0.047-0.521V158.762z"/>
			<path fill="#575756" d="M616.579,154.591v6.834h-1.705v-0.406c-0.164,0.169-0.334,0.296-0.516,0.381
				c-0.18,0.084-0.367,0.126-0.564,0.126c-0.266,0-0.494-0.069-0.688-0.208c-0.195-0.14-0.32-0.301-0.375-0.483
				c-0.055-0.183-0.082-0.481-0.082-0.895v-2.622c0-0.431,0.027-0.736,0.082-0.916c0.055-0.18,0.182-0.338,0.379-0.475
				c0.195-0.136,0.432-0.205,0.705-0.205c0.211,0,0.402,0.038,0.578,0.114c0.178,0.076,0.338,0.19,0.48,0.343v-1.588H616.579z
				 M614.874,157.234c0-0.206-0.018-0.343-0.053-0.414c-0.035-0.071-0.105-0.105-0.209-0.105c-0.102,0-0.17,0.031-0.205,0.095
				s-0.053,0.205-0.053,0.424v2.744c0,0.228,0.018,0.377,0.051,0.449c0.035,0.072,0.1,0.108,0.193,0.108
				c0.109,0,0.184-0.04,0.221-0.121c0.037-0.08,0.055-0.276,0.055-0.589V157.234L614.874,157.234z"/>
			<path fill="#575756" d="M518.559,164.43l-0.027,0.495c0.15-0.2,0.318-0.35,0.502-0.448c0.182-0.099,0.383-0.147,0.6-0.147
				c0.266,0,0.492,0.07,0.686,0.213s0.312,0.306,0.361,0.492c0.047,0.186,0.072,0.5,0.072,0.944v2.36
				c0,0.509-0.031,0.871-0.092,1.086c-0.061,0.216-0.186,0.388-0.371,0.516c-0.188,0.128-0.414,0.191-0.678,0.191
				c-0.211,0-0.406-0.049-0.586-0.147c-0.182-0.099-0.346-0.245-0.494-0.438v1.283h-1.705v-6.399H518.559L518.559,164.43z
				 M519.045,166.059c0-0.347-0.014-0.556-0.039-0.629c-0.023-0.073-0.096-0.109-0.211-0.109c-0.111,0-0.184,0.042-0.217,0.126
				c-0.031,0.084-0.047,0.289-0.047,0.612v2.321c0,0.338,0.016,0.549,0.051,0.634c0.033,0.084,0.105,0.127,0.219,0.127
				c0.109,0,0.178-0.039,0.205-0.116c0.027-0.076,0.039-0.266,0.039-0.562V166.059L519.045,166.059z"/>
			<path fill="#575756" d="M525.17,166.397v1.372c0,0.504-0.023,0.873-0.076,1.107c-0.051,0.235-0.158,0.455-0.324,0.66
				c-0.166,0.203-0.379,0.354-0.641,0.451c-0.26,0.098-0.559,0.146-0.896,0.146c-0.377,0-0.695-0.043-0.957-0.125
				c-0.264-0.084-0.467-0.209-0.611-0.375c-0.145-0.168-0.248-0.37-0.309-0.608c-0.062-0.237-0.094-0.595-0.094-1.069v-1.436
				c0-0.521,0.057-0.928,0.168-1.221c0.113-0.291,0.316-0.526,0.609-0.704c0.293-0.177,0.666-0.267,1.123-0.267
				c0.383,0,0.711,0.057,0.984,0.172c0.273,0.113,0.486,0.262,0.637,0.444c0.148,0.183,0.25,0.372,0.305,0.565
				S525.17,166,525.17,166.397z M523.465,165.975c0-0.287-0.016-0.468-0.047-0.542c-0.031-0.075-0.096-0.112-0.197-0.112
				s-0.17,0.037-0.203,0.112c-0.033,0.074-0.051,0.255-0.051,0.542v2.528c0,0.265,0.018,0.437,0.051,0.517
				c0.033,0.081,0.1,0.121,0.197,0.121c0.104,0,0.168-0.037,0.201-0.11c0.033-0.072,0.049-0.23,0.049-0.473V165.975L523.465,165.975
				z"/>
			<path fill="#575756" d="M527.438,164.43l-0.066,0.737c0.246-0.527,0.605-0.808,1.076-0.838v1.971
				c-0.312,0-0.543,0.041-0.689,0.127c-0.145,0.084-0.236,0.201-0.27,0.353c-0.033,0.15-0.051,0.497-0.051,1.041v2.212h-1.705
				v-5.602L527.438,164.43L527.438,164.43z"/>
			<path fill="#575756" d="M534.225,164.43v4.313c0,0.584-0.014,0.959-0.039,1.129c-0.027,0.17-0.121,0.351-0.285,0.541
				c-0.162,0.189-0.391,0.334-0.682,0.435s-0.658,0.149-1.1,0.149c-0.543,0-0.98-0.092-1.309-0.275
				c-0.33-0.186-0.5-0.547-0.512-1.088h1.654c0,0.248,0.09,0.373,0.271,0.373c0.129,0,0.215-0.039,0.258-0.114
				c0.041-0.076,0.062-0.235,0.062-0.478v-0.422c-0.146,0.133-0.301,0.232-0.463,0.299c-0.162,0.068-0.33,0.103-0.508,0.103
				c-0.307,0-0.559-0.062-0.758-0.187c-0.199-0.123-0.334-0.285-0.408-0.486s-0.109-0.488-0.109-0.859v-2.035
				c0-0.531,0.098-0.914,0.287-1.147c0.191-0.233,0.482-0.351,0.875-0.351c0.213,0,0.408,0.043,0.584,0.131s0.332,0.219,0.471,0.395
				l0.123-0.423h1.586V164.43z M532.516,165.916c0-0.256-0.016-0.418-0.045-0.49c-0.027-0.07-0.094-0.104-0.195-0.104
				c-0.1,0-0.168,0.04-0.209,0.12s-0.062,0.238-0.062,0.475v1.883c0,0.25,0.018,0.412,0.047,0.488
				c0.031,0.074,0.098,0.111,0.195,0.111c0.111,0,0.186-0.045,0.219-0.135s0.049-0.295,0.049-0.612v-1.735H532.516z"/>
			<path fill="#575756" d="M536.54,164.43l-0.066,0.737c0.246-0.527,0.605-0.808,1.076-0.838v1.971
				c-0.312,0-0.543,0.041-0.688,0.127c-0.146,0.084-0.238,0.201-0.271,0.353c-0.033,0.15-0.051,0.497-0.051,1.041v2.212h-1.705
				v-5.602L536.54,164.43L536.54,164.43z"/>
			<path fill="#575756" d="M541.833,164.43v5.603h-1.734l0.029-0.466c-0.117,0.188-0.264,0.331-0.436,0.425
				c-0.174,0.096-0.373,0.143-0.6,0.143c-0.256,0-0.467-0.045-0.637-0.135c-0.168-0.09-0.293-0.209-0.373-0.359
				c-0.08-0.148-0.131-0.305-0.15-0.467c-0.02-0.161-0.029-0.482-0.029-0.965v-3.777h1.705v3.812c0,0.437,0.014,0.694,0.039,0.776
				c0.027,0.082,0.1,0.123,0.219,0.123c0.125,0,0.201-0.042,0.225-0.127c0.023-0.084,0.037-0.356,0.037-0.813v-3.771h1.705V164.43z"
				/>
			<path fill="#575756" d="M544.18,164.43l-0.029,0.495c0.152-0.2,0.318-0.35,0.502-0.448s0.383-0.147,0.6-0.147
				c0.266,0,0.494,0.07,0.688,0.213c0.191,0.143,0.312,0.306,0.359,0.492c0.049,0.186,0.072,0.5,0.072,0.944v2.36
				c0,0.509-0.029,0.871-0.09,1.086c-0.062,0.216-0.186,0.388-0.373,0.516s-0.412,0.191-0.676,0.191
				c-0.211,0-0.408-0.049-0.586-0.147c-0.182-0.099-0.346-0.245-0.494-0.438v1.283h-1.707v-6.399H544.18L544.18,164.43z
				 M544.667,166.059c0-0.347-0.014-0.556-0.039-0.629s-0.096-0.109-0.211-0.109c-0.111,0-0.184,0.042-0.217,0.126
				c-0.031,0.084-0.047,0.289-0.047,0.612v2.321c0,0.338,0.016,0.549,0.051,0.634c0.033,0.084,0.105,0.127,0.219,0.127
				c0.109,0,0.178-0.039,0.205-0.116c0.027-0.076,0.039-0.266,0.039-0.562V166.059L544.667,166.059z"/>
			<path fill="#575756" d="M550.792,166.397v1.372c0,0.504-0.025,0.873-0.076,1.107c-0.051,0.235-0.158,0.455-0.324,0.66
				c-0.166,0.203-0.379,0.354-0.641,0.451c-0.26,0.098-0.559,0.146-0.896,0.146c-0.377,0-0.697-0.043-0.957-0.125
				c-0.264-0.084-0.467-0.209-0.609-0.375c-0.146-0.168-0.25-0.37-0.312-0.608c-0.061-0.237-0.092-0.595-0.092-1.069v-1.436
				c0-0.521,0.057-0.928,0.168-1.221c0.113-0.291,0.316-0.526,0.607-0.704c0.293-0.177,0.668-0.267,1.123-0.267
				c0.383,0,0.711,0.057,0.986,0.172c0.275,0.113,0.486,0.262,0.635,0.444s0.252,0.372,0.307,0.565S550.792,166,550.792,166.397z
				 M549.084,165.975c0-0.287-0.014-0.468-0.045-0.542c-0.031-0.075-0.098-0.112-0.199-0.112s-0.168,0.037-0.203,0.112
				c-0.033,0.074-0.051,0.255-0.051,0.542v2.528c0,0.265,0.018,0.437,0.051,0.517c0.035,0.081,0.102,0.121,0.199,0.121
				c0.102,0,0.168-0.037,0.201-0.11c0.031-0.072,0.047-0.23,0.047-0.473V165.975L549.084,165.975z"/>
			<path fill="#575756" d="M554.834,166.22h-1.512v-0.305c0-0.258-0.016-0.422-0.043-0.492c-0.031-0.068-0.105-0.103-0.223-0.103
				c-0.096,0-0.168,0.031-0.215,0.095c-0.049,0.064-0.072,0.158-0.072,0.285c0,0.172,0.012,0.297,0.035,0.377
				c0.023,0.082,0.098,0.168,0.217,0.264c0.119,0.097,0.363,0.236,0.736,0.418c0.496,0.242,0.82,0.471,0.975,0.685
				s0.232,0.524,0.232,0.933c0,0.457-0.061,0.801-0.178,1.033c-0.119,0.231-0.316,0.41-0.594,0.535s-0.611,0.188-1.002,0.188
				c-0.434,0-0.805-0.066-1.113-0.201c-0.307-0.135-0.52-0.318-0.635-0.549c-0.115-0.231-0.172-0.58-0.172-1.047v-0.271h1.512v0.354
				c0,0.301,0.018,0.496,0.057,0.586c0.037,0.091,0.113,0.136,0.227,0.136c0.121,0,0.205-0.03,0.252-0.091s0.072-0.188,0.072-0.383
				c0-0.267-0.031-0.435-0.094-0.502s-0.395-0.268-0.992-0.6c-0.5-0.281-0.805-0.537-0.916-0.766
				c-0.109-0.229-0.164-0.502-0.164-0.817c0-0.448,0.059-0.776,0.178-0.989s0.318-0.377,0.602-0.492s0.611-0.174,0.986-0.174
				c0.371,0,0.686,0.047,0.947,0.141c0.26,0.096,0.459,0.22,0.6,0.375c0.139,0.154,0.223,0.298,0.252,0.43
				c0.031,0.132,0.045,0.339,0.045,0.621V166.22L554.834,166.22z"/>
			<path fill="#575756" d="M560.827,163.197v6.834h-1.707v-0.406c-0.164,0.17-0.334,0.297-0.514,0.381
				c-0.182,0.084-0.369,0.127-0.566,0.127c-0.264,0-0.494-0.069-0.688-0.209c-0.193-0.139-0.318-0.301-0.373-0.482
				c-0.055-0.184-0.082-0.48-0.082-0.895v-2.623c0-0.43,0.027-0.735,0.082-0.916c0.055-0.18,0.182-0.338,0.377-0.475
				c0.197-0.136,0.432-0.205,0.705-0.205c0.211,0,0.404,0.039,0.58,0.114c0.178,0.076,0.336,0.19,0.48,0.343v-1.588H560.827z
				 M559.12,165.839c0-0.205-0.018-0.342-0.053-0.414c-0.035-0.07-0.105-0.104-0.209-0.104c-0.102,0-0.168,0.031-0.205,0.095
				c-0.035,0.064-0.053,0.205-0.053,0.424v2.744c0,0.229,0.018,0.377,0.051,0.449s0.098,0.108,0.193,0.108
				c0.111,0,0.184-0.04,0.221-0.121c0.035-0.08,0.055-0.276,0.055-0.589V165.839L559.12,165.839z"/>
			<path fill="#575756" d="M565.299,167.33h-2.207v1.211c0,0.254,0.02,0.418,0.055,0.49c0.035,0.073,0.107,0.11,0.211,0.11
				c0.129,0,0.217-0.05,0.26-0.146c0.043-0.098,0.064-0.285,0.064-0.564v-0.739h1.617v0.414c0,0.347-0.02,0.612-0.064,0.798
				c-0.043,0.186-0.146,0.385-0.307,0.596s-0.363,0.369-0.609,0.475s-0.555,0.158-0.928,0.158c-0.359,0-0.678-0.053-0.953-0.156
				s-0.49-0.247-0.645-0.43c-0.154-0.182-0.26-0.381-0.318-0.6c-0.059-0.218-0.088-0.535-0.088-0.951v-1.635
				c0-0.49,0.066-0.876,0.197-1.158c0.133-0.283,0.35-0.5,0.65-0.65s0.646-0.227,1.039-0.227c0.479,0,0.873,0.092,1.184,0.272
				c0.312,0.183,0.529,0.422,0.654,0.722c0.125,0.301,0.188,0.721,0.188,1.264V167.33L565.299,167.33z M563.59,166.417v-0.408
				c0-0.291-0.016-0.477-0.047-0.562c-0.031-0.084-0.094-0.126-0.189-0.126c-0.117,0-0.191,0.036-0.219,0.106
				c-0.027,0.072-0.043,0.266-0.043,0.582v0.408H563.59L563.59,166.417z"/>
			<path fill="#575756" d="M571.245,167.33h-2.209v1.211c0,0.254,0.018,0.418,0.055,0.49c0.037,0.073,0.107,0.11,0.211,0.11
				c0.131,0,0.217-0.05,0.262-0.146c0.043-0.098,0.064-0.285,0.064-0.564v-0.739h1.617v0.414c0,0.347-0.023,0.612-0.066,0.798
				s-0.145,0.385-0.305,0.596s-0.363,0.369-0.611,0.475c-0.246,0.105-0.555,0.158-0.926,0.158c-0.359,0-0.678-0.053-0.953-0.156
				s-0.492-0.247-0.645-0.43c-0.152-0.182-0.258-0.381-0.318-0.6c-0.059-0.218-0.09-0.535-0.09-0.951v-1.635
				c0-0.49,0.066-0.876,0.199-1.158c0.133-0.283,0.35-0.5,0.65-0.65s0.646-0.227,1.039-0.227c0.479,0,0.873,0.092,1.184,0.272
				c0.311,0.183,0.529,0.422,0.654,0.722c0.125,0.301,0.188,0.721,0.188,1.264V167.33L571.245,167.33z M569.536,166.417v-0.408
				c0-0.291-0.018-0.477-0.047-0.562c-0.031-0.084-0.096-0.126-0.189-0.126c-0.119,0-0.191,0.036-0.221,0.106
				c-0.029,0.072-0.041,0.266-0.041,0.582v0.408H569.536L569.536,166.417z"/>
			<path fill="#575756" d="M575.68,163.197v6.834h-1.705v-0.406c-0.164,0.17-0.336,0.297-0.516,0.381s-0.369,0.127-0.564,0.127
				c-0.266,0-0.494-0.069-0.688-0.209c-0.195-0.139-0.318-0.301-0.373-0.482c-0.055-0.184-0.084-0.48-0.084-0.895v-2.623
				c0-0.43,0.029-0.735,0.084-0.916c0.055-0.18,0.18-0.338,0.377-0.475c0.197-0.136,0.432-0.205,0.705-0.205
				c0.211,0,0.404,0.039,0.58,0.114c0.176,0.076,0.336,0.19,0.48,0.343v-1.588H575.68z M573.975,165.839
				c0-0.205-0.018-0.342-0.053-0.414c-0.035-0.07-0.104-0.104-0.209-0.104c-0.1,0-0.168,0.031-0.205,0.095
				c-0.035,0.064-0.053,0.205-0.053,0.424v2.744c0,0.229,0.018,0.377,0.051,0.449s0.1,0.108,0.195,0.108
				c0.109,0,0.182-0.04,0.219-0.121c0.037-0.08,0.055-0.276,0.055-0.589V165.839L573.975,165.839z"/>
			<path fill="#575756" d="M577.817,166.6h-1.6v-0.375c0-0.435,0.049-0.769,0.15-1.003c0.1-0.235,0.299-0.442,0.602-0.623
				c0.303-0.182,0.691-0.27,1.172-0.27c0.578,0,1.014,0.102,1.307,0.305c0.291,0.205,0.469,0.455,0.525,0.752
				c0.061,0.297,0.09,0.908,0.09,1.834v2.812h-1.658v-0.5c-0.105,0.2-0.238,0.35-0.404,0.45c-0.164,0.101-0.359,0.149-0.588,0.149
				c-0.299,0-0.572-0.082-0.822-0.25c-0.248-0.168-0.373-0.534-0.373-1.1v-0.461c0-0.419,0.066-0.705,0.197-0.857
				c0.133-0.151,0.461-0.328,0.984-0.531c0.561-0.219,0.859-0.367,0.898-0.443s0.059-0.23,0.059-0.464
				c0-0.292-0.021-0.483-0.064-0.571c-0.043-0.09-0.117-0.134-0.217-0.134c-0.115,0-0.189,0.037-0.215,0.112
				c-0.029,0.074-0.043,0.268-0.043,0.58V166.6L577.817,166.6z M578.358,167.369c-0.273,0.199-0.432,0.366-0.477,0.502
				c-0.043,0.135-0.064,0.33-0.064,0.582c0,0.291,0.02,0.478,0.059,0.562c0.037,0.084,0.113,0.127,0.225,0.127
				c0.107,0,0.178-0.033,0.209-0.099c0.033-0.066,0.049-0.24,0.049-0.521V167.369L578.358,167.369z"/>
			<path fill="#575756" d="M584.53,163.197v6.834h-1.707v-0.406c-0.162,0.17-0.334,0.297-0.516,0.381
				c-0.18,0.084-0.367,0.127-0.564,0.127c-0.264,0-0.494-0.069-0.689-0.209c-0.193-0.139-0.318-0.301-0.373-0.482
				c-0.055-0.184-0.082-0.48-0.082-0.895v-2.623c0-0.43,0.027-0.735,0.082-0.916c0.055-0.18,0.182-0.338,0.377-0.475
				c0.197-0.136,0.434-0.205,0.705-0.205c0.211,0,0.404,0.039,0.58,0.114c0.178,0.076,0.336,0.19,0.48,0.343v-1.588H584.53z
				 M582.825,165.839c0-0.205-0.02-0.342-0.053-0.414c-0.035-0.07-0.105-0.104-0.209-0.104s-0.172,0.031-0.205,0.095
				c-0.035,0.064-0.055,0.205-0.055,0.424v2.744c0,0.229,0.018,0.377,0.053,0.449c0.033,0.072,0.098,0.108,0.193,0.108
				c0.109,0,0.184-0.04,0.219-0.121c0.037-0.08,0.057-0.276,0.057-0.589V165.839z"/>
			<path fill="#575756" d="M590.237,164.43l-0.488,4.053c-0.076,0.642-0.141,1.08-0.193,1.313c-0.053,0.232-0.139,0.426-0.26,0.578
				c-0.121,0.151-0.289,0.264-0.504,0.336s-0.559,0.106-1.031,0.106h-1.033v-0.896c0.264,0,0.436-0.012,0.512-0.039
				s0.113-0.086,0.113-0.18c0-0.045-0.035-0.24-0.105-0.586l-0.934-4.687h1.549l0.561,3.782l0.273-3.782H590.237z"/>
			<path fill="#575756" d="M595.547,166.22h-1.512v-0.305c0-0.258-0.016-0.422-0.045-0.492c-0.029-0.068-0.104-0.103-0.223-0.103
				c-0.096,0-0.166,0.031-0.215,0.095c-0.047,0.064-0.07,0.158-0.07,0.285c0,0.172,0.012,0.297,0.035,0.377
				c0.023,0.082,0.096,0.168,0.215,0.264c0.119,0.097,0.365,0.236,0.736,0.418c0.496,0.242,0.82,0.471,0.977,0.685
				c0.154,0.214,0.23,0.524,0.23,0.933c0,0.457-0.059,0.801-0.178,1.033c-0.117,0.231-0.314,0.41-0.592,0.535
				s-0.611,0.188-1.004,0.188c-0.434,0-0.805-0.066-1.111-0.201c-0.309-0.135-0.521-0.318-0.635-0.549
				c-0.115-0.231-0.174-0.58-0.174-1.047v-0.271h1.512v0.354c0,0.301,0.02,0.496,0.057,0.586c0.039,0.091,0.113,0.136,0.227,0.136
				c0.121,0,0.207-0.03,0.254-0.091s0.072-0.188,0.072-0.383c0-0.267-0.031-0.435-0.094-0.502c-0.064-0.067-0.395-0.268-0.992-0.6
				c-0.502-0.281-0.807-0.537-0.916-0.766c-0.109-0.229-0.164-0.502-0.164-0.817c0-0.448,0.059-0.776,0.176-0.989
				c0.119-0.213,0.318-0.377,0.602-0.492s0.613-0.174,0.986-0.174c0.371,0,0.688,0.047,0.947,0.141
				c0.262,0.096,0.461,0.22,0.6,0.375c0.141,0.154,0.225,0.298,0.254,0.43s0.043,0.339,0.043,0.621v0.326H595.547z"/>
			<path fill="#575756" d="M599.997,167.33h-2.207v1.211c0,0.254,0.018,0.418,0.055,0.49c0.035,0.073,0.107,0.11,0.211,0.11
				c0.129,0,0.217-0.05,0.26-0.146c0.043-0.098,0.064-0.285,0.064-0.564v-0.739h1.617v0.414c0,0.347-0.021,0.612-0.064,0.798
				s-0.146,0.385-0.307,0.596s-0.363,0.369-0.609,0.475s-0.555,0.158-0.928,0.158c-0.359,0-0.678-0.053-0.953-0.156
				s-0.49-0.247-0.645-0.43c-0.154-0.182-0.26-0.381-0.318-0.6c-0.059-0.218-0.088-0.535-0.088-0.951v-1.635
				c0-0.49,0.066-0.876,0.197-1.158c0.133-0.283,0.35-0.5,0.65-0.65s0.646-0.227,1.037-0.227c0.48,0,0.873,0.092,1.186,0.272
				c0.311,0.183,0.529,0.422,0.654,0.722c0.125,0.301,0.188,0.721,0.188,1.264V167.33L599.997,167.33z M598.288,166.417v-0.408
				c0-0.291-0.016-0.477-0.047-0.562c-0.031-0.084-0.094-0.126-0.189-0.126c-0.119,0-0.191,0.036-0.219,0.106
				c-0.029,0.072-0.043,0.266-0.043,0.582v0.408H598.288L598.288,166.417z"/>
			<path fill="#575756" d="M603.934,164.43l-0.68,2.677l0.824,2.926h-1.658c-0.166-0.74-0.291-1.375-0.375-1.908
				c-0.115,0.666-0.238,1.301-0.371,1.908h-1.426l0.734-2.926l-0.734-2.677h1.426c0.23,1.146,0.354,1.795,0.371,1.95
				c0.164-0.957,0.289-1.605,0.375-1.95H603.934z"/>
			<path fill="#575756" d="M608.161,166.397v1.372c0,0.504-0.025,0.873-0.076,1.107c-0.051,0.235-0.158,0.455-0.324,0.66
				c-0.166,0.203-0.379,0.354-0.641,0.451c-0.26,0.098-0.561,0.146-0.896,0.146c-0.377,0-0.695-0.043-0.959-0.125
				c-0.262-0.084-0.465-0.209-0.609-0.375c-0.145-0.168-0.248-0.37-0.311-0.608c-0.061-0.237-0.092-0.595-0.092-1.069v-1.436
				c0-0.521,0.055-0.928,0.168-1.221c0.113-0.291,0.316-0.526,0.609-0.704c0.293-0.177,0.666-0.267,1.123-0.267
				c0.383,0,0.711,0.057,0.984,0.172c0.273,0.113,0.486,0.262,0.637,0.444c0.148,0.183,0.25,0.372,0.305,0.565
				S608.161,166,608.161,166.397z M606.456,165.975c0-0.287-0.016-0.468-0.045-0.542c-0.031-0.075-0.098-0.112-0.199-0.112
				c-0.1,0-0.168,0.037-0.203,0.112c-0.033,0.074-0.051,0.255-0.051,0.542v2.528c0,0.265,0.018,0.437,0.051,0.517
				c0.035,0.081,0.102,0.121,0.199,0.121c0.102,0,0.168-0.037,0.201-0.11c0.031-0.072,0.047-0.23,0.047-0.473V165.975
				L606.456,165.975z"/>
		</g>
		<path fill="#A0C219" d="M580.989,83.596c-0.148,1.076-0.277,2.155-0.451,3.229c-2.07,12.853-8.703,22.704-19.773,29.459
			c-7.531,4.597-15.801,6.354-24.609,5.508c-5.812-0.558-11.217-2.333-16.287-5.198c-1.77-1-2.072-0.934-3.521,0.517
			c-6.648,6.648-13.293,13.3-19.947,19.942c-2,1.997-4.273,3.469-7.121,4.044c-4.699,0.95-9.971-3.243-10.02-8.037
			c-0.039-3.675,1.695-6.508,4.174-8.992c6.689-6.703,13.391-13.392,20.084-20.087c1.262-1.262,1.342-1.634,0.445-3.199
			c-2.723-4.759-4.512-9.852-5.18-15.282c-0.775-6.319-0.25-12.562,2.002-18.554c4.549-12.104,12.84-20.53,25.014-25.038
			c3.363-1.245,6.846-1.97,10.418-2.266c0.225-0.019,0.441-0.104,0.662-0.158c1.855,0,3.709,0,5.564,0
			c0.291,0.056,0.578,0.14,0.871,0.163c4.35,0.344,8.564,1.333,12.535,3.1c12.771,5.683,20.867,15.329,24.111,28.955
			c0.494,2.075,0.693,4.219,1.029,6.332C580.989,79.887,580.989,81.741,580.989,83.596z M570.198,80.739
			c-0.15-16.804-13.332-30.387-30.426-30.427c-16.869-0.04-30.416,13.338-30.496,30.439c-0.078,16.799,13.74,30.575,30.508,30.451
			C556.766,111.077,570.045,97.653,570.198,80.739z"/>
		<path fill="#A0C219" d="M541.547,55.925c3.562,0.121,6.969,0.84,10.254,2.145c2.289,0.908,3.377,3.271,2.564,5.505
			c-0.809,2.223-3.176,3.379-5.494,2.525c-2.957-1.089-5.951-1.753-9.115-1.363c-6.633,0.815-11.502,4.18-14.574,10.112
			c-0.596,1.151-1.117,2.332-2.342,2.977c-1.623,0.856-3.541,0.64-4.896-0.554c-1.318-1.16-1.809-3.111-1.094-4.806
			c1.445-3.423,3.5-6.45,6.209-8.998c3.771-3.544,8.195-5.882,13.287-6.866C538.059,56.271,539.813,56.145,541.547,55.925z"/>
		<g>
			<path fill="#A0C219" d="M516.833,132.398h1.383l0.992,7.923h0.127l1.061-7.923h1.303l-1.441,8.833h-1.959L516.833,132.398z"/>
			<path fill="#A0C219" d="M527.899,134.702v2.621h-3.355v1.865c0,0.527,0.07,0.885,0.207,1.074
				c0.139,0.189,0.385,0.284,0.738,0.284c0.338,0,0.578-0.097,0.715-0.292c0.139-0.195,0.209-0.55,0.209-1.065v-0.979h1.486v0.722
				c0,0.974-0.178,1.637-0.529,1.989c-0.355,0.352-0.98,0.528-1.879,0.528c-0.893,0-1.518-0.179-1.873-0.537
				c-0.357-0.358-0.537-1.024-0.537-1.998v-4.21c0-0.98,0.176-1.644,0.525-1.994s0.979-0.524,1.885-0.524
				c0.891,0,1.516,0.179,1.873,0.537C527.719,133.079,527.899,133.739,527.899,134.702z M526.413,134.435
				c0-0.521-0.07-0.876-0.209-1.065s-0.375-0.284-0.715-0.284c-0.346,0-0.59,0.1-0.732,0.301c-0.143,0.201-0.213,0.55-0.213,1.048
				v1.994h1.867v-1.994H526.413z"/>
			<path fill="#A0C219" d="M533.35,132.201v1.074h-0.24c-0.607,0-1.037,0.113-1.291,0.339c-0.254,0.227-0.381,0.618-0.381,1.173
				v6.444h-1.418v-8.833h1.326l0.092,0.542c0.199-0.241,0.443-0.427,0.732-0.559c0.287-0.132,0.602-0.198,0.939-0.198
				c0.021,0,0.061,0.003,0.113,0.009C533.278,132.198,533.321,132.201,533.35,132.201z"/>
			<path fill="#A0C219" d="M541.305,132.94l0.115-0.542h1.324v9.787c0,0.974-0.176,1.636-0.529,1.985s-0.979,0.524-1.879,0.524
				c-0.861,0-1.479-0.17-1.85-0.511c-0.373-0.341-0.561-0.921-0.561-1.74v-0.473h1.488v0.473c0,0.539,0.066,0.899,0.201,1.083
				c0.135,0.183,0.375,0.275,0.721,0.275c0.354,0,0.604-0.099,0.748-0.296c0.146-0.198,0.221-0.552,0.221-1.062v-2.148
				c-0.191,0.252-0.432,0.438-0.715,0.559c-0.285,0.12-0.623,0.18-1.016,0.18c-0.6,0-1.023-0.147-1.273-0.442
				s-0.375-0.815-0.375-1.56v-4.821c0-0.75,0.127-1.276,0.381-1.577c0.252-0.301,0.676-0.451,1.268-0.451
				c0.377,0,0.711,0.064,1.004,0.193C540.87,132.505,541.114,132.694,541.305,132.94z M541.305,134.435
				c0-0.504-0.072-0.858-0.221-1.061c-0.145-0.204-0.387-0.305-0.725-0.305c-0.355,0-0.605,0.099-0.75,0.296
				c-0.146,0.197-0.221,0.554-0.221,1.07v4.348c0,0.521,0.074,0.88,0.221,1.078c0.145,0.198,0.395,0.296,0.75,0.296
				c0.338,0,0.58-0.103,0.725-0.309c0.146-0.207,0.221-0.562,0.221-1.065V134.435z"/>
			<path fill="#A0C219" d="M548.245,132.201v1.074h-0.242c-0.607,0-1.039,0.113-1.291,0.339c-0.254,0.227-0.381,0.618-0.381,1.173
				v6.444h-1.418v-8.833h1.326l0.092,0.542c0.201-0.241,0.445-0.427,0.732-0.559c0.287-0.132,0.602-0.198,0.939-0.198
				c0.023,0,0.062,0.003,0.115,0.009C548.17,132.198,548.213,132.201,548.245,132.201z"/>
			<path fill="#A0C219" d="M553.891,134.461v6.771h-1.324l-0.094-0.542c-0.191,0.247-0.436,0.434-0.73,0.563
				s-0.635,0.193-1.021,0.193c-0.6,0-1.023-0.15-1.271-0.451c-0.25-0.301-0.375-0.826-0.375-1.577v-1.762
				c0-0.693,0.252-1.187,0.754-1.479c0.504-0.292,1.387-0.455,2.646-0.49v-1.254c0-0.533-0.066-0.891-0.201-1.074
				s-0.375-0.275-0.721-0.275c-0.332,0-0.566,0.084-0.709,0.253s-0.213,0.46-0.213,0.872v0.49h-1.418v-0.241
				c0-0.882,0.172-1.482,0.52-1.8c0.346-0.318,0.959-0.477,1.844-0.477c0.859,0,1.463,0.161,1.805,0.481
				C553.723,132.983,553.891,133.584,553.891,134.461z M552.463,136.549c-0.738,0.023-1.24,0.12-1.504,0.292
				c-0.266,0.172-0.396,0.481-0.396,0.928v1.418c0,0.527,0.068,0.885,0.205,1.074c0.141,0.189,0.387,0.284,0.738,0.284
				c0.346,0,0.594-0.102,0.744-0.305c0.15-0.203,0.225-0.554,0.225-1.052L552.463,136.549z M551.932,129.322h1.625l-1.51,1.917
				h-1.129L551.932,129.322z"/>
			<path fill="#A0C219" d="M558.653,128.369v0.911h-0.207c-0.33,0-0.561,0.047-0.686,0.142c-0.127,0.094-0.189,0.265-0.189,0.511
				v2.466h1.082v0.876h-1.082v7.957h-1.418v-7.957h-0.771v-0.876h0.771v-1.916c0-0.905,0.131-1.487,0.393-1.744
				c0.26-0.258,0.752-0.387,1.477-0.387c0.16,0,0.287,0.001,0.379,0.004C558.493,128.358,558.577,128.363,558.653,128.369z"/>
			<path fill="#A0C219" d="M559.793,128.558h1.58v1.34h-1.58V128.558z M559.864,132.398h1.418v8.833h-1.418V132.398z"/>
			<path fill="#A0C219" d="M567.84,134.702v0.567h-1.486v-0.833c0-0.579-0.053-0.948-0.156-1.108
				c-0.104-0.16-0.293-0.241-0.57-0.241s-0.469,0.09-0.576,0.271s-0.162,0.54-0.162,1.079v4.752c0,0.55,0.057,0.914,0.166,1.091
				c0.111,0.177,0.311,0.266,0.596,0.266c0.268,0,0.453-0.082,0.553-0.245c0.1-0.164,0.148-0.534,0.148-1.113v-0.945h1.488v0.688
				c0,0.974-0.164,1.637-0.49,1.989s-0.9,0.528-1.723,0.528c-0.816,0-1.387-0.181-1.713-0.542c-0.326-0.361-0.49-1.025-0.49-1.993
				v-4.21c0-0.98,0.162-1.644,0.484-1.994s0.895-0.524,1.719-0.524c0.814,0,1.387,0.179,1.717,0.537
				C567.674,133.079,567.84,133.739,567.84,134.702z"/>
			<path fill="#A0C219" d="M574.481,134.702v4.228c0,0.974-0.178,1.637-0.531,1.989s-0.98,0.528-1.879,0.528
				c-0.893,0-1.516-0.179-1.873-0.537c-0.357-0.358-0.535-1.024-0.535-1.998v-4.21c0-0.98,0.174-1.644,0.523-1.994
				s0.979-0.524,1.885-0.524c0.891,0,1.516,0.179,1.873,0.537C574.301,133.079,574.481,133.739,574.481,134.702z M572.993,134.435
				c0-0.521-0.068-0.876-0.207-1.065s-0.377-0.284-0.715-0.284c-0.346,0-0.59,0.1-0.732,0.301c-0.141,0.201-0.213,0.55-0.213,1.048
				v4.752c0,0.527,0.07,0.885,0.209,1.074c0.137,0.189,0.383,0.284,0.738,0.284c0.338,0,0.576-0.097,0.715-0.292
				c0.137-0.195,0.207-0.55,0.207-1.065v-4.753H572.993z"/>
			<path fill="#A0C219" d="M582.03,128.97h1.441v12.262h-1.441v-10.913c-0.277,0.183-0.553,0.338-0.83,0.464
				s-0.562,0.229-0.854,0.309v-1.194c0.33-0.12,0.637-0.258,0.916-0.412C581.543,129.331,581.799,129.159,582.03,128.97z"/>
		</g>
	</g>
	<g>
		<g>
			<path fill="#575756" d="M516.875,307.025h1.789c0.484,0,0.857,0.037,1.117,0.113s0.457,0.188,0.588,0.33
				c0.131,0.145,0.219,0.318,0.266,0.521c0.045,0.205,0.068,0.52,0.068,0.947v0.596c0,0.438-0.045,0.754-0.135,0.955
				c-0.09,0.199-0.256,0.354-0.496,0.459c-0.24,0.107-0.555,0.16-0.943,0.16h-0.477v2.752h-1.777V307.025L516.875,307.025z
				 M518.653,308.195v1.738c0.051,0.002,0.096,0.006,0.131,0.006c0.164,0,0.277-0.041,0.34-0.121c0.064-0.08,0.096-0.246,0.096-0.5
				v-0.562c0-0.232-0.037-0.385-0.109-0.455C519.036,308.23,518.883,308.195,518.653,308.195z"/>
			<path fill="#575756" d="M522.92,307.025v0.891h-1.756v-0.891H522.92z M522.92,308.257v5.604h-1.756v-5.604H522.92z"/>
			<path fill="#575756" d="M525.239,308.257l-0.066,0.738c0.246-0.527,0.605-0.809,1.076-0.838v1.971
				c-0.312,0-0.543,0.041-0.689,0.127c-0.145,0.084-0.236,0.201-0.27,0.354c-0.033,0.148-0.051,0.496-0.051,1.041v2.211h-1.705
				v-5.602h1.705V308.257z"/>
			<path fill="#575756" d="M528.151,310.427h-1.6v-0.375c0-0.434,0.049-0.768,0.15-1.002c0.1-0.234,0.299-0.441,0.602-0.623
				c0.301-0.18,0.691-0.27,1.172-0.27c0.578,0,1.012,0.102,1.305,0.305c0.293,0.205,0.469,0.455,0.527,0.752
				c0.061,0.297,0.09,0.908,0.09,1.834v2.812h-1.66v-0.5c-0.104,0.201-0.238,0.35-0.402,0.451c-0.164,0.1-0.361,0.148-0.59,0.148
				c-0.297,0-0.572-0.082-0.82-0.25c-0.25-0.168-0.375-0.535-0.375-1.1v-0.461c0-0.418,0.066-0.705,0.199-0.857
				s0.459-0.328,0.984-0.531c0.559-0.219,0.859-0.367,0.898-0.443s0.061-0.23,0.061-0.463c0-0.293-0.023-0.484-0.066-0.572
				c-0.043-0.09-0.115-0.133-0.217-0.133c-0.115,0-0.188,0.037-0.215,0.111c-0.029,0.074-0.043,0.268-0.043,0.58V310.427z
				 M529.946,306.738l-1.389,1.145H527.7l0.744-1.145H529.946z M528.692,311.197c-0.273,0.199-0.432,0.367-0.475,0.502
				s-0.064,0.33-0.064,0.582c0,0.291,0.018,0.477,0.057,0.561c0.037,0.084,0.113,0.127,0.227,0.127c0.105,0,0.176-0.031,0.209-0.098
				c0.031-0.066,0.049-0.24,0.049-0.521v-1.152H528.692z"/>
			<path fill="#575756" d="M532.668,308.257l-0.029,0.533c0.133-0.211,0.289-0.369,0.473-0.475c0.184-0.107,0.391-0.16,0.625-0.16
				c0.457,0,0.814,0.211,1.076,0.635c0.145-0.211,0.307-0.371,0.484-0.477c0.182-0.105,0.381-0.158,0.602-0.158
				c0.289,0,0.529,0.068,0.719,0.211c0.189,0.141,0.312,0.312,0.365,0.516c0.053,0.205,0.08,0.537,0.08,0.994v3.982h-1.654v-3.652
				c0-0.479-0.018-0.775-0.049-0.889s-0.107-0.172-0.227-0.172c-0.121,0-0.199,0.057-0.232,0.168
				c-0.037,0.113-0.055,0.41-0.055,0.893v3.65h-1.654v-3.559c0-0.549-0.014-0.879-0.039-0.988c-0.027-0.109-0.102-0.166-0.223-0.166
				c-0.076,0-0.141,0.029-0.193,0.086c-0.055,0.059-0.084,0.129-0.088,0.213c-0.008,0.082-0.01,0.26-0.01,0.529v3.883h-1.654v-5.602
				h1.684V308.257z"/>
			<path fill="#575756" d="M539.407,307.025v0.891h-1.756v-0.891H539.407z M539.407,308.257v5.604h-1.756v-5.604H539.407z"/>
			<path fill="#575756" d="M543.899,307.025v6.834h-1.707v-0.406c-0.162,0.17-0.334,0.297-0.516,0.381
				c-0.18,0.084-0.369,0.127-0.564,0.127c-0.266,0-0.494-0.07-0.689-0.209c-0.193-0.139-0.318-0.301-0.373-0.482
				c-0.055-0.184-0.084-0.48-0.084-0.895v-2.623c0-0.43,0.027-0.736,0.084-0.916c0.055-0.18,0.182-0.338,0.377-0.475
				c0.197-0.137,0.434-0.205,0.705-0.205c0.211,0,0.404,0.039,0.58,0.115c0.176,0.074,0.336,0.189,0.48,0.342v-1.588H543.899
				L543.899,307.025z M542.192,309.667c0-0.205-0.018-0.342-0.053-0.414c-0.035-0.07-0.104-0.104-0.209-0.104
				c-0.102,0-0.17,0.029-0.205,0.094s-0.053,0.205-0.053,0.424v2.744c0,0.229,0.018,0.377,0.051,0.449s0.098,0.107,0.193,0.107
				c0.111,0,0.184-0.039,0.221-0.121c0.037-0.08,0.055-0.275,0.055-0.588V309.667z"/>
			<path fill="#575756" d="M548.372,311.158h-2.207v1.211c0,0.254,0.018,0.418,0.055,0.49s0.107,0.109,0.211,0.109
				c0.129,0,0.217-0.049,0.26-0.145c0.043-0.098,0.064-0.285,0.064-0.564v-0.74h1.617v0.414c0,0.348-0.021,0.613-0.064,0.799
				s-0.146,0.385-0.307,0.596s-0.363,0.369-0.609,0.475c-0.248,0.105-0.555,0.158-0.926,0.158c-0.359,0-0.68-0.053-0.955-0.156
				s-0.49-0.248-0.643-0.43c-0.154-0.182-0.26-0.381-0.32-0.6c-0.059-0.219-0.088-0.535-0.088-0.951v-1.635
				c0-0.49,0.066-0.877,0.199-1.158c0.133-0.283,0.348-0.5,0.648-0.65c0.303-0.15,0.648-0.227,1.039-0.227
				c0.479,0,0.873,0.092,1.186,0.271c0.311,0.184,0.529,0.422,0.654,0.723s0.188,0.721,0.188,1.264v0.746H548.372z M546.663,310.246
				v-0.408c0-0.291-0.016-0.477-0.047-0.562c-0.031-0.084-0.094-0.125-0.189-0.125c-0.117,0-0.189,0.035-0.219,0.105
				c-0.029,0.072-0.043,0.266-0.043,0.582v0.408H546.663L546.663,310.246z"/>
			<path fill="#575756" d="M552.188,308.257l-0.029,0.496c0.15-0.201,0.318-0.35,0.502-0.449c0.182-0.098,0.383-0.146,0.6-0.146
				c0.264,0,0.492,0.07,0.686,0.213c0.191,0.143,0.312,0.305,0.361,0.492c0.047,0.186,0.072,0.5,0.072,0.943v2.361
				c0,0.508-0.031,0.871-0.092,1.086s-0.186,0.387-0.371,0.516c-0.188,0.129-0.414,0.191-0.678,0.191
				c-0.211,0-0.406-0.049-0.586-0.148c-0.182-0.098-0.346-0.244-0.494-0.438v1.283h-1.705v-6.4H552.188z M552.674,309.886
				c0-0.346-0.014-0.555-0.039-0.629c-0.023-0.072-0.096-0.107-0.211-0.107c-0.111,0-0.184,0.041-0.217,0.125
				c-0.031,0.084-0.049,0.289-0.049,0.611v2.322c0,0.338,0.018,0.549,0.051,0.633c0.035,0.086,0.107,0.127,0.221,0.127
				c0.109,0,0.178-0.039,0.205-0.115s0.039-0.266,0.039-0.562V309.886L552.674,309.886z"/>
			<path fill="#575756" d="M558.799,310.224v1.373c0,0.504-0.025,0.873-0.076,1.107c-0.051,0.236-0.158,0.455-0.324,0.66
				c-0.166,0.203-0.381,0.354-0.641,0.451s-0.559,0.146-0.896,0.146c-0.377,0-0.697-0.043-0.957-0.125
				c-0.264-0.084-0.465-0.209-0.611-0.375c-0.145-0.168-0.248-0.371-0.311-0.609c-0.062-0.236-0.094-0.594-0.094-1.068v-1.436
				c0-0.521,0.059-0.928,0.17-1.221c0.111-0.291,0.314-0.527,0.607-0.705c0.293-0.176,0.668-0.266,1.123-0.266
				c0.383,0,0.711,0.057,0.986,0.172c0.275,0.113,0.486,0.262,0.635,0.445c0.15,0.182,0.252,0.371,0.307,0.564
				S558.799,309.828,558.799,310.224z M557.094,309.802c0-0.287-0.016-0.467-0.047-0.541c-0.031-0.076-0.096-0.111-0.197-0.111
				s-0.17,0.035-0.203,0.111c-0.033,0.074-0.051,0.254-0.051,0.541v2.529c0,0.264,0.018,0.436,0.051,0.516
				c0.033,0.082,0.1,0.121,0.197,0.121c0.102,0,0.168-0.037,0.201-0.109s0.049-0.23,0.049-0.473V309.802L557.094,309.802z"/>
			<path fill="#575756" d="M561.067,307.025v1.617c0.141-0.164,0.297-0.285,0.471-0.365c0.172-0.08,0.361-0.121,0.562-0.121
				c0.234,0,0.436,0.037,0.607,0.109c0.172,0.074,0.303,0.178,0.393,0.309c0.092,0.133,0.146,0.262,0.164,0.389
				c0.018,0.125,0.027,0.396,0.027,0.811v2.523c0,0.412-0.027,0.717-0.084,0.918c-0.055,0.201-0.184,0.375-0.385,0.523
				c-0.203,0.146-0.443,0.221-0.723,0.221c-0.199,0-0.387-0.043-0.559-0.131c-0.174-0.086-0.332-0.219-0.475-0.395l-0.111,0.424
				h-1.596v-6.834h1.707V307.025z M561.584,309.849c0-0.289-0.018-0.479-0.055-0.566c-0.037-0.09-0.107-0.133-0.215-0.133
				c-0.104,0-0.172,0.039-0.203,0.115c-0.031,0.078-0.045,0.271-0.045,0.584v2.416c0,0.301,0.016,0.494,0.053,0.578
				c0.035,0.084,0.104,0.127,0.209,0.127s0.176-0.045,0.209-0.131c0.031-0.088,0.047-0.297,0.047-0.629V309.849L561.584,309.849z"/>
			<path fill="#575756" d="M565.61,307.025v6.834h-1.756v-6.834H565.61z"/>
			<path fill="#575756" d="M567.745,310.427h-1.6v-0.375c0-0.434,0.051-0.768,0.148-1.002c0.1-0.234,0.301-0.441,0.604-0.623
				c0.301-0.18,0.691-0.27,1.174-0.27c0.576,0,1.012,0.102,1.303,0.305c0.293,0.205,0.469,0.455,0.529,0.752
				c0.059,0.297,0.088,0.908,0.088,1.834v2.812h-1.658v-0.5c-0.104,0.201-0.238,0.35-0.404,0.451
				c-0.164,0.1-0.359,0.148-0.588,0.148c-0.299,0-0.572-0.082-0.82-0.25c-0.25-0.168-0.373-0.535-0.373-1.1v-0.461
				c0-0.418,0.064-0.705,0.197-0.857s0.459-0.328,0.982-0.531c0.561-0.219,0.861-0.367,0.898-0.443
				c0.039-0.076,0.061-0.23,0.061-0.463c0-0.293-0.021-0.484-0.066-0.572c-0.043-0.09-0.115-0.133-0.217-0.133
				c-0.115,0-0.188,0.037-0.215,0.111c-0.029,0.074-0.043,0.268-0.043,0.58V310.427L567.745,310.427z M568.286,311.197
				c-0.273,0.199-0.432,0.367-0.477,0.502c-0.043,0.135-0.064,0.33-0.064,0.582c0,0.291,0.02,0.477,0.057,0.561
				c0.039,0.084,0.113,0.127,0.227,0.127c0.105,0,0.176-0.031,0.209-0.098c0.031-0.066,0.049-0.24,0.049-0.521V311.197z"/>
			<path fill="#575756" d="M574.346,310.373h-1.607v-0.646c0-0.225-0.02-0.377-0.055-0.457s-0.104-0.119-0.203-0.119
				s-0.164,0.033-0.197,0.104c-0.035,0.07-0.051,0.229-0.051,0.473v2.645c0,0.199,0.023,0.35,0.074,0.449
				c0.053,0.1,0.125,0.15,0.225,0.15c0.115,0,0.193-0.053,0.234-0.156s0.061-0.301,0.061-0.592v-0.666h1.52
				c-0.002,0.447-0.02,0.783-0.049,1.006c-0.029,0.225-0.123,0.453-0.283,0.688c-0.158,0.236-0.365,0.412-0.623,0.533
				c-0.256,0.119-0.572,0.178-0.949,0.178c-0.48,0-0.861-0.082-1.145-0.246c-0.281-0.166-0.48-0.396-0.598-0.691
				c-0.117-0.297-0.174-0.719-0.174-1.266v-1.592c0-0.475,0.047-0.834,0.143-1.076s0.301-0.459,0.613-0.648
				c0.311-0.189,0.691-0.285,1.139-0.285c0.445,0,0.826,0.094,1.141,0.283c0.314,0.188,0.523,0.426,0.629,0.713
				C574.295,309.441,574.346,309.847,574.346,310.373z"/>
			<path fill="#575756" d="M576.61,307.025v0.891h-1.756v-0.891H576.61z M576.61,308.257v5.604h-1.756v-5.604H576.61z"/>
			<path fill="#575756" d="M581.081,310.224v1.373c0,0.504-0.025,0.873-0.076,1.107c-0.051,0.236-0.158,0.455-0.324,0.66
				c-0.166,0.203-0.379,0.354-0.641,0.451c-0.26,0.098-0.559,0.146-0.896,0.146c-0.377,0-0.697-0.043-0.959-0.125
				c-0.262-0.084-0.465-0.209-0.607-0.375c-0.146-0.168-0.25-0.371-0.312-0.609c-0.061-0.236-0.092-0.594-0.092-1.068v-1.436
				c0-0.521,0.057-0.928,0.168-1.221c0.113-0.291,0.316-0.527,0.607-0.705c0.293-0.176,0.668-0.266,1.123-0.266
				c0.383,0,0.711,0.057,0.986,0.172c0.275,0.113,0.486,0.262,0.635,0.445c0.148,0.182,0.252,0.371,0.307,0.564
				S581.081,309.828,581.081,310.224z M579.375,309.802c0-0.287-0.016-0.467-0.047-0.541c-0.031-0.076-0.096-0.111-0.197-0.111
				s-0.17,0.035-0.203,0.111c-0.035,0.074-0.051,0.254-0.051,0.541v2.529c0,0.264,0.016,0.436,0.051,0.516
				c0.033,0.082,0.1,0.121,0.197,0.121c0.102,0,0.168-0.037,0.201-0.109s0.049-0.23,0.049-0.473V309.802L579.375,309.802z"/>
			<path fill="#575756" d="M583.375,308.257l-0.029,0.518c0.125-0.207,0.275-0.361,0.455-0.465c0.178-0.102,0.385-0.152,0.619-0.152
				c0.291,0,0.531,0.068,0.717,0.207c0.188,0.137,0.307,0.311,0.359,0.52c0.053,0.211,0.08,0.561,0.08,1.049v3.928h-1.705v-3.879
				c0-0.387-0.014-0.621-0.039-0.705s-0.096-0.127-0.211-0.127c-0.121,0-0.197,0.049-0.229,0.146
				c-0.029,0.098-0.045,0.355-0.045,0.779v3.787h-1.707v-5.604h1.734V308.257z"/>
			<path fill="#575756" d="M587.688,310.427h-1.602v-0.375c0-0.434,0.051-0.768,0.15-1.002s0.301-0.441,0.602-0.623
				c0.301-0.18,0.693-0.27,1.174-0.27c0.576,0,1.012,0.102,1.305,0.305c0.293,0.205,0.469,0.455,0.527,0.752
				c0.061,0.297,0.09,0.908,0.09,1.834v2.812h-1.66v-0.5c-0.104,0.201-0.238,0.35-0.402,0.451c-0.166,0.1-0.361,0.148-0.59,0.148
				c-0.299,0-0.572-0.082-0.82-0.25c-0.25-0.168-0.375-0.535-0.375-1.1v-0.461c0-0.418,0.066-0.705,0.199-0.857
				c0.131-0.152,0.459-0.328,0.984-0.531c0.559-0.219,0.857-0.367,0.898-0.443c0.039-0.076,0.059-0.23,0.059-0.463
				c0-0.293-0.021-0.484-0.064-0.572c-0.045-0.09-0.117-0.133-0.217-0.133c-0.117,0-0.188,0.037-0.215,0.111
				c-0.029,0.074-0.043,0.268-0.043,0.58V310.427L587.688,310.427z M588.227,311.197c-0.273,0.199-0.432,0.367-0.475,0.502
				c-0.045,0.135-0.064,0.33-0.064,0.582c0,0.291,0.018,0.477,0.057,0.561c0.037,0.084,0.113,0.127,0.225,0.127
				c0.107,0,0.178-0.031,0.209-0.098c0.033-0.066,0.049-0.24,0.049-0.521V311.197z"/>
			<path fill="#575756" d="M592.276,307.025v6.834h-1.756v-6.834H592.276z"/>
			<path fill="#575756" d="M520.706,315.63v6.834H519v-0.406c-0.164,0.17-0.336,0.297-0.516,0.383
				c-0.182,0.084-0.369,0.125-0.566,0.125c-0.264,0-0.494-0.068-0.688-0.207c-0.193-0.141-0.318-0.303-0.373-0.484
				c-0.057-0.182-0.084-0.48-0.084-0.895v-2.621c0-0.432,0.027-0.736,0.084-0.916c0.055-0.182,0.18-0.338,0.377-0.477
				c0.197-0.135,0.432-0.205,0.705-0.205c0.211,0,0.404,0.039,0.58,0.115s0.336,0.189,0.479,0.342v-1.588H520.706L520.706,315.63z
				 M519,318.273c0-0.205-0.018-0.344-0.053-0.414s-0.105-0.105-0.209-0.105s-0.17,0.031-0.205,0.096s-0.053,0.205-0.053,0.424
				v2.744c0,0.229,0.016,0.377,0.051,0.449c0.033,0.072,0.098,0.107,0.193,0.107c0.109,0,0.184-0.039,0.219-0.121
				c0.037-0.08,0.055-0.275,0.055-0.588v-2.592H519z"/>
			<path fill="#575756" d="M525.178,319.763h-2.207v1.211c0,0.254,0.018,0.418,0.055,0.49c0.037,0.074,0.105,0.111,0.211,0.111
				c0.129,0,0.217-0.049,0.26-0.146s0.066-0.285,0.066-0.564v-0.738h1.615v0.414c0,0.346-0.021,0.611-0.064,0.797
				c-0.043,0.188-0.146,0.385-0.307,0.596s-0.363,0.369-0.609,0.475s-0.557,0.158-0.926,0.158c-0.361,0-0.68-0.053-0.955-0.156
				s-0.49-0.246-0.645-0.428c-0.152-0.184-0.258-0.383-0.316-0.602c-0.061-0.217-0.09-0.535-0.09-0.951v-1.635
				c0-0.49,0.066-0.875,0.197-1.158c0.133-0.283,0.35-0.5,0.65-0.65s0.646-0.227,1.039-0.227c0.479,0,0.873,0.092,1.184,0.273
				c0.312,0.182,0.529,0.422,0.654,0.721c0.125,0.301,0.188,0.721,0.188,1.264V319.763L525.178,319.763z M523.469,318.851v-0.408
				c0-0.289-0.014-0.477-0.045-0.562c-0.031-0.084-0.094-0.125-0.189-0.125c-0.119,0-0.191,0.035-0.221,0.107
				c-0.027,0.07-0.041,0.264-0.041,0.58v0.408H523.469L523.469,318.851z"/>
			<path fill="#575756" d="M527.311,315.63h1.789c0.484,0,0.857,0.039,1.117,0.115s0.457,0.186,0.588,0.33
				c0.131,0.143,0.219,0.316,0.266,0.52c0.047,0.205,0.068,0.521,0.068,0.949v0.594c0,0.438-0.045,0.754-0.135,0.955
				c-0.09,0.199-0.256,0.354-0.496,0.459c-0.24,0.107-0.555,0.16-0.941,0.16h-0.479v2.752h-1.777V315.63L527.311,315.63z
				 M529.088,316.8v1.738c0.051,0.002,0.094,0.004,0.131,0.004c0.162,0,0.277-0.039,0.34-0.119s0.096-0.248,0.096-0.5v-0.562
				c0-0.232-0.037-0.385-0.111-0.455C529.471,316.833,529.319,316.8,529.088,316.8z"/>
			<path fill="#575756" d="M535.37,318.978h-1.607v-0.645c0-0.225-0.018-0.379-0.055-0.459s-0.104-0.119-0.203-0.119
				c-0.098,0-0.164,0.035-0.197,0.105c-0.033,0.068-0.051,0.227-0.051,0.473v2.643c0,0.199,0.025,0.35,0.076,0.449
				c0.051,0.102,0.125,0.15,0.223,0.15c0.115,0,0.193-0.051,0.234-0.156c0.041-0.104,0.061-0.301,0.061-0.59v-0.668h1.521
				c-0.004,0.447-0.02,0.783-0.049,1.006c-0.029,0.225-0.123,0.455-0.283,0.689c-0.158,0.232-0.365,0.41-0.623,0.531
				c-0.256,0.119-0.572,0.18-0.949,0.18c-0.48,0-0.863-0.082-1.145-0.248c-0.281-0.164-0.48-0.396-0.598-0.691
				c-0.115-0.297-0.176-0.719-0.176-1.266v-1.59c0-0.477,0.049-0.836,0.145-1.078s0.301-0.457,0.611-0.648
				c0.312-0.189,0.693-0.285,1.141-0.285c0.445,0,0.826,0.096,1.141,0.283c0.314,0.189,0.525,0.426,0.629,0.713
				S535.37,318.453,535.37,318.978z"/>
			<path fill="#575756" d="M535.926,315.63h1.33c0.859,0,1.439,0.041,1.742,0.119s0.531,0.207,0.689,0.387
				c0.156,0.182,0.256,0.381,0.295,0.604c0.041,0.221,0.061,0.654,0.061,1.301v2.395c0,0.613-0.029,1.023-0.088,1.23
				c-0.057,0.207-0.158,0.369-0.301,0.486c-0.145,0.115-0.322,0.197-0.533,0.244s-0.529,0.07-0.953,0.07h-2.242V315.63
				L535.926,315.63z M537.706,316.8v4.496c0.256,0,0.414-0.051,0.473-0.154c0.061-0.104,0.088-0.383,0.088-0.838v-2.654
				c0-0.311-0.01-0.51-0.027-0.596c-0.021-0.088-0.066-0.15-0.137-0.191S537.899,316.8,537.706,316.8z"/>
			<path fill="#575756" d="M543.885,316.863l-0.068,0.736c0.248-0.525,0.605-0.807,1.078-0.838v1.973
				c-0.312,0-0.543,0.041-0.689,0.127c-0.145,0.084-0.236,0.201-0.27,0.352s-0.051,0.498-0.051,1.041v2.213h-1.705v-5.602h1.705
				V316.863z"/>
			<path fill="#575756" d="M549.135,319.763h-2.207v1.211c0,0.254,0.02,0.418,0.055,0.49c0.035,0.074,0.107,0.111,0.211,0.111
				c0.129,0,0.217-0.049,0.26-0.146s0.064-0.285,0.064-0.564v-0.738h1.617v0.414c0,0.346-0.02,0.611-0.064,0.797
				c-0.043,0.188-0.146,0.385-0.307,0.596s-0.363,0.369-0.609,0.475s-0.555,0.158-0.928,0.158c-0.359,0-0.678-0.053-0.953-0.156
				s-0.49-0.246-0.645-0.428c-0.154-0.184-0.26-0.383-0.316-0.602c-0.061-0.217-0.09-0.535-0.09-0.951v-1.635
				c0-0.49,0.066-0.875,0.197-1.158c0.133-0.283,0.35-0.5,0.65-0.65s0.646-0.227,1.039-0.227c0.479,0,0.873,0.092,1.184,0.273
				c0.312,0.182,0.529,0.422,0.654,0.721c0.125,0.301,0.188,0.721,0.188,1.264V319.763L549.135,319.763z M547.426,318.851v-0.408
				c0-0.289-0.016-0.477-0.047-0.562c-0.031-0.084-0.094-0.125-0.189-0.125c-0.117,0-0.191,0.035-0.219,0.107
				c-0.027,0.07-0.043,0.264-0.043,0.58v0.408H547.426L547.426,318.851z"/>
			<path fill="#575756" d="M553.569,316.863v4.314c0,0.582-0.014,0.959-0.039,1.129c-0.027,0.17-0.123,0.35-0.285,0.539
				c-0.164,0.191-0.391,0.336-0.682,0.436s-0.658,0.15-1.102,0.15c-0.543,0-0.979-0.092-1.309-0.275
				c-0.328-0.186-0.5-0.547-0.512-1.088h1.656c0,0.248,0.09,0.373,0.27,0.373c0.129,0,0.215-0.039,0.258-0.115
				s0.062-0.234,0.062-0.477v-0.424c-0.145,0.133-0.299,0.234-0.461,0.301c-0.162,0.068-0.332,0.102-0.51,0.102
				c-0.307,0-0.559-0.062-0.756-0.186c-0.199-0.125-0.334-0.287-0.408-0.486c-0.074-0.201-0.109-0.488-0.109-0.859v-2.035
				c0-0.533,0.096-0.916,0.287-1.148s0.482-0.35,0.873-0.35c0.215,0,0.408,0.043,0.584,0.131c0.178,0.086,0.334,0.219,0.473,0.395
				l0.123-0.424h1.586V316.863z M551.86,318.349c0-0.256-0.016-0.418-0.045-0.488c-0.029-0.072-0.096-0.105-0.195-0.105
				s-0.168,0.039-0.209,0.119s-0.062,0.238-0.062,0.475v1.883c0,0.252,0.016,0.412,0.047,0.488c0.031,0.074,0.096,0.111,0.193,0.111
				c0.113,0,0.188-0.045,0.219-0.135c0.035-0.09,0.051-0.293,0.051-0.611v-1.736H551.86z"/>
			<path fill="#575756" d="M555.932,315.63v0.893h-1.756v-0.893H555.932z M555.932,316.863v5.602h-1.756v-5.602H555.932z"/>
			<path fill="#575756" d="M560.028,318.654h-1.512v-0.305c0-0.26-0.014-0.424-0.043-0.492s-0.104-0.104-0.223-0.104
				c-0.096,0-0.166,0.031-0.215,0.096c-0.047,0.064-0.072,0.158-0.072,0.285c0,0.17,0.012,0.297,0.037,0.377
				c0.023,0.08,0.096,0.168,0.215,0.264s0.365,0.234,0.736,0.418c0.496,0.242,0.82,0.471,0.975,0.684
				c0.156,0.215,0.232,0.525,0.232,0.934c0,0.455-0.059,0.801-0.176,1.031c-0.119,0.232-0.316,0.412-0.594,0.537
				s-0.611,0.188-1.002,0.188c-0.434,0-0.805-0.066-1.111-0.201c-0.309-0.135-0.521-0.318-0.637-0.549
				c-0.113-0.232-0.172-0.58-0.172-1.049v-0.27h1.51v0.355c0,0.301,0.02,0.496,0.059,0.586c0.037,0.09,0.113,0.135,0.225,0.135
				c0.121,0,0.205-0.029,0.254-0.09c0.047-0.062,0.072-0.189,0.072-0.383c0-0.268-0.031-0.436-0.094-0.502
				c-0.064-0.068-0.395-0.268-0.992-0.6c-0.5-0.281-0.807-0.537-0.916-0.766c-0.109-0.23-0.164-0.502-0.164-0.818
				c0-0.447,0.059-0.777,0.176-0.99c0.119-0.211,0.32-0.375,0.604-0.49s0.611-0.174,0.984-0.174s0.689,0.047,0.949,0.141
				c0.26,0.096,0.459,0.219,0.6,0.375c0.139,0.154,0.223,0.297,0.254,0.43c0.027,0.131,0.043,0.338,0.043,0.621v0.326H560.028z"/>
			<path fill="#575756" d="M562.413,316.117v0.881h0.461v0.887h-0.461v2.998c0,0.369,0.02,0.574,0.057,0.615
				c0.039,0.043,0.197,0.062,0.477,0.062v0.904h-0.689c-0.387,0-0.664-0.016-0.83-0.049s-0.312-0.107-0.439-0.223
				c-0.125-0.117-0.205-0.25-0.236-0.402c-0.031-0.15-0.045-0.504-0.045-1.062v-2.844h-0.367v-0.887h0.367v-0.883h1.707V316.117z"/>
			<path fill="#575756" d="M564.956,316.863l-0.068,0.736c0.248-0.525,0.605-0.807,1.076-0.838v1.973
				c-0.311,0-0.541,0.041-0.688,0.127c-0.146,0.084-0.236,0.201-0.27,0.352c-0.035,0.15-0.051,0.498-0.051,1.041v2.213h-1.705
				v-5.602h1.705V316.863z"/>
			<path fill="#575756" d="M567.868,319.033h-1.602v-0.375c0-0.434,0.051-0.768,0.15-1.002c0.1-0.236,0.301-0.443,0.604-0.623
				c0.301-0.182,0.691-0.271,1.172-0.271c0.578,0,1.012,0.104,1.305,0.307c0.293,0.205,0.469,0.455,0.527,0.752
				c0.061,0.297,0.09,0.906,0.09,1.834v2.811h-1.66v-0.498c-0.104,0.199-0.238,0.35-0.402,0.449s-0.359,0.15-0.59,0.15
				c-0.297,0-0.572-0.082-0.82-0.25c-0.25-0.168-0.375-0.535-0.375-1.102v-0.459c0-0.42,0.066-0.705,0.199-0.857
				c0.131-0.152,0.459-0.328,0.982-0.531c0.561-0.219,0.859-0.367,0.898-0.443c0.041-0.076,0.061-0.23,0.061-0.465
				c0-0.291-0.023-0.482-0.066-0.572c-0.043-0.088-0.115-0.133-0.217-0.133c-0.115,0-0.188,0.037-0.215,0.113
				c-0.027,0.074-0.041,0.268-0.041,0.58V319.033L567.868,319.033z M568.407,319.802c-0.273,0.199-0.432,0.367-0.475,0.502
				s-0.064,0.33-0.064,0.582c0,0.291,0.02,0.479,0.057,0.562c0.039,0.084,0.113,0.127,0.227,0.127c0.107,0,0.178-0.033,0.209-0.1
				s0.049-0.24,0.049-0.521v-1.152H568.407z"/>
			<path fill="#575756" d="M574.581,315.63v6.834h-1.707v-0.406c-0.162,0.17-0.334,0.297-0.514,0.383
				c-0.182,0.084-0.369,0.125-0.566,0.125c-0.264,0-0.494-0.068-0.688-0.207c-0.195-0.141-0.32-0.303-0.375-0.484
				s-0.082-0.48-0.082-0.895v-2.621c0-0.432,0.025-0.736,0.082-0.916c0.055-0.182,0.182-0.338,0.377-0.477
				c0.197-0.135,0.434-0.205,0.705-0.205c0.211,0,0.404,0.039,0.582,0.115c0.176,0.076,0.334,0.189,0.479,0.342v-1.588H574.581
				L574.581,315.63z M572.874,318.273c0-0.205-0.018-0.344-0.053-0.414s-0.104-0.105-0.209-0.105c-0.102,0-0.168,0.031-0.205,0.096
				c-0.035,0.064-0.053,0.205-0.053,0.424v2.744c0,0.229,0.018,0.377,0.051,0.449c0.035,0.072,0.098,0.107,0.193,0.107
				c0.111,0,0.184-0.039,0.221-0.121c0.037-0.08,0.055-0.275,0.055-0.588V318.273z"/>
			<path fill="#575756" d="M576.715,319.033h-1.6v-0.375c0-0.434,0.049-0.768,0.148-1.002c0.1-0.236,0.301-0.443,0.602-0.623
				c0.301-0.182,0.691-0.271,1.174-0.271c0.578,0,1.012,0.104,1.305,0.307c0.291,0.205,0.469,0.455,0.527,0.752
				s0.09,0.906,0.09,1.834v2.811h-1.66v-0.498c-0.104,0.199-0.236,0.35-0.402,0.449c-0.164,0.1-0.361,0.15-0.588,0.15
				c-0.299,0-0.572-0.082-0.822-0.25c-0.248-0.168-0.373-0.535-0.373-1.102v-0.459c0-0.42,0.064-0.705,0.199-0.857
				c0.131-0.152,0.459-0.328,0.982-0.531c0.561-0.219,0.859-0.367,0.898-0.443s0.059-0.23,0.059-0.465
				c0-0.291-0.02-0.482-0.064-0.572c-0.043-0.088-0.115-0.133-0.217-0.133c-0.115,0-0.188,0.037-0.217,0.113
				c-0.027,0.074-0.041,0.268-0.041,0.58V319.033L576.715,319.033z M577.254,319.802c-0.271,0.199-0.43,0.367-0.475,0.502
				c-0.043,0.135-0.064,0.33-0.064,0.582c0,0.291,0.02,0.479,0.057,0.562c0.039,0.084,0.113,0.127,0.227,0.127
				c0.105,0,0.176-0.033,0.209-0.1c0.031-0.066,0.047-0.24,0.047-0.521V319.802z"/>
			<path fill="#575756" d="M583.032,318.654h-1.514v-0.305c0-0.26-0.014-0.424-0.043-0.492s-0.104-0.104-0.223-0.104
				c-0.096,0-0.166,0.031-0.215,0.096c-0.047,0.064-0.072,0.158-0.072,0.285c0,0.17,0.012,0.297,0.037,0.377
				c0.023,0.08,0.096,0.168,0.215,0.264s0.365,0.234,0.736,0.418c0.496,0.242,0.82,0.471,0.975,0.684
				c0.156,0.215,0.232,0.525,0.232,0.934c0,0.455-0.061,0.801-0.178,1.031c-0.117,0.232-0.314,0.412-0.594,0.537
				c-0.275,0.125-0.609,0.188-1.002,0.188c-0.434,0-0.805-0.066-1.111-0.201c-0.309-0.135-0.521-0.318-0.637-0.549
				c-0.113-0.232-0.172-0.58-0.172-1.049v-0.27h1.512v0.355c0,0.301,0.02,0.496,0.057,0.586c0.039,0.09,0.113,0.135,0.227,0.135
				c0.121,0,0.205-0.029,0.252-0.09c0.049-0.062,0.072-0.189,0.072-0.383c0-0.268-0.031-0.436-0.092-0.502
				c-0.064-0.068-0.396-0.268-0.992-0.6c-0.502-0.281-0.807-0.537-0.916-0.766c-0.111-0.23-0.166-0.502-0.166-0.818
				c0-0.447,0.061-0.777,0.178-0.99c0.119-0.211,0.318-0.375,0.602-0.49s0.613-0.174,0.986-0.174c0.371,0,0.688,0.047,0.947,0.141
				c0.262,0.096,0.459,0.219,0.6,0.375c0.141,0.154,0.225,0.297,0.254,0.43c0.029,0.131,0.043,0.338,0.043,0.621v0.326H583.032z"/>
		</g>
		<path fill="#A0C219" d="M516.522,239.072c0.336-2.113,0.535-4.257,1.029-6.332c3.244-13.625,11.342-23.271,24.109-28.955
			c3.973-1.767,8.188-2.755,12.539-3.1c0.293-0.023,0.58-0.107,0.869-0.163c1.854,0,3.709,0,5.562,0
			c0.223,0.054,0.439,0.14,0.664,0.158c3.572,0.296,7.055,1.021,10.418,2.266c12.174,4.509,20.465,12.935,25.016,25.038
			c2.252,5.991,2.775,12.234,2,18.555c-0.666,5.43-2.455,10.522-5.18,15.281c-0.895,1.564-0.814,1.938,0.445,3.199
			c6.695,6.695,13.395,13.384,20.084,20.087c2.479,2.483,4.213,5.315,4.174,8.992c-0.049,4.793-5.318,8.987-10.02,8.036
			c-2.848-0.574-5.121-2.047-7.121-4.043c-6.654-6.643-13.299-13.295-19.947-19.942c-1.451-1.45-1.752-1.517-3.521-0.517
			c-5.068,2.865-10.477,4.64-16.285,5.197c-8.812,0.848-17.08-0.91-24.613-5.506c-11.068-6.757-17.701-16.607-19.771-29.459
			c-0.174-1.074-0.303-2.152-0.453-3.23C516.522,242.781,516.522,240.927,516.522,239.072z M557.727,272.242
			c16.768,0.123,30.586-13.652,30.508-30.451c-0.08-17.102-13.627-30.479-30.496-30.439c-17.094,0.041-30.273,13.623-30.426,30.427
			C527.465,258.692,540.745,272.117,557.727,272.242z"/>
		<path fill="#A0C219" d="M555.963,216.964c-3.562,0.121-6.969,0.84-10.256,2.145c-2.287,0.908-3.375,3.271-2.562,5.506
			c0.807,2.223,3.176,3.379,5.494,2.524c2.957-1.089,5.949-1.753,9.115-1.363c6.633,0.815,11.5,4.181,14.572,10.112
			c0.598,1.15,1.119,2.332,2.344,2.977c1.623,0.856,3.541,0.641,4.896-0.554c1.318-1.16,1.809-3.11,1.094-4.806
			c-1.447-3.424-3.5-6.45-6.209-8.998c-3.771-3.545-8.195-5.883-13.287-6.866C559.45,217.311,557.698,217.185,555.963,216.964z"/>
		<g>
			<path fill="#A0C219" d="M516.877,289.597h1.488l1.578,11.41h0.162l1.486-11.41h1.395l-1.844,12.674h-2.281L516.877,289.597z"/>
			<path fill="#A0C219" d="M529.202,295.742v2.62h-3.355v1.865c0,0.526,0.07,0.885,0.207,1.073c0.141,0.189,0.385,0.285,0.738,0.285
				c0.338,0,0.578-0.098,0.715-0.293c0.139-0.194,0.209-0.549,0.209-1.064v-0.979h1.486v0.722c0,0.974-0.176,1.637-0.529,1.989
				c-0.354,0.352-0.98,0.527-1.879,0.527c-0.891,0-1.516-0.179-1.873-0.537c-0.357-0.357-0.537-1.023-0.537-1.998v-4.209
				c0-0.98,0.176-1.645,0.525-1.994c0.35-0.351,0.979-0.524,1.885-0.524c0.891,0,1.516,0.179,1.873,0.537
				C529.024,294.119,529.202,294.779,529.202,295.742z M527.713,295.475c0-0.521-0.068-0.876-0.207-1.065
				c-0.139-0.188-0.377-0.283-0.715-0.283c-0.346,0-0.59,0.1-0.732,0.301s-0.213,0.55-0.213,1.048v1.993h1.867V295.475
				L527.713,295.475z"/>
			<path fill="#A0C219" d="M534.655,293.242v1.073h-0.242c-0.607,0-1.039,0.113-1.291,0.339c-0.254,0.227-0.381,0.618-0.381,1.174
				v6.443h-1.418v-8.833h1.326l0.092,0.542c0.199-0.241,0.443-0.428,0.73-0.559c0.289-0.133,0.602-0.198,0.939-0.198
				c0.021,0,0.062,0.003,0.115,0.009S534.624,293.242,534.655,293.242z"/>
			<path fill="#A0C219" d="M542.608,293.979l0.113-0.542h1.326v9.787c0,0.975-0.176,1.636-0.529,1.984
				c-0.354,0.35-0.98,0.524-1.879,0.524c-0.861,0-1.479-0.17-1.852-0.511c-0.373-0.342-0.559-0.922-0.559-1.74v-0.473h1.486v0.473
				c0,0.539,0.068,0.898,0.203,1.083c0.135,0.183,0.375,0.274,0.721,0.274c0.354,0,0.604-0.098,0.748-0.295
				c0.146-0.198,0.221-0.553,0.221-1.062v-2.148c-0.193,0.252-0.432,0.438-0.717,0.56c-0.283,0.12-0.623,0.18-1.014,0.18
				c-0.6,0-1.023-0.147-1.273-0.442s-0.375-0.814-0.375-1.56v-4.821c0-0.75,0.127-1.275,0.381-1.576s0.676-0.451,1.268-0.451
				c0.377,0,0.711,0.064,1.004,0.193C542.172,293.544,542.415,293.733,542.608,293.979z M542.608,295.475
				c0-0.504-0.074-0.858-0.221-1.062c-0.145-0.203-0.387-0.305-0.725-0.305c-0.355,0-0.605,0.1-0.75,0.296
				c-0.146,0.198-0.219,0.554-0.219,1.07v4.349c0,0.52,0.072,0.879,0.219,1.077c0.145,0.198,0.395,0.296,0.75,0.296
				c0.338,0,0.58-0.104,0.725-0.309c0.146-0.207,0.221-0.562,0.221-1.064V295.475z"/>
			<path fill="#A0C219" d="M549.545,293.242v1.073h-0.242c-0.605,0-1.037,0.113-1.291,0.339c-0.252,0.227-0.379,0.618-0.379,1.174
				v6.443h-1.418v-8.833h1.324l0.094,0.542c0.199-0.241,0.443-0.428,0.73-0.559c0.289-0.133,0.602-0.198,0.939-0.198
				c0.023,0,0.062,0.003,0.115,0.009S549.516,293.242,549.545,293.242z"/>
			<path fill="#A0C219" d="M555.196,295.5v6.771h-1.326l-0.092-0.542c-0.193,0.247-0.438,0.435-0.732,0.563s-0.635,0.192-1.02,0.192
				c-0.602,0-1.025-0.149-1.273-0.45c-0.25-0.302-0.375-0.826-0.375-1.578v-1.762c0-0.693,0.252-1.186,0.754-1.479
				c0.504-0.291,1.387-0.454,2.646-0.489v-1.254c0-0.533-0.066-0.892-0.201-1.074s-0.375-0.274-0.721-0.274
				c-0.33,0-0.566,0.084-0.709,0.252c-0.143,0.17-0.213,0.461-0.213,0.873v0.49h-1.418v-0.24c0-0.881,0.172-1.481,0.52-1.799
				c0.346-0.318,0.959-0.478,1.844-0.478c0.861,0,1.463,0.161,1.805,0.481C555.026,294.024,555.196,294.625,555.196,295.5z
				 M553.766,297.587c-0.738,0.023-1.238,0.121-1.504,0.293s-0.396,0.48-0.396,0.928v1.418c0,0.527,0.068,0.885,0.207,1.074
				s0.385,0.283,0.736,0.283c0.348,0,0.596-0.102,0.744-0.305c0.15-0.203,0.225-0.554,0.225-1.052L553.766,297.587z
				 M553.235,290.362h1.625l-1.51,1.917h-1.129L553.235,290.362z"/>
			<path fill="#A0C219" d="M559.956,289.408v0.911h-0.207c-0.33,0-0.559,0.048-0.686,0.142c-0.127,0.095-0.189,0.266-0.189,0.512
				v2.466h1.082v0.876h-1.082v7.957h-1.418v-7.957h-0.771v-0.876h0.771v-1.916c0-0.905,0.131-1.487,0.393-1.744
				c0.262-0.258,0.754-0.387,1.477-0.387c0.16,0,0.287,0.001,0.379,0.004C559.793,289.398,559.879,289.402,559.956,289.408z"/>
			<path fill="#A0C219" d="M561.096,289.597h1.58v1.34h-1.58V289.597z M561.167,293.438h1.418v8.833h-1.418V293.438z"/>
			<path fill="#A0C219" d="M569.143,295.742v0.566h-1.486v-0.833c0-0.579-0.053-0.948-0.156-1.108s-0.293-0.24-0.57-0.24
				s-0.469,0.09-0.578,0.271c-0.105,0.181-0.16,0.54-0.16,1.079v4.752c0,0.55,0.057,0.914,0.168,1.091
				c0.109,0.177,0.309,0.267,0.594,0.267c0.268,0,0.453-0.082,0.553-0.246s0.15-0.533,0.15-1.112v-0.944h1.486v0.688
				c0,0.974-0.164,1.637-0.49,1.988c-0.326,0.353-0.9,0.528-1.723,0.528c-0.814,0-1.385-0.181-1.713-0.542
				c-0.326-0.361-0.49-1.025-0.49-1.992v-4.211c0-0.979,0.162-1.644,0.484-1.994c0.324-0.35,0.896-0.523,1.719-0.523
				c0.814,0,1.387,0.179,1.717,0.537C568.979,294.119,569.143,294.779,569.143,295.742z"/>
			<path fill="#A0C219" d="M575.784,295.742v4.227c0,0.975-0.178,1.638-0.531,1.99c-0.354,0.352-0.979,0.527-1.879,0.527
				c-0.891,0-1.516-0.179-1.873-0.537c-0.357-0.357-0.535-1.023-0.535-1.998v-4.209c0-0.98,0.174-1.645,0.523-1.994
				c0.35-0.351,0.979-0.524,1.885-0.524c0.891,0,1.516,0.179,1.873,0.537S575.784,294.779,575.784,295.742z M574.295,295.475
				c0-0.521-0.07-0.876-0.207-1.065c-0.139-0.188-0.377-0.283-0.715-0.283c-0.346,0-0.59,0.1-0.732,0.301s-0.213,0.55-0.213,1.048
				v4.752c0,0.526,0.068,0.885,0.207,1.073c0.139,0.189,0.385,0.285,0.738,0.285c0.338,0,0.576-0.098,0.715-0.293
				c0.139-0.194,0.207-0.549,0.207-1.064V295.475L574.295,295.475z"/>
			<path fill="#A0C219" d="M586.467,292.227v0.808c0,0.219-0.045,0.484-0.139,0.799c-0.092,0.315-0.227,0.653-0.402,1.015
				l-3.182,6.487h3.654v0.938h-4.957v-1.246l2.904-5.945l0.035-0.078c0.414-0.808,0.623-1.491,0.623-2.053v-0.783
				c0-0.526-0.076-0.901-0.225-1.125c-0.15-0.224-0.398-0.336-0.744-0.336c-0.361,0-0.617,0.119-0.766,0.356
				c-0.15,0.237-0.227,0.661-0.227,1.269v0.824h-1.486v-0.652c0-1.031,0.186-1.737,0.553-2.119c0.369-0.381,1.012-0.57,1.926-0.57
				c0.875,0,1.5,0.184,1.873,0.55C586.282,290.729,586.467,291.35,586.467,292.227z"/>
		</g>
	</g>
</g>
</svg>
