<?xml version="1.0" encoding="utf-8"?>
<!-- Generator: Adobe Illustrator 16.0.0, SVG Export Plug-In . SVG Version: 6.00 Build 0)  -->
<!DOCTYPE svg PUBLIC "-//W3C//DTD SVG 1.1//EN" "http://www.w3.org/Graphics/SVG/1.1/DTD/svg11.dtd">
<svg version="1.1" id="Capa_1" xmlns="http://www.w3.org/2000/svg" xmlns:xlink="http://www.w3.org/1999/xlink" x="0px" y="0px"
	 width="734.338px" height="413.177px" viewBox="0 0 734.338 413.177" enable-background="new 0 0 734.338 413.177"
	 xml:space="preserve">
<g>
	<g>
		<g>
			<path fill="#F39200" d="M236.605,212.794l-0.143,0.503l-0.599,1.376l-0.597,1.091l-1.623,2.254l0.373,0.336l0.16,0.144
				l0.014,0.002l0.539,0.027l0.111-0.057l0.114-0.255c0.006-0.015,0.014-0.026,0.022-0.037l0.125-0.157l0.305-0.676
				c0.006-0.013,0.014-0.025,0.023-0.037l1.528-1.876l0.438-0.743l0.182-0.459l-0.033-0.447c-0.004-0.042,0.01-0.084,0.034-0.117
				l0.208-0.277l0.468-0.471l0.581-0.685l0.297-0.497l0.443-0.925c0.014-0.026,0.033-0.049,0.057-0.065l0.348-0.244
				c0.041-0.029,0.094-0.039,0.142-0.026l0.925,0.231l0.176,0.044l0.389-1.015l0.066-0.707c0.002-0.014,0.006-0.025,0.01-0.037
				l0.068-0.209c0.014-0.036,0.037-0.069,0.07-0.09l0.395-0.265l0.158-0.188l0.176-0.296l0.02-0.127l-0.188-0.439l-0.266-0.429
				l-0.541-0.639c-0.012-0.017-0.023-0.031-0.029-0.051l-0.348-0.903c-0.01-0.025-0.014-0.053-0.01-0.079l0.035-0.348l0.072-0.332
				c0.004-0.02,0.012-0.039,0.023-0.057l0.951-1.496l0.09-0.632l-0.072-0.12l-0.221-0.585c-0.008-0.02-0.012-0.04-0.012-0.062
				v-0.624c0-0.014,0-0.026,0.004-0.039l0.07-0.312c0.006-0.026,0.018-0.052,0.035-0.072l0.174-0.209l0.414-0.35l0.264-0.46
				l0.287-0.397l0.688-1.134c0.008-0.012,0.016-0.023,0.025-0.033l0.139-0.139c0.014-0.014,0.029-0.025,0.045-0.033l0.281-0.141
				l0.359-1.213l-0.201,0.016c-0.045,0.003-0.088-0.011-0.123-0.038l-0.348-0.278c-0.021-0.019-0.041-0.043-0.051-0.07l-0.07-0.175
				c-0.012-0.03-0.016-0.065-0.01-0.099l0.035-0.173c0.006-0.025,0.016-0.05,0.031-0.07l0.104-0.139
				c0.01-0.011,0.02-0.021,0.029-0.029l0.166-0.14l0.041-0.144l-0.055-0.196c-0.004-0.014-0.006-0.029-0.006-0.044l-0.035-1.876
				l0.035-0.469l0.109-0.473l-0.5-0.211l-0.389-0.033l-0.229,0.001c-0.025,0-0.049-0.005-0.07-0.015l-0.104-0.047v0.271
				c0,0.031-0.008,0.062-0.025,0.089l-0.209,0.348c-0.018,0.031-0.045,0.055-0.076,0.069l-0.275,0.122l-0.098,0.122l-0.477,1.124
				l-0.086,0.132c-0.023,0.036-0.057,0.061-0.098,0.071l-0.295,0.08l-0.109,0.299c-0.012,0.034-0.037,0.064-0.066,0.085l-0.32,0.213
				l0.012,0.06c0.004,0.021,0.004,0.043,0.002,0.062l-0.002,0.007h0.039c0.07,0,0.135,0.044,0.16,0.109l0.068,0.174
				c0.021,0.05,0.018,0.106-0.012,0.153l-0.104,0.174c-0.006,0.012-0.016,0.023-0.025,0.033l-0.139,0.139
				c-0.016,0.016-0.033,0.027-0.053,0.037l-0.607,0.27l-0.485,0.379l0.312,0.492l0.258,0.193c0.021,0.014,0.035,0.033,0.048,0.053
				l0.14,0.244c0.006,0.012,0.012,0.025,0.016,0.038l0.278,0.973c0.004,0.017,0.007,0.036,0.007,0.054l-0.037,0.938
				c0,0.019-0.003,0.036-0.01,0.054l-0.774,2.109l0.218-0.016c0.064-0.004,0.128,0.027,0.16,0.084l0.105,0.175
				c0.02,0.03,0.027,0.067,0.024,0.104l-0.035,0.381l-0.249,0.9l-0.205,1.198l0.003,0.353l-0.071,0.414
				c-0.002,0.01-0.006,0.021-0.012,0.032l-0.138,0.347l-0.249,0.501c-0.006,0.012-0.012,0.022-0.021,0.031l-0.413,0.508v0.946l0,0
				c0,0.016-0.002,0.03-0.006,0.044L239,208.603c-0.004,0.018-0.012,0.031-0.02,0.046l-0.104,0.174
				c-0.018,0.028-0.043,0.051-0.071,0.065l-0.14,0.069c-0.039,0.021-0.084,0.024-0.126,0.012l-0.591-0.174l-0.263-0.111
				c-0.017-0.007-0.031-0.016-0.044-0.027l-0.341-0.288l-0.083,0.07l-0.111,0.139l-0.672,1.778l0.034,0.448v0.258l0.034,0.328
				l0.131,0.418c0.004,0.013,0.007,0.025,0.009,0.04l0.035,0.521c0,0.015,0,0.029-0.003,0.043L236.605,212.794z"/>
		</g>
	</g>
	<g>
		<g>
			<g>
				<g>
					<path fill="#FFFFFF" d="M497.19,175.864h7.383c2.332,0,4.099,0.182,5.3,0.545s2.171,1.098,2.909,2.205
						c0.738,1.106,1.107,2.889,1.107,5.349c0,1.663-0.261,2.822-0.782,3.478c-0.521,0.656-1.55,1.16-3.085,1.512
						c1.711,0.387,2.871,1.028,3.48,1.926c0.609,0.896,0.914,2.271,0.914,4.124v2.638c0,1.924-0.22,3.348-0.659,4.274
						s-1.14,1.56-2.101,1.899s-2.93,0.51-5.906,0.51h-8.561V175.864z M504.591,180.733v6.328c0.316-0.012,0.562-0.018,0.738-0.018
						c0.727,0,1.189-0.178,1.389-0.535s0.299-1.381,0.299-3.068c0-0.891-0.082-1.514-0.246-1.871s-0.378-0.584-0.642-0.678
						S505.353,180.745,504.591,180.733z M504.591,191.491v7.963c1.043-0.035,1.708-0.199,1.995-0.492s0.431-1.014,0.431-2.162
						v-2.654c0-1.219-0.129-1.957-0.387-2.215S505.692,191.526,504.591,191.491z"/>
					<path fill="#FFFFFF" d="M533.981,192.528c0,2.859-0.067,4.885-0.202,6.074s-0.557,2.275-1.266,3.26s-1.667,1.74-2.874,2.268
						s-2.613,0.791-4.219,0.791c-1.523,0-2.892-0.248-4.104-0.746s-2.188-1.246-2.927-2.242s-1.178-2.08-1.318-3.252
						s-0.211-3.223-0.211-6.152v-4.869c0-2.859,0.067-4.883,0.202-6.072s0.557-2.277,1.266-3.262s1.667-1.74,2.874-2.268
						s2.613-0.791,4.219-0.791c1.523,0,2.892,0.25,4.104,0.748s2.188,1.244,2.927,2.24s1.178,2.08,1.318,3.252
						s0.211,3.223,0.211,6.152V192.528z M526.581,183.177c0-1.324-0.073-2.17-0.22-2.539s-0.448-0.555-0.905-0.555
						c-0.387,0-0.683,0.15-0.888,0.449s-0.308,1.18-0.308,2.645v13.289c0,1.652,0.067,2.672,0.202,3.059s0.448,0.58,0.94,0.58
						c0.504,0,0.826-0.223,0.967-0.668s0.211-1.506,0.211-3.182V183.177z"/>
					<path fill="#FFFFFF" d="M553.722,186.341h-7.4v-2.584c0-1.629-0.07-2.648-0.211-3.059s-0.475-0.615-1.002-0.615
						c-0.457,0-0.768,0.176-0.932,0.527s-0.246,1.254-0.246,2.707v13.658c0,1.277,0.082,2.119,0.246,2.523s0.492,0.605,0.984,0.605
						c0.539,0,0.905-0.229,1.099-0.686s0.29-1.348,0.29-2.672v-3.375h-1.494v-4.324h8.666v15.275h-4.65l-0.685-2.039
						c-0.504,0.879-1.141,1.539-1.908,1.979c-0.769,0.439-1.674,0.658-2.719,0.658c-1.242,0-2.406-0.301-3.491-0.904
						s-1.909-1.352-2.472-2.242s-0.915-1.824-1.056-2.803s-0.211-2.447-0.211-4.404v-8.455c0-2.719,0.146-4.693,0.439-5.924
						s1.134-2.357,2.522-3.383s3.185-1.539,5.388-1.539c2.168,0,3.967,0.445,5.396,1.336s2.361,1.949,2.795,3.174
						s0.65,3.002,0.65,5.334V186.341z"/>
					<path fill="#FFFFFF" d="M573.497,192.528c0,2.859-0.067,4.885-0.202,6.074s-0.557,2.275-1.266,3.26s-1.667,1.74-2.874,2.268
						s-2.613,0.791-4.219,0.791c-1.523,0-2.892-0.248-4.104-0.746s-2.188-1.246-2.927-2.242s-1.178-2.08-1.318-3.252
						s-0.211-3.223-0.211-6.152v-4.869c0-2.859,0.067-4.883,0.202-6.072s0.557-2.277,1.266-3.262s1.667-1.74,2.874-2.268
						s2.613-0.791,4.219-0.791c1.523,0,2.892,0.25,4.104,0.748s2.188,1.244,2.927,2.24s1.178,2.08,1.318,3.252
						s0.211,3.223,0.211,6.152V192.528z M566.097,183.177c0-1.324-0.073-2.17-0.22-2.539s-0.448-0.555-0.905-0.555
						c-0.387,0-0.683,0.15-0.888,0.449s-0.308,1.18-0.308,2.645v13.289c0,1.652,0.067,2.672,0.202,3.059s0.448,0.58,0.94,0.58
						c0.504,0,0.826-0.223,0.967-0.668s0.211-1.506,0.211-3.182V183.177z"/>
					<path fill="#FFFFFF" d="M591.163,175.864v5.695h-4.395v22.764h-7.4V181.56h-4.377v-5.695H591.163z"/>
					<path fill="#FFFFFF" d="M605.643,175.864l4.232,28.459h-7.562l-0.397-5.115h-2.647l-0.445,5.115h-7.65l3.775-28.459H605.643z
						 M606.509,170.204l-5.783,4.764h-3.568l3.094-4.764H606.509z M601.721,194.163c-0.375-3.223-0.75-7.207-1.127-11.953
						c-0.754,5.45-1.228,9.435-1.42,11.953H601.721z"/>
				</g>
			</g>
		</g>
	</g>
	<g>
		<g>
			<path fill="#F2961C" d="M498.137,225.136v4.156h-1.681v-12.986h3.685c1.045,0.141,1.927,0.57,2.646,1.29
				c0.86,0.866,1.291,1.905,1.291,3.116c0,1.224-0.431,2.267-1.291,3.129c-0.86,0.863-1.899,1.295-3.117,1.295H498.137z
				 M498.137,217.993v5.455h1.533c0.747,0,1.387-0.268,1.92-0.8c0.533-0.533,0.799-1.179,0.799-1.937
				c0-0.752-0.266-1.393-0.799-1.924c-0.533-0.529-1.173-0.795-1.92-0.795H498.137z"/>
			<path fill="#F2961C" d="M512.365,226.427l1.68,0.601c-0.411,0.568-0.709,0.944-0.893,1.128c-0.904,0.904-1.994,1.355-3.271,1.355
				c-1.271,0-2.359-0.451-3.263-1.355c-0.903-0.903-1.355-1.994-1.355-3.271c0-1.277,0.452-2.368,1.355-3.271
				s1.991-1.355,3.263-1.355c1.277,0,2.367,0.452,3.271,1.355c0.184,0.185,0.481,0.555,0.893,1.112l-1.68,0.617
				c-0.217-0.266-0.363-0.436-0.438-0.512c-0.563-0.562-1.245-0.844-2.046-0.844c-0.795,0-1.476,0.282-2.041,0.848
				s-0.848,1.249-0.848,2.05c0,0.796,0.282,1.476,0.848,2.041s1.246,0.849,2.041,0.849c0.801,0,1.486-0.281,2.055-0.844
				C512.005,226.854,512.148,226.687,512.365,226.427z"/>
			<path fill="#F2961C" d="M517.227,216.306c2.11,0.01,3.756,0.607,4.936,1.793c1.293,1.305,1.939,2.871,1.939,4.699
				c0,1.835-0.646,3.401-1.939,4.7c-1.18,1.185-2.825,1.783-4.936,1.794h-1.233v-12.986H517.227z M517.674,218.018v9.569
				c1.336,0,2.432-0.43,3.287-1.29c0.963-0.963,1.444-2.13,1.444-3.499c0-1.363-0.481-2.529-1.444-3.498
				C520.105,218.445,519.01,218.018,517.674,218.018z"/>
			<path fill="#F2961C" d="M533.688,225.197c0.883-0.657,1.635-1.22,2.257-1.685s1.179-0.966,1.668-1.502
				c0.489-0.535,0.735-1.131,0.735-1.785s-0.232-1.213-0.695-1.672c-0.462-0.461-1.021-0.69-1.676-0.69
				c-0.644,0-1.198,0.229-1.664,0.69c-0.395,0.395-0.641,1.076-0.738,2.045l-1.68-0.608c0.173-1.126,0.576-2.008,1.209-2.646
				c0.795-0.801,1.754-1.201,2.873-1.201c1.131,0,2.094,0.397,2.886,1.193c0.793,0.796,1.189,1.759,1.189,2.89
				c0,1.115-0.384,2.086-1.153,2.914c-0.486,0.525-1.053,1.029-1.699,1.514c-0.647,0.484-1.365,1.023-2.156,1.619
				c-0.692,0.514-1.079,0.958-1.16,1.331h6.169v1.688h-8.142C532.213,227.22,532.806,225.854,533.688,225.197z"/>
			<path fill="#F2961C" d="M548.546,221.212c-1.345,1.507-2.386,2.783-3.121,3.826c-0.735,1.045-1.131,2.463-1.185,4.254h-1.713
				c0.064-2.213,0.514-3.902,1.348-5.068c0.832-1.166,1.826-2.395,2.979-3.686s1.771-2.142,1.858-2.553h-6.169v-1.68h8.076
				C550.582,218.069,549.891,219.704,548.546,221.212z"/>
			<path fill="#F2961C" d="M559.131,221.212c-1.346,1.507-2.386,2.783-3.121,3.826c-0.736,1.045-1.131,2.463-1.186,4.254h-1.713
				c0.064-2.213,0.514-3.902,1.348-5.068c0.833-1.166,1.826-2.395,2.979-3.686s1.772-2.142,1.859-2.553h-6.169v-1.68h8.076
				C561.166,218.069,560.475,219.704,559.131,221.212z"/>
			<path fill="#F2961C" d="M565.275,227.385c0.229,0.228,0.344,0.503,0.344,0.827c0,0.336-0.114,0.617-0.344,0.845
				c-0.23,0.228-0.508,0.341-0.832,0.341c-0.32,0-0.596-0.113-0.828-0.341s-0.35-0.509-0.35-0.845c0-0.324,0.117-0.6,0.35-0.827
				s0.508-0.341,0.828-0.341C564.768,227.044,565.045,227.157,565.275,227.385z"/>
			<path fill="#F2961C" d="M571.293,222.604l-1.015-0.024v-1.664c0.735-0.01,1.22-0.061,1.453-0.15
				c0.232-0.089,0.487-0.279,0.763-0.572c0.276-0.291,0.414-0.627,0.414-1.006c0-0.373-0.13-0.688-0.389-0.945
				c-0.26-0.258-0.577-0.386-0.95-0.386c-0.368,0-0.683,0.127-0.942,0.382c-0.146,0.15-0.313,0.48-0.502,0.99l-1.567-0.617
				c0.233-0.73,0.517-1.256,0.853-1.574c0.601-0.596,1.32-0.894,2.159-0.894c0.854,0,1.579,0.3,2.175,0.901
				c0.596,0.6,0.893,1.314,0.893,2.143c0,0.844-0.5,1.658-1.501,2.443c0.481,0.032,0.987,0.306,1.518,0.819
				c0.774,0.833,1.161,1.808,1.161,2.923c0,1.125-0.396,2.087-1.189,2.885c-0.793,0.799-1.754,1.197-2.885,1.197
				c-1.121,0-2.078-0.4-2.874-1.201c-0.634-0.639-1.036-1.523-1.21-2.654l1.681-0.608c0.098,0.974,0.344,1.658,0.739,2.054
				c0.465,0.459,1.02,0.689,1.664,0.689c0.654,0,1.213-0.23,1.676-0.689c0.463-0.46,0.693-1.018,0.693-1.672
				c0-0.66-0.23-1.242-0.693-1.746C572.953,223.123,572.246,222.782,571.293,222.604z"/>
			<path fill="#F2961C" d="M583.98,216.306h1.469v7.8h1.145v1.681h-1.145v3.506h-1.68v-3.506h-5.316L583.98,216.306z
				 M583.77,220.096l-2.395,4.01h2.395V220.096z"/>
			<path fill="#F2961C" d="M591.658,219.812c0.303-0.064,0.619-0.098,0.949-0.098c0.606,0,1.188,0.098,1.746,0.293
				c1.25,0.427,2.18,1.217,2.792,2.369c0.384,0.715,0.576,1.451,0.576,2.208c0,0.472-0.073,0.942-0.22,1.413
				c-0.384,1.255-1.152,2.193-2.305,2.816c-0.703,0.373-1.432,0.56-2.184,0.56c-0.477,0-0.957-0.075-1.444-0.228
				c-1.007-0.309-1.878-0.963-2.614-1.964l1.186-1.315c0.601,0.889,1.244,1.435,1.932,1.641c0.314,0.097,0.619,0.146,0.918,0.146
				c0.476,0,0.941-0.119,1.396-0.356c0.741-0.396,1.233-0.996,1.478-1.803c0.098-0.309,0.146-0.613,0.146-0.917
				c0-0.471-0.123-0.937-0.365-1.396c-0.401-0.748-1.008-1.262-1.818-1.543c-0.353-0.125-0.742-0.187-1.17-0.187
				c-0.578,0-1.32,0.144-2.224,0.431l-1.015-0.885l1.461-4.035v-0.656h4.757v1.68H592.3L591.658,219.812z"/>
			<path fill="#27515D" d="M499.086,236.253c0.752,0,1.396,0.268,1.932,0.8c0.535,0.533,0.804,1.176,0.804,1.928
				c0,0.774-0.39,1.253-1.169,1.437c0.562,0.082,1.203,0.482,1.92,1.201c0.717,0.721,1.075,1.716,1.075,2.987
				s-0.446,2.37-1.339,3.296c-0.84,0.871-1.681,1.312-2.525,1.322v0.017h-3.327v-12.987H499.086z M498.137,237.934v2.054h1.096
				c0.248-0.021,0.462-0.117,0.641-0.284c0.195-0.179,0.292-0.419,0.292-0.723c0-0.303-0.101-0.554-0.304-0.751
				s-0.462-0.296-0.775-0.296H498.137z M498.137,241.716v5.836h1.646v-0.024c0.347-0.021,0.777-0.3,1.291-0.836
				c0.568-0.585,0.853-1.28,0.853-2.086c0-0.796-0.283-1.476-0.849-2.042c-0.565-0.564-1.246-0.848-2.041-0.848H498.137z"/>
			<path fill="#27515D" d="M516.74,238.03c1.299,1.299,1.947,2.865,1.947,4.7s-0.648,3.401-1.947,4.7s-2.865,1.947-4.7,1.947
				c-1.834,0-3.401-0.648-4.699-1.947c-1.299-1.299-1.948-2.865-1.948-4.7s0.649-3.401,1.948-4.7
				c1.298-1.299,2.865-1.947,4.699-1.947C513.875,236.083,515.441,236.731,516.74,238.03z M512.04,237.779
				c-1.368,0-2.536,0.483-3.503,1.448c-0.965,0.967-1.448,2.134-1.448,3.503s0.484,2.538,1.453,3.507
				c0.968,0.969,2.135,1.453,3.498,1.453c1.369,0,2.536-0.484,3.503-1.453c0.966-0.969,1.449-2.138,1.449-3.507
				s-0.483-2.536-1.449-3.503C514.576,238.263,513.409,237.779,512.04,237.779z"/>
			<path fill="#27515D" d="M531.942,247.462c-1.337,1.277-2.865,1.916-4.586,1.916c-1.835,0-3.398-0.646-4.691-1.939
				c-1.294-1.293-1.94-2.857-1.94-4.691c0-1.829,0.646-3.393,1.94-4.691c1.293-1.299,2.856-1.949,4.691-1.949
				c1.716,0,3.341,0.701,4.878,2.104l-1.258,1.145c-1.158-1.029-2.365-1.543-3.62-1.543c-1.358,0-2.521,0.482-3.486,1.445
				s-1.448,2.127-1.448,3.49c0,1.369,0.482,2.535,1.448,3.498s2.128,1.445,3.486,1.445c1.169,0,2.138-0.309,2.905-0.926v-3.92h1.681
				V247.462z"/>
			<path fill="#27515D" d="M545.611,238.03c1.299,1.299,1.948,2.865,1.948,4.7s-0.649,3.401-1.948,4.7s-2.865,1.947-4.699,1.947
				s-3.401-0.648-4.699-1.947c-1.299-1.299-1.949-2.865-1.949-4.7s0.65-3.401,1.949-4.7c1.298-1.299,2.865-1.947,4.699-1.947
				S544.312,236.731,545.611,238.03z M540.912,237.779c-1.369,0-2.537,0.483-3.503,1.448c-0.966,0.967-1.448,2.134-1.448,3.503
				s0.484,2.538,1.453,3.507c0.968,0.969,2.135,1.453,3.498,1.453c1.369,0,2.536-0.484,3.502-1.453
				c0.967-0.969,1.449-2.138,1.449-3.507s-0.482-2.536-1.449-3.503C543.448,238.263,542.281,237.779,540.912,237.779z"/>
			<path fill="#27515D" d="M553.111,237.934v11.307h-1.688v-11.307h-3.028v-1.681h7.743v1.681H553.111z"/>
			<path fill="#27515D" d="M562.584,236.253l4.725,12.987h-1.787l-1.672-4.595h-3.441l-1.664,4.595h-1.793l4.724-12.987H562.584z
				 M562.625,233.185h2.045l-2.208,2.266h-1.599L562.625,233.185z M563.241,242.966l-1.112-3.044l-1.104,3.044H563.241z"/>
		</g>
	</g>
	<g>
		<g>
			<polyline fill="none" stroke="#FFFFFF" stroke-width="2" points="243.893,196.682 405.521,196.682 405.371,185.55 
				485.963,185.55 			"/>
			<g>
				<circle fill="#FFFFFF" cx="244.006" cy="196.682" r="2.256"/>
			</g>
		</g>
	</g>
</g>
</svg>
