<?xml version="1.0" encoding="utf-8"?>
<!-- Generator: Adobe Illustrator 16.0.0, SVG Export Plug-In . SVG Version: 6.00 Build 0)  -->
<!DOCTYPE svg PUBLIC "-//W3C//DTD SVG 1.1//EN" "http://www.w3.org/Graphics/SVG/1.1/DTD/svg11.dtd">
<svg version="1.1" id="Capa_1" xmlns="http://www.w3.org/2000/svg" xmlns:xlink="http://www.w3.org/1999/xlink" x="0px" y="0px"
	 width="734.338px" height="413.176px" viewBox="0 0 734.338 413.176" enable-background="new 0 0 734.338 413.176"
	 xml:space="preserve">
<g>
	<g>
		<g>
			<path fill="#F39200" d="M270.869,186.46l-0.135,0.502c-0.002,0.011-0.006,0.022-0.012,0.032l-0.139,0.278
				c-0.01,0.02-0.023,0.036-0.039,0.051l-0.383,0.348l-0.541,0.612c-0.051,0.056-0.133,0.074-0.201,0.043l-0.826-0.364l-0.207,0.021
				l-0.053,0.105l-0.377,1.511l-0.064,1.045c-0.002,0.018-0.006,0.035-0.012,0.051l-0.377,0.99l-0.059,0.393l0.438,1.351
				c0.01,0.026,0.012,0.055,0.008,0.083l-0.066,0.384l0.045,0.224l0.084,0.413l0.113,0.197l1.059,1.025
				c0.012,0.012,0.021,0.025,0.031,0.042l0.904,1.652l0.684,1.246l2.018,2.152h0.271c0.025,0,0.053,0.007,0.078,0.02l0.209,0.104
				c0.039,0.02,0.068,0.053,0.084,0.095l0.094,0.25l0.055,0.065l0.309,0.363c0.014,0.017,0.025,0.036,0.031,0.057l0.1,0.331
				l0.051,0.074l0.072,0.11c0.023,0.037,0.035,0.08,0.027,0.121l-0.045,0.316l0.268-0.05l0.061-0.01h0.002l0,0
				c0.031-0.005,0.064-0.002,0.094,0.01l0.174,0.069c0.057,0.021,0.098,0.072,0.107,0.132l0.107,0.648l0.02,0.107l0.264,0.159
				l0.162,0.096l0.02,0.004l0.094,0.02l0.17-0.024l0.104-0.078l0.303-0.268c0.01-0.01,0.023-0.02,0.037-0.026l0.207-0.104
				c0.035-0.017,0.07-0.024,0.107-0.017l1.109,0.173l0.084-0.001l0.16-0.133c0.057-0.048,0.139-0.054,0.201-0.016l0.174,0.104
				l0.227,0.196l0.049-0.016l0.453-0.875c0.008-0.016,0.02-0.031,0.031-0.042l0.141-0.14c0.037-0.038,0.09-0.058,0.143-0.049
				l0.277,0.035l0.266,0.078l0.111,0.032l0.15,0.074l0.156,0.076c0.016,0.008,0.031,0.02,0.045,0.032l0,0l0.139,0.139
				c0.008,0.009,0.016,0.02,0.023,0.03l0.172,0.27l0.412-0.128l1.096-0.618c0.057-0.032,0.129-0.029,0.184,0.009l0.248,0.173
				l0.172,0.119l0.514,0.09l0.42-0.113l0.973-1.506c0.018-0.028,0.043-0.05,0.074-0.064l0.312-0.139l3.785-0.845
				c0.012-0.003,0.025-0.004,0.037-0.004l0,0h0.242h0.002c0.021,0,0.041,0.004,0.061,0.012l0.104,0.039l0.174,0.065
				c0.012,0.004,0.021,0.01,0.033,0.017l0.869,0.554v0.001l0,0l0,0c0.023,0.016,0.041,0.034,0.055,0.056l0.209,0.347l0.201,0.288
				l0.379,0.108l0.797-0.223l0.885-0.543l1.75-1.478l1.826-1.967c0.008-0.009,0.016-0.016,0.025-0.023l0.244-0.174
				c0.021-0.015,0.049-0.026,0.076-0.03l0.244-0.034l0.266-0.002l0.258-0.034l2.09-0.619l0.943-0.475l1.82-1.272
				c0.01-0.007,0.021-0.013,0.031-0.017l6.773-2.918c0.014-0.005,0.029-0.01,0.043-0.012l1.342-0.201l1.285-1.047l0.682-0.398
				l0.398-0.182c0.01-0.004,0.021-0.008,0.033-0.011l0.312-0.07l0.252-0.114l0.605-0.571c0,0,0.002,0,0.002-0.002
				c0.002,0,0.002-0.002,0.002-0.002l0.264-0.229l0.463-0.662l1.555-3.7c0.01-0.019,0.02-0.036,0.033-0.05l0.381-0.417
				c0.023-0.024,0.053-0.042,0.084-0.05l0.887-0.239l0.381-0.191l4.082-3.563c0.016-0.013,0.035-0.024,0.055-0.032l0.34-0.123
				l0.141-0.165l0.066-1.053c0-0.016,0.004-0.03,0.008-0.045l0.027-0.083l0.111-0.333c0.01-0.029,0.027-0.054,0.049-0.074
				l0.172-0.156l0.211-0.191c0.014-0.013,0.031-0.025,0.051-0.032l0.551-0.228l0.455-0.189l0.223-0.15l0.164-0.111l0.477-0.374
				l1.588-0.851l1.473-1.098c0.014-0.011,0.029-0.019,0.045-0.024l0.486-0.173c0.012-0.005,0.021-0.007,0.035-0.009l0.133-0.018
				l0.367-0.049l0.273-0.111l1.164-0.471l0.9-0.183l1.867-0.073l0.281-0.061l0.645-0.14l0.678-0.305l0.742-0.475l0.719-0.548
				l0.523-0.526l0.777-1.217l0.098-0.293c0.01-0.024,0.021-0.046,0.039-0.065l0.48-0.497l0.514-0.53l0.371-0.642l1.658-3.804
				l0.535-0.824l0.328-0.363l-0.525-0.215c-0.029-0.012-0.055-0.03-0.072-0.054l-0.383-0.486c-0.02-0.027-0.031-0.059-0.035-0.091
				l-0.035-0.382l-0.053-0.175l-0.15-0.181l-0.531-0.428l-0.424-0.225l-1.543-0.581c-0.02-0.007-0.037-0.019-0.053-0.032
				l-0.277-0.244c-0.021-0.019-0.039-0.041-0.047-0.066l-0.209-0.521l-0.117-0.201l-0.143-0.142l-0.678-0.407
				c-0.01-0.007-0.021-0.016-0.033-0.026l-0.172-0.173l-0.283-0.385l-0.174-0.145l-0.727-0.331l-0.295-0.065l-0.572-0.066
				l-0.807,0.035l-0.65,0.069l-0.645,0l-0.363-0.035c-0.014-0.001-0.025-0.004-0.037-0.009l-0.711-0.236l-0.463-0.033l-0.539,0.067
				l-1.613,0.583l-0.953,0.479l-0.516,0.15c-0.02,0.005-0.039,0.008-0.055,0.006l-0.869-0.035l-1.195,0.104l-1.791,0.311
				l-1.314,0.003c-0.037,0-0.074-0.013-0.105-0.035l-0.121-0.091l-0.865-0.366l-0.369-0.062l-0.461,0.066l-0.475,0.102l-0.492,0.201
				c-0.021,0.008-0.043,0.012-0.064,0.012h-0.244l0,0l-2.232-0.139c-0.018-0.001-0.035-0.004-0.049-0.01l-1.703-0.625l-0.717-0.128
				l-1.234,0.035l-0.582-0.072c-0.012-0.001-0.027-0.004-0.039-0.01l-0.73-0.278l-0.695-0.118l-0.395,0.272
				c-0.033,0.023-0.074,0.034-0.113,0.03l-0.361-0.033l-0.355,0.065c-0.025,0.005-0.051,0.004-0.074-0.002l-0.236-0.058
				l-0.209,0.052l-0.533,0.333l-0.854,0.393c-0.021,0.011-0.047,0.016-0.072,0.016h-0.729l-0.404,0.064l-1.584,0.619
				c-0.012,0.005-0.027,0.009-0.041,0.01l-0.592,0.069c-0.014,0.001-0.027,0.001-0.043,0l-0.52-0.07l-0.373,0.002l-0.676,0.168
				c-0.023,0.006-0.051,0.006-0.074,0.002l-0.348-0.07c-0.016-0.002-0.029-0.007-0.043-0.014l-0.625-0.313l-0.182-0.048
				l-0.291,0.029l-0.498,0.199c-0.02,0.008-0.043,0.012-0.064,0.012h-1.752l-0.57,0.135l-2.516,0.932
				c-0.018,0.006-0.033,0.01-0.053,0.011l-0.729,0.034l-0.439-0.035l-0.453,0.001l-0.449,0.096l-1.301,0.616
				c-0.012,0.005-0.021,0.01-0.035,0.012l-1.252,0.304l-1.291,0.952c-0.035,0.026-0.078,0.038-0.119,0.034l-0.381-0.035
				l-0.605-0.106c-0.025-0.005-0.049-0.014-0.07-0.03l-0.73-0.521l-0.912-0.437l-0.438-0.29l-0.332-0.293
				c-0.016-0.014-0.027-0.03-0.039-0.048l-0.578-1.09l-0.887-0.921c-0.008-0.009-0.016-0.02-0.023-0.031l-0.52-0.868
				c-0.012-0.019-0.02-0.039-0.023-0.06l-0.104-0.59l-0.004-0.239c0-0.013,0.002-0.025,0.004-0.038l0.07-0.312
				c0.004-0.019,0.012-0.037,0.021-0.053l0.256-0.421l-0.158,0.086l-0.936,1.504l-0.445,1.472l-0.023,0.171l0.027,0.07l0.289,0.144
				c0.023,0.012,0.043,0.027,0.059,0.048l0.139,0.173c0.016,0.02,0.027,0.042,0.033,0.066l0.139,0.556l0.129,0.284l0.111,0.328
				l0.117,0.231l0.678,0.712c0.037,0.038,0.053,0.093,0.045,0.146l-0.07,0.452c-0.002,0.018-0.008,0.036-0.016,0.051l-0.301,0.603
				l-0.205,1.156l-0.525,1.756c-0.004,0.014-0.01,0.027-0.018,0.04l-0.104,0.174c-0.025,0.042-0.068,0.071-0.115,0.081l-0.521,0.104
				l-0.32,0.118l-0.27,0.293v0.321l2.131,1.133l0.961,0.708c0.029,0.022,0.051,0.053,0.062,0.088l0.154,0.5l0.439,0.312
				c0.018,0.013,0.031,0.027,0.043,0.043l0.508,0.744l0.535,0.436c0.039,0.032,0.062,0.08,0.064,0.13
				c0.002,0.051-0.02,0.1-0.057,0.134l-0.348,0.312c-0.016,0.014-0.033,0.025-0.053,0.032l-0.141,0.057l-0.125,0.125l-0.092,0.212
				l-0.094,0.39l-0.176,0.598c-0.01,0.031-0.027,0.059-0.051,0.08l-0.285,0.255l-0.186,0.399l-0.309,1.612
				c-0.008,0.041-0.029,0.077-0.062,0.103l-0.172,0.139c-0.039,0.031-0.09,0.043-0.139,0.036l-0.209-0.035
				c-0.027-0.005-0.053-0.016-0.074-0.033l-0.799-0.589l-0.193-0.191c-0.012-0.011-0.021-0.025-0.029-0.04l-0.209-0.382l-0.115-0.17
				l-0.068-0.051h-0.143l-0.213,0.106l-0.533,0.6l-2.561,2.768l-0.824,1.375c-0.016,0.025-0.037,0.046-0.062,0.061l-0.957,0.547
				l-1.342,1.203c-0.035,0.032-0.082,0.048-0.129,0.044l-0.451-0.034c-0.049-0.004-0.096-0.029-0.125-0.068l-0.645-0.85
				l-0.436-0.333c-0.014-0.012-0.027-0.025-0.037-0.041l-0.557-0.834l-0.135-0.161l-0.35-0.149l-0.438,0.38
				c-0.012,0.01-0.023,0.018-0.037,0.023l-0.256,0.128l-0.33,0.298l-0.367,0.435l-1.447,1.958l0.064,0.763
				c0.004,0.045-0.01,0.09-0.039,0.125l-0.158,0.19l-0.121,0.273l-0.102,0.502l0.002,0.284l0.092,0.27l0.217,0.375l0.533,0.432
				c0.016,0.014,0.031,0.031,0.041,0.05l0.174,0.312c0.029,0.051,0.029,0.113,0.002,0.166L270.869,186.46z"/>
		</g>
	</g>
	<g>
		<g>
			<g>
				<g>
					<path fill="#FFFFFF" d="M515.045,188.257h-7.4v-4.946c0-1.438-0.079-2.336-0.237-2.692s-0.507-0.535-1.046-0.535
						c-0.609,0-0.996,0.217-1.16,0.65s-0.246,1.371-0.246,2.812v13.219c0,1.383,0.082,2.285,0.246,2.707s0.533,0.633,1.107,0.633
						c0.551,0,0.911-0.211,1.081-0.634s0.255-1.416,0.255-2.978v-3.577h7.4v1.109c0,2.946-0.208,5.035-0.624,6.267
						c-0.416,1.232-1.336,2.312-2.76,3.239c-1.424,0.927-3.179,1.391-5.265,1.391c-2.168,0-3.955-0.393-5.361-1.178
						s-2.338-1.872-2.795-3.261s-0.686-3.478-0.686-6.267v-8.314c0-2.051,0.07-3.589,0.211-4.614s0.56-2.013,1.257-2.962
						s1.664-1.696,2.9-2.241s2.657-0.817,4.263-0.817c2.18,0,3.979,0.421,5.396,1.264c1.418,0.842,2.35,1.893,2.795,3.151
						s0.668,3.215,0.668,5.872V188.257z"/>
					<path fill="#FFFFFF" d="M530.492,175.865l4.232,28.459h-7.563l-0.397-5.115h-2.647l-0.445,5.115h-7.651l3.775-28.459H530.492z
						 M526.569,194.164c-0.375-3.224-0.75-7.208-1.127-11.953c-0.754,5.45-1.228,9.434-1.42,11.953H526.569z"/>
					<path fill="#FFFFFF" d="M551.66,184.478h-6.873v-2.109c0-0.984-0.088-1.611-0.264-1.881s-0.469-0.404-0.879-0.404
						c-0.445,0-0.782,0.182-1.011,0.545s-0.343,0.915-0.343,1.653c0,0.95,0.128,1.666,0.385,2.146
						c0.246,0.481,0.942,1.061,2.091,1.74c3.294,1.955,5.369,3.56,6.225,4.813s1.283,3.275,1.283,6.064
						c0,2.027-0.237,3.521-0.712,4.482s-1.392,1.767-2.751,2.417s-2.941,0.976-4.746,0.976c-1.98,0-3.671-0.375-5.071-1.125
						s-2.317-1.705-2.751-2.865s-0.65-2.807-0.65-4.939v-1.863h6.873v3.463c0,1.066,0.097,1.752,0.29,2.057s0.536,0.457,1.028,0.457
						s0.858-0.193,1.099-0.58s0.36-0.961,0.36-1.723c0-1.676-0.229-2.771-0.686-3.287c-0.469-0.516-1.623-1.377-3.463-2.584
						c-1.84-1.219-3.059-2.104-3.656-2.654s-1.093-1.312-1.485-2.285s-0.589-2.215-0.589-3.727c0-2.18,0.278-3.773,0.835-4.781
						s1.456-1.796,2.698-2.364s2.742-0.853,4.5-0.853c1.922,0,3.56,0.311,4.913,0.932s2.25,1.403,2.689,2.347
						s0.659,2.546,0.659,4.808V184.478z"/>
					<path fill="#FFFFFF" d="M567.388,175.865l4.232,28.459h-7.563l-0.397-5.115h-2.647l-0.445,5.115h-7.651l3.775-28.459H567.388z
						 M563.466,194.164c-0.375-3.224-0.75-7.208-1.127-11.953c-0.754,5.45-1.228,9.434-1.42,11.953H563.466z"/>
					<path fill="#FFFFFF" d="M589.4,175.865v28.459h-6.486l-3.85-12.938v12.938h-6.188v-28.459h6.188l4.148,12.814v-12.814H589.4z"
						/>
					<path fill="#FFFFFF" d="M605.164,175.865l4.232,28.459h-7.563l-0.397-5.115h-2.647l-0.445,5.115h-7.651l3.775-28.459H605.164z
						 M601.241,194.164c-0.375-3.224-0.75-7.208-1.127-11.953c-0.754,5.45-1.228,9.434-1.42,11.953H601.241z"/>
					<path fill="#FFFFFF" d="M610.652,175.865h5.238c3.492,0,5.856,0.135,7.093,0.404s2.244,0.958,3.023,2.065
						s1.169,2.874,1.169,5.3c0,2.215-0.275,3.703-0.826,4.465s-1.635,1.219-3.252,1.371c1.465,0.363,2.449,0.85,2.953,1.459
						s0.817,1.169,0.94,1.679s0.185,1.913,0.185,4.21v7.506h-6.873v-9.457c0-1.523-0.12-2.467-0.36-2.83s-0.87-0.545-1.89-0.545
						v12.832h-7.4V175.865z M618.053,180.734v6.328c0.832,0,1.415-0.114,1.749-0.343s0.501-0.97,0.501-2.224v-1.564
						c0-0.902-0.161-1.494-0.483-1.775S618.908,180.734,618.053,180.734z"/>
					<path fill="#FFFFFF" d="M630.041,175.865h12.34v5.695h-4.939v5.396h4.623v5.414h-4.623v6.258h5.432v5.695h-12.832V175.865z"/>
				</g>
			</g>
		</g>
	</g>
	<g>
		<g>
			<path fill="#F2961C" d="M498.71,225.136v4.156h-1.68v-12.987h3.685c1.044,0.141,1.926,0.571,2.646,1.291
				c0.86,0.866,1.291,1.905,1.291,3.117c0,1.223-0.43,2.266-1.291,3.129c-0.86,0.863-1.899,1.295-3.117,1.295H498.71z
				 M498.71,217.993v5.455h1.534c0.747,0,1.387-0.267,1.92-0.799c0.533-0.533,0.799-1.178,0.799-1.936
				c0-0.752-0.267-1.393-0.799-1.924c-0.533-0.53-1.173-0.795-1.92-0.795H498.71z"/>
			<path fill="#F2961C" d="M512.939,226.427l1.68,0.601c-0.412,0.568-0.709,0.944-0.893,1.128c-0.904,0.904-1.994,1.355-3.271,1.355
				c-1.272,0-2.359-0.452-3.263-1.355s-1.355-1.994-1.355-3.271c0-1.277,0.452-2.368,1.355-3.271
				c0.904-0.903,1.991-1.355,3.263-1.355c1.277,0,2.367,0.452,3.271,1.355c0.184,0.184,0.481,0.555,0.893,1.112l-1.68,0.617
				c-0.217-0.265-0.363-0.436-0.438-0.511c-0.563-0.563-1.245-0.844-2.045-0.844c-0.795,0-1.476,0.283-2.042,0.848
				s-0.848,1.249-0.848,2.05c0,0.795,0.283,1.476,0.848,2.041s1.246,0.848,2.042,0.848c0.801,0,1.485-0.281,2.054-0.844
				C512.579,226.854,512.723,226.687,512.939,226.427z"/>
			<path fill="#F2961C" d="M517.801,216.305c2.11,0.011,3.755,0.608,4.935,1.793c1.293,1.304,1.94,2.871,1.94,4.7
				c0,1.834-0.646,3.401-1.94,4.7c-1.18,1.185-2.825,1.783-4.935,1.794h-1.233v-12.987H517.801z M518.248,218.018v9.57
				c1.336,0,2.432-0.43,3.287-1.291c0.963-0.963,1.445-2.129,1.445-3.499c0-1.363-0.482-2.529-1.445-3.498
				C520.68,218.445,519.584,218.018,518.248,218.018z"/>
			<path fill="#F2961C" d="M538.491,216.305v12.987h-1.68v-10.795h-1.242l1.705-2.191H538.491z"/>
			<path fill="#F2961C" d="M549.757,216.305h1.469v7.8h1.145v1.68h-1.145v3.506h-1.68v-3.506h-5.316L549.757,216.305z
				 M549.546,220.096l-2.395,4.01h2.395V220.096z"/>
			<path fill="#F2961C" d="M556.604,227.385c0.23,0.227,0.345,0.503,0.345,0.828c0,0.335-0.115,0.617-0.345,0.844
				c-0.23,0.227-0.507,0.341-0.832,0.341c-0.319,0-0.595-0.114-0.828-0.341c-0.232-0.228-0.349-0.509-0.349-0.844
				c0-0.325,0.117-0.601,0.349-0.828c0.233-0.228,0.509-0.341,0.828-0.341C556.097,227.043,556.374,227.157,556.604,227.385z"/>
			<path fill="#F2961C" d="M561.104,221.281c0.481-0.52,1.28-0.779,2.395-0.779c1.12,0,2.051,0.371,2.792,1.112
				c0.898,0.904,1.348,1.994,1.348,3.271c0,1.271-0.449,2.358-1.348,3.259s-1.986,1.352-3.263,1.352
				c-1.272,0-2.359-0.449-3.263-1.348c-0.866-0.871-1.301-2.081-1.307-3.628v-0.024c0-1.532,0.414-2.879,1.242-4.042
				c0.833-1.169,1.959-2.551,3.376-4.147h2.208C563.32,218.34,561.927,219.998,561.104,221.281z M560.13,224.885
				c0,0.801,0.283,1.482,0.848,2.045c0.565,0.562,1.249,0.844,2.05,0.844c0.795,0,1.476-0.281,2.041-0.844
				c0.565-0.563,0.848-1.245,0.848-2.045s-0.283-1.483-0.848-2.046c-0.565-0.562-1.246-0.844-2.041-0.844
				c-0.801,0-1.484,0.281-2.05,0.844C560.413,223.402,560.13,224.084,560.13,224.885z"/>
			<path fill="#F2961C" d="M571.583,221.281c0.481-0.52,1.28-0.779,2.395-0.779c1.12,0,2.051,0.371,2.792,1.112
				c0.898,0.904,1.348,1.994,1.348,3.271c0,1.271-0.449,2.358-1.348,3.259s-1.986,1.352-3.263,1.352
				c-1.272,0-2.359-0.449-3.263-1.348c-0.866-0.871-1.301-2.081-1.307-3.628v-0.024c0-1.532,0.414-2.879,1.242-4.042
				c0.833-1.169,1.959-2.551,3.376-4.147h2.208C573.799,218.34,572.406,219.998,571.583,221.281z M570.609,224.885
				c0,0.801,0.283,1.482,0.848,2.045c0.565,0.562,1.249,0.844,2.05,0.844c0.795,0,1.476-0.281,2.041-0.844
				c0.565-0.563,0.848-1.245,0.848-2.045s-0.283-1.483-0.848-2.046c-0.565-0.562-1.246-0.844-2.041-0.844
				c-0.801,0-1.484,0.281-2.05,0.844C570.892,223.402,570.609,224.084,570.609,224.885z"/>
			<path fill="#F2961C" d="M585.979,221.211c-1.345,1.507-2.385,2.783-3.121,3.827c-0.736,1.044-1.131,2.462-1.185,4.253h-1.713
				c0.065-2.213,0.514-3.903,1.348-5.069c0.833-1.166,1.826-2.395,2.979-3.685c1.152-1.291,1.772-2.142,1.858-2.553h-6.168v-1.68
				h8.076C588.015,218.069,587.323,219.705,585.979,221.211z"/>
			<path fill="#27515D" d="M507.079,246.147l1.258,1.128c-1.537,1.402-3.163,2.103-4.878,2.103c-1.834,0-3.398-0.647-4.691-1.94
				c-1.293-1.293-1.94-2.857-1.94-4.692c0-1.829,0.646-3.393,1.94-4.691c1.293-1.299,2.857-1.948,4.691-1.948
				c1.715,0,3.341,0.701,4.878,2.103l-1.258,1.145c-1.158-1.028-2.365-1.542-3.62-1.542c-1.358,0-2.52,0.482-3.486,1.445
				c-0.966,0.963-1.449,2.127-1.449,3.49c0,1.369,0.483,2.536,1.449,3.499c0.966,0.963,2.128,1.445,3.486,1.445
				C504.714,247.69,505.921,247.176,507.079,246.147z"/>
			<path fill="#27515D" d="M514.855,236.253l4.724,12.987h-1.786l-1.672-4.594h-3.441l-1.664,4.594h-1.794l4.724-12.987H514.855z
				 M515.512,242.966l-1.112-3.044l-1.104,3.044H515.512z"/>
			<path fill="#27515D" d="M524.968,242.576c-0.92-0.308-1.665-0.748-2.236-1.319c-0.571-0.571-0.856-1.278-0.856-2.123
				c0-0.828,0.296-1.54,0.889-2.135c0.592-0.595,1.311-0.893,2.155-0.893c0.833,0,1.548,0.295,2.143,0.885
				c0.335,0.325,0.617,0.842,0.844,1.55l-1.526,0.601c-0.184-0.498-0.352-0.823-0.503-0.974c-0.265-0.26-0.584-0.39-0.958-0.39
				c-0.378,0-0.701,0.131-0.966,0.394c-0.265,0.263-0.397,0.583-0.397,0.962s0.132,0.701,0.397,0.966
				c0.298,0.292,0.709,0.56,1.234,0.804c1.017,0.33,1.88,0.85,2.589,1.558c0.795,0.785,1.193,1.737,1.193,2.857
				s-0.396,2.077-1.189,2.869c-0.792,0.793-1.747,1.189-2.861,1.189c-1.12,0-2.075-0.398-2.865-1.193
				c-0.633-0.633-1.033-1.507-1.201-2.622l1.631-0.593c0.103,0.958,0.354,1.637,0.755,2.038c0.465,0.465,1.025,0.698,1.68,0.698
				s1.215-0.232,1.681-0.698c0.465-0.465,0.698-1.028,0.698-1.688c0-0.655-0.232-1.215-0.698-1.68
				C526.156,243.196,525.612,242.841,524.968,242.576z"/>
			<path fill="#27515D" d="M535.423,236.253l4.724,12.987h-1.786l-1.672-4.594h-3.441l-1.664,4.594h-1.794l4.724-12.987H535.423z
				 M536.08,242.966l-1.112-3.044l-1.104,3.044H536.08z"/>
			<path fill="#27515D" d="M541.771,236.253h1.534l5.357,9.269v-9.269h1.688v12.987h-1.469l-5.43-9.383v9.383h-1.68V236.253z"/>
			<path fill="#27515D" d="M557.606,236.253l4.724,12.987h-1.786l-1.672-4.594h-3.441l-1.664,4.594h-1.794l4.724-12.987H557.606z
				 M558.264,242.966l-1.112-3.044l-1.104,3.044H558.264z"/>
			<path fill="#27515D" d="M567.168,245.084h-1.534v4.156h-1.68v-12.987h3.685c1.044,0.141,1.926,0.571,2.646,1.291
				c0.86,0.866,1.291,1.905,1.291,3.117c0,1.223-0.43,2.268-1.291,3.133c-0.595,0.595-1.05,0.931-1.364,1.006l2.881,4.44h-2.037
				L567.168,245.084z M565.634,237.941v5.455h1.534c0.747,0,1.387-0.267,1.92-0.799c0.533-0.533,0.799-1.178,0.799-1.936
				c0-0.752-0.267-1.393-0.799-1.924c-0.533-0.53-1.173-0.795-1.92-0.795H565.634z"/>
			<path fill="#27515D" d="M580.456,236.253v1.68h-5.316v3.969h5.316v1.681h-5.316v3.969h5.316v1.688h-6.997v-12.987H580.456z"/>
		</g>
	</g>
	<g>
		<g>
			<polyline fill="none" stroke="#FFFFFF" stroke-width="2" points="306.841,170.957 405.947,185.55 486.537,185.55 			"/>
			<g>
				<circle fill="#FFFFFF" cx="306.953" cy="170.974" r="2.256"/>
			</g>
		</g>
	</g>
</g>
</svg>
