<?xml version="1.0" encoding="utf-8"?>
<!-- Generator: Adobe Illustrator 16.0.0, SVG Export Plug-In . SVG Version: 6.00 Build 0)  -->
<!DOCTYPE svg PUBLIC "-//W3C//DTD SVG 1.1//EN" "http://www.w3.org/Graphics/SVG/1.1/DTD/svg11.dtd">
<svg version="1.1" id="Capa_1" xmlns="http://www.w3.org/2000/svg" xmlns:xlink="http://www.w3.org/1999/xlink" x="0px" y="0px"
	 width="734.339px" height="413.177px" viewBox="0 0 734.339 413.177" enable-background="new 0 0 734.339 413.177"
	 xml:space="preserve">
<g>
	<g>
		<g>
			<path fill="#F39200" d="M172.77,294.967l-0.199-0.466c-0.007-0.017-0.012-0.033-0.014-0.052l-0.069-0.729l-0.066-0.292
				l-0.476-1.079c-0.007-0.016-0.011-0.03-0.013-0.047l-0.035-0.241l-0.002-0.269c0-0.037,0.013-0.074,0.035-0.104l0.104-0.139
				c0.008-0.012,0.019-0.022,0.03-0.033l0.144-0.113l0.038-0.076l0.027-0.305l-0.073-0.173l-0.096-0.096l-0.322-0.161l-0.465-0.285
				l-1.095-0.881l-0.92-0.953c-0.062-0.065-0.064-0.166-0.006-0.233l0.451-0.521l1.455-1.804l0.411-0.581
				c0.011-0.017,0.026-0.031,0.043-0.043l0.42-0.29l0.64-1.113l1.209-2.592l0.192-0.58v-0.151l-0.048-0.143l-0.017-0.018
				l-0.032-0.031l-0.242-0.092c-0.014-0.005-0.028-0.012-0.041-0.021l-0.562-0.385h-0.169h-0.001c-0.08,0-0.148-0.055-0.168-0.131
				l-0.035-0.141l-0.143-1.308l0.033-1.032l0.036-0.358c0.007-0.071,0.058-0.131,0.127-0.15l0.383-0.104l1.63-0.613l0.225-0.161
				l0.271-0.273l0.079-0.157l0.028-0.225l-0.048-0.331l-0.02-0.132c0-0.008,0-0.016,0-0.023s-0.001-0.016,0-0.023l0,0l0,0
				l0.009-0.068l0.025-0.209c0.008-0.057,0.044-0.107,0.095-0.134l0.14-0.069c0.073-0.035,0.16-0.018,0.212,0.043l0.116,0.141
				l0.27-0.023l0.589-0.5l-0.031-0.818l-0.24-1.117l-0.108-2.007c0-0.017,0.002-0.035,0.006-0.052l0.104-0.416
				c0.012-0.044,0.039-0.082,0.077-0.105l1.09-0.682l0.486-0.551l0.094-0.218l0.122-0.656l-0.022-0.11l-0.172-0.258l-0.217-0.155
				c-0.018-0.013-0.032-0.028-0.045-0.045l-1.362-2.113l-0.278-0.127l-0.704,0.193l-0.958,0.142l-0.708,0.204l-0.088,0.047
				l-0.715,0.613l-0.196,0.122c-0.021,0.012-0.043,0.02-0.066,0.021l-0.243,0.035l-0.267,0.001c-0.019,0-0.037-0.002-0.055-0.009
				l-0.418-0.139c-0.021-0.007-0.037-0.017-0.054-0.029l-0.335-0.273l0,0h-0.078l-0.316,0.125c-0.021,0.01-0.043,0.013-0.064,0.013
				h-0.352l-1.153,0.407c-0.042,0.014-0.087,0.014-0.127-0.004l-0.243-0.104l-0.174-0.114l-0.24,0.055
				c-0.03,0.005-0.061,0.005-0.088-0.004l-1.39-0.417c-0.047-0.014-0.086-0.049-0.107-0.093c-0.021-0.044-0.022-0.096-0.003-0.142
				l0.583-1.373l0.066-0.33l0.029-0.298l-0.096-0.351c-0.004-0.016-0.006-0.031-0.006-0.047v-0.312l0,0
				c0-0.019,0.002-0.038,0.009-0.055l0.382-1.113c0.011-0.029,0.028-0.055,0.051-0.074l0.81-0.709l0.182-0.332l0.064-0.321
				c0.008-0.041,0.031-0.079,0.066-0.104l0.138-0.104c0.018-0.013,0.038-0.022,0.06-0.028l0.307-0.084l0.034-0.07l0.24-0.568
				l-0.28-0.477l-0.378-0.22l-0.251-0.093l-0.336-0.184l-1.409-1.055l-0.228-0.227c-0.013-0.012-0.024-0.028-0.032-0.043
				l-0.104-0.209c-0.021-0.041-0.023-0.09-0.01-0.133l0.243-0.729c0.005-0.013,0.011-0.026,0.019-0.038l0.325-0.521l0.059-0.589
				l-0.213-0.293l-2.01-0.954l-0.428-0.13l-0.216-0.027l-0.602,0.001l-0.367,0.063l-0.193,0.083l-0.255,0.254
				c-0.019,0.019-0.043,0.034-0.067,0.043l-0.418,0.139c-0.012,0.003-0.023,0.007-0.036,0.008l-0.659,0.069l-0.606,0.137
				l-0.12,0.049l-0.364,0.297c-0.013,0.012-0.028,0.021-0.045,0.027l-0.694,0.277c-0.023,0.009-0.046,0.016-0.073,0.012
				l-0.692-0.032l-1.043,0.403c-0.02,0.008-0.041,0.013-0.062,0.013h-0.451l-0.544-0.071l-0.865-0.285l-0.715-0.17l-0.727-0.322
				c-0.02-0.01-0.036-0.021-0.052-0.037l-0.208-0.208c-0.014-0.013-0.024-0.028-0.033-0.044l-0.104-0.209
				c-0.009-0.02-0.015-0.042-0.018-0.062l-0.067-0.744l-0.055-0.166l-1.654-2.412l-0.433-1.002c-0.005-0.013-0.011-0.026-0.012-0.04
				l-0.035-0.209c-0.003-0.018-0.003-0.037,0-0.057l0.069-0.416l0.285-0.829l0.093-0.497l-0.028-0.201l-0.307-0.815l-0.111-0.548
				l-0.033-0.409l-0.673-0.706l-2.074-1.36l-0.396-0.08l-0.066,0.066l0.104,0.316l0.196,0.353c0.006,0.012,0.011,0.023,0.015,0.036
				l0.208,0.729c0.005,0.017,0.007,0.031,0.007,0.048v0.834c0,0.023-0.004,0.047-0.014,0.067l-0.083,0.194l0.024,0.121
				c0.003,0.017,0.004,0.035,0.002,0.053l-0.035,0.312c-0.008,0.07-0.057,0.129-0.125,0.148l-0.462,0.132l-0.361,0.229
				c-0.02,0.013-0.041,0.02-0.064,0.024l-0.208,0.034c-0.024,0.006-0.05,0.004-0.074-0.003l-0.382-0.104l-0.866-0.429l-0.228-0.15
				c-0.012-0.008-0.021-0.017-0.032-0.027l-0.347-0.382c-0.014-0.015-0.024-0.033-0.032-0.051l-0.382-0.939l-0.229-0.354
				c-0.026-0.041-0.034-0.092-0.021-0.139l0.128-0.477l-0.157-0.627l-0.123-0.212l-0.169,0.151l-0.171,0.284v0.683l0.103,0.633
				l0.271,0.77c0.019,0.055,0.009,0.115-0.025,0.16c-0.036,0.047-0.09,0.074-0.149,0.069l-0.557-0.034
				c-0.053-0.004-0.103-0.031-0.132-0.076l-0.451-0.66l-0.385-0.594l-0.463-1.116l-0.115-0.015l-0.536,0.348l-0.878,0.849
				c-0.019,0.018-0.041,0.032-0.065,0.04l-0.465,0.154l-0.522,0.783l-0.603,0.713l-0.588,0.725
				c-0.042,0.054-0.112,0.076-0.178,0.061l-0.288-0.072l-0.197,0.345l-0.169,1.079l-0.354,1.104
				c-0.022,0.074-0.088,0.126-0.171,0.121c-0.077-0.003-0.144-0.057-0.162-0.133l-0.104-0.416l-0.07-0.385l-0.121,0.303
				l-0.491,1.018l-0.69,1.244l-0.203,0.644c-0.015,0.048-0.05,0.087-0.095,0.106l-0.553,0.246l-0.15,0.514l-0.547,1.199l0.067,0.963
				l0.203,0.768l0.211,1.123l0.271,0.773c0.004,0.012,0.006,0.025,0.008,0.039l0.101,1.053l0.048,0.049l0.091-0.034l0.186-0.678
				c0.005-0.019,0.012-0.035,0.022-0.051l0.208-0.312c0.016-0.023,0.036-0.042,0.059-0.056l0.243-0.139
				c0.048-0.026,0.104-0.029,0.155-0.008l0.243,0.104c0.016,0.007,0.031,0.016,0.045,0.027l0.242,0.209l0.194,0.229
				c0.009,0.011,0.016,0.021,0.021,0.033l0.104,0.209c0.016,0.03,0.021,0.065,0.017,0.099l-0.033,0.277l-0.105,0.601l-0.034,0.334
				l-0.104,0.487v0.361l0.079,0.176h0.323l0.202-0.127l0.152-0.243c0.039-0.063,0.116-0.093,0.188-0.076l0.139,0.034
				c0.078,0.02,0.132,0.089,0.132,0.169v0.208c0,0.027-0.006,0.055-0.018,0.077l-0.16,0.319l-0.026,0.263l0.184,0.335
				c0.022,0.04,0.026,0.088,0.014,0.133l-0.174,0.59c-0.007,0.025-0.02,0.049-0.037,0.068l-0.283,0.314l-0.122,0.483l0.032,0.281
				c0.01,0.093-0.056,0.178-0.148,0.192l-0.243,0.033c-0.027,0.004-0.054,0.002-0.08-0.006l-0.207-0.07l-0.275-0.153
				c-0.018-0.011-0.034-0.022-0.048-0.039l-0.204-0.222l-0.618-0.064l-0.536-0.106l-0.78-0.067l-0.508-0.107
				c-0.013-0.003-0.025-0.006-0.036-0.012l-0.433-0.199l-0.477-0.095l-0.357,0.032c-0.012,0-0.024,0-0.037-0.001l-0.526-0.066
				l-1.008,0.228l-0.456,0.358l-0.776,0.882l-0.598,0.599l-0.297,0.397l-0.366,0.707c-0.01,0.018-0.022,0.033-0.037,0.047
				l-0.417,0.382c-0.022,0.021-0.049,0.035-0.078,0.042l-0.451,0.104l-0.282,0.114l-0.156,0.182l-0.073,0.271l0.158,0.266
				l0.332,0.334l0.599,0.394l0.683,0.375l0.231,0.164l0.278,0.062c0.028,0.006,0.054,0.02,0.075,0.037l0.244,0.209l0.108,0.128
				l0.645-0.292c0.047-0.022,0.102-0.021,0.149,0.002l0.138,0.07c0.034,0.017,0.062,0.044,0.078,0.078l0.174,0.347
				c0.013,0.023,0.019,0.051,0.019,0.077v0.451l-0.035,0.432v0.297l0.192,0.191l0.286,0.187l0.297,0.257
				c0.022,0.021,0.041,0.046,0.05,0.076l0.139,0.416c0.027,0.083-0.009,0.172-0.087,0.211l-0.085,0.042l1.114,0.771
				c0.017,0.011,0.031,0.026,0.043,0.044l0.472,0.674l0.676,0.539c0.015,0.014,0.027,0.027,0.038,0.043l0.243,0.383l0.253,0.541
				l0.316,0.438l0.407,0.312l0.484,0.151l0.304-0.062l0.331-0.1c0.034-0.012,0.071-0.01,0.105,0.002l0.209,0.07
				c0.065,0.021,0.112,0.081,0.117,0.15l0.033,0.424l0.081,0.188l0.465,0.499c0.016,0.017,0.028,0.037,0.036,0.06l0.063,0.174
				l0.128-0.086c0.025-0.016,0.052-0.023,0.08-0.027l0.348-0.035c0.018-0.002,0.038,0,0.057,0.005l1.32,0.312
				c0.023,0.006,0.045,0.016,0.064,0.03l0.417,0.312c0.009,0.007,0.017,0.016,0.025,0.023l2.177,2.454l0.527,0.395l0.436,0.201
				l1.362,0.372l0.518,0.255l3.049,2.311l0.912,0.452l1.631,0.067c0.018,0.001,0.036,0.006,0.054,0.012l1.567,0.579h0.214
				l0.218-0.033c0.059-0.007,0.117,0.014,0.156,0.06l0.209,0.244c0.011,0.012,0.021,0.026,0.026,0.043l0.104,0.243
				c0.014,0.03,0.018,0.062,0.013,0.093l-0.029,0.207l0.045,0.157l0.18,0.155l0.527,0.197l0.45,0.127h0.441l0.434-0.1l1.854-0.688
				c0.02-0.007,0.041-0.011,0.061-0.011h0.557c0.039,0,0.077,0.013,0.107,0.038l0.695,0.555c0.036,0.031,0.06,0.072,0.064,0.119
				l0.169,1.624l0.444,0.666l1.482,1.046l0.808,0.291l0.758-0.1c0.022-0.003,0.044-0.002,0.065,0.003l0.938,0.243
				c0.061,0.017,0.108,0.062,0.125,0.124l0.312,1.146l0.179,2.501l0.203,0.729l0.105,0.693l0.217,0.529l0.569,0.443l0.775,0.303
				l2.472,0.477c0.011,0.004,0.022,0.006,0.033,0.012l0.417,0.174l0.358,0.179l0.321,0.084l0.434-0.031l1.159-0.409l0.445-0.076
				c0.022-0.005,0.046-0.003,0.066,0l0.14,0.031l0.069-0.346c0.009-0.044,0.033-0.083,0.069-0.107l0.197-0.142l0.073-0.219
				L172.77,294.967z"/>
		</g>
	</g>
	<g>
		<g>
			<g>
				<g>
					<path fill="#FFFFFF" d="M513.788,175.864v28.459h-6.486l-3.85-12.938v12.938h-6.188v-28.459h6.188l4.148,12.814v-12.814
						H513.788z"/>
					<path fill="#FFFFFF" d="M529.552,175.864l4.231,28.459h-7.563l-0.396-5.115h-2.647l-0.444,5.115h-7.651l3.774-28.459H529.552z
						 M525.629,194.163c-0.374-3.223-0.75-7.207-1.127-11.953c-0.754,5.45-1.228,9.435-1.421,11.953H525.629z"/>
					<path fill="#FFFFFF" d="M535.04,175.864h5.238c3.492,0,5.856,0.135,7.093,0.404s2.244,0.959,3.023,2.066
						s1.169,2.873,1.169,5.299c0,2.215-0.275,3.703-0.826,4.465s-1.635,1.219-3.252,1.371c1.465,0.363,2.449,0.85,2.953,1.459
						s0.817,1.17,0.94,1.68s0.185,1.912,0.185,4.209v7.506h-6.873v-9.457c0-1.523-0.12-2.467-0.36-2.83s-0.87-0.545-1.89-0.545
						v12.832h-7.4V175.864z M542.44,180.733v6.328c0.832,0,1.415-0.113,1.749-0.342s0.501-0.971,0.501-2.225v-1.564
						c0-0.902-0.161-1.494-0.483-1.775S543.296,180.733,542.44,180.733z"/>
					<path fill="#FFFFFF" d="M561.829,175.864v28.459h-7.4v-28.459H561.829z"/>
					<path fill="#FFFFFF" d="M581.323,175.864v28.459h-6.486l-3.85-12.938v12.938H564.8v-28.459h6.188l4.148,12.814v-12.814H581.323
						z M580.479,171.62c-0.539,1.187-1.201,2.016-1.984,2.484c-0.785,0.471-1.477,0.705-2.073,0.705
						c-0.831,0-1.728-0.193-2.688-0.58l-1.3-0.51c-0.832-0.34-1.452-0.51-1.861-0.51c-0.867,0-1.582,0.586-2.144,1.758l-2.786-1.854
						c1.288-2.268,2.74-3.402,4.355-3.402c0.844,0,1.764,0.188,2.758,0.562l1.09,0.404c0.913,0.34,1.533,0.51,1.861,0.51
						c0.973,0,1.616-0.527,1.933-1.582L580.479,171.62z"/>
					<path fill="#FFFFFF" d="M601.204,192.528c0,2.859-0.067,4.885-0.202,6.074s-0.557,2.275-1.266,3.26s-1.667,1.74-2.874,2.268
						s-2.613,0.791-4.219,0.791c-1.523,0-2.892-0.248-4.104-0.746s-2.188-1.246-2.927-2.242s-1.178-2.08-1.318-3.252
						s-0.211-3.223-0.211-6.152v-4.869c0-2.859,0.067-4.883,0.202-6.072s0.557-2.277,1.266-3.262s1.667-1.74,2.874-2.268
						s2.613-0.791,4.219-0.791c1.523,0,2.892,0.25,4.104,0.748s2.188,1.244,2.927,2.24s1.178,2.08,1.318,3.252
						s0.211,3.223,0.211,6.152V192.528z M593.804,183.177c0-1.324-0.073-2.17-0.22-2.539s-0.448-0.555-0.905-0.555
						c-0.387,0-0.683,0.15-0.888,0.449s-0.308,1.18-0.308,2.645v13.289c0,1.652,0.067,2.672,0.202,3.059s0.448,0.58,0.94,0.58
						c0.504,0,0.826-0.223,0.967-0.668s0.211-1.506,0.211-3.182V183.177z"/>
				</g>
			</g>
		</g>
	</g>
	<g>
		<g>
			<path fill="#F2961C" d="M498.21,225.136v4.156h-1.68v-12.986h3.686c1.043,0.141,1.926,0.57,2.646,1.29
				c0.86,0.866,1.29,1.905,1.29,3.116c0,1.224-0.43,2.267-1.29,3.129c-0.86,0.863-1.899,1.295-3.117,1.295H498.21z M498.21,217.993
				v5.455h1.534c0.747,0,1.387-0.268,1.92-0.8c0.532-0.533,0.8-1.179,0.8-1.937c0-0.752-0.268-1.393-0.8-1.924
				c-0.533-0.529-1.173-0.795-1.92-0.795H498.21z"/>
			<path fill="#F2961C" d="M512.439,226.427l1.681,0.601c-0.412,0.568-0.709,0.944-0.894,1.128
				c-0.903,0.904-1.994,1.355-3.271,1.355c-1.272,0-2.359-0.451-3.264-1.355c-0.904-0.903-1.355-1.994-1.355-3.271
				c0-1.277,0.451-2.368,1.355-3.271s1.991-1.355,3.264-1.355c1.276,0,2.367,0.452,3.271,1.355c0.185,0.185,0.481,0.555,0.894,1.112
				l-1.681,0.617c-0.217-0.266-0.362-0.436-0.438-0.512c-0.562-0.562-1.244-0.844-2.045-0.844c-0.796,0-1.477,0.282-2.042,0.848
				s-0.849,1.249-0.849,2.05c0,0.796,0.283,1.476,0.849,2.041s1.246,0.849,2.042,0.849c0.801,0,1.484-0.281,2.053-0.844
				C512.079,226.854,512.223,226.687,512.439,226.427z"/>
			<path fill="#F2961C" d="M517.301,216.306c2.11,0.01,3.755,0.607,4.935,1.793c1.294,1.305,1.94,2.871,1.94,4.699
				c0,1.835-0.646,3.401-1.94,4.7c-1.18,1.185-2.824,1.783-4.935,1.794h-1.233v-12.986H517.301z M517.747,218.018v9.569
				c1.337,0,2.433-0.43,3.287-1.29c0.963-0.963,1.445-2.13,1.445-3.499c0-1.363-0.482-2.529-1.445-3.498
				C520.18,218.445,519.084,218.018,517.747,218.018z"/>
			<path fill="#F2961C" d="M534.396,219.812c0.303-0.064,0.619-0.098,0.949-0.098c0.605,0,1.188,0.098,1.745,0.293
				c1.25,0.427,2.181,1.217,2.792,2.369c0.385,0.715,0.576,1.451,0.576,2.208c0,0.472-0.072,0.942-0.219,1.413
				c-0.385,1.255-1.152,2.193-2.305,2.816c-0.703,0.373-1.432,0.56-2.184,0.56c-0.477,0-0.958-0.075-1.445-0.228
				c-1.006-0.309-1.877-0.963-2.613-1.964l1.186-1.315c0.6,0.889,1.244,1.435,1.932,1.641c0.313,0.097,0.619,0.146,0.917,0.146
				c0.476,0,0.941-0.119,1.396-0.356c0.742-0.396,1.234-0.996,1.478-1.803c0.098-0.309,0.146-0.613,0.146-0.917
				c0-0.471-0.122-0.937-0.365-1.396c-0.401-0.748-1.007-1.262-1.818-1.543c-0.353-0.125-0.741-0.187-1.169-0.187
				c-0.579,0-1.32,0.144-2.225,0.431l-1.014-0.885l1.461-4.035v-0.656h4.756v1.68h-3.336L534.396,219.812z"/>
			<path fill="#F2961C" d="M546.659,229.454c-1.33,0-2.395-0.398-3.189-1.197c-0.795-0.798-1.193-1.76-1.193-2.885
				c0-1.386,0.761-2.633,2.281-3.742c-0.73-0.785-1.096-1.6-1.096-2.443c0-0.828,0.296-1.543,0.889-2.143
				c0.592-0.602,1.316-0.901,2.172-0.901h0.268c0.854,0,1.58,0.3,2.175,0.901c0.595,0.6,0.894,1.314,0.894,2.143
				c0,0.844-0.396,1.65-1.186,2.419c1.58,1.126,2.37,2.381,2.37,3.767c0,1.125-0.397,2.087-1.193,2.885
				C549.054,229.056,547.991,229.454,546.659,229.454z M546.659,227.733c0.855,0,1.515-0.23,1.977-0.689
				c0.463-0.46,0.694-1.018,0.694-1.672c0-0.66-0.229-1.236-0.69-1.729c-0.453-0.497-1.114-0.836-1.98-1.015
				c-0.871,0.179-1.533,0.518-1.988,1.015c-0.454,0.493-0.682,1.069-0.682,1.729c0,0.654,0.23,1.212,0.689,1.672
				C545.14,227.503,545.8,227.733,546.659,227.733z M546.619,217.863c-0.038-0.005-0.07-0.008-0.097-0.008
				c-0.369,0-0.683,0.128-0.942,0.386c-0.26,0.257-0.39,0.572-0.39,0.945c0,0.379,0.137,0.715,0.41,1.006
				c0.273,0.293,0.521,0.482,0.742,0.568c0.119,0.044,0.225,0.073,0.316,0.09c0.093-0.017,0.198-0.046,0.317-0.09
				c0.216-0.086,0.462-0.275,0.738-0.568c0.276-0.291,0.414-0.627,0.414-1.006c0-0.373-0.13-0.688-0.39-0.945
				c-0.26-0.258-0.576-0.386-0.949-0.386c-0.021,0-0.052,0.003-0.09,0.008H546.619z"/>
			<path fill="#F2961C" d="M554.732,227.385c0.229,0.228,0.345,0.503,0.345,0.827c0,0.336-0.115,0.617-0.345,0.845
				c-0.23,0.228-0.507,0.341-0.832,0.341c-0.319,0-0.595-0.113-0.828-0.341c-0.232-0.228-0.349-0.509-0.349-0.845
				c0-0.324,0.116-0.6,0.349-0.827c0.233-0.228,0.509-0.341,0.828-0.341C554.226,227.044,554.502,227.157,554.732,227.385z"/>
			<path fill="#F2961C" d="M559.542,219.812c0.303-0.064,0.619-0.098,0.949-0.098c0.605,0,1.188,0.098,1.744,0.293
				c1.25,0.427,2.182,1.217,2.793,2.369c0.385,0.715,0.576,1.451,0.576,2.208c0,0.472-0.072,0.942-0.219,1.413
				c-0.385,1.255-1.152,2.193-2.306,2.816c-0.703,0.373-1.431,0.56-2.183,0.56c-0.477,0-0.959-0.075-1.445-0.228
				c-1.007-0.309-1.878-0.963-2.613-1.964l1.185-1.315c0.601,0.889,1.245,1.435,1.932,1.641c0.313,0.097,0.62,0.146,0.917,0.146
				c0.477,0,0.941-0.119,1.396-0.356c0.741-0.396,1.234-0.996,1.477-1.803c0.098-0.309,0.146-0.613,0.146-0.917
				c0-0.471-0.121-0.937-0.365-1.396c-0.4-0.748-1.006-1.262-1.818-1.543c-0.352-0.125-0.74-0.187-1.168-0.187
				c-0.58,0-1.32,0.144-2.225,0.431l-1.015-0.885l1.462-4.035v-0.656h4.756v1.68h-3.336L559.542,219.812z"/>
			<path fill="#F2961C" d="M573.803,216.306v12.986h-1.681v-10.795h-1.242l1.705-2.191H573.803z"/>
			<path fill="#F2961C" d="M583.389,229.454c-1.331,0-2.395-0.398-3.19-1.197c-0.795-0.798-1.192-1.76-1.192-2.885
				c0-1.386,0.761-2.633,2.28-3.742c-0.73-0.785-1.096-1.6-1.096-2.443c0-0.828,0.297-1.543,0.889-2.143
				c0.593-0.602,1.316-0.901,2.172-0.901h0.268c0.855,0,1.58,0.3,2.176,0.901c0.595,0.6,0.893,1.314,0.893,2.143
				c0,0.844-0.395,1.65-1.186,2.419c1.58,1.126,2.371,2.381,2.371,3.767c0,1.125-0.398,2.087-1.193,2.885
				C585.783,229.056,584.72,229.454,583.389,229.454z M583.389,227.733c0.854,0,1.515-0.23,1.977-0.689
				c0.463-0.46,0.694-1.018,0.694-1.672c0-0.66-0.23-1.236-0.69-1.729c-0.454-0.497-1.114-0.836-1.98-1.015
				c-0.871,0.179-1.534,0.518-1.988,1.015c-0.454,0.493-0.683,1.069-0.683,1.729c0,0.654,0.23,1.212,0.69,1.672
				C581.868,227.503,582.528,227.733,583.389,227.733z M583.349,217.863c-0.038-0.005-0.07-0.008-0.098-0.008
				c-0.368,0-0.682,0.128-0.941,0.386c-0.26,0.257-0.391,0.572-0.391,0.945c0,0.379,0.137,0.715,0.41,1.006
				c0.273,0.293,0.521,0.482,0.743,0.568c0.119,0.044,0.225,0.073,0.316,0.09c0.093-0.017,0.198-0.046,0.317-0.09
				c0.216-0.086,0.462-0.275,0.738-0.568c0.275-0.291,0.414-0.627,0.414-1.006c0-0.373-0.131-0.688-0.391-0.945
				c-0.26-0.258-0.576-0.386-0.949-0.386c-0.021,0-0.051,0.003-0.09,0.008H583.349z"/>
			<path fill="#A0C219" d="M496.53,236.253h1.533l5.357,9.27v-9.27h1.688v12.987h-1.469l-5.431-9.384v9.384h-1.68V236.253z"/>
			<path fill="#A0C219" d="M512.366,236.253l4.725,12.987h-1.787l-1.672-4.595h-3.441l-1.664,4.595h-1.793l4.724-12.987H512.366z
				 M513.023,242.966l-1.112-3.044l-1.104,3.044H513.023z"/>
			<path fill="#A0C219" d="M521.928,245.085h-1.534v4.155h-1.68v-12.987h3.686c1.043,0.141,1.926,0.571,2.646,1.291
				c0.86,0.865,1.29,1.904,1.29,3.117c0,1.223-0.43,2.268-1.29,3.133c-0.595,0.596-1.05,0.931-1.364,1.006l2.882,4.44h-2.037
				L521.928,245.085z M520.394,237.941v5.454h1.534c0.747,0,1.387-0.266,1.92-0.799c0.532-0.533,0.8-1.178,0.8-1.936
				c0-0.752-0.268-1.394-0.8-1.924c-0.533-0.531-1.173-0.796-1.92-0.796H520.394z"/>
			<path fill="#A0C219" d="M530.062,236.253v12.987h-1.681v-12.987H530.062z"/>
			<path fill="#A0C219" d="M532.667,236.253h1.533l5.357,9.27v-9.27h1.688v12.987h-1.469l-5.43-9.384v9.384h-1.68V236.253z
				 M537.155,233.444c0.335,0.314,0.573,0.471,0.714,0.471v0.009c0.163,0,0.243-0.105,0.243-0.317c0-0.141-0.035-0.326-0.105-0.56
				h1.51c-0.205,1.19-0.604,1.872-1.193,2.046c-0.15,0.043-0.303,0.064-0.454,0.064c-0.4,0-0.762-0.154-1.083-0.463
				c-0.322-0.309-0.56-0.463-0.711-0.463h-0.032c-0.163,0.012-0.243,0.117-0.243,0.317c0,0.136,0.037,0.313,0.113,0.536h-1.518
				c0.211-1.191,0.613-1.873,1.209-2.046c0.151-0.044,0.303-0.065,0.455-0.065C536.454,232.974,536.819,233.131,537.155,233.444z"/>
			<path fill="#A0C219" d="M554.825,238.03c1.299,1.299,1.948,2.865,1.948,4.7s-0.649,3.401-1.948,4.7s-2.865,1.947-4.699,1.947
				s-3.401-0.648-4.699-1.947c-1.299-1.299-1.949-2.865-1.949-4.7s0.65-3.401,1.949-4.7c1.298-1.299,2.865-1.947,4.699-1.947
				S553.526,236.731,554.825,238.03z M550.126,237.779c-1.369,0-2.537,0.483-3.503,1.448c-0.966,0.967-1.448,2.134-1.448,3.503
				s0.484,2.538,1.453,3.507c0.968,0.969,2.135,1.453,3.498,1.453c1.369,0,2.536-0.484,3.502-1.453
				c0.967-0.969,1.449-2.138,1.449-3.507s-0.482-2.536-1.449-3.503C552.662,238.263,551.495,237.779,550.126,237.779z"/>
		</g>
	</g>
	<g>
		<g>
			<polyline fill="none" stroke="#FFFFFF" stroke-width="2" points="151.427,253.965 405.445,185.55 486.037,185.55 			"/>
			<g>
				<circle fill="#FFFFFF" cx="151.536" cy="253.935" r="2.256"/>
			</g>
		</g>
	</g>
</g>
</svg>
