<?xml version="1.0" encoding="utf-8"?>
<!-- Generator: Adobe Illustrator 24.2.3, SVG Export Plug-In . SVG Version: 6.00 Build 0)  -->
<svg version="1.1" id="Capa_1" xmlns="http://www.w3.org/2000/svg" xmlns:xlink="http://www.w3.org/1999/xlink" x="0px" y="0px"
	 viewBox="0 0 818.1 395" style="enable-background:new 0 0 818.1 395;" xml:space="preserve">
<style type="text/css">
	.st0{fill:#2C5A67;}
	.st1{fill:#A0C219;}
	.st2{fill:#F2961C;}
	.st3{fill:#FFFFFF;}
</style>
<g>
	<g>
		<path class="st0" d="M0,0l5.8,395l767.9-2.9l32-343.1c-3.5,1.6-7.5,2.4-11.7,2.2c-13.5-0.8-23.8-12.3-23-25.8
			c0.2-3.7,1.2-7.1,2.8-10.1L0,0z"/>
		<path class="st0" d="M796.2,14.7c-6.6-0.4-12.3,4.7-12.7,11.3c-0.4,6.6,4.7,12.3,11.3,12.7c6.6,0.4,12.3-4.7,12.7-11.3
			C807.9,20.8,802.8,15.1,796.2,14.7z M801.1,31.6c0.3,0.4,0.3,1-0.1,1.3c-0.4,0.3-1,0.3-1.3-0.1l-4.2-4.8l-4.8,4.2
			c-0.4,0.3-1,0.3-1.3-0.1c-0.3-0.4-0.3-1,0.1-1.3l4.8-4.2l-4.2-4.8c-0.3-0.4-0.3-1,0.1-1.3c0.4-0.3,1-0.3,1.3,0.1l4.2,4.8l4.8-4.2
			c0.4-0.3,1-0.3,1.3,0.1c0.3,0.4,0.3,1-0.1,1.3l-4.8,4.2L801.1,31.6z"/>
		<g>
			<path class="st0" d="M772.9,25.4c0.7-12.5,11.4-22,23.9-21.3c12.5,0.7,22,11.4,21.3,23.9c-0.7,12.5-11.4,22-23.9,21.3
				C781.7,48.6,772.2,37.9,772.9,25.4z M779.9,25.8c-0.5,8.6,6.1,16,14.7,16.5c8.6,0.5,16-6.1,16.5-14.7c0.5-8.6-6.1-16-14.7-16.5
				C787.8,10.6,780.4,17.2,779.9,25.8z"/>
		</g>
	</g>
	<g>
		<path class="st1" d="M398.6,73h5.1c2.6,0,4.4,0.3,5.3,0.8s1.4,1.5,1.4,2.9v6.5c0,1.2-0.3,2-0.9,2.5c-0.6,0.5-1.7,0.8-3.2,0.9
			c1.7,0.1,2.8,0.4,3.5,0.9c0.6,0.5,1,1.4,1,2.6v11.6h-3.5V91c0-1.4-0.3-2.2-0.8-2.6c-0.5-0.4-1.6-0.6-3.2-0.6h-1.2v14h-3.3
			L398.6,73L398.6,73z M401.9,75.1v10.5h1.2c1.5,0,2.5-0.2,3-0.6c0.5-0.4,0.8-1.3,0.8-2.6v-4c0-1.4-0.3-2.3-0.8-2.7
			c-0.5-0.4-1.5-0.6-3-0.6C403.1,75.1,401.9,75.1,401.9,75.1z"/>
		<path class="st1" d="M416.4,73h9.2v2.3h-5.9v10.4h5.6v2.3h-5.6v11.6h6.1v2.3h-9.4V73z"/>
		<path class="st1" d="M430.6,73h9v2.3H434v10.4h5.4V88H434v13.8h-3.3V73z"/>
		<path class="st1" d="M443.7,73h3.3v26.5h6v2.3h-9.3V73z"/>
		<path class="st1" d="M456.2,73h9.2v2.3h-5.9v10.4h5.6v2.3h-5.6v11.6h6.1v2.3h-9.4V73z"/>
		<path class="st1" d="M467.8,73h3.5l3.2,11.5l3-11.5h3.3l-4.4,14l5,14.8h-3.5l-3.5-12l-3.4,12h-3.3l4.7-14.7L467.8,73z"/>
		<path class="st1" d="M484.8,73h3.5v28.8h-3.5V73z"/>
		<path class="st1" d="M506.3,78.9v17.1c0,2.5-0.4,4.2-1.3,5c-0.9,0.9-2.5,1.3-4.8,1.3c-2.3,0-3.8-0.4-4.7-1.3
			c-0.9-0.9-1.3-2.6-1.3-5V78.9c0-2.4,0.4-4.1,1.4-5c0.9-0.9,2.5-1.3,4.8-1.3s3.8,0.4,4.7,1.3C505.8,74.8,506.3,76.4,506.3,78.9z
			 M502.8,78.5c0-1.5-0.2-2.5-0.6-3c-0.4-0.5-1.1-0.8-2-0.8c-1,0-1.6,0.3-2,0.8c-0.4,0.5-0.6,1.5-0.6,3v17.8c0,1.5,0.2,2.5,0.6,3
			c0.4,0.5,1.1,0.8,2,0.8c1,0,1.6-0.3,2-0.8c0.4-0.5,0.6-1.5,0.6-3V78.5z"/>
		<path class="st1" d="M512.1,73h4.6l5.5,27.1h0.1L521.8,73h3v28.8h-4.6l-5.5-26.7h-0.1l0.5,26.7h-2.9L512.1,73L512.1,73z"/>
		<path class="st1" d="M530.8,73h9.2v2.3h-5.9v10.4h5.6v2.3h-5.6v11.6h6.1v2.3h-9.4L530.8,73L530.8,73z"/>
		<path class="st1" d="M544.9,73h5.8l3.7,26.5h0.3l3.7-26.5h5.6v28.8h-2.9V75.2h-0.5l-3.8,26.6h-4.7l-3.9-26.6h-0.4v26.6h-2.9
			L544.9,73L544.9,73z"/>
		<path class="st1" d="M582,78.9v17.1c0,2.5-0.4,4.2-1.3,5c-0.9,0.9-2.5,1.3-4.8,1.3c-2.3,0-3.8-0.4-4.7-1.3c-0.9-0.9-1.3-2.6-1.3-5
			V78.9c0-2.4,0.4-4.1,1.3-5c0.9-0.9,2.5-1.3,4.8-1.3c2.3,0,3.8,0.4,4.7,1.3C581.6,74.8,582,76.4,582,78.9z M578.6,78.5
			c0-1.5-0.2-2.5-0.6-3c-0.4-0.5-1.1-0.8-2-0.8c-1,0-1.6,0.3-2,0.8c-0.4,0.5-0.6,1.5-0.6,3v17.8c0,1.5,0.2,2.5,0.6,3
			c0.4,0.5,1.1,0.8,2,0.8c1,0,1.6-0.3,2-0.8c0.4-0.5,0.6-1.5,0.6-3V78.5z"/>
		<path class="st1" d="M598,77.6v2.8h-3.5v-2.7c0-1.1-0.2-1.9-0.5-2.3c-0.3-0.4-0.9-0.6-1.7-0.6c-0.8,0-1.3,0.2-1.6,0.7
			c-0.3,0.5-0.5,1.3-0.5,2.5v1.4c0,0.6,0.1,1.2,0.3,1.8s0.5,1.2,1,1.7l4.4,5.7c0.7,1,1.3,1.9,1.6,2.7c0.3,0.9,0.5,1.7,0.5,2.6v2
			c0,2.5-0.4,4.2-1.3,5.1s-2.4,1.3-4.5,1.3c-2.1,0-3.6-0.4-4.4-1.1c-0.8-0.7-1.2-2-1.2-4V94h3.5v3.1c0,1.2,0.2,2,0.5,2.4
			c0.3,0.4,0.9,0.6,1.7,0.6c0.9,0,1.4-0.2,1.8-0.7c0.3-0.5,0.5-1.5,0.5-3.1v-2c0-0.7-0.1-1.4-0.3-2c-0.2-0.6-0.5-1.2-0.8-1.7
			l-4.6-6.1c-0.6-0.8-1.1-1.6-1.5-2.3s-0.5-1.4-0.5-1.9v-1.7c0-2.2,0.4-3.8,1.2-4.7s2.3-1.3,4.3-1.3c2.1,0,3.6,0.3,4.4,1
			C597.6,74.3,598,75.6,598,77.6z"/>
		<path class="st1" d="M606.7,98.6h3.7v3.2h-3.7V98.6z M624.6,98.6h3.7v3.2h-3.7V98.6z M642.5,98.6h3.7v3.2h-3.7V98.6z"/>
	</g>
	<g>
		<g>
			<path class="st1" d="M373.3,101.5c-1.5,0.7-2.9,1.4-4.4,2c-1.2,0.5-1.5,0.3-2.2-0.8c-1.6-2.4-3.9-3.7-6.8-3.7
				c-7.6-0.2-13.9-3.3-18.2-9.5c-7.2-10.3-4.4-23.3,4.4-30.2c10.3-8,24.5-5.9,32,4.7c5.6,7.9,5.1,17.4,0.7,24.5
				c-1.8,2.9-2.3,5.8-0.9,8.9c0.4,0.8-0.1,1.3-0.7,1.6C375.9,99.8,374.6,100.6,373.3,101.5z M368.6,92.8c8.8-4.8,12-15.7,7.2-24.5
				c-4.7-8.7-15.8-12-24.5-7.3c-8.8,4.8-12,15.8-7.2,24.6C348.8,94.4,359.8,97.6,368.6,92.8z"/>
			<path class="st1" d="M376.2,106.8c-1.3,0.7-2.6,1.4-3.8,2.1c-0.6,0.4-1.3,0.5-1.8-0.3c-0.4-0.7,0.1-1.2,0.7-1.6
				c2.6-1.4,5.2-2.8,7.8-4.2c0.6-0.3,1.3-0.5,1.7,0.2c0.4,0.8-0.1,1.3-0.8,1.6C378.7,105.5,377.4,106.1,376.2,106.8z"/>
			<path class="st1" d="M373.9,102.5c1.3-0.7,2.6-1.4,3.9-2.1c0.6-0.3,1.2-0.5,1.6,0.2c0.4,0.7,0,1.2-0.7,1.6
				c-2.6,1.4-5.2,2.8-7.8,4.3c-0.6,0.3-1.3,0.5-1.7-0.3c-0.4-0.8,0.1-1.2,0.8-1.5C371.2,103.9,372.5,103.2,373.9,102.5z"/>
			<path class="st1" d="M377.5,109.4c-0.4,0.2-0.8,0.6-1.3,0.7c-0.4,0-1.1-0.1-1.3-0.4c-0.2-0.3,0-1.1,0.3-1.3
				c0.8-0.6,1.7-1.1,2.6-1.4c0.4-0.1,1.1,0.1,1.3,0.4c0.2,0.3-0.1,1-0.3,1.3C378.5,109,377.9,109.1,377.5,109.4
				C377.5,109.4,377.5,109.4,377.5,109.4z"/>
			<path class="st1" d="M359.7,62.4c-8,0-14.5,6.5-14.5,14.5c0,8,6.5,14.5,14.5,14.5c8,0,14.5-6.5,14.5-14.5
				C374.2,68.9,367.7,62.4,359.7,62.4z M363,85.7l-5.9,0l0-9.5c0-1.4,0-2.2-0.1-2.5c-0.1-0.3-0.3-0.5-0.7-0.6
				c-0.4-0.1-1.3-0.2-2.6-0.2H353l0-2.1c2.9-0.5,5-1.4,6.5-2.8l3.5,0L363,85.7z"/>
		</g>
	</g>
	<g>
		<path class="st2" d="M68.1,79.7v25.1h-5.7L59,93.3v11.4h-5.5V79.7H59l3.7,11.3V79.7H68.1z"/>
		<path class="st2" d="M84.6,91.4v5c0,1.8-0.1,3.2-0.3,4.1c-0.2,0.9-0.6,1.7-1.2,2.4c-0.6,0.7-1.4,1.3-2.3,1.7
			c-1,0.4-2.1,0.5-3.3,0.5c-1.4,0-2.6-0.2-3.5-0.5c-1-0.3-1.7-0.8-2.2-1.4c-0.5-0.6-0.9-1.4-1.1-2.2c-0.2-0.9-0.3-2.2-0.3-3.9v-5.3
			c0-1.9,0.2-3.4,0.6-4.5c0.4-1.1,1.2-1.9,2.2-2.6s2.4-1,4.1-1c1.4,0,2.6,0.2,3.6,0.6c1,0.4,1.8,1,2.3,1.6c0.5,0.7,0.9,1.4,1.1,2.1
			C84.5,88.8,84.6,89.9,84.6,91.4z M78.4,89.8c0-1.1-0.1-1.7-0.2-2c-0.1-0.3-0.4-0.4-0.7-0.4s-0.6,0.1-0.7,0.4s-0.2,0.9-0.2,2v9.3
			c0,1,0.1,1.6,0.2,1.9c0.1,0.3,0.4,0.4,0.7,0.4c0.4,0,0.6-0.1,0.7-0.4c0.1-0.3,0.2-0.8,0.2-1.7C78.4,99.3,78.4,89.8,78.4,89.8z"/>
		<path class="st2" d="M98.7,79.7v25.1h-6.4V79.7H98.7z"/>
		<path class="st2" d="M115.1,91.4v5c0,1.8-0.1,3.2-0.3,4.1c-0.2,0.9-0.6,1.7-1.2,2.4c-0.6,0.7-1.4,1.3-2.3,1.7
			c-1,0.4-2.1,0.5-3.3,0.5c-1.4,0-2.6-0.2-3.5-0.5c-1-0.3-1.7-0.8-2.2-1.4c-0.5-0.6-0.9-1.4-1.1-2.2c-0.2-0.9-0.3-2.2-0.3-3.9v-5.3
			c0-1.9,0.2-3.4,0.6-4.5c0.4-1.1,1.2-1.9,2.2-2.6c1.1-0.7,2.4-1,4.1-1c1.4,0,2.6,0.2,3.6,0.6c1,0.4,1.8,1,2.3,1.6
			c0.5,0.7,0.9,1.4,1.1,2.1C115,88.8,115.1,89.9,115.1,91.4z M108.9,89.8c0-1.1-0.1-1.7-0.2-2c-0.1-0.3-0.4-0.4-0.7-0.4
			s-0.6,0.1-0.7,0.4c-0.1,0.3-0.2,0.9-0.2,2v9.3c0,1,0.1,1.6,0.2,1.9c0.1,0.3,0.4,0.4,0.7,0.4c0.4,0,0.6-0.1,0.7-0.4
			c0.1-0.3,0.2-0.8,0.2-1.7C108.9,99.3,108.9,89.8,108.9,89.8z"/>
		<path class="st2" d="M129,79.7v5.6c0.5-0.5,1.1-0.9,1.7-1.1s1.3-0.4,2-0.4c1.1,0,2,0.3,2.8,0.8c0.8,0.6,1.2,1.2,1.4,1.9
			c0.2,0.7,0.3,2.1,0.3,4v14.2H131V90.3c0-1.2-0.1-2-0.2-2.3c-0.1-0.3-0.4-0.5-0.8-0.5c-0.4,0-0.6,0.2-0.8,0.5
			c-0.1,0.4-0.2,1-0.2,2.1v14.7h-6.3V79.7H129z"/>
		<path class="st2" d="M145,92.1h-5.9v-1.4c0-1.6,0.2-2.8,0.6-3.7s1.1-1.6,2.2-2.3c1.1-0.7,2.5-1,4.3-1c2.1,0,3.7,0.4,4.8,1.1
			c1.1,0.7,1.7,1.7,1.9,2.8c0.2,1.1,0.3,3.3,0.3,6.7v10.3h-6.1v-1.8c-0.4,0.7-0.9,1.3-1.5,1.7c-0.6,0.4-1.3,0.6-2.2,0.6
			c-1.1,0-2.1-0.3-3-0.9c-0.9-0.6-1.4-2-1.4-4v-1.7c0-1.5,0.2-2.6,0.7-3.1c0.5-0.6,1.7-1.2,3.6-2c2.1-0.8,3.2-1.3,3.3-1.6
			c0.1-0.3,0.2-0.8,0.2-1.7c0-1.1-0.1-1.8-0.2-2.1s-0.4-0.5-0.8-0.5c-0.4,0-0.7,0.1-0.8,0.4s-0.2,1-0.2,2.1L145,92.1L145,92.1z
			 M147,94.9c-1,0.7-1.6,1.3-1.7,1.8S145,98,145,98.9c0,1.1,0.1,1.8,0.2,2.1c0.1,0.3,0.4,0.5,0.8,0.5c0.4,0,0.6-0.1,0.8-0.4
			s0.2-0.9,0.2-1.9L147,94.9L147,94.9z"/>
		<path class="st2" d="M169.2,91.9h-5.9v-2.4c0-0.8-0.1-1.4-0.2-1.7c-0.1-0.3-0.4-0.4-0.7-0.4c-0.4,0-0.6,0.1-0.7,0.4
			c-0.1,0.3-0.2,0.8-0.2,1.7v9.7c0,0.7,0.1,1.3,0.3,1.6c0.2,0.4,0.5,0.6,0.8,0.6c0.4,0,0.7-0.2,0.9-0.6c0.1-0.4,0.2-1.1,0.2-2.2
			v-2.4h5.6c0,1.6-0.1,2.9-0.2,3.7c-0.1,0.8-0.5,1.7-1,2.5c-0.6,0.9-1.3,1.5-2.3,2s-2.1,0.7-3.5,0.7c-1.8,0-3.2-0.3-4.2-0.9
			c-1-0.6-1.8-1.4-2.2-2.5c-0.4-1.1-0.6-2.6-0.6-4.6v-5.8c0-1.7,0.2-3.1,0.5-3.9c0.4-0.9,1.1-1.7,2.2-2.4c1.1-0.7,2.5-1,4.2-1
			c1.6,0,3,0.3,4.2,1s1.9,1.6,2.3,2.6C169,88.5,169.2,90,169.2,91.9z"/>
		<path class="st2" d="M185.2,94.8h-8.1v4.4c0,0.9,0.1,1.5,0.2,1.8c0.1,0.3,0.4,0.4,0.8,0.4c0.5,0,0.8-0.2,1-0.5
			c0.2-0.4,0.2-1,0.2-2.1v-2.7h5.9v1.5c0,1.3-0.1,2.2-0.2,2.9c-0.2,0.7-0.5,1.4-1.1,2.2s-1.3,1.4-2.2,1.7c-0.9,0.4-2,0.6-3.4,0.6
			c-1.3,0-2.5-0.2-3.5-0.6c-1-0.4-1.8-0.9-2.4-1.6c-0.6-0.7-1-1.4-1.2-2.2c-0.2-0.8-0.3-2-0.3-3.5v-6c0-1.8,0.2-3.2,0.7-4.3
			c0.5-1,1.3-1.8,2.4-2.4c1.1-0.6,2.4-0.8,3.8-0.8c1.8,0,3.2,0.3,4.3,1c1.1,0.7,1.9,1.5,2.4,2.6c0.5,1.1,0.7,2.6,0.7,4.6L185.2,94.8
			L185.2,94.8z M178.9,91.5V90c0-1.1-0.1-1.8-0.2-2.1c-0.1-0.3-0.3-0.5-0.7-0.5c-0.4,0-0.7,0.1-0.8,0.4c-0.1,0.3-0.2,1-0.2,2.1v1.5
			C177.1,91.5,178.9,91.5,178.9,91.5z"/>
		<path class="st2" d="M193.6,84.2l-0.1,1.9c0.5-0.8,1-1.3,1.7-1.7c0.7-0.4,1.4-0.6,2.3-0.6c1.1,0,1.9,0.3,2.6,0.8
			c0.7,0.5,1.1,1.1,1.3,1.9c0.2,0.8,0.3,2.1,0.3,3.8v14.4h-6.3V90.5c0-1.4,0-2.3-0.1-2.6c-0.1-0.3-0.4-0.5-0.8-0.5
			c-0.4,0-0.7,0.2-0.8,0.5c-0.1,0.4-0.2,1.3-0.2,2.9v13.9h-6.3V84.2H193.6z"/>
		<path class="st2" d="M215.8,84.2l-0.1,1.8c0.6-0.7,1.2-1.3,1.8-1.6c0.7-0.4,1.4-0.5,2.2-0.5c1,0,1.8,0.3,2.5,0.8
			c0.7,0.5,1.1,1.1,1.3,1.8c0.2,0.7,0.3,1.8,0.3,3.5v8.7c0,1.9-0.1,3.2-0.3,4c-0.2,0.8-0.7,1.4-1.4,1.9s-1.5,0.7-2.5,0.7
			c-0.8,0-1.5-0.2-2.2-0.5c-0.7-0.4-1.3-0.9-1.8-1.6v4.7h-6.3V84.2H215.8z M217.6,90.2c0-1.3,0-2-0.1-2.3c-0.1-0.3-0.4-0.4-0.8-0.4
			c-0.4,0-0.7,0.2-0.8,0.5c-0.1,0.3-0.2,1.1-0.2,2.2v8.5c0,1.2,0.1,2,0.2,2.3s0.4,0.5,0.8,0.5c0.4,0,0.7-0.1,0.8-0.4
			c0.1-0.3,0.1-1,0.1-2.1V90.2z"/>
		<path class="st2" d="M240,91.4v5c0,1.8-0.1,3.2-0.3,4.1c-0.2,0.9-0.6,1.7-1.2,2.4c-0.6,0.7-1.4,1.3-2.3,1.7
			c-1,0.4-2.1,0.5-3.3,0.5c-1.4,0-2.6-0.2-3.5-0.5c-1-0.3-1.7-0.8-2.2-1.4s-0.9-1.4-1.1-2.2c-0.2-0.9-0.3-2.2-0.3-3.9v-5.3
			c0-1.9,0.2-3.4,0.6-4.5c0.4-1.1,1.2-1.9,2.2-2.6s2.4-1,4.1-1c1.4,0,2.6,0.2,3.6,0.6s1.8,1,2.3,1.6c0.5,0.7,0.9,1.4,1.1,2.1
			C239.9,88.8,240,89.9,240,91.4z M233.8,89.8c0-1.1-0.1-1.7-0.2-2c-0.1-0.3-0.4-0.4-0.7-0.4s-0.6,0.1-0.7,0.4
			c-0.1,0.3-0.2,0.9-0.2,2v9.3c0,1,0.1,1.6,0.2,1.9c0.1,0.3,0.4,0.4,0.7,0.4c0.4,0,0.6-0.1,0.7-0.4s0.2-0.8,0.2-1.7V89.8z"/>
		<path class="st2" d="M248.4,84.2l-0.2,2.7c0.9-1.9,2.2-3,3.9-3.1V91c-1.1,0-2,0.2-2.5,0.5c-0.5,0.3-0.9,0.7-1,1.3
			c-0.1,0.6-0.2,1.8-0.2,3.8v8.1h-6.3V84.2H248.4z"/>
		<path class="st2" d="M267.6,84.2v23.5h-6.3v-4.6c-0.6,0.9-1.2,1.4-1.7,1.7s-1.1,0.3-1.9,0.3c-1.1,0-2-0.3-2.7-0.8
			c-0.7-0.5-1.2-1.2-1.4-2c-0.2-0.8-0.4-2.1-0.4-3.8v-9.1c0-1.4,0.1-2.4,0.3-3.1c0.2-0.7,0.6-1.3,1.3-1.8c0.7-0.5,1.5-0.8,2.5-0.8
			c0.8,0,1.5,0.2,2.2,0.5c0.7,0.4,1.3,0.9,1.8,1.6l0.1-1.8C261.5,84.2,267.6,84.2,267.6,84.2z M261.4,89.8c0-0.9-0.1-1.5-0.2-1.8
			c-0.1-0.3-0.4-0.5-0.8-0.5c-0.4,0-0.6,0.1-0.7,0.4c-0.1,0.3-0.2,0.9-0.2,1.9v9.2c0,1.1,0.1,1.8,0.2,2.1c0.1,0.3,0.4,0.4,0.8,0.4
			c0.4,0,0.6-0.2,0.7-0.5s0.2-1,0.2-2L261.4,89.8L261.4,89.8z"/>
		<path class="st2" d="M284.2,84.2v20.5h-6.4l0.1-1.7c-0.4,0.7-1,1.2-1.6,1.6c-0.6,0.3-1.4,0.5-2.2,0.5c-0.9,0-1.7-0.2-2.3-0.5
			c-0.6-0.3-1.1-0.8-1.4-1.3c-0.3-0.5-0.5-1.1-0.5-1.7c-0.1-0.6-0.1-1.8-0.1-3.5V84.2h6.3v14c0,1.6,0,2.6,0.1,2.8
			c0.1,0.3,0.4,0.4,0.8,0.4c0.5,0,0.7-0.2,0.8-0.5s0.1-1.3,0.1-3V84.2H284.2z"/>
		<path class="st2" d="M300.6,94.8h-8.1v4.4c0,0.9,0.1,1.5,0.2,1.8c0.1,0.3,0.4,0.4,0.8,0.4c0.5,0,0.8-0.2,1-0.5
			c0.2-0.4,0.2-1,0.2-2.1v-2.7h5.9v1.5c0,1.3-0.1,2.2-0.2,2.9c-0.2,0.7-0.5,1.4-1.1,2.2s-1.3,1.4-2.2,1.7c-0.9,0.4-2,0.6-3.4,0.6
			c-1.3,0-2.5-0.2-3.5-0.6c-1-0.4-1.8-0.9-2.4-1.6c-0.6-0.7-1-1.4-1.2-2.2c-0.2-0.8-0.3-2-0.3-3.5v-6c0-1.8,0.2-3.2,0.7-4.3
			c0.5-1,1.3-1.8,2.4-2.4c1.1-0.6,2.4-0.8,3.8-0.8c1.8,0,3.2,0.3,4.3,1s1.9,1.5,2.4,2.6c0.5,1.1,0.7,2.6,0.7,4.6L300.6,94.8
			L300.6,94.8z M294.4,91.5V90c0-1.1-0.1-1.8-0.2-2.1c-0.1-0.3-0.3-0.5-0.7-0.5c-0.4,0-0.7,0.1-0.8,0.4c-0.1,0.3-0.2,1-0.2,2.1v1.5
			C292.5,91.5,294.4,91.5,294.4,91.5z"/>
		<path class="st2" d="M307.4,88.4v5.1h-4.7v-5.1H307.4z M307.4,99.6v5.1h-4.7v-5.1H307.4z"/>
	</g>
	<path class="st2" d="M289.1,182.6c-3-7.4-10.1-12.5-16-14.4l0,0c-2.2-1.3-5.9-2.4-10.4-3l-0.1-0.4l-0.2,0.3c-0.1,0-0.3,0-0.4-0.1
		l-0.9-0.8v-3.5c4.3-2.5,7.5-6.9,9-12.3c1.5-0.7,2.5-2.4,2.5-4.3c0-0.6-0.1-1.1-0.2-1.6c0.8-2.3,1.3-4.8,1.3-7.5
		c0-11.9-6.3-19.3-20.2-19.3c-12.8,0-20.2,7.5-20.2,19.3c0,2.6,0.5,5.1,1.3,7.4c-0.1,0.5-0.2,1-0.2,1.6c0,2,1,3.7,2.5,4.3
		c1.4,5.4,4.7,9.8,9,12.3v3.9l-0.9,0.4c-0.2,0-0.3,0-0.5,0.1l-0.3-0.4l-0.1,0.5c-4.7,0.7-8.5,1.8-10.6,3.3l0-0.3
		c0,0-11.1,5.4-16.5,13.2c-15.3,22.1-18.7,43.5-7.3,67.6c0.4-0.1,0.8-0.2,1.2-0.3c0,1.9,0.8,3.7,2.3,4.9c1,0.8,2.3,1.3,3.5,1.3
		l-15.7,94.4l3.8,0.6l15.9-96.1c0.6-0.4,1.3-0.9,1.8-1.5c1.9-2.3,2-5.4,0.7-7.7c0.2-0.1,0.5-0.2,0.7-0.2c-0.4-1.2-0.7-2.3-1-3.5
		l5-30.3l-3.8-0.6l-3.5,21.3c-3.5-18.5,0.3-28.6,10.2-42.4l-2.8,62.3h0.5l-0.6,8.7v6.6v73.3h0c0,0.1,0,0.1,0,0.1
		c0,6.8,5.5,12.2,12.3,12.2c6.8,0,12.3-5.5,12.3-12.2c0,0,0-0.1,0-0.1h0v-73.3h1.1v73.3h0c0,0.1,0,0.1,0,0.1
		c0,6.8,5.5,12.2,12.3,12.2c6.8,0,12.3-5.5,12.3-12.2c0,0,0-0.1,0-0.1h0v-73.3v-6.6l-0.4-6.2c0.1,0,0.2,0,0.3,0
		c3.4,0.1,6.3-2.4,7.2-5.8c0.5,0.2,1,0.4,1.5,0.6C297,222.7,299.1,207,289.1,182.6z M277.8,227.3l-1.7-38.5
		C280.7,201.7,281.6,214.2,277.8,227.3z"/>
	<g>
		<g>
			<path class="st3" d="M69.9,117.9h0.9l3.3,5.7v-5.7h1v8h-0.9l-3.3-5.8v5.8h-1C69.9,125.9,69.9,117.9,69.9,117.9z"/>
			<path class="st3" d="M79.2,120.3c0.8,0,1.5,0.3,2,0.8s0.8,1.2,0.8,2c0,0.8-0.3,1.5-0.8,2s-1.2,0.8-2,0.8c-0.8,0-1.4-0.3-2-0.8
				c-0.6-0.6-0.8-1.2-0.8-2c0-0.8,0.3-1.5,0.8-2C77.7,120.6,78.4,120.3,79.2,120.3z M77.9,121.9c-0.3,0.3-0.5,0.8-0.5,1.3
				c0,0.5,0.2,0.9,0.5,1.3c0.3,0.3,0.8,0.5,1.3,0.5c0.5,0,0.9-0.2,1.3-0.5c0.3-0.3,0.5-0.8,0.5-1.3c0-0.5-0.2-0.9-0.5-1.3
				c-0.3-0.3-0.8-0.5-1.3-0.5C78.7,121.4,78.3,121.6,77.9,121.9z"/>
			<path class="st3" d="M87.8,121.4c0.4-0.5,0.9-0.8,1.4-0.8v1.1c-0.4,0-0.7,0.1-0.9,0.4c-0.3,0.3-0.5,0.7-0.5,1.2v2.6h-1v-5.1h1
				L87.8,121.4L87.8,121.4z"/>
			<path class="st3" d="M91.8,124.7c0.2,0.2,0.5,0.2,0.9,0.2c0.5,0,0.9-0.2,1.3-0.5c0,0,0.1-0.1,0.3-0.3l1,0.4
				c-0.3,0.3-0.4,0.6-0.5,0.7c-0.6,0.6-1.2,0.8-2,0.8c-0.8,0-1.4-0.3-2-0.8s-0.8-1.2-0.8-2c0-0.8,0.3-1.5,0.8-2s1.2-0.8,2-0.8
				c0.7,0,1.3,0.2,1.8,0.6c0.1,0.1,0.2,0.1,0.2,0.2c0,0,0.1,0.1,0.3,0.3l-0.5,0.5L91.8,124.7z M93.5,121.5c-0.1-0.1-0.4-0.1-0.8-0.1
				c-0.5,0-0.9,0.2-1.3,0.5c-0.3,0.3-0.5,0.8-0.5,1.3c0,0.4,0,0.7,0.1,0.8L93.5,121.5z"/>
			<path class="st3" d="M100.5,124.1l1,0.4c-0.3,0.3-0.4,0.6-0.5,0.7c-0.6,0.6-1.2,0.8-2,0.8c-0.8,0-1.4-0.3-2-0.8
				c-0.6-0.6-0.8-1.2-0.8-2c0-0.8,0.3-1.5,0.8-2c0.6-0.6,1.2-0.8,2-0.8c0.8,0,1.5,0.3,2,0.8c0.1,0.1,0.3,0.3,0.5,0.7l-1,0.4
				c-0.1-0.2-0.2-0.3-0.3-0.3c-0.3-0.3-0.8-0.5-1.3-0.5c-0.5,0-0.9,0.2-1.3,0.5c-0.3,0.3-0.5,0.8-0.5,1.3c0,0.5,0.2,0.9,0.5,1.3
				c0.3,0.3,0.8,0.5,1.3,0.5c0.5,0,0.9-0.2,1.3-0.5C100.3,124.4,100.4,124.3,100.5,124.1z"/>
			<path class="st3" d="M103.9,118.8c0.1,0.1,0.2,0.3,0.2,0.5s-0.1,0.4-0.2,0.5c-0.1,0.1-0.3,0.2-0.5,0.2c-0.2,0-0.4-0.1-0.5-0.2
				c-0.1-0.1-0.2-0.3-0.2-0.5s0.1-0.4,0.2-0.5c0.1-0.1,0.3-0.2,0.5-0.2C103.5,118.6,103.7,118.7,103.9,118.8z M103.9,120.7v5.1h-1
				v-5.1H103.9z"/>
			<path class="st3" d="M106.5,125.2v0.6h-1v-8h1v3.2c0.5-0.5,1.1-0.8,1.7-0.8c0.8,0,1.5,0.3,2,0.8c0.6,0.6,0.8,1.2,0.8,2
				c0,0.8-0.3,1.5-0.8,2c-0.6,0.6-1.2,0.8-2,0.8C107.6,126,107,125.7,106.5,125.2z M106.5,122.8v0.8c0.1,0.3,0.2,0.6,0.5,0.9
				c0.3,0.3,0.8,0.5,1.3,0.5c0.5,0,0.9-0.2,1.3-0.5s0.5-0.8,0.5-1.3c0-0.5-0.2-0.9-0.5-1.3c-0.3-0.3-0.8-0.5-1.3-0.5
				c-0.5,0-0.9,0.2-1.3,0.5C106.7,122.2,106.5,122.4,106.5,122.8z"/>
			<path class="st3" d="M114,124.7c0.2,0.2,0.5,0.2,0.9,0.2c0.5,0,0.9-0.2,1.3-0.5c0,0,0.1-0.1,0.3-0.3l1,0.4
				c-0.3,0.3-0.4,0.6-0.5,0.7c-0.6,0.6-1.2,0.8-2,0.8c-0.8,0-1.4-0.3-2-0.8c-0.6-0.6-0.8-1.2-0.8-2c0-0.8,0.3-1.5,0.8-2
				c0.6-0.6,1.2-0.8,2-0.8c0.7,0,1.3,0.2,1.8,0.6c0.1,0.1,0.2,0.1,0.2,0.2c0,0,0.1,0.1,0.3,0.3l-0.5,0.5L114,124.7z M115.7,121.5
				c-0.1-0.1-0.4-0.1-0.8-0.1c-0.5,0-0.9,0.2-1.3,0.5c-0.3,0.3-0.5,0.8-0.5,1.3c0,0.4,0,0.7,0.1,0.8L115.7,121.5z"/>
			<path class="st3" d="M122.2,117.9h1v3.4c0.3-0.6,0.7-0.8,1.3-0.8s1,0.2,1.3,0.6c0.3,0.4,0.5,0.9,0.5,1.5v3.3h-1v-3.3
				c0-0.3-0.1-0.5-0.3-0.8s-0.4-0.3-0.8-0.3c-0.4,0-0.8,0.2-1,0.7v3.7h-1C122.2,125.9,122.2,117.9,122.2,117.9z"/>
			<path class="st3" d="M130.4,120.3c0.8,0,1.5,0.3,2,0.8c0.6,0.6,0.8,1.2,0.8,2c0,0.8-0.3,1.5-0.8,2c-0.6,0.6-1.2,0.8-2,0.8
				c-0.8,0-1.4-0.3-2-0.8c-0.6-0.6-0.8-1.2-0.8-2c0-0.8,0.3-1.5,0.8-2C128.9,120.6,129.6,120.3,130.4,120.3z M129.1,121.9
				c-0.3,0.3-0.5,0.8-0.5,1.3c0,0.5,0.2,0.9,0.5,1.3c0.3,0.3,0.8,0.5,1.3,0.5s0.9-0.2,1.3-0.5c0.3-0.3,0.5-0.8,0.5-1.3
				c0-0.5-0.2-0.9-0.5-1.3c-0.3-0.3-0.8-0.5-1.3-0.5C129.9,121.4,129.5,121.6,129.1,121.9z"/>
			<path class="st3" d="M133.9,125.9c0.4,0,0.6-0.2,0.6-0.3v-4.8h1v4.8c0,0.8-0.5,1.3-1.6,1.4V125.9z M135.5,118.8
				c0.1,0.1,0.2,0.3,0.2,0.5s-0.1,0.4-0.2,0.5c-0.1,0.1-0.3,0.2-0.5,0.2c-0.2,0-0.4-0.1-0.5-0.2c-0.1-0.1-0.2-0.3-0.2-0.5
				s0.1-0.4,0.2-0.5c0.1-0.1,0.3-0.2,0.5-0.2C135.2,118.6,135.3,118.7,135.5,118.8z"/>
			<path class="st3" d="M141.6,121.1v-0.4h1v5.1h-1v-0.6c-0.5,0.5-1.1,0.8-1.7,0.8c-0.8,0-1.5-0.3-2-0.8c-0.6-0.6-0.8-1.2-0.8-2
				c0-0.8,0.3-1.5,0.8-2c0.6-0.6,1.2-0.8,2-0.8C140.6,120.3,141.1,120.6,141.6,121.1z M141.6,123.5v-0.8c-0.1-0.3-0.2-0.6-0.5-0.9
				c-0.3-0.3-0.8-0.5-1.3-0.5c-0.5,0-0.9,0.2-1.3,0.5c-0.3,0.3-0.5,0.8-0.5,1.3c0,0.5,0.2,0.9,0.5,1.3c0.3,0.3,0.8,0.5,1.3,0.5
				c0.5,0,0.9-0.2,1.3-0.5C141.4,124.2,141.6,123.9,141.6,123.5z"/>
			<path class="st3" d="M145.2,124.8c0.1,0.1,0.3,0.2,0.4,0.2c0.2,0,0.3-0.1,0.4-0.2c0.1-0.1,0.2-0.3,0.2-0.4c0-0.2-0.1-0.3-0.2-0.4
				c-0.1-0.1-0.3-0.2-0.5-0.4c-0.4-0.2-0.6-0.4-0.8-0.5c-0.3-0.3-0.4-0.6-0.4-1c0-0.4,0.1-0.7,0.4-1c0.3-0.3,0.6-0.4,1-0.4
				c0.4,0,0.7,0.1,1,0.4c0.2,0.2,0.3,0.4,0.4,0.6l-1,0.3c0-0.1,0-0.1-0.1-0.2c-0.1-0.1-0.1-0.1-0.2-0.1s-0.2,0-0.3,0.1
				c-0.1,0.1-0.1,0.2-0.1,0.3s0,0.2,0.1,0.3c0.1,0.1,0.2,0.2,0.4,0.3c0.4,0.2,0.7,0.4,0.9,0.6c0.3,0.3,0.5,0.7,0.5,1.2
				c0,0.5-0.2,0.8-0.5,1.2c-0.3,0.3-0.7,0.5-1.2,0.5c-0.5,0-0.8-0.2-1.2-0.5c-0.2-0.2-0.4-0.5-0.4-0.8l1-0.2
				C145.1,124.6,145.1,124.7,145.2,124.8z"/>
			<path class="st3" d="M156.5,121.1v-3.2h1v8h-1v-0.6c-0.5,0.5-1.1,0.8-1.7,0.8c-0.8,0-1.5-0.3-2-0.8c-0.6-0.6-0.8-1.2-0.8-2
				c0-0.8,0.3-1.5,0.8-2c0.6-0.6,1.2-0.8,2-0.8C155.5,120.3,156,120.6,156.5,121.1z M156.5,123.5v-0.8c-0.1-0.3-0.2-0.6-0.5-0.9
				c-0.3-0.3-0.8-0.5-1.3-0.5s-0.9,0.2-1.3,0.5c-0.3,0.3-0.5,0.8-0.5,1.3c0,0.5,0.2,0.9,0.5,1.3c0.3,0.3,0.8,0.5,1.3,0.5
				s0.9-0.2,1.3-0.5C156.3,124.2,156.5,123.9,156.5,123.5z"/>
			<path class="st3" d="M160.7,124.7c0.2,0.2,0.5,0.2,0.9,0.2c0.5,0,0.9-0.2,1.3-0.5c0,0,0.1-0.1,0.3-0.3l1,0.4
				c-0.3,0.3-0.4,0.6-0.5,0.7c-0.6,0.6-1.2,0.8-2,0.8c-0.8,0-1.4-0.3-2-0.8c-0.6-0.6-0.8-1.2-0.8-2c0-0.8,0.3-1.5,0.8-2
				c0.6-0.6,1.2-0.8,2-0.8c0.7,0,1.3,0.2,1.8,0.6c0.1,0.1,0.2,0.1,0.2,0.2c0,0,0.1,0.1,0.3,0.3l-0.5,0.5L160.7,124.7z M162.4,121.5
				c-0.1-0.1-0.4-0.1-0.8-0.1c-0.5,0-0.9,0.2-1.3,0.5c-0.3,0.3-0.5,0.8-0.5,1.3c0,0.4,0,0.7,0.1,0.8L162.4,121.5z"/>
			<path class="st3" d="M170.8,125.9l-2.4-5.1h1.2l1.5,3.3l1.5-3.3h1.2l-2.4,5.1H170.8z"/>
			<path class="st3" d="M175.9,118.8c0.1,0.1,0.2,0.3,0.2,0.5s-0.1,0.4-0.2,0.5c-0.1,0.1-0.3,0.2-0.5,0.2c-0.2,0-0.4-0.1-0.5-0.2
				c-0.1-0.1-0.2-0.3-0.2-0.5s0.1-0.4,0.2-0.5c0.1-0.1,0.3-0.2,0.5-0.2C175.6,118.6,175.8,118.7,175.9,118.8z M175.9,120.7v5.1h-1
				v-5.1H175.9z"/>
			<path class="st3" d="M181.9,121.1v-3.2h1v8h-1v-0.6c-0.5,0.5-1.1,0.8-1.7,0.8c-0.8,0-1.5-0.3-2-0.8c-0.6-0.6-0.8-1.2-0.8-2
				c0-0.8,0.3-1.5,0.8-2s1.2-0.8,2-0.8C180.9,120.3,181.4,120.6,181.9,121.1z M181.9,123.5v-0.8c-0.1-0.3-0.2-0.6-0.5-0.9
				c-0.3-0.3-0.8-0.5-1.3-0.5s-0.9,0.2-1.3,0.5s-0.5,0.8-0.5,1.3c0,0.5,0.2,0.9,0.5,1.3s0.8,0.5,1.3,0.5s0.9-0.2,1.3-0.5
				C181.7,124.2,181.9,123.9,181.9,123.5z"/>
			<path class="st3" d="M188.9,121.1v-0.4h1v5.1h-1v-0.6c-0.5,0.5-1.1,0.8-1.7,0.8c-0.8,0-1.5-0.3-2-0.8c-0.6-0.6-0.8-1.2-0.8-2
				c0-0.8,0.3-1.5,0.8-2c0.6-0.6,1.2-0.8,2-0.8C187.8,120.3,188.4,120.6,188.9,121.1z M188.9,123.5v-0.8c-0.1-0.3-0.2-0.6-0.5-0.9
				c-0.3-0.3-0.8-0.5-1.3-0.5c-0.5,0-0.9,0.2-1.3,0.5c-0.3,0.3-0.5,0.8-0.5,1.3c0,0.5,0.2,0.9,0.5,1.3c0.3,0.3,0.8,0.5,1.3,0.5
				c0.5,0,0.9-0.2,1.3-0.5C188.7,124.2,188.9,123.9,188.9,123.5z"/>
			<path class="st3" d="M105,133.3v-3.2h1v8h-1v-0.6c-0.5,0.5-1.1,0.8-1.7,0.8c-0.8,0-1.5-0.3-2-0.8c-0.6-0.6-0.8-1.2-0.8-2
				c0-0.8,0.3-1.5,0.8-2s1.2-0.8,2-0.8C103.9,132.6,104.5,132.8,105,133.3z M105,135.8V135c-0.1-0.3-0.2-0.6-0.5-0.9
				c-0.3-0.3-0.8-0.5-1.3-0.5c-0.5,0-0.9,0.2-1.3,0.5c-0.3,0.3-0.5,0.8-0.5,1.3c0,0.5,0.2,0.9,0.5,1.3c0.3,0.3,0.8,0.5,1.3,0.5
				c0.5,0,0.9-0.2,1.3-0.5C104.8,136.4,104.9,136.1,105,135.8z"/>
			<path class="st3" d="M109.1,136.9c0.2,0.2,0.5,0.2,0.9,0.2c0.5,0,0.9-0.2,1.3-0.5c0,0,0.1-0.1,0.3-0.3l1,0.4
				c-0.3,0.3-0.4,0.6-0.5,0.7c-0.6,0.6-1.2,0.8-2,0.8c-0.8,0-1.4-0.3-2-0.8c-0.6-0.6-0.8-1.2-0.8-2c0-0.8,0.3-1.5,0.8-2
				c0.6-0.6,1.2-0.8,2-0.8c0.7,0,1.3,0.2,1.8,0.6c0.1,0.1,0.2,0.1,0.2,0.2c0,0,0.1,0.1,0.3,0.3l-0.5,0.5L109.1,136.9z M110.8,133.8
				c-0.1-0.1-0.4-0.1-0.8-0.1c-0.5,0-0.9,0.2-1.3,0.5s-0.5,0.8-0.5,1.3c0,0.4,0,0.7,0.1,0.8L110.8,133.8z"/>
			<path class="st3" d="M118.9,136.9c0.2,0.2,0.5,0.2,0.9,0.2c0.5,0,0.9-0.2,1.3-0.5c0,0,0.1-0.1,0.3-0.3l1,0.4
				c-0.3,0.3-0.4,0.6-0.5,0.7c-0.6,0.6-1.2,0.8-2,0.8c-0.8,0-1.4-0.3-2-0.8c-0.6-0.6-0.8-1.2-0.8-2c0-0.8,0.3-1.5,0.8-2
				s1.2-0.8,2-0.8c0.7,0,1.3,0.2,1.8,0.6c0.1,0.1,0.2,0.1,0.2,0.2c0,0,0.1,0.1,0.3,0.3l-0.5,0.5L118.9,136.9z M120.7,133.8
				c-0.1-0.1-0.4-0.1-0.8-0.1c-0.5,0-0.9,0.2-1.3,0.5c-0.3,0.3-0.5,0.8-0.5,1.3c0,0.4,0,0.7,0.1,0.8L120.7,133.8z"/>
			<path class="st3" d="M124.7,137c0.1,0.1,0.3,0.2,0.4,0.2c0.2,0,0.3-0.1,0.4-0.2c0.1-0.1,0.2-0.3,0.2-0.4c0-0.2-0.1-0.3-0.2-0.4
				c-0.1-0.1-0.3-0.2-0.5-0.4c-0.4-0.2-0.6-0.4-0.8-0.5c-0.3-0.3-0.4-0.6-0.4-1c0-0.4,0.1-0.7,0.4-1c0.3-0.3,0.6-0.4,1-0.4
				c0.4,0,0.7,0.1,1,0.4c0.2,0.2,0.3,0.4,0.3,0.6l-1,0.3c0-0.1,0-0.1-0.1-0.2c-0.1-0.1-0.1-0.1-0.2-0.1s-0.2,0-0.3,0.1
				s-0.1,0.2-0.1,0.3s0,0.2,0.1,0.3c0.1,0.1,0.2,0.2,0.4,0.3c0.4,0.2,0.7,0.4,0.9,0.6c0.3,0.3,0.5,0.7,0.5,1.2
				c0,0.5-0.2,0.9-0.5,1.2c-0.3,0.3-0.7,0.5-1.2,0.5c-0.5,0-0.8-0.2-1.2-0.5c-0.2-0.2-0.4-0.5-0.4-0.8l1-0.2
				C124.5,136.8,124.6,136.9,124.7,137z"/>
			<path class="st3" d="M128.7,133v-1.9h1v1.9h0.9v1h-0.9v4.1h-1V134h-0.9v-1H128.7z"/>
			<path class="st3" d="M136.3,133.3V133h1v5.1h-1v-0.6c-0.5,0.5-1.1,0.8-1.7,0.8c-0.8,0-1.5-0.3-2-0.8c-0.6-0.6-0.8-1.2-0.8-2
				c0-0.8,0.3-1.5,0.8-2c0.6-0.6,1.2-0.8,2-0.8C135.2,132.6,135.8,132.8,136.3,133.3z M136.3,135.8V135c-0.1-0.3-0.2-0.6-0.5-0.9
				c-0.3-0.3-0.8-0.5-1.3-0.5c-0.5,0-0.9,0.2-1.3,0.5c-0.3,0.3-0.5,0.8-0.5,1.3c0,0.5,0.2,0.9,0.5,1.3c0.3,0.3,0.8,0.5,1.3,0.5
				c0.5,0,0.9-0.2,1.3-0.5C136.1,136.4,136.2,136.1,136.3,135.8z"/>
			<path class="st3" d="M139.9,137c0.1,0.1,0.3,0.2,0.4,0.2s0.3-0.1,0.4-0.2c0.1-0.1,0.2-0.3,0.2-0.4c0-0.2-0.1-0.3-0.2-0.4
				c-0.1-0.1-0.3-0.2-0.5-0.4c-0.4-0.2-0.6-0.4-0.8-0.5c-0.3-0.3-0.4-0.6-0.4-1c0-0.4,0.1-0.7,0.4-1c0.3-0.3,0.6-0.4,1-0.4
				s0.7,0.1,1,0.4c0.2,0.2,0.3,0.4,0.3,0.6l-1,0.3c0-0.1,0-0.1-0.1-0.2c-0.1-0.1-0.1-0.1-0.2-0.1s-0.2,0-0.3,0.1
				c-0.1,0.1-0.1,0.2-0.1,0.3s0,0.2,0.1,0.3c0.1,0.1,0.2,0.2,0.4,0.3c0.4,0.2,0.7,0.4,0.9,0.6c0.3,0.3,0.5,0.7,0.5,1.2
				c0,0.5-0.2,0.9-0.5,1.2c-0.3,0.3-0.7,0.5-1.2,0.5c-0.5,0-0.8-0.2-1.2-0.5c-0.2-0.2-0.4-0.5-0.4-0.8l1-0.2
				C139.8,136.8,139.8,136.9,139.9,137z"/>
			<path class="st3" d="M147.8,137.5v2.4h-1V133h1v0.5c0.5-0.6,1.1-0.9,1.7-0.9c0.8,0,1.5,0.3,2,0.8c0.6,0.6,0.8,1.2,0.8,2
				c0,0.8-0.3,1.5-0.8,2c-0.6,0.6-1.2,0.8-2,0.8C148.9,138.2,148.3,138,147.8,137.5z M147.8,135v0.8c0.1,0.3,0.2,0.6,0.5,0.9
				c0.3,0.3,0.8,0.5,1.3,0.5c0.5,0,0.9-0.2,1.3-0.5c0.3-0.3,0.5-0.8,0.5-1.3c0-0.5-0.2-0.9-0.5-1.3c-0.3-0.3-0.8-0.5-1.3-0.5
				c-0.5,0-0.9,0.2-1.3,0.5C148,134.4,147.9,134.7,147.8,135z"/>
			<path class="st3" d="M155.2,136.9c0.2,0.2,0.5,0.2,0.9,0.2c0.5,0,0.9-0.2,1.3-0.5c0,0,0.1-0.1,0.3-0.3l1,0.4
				c-0.3,0.3-0.4,0.6-0.5,0.7c-0.6,0.6-1.2,0.8-2,0.8c-0.8,0-1.4-0.3-2-0.8c-0.6-0.6-0.8-1.2-0.8-2c0-0.8,0.3-1.5,0.8-2
				c0.6-0.6,1.2-0.8,2-0.8c0.7,0,1.3,0.2,1.8,0.6c0.1,0.1,0.2,0.1,0.2,0.2c0,0,0.1,0.1,0.3,0.3l-0.5,0.5L155.2,136.9z M156.9,133.8
				c-0.1-0.1-0.4-0.1-0.8-0.1c-0.5,0-0.9,0.2-1.3,0.5s-0.5,0.8-0.5,1.3c0,0.4,0,0.7,0.1,0.8L156.9,133.8z"/>
			<path class="st3" d="M160.9,133.7c0.4-0.5,0.9-0.8,1.4-0.8v1.1c-0.4,0-0.7,0.1-0.9,0.4c-0.3,0.3-0.5,0.7-0.5,1.2v2.6h-1V133h1
				L160.9,133.7L160.9,133.7z"/>
			<path class="st3" d="M164.5,137c0.1,0.1,0.3,0.2,0.4,0.2s0.3-0.1,0.4-0.2c0.1-0.1,0.2-0.3,0.2-0.4c0-0.2-0.1-0.3-0.2-0.4
				c-0.1-0.1-0.3-0.2-0.5-0.4c-0.4-0.2-0.6-0.4-0.8-0.5c-0.3-0.3-0.4-0.6-0.4-1c0-0.4,0.1-0.7,0.4-1c0.3-0.3,0.6-0.4,1-0.4
				s0.7,0.1,1,0.4c0.2,0.2,0.3,0.4,0.3,0.6l-1,0.3c0-0.1,0-0.1-0.1-0.2c-0.1-0.1-0.1-0.1-0.2-0.1s-0.2,0-0.3,0.1s-0.1,0.2-0.1,0.3
				s0,0.2,0.1,0.3c0.1,0.1,0.2,0.2,0.4,0.3c0.4,0.2,0.7,0.4,0.9,0.6c0.3,0.3,0.5,0.7,0.5,1.2c0,0.5-0.2,0.9-0.5,1.2
				c-0.3,0.3-0.7,0.5-1.2,0.5c-0.5,0-0.8-0.2-1.2-0.5c-0.2-0.2-0.4-0.5-0.4-0.8l1-0.2C164.4,136.8,164.4,136.9,164.5,137z"/>
			<path class="st3" d="M170.4,132.6c0.8,0,1.5,0.3,2,0.8c0.6,0.6,0.8,1.2,0.8,2c0,0.8-0.3,1.5-0.8,2c-0.6,0.6-1.2,0.8-2,0.8
				c-0.8,0-1.4-0.3-2-0.8c-0.6-0.6-0.8-1.2-0.8-2c0-0.8,0.3-1.5,0.8-2C168.9,132.8,169.6,132.6,170.4,132.6z M169.1,134.1
				c-0.3,0.3-0.5,0.8-0.5,1.3c0,0.5,0.2,0.9,0.5,1.3c0.3,0.3,0.8,0.5,1.3,0.5c0.5,0,0.9-0.2,1.3-0.5c0.3-0.3,0.5-0.8,0.5-1.3
				c0-0.5-0.2-0.9-0.5-1.3s-0.8-0.5-1.3-0.5C169.9,133.6,169.5,133.8,169.1,134.1z"/>
			<path class="st3" d="M175.4,134.4v3.8h-1V133h1v0.6c0.2-0.6,0.6-0.9,1.3-0.9c0.6,0,1,0.2,1.3,0.6c0.3,0.4,0.5,0.9,0.5,1.5v3.3h-1
				v-3.3c0-0.3-0.1-0.5-0.3-0.8s-0.5-0.3-0.8-0.3c-0.3,0-0.6,0.1-0.8,0.3C175.6,134.2,175.5,134.3,175.4,134.4z"/>
			<path class="st3" d="M184.5,133.3V133h1v5.1h-1v-0.6c-0.5,0.5-1.1,0.8-1.7,0.8c-0.8,0-1.5-0.3-2-0.8c-0.6-0.6-0.8-1.2-0.8-2
				c0-0.8,0.3-1.5,0.8-2c0.6-0.6,1.2-0.8,2-0.8C183.4,132.6,184,132.8,184.5,133.3z M184.5,135.8V135c-0.1-0.3-0.2-0.6-0.5-0.9
				c-0.4-0.3-0.8-0.5-1.3-0.5c-0.5,0-0.9,0.2-1.3,0.5c-0.3,0.3-0.5,0.8-0.5,1.3c0,0.5,0.2,0.9,0.5,1.3c0.3,0.3,0.8,0.5,1.3,0.5
				c0.5,0,0.9-0.2,1.3-0.5C184.3,136.4,184.5,136.1,184.5,135.8z"/>
			<path class="st3" d="M188.1,137c0.1,0.1,0.3,0.2,0.4,0.2c0.2,0,0.3-0.1,0.4-0.2c0.1-0.1,0.2-0.3,0.2-0.4c0-0.2-0.1-0.3-0.2-0.4
				c-0.1-0.1-0.3-0.2-0.5-0.4c-0.4-0.2-0.6-0.4-0.8-0.5c-0.3-0.3-0.4-0.6-0.4-1c0-0.4,0.1-0.7,0.4-1c0.3-0.3,0.6-0.4,1-0.4
				c0.4,0,0.7,0.1,1,0.4c0.2,0.2,0.3,0.4,0.3,0.6l-1,0.3c0-0.1,0-0.1-0.1-0.2c-0.1-0.1-0.1-0.1-0.2-0.1s-0.2,0-0.3,0.1
				s-0.1,0.2-0.1,0.3s0,0.2,0.1,0.3c0.1,0.1,0.2,0.2,0.4,0.3c0.4,0.2,0.7,0.4,0.9,0.6c0.3,0.3,0.5,0.7,0.5,1.2
				c0,0.5-0.2,0.9-0.5,1.2c-0.3,0.3-0.7,0.5-1.2,0.5c-0.5,0-0.8-0.2-1.2-0.5c-0.2-0.2-0.4-0.5-0.4-0.8l1-0.2
				C188,136.8,188,136.9,188.1,137z"/>
			<path class="st2" d="M170.3,154v2h-6.5l0-1.7c1.9-3.1,3.1-5.1,3.4-5.8c0.4-0.7,0.5-1.3,0.5-1.7c0-0.3-0.1-0.6-0.2-0.7
				c-0.1-0.2-0.3-0.2-0.5-0.2c-0.2,0-0.4,0.1-0.5,0.3s-0.2,0.5-0.2,1v1.1h-2.6v-0.4c0-0.7,0-1.2,0.1-1.6c0.1-0.4,0.2-0.8,0.5-1.1
				c0.3-0.4,0.6-0.6,1-0.8s0.9-0.3,1.5-0.3c1.2,0,2.1,0.3,2.7,0.9c0.6,0.6,0.9,1.3,0.9,2.2c0,0.7-0.2,1.4-0.5,2.1
				c-0.3,0.8-1.3,2.4-3,4.8L170.3,154L170.3,154z"/>
			<path class="st2" d="M177.8,149.3c0.4,0.2,0.8,0.4,1,0.8c0.2,0.3,0.4,1.2,0.4,2.5c0,1-0.1,1.7-0.3,2.1s-0.5,0.8-1.1,1.1
				c-0.5,0.3-1.3,0.4-2.2,0.4c-0.9,0-1.6-0.1-2.1-0.4c-0.5-0.3-0.9-0.6-1.1-1.1c-0.2-0.5-0.3-1.2-0.3-2.3c0-0.7,0.1-1.3,0.2-1.9
				c0.1-0.5,0.5-0.9,1-1.3c-0.4-0.2-0.6-0.5-0.8-0.8c-0.2-0.4-0.3-0.9-0.3-1.5c0-1,0.3-1.8,0.8-2.3s1.4-0.8,2.5-0.8
				c1.3,0,2.2,0.3,2.7,0.8c0.5,0.5,0.7,1.3,0.7,2.3c0,0.6-0.1,1.1-0.2,1.4C178.6,148.8,178.3,149.1,177.8,149.3z M176.2,151.7
				c0-0.5,0-0.8-0.1-0.9c-0.1-0.1-0.2-0.2-0.4-0.2c-0.2,0-0.3,0.1-0.4,0.2c-0.1,0.1-0.1,0.4-0.1,0.9v1.5c0,0.5,0,0.8,0.1,1
				s0.2,0.2,0.4,0.2c0.2,0,0.4-0.1,0.4-0.2c0.1-0.1,0.1-0.5,0.1-1L176.2,151.7L176.2,151.7z M176.1,146.8c0-0.4,0-0.7-0.1-0.8
				c-0.1-0.1-0.2-0.2-0.4-0.2c-0.2,0-0.3,0.1-0.4,0.2c-0.1,0.1-0.1,0.4-0.1,0.8v0.9c0,0.4,0,0.6,0.1,0.7c0.1,0.1,0.2,0.2,0.4,0.2
				c0.2,0,0.3-0.1,0.4-0.2s0.1-0.4,0.1-0.8L176.1,146.8L176.1,146.8z"/>
			<path class="st2" d="M185,146.2v2c0,0.5-0.1,0.9-0.1,1.2c-0.1,0.3-0.3,0.5-0.6,0.7c-0.3,0.2-0.8,0.3-1.3,0.3
				c-0.6,0-1.1-0.1-1.4-0.3c-0.3-0.2-0.5-0.4-0.7-0.7c-0.1-0.3-0.2-0.6-0.2-1.1v-2.1c0-0.6,0.1-1,0.2-1.3c0.1-0.3,0.3-0.5,0.7-0.7
				c0.3-0.2,0.8-0.3,1.3-0.3c0.6,0,1,0.1,1.4,0.3c0.3,0.2,0.6,0.4,0.7,0.7C184.9,145.3,185,145.7,185,146.2z M183.1,145.7
				c0-0.3,0-0.5,0-0.6c0-0.1-0.1-0.1-0.3-0.1c-0.1,0-0.2,0-0.3,0.1c0,0.1-0.1,0.3-0.1,0.6v3c0,0.3,0,0.5,0.1,0.6
				c0,0.1,0.1,0.1,0.3,0.1c0.1,0,0.2,0,0.2-0.1c0-0.1,0.1-0.3,0.1-0.5V145.7z M188.4,144l-4.6,12.3h-1.1l4.6-12.3H188.4z M190.4,152
				v2c0,0.5-0.1,0.9-0.1,1.2s-0.3,0.5-0.6,0.7c-0.3,0.2-0.8,0.3-1.3,0.3c-0.6,0-1.1-0.1-1.4-0.3c-0.3-0.2-0.6-0.4-0.7-0.7
				c-0.1-0.3-0.2-0.6-0.2-1.1V152c0-0.6,0.1-1,0.2-1.3c0.1-0.3,0.4-0.5,0.7-0.7s0.8-0.3,1.3-0.3c0.6,0,1,0.1,1.4,0.3
				c0.3,0.2,0.6,0.4,0.7,0.7C190.4,151,190.4,151.4,190.4,152z M188.6,151.4c0-0.3,0-0.5,0-0.6c0-0.1-0.1-0.1-0.3-0.1
				c-0.1,0-0.2,0-0.3,0.1c0,0.1-0.1,0.3-0.1,0.6v3c0,0.3,0,0.5,0.1,0.6c0,0.1,0.1,0.1,0.3,0.1c0.1,0,0.2,0,0.2-0.1
				c0-0.1,0.1-0.3,0.1-0.6V151.4z"/>
		</g>
	</g>
	<g>
		<g>
			<path class="st3" d="M60.1,171.3c0.8,0.8,1.2,1.8,1.2,2.9c0,1.1-0.4,2.1-1.2,2.9s-1.8,1.2-2.9,1.2c-1.1,0-2.1-0.4-2.9-1.2
				c-0.8-0.8-1.2-1.8-1.2-2.9c0-1.1,0.4-2.1,1.2-2.9s1.8-1.2,2.9-1.2C58.3,170.2,59.3,170.6,60.1,171.3z M57.2,171.2
				c-0.8,0-1.6,0.3-2.1,0.9s-0.9,1.3-0.9,2.1s0.3,1.6,0.9,2.2c0.6,0.6,1.3,0.9,2.1,0.9c0.8,0,1.6-0.3,2.2-0.9
				c0.6-0.6,0.9-1.3,0.9-2.2c0-0.8-0.3-1.6-0.9-2.1C58.8,171.5,58.1,171.2,57.2,171.2z"/>
			<path class="st3" d="M63.7,177.6v2.4h-1v-6.8h1v0.5c0.5-0.6,1.1-0.9,1.7-0.9c0.8,0,1.5,0.3,2,0.8c0.6,0.6,0.8,1.2,0.8,2
				c0,0.8-0.3,1.5-0.8,2c-0.6,0.6-1.2,0.8-2,0.8C64.8,178.4,64.2,178.1,63.7,177.6z M63.7,175.1v0.8c0.1,0.3,0.2,0.6,0.5,0.9
				c0.3,0.3,0.8,0.5,1.3,0.5c0.5,0,0.9-0.2,1.3-0.5c0.3-0.3,0.5-0.8,0.5-1.3c0-0.5-0.2-0.9-0.5-1.3s-0.8-0.5-1.3-0.5
				c-0.5,0-0.9,0.2-1.3,0.5C63.9,174.5,63.8,174.8,63.7,175.1z"/>
			<path class="st3" d="M70.6,171.2c0.1,0.1,0.2,0.3,0.2,0.5s-0.1,0.4-0.2,0.5c-0.1,0.1-0.3,0.2-0.5,0.2c-0.2,0-0.4-0.1-0.5-0.2
				c-0.1-0.1-0.2-0.3-0.2-0.5s0.1-0.4,0.2-0.5s0.3-0.2,0.5-0.2C70.3,171,70.5,171.1,70.6,171.2z M70.6,173.1v5.1h-1v-5.1H70.6z"/>
			<path class="st3" d="M73.2,174.5v3.8h-1v-5.1h1v0.6c0.2-0.6,0.6-0.9,1.3-0.9c0.6,0,1,0.2,1.3,0.6c0.3,0.4,0.5,0.9,0.5,1.5v3.3h-1
				v-3.3c0-0.3-0.1-0.5-0.3-0.8c-0.2-0.2-0.5-0.3-0.8-0.3c-0.3,0-0.6,0.1-0.8,0.3C73.4,174.3,73.3,174.4,73.2,174.5z"/>
			<path class="st3" d="M82.3,173.5v-0.4h1v5.1h-1v-0.6c-0.5,0.5-1.1,0.8-1.7,0.8c-0.8,0-1.5-0.3-2-0.8c-0.6-0.6-0.8-1.2-0.8-2
				c0-0.8,0.3-1.5,0.8-2c0.6-0.6,1.2-0.8,2-0.8C81.2,172.7,81.8,172.9,82.3,173.5z M82.3,175.9v-0.8c-0.1-0.3-0.2-0.6-0.5-0.9
				c-0.3-0.3-0.8-0.5-1.3-0.5c-0.5,0-0.9,0.2-1.3,0.5c-0.3,0.3-0.5,0.8-0.5,1.3c0,0.5,0.2,0.9,0.5,1.3c0.3,0.3,0.8,0.5,1.3,0.5
				c0.5,0,0.9-0.2,1.3-0.5C82.1,176.5,82.3,176.2,82.3,175.9z"/>
			<path class="st3" d="M85.9,174.5v3.8h-1v-5.1h1v0.6c0.2-0.6,0.6-0.9,1.3-0.9c0.6,0,1,0.2,1.3,0.6c0.3,0.4,0.5,0.9,0.5,1.5v3.3h-1
				v-3.3c0-0.3-0.1-0.5-0.3-0.8c-0.2-0.2-0.5-0.3-0.8-0.3c-0.3,0-0.6,0.1-0.8,0.3C86,174.3,85.9,174.4,85.9,174.5z"/>
			<path class="st3" d="M98.4,173.5v-0.4h1v6.8h-1v-2.4c-0.5,0.5-1.1,0.8-1.7,0.8c-0.8,0-1.5-0.3-2-0.8c-0.6-0.6-0.8-1.2-0.8-2
				c0-0.8,0.3-1.5,0.8-2c0.6-0.6,1.2-0.8,2-0.8C97.3,172.7,97.9,172.9,98.4,173.5z M98.4,175.9v-0.8c-0.1-0.3-0.2-0.6-0.5-0.9
				c-0.3-0.3-0.8-0.5-1.3-0.5c-0.5,0-0.9,0.2-1.3,0.5c-0.3,0.3-0.5,0.8-0.5,1.3c0,0.5,0.2,0.9,0.5,1.3c0.3,0.3,0.8,0.5,1.3,0.5
				c0.5,0,0.9-0.2,1.3-0.5C98.2,176.5,98.3,176.2,98.4,175.9z"/>
			<path class="st3" d="M103.1,178.3c-0.6,0-1.2-0.2-1.6-0.6c-0.4-0.4-0.6-0.9-0.6-1.5v-3.1h1v3.1c0,0.3,0.1,0.6,0.3,0.8
				c0.2,0.2,0.5,0.3,0.8,0.3c0.3,0,0.6-0.1,0.8-0.3c0.2-0.2,0.3-0.5,0.3-0.8v-3.1h1v3.1c0,0.6-0.2,1.1-0.6,1.5
				C104.2,178.1,103.7,178.3,103.1,178.3z"/>
			<path class="st3" d="M108.3,177.1c0.2,0.2,0.5,0.2,0.9,0.2c0.5,0,0.9-0.2,1.3-0.5c0,0,0.1-0.1,0.3-0.3l1,0.4
				c-0.3,0.3-0.4,0.6-0.5,0.7c-0.6,0.6-1.2,0.8-2,0.8c-0.8,0-1.4-0.3-2-0.8c-0.6-0.6-0.8-1.2-0.8-2c0-0.8,0.3-1.5,0.8-2
				s1.2-0.8,2-0.8c0.7,0,1.3,0.2,1.8,0.6c0.1,0.1,0.2,0.1,0.2,0.2c0,0,0.1,0.1,0.3,0.3l-0.5,0.5L108.3,177.1z M110,173.9
				c-0.1-0.1-0.4-0.1-0.8-0.1c-0.5,0-0.9,0.2-1.3,0.5c-0.3,0.3-0.5,0.8-0.5,1.3c0,0.4,0,0.7,0.1,0.8L110,173.9z"/>
			<path class="st3" d="M117.5,174.5v3.8h-1v-5.1h1v0.6c0.2-0.6,0.6-0.9,1.3-0.9c0.6,0,1,0.2,1.3,0.6c0.3,0.4,0.5,0.9,0.5,1.5v3.3
				h-1v-3.3c0-0.3-0.1-0.5-0.3-0.8c-0.2-0.2-0.5-0.3-0.8-0.3c-0.3,0-0.6,0.1-0.8,0.3C117.7,174.3,117.6,174.4,117.5,174.5z"/>
			<path class="st3" d="M124.7,172.7c0.8,0,1.5,0.3,2,0.8c0.6,0.6,0.8,1.2,0.8,2c0,0.8-0.3,1.5-0.8,2c-0.6,0.6-1.2,0.8-2,0.8
				c-0.8,0-1.4-0.3-2-0.8c-0.6-0.6-0.8-1.2-0.8-2c0-0.8,0.3-1.5,0.8-2S123.9,172.7,124.7,172.7z M123.5,174.3
				c-0.3,0.3-0.5,0.8-0.5,1.3c0,0.5,0.2,0.9,0.5,1.3c0.3,0.3,0.8,0.5,1.3,0.5c0.5,0,0.9-0.2,1.3-0.5c0.3-0.3,0.5-0.8,0.5-1.3
				c0-0.5-0.2-0.9-0.5-1.3s-0.8-0.5-1.3-0.5C124.2,173.7,123.8,173.9,123.5,174.3z"/>
			<path class="st3" d="M133.3,177.1c0.1,0.1,0.3,0.2,0.4,0.2s0.3-0.1,0.4-0.2c0.1-0.1,0.2-0.3,0.2-0.4c0-0.2-0.1-0.3-0.2-0.4
				c-0.1-0.1-0.3-0.2-0.5-0.4c-0.4-0.2-0.6-0.4-0.8-0.5c-0.3-0.3-0.4-0.6-0.4-1c0-0.4,0.1-0.7,0.4-1c0.3-0.3,0.6-0.4,1-0.4
				s0.7,0.1,1,0.4c0.2,0.2,0.3,0.4,0.3,0.6l-1,0.3c0-0.1,0-0.1-0.1-0.2c-0.1-0.1-0.1-0.1-0.2-0.1s-0.2,0-0.3,0.1
				c-0.1,0.1-0.1,0.2-0.1,0.3s0,0.2,0.1,0.3c0.1,0.1,0.2,0.2,0.4,0.3c0.4,0.2,0.7,0.4,0.9,0.6c0.3,0.3,0.5,0.7,0.5,1.2
				c0,0.5-0.2,0.9-0.5,1.2c-0.3,0.3-0.7,0.5-1.2,0.5c-0.5,0-0.8-0.2-1.2-0.5c-0.2-0.2-0.4-0.5-0.4-0.8l1-0.2
				C133.2,177,133.2,177.1,133.3,177.1z"/>
			<path class="st3" d="M138.3,177.1c0.2,0.2,0.5,0.2,0.9,0.2c0.5,0,0.9-0.2,1.3-0.5c0,0,0.1-0.1,0.3-0.3l1,0.4
				c-0.3,0.3-0.4,0.6-0.5,0.7c-0.6,0.6-1.2,0.8-2,0.8c-0.8,0-1.4-0.3-2-0.8c-0.6-0.6-0.8-1.2-0.8-2c0-0.8,0.3-1.5,0.8-2
				c0.6-0.6,1.2-0.8,2-0.8c0.7,0,1.3,0.2,1.8,0.6c0.1,0.1,0.2,0.1,0.2,0.2c0,0,0.1,0.1,0.3,0.3l-0.5,0.5L138.3,177.1z M140,173.9
				c-0.1-0.1-0.4-0.1-0.8-0.1c-0.5,0-0.9,0.2-1.3,0.5c-0.3,0.3-0.5,0.8-0.5,1.3c0,0.4,0,0.7,0.1,0.8L140,173.9z"/>
			<path class="st3" d="M150.9,173.5v-0.4h1v5.1h-1v-0.6c-0.5,0.5-1.1,0.8-1.7,0.8c-0.8,0-1.5-0.3-2-0.8c-0.6-0.6-0.8-1.2-0.8-2
				c0-0.8,0.3-1.5,0.8-2c0.6-0.6,1.2-0.8,2-0.8C149.8,172.7,150.4,172.9,150.9,173.5z M150.9,175.9v-0.8c-0.1-0.3-0.2-0.6-0.5-0.9
				c-0.3-0.3-0.8-0.5-1.3-0.5c-0.5,0-0.9,0.2-1.3,0.5c-0.3,0.3-0.5,0.8-0.5,1.3c0,0.5,0.2,0.9,0.5,1.3c0.3,0.3,0.8,0.5,1.3,0.5
				c0.5,0,0.9-0.2,1.3-0.5C150.7,176.5,150.9,176.2,150.9,175.9z"/>
			<path class="st3" d="M157.9,173.5v-3.2h1v8h-1v-0.6c-0.5,0.5-1.1,0.8-1.7,0.8c-0.8,0-1.5-0.3-2-0.8c-0.6-0.6-0.8-1.2-0.8-2
				c0-0.8,0.3-1.5,0.8-2s1.2-0.8,2-0.8C156.8,172.7,157.4,172.9,157.9,173.5z M157.9,175.9v-0.8c-0.1-0.3-0.2-0.6-0.5-0.9
				c-0.3-0.3-0.8-0.5-1.3-0.5s-0.9,0.2-1.3,0.5s-0.5,0.8-0.5,1.3c0,0.5,0.2,0.9,0.5,1.3c0.3,0.3,0.8,0.5,1.3,0.5s0.9-0.2,1.3-0.5
				C157.7,176.5,157.8,176.2,157.9,175.9z"/>
			<path class="st3" d="M162,177.1c0.2,0.2,0.5,0.2,0.9,0.2c0.5,0,0.9-0.2,1.3-0.5c0,0,0.1-0.1,0.3-0.3l1,0.4
				c-0.3,0.3-0.4,0.6-0.5,0.7c-0.6,0.6-1.2,0.8-2,0.8c-0.8,0-1.4-0.3-2-0.8c-0.6-0.6-0.8-1.2-0.8-2c0-0.8,0.3-1.5,0.8-2
				c0.6-0.6,1.2-0.8,2-0.8c0.7,0,1.3,0.2,1.8,0.6c0.1,0.1,0.2,0.1,0.2,0.2c0,0,0.1,0.1,0.3,0.3l-0.5,0.5L162,177.1z M163.8,173.9
				c-0.1-0.1-0.4-0.1-0.8-0.1c-0.5,0-0.9,0.2-1.3,0.5c-0.3,0.3-0.5,0.8-0.5,1.3c0,0.4,0,0.7,0.1,0.8L163.8,173.9z"/>
			<path class="st3" d="M170.8,176.5l1,0.4c-0.3,0.3-0.4,0.6-0.5,0.7c-0.6,0.6-1.2,0.8-2,0.8c-0.8,0-1.4-0.3-2-0.8
				c-0.6-0.6-0.8-1.2-0.8-2c0-0.8,0.3-1.5,0.8-2c0.6-0.6,1.2-0.8,2-0.8c0.8,0,1.5,0.3,2,0.8c0.1,0.1,0.3,0.3,0.5,0.7l-1,0.4
				c-0.1-0.2-0.2-0.3-0.3-0.3c-0.3-0.3-0.8-0.5-1.3-0.5c-0.5,0-0.9,0.2-1.3,0.5c-0.3,0.3-0.5,0.8-0.5,1.3c0,0.5,0.2,0.9,0.5,1.3
				c0.3,0.3,0.8,0.5,1.3,0.5c0.5,0,0.9-0.2,1.3-0.5C170.6,176.7,170.6,176.6,170.8,176.5z"/>
			<path class="st3" d="M175.2,178.3c-0.6,0-1.2-0.2-1.6-0.6c-0.4-0.4-0.6-0.9-0.6-1.5v-3.1h1v3.1c0,0.3,0.1,0.6,0.3,0.8
				c0.2,0.2,0.5,0.3,0.8,0.3c0.3,0,0.6-0.1,0.8-0.3c0.2-0.2,0.3-0.5,0.3-0.8v-3.1h1v3.1c0,0.6-0.2,1.1-0.6,1.5
				C176.3,178.1,175.8,178.3,175.2,178.3z"/>
			<path class="st3" d="M183.2,173.5v-0.4h1v5.1h-1v-0.6c-0.5,0.5-1.1,0.8-1.7,0.8c-0.8,0-1.5-0.3-2-0.8c-0.6-0.6-0.8-1.2-0.8-2
				c0-0.8,0.3-1.5,0.8-2c0.6-0.6,1.2-0.8,2-0.8C182.2,172.7,182.7,172.9,183.2,173.5z M183.2,175.9v-0.8c-0.1-0.3-0.2-0.6-0.5-0.9
				c-0.3-0.3-0.8-0.5-1.3-0.5c-0.5,0-0.9,0.2-1.3,0.5c-0.3,0.3-0.5,0.8-0.5,1.3c0,0.5,0.2,0.9,0.5,1.3c0.3,0.3,0.8,0.5,1.3,0.5
				c0.5,0,0.9-0.2,1.3-0.5C183,176.5,183.2,176.2,183.2,175.9z"/>
			<path class="st3" d="M186.8,174.5v3.8h-1v-5.1h1v0.6c0.2-0.6,0.6-0.9,1.3-0.9c0.6,0,1,0.2,1.3,0.6c0.3,0.4,0.5,0.9,0.5,1.5v3.3
				h-1v-3.3c0-0.3-0.1-0.5-0.3-0.8s-0.5-0.3-0.8-0.3c-0.3,0-0.6,0.1-0.8,0.3C186.9,174.3,186.8,174.4,186.8,174.5z"/>
			<path class="st3" d="M78.2,185.7v-0.4h1v5.1h-1v-0.6c-0.5,0.5-1.1,0.8-1.7,0.8c-0.8,0-1.5-0.3-2-0.8c-0.6-0.6-0.8-1.2-0.8-2
				c0-0.8,0.3-1.5,0.8-2c0.6-0.6,1.2-0.8,2-0.8C77.1,184.9,77.7,185.2,78.2,185.7z M78.2,188.1v-0.8c-0.1-0.3-0.2-0.6-0.5-0.9
				c-0.3-0.3-0.8-0.5-1.3-0.5c-0.5,0-0.9,0.2-1.3,0.5c-0.3,0.3-0.5,0.8-0.5,1.3c0,0.5,0.2,0.9,0.5,1.3c0.3,0.3,0.8,0.5,1.3,0.5
				c0.5,0,0.9-0.2,1.3-0.5C78,188.8,78.1,188.5,78.2,188.1z"/>
			<path class="st3" d="M81.8,182.5v8h-1v-8H81.8z"/>
			<path class="st3" d="M90.8,188.7l1,0.4c-0.3,0.3-0.4,0.6-0.5,0.7c-0.6,0.6-1.2,0.8-2,0.8c-0.8,0-1.4-0.3-2-0.8
				c-0.6-0.6-0.8-1.2-0.8-2c0-0.8,0.3-1.5,0.8-2s1.2-0.8,2-0.8c0.8,0,1.5,0.3,2,0.8c0.1,0.1,0.3,0.3,0.5,0.7l-1,0.4
				c-0.1-0.2-0.2-0.3-0.3-0.3c-0.3-0.3-0.8-0.5-1.3-0.5c-0.5,0-0.9,0.2-1.3,0.5c-0.3,0.3-0.5,0.8-0.5,1.3c0,0.5,0.2,0.9,0.5,1.3
				c0.3,0.3,0.8,0.5,1.3,0.5c0.5,0,0.9-0.2,1.3-0.5C90.6,189,90.7,188.9,90.8,188.7z"/>
			<path class="st3" d="M94.1,182.5v8h-1v-8H94.1z"/>
			<path class="st3" d="M96.7,183.4c0.1,0.1,0.2,0.3,0.2,0.5s-0.1,0.4-0.2,0.5c-0.1,0.1-0.3,0.2-0.5,0.2c-0.2,0-0.4-0.1-0.5-0.2
				c-0.1-0.1-0.2-0.3-0.2-0.5s0.1-0.4,0.2-0.5c0.1-0.1,0.3-0.2,0.5-0.2C96.4,183.2,96.6,183.3,96.7,183.4z M96.7,185.3v5.1h-1v-5.1
				H96.7z"/>
			<path class="st3" d="M98.3,185.3h1v0.5c0.2-0.5,0.6-0.8,1.2-0.8c0.6,0,0.9,0.3,1,0.9c0.2-0.6,0.6-0.9,1.3-0.9
				c0.7,0,1.1,0.4,1.1,1.3v4.1h-1v-3.6c0-0.5-0.2-0.8-0.6-0.8c-0.2,0-0.3,0.1-0.4,0.2c-0.1,0.1-0.2,0.5-0.2,1.2v3h-1l0-3.6
				c0-0.5-0.2-0.8-0.6-0.8c-0.2,0-0.3,0.1-0.4,0.2c-0.1,0.1-0.2,0.4-0.2,0.8v3.4h-1C98.3,190.5,98.3,185.3,98.3,185.3z"/>
			<path class="st3" d="M109.8,185.7v-0.4h1v5.1h-1v-0.6c-0.5,0.5-1.1,0.8-1.7,0.8c-0.8,0-1.5-0.3-2-0.8c-0.6-0.6-0.8-1.2-0.8-2
				c0-0.8,0.3-1.5,0.8-2c0.6-0.6,1.2-0.8,2-0.8C108.7,184.9,109.3,185.2,109.8,185.7z M109.8,188.1v-0.8c-0.1-0.3-0.2-0.6-0.5-0.9
				c-0.3-0.3-0.8-0.5-1.3-0.5c-0.5,0-0.9,0.2-1.3,0.5c-0.3,0.3-0.5,0.8-0.5,1.3c0,0.5,0.2,0.9,0.5,1.3c0.3,0.3,0.8,0.5,1.3,0.5
				c0.5,0,0.9-0.2,1.3-0.5C109.6,188.8,109.7,188.5,109.8,188.1z"/>
			<path class="st3" d="M118.4,184.9c0.8,0,1.5,0.3,2,0.8c0.6,0.6,0.8,1.2,0.8,2c0,0.8-0.3,1.5-0.8,2c-0.6,0.6-1.2,0.8-2,0.8
				c-0.8,0-1.4-0.3-2-0.8c-0.6-0.6-0.8-1.2-0.8-2c0-0.8,0.3-1.5,0.8-2C116.9,185.2,117.6,184.9,118.4,184.9z M117.1,186.5
				c-0.3,0.3-0.5,0.8-0.5,1.3c0,0.5,0.2,0.9,0.5,1.3s0.8,0.5,1.3,0.5c0.5,0,0.9-0.2,1.3-0.5s0.5-0.8,0.5-1.3c0-0.5-0.2-0.9-0.5-1.3
				s-0.8-0.5-1.3-0.5S117.5,186.2,117.1,186.5z"/>
			<path class="st3" d="M123.4,186c0.4-0.5,0.9-0.8,1.4-0.8v1.1c-0.4,0-0.7,0.1-0.9,0.4c-0.3,0.3-0.5,0.7-0.5,1.2v2.6h-1v-5.1h1
				L123.4,186L123.4,186z"/>
			<path class="st3" d="M130.3,185.7v-0.4h1v3.8c0,1-0.3,1.8-0.8,2.3c-0.6,0.5-1.2,0.7-2,0.7s-1.5-0.2-2-0.7
				c-0.1-0.1-0.3-0.3-0.5-0.7l1-0.4c0.1,0.2,0.2,0.3,0.3,0.3c0.3,0.3,0.8,0.5,1.3,0.5c0.8,0,1.4-0.5,1.7-1.6
				c-0.3,0.6-0.9,0.9-1.7,0.9s-1.5-0.3-2-0.8c-0.6-0.5-0.8-1.2-0.8-2c0-0.8,0.3-1.5,0.8-2c0.6-0.6,1.2-0.8,2-0.8
				C129.2,184.9,129.8,185.2,130.3,185.7z M130.3,187.4c-0.1-0.3-0.2-0.6-0.5-0.9c-0.3-0.3-0.8-0.5-1.3-0.5s-0.9,0.2-1.3,0.5
				s-0.5,0.8-0.5,1.3c0,0.5,0.2,0.9,0.5,1.3c0.3,0.3,0.8,0.5,1.3,0.5s0.9-0.2,1.3-0.5c0.3-0.3,0.4-0.5,0.5-0.8V187.4z"/>
			<path class="st3" d="M137.2,185.7v-0.4h1v5.1h-1v-0.6c-0.5,0.5-1.1,0.8-1.7,0.8c-0.8,0-1.5-0.3-2-0.8c-0.6-0.6-0.8-1.2-0.8-2
				c0-0.8,0.3-1.5,0.8-2c0.6-0.6,1.2-0.8,2-0.8C136.2,184.9,136.7,185.2,137.2,185.7z M137.2,188.1v-0.8c-0.1-0.3-0.2-0.6-0.5-0.9
				c-0.3-0.3-0.8-0.5-1.3-0.5c-0.5,0-0.9,0.2-1.3,0.5c-0.3,0.3-0.5,0.8-0.5,1.3c0,0.5,0.2,0.9,0.5,1.3c0.3,0.3,0.8,0.5,1.3,0.5
				c0.5,0,0.9-0.2,1.3-0.5C137,188.8,137.2,188.5,137.2,188.1z"/>
			<path class="st3" d="M140.8,186.7v3.8h-1v-5.1h1v0.6c0.2-0.6,0.6-0.9,1.3-0.9c0.6,0,1,0.2,1.3,0.6c0.3,0.4,0.5,0.9,0.5,1.5v3.3
				h-1v-3.3c0-0.3-0.1-0.5-0.3-0.8c-0.2-0.2-0.5-0.3-0.8-0.3c-0.3,0-0.6,0.1-0.8,0.3C140.9,186.5,140.8,186.6,140.8,186.7z"/>
			<path class="st3" d="M146.6,183.4c0.1,0.1,0.2,0.3,0.2,0.5s-0.1,0.4-0.2,0.5c-0.1,0.1-0.3,0.2-0.5,0.2c-0.2,0-0.4-0.1-0.5-0.2
				c-0.1-0.1-0.2-0.3-0.2-0.5s0.1-0.4,0.2-0.5s0.3-0.2,0.5-0.2C146.2,183.2,146.4,183.3,146.6,183.4z M146.6,185.3v5.1h-1v-5.1
				H146.6z"/>
			<path class="st3" d="M150.5,186.4h-2.1v-1h3.9l-2.3,4.1h2.3v1h-4.1L150.5,186.4z"/>
			<path class="st3" d="M158.2,185.7v-0.4h1v5.1h-1v-0.6c-0.5,0.5-1.1,0.8-1.7,0.8c-0.8,0-1.5-0.3-2-0.8c-0.6-0.6-0.8-1.2-0.8-2
				c0-0.8,0.3-1.5,0.8-2c0.6-0.6,1.2-0.8,2-0.8C157.1,184.9,157.7,185.2,158.2,185.7z M158.2,188.1v-0.8c-0.1-0.3-0.2-0.6-0.5-0.9
				c-0.3-0.3-0.8-0.5-1.3-0.5c-0.5,0-0.9,0.2-1.3,0.5c-0.3,0.3-0.5,0.8-0.5,1.3c0,0.5,0.2,0.9,0.5,1.3c0.3,0.3,0.8,0.5,1.3,0.5
				c0.5,0,0.9-0.2,1.3-0.5C158,188.8,158.1,188.5,158.2,188.1z"/>
			<path class="st3" d="M164.8,188.7l1,0.4c-0.3,0.3-0.4,0.6-0.5,0.7c-0.6,0.6-1.2,0.8-2,0.8c-0.8,0-1.4-0.3-2-0.8
				c-0.6-0.6-0.8-1.2-0.8-2c0-0.8,0.3-1.5,0.8-2c0.6-0.6,1.2-0.8,2-0.8c0.8,0,1.5,0.3,2,0.8c0.1,0.1,0.3,0.3,0.5,0.7l-1,0.4
				c-0.1-0.2-0.2-0.3-0.3-0.3c-0.3-0.3-0.8-0.5-1.3-0.5c-0.5,0-0.9,0.2-1.3,0.5c-0.3,0.3-0.5,0.8-0.5,1.3c0,0.5,0.2,0.9,0.5,1.3
				c0.3,0.3,0.8,0.5,1.3,0.5c0.5,0,0.9-0.2,1.3-0.5C164.6,189,164.6,188.9,164.8,188.7z"/>
			<path class="st3" d="M168.1,183.4c0.1,0.1,0.2,0.3,0.2,0.5s-0.1,0.4-0.2,0.5c-0.1,0.1-0.3,0.2-0.5,0.2c-0.2,0-0.4-0.1-0.5-0.2
				c-0.1-0.1-0.2-0.3-0.2-0.5s0.1-0.4,0.2-0.5c0.1-0.1,0.3-0.2,0.5-0.2C167.8,183.2,168,183.3,168.1,183.4z M168.1,185.3v5.1h-1
				v-5.1H168.1z"/>
			<path class="st3" d="M172.2,184.9c0.8,0,1.5,0.3,2,0.8c0.6,0.6,0.8,1.2,0.8,2c0,0.8-0.3,1.5-0.8,2c-0.6,0.6-1.2,0.8-2,0.8
				c-0.8,0-1.4-0.3-2-0.8c-0.6-0.6-0.8-1.2-0.8-2c0-0.8,0.3-1.5,0.8-2C170.8,185.2,171.5,184.9,172.2,184.9z M171,186.5
				c-0.3,0.3-0.5,0.8-0.5,1.3c0,0.5,0.2,0.9,0.5,1.3c0.3,0.3,0.8,0.5,1.3,0.5s0.9-0.2,1.3-0.5c0.3-0.3,0.5-0.8,0.5-1.3
				c0-0.5-0.2-0.9-0.5-1.3c-0.3-0.3-0.8-0.5-1.3-0.5S171.3,186.2,171,186.5z"/>
			<path class="st3" d="M177.3,186.7v3.8h-1v-5.1h1v0.6c0.2-0.6,0.6-0.9,1.3-0.9c0.6,0,1,0.2,1.3,0.6c0.3,0.4,0.5,0.9,0.5,1.5v3.3
				h-1v-3.3c0-0.3-0.1-0.5-0.3-0.8c-0.2-0.2-0.5-0.3-0.8-0.3c-0.3,0-0.6,0.1-0.8,0.3C177.4,186.5,177.3,186.6,177.3,186.7z"/>
			<path class="st3" d="M186.4,185.7v-0.4h1v5.1h-1v-0.6c-0.5,0.5-1.1,0.8-1.7,0.8c-0.8,0-1.5-0.3-2-0.8c-0.6-0.6-0.8-1.2-0.8-2
				c0-0.8,0.3-1.5,0.8-2c0.6-0.6,1.2-0.8,2-0.8C185.3,184.9,185.9,185.2,186.4,185.7z M186.4,188.1v-0.8c-0.1-0.3-0.2-0.6-0.5-0.9
				c-0.4-0.3-0.8-0.5-1.3-0.5c-0.5,0-0.9,0.2-1.3,0.5c-0.3,0.3-0.5,0.8-0.5,1.3c0,0.5,0.2,0.9,0.5,1.3c0.3,0.3,0.8,0.5,1.3,0.5
				c0.5,0,0.9-0.2,1.3-0.5C186.2,188.8,186.3,188.5,186.4,188.1z"/>
			<path class="st3" d="M190,182.5v8h-1v-8H190z"/>
			<path class="st3" d="M84.8,204.4h-1.1l1.4-2.9l-1.9-4h1.2l1.3,2.8l1.3-2.8H88L84.8,204.4z"/>
			<path class="st3" d="M97.1,197.9v-0.4h1v5.1h-1v-0.6c-0.5,0.5-1.1,0.8-1.7,0.8c-0.8,0-1.5-0.3-2-0.8c-0.6-0.6-0.8-1.2-0.8-2
				s0.3-1.5,0.8-2c0.6-0.6,1.2-0.8,2-0.8C96.1,197.2,96.6,197.4,97.1,197.9z M97.1,200.4v-0.8c-0.1-0.3-0.2-0.6-0.5-0.9
				c-0.3-0.3-0.8-0.5-1.3-0.5c-0.5,0-0.9,0.2-1.3,0.5c-0.3,0.3-0.5,0.8-0.5,1.3c0,0.5,0.2,0.9,0.5,1.3c0.3,0.3,0.8,0.5,1.3,0.5
				c0.5,0,0.9-0.2,1.3-0.5C96.9,201,97.1,200.7,97.1,200.4z"/>
			<path class="st3" d="M100.7,194.7v8h-1v-8H100.7z"/>
			<path class="st3" d="M110.2,197.9v-0.4h1v5.1h-1v-0.6c-0.5,0.5-1.1,0.8-1.7,0.8c-0.8,0-1.5-0.3-2-0.8c-0.6-0.6-0.8-1.2-0.8-2
				s0.3-1.5,0.8-2c0.6-0.6,1.2-0.8,2-0.8C109.1,197.2,109.7,197.4,110.2,197.9z M110.2,200.4v-0.8c-0.1-0.3-0.2-0.6-0.5-0.9
				c-0.3-0.3-0.8-0.5-1.3-0.5c-0.5,0-0.9,0.2-1.3,0.5c-0.3,0.3-0.5,0.8-0.5,1.3c0,0.5,0.2,0.9,0.5,1.3c0.3,0.3,0.8,0.5,1.3,0.5
				c0.5,0,0.9-0.2,1.3-0.5C110,201,110.1,200.7,110.2,200.4z"/>
			<path class="st3" d="M112.7,197.6h1v0.5c0.2-0.5,0.6-0.8,1.2-0.8c0.6,0,0.9,0.3,1,0.9c0.2-0.6,0.6-0.9,1.3-0.9
				c0.7,0,1.1,0.4,1.1,1.3v4.1h-1v-3.6c0-0.5-0.2-0.8-0.6-0.8c-0.2,0-0.3,0.1-0.4,0.2c-0.1,0.1-0.2,0.5-0.2,1.2v3h-1l0-3.6
				c0-0.5-0.2-0.8-0.6-0.8c-0.2,0-0.3,0.1-0.4,0.2c-0.1,0.1-0.2,0.4-0.2,0.8v3.4h-1C112.7,202.7,112.7,197.6,112.7,197.6z"/>
			<path class="st3" d="M120.8,202.1v0.6h-1v-8h1v3.2c0.5-0.5,1.1-0.8,1.7-0.8c0.8,0,1.5,0.3,2,0.8c0.6,0.6,0.8,1.2,0.8,2
				s-0.3,1.5-0.8,2c-0.6,0.6-1.2,0.8-2,0.8C121.9,202.8,121.3,202.6,120.8,202.1z M120.8,199.6v0.8c0.1,0.3,0.2,0.6,0.5,0.9
				c0.3,0.3,0.8,0.5,1.3,0.5c0.5,0,0.9-0.2,1.3-0.5c0.3-0.3,0.5-0.8,0.5-1.3c0-0.5-0.2-0.9-0.5-1.3c-0.3-0.4-0.8-0.5-1.3-0.5
				c-0.5,0-0.9,0.2-1.3,0.5C121,199,120.9,199.3,120.8,199.6z"/>
			<path class="st3" d="M127.9,195.7c0.1,0.1,0.2,0.3,0.2,0.5s-0.1,0.4-0.2,0.5c-0.1,0.1-0.3,0.2-0.5,0.2c-0.2,0-0.4-0.1-0.5-0.2
				c-0.1-0.1-0.2-0.3-0.2-0.5s0.1-0.4,0.2-0.5c0.1-0.1,0.3-0.2,0.5-0.2C127.5,195.5,127.7,195.5,127.9,195.7z M127.9,197.6v5.1h-1
				v-5.1H127.9z"/>
			<path class="st3" d="M131,201.5c0.2,0.2,0.5,0.2,0.9,0.2c0.5,0,0.9-0.2,1.3-0.5c0,0,0.1-0.1,0.3-0.3l1,0.4
				c-0.3,0.4-0.4,0.6-0.5,0.7c-0.6,0.6-1.2,0.8-2,0.8c-0.8,0-1.4-0.3-2-0.8c-0.6-0.6-0.8-1.2-0.8-2c0-0.8,0.3-1.5,0.8-2
				c0.6-0.6,1.2-0.8,2-0.8c0.7,0,1.3,0.2,1.8,0.6c0.1,0.1,0.2,0.1,0.2,0.2c0,0,0.1,0.1,0.3,0.3l-0.5,0.5L131,201.5z M132.8,198.4
				c-0.1-0.1-0.4-0.1-0.8-0.1c-0.5,0-0.9,0.2-1.3,0.5c-0.3,0.3-0.5,0.8-0.5,1.3c0,0.4,0,0.7,0.1,0.8L132.8,198.4z"/>
			<path class="st3" d="M136.8,199v3.8h-1v-5.1h1v0.6c0.2-0.6,0.6-0.9,1.3-0.9c0.6,0,1,0.2,1.3,0.6c0.3,0.4,0.5,0.9,0.5,1.5v3.3h-1
				v-3.3c0-0.3-0.1-0.5-0.3-0.8s-0.5-0.3-0.8-0.3c-0.3,0-0.6,0.1-0.8,0.3C136.9,198.8,136.8,198.9,136.8,199z"/>
			<path class="st3" d="M142,197.6v-1.9h1v1.9h0.9v1H143v4.1h-1v-4.1h-0.9v-1H142z"/>
			<path class="st3" d="M146.8,201.5c0.2,0.2,0.5,0.2,0.9,0.2c0.5,0,0.9-0.2,1.3-0.5c0,0,0.1-0.1,0.3-0.3l1,0.4
				c-0.3,0.4-0.4,0.6-0.5,0.7c-0.6,0.6-1.2,0.8-2,0.8c-0.8,0-1.4-0.3-2-0.8c-0.6-0.6-0.8-1.2-0.8-2c0-0.8,0.3-1.5,0.8-2
				c0.6-0.6,1.2-0.8,2-0.8c0.7,0,1.3,0.2,1.8,0.6c0.1,0.1,0.2,0.1,0.2,0.2c0,0,0.1,0.1,0.3,0.3l-0.5,0.5L146.8,201.5z M148.5,198.4
				c-0.1-0.1-0.4-0.1-0.8-0.1c-0.5,0-0.9,0.2-1.3,0.5s-0.5,0.8-0.5,1.3c0,0.4,0,0.7,0.1,0.8L148.5,198.4z"/>
			<path class="st3" d="M156,194.7v8h-1v-8H156z"/>
			<path class="st3" d="M162,197.9v-0.4h1v5.1h-1v-0.6c-0.5,0.5-1.1,0.8-1.7,0.8c-0.8,0-1.5-0.3-2-0.8c-0.6-0.6-0.8-1.2-0.8-2
				s0.3-1.5,0.8-2c0.6-0.6,1.2-0.8,2-0.8C160.9,197.2,161.5,197.4,162,197.9z M162,200.4v-0.8c-0.1-0.3-0.2-0.6-0.5-0.9
				c-0.3-0.3-0.8-0.5-1.3-0.5c-0.5,0-0.9,0.2-1.3,0.5c-0.3,0.3-0.5,0.8-0.5,1.3c0,0.5,0.2,0.9,0.5,1.3c0.3,0.3,0.8,0.5,1.3,0.5
				c0.5,0,0.9-0.2,1.3-0.5C161.7,201,161.9,200.7,162,200.4z"/>
			<path class="st3" d="M165.5,202.1v0.6h-1v-8h1v3.2c0.5-0.5,1.1-0.8,1.7-0.8c0.8,0,1.5,0.3,2,0.8c0.6,0.6,0.8,1.2,0.8,2
				s-0.3,1.5-0.8,2c-0.6,0.6-1.2,0.8-2,0.8C166.6,202.8,166,202.6,165.5,202.1z M165.5,199.6v0.8c0.1,0.3,0.2,0.6,0.5,0.9
				c0.3,0.3,0.8,0.5,1.3,0.5c0.5,0,0.9-0.2,1.3-0.5c0.3-0.3,0.5-0.8,0.5-1.3c0-0.5-0.2-0.9-0.5-1.3s-0.8-0.5-1.3-0.5
				c-0.5,0-0.9,0.2-1.3,0.5C165.8,199,165.6,199.3,165.5,199.6z"/>
			<path class="st3" d="M179.5,198.3c0.4-0.5,0.9-0.8,1.4-0.8v1.1c-0.4,0-0.7,0.1-0.9,0.4c-0.3,0.3-0.5,0.7-0.5,1.2v2.6h-1v-5.1h1
				L179.5,198.3L179.5,198.3z"/>
			<path class="st3" d="M186.4,197.9v-0.4h1v5.1h-1v-0.6c-0.5,0.5-1.1,0.8-1.7,0.8c-0.8,0-1.5-0.3-2-0.8c-0.6-0.6-0.8-1.2-0.8-2
				s0.3-1.5,0.8-2c0.6-0.6,1.2-0.8,2-0.8C185.3,197.2,185.9,197.4,186.4,197.9z M186.4,200.4v-0.8c-0.1-0.3-0.2-0.6-0.5-0.9
				c-0.4-0.3-0.8-0.5-1.3-0.5c-0.5,0-0.9,0.2-1.3,0.5c-0.3,0.3-0.5,0.8-0.5,1.3c0,0.5,0.2,0.9,0.5,1.3c0.3,0.3,0.8,0.5,1.3,0.5
				c0.5,0,0.9-0.2,1.3-0.5C186.2,201,186.3,200.7,186.4,200.4z"/>
			<path class="st3" d="M190,194.7v8h-1v-8H190z"/>
			<path class="st3" d="M124.1,210.2V207h1v8h-1v-0.6c-0.5,0.5-1.1,0.8-1.7,0.8c-0.8,0-1.5-0.3-2-0.8c-0.6-0.6-0.8-1.2-0.8-2
				c0-0.8,0.3-1.5,0.8-2c0.6-0.6,1.2-0.8,2-0.8C123,209.4,123.6,209.7,124.1,210.2z M124.1,212.6v-0.8c-0.1-0.3-0.2-0.6-0.5-0.9
				c-0.3-0.4-0.8-0.5-1.3-0.5s-0.9,0.2-1.3,0.5c-0.3,0.3-0.5,0.8-0.5,1.3c0,0.5,0.2,0.9,0.5,1.3c0.3,0.3,0.8,0.5,1.3,0.5
				s0.9-0.2,1.3-0.5C123.9,213.2,124.1,212.9,124.1,212.6z"/>
			<path class="st3" d="M128.2,213.8c0.2,0.2,0.5,0.2,0.9,0.2c0.5,0,0.9-0.2,1.3-0.5c0,0,0.1-0.1,0.3-0.3l1,0.4
				c-0.3,0.4-0.4,0.6-0.5,0.7c-0.6,0.6-1.2,0.8-2,0.8c-0.8,0-1.4-0.3-2-0.8c-0.6-0.6-0.8-1.2-0.8-2c0-0.8,0.3-1.5,0.8-2
				c0.6-0.6,1.2-0.8,2-0.8c0.7,0,1.3,0.2,1.8,0.6c0.1,0.1,0.2,0.1,0.2,0.2c0,0,0.1,0.1,0.3,0.3l-0.5,0.5L128.2,213.8z M130,210.6
				c-0.1-0.1-0.4-0.1-0.8-0.1c-0.5,0-0.9,0.2-1.3,0.5c-0.3,0.3-0.5,0.8-0.5,1.3c0,0.4,0,0.7,0.1,0.8L130,210.6z"/>
			<path class="st3" d="M137.5,213.8c0.1,0.1,0.3,0.2,0.4,0.2s0.3-0.1,0.4-0.2c0.1-0.1,0.2-0.3,0.2-0.4c0-0.2-0.1-0.3-0.2-0.4
				c-0.1-0.1-0.3-0.2-0.5-0.4c-0.4-0.2-0.6-0.4-0.8-0.5c-0.3-0.3-0.4-0.6-0.4-1c0-0.4,0.1-0.7,0.4-1c0.3-0.3,0.6-0.4,1-0.4
				s0.7,0.1,1,0.4c0.2,0.2,0.3,0.4,0.3,0.6l-1,0.3c0-0.1,0-0.1-0.1-0.2c-0.1-0.1-0.1-0.1-0.2-0.1s-0.2,0-0.3,0.1
				c-0.1,0.1-0.1,0.2-0.1,0.3c0,0.1,0,0.2,0.1,0.3c0.1,0.1,0.2,0.2,0.4,0.3c0.4,0.2,0.7,0.4,0.9,0.6c0.3,0.3,0.5,0.7,0.5,1.2
				c0,0.5-0.2,0.9-0.5,1.2c-0.3,0.3-0.7,0.5-1.2,0.5c-0.5,0-0.8-0.2-1.2-0.5c-0.2-0.2-0.4-0.5-0.4-0.8l1-0.2
				C137.4,213.7,137.4,213.8,137.5,213.8z"/>
			<path class="st3" d="M143,215c-0.6,0-1.2-0.2-1.6-0.6c-0.4-0.4-0.6-0.9-0.6-1.5v-3.1h1v3.1c0,0.3,0.1,0.6,0.3,0.8
				c0.2,0.2,0.5,0.3,0.8,0.3c0.3,0,0.6-0.1,0.8-0.3s0.3-0.5,0.3-0.8v-3.1h1v3.1c0,0.6-0.2,1.1-0.6,1.5
				C144.1,214.8,143.6,215,143,215z"/>
			<path class="st3" d="M151.8,213.8c0.2,0.2,0.5,0.2,0.9,0.2c0.5,0,0.9-0.2,1.3-0.5c0,0,0.1-0.1,0.3-0.3l1,0.4
				c-0.3,0.4-0.4,0.6-0.5,0.7c-0.6,0.6-1.2,0.8-2,0.8c-0.8,0-1.4-0.3-2-0.8s-0.8-1.2-0.8-2c0-0.8,0.3-1.5,0.8-2
				c0.6-0.6,1.2-0.8,2-0.8c0.7,0,1.3,0.2,1.8,0.6c0.1,0.1,0.2,0.1,0.2,0.2c0,0,0.1,0.1,0.3,0.3l-0.5,0.5L151.8,213.8z M153.5,210.6
				c-0.1-0.1-0.4-0.1-0.8-0.1c-0.5,0-0.9,0.2-1.3,0.5c-0.3,0.3-0.5,0.8-0.5,1.3c0,0.4,0,0.7,0.1,0.8L153.5,210.6z"/>
			<path class="st3" d="M156.4,209.8h1v0.5c0.2-0.5,0.6-0.8,1.1-0.8c0.6,0,0.9,0.3,1,0.9c0.2-0.6,0.6-0.9,1.3-0.9
				c0.7,0,1.1,0.4,1.1,1.3v4.1h-1v-3.6c0-0.5-0.2-0.8-0.6-0.8c-0.2,0-0.3,0.1-0.4,0.2s-0.2,0.5-0.2,1.2v3h-1l0-3.6
				c0-0.5-0.2-0.8-0.6-0.8c-0.2,0-0.3,0.1-0.4,0.2c-0.1,0.1-0.2,0.4-0.2,0.8v3.4h-1V209.8z"/>
			<path class="st3" d="M164.5,214.3v2.4h-1v-6.8h1v0.5c0.5-0.6,1.1-0.9,1.7-0.9c0.8,0,1.5,0.3,2,0.8c0.6,0.6,0.8,1.2,0.8,2
				c0,0.8-0.3,1.5-0.8,2s-1.2,0.8-2,0.8C165.6,215.1,165,214.8,164.5,214.3z M164.5,211.8v0.8c0.1,0.3,0.2,0.6,0.5,0.9
				c0.3,0.3,0.8,0.5,1.3,0.5c0.5,0,0.9-0.2,1.3-0.5c0.3-0.3,0.5-0.8,0.5-1.3c0-0.5-0.2-0.9-0.5-1.3c-0.3-0.4-0.8-0.5-1.3-0.5
				c-0.5,0-0.9,0.2-1.3,0.5C164.8,211.2,164.6,211.5,164.5,211.8z"/>
			<path class="st3" d="M171.4,210.5c0.4-0.5,0.9-0.8,1.4-0.8v1.1c-0.4,0-0.7,0.1-0.9,0.4c-0.3,0.3-0.5,0.7-0.5,1.2v2.6h-1v-5.1h1
				L171.4,210.5L171.4,210.5z"/>
			<path class="st3" d="M175.4,213.8c0.2,0.2,0.5,0.2,0.9,0.2c0.5,0,0.9-0.2,1.3-0.5c0,0,0.1-0.1,0.3-0.3l1,0.4
				c-0.3,0.4-0.4,0.6-0.5,0.7c-0.6,0.6-1.2,0.8-2,0.8c-0.8,0-1.4-0.3-2-0.8c-0.6-0.6-0.8-1.2-0.8-2c0-0.8,0.3-1.5,0.8-2
				c0.6-0.6,1.2-0.8,2-0.8c0.7,0,1.3,0.2,1.8,0.6c0.1,0.1,0.2,0.1,0.2,0.2c0,0,0.1,0.1,0.3,0.3l-0.5,0.5L175.4,213.8z M177.1,210.6
				c-0.1-0.1-0.4-0.1-0.8-0.1c-0.5,0-0.9,0.2-1.3,0.5c-0.3,0.3-0.5,0.8-0.5,1.3c0,0.4,0,0.7,0.1,0.8L177.1,210.6z"/>
			<path class="st3" d="M181.1,213.8c0.1,0.1,0.3,0.2,0.4,0.2s0.3-0.1,0.4-0.2c0.1-0.1,0.2-0.3,0.2-0.4c0-0.2-0.1-0.3-0.2-0.4
				c-0.1-0.1-0.3-0.2-0.5-0.4c-0.4-0.2-0.6-0.4-0.8-0.5c-0.3-0.3-0.4-0.6-0.4-1c0-0.4,0.1-0.7,0.4-1c0.3-0.3,0.6-0.4,1-0.4
				s0.7,0.1,1,0.4c0.2,0.2,0.3,0.4,0.3,0.6l-1,0.3c0-0.1,0-0.1-0.1-0.2c-0.1-0.1-0.1-0.1-0.2-0.1s-0.2,0-0.3,0.1
				c-0.1,0.1-0.1,0.2-0.1,0.3c0,0.1,0,0.2,0.1,0.3c0.1,0.1,0.2,0.2,0.4,0.3c0.4,0.2,0.7,0.4,0.9,0.6c0.3,0.3,0.5,0.7,0.5,1.2
				c0,0.5-0.2,0.9-0.5,1.2c-0.3,0.3-0.7,0.5-1.2,0.5c-0.5,0-0.8-0.2-1.2-0.5c-0.2-0.2-0.4-0.5-0.4-0.8l1-0.2
				C181,213.7,181,213.8,181.1,213.8z"/>
			<path class="st3" d="M188.9,210.2v-0.4h1v5.1h-1v-0.6c-0.5,0.5-1.1,0.8-1.7,0.8c-0.8,0-1.5-0.3-2-0.8c-0.6-0.6-0.8-1.2-0.8-2
				c0-0.8,0.3-1.5,0.8-2c0.6-0.6,1.2-0.8,2-0.8C187.8,209.4,188.4,209.7,188.9,210.2z M188.9,212.6v-0.8c-0.1-0.3-0.2-0.6-0.5-0.9
				c-0.3-0.3-0.8-0.5-1.3-0.5c-0.5,0-0.9,0.2-1.3,0.5c-0.3,0.3-0.5,0.8-0.5,1.3c0,0.5,0.2,0.9,0.5,1.3c0.3,0.3,0.8,0.5,1.3,0.5
				c0.5,0,0.9-0.2,1.3-0.5C188.7,213.2,188.9,212.9,188.9,212.6z"/>
			<path class="st2" d="M170.8,230.9v2h-6.5l0-1.7c1.9-3.1,3.1-5.1,3.4-5.8c0.4-0.7,0.5-1.3,0.5-1.7c0-0.3-0.1-0.6-0.2-0.7
				c-0.1-0.2-0.3-0.2-0.5-0.2c-0.2,0-0.4,0.1-0.5,0.3c-0.1,0.2-0.2,0.5-0.2,1v1.1h-2.6v-0.4c0-0.7,0-1.2,0.1-1.6
				c0.1-0.4,0.2-0.8,0.5-1.1c0.3-0.4,0.6-0.6,1-0.8c0.4-0.2,0.9-0.3,1.5-0.3c1.2,0,2.1,0.3,2.7,0.9c0.6,0.6,0.9,1.3,0.9,2.2
				c0,0.7-0.2,1.4-0.5,2.1c-0.3,0.8-1.3,2.4-3,4.8L170.8,230.9L170.8,230.9z"/>
			<path class="st2" d="M178.7,221.1v7.7h0.8v2h-0.8v2.1h-2.9v-2.1h-3.5v-2l2.5-7.7H178.7z M175.7,228.8v-5l-1.3,5H175.7z"/>
			<path class="st2" d="M185,223.1v2c0,0.5-0.1,0.9-0.1,1.2c-0.1,0.3-0.3,0.5-0.6,0.7c-0.3,0.2-0.8,0.3-1.3,0.3
				c-0.6,0-1.1-0.1-1.4-0.3c-0.3-0.2-0.5-0.4-0.7-0.7c-0.1-0.3-0.2-0.6-0.2-1.1v-2.1c0-0.6,0.1-1,0.2-1.3c0.1-0.3,0.3-0.5,0.7-0.7
				c0.3-0.2,0.8-0.3,1.3-0.3c0.6,0,1,0.1,1.4,0.3c0.3,0.2,0.6,0.4,0.7,0.7C184.9,222.1,185,222.5,185,223.1z M183.1,222.6
				c0-0.3,0-0.5,0-0.6c0-0.1-0.1-0.1-0.3-0.1c-0.1,0-0.2,0-0.3,0.1c0,0.1-0.1,0.3-0.1,0.6v3c0,0.3,0,0.5,0.1,0.6
				c0,0.1,0.1,0.1,0.3,0.1c0.1,0,0.2,0,0.2-0.1c0-0.1,0.1-0.3,0.1-0.5L183.1,222.6L183.1,222.6z M188.4,220.8l-4.6,12.3h-1.1
				l4.6-12.3H188.4z M190.4,228.8v2c0,0.5-0.1,0.9-0.1,1.2s-0.3,0.5-0.6,0.7c-0.3,0.2-0.8,0.3-1.3,0.3c-0.6,0-1.1-0.1-1.4-0.3
				c-0.3-0.2-0.6-0.4-0.7-0.7c-0.1-0.3-0.2-0.6-0.2-1.1v-2.1c0-0.6,0.1-1,0.2-1.3c0.1-0.3,0.4-0.5,0.7-0.7c0.3-0.2,0.8-0.3,1.3-0.3
				c0.6,0,1,0.1,1.4,0.3c0.3,0.2,0.6,0.4,0.7,0.7C190.4,227.8,190.4,228.2,190.4,228.8z M188.6,228.3c0-0.3,0-0.5,0-0.6
				c0-0.1-0.1-0.1-0.3-0.1c-0.1,0-0.2,0-0.3,0.1c0,0.1-0.1,0.3-0.1,0.6v3c0,0.3,0,0.5,0.1,0.6c0,0.1,0.1,0.1,0.3,0.1
				c0.1,0,0.2,0,0.2-0.1c0-0.1,0.1-0.3,0.1-0.6V228.3z"/>
			<path class="st3" d="M174.3,197.2c0.8,0,1.5,0.3,2,0.8c0.6,0.6,0.8,1.2,0.8,2c0,0.8-0.3,1.5-0.8,2c-0.6,0.6-1.2,0.8-2,0.8
				c-0.8,0-1.4-0.3-2-0.8c-0.6-0.6-0.8-1.2-0.8-2c0-0.8,0.3-1.5,0.8-2C172.9,197.5,173.5,197.2,174.3,197.2z M173,198.8
				c-0.3,0.3-0.5,0.8-0.5,1.3c0,0.5,0.2,0.9,0.5,1.3c0.3,0.3,0.8,0.5,1.3,0.5c0.5,0,0.9-0.2,1.3-0.5c0.3-0.3,0.5-0.8,0.5-1.3
				c0-0.5-0.2-0.9-0.5-1.3s-0.8-0.5-1.3-0.5C173.8,198.3,173.4,198.5,173,198.8z"/>
		</g>
	</g>
	<g>
		<g>
			<path class="st3" d="M69.5,249.1h0.9l3.3,5.7v-5.7h1v8h-0.9l-3.3-5.8v5.8h-1C69.5,257.1,69.5,249.1,69.5,249.1z"/>
			<path class="st3" d="M78.8,251.6c0.8,0,1.5,0.3,2,0.8c0.6,0.6,0.8,1.2,0.8,2c0,0.8-0.3,1.5-0.8,2c-0.6,0.6-1.2,0.8-2,0.8
				c-0.8,0-1.4-0.3-2-0.8c-0.6-0.6-0.8-1.2-0.8-2c0-0.8,0.3-1.5,0.8-2C77.3,251.8,78,251.6,78.8,251.6z M77.5,253.1
				c-0.3,0.4-0.5,0.8-0.5,1.3c0,0.5,0.2,0.9,0.5,1.3c0.3,0.3,0.8,0.5,1.3,0.5c0.5,0,0.9-0.2,1.3-0.5c0.3-0.3,0.5-0.8,0.5-1.3
				c0-0.5-0.2-0.9-0.5-1.3c-0.3-0.3-0.8-0.5-1.3-0.5C78.3,252.6,77.8,252.8,77.5,253.1z"/>
			<path class="st3" d="M87.3,256c0.1,0.1,0.3,0.2,0.4,0.2c0.2,0,0.3-0.1,0.4-0.2c0.1-0.1,0.2-0.3,0.2-0.4c0-0.2-0.1-0.3-0.2-0.4
				c-0.1-0.1-0.3-0.2-0.5-0.4c-0.4-0.2-0.6-0.4-0.8-0.5c-0.3-0.3-0.4-0.6-0.4-1c0-0.4,0.1-0.7,0.4-1c0.3-0.3,0.6-0.4,1-0.4
				s0.7,0.1,1,0.4c0.2,0.2,0.3,0.4,0.3,0.6l-1,0.3c0-0.1,0-0.1-0.1-0.2c-0.1-0.1-0.1-0.1-0.2-0.1s-0.2,0-0.3,0.1
				c-0.1,0.1-0.1,0.2-0.1,0.3c0,0.1,0,0.2,0.1,0.3c0.1,0.1,0.2,0.2,0.4,0.3c0.4,0.2,0.7,0.4,0.9,0.6c0.3,0.3,0.5,0.7,0.5,1.2
				c0,0.5-0.2,0.9-0.5,1.2c-0.3,0.3-0.7,0.5-1.2,0.5c-0.5,0-0.8-0.2-1.2-0.5c-0.2-0.2-0.4-0.5-0.4-0.8l1-0.2
				C87.2,255.8,87.3,255.9,87.3,256z"/>
			<path class="st3" d="M95.1,252.3V252h1v5.1h-1v-0.6c-0.5,0.5-1.1,0.8-1.7,0.8c-0.8,0-1.5-0.3-2-0.8c-0.6-0.6-0.8-1.2-0.8-2
				c0-0.8,0.3-1.5,0.8-2c0.6-0.6,1.2-0.8,2-0.8C94.1,251.6,94.6,251.8,95.1,252.3z M95.1,254.8V254c-0.1-0.3-0.2-0.6-0.5-0.9
				c-0.3-0.3-0.8-0.5-1.3-0.5c-0.5,0-0.9,0.2-1.3,0.5c-0.3,0.3-0.5,0.8-0.5,1.3c0,0.5,0.2,0.9,0.5,1.3c0.3,0.3,0.8,0.5,1.3,0.5
				c0.5,0,0.9-0.2,1.3-0.5C94.9,255.4,95.1,255.1,95.1,254.8z"/>
			<path class="st3" d="M98.7,256.5v0.6h-1v-8h1v3.2c0.5-0.5,1.1-0.8,1.7-0.8c0.8,0,1.5,0.3,2,0.8c0.6,0.6,0.8,1.2,0.8,2
				c0,0.8-0.3,1.5-0.8,2c-0.6,0.6-1.2,0.8-2,0.8C99.8,257.2,99.2,257,98.7,256.5z M98.7,254v0.8c0.1,0.3,0.2,0.6,0.5,0.9
				c0.3,0.3,0.8,0.5,1.3,0.5c0.5,0,0.9-0.2,1.3-0.5s0.5-0.8,0.5-1.3c0-0.5-0.2-0.9-0.5-1.3c-0.3-0.3-0.8-0.5-1.3-0.5
				c-0.5,0-0.9,0.2-1.3,0.5C99,253.4,98.8,253.7,98.7,254z"/>
			<path class="st3" d="M106.3,256c0.2,0.2,0.5,0.2,0.9,0.2c0.5,0,0.9-0.2,1.3-0.5c0,0,0.1-0.1,0.3-0.3l1,0.4
				c-0.3,0.3-0.4,0.6-0.5,0.7c-0.6,0.6-1.2,0.8-2,0.8c-0.8,0-1.4-0.3-2-0.8c-0.6-0.6-0.8-1.2-0.8-2c0-0.8,0.3-1.5,0.8-2
				c0.6-0.6,1.2-0.8,2-0.8c0.7,0,1.3,0.2,1.8,0.6c0.1,0.1,0.2,0.1,0.2,0.2c0,0,0.1,0.1,0.3,0.3l-0.5,0.5L106.3,256z M108,252.8
				c-0.1-0.1-0.4-0.1-0.8-0.1c-0.5,0-0.9,0.2-1.3,0.5c-0.3,0.3-0.5,0.8-0.5,1.3c0,0.4,0,0.7,0.1,0.8L108,252.8z"/>
			<path class="st3" d="M118.5,255.4l1,0.4c-0.3,0.4-0.4,0.6-0.5,0.7c-0.6,0.6-1.2,0.8-2,0.8c-0.8,0-1.4-0.3-2-0.8
				c-0.6-0.6-0.8-1.2-0.8-2c0-0.8,0.3-1.5,0.8-2c0.6-0.6,1.2-0.8,2-0.8c0.8,0,1.5,0.3,2,0.8c0.1,0.1,0.3,0.3,0.5,0.7l-1,0.4
				c-0.1-0.2-0.2-0.3-0.3-0.3c-0.3-0.3-0.8-0.5-1.3-0.5c-0.5,0-0.9,0.2-1.3,0.5c-0.3,0.3-0.5,0.8-0.5,1.3c0,0.5,0.2,0.9,0.5,1.3
				c0.3,0.3,0.8,0.5,1.3,0.5c0.5,0,0.9-0.2,1.3-0.5C118.3,255.6,118.4,255.5,118.5,255.4z"/>
			<path class="st3" d="M123.3,251.6c0.8,0,1.5,0.3,2,0.8c0.6,0.6,0.8,1.2,0.8,2c0,0.8-0.3,1.5-0.8,2c-0.6,0.6-1.2,0.8-2,0.8
				c-0.8,0-1.4-0.3-2-0.8c-0.6-0.6-0.8-1.2-0.8-2c0-0.8,0.3-1.5,0.8-2C121.9,251.8,122.5,251.6,123.3,251.6z M122,253.1
				c-0.3,0.4-0.5,0.8-0.5,1.3c0,0.5,0.2,0.9,0.5,1.3c0.3,0.3,0.8,0.5,1.3,0.5c0.5,0,0.9-0.2,1.3-0.5c0.3-0.3,0.5-0.8,0.5-1.3
				c0-0.5-0.2-0.9-0.5-1.3c-0.3-0.3-0.8-0.5-1.3-0.5C122.8,252.6,122.4,252.8,122,253.1z M123.6,250.1h1.3l-1.4,1.4h-1L123.6,250.1z
				"/>
			<path class="st3" d="M127.3,252h1v0.5c0.2-0.5,0.6-0.8,1.1-0.8c0.6,0,0.9,0.3,1,0.9c0.2-0.6,0.6-0.9,1.3-0.9
				c0.7,0,1.1,0.4,1.1,1.3v4.1h-1v-3.6c0-0.5-0.2-0.8-0.6-0.8c-0.2,0-0.3,0.1-0.4,0.2s-0.2,0.5-0.2,1.2v3h-1l0-3.6
				c0-0.5-0.2-0.8-0.6-0.8c-0.2,0-0.3,0.1-0.4,0.2c-0.1,0.1-0.2,0.4-0.2,0.8v3.4h-1L127.3,252L127.3,252z"/>
			<path class="st3" d="M136.9,251.6c0.8,0,1.5,0.3,2,0.8c0.6,0.6,0.8,1.2,0.8,2c0,0.8-0.3,1.5-0.8,2c-0.6,0.6-1.2,0.8-2,0.8
				c-0.8,0-1.4-0.3-2-0.8s-0.8-1.2-0.8-2c0-0.8,0.3-1.5,0.8-2C135.5,251.8,136.2,251.6,136.9,251.6z M135.7,253.1
				c-0.3,0.4-0.5,0.8-0.5,1.3c0,0.5,0.2,0.9,0.5,1.3c0.3,0.3,0.8,0.5,1.3,0.5s0.9-0.2,1.3-0.5c0.3-0.3,0.5-0.8,0.5-1.3
				c0-0.5-0.2-0.9-0.5-1.3c-0.3-0.3-0.8-0.5-1.3-0.5C136.4,252.6,136,252.8,135.7,253.1z"/>
			<path class="st3" d="M148.5,255.4l1,0.4c-0.3,0.4-0.4,0.6-0.5,0.7c-0.6,0.6-1.2,0.8-2,0.8c-0.8,0-1.4-0.3-2-0.8
				c-0.6-0.6-0.8-1.2-0.8-2c0-0.8,0.3-1.5,0.8-2c0.6-0.6,1.2-0.8,2-0.8c0.8,0,1.5,0.3,2,0.8c0.1,0.1,0.3,0.3,0.5,0.7l-1,0.4
				c-0.1-0.2-0.2-0.3-0.3-0.3c-0.3-0.3-0.8-0.5-1.3-0.5c-0.5,0-0.9,0.2-1.3,0.5c-0.3,0.3-0.5,0.8-0.5,1.3c0,0.5,0.2,0.9,0.5,1.3
				c0.3,0.3,0.8,0.5,1.3,0.5c0.5,0,0.9-0.2,1.3-0.5C148.3,255.6,148.4,255.5,148.5,255.4z"/>
			<path class="st3" d="M153.3,251.6c0.8,0,1.5,0.3,2,0.8c0.6,0.6,0.8,1.2,0.8,2c0,0.8-0.3,1.5-0.8,2c-0.6,0.6-1.2,0.8-2,0.8
				c-0.8,0-1.4-0.3-2-0.8c-0.6-0.6-0.8-1.2-0.8-2c0-0.8,0.3-1.5,0.8-2C151.9,251.8,152.5,251.6,153.3,251.6z M152.1,253.1
				c-0.3,0.4-0.5,0.8-0.5,1.3c0,0.5,0.2,0.9,0.5,1.3c0.3,0.3,0.8,0.5,1.3,0.5s0.9-0.2,1.3-0.5c0.3-0.3,0.5-0.8,0.5-1.3
				c0-0.5-0.2-0.9-0.5-1.3c-0.3-0.3-0.8-0.5-1.3-0.5C152.8,252.6,152.4,252.8,152.1,253.1z"/>
			<path class="st3" d="M158.4,253.4v3.8h-1V252h1v0.6c0.2-0.6,0.6-0.9,1.3-0.9c0.6,0,1,0.2,1.3,0.6s0.5,0.9,0.5,1.5v3.3h-1v-3.3
				c0-0.3-0.1-0.5-0.3-0.8c-0.2-0.2-0.5-0.3-0.8-0.3c-0.3,0-0.6,0.1-0.8,0.3C158.5,253.2,158.4,253.3,158.4,253.4z"/>
			<path class="st3" d="M163.6,252v-1.9h1v1.9h0.9v1h-0.9v4.1h-1V253h-0.9v-1H163.6z"/>
			<path class="st3" d="M167.8,252.7c0.4-0.5,0.9-0.8,1.4-0.8v1.1c-0.4,0-0.7,0.1-0.9,0.4c-0.3,0.3-0.5,0.7-0.5,1.2v2.6h-1V252h1
				L167.8,252.7L167.8,252.7z"/>
			<path class="st3" d="M174.7,252.3V252h1v5.1h-1v-0.6c-0.5,0.5-1.1,0.8-1.7,0.8c-0.8,0-1.5-0.3-2-0.8c-0.6-0.6-0.8-1.2-0.8-2
				c0-0.8,0.3-1.5,0.8-2c0.6-0.6,1.2-0.8,2-0.8C173.6,251.6,174.2,251.8,174.7,252.3z M174.7,254.8V254c-0.1-0.3-0.2-0.6-0.5-0.9
				c-0.3-0.3-0.8-0.5-1.3-0.5c-0.5,0-0.9,0.2-1.3,0.5s-0.5,0.8-0.5,1.3c0,0.5,0.2,0.9,0.5,1.3c0.3,0.3,0.8,0.5,1.3,0.5
				c0.5,0,0.9-0.2,1.3-0.5C174.5,255.4,174.6,255.1,174.7,254.8z"/>
			<path class="st3" d="M177.9,252v-1.9h1v1.9h0.9v1h-0.9v4.1h-1V253h-0.9v-1H177.9z"/>
			<path class="st3" d="M185.5,252.3V252h1v5.1h-1v-0.6c-0.5,0.5-1.1,0.8-1.7,0.8c-0.8,0-1.5-0.3-2-0.8c-0.6-0.6-0.8-1.2-0.8-2
				c0-0.8,0.3-1.5,0.8-2c0.6-0.6,1.2-0.8,2-0.8C184.4,251.6,185,251.8,185.5,252.3z M185.5,254.8V254c-0.1-0.3-0.2-0.6-0.5-0.9
				c-0.4-0.3-0.8-0.5-1.3-0.5c-0.5,0-0.9,0.2-1.3,0.5c-0.3,0.3-0.5,0.8-0.5,1.3c0,0.5,0.2,0.9,0.5,1.3c0.3,0.3,0.8,0.5,1.3,0.5
				c0.5,0,0.9-0.2,1.3-0.5C185.2,255.4,185.4,255.1,185.5,254.8z"/>
			<path class="st3" d="M189,252.7c0.4-0.5,0.9-0.8,1.4-0.8v1.1c-0.4,0-0.7,0.1-0.9,0.4c-0.3,0.3-0.5,0.7-0.5,1.2v2.6h-1V252h1
				L189,252.7L189,252.7z"/>
			<path class="st3" d="M54.3,268.7v2.4h-1v-6.9h1v0.5c0.5-0.6,1.1-0.9,1.7-0.9c0.8,0,1.5,0.3,2,0.8s0.8,1.2,0.8,2
				c0,0.8-0.3,1.5-0.8,2c-0.6,0.6-1.2,0.8-2,0.8C55.4,269.5,54.8,269.2,54.3,268.7z M54.3,266.2v0.8c0.1,0.3,0.2,0.6,0.5,0.9
				c0.3,0.3,0.8,0.5,1.3,0.5c0.5,0,0.9-0.2,1.3-0.5c0.3-0.3,0.5-0.8,0.5-1.3c0-0.5-0.2-0.9-0.5-1.3c-0.3-0.3-0.8-0.5-1.3-0.5
				c-0.5,0-0.9,0.2-1.3,0.5C54.6,265.6,54.4,265.9,54.3,266.2z"/>
			<path class="st3" d="M61.7,268.2c0.2,0.2,0.5,0.2,0.9,0.2c0.5,0,0.9-0.2,1.3-0.5c0,0,0.1-0.1,0.3-0.3l1,0.4
				c-0.3,0.4-0.4,0.6-0.5,0.7c-0.6,0.6-1.2,0.8-2,0.8c-0.8,0-1.4-0.3-2-0.8c-0.6-0.6-0.8-1.2-0.8-2c0-0.8,0.3-1.5,0.8-2
				c0.6-0.6,1.2-0.8,2-0.8c0.7,0,1.3,0.2,1.8,0.6c0.1,0.1,0.2,0.1,0.2,0.2c0,0,0.1,0.1,0.3,0.3l-0.5,0.5L61.7,268.2z M63.5,265
				c-0.1-0.1-0.4-0.1-0.8-0.1c-0.5,0-0.9,0.2-1.3,0.5c-0.3,0.3-0.5,0.8-0.5,1.3c0,0.4,0,0.7,0.1,0.8L63.5,265z"/>
			<path class="st3" d="M67.5,264.9c0.4-0.5,0.9-0.8,1.4-0.8v1.1c-0.4,0-0.7,0.1-0.9,0.4c-0.3,0.3-0.5,0.7-0.5,1.2v2.6h-1v-5.1h1
				L67.5,264.9L67.5,264.9z"/>
			<path class="st3" d="M71,268.2c0.1,0.1,0.3,0.2,0.4,0.2c0.2,0,0.3-0.1,0.4-0.2c0.1-0.1,0.2-0.3,0.2-0.4c0-0.2-0.1-0.3-0.2-0.4
				c-0.1-0.1-0.3-0.2-0.5-0.4c-0.4-0.2-0.6-0.4-0.8-0.5c-0.3-0.3-0.4-0.6-0.4-1c0-0.4,0.1-0.7,0.4-1c0.3-0.3,0.6-0.4,1-0.4
				s0.7,0.1,1,0.4c0.2,0.2,0.3,0.4,0.3,0.6l-1,0.3c0-0.1,0-0.1-0.1-0.2c-0.1-0.1-0.1-0.1-0.2-0.1s-0.2,0-0.3,0.1
				c-0.1,0.1-0.1,0.2-0.1,0.3s0,0.2,0.1,0.3c0.1,0.1,0.2,0.2,0.4,0.3c0.4,0.2,0.7,0.4,0.9,0.6c0.3,0.3,0.5,0.7,0.5,1.2
				c0,0.5-0.2,0.9-0.5,1.2c-0.3,0.3-0.7,0.5-1.2,0.5c-0.5,0-0.8-0.2-1.2-0.5c-0.2-0.2-0.4-0.5-0.4-0.8l1-0.2
				C70.9,268.1,71,268.2,71,268.2z"/>
			<path class="st3" d="M76.9,263.8c0.8,0,1.5,0.3,2,0.8c0.6,0.6,0.8,1.2,0.8,2s-0.3,1.5-0.8,2s-1.2,0.8-2,0.8c-0.8,0-1.4-0.3-2-0.8
				c-0.6-0.6-0.8-1.2-0.8-2s0.3-1.5,0.8-2C75.5,264.1,76.1,263.8,76.9,263.8z M75.7,265.4c-0.3,0.4-0.5,0.8-0.5,1.3
				c0,0.5,0.2,0.9,0.5,1.3s0.8,0.5,1.3,0.5s0.9-0.2,1.3-0.5s0.5-0.8,0.5-1.3c0-0.5-0.2-0.9-0.5-1.3c-0.3-0.3-0.8-0.5-1.3-0.5
				S76,265,75.7,265.4z"/>
			<path class="st3" d="M82,265.6v3.8h-1v-5.1h1v0.6c0.2-0.6,0.6-0.9,1.3-0.9c0.6,0,1,0.2,1.3,0.6s0.5,0.9,0.5,1.5v3.3h-1v-3.3
				c0-0.3-0.1-0.5-0.3-0.8c-0.2-0.2-0.5-0.3-0.8-0.3c-0.3,0-0.6,0.1-0.8,0.3C82.1,265.4,82,265.5,82,265.6z"/>
			<path class="st3" d="M91.1,264.6v-0.4h1v5.1h-1v-0.6c-0.5,0.5-1.1,0.8-1.7,0.8c-0.8,0-1.5-0.3-2-0.8c-0.6-0.6-0.8-1.2-0.8-2
				s0.3-1.5,0.8-2c0.6-0.6,1.2-0.8,2-0.8C90,263.8,90.6,264.1,91.1,264.6z M91.1,267v-0.8c-0.1-0.3-0.2-0.6-0.5-0.9
				c-0.3-0.3-0.8-0.5-1.3-0.5c-0.5,0-0.9,0.2-1.3,0.5c-0.3,0.3-0.5,0.8-0.5,1.3c0,0.5,0.2,0.9,0.5,1.3c0.3,0.3,0.8,0.5,1.3,0.5
				c0.5,0,0.9-0.2,1.3-0.5C90.8,267.6,91,267.4,91.1,267z"/>
			<path class="st3" d="M94.6,268.2c0.1,0.1,0.3,0.2,0.4,0.2c0.2,0,0.3-0.1,0.4-0.2c0.1-0.1,0.2-0.3,0.2-0.4c0-0.2-0.1-0.3-0.2-0.4
				c-0.1-0.1-0.3-0.2-0.5-0.4c-0.4-0.2-0.6-0.4-0.8-0.5c-0.3-0.3-0.4-0.6-0.4-1c0-0.4,0.1-0.7,0.4-1c0.3-0.3,0.6-0.4,1-0.4
				s0.7,0.1,1,0.4c0.2,0.2,0.3,0.4,0.3,0.6l-1,0.3c0-0.1,0-0.1-0.1-0.2c-0.1-0.1-0.1-0.1-0.2-0.1s-0.2,0-0.3,0.1
				c-0.1,0.1-0.1,0.2-0.1,0.3s0,0.2,0.1,0.3c0.1,0.1,0.2,0.2,0.4,0.3c0.4,0.2,0.7,0.4,0.9,0.6c0.3,0.3,0.5,0.7,0.5,1.2
				c0,0.5-0.2,0.9-0.5,1.2c-0.3,0.3-0.7,0.5-1.2,0.5c-0.5,0-0.8-0.2-1.2-0.5c-0.2-0.2-0.4-0.5-0.4-0.8l1-0.2
				C94.5,268.1,94.6,268.2,94.6,268.2z"/>
			<path class="st3" d="M103.1,268.2c0.2,0.2,0.5,0.2,0.9,0.2c0.5,0,0.9-0.2,1.3-0.5c0,0,0.1-0.1,0.3-0.3l1,0.4
				c-0.3,0.4-0.4,0.6-0.5,0.7c-0.6,0.6-1.2,0.8-2,0.8c-0.8,0-1.4-0.3-2-0.8c-0.6-0.6-0.8-1.2-0.8-2c0-0.8,0.3-1.5,0.8-2
				c0.6-0.6,1.2-0.8,2-0.8c0.7,0,1.3,0.2,1.8,0.6c0.1,0.1,0.2,0.1,0.2,0.2c0,0,0.1,0.1,0.3,0.3l-0.5,0.5L103.1,268.2z M104.8,265
				c-0.1-0.1-0.4-0.1-0.8-0.1c-0.5,0-0.9,0.2-1.3,0.5c-0.3,0.3-0.5,0.8-0.5,1.3c0,0.4,0,0.7,0.1,0.8L104.8,265z"/>
			<path class="st3" d="M108.8,265.6v3.8h-1v-5.1h1v0.6c0.2-0.6,0.6-0.9,1.3-0.9c0.6,0,1,0.2,1.3,0.6s0.5,0.9,0.5,1.5v3.3h-1v-3.3
				c0-0.3-0.1-0.5-0.3-0.8c-0.2-0.2-0.5-0.3-0.8-0.3c-0.3,0-0.6,0.1-0.8,0.3C109,265.4,108.9,265.5,108.8,265.6z"/>
			<path class="st3" d="M118.6,268.2c0.2,0.2,0.5,0.2,0.9,0.2c0.5,0,0.9-0.2,1.3-0.5c0,0,0.1-0.1,0.3-0.3l1,0.4
				c-0.3,0.4-0.4,0.6-0.5,0.7c-0.6,0.6-1.2,0.8-2,0.8c-0.8,0-1.4-0.3-2-0.8c-0.6-0.6-0.8-1.2-0.8-2c0-0.8,0.3-1.5,0.8-2
				c0.6-0.6,1.2-0.8,2-0.8c0.7,0,1.3,0.2,1.8,0.6c0.1,0.1,0.2,0.1,0.2,0.2c0,0,0.1,0.1,0.3,0.3l-0.5,0.5L118.6,268.2z M120.3,265
				c-0.1-0.1-0.4-0.1-0.8-0.1c-0.5,0-0.9,0.2-1.3,0.5c-0.3,0.3-0.5,0.8-0.5,1.3c0,0.4,0,0.7,0.1,0.8L120.3,265z"/>
			<path class="st3" d="M124.3,268.2c0.1,0.1,0.3,0.2,0.4,0.2c0.2,0,0.3-0.1,0.4-0.2c0.1-0.1,0.2-0.3,0.2-0.4c0-0.2-0.1-0.3-0.2-0.4
				c-0.1-0.1-0.3-0.2-0.5-0.4c-0.4-0.2-0.6-0.4-0.8-0.5c-0.3-0.3-0.4-0.6-0.4-1c0-0.4,0.1-0.7,0.4-1c0.3-0.3,0.6-0.4,1-0.4
				s0.7,0.1,1,0.4c0.2,0.2,0.3,0.4,0.3,0.6l-1,0.3c0-0.1,0-0.1-0.1-0.2c-0.1-0.1-0.1-0.1-0.2-0.1s-0.2,0-0.3,0.1
				c-0.1,0.1-0.1,0.2-0.1,0.3s0,0.2,0.1,0.3c0.1,0.1,0.2,0.2,0.4,0.3c0.4,0.2,0.7,0.4,0.9,0.6c0.3,0.3,0.5,0.7,0.5,1.2
				c0,0.5-0.2,0.9-0.5,1.2c-0.3,0.3-0.7,0.5-1.2,0.5c-0.5,0-0.8-0.2-1.2-0.5c-0.2-0.2-0.4-0.5-0.4-0.8l1-0.2
				C124.2,268.1,124.3,268.2,124.3,268.2z"/>
			<path class="st3" d="M128.4,264.2v-1.9h1v1.9h0.9v1h-0.9v4.1h-1v-4.1h-0.9v-1H128.4z"/>
			<path class="st3" d="M136,264.6v-0.4h1v5.1h-1v-0.6c-0.5,0.5-1.1,0.8-1.7,0.8c-0.8,0-1.5-0.3-2-0.8c-0.6-0.6-0.8-1.2-0.8-2
				s0.3-1.5,0.8-2c0.6-0.6,1.2-0.8,2-0.8C134.9,263.8,135.5,264.1,136,264.6z M136,267v-0.8c-0.1-0.3-0.2-0.6-0.5-0.9
				c-0.3-0.3-0.8-0.5-1.3-0.5c-0.5,0-0.9,0.2-1.3,0.5s-0.5,0.8-0.5,1.3c0,0.5,0.2,0.9,0.5,1.3s0.8,0.5,1.3,0.5
				c0.5,0,0.9-0.2,1.3-0.5C135.8,267.6,135.9,267.4,136,267z"/>
			<path class="st3" d="M146.1,267.6l1,0.4c-0.3,0.4-0.4,0.6-0.5,0.7c-0.6,0.6-1.2,0.8-2,0.8c-0.8,0-1.4-0.3-2-0.8
				c-0.6-0.6-0.8-1.2-0.8-2c0-0.8,0.3-1.5,0.8-2c0.6-0.6,1.2-0.8,2-0.8c0.8,0,1.5,0.3,2,0.8c0.1,0.1,0.3,0.3,0.5,0.7l-1,0.4
				c-0.1-0.2-0.2-0.3-0.3-0.3c-0.3-0.3-0.8-0.5-1.3-0.5c-0.5,0-0.9,0.2-1.3,0.5c-0.3,0.3-0.5,0.8-0.5,1.3c0,0.5,0.2,0.9,0.5,1.3
				c0.3,0.3,0.8,0.5,1.3,0.5c0.5,0,0.9-0.2,1.3-0.5C145.9,267.9,146,267.8,146.1,267.6z"/>
			<path class="st3" d="M150.9,263.8c0.8,0,1.5,0.3,2,0.8c0.6,0.6,0.8,1.2,0.8,2s-0.3,1.5-0.8,2s-1.2,0.8-2,0.8
				c-0.8,0-1.4-0.3-2-0.8c-0.6-0.6-0.8-1.2-0.8-2s0.3-1.5,0.8-2C149.4,264.1,150.1,263.8,150.9,263.8z M149.6,265.4
				c-0.3,0.4-0.5,0.8-0.5,1.3c0,0.5,0.2,0.9,0.5,1.3s0.8,0.5,1.3,0.5s0.9-0.2,1.3-0.5s0.5-0.8,0.5-1.3c0-0.5-0.2-0.9-0.5-1.3
				c-0.3-0.3-0.8-0.5-1.3-0.5S149.9,265,149.6,265.4z"/>
			<path class="st3" d="M155.9,265.6v3.8h-1v-5.1h1v0.6c0.2-0.6,0.6-0.9,1.3-0.9c0.6,0,1,0.2,1.3,0.6s0.5,0.9,0.5,1.5v3.3h-1v-3.3
				c0-0.3-0.1-0.5-0.3-0.8c-0.2-0.2-0.5-0.3-0.8-0.3c-0.3,0-0.6,0.1-0.8,0.3C156,265.4,156,265.5,155.9,265.6z"/>
			<path class="st3" d="M165,264.6v-3.2h1v8h-1v-0.6c-0.5,0.5-1.1,0.8-1.7,0.8c-0.8,0-1.5-0.3-2-0.8c-0.6-0.6-0.8-1.2-0.8-2
				s0.3-1.5,0.8-2s1.2-0.8,2-0.8C163.9,263.8,164.5,264.1,165,264.6z M165,267v-0.8c-0.1-0.3-0.2-0.6-0.5-0.9
				c-0.3-0.3-0.8-0.5-1.3-0.5s-0.9,0.2-1.3,0.5c-0.3,0.3-0.5,0.8-0.5,1.3c0,0.5,0.2,0.9,0.5,1.3s0.8,0.5,1.3,0.5s0.9-0.2,1.3-0.5
				C164.8,267.6,164.9,267.4,165,267z"/>
			<path class="st3" d="M168.6,262.3c0.1,0.1,0.2,0.3,0.2,0.5c0,0.2-0.1,0.4-0.2,0.5c-0.1,0.1-0.3,0.2-0.5,0.2
				c-0.2,0-0.4-0.1-0.5-0.2c-0.1-0.1-0.2-0.3-0.2-0.5c0-0.2,0.1-0.4,0.2-0.5c0.1-0.1,0.3-0.2,0.5-0.2
				C168.3,262.1,168.5,262.2,168.6,262.3z M168.6,264.2v5.1h-1v-5.1H168.6z"/>
			<path class="st3" d="M174.3,267.6l1,0.4c-0.3,0.4-0.4,0.6-0.5,0.7c-0.6,0.6-1.2,0.8-2,0.8c-0.8,0-1.4-0.3-2-0.8
				c-0.6-0.6-0.8-1.2-0.8-2c0-0.8,0.3-1.5,0.8-2c0.6-0.6,1.2-0.8,2-0.8c0.8,0,1.5,0.3,2,0.8c0.1,0.1,0.3,0.3,0.5,0.7l-1,0.4
				c-0.1-0.2-0.2-0.3-0.3-0.3c-0.3-0.3-0.8-0.5-1.3-0.5c-0.5,0-0.9,0.2-1.3,0.5c-0.3,0.3-0.5,0.8-0.5,1.3c0,0.5,0.2,0.9,0.5,1.3
				c0.3,0.3,0.8,0.5,1.3,0.5c0.5,0,0.9-0.2,1.3-0.5C174.1,267.9,174.2,267.8,174.3,267.6z"/>
			<path class="st3" d="M177.6,262.3c0.1,0.1,0.2,0.3,0.2,0.5c0,0.2-0.1,0.4-0.2,0.5c-0.1,0.1-0.3,0.2-0.5,0.2
				c-0.2,0-0.4-0.1-0.5-0.2c-0.1-0.1-0.2-0.3-0.2-0.5c0-0.2,0.1-0.4,0.2-0.5c0.1-0.1,0.3-0.2,0.5-0.2
				C177.3,262.1,177.5,262.2,177.6,262.3z M177.6,264.2v5.1h-1v-5.1H177.6z"/>
			<path class="st3" d="M181.7,263.8c0.8,0,1.5,0.3,2,0.8c0.6,0.6,0.8,1.2,0.8,2s-0.3,1.5-0.8,2c-0.6,0.6-1.2,0.8-2,0.8
				c-0.8,0-1.4-0.3-2-0.8s-0.8-1.2-0.8-2s0.3-1.5,0.8-2C180.3,264.1,181,263.8,181.7,263.8z M180.5,265.4c-0.3,0.4-0.5,0.8-0.5,1.3
				c0,0.5,0.2,0.9,0.5,1.3c0.3,0.3,0.8,0.5,1.3,0.5c0.5,0,0.9-0.2,1.3-0.5c0.3-0.3,0.5-0.8,0.5-1.3c0-0.5-0.2-0.9-0.5-1.3
				c-0.3-0.3-0.8-0.5-1.3-0.5C181.3,264.9,180.8,265,180.5,265.4z M182,262.3h1.3l-1.4,1.4h-1L182,262.3z"/>
			<path class="st3" d="M186.8,265.6v3.8h-1v-5.1h1v0.6c0.2-0.6,0.6-0.9,1.3-0.9c0.6,0,1,0.2,1.3,0.6c0.3,0.4,0.5,0.9,0.5,1.5v3.3
				h-1v-3.3c0-0.3-0.1-0.5-0.3-0.8s-0.5-0.3-0.8-0.3c-0.3,0-0.6,0.1-0.8,0.3C186.9,265.4,186.8,265.5,186.8,265.6z"/>
			<path class="st2" d="M172.4,285.3v2h-6.5l0-1.7c1.9-3.1,3.1-5.1,3.4-5.8c0.4-0.7,0.5-1.3,0.5-1.8c0-0.3-0.1-0.6-0.2-0.7
				c-0.1-0.2-0.3-0.2-0.5-0.2s-0.4,0.1-0.5,0.3c-0.1,0.2-0.2,0.5-0.2,1v1.1h-2.6v-0.4c0-0.7,0-1.2,0.1-1.6c0.1-0.4,0.2-0.8,0.5-1.1
				c0.3-0.4,0.6-0.6,1-0.8c0.4-0.2,0.9-0.3,1.5-0.3c1.2,0,2.1,0.3,2.7,0.9c0.6,0.6,0.9,1.3,0.9,2.2c0,0.7-0.2,1.4-0.5,2.1
				c-0.3,0.8-1.3,2.4-3,4.8H172.4L172.4,285.3z"/>
			<path class="st2" d="M179.5,275.5v2.6l-1.9,9.2h-2.9l2.1-9.7h-2.9v-2.1H179.5z"/>
			<path class="st2" d="M185,277.5v2c0,0.5-0.1,0.9-0.1,1.2c-0.1,0.3-0.3,0.5-0.6,0.7c-0.3,0.2-0.8,0.3-1.3,0.3
				c-0.6,0-1.1-0.1-1.4-0.3c-0.3-0.2-0.5-0.4-0.7-0.7c-0.1-0.3-0.2-0.6-0.2-1.1v-2.1c0-0.6,0.1-1,0.2-1.3c0.1-0.3,0.3-0.5,0.7-0.7
				c0.3-0.2,0.8-0.3,1.3-0.3c0.6,0,1,0.1,1.4,0.3c0.3,0.2,0.6,0.4,0.7,0.7C184.9,276.5,185,276.9,185,277.5z M183.1,277
				c0-0.3,0-0.5,0-0.6c0-0.1-0.1-0.1-0.3-0.1c-0.1,0-0.2,0-0.3,0.1c0,0.1-0.1,0.3-0.1,0.6v3c0,0.3,0,0.5,0.1,0.6
				c0,0.1,0.1,0.1,0.3,0.1c0.1,0,0.2,0,0.2-0.1c0-0.1,0.1-0.3,0.1-0.5L183.1,277L183.1,277z M188.4,275.2l-4.6,12.3h-1.1l4.6-12.3
				H188.4z M190.4,283.2v2c0,0.5-0.1,0.9-0.1,1.2c-0.1,0.3-0.3,0.5-0.6,0.7s-0.8,0.3-1.3,0.3c-0.6,0-1.1-0.1-1.4-0.3
				s-0.6-0.4-0.7-0.7c-0.1-0.3-0.2-0.6-0.2-1.1v-2.1c0-0.6,0.1-1,0.2-1.3c0.1-0.3,0.4-0.5,0.7-0.7c0.3-0.2,0.8-0.3,1.3-0.3
				c0.6,0,1,0.1,1.4,0.3c0.3,0.2,0.6,0.4,0.7,0.7C190.4,282.2,190.4,282.6,190.4,283.2z M188.6,282.7c0-0.3,0-0.5,0-0.6
				c0-0.1-0.1-0.1-0.3-0.1c-0.1,0-0.2,0-0.3,0.1c0,0.1-0.1,0.3-0.1,0.6v3c0,0.3,0,0.5,0.1,0.6c0,0.1,0.1,0.1,0.3,0.1
				c0.1,0,0.2,0,0.2-0.1c0-0.1,0.1-0.3,0.1-0.6V282.7z"/>
		</g>
	</g>
	<g>
		<g>
			<path class="st3" d="M81.5,299.5c1.3,0,2.3,0.4,3,1.1c0.8,0.8,1.2,1.8,1.2,2.9c0,1.1-0.4,2.1-1.2,2.9c-0.7,0.7-1.7,1.1-3,1.1
				h-0.8v-8L81.5,299.5L81.5,299.5z M81.8,300.5v5.9c0.8,0,1.5-0.3,2-0.8c0.6-0.6,0.9-1.3,0.9-2.1c0-0.8-0.3-1.6-0.9-2.1
				C83.3,300.8,82.6,300.5,81.8,300.5z"/>
			<path class="st3" d="M88.6,306.3c0.2,0.2,0.5,0.2,0.9,0.2c0.5,0,0.9-0.2,1.3-0.5c0,0,0.1-0.1,0.3-0.3l1,0.4
				c-0.3,0.3-0.4,0.6-0.5,0.7c-0.6,0.6-1.2,0.8-2,0.8c-0.8,0-1.4-0.3-2-0.8c-0.6-0.6-0.8-1.2-0.8-2s0.3-1.5,0.8-2s1.2-0.8,2-0.8
				c0.7,0,1.3,0.2,1.8,0.6c0.1,0.1,0.2,0.1,0.2,0.2c0,0,0.1,0.1,0.3,0.3l-0.5,0.5L88.6,306.3z M90.3,303.1c-0.1-0.1-0.4-0.1-0.8-0.1
				c-0.5,0-0.9,0.2-1.3,0.5c-0.3,0.3-0.5,0.8-0.5,1.3c0,0.4,0,0.7,0.1,0.8L90.3,303.1z"/>
			<path class="st3" d="M94.3,306.3c0.1,0.1,0.3,0.2,0.4,0.2c0.2,0,0.3-0.1,0.4-0.2c0.1-0.1,0.2-0.3,0.2-0.4c0-0.2-0.1-0.3-0.2-0.4
				c-0.1-0.1-0.3-0.2-0.5-0.4c-0.4-0.2-0.6-0.4-0.8-0.5c-0.3-0.3-0.4-0.6-0.4-1c0-0.4,0.1-0.7,0.4-1s0.6-0.4,1-0.4
				c0.4,0,0.7,0.1,1,0.4c0.2,0.2,0.3,0.4,0.3,0.6l-1,0.3c0-0.1,0-0.1-0.1-0.2c-0.1-0.1-0.1-0.1-0.2-0.1s-0.2,0-0.3,0.1
				s-0.1,0.2-0.1,0.3s0,0.2,0.1,0.3c0.1,0.1,0.2,0.2,0.4,0.3c0.4,0.2,0.7,0.4,0.9,0.6c0.3,0.3,0.5,0.7,0.5,1.2
				c0,0.5-0.2,0.9-0.5,1.2c-0.3,0.3-0.7,0.5-1.2,0.5c-0.5,0-0.8-0.2-1.2-0.5c-0.2-0.2-0.4-0.5-0.4-0.8l1-0.2
				C94.2,306.2,94.2,306.3,94.3,306.3z"/>
			<path class="st3" d="M101.7,305.7l1,0.4c-0.3,0.3-0.4,0.6-0.5,0.7c-0.6,0.6-1.2,0.8-2,0.8c-0.8,0-1.4-0.3-2-0.8
				c-0.6-0.6-0.8-1.2-0.8-2s0.3-1.5,0.8-2c0.6-0.6,1.2-0.8,2-0.8c0.8,0,1.5,0.3,2,0.8c0.1,0.1,0.3,0.3,0.5,0.7l-1,0.4
				c-0.1-0.2-0.2-0.3-0.3-0.3c-0.3-0.3-0.8-0.5-1.3-0.5c-0.5,0-0.9,0.2-1.3,0.5c-0.3,0.3-0.5,0.8-0.5,1.3c0,0.5,0.2,0.9,0.5,1.3
				s0.8,0.5,1.3,0.5c0.5,0,0.9-0.2,1.3-0.5C101.5,305.9,101.6,305.8,101.7,305.7z"/>
			<path class="st3" d="M106.5,301.9c0.8,0,1.5,0.3,2,0.8c0.6,0.6,0.8,1.2,0.8,2c0,0.8-0.3,1.5-0.8,2c-0.6,0.6-1.2,0.8-2,0.8
				c-0.8,0-1.4-0.3-2-0.8c-0.6-0.6-0.8-1.2-0.8-2c0-0.8,0.3-1.5,0.8-2C105,302.2,105.7,301.9,106.5,301.9z M105.2,303.5
				c-0.3,0.3-0.5,0.8-0.5,1.3c0,0.5,0.2,0.9,0.5,1.3c0.3,0.3,0.8,0.5,1.3,0.5s0.9-0.2,1.3-0.5c0.3-0.3,0.5-0.8,0.5-1.3
				c0-0.5-0.2-0.9-0.5-1.3c-0.3-0.4-0.8-0.5-1.3-0.5S105.5,303.1,105.2,303.5z"/>
			<path class="st3" d="M111.5,303.7v3.8h-1v-5.1h1v0.6c0.2-0.6,0.6-0.9,1.3-0.9c0.6,0,1,0.2,1.3,0.6s0.5,0.9,0.5,1.5v3.3h-1v-3.3
				c0-0.3-0.1-0.5-0.3-0.8c-0.2-0.2-0.5-0.3-0.8-0.3c-0.3,0-0.6,0.1-0.8,0.3C111.6,303.5,111.6,303.6,111.5,303.7z"/>
			<path class="st3" d="M118.7,301.9c0.8,0,1.5,0.3,2,0.8c0.6,0.6,0.8,1.2,0.8,2c0,0.8-0.3,1.5-0.8,2c-0.6,0.6-1.2,0.8-2,0.8
				c-0.8,0-1.4-0.3-2-0.8c-0.6-0.6-0.8-1.2-0.8-2c0-0.8,0.3-1.5,0.8-2C117.2,302.2,117.9,301.9,118.7,301.9z M117.4,303.5
				c-0.3,0.3-0.5,0.8-0.5,1.3c0,0.5,0.2,0.9,0.5,1.3c0.3,0.3,0.8,0.5,1.3,0.5c0.5,0,0.9-0.2,1.3-0.5c0.3-0.3,0.5-0.8,0.5-1.3
				c0-0.5-0.2-0.9-0.5-1.3c-0.3-0.4-0.8-0.5-1.3-0.5C118.2,303,117.8,303.1,117.4,303.5z"/>
			<path class="st3" d="M126.8,305.7l1,0.4c-0.3,0.3-0.4,0.6-0.5,0.7c-0.6,0.6-1.2,0.8-2,0.8c-0.8,0-1.4-0.3-2-0.8
				c-0.6-0.6-0.8-1.2-0.8-2s0.3-1.5,0.8-2c0.6-0.6,1.2-0.8,2-0.8c0.8,0,1.5,0.3,2,0.8c0.1,0.1,0.3,0.3,0.5,0.7l-1,0.4
				c-0.1-0.2-0.2-0.3-0.3-0.3c-0.3-0.3-0.8-0.5-1.3-0.5c-0.5,0-0.9,0.2-1.3,0.5c-0.3,0.3-0.5,0.8-0.5,1.3c0,0.5,0.2,0.9,0.5,1.3
				c0.3,0.3,0.8,0.5,1.3,0.5c0.5,0,0.9-0.2,1.3-0.5C126.6,305.9,126.7,305.8,126.8,305.7z"/>
			<path class="st3" d="M130.6,306.3c0.2,0.2,0.5,0.2,0.9,0.2c0.5,0,0.9-0.2,1.3-0.5c0,0,0.1-0.1,0.3-0.3l1,0.4
				c-0.3,0.3-0.4,0.6-0.5,0.7c-0.6,0.6-1.2,0.8-2,0.8c-0.8,0-1.4-0.3-2-0.8c-0.6-0.6-0.8-1.2-0.8-2s0.3-1.5,0.8-2
				c0.6-0.6,1.2-0.8,2-0.8c0.7,0,1.3,0.2,1.8,0.6c0.1,0.1,0.2,0.1,0.2,0.2c0,0,0.1,0.1,0.3,0.3l-0.5,0.5L130.6,306.3z M132.3,303.1
				c-0.1-0.1-0.4-0.1-0.8-0.1c-0.5,0-0.9,0.2-1.3,0.5c-0.3,0.3-0.5,0.8-0.5,1.3c0,0.4,0,0.7,0.1,0.8L132.3,303.1z"/>
			<path class="st3" d="M139.9,306.8v2.4h-1v-6.8h1v0.5c0.5-0.6,1.1-0.9,1.7-0.9c0.8,0,1.5,0.3,2,0.8c0.6,0.6,0.8,1.2,0.8,2
				s-0.3,1.5-0.8,2c-0.6,0.6-1.2,0.8-2,0.8C140.9,307.6,140.4,307.3,139.9,306.8z M139.9,304.3v0.8c0.1,0.3,0.2,0.6,0.5,0.9
				c0.3,0.3,0.8,0.5,1.3,0.5c0.5,0,0.9-0.2,1.3-0.5c0.3-0.3,0.5-0.8,0.5-1.3c0-0.5-0.2-0.9-0.5-1.3c-0.3-0.4-0.8-0.5-1.3-0.5
				c-0.5,0-0.9,0.2-1.3,0.5C140.1,303.7,139.9,304,139.9,304.3z"/>
			<path class="st3" d="M146.7,303c0.4-0.5,0.9-0.8,1.4-0.8v1.1c-0.4,0-0.7,0.1-0.9,0.4c-0.3,0.3-0.5,0.7-0.5,1.2v2.6h-1v-5.1h1
				L146.7,303L146.7,303z"/>
			<path class="st3" d="M151.6,301.9c0.8,0,1.5,0.3,2,0.8c0.6,0.6,0.8,1.2,0.8,2c0,0.8-0.3,1.5-0.8,2c-0.6,0.6-1.2,0.8-2,0.8
				c-0.8,0-1.4-0.3-2-0.8c-0.6-0.6-0.8-1.2-0.8-2c0-0.8,0.3-1.5,0.8-2C150.1,302.2,150.8,301.9,151.6,301.9z M150.3,303.5
				c-0.3,0.3-0.5,0.8-0.5,1.3c0,0.5,0.2,0.9,0.5,1.3c0.3,0.3,0.8,0.5,1.3,0.5s0.9-0.2,1.3-0.5c0.3-0.3,0.5-0.8,0.5-1.3
				c0-0.5-0.2-0.9-0.5-1.3c-0.3-0.4-0.8-0.5-1.3-0.5C151.1,303,150.6,303.1,150.3,303.5z"/>
			<path class="st3" d="M160,302.7v-0.4h1v3.8c0,1-0.3,1.8-0.8,2.3c-0.6,0.5-1.2,0.7-2,0.7c-0.8,0-1.5-0.2-2-0.7
				c-0.1-0.1-0.3-0.3-0.5-0.7l1-0.4c0.1,0.2,0.2,0.3,0.3,0.3c0.3,0.3,0.8,0.5,1.3,0.5c0.8,0,1.4-0.5,1.7-1.6
				c-0.3,0.6-0.9,0.9-1.7,0.9c-0.8,0-1.5-0.3-2-0.8c-0.6-0.5-0.8-1.2-0.8-2c0-0.8,0.3-1.5,0.8-2s1.2-0.8,2-0.8
				C159,301.9,159.5,302.1,160,302.7z M160,304.3c-0.1-0.3-0.2-0.6-0.5-0.9c-0.3-0.3-0.8-0.5-1.3-0.5c-0.5,0-0.9,0.2-1.3,0.5
				c-0.3,0.4-0.5,0.8-0.5,1.3c0,0.5,0.2,0.9,0.5,1.3c0.3,0.3,0.8,0.5,1.3,0.5c0.5,0,0.9-0.2,1.3-0.5c0.3-0.3,0.4-0.5,0.5-0.8V304.3z
				"/>
			<path class="st3" d="M163.6,303c0.4-0.5,0.9-0.8,1.4-0.8v1.1c-0.4,0-0.7,0.1-0.9,0.4c-0.3,0.3-0.5,0.7-0.5,1.2v2.6h-1v-5.1h1
				L163.6,303L163.6,303z"/>
			<path class="st3" d="M170.5,302.7v-0.4h1v5.1h-1v-0.6c-0.5,0.5-1.1,0.8-1.7,0.8c-0.8,0-1.5-0.3-2-0.8c-0.6-0.6-0.8-1.2-0.8-2
				s0.3-1.5,0.8-2c0.6-0.6,1.2-0.8,2-0.8C169.4,301.9,170,302.2,170.5,302.7z M170.5,305.1v-0.8c-0.1-0.3-0.2-0.6-0.5-0.9
				c-0.3-0.3-0.8-0.5-1.3-0.5c-0.5,0-0.9,0.2-1.3,0.5c-0.3,0.3-0.5,0.8-0.5,1.3c0,0.5,0.2,0.9,0.5,1.3c0.3,0.3,0.8,0.5,1.3,0.5
				c0.5,0,0.9-0.2,1.3-0.5C170.3,305.7,170.4,305.4,170.5,305.1z"/>
			<path class="st3" d="M173,302.3h1v0.5c0.2-0.5,0.6-0.8,1.1-0.8c0.6,0,0.9,0.3,1,0.9c0.2-0.6,0.6-0.9,1.3-0.9
				c0.7,0,1.1,0.4,1.1,1.3v4.1h-1v-3.6c0-0.5-0.2-0.8-0.6-0.8c-0.2,0-0.3,0.1-0.4,0.2c-0.1,0.1-0.2,0.5-0.2,1.2v3h-1l0-3.6
				c0-0.5-0.2-0.8-0.6-0.8c-0.2,0-0.3,0.1-0.4,0.2c-0.1,0.1-0.2,0.4-0.2,0.8v3.4h-1L173,302.3L173,302.3z"/>
			<path class="st3" d="M184.5,302.7v-0.4h1v5.1h-1v-0.6c-0.5,0.5-1.1,0.8-1.7,0.8c-0.8,0-1.5-0.3-2-0.8c-0.6-0.6-0.8-1.2-0.8-2
				s0.3-1.5,0.8-2c0.6-0.6,1.2-0.8,2-0.8C183.4,301.9,184,302.2,184.5,302.7z M184.5,305.1v-0.8c-0.1-0.3-0.2-0.6-0.5-0.9
				c-0.3-0.3-0.8-0.5-1.3-0.5c-0.5,0-0.9,0.2-1.3,0.5c-0.3,0.3-0.5,0.8-0.5,1.3c0,0.5,0.2,0.9,0.5,1.3c0.3,0.3,0.8,0.5,1.3,0.5
				c0.5,0,0.9-0.2,1.3-0.5C184.3,305.7,184.5,305.4,184.5,305.1z"/>
			<path class="st3" d="M188.1,306.3c0.1,0.1,0.3,0.2,0.4,0.2c0.2,0,0.3-0.1,0.4-0.2c0.1-0.1,0.2-0.3,0.2-0.4c0-0.2-0.1-0.3-0.2-0.4
				c-0.1-0.1-0.3-0.2-0.5-0.4c-0.4-0.2-0.6-0.4-0.8-0.5c-0.3-0.3-0.4-0.6-0.4-1c0-0.4,0.1-0.7,0.4-1s0.6-0.4,1-0.4
				c0.4,0,0.7,0.1,1,0.4c0.2,0.2,0.3,0.4,0.3,0.6l-1,0.3c0-0.1,0-0.1-0.1-0.2c-0.1-0.1-0.1-0.1-0.2-0.1s-0.2,0-0.3,0.1
				c-0.1,0.1-0.1,0.2-0.1,0.3s0,0.2,0.1,0.3c0.1,0.1,0.2,0.2,0.4,0.3c0.4,0.2,0.7,0.4,0.9,0.6c0.3,0.3,0.5,0.7,0.5,1.2
				c0,0.5-0.2,0.9-0.5,1.2c-0.3,0.3-0.7,0.5-1.2,0.5c-0.5,0-0.8-0.2-1.2-0.5c-0.2-0.2-0.4-0.5-0.4-0.8l1-0.2
				C188,306.2,188,306.3,188.1,306.3z"/>
			<path class="st3" d="M100.6,314.9v-0.4h1v3.8c0,1-0.3,1.8-0.8,2.3c-0.6,0.5-1.2,0.7-2,0.7c-0.8,0-1.5-0.2-2-0.7
				c-0.1-0.1-0.3-0.3-0.5-0.7l1-0.4c0.1,0.2,0.2,0.3,0.3,0.3c0.3,0.3,0.8,0.5,1.3,0.5c0.8,0,1.4-0.5,1.7-1.6
				c-0.3,0.6-0.9,0.9-1.7,0.9c-0.8,0-1.5-0.3-2-0.8c-0.6-0.5-0.8-1.2-0.8-2c0-0.8,0.3-1.5,0.8-2c0.6-0.6,1.2-0.8,2-0.8
				C99.5,314.1,100.1,314.4,100.6,314.9z M100.6,316.6c-0.1-0.3-0.2-0.6-0.5-0.9c-0.3-0.3-0.8-0.5-1.3-0.5c-0.5,0-0.9,0.2-1.3,0.5
				c-0.3,0.4-0.5,0.8-0.5,1.3c0,0.5,0.2,0.9,0.5,1.3c0.3,0.3,0.8,0.5,1.3,0.5c0.5,0,0.9-0.2,1.3-0.5c0.3-0.3,0.4-0.5,0.5-0.8V316.6z
				"/>
			<path class="st3" d="M105.3,319.7c-0.6,0-1.2-0.2-1.6-0.6c-0.4-0.4-0.6-0.9-0.6-1.5v-3.1h1v3.1c0,0.3,0.1,0.5,0.3,0.8
				c0.2,0.2,0.5,0.3,0.8,0.3c0.3,0,0.6-0.1,0.8-0.3c0.2-0.2,0.3-0.5,0.3-0.8v-3.1h1v3.1c0,0.6-0.2,1.1-0.6,1.5
				C106.4,319.5,105.9,319.7,105.3,319.7z"/>
			<path class="st3" d="M109.9,319v0.6h-1v-8h1v3.2c0.5-0.5,1.1-0.8,1.7-0.8c0.8,0,1.5,0.3,2,0.8c0.6,0.6,0.8,1.2,0.8,2
				c0,0.8-0.3,1.5-0.8,2c-0.6,0.6-1.2,0.8-2,0.8C111,319.8,110.4,319.5,109.9,319z M109.9,316.6v0.8c0.1,0.3,0.2,0.6,0.5,0.9
				c0.3,0.3,0.8,0.5,1.3,0.5c0.5,0,0.9-0.2,1.3-0.5c0.3-0.3,0.5-0.8,0.5-1.3c0-0.5-0.2-0.9-0.5-1.3s-0.8-0.5-1.3-0.5
				c-0.5,0-0.9,0.2-1.3,0.5C110.2,316,110,316.3,109.9,316.6z"/>
			<path class="st3" d="M117.5,318.5c0.2,0.2,0.5,0.2,0.9,0.2c0.5,0,0.9-0.2,1.3-0.5c0,0,0.1-0.1,0.3-0.3l1,0.4
				c-0.3,0.3-0.4,0.6-0.5,0.7c-0.6,0.6-1.2,0.8-2,0.8c-0.8,0-1.4-0.3-2-0.8c-0.6-0.6-0.8-1.2-0.8-2c0-0.8,0.3-1.5,0.8-2
				c0.6-0.6,1.2-0.8,2-0.8c0.7,0,1.3,0.2,1.8,0.6c0.1,0.1,0.2,0.1,0.2,0.2c0,0,0.1,0.1,0.3,0.3l-0.5,0.5L117.5,318.5z M119.2,315.3
				c-0.1-0.1-0.4-0.1-0.8-0.1c-0.5,0-0.9,0.2-1.3,0.5s-0.5,0.8-0.5,1.3c0,0.4,0,0.7,0.1,0.8L119.2,315.3z"/>
			<path class="st3" d="M123.2,315.2c0.4-0.5,0.9-0.8,1.4-0.8v1.1c-0.4,0-0.7,0.1-0.9,0.4c-0.3,0.3-0.5,0.7-0.5,1.2v2.6h-1v-5.1h1
				L123.2,315.2L123.2,315.2z"/>
			<path class="st3" d="M126.8,315.9v3.8h-1v-5.1h1v0.6c0.2-0.6,0.6-0.9,1.3-0.9c0.6,0,1,0.2,1.3,0.6c0.3,0.4,0.5,0.9,0.5,1.5v3.3
				h-1v-3.3c0-0.3-0.1-0.5-0.3-0.8s-0.5-0.3-0.8-0.3c-0.3,0-0.6,0.1-0.8,0.3C126.9,315.7,126.8,315.8,126.8,315.9z"/>
			<path class="st3" d="M135.8,314.9v-0.4h1v5.1h-1V319c-0.5,0.5-1.1,0.8-1.7,0.8c-0.8,0-1.5-0.3-2-0.8c-0.6-0.6-0.8-1.2-0.8-2
				s0.3-1.5,0.8-2c0.6-0.6,1.2-0.8,2-0.8C134.8,314.1,135.3,314.4,135.8,314.9z M135.8,317.4v-0.8c-0.1-0.3-0.2-0.6-0.5-0.9
				c-0.3-0.3-0.8-0.5-1.3-0.5c-0.5,0-0.9,0.2-1.3,0.5c-0.3,0.3-0.5,0.8-0.5,1.3c0,0.5,0.2,0.9,0.5,1.3c0.3,0.3,0.8,0.5,1.3,0.5
				c0.5,0,0.9-0.2,1.3-0.5C135.6,318,135.8,317.7,135.8,317.4z"/>
			<path class="st3" d="M138.4,314.5h1v0.5c0.2-0.5,0.6-0.8,1.1-0.8c0.6,0,0.9,0.3,1,0.9c0.2-0.6,0.6-0.9,1.3-0.9
				c0.7,0,1.1,0.4,1.1,1.3v4.1h-1v-3.6c0-0.5-0.2-0.8-0.6-0.8c-0.2,0-0.3,0.1-0.4,0.2c-0.1,0.1-0.2,0.5-0.2,1.2v3h-1l0-3.6
				c0-0.5-0.2-0.8-0.6-0.8c-0.2,0-0.3,0.1-0.4,0.2c-0.1,0.1-0.2,0.4-0.2,0.8v3.4h-1L138.4,314.5L138.4,314.5z"/>
			<path class="st3" d="M147,318.5c0.2,0.2,0.5,0.2,0.9,0.2c0.5,0,0.9-0.2,1.3-0.5c0,0,0.1-0.1,0.3-0.3l1,0.4
				c-0.3,0.3-0.4,0.6-0.5,0.7c-0.6,0.6-1.2,0.8-2,0.8c-0.8,0-1.4-0.3-2-0.8c-0.6-0.6-0.8-1.2-0.8-2c0-0.8,0.3-1.5,0.8-2
				c0.6-0.6,1.2-0.8,2-0.8c0.7,0,1.3,0.2,1.8,0.6c0.1,0.1,0.2,0.1,0.2,0.2c0,0,0.1,0.1,0.3,0.3l-0.5,0.5L147,318.5z M148.8,315.3
				c-0.1-0.1-0.4-0.1-0.8-0.1c-0.5,0-0.9,0.2-1.3,0.5c-0.3,0.3-0.5,0.8-0.5,1.3c0,0.4,0,0.7,0.1,0.8L148.8,315.3z"/>
			<path class="st3" d="M152.8,315.9v3.8h-1v-5.1h1v0.6c0.2-0.6,0.6-0.9,1.3-0.9c0.6,0,1,0.2,1.3,0.6c0.3,0.4,0.5,0.9,0.5,1.5v3.3
				h-1v-3.3c0-0.3-0.1-0.5-0.3-0.8s-0.5-0.3-0.8-0.3c-0.3,0-0.6,0.1-0.8,0.3C152.9,315.7,152.8,315.8,152.8,315.9z"/>
			<path class="st3" d="M158,314.5v-1.9h1v1.9h0.9v1H159v4.1h-1v-4.1h-0.9v-1H158z"/>
			<path class="st3" d="M165.6,314.9v-0.4h1v5.1h-1V319c-0.5,0.5-1.1,0.8-1.7,0.8c-0.8,0-1.5-0.3-2-0.8c-0.6-0.6-0.8-1.2-0.8-2
				s0.3-1.5,0.8-2c0.6-0.6,1.2-0.8,2-0.8C164.5,314.1,165.1,314.4,165.6,314.9z M165.6,317.4v-0.8c-0.1-0.3-0.2-0.6-0.5-0.9
				c-0.4-0.3-0.8-0.5-1.3-0.5c-0.5,0-0.9,0.2-1.3,0.5c-0.3,0.3-0.5,0.8-0.5,1.3c0,0.5,0.2,0.9,0.5,1.3c0.3,0.3,0.8,0.5,1.3,0.5
				c0.5,0,0.9-0.2,1.3-0.5C165.4,318,165.6,317.7,165.6,317.4z"/>
			<path class="st3" d="M169.2,311.7v8h-1v-8H169.2z"/>
			<path class="st3" d="M172.3,318.5c0.2,0.2,0.5,0.2,0.9,0.2c0.5,0,0.9-0.2,1.3-0.5c0,0,0.1-0.1,0.3-0.3l1,0.4
				c-0.3,0.3-0.4,0.6-0.5,0.7c-0.6,0.6-1.2,0.8-2,0.8c-0.8,0-1.4-0.3-2-0.8c-0.6-0.6-0.8-1.2-0.8-2c0-0.8,0.3-1.5,0.8-2
				c0.6-0.6,1.2-0.8,2-0.8c0.7,0,1.3,0.2,1.8,0.6c0.1,0.1,0.2,0.1,0.2,0.2c0,0,0.1,0.1,0.3,0.3l-0.5,0.5L172.3,318.5z M174,315.3
				c-0.1-0.1-0.4-0.1-0.8-0.1c-0.5,0-0.9,0.2-1.3,0.5s-0.5,0.8-0.5,1.3c0,0.4,0,0.7,0.1,0.8L174,315.3z"/>
			<path class="st3" d="M178,318.6c0.1,0.1,0.3,0.2,0.4,0.2s0.3-0.1,0.4-0.2c0.1-0.1,0.2-0.3,0.2-0.4c0-0.2-0.1-0.3-0.2-0.4
				c-0.1-0.1-0.3-0.2-0.5-0.4c-0.4-0.2-0.6-0.4-0.8-0.5c-0.3-0.3-0.4-0.6-0.4-1c0-0.4,0.1-0.7,0.4-1c0.3-0.3,0.6-0.4,1-0.4
				s0.7,0.1,1,0.4c0.2,0.2,0.3,0.4,0.3,0.6l-1,0.3c0-0.1,0-0.1-0.1-0.2c-0.1-0.1-0.1-0.1-0.2-0.1s-0.2,0-0.3,0.1
				c-0.1,0.1-0.1,0.2-0.1,0.3s0,0.2,0.1,0.3c0.1,0.1,0.2,0.2,0.4,0.3c0.4,0.2,0.7,0.4,0.9,0.6c0.3,0.3,0.5,0.7,0.5,1.2
				c0,0.5-0.2,0.9-0.5,1.2c-0.3,0.3-0.7,0.5-1.2,0.5c-0.5,0-0.8-0.2-1.2-0.5c-0.2-0.2-0.4-0.5-0.4-0.8l1-0.2
				C177.9,318.4,177.9,318.5,178,318.6z"/>
			<path class="st3" d="M187.4,314.1c0.8,0,1.5,0.3,2,0.8s0.8,1.2,0.8,2c0,0.8-0.3,1.5-0.8,2c-0.6,0.6-1.2,0.8-2,0.8
				c-0.8,0-1.4-0.3-2-0.8c-0.6-0.6-0.8-1.2-0.8-2c0-0.8,0.3-1.5,0.8-2C186,314.4,186.6,314.1,187.4,314.1z M186.2,315.7
				c-0.3,0.3-0.5,0.8-0.5,1.3c0,0.5,0.2,0.9,0.5,1.3c0.3,0.3,0.8,0.5,1.3,0.5c0.5,0,0.9-0.2,1.3-0.5c0.3-0.3,0.5-0.8,0.5-1.3
				c0-0.5-0.2-0.9-0.5-1.3c-0.3-0.3-0.8-0.5-1.3-0.5C186.9,315.2,186.5,315.4,186.2,315.7z"/>
			<path class="st3" d="M69,331.3v2.4h-1v-6.8h1v0.5c0.5-0.6,1.1-0.9,1.7-0.9c0.8,0,1.5,0.3,2,0.8s0.8,1.2,0.8,2
				c0,0.8-0.3,1.5-0.8,2s-1.2,0.8-2,0.8C70.1,332,69.5,331.8,69,331.3z M69,328.8v0.8c0.1,0.3,0.2,0.6,0.5,0.9
				c0.3,0.3,0.8,0.5,1.3,0.5s0.9-0.2,1.3-0.5s0.5-0.8,0.5-1.3c0-0.5-0.2-0.9-0.5-1.3c-0.3-0.4-0.8-0.5-1.3-0.5
				c-0.5,0-0.9,0.2-1.3,0.5C69.2,328.2,69.1,328.5,69,328.8z"/>
			<path class="st3" d="M75.8,327.5c0.4-0.5,0.9-0.8,1.4-0.8v1.1c-0.4,0-0.7,0.1-0.9,0.4c-0.3,0.3-0.5,0.7-0.5,1.2v2.6h-1v-5.1h1
				L75.8,327.5L75.8,327.5z"/>
			<path class="st3" d="M79.5,324.9c0.1,0.1,0.2,0.3,0.2,0.5s-0.1,0.4-0.2,0.5c-0.1,0.1-0.3,0.2-0.5,0.2c-0.2,0-0.4-0.1-0.5-0.2
				c-0.1-0.1-0.2-0.3-0.2-0.5s0.1-0.4,0.2-0.5c0.1-0.1,0.3-0.2,0.5-0.2C79.2,324.7,79.3,324.8,79.5,324.9z M79.5,326.8v5.1h-1v-5.1
				H79.5z"/>
			<path class="st3" d="M83,331.9l-2.4-5.1h1.2l1.5,3.3l1.5-3.3H86l-2.5,5.1H83z"/>
			<path class="st3" d="M91.3,327.1v-0.4h1v5.1h-1v-0.6c-0.5,0.5-1.1,0.8-1.7,0.8c-0.8,0-1.5-0.3-2-0.8c-0.6-0.6-0.8-1.2-0.8-2
				c0-0.8,0.3-1.5,0.8-2s1.2-0.8,2-0.8C90.2,326.4,90.8,326.6,91.3,327.1z M91.3,329.6v-0.8c-0.1-0.3-0.2-0.6-0.5-0.9
				c-0.3-0.3-0.8-0.5-1.3-0.5c-0.5,0-0.9,0.2-1.3,0.5c-0.3,0.3-0.5,0.8-0.5,1.3c0,0.5,0.2,0.9,0.5,1.3c0.3,0.3,0.8,0.5,1.3,0.5
				c0.5,0,0.9-0.2,1.3-0.5C91,330.2,91.2,329.9,91.3,329.6z"/>
			<path class="st3" d="M98.2,327.1v-3.2h1v8h-1v-0.6c-0.5,0.5-1.1,0.8-1.7,0.8c-0.8,0-1.5-0.3-2-0.8c-0.6-0.6-0.8-1.2-0.8-2
				c0-0.8,0.3-1.5,0.8-2c0.6-0.6,1.2-0.8,2-0.8C97.2,326.4,97.7,326.6,98.2,327.1z M98.2,329.6v-0.8c-0.1-0.3-0.2-0.6-0.5-0.9
				c-0.3-0.4-0.8-0.5-1.3-0.5c-0.5,0-0.9,0.2-1.3,0.5c-0.3,0.3-0.5,0.8-0.5,1.3c0,0.5,0.2,0.9,0.5,1.3c0.3,0.3,0.8,0.5,1.3,0.5
				c0.5,0,0.9-0.2,1.3-0.5C98,330.2,98.2,329.9,98.2,329.6z"/>
			<path class="st3" d="M103.3,326.4c0.8,0,1.5,0.3,2,0.8c0.6,0.6,0.8,1.2,0.8,2c0,0.8-0.3,1.5-0.8,2c-0.6,0.6-1.2,0.8-2,0.8
				c-0.8,0-1.4-0.3-2-0.8s-0.8-1.2-0.8-2c0-0.8,0.3-1.5,0.8-2S102.5,326.4,103.3,326.4z M102.1,328c-0.3,0.3-0.5,0.8-0.5,1.3
				c0,0.5,0.2,0.9,0.5,1.3c0.3,0.3,0.8,0.5,1.3,0.5c0.5,0,0.9-0.2,1.3-0.5c0.3-0.3,0.5-0.8,0.5-1.3c0-0.5-0.2-0.9-0.5-1.3
				c-0.3-0.4-0.8-0.5-1.3-0.5C102.8,327.4,102.4,327.6,102.1,328z"/>
			<path class="st3" d="M108.4,330.8c0.1,0.1,0.3,0.2,0.4,0.2c0.2,0,0.3-0.1,0.4-0.2c0.1-0.1,0.2-0.3,0.2-0.4c0-0.2-0.1-0.3-0.2-0.4
				c-0.1-0.1-0.3-0.2-0.5-0.4c-0.4-0.2-0.6-0.4-0.8-0.5c-0.3-0.3-0.4-0.6-0.4-1c0-0.4,0.1-0.7,0.4-1c0.3-0.3,0.6-0.4,1-0.4
				s0.7,0.1,1,0.4c0.2,0.2,0.3,0.4,0.3,0.6l-1,0.3c0-0.1,0-0.1-0.1-0.2c-0.1-0.1-0.1-0.1-0.2-0.1s-0.2,0-0.3,0.1
				c-0.1,0.1-0.1,0.2-0.1,0.3c0,0.1,0,0.2,0.1,0.3c0.1,0.1,0.2,0.2,0.4,0.3c0.4,0.2,0.7,0.4,0.9,0.6c0.3,0.3,0.5,0.7,0.5,1.2
				c0,0.5-0.2,0.9-0.5,1.2c-0.3,0.3-0.7,0.5-1.2,0.5c-0.5,0-0.8-0.2-1.2-0.5c-0.2-0.2-0.4-0.5-0.4-0.8l1-0.2
				C108.3,330.6,108.3,330.7,108.4,330.8z"/>
			<path class="st3" d="M116.9,330.8c0.2,0.2,0.5,0.2,0.9,0.2c0.5,0,0.9-0.2,1.3-0.5c0,0,0.1-0.1,0.3-0.3l1,0.4
				c-0.3,0.3-0.4,0.6-0.5,0.7c-0.6,0.6-1.2,0.8-2,0.8c-0.8,0-1.4-0.3-2-0.8s-0.8-1.2-0.8-2c0-0.8,0.3-1.5,0.8-2s1.2-0.8,2-0.8
				c0.7,0,1.3,0.2,1.8,0.6c0.1,0.1,0.2,0.1,0.2,0.2c0,0,0.1,0.1,0.3,0.3l-0.5,0.5L116.9,330.8z M118.6,327.6
				c-0.1-0.1-0.4-0.1-0.8-0.1c-0.5,0-0.9,0.2-1.3,0.5c-0.3,0.3-0.5,0.8-0.5,1.3c0,0.4,0,0.7,0.1,0.8L118.6,327.6z"/>
			<path class="st3" d="M122.6,328.2v3.8h-1v-5.1h1v0.6c0.2-0.6,0.6-0.9,1.3-0.9c0.6,0,1,0.2,1.3,0.6c0.3,0.4,0.5,0.9,0.5,1.5v3.3
				h-1v-3.3c0-0.3-0.1-0.5-0.3-0.8s-0.5-0.3-0.8-0.3c-0.3,0-0.6,0.1-0.8,0.3C122.7,328,122.6,328.1,122.6,328.2z"/>
			<path class="st3" d="M132.3,330.8c0.2,0.2,0.5,0.2,0.9,0.2c0.5,0,0.9-0.2,1.3-0.5c0,0,0.1-0.1,0.3-0.3l1,0.4
				c-0.3,0.3-0.4,0.6-0.5,0.7c-0.6,0.6-1.2,0.8-2,0.8c-0.8,0-1.4-0.3-2-0.8s-0.8-1.2-0.8-2c0-0.8,0.3-1.5,0.8-2
				c0.6-0.6,1.2-0.8,2-0.8c0.7,0,1.3,0.2,1.8,0.6c0.1,0.1,0.2,0.1,0.2,0.2c0,0,0.1,0.1,0.3,0.3l-0.5,0.5L132.3,330.8z M134.1,327.6
				c-0.1-0.1-0.4-0.1-0.8-0.1c-0.5,0-0.9,0.2-1.3,0.5c-0.3,0.3-0.5,0.8-0.5,1.3c0,0.4,0,0.7,0.1,0.8L134.1,327.6z"/>
			<path class="st3" d="M138.1,330.8c0.1,0.1,0.3,0.2,0.4,0.2c0.2,0,0.3-0.1,0.4-0.2c0.1-0.1,0.2-0.3,0.2-0.4c0-0.2-0.1-0.3-0.2-0.4
				c-0.1-0.1-0.3-0.2-0.5-0.4c-0.4-0.2-0.6-0.4-0.8-0.5c-0.3-0.3-0.4-0.6-0.4-1c0-0.4,0.1-0.7,0.4-1s0.6-0.4,1-0.4
				c0.4,0,0.7,0.1,1,0.4c0.2,0.2,0.3,0.4,0.3,0.6l-1,0.3c0-0.1,0-0.1-0.1-0.2c-0.1-0.1-0.1-0.1-0.2-0.1s-0.2,0-0.3,0.1
				c-0.1,0.1-0.1,0.2-0.1,0.3c0,0.1,0,0.2,0.1,0.3c0.1,0.1,0.2,0.2,0.4,0.3c0.4,0.2,0.7,0.4,0.9,0.6c0.3,0.3,0.5,0.7,0.5,1.2
				c0,0.5-0.2,0.9-0.5,1.2c-0.3,0.3-0.7,0.5-1.2,0.5c-0.5,0-0.8-0.2-1.2-0.5c-0.2-0.2-0.4-0.5-0.4-0.8l1-0.2
				C138,330.6,138,330.7,138.1,330.8z"/>
			<path class="st3" d="M142.1,326.8v-1.9h1v1.9h0.9v1h-0.9v4.1h-1v-4.1h-0.9v-1H142.1z"/>
			<path class="st3" d="M146.9,330.8c0.2,0.2,0.5,0.2,0.9,0.2c0.5,0,0.9-0.2,1.3-0.5c0,0,0.1-0.1,0.3-0.3l1,0.4
				c-0.3,0.3-0.4,0.6-0.5,0.7c-0.6,0.6-1.2,0.8-2,0.8c-0.8,0-1.4-0.3-2-0.8c-0.6-0.6-0.8-1.2-0.8-2c0-0.8,0.3-1.5,0.8-2
				c0.6-0.6,1.2-0.8,2-0.8c0.7,0,1.3,0.2,1.8,0.6c0.1,0.1,0.2,0.1,0.2,0.2c0,0,0.1,0.1,0.3,0.3l-0.5,0.5L146.9,330.8z M148.6,327.6
				c-0.1-0.1-0.4-0.1-0.8-0.1c-0.5,0-0.9,0.2-1.3,0.5s-0.5,0.8-0.5,1.3c0,0.4,0,0.7,0.1,0.8L148.6,327.6z"/>
			<path class="st3" d="M156.1,330.8c0.1,0.1,0.3,0.2,0.4,0.2c0.2,0,0.3-0.1,0.4-0.2c0.1-0.1,0.2-0.3,0.2-0.4c0-0.2-0.1-0.3-0.2-0.4
				c-0.1-0.1-0.3-0.2-0.5-0.4c-0.4-0.2-0.6-0.4-0.8-0.5c-0.3-0.3-0.4-0.6-0.4-1c0-0.4,0.1-0.7,0.4-1s0.6-0.4,1-0.4
				c0.4,0,0.7,0.1,1,0.4c0.2,0.2,0.3,0.4,0.3,0.6l-1,0.3c0-0.1,0-0.1-0.1-0.2c-0.1-0.1-0.1-0.1-0.2-0.1s-0.2,0-0.3,0.1
				c-0.1,0.1-0.1,0.2-0.1,0.3c0,0.1,0,0.2,0.1,0.3c0.1,0.1,0.2,0.2,0.4,0.3c0.4,0.2,0.7,0.4,0.9,0.6c0.3,0.3,0.5,0.7,0.5,1.2
				c0,0.5-0.2,0.9-0.5,1.2c-0.3,0.3-0.7,0.5-1.2,0.5c-0.5,0-0.8-0.2-1.2-0.5c-0.2-0.2-0.4-0.5-0.4-0.8l1-0.2
				C156,330.6,156.1,330.7,156.1,330.8z"/>
			<path class="st3" d="M161.1,330.8c0.2,0.2,0.5,0.2,0.9,0.2c0.5,0,0.9-0.2,1.3-0.5c0,0,0.1-0.1,0.3-0.3l1,0.4
				c-0.3,0.3-0.4,0.6-0.5,0.7c-0.6,0.6-1.2,0.8-2,0.8c-0.8,0-1.4-0.3-2-0.8c-0.6-0.6-0.8-1.2-0.8-2c0-0.8,0.3-1.5,0.8-2
				c0.6-0.6,1.2-0.8,2-0.8c0.7,0,1.3,0.2,1.8,0.6c0.1,0.1,0.2,0.1,0.2,0.2c0,0,0.1,0.1,0.3,0.3l-0.5,0.5L161.1,330.8z M162.8,327.6
				c-0.1-0.1-0.4-0.1-0.8-0.1c-0.5,0-0.9,0.2-1.3,0.5s-0.5,0.8-0.5,1.3c0,0.4,0,0.7,0.1,0.8L162.8,327.6z"/>
			<path class="st3" d="M166.8,328.2v3.8h-1v-5.1h1v0.6c0.2-0.6,0.6-0.9,1.3-0.9c0.6,0,1,0.2,1.3,0.6c0.3,0.4,0.5,0.9,0.5,1.5v3.3
				h-1v-3.3c0-0.3-0.1-0.5-0.3-0.8c-0.2-0.2-0.5-0.3-0.8-0.3c-0.3,0-0.6,0.1-0.8,0.3C166.9,328,166.8,328.1,166.8,328.2z"/>
			<path class="st3" d="M172.1,326.8v-1.9h1v1.9h0.9v1h-0.9v4.1h-1v-4.1h-0.9v-1H172.1z"/>
			<path class="st3" d="M176.3,324.9c0.1,0.1,0.2,0.3,0.2,0.5s-0.1,0.4-0.2,0.5c-0.1,0.1-0.3,0.2-0.5,0.2c-0.2,0-0.4-0.1-0.5-0.2
				c-0.1-0.1-0.2-0.3-0.2-0.5s0.1-0.4,0.2-0.5c0.1-0.1,0.3-0.2,0.5-0.2C176,324.7,176.2,324.8,176.3,324.9z M176.3,326.8v5.1h-1
				v-5.1H176.3z"/>
			<path class="st3" d="M182.4,327.1v-3.2h1v8h-1v-0.6c-0.5,0.5-1.1,0.8-1.7,0.8c-0.8,0-1.5-0.3-2-0.8s-0.8-1.2-0.8-2
				c0-0.8,0.3-1.5,0.8-2c0.6-0.6,1.2-0.8,2-0.8C181.3,326.4,181.9,326.6,182.4,327.1z M182.4,329.6v-0.8c-0.1-0.3-0.2-0.6-0.5-0.9
				c-0.3-0.4-0.8-0.5-1.3-0.5c-0.5,0-0.9,0.2-1.3,0.5c-0.3,0.3-0.5,0.8-0.5,1.3c0,0.5,0.2,0.9,0.5,1.3c0.3,0.3,0.8,0.5,1.3,0.5
				c0.5,0,0.9-0.2,1.3-0.5C182.1,330.2,182.3,329.9,182.4,329.6z"/>
			<path class="st3" d="M187.4,326.4c0.8,0,1.5,0.3,2,0.8s0.8,1.2,0.8,2c0,0.8-0.3,1.5-0.8,2c-0.6,0.6-1.2,0.8-2,0.8
				c-0.8,0-1.4-0.3-2-0.8c-0.6-0.6-0.8-1.2-0.8-2c0-0.8,0.3-1.5,0.8-2C186,326.6,186.6,326.4,187.4,326.4z M186.2,328
				c-0.3,0.3-0.5,0.8-0.5,1.3c0,0.5,0.2,0.9,0.5,1.3c0.3,0.3,0.8,0.5,1.3,0.5c0.5,0,0.9-0.2,1.3-0.5c0.3-0.3,0.5-0.8,0.5-1.3
				c0-0.5-0.2-0.9-0.5-1.3c-0.3-0.4-0.8-0.5-1.3-0.5C186.9,327.4,186.5,327.6,186.2,328z"/>
			<path class="st2" d="M170.8,347.8v2h-6.5l0-1.7c1.9-3.1,3.1-5.1,3.4-5.8c0.4-0.7,0.5-1.3,0.5-1.7c0-0.3-0.1-0.6-0.2-0.7
				c-0.1-0.2-0.3-0.2-0.5-0.2c-0.2,0-0.4,0.1-0.5,0.3c-0.1,0.2-0.2,0.5-0.2,1v1.1h-2.6v-0.4c0-0.7,0-1.2,0.1-1.6
				c0.1-0.4,0.2-0.8,0.5-1.1s0.6-0.6,1-0.8c0.4-0.2,0.9-0.3,1.5-0.3c1.2,0,2.1,0.3,2.7,0.9c0.6,0.6,0.9,1.3,0.9,2.2
				c0,0.7-0.2,1.4-0.5,2.1c-0.3,0.8-1.3,2.4-3,4.8H170.8L170.8,347.8z"/>
			<path class="st2" d="M178.7,338v7.7h0.8v2h-0.8v2.1h-2.9v-2.1h-3.5v-2l2.5-7.7H178.7z M175.7,345.8v-5l-1.3,5H175.7z"/>
			<path class="st2" d="M185,340.1v2c0,0.5-0.1,0.9-0.1,1.2c-0.1,0.3-0.3,0.5-0.6,0.7c-0.3,0.2-0.8,0.3-1.3,0.3
				c-0.6,0-1.1-0.1-1.4-0.3c-0.3-0.2-0.5-0.4-0.7-0.7c-0.1-0.3-0.2-0.6-0.2-1.1V340c0-0.6,0.1-1,0.2-1.3c0.1-0.3,0.3-0.5,0.7-0.7
				c0.3-0.2,0.8-0.3,1.3-0.3c0.6,0,1,0.1,1.4,0.3c0.3,0.2,0.6,0.4,0.7,0.7C184.9,339.1,185,339.5,185,340.1z M183.1,339.5
				c0-0.3,0-0.5,0-0.6s-0.1-0.1-0.3-0.1c-0.1,0-0.2,0-0.3,0.1c0,0.1-0.1,0.3-0.1,0.6v3c0,0.3,0,0.5,0.1,0.6c0,0.1,0.1,0.1,0.3,0.1
				c0.1,0,0.2,0,0.2-0.1c0-0.1,0.1-0.3,0.1-0.5L183.1,339.5L183.1,339.5z M188.4,337.8l-4.6,12.3h-1.1l4.6-12.3H188.4z M190.4,345.8
				v2c0,0.5-0.1,0.9-0.1,1.2s-0.3,0.5-0.6,0.7c-0.3,0.2-0.8,0.3-1.3,0.3c-0.6,0-1.1-0.1-1.4-0.3c-0.3-0.2-0.6-0.4-0.7-0.7
				c-0.1-0.3-0.2-0.6-0.2-1.1v-2.1c0-0.6,0.1-1,0.2-1.3s0.4-0.5,0.7-0.7c0.3-0.2,0.8-0.3,1.3-0.3c0.6,0,1,0.1,1.4,0.3
				c0.3,0.2,0.6,0.4,0.7,0.7C190.4,344.8,190.4,345.2,190.4,345.8z M188.6,345.2c0-0.3,0-0.5,0-0.6c0-0.1-0.1-0.1-0.3-0.1
				c-0.1,0-0.2,0-0.3,0.1c0,0.1-0.1,0.3-0.1,0.6v3c0,0.3,0,0.5,0.1,0.6c0,0.1,0.1,0.1,0.3,0.1c0.1,0,0.2,0,0.2-0.1
				c0-0.1,0.1-0.3,0.1-0.6V345.2z"/>
		</g>
	</g>
</g>
</svg>
