<?xml version="1.0" encoding="utf-8"?>
<!-- Generator: Adobe Illustrator 16.0.0, SVG Export Plug-In . SVG Version: 6.00 Build 0)  -->
<!DOCTYPE svg PUBLIC "-//W3C//DTD SVG 1.1//EN" "http://www.w3.org/Graphics/SVG/1.1/DTD/svg11.dtd">
<svg version="1.1" id="Capa_1" xmlns="http://www.w3.org/2000/svg" xmlns:xlink="http://www.w3.org/1999/xlink" x="0px" y="0px"
	 width="734.338px" height="413.177px" viewBox="0 0 734.338 413.177" enable-background="new 0 0 734.338 413.177"
	 xml:space="preserve">
<g>
	<g>
		<g>
			<path fill="#F39200" d="M290.867,140.521L290.867,140.521L290.867,140.521l-0.451-0.243l-0.432-0.165l-0.621-0.162l-0.068-0.002
				l-1.789-0.032l-0.422,0.15l-0.09,0.092l-0.082,0.162l-0.064,0.324c-0.006,0.029-0.018,0.056-0.037,0.077l-0.174,0.209
				l-0.219,0.22l-0.234,0.161c-0.016,0.01-0.031,0.018-0.049,0.023l-0.244,0.069c-0.025,0.007-0.053,0.008-0.08,0.003
				c-0.004-0.001-0.008-0.004-0.012-0.006c-0.021-0.005-0.041-0.013-0.059-0.026l-0.141-0.104c-0.025-0.02-0.045-0.046-0.057-0.077
				l-0.143-0.369l-0.299-0.08l-0.354,0.707l-0.236,0.643c-0.004,0.014-0.012,0.027-0.021,0.04l-0.242,0.348l-0.285,0.356
				l-0.641,0.608c-0.01,0.009-0.02,0.018-0.031,0.023l-0.418,0.244c-0.018,0.01-0.037,0.017-0.059,0.021l-0.416,0.069h-0.002
				c-0.01,0.001-0.018,0.002-0.027,0.002c-0.012,0-0.021-0.001-0.033-0.003l0,0l-0.521-0.104c-0.018-0.003-0.035-0.01-0.051-0.018
				l0,0l0,0l-1.295-0.716l-0.262-0.046l0.404,1.077l0.115,0.305c0.006,0.02,0.01,0.04,0.012,0.061c0,0.02-0.006,0.04-0.012,0.06
				l-0.166,0.467l-0.033,0.292l0.002,0.336l0.234,0.775c0.008,0.022,0.01,0.046,0.008,0.07l-0.105,0.903l-0.041,0.192l-0.344,1.596
				c-0.002,0.014-0.008,0.025-0.014,0.038c-0.002,0.003-0.002,0.006-0.004,0.009l-0.867,1.598l-0.154,0.336v1.353l0,0
				c0,0.038-0.012,0.074-0.033,0.104L279,152.769c-0.012,0.016-0.023,0.027-0.037,0.037l-0.244,0.175l-0.449,0.21l-0.812,0.846
				c-0.021,0.022-0.049,0.039-0.078,0.047l-0.625,0.174c-0.029,0.008-0.059,0.008-0.088,0.001l-0.418-0.104
				c-0.055-0.013-0.098-0.052-0.119-0.104l-0.486-1.216l-0.059-0.119l-0.178-0.354l-0.225-0.301l-0.129-0.176l-0.779-0.61
				l-0.225-0.207l-0.188-0.173h-0.117l-0.393,0.112l-0.135,0.245l0.131,0.311l0.654,0.688l0.027,0.016l0.193,0.11
				c0.018,0.01,0.033,0.022,0.047,0.038l0.207,0.242c0.012,0.014,0.02,0.027,0.027,0.043l0.174,0.381l0.109,0.33
				c0.01,0.028,0.012,0.059,0.008,0.087l-0.17,0.879l0.092,0.885l0.01,0.097l0,0l0,0c0.002,0.025-0.002,0.051-0.01,0.074
				l-0.432,1.26l0.174,0.457l0.084,0.215c0.01,0.029,0.014,0.06,0.01,0.09h-0.002h0.002l-0.068,0.396l0.033,0.431
				c0.002,0.021,0,0.041-0.006,0.062l-0.068,0.243c-0.006,0.015-0.012,0.03-0.02,0.044l-0.174,0.277
				c-0.01,0.018-0.023,0.031-0.039,0.044l-0.348,0.278c-0.014,0.011-0.031,0.02-0.047,0.026l-0.277,0.104l-0.338,0.198l-0.396,1.089
				c-0.012,0.031-0.031,0.059-0.057,0.078l-0.418,0.312c-0.02,0.015-0.041,0.025-0.064,0.031l-0.729,0.173l-0.561,0.22l-0.283,0.347
				l-0.229,0.394l-1.764,2.08l-0.303,1.11c-0.008,0.028-0.023,0.056-0.045,0.077l-0.244,0.243c-0.031,0.032-0.074,0.05-0.121,0.05
				h-0.416l-2.184-0.349c-0.016-0.003-0.033-0.009-0.049-0.017l0,0l-0.766-0.383l0,0l-0.549-0.376l-0.227-0.056h-0.078l-0.316,0.158
				l-0.395,1.114c-0.004,0.013-0.01,0.024-0.018,0.036l-1.145,1.807c-0.031,0.046-0.082,0.076-0.137,0.079l-0.592,0.035
				c-0.02,0.001-0.041-0.002-0.061-0.007l-0.34-0.104l-0.412-0.126l-0.041,0.027l-0.098,0.487l-0.254,0.623
				c-0.008,0.022-0.023,0.044-0.041,0.061l-0.457,0.424l-0.297,0.796c-0.023,0.061-0.078,0.104-0.141,0.111l-0.279,0.035
				c-0.043,0.004-0.082-0.006-0.117-0.027l-0.312-0.209c-0.018-0.011-0.031-0.024-0.043-0.039l-0.902-1.182
				c-0.02-0.024-0.031-0.053-0.033-0.084l-0.105-0.799c-0.01-0.066,0.021-0.131,0.076-0.168l0.637-0.412l0.088-0.416
				c0.012-0.053,0.047-0.098,0.098-0.121l0.475-0.221l0.309-0.497l0.342-0.955l0.094-0.446v-0.367l-0.092-0.248l-0.078-0.125
				l-0.174-0.276l-0.414-0.384l-0.486-0.451l-1.055-0.51l0,0l0,0c-0.018-0.009-0.033-0.02-0.047-0.033l-0.191-0.191l-0.635,1.04
				l-0.062,0.252c-0.01,0.037-0.031,0.07-0.062,0.093l-0.982,0.781l-0.242,0.393l-0.1,0.797c-0.004,0.025-0.012,0.049-0.025,0.069
				l-0.438,0.709l-0.086,0.313l0.094,0.373c0.004,0.014,0.006,0.027,0.006,0.043v1.007c0,0.02-0.004,0.039-0.012,0.058l-0.242,0.694
				l-0.201,1.153l0.002,0.492c0,0.016-0.002,0.031-0.006,0.047l-0.141,0.486c-0.012,0.044-0.039,0.081-0.078,0.104l-0.244,0.139
				c-0.02,0.011-0.039,0.017-0.059,0.021c-0.059,0.011-0.121-0.012-0.16-0.06l-0.174-0.209l-0.432-0.36l-0.393-0.226l-0.434-0.152
				l-0.48-0.031l-0.711,0.101l-1.482,0.372l-1.02,0.645c-0.027,0.019-0.061,0.027-0.092,0.027l0,0c-0.027,0-0.053-0.009-0.078-0.021
				c-0.002-0.001-0.008-0.001-0.01-0.003h-0.002l0,0c-0.055-0.034-0.088-0.096-0.084-0.16l0.029-0.501l-0.086-0.067l-0.199-0.086
				l-0.201-0.029l-0.34,0.03l-0.465,0.167l-0.141,0.029l-0.059,0.012l-0.107,0.043l-0.143,0.054
				c-0.014,0.005-0.025,0.009-0.041,0.01l-0.277,0.036c-0.037,0.003-0.074-0.004-0.107-0.022l-0.705-0.399l-0.094-0.052
				c-0.02-0.011-0.035-0.025-0.049-0.043l-0.334-0.417l-0.223-0.277l-0.113-0.208l-0.301-0.547l-0.188-0.133l-0.189-0.056h-0.393
				c-0.078,0-0.146-0.051-0.168-0.125l-0.197-0.691l-0.252-0.279l-0.957-0.265H241.4l0,0c-0.025-0.007-0.051-0.021-0.072-0.04
				l-0.383-0.357l-0.307,0.213l-0.292,0.489c-0.011,0.017-0.024,0.032-0.04,0.046l-0.348,0.277l-0.295,0.186
				c-0.018,0.012-0.037,0.019-0.059,0.023l-0.173,0.034c-0.021,0.005-0.044,0.005-0.065,0.001l-0.383-0.069
				c-0.029-0.006-0.057-0.019-0.08-0.038c-0.021-0.02-0.04-0.043-0.051-0.072l-0.195-0.521l-0.117-0.312
				c-0.01-0.024-0.013-0.051-0.01-0.078l0,0l0,0l0.034-0.348l0.145-0.517l0.549-1.07v-0.343l-0.161-0.422l-0.051-0.092l-0.184-0.34
				l-0.232-0.58l-0.047-0.115l-0.178-0.268l-0.194-0.121l-0.219,0.024l-0.282,0.156l-0.568,0.438
				c-0.018,0.012-0.037,0.021-0.057,0.028l-0.348,0.104c-0.033,0.011-0.07,0.01-0.104-0.001l-0.21-0.07l-0.427-0.178l-0.544-0.324
				l-0.338-0.297l0,0h-0.001l-0.498-0.532l-0.922-1.413c-0.009-0.013-0.015-0.027-0.021-0.041l-0.347-1.078l-0.231-0.422
				c-0.006-0.012-0.01-0.023-0.013-0.035l-0.21-0.729l-0.091-0.484l-0.424,0.29l-0.421,0.485l-0.259,0.55l-0.203,0.988
				c-0.005,0.018-0.011,0.034-0.021,0.05l-0.3,0.534l-0.059,0.269v0.282l0.115,0.203l0.297,0.357
				c0.009,0.012,0.018,0.025,0.022,0.039l0.174,0.382c0.008,0.017,0.014,0.035,0.016,0.054l0.035,0.348l-0.035,0.997l0.068,0.456
				c0.004,0.025,0.002,0.053-0.007,0.079l-0.07,0.208c-0.014,0.044-0.045,0.08-0.087,0.101l-0.535,0.269l-0.026,0.316l0.335,0.938
				c0.017,0.045,0.014,0.094-0.008,0.137l-0.104,0.208c-0.021,0.039-0.055,0.069-0.096,0.085l-0.242,0.091l-0.285,0.286
				l-0.261,0.361l-0.147,0.298l-0.205,1.432c-0.001,0.019-0.007,0.036-0.016,0.053l-0.27,0.54l0.044,0.073l0.184,0.185l0.278-0.101
				l1.259-0.247l0.52-0.228l0.262-0.196c0.019-0.015,0.04-0.023,0.062-0.029l0.14-0.035c0.024-0.006,0.047-0.006,0.07-0.003
				l0.418,0.069c0.012,0.003,0.022,0.006,0.036,0.01l0.347,0.139l0.333,0.101l1.023,0.197l0.514-0.122l0.177-0.146l0.358-0.252
				l0.682-0.581l0.361-0.253c0.039-0.027,0.088-0.037,0.134-0.028l0.173,0.035c0.028,0.005,0.055,0.017,0.076,0.034l0.172,0.139
				c0.025,0.02,0.045,0.047,0.056,0.076l0,0v0.001l0.121,0.331l0.198,0.143c0.025,0.016,0.041,0.037,0.055,0.062l0.069,0.14h0.001
				c0.015,0.029,0.02,0.062,0.018,0.093l-0.031,0.347l0.049,0.149l0.159,0.223c0.018,0.025,0.029,0.057,0.032,0.088l0.034,0.486
				l0.001,0.403l0.025,0.089l0.062,0.207l0.157,0.221c0.016,0.021,0.024,0.045,0.03,0.071l0.029,0.171l0.004,0.037v0.001l0,0
				c0.005,0.021,0.004,0.044-0.002,0.065l-0.068,0.312c-0.006,0.028-0.02,0.054-0.037,0.076l-0.197,0.229l-0.258,0.484l-0.057,0.225
				l0.026,0.18l0.099,0.189l0.221,0.42l0.988,0.953c0.018,0.019,0.033,0.041,0.043,0.066l0.174,0.486
				c0.009,0.025,0.012,0.053,0.008,0.078l0,0l0,0l-0.065,0.564l0.021,0.104l0.043,0.054l0.01,0.012l0.219-0.024l0.551,0.034
				c0.026,0.002,0.052,0.01,0.074,0.023l0.73,0.417l0.639,0.288l1.104-0.068c0.049-0.002,0.096,0.015,0.131,0.048
				c0.035,0.032,0.055,0.078,0.055,0.126l0,0v0.432l0.199,0.285l0.227,0.193l0.289,0.171l0.344,0.031
				c0.025,0.003,0.049,0.011,0.07,0.022l0.969,0.562l1.434-1.304c0.018-0.017,0.041-0.029,0.064-0.037l0.578-0.183l0.135-0.376
				v-0.422l0,0c0-0.046,0.018-0.09,0.049-0.121l1.285-1.32l0.531-0.462c0.012-0.01,0.023-0.018,0.035-0.024l0.209-0.104
				c0.02-0.01,0.039-0.016,0.061-0.018l0.348-0.035c0.043-0.004,0.086,0.008,0.121,0.034l0.094,0.069l0.047,0.035
				c0.043,0.033,0.068,0.084,0.068,0.139v1.107l1.059,0.515l0.461-0.122c0.055-0.016,0.113,0.001,0.156,0.037
				c0.002,0.004,0.008,0.005,0.012,0.008l0.496,0.496l0.281,0.112h0.217l0.182-0.06c0.031-0.011,0.064-0.012,0.098-0.004
				l0.139,0.035c0.068,0.016,0.119,0.073,0.129,0.143l0.031,0.217l0.215,0.431l0.949,0.847l0.229,0.161
				c0.045,0.032,0.072,0.085,0.072,0.142l0,0v0.152l0.143,0.198c0.018,0.026,0.027,0.056,0.031,0.087
				c0.002,0.031-0.004,0.063-0.02,0.092l-0.137,0.277l-0.123,0.304v0.181l0.182,0.513l0.973,0.771l0,0l0,0
				c0.004,0.005,0.006,0.01,0.01,0.014c0.01,0.009,0.02,0.02,0.029,0.03v0.002l0,0l0.484,0.797c0.023,0.037,0.031,0.079,0.023,0.121
				l-0.098,0.553l0.158,0.599l0.576,0.952c0.01,0.014,0.018,0.03,0.02,0.047l0.07,0.278c0.008,0.03,0.006,0.062-0.002,0.093
				l-0.094,0.31l0.061,0.42l0.332,0.633c0.018,0.03,0.023,0.065,0.02,0.101l-0.033,0.312c-0.006,0.048-0.031,0.092-0.07,0.12
				l-0.855,0.634l0.01,0.08l0.08,0.582c0.006,0.037-0.002,0.073-0.018,0.105l-0.711,1.316v0.213l0.439,0.613l1.822,0.033
				c0.016,0,0.031,0.003,0.047,0.008l0.695,0.208c0.023,0.007,0.043,0.018,0.062,0.033l0.207,0.174
				c0.014,0.012,0.027,0.025,0.037,0.04l0.348,0.557l0.328,0.357c0.008,0.01,0.016,0.02,0.021,0.031l0.139,0.242
				c0.01,0.016,0.014,0.033,0.018,0.05c0.002,0.003,0.002,0.005,0.004,0.007c0.002,0.021,0.002,0.041,0,0.061l-0.064,0.346
				l0.004,0.016l0.82,0.314c0.037,0.015,0.068,0.041,0.088,0.076l0.221,0.401l0.361,0.659l0.111,0.11l0.18,0.022l0.379-0.126
				c0.021-0.007,0.045-0.011,0.068-0.009l0.453,0.035c0.012,0.001,0.021,0.003,0.035,0.006l0.242,0.07
				c0.016,0.005,0.033,0.012,0.049,0.021l0.207,0.139c0.043,0.029,0.072,0.076,0.078,0.127l0.066,0.635l0.123,0.294l0.412,0.028
				c0.02,0.001,0.037,0.004,0.055,0.012l0.9,0.367l0.895-0.063l0.256-0.144l0.129-0.127l0.057-0.17
				c0.004-0.012,0.01-0.022,0.016-0.033l0.322-0.55v-0.231c0-0.036,0.012-0.07,0.033-0.101l0.174-0.243
				c0.031-0.045,0.084-0.072,0.141-0.072h0.199l0.039-0.229l-0.438-1.35c-0.01-0.026-0.01-0.054-0.008-0.079l0.07-0.452
				c0.002-0.013,0.004-0.024,0.01-0.036l0.371-0.982l0.068-1.051l0.387-1.56c0.004-0.012,0.008-0.024,0.014-0.036l0.104-0.208
				c0.027-0.053,0.08-0.089,0.139-0.095l0.348-0.035c0.031-0.002,0.061,0.002,0.088,0.014l0.752,0.332l0.471-0.531l0.371-0.338
				l0.119-0.233l0.133-0.505c0.004-0.012,0.008-0.023,0.016-0.035l0.303-0.577l-0.111-0.201l-0.531-0.431
				c-0.016-0.014-0.029-0.029-0.039-0.047l-0.244-0.417c-0.006-0.011-0.012-0.021-0.016-0.033l-0.086-0.26l-0.018-0.053
				c-0.006-0.018-0.008-0.036-0.008-0.055v-0.348l0.107-0.556c0.002-0.012,0.006-0.023,0.012-0.036l0.139-0.312
				c0.006-0.015,0.014-0.028,0.025-0.041l0.127-0.153l-0.062-0.763l0,0l0,0c-0.004-0.046,0.01-0.091,0.039-0.126l0.174-0.208
				l1.314-1.798l0.389-0.461l0.363-0.33c0.012-0.01,0.025-0.02,0.039-0.026l0.258-0.129l0.504-0.438
				c0.027-0.021,0.057-0.035,0.088-0.04s0.064-0.001,0.096,0.012l0.486,0.208c0.025,0.012,0.047,0.028,0.064,0.05l0.174,0.207
				l0.551,0.826l0.43,0.329c0.012,0.01,0.023,0.021,0.031,0.032l0.613,0.807l0.301,0.023l1.299-1.166
				c0.01-0.009,0.02-0.016,0.029-0.022l0.934-0.532l0.811-1.352c0.006-0.01,0.014-0.02,0.021-0.028l3.123-3.401
				c0.016-0.018,0.033-0.031,0.053-0.041l0.277-0.139c0.025-0.012,0.051-0.018,0.078-0.018h0.244l0,0
				c0.018,0,0.033,0.011,0.053,0.018c0.016,0.005,0.035,0.006,0.051,0.017l0,0l0,0l0.057,0.042l0.082,0.062
				c0.016,0.012,0.029,0.025,0.041,0.043l0.139,0.208l0.205,0.373l0.156,0.156l0.746,0.549l0.09,0.015l0.062-0.051l0.301-1.569
				c0.004-0.013,0.008-0.027,0.012-0.04l0.209-0.451c0.012-0.021,0.025-0.041,0.043-0.057l0.275-0.245l0.16-0.543l0.102-0.41
				l0.062-0.15l0.051-0.119c0.01-0.021,0.021-0.039,0.037-0.054l0.174-0.174c0.016-0.017,0.035-0.03,0.059-0.039l0.145-0.059
				l0.174-0.155l-0.398-0.323c-0.012-0.011-0.023-0.023-0.035-0.037l-0.502-0.739l-0.461-0.329c-0.031-0.022-0.055-0.053-0.066-0.09
				l-0.156-0.502l-0.893-0.66l-2.201-1.168c-0.057-0.029-0.092-0.089-0.092-0.153v-0.486c0-0.039,0.014-0.077,0.039-0.108
				l0.139-0.174l0.221-0.223c0.018-0.018,0.039-0.031,0.062-0.04l0.383-0.139l0.471-0.097l0.055-0.089l0.514-1.717l0.203-1.161
				c0.004-0.017,0.01-0.033,0.016-0.047l0.301-0.602l0.053-0.34l-0.637-0.668c-0.012-0.013-0.021-0.027-0.029-0.042l-0.139-0.278
				l-0.113-0.336l-0.133-0.297l-0.139-0.547l-0.094-0.115l-0.312-0.156c-0.037-0.019-0.066-0.051-0.084-0.09l-0.068-0.174
				c-0.012-0.028-0.016-0.06-0.01-0.09l0,0l0,0l0.004-0.031l0.029-0.211l0.457-1.52c0.006-0.015,0.012-0.029,0.02-0.042l0.973-1.563
				c0.016-0.025,0.037-0.046,0.064-0.061l0.746-0.407l0.576-0.511l0.15-0.484v-0.286c0-0.03,0.008-0.06,0.021-0.086l0.139-0.243
				c0.008-0.014,0.02-0.026,0.029-0.036l0.209-0.209l0.234-0.161c0.037-0.024,0.082-0.033,0.125-0.026l0.209,0.034
				c0.031,0.006,0.061,0.02,0.086,0.039l0.205,0.178l0.084,0.014l0.113-0.091l0.229-0.229l0.188-0.286
				c0.008-0.015,0.02-0.026,0.031-0.037l0.209-0.174c0.02-0.017,0.045-0.028,0.068-0.035l0.279-0.069l0.311-0.036l0.354-0.147
				l0.25-0.312l0.184-0.309l0.236-0.812l0.551-4.42c0.002-0.016,0.006-0.029,0.012-0.045l0.174-0.417
				c0.018-0.04,0.049-0.072,0.088-0.091l0.48-0.225l0.406-0.53l0.268-0.975c0.004-0.013,0.01-0.026,0.018-0.039l0.486-0.869
				l0.857-2.235l0.25-0.502l0.143-0.458l-0.496-0.124h-0.914C290.92,140.541,290.895,140.534,290.867,140.521z"/>
		</g>
	</g>
	<g>
		<g>
			<g>
				<g>
					<path fill="#FFFFFF" d="M497.271,175.865h7.383c2.332,0,4.099,0.182,5.3,0.544c1.201,0.363,2.171,1.098,2.909,2.205
						c0.738,1.107,1.107,2.89,1.107,5.349c0,1.663-0.261,2.822-0.782,3.478c-0.521,0.656-1.55,1.16-3.085,1.511
						c1.711,0.387,2.871,1.029,3.48,1.926s0.914,2.272,0.914,4.125v2.638c0,1.923-0.22,3.348-0.659,4.274s-1.14,1.56-2.101,1.899
						c-0.961,0.34-2.93,0.51-5.906,0.51h-8.561V175.865z M504.671,180.734v6.328c0.316-0.012,0.562-0.018,0.738-0.018
						c0.727,0,1.189-0.179,1.389-0.536s0.299-1.38,0.299-3.067c0-0.891-0.082-1.515-0.246-1.872s-0.378-0.583-0.642-0.677
						S505.433,180.746,504.671,180.734z M504.671,191.492v7.963c1.043-0.035,1.708-0.199,1.995-0.492s0.431-1.014,0.431-2.162
						v-2.654c0-1.219-0.129-1.957-0.387-2.215S505.772,191.527,504.671,191.492z"/>
					<path fill="#FFFFFF" d="M534.062,192.529c0,2.859-0.067,4.884-0.202,6.073s-0.557,2.276-1.266,3.261s-1.667,1.74-2.874,2.268
						s-2.613,0.791-4.219,0.791c-1.523,0-2.892-0.249-4.104-0.747s-2.188-1.245-2.927-2.241s-1.178-2.08-1.318-3.252
						s-0.211-3.223-0.211-6.152v-4.869c0-2.859,0.067-4.884,0.202-6.073s0.557-2.276,1.266-3.261s1.667-1.74,2.874-2.268
						s2.613-0.791,4.219-0.791c1.523,0,2.892,0.249,4.104,0.747s2.188,1.245,2.927,2.241s1.178,2.08,1.318,3.252
						s0.211,3.223,0.211,6.152V192.529z M526.661,183.177c0-1.324-0.073-2.171-0.22-2.54s-0.448-0.554-0.905-0.554
						c-0.387,0-0.683,0.149-0.888,0.448s-0.308,1.181-0.308,2.646v13.289c0,1.652,0.067,2.672,0.202,3.059s0.448,0.58,0.94,0.58
						c0.504,0,0.826-0.223,0.967-0.668s0.211-1.506,0.211-3.182V183.177z"/>
					<path fill="#FFFFFF" d="M552.589,175.865l-5.396,18.158v10.301h-6.855v-10.301l-5.203-18.158h6.798
						c1.062,5.555,1.662,9.293,1.798,11.215c0.41-3.036,1.097-6.775,2.062-11.215H552.589z"/>
					<path fill="#FFFFFF" d="M566.646,175.865l4.232,28.459h-7.562l-0.397-5.115h-2.647l-0.445,5.115h-7.65l3.775-28.459H566.646z
						 M562.725,194.164c-0.375-3.224-0.75-7.208-1.127-11.953c-0.754,5.45-1.228,9.434-1.42,11.953H562.725z"/>
					<path fill="#FFFFFF" d="M589.415,188.257h-7.4v-4.946c0-1.438-0.079-2.336-0.237-2.692s-0.507-0.535-1.046-0.535
						c-0.609,0-0.996,0.217-1.16,0.65s-0.246,1.371-0.246,2.812v13.219c0,1.383,0.082,2.285,0.246,2.707s0.533,0.633,1.107,0.633
						c0.551,0,0.911-0.211,1.081-0.634s0.255-1.416,0.255-2.978v-3.577h7.4v1.109c0,2.946-0.208,5.035-0.624,6.267
						c-0.416,1.232-1.336,2.312-2.76,3.239c-1.424,0.927-3.179,1.391-5.265,1.391c-2.168,0-3.955-0.393-5.361-1.178
						s-2.338-1.872-2.795-3.261s-0.686-3.478-0.686-6.267v-8.314c0-2.051,0.07-3.589,0.211-4.614s0.56-2.013,1.257-2.962
						s1.664-1.696,2.9-2.241s2.657-0.817,4.263-0.817c2.18,0,3.979,0.421,5.396,1.264c1.418,0.842,2.35,1.893,2.795,3.151
						s0.668,3.215,0.668,5.872V188.257z"/>
					<path fill="#FFFFFF" d="M604.861,175.865l4.232,28.459h-7.562l-0.397-5.115h-2.647l-0.445,5.115h-7.65l3.775-28.459H604.861z
						 M605.728,170.205l-5.783,4.764h-3.568l3.094-4.764H605.728z M600.939,194.164c-0.375-3.224-0.75-7.208-1.127-11.953
						c-0.754,5.45-1.228,9.434-1.42,11.953H600.939z"/>
				</g>
			</g>
		</g>
	</g>
	<g>
		<g>
			<path fill="#F2961C" d="M498.217,225.136v4.156h-1.681v-12.987h3.685c1.045,0.141,1.927,0.571,2.646,1.291
				c0.86,0.866,1.291,1.905,1.291,3.117c0,1.223-0.431,2.266-1.291,3.129c-0.86,0.863-1.899,1.295-3.117,1.295H498.217z
				 M498.217,217.993v5.455h1.533c0.747,0,1.387-0.267,1.92-0.799c0.533-0.533,0.799-1.178,0.799-1.936
				c0-0.752-0.266-1.393-0.799-1.924c-0.533-0.53-1.173-0.795-1.92-0.795H498.217z"/>
			<path fill="#F2961C" d="M512.445,226.427l1.68,0.601c-0.411,0.568-0.709,0.944-0.893,1.128c-0.904,0.904-1.994,1.355-3.271,1.355
				c-1.271,0-2.359-0.452-3.263-1.355s-1.355-1.994-1.355-3.271c0-1.277,0.452-2.368,1.355-3.271
				c0.903-0.903,1.991-1.355,3.263-1.355c1.277,0,2.367,0.452,3.271,1.355c0.184,0.184,0.481,0.555,0.893,1.112l-1.68,0.617
				c-0.217-0.265-0.363-0.436-0.438-0.511c-0.563-0.563-1.245-0.844-2.046-0.844c-0.795,0-1.476,0.283-2.041,0.848
				s-0.848,1.249-0.848,2.05c0,0.795,0.282,1.476,0.848,2.041s1.246,0.848,2.041,0.848c0.801,0,1.486-0.281,2.055-0.844
				C512.085,226.854,512.229,226.687,512.445,226.427z"/>
			<path fill="#F2961C" d="M517.307,216.305c2.11,0.011,3.756,0.608,4.936,1.793c1.293,1.304,1.939,2.871,1.939,4.7
				c0,1.834-0.646,3.401-1.939,4.7c-1.18,1.185-2.825,1.783-4.936,1.794h-1.233v-12.987H517.307z M517.754,218.018v9.57
				c1.336,0,2.432-0.43,3.287-1.291c0.963-0.963,1.444-2.129,1.444-3.499c0-1.363-0.481-2.529-1.444-3.498
				C520.186,218.445,519.09,218.018,517.754,218.018z"/>
			<path fill="#F2961C" d="M537.68,216.305h1.47v7.8h1.145v1.68h-1.145v3.506h-1.681v-3.506h-5.316L537.68,216.305z
				 M537.469,220.096l-2.395,4.01h2.395V220.096z"/>
			<path fill="#F2961C" d="M548.955,216.305v12.987h-1.681v-10.795h-1.242l1.704-2.191H548.955z"/>
			<path fill="#F2961C" d="M556.109,227.385c0.23,0.227,0.346,0.503,0.346,0.828c0,0.335-0.115,0.617-0.346,0.844
				c-0.23,0.227-0.507,0.341-0.832,0.341c-0.318,0-0.595-0.114-0.828-0.341c-0.232-0.228-0.349-0.509-0.349-0.844
				c0-0.325,0.116-0.601,0.349-0.828c0.233-0.228,0.51-0.341,0.828-0.341C555.603,227.043,555.879,227.157,556.109,227.385z"/>
			<path fill="#F2961C" d="M564.506,224.316c-0.48,0.52-1.279,0.779-2.395,0.779c-1.119,0-2.051-0.371-2.791-1.112
				c-0.898-0.903-1.348-1.994-1.348-3.271c0-1.271,0.449-2.358,1.348-3.259c0.897-0.901,1.985-1.352,3.262-1.352
				c1.271,0,2.359,0.449,3.264,1.348c0.865,0.871,1.301,2.081,1.307,3.628v0.024c0,1.531-0.414,2.879-1.242,4.042
				c-0.833,1.169-1.959,2.552-3.376,4.148h-2.208C562.291,227.257,563.684,225.599,564.506,224.316z M565.48,220.712
				c0-0.801-0.283-1.482-0.848-2.045c-0.566-0.562-1.25-0.844-2.051-0.844c-0.795,0-1.476,0.282-2.041,0.844
				c-0.565,0.563-0.848,1.245-0.848,2.045s0.282,1.483,0.848,2.045c0.565,0.563,1.246,0.844,2.041,0.844
				c0.801,0,1.484-0.281,2.051-0.844C565.197,222.195,565.48,221.513,565.48,220.712z"/>
			<path fill="#F2961C" d="M574.677,216.305h1.47v7.8h1.145v1.68h-1.145v3.506h-1.681v-3.506h-5.316L574.677,216.305z
				 M574.466,220.096l-2.395,4.01h2.395V220.096z"/>
			<path fill="#F2961C" d="M585.951,216.305v12.987h-1.68v-10.795h-1.242l1.705-2.191H585.951z"/>
			<path fill="#27515D" d="M499.166,236.253c0.752,0,1.396,0.267,1.932,0.799c0.535,0.533,0.804,1.176,0.804,1.928
				c0,0.774-0.39,1.253-1.169,1.437c0.562,0.082,1.203,0.482,1.92,1.202s1.075,1.715,1.075,2.987s-0.446,2.37-1.339,3.295
				c-0.84,0.872-1.681,1.312-2.525,1.323v0.016h-3.327v-12.987H499.166z M498.217,237.934v2.053h1.096
				c0.248-0.021,0.462-0.116,0.641-0.284c0.195-0.179,0.292-0.419,0.292-0.723c0-0.303-0.101-0.553-0.304-0.751
				c-0.203-0.197-0.462-0.296-0.775-0.296H498.217z M498.217,241.716v5.836h1.646v-0.024c0.347-0.021,0.777-0.3,1.291-0.836
				c0.568-0.584,0.853-1.28,0.853-2.086c0-0.795-0.283-1.476-0.849-2.042s-1.246-0.848-2.041-0.848H498.217z"/>
			<path fill="#27515D" d="M516.82,238.031c1.299,1.299,1.947,2.865,1.947,4.7s-0.648,3.401-1.947,4.7s-2.865,1.948-4.7,1.948
				c-1.834,0-3.401-0.649-4.699-1.948c-1.299-1.299-1.948-2.865-1.948-4.7s0.649-3.401,1.948-4.7
				c1.298-1.299,2.865-1.948,4.699-1.948C513.955,236.083,515.521,236.732,516.82,238.031z M512.12,237.779
				c-1.368,0-2.536,0.483-3.503,1.449c-0.965,0.966-1.448,2.133-1.448,3.502s0.484,2.538,1.453,3.506
				c0.968,0.969,2.135,1.453,3.498,1.453c1.369,0,2.536-0.484,3.503-1.453c0.966-0.968,1.449-2.137,1.449-3.506
				s-0.483-2.537-1.449-3.502C514.656,238.262,513.489,237.779,512.12,237.779z"/>
			<path fill="#27515D" d="M524.361,244.029l-4.489-7.776h1.933l3.393,5.876l3.4-5.876h1.939l-4.496,7.776v5.211h-1.68V244.029z"/>
			<path fill="#27515D" d="M536.39,236.253l4.724,12.987h-1.785l-1.672-4.594h-3.441l-1.664,4.594h-1.795l4.725-12.987H536.39z
				 M537.047,242.966l-1.111-3.044l-1.104,3.044H537.047z"/>
			<path fill="#27515D" d="M552.461,246.147l1.258,1.128c-1.537,1.402-3.162,2.103-4.878,2.103c-1.835,0-3.398-0.647-4.691-1.94
				c-1.294-1.293-1.94-2.857-1.94-4.692c0-1.829,0.646-3.393,1.94-4.691c1.293-1.299,2.856-1.948,4.691-1.948
				c1.716,0,3.341,0.701,4.878,2.103l-1.258,1.145c-1.158-1.028-2.365-1.542-3.62-1.542c-1.358,0-2.521,0.482-3.486,1.445
				c-0.966,0.963-1.448,2.127-1.448,3.49c0,1.369,0.482,2.536,1.448,3.499c0.966,0.963,2.128,1.445,3.486,1.445
				C550.096,247.69,551.303,247.176,552.461,246.147z"/>
			<path fill="#27515D" d="M560.562,236.253l4.724,12.987H563.5l-1.672-4.594h-3.441l-1.664,4.594h-1.794l4.724-12.987H560.562z
				 M560.603,233.185h2.046l-2.209,2.265h-1.598L560.603,233.185z M561.219,242.966l-1.111-3.044l-1.104,3.044H561.219z"/>
		</g>
	</g>
	<g>
		<g>
			<polyline fill="none" stroke="#FFFFFF" stroke-width="2" points="277.186,165.849 405.494,165.849 405.451,185.55 
				486.043,185.55 			"/>
			<g>
				<circle fill="#FFFFFF" cx="277.299" cy="165.849" r="2.256"/>
			</g>
		</g>
	</g>
</g>
</svg>
