<?xml version="1.0" encoding="utf-8"?>
<!-- Generator: Adobe Illustrator 16.0.0, SVG Export Plug-In . SVG Version: 6.00 Build 0)  -->
<!DOCTYPE svg PUBLIC "-//W3C//DTD SVG 1.1//EN" "http://www.w3.org/Graphics/SVG/1.1/DTD/svg11.dtd">
<svg version="1.1" id="Capa_1" xmlns="http://www.w3.org/2000/svg" xmlns:xlink="http://www.w3.org/1999/xlink" x="0px" y="0px"
	 width="197.461px" height="39.795px" viewBox="0 84.473 197.461 39.795" enable-background="new 0 84.473 197.461 39.795"
	 xml:space="preserve">
<g>
	<polygon opacity="0.7" fill="#FFFFFF" enable-background="new    " points="0,87.205 197.461,84.473 197.461,124.268 
		25.25,124.249 	"/>
	<g>
		<g>
			<path fill="#331842" d="M65.084,89.963h1.952c1.65,0,2.729,0.194,3.236,0.581c0.506,0.388,0.76,1.274,0.76,2.661v7.92
				c0,1.381-0.258,2.266-0.773,2.656c-0.515,0.39-1.59,0.586-3.223,0.586h-1.952V89.963z M66.748,91.028v12.275h0.537
				c0.804,0,1.334-0.099,1.592-0.298c0.257-0.198,0.386-0.636,0.386-1.313v-9.023c0-0.684-0.131-1.128-0.393-1.333
				c-0.262-0.205-0.79-0.308-1.585-0.308H66.748z"/>
			<path fill="#331842" d="M73.966,89.963h1.769v14.404h-1.769V89.963z"/>
			<path fill="#331842" d="M83.727,92.249v1.377h-1.743v-1.338c0-0.566-0.079-0.955-0.236-1.167
				c-0.157-0.211-0.437-0.317-0.838-0.317c-0.384,0-0.655,0.119-0.812,0.356c-0.157,0.238-0.236,0.659-0.236,1.265v0.703
				c0,0.293,0.055,0.595,0.164,0.903c0.109,0.31,0.269,0.601,0.479,0.874l2.174,2.861c0.367,0.482,0.633,0.937,0.799,1.362
				c0.166,0.427,0.249,0.868,0.249,1.323v0.977c0,1.25-0.212,2.094-0.636,2.529c-0.424,0.437-1.177,0.654-2.26,0.654
				c-1.057,0-1.793-0.176-2.208-0.527s-0.622-1.016-0.622-1.992v-1.602h1.755v1.553c0,0.586,0.079,0.983,0.236,1.191
				c0.157,0.209,0.445,0.312,0.865,0.312c0.428,0,0.723-0.118,0.884-0.356c0.162-0.237,0.242-0.76,0.242-1.567v-0.996
				c0-0.371-0.046-0.708-0.137-1.011c-0.092-0.303-0.226-0.577-0.4-0.825l-2.306-3.066c-0.323-0.41-0.57-0.801-0.74-1.172
				c-0.17-0.371-0.255-0.693-0.255-0.967v-0.84c0-1.119,0.207-1.899,0.622-2.339c0.415-0.44,1.129-0.659,2.142-0.659
				c1.065,0,1.801,0.173,2.208,0.518C83.523,90.612,83.727,91.272,83.727,92.249z"/>
			<path fill="#331842" d="M84.788,89.963h5.672v1.143h-1.991v13.262h-1.69V91.106h-1.991V89.963z"/>
			<path fill="#331842" d="M92.202,89.963h2.542c1.31,0,2.196,0.137,2.659,0.41c0.463,0.273,0.694,0.766,0.694,1.475v3.262
				c0,0.6-0.153,1.022-0.458,1.27c-0.306,0.248-0.847,0.397-1.625,0.449c0.83,0.039,1.406,0.183,1.729,0.43
				c0.323,0.248,0.484,0.678,0.484,1.289v5.82H96.46v-5.381c0-0.677-0.129-1.116-0.387-1.318c-0.257-0.201-0.788-0.303-1.591-0.303
				h-0.616v7.002h-1.664V89.963z M93.866,91.028v5.264h0.589c0.76,0,1.266-0.099,1.52-0.298c0.253-0.198,0.38-0.64,0.38-1.323
				v-2.002c0-0.689-0.127-1.136-0.38-1.338c-0.254-0.201-0.76-0.303-1.52-0.303H93.866z"/>
			<path fill="#331842" d="M101.137,89.963h1.769v14.404h-1.769V89.963z"/>
			<path fill="#331842" d="M105.854,89.963h2.541c1.311,0,2.195,0.137,2.66,0.41c0.463,0.273,0.693,0.766,0.693,1.475v3.262
				c0,0.6-0.152,1.022-0.457,1.27c-0.307,0.248-0.848,0.397-1.625,0.449c0.83,0.039,1.405,0.183,1.729,0.43
				c0.322,0.248,0.484,0.678,0.484,1.289v3.936c0,0.71-0.231,1.201-0.693,1.475c-0.463,0.273-1.35,0.41-2.66,0.41h-2.672V89.963z
				 M107.517,91.028v5.264h0.589c0.76,0,1.268-0.099,1.52-0.298c0.254-0.198,0.381-0.64,0.381-1.323v-2.002
				c0-0.689-0.127-1.136-0.381-1.338c-0.252-0.201-0.76-0.303-1.52-0.303H107.517z M107.517,97.366v5.938h0.616
				c0.804,0,1.334-0.099,1.592-0.298c0.257-0.198,0.386-0.636,0.386-1.313v-2.705c0-0.677-0.129-1.116-0.386-1.318
				c-0.258-0.201-0.788-0.303-1.592-0.303L107.517,97.366L107.517,97.366z"/>
			<path fill="#331842" d="M114.709,89.963h1.742v11.66c0,0.749,0.096,1.254,0.289,1.514c0.191,0.261,0.532,0.391,1.021,0.391
				c0.48,0,0.814-0.13,1.002-0.391c0.188-0.26,0.281-0.765,0.281-1.514v-11.66h1.744v11.465c0,1.237-0.224,2.077-0.668,2.521
				c-0.447,0.443-1.242,0.664-2.386,0.664c-1.126,0-1.913-0.225-2.358-0.674s-0.668-1.285-0.668-2.51V89.963L114.709,89.963z"/>
			<path fill="#331842" d="M129.25,92.249v1.377h-1.756v-1.338c0-0.56-0.08-0.947-0.242-1.162c-0.16-0.215-0.446-0.322-0.857-0.322
				c-0.375,0-0.639,0.122-0.786,0.366c-0.149,0.244-0.223,0.757-0.223,1.538v8.916c0,0.801,0.079,1.322,0.235,1.562
				c0.157,0.241,0.445,0.361,0.864,0.361c0.358,0,0.616-0.113,0.772-0.342c0.158-0.228,0.236-0.615,0.236-1.162v-1.553h1.756v1.602
				c0,0.983-0.207,1.649-0.617,1.997c-0.409,0.349-1.143,0.522-2.199,0.522c-1.04,0-1.766-0.225-2.176-0.674
				c-0.41-0.449-0.615-1.285-0.615-2.51v-8.525c0-1.217,0.205-2.047,0.615-2.49c0.41-0.442,1.136-0.664,2.176-0.664
				c1.064,0,1.801,0.173,2.207,0.518C129.047,90.612,129.25,91.272,129.25,92.249z"/>
			<path fill="#331842" d="M131.426,89.963h1.769v14.404h-1.769V89.963z"/>
			<path fill="#331842" d="M142.142,92.903v8.525c0,1.237-0.224,2.077-0.668,2.52c-0.445,0.443-1.24,0.664-2.386,0.664
				c-1.125,0-1.912-0.225-2.356-0.674c-0.446-0.449-0.668-1.285-0.668-2.51v-8.525c0-1.211,0.226-2.039,0.674-2.485
				c0.45-0.445,1.243-0.669,2.378-0.669c1.137,0,1.924,0.222,2.365,0.664C141.92,90.856,142.142,91.686,142.142,92.903z
				 M140.399,92.708c0-0.729-0.098-1.229-0.288-1.499c-0.192-0.27-0.532-0.405-1.022-0.405c-0.479,0-0.813,0.132-1.002,0.396
				c-0.188,0.264-0.28,0.767-0.28,1.509v8.916c0,0.749,0.096,1.254,0.288,1.514c0.191,0.261,0.531,0.391,1.021,0.391
				c0.479,0,0.813-0.13,1.002-0.391c0.188-0.26,0.281-0.765,0.281-1.514V92.708L140.399,92.708z M139.521,86.477h1.847l-1.716,2.178
				h-1.284L139.521,86.477z"/>
			<path fill="#331842" d="M145.077,89.963h2.279l2.764,13.545h0.026l-0.249-13.545h1.507v14.404h-2.306l-2.738-13.359h-0.053
				l0.236,13.359h-1.469V89.963H145.077z"/>
			<path fill="#331842" d="M76.259,110.139v0.742h-1.742v-0.938c0-0.729-0.103-1.229-0.308-1.499
				c-0.206-0.27-0.562-0.405-1.068-0.405c-0.489,0-0.834,0.14-1.035,0.42s-0.302,0.775-0.302,1.484v8.896
				c0,0.762,0.11,1.276,0.329,1.543c0.22,0.267,0.61,0.4,1.172,0.4c0.167,0,0.351-0.011,0.553-0.034s0.421-0.057,0.658-0.103
				l0.013-5.059h-1.494v-1.064h3.223v6.836c-0.532,0.163-1.052,0.285-1.559,0.366c-0.507,0.082-1.018,0.122-1.533,0.122
				c-1.152,0-1.958-0.226-2.417-0.679c-0.458-0.453-0.688-1.288-0.688-2.505v-8.525c0-1.211,0.227-2.04,0.681-2.485
				c0.454-0.445,1.262-0.669,2.423-0.669c1.153,0,1.957,0.22,2.411,0.659C76.032,108.083,76.259,108.915,76.259,110.139z"/>
			<path fill="#331842" d="M79.154,107.199h4.611v1.143h-2.947v5.186h2.816v1.133h-2.816v5.801h3.026v1.143h-4.69V107.199z"/>
			<path fill="#331842" d="M92.242,110.139v8.525c0,1.237-0.223,2.077-0.668,2.52c-0.446,0.443-1.241,0.664-2.384,0.664
				c-1.127,0-1.913-0.225-2.358-0.674c-0.445-0.449-0.668-1.286-0.668-2.51v-8.525c0-1.211,0.225-2.04,0.675-2.485
				c0.449-0.446,1.242-0.669,2.378-0.669c1.135,0,1.923,0.221,2.364,0.664S92.242,108.921,92.242,110.139z M90.499,109.943
				c0-0.729-0.096-1.229-0.288-1.499s-0.533-0.405-1.021-0.405c-0.48,0-0.814,0.132-1.002,0.396s-0.282,0.767-0.282,1.509v8.916
				c0,0.749,0.096,1.253,0.288,1.514c0.192,0.26,0.533,0.391,1.022,0.391c0.48,0,0.814-0.13,1.002-0.391
				c0.188-0.26,0.281-0.765,0.281-1.514V109.943z"/>
			<path fill="#331842" d="M101.293,110.139v0.742h-1.742v-0.938c0-0.729-0.102-1.229-0.307-1.499
				c-0.207-0.27-0.563-0.405-1.069-0.405c-0.489,0-0.834,0.14-1.035,0.42c-0.201,0.28-0.302,0.775-0.302,1.484v8.896
				c0,0.762,0.11,1.276,0.329,1.543c0.22,0.267,0.61,0.4,1.172,0.4c0.167,0,0.351-0.011,0.553-0.034s0.421-0.057,0.658-0.103
				l0.013-5.059H98.07v-1.064h3.224v6.836c-0.532,0.163-1.053,0.285-1.56,0.366c-0.507,0.082-1.018,0.122-1.533,0.122
				c-1.152,0-1.958-0.226-2.417-0.679c-0.458-0.453-0.688-1.288-0.688-2.505v-8.525c0-1.211,0.227-2.04,0.681-2.485
				c0.454-0.445,1.262-0.669,2.423-0.669c1.153,0,1.957,0.22,2.411,0.659C101.067,108.083,101.293,108.915,101.293,110.139z"/>
			<path fill="#331842" d="M104.189,107.199h2.542c1.311,0,2.195,0.137,2.66,0.41c0.463,0.273,0.693,0.765,0.693,1.475v3.262
				c0,0.599-0.152,1.022-0.459,1.27c-0.306,0.248-0.847,0.397-1.623,0.449c0.828,0.039,1.406,0.182,1.729,0.43
				c0.323,0.248,0.484,0.677,0.484,1.289v5.82h-1.769v-5.381c0-0.677-0.129-1.117-0.387-1.318c-0.259-0.201-0.788-0.303-1.593-0.303
				h-0.614v7.002h-1.664V107.199z M105.854,108.264v5.264h0.589c0.761,0,1.267-0.099,1.521-0.298
				c0.252-0.199,0.379-0.64,0.379-1.323v-2.002c0-0.69-0.125-1.136-0.379-1.338c-0.254-0.202-0.76-0.303-1.521-0.303H105.854z"/>
			<path fill="#331842" d="M114.762,107.199h2.438l2.791,14.404h-1.796l-0.668-4.004h-3.17l-0.721,4.004h-1.755L114.762,107.199z
				 M115.915,108.264l-1.401,8.281h2.79l-1.311-8.281H115.915z M116.347,103.713h1.847l-1.716,2.178h-1.284L116.347,103.713z"/>
			<path fill="#331842" d="M121.756,107.199h4.48v1.143h-2.816v5.225h2.711v1.133h-2.711v6.904h-1.664V107.199L121.756,107.199z"/>
			<path fill="#331842" d="M128.282,107.199h1.768v14.404h-1.768V107.199z"/>
			<path fill="#331842" d="M138.526,109.484v1.377h-1.755v-1.338c0-0.56-0.081-0.947-0.242-1.162
				c-0.161-0.215-0.448-0.322-0.858-0.322c-0.375,0-0.637,0.122-0.785,0.366c-0.148,0.244-0.223,0.757-0.223,1.538v8.916
				c0,0.801,0.078,1.322,0.235,1.562c0.157,0.24,0.444,0.361,0.864,0.361c0.357,0,0.615-0.114,0.773-0.342
				c0.156-0.228,0.235-0.615,0.235-1.162v-1.553h1.755v1.602c0,0.983-0.206,1.649-0.615,1.997c-0.412,0.348-1.145,0.522-2.201,0.522
				c-1.041,0-1.765-0.225-2.176-0.674c-0.41-0.449-0.615-1.286-0.615-2.51v-8.525c0-1.217,0.205-2.047,0.615-2.49
				c0.411-0.443,1.135-0.664,2.176-0.664c1.064,0,1.801,0.172,2.207,0.518C138.324,107.847,138.526,108.508,138.526,109.484z"/>
			<path fill="#331842" d="M142.338,107.199h2.437l2.79,14.404h-1.795l-0.668-4.004h-3.17l-0.721,4.004h-1.756L142.338,107.199z
				 M143.491,108.264l-1.4,8.281h2.789l-1.31-8.281H143.491z"/>
		</g>
	</g>
</g>
</svg>
