<?xml version="1.0" encoding="utf-8"?>
<!-- Generator: Adobe Illustrator 22.0.1, SVG Export Plug-In . SVG Version: 6.00 Build 0)  -->
<svg version="1.1" id="Capa_1" xmlns="http://www.w3.org/2000/svg" xmlns:xlink="http://www.w3.org/1999/xlink" x="0px" y="0px"
	 viewBox="0 0 1277.9 601.8" style="enable-background:new 0 0 1277.9 601.8;" xml:space="preserve">
<style type="text/css">
	.st0{opacity:0.9;fill:#FFFFFF;enable-background:new    ;}
	.st1{fill:#F2961C;}
	.st2{fill:#A0C219;}
	.st3{fill:#C6C6C6;}
	.st4{fill:#575756;}
	.st5{fill:#2C5A67;}
</style>
<g>
	<rect y="0" class="st0" width="1277.9" height="601.8"/>
	<g>
		<path class="st1" d="M174.5,40.1h5.6c3.6,0,6.1,0.2,7.4,0.5s2.2,0.9,2.9,1.6c0.7,0.8,1.1,1.6,1.2,2.5c0.2,0.9,0.2,2.8,0.2,5.5
			v10.1c0,2.6-0.1,4.3-0.4,5.2s-0.7,1.6-1.3,2.1c-0.6,0.5-1.4,0.8-2.2,1s-2.2,0.3-4,0.3h-9.5V40.1z M182,45v19c1.1,0,1.7-0.2,2-0.7
			s0.4-1.6,0.4-3.5V48.6c0-1.3,0-2.1-0.1-2.5s-0.3-0.6-0.6-0.8C183.4,45.1,182.9,45,182,45z"/>
		<path class="st1" d="M201.9,40.1v3.8h-7.4v-3.8H201.9z M201.9,45.3V69h-7.4V45.3H201.9z"/>
		<path class="st1" d="M219.2,52.8h-6.4v-1.3c0-1.1-0.1-1.8-0.2-2.1c-0.1-0.3-0.4-0.4-0.9-0.4c-0.4,0-0.7,0.1-0.9,0.4
			s-0.3,0.7-0.3,1.2c0,0.7,0.1,1.3,0.2,1.6s0.4,0.7,0.9,1.1s1.5,1,3.1,1.8c2.1,1,3.5,2,4.1,2.9c0.7,0.9,1,2.2,1,3.9
			c0,1.9-0.2,3.4-0.7,4.4s-1.3,1.7-2.5,2.3c-1.2,0.5-2.6,0.8-4.2,0.8c-1.8,0-3.4-0.3-4.7-0.9c-1.3-0.6-2.2-1.3-2.7-2.3
			c-0.5-1-0.7-2.4-0.7-4.4v-1.1h6.4v1.5c0,1.3,0.1,2.1,0.2,2.5c0.2,0.4,0.5,0.6,1,0.6c0.5,0,0.9-0.1,1.1-0.4
			c0.2-0.3,0.3-0.8,0.3-1.6c0-1.1-0.1-1.8-0.4-2.1c-0.3-0.3-1.7-1.1-4.2-2.5c-2.1-1.2-3.4-2.3-3.9-3.2c-0.5-1-0.7-2.1-0.7-3.5
			c0-1.9,0.2-3.3,0.7-4.2c0.5-0.9,1.3-1.6,2.5-2.1c1.2-0.5,2.6-0.7,4.2-0.7c1.6,0,2.9,0.2,4,0.6c1.1,0.4,1.9,0.9,2.5,1.6
			c0.6,0.7,0.9,1.3,1.1,1.8c0.1,0.6,0.2,1.4,0.2,2.6V52.8z"/>
		<path class="st1" d="M229.3,42.1v3.7h1.9v3.7h-1.9v12.7c0,1.6,0.1,2.4,0.2,2.6c0.2,0.2,0.8,0.3,2,0.3V69h-2.9
			c-1.6,0-2.8-0.1-3.5-0.2s-1.3-0.5-1.9-0.9c-0.5-0.5-0.9-1.1-1-1.7s-0.2-2.1-0.2-4.5v-12h-1.6v-3.7h1.6v-3.7H229.3z"/>
		<path class="st1" d="M240,45.3l-0.3,3.1c1-2.2,2.6-3.4,4.5-3.5v8.3c-1.3,0-2.3,0.2-2.9,0.5c-0.6,0.4-1,0.9-1.1,1.5
			c-0.1,0.6-0.2,2.1-0.2,4.4V69h-7.2V45.3H240z"/>
		<path class="st1" d="M253.3,40.1v3.8h-7.4v-3.8H253.3z M253.3,45.3V69h-7.4V45.3H253.3z"/>
		<path class="st1" d="M263.1,40.1v6.8c0.6-0.7,1.3-1.2,2-1.5c0.7-0.3,1.5-0.5,2.4-0.5c1,0,1.8,0.2,2.6,0.5c0.7,0.3,1.3,0.7,1.7,1.3
			c0.4,0.6,0.6,1.1,0.7,1.6c0.1,0.5,0.1,1.7,0.1,3.4v10.7c0,1.7-0.1,3-0.3,3.9s-0.8,1.6-1.6,2.2s-1.9,0.9-3,0.9
			c-0.8,0-1.6-0.2-2.4-0.6s-1.4-0.9-2-1.7l-0.5,1.8h-6.7V40.1H263.1z M265.3,52c0-1.2-0.1-2-0.2-2.4c-0.2-0.4-0.5-0.6-0.9-0.6
			c-0.4,0-0.7,0.2-0.9,0.5c-0.1,0.3-0.2,1.2-0.2,2.5v10.2c0,1.3,0.1,2.1,0.2,2.4c0.1,0.4,0.4,0.5,0.9,0.5c0.5,0,0.7-0.2,0.9-0.6
			c0.1-0.4,0.2-1.3,0.2-2.7L265.3,52L265.3,52z"/>
		<path class="st1" d="M291.4,45.3V69h-7.3l0.1-2c-0.5,0.8-1.1,1.4-1.8,1.8c-0.7,0.4-1.6,0.6-2.5,0.6c-1.1,0-2-0.2-2.7-0.6
			s-1.2-0.9-1.6-1.5c-0.3-0.6-0.5-1.3-0.6-2s-0.1-2-0.1-4.1v-16h7.2v16.1c0,1.8,0.1,2.9,0.2,3.3s0.4,0.5,0.9,0.5
			c0.5,0,0.9-0.2,1-0.5s0.2-1.5,0.2-3.4V45.3H291.4z"/>
		<path class="st1" d="M309.9,54.2h-6.8v-2.7c0-1-0.1-1.6-0.2-1.9c-0.2-0.3-0.4-0.5-0.9-0.5c-0.4,0-0.7,0.1-0.8,0.4
			c-0.1,0.3-0.2,1-0.2,2v11.2c0,0.8,0.1,1.5,0.3,1.9c0.2,0.4,0.5,0.6,0.9,0.6c0.5,0,0.8-0.2,1-0.7c0.2-0.4,0.3-1.3,0.3-2.5v-2.8h6.4
			c0,1.9-0.1,3.3-0.2,4.3s-0.5,1.9-1.2,2.9s-1.5,1.7-2.6,2.2c-1.1,0.5-2.4,0.8-4,0.8c-2,0-3.6-0.3-4.8-1c-1.2-0.7-2-1.7-2.5-2.9
			c-0.5-1.3-0.7-3-0.7-5.3v-6.7c0-2,0.2-3.5,0.6-4.5c0.4-1,1.3-1.9,2.6-2.7c1.3-0.8,2.9-1.2,4.8-1.2c1.9,0,3.5,0.4,4.8,1.2
			c1.3,0.8,2.2,1.8,2.7,3C309.7,50.3,309.9,52,309.9,54.2z"/>
		<path class="st1" d="M319.5,40.1v3.8H312v-3.8H319.5z M319.5,45.3V69H312V45.3H319.5z"/>
		<path class="st1" d="M338.4,53.6v5.8c0,2.1-0.1,3.7-0.3,4.7s-0.7,1.9-1.4,2.8s-1.6,1.5-2.7,1.9c-1.1,0.4-2.4,0.6-3.8,0.6
			c-1.6,0-2.9-0.2-4-0.5s-2-0.9-2.6-1.6c-0.6-0.7-1-1.6-1.3-2.6c-0.3-1-0.4-2.5-0.4-4.5v-6.1c0-2.2,0.2-3.9,0.7-5.2
			c0.5-1.2,1.3-2.2,2.6-3c1.2-0.7,2.8-1.1,4.7-1.1c1.6,0,3,0.2,4.2,0.7c1.2,0.5,2.1,1.1,2.7,1.9c0.6,0.8,1.1,1.6,1.3,2.4
			S338.4,51.9,338.4,53.6z M336.2,38.9l-5.9,4.8h-3.6l3.1-4.8H336.2z M331.1,51.8c0-1.2-0.1-2-0.2-2.3s-0.4-0.5-0.8-0.5
			s-0.7,0.2-0.9,0.5s-0.2,1.1-0.2,2.3v10.7c0,1.1,0.1,1.8,0.2,2.2s0.4,0.5,0.8,0.5c0.4,0,0.7-0.2,0.8-0.5c0.1-0.3,0.2-1,0.2-2
			L331.1,51.8L331.1,51.8z"/>
		<path class="st1" d="M348.1,45.3l-0.1,2.2c0.5-0.9,1.2-1.5,1.9-2s1.6-0.7,2.6-0.7c1.2,0,2.2,0.3,3,0.9s1.3,1.3,1.5,2.2
			c0.2,0.9,0.3,2.4,0.3,4.4V69h-7.2V52.6c0-1.6-0.1-2.6-0.2-3c-0.1-0.4-0.4-0.5-0.9-0.5c-0.5,0-0.8,0.2-1,0.6
			c-0.1,0.4-0.2,1.5-0.2,3.3v16h-7.2V45.3H348.1z"/>
		<path class="st1" d="M382.7,40.1V69h-7.2v-1.7c-0.7,0.7-1.4,1.3-2.2,1.6c-0.8,0.4-1.6,0.5-2.4,0.5c-1.1,0-2.1-0.3-2.9-0.9
			c-0.8-0.6-1.3-1.3-1.6-2c-0.2-0.8-0.3-2-0.3-3.8V51.6c0-1.8,0.1-3.1,0.3-3.9c0.2-0.8,0.8-1.4,1.6-2c0.8-0.6,1.8-0.9,3-0.9
			c0.9,0,1.7,0.2,2.5,0.5s1.4,0.8,2,1.4v-6.7L382.7,40.1L382.7,40.1z M375.4,51.2c0-0.9-0.1-1.5-0.2-1.7s-0.4-0.4-0.9-0.4
			c-0.4,0-0.7,0.1-0.9,0.4c-0.1,0.3-0.2,0.9-0.2,1.8v11.6c0,1,0.1,1.6,0.2,1.9s0.4,0.5,0.8,0.5c0.5,0,0.8-0.2,0.9-0.5
			c0.2-0.3,0.2-1.2,0.2-2.5L375.4,51.2L375.4,51.2z"/>
		<path class="st1" d="M401.6,57.5h-9.3v5.1c0,1.1,0.1,1.8,0.2,2.1c0.2,0.3,0.5,0.5,0.9,0.5c0.5,0,0.9-0.2,1.1-0.6
			c0.2-0.4,0.3-1.2,0.3-2.4v-3.1h6.8v1.7c0,1.5-0.1,2.6-0.3,3.4c-0.2,0.8-0.6,1.6-1.3,2.5s-1.5,1.6-2.6,2c-1,0.4-2.3,0.7-3.9,0.7
			c-1.5,0-2.9-0.2-4-0.7c-1.2-0.4-2.1-1-2.7-1.8s-1.1-1.6-1.3-2.5c-0.2-0.9-0.4-2.3-0.4-4v-6.9c0-2.1,0.3-3.7,0.8-4.9
			c0.6-1.2,1.5-2.1,2.7-2.7s2.7-1,4.4-1c2,0,3.7,0.4,5,1.2c1.3,0.8,2.2,1.8,2.8,3c0.5,1.3,0.8,3,0.8,5.3L401.6,57.5L401.6,57.5z
			 M394.3,53.7V52c0-1.2-0.1-2-0.2-2.4c-0.1-0.4-0.4-0.5-0.8-0.5c-0.5,0-0.8,0.2-0.9,0.5c-0.1,0.3-0.2,1.1-0.2,2.5v1.7L394.3,53.7
			L394.3,53.7z"/>
		<path class="st1" d="M417.8,40.1V69h-7.4V40.1H417.8z"/>
		<path class="st1" d="M426.8,54.5H420v-1.6c0-1.8,0.2-3.2,0.6-4.2s1.3-1.9,2.5-2.6c1.3-0.8,2.9-1.1,5-1.1c2.4,0,4.3,0.4,5.5,1.3
			s2,1.9,2.2,3.2c0.2,1.3,0.4,3.8,0.4,7.8V69h-7v-2.1c-0.4,0.8-1,1.5-1.7,1.9c-0.7,0.4-1.5,0.6-2.5,0.6c-1.3,0-2.4-0.4-3.5-1.1
			c-1.1-0.7-1.6-2.3-1.6-4.6v-1.9c0-1.8,0.3-3,0.8-3.6s1.9-1.4,4.2-2.2c2.4-0.9,3.6-1.6,3.8-1.9c0.2-0.3,0.2-1,0.2-2
			c0-1.2-0.1-2-0.3-2.4c-0.2-0.4-0.5-0.6-0.9-0.6c-0.5,0-0.8,0.2-0.9,0.5c-0.1,0.3-0.2,1.1-0.2,2.5L426.8,54.5L426.8,54.5z
			 M429.1,57.7c-1.2,0.8-1.8,1.6-2,2.1s-0.3,1.4-0.3,2.5c0,1.2,0.1,2,0.2,2.4s0.5,0.5,1,0.5c0.5,0,0.7-0.1,0.9-0.4
			c0.1-0.3,0.2-1,0.2-2.2V57.7z"/>
		<path class="st1" d="M452.5,45.3l-0.1,2.1c0.6-0.8,1.3-1.5,2.1-1.9s1.6-0.6,2.5-0.6c1.1,0,2.1,0.3,2.9,0.9s1.3,1.3,1.5,2.1
			s0.3,2.1,0.3,4v10c0,2.2-0.1,3.7-0.4,4.6c-0.3,0.9-0.8,1.6-1.6,2.2c-0.8,0.5-1.7,0.8-2.9,0.8c-0.9,0-1.7-0.2-2.5-0.6
			c-0.8-0.4-1.5-1-2.1-1.9v5.4h-7.2v-27H452.5z M454.6,52.2c0-1.5-0.1-2.3-0.2-2.7S454,49,453.5,49c-0.5,0-0.8,0.2-0.9,0.5
			c-0.1,0.4-0.2,1.2-0.2,2.6V62c0,1.4,0.1,2.3,0.2,2.7s0.5,0.5,0.9,0.5c0.5,0,0.8-0.2,0.9-0.5c0.1-0.3,0.2-1.1,0.2-2.4L454.6,52.2
			L454.6,52.2z"/>
		<path class="st1" d="M480.5,53.6v5.8c0,2.1-0.1,3.7-0.3,4.7s-0.7,1.9-1.4,2.8s-1.6,1.5-2.7,1.9c-1.1,0.4-2.4,0.6-3.8,0.6
			c-1.6,0-2.9-0.2-4-0.5s-2-0.9-2.6-1.6c-0.6-0.7-1-1.6-1.3-2.6c-0.3-1-0.4-2.5-0.4-4.5v-6.1c0-2.2,0.2-3.9,0.7-5.2
			c0.5-1.2,1.3-2.2,2.6-3c1.2-0.7,2.8-1.1,4.7-1.1c1.6,0,3,0.2,4.2,0.7c1.2,0.5,2.1,1.1,2.7,1.9c0.6,0.8,1.1,1.6,1.3,2.4
			S480.5,51.9,480.5,53.6z M473.3,51.8c0-1.2-0.1-2-0.2-2.3s-0.4-0.5-0.8-0.5s-0.7,0.2-0.9,0.5s-0.2,1.1-0.2,2.3v10.7
			c0,1.1,0.1,1.8,0.2,2.2s0.4,0.5,0.8,0.5c0.4,0,0.7-0.2,0.8-0.5c0.1-0.3,0.2-1,0.2-2L473.3,51.8L473.3,51.8z"/>
		<path class="st1" d="M490,40.1v6.8c0.6-0.7,1.3-1.2,2-1.5c0.7-0.3,1.5-0.5,2.4-0.5c1,0,1.8,0.2,2.6,0.5c0.7,0.3,1.3,0.7,1.7,1.3
			c0.4,0.6,0.6,1.1,0.7,1.6c0.1,0.5,0.1,1.7,0.1,3.4v10.7c0,1.7-0.1,3-0.3,3.9s-0.8,1.6-1.6,2.2s-1.9,0.9-3,0.9
			c-0.8,0-1.6-0.2-2.4-0.6s-1.4-0.9-2-1.7l-0.5,1.8h-6.7V40.1H490z M492.2,52c0-1.2-0.1-2-0.2-2.4c-0.2-0.4-0.5-0.6-0.9-0.6
			c-0.4,0-0.7,0.2-0.9,0.5c-0.1,0.3-0.2,1.2-0.2,2.5v10.2c0,1.3,0.1,2.1,0.2,2.4c0.1,0.4,0.4,0.5,0.9,0.5c0.5,0,0.7-0.2,0.9-0.6
			c0.1-0.4,0.2-1.3,0.2-2.7L492.2,52L492.2,52z"/>
		<path class="st1" d="M509.2,40.1V69h-7.4V40.1H509.2z"/>
		<path class="st1" d="M518.3,54.5h-6.8v-1.6c0-1.8,0.2-3.2,0.6-4.2s1.3-1.9,2.5-2.6c1.3-0.8,2.9-1.1,5-1.1c2.4,0,4.3,0.4,5.5,1.3
			s2,1.9,2.2,3.2c0.2,1.3,0.4,3.8,0.4,7.8V69h-7v-2.1c-0.4,0.8-1,1.5-1.7,1.9c-0.7,0.4-1.5,0.6-2.5,0.6c-1.3,0-2.4-0.4-3.5-1.1
			c-1.1-0.7-1.6-2.3-1.6-4.6v-1.9c0-1.8,0.3-3,0.8-3.6c0.6-0.6,1.9-1.4,4.2-2.2c2.4-0.9,3.6-1.6,3.8-1.9s0.2-1,0.2-2
			c0-1.2-0.1-2-0.3-2.4c-0.2-0.4-0.5-0.6-0.9-0.6c-0.5,0-0.8,0.2-0.9,0.5c-0.1,0.3-0.2,1.1-0.2,2.5L518.3,54.5L518.3,54.5z
			 M520.5,57.7c-1.2,0.8-1.8,1.6-2,2.1s-0.3,1.4-0.3,2.5c0,1.2,0.1,2,0.2,2.4s0.5,0.5,1,0.5c0.5,0,0.7-0.1,0.9-0.4
			c0.1-0.3,0.2-1,0.2-2.2V57.7z"/>
		<path class="st1" d="M546.2,54.2h-6.8v-2.7c0-1-0.1-1.6-0.2-1.9c-0.2-0.3-0.4-0.5-0.9-0.5c-0.4,0-0.7,0.1-0.8,0.4
			c-0.1,0.3-0.2,1-0.2,2v11.2c0,0.8,0.1,1.5,0.3,1.9c0.2,0.4,0.5,0.6,0.9,0.6c0.5,0,0.8-0.2,1-0.7c0.2-0.4,0.3-1.3,0.3-2.5v-2.8h6.4
			c0,1.9-0.1,3.3-0.2,4.3s-0.5,1.9-1.2,2.9s-1.5,1.7-2.6,2.2c-1.1,0.5-2.4,0.8-4,0.8c-2,0-3.6-0.3-4.8-1c-1.2-0.7-2-1.7-2.5-2.9
			c-0.5-1.3-0.7-3-0.7-5.3v-6.7c0-2,0.2-3.5,0.6-4.5c0.4-1,1.3-1.9,2.6-2.7c1.3-0.8,2.9-1.2,4.8-1.2c1.9,0,3.5,0.4,4.8,1.2
			c1.3,0.8,2.2,1.8,2.7,3C545.9,50.3,546.2,52,546.2,54.2z"/>
		<path class="st1" d="M555.7,40.1v3.8h-7.4v-3.8H555.7z M555.7,45.3V69h-7.4V45.3H555.7z"/>
		<path class="st1" d="M574.6,53.6v5.8c0,2.1-0.1,3.7-0.3,4.7s-0.7,1.9-1.4,2.8s-1.6,1.5-2.7,1.9c-1.1,0.4-2.4,0.6-3.8,0.6
			c-1.6,0-2.9-0.2-4-0.5s-2-0.9-2.6-1.6c-0.6-0.7-1-1.6-1.3-2.6c-0.3-1-0.4-2.5-0.4-4.5v-6.1c0-2.2,0.2-3.9,0.7-5.2
			c0.5-1.2,1.3-2.2,2.6-3c1.2-0.7,2.8-1.1,4.7-1.1c1.6,0,3,0.2,4.2,0.7c1.2,0.5,2.1,1.1,2.7,1.9c0.6,0.8,1.1,1.6,1.3,2.4
			S574.6,51.9,574.6,53.6z M572.5,38.9l-5.9,4.8H563l3.1-4.8H572.5z M567.4,51.8c0-1.2-0.1-2-0.2-2.3s-0.4-0.5-0.8-0.5
			s-0.7,0.2-0.9,0.5s-0.2,1.1-0.2,2.3v10.7c0,1.1,0.1,1.8,0.2,2.2s0.4,0.5,0.8,0.5c0.4,0,0.7-0.2,0.8-0.5c0.1-0.3,0.2-1,0.2-2V51.8z
			"/>
		<path class="st1" d="M584.3,45.3l-0.1,2.2c0.5-0.9,1.2-1.5,1.9-2s1.6-0.7,2.6-0.7c1.2,0,2.2,0.3,3,0.9s1.3,1.3,1.5,2.2
			c0.2,0.9,0.3,2.4,0.3,4.4V69h-7.2V52.6c0-1.6-0.1-2.6-0.2-3c-0.1-0.4-0.4-0.5-0.9-0.5c-0.5,0-0.8,0.2-1,0.6
			c-0.1,0.4-0.2,1.5-0.2,3.3v16H577V45.3H584.3z"/>
		<path class="st1" d="M618.4,54.2h-6.8v-2.7c0-1-0.1-1.6-0.2-1.9c-0.2-0.3-0.4-0.5-0.9-0.5c-0.4,0-0.7,0.1-0.8,0.4
			c-0.1,0.3-0.2,1-0.2,2v11.2c0,0.8,0.1,1.5,0.3,1.9c0.2,0.4,0.5,0.6,0.9,0.6c0.5,0,0.8-0.2,1-0.7c0.2-0.4,0.3-1.3,0.3-2.5v-2.8h6.4
			c0,1.9-0.1,3.3-0.2,4.3s-0.5,1.9-1.2,2.9s-1.5,1.7-2.6,2.2c-1.1,0.5-2.4,0.8-4,0.8c-2,0-3.6-0.3-4.8-1c-1.2-0.7-2-1.7-2.5-2.9
			c-0.5-1.3-0.7-3-0.7-5.3v-6.7c0-2,0.2-3.5,0.6-4.5c0.4-1,1.3-1.9,2.6-2.7c1.3-0.8,2.9-1.2,4.8-1.2c1.9,0,3.5,0.4,4.8,1.2
			c1.3,0.8,2.2,1.8,2.7,3C618.2,50.3,618.4,52,618.4,54.2z"/>
		<path class="st1" d="M636.9,53.6v5.8c0,2.1-0.1,3.7-0.3,4.7s-0.7,1.9-1.4,2.8s-1.6,1.5-2.7,1.9c-1.1,0.4-2.4,0.6-3.8,0.6
			c-1.6,0-2.9-0.2-4-0.5s-2-0.9-2.6-1.6c-0.6-0.7-1-1.6-1.3-2.6c-0.3-1-0.4-2.5-0.4-4.5v-6.1c0-2.2,0.2-3.9,0.7-5.2
			c0.5-1.2,1.3-2.2,2.6-3c1.2-0.7,2.8-1.1,4.7-1.1c1.6,0,3,0.2,4.2,0.7c1.2,0.5,2.1,1.1,2.7,1.9c0.6,0.8,1.1,1.6,1.3,2.4
			S636.9,51.9,636.9,53.6z M629.7,51.8c0-1.2-0.1-2-0.2-2.3s-0.4-0.5-0.8-0.5s-0.7,0.2-0.9,0.5s-0.2,1.1-0.2,2.3v10.7
			c0,1.1,0.1,1.8,0.2,2.2s0.4,0.5,0.8,0.5c0.4,0,0.7-0.2,0.8-0.5c0.1-0.3,0.2-1,0.2-2V51.8z"/>
		<path class="st1" d="M646.6,45.3l-0.1,2.2c0.5-0.9,1.2-1.5,1.9-2s1.6-0.7,2.6-0.7c1.2,0,2.2,0.3,3,0.9s1.3,1.3,1.5,2.2
			c0.2,0.9,0.3,2.4,0.3,4.4V69h-7.2V52.6c0-1.6-0.1-2.6-0.2-3c-0.1-0.4-0.4-0.5-0.9-0.5c-0.5,0-0.8,0.2-1,0.6
			c-0.1,0.4-0.2,1.5-0.2,3.3v16h-7.2V45.3H646.6z"/>
		<path class="st1" d="M190.7,77.9v28.9h-7.2V105c-0.7,0.7-1.4,1.3-2.2,1.6c-0.8,0.4-1.6,0.5-2.4,0.5c-1.1,0-2.1-0.3-2.9-0.9
			c-0.8-0.6-1.3-1.3-1.6-2s-0.3-2-0.3-3.8V89.4c0-1.8,0.1-3.1,0.3-3.9c0.2-0.8,0.8-1.4,1.6-2c0.8-0.6,1.8-0.9,3-0.9
			c0.9,0,1.7,0.2,2.5,0.5s1.4,0.8,2,1.4v-6.7L190.7,77.9L190.7,77.9z M183.5,89c0-0.9-0.1-1.5-0.2-1.7c-0.1-0.3-0.4-0.4-0.9-0.4
			c-0.4,0-0.7,0.1-0.9,0.4c-0.1,0.3-0.2,0.9-0.2,1.8v11.6c0,1,0.1,1.6,0.2,1.9s0.4,0.5,0.8,0.5c0.5,0,0.8-0.2,0.9-0.5
			c0.2-0.3,0.2-1.2,0.2-2.5L183.5,89L183.5,89z"/>
		<path class="st1" d="M200.7,77.9v3.8h-7.4v-3.8H200.7z M200.7,83.1v23.7h-7.4V83.1H200.7z"/>
		<path class="st1" d="M218,90.6h-6.4v-1.3c0-1.1-0.1-1.8-0.2-2.1c-0.1-0.3-0.4-0.4-0.9-0.4c-0.4,0-0.7,0.1-0.9,0.4
			s-0.3,0.7-0.3,1.2c0,0.7,0.1,1.3,0.2,1.6s0.4,0.7,0.9,1.1s1.5,1,3.1,1.8c2.1,1,3.5,2,4.1,2.9c0.7,0.9,1,2.2,1,3.9
			c0,1.9-0.2,3.4-0.7,4.4s-1.3,1.7-2.5,2.3c-1.2,0.5-2.6,0.8-4.2,0.8c-1.8,0-3.4-0.3-4.7-0.9c-1.3-0.6-2.2-1.3-2.7-2.3
			c-0.5-1-0.7-2.4-0.7-4.4v-1.1h6.4v1.5c0,1.3,0.1,2.1,0.2,2.5c0.2,0.4,0.5,0.6,1,0.6c0.5,0,0.9-0.1,1.1-0.4
			c0.2-0.3,0.3-0.8,0.3-1.6c0-1.1-0.1-1.8-0.4-2.1c-0.3-0.3-1.7-1.1-4.2-2.5c-2.1-1.2-3.4-2.3-3.9-3.2c-0.5-1-0.7-2.1-0.7-3.5
			c0-1.9,0.2-3.3,0.7-4.2c0.5-0.9,1.3-1.6,2.5-2.1c1.2-0.5,2.6-0.7,4.2-0.7c1.6,0,2.9,0.2,4,0.6c1.1,0.4,1.9,0.9,2.5,1.6
			c0.6,0.7,0.9,1.3,1.1,1.8c0.1,0.6,0.2,1.4,0.2,2.6L218,90.6L218,90.6z"/>
		<path class="st1" d="M236.4,92h-6.8v-2.7c0-1-0.1-1.6-0.2-1.9c-0.2-0.3-0.4-0.5-0.9-0.5c-0.4,0-0.7,0.1-0.8,0.4
			c-0.1,0.3-0.2,1-0.2,2v11.2c0,0.8,0.1,1.5,0.3,1.9c0.2,0.4,0.5,0.6,0.9,0.6c0.5,0,0.8-0.2,1-0.7c0.2-0.4,0.3-1.3,0.3-2.5V97h6.4
			c0,1.9-0.1,3.3-0.2,4.3s-0.5,1.9-1.2,2.9s-1.5,1.7-2.6,2.2c-1.1,0.5-2.4,0.8-4,0.8c-2,0-3.6-0.3-4.8-1c-1.2-0.7-2-1.7-2.5-2.9
			c-0.5-1.3-0.7-3-0.7-5.3v-6.7c0-2,0.2-3.5,0.6-4.5c0.4-1,1.3-1.9,2.6-2.7c1.3-0.8,2.9-1.2,4.8-1.2c1.9,0,3.5,0.4,4.8,1.2
			c1.3,0.8,2.2,1.8,2.7,3C236.2,88.1,236.4,89.8,236.4,92z"/>
		<path class="st1" d="M245,92.2h-6.8v-1.6c0-1.8,0.2-3.2,0.6-4.2c0.4-1,1.3-1.9,2.5-2.6c1.3-0.8,2.9-1.1,5-1.1
			c2.4,0,4.3,0.4,5.5,1.3s2,1.9,2.2,3.2c0.2,1.3,0.4,3.8,0.4,7.8v11.9h-7v-2.1c-0.4,0.8-1,1.5-1.7,1.9c-0.7,0.4-1.5,0.6-2.5,0.6
			c-1.3,0-2.4-0.4-3.5-1.1c-1.1-0.7-1.6-2.3-1.6-4.6v-1.9c0-1.8,0.3-3,0.8-3.6s1.9-1.4,4.2-2.2c2.4-0.9,3.6-1.6,3.8-1.9
			c0.2-0.3,0.2-1,0.2-2c0-1.2-0.1-2-0.3-2.4c-0.2-0.4-0.5-0.6-0.9-0.6c-0.5,0-0.8,0.2-0.9,0.5c-0.1,0.3-0.2,1.1-0.2,2.5V92.2z
			 M247.3,95.5c-1.2,0.8-1.8,1.6-2,2.1s-0.3,1.4-0.3,2.5c0,1.2,0.1,2,0.2,2.4s0.5,0.5,1,0.5c0.5,0,0.7-0.1,0.9-0.4
			c0.1-0.3,0.2-1,0.2-2.2L247.3,95.5L247.3,95.5z"/>
		<path class="st1" d="M264.3,83.1l-0.1,2.1c0.6-0.8,1.3-1.5,2.1-1.9s1.6-0.6,2.5-0.6c1.1,0,2.1,0.3,2.9,0.9s1.3,1.3,1.5,2.1
			s0.3,2.1,0.3,4v10c0,2.2-0.1,3.7-0.4,4.6c-0.3,0.9-0.8,1.6-1.6,2.2c-0.8,0.5-1.7,0.8-2.9,0.8c-0.9,0-1.7-0.2-2.5-0.6
			c-0.8-0.4-1.5-1-2.1-1.9v5.4H257v-27H264.3z M266.3,90c0-1.5-0.1-2.3-0.2-2.7s-0.4-0.5-0.9-0.5c-0.5,0-0.8,0.2-0.9,0.5
			c-0.1,0.4-0.2,1.2-0.2,2.6v9.8c0,1.4,0.1,2.3,0.2,2.7s0.5,0.5,0.9,0.5c0.5,0,0.8-0.2,0.9-0.5c0.1-0.3,0.2-1.1,0.2-2.4L266.3,90
			L266.3,90z"/>
		<path class="st1" d="M282.4,92.2h-6.8v-1.6c0-1.8,0.2-3.2,0.6-4.2c0.4-1,1.3-1.9,2.5-2.6c1.3-0.8,2.9-1.1,5-1.1
			c2.4,0,4.3,0.4,5.5,1.3s2,1.9,2.2,3.2c0.2,1.3,0.4,3.8,0.4,7.8v11.9h-7v-2.1c-0.4,0.8-1,1.5-1.7,1.9c-0.7,0.4-1.5,0.6-2.5,0.6
			c-1.3,0-2.4-0.4-3.5-1.1c-1.1-0.7-1.6-2.3-1.6-4.6v-1.9c0-1.8,0.3-3,0.8-3.6s1.9-1.4,4.2-2.2c2.4-0.9,3.6-1.6,3.8-1.9
			c0.2-0.3,0.2-1,0.2-2c0-1.2-0.1-2-0.3-2.4c-0.2-0.4-0.5-0.6-0.9-0.6c-0.5,0-0.8,0.2-0.9,0.5c-0.1,0.3-0.2,1.1-0.2,2.5L282.4,92.2
			L282.4,92.2z M284.6,95.5c-1.2,0.8-1.8,1.6-2,2.1s-0.3,1.4-0.3,2.5c0,1.2,0.1,2,0.2,2.4s0.5,0.5,1,0.5c0.5,0,0.7-0.1,0.9-0.4
			c0.1-0.3,0.2-1,0.2-2.2V95.5z"/>
		<path class="st1" d="M310.3,92h-6.8v-2.7c0-1-0.1-1.6-0.2-1.9c-0.2-0.3-0.4-0.5-0.9-0.5c-0.4,0-0.7,0.1-0.8,0.4
			c-0.1,0.3-0.2,1-0.2,2v11.2c0,0.8,0.1,1.5,0.3,1.9c0.2,0.4,0.5,0.6,0.9,0.6c0.5,0,0.8-0.2,1-0.7c0.2-0.4,0.3-1.3,0.3-2.5V97h6.4
			c0,1.9-0.1,3.3-0.2,4.3s-0.5,1.9-1.2,2.9s-1.5,1.7-2.6,2.2c-1.1,0.5-2.4,0.8-4,0.8c-2,0-3.6-0.3-4.8-1c-1.2-0.7-2-1.7-2.5-2.9
			c-0.5-1.3-0.7-3-0.7-5.3v-6.7c0-2,0.2-3.5,0.6-4.5c0.4-1,1.3-1.9,2.6-2.7c1.3-0.8,2.9-1.2,4.8-1.2c1.9,0,3.5,0.4,4.8,1.2
			c1.3,0.8,2.2,1.8,2.7,3C310,88.1,310.3,89.8,310.3,92z"/>
		<path class="st1" d="M319.8,77.9v3.8h-7.4v-3.8H319.8z M319.8,83.1v23.7h-7.4V83.1H319.8z"/>
		<path class="st1" d="M338.8,77.9v28.9h-7.2V105c-0.7,0.7-1.4,1.3-2.2,1.6c-0.8,0.4-1.6,0.5-2.4,0.5c-1.1,0-2.1-0.3-2.9-0.9
			c-0.8-0.6-1.3-1.3-1.6-2c-0.2-0.8-0.3-2-0.3-3.8V89.4c0-1.8,0.1-3.1,0.3-3.9s0.8-1.4,1.6-2c0.8-0.6,1.8-0.9,3-0.9
			c0.9,0,1.7,0.2,2.5,0.5s1.4,0.8,2,1.4v-6.7L338.8,77.9L338.8,77.9z M331.6,89c0-0.9-0.1-1.5-0.2-1.7c-0.1-0.3-0.4-0.4-0.9-0.4
			c-0.4,0-0.7,0.1-0.9,0.4c-0.1,0.3-0.2,0.9-0.2,1.8v11.6c0,1,0.1,1.6,0.2,1.9s0.4,0.5,0.8,0.5c0.5,0,0.8-0.2,0.9-0.5
			c0.2-0.3,0.2-1.2,0.2-2.5L331.6,89L331.6,89z"/>
		<path class="st1" d="M347.8,92.2h-6.8v-1.6c0-1.8,0.2-3.2,0.6-4.2c0.4-1,1.3-1.9,2.5-2.6c1.3-0.8,2.9-1.1,5-1.1
			c2.4,0,4.3,0.4,5.5,1.3s2,1.9,2.2,3.2c0.2,1.3,0.4,3.8,0.4,7.8v11.9h-7v-2.1c-0.4,0.8-1,1.5-1.7,1.9c-0.7,0.4-1.5,0.6-2.5,0.6
			c-1.3,0-2.4-0.4-3.5-1.1c-1.1-0.7-1.6-2.3-1.6-4.6v-1.9c0-1.8,0.3-3,0.8-3.6s1.9-1.4,4.2-2.2c2.4-0.9,3.6-1.6,3.8-1.9
			c0.2-0.3,0.2-1,0.2-2c0-1.2-0.1-2-0.3-2.4c-0.2-0.4-0.5-0.6-0.9-0.6c-0.5,0-0.8,0.2-0.9,0.5c-0.1,0.3-0.2,1.1-0.2,2.5L347.8,92.2
			L347.8,92.2z M350.1,95.5c-1.2,0.8-1.8,1.6-2,2.1s-0.3,1.4-0.3,2.5c0,1.2,0.1,2,0.2,2.4s0.5,0.5,1,0.5c0.5,0,0.7-0.1,0.9-0.4
			c0.1-0.3,0.2-1,0.2-2.2V95.5z"/>
		<path class="st1" d="M376.2,77.9v28.9H369V105c-0.7,0.7-1.4,1.3-2.2,1.6c-0.8,0.4-1.6,0.5-2.4,0.5c-1.1,0-2.1-0.3-2.9-0.9
			c-0.8-0.6-1.3-1.3-1.6-2c-0.2-0.8-0.3-2-0.3-3.8V89.4c0-1.8,0.1-3.1,0.3-3.9s0.8-1.4,1.6-2c0.8-0.6,1.8-0.9,3-0.9
			c0.9,0,1.7,0.2,2.5,0.5s1.4,0.8,2,1.4v-6.7L376.2,77.9L376.2,77.9z M369,89c0-0.9-0.1-1.5-0.2-1.7c-0.1-0.3-0.4-0.4-0.9-0.4
			c-0.4,0-0.7,0.1-0.9,0.4c-0.1,0.3-0.2,0.9-0.2,1.8v11.6c0,1,0.1,1.6,0.2,1.9s0.4,0.5,0.8,0.5c0.5,0,0.8-0.2,0.9-0.5
			c0.2-0.3,0.2-1.2,0.2-2.5L369,89L369,89z"/>
		<path class="st1" d="M392.5,83.1l-0.1,2.1c0.6-0.8,1.3-1.5,2.1-1.9s1.6-0.6,2.5-0.6c1.1,0,2.1,0.3,2.9,0.9s1.3,1.3,1.5,2.1
			s0.3,2.1,0.3,4v10c0,2.2-0.1,3.7-0.4,4.6c-0.3,0.9-0.8,1.6-1.6,2.2c-0.8,0.5-1.7,0.8-2.9,0.8c-0.9,0-1.7-0.2-2.5-0.6
			c-0.8-0.4-1.5-1-2.1-1.9v5.4h-7.2v-27H392.5z M394.6,90c0-1.5-0.1-2.3-0.2-2.7s-0.4-0.5-0.9-0.5c-0.5,0-0.8,0.2-0.9,0.5
			c-0.1,0.4-0.2,1.2-0.2,2.6v9.8c0,1.4,0.1,2.3,0.2,2.7s0.5,0.5,0.9,0.5c0.5,0,0.8-0.2,0.9-0.5c0.1-0.3,0.2-1.1,0.2-2.4L394.6,90
			L394.6,90z"/>
		<path class="st1" d="M420.5,91.4v5.8c0,2.1-0.1,3.7-0.3,4.7s-0.7,1.9-1.4,2.8s-1.6,1.5-2.7,1.9c-1.1,0.4-2.4,0.6-3.8,0.6
			c-1.6,0-2.9-0.2-4-0.5s-2-0.9-2.6-1.6c-0.6-0.7-1-1.6-1.3-2.6c-0.3-1-0.4-2.5-0.4-4.5v-6.1c0-2.2,0.2-3.9,0.7-5.2
			c0.5-1.2,1.3-2.2,2.6-3c1.2-0.7,2.8-1.1,4.7-1.1c1.6,0,3,0.2,4.2,0.7c1.2,0.5,2.1,1.1,2.7,1.9c0.6,0.8,1.1,1.6,1.3,2.4
			S420.5,89.7,420.5,91.4z M413.3,89.6c0-1.2-0.1-2-0.2-2.3s-0.4-0.5-0.8-0.5s-0.7,0.2-0.9,0.5s-0.2,1.1-0.2,2.3v10.7
			c0,1.1,0.1,1.8,0.2,2.2s0.4,0.5,0.8,0.5c0.4,0,0.7-0.2,0.8-0.5c0.1-0.3,0.2-1,0.2-2L413.3,89.6L413.3,89.6z"/>
		<path class="st1" d="M430,83.1l-0.3,3.1c1-2.2,2.6-3.4,4.5-3.5V91c-1.3,0-2.3,0.2-2.9,0.5c-0.6,0.4-1,0.9-1.1,1.5
			c-0.1,0.6-0.2,2.1-0.2,4.4v9.3h-7.2V83.1H430z"/>
		<path class="st1" d="M458.7,83.1v18.2c0,2.5-0.1,4.1-0.2,4.8c-0.1,0.7-0.5,1.5-1.2,2.3c-0.7,0.8-1.6,1.4-2.9,1.8s-2.8,0.6-4.6,0.6
			c-2.3,0-4.1-0.4-5.5-1.2s-2.1-2.3-2.2-4.6h7c0,1,0.4,1.6,1.1,1.6c0.5,0,0.9-0.2,1.1-0.5s0.3-1,0.3-2v-1.8c-0.6,0.6-1.3,1-2,1.3
			s-1.4,0.4-2.1,0.4c-1.3,0-2.4-0.3-3.2-0.8c-0.8-0.5-1.4-1.2-1.7-2.1c-0.3-0.8-0.5-2.1-0.5-3.6V89c0-2.2,0.4-3.9,1.2-4.9
			s2-1.5,3.7-1.5c0.9,0,1.7,0.2,2.5,0.6c0.7,0.4,1.4,0.9,2,1.7l0.5-1.8H458.7z M451.5,89.4c0-1.1-0.1-1.8-0.2-2.1
			c-0.1-0.3-0.4-0.4-0.8-0.4c-0.4,0-0.7,0.2-0.9,0.5s-0.3,1-0.3,2v8c0,1.1,0.1,1.7,0.2,2.1c0.1,0.3,0.4,0.5,0.8,0.5
			c0.5,0,0.8-0.2,0.9-0.6c0.1-0.4,0.2-1.2,0.2-2.6L451.5,89.4L451.5,89.4z"/>
		<path class="st1" d="M468.5,83.1l-0.3,3.1c1-2.2,2.6-3.4,4.5-3.5V91c-1.3,0-2.3,0.2-2.9,0.5c-0.6,0.4-1,0.9-1.1,1.5
			c-0.1,0.6-0.2,2.1-0.2,4.4v9.3h-7.2V83.1H468.5z"/>
		<path class="st1" d="M490.9,83.1v23.7h-7.3l0.1-2c-0.5,0.8-1.1,1.4-1.8,1.8c-0.7,0.4-1.6,0.6-2.5,0.6c-1.1,0-2-0.2-2.7-0.6
			s-1.2-0.9-1.6-1.5c-0.3-0.6-0.5-1.3-0.6-2s-0.1-2-0.1-4.1v-16h7.2v16.1c0,1.8,0.1,2.9,0.2,3.3s0.4,0.5,0.9,0.5
			c0.5,0,0.9-0.2,1-0.5s0.2-1.5,0.2-3.4V83.1H490.9z"/>
		<path class="st1" d="M500.8,83.1l-0.1,2.1c0.6-0.8,1.3-1.5,2.1-1.9s1.6-0.6,2.5-0.6c1.1,0,2.1,0.3,2.9,0.9s1.3,1.3,1.5,2.1
			s0.3,2.1,0.3,4v10c0,2.2-0.1,3.7-0.4,4.6c-0.3,0.9-0.8,1.6-1.6,2.2c-0.8,0.5-1.7,0.8-2.9,0.8c-0.9,0-1.7-0.2-2.5-0.6
			c-0.8-0.4-1.5-1-2.1-1.9v5.4h-7.2v-27H500.8z M502.8,90c0-1.5-0.1-2.3-0.2-2.7s-0.4-0.5-0.9-0.5c-0.5,0-0.8,0.2-0.9,0.5
			c-0.1,0.4-0.2,1.2-0.2,2.6v9.8c0,1.4,0.1,2.3,0.2,2.7s0.5,0.5,0.9,0.5c0.5,0,0.8-0.2,0.9-0.5c0.1-0.3,0.2-1.1,0.2-2.4L502.8,90
			L502.8,90z"/>
		<path class="st1" d="M528.7,91.4v5.8c0,2.1-0.1,3.7-0.3,4.7s-0.7,1.9-1.4,2.8s-1.6,1.5-2.7,1.9c-1.1,0.4-2.4,0.6-3.8,0.6
			c-1.6,0-2.9-0.2-4-0.5s-2-0.9-2.6-1.6c-0.6-0.7-1-1.6-1.3-2.6c-0.3-1-0.4-2.5-0.4-4.5v-6.1c0-2.2,0.2-3.9,0.7-5.2
			c0.5-1.2,1.3-2.2,2.6-3c1.2-0.7,2.8-1.1,4.7-1.1c1.6,0,3,0.2,4.2,0.7c1.2,0.5,2.1,1.1,2.7,1.9c0.6,0.8,1.1,1.6,1.3,2.4
			S528.7,89.7,528.7,91.4z M521.5,89.6c0-1.2-0.1-2-0.2-2.3s-0.4-0.5-0.8-0.5s-0.7,0.2-0.9,0.5s-0.2,1.1-0.2,2.3v10.7
			c0,1.1,0.1,1.8,0.2,2.2s0.4,0.5,0.8,0.5c0.4,0,0.7-0.2,0.8-0.5c0.1-0.3,0.2-1,0.2-2V89.6z"/>
		<path class="st1" d="M545.8,90.6h-6.4v-1.3c0-1.1-0.1-1.8-0.2-2.1c-0.1-0.3-0.4-0.4-0.9-0.4c-0.4,0-0.7,0.1-0.9,0.4
			s-0.3,0.7-0.3,1.2c0,0.7,0,1.3,0.2,1.6s0.4,0.7,0.9,1.1s1.5,1,3.1,1.8c2.1,1,3.5,2,4.1,2.9c0.7,0.9,1,2.2,1,3.9
			c0,1.9-0.2,3.4-0.7,4.4s-1.3,1.7-2.5,2.3c-1.2,0.5-2.6,0.8-4.2,0.8c-1.8,0-3.4-0.3-4.7-0.9c-1.3-0.6-2.2-1.3-2.7-2.3
			c-0.5-1-0.7-2.4-0.7-4.4v-1.1h6.4v1.5c0,1.3,0.1,2.1,0.2,2.5c0.2,0.4,0.5,0.6,1,0.6c0.5,0,0.9-0.1,1.1-0.4
			c0.2-0.3,0.3-0.8,0.3-1.6c0-1.1-0.1-1.8-0.4-2.1c-0.3-0.3-1.7-1.1-4.2-2.5c-2.1-1.2-3.4-2.3-3.9-3.2c-0.5-1-0.7-2.1-0.7-3.5
			c0-1.9,0.2-3.3,0.7-4.2c0.5-0.9,1.3-1.6,2.5-2.1c1.2-0.5,2.6-0.7,4.2-0.7c1.6,0,2.9,0.2,4,0.6c1.1,0.4,1.9,0.9,2.5,1.6
			c0.6,0.7,0.9,1.3,1.1,1.8c0.1,0.6,0.2,1.4,0.2,2.6V90.6z"/>
		<path class="st1" d="M571.1,77.9v28.9h-7.2V105c-0.7,0.7-1.4,1.3-2.2,1.6c-0.8,0.4-1.6,0.5-2.4,0.5c-1.1,0-2.1-0.3-2.9-0.9
			c-0.8-0.6-1.3-1.3-1.6-2s-0.3-2-0.3-3.8V89.4c0-1.8,0.1-3.1,0.3-3.9s0.8-1.4,1.6-2c0.8-0.6,1.8-0.9,3-0.9c0.9,0,1.7,0.2,2.5,0.5
			s1.4,0.8,2,1.4v-6.7L571.1,77.9L571.1,77.9z M563.9,89c0-0.9-0.1-1.5-0.2-1.7c-0.1-0.3-0.4-0.4-0.9-0.4c-0.4,0-0.7,0.1-0.9,0.4
			c-0.1,0.3-0.2,0.9-0.2,1.8v11.6c0,1,0.1,1.6,0.2,1.9s0.4,0.5,0.8,0.5c0.5,0,0.8-0.2,0.9-0.5c0.2-0.3,0.2-1.2,0.2-2.5L563.9,89
			L563.9,89z"/>
		<path class="st1" d="M590,95.3h-9.3v5.1c0,1.1,0.1,1.8,0.2,2.1c0.2,0.3,0.5,0.5,0.9,0.5c0.5,0,0.9-0.2,1.1-0.6
			c0.2-0.4,0.3-1.2,0.3-2.4v-3.1h6.8v1.7c0,1.5-0.1,2.6-0.3,3.4c-0.2,0.8-0.6,1.6-1.3,2.5c-0.7,0.9-1.5,1.6-2.6,2
			c-1,0.4-2.3,0.7-3.9,0.7c-1.5,0-2.9-0.2-4-0.7c-1.2-0.4-2.1-1-2.7-1.8c-0.6-0.8-1.1-1.6-1.3-2.5c-0.2-0.9-0.4-2.3-0.4-4v-6.9
			c0-2.1,0.3-3.7,0.8-4.9c0.6-1.2,1.5-2.1,2.7-2.7c1.3-0.6,2.7-1,4.4-1c2,0,3.7,0.4,5,1.2c1.3,0.8,2.2,1.8,2.8,3.1
			c0.5,1.3,0.8,3,0.8,5.3L590,95.3L590,95.3z M582.8,91.5v-1.7c0-1.2-0.1-2-0.2-2.4c-0.1-0.4-0.4-0.5-0.8-0.5
			c-0.5,0-0.8,0.2-0.9,0.5c-0.1,0.3-0.2,1.1-0.2,2.5v1.7L582.8,91.5L582.8,91.5z"/>
		<path class="st1" d="M615.1,95.3h-9.3v5.1c0,1.1,0.1,1.8,0.2,2.1c0.2,0.3,0.5,0.5,0.9,0.5c0.5,0,0.9-0.2,1.1-0.6
			c0.2-0.4,0.3-1.2,0.3-2.4v-3.1h6.8v1.7c0,1.5-0.1,2.6-0.3,3.4c-0.2,0.8-0.6,1.6-1.3,2.5c-0.7,0.9-1.5,1.6-2.6,2
			c-1,0.4-2.3,0.7-3.9,0.7c-1.5,0-2.9-0.2-4-0.7c-1.2-0.4-2.1-1-2.7-1.8c-0.6-0.8-1.1-1.6-1.3-2.5c-0.2-0.9-0.4-2.3-0.4-4v-6.9
			c0-2.1,0.3-3.7,0.8-4.9c0.6-1.2,1.5-2.1,2.7-2.7c1.3-0.6,2.7-1,4.4-1c2,0,3.7,0.4,5,1.2c1.3,0.8,2.2,1.8,2.8,3.1
			c0.5,1.3,0.8,3,0.8,5.3L615.1,95.3L615.1,95.3z M607.9,91.5v-1.7c0-1.2-0.1-2-0.2-2.4c-0.1-0.4-0.4-0.5-0.8-0.5
			c-0.5,0-0.8,0.2-0.9,0.5c-0.1,0.3-0.2,1.1-0.2,2.5v1.7L607.9,91.5L607.9,91.5z"/>
		<path class="st1" d="M633.9,77.9v28.9h-7.2V105c-0.7,0.7-1.4,1.3-2.2,1.6c-0.8,0.4-1.6,0.5-2.4,0.5c-1.1,0-2.1-0.3-2.9-0.9
			c-0.8-0.6-1.3-1.3-1.6-2s-0.3-2-0.3-3.8V89.4c0-1.8,0.1-3.1,0.3-3.9s0.8-1.4,1.6-2c0.8-0.6,1.8-0.9,3-0.9c0.9,0,1.7,0.2,2.5,0.5
			s1.4,0.8,2,1.4v-6.7L633.9,77.9L633.9,77.9z M626.7,89c0-0.9-0.1-1.5-0.2-1.7c-0.1-0.3-0.4-0.4-0.9-0.4c-0.4,0-0.7,0.1-0.9,0.4
			c-0.1,0.3-0.2,0.9-0.2,1.8v11.6c0,1,0.1,1.6,0.2,1.9s0.4,0.5,0.8,0.5c0.5,0,0.8-0.2,0.9-0.5c0.2-0.3,0.2-1.2,0.2-2.5L626.7,89
			L626.7,89z"/>
		<path class="st1" d="M642.9,92.2h-6.8v-1.6c0-1.8,0.2-3.2,0.6-4.2c0.4-1,1.3-1.9,2.5-2.6c1.3-0.8,2.9-1.1,5-1.1
			c2.4,0,4.3,0.4,5.5,1.3s2,1.9,2.2,3.2c0.2,1.3,0.4,3.8,0.4,7.8v11.9h-7v-2.1c-0.4,0.8-1,1.5-1.7,1.9c-0.7,0.4-1.5,0.6-2.5,0.6
			c-1.3,0-2.4-0.4-3.5-1.1c-1.1-0.7-1.6-2.3-1.6-4.6v-1.9c0-1.8,0.3-3,0.8-3.6s1.9-1.4,4.2-2.2c2.4-0.9,3.6-1.6,3.8-1.9s0.2-1,0.2-2
			c0-1.2-0.1-2-0.3-2.4c-0.2-0.4-0.5-0.6-0.9-0.6c-0.5,0-0.8,0.2-0.9,0.5c-0.1,0.3-0.2,1.1-0.2,2.5L642.9,92.2L642.9,92.2z
			 M645.2,95.5c-1.2,0.8-1.8,1.6-2,2.1s-0.3,1.4-0.3,2.5c0,1.2,0.1,2,0.2,2.4s0.5,0.5,1,0.5c0.5,0,0.7-0.1,0.9-0.4
			c0.1-0.3,0.2-1,0.2-2.2V95.5z"/>
		<path class="st1" d="M671.2,77.9v28.9H664V105c-0.7,0.7-1.4,1.3-2.2,1.6c-0.8,0.4-1.6,0.5-2.4,0.5c-1.1,0-2.1-0.3-2.9-0.9
			c-0.8-0.6-1.3-1.3-1.6-2s-0.3-2-0.3-3.8V89.4c0-1.8,0.1-3.1,0.3-3.9s0.8-1.4,1.6-2c0.8-0.6,1.8-0.9,3-0.9c0.9,0,1.7,0.2,2.5,0.5
			s1.4,0.8,2,1.4v-6.7L671.2,77.9L671.2,77.9z M664,89c0-0.9-0.1-1.5-0.2-1.7c-0.1-0.3-0.4-0.4-0.9-0.4c-0.4,0-0.7,0.1-0.9,0.4
			c-0.1,0.3-0.2,0.9-0.2,1.8v11.6c0,1,0.1,1.6,0.2,1.9s0.4,0.5,0.8,0.5c0.5,0,0.8-0.2,0.9-0.5c0.2-0.3,0.2-1.2,0.2-2.5L664,89
			L664,89z"/>
		<path class="st1" d="M695.4,83.1l-2.1,17.1c-0.3,2.7-0.6,4.6-0.8,5.5c-0.2,1-0.6,1.8-1.1,2.4s-1.2,1.1-2.1,1.4s-2.4,0.5-4.4,0.5
			h-4.4v-3.8c1.1,0,1.8-0.1,2.2-0.2c0.3-0.1,0.5-0.4,0.5-0.8c0-0.2-0.1-1-0.4-2.5l-3.9-19.8h6.5l2.4,16l1.2-16L695.4,83.1
			L695.4,83.1z"/>
		<path class="st1" d="M717.8,90.6h-6.4v-1.3c0-1.1-0.1-1.8-0.2-2.1c-0.1-0.3-0.4-0.4-0.9-0.4c-0.4,0-0.7,0.1-0.9,0.4
			s-0.3,0.7-0.3,1.2c0,0.7,0,1.3,0.2,1.6s0.4,0.7,0.9,1.1s1.5,1,3.1,1.8c2.1,1,3.5,2,4.1,2.9c0.7,0.9,1,2.2,1,3.9
			c0,1.9-0.2,3.4-0.7,4.4s-1.3,1.7-2.5,2.3c-1.2,0.5-2.6,0.8-4.2,0.8c-1.8,0-3.4-0.3-4.7-0.9c-1.3-0.6-2.2-1.3-2.7-2.3
			c-0.5-1-0.7-2.4-0.7-4.4v-1.1h6.4v1.5c0,1.3,0.1,2.1,0.2,2.5c0.2,0.4,0.5,0.6,1,0.6c0.5,0,0.9-0.1,1.1-0.4
			c0.2-0.3,0.3-0.8,0.3-1.6c0-1.1-0.1-1.8-0.4-2.1c-0.3-0.3-1.7-1.1-4.2-2.5c-2.1-1.2-3.4-2.3-3.9-3.2c-0.5-1-0.7-2.1-0.7-3.5
			c0-1.9,0.2-3.3,0.7-4.2c0.5-0.9,1.3-1.6,2.5-2.1c1.2-0.5,2.6-0.7,4.2-0.7c1.6,0,2.9,0.2,4,0.6c1.1,0.4,1.9,0.9,2.5,1.6
			c0.6,0.7,0.9,1.3,1.1,1.8c0.1,0.6,0.2,1.4,0.2,2.6V90.6z"/>
		<path class="st1" d="M736.6,95.3h-9.3v5.1c0,1.1,0.1,1.8,0.2,2.1c0.2,0.3,0.5,0.5,0.9,0.5c0.5,0,0.9-0.2,1.1-0.6
			c0.2-0.4,0.3-1.2,0.3-2.4v-3.1h6.8v1.7c0,1.5-0.1,2.6-0.3,3.4c-0.2,0.8-0.6,1.6-1.3,2.5c-0.7,0.9-1.5,1.6-2.6,2
			c-1,0.4-2.3,0.7-3.9,0.7c-1.5,0-2.9-0.2-4-0.7c-1.2-0.4-2.1-1-2.7-1.8c-0.6-0.8-1.1-1.6-1.3-2.5c-0.2-0.9-0.4-2.3-0.4-4v-6.9
			c0-2.1,0.3-3.7,0.8-4.9c0.6-1.2,1.5-2.1,2.7-2.7c1.3-0.6,2.7-1,4.4-1c2,0,3.7,0.4,5,1.2c1.3,0.8,2.2,1.8,2.8,3.1
			c0.5,1.3,0.8,3,0.8,5.3L736.6,95.3L736.6,95.3z M729.4,91.5v-1.7c0-1.2-0.1-2-0.2-2.4c-0.1-0.4-0.4-0.5-0.8-0.5
			c-0.5,0-0.8,0.2-0.9,0.5c-0.1,0.3-0.2,1.1-0.2,2.5v1.7L729.4,91.5L729.4,91.5z"/>
		<path class="st1" d="M753.2,83.1l-2.9,11.3l3.5,12.4h-7c-0.7-3.1-1.2-5.8-1.6-8.1c-0.5,2.8-1,5.5-1.6,8.1h-6l3.1-12.4l-3.1-11.3h6
			c1,4.8,1.5,7.6,1.6,8.2c0.7-4,1.2-6.8,1.6-8.2C746.8,83.1,753.2,83.1,753.2,83.1z"/>
		<path class="st1" d="M771.1,91.4v5.8c0,2.1-0.1,3.7-0.3,4.7s-0.7,1.9-1.4,2.8s-1.6,1.5-2.7,1.9c-1.1,0.4-2.4,0.6-3.8,0.6
			c-1.6,0-2.9-0.2-4-0.5s-2-0.9-2.6-1.6c-0.6-0.7-1-1.6-1.3-2.6c-0.3-1-0.4-2.5-0.4-4.5v-6.1c0-2.2,0.2-3.9,0.7-5.2
			c0.5-1.2,1.3-2.2,2.6-3c1.2-0.7,2.8-1.1,4.7-1.1c1.6,0,3,0.2,4.2,0.7c1.2,0.5,2.1,1.1,2.7,1.9c0.6,0.8,1.1,1.6,1.3,2.4
			S771.1,89.7,771.1,91.4z M763.9,89.6c0-1.2-0.1-2-0.2-2.3s-0.4-0.5-0.8-0.5s-0.7,0.2-0.9,0.5s-0.2,1.1-0.2,2.3v10.7
			c0,1.1,0.1,1.8,0.2,2.2s0.4,0.5,0.8,0.5c0.4,0,0.7-0.2,0.8-0.5c0.1-0.3,0.2-1,0.2-2V89.6z"/>
	</g>
	<g>
		<path class="st2" d="M54.4,50.7h-7.5v-2.6c0-1.7-0.1-2.7-0.2-3.1c-0.1-0.4-0.5-0.6-1-0.6c-0.5,0-0.8,0.2-0.9,0.5
			c-0.2,0.4-0.2,1.3-0.2,2.7v13.9c0,1.3,0.1,2.1,0.2,2.6c0.2,0.4,0.5,0.6,1,0.6c0.5,0,0.9-0.2,1.1-0.7c0.2-0.5,0.3-1.4,0.3-2.7v-3.4
			h-1.5v-4.4h8.8V69h-4.7l-0.7-2.1c-0.5,0.9-1.2,1.6-1.9,2s-1.7,0.7-2.8,0.7c-1.3,0-2.4-0.3-3.5-0.9c-1.1-0.6-1.9-1.4-2.5-2.3
			c-0.6-0.9-0.9-1.9-1.1-2.8s-0.2-2.5-0.2-4.5v-8.6c0-2.8,0.1-4.8,0.4-6s1.2-2.4,2.6-3.4c1.4-1,3.2-1.6,5.5-1.6c2.2,0,4,0.5,5.5,1.4
			c1.5,0.9,2.4,2,2.8,3.2c0.4,1.2,0.7,3,0.7,5.4L54.4,50.7L54.4,50.7z"/>
		<path class="st2" d="M57.3,40.1h5.3c3.5,0,5.9,0.1,7.2,0.4c1.3,0.3,2.3,1,3.1,2.1c0.8,1.1,1.2,2.9,1.2,5.4c0,2.2-0.3,3.8-0.8,4.5
			s-1.7,1.2-3.3,1.4c1.5,0.4,2.5,0.9,3,1.5c0.5,0.6,0.8,1.2,1,1.7S74,59,74,61.3V69h-7v-9.6c0-1.5-0.1-2.5-0.4-2.9
			c-0.2-0.4-0.9-0.6-1.9-0.6v13h-7.5C57.3,69,57.3,40.1,57.3,40.1z M64.8,45v6.4c0.8,0,1.4-0.1,1.8-0.3c0.3-0.2,0.5-1,0.5-2.3v-1.6
			c0-0.9-0.2-1.5-0.5-1.8C66.2,45.2,65.6,45,64.8,45z"/>
		<path class="st2" d="M89.9,40.1L94.2,69h-7.7l-0.4-5.2h-2.7L83,69h-7.8l3.8-28.9C79.1,40.1,89.9,40.1,89.9,40.1z M90.8,34.3
			l-5.9,4.8h-3.6l3.1-4.8H90.8z M85.9,58.6c-0.4-3.3-0.8-7.3-1.1-12.1c-0.8,5.5-1.2,9.6-1.4,12.1C83.3,58.6,85.9,58.6,85.9,58.6z"/>
		<path class="st2" d="M95.5,40.1h12.7v5.8H103v5.5h4.6v5.5H103V69h-7.5V40.1z"/>
		<path class="st2" d="M117.5,40.1V69H110V40.1H117.5z"/>
		<path class="st2" d="M138.1,52.7h-7.5v-5c0-1.5-0.1-2.4-0.2-2.7s-0.5-0.5-1.1-0.5c-0.6,0-1,0.2-1.2,0.7s-0.2,1.4-0.2,2.9v13.4
			c0,1.4,0.1,2.3,0.2,2.7c0.2,0.4,0.5,0.6,1.1,0.6c0.6,0,0.9-0.2,1.1-0.6c0.2-0.4,0.3-1.4,0.3-3v-3.6h7.5v1.1c0,3-0.2,5.1-0.6,6.4
			s-1.4,2.3-2.8,3.3s-3.2,1.4-5.3,1.4c-2.2,0-4-0.4-5.4-1.2s-2.4-1.9-2.8-3.3c-0.5-1.4-0.7-3.5-0.7-6.4v-8.4c0-2.1,0.1-3.6,0.2-4.7
			s0.6-2,1.3-3s1.7-1.7,2.9-2.3c1.3-0.6,2.7-0.8,4.3-0.8c2.2,0,4,0.4,5.5,1.3s2.4,1.9,2.8,3.2c0.5,1.3,0.7,3.3,0.7,6L138.1,52.7
			L138.1,52.7z"/>
		<path class="st2" d="M153.7,40.1L158,69h-7.7l-0.4-5.2h-2.7l-0.5,5.2h-7.8l3.8-28.9C142.9,40.1,153.7,40.1,153.7,40.1z
			 M149.8,58.6c-0.4-3.3-0.8-7.3-1.1-12.1c-0.8,5.5-1.2,9.6-1.4,12.1C147.2,58.6,149.8,58.6,149.8,58.6z"/>
		<path class="st2" d="M156.3,77.9v28.9h-7.2V91.3c0-2.2-0.1-3.6-0.2-4c-0.1-0.5-0.4-0.8-0.9-1c-0.5-0.2-1.6-0.3-3.2-0.3h-0.7v-3.4
			c3.5-0.8,6.1-2.3,7.9-4.6H156.3z"/>
	</g>
	<rect x="1098" y="3" class="st3" width="143.1" height="520.3"/>
	<g>
		<g>
			<path class="st4" d="M1154.3,115.6l-4.9,0.2l-0.1,13.5l-6,0.5l0.1-13.9l-4.8,0.2l-0.3-5.4l15.6-0.6L1154.3,115.6z"/>
			<path class="st4" d="M1158,129.6c-3.8,0-7.1-3.3-7.1-7c0-3.5,3.2-6.5,7-6.5c3.7,0,7,3.1,7,6.7
				C1164.9,126.3,1161.6,129.6,1158,129.6z M1160.4,122.9c0-1.4-1-2.5-2.3-2.5c-1.4,0-2.4,1-2.4,2.3c0,1.4,1,2.5,2.4,2.5
				S1160.4,124.3,1160.4,122.9z"/>
			<path class="st4" d="M1165.8,116.5h2l0.1-2.8l4-0.5l0.2,3.1l2.6,0l0.6,3.7h-3.2c0,1.2,0,2.4,0,2.9c0,2,0.5,2.8,1.8,2.8
				c0.8,0,1.2-0.3,2.1-1.3l1,3.5c-0.9,1.1-2.3,1.6-4.3,1.6c-3.8,0-5-1.6-5-6.2c0-1.1,0-2.2-0.1-3.4l-1.5-0.1L1165.8,116.5z"/>
			<path class="st4" d="M1190.9,129.5h-4.4l-0.1-1.7c-0.8,1.1-2.1,1.8-3.7,1.8c-3.3,0-6-3-6-6.8c0-3.8,2.8-6.7,6.5-6.7
				c1.6,0,2.6,0.5,3.1,1.5l0.1-1.4h3.9L1190.9,129.5z M1183.6,125.3c1.3,0,2.4-1.4,2.4-3c0-1.3-1-2.3-2.3-2.3
				c-1.4,0-2.7,1.2-2.7,2.6S1182.2,125.3,1183.6,125.3z"/>
			<path class="st4" d="M1200,129c-1,0.4-2,0.7-3.1,0.7c-3,0-5.1-1.8-5.1-4.5l0-13.6l4.3-1.4l0.2,14c0,0.8,0.5,1.3,1.4,1.3
				c0.4,0,0.8-0.1,1.2-0.4L1200,129z"/>
			<path class="st4" d="M1138.1,137c0.1,3.9,0.4,7.8,0.4,11.8c0,5.7-2.1,8.5-6.3,8.5c-4.5,0-8.2-3.2-8.2-7c0-0.2,0-0.4,0-0.6l4.3,1
				c0.1,1.5,1.3,2.4,3,2.4c1.9,0,2.8-1.1,2.8-3.3c0-0.6-0.1-1.3-0.2-2.2c-0.8,1-2.1,1.6-3.8,1.6c-3.5,0-6.1-2.5-6.1-6
				c0-3.5,3-6.6,6.3-6.6c1.4,0,2.8,0.6,4,1.6V137L1138.1,137L1138.1,137z M1133,142.9c0-1.4-1.1-2.4-2.4-2.4c-1.3,0-2.3,1-2.3,2.5
				c0,1.4,0.9,2.5,2.2,2.5C1131.9,145.6,1133,144.4,1133,142.9z"/>
			<path class="st4" d="M1152.3,145.9c-0.5,2.5-3.3,4.5-6.3,4.5c-3.7,0-6.9-3.2-6.9-6.8c0-3.7,3.2-6.7,7.2-6.7
				c3.8,0,6.1,2.7,6.1,7.1l-8.8,0.5c0.4,1.3,1.4,2,2.6,2c1,0,2-0.5,2.5-1.4L1152.3,145.9z M1147.7,141.6c-0.2-0.9-1-1.5-2-1.5
				c-1.2,0-2.1,0.7-2,1.6L1147.7,141.6z"/>
			<path class="st4" d="M1153.4,136.9l4.2-0.1v2.1c1.1-1.3,2.7-2.2,4.1-2.2c2.7,0,4.4,2.8,4.4,7.3c0,0.4,0,3.3,0,6.2h-4.4l0.1-6.9
				c0-1.2-0.7-2.1-1.7-2.1c-1.2,0-2.3,0.9-2.4,2c-0.1,0.4,0,1.1,0,3.2c0,0.4,0,2.1,0,3.9h-4.3L1153.4,136.9L1153.4,136.9z"/>
			<path class="st4" d="M1179.9,145.9c-0.5,2.5-3.3,4.5-6.3,4.5c-3.7,0-6.9-3.2-6.9-6.8c0-3.7,3.2-6.7,7.2-6.7
				c3.8,0,6.1,2.7,6.1,7.1l-8.8,0.5c0.4,1.3,1.4,2,2.6,2c1,0,2-0.5,2.5-1.4L1179.9,145.9z M1175.2,141.6c-0.2-0.9-1-1.5-2-1.5
				c-1.2,0-2.1,0.7-2,1.6L1175.2,141.6z"/>
			<path class="st4" d="M1180.9,137h4.4l0,1.9c0.5-1.3,1.8-2.1,3.2-2.1c1.2,0,2.4,0.6,3.3,1.7l-1.7,3.9c-0.5-0.6-1.2-1-2-1
				c-1.8,0-2.7,1.7-2.7,5.3v3.8h-4.4L1180.9,137L1180.9,137z"/>
			<path class="st4" d="M1205.5,150.2h-4.4l-0.1-1.7c-0.8,1.1-2.1,1.8-3.7,1.8c-3.3,0-6-3-6-6.8c0-3.8,2.8-6.7,6.5-6.7
				c1.6,0,2.6,0.5,3.1,1.5l0.1-1.4h3.9L1205.5,150.2z M1198.1,146.1c1.3,0,2.4-1.4,2.4-3c0-1.3-1-2.3-2.3-2.3
				c-1.4,0-2.7,1.2-2.7,2.6S1196.8,146.1,1198.1,146.1z"/>
			<path class="st4" d="M1214.5,149.7c-1,0.4-2,0.7-3.1,0.7c-3,0-5.1-1.8-5.1-4.5l0-13.6l4.3-1.4l0.2,14c0,0.8,0.5,1.3,1.4,1.3
				c0.4,0,0.8-0.1,1.2-0.4L1214.5,149.7z"/>
		</g>
	</g>
	<g>
		<path class="st4" d="M1144.5,164.3v0.7h-4.5v4.9h4.5v0.7h-4.5v5.6h-0.7v-11.8H1144.5z"/>
		<path class="st4" d="M1147.6,174.7c0.6,0.6,1.4,0.9,2.2,0.9c0.9,0,1.7-0.3,2.4-1c0.1-0.1,0.2-0.2,0.2-0.3l0.7,0.2
			c-0.1,0.2-0.3,0.3-0.4,0.5c-0.8,0.8-1.7,1.2-2.9,1.2c-1.1,0-2.1-0.4-2.9-1.2c-0.8-0.8-1.2-1.7-1.2-2.9c0-1.1,0.4-2.1,1.2-2.9
			c0.8-0.8,1.7-1.2,2.9-1.2c1,0,1.8,0.3,2.5,0.9c0.1,0.1,0.2,0.2,0.4,0.3c0,0,0.1,0.1,0.1,0.1l-0.5,0.5L1147.6,174.7z M1151.8,169.6
			c-0.6-0.4-1.2-0.7-2-0.7c-0.9,0-1.7,0.3-2.4,1c-0.7,0.6-1,1.4-1,2.4c0,0.8,0.2,1.4,0.7,2L1151.8,169.6z"/>
		<path class="st4" d="M1154.8,168.9h0.7v0.2c0.4-0.4,0.9-0.6,1.5-0.6c0.6,0,1.1,0.2,1.5,0.6c0.1,0.1,0.2,0.2,0.3,0.4
			c0.1-0.1,0.2-0.2,0.3-0.4c0.4-0.4,0.9-0.6,1.5-0.6s1.1,0.2,1.5,0.6c0.4,0.4,0.6,0.9,0.6,1.4v5.6h-0.7v-5.6h0c0-0.4-0.2-0.7-0.4-1
			c-0.3-0.3-0.6-0.4-1.1-0.4s-0.8,0.1-1,0.4c-0.3,0.3-0.4,0.6-0.4,1.1v5.5h-0.7v-5.6h0c0-0.4-0.2-0.7-0.4-1
			c-0.3-0.3-0.6-0.4-1.1-0.4c-0.4,0-0.8,0.1-1,0.4c-0.3,0.2-0.4,0.6-0.4,0.9v5.6h-0.7L1154.8,168.9L1154.8,168.9z"/>
		<path class="st4" d="M1166.3,174.7c0.6,0.6,1.4,0.9,2.2,0.9c0.9,0,1.7-0.3,2.4-1c0.1-0.1,0.2-0.2,0.2-0.3l0.7,0.2
			c-0.1,0.2-0.3,0.3-0.4,0.5c-0.8,0.8-1.7,1.2-2.9,1.2c-1.1,0-2.1-0.4-2.9-1.2c-0.8-0.8-1.2-1.7-1.2-2.9c0-1.1,0.4-2.1,1.2-2.9
			c0.8-0.8,1.7-1.2,2.9-1.2c1,0,1.8,0.3,2.5,0.9c0.1,0.1,0.2,0.2,0.4,0.3c0,0,0.1,0.1,0.1,0.1l-0.5,0.5L1166.3,174.7z M1170.6,169.6
			c-0.6-0.4-1.2-0.7-2-0.7c-0.9,0-1.7,0.3-2.4,1c-0.7,0.6-1,1.4-1,2.4c0,0.8,0.2,1.4,0.7,2L1170.6,169.6z"/>
		<path class="st4" d="M1174.3,170.5v5.6h-0.7v-7.2h0.7v0.5c0.6-0.6,1.3-0.9,2.1-0.9c0.9,0,1.5,0.3,2.1,0.8c0.5,0.5,0.8,1.2,0.8,2
			v4.8h-0.7v-4.8c0-0.6-0.2-1.1-0.7-1.6s-1-0.7-1.6-0.7s-1.1,0.2-1.6,0.6C1174.6,170,1174.4,170.2,1174.3,170.5z"/>
		<path class="st4" d="M1182.4,166.5c0.1,0.1,0.2,0.3,0.2,0.5c0,0.2-0.1,0.3-0.2,0.5c-0.1,0.1-0.3,0.2-0.5,0.2s-0.3-0.1-0.5-0.2
			c-0.1-0.1-0.2-0.3-0.2-0.5c0-0.2,0.1-0.3,0.2-0.5s0.3-0.2,0.5-0.2C1182.2,166.3,1182.3,166.4,1182.4,166.5z M1182.3,168.9v7.2
			h-0.7v-7.2H1182.3z"/>
		<path class="st4" d="M1185.3,170.5v5.6h-0.7v-7.2h0.7v0.5c0.6-0.6,1.3-0.9,2.1-0.9c0.9,0,1.5,0.3,2.1,0.8c0.5,0.5,0.8,1.2,0.8,2
			v4.8h-0.7v-4.8c0-0.6-0.2-1.1-0.7-1.6s-1-0.7-1.6-0.7s-1.1,0.2-1.6,0.6C1185.6,170,1185.4,170.2,1185.3,170.5z"/>
		<path class="st4" d="M1196.1,168.2c1.1,0,2.1,0.4,2.9,1.2c0.8,0.8,1.2,1.7,1.2,2.9c0,1.1-0.4,2.1-1.2,2.9
			c-0.8,0.8-1.7,1.2-2.9,1.2c-1.1,0-2.1-0.4-2.9-1.2c-0.8-0.8-1.2-1.7-1.2-2.9c0-1.1,0.4-2.1,1.2-2.9
			C1194.1,168.6,1195,168.2,1196.1,168.2z M1193.8,169.9c-0.7,0.7-1,1.4-1,2.4s0.3,1.7,1,2.4c0.7,0.6,1.4,1,2.4,1s1.7-0.3,2.4-1
			c0.7-0.6,1-1.4,1-2.4c0-0.9-0.3-1.7-1-2.4c-0.7-0.7-1.4-1-2.4-1S1194.4,169.2,1193.8,169.9z"/>
	</g>
	<g>
		<g>
			<path class="st4" d="M1142.4,191.2h0.5l0.6-2.6h1.3l-0.6,2.6h2.6l-0.3,1.3h-2.6l-0.1,0.6h2.6l-0.3,1.3h-2.6l-0.6,2.6h-1.3
				l0.6-2.6h-0.5l-0.6,2.6h-1.3l0.7-2.6h-2.6l0.3-1.3h2.6l0.1-0.6h-2.6l0.3-1.3h2.6l0.6-2.6h1.3L1142.4,191.2z M1142.6,192.6h-0.5
				l-0.1,0.6h0.5L1142.6,192.6z"/>
			<path class="st4" d="M1150.2,191.5c0.4-0.4,1-0.6,1.9-0.6c0.9,0,1.6,0.3,2.2,0.9c0.7,0.7,1,1.6,1,2.5c0,1-0.3,1.8-1,2.5
				c-0.7,0.7-1.5,1.1-2.5,1.1c-1,0-1.8-0.3-2.5-1c-0.7-0.7-1-1.6-1-2.8v0c0-1.2,0.3-2.2,1-3.1c0.6-0.9,1.5-2,2.6-3.2h1.7
				C1152,189.3,1150.9,190.5,1150.2,191.5z M1149.5,194.3c0,0.6,0.2,1.2,0.7,1.6c0.4,0.4,1,0.7,1.6,0.7c0.6,0,1.1-0.2,1.6-0.7
				c0.4-0.4,0.7-1,0.7-1.6s-0.2-1.2-0.7-1.6c-0.4-0.4-1-0.7-1.6-0.7c-0.6,0-1.2,0.2-1.6,0.7C1149.7,193.2,1149.5,193.7,1149.5,194.3
				z"/>
			<path class="st4" d="M1161.4,193.9c-0.4,0.4-1,0.6-1.9,0.6c-0.9,0-1.6-0.3-2.2-0.9c-0.7-0.7-1-1.6-1-2.5c0-1,0.3-1.8,1-2.5
				s1.5-1.1,2.5-1.1c1,0,1.8,0.3,2.5,1c0.7,0.7,1,1.6,1,2.8v0c0,1.2-0.3,2.2-1,3.1c-0.6,0.9-1.5,2-2.6,3.2h-1.7
				C1159.7,196.2,1160.8,194.9,1161.4,193.9z M1162.2,191.1c0-0.6-0.2-1.2-0.7-1.6c-0.4-0.4-1-0.7-1.6-0.7c-0.6,0-1.1,0.2-1.6,0.7
				c-0.4,0.4-0.7,1-0.7,1.6s0.2,1.2,0.7,1.6c0.4,0.4,1,0.7,1.6,0.7c0.6,0,1.2-0.2,1.6-0.7C1162,192.2,1162.2,191.7,1162.2,191.1z"/>
			<path class="st4" d="M1171.6,194.3c0,1-0.4,1.8-1.1,2.5c-0.7,0.7-1.5,1.1-2.5,1.1c-1,0-1.8-0.4-2.5-1.1c-0.7-0.7-1.1-1.5-1.1-2.5
				v-3.1c0-1,0.4-1.8,1.1-2.5c0.7-0.7,1.5-1.1,2.5-1.1c1,0,1.8,0.4,2.5,1.1c0.7,0.7,1.1,1.5,1.1,2.5V194.3z M1170.3,191.3
				c0-0.6-0.2-1.1-0.7-1.6c-0.4-0.4-1-0.7-1.6-0.7c-0.6,0-1.1,0.2-1.6,0.7c-0.4,0.4-0.7,1-0.7,1.6v3.1c0,0.6,0.2,1.2,0.7,1.6
				c0.4,0.4,1,0.7,1.6,0.7c0.6,0,1.2-0.2,1.6-0.7c0.4-0.4,0.7-1,0.7-1.6V191.3z"/>
			<path class="st4" d="M1174.3,196.3c0.2,0.2,0.3,0.4,0.3,0.6c0,0.3-0.1,0.5-0.3,0.7s-0.4,0.3-0.6,0.3c-0.2,0-0.5-0.1-0.6-0.3
				s-0.3-0.4-0.3-0.7c0-0.3,0.1-0.5,0.3-0.6s0.4-0.3,0.6-0.3C1173.9,196,1174.1,196.1,1174.3,196.3z"/>
			<path class="st4" d="M1180.8,187.7v10.1h-1.3v-8.4h-1l1.3-1.7H1180.8z"/>
			<path class="st4" d="M1189.8,187.7v10.1h-1.3v-8.4h-1l1.3-1.7H1189.8z"/>
			<path class="st4" d="M1198.8,187.7v10.1h-1.3v-8.4h-1l1.3-1.7H1198.8z"/>
			<path class="st4" d="M1156.7,204.9h1.1v6.1h0.9v1.3h-0.9v2.7h-1.3v-2.7h-4.1L1156.7,204.9z M1156.5,207.9l-1.9,3.1h1.9V207.9z"/>
			<path class="st4" d="M1165.4,211.2c-0.4,0.4-1,0.6-1.9,0.6c-0.9,0-1.6-0.3-2.2-0.9c-0.7-0.7-1-1.6-1-2.5c0-1,0.3-1.8,1-2.5
				s1.5-1.1,2.5-1.1c1,0,1.8,0.3,2.5,1c0.7,0.7,1,1.6,1,2.8v0c0,1.2-0.3,2.2-1,3.1c-0.6,0.9-1.5,2-2.6,3.2h-1.7
				C1163.7,213.5,1164.8,212.2,1165.4,211.2z M1166.2,208.4c0-0.6-0.2-1.2-0.7-1.6c-0.4-0.4-1-0.7-1.6-0.7c-0.6,0-1.1,0.2-1.6,0.7
				c-0.4,0.4-0.7,1-0.7,1.6s0.2,1.2,0.7,1.6c0.4,0.4,1,0.7,1.6,0.7c0.6,0,1.2-0.2,1.6-0.7C1165.9,209.5,1166.2,209,1166.2,208.4z"/>
			<path class="st4" d="M1170.7,213.3l-1.5,3h-1.2l0.8-3H1170.7z"/>
			<path class="st4" d="M1176.7,204.9h1.1v6.1h0.9v1.3h-0.9v2.7h-1.3v-2.7h-4.1L1176.7,204.9z M1176.5,207.9l-1.9,3.1h1.9V207.9z"/>
			<path class="st4" d="M1183.3,207.7c0.3,0.3,0.5,0.7,0.5,1.2s-0.2,0.9-0.5,1.2c-0.3,0.3-0.7,0.5-1.2,0.5s-0.9-0.2-1.2-0.5
				c-0.3-0.3-0.5-0.7-0.5-1.2c0-0.5,0.2-0.9,0.5-1.2c0.3-0.3,0.7-0.5,1.2-0.5C1182.6,207.2,1183,207.4,1183.3,207.7z M1187.3,206.9
				l-5.8,8.3l-1.1-0.7l5.8-8.3L1187.3,206.9z M1182.1,208.5c-0.1,0-0.2,0-0.3,0.1c-0.1,0.1-0.1,0.2-0.1,0.3c0,0.1,0,0.2,0.1,0.3
				c0.1,0.1,0.2,0.1,0.3,0.1c0.1,0,0.2,0,0.3-0.1s0.1-0.2,0.1-0.3c0-0.1,0-0.2-0.1-0.3C1182.3,208.5,1182.2,208.5,1182.1,208.5z
				 M1186.8,211.2c0.3,0.3,0.5,0.7,0.5,1.2c0,0.5-0.2,0.9-0.5,1.2c-0.3,0.3-0.8,0.5-1.2,0.5c-0.5,0-0.9-0.2-1.2-0.5
				c-0.3-0.3-0.5-0.8-0.5-1.2c0-0.5,0.2-0.9,0.5-1.2c0.3-0.3,0.7-0.5,1.2-0.5C1186.1,210.7,1186.5,210.8,1186.8,211.2z M1185.6,212
				c-0.1,0-0.2,0-0.3,0.1s-0.1,0.2-0.1,0.3c0,0.1,0,0.2,0.1,0.3c0.1,0.1,0.2,0.1,0.3,0.1s0.2,0,0.3-0.1s0.1-0.2,0.1-0.3
				c0-0.1,0-0.2-0.1-0.3C1185.8,212,1185.7,212,1185.6,212z"/>
		</g>
	</g>
	<g>
		<path class="st4" d="M1137.1,233l4.4,7.6l4.4-7.6h0.8l0,0.1v11.7h-0.7v-10.6l-4.5,7.8l-4.5-7.8v10.6h-0.7V233l0-0.1H1137.1z"/>
		<path class="st4" d="M1156.7,244.7h-0.7v-1.5c-0.1,0.2-0.3,0.3-0.4,0.5c-0.8,0.8-1.7,1.2-2.9,1.2c-1.1,0-2.1-0.4-2.9-1.2
			s-1.2-1.7-1.2-2.9c0-1.1,0.4-2.1,1.2-2.9c0.8-0.8,1.7-1.2,2.9-1.2c1.1,0,2.1,0.4,2.9,1.2c0.2,0.2,0.3,0.3,0.4,0.5v-1h0.7V244.7z
			 M1156.1,241.6v-1.3c-0.1-0.6-0.4-1.2-0.9-1.7c-0.7-0.7-1.4-1-2.4-1s-1.7,0.3-2.4,1s-1,1.4-1,2.4s0.3,1.7,1,2.4
			c0.7,0.6,1.4,1,2.4,1s1.7-0.3,2.4-1C1155.6,242.8,1156,242.2,1156.1,241.6z"/>
		<path class="st4" d="M1160.9,241c-0.6-0.3-1-0.6-1.2-0.8c-0.3-0.3-0.5-0.7-0.5-1.2c0-0.5,0.2-0.9,0.5-1.2c0.3-0.3,0.7-0.5,1.2-0.5
			c0.5,0,0.9,0.2,1.2,0.5c0.3,0.3,0.5,0.7,0.5,1.1v0l-0.6,0.2c0-0.4-0.2-0.7-0.3-0.8c-0.2-0.2-0.4-0.3-0.7-0.3
			c-0.3,0-0.5,0.1-0.8,0.3s-0.3,0.5-0.3,0.8c0,0.3,0.1,0.5,0.3,0.8c0.1,0.1,0.4,0.3,0.8,0.6c0.6,0.3,1.1,0.6,1.3,0.9
			c0.4,0.4,0.6,0.9,0.6,1.5c0,0.6-0.2,1.1-0.6,1.5s-0.9,0.6-1.5,0.6s-1.1-0.2-1.5-0.6s-0.6-0.9-0.6-1.4l0.7-0.2
			c0,0.4,0.1,0.8,0.4,1.1c0.3,0.3,0.6,0.4,1,0.4s0.8-0.1,1-0.4s0.4-0.6,0.4-1.1c0-0.4-0.1-0.8-0.4-1
			C1161.7,241.5,1161.4,241.3,1160.9,241z"/>
		<path class="st4" d="M1171,243l0.7,0.2c-0.1,0.2-0.3,0.3-0.4,0.5c-0.8,0.8-1.7,1.2-2.9,1.2c-1.1,0-2.1-0.4-2.9-1.2
			c-0.8-0.8-1.2-1.7-1.2-2.9c0-1.1,0.4-2.1,1.2-2.9c0.8-0.8,1.7-1.2,2.9-1.2c1.1,0,2.1,0.4,2.9,1.2c0.2,0.2,0.3,0.3,0.4,0.5
			l-0.7,0.3c-0.1-0.1-0.2-0.2-0.2-0.3c-0.7-0.6-1.4-1-2.4-1c-0.9,0-1.7,0.3-2.4,1c-0.7,0.6-1,1.4-1,2.4c0,0.9,0.3,1.7,1,2.4
			s1.4,1,2.4,1c0.9,0,1.7-0.3,2.4-1C1170.9,243.2,1171,243.1,1171,243z"/>
		<path class="st4" d="M1176.5,244.8c-0.9,0-1.6-0.3-2.2-0.8c-0.5-0.5-0.8-1.2-0.8-2v-4.5h0.7v4.4c0,0.6,0.2,1.1,0.7,1.6
			c0.4,0.4,1,0.7,1.6,0.7c0.6,0,1.1-0.2,1.6-0.7c0.4-0.4,0.7-1,0.7-1.6v-4.4h0.7v4.5c0,0.8-0.3,1.5-0.8,2
			C1178,244.6,1177.3,244.8,1176.5,244.8z"/>
		<path class="st4" d="M1182.2,233v11.8h-0.7V233H1182.2z"/>
		<path class="st4" d="M1185.4,235.1c0.1,0.1,0.2,0.3,0.2,0.5c0,0.2-0.1,0.3-0.2,0.5c-0.1,0.1-0.3,0.2-0.5,0.2s-0.3-0.1-0.5-0.2
			c-0.1-0.1-0.2-0.3-0.2-0.5c0-0.2,0.1-0.3,0.2-0.5s0.3-0.2,0.5-0.2C1185.1,234.9,1185.3,235,1185.4,235.1z M1185.3,237.5v7.2h-0.7
			v-7.2H1185.3z"/>
		<path class="st4" d="M1188.3,239.1v5.6h-0.7v-7.2h0.7v0.5c0.6-0.6,1.3-0.9,2.1-0.9c0.9,0,1.5,0.3,2.1,0.8c0.5,0.5,0.8,1.2,0.8,2
			v4.8h-0.7V240c0-0.6-0.2-1.1-0.7-1.6s-1-0.7-1.6-0.7s-1.1,0.2-1.6,0.6C1188.6,238.6,1188.4,238.9,1188.3,239.1z"/>
		<path class="st4" d="M1199.1,236.9c1.1,0,2.1,0.4,2.9,1.2c0.8,0.8,1.2,1.7,1.2,2.9c0,1.1-0.4,2.1-1.2,2.9
			c-0.8,0.8-1.7,1.2-2.9,1.2c-1.1,0-2.1-0.4-2.9-1.2c-0.8-0.8-1.2-1.7-1.2-2.9c0-1.1,0.4-2.1,1.2-2.9
			C1197,237.2,1198,236.9,1199.1,236.9z M1196.7,238.5c-0.7,0.7-1,1.4-1,2.4s0.3,1.7,1,2.4c0.7,0.6,1.4,1,2.4,1s1.7-0.3,2.4-1
			c0.7-0.6,1-1.4,1-2.4c0-0.9-0.3-1.7-1-2.4c-0.7-0.7-1.4-1-2.4-1S1197.4,237.9,1196.7,238.5z"/>
	</g>
	<g>
		<g>
			<path class="st4" d="M1143.6,259.9h0.5l0.6-2.6h1.3l-0.6,2.6h2.6l-0.3,1.3h-2.6l-0.1,0.6h2.6l-0.3,1.3h-2.6l-0.6,2.6h-1.3
				l0.6-2.6h-0.5l-0.6,2.6h-1.3l0.7-2.6h-2.6l0.3-1.3h2.6l0.1-0.6h-2.6l0.3-1.3h2.6l0.6-2.6h1.3L1143.6,259.9z M1143.8,261.2h-0.5
				l-0.1,0.6h0.5L1143.8,261.2z"/>
			<path class="st4" d="M1154.5,260.1c-1,1.2-1.9,2.2-2.4,3s-0.9,1.9-0.9,3.3h-1.3c0.1-1.7,0.4-3,1-3.9s1.4-1.9,2.3-2.9
				s1.4-1.7,1.4-2h-4.8v-1.3h6.3C1156.1,257.7,1155.5,259,1154.5,260.1z"/>
			<path class="st4" d="M1164.7,263c0,1-0.4,1.8-1.1,2.5c-0.7,0.7-1.5,1.1-2.5,1.1c-1,0-1.8-0.4-2.5-1.1c-0.7-0.7-1.1-1.5-1.1-2.5
				v-3.1c0-1,0.4-1.8,1.1-2.5c0.7-0.7,1.5-1.1,2.5-1.1c1,0,1.8,0.4,2.5,1.1c0.7,0.7,1.1,1.5,1.1,2.5V263z M1163.4,259.9
				c0-0.6-0.2-1.1-0.7-1.6c-0.4-0.4-1-0.7-1.6-0.7c-0.6,0-1.1,0.2-1.6,0.7c-0.4,0.4-0.7,1-0.7,1.6v3.1c0,0.6,0.2,1.2,0.7,1.6
				c0.4,0.4,1,0.7,1.6,0.7c0.6,0,1.2-0.2,1.6-0.7c0.4-0.4,0.7-1,0.7-1.6V259.9z"/>
			<path class="st4" d="M1170.9,260.1c-1,1.2-1.9,2.2-2.4,3s-0.9,1.9-0.9,3.3h-1.3c0.1-1.7,0.4-3,1-3.9s1.4-1.9,2.3-2.9
				s1.4-1.7,1.4-2h-4.8v-1.3h6.3C1172.4,257.7,1171.9,259,1170.9,260.1z"/>
			<path class="st4" d="M1175.6,264.9c0.2,0.2,0.3,0.4,0.3,0.6c0,0.3-0.1,0.5-0.3,0.7s-0.4,0.3-0.6,0.3c-0.2,0-0.5-0.1-0.6-0.3
				s-0.3-0.4-0.3-0.7c0-0.3,0.1-0.5,0.3-0.6s0.4-0.3,0.6-0.3C1175.2,264.7,1175.5,264.7,1175.6,264.9z"/>
			<path class="st4" d="M1182.2,262.5c-0.4,0.4-1,0.6-1.9,0.6c-0.9,0-1.6-0.3-2.2-0.9c-0.7-0.7-1-1.5-1-2.5c0-1,0.3-1.8,1-2.5
				s1.5-1.1,2.5-1.1c1,0,1.8,0.3,2.5,1c0.7,0.7,1,1.6,1,2.8v0c0,1.2-0.3,2.2-1,3.1c-0.6,0.9-1.5,2-2.6,3.2h-1.7
				C1180.4,264.8,1181.5,263.5,1182.2,262.5z M1182.9,259.7c0-0.6-0.2-1.2-0.7-1.6c-0.4-0.4-1-0.7-1.6-0.7c-0.6,0-1.1,0.2-1.6,0.7
				c-0.4,0.4-0.7,1-0.7,1.6s0.2,1.2,0.7,1.6c0.4,0.4,1,0.7,1.6,0.7c0.6,0,1.2-0.2,1.6-0.7C1182.7,260.9,1182.9,260.4,1182.9,259.7z"
				/>
			<path class="st4" d="M1190.3,262.5c-0.4,0.4-1,0.6-1.9,0.6c-0.9,0-1.6-0.3-2.2-0.9c-0.7-0.7-1-1.5-1-2.5c0-1,0.3-1.8,1-2.5
				s1.5-1.1,2.5-1.1c1,0,1.8,0.3,2.5,1c0.7,0.7,1,1.6,1,2.8v0c0,1.2-0.3,2.2-1,3.1c-0.6,0.9-1.5,2-2.6,3.2h-1.7
				C1188.6,264.8,1189.7,263.5,1190.3,262.5z M1191.1,259.7c0-0.6-0.2-1.2-0.7-1.6c-0.4-0.4-1-0.7-1.6-0.7c-0.6,0-1.1,0.2-1.6,0.7
				c-0.4,0.4-0.7,1-0.7,1.6s0.2,1.2,0.7,1.6c0.4,0.4,1,0.7,1.6,0.7c0.6,0,1.2-0.2,1.6-0.7C1190.9,260.9,1191.1,260.4,1191.1,259.7z"
				/>
			<path class="st4" d="M1195.4,260.2c0.4-0.4,1-0.6,1.9-0.6c0.9,0,1.6,0.3,2.2,0.9c0.7,0.7,1,1.6,1,2.5c0,1-0.3,1.8-1,2.5
				c-0.7,0.7-1.5,1.1-2.5,1.1c-1,0-1.8-0.3-2.5-1c-0.7-0.7-1-1.6-1-2.8v0c0-1.2,0.3-2.2,1-3.1c0.6-0.9,1.5-2,2.6-3.2h1.7
				C1197.2,257.9,1196.1,259.2,1195.4,260.2z M1194.7,263c0,0.6,0.2,1.2,0.7,1.6c0.4,0.4,1,0.7,1.6,0.7c0.6,0,1.1-0.2,1.6-0.7
				c0.4-0.4,0.7-1,0.7-1.6c0-0.6-0.2-1.2-0.7-1.6c-0.4-0.4-1-0.7-1.6-0.7c-0.6,0-1.2,0.2-1.6,0.7
				C1194.9,261.8,1194.7,262.4,1194.7,263z"/>
			<path class="st4" d="M1154.4,276.3c0.2,0,0.5-0.1,0.7-0.1c0.5,0,0.9,0.1,1.4,0.2c1,0.3,1.7,0.9,2.2,1.8c0.3,0.6,0.4,1.1,0.4,1.7
				c0,0.4-0.1,0.7-0.2,1.1c-0.3,1-0.9,1.7-1.8,2.2c-0.5,0.3-1.1,0.4-1.7,0.4c-0.4,0-0.7-0.1-1.1-0.2c-0.8-0.2-1.5-0.7-2-1.5l0.9-1
				c0.5,0.7,1,1.1,1.5,1.3c0.2,0.1,0.5,0.1,0.7,0.1c0.4,0,0.7-0.1,1.1-0.3c0.6-0.3,1-0.8,1.1-1.4c0.1-0.2,0.1-0.5,0.1-0.7
				c0-0.4-0.1-0.7-0.3-1.1c-0.3-0.6-0.8-1-1.4-1.2c-0.3-0.1-0.6-0.1-0.9-0.1c-0.4,0-1,0.1-1.7,0.3l-0.8-0.7l1.1-3.1v-0.5h3.7v1.3
				h-2.6L1154.4,276.3z"/>
			<path class="st4" d="M1167.5,280.3c0,1-0.4,1.8-1.1,2.5c-0.7,0.7-1.5,1.1-2.5,1.1c-1,0-1.8-0.4-2.5-1.1c-0.7-0.7-1.1-1.5-1.1-2.5
				v-3.1c0-1,0.4-1.8,1.1-2.5c0.7-0.7,1.5-1.1,2.5-1.1c1,0,1.8,0.4,2.5,1.1c0.7,0.7,1.1,1.5,1.1,2.5V280.3z M1166.2,277.2
				c0-0.6-0.2-1.1-0.7-1.6c-0.4-0.4-1-0.7-1.6-0.7c-0.6,0-1.1,0.2-1.6,0.7c-0.4,0.4-0.7,1-0.7,1.6v3.1c0,0.6,0.2,1.2,0.7,1.6
				c0.4,0.4,1,0.7,1.6,0.7c0.6,0,1.2-0.2,1.6-0.7c0.4-0.4,0.7-1,0.7-1.6V277.2z"/>
			<path class="st4" d="M1170.8,281.9l-1.5,3h-1.2l0.8-3H1170.8z"/>
			<path class="st4" d="M1174,277.5c0.4-0.4,1-0.6,1.9-0.6c0.9,0,1.6,0.3,2.2,0.9c0.7,0.7,1,1.6,1,2.5c0,1-0.3,1.8-1,2.5
				c-0.7,0.7-1.5,1.1-2.5,1.1c-1,0-1.8-0.3-2.5-1c-0.7-0.7-1-1.6-1-2.8v0c0-1.2,0.3-2.2,1-3.1c0.6-0.9,1.5-2,2.6-3.2h1.7
				C1175.7,275.2,1174.6,276.5,1174,277.5z M1173.2,280.3c0,0.6,0.2,1.2,0.7,1.6c0.4,0.4,1,0.7,1.6,0.7c0.6,0,1.1-0.2,1.6-0.7
				c0.4-0.4,0.7-1,0.7-1.6c0-0.6-0.2-1.2-0.7-1.6c-0.4-0.4-1-0.7-1.6-0.7c-0.6,0-1.2,0.2-1.6,0.7
				C1173.4,279.1,1173.2,279.6,1173.2,280.3z"/>
			<path class="st4" d="M1183,276.3c0.3,0.3,0.5,0.7,0.5,1.2s-0.2,0.9-0.5,1.2c-0.3,0.3-0.7,0.5-1.2,0.5s-0.9-0.2-1.2-0.5
				c-0.3-0.3-0.5-0.7-0.5-1.2c0-0.5,0.2-0.9,0.5-1.2c0.3-0.3,0.7-0.5,1.2-0.5C1182.3,275.8,1182.7,276,1183,276.3z M1187,275.5
				l-5.8,8.3l-1.1-0.7l5.8-8.3L1187,275.5z M1181.8,277.1c-0.1,0-0.2,0-0.3,0.1c-0.1,0.1-0.1,0.2-0.1,0.3c0,0.1,0,0.2,0.1,0.3
				c0.1,0.1,0.2,0.1,0.3,0.1c0.1,0,0.2,0,0.3-0.1s0.1-0.2,0.1-0.3c0-0.1,0-0.2-0.1-0.3S1181.9,277.1,1181.8,277.1z M1186.5,279.8
				c0.3,0.3,0.5,0.7,0.5,1.2c0,0.5-0.2,0.9-0.5,1.2c-0.3,0.3-0.8,0.5-1.2,0.5c-0.5,0-0.9-0.2-1.2-0.5c-0.3-0.3-0.5-0.8-0.5-1.2
				c0-0.5,0.2-0.9,0.5-1.2c0.3-0.3,0.7-0.5,1.2-0.5C1185.7,279.3,1186.2,279.5,1186.5,279.8z M1185.3,280.6c-0.1,0-0.2,0-0.3,0.1
				s-0.1,0.2-0.1,0.3c0,0.1,0,0.2,0.1,0.3c0.1,0.1,0.2,0.1,0.3,0.1s0.2,0,0.3-0.1s0.1-0.2,0.1-0.3c0-0.1,0-0.2-0.1-0.3
				C1185.5,280.7,1185.4,280.6,1185.3,280.6z"/>
		</g>
	</g>
	<g>
		<path class="st4" d="M1130.6,301.6h0.7l6,10.5v-10.5h0.7v11.8h-0.7l-6.1-10.6v10.6h-0.7V301.6z"/>
		<path class="st4" d="M1143.8,305.5c1.1,0,2.1,0.4,2.9,1.2c0.8,0.8,1.2,1.7,1.2,2.9c0,1.1-0.4,2.1-1.2,2.9
			c-0.8,0.8-1.7,1.2-2.9,1.2c-1.1,0-2.1-0.4-2.9-1.2c-0.8-0.8-1.2-1.7-1.2-2.9c0-1.1,0.4-2.1,1.2-2.9
			C1141.7,305.9,1142.7,305.5,1143.8,305.5z M1141.4,307.2c-0.7,0.7-1,1.4-1,2.4s0.3,1.7,1,2.4c0.7,0.6,1.4,1,2.4,1s1.7-0.3,2.4-1
			c0.7-0.6,1-1.4,1-2.4s-0.3-1.7-1-2.4c-0.7-0.7-1.4-1-2.4-1S1142.1,306.5,1141.4,307.2z"/>
		<path class="st4" d="M1162.6,313.4h-0.7v-1.5c-0.1,0.2-0.3,0.3-0.4,0.5c-0.8,0.8-1.7,1.2-2.9,1.2c-1.1,0-2.1-0.4-2.9-1.2
			s-1.2-1.7-1.2-2.9c0-1.1,0.4-2.1,1.2-2.9c0.8-0.8,1.7-1.2,2.9-1.2c1.1,0,2.1,0.4,2.9,1.2c0.2,0.2,0.3,0.3,0.4,0.5v-5.6h0.7V313.4z
			 M1162,310.2v-1.3c-0.1-0.6-0.4-1.2-0.9-1.7c-0.7-0.7-1.4-1-2.4-1s-1.7,0.3-2.4,1s-1,1.4-1,2.4s0.3,1.7,1,2.4c0.7,0.6,1.4,1,2.4,1
			s1.7-0.3,2.4-1C1161.5,311.4,1161.8,310.8,1162,310.2z"/>
		<path class="st4" d="M1166.2,312c0.6,0.6,1.4,0.9,2.2,0.9c0.9,0,1.7-0.3,2.4-1c0.1-0.1,0.2-0.2,0.2-0.3l0.7,0.2
			c-0.1,0.2-0.3,0.3-0.4,0.5c-0.8,0.8-1.7,1.2-2.9,1.2c-1.1,0-2.1-0.4-2.9-1.2c-0.8-0.8-1.2-1.7-1.2-2.9c0-1.1,0.4-2.1,1.2-2.9
			c0.8-0.8,1.7-1.2,2.9-1.2c1,0,1.8,0.3,2.5,0.9c0.1,0.1,0.2,0.2,0.4,0.3c0,0,0.1,0.1,0.1,0.1l-0.5,0.5L1166.2,312z M1170.4,306.9
			c-0.6-0.4-1.2-0.7-2-0.7c-0.9,0-1.7,0.3-2.4,1s-1,1.4-1,2.4c0,0.8,0.2,1.4,0.7,2L1170.4,306.9z"/>
		<path class="st4" d="M1174.4,306.8v6.6h-0.7v-6.6h-0.7v-0.7h0.7v-2c0-0.5,0.2-1,0.6-1.4c0.4-0.4,0.9-0.6,1.4-0.6
			c0.3,0,0.6,0.1,0.9,0.2l-0.2,0.6c-0.2-0.1-0.4-0.1-0.6-0.1c-0.3,0-0.7,0.1-1,0.4c-0.3,0.3-0.4,0.6-0.4,1v1.9h1.5v0.7L1174.4,306.8
			L1174.4,306.8z"/>
		<path class="st4" d="M1178,303.8c0.1,0.1,0.2,0.3,0.2,0.5c0,0.2-0.1,0.3-0.2,0.5c-0.1,0.1-0.3,0.2-0.5,0.2s-0.3-0.1-0.5-0.2
			c-0.1-0.1-0.2-0.3-0.2-0.5c0-0.2,0.1-0.3,0.2-0.5s0.3-0.2,0.5-0.2C1177.8,303.6,1177.9,303.7,1178,303.8z M1177.9,306.2v7.2h-0.7
			v-7.2L1177.9,306.2L1177.9,306.2z"/>
		<path class="st4" d="M1180.9,307.8v5.6h-0.7v-7.2h0.7v0.5c0.6-0.6,1.3-0.9,2.1-0.9c0.9,0,1.5,0.3,2.1,0.8c0.5,0.5,0.8,1.2,0.8,2
			v4.8h-0.7v-4.8c0-0.6-0.2-1.1-0.7-1.6c-0.4-0.4-1-0.7-1.6-0.7s-1.1,0.2-1.6,0.6C1181.2,307.3,1181,307.5,1180.9,307.8z"/>
		<path class="st4" d="M1189.1,303.8c0.1,0.1,0.2,0.3,0.2,0.5c0,0.2-0.1,0.3-0.2,0.5c-0.1,0.1-0.3,0.2-0.5,0.2s-0.3-0.1-0.5-0.2
			c-0.1-0.1-0.2-0.3-0.2-0.5c0-0.2,0.1-0.3,0.2-0.5s0.3-0.2,0.5-0.2C1188.8,303.6,1189,303.7,1189.1,303.8z M1189,306.2v7.2h-0.7
			v-7.2L1189,306.2L1189,306.2z"/>
		<path class="st4" d="M1199.1,313.4h-0.7v-1.5c-0.1,0.2-0.3,0.3-0.4,0.5c-0.8,0.8-1.7,1.2-2.9,1.2c-1.1,0-2.1-0.4-2.9-1.2
			s-1.2-1.7-1.2-2.9c0-1.1,0.4-2.1,1.2-2.9c0.8-0.8,1.7-1.2,2.9-1.2c1.1,0,2.1,0.4,2.9,1.2c0.2,0.2,0.3,0.3,0.4,0.5v-5.6h0.7V313.4z
			 M1198.4,310.2v-1.3c-0.1-0.6-0.4-1.2-0.9-1.7c-0.7-0.7-1.4-1-2.4-1s-1.7,0.3-2.4,1s-1,1.4-1,2.4s0.3,1.7,1,2.4
			c0.7,0.6,1.4,1,2.4,1s1.7-0.3,2.4-1C1198,311.4,1198.3,310.8,1198.4,310.2z"/>
		<path class="st4" d="M1204.9,305.5c1.1,0,2.1,0.4,2.9,1.2c0.8,0.8,1.2,1.7,1.2,2.9c0,1.1-0.4,2.1-1.2,2.9
			c-0.8,0.8-1.7,1.2-2.9,1.2c-1.1,0-2.1-0.4-2.9-1.2c-0.8-0.8-1.2-1.7-1.2-2.9c0-1.1,0.4-2.1,1.2-2.9
			C1202.8,305.9,1203.8,305.5,1204.9,305.5z M1202.5,307.2c-0.7,0.7-1,1.4-1,2.4s0.3,1.7,1,2.4c0.7,0.6,1.4,1,2.4,1s1.7-0.3,2.4-1
			c0.7-0.6,1-1.4,1-2.4s-0.3-1.7-1-2.4c-0.7-0.7-1.4-1-2.4-1S1203.2,306.5,1202.5,307.2z"/>
	</g>
	<g>
		<g>
			<path class="st4" d="M1157.2,328.5h0.5l0.6-2.6h1.3l-0.6,2.6h2.6l-0.3,1.3h-2.6l-0.1,0.6h2.6l-0.3,1.3h-2.6l-0.6,2.6h-1.3
				l0.6-2.6h-0.5l-0.6,2.6h-1.3l0.7-2.6h-2.6l0.3-1.3h2.6l0.1-0.6h-2.6l0.3-1.3h2.6l0.6-2.6h1.3L1157.2,328.5z M1157.4,329.8h-0.5
				l-0.1,0.6h0.5L1157.4,329.8z"/>
			<path class="st4" d="M1164.7,331.9c0.7-0.5,1.3-0.9,1.8-1.3c0.5-0.4,0.9-0.8,1.3-1.2s0.6-0.9,0.6-1.4c0-0.5-0.2-0.9-0.5-1.3
				c-0.4-0.4-0.8-0.5-1.3-0.5c-0.5,0-0.9,0.2-1.3,0.5c-0.3,0.3-0.5,0.8-0.6,1.6l-1.3-0.5c0.1-0.9,0.4-1.6,0.9-2.1
				c0.6-0.6,1.4-0.9,2.2-0.9c0.9,0,1.6,0.3,2.2,0.9c0.6,0.6,0.9,1.4,0.9,2.2c0,0.9-0.3,1.6-0.9,2.3c-0.4,0.4-0.8,0.8-1.3,1.2
				s-1.1,0.8-1.7,1.3c-0.5,0.4-0.8,0.7-0.9,1h4.8v1.3h-6.3C1163.6,333.4,1164.1,332.4,1164.7,331.9z"/>
			<path class="st4" d="M1176,325h1.1v6.1h0.9v1.3h-0.9v2.7h-1.3v-2.7h-4.1L1176,325z M1175.9,327.9l-1.9,3.1h1.9V327.9z"/>
			<path class="st4" d="M1183,329.9l-0.8,0v-1.3c0.6,0,0.9,0,1.1-0.1c0.2-0.1,0.4-0.2,0.6-0.4c0.2-0.2,0.3-0.5,0.3-0.8
				c0-0.3-0.1-0.5-0.3-0.7c-0.2-0.2-0.4-0.3-0.7-0.3c-0.3,0-0.5,0.1-0.7,0.3c-0.1,0.1-0.2,0.4-0.4,0.8l-1.2-0.5
				c0.2-0.6,0.4-1,0.7-1.2c0.5-0.5,1-0.7,1.7-0.7c0.7,0,1.2,0.2,1.7,0.7c0.5,0.5,0.7,1,0.7,1.7c0,0.7-0.4,1.3-1.2,1.9
				c0.4,0,0.8,0.2,1.2,0.6c0.6,0.6,0.9,1.4,0.9,2.3c0,0.9-0.3,1.6-0.9,2.2c-0.6,0.6-1.4,0.9-2.2,0.9c-0.9,0-1.6-0.3-2.2-0.9
				c-0.5-0.5-0.8-1.2-0.9-2.1l1.3-0.5c0.1,0.8,0.3,1.3,0.6,1.6c0.4,0.4,0.8,0.5,1.3,0.5c0.5,0,0.9-0.2,1.3-0.5
				c0.4-0.4,0.5-0.8,0.5-1.3c0-0.5-0.2-1-0.5-1.4C1184.2,330.3,1183.7,330,1183,329.9z"/>
			<path class="st4" d="M1163.4,348.9c0,1-0.4,1.8-1.1,2.5c-0.7,0.7-1.5,1.1-2.5,1.1c-1,0-1.8-0.4-2.5-1.1c-0.7-0.7-1.1-1.5-1.1-2.5
				v-3.1c0-1,0.4-1.8,1.1-2.5c0.7-0.7,1.5-1.1,2.5-1.1c1,0,1.8,0.4,2.5,1.1c0.7,0.7,1.1,1.5,1.1,2.5V348.9z M1162,345.8
				c0-0.6-0.2-1.1-0.7-1.6c-0.4-0.4-1-0.7-1.6-0.7c-0.6,0-1.1,0.2-1.6,0.7c-0.4,0.4-0.7,1-0.7,1.6v3.1c0,0.6,0.2,1.2,0.7,1.6
				c0.4,0.4,1,0.7,1.6,0.7c0.6,0,1.2-0.2,1.6-0.7c0.4-0.4,0.7-1,0.7-1.6V345.8z"/>
			<path class="st4" d="M1166.6,350.6l-1.5,3h-1.2l0.8-3H1166.6z"/>
			<path class="st4" d="M1174.9,348.9c0,1-0.4,1.8-1.1,2.5c-0.7,0.7-1.5,1.1-2.5,1.1c-1,0-1.8-0.4-2.5-1.1c-0.7-0.7-1.1-1.5-1.1-2.5
				v-3.1c0-1,0.4-1.8,1.1-2.5c0.7-0.7,1.5-1.1,2.5-1.1c1,0,1.8,0.4,2.5,1.1c0.7,0.7,1.1,1.5,1.1,2.5V348.9z M1173.6,345.8
				c0-0.6-0.2-1.1-0.7-1.6c-0.4-0.4-1-0.7-1.6-0.7c-0.6,0-1.1,0.2-1.6,0.7c-0.4,0.4-0.7,1-0.7,1.6v3.1c0,0.6,0.2,1.2,0.7,1.6
				c0.4,0.4,1,0.7,1.6,0.7c0.6,0,1.2-0.2,1.6-0.7c0.4-0.4,0.7-1,0.7-1.6V345.8z"/>
			<path class="st4" d="M1178.8,345c0.3,0.3,0.5,0.7,0.5,1.2s-0.2,0.9-0.5,1.2c-0.3,0.3-0.7,0.5-1.2,0.5s-0.9-0.2-1.2-0.5
				c-0.3-0.3-0.5-0.7-0.5-1.2c0-0.5,0.2-0.9,0.5-1.2c0.3-0.3,0.7-0.5,1.2-0.5S1178.5,344.6,1178.8,345z M1182.8,344.2l-5.8,8.3
				l-1.1-0.7l5.8-8.3L1182.8,344.2z M1177.6,345.8c-0.1,0-0.2,0-0.3,0.1c-0.1,0.1-0.1,0.2-0.1,0.3c0,0.1,0,0.2,0.1,0.3
				c0.1,0.1,0.2,0.1,0.3,0.1c0.1,0,0.2,0,0.3-0.1s0.1-0.2,0.1-0.3c0-0.1,0-0.2-0.1-0.3C1177.8,345.8,1177.7,345.8,1177.6,345.8z
				 M1182.3,348.5c0.3,0.3,0.5,0.7,0.5,1.2c0,0.5-0.2,0.9-0.5,1.2c-0.3,0.3-0.8,0.5-1.2,0.5c-0.5,0-0.9-0.2-1.2-0.5
				c-0.3-0.3-0.5-0.8-0.5-1.2c0-0.5,0.2-0.9,0.5-1.2c0.3-0.3,0.7-0.5,1.2-0.5C1181.6,348,1182,348.1,1182.3,348.5z M1181.1,349.3
				c-0.1,0-0.2,0-0.3,0.1s-0.1,0.2-0.1,0.3c0,0.1,0,0.2,0.1,0.3c0.1,0.1,0.2,0.1,0.3,0.1s0.2,0,0.3-0.1s0.1-0.2,0.1-0.3
				c0-0.1,0-0.2-0.1-0.3C1181.3,349.3,1181.2,349.3,1181.1,349.3z"/>
		</g>
	</g>
	<g>
		<path class="st4" d="M1122.9,370.2h0.7l6,10.5v-10.5h0.7V382h-0.7l-6.1-10.6V382h-0.7V370.2z"/>
		<path class="st4" d="M1136.1,374.1c1.1,0,2.1,0.4,2.9,1.2c0.8,0.8,1.2,1.7,1.2,2.9c0,1.1-0.4,2.1-1.2,2.9
			c-0.8,0.8-1.7,1.2-2.9,1.2c-1.1,0-2.1-0.4-2.9-1.2c-0.8-0.8-1.2-1.7-1.2-2.9c0-1.1,0.4-2.1,1.2-2.9
			C1134.1,374.5,1135,374.1,1136.1,374.1z M1133.8,375.8c-0.7,0.7-1,1.4-1,2.4s0.3,1.7,1,2.4c0.7,0.6,1.4,1,2.4,1s1.7-0.3,2.4-1
			c0.7-0.6,1-1.4,1-2.4s-0.3-1.7-1-2.4c-0.7-0.7-1.4-1-2.4-1S1134.4,375.2,1133.8,375.8z"/>
		<path class="st4" d="M1147.1,374.8h0.7v1.3c0.1-0.2,0.3-0.4,0.5-0.6c0.6-0.6,1.2-0.9,1.8-0.9v0.7c-0.4,0-0.8,0.3-1.3,0.7
			c-0.6,0.6-1,1.4-1,2.2v3.7h-0.7V374.8z"/>
		<path class="st4" d="M1152.9,380.7c0.6,0.6,1.4,0.9,2.2,0.9c0.9,0,1.7-0.3,2.4-1c0.1-0.1,0.2-0.2,0.2-0.3l0.7,0.2
			c-0.1,0.2-0.3,0.3-0.4,0.5c-0.8,0.8-1.7,1.2-2.9,1.2c-1.1,0-2.1-0.4-2.9-1.2c-0.8-0.8-1.2-1.7-1.2-2.9c0-1.1,0.4-2.1,1.2-2.9
			c0.8-0.8,1.7-1.2,2.9-1.2c1,0,1.8,0.3,2.5,0.9c0.1,0.1,0.2,0.2,0.4,0.3c0,0,0.1,0.1,0.1,0.1l-0.5,0.5L1152.9,380.7z M1157.1,375.5
			c-0.6-0.4-1.2-0.7-2-0.7c-0.9,0-1.7,0.3-2.4,1s-1,1.4-1,2.4c0,0.8,0.2,1.4,0.7,2L1157.1,375.5z"/>
		<path class="st4" d="M1160.2,374.8h0.7v1c0.1-0.2,0.3-0.3,0.4-0.5c0.8-0.8,1.7-1.2,2.9-1.2c1.1,0,2.1,0.4,2.9,1.2
			c0.8,0.8,1.2,1.7,1.2,2.9c0,1.1-0.4,2.1-1.2,2.9c-0.8,0.8-1.7,1.2-2.9,1.2c-1.1,0-2.1-0.4-2.9-1.2c-0.2-0.2-0.3-0.3-0.4-0.5v4.2
			h-0.7V374.8z M1160.8,377.5v1.4c0.1,0.6,0.4,1.2,0.9,1.7c0.7,0.7,1.4,1,2.4,1s1.7-0.3,2.4-1c0.7-0.7,1-1.4,1-2.4
			c0-0.9-0.3-1.7-1-2.4c-0.7-0.7-1.4-1-2.4-1s-1.7,0.3-2.4,1C1161.3,376.3,1160.9,376.9,1160.8,377.5z"/>
		<path class="st4" d="M1173.6,374.1c1.1,0,2.1,0.4,2.9,1.2c0.8,0.8,1.2,1.7,1.2,2.9c0,1.1-0.4,2.1-1.2,2.9
			c-0.8,0.8-1.7,1.2-2.9,1.2c-1.1,0-2.1-0.4-2.9-1.2c-0.8-0.8-1.2-1.7-1.2-2.9c0-1.1,0.4-2.1,1.2-2.9
			C1171.5,374.5,1172.5,374.1,1173.6,374.1z M1171.2,375.8c-0.7,0.7-1,1.4-1,2.4s0.3,1.7,1,2.4c0.7,0.6,1.4,1,2.4,1s1.7-0.3,2.4-1
			c0.7-0.6,1-1.4,1-2.4s-0.3-1.7-1-2.4c-0.7-0.7-1.4-1-2.4-1S1171.9,375.2,1171.2,375.8z"/>
		<path class="st4" d="M1179.4,374.8h0.7v1.3c0.1-0.2,0.3-0.4,0.5-0.6c0.6-0.6,1.2-0.9,1.8-0.9v0.7c-0.4,0-0.8,0.3-1.3,0.7
			c-0.6,0.6-1,1.4-1,2.2v3.7h-0.7V374.8z"/>
		<path class="st4" d="M1185.1,374.8v-3.1h0.7v3.1h1.5v0.7h-1.5v6.6h-0.7v-6.6h-1.5v-0.7H1185.1z"/>
		<path class="st4" d="M1196.8,382h-0.7v-1.5c-0.1,0.2-0.3,0.3-0.4,0.5c-0.8,0.8-1.7,1.2-2.9,1.2c-1.1,0-2.1-0.4-2.9-1.2
			s-1.2-1.7-1.2-2.9c0-1.1,0.4-2.1,1.2-2.9c0.8-0.8,1.7-1.2,2.9-1.2c1.1,0,2.1,0.4,2.9,1.2c0.2,0.2,0.3,0.3,0.4,0.5v-1h0.7V382z
			 M1196.1,378.8v-1.3c-0.1-0.6-0.4-1.2-0.9-1.7c-0.7-0.7-1.4-1-2.4-1s-1.7,0.3-2.4,1s-1,1.4-1,2.4s0.3,1.7,1,2.4
			c0.7,0.6,1.4,1,2.4,1s1.7-0.3,2.4-1C1195.7,380,1196,379.5,1196.1,378.8z"/>
		<path class="st4" d="M1206.8,382h-0.7v-1.5c-0.1,0.2-0.3,0.3-0.4,0.5c-0.8,0.8-1.7,1.2-2.9,1.2c-1.1,0-2.1-0.4-2.9-1.2
			s-1.2-1.7-1.2-2.9c0-1.1,0.4-2.1,1.2-2.9c0.8-0.8,1.7-1.2,2.9-1.2c1.1,0,2.1,0.4,2.9,1.2c0.2,0.2,0.3,0.3,0.4,0.5v-5.6h0.7V382z
			 M1206.1,378.8v-1.3c-0.1-0.6-0.4-1.2-0.9-1.7c-0.7-0.7-1.4-1-2.4-1s-1.7,0.3-2.4,1s-1,1.4-1,2.4s0.3,1.7,1,2.4
			c0.7,0.6,1.4,1,2.4,1s1.7-0.3,2.4-1C1205.7,380,1206,379.5,1206.1,378.8z"/>
		<path class="st4" d="M1212.6,374.1c1.1,0,2.1,0.4,2.9,1.2c0.8,0.8,1.2,1.7,1.2,2.9c0,1.1-0.4,2.1-1.2,2.9
			c-0.8,0.8-1.7,1.2-2.9,1.2c-1.1,0-2.1-0.4-2.9-1.2c-0.8-0.8-1.2-1.7-1.2-2.9c0-1.1,0.4-2.1,1.2-2.9
			C1210.5,374.5,1211.5,374.1,1212.6,374.1z M1210.2,375.8c-0.7,0.7-1,1.4-1,2.4s0.3,1.7,1,2.4c0.7,0.6,1.4,1,2.4,1s1.7-0.3,2.4-1
			c0.7-0.6,1-1.4,1-2.4s-0.3-1.7-1-2.4c-0.7-0.7-1.4-1-2.4-1S1210.9,375.2,1210.2,375.8z"/>
	</g>
	<g>
		<g>
			<path class="st4" d="M1146.8,397.2h0.5l0.6-2.6h1.3l-0.6,2.6h2.6l-0.3,1.3h-2.6l-0.1,0.6h2.6l-0.3,1.3h-2.6l-0.6,2.6h-1.3
				l0.6-2.6h-0.5l-0.6,2.6h-1.3l0.7-2.6h-2.6l0.3-1.3h2.6l0.1-0.6h-2.6l0.3-1.3h2.6l0.6-2.6h1.3L1146.8,397.2z M1147,398.5h-0.5
				l-0.1,0.6h0.5L1147,398.5z"/>
			<path class="st4" d="M1157.7,393.6v10.1h-1.3v-8.4h-1l1.3-1.7L1157.7,393.6L1157.7,393.6z"/>
			<path class="st4" d="M1164.8,398.5l-0.8,0v-1.3c0.6,0,0.9,0,1.1-0.1c0.2-0.1,0.4-0.2,0.6-0.4c0.2-0.2,0.3-0.5,0.3-0.8
				c0-0.3-0.1-0.5-0.3-0.7c-0.2-0.2-0.4-0.3-0.7-0.3c-0.3,0-0.5,0.1-0.7,0.3c-0.1,0.1-0.2,0.4-0.4,0.8l-1.2-0.5
				c0.2-0.6,0.4-1,0.7-1.2c0.5-0.5,1-0.7,1.7-0.7c0.7,0,1.2,0.2,1.7,0.7c0.5,0.5,0.7,1,0.7,1.7c0,0.7-0.4,1.3-1.2,1.9
				c0.4,0,0.8,0.2,1.2,0.6c0.6,0.6,0.9,1.4,0.9,2.3c0,0.9-0.3,1.6-0.9,2.2c-0.6,0.6-1.4,0.9-2.2,0.9c-0.9,0-1.6-0.3-2.2-0.9
				c-0.5-0.5-0.8-1.2-0.9-2.1l1.3-0.5c0.1,0.8,0.3,1.3,0.6,1.6c0.4,0.4,0.8,0.5,1.3,0.5c0.5,0,0.9-0.2,1.3-0.5
				c0.4-0.4,0.5-0.8,0.5-1.3c0-0.5-0.2-1-0.5-1.4C1166.1,398.9,1165.5,398.6,1164.8,398.5z"/>
			<path class="st4" d="M1171.5,402.2c0.2,0.2,0.3,0.4,0.3,0.6c0,0.3-0.1,0.5-0.3,0.7s-0.4,0.3-0.6,0.3c-0.2,0-0.5-0.1-0.6-0.3
				s-0.3-0.4-0.3-0.7c0-0.3,0.1-0.5,0.3-0.6s0.4-0.3,0.6-0.3C1171.1,401.9,1171.3,402,1171.5,402.2z"/>
			<path class="st4" d="M1178,393.6v10.1h-1.3v-8.4h-1l1.3-1.7L1178,393.6L1178,393.6z"/>
			<path class="st4" d="M1184,397.5c0.4-0.4,1-0.6,1.9-0.6c0.9,0,1.6,0.3,2.2,0.9c0.7,0.7,1,1.6,1,2.5c0,1-0.3,1.8-1,2.5
				c-0.7,0.7-1.5,1.1-2.5,1.1c-1,0-1.8-0.3-2.5-1c-0.7-0.7-1-1.6-1-2.8v0c0-1.2,0.3-2.2,1-3.1c0.6-0.9,1.5-2,2.6-3.2h1.7
				C1185.7,395.2,1184.6,396.5,1184,397.5z M1183.2,400.3c0,0.6,0.2,1.2,0.7,1.6c0.4,0.4,1,0.7,1.6,0.7c0.6,0,1.1-0.2,1.6-0.7
				c0.4-0.4,0.7-1,0.7-1.6c0-0.6-0.2-1.2-0.7-1.6c-0.4-0.4-1-0.7-1.6-0.7c-0.6,0-1.2,0.2-1.6,0.7
				C1183.4,399.1,1183.2,399.6,1183.2,400.3z"/>
			<path class="st4" d="M1192.4,396.3c0.2,0,0.5-0.1,0.7-0.1c0.5,0,0.9,0.1,1.4,0.2c1,0.3,1.7,0.9,2.2,1.8c0.3,0.6,0.4,1.1,0.4,1.7
				c0,0.4-0.1,0.7-0.2,1.1c-0.3,1-0.9,1.7-1.8,2.2c-0.5,0.3-1.1,0.4-1.7,0.4c-0.4,0-0.7-0.1-1.1-0.2c-0.8-0.2-1.5-0.7-2-1.5l0.9-1
				c0.5,0.7,1,1.1,1.5,1.3c0.2,0.1,0.5,0.1,0.7,0.1c0.4,0,0.7-0.1,1.1-0.3c0.6-0.3,1-0.8,1.1-1.4c0.1-0.2,0.1-0.5,0.1-0.7
				c0-0.4-0.1-0.7-0.3-1.1c-0.3-0.6-0.8-1-1.4-1.2c-0.3-0.1-0.6-0.1-0.9-0.1c-0.4,0-1,0.1-1.7,0.3l-0.8-0.7l1.1-3.1v-0.5h3.7v1.3
				h-2.6L1192.4,396.3z"/>
			<path class="st4" d="M1163.4,417.5c0,1-0.4,1.8-1.1,2.5c-0.7,0.7-1.5,1.1-2.5,1.1c-1,0-1.8-0.4-2.5-1.1c-0.7-0.7-1.1-1.5-1.1-2.5
				v-3.1c0-1,0.4-1.8,1.1-2.5c0.7-0.7,1.5-1.1,2.5-1.1c1,0,1.8,0.4,2.5,1.1c0.7,0.7,1.1,1.5,1.1,2.5V417.5z M1162,414.5
				c0-0.6-0.2-1.1-0.7-1.6c-0.4-0.4-1-0.7-1.6-0.7c-0.6,0-1.1,0.2-1.6,0.7c-0.4,0.4-0.7,1-0.7,1.6v3.1c0,0.6,0.2,1.2,0.7,1.6
				c0.4,0.4,1,0.7,1.6,0.7c0.6,0,1.2-0.2,1.6-0.7c0.4-0.4,0.7-1,0.7-1.6V414.5z"/>
			<path class="st4" d="M1166.6,419.2l-1.5,3h-1.2l0.8-3H1166.6z"/>
			<path class="st4" d="M1172.9,417.1c-0.4,0.4-1,0.6-1.9,0.6c-0.9,0-1.6-0.3-2.2-0.9c-0.7-0.7-1-1.5-1-2.5c0-1,0.3-1.8,1-2.5
				s1.5-1.1,2.5-1.1c1,0,1.8,0.3,2.5,1c0.7,0.7,1,1.6,1,2.8v0c0,1.2-0.3,2.2-1,3.1c-0.6,0.9-1.5,2-2.6,3.2h-1.7
				C1171.1,419.4,1172.2,418.1,1172.9,417.1z M1173.6,414.3c0-0.6-0.2-1.2-0.7-1.6c-0.4-0.4-1-0.7-1.6-0.7c-0.6,0-1.1,0.2-1.6,0.7
				c-0.4,0.4-0.7,1-0.7,1.6s0.2,1.2,0.7,1.6c0.4,0.4,1,0.7,1.6,0.7c0.6,0,1.2-0.2,1.6-0.7C1173.4,415.5,1173.6,414.9,1173.6,414.3z"
				/>
			<path class="st4" d="M1178.9,413.6c0.3,0.3,0.5,0.7,0.5,1.2s-0.2,0.9-0.5,1.2c-0.3,0.3-0.7,0.5-1.2,0.5s-0.9-0.2-1.2-0.5
				c-0.3-0.3-0.5-0.7-0.5-1.2c0-0.5,0.2-0.9,0.5-1.2c0.3-0.3,0.7-0.5,1.2-0.5C1178.1,413.1,1178.5,413.3,1178.9,413.6z
				 M1182.8,412.8l-5.8,8.3l-1.1-0.7l5.8-8.3L1182.8,412.8z M1177.6,414.4c-0.1,0-0.2,0-0.3,0.1c-0.1,0.1-0.1,0.2-0.1,0.3
				c0,0.1,0,0.2,0.1,0.3c0.1,0.1,0.2,0.1,0.3,0.1c0.1,0,0.2,0,0.3-0.1s0.1-0.2,0.1-0.3c0-0.1,0-0.2-0.1-0.3
				C1177.9,414.4,1177.7,414.4,1177.6,414.4z M1182.4,417.1c0.3,0.3,0.5,0.7,0.5,1.2c0,0.5-0.2,0.9-0.5,1.2
				c-0.3,0.3-0.8,0.5-1.2,0.5c-0.5,0-0.9-0.2-1.2-0.5c-0.3-0.3-0.5-0.8-0.5-1.2c0-0.5,0.2-0.9,0.5-1.2c0.3-0.3,0.7-0.5,1.2-0.5
				C1181.6,416.6,1182,416.8,1182.4,417.1z M1181.1,417.9c-0.1,0-0.2,0-0.3,0.1s-0.1,0.2-0.1,0.3c0,0.1,0,0.2,0.1,0.3
				c0.1,0.1,0.2,0.1,0.3,0.1s0.2,0,0.3-0.1s0.1-0.2,0.1-0.3c0-0.1,0-0.2-0.1-0.3S1181.2,417.9,1181.1,417.9z"/>
		</g>
	</g>
	<g>
		<path class="st4" d="M1127.7,439.6v11.1h-0.7v-11.1h-3v-0.7h6.6v0.7H1127.7z"/>
		<path class="st4" d="M1135.2,442.8c1.1,0,2.1,0.4,2.9,1.2c0.8,0.8,1.2,1.7,1.2,2.9c0,1.1-0.4,2.1-1.2,2.9
			c-0.8,0.8-1.7,1.2-2.9,1.2c-1.1,0-2.1-0.4-2.9-1.2c-0.8-0.8-1.2-1.7-1.2-2.9c0-1.1,0.4-2.1,1.2-2.9
			C1133.1,443.2,1134,442.8,1135.2,442.8z M1132.8,444.5c-0.7,0.7-1,1.4-1,2.4s0.3,1.7,1,2.4c0.7,0.6,1.4,1,2.4,1s1.7-0.3,2.4-1
			c0.7-0.6,1-1.4,1-2.4s-0.3-1.7-1-2.4c-0.7-0.7-1.4-1-2.4-1S1133.4,443.8,1132.8,444.5z"/>
		<path class="st4" d="M1142,443.4v-3.1h0.7v3.1h1.5v0.7h-1.5v6.6h-0.7v-6.6h-1.5v-0.7H1142z"/>
		<path class="st4" d="M1153.7,450.7h-0.7v-1.5c-0.1,0.2-0.3,0.3-0.4,0.5c-0.8,0.8-1.7,1.2-2.9,1.2c-1.1,0-2.1-0.4-2.9-1.2
			s-1.2-1.7-1.2-2.9c0-1.1,0.4-2.1,1.2-2.9c0.8-0.8,1.7-1.2,2.9-1.2c1.1,0,2.1,0.4,2.9,1.2c0.2,0.2,0.3,0.3,0.4,0.5v-1h0.7V450.7z
			 M1153,447.5v-1.3c-0.1-0.6-0.4-1.2-0.9-1.7c-0.7-0.7-1.4-1-2.4-1s-1.7,0.3-2.4,1s-1,1.4-1,2.4s0.3,1.7,1,2.4c0.7,0.6,1.4,1,2.4,1
			s1.7-0.3,2.4-1C1152.6,448.7,1152.9,448.1,1153,447.5z"/>
		<path class="st4" d="M1156.6,438.9v11.8h-0.7v-11.8H1156.6z"/>
		<path class="st4" d="M1171.1,449.2c-0.1,0.2-0.3,0.3-0.4,0.5c-0.8,0.8-1.7,1.2-2.9,1.2c-1.1,0-2.1-0.4-2.9-1.2s-1.2-1.7-1.2-2.9
			c0-1.1,0.4-2.1,1.2-2.9c0.8-0.8,1.7-1.2,2.9-1.2c1.1,0,2.1,0.4,2.9,1.2c0.2,0.2,0.3,0.3,0.4,0.5v-1h0.7v5.6c0,1.1-0.4,2-1.2,2.8
			c-0.8,0.8-1.7,1.2-2.9,1.2c-1.1,0-2.1-0.4-2.9-1.2c-0.2-0.2-0.3-0.3-0.4-0.5l0.7-0.2c0.1,0.1,0.2,0.2,0.2,0.3c0.7,0.7,1.4,1,2.4,1
			c0.9,0,1.7-0.3,2.4-1C1170.7,450.7,1171,450,1171.1,449.2z M1171.1,446.1c-0.1-0.6-0.4-1.2-0.9-1.7c-0.7-0.7-1.4-1-2.4-1
			s-1.7,0.3-2.4,1s-1,1.4-1,2.4s0.3,1.7,1,2.4c0.7,0.7,1.4,1,2.4,1s1.7-0.3,2.4-1c0.5-0.5,0.8-1,0.9-1.7V446.1z"/>
		<path class="st4" d="M1175.4,449.3c0.6,0.6,1.4,0.9,2.2,0.9c0.9,0,1.7-0.3,2.4-1c0.1-0.1,0.2-0.2,0.2-0.3l0.7,0.2
			c-0.1,0.2-0.3,0.3-0.4,0.5c-0.8,0.8-1.7,1.2-2.9,1.2c-1.1,0-2.1-0.4-2.9-1.2c-0.8-0.8-1.2-1.7-1.2-2.9c0-1.1,0.4-2.1,1.2-2.9
			c0.8-0.8,1.7-1.2,2.9-1.2c1,0,1.8,0.3,2.5,0.9c0.1,0.1,0.2,0.2,0.4,0.3c0,0,0.1,0.1,0.1,0.1l-0.5,0.5L1175.4,449.3z M1179.6,444.2
			c-0.6-0.4-1.2-0.7-2-0.7c-0.9,0-1.7,0.3-2.4,1s-1,1.4-1,2.4c0,0.8,0.2,1.4,0.7,2L1179.6,444.2z"/>
		<path class="st4" d="M1183.3,445v5.6h-0.7v-7.2h0.7v0.5c0.6-0.6,1.3-0.9,2.1-0.9c0.9,0,1.5,0.3,2.1,0.8c0.5,0.5,0.8,1.2,0.8,2v4.8
			h-0.7v-4.8c0-0.6-0.2-1.1-0.7-1.6c-0.4-0.4-1-0.7-1.6-0.7s-1.1,0.2-1.6,0.6C1183.6,444.5,1183.4,444.8,1183.3,445z"/>
		<path class="st4" d="M1191.9,449.3c0.6,0.6,1.4,0.9,2.2,0.9c0.9,0,1.7-0.3,2.4-1c0.1-0.1,0.2-0.2,0.2-0.3l0.7,0.2
			c-0.1,0.2-0.3,0.3-0.4,0.5c-0.8,0.8-1.7,1.2-2.9,1.2c-1.1,0-2.1-0.4-2.9-1.2c-0.8-0.8-1.2-1.7-1.2-2.9c0-1.1,0.4-2.1,1.2-2.9
			c0.8-0.8,1.7-1.2,2.9-1.2c1,0,1.8,0.3,2.5,0.9c0.1,0.1,0.2,0.2,0.4,0.3c0,0,0.1,0.1,0.1,0.1l-0.5,0.5L1191.9,449.3z M1196.1,444.2
			c-0.6-0.4-1.2-0.7-2-0.7c-0.9,0-1.7,0.3-2.4,1s-1,1.4-1,2.4c0,0.8,0.2,1.4,0.7,2L1196.1,444.2z"/>
		<path class="st4" d="M1199.2,443.4h0.7v1.3c0.1-0.2,0.3-0.4,0.5-0.6c0.6-0.6,1.2-0.9,1.8-0.9v0.7c-0.4,0-0.8,0.3-1.3,0.7
			c-0.6,0.6-1,1.4-1,2.2v3.7h-0.7V443.4z"/>
		<path class="st4" d="M1211.4,450.7h-0.7v-1.5c-0.1,0.2-0.3,0.3-0.4,0.5c-0.8,0.8-1.7,1.2-2.9,1.2c-1.1,0-2.1-0.4-2.9-1.2
			s-1.2-1.7-1.2-2.9c0-1.1,0.4-2.1,1.2-2.9c0.8-0.8,1.7-1.2,2.9-1.2c1.1,0,2.1,0.4,2.9,1.2c0.2,0.2,0.3,0.3,0.4,0.5v-1h0.7V450.7z
			 M1210.7,447.5v-1.3c-0.1-0.6-0.4-1.2-0.9-1.7c-0.7-0.7-1.4-1-2.4-1s-1.7,0.3-2.4,1s-1,1.4-1,2.4s0.3,1.7,1,2.4
			c0.7,0.6,1.4,1,2.4,1s1.7-0.3,2.4-1C1210.3,448.7,1210.6,448.1,1210.7,447.5z"/>
		<path class="st4" d="M1214.3,438.9v11.8h-0.7v-11.8H1214.3z"/>
	</g>
	<g>
		<g>
			<path class="st4" d="M1136,465.8h0.5l0.6-2.6h1.3l-0.6,2.6h2.6l-0.3,1.3h-2.6l-0.1,0.6h2.6l-0.3,1.3h-2.6l-0.6,2.6h-1.3l0.6-2.6
				h-0.5l-0.6,2.6h-1.3l0.7-2.6h-2.6l0.3-1.3h2.6l0.1-0.6h-2.6l0.3-1.3h2.6l0.6-2.6h1.3L1136,465.8z M1136.2,467.1h-0.5l-0.1,0.6
				h0.5L1136.2,467.1z"/>
			<path class="st4" d="M1146.9,462.2v10.1h-1.3v-8.4h-1l1.3-1.7L1146.9,462.2L1146.9,462.2z"/>
			<path class="st4" d="M1152.5,470.9c0.2,0.2,0.3,0.4,0.3,0.6c0,0.3-0.1,0.5-0.3,0.7s-0.4,0.3-0.6,0.3c-0.2,0-0.5-0.1-0.6-0.3
				s-0.3-0.4-0.3-0.7c0-0.3,0.1-0.5,0.3-0.6s0.4-0.3,0.6-0.3C1152.1,470.6,1152.3,470.7,1152.5,470.9z"/>
			<path class="st4" d="M1158.7,462.2h1.1v6.1h0.9v1.3h-0.9v2.7h-1.3v-2.7h-4.1L1158.7,462.2z M1158.6,465.2l-1.9,3.1h1.9V465.2z"/>
			<path class="st4" d="M1167.5,462.2v10.1h-1.3v-8.4h-1l1.3-1.7L1167.5,462.2L1167.5,462.2z"/>
			<path class="st4" d="M1176.5,462.2v10.1h-1.3v-8.4h-1l1.3-1.7L1176.5,462.2L1176.5,462.2z"/>
			<path class="st4" d="M1182.1,470.9c0.2,0.2,0.3,0.4,0.3,0.6c0,0.3-0.1,0.5-0.3,0.7s-0.4,0.3-0.6,0.3c-0.2,0-0.5-0.1-0.6-0.3
				s-0.3-0.4-0.3-0.7c0-0.3,0.1-0.5,0.3-0.6s0.4-0.3,0.6-0.3C1181.7,470.6,1181.9,470.7,1182.1,470.9z"/>
			<path class="st4" d="M1185.8,465c0.2,0,0.5-0.1,0.7-0.1c0.5,0,0.9,0.1,1.4,0.2c1,0.3,1.7,0.9,2.2,1.8c0.3,0.6,0.4,1.1,0.4,1.7
				c0,0.4-0.1,0.7-0.2,1.1c-0.3,1-0.9,1.7-1.8,2.2c-0.5,0.3-1.1,0.4-1.7,0.4c-0.4,0-0.7-0.1-1.1-0.2c-0.8-0.2-1.5-0.7-2-1.5l0.9-1
				c0.5,0.7,1,1.1,1.5,1.3c0.2,0.1,0.5,0.1,0.7,0.1c0.4,0,0.7-0.1,1.1-0.3c0.6-0.3,1-0.8,1.1-1.4c0.1-0.2,0.1-0.5,0.1-0.7
				c0-0.4-0.1-0.7-0.3-1.1c-0.3-0.6-0.8-1-1.4-1.2c-0.3-0.1-0.6-0.1-0.9-0.1c-0.4,0-1,0.1-1.7,0.3l-0.8-0.7l1.1-3.1v-0.5h3.7v1.3
				h-2.6L1185.8,465z"/>
			<path class="st4" d="M1196.9,462.2v10.1h-1.3v-8.4h-1l1.3-1.7L1196.9,462.2L1196.9,462.2z"/>
			<path class="st4" d="M1203.1,465c0.2,0,0.5-0.1,0.7-0.1c0.5,0,0.9,0.1,1.4,0.2c1,0.3,1.7,0.9,2.2,1.8c0.3,0.6,0.4,1.1,0.4,1.7
				c0,0.4-0.1,0.7-0.2,1.1c-0.3,1-0.9,1.7-1.8,2.2c-0.5,0.3-1.1,0.4-1.7,0.4c-0.4,0-0.7-0.1-1.1-0.2c-0.8-0.2-1.5-0.7-2-1.5l0.9-1
				c0.5,0.7,1,1.1,1.5,1.3c0.2,0.1,0.5,0.1,0.7,0.1c0.4,0,0.7-0.1,1.1-0.3c0.6-0.3,1-0.8,1.1-1.4c0.1-0.2,0.1-0.5,0.1-0.7
				c0-0.4-0.1-0.7-0.3-1.1c-0.3-0.6-0.8-1-1.4-1.2c-0.3-0.1-0.6-0.1-0.9-0.1c-0.4,0-1,0.1-1.7,0.3l-0.8-0.7l1.1-3.1v-0.5h3.7v1.3
				h-2.6L1203.1,465z"/>
			<path class="st4" d="M1152.8,479.5v10.1h-1.3v-8.4h-1l1.3-1.7L1152.8,479.5L1152.8,479.5z"/>
			<path class="st4" d="M1163.8,486.2c0,1-0.4,1.8-1.1,2.5c-0.7,0.7-1.5,1.1-2.5,1.1c-1,0-1.8-0.4-2.5-1.1c-0.7-0.7-1.1-1.5-1.1-2.5
				v-3.1c0-1,0.4-1.8,1.1-2.5c0.7-0.7,1.5-1.1,2.5-1.1c1,0,1.8,0.4,2.5,1.1c0.7,0.7,1.1,1.5,1.1,2.5V486.2z M1162.5,483.1
				c0-0.6-0.2-1.1-0.7-1.6c-0.4-0.4-1-0.7-1.6-0.7c-0.6,0-1.1,0.2-1.6,0.7c-0.4,0.4-0.7,1-0.7,1.6v3.1c0,0.6,0.2,1.2,0.7,1.6
				c0.4,0.4,1,0.7,1.6,0.7c0.6,0,1.2-0.2,1.6-0.7c0.4-0.4,0.7-1,0.7-1.6V483.1z"/>
			<path class="st4" d="M1171.9,486.2c0,1-0.4,1.8-1.1,2.5c-0.7,0.7-1.5,1.1-2.5,1.1c-1,0-1.8-0.4-2.5-1.1c-0.7-0.7-1.1-1.5-1.1-2.5
				v-3.1c0-1,0.4-1.8,1.1-2.5c0.7-0.7,1.5-1.1,2.5-1.1c1,0,1.8,0.4,2.5,1.1c0.7,0.7,1.1,1.5,1.1,2.5V486.2z M1170.6,483.1
				c0-0.6-0.2-1.1-0.7-1.6c-0.4-0.4-1-0.7-1.6-0.7c-0.6,0-1.1,0.2-1.6,0.7c-0.4,0.4-0.7,1-0.7,1.6v3.1c0,0.6,0.2,1.2,0.7,1.6
				c0.4,0.4,1,0.7,1.6,0.7c0.6,0,1.2-0.2,1.6-0.7c0.4-0.4,0.7-1,0.7-1.6V483.1z"/>
			<path class="st4" d="M1175.2,487.9l-1.5,3h-1.2l0.8-3H1175.2z"/>
			<path class="st4" d="M1183.5,486.2c0,1-0.4,1.8-1.1,2.5c-0.7,0.7-1.5,1.1-2.5,1.1c-1,0-1.8-0.4-2.5-1.1c-0.7-0.7-1.1-1.5-1.1-2.5
				v-3.1c0-1,0.4-1.8,1.1-2.5c0.7-0.7,1.5-1.1,2.5-1.1c1,0,1.8,0.4,2.5,1.1c0.7,0.7,1.1,1.5,1.1,2.5V486.2z M1182.1,483.1
				c0-0.6-0.2-1.1-0.7-1.6c-0.4-0.4-1-0.7-1.6-0.7c-0.6,0-1.1,0.2-1.6,0.7c-0.4,0.4-0.7,1-0.7,1.6v3.1c0,0.6,0.2,1.2,0.7,1.6
				c0.4,0.4,1,0.7,1.6,0.7c0.6,0,1.2-0.2,1.6-0.7c0.4-0.4,0.7-1,0.7-1.6V483.1z"/>
			<path class="st4" d="M1187.4,482.3c0.3,0.3,0.5,0.7,0.5,1.2s-0.2,0.9-0.5,1.2c-0.3,0.3-0.7,0.5-1.2,0.5s-0.9-0.2-1.2-0.5
				c-0.3-0.3-0.5-0.7-0.5-1.2c0-0.5,0.2-0.9,0.5-1.2c0.3-0.3,0.7-0.5,1.2-0.5C1186.7,481.8,1187.1,481.9,1187.4,482.3z
				 M1191.4,481.5l-5.8,8.3l-1.1-0.7l5.8-8.3L1191.4,481.5z M1186.2,483.1c-0.1,0-0.2,0-0.3,0.1c-0.1,0.1-0.1,0.2-0.1,0.3
				c0,0.1,0,0.2,0.1,0.3c0.1,0.1,0.2,0.1,0.3,0.1c0.1,0,0.2,0,0.3-0.1s0.1-0.2,0.1-0.3c0-0.1,0-0.2-0.1-0.3
				C1186.4,483.1,1186.3,483.1,1186.2,483.1z M1190.9,485.8c0.3,0.3,0.5,0.7,0.5,1.2c0,0.5-0.2,0.9-0.5,1.2
				c-0.3,0.3-0.8,0.5-1.2,0.5c-0.5,0-0.9-0.2-1.2-0.5c-0.3-0.3-0.5-0.8-0.5-1.2c0-0.5,0.2-0.9,0.5-1.2c0.3-0.3,0.7-0.5,1.2-0.5
				C1190.2,485.2,1190.6,485.4,1190.9,485.8z M1189.7,486.5c-0.1,0-0.2,0-0.3,0.1s-0.1,0.2-0.1,0.3c0,0.1,0,0.2,0.1,0.3
				c0.1,0.1,0.2,0.1,0.3,0.1s0.2,0,0.3-0.1s0.1-0.2,0.1-0.3c0-0.1,0-0.2-0.1-0.3C1189.9,486.6,1189.8,486.5,1189.7,486.5z"/>
		</g>
	</g>
</g>
<g>
	<path class="st5" d="M1064.7,27.7c-5.5-0.3-10.3,3.9-10.6,9.4c-0.3,5.5,3.9,10.3,9.4,10.6c5.5,0.3,10.3-3.9,10.6-9.4
		C1074.5,32.7,1070.2,28,1064.7,27.7z M1068.8,41.7c0.3,0.3,0.3,0.8-0.1,1.1c-0.3,0.3-0.8,0.3-1.1-0.1l-3.5-4l-4,3.5
		c-0.3,0.3-0.8,0.3-1.1-0.1c-0.3-0.3-0.3-0.8,0.1-1.1l4-3.5l-3.5-4c-0.3-0.3-0.3-0.8,0.1-1.1c0.3-0.3,0.8-0.3,1.1,0.1l3.5,4l4-3.5
		c0.3-0.3,0.8-0.3,1.1,0.1c0.3,0.3,0.3,0.8-0.1,1.1l-4,3.5L1068.8,41.7z"/>
	<g>
		<path class="st5" d="M1045.3,36.6c0.6-10.4,9.5-18.3,19.9-17.7s18.3,9.5,17.7,19.9s-9.5,18.3-19.9,17.7
			C1052.7,55.9,1044.7,47,1045.3,36.6z M1051.1,36.9c-0.4,7.2,5.1,13.3,12.3,13.7c7.2,0.4,13.3-5.1,13.7-12.3
			c0.4-7.2-5.1-13.3-12.3-13.7C1057.7,24.3,1051.5,29.8,1051.1,36.9z"/>
	</g>
</g>
</svg>
