<?xml version="1.0" encoding="utf-8"?>
<!-- Generator: Adobe Illustrator 16.0.0, SVG Export Plug-In . SVG Version: 6.00 Build 0)  -->
<!DOCTYPE svg PUBLIC "-//W3C//DTD SVG 1.1//EN" "http://www.w3.org/Graphics/SVG/1.1/DTD/svg11.dtd">
<svg version="1.1" id="Capa_1" xmlns="http://www.w3.org/2000/svg" xmlns:xlink="http://www.w3.org/1999/xlink" x="0px" y="0px"
	 width="734.338px" height="413.177px" viewBox="0 0 734.338 413.177" enable-background="new 0 0 734.338 413.177"
	 xml:space="preserve">
<g>
	<g>
		<g>
			<path fill="#F39200" d="M152.151,244.045l0.729,0.765c0.027,0.029,0.044,0.067,0.047,0.107l0.035,0.452l0.102,0.5l0.305,0.807
				c0.004,0.011,0.008,0.022,0.01,0.036l0.035,0.244c0,0.016,0,0.032,0,0.047l-0.035,0.244l-0.072,0.326l-0.283,0.818l-0.058,0.359
				l0.026,0.16l0.408,0.953l1.65,2.402c0.01,0.013,0.018,0.027,0.021,0.043l0.07,0.208c0.005,0.013,0.008,0.026,0.009,0.039
				l0.066,0.731l0.077,0.154l0.165,0.166l0.665,0.299l0.699,0.163l0.849,0.283l0.489,0.062l0.396-0.001l1.047-0.405
				c0.022-0.01,0.045-0.015,0.07-0.012l0.692,0.032l0.634-0.253l0.362-0.295c0.014-0.012,0.028-0.021,0.044-0.027l0.174-0.07
				l0.653-0.147l0.661-0.07l0.36-0.12l0.249-0.248c0.014-0.016,0.033-0.029,0.053-0.038l0.244-0.104
				c0.013-0.007,0.027-0.01,0.039-0.012l0.418-0.069l0.654-0.002l0.266,0.035l0.479,0.146l2.072,0.981
				c0.026,0.013,0.05,0.032,0.066,0.056l0.278,0.382c0.025,0.034,0.037,0.077,0.031,0.119l-0.068,0.695
				c-0.002,0.025-0.012,0.052-0.027,0.074l-0.336,0.539l-0.213,0.641l0.06,0.119l0.188,0.188l1.371,1.025l0.293,0.161l0.254,0.095
				l0.443,0.255c0.025,0.015,0.047,0.036,0.062,0.062l0.348,0.591c0.027,0.047,0.031,0.105,0.01,0.155l-0.352,0.81
				c-0.023,0.043-0.061,0.077-0.109,0.09l-0.35,0.096l-0.061,0.045l-0.057,0.283c-0.004,0.016-0.01,0.031-0.018,0.047l-0.209,0.383
				c-0.01,0.018-0.022,0.033-0.037,0.048l-0.8,0.698l-0.357,1.04v0.261l0.099,0.36c0.006,0.021,0.007,0.042,0.005,0.063l0,0l0,0
				l-0.034,0.347l-0.072,0.364c-0.002,0.012-0.006,0.022-0.011,0.034l-0.515,1.211l1.009,0.302l0.151,0.045l0.269-0.059
				c0.046-0.012,0.095-0.002,0.135,0.025l0.208,0.139l0.152,0.062l1.117-0.395c0.018-0.006,0.039-0.01,0.059-0.01h0.349l0.264-0.105
				l0.053-0.021c0.021-0.009,0.042-0.013,0.064-0.013h0.173c0.039,0,0.079,0.014,0.11,0.039l0.103,0.085l0.255,0.208l0.36,0.119
				h0.214l0.183-0.027l0.146-0.088l0.706-0.607c0.012-0.009,0.021-0.017,0.035-0.023l0.139-0.069l0.76-0.22l0.959-0.144l0.744-0.205
				c0.041-0.011,0.082-0.008,0.118,0.009l0.382,0.175c0.031,0.014,0.057,0.036,0.074,0.064l1.371,2.124l0.217,0.156
				c0.018,0.012,0.031,0.027,0.045,0.045l0.209,0.312c0.011,0.02,0.021,0.04,0.024,0.062l0.034,0.174
				c0.005,0.02,0.005,0.038,0.002,0.058l0,0l0,0l-0.035,0.244l-0.105,0.498l-0.115,0.274c-0.008,0.017-0.018,0.033-0.028,0.048
				l-0.521,0.589c-0.011,0.013-0.024,0.024-0.036,0.033l-1.053,0.657l-0.082,0.324l0.102,1.954l0.241,1.119l0.032,0.766h0.596
				l1.863,0.104l0.576-0.129l0.576-0.321l0.503-0.567l1.2-1.822c0.023-0.035,0.059-0.061,0.1-0.072l0.33-0.09l0.052-0.014l0,0l0,0
				c0.034-0.01,0.071-0.01,0.105,0.004l0.382,0.14c0.012,0.005,0.023,0.01,0.034,0.017l0.382,0.243l0.769,0.297
				c0.032,0.013,0.058,0.032,0.077,0.06l0.381,0.521l0.458,0.702c0.015,0.021,0.023,0.046,0.026,0.07l0.025,0.178l0.365,0.304
				c0.022,0.019,0.041,0.042,0.051,0.069l0.277,0.694l0.108,0.322c0.006,0.018,0.009,0.037,0.009,0.055v0.312
				c0,0.016-0.002,0.031-0.007,0.046l-0.104,0.382l-0.393,0.828l-0.124,0.374l-0.067,2.003l0.198,0.952l0.553,0.783l0.406,0.312
				l1.639,0.513l0.941,0.45l0.674,0.134l3.242,0.102l0.301-0.092l0.206-0.117l0.192-0.191c0.01-0.01,0.02-0.019,0.031-0.025
				l0.277-0.174l0.362-0.182c0.013-0.006,0.026-0.012,0.04-0.014l0.312-0.068c0.015-0.004,0.031-0.008,0.046-0.004l0,0l0,0
				l0.711,0.033l0.337-0.057l0.146-0.172l0.094-0.25c0.011-0.025,0.025-0.051,0.049-0.068l0.131-0.115l-2.118-1.927l-0.164-0.046
				l-0.863,0.166c-0.021,0.004-0.044,0.004-0.065,0l-1.077-0.209c-0.019-0.004-0.038-0.011-0.056-0.021l-0.416-0.242
				c-0.016-0.01-0.029-0.021-0.043-0.035l-0.277-0.312c-0.01-0.012-0.02-0.023-0.025-0.037l-0.277-0.557
				c-0.01-0.018-0.016-0.036-0.017-0.057l-0.035-0.277c-0.002-0.012-0.002-0.024-0.001-0.036l0.277-3.058l0.074-0.304
				c0.006-0.023,0.018-0.046,0.03-0.063l0.44-0.576l0.157-0.343l0.134-0.778c0.003-0.014,0.006-0.027,0.014-0.041l0.521-1.146
				l1.472-2.314c0.012-0.02,0.027-0.037,0.047-0.049l0.2-0.139l-0.524-0.242l-0.869-0.033c-0.019,0-0.037-0.004-0.054-0.01
				l-0.835-0.312l-0.388-0.211l-1.72-0.516c-0.014-0.004-0.025-0.009-0.037-0.017l-0.834-0.486
				c-0.014-0.007-0.024-0.017-0.035-0.026l-0.625-0.625c-0.01-0.011-0.019-0.021-0.025-0.033l-1.008-1.632l-1.191-1.53l-1.686-1.307
				c-0.018-0.015-0.033-0.033-0.043-0.054l-0.488-0.868c-0.012-0.022-0.02-0.047-0.021-0.072l-0.07-1.008l0.036-0.311
				c0.003-0.017,0.007-0.031,0.013-0.046l0.174-0.417c0.009-0.022,0.023-0.043,0.04-0.061l0.591-0.557l0.047-0.165l-0.066-0.662
				l-0.035-1.089c0-0.04,0.013-0.081,0.038-0.113l0.382-0.485c0.014-0.019,0.031-0.034,0.053-0.046l0.312-0.174
				c0.033-0.018,0.074-0.025,0.113-0.02l0.416,0.07c0.021,0.004,0.045,0.012,0.064,0.025l0.242,0.15l0.308,0.031l0.399-0.001
				c0.014,0,0.025,0.001,0.039,0.006l0.407,0.093l0.593-0.188l0.113-0.068l0.02-0.04l-0.057-0.287l-0.037-0.438
				c-0.005-0.045,0.01-0.09,0.037-0.124l0.313-0.383c0.013-0.017,0.03-0.03,0.049-0.041l0.203-0.116l0.323-0.551l0.299-0.871
				l0.109-0.255c0.004-0.012,0.01-0.022,0.018-0.032l0.141-0.199v-0.288l-0.818-1.808c-0.016-0.036-0.019-0.075-0.01-0.114
				l0.312-1.249c0.022-0.09,0.111-0.146,0.201-0.129l0.729,0.139c0.034,0.007,0.065,0.023,0.089,0.049l0.349,0.347l1.234,0.965
				l0.405,0.063l0.547,0.031l1.814-0.479l0.744-0.307l1.654-0.827l0.535-0.37l0.541-0.474l0.535-0.641
				c0.021-0.025,0.049-0.043,0.079-0.054l0.312-0.104c0.052-0.017,0.111-0.01,0.155,0.021l0.834,0.591l0.762,0.69l0.389,0.181
				l0.661-0.029l0.229-0.403c0.008-0.015,0.018-0.025,0.029-0.037l0.277-0.278c0.012-0.012,0.026-0.022,0.041-0.029l0.44-0.233
				l-0.583-1.133c-0.014-0.027-0.021-0.057-0.019-0.088l0.035-0.694c0.001-0.023,0.007-0.046,0.017-0.066l0.451-0.938l0.455-1.536
				l-0.275-0.491l-0.277-0.62l-0.249-0.312l-0.38-0.283l-0.357-0.131c-0.021-0.007-0.039-0.019-0.056-0.033l-0.313-0.279
				l-0.641-0.746l-3.039-2.656c-0.021-0.018-0.037-0.039-0.046-0.064l-0.175-0.416c-0.008-0.021-0.012-0.043-0.012-0.064
				c0-0.003-0.002-0.004-0.002-0.007l0.035-1.529l-0.32-0.864l-0.452-0.389c-0.012-0.01-0.021-0.02-0.03-0.033l-0.283-0.408
				l-0.299-0.119c-0.018-0.008-0.033-0.018-0.047-0.029l-0.451-0.382c-0.043-0.036-0.065-0.09-0.062-0.144l0.034-0.521
				c0.001-0.016,0.004-0.029,0.008-0.044l0.07-0.208c0.01-0.029,0.027-0.057,0.052-0.077l0.198-0.17l0.12-0.57l-0.063-0.385
				c-0.004-0.017-0.004-0.034-0.002-0.052l0.07-0.52c0.006-0.057,0.04-0.104,0.089-0.13l0.058-0.033l-0.525-0.21l-1.465-0.304
				l-0.375-0.147c-0.016-0.006-0.027-0.013-0.038-0.02l-0.849-0.611l-0.578-0.193l-2.271-0.171l-1.062-0.212
				c-0.016-0.004-0.031-0.009-0.044-0.015l-0.779-0.39l-0.447,0.566l0.031,0.096l0.284,0.283c0.013,0.014,0.024,0.029,0.031,0.045
				l0.105,0.209c0.013,0.025,0.02,0.055,0.018,0.085l-0.035,0.798c0,0.014-0.002,0.026-0.005,0.039l-0.104,0.383
				c-0.004,0.014-0.01,0.029-0.02,0.043l-0.208,0.347c-0.007,0.014-0.017,0.023-0.026,0.034l-0.242,0.243
				c-0.016,0.017-0.034,0.027-0.055,0.036l-0.243,0.105l-0.619,0.148l-0.19,0.072l-0.031,0.012l-0.121,0.121l-0.195,0.489
				c-0.006,0.011-0.011,0.022-0.018,0.031l-0.139,0.208c-0.008,0.012-0.018,0.023-0.027,0.032l-0.383,0.348
				c-0.061,0.056-0.152,0.06-0.219,0.013l-0.352-0.256l-0.008-0.002l-0.079-0.016l-0.185,0.068l-0.311,0.438
				c-0.041,0.062-0.116,0.09-0.188,0.073l-0.277-0.07c-0.031-0.008-0.059-0.023-0.082-0.046l-0.209-0.209
				c-0.012-0.012-0.022-0.027-0.031-0.043l-0.102-0.202l-0.246,0.245c-0.009,0.012-0.021,0.02-0.033,0.026l-0.173,0.104
				c-0.034,0.02-0.071,0.027-0.108,0.024l-0.312-0.035c-0.02-0.001-0.037-0.007-0.055-0.015l-0.104-0.048l-0.348-0.161
				c-0.017-0.007-0.033-0.018-0.045-0.029l-0.486-0.452l-1.229-0.817c-0.012-0.008-0.024-0.017-0.032-0.028l-0.115-0.13
				l-0.646,1.175c-0.008,0.013-0.014,0.024-0.023,0.034l-0.418,0.452l-0.192,0.157c-0.021,0.016-0.042,0.027-0.066,0.031
				l-0.771,0.178c-0.013,0-0.025,0.002-0.036,0.002c-0.009,0-0.019,0-0.028-0.002l-0.417-0.069l-0.716-0.214
				c-0.01-0.004-0.022-0.008-0.032-0.014l-1.354-0.729l-0.229-0.098c-0.031-0.013-0.058-0.035-0.076-0.063l-0.127-0.191
				l-0.367-0.333l-0.125-0.072l-1.128-0.341l-1.029-0.198l-0.386,0.063l-0.433,0.158l-0.363,0.263
				c-0.018,0.014-0.036,0.022-0.056,0.027c-0.021,0.006-0.042,0.008-0.063,0.006l0,0l0,0l-0.316-0.033l-0.068,0.019l-0.248,0.216
				l-0.199,0.2l-0.668,0.598c-0.018,0.017-0.041,0.029-0.066,0.036l-0.244,0.07c-0.025,0.008-0.054,0.009-0.081,0.004h-0.001l0,0
				l-0.033-0.008l-0.141-0.027c-0.024-0.005-0.049-0.016-0.07-0.031c-0.023,0.019-0.055,0.03-0.086,0.033
				c-0.031,0.002-0.061-0.003-0.088-0.015c-0.004-0.002-0.008-0.007-0.012-0.009c-0.021-0.011-0.041-0.024-0.056-0.043l-0.296-0.384
				h-0.191c-0.039,0-0.078-0.014-0.109-0.038l-0.173-0.139c-0.013-0.012-0.019-0.027-0.027-0.041
				c-0.01-0.014-0.024-0.023-0.03-0.041l-0.033-0.104c-0.007-0.021-0.006-0.041-0.004-0.062c0-0.006-0.004-0.014-0.003-0.02
				c0.005-0.025,0.015-0.049,0.03-0.07c0.001-0.002,0.001-0.004,0.002-0.007l0,0l0,0l0.025-0.034l-0.436-0.204l-0.203,0.026
				l-0.396,0.164c-0.016,0.006-0.033,0.011-0.049,0.012l-0.348,0.035c-0.037,0.005-0.074-0.004-0.107-0.023l-0.174-0.104
				c-0.022-0.015-0.043-0.033-0.057-0.057l-0.312-0.485l-0.084-0.204l-0.135-0.535l-0.217-0.248l-0.347-0.582l-0.071-0.047
				l-0.918-0.882l-0.436,0.163l-0.367,0.233l-0.52,0.458l-0.204,0.279l0.343-0.047l0.326-0.13c0.045-0.017,0.094-0.017,0.137,0.003
				l0.383,0.174c0.039,0.019,0.071,0.05,0.088,0.09l0.104,0.244c0.028,0.064,0.013,0.14-0.037,0.189l-0.14,0.139
				c-0.036,0.038-0.088,0.058-0.14,0.051l-0.196-0.02l-0.068,0.303l-0.074,0.225c-0.015,0.045-0.047,0.082-0.09,0.102
				s-0.092,0.022-0.135,0.007l-0.328-0.119l-0.223,0.067l-0.695,1.291c-0.012,0.018-0.023,0.035-0.039,0.049l-1.771,1.528
				l-0.339,0.339l-0.538,0.744l-0.432,0.523l0.107-0.096c0.045-0.04,0.107-0.054,0.166-0.037c0.059,0.019,0.103,0.065,0.117,0.125
				l0.045,0.186l0.08,0.027l0.197-0.024l0.067-0.048c-0.005-0.027-0.003-0.053,0.004-0.077l0.069-0.244
				c0.02-0.068,0.08-0.118,0.151-0.124c0.07-0.006,0.14,0.031,0.171,0.095l0.061,0.123l0.287,0.024
				c0.021,0.003,0.042,0.009,0.062,0.018l0.138,0.07c0.038,0.019,0.066,0.05,0.083,0.088l0.103,0.242
				c0.021,0.043,0.021,0.092,0.003,0.135c-0.018,0.044-0.053,0.078-0.096,0.096l-0.108,0.043l-0.111,0.247
				c-0.014,0.031-0.034,0.056-0.062,0.074l-0.02,0.015l0.271,0.053c0.052,0.012,0.097,0.045,0.119,0.094l0.07,0.139
				c0.013,0.023,0.018,0.051,0.018,0.077v0.348c0,0.05-0.021,0.098-0.057,0.13l-0.293,0.259l-0.229,0.393
				c-0.041,0.069-0.122,0.103-0.197,0.081l-0.243-0.07c-0.024-0.006-0.048-0.02-0.065-0.035l-0.244-0.209l-0.383-0.382l-0.182-0.021
				l-0.213,0.166l-0.115,0.408v0.463l0.052,0.131l0.312-0.18c0.02-0.01,0.039-0.018,0.062-0.021l0.729-0.104
				c0.029-0.003,0.058,0,0.084,0.009l0.486,0.173c0.08,0.029,0.128,0.112,0.111,0.197l-0.104,0.554
				c-0.013,0.071-0.068,0.127-0.14,0.141c-0.071,0.012-0.143-0.021-0.181-0.082l-0.168-0.259l-0.26-0.109l-0.197,0.221
				c-0.023,0.027-0.057,0.045-0.092,0.055l-0.312,0.068l-0.328,0.033l-0.28,0.169l-0.121,0.181l0.596,0.147
				c0.05,0.013,0.092,0.048,0.113,0.096l0.245,0.521c0.024,0.054,0.021,0.117-0.012,0.166c-0.031,0.051-0.087,0.081-0.146,0.081
				h-0.176c-0.064,0-0.125-0.036-0.154-0.096l-0.069-0.14l-0.163-0.23l-0.2,0.046c-0.017,0.003-0.034,0.003-0.05,0.003l-0.453-0.034
				l-0.441-0.116l-0.07,0.086c-0.01,0.014-0.025,0.027-0.042,0.038l-0.198,0.123l0.16,0.112h0.117l0.348-0.158
				c0.033-0.015,0.069-0.02,0.105-0.012l0.174,0.034c0.033,0.007,0.064,0.023,0.088,0.048l0.105,0.104
				c0.035,0.035,0.055,0.084,0.049,0.135c-0.002,0.051-0.027,0.098-0.067,0.127l-0.14,0.104c-0.021,0.017-0.045,0.027-0.069,0.031
				l-0.349,0.07l-0.287,0.118l-0.257,0.224c-0.014,0.012-0.027,0.022-0.044,0.029l-0.312,0.139c-0.023,0.01-0.047,0.016-0.07,0.016
				l0,0c0.027,0.021,0.047,0.049,0.06,0.082c0.018,0.051,0.011,0.107-0.02,0.152l-0.118,0.178l-0.02,0.116l0.011,0.02l0.169,0.05
				c0.049,0.014,0.091,0.049,0.111,0.096c0.021,0.048,0.02,0.103-0.003,0.148l-0.087,0.172v0.106l0.055,0.069l0.242,0.026
				c0.088,0.011,0.155,0.084,0.155,0.173v0.209c0,0.082-0.058,0.152-0.135,0.169l0.285,0.258c0.011,0.009,0.021,0.021,0.028,0.032
				l0.277,0.418l0.15,0.295c0.012,0.025,0.02,0.053,0.02,0.078v0.418c0,0.026-0.008,0.053-0.02,0.077l-0.209,0.416
				c-0.011,0.022-0.025,0.042-0.043,0.056l-0.417,0.348c-0.023,0.02-0.05,0.033-0.079,0.037l-0.557,0.104l-0.289,0.039l-0.571,0.134
				c-0.021,0.005-0.039,0.007-0.059,0.004l-0.312-0.035l-0.505-0.106l-0.262-0.032c-0.014-0.003-0.029-0.005-0.043-0.011
				l-0.451-0.173c-0.061-0.024-0.104-0.082-0.109-0.147l-0.035-0.418c-0.002-0.028,0.004-0.056,0.014-0.083l0.221-0.509
				l-0.045,0.016c-0.032,0.009-0.066,0.009-0.099,0l-0.243-0.069c-0.037-0.012-0.07-0.034-0.094-0.065l-0.174-0.244l-0.24-0.443
				l-0.281-0.253l-0.334-0.025l-0.749,0.488c-0.028,0.019-0.062,0.028-0.095,0.028h-1.316l1.898,1.244
				C152.131,244.027,152.142,244.036,152.151,244.045z"/>
		</g>
	</g>
	<g>
		<g>
			<g>
				<g>
					<path fill="#FFFFFF" d="M514.544,188.257h-7.4v-4.946c0-1.438-0.079-2.336-0.237-2.692s-0.507-0.535-1.046-0.535
						c-0.609,0-0.996,0.217-1.16,0.65s-0.246,1.371-0.246,2.812v13.219c0,1.383,0.082,2.285,0.246,2.707s0.533,0.633,1.107,0.633
						c0.551,0,0.911-0.211,1.081-0.634s0.255-1.416,0.255-2.978v-3.577h7.4v1.109c0,2.946-0.208,5.035-0.624,6.267
						c-0.416,1.232-1.336,2.312-2.76,3.239c-1.424,0.927-3.179,1.391-5.265,1.391c-2.168,0-3.955-0.393-5.361-1.178
						s-2.338-1.872-2.795-3.261s-0.686-3.478-0.686-6.267v-8.314c0-2.051,0.07-3.589,0.211-4.614s0.56-2.013,1.257-2.962
						s1.664-1.696,2.9-2.241s2.657-0.817,4.263-0.817c2.18,0,3.979,0.421,5.396,1.264c1.418,0.842,2.35,1.893,2.795,3.151
						s0.668,3.215,0.668,5.872V188.257z"/>
					<path fill="#FFFFFF" d="M529.99,175.865l4.232,28.459h-7.562l-0.397-5.115h-2.647l-0.445,5.115h-7.65l3.775-28.459H529.99z
						 M526.068,194.164c-0.375-3.224-0.75-7.208-1.127-11.953c-0.754,5.45-1.228,9.434-1.42,11.953H526.068z"/>
					<path fill="#FFFFFF" d="M552.302,175.865v19.02c0,2.156-0.07,3.671-0.211,4.544s-0.557,1.77-1.248,2.689
						s-1.603,1.617-2.733,2.092s-2.464,0.712-3.999,0.712c-1.699,0-3.199-0.281-4.5-0.844s-2.273-1.295-2.918-2.197
						s-1.025-1.854-1.143-2.856s-0.176-3.108-0.176-6.319v-16.84h7.4v21.34c0,1.242,0.067,2.036,0.202,2.382
						s0.407,0.519,0.817,0.519c0.469,0,0.771-0.19,0.905-0.571s0.202-1.28,0.202-2.698v-20.971H552.302z"/>
					<path fill="#FFFFFF" d="M572.446,188.257h-7.4v-4.946c0-1.438-0.079-2.336-0.237-2.692s-0.507-0.535-1.046-0.535
						c-0.609,0-0.996,0.217-1.16,0.65s-0.246,1.371-0.246,2.812v13.219c0,1.383,0.082,2.285,0.246,2.707s0.533,0.633,1.107,0.633
						c0.551,0,0.911-0.211,1.081-0.634s0.255-1.416,0.255-2.978v-3.577h7.4v1.109c0,2.946-0.208,5.035-0.624,6.267
						c-0.416,1.232-1.336,2.312-2.76,3.239c-1.424,0.927-3.179,1.391-5.265,1.391c-2.168,0-3.955-0.393-5.361-1.178
						s-2.338-1.872-2.795-3.261s-0.686-3.478-0.686-6.267v-8.314c0-2.051,0.07-3.589,0.211-4.614s0.56-2.013,1.257-2.962
						s1.664-1.696,2.9-2.241s2.657-0.817,4.263-0.817c2.18,0,3.979,0.421,5.396,1.264c1.418,0.842,2.35,1.893,2.795,3.151
						s0.668,3.215,0.668,5.872V188.257z"/>
					<path fill="#FFFFFF" d="M587.893,175.865l4.232,28.459h-7.562l-0.397-5.115h-2.647l-0.445,5.115h-7.65l3.775-28.459H587.893z
						 M583.971,194.164c-0.375-3.224-0.75-7.208-1.127-11.953c-0.754,5.45-1.228,9.434-1.42,11.953H583.971z"/>
				</g>
			</g>
		</g>
	</g>
	<g>
		<g>
			<path fill="#F2961C" d="M498.211,225.136v4.156h-1.681v-12.987h3.685c1.045,0.141,1.927,0.571,2.646,1.291
				c0.86,0.866,1.291,1.905,1.291,3.117c0,1.223-0.431,2.266-1.291,3.129c-0.86,0.863-1.899,1.295-3.117,1.295H498.211z
				 M498.211,217.993v5.455h1.533c0.747,0,1.387-0.267,1.92-0.799c0.533-0.533,0.799-1.178,0.799-1.936
				c0-0.752-0.266-1.393-0.799-1.924c-0.533-0.53-1.173-0.795-1.92-0.795H498.211z"/>
			<path fill="#F2961C" d="M512.439,226.427l1.68,0.601c-0.411,0.568-0.709,0.944-0.893,1.128c-0.904,0.904-1.994,1.355-3.271,1.355
				c-1.271,0-2.359-0.452-3.263-1.355s-1.355-1.994-1.355-3.271c0-1.277,0.452-2.368,1.355-3.271
				c0.903-0.903,1.991-1.355,3.263-1.355c1.277,0,2.367,0.452,3.271,1.355c0.184,0.184,0.481,0.555,0.893,1.112l-1.68,0.617
				c-0.217-0.265-0.363-0.436-0.438-0.511c-0.563-0.563-1.245-0.844-2.046-0.844c-0.795,0-1.476,0.283-2.041,0.848
				s-0.848,1.249-0.848,2.05c0,0.795,0.282,1.476,0.848,2.041s1.246,0.848,2.041,0.848c0.801,0,1.486-0.281,2.055-0.844
				C512.079,226.854,512.223,226.687,512.439,226.427z"/>
			<path fill="#F2961C" d="M517.301,216.305c2.11,0.011,3.756,0.608,4.936,1.793c1.293,1.304,1.939,2.871,1.939,4.7
				c0,1.834-0.646,3.401-1.939,4.7c-1.18,1.185-2.825,1.783-4.936,1.794h-1.233v-12.987H517.301z M517.748,218.018v9.57
				c1.336,0,2.432-0.43,3.287-1.291c0.963-0.963,1.444-2.129,1.444-3.499c0-1.363-0.481-2.529-1.444-3.498
				C520.18,218.445,519.084,218.018,517.748,218.018z"/>
			<path fill="#F2961C" d="M533.762,225.197c0.883-0.658,1.635-1.219,2.257-1.685s1.179-0.966,1.668-1.501s0.735-1.131,0.735-1.786
				s-0.232-1.212-0.695-1.672c-0.462-0.46-1.021-0.69-1.676-0.69c-0.644,0-1.198,0.23-1.664,0.69
				c-0.395,0.395-0.641,1.077-0.738,2.045l-1.68-0.608c0.173-1.125,0.576-2.008,1.209-2.646c0.795-0.801,1.754-1.201,2.873-1.201
				c1.131,0,2.094,0.398,2.886,1.193c0.793,0.795,1.189,1.759,1.189,2.89c0,1.115-0.384,2.086-1.153,2.914
				c-0.486,0.525-1.053,1.03-1.699,1.514c-0.647,0.484-1.365,1.024-2.156,1.619c-0.692,0.514-1.079,0.958-1.16,1.331h6.169v1.688
				h-8.142C532.287,227.22,532.88,225.854,533.762,225.197z"/>
			<path fill="#F2961C" d="M548.6,224.316c-0.481,0.52-1.279,0.779-2.395,0.779c-1.12,0-2.051-0.371-2.792-1.112
				c-0.898-0.903-1.348-1.994-1.348-3.271c0-1.271,0.449-2.358,1.348-3.259c0.897-0.901,1.985-1.352,3.263-1.352
				c1.271,0,2.359,0.449,3.264,1.348c0.865,0.871,1.301,2.081,1.307,3.628v0.024c0,1.531-0.414,2.879-1.242,4.042
				c-0.834,1.169-1.959,2.552-3.377,4.148h-2.207C546.384,227.257,547.777,225.599,548.6,224.316z M549.574,220.712
				c0-0.801-0.283-1.482-0.849-2.045c-0.565-0.562-1.249-0.844-2.05-0.844c-0.795,0-1.477,0.282-2.041,0.844
				c-0.566,0.563-0.849,1.245-0.849,2.045s0.282,1.483,0.849,2.045c0.564,0.563,1.246,0.844,2.041,0.844
				c0.801,0,1.484-0.281,2.05-0.844C549.291,222.195,549.574,221.513,549.574,220.712z"/>
			<path fill="#F2961C" d="M554.659,227.385c0.229,0.227,0.345,0.503,0.345,0.828c0,0.335-0.115,0.617-0.345,0.844
				c-0.23,0.227-0.507,0.341-0.832,0.341c-0.319,0-0.595-0.114-0.828-0.341c-0.232-0.228-0.349-0.509-0.349-0.844
				c0-0.325,0.116-0.601,0.349-0.828c0.233-0.228,0.509-0.341,0.828-0.341C554.152,227.043,554.429,227.157,554.659,227.385z"/>
			<path fill="#F2961C" d="M563.056,224.316c-0.481,0.52-1.28,0.779-2.395,0.779c-1.12,0-2.051-0.371-2.792-1.112
				c-0.898-0.903-1.348-1.994-1.348-3.271c0-1.271,0.449-2.358,1.348-3.259s1.986-1.352,3.263-1.352
				c1.271,0,2.359,0.449,3.263,1.348c0.866,0.871,1.302,2.081,1.307,3.628v0.024c0,1.531-0.414,2.879-1.241,4.042
				c-0.833,1.169-1.959,2.552-3.376,4.148h-2.209C560.84,227.257,562.232,225.599,563.056,224.316z M564.029,220.712
				c0-0.801-0.282-1.482-0.848-2.045c-0.565-0.562-1.249-0.844-2.05-0.844c-0.796,0-1.476,0.282-2.041,0.844
				c-0.565,0.563-0.849,1.245-0.849,2.045s0.283,1.483,0.849,2.045c0.565,0.563,1.245,0.844,2.041,0.844
				c0.801,0,1.484-0.281,2.05-0.844C563.747,222.195,564.029,221.513,564.029,220.712z"/>
			<path fill="#F2961C" d="M571.156,222.604l-1.015-0.024v-1.664c0.735-0.011,1.22-0.061,1.453-0.15
				c0.232-0.089,0.487-0.28,0.763-0.572c0.276-0.292,0.414-0.627,0.414-1.006c0-0.374-0.13-0.688-0.389-0.946
				c-0.26-0.257-0.577-0.385-0.95-0.385c-0.368,0-0.683,0.127-0.942,0.381c-0.146,0.151-0.313,0.481-0.502,0.99l-1.567-0.617
				c0.233-0.73,0.517-1.255,0.853-1.575c0.601-0.595,1.32-0.893,2.159-0.893c0.854,0,1.579,0.3,2.175,0.901s0.893,1.315,0.893,2.143
				c0,0.844-0.5,1.659-1.501,2.443c0.481,0.032,0.987,0.306,1.518,0.819c0.774,0.833,1.161,1.808,1.161,2.922
				c0,1.125-0.396,2.087-1.189,2.886c-0.793,0.798-1.754,1.197-2.885,1.197c-1.121,0-2.078-0.4-2.874-1.201
				c-0.634-0.638-1.036-1.523-1.21-2.654l1.681-0.608c0.098,0.974,0.344,1.658,0.739,2.053c0.465,0.46,1.02,0.69,1.664,0.69
				c0.654,0,1.213-0.23,1.676-0.69c0.463-0.459,0.693-1.017,0.693-1.672c0-0.66-0.23-1.242-0.693-1.745
				S572.109,222.782,571.156,222.604z"/>
			<path fill="#F2961C" d="M580.564,219.812c0.303-0.065,0.619-0.098,0.949-0.098c0.605,0,1.188,0.098,1.745,0.292
				c1.25,0.427,2.181,1.217,2.792,2.37c0.385,0.714,0.576,1.45,0.576,2.208c0,0.471-0.072,0.942-0.219,1.413
				c-0.385,1.255-1.152,2.194-2.305,2.816c-0.703,0.374-1.432,0.56-2.184,0.56c-0.477,0-0.958-0.076-1.445-0.227
				c-1.006-0.309-1.877-0.963-2.613-1.964l1.186-1.315c0.6,0.888,1.244,1.434,1.932,1.64c0.313,0.097,0.619,0.146,0.917,0.146
				c0.476,0,0.941-0.119,1.396-0.357c0.742-0.395,1.234-0.996,1.478-1.802c0.098-0.308,0.146-0.614,0.146-0.917
				c0-0.471-0.122-0.936-0.365-1.396c-0.401-0.747-1.007-1.261-1.818-1.542c-0.353-0.125-0.741-0.187-1.169-0.187
				c-0.579,0-1.32,0.144-2.225,0.43l-1.014-0.885l1.461-4.034v-0.657h4.756v1.68h-3.336L580.564,219.812z"/>
			<path fill="#27515D" d="M506.578,246.147l1.259,1.128c-1.537,1.402-3.163,2.103-4.878,2.103c-1.835,0-3.398-0.647-4.691-1.94
				c-1.294-1.293-1.94-2.857-1.94-4.692c0-1.829,0.646-3.393,1.94-4.691c1.293-1.299,2.856-1.948,4.691-1.948
				c1.715,0,3.341,0.701,4.878,2.103l-1.259,1.145c-1.157-1.028-2.364-1.542-3.619-1.542c-1.359,0-2.521,0.482-3.486,1.445
				c-0.967,0.963-1.449,2.127-1.449,3.49c0,1.369,0.482,2.536,1.449,3.499c0.966,0.963,2.127,1.445,3.486,1.445
				C504.214,247.69,505.421,247.176,506.578,246.147z"/>
			<path fill="#27515D" d="M514.355,236.253l4.724,12.987h-1.786l-1.672-4.594h-3.441l-1.664,4.594h-1.794l4.724-12.987H514.355z
				 M515.012,242.966l-1.111-3.044l-1.104,3.044H515.012z"/>
			<path fill="#27515D" d="M527.521,236.253h1.688v9.147c-0.146,1.044-0.576,1.927-1.291,2.646
				c-0.865,0.866-1.907,1.299-3.125,1.299c-1.217,0-2.258-0.432-3.121-1.294c-0.863-0.863-1.294-1.904-1.294-3.121v-8.677h1.688
				v8.677c0,0.747,0.266,1.387,0.799,1.919c0.533,0.533,1.176,0.8,1.928,0.8c0.758,0,1.402-0.265,1.932-0.795
				c0.531-0.53,0.796-1.171,0.796-1.924V236.253z"/>
			<path fill="#27515D" d="M541.692,246.147l1.259,1.128c-1.537,1.402-3.164,2.103-4.879,2.103c-1.834,0-3.398-0.647-4.691-1.94
				c-1.293-1.293-1.939-2.857-1.939-4.692c0-1.829,0.646-3.393,1.939-4.691s2.857-1.948,4.691-1.948
				c1.715,0,3.342,0.701,4.879,2.103l-1.259,1.145c-1.157-1.028-2.364-1.542-3.62-1.542c-1.358,0-2.52,0.482-3.486,1.445
				c-0.966,0.963-1.449,2.127-1.449,3.49c0,1.369,0.483,2.536,1.449,3.499c0.967,0.963,2.128,1.445,3.486,1.445
				C539.328,247.69,540.535,247.176,541.692,246.147z"/>
			<path fill="#27515D" d="M549.469,236.253l4.724,12.987h-1.786l-1.672-4.594h-3.441l-1.664,4.594h-1.794l4.724-12.987H549.469z
				 M550.125,242.966l-1.111-3.044l-1.104,3.044H550.125z"/>
		</g>
	</g>
	<g>
		<g>
			<polyline fill="none" stroke="#FFFFFF" stroke-width="2" points="181.714,237.853 405.445,185.55 486.037,185.55 			"/>
			<g>
				<circle fill="#FFFFFF" cx="181.824" cy="237.828" r="2.256"/>
			</g>
		</g>
	</g>
</g>
</svg>
