<?xml version="1.0" encoding="utf-8"?>
<!-- Generator: Adobe Illustrator 16.0.0, SVG Export Plug-In . SVG Version: 6.00 Build 0)  -->
<!DOCTYPE svg PUBLIC "-//W3C//DTD SVG 1.1//EN" "http://www.w3.org/Graphics/SVG/1.1/DTD/svg11.dtd">
<svg version="1.1" id="Capa_1" xmlns="http://www.w3.org/2000/svg" xmlns:xlink="http://www.w3.org/1999/xlink" x="0px" y="0px"
	 width="559.256px" height="290.404px" viewBox="0 0 559.256 290.404" enable-background="new 0 0 559.256 290.404"
	 xml:space="preserve">
<g>
	<g>
		<path fill="#F2961C" d="M195.513,9.911h3.31l3.79,19.563h-2.438l-0.908-5.438h-4.306l-0.979,5.438h-2.384L195.513,9.911z
			 M197.079,11.356l-1.904,11.247h3.79l-1.779-11.247H197.079z"/>
		<path fill="#F2961C" d="M212.523,13.015v1.869h-2.384v-1.816c0-0.76-0.11-1.286-0.329-1.578c-0.22-0.292-0.608-0.438-1.166-0.438
			c-0.51,0-0.866,0.165-1.067,0.497c-0.201,0.332-0.302,1.028-0.302,2.09v12.108c0,1.088,0.107,1.795,0.32,2.122
			c0.214,0.327,0.605,0.491,1.175,0.491c0.486,0,0.836-0.155,1.05-0.465c0.213-0.311,0.32-0.835,0.32-1.578v-2.108h2.384v2.175
			c0,1.335-0.279,2.239-0.836,2.713c-0.558,0.474-1.554,0.71-2.989,0.71c-1.412,0-2.396-0.306-2.954-0.915
			c-0.558-0.61-0.836-1.746-0.836-3.408v-11.58c0-1.653,0.279-2.78,0.836-3.382c0.557-0.603,1.542-0.902,2.954-0.902
			c1.447,0,2.446,0.234,2.998,0.703C212.249,10.791,212.523,11.688,212.523,13.015z"/>
		<path fill="#F2961C" d="M222.985,13.015v1.869h-2.384v-1.816c0-0.76-0.11-1.286-0.329-1.578c-0.22-0.292-0.608-0.438-1.166-0.438
			c-0.51,0-0.866,0.165-1.067,0.497s-0.302,1.028-0.302,2.09v12.108c0,1.088,0.107,1.795,0.32,2.122
			c0.214,0.327,0.605,0.491,1.175,0.491c0.486,0,0.836-0.155,1.05-0.465c0.213-0.311,0.32-0.835,0.32-1.578v-2.108h2.384v2.175
			c0,1.335-0.279,2.239-0.836,2.713c-0.558,0.474-1.554,0.71-2.989,0.71c-1.412,0-2.396-0.306-2.954-0.915
			c-0.558-0.61-0.836-1.746-0.836-3.408v-11.58c0-1.653,0.279-2.78,0.836-3.382c0.557-0.603,1.542-0.902,2.954-0.902
			c1.447,0,2.446,0.234,2.998,0.703C222.711,10.791,222.985,11.688,222.985,13.015z"/>
		<path fill="#F2961C" d="M225.938,9.911h6.263v1.552h-4.003v7.043h3.825v1.538h-3.825v7.878h4.11v1.554h-6.37V9.911z"/>
		<path fill="#F2961C" d="M242.415,13.015v1.869h-2.367v-1.816c0-0.77-0.107-1.298-0.32-1.585s-0.593-0.432-1.139-0.432
			c-0.522,0-0.89,0.161-1.103,0.483c-0.214,0.323-0.32,0.896-0.32,1.718v0.955c0,0.398,0.074,0.809,0.223,1.229
			c0.148,0.42,0.364,0.814,0.649,1.187l2.953,3.886c0.498,0.654,0.86,1.271,1.085,1.852c0.225,0.58,0.338,1.179,0.338,1.797v1.327
			c0,1.697-0.288,2.842-0.863,3.435c-0.575,0.594-1.599,0.89-3.069,0.89c-1.435,0-2.435-0.239-2.998-0.717s-0.845-1.38-0.845-2.706
			v-2.175h2.384v2.108c0,0.796,0.107,1.335,0.32,1.618c0.214,0.282,0.605,0.425,1.175,0.425c0.581,0,0.981-0.161,1.201-0.484
			c0.219-0.322,0.329-1.031,0.329-2.129v-1.353c0-0.504-0.062-0.962-0.187-1.373c-0.124-0.411-0.305-0.784-0.542-1.121l-3.131-4.164
			c-0.439-0.557-0.774-1.088-1.005-1.592s-0.347-0.941-0.347-1.312v-1.141c0-1.521,0.282-2.58,0.846-3.177
			c0.563-0.598,1.533-0.896,2.909-0.896c1.447,0,2.447,0.234,2.998,0.703C242.14,10.792,242.415,11.688,242.415,13.015z"/>
		<path fill="#F2961C" d="M253.73,13.903v11.579c0,1.68-0.302,2.819-0.908,3.422c-0.604,0.601-1.684,0.901-3.238,0.901
			c-1.53,0-2.598-0.306-3.203-0.915c-0.605-0.61-0.907-1.746-0.907-3.408V13.903c0-1.646,0.305-2.771,0.916-3.376
			c0.611-0.605,1.688-0.908,3.229-0.908s2.612,0.301,3.211,0.902C253.429,11.122,253.73,12.25,253.73,13.903z M251.364,13.638
			c0-0.99-0.13-1.67-0.391-2.036c-0.261-0.366-0.724-0.551-1.388-0.551c-0.653,0-1.106,0.18-1.361,0.537
			c-0.255,0.358-0.382,1.041-0.382,2.05v12.108c0,1.018,0.13,1.702,0.392,2.056c0.261,0.354,0.723,0.531,1.388,0.531
			c0.652,0,1.105-0.178,1.361-0.531c0.255-0.354,0.382-1.038,0.382-2.056V13.638H251.364z"/>
		<path fill="#F2961C" d="M265.509,9.911h3.309l3.79,19.563h-2.438l-0.907-5.438h-4.306l-0.979,5.438h-2.384L265.509,9.911z
			 M267.075,11.356l-1.904,11.247h3.79l-1.779-11.247H267.075z"/>
		<path fill="#F2961C" d="M287.429,13.015v1.869h-2.365v-1.816c0-0.77-0.106-1.298-0.32-1.585c-0.213-0.287-0.594-0.432-1.139-0.432
			c-0.522,0-0.891,0.161-1.104,0.483c-0.213,0.323-0.32,0.896-0.32,1.718v0.955c0,0.398,0.074,0.809,0.223,1.229
			c0.147,0.42,0.365,0.814,0.648,1.187l2.954,3.886c0.498,0.654,0.858,1.271,1.085,1.852s0.338,1.179,0.338,1.797v1.327
			c0,1.697-0.287,2.842-0.863,3.435c-0.576,0.594-1.598,0.89-3.068,0.89c-1.436,0-2.436-0.239-2.998-0.717
			c-0.563-0.478-0.846-1.38-0.846-2.706v-2.175h2.385v2.108c0,0.796,0.105,1.335,0.32,1.618c0.213,0.282,0.604,0.425,1.174,0.425
			c0.58,0,0.98-0.161,1.201-0.484c0.219-0.322,0.328-1.031,0.328-2.129v-1.353c0-0.504-0.062-0.962-0.187-1.373
			s-0.306-0.784-0.543-1.121l-3.131-4.164c-0.439-0.557-0.774-1.088-1.005-1.592c-0.231-0.504-0.347-0.941-0.347-1.312v-1.141
			c0-1.521,0.281-2.58,0.845-3.177c0.563-0.598,1.533-0.896,2.908-0.896c1.447,0,2.446,0.234,2.998,0.703
			C287.153,10.792,287.429,11.688,287.429,13.015z"/>
		<path fill="#F2961C" d="M290.597,9.911h6.262v1.552h-4.002v7.043h3.824v1.538h-3.824v7.878h4.109v1.554h-6.369V9.911z"/>
		<path fill="#F2961C" d="M300.222,9.911h3.452c1.779,0,2.983,0.187,3.612,0.557c0.629,0.372,0.943,1.039,0.943,2.004v4.43
			c0,0.813-0.209,1.389-0.623,1.725c-0.416,0.336-1.15,0.539-2.207,0.609c1.127,0.054,1.91,0.248,2.35,0.584
			c0.438,0.336,0.658,0.92,0.658,1.751v7.905h-2.402v-7.31c0-0.92-0.175-1.517-0.523-1.791c-0.351-0.272-1.071-0.41-2.162-0.41
			h-0.836v9.511h-2.26V9.911H300.222z M302.481,11.356v7.148h0.802c1.032,0,1.72-0.135,2.063-0.403
			c0.344-0.271,0.516-0.869,0.516-1.799v-2.719c0-0.938-0.172-1.543-0.516-1.816c-0.345-0.273-1.033-0.411-2.063-0.411H302.481z"/>
		<path fill="#F2961C" d="M310.862,9.911h2.296l2.438,17.613h0.248l2.295-17.613h2.153l-2.847,19.563h-3.523L310.862,9.911z"/>
		<path fill="#F2961C" d="M322.89,9.911h2.402v19.563h-2.402V9.911z"/>
		<path fill="#F2961C" d="M336.804,13.015v1.869h-2.384v-1.816c0-0.76-0.11-1.286-0.329-1.578c-0.22-0.292-0.607-0.438-1.166-0.438
			c-0.51,0-0.865,0.165-1.068,0.497c-0.2,0.332-0.301,1.028-0.301,2.09v12.108c0,1.088,0.105,1.795,0.319,2.122
			s0.604,0.491,1.174,0.491c0.486,0,0.836-0.155,1.05-0.465c0.215-0.311,0.32-0.835,0.32-1.578v-2.108h2.385v2.175
			c0,1.335-0.279,2.239-0.837,2.713s-1.554,0.71-2.989,0.71c-1.412,0-2.396-0.306-2.953-0.915c-0.558-0.61-0.836-1.746-0.836-3.408
			v-11.58c0-1.653,0.279-2.78,0.836-3.382c0.558-0.603,1.543-0.902,2.953-0.902c1.447,0,2.447,0.234,2.998,0.703
			C336.528,10.791,336.804,11.688,336.804,13.015z"/>
		<path fill="#F2961C" d="M339.757,9.911h2.402v19.563h-2.402V9.911z"/>
		<path fill="#F2961C" d="M354.312,13.903v11.579c0,1.68-0.302,2.819-0.908,3.422c-0.604,0.601-1.684,0.901-3.237,0.901
			c-1.53,0-2.599-0.306-3.203-0.915c-0.604-0.61-0.907-1.746-0.907-3.408V13.903c0-1.646,0.305-2.771,0.916-3.376
			s1.688-0.908,3.229-0.908s2.612,0.301,3.211,0.902C354.011,11.122,354.312,12.25,354.312,13.903z M351.944,13.638
			c0-0.99-0.129-1.67-0.391-2.036c-0.261-0.366-0.724-0.551-1.388-0.551c-0.653,0-1.106,0.18-1.36,0.537
			c-0.256,0.358-0.383,1.041-0.383,2.05v12.108c0,1.018,0.131,1.702,0.393,2.056c0.261,0.354,0.723,0.531,1.388,0.531
			c0.651,0,1.104-0.178,1.36-0.531s0.383-1.038,0.383-2.056V13.638H351.944z"/>
		<path fill="#F2961C" d="M365.147,13.015v1.869h-2.366v-1.816c0-0.77-0.106-1.298-0.32-1.585c-0.213-0.287-0.593-0.432-1.14-0.432
			c-0.521,0-0.889,0.161-1.103,0.483c-0.213,0.323-0.319,0.896-0.319,1.718v0.955c0,0.398,0.074,0.809,0.222,1.229
			s0.364,0.814,0.649,1.187l2.953,3.886c0.498,0.654,0.859,1.271,1.086,1.852c0.226,0.58,0.338,1.179,0.338,1.797v1.327
			c0,1.697-0.289,2.842-0.863,3.435c-0.576,0.594-1.598,0.89-3.069,0.89c-1.437,0-2.435-0.239-2.998-0.717s-0.846-1.38-0.846-2.706
			v-2.175h2.385v2.108c0,0.796,0.106,1.335,0.32,1.618c0.213,0.282,0.604,0.425,1.174,0.425c0.581,0,0.981-0.161,1.201-0.484
			c0.219-0.322,0.329-1.031,0.329-2.129v-1.353c0-0.504-0.062-0.962-0.188-1.373s-0.306-0.784-0.543-1.121l-3.131-4.164
			c-0.439-0.557-0.773-1.088-1.005-1.592s-0.347-0.941-0.347-1.312v-1.141c0-1.521,0.281-2.58,0.845-3.177
			c0.563-0.598,1.532-0.896,2.909-0.896c1.447,0,2.445,0.234,2.998,0.703C364.871,10.792,365.147,11.688,365.147,13.015z"/>
		<path fill="#F2961C" d="M373.883,9.911h2.651c2.24,0,3.706,0.263,4.395,0.789s1.032,1.73,1.032,3.614V25.07
			c0,1.875-0.351,3.077-1.05,3.606c-0.7,0.531-2.159,0.798-4.377,0.798h-2.651V9.911z M376.144,11.356v16.672h0.729
			c1.091,0,1.812-0.135,2.162-0.404c0.35-0.269,0.525-0.864,0.525-1.784V13.585c0-0.929-0.179-1.532-0.535-1.811
			c-0.355-0.279-1.073-0.418-2.152-0.418H376.144z"/>
		<path fill="#F2961C" d="M385.946,9.911h6.264v1.552h-4.003v7.043h3.825v1.538h-3.825v7.878h4.108v1.554h-6.368L385.946,9.911
			L385.946,9.911z"/>
		<path fill="#F2961C" d="M401.141,9.911h3.452c1.779,0,2.983,0.187,3.612,0.557c0.628,0.372,0.943,1.039,0.943,2.004v4.43
			c0,0.813-0.208,1.389-0.623,1.725s-1.15,0.539-2.206,0.609c1.127,0.054,1.909,0.248,2.349,0.584
			c0.438,0.336,0.658,0.92,0.658,1.751v7.905h-2.402v-7.31c0-0.92-0.175-1.517-0.524-1.791c-0.351-0.272-1.07-0.41-2.162-0.41
			h-0.836v9.511h-2.261V9.911z M403.401,11.356v7.148h0.801c1.032,0,1.72-0.135,2.063-0.403c0.345-0.271,0.517-0.869,0.517-1.799
			v-2.719c0-0.938-0.172-1.543-0.517-1.816c-0.344-0.273-1.031-0.411-2.063-0.411H403.401z"/>
		<path fill="#F2961C" d="M413.276,9.911h6.263v1.552h-4.003v7.043h3.825v1.538h-3.825v7.878h4.11v1.554h-6.37V9.911z"/>
		<path fill="#F2961C" d="M422.902,9.911h2.26v8.78h3.718v-8.78h2.26v19.563h-2.26v-9.353h-3.718v9.353h-2.26V9.911z"/>
		<path fill="#F2961C" d="M437.438,9.911h3.311l3.79,19.563H442.1l-0.907-5.438h-4.307l-0.979,5.438h-2.384L437.438,9.911z
			 M439.004,11.356L437.1,22.604h3.79l-1.778-11.247L439.004,11.356L439.004,11.356z"/>
		<path fill="#F2961C" d="M446.939,9.911h3.451c1.779,0,2.983,0.187,3.612,0.557c0.628,0.372,0.943,1.039,0.943,2.004v4.43
			c0,0.813-0.208,1.389-0.623,1.725s-1.15,0.539-2.206,0.609c1.127,0.054,1.91,0.248,2.349,0.584s0.658,0.92,0.658,1.751v5.345
			c0,0.964-0.314,1.632-0.943,2.003s-1.833,0.559-3.611,0.559h-3.63V9.911z M449.199,11.356v7.148H450
			c1.032,0,1.72-0.135,2.064-0.403c0.344-0.271,0.516-0.869,0.516-1.799v-2.719c0-0.938-0.172-1.543-0.516-1.816
			c-0.345-0.273-1.032-0.411-2.064-0.411H449.199z M449.199,19.965v8.063h0.836c1.091,0,1.812-0.135,2.162-0.404
			c0.35-0.269,0.524-0.864,0.524-1.784v-3.674c0-0.92-0.175-1.517-0.524-1.791c-0.351-0.272-1.07-0.41-2.162-0.41H449.199z"/>
		<path fill="#F2961C" d="M459.074,9.911h2.401v19.563h-2.401V9.911z"/>
		<path fill="#F2961C" d="M465.479,9.911h2.261v18.011h4.074v1.554h-6.335V9.911z"/>
		<path fill="#F2961C" d="M474.001,9.911h2.402v19.563h-2.402V9.911z"/>
		<path fill="#F2961C" d="M478.681,9.911h7.704v1.552h-2.704v18.013h-2.296V11.463h-2.704V9.911z"/>
		<path fill="#F2961C" d="M490.976,9.911h3.31l3.79,19.563h-2.438l-0.906-5.438h-4.307l-0.979,5.438h-2.385L490.976,9.911z
			 M492.542,11.356l-1.904,11.247h3.79l-1.778-11.247H492.542z"/>
		<path fill="#F2961C" d="M507.985,13.015v1.869h-2.385v-1.816c0-0.76-0.109-1.286-0.329-1.578s-0.607-0.438-1.165-0.438
			c-0.511,0-0.866,0.165-1.068,0.497c-0.201,0.332-0.302,1.028-0.302,2.09v12.108c0,1.088,0.105,1.795,0.319,2.122
			s0.605,0.491,1.175,0.491c0.485,0,0.836-0.155,1.05-0.465c0.214-0.311,0.319-0.835,0.319-1.578v-2.108h2.385v2.175
			c0,1.335-0.279,2.239-0.836,2.713c-0.559,0.474-1.555,0.71-2.989,0.71c-1.412,0-2.396-0.306-2.953-0.915
			c-0.558-0.61-0.836-1.746-0.836-3.408v-11.58c0-1.653,0.279-2.78,0.836-3.382c0.557-0.603,1.542-0.902,2.953-0.902
			c1.447,0,2.447,0.234,2.998,0.703C507.709,10.791,507.985,11.688,507.985,13.015z"/>
		<path fill="#F2961C" d="M510.939,9.911h2.401v19.563h-2.401V9.911z"/>
		<path fill="#F2961C" d="M525.493,13.903v11.579c0,1.68-0.302,2.819-0.908,3.422c-0.604,0.601-1.684,0.901-3.238,0.901
			c-1.529,0-2.598-0.306-3.203-0.915c-0.604-0.61-0.906-1.746-0.906-3.408V13.903c0-1.646,0.305-2.771,0.916-3.376
			c0.61-0.605,1.688-0.908,3.229-0.908s2.612,0.301,3.211,0.902C525.192,11.122,525.493,12.25,525.493,13.903z M523.126,13.638
			c0-0.99-0.13-1.67-0.391-2.036c-0.262-0.366-0.725-0.551-1.389-0.551c-0.652,0-1.105,0.18-1.36,0.537
			c-0.256,0.358-0.383,1.041-0.383,2.05v12.108c0,1.018,0.131,1.702,0.393,2.056c0.261,0.354,0.723,0.531,1.388,0.531
			c0.652,0,1.105-0.178,1.361-0.531c0.255-0.354,0.382-1.038,0.382-2.056L523.126,13.638L523.126,13.638z M521.935,5.176h2.509
			l-2.331,2.958h-1.744L521.935,5.176z"/>
		<path fill="#F2961C" d="M529.479,9.911h3.097l3.754,18.396h0.036l-0.338-18.396h2.046v19.563h-3.132l-3.72-18.146h-0.07
			l0.319,18.146h-1.991L529.479,9.911L529.479,9.911z"/>
	</g>
	<ellipse fill="#A7A7A7" cx="86.09" cy="243.436" rx="86.09" ry="18.887"/>
	<ellipse fill="#A7A7A7" cx="191.243" cy="218.415" rx="28.509" ry="7.668"/>
	<g>
		<path fill="#F2C9A7" d="M71.746,89.466c0,0-0.503,16.666-0.542,23.149c-0.044,7.545,2.352,27.528,2.352,27.528h-8.713
			l-0.783-26.58l1.046-22.948L71.746,89.466z"/>
		<path fill="#F9DFBE" d="M130.649,92.45c0,0,1.983,8.245-4.253,16.688c1.094,1.203,2.342,11.507,6.276,12.661
			c5.917,1.737,14.937-9.197,14.937-9.197l-2.399-19.193L130.649,92.45z"/>
		<path opacity="0.5" fill="#EDBB91" enable-background="new    " d="M132.012,108.792c-1.122-0.62-1.513-4.381-1.968-6.941
			c-0.669,2.271-1.788,4.767-3.648,7.287c1.094,1.203,2.342,11.507,6.276,12.661c5.917,1.737,14.937-9.197,14.937-9.197
			l-1.428-11.421C141.563,104.677,133.882,109.826,132.012,108.792z"/>
		<path fill="#F8D1AD" d="M117.44,183.334c-0.475,4.915-1.76,19.821-2.481,32.871c-1.807,6-2.311,7.941-2.244,10.707
			c0.061,2.57,1.113,4.704,12.635,5.434c6.177,1.179,9.747,1.834,17.142,1.375c1.413-0.089,4.572-2.239,2.085-4.928
			c-1.834-1.982-9.588-4.87-11.915-5.729c-2.588-0.961-7.45-1.383-7.815-6.04c-0.252-3.229,7.817-20.353,11.368-34.973
			L117.44,183.334z"/>
		<path fill="#2D353D" d="M71.987,137.312c0,0,34.588-2.574,57.069,2.812c6.05,1.449,10.469,5.766,10.637,17.455
			c0.176,12.047-1.477,18.372-5.284,34.592c-6.675,3.291-18.348-3.167-18.348-3.167s-0.16-18.937,0.725-24.631
			c-12.567-1.314-64.209-1.209-64.982-17.252L71.987,137.312z"/>
		
			<radialGradient id="SVGID_1_" cx="36.7886" cy="79.741" r="87.9516" gradientTransform="matrix(1 0 0 -1 0 291.4038)" gradientUnits="userSpaceOnUse">
			<stop  offset="0.1268" style="stop-color:#951B81"/>
			<stop  offset="0.3337" style="stop-color:#8F1D81"/>
			<stop  offset="0.673" style="stop-color:#7D2182"/>
			<stop  offset="1" style="stop-color:#662483"/>
		</radialGradient>
		<path fill="url(#SVGID_1_)" d="M121.679,199.26c0,33.468-12.749,51.303-60.873,50.86c-20.53-0.188-53.771-12.102-56.137-44.909
			c-2.409-33.381,17.714-56.466,51.134-54.651C105.178,153.239,121.679,165.794,121.679,199.26z"/>
		<path fill="#F9DFBE" d="M20.198,93.901c0,0-3.465-4.353-3.474-6.728C16.684,75.635,29.83,68.541,33.163,62.55
			c1.702-3.056,3.514-13.542,3.514-13.542l13.943,4.568c0,0-2.528,8.38-1.083,10.17c2.552,0.323,10.181,2.534,10.181,2.534
			l1.589,15.274l-23.11,5.137L20.198,93.901z"/>
		<path fill="#A0C219" d="M31.016,65.808c0,0,12.736,10.973,17.453,8.053c2.583-1.599,1.807-10.359,1.807-10.359
			s7.35,0.729,13.262,3.668c5.322,2.646,3.197,9.06,8.437,22.913c0,0-1.819-0.45-3.652,0.335c1.833,3.338,9.628,11.322,1.439,19.617
			c0,0-6.685,21.855,3.976,28.028c1.709,0.988,6.42,7.054-5.154,5.988c-19.373-1.782-38.445,9.915-39.56,19.007
			c0,0-7.062-3.53-4.095-19.977c2.968-16.447,1.704-31.001-7.797-47.631C12.736,87.76,18.123,71.879,31.016,65.808z"/>
		<path fill="#F9DFBE" d="M88.732,208.458c2.591,16.902,4.629,29.459,4.46,32.207c-0.169,2.75-2.226,8.819-2.161,11.585
			c0.061,2.571,2.352,3.818,13.875,4.549c5.17,0.326,7.249,2.051,15.51,2.059c3.633,0.003,11.103-7.704,11.389-9.717
			c0.225-1.591,0.229-1.445-6.151-2.978c-4.91-1.178-14.971-1.525-18.326-4.774c-0.676-3.205-0.942-4.662-0.523-8.872
			c1.659-16.669,2.126-27.455,2.126-27.455L88.732,208.458z"/>
		<path opacity="0.5" fill="#EDBB91" enable-background="new    " d="M108.066,218.328c0.828-10.037,0.864-13.268,0.864-13.268
			l-20.199,3.396c0,0,0.347,2.226,1.009,6.721C94.926,217.412,102.435,220.185,108.066,218.328z"/>
		<path fill="#35424D" d="M65.966,144.085c0,0,22.956,8.774,30.946,10.473c6.132,1.3,14.622,1.349,14.825,20.22
			c0.202,18.869,0.272,26.51-1.628,38.683c-7.101,4.253-15.842,3.115-21.008,1.016c-2.637-14.181-2.455-35.669-2.455-35.669
			s-46.599-4.353-60.082-17.836C27.104,146.63,40.548,138.397,65.966,144.085z"/>
		<path fill="#77C3E4" d="M93.41,172.696c-2.312-3.336-22.955-8.441-32.714-11.565c-11.102-3.552-22.203-8.171-28.62-12.878
			c-0.577,0.513-1.443,1.377-1.99,2.207c13.531,9.33,59.375,20.621,61.089,23.325c1.715,2.705-1.143,25.002,2.854,42.104
			c1.104,0.147,0.686,0.294,2.24,0.315C91.797,198.388,95.722,176.032,93.41,172.696z"/>
		<path fill="#F8D1AD" d="M106.518,111.653l-16.187,3.02l-28.36-9.827l-2.458,4.912c0,0,20.397,17.75,28.952,19.393
			c5.867,1.127,23.37-5.002,23.37-5.002L106.518,111.653z"/>
		<path fill="#5EC2D2" d="M120.456,112.554c0.007-0.645,0.01-1.271,0.01-1.867C119.842,111.308,120.038,111.933,120.456,112.554z"/>
		<g>
			<path fill="#F9DFBE" d="M174.463,206.722c0,0,4.122-12.32,7.668-13.321c8.064,1.643,29.87,16.833,26.153,22.617
				c-0.688,1.07-1.841,3.916-4.605,2.165c-2.763-1.75-5.824-1.591-8.135-1.826c-2.001-0.204-10.04-0.494-10.04-0.494
				L174.463,206.722z"/>
			<path opacity="0.5" fill="#EDBB91" enable-background="new    " d="M185.505,215.862c0,0,4.299,0.155,7.392,0.318
				c-5.047-4.125-15.669-9.66-18.739-10.109L185.505,215.862z"/>
			<path fill="#29B3B2" d="M152.577,183.306c0,0,0.448,24.584-1.117,26.597l23.244-4.246c0,0,12.887,6.777,10.802,10.206
				c0,0-25.251,10.831-39.224,13.792c-12.801,2.713-9.05-48.36-9.05-48.36L152.577,183.306z"/>
			<g>
				<path fill="#F9DFBE" d="M145.604,224.549c0,0,4.984,9.016,5.577,16.771c-1.408,2.826-3.851,2.509-10.28,4.163
					c-7.012,1.802-14.248,6.493-22.673,4.664c-1.411-2.018-1.915-8.174,7.326-12.868c9.241-4.696,8.295-9.799,8.295-9.799
					L145.604,224.549z"/>
				<path opacity="0.5" fill="#EDBB91" enable-background="new    " d="M117.859,244.88c-1.032,2.522-0.369,4.21,0.369,5.268
					c4.428,2.163,13.205-1.409,16.083-2.444C132.985,245.505,117.859,244.88,117.859,244.88z"/>
			</g>
			<path opacity="0.5" fill="#EDBB91" enable-background="new    " d="M106.518,111.653l-2.613,0.487
				c-0.151,4.727,0.521,9.104,2.265,13.828c3.593-1.067,5.666-1.821,5.666-1.821L106.518,111.653z"/>
			<path fill="#5EC2D2" d="M103.652,110.411c0,0,1.541,13.312,6.508,15.808l7.938-2.419c0,0-1.776,8.438,4.137,15.639
				c7.046,8.581,10.974,22.04,10.974,22.04s17.581-1.645,22.5,2.271c4.917,3.913,20.027,7.604,20.027,7.604
				s-3.068-12.78-9.628-31.451c-2.553-7.273-4.812-23.196-7.495-29.677c-2.683-6.481-7.617-10.229-12.749-11.591
				c-3.765,5.685-10.623,12.604-13.631,11.829c-1.896-0.487-2.042-7.371-1.413-12.428c-2.796,0-8.97,2.354-13.852,5.675
				C109.29,108.936,103.652,110.411,103.652,110.411z"/>
			<path fill="#42BAC2" d="M123.965,108.802c-1.157-0.311-1.287,6.364-1.961,6.453c-0.674,0.089-1.184-1.594-1.539-1.549
				s0.111,6.018-2.368,10.094c-0.072,0.479-0.164,1.154-0.194,1.565C120.609,120.897,126.074,115.463,123.965,108.802z"/>
			<path fill="#42BAC2" d="M139.282,186.152c3.769,1.295,9.797,4.438,23.654,0.489c13.854-3.949,12.413-15.912,12.263-17.402
				c-0.149-1.49-32.853-16.573-54.814-6.345c-11.036,5.141-7.085,16.361,4.229,49.818c1.465,4.332,7.135,18.202,7.135,18.202
				s14.579-0.929,16.368-4.281C148.117,226.635,143.25,191.61,139.282,186.152z"/>
		</g>
		<g>
			
				<radialGradient id="SVGID_2_" cx="86.8057" cy="212.3787" r="9.5249" gradientTransform="matrix(1 0 0 -1 0 291.4038)" gradientUnits="userSpaceOnUse">
				<stop  offset="0" style="stop-color:#42BAC2"/>
				<stop  offset="1" style="stop-color:#27AFAF"/>
			</radialGradient>
			<path fill="url(#SVGID_2_)" d="M95.949,80.795c-1.021,5.274-5.943,8.76-10.993,7.782c-5.048-0.978-8.315-6.048-7.293-11.321
				c1.02-5.271,5.942-8.761,10.991-7.781C93.703,70.449,96.969,75.521,95.949,80.795z"/>
			<g>
				<path fill="#F9DFBE" d="M84.363,75.085c-3.898,1.9-5.793,6.04-4.236,9.234c1.568,3.193,6.013,4.865,9.92,2.96
					c3.903-1.905,4.818-6.411,3.258-9.609C91.739,74.471,88.267,73.169,84.363,75.085z"/>
				<path fill="#F9DFBE" d="M82.188,72.008c-0.695,0.573-0.802,1.605-0.236,2.28l2.445,2.957c0.564,0.679,1.589,0.766,2.288,0.178
					l0,0c0.696-0.58,0.803-1.604,0.24-2.287l-2.444-2.945C83.915,71.507,82.887,71.427,82.188,72.008L82.188,72.008z"/>
				<path fill="#F9DFBE" d="M85.406,70.469c-0.764,0.634-0.728,1.938,0.082,2.909l3.493,4.215c0.808,0.973,2.076,1.246,2.839,0.613
					l0,0c0.76-0.635,0.724-1.937-0.084-2.916l-3.491-4.205C87.434,70.108,86.17,69.836,85.406,70.469L85.406,70.469z"/>
				<path fill="#F9DFBE" d="M80.166,74.744c-0.659,0.561-0.874,1.538-0.406,2.104l2.076,2.37c0.471,0.564,1.392,0.565,2.054,0.019
					l0,0c0.672-0.56,0.829-1.469,0.358-2.032l-2.019-2.438C81.757,74.199,80.84,74.198,80.166,74.744L80.166,74.744z"/>
				<path fill="#F9DFBE" d="M78.274,77.188c-0.627,0.524-0.519,1.699,0.243,2.618l3.738,4.275c0.762,0.923,1.452,0.948,2.084,0.422
					l0,0c0.63-0.526,0.519-1.698-0.247-2.619l-3.43-3.829C79.898,77.134,78.903,76.665,78.274,77.188L78.274,77.188z"/>
			</g>
			<path fill="#F9DFBE" d="M44.633,96.222c6.474,3.451,15.796,14.899,15.796,14.899s9.409-11.099,10.977-13.065
				c2.292-2.879,9.604-11.474,9.604-11.474l7.077,1.066l-11.881,23.537c0,0-7.935,13.387-12.323,15.801
				c-0.859,0.474-3.081,0.922-3.899,0.385c-2.381-1.565-7.835-4.799-10.417-6.748c-5.803-4.381-10.661-8.34-18.622-15.778
				C31.01,100.97,40.965,95.997,44.633,96.222z"/>
			<path fill="#EDBB91" d="M45.045,96.46c-0.264-0.161-0.157-0.102-0.413-0.237c-3.667-0.226-13.623,4.748-13.689,8.623
				c0.795,0.742,1.551,1.442,2.29,2.119C33.83,101.589,39.805,97.315,45.045,96.46z"/>
			
				<radialGradient id="SVGID_3_" cx="78.2969" cy="209.4128" r="10.5285" gradientTransform="matrix(1 0 0 -1 0 291.4038)" gradientUnits="userSpaceOnUse">
				<stop  offset="0" style="stop-color:#42BAC2"/>
				<stop  offset="1" style="stop-color:#27AFAF"/>
			</radialGradient>
			<path fill="url(#SVGID_3_)" d="M88.404,83.947c-1.128,5.83-6.569,9.681-12.15,8.603c-5.582-1.081-9.192-6.685-8.064-12.516
				c1.128-5.828,6.569-9.682,12.152-8.601C85.92,72.512,89.533,78.116,88.404,83.947z"/>
		</g>
		<path fill="#EDBB91" d="M60.246,109.985c0,0-1.979,1.892-4.285,1.964s-13.026-3.044-14.227-4.193
			c-1.083-1.038,1.954-2.001,2.931-2.001c0.889,0,5.996,1.487,5.996,1.487s0.104-1.065-7.725-2.423
			c-1.224-0.214-7.434-0.616-6.797-2.394c0.561-0.721,2.148-0.727,5.7-0.912c2.191-0.113,5.536-0.467,10.436-0.199
			c3.108,1.177,5.562,2.366,9.064,4.266L60.246,109.985z"/>
		<path fill="#F8D1AD" d="M60.164,110.323c0,0-1.896,0.726-4.203,0.798c-2.306,0.071-11.382-2.916-12.938-3.499
			c-1.377-0.515-1.442-1.04,1.154-1.867c1.37-0.436,6.485,0.659,6.485,0.659s0.104-1.064-7.725-2.425
			c-1.224-0.212-6.309-0.585-6.797-1.562c-0.488-0.977,2.148-1.557,5.7-1.74c2.191-0.114,5.536-0.466,10.436-0.2
			c3.108,1.177,6.193,2.459,9.696,4.359L60.164,110.323z"/>
		<g>
			<path fill="#F9DFBE" d="M129.993,119.431l-18.224,19.537l-24.585-14.232l-5.595,3.55c0,0,6.409,6.735,10.99,11.176
				c9.169,8.893,13.356,13.827,19.19,14.495c4.837,0.553,34.328-25.68,34.328-25.68L129.993,119.431z"/>
			<path opacity="0.5" fill="#EDBB91" enable-background="new    " d="M130.06,119.292l-8.209,8.802
				c2.939,4.423,6.441,9.298,10.593,11.95c7.794-6.36,13.72-11.905,13.72-11.905L130.06,119.292z"/>
			<g>
				<path fill="#42BAC2" d="M122.661,127.853c0,0,19.022-23.761,25.573-17.58c11.214,10.58-2.705,25.586-8.053,31.676
					c-1.7,0.154-5.322-0.185-7.738-1.904c-0.033-0.021,1.965-1.88,1.93-1.903C128.863,134.192,122.661,127.853,122.661,127.853z"/>
				<path fill="#5EC2D2" d="M121.13,127.392c0,0,20.25-24.994,26.985-19.015c12.278,10.906-1.951,23.702-7.842,31.74
					C134.569,140.829,121.13,127.392,121.13,127.392z"/>
			</g>
			<path opacity="0.5" fill="#EDBB91" enable-background="new    " d="M68.511,125.284c-1.213-0.352-4.403-3.048-6.284-4.362
				c-0.977-0.683-3.1-2.005-2.893-3.337c0.17-1.101,2.405-1.104,3.182-0.947c0.777,0.154,3.819,1.554,7.121,4.298
				c1.717,0.527,5.318,1.391,7.904-1.644c0.298-0.145-3.301-2.961-3.912-3.998c-0.994-0.776-0.641-2.004-0.44-2.462
				c0.894-2.043,3.255,1.288,4.842,1.71c1.672,0.443,4.098,1.474,5.43,2.836c1.479,2.337,2.34,3.913,2.947,5.617
				C89.685,132.173,72.86,126.549,68.511,125.284z"/>
			<path fill="#F9DFBE" d="M68.88,125.437c-1.213-0.354-4.267-3.077-6.147-4.392c-0.977-0.684-2.97-1.937-2.953-3.042
				c0.017-1.113,1.654-0.762,2.842-0.8l7.016,3.73c6.453,0.295,5.036,1.391,7.623-1.644c0.298-0.145-2.541-2.76-3.151-3.797
				c-0.994-0.777-0.853-1.763-0.652-2.222c0.894-2.043,3.255,1.289,4.841,1.711c1.672,0.443,3.492,1.323,5.402,2.354
				c1.479,2.338,2.789,4.759,3.397,6.462C90.374,132.978,73.229,126.7,68.88,125.437z"/>
		</g>
		<g>
			<path opacity="0.5" fill="#EDBB91" enable-background="new    " d="M50.621,53.577l-13.943-4.568c0,0-0.674,2.646-1.583,6.38
				c4.376,2.438,8.691,6.378,14.017,6.916C48.906,58.133,50.621,53.577,50.621,53.577z"/>
			<path fill="#F9DFBE" d="M54.19,8.778c-13.197-0.957-24.731,9.815-25.771,24.057c-1.03,14.245,10.373,26.63,23.572,27.59
				c8.247,0.603,13.387-3.157,17.492-9.49c0.722-1.118,3.908-0.776,1.923-3.59c-1.922-2.726,2.191-6.532,2.46-10.305
				C74.901,22.802,67.384,9.737,54.19,8.778z"/>
			<path opacity="0.5" fill="#736759" enable-background="new    " d="M54.784,4.585c13.155-4.224,24.135,7.093,23.969,16.488
				c5.635,4.743-0.662,13.831-5.149,17.387c-0.16,0.502-0.501,1.387-0.501,1.387c-2.727-1.54-5.391-2.448-8.249-2.983
				c0.519-0.851,0.857-3.355,0.275-4.484c-0.111,2.522-2.049,4.066-2.169,4.032c-1.543-0.441-4.106-0.6-5.632-0.902
				c-0.158-0.029,3.934-3.345,2.449-7.18c-0.751,2.956-3.782,6.386-3.937,6.381c-3.708-0.167-6.687,2.294-8.301,1.303
				c1.051-2.933-1.747-6.374-4.88-3.863c-2.033,1.629-1.722,4.096-1.864,5.697c-0.238,2.706-0.105,7.71,3.166,5.741
				c0,0-1.389,7.928,1.8,13.191c9.002,14.859-9.823,25.189,2.079,37.011c-12.671-5.136-7.965-10.824-7.585-14.63
				c0.908-9.093,0.834-8.546-3-12.573c-0.318,1.896-1.915,4.573-4.061,6.209c-2.677,2.04-6.337,3.696-10.953,7.52
				c-9.474,7.846-1.811,19.544-1.615,22.105c-14.153-15.216-1.331-26.473,1.719-28.917c3.895-3.121,3.582-7.133,0.977-16.014
				c-4.47-15.242-3.809-32.52,8.169-47.367C36.856,3.472,47.217,0.419,54.784,4.585z"/>
			<path fill="#502517" d="M53.857,0.206c12.611-1.954,25.062,10.406,24.896,19.802c6.104,5.141,3.224,16.895-1.095,18.564
				c-4.707-0.05-6.031-0.964-12.016-2.7c-0.136-0.041,0.834-2.579-0.848-5.166c-0.3,2.919-0.369,3.604-1.832,5.023
				c-1.084,0-3.955-0.208-5.481-0.511c-0.158-0.028,3.78-4.121,2.295-7.956c0.61,3.31-3.146,8.012-3.302,8.005
				c-3.708-0.165-7.719,2.221-9.163,0.528c1.05-2.931-1.309-6.935-4.654-4.716c-1.102,0.73-1.722,4.097-1.864,5.698
				c-0.238,2.707-0.105,7.71,3.166,5.742c0,0-1.389,7.927,1.8,13.189c9.002,14.859-9.591,26.354,2.311,38.173
				c-12.671-5.135-7.398-11.953-7.018-15.762c0.908-9.089-0.627-9.267-4.461-13.294c-0.317,1.896-0.573,4.23-2.718,5.865
				c-2.677,2.042-4.511,2.128-9.249,5.8c-4.773,3.7-12.744,9.622-4.8,24.065c0.509,0.927,2.437,4.346-0.021,2.125
				C4.41,86.818,15.638,75.651,18.688,73.208c3.896-3.122,7.238-7.903,4.634-16.785c-4.47-15.241-6.945-32.856,5.033-47.701
				C33.72,2.07,41.423-0.503,53.857,0.206z"/>
			
				<ellipse transform="matrix(0.5238 -0.8518 0.8518 0.5238 -6.4991 74.571)" fill="#44352E" cx="63.448" cy="43.098" rx="1.731" ry="1.179"/>
			<path fill="#44352E" d="M61.314,38.475c-0.123,0.229,1.453-0.131,3.868,0.862c1.15,0.472,2.125,1.257,2.248,1.026
				c0.058-0.109,0.878-0.872,0.598-1.118c-0.318-0.277-2.014-0.933-2.644-1.131C63.036,37.377,61.438,38.244,61.314,38.475z"/>
			<path fill="#EA838C" d="M62.963,56.115c0,0-2.667-0.767-3.494-2.976c-0.827-2.213-2.012,0.729-1.183,2.576
				C58.81,56.892,60.674,59.917,62.963,56.115z"/>
			<path fill="#EDBB91" d="M43.378,40.229c1.21-0.53,0.862-1.18,1.872-3.312c1.066-2.25-1.69-3.632-2.553-0.861
				C42.314,37.284,42.168,40.76,43.378,40.229z"/>
		</g>
		<g>
			<path opacity="0.5" fill="#EDBB91" enable-background="new    " d="M130.649,91.858c0,0,1.008,3.908,4.738,5.329
				s6.583,1.251,10.452,1.243l-0.628-5.023L130.649,91.858z"/>
			<path fill="#F9DFBE" d="M151.528,43.958c12.498,6.961,16.539,23.536,9.026,37.022C153.045,94.469,136.82,99.76,124.327,92.8
				c-7.81-4.348-11.661-11.653-11.618-19.811c0.008-1.438-3.077-3.016,0.387-4.384c3.357-1.322,1.894-7.204,3.888-10.774
				C124.494,44.346,139.036,36.998,151.528,43.958z"/>
			<path fill="#44352E" d="M122.084,64.822c-0.28,1.042-1.084,1.733-1.793,1.54c-0.713-0.188-1.06-1.19-0.78-2.232
				c0.278-1.043,1.083-1.733,1.793-1.541C122.017,62.778,122.365,63.779,122.084,64.822z"/>
			<path fill="#E0760C" d="M127.144,62.526c-0.083,0.262-1.195-1.271-4.189-2.518c-1.425-0.593-2.512-0.724-2.878-1.081
				c-0.365-0.356-0.236-1.533,0.219-1.48c0.521,0.058,2.777,1.157,3.509,1.526C126.526,60.347,127.229,62.26,127.144,62.526z"/>
			<g>
				<path opacity="0.5" fill="#EDBB91" enable-background="new    " d="M122.064,53.552c-0.013-0.442-0.385-1.392-1.298-1.275
					c-0.063,0.008,1.289-1.482,1.231-1.516c-3.704-2.01-13.161-3.154-10.199-5.949c2.751-2.6,6.598-2.944,10.488-0.406
					c1.811-5.497,13.24-13.942,26.122-5.976c5.612,0.803,15.539,1.381,19.165,13.911c2.272,7.85,7.403,18.604-5.81,30.727
					c-1.683,1.546-4.052,3.812-7.016,6.78c-2.349,2.344-2.29,2.883-6.994,3.344c-0.11,0.012-0.927,0.42-1.028,0.386
					c-6.543-2.251-5.619-7.611-5.637-9.567c3.594,2.849,7.305-1.215,8.454-3.866c2.25-5.194-0.419-12.32-6.813-6.638
					c-5.95-1.611-9.119-2.131-11.781-7.935C128.792,60.878,130.591,50.473,122.064,53.552z"/>
				<path fill="#F39223" d="M123.083,52.434c-0.057-2.145-5.271-1.812-5.195,5.984c-2.388-0.908-4.282-2.773-3.655-6.287
					c0.331-1.848-0.509-2.024-0.961-0.061c-0.269,1.16,0.035,3.15,1.458,5.112c-8.193-1.457-5.985-10.097-2.192-13.678
					c2.751-2.598,4.848-6.711,10.971-3.102c1.811-5.497,12.757-11.246,25.639-3.279c5.612,0.802,15.539,1.381,19.165,13.913
					c2.271,7.846,9.232,20.762-3.981,32.886c-1.683,1.545-3.062,1.195-6.026,4.159c-2.35,2.345-7.052,6.601-11.688,4.779
					c-4.577-1.796-5.518-7.177-5.535-9.179c3.594,2.848,6.665-1.252,7.874-3.879c2.506-5.443-0.891-11.755-5.925-5.925
					c-10-2.812-11.24-7.876-11.679-10.064C130.616,60.192,132.765,50.339,123.083,52.434z"/>
				<path fill="#F39223" d="M184.409,54.841c0.051,8.742-4.575,12.234-9.858,12.775c-5.282,0.539-10.353-6.426-11.102-13.769
					c-0.747-7.348,4.625-11.245,9.905-11.781C178.638,41.524,184.36,46.476,184.409,54.841z"/>
			</g>
			<path fill="#EA838C" d="M121.18,81.569c0,0-2.838,1.323-4.562-0.287c-1.726-1.61-1.477,1.551,0.087,2.836
				C117.698,84.937,120.825,85.991,121.18,81.569z"/>
			<path fill="#EDBB91" d="M144.057,76.786c0.438-1.481,2.935-2.162,2.839,0.202c-0.111,2.726-1.4,4.062-2.077,4.249
				c-1.327,0.363-1.327-0.728-1.327-0.728S144.361,79.108,144.057,76.786z"/>
		</g>
		<path opacity="0.3" fill="#736759" enable-background="new    " d="M20.997,96.714c0,0,5.684,7.352,9.947,8.132
			c1.421,1.41,1.997,1.816,2.29,2.119c-0.667,0.022-2.05,0.39-3.622-0.38C22.63,103.327,20.997,96.714,20.997,96.714z"/>
	</g>
</g>
</svg>
