<?xml version="1.0" encoding="utf-8"?>
<!-- Generator: Adobe Illustrator 16.0.0, SVG Export Plug-In . SVG Version: 6.00 Build 0)  -->
<!DOCTYPE svg PUBLIC "-//W3C//DTD SVG 1.1//EN" "http://www.w3.org/Graphics/SVG/1.1/DTD/svg11.dtd">
<svg version="1.1" id="Capa_1" xmlns="http://www.w3.org/2000/svg" xmlns:xlink="http://www.w3.org/1999/xlink" x="0px" y="0px"
	 width="734.338px" height="413.177px" viewBox="0 0 734.338 413.177" enable-background="new 0 0 734.338 413.177"
	 xml:space="preserve">
<g>
	<g>
		<g>
			<path fill="#F39200" d="M269.873,59.906l-0.887,0.375l-0.404,0.112l-0.434,0.073c-0.014,0.002-0.029,0.003-0.043,0.001
				l-0.416-0.034l-0.367-0.072l-0.449-0.184l-0.285-0.054l-0.4,0.062l-0.396,0.166l-0.365,0.11c-0.043,0.014-0.088,0.01-0.127-0.011
				l-0.209-0.104c-0.041-0.021-0.072-0.057-0.088-0.101l-0.139-0.417l-0.125-0.31l-0.223-0.254l-0.406-0.124
				c-0.049-0.016-0.088-0.051-0.109-0.099c-0.02-0.046-0.018-0.1,0.006-0.146l0.281-0.53c0.018-0.03,0.043-0.054,0.072-0.069
				l0.229-0.114l0.426-0.819c0.016-0.03,0.039-0.055,0.07-0.071l0.254-0.141l0.256-0.77c0.006-0.02,0.016-0.039,0.029-0.055
				l0.295-0.36l0.303-0.807c0.006-0.014,0.012-0.028,0.021-0.041l0.209-0.286l-0.164-0.26l-0.885-0.747l-0.893-0.526l-0.67-0.168
				c-0.018-0.003-0.033-0.011-0.049-0.02l-0.605-0.37l-0.674-0.202c-0.045-0.013-0.084-0.046-0.105-0.088l-0.172-0.348
				c-0.018-0.032-0.023-0.068-0.018-0.103l0.033-0.243l0.113-0.343l0.023-0.218l-0.1-0.602l-0.094-0.37l-0.24-0.331l-0.236-0.157
				l-0.355,0.029c-0.02,0.002-0.033,0.001-0.051-0.002l-0.834-0.174l-0.6-0.032l-0.545-0.107l-1.502-0.066l-3.414,0.467l-0.02,0.145
				c-0.002,0.027-0.012,0.053-0.027,0.075l-0.754,1.131l-0.072,0.183l0.02,0.01l0.297-0.03l0.383,0.035l0.441,0.109
				c0.012,0.003,0.025,0.007,0.035,0.013l0.348,0.173c0.02,0.01,0.039,0.024,0.055,0.041l0.242,0.277
				c0.02,0.022,0.033,0.049,0.039,0.078l0.068,0.312c0.006,0.024,0.006,0.049,0.002,0.072c-0.006,0.023-0.016,0.045-0.029,0.066
				l-0.348,0.486l-0.242,0.246l-0.574,1.082l0.086,0.188l0.088,0.187l0.111,0.37l0.145,0.891l0.002,0.41l-0.064,0.335l0.043,0.126
				l0.059,0.059l0.225,0.128c0.016,0.01,0.033,0.023,0.045,0.04l0.174,0.209c0.02,0.023,0.033,0.052,0.039,0.082l0.033,0.209
				c0.008,0.045-0.002,0.092-0.029,0.129l-0.174,0.243c-0.018,0.026-0.043,0.046-0.072,0.059l-0.555,0.243l-0.77,0.253l-0.217,0.522
				c-0.012,0.027-0.029,0.051-0.053,0.069l-0.172,0.14c-0.027,0.021-0.057,0.033-0.09,0.037l-0.564,0.067l-0.182,0.077l-0.287,0.35
				c-0.016,0.021-0.037,0.037-0.061,0.048l-0.383,0.174c-0.01,0.005-0.021,0.009-0.033,0.012l-0.279,0.062l-0.805,0.57
				c-0.016,0.01-0.031,0.019-0.049,0.023l-0.904,0.279c-0.016,0.005-0.033,0.007-0.051,0.007h-0.244
				c-0.014,0-0.031-0.002-0.045-0.005l-0.359-0.099h-0.158l-0.285,0.096l-0.854,0.179l-0.258,0.088l-0.287,0.254l-0.42,0.42
				l-0.402,1.006l-0.221,0.374c-0.006,0.011-0.014,0.021-0.023,0.03l-0.73,0.765l-0.328,0.498l-0.242,0.248l-0.23,0.494
				c-0.006,0.011-0.012,0.021-0.018,0.031l-0.391,0.519l-0.133,1.065l-0.277,1.011v0.301l0.059,0.235l0.719,1.265l0.619,0.964
				l0.207,0.266l0.275,0.122l0.375,0.26l0.398,0.361l1.361,1.844l0.223,0.158l0.666,0.62l0.357,0.333
				c0.029,0.027,0.049,0.064,0.055,0.104l0.104,0.799c0.004,0.028,0,0.056-0.01,0.082l-0.111,0.31l0.555,1.043l0.775,2.284
				c0.018,0.055,0.008,0.117-0.027,0.163l-0.383,0.486c-0.035,0.044-0.086,0.07-0.143,0.066c-0.057-0.001-0.107-0.03-0.139-0.077
				l-0.252-0.378l-0.045-0.022l-0.088,0.018l-1.117,0.645c-0.031,0.019-0.068,0.026-0.104,0.024l-0.451-0.035l-0.855,0.001
				c-0.027,0-0.055-0.007-0.078-0.019l-0.209-0.104l-0.309-0.236l-0.133-0.027l-0.363-0.032l-0.275-0.075l-0.34-0.061l-0.473,0.063
				l-0.326,0.131l-0.369,0.216l-1.092,1.297c-0.01,0.012-0.021,0.022-0.033,0.031l-0.475,0.333l1.055,0.626
				c0.01,0.006,0.02,0.014,0.029,0.022l0.992,0.924l0.469,0.269c0.012,0.006,0.023,0.014,0.031,0.023l0.418,0.382
				c0.031,0.028,0.051,0.067,0.055,0.11l0.135,1.288l0.213,0.426l0.391,0.324l0.15,0.15c0.01,0.01,0.018,0.021,0.025,0.033
				l0.104,0.174c0.016,0.022,0.023,0.048,0.025,0.075l0.102,1.028l0.002,0.307l0,0c0,0.036-0.01,0.071-0.031,0.1l-0.211,0.302v0.248
				l0.123,0.223l0.242,0.107l0.859,0.166l0.547-0.034c0.055,0,0.107,0.026,0.139,0.07l0.104,0.139
				c0.021,0.026,0.033,0.058,0.035,0.091l0.035,0.452l0.094,0.431l0.285,0.445l0.682,0.681l0.607,0.818
				c0.021,0.029,0.033,0.062,0.035,0.096c0,0.034-0.008,0.068-0.027,0.098l-0.545,0.887l-0.236,0.677l-0.248,0.431l-0.592,1.84
				l0.326,0.414l0.781,0.746c0.01,0.008,0.016,0.017,0.023,0.027l0.312,0.451c0.016,0.025,0.027,0.052,0.029,0.081l0.07,0.66
				c0.002,0.018,0,0.037-0.004,0.054l-0.104,0.487c-0.002,0.014-0.008,0.026-0.014,0.039l-0.408,0.849l-0.094,0.48l0.033,1.51
				l0.094,0.418l0.152,0.214l0.41,0.513c0.016,0.02,0.027,0.042,0.033,0.066l0.07,0.278c0.002,0.014,0.004,0.027,0.004,0.042v0.799
				l0.096,0.496l0.508,0.913c0.006,0.011,0.01,0.021,0.016,0.033l0.172,0.555l0.18,1.702c0.004,0.023,0.002,0.046-0.006,0.068
				l-0.104,0.348l-0.16,0.326l0.02,0.133l0.133,0.133c0.021,0.022,0.037,0.05,0.045,0.08l0.07,0.278
				c0.008,0.036,0.004,0.073-0.008,0.106l-0.068,0.173l-0.189,0.306l-0.078,0.216v0.63l-0.035,0.268
				c-0.004,0.016-0.008,0.033-0.014,0.047l-0.209,0.452l-0.059,0.247c-0.008,0.031-0.023,0.059-0.047,0.081l-0.201,0.201
				l-0.02,0.167l0.08,0.161c0.008,0.016,0.014,0.033,0.016,0.049l0.07,0.417l0.064,0.225c0.008,0.025,0.01,0.051,0.004,0.077
				l-0.029,0.184l0.168,1.45l0.166,0.467l0.961,1.675c0.012,0.022,0.02,0.046,0.021,0.071l0.031,0.361l0.135,0.159l0.225,0.056
				c0.012,0.003,0.023,0.007,0.035,0.014l0.139,0.068c0.021,0.011,0.041,0.025,0.057,0.044l0.156,0.188l0.254,0.159
				c0.02,0.013,0.039,0.03,0.053,0.051l0.139,0.208c0.01,0.014,0.016,0.027,0.02,0.042l0.139,0.417
				c0.006,0.017,0.01,0.036,0.01,0.055v0.417c0,0.022-0.004,0.045-0.014,0.066l-0.174,0.417c-0.01,0.026-0.027,0.048-0.047,0.066
				l-0.662,0.555l-0.391,0.286l-0.373,0.375l-0.082,0.193l-0.027,0.156l0.064,0.316l0.07,0.459c0.006,0.039-0.002,0.079-0.021,0.113
				l-0.223,0.381l-0.023,0.479l2.361,0.11c-0.002-0.004,0-0.01-0.002-0.015c0-0.007,0-0.014-0.002-0.021
				c-0.002-0.031,0.002-0.063,0.018-0.092c0,0,0-0.002,0-0.002v0c0.035-0.067,0.113-0.104,0.186-0.088l0.869,0.173
				c0.012,0.002,0.023,0.006,0.035,0.011l0.242,0.104l0.195,0.115c0.016,0.009,0.029,0.021,0.041,0.034l0.143,0.155l0.266,0.289
				l0.404,0.093c0.018,0.004,0.033,0.011,0.049,0.021l0.174,0.104l0.451,0.344l0.205,0.088l0.15,0.025l0.244-0.061l0.355-0.171
				l0.342-0.165l0.426-0.299l0.33-0.299l0.223-0.291l0.277-0.278l0.197-0.329l0.531-0.71l0.088-0.182l0.053-0.195l0.033-0.469
				l-0.068-0.807c-0.002-0.019,0-0.039,0.004-0.058l0.105-0.417l0.109-0.296c0.01-0.03,0.029-0.055,0.055-0.075l0.172-0.139
				c0.014-0.01,0.027-0.018,0.043-0.024l0.396-0.165l0.244-0.185l0.197-0.229l0.283-0.378l0.061-0.276l0.029-0.265l-0.045-0.2
				l-0.303-0.138c-0.025-0.012-0.051-0.03-0.066-0.053l-0.104-0.137l-0.164-0.219l-0.932-0.097
				c-0.043-0.004-0.084-0.024-0.111-0.056l-0.312-0.348c-0.018-0.018-0.029-0.039-0.037-0.062l-0.104-0.313
				c-0.006-0.021-0.01-0.043-0.008-0.064l0,0l0,0v-0.018l0.033-0.573l-0.029-0.313l-0.002-0.015l-0.316-0.727l-0.27-0.18
				c-0.045-0.031-0.074-0.081-0.078-0.135l-0.102-1.841l0.07-0.553c0-0.012,0.004-0.024,0.008-0.036l0.174-0.486
				c0.004-0.012,0.008-0.022,0.016-0.033l0.264-0.429l0.168-0.668l0.383-0.846l0.305-1.452l-0.062-0.942l-0.314-0.234l-0.799-0.096
				l-0.084,0.015l-0.051,0.131l0.09,0.329l0.164,0.355c0.006,0.015,0.012,0.03,0.014,0.046l0.139,0.903
				c0.01,0.061-0.014,0.124-0.062,0.162l-0.674,0.54l-0.332,0.498c-0.014,0.02-0.029,0.036-0.049,0.049l-0.104,0.069
				c-0.033,0.021-0.07,0.03-0.107,0.029c-0.035-0.002-0.066-0.016-0.094-0.039c-0.004-0.002-0.006-0.001-0.008-0.003l0,0h-0.002
				l-0.242-0.208c-0.033-0.028-0.055-0.068-0.061-0.11l-0.059-0.479l-0.41-0.292l-0.305-0.123l-0.502-0.066
				c-0.064-0.009-0.119-0.055-0.141-0.118l-0.035-0.104c-0.008-0.028-0.01-0.059-0.004-0.088l0,0v-0.001l0.01-0.052l0.023-0.121
				c0.006-0.031,0.02-0.059,0.041-0.082l0.529-0.595l0.248-0.9l-0.113-0.204l-0.092-0.045c-0.037-0.019-0.064-0.05-0.082-0.088
				l-0.367-0.876l-0.076-0.184l-0.17-0.241l-0.48-0.682c-0.008-0.01-0.012-0.022-0.018-0.034l-0.244-0.59
				c-0.008-0.021-0.012-0.043-0.012-0.066v-0.487c0-0.012,0-0.025,0.004-0.037l0.068-0.312c0.004-0.014,0.008-0.027,0.014-0.041
				l0.141-0.278l0.32-0.502c0.01-0.013,0.02-0.025,0.031-0.036l0.348-0.313l0.842-0.667l0.203-0.204l0.037-0.095l-0.061-0.333
				c-0.006-0.032-0.002-0.065,0.01-0.095l0.07-0.173c0.008-0.022,0.021-0.042,0.037-0.059l0.07-0.07l0.068-0.069
				c0.01-0.009,0.02-0.017,0.029-0.023l0.59-0.382l0.297-0.27l0.07-0.164l-0.023-0.17l-0.004-0.024l-0.168-0.528l-0.314-1.188
				c-0.008-0.029-0.008-0.06,0-0.089l0.168-0.637v-0.152l-0.104-0.918c-0.002-0.012-0.002-0.023,0-0.035l0.311-3.248l-0.102-0.885
				c-0.004-0.036,0.004-0.073,0.021-0.105l0.451-0.799c0.018-0.03,0.043-0.055,0.074-0.07l0.209-0.104
				c0.012-0.006,0.023-0.011,0.037-0.014l0.178-0.042l0.182-0.042l-0.021-0.012c-0.059-0.032-0.094-0.096-0.09-0.164l0.035-0.521
				c0.002-0.028,0.012-0.056,0.025-0.08l0.279-0.452c0.012-0.019,0.027-0.037,0.047-0.05l0.832-0.59l0.381-0.385l0.305-0.471
				l0.783-1.985c0.004-0.011,0.01-0.022,0.018-0.032l1.865-2.764l0.41-1.025c0.01-0.025,0.025-0.047,0.045-0.064l0.348-0.313
				l0.945-0.598l0.35-0.351l0.23-0.429l0.582-1.576c0.004-0.012,0.01-0.022,0.016-0.033l1.285-2.015l0.721-1.476l0.152-0.559
				l-0.061-0.356l-0.197-0.431l-0.184-0.651c-0.006-0.019-0.008-0.039-0.006-0.059l0.033-0.487l0.178-0.923l0.031-0.912
				c0-0.014,0.002-0.028,0.008-0.042l1.215-4.169l0.445-5.177v-0.575L269.873,59.906z"/>
		</g>
	</g>
	<g>
		<g>
			<g>
				<g>
					<path fill="#FFFFFF" d="M514.578,188.257h-7.4v-4.946c0-1.438-0.079-2.336-0.237-2.692s-0.507-0.535-1.046-0.535
						c-0.609,0-0.996,0.217-1.16,0.65s-0.246,1.371-0.246,2.812v13.219c0,1.383,0.082,2.285,0.246,2.707s0.533,0.633,1.107,0.633
						c0.551,0,0.911-0.211,1.081-0.634s0.255-1.416,0.255-2.978v-3.577h7.4v1.109c0,2.946-0.208,5.035-0.624,6.267
						c-0.416,1.232-1.336,2.312-2.76,3.239c-1.424,0.927-3.179,1.391-5.265,1.391c-2.168,0-3.955-0.393-5.361-1.178
						s-2.338-1.872-2.795-3.261s-0.686-3.478-0.686-6.267v-8.314c0-2.051,0.07-3.589,0.211-4.614s0.56-2.013,1.257-2.962
						s1.664-1.696,2.9-2.241s2.657-0.817,4.263-0.817c2.18,0,3.979,0.421,5.396,1.264c1.418,0.842,2.35,1.893,2.795,3.151
						s0.668,3.215,0.668,5.872V188.257z"/>
					<path fill="#FFFFFF" d="M517.232,175.865h12.34v5.695h-4.939v5.396h4.623v5.414h-4.623v6.258h5.432v5.695h-12.832V175.865z"/>
					<path fill="#FFFFFF" d="M547.871,184.478h-6.873v-2.109c0-0.984-0.088-1.611-0.264-1.881s-0.469-0.404-0.879-0.404
						c-0.445,0-0.782,0.182-1.011,0.545s-0.343,0.915-0.343,1.653c0,0.95,0.128,1.666,0.385,2.146
						c0.246,0.481,0.942,1.061,2.091,1.74c3.294,1.955,5.369,3.56,6.225,4.813s1.283,3.275,1.283,6.064
						c0,2.027-0.237,3.521-0.712,4.482s-1.392,1.767-2.751,2.417s-2.941,0.976-4.746,0.976c-1.98,0-3.671-0.375-5.071-1.125
						s-2.317-1.705-2.751-2.865s-0.65-2.807-0.65-4.939v-1.863h6.873v3.463c0,1.066,0.097,1.752,0.29,2.057s0.536,0.457,1.028,0.457
						s0.858-0.193,1.099-0.58s0.36-0.961,0.36-1.723c0-1.676-0.229-2.771-0.686-3.287c-0.469-0.516-1.623-1.377-3.463-2.584
						c-1.84-1.219-3.059-2.104-3.656-2.654s-1.093-1.312-1.485-2.285s-0.589-2.215-0.589-3.727c0-2.18,0.278-3.773,0.835-4.781
						s1.456-1.796,2.698-2.364s2.742-0.853,4.5-0.853c1.922,0,3.56,0.311,4.913,0.932s2.25,1.403,2.689,2.347
						s0.659,2.546,0.659,4.808V184.478z"/>
					<path fill="#FFFFFF" d="M563.599,175.865l4.232,28.459h-7.563l-0.397-5.115h-2.647l-0.445,5.115h-7.651l3.775-28.459H563.599z
						 M559.677,194.164c-0.375-3.224-0.75-7.208-1.127-11.953c-0.754,5.45-1.228,9.434-1.42,11.953H559.677z"/>
					<path fill="#FFFFFF" d="M569.088,175.865h5.238c3.492,0,5.856,0.135,7.093,0.404s2.244,0.958,3.023,2.065
						s1.169,2.874,1.169,5.3c0,2.215-0.275,3.703-0.826,4.465s-1.635,1.219-3.252,1.371c1.465,0.363,2.449,0.85,2.953,1.459
						s0.817,1.169,0.94,1.679s0.185,1.913,0.185,4.21v7.506h-6.873v-9.457c0-1.523-0.12-2.467-0.36-2.83s-0.87-0.545-1.89-0.545
						v12.832h-7.4V175.865z M576.488,180.734v6.328c0.832,0,1.415-0.114,1.749-0.343s0.501-0.97,0.501-2.224v-1.564
						c0-0.902-0.161-1.494-0.483-1.775S577.344,180.734,576.488,180.734z"/>
				</g>
			</g>
		</g>
	</g>
	<g>
		<g>
			<path fill="#F2961C" d="M498.244,225.136v4.156h-1.68v-12.987h3.685c1.044,0.141,1.926,0.571,2.646,1.291
				c0.86,0.866,1.291,1.905,1.291,3.117c0,1.223-0.43,2.266-1.291,3.129c-0.86,0.863-1.899,1.295-3.117,1.295H498.244z
				 M498.244,217.993v5.455h1.534c0.747,0,1.387-0.267,1.92-0.799c0.533-0.533,0.799-1.178,0.799-1.936
				c0-0.752-0.267-1.393-0.799-1.924c-0.533-0.53-1.173-0.795-1.92-0.795H498.244z"/>
			<path fill="#F2961C" d="M512.473,226.427l1.68,0.601c-0.412,0.568-0.709,0.944-0.893,1.128c-0.904,0.904-1.994,1.355-3.271,1.355
				c-1.272,0-2.359-0.452-3.263-1.355s-1.355-1.994-1.355-3.271c0-1.277,0.452-2.368,1.355-3.271
				c0.904-0.903,1.991-1.355,3.263-1.355c1.277,0,2.367,0.452,3.271,1.355c0.184,0.184,0.481,0.555,0.893,1.112l-1.68,0.617
				c-0.217-0.265-0.363-0.436-0.438-0.511c-0.563-0.563-1.245-0.844-2.045-0.844c-0.795,0-1.476,0.283-2.042,0.848
				s-0.848,1.249-0.848,2.05c0,0.795,0.283,1.476,0.848,2.041s1.246,0.848,2.042,0.848c0.801,0,1.485-0.281,2.054-0.844
				C512.112,226.854,512.256,226.687,512.473,226.427z"/>
			<path fill="#F2961C" d="M517.334,216.305c2.11,0.011,3.755,0.608,4.935,1.793c1.293,1.304,1.94,2.871,1.94,4.7
				c0,1.834-0.646,3.401-1.94,4.7c-1.18,1.185-2.825,1.783-4.935,1.794h-1.233v-12.987H517.334z M517.781,218.018v9.57
				c1.336,0,2.432-0.43,3.287-1.291c0.963-0.963,1.445-2.129,1.445-3.499c0-1.363-0.482-2.529-1.445-3.498
				C520.213,218.445,519.117,218.018,517.781,218.018z"/>
			<path fill="#F2961C" d="M535.638,222.604l-1.015-0.024v-1.664c0.736-0.011,1.22-0.061,1.453-0.15
				c0.232-0.089,0.487-0.28,0.763-0.572c0.276-0.292,0.414-0.627,0.414-1.006c0-0.374-0.13-0.688-0.389-0.946
				c-0.26-0.257-0.577-0.385-0.95-0.385c-0.368,0-0.682,0.127-0.942,0.381c-0.146,0.151-0.314,0.481-0.503,0.99l-1.567-0.617
				c0.233-0.73,0.517-1.255,0.853-1.575c0.601-0.595,1.32-0.893,2.159-0.893c0.855,0,1.58,0.3,2.175,0.901
				c0.595,0.601,0.893,1.315,0.893,2.143c0,0.844-0.5,1.659-1.501,2.443c0.481,0.032,0.987,0.306,1.518,0.819
				c0.774,0.833,1.161,1.808,1.161,2.922c0,1.125-0.396,2.087-1.189,2.886c-0.792,0.798-1.754,1.197-2.885,1.197
				c-1.12,0-2.078-0.4-2.874-1.201c-0.633-0.638-1.036-1.523-1.209-2.654l1.68-0.608c0.098,0.974,0.344,1.658,0.739,2.053
				c0.465,0.46,1.02,0.69,1.664,0.69c0.654,0,1.213-0.23,1.676-0.69c0.463-0.459,0.694-1.017,0.694-1.672
				c0-0.66-0.231-1.242-0.694-1.745C537.298,223.123,536.59,222.782,535.638,222.604z"/>
			<path fill="#F2961C" d="M544.737,221.281c0.481-0.52,1.28-0.779,2.395-0.779c1.12,0,2.051,0.371,2.792,1.112
				c0.898,0.904,1.348,1.994,1.348,3.271c0,1.271-0.449,2.358-1.348,3.259s-1.986,1.352-3.263,1.352
				c-1.272,0-2.359-0.449-3.263-1.348c-0.866-0.871-1.301-2.081-1.307-3.628v-0.024c0-1.532,0.414-2.879,1.242-4.042
				c0.833-1.169,1.959-2.551,3.376-4.147h2.208C546.953,218.34,545.559,219.998,544.737,221.281z M543.763,224.885
				c0,0.801,0.283,1.482,0.848,2.045c0.565,0.562,1.249,0.844,2.05,0.844c0.795,0,1.476-0.281,2.041-0.844
				c0.565-0.563,0.848-1.245,0.848-2.045s-0.283-1.483-0.848-2.046c-0.565-0.562-1.246-0.844-2.041-0.844
				c-0.801,0-1.484,0.281-2.05,0.844C544.045,223.402,543.763,224.084,543.763,224.885z"/>
			<path fill="#F2961C" d="M554.692,227.385c0.23,0.227,0.345,0.503,0.345,0.828c0,0.335-0.115,0.617-0.345,0.844
				c-0.23,0.227-0.507,0.341-0.832,0.341c-0.319,0-0.595-0.114-0.828-0.341c-0.232-0.228-0.349-0.509-0.349-0.844
				c0-0.325,0.117-0.601,0.349-0.828c0.233-0.228,0.509-0.341,0.828-0.341C554.185,227.043,554.462,227.157,554.692,227.385z"/>
			<path fill="#F2961C" d="M560.71,222.604l-1.015-0.024v-1.664c0.736-0.011,1.22-0.061,1.453-0.15
				c0.232-0.089,0.487-0.28,0.763-0.572c0.276-0.292,0.414-0.627,0.414-1.006c0-0.374-0.13-0.688-0.389-0.946
				c-0.26-0.257-0.577-0.385-0.95-0.385c-0.368,0-0.682,0.127-0.942,0.381c-0.146,0.151-0.314,0.481-0.503,0.99l-1.567-0.617
				c0.233-0.73,0.517-1.255,0.853-1.575c0.601-0.595,1.32-0.893,2.159-0.893c0.855,0,1.58,0.3,2.175,0.901
				c0.595,0.601,0.893,1.315,0.893,2.143c0,0.844-0.5,1.659-1.501,2.443c0.481,0.032,0.987,0.306,1.518,0.819
				c0.774,0.833,1.161,1.808,1.161,2.922c0,1.125-0.396,2.087-1.189,2.886c-0.792,0.798-1.754,1.197-2.885,1.197
				c-1.12,0-2.078-0.4-2.874-1.201c-0.633-0.638-1.036-1.523-1.209-2.654l1.68-0.608c0.098,0.974,0.344,1.658,0.739,2.053
				c0.465,0.46,1.02,0.69,1.664,0.69c0.654,0,1.213-0.23,1.676-0.69c0.463-0.459,0.694-1.017,0.694-1.672
				c0-0.66-0.231-1.242-0.694-1.745C562.371,223.123,561.663,222.782,560.71,222.604z"/>
			<path fill="#F2961C" d="M569.485,225.197c0.882-0.658,1.634-1.219,2.256-1.685s1.178-0.966,1.668-1.501s0.735-1.131,0.735-1.786
				s-0.231-1.212-0.694-1.672c-0.462-0.46-1.021-0.69-1.676-0.69c-0.644,0-1.199,0.23-1.664,0.69
				c-0.395,0.395-0.641,1.077-0.739,2.045l-1.68-0.608c0.173-1.125,0.576-2.008,1.209-2.646c0.795-0.801,1.753-1.201,2.874-1.201
				c1.131,0,2.093,0.398,2.885,1.193c0.793,0.795,1.189,1.759,1.189,2.89c0,1.115-0.384,2.086-1.153,2.914
				c-0.487,0.525-1.054,1.03-1.7,1.514c-0.647,0.484-1.365,1.024-2.155,1.619c-0.693,0.514-1.08,0.958-1.161,1.331h6.169v1.688
				h-8.142C568.011,227.22,568.603,225.854,569.485,225.197z"/>
			<path fill="#F2961C" d="M580.427,221.281c0.481-0.52,1.28-0.779,2.395-0.779c1.12,0,2.051,0.371,2.792,1.112
				c0.898,0.904,1.348,1.994,1.348,3.271c0,1.271-0.449,2.358-1.348,3.259s-1.986,1.352-3.263,1.352
				c-1.272,0-2.359-0.449-3.263-1.348c-0.866-0.871-1.301-2.081-1.307-3.628v-0.024c0-1.532,0.414-2.879,1.242-4.042
				c0.833-1.169,1.959-2.551,3.376-4.147h2.208C582.643,218.34,581.249,219.998,580.427,221.281z M579.453,224.885
				c0,0.801,0.283,1.482,0.848,2.045c0.565,0.562,1.249,0.844,2.05,0.844c0.795,0,1.476-0.281,2.041-0.844
				c0.565-0.563,0.848-1.245,0.848-2.045s-0.283-1.483-0.848-2.046c-0.565-0.562-1.246-0.844-2.041-0.844
				c-0.801,0-1.484,0.281-2.05,0.844C579.735,223.402,579.453,224.084,579.453,224.885z"/>
			<path fill="#27515D" d="M506.612,246.147l1.258,1.128c-1.537,1.402-3.163,2.103-4.878,2.103c-1.834,0-3.398-0.647-4.691-1.94
				c-1.293-1.293-1.94-2.857-1.94-4.692c0-1.829,0.646-3.393,1.94-4.691c1.293-1.299,2.857-1.948,4.691-1.948
				c1.715,0,3.341,0.701,4.878,2.103l-1.258,1.145c-1.158-1.028-2.365-1.542-3.62-1.542c-1.358,0-2.52,0.482-3.486,1.445
				c-0.966,0.963-1.449,2.127-1.449,3.49c0,1.369,0.483,2.536,1.449,3.499c0.966,0.963,2.128,1.445,3.486,1.445
				C504.247,247.69,505.454,247.176,506.612,246.147z"/>
			<path fill="#27515D" d="M516.888,236.253v1.68h-5.316v3.969h5.316v1.681h-5.316v3.969h5.316v1.688h-6.997v-12.987H516.888z"/>
			<path fill="#27515D" d="M522.423,242.576c-0.92-0.308-1.665-0.748-2.236-1.319c-0.571-0.571-0.856-1.278-0.856-2.123
				c0-0.828,0.296-1.54,0.889-2.135c0.592-0.595,1.311-0.893,2.155-0.893c0.833,0,1.548,0.295,2.143,0.885
				c0.335,0.325,0.617,0.842,0.844,1.55l-1.526,0.601c-0.184-0.498-0.352-0.823-0.503-0.974c-0.265-0.26-0.584-0.39-0.958-0.39
				c-0.378,0-0.701,0.131-0.966,0.394c-0.265,0.263-0.397,0.583-0.397,0.962s0.132,0.701,0.397,0.966
				c0.298,0.292,0.709,0.56,1.234,0.804c1.017,0.33,1.88,0.85,2.589,1.558c0.795,0.785,1.193,1.737,1.193,2.857
				s-0.396,2.077-1.189,2.869c-0.792,0.793-1.747,1.189-2.861,1.189c-1.12,0-2.075-0.398-2.865-1.193
				c-0.633-0.633-1.033-1.507-1.201-2.622l1.631-0.593c0.103,0.958,0.354,1.637,0.755,2.038c0.465,0.465,1.025,0.698,1.68,0.698
				s1.215-0.232,1.681-0.698c0.465-0.465,0.698-1.028,0.698-1.688c0-0.655-0.232-1.215-0.698-1.68
				C523.611,243.196,523.067,242.841,522.423,242.576z"/>
			<path fill="#27515D" d="M532.878,236.253l4.724,12.987h-1.786l-1.672-4.594h-3.441l-1.664,4.594h-1.794l4.724-12.987H532.878z
				 M533.536,242.966l-1.112-3.044l-1.104,3.044H533.536z"/>
			<path fill="#27515D" d="M542.439,245.084h-1.534v4.156h-1.68v-12.987h3.685c1.044,0.141,1.926,0.571,2.646,1.291
				c0.86,0.866,1.291,1.905,1.291,3.117c0,1.223-0.43,2.268-1.291,3.133c-0.595,0.595-1.05,0.931-1.364,1.006l2.881,4.44h-2.037
				L542.439,245.084z M540.906,237.941v5.455h1.534c0.747,0,1.387-0.267,1.92-0.799c0.533-0.533,0.799-1.178,0.799-1.936
				c0-0.752-0.267-1.393-0.799-1.924c-0.533-0.53-1.173-0.795-1.92-0.795H540.906z"/>
		</g>
	</g>
	<g>
		<g>
			<polyline fill="none" stroke="#FFFFFF" stroke-width="2" points="260.553,62.902 405.48,185.55 486.072,185.55 			"/>
			<g>
				<circle fill="#FFFFFF" cx="260.639" cy="62.975" r="2.256"/>
			</g>
		</g>
	</g>
</g>
</svg>
