<?xml version="1.0" encoding="utf-8"?>
<!-- Generator: Adobe Illustrator 16.0.0, SVG Export Plug-In . SVG Version: 6.00 Build 0)  -->
<!DOCTYPE svg PUBLIC "-//W3C//DTD SVG 1.1//EN" "http://www.w3.org/Graphics/SVG/1.1/DTD/svg11.dtd">
<svg version="1.1" id="Capa_1" xmlns="http://www.w3.org/2000/svg" xmlns:xlink="http://www.w3.org/1999/xlink" x="0px" y="0px"
	 width="734.337px" height="413.177px" viewBox="0 0 734.337 413.177" enable-background="new 0 0 734.337 413.177"
	 xml:space="preserve">
<g>
	<g>
		<g>
			<path fill="#F39200" d="M198.208,235.547c0.029-0.021,0.064-0.031,0.1-0.031h0.278l0.364,0.037
				c0.038,0.002,0.073,0.02,0.101,0.045l0.47,0.436l0.433,0.233l0.273,0.096l1.554,0.545l0.564,0.031h0.015l0.261-0.051l0.169-0.226
				l0.505-1.015c0.008-0.015,0.017-0.029,0.027-0.041l0.869-0.938l2.295-1.881l0.381-0.477l0.165-0.725
				c0.008-0.032,0.023-0.062,0.046-0.084l0.545-0.546l0.065-0.839c0.002-0.021,0.008-0.043,0.017-0.062l0.521-1.076l0.67-1.059
				l0.703-0.917l0.441-0.716c0.007-0.012,0.016-0.021,0.025-0.029c0.003-0.004,0.004-0.006,0.007-0.009l0.19-0.171l0.157-0.141
				c0.026-0.025,0.06-0.039,0.094-0.043l0.245-0.031l0.033-0.004l0,0l0,0c0.014-0.003,0.026,0,0.04,0.001
				c0.007,0.002,0.014,0,0.021,0.002l0.051,0.011l0.382,0.088h0.168l0.217-0.054l0.163-0.14l0.049-0.041
				c0.008-0.009,0.02-0.012,0.029-0.018s0.018-0.014,0.029-0.016l0.643-0.203l0.127-0.077l0.292-0.389
				c0.011-0.015,0.022-0.026,0.038-0.038l0.243-0.174c0.021-0.015,0.049-0.025,0.075-0.029l0.695-0.104
				c0.016-0.003,0.034-0.003,0.05,0l0.243,0.034c0.025,0.004,0.05,0.014,0.071,0.027l0.692,0.45l0.304,0.167l0.258,0.205
				l0.153-0.135l0.162-0.227l0.331-0.335c0.022-0.022,0.051-0.037,0.081-0.046l0.277-0.069c0.023-0.005,0.047-0.007,0.071-0.003
				l0.208,0.035c0.015,0.003,0.026,0.011,0.039,0.018c0.012,0.005,0.025,0.008,0.036,0.014c0.021,0.017,0.039,0.037,0.051,0.062
				l0.11,0.217l0.174,0.068l0.014-0.154c0.003-0.035,0.017-0.07,0.042-0.098l0.131-0.152l0.076-0.09
				c0.015-0.018,0.034-0.032,0.055-0.043l0.243-0.121l0.115-0.145c0.023-0.028,0.056-0.049,0.09-0.059l0.383-0.104
				c0.015-0.004,0.029-0.007,0.045-0.007l0,0h2.293c0.059,0,0.113,0.03,0.146,0.08c0.031,0.047,0.038,0.109,0.015,0.162
				l-0.104,0.244l-0.16,0.48v0.215l0,0c0,0.02-0.004,0.039-0.01,0.056l-0.069,0.208c-0.006,0.018-0.014,0.034-0.026,0.049
				l-0.187,0.25l-0.026,0.105l-0.03,0.389l-0.197,0.799l0.063,0.126l0.119,0.12l1.032,0.267l1.058,0.063l1.245-0.23l1.213-1.213
				l0.884-1.262l0.455-0.596c0.008-0.01,0.017-0.02,0.025-0.027l0.46-0.395l0.099-0.197l-0.027-0.188l-0.096-0.282
				c-0.004-0.014-0.008-0.025-0.01-0.037l-0.033-0.348c-0.002-0.019-0.001-0.035,0.002-0.053l0.104-0.521
				c0.003-0.016,0.008-0.03,0.014-0.044l0.142-0.277c0.008-0.021,0.023-0.041,0.043-0.057l0.104-0.086l0.104-0.087l0.04-0.027
				l0.165-0.11l0.193-0.218l0.069-0.078l0.031-0.053l0.028-0.052v-0.164l-0.057-0.142c-0.005-0.015-0.009-0.028-0.011-0.043
				l-0.034-0.278c-0.005-0.034,0.001-0.069,0.017-0.1l0.248-0.459c0.007-0.015,0.016-0.026,0.027-0.038l0.104-0.104
				c0.02-0.02,0.043-0.034,0.068-0.043l0.267-0.088l0.127-0.153l0.233-0.5l0,0l0,0c0.001-0.002,0.003-0.004,0.003-0.006
				c0.005-0.009,0.01-0.018,0.016-0.025l0.209-0.277l0.211-0.238l0.075-0.086c0.01-0.012,0.021-0.021,0.034-0.029l0.938-0.625
				l1.403-1.271l0.09-0.302v-0.001l0.309-1.682c0.003-0.02,0.01-0.035,0.018-0.053l0.626-1.146l0.197-0.565l0.092-0.371
				l-0.027-0.246l-0.435-0.768c-0.022-0.043-0.028-0.092-0.015-0.137l0.259-0.842l-0.145-0.321c-0.018-0.034-0.021-0.073-0.014-0.11
				l0.141-0.595c0.005-0.017,0.012-0.034,0.021-0.05l0.174-0.277l0.707-0.779l0.029-0.468l-0.133-0.529l-0.035-0.276l-0.123-0.308
				l-0.162-0.226l-0.519-1.101l-0.382-0.286l-0.314-0.312l-0.168-0.096l-0.32,0.059l-0.594,0.234l-0.128,0.079l-0.099,0.1
				l-0.126,0.313c-0.007,0.014-0.014,0.026-0.021,0.039l-0.382,0.521c-0.02,0.024-0.043,0.043-0.072,0.057l-0.243,0.104
				c-0.042,0.018-0.088,0.019-0.129,0.003l-0.226-0.084l-0.188,0.054c-0.031,0.008-0.063,0.008-0.096,0l-0.242-0.07l-0.292-0.107
				c-0.021-0.008-0.039-0.02-0.055-0.034l-0.688-0.625l-0.283,0.104c-0.089,0.032-0.187-0.012-0.222-0.099l-0.114-0.288
				l-0.604-0.317c-0.051-0.027-0.083-0.076-0.09-0.132l-0.013-0.095l-0.374,0.07l-0.542,0.036l-0.627,0.169l-0.554,0.039
				c-0.051,0.004-0.1-0.014-0.135-0.05l-0.243-0.243c-0.04-0.038-0.058-0.094-0.049-0.148l0.104-0.695
				c0.002-0.015,0.007-0.031,0.013-0.045l1.668-3.683l0.228-0.854v-0.889l-0.305-0.982c-0.014-0.044-0.009-0.092,0.013-0.133
				s0.059-0.071,0.103-0.084l0.114-0.034l-0.178-0.155c-0.064-0.057-0.078-0.15-0.034-0.224l0.176-0.277l0.375-0.48l0.071-0.189
				l-0.015-0.037l-0.236-0.079c-0.033-0.011-0.062-0.031-0.084-0.061l-0.104-0.139c-0.015-0.019-0.024-0.039-0.03-0.062l-0.034-0.14
				c-0.005-0.02-0.007-0.04-0.005-0.061l0.028-0.247l-0.311-0.433c-0.016-0.023-0.026-0.051-0.031-0.079l-0.033-0.278
				c-0.004-0.033,0-0.068,0.016-0.098l0.141-0.278c0.014-0.028,0.035-0.054,0.063-0.07l0.277-0.174
				c0.015-0.01,0.032-0.017,0.05-0.021l0.255-0.064l0.165-0.094l0.152-0.459c0.009-0.024,0.022-0.048,0.042-0.067l0.284-0.283
				l0.076-0.231l-0.2-1.104l-0.003-0.378c0-0.015,0.002-0.028,0.005-0.042l0.07-0.278c0.003-0.015,0.01-0.03,0.018-0.044
				l0.139-0.243c0.023-0.041,0.063-0.071,0.108-0.083l0.068-0.017l-0.008-0.015c-0.02-0.039-0.022-0.085-0.011-0.127l0.098-0.323
				v-0.188l-0.269-0.771c-0.007-0.019-0.01-0.038-0.01-0.058l0,0v-0.174c0-0.046,0.019-0.09,0.051-0.123l0.139-0.139
				c0.015-0.014,0.031-0.025,0.05-0.033l0.51-0.248l-0.01-0.049l-0.328-0.492c-0.008-0.012-0.013-0.023-0.019-0.036l-0.104-0.278
				c-0.01-0.023-0.013-0.048-0.011-0.073l0.035-0.485l0.311-1.428l-0.172-3.744l-0.088-0.333l-0.075,0.022
				c-0.036,0.01-0.077,0.008-0.113-0.008l-0.904-0.383l-0.776-0.225l-0.635,0.095l-0.428,0.198c-0.033,0.015-0.07,0.02-0.106,0.012
				l-0.869-0.174l-0.424,0.004l-0.844,0.27l-0.515,0.076l-0.302,0.001l-0.361,0.15l-0.188,0.157c-0.014,0.01-0.027,0.02-0.042,0.025
				l-0.485,0.213l-0.114,0.344c-0.005,0.014-0.012,0.028-0.021,0.041l-0.963,1.443l-0.201,0.505
				c-0.017,0.039-0.046,0.072-0.084,0.091l-0.139,0.07l-0.231,0.078c-0.028,0.01-0.06,0.011-0.089,0.006l-0.348-0.07
				c-0.014-0.002-0.026-0.007-0.039-0.013l-0.448-0.208l-0.552,0.262l-0.185,0.215c-0.012,0.014-0.026,0.025-0.042,0.035
				l-0.348,0.209c-0.011,0.007-0.023,0.012-0.034,0.016l-0.417,0.14c-0.018,0.005-0.037,0.009-0.055,0.009h-0.348
				c-0.021,0-0.041-0.004-0.061-0.012l-0.239-0.088l-0.206,0.024l-0.298,0.149l-0.468,0.435l-0.521,0.589l-0.146,0.413l0.279,0.14
				c0.031,0.016,0.057,0.041,0.074,0.07l0.312,0.557c0.029,0.051,0.03,0.111,0.002,0.163l-0.728,1.425l-0.094,0.318l-0.022,0.227
				l0.562,0.988c0.019,0.032,0.027,0.069,0.024,0.105l-0.035,0.383c-0.002,0.021-0.008,0.043-0.018,0.061l-0.174,0.348l-0.43,0.613
				l-0.496,0.861l-0.272,1.912l0.001,0.149c0,0.028-0.008,0.058-0.021,0.083l-0.614,1.126l-0.135,0.535
				c-0.005,0.02-0.012,0.038-0.023,0.054l-0.278,0.418c-0.016,0.023-0.037,0.043-0.063,0.057l-1.086,0.576l-0.501,0.535
				l-0.146,0.207l-0.409,1.091c-0.007,0.017-0.016,0.032-0.026,0.046l-0.684,0.854l-0.5,1.066l-0.169,1.568l-0.28,1.508
				c-0.004,0.023-0.014,0.045-0.025,0.064l-0.835,1.25c-0.011,0.017-0.025,0.033-0.041,0.045l-0.478,0.35l-0.121,0.363
				c-0.006,0.018-0.016,0.034-0.024,0.049l-0.487,0.66l-0.157,0.322l-0.388,0.669l-1.149,1.318l0.182,0.278l0.13,0.202
				c0.019,0.027,0.027,0.06,0.027,0.093v0.244c0,0.066-0.039,0.127-0.1,0.157l-0.729,0.347l-0.227,0.144l-0.143,0.227l-0.306,0.886
				c-0.005,0.015-0.013,0.029-0.021,0.043l-0.244,0.347l-0.333,0.673l-0.517,1.273l-1.579,2.393l-0.337,0.711
				c-0.006,0.011-0.011,0.021-0.019,0.03l-0.418,0.521c-0.011,0.014-0.023,0.026-0.039,0.036l-0.053,0.035l-0.225,0.772
				c-0.004,0.015-0.011,0.029-0.02,0.044l-0.174,0.277l-0.188,0.411l-0.201,1.241l0.033,0.431l-0.035,0.345
				c-0.003,0.026-0.013,0.051-0.025,0.072l-0.174,0.279l-0.125,0.32c-0.007,0.016-0.016,0.029-0.026,0.044l-0.261,0.327
				l-0.131,0.322l-0.1,0.333l-0.248,0.608l-0.127,0.414l-0.068,1.336c-0.001,0.022-0.007,0.045-0.019,0.066l-0.274,0.551
				l0.232,0.493l0.16,0.192c0.016,0.018,0.026,0.039,0.033,0.062l0.069,0.243c0.015,0.054,0.005,0.108-0.028,0.152l-0.104,0.139
				c-0.009,0.012-0.018,0.022-0.03,0.031l-0.158,0.127l-0.104,0.13l-0.055,0.222l-0.035,1.267c-0.001,0.033-0.012,0.067-0.031,0.096
				l-0.243,0.348c-0.014,0.02-0.032,0.033-0.052,0.047c-0.003,0.001-0.005,0.004-0.007,0.005l-0.306,0.165l-0.055,0.409l0.066,0.392
				c0.003,0.021,0.003,0.043-0.001,0.064l-0.14,0.66c-0.008,0.037-0.028,0.071-0.058,0.096l-0.205,0.178l-0.048,0.141l-0.028,0.412
				l0.364,0.307l0.321,0.128c0.031,0.014,0.058,0.036,0.077,0.062l0.217,0.313l0.084,0.119l0.47,0.403
				c0.022,0.02,0.038,0.043,0.049,0.071l0.348,0.938c0.008,0.02,0.011,0.042,0.011,0.063l-0.027,1.221L198.208,235.547z"/>
		</g>
	</g>
	<g>
		<g>
			<g>
				<g>
					<path fill="#FFFFFF" d="M512.182,175.865v5.695h-4.395v22.764h-7.4V181.56h-4.377v-5.695H512.182z"/>
					<path fill="#FFFFFF" d="M530.779,192.529c0,2.859-0.067,4.884-0.202,6.073s-0.557,2.276-1.266,3.261s-1.667,1.74-2.874,2.268
						s-2.613,0.791-4.219,0.791c-1.523,0-2.892-0.249-4.104-0.747s-2.188-1.245-2.927-2.241s-1.178-2.08-1.318-3.252
						s-0.211-3.223-0.211-6.152v-4.869c0-2.859,0.067-4.884,0.202-6.073s0.557-2.276,1.266-3.261s1.667-1.74,2.874-2.268
						s2.613-0.791,4.219-0.791c1.523,0,2.892,0.249,4.104,0.747s2.188,1.245,2.927,2.241s1.178,2.08,1.318,3.252
						s0.211,3.223,0.211,6.152V192.529z M523.379,183.177c0-1.324-0.073-2.171-0.22-2.54s-0.448-0.554-0.905-0.554
						c-0.387,0-0.683,0.149-0.888,0.448s-0.308,1.181-0.308,2.646v13.289c0,1.652,0.067,2.672,0.202,3.059s0.448,0.58,0.94,0.58
						c0.504,0,0.826-0.223,0.967-0.668s0.211-1.506,0.211-3.182V183.177z"/>
					<path fill="#FFFFFF" d="M540.939,175.865v22.764h4.5v5.695h-11.9v-28.459H540.939z"/>
					<path fill="#FFFFFF" d="M554.633,175.865v28.459h-7.4v-28.459H554.633z"/>
					<path fill="#FFFFFF" d="M580.438,175.865v28.459h-6.469l-0.009-19.213l-2.575,19.213h-4.588l-2.716-18.773l-0.009,18.773
						h-6.469v-28.459h9.575c0.285,1.711,0.577,3.728,0.879,6.05l1.051,7.239l1.701-13.289H580.438z"/>
					<path fill="#FFFFFF" d="M596.2,175.865l4.232,28.459h-7.562l-0.397-5.115h-2.647l-0.445,5.115h-7.65l3.775-28.459H596.2z
						 M592.278,194.164c-0.375-3.224-0.75-7.208-1.127-11.953c-0.754,5.45-1.228,9.434-1.42,11.953H592.278z"/>
				</g>
			</g>
		</g>
	</g>
	<g>
		<g>
			<path fill="#F2961C" d="M498.22,225.136v4.156h-1.68v-12.987h3.686c1.043,0.141,1.926,0.571,2.646,1.291
				c0.86,0.866,1.29,1.905,1.29,3.117c0,1.223-0.43,2.266-1.29,3.129c-0.86,0.863-1.899,1.295-3.117,1.295H498.22z M498.22,217.993
				v5.455h1.534c0.747,0,1.387-0.267,1.92-0.799c0.532-0.533,0.8-1.178,0.8-1.936c0-0.752-0.268-1.393-0.8-1.924
				c-0.533-0.53-1.173-0.795-1.92-0.795H498.22z"/>
			<path fill="#F2961C" d="M512.449,226.427l1.681,0.601c-0.412,0.568-0.709,0.944-0.894,1.128
				c-0.903,0.904-1.994,1.355-3.271,1.355c-1.272,0-2.359-0.452-3.264-1.355s-1.355-1.994-1.355-3.271
				c0-1.277,0.451-2.368,1.355-3.271c0.904-0.903,1.991-1.355,3.264-1.355c1.276,0,2.367,0.452,3.271,1.355
				c0.185,0.184,0.481,0.555,0.894,1.112l-1.681,0.617c-0.217-0.265-0.362-0.436-0.438-0.511c-0.562-0.563-1.244-0.844-2.045-0.844
				c-0.796,0-1.477,0.283-2.042,0.848s-0.849,1.249-0.849,2.05c0,0.795,0.283,1.476,0.849,2.041s1.246,0.848,2.042,0.848
				c0.801,0,1.484-0.281,2.053-0.844C512.089,226.854,512.232,226.687,512.449,226.427z"/>
			<path fill="#F2961C" d="M517.311,216.305c2.11,0.011,3.755,0.608,4.935,1.793c1.294,1.304,1.94,2.871,1.94,4.7
				c0,1.834-0.646,3.401-1.94,4.7c-1.18,1.185-2.824,1.783-4.935,1.794h-1.233v-12.987H517.311z M517.757,218.018v9.57
				c1.337,0,2.433-0.43,3.287-1.291c0.963-0.963,1.445-2.129,1.445-3.499c0-1.363-0.482-2.529-1.445-3.498
				C520.189,218.445,519.094,218.018,517.757,218.018z"/>
			<path fill="#F2961C" d="M537.685,216.305h1.469v7.8h1.145v1.68h-1.145v3.506h-1.68v-3.506h-5.316L537.685,216.305z
				 M537.474,220.096l-2.395,4.01h2.395V220.096z"/>
			<path fill="#F2961C" d="M551.556,224.885c0,1.271-0.45,2.358-1.352,3.259c-0.9,0.901-1.99,1.352-3.268,1.352
				c-1.271,0-2.357-0.451-3.258-1.352c-0.901-0.901-1.352-1.987-1.352-3.259v-3.969c0-1.271,0.45-2.358,1.352-3.259
				c0.9-0.901,1.986-1.351,3.258-1.351c1.277,0,2.367,0.45,3.268,1.351c0.901,0.901,1.352,1.988,1.352,3.259V224.885z
				 M549.835,220.916c0-0.795-0.283-1.475-0.848-2.038c-0.566-0.562-1.25-0.844-2.051-0.844c-0.795,0-1.475,0.282-2.041,0.844
				c-0.565,0.563-0.848,1.242-0.848,2.038v3.969c0,0.801,0.282,1.482,0.848,2.045c0.566,0.562,1.246,0.844,2.041,0.844
				c0.801,0,1.484-0.281,2.051-0.844c0.564-0.563,0.848-1.245,0.848-2.045V220.916z"/>
			<path fill="#F2961C" d="M554.993,227.385c0.23,0.227,0.346,0.503,0.346,0.828c0,0.335-0.115,0.617-0.346,0.844
				c-0.23,0.227-0.507,0.341-0.832,0.341c-0.318,0-0.595-0.114-0.828-0.341c-0.232-0.228-0.349-0.509-0.349-0.844
				c0-0.325,0.116-0.601,0.349-0.828c0.233-0.228,0.51-0.341,0.828-0.341C554.486,227.043,554.763,227.157,554.993,227.385z"/>
			<path fill="#F2961C" d="M561.012,222.604l-1.015-0.024v-1.664c0.736-0.011,1.221-0.061,1.453-0.15s0.486-0.28,0.764-0.572
				c0.275-0.292,0.413-0.627,0.413-1.006c0-0.374-0.13-0.688-0.39-0.946c-0.26-0.257-0.576-0.385-0.949-0.385
				c-0.368,0-0.682,0.127-0.941,0.381c-0.146,0.151-0.314,0.481-0.504,0.99l-1.566-0.617c0.232-0.73,0.518-1.255,0.853-1.575
				c0.601-0.595,1.32-0.893,2.159-0.893c0.855,0,1.58,0.3,2.176,0.901c0.595,0.601,0.893,1.315,0.893,2.143
				c0,0.844-0.501,1.659-1.502,2.443c0.481,0.032,0.987,0.306,1.518,0.819c0.773,0.833,1.161,1.808,1.161,2.922
				c0,1.125-0.396,2.087-1.189,2.886c-0.792,0.798-1.755,1.197-2.886,1.197c-1.119,0-2.078-0.4-2.873-1.201
				c-0.633-0.638-1.036-1.523-1.209-2.654l1.68-0.608c0.098,0.974,0.344,1.658,0.738,2.053c0.466,0.46,1.021,0.69,1.664,0.69
				c0.654,0,1.214-0.23,1.676-0.69c0.463-0.459,0.695-1.017,0.695-1.672c0-0.66-0.232-1.242-0.695-1.745
				C562.672,223.123,561.964,222.782,561.012,222.604z"/>
			<path fill="#F2961C" d="M574.016,216.305v12.987h-1.681v-10.795h-1.242l1.705-2.191H574.016z"/>
			<path fill="#F2961C" d="M585.281,216.305h1.47v7.8h1.145v1.68h-1.145v3.506h-1.681v-3.506h-5.316L585.281,216.305z
				 M585.07,220.096l-2.395,4.01h2.395V220.096z"/>
			<path fill="#27515D" d="M500.444,237.934v11.307h-1.688v-11.307h-3.028v-1.68h7.744v1.68H500.444z"/>
			<path fill="#27515D" d="M515.647,238.031c1.299,1.299,1.947,2.865,1.947,4.7s-0.648,3.401-1.947,4.7s-2.865,1.948-4.7,1.948
				c-1.834,0-3.401-0.649-4.699-1.948c-1.299-1.299-1.948-2.865-1.948-4.7s0.649-3.401,1.948-4.7
				c1.298-1.299,2.865-1.948,4.699-1.948C512.782,236.083,514.349,236.732,515.647,238.031z M510.947,237.779
				c-1.368,0-2.536,0.483-3.503,1.449c-0.965,0.966-1.448,2.133-1.448,3.502s0.484,2.538,1.453,3.506
				c0.968,0.969,2.135,1.453,3.498,1.453c1.369,0,2.536-0.484,3.503-1.453c0.966-0.968,1.449-2.137,1.449-3.506
				s-0.483-2.537-1.449-3.502C513.483,238.262,512.316,237.779,510.947,237.779z"/>
			<path fill="#27515D" d="M519.835,249.24v-12.987h1.681v11.298h4.643v1.688H519.835z"/>
			<path fill="#27515D" d="M529.948,236.253v12.987h-1.68v-12.987H529.948z"/>
			<path fill="#27515D" d="M534.486,236.253l4.212,7.281l4.197-7.281h1.533v12.987h-1.68v-9.383l-4.051,7.013l-4.066-7.013v9.383
				h-1.68v-12.987H534.486z"/>
			<path fill="#27515D" d="M552.083,236.253l4.725,12.987h-1.786l-1.672-4.594h-3.441l-1.664,4.594h-1.794l4.725-12.987H552.083z
				 M552.741,242.966l-1.112-3.044l-1.104,3.044H552.741z"/>
		</g>
	</g>
	<g>
		<g>
			<polyline fill="none" stroke="#FFFFFF" stroke-width="2" points="230.125,211.63 405.457,185.55 486.049,185.55 			"/>
			<g>
				<circle fill="#FFFFFF" cx="230.236" cy="211.613" r="2.256"/>
			</g>
		</g>
	</g>
</g>
</svg>
