<?xml version="1.0" encoding="utf-8"?>
<!-- Generator: Adobe Illustrator 16.0.0, SVG Export Plug-In . SVG Version: 6.00 Build 0)  -->
<!DOCTYPE svg PUBLIC "-//W3C//DTD SVG 1.1//EN" "http://www.w3.org/Graphics/SVG/1.1/DTD/svg11.dtd">
<svg version="1.1" id="Capa_1" xmlns="http://www.w3.org/2000/svg" xmlns:xlink="http://www.w3.org/1999/xlink" x="0px" y="0px"
	 width="734.338px" height="413.176px" viewBox="0 0 734.338 413.176" enable-background="new 0 0 734.338 413.176"
	 xml:space="preserve">
<g>
	<g>
		<g>
			<g>
				<g>
					<path fill="#FFFFFF" d="M508.683,152.165l3.358,22.58h-6.001l-0.315-4.059h-2.1l-0.354,4.059h-6.07l2.995-22.58H508.683z
						 M505.571,166.684c-0.298-2.558-0.596-5.719-0.895-9.484c-0.599,4.324-0.974,7.485-1.127,9.484H505.571z"/>
					<path fill="#FFFFFF" d="M513.038,152.165h4.156c2.771,0,4.646,0.107,5.627,0.321c0.981,0.214,1.781,0.76,2.399,1.639
						c0.618,0.879,0.928,2.281,0.928,4.205c0,1.757-0.219,2.938-0.656,3.542c-0.437,0.604-1.297,0.967-2.58,1.088
						c1.162,0.289,1.943,0.674,2.344,1.158c0.399,0.483,0.648,0.927,0.746,1.332c0.098,0.404,0.146,1.518,0.146,3.34v5.955h-5.454
						v-7.503c0-1.208-0.095-1.957-0.285-2.246c-0.191-0.288-0.69-0.432-1.5-0.432v10.181h-5.871V152.165z M518.909,156.028v5.021
						c0.66,0,1.123-0.091,1.388-0.272c0.266-0.181,0.397-0.769,0.397-1.764v-1.241c0-0.716-0.128-1.186-0.383-1.409
						C520.056,156.14,519.588,156.028,518.909,156.028z"/>
					<path fill="#FFFFFF" d="M542.131,161.997h-5.871v-3.924c0-1.141-0.063-1.853-0.188-2.136c-0.126-0.283-0.402-0.425-0.83-0.425
						c-0.483,0-0.79,0.172-0.921,0.516c-0.13,0.344-0.194,1.088-0.194,2.231v10.488c0,1.097,0.064,1.813,0.194,2.148
						c0.131,0.334,0.424,0.502,0.879,0.502c0.438,0,0.723-0.167,0.858-0.503c0.134-0.335,0.202-1.123,0.202-2.363v-2.838h5.871v0.88
						c0,2.337-0.165,3.995-0.495,4.972s-1.06,1.834-2.189,2.57c-1.13,0.735-2.522,1.103-4.177,1.103
						c-1.721,0-3.139-0.312-4.254-0.935c-1.116-0.623-1.855-1.485-2.218-2.587c-0.362-1.102-0.544-2.759-0.544-4.972v-6.597
						c0-1.627,0.056-2.847,0.167-3.661c0.112-0.813,0.444-1.597,0.998-2.35c0.553-0.753,1.319-1.346,2.301-1.778
						c0.98-0.432,2.108-0.648,3.382-0.648c1.729,0,3.157,0.334,4.282,1.003s1.864,1.502,2.217,2.5
						c0.354,0.999,0.53,2.551,0.53,4.659V161.997z"/>
					<path fill="#FFFFFF" d="M557.737,152.165v22.58h-5.872v-9.484h-1.757v9.484h-5.872v-22.58h5.872v8.075h1.757v-8.075H557.737z"
						/>
					<path fill="#FFFFFF" d="M565.966,152.165v22.58h-5.872v-22.58H565.966z"/>
					<path fill="#FFFFFF" d="M568.323,152.165h5.913c1.6,0,2.829,0.125,3.689,0.377c0.859,0.251,1.506,0.613,1.938,1.087
						c0.433,0.475,0.726,1.049,0.879,1.723c0.153,0.674,0.229,1.718,0.229,3.131v1.967c0,1.441-0.148,2.492-0.446,3.152
						s-0.844,1.167-1.639,1.52c-0.795,0.354-1.834,0.53-3.117,0.53h-1.576v9.093h-5.871V152.165z M574.194,156.028v5.746
						c0.168,0.01,0.312,0.014,0.433,0.014c0.539,0,0.914-0.132,1.123-0.397s0.313-0.816,0.313-1.653v-1.855
						c0-0.771-0.121-1.273-0.362-1.506C575.459,156.145,574.957,156.028,574.194,156.028z"/>
					<path fill="#FFFFFF" d="M588.531,152.165v22.58h-5.871v-22.58H588.531z"/>
					<path fill="#FFFFFF" d="M590.889,152.165h9.791v4.519h-3.919v4.282h3.668v4.295h-3.668v4.965h4.31v4.519h-10.182V152.165z"/>
					<path fill="#FFFFFF" d="M608.629,152.165v18.062h3.571v4.519h-9.442v-22.58H608.629z"/>
					<path fill="#FFFFFF" d="M623.772,152.165l3.357,22.58h-6.001l-0.314-4.059h-2.101l-0.353,4.059h-6.07l2.994-22.58H623.772z
						 M620.66,166.684c-0.297-2.558-0.595-5.719-0.895-9.484c-0.598,4.324-0.974,7.485-1.126,9.484H620.66z"/>
					<path fill="#FFFFFF" d="M641.6,160.477h-5.872v-2.05c0-1.292-0.056-2.101-0.167-2.427c-0.111-0.325-0.377-0.488-0.795-0.488
						c-0.362,0-0.609,0.14-0.739,0.418c-0.13,0.279-0.195,0.995-0.195,2.148v10.837c0,1.013,0.065,1.68,0.195,2.001
						s0.391,0.481,0.781,0.481c0.428,0,0.718-0.181,0.871-0.544s0.23-1.069,0.23-2.12v-2.678h-1.186v-3.431h6.876v12.12h-3.689
						l-0.544-1.618c-0.399,0.697-0.904,1.22-1.514,1.569s-1.328,0.523-2.156,0.523c-0.986,0-1.91-0.239-2.771-0.718
						c-0.861-0.479-1.515-1.071-1.962-1.778c-0.446-0.707-0.726-1.448-0.837-2.224s-0.167-1.941-0.167-3.494v-6.708
						c0-2.157,0.115-3.724,0.349-4.7c0.231-0.977,0.899-1.871,2.001-2.685c1.102-0.813,2.526-1.22,4.274-1.22
						c1.721,0,3.147,0.354,4.282,1.06c1.134,0.707,1.873,1.546,2.217,2.518c0.345,0.972,0.517,2.382,0.517,4.233V160.477z"/>
					<path fill="#FFFFFF" d="M657.29,165.386c0,2.269-0.054,3.875-0.16,4.819c-0.107,0.944-0.442,1.806-1.005,2.587
						c-0.562,0.781-1.322,1.381-2.28,1.799s-2.073,0.627-3.347,0.627c-1.209,0-2.295-0.198-3.257-0.593
						c-0.963-0.395-1.736-0.988-2.322-1.778c-0.586-0.79-0.935-1.65-1.046-2.58c-0.111-0.93-0.167-2.557-0.167-4.881v-3.863
						c0-2.269,0.053-3.875,0.16-4.818c0.106-0.944,0.441-1.806,1.004-2.587c0.562-0.781,1.322-1.381,2.28-1.799
						c0.958-0.418,2.073-0.628,3.348-0.628c1.208,0,2.294,0.198,3.256,0.593c0.963,0.396,1.736,0.988,2.322,1.778
						c0.586,0.791,0.935,1.65,1.046,2.58c0.112,0.93,0.168,2.557,0.168,4.881V165.386z M651.418,157.967
						c0-1.051-0.058-1.723-0.174-2.016s-0.355-0.439-0.719-0.439c-0.307,0-0.542,0.119-0.704,0.356
						c-0.163,0.237-0.244,0.937-0.244,2.099v10.543c0,1.311,0.054,2.12,0.16,2.427c0.107,0.307,0.355,0.46,0.746,0.46
						c0.4,0,0.656-0.177,0.768-0.53c0.111-0.353,0.167-1.194,0.167-2.524V157.967z"/>
					<path fill="#FFFFFF" d="M498.533,186.44h4.394c2.835,0,4.753,0.13,5.753,0.391c0.999,0.26,1.759,0.688,2.28,1.283
						c0.521,0.595,0.846,1.258,0.976,1.987c0.131,0.73,0.195,2.164,0.195,4.303v7.908c0,2.027-0.095,3.382-0.285,4.065
						c-0.191,0.684-0.523,1.218-0.997,1.604c-0.475,0.386-1.061,0.656-1.758,0.809s-1.748,0.23-3.152,0.23h-7.405V186.44z
						 M504.404,190.304v14.854c0.847,0,1.367-0.169,1.562-0.509c0.195-0.339,0.293-1.262,0.293-2.768v-8.772
						c0-1.023-0.033-1.678-0.098-1.967c-0.065-0.288-0.214-0.5-0.446-0.635C505.483,190.372,505.046,190.304,504.404,190.304z"/>
					<path fill="#FFFFFF" d="M514.32,186.44h9.791v4.519h-3.919v4.282h3.668v4.295h-3.668v4.965h4.31v4.519H514.32V186.44z"/>
					<path fill="#FFFFFF" d="M543.665,193.274h-5.453v-1.673c0-0.781-0.069-1.278-0.209-1.493c-0.14-0.213-0.372-0.321-0.697-0.321
						c-0.354,0-0.621,0.145-0.803,0.433c-0.181,0.289-0.271,0.726-0.271,1.312c0,0.753,0.102,1.321,0.306,1.702
						c0.194,0.382,0.748,0.842,1.659,1.381c2.614,1.551,4.26,2.824,4.938,3.819c0.679,0.995,1.019,2.599,1.019,4.812
						c0,1.608-0.188,2.794-0.565,3.556c-0.376,0.763-1.104,1.402-2.183,1.918c-1.078,0.516-2.333,0.774-3.766,0.774
						c-1.571,0-2.912-0.297-4.023-0.893c-1.111-0.595-1.839-1.353-2.183-2.273s-0.516-2.227-0.516-3.919v-1.479h5.453v2.748
						c0,0.846,0.076,1.39,0.229,1.632c0.154,0.242,0.426,0.363,0.816,0.363s0.681-0.153,0.872-0.46
						c0.19-0.307,0.285-0.762,0.285-1.367c0-1.33-0.181-2.199-0.544-2.608c-0.372-0.409-1.288-1.093-2.747-2.05
						c-1.46-0.967-2.427-1.669-2.901-2.106c-0.474-0.437-0.867-1.041-1.179-1.813s-0.467-1.757-0.467-2.957
						c0-1.729,0.221-2.994,0.662-3.793c0.442-0.799,1.155-1.425,2.142-1.875c0.985-0.451,2.176-0.677,3.57-0.677
						c1.524,0,2.824,0.247,3.897,0.739c1.074,0.493,1.785,1.114,2.134,1.862c0.35,0.749,0.523,2.02,0.523,3.814V193.274z"/>
					<path fill="#FFFFFF" d="M556.144,186.44l3.358,22.58h-6.001l-0.315-4.059h-2.1l-0.354,4.059h-6.07l2.995-22.58H556.144z
						 M553.032,200.959c-0.298-2.558-0.596-5.719-0.895-9.484c-0.599,4.324-0.974,7.485-1.127,9.484H553.032z"/>
					<path fill="#FFFFFF" d="M573.609,186.44v22.58h-5.146l-3.055-10.265v10.265h-4.909v-22.58h4.909l3.291,10.167V186.44H573.609z"
						/>
					<path fill="#FFFFFF" d="M591.15,186.44l3.357,22.58h-6.001l-0.314-4.059h-2.101l-0.353,4.059h-6.07l2.994-22.58H591.15z
						 M588.038,200.959c-0.297-2.558-0.595-5.719-0.895-9.484c-0.598,4.324-0.974,7.485-1.126,9.484H588.038z"/>
					<path fill="#FFFFFF" d="M608.615,186.44v22.58h-5.146l-3.054-10.265v10.265h-4.91v-22.58h4.91l3.291,10.167V186.44H608.615z"/>
					<path fill="#FFFFFF" d="M610.973,186.44h4.394c2.835,0,4.753,0.13,5.753,0.391c0.999,0.26,1.759,0.688,2.28,1.283
						c0.521,0.595,0.846,1.258,0.976,1.987c0.131,0.73,0.195,2.164,0.195,4.303v7.908c0,2.027-0.095,3.382-0.285,4.065
						c-0.191,0.684-0.523,1.218-0.997,1.604c-0.475,0.386-1.061,0.656-1.758,0.809s-1.748,0.23-3.152,0.23h-7.405V186.44z
						 M616.844,190.304v14.854c0.847,0,1.367-0.169,1.562-0.509c0.195-0.339,0.293-1.262,0.293-2.768v-8.772
						c0-1.023-0.033-1.678-0.098-1.967c-0.065-0.288-0.214-0.5-0.446-0.635C617.923,190.372,617.485,190.304,616.844,190.304z"/>
					<path fill="#FFFFFF" d="M626.76,186.44h4.156c2.771,0,4.646,0.107,5.628,0.321c0.98,0.214,1.78,0.76,2.398,1.639
						c0.618,0.879,0.928,2.281,0.928,4.205c0,1.757-0.219,2.938-0.655,3.542c-0.438,0.604-1.297,0.967-2.58,1.088
						c1.162,0.289,1.943,0.674,2.343,1.158s0.648,0.927,0.746,1.332c0.098,0.404,0.146,1.518,0.146,3.34v5.955h-5.453v-7.503
						c0-1.208-0.096-1.957-0.286-2.246c-0.19-0.288-0.69-0.432-1.499-0.432v10.181h-5.872V186.44z M632.632,190.304v5.021
						c0.66,0,1.123-0.091,1.388-0.272s0.397-0.769,0.397-1.764v-1.241c0-0.716-0.128-1.186-0.384-1.409
						S633.311,190.304,632.632,190.304z"/>
					<path fill="#FFFFFF" d="M642.144,186.44h9.791v4.519h-3.92v4.282h3.668v4.295h-3.668v4.965h4.31v4.519h-10.181V186.44z
						 M651.669,181.95l-4.588,3.78h-2.832l2.455-3.78H651.669z"/>
					<path fill="#FFFFFF" d="M666.453,193.274h-5.454v-1.673c0-0.781-0.069-1.278-0.209-1.493c-0.14-0.213-0.372-0.321-0.697-0.321
						c-0.354,0-0.62,0.145-0.802,0.433s-0.272,0.726-0.272,1.312c0,0.753,0.103,1.321,0.307,1.702
						c0.194,0.382,0.747,0.842,1.659,1.381c2.613,1.551,4.26,2.824,4.938,3.819c0.679,0.995,1.018,2.599,1.018,4.812
						c0,1.608-0.188,2.794-0.564,3.556c-0.377,0.763-1.104,1.402-2.183,1.918c-1.079,0.516-2.334,0.774-3.766,0.774
						c-1.571,0-2.913-0.297-4.023-0.893c-1.111-0.595-1.839-1.353-2.183-2.273c-0.345-0.92-0.517-2.227-0.517-3.919v-1.479h5.453
						v2.748c0,0.846,0.077,1.39,0.23,1.632c0.153,0.242,0.426,0.363,0.815,0.363c0.391,0,0.682-0.153,0.872-0.46
						c0.19-0.307,0.286-0.762,0.286-1.367c0-1.33-0.182-2.199-0.544-2.608c-0.372-0.409-1.288-1.093-2.748-2.05
						c-1.46-0.967-2.427-1.669-2.9-2.106c-0.475-0.437-0.867-1.041-1.179-1.813s-0.467-1.757-0.467-2.957
						c0-1.729,0.221-2.994,0.662-3.793c0.441-0.799,1.155-1.425,2.141-1.875c0.985-0.451,2.176-0.677,3.57-0.677
						c1.525,0,2.824,0.247,3.898,0.739c1.074,0.493,1.785,1.114,2.134,1.862c0.349,0.749,0.523,2.02,0.523,3.814V193.274z"/>
				</g>
			</g>
		</g>
	</g>
	<g>
		<g>
			<path fill="#F2961C" d="M499.828,225.136v4.156h-1.68v-12.987h3.685c1.044,0.141,1.926,0.571,2.646,1.291
				c0.86,0.866,1.291,1.905,1.291,3.117c0,1.223-0.43,2.266-1.291,3.129c-0.86,0.863-1.899,1.295-3.117,1.295H499.828z
				 M499.828,217.993v5.455h1.534c0.747,0,1.387-0.267,1.92-0.799c0.533-0.533,0.799-1.178,0.799-1.936
				c0-0.752-0.267-1.393-0.799-1.924c-0.533-0.53-1.173-0.795-1.92-0.795H499.828z"/>
			<path fill="#F2961C" d="M514.057,226.427l1.68,0.601c-0.412,0.568-0.709,0.944-0.893,1.128c-0.904,0.904-1.994,1.355-3.271,1.355
				c-1.272,0-2.359-0.452-3.263-1.355s-1.355-1.994-1.355-3.271c0-1.277,0.452-2.368,1.355-3.271
				c0.904-0.903,1.991-1.355,3.263-1.355c1.277,0,2.367,0.452,3.271,1.355c0.184,0.184,0.481,0.555,0.893,1.112l-1.68,0.617
				c-0.217-0.265-0.363-0.436-0.438-0.511c-0.563-0.563-1.245-0.844-2.045-0.844c-0.795,0-1.476,0.283-2.042,0.848
				s-0.848,1.249-0.848,2.05c0,0.795,0.283,1.476,0.848,2.041s1.246,0.848,2.042,0.848c0.801,0,1.485-0.281,2.054-0.844
				C513.697,226.854,513.84,226.687,514.057,226.427z"/>
			<path fill="#F2961C" d="M518.918,216.305c2.11,0.011,3.755,0.608,4.935,1.793c1.293,1.304,1.94,2.871,1.94,4.7
				c0,1.834-0.646,3.401-1.94,4.7c-1.18,1.185-2.825,1.783-4.935,1.794h-1.233v-12.987H518.918z M519.365,218.018v9.57
				c1.336,0,2.432-0.43,3.287-1.291c0.963-0.963,1.445-2.129,1.445-3.499c0-1.363-0.482-2.529-1.445-3.498
				C521.797,218.445,520.702,218.018,519.365,218.018z"/>
			<path fill="#F2961C" d="M539.609,216.305v12.987h-1.68v-10.795h-1.242l1.705-2.191H539.609z"/>
			<path fill="#F2961C" d="M546.764,227.385c0.23,0.227,0.345,0.503,0.345,0.828c0,0.335-0.115,0.617-0.345,0.844
				c-0.23,0.227-0.507,0.341-0.832,0.341c-0.319,0-0.595-0.114-0.828-0.341c-0.232-0.228-0.349-0.509-0.349-0.844
				c0-0.325,0.117-0.601,0.349-0.828c0.233-0.228,0.509-0.341,0.828-0.341C546.256,227.043,546.533,227.157,546.764,227.385z"/>
			<path fill="#F2961C" d="M551.265,221.281c0.481-0.52,1.28-0.779,2.395-0.779c1.12,0,2.051,0.371,2.792,1.112
				c0.898,0.904,1.348,1.994,1.348,3.271c0,1.271-0.449,2.358-1.348,3.259s-1.986,1.352-3.263,1.352
				c-1.272,0-2.359-0.449-3.263-1.348c-0.866-0.871-1.301-2.081-1.307-3.628v-0.024c0-1.532,0.414-2.879,1.242-4.042
				c0.833-1.169,1.959-2.551,3.376-4.147h2.208C553.48,218.34,552.087,219.998,551.265,221.281z M550.291,224.885
				c0,0.801,0.283,1.482,0.848,2.045c0.565,0.562,1.249,0.844,2.05,0.844c0.795,0,1.476-0.281,2.041-0.844
				c0.565-0.563,0.848-1.245,0.848-2.045s-0.283-1.483-0.848-2.046c-0.565-0.562-1.246-0.844-2.041-0.844
				c-0.801,0-1.484,0.281-2.05,0.844C550.573,223.402,550.291,224.084,550.291,224.885z"/>
			<path fill="#F2961C" d="M568.245,224.885c0,1.271-0.45,2.358-1.352,3.259c-0.901,0.901-1.99,1.352-3.267,1.352
				c-1.271,0-2.358-0.451-3.259-1.352s-1.352-1.987-1.352-3.259v-3.969c0-1.271,0.451-2.358,1.352-3.259
				c0.901-0.901,1.987-1.351,3.259-1.351c1.277,0,2.366,0.45,3.267,1.351c0.901,0.901,1.352,1.988,1.352,3.259V224.885z
				 M566.524,220.916c0-0.795-0.283-1.475-0.848-2.038c-0.565-0.562-1.249-0.844-2.05-0.844c-0.795,0-1.476,0.282-2.041,0.844
				c-0.566,0.563-0.848,1.242-0.848,2.038v3.969c0,0.801,0.282,1.482,0.848,2.045c0.565,0.562,1.246,0.844,2.041,0.844
				c0.801,0,1.484-0.281,2.05-0.844c0.565-0.563,0.848-1.245,0.848-2.045V220.916z"/>
			<path fill="#F2961C" d="M572.206,221.281c0.481-0.52,1.28-0.779,2.395-0.779c1.12,0,2.051,0.371,2.792,1.112
				c0.898,0.904,1.348,1.994,1.348,3.271c0,1.271-0.449,2.358-1.348,3.259s-1.986,1.352-3.263,1.352
				c-1.272,0-2.359-0.449-3.263-1.348c-0.866-0.871-1.301-2.081-1.307-3.628v-0.024c0-1.532,0.414-2.879,1.242-4.042
				c0.833-1.169,1.959-2.551,3.376-4.147h2.208C574.422,218.34,573.028,219.998,572.206,221.281z M571.232,224.885
				c0,0.801,0.283,1.482,0.848,2.045c0.565,0.562,1.249,0.844,2.05,0.844c0.795,0,1.476-0.281,2.041-0.844
				c0.565-0.563,0.848-1.245,0.848-2.045s-0.283-1.483-0.848-2.046c-0.565-0.562-1.246-0.844-2.041-0.844
				c-0.801,0-1.484,0.281-2.05,0.844C571.515,223.402,571.232,224.084,571.232,224.885z"/>
			<path fill="#27515D" d="M504.535,238.058l5.949,16.354h-2.249l-2.105-5.785h-4.334l-2.095,5.785h-2.259l5.949-16.354H504.535z
				 M505.363,246.511l-1.4-3.833l-1.39,3.833H505.363z"/>
			<path fill="#27515D" d="M516.575,249.178h-1.932v5.233h-2.116v-16.354h4.641c1.315,0.177,2.426,0.719,3.332,1.625
				c1.083,1.09,1.625,2.399,1.625,3.925c0,1.54-0.542,2.855-1.625,3.945c-0.75,0.75-1.322,1.172-1.717,1.268l3.628,5.591h-2.565
				L516.575,249.178z M514.644,240.184v6.869h1.932c0.94,0,1.746-0.335,2.417-1.007c0.671-0.671,1.007-1.483,1.007-2.438
				c0-0.947-0.335-1.755-1.007-2.422c-0.671-0.668-1.477-1.002-2.417-1.002H514.644z"/>
			<path fill="#27515D" d="M537.151,250.517l1.584,1.421c-1.936,1.765-3.983,2.647-6.143,2.647c-2.31,0-4.279-0.814-5.908-2.443
				c-1.629-1.628-2.443-3.598-2.443-5.908c0-2.303,0.814-4.272,2.443-5.908c1.628-1.635,3.598-2.453,5.908-2.453
				c2.16,0,4.208,0.883,6.143,2.647l-1.584,1.441c-1.458-1.294-2.978-1.942-4.559-1.942c-1.71,0-3.174,0.606-4.39,1.819
				s-1.824,2.678-1.824,4.395c0,1.724,0.608,3.193,1.824,4.406s2.68,1.819,4.39,1.819
				C534.173,252.459,535.693,251.812,537.151,250.517z"/>
			<path fill="#27515D" d="M543.396,247.645v6.767h-2.116v-16.354h2.116v7.472h5.049v-7.472h2.116v16.354h-2.116v-6.767H543.396z"/>
			<path fill="#27515D" d="M555.948,238.058v16.354h-2.116v-16.354H555.948z"/>
			<path fill="#27515D" d="M561.344,249.178v5.233h-2.116v-16.354h4.641c1.315,0.177,2.426,0.719,3.332,1.625
				c1.083,1.09,1.625,2.399,1.625,3.925c0,1.54-0.542,2.854-1.625,3.94c-1.083,1.087-2.392,1.63-3.925,1.63H561.344z
				 M561.344,240.184v6.869h1.932c0.94,0,1.746-0.335,2.417-1.007c0.671-0.671,1.007-1.483,1.007-2.438
				c0-0.947-0.335-1.755-1.007-2.422c-0.671-0.668-1.477-1.002-2.417-1.002H561.344z"/>
			<path fill="#27515D" d="M573.252,238.058v16.354h-2.116v-16.354H573.252z"/>
			<path fill="#27515D" d="M576.533,254.412v-16.354h2.116v14.228h5.847v2.126H576.533z"/>
			<path fill="#27515D" d="M593.02,238.058l5.949,16.354h-2.249l-2.105-5.785h-4.334l-2.095,5.785h-2.259l5.949-16.354H593.02z
				 M593.848,246.511l-1.4-3.833l-1.39,3.833H593.848z"/>
			<path fill="#27515D" d="M614.475,252.173c-1.683,1.608-3.608,2.412-5.775,2.412c-2.31,0-4.279-0.814-5.908-2.443
				c-1.629-1.628-2.443-3.598-2.443-5.908c0-2.303,0.814-4.272,2.443-5.908c1.628-1.635,3.598-2.453,5.908-2.453
				c2.16,0,4.208,0.883,6.143,2.647l-1.584,1.441c-1.458-1.294-2.978-1.942-4.559-1.942c-1.71,0-3.174,0.606-4.39,1.819
				s-1.824,2.678-1.824,4.395c0,1.724,0.608,3.193,1.824,4.406s2.68,1.819,4.39,1.819c1.472,0,2.691-0.389,3.659-1.166v-4.937h2.116
				V252.173z"/>
			<path fill="#27515D" d="M631.687,240.296c1.635,1.636,2.453,3.608,2.453,5.918s-0.818,4.283-2.453,5.918
				s-3.608,2.453-5.918,2.453s-4.283-0.818-5.918-2.453c-1.636-1.635-2.453-3.608-2.453-5.918s0.817-4.283,2.453-5.918
				c1.635-1.635,3.608-2.453,5.918-2.453S630.052,238.661,631.687,240.296z M625.769,239.979c-1.724,0-3.194,0.608-4.411,1.825
				s-1.824,2.687-1.824,4.411c0,1.724,0.609,3.196,1.83,4.416c1.22,1.22,2.688,1.83,4.405,1.83c1.724,0,3.194-0.61,4.411-1.83
				c1.216-1.22,1.824-2.692,1.824-4.416c0-1.724-0.608-3.194-1.824-4.411C628.963,240.587,627.493,239.979,625.769,239.979z"/>
			<path fill="#27515D" d="M645.751,238.058c2.657,0.014,4.729,0.767,6.214,2.259c1.628,1.643,2.443,3.615,2.443,5.918
				c0,2.31-0.814,4.283-2.443,5.918c-1.485,1.492-3.557,2.245-6.214,2.259h-1.554v-16.354H645.751z M646.313,240.214v12.051
				c1.683,0,3.063-0.542,4.14-1.625c1.213-1.213,1.819-2.682,1.819-4.406c0-1.717-0.606-3.185-1.819-4.405
				C649.376,240.752,647.997,240.214,646.313,240.214z"/>
			<path fill="#27515D" d="M665.785,238.058v2.116h-6.695v4.998h6.695v2.116h-6.695v4.998h6.695v2.126h-8.811v-16.354H665.785z"/>
			<path fill="#27515D" d="M502.624,271.14c-1.159-0.389-2.097-0.942-2.816-1.661c-0.719-0.719-1.079-1.61-1.079-2.673
				c0-1.042,0.373-1.938,1.119-2.688c0.747-0.75,1.651-1.125,2.714-1.125c1.049,0,1.949,0.372,2.699,1.114
				c0.422,0.409,0.776,1.06,1.063,1.952l-1.922,0.756c-0.231-0.627-0.443-1.036-0.634-1.227c-0.334-0.327-0.736-0.491-1.206-0.491
				c-0.477,0-0.882,0.166-1.216,0.496s-0.501,0.734-0.501,1.211c0,0.477,0.167,0.883,0.501,1.216
				c0.375,0.368,0.893,0.706,1.554,1.012c1.281,0.416,2.368,1.07,3.261,1.962c1.001,0.988,1.502,2.188,1.502,3.598
				c0,1.411-0.5,2.615-1.498,3.613c-0.998,0.999-2.199,1.498-3.603,1.498c-1.411,0-2.613-0.501-3.608-1.502
				c-0.797-0.797-1.302-1.898-1.513-3.302l2.054-0.746c0.129,1.206,0.446,2.062,0.951,2.565c0.586,0.586,1.291,0.879,2.116,0.879
				s1.53-0.293,2.116-0.879c0.586-0.586,0.879-1.294,0.879-2.126c0-0.824-0.293-1.529-0.879-2.116
				C504.119,271.92,503.434,271.474,502.624,271.14z"/>
			<path fill="#27515D" d="M515.788,263.178l5.949,16.354h-2.249l-2.105-5.785h-4.334l-2.095,5.785h-2.259l5.949-16.354H515.788z
				 M516.616,271.631l-1.4-3.833l-1.39,3.833H516.616z"/>
			<path fill="#27515D" d="M523.781,263.178h1.932l6.746,11.673v-11.673h2.126v16.354h-1.85l-6.838-11.816v11.816h-2.116V263.178z"
				/>
			<path fill="#27515D" d="M550.755,263.178l5.949,16.354h-2.249l-2.105-5.785h-4.334l-2.095,5.785h-2.259l5.949-16.354H550.755z
				 M551.583,271.631l-1.4-3.833l-1.39,3.833H551.583z"/>
			<path fill="#27515D" d="M560.302,263.178c2.657,0.014,4.729,0.767,6.214,2.259c1.628,1.643,2.443,3.615,2.443,5.918
				c0,2.31-0.814,4.283-2.443,5.918c-1.485,1.492-3.557,2.245-6.214,2.259h-1.554v-16.354H560.302z M560.864,265.334v12.051
				c1.683,0,3.063-0.542,4.14-1.625c1.213-1.213,1.819-2.682,1.819-4.406c0-1.717-0.606-3.185-1.819-4.405
				C563.927,265.873,562.547,265.334,560.864,265.334z"/>
			<path fill="#27515D" d="M575.572,274.298h-1.932v5.233h-2.116v-16.354h4.641c1.315,0.177,2.426,0.719,3.332,1.625
				c1.083,1.09,1.625,2.399,1.625,3.925c0,1.54-0.542,2.855-1.625,3.945c-0.75,0.75-1.322,1.172-1.717,1.268l3.628,5.591h-2.565
				L575.572,274.298z M573.641,265.304v6.869h1.932c0.94,0,1.746-0.335,2.417-1.007c0.671-0.671,1.007-1.483,1.007-2.438
				c0-0.947-0.335-1.755-1.007-2.422c-0.671-0.668-1.477-1.002-2.417-1.002H573.641z"/>
			<path fill="#27515D" d="M592.305,263.178v2.116h-6.695v4.998h6.695v2.116h-6.695v4.998h6.695v2.126h-8.811v-16.354H592.305z
				 M588.523,259.314h2.576l-2.78,2.852h-2.013L588.523,259.314z"/>
			<path fill="#27515D" d="M599.276,271.14c-1.159-0.389-2.097-0.942-2.816-1.661c-0.719-0.719-1.079-1.61-1.079-2.673
				c0-1.042,0.373-1.938,1.119-2.688c0.747-0.75,1.651-1.125,2.714-1.125c1.049,0,1.949,0.372,2.699,1.114
				c0.422,0.409,0.776,1.06,1.063,1.952l-1.922,0.756c-0.231-0.627-0.443-1.036-0.634-1.227c-0.334-0.327-0.736-0.491-1.206-0.491
				c-0.477,0-0.882,0.166-1.216,0.496s-0.501,0.734-0.501,1.211c0,0.477,0.167,0.883,0.501,1.216
				c0.375,0.368,0.893,0.706,1.554,1.012c1.281,0.416,2.368,1.07,3.261,1.962c1.001,0.988,1.502,2.188,1.502,3.598
				c0,1.411-0.5,2.615-1.498,3.613c-0.998,0.999-2.199,1.498-3.603,1.498c-1.411,0-2.613-0.501-3.608-1.502
				c-0.797-0.797-1.302-1.898-1.513-3.302l2.054-0.746c0.129,1.206,0.446,2.062,0.951,2.565c0.586,0.586,1.291,0.879,2.116,0.879
				s1.53-0.293,2.116-0.879c0.586-0.586,0.879-1.294,0.879-2.126c0-0.824-0.293-1.529-0.879-2.116
				C600.771,271.92,600.086,271.474,599.276,271.14z"/>
		</g>
	</g>
	<g>
		<g>
			<polyline fill="none" stroke="#FFFFFF" stroke-width="2" points="163.972,56.063 164.097,45.552 407.064,45.153 407.064,185.55 
				487.656,185.55 			"/>
			<g>
				<circle fill="#FFFFFF" cx="163.973" cy="55.95" r="2.256"/>
			</g>
		</g>
	</g>
</g>
</svg>
