<?xml version="1.0" encoding="utf-8"?>
<!-- Generator: Adobe Illustrator 16.0.0, SVG Export Plug-In . SVG Version: 6.00 Build 0)  -->
<!DOCTYPE svg PUBLIC "-//W3C//DTD SVG 1.1//EN" "http://www.w3.org/Graphics/SVG/1.1/DTD/svg11.dtd">
<svg version="1.1" id="Capa_1" xmlns="http://www.w3.org/2000/svg" xmlns:xlink="http://www.w3.org/1999/xlink" x="0px" y="0px"
	 width="734.338px" height="413.177px" viewBox="0 0 734.338 413.177" enable-background="new 0 0 734.338 413.177"
	 xml:space="preserve">
<g>
	<g>
		<g>
			<path fill="#F39200" d="M225.602,44.167l0.957,0.89l0.537,0.641c0.008,0.011,0.016,0.022,0.021,0.034l0.174,0.348
				c0.008,0.014,0.012,0.031,0.016,0.047l0.167,0.938l0.175,0.263l0.262,0.228c0.008,0.008,0.018,0.018,0.024,0.027l0.209,0.278
				c0.013,0.019,0.024,0.041,0.029,0.064l0.104,0.452c0.006,0.026,0.006,0.054,0,0.08l-0.104,0.417l-0.21,0.462l-0.096,0.509
				l0.029,0.233l0.445,1.27c0.006,0.018,0.01,0.037,0.01,0.055v0.487l-0.175,2.029l0.07,1.505l-0.07,0.553
				c-0.004,0.022-0.011,0.043-0.021,0.062l-0.45,0.799c-0.015,0.022-0.032,0.043-0.054,0.058l-1.317,0.912l-0.385,0.802
				l-0.135,1.049L225.67,60.2c-0.004,0.019-0.012,0.037-0.022,0.053l-0.278,0.416l-0.381,0.452l-1.371,2.71l-0.168,0.807
				l-0.312,0.774l-0.064,0.474l0.092,0.579l0.211,0.211l0.346,0.126c0.015,0.005,0.028,0.012,0.04,0.02l0.436,0.303l0.155,0.062
				l0.664,0.13c0.03,0.006,0.057,0.02,0.08,0.039l0.277,0.244c0.01,0.008,0.018,0.017,0.025,0.025l0.209,0.279
				c0.008,0.01,0.016,0.022,0.021,0.035l0.328,0.728l0.292,0.161c0.029,0.018,0.055,0.044,0.07,0.075l0.104,0.208
				c0.016,0.029,0.022,0.063,0.018,0.097l-0.068,0.626c-0.002,0.016-0.007,0.031-0.012,0.045l-0.139,0.348
				c-0.013,0.029-0.033,0.055-0.057,0.074l-0.278,0.208l-0.86,0.435l-0.182,0.131l-0.107,0.242l-0.031,0.489v1.082l0.094,0.449
				l0.202,0.435l0.183,0.271l0.783,0.715c0.021,0.02,0.039,0.045,0.048,0.073l0.14,0.417c0.01,0.03,0.012,0.062,0.005,0.092
				l-0.104,0.486l-0.179,0.539l-0.093,0.404l0.061,0.42l0.176,0.294l0.605,0.539c0.01,0.008,0.019,0.017,0.026,0.026l0.277,0.383
				c0.016,0.021,0.026,0.046,0.031,0.071l0.068,0.382c0.005,0.027,0.004,0.055-0.005,0.08l-0.276,0.938l-0.339,2.071l0.107,0.705
				l0.524-0.079c0.06-0.008,0.122,0.015,0.16,0.061l0.173,0.209l0.369,0.51l0.178-0.098l0.342-0.118
				c0.018-0.006,0.037-0.009,0.055-0.009h0.313c0.032,0,0.063,0.009,0.092,0.025l0.276,0.175c0.024,0.015,0.043,0.034,0.059,0.058
				l0.104,0.174c0.008,0.012,0.014,0.025,0.018,0.039l0.096,0.317l0.049,0.065l0.058,0.015h0.292c0.019,0,0.037,0.003,0.055,0.009
				l0.104,0.035l0.41,0.221c0.016,0.008,0.027,0.018,0.041,0.029l0.174,0.174c0.016,0.016,0.029,0.037,0.037,0.059l0.07,0.173
				c0.006,0.015,0.01,0.03,0.012,0.046l0.029,0.271l0.24,0.361l0.189,0.157l0.716,0.476c0.011,0.007,0.021,0.017,0.031,0.026
				l0.382,0.417c0.018,0.021,0.032,0.046,0.039,0.071l0.201,0.737l0.109,0.165l0.161,0.134l0.185,0.052h0.146h0.001l0.087-0.088
				l0.225-0.324c0.014-0.021,0.035-0.039,0.059-0.052l0.382-0.209c0.021-0.012,0.044-0.019,0.067-0.021l0.383-0.035l0.795,0.07
				c0.049,0.004,0.094,0.029,0.123,0.068l0.104,0.139c0.014,0.018,0.023,0.037,0.028,0.059l0.174,0.624l0.062,0.122l0.196,0.086
				l0.122-0.041l0.189-0.126c0.014-0.01,0.031-0.018,0.049-0.022l0.243-0.069c0.019-0.005,0.04-0.007,0.061-0.006l0.452,0.034
				c0.014,0.002,0.027,0.005,0.041,0.009l0.521,0.174l0.479,0.255c0.023,0.013,0.043,0.03,0.059,0.052l0.175,0.243
				c0.019,0.027,0.03,0.059,0.032,0.092l0.031,0.603l0.087,0.104l0.826,0.031c0.032,0.002,0.063,0.012,0.09,0.03l0.417,0.276
				c0.02,0.015,0.037,0.031,0.049,0.051l0.626,0.973l0.317,0.413l0.943,0.539c0.01,0.005,0.02,0.013,0.027,0.021l0.312,0.277
				c0.039,0.035,0.061,0.086,0.059,0.139c-0.002,0.051-0.027,0.1-0.068,0.131l-0.035,0.026l0.381,0.161l0.744,0.191l0.619-0.059
				l0.336-0.488c0.029-0.043,0.076-0.07,0.127-0.074c0.055-0.006,0.102,0.014,0.139,0.049l0.244,0.244l0.295,0.229
				c0.012,0.01,0.023,0.021,0.033,0.033l0.209,0.277c0.035,0.047,0.045,0.108,0.023,0.164l-0.088,0.242l0.6,0.326l1.904,0.102
				c0.021,0.001,0.041,0.006,0.059,0.014l0.66,0.277c0.088,0.037,0.131,0.137,0.094,0.225l-0.264,0.66l0.031,0.625l0.08,0.18
				l0.486-1.513c0.004-0.012,0.008-0.023,0.016-0.034l0.242-0.417l0.23-0.664c0.004-0.013,0.01-0.022,0.016-0.034l0.494-0.804
				l-0.521-0.704l-0.678-0.676c-0.008-0.008-0.016-0.018-0.023-0.028l-0.312-0.486c-0.01-0.018-0.02-0.037-0.023-0.058l-0.104-0.486
				l-0.035-0.424l-0.021-0.029h-0.088l-0.365,0.033c-0.016,0.002-0.033,0.002-0.049-0.001l-0.902-0.174
				c-0.014-0.003-0.025-0.007-0.039-0.013l-0.312-0.139c-0.033-0.016-0.062-0.041-0.082-0.074l-0.172-0.312
				c-0.016-0.026-0.021-0.055-0.021-0.084V88.19l0,0c0-0.035,0.01-0.07,0.031-0.1l0.211-0.303v-0.223l-0.031-0.18l-0.068-0.809
				l-0.072-0.121l-0.123-0.123l-0.406-0.337c-0.018-0.015-0.033-0.034-0.045-0.056l-0.242-0.486
				c-0.01-0.019-0.016-0.039-0.018-0.061l-0.133-1.254l-0.354-0.324l-0.469-0.269c-0.012-0.006-0.023-0.015-0.033-0.023
				l-0.994-0.925l-1.27-0.756c-0.049-0.029-0.082-0.083-0.084-0.143c-0.002-0.059,0.025-0.114,0.074-0.148l0.676-0.474l1.096-1.302
				c0.014-0.016,0.029-0.029,0.047-0.039l0.416-0.243l0.371-0.15c0.014-0.005,0.027-0.009,0.041-0.011l0.521-0.068
				c0.018-0.003,0.035-0.003,0.055,0.001l0.381,0.069l0.262,0.073l0.35,0.028l0.191,0.037c0.027,0.006,0.051,0.018,0.072,0.033
				l0.312,0.243l0.141,0.068h0.83l0.408,0.031l0.127-0.076l0.977-0.558c0.016-0.01,0.033-0.017,0.053-0.02l0.174-0.034
				c0.037-0.008,0.076-0.003,0.111,0.015l0.139,0.069c0.027,0.013,0.051,0.034,0.066,0.059l0.145,0.218l0.176-0.224l-0.734-2.169
				l-0.578-1.086c-0.023-0.043-0.027-0.095-0.01-0.141l0.123-0.343l-0.09-0.695l-0.961-0.896l-0.227-0.159
				c-0.014-0.01-0.027-0.022-0.039-0.038l-1.354-1.841l-0.359-0.321l-0.33-0.23l-0.283-0.123c-0.027-0.012-0.051-0.029-0.068-0.051
				l-0.242-0.312l-0.635-0.986l-0.734-1.293c-0.008-0.014-0.014-0.028-0.018-0.045l-0.07-0.276
				c-0.002-0.015-0.004-0.028-0.004-0.043v-0.347l0,0c0-0.017,0.002-0.033,0.006-0.049l0.277-1.004l0.135-1.088
				c0.004-0.03,0.016-0.059,0.033-0.082l0.406-0.543l0.234-0.504c0.01-0.019,0.021-0.035,0.035-0.05l0.244-0.243l0.326-0.494
				l0.734-0.773l0.199-0.332l0.404-1.02c0.01-0.021,0.023-0.039,0.037-0.055l0.453-0.453l0.32-0.283
				c0.018-0.017,0.037-0.029,0.061-0.035l0.312-0.105l0.852-0.178l0.293-0.1c0.018-0.006,0.037-0.01,0.055-0.01h0.209
				c0.016,0,0.031,0.002,0.047,0.007l0.359,0.098h0.193l0.852-0.261l0.811-0.576c0.02-0.012,0.041-0.021,0.062-0.027l0.295-0.065
				l0.33-0.149l0.287-0.352c0.018-0.021,0.041-0.037,0.066-0.049l0.242-0.104c0.016-0.006,0.031-0.011,0.047-0.013l0.543-0.064
				l0.1-0.079l0.227-0.549c0.018-0.043,0.053-0.077,0.096-0.095l0.174-0.069l0.672-0.213l0.494-0.218l0.104-0.146l-0.014-0.09
				l-0.123-0.148l-0.217-0.123c-0.014-0.008-0.025-0.018-0.037-0.029l-0.104-0.104c-0.02-0.02-0.033-0.043-0.043-0.068l-0.068-0.208
				c-0.01-0.028-0.012-0.06-0.006-0.089l0.07-0.348l-0.004-0.348l-0.137-0.842l-0.1-0.324l-0.199-0.43
				c-0.023-0.049-0.021-0.105,0.004-0.153l0.625-1.181c0.008-0.016,0.02-0.03,0.031-0.043l0.242-0.242l0.283-0.4l-0.041-0.195
				l-0.193-0.219l-0.299-0.149l-0.398-0.1l-0.322-0.03l-0.312,0.035c-0.033,0.002-0.066-0.003-0.096-0.018l-0.207-0.104
				c-0.082-0.04-0.119-0.136-0.084-0.22l0.139-0.348c0.004-0.011,0.01-0.022,0.016-0.031l0.742-1.113l0.025-0.201l-0.477-1.703
				l-0.145-0.995l-0.09-0.264l-0.268-0.435c-0.012-0.018-0.018-0.037-0.023-0.057l-0.033-0.175l-0.004-0.276
				c0-0.014,0.002-0.027,0.004-0.04l0.139-0.591l0.137-0.345l0.068-1.223l0.035-0.29l-0.002-0.256l-0.064-0.314
				c-0.008-0.041-0.002-0.083,0.02-0.119l0.139-0.244c0.021-0.039,0.059-0.066,0.1-0.08l0.307-0.091l0.072-0.073l0.297-0.398
				c0.014-0.018,0.029-0.032,0.047-0.043l0.236-0.148l0.082-0.164l0.432-1.297l-0.051-0.467h-0.467l-2.627,0.208l-2.84-0.209
				c-0.014-0.001-0.027-0.003-0.039-0.007l-0.904-0.278c-0.012-0.003-0.025-0.01-0.035-0.016l-0.742-0.438l-1.051-0.237
				l-0.199-0.077c-0.02-0.008-0.037-0.02-0.053-0.033l-0.416-0.383l-0.35-0.252l-0.41-0.157l-0.529-0.062l-0.279,0.101l-0.021,0.104
				c-0.016,0.081-0.088,0.14-0.17,0.14h-0.174c-0.047,0-0.09-0.02-0.123-0.051l-0.037-0.039l-0.102,0.202
				c-0.018,0.032-0.043,0.061-0.076,0.077l-0.209,0.104c-0.043,0.021-0.094,0.025-0.139,0.008l-0.279-0.104
				c-0.041-0.016-0.074-0.047-0.094-0.085l-0.057-0.114c-0.014,0.08-0.086,0.141-0.17,0.141h-0.174c-0.035,0-0.068-0.01-0.098-0.029
				l-0.211,0.303c-0.037,0.051-0.098,0.081-0.162,0.072c-0.051-0.006-0.094-0.032-0.123-0.071c-0.006,0.04-0.029,0.077-0.061,0.104
				l-0.174,0.139c-0.043,0.033-0.098,0.046-0.15,0.033l-0.26-0.064h-0.255l-0.243,0.46v0.199c0,0.046-0.019,0.091-0.051,0.123
				l-0.312,0.313l-0.407,0.6l-0.021,0.152l0.08,0.079c0.038,0.037,0.057,0.091,0.049,0.144l-0.034,0.279
				c-0.005,0.037-0.021,0.073-0.05,0.1l-0.205,0.207l0.041,0.145l0.197,0.387l0.081,0.273c0.007,0.023,0.009,0.048,0.005,0.072
				l-0.035,0.242c-0.001,0.013-0.004,0.024-0.008,0.035l-0.129,0.354v0.22l0.05,0.15l0.327,0.392
				c0.016,0.02,0.028,0.044,0.035,0.069l0.068,0.278c0.01,0.035,0.006,0.072-0.008,0.105l-0.068,0.174
				c-0.004,0.012-0.012,0.022-0.017,0.033l-1.46,2.154l-0.221,0.477l-0.169,0.882c-0.003,0.017-0.009,0.031-0.017,0.046
				l-0.068,0.139c-0.006,0.012-0.013,0.022-0.021,0.032l-0.3,0.364l-0.356,0.779v0.796c0,0.029-0.007,0.059-0.022,0.084l-0.68,1.225
				l-0.029,0.179c-0.008,0.048-0.035,0.09-0.074,0.116l-0.104,0.069l-0.426,0.43c-0.013,0.014-0.028,0.025-0.045,0.033l-0.208,0.104
				c-0.014,0.008-0.027,0.013-0.044,0.016l-0.173,0.034l-0.961,0.073c-0.016,0-0.03,0-0.047-0.004l-0.347-0.069
				c-0.042-0.008-0.079-0.031-0.104-0.065l-0.209-0.278c-0.018-0.025-0.031-0.057-0.034-0.088l-0.103-1.128l-0.12-0.395
				l-0.248-0.246l-0.126-0.029v0.002c0.014,0.054,0.002,0.109-0.032,0.151l-0.292,0.389l-0.082,0.243l0.056,0.275l0.084,0.146
				l0.066,0.012l0.188-0.108c0.061-0.035,0.137-0.03,0.192,0.012s0.08,0.112,0.063,0.181l-0.104,0.417
				c-0.01,0.039-0.032,0.073-0.065,0.097l-0.277,0.208c-0.029,0.022-0.066,0.034-0.104,0.034h-0.383
				c-0.021,0-0.045-0.004-0.064-0.012l-0.348-0.139c-0.062-0.025-0.105-0.086-0.108-0.154l-0.034-0.904l0.009-0.075h-0.044
				c-0.032,0-0.063-0.009-0.09-0.024l-0.173-0.105c-0.028-0.016-0.052-0.041-0.066-0.07l-0.021-0.044l-0.071,0.286l-0.145,0.399
				c-0.018,0.05-0.058,0.089-0.109,0.105l-0.312,0.104c-0.07,0.021-0.146,0-0.19-0.057l-0.139-0.174
				c-0.021-0.026-0.034-0.058-0.038-0.092l-0.034-0.347l-0.001-0.747c0-0.013,0.001-0.025,0.004-0.037l0.069-0.313l0.143-0.495
				l0.182-0.407c0.014-0.032,0.039-0.059,0.068-0.077l0.174-0.104c0.051-0.031,0.113-0.033,0.166-0.007l0.312,0.155h0.515
				c0.052,0,0.101,0.022,0.134,0.062l0.043,0.053l0.109-0.125c0.061-0.07,0.164-0.08,0.238-0.023l0.406,0.338l-0.219-0.436
				l-0.283-0.707c-0.015-0.039-0.018-0.081-0.004-0.12l0.105-0.313c0.014-0.043,0.045-0.079,0.088-0.1l0.111-0.057V47.13
				l-0.033-0.258c-0.003-0.025-0.002-0.051,0.008-0.076l0.07-0.208c0.016-0.05,0.053-0.089,0.102-0.108l0.24-0.09l-0.656-0.097
				l-1.16-0.28l-1.753-0.596l-2.269-0.941l-1.76-0.586l-0.489-0.257l0.049,0.269L225.602,44.167z"/>
		</g>
	</g>
	<g>
		<g>
			<g>
				<g>
					<path fill="#FFFFFF" d="M520.104,175.865v28.459h-6.469l-0.009-19.213l-2.575,19.213h-4.588l-2.716-18.773l-0.009,18.773
						h-6.469v-28.459h9.575c0.285,1.711,0.577,3.728,0.879,6.05l1.051,7.239l1.701-13.289H520.104z"/>
					<path fill="#FFFFFF" d="M535.867,175.865l4.232,28.459h-7.562l-0.397-5.115h-2.647l-0.445,5.115h-7.65l3.775-28.459H535.867z
						 M531.945,194.164c-0.375-3.224-0.75-7.208-1.127-11.953c-0.754,5.45-1.228,9.434-1.42,11.953H531.945z"/>
					<path fill="#FFFFFF" d="M558.337,186.341h-7.4v-2.584c0-1.629-0.07-2.648-0.211-3.059s-0.475-0.615-1.002-0.615
						c-0.457,0-0.768,0.176-0.932,0.527s-0.246,1.254-0.246,2.707v13.658c0,1.277,0.082,2.118,0.246,2.522s0.492,0.606,0.984,0.606
						c0.539,0,0.905-0.229,1.099-0.686s0.29-1.348,0.29-2.672v-3.375h-1.494v-4.324h8.666v15.275h-4.65l-0.685-2.039
						c-0.504,0.879-1.141,1.538-1.908,1.978c-0.769,0.439-1.674,0.659-2.719,0.659c-1.242,0-2.406-0.302-3.491-0.905
						s-1.909-1.351-2.472-2.241s-0.915-1.825-1.056-2.804s-0.211-2.446-0.211-4.403v-8.455c0-2.719,0.146-4.693,0.439-5.924
						s1.134-2.358,2.522-3.384s3.185-1.538,5.388-1.538c2.168,0,3.967,0.445,5.396,1.336s2.361,1.948,2.795,3.173
						s0.65,3.003,0.65,5.335V186.341z"/>
					<path fill="#FFFFFF" d="M561.202,175.865h5.537c3.574,0,5.991,0.164,7.251,0.492s2.218,0.867,2.874,1.617
						s1.066,1.585,1.23,2.505s0.246,2.728,0.246,5.423v9.967c0,2.555-0.12,4.263-0.36,5.124s-0.659,1.535-1.257,2.021
						s-1.336,0.826-2.215,1.02s-2.203,0.29-3.973,0.29h-9.334V175.865z M568.603,180.734v18.721c1.066,0,1.723-0.214,1.969-0.642
						s0.369-1.591,0.369-3.489v-11.057c0-1.289-0.041-2.115-0.123-2.479s-0.27-0.63-0.562-0.8S569.411,180.734,568.603,180.734z"/>
					<path fill="#FFFFFF" d="M593.893,175.865l4.232,28.459h-7.562l-0.397-5.115h-2.647l-0.445,5.115h-7.65l3.775-28.459H593.893z
						 M589.971,194.164c-0.375-3.224-0.75-7.208-1.127-11.953c-0.754,5.45-1.228,9.434-1.42,11.953H589.971z"/>
					<path fill="#FFFFFF" d="M606.782,175.865v22.764h4.5v5.695h-11.9v-28.459H606.782z"/>
					<path fill="#FFFFFF" d="M613.075,175.865h12.34v5.695h-4.939v5.396h4.623v5.414h-4.623v6.258h5.432v5.695h-12.832V175.865z"/>
					<path fill="#FFFFFF" d="M644.558,175.865v28.459h-6.486l-3.85-12.938v12.938h-6.188v-28.459h6.188l4.148,12.814v-12.814
						H644.558z"/>
					<path fill="#FFFFFF" d="M660.32,175.865l4.232,28.459h-7.562l-0.397-5.115h-2.647l-0.445,5.115h-7.65l3.775-28.459H660.32z
						 M656.398,194.164c-0.375-3.224-0.75-7.208-1.127-11.953c-0.754,5.45-1.228,9.434-1.42,11.953H656.398z"/>
				</g>
			</g>
		</g>
	</g>
	<g>
		<g>
			<path fill="#F2961C" d="M498.217,225.136v4.156h-1.681v-12.987h3.685c1.045,0.141,1.927,0.571,2.646,1.291
				c0.86,0.866,1.291,1.905,1.291,3.117c0,1.223-0.431,2.266-1.291,3.129c-0.86,0.863-1.899,1.295-3.117,1.295H498.217z
				 M498.217,217.993v5.455h1.533c0.747,0,1.387-0.267,1.92-0.799c0.533-0.533,0.799-1.178,0.799-1.936
				c0-0.752-0.266-1.393-0.799-1.924c-0.533-0.53-1.173-0.795-1.92-0.795H498.217z"/>
			<path fill="#F2961C" d="M512.445,226.427l1.68,0.601c-0.411,0.568-0.709,0.944-0.893,1.128c-0.904,0.904-1.994,1.355-3.271,1.355
				c-1.271,0-2.359-0.452-3.263-1.355s-1.355-1.994-1.355-3.271c0-1.277,0.452-2.368,1.355-3.271
				c0.903-0.903,1.991-1.355,3.263-1.355c1.277,0,2.367,0.452,3.271,1.355c0.184,0.184,0.481,0.555,0.893,1.112l-1.68,0.617
				c-0.217-0.265-0.363-0.436-0.438-0.511c-0.563-0.563-1.245-0.844-2.046-0.844c-0.795,0-1.476,0.283-2.041,0.848
				s-0.848,1.249-0.848,2.05c0,0.795,0.282,1.476,0.848,2.041s1.246,0.848,2.041,0.848c0.801,0,1.486-0.281,2.055-0.844
				C512.085,226.854,512.229,226.687,512.445,226.427z"/>
			<path fill="#F2961C" d="M517.307,216.305c2.11,0.011,3.756,0.608,4.936,1.793c1.293,1.304,1.939,2.871,1.939,4.7
				c0,1.834-0.646,3.401-1.939,4.7c-1.18,1.185-2.825,1.783-4.936,1.794h-1.233v-12.987H517.307z M517.754,218.018v9.57
				c1.336,0,2.432-0.43,3.287-1.291c0.963-0.963,1.444-2.129,1.444-3.499c0-1.363-0.481-2.529-1.444-3.498
				C520.186,218.445,519.09,218.018,517.754,218.018z"/>
			<path fill="#F2961C" d="M537.68,216.305h1.47v7.8h1.145v1.68h-1.145v3.506h-1.681v-3.506h-5.316L537.68,216.305z
				 M537.469,220.096l-2.395,4.01h2.395V220.096z"/>
			<path fill="#F2961C" d="M546.568,222.604l-1.016-0.024v-1.664c0.736-0.011,1.221-0.061,1.453-0.15s0.487-0.28,0.764-0.572
				c0.275-0.292,0.414-0.627,0.414-1.006c0-0.374-0.131-0.688-0.39-0.946c-0.26-0.257-0.577-0.385-0.95-0.385
				c-0.367,0-0.682,0.127-0.941,0.381c-0.146,0.151-0.314,0.481-0.503,0.99l-1.567-0.617c0.233-0.73,0.518-1.255,0.854-1.575
				c0.6-0.595,1.32-0.893,2.158-0.893c0.855,0,1.58,0.3,2.176,0.901s0.893,1.315,0.893,2.143c0,0.844-0.5,1.659-1.502,2.443
				c0.482,0.032,0.988,0.306,1.518,0.819c0.774,0.833,1.162,1.808,1.162,2.922c0,1.125-0.396,2.087-1.189,2.886
				c-0.793,0.798-1.755,1.197-2.886,1.197c-1.12,0-2.078-0.4-2.874-1.201c-0.633-0.638-1.035-1.523-1.209-2.654l1.68-0.608
				c0.098,0.974,0.344,1.658,0.739,2.053c0.466,0.46,1.021,0.69,1.664,0.69c0.654,0,1.214-0.23,1.676-0.69
				c0.463-0.459,0.694-1.017,0.694-1.672c0-0.66-0.231-1.242-0.694-1.745C548.229,223.123,547.521,222.782,546.568,222.604z"/>
			<path fill="#F2961C" d="M555.145,227.385c0.229,0.227,0.344,0.503,0.344,0.828c0,0.335-0.114,0.617-0.344,0.844
				c-0.23,0.227-0.508,0.341-0.832,0.341c-0.32,0-0.596-0.114-0.828-0.341c-0.232-0.228-0.35-0.509-0.35-0.844
				c0-0.325,0.117-0.601,0.35-0.828c0.232-0.228,0.508-0.341,0.828-0.341C554.637,227.043,554.914,227.157,555.145,227.385z"/>
			<path fill="#F2961C" d="M566.146,224.885c0,1.271-0.451,2.358-1.352,3.259c-0.901,0.901-1.99,1.352-3.268,1.352
				c-1.271,0-2.357-0.451-3.259-1.352s-1.352-1.987-1.352-3.259v-3.969c0-1.271,0.45-2.358,1.352-3.259
				c0.901-0.901,1.987-1.351,3.259-1.351c1.277,0,2.366,0.45,3.268,1.351c0.9,0.901,1.352,1.988,1.352,3.259V224.885z
				 M564.426,220.916c0-0.795-0.283-1.475-0.849-2.038c-0.565-0.562-1.249-0.844-2.05-0.844c-0.795,0-1.476,0.282-2.041,0.844
				c-0.566,0.563-0.848,1.242-0.848,2.038v3.969c0,0.801,0.281,1.482,0.848,2.045c0.565,0.562,1.246,0.844,2.041,0.844
				c0.801,0,1.484-0.281,2.05-0.844c0.565-0.563,0.849-1.245,0.849-2.045V220.916z"/>
			<path fill="#F2961C" d="M574.012,216.305v12.987h-1.68v-10.795h-1.242l1.704-2.191H574.012z"/>
			<path fill="#F2961C" d="M588.191,224.885c0,1.271-0.45,2.358-1.352,3.259c-0.9,0.901-1.99,1.352-3.268,1.352
				c-1.271,0-2.357-0.451-3.258-1.352c-0.901-0.901-1.352-1.987-1.352-3.259v-3.969c0-1.271,0.45-2.358,1.352-3.259
				c0.9-0.901,1.986-1.351,3.258-1.351c1.277,0,2.367,0.45,3.268,1.351c0.901,0.901,1.352,1.988,1.352,3.259V224.885z
				 M586.471,220.916c0-0.795-0.283-1.475-0.848-2.038c-0.566-0.562-1.25-0.844-2.051-0.844c-0.795,0-1.475,0.282-2.041,0.844
				c-0.565,0.563-0.848,1.242-0.848,2.038v3.969c0,0.801,0.282,1.482,0.848,2.045c0.566,0.562,1.246,0.844,2.041,0.844
				c0.801,0,1.484-0.281,2.051-0.844c0.564-0.563,0.848-1.245,0.848-2.045V220.916z"/>
			<path fill="#27515D" d="M498.468,236.253l4.212,7.281l4.197-7.281h1.533v12.987h-1.68v-9.383l-4.051,7.013l-4.066-7.013v9.383
				h-1.68v-12.987H498.468z"/>
			<path fill="#27515D" d="M516.065,236.253l4.724,12.987h-1.785l-1.672-4.594h-3.441l-1.664,4.594h-1.795l4.725-12.987H516.065z
				 M516.723,242.966l-1.111-3.044l-1.104,3.044H516.723z"/>
			<path fill="#27515D" d="M533.102,247.462c-1.336,1.277-2.865,1.916-4.586,1.916c-1.834,0-3.398-0.647-4.691-1.94
				c-1.293-1.293-1.939-2.857-1.939-4.692c0-1.829,0.646-3.393,1.939-4.691s2.857-1.948,4.691-1.948
				c1.716,0,3.342,0.701,4.879,2.103l-1.258,1.145c-1.158-1.028-2.365-1.542-3.621-1.542c-1.357,0-2.52,0.482-3.486,1.445
				c-0.965,0.963-1.448,2.127-1.448,3.49c0,1.369,0.483,2.536,1.448,3.499c0.967,0.963,2.129,1.445,3.486,1.445
				c1.17,0,2.139-0.309,2.906-0.925v-3.92h1.68V247.462z"/>
			<path fill="#27515D" d="M536.86,236.253c2.11,0.011,3.755,0.608,4.935,1.793c1.294,1.304,1.94,2.871,1.94,4.7
				c0,1.834-0.646,3.401-1.94,4.7c-1.18,1.185-2.824,1.783-4.935,1.794h-1.233v-12.987H536.86z M537.307,237.966v9.57
				c1.337,0,2.433-0.43,3.287-1.291c0.963-0.963,1.445-2.129,1.445-3.499c0-1.363-0.482-2.529-1.445-3.498
				C539.739,238.394,538.644,237.966,537.307,237.966z"/>
			<path fill="#27515D" d="M550.188,236.253l4.724,12.987h-1.785l-1.672-4.594h-3.441l-1.664,4.594h-1.795l4.725-12.987H550.188z
				 M550.846,242.966l-1.111-3.044l-1.104,3.044H550.846z"/>
			<path fill="#27515D" d="M556.536,249.24v-12.987h1.681v11.298h4.643v1.688H556.536z"/>
			<path fill="#27515D" d="M571.804,236.253v1.68h-5.316v3.969h5.316v1.681h-5.316v3.969h5.316v1.688h-6.997v-12.987H571.804z"/>
			<path fill="#27515D" d="M574.036,236.253h1.534l5.357,9.269v-9.269h1.688v12.987h-1.469l-5.43-9.383v9.383h-1.681V236.253z"/>
			<path fill="#27515D" d="M589.872,236.253l4.724,12.987h-1.785l-1.672-4.594h-3.441l-1.664,4.594h-1.795l4.725-12.987H589.872z
				 M590.529,242.966l-1.111-3.044l-1.104,3.044H590.529z"/>
		</g>
	</g>
	<g>
		<g>
			<polyline fill="none" stroke="#FFFFFF" stroke-width="2" points="246.58,54.106 405.451,185.55 486.043,185.55 			"/>
			<g>
				<circle fill="#FFFFFF" cx="246.666" cy="54.179" r="2.256"/>
			</g>
		</g>
	</g>
</g>
</svg>
