<?xml version="1.0" encoding="utf-8"?>
<!-- Generator: Adobe Illustrator 16.0.0, SVG Export Plug-In . SVG Version: 6.00 Build 0)  -->
<!DOCTYPE svg PUBLIC "-//W3C//DTD SVG 1.1//EN" "http://www.w3.org/Graphics/SVG/1.1/DTD/svg11.dtd">
<svg version="1.1" id="Capa_1" xmlns="http://www.w3.org/2000/svg" xmlns:xlink="http://www.w3.org/1999/xlink" x="0px" y="0px"
	 width="482.508px" height="222.396px" viewBox="0 0 482.508 222.396" enable-background="new 0 0 482.508 222.396"
	 xml:space="preserve">
<g>
	<g>
		<path fill="#F2961C" d="M0.32,3.797h7.704v1.553H5.32V23.36H3.024V5.349H0.32V3.797z"/>
		<path fill="#F2961C" d="M10.391,3.797h3.452c1.779,0,2.983,0.187,3.612,0.558c0.628,0.372,0.943,1.039,0.943,2.003v4.43
			c0,0.814-0.208,1.389-0.623,1.726c-0.415,0.336-1.15,0.538-2.206,0.609c1.127,0.053,1.91,0.248,2.349,0.583
			c0.438,0.336,0.658,0.92,0.658,1.751v7.905h-2.402v-7.309c0-0.919-0.175-1.517-0.525-1.79c-0.35-0.274-1.07-0.411-2.162-0.411
			H12.65v9.51h-2.26L10.391,3.797L10.391,3.797z M12.65,5.242v7.149h0.801c1.032,0,1.72-0.136,2.064-0.405
			c0.344-0.271,0.516-0.869,0.516-1.797V7.471c0-0.938-0.172-1.544-0.516-1.817c-0.344-0.273-1.032-0.411-2.064-0.411L12.65,5.242
			L12.65,5.242z"/>
		<path fill="#F2961C" d="M24.75,3.797h3.309l3.79,19.563h-2.438l-0.907-5.438h-4.306l-0.979,5.438h-2.384L24.75,3.797z
			 M26.315,5.242l-1.904,11.247h3.79L26.422,5.242H26.315z"/>
		<path fill="#F2961C" d="M34.25,3.797h3.452c1.779,0,2.983,0.187,3.612,0.558c0.628,0.372,0.942,1.039,0.942,2.003v4.43
			c0,0.814-0.207,1.389-0.623,1.726c-0.416,0.336-1.151,0.538-2.206,0.609c1.126,0.053,1.91,0.248,2.348,0.583
			c0.439,0.336,0.659,0.92,0.659,1.751V20.8c0,0.965-0.314,1.633-0.943,2.003c-0.629,0.371-1.833,0.558-3.612,0.558H34.25V3.797z
			 M36.51,5.242v7.149h0.8c1.032,0,1.72-0.136,2.064-0.405c0.344-0.271,0.516-0.869,0.516-1.797V7.471
			c0-0.938-0.172-1.544-0.516-1.817c-0.345-0.273-1.032-0.411-2.064-0.411L36.51,5.242L36.51,5.242z M36.51,13.85v8.063h0.836
			c1.091,0,1.812-0.135,2.161-0.404c0.35-0.27,0.525-0.863,0.525-1.783v-3.675c0-0.919-0.175-1.517-0.525-1.791
			c-0.35-0.273-1.07-0.41-2.161-0.41H36.51z"/>
		<path fill="#F2961C" d="M48.609,3.797h3.309l3.79,19.563H53.27l-0.907-5.438h-4.306l-0.979,5.438h-2.384L48.609,3.797z
			 M50.175,5.242l-1.904,11.247h3.79l-1.78-11.247H50.175z"/>
		<path fill="#F2961C" d="M61.455,3.797h2.295v15.571c0,1.636-0.276,2.761-0.827,3.375c-0.552,0.615-1.516,0.922-2.891,0.922
			c-1.376,0-2.334-0.243-2.874-0.729c-0.54-0.486-0.81-1.375-0.81-2.666v-2.176h2.331v2.108c0,0.813,0.098,1.354,0.294,1.618
			c0.195,0.266,0.548,0.397,1.059,0.397c0.533,0,0.904-0.172,1.112-0.517s0.311-1.035,0.311-2.069V3.797z"/>
		<path fill="#F2961C" d="M75.885,7.789v11.579c0,1.68-0.302,2.821-0.907,3.422c-0.604,0.602-1.685,0.902-3.238,0.902
			c-1.53,0-2.598-0.305-3.202-0.915c-0.605-0.61-0.908-1.746-0.908-3.409V7.789c0-1.645,0.305-2.77,0.917-3.375
			c0.61-0.605,1.687-0.909,3.229-0.909s2.613,0.302,3.211,0.902C75.585,5.008,75.885,6.135,75.885,7.789z M73.519,7.523
			c0-0.99-0.131-1.669-0.392-2.036c-0.261-0.367-0.724-0.55-1.388-0.55c-0.652,0-1.106,0.179-1.361,0.537
			c-0.255,0.357-0.382,1.041-0.382,2.049v12.108c0,1.018,0.13,1.702,0.391,2.057c0.261,0.354,0.723,0.53,1.388,0.53
			c0.652,0,1.106-0.177,1.361-0.53c0.255-0.354,0.382-1.039,0.382-2.057L73.519,7.523L73.519,7.523z"/>
	</g>
	<g>
		<g>
			<path fill="#575756" d="M410.839,165.852l1.018,6.834h-1.816l-0.096-1.229h-0.637l-0.105,1.229h-1.838l0.907-6.834H410.839z
				 M409.897,170.246c-0.091-0.773-0.181-1.73-0.271-2.871c-0.181,1.31-0.294,2.267-0.341,2.871H409.897z"/>
			<path fill="#575756" d="M415.876,169.199h-1.608v-0.646c0-0.226-0.018-0.379-0.055-0.458c-0.037-0.08-0.104-0.12-0.203-0.12
				c-0.098,0-0.165,0.034-0.197,0.104c-0.033,0.07-0.052,0.229-0.052,0.474v2.643c0,0.2,0.025,0.35,0.076,0.45
				c0.051,0.1,0.125,0.149,0.224,0.149c0.115,0,0.193-0.052,0.234-0.155c0.041-0.104,0.062-0.302,0.062-0.592v-0.667h1.52
				c-0.003,0.447-0.019,0.783-0.048,1.007c-0.03,0.224-0.124,0.453-0.283,0.688s-0.367,0.412-0.623,0.532s-0.572,0.179-0.949,0.179
				c-0.48,0-0.862-0.082-1.145-0.247s-0.48-0.396-0.597-0.691c-0.117-0.297-0.176-0.719-0.176-1.266v-1.591
				c0-0.476,0.049-0.834,0.145-1.077c0.096-0.242,0.3-0.458,0.612-0.647c0.312-0.19,0.691-0.285,1.14-0.285
				c0.444,0,0.825,0.094,1.14,0.283c0.315,0.188,0.525,0.426,0.629,0.713C415.824,168.266,415.876,168.673,415.876,169.199z"/>
			<path fill="#575756" d="M418.181,166.337v0.882h0.46v0.888h-0.46v2.997c0,0.369,0.02,0.573,0.058,0.615s0.195,0.063,0.475,0.063
				v0.903h-0.688c-0.389,0-0.666-0.017-0.832-0.048c-0.166-0.033-0.312-0.107-0.439-0.225c-0.126-0.117-0.206-0.25-0.237-0.4
				c-0.03-0.15-0.046-0.505-0.046-1.062v-2.845h-0.366v-0.888h0.366v-0.882L418.181,166.337L418.181,166.337z"/>
			<path fill="#575756" d="M420.773,165.852v0.891h-1.757v-0.891H420.773z M420.773,167.084v5.603h-1.757v-5.603H420.773z"/>
			<path fill="#575756" d="M424.914,167.084l-0.798,5.603h-2.229l-0.856-5.603h1.522l0.48,4.091
				c0.038-0.301,0.102-1.033,0.191-2.198c0.049-0.65,0.104-1.281,0.166-1.893H424.914z"/>
			<path fill="#575756" d="M426.919,165.852v0.891h-1.756v-0.891H426.919z M426.919,167.084v5.603h-1.756v-5.603H426.919z"/>
			<path fill="#575756" d="M431.411,165.852v6.834h-1.705v-0.406c-0.164,0.169-0.335,0.296-0.516,0.381
				c-0.181,0.084-0.368,0.126-0.565,0.126c-0.265,0-0.494-0.069-0.688-0.208c-0.194-0.14-0.319-0.301-0.374-0.482
				c-0.056-0.184-0.083-0.481-0.083-0.896v-2.622c0-0.431,0.027-0.736,0.083-0.916c0.055-0.18,0.181-0.338,0.378-0.475
				c0.196-0.137,0.432-0.205,0.705-0.205c0.211,0,0.403,0.038,0.579,0.114c0.177,0.075,0.337,0.189,0.479,0.343v-1.588H431.411z
				 M429.706,168.494c0-0.206-0.019-0.343-0.053-0.414c-0.035-0.071-0.105-0.104-0.209-0.104c-0.103,0-0.17,0.03-0.205,0.095
				c-0.035,0.063-0.054,0.205-0.054,0.424v2.744c0,0.228,0.018,0.377,0.052,0.449c0.033,0.071,0.099,0.107,0.193,0.107
				c0.109,0,0.184-0.04,0.22-0.121c0.036-0.08,0.055-0.275,0.055-0.589L429.706,168.494L429.706,168.494z"/>
			<path fill="#575756" d="M433.547,169.254h-1.6v-0.375c0-0.434,0.05-0.768,0.149-1.003c0.101-0.234,0.3-0.441,0.603-0.623
				c0.302-0.181,0.691-0.27,1.173-0.27c0.577,0,1.012,0.102,1.305,0.306c0.292,0.204,0.469,0.454,0.527,0.751
				c0.06,0.297,0.089,0.908,0.089,1.834v2.812h-1.659v-0.499c-0.104,0.2-0.238,0.35-0.403,0.45c-0.163,0.1-0.359,0.149-0.589,0.149
				c-0.298,0-0.571-0.083-0.82-0.251s-0.374-0.534-0.374-1.1v-0.46c0-0.419,0.065-0.705,0.197-0.857
				c0.133-0.152,0.46-0.329,0.983-0.532c0.562-0.219,0.86-0.367,0.899-0.442c0.04-0.076,0.059-0.23,0.059-0.464
				c0-0.292-0.022-0.483-0.065-0.572s-0.115-0.133-0.217-0.133c-0.115,0-0.188,0.036-0.215,0.111
				c-0.028,0.074-0.042,0.269-0.042,0.58V169.254L433.547,169.254z M434.087,170.022c-0.272,0.2-0.431,0.367-0.475,0.502
				c-0.043,0.135-0.065,0.33-0.065,0.583c0,0.29,0.021,0.477,0.059,0.561c0.037,0.084,0.112,0.127,0.226,0.127
				c0.107,0,0.177-0.032,0.209-0.099s0.048-0.24,0.048-0.521L434.087,170.022L434.087,170.022z"/>
			<path fill="#575756" d="M440.26,165.852v6.834h-1.706v-0.406c-0.163,0.169-0.335,0.296-0.515,0.381
				c-0.18,0.084-0.369,0.126-0.566,0.126c-0.264,0-0.494-0.069-0.688-0.208c-0.194-0.14-0.319-0.301-0.374-0.482
				c-0.055-0.184-0.083-0.481-0.083-0.896v-2.622c0-0.431,0.027-0.736,0.083-0.916c0.055-0.18,0.181-0.338,0.377-0.475
				c0.197-0.137,0.433-0.205,0.705-0.205c0.211,0,0.405,0.038,0.581,0.114c0.176,0.075,0.335,0.189,0.479,0.343v-1.588H440.26z
				 M438.554,168.494c0-0.206-0.018-0.343-0.053-0.414s-0.104-0.104-0.209-0.104c-0.101,0-0.169,0.03-0.205,0.095
				c-0.036,0.063-0.053,0.205-0.053,0.424v2.744c0,0.228,0.017,0.377,0.051,0.449c0.034,0.071,0.098,0.107,0.194,0.107
				c0.109,0,0.183-0.04,0.22-0.121c0.037-0.08,0.055-0.275,0.055-0.589V168.494L438.554,168.494z"/>
			<path fill="#575756" d="M446.275,165.852v6.834h-1.706v-0.406c-0.163,0.169-0.335,0.296-0.516,0.381
				c-0.18,0.084-0.369,0.126-0.565,0.126c-0.265,0-0.494-0.069-0.688-0.208c-0.193-0.14-0.318-0.301-0.374-0.482
				c-0.055-0.184-0.083-0.481-0.083-0.896v-2.622c0-0.431,0.027-0.736,0.083-0.916s0.182-0.338,0.377-0.475
				c0.197-0.137,0.434-0.205,0.705-0.205c0.211,0,0.405,0.038,0.581,0.114c0.176,0.075,0.335,0.189,0.479,0.343v-1.588H446.275z
				 M444.569,168.494c0-0.206-0.019-0.343-0.054-0.414c-0.034-0.071-0.104-0.104-0.209-0.104c-0.101,0-0.169,0.03-0.205,0.095
				c-0.035,0.063-0.053,0.205-0.053,0.424v2.744c0,0.228,0.018,0.377,0.051,0.449c0.034,0.071,0.099,0.107,0.194,0.107
				c0.11,0,0.183-0.04,0.22-0.121c0.037-0.08,0.056-0.275,0.056-0.589V168.494L444.569,168.494z"/>
			<path fill="#575756" d="M450.792,167.084v5.603h-1.735l0.03-0.465c-0.118,0.188-0.264,0.33-0.438,0.425s-0.372,0.142-0.598,0.142
				c-0.256,0-0.468-0.045-0.637-0.135s-0.293-0.209-0.374-0.359c-0.08-0.148-0.13-0.305-0.149-0.466
				c-0.02-0.162-0.029-0.482-0.029-0.965v-3.778h1.706v3.812c0,0.437,0.013,0.694,0.04,0.776c0.026,0.082,0.099,0.123,0.218,0.123
				c0.126,0,0.202-0.042,0.226-0.127c0.024-0.085,0.036-0.355,0.036-0.813v-3.771h1.704V167.084z"/>
			<path fill="#575756" d="M453.109,167.084l-0.067,0.737c0.248-0.527,0.606-0.807,1.076-0.838v1.971
				c-0.312,0-0.542,0.042-0.688,0.127c-0.146,0.084-0.236,0.202-0.271,0.354c-0.034,0.149-0.051,0.497-0.051,1.041v2.212h-1.705
				v-5.603L453.109,167.084L453.109,167.084z"/>
			<path fill="#575756" d="M456.022,169.254h-1.601v-0.375c0-0.434,0.05-0.768,0.149-1.003c0.1-0.234,0.301-0.441,0.602-0.623
				c0.301-0.18,0.692-0.27,1.174-0.27c0.577,0,1.013,0.102,1.305,0.306s0.469,0.454,0.527,0.751c0.06,0.297,0.089,0.908,0.089,1.834
				v2.812h-1.658v-0.499c-0.104,0.2-0.238,0.35-0.403,0.45c-0.165,0.1-0.361,0.149-0.589,0.149c-0.298,0-0.572-0.083-0.821-0.251
				s-0.373-0.534-0.373-1.1v-0.46c0-0.419,0.065-0.705,0.198-0.857c0.132-0.152,0.46-0.329,0.982-0.532
				c0.561-0.219,0.86-0.367,0.899-0.442c0.039-0.076,0.059-0.23,0.059-0.464c0-0.292-0.021-0.483-0.064-0.572
				c-0.043-0.089-0.116-0.133-0.217-0.133c-0.116,0-0.188,0.036-0.217,0.111c-0.027,0.074-0.042,0.269-0.042,0.58L456.022,169.254
				L456.022,169.254z M456.562,170.022c-0.272,0.2-0.432,0.367-0.476,0.502s-0.064,0.33-0.064,0.583c0,0.29,0.019,0.477,0.057,0.561
				s0.113,0.127,0.226,0.127c0.106,0,0.177-0.032,0.209-0.099s0.049-0.24,0.049-0.521V170.022L456.562,170.022z"/>
			<path fill="#575756" d="M460.59,167.084l-0.029,0.517c0.124-0.206,0.275-0.36,0.454-0.463c0.18-0.104,0.386-0.154,0.619-0.154
				c0.292,0,0.532,0.068,0.718,0.207c0.187,0.138,0.306,0.312,0.358,0.521c0.054,0.21,0.08,0.561,0.08,1.049v3.927h-1.705v-3.879
				c0-0.387-0.013-0.621-0.038-0.705c-0.024-0.084-0.096-0.126-0.211-0.126c-0.121,0-0.197,0.048-0.228,0.146
				c-0.031,0.098-0.046,0.356-0.046,0.779v3.787h-1.706v-5.603h1.733V167.084z"/>
			<path fill="#575756" d="M465.175,166.337v0.882h0.46v0.888h-0.46v2.997c0,0.369,0.02,0.573,0.058,0.615
				c0.037,0.042,0.195,0.063,0.475,0.063v0.903h-0.688c-0.389,0-0.665-0.017-0.831-0.048c-0.166-0.033-0.312-0.107-0.438-0.225
				c-0.127-0.117-0.206-0.25-0.237-0.4c-0.03-0.151-0.046-0.505-0.046-1.062v-2.845h-0.367v-0.888h0.367v-0.882L465.175,166.337
				L465.175,166.337z"/>
			<path fill="#575756" d="M469.873,169.984h-2.208v1.211c0,0.253,0.019,0.417,0.055,0.49c0.036,0.072,0.107,0.109,0.211,0.109
				c0.129,0,0.216-0.049,0.261-0.146c0.043-0.098,0.064-0.285,0.064-0.564v-0.738h1.617v0.413c0,0.347-0.021,0.612-0.065,0.799
				c-0.043,0.186-0.146,0.384-0.306,0.595c-0.161,0.211-0.364,0.369-0.61,0.475c-0.245,0.106-0.555,0.158-0.927,0.158
				c-0.359,0-0.678-0.052-0.954-0.156c-0.274-0.104-0.489-0.247-0.644-0.429s-0.26-0.381-0.318-0.6
				c-0.06-0.219-0.089-0.535-0.089-0.952v-1.634c0-0.49,0.066-0.876,0.198-1.159s0.349-0.5,0.649-0.65
				c0.302-0.149,0.647-0.226,1.038-0.226c0.479,0,0.873,0.091,1.186,0.271c0.311,0.183,0.528,0.422,0.653,0.723
				c0.125,0.3,0.188,0.721,0.188,1.264V169.984L469.873,169.984z M468.163,169.072v-0.409c0-0.29-0.015-0.477-0.046-0.562
				c-0.031-0.084-0.095-0.126-0.19-0.126c-0.118,0-0.19,0.035-0.219,0.106s-0.042,0.266-0.042,0.581v0.409H468.163L468.163,169.072z
				"/>
			<path fill="#575756" d="M473.71,165.852v6.834h-1.756v-6.834H473.71z"/>
			<path fill="#575756" d="M478.181,169.051v1.372c0,0.504-0.024,0.873-0.075,1.108c-0.052,0.235-0.159,0.455-0.325,0.659
				s-0.379,0.354-0.64,0.452c-0.261,0.097-0.56,0.146-0.896,0.146c-0.377,0-0.696-0.042-0.958-0.125s-0.465-0.208-0.61-0.375
				c-0.145-0.167-0.248-0.37-0.31-0.607c-0.062-0.238-0.093-0.596-0.093-1.07v-1.436c0-0.521,0.057-0.927,0.169-1.22
				c0.112-0.292,0.314-0.527,0.607-0.705c0.292-0.177,0.667-0.266,1.123-0.266c0.382,0,0.711,0.057,0.985,0.171
				c0.273,0.114,0.485,0.262,0.635,0.445c0.149,0.183,0.251,0.372,0.306,0.565S478.181,168.654,478.181,169.051z M476.476,168.629
				c0-0.287-0.016-0.468-0.047-0.542c-0.03-0.074-0.097-0.111-0.197-0.111c-0.102,0-0.169,0.037-0.202,0.111
				c-0.034,0.074-0.051,0.255-0.051,0.542v2.528c0,0.265,0.017,0.437,0.051,0.517c0.033,0.081,0.1,0.121,0.197,0.121
				c0.102,0,0.168-0.037,0.2-0.109c0.032-0.073,0.049-0.231,0.049-0.474V168.629L476.476,168.629z"/>
			<path fill="#575756" d="M482.225,168.874h-1.511v-0.304c0-0.259-0.015-0.423-0.044-0.492c-0.03-0.069-0.103-0.103-0.221-0.103
				c-0.097,0-0.168,0.03-0.216,0.095c-0.049,0.063-0.071,0.158-0.071,0.285c0,0.171,0.012,0.297,0.036,0.377
				c0.023,0.081,0.096,0.168,0.215,0.264s0.365,0.235,0.736,0.418c0.495,0.242,0.819,0.47,0.976,0.685
				c0.154,0.214,0.232,0.524,0.232,0.933c0,0.456-0.06,0.8-0.178,1.032c-0.118,0.231-0.315,0.411-0.593,0.536
				s-0.612,0.188-1.003,0.188c-0.434,0-0.804-0.066-1.112-0.202c-0.309-0.135-0.52-0.317-0.636-0.549
				c-0.115-0.23-0.173-0.58-0.173-1.047v-0.271h1.512v0.354c0,0.301,0.02,0.497,0.058,0.587c0.037,0.09,0.112,0.135,0.226,0.135
				c0.121,0,0.206-0.029,0.254-0.091c0.048-0.061,0.071-0.188,0.071-0.382c0-0.267-0.031-0.435-0.093-0.502
				c-0.064-0.068-0.396-0.269-0.992-0.6c-0.501-0.281-0.807-0.537-0.916-0.767c-0.109-0.229-0.165-0.502-0.165-0.816
				c0-0.448,0.059-0.777,0.177-0.99c0.118-0.212,0.319-0.376,0.603-0.492c0.282-0.115,0.61-0.173,0.985-0.173
				c0.372,0,0.688,0.047,0.948,0.141c0.26,0.095,0.46,0.219,0.6,0.374s0.225,0.298,0.253,0.43c0.03,0.133,0.044,0.34,0.044,0.621
				v0.326H482.225z"/>
			<path fill="#575756" d="M411.621,175.689v5.602h-1.735l0.03-0.465c-0.118,0.189-0.264,0.331-0.438,0.425
				c-0.173,0.096-0.371,0.143-0.598,0.143c-0.256,0-0.468-0.045-0.637-0.136c-0.168-0.09-0.293-0.209-0.374-0.358
				c-0.08-0.149-0.13-0.305-0.15-0.466c-0.02-0.162-0.029-0.483-0.029-0.966v-3.777h1.706v3.812c0,0.438,0.013,0.695,0.039,0.777
				s0.1,0.123,0.218,0.123c0.126,0,0.202-0.042,0.226-0.127c0.023-0.084,0.036-0.356,0.036-0.814v-3.77h1.706V175.689z
				 M411.114,174.17l-1.39,1.145h-0.856l0.743-1.145H411.114z"/>
			<path fill="#575756" d="M413.989,174.457v6.834h-1.756v-6.834H413.989z"/>
			<path fill="#575756" d="M416.399,174.942v0.882h0.46v0.887h-0.46v2.997c0,0.369,0.02,0.574,0.057,0.616
				c0.038,0.042,0.196,0.063,0.475,0.063v0.902h-0.688c-0.388,0-0.665-0.016-0.831-0.048c-0.166-0.033-0.312-0.107-0.439-0.224
				c-0.126-0.117-0.205-0.25-0.235-0.401c-0.031-0.151-0.046-0.504-0.046-1.062v-2.846h-0.367v-0.887h0.367v-0.882L416.399,174.942
				L416.399,174.942z"/>
			<path fill="#575756" d="M418.992,174.457v0.892h-1.756v-0.892H418.992z M418.992,175.689v5.602h-1.756v-5.602H418.992z"/>
			<path fill="#575756" d="M421.288,175.689l-0.029,0.533c0.132-0.212,0.29-0.37,0.474-0.477c0.183-0.105,0.391-0.159,0.625-0.159
				c0.455,0,0.813,0.211,1.075,0.635c0.145-0.212,0.307-0.37,0.485-0.477c0.18-0.105,0.38-0.159,0.6-0.159
				c0.29,0,0.53,0.07,0.721,0.211c0.189,0.142,0.312,0.313,0.364,0.518c0.054,0.204,0.08,0.536,0.08,0.994v3.98h-1.654v-3.65
				c0-0.479-0.017-0.775-0.049-0.89c-0.031-0.114-0.107-0.171-0.226-0.171c-0.121,0-0.199,0.056-0.234,0.168
				c-0.035,0.113-0.053,0.41-0.053,0.892v3.65h-1.655v-3.559c0-0.549-0.014-0.878-0.04-0.988s-0.101-0.165-0.222-0.165
				c-0.076,0-0.141,0.029-0.194,0.086c-0.053,0.059-0.083,0.128-0.088,0.211c-0.006,0.083-0.008,0.26-0.008,0.53v3.884h-1.655
				v-5.602h1.684V175.689z"/>
			<path fill="#575756" d="M430.128,177.657v1.372c0,0.504-0.025,0.873-0.076,1.108c-0.051,0.234-0.159,0.454-0.325,0.658
				s-0.379,0.354-0.639,0.452c-0.26,0.099-0.559,0.146-0.896,0.146c-0.377,0-0.697-0.042-0.958-0.125
				c-0.263-0.083-0.466-0.208-0.61-0.375c-0.146-0.167-0.249-0.37-0.312-0.608c-0.062-0.238-0.093-0.595-0.093-1.07v-1.435
				c0-0.521,0.058-0.927,0.169-1.22c0.112-0.292,0.315-0.527,0.608-0.705c0.292-0.178,0.667-0.267,1.123-0.267
				c0.382,0,0.711,0.058,0.986,0.171c0.274,0.114,0.485,0.263,0.635,0.445c0.148,0.184,0.251,0.372,0.307,0.566
				C430.101,176.964,430.128,177.26,430.128,177.657z M428.422,177.235c0-0.287-0.015-0.468-0.046-0.542
				c-0.031-0.075-0.097-0.112-0.198-0.112c-0.101,0-0.169,0.037-0.203,0.112c-0.033,0.074-0.051,0.255-0.051,0.542v2.528
				c0,0.265,0.018,0.437,0.051,0.517c0.034,0.081,0.101,0.121,0.198,0.121c0.102,0,0.168-0.037,0.201-0.11s0.048-0.23,0.048-0.473
				V177.235z"/>
			<path fill="#575756" d="M434.172,177.479h-1.511v-0.305c0-0.259-0.015-0.423-0.044-0.491c-0.029-0.069-0.104-0.104-0.223-0.104
				c-0.096,0-0.166,0.031-0.215,0.095c-0.048,0.064-0.071,0.158-0.071,0.285c0,0.171,0.012,0.297,0.036,0.377
				c0.023,0.081,0.096,0.168,0.215,0.265c0.119,0.096,0.364,0.234,0.736,0.418c0.495,0.242,0.82,0.47,0.976,0.684
				c0.154,0.214,0.231,0.525,0.231,0.934c0,0.455-0.059,0.8-0.177,1.031c-0.118,0.232-0.316,0.411-0.593,0.536
				c-0.277,0.125-0.611,0.188-1.002,0.188c-0.434,0-0.805-0.067-1.112-0.202s-0.52-0.318-0.635-0.549
				c-0.115-0.231-0.173-0.58-0.173-1.047v-0.271h1.511v0.354c0,0.301,0.019,0.496,0.057,0.587c0.038,0.09,0.113,0.135,0.227,0.135
				c0.121,0,0.205-0.03,0.253-0.091c0.048-0.062,0.072-0.188,0.072-0.383c0-0.267-0.031-0.435-0.094-0.502
				c-0.064-0.067-0.395-0.268-0.992-0.6c-0.501-0.281-0.807-0.537-0.915-0.766c-0.11-0.229-0.165-0.502-0.165-0.817
				c0-0.448,0.059-0.777,0.177-0.99c0.119-0.212,0.318-0.376,0.602-0.492c0.283-0.114,0.612-0.173,0.986-0.173
				c0.372,0,0.688,0.047,0.948,0.142c0.26,0.095,0.46,0.219,0.599,0.374c0.14,0.154,0.224,0.298,0.254,0.43
				c0.029,0.132,0.044,0.339,0.044,0.621v0.326H434.172z"/>
			<path fill="#575756" d="M440.377,176.272h-1.706c0-0.318-0.003-0.52-0.01-0.603s-0.041-0.151-0.102-0.209
				c-0.061-0.056-0.144-0.084-0.247-0.084c-0.087,0-0.158,0.026-0.216,0.08c-0.056,0.053-0.088,0.123-0.097,0.207
				s-0.013,0.255-0.013,0.511v1.09c0.087-0.184,0.215-0.32,0.384-0.412s0.377-0.138,0.625-0.138c0.312,0,0.588,0.084,0.827,0.253
				c0.238,0.17,0.392,0.372,0.456,0.608s0.097,0.556,0.097,0.958v0.545c0,0.479-0.018,0.834-0.055,1.068
				c-0.037,0.233-0.135,0.45-0.293,0.647c-0.159,0.198-0.377,0.354-0.654,0.462c-0.277,0.109-0.601,0.165-0.969,0.165
				c-0.459,0-0.835-0.062-1.127-0.189c-0.293-0.126-0.52-0.31-0.679-0.547c-0.158-0.238-0.252-0.487-0.278-0.749
				c-0.027-0.263-0.04-0.771-0.04-1.524v-0.946c0-0.812,0.012-1.356,0.036-1.631c0.023-0.273,0.122-0.534,0.294-0.778
				c0.171-0.245,0.404-0.429,0.703-0.552c0.297-0.123,0.639-0.184,1.027-0.184c0.479,0,0.871,0.078,1.178,0.231
				c0.308,0.154,0.526,0.373,0.659,0.654C440.312,175.49,440.377,175.844,440.377,176.272z M438.672,178.404
				c0-0.242-0.025-0.408-0.08-0.498c-0.054-0.09-0.141-0.135-0.262-0.135c-0.118,0-0.205,0.043-0.26,0.128
				c-0.056,0.086-0.082,0.254-0.082,0.504v1.237c0,0.301,0.025,0.498,0.078,0.591c0.052,0.093,0.139,0.139,0.26,0.139
				c0.073,0,0.148-0.036,0.228-0.106c0.079-0.072,0.118-0.266,0.118-0.581V178.404L438.672,178.404z"/>
			<path fill="#575756" d="M444.173,175.689l-0.03,0.533c0.133-0.212,0.29-0.37,0.474-0.477c0.183-0.105,0.391-0.159,0.625-0.159
				c0.456,0,0.814,0.211,1.077,0.635c0.144-0.212,0.305-0.37,0.484-0.477c0.181-0.105,0.38-0.159,0.601-0.159
				c0.29,0,0.528,0.07,0.72,0.211c0.188,0.142,0.312,0.313,0.365,0.518c0.053,0.204,0.08,0.536,0.08,0.994v3.98h-1.655v-3.65
				c0-0.479-0.017-0.775-0.048-0.89c-0.032-0.114-0.108-0.171-0.227-0.171c-0.121,0-0.199,0.056-0.233,0.168
				c-0.036,0.113-0.054,0.41-0.054,0.892v3.65h-1.653v-3.559c0-0.549-0.015-0.878-0.04-0.988c-0.027-0.11-0.102-0.165-0.223-0.165
				c-0.075,0-0.141,0.029-0.193,0.086c-0.054,0.057-0.083,0.128-0.089,0.211c-0.007,0.083-0.009,0.26-0.009,0.53v3.884h-1.654
				v-5.602h1.683V175.689z"/>
			<path fill="#575756" d="M453.017,178.59h-2.208v1.211c0,0.254,0.02,0.417,0.056,0.49s0.106,0.11,0.211,0.11
				c0.129,0,0.216-0.049,0.26-0.146c0.043-0.097,0.065-0.284,0.065-0.563v-0.739h1.616v0.414c0,0.346-0.021,0.612-0.064,0.798
				c-0.043,0.187-0.146,0.384-0.306,0.595c-0.161,0.212-0.364,0.369-0.61,0.476c-0.246,0.105-0.555,0.158-0.927,0.158
				c-0.36,0-0.679-0.053-0.954-0.156c-0.275-0.104-0.49-0.247-0.645-0.429c-0.153-0.183-0.26-0.382-0.317-0.601
				c-0.061-0.218-0.09-0.535-0.09-0.952v-1.634c0-0.49,0.066-0.876,0.198-1.159c0.132-0.282,0.35-0.5,0.65-0.649
				c0.301-0.15,0.646-0.227,1.038-0.227c0.479,0,0.873,0.092,1.185,0.272c0.312,0.182,0.529,0.422,0.654,0.722
				s0.188,0.721,0.188,1.265V178.59L453.017,178.59z M451.307,177.677v-0.408c0-0.29-0.015-0.478-0.046-0.562
				c-0.03-0.084-0.095-0.126-0.189-0.126c-0.118,0-0.191,0.036-0.22,0.107c-0.027,0.07-0.042,0.265-0.042,0.581v0.408H451.307z"/>
			<path fill="#575756" d="M457.057,177.479h-1.511v-0.305c0-0.259-0.015-0.423-0.044-0.491c-0.029-0.069-0.104-0.104-0.222-0.104
				c-0.097,0-0.167,0.031-0.215,0.095c-0.049,0.064-0.072,0.158-0.072,0.285c0,0.171,0.012,0.297,0.036,0.377
				c0.023,0.081,0.096,0.168,0.215,0.265c0.119,0.096,0.365,0.234,0.737,0.418c0.494,0.242,0.819,0.47,0.975,0.684
				s0.232,0.525,0.232,0.934c0,0.455-0.06,0.8-0.178,1.031c-0.118,0.232-0.315,0.411-0.593,0.536s-0.611,0.188-1.002,0.188
				c-0.433,0-0.804-0.067-1.112-0.202c-0.308-0.135-0.52-0.318-0.635-0.549c-0.115-0.231-0.173-0.58-0.173-1.047v-0.271h1.511v0.354
				c0,0.301,0.02,0.496,0.058,0.587c0.037,0.09,0.112,0.135,0.226,0.135c0.121,0,0.205-0.03,0.253-0.091
				c0.048-0.062,0.072-0.188,0.072-0.383c0-0.267-0.031-0.435-0.093-0.502c-0.065-0.067-0.396-0.268-0.992-0.6
				c-0.501-0.281-0.808-0.537-0.916-0.766c-0.11-0.229-0.165-0.502-0.165-0.817c0-0.448,0.059-0.777,0.177-0.99
				c0.119-0.212,0.319-0.376,0.603-0.492c0.282-0.114,0.611-0.173,0.985-0.173c0.372,0,0.688,0.047,0.948,0.142
				s0.46,0.219,0.599,0.374c0.141,0.154,0.225,0.298,0.254,0.43s0.044,0.339,0.044,0.621v0.326H457.057z"/>
			<path fill="#575756" d="M461.506,178.59h-2.208v1.211c0,0.254,0.019,0.417,0.055,0.49s0.106,0.11,0.212,0.11
				c0.129,0,0.216-0.049,0.26-0.146c0.043-0.097,0.064-0.284,0.064-0.563v-0.739h1.616v0.414c0,0.346-0.021,0.612-0.064,0.798
				c-0.043,0.187-0.146,0.384-0.307,0.595c-0.16,0.212-0.364,0.369-0.609,0.476c-0.246,0.104-0.556,0.158-0.927,0.158
				c-0.359,0-0.678-0.053-0.954-0.156c-0.275-0.104-0.49-0.247-0.644-0.429c-0.153-0.183-0.259-0.382-0.318-0.601
				c-0.059-0.218-0.089-0.535-0.089-0.952v-1.634c0-0.49,0.066-0.876,0.198-1.159c0.133-0.282,0.349-0.5,0.65-0.649
				c0.301-0.15,0.646-0.227,1.039-0.227c0.478,0,0.872,0.092,1.184,0.272c0.311,0.182,0.529,0.422,0.654,0.722
				s0.188,0.721,0.188,1.265V178.59L461.506,178.59z M459.796,177.677v-0.408c0-0.29-0.015-0.478-0.046-0.562
				s-0.094-0.126-0.19-0.126c-0.117,0-0.19,0.036-0.219,0.107s-0.042,0.265-0.042,0.581v0.408H459.796z"/>
			<path fill="#575756" d="M465.546,177.479h-1.511v-0.305c0-0.259-0.016-0.423-0.044-0.491c-0.029-0.069-0.104-0.104-0.223-0.104
				c-0.096,0-0.167,0.031-0.215,0.095c-0.048,0.064-0.071,0.158-0.071,0.285c0,0.171,0.012,0.297,0.035,0.377
				c0.024,0.081,0.097,0.168,0.216,0.265c0.118,0.096,0.364,0.234,0.736,0.418c0.495,0.242,0.82,0.47,0.976,0.684
				c0.154,0.214,0.231,0.525,0.231,0.934c0,0.455-0.059,0.8-0.177,1.031c-0.118,0.232-0.316,0.411-0.593,0.536
				c-0.277,0.125-0.611,0.188-1.002,0.188c-0.434,0-0.805-0.067-1.112-0.202s-0.52-0.318-0.635-0.549
				c-0.115-0.231-0.173-0.58-0.173-1.047v-0.271h1.511v0.354c0,0.301,0.019,0.496,0.057,0.587c0.038,0.09,0.113,0.135,0.227,0.135
				c0.121,0,0.205-0.03,0.253-0.091c0.048-0.062,0.071-0.188,0.071-0.383c0-0.267-0.03-0.435-0.093-0.502
				c-0.064-0.067-0.395-0.268-0.992-0.6c-0.501-0.281-0.807-0.537-0.915-0.766c-0.11-0.229-0.165-0.502-0.165-0.817
				c0-0.448,0.059-0.777,0.177-0.99c0.119-0.212,0.318-0.376,0.602-0.492c0.283-0.114,0.612-0.173,0.986-0.173
				c0.372,0,0.688,0.047,0.948,0.142c0.26,0.095,0.46,0.219,0.599,0.374c0.14,0.154,0.224,0.298,0.254,0.43
				c0.029,0.132,0.044,0.339,0.044,0.621v0.326H465.546z"/>
		</g>
		<path fill="#A0C219" d="M471.879,103.462c-0.147,1.076-0.277,2.154-0.451,3.229c-2.069,12.852-8.703,22.703-19.772,29.459
			c-7.531,4.596-15.802,6.354-24.611,5.508c-5.811-0.559-11.217-2.334-16.285-5.199c-1.77-0.998-2.071-0.934-3.522,0.519
			c-6.648,6.647-13.293,13.301-19.947,19.94c-2,1.998-4.273,3.472-7.121,4.045c-4.699,0.949-9.969-3.244-10.02-8.037
			c-0.039-3.676,1.697-6.508,4.176-8.991c6.688-6.703,13.389-13.392,20.084-20.086c1.26-1.263,1.34-1.636,0.443-3.199
			c-2.724-4.76-4.513-9.853-5.179-15.283c-0.774-6.318-0.252-12.562,2-18.553c4.549-12.105,12.84-20.529,25.017-25.039
			c3.36-1.244,6.844-1.969,10.416-2.267c0.225-0.02,0.442-0.104,0.663-0.157c1.855,0,3.709,0,5.564,0
			c0.289,0.057,0.576,0.141,0.869,0.164c4.352,0.344,8.565,1.332,12.537,3.1c12.77,5.682,20.866,15.328,24.11,28.953
			c0.494,2.076,0.693,4.219,1.029,6.332C471.879,99.753,471.879,101.606,471.879,103.462z M461.088,100.604
			c-0.149-16.806-13.332-30.388-30.426-30.429c-16.869-0.039-30.416,13.339-30.496,30.439c-0.078,16.799,13.74,30.574,30.508,30.451
			C447.656,130.942,460.936,117.519,461.088,100.604z"/>
		<path fill="#A0C219" d="M432.438,75.79c3.562,0.121,6.97,0.84,10.255,2.146c2.289,0.907,3.377,3.271,2.563,5.506
			c-0.807,2.223-3.176,3.379-5.494,2.524c-2.957-1.09-5.951-1.754-9.114-1.362c-6.634,0.813-11.503,4.18-14.574,10.11
			c-0.597,1.15-1.117,2.332-2.342,2.978c-1.623,0.856-3.541,0.641-4.896-0.553c-1.318-1.16-1.809-3.111-1.094-4.808
			c1.444-3.424,3.5-6.451,6.209-8.998c3.77-3.545,8.194-5.883,13.287-6.865C428.949,76.138,430.703,76.01,432.438,75.79z"/>
		<g>
			<path fill="#A0C219" d="M407.724,152.264h1.384l0.99,7.923h0.127l1.062-7.923h1.303l-1.44,8.833h-1.959L407.724,152.264z"/>
			<path fill="#A0C219" d="M418.789,154.567v2.621h-3.354v1.865c0,0.526,0.069,0.885,0.208,1.073
				c0.139,0.189,0.385,0.284,0.737,0.284c0.338,0,0.577-0.097,0.715-0.292c0.14-0.195,0.208-0.55,0.208-1.064v-0.979h1.486v0.722
				c0,0.975-0.177,1.638-0.53,1.989c-0.354,0.353-0.979,0.528-1.879,0.528c-0.891,0-1.516-0.18-1.873-0.537
				c-0.356-0.358-0.536-1.024-0.536-1.998v-4.21c0-0.98,0.176-1.645,0.525-1.994s0.978-0.524,1.884-0.524
				c0.893,0,1.517,0.18,1.874,0.537S418.789,153.605,418.789,154.567z M417.303,154.301c0-0.521-0.068-0.876-0.208-1.064
				c-0.138-0.189-0.376-0.284-0.715-0.284c-0.346,0-0.59,0.1-0.73,0.301c-0.144,0.201-0.214,0.55-0.214,1.048v1.994h1.868
				L417.303,154.301L417.303,154.301z"/>
			<path fill="#A0C219" d="M424.242,152.067v1.074H424c-0.607,0-1.038,0.112-1.291,0.339c-0.254,0.227-0.381,0.618-0.381,1.173
				v6.444h-1.418v-8.833h1.326l0.092,0.542c0.2-0.241,0.444-0.428,0.731-0.56c0.288-0.132,0.602-0.198,0.939-0.198
				c0.022,0,0.062,0.003,0.115,0.01C424.167,152.064,424.211,152.067,424.242,152.067z"/>
			<path fill="#A0C219" d="M432.196,152.806l0.114-0.542h1.326v9.786c0,0.975-0.177,1.637-0.529,1.985
				c-0.354,0.349-0.98,0.524-1.88,0.524c-0.86,0-1.478-0.17-1.851-0.512c-0.373-0.341-0.559-0.921-0.559-1.739v-0.474h1.486v0.474
				c0,0.539,0.067,0.898,0.202,1.083c0.135,0.183,0.375,0.274,0.721,0.274c0.354,0,0.604-0.099,0.749-0.296
				c0.146-0.198,0.22-0.552,0.22-1.062v-2.148c-0.192,0.252-0.432,0.438-0.715,0.559c-0.285,0.12-0.623,0.181-1.015,0.181
				c-0.6,0-1.023-0.147-1.273-0.442s-0.375-0.814-0.375-1.56v-4.821c0-0.75,0.127-1.276,0.38-1.577
				c0.254-0.301,0.677-0.451,1.269-0.451c0.376,0,0.71,0.064,1.003,0.193C431.762,152.372,432.003,152.56,432.196,152.806z
				 M432.196,154.301c0-0.504-0.073-0.857-0.22-1.061c-0.146-0.204-0.388-0.305-0.726-0.305c-0.354,0-0.604,0.099-0.75,0.296
				c-0.146,0.198-0.219,0.554-0.219,1.069v4.349c0,0.521,0.073,0.88,0.219,1.078c0.146,0.197,0.396,0.296,0.75,0.296
				c0.338,0,0.58-0.104,0.726-0.31c0.146-0.207,0.22-0.562,0.22-1.064V154.301z"/>
			<path fill="#A0C219" d="M439.135,152.067v1.074h-0.242c-0.606,0-1.036,0.112-1.291,0.339c-0.253,0.227-0.38,0.618-0.38,1.173
				v6.444h-1.418v-8.833h1.325l0.093,0.542c0.199-0.241,0.443-0.428,0.731-0.56s0.602-0.198,0.938-0.198
				c0.023,0,0.062,0.003,0.115,0.01C439.06,152.064,439.104,152.067,439.135,152.067z"/>
			<path fill="#A0C219" d="M444.783,154.327v6.771h-1.326l-0.092-0.542c-0.192,0.246-0.437,0.434-0.732,0.562
				s-0.636,0.193-1.02,0.193c-0.601,0-1.024-0.15-1.274-0.451s-0.375-0.826-0.375-1.577v-1.762c0-0.693,0.251-1.187,0.755-1.479
				c0.503-0.292,1.386-0.455,2.646-0.489V154.3c0-0.532-0.067-0.891-0.202-1.073c-0.134-0.184-0.375-0.275-0.72-0.275
				c-0.331,0-0.567,0.084-0.709,0.253c-0.144,0.169-0.213,0.46-0.213,0.872v0.49h-1.419v-0.241c0-0.882,0.174-1.482,0.52-1.8
				c0.346-0.318,0.96-0.478,1.844-0.478c0.86,0,1.462,0.161,1.804,0.481C444.612,152.852,444.783,153.45,444.783,154.327z
				 M443.354,156.415c-0.736,0.023-1.238,0.12-1.504,0.292c-0.265,0.172-0.396,0.481-0.396,0.928v1.418
				c0,0.527,0.069,0.886,0.207,1.074c0.139,0.189,0.384,0.284,0.738,0.284c0.346,0,0.594-0.102,0.743-0.305s0.226-0.555,0.226-1.052
				L443.354,156.415z M442.823,149.188h1.626l-1.511,1.917h-1.13L442.823,149.188z"/>
			<path fill="#A0C219" d="M449.544,148.234v0.911h-0.208c-0.331,0-0.559,0.047-0.686,0.142c-0.127,0.094-0.19,0.265-0.19,0.511
				v2.467h1.084v0.876h-1.084v7.957h-1.417v-7.957h-0.771v-0.876h0.771v-1.916c0-0.905,0.13-1.487,0.392-1.744
				c0.262-0.258,0.753-0.388,1.477-0.388c0.161,0,0.288,0.001,0.38,0.005C449.383,148.224,449.467,148.229,449.544,148.234z"/>
			<path fill="#A0C219" d="M450.686,148.423h1.579v1.341h-1.579V148.423z M450.754,152.264h1.418v8.833h-1.418V152.264z"/>
			<path fill="#A0C219" d="M458.731,154.567v0.566h-1.487v-0.833c0-0.578-0.052-0.947-0.155-1.107s-0.294-0.241-0.571-0.241
				c-0.276,0-0.469,0.09-0.576,0.271c-0.107,0.181-0.161,0.54-0.161,1.078v4.753c0,0.55,0.056,0.913,0.167,1.091
				c0.11,0.177,0.31,0.266,0.594,0.266c0.269,0,0.453-0.082,0.553-0.245c0.101-0.164,0.15-0.534,0.15-1.112v-0.945h1.486v0.688
				c0,0.975-0.163,1.638-0.489,1.989c-0.327,0.353-0.901,0.528-1.724,0.528c-0.814,0-1.385-0.182-1.712-0.542
				c-0.327-0.361-0.489-1.025-0.489-1.993v-4.21c0-0.98,0.16-1.645,0.483-1.994s0.896-0.524,1.718-0.524
				c0.814,0,1.388,0.18,1.718,0.537C458.566,152.945,458.731,153.605,458.731,154.567z"/>
			<path fill="#A0C219" d="M465.371,154.567v4.228c0,0.975-0.177,1.638-0.53,1.989s-0.979,0.528-1.879,0.528
				c-0.891,0-1.516-0.18-1.873-0.537c-0.356-0.358-0.536-1.024-0.536-1.998v-4.21c0-0.98,0.175-1.645,0.525-1.994
				c0.35-0.35,0.978-0.524,1.884-0.524c0.891,0,1.516,0.18,1.874,0.537C465.192,152.945,465.371,153.605,465.371,154.567z
				 M463.884,154.301c0-0.521-0.068-0.876-0.208-1.064c-0.139-0.189-0.376-0.284-0.715-0.284c-0.346,0-0.59,0.1-0.732,0.301
				s-0.213,0.55-0.213,1.048v4.752c0,0.527,0.069,0.886,0.207,1.074c0.14,0.189,0.385,0.284,0.738,0.284
				c0.338,0,0.577-0.097,0.715-0.292c0.139-0.195,0.208-0.55,0.208-1.064V154.301z"/>
			<path fill="#A0C219" d="M470.696,148.836h5.084v1.314l-2.388,10.947h-1.51l2.57-11.334h-3.758L470.696,148.836L470.696,148.836z"
				/>
		</g>
	</g>
</g>
</svg>
