<?xml version="1.0" encoding="utf-8"?>
<!-- Generator: Adobe Illustrator 16.0.0, SVG Export Plug-In . SVG Version: 6.00 Build 0)  -->
<!DOCTYPE svg PUBLIC "-//W3C//DTD SVG 1.1//EN" "http://www.w3.org/Graphics/SVG/1.1/DTD/svg11.dtd">
<svg version="1.1" id="Capa_1" xmlns="http://www.w3.org/2000/svg" xmlns:xlink="http://www.w3.org/1999/xlink" x="0px" y="0px"
	 width="133.139px" height="49.938px" viewBox="0 0 133.139 49.938" enable-background="new 0 0 133.139 49.938"
	 xml:space="preserve">
<g>
	<polygon fill="#331842" points="133.139,12.875 0,10.143 0,49.938 107.889,49.92 	"/>
	<g>
		<g>
			<path fill="#A0C219" d="M39.406,23.142h1.748l1.855,13.411h0.19l1.748-13.411h1.64l-2.168,14.896h-2.683L39.406,23.142z"/>
			<path fill="#A0C219" d="M54.769,26.182v8.816c0,1.279-0.23,2.147-0.691,2.605s-1.283,0.687-2.466,0.687
				c-1.165,0-1.978-0.231-2.438-0.696s-0.691-1.33-0.691-2.596v-8.816c0-1.252,0.232-2.109,0.697-2.57
				c0.465-0.461,1.285-0.691,2.459-0.691c1.174,0,1.989,0.229,2.445,0.687S54.769,24.923,54.769,26.182z M52.967,25.979
				c0-0.754-0.1-1.271-0.298-1.55c-0.199-0.279-0.551-0.42-1.057-0.42c-0.497,0-0.842,0.137-1.037,0.41
				c-0.194,0.271-0.291,0.792-0.291,1.56V35.2c0,0.774,0.1,1.296,0.298,1.565c0.199,0.27,0.551,0.404,1.057,0.404
				c0.497,0,0.842-0.135,1.037-0.404c0.194-0.27,0.292-0.791,0.292-1.565V25.979z"/>
			<path fill="#A0C219" d="M57.804,23.142h1.72v13.715h3.103v1.182h-4.823V23.142z"/>
			<path fill="#A0C219" d="M62.667,23.142h1.748l1.856,13.411h0.189l1.748-13.411h1.639L67.68,38.038h-2.683L62.667,23.142z"/>
			<path fill="#A0C219" d="M71.826,23.142h4.769v1.182h-3.048v5.362h2.913v1.172h-2.913v5.999h3.129v1.182h-4.85V23.142z"/>
			<path fill="#A0C219" d="M79.155,23.142h2.628c1.354,0,2.271,0.142,2.75,0.425c0.479,0.282,0.718,0.791,0.718,1.524v3.373
				c0,0.62-0.158,1.058-0.474,1.313c-0.316,0.256-0.876,0.41-1.68,0.464c0.858,0.04,1.454,0.188,1.789,0.444
				c0.334,0.256,0.501,0.7,0.501,1.333v6.02h-1.829v-5.564c0-0.7-0.133-1.155-0.399-1.364c-0.267-0.208-0.815-0.312-1.646-0.312
				h-0.637v7.241h-1.72V23.142z M80.875,24.242v5.443h0.61c0.786,0,1.31-0.102,1.572-0.308c0.262-0.205,0.393-0.661,0.393-1.368
				v-2.07c0-0.714-0.131-1.175-0.393-1.384c-0.262-0.208-0.786-0.313-1.572-0.313H80.875z"/>
		</g>
	</g>
	<g>
		<g>
			<g>
				<path fill="#331842" d="M103.062,22.436c-0.878,0-1.703-0.342-2.324-0.963l-7.068-7.068c-0.654-0.653-1.014-1.522-1.014-2.447
					s0.36-1.794,1.014-2.447l6.998-6.998c0.643-0.643,1.529-1.012,2.433-1.012c0.806,0,1.573,0.292,2.16,0.822
					c0.666,0.599,1.063,1.458,1.087,2.354s-0.326,1.775-0.961,2.411l-1.582,1.582h9.188c1.805,0,3.291,1.367,3.383,3.112
					c0.047,0.897-0.28,1.786-0.898,2.438s-1.487,1.024-2.384,1.024h-9.29l1.51,1.51c1.278,1.277,1.361,3.295,0.19,4.593
					C104.884,22.038,103.993,22.436,103.062,22.436z"/>
				<path fill="#A0C219" d="M103.101,3c0.416,0,0.828,0.141,1.155,0.436c0.767,0.689,0.79,1.871,0.07,2.592l-3.172,3.174
					c-0.358,0.357-0.104,0.969,0.402,0.969h11.438c0.968,0,1.834,0.725,1.885,1.691c0.054,1.029-0.765,1.883-1.784,1.883h-11.539
					c-0.506,0-0.76,0.611-0.402,0.971l3.101,3.1c0.684,0.684,0.784,1.811,0.137,2.527c-0.356,0.396-0.843,0.594-1.33,0.594
					c-0.457,0-0.914-0.174-1.263-0.523l-7.069-7.068c-0.766-0.766-0.766-2.008,0-2.773l6.998-6.998C102.101,3.2,102.604,3,103.101,3
					 M103.101,0L103.101,0c-1.299,0-2.572,0.529-3.494,1.451l-6.998,6.998c-0.937,0.936-1.453,2.182-1.453,3.508
					s0.517,2.572,1.454,3.509l7.068,7.067c0.903,0.904,2.105,1.402,3.384,1.402c1.355,0,2.652-0.578,3.56-1.588
					c1.406-1.558,1.579-3.823,0.559-5.604h5.914c1.307,0,2.572-0.544,3.472-1.492s1.376-2.242,1.307-3.549
					c-0.133-2.541-2.277-4.533-4.88-4.533h-5.794c0.442-0.763,0.672-1.642,0.648-2.533c-0.035-1.307-0.612-2.557-1.585-3.432
					C105.403,0.43,104.279,0,103.101,0L103.101,0z"/>
			</g>
			<g>
				<path fill="#331842" d="M119.714,15.244c-1.812,0-3.286-1.475-3.286-3.287s1.474-3.287,3.286-3.287h2.059
					c1.812,0,3.287,1.475,3.287,3.287s-1.475,3.287-3.287,3.287H119.714z"/>
				<path fill="#A0C219" d="M121.773,10.17c0.987,0,1.787,0.801,1.787,1.787s-0.8,1.787-1.787,1.787h-2.059
					c-0.986,0-1.786-0.801-1.786-1.787s0.8-1.787,1.786-1.787H121.773 M121.773,7.17h-2.059c-2.639,0-4.786,2.147-4.786,4.787
					s2.147,4.787,4.786,4.787h2.059c2.64,0,4.787-2.147,4.787-4.787S124.413,7.17,121.773,7.17L121.773,7.17z"/>
			</g>
			<g>
				<path fill="#331842" d="M127.863,15.244c-1.812,0-3.286-1.475-3.286-3.287s1.474-3.287,3.286-3.287h0.192
					c1.812,0,3.287,1.475,3.287,3.287s-1.475,3.287-3.287,3.287H127.863z"/>
				<path fill="#A0C219" d="M128.056,10.17c0.987,0,1.787,0.801,1.787,1.787s-0.8,1.787-1.787,1.787h-0.192
					c-0.987,0-1.786-0.801-1.786-1.787s0.799-1.787,1.786-1.787H128.056 M128.056,7.17h-0.192c-2.639,0-4.786,2.147-4.786,4.787
					s2.147,4.787,4.786,4.787h0.192c2.64,0,4.787-2.147,4.787-4.787S130.695,7.17,128.056,7.17L128.056,7.17z"/>
			</g>
		</g>
	</g>
</g>
</svg>
