<?xml version="1.0" encoding="utf-8"?>
<!-- Generator: Adobe Illustrator 16.0.0, SVG Export Plug-In . SVG Version: 6.00 Build 0)  -->
<!DOCTYPE svg PUBLIC "-//W3C//DTD SVG 1.1//EN" "http://www.w3.org/Graphics/SVG/1.1/DTD/svg11.dtd">
<svg version="1.1" id="Capa_1" xmlns="http://www.w3.org/2000/svg" xmlns:xlink="http://www.w3.org/1999/xlink" x="0px" y="0px"
	 width="503.557px" height="330.967px" viewBox="0 0 503.557 330.967" enable-background="new 0 0 503.557 330.967"
	 xml:space="preserve">
<g>
	<polygon fill="#F2961C" points="0,272.711 15.853,330.967 223.113,322.362 235.816,272.711 	"/>
	<g>
		<g>
			<path fill="#331842" d="M59.038,284.815h2.174l2.49,12.851H62.1l-0.597-3.572h-2.829l-0.642,3.572h-1.566L59.038,284.815z
				 M60.066,285.766l-1.251,7.388h2.49l-1.168-7.388H60.066z"/>
			<path fill="#331842" d="M65.278,284.815h2.034l2.466,12.084h0.024l-0.222-12.084h1.345v12.851h-2.057l-2.443-11.918h-0.047
				l0.211,11.918h-1.309L65.278,284.815L65.278,284.815z"/>
			<path fill="#331842" d="M72.454,284.815h5.061v1.02h-1.776v11.831H74.23v-11.831h-1.776L72.454,284.815L72.454,284.815z"/>
			<path fill="#331842" d="M79.068,284.815h4.114v1.02h-2.629v4.627h2.512v1.009h-2.512v5.176h2.699v1.021h-4.183L79.068,284.815
				L79.068,284.815z"/>
			<path fill="#331842" d="M90.323,286.854v1.228h-1.566v-1.192c0-0.499-0.072-0.848-0.216-1.037
				c-0.145-0.192-0.4-0.288-0.766-0.288c-0.334,0-0.569,0.109-0.701,0.327s-0.198,0.675-0.198,1.372v7.954
				c0,0.715,0.07,1.179,0.21,1.394c0.14,0.215,0.397,0.321,0.771,0.321c0.32,0,0.55-0.101,0.689-0.306
				c0.14-0.202,0.21-0.549,0.21-1.035v-1.387h1.566v1.428c0,0.879-0.183,1.471-0.549,1.782c-0.367,0.311-1.021,0.467-1.964,0.467
				c-0.928,0-1.573-0.199-1.94-0.601s-0.55-1.146-0.55-2.239v-7.604c0-1.087,0.183-1.827,0.55-2.222
				c0.366-0.396,1.012-0.593,1.94-0.593c0.951,0,1.607,0.154,1.97,0.461C90.142,285.394,90.323,285.983,90.323,286.854z"/>
			<path fill="#331842" d="M92.263,284.815h4.114v1.02h-2.629v4.627h2.512v1.009h-2.512v5.176h2.699v1.021h-4.184L92.263,284.815
				L92.263,284.815z"/>
			<path fill="#331842" d="M98.585,284.815h1.742c1.472,0,2.435,0.173,2.887,0.519s0.677,1.138,0.677,2.374v7.065
				c0,1.231-0.229,2.021-0.689,2.369c-0.459,0.348-1.418,0.523-2.875,0.523h-1.741L98.585,284.815L98.585,284.815z M100.07,285.766
				v10.95h0.479c0.717,0,1.19-0.089,1.42-0.266c0.229-0.176,0.345-0.567,0.345-1.172v-8.049c0-0.61-0.117-1.007-0.351-1.189
				c-0.234-0.184-0.706-0.274-1.414-0.274H100.07L100.07,285.766z"/>
			<path fill="#331842" d="M106.509,284.815h4.114v1.02h-2.629v4.627h2.512v1.009h-2.512v5.176h2.699v1.021h-4.183L106.509,284.815
				L106.509,284.815z"/>
			<path fill="#331842" d="M112.831,284.815h2.034l2.466,12.084h0.024l-0.222-12.084h1.345v12.851h-2.057l-2.443-11.918h-0.047
				l0.211,11.918h-1.309L112.831,284.815L112.831,284.815z"/>
			<path fill="#331842" d="M120.007,284.815h5.061v1.02h-1.777v11.831h-1.507v-11.831h-1.776L120.007,284.815L120.007,284.815z"/>
			<path fill="#331842" d="M126.622,284.815h4.114v1.02h-2.629v4.627h2.512v1.009h-2.512v5.176h2.699v1.021h-4.184V284.815
				L126.622,284.815z"/>
			<path fill="#331842" d="M137.443,286.854v1.228h-1.554v-1.192c0-0.506-0.07-0.853-0.211-1.041
				c-0.14-0.189-0.389-0.284-0.748-0.284c-0.343,0-0.584,0.106-0.725,0.317c-0.141,0.212-0.21,0.59-0.21,1.13v0.626
				c0,0.263,0.049,0.53,0.146,0.807c0.097,0.275,0.239,0.536,0.427,0.78l1.939,2.552c0.327,0.43,0.565,0.835,0.713,1.215
				s0.222,0.773,0.222,1.18v0.871c0,1.114-0.188,1.867-0.567,2.257c-0.377,0.389-1.05,0.585-2.017,0.585
				c-0.943,0-1.598-0.157-1.968-0.471c-0.37-0.314-0.556-0.907-0.556-1.777v-1.429h1.568v1.385c0,0.524,0.07,0.877,0.211,1.065
				c0.141,0.186,0.397,0.277,0.771,0.277c0.382,0,0.645-0.106,0.789-0.316c0.144-0.213,0.216-0.679,0.216-1.398v-0.888
				c0-0.332-0.041-0.632-0.122-0.902c-0.082-0.271-0.201-0.517-0.356-0.737l-2.057-2.733c-0.289-0.365-0.508-0.714-0.662-1.046
				c-0.152-0.33-0.227-0.618-0.227-0.862v-0.749c0-0.999,0.185-1.693,0.554-2.087c0.372-0.391,1.007-0.587,1.912-0.587
				c0.951,0,1.607,0.154,1.969,0.46C137.262,285.394,137.443,285.983,137.443,286.854z"/>
			<path fill="#331842" d="M143.182,284.815h2.033l2.467,12.084h0.023l-0.222-12.084h1.345v12.851h-2.057l-2.442-11.918h-0.048
				l0.212,11.918h-1.31L143.182,284.815L143.182,284.815z"/>
			<path fill="#331842" d="M156.843,287.438v7.604c0,1.104-0.198,1.854-0.596,2.248c-0.398,0.396-1.106,0.594-2.127,0.594
				c-1.005,0-1.706-0.201-2.104-0.602c-0.398-0.401-0.597-1.146-0.597-2.239v-7.604c0-1.079,0.201-1.818,0.602-2.217
				c0.401-0.397,1.109-0.596,2.122-0.596c1.012,0,1.715,0.198,2.109,0.593C156.647,285.611,156.843,286.352,156.843,287.438z
				 M155.289,287.264c0-0.65-0.085-1.097-0.257-1.337c-0.171-0.241-0.475-0.362-0.912-0.362c-0.428,0-0.727,0.118-0.894,0.354
				c-0.167,0.234-0.251,0.684-0.251,1.346v7.954c0,0.669,0.086,1.117,0.257,1.352c0.172,0.232,0.476,0.347,0.913,0.347
				c0.428,0,0.727-0.116,0.893-0.347c0.167-0.234,0.251-0.683,0.251-1.352V287.264z"/>
			<path fill="#331842" d="M159.461,284.815h2.267c1.169,0,1.959,0.122,2.372,0.366c0.413,0.243,0.619,0.682,0.619,1.315v2.91
				c0,0.534-0.134,0.912-0.409,1.133c-0.274,0.22-0.756,0.354-1.449,0.401c0.74,0.033,1.253,0.163,1.542,0.383
				c0.288,0.22,0.432,0.604,0.432,1.149v5.192h-1.576v-4.801c0-0.604-0.117-0.996-0.345-1.176c-0.229-0.18-0.703-0.271-1.42-0.271
				h-0.551v6.247h-1.483v-12.851H159.461z M160.946,285.766v4.696h0.526c0.676,0,1.129-0.09,1.354-0.267s0.338-0.57,0.338-1.181
				v-1.785c0-0.616-0.112-1.014-0.338-1.194c-0.227-0.18-0.678-0.27-1.354-0.27H160.946L160.946,285.766z"/>
			<path fill="#331842" d="M167.432,284.815h2.583l1.671,11.831h0.118l1.635-11.831h2.512v12.851h-1.296v-11.884h-0.234
				l-1.682,11.884h-2.081l-1.742-11.884h-0.198v11.884h-1.285V284.815L167.432,284.815z"/>
			<path fill="#331842" d="M180.088,284.815h2.174l2.489,12.851h-1.602l-0.597-3.572h-2.828l-0.643,3.572h-1.567L180.088,284.815z
				 M181.117,285.766l-1.251,7.388h2.491l-1.169-7.388H181.117z"/>
			<path fill="#331842" d="M184.554,284.815h5.061v1.02h-1.776v11.831h-1.508v-11.831h-1.776V284.815L184.554,284.815z"/>
			<path fill="#331842" d="M191.167,284.815h1.578v12.851h-1.578V284.815z"/>
			<path fill="#331842" d="M194.393,284.815h1.508l1.601,11.57h0.164l1.507-11.57h1.416l-1.871,12.851h-2.312L194.393,284.815z"/>
			<path fill="#331842" d="M207.646,287.438v7.604c0,1.104-0.199,1.854-0.597,2.248c-0.397,0.396-1.106,0.594-2.126,0.594
				c-1.006,0-1.707-0.201-2.104-0.602c-0.397-0.401-0.596-1.146-0.596-2.239v-7.604c0-1.079,0.199-1.818,0.6-2.217
				c0.402-0.397,1.109-0.596,2.122-0.596c1.012,0,1.716,0.198,2.11,0.593C207.449,285.611,207.646,286.352,207.646,287.438z
				 M206.091,287.264c0-0.65-0.084-1.097-0.257-1.337c-0.171-0.241-0.474-0.362-0.911-0.362c-0.429,0-0.728,0.118-0.894,0.354
				c-0.167,0.234-0.252,0.684-0.252,1.346v7.954c0,0.669,0.086,1.117,0.258,1.352c0.172,0.232,0.475,0.347,0.912,0.347
				c0.428,0,0.727-0.116,0.894-0.347c0.167-0.234,0.25-0.683,0.25-1.352V287.264L206.091,287.264z"/>
			<path fill="#331842" d="M214.763,286.854v1.228h-1.554v-1.192c0-0.506-0.07-0.853-0.211-1.041
				c-0.141-0.189-0.389-0.284-0.748-0.284c-0.343,0-0.584,0.106-0.725,0.317c-0.141,0.212-0.211,0.59-0.211,1.13v0.626
				c0,0.263,0.049,0.53,0.146,0.807c0.098,0.275,0.24,0.536,0.427,0.78l1.94,2.552c0.327,0.43,0.565,0.835,0.712,1.215
				c0.149,0.38,0.222,0.773,0.222,1.18v0.871c0,1.114-0.188,1.867-0.566,2.257c-0.378,0.389-1.05,0.585-2.017,0.585
				c-0.943,0-1.599-0.157-1.97-0.471c-0.369-0.314-0.554-0.907-0.554-1.777v-1.429h1.566v1.385c0,0.524,0.069,0.877,0.21,1.065
				c0.141,0.186,0.398,0.277,0.773,0.277c0.38,0,0.645-0.106,0.789-0.316c0.143-0.213,0.216-0.679,0.216-1.398v-0.888
				c0-0.332-0.042-0.632-0.124-0.902c-0.082-0.271-0.2-0.517-0.355-0.737l-2.057-2.733c-0.29-0.365-0.508-0.714-0.66-1.046
				c-0.153-0.33-0.229-0.618-0.229-0.862v-0.749c0-0.999,0.185-1.693,0.556-2.087c0.369-0.391,1.006-0.587,1.91-0.587
				c0.95,0,1.606,0.154,1.969,0.46C214.582,285.394,214.763,285.983,214.763,286.854z"/>
			<path fill="#331842" d="M86.279,301.171h1.578v12.849h-1.578V301.171z"/>
			<path fill="#331842" d="M90.486,301.171h2.034l2.466,12.081h0.023l-0.222-12.081h1.345v12.849h-2.057l-2.443-11.918h-0.046
				l0.21,11.918h-1.309L90.486,301.171L90.486,301.171z"/>
			<path fill="#331842" d="M97.662,301.171h5.061v1.019h-1.776v11.83h-1.507v-11.83h-1.776L97.662,301.171L97.662,301.171z"/>
			<path fill="#331842" d="M104.276,301.171h4.114v1.019h-2.629v4.626h2.512v1.011h-2.512v5.175h2.699v1.021h-4.183L104.276,301.171
				L104.276,301.171z"/>
			<path fill="#331842" d="M110.599,301.171h2.267c1.168,0,1.959,0.121,2.373,0.365c0.412,0.244,0.619,0.683,0.619,1.315v2.91
				c0,0.534-0.136,0.911-0.409,1.132c-0.273,0.222-0.756,0.355-1.449,0.4c0.74,0.036,1.254,0.164,1.542,0.384
				c0.289,0.221,0.433,0.604,0.433,1.15v5.191h-1.578v-4.8c0-0.604-0.115-0.996-0.345-1.176s-0.703-0.27-1.42-0.27h-0.549v6.246
				h-1.484L110.599,301.171L110.599,301.171z M112.083,302.12v4.695h0.526c0.678,0,1.129-0.088,1.355-0.266
				c0.227-0.177,0.339-0.571,0.339-1.181v-1.786c0-0.614-0.113-1.014-0.339-1.193c-0.226-0.18-0.678-0.271-1.355-0.271
				L112.083,302.12L112.083,302.12z"/>
			<path fill="#331842" d="M118.57,301.171h2.034l2.466,12.081h0.024l-0.223-12.081h1.345v12.849h-2.057l-2.443-11.918h-0.046
				l0.211,11.918h-1.31L118.57,301.171L118.57,301.171z"/>
			<path fill="#331842" d="M128.339,301.171h2.174l2.49,12.849h-1.601l-0.596-3.571h-2.83l-0.643,3.571h-1.566L128.339,301.171z
				 M129.369,302.12l-1.251,7.387h2.49l-1.169-7.387H129.369z"/>
			<path fill="#331842" d="M139.511,303.209v1.229h-1.566v-1.194c0-0.499-0.072-0.846-0.216-1.037
				c-0.145-0.191-0.399-0.286-0.765-0.286c-0.334,0-0.569,0.108-0.702,0.326c-0.132,0.217-0.199,0.674-0.199,1.372v7.955
				c0,0.714,0.07,1.179,0.211,1.392c0.139,0.215,0.396,0.323,0.771,0.323c0.32,0,0.551-0.101,0.689-0.306
				c0.14-0.203,0.21-0.549,0.21-1.036v-1.386h1.568v1.428c0,0.879-0.183,1.471-0.551,1.783c-0.366,0.309-1.02,0.465-1.963,0.465
				c-0.928,0-1.574-0.199-1.94-0.601c-0.366-0.4-0.549-1.146-0.549-2.238v-7.605c0-1.085,0.183-1.825,0.549-2.221
				c0.366-0.395,1.013-0.593,1.94-0.593c0.951,0,1.607,0.154,1.969,0.462S139.511,302.338,139.511,303.209z"/>
			<path fill="#331842" d="M141.452,301.171h1.578v12.849h-1.578V301.171z"/>
			<path fill="#331842" d="M151.012,303.793v7.605c0,1.103-0.199,1.853-0.597,2.247c-0.397,0.395-1.106,0.594-2.127,0.594
				c-1.004,0-1.706-0.2-2.104-0.601c-0.397-0.4-0.597-1.146-0.597-2.238v-7.604c0-1.08,0.201-1.822,0.602-2.22
				c0.402-0.398,1.109-0.597,2.121-0.597c1.013,0,1.716,0.198,2.11,0.593C150.814,301.966,151.012,302.708,151.012,303.793z
				 M149.458,303.619c0-0.65-0.086-1.098-0.257-1.338c-0.172-0.24-0.476-0.362-0.913-0.362c-0.428,0-0.727,0.118-0.894,0.354
				c-0.167,0.234-0.251,0.685-0.251,1.347v7.953c0,0.668,0.085,1.118,0.257,1.35c0.171,0.234,0.475,0.349,0.912,0.349
				c0.428,0,0.726-0.115,0.894-0.349c0.167-0.231,0.251-0.682,0.251-1.35V303.619z"/>
			<path fill="#331842" d="M153.63,301.171h2.033l2.468,12.081h0.023l-0.222-12.081h1.344v12.849h-2.057l-2.442-11.918h-0.048
				l0.212,11.918h-1.309v-12.849H153.63z"/>
			<path fill="#331842" d="M163.399,301.171h2.175l2.489,12.849h-1.602l-0.597-3.571h-2.83l-0.641,3.571h-1.567L163.399,301.171z
				 M164.428,302.12l-1.251,7.387h2.49l-1.169-7.387H164.428z"/>
			<path fill="#331842" d="M169.641,301.171h1.483v11.828h2.677v1.021h-4.162v-12.849H169.641z"/>
			<path fill="#331842" d="M175.238,301.171h4.114v1.019h-2.629v4.626h2.513v1.011h-2.513v5.175h2.7v1.021h-4.183v-12.851H175.238z"
				/>
			<path fill="#331842" d="M186.061,303.209v1.229h-1.554v-1.194c0-0.506-0.07-0.853-0.211-1.041
				c-0.14-0.189-0.389-0.282-0.748-0.282c-0.343,0-0.584,0.104-0.725,0.316c-0.141,0.213-0.211,0.589-0.211,1.129v0.628
				c0,0.263,0.05,0.528,0.146,0.808c0.098,0.274,0.24,0.534,0.427,0.778l1.94,2.553c0.327,0.429,0.565,0.835,0.714,1.214
				c0.148,0.381,0.222,0.775,0.222,1.18v0.872c0,1.114-0.189,1.867-0.566,2.257c-0.378,0.388-1.05,0.584-2.017,0.584
				c-0.943,0-1.6-0.158-1.969-0.47c-0.37-0.314-0.555-0.906-0.555-1.777v-1.429h1.567v1.385c0,0.524,0.07,0.879,0.21,1.065
				c0.141,0.186,0.397,0.276,0.772,0.276c0.381,0,0.645-0.104,0.788-0.316c0.144-0.212,0.216-0.678,0.216-1.397v-0.889
				c0-0.331-0.041-0.632-0.124-0.901c-0.081-0.271-0.2-0.516-0.354-0.737l-2.057-2.734c-0.289-0.366-0.508-0.714-0.661-1.046
				c-0.152-0.331-0.229-0.619-0.229-0.862v-0.748c0-0.999,0.185-1.694,0.555-2.086c0.371-0.393,1.007-0.59,1.91-0.59
				c0.951,0,1.607,0.155,1.97,0.463C185.878,301.75,186.061,302.338,186.061,303.209z"/>
		</g>
	</g>
</g>
<g>
	<path fill-rule="evenodd" clip-rule="evenodd" fill="#FFFFFF" d="M25.018,286.432c0.058,0.055,0.088,0.175,0.088,0.364v0.446
		c0,0.201-0.027,0.334-0.077,0.396c-0.049,0.065-0.14,0.099-0.271,0.099c-0.03,0-0.064-0.003-0.104-0.006v-1.385
		C24.84,286.347,24.959,286.374,25.018,286.432z"/>
	<path fill-rule="evenodd" clip-rule="evenodd" fill="#FFFFFF" d="M28.534,286.549c-0.015-0.072-0.051-0.12-0.108-0.155
		c-0.055-0.032-0.162-0.047-0.316-0.047v3.581c0.206,0,0.33-0.041,0.376-0.121c0.048-0.082,0.071-0.307,0.071-0.67v-2.114
		C28.558,286.776,28.549,286.618,28.534,286.549z M28.534,286.549c-0.015-0.072-0.051-0.12-0.108-0.155
		c-0.055-0.032-0.162-0.047-0.316-0.047v3.581c0.206,0,0.33-0.041,0.376-0.121c0.048-0.082,0.071-0.307,0.071-0.67v-2.114
		C28.558,286.776,28.549,286.618,28.534,286.549z M48.589,311.914c-0.148-6.586-0.046-13.174-0.046-19.761v-1.427
		c-2.513-0.019-4.969,0.293-6.866-1.725c-1.889-2.012-1.314-4.5-1.488-7.041h-1.466c-4.293-0.003-8.584-0.003-12.874-0.003
		c-3.474,0-5.103,1.619-5.112,5.119c-0.011,4.479-0.002,8.959-0.002,13.437c0,3.88,0.02,7.758-0.007,11.637
		c-0.022,3.002,2.008,4.938,4.761,4.74c2.171-0.157,4.365-0.03,6.548-0.037c0.353,0,0.709-0.044,1.193-0.079
		c-0.728-1.152-1.404-1.922-2.831-1.786c-1.492,0.144-3.009,0.032-4.514,0.031c-2.555-0.001-3.266-0.715-3.269-3.305
		c-0.005-5.535,0.025-11.066-0.026-16.603c-0.008-1.039,0.286-1.327,1.324-1.319c7.192,0.043,14.381,0.023,21.57,0.024
		c0.367,0,0.734,0.036,1.145,0.055c0.03,0.377,0.07,0.671,0.07,0.961c0.004,5.837,0.009,11.673,0,17.509
		c-0.001,1.51-0.66,2.489-1.925,2.62c-1.167,0.118-1.573,0.937-2.131,1.754C46.789,317.564,48.655,314.872,48.589,311.914z
		 M26.29,287.413c0,0.349-0.037,0.601-0.108,0.76c-0.072,0.161-0.204,0.282-0.397,0.364c-0.191,0.086-0.441,0.131-0.75,0.131h-0.38
		v2.193h-1.416v-5.448h1.426c0.385,0,0.682,0.033,0.887,0.093c0.208,0.061,0.364,0.148,0.468,0.263
		c0.104,0.115,0.178,0.252,0.214,0.415s0.056,0.415,0.056,0.755V287.413z M29.973,289.246c0,0.485-0.021,0.812-0.065,0.976
		c-0.049,0.164-0.129,0.295-0.244,0.388c-0.112,0.093-0.255,0.158-0.422,0.195c-0.169,0.034-0.421,0.057-0.761,0.057h-1.785v-5.448
		h1.06c0.682,0,1.145,0.033,1.388,0.096c0.238,0.064,0.424,0.167,0.547,0.31c0.126,0.146,0.203,0.304,0.235,0.479
		c0.03,0.176,0.046,0.522,0.046,1.04V289.246z M32.899,286.506h-0.98v1.031h0.873v1.035h-0.873v2.289h-1.418v-5.448h2.398V286.506z
		 M28.426,286.394c-0.055-0.032-0.162-0.047-0.316-0.047v3.581c0.206,0,0.33-0.041,0.376-0.121c0.048-0.082,0.071-0.307,0.071-0.67
		v-2.114c0-0.246-0.008-0.404-0.023-0.474C28.519,286.477,28.483,286.429,28.426,286.394z"/>
	<path fill-rule="evenodd" clip-rule="evenodd" fill="#FFFFFF" d="M35.133,306.593c0,2.396,0,4.739,0,7.204
		c-0.991,0-1.829,0-2.947,0c2.001,2.29,3.812,4.363,5.72,6.545c1.9-2.177,3.711-4.253,5.522-6.327
		c-0.048-0.096-0.096-0.194-0.143-0.29c-0.852,0-1.702,0-2.697,0c0-2.456,0-4.799,0-7.132
		C38.72,306.593,37.003,306.593,35.133,306.593z"/>
	<path fill-rule="evenodd" clip-rule="evenodd" fill="#FFFFFF" d="M48.531,289.355c-1.253-1.319-2.387-2.516-3.523-3.714
		c-1.114-1.17-2.227-2.341-3.458-3.634C40.752,288.463,43.283,290.108,48.531,289.355z"/>
</g>
</svg>
