<?xml version="1.0" encoding="utf-8"?>
<!-- Generator: Adobe Illustrator 16.0.0, SVG Export Plug-In . SVG Version: 6.00 Build 0)  -->
<!DOCTYPE svg PUBLIC "-//W3C//DTD SVG 1.1//EN" "http://www.w3.org/Graphics/SVG/1.1/DTD/svg11.dtd">
<svg version="1.1" id="Capa_1" xmlns="http://www.w3.org/2000/svg" xmlns:xlink="http://www.w3.org/1999/xlink" x="0px" y="0px"
	 width="633.297px" height="394.996px" viewBox="0 0 633.297 394.996" enable-background="new 0 0 633.297 394.996"
	 xml:space="preserve">
<g>
	<g>
		<path fill="#2C5A67" d="M0,0l5.793,394.996l583.07-2.949l32.044-343.09c-3.528,1.631-7.501,2.446-11.655,2.209
			c-13.488-0.771-23.804-12.34-23.032-25.838c0.209-3.664,1.218-7.102,2.844-10.135L0,0z"/>
		<path fill="#2C5A67" d="M611.345,14.708c-6.64-0.379-12.329,4.694-12.709,11.332c-0.379,6.637,4.693,12.324,11.334,12.703
			c6.636,0.381,12.323-4.692,12.703-11.329C623.053,20.776,617.982,15.089,611.345,14.708z M616.229,31.558
			c0.346,0.389,0.312,0.984-0.075,1.332c-0.393,0.346-0.984,0.312-1.33-0.077l-4.241-4.755l-4.756,4.24
			c-0.391,0.348-0.984,0.312-1.332-0.075c-0.339-0.39-0.305-0.983,0.076-1.331l4.754-4.24l-4.239-4.756
			c-0.347-0.391-0.306-0.982,0.086-1.333c0.379-0.336,0.976-0.312,1.322,0.077l4.241,4.755l4.756-4.241
			c0.387-0.335,0.979-0.302,1.33,0.076c0.345,0.392,0.312,0.984-0.077,1.333l-4.756,4.241L616.229,31.558z"/>
		<g>
			<path fill="#2C5A67" d="M588.049,25.434c0.713-12.465,11.435-22.025,23.898-21.312c12.465,0.713,22.024,11.434,21.312,23.897
				c-0.713,12.465-11.433,22.025-23.897,21.312C596.896,48.619,587.336,37.897,588.049,25.434z M595.038,25.833
				c-0.493,8.611,6.112,16.018,14.723,16.51c8.611,0.492,16.019-6.112,16.511-14.724c0.492-8.61-6.113-16.017-14.725-16.509
				C602.938,10.617,595.53,17.222,595.038,25.833z"/>
		</g>
	</g>
	<g>
		<g>
			<path fill="#A0C219" d="M274.601,227.322c1.857,0,3.717,0,5.574,0c0.995,0.184,1.988,0.374,2.984,0.549
				c18.37,3.207,30.329,21.133,26.478,39.387c-3.432,16.259-18.954,27.841-35.696,25.822c-13.38-1.613-22.521-8.9-27.461-21.354
				c-1.079-2.719-1.421-5.729-2.103-8.605c0-2.055,0-4.107,0-6.162c0.086-0.217,0.217-0.428,0.252-0.652
				c2.18-13.919,9.973-23.109,23.322-27.535C270.093,228.062,272.38,227.794,274.601,227.322z M248.775,260.152
				c-0.206,15.911,13.091,29.16,29.41,28.826c15.139-0.311,27.912-13.318,27.812-28.689c-0.106-16.442-13.729-28.931-29.377-28.607
				C261.491,231.992,248.65,244.943,248.775,260.152z"/>
			<path fill="#A0C219" d="M270.788,260.291c0-4.205,0.021-8.41-0.015-12.615c-0.009-1.059,0.154-1.957,1.189-2.451
				c1.172-0.559,2.25-0.385,3.271,0.429c4.169,3.313,8.351,6.61,12.529,9.913c1.303,1.029,2.617,2.046,3.911,3.087
				c1.486,1.196,1.497,2.128,0.025,3.292c-5.442,4.303-10.895,8.592-16.336,12.895c-1.046,0.828-2.146,1.127-3.399,0.523
				c-1.192-0.574-1.193-1.632-1.186-2.748C270.803,268.507,270.788,264.398,270.788,260.291z"/>
		</g>
		<g>
			<g>
				<path fill="#A0C219" d="M319.45,245.447h4.297c2.62,0,4.401,0.276,5.345,0.83c0.943,0.555,1.415,1.533,1.415,2.939v8.281
					c0,1.405-0.471,2.383-1.415,2.93c-0.943,0.547-2.725,0.82-5.345,0.82h-0.97v13.008h-3.327V245.447z M322.777,247.576v11.562
					h0.891c1.327,0,2.214-0.198,2.66-0.596c0.445-0.397,0.668-1.293,0.668-2.687v-5c0-1.394-0.223-2.288-0.668-2.687
					c-0.446-0.396-1.333-0.596-2.66-0.596h-0.891V247.576z"/>
				<path fill="#A0C219" d="M334.594,245.447h3.328v26.523h6v2.285h-9.328V245.447z"/>
				<path fill="#A0C219" d="M351.415,245.447h4.874l5.581,28.809h-3.591l-1.336-8.008h-6.34l-1.441,8.008h-3.512L351.415,245.447z
					 M353.721,247.576l-2.804,16.562h5.581l-2.62-16.562H353.721z"/>
				<path fill="#A0C219" d="M362.445,245.447h3.537l3.484,13.125h0.288l3.146-13.125h3.432l-5.292,16.562v12.246h-3.38v-12.246
					L362.445,245.447z"/>
			</g>
		</g>
	</g>
</g>
</svg>
