<?xml version="1.0" encoding="utf-8"?>
<!-- Generator: Adobe Illustrator 16.0.0, SVG Export Plug-In . SVG Version: 6.00 Build 0)  -->
<!DOCTYPE svg PUBLIC "-//W3C//DTD SVG 1.1//EN" "http://www.w3.org/Graphics/SVG/1.1/DTD/svg11.dtd">
<svg version="1.1" id="Capa_1" xmlns="http://www.w3.org/2000/svg" xmlns:xlink="http://www.w3.org/1999/xlink" x="0px" y="0px"
	 width="527.316px" height="328.895px" viewBox="0 0 527.316 328.895" enable-background="new 0 0 527.316 328.895"
	 xml:space="preserve">
<g>
	<g>
		<path fill="#A0C219" d="M0,0l4.824,328.895l485.494-2.455L517,40.764c-2.939,1.358-6.246,2.037-9.705,1.84
			c-11.229-0.643-19.82-10.275-19.178-21.514c0.174-3.051,1.014-5.914,2.367-8.439L0,0z"/>
		<path fill="#A0C219" d="M509.037,12.248c-5.527-0.316-10.266,3.907-10.582,9.435c-0.316,5.526,3.908,10.262,9.438,10.579
			c5.525,0.315,10.262-3.909,10.576-9.434C518.785,17.301,514.564,12.564,509.037,12.248z M513.103,26.277
			c0.287,0.324,0.262,0.818-0.062,1.109c-0.326,0.287-0.818,0.26-1.107-0.063l-3.529-3.959l-3.961,3.531
			c-0.324,0.287-0.82,0.26-1.109-0.063c-0.283-0.325-0.254-0.819,0.064-1.108l3.957-3.531l-3.529-3.96
			c-0.289-0.325-0.254-0.817,0.072-1.109c0.314-0.278,0.811-0.259,1.1,0.063l3.531,3.959l3.961-3.529
			c0.322-0.281,0.814-0.252,1.107,0.062c0.287,0.326,0.26,0.818-0.064,1.11l-3.959,3.53L513.103,26.277z"/>
		<g>
			<path fill="#A0C219" d="M489.64,21.178c0.594-10.379,9.521-18.339,19.898-17.746c10.379,0.593,18.34,9.521,17.746,19.898
				c-0.594,10.379-9.521,18.34-19.898,17.747C497.007,40.482,489.046,31.557,489.64,21.178z M495.458,21.511
				c-0.41,7.171,5.09,13.336,12.26,13.746c7.17,0.409,13.336-5.089,13.746-12.259c0.412-7.17-5.088-13.337-12.258-13.747
				C502.037,8.842,495.869,14.34,495.458,21.511z"/>
		</g>
	</g>
	<g>
		<path fill="#2C5A67" d="M169.217,30.031h9.223v2.285h-5.895v10.371h5.633v2.266h-5.633v11.602h6.053v2.285h-9.381V30.031z"/>
		<path fill="#2C5A67" d="M183.393,30.031h3.903c3.302,0,5.458,0.388,6.472,1.162c1.013,0.775,1.52,2.549,1.52,5.322v15.84
			c0,2.761-0.516,4.531-1.546,5.312c-1.03,0.781-3.179,1.172-6.445,1.172h-3.903L183.393,30.031L183.393,30.031z M186.72,32.16
			v24.551h1.074c1.606,0,2.668-0.198,3.184-0.596c0.515-0.396,0.772-1.272,0.772-2.627V35.441c0-1.367-0.262-2.256-0.786-2.666
			c-0.523-0.41-1.581-0.615-3.17-0.615H186.72z"/>
		<path fill="#2C5A67" d="M200.999,30.031h3.485v23.32c0,1.498,0.191,2.507,0.576,3.027c0.384,0.521,1.065,0.781,2.043,0.781
			c0.961,0,1.629-0.26,2.005-0.781s0.563-1.529,0.563-3.027v-23.32h3.484v22.93c0,2.475-0.445,4.154-1.336,5.039
			c-0.891,0.885-2.48,1.328-4.769,1.328c-2.253,0-3.825-0.449-4.716-1.348c-0.892-0.898-1.337-2.571-1.337-5.02V30.031H200.999z"/>
		<path fill="#2C5A67" d="M230.082,34.602v2.754h-3.511V34.68c0-1.119-0.161-1.895-0.484-2.324
			c-0.323-0.429-0.896-0.645-1.716-0.645c-0.752,0-1.275,0.244-1.572,0.732c-0.298,0.488-0.445,1.514-0.445,3.076v17.832
			c0,1.602,0.156,2.644,0.471,3.125c0.314,0.482,0.892,0.723,1.729,0.723c0.716,0,1.231-0.228,1.546-0.684
			c0.314-0.455,0.472-1.23,0.472-2.324v-3.105h3.511v3.203c0,1.967-0.41,3.298-1.23,3.994c-0.822,0.696-2.289,1.045-4.402,1.045
			c-2.079,0-3.528-0.449-4.35-1.348c-0.822-0.899-1.231-2.571-1.231-5.02V35.91c0-2.435,0.41-4.095,1.231-4.98
			c0.821-0.885,2.271-1.328,4.35-1.328c2.131,0,3.603,0.346,4.415,1.035C229.676,31.327,230.082,32.648,230.082,34.602z"/>
		<path fill="#2C5A67" d="M237.707,30.031h4.873l5.581,28.809h-3.589l-1.337-8.008h-6.341l-1.441,8.008h-3.511L237.707,30.031z
			 M240.013,32.16l-2.804,16.562h5.581l-2.62-16.562H240.013z"/>
		<path fill="#2C5A67" d="M262.756,34.602v2.754h-3.512V34.68c0-1.119-0.161-1.895-0.484-2.324
			c-0.323-0.429-0.896-0.645-1.717-0.645c-0.751,0-1.274,0.244-1.571,0.732c-0.298,0.488-0.446,1.514-0.446,3.076v17.832
			c0,1.602,0.158,2.644,0.473,3.125c0.314,0.482,0.891,0.723,1.729,0.723c0.717,0,1.231-0.228,1.546-0.684
			c0.314-0.455,0.472-1.23,0.472-2.324v-3.105h3.512v3.203c0,1.967-0.411,3.298-1.232,3.994c-0.82,0.696-2.288,1.045-4.401,1.045
			c-2.079,0-3.528-0.449-4.35-1.348c-0.822-0.899-1.231-2.571-1.231-5.02V35.91c0-2.435,0.41-4.095,1.231-4.98
			c0.821-0.885,2.271-1.328,4.35-1.328c2.131,0,3.603,0.346,4.415,1.035C262.35,31.327,262.756,32.648,262.756,34.602z"/>
		<path fill="#2C5A67" d="M267.104,30.031h3.537V58.84h-3.537V30.031z"/>
		<path fill="#2C5A67" d="M288.537,35.91v17.051c0,2.475-0.445,4.154-1.336,5.039s-2.479,1.328-4.769,1.328
			c-2.255,0-3.825-0.449-4.718-1.348c-0.891-0.898-1.336-2.571-1.336-5.02V35.91c0-2.422,0.449-4.078,1.351-4.971
			c0.899-0.892,2.483-1.338,4.755-1.338s3.848,0.443,4.729,1.328C288.096,31.815,288.537,33.476,288.537,35.91z M285.053,35.52
			c0-1.458-0.192-2.457-0.576-2.998c-0.386-0.54-1.065-0.811-2.044-0.811c-0.961,0-1.629,0.264-2.005,0.791
			s-0.563,1.533-0.563,3.018v17.832c0,1.498,0.192,2.507,0.577,3.027c0.384,0.521,1.063,0.781,2.043,0.781
			c0.961,0,1.63-0.26,2.005-0.781s0.563-1.529,0.563-3.027V35.52z M283.296,23.059h3.695l-3.434,4.355h-2.566L283.296,23.059z"/>
		<path fill="#2C5A67" d="M294.406,30.031h4.559l5.529,27.09h0.053l-0.498-27.09h3.014V58.84h-4.611l-5.477-26.719h-0.104
			l0.471,26.719h-2.934V30.031H294.406z"/>
	</g>
	<g>
		<path fill="#2C5A67" d="M114.517,43.848c0.36-0.43,0.72-0.859,1.09-1.279c0.57-0.631,1.271-0.87,2.09-0.681
			c3.78,0.91,7.561,1.811,11.34,2.721c0.61,0.149,1.23,0.289,1.841,0.47c0.739,0.229,0.87,0.66,0.39,1.25
			c-0.4,0.49-0.79,1-1.22,1.46c-0.431,0.45-0.99,0.64-1.8,0.64c-0.75-0.18-1.681-0.399-2.601-0.62c-3.43-0.84-6.87-1.67-10.3-2.5
			c-0.16-0.04-0.311-0.08-0.46-0.14C114.076,44.888,113.967,44.498,114.517,43.848z"/>
		<path fill="#2C5A67" d="M118.767,18.118c-20.81,0-37.68,16.87-37.68,37.67c0,20.81,16.87,37.68,37.68,37.68
			c20.8,0,37.67-16.87,37.67-37.68C156.437,34.988,139.566,18.118,118.767,18.118z M101.536,66.818c0.421,0.27,0.921,0.46,1.4,0.6
			c3.62,1.09,7.26,2.15,10.88,3.22c2.5,0.74,5,1.48,7.49,2.23c0.31,0.09,0.51,0.029,0.729-0.23c1.69-2.05,3.4-4.08,5.101-6.12
			c1.939-2.34,3.89-4.68,5.83-7.02c1.37-1.65,2.71-3.33,4.14-4.93c0.51-0.57,0.4-1.11,0.32-1.71c-0.2-1.421,0.03-2.771,0.62-4.061
			c0.33-0.729,1.31-1.01,2.16-0.7c0.75,0.271,1.27,1.2,0.979,2.05c-0.45,1.301-0.42,2.53,0.01,3.82c0.28,0.86-0.31,1.5-0.819,2.12
			c-2.42,2.9-4.83,5.81-7.261,8.71c-2.119,2.54-4.239,5.07-6.359,7.61c-0.95,1.14-1.891,2.27-2.811,3.42
			c-0.62,0.76-1.31,1.02-2.27,0.74c-2.82-0.82-5.641-1.66-8.46-2.49c-4.07-1.2-8.15-2.351-12.2-3.63
			c-1.99-0.63-3.33-2.13-4.18-4.011c-0.54-1.199-0.83-2.47-0.771-3.81c0.21-2.63,0.71-5.18,2.49-7.28
			c0.86-1.01,1.77-1.96,2.65-2.939c1.51-1.681,3.01-3.36,4.51-5.03c1.13-1.26,2.28-2.5,3.41-3.75c1.47-1.64,2.93-3.28,4.409-4.91
			c0.961-1.07,1.931-2.149,2.91-3.2c0.561-0.59,1.23-0.72,2.03-0.529c2.37,0.56,4.76,1.069,7.15,1.6c4.6,1.03,9.189,2.06,13.79,3.09
			c0.21,0.05,0.42,0.08,0.619,0.141c1.45,0.439,1.891,1.949,0.891,3.09c-2.41,2.77-4.84,5.529-7.25,8.3
			c-2.45,2.81-4.88,5.64-7.32,8.46c-1.26,1.44-2.55,2.86-3.79,4.32c-0.66,0.77-1.47,0.89-2.35,0.64
			c-5.11-1.45-10.22-2.92-15.32-4.39c-0.83-0.23-1.66-0.471-2.5-0.7c-1.03-0.28-2.12,0.25-2.51,1.22
			C99.106,62.708,99.576,65.518,101.536,66.818z"/>
	</g>
</g>
</svg>
