<?xml version="1.0" encoding="utf-8"?>
<!-- Generator: Adobe Illustrator 16.0.0, SVG Export Plug-In . SVG Version: 6.00 Build 0)  -->
<!DOCTYPE svg PUBLIC "-//W3C//DTD SVG 1.1//EN" "http://www.w3.org/Graphics/SVG/1.1/DTD/svg11.dtd">
<svg version="1.1" id="Capa_1" xmlns="http://www.w3.org/2000/svg" xmlns:xlink="http://www.w3.org/1999/xlink" x="0px" y="0px"
	 width="197.462px" height="39.795px" viewBox="0 0 197.462 39.795" enable-background="new 0 0 197.462 39.795"
	 xml:space="preserve">
<polygon opacity="0.7" fill="#FFFFFF" points="0,2.73 197.462,0 197.462,39.795 25.25,39.775 "/>
<g>
	<g>
		<path fill="#331842" d="M31.896,12.998h2.994l1.938,13.715h0.136l1.896-13.715h2.913v14.896h-1.504V14.119h-0.271l-1.951,13.775
			h-2.412l-2.019-13.775h-0.23v13.775h-1.49V12.998z"/>
		<path fill="#331842" d="M46.569,12.998h2.52l2.886,14.896h-1.856l-0.691-4.141h-3.278l-0.745,4.141h-1.815L46.569,12.998z
			 M47.761,14.1l-1.45,8.563h2.886L47.842,14.1H47.761z"/>
		<path fill="#331842" d="M53.803,12.998h2.357l2.858,14.008h0.027l-0.258-14.008h1.558v14.896h-2.384l-2.832-13.815h-0.054
			l0.244,13.815h-1.518V12.998z"/>
		<path fill="#331842" d="M63.436,12.998h2.019c1.707,0,2.822,0.201,3.346,0.602c0.524,0.4,0.786,1.317,0.786,2.752v8.189
			c0,1.428-0.267,2.344-0.799,2.747c-0.533,0.404-1.644,0.606-3.333,0.606h-2.019V12.998z M65.156,14.1v12.693h0.555
			c0.831,0,1.38-0.102,1.646-0.308c0.266-0.205,0.399-0.658,0.399-1.358v-9.331c0-0.707-0.135-1.167-0.406-1.379
			s-0.817-0.317-1.64-0.317H65.156z"/>
		<path fill="#331842" d="M74.314,12.998h2.52l2.886,14.896h-1.856l-0.69-4.141h-3.279l-0.745,4.141h-1.815L74.314,12.998z
			 M75.506,14.1l-1.449,8.563h2.886L75.588,14.1H75.506z"/>
		<path fill="#331842" d="M79.49,12.998h5.866v1.182h-2.06v13.715h-1.747V14.18h-2.06V12.998z"/>
		<path fill="#331842" d="M93.363,16.038v8.816c0,1.279-0.23,2.147-0.691,2.605s-1.283,0.687-2.466,0.687
			c-1.165,0-1.978-0.232-2.438-0.696c-0.46-0.465-0.691-1.33-0.691-2.596v-8.816c0-1.252,0.232-2.108,0.697-2.57
			c0.465-0.461,1.285-0.691,2.459-0.691c1.174,0,1.989,0.229,2.445,0.687S93.363,14.779,93.363,16.038z M91.561,15.836
			c0-0.754-0.1-1.271-0.298-1.55c-0.199-0.279-0.551-0.419-1.057-0.419c-0.497,0-0.842,0.136-1.037,0.408
			c-0.194,0.273-0.291,0.793-0.291,1.561v9.221c0,0.774,0.1,1.296,0.298,1.565c0.199,0.269,0.551,0.403,1.057,0.403
			c0.497,0,0.842-0.135,1.037-0.403c0.194-0.27,0.292-0.791,0.292-1.565V15.836z"/>
		<path fill="#331842" d="M101.613,15.361v1.424h-1.802v-1.383c0-0.586-0.081-0.988-0.243-1.207
			c-0.163-0.219-0.452-0.328-0.867-0.328c-0.397,0-0.678,0.123-0.84,0.368c-0.163,0.246-0.244,0.682-0.244,1.308v0.728
			c0,0.303,0.056,0.614,0.169,0.935c0.113,0.319,0.278,0.621,0.495,0.903l2.249,2.959c0.379,0.498,0.654,0.968,0.826,1.409
			c0.171,0.44,0.257,0.896,0.257,1.368v1.01c0,1.293-0.219,2.165-0.657,2.616c-0.438,0.45-1.218,0.676-2.337,0.676
			c-1.093,0-1.854-0.182-2.283-0.545c-0.429-0.363-0.644-1.051-0.644-2.061v-1.656h1.815v1.605c0,0.606,0.081,1.018,0.244,1.232
			c0.162,0.216,0.46,0.323,0.894,0.323c0.442,0,0.748-0.123,0.915-0.368c0.167-0.246,0.25-0.786,0.25-1.621v-1.03
			c0-0.384-0.047-0.732-0.142-1.045c-0.095-0.313-0.233-0.598-0.414-0.854l-2.384-3.171c-0.334-0.425-0.589-0.828-0.766-1.212
			c-0.176-0.384-0.264-0.718-0.264-1v-0.868c0-1.158,0.214-1.965,0.644-2.419s1.167-0.682,2.215-0.682
			c1.102,0,1.862,0.179,2.283,0.535C101.403,13.668,101.613,14.352,101.613,15.361z"/>
		<path fill="#331842" d="M108.265,12.998h4.769v1.182h-3.048v5.363h2.913v1.171h-2.913v5.999h3.13v1.182h-4.851V12.998z"/>
		<path fill="#331842" d="M120.811,15.361v1.424h-1.802v-1.383c0-0.586-0.081-0.988-0.243-1.207
			c-0.163-0.219-0.452-0.328-0.867-0.328c-0.397,0-0.678,0.123-0.84,0.368c-0.163,0.246-0.244,0.682-0.244,1.308v0.728
			c0,0.303,0.056,0.614,0.169,0.935c0.113,0.319,0.278,0.621,0.495,0.903l2.249,2.959c0.379,0.498,0.654,0.968,0.826,1.409
			c0.171,0.44,0.257,0.896,0.257,1.368v1.01c0,1.293-0.219,2.165-0.657,2.616c-0.438,0.45-1.218,0.676-2.337,0.676
			c-1.093,0-1.854-0.182-2.283-0.545c-0.429-0.363-0.644-1.051-0.644-2.061v-1.656h1.815v1.605c0,0.606,0.081,1.018,0.244,1.232
			c0.162,0.216,0.46,0.323,0.894,0.323c0.442,0,0.748-0.123,0.915-0.368c0.167-0.246,0.25-0.786,0.25-1.621v-1.03
			c0-0.384-0.047-0.732-0.142-1.045c-0.095-0.313-0.233-0.598-0.414-0.854l-2.384-3.171c-0.334-0.425-0.589-0.828-0.766-1.212
			c-0.176-0.384-0.264-0.718-0.264-1v-0.868c0-1.158,0.214-1.965,0.644-2.419s1.167-0.682,2.215-0.682
			c1.102,0,1.862,0.179,2.283,0.535C120.601,13.668,120.811,14.352,120.811,15.361z"/>
		<path fill="#331842" d="M123.222,12.998h2.222c1.354,0,2.276,0.144,2.764,0.43c0.488,0.286,0.731,0.793,0.731,1.52v4.282
			c0,0.728-0.244,1.231-0.731,1.515c-0.487,0.283-1.409,0.424-2.764,0.424h-0.501v6.727h-1.721V12.998z M124.943,14.1v5.979h0.46
			c0.686,0,1.145-0.104,1.375-0.309c0.23-0.205,0.345-0.668,0.345-1.389v-2.585c0-0.721-0.115-1.184-0.345-1.389
			c-0.23-0.206-0.689-0.308-1.375-0.308H124.943z"/>
		<path fill="#331842" d="M131.053,12.998h4.769v1.182h-3.049v5.363h2.913v1.171h-2.913v5.999h3.13v1.182h-4.85V12.998z"/>
		<path fill="#331842" d="M144.099,15.361v1.424h-1.815v-1.383c0-0.58-0.083-0.98-0.25-1.202c-0.167-0.223-0.463-0.333-0.887-0.333
			c-0.389,0-0.66,0.126-0.813,0.379c-0.153,0.252-0.23,0.782-0.23,1.59v9.221c0,0.828,0.082,1.367,0.244,1.615
			c0.163,0.25,0.461,0.374,0.895,0.374c0.37,0,0.637-0.118,0.799-0.354c0.163-0.235,0.244-0.636,0.244-1.202v-1.605h1.815v1.656
			c0,1.017-0.212,1.705-0.637,2.065c-0.425,0.36-1.184,0.54-2.276,0.54c-1.075,0-1.824-0.232-2.249-0.696
			c-0.425-0.465-0.637-1.33-0.637-2.596v-8.816c0-1.259,0.212-2.117,0.637-2.575c0.424-0.458,1.174-0.687,2.249-0.687
			c1.102,0,1.863,0.179,2.283,0.535S144.099,14.352,144.099,15.361z"/>
		<path fill="#331842" d="M146.348,12.998h1.829v14.896h-1.829V12.998z M147.649,9.393h1.91l-1.774,2.252h-1.328L147.649,9.393z"/>
		<path fill="#331842" d="M151.226,12.998h4.633v1.182h-2.913v5.403h2.805v1.171h-2.805v7.141h-1.72V12.998z"/>
		<path fill="#331842" d="M157.972,12.998h1.829v14.896h-1.829V12.998z"/>
		<path fill="#331842" d="M168.566,15.361v1.424h-1.815v-1.383c0-0.58-0.083-0.98-0.25-1.202c-0.167-0.223-0.463-0.333-0.888-0.333
			c-0.388,0-0.659,0.126-0.812,0.379c-0.154,0.252-0.23,0.782-0.23,1.59v9.221c0,0.828,0.081,1.367,0.244,1.615
			c0.162,0.25,0.46,0.374,0.894,0.374c0.371,0,0.637-0.118,0.8-0.354c0.162-0.235,0.244-0.636,0.244-1.202v-1.605h1.815v1.656
			c0,1.017-0.212,1.705-0.637,2.065s-1.183,0.54-2.276,0.54c-1.075,0-1.825-0.232-2.249-0.696c-0.425-0.465-0.637-1.33-0.637-2.596
			v-8.816c0-1.259,0.212-2.117,0.637-2.575c0.424-0.458,1.174-0.687,2.249-0.687c1.102,0,1.862,0.179,2.283,0.535
			C168.356,13.668,168.566,14.352,168.566,15.361z"/>
		<path fill="#331842" d="M177.021,16.038v8.816c0,1.279-0.23,2.147-0.691,2.605c-0.461,0.458-1.283,0.687-2.466,0.687
			c-1.165,0-1.978-0.232-2.438-0.696c-0.461-0.465-0.691-1.33-0.691-2.596v-8.816c0-1.252,0.232-2.108,0.698-2.57
			c0.465-0.461,1.285-0.691,2.459-0.691c1.174,0,1.989,0.229,2.445,0.687S177.021,14.779,177.021,16.038z M175.218,15.836
			c0-0.754-0.099-1.271-0.298-1.55s-0.551-0.419-1.057-0.419c-0.497,0-0.842,0.136-1.036,0.408
			c-0.194,0.273-0.292,0.793-0.292,1.561v9.221c0,0.774,0.099,1.296,0.298,1.565c0.198,0.269,0.551,0.403,1.057,0.403
			c0.496,0,0.842-0.135,1.036-0.403c0.194-0.27,0.291-0.791,0.291-1.565V15.836z"/>
		<path fill="#331842" d="M185.271,15.361v1.424h-1.802v-1.383c0-0.586-0.081-0.988-0.244-1.207
			c-0.162-0.219-0.452-0.328-0.867-0.328c-0.397,0-0.677,0.123-0.84,0.368c-0.162,0.246-0.244,0.682-0.244,1.308v0.728
			c0,0.303,0.056,0.614,0.169,0.935c0.113,0.319,0.277,0.621,0.494,0.903l2.249,2.959c0.379,0.498,0.655,0.968,0.827,1.409
			c0.171,0.44,0.257,0.896,0.257,1.368v1.01c0,1.293-0.219,2.165-0.657,2.616c-0.438,0.45-1.217,0.676-2.337,0.676
			c-1.093,0-1.854-0.182-2.283-0.545s-0.644-1.051-0.644-2.061v-1.656h1.815v1.605c0,0.606,0.082,1.018,0.244,1.232
			c0.163,0.216,0.461,0.323,0.895,0.323c0.442,0,0.747-0.123,0.914-0.368c0.167-0.246,0.251-0.786,0.251-1.621v-1.03
			c0-0.384-0.048-0.732-0.143-1.045c-0.095-0.313-0.232-0.598-0.413-0.854l-2.384-3.171c-0.334-0.425-0.589-0.828-0.766-1.212
			s-0.264-0.718-0.264-1v-0.868c0-1.158,0.215-1.965,0.644-2.419s1.167-0.682,2.215-0.682c1.102,0,1.863,0.179,2.283,0.535
			S185.271,14.352,185.271,15.361z"/>
	</g>
</g>
</svg>
