<?xml version="1.0" encoding="utf-8"?>
<!-- Generator: Adobe Illustrator 16.0.0, SVG Export Plug-In . SVG Version: 6.00 Build 0)  -->
<!DOCTYPE svg PUBLIC "-//W3C//DTD SVG 1.1//EN" "http://www.w3.org/Graphics/SVG/1.1/DTD/svg11.dtd">
<svg version="1.1" id="Capa_1" xmlns="http://www.w3.org/2000/svg" xmlns:xlink="http://www.w3.org/1999/xlink" x="0px" y="0px"
	 width="197.462px" height="39.795px" viewBox="0 0 197.462 39.795" enable-background="new 0 0 197.462 39.795"
	 xml:space="preserve">
<polygon fill="#331842" points="0,2.732 197.462,0 197.462,39.795 25.25,39.777 "/>
<g>
	<path fill="#A0C219" d="M89.054,12.999h1.829v14.896h-1.829V12.999z"/>
	<path fill="#A0C219" d="M93.931,12.999h2.357l2.858,14.008h0.027l-0.257-14.008h1.558v14.896H98.09L95.259,14.08h-0.055
		l0.244,13.815h-1.518V12.999z"/>
	<path fill="#A0C219" d="M103.563,12.999h1.829v14.896h-1.829V12.999z"/>
	<path fill="#A0C219" d="M114.158,15.362v1.424h-1.815v-1.383c0-0.58-0.083-0.98-0.25-1.202c-0.167-0.223-0.463-0.333-0.888-0.333
		c-0.388,0-0.659,0.126-0.812,0.379c-0.154,0.252-0.23,0.782-0.23,1.59v9.221c0,0.828,0.081,1.367,0.244,1.615
		c0.162,0.25,0.46,0.374,0.894,0.374c0.371,0,0.637-0.118,0.8-0.354c0.162-0.235,0.244-0.636,0.244-1.202v-1.605h1.815v1.656
		c0,1.017-0.212,1.705-0.637,2.065s-1.183,0.54-2.276,0.54c-1.075,0-1.825-0.232-2.249-0.696c-0.425-0.465-0.637-1.33-0.637-2.596
		v-8.816c0-1.259,0.212-2.117,0.637-2.575c0.424-0.458,1.174-0.687,2.249-0.687c1.102,0,1.862,0.179,2.283,0.535
		C113.948,13.669,114.158,14.353,114.158,15.362z"/>
	<path fill="#A0C219" d="M116.407,12.999h1.829v14.896h-1.829V12.999z"/>
	<path fill="#A0C219" d="M127.489,16.039v8.816c0,1.279-0.23,2.147-0.691,2.605c-0.461,0.458-1.283,0.687-2.466,0.687
		c-1.165,0-1.978-0.232-2.438-0.696c-0.461-0.465-0.691-1.33-0.691-2.596v-8.816c0-1.252,0.232-2.108,0.698-2.57
		c0.465-0.461,1.285-0.691,2.459-0.691c1.174,0,1.989,0.229,2.445,0.687S127.489,14.78,127.489,16.039z M125.687,15.837
		c0-0.754-0.099-1.271-0.298-1.55s-0.551-0.419-1.057-0.419c-0.497,0-0.842,0.136-1.036,0.408c-0.194,0.273-0.292,0.793-0.292,1.561
		v9.221c0,0.774,0.099,1.296,0.298,1.565c0.198,0.269,0.551,0.403,1.057,0.403c0.496,0,0.842-0.135,1.036-0.403
		c0.194-0.27,0.291-0.791,0.291-1.565V15.837z"/>
</g>
</svg>
