<?xml version="1.0" encoding="utf-8"?>
<!-- Generator: Adobe Illustrator 16.0.0, SVG Export Plug-In . SVG Version: 6.00 Build 0)  -->
<!DOCTYPE svg PUBLIC "-//W3C//DTD SVG 1.1//EN" "http://www.w3.org/Graphics/SVG/1.1/DTD/svg11.dtd">
<svg version="1.1" id="Capa_1" xmlns="http://www.w3.org/2000/svg" xmlns:xlink="http://www.w3.org/1999/xlink" x="0px" y="0px"
	 width="527.316px" height="328.895px" viewBox="0 0 527.316 328.895" enable-background="new 0 0 527.316 328.895"
	 xml:space="preserve">
<g>
	<g>
		<path fill="#A0C219" d="M0,0l4.824,328.895l485.494-2.455L517,40.764c-2.938,1.358-6.244,2.037-9.703,1.84
			c-11.23-0.643-19.822-10.275-19.178-21.514c0.174-3.051,1.014-5.914,2.367-8.439L0,0z"/>
		<path fill="#A0C219" d="M509.037,12.248c-5.527-0.316-10.266,3.907-10.582,9.435c-0.316,5.526,3.908,10.262,9.438,10.579
			c5.525,0.315,10.262-3.909,10.576-9.434C518.787,17.301,514.564,12.564,509.037,12.248z M513.103,26.277
			c0.287,0.324,0.26,0.818-0.062,1.109c-0.326,0.287-0.818,0.26-1.107-0.063l-3.529-3.959l-3.961,3.531
			c-0.324,0.287-0.82,0.26-1.109-0.063c-0.283-0.325-0.254-0.819,0.064-1.108l3.957-3.531l-3.529-3.96
			c-0.289-0.325-0.254-0.817,0.072-1.109c0.314-0.278,0.811-0.259,1.1,0.063l3.531,3.959l3.959-3.529
			c0.322-0.281,0.816-0.252,1.107,0.062c0.287,0.326,0.26,0.818-0.062,1.11l-3.959,3.53L513.103,26.277z"/>
		<g>
			<path fill="#A0C219" d="M489.64,21.178c0.594-10.379,9.52-18.339,19.898-17.746c10.379,0.593,18.338,9.521,17.746,19.898
				c-0.594,10.379-9.521,18.34-19.898,17.747C497.007,40.482,489.046,31.557,489.64,21.178z M495.458,21.511
				c-0.41,7.171,5.09,13.336,12.26,13.746c7.17,0.409,13.336-5.089,13.746-12.259c0.412-7.17-5.088-13.337-12.258-13.747
				C502.037,8.842,495.869,14.34,495.458,21.511z"/>
		</g>
	</g>
	<g>
		<path fill="#2C5A67" d="M182.113,87.113v2.754h-3.485v-2.676c0-1.133-0.157-1.91-0.471-2.334
			c-0.314-0.423-0.874-0.635-1.677-0.635c-0.769,0-1.31,0.238-1.624,0.713c-0.314,0.476-0.472,1.318-0.472,2.529v1.406
			c0,0.586,0.109,1.188,0.327,1.807c0.219,0.619,0.537,1.201,0.957,1.748l4.349,5.723c0.734,0.964,1.267,1.872,1.599,2.725
			c0.332,0.854,0.498,1.735,0.498,2.646v1.953c0,2.5-0.424,4.187-1.271,5.059c-0.847,0.872-2.354,1.309-4.52,1.309
			c-2.113,0-3.585-0.352-4.415-1.055c-0.83-0.703-1.245-2.031-1.245-3.984v-3.203h3.511v3.105c0,1.172,0.157,1.967,0.472,2.383
			c0.314,0.417,0.891,0.625,1.729,0.625c0.855,0,1.445-0.237,1.769-0.713c0.323-0.475,0.484-1.52,0.484-3.135v-1.992
			c0-0.742-0.091-1.416-0.274-2.021c-0.184-0.605-0.45-1.155-0.8-1.65l-4.611-6.133c-0.646-0.82-1.14-1.602-1.48-2.344
			c-0.34-0.742-0.511-1.387-0.511-1.934v-1.68c0-2.239,0.415-3.799,1.245-4.678c0.83-0.879,2.257-1.318,4.284-1.318
			c2.131,0,3.603,0.346,4.415,1.035C181.707,83.839,182.113,85.16,182.113,87.113z"/>
		<path fill="#2C5A67" d="M190.052,82.543h4.874l5.581,28.809h-3.589l-1.337-8.008h-6.34l-1.441,8.008h-3.511L190.052,82.543z
			 M192.357,84.672l-2.803,16.562h5.581l-2.62-16.562H192.357z"/>
		<path fill="#2C5A67" d="M204.043,82.543h3.328v26.523h6v2.285h-9.328V82.543z"/>
		<path fill="#2C5A67" d="M216.437,82.543h3.484v23.32c0,1.498,0.192,2.507,0.577,3.027c0.384,0.521,1.065,0.781,2.043,0.781
			c0.961,0,1.629-0.26,2.005-0.781c0.375-0.521,0.563-1.529,0.563-3.027v-23.32h3.484v22.93c0,2.475-0.445,4.154-1.336,5.039
			c-0.891,0.885-2.48,1.328-4.769,1.328c-2.254,0-3.826-0.449-4.717-1.348c-0.891-0.898-1.336-2.571-1.336-5.02V82.543H216.437z"/>
		<path fill="#2C5A67" d="M234.463,82.543h3.904c3.301,0,5.458,0.388,6.472,1.162c1.013,0.775,1.52,2.549,1.52,5.322v15.84
			c0,2.761-0.516,4.531-1.546,5.312c-1.031,0.781-3.18,1.172-6.446,1.172h-3.904V82.543z M237.79,84.672v24.551h1.075
			c1.607,0,2.668-0.198,3.183-0.596c0.515-0.396,0.773-1.272,0.773-2.627V87.953c0-1.367-0.262-2.256-0.786-2.666
			c-0.524-0.41-1.581-0.615-3.17-0.615H237.79z"/>
	</g>
	<g>
		<g>
			<polygon fill="#2C5A67" points="121.827,108.389 128.337,108.389 128.337,114.52 121.827,114.52 121.827,121.029 
				115.697,121.029 115.697,114.52 109.177,114.52 109.177,108.389 115.697,108.389 115.697,101.869 121.827,101.869 			"/>
			<path fill="#2C5A67" d="M118.757,70.629c-20.81,0-37.67,16.87-37.67,37.67c0,20.811,16.86,37.681,37.67,37.681
				s37.68-16.87,37.68-37.681C156.437,87.499,139.567,70.629,118.757,70.629z M138.167,110.089c-1.1,3.65-3.01,6.84-5.56,9.65
				c-2.5,2.75-5.19,5.29-8.24,7.43c-1.41,1-2.87,1.91-4.3,2.87c-1.18,0.79-2.28,0.78-3.43-0.14c-3.81-3.03-7.71-5.96-11.06-9.521
				c-2.96-3.149-5.26-6.71-6.39-10.939c-1.16-4.36-0.73-8.521,1.88-12.29c3.62-5.21,10.23-6.08,15.12-2.021
				c0.71,0.59,1.32,1.311,1.97,1.98c0.18,0.18,0.34,0.359,0.55,0.6c0.68-0.59,1.32-1.149,1.97-1.71c1.4-1.22,2.87-2.33,4.74-2.77
				c4.09-0.971,9.05,1.06,11.33,4.63C139.207,101.709,139.467,105.81,138.167,110.089z"/>
			<polygon fill="#2C5A67" points="128.337,108.389 128.337,114.52 121.827,114.52 121.827,121.029 115.697,121.029 115.697,114.52 
				109.177,114.52 109.177,108.389 115.697,108.389 115.697,101.869 121.827,101.869 121.827,108.389 			"/>
			<polygon fill="#2C5A67" points="128.337,108.389 128.337,114.52 121.827,114.52 121.827,121.029 115.697,121.029 115.697,114.52 
				109.177,114.52 109.177,108.389 115.697,108.389 115.697,101.869 121.827,101.869 121.827,108.389 			"/>
		</g>
	</g>
</g>
</svg>
