<?xml version="1.0" encoding="utf-8"?>
<!-- Generator: Adobe Illustrator 16.0.0, SVG Export Plug-In . SVG Version: 6.00 Build 0)  -->
<!DOCTYPE svg PUBLIC "-//W3C//DTD SVG 1.1//EN" "http://www.w3.org/Graphics/SVG/1.1/DTD/svg11.dtd">
<svg version="1.1" id="Capa_1" xmlns="http://www.w3.org/2000/svg" xmlns:xlink="http://www.w3.org/1999/xlink" x="0px" y="0px"
	 width="430.359px" height="269.746px" viewBox="0 0 430.359 269.746" enable-background="new 0 0 430.359 269.746"
	 xml:space="preserve">
<g>
	<g>
		<path fill="#F2961C" d="M6.398,4.748h3.932l2.544,18.012h0.178l2.491-18.012h3.825V24.31h-1.975V6.221h-0.356l-2.562,18.09h-3.167
			l-2.65-18.09H8.355v18.09H6.398V4.748z"/>
		<path fill="#F2961C" d="M25.667,4.748h3.309l3.79,19.562h-2.438l-0.907-5.438h-4.306l-0.979,5.438h-2.384L25.667,4.748z
			 M27.233,6.193L25.329,17.44h3.79L27.34,6.193H27.233z"/>
		<path fill="#F2961C" d="M35.169,4.748h3.096l3.754,18.396h0.036L41.716,4.748h2.046V24.31h-3.131L36.912,6.167h-0.071l0.32,18.144
			h-1.993L35.169,4.748L35.169,4.748z"/>
		<path fill="#F2961C" d="M47.819,4.748h2.651c2.242,0,3.707,0.263,4.395,0.789c0.688,0.526,1.032,1.73,1.032,3.614v10.757
			c0,1.874-0.35,3.076-1.05,3.607c-0.7,0.53-2.159,0.795-4.377,0.795h-2.651V4.748z M50.079,6.193v16.672h0.729
			c1.091,0,1.812-0.135,2.162-0.404c0.35-0.269,0.525-0.864,0.525-1.784V8.422c0-0.929-0.178-1.532-0.534-1.811
			c-0.356-0.278-1.074-0.418-2.153-0.418H50.079z"/>
		<path fill="#F2961C" d="M62.106,4.748h3.309l3.79,19.562h-2.438l-0.907-5.438h-4.306l-0.979,5.438h-2.384L62.106,4.748z
			 M63.672,6.193L61.768,17.44h3.79L63.779,6.193H63.672z"/>
		<path fill="#F2961C" d="M68.903,4.748h7.704V6.3h-2.704v18.011h-2.295V6.3h-2.704L68.903,4.748L68.903,4.748z"/>
		<path fill="#F2961C" d="M87.123,8.74v11.578c0,1.681-0.302,2.821-0.907,3.422c-0.605,0.602-1.684,0.902-3.238,0.902
			c-1.53,0-2.598-0.305-3.203-0.915s-0.907-1.746-0.907-3.409V8.74c0-1.646,0.305-2.771,0.916-3.375
			c0.611-0.606,1.687-0.909,3.229-0.909s2.613,0.301,3.212,0.901C86.823,5.959,87.123,7.087,87.123,8.74z M84.756,8.475
			c0-0.99-0.131-1.669-0.391-2.035c-0.261-0.367-0.724-0.551-1.388-0.551c-0.653,0-1.106,0.179-1.361,0.537
			c-0.255,0.357-0.382,1.041-0.382,2.049v12.109c0,1.018,0.13,1.702,0.391,2.056s0.723,0.53,1.388,0.53
			c0.652,0,1.106-0.176,1.361-0.53s0.382-1.038,0.382-2.056V8.475z"/>
		<path fill="#F2961C" d="M97.958,7.852v1.87h-2.366V7.904c0-0.77-0.107-1.297-0.32-1.585c-0.213-0.287-0.593-0.431-1.139-0.431
			c-0.522,0-0.89,0.161-1.103,0.484c-0.214,0.322-0.32,0.895-0.32,1.717v0.955c0,0.398,0.074,0.807,0.222,1.227
			c0.148,0.421,0.365,0.816,0.649,1.188l2.954,3.887c0.498,0.654,0.86,1.271,1.085,1.85c0.225,0.579,0.338,1.179,0.338,1.797v1.326
			c0,1.698-0.288,2.844-0.863,3.436c-0.575,0.592-1.598,0.889-3.069,0.889c-1.435,0-2.435-0.238-2.998-0.716
			c-0.563-0.478-0.845-1.38-0.845-2.706v-2.175h2.384v2.108c0,0.796,0.107,1.336,0.32,1.618c0.213,0.283,0.605,0.425,1.174,0.425
			c0.581,0,0.981-0.162,1.201-0.484c0.219-0.322,0.329-1.032,0.329-2.129v-1.353c0-0.504-0.062-0.962-0.187-1.373
			c-0.125-0.411-0.305-0.784-0.543-1.12l-3.131-4.165c-0.439-0.558-0.774-1.088-1.005-1.592s-0.347-0.941-0.347-1.313V8.527
			c0-1.521,0.282-2.579,0.845-3.176s1.533-0.896,2.909-0.896c1.447,0,2.447,0.234,2.998,0.703
			C97.681,5.627,97.958,6.525,97.958,7.852z"/>
		<path fill="#F2961C" d="M106.695,4.748h6.263V6.3h-4.003v7.043h3.825v1.538h-3.825v7.879h4.11v1.551h-6.37V4.748z"/>
		<path fill="#F2961C" d="M123.17,7.852v1.87h-2.366V7.904c0-0.77-0.107-1.297-0.32-1.585c-0.213-0.287-0.593-0.431-1.139-0.431
			c-0.522,0-0.89,0.161-1.103,0.484c-0.214,0.322-0.32,0.895-0.32,1.717v0.955c0,0.398,0.074,0.807,0.222,1.227
			c0.148,0.421,0.365,0.816,0.649,1.188l2.954,3.887c0.498,0.654,0.86,1.271,1.085,1.85c0.225,0.579,0.338,1.179,0.338,1.797v1.326
			c0,1.698-0.288,2.844-0.863,3.436c-0.575,0.592-1.598,0.889-3.069,0.889c-1.435,0-2.435-0.238-2.998-0.716
			c-0.563-0.478-0.845-1.38-0.845-2.706v-2.175h2.384v2.108c0,0.796,0.107,1.336,0.32,1.618c0.213,0.283,0.605,0.425,1.174,0.425
			c0.581,0,0.981-0.162,1.201-0.484c0.219-0.322,0.329-1.032,0.329-2.129v-1.353c0-0.504-0.062-0.962-0.187-1.373
			c-0.125-0.411-0.305-0.784-0.543-1.12l-3.131-4.165c-0.439-0.558-0.774-1.088-1.005-1.592s-0.347-0.941-0.347-1.313V8.527
			c0-1.521,0.282-2.579,0.845-3.176s1.533-0.896,2.909-0.896c1.447,0,2.447,0.234,2.998,0.703
			C122.893,5.627,123.17,6.525,123.17,7.852z"/>
		<path fill="#F2961C" d="M126.337,4.748h2.918c1.779,0,2.989,0.188,3.63,0.563c0.641,0.376,0.961,1.041,0.961,1.996v5.624
			c0,0.955-0.32,1.617-0.961,1.989c-0.64,0.371-1.85,0.557-3.63,0.557h-0.658v8.833h-2.26V4.748z M128.597,6.193v7.852h0.605
			c0.901,0,1.504-0.135,1.806-0.404c0.302-0.27,0.454-0.877,0.454-1.823V8.422c0-0.946-0.151-1.554-0.454-1.824
			c-0.302-0.27-0.905-0.404-1.806-0.404L128.597,6.193L128.597,6.193z"/>
		<path fill="#F2961C" d="M136.622,4.748h6.263V6.3h-4.003v7.043h3.825v1.538h-3.825v7.879h4.11v1.551h-6.37V4.748z"/>
		<path fill="#F2961C" d="M153.756,7.852v1.87h-2.384V7.904c0-0.76-0.11-1.286-0.329-1.578c-0.22-0.292-0.608-0.438-1.166-0.438
			c-0.51,0-0.866,0.166-1.068,0.497c-0.202,0.332-0.302,1.028-0.302,2.089v12.109c0,1.088,0.107,1.795,0.32,2.122
			c0.214,0.327,0.605,0.491,1.174,0.491c0.486,0,0.836-0.155,1.05-0.465c0.214-0.309,0.32-0.835,0.32-1.578v-2.108h2.384v2.175
			c0,1.335-0.279,2.239-0.836,2.713c-0.558,0.473-1.554,0.709-2.989,0.709c-1.412,0-2.396-0.305-2.954-0.915
			s-0.836-1.746-0.836-3.409V8.74c0-1.653,0.279-2.781,0.836-3.383c0.557-0.601,1.542-0.901,2.954-0.901
			c1.447,0,2.447,0.234,2.998,0.703C153.479,5.628,153.756,6.525,153.756,7.852z"/>
		<path fill="#F2961C" d="M156.709,4.748h2.402V24.31h-2.402V4.748z M158.417,0.013h2.509l-2.331,2.958h-1.744L158.417,0.013z"/>
		<path fill="#F2961C" d="M163.115,4.748h6.085V6.3h-3.825v7.096h3.683v1.538h-3.683v9.377h-2.26V4.748L163.115,4.748z"/>
		<path fill="#F2961C" d="M171.975,4.748h2.402V24.31h-2.402V4.748z"/>
		<path fill="#F2961C" d="M185.889,7.852v1.87h-2.384V7.904c0-0.76-0.11-1.286-0.329-1.578c-0.22-0.292-0.608-0.438-1.166-0.438
			c-0.51,0-0.866,0.166-1.068,0.497c-0.202,0.332-0.302,1.028-0.302,2.089v12.109c0,1.088,0.107,1.795,0.32,2.122
			c0.214,0.327,0.605,0.491,1.174,0.491c0.486,0,0.836-0.155,1.05-0.465c0.214-0.309,0.32-0.835,0.32-1.578v-2.108h2.384v2.175
			c0,1.335-0.279,2.239-0.836,2.713c-0.558,0.473-1.554,0.709-2.989,0.709c-1.412,0-2.396-0.305-2.954-0.915
			c-0.558-0.61-0.836-1.746-0.836-3.409V8.74c0-1.653,0.279-2.781,0.836-3.383c0.557-0.601,1.542-0.901,2.954-0.901
			c1.447,0,2.447,0.234,2.998,0.703C185.612,5.628,185.889,6.525,185.889,7.852z"/>
		<path fill="#F2961C" d="M196.991,8.74v11.578c0,1.681-0.302,2.821-0.907,3.422c-0.605,0.602-1.684,0.902-3.238,0.902
			c-1.53,0-2.598-0.305-3.203-0.915s-0.907-1.746-0.907-3.409V8.74c0-1.646,0.305-2.771,0.916-3.375
			c0.611-0.606,1.687-0.909,3.229-0.909s2.613,0.301,3.212,0.901C196.692,5.959,196.991,7.087,196.991,8.74z M194.625,8.475
			c0-0.99-0.131-1.669-0.391-2.035c-0.261-0.367-0.724-0.551-1.388-0.551c-0.653,0-1.106,0.179-1.361,0.537
			c-0.255,0.357-0.382,1.041-0.382,2.049v12.109c0,1.018,0.13,1.702,0.391,2.056c0.261,0.354,0.723,0.53,1.388,0.53
			c0.652,0,1.106-0.176,1.361-0.53c0.255-0.354,0.382-1.038,0.382-2.056V8.475z"/>
		<path fill="#F2961C" d="M207.827,7.852v1.87h-2.366V7.904c0-0.77-0.107-1.297-0.32-1.585c-0.213-0.287-0.593-0.431-1.139-0.431
			c-0.522,0-0.89,0.161-1.103,0.484c-0.214,0.322-0.32,0.895-0.32,1.717v0.955c0,0.398,0.074,0.807,0.222,1.227
			c0.148,0.421,0.365,0.816,0.649,1.188l2.954,3.887c0.498,0.654,0.86,1.271,1.085,1.85c0.225,0.579,0.338,1.179,0.338,1.797v1.326
			c0,1.698-0.288,2.844-0.863,3.436c-0.575,0.592-1.598,0.889-3.069,0.889c-1.435,0-2.435-0.238-2.998-0.716
			c-0.563-0.478-0.845-1.38-0.845-2.706v-2.175h2.384v2.108c0,0.796,0.107,1.336,0.32,1.618c0.213,0.283,0.605,0.425,1.174,0.425
			c0.581,0,0.981-0.162,1.201-0.484c0.219-0.322,0.329-1.032,0.329-2.129v-1.353c0-0.504-0.062-0.962-0.187-1.373
			c-0.125-0.411-0.305-0.784-0.543-1.12l-3.131-4.165c-0.439-0.558-0.774-1.088-1.005-1.592c-0.231-0.504-0.347-0.941-0.347-1.313
			V8.527c0-1.521,0.282-2.579,0.845-3.176s1.533-0.896,2.909-0.896c1.447,0,2.447,0.234,2.998,0.703
			C207.55,5.627,207.827,6.525,207.827,7.852z"/>
	</g>
	<g>
		<g>
			<circle fill="#2C5A67" cx="37.675" cy="195.298" r="37.675"/>
			<path fill="#FFFFFF" d="M37.626,184.702c0.682-0.593,1.322-1.147,1.963-1.705c1.408-1.222,2.875-2.335,4.743-2.776
				c4.09-0.968,9.05,1.062,11.333,4.639c2.455,3.848,2.72,7.945,1.421,12.228c-1.107,3.647-3.015,6.843-5.567,9.651
				c-2.495,2.75-5.19,5.287-8.232,7.431c-1.41,0.993-2.873,1.911-4.306,2.871c-1.182,0.791-2.273,0.772-3.426-0.144
				c-3.81-3.03-7.708-5.963-11.058-9.52c-2.965-3.146-5.262-6.716-6.391-10.938c-1.167-4.36-0.733-8.528,1.879-12.297
				c3.613-5.211,10.228-6.076,15.114-2.021c0.716,0.595,1.323,1.318,1.977,1.986C37.249,184.281,37.409,184.465,37.626,184.702z"/>
			<polygon fill="#2C5A67" points="47.253,195.384 40.74,195.384 40.74,188.87 34.61,188.87 34.61,195.384 28.097,195.384 
				28.097,201.514 34.61,201.514 34.61,208.025 40.74,208.025 40.74,201.514 47.253,201.514 			"/>
		</g>
		<g>
			<g>
				<path fill="#F2961C" d="M19.34,246.88v1.87h-2.366v-1.816c0-0.77-0.107-1.298-0.32-1.584c-0.213-0.287-0.593-0.433-1.139-0.433
					c-0.522,0-0.89,0.162-1.103,0.483c-0.214,0.324-0.32,0.896-0.32,1.719v0.955c0,0.396,0.074,0.807,0.222,1.227
					s0.365,0.815,0.649,1.188l2.954,3.886c0.498,0.654,0.86,1.271,1.085,1.852s0.338,1.178,0.338,1.797v1.326
					c0,1.696-0.288,2.842-0.863,3.436c-0.575,0.592-1.598,0.889-3.069,0.889c-1.435,0-2.435-0.238-2.998-0.717
					s-0.845-1.379-0.845-2.705v-2.176h2.384v2.109c0,0.795,0.107,1.334,0.32,1.617c0.213,0.282,0.605,0.424,1.174,0.424
					c0.581,0,0.981-0.16,1.201-0.483c0.219-0.322,0.329-1.032,0.329-2.128v-1.354c0-0.505-0.062-0.962-0.187-1.373
					c-0.125-0.41-0.305-0.785-0.543-1.121l-3.131-4.164c-0.439-0.558-0.774-1.088-1.005-1.592s-0.347-0.941-0.347-1.312v-1.141
					c0-1.521,0.282-2.58,0.845-3.178c0.563-0.597,1.533-0.895,2.909-0.895c1.447,0,2.447,0.234,2.998,0.701
					C19.064,244.656,19.34,245.555,19.34,246.88z"/>
				<path fill="#F2961C" d="M24.731,243.775h3.309l3.79,19.563h-2.438l-0.907-5.438h-4.306L23.2,263.34h-2.384L24.731,243.775z
					 M26.296,245.223l-1.904,11.248h3.79l-1.779-11.248H26.296z"/>
				<path fill="#F2961C" d="M34.232,243.775h2.26v18.013h4.074v1.552h-6.334V243.775z"/>
				<path fill="#F2961C" d="M42.648,243.775h2.366v15.838c0,1.017,0.13,1.701,0.391,2.056c0.261,0.354,0.723,0.53,1.388,0.53
					c0.652,0,1.106-0.178,1.361-0.53c0.255-0.354,0.382-1.039,0.382-2.056v-15.838h2.366v15.572c0,1.68-0.302,2.819-0.907,3.422
					c-0.605,0.602-1.684,0.901-3.238,0.901c-1.53,0-2.598-0.306-3.203-0.916c-0.605-0.608-0.907-1.746-0.907-3.407L42.648,243.775
					L42.648,243.775z"/>
				<path fill="#F2961C" d="M54.889,243.775h2.651c2.242,0,3.707,0.265,4.395,0.789c0.688,0.526,1.032,1.731,1.032,3.615v10.756
					c0,1.875-0.35,3.078-1.05,3.607c-0.7,0.53-2.159,0.796-4.377,0.796h-2.651V243.775z M57.149,245.223v16.672h0.729
					c1.091,0,1.812-0.135,2.162-0.404s0.525-0.864,0.525-1.783V247.45c0-0.929-0.178-1.531-0.534-1.81
					c-0.356-0.279-1.074-0.418-2.153-0.418H57.149L57.149,245.223z"/>
			</g>
		</g>
	</g>
	<g>
		<g>
			<circle fill="#2C5A67" cx="209.601" cy="195.298" r="37.675"/>
			<g>
				<path fill="#FFFFFF" d="M204.54,178.852c2.913,0,5.827,0,8.741,0c0.09,0.024,0.178,0.064,0.269,0.074
					c1.276,0.131,2.201,0.786,2.836,1.885c0.438,0.758,0.468,1.586,0.456,2.428c-0.009,0.666,0.116,0.92,0.758,1.113
					c0.582,0.178,1.205,0.306,1.812,0.313c2.603,0.033,5.205,0.007,7.808,0.019c1.283,0.006,2.391,1.021,2.399,2.262
					c0.024,3.369,0.019,6.74,0.001,10.111c-0.006,0.959-0.936,2.191-1.867,2.403c-0.779,0.177-1.594,0.274-2.395,0.281
					c-3.586,0.028-7.172,0.015-10.759,0.009c-0.321,0-0.648-0.021-0.963-0.078c-0.962-0.176-1.725-0.732-2.44-1.354
					c-0.567-0.492-1.201-0.752-1.955-0.717c-0.336,0.016-0.687-0.047-1.008,0.028c-0.448,0.103-0.888,0.269-1.302,0.47
					c-0.26,0.125-0.465,0.362-0.697,0.547c-0.914,0.723-1.917,1.131-3.118,1.119c-3.532-0.031-7.065-0.002-10.599-0.021
					c-0.696-0.004-1.396-0.087-2.086-0.183c-0.57-0.078-1.096-0.287-1.417-0.82c-0.273-0.453-0.55-0.904-0.824-1.356
					c0-3.589,0-7.178,0-10.766c0.023-0.03,0.059-0.056,0.071-0.091c0.46-1.307,1.221-1.852,2.597-1.852
					c2.52,0,5.039,0.004,7.559-0.002c0.689-0.002,1.368-0.08,1.999-0.396c0.384-0.191,0.604-0.473,0.568-0.928
					c-0.021-0.269-0.014-0.539-0.001-0.809c0.066-1.443,0.688-2.568,1.994-3.225C203.456,179.081,204.017,179.003,204.54,178.852z
					 M208.892,184.604c0,0.025,0,0.051,0,0.074c1.012,0,2.026,0.049,3.034-0.018c0.645-0.043,1.286-0.227,1.915-0.402
					c0.305-0.085,0.532-0.341,0.542-0.689c0.012-0.4,0.016-0.811-0.033-1.209c-0.074-0.594-0.537-0.986-1.13-1.006
					c-0.311-0.012-0.621-0.006-0.931-0.006c-2.522,0-5.045,0-7.566,0.002c-0.588,0.002-1.029,0.291-1.207,0.773
					c-0.478,1.301-0.038,2.129,1.299,2.438c0.092,0.021,0.186,0.041,0.278,0.041C206.359,184.605,207.625,184.604,208.892,184.604z"
					/>
				<path fill="#FFFFFF" d="M225.18,211.874c-10.847,0-21.692,0-32.538,0c-0.061-0.024-0.119-0.062-0.182-0.069
					c-1.194-0.188-2.062-1.072-2.078-2.262c-0.037-2.589-0.019-5.178-0.032-7.768c-0.002-0.332,0.215-0.325,0.428-0.336
					c0.754-0.031,1.509-0.076,2.264-0.078c3.303-0.01,6.606,0.021,9.909-0.016c1.189-0.014,2.224,0.316,3.153,1.03
					c0.235,0.181,0.463,0.369,0.689,0.562c0.402,0.344,0.871,0.537,1.393,0.582c1.229,0.108,2.356-0.021,3.328-0.955
					c0.854-0.818,1.927-1.227,3.159-1.217c3.384,0.027,6.769,0.004,10.152,0.014c0.754,0.002,1.509,0.05,2.263,0.08
					c0.209,0.011,0.391,0.035,0.389,0.336c-0.017,2.603-0.014,5.203-0.033,7.806c-0.004,0.7-0.317,1.302-0.889,1.687
					C226.146,211.546,225.643,211.678,225.18,211.874z"/>
			</g>
		</g>
		<g>
			<g>
				<path fill="#F2961C" d="M171.009,243.775h7.704v1.553h-2.704v18.012h-2.295v-18.012h-2.704L171.009,243.775L171.009,243.775z"/>
				<path fill="#F2961C" d="M181.08,243.775h3.452c1.779,0,2.983,0.187,3.612,0.559c0.628,0.371,0.943,1.039,0.943,2.003v4.431
					c0,0.812-0.208,1.387-0.623,1.724s-1.151,0.54-2.206,0.61c1.127,0.053,1.909,0.248,2.348,0.584s0.658,0.918,0.658,1.75v7.904
					h-2.402v-7.308c0-0.921-0.175-1.517-0.525-1.791c-0.35-0.273-1.071-0.411-2.162-0.411h-0.836v9.51h-2.26L181.08,243.775
					L181.08,243.775z M183.34,245.223v7.148h0.801c1.032,0,1.72-0.135,2.064-0.404c0.344-0.27,0.516-0.869,0.516-1.797v-2.72
					c0-0.937-0.172-1.543-0.516-1.816c-0.344-0.274-1.032-0.411-2.064-0.411H183.34z"/>
				<path fill="#F2961C" d="M195.438,243.775h3.309l3.79,19.563H200.1l-0.907-5.438h-4.306l-0.979,5.438h-2.384L195.438,243.775z
					 M197.004,245.223l-1.904,11.248h3.79l-1.779-11.248H197.004z"/>
				<path fill="#F2961C" d="M204.94,243.775h3.452c1.779,0,2.983,0.187,3.612,0.559c0.628,0.371,0.943,1.039,0.943,2.003v4.431
					c0,0.812-0.208,1.387-0.623,1.724c-0.415,0.337-1.151,0.54-2.206,0.61c1.127,0.053,1.909,0.248,2.348,0.584
					s0.658,0.918,0.658,1.75v5.346c0,0.964-0.314,1.631-0.943,2.003c-0.629,0.37-1.833,0.557-3.612,0.557h-3.63L204.94,243.775
					L204.94,243.775z M207.199,245.223v7.148H208c1.032,0,1.72-0.135,2.064-0.404c0.344-0.27,0.516-0.869,0.516-1.797v-2.72
					c0-0.937-0.172-1.543-0.516-1.816c-0.344-0.274-1.032-0.411-2.064-0.411H207.199z M207.199,253.83v8.064h0.836
					c1.091,0,1.812-0.136,2.162-0.405c0.35-0.271,0.525-0.864,0.525-1.783v-3.674c0-0.921-0.175-1.517-0.525-1.791
					c-0.35-0.273-1.071-0.411-2.162-0.411H207.199z"/>
				<path fill="#F2961C" d="M219.298,243.775h3.31l3.789,19.563h-2.438l-0.907-5.438h-4.306l-0.979,5.438h-2.385L219.298,243.775z
					 M220.863,245.223l-1.903,11.248h3.79l-1.779-11.248H220.863z"/>
				<path fill="#F2961C" d="M232.145,243.775h2.295v15.572c0,1.635-0.275,2.76-0.826,3.375c-0.553,0.614-1.516,0.922-2.891,0.922
					c-1.377,0-2.334-0.244-2.875-0.729c-0.539-0.485-0.81-1.374-0.81-2.665v-2.176h2.331v2.109c0,0.812,0.098,1.353,0.294,1.617
					c0.196,0.266,0.548,0.397,1.06,0.397c0.533,0,0.903-0.173,1.111-0.519c0.207-0.345,0.311-1.033,0.311-2.068V243.775
					L232.145,243.775z"/>
				<path fill="#F2961C" d="M246.574,247.77v11.578c0,1.68-0.303,2.82-0.907,3.422c-0.604,0.603-1.685,0.902-3.237,0.902
					c-1.531,0-2.599-0.306-3.203-0.916c-0.605-0.609-0.908-1.746-0.908-3.408V247.77c0-1.646,0.306-2.771,0.916-3.375
					c0.611-0.605,1.688-0.908,3.229-0.908s2.613,0.3,3.212,0.9C246.275,244.988,246.574,246.115,246.574,247.77z M244.208,247.504
					c0-0.99-0.131-1.669-0.392-2.036c-0.26-0.366-0.724-0.551-1.387-0.551c-0.654,0-1.107,0.181-1.361,0.537
					c-0.256,0.358-0.383,1.042-0.383,2.05v12.109c0,1.017,0.131,1.701,0.392,2.056s0.723,0.53,1.388,0.53
					c0.652,0,1.105-0.178,1.361-0.53c0.255-0.354,0.382-1.039,0.382-2.056V247.504z"/>
			</g>
		</g>
	</g>
	<g>
		<g>
			<circle fill="#2C5A67" cx="381.527" cy="194.498" r="37.675"/>
			<path fill="#FFFFFF" d="M358.83,201.339c0.213-2.638,0.713-5.187,2.494-7.287c0.853-1.006,1.767-1.961,2.648-2.942
				c1.506-1.674,3.004-3.354,4.512-5.026c1.131-1.255,2.273-2.499,3.404-3.753c1.473-1.635,2.937-3.275,4.408-4.908
				c0.966-1.07,1.934-2.143,2.917-3.197c0.552-0.592,1.226-0.717,2.021-0.529c2.379,0.559,4.769,1.066,7.152,1.601
				c4.6,1.029,9.198,2.062,13.796,3.095c0.206,0.045,0.415,0.079,0.617,0.141c1.448,0.431,1.889,1.943,0.895,3.084
				c-2.417,2.77-4.846,5.529-7.258,8.304c-2.446,2.812-4.876,5.64-7.321,8.453c-1.256,1.448-2.543,2.869-3.786,4.329
				c-0.656,0.771-1.466,0.881-2.347,0.631c-5.112-1.449-10.219-2.92-15.328-4.383c-0.828-0.236-1.656-0.475-2.488-0.699
				c-1.031-0.279-2.125,0.246-2.518,1.223c-0.778,1.941-0.309,4.758,1.655,6.055c0.417,0.274,0.912,0.459,1.396,0.604
				c3.625,1.084,7.257,2.146,10.886,3.221c2.498,0.736,4.995,1.478,7.489,2.224c0.31,0.093,0.507,0.034,0.726-0.23
				c1.688-2.05,3.397-4.081,5.099-6.12c1.946-2.339,3.889-4.68,5.834-7.019c1.371-1.649,2.71-3.329,4.137-4.929
				c0.506-0.567,0.402-1.112,0.319-1.709c-0.198-1.418,0.031-2.774,0.618-4.062c0.33-0.724,1.313-1.004,2.167-0.695
				c0.75,0.271,1.268,1.192,0.972,2.047c-0.449,1.297-0.412,2.528,0.012,3.819c0.282,0.857-0.304,1.503-0.816,2.117
				c-2.419,2.906-4.837,5.812-7.259,8.715c-2.118,2.539-4.244,5.071-6.36,7.61c-0.947,1.134-1.89,2.271-2.816,3.421
				c-0.614,0.76-1.303,1.019-2.266,0.737c-2.821-0.821-5.639-1.657-8.457-2.489c-4.067-1.201-8.153-2.351-12.197-3.627
				c-1.998-0.632-3.33-2.132-4.184-4.017C359.059,203.945,358.773,202.677,358.83,201.339z M391.011,187.139
				c0.804,0,1.367-0.197,1.796-0.648c0.436-0.457,0.818-0.965,1.219-1.454c0.48-0.589,0.356-1.021-0.389-1.247
				c-0.605-0.186-1.225-0.324-1.841-0.473c-3.778-0.908-7.558-1.816-11.337-2.717c-0.823-0.197-1.523,0.049-2.085,0.674
				c-0.375,0.42-0.735,0.854-1.099,1.283c-0.543,0.645-0.433,1.039,0.375,1.321c0.148,0.054,0.302,0.097,0.457,0.134
				c3.435,0.834,6.871,1.668,10.306,2.5C389.333,186.734,390.255,186.955,391.011,187.139z"/>
		</g>
		<g>
			<g>
				<path fill="#F2961C" d="M334.742,243.775h6.263v1.553h-4.003v7.043h3.825v1.539h-3.825v7.878h4.109v1.552h-6.369V243.775z"/>
				<path fill="#F2961C" d="M344.368,243.775h2.651c2.242,0,3.707,0.265,4.395,0.789c0.688,0.526,1.031,1.731,1.031,3.615v10.756
					c0,1.875-0.35,3.078-1.049,3.607c-0.701,0.53-2.16,0.796-4.377,0.796h-2.651V243.775z M346.627,245.223v16.672h0.729
					c1.092,0,1.812-0.135,2.162-0.404c0.351-0.27,0.525-0.864,0.525-1.783V247.45c0-0.929-0.178-1.531-0.534-1.81
					c-0.356-0.279-1.073-0.418-2.153-0.418H346.627L346.627,245.223z"/>
				<path fill="#F2961C" d="M356.324,243.775h2.365v15.838c0,1.017,0.131,1.701,0.392,2.056s0.724,0.53,1.388,0.53
					c0.652,0,1.106-0.178,1.361-0.53c0.255-0.354,0.382-1.039,0.382-2.056v-15.838h2.366v15.572c0,1.68-0.303,2.819-0.907,3.422
					c-0.604,0.602-1.685,0.901-3.237,0.901c-1.531,0-2.599-0.306-3.203-0.916c-0.605-0.608-0.908-1.746-0.908-3.407v-15.572H356.324
					z"/>
				<path fill="#F2961C" d="M376.074,246.88v1.87h-2.385v-1.816c0-0.761-0.109-1.287-0.328-1.578
					c-0.221-0.291-0.608-0.438-1.166-0.438c-0.51,0-0.866,0.166-1.068,0.498c-0.202,0.331-0.302,1.027-0.302,2.089v12.109
					c0,1.087,0.106,1.795,0.319,2.122c0.215,0.326,0.605,0.49,1.174,0.49c0.486,0,0.837-0.154,1.051-0.465
					c0.214-0.31,0.32-0.836,0.32-1.578v-2.108h2.384v2.176c0,1.335-0.279,2.239-0.837,2.712c-0.557,0.473-1.553,0.71-2.988,0.71
					c-1.412,0-2.396-0.306-2.954-0.916c-0.558-0.608-0.836-1.745-0.836-3.407v-11.58c0-1.652,0.278-2.779,0.836-3.381
					c0.558-0.603,1.542-0.902,2.954-0.902c1.447,0,2.447,0.234,2.998,0.703C375.798,244.656,376.074,245.555,376.074,246.88z"/>
				<path fill="#F2961C" d="M381.251,243.775h3.31l3.789,19.563h-2.438l-0.907-5.438H380.7l-0.979,5.438h-2.384L381.251,243.775z
					 M382.816,245.223l-1.903,11.248h3.79l-1.779-11.248H382.816z"/>
				<path fill="#F2961C" d="M398.261,246.88v1.87h-2.384v-1.816c0-0.761-0.109-1.287-0.329-1.578s-0.608-0.438-1.166-0.438
					c-0.51,0-0.866,0.166-1.067,0.498c-0.203,0.331-0.303,1.027-0.303,2.089v12.109c0,1.087,0.107,1.795,0.32,2.122
					c0.214,0.326,0.605,0.49,1.174,0.49c0.486,0,0.836-0.154,1.051-0.465c0.213-0.31,0.319-0.836,0.319-1.578v-2.108h2.384v2.176
					c0,1.335-0.278,2.239-0.836,2.712s-1.554,0.71-2.988,0.71c-1.412,0-2.396-0.306-2.955-0.916
					c-0.558-0.608-0.836-1.745-0.836-3.407v-11.58c0-1.652,0.279-2.779,0.836-3.381c0.558-0.603,1.543-0.902,2.955-0.902
					c1.446,0,2.446,0.234,2.997,0.703C397.985,244.656,398.261,245.555,398.261,246.88z"/>
				<path fill="#F2961C" d="M401.215,243.775h2.402v19.563h-2.402V243.775z"/>
				<path fill="#F2961C" d="M415.769,247.77v11.578c0,1.68-0.302,2.82-0.906,3.422c-0.605,0.603-1.685,0.902-3.238,0.902
					c-1.53,0-2.598-0.306-3.203-0.916c-0.604-0.609-0.907-1.746-0.907-3.408V247.77c0-1.646,0.306-2.771,0.916-3.375
					c0.611-0.605,1.688-0.908,3.229-0.908s2.612,0.3,3.212,0.9C415.469,244.988,415.769,246.115,415.769,247.77z M413.402,247.504
					c0-0.99-0.131-1.669-0.392-2.036c-0.261-0.366-0.724-0.551-1.388-0.551c-0.653,0-1.106,0.181-1.361,0.537
					c-0.255,0.358-0.382,1.042-0.382,2.05v12.109c0,1.017,0.13,1.701,0.392,2.056c0.261,0.354,0.723,0.53,1.388,0.53
					c0.651,0,1.105-0.178,1.36-0.53c0.256-0.354,0.383-1.039,0.383-2.056V247.504z M412.21,239.042h2.509l-2.331,2.957h-1.744
					L412.21,239.042z"/>
				<path fill="#F2961C" d="M419.754,243.775h3.096l3.754,18.396h0.036l-0.338-18.396h2.046v19.563h-3.131l-3.719-18.144h-0.071
					l0.32,18.144h-1.993V243.775L419.754,243.775z"/>
			</g>
		</g>
	</g>
</g>
</svg>
