<?xml version="1.0" encoding="utf-8"?>
<!-- Generator: Adobe Illustrator 16.0.0, SVG Export Plug-In . SVG Version: 6.00 Build 0)  -->
<!DOCTYPE svg PUBLIC "-//W3C//DTD SVG 1.1//EN" "http://www.w3.org/Graphics/SVG/1.1/DTD/svg11.dtd">
<svg version="1.1" id="Capa_1" xmlns="http://www.w3.org/2000/svg" xmlns:xlink="http://www.w3.org/1999/xlink" x="0px" y="0px"
	 width="731.246px" height="195.381px" viewBox="0 0 731.246 195.381" enable-background="new 0 0 731.246 195.381"
	 xml:space="preserve">
<g>
	<g>
		<g>
			<path fill="#331842" d="M215.521,54.237v12.415c0,2.429-0.551,4.224-1.651,5.387c-1.102,1.163-2.937,1.933-5.506,2.309
				c2.569,0.342,4.404,1.095,5.506,2.257c1.101,1.163,1.651,2.959,1.651,5.387v15.646c0,6.328-1.066,10.611-3.2,12.851
				c-2.133,2.24-5.953,3.359-11.458,3.359c-5.415,0-9.211-1.154-11.39-3.463c-2.18-2.309-3.269-6.592-3.269-12.851v-5.027h8.74
				v6.207c0,3.626,0.447,6.14,1.342,7.542s2.42,2.104,4.577,2.104c2.156,0,3.658-0.692,4.507-2.077
				c0.848-1.386,1.273-3.907,1.273-7.567V82.709c0-2.223-0.562-3.719-1.686-4.488c-1.125-0.77-3.384-1.154-6.779-1.154h-2.408
				v-5.592h2.408c3.349,0,5.597-0.401,6.745-1.206c1.146-0.803,1.72-2.316,1.72-4.54V53.211c0-4.001-0.39-6.617-1.17-7.849
				c-0.78-1.231-2.18-1.847-4.198-1.847c-2.065,0-3.522,0.701-4.37,2.104c-0.85,1.402-1.273,3.933-1.273,7.592v4.72h-8.878v-3.693
				c0-6.122,1.077-10.328,3.234-12.62c2.156-2.291,5.919-3.437,11.287-3.437c5.275,0,8.969,1.137,11.08,3.411
				C214.465,43.866,215.521,48.081,215.521,54.237z"/>
			<path fill="#331842" d="M228.94,104.256h9.704v8.312h-9.704V104.256z"/>
		</g>
	</g>
	<rect x="340.056" y="82.474" fill="#A0C219" width="114" height="16.289"/>
	<g>
		<path fill="#3C3C3B" d="M257.908,61.505V51.483h7.246v1.184h-5.92v3.068h5.544v1.176h-5.544v3.412h6.152v1.182H257.908z"/>
		<path fill="#3C3C3B" d="M266.569,59.339l1.217-0.191c0.068,0.487,0.259,0.861,0.571,1.121c0.312,0.26,0.749,0.389,1.309,0.389
			c0.565,0,0.984-0.115,1.258-0.345c0.274-0.23,0.41-0.5,0.41-0.81c0-0.278-0.121-0.497-0.362-0.656
			c-0.168-0.109-0.588-0.249-1.258-0.418c-0.902-0.228-1.528-0.424-1.876-0.591c-0.348-0.167-0.613-0.396-0.793-0.69
			c-0.18-0.294-0.27-0.619-0.27-0.975c0-0.323,0.074-0.623,0.222-0.898s0.35-0.505,0.605-0.688c0.191-0.141,0.452-0.26,0.783-0.358
			c0.331-0.098,0.685-0.147,1.063-0.147c0.57,0,1.07,0.082,1.5,0.246c0.43,0.164,0.749,0.387,0.954,0.667
			c0.205,0.28,0.346,0.655,0.424,1.124l-1.203,0.164c-0.055-0.373-0.213-0.665-0.475-0.875c-0.262-0.209-0.632-0.314-1.111-0.314
			c-0.565,0-0.968,0.094-1.21,0.281c-0.242,0.187-0.362,0.405-0.362,0.656c0,0.159,0.05,0.303,0.15,0.43
			c0.1,0.133,0.257,0.242,0.472,0.328c0.123,0.046,0.485,0.15,1.087,0.314c0.871,0.232,1.478,0.424,1.822,0.571
			c0.344,0.147,0.614,0.363,0.81,0.646c0.196,0.283,0.294,0.634,0.294,1.053c0,0.41-0.12,0.797-0.359,1.159
			c-0.239,0.362-0.584,0.643-1.036,0.841c-0.452,0.198-0.961,0.297-1.531,0.297c-0.943,0-1.662-0.195-2.157-0.588
			C267.021,60.689,266.706,60.108,266.569,59.339z"/>
		<path fill="#3C3C3B" d="M276.748,60.405l0.178,1.086c-0.346,0.073-0.656,0.109-0.93,0.109c-0.447,0-0.793-0.07-1.039-0.211
			c-0.246-0.142-0.419-0.328-0.52-0.558s-0.15-0.714-0.15-1.452v-4.178h-0.902v-0.957h0.902v-1.797l1.224-0.738v2.535h1.237v0.957
			h-1.237v4.246c0,0.351,0.021,0.576,0.065,0.676c0.043,0.101,0.114,0.181,0.212,0.24c0.098,0.059,0.238,0.088,0.42,0.088
			C276.345,60.452,276.525,60.437,276.748,60.405z"/>
		<path fill="#3C3C3B" d="M282.688,60.61c-0.456,0.387-0.895,0.66-1.316,0.82c-0.421,0.159-0.874,0.238-1.357,0.238
			c-0.797,0-1.411-0.194-1.839-0.584c-0.428-0.39-0.643-0.888-0.643-1.494c0-0.355,0.081-0.68,0.243-0.974s0.374-0.53,0.636-0.708
			c0.262-0.178,0.557-0.312,0.885-0.402c0.242-0.064,0.606-0.126,1.094-0.186c0.994-0.118,1.725-0.26,2.194-0.424
			c0.004-0.168,0.007-0.275,0.007-0.32c0-0.502-0.116-0.855-0.349-1.061c-0.314-0.277-0.782-0.416-1.401-0.416
			c-0.579,0-1.006,0.102-1.282,0.304c-0.276,0.202-0.479,0.562-0.612,1.077l-1.203-0.164c0.109-0.516,0.29-0.932,0.54-1.248
			s0.613-0.561,1.087-0.731s1.023-0.257,1.647-0.257c0.62,0,1.124,0.073,1.511,0.219c0.387,0.146,0.672,0.33,0.854,0.551
			c0.182,0.221,0.31,0.5,0.383,0.838c0.041,0.209,0.062,0.588,0.062,1.135v1.641c0,1.144,0.026,1.867,0.079,2.17
			c0.053,0.303,0.156,0.594,0.311,0.871h-1.285C282.807,61.25,282.725,60.952,282.688,60.61z M282.586,57.862
			c-0.447,0.182-1.117,0.337-2.01,0.465c-0.506,0.072-0.864,0.154-1.073,0.246c-0.209,0.091-0.372,0.225-0.485,0.399
			c-0.113,0.174-0.171,0.37-0.171,0.585c0,0.328,0.124,0.602,0.373,0.82c0.249,0.218,0.612,0.328,1.09,0.328
			c0.474,0,0.896-0.104,1.265-0.312c0.369-0.208,0.64-0.491,0.813-0.851c0.132-0.278,0.198-0.688,0.198-1.23V57.862z"/>
		<path fill="#3C3C3B" d="M286.872,61.505h-1.142V51.483h1.23v3.576c0.52-0.652,1.183-0.979,1.989-0.979
			c0.447,0,0.869,0.09,1.268,0.271c0.399,0.181,0.727,0.433,0.984,0.759c0.257,0.326,0.459,0.719,0.605,1.18
			c0.146,0.46,0.219,0.952,0.219,1.477c0,1.244-0.308,2.205-0.923,2.885c-0.615,0.679-1.354,1.018-2.215,1.018
			c-0.857,0-1.529-0.357-2.017-1.072v0.907H286.872z M286.858,57.821c0,0.87,0.119,1.499,0.355,1.887
			c0.387,0.633,0.912,0.949,1.572,0.949c0.538,0,1.002-0.232,1.395-0.7c0.393-0.468,0.588-1.163,0.588-2.089
			c0-0.947-0.188-1.646-0.564-2.098s-0.831-0.678-1.364-0.678c-0.538,0-1.002,0.234-1.395,0.701
			C287.052,56.26,286.858,56.937,286.858,57.821z"/>
		<path fill="#3C3C3B" d="M293.496,61.505V51.483h1.23v10.021L293.496,61.505L293.496,61.505z"/>
		<path fill="#3C3C3B" d="M301.604,59.167l1.271,0.158c-0.201,0.742-0.572,1.318-1.114,1.729c-0.542,0.411-1.235,0.615-2.078,0.615
			c-1.062,0-1.904-0.326-2.526-0.98c-0.622-0.654-0.933-1.571-0.933-2.752c0-1.221,0.314-2.169,0.943-2.844
			c0.629-0.674,1.445-1.012,2.447-1.012c0.971,0,1.764,0.331,2.379,0.992c0.615,0.66,0.923,1.59,0.923,2.789
			c0,0.072-0.002,0.182-0.007,0.328h-5.414c0.045,0.797,0.271,1.408,0.677,1.832c0.406,0.424,0.912,0.635,1.518,0.635
			c0.451,0,0.836-0.118,1.155-0.355C301.164,60.065,301.417,59.687,301.604,59.167z M297.563,57.179h4.054
			c-0.055-0.611-0.209-1.069-0.465-1.375c-0.392-0.474-0.9-0.711-1.524-0.711c-0.565,0-1.04,0.189-1.425,0.568
			C297.817,56.039,297.604,56.545,297.563,57.179z"/>
		<path fill="#3C3C3B" d="M309.157,58.847l1.21,0.156c-0.132,0.834-0.471,1.487-1.015,1.959c-0.544,0.472-1.213,0.707-2.006,0.707
			c-0.994,0-1.792-0.324-2.396-0.974s-0.906-1.58-0.906-2.792c0-0.784,0.13-1.471,0.39-2.059c0.26-0.588,0.655-1.028,1.186-1.322
			c0.531-0.294,1.108-0.441,1.733-0.441c0.789,0,1.433,0.199,1.935,0.599s0.823,0.965,0.964,1.698l-1.196,0.186
			c-0.114-0.488-0.315-0.855-0.605-1.102s-0.639-0.369-1.049-0.369c-0.62,0-1.124,0.223-1.511,0.667
			c-0.387,0.444-0.581,1.147-0.581,2.108c0,0.976,0.187,1.685,0.561,2.127c0.374,0.441,0.861,0.662,1.463,0.662
			c0.483,0,0.886-0.147,1.21-0.443C308.866,59.917,309.071,59.462,309.157,58.847z"/>
		<path fill="#3C3C3B" d="M316.39,59.167l1.271,0.158c-0.201,0.742-0.572,1.318-1.114,1.729c-0.542,0.411-1.235,0.615-2.078,0.615
			c-1.062,0-1.904-0.326-2.526-0.98s-0.933-1.571-0.933-2.752c0-1.221,0.314-2.169,0.943-2.844c0.629-0.674,1.445-1.012,2.447-1.012
			c0.971,0,1.764,0.331,2.379,0.992c0.615,0.66,0.923,1.59,0.923,2.789c0,0.072-0.002,0.182-0.007,0.328h-5.414
			c0.045,0.797,0.271,1.408,0.677,1.832c0.406,0.424,0.912,0.635,1.518,0.635c0.451,0,0.836-0.118,1.155-0.355
			C315.95,60.065,316.203,59.687,316.39,59.167z M312.35,57.179h4.054c-0.055-0.611-0.209-1.069-0.465-1.375
			c-0.392-0.474-0.9-0.711-1.524-0.711c-0.565,0-1.04,0.189-1.425,0.568C312.604,56.039,312.391,56.545,312.35,57.179z"/>
		<path fill="#3C3C3B" d="M329.019,64.288v-3.555c-0.191,0.269-0.459,0.492-0.803,0.67c-0.344,0.178-0.71,0.266-1.097,0.266
			c-0.861,0-1.603-0.344-2.225-1.031c-0.622-0.688-0.933-1.632-0.933-2.83c0-0.729,0.126-1.384,0.379-1.963
			c0.253-0.578,0.62-1.018,1.101-1.314c0.481-0.297,1.008-0.448,1.583-0.448c0.898,0,1.604,0.379,2.119,1.135v-0.971h1.107v10.043
			L329.019,64.288L329.019,64.288z M325.225,57.854c0,0.935,0.196,1.635,0.588,2.103s0.861,0.7,1.408,0.7
			c0.524,0,0.975-0.222,1.354-0.666c0.379-0.444,0.567-1.12,0.567-2.027c0-0.966-0.199-1.692-0.598-2.18
			c-0.399-0.488-0.867-0.732-1.405-0.732c-0.533,0-0.985,0.227-1.357,0.681C325.41,56.187,325.225,56.894,325.225,57.854z"/>
		<path fill="#3C3C3B" d="M336.935,61.505v-1.066c-0.565,0.82-1.333,1.23-2.304,1.23c-0.428,0-0.828-0.082-1.2-0.246
			s-0.647-0.369-0.827-0.618s-0.307-0.553-0.379-0.913c-0.05-0.241-0.075-0.624-0.075-1.148v-4.498h1.23v4.027
			c0,0.643,0.025,1.075,0.075,1.299c0.078,0.323,0.242,0.577,0.492,0.762s0.561,0.277,0.93,0.277s0.715-0.096,1.039-0.284
			s0.553-0.446,0.687-0.772c0.134-0.326,0.202-0.799,0.202-1.418v-3.891h1.23v7.26L336.935,61.505L336.935,61.505z"/>
		<path fill="#3C3C3B" d="M344.933,59.167l1.271,0.158c-0.201,0.742-0.572,1.318-1.114,1.729c-0.542,0.411-1.235,0.615-2.078,0.615
			c-1.062,0-1.904-0.326-2.526-0.98s-0.933-1.571-0.933-2.752c0-1.221,0.314-2.169,0.943-2.844c0.629-0.674,1.445-1.012,2.447-1.012
			c0.971,0,1.764,0.331,2.379,0.992c0.615,0.66,0.923,1.59,0.923,2.789c0,0.072-0.002,0.182-0.007,0.328h-5.414
			c0.045,0.797,0.271,1.408,0.677,1.832s0.912,0.635,1.518,0.635c0.451,0,0.836-0.118,1.155-0.355
			C344.493,60.065,344.746,59.687,344.933,59.167z M340.893,57.179h4.054c-0.055-0.611-0.209-1.069-0.465-1.375
			c-0.392-0.474-0.9-0.711-1.524-0.711c-0.565,0-1.04,0.189-1.425,0.568C341.146,56.039,340.934,56.545,340.893,57.179z"/>
		<path fill="#3C3C3B" d="M360.241,57.991l1.326,0.336c-0.278,1.089-0.778,1.92-1.5,2.491c-0.722,0.571-1.605,0.858-2.649,0.858
			c-1.08,0-1.958-0.221-2.635-0.66c-0.677-0.439-1.192-1.076-1.545-1.91s-0.53-1.73-0.53-2.688c0-1.043,0.199-1.953,0.598-2.73
			s0.966-1.367,1.702-1.771c0.736-0.404,1.546-0.604,2.43-0.604c1.002,0,1.846,0.255,2.529,0.766c0.684,0.51,1.16,1.228,1.429,2.152
			l-1.306,0.309c-0.232-0.729-0.57-1.261-1.012-1.594c-0.442-0.332-0.998-0.498-1.668-0.498c-0.77,0-1.414,0.184-1.931,0.553
			s-0.881,0.865-1.09,1.487c-0.209,0.622-0.314,1.264-0.314,1.925c0,0.852,0.124,1.596,0.373,2.231
			c0.249,0.635,0.635,1.11,1.159,1.425s1.091,0.473,1.702,0.473c0.743,0,1.372-0.215,1.887-0.643
			C359.71,59.471,360.059,58.835,360.241,57.991z"/>
		<path fill="#3C3C3B" d="M362.585,57.876c0-1.345,0.374-2.341,1.121-2.988c0.625-0.537,1.385-0.807,2.283-0.807
			c0.998,0,1.814,0.328,2.447,0.981s0.95,1.558,0.95,2.71c0,0.935-0.14,1.67-0.42,2.205s-0.688,0.951-1.224,1.248
			c-0.536,0.296-1.12,0.443-1.753,0.443c-1.016,0-1.838-0.325-2.464-0.977C362.899,60.04,362.585,59.102,362.585,57.876z
			 M363.85,57.876c0,0.93,0.203,1.625,0.608,2.088s0.916,0.693,1.531,0.693c0.61,0,1.118-0.232,1.524-0.697
			c0.404-0.465,0.607-1.173,0.607-2.125c0-0.898-0.204-1.578-0.612-2.041c-0.407-0.463-0.915-0.693-1.521-0.693
			c-0.615,0-1.125,0.229-1.531,0.689C364.053,56.251,363.85,56.946,363.85,57.876z"/>
		<path fill="#3C3C3B" d="M370.802,61.505V51.483h1.23v10.021L370.802,61.505L370.802,61.505z"/>
		<path fill="#3C3C3B" d="M373.482,57.876c0-1.345,0.373-2.341,1.121-2.988c0.625-0.537,1.385-0.807,2.282-0.807
			c0.998,0,1.814,0.328,2.447,0.981s0.95,1.558,0.95,2.71c0,0.935-0.141,1.67-0.42,2.205c-0.28,0.535-0.688,0.951-1.225,1.248
			c-0.535,0.296-1.119,0.443-1.753,0.443c-1.016,0-1.838-0.325-2.464-0.977C373.795,60.04,373.482,59.102,373.482,57.876z
			 M374.747,57.876c0,0.93,0.203,1.625,0.608,2.088c0.404,0.463,0.916,0.693,1.531,0.693c0.61,0,1.118-0.232,1.523-0.697
			c0.404-0.465,0.607-1.173,0.607-2.125c0-0.898-0.203-1.578-0.611-2.041s-0.915-0.693-1.521-0.693
			c-0.615,0-1.125,0.229-1.531,0.689C374.949,56.251,374.747,56.946,374.747,57.876z"/>
		<path fill="#3C3C3B" d="M381.727,61.505v-7.26h1.101v1.02c0.228-0.355,0.53-0.643,0.909-0.858
			c0.378-0.215,0.809-0.325,1.291-0.325c0.539,0,0.979,0.112,1.324,0.336c0.344,0.223,0.586,0.535,0.728,0.936
			c0.573-0.848,1.321-1.271,2.241-1.271c0.721,0,1.275,0.199,1.662,0.599s0.58,1.013,0.58,1.843v4.982h-1.224v-4.572
			c0-0.492-0.04-0.848-0.12-1.063s-0.225-0.391-0.434-0.522c-0.209-0.133-0.456-0.199-0.738-0.199c-0.51,0-0.934,0.17-1.271,0.51
			c-0.336,0.34-0.506,0.883-0.506,1.631v4.217h-1.229v-4.717c0-0.547-0.101-0.957-0.301-1.23c-0.201-0.273-0.529-0.41-0.984-0.41
			c-0.346,0-0.667,0.092-0.96,0.273c-0.294,0.183-0.507,0.449-0.639,0.801c-0.133,0.351-0.198,0.856-0.198,1.518v3.766h-1.231
			V61.505z"/>
		<path fill="#3C3C3B" d="M394.523,61.505h-1.143V51.483h1.23v3.576c0.52-0.652,1.183-0.979,1.988-0.979
			c0.447,0,0.869,0.09,1.269,0.271c0.398,0.181,0.727,0.433,0.983,0.759c0.258,0.326,0.46,0.719,0.605,1.18
			c0.146,0.46,0.219,0.952,0.219,1.477c0,1.244-0.308,2.205-0.923,2.885c-0.615,0.679-1.354,1.018-2.215,1.018
			c-0.856,0-1.528-0.357-2.017-1.072v0.907H394.523z M394.509,57.821c0,0.87,0.119,1.499,0.355,1.887
			c0.387,0.633,0.911,0.949,1.571,0.949c0.538,0,1.003-0.232,1.396-0.7s0.588-1.163,0.588-2.089c0-0.947-0.188-1.646-0.563-2.098
			c-0.377-0.452-0.831-0.678-1.364-0.678c-0.538,0-1.003,0.234-1.396,0.701S394.509,56.937,394.509,57.821z"/>
		<path fill="#3C3C3B" d="M401.181,52.899v-1.416h1.23v1.416H401.181z M401.181,61.505v-7.26h1.23v7.26H401.181z"/>
		<path fill="#3C3C3B" d="M409.022,60.61c-0.456,0.387-0.896,0.66-1.316,0.82c-0.421,0.159-0.874,0.238-1.357,0.238
			c-0.797,0-1.411-0.194-1.839-0.584s-0.643-0.888-0.643-1.494c0-0.355,0.081-0.68,0.243-0.974s0.374-0.53,0.636-0.708
			c0.262-0.178,0.557-0.312,0.885-0.402c0.242-0.064,0.606-0.126,1.094-0.186c0.994-0.118,1.726-0.26,2.194-0.424
			c0.004-0.168,0.007-0.275,0.007-0.32c0-0.502-0.116-0.855-0.349-1.061c-0.314-0.277-0.782-0.416-1.401-0.416
			c-0.579,0-1.006,0.102-1.282,0.304c-0.275,0.202-0.479,0.562-0.611,1.077l-1.203-0.164c0.108-0.516,0.29-0.932,0.54-1.248
			s0.613-0.561,1.087-0.731s1.022-0.257,1.646-0.257c0.62,0,1.124,0.073,1.512,0.219c0.387,0.146,0.672,0.33,0.854,0.551
			c0.183,0.221,0.311,0.5,0.383,0.838c0.041,0.209,0.062,0.588,0.062,1.135v1.641c0,1.144,0.026,1.867,0.079,2.17
			c0.053,0.303,0.156,0.594,0.311,0.871h-1.285C409.141,61.25,409.059,60.952,409.022,60.61z M408.919,57.862
			c-0.447,0.182-1.117,0.337-2.01,0.465c-0.506,0.072-0.864,0.154-1.073,0.246c-0.209,0.091-0.372,0.225-0.485,0.399
			c-0.112,0.174-0.171,0.37-0.171,0.585c0,0.328,0.124,0.602,0.373,0.82s0.612,0.328,1.09,0.328c0.475,0,0.896-0.104,1.266-0.312
			s0.64-0.491,0.812-0.851c0.132-0.278,0.198-0.688,0.198-1.23V57.862z"/>
		<path fill="#3C3C3B" d="M422.225,59.167l1.271,0.158c-0.201,0.742-0.572,1.318-1.114,1.729c-0.542,0.411-1.234,0.615-2.078,0.615
			c-1.062,0-1.903-0.326-2.525-0.98s-0.934-1.571-0.934-2.752c0-1.221,0.314-2.169,0.943-2.844c0.629-0.674,1.445-1.012,2.447-1.012
			c0.971,0,1.764,0.331,2.379,0.992c0.614,0.66,0.923,1.59,0.923,2.789c0,0.072-0.002,0.182-0.007,0.328h-5.414
			c0.045,0.797,0.271,1.408,0.677,1.832s0.912,0.635,1.518,0.635c0.451,0,0.836-0.118,1.155-0.355
			C421.785,60.065,422.038,59.687,422.225,59.167z M418.185,57.179h4.055c-0.056-0.611-0.209-1.069-0.465-1.375
			c-0.393-0.474-0.9-0.711-1.524-0.711c-0.565,0-1.04,0.189-1.425,0.568C418.439,56.039,418.226,56.545,418.185,57.179z"/>
		<path fill="#3C3C3B" d="M424.549,59.339l1.217-0.191c0.068,0.487,0.26,0.861,0.571,1.121c0.312,0.26,0.749,0.389,1.31,0.389
			c0.564,0,0.983-0.115,1.258-0.345c0.273-0.23,0.41-0.5,0.41-0.81c0-0.278-0.121-0.497-0.362-0.656
			c-0.168-0.109-0.588-0.249-1.258-0.418c-0.902-0.228-1.528-0.424-1.876-0.591c-0.349-0.167-0.613-0.396-0.793-0.69
			c-0.181-0.294-0.271-0.619-0.271-0.975c0-0.323,0.074-0.623,0.222-0.898c0.148-0.275,0.351-0.505,0.605-0.688
			c0.191-0.141,0.452-0.26,0.783-0.358s0.685-0.147,1.062-0.147c0.57,0,1.07,0.082,1.5,0.246c0.431,0.164,0.749,0.387,0.954,0.667
			c0.205,0.28,0.347,0.655,0.424,1.124l-1.202,0.164c-0.056-0.373-0.214-0.665-0.476-0.875c-0.262-0.209-0.632-0.314-1.111-0.314
			c-0.564,0-0.968,0.094-1.21,0.281c-0.241,0.187-0.361,0.405-0.361,0.656c0,0.159,0.05,0.303,0.149,0.43
			c0.101,0.133,0.257,0.242,0.473,0.328c0.123,0.046,0.484,0.15,1.087,0.314c0.871,0.232,1.478,0.424,1.821,0.571
			c0.345,0.147,0.614,0.363,0.811,0.646c0.196,0.283,0.294,0.634,0.294,1.053c0,0.41-0.12,0.797-0.359,1.159
			c-0.238,0.362-0.584,0.643-1.036,0.841c-0.451,0.198-0.961,0.297-1.53,0.297c-0.943,0-1.662-0.195-2.157-0.588
			C425.001,60.689,424.686,60.108,424.549,59.339z"/>
		<path fill="#3C3C3B" d="M441.984,61.505v-1.066c-0.565,0.82-1.333,1.23-2.305,1.23c-0.428,0-0.828-0.082-1.199-0.246
			c-0.372-0.164-0.647-0.369-0.827-0.618c-0.181-0.249-0.308-0.553-0.379-0.913c-0.051-0.241-0.075-0.624-0.075-1.148v-4.498h1.229
			v4.027c0,0.643,0.025,1.075,0.075,1.299c0.078,0.323,0.242,0.577,0.492,0.762s0.561,0.277,0.93,0.277s0.715-0.096,1.039-0.284
			s0.553-0.446,0.688-0.772c0.134-0.326,0.202-0.799,0.202-1.418v-3.891h1.229v7.26L441.984,61.505L441.984,61.505z"/>
		<path fill="#3C3C3B" d="M445.012,61.505v-7.26h1.107v1.033c0.533-0.798,1.303-1.197,2.311-1.197c0.438,0,0.84,0.079,1.207,0.236
			c0.367,0.157,0.643,0.363,0.824,0.619c0.182,0.255,0.311,0.558,0.383,0.908c0.045,0.229,0.068,0.627,0.068,1.197v4.463h-1.23
			v-4.416c0-0.501-0.048-0.875-0.144-1.124s-0.267-0.446-0.509-0.595c-0.243-0.149-0.53-0.223-0.858-0.223
			c-0.524,0-0.977,0.167-1.356,0.5c-0.381,0.332-0.571,0.963-0.571,1.893v3.965L445.012,61.505L445.012,61.505z"/>
		<path fill="#3C3C3B" d="M458.167,61.505V51.483h7.246v1.184h-5.92v3.068h5.544v1.176h-5.544v3.412h6.151v1.182H458.167z"/>
		<path fill="#3C3C3B" d="M466.829,59.339l1.217-0.191c0.068,0.487,0.259,0.861,0.571,1.121c0.312,0.26,0.749,0.389,1.309,0.389
			c0.565,0,0.984-0.115,1.258-0.345c0.274-0.23,0.41-0.5,0.41-0.81c0-0.278-0.121-0.497-0.361-0.656
			c-0.168-0.109-0.589-0.249-1.259-0.418c-0.901-0.228-1.527-0.424-1.876-0.591c-0.348-0.167-0.612-0.396-0.793-0.69
			c-0.18-0.294-0.27-0.619-0.27-0.975c0-0.323,0.074-0.623,0.222-0.898c0.148-0.275,0.351-0.505,0.605-0.688
			c0.19-0.141,0.452-0.26,0.782-0.358c0.331-0.098,0.686-0.147,1.063-0.147c0.57,0,1.07,0.082,1.5,0.246s0.749,0.387,0.954,0.667
			c0.205,0.28,0.346,0.655,0.424,1.124l-1.203,0.164c-0.055-0.373-0.213-0.665-0.475-0.875c-0.262-0.209-0.632-0.314-1.111-0.314
			c-0.564,0-0.968,0.094-1.21,0.281s-0.362,0.405-0.362,0.656c0,0.159,0.051,0.303,0.15,0.43c0.1,0.133,0.257,0.242,0.472,0.328
			c0.123,0.046,0.485,0.15,1.087,0.314c0.871,0.232,1.479,0.424,1.822,0.571s0.614,0.363,0.811,0.646
			c0.195,0.283,0.294,0.634,0.294,1.053c0,0.41-0.12,0.797-0.359,1.159c-0.239,0.362-0.584,0.643-1.036,0.841
			c-0.452,0.198-0.961,0.297-1.531,0.297c-0.942,0-1.661-0.195-2.156-0.588C467.281,60.689,466.965,60.108,466.829,59.339z"/>
		<path fill="#3C3C3B" d="M477.007,60.405l0.178,1.086c-0.346,0.073-0.655,0.109-0.93,0.109c-0.447,0-0.793-0.07-1.039-0.211
			c-0.246-0.142-0.419-0.328-0.52-0.558c-0.102-0.23-0.15-0.714-0.15-1.452v-4.178h-0.902v-0.957h0.902v-1.797l1.224-0.738v2.535
			h1.237v0.957h-1.237v4.246c0,0.351,0.021,0.576,0.065,0.676c0.043,0.101,0.114,0.181,0.212,0.24
			c0.098,0.059,0.238,0.088,0.42,0.088C476.604,60.452,476.784,60.437,477.007,60.405z"/>
		<path fill="#3C3C3B" d="M482.948,60.61c-0.456,0.387-0.896,0.66-1.316,0.82c-0.421,0.159-0.874,0.238-1.356,0.238
			c-0.798,0-1.411-0.194-1.84-0.584c-0.428-0.39-0.643-0.888-0.643-1.494c0-0.355,0.081-0.68,0.243-0.974s0.374-0.53,0.636-0.708
			c0.262-0.178,0.557-0.312,0.885-0.402c0.242-0.064,0.606-0.126,1.095-0.186c0.993-0.118,1.725-0.26,2.193-0.424
			c0.004-0.168,0.007-0.275,0.007-0.32c0-0.502-0.115-0.855-0.349-1.061c-0.313-0.277-0.782-0.416-1.401-0.416
			c-0.578,0-1.006,0.102-1.281,0.304c-0.276,0.202-0.479,0.562-0.612,1.077l-1.203-0.164c0.109-0.516,0.29-0.932,0.54-1.248
			s0.613-0.561,1.087-0.731c0.475-0.17,1.023-0.257,1.647-0.257c0.62,0,1.124,0.073,1.511,0.219s0.672,0.33,0.854,0.551
			c0.183,0.221,0.311,0.5,0.384,0.838c0.041,0.209,0.062,0.588,0.062,1.135v1.641c0,1.144,0.026,1.867,0.079,2.17
			c0.053,0.303,0.156,0.594,0.311,0.871h-1.284C483.066,61.25,482.984,60.952,482.948,60.61z M482.845,57.862
			c-0.446,0.182-1.117,0.337-2.01,0.465c-0.506,0.072-0.864,0.154-1.073,0.246c-0.209,0.091-0.372,0.225-0.484,0.399
			c-0.113,0.174-0.171,0.37-0.171,0.585c0,0.328,0.124,0.602,0.372,0.82c0.249,0.218,0.612,0.328,1.091,0.328
			c0.474,0,0.896-0.104,1.265-0.312s0.64-0.491,0.813-0.851c0.132-0.278,0.197-0.688,0.197-1.23V57.862z"/>
		<path fill="#3C3C3B" d="M490.707,61.505v-0.916c-0.46,0.721-1.137,1.08-2.03,1.08c-0.579,0-1.11-0.159-1.596-0.479
			c-0.485-0.318-0.861-0.764-1.128-1.336c-0.268-0.572-0.4-1.229-0.4-1.973c0-0.725,0.121-1.381,0.362-1.972
			c0.241-0.591,0.604-1.042,1.087-1.356c0.483-0.313,1.023-0.473,1.62-0.473c0.438,0,0.827,0.093,1.169,0.277
			s0.62,0.425,0.834,0.721v-3.596h1.224v10.021h-1.142V61.505z M486.817,57.882c0,0.93,0.195,1.625,0.588,2.086
			c0.392,0.46,0.854,0.689,1.388,0.689c0.538,0,0.995-0.219,1.371-0.659s0.563-1.11,0.563-2.013c0-0.994-0.19-1.723-0.573-2.188
			c-0.383-0.465-0.854-0.697-1.415-0.697c-0.547,0-1.004,0.223-1.371,0.67C487,56.217,486.817,56.921,486.817,57.882z"/>
		<path fill="#3C3C3B" d="M493.325,57.876c0-1.345,0.374-2.341,1.121-2.988c0.625-0.537,1.385-0.807,2.282-0.807
			c0.998,0,1.814,0.328,2.447,0.981s0.95,1.558,0.95,2.71c0,0.935-0.14,1.67-0.42,2.205s-0.688,0.951-1.224,1.248
			c-0.536,0.296-1.12,0.443-1.754,0.443c-1.016,0-1.838-0.325-2.464-0.977C493.638,60.04,493.325,59.102,493.325,57.876z
			 M494.589,57.876c0,0.93,0.203,1.625,0.608,2.088c0.404,0.463,0.916,0.693,1.53,0.693c0.611,0,1.119-0.232,1.524-0.697
			s0.608-1.173,0.608-2.125c0-0.898-0.204-1.578-0.612-2.041s-0.915-0.693-1.521-0.693c-0.614,0-1.125,0.229-1.53,0.689
			C494.792,56.251,494.589,56.946,494.589,57.876z"/>
		<path fill="#3C3C3B" d="M506.459,58.286l1.251-0.109c0.059,0.501,0.197,0.912,0.414,1.233c0.217,0.321,0.553,0.581,1.008,0.779
			c0.455,0.198,0.968,0.298,1.538,0.298c0.506,0,0.953-0.076,1.34-0.227c0.387-0.151,0.676-0.354,0.865-0.618
			s0.284-0.548,0.284-0.858c0-0.314-0.091-0.588-0.273-0.823c-0.182-0.235-0.482-0.432-0.901-0.591
			c-0.27-0.105-0.864-0.268-1.784-0.489c-0.92-0.221-1.565-0.43-1.936-0.626c-0.479-0.25-0.835-0.561-1.069-0.933
			c-0.235-0.372-0.353-0.787-0.353-1.247c0-0.506,0.145-0.979,0.432-1.419c0.286-0.44,0.707-0.773,1.258-1.001
			c0.551-0.229,1.165-0.342,1.839-0.342c0.743,0,1.397,0.119,1.965,0.358c0.567,0.239,1.004,0.591,1.309,1.056
			c0.306,0.465,0.47,0.992,0.492,1.58l-1.271,0.096c-0.068-0.634-0.3-1.112-0.694-1.436c-0.394-0.324-0.977-0.486-1.747-0.486
			c-0.802,0-1.387,0.147-1.753,0.441s-0.55,0.648-0.55,1.062c0,0.36,0.13,0.656,0.39,0.889c0.256,0.232,0.922,0.471,2,0.715
			s1.817,0.457,2.219,0.639c0.583,0.27,1.014,0.609,1.292,1.022c0.277,0.413,0.417,0.888,0.417,1.425
			c0,0.533-0.153,1.036-0.458,1.508c-0.306,0.472-0.744,0.838-1.316,1.101c-0.572,0.263-1.216,0.394-1.931,0.394
			c-0.907,0-1.667-0.133-2.28-0.396c-0.613-0.265-1.094-0.662-1.442-1.193C506.664,59.557,506.477,58.956,506.459,58.286z"/>
		<path fill="#3C3C3B" d="M515.633,57.876c0-1.345,0.374-2.341,1.121-2.988c0.625-0.537,1.385-0.807,2.283-0.807
			c0.998,0,1.813,0.328,2.447,0.981c0.633,0.653,0.949,1.558,0.949,2.71c0,0.935-0.14,1.67-0.42,2.205
			c-0.279,0.535-0.688,0.951-1.224,1.248c-0.536,0.296-1.12,0.443-1.753,0.443c-1.016,0-1.838-0.325-2.464-0.977
			C515.946,60.04,515.633,59.102,515.633,57.876z M516.896,57.876c0,0.93,0.203,1.625,0.608,2.088s0.916,0.693,1.531,0.693
			c0.61,0,1.119-0.232,1.523-0.697c0.405-0.465,0.608-1.173,0.608-2.125c0-0.898-0.204-1.578-0.612-2.041s-0.915-0.693-1.521-0.693
			c-0.615,0-1.125,0.229-1.531,0.689C517.1,56.251,516.896,56.946,516.896,57.876z"/>
		<path fill="#3C3C3B" d="M528.614,58.847l1.21,0.156c-0.132,0.834-0.471,1.487-1.016,1.959c-0.544,0.472-1.213,0.707-2.006,0.707
			c-0.994,0-1.792-0.324-2.396-0.974c-0.604-0.65-0.906-1.58-0.906-2.792c0-0.784,0.13-1.471,0.39-2.059
			c0.261-0.588,0.655-1.028,1.187-1.322s1.107-0.441,1.732-0.441c0.789,0,1.434,0.199,1.936,0.599s0.823,0.965,0.964,1.698
			l-1.196,0.186c-0.113-0.488-0.314-0.855-0.604-1.102s-0.639-0.369-1.049-0.369c-0.62,0-1.124,0.223-1.512,0.667
			c-0.387,0.444-0.581,1.147-0.581,2.108c0,0.976,0.188,1.685,0.562,2.127c0.374,0.441,0.861,0.662,1.463,0.662
			c0.483,0,0.886-0.147,1.21-0.443C528.323,59.917,528.528,59.462,528.614,58.847z"/>
		<path fill="#3C3C3B" d="M530.884,52.899v-1.416h1.23v1.416H530.884z M530.884,61.505v-7.26h1.23v7.26H530.884z"/>
		<path fill="#3C3C3B" d="M538.725,60.61c-0.456,0.387-0.895,0.66-1.315,0.82c-0.421,0.159-0.874,0.238-1.357,0.238
			c-0.797,0-1.411-0.194-1.839-0.584s-0.643-0.888-0.643-1.494c0-0.355,0.081-0.68,0.242-0.974c0.162-0.294,0.375-0.53,0.637-0.708
			c0.262-0.178,0.557-0.312,0.885-0.402c0.242-0.064,0.606-0.126,1.094-0.186c0.994-0.118,1.726-0.26,2.194-0.424
			c0.004-0.168,0.007-0.275,0.007-0.32c0-0.502-0.116-0.855-0.349-1.061c-0.314-0.277-0.782-0.416-1.401-0.416
			c-0.579,0-1.006,0.102-1.282,0.304c-0.275,0.202-0.479,0.562-0.611,1.077l-1.203-0.164c0.108-0.516,0.29-0.932,0.54-1.248
			s0.612-0.561,1.087-0.731c0.474-0.17,1.022-0.257,1.646-0.257c0.62,0,1.124,0.073,1.511,0.219c0.388,0.146,0.673,0.33,0.854,0.551
			c0.182,0.221,0.31,0.5,0.383,0.838c0.041,0.209,0.062,0.588,0.062,1.135v1.641c0,1.144,0.025,1.867,0.079,2.17
			c0.053,0.303,0.155,0.594,0.311,0.871h-1.285C538.843,61.25,538.761,60.952,538.725,60.61z M538.622,57.862
			c-0.447,0.182-1.117,0.337-2.01,0.465c-0.506,0.072-0.864,0.154-1.073,0.246c-0.209,0.091-0.372,0.225-0.485,0.399
			c-0.112,0.174-0.171,0.37-0.171,0.585c0,0.328,0.124,0.602,0.373,0.82s0.612,0.328,1.09,0.328c0.475,0,0.896-0.104,1.266-0.312
			s0.64-0.491,0.812-0.851c0.132-0.278,0.198-0.688,0.198-1.23V57.862z"/>
		<path fill="#3C3C3B" d="M541.746,61.505V51.483h1.229v10.021L541.746,61.505L541.746,61.505z"/>
		<path fill="#3C3C3B" d="M554.778,61.505v-0.916c-0.46,0.721-1.138,1.08-2.03,1.08c-0.579,0-1.111-0.159-1.596-0.479
			c-0.485-0.318-0.861-0.764-1.128-1.336c-0.268-0.572-0.4-1.229-0.4-1.973c0-0.725,0.121-1.381,0.362-1.972
			c0.24-0.591,0.604-1.042,1.087-1.356c0.482-0.313,1.022-0.473,1.62-0.473c0.438,0,0.826,0.093,1.169,0.277
			c0.342,0.184,0.62,0.425,0.834,0.721v-3.596h1.224v10.021h-1.142V61.505z M550.889,57.882c0,0.93,0.196,1.625,0.588,2.086
			c0.393,0.46,0.854,0.689,1.389,0.689c0.538,0,0.995-0.219,1.371-0.659s0.563-1.11,0.563-2.013c0-0.994-0.19-1.723-0.574-2.188
			c-0.383-0.465-0.854-0.697-1.415-0.697c-0.547,0-1.004,0.223-1.37,0.67C551.072,56.217,550.889,56.921,550.889,57.882z"/>
		<path fill="#3C3C3B" d="M562.824,59.167l1.271,0.158c-0.201,0.742-0.571,1.318-1.114,1.729c-0.541,0.411-1.234,0.615-2.077,0.615
			c-1.062,0-1.904-0.326-2.526-0.98s-0.933-1.571-0.933-2.752c0-1.221,0.313-2.169,0.942-2.844c0.629-0.674,1.445-1.012,2.447-1.012
			c0.971,0,1.764,0.331,2.379,0.992c0.615,0.66,0.923,1.59,0.923,2.789c0,0.072-0.002,0.182-0.007,0.328h-5.414
			c0.045,0.797,0.271,1.408,0.677,1.832c0.406,0.424,0.912,0.635,1.519,0.635c0.451,0,0.836-0.118,1.155-0.355
			C562.384,60.065,562.637,59.687,562.824,59.167z M558.784,57.179h4.054c-0.055-0.611-0.209-1.069-0.465-1.375
			c-0.393-0.474-0.9-0.711-1.524-0.711c-0.564,0-1.04,0.189-1.425,0.568C559.038,56.039,558.825,56.545,558.784,57.179z"/>
		<path fill="#3C3C3B" d="M257.881,78.306V68.284h3.452c0.779,0,1.374,0.047,1.784,0.143c0.574,0.133,1.064,0.372,1.47,0.719
			c0.529,0.446,0.924,1.018,1.186,1.712c0.262,0.694,0.393,1.489,0.393,2.382c0,0.762-0.089,1.436-0.267,2.023
			c-0.178,0.587-0.406,1.074-0.684,1.46c-0.278,0.386-0.582,0.688-0.913,0.909c-0.331,0.221-0.729,0.389-1.196,0.502
			c-0.467,0.114-1.004,0.172-1.61,0.172H257.881L257.881,78.306z M259.207,77.122h2.14c0.661,0,1.179-0.061,1.555-0.184
			s0.676-0.297,0.899-0.52c0.314-0.314,0.56-0.738,0.735-1.269c0.175-0.531,0.263-1.175,0.263-1.931
			c0-1.049-0.172-1.854-0.516-2.417c-0.344-0.562-0.762-0.94-1.254-1.132c-0.355-0.137-0.927-0.205-1.716-0.205h-2.105
			L259.207,77.122L259.207,77.122z"/>
		<path fill="#3C3C3B" d="M272.804,75.968l1.271,0.156c-0.201,0.743-0.572,1.32-1.114,1.73s-1.235,0.615-2.078,0.615
			c-1.062,0-1.904-0.328-2.526-0.981c-0.622-0.653-0.933-1.571-0.933-2.751c0-1.222,0.314-2.17,0.943-2.844
			c0.629-0.675,1.445-1.012,2.447-1.012c0.971,0,1.764,0.33,2.379,0.99c0.615,0.661,0.923,1.591,0.923,2.789
			c0,0.073-0.002,0.183-0.007,0.328h-5.414c0.045,0.798,0.271,1.408,0.677,1.832c0.406,0.424,0.912,0.637,1.518,0.637
			c0.451,0,0.836-0.119,1.155-0.355C272.364,76.865,272.617,76.487,272.804,75.968z M268.764,73.978h4.054
			c-0.055-0.61-0.209-1.068-0.465-1.373c-0.392-0.475-0.9-0.711-1.524-0.711c-0.565,0-1.04,0.188-1.425,0.566
			C269.018,72.839,268.805,73.345,268.764,73.978z"/>
		<path fill="#3C3C3B" d="M275.606,78.306v-7.26h1.107v1.1c0.283-0.515,0.543-0.854,0.783-1.018c0.24-0.164,0.502-0.246,0.79-0.246
			c0.415,0,0.836,0.132,1.265,0.396l-0.424,1.141c-0.301-0.178-0.602-0.266-0.902-0.266c-0.269,0-0.51,0.08-0.725,0.242
			s-0.367,0.387-0.458,0.674c-0.137,0.438-0.205,0.916-0.205,1.436v3.801H275.606z"/>
		<path fill="#3C3C3B" d="M285.252,75.968l1.271,0.156c-0.201,0.743-0.572,1.32-1.114,1.73s-1.235,0.615-2.078,0.615
			c-1.062,0-1.904-0.328-2.526-0.981c-0.622-0.653-0.933-1.571-0.933-2.751c0-1.222,0.314-2.17,0.943-2.844
			c0.629-0.675,1.445-1.012,2.447-1.012c0.971,0,1.764,0.33,2.379,0.99c0.615,0.661,0.923,1.591,0.923,2.789
			c0,0.073-0.002,0.183-0.007,0.328h-5.414c0.045,0.798,0.271,1.408,0.677,1.832c0.406,0.424,0.912,0.637,1.518,0.637
			c0.451,0,0.836-0.119,1.155-0.355C284.812,76.865,285.065,76.487,285.252,75.968z M281.212,73.978h4.054
			c-0.055-0.61-0.209-1.068-0.465-1.373c-0.392-0.475-0.9-0.711-1.524-0.711c-0.565,0-1.04,0.188-1.425,0.566
			C281.466,72.839,281.253,73.345,281.212,73.978z"/>
		<path fill="#3C3C3B" d="M292.806,75.646l1.21,0.158c-0.132,0.834-0.471,1.486-1.015,1.958c-0.544,0.472-1.213,0.708-2.006,0.708
			c-0.994,0-1.792-0.325-2.396-0.975c-0.604-0.65-0.906-1.58-0.906-2.793c0-0.783,0.13-1.469,0.39-2.057
			c0.26-0.588,0.655-1.029,1.186-1.323c0.531-0.294,1.108-0.44,1.733-0.44c0.789,0,1.433,0.199,1.935,0.598s0.823,0.965,0.964,1.699
			l-1.196,0.184c-0.114-0.487-0.315-0.854-0.605-1.1c-0.29-0.246-0.639-0.369-1.049-0.369c-0.62,0-1.124,0.222-1.511,0.666
			c-0.387,0.444-0.581,1.147-0.581,2.109c0,0.975,0.187,1.684,0.561,2.125c0.374,0.442,0.861,0.664,1.463,0.664
			c0.483,0,0.886-0.148,1.21-0.445C292.514,76.717,292.719,76.261,292.806,75.646z"/>
		<path fill="#3C3C3B" d="M295.068,78.306V68.284h1.23v3.596c0.574-0.666,1.299-0.998,2.174-0.998c0.538,0,1.005,0.105,1.401,0.317
			c0.396,0.212,0.68,0.505,0.851,0.878c0.171,0.374,0.256,0.916,0.256,1.627v4.602h-1.23v-4.602c0-0.615-0.133-1.062-0.4-1.343
			c-0.267-0.281-0.644-0.421-1.131-0.421c-0.365,0-0.708,0.096-1.029,0.284c-0.321,0.188-0.55,0.445-0.687,0.769
			c-0.137,0.324-0.205,0.771-0.205,1.34v3.973H295.068L295.068,78.306z"/>
		<path fill="#3C3C3B" d="M302.396,74.675c0-1.344,0.374-2.34,1.121-2.986c0.625-0.538,1.385-0.807,2.283-0.807
			c0.998,0,1.814,0.326,2.447,0.98c0.633,0.654,0.95,1.558,0.95,2.711c0,0.934-0.14,1.668-0.42,2.204
			c-0.28,0.536-0.688,0.951-1.224,1.247c-0.536,0.297-1.12,0.445-1.753,0.445c-1.016,0-1.838-0.326-2.464-0.979
			C302.71,76.84,302.396,75.901,302.396,74.675z M303.661,74.675c0,0.93,0.203,1.627,0.608,2.089
			c0.405,0.462,0.916,0.694,1.531,0.694c0.611,0,1.119-0.232,1.524-0.697c0.405-0.465,0.608-1.174,0.608-2.127
			c0-0.897-0.204-1.578-0.612-2.04c-0.408-0.462-0.915-0.694-1.521-0.694c-0.615,0-1.125,0.23-1.531,0.691
			C303.864,73.051,303.661,73.745,303.661,74.675z"/>
		<path fill="#3C3C3B" d="M310.962,78.306v-1.402h1.401v1.402c0,0.515-0.091,0.93-0.273,1.247c-0.182,0.317-0.472,0.562-0.868,0.735
			l-0.342-0.527c0.26-0.113,0.451-0.281,0.574-0.502c0.123-0.221,0.191-0.539,0.205-0.953H310.962z"/>
		<path fill="#3C3C3B" d="M325.933,78.306v-6.303h-1.087v-0.957h1.087v-0.773c0-0.487,0.043-0.85,0.13-1.086
			c0.119-0.319,0.327-0.578,0.625-0.776c0.298-0.198,0.717-0.298,1.254-0.298c0.346,0,0.729,0.041,1.148,0.123l-0.185,1.074
			c-0.255-0.046-0.497-0.068-0.725-0.068c-0.374,0-0.638,0.079-0.793,0.238c-0.155,0.16-0.232,0.459-0.232,0.896v0.67h1.415v0.957
			h-1.415v6.303H325.933z"/>
		<path fill="#3C3C3B" d="M334.286,78.306V77.24c-0.565,0.82-1.333,1.229-2.304,1.229c-0.428,0-0.828-0.082-1.2-0.246
			c-0.372-0.164-0.647-0.371-0.827-0.619c-0.18-0.248-0.307-0.553-0.379-0.912c-0.05-0.242-0.075-0.625-0.075-1.148v-4.498h1.23
			v4.025c0,0.643,0.025,1.076,0.075,1.299c0.078,0.324,0.242,0.578,0.492,0.763c0.25,0.185,0.561,0.276,0.93,0.276
			s0.715-0.094,1.039-0.283c0.324-0.189,0.553-0.447,0.687-0.772c0.134-0.325,0.202-0.799,0.202-1.419v-3.889h1.23v7.26
			L334.286,78.306L334.286,78.306z"/>
		<path fill="#3C3C3B" d="M337.314,78.306v-7.26h1.107v1.031c0.533-0.797,1.303-1.195,2.311-1.195c0.438,0,0.84,0.078,1.207,0.235
			c0.367,0.157,0.642,0.363,0.824,0.618c0.182,0.256,0.31,0.559,0.383,0.91c0.045,0.228,0.068,0.626,0.068,1.195v4.465h-1.23V73.89
			c0-0.502-0.048-0.877-0.144-1.125c-0.096-0.248-0.266-0.447-0.509-0.595s-0.53-0.222-0.858-0.222
			c-0.524,0-0.977,0.166-1.357,0.498c-0.38,0.333-0.571,0.965-0.571,1.895v3.965H337.314L337.314,78.306z"/>
		<path fill="#3C3C3B" d="M349.811,78.306V77.39c-0.46,0.72-1.137,1.08-2.03,1.08c-0.579,0-1.111-0.16-1.596-0.479
			c-0.485-0.319-0.861-0.766-1.128-1.337c-0.267-0.571-0.4-1.229-0.4-1.972c0-0.725,0.121-1.383,0.362-1.973
			c0.241-0.59,0.604-1.043,1.087-1.357s1.023-0.471,1.62-0.471c0.438,0,0.827,0.092,1.169,0.276c0.342,0.184,0.62,0.425,0.834,0.722
			v-3.596h1.224v10.021h-1.142V78.306z M345.921,74.683c0,0.93,0.196,1.624,0.588,2.084c0.392,0.461,0.854,0.691,1.388,0.691
			c0.538,0,0.995-0.221,1.371-0.66s0.564-1.111,0.564-2.014c0-0.993-0.191-1.723-0.574-2.188c-0.383-0.465-0.854-0.697-1.415-0.697
			c-0.547,0-1.004,0.224-1.371,0.67C346.104,73.017,345.921,73.721,345.921,74.683z"/>
		<path fill="#3C3C3B" d="M357.624,77.409c-0.456,0.388-0.895,0.661-1.316,0.82c-0.421,0.16-0.874,0.24-1.357,0.24
			c-0.797,0-1.411-0.195-1.839-0.585c-0.428-0.39-0.643-0.888-0.643-1.493c0-0.355,0.081-0.681,0.243-0.975s0.374-0.529,0.636-0.707
			c0.262-0.178,0.557-0.312,0.885-0.404c0.242-0.063,0.606-0.125,1.094-0.184c0.994-0.119,1.725-0.26,2.194-0.424
			c0.004-0.169,0.007-0.276,0.007-0.322c0-0.501-0.116-0.854-0.349-1.059c-0.314-0.278-0.782-0.418-1.401-0.418
			c-0.579,0-1.006,0.102-1.282,0.305c-0.276,0.203-0.479,0.562-0.612,1.076l-1.203-0.164c0.109-0.515,0.29-0.93,0.54-1.247
			c0.25-0.317,0.613-0.561,1.087-0.731c0.474-0.17,1.023-0.256,1.647-0.256c0.62,0,1.124,0.072,1.511,0.219
			c0.387,0.146,0.672,0.328,0.854,0.55c0.182,0.222,0.31,0.5,0.383,0.837c0.041,0.21,0.062,0.588,0.062,1.135v1.641
			c0,1.145,0.026,1.867,0.079,2.171c0.053,0.304,0.156,0.594,0.311,0.872h-1.285C357.743,78.05,357.661,77.751,357.624,77.409z
			 M357.521,74.661c-0.447,0.183-1.117,0.338-2.01,0.465c-0.506,0.073-0.864,0.155-1.073,0.246c-0.209,0.092-0.372,0.225-0.485,0.4
			c-0.113,0.175-0.171,0.37-0.171,0.584c0,0.328,0.124,0.602,0.373,0.82c0.249,0.218,0.612,0.328,1.09,0.328
			c0.474,0,0.896-0.104,1.265-0.311c0.369-0.207,0.64-0.491,0.813-0.852c0.132-0.277,0.198-0.688,0.198-1.23V74.661z"/>
		<path fill="#3C3C3B" d="M365.383,78.306V77.39c-0.46,0.72-1.137,1.08-2.03,1.08c-0.579,0-1.111-0.16-1.596-0.479
			c-0.485-0.319-0.861-0.766-1.128-1.337c-0.267-0.571-0.4-1.229-0.4-1.972c0-0.725,0.121-1.383,0.362-1.973
			c0.241-0.59,0.604-1.043,1.087-1.357c0.483-0.314,1.023-0.471,1.62-0.471c0.438,0,0.827,0.092,1.169,0.276
			c0.342,0.184,0.62,0.425,0.834,0.722v-3.596h1.225v10.021h-1.143V78.306z M361.493,74.683c0,0.93,0.196,1.624,0.588,2.084
			c0.392,0.461,0.854,0.691,1.388,0.691c0.538,0,0.995-0.221,1.371-0.66s0.564-1.111,0.564-2.014c0-0.993-0.191-1.723-0.574-2.188
			c-0.383-0.465-0.854-0.697-1.415-0.697c-0.547,0-1.004,0.224-1.371,0.67C361.677,73.017,361.493,73.721,361.493,74.683z"/>
		<path fill="#3C3C3B" d="M368.001,74.675c0-1.344,0.374-2.34,1.121-2.986c0.625-0.538,1.385-0.807,2.282-0.807
			c0.998,0,1.814,0.326,2.447,0.98c0.633,0.654,0.95,1.558,0.95,2.711c0,0.934-0.14,1.668-0.42,2.204
			c-0.28,0.536-0.688,0.951-1.224,1.247c-0.536,0.297-1.12,0.445-1.754,0.445c-1.016,0-1.838-0.326-2.463-0.979
			C368.314,76.84,368.001,75.901,368.001,74.675z M369.266,74.675c0,0.93,0.203,1.627,0.608,2.089
			c0.405,0.462,0.916,0.694,1.53,0.694c0.611,0,1.119-0.232,1.525-0.697c0.404-0.465,0.607-1.174,0.607-2.127
			c0-0.897-0.204-1.578-0.612-2.04c-0.407-0.462-0.915-0.694-1.521-0.694c-0.615,0-1.125,0.23-1.531,0.691
			C369.468,73.051,369.266,73.745,369.266,74.675z"/>
		<path fill="#3C3C3B" d="M376.566,78.306v-1.402h1.4v1.402c0,0.515-0.091,0.93-0.273,1.247c-0.182,0.317-0.471,0.562-0.867,0.735
			l-0.342-0.527c0.26-0.113,0.451-0.281,0.574-0.502c0.123-0.221,0.19-0.539,0.205-0.953H376.566z"/>
		<path fill="#3C3C3B" d="M396.212,75.968l1.271,0.156c-0.201,0.743-0.572,1.32-1.114,1.73s-1.235,0.615-2.078,0.615
			c-1.062,0-1.904-0.328-2.525-0.981c-0.623-0.653-0.934-1.571-0.934-2.751c0-1.222,0.314-2.17,0.943-2.844
			c0.629-0.675,1.444-1.012,2.447-1.012c0.971,0,1.764,0.33,2.378,0.99c0.615,0.661,0.924,1.591,0.924,2.789
			c0,0.073-0.003,0.183-0.008,0.328h-5.413c0.045,0.798,0.271,1.408,0.676,1.832c0.406,0.424,0.912,0.637,1.519,0.637
			c0.451,0,0.836-0.119,1.155-0.355C395.771,76.865,396.025,76.487,396.212,75.968z M392.172,73.978h4.054
			c-0.055-0.61-0.209-1.068-0.465-1.373c-0.392-0.475-0.899-0.711-1.524-0.711c-0.564,0-1.039,0.188-1.424,0.566
			C392.426,72.839,392.213,73.345,392.172,73.978z"/>
		<path fill="#3C3C3B" d="M399.029,78.306v-7.26h1.106v1.031c0.533-0.797,1.304-1.195,2.312-1.195c0.438,0,0.84,0.078,1.207,0.235
			c0.367,0.157,0.642,0.363,0.823,0.618c0.183,0.256,0.311,0.559,0.384,0.91c0.045,0.228,0.067,0.626,0.067,1.195v4.465h-1.229
			V73.89c0-0.502-0.048-0.877-0.145-1.125c-0.096-0.248-0.266-0.447-0.509-0.595s-0.53-0.222-0.858-0.222
			c-0.523,0-0.977,0.166-1.356,0.498c-0.38,0.333-0.571,0.965-0.571,1.895v3.965H399.029L399.029,78.306z"/>
		<path fill="#3C3C3B" d="M409.501,77.204l0.178,1.088c-0.346,0.072-0.655,0.109-0.93,0.109c-0.447,0-0.793-0.071-1.039-0.213
			c-0.246-0.141-0.419-0.326-0.52-0.557c-0.102-0.231-0.15-0.715-0.15-1.453v-4.176h-0.902v-0.957h0.902v-1.799l1.224-0.738v2.537
			h1.237v0.957h-1.237v4.244c0,0.352,0.021,0.577,0.065,0.678c0.043,0.1,0.114,0.18,0.212,0.238c0.098,0.06,0.238,0.09,0.42,0.09
			C409.098,77.253,409.278,77.236,409.501,77.204z"/>
		<path fill="#3C3C3B" d="M410.691,78.306v-7.26h1.106v1.1c0.283-0.515,0.543-0.854,0.783-1.018s0.502-0.246,0.79-0.246
			c0.415,0,0.836,0.132,1.265,0.396l-0.424,1.141c-0.301-0.178-0.602-0.266-0.902-0.266c-0.269,0-0.51,0.08-0.725,0.242
			s-0.367,0.387-0.458,0.674c-0.137,0.438-0.205,0.916-0.205,1.436v3.801H410.691z"/>
		<path fill="#3C3C3B" d="M420.336,75.968l1.271,0.156c-0.201,0.743-0.572,1.32-1.114,1.73s-1.235,0.615-2.078,0.615
			c-1.062,0-1.904-0.328-2.526-0.981c-0.622-0.653-0.933-1.571-0.933-2.751c0-1.222,0.313-2.17,0.943-2.844
			c0.629-0.675,1.444-1.012,2.446-1.012c0.972,0,1.765,0.33,2.379,0.99c0.615,0.661,0.924,1.591,0.924,2.789
			c0,0.073-0.003,0.183-0.008,0.328h-5.414c0.045,0.798,0.271,1.408,0.678,1.832c0.405,0.424,0.912,0.637,1.518,0.637
			c0.451,0,0.836-0.119,1.155-0.355C419.896,76.865,420.149,76.487,420.336,75.968z M416.296,73.978h4.054
			c-0.055-0.61-0.209-1.068-0.465-1.373c-0.392-0.475-0.899-0.711-1.523-0.711c-0.565,0-1.04,0.188-1.426,0.566
			C416.55,72.839,416.337,73.345,416.296,73.978z"/>
		<path fill="#3C3C3B" d="M433.803,74.675c0-1.344,0.374-2.34,1.121-2.986c0.625-0.538,1.385-0.807,2.283-0.807
			c0.998,0,1.814,0.326,2.447,0.98c0.633,0.654,0.949,1.558,0.949,2.711c0,0.934-0.14,1.668-0.42,2.204
			c-0.279,0.536-0.688,0.951-1.224,1.247c-0.536,0.297-1.12,0.445-1.753,0.445c-1.016,0-1.838-0.326-2.464-0.979
			C434.117,76.84,433.803,75.901,433.803,74.675z M435.068,74.675c0,0.93,0.203,1.627,0.607,2.089
			c0.405,0.462,0.916,0.694,1.531,0.694c0.611,0,1.119-0.232,1.524-0.697c0.404-0.465,0.607-1.174,0.607-2.127
			c0-0.897-0.204-1.578-0.612-2.04c-0.407-0.462-0.915-0.694-1.521-0.694c-0.615,0-1.125,0.23-1.531,0.691
			C435.271,73.051,435.068,73.745,435.068,74.675z"/>
		<path fill="#3C3C3B" d="M444.734,77.204l0.178,1.088c-0.346,0.072-0.656,0.109-0.93,0.109c-0.447,0-0.793-0.071-1.039-0.213
			c-0.246-0.141-0.419-0.326-0.521-0.557c-0.101-0.231-0.149-0.715-0.149-1.453v-4.176h-0.902v-0.957h0.902v-1.799l1.224-0.738
			v2.537h1.237v0.957h-1.237v4.244c0,0.352,0.021,0.577,0.065,0.678c0.043,0.1,0.113,0.18,0.212,0.238
			c0.098,0.06,0.237,0.09,0.42,0.09C444.331,77.253,444.511,77.236,444.734,77.204z"/>
		<path fill="#3C3C3B" d="M445.923,78.306v-7.26h1.107v1.1c0.282-0.515,0.543-0.854,0.782-1.018c0.24-0.164,0.503-0.246,0.79-0.246
			c0.415,0,0.837,0.132,1.266,0.396l-0.424,1.141c-0.302-0.178-0.603-0.266-0.902-0.266c-0.269,0-0.51,0.08-0.725,0.242
			c-0.216,0.162-0.367,0.387-0.458,0.674c-0.138,0.438-0.205,0.916-0.205,1.436v3.801H445.923z"/>
		<path fill="#3C3C3B" d="M455.336,77.409c-0.456,0.388-0.895,0.661-1.316,0.82c-0.421,0.16-0.873,0.24-1.356,0.24
			c-0.797,0-1.411-0.195-1.839-0.585c-0.428-0.39-0.644-0.888-0.644-1.493c0-0.355,0.081-0.681,0.243-0.975s0.374-0.529,0.636-0.707
			c0.263-0.178,0.558-0.312,0.886-0.404c0.242-0.063,0.605-0.125,1.094-0.184c0.994-0.119,1.725-0.26,2.194-0.424
			c0.004-0.169,0.007-0.276,0.007-0.322c0-0.501-0.116-0.854-0.35-1.059c-0.313-0.278-0.781-0.418-1.4-0.418
			c-0.579,0-1.006,0.102-1.282,0.305s-0.479,0.562-0.612,1.076l-1.203-0.164c0.109-0.515,0.29-0.93,0.54-1.247
			c0.25-0.317,0.613-0.561,1.087-0.731c0.475-0.17,1.023-0.256,1.647-0.256c0.62,0,1.124,0.072,1.511,0.219
			c0.388,0.146,0.672,0.328,0.854,0.55c0.182,0.222,0.31,0.5,0.383,0.837c0.041,0.21,0.062,0.588,0.062,1.135v1.641
			c0,1.145,0.026,1.867,0.079,2.171c0.054,0.304,0.156,0.594,0.312,0.872h-1.285C455.455,78.05,455.373,77.751,455.336,77.409z
			 M455.234,74.661c-0.447,0.183-1.117,0.338-2.011,0.465c-0.506,0.073-0.863,0.155-1.072,0.246c-0.209,0.092-0.372,0.225-0.485,0.4
			c-0.113,0.175-0.171,0.37-0.171,0.584c0,0.328,0.124,0.602,0.373,0.82c0.249,0.218,0.612,0.328,1.09,0.328
			c0.474,0,0.896-0.104,1.265-0.311s0.641-0.491,0.813-0.852c0.132-0.277,0.198-0.688,0.198-1.23V74.661z"/>
		<path fill="#3C3C3B" d="M457.893,76.138l1.218-0.191c0.067,0.488,0.259,0.861,0.57,1.121c0.312,0.26,0.749,0.391,1.31,0.391
			c0.564,0,0.983-0.115,1.258-0.346s0.41-0.5,0.41-0.811c0-0.277-0.121-0.496-0.362-0.656c-0.168-0.109-0.588-0.248-1.258-0.416
			c-0.902-0.229-1.528-0.426-1.876-0.592s-0.613-0.396-0.793-0.69c-0.18-0.294-0.271-0.618-0.271-0.974
			c0-0.324,0.074-0.623,0.223-0.899c0.147-0.276,0.35-0.505,0.604-0.687c0.191-0.142,0.452-0.262,0.783-0.359
			c0.331-0.097,0.685-0.146,1.063-0.146c0.569,0,1.069,0.082,1.5,0.246c0.43,0.164,0.749,0.386,0.953,0.666
			c0.205,0.28,0.347,0.655,0.425,1.125l-1.203,0.164c-0.056-0.374-0.213-0.666-0.476-0.875c-0.262-0.21-0.632-0.314-1.11-0.314
			c-0.565,0-0.969,0.093-1.21,0.279c-0.242,0.188-0.362,0.406-0.362,0.656c0,0.16,0.05,0.304,0.15,0.432
			c0.1,0.132,0.257,0.241,0.472,0.328c0.123,0.045,0.485,0.15,1.087,0.314c0.871,0.232,1.478,0.422,1.822,0.57
			c0.344,0.148,0.613,0.363,0.81,0.646c0.196,0.282,0.294,0.633,0.294,1.053c0,0.41-0.12,0.796-0.358,1.158
			c-0.239,0.362-0.584,0.643-1.036,0.841c-0.452,0.198-0.961,0.298-1.531,0.298c-0.943,0-1.662-0.196-2.157-0.588
			C458.345,77.489,458.03,76.908,457.893,76.138z"/>
		<path fill="#3C3C3B" d="M481.231,75.646l1.21,0.158c-0.133,0.834-0.472,1.486-1.016,1.958c-0.544,0.472-1.213,0.708-2.006,0.708
			c-0.994,0-1.792-0.325-2.396-0.975c-0.604-0.65-0.906-1.58-0.906-2.793c0-0.783,0.13-1.469,0.39-2.057s0.655-1.029,1.187-1.323
			c0.53-0.294,1.107-0.44,1.732-0.44c0.789,0,1.434,0.199,1.936,0.598s0.822,0.965,0.964,1.699l-1.196,0.184
			c-0.114-0.487-0.315-0.854-0.604-1.1c-0.29-0.246-0.64-0.369-1.05-0.369c-0.62,0-1.124,0.222-1.511,0.666
			s-0.581,1.147-0.581,2.109c0,0.975,0.188,1.684,0.562,2.125c0.374,0.442,0.86,0.664,1.463,0.664c0.482,0,0.886-0.148,1.21-0.445
			C480.939,76.717,481.145,76.261,481.231,75.646z"/>
		<path fill="#3C3C3B" d="M483.036,74.675c0-1.344,0.374-2.34,1.121-2.986c0.625-0.538,1.385-0.807,2.283-0.807
			c0.997,0,1.813,0.326,2.446,0.98c0.633,0.654,0.95,1.558,0.95,2.711c0,0.934-0.14,1.668-0.42,2.204
			c-0.28,0.536-0.688,0.951-1.224,1.247c-0.536,0.297-1.12,0.445-1.753,0.445c-1.017,0-1.839-0.326-2.465-0.979
			C483.349,76.84,483.036,75.901,483.036,74.675z M484.3,74.675c0,0.93,0.203,1.627,0.608,2.089
			c0.404,0.462,0.916,0.694,1.531,0.694c0.61,0,1.118-0.232,1.523-0.697c0.405-0.465,0.608-1.174,0.608-2.127
			c0-0.897-0.204-1.578-0.612-2.04c-0.408-0.462-0.915-0.694-1.521-0.694c-0.614,0-1.125,0.23-1.53,0.691
			C484.503,73.051,484.3,73.745,484.3,74.675z"/>
		<path fill="#3C3C3B" d="M490.788,76.138l1.217-0.191c0.068,0.488,0.259,0.861,0.571,1.121c0.312,0.26,0.749,0.391,1.309,0.391
			c0.565,0,0.984-0.115,1.258-0.346c0.274-0.231,0.41-0.5,0.41-0.811c0-0.277-0.121-0.496-0.361-0.656
			c-0.168-0.109-0.589-0.248-1.259-0.416c-0.901-0.229-1.527-0.426-1.876-0.592c-0.348-0.166-0.612-0.396-0.793-0.69
			c-0.18-0.294-0.27-0.618-0.27-0.974c0-0.324,0.074-0.623,0.222-0.899c0.148-0.276,0.351-0.505,0.605-0.687
			c0.19-0.142,0.452-0.262,0.782-0.359c0.331-0.097,0.686-0.146,1.063-0.146c0.57,0,1.07,0.082,1.5,0.246s0.749,0.386,0.954,0.666
			c0.205,0.28,0.346,0.655,0.424,1.125l-1.203,0.164c-0.055-0.374-0.213-0.666-0.475-0.875c-0.262-0.21-0.632-0.314-1.111-0.314
			c-0.564,0-0.968,0.093-1.21,0.279c-0.242,0.188-0.362,0.406-0.362,0.656c0,0.16,0.051,0.304,0.15,0.432
			c0.1,0.132,0.257,0.241,0.472,0.328c0.123,0.045,0.485,0.15,1.087,0.314c0.871,0.232,1.479,0.422,1.822,0.57
			s0.614,0.363,0.811,0.646c0.195,0.282,0.294,0.633,0.294,1.053c0,0.41-0.12,0.796-0.359,1.158
			c-0.239,0.362-0.584,0.643-1.036,0.841c-0.452,0.198-0.961,0.298-1.531,0.298c-0.942,0-1.661-0.196-2.156-0.588
			C491.24,77.489,490.924,76.908,490.788,76.138z"/>
		<path fill="#3C3C3B" d="M503.017,77.409c-0.456,0.388-0.895,0.661-1.315,0.82c-0.421,0.16-0.874,0.24-1.357,0.24
			c-0.797,0-1.411-0.195-1.839-0.585c-0.428-0.39-0.643-0.888-0.643-1.493c0-0.355,0.081-0.681,0.243-0.975
			c0.161-0.294,0.373-0.529,0.636-0.707c0.262-0.178,0.557-0.312,0.885-0.404c0.242-0.063,0.606-0.125,1.094-0.184
			c0.994-0.119,1.726-0.26,2.194-0.424c0.004-0.169,0.007-0.276,0.007-0.322c0-0.501-0.116-0.854-0.349-1.059
			c-0.314-0.278-0.782-0.418-1.401-0.418c-0.579,0-1.006,0.102-1.282,0.305c-0.275,0.203-0.479,0.562-0.611,1.076l-1.203-0.164
			c0.108-0.515,0.29-0.93,0.54-1.247c0.25-0.317,0.612-0.561,1.087-0.731c0.474-0.17,1.022-0.256,1.646-0.256
			c0.62,0,1.124,0.072,1.512,0.219c0.387,0.146,0.672,0.328,0.854,0.55s0.311,0.5,0.383,0.837c0.041,0.21,0.062,0.588,0.062,1.135
			v1.641c0,1.145,0.025,1.867,0.079,2.171c0.053,0.304,0.155,0.594,0.311,0.872h-1.285C503.136,78.05,503.054,77.751,503.017,77.409
			z M502.915,74.661c-0.447,0.183-1.117,0.338-2.01,0.465c-0.506,0.073-0.864,0.155-1.073,0.246c-0.209,0.092-0.372,0.225-0.485,0.4
			c-0.112,0.175-0.171,0.37-0.171,0.584c0,0.328,0.124,0.602,0.373,0.82c0.249,0.218,0.612,0.328,1.09,0.328
			c0.475,0,0.896-0.104,1.266-0.311s0.64-0.491,0.812-0.852c0.132-0.277,0.198-0.688,0.198-1.23V74.661z"/>
		<path fill="#3C3C3B" d="M505.574,76.138l1.217-0.191c0.068,0.488,0.259,0.861,0.571,1.121c0.312,0.26,0.749,0.391,1.309,0.391
			c0.565,0,0.984-0.115,1.258-0.346c0.274-0.231,0.41-0.5,0.41-0.811c0-0.277-0.121-0.496-0.362-0.656
			c-0.168-0.109-0.588-0.248-1.258-0.416c-0.901-0.229-1.527-0.426-1.876-0.592c-0.348-0.166-0.612-0.396-0.793-0.69
			c-0.18-0.294-0.27-0.618-0.27-0.974c0-0.324,0.074-0.623,0.222-0.899c0.148-0.276,0.35-0.505,0.605-0.687
			c0.19-0.142,0.451-0.262,0.782-0.359c0.331-0.097,0.686-0.146,1.063-0.146c0.57,0,1.07,0.082,1.5,0.246s0.749,0.386,0.954,0.666
			c0.205,0.28,0.346,0.655,0.424,1.125l-1.203,0.164c-0.055-0.374-0.213-0.666-0.475-0.875c-0.263-0.21-0.632-0.314-1.111-0.314
			c-0.565,0-0.968,0.093-1.21,0.279c-0.242,0.188-0.362,0.406-0.362,0.656c0,0.16,0.05,0.304,0.15,0.432
			c0.1,0.132,0.257,0.241,0.472,0.328c0.123,0.045,0.485,0.15,1.087,0.314c0.871,0.232,1.479,0.422,1.822,0.57
			s0.614,0.363,0.81,0.646c0.196,0.282,0.295,0.633,0.295,1.053c0,0.41-0.12,0.796-0.359,1.158
			c-0.239,0.362-0.584,0.643-1.036,0.841c-0.452,0.198-0.961,0.298-1.531,0.298c-0.942,0-1.662-0.196-2.157-0.588
			C506.026,77.489,505.71,76.908,505.574,76.138z"/>
		<path fill="#3C3C3B" d="M513.387,78.306v-1.402h1.401v1.402c0,0.515-0.091,0.93-0.273,1.247c-0.182,0.317-0.472,0.562-0.867,0.735
			l-0.343-0.527c0.261-0.113,0.451-0.281,0.574-0.502c0.123-0.221,0.191-0.539,0.205-0.953H513.387z"/>
		<path fill="#3C3C3B" d="M533.034,75.968l1.271,0.156c-0.201,0.743-0.571,1.32-1.113,1.73s-1.235,0.615-2.078,0.615
			c-1.062,0-1.904-0.328-2.526-0.981c-0.622-0.653-0.933-1.571-0.933-2.751c0-1.222,0.313-2.17,0.942-2.844
			c0.629-0.675,1.445-1.012,2.447-1.012c0.971,0,1.764,0.33,2.379,0.99c0.615,0.661,0.923,1.591,0.923,2.789
			c0,0.073-0.002,0.183-0.007,0.328h-5.414c0.045,0.798,0.271,1.408,0.677,1.832c0.406,0.424,0.912,0.637,1.519,0.637
			c0.451,0,0.836-0.119,1.155-0.355C532.594,76.865,532.847,76.487,533.034,75.968z M528.994,73.978h4.054
			c-0.055-0.61-0.209-1.068-0.465-1.373c-0.392-0.475-0.9-0.711-1.524-0.711c-0.564,0-1.039,0.188-1.425,0.566
			C529.248,72.839,529.035,73.345,528.994,73.978z"/>
		<path fill="#3C3C3B" d="M535.85,78.306v-7.26h1.107v1.031c0.533-0.797,1.303-1.195,2.311-1.195c0.438,0,0.841,0.078,1.207,0.235
			c0.367,0.157,0.643,0.363,0.824,0.618c0.182,0.256,0.311,0.559,0.383,0.91c0.045,0.228,0.068,0.626,0.068,1.195v4.465h-1.23V73.89
			c0-0.502-0.048-0.877-0.144-1.125s-0.266-0.447-0.509-0.595s-0.53-0.222-0.858-0.222c-0.523,0-0.977,0.166-1.356,0.498
			c-0.381,0.333-0.571,0.965-0.571,1.895v3.965H535.85L535.85,78.306z"/>
		<path fill="#3C3C3B" d="M559.714,75.968l1.271,0.156c-0.201,0.743-0.572,1.32-1.114,1.73s-1.235,0.615-2.078,0.615
			c-1.062,0-1.904-0.328-2.526-0.981c-0.622-0.653-0.933-1.571-0.933-2.751c0-1.222,0.314-2.17,0.943-2.844
			c0.629-0.675,1.444-1.012,2.446-1.012c0.972,0,1.765,0.33,2.38,0.99c0.614,0.661,0.923,1.591,0.923,2.789
			c0,0.073-0.002,0.183-0.008,0.328h-5.413c0.045,0.798,0.271,1.408,0.677,1.832c0.405,0.424,0.912,0.637,1.518,0.637
			c0.451,0,0.836-0.119,1.155-0.355C559.274,76.865,559.527,76.487,559.714,75.968z M555.674,73.978h4.055
			c-0.056-0.61-0.209-1.068-0.466-1.373c-0.392-0.475-0.899-0.711-1.523-0.711c-0.565,0-1.04,0.188-1.425,0.566
			C555.928,72.839,555.715,73.345,555.674,73.978z"/>
		<path fill="#3C3C3B" d="M562.503,78.306V68.284h1.23v10.021L562.503,78.306L562.503,78.306z"/>
		<path fill="#3C3C3B" d="M257.71,95.105v-7.26h1.107v1.101c0.283-0.516,0.543-0.854,0.783-1.019c0.24-0.165,0.502-0.246,0.79-0.246
			c0.415,0,0.836,0.132,1.265,0.396l-0.424,1.142c-0.301-0.178-0.602-0.267-0.902-0.267c-0.269,0-0.51,0.081-0.725,0.243
			c-0.214,0.161-0.367,0.386-0.458,0.673c-0.137,0.438-0.205,0.916-0.205,1.436v3.801H257.71z"/>
		<path fill="#3C3C3B" d="M267.355,92.768l1.271,0.157c-0.201,0.742-0.572,1.319-1.114,1.729c-0.542,0.41-1.235,0.615-2.078,0.615
			c-1.062,0-1.904-0.327-2.526-0.981c-0.622-0.653-0.933-1.57-0.933-2.751c0-1.222,0.314-2.169,0.943-2.844
			c0.629-0.675,1.445-1.012,2.447-1.012c0.971,0,1.764,0.331,2.379,0.991c0.615,0.66,0.923,1.59,0.923,2.789
			c0,0.072-0.002,0.182-0.007,0.328h-5.414c0.045,0.797,0.271,1.408,0.677,1.832c0.406,0.424,0.912,0.636,1.518,0.636
			c0.451,0,0.836-0.118,1.155-0.355C266.915,93.665,267.168,93.287,267.355,92.768z M263.315,90.778h4.054
			c-0.055-0.611-0.209-1.068-0.465-1.374c-0.392-0.474-0.9-0.711-1.524-0.711c-0.565,0-1.04,0.188-1.425,0.567
			C263.57,89.639,263.356,90.146,263.315,90.778z"/>
		<path fill="#3C3C3B" d="M269.68,92.938l1.217-0.191c0.068,0.488,0.259,0.861,0.571,1.121c0.312,0.26,0.749,0.39,1.309,0.39
			c0.565,0,0.984-0.115,1.258-0.345c0.273-0.23,0.41-0.5,0.41-0.811c0-0.277-0.121-0.496-0.362-0.656
			c-0.168-0.109-0.588-0.248-1.258-0.417c-0.902-0.228-1.528-0.425-1.876-0.591c-0.349-0.167-0.613-0.396-0.793-0.691
			c-0.18-0.293-0.27-0.618-0.27-0.974c0-0.323,0.074-0.623,0.222-0.899c0.148-0.275,0.35-0.504,0.605-0.687
			c0.191-0.142,0.452-0.261,0.783-0.358c0.331-0.099,0.685-0.147,1.063-0.147c0.57,0,1.07,0.082,1.5,0.246
			c0.43,0.164,0.749,0.386,0.954,0.667c0.205,0.279,0.346,0.654,0.424,1.124l-1.203,0.164c-0.055-0.374-0.213-0.665-0.475-0.875
			c-0.262-0.21-0.632-0.314-1.111-0.314c-0.565,0-0.968,0.093-1.21,0.28s-0.362,0.406-0.362,0.656c0,0.16,0.05,0.303,0.15,0.431
			c0.1,0.132,0.257,0.241,0.472,0.328c0.123,0.046,0.485,0.15,1.087,0.314c0.871,0.232,1.478,0.423,1.822,0.571
			c0.344,0.147,0.614,0.363,0.81,0.646c0.196,0.283,0.294,0.634,0.294,1.053c0,0.41-0.12,0.796-0.359,1.159
			c-0.239,0.361-0.584,0.643-1.036,0.84c-0.451,0.199-0.961,0.298-1.531,0.298c-0.943,0-1.662-0.196-2.157-0.588
			S269.816,93.708,269.68,92.938z"/>
		<path fill="#3C3C3B" d="M277.172,97.888V87.846h1.121v0.943c0.264-0.369,0.563-0.646,0.896-0.831
			c0.333-0.184,0.736-0.276,1.21-0.276c0.62,0,1.167,0.159,1.641,0.479c0.474,0.32,0.832,0.769,1.073,1.351
			c0.242,0.58,0.362,1.217,0.362,1.91c0,0.742-0.133,1.412-0.4,2.006c-0.267,0.596-0.654,1.051-1.162,1.367
			c-0.508,0.317-1.042,0.476-1.603,0.476c-0.41,0-0.778-0.087-1.104-0.26c-0.326-0.173-0.594-0.392-0.803-0.656v3.534
			L277.172,97.888L277.172,97.888z M278.286,91.517c0,0.934,0.189,1.625,0.567,2.071c0.378,0.446,0.836,0.67,1.374,0.67
			c0.547,0,1.015-0.231,1.405-0.694c0.39-0.462,0.584-1.179,0.584-2.149c0-0.925-0.19-1.618-0.571-2.078s-0.835-0.69-1.364-0.69
			c-0.524,0-0.988,0.245-1.391,0.734C278.488,89.87,278.286,90.583,278.286,91.517z"/>
		<path fill="#3C3C3B" d="M289.928,92.768l1.271,0.157c-0.201,0.742-0.572,1.319-1.114,1.729c-0.542,0.41-1.235,0.615-2.078,0.615
			c-1.062,0-1.904-0.327-2.526-0.981c-0.622-0.653-0.933-1.57-0.933-2.751c0-1.222,0.314-2.169,0.943-2.844
			c0.629-0.675,1.445-1.012,2.447-1.012c0.971,0,1.764,0.331,2.379,0.991c0.615,0.66,0.923,1.59,0.923,2.789
			c0,0.072-0.002,0.182-0.007,0.328h-5.414c0.045,0.797,0.271,1.408,0.677,1.832c0.406,0.424,0.912,0.636,1.518,0.636
			c0.451,0,0.836-0.118,1.155-0.355C289.488,93.665,289.741,93.287,289.928,92.768z M285.888,90.778h4.054
			c-0.055-0.611-0.209-1.068-0.465-1.374c-0.392-0.474-0.9-0.711-1.524-0.711c-0.565,0-1.04,0.188-1.425,0.567
			C286.143,89.639,285.929,90.146,285.888,90.778z"/>
		<path fill="#3C3C3B" d="M295.431,94.005l0.178,1.087c-0.346,0.073-0.656,0.109-0.93,0.109c-0.447,0-0.793-0.071-1.039-0.212
			c-0.246-0.141-0.419-0.327-0.52-0.557c-0.1-0.23-0.15-0.715-0.15-1.453v-4.177h-0.902v-0.957h0.902v-1.798l1.224-0.738v2.536
			h1.237v0.957h-1.237v4.245c0,0.352,0.021,0.576,0.065,0.677c0.044,0.101,0.114,0.181,0.212,0.239
			c0.098,0.058,0.238,0.089,0.42,0.089C295.027,94.053,295.208,94.036,295.431,94.005z"/>
		<path fill="#3C3C3B" d="M296.176,91.476c0-1.344,0.374-2.34,1.121-2.987c0.625-0.538,1.385-0.807,2.283-0.807
			c0.998,0,1.814,0.327,2.447,0.981c0.633,0.653,0.95,1.557,0.95,2.71c0,0.935-0.14,1.669-0.42,2.204
			c-0.28,0.536-0.688,0.951-1.224,1.248c-0.536,0.297-1.12,0.444-1.753,0.444c-1.016,0-1.838-0.325-2.464-0.978
			S296.176,92.702,296.176,91.476z M297.44,91.476c0,0.93,0.203,1.626,0.608,2.088c0.406,0.463,0.916,0.694,1.531,0.694
			c0.611,0,1.119-0.232,1.524-0.697s0.608-1.173,0.608-2.126c0-0.898-0.204-1.578-0.612-2.041c-0.408-0.462-0.915-0.693-1.521-0.693
			c-0.615,0-1.125,0.23-1.531,0.69C297.641,89.851,297.44,90.546,297.44,91.476z"/>
		<path fill="#3C3C3B" d="M313.02,95.105v-0.916c-0.46,0.72-1.137,1.08-2.03,1.08c-0.579,0-1.111-0.159-1.596-0.479
			s-0.861-0.765-1.128-1.337c-0.267-0.571-0.4-1.229-0.4-1.972c0-0.725,0.121-1.382,0.362-1.972
			c0.242-0.591,0.604-1.043,1.087-1.357s1.023-0.472,1.62-0.472c0.438,0,0.827,0.093,1.169,0.276
			c0.342,0.186,0.62,0.426,0.834,0.722v-3.596h1.224v10.021h-1.142V95.105z M309.13,91.482c0,0.93,0.196,1.624,0.588,2.085
			c0.392,0.461,0.854,0.69,1.388,0.69c0.538,0,0.995-0.22,1.371-0.659c0.376-0.44,0.564-1.111,0.564-2.014
			c0-0.994-0.191-1.723-0.574-2.188c-0.383-0.465-0.854-0.697-1.415-0.697c-0.547,0-1.004,0.223-1.371,0.67
			C309.314,89.816,309.13,90.521,309.13,91.482z"/>
		<path fill="#3C3C3B" d="M321.065,92.768l1.271,0.157c-0.201,0.742-0.572,1.319-1.114,1.729c-0.542,0.41-1.235,0.615-2.078,0.615
			c-1.062,0-1.904-0.327-2.526-0.981c-0.622-0.653-0.933-1.57-0.933-2.751c0-1.222,0.314-2.169,0.943-2.844
			c0.629-0.675,1.445-1.012,2.447-1.012c0.971,0,1.764,0.331,2.379,0.991c0.615,0.66,0.923,1.59,0.923,2.789
			c0,0.072-0.002,0.182-0.007,0.328h-5.414c0.045,0.797,0.271,1.408,0.677,1.832c0.406,0.424,0.912,0.636,1.518,0.636
			c0.451,0,0.836-0.118,1.155-0.355C320.625,93.665,320.878,93.287,321.065,92.768z M317.025,90.778h4.054
			c-0.055-0.611-0.209-1.068-0.465-1.374c-0.392-0.474-0.9-0.711-1.524-0.711c-0.565,0-1.04,0.188-1.425,0.567
			C317.28,89.639,317.066,90.146,317.025,90.778z"/>
		<path fill="#3C3C3B" d="M327.744,95.105V85.084h1.23v10.021H327.744z"/>
		<path fill="#3C3C3B" d="M335.619,94.21c-0.456,0.387-0.895,0.66-1.316,0.82c-0.421,0.16-0.874,0.239-1.357,0.239
			c-0.797,0-1.411-0.194-1.839-0.585c-0.428-0.389-0.643-0.887-0.643-1.493c0-0.355,0.081-0.681,0.243-0.974
			c0.162-0.295,0.374-0.53,0.636-0.708c0.262-0.178,0.557-0.312,0.885-0.403c0.242-0.064,0.606-0.125,1.094-0.185
			c0.994-0.118,1.725-0.26,2.194-0.424c0.004-0.169,0.007-0.276,0.007-0.321c0-0.502-0.116-0.854-0.349-1.06
			c-0.314-0.278-0.782-0.417-1.401-0.417c-0.579,0-1.006,0.102-1.282,0.305c-0.276,0.202-0.479,0.561-0.612,1.076l-1.203-0.164
			c0.109-0.516,0.29-0.931,0.54-1.248c0.25-0.316,0.613-0.561,1.087-0.73c0.474-0.172,1.023-0.257,1.647-0.257
			c0.62,0,1.124,0.073,1.511,0.219c0.387,0.146,0.672,0.329,0.854,0.55c0.182,0.222,0.31,0.5,0.383,0.838
			c0.041,0.209,0.062,0.588,0.062,1.135v1.641c0,1.145,0.026,1.867,0.079,2.17c0.052,0.304,0.156,0.594,0.311,0.872h-1.285
			C335.738,94.851,335.656,94.552,335.619,94.21z M335.517,91.462c-0.447,0.182-1.117,0.338-2.01,0.465
			c-0.506,0.072-0.864,0.154-1.073,0.246c-0.209,0.092-0.372,0.225-0.485,0.4c-0.114,0.175-0.171,0.369-0.171,0.584
			c0,0.328,0.124,0.602,0.373,0.82c0.249,0.218,0.612,0.328,1.09,0.328c0.474,0,0.896-0.104,1.265-0.311
			c0.369-0.208,0.64-0.492,0.813-0.852c0.132-0.277,0.198-0.688,0.198-1.23V91.462z"/>
		<path fill="#3C3C3B" d="M347.268,95.105v-0.916c-0.46,0.72-1.137,1.08-2.03,1.08c-0.579,0-1.111-0.159-1.596-0.479
			s-0.861-0.765-1.128-1.337c-0.267-0.571-0.4-1.229-0.4-1.972c0-0.725,0.121-1.382,0.362-1.972
			c0.242-0.591,0.604-1.043,1.087-1.357s1.023-0.472,1.62-0.472c0.438,0,0.827,0.093,1.169,0.276
			c0.342,0.186,0.62,0.426,0.834,0.722v-3.596h1.224v10.021h-1.142V95.105z M343.378,91.482c0,0.93,0.196,1.624,0.588,2.085
			c0.392,0.461,0.854,0.69,1.388,0.69c0.538,0,0.995-0.22,1.371-0.659c0.376-0.44,0.564-1.111,0.564-2.014
			c0-0.994-0.191-1.723-0.574-2.188c-0.383-0.465-0.854-0.697-1.415-0.697c-0.547,0-1.004,0.223-1.371,0.67
			C343.562,89.816,343.378,90.521,343.378,91.482z"/>
		<path fill="#3C3C3B" d="M350.351,86.499v-1.415h1.23v1.415H350.351z M350.351,95.105v-7.26h1.23v7.26H350.351z"/>
		<path fill="#3C3C3B" d="M353.229,95.707l1.196,0.178c0.05,0.369,0.189,0.638,0.417,0.807c0.305,0.228,0.722,0.342,1.251,0.342
			c0.57,0,1.009-0.114,1.319-0.342s0.52-0.547,0.629-0.957c0.064-0.251,0.093-0.776,0.089-1.579c-0.538,0.633-1.208,0.95-2.01,0.95
			c-0.998,0-1.771-0.36-2.317-1.08c-0.546-0.72-0.82-1.583-0.82-2.591c0-0.693,0.125-1.332,0.376-1.918
			c0.25-0.585,0.614-1.037,1.09-1.356c0.476-0.319,1.036-0.479,1.678-0.479c0.857,0,1.563,0.347,2.119,1.039v-0.875h1.135v6.275
			c0,1.13-0.115,1.931-0.345,2.403c-0.23,0.471-0.595,0.844-1.094,1.117s-1.113,0.41-1.842,0.41c-0.866,0-1.565-0.195-2.099-0.584
			C353.468,97.077,353.21,96.491,353.229,95.707z M354.247,91.346c0,0.952,0.189,1.647,0.567,2.085s0.852,0.656,1.422,0.656
			c0.565,0,1.039-0.218,1.422-0.652c0.383-0.436,0.574-1.118,0.574-2.048c0-0.889-0.197-1.559-0.591-2.01s-0.869-0.677-1.425-0.677
			c-0.547,0-1.012,0.223-1.395,0.666C354.438,89.812,354.247,90.471,354.247,91.346z"/>
		<path fill="#3C3C3B" d="M361.24,95.105v-7.26h1.107v1.032c0.533-0.797,1.303-1.196,2.311-1.196c0.438,0,0.84,0.079,1.207,0.235
			c0.367,0.158,0.642,0.363,0.824,0.619c0.182,0.256,0.31,0.559,0.383,0.909c0.045,0.228,0.068,0.626,0.068,1.196v4.464h-1.23
			v-4.416c0-0.501-0.048-0.876-0.144-1.124c-0.096-0.249-0.266-0.447-0.509-0.596c-0.244-0.147-0.53-0.222-0.858-0.222
			c-0.524,0-0.977,0.167-1.357,0.499s-0.571,0.964-0.571,1.894v3.965L361.24,95.105L361.24,95.105z"/>
		<path fill="#3C3C3B" d="M369.033,86.499v-1.415h1.23v1.415H369.033z M369.033,95.105v-7.26h1.23v7.26H369.033z"/>
		<path fill="#3C3C3B" d="M376.848,95.105v-0.916c-0.461,0.72-1.138,1.08-2.031,1.08c-0.578,0-1.11-0.159-1.596-0.479
			c-0.484-0.32-0.861-0.765-1.128-1.337c-0.267-0.571-0.399-1.229-0.399-1.972c0-0.725,0.121-1.382,0.361-1.972
			c0.242-0.591,0.604-1.043,1.088-1.357c0.482-0.314,1.022-0.472,1.619-0.472c0.438,0,0.827,0.093,1.17,0.276
			c0.342,0.186,0.619,0.426,0.834,0.722v-3.596h1.224v10.021h-1.142V95.105z M372.957,91.482c0,0.93,0.195,1.624,0.588,2.085
			s0.854,0.69,1.389,0.69c0.537,0,0.994-0.22,1.371-0.659c0.375-0.44,0.563-1.111,0.563-2.014c0-0.994-0.191-1.723-0.574-2.188
			s-0.854-0.697-1.415-0.697c-0.547,0-1.004,0.223-1.371,0.67C373.141,89.816,372.957,90.521,372.957,91.482z"/>
		<path fill="#3C3C3B" d="M384.66,94.21c-0.456,0.387-0.895,0.66-1.316,0.82c-0.421,0.16-0.873,0.239-1.357,0.239
			c-0.797,0-1.41-0.194-1.838-0.585c-0.428-0.389-0.644-0.887-0.644-1.493c0-0.355,0.081-0.681,0.243-0.974
			c0.162-0.295,0.374-0.53,0.636-0.708c0.263-0.178,0.558-0.312,0.886-0.403c0.242-0.064,0.605-0.125,1.094-0.185
			c0.994-0.118,1.725-0.26,2.193-0.424c0.004-0.169,0.008-0.276,0.008-0.321c0-0.502-0.116-0.854-0.35-1.06
			c-0.314-0.278-0.781-0.417-1.4-0.417c-0.58,0-1.006,0.102-1.282,0.305c-0.276,0.202-0.479,0.561-0.612,1.076l-1.203-0.164
			c0.109-0.516,0.29-0.931,0.54-1.248c0.25-0.316,0.613-0.561,1.087-0.73c0.475-0.172,1.023-0.257,1.647-0.257
			c0.62,0,1.124,0.073,1.511,0.219s0.672,0.329,0.854,0.55c0.183,0.222,0.311,0.5,0.383,0.838c0.041,0.209,0.062,0.588,0.062,1.135
			v1.641c0,1.145,0.026,1.867,0.079,2.17c0.052,0.304,0.156,0.594,0.312,0.872h-1.285C384.779,94.851,384.697,94.552,384.66,94.21z
			 M384.559,91.462c-0.447,0.182-1.117,0.338-2.011,0.465c-0.506,0.072-0.864,0.154-1.073,0.246c-0.209,0.092-0.371,0.225-0.484,0.4
			c-0.114,0.175-0.172,0.369-0.172,0.584c0,0.328,0.125,0.602,0.373,0.82c0.25,0.218,0.613,0.328,1.091,0.328
			c0.474,0,0.896-0.104,1.265-0.311c0.369-0.208,0.641-0.492,0.812-0.852c0.133-0.277,0.199-0.688,0.199-1.23V91.462z"/>
		<path fill="#3C3C3B" d="M392.419,95.105v-0.916c-0.46,0.72-1.137,1.08-2.03,1.08c-0.578,0-1.111-0.159-1.596-0.479
			s-0.861-0.765-1.128-1.337c-0.267-0.571-0.399-1.229-0.399-1.972c0-0.725,0.121-1.382,0.361-1.972
			c0.242-0.591,0.604-1.043,1.087-1.357s1.022-0.472,1.62-0.472c0.438,0,0.827,0.093,1.169,0.276
			c0.343,0.186,0.62,0.426,0.834,0.722v-3.596h1.224v10.021h-1.142V95.105z M388.529,91.482c0,0.93,0.195,1.624,0.588,2.085
			c0.392,0.461,0.854,0.69,1.388,0.69c0.538,0,0.995-0.22,1.371-0.659c0.376-0.44,0.563-1.111,0.563-2.014
			c0-0.994-0.19-1.723-0.573-2.188c-0.384-0.465-0.854-0.697-1.415-0.697c-0.547,0-1.004,0.223-1.371,0.67
			C388.713,89.816,388.529,90.521,388.529,91.482z"/>
		<path fill="#3C3C3B" d="M399.385,95.105V85.084h1.23v3.596c0.574-0.665,1.299-0.998,2.174-0.998c0.538,0,1.005,0.106,1.401,0.317
			c0.396,0.213,0.68,0.506,0.851,0.879s0.256,0.916,0.256,1.627v4.601h-1.229v-4.601c0-0.615-0.134-1.062-0.4-1.344
			c-0.267-0.279-0.644-0.42-1.131-0.42c-0.365,0-0.708,0.095-1.029,0.283c-0.321,0.189-0.55,0.445-0.687,0.77
			c-0.138,0.325-0.205,0.77-0.205,1.34v3.972L399.385,95.105L399.385,95.105z"/>
		<path fill="#3C3C3B" d="M411.929,95.105v-1.066c-0.564,0.82-1.333,1.23-2.304,1.23c-0.428,0-0.828-0.082-1.2-0.246
			s-0.646-0.37-0.827-0.618c-0.18-0.249-0.307-0.553-0.379-0.913c-0.05-0.241-0.075-0.624-0.075-1.148v-4.498h1.23v4.026
			c0,0.643,0.025,1.076,0.075,1.299c0.078,0.324,0.242,0.578,0.492,0.762c0.25,0.186,0.561,0.277,0.93,0.277
			s0.715-0.095,1.039-0.283s0.553-0.447,0.687-0.773c0.135-0.325,0.202-0.799,0.202-1.418v-3.89h1.23v7.26L411.929,95.105
			L411.929,95.105z"/>
		<path fill="#3C3C3B" d="M414.957,95.105v-7.26h1.101v1.02c0.229-0.355,0.531-0.642,0.909-0.857
			c0.378-0.217,0.81-0.325,1.292-0.325c0.538,0,0.979,0.112,1.323,0.335s0.587,0.535,0.728,0.937
			c0.574-0.848,1.322-1.271,2.242-1.271c0.721,0,1.274,0.199,1.661,0.599c0.387,0.398,0.581,1.012,0.581,1.842v4.983h-1.224v-4.573
			c0-0.492-0.04-0.847-0.12-1.062c-0.08-0.217-0.226-0.391-0.435-0.523c-0.209-0.132-0.456-0.198-0.737-0.198
			c-0.511,0-0.935,0.17-1.271,0.509c-0.337,0.34-0.506,0.883-0.506,1.631v4.218h-1.229v-4.717c0-0.547-0.101-0.957-0.302-1.23
			s-0.528-0.41-0.983-0.41c-0.347,0-0.667,0.091-0.96,0.273s-0.508,0.448-0.64,0.8c-0.132,0.352-0.197,0.857-0.197,1.518v3.767
			h-1.232V95.105z"/>
		<path fill="#3C3C3B" d="M431.356,94.21c-0.456,0.387-0.896,0.66-1.316,0.82c-0.421,0.16-0.874,0.239-1.357,0.239
			c-0.797,0-1.411-0.194-1.839-0.585c-0.428-0.389-0.643-0.887-0.643-1.493c0-0.355,0.081-0.681,0.243-0.974
			c0.162-0.295,0.374-0.53,0.636-0.708c0.262-0.178,0.557-0.312,0.885-0.403c0.242-0.064,0.606-0.125,1.094-0.185
			c0.994-0.118,1.726-0.26,2.194-0.424c0.004-0.169,0.007-0.276,0.007-0.321c0-0.502-0.116-0.854-0.349-1.06
			c-0.314-0.278-0.782-0.417-1.401-0.417c-0.579,0-1.006,0.102-1.282,0.305c-0.275,0.202-0.479,0.561-0.611,1.076l-1.203-0.164
			c0.108-0.516,0.29-0.931,0.54-1.248c0.25-0.316,0.613-0.561,1.087-0.73c0.474-0.172,1.022-0.257,1.646-0.257
			c0.62,0,1.124,0.073,1.512,0.219c0.387,0.146,0.672,0.329,0.854,0.55c0.183,0.222,0.311,0.5,0.383,0.838
			c0.041,0.209,0.062,0.588,0.062,1.135v1.641c0,1.145,0.026,1.867,0.079,2.17c0.052,0.304,0.156,0.594,0.311,0.872h-1.285
			C431.475,94.851,431.393,94.552,431.356,94.21z M431.254,91.462c-0.447,0.182-1.117,0.338-2.01,0.465
			c-0.506,0.072-0.864,0.154-1.073,0.246c-0.209,0.092-0.372,0.225-0.485,0.4c-0.113,0.175-0.171,0.369-0.171,0.584
			c0,0.328,0.124,0.602,0.373,0.82c0.249,0.218,0.612,0.328,1.09,0.328c0.475,0,0.896-0.104,1.266-0.311
			c0.369-0.208,0.64-0.492,0.812-0.852c0.132-0.277,0.198-0.688,0.198-1.23V91.462z"/>
		<path fill="#3C3C3B" d="M434.405,95.105v-7.26h1.106v1.032c0.533-0.797,1.304-1.196,2.312-1.196c0.438,0,0.84,0.079,1.207,0.235
			c0.367,0.158,0.642,0.363,0.823,0.619c0.183,0.256,0.311,0.559,0.384,0.909c0.045,0.228,0.067,0.626,0.067,1.196v4.464h-1.229
			v-4.416c0-0.501-0.048-0.876-0.145-1.124c-0.096-0.249-0.266-0.447-0.509-0.596c-0.244-0.147-0.53-0.222-0.857-0.222
			c-0.524,0-0.978,0.167-1.357,0.499s-0.571,0.964-0.571,1.894v3.965L434.405,95.105L434.405,95.105z"/>
		<path fill="#3C3C3B" d="M446.929,94.21c-0.456,0.387-0.895,0.66-1.315,0.82c-0.421,0.16-0.874,0.239-1.357,0.239
			c-0.797,0-1.411-0.194-1.839-0.585c-0.428-0.389-0.643-0.887-0.643-1.493c0-0.355,0.081-0.681,0.242-0.974
			c0.162-0.295,0.374-0.53,0.637-0.708c0.262-0.178,0.557-0.312,0.885-0.403c0.242-0.064,0.605-0.125,1.094-0.185
			c0.994-0.118,1.726-0.26,2.194-0.424c0.004-0.169,0.007-0.276,0.007-0.321c0-0.502-0.116-0.854-0.349-1.06
			c-0.314-0.278-0.782-0.417-1.401-0.417c-0.579,0-1.006,0.102-1.282,0.305c-0.275,0.202-0.479,0.561-0.611,1.076l-1.203-0.164
			c0.108-0.516,0.29-0.931,0.54-1.248c0.25-0.316,0.612-0.561,1.087-0.73c0.474-0.172,1.022-0.257,1.646-0.257
			c0.62,0,1.124,0.073,1.511,0.219c0.388,0.146,0.673,0.329,0.854,0.55c0.182,0.222,0.31,0.5,0.383,0.838
			c0.041,0.209,0.062,0.588,0.062,1.135v1.641c0,1.145,0.025,1.867,0.079,2.17c0.052,0.304,0.155,0.594,0.311,0.872h-1.285
			C447.047,94.851,446.965,94.552,446.929,94.21z M446.826,91.462c-0.447,0.182-1.117,0.338-2.01,0.465
			c-0.507,0.072-0.864,0.154-1.073,0.246c-0.209,0.092-0.372,0.225-0.485,0.4c-0.114,0.175-0.171,0.369-0.171,0.584
			c0,0.328,0.124,0.602,0.373,0.82c0.249,0.218,0.612,0.328,1.09,0.328c0.475,0,0.896-0.104,1.266-0.311
			c0.368-0.208,0.64-0.492,0.812-0.852c0.132-0.277,0.198-0.688,0.198-1.23V91.462z"/>
		<path fill="#3C3C3B" d="M450.326,95.105v-1.401h1.4v1.401H450.326z"/>
	</g>
</g>
</svg>
