<?xml version="1.0" encoding="utf-8"?>
<!-- Generator: Adobe Illustrator 16.0.0, SVG Export Plug-In . SVG Version: 6.00 Build 0)  -->
<!DOCTYPE svg PUBLIC "-//W3C//DTD SVG 1.1//EN" "http://www.w3.org/Graphics/SVG/1.1/DTD/svg11.dtd">
<svg version="1.1" id="Capa_1" xmlns="http://www.w3.org/2000/svg" xmlns:xlink="http://www.w3.org/1999/xlink" x="0px" y="0px"
	 width="527.316px" height="328.895px" viewBox="0 0 527.316 328.895" enable-background="new 0 0 527.316 328.895"
	 xml:space="preserve">
<g>
	<g>
		<path fill="#2C5A67" d="M0,0l4.824,328.895l485.494-2.455L517,40.764c-2.938,1.358-6.244,2.037-9.703,1.84
			c-11.23-0.643-19.822-10.275-19.178-21.514c0.174-3.051,1.014-5.914,2.367-8.439L0,0z"/>
		<path fill="#2C5A67" d="M509.037,12.248c-5.527-0.316-10.266,3.907-10.582,9.435c-0.316,5.526,3.908,10.262,9.438,10.579
			c5.525,0.315,10.262-3.909,10.576-9.434C518.787,17.301,514.564,12.564,509.037,12.248z M513.103,26.277
			c0.287,0.324,0.26,0.818-0.062,1.109c-0.326,0.287-0.818,0.26-1.107-0.063l-3.529-3.959l-3.961,3.531
			c-0.324,0.287-0.82,0.26-1.109-0.063c-0.283-0.325-0.254-0.819,0.064-1.108l3.957-3.531l-3.529-3.96
			c-0.289-0.325-0.254-0.817,0.072-1.109c0.314-0.278,0.811-0.259,1.1,0.063l3.531,3.959l3.959-3.529
			c0.322-0.281,0.816-0.252,1.107,0.062c0.287,0.326,0.26,0.818-0.062,1.11l-3.959,3.53L513.103,26.277z"/>
		<g>
			<path fill="#2C5A67" d="M489.64,21.178c0.594-10.379,9.52-18.339,19.898-17.746c10.379,0.593,18.338,9.521,17.746,19.898
				c-0.594,10.379-9.521,18.34-19.898,17.747C497.007,40.482,489.046,31.557,489.64,21.178z M495.458,21.511
				c-0.41,7.171,5.09,13.336,12.26,13.746c7.17,0.409,13.336-5.089,13.746-12.259c0.412-7.17-5.088-13.337-12.258-13.747
				C502.037,8.842,495.869,14.34,495.458,21.511z"/>
		</g>
	</g>
	<g>
		<g>
			<path fill="#A0C219" d="M174.51,82.543h4.874l5.581,28.809h-3.589l-1.337-8.008h-6.34l-1.441,8.008h-3.511L174.51,82.543z
				 M176.815,84.672l-2.803,16.562h5.581l-2.62-16.562H176.815z"/>
			<path fill="#A0C219" d="M184.519,82.543h11.345v2.285h-3.982v26.523h-3.38V84.828h-3.982L184.519,82.543L184.519,82.543z"/>
			<path fill="#A0C219" d="M199.349,82.543h9.223v2.285h-5.896v10.371h5.634v2.266h-5.634v11.602h6.053v2.285h-9.38V82.543
				L199.349,82.543z"/>
			<path fill="#A0C219" d="M213.523,82.543h4.559l5.529,27.09h0.052l-0.498-27.09h3.013v28.809h-4.611l-5.477-26.719h-0.104
				l0.472,26.719h-2.935V82.543L213.523,82.543z"/>
			<path fill="#A0C219" d="M243.209,87.113v2.754h-3.511v-2.676c0-1.119-0.161-1.895-0.484-2.324
				c-0.323-0.429-0.896-0.645-1.716-0.645c-0.751,0-1.275,0.244-1.572,0.732c-0.298,0.488-0.446,1.514-0.446,3.076v17.832
				c0,1.602,0.157,2.644,0.472,3.125c0.314,0.482,0.891,0.723,1.729,0.723c0.716,0,1.231-0.228,1.546-0.684
				c0.314-0.455,0.472-1.23,0.472-2.324v-3.105h3.511v3.203c0,1.967-0.411,3.298-1.231,3.994c-0.821,0.696-2.289,1.045-4.402,1.045
				c-2.079,0-3.528-0.449-4.35-1.348c-0.822-0.899-1.231-2.571-1.231-5.02V88.422c0-2.435,0.41-4.095,1.231-4.98
				c0.821-0.885,2.271-1.328,4.35-1.328c2.131,0,3.603,0.346,4.415,1.035C242.803,83.839,243.209,85.16,243.209,87.113z"/>
			<path fill="#A0C219" d="M247.559,82.543h3.537v28.809h-3.537V82.543z"/>
			<path fill="#A0C219" d="M268.992,88.422v17.051c0,2.475-0.445,4.154-1.337,5.039c-0.891,0.885-2.479,1.328-4.769,1.328
				c-2.254,0-3.826-0.449-4.717-1.348c-0.891-0.898-1.336-2.571-1.336-5.02v-17.05c0-2.422,0.449-4.078,1.35-4.971
				c0.899-0.892,2.484-1.338,4.755-1.338c2.271,0,3.849,0.443,4.729,1.328C268.55,84.327,268.992,85.987,268.992,88.422z
				 M265.507,88.031c0-1.458-0.192-2.457-0.577-2.998c-0.384-0.54-1.066-0.811-2.043-0.811c-0.961,0-1.629,0.264-2.005,0.791
				c-0.376,0.527-0.563,1.533-0.563,3.018v17.832c0,1.498,0.192,2.507,0.577,3.027c0.384,0.521,1.065,0.781,2.043,0.781
				c0.961,0,1.629-0.26,2.005-0.781c0.375-0.521,0.563-1.529,0.563-3.027V88.031z M263.751,75.57h3.694l-3.432,4.355h-2.568
				L263.751,75.57z"/>
			<path fill="#A0C219" d="M274.86,82.543h4.56l5.528,27.09H285l-0.498-27.09h3.014v28.809h-4.611l-5.477-26.719h-0.104
				l0.471,26.719h-2.935V82.543L274.86,82.543z"/>
		</g>
	</g>
	<path fill="#A0C219" d="M48.683,84.197c0.27,12.688,4.238,24.094,12.229,33.99c8.729,10.812,19.964,17.557,33.662,19.988
		c3.421,0.607,6.938,0.924,10.415,0.945c17.604,0.09,35.211,0.041,52.817,0.037c0.546,0,1.092-0.078,1.641-0.119
		c0.026-0.117,0.053-0.24,0.08-0.357c-6.676-3.959-13.353-7.914-20.162-11.949c0.876-0.809,1.618-1.502,2.365-2.184
		c9.545-8.715,15.353-19.471,17.472-32.195c1.94-11.674,0.362-22.938-5.001-33.441c-8.706-17.059-22.658-27.381-41.593-30.424
		c-13.957-2.246-27.038,0.713-38.847,8.521c-11.239,7.434-18.87,17.666-22.759,30.627C49.382,73.043,48.563,78.564,48.683,84.197z
		 M95.021,108.014c-0.056-5.107,4.14-9.371,9.24-9.393c5.133-0.021,9.367,4.148,9.392,9.244c0.021,5.082-4.232,9.357-9.31,9.361
		C99.321,117.23,95.076,113.035,95.021,108.014z M94.481,49.943c0.312-0.115,0.433-0.201,0.558-0.201
		c6.087-0.014,12.173-0.01,18.262-0.037c0.847-0.002,0.933,0.426,0.876,1.109c-0.172,2.008-0.307,4.016-0.451,6.023
		c-0.42,5.713-0.82,11.422-1.264,17.131c-0.272,3.488-0.667,6.967-0.901,10.455c-0.218,3.289-0.296,6.586-0.44,10.021H97.754
		C96.657,79.518,95.567,64.713,94.481,49.943z"/>
</g>
</svg>
