<?xml version="1.0" encoding="utf-8"?>
<!-- Generator: Adobe Illustrator 16.0.0, SVG Export Plug-In . SVG Version: 6.00 Build 0)  -->
<!DOCTYPE svg PUBLIC "-//W3C//DTD SVG 1.1//EN" "http://www.w3.org/Graphics/SVG/1.1/DTD/svg11.dtd">
<svg version="1.1" id="Capa_1" xmlns="http://www.w3.org/2000/svg" xmlns:xlink="http://www.w3.org/1999/xlink" x="0px" y="0px"
	 width="197.461px" height="39.796px" viewBox="0 42.236 197.461 39.796" enable-background="new 0 42.236 197.461 39.796"
	 xml:space="preserve">
<g>
	<polygon opacity="0.7" fill="#FFFFFF" enable-background="new    " points="0,44.969 197.461,42.236 197.461,82.031 25.25,82.012 	
		"/>
	<g>
		<g>
			<path fill="#331842" d="M48.838,47.235h2.357l2.859,14.009h0.027l-0.257-14.009h1.558v14.896h-2.384l-2.832-13.815h-0.054
				l0.244,13.815h-1.517L48.838,47.235L48.838,47.235z"/>
			<path fill="#331842" d="M64.675,50.275v8.816c0,1.279-0.23,2.146-0.69,2.604c-0.461,0.458-1.283,0.688-2.466,0.688
				c-1.165,0-1.979-0.231-2.438-0.696c-0.461-0.465-0.691-1.33-0.691-2.596v-8.816c0-1.252,0.232-2.108,0.698-2.569
				c0.466-0.461,1.285-0.691,2.459-0.691c1.174,0,1.989,0.229,2.445,0.688S64.675,49.017,64.675,50.275z M62.874,50.073
				c0-0.755-0.1-1.271-0.298-1.551c-0.199-0.278-0.551-0.42-1.057-0.42c-0.497,0-0.843,0.138-1.037,0.41
				c-0.194,0.271-0.292,0.792-0.292,1.561v9.221c0,0.773,0.1,1.296,0.298,1.564c0.198,0.27,0.551,0.404,1.057,0.404
				c0.497,0,0.842-0.135,1.037-0.404c0.194-0.27,0.291-0.791,0.291-1.564L62.874,50.073L62.874,50.073z"/>
			<path fill="#331842" d="M67.71,47.235h2.628c1.354,0,2.271,0.143,2.75,0.426c0.479,0.281,0.718,0.791,0.718,1.523v3.373
				c0,0.62-0.158,1.059-0.474,1.313c-0.316,0.256-0.876,0.41-1.68,0.464c0.857,0.04,1.454,0.188,1.788,0.443
				c0.334,0.257,0.501,0.7,0.501,1.333v6.021h-1.829v-5.564c0-0.699-0.133-1.154-0.399-1.363c-0.267-0.208-0.815-0.313-1.646-0.313
				H69.43v7.241h-1.72V47.235z M69.431,48.336v5.442h0.61c0.786,0,1.31-0.102,1.571-0.308c0.262-0.205,0.393-0.661,0.393-1.368
				v-2.069c0-0.715-0.131-1.176-0.393-1.385c-0.262-0.208-0.786-0.313-1.571-0.313H69.431z"/>
			<path fill="#331842" d="M76.95,47.235h2.994l1.938,13.716h0.135l1.896-13.716h2.913v14.896h-1.503V48.356h-0.271L83.1,62.132
				h-2.411L78.67,48.356h-0.23v13.775h-1.49V47.235z"/>
			<path fill="#331842" d="M91.622,47.235h2.52l2.886,14.896h-1.856l-0.69-4.141h-3.279l-0.745,4.141h-1.815L91.622,47.235z
				 M92.814,48.336L91.365,56.9h2.886l-1.355-8.563H92.814z"/>
			<path fill="#331842" d="M96.797,47.235h5.866v1.183h-2.06v13.715h-1.747V48.417h-2.06L96.797,47.235L96.797,47.235z"/>
			<path fill="#331842" d="M104.465,47.235h1.828v14.896h-1.828V47.235z"/>
			<path fill="#331842" d="M108.206,47.235h1.748l1.855,13.411h0.189l1.748-13.411h1.639l-2.168,14.896h-2.682L108.206,47.235z"/>
			<path fill="#331842" d="M117.363,47.235h1.829v14.896h-1.829V47.235z"/>
			<path fill="#331842" d="M122.241,47.235h2.018c1.707,0,2.822,0.2,3.348,0.602c0.523,0.4,0.786,1.317,0.786,2.752v8.19
				c0,1.428-0.267,2.343-0.8,2.746c-0.532,0.404-1.643,0.606-3.332,0.606h-2.02V47.235L122.241,47.235z M123.959,48.336v12.695
				h0.557c0.831,0,1.379-0.104,1.646-0.31c0.267-0.205,0.399-0.658,0.399-1.357v-9.331c0-0.707-0.136-1.167-0.405-1.38
				c-0.271-0.212-0.818-0.317-1.64-0.317H123.959z"/>
			<path fill="#331842" d="M133.12,47.235h2.521l2.885,14.896h-1.856l-0.69-4.141H132.7l-0.746,4.141h-1.814L133.12,47.235z
				 M134.311,48.336l-1.449,8.563h2.885l-1.354-8.563H134.311z"/>
			<path fill="#331842" d="M140.354,47.235h2.02c1.707,0,2.821,0.2,3.346,0.602c0.523,0.4,0.785,1.317,0.785,2.752v8.19
				c0,1.428-0.267,2.343-0.799,2.746c-0.533,0.404-1.645,0.606-3.334,0.606h-2.019L140.354,47.235L140.354,47.235z M142.075,48.336
				v12.695h0.555c0.832,0,1.381-0.104,1.646-0.31s0.4-0.658,0.4-1.357v-9.331c0-0.707-0.137-1.167-0.406-1.38
				c-0.271-0.212-0.818-0.317-1.641-0.317H142.075z"/>
			<path fill="#331842" d="M153.779,47.235h4.769v1.183H155.5v5.361h2.912v1.173H155.5v5.999h3.129v1.182h-4.85L153.779,47.235
				L153.779,47.235z"/>
			<path fill="#331842" d="M161.109,47.235h2.356l2.859,14.009h0.027l-0.258-14.009h1.559v14.896h-2.384l-2.832-13.815h-0.054
				l0.244,13.815h-1.518L161.109,47.235L161.109,47.235z"/>
			<path fill="#331842" d="M81.027,66.834v1.424h-1.815v-1.383c0-0.579-0.083-0.98-0.25-1.202s-0.463-0.333-0.888-0.333
				c-0.388,0-0.659,0.126-0.812,0.379c-0.154,0.252-0.23,0.782-0.23,1.59v9.221c0,0.828,0.081,1.367,0.244,1.616
				c0.162,0.249,0.46,0.373,0.894,0.373c0.371,0,0.637-0.117,0.8-0.353c0.162-0.236,0.244-0.638,0.244-1.202v-1.606h1.815v1.656
				c0,1.019-0.212,1.705-0.637,2.065c-0.425,0.359-1.183,0.54-2.276,0.54c-1.075,0-1.825-0.231-2.249-0.696
				c-0.425-0.465-0.637-1.329-0.637-2.596v-8.816c0-1.259,0.212-2.117,0.637-2.575c0.424-0.457,1.174-0.687,2.249-0.687
				c1.102,0,1.862,0.179,2.283,0.535C80.817,65.141,81.027,65.824,81.027,66.834z"/>
			<path fill="#331842" d="M89.481,67.511v8.816c0,1.278-0.23,2.146-0.69,2.604c-0.461,0.458-1.283,0.688-2.466,0.688
				c-1.165,0-1.979-0.231-2.438-0.696c-0.461-0.465-0.691-1.329-0.691-2.596v-8.816c0-1.252,0.232-2.108,0.698-2.57
				c0.465-0.461,1.285-0.69,2.459-0.69s1.989,0.229,2.445,0.687C89.253,65.394,89.481,66.252,89.481,67.511z M87.679,67.309
				c0-0.754-0.1-1.271-0.298-1.55c-0.199-0.279-0.551-0.419-1.057-0.419c-0.497,0-0.843,0.137-1.037,0.409
				c-0.194,0.271-0.292,0.792-0.292,1.56v9.221c0,0.774,0.1,1.297,0.298,1.565c0.198,0.27,0.551,0.404,1.057,0.404
				c0.497,0,0.842-0.135,1.037-0.404c0.194-0.27,0.291-0.791,0.291-1.565L87.679,67.309L87.679,67.309z"/>
			<path fill="#331842" d="M92.516,64.471h1.721v13.715h3.103v1.183h-4.823L92.516,64.471L92.516,64.471z"/>
			<path fill="#331842" d="M105.209,67.511v8.816c0,1.278-0.229,2.146-0.69,2.604c-0.46,0.458-1.282,0.688-2.466,0.688
				c-1.165,0-1.979-0.231-2.438-0.696c-0.461-0.465-0.691-1.329-0.691-2.596v-8.816c0-1.252,0.232-2.108,0.697-2.57
				c0.465-0.461,1.285-0.69,2.459-0.69s1.989,0.229,2.445,0.687C104.982,65.394,105.209,66.252,105.209,67.511z M103.409,67.309
				c0-0.754-0.1-1.271-0.299-1.55s-0.551-0.419-1.057-0.419c-0.497,0-0.842,0.137-1.036,0.409c-0.194,0.271-0.291,0.792-0.291,1.56
				v9.221c0,0.774,0.099,1.297,0.298,1.565c0.198,0.271,0.551,0.404,1.057,0.404c0.498,0,0.842-0.135,1.037-0.404
				c0.193-0.269,0.291-0.791,0.291-1.565V67.309L103.409,67.309z"/>
			<path fill="#331842" d="M108.245,64.471h2.994l1.938,13.715h0.136l1.896-13.715h2.912v14.896h-1.504V65.592h-0.271l-1.951,13.775
				h-2.412l-2.019-13.775h-0.23v13.775h-1.49V64.471L108.245,64.471z"/>
			<path fill="#331842" d="M121.224,64.471h2.628c1.354,0,2.271,0.142,2.75,0.425c0.479,0.282,0.718,0.791,0.718,1.524v3.373
				c0,0.62-0.157,1.058-0.474,1.313c-0.316,0.256-0.876,0.41-1.68,0.464c0.856,0.041,1.453,0.189,1.787,0.445
				s0.502,0.699,0.502,1.332v4.07c0,0.733-0.24,1.242-0.719,1.524s-1.396,0.425-2.75,0.425h-2.764L121.224,64.471L121.224,64.471z
				 M122.944,65.573v5.442h0.61c0.786,0,1.31-0.103,1.571-0.309c0.262-0.205,0.393-0.661,0.393-1.368v-2.07
				c0-0.714-0.131-1.175-0.393-1.384c-0.263-0.208-0.787-0.312-1.571-0.312H122.944z M122.944,72.126v6.141h0.637
				c0.832,0,1.379-0.103,1.646-0.308c0.268-0.206,0.398-0.658,0.398-1.359v-2.797c0-0.7-0.133-1.154-0.398-1.363
				s-0.814-0.313-1.646-0.313L122.944,72.126L122.944,72.126z"/>
			<path fill="#331842" d="M130.463,64.471h1.828v14.896h-1.828V64.471z"/>
			<path fill="#331842" d="M137.034,64.471h2.521l2.885,14.896h-1.855l-0.691-4.142h-3.279l-0.744,4.142h-1.815L137.034,64.471z
				 M138.226,65.573l-1.449,8.563h2.886l-1.355-8.563H138.226z"/>
		</g>
	</g>
</g>
</svg>
