<?xml version="1.0" encoding="utf-8"?>
<!-- Generator: Adobe Illustrator 24.2.3, SVG Export Plug-In . SVG Version: 6.00 Build 0)  -->
<svg version="1.1" id="Capa_1" xmlns="http://www.w3.org/2000/svg" xmlns:xlink="http://www.w3.org/1999/xlink" x="0px" y="0px"
	 viewBox="0 0 706.3 274.4" style="enable-background:new 0 0 706.3 274.4;" xml:space="preserve">
<style type="text/css">
	.st0{fill:#F2961C;}
</style>
<path class="st0" d="M343,7.1h2.7c2.2,0,3.7,0.3,4.4,0.8s1,1.7,1,3.6v10.8c0,1.9-0.4,3.1-1,3.6c-0.7,0.5-2.2,0.8-4.4,0.8H343V7.1z
	 M345.2,8.6v16.7h0.7c1.1,0,1.8-0.1,2.2-0.4c0.4-0.3,0.5-0.9,0.5-1.8V10.8c0-0.9-0.2-1.5-0.5-1.8c-0.4-0.3-1.1-0.4-2.2-0.4
	L345.2,8.6L345.2,8.6z"/>
<path class="st0" d="M355,7.1h6.3v1.6h-4v7h3.8v1.5h-3.8v7.9h4.1v1.6H355V7.1z"/>
<path class="st0" d="M56.3,7.1h3.9l2.5,18H63l2.5-18h3.8v19.6h-2V8.6H67l-2.6,18.1h-3.2L58.6,8.6h-0.3v18.1h-2V7.1z"/>
<path class="st0" d="M2.6,7.2h3.5c1.8,0,3,0.2,3.6,0.6c0.6,0.4,0.9,1,0.9,2v4.4c0,0.8-0.2,1.4-0.6,1.7s-1.2,0.5-2.2,0.6
	c1.1,0.1,1.9,0.2,2.3,0.6c0.4,0.3,0.7,0.9,0.7,1.8v7.9H8.4v-7.3c0-0.9-0.2-1.5-0.5-1.8c-0.4-0.3-1.1-0.4-2.2-0.4H4.9v9.5H2.6
	L2.6,7.2L2.6,7.2z M4.9,8.7v7.1h0.8c1,0,1.7-0.1,2.1-0.4s0.5-0.9,0.5-1.8v-2.7c0-0.9-0.2-1.5-0.5-1.8c-0.3-0.3-1-0.4-2.1-0.4
	C5.7,8.7,4.9,8.7,4.9,8.7z"/>
<path class="st0" d="M14.6,7.2h6.3v1.6h-4v7h3.8v1.5h-3.8v7.9H21v1.6h-6.4V7.2z"/>
<path class="st0" d="M72.5,7.1h6.3v1.6h-4v7h3.8v1.5h-3.8v7.9h4.1v1.6h-6.4V7.1z"/>
<path class="st0" d="M35,7.1h2.3v18h4.1v1.6H35V7.1z"/>
<path class="st0" d="M46.5,7.1h3.3l3.8,19.6h-2.4l-0.9-5.4h-4.3l-1,5.4h-2.4L46.5,7.1z M48,8.6l-1.9,11.2h3.8L48.1,8.6
	C48.1,8.6,48,8.6,48,8.6z"/>
<path class="st0" d="M123.1,10.2v1.9h-2.4v-1.8c0-0.8-0.1-1.3-0.3-1.6c-0.2-0.3-0.6-0.4-1.2-0.4c-0.5,0-0.9,0.2-1.1,0.5
	c-0.2,0.3-0.3,1-0.3,2.1v12.1c0,1.1,0.1,1.8,0.3,2.1c0.2,0.3,0.6,0.5,1.2,0.5c0.5,0,0.8-0.2,1-0.5c0.2-0.3,0.3-0.8,0.3-1.6v-2.1h2.4
	v2.2c0,1.3-0.3,2.2-0.8,2.7c-0.6,0.5-1.6,0.7-3,0.7c-1.4,0-2.4-0.3-3-0.9s-0.8-1.7-0.8-3.4V11.1c0-1.7,0.3-2.8,0.8-3.4
	c0.6-0.6,1.5-0.9,3-0.9c1.4,0,2.4,0.2,3,0.7C122.8,8,123.1,8.9,123.1,10.2z"/>
<path class="st0" d="M126.1,7.1h2.4v19.6h-2.4V7.1z"/>
<path class="st0" d="M139.6,11.1v11.6c0,1.7-0.3,2.8-0.9,3.4c-0.6,0.6-1.7,0.9-3.2,0.9c-1.5,0-2.6-0.3-3.2-0.9s-0.9-1.7-0.9-3.4
	V11.1c0-1.6,0.3-2.8,0.9-3.4c0.6-0.6,1.7-0.9,3.2-0.9s2.6,0.3,3.2,0.9C139.3,8.3,139.6,9.4,139.6,11.1z M137.3,10.8
	c0-1-0.1-1.7-0.4-2c-0.3-0.4-0.7-0.6-1.4-0.6c-0.7,0-1.1,0.2-1.4,0.5c-0.3,0.4-0.4,1-0.4,2v12.1c0,1,0.1,1.7,0.4,2.1
	s0.7,0.5,1.4,0.5c0.7,0,1.1-0.2,1.4-0.5s0.4-1,0.4-2.1V10.8z M136.1,2.4h2.5l-2.3,3h-1.7L136.1,2.4z"/>
<path class="st0" d="M142.6,7.1h3.1l3.8,18.4h0l-0.3-18.4h2v19.6h-3.1l-3.7-18.1h-0.1l0.3,18.1h-2L142.6,7.1L142.6,7.1z"/>
<path class="st0" d="M82,7.1h3.1l3.8,18.4h0L88.5,7.1h2v19.6h-3.1L83.7,8.5h-0.1L84,26.7h-2L82,7.1L82,7.1z"/>
<path class="st0" d="M106.4,7.1h3.3l3.8,19.6H111l-0.9-5.4h-4.3l-1,5.4h-2.4L106.4,7.1z M107.9,8.6L106,19.8h3.8L108,8.6
	C108,8.6,107.9,8.6,107.9,8.6z"/>
<path class="st0" d="M159.4,6.8h2.7c2.2,0,3.7,0.3,4.4,0.8s1,1.7,1,3.6V22c0,1.9-0.4,3.1-1,3.6c-0.7,0.5-2.2,0.8-4.4,0.8h-2.7V6.8z
	 M161.6,8.2v16.7h0.7c1.1,0,1.8-0.1,2.2-0.4c0.4-0.3,0.5-0.9,0.5-1.8V10.5c0-0.9-0.2-1.5-0.5-1.8c-0.4-0.3-1.1-0.4-2.2-0.4
	L161.6,8.2L161.6,8.2z"/>
<path class="st0" d="M171.4,6.8h6.3v1.6h-4v7h3.8v1.5h-3.8v7.9h4.1v1.6h-6.4V6.8z"/>
<path class="st0" d="M188,6.8h2.3v18h4.1v1.6H188V6.8z"/>
<path class="st0" d="M199.4,6.8h3.3l3.8,19.6h-2.4l-0.9-5.4h-4.3l-1,5.4h-2.4L199.4,6.8z M201,8.2l-1.9,11.2h3.8l-1.8-11.2
	C201.1,8.2,201,8.2,201,8.2z"/>
<path class="st0" d="M92.8,7.1h7.7v1.6h-2.7v18h-2.3v-18h-2.7L92.8,7.1L92.8,7.1z"/>
<path class="st0" d="M221,10v1.9h-2.4v-1.8c0-0.8-0.1-1.3-0.3-1.6c-0.2-0.3-0.6-0.4-1.2-0.4c-0.5,0-0.9,0.2-1.1,0.5
	c-0.2,0.3-0.3,1-0.3,2.1v12.1c0,1.1,0.1,1.8,0.3,2.1c0.2,0.3,0.6,0.5,1.2,0.5c0.5,0,0.8-0.2,1-0.5c0.2-0.3,0.3-0.8,0.3-1.6v-2.1h2.4
	v2.2c0,1.3-0.3,2.2-0.8,2.7c-0.6,0.5-1.6,0.7-3,0.7c-1.4,0-2.4-0.3-3-0.9s-0.8-1.7-0.8-3.4V10.9c0-1.7,0.3-2.8,0.8-3.4
	c0.6-0.6,1.5-0.9,3-0.9c1.4,0,2.4,0.2,3,0.7C220.8,7.8,221,8.7,221,10z"/>
<path class="st0" d="M224.4,6.9h6.3v1.6h-4v7h3.8v1.5h-3.8v7.9h4.1v1.6h-6.4V6.9z"/>
<path class="st0" d="M234,6.9h3.5c1.8,0,3,0.2,3.6,0.6c0.6,0.4,0.9,1,0.9,2v4.4c0,0.8-0.2,1.4-0.6,1.7c-0.4,0.3-1.2,0.5-2.2,0.6
	c1.1,0.1,1.9,0.2,2.3,0.6c0.4,0.3,0.7,0.9,0.7,1.8v7.9h-2.4v-7.3c0-0.9-0.2-1.5-0.5-1.8c-0.4-0.3-1.1-0.4-2.2-0.4h-0.8v9.5H234
	L234,6.9L234,6.9z M236.3,8.4v7.1h0.8c1,0,1.7-0.1,2.1-0.4c0.3-0.3,0.5-0.9,0.5-1.8v-2.7c0-0.9-0.2-1.5-0.5-1.8
	c-0.3-0.3-1-0.4-2.1-0.4C237.1,8.4,236.3,8.4,236.3,8.4z"/>
<path class="st0" d="M254.4,6.9h2.4v19.6h-2.4V6.9z"/>
<path class="st0" d="M243.4,6.9h7.7v1.6h-2.7v18h-2.3v-18h-2.7L243.4,6.9L243.4,6.9z"/>
<path class="st0" d="M260,6.9h6.1v1.6h-3.8v7.1h3.7v1.5h-3.7v9.4H260L260,6.9L260,6.9z"/>
<path class="st0" d="M268.9,6.9h2.4v19.6h-2.4V6.9z"/>
<path class="st0" d="M281.9,10.3v1.9h-2.4v-1.8c0-0.8-0.1-1.3-0.3-1.6c-0.2-0.3-0.6-0.4-1.2-0.4c-0.5,0-0.9,0.2-1.1,0.5
	c-0.2,0.3-0.3,1-0.3,2.1V23c0,1.1,0.1,1.8,0.3,2.1c0.2,0.3,0.6,0.5,1.2,0.5c0.5,0,0.8-0.2,1.1-0.5c0.2-0.3,0.3-0.8,0.3-1.6v-2.1h2.4
	v2.2c0,1.3-0.3,2.2-0.8,2.7c-0.6,0.5-1.6,0.7-3,0.7c-1.4,0-2.4-0.3-3-0.9c-0.6-0.6-0.8-1.7-0.8-3.4V11.2c0-1.7,0.3-2.8,0.8-3.4
	c0.6-0.6,1.5-0.9,3-0.9c1.4,0,2.4,0.2,3,0.7C281.6,8.1,281.9,9,281.9,10.3z"/>
<path class="st0" d="M289.1,7.2h3.3l3.8,19.6h-2.4l-0.9-5.4h-4.3l-1,5.4h-2.4L289.1,7.2z M290.7,8.6l-1.9,11.2h3.8l-1.8-11.2
	C290.8,8.6,290.7,8.6,290.7,8.6z"/>
<path class="st0" d="M306.1,10.2v1.9h-2.4v-1.8c0-0.8-0.1-1.3-0.3-1.6c-0.2-0.3-0.6-0.4-1.2-0.4c-0.5,0-0.9,0.2-1.1,0.5
	c-0.2,0.3-0.3,1-0.3,2.1v12.1c0,1.1,0.1,1.8,0.3,2.1c0.2,0.3,0.6,0.5,1.2,0.5c0.5,0,0.8-0.2,1-0.5c0.2-0.3,0.3-0.8,0.3-1.6v-2.1h2.4
	v2.2c0,1.3-0.3,2.2-0.8,2.7c-0.6,0.5-1.6,0.7-3,0.7c-1.4,0-2.4-0.3-3-0.9s-0.8-1.7-0.8-3.4V11.1c0-1.7,0.3-2.8,0.8-3.4
	c0.6-0.6,1.5-0.9,3-0.9c1.4,0,2.4,0.2,3,0.7C305.8,8,306.1,8.9,306.1,10.2z"/>
<path class="st0" d="M309.1,7.1h2.4v19.6h-2.4V7.1z"/>
<path class="st0" d="M323.6,11.2v11.6c0,1.7-0.3,2.8-0.9,3.4c-0.6,0.6-1.7,0.9-3.2,0.9c-1.5,0-2.6-0.3-3.2-0.9s-0.9-1.7-0.9-3.4
	V11.2c0-1.6,0.3-2.8,0.9-3.4c0.6-0.6,1.7-0.9,3.2-0.9s2.6,0.3,3.2,0.9C323.3,8.4,323.6,9.5,323.6,11.2z M321.2,10.9
	c0-1-0.1-1.7-0.4-2c-0.3-0.4-0.7-0.6-1.4-0.6c-0.7,0-1.1,0.2-1.4,0.5c-0.3,0.4-0.4,1-0.4,2V23c0,1,0.1,1.7,0.4,2.1s0.7,0.5,1.4,0.5
	c0.7,0,1.1-0.2,1.4-0.5s0.4-1,0.4-2.1V10.9z M320.1,2.4h2.5l-2.3,3h-1.7L320.1,2.4z"/>
<path class="st0" d="M327.6,7.1h3.1l3.8,18.4h0l-0.3-18.4h2v19.6h-3.1l-3.7-18.1h-0.1l0.3,18.1h-2L327.6,7.1L327.6,7.1z"/>
<path class="st0" d="M31.9,11.4v1h-2.4v-1.3c0-1-0.1-1.7-0.4-2c-0.3-0.4-0.8-0.5-1.4-0.5c-0.7,0-1.1,0.2-1.4,0.6s-0.4,1.1-0.4,2
	v12.1c0,1,0.1,1.7,0.4,2.1c0.3,0.4,0.8,0.5,1.6,0.5c0.2,0,0.5,0,0.8,0c0.3,0,0.6-0.1,0.9-0.1l0-6.9h-2v-1.4h4.4v9.3
	c-0.7,0.2-1.4,0.4-2.1,0.5c-0.7,0.1-1.4,0.2-2.1,0.2c-1.6,0-2.7-0.3-3.3-0.9c-0.6-0.6-0.9-1.7-0.9-3.4V11.4c0-1.6,0.3-2.8,0.9-3.4
	s1.7-0.9,3.3-0.9c1.6,0,2.7,0.3,3.3,0.9C31.6,8.6,31.9,9.7,31.9,11.4z"/>
<path class="st0" d="M368.9,7.1h2.7c2.2,0,3.7,0.3,4.4,0.8s1,1.7,1,3.6v10.8c0,1.9-0.4,3.1-1.1,3.6c-0.7,0.5-2.2,0.8-4.4,0.8h-2.7
	C368.9,26.7,368.9,7.1,368.9,7.1z M371.1,8.6v16.7h0.7c1.1,0,1.8-0.1,2.2-0.4c0.3-0.3,0.5-0.9,0.5-1.8V10.8c0-0.9-0.2-1.5-0.5-1.8
	c-0.4-0.3-1.1-0.4-2.2-0.4L371.1,8.6L371.1,8.6z"/>
<path class="st0" d="M445.4,10.2v1.9H443v-1.8c0-0.8-0.1-1.3-0.3-1.6c-0.2-0.3-0.6-0.4-1.2-0.4c-0.5,0-0.9,0.2-1.1,0.5
	c-0.2,0.3-0.3,1-0.3,2.1v12.1c0,1.1,0.1,1.8,0.3,2.1c0.2,0.3,0.6,0.5,1.2,0.5c0.5,0,0.8-0.2,1.1-0.5c0.2-0.3,0.3-0.8,0.3-1.6v-2.1
	h2.4v2.2c0,1.3-0.3,2.2-0.8,2.7c-0.6,0.5-1.6,0.7-3,0.7c-1.4,0-2.4-0.3-3-0.9c-0.6-0.6-0.8-1.7-0.8-3.4V11.1c0-1.7,0.3-2.8,0.8-3.4
	c0.6-0.6,1.5-0.9,3-0.9c1.4,0,2.4,0.2,3,0.7C445.1,8,445.4,8.9,445.4,10.2z"/>
<path class="st0" d="M447.3,7.1h2.4v19.6h-2.4V7.1z"/>
<path class="st0" d="M392.5,10.2v1.9h-2.4v-1.8c0-0.8-0.1-1.3-0.3-1.6c-0.2-0.3-0.6-0.4-1.1-0.4c-0.5,0-0.9,0.2-1.1,0.5
	c-0.2,0.3-0.3,0.9-0.3,1.7v1c0,0.4,0.1,0.8,0.2,1.2c0.1,0.4,0.4,0.8,0.6,1.2l3,3.9c0.5,0.7,0.9,1.3,1.1,1.9s0.3,1.2,0.3,1.8v1.3
	c0,1.7-0.3,2.8-0.9,3.4s-1.6,0.9-3.1,0.9c-1.4,0-2.4-0.2-3-0.7c-0.6-0.5-0.8-1.4-0.8-2.7v-2.2h2.4v2.1c0,0.8,0.1,1.3,0.3,1.6
	c0.2,0.3,0.6,0.4,1.2,0.4c0.6,0,1-0.2,1.2-0.5c0.2-0.3,0.3-1,0.3-2.1v-1.4c0-0.5-0.1-1-0.2-1.4s-0.3-0.8-0.5-1.1l-3.1-4.2
	c-0.4-0.6-0.8-1.1-1-1.6c-0.2-0.5-0.3-0.9-0.3-1.3v-1.1c0-1.5,0.3-2.6,0.8-3.2c0.6-0.6,1.5-0.9,2.9-0.9c1.4,0,2.4,0.2,3,0.7
	C392.3,8,392.5,8.9,392.5,10.2z"/>
<path class="st0" d="M408.7,7.1h3.3l3.8,19.6h-2.4l-0.9-5.4h-4.3l-1,5.4h-2.4L408.7,7.1z M410.3,8.6l-1.9,11.2h3.8l-1.8-11.2
	C410.4,8.6,410.3,8.6,410.3,8.6z"/>
<path class="st0" d="M402.8,10.2v1.9h-2.4v-1.8c0-0.8-0.1-1.3-0.3-1.6c-0.2-0.3-0.6-0.4-1.2-0.4c-0.5,0-0.9,0.2-1.1,0.5
	c-0.2,0.3-0.3,1-0.3,2.1v12.1c0,1.1,0.1,1.8,0.3,2.1c0.2,0.3,0.6,0.5,1.2,0.5c0.5,0,0.8-0.2,1-0.5c0.2-0.3,0.3-0.8,0.3-1.6v-2.1h2.4
	v2.2c0,1.3-0.3,2.2-0.8,2.7c-0.6,0.5-1.6,0.7-3,0.7c-1.4,0-2.4-0.3-3-0.9s-0.8-1.7-0.8-3.4V11.1c0-1.7,0.3-2.8,0.8-3.4
	c0.6-0.6,1.5-0.9,3-0.9c1.4,0,2.4,0.2,3,0.7C402.5,8,402.8,8.9,402.8,10.2z"/>
<path class="st0" d="M379.6,7.1h2.4v19.6h-2.4V7.1z"/>
<path class="st0" d="M452.7,7.1h2.7c2.2,0,3.7,0.3,4.4,0.8c0.7,0.5,1,1.7,1,3.6v10.8c0,1.9-0.4,3.1-1,3.6c-0.7,0.5-2.2,0.8-4.4,0.8
	h-2.7C452.7,26.7,452.7,7.1,452.7,7.1z M455,8.6v16.7h0.7c1.1,0,1.8-0.1,2.2-0.4s0.5-0.9,0.5-1.8V10.8c0-0.9-0.2-1.5-0.5-1.8
	c-0.4-0.3-1.1-0.4-2.2-0.4L455,8.6L455,8.6z"/>
<path class="st0" d="M429.8,7.1h3.3l3.8,19.6h-2.4l-0.9-5.4h-4.3l-1,5.4h-2.4L429.8,7.1z M431.4,8.6l-1.9,11.2h3.8l-1.8-11.2
	C431.5,8.6,431.4,8.6,431.4,8.6z"/>
<path class="st0" d="M466.8,7h3.3l3.8,19.6h-2.4l-0.9-5.4h-4.3l-1,5.4h-2.4L466.8,7z M468.4,8.5l-1.9,11.2h3.8l-1.8-11.2
	C468.5,8.5,468.4,8.5,468.4,8.5z"/>
<path class="st0" d="M475.9,7.1h2.7c2.2,0,3.7,0.3,4.4,0.8s1,1.7,1,3.6v10.8c0,1.9-0.4,3.1-1.1,3.6c-0.7,0.5-2.2,0.8-4.4,0.8h-2.7
	C475.9,26.7,475.9,7.1,475.9,7.1z M478.2,8.6v16.7h0.7c1.1,0,1.8-0.1,2.2-0.4c0.3-0.3,0.5-0.9,0.5-1.8V10.8c0-0.9-0.2-1.5-0.5-1.8
	c-0.4-0.3-1.1-0.4-2.2-0.4L478.2,8.6L478.2,8.6z"/>
<path class="st0" d="M418,7.1h2.9c1.8,0,3,0.2,3.6,0.6c0.6,0.4,1,1,1,2v5.6c0,1-0.3,1.6-1,2c-0.6,0.4-1.9,0.6-3.6,0.6h-0.7v8.8H418
	V7.1z M420.3,8.6v7.9h0.6c0.9,0,1.5-0.1,1.8-0.4c0.3-0.3,0.5-0.9,0.5-1.8v-3.4c0-0.9-0.2-1.6-0.5-1.8c-0.3-0.3-0.9-0.4-1.8-0.4
	L420.3,8.6L420.3,8.6z"/>
<path class="st0" d="M491.2,7.1h6.3v1.6h-4v7h3.8v1.5h-3.8v7.9h4.1v1.6h-6.4V7.1z"/>
<path class="st0" d="M499.5,7.4h3.1l3.8,18.4h0l-0.3-18.4h2v19.6H505l-3.7-18.1h-0.1l0.3,18.1h-2L499.5,7.4L499.5,7.4z"/>
<path class="st0" d="M521.1,10.1V12h-2.4v-1.8c0-0.8-0.1-1.3-0.3-1.6c-0.2-0.3-0.6-0.4-1.2-0.4c-0.5,0-0.9,0.2-1.1,0.5
	c-0.2,0.3-0.3,1-0.3,2.1v12.1c0,1.1,0.1,1.8,0.3,2.1c0.2,0.3,0.6,0.5,1.2,0.5c0.5,0,0.8-0.2,1-0.5c0.2-0.3,0.3-0.8,0.3-1.6v-2.1h2.4
	v2.2c0,1.3-0.3,2.2-0.8,2.7c-0.6,0.5-1.6,0.7-3,0.7c-1.4,0-2.4-0.3-3-0.9c-0.6-0.6-0.8-1.7-0.8-3.4V11c0-1.7,0.3-2.8,0.8-3.4
	c0.6-0.6,1.5-0.9,3-0.9c1.4,0,2.4,0.2,3,0.7C520.9,7.9,521.1,8.8,521.1,10.1z"/>
<path class="st0" d="M531.3,11.1v11.6c0,1.7-0.3,2.8-0.9,3.4c-0.6,0.6-1.7,0.9-3.2,0.9c-1.5,0-2.6-0.3-3.2-0.9
	c-0.6-0.6-0.9-1.7-0.9-3.4V11.1c0-1.6,0.3-2.8,0.9-3.4c0.6-0.6,1.7-0.9,3.2-0.9s2.6,0.3,3.2,0.9C531,8.3,531.3,9.4,531.3,11.1z
	 M528.9,10.8c0-1-0.1-1.7-0.4-2c-0.3-0.4-0.7-0.6-1.4-0.6c-0.7,0-1.1,0.2-1.4,0.5c-0.3,0.4-0.4,1-0.4,2v12.1c0,1,0.1,1.7,0.4,2.1
	c0.3,0.4,0.7,0.5,1.4,0.5c0.7,0,1.1-0.2,1.4-0.5s0.4-1,0.4-2.1C528.9,22.9,528.9,10.8,528.9,10.8z"/>
<path class="st0" d="M585.5,7.1h3.3l3.8,19.6h-2.4l-0.9-5.4H585l-1,5.4h-2.4L585.5,7.1z M587.1,8.6l-1.9,11.2h3.8l-1.8-11.2
	C587.2,8.6,587.1,8.6,587.1,8.6z"/>
<path class="st0" d="M549.8,11.4v11.6c0,1.7-0.3,2.8-0.9,3.4c-0.6,0.6-1.7,0.9-3.2,0.9c-1.5,0-2.6-0.3-3.2-0.9
	c-0.6-0.6-0.9-1.7-0.9-3.4V11.4c0-1.6,0.3-2.8,0.9-3.4c0.6-0.6,1.7-0.9,3.2-0.9s2.6,0.3,3.2,0.9C549.5,8.6,549.8,9.7,549.8,11.4z
	 M547.4,11.1c0-1-0.1-1.7-0.4-2c-0.3-0.4-0.7-0.6-1.4-0.6c-0.7,0-1.1,0.2-1.4,0.5c-0.3,0.4-0.4,1-0.4,2v12.1c0,1,0.1,1.7,0.4,2.1
	c0.3,0.4,0.7,0.5,1.4,0.5c0.7,0,1.1-0.2,1.4-0.5s0.4-1,0.4-2.1V11.1z"/>
<path class="st0" d="M566.6,7h3.5c1.8,0,3,0.2,3.6,0.6c0.6,0.4,0.9,1,0.9,2V14c0,0.8-0.2,1.4-0.6,1.7c-0.4,0.3-1.2,0.5-2.2,0.6
	c1.1,0.1,1.9,0.2,2.3,0.6c0.4,0.3,0.7,0.9,0.7,1.8V24c0,1-0.3,1.6-0.9,2c-0.6,0.4-1.8,0.6-3.6,0.6h-3.6L566.6,7L566.6,7z M568.9,8.5
	v7.1h0.8c1,0,1.7-0.1,2.1-0.4c0.3-0.3,0.5-0.9,0.5-1.8v-2.7c0-0.9-0.2-1.5-0.5-1.8c-0.3-0.3-1-0.4-2.1-0.4
	C569.7,8.5,568.9,8.5,568.9,8.5z M568.9,17.1v8.1h0.8c1.1,0,1.8-0.1,2.2-0.4c0.4-0.3,0.5-0.9,0.5-1.8v-3.7c0-0.9-0.2-1.5-0.5-1.8
	c-0.3-0.3-1.1-0.4-2.2-0.4H568.9z"/>
<path class="st0" d="M533.7,7.1h2.3v18h4.1v1.6h-6.3V7.1z"/>
<path class="st0" d="M577.3,7.3h2.4v19.6h-2.4V7.3z"/>
<path class="st0" d="M551.6,7.1h3.9l2.5,18h0.2l2.5-18h3.8v19.6h-2V8.6h-0.4l-2.6,18.1h-3.2l-2.7-18.1h-0.3v18.1h-2V7.1z"/>
</svg>
