<?xml version="1.0" encoding="utf-8"?>
<!-- Generator: Adobe Illustrator 16.0.0, SVG Export Plug-In . SVG Version: 6.00 Build 0)  -->
<!DOCTYPE svg PUBLIC "-//W3C//DTD SVG 1.1//EN" "http://www.w3.org/Graphics/SVG/1.1/DTD/svg11.dtd">
<svg version="1.1" id="Capa_1" xmlns="http://www.w3.org/2000/svg" xmlns:xlink="http://www.w3.org/1999/xlink" x="0px" y="0px"
	 width="197.462px" height="124.268px" viewBox="0 0 197.462 124.268" enable-background="new 0 0 197.462 124.268"
	 xml:space="preserve">
<g>
	<polygon opacity="0.7" fill="#FFFFFF" points="0,2.73 197.462,0 197.462,39.795 25.25,39.775 	"/>
	<g>
		<g>
			<path fill="#331842" d="M52.516,12.997h2.994l1.938,13.715h0.136l1.896-13.715h2.913v14.896h-1.503V14.118h-0.271l-1.951,13.775
				h-2.412l-2.019-13.775h-0.23v13.775h-1.49V12.997z"/>
			<path fill="#331842" d="M67.188,12.997h2.52l2.886,14.896h-1.856l-0.69-4.141h-3.279l-0.745,4.141h-1.815L67.188,12.997z
				 M68.38,14.098l-1.449,8.564h2.886l-1.355-8.564H68.38z"/>
			<path fill="#331842" d="M74.423,12.997h2.628c1.354,0,2.271,0.142,2.75,0.425c0.479,0.282,0.718,0.791,0.718,1.524v3.373
				c0,0.62-0.158,1.058-0.474,1.313c-0.316,0.256-0.876,0.41-1.68,0.464c0.857,0.04,1.454,0.188,1.788,0.444s0.501,0.7,0.501,1.333
				v6.02h-1.829v-5.564c0-0.7-0.133-1.155-0.399-1.364c-0.267-0.208-0.815-0.312-1.646-0.312h-0.637v7.241h-1.72V12.997z
				 M76.144,14.098v5.443h0.61c0.786,0,1.31-0.102,1.571-0.308c0.262-0.205,0.393-0.661,0.393-1.368v-2.07
				c0-0.714-0.131-1.175-0.393-1.384c-0.262-0.208-0.786-0.313-1.571-0.313H76.144z"/>
			<path fill="#331842" d="M89.38,15.36v1.424h-1.815V15.4c0-0.578-0.083-0.979-0.25-1.201c-0.167-0.223-0.463-0.334-0.888-0.334
				c-0.388,0-0.659,0.127-0.812,0.379c-0.154,0.253-0.23,0.783-0.23,1.591v9.221c0,0.828,0.081,1.366,0.244,1.616
				c0.162,0.248,0.46,0.373,0.894,0.373c0.371,0,0.637-0.117,0.8-0.354c0.162-0.235,0.244-0.637,0.244-1.201v-1.606h1.815v1.656
				c0,1.017-0.212,1.705-0.637,2.065s-1.183,0.54-2.276,0.54c-1.075,0-1.825-0.231-2.249-0.696c-0.425-0.465-0.637-1.33-0.637-2.596
				v-8.816c0-1.259,0.212-2.117,0.637-2.575c0.424-0.458,1.174-0.687,2.249-0.687c1.102,0,1.862,0.178,2.283,0.535
				C89.17,13.667,89.38,14.351,89.38,15.36z"/>
			<path fill="#331842" d="M97.833,16.037v8.816c0,1.279-0.23,2.147-0.69,2.605c-0.461,0.458-1.283,0.687-2.466,0.687
				c-1.165,0-1.979-0.231-2.438-0.696c-0.461-0.465-0.691-1.33-0.691-2.596v-8.816c0-1.252,0.232-2.109,0.698-2.57
				s1.285-0.691,2.459-0.691s1.989,0.229,2.445,0.687S97.833,14.778,97.833,16.037z M96.032,15.835c0-0.754-0.1-1.271-0.298-1.55
				c-0.199-0.279-0.551-0.42-1.057-0.42c-0.497,0-0.843,0.137-1.037,0.41c-0.194,0.271-0.292,0.792-0.292,1.56v9.221
				c0,0.774,0.1,1.296,0.298,1.565s0.551,0.404,1.057,0.404c0.497,0,0.842-0.135,1.037-0.404c0.194-0.27,0.291-0.791,0.291-1.565
				V15.835z"/>
			<path fill="#331842" d="M107.656,12.997h1.748v11.856c0,1.246-0.21,2.103-0.63,2.57s-1.154,0.701-2.202,0.701
				s-1.777-0.185-2.188-0.555c-0.411-0.37-0.617-1.047-0.617-2.03v-1.656h1.775v1.606c0,0.619,0.074,1.029,0.224,1.231
				c0.148,0.202,0.417,0.304,0.806,0.304c0.406,0,0.688-0.132,0.847-0.395s0.237-0.787,0.237-1.575V12.997z"/>
			<path fill="#331842" d="M112.357,12.997h1.802v12.059c0,0.774,0.1,1.296,0.298,1.565c0.199,0.27,0.551,0.404,1.057,0.404
				c0.497,0,0.842-0.135,1.037-0.404c0.194-0.27,0.292-0.791,0.292-1.565V12.997h1.802v11.856c0,1.279-0.23,2.147-0.691,2.605
				s-1.283,0.687-2.466,0.687c-1.165,0-1.978-0.231-2.438-0.696s-0.691-1.33-0.691-2.596V12.997z"/>
			<path fill="#331842" d="M121.678,12.997h2.628c1.354,0,2.271,0.142,2.75,0.425c0.479,0.282,0.718,0.791,0.718,1.524v3.373
				c0,0.62-0.158,1.058-0.474,1.313c-0.316,0.256-0.876,0.41-1.68,0.464c0.858,0.04,1.454,0.188,1.789,0.444
				c0.334,0.256,0.501,0.7,0.501,1.333v6.02h-1.829v-5.564c0-0.7-0.133-1.155-0.399-1.364c-0.267-0.208-0.815-0.312-1.646-0.312
				h-0.637v7.241h-1.72V12.997z M123.398,14.098v5.443h0.61c0.786,0,1.31-0.102,1.572-0.308c0.262-0.205,0.393-0.661,0.393-1.368
				v-2.07c0-0.714-0.131-1.175-0.393-1.384c-0.262-0.208-0.786-0.313-1.572-0.313H123.398z"/>
			<path fill="#331842" d="M130.917,12.997h1.829v14.896h-1.829V12.997z M132.218,9.392h1.91l-1.775,2.253h-1.328L132.218,9.392z"/>
			<path fill="#331842" d="M135.794,12.997h2.019c1.707,0,2.822,0.2,3.347,0.601c0.523,0.401,0.786,1.318,0.786,2.752v8.191
				c0,1.427-0.267,2.342-0.799,2.746c-0.533,0.404-1.644,0.606-3.333,0.606h-2.019V12.997z M137.515,14.098v12.695h0.556
				c0.831,0,1.379-0.104,1.646-0.309c0.267-0.205,0.4-0.658,0.4-1.358v-9.331c0-0.707-0.135-1.167-0.406-1.379
				s-0.818-0.318-1.639-0.318H137.515z"/>
			<path fill="#331842" d="M144.98,12.997h1.829v14.896h-1.829V12.997z"/>
			<path fill="#331842" d="M155.574,15.36v1.424h-1.815V15.4c0-0.578-0.083-0.979-0.25-1.201c-0.167-0.223-0.463-0.334-0.888-0.334
				c-0.388,0-0.659,0.127-0.812,0.379c-0.154,0.253-0.23,0.783-0.23,1.591v9.221c0,0.828,0.081,1.366,0.244,1.616
				c0.162,0.248,0.46,0.373,0.894,0.373c0.371,0,0.637-0.117,0.8-0.354c0.162-0.235,0.244-0.637,0.244-1.201v-1.606h1.815v1.656
				c0,1.017-0.212,1.705-0.637,2.065s-1.183,0.54-2.276,0.54c-1.075,0-1.825-0.231-2.249-0.696c-0.425-0.465-0.637-1.33-0.637-2.596
				v-8.816c0-1.259,0.212-2.117,0.637-2.575c0.424-0.458,1.174-0.687,2.249-0.687c1.102,0,1.862,0.178,2.283,0.535
				C155.364,13.667,155.574,14.351,155.574,15.36z"/>
			<path fill="#331842" d="M164.028,16.037v8.816c0,1.279-0.23,2.147-0.69,2.605c-0.461,0.458-1.283,0.687-2.466,0.687
				c-1.165,0-1.979-0.231-2.438-0.696c-0.461-0.465-0.691-1.33-0.691-2.596v-8.816c0-1.252,0.232-2.109,0.698-2.57
				s1.285-0.691,2.459-0.691s1.989,0.229,2.445,0.687S164.028,14.778,164.028,16.037z M162.226,15.835c0-0.754-0.1-1.271-0.298-1.55
				c-0.199-0.279-0.551-0.42-1.057-0.42c-0.497,0-0.843,0.137-1.037,0.41c-0.194,0.271-0.292,0.792-0.292,1.56v9.221
				c0,0.774,0.1,1.296,0.298,1.565s0.551,0.404,1.057,0.404c0.497,0,0.842-0.135,1.037-0.404c0.194-0.27,0.291-0.791,0.291-1.565
				V15.835z"/>
		</g>
	</g>
	<polygon opacity="0.7" fill="#FFFFFF" points="0,44.969 197.462,42.236 197.462,82.031 25.25,82.012 	"/>
	<g>
		<g>
			<path fill="#331842" d="M48.838,47.235h2.357l2.859,14.008h0.027l-0.257-14.008h1.558v14.896h-2.384l-2.832-13.815h-0.054
				l0.244,13.815h-1.517V47.235z"/>
			<path fill="#331842" d="M64.675,50.275v8.816c0,1.279-0.23,2.147-0.69,2.605c-0.461,0.458-1.283,0.687-2.466,0.687
				c-1.165,0-1.979-0.231-2.438-0.696c-0.461-0.465-0.691-1.33-0.691-2.596v-8.816c0-1.252,0.232-2.109,0.698-2.57
				s1.285-0.691,2.459-0.691s1.989,0.229,2.445,0.687S64.675,49.017,64.675,50.275z M62.874,50.073c0-0.754-0.1-1.271-0.298-1.55
				c-0.199-0.279-0.551-0.42-1.057-0.42c-0.497,0-0.843,0.137-1.037,0.41c-0.194,0.271-0.292,0.792-0.292,1.56v9.221
				c0,0.774,0.1,1.296,0.298,1.565s0.551,0.404,1.057,0.404c0.497,0,0.842-0.135,1.037-0.404c0.194-0.27,0.291-0.791,0.291-1.565
				V50.073z"/>
			<path fill="#331842" d="M67.71,47.235h2.628c1.354,0,2.271,0.142,2.75,0.425c0.479,0.282,0.718,0.791,0.718,1.524v3.373
				c0,0.62-0.158,1.058-0.474,1.313c-0.316,0.256-0.876,0.41-1.68,0.464c0.857,0.04,1.454,0.188,1.788,0.444s0.501,0.7,0.501,1.333
				v6.02h-1.829v-5.564c0-0.7-0.133-1.155-0.399-1.364c-0.267-0.208-0.815-0.312-1.646-0.312h-0.637v7.241h-1.72V47.235z
				 M69.431,48.336v5.443h0.61c0.786,0,1.31-0.102,1.571-0.308c0.262-0.205,0.393-0.661,0.393-1.368v-2.07
				c0-0.714-0.131-1.175-0.393-1.384c-0.262-0.208-0.786-0.313-1.571-0.313H69.431z"/>
			<path fill="#331842" d="M76.95,47.235h2.994l1.938,13.715h0.135l1.896-13.715h2.913v14.896h-1.503V48.356h-0.271L83.1,62.132
				h-2.411L78.67,48.356h-0.23v13.775h-1.49V47.235z"/>
			<path fill="#331842" d="M91.622,47.235h2.52l2.886,14.896h-1.856l-0.69-4.141h-3.279l-0.745,4.141h-1.815L91.622,47.235z
				 M92.814,48.336L91.365,56.9h2.886l-1.355-8.564H92.814z"/>
			<path fill="#331842" d="M96.797,47.235h5.866v1.182h-2.06v13.715h-1.747V48.417h-2.06V47.235z"/>
			<path fill="#331842" d="M104.465,47.235h1.829v14.896h-1.829V47.235z"/>
			<path fill="#331842" d="M108.205,47.235h1.748l1.856,13.411h0.189l1.748-13.411h1.639l-2.167,14.896h-2.683L108.205,47.235z"/>
			<path fill="#331842" d="M117.363,47.235h1.829v14.896h-1.829V47.235z"/>
			<path fill="#331842" d="M122.24,47.235h2.019c1.707,0,2.822,0.2,3.347,0.601c0.523,0.401,0.786,1.318,0.786,2.752v8.191
				c0,1.427-0.267,2.342-0.799,2.746c-0.533,0.404-1.644,0.606-3.333,0.606h-2.019V47.235z M123.96,48.336v12.695h0.556
				c0.831,0,1.379-0.104,1.646-0.309c0.267-0.205,0.4-0.658,0.4-1.358v-9.331c0-0.707-0.135-1.167-0.406-1.379
				s-0.818-0.318-1.639-0.318H123.96z"/>
			<path fill="#331842" d="M133.119,47.235h2.521l2.885,14.896h-1.856l-0.691-4.141h-3.279l-0.745,4.141h-1.815L133.119,47.235z
				 M134.311,48.336l-1.449,8.564h2.885l-1.355-8.564H134.311z"/>
			<path fill="#331842" d="M140.354,47.235h2.019c1.707,0,2.822,0.2,3.346,0.601c0.523,0.401,0.786,1.318,0.786,2.752v8.191
				c0,1.427-0.267,2.342-0.8,2.746c-0.533,0.404-1.644,0.606-3.333,0.606h-2.019V47.235z M142.074,48.336v12.695h0.556
				c0.831,0,1.38-0.104,1.646-0.309s0.4-0.658,0.4-1.358v-9.331c0-0.707-0.136-1.167-0.406-1.379
				c-0.271-0.212-0.818-0.318-1.64-0.318H142.074z"/>
			<path fill="#331842" d="M153.779,47.235h4.769v1.182H155.5v5.362h2.913v1.172H155.5v5.999h3.13v1.182h-4.85V47.235z"/>
			<path fill="#331842" d="M161.109,47.235h2.357l2.859,14.008h0.027l-0.257-14.008h1.558v14.896h-2.384l-2.832-13.815h-0.054
				l0.244,13.815h-1.517V47.235z"/>
			<path fill="#331842" d="M81.027,66.834v1.424h-1.815v-1.383c0-0.579-0.083-0.98-0.25-1.202s-0.463-0.333-0.888-0.333
				c-0.388,0-0.659,0.126-0.812,0.379c-0.154,0.252-0.23,0.782-0.23,1.59v9.221c0,0.828,0.081,1.367,0.244,1.616
				c0.162,0.249,0.46,0.373,0.894,0.373c0.371,0,0.637-0.117,0.8-0.353c0.162-0.236,0.244-0.637,0.244-1.202v-1.606h1.815v1.656
				c0,1.018-0.212,1.705-0.637,2.065s-1.183,0.54-2.276,0.54c-1.075,0-1.825-0.231-2.249-0.696
				c-0.425-0.465-0.637-1.329-0.637-2.596v-8.816c0-1.259,0.212-2.117,0.637-2.575c0.424-0.457,1.174-0.687,2.249-0.687
				c1.102,0,1.862,0.179,2.283,0.535C80.817,65.141,81.027,65.824,81.027,66.834z"/>
			<path fill="#331842" d="M89.481,67.511v8.816c0,1.279-0.23,2.147-0.69,2.605c-0.461,0.458-1.283,0.687-2.466,0.687
				c-1.165,0-1.979-0.231-2.438-0.696c-0.461-0.465-0.691-1.329-0.691-2.596v-8.816c0-1.252,0.232-2.108,0.698-2.57
				c0.465-0.461,1.285-0.691,2.459-0.691s1.989,0.229,2.445,0.687C89.253,65.394,89.481,66.252,89.481,67.511z M87.679,67.309
				c0-0.754-0.1-1.271-0.298-1.55c-0.199-0.279-0.551-0.419-1.057-0.419c-0.497,0-0.843,0.137-1.037,0.409
				c-0.194,0.272-0.292,0.792-0.292,1.56v9.221c0,0.774,0.1,1.296,0.298,1.565s0.551,0.404,1.057,0.404
				c0.497,0,0.842-0.135,1.037-0.404c0.194-0.27,0.291-0.791,0.291-1.565V67.309z"/>
			<path fill="#331842" d="M92.516,64.471h1.721v13.715h3.103v1.182h-4.823V64.471z"/>
			<path fill="#331842" d="M105.21,67.511v8.816c0,1.279-0.23,2.147-0.691,2.605c-0.46,0.458-1.282,0.687-2.466,0.687
				c-1.165,0-1.978-0.231-2.438-0.696c-0.46-0.465-0.69-1.329-0.69-2.596v-8.816c0-1.252,0.232-2.108,0.697-2.57
				c0.465-0.461,1.285-0.691,2.459-0.691s1.989,0.229,2.445,0.687C104.982,65.394,105.21,66.252,105.21,67.511z M103.408,67.309
				c0-0.754-0.099-1.271-0.298-1.55s-0.551-0.419-1.057-0.419c-0.497,0-0.842,0.137-1.036,0.409s-0.291,0.792-0.291,1.56v9.221
				c0,0.774,0.099,1.296,0.298,1.565c0.198,0.27,0.551,0.404,1.057,0.404c0.497,0,0.842-0.135,1.036-0.404s0.292-0.791,0.292-1.565
				V67.309z"/>
			<path fill="#331842" d="M108.245,64.471h2.994l1.938,13.715h0.136l1.896-13.715h2.913v14.896h-1.504V65.592h-0.271l-1.951,13.775
				h-2.412l-2.019-13.775h-0.23v13.775h-1.49V64.471z"/>
			<path fill="#331842" d="M121.224,64.471h2.628c1.354,0,2.271,0.142,2.75,0.425c0.479,0.282,0.718,0.791,0.718,1.524v3.373
				c0,0.62-0.158,1.058-0.474,1.313c-0.316,0.256-0.876,0.41-1.68,0.464c0.857,0.041,1.454,0.189,1.788,0.445
				s0.501,0.699,0.501,1.332v4.07c0,0.734-0.239,1.242-0.718,1.525c-0.479,0.282-1.396,0.424-2.75,0.424h-2.764V64.471z
				 M122.944,65.572v5.443h0.61c0.786,0,1.31-0.103,1.571-0.309c0.262-0.205,0.393-0.661,0.393-1.368v-2.07
				c0-0.714-0.131-1.175-0.393-1.384c-0.262-0.208-0.786-0.312-1.571-0.312H122.944z M122.944,72.126v6.141h0.637
				c0.831,0,1.379-0.103,1.646-0.308c0.267-0.206,0.399-0.658,0.399-1.359v-2.797c0-0.7-0.133-1.154-0.399-1.363
				s-0.815-0.313-1.646-0.313H122.944z"/>
			<path fill="#331842" d="M130.463,64.471h1.829v14.896h-1.829V64.471z"/>
			<path fill="#331842" d="M137.034,64.471h2.521l2.885,14.896h-1.856l-0.691-4.141h-3.279l-0.745,4.141h-1.815L137.034,64.471z
				 M138.226,65.572l-1.449,8.563h2.885l-1.355-8.563H138.226z"/>
		</g>
	</g>
	<polygon opacity="0.7" fill="#FFFFFF" points="0,87.205 197.462,84.473 197.462,124.268 25.25,124.248 	"/>
	<g>
		<g>
			<path fill="#331842" d="M56.91,92.249v1.377h-1.755v-1.338c0-0.56-0.081-0.947-0.243-1.162s-0.448-0.322-0.858-0.322
				c-0.376,0-0.638,0.122-0.786,0.366s-0.223,0.757-0.223,1.538v8.916c0,0.801,0.079,1.321,0.236,1.562s0.445,0.361,0.865,0.361
				c0.358,0,0.615-0.114,0.772-0.342s0.236-0.615,0.236-1.162v-1.553h1.755v1.602c0,0.983-0.205,1.648-0.615,1.997
				c-0.411,0.348-1.145,0.522-2.201,0.522c-1.039,0-1.764-0.225-2.175-0.674c-0.41-0.449-0.615-1.286-0.615-2.51v-8.525
				c0-1.218,0.205-2.048,0.615-2.49c0.411-0.442,1.136-0.664,2.175-0.664c1.065,0,1.802,0.173,2.208,0.518
				C56.707,90.611,56.91,91.272,56.91,92.249z"/>
			<path fill="#331842" d="M65.084,92.903v8.525c0,1.237-0.223,2.077-0.668,2.52s-1.24,0.664-2.384,0.664
				c-1.126,0-1.913-0.225-2.358-0.674s-0.668-1.286-0.668-2.51v-8.525c0-1.211,0.225-2.04,0.674-2.485
				c0.45-0.446,1.243-0.669,2.378-0.669s1.923,0.222,2.365,0.664C64.864,90.855,65.084,91.686,65.084,92.903z M63.342,92.708
				c0-0.729-0.096-1.229-0.288-1.499c-0.192-0.271-0.533-0.405-1.022-0.405c-0.48,0-0.814,0.132-1.002,0.396
				c-0.188,0.264-0.281,0.767-0.281,1.509v8.916c0,0.749,0.096,1.253,0.288,1.514s0.533,0.391,1.022,0.391
				c0.48,0,0.814-0.13,1.002-0.391c0.188-0.261,0.281-0.765,0.281-1.514V92.708z"/>
			<path fill="#331842" d="M68.019,89.964h2.28l2.764,13.545h0.026L72.84,89.964h1.507v14.404h-2.306l-2.738-13.359H69.25
				l0.236,13.359h-1.468V89.964z"/>
			<path fill="#331842" d="M82.377,92.249v1.377h-1.742v-1.338c0-0.566-0.079-0.956-0.236-1.167
				c-0.157-0.212-0.437-0.317-0.838-0.317c-0.385,0-0.655,0.118-0.812,0.356c-0.157,0.237-0.236,0.659-0.236,1.265v0.703
				c0,0.293,0.054,0.594,0.164,0.903c0.109,0.309,0.269,0.601,0.479,0.874l2.175,2.861c0.367,0.481,0.633,0.936,0.799,1.362
				c0.166,0.426,0.249,0.867,0.249,1.323v0.977c0,1.25-0.212,2.093-0.636,2.529c-0.423,0.436-1.177,0.654-2.26,0.654
				c-1.057,0-1.792-0.176-2.207-0.527c-0.415-0.352-0.622-1.016-0.622-1.992v-1.602h1.755v1.553c0,0.586,0.079,0.983,0.236,1.191
				s0.445,0.312,0.864,0.312c0.428,0,0.723-0.119,0.885-0.356c0.161-0.238,0.242-0.76,0.242-1.567v-0.996
				c0-0.371-0.046-0.708-0.138-1.011s-0.225-0.578-0.399-0.825l-2.306-3.066c-0.323-0.41-0.57-0.801-0.74-1.172
				c-0.17-0.371-0.256-0.693-0.256-0.967v-0.84c0-1.12,0.208-1.899,0.623-2.339c0.415-0.439,1.128-0.659,2.142-0.659
				c1.065,0,1.801,0.173,2.207,0.518S82.377,91.272,82.377,92.249z"/>
			<path fill="#331842" d="M84.709,89.964h1.769v14.404h-1.769V89.964z"/>
			<path fill="#331842" d="M89.425,89.964h1.952c1.65,0,2.729,0.193,3.236,0.581c0.506,0.387,0.76,1.274,0.76,2.661v7.92
				c0,1.38-0.258,2.266-0.773,2.656s-1.59,0.586-3.223,0.586h-1.952V89.964z M91.089,91.028v12.275h0.537
				c0.804,0,1.334-0.1,1.592-0.298c0.257-0.199,0.386-0.637,0.386-1.313v-9.023c0-0.684-0.131-1.128-0.393-1.333
				c-0.262-0.205-0.79-0.308-1.585-0.308H91.089z"/>
			<path fill="#331842" d="M98.308,89.964h4.611v1.143h-2.948v5.186h2.817v1.133h-2.817v5.801h3.026v1.143h-4.689V89.964z"/>
			<path fill="#331842" d="M105.395,89.964h2.542c1.31,0,2.196,0.137,2.659,0.41s0.694,0.765,0.694,1.475v3.262
				c0,0.599-0.153,1.022-0.458,1.27c-0.306,0.247-0.847,0.397-1.625,0.449c0.83,0.039,1.406,0.183,1.729,0.43
				c0.323,0.247,0.484,0.677,0.484,1.289v5.82h-1.769v-5.381c0-0.677-0.129-1.116-0.387-1.318c-0.257-0.202-0.788-0.303-1.591-0.303
				h-0.616v7.002h-1.664V89.964z M107.059,91.028v5.264h0.589c0.76,0,1.266-0.1,1.52-0.298c0.253-0.199,0.38-0.64,0.38-1.323v-2.002
				c0-0.69-0.127-1.136-0.38-1.338c-0.254-0.202-0.76-0.303-1.52-0.303H107.059z"/>
			<path fill="#331842" d="M115.967,89.964h2.437l2.791,14.404H119.4l-0.668-4.004h-3.171l-0.72,4.004h-1.755L115.967,89.964z
				 M117.12,91.028l-1.402,8.281h2.791l-1.31-8.281H117.12z"/>
			<path fill="#331842" d="M128.492,92.249v1.377h-1.756v-1.338c0-0.56-0.081-0.947-0.242-1.162s-0.447-0.322-0.858-0.322
				c-0.375,0-0.638,0.122-0.786,0.366c-0.149,0.244-0.223,0.757-0.223,1.538v8.916c0,0.801,0.079,1.321,0.236,1.562
				s0.445,0.361,0.864,0.361c0.358,0,0.616-0.114,0.773-0.342s0.235-0.615,0.235-1.162v-1.553h1.756v1.602
				c0,0.983-0.206,1.648-0.616,1.997c-0.41,0.348-1.144,0.522-2.2,0.522c-1.04,0-1.765-0.225-2.175-0.674
				c-0.411-0.449-0.616-1.286-0.616-2.51v-8.525c0-1.218,0.205-2.048,0.616-2.49c0.41-0.442,1.135-0.664,2.175-0.664
				c1.065,0,1.801,0.173,2.207,0.518S128.492,91.272,128.492,92.249z"/>
			<path fill="#331842" d="M130.667,89.964h1.769v14.404h-1.769V89.964z"/>
			<path fill="#331842" d="M141.382,92.903v8.525c0,1.237-0.223,2.077-0.668,2.52s-1.24,0.664-2.384,0.664
				c-1.126,0-1.913-0.225-2.358-0.674s-0.668-1.286-0.668-2.51v-8.525c0-1.211,0.225-2.04,0.674-2.485
				c0.45-0.446,1.243-0.669,2.378-0.669s1.923,0.222,2.365,0.664C141.162,90.855,141.382,91.686,141.382,92.903z M139.64,92.708
				c0-0.729-0.096-1.229-0.288-1.499c-0.192-0.271-0.533-0.405-1.022-0.405c-0.48,0-0.814,0.132-1.002,0.396
				c-0.188,0.264-0.281,0.767-0.281,1.509v8.916c0,0.749,0.096,1.253,0.288,1.514s0.533,0.391,1.022,0.391
				c0.48,0,0.814-0.13,1.002-0.391c0.188-0.261,0.281-0.765,0.281-1.514V92.708z"/>
			<path fill="#331842" d="M144.317,89.964h2.28l2.764,13.545h0.026l-0.249-13.545h1.507v14.404h-2.306l-2.738-13.359h-0.053
				l0.236,13.359h-1.468V89.964z"/>
			<path fill="#331842" d="M153.631,89.964h4.611v1.143h-2.947v5.186h2.816v1.133h-2.816v5.801h3.026v1.143h-4.69V89.964z"/>
			<path fill="#331842" d="M165.763,92.249v1.377h-1.743v-1.338c0-0.566-0.078-0.956-0.235-1.167
				c-0.157-0.212-0.437-0.317-0.839-0.317c-0.384,0-0.655,0.118-0.812,0.356c-0.157,0.237-0.236,0.659-0.236,1.265v0.703
				c0,0.293,0.055,0.594,0.164,0.903c0.109,0.309,0.269,0.601,0.478,0.874l2.174,2.861c0.367,0.481,0.633,0.936,0.799,1.362
				c0.166,0.426,0.249,0.867,0.249,1.323v0.977c0,1.25-0.212,2.093-0.635,2.529c-0.424,0.436-1.177,0.654-2.26,0.654
				c-1.057,0-1.793-0.176-2.208-0.527c-0.415-0.352-0.622-1.016-0.622-1.992v-1.602h1.756v1.553c0,0.586,0.078,0.983,0.235,1.191
				s0.445,0.312,0.865,0.312c0.428,0,0.723-0.119,0.884-0.356c0.162-0.238,0.242-0.76,0.242-1.567v-0.996
				c0-0.371-0.046-0.708-0.137-1.011c-0.092-0.303-0.225-0.578-0.4-0.825l-2.306-3.066c-0.323-0.41-0.569-0.801-0.74-1.172
				c-0.17-0.371-0.255-0.693-0.255-0.967v-0.84c0-1.12,0.207-1.899,0.622-2.339c0.415-0.439,1.129-0.659,2.142-0.659
				c1.065,0,1.802,0.173,2.208,0.518C165.56,90.611,165.763,91.272,165.763,92.249z"/>
			<path fill="#331842" d="M27.748,107.199h2.542c1.31,0,2.196,0.137,2.659,0.41s0.694,0.766,0.694,1.475v3.262
				c0,0.6-0.152,1.022-0.458,1.27c-0.306,0.248-0.848,0.397-1.625,0.449c0.83,0.039,1.406,0.183,1.729,0.43
				c0.323,0.248,0.485,0.678,0.485,1.289v5.82h-1.769v-5.381c0-0.677-0.129-1.116-0.386-1.318c-0.257-0.201-0.788-0.303-1.591-0.303
				h-0.616v7.002h-1.664V107.199z M29.412,108.264v5.264h0.59c0.76,0,1.266-0.1,1.52-0.298c0.253-0.198,0.38-0.64,0.38-1.323v-2.002
				c0-0.689-0.127-1.136-0.38-1.338c-0.253-0.201-0.76-0.303-1.52-0.303H29.412z"/>
			<path fill="#331842" d="M36.683,107.199h4.611v1.143h-2.948v5.186h2.817v1.133h-2.817v5.801h3.026v1.143h-4.69V107.199z"/>
			<path fill="#331842" d="M48.814,109.484v1.377h-1.743v-1.338c0-0.566-0.079-0.955-0.236-1.167s-0.437-0.317-0.838-0.317
				c-0.384,0-0.655,0.119-0.812,0.356s-0.236,0.659-0.236,1.265v0.703c0,0.293,0.055,0.594,0.164,0.903s0.269,0.601,0.479,0.874
				l2.174,2.861c0.367,0.482,0.633,0.936,0.799,1.362s0.249,0.868,0.249,1.323v0.977c0,1.25-0.212,2.094-0.636,2.529
				s-1.177,0.654-2.26,0.654c-1.057,0-1.793-0.176-2.208-0.527s-0.622-1.016-0.622-1.992v-1.602h1.755v1.553
				c0,0.586,0.079,0.983,0.236,1.191c0.157,0.209,0.445,0.312,0.865,0.312c0.428,0,0.723-0.119,0.884-0.356s0.242-0.76,0.242-1.567
				v-0.996c0-0.371-0.046-0.708-0.137-1.011c-0.092-0.303-0.226-0.577-0.4-0.825l-2.306-3.066c-0.323-0.41-0.57-0.801-0.74-1.172
				s-0.255-0.693-0.255-0.967v-0.84c0-1.119,0.207-1.899,0.622-2.339s1.129-0.659,2.142-0.659c1.065,0,1.801,0.173,2.208,0.518
				C48.611,107.848,48.814,108.508,48.814,109.484z"/>
			<path fill="#331842" d="M57.146,110.139v8.525c0,1.237-0.223,2.077-0.668,2.52c-0.446,0.442-1.241,0.664-2.385,0.664
				c-1.126,0-1.913-0.225-2.358-0.674c-0.446-0.449-0.668-1.285-0.668-2.51v-8.525c0-1.211,0.225-2.039,0.675-2.485
				s1.242-0.669,2.378-0.669c1.135,0,1.924,0.222,2.364,0.664C56.925,108.092,57.146,108.922,57.146,110.139z M55.403,109.943
				c0-0.729-0.096-1.229-0.288-1.499s-0.533-0.405-1.022-0.405c-0.48,0-0.814,0.132-1.002,0.396
				c-0.188,0.264-0.282,0.767-0.282,1.509v8.916c0,0.749,0.096,1.254,0.288,1.514c0.192,0.261,0.533,0.391,1.022,0.391
				c0.48,0,0.814-0.13,1.002-0.391c0.188-0.26,0.282-0.765,0.282-1.514V109.943z"/>
			<path fill="#331842" d="M60.081,107.199h1.664v13.262h3v1.143h-4.664V107.199z"/>
			<path fill="#331842" d="M66.277,107.199h1.742v11.66c0,0.749,0.096,1.254,0.288,1.514c0.192,0.261,0.533,0.391,1.022,0.391
				c0.48,0,0.814-0.13,1.002-0.391c0.188-0.26,0.281-0.765,0.281-1.514v-11.66h1.743v11.465c0,1.237-0.223,2.077-0.668,2.52
				c-0.446,0.442-1.241,0.664-2.384,0.664c-1.127,0-1.913-0.225-2.358-0.674s-0.668-1.285-0.668-2.51V107.199z"/>
			<path fill="#331842" d="M80.818,109.484v1.377h-1.755v-1.338c0-0.56-0.081-0.947-0.242-1.162
				c-0.162-0.215-0.448-0.322-0.858-0.322c-0.375,0-0.638,0.122-0.786,0.366s-0.223,0.757-0.223,1.538v8.916
				c0,0.801,0.079,1.322,0.236,1.562c0.157,0.241,0.445,0.361,0.864,0.361c0.358,0,0.616-0.113,0.773-0.342
				c0.157-0.228,0.236-0.615,0.236-1.162v-1.553h1.755v1.602c0,0.983-0.206,1.648-0.616,1.997c-0.411,0.349-1.144,0.522-2.201,0.522
				c-1.04,0-1.764-0.225-2.175-0.674s-0.616-1.285-0.616-2.51v-8.525c0-1.217,0.205-2.047,0.616-2.49
				c0.411-0.442,1.135-0.664,2.175-0.664c1.065,0,1.801,0.173,2.208,0.518C80.616,107.848,80.818,108.508,80.818,109.484z"/>
			<path fill="#331842" d="M82.993,107.199h1.769v14.404h-1.769V107.199z"/>
			<path fill="#331842" d="M93.709,110.139v8.525c0,1.237-0.223,2.077-0.668,2.52s-1.24,0.664-2.385,0.664
				c-1.126,0-1.912-0.225-2.357-0.674c-0.446-0.449-0.668-1.285-0.668-2.51v-8.525c0-1.211,0.225-2.039,0.674-2.485
				c0.45-0.446,1.243-0.669,2.378-0.669c1.136,0,1.924,0.222,2.365,0.664C93.489,108.092,93.709,108.922,93.709,110.139z
				 M91.967,109.943c0-0.729-0.097-1.229-0.288-1.499c-0.192-0.271-0.533-0.405-1.022-0.405c-0.48,0-0.814,0.132-1.002,0.396
				s-0.281,0.767-0.281,1.509v8.916c0,0.749,0.096,1.254,0.288,1.514c0.192,0.261,0.532,0.391,1.021,0.391
				c0.48,0,0.814-0.13,1.002-0.391c0.188-0.26,0.282-0.765,0.282-1.514V109.943z M91.089,103.713h1.847l-1.716,2.178h-1.284
				L91.089,103.713z"/>
			<path fill="#331842" d="M96.644,107.199h2.279l2.765,13.545h0.026l-0.249-13.545h1.506v14.404h-2.306l-2.738-13.359h-0.053
				l0.236,13.359h-1.467V107.199z"/>
			<path fill="#331842" d="M109.941,107.668h5.345v1.055h-3.733v4.678c0.271-0.195,0.544-0.337,0.819-0.425s0.596-0.132,0.963-0.132
				c0.751,0,1.286,0.158,1.605,0.474c0.318,0.315,0.478,0.858,0.478,1.626v3.818c0,1.205-0.203,2.02-0.609,2.446
				c-0.406,0.427-1.134,0.64-2.182,0.64c-1.039,0-1.769-0.222-2.188-0.664c-0.419-0.442-0.629-1.256-0.629-2.441v-0.957h1.69v1.182
				c0,0.697,0.083,1.177,0.249,1.44s0.45,0.396,0.852,0.396c0.411,0,0.701-0.133,0.871-0.4c0.171-0.267,0.256-0.745,0.256-1.436
				v-3.74c0-0.54-0.081-0.92-0.242-1.138c-0.162-0.218-0.439-0.327-0.832-0.327c-0.402,0-0.686,0.107-0.852,0.322
				s-0.249,0.596-0.249,1.143v0.254h-1.611V107.668z"/>
			<path fill="#331842" d="M119.766,114.348c-0.629-0.143-1.067-0.352-1.316-0.625s-0.373-0.752-0.373-1.436V110.5
				c0-1.178,0.205-1.982,0.615-2.412c0.411-0.43,1.136-0.645,2.175-0.645c1.03,0,1.753,0.219,2.168,0.654
				c0.415,0.437,0.623,1.237,0.623,2.402v1.787c0,0.664-0.125,1.138-0.374,1.421s-0.696,0.497-1.343,0.64
				c0.646,0.15,1.094,0.366,1.343,0.649s0.374,0.754,0.374,1.411v2.354c0,1.205-0.203,2.02-0.609,2.446
				c-0.406,0.427-1.134,0.64-2.182,0.64c-1.03,0-1.753-0.22-2.168-0.659s-0.622-1.255-0.622-2.446v-2.334
				c0-0.684,0.122-1.162,0.366-1.436C118.688,114.699,119.128,114.491,119.766,114.348z M119.74,110.021v2.246
				c0,0.605,0.081,1.016,0.243,1.23c0.161,0.215,0.447,0.322,0.857,0.322c0.411,0,0.701-0.115,0.872-0.347s0.255-0.633,0.255-1.206
				v-2.246c0-0.586-0.081-0.992-0.242-1.221c-0.162-0.228-0.448-0.342-0.858-0.342c-0.41,0-0.701,0.112-0.871,0.337
				C119.826,109.021,119.74,109.43,119.74,110.021z M119.74,116.408v2.832c0,0.612,0.081,1.025,0.243,1.24
				c0.161,0.215,0.447,0.322,0.857,0.322c0.411,0,0.701-0.115,0.872-0.347s0.255-0.636,0.255-1.216v-2.832
				c0-0.586-0.081-0.992-0.242-1.221c-0.162-0.228-0.448-0.342-0.858-0.342c-0.41,0-0.701,0.111-0.871,0.332
				C119.826,115.399,119.74,115.81,119.74,116.408z"/>
			<path fill="#331842" d="M131.767,110.5v2.363c0,0.463-0.105,0.805-0.314,1.025c-0.209,0.222-0.559,0.368-1.048,0.439
				c0.489,0.065,0.839,0.209,1.048,0.43c0.209,0.222,0.314,0.563,0.314,1.025v2.979c0,1.205-0.203,2.02-0.609,2.446
				c-0.406,0.427-1.134,0.64-2.182,0.64c-1.03,0-1.753-0.22-2.168-0.659c-0.415-0.439-0.622-1.255-0.622-2.446v-0.957h1.664v1.182
				c0,0.69,0.085,1.169,0.255,1.436c0.17,0.268,0.46,0.4,0.871,0.4c0.41,0,0.696-0.132,0.858-0.396
				c0.161-0.264,0.242-0.743,0.242-1.44v-3.047c0-0.423-0.107-0.708-0.321-0.854s-0.644-0.22-1.29-0.22h-0.459v-1.064h0.459
				c0.637,0,1.065-0.076,1.284-0.229s0.328-0.44,0.328-0.864v-2.383c0-0.762-0.074-1.26-0.223-1.494s-0.415-0.352-0.799-0.352
				c-0.393,0-0.67,0.134-0.832,0.4c-0.162,0.268-0.243,0.749-0.243,1.445v0.898h-1.69V110.5c0-1.165,0.205-1.966,0.616-2.402
				c0.411-0.436,1.126-0.654,2.148-0.654c1.004,0,1.708,0.217,2.109,0.649S131.767,109.328,131.767,110.5z"/>
			<path fill="#331842" d="M138.801,107.199h1.952c1.65,0,2.729,0.193,3.236,0.581s0.76,1.274,0.76,2.661v7.92
				c0,1.381-0.258,2.266-0.773,2.656s-1.59,0.586-3.223,0.586h-1.952V107.199z M140.465,108.264v12.275h0.537
				c0.804,0,1.334-0.1,1.592-0.298c0.257-0.198,0.386-0.636,0.386-1.313v-9.023c0-0.684-0.131-1.128-0.393-1.333
				c-0.262-0.205-0.79-0.308-1.585-0.308H140.465z"/>
			<path fill="#331842" d="M147.684,107.199h4.611v1.143h-2.948v5.186h2.817v1.133h-2.817v5.801h3.026v1.143h-4.689V107.199z"/>
			<path fill="#331842" d="M164.23,110.188v0.918c0,0.248-0.053,0.551-0.157,0.908c-0.104,0.358-0.258,0.742-0.458,1.152
				l-3.616,7.373h4.153v1.064h-5.633v-1.416l3.301-6.758l0.04-0.088c0.472-0.918,0.707-1.695,0.707-2.334v-0.889
				c0-0.599-0.085-1.025-0.255-1.279c-0.171-0.254-0.452-0.381-0.845-0.381c-0.411,0-0.701,0.135-0.872,0.405
				c-0.17,0.271-0.255,0.751-0.255,1.44v0.938h-1.69V110.5c0-1.172,0.21-1.975,0.629-2.407s1.148-0.649,2.188-0.649
				c0.996,0,1.705,0.209,2.128,0.625C164.018,108.485,164.23,109.191,164.23,110.188z"/>
			<path fill="#331842" d="M172.47,110.5v8.262c0,1.205-0.203,2.02-0.609,2.446s-1.133,0.64-2.181,0.64
				c-1.031,0-1.753-0.22-2.168-0.659s-0.622-1.255-0.622-2.446V110.5c0-1.178,0.205-1.982,0.616-2.412s1.135-0.645,2.175-0.645
				c1.03,0,1.753,0.219,2.168,0.654C172.262,108.534,172.47,109.335,172.47,110.5z M170.78,110.305c0-0.703-0.081-1.187-0.242-1.45
				s-0.447-0.396-0.858-0.396s-0.701,0.135-0.872,0.405c-0.17,0.271-0.255,0.751-0.255,1.44v8.662c0,0.69,0.085,1.169,0.255,1.436
				c0.171,0.268,0.461,0.4,0.872,0.4s0.696-0.132,0.858-0.396s0.242-0.743,0.242-1.44V110.305z"/>
			<path fill="#331842" d="M177.094,107.668h1.638v13.936h-1.638v-12.402c-0.314,0.209-0.628,0.385-0.943,0.527
				c-0.314,0.144-0.638,0.261-0.969,0.352v-1.357c0.375-0.137,0.723-0.293,1.041-0.469
				C176.542,108.078,176.833,107.883,177.094,107.668z"/>
			<path fill="#331842" d="M185.007,114.348c-0.629-0.143-1.067-0.352-1.316-0.625s-0.374-0.752-0.374-1.436V110.5
				c0-1.178,0.205-1.982,0.616-2.412c0.41-0.43,1.135-0.645,2.175-0.645c1.03,0,1.753,0.219,2.168,0.654
				c0.415,0.437,0.622,1.237,0.622,2.402v1.787c0,0.664-0.124,1.138-0.373,1.421s-0.696,0.497-1.343,0.64
				c0.646,0.15,1.094,0.366,1.343,0.649s0.373,0.754,0.373,1.411v2.354c0,1.205-0.203,2.02-0.609,2.446s-1.133,0.64-2.181,0.64
				c-1.031,0-1.753-0.22-2.168-0.659c-0.415-0.439-0.623-1.255-0.623-2.446v-2.334c0-0.684,0.123-1.162,0.367-1.436
				C183.929,114.699,184.37,114.491,185.007,114.348z M184.981,110.021v2.246c0,0.605,0.081,1.016,0.243,1.23
				s0.447,0.322,0.858,0.322c0.41,0,0.701-0.115,0.871-0.347c0.17-0.231,0.256-0.633,0.256-1.206v-2.246
				c0-0.586-0.081-0.992-0.243-1.221c-0.162-0.228-0.448-0.342-0.858-0.342c-0.411,0-0.701,0.112-0.871,0.337
				C185.066,109.021,184.981,109.43,184.981,110.021z M184.981,116.408v2.832c0,0.612,0.081,1.025,0.243,1.24
				s0.447,0.322,0.858,0.322c0.41,0,0.701-0.115,0.871-0.347c0.17-0.231,0.256-0.636,0.256-1.216v-2.832
				c0-0.586-0.081-0.992-0.243-1.221c-0.162-0.228-0.448-0.342-0.858-0.342c-0.411,0-0.701,0.111-0.871,0.332
				C185.066,115.399,184.981,115.81,184.981,116.408z"/>
		</g>
	</g>
</g>
</svg>
