<?xml version="1.0" encoding="utf-8"?>
<!-- Generator: Adobe Illustrator 24.2.3, SVG Export Plug-In . SVG Version: 6.00 Build 0)  -->
<svg version="1.1" id="Capa_1" xmlns="http://www.w3.org/2000/svg" xmlns:xlink="http://www.w3.org/1999/xlink" x="0px" y="0px"
	 viewBox="0 0 197.5 39.8" style="enable-background:new 0 0 197.5 39.8;" xml:space="preserve">
<style type="text/css">
	.st0{opacity:0.7;fill:#FFFFFF;enable-background:new    ;}
	.st1{fill:#331842;}
</style>
<g>
	<polygon class="st0" points="0,2.7 197.5,0 197.5,39.8 25.2,39.8 	"/>
	<g>
		<g>
			<g>
				<path class="st1" d="M154.2,3.8h4.8V5h-3v5.4h2.9v1.2H156v6h3.1v1.2h-4.9L154.2,3.8L154.2,3.8z"/>
				<path class="st1" d="M161.5,3.8h2.4l2.9,14l0,0l-0.3-14h1.6v14.9h-2.4l-2.8-13.8h-0.1l0.2,13.8h-1.5L161.5,3.8L161.5,3.8z"/>
				<path class="st1" d="M80.4,23.4v1.4h-1.8v-1.4c0-0.6-0.1-1-0.2-1.2s-0.5-0.3-0.9-0.3s-0.7,0.1-0.8,0.4c-0.2,0.3-0.2,0.8-0.2,1.6
					v9.2c0,0.8,0.1,1.4,0.2,1.6c0.2,0.2,0.5,0.4,0.9,0.4s0.6-0.1,0.8-0.4c0.2-0.2,0.2-0.6,0.2-1.2v-1.6h1.8v1.7c0,1-0.2,1.7-0.6,2.1
					c-0.4,0.4-1.2,0.5-2.3,0.5c-1.1,0-1.8-0.2-2.2-0.7s-0.6-1.3-0.6-2.6v-8.8c0-1.3,0.2-2.1,0.6-2.6s1.2-0.7,2.2-0.7
					c1.1,0,1.9,0.2,2.3,0.5C80.2,21.7,80.4,22.4,80.4,23.4z"/>
				<path class="st1" d="M88.9,24.1v8.8c0,1.3-0.2,2.1-0.7,2.6s-1.3,0.7-2.5,0.7s-2-0.2-2.4-0.7c-0.5-0.5-0.7-1.3-0.7-2.6v-8.8
					c0-1.3,0.2-2.1,0.7-2.6s1.3-0.7,2.5-0.7s2,0.2,2.4,0.7C88.7,22,88.9,22.8,88.9,24.1z M87.1,23.9c0-0.8-0.1-1.3-0.3-1.6
					c-0.2-0.3-0.6-0.4-1.1-0.4s-0.8,0.1-1,0.4s-0.3,0.8-0.3,1.6v9.2c0,0.8,0.1,1.3,0.3,1.6c0.2,0.3,0.6,0.4,1.1,0.4s0.8-0.1,1-0.4
					c0.2-0.3,0.3-0.8,0.3-1.6V23.9L87.1,23.9z"/>
				<path class="st1" d="M91.9,21.1h1.7v13.7h3.1V36h-4.8L91.9,21.1L91.9,21.1z"/>
				<path class="st1" d="M104.6,24.1v8.8c0,1.3-0.2,2.1-0.7,2.6s-1.3,0.7-2.5,0.7s-2-0.2-2.4-0.7c-0.5-0.5-0.7-1.3-0.7-2.6v-8.8
					c0-1.3,0.2-2.1,0.7-2.6s1.3-0.7,2.5-0.7s2,0.2,2.4,0.7C104.4,22,104.6,22.8,104.6,24.1z M102.8,23.9c0-0.8-0.1-1.3-0.3-1.6
					s-0.6-0.4-1.1-0.4s-0.8,0.1-1,0.4s-0.3,0.8-0.3,1.6v9.2c0,0.8,0.1,1.3,0.3,1.6c0.2,0.3,0.6,0.4,1.1,0.4s0.8-0.1,1-0.4
					c0.2-0.3,0.3-0.8,0.3-1.6V23.9L102.8,23.9z"/>
				<path class="st1" d="M107.7,21.1h3l1.9,13.7h0.1l1.9-13.7h2.9V36H116V22.2h-0.3l-2,13.8h-2.4l-2-13.8h-0.2V36h-1.5L107.7,21.1
					L107.7,21.1z"/>
				<path class="st1" d="M120.6,21.1h2.6c1.4,0,2.3,0.1,2.8,0.4s0.7,0.8,0.7,1.5v3.4c0,0.6-0.2,1.1-0.5,1.3
					c-0.3,0.3-0.9,0.4-1.7,0.5c0.9,0,1.5,0.2,1.8,0.4s0.5,0.7,0.5,1.3V34c0,0.7-0.2,1.2-0.7,1.5s-1.4,0.4-2.8,0.4h-2.8L120.6,21.1
					L120.6,21.1z M122.4,22.2v5.4h0.6c0.8,0,1.3-0.1,1.6-0.3c0.3-0.2,0.4-0.7,0.4-1.4v-2.1c0-0.7-0.1-1.2-0.4-1.4
					c-0.3-0.2-0.8-0.3-1.6-0.3L122.4,22.2L122.4,22.2z M122.4,28.7v6.1h0.6c0.8,0,1.4-0.1,1.6-0.3c0.3-0.2,0.4-0.7,0.4-1.4v-2.8
					c0-0.7-0.1-1.2-0.4-1.4s-0.8-0.3-1.6-0.3L122.4,28.7L122.4,28.7z"/>
				<path class="st1" d="M129.9,21.1h1.8V36h-1.8V21.1z"/>
				<path class="st1" d="M136.4,21.1h2.5l2.9,14.9H140l-0.7-4.1H136l-0.7,4.1h-1.8L136.4,21.1z M137.6,22.2l-1.4,8.6h2.9L137.6,22.2
					L137.6,22.2z"/>
				<path class="st1" d="M73.6,4.4H76l2.8,14.4H77l-0.7-4h-3.2l-0.7,4h-1.8L73.6,4.4z M74.8,5.4l-1.4,8.3h2.8L74.8,5.4L74.8,5.4z"/>
				<path class="st1" d="M98.9,4.1h2.3l2.8,13.5l0,0l-0.3-13.5h1.5v14.4h-2.3l-2.7-13.3h-0.1l0.2,13.4h-1.5L98.9,4.1L98.9,4.1z"/>
				<path class="st1" d="M92.4,4.1H97v1.1h-3v5.2h2.8v1.1H94v5.8h3v1.1h-4.7L92.4,4.1L92.4,4.1z"/>
				<path class="st1" d="M43,4.4h2.5c1.3,0,2.2,0.1,2.7,0.4s0.7,0.8,0.7,1.5v3.3c0,0.6-0.2,1-0.5,1.3s-0.8,0.4-1.6,0.4
					c0.8,0,1.4,0.2,1.7,0.4S49,12.4,49,13v5.8h-1.8v-5.4c0-0.7-0.1-1.1-0.4-1.3c-0.3-0.2-0.8-0.3-1.6-0.3h-0.6v7H43V4.4z M44.6,5.4
					v5.3h0.6c0.8,0,1.3-0.1,1.5-0.3c0.3-0.2,0.4-0.6,0.4-1.3v-2c0-0.7-0.1-1.1-0.4-1.3c-0.3-0.2-0.8-0.3-1.5-0.3
					C45.2,5.4,44.6,5.4,44.6,5.4z"/>
				<path class="st1" d="M64.7,4.4h1.7v13.3h3v1.1h-4.7V4.4z"/>
				<path class="st1" d="M127.2,6.4v1.4h-1.8V6.4c0-0.6-0.1-0.9-0.2-1.2C125,5.1,124.8,5,124.4,5s-0.6,0.1-0.8,0.4
					c-0.1,0.2-0.2,0.8-0.2,1.5v8.9c0,0.8,0.1,1.3,0.2,1.6c0.2,0.2,0.4,0.4,0.9,0.4c0.4,0,0.6-0.1,0.8-0.3c0.2-0.2,0.2-0.6,0.2-1.2
					v-1.6h1.8v1.6c0,1-0.2,1.6-0.6,2c-0.4,0.3-1.1,0.5-2.2,0.5c-1,0-1.8-0.2-2.2-0.7c-0.4-0.4-0.6-1.3-0.6-2.5V7.1
					c0-1.2,0.2-2,0.6-2.5c0.4-0.4,1.1-0.7,2.2-0.7s1.8,0.2,2.2,0.5C127,4.8,127.2,5.4,127.2,6.4z"/>
				<path class="st1" d="M129.4,4.1h1.8v14.4h-1.8V4.1z"/>
				<path class="st1" d="M140.1,7.1v8.5c0,1.2-0.2,2.1-0.7,2.5c-0.4,0.4-1.2,0.7-2.4,0.7c-1.1,0-1.9-0.2-2.4-0.7
					c-0.4-0.4-0.7-1.3-0.7-2.5V7.1c0-1.2,0.2-2,0.7-2.5c0.4-0.4,1.2-0.7,2.4-0.7c1.1,0,1.9,0.2,2.4,0.7C139.9,5,140.1,5.8,140.1,7.1
					z M138.4,6.9c0-0.7-0.1-1.2-0.3-1.5c-0.2-0.3-0.5-0.4-1-0.4s-0.8,0.1-1,0.4s-0.3,0.8-0.3,1.5v8.9c0,0.7,0.1,1.3,0.3,1.5
					c0.2,0.3,0.5,0.4,1,0.4s0.8-0.1,1-0.4s0.3-0.8,0.3-1.5V6.9z M137.5,0.6h1.8l-1.7,2.2h-1.3L137.5,0.6z"/>
				<path class="st1" d="M143,4.1h2.3l2.8,13.5l0,0l-0.2-13.5h1.5v14.4h-2.3l-2.7-13.4h-0.1l0.2,13.4H143V4.1L143,4.1z"/>
				<path class="st1" d="M115.1,4.1h2.4l2.8,14.4h-1.8l-0.7-4h-3.2l-0.7,4h-1.8L115.1,4.1z M116.2,5.2l-1.4,8.3h2.8L116.2,5.2
					L116.2,5.2z"/>
				<path class="st1" d="M80.3,3.9h3l1.9,13.7h0.1l1.9-13.7h2.9v14.9h-1.5V5h-0.3l-2,13.8H84L82,5h-0.2v13.8h-1.5V3.9z"/>
				<path class="st1" d="M106.2,3.9h5.8v1.2h-2v13.7h-1.7V5.1h-2.1L106.2,3.9L106.2,3.9z"/>
				<path class="st1" d="M62.7,7.4v0.7H61V7.2c0-0.7-0.1-1.2-0.3-1.5s-0.5-0.4-1-0.4s-0.8,0.1-1,0.4s-0.3,0.8-0.3,1.4v8.6
					c0,0.7,0.1,1.2,0.3,1.5s0.6,0.4,1.1,0.4c0.2,0,0.3,0,0.5,0s0.4-0.1,0.6-0.1v-4.9h-1.4v-1h3.1v6.6c-0.5,0.2-1,0.3-1.5,0.4
					s-1,0.1-1.5,0.1c-1.1,0-1.9-0.2-2.3-0.7c-0.4-0.4-0.7-1.2-0.7-2.4V7.4c0-1.2,0.2-2,0.7-2.4c0.4-0.4,1.2-0.6,2.3-0.6
					s1.9,0.2,2.3,0.6C62.5,5.4,62.7,6.2,62.7,7.4z"/>
				<path class="st1" d="M50.6,4.4h4.6v1.1h-2.9v5.2h2.8v1.1h-2.8v5.8h3v1.1h-4.7C50.6,18.7,50.6,4.4,50.6,4.4z"/>
			</g>
		</g>
	</g>
</g>
</svg>
