<?xml version="1.0" encoding="utf-8"?>
<!-- Generator: Adobe Illustrator 16.0.0, SVG Export Plug-In . SVG Version: 6.00 Build 0)  -->
<!DOCTYPE svg PUBLIC "-//W3C//DTD SVG 1.1//EN" "http://www.w3.org/Graphics/SVG/1.1/DTD/svg11.dtd">
<svg version="1.1" id="Capa_1" xmlns="http://www.w3.org/2000/svg" xmlns:xlink="http://www.w3.org/1999/xlink" x="0px" y="0px"
	 width="692.258px" height="325.742px" viewBox="0 0 692.258 325.742" enable-background="new 0 0 692.258 325.742"
	 xml:space="preserve">
<g>
	<g>
		<path fill="#F2961C" d="M2.067,4.735h3.932l2.544,18.011h0.178l2.491-18.011h3.825v19.563h-1.975V6.207h-0.356l-2.562,18.092
			H6.978L4.327,6.207H4.024v18.092H2.067V4.735z"/>
		<path fill="#F2961C" d="M21.336,4.735h3.309l3.79,19.563h-2.438L25.09,18.86h-4.306l-0.979,5.438h-2.384L21.336,4.735z
			 M22.902,6.181l-1.904,11.247h3.79L23.009,6.181H22.902z"/>
		<path fill="#F2961C" d="M30.838,4.735h3.452c1.779,0,2.983,0.186,3.612,0.557c0.628,0.372,0.943,1.039,0.943,2.003v4.43
			c0,0.814-0.208,1.389-0.623,1.725s-1.151,0.539-2.206,0.609c1.127,0.054,1.909,0.248,2.348,0.584
			c0.439,0.336,0.658,0.92,0.658,1.751v7.905H36.62V16.99c0-0.92-0.175-1.517-0.525-1.791c-0.35-0.273-1.071-0.41-2.162-0.41h-0.836
			v9.51h-2.26L30.838,4.735L30.838,4.735z M33.097,6.181v7.149h0.801c1.032,0,1.72-0.135,2.064-0.404
			c0.344-0.271,0.516-0.869,0.516-1.798V8.409c0-0.938-0.172-1.543-0.516-1.817c-0.344-0.273-1.032-0.411-2.064-0.411H33.097z"/>
		<path fill="#F2961C" d="M50.481,7.839v1.87h-2.384V7.892c0-0.76-0.11-1.286-0.329-1.578c-0.22-0.292-0.608-0.438-1.166-0.438
			c-0.51,0-0.866,0.165-1.068,0.497c-0.202,0.332-0.302,1.028-0.302,2.089v12.109c0,1.088,0.107,1.795,0.32,2.122
			c0.214,0.327,0.605,0.491,1.174,0.491c0.486,0,0.836-0.155,1.05-0.465c0.214-0.31,0.32-0.835,0.32-1.578v-2.108h2.384v2.175
			c0,1.335-0.279,2.239-0.836,2.712c-0.558,0.474-1.554,0.71-2.989,0.71c-1.412,0-2.396-0.305-2.954-0.915
			c-0.558-0.61-0.836-1.746-0.836-3.408V8.728c0-1.653,0.279-2.78,0.836-3.382c0.557-0.602,1.542-0.902,2.954-0.902
			c1.447,0,2.447,0.234,2.998,0.703C50.204,5.616,50.481,6.513,50.481,7.839z"/>
		<path fill="#F2961C" d="M61.583,8.728v11.579c0,1.68-0.302,2.82-0.907,3.422c-0.605,0.601-1.684,0.901-3.238,0.901
			c-1.53,0-2.598-0.305-3.203-0.915c-0.605-0.61-0.907-1.746-0.907-3.408V8.728c0-1.645,0.305-2.77,0.916-3.376
			c0.611-0.605,1.687-0.908,3.229-0.908s2.613,0.301,3.212,0.902C61.283,5.947,61.583,7.074,61.583,8.728z M59.217,8.462
			c0-0.99-0.131-1.669-0.391-2.036c-0.261-0.366-0.724-0.55-1.388-0.55c-0.653,0-1.106,0.179-1.361,0.537
			c-0.255,0.358-0.382,1.041-0.382,2.049v12.109c0,1.017,0.13,1.702,0.391,2.056c0.261,0.354,0.723,0.531,1.388,0.531
			c0.652,0,1.106-0.178,1.361-0.531c0.255-0.354,0.382-1.039,0.382-2.056V8.462z"/>
		<path fill="#F2961C" d="M74.483,4.735h2.295v15.571c0,1.636-0.276,2.761-0.827,3.375c-0.552,0.615-1.516,0.922-2.891,0.922
			c-1.376,0-2.334-0.243-2.874-0.729s-0.81-1.375-0.81-2.666v-2.175h2.331v2.108c0,0.813,0.098,1.353,0.294,1.618
			c0.196,0.266,0.548,0.398,1.059,0.398c0.534,0,0.904-0.173,1.112-0.518c0.207-0.345,0.311-1.035,0.311-2.069V4.735z"/>
		<path fill="#F2961C" d="M80.657,4.735h2.366v15.836c0,1.017,0.13,1.702,0.391,2.056c0.261,0.354,0.723,0.531,1.388,0.531
			c0.652,0,1.106-0.178,1.361-0.531c0.255-0.354,0.382-1.039,0.382-2.056V4.735h2.366v15.571c0,1.68-0.302,2.82-0.907,3.422
			c-0.605,0.601-1.684,0.901-3.238,0.901c-1.53,0-2.598-0.305-3.203-0.915c-0.605-0.61-0.907-1.746-0.907-3.408V4.735H80.657z"/>
		<path fill="#F2961C" d="M92.898,4.735h3.452c1.779,0,2.983,0.186,3.612,0.557c0.628,0.372,0.943,1.039,0.943,2.003v4.43
			c0,0.814-0.208,1.389-0.623,1.725c-0.415,0.336-1.151,0.539-2.206,0.609c1.127,0.054,1.909,0.248,2.348,0.584
			s0.658,0.92,0.658,1.751v7.905H98.68V16.99c0-0.92-0.175-1.517-0.525-1.791c-0.35-0.273-1.071-0.41-2.162-0.41h-0.836v9.51h-2.26
			L92.898,4.735L92.898,4.735z M95.158,6.181v7.149h0.801c1.032,0,1.72-0.135,2.064-0.404c0.344-0.271,0.516-0.869,0.516-1.798
			V8.409c0-0.938-0.172-1.543-0.516-1.817c-0.344-0.273-1.032-0.411-2.064-0.411H95.158z"/>
		<path fill="#F2961C" d="M105.032,4.735h2.402v19.563h-2.402V4.735z M106.74,0h2.509l-2.331,2.958h-1.744L106.74,0z"/>
		<path fill="#F2961C" d="M111.438,4.735h2.651c2.242,0,3.707,0.263,4.395,0.789s1.032,1.73,1.032,3.614v10.756
			c0,1.875-0.35,3.077-1.05,3.607c-0.7,0.531-2.159,0.797-4.377,0.797h-2.651V4.735z M113.698,6.181v16.672h0.729
			c1.091,0,1.812-0.135,2.162-0.404c0.35-0.269,0.525-0.864,0.525-1.784V8.409c0-0.929-0.178-1.532-0.534-1.811
			c-0.356-0.278-1.074-0.418-2.153-0.418L113.698,6.181L113.698,6.181z"/>
		<path fill="#F2961C" d="M123.501,4.735h2.402v19.563h-2.402V4.735z"/>
		<path fill="#F2961C" d="M137.415,7.839v1.87h-2.384V7.892c0-0.76-0.11-1.286-0.329-1.578c-0.22-0.292-0.608-0.438-1.166-0.438
			c-0.51,0-0.866,0.165-1.068,0.497c-0.202,0.332-0.302,1.028-0.302,2.089v12.109c0,1.088,0.107,1.795,0.32,2.122
			c0.214,0.327,0.605,0.491,1.174,0.491c0.486,0,0.836-0.155,1.05-0.465c0.214-0.31,0.32-0.835,0.32-1.578v-2.108h2.384v2.175
			c0,1.335-0.279,2.239-0.836,2.712c-0.558,0.474-1.554,0.71-2.989,0.71c-1.412,0-2.396-0.305-2.954-0.915
			c-0.558-0.61-0.836-1.746-0.836-3.408V8.728c0-1.653,0.279-2.78,0.836-3.382c0.557-0.602,1.542-0.902,2.954-0.902
			c1.447,0,2.447,0.234,2.998,0.703C137.138,5.616,137.415,6.513,137.415,7.839z"/>
		<path fill="#F2961C" d="M148.517,8.728v11.579c0,1.68-0.302,2.82-0.907,3.422c-0.605,0.601-1.684,0.901-3.238,0.901
			c-1.53,0-2.598-0.305-3.203-0.915c-0.605-0.61-0.907-1.746-0.907-3.408V8.728c0-1.645,0.305-2.77,0.916-3.376
			c0.611-0.605,1.687-0.908,3.229-0.908s2.613,0.301,3.212,0.902C148.218,5.947,148.517,7.074,148.517,8.728z M146.151,8.462
			c0-0.99-0.131-1.669-0.391-2.036c-0.261-0.366-0.724-0.55-1.388-0.55c-0.653,0-1.106,0.179-1.361,0.537
			c-0.255,0.358-0.382,1.041-0.382,2.049v12.109c0,1.017,0.13,1.702,0.391,2.056s0.723,0.531,1.388,0.531
			c0.652,0,1.106-0.178,1.361-0.531c0.255-0.354,0.382-1.039,0.382-2.056V8.462z"/>
		<path fill="#F2961C" d="M160.296,4.735h3.309l3.79,19.563h-2.438l-0.907-5.438h-4.306l-0.979,5.438h-2.384L160.296,4.735z
			 M161.862,6.181l-1.904,11.247h3.79l-1.779-11.247H161.862z"/>
		<path fill="#F2961C" d="M175.366,4.735h2.918c1.779,0,2.989,0.188,3.63,0.563c0.641,0.376,0.961,1.041,0.961,1.996v5.623
			c0,0.955-0.32,1.619-0.961,1.99c-0.64,0.371-1.85,0.557-3.63,0.557h-0.658v8.834h-2.26V4.735z M177.626,6.181v7.853h0.605
			c0.901,0,1.504-0.135,1.806-0.405c0.302-0.27,0.454-0.877,0.454-1.823V8.409c0-0.946-0.151-1.554-0.454-1.823
			c-0.302-0.271-0.905-0.405-1.806-0.405H177.626z"/>
		<path fill="#F2961C" d="M187.074,4.735h3.309l3.79,19.563h-2.438l-0.907-5.438h-4.306l-0.979,5.438h-2.384L187.074,4.735z
			 M188.64,6.181l-1.904,11.247h3.79l-1.779-11.247H188.64z"/>
		<path fill="#F2961C" d="M196.575,4.735h3.452c1.779,0,2.983,0.186,3.612,0.557c0.628,0.372,0.943,1.039,0.943,2.003v4.43
			c0,0.814-0.208,1.389-0.623,1.725s-1.151,0.539-2.206,0.609c1.127,0.054,1.909,0.248,2.348,0.584s0.658,0.92,0.658,1.751v7.905
			h-2.402V16.99c0-0.92-0.175-1.517-0.525-1.791c-0.35-0.273-1.071-0.41-2.162-0.41h-0.836v9.51h-2.26L196.575,4.735L196.575,4.735z
			 M198.835,6.181v7.149h0.801c1.032,0,1.72-0.135,2.064-0.404c0.344-0.271,0.516-0.869,0.516-1.798V8.409
			c0-0.938-0.172-1.543-0.516-1.817c-0.344-0.273-1.032-0.411-2.064-0.411H198.835z"/>
		<path fill="#F2961C" d="M206.984,4.735h7.704v1.552h-2.704v18.012h-2.295V6.287h-2.704L206.984,4.735L206.984,4.735z"/>
		<path fill="#F2961C" d="M217.054,4.735h2.402v19.563h-2.402V4.735z"/>
		<path fill="#F2961C" d="M223.46,4.735h3.452c1.779,0,2.983,0.186,3.612,0.557c0.628,0.372,0.943,1.039,0.943,2.003v4.43
			c0,0.814-0.208,1.389-0.623,1.725c-0.415,0.336-1.151,0.539-2.206,0.609c1.127,0.054,1.909,0.248,2.348,0.584
			s0.658,0.92,0.658,1.751v7.905h-2.402V16.99c0-0.92-0.175-1.517-0.525-1.791c-0.35-0.273-1.071-0.41-2.162-0.41h-0.836v9.51h-2.26
			L223.46,4.735L223.46,4.735z M225.719,6.181v7.149h0.801c1.032,0,1.72-0.135,2.064-0.404c0.344-0.271,0.516-0.869,0.516-1.798
			V8.409c0-0.938-0.172-1.543-0.516-1.817c-0.344-0.273-1.032-0.411-2.064-0.411H225.719z"/>
		<path fill="#F2961C" d="M241.163,4.735h2.651c2.242,0,3.707,0.263,4.395,0.789s1.032,1.73,1.032,3.614v10.756
			c0,1.875-0.35,3.077-1.05,3.607c-0.7,0.531-2.159,0.797-4.377,0.797h-2.651V4.735z M243.423,6.181v16.672h0.729
			c1.091,0,1.812-0.135,2.162-0.404c0.35-0.269,0.525-0.864,0.525-1.784V8.409c0-0.929-0.178-1.532-0.534-1.811
			c-0.356-0.278-1.074-0.418-2.153-0.418L243.423,6.181L243.423,6.181z"/>
		<path fill="#F2961C" d="M253.226,4.735h6.263v1.552h-4.003v7.043h3.825v1.538h-3.825v7.878h4.11v1.553h-6.37V4.735L253.226,4.735z
			"/>
		<path fill="#F2961C" d="M268.421,4.735h2.26v18.011h4.074v1.553h-6.334V4.735z"/>
		<path fill="#F2961C" d="M279.844,4.735h3.309l3.79,19.563h-2.438l-0.907-5.438h-4.306l-0.979,5.438h-2.384L279.844,4.735z
			 M281.41,6.181l-1.904,11.247h3.79l-1.779-11.247H281.41z"/>
		<path fill="#F2961C" d="M302.423,7.839v1.87h-2.384V7.892c0-0.76-0.11-1.286-0.329-1.578c-0.22-0.292-0.608-0.438-1.166-0.438
			c-0.51,0-0.866,0.165-1.068,0.497s-0.302,1.028-0.302,2.089v12.109c0,1.088,0.107,1.795,0.32,2.122
			c0.214,0.327,0.605,0.491,1.174,0.491c0.486,0,0.836-0.155,1.05-0.465c0.214-0.31,0.32-0.835,0.32-1.578v-2.108h2.384v2.175
			c0,1.335-0.279,2.239-0.836,2.712c-0.558,0.474-1.554,0.71-2.989,0.71c-1.412,0-2.396-0.305-2.954-0.915
			c-0.558-0.61-0.836-1.746-0.836-3.408V8.728c0-1.653,0.279-2.78,0.836-3.382s1.542-0.902,2.954-0.902
			c1.447,0,2.447,0.234,2.998,0.703C302.146,5.616,302.423,6.513,302.423,7.839z"/>
		<path fill="#F2961C" d="M313.525,8.728v11.579c0,1.68-0.302,2.82-0.907,3.422c-0.605,0.601-1.684,0.901-3.238,0.901
			c-1.53,0-2.598-0.305-3.203-0.915c-0.605-0.61-0.907-1.746-0.907-3.408V8.728c0-1.645,0.305-2.77,0.916-3.376
			c0.611-0.605,1.687-0.908,3.229-0.908s2.613,0.301,3.212,0.902S313.525,7.074,313.525,8.728z M311.159,8.462
			c0-0.99-0.131-1.669-0.391-2.036c-0.261-0.366-0.724-0.55-1.388-0.55c-0.653,0-1.106,0.179-1.361,0.537s-0.382,1.041-0.382,2.049
			v12.109c0,1.017,0.13,1.702,0.391,2.056c0.261,0.354,0.723,0.531,1.388,0.531c0.652,0,1.106-0.178,1.361-0.531
			c0.255-0.354,0.382-1.039,0.382-2.056V8.462z"/>
		<path fill="#F2961C" d="M317.511,4.735h3.096l3.754,18.396h0.036l-0.338-18.396h2.046v19.563h-3.131l-3.719-18.145h-0.071
			l0.32,18.145h-1.993V4.735L317.511,4.735z"/>
		<path fill="#F2961C" d="M337.011,7.839v1.87h-2.366V7.892c0-0.769-0.107-1.298-0.32-1.585c-0.213-0.287-0.593-0.431-1.139-0.431
			c-0.522,0-0.89,0.161-1.103,0.483c-0.214,0.323-0.32,0.896-0.32,1.718v0.955c0,0.398,0.074,0.808,0.222,1.228
			c0.148,0.42,0.365,0.815,0.649,1.188l2.954,3.886c0.498,0.654,0.86,1.271,1.085,1.851s0.338,1.179,0.338,1.797v1.327
			c0,1.697-0.288,2.842-0.863,3.435c-0.575,0.593-1.598,0.889-3.069,0.889c-1.435,0-2.435-0.239-2.998-0.716
			c-0.563-0.478-0.845-1.38-0.845-2.706v-2.175h2.384v2.108c0,0.796,0.107,1.335,0.32,1.618c0.213,0.283,0.605,0.425,1.174,0.425
			c0.581,0,0.981-0.161,1.201-0.484c0.219-0.323,0.329-1.032,0.329-2.129V19.22c0-0.504-0.062-0.962-0.187-1.373
			c-0.125-0.411-0.305-0.784-0.543-1.121l-3.131-4.164c-0.439-0.557-0.774-1.088-1.005-1.592c-0.231-0.504-0.347-0.941-0.347-1.312
			V8.516c0-1.521,0.282-2.58,0.845-3.177c0.563-0.597,1.533-0.896,2.909-0.896c1.447,0,2.447,0.234,2.998,0.703
			C336.734,5.615,337.011,6.513,337.011,7.839z"/>
		<path fill="#F2961C" d="M338.453,4.735h7.704v1.552h-2.704v18.012h-2.295V6.287h-2.704L338.453,4.735L338.453,4.735z"/>
		<path fill="#F2961C" d="M348.523,4.735h2.401v19.563h-2.401V4.735z"/>
		<path fill="#F2961C" d="M353.203,4.735h7.704v1.552h-2.704v18.012h-2.295V6.287h-2.704L353.203,4.735L353.203,4.735z"/>
		<path fill="#F2961C" d="M363.167,4.735h2.366v15.836c0,1.017,0.13,1.702,0.391,2.056c0.262,0.354,0.723,0.531,1.389,0.531
			c0.651,0,1.105-0.178,1.36-0.531c0.255-0.354,0.382-1.039,0.382-2.056V4.735h2.366v15.571c0,1.68-0.302,2.82-0.907,3.422
			c-0.604,0.601-1.684,0.901-3.238,0.901c-1.529,0-2.598-0.305-3.203-0.915c-0.604-0.61-0.906-1.746-0.906-3.408L363.167,4.735
			L363.167,4.735z"/>
		<path fill="#F2961C" d="M382.916,7.839v1.87h-2.384V7.892c0-0.76-0.11-1.286-0.329-1.578c-0.221-0.292-0.608-0.438-1.166-0.438
			c-0.51,0-0.866,0.165-1.068,0.497c-0.201,0.332-0.302,1.028-0.302,2.089v12.109c0,1.088,0.106,1.795,0.319,2.122
			c0.215,0.327,0.605,0.491,1.175,0.491c0.485,0,0.836-0.155,1.05-0.465c0.214-0.31,0.32-0.835,0.32-1.578v-2.108h2.384v2.175
			c0,1.335-0.278,2.239-0.836,2.712c-0.558,0.474-1.554,0.71-2.989,0.71c-1.412,0-2.396-0.305-2.954-0.915
			c-0.558-0.61-0.836-1.746-0.836-3.408V8.728c0-1.653,0.279-2.78,0.836-3.382c0.558-0.602,1.542-0.902,2.954-0.902
			c1.447,0,2.447,0.234,2.998,0.703S382.916,6.513,382.916,7.839z"/>
		<path fill="#F2961C" d="M385.87,4.735h2.401v19.563h-2.401V4.735z"/>
		<path fill="#F2961C" d="M400.424,8.728v11.579c0,1.68-0.302,2.82-0.907,3.422c-0.604,0.601-1.684,0.901-3.237,0.901
			c-1.53,0-2.598-0.305-3.203-0.915c-0.605-0.61-0.907-1.746-0.907-3.408V8.728c0-1.645,0.306-2.77,0.916-3.376
			c0.61-0.605,1.687-0.908,3.229-0.908c1.541,0,2.612,0.301,3.212,0.902C400.124,5.947,400.424,7.074,400.424,8.728z M398.057,8.462
			c0-0.99-0.131-1.669-0.391-2.036c-0.261-0.366-0.724-0.55-1.388-0.55c-0.653,0-1.106,0.179-1.361,0.537s-0.382,1.041-0.382,2.049
			v12.109c0,1.017,0.13,1.702,0.391,2.056c0.262,0.354,0.723,0.531,1.389,0.531c0.651,0,1.105-0.178,1.36-0.531
			c0.255-0.354,0.382-1.039,0.382-2.056V8.462z M396.865,0h2.509l-2.331,2.958H395.3L396.865,0z"/>
		<path fill="#F2961C" d="M404.409,4.735h3.096l3.754,18.396h0.036l-0.338-18.396h2.046v19.563h-3.131l-3.719-18.145h-0.071
			l0.32,18.145h-1.993V4.735L404.409,4.735z"/>
		<path fill="#F2961C" d="M422.629,4.735h2.651c2.242,0,3.707,0.263,4.395,0.789c0.688,0.526,1.032,1.73,1.032,3.614v10.756
			c0,1.875-0.35,3.077-1.05,3.607c-0.7,0.531-2.159,0.797-4.377,0.797h-2.651V4.735z M424.889,6.181v16.672h0.729
			c1.091,0,1.812-0.135,2.162-0.404c0.35-0.269,0.524-0.864,0.524-1.784V8.409c0-0.929-0.178-1.532-0.533-1.811
			c-0.356-0.278-1.074-0.418-2.153-0.418L424.889,6.181L424.889,6.181z"/>
		<path fill="#F2961C" d="M434.692,4.735h6.263v1.552h-4.003v7.043h3.825v1.538h-3.825v7.878h4.109v1.553h-6.369V4.735z"/>
		<path fill="#F2961C" d="M452.324,5.372h2.224v18.927h-2.224V7.454c-0.427,0.283-0.854,0.522-1.281,0.716
			c-0.427,0.195-0.866,0.354-1.317,0.478V6.805c0.511-0.186,0.981-0.398,1.415-0.637C451.574,5.929,451.969,5.664,452.324,5.372z"/>
		<path fill="#F2961C" d="M468.284,9.244v11.194c0,1.592-0.276,2.688-0.827,3.29c-0.552,0.601-1.516,0.901-2.891,0.901
			c-1.376,0-2.341-0.296-2.892-0.889c-0.551-0.593-0.827-1.693-0.827-3.303v-1.3h2.261v1.578c0,0.955,0.109,1.614,0.329,1.977
			c0.219,0.363,0.596,0.544,1.13,0.544c0.533,0,0.903-0.159,1.111-0.478c0.207-0.318,0.312-0.999,0.312-2.043v-4.323
			c-0.297,0.222-0.623,0.385-0.979,0.491c-0.355,0.105-0.759,0.158-1.21,0.158c-1.127,0-1.93-0.27-2.411-0.809
			c-0.48-0.539-0.72-1.48-0.72-2.825v-4.19c0-1.627,0.276-2.727,0.827-3.297c0.552-0.57,1.539-0.855,2.963-0.855
			c1.411,0,2.402,0.301,2.971,0.902C468,6.568,468.284,7.662,468.284,9.244z M465.989,8.979c0-0.955-0.11-1.616-0.329-1.983
			c-0.22-0.366-0.608-0.55-1.166-0.55c-0.559,0-0.952,0.186-1.184,0.557c-0.23,0.372-0.347,1.03-0.347,1.977v4.204
			c0,0.964,0.113,1.627,0.338,1.99c0.226,0.362,0.611,0.543,1.156,0.543c0.557,0,0.952-0.186,1.183-0.557
			c0.231-0.371,0.348-1.03,0.348-1.977L465.989,8.979L465.989,8.979z"/>
		<path fill="#F2961C" d="M479.44,9.244v11.194c0,1.592-0.276,2.688-0.827,3.29c-0.553,0.601-1.517,0.901-2.892,0.901
			c-1.376,0-2.34-0.296-2.891-0.889c-0.551-0.593-0.827-1.693-0.827-3.303v-1.3h2.26v1.578c0,0.955,0.11,1.614,0.329,1.977
			c0.22,0.363,0.597,0.544,1.13,0.544c0.534,0,0.904-0.159,1.112-0.478c0.207-0.318,0.312-0.999,0.312-2.043v-4.323
			c-0.298,0.222-0.623,0.385-0.979,0.491c-0.355,0.105-0.759,0.158-1.21,0.158c-1.127,0-1.93-0.27-2.411-0.809
			c-0.48-0.539-0.72-1.48-0.72-2.825v-4.19c0-1.627,0.275-2.727,0.827-3.297c0.552-0.57,1.539-0.855,2.963-0.855
			c1.411,0,2.401,0.301,2.971,0.902C479.156,6.568,479.44,7.662,479.44,9.244z M477.145,8.979c0-0.955-0.109-1.616-0.328-1.983
			c-0.221-0.366-0.608-0.55-1.166-0.55c-0.559,0-0.952,0.186-1.184,0.557c-0.23,0.372-0.347,1.03-0.347,1.977v4.204
			c0,0.964,0.113,1.627,0.338,1.99c0.225,0.362,0.611,0.543,1.156,0.543c0.557,0,0.952-0.186,1.183-0.557
			c0.231-0.371,0.347-1.03,0.347-1.977L477.145,8.979L477.145,8.979z"/>
		<path fill="#F2961C" d="M485.792,5.372h2.224v18.927h-2.224V7.454c-0.427,0.283-0.854,0.522-1.281,0.716
			c-0.427,0.195-0.866,0.354-1.316,0.478V6.805c0.51-0.186,0.98-0.398,1.415-0.637C485.042,5.929,485.438,5.664,485.792,5.372z"/>
	</g>
	<polygon fill="#F2961C" points="0.021,98.926 6.639,130.711 93.153,126.014 98.457,98.926 	"/>
	<g>
		<g>
			<path fill="#331842" d="M20.451,109.768h0.934v7.446h1.685v0.642h-2.619V109.768z"/>
			<path fill="#331842" d="M23.974,109.768h2.589v0.642h-1.655v2.912h1.582v0.636h-1.582v3.257h1.699v0.642h-2.633V109.768z"/>
			<path fill="#331842" d="M27.122,109.768h0.993l0.978,3.685h0.081l0.883-3.685h0.964l-1.486,4.65v3.438h-0.949v-3.438
				L27.122,109.768z"/>
			<path fill="#331842" d="M37.17,111.621v1.327c0,0.26-0.059,0.451-0.177,0.575c-0.118,0.125-0.314,0.207-0.589,0.247
				c0.275,0.036,0.471,0.117,0.589,0.241c0.118,0.124,0.177,0.316,0.177,0.576v1.672c0,0.677-0.114,1.134-0.342,1.374
				c-0.228,0.239-0.636,0.358-1.225,0.358c-0.579,0-0.984-0.123-1.217-0.37c-0.233-0.246-0.349-0.704-0.349-1.373v-0.537h0.934
				v0.663c0,0.388,0.048,0.656,0.144,0.806c0.095,0.15,0.259,0.226,0.489,0.226s0.391-0.074,0.482-0.223
				c0.091-0.147,0.136-0.417,0.136-0.809v-1.711c0-0.237-0.06-0.397-0.18-0.479s-0.362-0.123-0.725-0.123H35.06v-0.598h0.257
				c0.358,0,0.598-0.043,0.721-0.129s0.184-0.248,0.184-0.485v-1.338c0-0.428-0.042-0.708-0.125-0.839
				c-0.083-0.132-0.233-0.197-0.449-0.197c-0.221,0-0.376,0.074-0.467,0.225c-0.091,0.149-0.136,0.42-0.136,0.812v0.504h-0.949
				v-0.395c0-0.654,0.115-1.104,0.346-1.349s0.633-0.367,1.206-0.367c0.564,0,0.959,0.121,1.184,0.364
				C37.057,110.513,37.17,110.963,37.17,111.621z"/>
			<path fill="#331842" d="M41.812,111.621v0.543h-0.949v-0.652c0-0.384-0.045-0.652-0.136-0.807
				c-0.091-0.153-0.246-0.229-0.467-0.229c-0.216,0-0.365,0.062-0.449,0.188s-0.125,0.409-0.125,0.848v1.798
				c0.127-0.095,0.267-0.164,0.419-0.208s0.336-0.065,0.552-0.065c0.437,0,0.748,0.113,0.934,0.34
				c0.187,0.227,0.28,0.612,0.28,1.156v1.728c0,0.677-0.114,1.134-0.342,1.374c-0.228,0.239-0.636,0.358-1.225,0.358
				c-0.579,0-0.985-0.123-1.217-0.37c-0.233-0.246-0.35-0.704-0.35-1.373v-4.628c0-0.665,0.113-1.117,0.338-1.357
				c0.226-0.239,0.62-0.358,1.184-0.358c0.579,0,0.982,0.122,1.21,0.367C41.697,110.519,41.812,110.967,41.812,111.621z
				 M40.936,114.62c0-0.387-0.048-0.657-0.144-0.812c-0.095-0.153-0.259-0.23-0.489-0.23s-0.394,0.077-0.489,0.23
				c-0.095,0.154-0.143,0.425-0.143,0.812v1.755c0,0.388,0.048,0.656,0.143,0.806c0.096,0.15,0.259,0.226,0.489,0.226
				c0.235,0,0.4-0.075,0.493-0.226c0.093-0.149,0.14-0.418,0.14-0.806V114.62z"/>
			<path fill="#331842" d="M44.438,110.031h0.92v7.824h-0.92v-6.964c-0.177,0.117-0.353,0.216-0.53,0.296
				c-0.177,0.081-0.358,0.146-0.544,0.198v-0.763c0.211-0.076,0.406-0.164,0.585-0.263
				C44.127,110.262,44.291,110.151,44.438,110.031z"/>
			<path fill="#331842" d="M50.344,109.768h1.096c0.927,0,1.532,0.109,1.817,0.326c0.284,0.218,0.427,0.716,0.427,1.494v4.447
				c0,0.775-0.145,1.272-0.434,1.491c-0.29,0.22-0.893,0.329-1.81,0.329h-1.096V109.768z M51.278,110.365v6.893h0.302
				c0.451,0,0.749-0.056,0.894-0.167c0.145-0.111,0.217-0.357,0.217-0.737v-5.067c0-0.384-0.073-0.633-0.221-0.748
				c-0.148-0.115-0.444-0.173-0.89-0.173L51.278,110.365L51.278,110.365z"/>
			<path fill="#331842" d="M55.331,109.768h2.589v0.642h-1.655v2.912h1.582v0.636h-1.582v3.257h1.699v0.642h-2.633V109.768z"/>
			<path fill="#331842" d="M62.621,110.031h0.92v7.824h-0.92v-6.964c-0.177,0.117-0.353,0.216-0.53,0.296
				c-0.177,0.081-0.358,0.146-0.544,0.198v-0.763c0.211-0.076,0.406-0.164,0.585-0.263
				C62.311,110.262,62.474,110.151,62.621,110.031z"/>
			<path fill="#331842" d="M69.219,111.632v4.628c0,0.658-0.114,1.111-0.342,1.36c-0.228,0.248-0.626,0.372-1.195,0.372
				c-0.569,0-0.967-0.122-1.195-0.367s-0.342-0.7-0.342-1.365v-0.537h0.934v0.652c0,0.395,0.045,0.667,0.136,0.817
				c0.091,0.149,0.246,0.225,0.467,0.225c0.221,0,0.374-0.066,0.46-0.197c0.086-0.132,0.129-0.413,0.129-0.845v-1.787
				c-0.123,0.091-0.258,0.158-0.405,0.202c-0.147,0.044-0.314,0.066-0.5,0.066c-0.466,0-0.798-0.111-0.997-0.335
				c-0.198-0.223-0.298-0.612-0.298-1.168v-1.732c0-0.673,0.114-1.127,0.342-1.362c0.228-0.236,0.636-0.354,1.225-0.354
				c0.583,0,0.993,0.124,1.228,0.372C69.101,110.526,69.219,110.978,69.219,111.632z M68.27,111.522
				c0-0.395-0.045-0.668-0.136-0.819c-0.091-0.152-0.251-0.228-0.482-0.228s-0.394,0.076-0.489,0.229
				c-0.095,0.154-0.143,0.426-0.143,0.817v1.738c0,0.398,0.046,0.673,0.14,0.822c0.093,0.15,0.252,0.225,0.478,0.225
				c0.23,0,0.393-0.076,0.489-0.23c0.096-0.153,0.144-0.426,0.144-0.816L68.27,111.522L68.27,111.522z"/>
			<path fill="#331842" d="M73.831,111.632v4.628c0,0.658-0.114,1.111-0.342,1.36c-0.228,0.248-0.626,0.372-1.195,0.372
				s-0.967-0.122-1.195-0.367s-0.342-0.7-0.342-1.365v-0.537h0.934v0.652c0,0.395,0.045,0.667,0.136,0.817
				c0.091,0.149,0.246,0.225,0.467,0.225c0.221,0,0.374-0.066,0.46-0.197c0.086-0.132,0.129-0.413,0.129-0.845v-1.787
				c-0.123,0.091-0.258,0.158-0.405,0.202s-0.314,0.066-0.5,0.066c-0.466,0-0.798-0.111-0.997-0.335
				c-0.198-0.223-0.298-0.612-0.298-1.168v-1.732c0-0.673,0.114-1.127,0.342-1.362c0.228-0.236,0.636-0.354,1.225-0.354
				c0.583,0,0.993,0.124,1.228,0.372C73.713,110.526,73.831,110.978,73.831,111.632z M72.882,111.522
				c0-0.395-0.045-0.668-0.136-0.819c-0.091-0.152-0.251-0.228-0.482-0.228s-0.394,0.076-0.489,0.229
				c-0.095,0.154-0.143,0.426-0.143,0.817v1.738c0,0.398,0.046,0.673,0.14,0.822c0.093,0.15,0.252,0.225,0.478,0.225
				c0.23,0,0.393-0.076,0.489-0.23c0.096-0.153,0.144-0.426,0.144-0.816L72.882,111.522L72.882,111.522z"/>
			<path fill="#331842" d="M75.037,110.031h3.244v0.839l-1.522,6.985h-0.964l1.64-7.232h-2.398V110.031z"/>
		</g>
	</g>
	<polygon fill="#F2961C" points="0.021,135.48 6.639,167.264 93.153,162.57 98.457,135.48 	"/>
	<g>
		<g>
			<path fill="#331842" d="M16.994,145.822h0.934v7.446h1.685v0.642h-2.619V145.822z"/>
			<path fill="#331842" d="M20.517,145.822h2.589v0.642h-1.655v2.912h1.582v0.636h-1.582v3.257h1.699v0.642h-2.633V145.822z"/>
			<path fill="#331842" d="M23.665,145.822h0.993l0.978,3.685h0.081l0.883-3.685h0.964l-1.486,4.65v3.438h-0.949v-3.438
				L23.665,145.822z"/>
			<path fill="#331842" d="M31.756,146.086h0.92v7.824h-0.92v-6.964c-0.177,0.117-0.353,0.216-0.53,0.296
				c-0.177,0.081-0.358,0.146-0.544,0.198v-0.763c0.211-0.076,0.406-0.164,0.585-0.263
				C31.446,146.316,31.609,146.206,31.756,146.086z"/>
			<path fill="#331842" d="M38.384,147.676v4.639c0,0.677-0.114,1.134-0.342,1.374c-0.228,0.239-0.636,0.358-1.225,0.358
				c-0.579,0-0.984-0.123-1.217-0.37c-0.233-0.246-0.349-0.704-0.349-1.373v-4.628c0-0.661,0.115-1.113,0.346-1.354
				c0.231-0.241,0.637-0.361,1.221-0.361c0.579,0,0.984,0.122,1.218,0.367C38.267,146.572,38.384,147.021,38.384,147.676z
				 M37.435,147.566c0-0.396-0.045-0.666-0.136-0.814c-0.091-0.148-0.251-0.222-0.482-0.222s-0.394,0.075-0.489,0.228
				c-0.096,0.151-0.144,0.421-0.144,0.809v4.863c0,0.388,0.048,0.656,0.144,0.806c0.095,0.15,0.259,0.226,0.489,0.226
				s0.391-0.074,0.482-0.223c0.091-0.147,0.136-0.417,0.136-0.809V147.566z"/>
			<path fill="#331842" d="M42.967,147.687v4.628c0,0.658-0.114,1.111-0.342,1.36c-0.228,0.248-0.626,0.372-1.195,0.372
				c-0.569,0-0.967-0.122-1.195-0.367c-0.228-0.245-0.342-0.7-0.342-1.365v-0.537h0.934v0.652c0,0.395,0.045,0.667,0.136,0.817
				c0.091,0.149,0.246,0.225,0.467,0.225c0.221,0,0.374-0.066,0.46-0.197c0.086-0.132,0.129-0.413,0.129-0.845v-1.787
				c-0.123,0.091-0.258,0.158-0.405,0.202c-0.147,0.044-0.314,0.066-0.5,0.066c-0.466,0-0.798-0.111-0.997-0.335
				c-0.198-0.223-0.298-0.612-0.298-1.168v-1.732c0-0.673,0.114-1.127,0.342-1.362c0.228-0.236,0.636-0.354,1.225-0.354
				c0.583,0,0.993,0.124,1.228,0.372C42.849,146.581,42.967,147.032,42.967,147.687z M42.018,147.577
				c0-0.395-0.045-0.668-0.136-0.819c-0.091-0.152-0.251-0.228-0.482-0.228s-0.394,0.076-0.489,0.229
				c-0.095,0.154-0.143,0.426-0.143,0.817v1.738c0,0.398,0.046,0.673,0.14,0.822c0.093,0.15,0.252,0.225,0.478,0.225
				c0.23,0,0.393-0.076,0.489-0.23c0.096-0.153,0.144-0.426,0.144-0.816L42.018,147.577L42.018,147.577z"/>
			<path fill="#331842" d="M45.424,149.836c-0.353-0.08-0.6-0.197-0.739-0.351c-0.14-0.153-0.21-0.422-0.21-0.806v-1.004
				c0-0.661,0.115-1.113,0.346-1.354c0.231-0.241,0.637-0.361,1.221-0.361c0.579,0,0.984,0.122,1.218,0.367
				c0.233,0.245,0.349,0.694,0.349,1.349v1.004c0,0.372-0.07,0.639-0.21,0.797c-0.14,0.159-0.391,0.279-0.754,0.359
				c0.363,0.084,0.614,0.206,0.754,0.365c0.14,0.158,0.21,0.423,0.21,0.792v1.321c0,0.677-0.114,1.134-0.342,1.374
				c-0.228,0.239-0.636,0.358-1.225,0.358c-0.579,0-0.984-0.123-1.217-0.37c-0.233-0.246-0.349-0.704-0.349-1.373v-1.311
				c0-0.384,0.069-0.652,0.206-0.806C44.818,150.033,45.065,149.917,45.424,149.836z M45.409,147.407v1.261
				c0,0.34,0.045,0.57,0.136,0.691c0.091,0.12,0.251,0.181,0.482,0.181s0.394-0.064,0.489-0.194c0.095-0.13,0.143-0.355,0.143-0.678
				v-1.261c0-0.329-0.045-0.558-0.136-0.686c-0.091-0.128-0.251-0.191-0.482-0.191s-0.394,0.062-0.489,0.188
				C45.457,146.845,45.409,147.074,45.409,147.407z M45.409,150.993v1.59c0,0.344,0.045,0.576,0.136,0.696
				c0.091,0.121,0.251,0.182,0.482,0.182s0.394-0.065,0.489-0.195c0.095-0.13,0.143-0.357,0.143-0.683v-1.59
				c0-0.329-0.045-0.558-0.136-0.686s-0.251-0.191-0.482-0.191s-0.394,0.062-0.489,0.186
				C45.457,150.427,45.409,150.657,45.409,150.993z"/>
			<path fill="#331842" d="M51.499,145.822h1.096c0.927,0,1.532,0.109,1.817,0.326c0.284,0.218,0.427,0.716,0.427,1.494v4.447
				c0,0.775-0.145,1.272-0.434,1.491c-0.29,0.22-0.893,0.329-1.81,0.329h-1.096V145.822z M52.433,146.42v6.893h0.302
				c0.451,0,0.749-0.056,0.894-0.167s0.217-0.357,0.217-0.737v-5.067c0-0.384-0.073-0.633-0.221-0.748
				c-0.148-0.115-0.444-0.173-0.89-0.173L52.433,146.42L52.433,146.42z"/>
			<path fill="#331842" d="M56.486,145.822h2.589v0.642H57.42v2.912h1.582v0.636H57.42v3.257h1.699v0.642h-2.633V145.822z"/>
			<path fill="#331842" d="M65.777,147.5v0.516c0,0.139-0.03,0.309-0.088,0.51c-0.058,0.201-0.145,0.417-0.258,0.647l-2.03,4.14
				h2.332v0.598H62.57v-0.795l1.854-3.795l0.022-0.049c0.265-0.516,0.397-0.952,0.397-1.311v-0.499c0-0.336-0.048-0.576-0.143-0.719
				c-0.096-0.142-0.254-0.213-0.475-0.213c-0.23,0-0.394,0.075-0.489,0.228c-0.096,0.151-0.144,0.421-0.144,0.809v0.526h-0.949
				v-0.417c0-0.658,0.118-1.108,0.353-1.352c0.235-0.244,0.645-0.364,1.228-0.364c0.559,0,0.958,0.116,1.195,0.351
				C65.656,146.546,65.777,146.941,65.777,147.5z"/>
			<path fill="#331842" d="M70.403,147.676v4.639c0,0.677-0.114,1.134-0.342,1.374c-0.228,0.239-0.636,0.358-1.225,0.358
				c-0.579,0-0.984-0.123-1.217-0.37c-0.233-0.246-0.349-0.704-0.349-1.373v-4.628c0-0.661,0.115-1.113,0.346-1.354
				c0.231-0.241,0.637-0.361,1.221-0.361c0.579,0,0.984,0.122,1.218,0.367C70.287,146.572,70.403,147.021,70.403,147.676z
				 M69.454,147.566c0-0.396-0.045-0.666-0.136-0.814c-0.091-0.148-0.251-0.222-0.482-0.222s-0.394,0.075-0.489,0.228
				c-0.096,0.151-0.144,0.421-0.144,0.809v4.863c0,0.388,0.048,0.656,0.144,0.806c0.095,0.15,0.259,0.226,0.489,0.226
				s0.391-0.074,0.482-0.223c0.091-0.147,0.136-0.417,0.136-0.809V147.566z"/>
			<path fill="#331842" d="M75.015,147.676v4.639c0,0.677-0.114,1.134-0.342,1.374c-0.228,0.239-0.636,0.358-1.225,0.358
				c-0.579,0-0.984-0.123-1.217-0.37c-0.233-0.246-0.349-0.704-0.349-1.373v-4.628c0-0.661,0.115-1.113,0.346-1.354
				c0.231-0.241,0.637-0.361,1.221-0.361c0.579,0,0.984,0.122,1.218,0.367C74.899,146.572,75.015,147.021,75.015,147.676z
				 M74.066,147.566c0-0.396-0.045-0.666-0.136-0.814c-0.091-0.148-0.251-0.222-0.482-0.222c-0.231,0-0.394,0.075-0.489,0.228
				c-0.096,0.151-0.144,0.421-0.144,0.809v4.863c0,0.388,0.048,0.656,0.144,0.806c0.095,0.15,0.259,0.226,0.489,0.226
				c0.23,0,0.391-0.074,0.482-0.223c0.091-0.147,0.136-0.417,0.136-0.809V147.566z"/>
			<path fill="#331842" d="M79.598,147.676v0.543h-0.949v-0.652c0-0.384-0.045-0.652-0.136-0.807
				c-0.091-0.153-0.246-0.229-0.467-0.229c-0.216,0-0.365,0.062-0.449,0.188c-0.084,0.126-0.125,0.409-0.125,0.848v1.798
				c0.127-0.095,0.267-0.164,0.419-0.208c0.152-0.044,0.336-0.065,0.552-0.065c0.437,0,0.748,0.113,0.934,0.34
				c0.187,0.227,0.28,0.612,0.28,1.156v1.728c0,0.677-0.114,1.134-0.342,1.374c-0.228,0.239-0.636,0.358-1.225,0.358
				c-0.579,0-0.985-0.123-1.217-0.37c-0.233-0.246-0.35-0.704-0.35-1.373v-4.628c0-0.665,0.113-1.117,0.338-1.357
				c0.226-0.239,0.62-0.358,1.184-0.358c0.579,0,0.982,0.122,1.21,0.367S79.598,147.021,79.598,147.676z M78.723,150.675
				c0-0.387-0.048-0.657-0.144-0.812c-0.095-0.153-0.259-0.23-0.489-0.23s-0.394,0.077-0.489,0.23
				c-0.095,0.154-0.143,0.425-0.143,0.812v1.755c0,0.388,0.048,0.656,0.143,0.806c0.096,0.15,0.259,0.226,0.489,0.226
				c0.235,0,0.4-0.075,0.493-0.226c0.093-0.149,0.14-0.418,0.14-0.806V150.675z"/>
		</g>
	</g>
	<polygon fill="#F2961C" points="0.021,172.035 6.639,203.818 93.153,199.125 98.457,172.035 	"/>
	<g>
		<g>
			<path fill="#331842" d="M18.145,182.376h0.934v7.446h1.685v0.642h-2.619V182.376z"/>
			<path fill="#331842" d="M21.668,182.376h2.589v0.642h-1.655v2.912h1.582v0.637h-1.582v3.257h1.699v0.642h-2.633V182.376z"/>
			<path fill="#331842" d="M24.816,182.376h0.993l0.978,3.685h0.081l0.883-3.685h0.964l-1.486,4.649v3.438H26.28v-3.438
				L24.816,182.376z"/>
			<path fill="#331842" d="M32.907,182.641h0.92v7.823h-0.92V183.5c-0.177,0.117-0.353,0.216-0.53,0.296
				c-0.177,0.081-0.358,0.146-0.544,0.198v-0.764c0.211-0.076,0.406-0.164,0.585-0.263C32.597,182.87,32.76,182.76,32.907,182.641z"
				/>
			<path fill="#331842" d="M37.52,182.641h0.92v7.823h-0.92V183.5c-0.177,0.117-0.353,0.216-0.53,0.296
				c-0.177,0.081-0.358,0.146-0.544,0.198v-0.764c0.211-0.076,0.406-0.164,0.585-0.263C37.209,182.87,37.373,182.76,37.52,182.641z"
				/>
			<path fill="#331842" d="M42.279,182.641h1.317v5.197h0.794v0.548h-0.794v2.078H42.72v-2.078h-1.957v-0.696L42.279,182.641z
				 M42.75,183.177l-1.221,4.661h1.192l0.118-4.661H42.75z"/>
			<path fill="#331842" d="M45.67,182.641h3.001v0.592h-2.096v2.627c0.152-0.11,0.305-0.189,0.46-0.239
				c0.154-0.05,0.334-0.073,0.541-0.073c0.422,0,0.722,0.088,0.901,0.266c0.179,0.178,0.269,0.481,0.269,0.914v2.144
				c0,0.677-0.114,1.134-0.342,1.374c-0.228,0.238-0.636,0.357-1.225,0.357c-0.583,0-0.993-0.123-1.228-0.371
				c-0.236-0.25-0.353-0.707-0.353-1.371v-0.537h0.949v0.662c0,0.393,0.047,0.662,0.14,0.81s0.253,0.224,0.478,0.224
				c0.23,0,0.394-0.076,0.489-0.227c0.096-0.148,0.144-0.418,0.144-0.807v-2.1c0-0.304-0.045-0.517-0.136-0.64
				c-0.091-0.122-0.247-0.185-0.467-0.185c-0.226,0-0.385,0.062-0.478,0.183c-0.093,0.12-0.14,0.334-0.14,0.642v0.143H45.67V182.641
				z"/>
			<path fill="#331842" d="M52.65,182.376h1.096c0.927,0,1.532,0.108,1.817,0.326c0.284,0.218,0.427,0.716,0.427,1.493v4.447
				c0,0.775-0.145,1.272-0.434,1.491c-0.29,0.22-0.893,0.329-1.81,0.329H52.65V182.376z M53.584,182.975v6.893h0.302
				c0.451,0,0.749-0.057,0.894-0.167c0.145-0.111,0.217-0.357,0.217-0.737v-5.066c0-0.385-0.073-0.633-0.221-0.748
				s-0.444-0.174-0.89-0.174H53.584L53.584,182.975z"/>
			<path fill="#331842" d="M57.637,182.376h2.589v0.642h-1.655v2.912h1.582v0.637h-1.582v3.257h1.699v0.642h-2.633V182.376z"/>
			<path fill="#331842" d="M66.928,184.055v0.516c0,0.139-0.03,0.309-0.088,0.51c-0.058,0.201-0.145,0.417-0.258,0.646l-2.03,4.141
				h2.332v0.598H63.72v-0.795l1.854-3.795l0.022-0.049c0.265-0.516,0.397-0.952,0.397-1.311v-0.5c0-0.336-0.048-0.576-0.143-0.719
				c-0.096-0.142-0.254-0.213-0.475-0.213c-0.23,0-0.394,0.075-0.489,0.229c-0.096,0.15-0.144,0.42-0.144,0.809v0.525h-0.949v-0.416
				c0-0.658,0.118-1.108,0.353-1.353s0.645-0.364,1.228-0.364c0.559,0,0.958,0.116,1.195,0.352
				C66.806,183.1,66.928,183.495,66.928,184.055z"/>
			<path fill="#331842" d="M71.554,184.229v4.64c0,0.677-0.114,1.134-0.342,1.374c-0.228,0.238-0.636,0.357-1.225,0.357
				c-0.579,0-0.984-0.123-1.217-0.369s-0.349-0.705-0.349-1.373v-4.629c0-0.66,0.115-1.112,0.346-1.354s0.637-0.361,1.221-0.361
				c0.579,0,0.984,0.122,1.218,0.367C71.438,183.126,71.554,183.575,71.554,184.229z M70.605,184.12
				c0-0.396-0.045-0.666-0.136-0.813c-0.091-0.148-0.251-0.223-0.482-0.223s-0.394,0.075-0.489,0.229
				c-0.096,0.15-0.144,0.42-0.144,0.809v4.863c0,0.388,0.048,0.656,0.144,0.806c0.095,0.149,0.259,0.226,0.489,0.226
				s0.391-0.074,0.482-0.223c0.091-0.146,0.136-0.417,0.136-0.809V184.12z"/>
			<path fill="#331842" d="M76.167,184.229v4.64c0,0.677-0.114,1.134-0.342,1.374c-0.228,0.238-0.636,0.357-1.225,0.357
				c-0.579,0-0.984-0.123-1.217-0.369c-0.233-0.246-0.349-0.705-0.349-1.373v-4.629c0-0.66,0.115-1.112,0.346-1.354
				s0.637-0.361,1.221-0.361c0.579,0,0.984,0.122,1.218,0.367C76.05,183.126,76.167,183.575,76.167,184.229z M75.218,184.12
				c0-0.396-0.045-0.666-0.136-0.813c-0.091-0.148-0.251-0.223-0.482-0.223s-0.394,0.075-0.489,0.229
				c-0.096,0.15-0.144,0.42-0.144,0.809v4.863c0,0.388,0.048,0.656,0.144,0.806c0.095,0.149,0.259,0.226,0.489,0.226
				s0.391-0.074,0.482-0.223c0.091-0.146,0.136-0.417,0.136-0.809V184.12z"/>
			<path fill="#331842" d="M77.344,182.641h3.244v0.838l-1.522,6.985h-0.964l1.64-7.231h-2.398V182.641z"/>
		</g>
	</g>
	<polygon fill="#F2961C" points="0.021,208.59 6.639,240.375 93.153,235.68 98.457,208.59 	"/>
	<g>
		<g>
			<path fill="#331842" d="M18.145,220.432h0.934v7.446h1.685v0.642h-2.619V220.432z"/>
			<path fill="#331842" d="M21.668,220.432h2.589v0.643h-1.655v2.912h1.582v0.636h-1.582v3.257h1.699v0.643h-2.633V220.432z"/>
			<path fill="#331842" d="M24.816,220.432h0.993l0.978,3.686h0.081l0.883-3.686h0.964l-1.486,4.65v3.438H26.28v-3.438
				L24.816,220.432z"/>
			<path fill="#331842" d="M32.907,220.695h0.92v7.824h-0.92v-6.965c-0.177,0.117-0.353,0.217-0.53,0.297
				c-0.177,0.08-0.358,0.146-0.544,0.197v-0.763c0.211-0.076,0.406-0.164,0.585-0.263C32.597,220.926,32.76,220.814,32.907,220.695z
				"/>
			<path fill="#331842" d="M39.476,222.285v1.326c0,0.261-0.059,0.451-0.177,0.576c-0.118,0.125-0.314,0.207-0.589,0.246
				c0.275,0.036,0.471,0.117,0.589,0.241c0.118,0.124,0.177,0.316,0.177,0.576v1.672c0,0.677-0.114,1.134-0.342,1.374
				c-0.228,0.239-0.636,0.357-1.225,0.357c-0.579,0-0.984-0.122-1.217-0.369c-0.233-0.246-0.349-0.704-0.349-1.373v-0.537h0.934
				v0.663c0,0.388,0.048,0.655,0.144,0.806c0.095,0.15,0.259,0.227,0.489,0.227s0.391-0.074,0.482-0.223
				c0.091-0.147,0.136-0.418,0.136-0.81v-1.711c0-0.237-0.06-0.397-0.18-0.479c-0.12-0.082-0.362-0.123-0.725-0.123h-0.257v-0.598
				h0.257c0.358,0,0.598-0.043,0.721-0.129c0.123-0.086,0.184-0.248,0.184-0.485v-1.338c0-0.428-0.042-0.708-0.125-0.839
				c-0.083-0.132-0.233-0.197-0.449-0.197c-0.221,0-0.376,0.074-0.467,0.225c-0.091,0.149-0.136,0.421-0.136,0.812v0.504h-0.949
				v-0.395c0-0.654,0.115-1.104,0.346-1.35c0.231-0.244,0.633-0.367,1.206-0.367c0.564,0,0.959,0.121,1.184,0.365
				C39.363,221.177,39.476,221.627,39.476,222.285z"/>
			<path fill="#331842" d="M42.279,220.695h1.317v5.197h0.794v0.549h-0.794v2.078H42.72v-2.078h-1.957v-0.696L42.279,220.695z
				 M42.75,221.232l-1.221,4.66h1.192l0.118-4.66H42.75z"/>
			<path fill="#331842" d="M48.73,222.285v0.543h-0.949v-0.652c0-0.384-0.045-0.652-0.136-0.807
				c-0.091-0.153-0.246-0.229-0.467-0.229c-0.216,0-0.365,0.062-0.449,0.188s-0.125,0.408-0.125,0.848v1.799
				c0.127-0.096,0.267-0.164,0.419-0.209c0.152-0.043,0.336-0.064,0.552-0.064c0.437,0,0.748,0.113,0.934,0.34
				c0.187,0.227,0.28,0.611,0.28,1.156v1.728c0,0.677-0.114,1.134-0.342,1.374c-0.228,0.239-0.636,0.358-1.225,0.358
				c-0.579,0-0.985-0.123-1.217-0.37c-0.233-0.246-0.35-0.704-0.35-1.373v-4.628c0-0.665,0.113-1.117,0.338-1.356
				c0.226-0.24,0.62-0.359,1.184-0.359c0.579,0,0.982,0.123,1.21,0.367C48.615,221.184,48.73,221.631,48.73,222.285z
				 M47.854,225.284c0-0.388-0.048-0.657-0.144-0.812c-0.095-0.154-0.259-0.23-0.489-0.23s-0.394,0.076-0.489,0.23
				c-0.095,0.153-0.143,0.424-0.143,0.812v1.755c0,0.388,0.048,0.656,0.143,0.807c0.096,0.149,0.259,0.225,0.489,0.225
				c0.235,0,0.4-0.074,0.493-0.225c0.093-0.15,0.14-0.419,0.14-0.807V225.284z"/>
			<path fill="#331842" d="M52.65,220.432h1.096c0.927,0,1.532,0.109,1.817,0.326c0.284,0.219,0.427,0.717,0.427,1.494v4.447
				c0,0.775-0.145,1.271-0.434,1.49c-0.29,0.221-0.893,0.33-1.81,0.33H52.65V220.432z M53.584,221.029v6.893h0.302
				c0.451,0,0.749-0.056,0.894-0.167c0.145-0.11,0.217-0.356,0.217-0.737v-5.066c0-0.385-0.073-0.633-0.221-0.748
				s-0.444-0.174-0.89-0.174H53.584L53.584,221.029z"/>
			<path fill="#331842" d="M57.637,220.432h2.589v0.643h-1.655v2.912h1.582v0.636h-1.582v3.257h1.699v0.643h-2.633V220.432z"/>
			<path fill="#331842" d="M66.928,222.109v0.516c0,0.139-0.03,0.309-0.088,0.51c-0.058,0.201-0.145,0.417-0.258,0.647l-2.03,4.14
				h2.332v0.598H63.72v-0.795l1.854-3.795l0.022-0.049c0.265-0.516,0.397-0.951,0.397-1.311v-0.5c0-0.336-0.048-0.575-0.143-0.719
				c-0.096-0.142-0.254-0.213-0.475-0.213c-0.23,0-0.394,0.075-0.489,0.229c-0.096,0.15-0.144,0.421-0.144,0.809v0.526h-0.949
				v-0.417c0-0.658,0.118-1.108,0.353-1.352c0.235-0.244,0.645-0.365,1.228-0.365c0.559,0,0.958,0.117,1.195,0.352
				C66.806,221.155,66.928,221.551,66.928,222.109z"/>
			<path fill="#331842" d="M71.554,222.285v4.639c0,0.678-0.114,1.135-0.342,1.374s-0.636,0.358-1.225,0.358
				c-0.579,0-0.984-0.123-1.217-0.37c-0.233-0.246-0.349-0.704-0.349-1.373v-4.628c0-0.661,0.115-1.113,0.346-1.354
				c0.231-0.242,0.637-0.361,1.221-0.361c0.579,0,0.984,0.121,1.218,0.367C71.438,221.182,71.554,221.631,71.554,222.285z
				 M70.605,222.176c0-0.396-0.045-0.666-0.136-0.814c-0.091-0.147-0.251-0.221-0.482-0.221s-0.394,0.074-0.489,0.228
				c-0.096,0.151-0.144,0.421-0.144,0.809v4.863c0,0.388,0.048,0.655,0.144,0.806c0.095,0.15,0.259,0.227,0.489,0.227
				s0.391-0.074,0.482-0.223c0.091-0.147,0.136-0.418,0.136-0.81V222.176z"/>
			<path fill="#331842" d="M76.167,222.285v4.639c0,0.678-0.114,1.135-0.342,1.374s-0.636,0.358-1.225,0.358
				c-0.579,0-0.984-0.123-1.217-0.37c-0.233-0.246-0.349-0.704-0.349-1.373v-4.628c0-0.661,0.115-1.113,0.346-1.354
				c0.231-0.242,0.637-0.361,1.221-0.361c0.579,0,0.984,0.121,1.218,0.367C76.05,221.182,76.167,221.631,76.167,222.285z
				 M75.218,222.176c0-0.396-0.045-0.666-0.136-0.814c-0.091-0.147-0.251-0.221-0.482-0.221s-0.394,0.074-0.489,0.228
				c-0.096,0.151-0.144,0.421-0.144,0.809v4.863c0,0.388,0.048,0.655,0.144,0.806c0.095,0.15,0.259,0.227,0.489,0.227
				s0.391-0.074,0.482-0.223c0.091-0.147,0.136-0.418,0.136-0.81V222.176z"/>
			<path fill="#331842" d="M80.749,222.296v4.628c0,0.658-0.114,1.111-0.342,1.36c-0.228,0.248-0.626,0.372-1.195,0.372
				s-0.967-0.122-1.195-0.367s-0.342-0.7-0.342-1.365v-0.537h0.934v0.652c0,0.395,0.045,0.667,0.136,0.816
				c0.091,0.149,0.246,0.226,0.467,0.226c0.221,0,0.374-0.065,0.46-0.197s0.129-0.413,0.129-0.845v-1.787
				c-0.123,0.091-0.258,0.158-0.405,0.202s-0.314,0.065-0.5,0.065c-0.466,0-0.798-0.11-0.997-0.334
				c-0.198-0.224-0.298-0.613-0.298-1.168v-1.732c0-0.674,0.114-1.127,0.342-1.362s0.636-0.354,1.225-0.354
				c0.583,0,0.993,0.125,1.228,0.373S80.749,221.643,80.749,222.296z M79.8,222.188c0-0.396-0.045-0.668-0.136-0.819
				c-0.091-0.152-0.251-0.228-0.482-0.228s-0.394,0.075-0.489,0.229c-0.095,0.154-0.143,0.426-0.143,0.816v1.738
				c0,0.398,0.046,0.674,0.14,0.822c0.093,0.15,0.252,0.225,0.478,0.225c0.23,0,0.393-0.076,0.489-0.229
				c0.096-0.153,0.144-0.427,0.144-0.816L79.8,222.188L79.8,222.188z"/>
		</g>
	</g>
	<polygon fill="#F2961C" points="0.021,245.145 6.639,276.93 93.153,272.234 98.457,245.145 	"/>
	<g>
		<g>
			<path fill="#331842" d="M20.734,250.486h0.934v7.447h1.685v0.642h-2.619V250.486z"/>
			<path fill="#331842" d="M24.257,250.486h2.589v0.643h-1.655v2.912h1.582v0.636h-1.582v3.257h1.699v0.643h-2.633V250.486z"/>
			<path fill="#331842" d="M27.406,250.486h0.993l0.978,3.686h0.081l0.883-3.686h0.964l-1.486,4.65v3.438H28.87v-3.438
				L27.406,250.486z"/>
			<path fill="#331842" d="M34.489,250.486h2.589v0.643h-1.655v2.912h1.582v0.636h-1.582v3.257h1.699v0.643h-2.633V250.486z"/>
			<path fill="#331842" d="M41.3,251.771v0.772h-0.978v-0.751c0-0.318-0.044-0.537-0.132-0.654c-0.088-0.119-0.245-0.18-0.471-0.18
				c-0.216,0-0.368,0.066-0.456,0.2c-0.088,0.134-0.133,0.37-0.133,0.71v0.395c0,0.166,0.031,0.334,0.092,0.508
				s0.151,0.338,0.269,0.49l1.221,1.606c0.206,0.271,0.355,0.526,0.449,0.766c0.093,0.239,0.14,0.487,0.14,0.742v0.549
				c0,0.702-0.119,1.175-0.357,1.421c-0.238,0.244-0.661,0.366-1.269,0.366c-0.594,0-1.007-0.099-1.24-0.296
				s-0.349-0.57-0.349-1.118v-0.899h0.986v0.873c0,0.328,0.044,0.552,0.133,0.668c0.088,0.117,0.25,0.176,0.485,0.176
				c0.24,0,0.406-0.066,0.497-0.2c0.091-0.133,0.136-0.427,0.136-0.88v-0.559c0-0.209-0.026-0.398-0.077-0.568
				c-0.051-0.17-0.126-0.324-0.224-0.463l-1.295-1.723c-0.181-0.229-0.32-0.449-0.416-0.658c-0.096-0.207-0.143-0.389-0.143-0.543
				v-0.472c0-0.628,0.116-1.065,0.349-1.312c0.233-0.247,0.634-0.37,1.203-0.37c0.598,0,1.011,0.097,1.239,0.29
				C41.186,250.852,41.3,251.223,41.3,251.771z"/>
			<path fill="#331842" d="M41.896,250.486h3.185v0.643h-1.118v7.446h-0.949v-7.446h-1.118V250.486z"/>
			<path fill="#331842" d="M46.979,250.486h1.368l1.567,8.089h-1.008l-0.375-2.248h-1.78l-0.405,2.248H45.36L46.979,250.486z
				 M47.626,251.085l-0.787,4.649h1.567l-0.736-4.649H47.626z"/>
			<path fill="#331842" d="M49.789,250.486h3.185v0.643h-1.118v7.446h-0.949v-7.446h-1.118V250.486z"/>
			<path fill="#331842" d="M53.908,250.486h0.978v6.548c0,0.421,0.054,0.704,0.162,0.851s0.299,0.219,0.574,0.219
				c0.27,0,0.457-0.072,0.563-0.219c0.105-0.146,0.158-0.43,0.158-0.851v-6.548h0.978v6.438c0,0.694-0.125,1.166-0.375,1.415
				c-0.25,0.248-0.696,0.372-1.339,0.372c-0.633,0-1.074-0.126-1.324-0.378s-0.375-0.723-0.375-1.409V250.486z"/>
			<path fill="#331842" d="M58.255,250.486h3.185v0.643h-1.118v7.446h-0.949v-7.446h-1.118V250.486z"/>
			<path fill="#331842" d="M63.338,250.486h1.368l1.567,8.089h-1.008l-0.375-2.248h-1.78l-0.405,2.248h-0.986L63.338,250.486z
				 M63.985,251.085l-0.787,4.649h1.567l-0.736-4.649H63.985z"/>
			<path fill="#331842" d="M67.266,250.486h1.427c0.736,0,1.233,0.078,1.493,0.23c0.26,0.153,0.39,0.43,0.39,0.828v1.831
				c0,0.337-0.086,0.574-0.258,0.713c-0.172,0.14-0.476,0.224-0.912,0.252c0.466,0.022,0.79,0.103,0.971,0.241
				c0.181,0.141,0.272,0.381,0.272,0.725v3.269h-0.993v-3.021c0-0.381-0.073-0.628-0.217-0.74c-0.145-0.113-0.443-0.17-0.894-0.17
				H68.2v3.932h-0.934V250.486z M68.2,251.085v2.956h0.331c0.427,0,0.711-0.057,0.853-0.168c0.142-0.111,0.213-0.357,0.213-0.742
				v-1.125c0-0.387-0.071-0.638-0.213-0.751c-0.142-0.112-0.427-0.17-0.853-0.17H68.2L68.2,251.085z"/>
			<path fill="#331842" d="M72.282,250.486h0.993v8.089h-0.993V250.486z"/>
			<path fill="#331842" d="M75.85,250.486h1.368l1.567,8.089h-1.008l-0.375-2.248h-1.78l-0.405,2.248h-0.986L75.85,250.486z
				 M76.497,251.085l-0.787,4.649h1.567l-0.736-4.649H76.497z"/>
			<path fill="#331842" d="M26.03,261.045h0.92v7.824h-0.92v-6.964c-0.177,0.116-0.353,0.216-0.53,0.296
				c-0.177,0.081-0.358,0.146-0.544,0.197v-0.762c0.211-0.076,0.406-0.164,0.585-0.264C25.72,261.275,25.883,261.165,26.03,261.045z
				"/>
			<path fill="#331842" d="M32.628,262.635v0.543h-0.949v-0.652c0-0.383-0.045-0.651-0.136-0.807
				c-0.091-0.152-0.246-0.229-0.467-0.229c-0.216,0-0.365,0.062-0.449,0.188s-0.125,0.409-0.125,0.848v1.799
				c0.127-0.096,0.267-0.164,0.419-0.208c0.152-0.044,0.336-0.065,0.552-0.065c0.437,0,0.748,0.113,0.934,0.34
				c0.187,0.228,0.28,0.612,0.28,1.156v1.729c0,0.677-0.114,1.134-0.342,1.373c-0.228,0.24-0.636,0.358-1.225,0.358
				c-0.579,0-0.985-0.123-1.217-0.37c-0.233-0.246-0.35-0.703-0.35-1.373v-4.628c0-0.665,0.113-1.116,0.338-1.356
				c0.226-0.239,0.62-0.358,1.184-0.358c0.579,0,0.982,0.122,1.21,0.367S32.628,261.98,32.628,262.635z M31.753,265.634
				c0-0.387-0.048-0.657-0.144-0.812c-0.095-0.153-0.259-0.23-0.489-0.23s-0.394,0.077-0.489,0.23
				c-0.095,0.154-0.143,0.425-0.143,0.812v1.755c0,0.389,0.048,0.656,0.143,0.807c0.096,0.15,0.259,0.226,0.489,0.226
				c0.235,0,0.4-0.075,0.493-0.226c0.093-0.149,0.14-0.418,0.14-0.807V265.634z"/>
			<path fill="#331842" d="M35.254,261.045h0.92v7.824h-0.92v-6.964c-0.177,0.116-0.353,0.216-0.53,0.296
				c-0.177,0.081-0.358,0.146-0.544,0.197v-0.762c0.211-0.076,0.406-0.164,0.585-0.264
				C34.944,261.275,35.107,261.165,35.254,261.045z"/>
			<path fill="#331842" d="M39.697,264.795c-0.353-0.08-0.6-0.197-0.739-0.352c-0.14-0.152-0.21-0.422-0.21-0.805v-1.005
				c0-0.661,0.115-1.112,0.346-1.354c0.231-0.24,0.637-0.36,1.221-0.36c0.579,0,0.984,0.122,1.218,0.367
				c0.233,0.245,0.349,0.694,0.349,1.349v1.004c0,0.373-0.07,0.639-0.21,0.797c-0.14,0.16-0.391,0.279-0.754,0.359
				c0.363,0.084,0.614,0.206,0.754,0.365c0.14,0.158,0.21,0.423,0.21,0.792v1.321c0,0.677-0.114,1.134-0.342,1.373
				c-0.228,0.24-0.636,0.358-1.225,0.358c-0.579,0-0.984-0.123-1.217-0.37c-0.233-0.246-0.349-0.703-0.349-1.373v-1.311
				c0-0.385,0.069-0.652,0.206-0.807C39.091,264.992,39.339,264.876,39.697,264.795z M39.682,262.366v1.261
				c0,0.34,0.045,0.57,0.136,0.691c0.091,0.119,0.251,0.181,0.482,0.181s0.394-0.063,0.489-0.194
				c0.095-0.13,0.143-0.354,0.143-0.678v-1.261c0-0.329-0.045-0.558-0.136-0.687c-0.091-0.128-0.251-0.191-0.482-0.191
				s-0.394,0.062-0.489,0.188C39.73,261.805,39.682,262.033,39.682,262.366z M39.682,265.952v1.59c0,0.344,0.045,0.576,0.136,0.696
				c0.091,0.121,0.251,0.182,0.482,0.182s0.394-0.064,0.489-0.195c0.095-0.129,0.143-0.356,0.143-0.683v-1.59
				c0-0.329-0.045-0.558-0.136-0.687c-0.091-0.127-0.251-0.19-0.482-0.19s-0.394,0.062-0.489,0.186
				C39.73,265.386,39.682,265.616,39.682,265.952z"/>
			<path fill="#331842" d="M45.773,260.781h1.096c0.927,0,1.532,0.109,1.817,0.326c0.284,0.218,0.427,0.716,0.427,1.494v4.446
				c0,0.774-0.145,1.272-0.434,1.491c-0.29,0.22-0.893,0.329-1.81,0.329h-1.096V260.781z M46.707,261.379v6.893h0.302
				c0.451,0,0.749-0.056,0.894-0.166c0.145-0.111,0.217-0.357,0.217-0.737V262.3c0-0.384-0.073-0.633-0.221-0.748
				c-0.148-0.114-0.444-0.173-0.89-0.173H46.707z"/>
			<path fill="#331842" d="M50.76,260.781h2.589v0.642h-1.655v2.912h1.582v0.636h-1.582v3.258h1.699v0.642H50.76V260.781z"/>
			<path fill="#331842" d="M60.05,262.459v0.516c0,0.14-0.03,0.31-0.088,0.51c-0.058,0.201-0.145,0.418-0.258,0.647l-2.03,4.14
				h2.332v0.599h-3.163v-0.795l1.854-3.796l0.022-0.049c0.265-0.516,0.397-0.951,0.397-1.311v-0.499
				c0-0.336-0.048-0.575-0.143-0.719c-0.096-0.142-0.254-0.214-0.475-0.214c-0.23,0-0.394,0.076-0.489,0.229
				c-0.096,0.151-0.144,0.422-0.144,0.809v0.526h-0.949v-0.417c0-0.658,0.118-1.107,0.353-1.352s0.645-0.364,1.228-0.364
				c0.559,0,0.958,0.116,1.195,0.351C59.929,261.505,60.05,261.9,60.05,262.459z"/>
			<path fill="#331842" d="M64.677,262.635v4.639c0,0.678-0.114,1.135-0.342,1.375c-0.228,0.238-0.636,0.357-1.225,0.357
				c-0.579,0-0.984-0.123-1.217-0.369s-0.349-0.705-0.349-1.373v-4.629c0-0.66,0.115-1.113,0.346-1.354
				c0.231-0.241,0.637-0.361,1.221-0.361c0.579,0,0.984,0.122,1.218,0.367C64.56,261.531,64.677,261.98,64.677,262.635z
				 M63.728,262.525c0-0.396-0.045-0.666-0.136-0.814c-0.091-0.148-0.251-0.222-0.482-0.222s-0.394,0.075-0.489,0.228
				c-0.096,0.151-0.144,0.422-0.144,0.809v4.863c0,0.389,0.048,0.656,0.144,0.807c0.095,0.15,0.259,0.226,0.489,0.226
				s0.391-0.073,0.482-0.223c0.091-0.147,0.136-0.417,0.136-0.81V262.525z"/>
			<path fill="#331842" d="M67.273,261.045h0.92v7.824h-0.92v-6.964c-0.177,0.116-0.353,0.216-0.53,0.296
				c-0.177,0.081-0.358,0.146-0.544,0.197v-0.762c0.211-0.076,0.406-0.164,0.585-0.264
				C66.963,261.275,67.126,261.165,67.273,261.045z"/>
			<path fill="#331842" d="M73.842,262.635v1.327c0,0.261-0.059,0.451-0.177,0.575c-0.118,0.125-0.314,0.207-0.589,0.247
				c0.275,0.036,0.471,0.116,0.589,0.241c0.118,0.123,0.177,0.315,0.177,0.576v1.672c0,0.677-0.114,1.134-0.342,1.373
				c-0.228,0.24-0.636,0.358-1.225,0.358c-0.579,0-0.984-0.123-1.217-0.37c-0.233-0.246-0.349-0.703-0.349-1.373v-0.537h0.934v0.664
				c0,0.387,0.048,0.655,0.144,0.805c0.095,0.15,0.259,0.227,0.489,0.227s0.391-0.074,0.482-0.223
				c0.091-0.147,0.136-0.417,0.136-0.809v-1.711c0-0.238-0.06-0.397-0.18-0.479s-0.362-0.123-0.725-0.123h-0.257v-0.599h0.257
				c0.358,0,0.598-0.043,0.721-0.129s0.184-0.248,0.184-0.484v-1.338c0-0.428-0.042-0.709-0.125-0.84s-0.233-0.196-0.449-0.196
				c-0.221,0-0.376,0.073-0.467,0.225c-0.091,0.149-0.136,0.421-0.136,0.812v0.504h-0.949v-0.396c0-0.654,0.115-1.104,0.346-1.349
				c0.231-0.245,0.633-0.367,1.206-0.367c0.564,0,0.959,0.121,1.184,0.364C73.729,261.525,73.842,261.977,73.842,262.635z"/>
		</g>
	</g>
	<polygon fill="#F2961C" points="0.021,281.701 6.639,313.484 93.153,308.789 98.457,281.701 	"/>
	<g>
		<g>
			<path fill="#331842" d="M26.486,288.324v0.773H25.5v-0.752c0-0.313-0.045-0.531-0.136-0.652c-0.091-0.12-0.251-0.182-0.482-0.182
				c-0.211,0-0.358,0.068-0.441,0.206s-0.125,0.425-0.125,0.863v5.006c0,0.45,0.044,0.742,0.133,0.878
				c0.088,0.135,0.25,0.202,0.485,0.202c0.201,0,0.346-0.063,0.434-0.19c0.088-0.129,0.132-0.347,0.132-0.652v-0.872h0.986v0.899
				c0,0.551-0.115,0.926-0.346,1.121c-0.231,0.194-0.642,0.293-1.236,0.293c-0.584,0-0.991-0.127-1.221-0.379
				s-0.346-0.722-0.346-1.408v-4.787c0-0.685,0.115-1.149,0.346-1.398c0.23-0.248,0.637-0.372,1.221-0.372
				c0.598,0,1.011,0.097,1.239,0.29C26.372,287.404,26.486,287.775,26.486,288.324z"/>
			<path fill="#331842" d="M31.076,288.691v4.787c0,0.693-0.125,1.166-0.375,1.414s-0.696,0.373-1.339,0.373
				c-0.633,0-1.074-0.127-1.324-0.379s-0.375-0.722-0.375-1.408v-4.787c0-0.68,0.126-1.146,0.379-1.396
				c0.252-0.25,0.698-0.375,1.335-0.375c0.637,0,1.08,0.124,1.328,0.372C30.952,287.542,31.076,288.008,31.076,288.691z
				 M30.098,288.582c0-0.409-0.054-0.689-0.162-0.842c-0.108-0.151-0.299-0.229-0.574-0.229c-0.27,0-0.457,0.074-0.563,0.223
				c-0.105,0.147-0.158,0.431-0.158,0.848v5.006c0,0.421,0.054,0.704,0.162,0.852c0.108,0.146,0.299,0.219,0.574,0.219
				c0.27,0,0.457-0.073,0.563-0.219c0.105-0.146,0.158-0.431,0.158-0.852V288.582z"/>
			<path fill="#331842" d="M32.724,287.041h1.28l1.552,7.605h0.015l-0.14-7.605h0.846v8.088h-1.295l-1.537-7.501h-0.029l0.132,7.501
				h-0.824V287.041z"/>
			<path fill="#331842" d="M37.954,287.041h1.206c0.736,0,1.236,0.078,1.5,0.232c0.265,0.156,0.397,0.432,0.397,0.826v2.324
				c0,0.395-0.132,0.669-0.397,0.822c-0.265,0.152-0.765,0.23-1.5,0.23h-0.272v3.65h-0.934V287.041z M38.888,287.639v3.246h0.25
				c0.373,0,0.621-0.056,0.747-0.167c0.125-0.11,0.188-0.362,0.188-0.754v-1.403c0-0.392-0.062-0.643-0.188-0.754
				c-0.125-0.111-0.374-0.168-0.747-0.168H38.888L38.888,287.639z"/>
			<path fill="#331842" d="M42.205,287.041h2.589v0.643h-1.655v2.911h1.582v0.636h-1.582v3.258h1.699v0.642h-2.633V287.041z"/>
			<path fill="#331842" d="M49.016,288.324v0.773h-0.978v-0.752c0-0.318-0.044-0.537-0.132-0.654
				c-0.088-0.119-0.245-0.18-0.471-0.18c-0.216,0-0.368,0.066-0.456,0.2s-0.133,0.37-0.133,0.71v0.395
				c0,0.166,0.031,0.334,0.092,0.509c0.061,0.174,0.151,0.337,0.269,0.489l1.221,1.606c0.206,0.271,0.355,0.526,0.449,0.767
				c0.093,0.238,0.14,0.486,0.14,0.742v0.549c0,0.701-0.119,1.174-0.357,1.42c-0.238,0.244-0.661,0.367-1.269,0.367
				c-0.594,0-1.007-0.1-1.24-0.297s-0.349-0.57-0.349-1.117v-0.899h0.986v0.872c0,0.328,0.044,0.552,0.133,0.669
				c0.088,0.116,0.25,0.175,0.485,0.175c0.24,0,0.406-0.066,0.497-0.2c0.091-0.133,0.136-0.427,0.136-0.88v-0.559
				c0-0.209-0.026-0.398-0.077-0.568c-0.051-0.17-0.126-0.324-0.224-0.463l-1.295-1.723c-0.181-0.229-0.32-0.448-0.416-0.657
				c-0.096-0.208-0.143-0.39-0.143-0.543v-0.472c0-0.629,0.116-1.066,0.349-1.312c0.233-0.247,0.634-0.37,1.203-0.37
				c0.598,0,1.011,0.097,1.239,0.29C48.902,287.404,49.016,287.775,49.016,288.324z"/>
			<path fill="#331842" d="M55.46,288.324v0.773h-0.978v-0.752c0-0.318-0.044-0.537-0.132-0.654c-0.088-0.119-0.245-0.18-0.471-0.18
				c-0.216,0-0.368,0.066-0.456,0.2c-0.088,0.134-0.133,0.37-0.133,0.71v0.395c0,0.166,0.031,0.334,0.092,0.509
				c0.061,0.174,0.151,0.337,0.269,0.489l1.221,1.606c0.206,0.271,0.355,0.526,0.449,0.767c0.093,0.238,0.14,0.486,0.14,0.742v0.549
				c0,0.701-0.119,1.174-0.357,1.42c-0.238,0.244-0.661,0.367-1.269,0.367c-0.594,0-1.007-0.1-1.24-0.297
				c-0.233-0.197-0.349-0.57-0.349-1.117v-0.899h0.986v0.872c0,0.328,0.044,0.552,0.133,0.669c0.088,0.116,0.25,0.175,0.485,0.175
				c0.24,0,0.406-0.066,0.497-0.2c0.091-0.133,0.136-0.427,0.136-0.88v-0.559c0-0.209-0.026-0.398-0.077-0.568
				c-0.051-0.17-0.126-0.324-0.224-0.463l-1.295-1.723c-0.181-0.229-0.32-0.448-0.416-0.657c-0.096-0.208-0.143-0.39-0.143-0.543
				v-0.472c0-0.629,0.116-1.066,0.349-1.312c0.233-0.247,0.634-0.37,1.203-0.37c0.598,0,1.011,0.097,1.239,0.29
				C55.346,287.404,55.46,287.775,55.46,288.324z"/>
			<path fill="#331842" d="M60.138,288.691v4.787c0,0.693-0.125,1.166-0.375,1.414s-0.696,0.373-1.339,0.373
				c-0.633,0-1.074-0.127-1.324-0.379s-0.375-0.722-0.375-1.408v-4.787c0-0.68,0.126-1.146,0.379-1.396
				c0.252-0.25,0.698-0.375,1.335-0.375s1.08,0.124,1.328,0.372C60.014,287.542,60.138,288.008,60.138,288.691z M59.16,288.582
				c0-0.409-0.054-0.689-0.162-0.842c-0.108-0.151-0.299-0.229-0.574-0.229c-0.27,0-0.457,0.074-0.563,0.223
				c-0.105,0.147-0.158,0.431-0.158,0.848v5.006c0,0.421,0.054,0.704,0.162,0.852c0.108,0.146,0.299,0.219,0.574,0.219
				c0.27,0,0.457-0.073,0.563-0.219c0.105-0.146,0.158-0.431,0.158-0.852V288.582z"/>
			<path fill="#331842" d="M64.89,288.324v0.773h-0.986v-0.752c0-0.313-0.045-0.531-0.136-0.652
				c-0.091-0.12-0.251-0.182-0.482-0.182c-0.211,0-0.358,0.068-0.441,0.206s-0.125,0.425-0.125,0.863v5.006
				c0,0.45,0.044,0.742,0.133,0.878c0.088,0.135,0.25,0.202,0.485,0.202c0.201,0,0.346-0.063,0.434-0.19
				c0.088-0.129,0.132-0.347,0.132-0.652v-0.872h0.986v0.899c0,0.551-0.115,0.926-0.346,1.121c-0.231,0.194-0.642,0.293-1.236,0.293
				c-0.584,0-0.991-0.127-1.221-0.379s-0.346-0.722-0.346-1.408v-4.787c0-0.685,0.115-1.149,0.346-1.398
				c0.23-0.248,0.637-0.372,1.221-0.372c0.598,0,1.011,0.097,1.239,0.29C64.776,287.404,64.89,287.775,64.89,288.324z"/>
			<path fill="#331842" d="M66.111,287.041h0.993v8.088h-0.993V287.041z"/>
			<path fill="#331842" d="M69.678,287.041h1.368l1.567,8.088h-1.008l-0.375-2.248h-1.78l-0.405,2.248H68.06L69.678,287.041z
				 M70.326,287.639l-0.787,4.65h1.567l-0.736-4.65H70.326z"/>
			<path fill="#331842" d="M73.606,287.041h0.934v7.445h1.685v0.643h-2.619V287.041z"/>
			<path fill="#331842" d="M28.336,297.6h0.92v7.823h-0.92v-6.964c-0.177,0.117-0.353,0.216-0.53,0.296
				c-0.177,0.081-0.358,0.146-0.544,0.198v-0.764c0.211-0.075,0.406-0.164,0.585-0.263C28.026,297.829,28.189,297.719,28.336,297.6z
				"/>
			<path fill="#331842" d="M34.934,299.188v0.543h-0.949v-0.651c0-0.384-0.045-0.652-0.136-0.808
				c-0.091-0.152-0.246-0.229-0.467-0.229c-0.216,0-0.365,0.062-0.449,0.188c-0.084,0.127-0.125,0.41-0.125,0.849v1.798
				c0.127-0.096,0.267-0.164,0.419-0.208s0.336-0.065,0.552-0.065c0.437,0,0.748,0.113,0.934,0.34
				c0.187,0.228,0.28,0.613,0.28,1.156v1.729c0,0.677-0.114,1.134-0.342,1.374c-0.228,0.239-0.636,0.358-1.225,0.358
				c-0.579,0-0.985-0.123-1.217-0.371c-0.233-0.246-0.35-0.703-0.35-1.373v-4.627c0-0.666,0.113-1.117,0.338-1.357
				c0.226-0.239,0.62-0.357,1.184-0.357c0.579,0,0.982,0.121,1.21,0.366S34.934,298.534,34.934,299.188z M34.059,302.188
				c0-0.387-0.048-0.656-0.144-0.812c-0.095-0.153-0.259-0.229-0.489-0.229s-0.394,0.076-0.489,0.229s-0.143,0.425-0.143,0.812
				v1.756c0,0.388,0.048,0.656,0.143,0.806c0.096,0.149,0.259,0.226,0.489,0.226c0.235,0,0.4-0.074,0.493-0.226
				c0.093-0.149,0.14-0.418,0.14-0.806V302.188z"/>
			<path fill="#331842" d="M39.546,299.188v0.543h-0.949v-0.651c0-0.384-0.045-0.652-0.136-0.808
				c-0.091-0.152-0.246-0.229-0.467-0.229c-0.216,0-0.365,0.062-0.449,0.188c-0.084,0.127-0.125,0.41-0.125,0.849v1.798
				c0.127-0.096,0.267-0.164,0.419-0.208c0.152-0.044,0.336-0.065,0.552-0.065c0.437,0,0.748,0.113,0.934,0.34
				c0.187,0.228,0.28,0.613,0.28,1.156v1.729c0,0.677-0.114,1.134-0.342,1.374c-0.228,0.239-0.636,0.358-1.225,0.358
				c-0.579,0-0.985-0.123-1.217-0.371c-0.233-0.246-0.35-0.703-0.35-1.373v-4.627c0-0.666,0.113-1.117,0.338-1.357
				c0.226-0.239,0.62-0.357,1.184-0.357c0.579,0,0.982,0.121,1.21,0.366S39.546,298.534,39.546,299.188z M38.671,302.188
				c0-0.387-0.048-0.656-0.144-0.812c-0.095-0.153-0.259-0.229-0.489-0.229s-0.394,0.076-0.489,0.229
				c-0.095,0.153-0.143,0.425-0.143,0.812v1.756c0,0.388,0.048,0.656,0.143,0.806c0.096,0.149,0.259,0.226,0.489,0.226
				c0.235,0,0.4-0.074,0.493-0.226c0.093-0.149,0.14-0.418,0.14-0.806V302.188z"/>
			<path fill="#331842" d="M43.467,297.335h1.096c0.927,0,1.532,0.108,1.817,0.326c0.284,0.218,0.427,0.716,0.427,1.493v4.447
				c0,0.775-0.145,1.272-0.434,1.491c-0.29,0.22-0.893,0.329-1.81,0.329h-1.096V297.335z M44.401,297.934v6.893h0.302
				c0.451,0,0.749-0.057,0.894-0.167c0.145-0.111,0.217-0.356,0.217-0.737v-5.066c0-0.385-0.073-0.633-0.221-0.748
				c-0.148-0.115-0.444-0.174-0.89-0.174H44.401L44.401,297.934z"/>
			<path fill="#331842" d="M48.454,297.335h2.589v0.642h-1.655v2.912h1.582v0.637h-1.582v3.256h1.699v0.643h-2.633V297.335z"/>
			<path fill="#331842" d="M57.744,299.014v0.516c0,0.139-0.03,0.309-0.088,0.51c-0.058,0.201-0.145,0.417-0.258,0.646l-2.03,4.141
				H57.7v0.598h-3.163v-0.795l1.854-3.795l0.022-0.049c0.265-0.516,0.397-0.952,0.397-1.311v-0.5c0-0.336-0.048-0.576-0.143-0.719
				c-0.096-0.143-0.254-0.213-0.475-0.213c-0.23,0-0.394,0.075-0.489,0.229c-0.096,0.15-0.144,0.42-0.144,0.809v0.525H54.61v-0.416
				c0-0.658,0.118-1.108,0.353-1.353c0.235-0.244,0.645-0.364,1.228-0.364c0.559,0,0.958,0.116,1.195,0.352
				C57.623,298.059,57.744,298.454,57.744,299.014z"/>
			<path fill="#331842" d="M62.371,299.188v4.64c0,0.677-0.114,1.134-0.342,1.374c-0.228,0.238-0.636,0.357-1.225,0.357
				c-0.579,0-0.984-0.123-1.217-0.369s-0.349-0.705-0.349-1.373v-4.629c0-0.66,0.115-1.112,0.346-1.354s0.637-0.361,1.221-0.361
				c0.579,0,0.984,0.123,1.218,0.367C62.254,298.085,62.371,298.534,62.371,299.188z M61.422,299.079
				c0-0.396-0.045-0.666-0.136-0.813c-0.091-0.148-0.251-0.223-0.482-0.223s-0.394,0.075-0.489,0.229
				c-0.096,0.15-0.144,0.42-0.144,0.809v4.863c0,0.388,0.048,0.656,0.144,0.806c0.095,0.149,0.259,0.226,0.489,0.226
				s0.391-0.074,0.482-0.223c0.091-0.146,0.136-0.417,0.136-0.809V299.079z"/>
			<path fill="#331842" d="M64.967,297.6h0.92v7.823h-0.92v-6.964c-0.177,0.117-0.353,0.216-0.53,0.296
				c-0.177,0.081-0.358,0.146-0.544,0.198v-0.764c0.211-0.075,0.406-0.164,0.585-0.263C64.657,297.829,64.82,297.719,64.967,297.6z"
				/>
			<path fill="#331842" d="M71.536,299.188v1.328c0,0.26-0.059,0.45-0.177,0.574c-0.118,0.125-0.314,0.207-0.589,0.247
				c0.275,0.036,0.471,0.117,0.589,0.241c0.118,0.124,0.177,0.316,0.177,0.576v1.672c0,0.677-0.114,1.134-0.342,1.374
				c-0.228,0.239-0.636,0.358-1.225,0.358c-0.579,0-0.984-0.123-1.217-0.371c-0.233-0.246-0.349-0.703-0.349-1.373v-0.537h0.934
				v0.664c0,0.388,0.048,0.656,0.144,0.806c0.095,0.149,0.259,0.226,0.489,0.226s0.391-0.074,0.482-0.223
				c0.091-0.146,0.136-0.417,0.136-0.809v-1.711c0-0.237-0.06-0.397-0.18-0.479c-0.12-0.082-0.362-0.123-0.725-0.123h-0.257v-0.598
				h0.257c0.358,0,0.598-0.043,0.721-0.13c0.123-0.086,0.184-0.247,0.184-0.484v-1.338c0-0.428-0.042-0.708-0.125-0.839
				c-0.083-0.132-0.233-0.197-0.449-0.197c-0.221,0-0.376,0.074-0.467,0.226c-0.091,0.148-0.136,0.42-0.136,0.812v0.504h-0.949
				v-0.396c0-0.653,0.115-1.104,0.346-1.349s0.633-0.366,1.206-0.366c0.564,0,0.959,0.121,1.184,0.363
				C71.423,298.08,71.536,298.529,71.536,299.188z"/>
		</g>
	</g>
	<polygon fill="#F2961C" points="127.258,98.422 130.661,325.742 692.258,313.932 674.987,96.254 	"/>
</g>
</svg>
