<?xml version="1.0" encoding="utf-8"?>
<!-- Generator: Adobe Illustrator 16.0.0, SVG Export Plug-In . SVG Version: 6.00 Build 0)  -->
<!DOCTYPE svg PUBLIC "-//W3C//DTD SVG 1.1//EN" "http://www.w3.org/Graphics/SVG/1.1/DTD/svg11.dtd">
<svg version="1.1" id="Capa_1" xmlns="http://www.w3.org/2000/svg" xmlns:xlink="http://www.w3.org/1999/xlink" x="0px" y="0px"
	 width="56.063px" height="56.064px" viewBox="0 0 56.063 56.064" enable-background="new 0 0 56.063 56.064" xml:space="preserve">
<g>
	<g>
		<path fill="#A0C219" d="M28.031,54.064C13.678,54.064,2,42.386,2,28.031C2,13.678,13.678,2,28.031,2
			c14.354,0,26.032,11.678,26.032,26.031C54.063,42.386,42.386,54.064,28.031,54.064z"/>
		<g>
			<path fill="#FFFFFF" d="M28.031,4c13.272,0,24.032,10.76,24.032,24.031c0,13.273-10.76,24.033-24.032,24.033S4,41.305,4,28.031
				C4,14.76,14.759,4,28.031,4 M28.031,0C12.574,0,0,12.575,0,28.031c0,15.458,12.574,28.033,28.031,28.033
				s28.032-12.576,28.032-28.033C56.063,12.575,43.488,0,28.031,0L28.031,0z"/>
		</g>
	</g>
	<g>
		<g>
			<path fill="#FFFFFF" d="M32.985,20.443v4.37c0,0.854-0.194,1.486-0.581,1.896c-0.389,0.41-1.034,0.681-1.938,0.812
				c0.904,0.121,1.55,0.386,1.938,0.795c0.387,0.409,0.581,1.042,0.581,1.896v5.508c0,2.228-0.376,3.735-1.126,4.523
				c-0.752,0.788-2.096,1.183-4.034,1.183c-1.905,0-3.242-0.406-4.009-1.219c-0.768-0.812-1.151-2.32-1.151-4.523v-1.77h3.077V36.1
				c0,1.276,0.157,2.161,0.473,2.654c0.314,0.494,0.852,0.741,1.61,0.741s1.288-0.244,1.587-0.731
				c0.299-0.488,0.448-1.376,0.448-2.664v-5.634c0-0.783-0.198-1.31-0.594-1.58c-0.396-0.271-1.19-0.406-2.386-0.406h-0.848v-1.969
				h0.848c1.178,0,1.97-0.142,2.373-0.425c0.404-0.282,0.606-0.815,0.606-1.598v-4.406c0-1.409-0.138-2.33-0.412-2.763
				c-0.274-0.434-0.767-0.65-1.478-0.65c-0.727,0-1.24,0.247-1.539,0.74c-0.299,0.494-0.447,1.385-0.447,2.673v1.661h-3.125v-1.3
				c0-2.155,0.379-3.636,1.139-4.442c0.759-0.807,2.083-1.21,3.973-1.21c1.857,0,3.157,0.4,3.9,1.2
				C32.613,16.792,32.985,18.276,32.985,20.443z"/>
		</g>
	</g>
</g>
</svg>
