<?xml version="1.0" encoding="utf-8"?>
<!-- Generator: Adobe Illustrator 16.0.0, SVG Export Plug-In . SVG Version: 6.00 Build 0)  -->
<!DOCTYPE svg PUBLIC "-//W3C//DTD SVG 1.1//EN" "http://www.w3.org/Graphics/SVG/1.1/DTD/svg11.dtd">
<svg version="1.1" id="Capa_1" xmlns="http://www.w3.org/2000/svg" xmlns:xlink="http://www.w3.org/1999/xlink" x="0px" y="0px"
	 width="56.062px" height="56.064px" viewBox="0 0 56.062 56.064" enable-background="new 0 0 56.062 56.064" xml:space="preserve">
<g>
	<g>
		<path fill="#A0C219" d="M28.031,54.064C13.678,54.064,2,42.386,2,28.031C2,13.678,13.678,2,28.031,2s26.031,11.678,26.031,26.031
			C54.062,42.386,42.385,54.064,28.031,54.064z"/>
		<path fill="#FFFFFF" d="M28.031,4c13.271,0,24.031,10.76,24.031,24.031c0,13.273-10.76,24.033-24.031,24.033
			C14.758,52.064,4,41.305,4,28.031C4,14.76,14.758,4,28.031,4 M28.031,0C12.574,0,0,12.575,0,28.031
			c0,15.458,12.574,28.033,28.031,28.033s28.031-12.576,28.031-28.033C56.062,12.575,43.488,0,28.031,0L28.031,0z"/>
	</g>
	<g>
		<g>
			<path fill="#FFFFFF" d="M33.131,19.865v1.697c0,0.458-0.098,1.018-0.291,1.68c-0.194,0.662-0.477,1.372-0.848,2.131
				l-6.688,13.634h7.68v1.969H22.568v-2.618l6.104-12.497l0.073-0.162c0.871-1.697,1.308-3.136,1.308-4.316v-1.644
				c0-1.107-0.157-1.896-0.473-2.365s-0.835-0.704-1.562-0.704c-0.759,0-1.296,0.25-1.61,0.749c-0.315,0.5-0.473,1.388-0.473,2.664
				v1.733h-3.125v-1.372c0-2.167,0.387-3.651,1.162-4.452c0.775-0.8,2.124-1.2,4.046-1.2c1.841,0,3.153,0.385,3.937,1.155
				S33.131,18.023,33.131,19.865z"/>
		</g>
	</g>
</g>
</svg>
