<?xml version="1.0" encoding="utf-8"?>
<!-- Generator: Adobe Illustrator 16.0.0, SVG Export Plug-In . SVG Version: 6.00 Build 0)  -->
<!DOCTYPE svg PUBLIC "-//W3C//DTD SVG 1.1//EN" "http://www.w3.org/Graphics/SVG/1.1/DTD/svg11.dtd">
<svg version="1.1" id="Capa_1" xmlns="http://www.w3.org/2000/svg" xmlns:xlink="http://www.w3.org/1999/xlink" x="0px" y="0px"
	 width="32.235px" height="32.235px" viewBox="0 0 32.235 32.235" enable-background="new 0 0 32.235 32.235" xml:space="preserve">
<path fill="#2C5A67" d="M0,16.117c0,8.901,7.218,16.118,16.117,16.118c8.901,0,16.118-7.217,16.118-16.118
	C32.235,7.218,25.019,0,16.117,0C7.218,0,0,7.218,0,16.117z M21.95,18.578c0,0.56-0.644,0.881-1.094,0.548l-3.147-2.353
	c-0.437-0.328-0.437-0.984,0-1.312l3.147-2.351c0.45-0.334,1.094-0.013,1.094,0.547V18.578z M6.969,15.461L20.856,5.079
	c0.45-0.34,1.094-0.019,1.094,0.547v2.035c0,0.541-0.262,1.058-0.699,1.386l-8.741,6.536c-0.353,0.268-0.353,0.802,0,1.069
	l8.741,6.537c0.438,0.328,0.699,0.845,0.699,1.391v2.029c0,0.564-0.644,0.888-1.094,0.547L6.969,16.773
	C6.531,16.445,6.531,15.789,6.969,15.461z"/>
</svg>
