<?xml version="1.0" encoding="utf-8"?>
<!-- Generator: Adobe Illustrator 16.0.0, SVG Export Plug-In . SVG Version: 6.00 Build 0)  -->
<!DOCTYPE svg PUBLIC "-//W3C//DTD SVG 1.1//EN" "http://www.w3.org/Graphics/SVG/1.1/DTD/svg11.dtd">
<svg version="1.1" id="Capa_1" xmlns="http://www.w3.org/2000/svg" xmlns:xlink="http://www.w3.org/1999/xlink" x="0px" y="0px"
	 width="56.062px" height="56.064px" viewBox="0 0 56.062 56.064" enable-background="new 0 0 56.062 56.064" xml:space="preserve">
<g>
	<g>
		<path fill="#E94E1B" d="M28.031,54.064C13.678,54.064,2,42.386,2,28.031C2,13.678,13.678,2,28.031,2s26.031,11.678,26.031,26.031
			C54.062,42.386,42.385,54.064,28.031,54.064z"/>
		<g>
			<path fill="#FFFFFF" d="M28.031,4c13.271,0,24.031,10.76,24.031,24.031c0,13.273-10.76,24.033-24.031,24.033
				C14.759,52.064,4,41.305,4,28.031C4,14.76,14.759,4,28.031,4 M28.031,0C12.574,0,0,12.575,0,28.031
				c0,15.458,12.574,28.033,28.031,28.033s28.031-12.576,28.031-28.033C56.062,12.575,43.488,0,28.031,0L28.031,0z"/>
		</g>
	</g>
	<g>
		<g>
			<path fill="#FFFFFF" d="M27.025,15.206h4.336v17.119h2.617v1.807h-2.617v6.844h-2.883v-6.844h-6.443v-2.294L27.025,15.206z
				 M28.576,16.976l-4.021,15.35h3.924l0.389-15.35H28.576z"/>
		</g>
	</g>
</g>
</svg>
