<?xml version="1.0" encoding="utf-8"?>
<!-- Generator: Adobe Illustrator 16.0.0, SVG Export Plug-In . SVG Version: 6.00 Build 0)  -->
<!DOCTYPE svg PUBLIC "-//W3C//DTD SVG 1.1//EN" "http://www.w3.org/Graphics/SVG/1.1/DTD/svg11.dtd">
<svg version="1.1" id="Capa_1" xmlns="http://www.w3.org/2000/svg" xmlns:xlink="http://www.w3.org/1999/xlink" x="0px" y="0px"
	 width="106.89px" height="59.984px" viewBox="0 0 106.89 59.984" enable-background="new 0 0 106.89 59.984" xml:space="preserve">
<g>
	<g>
		<g>
			<path fill="#A0C219" d="M29.991,57.984C14.557,57.984,2,45.428,2,29.992S14.557,2,29.991,2s27.991,12.557,27.991,27.992
				S45.426,57.984,29.991,57.984z"/>
			<path fill="#FFFFFF" d="M29.991,4c14.354,0,25.991,11.639,25.991,25.992c0,14.355-11.637,25.992-25.991,25.992S4,44.348,4,29.992
				C4,15.639,15.637,4,29.991,4 M29.991,0C13.454,0,0,13.455,0,29.992s13.454,29.992,29.991,29.992s29.991-13.455,29.991-29.992
				S46.528,0,29.991,0L29.991,0z"/>
		</g>
		<g>
			<g>
				<path fill="#FFFFFF" d="M31.107,19.755v2.754h-3.484v-2.676c0-1.133-0.157-1.911-0.472-2.334s-0.874-0.635-1.677-0.635
					c-0.77,0-1.311,0.237-1.625,0.713s-0.472,1.318-0.472,2.529v1.406c0,0.586,0.109,1.188,0.328,1.807
					c0.218,0.618,0.537,1.201,0.956,1.748l4.35,5.723c0.733,0.964,1.266,1.872,1.598,2.725s0.498,1.735,0.498,2.646v1.953
					c0,2.5-0.424,4.187-1.271,5.059c-0.848,0.872-2.354,1.309-4.52,1.309c-2.114,0-3.586-0.352-4.415-1.055
					c-0.83-0.703-1.245-2.031-1.245-3.984v-3.203h3.512v3.105c0,1.172,0.156,1.966,0.471,2.383s0.892,0.625,1.729,0.625
					c0.855,0,1.445-0.237,1.769-0.713s0.485-1.521,0.485-3.135v-1.992c0-0.742-0.092-1.416-0.275-2.021s-0.45-1.155-0.799-1.65
					l-4.611-6.133c-0.646-0.82-1.141-1.602-1.48-2.344c-0.341-0.742-0.512-1.387-0.512-1.934v-1.68c0-2.239,0.415-3.799,1.245-4.678
					c0.829-0.879,2.257-1.318,4.284-1.318c2.131,0,3.603,0.345,4.414,1.035C30.701,16.48,31.107,17.802,31.107,19.755z"/>
				<path fill="#FFFFFF" d="M35.771,15.185h3.538v28.809h-3.538V15.185z"/>
			</g>
		</g>
	</g>
	<path fill-rule="evenodd" clip-rule="evenodd" fill="#FFFFFF" d="M85.631,31.222c0.339-0.812,0.539-1.175,0.645-1.563
		c1.812-6.581,6.062-11.176,11.893-14.407c1.716-0.95,3.612-1.571,5.438-2.317c0.381-0.156,0.854-0.349,1.21-0.251
		c0.643,0.176,1.379,0.419,1.8,0.884c0.595,0.661,0.122,1.367-0.448,1.867c-1.441,1.262-2.858,2.556-4.378,3.717
		c-4.532,3.46-6.935,7.952-6.935,13.705c0,2.572-0.053,5.147-0.196,7.714c-0.137,2.446-1.124,4.365-3.638,5.23
		c-1.124,0.389-2.156,1.077-3.295,1.379c-1.697,0.446-2.642-0.09-3.189-1.745c-1.021-3.081-2.973-5.461-5.51-7.357
		c-2.974-2.219-6.007-4.357-9.073-6.446c-2.344-1.598-2.52-2.862-0.425-4.819c0.651-0.61,1.386-1.14,2.124-1.648
		c2.736-1.893,4.151-1.98,6.87-0.047c1.551,1.102,2.859,2.537,4.299,3.797C83.658,29.644,84.536,30.325,85.631,31.222z"/>
</g>
</svg>
