<?xml version="1.0" encoding="utf-8"?>
<!-- Generator: Adobe Illustrator 16.0.0, SVG Export Plug-In . SVG Version: 6.00 Build 0)  -->
<!DOCTYPE svg PUBLIC "-//W3C//DTD SVG 1.1//EN" "http://www.w3.org/Graphics/SVG/1.1/DTD/svg11.dtd">
<svg version="1.1" id="Capa_1" xmlns="http://www.w3.org/2000/svg" xmlns:xlink="http://www.w3.org/1999/xlink" x="0px" y="0px"
	 width="218.657px" height="218.149px" viewBox="-88.708 301.87 218.657 218.149"
	 enable-background="new -88.708 301.87 218.657 218.149" xml:space="preserve">
<g enable-background="new    ">
	<ellipse fill="#2B5A67" enable-background="new    " cx="20.621" cy="410.944" rx="109.329" ry="109.075"/>
</g>
<g>
	<g>
		<path fill="#FFFFFF" d="M6.338,463.743v-3.237h21.664c1.392,0,2.329-0.179,2.812-0.535c0.484-0.356,0.727-0.989,0.727-1.897
			c0-0.894-0.242-1.514-0.727-1.862c-0.483-0.348-1.42-0.522-2.812-0.522H6.338v-3.237H27.64c2.297,0,3.857,0.414,4.68,1.241
			c0.822,0.828,1.234,2.306,1.234,4.431c0,2.094-0.416,3.553-1.252,4.381c-0.835,0.828-2.389,1.241-4.662,1.241H6.338V463.743z"/>
		<path fill="#FFFFFF" d="M6.338,446.998v-4.236l25.166-5.135v-0.049l-25.166,0.463v-2.8h26.763v4.284l-24.822,5.087v0.097
			l24.822-0.438v2.727H6.338z"/>
		<path fill="#FFFFFF" d="M6.338,429.691v-3.285h26.763v3.285H6.338z"/>
		<path fill="#FFFFFF" d="M6.338,420.93v-3.627c0-3.067,0.36-5.071,1.08-6.012c0.72-0.941,2.368-1.412,4.944-1.412h14.714
			c2.563,0,4.209,0.479,4.935,1.436c0.727,0.958,1.09,2.954,1.09,5.988v3.627H6.338z M8.315,417.838h22.807v-0.998
			c0-1.492-0.184-2.479-0.553-2.957s-1.182-0.717-2.44-0.717H11.365c-1.27,0-2.096,0.242-2.477,0.729
			c-0.381,0.486-0.572,1.469-0.572,2.945V417.838L8.315,417.838z"/>
		<path fill="#FFFFFF" d="M6.338,401.385v-4.527l26.763-5.186v3.334l-7.439,1.242v5.891l7.439,1.339v3.262L6.338,401.385z
			 M8.315,399.242l15.386,2.604v-5.184l-15.386,2.434V399.242z"/>
		<path fill="#FFFFFF" d="M6.338,388.387v-3.627c0-3.066,0.36-5.07,1.08-6.012c0.72-0.94,2.368-1.412,4.944-1.412h14.714
			c2.563,0,4.209,0.479,4.935,1.436c0.727,0.958,1.09,2.954,1.09,5.986v3.627H6.338V388.387z M8.315,385.295h22.807v-0.998
			c0-1.492-0.184-2.479-0.553-2.957s-1.182-0.717-2.44-0.717H11.365c-1.27,0-2.096,0.242-2.477,0.729
			c-0.381,0.487-0.572,1.469-0.572,2.944V385.295L8.315,385.295z"/>
		<path fill="#FFFFFF" d="M12.472,354.457h4.391c0.859,0,1.494,0.195,1.905,0.584s0.684,1.039,0.816,1.947
			c0.121-0.908,0.387-1.559,0.798-1.947c0.411-0.389,1.046-0.584,1.905-0.584h5.533c2.238,0,3.754,0.377,4.546,1.133
			c0.792,0.754,1.188,2.104,1.188,4.053c0,1.915-0.408,3.258-1.226,4.027c-0.817,0.771-2.332,1.156-4.545,1.156h-1.778v-3.092h2.195
			c1.281,0,2.171-0.158,2.667-0.475c0.495-0.316,0.743-0.855,0.743-1.618s-0.244-1.294-0.734-1.595s-1.382-0.451-2.676-0.451H22.54
			c-0.786,0-1.315,0.199-1.587,0.597c-0.272,0.397-0.408,1.197-0.408,2.397v0.852h-1.978v-0.852c0-1.186-0.142-1.979-0.426-2.387
			c-0.284-0.404-0.819-0.607-1.606-0.607h-4.427c-1.415,0-2.34,0.138-2.776,0.414c-0.435,0.275-0.653,0.771-0.653,1.483
			c0,0.73,0.248,1.246,0.744,1.546c0.496,0.301,1.391,0.45,2.685,0.45h1.669v3.14H12.47c-2.165,0-3.653-0.381-4.463-1.144
			c-0.811-0.763-1.216-2.093-1.216-3.992c0-1.864,0.402-3.172,1.207-3.918C8.804,354.832,10.293,354.457,12.472,354.457z"/>
	</g>
</g>
</svg>
