<?xml version="1.0" encoding="utf-8"?>
<!-- Generator: Adobe Illustrator 16.0.0, SVG Export Plug-In . SVG Version: 6.00 Build 0)  -->
<!DOCTYPE svg PUBLIC "-//W3C//DTD SVG 1.1//EN" "http://www.w3.org/Graphics/SVG/1.1/DTD/svg11.dtd">
<svg version="1.1" id="Capa_1" xmlns="http://www.w3.org/2000/svg" xmlns:xlink="http://www.w3.org/1999/xlink" x="0px" y="0px"
	 width="218.657px" height="218.149px" viewBox="-88.708 301.87 218.657 218.149"
	 enable-background="new -88.708 301.87 218.657 218.149" xml:space="preserve">
<g enable-background="new    ">
	<ellipse fill="#9EC019" enable-background="new    " cx="20.621" cy="410.944" rx="109.329" ry="109.075"/>
</g>
<g>
	<g>
		<path fill="#FFFFFF" d="M7.012,466.51v-3.237h21.664c1.392,0,2.328-0.179,2.813-0.535s0.726-0.989,0.726-1.897
			c0-0.894-0.24-1.514-0.726-1.862c-0.483-0.349-1.421-0.522-2.813-0.522H7.012v-3.237h21.302c2.299,0,3.857,0.414,4.682,1.241
			c0.822,0.828,1.233,2.306,1.233,4.431c0,2.094-0.417,3.553-1.252,4.381s-2.39,1.241-4.663,1.241H7.012V466.51z"/>
		<path fill="#FFFFFF" d="M7.012,449.765v-4.236l25.165-5.135v-0.049l-25.165,0.463v-2.8h26.763v4.284l-24.82,5.087v0.097
			l24.82-0.438v2.727H7.012z"/>
		<path fill="#FFFFFF" d="M7.012,432.458v-3.285h26.763v3.285H7.012z"/>
		<path fill="#FFFFFF" d="M7.012,423.696v-3.627c0-3.067,0.36-5.071,1.08-6.012c0.721-0.941,2.367-1.412,4.943-1.412H27.75
			c2.564,0,4.209,0.479,4.937,1.436c0.726,0.958,1.088,2.954,1.088,5.988v3.627H7.012z M8.99,420.604h22.807v-0.998
			c0-1.492-0.185-2.479-0.554-2.957c-0.368-0.479-1.182-0.717-2.439-0.717H12.038c-1.27,0-2.095,0.242-2.477,0.729
			c-0.381,0.486-0.571,1.469-0.571,2.945V420.604z"/>
		<path fill="#FFFFFF" d="M7.012,404.151v-4.527l26.763-5.186v3.334l-7.438,1.242v5.891l7.438,1.339v3.262L7.012,404.151z
			 M8.99,402.009l15.386,2.604v-5.184L8.99,401.862V402.009z"/>
		<path fill="#FFFFFF" d="M7.012,391.153v-3.627c0-3.066,0.36-5.07,1.08-6.012c0.721-0.94,2.367-1.412,4.943-1.412H27.75
			c2.564,0,4.209,0.479,4.937,1.436c0.726,0.958,1.088,2.954,1.088,5.986v3.627H7.012V391.153z M8.99,388.062h22.807v-0.998
			c0-1.492-0.185-2.479-0.554-2.957c-0.368-0.479-1.182-0.717-2.439-0.717H12.038c-1.27,0-2.095,0.242-2.477,0.729
			c-0.381,0.487-0.571,1.469-0.571,2.944V388.062z"/>
		<path fill="#FFFFFF" d="M7.883,367.252v-9.931h1.959v6.937h8.691c-0.363-0.503-0.626-1.01-0.789-1.521
			c-0.164-0.512-0.245-1.107-0.245-1.789c0-1.396,0.293-2.389,0.88-2.981c0.587-0.592,1.594-0.888,3.021-0.888h7.095
			c2.237,0,3.753,0.377,4.545,1.132c0.792,0.754,1.188,2.104,1.188,4.052c0,1.932-0.411,3.286-1.233,4.065
			c-0.823,0.778-2.335,1.168-4.536,1.168h-1.778v-3.14h2.195c1.295,0,2.188-0.154,2.676-0.463c0.49-0.309,0.735-0.836,0.735-1.582
			c0-0.764-0.248-1.303-0.744-1.619c-0.496-0.315-1.385-0.475-2.667-0.475h-6.949c-1.004,0-1.708,0.15-2.112,0.45
			c-0.405,0.3-0.608,0.815-0.608,1.545c0,0.747,0.2,1.274,0.599,1.582c0.399,0.308,1.107,0.462,2.123,0.462h0.473v2.994
			L7.883,367.252L7.883,367.252z"/>
	</g>
</g>
</svg>
