<?xml version="1.0" encoding="utf-8"?>
<!-- Generator: Adobe Illustrator 16.0.0, SVG Export Plug-In . SVG Version: 6.00 Build 0)  -->
<!DOCTYPE svg PUBLIC "-//W3C//DTD SVG 1.1//EN" "http://www.w3.org/Graphics/SVG/1.1/DTD/svg11.dtd">
<svg version="1.1" id="Capa_1" xmlns="http://www.w3.org/2000/svg" xmlns:xlink="http://www.w3.org/1999/xlink" x="0px" y="0px"
	 width="210.379px" height="48.91px" viewBox="0 0 210.379 48.91" enable-background="new 0 0 210.379 48.91" xml:space="preserve">
<polygon fill="#331842" points="0,0 14.143,48.91 199.044,38.878 210.379,0 "/>
<g>
	<g enable-background="new    ">
		<path fill="#F2961C" d="M68.178,9.152h2.892v23.551h-2.892V9.152z"/>
		<path fill="#F2961C" d="M75.889,9.152h3.727l4.52,22.146h0.043L83.771,9.152h2.463v23.551h-3.77l-4.477-21.842h-0.086
			l0.386,21.842h-2.399V9.152z"/>
		<path fill="#F2961C" d="M91.118,9.152h2.892v23.551h-2.892V9.152z"/>
		<path fill="#F2961C" d="M107.867,12.889v2.251h-2.87v-2.187c0-0.916-0.132-1.549-0.396-1.9c-0.265-0.351-0.732-0.527-1.403-0.527
			c-0.614,0-1.042,0.2-1.285,0.599c-0.243,0.399-0.364,1.238-0.364,2.515v14.578c0,1.309,0.128,2.16,0.385,2.555
			c0.257,0.394,0.729,0.59,1.414,0.59c0.585,0,1.007-0.186,1.264-0.559c0.257-0.372,0.385-1.006,0.385-1.9v-2.538h2.87v2.618
			c0,1.607-0.335,2.696-1.006,3.266c-0.672,0.569-1.871,0.854-3.599,0.854c-1.7,0-2.885-0.367-3.556-1.102
			c-0.671-0.734-1.007-2.102-1.007-4.104V13.958c0-1.991,0.335-3.348,1.007-4.072c0.671-0.724,1.856-1.085,3.556-1.085
			c1.742,0,2.945,0.282,3.609,0.846C107.535,10.212,107.867,11.292,107.867,12.889z"/>
		<path fill="#F2961C" d="M111.424,9.152h2.891v23.551h-2.891V9.152z"/>
		<path fill="#F2961C" d="M121.812,9.152h3.983l4.562,23.551h-2.934l-1.093-6.547h-5.184l-1.179,6.547H117.1L121.812,9.152z
			 M123.696,10.893l-2.292,13.54h4.562l-2.143-13.54H123.696z"/>
		<path fill="#F2961C" d="M133.25,9.152h4.154c2.143,0,3.592,0.224,4.349,0.67c0.757,0.447,1.136,1.251,1.136,2.411v5.333
			c0,0.979-0.25,1.671-0.75,2.076s-1.386,0.649-2.656,0.734c1.356,0.064,2.299,0.298,2.827,0.703
			c0.528,0.404,0.792,1.107,0.792,2.107v9.516h-2.891v-8.797c0-1.107-0.211-1.826-0.633-2.156c-0.421-0.33-1.288-0.495-2.602-0.495
			h-1.007v11.448h-2.72V9.152z M135.97,10.893v8.606h0.964c1.242,0,2.07-0.162,2.484-0.487s0.621-1.046,0.621-2.164v-3.273
			c0-1.128-0.207-1.857-0.621-2.188c-0.414-0.33-1.242-0.495-2.484-0.495H135.97z"/>
	</g>
</g>
</svg>
