<?xml version="1.0" encoding="utf-8"?>
<!-- Generator: Adobe Illustrator 16.0.0, SVG Export Plug-In . SVG Version: 6.00 Build 0)  -->
<!DOCTYPE svg PUBLIC "-//W3C//DTD SVG 1.1//EN" "http://www.w3.org/Graphics/SVG/1.1/DTD/svg11.dtd">
<svg version="1.1" id="Capa_1" xmlns="http://www.w3.org/2000/svg" xmlns:xlink="http://www.w3.org/1999/xlink" x="0px" y="0px"
	 width="64.328px" height="64.38px" viewBox="0 0 64.328 64.38" enable-background="new 0 0 64.328 64.38" xml:space="preserve">
<path fill-rule="evenodd" clip-rule="evenodd" fill="#2C5A67" d="M0.007,32.611c0.156,7.332,2.449,13.922,7.066,19.641
	c5.044,6.248,11.536,10.145,19.451,11.55c1.977,0.352,4.009,0.534,6.018,0.546c10.173,0.053,20.346,0.024,30.52,0.021
	c0.315,0,0.631-0.045,0.948-0.068c0.015-0.068,0.031-0.139,0.046-0.207c-3.857-2.287-7.715-4.572-11.65-6.904
	c0.506-0.467,0.935-0.867,1.367-1.262c5.515-5.035,8.871-11.25,10.095-18.604c1.122-6.745,0.21-13.254-2.889-19.323
	C55.947,8.145,47.886,2.18,36.945,0.422C28.88-0.876,21.321,0.834,14.498,5.346C8.004,9.641,3.595,15.554,1.348,23.043
	C0.411,26.167-0.062,29.356,0.007,32.611z M26.782,46.373c-0.032-2.951,2.392-5.414,5.339-5.427
	c2.966-0.013,5.412,2.397,5.427,5.342c0.012,2.937-2.445,5.406-5.379,5.409C29.267,51.699,26.813,49.275,26.782,46.373z
	 M26.47,12.819c0.18-0.067,0.25-0.116,0.322-0.116c3.518-0.008,7.034-0.006,10.552-0.021c0.489-0.002,0.539,0.246,0.506,0.641
	c-0.1,1.16-0.177,2.32-0.261,3.48c-0.243,3.301-0.474,6.6-0.73,9.898c-0.157,2.016-0.385,4.025-0.521,6.042
	c-0.126,1.9-0.171,3.805-0.255,5.79h-7.723C27.727,29.908,27.098,21.354,26.47,12.819z"/>
</svg>
