<?xml version="1.0" encoding="utf-8"?>
<!-- Generator: Adobe Illustrator 16.0.0, SVG Export Plug-In . SVG Version: 6.00 Build 0)  -->
<!DOCTYPE svg PUBLIC "-//W3C//DTD SVG 1.1//EN" "http://www.w3.org/Graphics/SVG/1.1/DTD/svg11.dtd">
<svg version="1.1" id="Capa_1" xmlns="http://www.w3.org/2000/svg" xmlns:xlink="http://www.w3.org/1999/xlink" x="0px" y="0px"
	 width="39.722px" height="39.723px" viewBox="0 0 39.722 39.723" enable-background="new 0 0 39.722 39.723" xml:space="preserve">
<path fill="#A0C219" d="M0,19.861c0,10.968,8.894,19.861,19.861,19.861s19.861-8.894,19.861-19.861S30.829,0,19.861,0
	S0,8.894,0,19.861z M27.048,22.893c0,0.689-0.793,1.086-1.347,0.674l-3.879-2.897c-0.539-0.404-0.539-1.213,0-1.618l3.879-2.896
	c0.553-0.412,1.347-0.015,1.347,0.674V22.893z M8.587,19.052L25.701,6.258c0.553-0.418,1.347-0.021,1.347,0.674v2.508
	c0,0.666-0.321,1.302-0.861,1.707l-10.772,8.055c-0.434,0.33-0.434,0.988,0,1.317l10.772,8.055c0.54,0.404,0.861,1.041,0.861,1.714
	v2.501c0,0.696-0.793,1.093-1.347,0.673L8.587,20.67C8.048,20.266,8.048,19.457,8.587,19.052z"/>
</svg>
