<?xml version="1.0" encoding="utf-8"?>
<!-- Generator: Adobe Illustrator 16.0.0, SVG Export Plug-In . SVG Version: 6.00 Build 0)  -->
<!DOCTYPE svg PUBLIC "-//W3C//DTD SVG 1.1//EN" "http://www.w3.org/Graphics/SVG/1.1/DTD/svg11.dtd">
<svg version="1.1" id="Capa_1" xmlns="http://www.w3.org/2000/svg" xmlns:xlink="http://www.w3.org/1999/xlink" x="0px" y="0px"
	 width="39.723px" height="39.723px" viewBox="0 0 39.723 39.723" enable-background="new 0 0 39.723 39.723" xml:space="preserve">
<path fill="#A0C219" d="M19.861,0C8.894,0,0,8.894,0,19.861c0,10.967,8.894,19.861,19.861,19.861s19.861-8.895,19.861-19.861
	C39.723,8.894,30.829,0,19.861,0z M16.83,27.048c-0.689,0-1.086-0.794-0.675-1.347l2.897-3.879c0.404-0.539,1.213-0.539,1.618,0
	l2.896,3.879c0.411,0.553,0.015,1.347-0.674,1.347H16.83z M20.671,8.587l12.794,17.114c0.418,0.553,0.021,1.347-0.675,1.347h-2.508
	c-0.666,0-1.303-0.321-1.707-0.861l-8.055-10.772c-0.33-0.434-0.988-0.434-1.318,0l-8.055,10.772
	c-0.404,0.54-1.041,0.861-1.714,0.861H6.933c-0.696,0-1.093-0.794-0.674-1.347L19.053,8.587C19.457,8.048,20.266,8.048,20.671,8.587
	z"/>
</svg>
