<?xml version="1.0" encoding="utf-8"?>
<!-- Generator: Adobe Illustrator 16.0.0, SVG Export Plug-In . SVG Version: 6.00 Build 0)  -->
<!DOCTYPE svg PUBLIC "-//W3C//DTD SVG 1.1//EN" "http://www.w3.org/Graphics/SVG/1.1/DTD/svg11.dtd">
<svg version="1.1" id="Capa_1" xmlns="http://www.w3.org/2000/svg" xmlns:xlink="http://www.w3.org/1999/xlink" x="0px" y="0px"
	 width="530.722px" height="385.086px" viewBox="0 0 530.722 385.086" enable-background="new 0 0 530.722 385.086"
	 xml:space="preserve">
<g>
	<g>
		<path fill="#F2961C" d="M4.501,6.991h3.537V35.8H4.501V6.991z"/>
		<path fill="#F2961C" d="M13.934,6.991h4.559l5.528,27.09h0.052l-0.498-27.09h3.013V35.8h-4.611L16.501,9.081h-0.105L16.868,35.8
			h-2.935L13.934,6.991L13.934,6.991z"/>
		<path fill="#F2961C" d="M30.021,6.991h11.345v2.285h-3.983V35.8h-3.38V9.276h-3.982V6.991z"/>
		<path fill="#F2961C" d="M44.851,6.991h5.083c2.62,0,4.393,0.273,5.319,0.82c0.926,0.547,1.389,1.53,1.389,2.949v6.523
			c0,1.198-0.306,2.044-0.917,2.539c-0.612,0.495-1.694,0.794-3.249,0.897c1.659,0.078,2.812,0.365,3.458,0.859
			c0.646,0.495,0.97,1.354,0.97,2.578V35.8h-3.538V25.038c0-1.354-0.258-2.233-0.773-2.637c-0.515-0.404-1.576-0.605-3.183-0.605
			h-1.231V35.8h-3.328V6.991z M48.179,9.12v10.527h1.179c1.52,0,2.533-0.198,3.04-0.596c0.506-0.397,0.76-1.279,0.76-2.646v-4.004
			c0-1.38-0.253-2.272-0.76-2.676c-0.507-0.403-1.52-0.605-3.04-0.605H48.179z"/>
		<path fill="#F2961C" d="M74.72,12.87v17.051c0,2.474-0.445,4.153-1.336,5.039c-0.891,0.886-2.481,1.328-4.769,1.328
			c-2.253,0-3.825-0.449-4.716-1.348c-0.891-0.898-1.336-2.571-1.336-5.02V12.87c0-2.422,0.45-4.079,1.349-4.971
			s2.485-1.338,4.756-1.338s3.847,0.443,4.729,1.328C74.279,8.775,74.72,10.436,74.72,12.87z M71.235,12.479
			c0-1.458-0.192-2.458-0.576-2.998c-0.384-0.54-1.066-0.811-2.044-0.811c-0.96,0-1.629,0.264-2.004,0.791s-0.563,1.533-0.563,3.018
			v17.832c0,1.497,0.192,2.507,0.576,3.027s1.065,0.781,2.044,0.781c0.96,0,1.628-0.261,2.004-0.781
			c0.375-0.521,0.563-1.53,0.563-3.027V12.479z"/>
		<path fill="#F2961C" d="M80.589,6.991h3.904c3.301,0,5.458,0.388,6.472,1.162c1.013,0.775,1.52,2.549,1.52,5.322v15.84
			c0,2.761-0.516,4.531-1.546,5.312c-1.031,0.781-3.18,1.172-6.446,1.172h-3.904V6.991z M83.917,9.12v24.551h1.074
			c1.607,0,2.668-0.198,3.183-0.596c0.515-0.398,0.773-1.272,0.773-2.627V12.401c0-1.367-0.262-2.256-0.786-2.666
			c-0.524-0.41-1.581-0.615-3.17-0.615H83.917z"/>
		<path fill="#F2961C" d="M98.196,6.991h3.485v23.32c0,1.497,0.192,2.507,0.576,3.027c0.384,0.52,1.065,0.781,2.044,0.781
			c0.96,0,1.628-0.261,2.004-0.781c0.375-0.521,0.563-1.53,0.563-3.027V6.991h3.485v22.93c0,2.474-0.445,4.153-1.336,5.039
			c-0.891,0.886-2.481,1.328-4.769,1.328c-2.253,0-3.825-0.449-4.716-1.348c-0.891-0.898-1.336-2.571-1.336-5.02V6.991z"/>
		<path fill="#F2961C" d="M127.279,11.562v2.754h-3.511V11.64c0-1.12-0.162-1.895-0.485-2.324c-0.323-0.429-0.895-0.645-1.716-0.645
			c-0.751,0-1.275,0.244-1.572,0.732c-0.297,0.488-0.445,1.514-0.445,3.076v17.832c0,1.602,0.157,2.644,0.472,3.125
			s0.891,0.723,1.729,0.723c0.716,0,1.231-0.228,1.546-0.684s0.472-1.23,0.472-2.324v-3.105h3.511v3.203
			c0,1.966-0.411,3.298-1.231,3.994c-0.821,0.696-2.288,1.045-4.401,1.045c-2.079,0-3.529-0.449-4.35-1.348
			c-0.821-0.898-1.231-2.571-1.231-5.02V12.87c0-2.435,0.41-4.095,1.231-4.98c0.821-0.885,2.271-1.328,4.35-1.328
			c2.131,0,3.603,0.345,4.415,1.035C126.874,8.287,127.279,9.608,127.279,11.562z"/>
		<path fill="#F2961C" d="M142.686,11.562v2.754h-3.511V11.64c0-1.12-0.162-1.895-0.485-2.324c-0.323-0.429-0.895-0.645-1.716-0.645
			c-0.751,0-1.275,0.244-1.572,0.732c-0.297,0.488-0.445,1.514-0.445,3.076v17.832c0,1.602,0.157,2.644,0.472,3.125
			c0.315,0.481,0.891,0.723,1.729,0.723c0.716,0,1.231-0.228,1.546-0.684s0.472-1.23,0.472-2.324v-3.105h3.511v3.203
			c0,1.966-0.411,3.298-1.231,3.994c-0.821,0.696-2.288,1.045-4.401,1.045c-2.079,0-3.529-0.449-4.35-1.348
			c-0.821-0.898-1.231-2.571-1.231-5.02V12.87c0-2.435,0.41-4.095,1.231-4.98c0.821-0.885,2.271-1.328,4.35-1.328
			c2.131,0,3.603,0.345,4.415,1.035C142.28,8.287,142.686,9.608,142.686,11.562z"/>
		<path fill="#F2961C" d="M147.035,6.991h3.537V35.8h-3.537V6.991z"/>
		<path fill="#F2961C" d="M168.468,12.87v17.051c0,2.474-0.445,4.153-1.336,5.039c-0.891,0.886-2.481,1.328-4.769,1.328
			c-2.253,0-3.825-0.449-4.716-1.348c-0.891-0.898-1.336-2.571-1.336-5.02V12.87c0-2.422,0.45-4.079,1.349-4.971
			s2.485-1.338,4.756-1.338s3.847,0.443,4.729,1.328C168.026,8.775,168.468,10.436,168.468,12.87z M164.983,12.479
			c0-1.458-0.192-2.458-0.576-2.998c-0.384-0.54-1.066-0.811-2.044-0.811c-0.96,0-1.629,0.264-2.004,0.791s-0.563,1.533-0.563,3.018
			v17.832c0,1.497,0.192,2.507,0.576,3.027c0.384,0.52,1.065,0.781,2.044,0.781c0.96,0,1.628-0.261,2.004-0.781
			c0.375-0.521,0.563-1.53,0.563-3.027V12.479z M163.228,0.019h3.694l-3.432,4.355h-2.568L163.228,0.019z"/>
		<path fill="#F2961C" d="M174.337,6.991h4.559l5.528,27.09h0.052l-0.498-27.09h3.013V35.8h-4.611l-5.476-26.719H176.8l0.472,26.719
			h-2.935V6.991z"/>
	</g>
	<polygon fill="#F2961C" points="315.125,336.176 329.267,385.086 514.167,375.055 525.503,336.176 	"/>
	<g>
		<g>
			<path fill="#331842" d="M335.505,345.331h2.721v21.682h4.904v1.869h-7.625V345.331z"/>
			<path fill="#331842" d="M345.766,345.331h2.892v23.551h-2.892V345.331z"/>
			<path fill="#331842" d="M353.477,345.331h3.728l4.52,22.145h0.043l-0.407-22.145h2.463v23.551h-3.771l-4.477-21.842h-0.084
				l0.385,21.842h-2.398L353.477,345.331L353.477,345.331z"/>
			<path fill="#331842" d="M368.707,345.331h7.539v1.867h-4.818v8.479h4.605v1.852h-4.605v9.484h4.947v1.867h-7.668V345.331
				L368.707,345.331z"/>
			<path fill="#331842" d="M382.971,345.331h3.983l4.562,23.551h-2.934l-1.092-6.547h-5.185l-1.179,6.547h-2.869L382.971,345.331z
				 M384.855,347.071l-2.292,13.539h4.562l-2.142-13.539H384.855z"/>
			<path fill="#331842" d="M401.113,345.331h3.191c2.699,0,4.461,0.316,5.291,0.949c0.828,0.635,1.242,2.084,1.242,4.352v12.949
				c0,2.256-0.422,3.705-1.264,4.342c-0.844,0.641-2.6,0.959-5.27,0.959h-3.191V345.331L401.113,345.331z M403.833,347.071v20.068
				h0.877c1.314,0,2.182-0.16,2.604-0.486c0.422-0.324,0.633-1.041,0.633-2.146v-14.754c0-1.117-0.215-1.844-0.645-2.18
				c-0.428-0.334-1.291-0.502-2.592-0.502H403.833L403.833,347.071z"/>
			<path fill="#331842" d="M415.634,345.331h7.541v1.867h-4.818v8.479h4.604v1.852h-4.604v9.484h4.947v1.867h-7.668v-23.549H415.634
				z"/>
			<path fill="#331842" d="M431.849,345.331h9.273v1.867h-3.254v21.684h-2.764v-21.684h-3.256V345.331L431.849,345.331z"/>
			<path fill="#331842" d="M443.972,345.331h2.893v23.551h-2.893V345.331z"/>
			<path fill="#331842" d="M451.683,345.331h7.541v1.867h-4.818v8.479h4.604v1.852h-4.604v9.484h4.947v1.867h-7.668v-23.549H451.683
				z"/>
			<path fill="#331842" d="M463.271,345.331h4.732l3.064,21.682h0.213l3-21.682h4.604v23.551h-2.377v-21.779h-0.428l-3.084,21.779
				h-3.812l-3.191-21.779h-0.363v21.779h-2.357V345.331L463.271,345.331z"/>
			<path fill="#331842" d="M483.791,345.331h3.514c2.143,0,3.598,0.225,4.369,0.678s1.156,1.254,1.156,2.402v6.77
				c0,1.15-0.385,1.949-1.156,2.396s-2.229,0.67-4.369,0.67h-0.793v10.635h-2.721V345.331z M486.511,347.071v9.451h0.729
				c1.086,0,1.811-0.162,2.174-0.486c0.365-0.326,0.547-1.057,0.547-2.195v-4.088c0-1.139-0.182-1.871-0.547-2.195
				c-0.363-0.324-1.088-0.486-2.174-0.486H486.511L486.511,347.071z"/>
			<path fill="#331842" d="M505.982,350.135v13.939c0,2.021-0.365,3.395-1.094,4.119s-2.027,1.086-3.896,1.086
				c-1.842,0-3.127-0.367-3.855-1.104c-0.729-0.732-1.092-2.102-1.092-4.104v-13.938c0-1.98,0.367-3.334,1.102-4.062
				c0.736-0.73,2.031-1.096,3.889-1.096c1.855,0,3.145,0.363,3.867,1.086C505.621,346.788,505.982,348.145,505.982,350.135z
				 M503.132,349.817c0-1.193-0.158-2.01-0.471-2.451c-0.314-0.441-0.871-0.664-1.672-0.664c-0.785,0-1.332,0.215-1.639,0.646
				s-0.461,1.254-0.461,2.469v14.576c0,1.225,0.158,2.049,0.473,2.475c0.312,0.426,0.871,0.639,1.67,0.639
				c0.785,0,1.332-0.211,1.639-0.639c0.307-0.424,0.461-1.25,0.461-2.475V349.817z"/>
		</g>
	</g>
</g>
</svg>
