<?xml version="1.0" encoding="utf-8"?>
<!-- Generator: Adobe Illustrator 16.0.0, SVG Export Plug-In . SVG Version: 6.00 Build 0)  -->
<!DOCTYPE svg PUBLIC "-//W3C//DTD SVG 1.1//EN" "http://www.w3.org/Graphics/SVG/1.1/DTD/svg11.dtd">
<svg version="1.1" id="Capa_1" xmlns="http://www.w3.org/2000/svg" xmlns:xlink="http://www.w3.org/1999/xlink" x="0px" y="0px"
	 width="458.871px" height="185.953px" viewBox="0 0 458.871 185.953" enable-background="new 0 0 458.871 185.953"
	 xml:space="preserve">
<g>
	<path fill="#A0C219" d="M147.938,83.604V0.081c-2.191,0.084-4.611,0.127-4.893-0.081v83.604H147.938z"/>
	<rect x="0.72" y="67.462" fill="#A0C219" width="454.027" height="28.323"/>
	<polygon fill="#A0C219" points="176.089,29.48 176.089,50.697 171.11,50.697 174.269,56.17 177.429,61.64 180.587,56.17 
		183.747,50.697 178.769,50.697 178.769,29.48 	"/>
	<g>
		<g>
			<path fill="#FFFFFF" d="M167.933,72.657h5.534v1.371h-3.538v6.223h3.38v1.359h-3.38v6.961h3.632v1.371h-5.628V72.657z"/>
			<path fill="#FFFFFF" d="M176.438,72.657h3.05c1.571,0,2.636,0.164,3.19,0.492c0.557,0.328,0.834,0.918,0.834,1.77v3.914
				c0,0.719-0.184,1.227-0.551,1.523c-0.367,0.296-1.016,0.477-1.949,0.539c0.996,0.047,1.688,0.219,2.075,0.516
				c0.387,0.297,0.582,0.812,0.582,1.547v6.984h-2.122v-6.457c0-0.812-0.155-1.34-0.465-1.582c-0.309-0.242-0.945-0.363-1.909-0.363
				h-0.739v8.402h-1.996V72.657L176.438,72.657z M178.434,73.935v6.316h0.707c0.912,0,1.52-0.119,1.824-0.357
				c0.304-0.238,0.456-0.768,0.456-1.588v-2.402c0-0.828-0.152-1.363-0.456-1.605c-0.305-0.242-0.912-0.363-1.824-0.363
				L178.434,73.935L178.434,73.935z"/>
			<path fill="#FFFFFF" d="M189.124,72.657h2.924l3.349,17.285h-2.154l-0.801-4.805h-3.805l-0.865,4.805h-2.105L189.124,72.657z
				 M190.508,73.935l-1.683,9.938h3.349l-1.572-9.938H190.508z"/>
			<path fill="#FFFFFF" d="M202.439,72.657h2.122v17.285h-2.122V72.657z"/>
			<path fill="#FFFFFF" d="M208.1,72.657h2.734l3.317,16.254h0.031l-0.298-16.254h1.807v17.285h-2.766l-3.286-16.031h-0.063
				l0.283,16.031h-1.76L208.1,72.657L208.1,72.657z"/>
			<path fill="#FFFFFF" d="M219.276,72.657h2.343c1.98,0,3.274,0.232,3.883,0.697c0.607,0.465,0.912,1.529,0.912,3.193v9.504
				c0,1.656-0.311,2.719-0.928,3.188c-0.619,0.469-1.908,0.703-3.867,0.703h-2.343V72.657z M221.272,73.935v14.73h0.645
				c0.964,0,1.601-0.119,1.91-0.357c0.309-0.238,0.464-0.764,0.464-1.576V75.903c0-0.82-0.157-1.354-0.472-1.6
				c-0.315-0.246-0.948-0.369-1.902-0.369L221.272,73.935L221.272,73.935z"/>
			<path fill="#FFFFFF" d="M229.84,72.657h2.092v13.992c0,0.898,0.115,1.504,0.346,1.816c0.231,0.312,0.64,0.469,1.228,0.469
				c0.576,0,0.978-0.156,1.202-0.469s0.338-0.918,0.338-1.816V72.657h2.091v13.758c0,1.484-0.268,2.492-0.802,3.023
				s-1.488,0.797-2.859,0.797c-1.354,0-2.297-0.27-2.83-0.809c-0.535-0.539-0.804-1.543-0.804-3.012L229.84,72.657L229.84,72.657z"
				/>
			<path fill="#FFFFFF" d="M246.709,75.399v1.652h-2.091v-1.605c0-0.68-0.095-1.146-0.283-1.4s-0.524-0.381-1.006-0.381
				c-0.462,0-0.786,0.143-0.976,0.428c-0.188,0.285-0.283,0.791-0.283,1.518v0.844c0,0.352,0.065,0.713,0.197,1.084
				c0.131,0.371,0.321,0.721,0.573,1.049l2.609,3.434c0.44,0.578,0.76,1.123,0.959,1.635c0.198,0.512,0.299,1.041,0.299,1.588v1.172
				c0,1.5-0.254,2.512-0.763,3.035c-0.51,0.523-1.412,0.785-2.713,0.785c-1.268,0-2.149-0.211-2.647-0.633s-0.747-1.219-0.747-2.391
				V85.29h2.105v1.863c0,0.703,0.096,1.18,0.283,1.43c0.188,0.25,0.535,0.375,1.037,0.375c0.514,0,0.867-0.143,1.062-0.428
				c0.195-0.285,0.291-0.912,0.291-1.881v-1.195c0-0.445-0.057-0.85-0.165-1.213c-0.109-0.363-0.271-0.693-0.479-0.99l-2.767-3.68
				c-0.39-0.492-0.685-0.961-0.89-1.406c-0.203-0.445-0.307-0.832-0.307-1.16v-1.008c0-1.344,0.249-2.279,0.747-2.807
				c0.497-0.527,1.354-0.791,2.57-0.791c1.278,0,2.161,0.207,2.649,0.621C246.465,73.435,246.709,74.228,246.709,75.399z"/>
			<path fill="#FFFFFF" d="M247.982,72.657h6.807v1.371H252.4v15.914h-2.029V74.028h-2.389V72.657z"/>
			<path fill="#FFFFFF" d="M256.881,72.657h3.049c1.572,0,2.637,0.164,3.191,0.492s0.834,0.918,0.834,1.77v3.914
				c0,0.719-0.184,1.227-0.551,1.523s-1.018,0.477-1.949,0.539c0.995,0.047,1.688,0.219,2.074,0.516
				c0.389,0.297,0.582,0.812,0.582,1.547v6.984h-2.122v-6.457c0-0.812-0.155-1.34-0.464-1.582c-0.31-0.242-0.945-0.363-1.91-0.363
				h-0.738v8.402h-1.996V72.657L256.881,72.657z M258.877,73.935v6.316h0.707c0.912,0,1.52-0.119,1.824-0.357
				c0.303-0.238,0.455-0.768,0.455-1.588v-2.402c0-0.828-0.152-1.363-0.455-1.605c-0.305-0.242-0.912-0.363-1.824-0.363
				L258.877,73.935L258.877,73.935z"/>
			<path fill="#FFFFFF" d="M267.602,72.657h2.123v17.285h-2.123V72.657z"/>
			<path fill="#FFFFFF" d="M275.227,72.657h2.924l3.349,17.285h-2.153l-0.802-4.805h-3.806l-0.863,4.805h-2.105L275.227,72.657z
				 M276.609,73.935l-1.683,9.938h3.349l-1.572-9.938H276.609z"/>
			<path fill="#FFFFFF" d="M283.621,72.657h1.996v15.914h3.6v1.371h-5.596V72.657z"/>
		</g>
	</g>
</g>
</svg>
