<?xml version="1.0" encoding="utf-8"?>
<!-- Generator: Adobe Illustrator 16.0.0, SVG Export Plug-In . SVG Version: 6.00 Build 0)  -->
<!DOCTYPE svg PUBLIC "-//W3C//DTD SVG 1.1//EN" "http://www.w3.org/Graphics/SVG/1.1/DTD/svg11.dtd">
<svg version="1.1" id="Capa_1" xmlns="http://www.w3.org/2000/svg" xmlns:xlink="http://www.w3.org/1999/xlink" x="0px" y="0px"
	 width="298.863px" height="185.953px" viewBox="0 0 298.863 185.953" enable-background="new 0 0 298.863 185.953"
	 xml:space="preserve">
<g>
	<path fill="#A0C219" d="M24.996,83.604V0.081C22.805,0.165,20.385,0.208,20.102,0v83.604H24.996z"/>
	<rect x="0" y="67.462" fill="#A0C219" width="295.109" height="28.323"/>
	<polygon fill="#A0C219" points="53.146,29.48 53.146,50.697 48.168,50.697 51.326,56.17 54.484,61.64 57.645,56.17 60.805,50.697 
		55.824,50.697 55.824,29.48 	"/>
	<g>
		<g>
			<path fill="#FFFFFF" d="M91.666,76.185v0.891h-2.09V75.95c0-0.875-0.124-1.475-0.37-1.799c-0.246-0.324-0.673-0.486-1.281-0.486
				c-0.587,0-1.001,0.168-1.24,0.504c-0.242,0.336-0.362,0.93-0.362,1.781v10.676c0,0.914,0.132,1.531,0.396,1.852
				c0.265,0.321,0.731,0.48,1.405,0.48c0.2,0,0.421-0.013,0.663-0.041c0.242-0.027,0.506-0.068,0.791-0.123l0.016-6.07H87.8v-1.277
				h3.867v8.203c-0.639,0.195-1.263,0.342-1.87,0.439c-0.607,0.098-1.222,0.146-1.839,0.146c-1.384,0-2.351-0.271-2.899-0.814
				c-0.552-0.543-0.826-1.545-0.826-3.006v-10.23c0-1.453,0.271-2.447,0.817-2.982c0.545-0.535,1.515-0.803,2.908-0.803
				c1.383,0,2.349,0.264,2.894,0.791S91.666,74.716,91.666,76.185z"/>
			<path fill="#FFFFFF" d="M95.141,72.657h3.051c1.571,0,2.635,0.164,3.189,0.492c0.556,0.328,0.833,0.918,0.833,1.77v3.914
				c0,0.719-0.184,1.227-0.55,1.523c-0.367,0.297-1.017,0.477-1.949,0.539c0.995,0.047,1.688,0.219,2.075,0.516
				s0.582,0.813,0.582,1.547v6.984h-2.123v-6.457c0-0.812-0.153-1.34-0.464-1.582c-0.31-0.242-0.946-0.363-1.909-0.363h-0.739v8.402
				h-1.996V72.657z M97.137,73.935v6.316h0.708c0.911,0,1.52-0.119,1.822-0.357c0.306-0.238,0.457-0.768,0.457-1.588v-2.402
				c0-0.828-0.151-1.363-0.457-1.605c-0.304-0.242-0.911-0.363-1.822-0.363L97.137,73.935L97.137,73.935z"/>
			<path fill="#FFFFFF" d="M105.863,72.657h5.533v1.371h-3.537v6.223h3.38v1.359h-3.38v6.961h3.631v1.371h-5.627V72.657z"/>
			<path fill="#FFFFFF" d="M121.002,75.399v1.652h-2.106v-1.605c0-0.672-0.098-1.137-0.291-1.395
				c-0.193-0.258-0.537-0.387-1.029-0.387c-0.451,0-0.766,0.146-0.943,0.439c-0.177,0.293-0.268,0.908-0.268,1.846v10.699
				c0,0.961,0.096,1.586,0.283,1.875c0.188,0.289,0.535,0.434,1.038,0.434c0.43,0,0.738-0.136,0.927-0.41
				c0.188-0.273,0.283-0.738,0.283-1.395V85.29h2.106v1.922c0,1.18-0.246,1.979-0.738,2.396c-0.493,0.418-1.373,0.627-2.643,0.627
				c-1.246,0-2.117-0.27-2.608-0.809c-0.492-0.539-0.738-1.542-0.738-3.012v-10.23c0-1.46,0.246-2.457,0.738-2.988
				c0.491-0.531,1.362-0.797,2.608-0.797c1.279,0,2.162,0.207,2.649,0.621C120.758,73.435,121.002,74.228,121.002,75.399z"/>
			<path fill="#FFFFFF" d="M123.611,72.657h2.122v17.285h-2.122V72.657z"/>
			<path fill="#FFFFFF" d="M131.235,72.657h2.924l3.349,17.285h-2.153l-0.801-4.805h-3.806l-0.865,4.805h-2.104L131.235,72.657z
				 M132.619,73.935l-1.683,9.938h3.349l-1.572-9.938H132.619z"/>
			<path fill="#FFFFFF" d="M142.774,72.657h2.122l2.092,7.875h0.172l1.887-7.875h2.061l-3.175,9.938v7.348h-2.029v-7.348
				L142.774,72.657z"/>
			<path fill="#FFFFFF" d="M157.914,72.657h3.049c1.572,0,2.637,0.164,3.191,0.492s0.834,0.918,0.834,1.77v3.914
				c0,0.719-0.184,1.227-0.551,1.523c-0.367,0.297-1.018,0.477-1.949,0.539c0.995,0.047,1.688,0.219,2.074,0.516
				c0.389,0.297,0.582,0.813,0.582,1.547v6.984h-2.122v-6.457c0-0.812-0.155-1.34-0.464-1.582c-0.31-0.242-0.945-0.363-1.91-0.363
				h-0.738v8.402h-1.996V72.657L157.914,72.657z M159.91,73.935v6.316h0.707c0.912,0,1.521-0.119,1.824-0.357
				c0.303-0.238,0.455-0.768,0.455-1.588v-2.402c0-0.828-0.152-1.363-0.455-1.605c-0.305-0.242-0.912-0.363-1.824-0.363
				L159.91,73.935L159.91,73.935z"/>
			<path fill="#FFFFFF" d="M175.835,76.185v10.23c0,1.484-0.267,2.492-0.802,3.023c-0.534,0.531-1.488,0.797-2.861,0.797
				c-1.352,0-2.295-0.27-2.83-0.809c-0.532-0.539-0.801-1.542-0.801-3.012v-10.23c0-1.453,0.271-2.447,0.81-2.982
				c0.541-0.535,1.491-0.803,2.854-0.803c1.363,0,2.31,0.266,2.838,0.797C175.57,73.728,175.835,74.724,175.835,76.185z
				 M173.744,75.95c0-0.875-0.115-1.475-0.346-1.799c-0.23-0.324-0.641-0.486-1.228-0.486c-0.575,0-0.977,0.158-1.201,0.475
				c-0.226,0.317-0.34,0.92-0.34,1.811V86.65c0,0.898,0.115,1.504,0.348,1.816c0.229,0.312,0.64,0.469,1.226,0.469
				c0.576,0,0.979-0.156,1.203-0.469c0.225-0.312,0.338-0.918,0.338-1.816V75.95z"/>
			<path fill="#FFFFFF" d="M179.357,72.657h3.474l2.248,15.914h0.157l2.201-15.914h3.379v17.285h-1.744V73.958h-0.314l-2.264,15.984
				h-2.799l-2.342-15.984h-0.269v15.984h-1.729L179.357,72.657L179.357,72.657z"/>
			<path fill="#FFFFFF" d="M196.382,72.657h2.925l3.349,17.285H200.5l-0.801-4.805h-3.805l-0.865,4.805h-2.105L196.382,72.657z
				 M197.766,73.935l-1.684,9.938h3.35l-1.572-9.938H197.766z"/>
		</g>
	</g>
</g>
</svg>
