<?xml version="1.0" encoding="utf-8"?>
<!-- Generator: Adobe Illustrator 16.0.0, SVG Export Plug-In . SVG Version: 6.00 Build 0)  -->
<!DOCTYPE svg PUBLIC "-//W3C//DTD SVG 1.1//EN" "http://www.w3.org/Graphics/SVG/1.1/DTD/svg11.dtd">
<svg version="1.1" id="Capa_1" xmlns="http://www.w3.org/2000/svg" xmlns:xlink="http://www.w3.org/1999/xlink" x="0px" y="0px"
	 width="357.969px" height="185.953px" viewBox="0 0 357.969 185.953" enable-background="new 0 0 357.969 185.953"
	 xml:space="preserve">
<g>
	<path fill="#331842" d="M26.492,83.604V0.081C24.301,0.165,21.881,0.208,21.598,0v83.604H26.492z"/>
	<rect y="67.462" fill="#331842" width="355.705" height="28.323"/>
	<polygon fill="#331842" points="54.643,29.48 54.643,50.697 49.664,50.697 52.822,56.17 55.98,61.64 59.141,56.17 62.301,50.697 
		57.32,50.697 57.32,29.48 	"/>
	<g>
		<g>
			<path fill="#FFFFFF" d="M131.987,72.657h5.534v1.371h-3.538v6.223h3.38v1.359h-3.38v6.961h3.632v1.371h-5.628V72.657z"/>
			<path fill="#FFFFFF" d="M140.492,72.657h2.342c1.98,0,3.275,0.233,3.883,0.697c0.608,0.465,0.912,1.529,0.912,3.193v9.504
				c0,1.657-0.309,2.719-0.928,3.188c-0.618,0.469-1.907,0.703-3.867,0.703h-2.342V72.657z M142.488,73.935v14.73h0.645
				c0.965,0,1.602-0.119,1.91-0.357c0.309-0.238,0.464-0.763,0.464-1.576V75.903c0-0.82-0.157-1.354-0.472-1.6
				c-0.315-0.246-0.949-0.369-1.902-0.369L142.488,73.935L142.488,73.935z"/>
			<path fill="#FFFFFF" d="M153.115,72.657h2.924l3.35,17.285h-2.154l-0.802-4.805h-3.804l-0.865,4.805h-2.106L153.115,72.657z
				 M154.499,73.935l-1.683,9.938h3.35l-1.572-9.938H154.499z"/>
			<path fill="#FFFFFF" d="M161.511,72.657h2.343c1.98,0,3.274,0.233,3.883,0.697c0.607,0.465,0.912,1.529,0.912,3.193v9.504
				c0,1.657-0.311,2.719-0.928,3.188c-0.619,0.469-1.908,0.703-3.867,0.703h-2.343V72.657z M163.507,73.935v14.73h0.645
				c0.964,0,1.601-0.119,1.91-0.357c0.31-0.238,0.464-0.763,0.464-1.576V75.903c0-0.82-0.157-1.354-0.472-1.6
				c-0.315-0.246-0.948-0.369-1.902-0.369L163.507,73.935L163.507,73.935z"/>
			<path fill="#FFFFFF" d="M177.09,72.657h3.475l2.248,15.914h0.156l2.201-15.914h3.38v17.285h-1.745V73.958h-0.313l-2.265,15.984
				h-2.797l-2.344-15.984h-0.268v15.984h-1.729L177.09,72.657L177.09,72.657z"/>
			<path fill="#FFFFFF" d="M192.15,72.657h5.533v1.371h-3.537v6.223h3.381v1.359h-3.381v6.961h3.631v1.371h-5.627V72.657z"/>
			<path fill="#FFFFFF" d="M200.654,72.657h2.344c1.98,0,3.273,0.233,3.883,0.697c0.607,0.465,0.912,1.529,0.912,3.193v9.504
				c0,1.657-0.311,2.719-0.928,3.188c-0.619,0.469-1.908,0.703-3.867,0.703h-2.344V72.657z M202.65,73.935v14.73h0.646
				c0.964,0,1.601-0.119,1.91-0.357c0.31-0.238,0.464-0.763,0.464-1.576V75.903c0-0.82-0.156-1.354-0.472-1.6
				c-0.315-0.246-0.948-0.369-1.902-0.369L202.65,73.935L202.65,73.935z"/>
			<path fill="#FFFFFF" d="M211.314,72.657h2.121v17.285h-2.121V72.657z"/>
			<path fill="#FFFFFF" d="M218.938,72.657h2.924l3.351,17.285h-2.153l-0.803-4.805h-3.804l-0.865,4.805h-2.106L218.938,72.657z
				 M220.32,73.935l-1.682,9.938h3.35l-1.572-9.938H220.32z"/>
		</g>
	</g>
</g>
</svg>
