<?xml version="1.0" encoding="utf-8"?>
<!-- Generator: Adobe Illustrator 16.0.0, SVG Export Plug-In . SVG Version: 6.00 Build 0)  -->
<!DOCTYPE svg PUBLIC "-//W3C//DTD SVG 1.1//EN" "http://www.w3.org/Graphics/SVG/1.1/DTD/svg11.dtd">
<svg version="1.1" id="Capa_1" xmlns="http://www.w3.org/2000/svg" xmlns:xlink="http://www.w3.org/1999/xlink" x="0px" y="0px"
	 width="192.654px" height="330.032px" viewBox="0 0 192.654 330.032" enable-background="new 0 0 192.654 330.032"
	 xml:space="preserve">
<g>
	<path fill="#2C5A67" d="M154.3,18.343c6.917,0,12.524,6.244,12.524,13.945v9.379c0,7.701-5.607,43.283-12.524,43.283h-1.575
		c-6.918,0-12.526-6.242-12.526-13.943V32.289c0-7.701,5.608-13.945,12.526-13.945H154.3L154.3,18.343z"/>
	<g>
		<path fill="#FFFFFF" d="M146.837,35.558c0-3.431,0-6.86,0-10.289c0.021-0.041,0.047-0.079,0.056-0.122
			c0.219-1.361,1.37-2.387,2.762-2.392c3.236-0.017,6.471-0.018,9.705,0c1.537,0.009,2.795,1.265,2.803,2.803
			c0.018,3.235,0.012,6.47,0,9.704c-0.002,0.702-0.254,1.321-0.732,1.853c-0.481,0.538-1.09,0.823-1.78,0.965
			c-3.431,0-6.859,0-10.289,0c-0.541-0.123-1.051-0.303-1.486-0.673C147.296,36.913,146.98,36.287,146.837,35.558z M154.503,35.543
			c1.523,0,3.043,0,4.564-0.002c0.455,0,0.562-0.107,0.562-0.558c0.004-3.042,0.004-6.084,0-9.126c0-0.47-0.104-0.573-0.582-0.573
			c-3.03-0.001-6.061-0.001-9.092,0c-0.475,0-0.58,0.104-0.58,0.575c-0.002,3.03-0.002,6.061,0,9.092
			c0,0.491,0.101,0.589,0.601,0.589C151.486,35.543,152.994,35.543,154.503,35.543z"/>
		<path fill="#FFFFFF" d="M154.529,27.859c1.02,0,2.041,0.002,3.062-0.004c0.281,0,0.513,0.069,0.658,0.328
			c0.156,0.276,0.088,0.512-0.084,0.753c-1.039,1.444-2.07,2.895-3.108,4.339c-0.324,0.453-0.787,0.445-1.117-0.012
			c-1.029-1.436-2.056-2.878-3.086-4.312c-0.172-0.237-0.261-0.474-0.105-0.754c0.148-0.273,0.392-0.345,0.685-0.343
			C152.462,27.863,153.496,27.859,154.529,27.859z"/>
	</g>
	<polygon fill="#2C5A67" points="192.433,277.254 51.818,284.023 27.582,330.032 180.941,326.543 182.07,321.713 	"/>
	<polygon fill="#F2961C" points="192.654,277.09 52.072,284.532 23.32,241.202 176.25,229.209 177.861,233.902 	"/>
	<polygon fill="#F2961C" points="8.039,192.67 148.685,186.551 173.132,140.655 19.759,143.434 18.607,148.259 	"/>
	<polygon fill="#2C5A67" points="7.817,192.833 148.433,186.042 176.984,229.504 24,240.788 22.411,236.088 	"/>
	<polygon fill="#2C5A67" points="184.617,91.213 44,97.982 19.764,143.991 173.125,140.503 174.253,135.673 	"/>
	<polygon fill="#F2961C" points="184.837,91.05 44.254,98.491 15.503,55.16 168.433,43.169 170.044,47.861 	"/>
	<g>
		<path fill="#FFFFFF" d="M142.521,61.438c-0.101-0.07-0.261-0.106-0.482-0.106h-0.445v0.914h0.445c0.223,0,0.375-0.041,0.479-0.114
			c0.11-0.074,0.155-0.191,0.155-0.351C142.673,61.627,142.628,61.514,142.521,61.438z M142.521,61.438
			c-0.101-0.07-0.261-0.106-0.482-0.106h-0.445v0.914h0.445c0.223,0,0.375-0.041,0.479-0.114c0.11-0.074,0.155-0.191,0.155-0.351
			C142.673,61.627,142.628,61.514,142.521,61.438z M142.521,61.438c-0.101-0.07-0.261-0.106-0.482-0.106h-0.445v0.914h0.445
			c0.223,0,0.375-0.041,0.479-0.114c0.11-0.074,0.155-0.191,0.155-0.351C142.673,61.627,142.628,61.514,142.521,61.438z
			 M146.502,61.601c-0.188-0.173-0.487-0.261-0.899-0.261h-0.361v2.163h0.361c0.414,0,0.717-0.088,0.899-0.254
			c0.183-0.167,0.275-0.444,0.275-0.822C146.777,62.044,146.683,61.77,146.502,61.601z M142.521,61.438
			c-0.101-0.07-0.261-0.106-0.482-0.106h-0.445v0.914h0.445c0.223,0,0.375-0.041,0.479-0.114c0.11-0.074,0.155-0.191,0.155-0.351
			C142.673,61.627,142.628,61.514,142.521,61.438z M146.502,61.601c-0.188-0.173-0.487-0.261-0.899-0.261h-0.361v2.163h0.361
			c0.414,0,0.717-0.088,0.899-0.254c0.183-0.167,0.275-0.444,0.275-0.822C146.777,62.044,146.683,61.77,146.502,61.601z
			 M159.582,57.216h-20.793c-0.92,0-1.664,0.708-1.664,1.582v25.44c0,0.875,0.744,1.583,1.664,1.583h9.213l-0.606-0.699h-6.656
			c-0.914,0-1.66-0.709-1.66-1.585V67.218h20.469v16.319c0,0.875-0.737,1.585-1.66,1.585h-0.938l-0.558,0.699h3.188
			c0.92,0,1.658-0.708,1.658-1.583v-25.44C161.24,57.925,160.502,57.216,159.582,57.216z M143.337,62.63
			c-0.242,0.2-0.58,0.299-1.016,0.299h-0.729v1.233h-1.014v-3.477h1.674c0.474,0,0.838,0.095,1.078,0.281
			c0.248,0.188,0.367,0.466,0.367,0.827C143.699,62.152,143.58,62.43,143.337,62.63z M147.294,63.732
			c-0.354,0.286-0.885,0.43-1.596,0.43h-1.473v-3.477h1.473c0.711,0,1.242,0.146,1.596,0.433c0.355,0.292,0.529,0.727,0.529,1.308
			C147.824,63.007,147.65,63.441,147.294,63.732z M150.982,61.348h-1.554v0.808h1.439v0.657h-1.439v1.35h-1.012v-3.477h2.564
			L150.982,61.348L150.982,61.348z M145.601,61.339h-0.361v2.163h0.361c0.414,0,0.717-0.088,0.899-0.254
			c0.183-0.167,0.275-0.444,0.275-0.822c0-0.382-0.094-0.656-0.275-0.826C146.312,61.427,146.013,61.339,145.601,61.339z
			 M142.521,61.438c-0.101-0.07-0.261-0.106-0.482-0.106h-0.445v0.914h0.445c0.223,0,0.375-0.041,0.479-0.114
			c0.11-0.074,0.155-0.191,0.155-0.351C142.673,61.627,142.628,61.514,142.521,61.438z M146.502,61.601
			c-0.188-0.173-0.487-0.261-0.899-0.261h-0.361v2.163h0.361c0.414,0,0.717-0.088,0.899-0.254c0.183-0.167,0.275-0.444,0.275-0.822
			C146.777,62.044,146.683,61.77,146.502,61.601z M142.521,61.438c-0.101-0.07-0.261-0.106-0.482-0.106h-0.445v0.914h0.445
			c0.223,0,0.375-0.041,0.479-0.114c0.11-0.074,0.155-0.191,0.155-0.351C142.673,61.627,142.628,61.514,142.521,61.438z
			 M146.502,61.601c-0.188-0.173-0.487-0.261-0.899-0.261h-0.361v2.163h0.361c0.414,0,0.717-0.088,0.899-0.254
			c0.183-0.167,0.275-0.444,0.275-0.822C146.777,62.044,146.683,61.77,146.502,61.601z M142.521,61.438
			c-0.101-0.07-0.261-0.106-0.482-0.106h-0.445v0.914h0.445c0.223,0,0.375-0.041,0.479-0.114c0.11-0.074,0.155-0.191,0.155-0.351
			C142.673,61.627,142.628,61.514,142.521,61.438z"/>
		<polygon fill="#FFFFFF" points="147.164,83.307 152.271,89.216 157.007,83.307 154.664,83.307 154.66,81.867 149.734,81.867 
			149.752,83.307 		"/>
		<path fill="#FFFFFF" d="M154.646,80.421c0,0.209-0.181,0.384-0.402,0.384h-3.984c-0.225,0-0.407-0.175-0.407-0.384l0,0
			c0-0.215,0.184-0.386,0.407-0.386h3.984C154.466,80.036,154.646,80.207,154.646,80.421L154.646,80.421z"/>
		<path fill="#FFFFFF" d="M154.646,78.865c0,0.236-0.197,0.428-0.447,0.428h-3.902c-0.244,0-0.444-0.192-0.444-0.428l0,0
			c0-0.235,0.2-0.424,0.444-0.424h3.902C154.449,78.441,154.646,78.629,154.646,78.865L154.646,78.865z"/>
	</g>
	<g>
		<path fill="#FFFFFF" d="M56.025,73.025h-2.98v-9.401h2.638c0.924,0,1.62,0.065,2.084,0.192c0.457,0.123,0.879,0.331,1.243,0.62
			c0.527,0.416,0.929,0.971,1.214,1.659c0.28,0.688,0.42,1.477,0.42,2.36c0,0.712-0.101,1.377-0.302,1.975
			c-0.205,0.595-0.485,1.095-0.854,1.488c-0.391,0.399-0.832,0.681-1.348,0.849C57.634,72.941,56.925,73.025,56.025,73.025z
			 M56.308,71.905c1.006,0,1.76-0.288,2.264-0.863c0.504-0.571,0.752-1.434,0.752-2.586c0-1.215-0.279-2.157-0.834-2.814
			c-0.562-0.655-1.363-0.983-2.402-0.983h-1.78v7.246H56.308z"/>
		<path fill="#FFFFFF" d="M67.734,70.921c0,0.683-0.248,1.229-0.73,1.644c-0.479,0.416-1.121,0.624-1.91,0.624
			c-1.02,0-1.795-0.283-2.321-0.846c-0.525-0.56-0.789-1.378-0.789-2.461c0-1.155,0.258-2.035,0.774-2.649
			c0.521-0.611,1.271-0.917,2.236-0.917c0.889,0,1.588,0.255,2.098,0.759c0.513,0.509,0.771,1.202,0.771,2.078
			c0,0.21-0.004,0.373-0.014,0.483c0,0.111-0.013,0.209-0.019,0.311h-4.643v0.131v0.262c0,0.616,0.157,1.097,0.479,1.435
			c0.318,0.34,0.767,0.506,1.346,0.506c0.482,0,0.865-0.118,1.146-0.364c0.285-0.247,0.43-0.573,0.436-0.995L67.734,70.921
			L67.734,70.921z M63.248,69.1h3.381v-0.146c0-0.546-0.146-0.98-0.448-1.317c-0.302-0.331-0.689-0.501-1.169-0.501
			c-0.518,0-0.94,0.182-1.268,0.543C63.416,68.04,63.248,68.517,63.248,69.1z"/>
		<path fill="#FFFFFF" d="M69.056,71.055h1.209v0.027c0,0.357,0.129,0.645,0.383,0.861c0.25,0.219,0.586,0.322,1.008,0.322
			c0.406,0,0.736-0.093,0.992-0.289c0.248-0.189,0.377-0.437,0.377-0.738c0-0.23-0.062-0.415-0.193-0.554
			c-0.129-0.142-0.328-0.24-0.596-0.31l-1.392-0.327c-0.588-0.136-1.024-0.346-1.311-0.628c-0.285-0.286-0.428-0.646-0.428-1.078
			c0-0.602,0.24-1.085,0.727-1.457c0.49-0.366,1.129-0.556,1.928-0.556c0.732,0,1.312,0.155,1.73,0.461
			c0.432,0.311,0.641,0.729,0.641,1.263c0,0.051,0,0.093,0,0.12c0,0.026-0.012,0.055-0.012,0.075h-1.207v-0.055
			c0-0.31-0.104-0.565-0.334-0.74c-0.219-0.184-0.522-0.279-0.91-0.279c-0.383,0-0.688,0.095-0.938,0.279
			c-0.246,0.175-0.369,0.403-0.369,0.678c0,0.215,0.072,0.386,0.221,0.513c0.148,0.129,0.396,0.241,0.738,0.335l1.494,0.406
			c0.512,0.135,0.893,0.353,1.143,0.644c0.248,0.282,0.365,0.655,0.365,1.119c0,0.619-0.232,1.111-0.705,1.481
			c-0.473,0.371-1.107,0.559-1.912,0.559c-0.914,0-1.584-0.164-2.01-0.482c-0.428-0.319-0.641-0.818-0.641-1.498L69.056,71.055
			L69.056,71.055z"/>
		<path fill="#FFFFFF" d="M81.025,70.823c-0.056,0.765-0.297,1.347-0.73,1.754c-0.44,0.405-1.053,0.611-1.828,0.611
			c-0.928,0-1.646-0.289-2.153-0.859c-0.504-0.572-0.761-1.384-0.761-2.444c0-1.12,0.269-1.995,0.798-2.628
			c0.528-0.629,1.262-0.941,2.211-0.941c0.729,0,1.315,0.204,1.752,0.597c0.44,0.397,0.658,0.93,0.658,1.596v0.023h-1.177
			c0-0.387-0.127-0.716-0.377-0.974c-0.258-0.266-0.574-0.394-0.951-0.394c-0.508,0-0.918,0.221-1.213,0.652
			c-0.299,0.437-0.442,1.034-0.442,1.787c0,0.88,0.137,1.546,0.407,1.993c0.281,0.448,0.688,0.67,1.224,0.67
			c0.422,0,0.758-0.13,1.01-0.389c0.262-0.262,0.391-0.617,0.402-1.054H81.025z"/>
		<path fill="#FFFFFF" d="M87.709,73.025h-1.082c-0.045-0.135-0.09-0.463-0.129-0.995v-0.038c-0.164,0.387-0.426,0.683-0.789,0.887
			c-0.356,0.204-0.795,0.309-1.312,0.309c-0.668,0-1.193-0.179-1.595-0.544c-0.397-0.363-0.602-0.837-0.602-1.436
			c0-0.694,0.277-1.238,0.83-1.648c0.553-0.408,1.307-0.607,2.264-0.607h1.133v-0.797c0-0.348-0.1-0.617-0.323-0.798
			c-0.218-0.185-0.539-0.273-0.968-0.273c-0.399,0-0.721,0.102-0.954,0.3c-0.24,0.198-0.357,0.471-0.373,0.823h-1.16v-0.104
			c0-0.574,0.207-1.019,0.619-1.327c0.416-0.31,1.012-0.462,1.791-0.462c0.901,0,1.561,0.162,1.971,0.478
			c0.406,0.326,0.617,0.843,0.617,1.561v4.047c0,0.055,0.006,0.136,0.012,0.253C87.675,72.766,87.685,72.891,87.709,73.025z
			 M86.427,69.775h-1.01c-0.629,0-1.11,0.121-1.457,0.35c-0.344,0.23-0.514,0.555-0.514,0.971c0,0.318,0.115,0.586,0.348,0.793
			c0.23,0.213,0.529,0.317,0.888,0.317c0.562,0,0.993-0.153,1.303-0.454c0.301-0.302,0.442-0.744,0.442-1.324V69.775z"/>
		<path fill="#FFFFFF" d="M89.587,73.025v-5.522c0-0.211-0.002-0.4-0.008-0.558c-0.008-0.154-0.018-0.312-0.035-0.467h1.217
			l0.023,1.25c0.121-0.41,0.332-0.727,0.643-0.938c0.308-0.213,0.709-0.312,1.201-0.312c0.086,0,0.174,0.003,0.258,0.009
			c0.082,0.004,0.164,0.017,0.238,0.033v1.133c-0.129-0.028-0.25-0.049-0.363-0.064c-0.106-0.009-0.209-0.017-0.293-0.017
			c-0.536,0-0.952,0.151-1.248,0.458c-0.284,0.305-0.436,0.744-0.436,1.313v3.683L89.587,73.025L89.587,73.025z"/>
		<path fill="#FFFFFF" d="M98.878,71.783c-0.127,0.26-0.379,0.48-0.756,0.67c-0.379,0.181-0.777,0.276-1.186,0.276
			c-0.927,0-1.631-0.274-2.121-0.825c-0.498-0.55-0.74-1.34-0.74-2.379c0-0.974,0.248-1.754,0.758-2.33
			c0.502-0.579,1.183-0.867,2.037-0.867c0.508,0,0.938,0.078,1.285,0.241c0.346,0.157,0.619,0.396,0.811,0.715l0.048-0.808h1.137
			c-0.019,0.184-0.033,0.367-0.039,0.546c-0.01,0.177-0.014,0.385-0.014,0.613v5.178c0,0.978-0.242,1.694-0.73,2.135
			c-0.488,0.452-1.26,0.677-2.316,0.677c-0.918,0-1.586-0.18-2.008-0.524c-0.418-0.352-0.633-0.908-0.639-1.668h1.305
			c0.004,0.437,0.131,0.767,0.379,0.994c0.246,0.229,0.613,0.347,1.088,0.347c0.578,0,1.009-0.144,1.285-0.43
			c0.281-0.286,0.418-0.729,0.418-1.331L98.878,71.783L98.878,71.783z M99.025,69.463c0-0.703-0.168-1.27-0.504-1.685
			c-0.338-0.419-0.791-0.632-1.347-0.632c-0.563,0-1.006,0.23-1.336,0.677c-0.334,0.454-0.498,1.066-0.498,1.84
			c0,0.706,0.175,1.267,0.511,1.683c0.328,0.412,0.774,0.625,1.346,0.625c0.553,0,0.994-0.226,1.33-0.675
			C98.861,70.844,99.025,70.237,99.025,69.463z"/>
		<path fill="#FFFFFF" d="M107.203,73.025h-1.082c-0.039-0.135-0.082-0.463-0.129-0.995v-0.038
			c-0.166,0.387-0.426,0.683-0.787,0.887c-0.356,0.204-0.797,0.309-1.313,0.309c-0.664,0-1.195-0.179-1.593-0.544
			c-0.401-0.363-0.604-0.837-0.604-1.436c0-0.694,0.283-1.238,0.83-1.648c0.553-0.408,1.303-0.607,2.266-0.607h1.14v-0.797
			c0-0.348-0.113-0.617-0.33-0.798c-0.222-0.185-0.537-0.273-0.964-0.273c-0.403,0-0.729,0.102-0.967,0.3
			c-0.233,0.198-0.354,0.471-0.369,0.823h-1.151v-0.104c0-0.574,0.203-1.019,0.617-1.327c0.414-0.31,1.012-0.462,1.784-0.462
			c0.902,0,1.562,0.162,1.978,0.478c0.41,0.326,0.613,0.843,0.613,1.561v4.047c0,0.055,0.008,0.136,0.014,0.253
			C107.164,72.766,107.181,72.891,107.203,73.025z M105.928,69.775h-1.021c-0.623,0-1.113,0.121-1.449,0.35
			c-0.348,0.23-0.52,0.555-0.52,0.971c0,0.318,0.117,0.586,0.354,0.793c0.234,0.213,0.527,0.317,0.883,0.317
			c0.566,0,1-0.153,1.3-0.454c0.305-0.302,0.455-0.744,0.455-1.324v-0.653H105.928z"/>
		<path fill="#FFFFFF" d="M109.087,73.025v-5.522c0-0.211-0.006-0.4-0.016-0.558c-0.006-0.154-0.014-0.312-0.027-0.467h1.213
			l0.021,1.25c0.123-0.41,0.336-0.727,0.643-0.938c0.312-0.213,0.713-0.312,1.203-0.312c0.09,0,0.172,0.003,0.256,0.009
			c0.084,0.004,0.16,0.017,0.24,0.033v1.133c-0.135-0.028-0.254-0.049-0.365-0.064c-0.104-0.009-0.205-0.017-0.291-0.017
			c-0.539,0-0.955,0.151-1.246,0.458c-0.291,0.305-0.438,0.744-0.438,1.313v3.683L109.087,73.025L109.087,73.025z"/>
		<path fill="#FFFFFF" d="M71.486,84.811v-8.876h3.094c0.971,0,1.695,0.204,2.174,0.605c0.478,0.414,0.715,1.021,0.715,1.837
			c0,0.872-0.278,1.516-0.832,1.928c-0.562,0.406-1.438,0.613-2.639,0.613H72.67v3.893H71.486z M74.382,79.821
			c0.656,0,1.125-0.112,1.41-0.333c0.281-0.225,0.422-0.586,0.422-1.083c0-0.518-0.137-0.89-0.42-1.112
			c-0.28-0.219-0.75-0.334-1.412-0.334h-1.713v2.862H74.382z"/>
		<path fill="#FFFFFF" d="M81.726,84.811h-2.812v-8.876h2.488c0.869,0,1.522,0.062,1.963,0.183c0.434,0.114,0.828,0.311,1.174,0.583
			c0.5,0.396,0.879,0.917,1.144,1.568c0.27,0.648,0.399,1.394,0.399,2.227c0,0.673-0.096,1.299-0.289,1.863
			c-0.186,0.566-0.455,1.034-0.805,1.403c-0.363,0.375-0.785,0.647-1.268,0.805C83.246,84.728,82.576,84.811,81.726,84.811z
			 M81.994,83.747c0.949,0,1.662-0.27,2.133-0.81c0.479-0.54,0.711-1.352,0.711-2.442c0-1.15-0.262-2.035-0.785-2.656
			c-0.53-0.616-1.286-0.926-2.268-0.926h-1.684v6.835L81.994,83.747L81.994,83.747z"/>
		<path fill="#FFFFFF" d="M87.753,84.811v-8.876h5.162v1.068h-3.977v2.718h3.766v1.056h-3.766v4.033L87.753,84.811L87.753,84.811z"
			/>
	</g>
	<g>
		<path fill="#FFFFFF" d="M28.298,169.4v-8.848h3.318c0.678,0,1.219,0.089,1.627,0.269c0.408,0.18,0.729,0.457,0.959,0.827
			c0.23,0.374,0.348,0.764,0.348,1.168c0,0.377-0.104,0.734-0.307,1.068c-0.207,0.334-0.518,0.604-0.93,0.808
			c0.535,0.158,0.944,0.426,1.231,0.805c0.287,0.376,0.435,0.823,0.435,1.337c0,0.416-0.09,0.801-0.267,1.156
			c-0.172,0.356-0.391,0.631-0.647,0.823c-0.256,0.194-0.578,0.339-0.967,0.438c-0.388,0.099-0.865,0.147-1.429,0.147H28.298
			L28.298,169.4z M29.468,164.27h1.914c0.521,0,0.892-0.033,1.117-0.102c0.297-0.087,0.521-0.235,0.674-0.44
			c0.15-0.206,0.224-0.462,0.224-0.772c0-0.292-0.068-0.552-0.209-0.775c-0.142-0.224-0.345-0.377-0.605-0.459
			s-0.709-0.123-1.344-0.123h-1.771V164.27z M29.468,168.356h2.203c0.379,0,0.646-0.016,0.797-0.042
			c0.269-0.048,0.494-0.129,0.677-0.242c0.182-0.112,0.328-0.276,0.444-0.491c0.117-0.217,0.179-0.463,0.179-0.746
			c0-0.33-0.086-0.615-0.254-0.861c-0.171-0.242-0.406-0.412-0.705-0.512c-0.302-0.098-0.732-0.146-1.293-0.146h-2.048V168.356z"/>
		<path fill="#FFFFFF" d="M36.458,161.802v-1.25h1.088v1.25H36.458z M36.458,169.4v-6.412h1.088v6.412H36.458z"/>
		<path fill="#FFFFFF" d="M40.199,169.4h-1.01v-8.848h1.088v3.157c0.457-0.575,1.045-0.863,1.756-0.863
			c0.396,0,0.771,0.08,1.123,0.237c0.35,0.16,0.639,0.384,0.867,0.671c0.225,0.288,0.404,0.633,0.531,1.042
			c0.129,0.406,0.192,0.842,0.192,1.305c0,1.096-0.272,1.944-0.812,2.545c-0.545,0.601-1.197,0.899-1.957,0.899
			c-0.756,0-1.353-0.317-1.779-0.947V169.4z M40.187,166.147c0,0.77,0.104,1.324,0.313,1.667c0.342,0.562,0.804,0.837,1.388,0.837
			c0.475,0,0.885-0.205,1.229-0.615c0.346-0.414,0.521-1.029,0.521-1.848c0-0.835-0.166-1.453-0.498-1.851
			c-0.33-0.399-0.732-0.597-1.203-0.597c-0.478,0-0.888,0.207-1.232,0.619C40.361,164.77,40.187,165.366,40.187,166.147z"/>
		<path fill="#FFFFFF" d="M46.046,169.4v-8.848h1.084v8.848H46.046z"/>
		<path fill="#FFFFFF" d="M48.824,161.802v-1.25h1.084v1.25H48.824z M48.824,169.4v-6.412h1.084v6.412H48.824z"/>
		<path fill="#FFFFFF" d="M51.16,166.198c0-1.189,0.328-2.068,0.986-2.638c0.551-0.476,1.223-0.713,2.016-0.713
			c0.885,0,1.603,0.288,2.16,0.867c0.559,0.576,0.84,1.375,0.84,2.393c0,0.824-0.123,1.474-0.371,1.944
			c-0.248,0.474-0.604,0.841-1.08,1.103c-0.475,0.261-0.987,0.392-1.549,0.392c-0.896,0-1.623-0.287-2.176-0.864
			C51.433,168.105,51.16,167.278,51.16,166.198z M52.273,166.198c0,0.819,0.18,1.434,0.537,1.842c0.358,0.408,0.809,0.61,1.352,0.61
			c0.539,0,0.99-0.205,1.348-0.614c0.355-0.41,0.535-1.037,0.535-1.879c0-0.791-0.182-1.39-0.539-1.798
			c-0.36-0.408-0.807-0.614-1.344-0.614c-0.543,0-0.992,0.204-1.352,0.609C52.453,164.762,52.273,165.375,52.273,166.198z"/>
		<path fill="#FFFFFF" d="M58.236,169.933l1.055,0.157c0.045,0.322,0.166,0.562,0.369,0.711c0.271,0.201,0.637,0.301,1.105,0.301
			c0.498,0,0.889-0.1,1.161-0.301c0.273-0.202,0.46-0.482,0.558-0.844c0.057-0.225,0.082-0.688,0.078-1.396
			c-0.476,0.56-1.068,0.838-1.773,0.838c-0.881,0-1.563-0.319-2.047-0.955c-0.482-0.633-0.723-1.396-0.723-2.288
			c0-0.611,0.108-1.171,0.33-1.69c0.223-0.516,0.545-0.916,0.963-1.197c0.42-0.282,0.918-0.423,1.481-0.423
			c0.756,0,1.379,0.305,1.867,0.917v-0.774h1.004v5.543c0,0.995-0.1,1.704-0.305,2.12c-0.201,0.417-0.521,0.743-0.963,0.985
			s-0.984,0.363-1.629,0.363c-0.765,0-1.384-0.174-1.853-0.518S58.22,170.625,58.236,169.933z M59.136,166.083
			c0,0.84,0.161,1.453,0.497,1.84c0.334,0.386,0.753,0.578,1.257,0.578c0.498,0,0.92-0.191,1.256-0.576
			c0.338-0.385,0.506-0.986,0.506-1.809c0-0.783-0.172-1.374-0.521-1.774c-0.35-0.396-0.768-0.598-1.256-0.598
			c-0.485,0-0.895,0.198-1.233,0.589C59.302,164.725,59.136,165.309,59.136,166.083z"/>
		<path fill="#FFFFFF" d="M65.296,169.4v-6.412h0.979v0.974c0.248-0.455,0.479-0.755,0.688-0.899
			c0.213-0.146,0.445-0.217,0.697-0.217c0.367,0,0.738,0.117,1.115,0.35l-0.373,1.007c-0.264-0.156-0.529-0.235-0.795-0.235
			c-0.236,0-0.453,0.072-0.64,0.215c-0.192,0.143-0.325,0.342-0.405,0.595c-0.123,0.385-0.183,0.809-0.183,1.266v3.355L65.296,169.4
			L65.296,169.4z"/>
		<path fill="#FFFFFF" d="M73.607,168.61c-0.404,0.342-0.789,0.583-1.164,0.725c-0.371,0.142-0.771,0.211-1.197,0.211
			c-0.703,0-1.246-0.172-1.623-0.518c-0.377-0.343-0.567-0.783-0.567-1.316c0-0.314,0.073-0.602,0.215-0.861
			c0.143-0.26,0.33-0.467,0.562-0.625c0.232-0.156,0.49-0.275,0.781-0.354c0.211-0.061,0.535-0.111,0.963-0.166
			c0.881-0.104,1.527-0.229,1.939-0.373c0.006-0.149,0.006-0.243,0.006-0.285c0-0.442-0.103-0.754-0.306-0.934
			c-0.28-0.247-0.692-0.371-1.239-0.371c-0.515,0-0.892,0.092-1.131,0.27c-0.24,0.18-0.423,0.496-0.541,0.951l-1.062-0.145
			c0.096-0.455,0.256-0.822,0.478-1.103c0.221-0.278,0.541-0.495,0.959-0.646c0.42-0.148,0.903-0.226,1.454-0.226
			c0.546,0,0.99,0.066,1.334,0.194c0.341,0.129,0.593,0.288,0.755,0.485c0.159,0.193,0.272,0.441,0.338,0.739
			c0.039,0.184,0.053,0.518,0.053,1.001v1.448c0,1.01,0.025,1.647,0.07,1.916c0.045,0.268,0.137,0.522,0.272,0.771h-1.135
			C73.71,169.176,73.636,168.913,73.607,168.61z M73.515,166.185c-0.396,0.159-0.986,0.295-1.773,0.409
			c-0.447,0.064-0.764,0.137-0.949,0.218c-0.184,0.081-0.326,0.196-0.428,0.353c-0.1,0.154-0.148,0.328-0.148,0.517
			c0,0.29,0.107,0.53,0.328,0.723c0.22,0.195,0.539,0.291,0.963,0.291c0.418,0,0.789-0.091,1.113-0.274
			c0.324-0.185,0.568-0.435,0.721-0.752c0.117-0.246,0.175-0.605,0.175-1.086L73.515,166.185L73.515,166.185z"/>
		<path fill="#FFFFFF" d="M76.558,169.4v-5.564h-0.963v-0.848h0.963v-0.679c0-0.43,0.037-0.75,0.112-0.959
			c0.105-0.281,0.287-0.512,0.554-0.685c0.264-0.176,0.631-0.262,1.104-0.262c0.308,0,0.646,0.034,1.014,0.106l-0.161,0.948
			c-0.228-0.04-0.439-0.061-0.64-0.061c-0.33,0-0.563,0.071-0.703,0.212c-0.135,0.14-0.202,0.405-0.202,0.792v0.587h1.247v0.848
			h-1.247v5.564L76.558,169.4L76.558,169.4z"/>
		<path fill="#FFFFFF" d="M80.056,162.196l0.805-1.691h1.422l-1.326,1.691H80.056z M80.111,169.4v-6.412h1.086v6.412H80.111z"/>
		<path fill="#FFFFFF" d="M87.345,168.61c-0.402,0.342-0.789,0.583-1.162,0.725c-0.373,0.141-0.771,0.211-1.197,0.211
			c-0.703,0-1.242-0.172-1.623-0.518c-0.377-0.343-0.566-0.783-0.566-1.316c0-0.314,0.072-0.602,0.216-0.861
			c0.143-0.26,0.331-0.467,0.561-0.625c0.23-0.156,0.49-0.275,0.783-0.354c0.209-0.061,0.535-0.111,0.961-0.166
			c0.877-0.104,1.522-0.229,1.938-0.373c0.007-0.149,0.011-0.243,0.011-0.285c0-0.442-0.104-0.754-0.312-0.934
			c-0.281-0.247-0.688-0.371-1.24-0.371c-0.512,0-0.885,0.092-1.127,0.27c-0.246,0.18-0.426,0.496-0.543,0.951l-1.061-0.145
			c0.096-0.455,0.256-0.822,0.477-1.103c0.222-0.278,0.543-0.495,0.961-0.646c0.416-0.148,0.9-0.226,1.453-0.226
			c0.543,0,0.99,0.066,1.332,0.194c0.342,0.129,0.597,0.288,0.754,0.485c0.162,0.193,0.275,0.441,0.34,0.739
			c0.033,0.184,0.054,0.518,0.054,1.001v1.448c0,1.01,0.024,1.647,0.069,1.916c0.045,0.268,0.14,0.522,0.273,0.771h-1.131
			C87.451,169.176,87.378,168.913,87.345,168.61z M87.255,166.185c-0.396,0.159-0.983,0.295-1.772,0.409
			c-0.447,0.064-0.762,0.137-0.947,0.218s-0.33,0.196-0.43,0.353c-0.103,0.154-0.152,0.328-0.152,0.517
			c0,0.29,0.109,0.53,0.33,0.723c0.219,0.195,0.541,0.291,0.965,0.291c0.416,0,0.789-0.091,1.115-0.274
			c0.324-0.185,0.562-0.435,0.719-0.752c0.115-0.246,0.174-0.605,0.174-1.086L87.255,166.185L87.255,166.185z"/>
	</g>
	<g>
		<path fill="#FFFFFF" d="M141.05,171.318c0,0.851,0,1.583,0,2.412c-0.334,0.017-0.649,0.046-0.967,0.046
			c-8.627,0.002-17.254,0.084-25.879-0.042c-3.221-0.046-3.459,2.022-2.912,4.181c0.148,0.588,0.906,1.217,1.523,1.44
			c0.869,0.315,1.869,0.367,2.812,0.37c8.06,0.025,16.119,0.014,24.179,0.014c0.385,0,0.77,0,1.223,0c0,0.824,0,1.579,0,2.413
			c-0.354,0.017-0.674,0.043-0.992,0.044c-8.207,0.002-16.416,0.024-24.625-0.023c-1.229-0.006-2.504-0.203-3.684-0.56
			c-1.906-0.573-2.914-2.026-3.054-3.989c-0.065-0.967-0.022-1.978,0.181-2.922c0.455-2.111,1.977-3.304,4.151-3.371
			c1.252-0.039,2.507-0.013,3.761-0.013c7.729,0,15.461,0,23.19,0C140.306,171.318,140.654,171.318,141.05,171.318z"/>
		<path fill="#FFFFFF" d="M111.394,169.729c0-0.785,0-1.434,0-2.225c0.405,0,0.778,0,1.151,0c7.463,0,14.925,0,22.388,0
			c0.178,0,0.356,0,0.537,0c2.354-0.004,3.286-1.225,2.696-3.522c-0.203-0.794-0.696-1.347-1.481-1.516
			c-0.75-0.161-1.531-0.25-2.299-0.251c-7.283-0.018-14.566-0.01-21.849-0.01c-0.354,0-0.705,0-1.119,0c0-0.751,0-1.422,0-2.183
			c0.312-0.015,0.629-0.043,0.945-0.043c7.521-0.001,15.043-0.016,22.564,0.023c0.938,0.005,1.903,0.189,2.799,0.475
			c1.367,0.436,2.379,1.413,2.537,2.853c0.139,1.271,0.114,2.629-0.193,3.861c-0.439,1.759-1.928,2.396-3.623,2.526
			c-0.682,0.054-1.371,0.013-2.057,0.013c-7.283,0-14.566,0-21.851,0C112.191,169.729,111.837,169.729,111.394,169.729z"/>
		<path fill="#FFFFFF" d="M135.787,150.291c0,0.58,0,1.138,0,1.808c-0.356,0-0.676,0-0.994,0
			c-6.475-0.015-12.951-0.031-19.426-0.045c-1.449-0.003-1.984,0.473-2.102,1.851c-0.129,1.485,0.434,2.309,1.771,2.529
			c0.469,0.077,0.953,0.068,1.43,0.068c6.089,0.004,12.177,0.003,18.265,0.003c0.322,0,0.646,0,1.033,0c0,0.653,0,1.233,0,1.938
			c-0.324,0-0.642,0-0.957,0c-6.089,0-12.177,0.015-18.265-0.016c-0.883-0.004-1.793-0.124-2.643-0.364
			c-1.332-0.376-2.264-1.284-2.404-2.701c-0.094-0.957-0.065-1.975,0.162-2.903c0.344-1.402,1.529-2.237,3.094-2.243
			c6.924-0.025,13.849-0.006,20.771-0.001C135.578,150.214,135.634,150.246,135.787,150.291z"/>
		<path fill="#FFFFFF" d="M139.675,178.204c-0.204,0.271-0.288,0.487-0.44,0.557c-0.176,0.08-0.41,0.037-0.619,0.037
			c-7.996,0-15.994,0.004-23.99-0.012c-0.35,0-0.967,0.27-0.916-0.58C122.314,178.204,130.892,178.204,139.675,178.204z"/>
		<path fill="#FFFFFF" d="M136.015,164.773c-0.168,0.157-0.324,0.334-0.515,0.463c-0.082,0.056-0.229,0.014-0.352,0.014
			c-7.191,0-14.385,0.002-21.578-0.005c-0.369-0.001-0.922,0.168-0.791-0.639c7.676,0,15.354,0,23.031,0
			C135.88,164.662,135.949,164.717,136.015,164.773z"/>
		<path fill="#FFFFFF" d="M124.369,163.637c-3.551,0-7.102,0-10.649-0.001c-0.238,0-0.484,0.017-0.714-0.035
			c-0.102-0.023-0.233-0.197-0.233-0.303c-0.002-0.106,0.129-0.283,0.229-0.307c0.228-0.053,0.474-0.037,0.711-0.037
			c7.101-0.001,14.199-0.001,21.302,0c0.207,0,0.432-0.034,0.618,0.029c0.123,0.041,0.24,0.221,0.271,0.357
			c0.014,0.073-0.154,0.247-0.26,0.268c-0.23,0.047-0.476,0.029-0.713,0.029C131.408,163.638,127.888,163.637,124.369,163.637z"/>
		<path fill="#FFFFFF" d="M135.875,166.667c-7.707,0-15.391,0-23.311,0c0.246-0.291,0.344-0.496,0.5-0.563
			c0.178-0.077,0.41-0.035,0.617-0.035c7.129,0,14.256-0.003,21.385,0.009C135.421,166.079,136.056,165.838,135.875,166.667z"/>
		<path fill="#FFFFFF" d="M139.685,176.409c-0.213,0.276-0.304,0.479-0.455,0.563c-0.142,0.077-0.351,0.03-0.529,0.03
			c-8.057,0.002-16.115,0.004-24.172-0.008c-0.34,0-0.934,0.231-0.793-0.586C122.314,176.409,130.896,176.409,139.685,176.409z"/>
		<path fill="#FFFFFF" d="M114.955,155.917c0.303-0.329,0.439-0.515,0.613-0.65c0.076-0.059,0.231-0.016,0.352-0.016
			c5.996,0,11.992-0.001,17.988,0.001c0.406,0,0.916-0.098,0.709,0.665C128.166,155.917,121.707,155.917,114.955,155.917z"/>
		<path fill="#FFFFFF" d="M126.693,174.672c3.938,0,7.879,0,11.818,0c0.209,0,0.434-0.043,0.622,0.02
			c0.152,0.051,0.261,0.23,0.39,0.354c-0.121,0.097-0.229,0.236-0.365,0.277c-0.164,0.049-0.354,0.018-0.533,0.018
			c-8,0-15.998,0-23.998,0c-0.209,0-0.43,0.033-0.621-0.025c-0.123-0.039-0.248-0.208-0.28-0.34
			c-0.019-0.068,0.149-0.248,0.258-0.27c0.229-0.047,0.475-0.031,0.713-0.031C118.695,174.672,122.693,174.672,126.693,174.672z"/>
		<path fill="#FFFFFF" d="M124.888,154.606c-2.951,0-5.9,0.01-8.853-0.016c-0.289-0.002-0.574-0.223-0.863-0.342
			c0.271-0.103,0.539-0.295,0.81-0.296c5.961-0.017,11.92-0.013,17.881-0.013c0.117,0,0.252-0.033,0.354,0.011
			c0.162,0.07,0.302,0.191,0.449,0.29c-0.16,0.121-0.315,0.339-0.481,0.347c-0.804,0.038-1.607,0.02-2.412,0.02
			C129.476,154.607,127.181,154.607,124.888,154.606z"/>
		<path fill="#FFFFFF" d="M124.894,152.686c3.008-0.001,6.02-0.009,9.026,0.015c0.248,0.002,0.496,0.225,0.742,0.345
			c-0.238,0.102-0.479,0.292-0.719,0.293c-6.021,0.017-12.039,0.017-18.057-0.001c-0.238,0-0.478-0.206-0.714-0.315
			c0.229-0.112,0.459-0.319,0.689-0.321C118.875,152.679,121.884,152.687,124.894,152.686z"/>
	</g>
	<g>
		<g>
			<path fill="#FFFFFF" d="M67.463,258.838c-0.02,0.804-0.334,1.436-0.924,1.908c-0.604,0.469-1.406,0.705-2.418,0.705
				c-1.233,0-2.178-0.404-2.822-1.197c-0.649-0.801-0.975-1.957-0.975-3.467c0-1.518,0.34-2.693,1.021-3.514
				c0.68-0.83,1.646-1.246,2.895-1.246c0.982,0,1.753,0.227,2.321,0.678c0.558,0.445,0.857,1.067,0.878,1.856h-1.294
				c-0.042-0.47-0.251-0.843-0.622-1.134c-0.371-0.289-0.83-0.432-1.4-0.432c-0.785,0-1.397,0.328-1.832,0.985
				c-0.44,0.659-0.66,1.578-0.66,2.765c0,1.166,0.22,2.062,0.648,2.698c0.432,0.636,1.047,0.958,1.844,0.958
				c0.576,0,1.039-0.14,1.394-0.415c0.35-0.28,0.543-0.665,0.588-1.149H67.463L67.463,258.838z"/>
			<path fill="#FFFFFF" d="M68.967,261.297v-5.364c0-0.207,0-0.394-0.008-0.544c-0.002-0.15-0.016-0.303-0.021-0.455h1.172
				l0.021,1.216c0.117-0.399,0.322-0.705,0.629-0.912c0.291-0.208,0.685-0.304,1.162-0.304c0.086,0,0.17,0,0.248,0.008
				c0.084,0.006,0.16,0.016,0.232,0.032v1.098c-0.127-0.022-0.24-0.044-0.353-0.055c-0.106-0.013-0.198-0.021-0.283-0.021
				c-0.526,0-0.928,0.147-1.208,0.45c-0.281,0.291-0.429,0.718-0.429,1.272v3.578H68.967z"/>
			<path fill="#FFFFFF" d="M78.918,259.252c-0.004,0.662-0.237,1.193-0.707,1.592c-0.473,0.406-1.09,0.607-1.862,0.607
				c-0.984,0-1.74-0.271-2.252-0.82c-0.513-0.547-0.765-1.34-0.765-2.393c0-1.125,0.252-1.976,0.752-2.572
				c0.506-0.588,1.232-0.888,2.17-0.888c0.865,0,1.545,0.241,2.039,0.738c0.495,0.498,0.738,1.165,0.738,2.015
				c0,0.207,0,0.363-0.004,0.475c-0.004,0.104-0.01,0.203-0.019,0.302h-4.508v0.12v0.256c0,0.605,0.15,1.07,0.459,1.393
				c0.308,0.332,0.744,0.494,1.316,0.494c0.463,0,0.838-0.117,1.104-0.357c0.279-0.234,0.416-0.553,0.433-0.961H78.918z
				 M74.56,257.48h3.281v-0.142c0-0.528-0.147-0.955-0.436-1.28c-0.291-0.321-0.674-0.479-1.129-0.479
				c-0.508,0-0.92,0.176-1.242,0.524C74.719,256.448,74.56,256.915,74.56,257.48z M75.31,254.095l1.261-2.152h1.246l-1.764,2.152
				H75.31z"/>
			<path fill="#FFFFFF" d="M85.221,261.297l-0.054-0.94c-0.293,0.386-0.602,0.667-0.926,0.838c-0.316,0.169-0.693,0.257-1.113,0.257
				c-0.873,0-1.563-0.297-2.069-0.881c-0.511-0.583-0.765-1.387-0.765-2.406c0-1.049,0.244-1.861,0.742-2.447
				c0.495-0.59,1.176-0.883,2.054-0.883c0.432,0,0.827,0.086,1.178,0.265c0.354,0.183,0.653,0.45,0.899,0.797v-3.733h1.168v7.866
				c0,0.226,0.006,0.435,0.018,0.644c0.014,0.211,0.027,0.414,0.058,0.627h-1.189V261.297z M81.52,258.038
				c0,0.81,0.164,1.457,0.5,1.928c0.33,0.473,0.771,0.711,1.311,0.711c0.564,0,1.008-0.221,1.342-0.662
				c0.332-0.438,0.496-1.026,0.496-1.776c0-0.808-0.16-1.452-0.492-1.926c-0.331-0.474-0.77-0.717-1.313-0.717
				c-0.559,0-1.006,0.224-1.339,0.663C81.684,256.704,81.52,257.293,81.52,258.038z"/>
			<path fill="#FFFFFF" d="M89.583,253.461h-1.374v-1.299h1.374V253.461z M88.317,261.297v-6.363h1.172v6.363H88.317z"/>
			<path fill="#FFFFFF" d="M90.607,254.935h1.083v-1.312l1.164-0.395v1.706h1.418v0.837h-1.418v3.902
				c0,0.328,0.056,0.549,0.16,0.654c0.112,0.103,0.331,0.157,0.649,0.157c0.086,0,0.17-0.01,0.265-0.022
				c0.099-0.018,0.202-0.031,0.317-0.06v0.88c-0.19,0.049-0.365,0.086-0.518,0.11c-0.15,0.032-0.289,0.045-0.403,0.045
				c-0.603,0-1.018-0.101-1.267-0.308c-0.246-0.209-0.369-0.553-0.369-1.047v-4.312h-1.083L90.607,254.935L90.607,254.935z"/>
			<path fill="#FFFFFF" d="M95.159,258.239c0-1.066,0.279-1.906,0.85-2.521c0.566-0.618,1.337-0.924,2.316-0.924
				c0.99,0,1.762,0.285,2.309,0.863c0.552,0.572,0.824,1.379,0.824,2.406c0,1.07-0.281,1.902-0.854,2.495
				c-0.562,0.597-1.359,0.896-2.393,0.896c-0.939,0-1.691-0.291-2.238-0.861C95.43,260.015,95.159,259.23,95.159,258.239z
				 M98.325,255.635c-0.604,0-1.08,0.227-1.435,0.681c-0.352,0.457-0.528,1.078-0.528,1.858c0,0.767,0.166,1.347,0.51,1.765
				c0.336,0.412,0.816,0.619,1.428,0.619c0.614,0,1.097-0.218,1.443-0.654c0.354-0.444,0.527-1.049,0.527-1.831
				c0-0.771-0.168-1.369-0.511-1.799C99.42,255.842,98.942,255.635,98.325,255.635z"/>
			<path fill="#FFFFFF" d="M102.655,259.381h1.176v0.023c0,0.35,0.119,0.627,0.367,0.838c0.244,0.211,0.573,0.314,0.984,0.314
				c0.393,0,0.715-0.09,0.963-0.279c0.244-0.182,0.367-0.423,0.367-0.721c0-0.223-0.064-0.403-0.189-0.532
				c-0.125-0.136-0.32-0.243-0.58-0.301l-1.352-0.319c-0.568-0.133-0.994-0.338-1.273-0.611c-0.276-0.276-0.416-0.625-0.416-1.047
				c0-0.58,0.235-1.055,0.709-1.414c0.478-0.363,1.096-0.541,1.867-0.541c0.711,0,1.279,0.15,1.69,0.447
				c0.412,0.297,0.615,0.709,0.615,1.229c0,0.049,0,0.093,0,0.115c0,0.028-0.004,0.049-0.01,0.07h-1.168v-0.052
				c0-0.302-0.107-0.546-0.326-0.724c-0.217-0.172-0.517-0.264-0.89-0.264c-0.369,0-0.671,0.092-0.911,0.264
				c-0.236,0.178-0.354,0.402-0.354,0.662c0,0.213,0.064,0.375,0.211,0.5c0.146,0.129,0.388,0.237,0.718,0.323l1.446,0.396
				c0.505,0.132,0.873,0.338,1.113,0.619c0.241,0.281,0.358,0.647,0.358,1.09c0,0.607-0.229,1.084-0.69,1.443
				c-0.457,0.359-1.077,0.541-1.854,0.541c-0.888,0-1.537-0.152-1.951-0.466c-0.416-0.31-0.621-0.792-0.621-1.454L102.655,259.381
				L102.655,259.381z"/>
		</g>
	</g>
	<g>
		<path fill="#FFFFFF" d="M150.414,259.447c-0.811,0.509-1.648,0.589-2.473,0.175c-0.348-0.175-0.659-0.324-1.051-0.396
			c-0.832-0.146-1.611-1.056-1.696-1.888c-0.014-0.18,0.084-0.383,0.029-0.545c-0.057-0.16-0.261-0.26-0.358-0.416
			c-0.405-0.644-0.333-1.828,0.277-2.332c0.044-0.031,0.057-0.131,0.048-0.196c-0.108-0.761,0.081-1.413,0.671-1.921
			c0.144-0.118,0.376-0.164,0.472-0.307c0.097-0.139,0.047-0.365,0.104-0.541c0.192-0.586,0.565-1.004,1.181-1.183
			c0.058-0.019,0.137-0.063,0.156-0.116c0.338-0.953,1.85-1.164,2.567-0.414c0.017,0.016,0.031,0.028,0.058,0.047
			c0.435-0.433,0.958-0.578,1.556-0.465c0.489,0.094,0.86,0.348,1.068,0.813c0.022,0.055,0.073,0.11,0.126,0.125
			c0.866,0.263,1.253,0.88,1.308,1.745c0,0.011,0.004,0.015,0.006,0.021c0.92,0.461,1.301,1.205,1.145,2.217
			c-0.011,0.059,0.015,0.146,0.057,0.18c0.717,0.59,0.7,2.164-0.036,2.688c-0.034,0.023-0.063,0.094-0.057,0.137
			c0.163,0.826-0.248,1.41-0.816,1.918c-0.375,0.332-0.812,0.535-1.338,0.472c-0.047-0.003-0.117,0.017-0.148,0.053
			c-0.293,0.351-0.688,0.481-1.118,0.524C151.527,259.904,150.922,259.847,150.414,259.447z M150.658,256.067
			c0,0.863,0,1.745,0,2.626c0,0.317,0.106,0.488,0.4,0.591c0.435,0.159,0.878,0.148,1.316,0.047c0.096-0.02,0.188-0.08,0.264-0.142
			c0.405-0.325,0.57-1.125,0.337-1.584c-0.129-0.252-0.447-0.416-0.697-0.356c-0.277,0.067-0.455,0.312-0.455,0.627
			c-0.003,0.064,0,0.123,0,0.194c-0.165,0.039-0.306,0.076-0.45,0.113c-0.256-0.638,0.247-1.427,0.919-1.461
			c0.771-0.041,1.352,0.593,1.29,1.411c-0.017,0.203-0.053,0.408-0.086,0.631c0.59-0.001,0.972-0.332,1.287-0.744
			c0.236-0.307,0.402-0.645,0.266-1.048c-0.138,0-0.26,0.006-0.383,0c-1.016-0.022-1.513-0.771-1.128-1.711
			c0.089-0.206,0.218-0.401,0.344-0.593c0.23-0.351,0.116-0.728-0.277-0.867c-0.104-0.036-0.208-0.059-0.314-0.076
			c-0.289-0.044-0.528,0.076-0.601,0.359c-0.062,0.229-0.084,0.48-0.052,0.715c0.1,0.765-0.354,1.345-1.124,1.359
			C151.235,256.167,150.964,256.102,150.658,256.067z M148.977,258.066c0-0.062,0-0.101,0-0.144
			c0.008-0.365-0.188-0.637-0.492-0.682c-0.298-0.044-0.623,0.174-0.712,0.5c-0.124,0.475-0.048,0.918,0.251,1.307
			c0.092,0.115,0.239,0.229,0.376,0.27c0.458,0.13,0.922,0.127,1.373-0.049c0.257-0.098,0.374-0.283,0.372-0.564
			c-0.012-0.826-0.004-1.654-0.004-2.479c0-0.061-0.009-0.126-0.013-0.196c-0.133,0.037-0.248,0.073-0.365,0.099
			c-1.022,0.217-1.78-0.408-1.576-1.408c0.033-0.161,0.007-0.342-0.022-0.512c-0.043-0.264-0.193-0.455-0.472-0.484
			c-0.315-0.039-0.615,0.037-0.806,0.304c-0.17,0.237-0.068,0.466,0.067,0.698c0.16,0.27,0.315,0.551,0.398,0.85
			c0.17,0.625-0.14,1.141-0.761,1.309c-0.264,0.076-0.546,0.08-0.854,0.115c-0.135,0.451,0.095,0.822,0.387,1.153
			c0.308,0.351,0.659,0.629,1.179,0.604c-0.033-0.239-0.072-0.452-0.087-0.67c-0.039-0.691,0.354-1.215,1.011-1.344
			c0.393-0.078,0.73,0.031,0.982,0.342c0.261,0.32,0.338,0.685,0.237,1.104C149.282,258.146,149.131,258.105,148.977,258.066z
			 M145.913,254.254c-0.666,0.316-0.834,0.609-0.775,1.336c0.052,0.625,0.424,0.929,1.039,0.856
			c0.564-0.067,0.814-0.454,0.609-0.979c-0.086-0.215-0.229-0.411-0.356-0.607c-0.294-0.451-0.248-0.919,0.151-1.279
			c0.34-0.312,0.748-0.404,1.199-0.336c0.063,0.012,0.145,0.024,0.203-0.002c0.28-0.138,0.545-0.298,0.831-0.428
			c0.499-0.232,0.677-0.713,0.373-1.169c-0.114-0.17-0.323-0.308-0.521-0.381c-0.438-0.164-0.851-0.325-0.951-0.86
			c-0.468,0.15-0.771,0.426-0.836,0.893c-0.072,0.5,0.185,0.834,0.626,1.062c-0.064,0.153-0.129,0.302-0.219,0.515
			c-0.295-0.24-0.556-0.457-0.835-0.686C145.749,252.379,145.515,253.198,145.913,254.254z M153.094,250.43
			c-0.203,0.494-0.306,0.591-0.836,0.783c-0.087,0.029-0.175,0.062-0.259,0.099c-0.308,0.118-0.46,0.354-0.515,0.666
			c-0.069,0.392,0.145,0.692,0.577,0.866c0.234,0.097,0.457,0.229,0.688,0.337c0.084,0.036,0.184,0.075,0.267,0.063
			c0.451-0.066,0.855,0.024,1.203,0.33c0.379,0.334,0.446,0.818,0.179,1.242c-0.083,0.135-0.204,0.251-0.263,0.395
			c-0.085,0.207-0.171,0.43-0.177,0.652c-0.007,0.293,0.216,0.494,0.529,0.559c0.474,0.101,0.837-0.016,1.017-0.317
			c0.404-0.688,0.159-1.481-0.562-1.817c-0.019-0.008-0.031-0.023-0.031-0.023c0.06-0.264,0.138-0.508,0.17-0.758
			c0.073-0.571-0.184-1.082-0.604-1.278c-0.123-0.058-0.199-0.06-0.284,0.067c-0.171,0.248-0.411,0.408-0.707,0.521
			c-0.064-0.165-0.129-0.312-0.188-0.453c0.504-0.3,0.703-0.666,0.625-1.105C153.845,250.842,153.51,250.504,153.094,250.43z
			 M152.399,253.532c-0.146-0.062-0.277-0.115-0.405-0.175c-0.17-0.078-0.35-0.142-0.501-0.243
			c-0.415-0.289-0.595-0.697-0.519-1.195c0.082-0.508,0.315-0.902,0.854-1.051c0.125-0.033,0.249-0.076,0.364-0.134
			c0.489-0.233,0.543-0.764,0.1-1.083c-0.388-0.281-0.812-0.3-1.238-0.094c-0.262,0.13-0.396,0.352-0.396,0.646
			c0,1.592-0.006,3.187,0.004,4.779c0.001,0.538,0.068,0.596,0.617,0.625c0.04,0.003,0.083,0.003,0.128,0.003
			c0.558-0.005,0.772-0.271,0.697-0.821C152.039,254.345,152.057,253.915,152.399,253.532z M148.388,253.53
			c0.276,0.281,0.349,0.588,0.332,0.922c-0.005,0.143-0.011,0.284-0.029,0.428c-0.061,0.429,0.134,0.695,0.559,0.715
			c0.246,0.012,0.498-0.049,0.743-0.084c0.12-0.016,0.152-0.092,0.152-0.215c-0.004-1.701,0.001-3.398-0.013-5.098
			c0-0.169-0.085-0.361-0.191-0.484c-0.372-0.42-1.234-0.366-1.582,0.076c-0.251,0.322-0.181,0.713,0.183,0.91
			c0.162,0.09,0.343,0.141,0.521,0.198c0.312,0.104,0.522,0.315,0.649,0.614c0.322,0.773,0.015,1.503-0.771,1.801
			C148.771,253.381,148.595,253.448,148.388,253.53z"/>
		<path fill="#FFFFFF" d="M158.36,254.448c0,4.461-3.613,8.077-8.078,8.077c-4.462,0-8.079-3.616-8.079-8.077
			c0-4.464,3.617-8.082,8.079-8.082C154.747,246.366,158.36,249.984,158.36,254.448z M160.157,254.448
			c0-5.457-4.42-9.875-9.875-9.875c-5.453,0-9.874,4.418-9.874,9.875c0,4.096,2.491,7.607,6.043,9.104
			c0.005,0.002,0.963,1.115,1.001,1.918c0.039,0.803,0,1.072,0,1.072h5.589c0,0-0.185-0.978,0.27-1.914
			c0.22-0.449,0.417-0.774,0.57-0.992C157.553,262.197,160.157,258.629,160.157,254.448z"/>
		<path fill="#FFFFFF" d="M150.359,269.393c0.721,0,1.45-0.064,2.158,0.027c0.332,0.043,0.847,0.363,0.879,0.609
			c0.039,0.307-0.31,0.688-0.537,0.999c-0.195,0.267-0.479,0.468-0.689,0.726c-0.851,1.047-2.276,1.262-3.35,0.443
			c-0.56-0.426-1.094-0.898-1.567-1.418c-0.167-0.185-0.246-0.64-0.134-0.842c0.14-0.25,0.511-0.49,0.8-0.516
			c0.81-0.068,1.626-0.023,2.44-0.023C150.359,269.396,150.359,269.395,150.359,269.393z"/>
		<path fill="#FFFFFF" d="M150.225,268.672c-0.719,0-1.437,0.011-2.153-0.002c-0.549-0.01-1.024-0.188-1.037-0.828
			c-0.013-0.651,0.445-0.817,1.012-0.815c1.498,0.004,2.997,0.007,4.495,0c0.551-0.002,1.016,0.242,0.908,0.785
			c-0.066,0.332-0.543,0.765-0.89,0.821C151.801,268.756,151.006,268.67,150.225,268.672z"/>
		<path fill="#FFFFFF" d="M139.584,250.042c-0.765-0.442-1.384-0.801-2.15-1.246c0.402-0.703,0.772-1.346,1.225-2.131
			c0.755,0.451,1.433,0.856,2.15,1.287C140.391,248.665,140.028,249.286,139.584,250.042z"/>
		<path fill="#FFFFFF" d="M159.866,247.93c0.785-0.448,1.413-0.807,2.162-1.236c0.418,0.689,0.809,1.333,1.268,2.088
			c-0.721,0.428-1.374,0.816-2.135,1.268C160.739,249.358,160.343,248.711,159.866,247.93z"/>
		<path fill="#FFFFFF" d="M142.176,243.157c0.755-0.443,1.369-0.806,2.104-1.238c0.436,0.73,0.819,1.375,1.276,2.142
			c-0.723,0.433-1.365,0.819-2.113,1.269C143.018,244.599,142.636,243.945,142.176,243.157z"/>
		<path fill="#FFFFFF" d="M158.538,243.14c-0.467,0.793-0.837,1.421-1.265,2.147c-0.719-0.41-1.376-0.785-2.112-1.205
			c0.423-0.74,0.781-1.367,1.226-2.144C157.098,242.336,157.753,242.702,158.538,243.14z"/>
		<path fill="#FFFFFF" d="M136.279,253.756c0.751,0,1.467,0,2.271,0c0,0.722,0,1.426,0,2.213c-0.751,0-1.465,0-2.271,0
			C136.279,255.229,136.279,254.527,136.279,253.756z"/>
		<path fill="#FFFFFF" d="M149.286,240.698c0.784,0,1.463,0,2.23,0c0,0.775,0,1.489,0,2.315c-0.702,0-1.413,0-2.23,0
			C149.286,242.305,149.286,241.556,149.286,240.698z"/>
		<path fill="#FFFFFF" d="M162.189,255.937c0-0.718,0-1.388,0-2.153c0.752,0,1.502,0,2.332,0c0,0.699,0,1.369,0,2.153
			C163.768,255.937,163.02,255.937,162.189,255.937z"/>
		<path fill="#FFFFFF" d="M138.645,263.04c-0.433-0.761-0.788-1.387-1.22-2.146c0.715-0.412,1.373-0.791,2.173-1.251
			c0.354,0.762,0.67,1.443,1.031,2.227C139.99,262.247,139.406,262.59,138.645,263.04z"/>
		<path fill="#FFFFFF" d="M162.069,263.013c-0.687-0.388-1.269-0.716-1.968-1.111c0.313-0.752,0.601-1.437,0.958-2.288
			c0.793,0.461,1.474,0.856,2.219,1.289C162.848,261.651,162.473,262.305,162.069,263.013z"/>
	</g>
	<g>
		<g>
			<path fill="#FFFFFF" d="M146.605,207.547c0,1.002,0,2.002,0,3.002c-0.066,0.404-0.133,0.809-0.193,1.213
				c-1.111,7.203-6.838,11.671-12.231,12.875c-0.736,0.162-1.49,0.271-2.236,0.404c-0.914,0-1.832,0-2.75,0
				c-0.279-0.051-0.562-0.108-0.846-0.148c-6.437-0.907-11.83-5.835-13.318-12.188c-0.168-0.742-0.275-1.494-0.41-2.242
				c0-0.938,0-1.887,0-2.83c0.025-0.059,0.062-0.12,0.072-0.184c0.508-4.684,2.717-8.416,6.396-11.283
				c3.513-2.732,7.556-3.519,11.892-2.951c6.453,0.84,11.78,5.729,13.211,12.066C146.355,206.032,146.462,206.793,146.605,207.547z
				 M130.628,222.083c6.045,0.094,13.111-4.785,13.082-12.908c-0.026-7.383-5.729-13.139-12.989-13.233
				c-7.97-0.097-13.259,6.899-13.214,13.067C117.566,216.155,123.466,222.083,130.628,222.083z"/>
			<path fill="#FFFFFF" d="M128.503,210.497c0.674,0.342,1.312,0.668,1.984,1.004c-0.715,1.287-1.752,2.084-3.15,2.418
				c-2.155,0.502-4.396-0.437-5.293-2.262c-0.666-1.347-0.701-2.781-0.354-4.22c0.301-1.228,1.021-2.144,2.1-2.772
				c1.771-1.043,5.297-0.901,6.656,1.74c-0.705,0.364-1.406,0.733-2.014,1.049c-0.437-0.375-0.773-0.781-1.197-1.019
				c-0.937-0.509-2.103-0.09-2.512,0.886c-0.464,1.09-0.459,2.213-0.033,3.321c0.297,0.754,0.871,1.174,1.68,1.222
				c0.851,0.047,1.517-0.273,1.951-1.025C128.371,210.745,128.421,210.649,128.503,210.497z"/>
			<path fill="#FFFFFF" d="M139.666,206.405c-0.697,0.369-1.381,0.73-2.092,1.109c-0.113-0.17-0.213-0.332-0.328-0.48
				c-0.442-0.591-1.037-0.859-1.77-0.787c-0.771,0.074-1.338,0.463-1.603,1.207c-0.352,1.012-0.369,2.035-0.014,3.057
				c0.283,0.808,0.846,1.296,1.717,1.354c0.879,0.057,1.562-0.292,1.996-1.082c0.041-0.072,0.082-0.146,0.127-0.214
				c0.004-0.014,0.021-0.019,0.062-0.051c0.635,0.313,1.284,0.636,1.971,0.981c-0.729,1.274-1.752,2.123-3.156,2.408
				c-1.842,0.354-3.518,0.018-4.793-1.484c-0.85-1.012-1.053-2.235-1.043-3.508c0.02-1.076,0.242-2.104,0.893-2.983
				c1.06-1.435,2.527-1.964,4.259-1.849c1.514,0.104,2.76,0.68,3.602,1.996C139.552,206.172,139.599,206.267,139.666,206.405z"/>
		</g>
	</g>
	<g>
		<g>
			<path fill="#FFFFFF" d="M48.085,205.329c-0.018,0.801-0.323,1.44-0.922,1.908c-0.602,0.473-1.404,0.715-2.422,0.715
				c-1.229,0-2.18-0.408-2.834-1.209c-0.648-0.803-0.975-1.955-0.975-3.479c0-1.516,0.342-2.688,1.026-3.52
				c0.681-0.828,1.65-1.242,2.902-1.242c0.979,0,1.756,0.225,2.313,0.677c0.574,0.45,0.863,1.069,0.888,1.862h-1.301
				c-0.037-0.467-0.24-0.844-0.611-1.135c-0.373-0.291-0.844-0.439-1.41-0.439c-0.781,0-1.398,0.328-1.838,0.994
				c-0.443,0.656-0.66,1.58-0.66,2.767c0,1.174,0.215,2.071,0.654,2.704c0.432,0.639,1.049,0.958,1.844,0.958
				c0.578,0,1.049-0.138,1.391-0.415c0.354-0.275,0.554-0.659,0.599-1.148h1.355V205.329z"/>
			<path fill="#FFFFFF" d="M49.601,207.79v-5.375c0-0.209-0.002-0.386-0.009-0.537c-0.008-0.155-0.016-0.315-0.026-0.467h1.176
				l0.029,1.226c0.115-0.408,0.319-0.712,0.619-0.914c0.301-0.21,0.692-0.312,1.168-0.312c0.092,0,0.174,0.002,0.254,0.01
				c0.084,0.008,0.155,0.02,0.229,0.037v1.097c-0.127-0.032-0.242-0.042-0.352-0.056c-0.111-0.015-0.203-0.021-0.283-0.021
				c-0.527,0-0.932,0.148-1.219,0.449c-0.275,0.293-0.418,0.722-0.418,1.281v3.58h-1.169V207.79z"/>
			<path fill="#FFFFFF" d="M59.568,205.745c0,0.655-0.24,1.195-0.703,1.601c-0.473,0.399-1.1,0.608-1.865,0.608
				c-0.996,0-1.748-0.281-2.26-0.826c-0.514-0.551-0.771-1.344-0.771-2.403c0-1.117,0.256-1.979,0.762-2.573
				c0.508-0.594,1.229-0.893,2.178-0.893c0.857,0,1.541,0.244,2.037,0.74c0.5,0.494,0.746,1.168,0.746,2.021
				c0,0.207-0.002,0.357-0.008,0.471c0,0.104-0.009,0.211-0.019,0.305H55.14v0.119v0.26c0,0.604,0.155,1.068,0.471,1.397
				c0.309,0.328,0.748,0.493,1.312,0.493c0.468,0,0.836-0.119,1.111-0.359c0.277-0.232,0.42-0.557,0.426-0.959h1.108V205.745z
				 M55.205,203.969h3.289v-0.141c0-0.537-0.149-0.957-0.438-1.287c-0.298-0.324-0.668-0.484-1.134-0.484
				c-0.51,0-0.92,0.176-1.241,0.531C55.361,202.937,55.205,203.396,55.205,203.969z"/>
			<path fill="#FFFFFF" d="M66.218,207.79h-1.061c-0.035-0.131-0.082-0.453-0.117-0.965v-0.039c-0.16,0.377-0.42,0.66-0.771,0.861
				c-0.349,0.204-0.771,0.307-1.277,0.307c-0.646,0-1.164-0.18-1.551-0.527c-0.394-0.361-0.586-0.828-0.586-1.402
				c0-0.675,0.271-1.212,0.809-1.605c0.535-0.392,1.271-0.59,2.203-0.59h1.107v-0.779c0-0.342-0.104-0.604-0.316-0.775
				c-0.217-0.177-0.527-0.264-0.943-0.264c-0.389,0-0.7,0.098-0.93,0.289c-0.229,0.201-0.352,0.466-0.363,0.797h-1.135v-0.094
				c0-0.569,0.203-0.994,0.609-1.293c0.403-0.303,0.983-0.449,1.742-0.449c0.877,0,1.518,0.154,1.92,0.463
				c0.399,0.314,0.6,0.818,0.6,1.52v3.94c0,0.055,0.006,0.135,0.012,0.243C66.179,207.538,66.195,207.659,66.218,207.79z
				 M64.974,204.625h-0.982c-0.615,0-1.084,0.11-1.424,0.342c-0.332,0.22-0.5,0.535-0.5,0.941c0,0.314,0.119,0.57,0.34,0.772
				c0.227,0.206,0.518,0.308,0.861,0.308c0.553,0,0.971-0.152,1.27-0.441c0.289-0.293,0.437-0.723,0.437-1.289L64.974,204.625
				L64.974,204.625z"/>
			<path fill="#FFFFFF" d="M67.207,201.411h1.084v-1.304l1.166-0.399v1.703h1.42v0.838h-1.42v3.92c0,0.332,0.053,0.545,0.16,0.648
				c0.113,0.107,0.33,0.161,0.652,0.161c0.082,0,0.172-0.005,0.268-0.021c0.092-0.013,0.199-0.039,0.318-0.066v0.885
				c-0.193,0.055-0.365,0.09-0.519,0.119c-0.153,0.021-0.287,0.038-0.407,0.038c-0.601,0-1.023-0.103-1.273-0.31
				c-0.244-0.205-0.365-0.553-0.365-1.047v-4.328h-1.084V201.411z"/>
			<path fill="#FFFFFF" d="M73.384,199.935h-1.381v-1.292h1.381V199.935z M72.111,207.79v-6.379h1.18v6.379H72.111z"/>
			<path fill="#FFFFFF" d="M77.093,207.79l-2.604-6.379h1.186l2.041,5.057l2.06-5.057h1.166l-2.693,6.379H77.093z"/>
			<path fill="#FFFFFF" d="M87.417,205.745c-0.006,0.655-0.246,1.195-0.713,1.601c-0.467,0.399-1.09,0.608-1.865,0.608
				c-0.989,0-1.741-0.281-2.258-0.826c-0.512-0.551-0.766-1.344-0.766-2.403c0-1.117,0.252-1.979,0.754-2.573
				c0.512-0.594,1.238-0.893,2.18-0.893c0.865,0,1.545,0.244,2.039,0.74c0.498,0.494,0.744,1.168,0.744,2.021
				c0,0.207,0,0.357-0.006,0.471c-0.004,0.104-0.01,0.211-0.019,0.305h-4.524v0.119v0.26c0,0.604,0.156,1.068,0.469,1.397
				c0.31,0.328,0.746,0.493,1.316,0.493c0.465,0,0.834-0.119,1.108-0.359c0.279-0.232,0.418-0.557,0.429-0.959h1.111V205.745z
				 M83.048,203.969h3.289v-0.141c0-0.537-0.145-0.957-0.434-1.287c-0.293-0.324-0.676-0.484-1.135-0.484
				c-0.509,0-0.925,0.176-1.24,0.531C83.21,202.937,83.048,203.396,83.048,203.969z"/>
			<path fill="#FFFFFF" d="M41.767,216.956c-0.021,0.807-0.33,1.443-0.929,1.912c-0.594,0.478-1.401,0.713-2.422,0.713
				c-1.235,0-2.18-0.399-2.83-1.203c-0.649-0.795-0.979-1.961-0.979-3.478c0-1.515,0.346-2.687,1.026-3.522
				c0.687-0.83,1.648-1.244,2.902-1.244c0.98,0,1.762,0.223,2.322,0.678c0.561,0.447,0.854,1.062,0.879,1.865h-1.293
				c-0.047-0.467-0.252-0.852-0.621-1.139c-0.367-0.289-0.84-0.434-1.408-0.434c-0.781,0-1.395,0.33-1.838,0.986
				c-0.438,0.658-0.66,1.591-0.66,2.771c0,1.167,0.215,2.064,0.652,2.706c0.436,0.634,1.047,0.952,1.846,0.952
				c0.58,0,1.047-0.133,1.396-0.414c0.35-0.273,0.551-0.659,0.594-1.152h1.361V216.956z"/>
			<path fill="#FFFFFF" d="M42.966,216.359c0-1.065,0.289-1.913,0.855-2.532c0.566-0.613,1.348-0.928,2.324-0.928
				c0.996,0,1.76,0.292,2.313,0.87c0.549,0.573,0.826,1.382,0.826,2.415c0,1.068-0.287,1.902-0.854,2.499
				c-0.57,0.593-1.363,0.897-2.396,0.897c-0.947,0-1.697-0.289-2.24-0.869C43.244,218.141,42.966,217.354,42.966,216.359z
				 M46.146,213.745c-0.603,0-1.082,0.231-1.438,0.687c-0.356,0.456-0.528,1.079-0.528,1.864c0,0.76,0.17,1.35,0.508,1.769
				c0.338,0.414,0.817,0.619,1.432,0.619c0.621,0,1.104-0.218,1.447-0.662c0.354-0.438,0.526-1.048,0.526-1.823
				c0-0.779-0.163-1.38-0.51-1.811C47.251,213.961,46.763,213.745,46.146,213.745z"/>
			<path fill="#FFFFFF" d="M52.169,219.424h-1.176v-5.059c0-0.113-0.01-0.291-0.012-0.529c-0.012-0.239-0.021-0.5-0.047-0.793h1.196
				l0.037,1.084c0.166-0.355,0.422-0.635,0.769-0.842c0.35-0.207,0.742-0.316,1.17-0.316c0.432,0,0.813,0.094,1.164,0.273
				c0.342,0.182,0.651,0.467,0.926,0.846c0.334-0.399,0.658-0.688,0.992-0.855c0.328-0.175,0.715-0.266,1.146-0.266
				c0.449,0,0.855,0.098,1.229,0.281c0.362,0.189,0.625,0.434,0.787,0.748c0.071,0.143,0.127,0.332,0.162,0.561
				c0.024,0.224,0.041,0.546,0.041,0.964v3.903h-1.138v-4.068c0-0.493-0.115-0.868-0.354-1.113c-0.23-0.246-0.578-0.373-1.047-0.373
				c-0.48,0-0.863,0.147-1.17,0.447c-0.306,0.297-0.457,0.682-0.457,1.155v3.952h-1.191v-3.854c0-0.587-0.113-1.019-0.346-1.294
				c-0.228-0.279-0.574-0.418-1.058-0.418c-0.51,0-0.907,0.15-1.192,0.447c-0.287,0.303-0.435,0.722-0.435,1.266v3.854H52.169z"/>
			<path fill="#FFFFFF" d="M63.761,219.424h-1.187v-5.059c0-0.113,0-0.291-0.008-0.529c-0.012-0.239-0.021-0.5-0.039-0.793h1.195
				l0.036,1.084c0.164-0.355,0.427-0.635,0.769-0.842c0.352-0.207,0.734-0.316,1.164-0.316c0.432,0,0.82,0.094,1.164,0.273
				c0.35,0.182,0.66,0.467,0.934,0.846c0.33-0.399,0.656-0.688,0.99-0.855c0.328-0.175,0.709-0.266,1.148-0.266
				c0.444,0,0.852,0.098,1.217,0.281c0.373,0.189,0.635,0.434,0.795,0.748c0.078,0.143,0.127,0.332,0.16,0.561
				c0.03,0.224,0.045,0.546,0.045,0.964v3.903h-1.138v-4.068c0-0.493-0.123-0.868-0.354-1.113c-0.236-0.246-0.584-0.373-1.051-0.373
				c-0.478,0-0.865,0.147-1.172,0.447c-0.304,0.297-0.455,0.682-0.455,1.155v3.952h-1.193v-3.854c0-0.587-0.109-1.019-0.338-1.294
				c-0.229-0.279-0.584-0.418-1.062-0.418c-0.506,0-0.909,0.15-1.194,0.447c-0.287,0.303-0.431,0.722-0.431,1.266v3.854H63.761z"/>
			<path fill="#FFFFFF" d="M73.794,216.359c0-1.065,0.291-1.913,0.853-2.532c0.582-0.613,1.348-0.928,2.33-0.928
				c0.991,0,1.764,0.292,2.317,0.87c0.545,0.573,0.82,1.382,0.82,2.415c0,1.068-0.285,1.902-0.855,2.499
				c-0.565,0.593-1.366,0.897-2.395,0.897c-0.943,0-1.693-0.289-2.244-0.869C74.07,218.141,73.794,217.354,73.794,216.359z
				 M76.976,213.745c-0.607,0-1.082,0.231-1.437,0.687c-0.348,0.456-0.531,1.079-0.531,1.864c0,0.76,0.171,1.35,0.505,1.769
				c0.346,0.414,0.817,0.619,1.438,0.619c0.613,0,1.096-0.218,1.445-0.662c0.354-0.438,0.528-1.048,0.528-1.823
				c0-0.779-0.17-1.38-0.512-1.811C78.076,213.961,77.597,213.745,76.976,213.745z"/>
			<path fill="#FFFFFF" d="M83.001,214.088c0.144-0.344,0.394-0.615,0.752-0.817c0.355-0.201,0.771-0.302,1.242-0.302
				c0.426,0,0.805,0.076,1.16,0.23c0.348,0.155,0.619,0.363,0.816,0.631c0.12,0.154,0.192,0.33,0.239,0.541
				c0.054,0.213,0.074,0.573,0.074,1.09v3.961h-1.172v-4.025c0-0.54-0.119-0.938-0.344-1.186c-0.23-0.25-0.593-0.381-1.078-0.381
				c-0.494,0-0.898,0.139-1.224,0.405c-0.313,0.263-0.469,0.616-0.469,1.039v4.147h-1.186v-5.065c0-0.235,0-0.467-0.008-0.685
				c-0.013-0.217-0.021-0.424-0.033-0.629h1.188L83.001,214.088z"/>
			<path fill="#FFFFFF" d="M88.779,217.508h1.18v0.023c0,0.344,0.123,0.625,0.375,0.836c0.244,0.211,0.564,0.314,0.979,0.314
				c0.397,0,0.717-0.094,0.967-0.273c0.246-0.187,0.367-0.429,0.367-0.729c0-0.218-0.064-0.396-0.187-0.535
				c-0.125-0.138-0.317-0.235-0.582-0.308l-1.354-0.308c-0.57-0.138-0.994-0.345-1.271-0.618c-0.287-0.277-0.42-0.631-0.42-1.048
				c0-0.583,0.234-1.054,0.705-1.413c0.474-0.363,1.104-0.552,1.869-0.552c0.723,0,1.281,0.156,1.695,0.456
				c0.414,0.295,0.623,0.706,0.623,1.23c0,0.049,0,0.084-0.006,0.115c0,0.022,0,0.049-0.009,0.071h-1.168v-0.052
				c0-0.309-0.112-0.547-0.33-0.725c-0.219-0.183-0.51-0.267-0.891-0.267c-0.367,0-0.672,0.084-0.908,0.267
				c-0.242,0.178-0.358,0.4-0.358,0.662c0,0.211,0.069,0.373,0.211,0.496c0.147,0.127,0.393,0.243,0.727,0.328l1.449,0.402
				c0.502,0.132,0.871,0.332,1.106,0.617c0.242,0.283,0.363,0.644,0.363,1.086c0,0.609-0.229,1.093-0.688,1.449
				c-0.459,0.361-1.08,0.543-1.865,0.543c-0.885,0-1.541-0.156-1.953-0.466c-0.416-0.315-0.627-0.797-0.627-1.458V217.508z"/>
		</g>
	</g>
	<g>
		<g>
			<g>
				<path fill="#FFFFFF" d="M72.419,305.338l2.758-7.18h1.025l2.938,7.18h-1.082l-0.838-2.174h-3.003l-0.788,2.174H72.419z
					 M74.492,302.393h2.434l-0.747-1.993c-0.229-0.603-0.4-1.099-0.511-1.487c-0.09,0.459-0.221,0.918-0.387,1.371L74.492,302.393z"
					/>
			</g>
			<g>
				<path fill="#FFFFFF" d="M83.181,303.433l0.868,0.112c-0.094,0.598-0.336,1.064-0.727,1.406
					c-0.391,0.338-0.871,0.506-1.439,0.506c-0.713,0-1.282-0.233-1.717-0.699c-0.432-0.467-0.647-1.135-0.647-2.002
					c0-0.562,0.094-1.053,0.278-1.475c0.187-0.419,0.474-0.736,0.851-0.947c0.381-0.213,0.795-0.314,1.242-0.314
					c0.563,0,1.026,0.143,1.387,0.43c0.359,0.284,0.59,0.688,0.688,1.217l-0.854,0.131c-0.082-0.348-0.228-0.611-0.435-0.789
					c-0.209-0.176-0.456-0.264-0.75-0.264c-0.446,0-0.809,0.159-1.086,0.479c-0.274,0.316-0.418,0.82-0.418,1.51
					c0,0.699,0.136,1.208,0.402,1.523c0.268,0.316,0.619,0.477,1.051,0.477c0.347,0,0.636-0.107,0.865-0.318
					C82.976,304.2,83.121,303.875,83.181,303.433z"/>
			</g>
			<g>
				<path fill="#FFFFFF" d="M86.73,304.549l0.129,0.779c-0.25,0.055-0.476,0.078-0.666,0.078c-0.32,0-0.568-0.049-0.746-0.15
					c-0.176-0.103-0.299-0.234-0.371-0.397c-0.072-0.167-0.109-0.512-0.109-1.044v-2.993h-0.647v-0.687h0.647v-1.286l0.877-0.529
					v1.815h0.888v0.686h-0.888v3.043c0,0.252,0.019,0.415,0.048,0.486c0.028,0.072,0.082,0.128,0.149,0.171
					c0.07,0.042,0.172,0.063,0.303,0.063C86.441,304.584,86.572,304.573,86.73,304.549z"/>
			</g>
			<g>
				<path fill="#FFFFFF" d="M87.599,299.17v-1.012h0.879v1.012H87.599z M87.599,305.338v-5.205h0.879v5.205H87.599z"/>
			</g>
			<g>
				<path fill="#FFFFFF" d="M91.267,305.338l-1.979-5.205h0.928l1.119,3.119c0.119,0.336,0.232,0.685,0.33,1.047
					c0.082-0.272,0.191-0.604,0.33-0.988l1.156-3.178h0.908l-1.97,5.205H91.267L91.267,305.338z"/>
			</g>
			<g>
				<path fill="#FFFFFF" d="M94.843,299.17v-1.012h0.884v1.012H94.843z M94.843,305.338v-5.205h0.884v5.205H94.843z"/>
			</g>
			<g>
				<path fill="#FFFFFF" d="M100.443,305.338v-0.654c-0.33,0.512-0.814,0.773-1.455,0.773c-0.414,0-0.795-0.117-1.143-0.345
					c-0.349-0.229-0.617-0.545-0.81-0.956c-0.19-0.41-0.287-0.884-0.287-1.414c0-0.519,0.086-0.992,0.26-1.414
					c0.175-0.424,0.435-0.746,0.779-0.973c0.346-0.227,0.732-0.337,1.16-0.337c0.314,0,0.594,0.063,0.838,0.198
					c0.246,0.132,0.445,0.305,0.598,0.516v-2.574h0.878v7.18H100.443z M97.656,302.743c0,0.666,0.141,1.164,0.42,1.494
					c0.283,0.332,0.613,0.497,0.996,0.497c0.385,0,0.713-0.159,0.979-0.474c0.273-0.315,0.406-0.799,0.406-1.444
					c0-0.712-0.137-1.233-0.412-1.565c-0.272-0.334-0.61-0.5-1.014-0.5c-0.393,0-0.719,0.156-0.98,0.479
					C97.785,301.547,97.656,302.051,97.656,302.743z"/>
			</g>
			<g>
				<path fill="#FFFFFF" d="M106.044,304.696c-0.326,0.281-0.643,0.475-0.942,0.588c-0.304,0.117-0.627,0.174-0.974,0.174
					c-0.571,0-1.012-0.141-1.317-0.42c-0.31-0.277-0.459-0.636-0.459-1.07c0-0.254,0.057-0.486,0.172-0.699
					c0.117-0.209,0.27-0.377,0.457-0.506c0.186-0.127,0.397-0.225,0.633-0.288c0.174-0.048,0.434-0.091,0.783-0.132
					c0.713-0.086,1.237-0.186,1.571-0.305c0.005-0.123,0.007-0.197,0.007-0.231c0-0.356-0.082-0.61-0.248-0.761
					c-0.228-0.197-0.562-0.295-1.006-0.295c-0.412,0-0.722,0.07-0.919,0.217c-0.196,0.145-0.344,0.4-0.438,0.771l-0.865-0.117
					c0.08-0.371,0.209-0.67,0.392-0.895c0.18-0.229,0.438-0.405,0.774-0.523c0.342-0.125,0.736-0.185,1.185-0.185
					c0.442,0,0.805,0.053,1.08,0.155c0.278,0.104,0.479,0.234,0.61,0.394c0.135,0.159,0.228,0.36,0.277,0.599
					c0.029,0.153,0.045,0.426,0.045,0.817v1.175c0,0.819,0.016,1.338,0.057,1.557c0.037,0.217,0.111,0.424,0.224,0.623h-0.92
					C106.128,305.157,106.072,304.942,106.044,304.696z M105.968,302.728c-0.315,0.13-0.797,0.241-1.438,0.333
					c-0.365,0.052-0.619,0.111-0.771,0.176c-0.15,0.064-0.264,0.161-0.348,0.288c-0.082,0.125-0.123,0.265-0.123,0.418
					c0,0.235,0.088,0.431,0.269,0.587c0.176,0.156,0.438,0.234,0.778,0.234s0.646-0.074,0.908-0.223
					c0.262-0.146,0.459-0.352,0.584-0.609c0.094-0.199,0.139-0.491,0.139-0.883L105.968,302.728L105.968,302.728z"/>
			</g>
			<g>
				<path fill="#FFFFFF" d="M111.603,305.338v-0.654c-0.328,0.512-0.814,0.773-1.455,0.773c-0.414,0-0.795-0.117-1.146-0.345
					c-0.344-0.229-0.614-0.545-0.807-0.956c-0.189-0.41-0.285-0.884-0.285-1.414c0-0.519,0.086-0.992,0.258-1.414
					c0.174-0.424,0.433-0.746,0.777-0.973c0.346-0.227,0.736-0.337,1.164-0.337c0.312,0,0.594,0.063,0.836,0.198
					c0.246,0.132,0.445,0.305,0.598,0.516v-2.574h0.879v7.18H111.603z M108.818,302.743c0,0.666,0.139,1.164,0.42,1.494
					c0.279,0.332,0.611,0.497,0.992,0.497c0.389,0,0.715-0.159,0.983-0.474c0.271-0.315,0.402-0.799,0.402-1.444
					c0-0.712-0.135-1.233-0.412-1.565c-0.271-0.334-0.606-0.5-1.01-0.5c-0.396,0-0.721,0.156-0.982,0.479
					C108.947,301.547,108.818,302.051,108.818,302.743z"/>
			</g>
		</g>
		<g>
			<g>
				<path fill="#FFFFFF" d="M60.986,314.563l2.756-7.182h1.023l2.938,7.182h-1.082l-0.836-2.176h-3.004l-0.787,2.176H60.986z
					 M63.058,311.616h2.434l-0.75-1.992c-0.227-0.602-0.396-1.098-0.51-1.488c-0.092,0.459-0.221,0.918-0.385,1.373L63.058,311.616z
					"/>
			</g>
			<g>
				<path fill="#FFFFFF" d="M68.564,314.563v-4.518h-0.777v-0.688h0.777v-0.553c0-0.35,0.033-0.607,0.094-0.777
					c0.084-0.227,0.234-0.414,0.449-0.559c0.213-0.141,0.512-0.211,0.896-0.211c0.248,0,0.523,0.029,0.824,0.088l-0.133,0.771
					c-0.185-0.033-0.357-0.051-0.521-0.051c-0.268,0-0.457,0.059-0.567,0.17c-0.109,0.117-0.166,0.33-0.166,0.645v0.479h1.016v0.688
					H69.44v4.516H68.564L68.564,314.563z"/>
			</g>
			<g>
				<path fill="#FFFFFF" d="M71.146,308.397v-1.016h0.881v1.016H71.146z M71.146,314.563v-5.205h0.881v5.205H71.146z"/>
			</g>
			<g>
				<path fill="#FFFFFF" d="M76.765,313.92c-0.326,0.279-0.642,0.475-0.941,0.588c-0.305,0.113-0.629,0.17-0.973,0.17
					c-0.572,0-1.013-0.141-1.32-0.418c-0.307-0.279-0.459-0.635-0.459-1.07c0-0.254,0.059-0.486,0.174-0.699
					c0.117-0.209,0.269-0.379,0.455-0.504c0.188-0.129,0.4-0.227,0.635-0.291c0.172-0.045,0.437-0.09,0.785-0.131
					c0.711-0.084,1.236-0.188,1.572-0.305c0-0.119,0.004-0.199,0.004-0.23c0-0.357-0.084-0.613-0.25-0.758
					c-0.227-0.199-0.559-0.299-1.004-0.299c-0.414,0-0.723,0.072-0.918,0.217c-0.199,0.143-0.346,0.402-0.439,0.771l-0.86-0.117
					c0.075-0.371,0.207-0.668,0.387-0.895c0.178-0.229,0.438-0.4,0.777-0.523s0.733-0.184,1.184-0.184
					c0.441,0,0.803,0.051,1.08,0.156c0.277,0.104,0.481,0.232,0.613,0.395c0.131,0.16,0.223,0.357,0.272,0.598
					c0.029,0.154,0.047,0.422,0.047,0.812v1.18c0,0.818,0.019,1.336,0.054,1.553c0.039,0.219,0.112,0.428,0.225,0.625h-0.92
					C76.849,314.377,76.791,314.167,76.765,313.92z M76.693,311.952c-0.318,0.131-0.801,0.242-1.439,0.332
					c-0.364,0.055-0.619,0.113-0.771,0.174c-0.148,0.068-0.269,0.164-0.349,0.291c-0.079,0.125-0.12,0.266-0.12,0.42
					c0,0.236,0.088,0.428,0.266,0.586c0.18,0.158,0.438,0.236,0.783,0.236c0.338,0,0.641-0.074,0.905-0.225
					c0.265-0.145,0.457-0.35,0.582-0.607c0.095-0.199,0.144-0.492,0.144-0.883L76.693,311.952L76.693,311.952z"/>
			</g>
			<g>
				<path fill="#FFFFFF" d="M78.953,314.563v-5.205h0.793v0.74c0.381-0.57,0.93-0.855,1.654-0.855c0.311,0,0.602,0.057,0.863,0.17
					c0.266,0.113,0.461,0.26,0.592,0.443c0.131,0.182,0.223,0.398,0.272,0.652c0.035,0.164,0.05,0.447,0.05,0.855v3.199h-0.88
					v-3.164c0-0.361-0.034-0.627-0.104-0.807c-0.068-0.178-0.189-0.32-0.365-0.426c-0.174-0.104-0.379-0.16-0.615-0.16
					c-0.375,0-0.696,0.119-0.973,0.357c-0.271,0.24-0.408,0.689-0.408,1.357v2.842H78.953z"/>
			</g>
			<g>
				<path fill="#FFFFFF" d="M84.066,314.563v-0.717l3.312-3.801c-0.375,0.021-0.709,0.029-0.996,0.029h-2.123v-0.717h4.255v0.586
					l-2.818,3.301l-0.543,0.602c0.396-0.025,0.766-0.041,1.113-0.041h2.405v0.756h-4.604V314.563z"/>
			</g>
			<g>
				<path fill="#FFFFFF" d="M92.943,313.92c-0.328,0.279-0.642,0.475-0.943,0.588c-0.301,0.113-0.625,0.17-0.973,0.17
					c-0.574,0-1.012-0.141-1.32-0.418c-0.307-0.279-0.459-0.635-0.459-1.07c0-0.254,0.06-0.486,0.172-0.699
					c0.119-0.209,0.273-0.379,0.459-0.504c0.189-0.129,0.398-0.227,0.636-0.291c0.174-0.045,0.432-0.09,0.784-0.131
					c0.711-0.084,1.234-0.188,1.57-0.305c0.004-0.119,0.006-0.199,0.006-0.23c0-0.357-0.082-0.613-0.248-0.758
					c-0.229-0.199-0.562-0.299-1.008-0.299c-0.414,0-0.721,0.072-0.916,0.217c-0.199,0.143-0.344,0.402-0.44,0.771l-0.861-0.117
					c0.078-0.371,0.207-0.668,0.389-0.895c0.181-0.229,0.439-0.4,0.777-0.523c0.34-0.123,0.733-0.184,1.184-0.184
					c0.441,0,0.804,0.051,1.08,0.156c0.277,0.104,0.482,0.232,0.615,0.395c0.129,0.16,0.219,0.357,0.272,0.598
					c0.029,0.154,0.044,0.422,0.044,0.812v1.18c0,0.818,0.018,1.336,0.057,1.553c0.035,0.219,0.111,0.428,0.223,0.625h-0.92
					C93.029,314.377,92.968,314.167,92.943,313.92z M92.869,311.952c-0.32,0.131-0.797,0.242-1.44,0.332
					c-0.359,0.055-0.615,0.113-0.769,0.174c-0.147,0.068-0.266,0.164-0.35,0.291c-0.082,0.125-0.119,0.266-0.119,0.42
					c0,0.236,0.086,0.428,0.264,0.586s0.439,0.236,0.783,0.236c0.342,0,0.641-0.074,0.906-0.225c0.266-0.145,0.461-0.35,0.582-0.607
					c0.096-0.199,0.143-0.492,0.143-0.883V311.952z"/>
			</g>
			<g>
				<path fill="#FFFFFF" d="M95.126,314.563v-5.205h0.789v0.732c0.164-0.256,0.379-0.461,0.65-0.617
					c0.274-0.152,0.582-0.23,0.928-0.23c0.385,0,0.701,0.078,0.949,0.24c0.246,0.16,0.418,0.383,0.521,0.67
					c0.408-0.607,0.947-0.91,1.607-0.91c0.514,0,0.91,0.141,1.191,0.428c0.276,0.287,0.413,0.725,0.413,1.318v3.572H101.3v-3.275
					c0-0.354-0.026-0.607-0.086-0.764c-0.057-0.154-0.157-0.277-0.311-0.373c-0.152-0.096-0.328-0.143-0.529-0.143
					c-0.365,0-0.67,0.123-0.912,0.365c-0.239,0.244-0.36,0.633-0.36,1.17v3.02H98.22v-3.381c0-0.389-0.074-0.684-0.216-0.881
					c-0.145-0.197-0.383-0.293-0.709-0.293c-0.246,0-0.477,0.064-0.686,0.195c-0.213,0.129-0.367,0.324-0.461,0.574
					c-0.096,0.252-0.142,0.611-0.142,1.088v2.697h-0.882V314.563z"/>
			</g>
			<g>
				<path fill="#FFFFFF" d="M103.49,308.397v-1.016h0.881v1.016H103.49z M103.49,314.563v-5.205h0.881v5.205H103.49z"/>
			</g>
			<g>
				<path fill="#FFFFFF" d="M109.277,312.887l0.91,0.113c-0.146,0.533-0.41,0.945-0.797,1.238c-0.39,0.295-0.886,0.439-1.492,0.439
					c-0.758,0-1.359-0.23-1.806-0.699c-0.45-0.469-0.672-1.129-0.672-1.973c0-0.875,0.226-1.557,0.679-2.039
					c0.446-0.48,1.032-0.725,1.752-0.725c0.694,0,1.266,0.236,1.705,0.711c0.438,0.473,0.664,1.139,0.664,1.998
					c0,0.053-0.005,0.131-0.009,0.236h-3.881c0.035,0.572,0.195,1.01,0.484,1.311c0.293,0.307,0.654,0.457,1.088,0.457
					c0.324,0,0.602-0.084,0.83-0.254C108.962,313.534,109.142,313.262,109.277,312.887z M106.382,311.459h2.904
					c-0.039-0.434-0.149-0.764-0.332-0.98c-0.283-0.342-0.646-0.512-1.092-0.512c-0.406,0-0.75,0.137-1.023,0.408
					C106.564,310.647,106.41,311.008,106.382,311.459z"/>
			</g>
			<g>
				<path fill="#FFFFFF" d="M111.296,314.563v-5.205h0.791v0.74c0.384-0.57,0.935-0.855,1.658-0.855c0.312,0,0.601,0.057,0.865,0.17
					c0.262,0.113,0.459,0.26,0.592,0.443c0.131,0.182,0.221,0.398,0.273,0.652c0.03,0.164,0.045,0.447,0.045,0.855v3.199h-0.879
					v-3.164c0-0.361-0.035-0.627-0.104-0.807c-0.07-0.178-0.19-0.32-0.365-0.426c-0.174-0.104-0.379-0.16-0.612-0.16
					c-0.379,0-0.703,0.119-0.976,0.357c-0.271,0.24-0.408,0.689-0.408,1.357v2.842H111.296z"/>
			</g>
			<g>
				<path fill="#FFFFFF" d="M118.802,313.776l0.128,0.777c-0.25,0.049-0.472,0.076-0.668,0.076c-0.32,0-0.568-0.047-0.742-0.152
					c-0.179-0.102-0.302-0.232-0.375-0.395c-0.072-0.168-0.105-0.516-0.105-1.043v-2.996h-0.647v-0.688h0.647v-1.285l0.875-0.531
					v1.816h0.89v0.688h-0.89v3.043c0,0.25,0.017,0.412,0.047,0.484c0.031,0.072,0.082,0.131,0.152,0.172
					c0.07,0.043,0.172,0.062,0.299,0.062C118.511,313.807,118.642,313.797,118.802,313.776z"/>
			</g>
			<g>
				<path fill="#FFFFFF" d="M119.335,311.961c0-0.963,0.267-1.678,0.804-2.141c0.45-0.387,0.993-0.578,1.639-0.578
					c0.715,0,1.299,0.23,1.754,0.701c0.453,0.471,0.68,1.115,0.68,1.943c0,0.67-0.102,1.195-0.303,1.58
					c-0.199,0.383-0.492,0.682-0.877,0.895c-0.383,0.213-0.803,0.316-1.254,0.316c-0.73,0-1.32-0.232-1.769-0.701
					C119.556,313.512,119.335,312.84,119.335,311.961z M120.242,311.961c0,0.666,0.146,1.164,0.434,1.496
					c0.293,0.334,0.66,0.498,1.103,0.498c0.436,0,0.801-0.164,1.092-0.5c0.289-0.332,0.437-0.84,0.437-1.523
					c0-0.643-0.148-1.131-0.441-1.463c-0.287-0.33-0.654-0.496-1.086-0.496c-0.441,0-0.809,0.164-1.103,0.494
					C120.388,310.797,120.242,311.293,120.242,311.961z"/>
			</g>
		</g>
	</g>
	<g>
		<path fill="#FFFFFF" d="M146.976,314.915c0.043-0.182,0.069-0.369,0.129-0.545c0.321-0.967,1.041-1.51,1.979-1.809
			c0.078-0.023,0.156-0.041,0.25-0.066c0-0.861,0-1.719,0-2.578c0-0.172-0.004-0.344,0.002-0.514
			c0.015-0.438,0.351-0.797,0.785-0.826c0.301-0.02,0.603-0.002,0.896-0.002c0.094-0.562,0.229-0.73,0.58-0.74
			c0.379-0.012,0.526,0.15,0.646,0.717c0.262,0,0.525,0,0.807,0c-0.094-0.422-0.057-0.816,0.293-1.08
			c0.185-0.139,0.439-0.254,0.664-0.256c4.074-0.014,8.148-0.012,12.226-0.01c0.633,0,1.098,0.564,0.988,1.186
			c-0.009,0.047-0.009,0.096-0.015,0.174c0.101,0,0.188,0,0.275,0c0.811,0,1.619-0.002,2.43,0c0.658,0.002,1.002,0.336,1.004,0.994
			c0.008,1.564,0.006,3.125,0,4.689c-0.002,0.664-0.342,0.996-1.002,0.996c-6.531,0.002-13.061,0.002-19.59,0
			c-0.66,0-0.988-0.336-0.99-1.002c0-0.146,0-0.293,0-0.441c-0.504,0.055-1.002,0.631-1.033,1.186
			c-0.043,0.758,0.433,1.373,1.25,1.594c0.625,0.17,1.265,0.234,1.914,0.225c0.867-0.016,1.74-0.061,2.599,0.037
			c1.774,0.207,3.217,1.076,4.352,2.447c0.31,0.373,0.199,0.738-0.291,1.074c-0.098,0-0.194,0-0.295,0
			c-0.113-0.102-0.229-0.205-0.344-0.307c-0.435-0.381-0.834-0.812-1.31-1.135c-1.123-0.762-2.401-0.945-3.735-0.932
			c-0.888,0.01-1.783,0.006-2.66-0.102c-1.07-0.129-1.918-0.697-2.439-1.654c-0.19-0.354-0.246-0.781-0.362-1.176
			C146.976,315.012,146.976,314.963,146.976,314.915z"/>
		<path fill="#FFFFFF" d="M158.566,292.474c0.235,0.056,0.479,0.089,0.707,0.171c1.36,0.497,2.229,1.447,2.467,2.884
			c0.238,1.451-0.281,2.634-1.445,3.524c-0.137,0.105-0.182,0.195-0.146,0.363c0.346,1.627,0.684,3.256,1.022,4.885
			c0.015,0.064,0.035,0.125,0.062,0.214c0.084,0,0.172,0,0.26,0c0.646,0,1.293-0.007,1.939,0.003
			c0.516,0.007,0.838,0.43,0.674,0.865c-0.047,0.125-0.115,0.193-0.269,0.193c-2.471-0.006-4.942-0.007-7.414,0
			c-0.225,0-0.282-0.129-0.309-0.299c-0.07-0.438,0.223-0.755,0.709-0.762c0.539-0.008,1.078-0.001,1.619-0.002
			c0.088,0,0.178,0,0.305,0c-0.096-0.467-0.186-0.91-0.276-1.354c-0.226-1.068-0.455-2.137-0.669-3.209
			c-0.032-0.169-0.102-0.221-0.26-0.246c-1.5-0.252-2.646-1.365-2.961-2.863c-0.428-2.047,0.965-4.029,3.039-4.325
			c0.037-0.005,0.072-0.029,0.109-0.046C158.009,292.474,158.287,292.474,158.566,292.474z M160.423,295.963
			c-0.036-0.864-0.327-1.473-0.987-1.869c-0.324-0.194-0.611-0.127-0.783,0.156c-0.168,0.274-0.092,0.477,0.254,0.692
			c0.43,0.269,0.613,0.737,0.482,1.228c-0.021,0.078-0.05,0.156-0.06,0.236c-0.027,0.246,0.168,0.52,0.4,0.579
			c0.229,0.058,0.453-0.071,0.537-0.345C160.345,296.385,160.388,296.12,160.423,295.963z"/>
		<path fill="#FFFFFF" d="M160.117,306.907c-1.85,0-3.697,0-5.547,0c-0.248,0-0.293-0.053-0.271-0.303
			c0.037-0.395,0.339-0.695,0.732-0.73c0.082-0.006,0.162-0.008,0.244-0.008c3.231,0,6.465,0,9.695-0.003
			c0.336,0,0.637,0.056,0.832,0.362c0.051,0.082,0.096,0.174,0.116,0.266c0.078,0.346,0.019,0.418-0.332,0.418
			C163.765,306.907,161.941,306.907,160.117,306.907z"/>
	</g>
	<g>
		<path fill="#FFFFFF" d="M59.697,117.401v-9.075h1.932l1.951,6.238c0.035,0.132,0.086,0.316,0.15,0.558
			c0.062,0.239,0.139,0.533,0.225,0.883c0.062-0.296,0.121-0.569,0.18-0.821c0.062-0.254,0.115-0.464,0.164-0.631l1.9-6.227h1.865
			v9.075h-1.107v-6.49c0-0.369,0.002-0.702,0.006-0.997c0.004-0.296,0.011-0.597,0.019-0.904l-2.56,8.392H63.4l-2.621-8.478
			c0.014,0.324,0.021,0.672,0.027,1.045c0.008,0.374,0.01,0.771,0.01,1.195v6.237H59.697z"/>
		<path fill="#FFFFFF" d="M70.646,112.724h-1.162v-0.123c0-0.549,0.188-0.966,0.57-1.25c0.379-0.286,0.938-0.429,1.676-0.429
			c0.729,0,1.266,0.148,1.61,0.445c0.345,0.298,0.517,0.763,0.517,1.394v2.954c0,0.291,0.01,0.577,0.029,0.858
			c0.018,0.28,0.045,0.556,0.081,0.827h-1.081l-0.074-0.795c-0.213,0.276-0.461,0.486-0.744,0.634
			c-0.283,0.148-0.58,0.221-0.894,0.221c-0.536,0-0.975-0.177-1.309-0.533c-0.338-0.357-0.506-0.825-0.506-1.403
			c0-0.726,0.234-1.273,0.705-1.642c0.469-0.371,1.17-0.555,2.102-0.555h0.607v-0.312c0-0.498-0.072-0.84-0.219-1.029
			c-0.146-0.188-0.396-0.282-0.752-0.282c-0.384,0-0.671,0.081-0.865,0.243c-0.193,0.162-0.293,0.4-0.293,0.717L70.646,112.724
			L70.646,112.724z M72.787,114.083c-0.873,0-1.479,0.102-1.826,0.307c-0.344,0.201-0.516,0.546-0.516,1.029
			c0,0.312,0.094,0.572,0.281,0.778c0.188,0.207,0.428,0.312,0.715,0.312c0.426,0,0.758-0.167,0.992-0.502
			c0.235-0.334,0.354-0.812,0.354-1.431V114.083z"/>
		<path fill="#FFFFFF" d="M75.25,119.792v-7.597c0-0.324-0.004-0.562-0.012-0.715c-0.01-0.149-0.023-0.286-0.043-0.405h1.111
			l0.062,0.604c0.197-0.259,0.418-0.451,0.662-0.579c0.244-0.126,0.52-0.189,0.826-0.189c0.711,0,1.229,0.259,1.563,0.781
			c0.332,0.521,0.498,1.34,0.498,2.46c0,1.16-0.168,2.018-0.506,2.572c-0.336,0.554-0.854,0.829-1.557,0.829
			c-0.324,0-0.611-0.072-0.863-0.218s-0.469-0.364-0.65-0.655v3.112H75.25z M76.332,114.263c0,0.819,0.105,1.42,0.314,1.799
			s0.537,0.569,0.983,0.569c0.406,0,0.703-0.191,0.89-0.575c0.188-0.383,0.278-0.997,0.278-1.842c0-0.941-0.094-1.591-0.28-1.954
			c-0.189-0.364-0.513-0.545-0.968-0.545c-0.426,0-0.735,0.199-0.93,0.597C76.429,112.709,76.332,113.361,76.332,114.263z"/>
		<path fill="#FFFFFF" d="M82.22,112.724h-1.164v-0.123c0-0.549,0.188-0.966,0.569-1.25c0.379-0.286,0.938-0.429,1.676-0.429
			c0.73,0,1.269,0.148,1.611,0.445c0.344,0.298,0.519,0.763,0.519,1.394v2.954c0,0.291,0.008,0.577,0.026,0.858
			c0.021,0.28,0.047,0.556,0.084,0.827h-1.084l-0.074-0.795c-0.213,0.276-0.461,0.486-0.743,0.634
			c-0.281,0.147-0.58,0.221-0.892,0.221c-0.537,0-0.975-0.177-1.311-0.533c-0.336-0.357-0.504-0.825-0.504-1.403
			c0-0.726,0.233-1.273,0.703-1.642c0.469-0.371,1.17-0.555,2.102-0.555h0.607v-0.312c0-0.498-0.072-0.84-0.218-1.029
			c-0.146-0.188-0.396-0.282-0.754-0.282c-0.383,0-0.67,0.081-0.865,0.243c-0.192,0.162-0.29,0.4-0.29,0.717L82.22,112.724
			L82.22,112.724z M84.361,114.083c-0.875,0-1.482,0.102-1.828,0.307c-0.344,0.201-0.516,0.546-0.516,1.029
			c0,0.312,0.094,0.572,0.28,0.778c0.189,0.207,0.429,0.312,0.716,0.312c0.426,0,0.758-0.167,0.993-0.502
			c0.236-0.334,0.354-0.812,0.354-1.431V114.083z"/>
		<path fill="#FFFFFF" d="M53.468,125.1v0.203c0,0.862-0.227,1.532-0.682,2.015c-0.457,0.481-1.09,0.724-1.902,0.724
			c-0.385,0-0.743-0.056-1.079-0.167c-0.334-0.109-0.604-0.262-0.81-0.455c-0.344-0.315-0.588-0.771-0.729-1.364
			c-0.144-0.596-0.213-1.561-0.213-2.892c0-0.932,0.045-1.647,0.133-2.148c0.088-0.499,0.235-0.918,0.444-1.254
			c0.205-0.336,0.502-0.595,0.89-0.775c0.389-0.181,0.838-0.271,1.352-0.271c0.824,0,1.453,0.231,1.885,0.691
			c0.435,0.461,0.648,1.134,0.648,2.015h-1.271v-0.134c0-0.543-0.106-0.945-0.323-1.214c-0.215-0.266-0.541-0.399-0.976-0.399
			c-0.274,0-0.516,0.056-0.723,0.159c-0.207,0.106-0.375,0.264-0.502,0.469c-0.127,0.205-0.217,0.514-0.271,0.932
			c-0.053,0.418-0.077,1.207-0.077,2.372c0,1.374,0.114,2.294,0.348,2.762c0.229,0.467,0.641,0.701,1.227,0.701
			c0.468,0,0.812-0.151,1.037-0.457c0.224-0.307,0.336-0.776,0.336-1.407v-0.104h1.259V125.1z"/>
		<path fill="#FFFFFF" d="M54.681,124.725c0-1.151,0.188-1.989,0.567-2.51s0.984-0.781,1.812-0.781c0.832,0,1.436,0.26,1.809,0.776
			c0.373,0.521,0.56,1.363,0.56,2.528c0,1.163-0.188,2.007-0.562,2.53s-0.977,0.784-1.805,0.784c-0.838,0-1.443-0.261-1.818-0.784
			S54.681,125.896,54.681,124.725z M57.062,122.356c-0.451,0-0.777,0.187-0.978,0.555c-0.196,0.369-0.297,0.978-0.297,1.828
			c0,0.864,0.099,1.479,0.295,1.844c0.197,0.365,0.523,0.549,0.979,0.549c0.451,0,0.772-0.184,0.969-0.549
			c0.193-0.364,0.291-0.975,0.291-1.832c0-0.87-0.098-1.487-0.291-1.85C57.835,122.538,57.513,122.356,57.062,122.356z"/>
		<path fill="#FFFFFF" d="M64.056,127.9v-4.043c0-0.614-0.078-1.034-0.236-1.265c-0.158-0.226-0.428-0.341-0.812-0.341
			c-0.43,0-0.743,0.16-0.938,0.479c-0.197,0.318-0.297,0.822-0.297,1.516v3.654h-1.082v-5.327c0-0.137-0.006-0.285-0.017-0.449
			c-0.01-0.165-0.024-0.347-0.045-0.548h1.105l0.049,0.732c0.223-0.308,0.469-0.532,0.736-0.674c0.27-0.143,0.582-0.213,0.938-0.213
			c0.521,0,0.935,0.154,1.238,0.459c0.303,0.305,0.455,0.721,0.455,1.245v4.774L64.056,127.9L64.056,127.9z"/>
		<path fill="#FFFFFF" d="M69.925,125.759h1.089c-0.013,0.726-0.218,1.29-0.617,1.691c-0.4,0.402-0.953,0.603-1.658,0.603
			c-0.834,0-1.436-0.259-1.809-0.775c-0.373-0.516-0.562-1.36-0.562-2.527c0-1.169,0.188-2.015,0.562-2.535
			c0.373-0.521,0.975-0.781,1.809-0.781c0.672,0,1.215,0.181,1.627,0.537c0.412,0.36,0.619,0.832,0.619,1.42v0.134h-1.072
			c0-0.368-0.096-0.653-0.291-0.861c-0.195-0.204-0.469-0.308-0.822-0.308c-0.479,0-0.819,0.178-1.021,0.529
			c-0.201,0.354-0.301,0.975-0.301,1.865c0,0.865,0.098,1.478,0.293,1.838c0.192,0.361,0.518,0.543,0.969,0.543
			c0.352,0,0.635-0.124,0.85-0.373C69.8,126.51,69.912,126.176,69.925,125.759z"/>
		<path fill="#FFFFFF" d="M76.693,125.917c-0.033,0.671-0.25,1.193-0.65,1.57c-0.397,0.377-0.938,0.565-1.619,0.565
			c-0.846,0-1.452-0.259-1.817-0.775c-0.367-0.517-0.551-1.382-0.551-2.59c0-1.136,0.188-1.963,0.563-2.479
			c0.379-0.518,0.979-0.775,1.805-0.775c0.781,0,1.355,0.206,1.724,0.618c0.362,0.413,0.547,1.062,0.547,1.954v0.983h-3.521v0.363
			c0,0.623,0.101,1.074,0.3,1.355c0.196,0.281,0.516,0.423,0.95,0.423c0.332,0,0.599-0.105,0.802-0.315
			c0.203-0.208,0.332-0.508,0.387-0.898L76.693,125.917L76.693,125.917z M73.179,124.172h2.442v-0.542
			c0-0.476-0.1-0.838-0.295-1.082c-0.197-0.246-0.486-0.369-0.869-0.369c-0.426,0-0.742,0.158-0.951,0.479
			C73.3,122.978,73.193,123.481,73.179,124.172z"/>
		<path fill="#FFFFFF" d="M77.88,130.292v-7.598c0-0.323-0.004-0.561-0.012-0.714c-0.01-0.149-0.022-0.287-0.043-0.405h1.113
			L79,122.179c0.197-0.26,0.418-0.452,0.662-0.579c0.244-0.126,0.521-0.19,0.826-0.19c0.711,0,1.229,0.26,1.563,0.782
			c0.332,0.52,0.498,1.34,0.498,2.46c0,1.16-0.168,2.018-0.506,2.571c-0.336,0.555-0.854,0.83-1.557,0.83
			c-0.322,0-0.611-0.072-0.863-0.22c-0.252-0.144-0.469-0.362-0.649-0.654v3.113H77.88z M78.962,124.761
			c0,0.821,0.105,1.422,0.314,1.801s0.537,0.569,0.983,0.569c0.406,0,0.703-0.191,0.89-0.575c0.188-0.384,0.279-0.998,0.279-1.844
			c0-0.94-0.095-1.589-0.281-1.952c-0.189-0.364-0.513-0.545-0.967-0.545c-0.427,0-0.736,0.198-0.931,0.597
			C79.06,123.209,78.962,123.86,78.962,124.761z"/>
		<path fill="#FFFFFF" d="M85.224,119.786v1.79h1.262v0.78h-1.262v3.79c0,0.341,0.053,0.575,0.157,0.705
			c0.104,0.129,0.298,0.192,0.574,0.192c0.101,0,0.265-0.007,0.492-0.023h0.037l-0.006,0.818c-0.168,0.036-0.326,0.064-0.474,0.082
			c-0.147,0.02-0.287,0.028-0.414,0.028c-0.532,0-0.907-0.104-1.125-0.312c-0.217-0.208-0.325-0.579-0.325-1.107v-4.172H83.18v-0.78
			h0.961v-1.273L85.224,119.786z"/>
		<path fill="#FFFFFF" d="M88.443,121.576v4.028c0,0.611,0.078,1.031,0.231,1.259c0.156,0.228,0.429,0.342,0.812,0.342
			c0.428,0,0.738-0.156,0.936-0.472c0.197-0.313,0.295-0.815,0.295-1.503v-3.654h1.084v5.327c0.005,0.14,0.011,0.291,0.021,0.456
			c0.012,0.163,0.025,0.344,0.041,0.541h-1.102l-0.056-0.745c-0.221,0.31-0.469,0.535-0.738,0.679
			c-0.271,0.147-0.581,0.22-0.936,0.22c-0.521,0-0.932-0.152-1.236-0.458c-0.303-0.305-0.455-0.721-0.455-1.245v-4.774
			L88.443,121.576L88.443,121.576z"/>
		<path fill="#FFFFFF" d="M94.275,123.224h-1.164V123.1c0-0.548,0.188-0.966,0.57-1.252c0.379-0.284,0.938-0.427,1.676-0.427
			c0.729,0,1.268,0.148,1.61,0.445c0.347,0.299,0.519,0.763,0.519,1.395v2.952c0,0.291,0.008,0.577,0.027,0.858
			c0.019,0.281,0.047,0.556,0.084,0.828h-1.084l-0.074-0.794c-0.213,0.274-0.461,0.485-0.744,0.634
			c-0.281,0.147-0.58,0.222-0.891,0.222c-0.537,0-0.976-0.178-1.312-0.534c-0.336-0.358-0.504-0.826-0.504-1.403
			c0-0.727,0.234-1.273,0.703-1.644c0.469-0.369,1.17-0.555,2.102-0.555h0.609v-0.312c0-0.496-0.074-0.839-0.219-1.027
			c-0.146-0.188-0.396-0.282-0.754-0.282c-0.384,0-0.671,0.08-0.863,0.243c-0.195,0.161-0.293,0.399-0.293,0.717L94.275,123.224
			L94.275,123.224z M96.416,124.583c-0.873,0-1.481,0.102-1.826,0.306c-0.346,0.203-0.518,0.547-0.518,1.029
			c0,0.312,0.094,0.572,0.281,0.779c0.19,0.208,0.428,0.311,0.715,0.311c0.428,0,0.758-0.166,0.994-0.501
			c0.235-0.334,0.354-0.811,0.354-1.431V124.583z"/>
		<path fill="#FFFFFF" d="M99.947,127.9h-1.082v-9.074h1.082V127.9z"/>
	</g>
	<g>
		<path fill="#FFFFFF" d="M148.808,115.129h-8.437v-4.149h0.103c0.813-0.018,2.395-0.183,3.776-0.332
			c0.041,0.003,0.082,0.003,0.125,0.006l0.17-0.022c1.054,0.022,2.107,0.092,3.148,0.003c0.34-0.03,0.899-0.539,0.912-0.846
			c0.082-2.104,0.043-4.213,0.043-6.39h-13.424c0,0.021,0,0.046-0.004,0.067c-0.488-0.019-0.853-0.021-1.13-0.012
			c-0.018-0.049-0.032-0.098-0.053-0.146c-0.164,0.07-0.36,0.14-0.567,0.207c-0.005,0-0.005,0-0.005,0
			c-0.122,0.024-0.172,0.052-0.188,0.062c-0.008,0.003-0.01,0.006-0.01,0.006c-0.646,0.21-1.31,0.42-1.318,0.657
			c-0.094,2.192,0.098,4.399,0.203,6.755c2.594,0,5.129,0.03,7.656-0.006c-0.07,0.636-0.181,1.583-0.113,2.058
			c0.305,2.14,0.205,2.25-1.98,2.332c-1.786,0.067-3.567,0.247-5.348,0.377c0,1.029,0.019,2,0.021,2.941v0.003
			c-0.019-0.083-0.035-0.166-0.054-0.249c-1.252,0.228-6.369,0.901-7.396,1.512c-0.529,0.317-0.373,1.791-0.521,2.743
			c-0.022,0.149,0.031,0.334-0.039,0.448c-0.717,1.166,0.045,1.998,0.527,2.894c0.168-0.02,0.338-0.04,0.506-0.061
			c-0.139-1.286-0.235-2.58-0.428-3.858c-0.168-1.099-0.053-1.901,1.293-2.04c0.811-0.083,5.188-0.981,6.111-1.158v0.001
			c0.002,0.733-0.011,1.449-0.048,2.165c-0.055,1.12,0.283,1.507,1.438,1.491c4.096-0.061,8.197-0.009,12.295-0.042
			c0.512-0.003,1.021-0.241,1.527-0.372c0.004-0.002,0.004-0.002,0.008-0.006h0.016c-0.008,0.003-0.016,0.003-0.022,0.006
			c-0.004,0.003-0.006,0.009-0.008,0.012c1.43,0.348,1.67-0.651,1.643-1.634C149.195,118.846,148.978,117.147,148.808,115.129z"/>
		<path fill="#FFFFFF" d="M144.982,129.851c-0.074,0.002-0.148,0.009-0.224,0.016c-0.012-1.27-0.075-1.988-0.145-2.396
			c0.232,0.31,0.385,0.755,0.432,1.388c0.394-1.915-0.369-2.9-1.928-2.815c-1.783,0.097-3.57,0.234-5.356,0.268
			c-1.367,0.028-1.761,0.563-1.183,1.799c-0.182,0.213-0.522,0.423-0.524,0.64c-0.031,1.769-0.076,3.543,0.077,5.3
			c0.037,0.377,0.871,0.953,1.355,0.971c2.219,0.085,4.447-0.009,6.672-0.006c0.725,0,1.182-0.188,1.117-1.017
			C145.173,132.615,145.08,131.232,144.982,129.851z"/>
		<path fill="#FFFFFF" d="M160.001,129.482c0-0.003,0-0.003,0-0.006c-0.225-1.498-0.246-1.381-0.774-3.424
			c0.133,0,0.264-0.003,0.397-0.003c-0.004-0.201-0.006-0.402-0.006-0.606c-1.998,0-4.008-0.119-5.981,0.07
			c-0.64,0.064-1.199,0.944-1.798,1.452v6.256h8.326C160.099,131.812,160.439,130.587,160.001,129.482z"/>
		<path fill="#FFFFFF" d="M127.14,126.636c-1.814,0.311-3.636,0.597-5.449,0.895c-0.865-0.058-1.31,0.237-1.203,1.212
			c0.162,1.5,0.162,3.02,0.369,4.514c0.268,1.954,0.471,2.107,2.533,2.04c1.028-0.033,2.049-0.247,3.073-0.377
			c-0.024-0.006-0.053-0.012-0.075-0.018c0.942-0.055,1.635-0.231,1.711-0.253c0.004,0,0.006,0,0.006,0
			c0.533-0.058,1.067-0.116,1.612-0.173c-0.094-2.091-0.12-4.006-0.284-5.912C129.32,127.251,128.675,126.375,127.14,126.636z"/>
		<path fill="#FFFFFF" d="M156.791,124.34c0.185-0.031,0.365-0.062,0.549-0.094c-0.348-1.646-0.69-3.293-1.036-4.939
			c-0.25-0.283-0.49-0.801-0.75-0.811c-1.955-0.069-3.914-0.038-5.871-0.038c0.004,0.188,0.004,0.375,0.006,0.562
			c0.711,0,1.426-0.051,2.131,0.011c1.422,0.126,2.838,0.313,4.256,0.475C156.277,121.125,155.546,122.906,156.791,124.34z"/>
	</g>
</g>
</svg>
