<?xml version="1.0" encoding="utf-8"?>
<!-- Generator: Adobe Illustrator 16.0.0, SVG Export Plug-In . SVG Version: 6.00 Build 0)  -->
<!DOCTYPE svg PUBLIC "-//W3C//DTD SVG 1.1//EN" "http://www.w3.org/Graphics/SVG/1.1/DTD/svg11.dtd">
<svg version="1.1" id="Capa_1" xmlns="http://www.w3.org/2000/svg" xmlns:xlink="http://www.w3.org/1999/xlink" x="0px" y="0px"
	 width="164.68px" height="520.838px" viewBox="0 0 164.68 520.838" enable-background="new 0 0 164.68 520.838"
	 xml:space="preserve">
<g>
	<g>
		<g>
			<g>
				<path fill="#010202" d="M80.845,68.604c-0.317-0.058-0.527-1.494,0.155-3.791c0.373-1.125,1.04-2.511,2.338-3.66
					c1.265-1.186,3.129-1.885,4.948-2.102c1.835-0.221,3.493-0.094,4.935,0.006c1.441,0.111,2.673,0.195,3.648,0.127
					c1.945-0.08,2.793-1.098,3.14-0.89c0.134,0.082,0.135,0.509-0.279,1.1c-0.394,0.595-1.301,1.283-2.502,1.62
					c-2.404,0.734-5.582,0.299-8.607,0.652c-1.506,0.192-2.781,0.626-3.732,1.359c-0.979,0.703-1.661,1.665-2.18,2.54
					C81.71,67.353,81.233,68.685,80.845,68.604z"/>
			</g>
		</g>
	</g>
	<g>
		<g>
			<g>
				<path fill="#010202" d="M60.88,68.385c-0.379,0.052-0.795-0.998-1.419-2.555c-0.624-1.518-1.557-3.718-3.348-4.31
					c-1.868-0.656-4.485,0.101-6.575-0.646c-1.065-0.365-1.711-1.18-1.883-1.719c-0.199-0.553-0.123-0.887,0.028-0.956
					c0.361-0.188,1.005,0.833,2.297,0.865c0.672,0.044,1.588-0.099,2.755-0.257c1.147-0.13,2.611-0.325,4.25,0.225
					c1.651,0.565,2.815,1.926,3.359,3.106c0.575,1.204,0.825,2.314,0.924,3.235C61.469,67.218,61.221,68.341,60.88,68.385z"/>
			</g>
		</g>
	</g>
</g>
</svg>
