<?xml version="1.0" encoding="utf-8"?>
<!-- Generator: Adobe Illustrator 16.0.0, SVG Export Plug-In . SVG Version: 6.00 Build 0)  -->
<!DOCTYPE svg PUBLIC "-//W3C//DTD SVG 1.1//EN" "http://www.w3.org/Graphics/SVG/1.1/DTD/svg11.dtd">
<svg version="1.1" id="Capa_1" xmlns="http://www.w3.org/2000/svg" xmlns:xlink="http://www.w3.org/1999/xlink" x="0px" y="0px"
	 width="164.68px" height="520.838px" viewBox="0 0 164.68 520.838" enable-background="new 0 0 164.68 520.838"
	 xml:space="preserve">
<path fill="#E73F2C" d="M82.538,86.752c-5.516,9.294-21.299,25.075-21.006,3.967C62.792,90.141,82.538,86.752,82.538,86.752z"/>
<path fill="#FFFFFF" d="M82.828,86.074c-7.452,2.129-18.292,0.193-24.681,0.193c4.838,3.776,6.192,12.583,7.646,12.777
	C70.438,99.044,77.892,92.463,82.828,86.074z"/>
<path fill="#E73F2C" d="M82.345,85.978c-5.131,1.355-20.23-3.195-26.715-0.291C60.179,86.849,76.925,89.268,82.345,85.978z"/>
<g>
	<g>
		<path fill="#D28657" d="M80.409,85.3c0.127-0.415,1.488-0.353,2.85,0.434c0.705,0.34,1.227,0.867,1.566,1.263
			c0.338,0.407,0.465,0.74,0.326,0.917c-0.308,0.371-1.428-0.07-2.675-0.752C81.235,86.439,80.264,85.742,80.409,85.3z"/>
	</g>
</g>
</svg>
