<?xml version="1.0" encoding="utf-8"?>
<!-- Generator: Adobe Illustrator 16.0.0, SVG Export Plug-In . SVG Version: 6.00 Build 0)  -->
<!DOCTYPE svg PUBLIC "-//W3C//DTD SVG 1.1//EN" "http://www.w3.org/Graphics/SVG/1.1/DTD/svg11.dtd">
<svg version="1.1" id="Capa_1" xmlns="http://www.w3.org/2000/svg" xmlns:xlink="http://www.w3.org/1999/xlink" x="0px" y="0px"
	 width="55.737px" height="69.454px" viewBox="0 0 55.737 69.454" enable-background="new 0 0 55.737 69.454" xml:space="preserve">
<g>
	<path fill-rule="evenodd" clip-rule="evenodd" fill="#2C5A67" d="M44.65,58.75c-1.862,0.846-3.675,1.749-5.55,2.496
		c-1.54,0.614-1.845,0.396-2.783-0.957c-2.049-2.952-4.871-4.559-8.49-4.643c-9.547-0.221-17.289-4.077-22.742-11.907
		C-3.874,30.876-0.35,14.596,10.62,6.066c12.81-9.96,30.605-7.405,39.973,5.828c7.013,9.907,6.412,21.755,0.873,30.557
		c-2.274,3.612-2.93,7.206-1.105,11.134c0.458,0.986-0.161,1.584-0.82,2.035C47.94,56.714,46.278,57.717,44.65,58.75z
		 M38.827,47.953c10.936-5.944,14.977-19.626,9.037-30.593C41.962,6.463,28.159,2.368,17.249,8.278
		C6.304,14.208,2.235,28.035,8.21,38.996C14.155,49.907,27.858,53.914,38.827,47.953z"/>
	<path fill-rule="evenodd" clip-rule="evenodd" fill="#2C5A67" d="M48.253,65.451c-1.6,0.867-3.198,1.735-4.797,2.601
		c-0.813,0.439-1.674,0.683-2.201-0.315c-0.489-0.927,0.141-1.523,0.91-1.94c3.229-1.761,6.463-3.516,9.699-5.262
		c0.771-0.417,1.611-0.618,2.123,0.298c0.549,0.986-0.126,1.575-0.938,2.015C51.451,63.717,49.852,64.584,48.253,65.451z"/>
	<path fill-rule="evenodd" clip-rule="evenodd" fill="#2C5A67" d="M45.384,60.047c1.633-0.886,3.266-1.768,4.896-2.659
		c0.738-0.403,1.506-0.616,1.992,0.273c0.498,0.915-0.045,1.513-0.844,1.945c-3.266,1.768-6.531,3.538-9.793,5.313
		c-0.795,0.431-1.601,0.581-2.096-0.337c-0.521-0.967,0.182-1.469,0.945-1.882C42.121,61.821,43.751,60.931,45.384,60.047z"/>
	<path fill-rule="evenodd" clip-rule="evenodd" fill="#2C5A67" d="M49.925,68.626c-0.533,0.29-1.045,0.754-1.604,0.817
		c-0.541,0.06-1.404-0.135-1.619-0.508c-0.207-0.363,0.047-1.342,0.418-1.618c0.998-0.737,2.127-1.35,3.289-1.788
		c0.439-0.166,1.393,0.128,1.598,0.498c0.205,0.374-0.074,1.23-0.42,1.635c-0.393,0.458-1.096,0.652-1.664,0.959
		C49.923,68.622,49.925,68.624,49.925,68.626z"/>
	<path fill-rule="evenodd" clip-rule="evenodd" fill="#2C5A67" d="M27.719,9.958c-9.99,0.01-18.081,8.117-18.072,18.108
		c0.009,9.992,8.116,18.084,18.105,18.075c9.992-0.009,18.084-8.117,18.075-18.109C45.817,18.041,37.71,9.948,27.719,9.958z
		 M31.791,39.054L24.42,39.06l-0.011-11.803c-0.002-1.704-0.057-2.729-0.167-3.071c-0.108-0.345-0.41-0.608-0.903-0.781
		c-0.494-0.177-1.592-0.265-3.293-0.263l-0.73,0l-0.003-2.567c3.563-0.574,6.27-1.752,8.116-3.532l4.342-0.003L31.791,39.054z"/>
</g>
</svg>
