<?xml version="1.0" encoding="utf-8"?>
<!-- Generator: Adobe Illustrator 16.0.0, SVG Export Plug-In . SVG Version: 6.00 Build 0)  -->
<!DOCTYPE svg PUBLIC "-//W3C//DTD SVG 1.1//EN" "http://www.w3.org/Graphics/SVG/1.1/DTD/svg11.dtd">
<svg version="1.1" id="Capa_1" xmlns="http://www.w3.org/2000/svg" xmlns:xlink="http://www.w3.org/1999/xlink" x="0px" y="0px"
	 width="690.014px" height="111.432px" viewBox="0 0 690.014 111.432" enable-background="new 0 0 690.014 111.432"
	 xml:space="preserve">
<g>
	<polygon opacity="0.7" fill="#FFFFFF" points="690.014,7.65 0,0 0,111.432 646.011,111.38 	"/>
	<g>
		<path fill="#FFFFFF" d="M60.606,27.308c-1.516-1.158-3.98-1.675-7.99-1.675h-6.404v33.808h6.404c3.917,0,6.444-0.534,7.956-1.68
			c1.706-1.294,2.535-3.683,2.535-7.305V34.617C63.107,30.936,62.313,28.615,60.606,27.308z M54.54,52.213V32.916
			c0.017,0.155,0.03,0.36,0.03,0.626v18.047C54.57,51.856,54.557,52.061,54.54,52.213z"/>
		<path fill="#FFFFFF" d="M122.827,59.441h6.334V46.4c2.31-0.106,3.941-0.471,5.069-1.124c0.13-0.076,0.272-0.168,0.42-0.274
			l-2.889,14.438h8.651l1.44-8.008h2.133l1.337,8.008h8.737l-0.343-1.771c0.027,0.031,0.051,0.067,0.079,0.098
			c1.311,1.434,3.395,2.161,6.195,2.161c2.75,0,4.719-0.535,6.02-1.639c0.634-0.538,1.115-1.23,1.462-2.066v3.217h8.538V25.633
			h-8.538v3.246c-0.345-0.828-0.821-1.513-1.449-2.046c-1.291-1.095-3.265-1.63-6.033-1.63c-2.832,0-4.854,0.697-6.184,2.13
			c-1.277,1.378-1.897,3.564-1.897,6.679v14.325l-4.397-22.704h-8.986l-1.634,8.168v-1.899c0-3.081-1.66-4.515-2.65-5.096
			c-1.365-0.801-3.465-1.173-6.609-1.173h-6.798v23.516l-4.555-23.516h-8.986l-4.212,21.055h-6.592v-8.731h7.729v-5.254
			c0-2.749-0.687-4.668-2.101-5.87c-1.291-1.095-3.264-1.63-6.033-1.63c-2.832,0-4.854,0.697-6.184,2.13
			c-0.747,0.806-1.263,1.898-1.568,3.281c-0.278-1.662-0.914-2.912-1.935-3.78c-1.29-1.096-3.264-1.631-6.033-1.631
			c-2.733,0-4.786,0.708-6.102,2.102c-0.907,0.96-1.48,2.28-1.748,3.982v-5.653h-8.538v33.808h8.538v-3.726
			c0.351,1.066,0.898,1.92,1.66,2.566c1.308,1.109,3.281,1.648,6.032,1.648c2.896,0,4.961-0.675,6.313-2.067
			c0.861-0.886,1.43-2.138,1.729-3.774c0.288,1.575,0.829,2.793,1.639,3.681c1.311,1.434,3.395,2.161,6.195,2.161
			c1.838,0,3.319-0.245,4.493-0.732l-0.048,0.244h8.651l1.44-8.008h2.133l1.337,8.008h6.743H122.827z M167.472,37.957v8.731h-7.078
			v-8.731H167.472z M72.515,46.688v-9.902c0.123,0.5,0.308,1.019,0.559,1.567c0.42,0.917,1.022,1.876,1.755,2.806l4.158,5.529
			H72.515z M85.892,42.226l-3.244-4.269h5.355v8.115c-0.057-0.172-0.108-0.346-0.174-0.517
			C87.413,44.489,86.761,43.368,85.892,42.226z"/>
		<path fill="#FFFFFF" d="M228.831,50.457V34.617c0-3.681-0.794-6.002-2.501-7.309c-1.516-1.158-3.98-1.675-7.99-1.675h-6.404
			v23.516l-4.555-23.516h-8.986L193.8,48.6V34.617c0-3.681-0.794-6.002-2.501-7.309c-1.516-1.158-3.98-1.675-7.99-1.675h-6.404
			v33.808h6.404c3.917,0,6.444-0.534,7.956-1.68c0.329-0.25,0.615-0.553,0.879-0.885l-0.513,2.564h8.651l1.44-8.008h2.133
			l1.337,8.008h6.743h1.994h4.411c3.917,0,6.444-0.534,7.956-1.68C228.002,56.467,228.831,54.078,228.831,50.457z M185.232,52.213
			V32.916c0.017,0.155,0.03,0.36,0.03,0.626v18.047C185.263,51.856,185.25,52.061,185.232,52.213z M220.264,52.213V32.916
			c0.017,0.155,0.03,0.36,0.03,0.626v18.047C220.294,51.856,220.281,52.061,220.264,52.213z"/>
		<path fill="#FFFFFF" d="M260.006,56.636l0.575,2.805h9.151V25.633h-8.059l0.049,2.667l-0.544-2.667h-9.052h-0.049h-14.174v33.808
			h14.174h0.207h7.772L260.006,56.636z M246.229,52.156v-6.601h5.633v-7.267h-5.633v-5.371h5.846v19.238H246.229z"/>
		<path fill="#FFFFFF" d="M286.83,59.929c2.75,0,4.719-0.535,6.02-1.639c0.893-0.757,1.497-1.801,1.824-3.156
			c0.342,1.114,0.854,2.012,1.543,2.707c1.393,1.405,3.516,2.088,6.491,2.088c3.003,0,5.14-0.672,6.531-2.055
			c1.396-1.387,2.074-3.615,2.074-6.812V34.011c0-3.15-0.671-5.357-2.053-6.746c-1.384-1.387-3.51-2.063-6.5-2.063
			c-2.984,0-5.116,0.676-6.517,2.063c-0.7,0.695-1.221,1.593-1.568,2.708c-0.325-1.348-0.925-2.387-1.812-3.142
			c-1.291-1.095-3.265-1.63-6.033-1.63c-2.832,0-4.854,0.697-6.184,2.13c-1.277,1.378-1.897,3.564-1.897,6.679v17.051
			c0,3.123,0.617,5.316,1.886,6.706C281.946,59.202,284.03,59.929,286.83,59.929z M302.828,51.452c0,0.632-0.039,1.048-0.079,1.309
			c-0.009,0-0.019,0-0.027,0c-0.041-0.257-0.081-0.672-0.081-1.309V33.62c0-0.633,0.04-1.049,0.08-1.308c0.007,0,0.014,0,0.02,0
			c0.043,0.251,0.087,0.665,0.087,1.308V51.452z M294.155,37.957v8.731h-6.921v-8.731H294.155z"/>
		<path fill="#FFFFFF" d="M326.51,57.695c0.044,0.047,0.082,0.102,0.127,0.146c1.393,1.405,3.516,2.088,6.491,2.088
			c3.003,0,5.14-0.672,6.531-2.055c1.396-1.387,2.075-3.615,2.075-6.812V34.011c0-3.15-0.671-5.357-2.054-6.746
			c-1.384-1.387-3.51-2.063-6.499-2.063c-2.984,0-5.116,0.676-6.517,2.063c-1.405,1.394-2.089,3.602-2.089,6.746v17.051
			c0,0.379,0.011,0.742,0.031,1.094h-4.096V25.633h-8.328v33.808h14.328V57.695z M333.248,51.452c0,0.632-0.039,1.048-0.079,1.309
			c-0.009,0-0.019,0-0.027,0c-0.041-0.257-0.081-0.672-0.081-1.309V33.62c0-0.633,0.04-1.049,0.081-1.308c0.007,0,0.013,0,0.02,0
			c0.043,0.251,0.087,0.665,0.087,1.308V51.452z"/>
		<polygon fill="#FFFFFF" points="366.703,25.633 356.391,25.633 354.746,37.533 353.064,25.633 342.602,25.633 342.602,59.441 
			366.703,59.441 		"/>
		<path fill="#FFFFFF" d="M384.755,53.171v-7.871c0-1.683-0.466-2.84-1.039-3.628c0.517-0.875,0.777-1.961,0.777-3.247v-6.523
			c0-2.939-1.423-4.396-2.617-5.101c-1.349-0.797-3.443-1.168-6.591-1.168h-7.583v33.808h7.846c3.147,0,5.241-0.371,6.59-1.168
			C383.332,57.568,384.755,56.111,384.755,53.171z M376.218,46.179v5.41c0,0.275-0.014,0.484-0.032,0.637
			c-0.047,0.008-0.099,0.015-0.156,0.021v-6.745c0.056,0.007,0.107,0.015,0.154,0.022C376.203,45.68,376.218,45.895,376.218,46.179z
			"/>
		<polygon fill="#FFFFFF" points="405.527,59.441 414.264,59.441 407.716,25.633 398.73,25.633 394.109,48.728 394.109,25.633 
			385.571,25.633 385.571,59.441 391.966,59.441 394.109,59.441 400.617,59.441 402.057,51.433 404.19,51.433 		"/>
		<polygon fill="#FFFFFF" points="422.726,59.441 431.105,59.441 431.105,45.084 437.321,25.633 428.494,25.633 427.061,31.616 
			425.472,25.633 416.604,25.633 422.726,45.079 		"/>
		<path fill="#FFFFFF" d="M457.124,59.441h7.773l-0.05-2.805l0.575,2.805h9.15V25.633h-8.06l0.05,2.667l-0.545-2.667h-9.052h-0.049
			h-14.175v33.808h14.175H457.124z M451.071,52.156v-6.601h5.633v-7.267h-5.633v-5.371h5.847v19.238H451.071z"/>
		<path fill="#FFFFFF" d="M498.129,59.441h14.122v-7.285h-6V25.633h-8.279h-0.049h-14.175v33.808h14.175H498.129z M492.075,52.156
			v-6.601h5.634v-7.267h-5.634v-5.371h5.848v19.238H492.075z"/>
		<polygon fill="#FFFFFF" points="542.776,25.633 532.464,25.633 530.819,37.533 529.138,25.633 518.675,25.633 518.675,59.441 
			542.776,59.441 		"/>
		<path fill="#FFFFFF" d="M552.291,51.452c0,0.632-0.039,1.048-0.079,1.309c-0.01,0-0.019,0-0.027,0
			c-0.041-0.257-0.081-0.672-0.081-1.309V25.633h-8.486v25.429c0,3.162,0.674,5.38,2.062,6.779c1.393,1.405,3.516,2.088,6.491,2.088
			c3.004,0,5.14-0.672,6.531-2.055c1.396-1.387,2.074-3.615,2.074-6.812V25.633h-8.485V51.452z"/>
		<polygon fill="#FFFFFF" points="571.29,28.299 570.745,25.633 561.645,25.633 561.645,59.441 569.624,59.441 569.574,56.636 
			570.149,59.441 579.3,59.441 579.3,25.633 571.241,25.633 		"/>
		<path fill="#FFFFFF" d="M594.668,27.308c-1.516-1.158-3.98-1.675-7.99-1.675h-6.404v33.808h6.404c3.917,0,6.444-0.534,7.956-1.68
			c1.706-1.294,2.535-3.683,2.535-7.305V34.617C597.169,30.936,596.374,28.615,594.668,27.308z M588.602,52.213V32.916
			c0.016,0.155,0.03,0.36,0.03,0.626v18.047C588.632,51.856,588.618,52.061,588.602,52.213z"/>
		<path fill="#FFFFFF" d="M606.486,25.202c-2.984,0-5.116,0.676-6.517,2.063c-1.405,1.394-2.089,3.602-2.089,6.746v17.051
			c0,3.162,0.674,5.38,2.062,6.779c1.393,1.405,3.516,2.088,6.491,2.088c3.003,0,5.14-0.672,6.531-2.055
			c1.396-1.387,2.074-3.615,2.074-6.812V34.011c0-3.15-0.671-5.357-2.054-6.746C611.602,25.878,609.476,25.202,606.486,25.202z
			 M606.366,33.62c0-0.633,0.04-1.049,0.08-1.308c0.008,0,0.014,0,0.02,0c0.044,0.251,0.088,0.665,0.088,1.308v17.832
			c0,0.632-0.039,1.048-0.079,1.309c-0.009,0-0.019,0-0.027,0c-0.041-0.257-0.081-0.672-0.081-1.309V33.62z"/>
		<rect x="616.745" y="34.363" fill="#FFFFFF" width="8.747" height="8.125"/>
		<rect x="616.745" y="51.277" fill="#FFFFFF" width="8.747" height="8.164"/>
		<path fill="#FFFFFF" d="M177.253,73.425v-6.523c0-2.939-1.423-4.396-2.617-5.101c-1.349-0.797-3.443-1.168-6.591-1.168h-7.583
			v23.516l-4.555-23.516h-8.986l-4.725,23.617V60.633h-10.312l-1.646,11.9l-1.681-11.9h-10.463v33.808h22.062h2.039h6.612
			l1.44-8.008h2.133l1.337,8.008h6.743h1.994h6.334V80.503c0.056,0.007,0.107,0.015,0.154,0.022c0.019,0.155,0.034,0.37,0.034,0.654
			v13.262h8.537v-14.14c0-1.683-0.466-2.84-1.039-3.628C176.992,75.797,177.253,74.711,177.253,73.425z"/>
		<path fill="#FFFFFF" d="M202.186,60.202c-2.985,0-5.116,0.676-6.517,2.063c-0.701,0.695-1.222,1.593-1.568,2.708
			c-0.325-1.348-0.925-2.387-1.812-3.142c-1.291-1.095-3.265-1.63-6.033-1.63c-2.832,0-4.854,0.697-6.184,2.13
			c-1.277,1.378-1.897,3.564-1.897,6.679v17.051c0,3.123,0.617,5.316,1.886,6.706c1.311,1.434,3.395,2.161,6.195,2.161
			c2.75,0,4.719-0.535,6.02-1.639c0.893-0.757,1.497-1.801,1.824-3.156c0.342,1.114,0.854,2.012,1.543,2.707
			c1.392,1.405,3.516,2.088,6.491,2.088c3.003,0,5.14-0.672,6.531-2.055c1.396-1.387,2.074-3.615,2.074-6.812V69.011
			c0-3.15-0.671-5.357-2.053-6.746C207.301,60.878,205.175,60.202,202.186,60.202z M186.659,81.688v-8.731h6.921v8.731H186.659z
			 M202.065,68.62c0-0.633,0.04-1.049,0.081-1.308c0.007,0,0.013,0,0.02,0c0.043,0.251,0.087,0.665,0.087,1.308v17.832
			c0,0.632-0.039,1.048-0.079,1.309c-0.009,0-0.019,0-0.027,0c-0.041-0.257-0.081-0.672-0.081-1.309V68.62z"/>
		<path fill="#FFFFFF" d="M243.662,60.202c-2.984,0-5.116,0.676-6.517,2.063c-0.701,0.695-1.222,1.593-1.569,2.708
			c-0.324-1.348-0.924-2.387-1.812-3.142c-1.291-1.095-3.265-1.63-6.033-1.63c-2.832,0-4.854,0.697-6.184,2.13
			c-1.277,1.378-1.897,3.564-1.897,6.679v17.051c0,3.123,0.617,5.316,1.886,6.706c1.311,1.434,3.395,2.161,6.195,2.161
			c2.75,0,4.718-0.535,6.02-1.639c0.893-0.757,1.497-1.801,1.823-3.156c0.342,1.114,0.854,2.012,1.543,2.707
			c1.393,1.405,3.516,2.088,6.492,2.088c3.003,0,5.14-0.672,6.531-2.055c1.396-1.387,2.074-3.615,2.074-6.812V69.011
			c0-3.15-0.671-5.357-2.053-6.746C248.777,60.878,246.651,60.202,243.662,60.202z M228.136,81.688v-8.731h6.921v8.731H228.136z
			 M243.542,68.62c0-0.633,0.04-1.049,0.081-1.308c0.007,0,0.013,0,0.02,0c0.043,0.251,0.087,0.665,0.087,1.308v17.832
			c0,0.632-0.039,1.048-0.079,1.309c-0.009,0-0.019,0-0.027,0c-0.041-0.257-0.081-0.672-0.081-1.309V68.62z"/>
		<path fill="#FFFFFF" d="M369.359,60.633h-8.328v23.516l-4.555-23.516h-8.986l-4.594,22.962V60.633h-8.485v25.819
			c0,0.632-0.039,1.048-0.079,1.309c-0.009,0-0.019,0-0.027,0c-0.041-0.257-0.081-0.672-0.081-1.309V60.633h-6.812h-1.673h-11.15
			h-3.521h-5.141l-1.175,4.479l-1.267-4.479h-5.26h-3.61h-9.098H284h-13.262h-1.567h-6.492l0.049,2.667l-0.544-2.667h-9.101v33.808
			h7.979l-0.049-2.805l0.575,2.805h9.151V67.918h2.415v26.523h8.38V67.918H284v26.523h10.598h3.783h4.87l1.522-5.418l1.569,5.418
			h8.707h0.156h8.224V67.918h2.31v18.144c0,3.162,0.674,5.38,2.062,6.779c1.393,1.405,3.516,2.088,6.491,2.088
			c3.003,0,5.14-0.672,6.531-2.055c0.101-0.1,0.189-0.214,0.282-0.323l-0.378,1.89h8.651l1.44-8.008h2.133l1.337,8.008h6.743h1.994
			h12.334v-7.285h-6V60.633z M292.328,87.156v-6.601h5.633v-7.267h-5.633v-5.371h4.711l3.101,9.31l-3.197,9.928H292.328z
			 M309.408,77.113l2.89-9.195h2.75v26.056L309.408,77.113z"/>
		<polygon fill="#FFFFFF" points="388.372,66.616 386.783,60.633 377.915,60.633 384.037,80.079 384.037,94.441 392.417,94.441 
			392.417,80.084 398.633,60.633 389.806,60.633 		"/>
		<polygon fill="#FFFFFF" points="413.7,63.299 413.156,60.633 404.055,60.633 404.055,94.441 412.034,94.441 411.984,91.636 
			412.559,94.441 421.71,94.441 421.71,60.633 413.651,60.633 		"/>
		<path fill="#FFFFFF" d="M431.132,60.202c-2.984,0-5.116,0.676-6.517,2.063c-1.405,1.394-2.089,3.602-2.089,6.746v17.051
			c0,3.162,0.673,5.38,2.062,6.779c1.393,1.405,3.516,2.088,6.491,2.088c3.004,0,5.14-0.672,6.531-2.055
			c1.396-1.387,2.074-3.615,2.074-6.812V69.011c0-3.15-0.671-5.357-2.053-6.746C436.247,60.878,434.121,60.202,431.132,60.202z
			 M431.012,68.62c0-0.633,0.04-1.049,0.081-1.308c0.006,0,0.013,0,0.02,0c0.043,0.251,0.087,0.665,0.087,1.308v17.832
			c0,0.632-0.041,1.048-0.079,1.309c-0.01,0-0.019,0-0.027,0c-0.041-0.257-0.081-0.672-0.081-1.309V68.62z"/>
		<path fill="#FFFFFF" d="M457.344,73.425v-6.523c0-2.939-1.423-4.396-2.617-5.101c-1.349-0.797-3.443-1.168-6.591-1.168h-7.583
			v33.808h8.328V80.503c0.056,0.007,0.107,0.015,0.153,0.022c0.02,0.155,0.035,0.37,0.035,0.654v13.262h8.537v-14.14
			c0-1.683-0.466-2.84-1.039-3.628C457.083,75.797,457.344,74.711,457.344,73.425z"/>
		<path fill="#FFFFFF" d="M545.027,60.202c-2.984,0-5.116,0.676-6.517,2.063c-0.277,0.274-0.518,0.591-0.738,0.929l0.373-2.562
			h-8.257l-1.437,11.026l-1.526-11.026h-6.752h-1.728h-5.295h-1.516h-14.829v2.954l-0.572-2.954h-8.985l-4.726,23.617V60.633
			h-10.312l-1.646,11.9l-1.681-11.9h-10.463v33.808h22.062h2.039h6.612l1.439-8.008h2.134l1.337,8.008h6.743h1.993h6.387V67.918
			h2.467v26.523h8.538V71.675l3.561,22.766h9.491l3.196-21.968v13.589c0,3.162,0.674,5.38,2.062,6.779
			c1.393,1.405,3.516,2.088,6.491,2.088c3.003,0,5.14-0.672,6.531-2.055c1.396-1.387,2.074-3.615,2.074-6.812V69.011
			c0-3.15-0.671-5.357-2.054-6.746C550.143,60.878,548.017,60.202,545.027,60.202z M497.646,67.918h3.144v16.23L497.646,67.918z
			 M544.907,68.62c0-0.633,0.04-1.049,0.08-1.308c0.008,0,0.014,0,0.02,0c0.044,0.251,0.088,0.665,0.088,1.308v17.832
			c0,0.632-0.039,1.048-0.079,1.309c-0.009,0-0.019,0-0.027,0c-0.041-0.257-0.081-0.672-0.081-1.309V68.62z"/>
	</g>
	<g>
		<path fill="#3EA4DD" d="M48.712,28.132h3.904c3.302,0,5.459,0.388,6.472,1.162c1.013,0.775,1.52,2.549,1.52,5.322v15.84
			c0,2.761-0.516,4.531-1.546,5.312s-3.179,1.172-6.445,1.172h-3.904V28.132z M52.04,30.261v24.551h1.074
			c1.606,0,2.668-0.198,3.184-0.596c0.515-0.397,0.772-1.272,0.772-2.627V33.542c0-1.367-0.262-2.256-0.786-2.666
			c-0.523-0.41-1.581-0.615-3.17-0.615H52.04z"/>
		<path fill="#3EA4DD" d="M66.477,28.132h3.538v28.809h-3.538V28.132z"/>
		<path fill="#3EA4DD" d="M85.997,32.703v2.754h-3.484v-2.676c0-1.133-0.157-1.911-0.472-2.334
			c-0.314-0.423-0.874-0.635-1.677-0.635c-0.77,0-1.311,0.238-1.625,0.713c-0.314,0.476-0.472,1.318-0.472,2.529v1.406
			c0,0.586,0.109,1.188,0.328,1.807c0.218,0.619,0.537,1.201,0.956,1.748l4.35,5.723c0.733,0.964,1.266,1.872,1.598,2.725
			c0.332,0.853,0.498,1.735,0.498,2.646v1.953c0,2.5-0.424,4.187-1.271,5.059c-0.848,0.872-2.354,1.309-4.52,1.309
			c-2.114,0-3.586-0.352-4.415-1.055c-0.83-0.703-1.245-2.031-1.245-3.984v-3.203h3.512v3.105c0,1.172,0.156,1.966,0.471,2.383
			c0.314,0.417,0.892,0.625,1.729,0.625c0.855,0,1.445-0.237,1.769-0.713c0.323-0.475,0.485-1.52,0.485-3.135V49.46
			c0-0.742-0.092-1.416-0.275-2.021s-0.45-1.155-0.799-1.65l-4.611-6.133c-0.646-0.82-1.141-1.602-1.48-2.344
			c-0.341-0.742-0.512-1.387-0.512-1.934v-1.68c0-2.239,0.415-3.799,1.245-4.678c0.829-0.879,2.257-1.318,4.284-1.318
			c2.131,0,3.603,0.345,4.414,1.035C85.591,29.428,85.997,30.75,85.997,32.703z"/>
		<path fill="#3EA4DD" d="M101.718,32.703v2.754h-3.512v-2.676c0-1.12-0.161-1.895-0.484-2.324s-0.896-0.645-1.716-0.645
			c-0.751,0-1.275,0.244-1.572,0.732s-0.445,1.514-0.445,3.076v17.832c0,1.602,0.157,2.644,0.472,3.125
			c0.314,0.482,0.891,0.723,1.729,0.723c0.716,0,1.231-0.228,1.546-0.684c0.314-0.456,0.471-1.23,0.471-2.324v-3.105h3.512v3.203
			c0,1.966-0.411,3.298-1.231,3.994c-0.821,0.696-2.289,1.045-4.402,1.045c-2.079,0-3.528-0.449-4.35-1.348
			c-0.82-0.898-1.231-2.571-1.231-5.02V34.011c0-2.435,0.411-4.095,1.231-4.98c0.821-0.885,2.271-1.328,4.35-1.328
			c2.131,0,3.603,0.345,4.415,1.035C101.312,29.428,101.718,30.75,101.718,32.703z"/>
		<path fill="#3EA4DD" d="M109.342,28.132h4.874l5.58,28.809h-3.589l-1.337-8.008h-6.341l-1.44,8.008h-3.511L109.342,28.132z
			 M111.647,30.261l-2.804,16.562h5.581l-2.62-16.562H111.647z"/>
		<path fill="#3EA4DD" d="M123.333,28.132h4.298c2.62,0,4.401,0.277,5.345,0.83c0.943,0.554,1.415,1.533,1.415,2.939v8.281
			c0,1.406-0.472,2.383-1.415,2.93s-2.725,0.82-5.345,0.82h-0.97v13.008h-3.328V28.132z M126.661,30.261v11.562h0.891
			c1.327,0,2.214-0.198,2.659-0.596c0.445-0.397,0.668-1.292,0.668-2.686v-5c0-1.393-0.223-2.288-0.668-2.686
			c-0.445-0.397-1.332-0.596-2.659-0.596H126.661z"/>
		<path fill="#3EA4DD" d="M140.574,28.132h4.874l5.58,28.809h-3.589l-1.337-8.008h-6.341l-1.44,8.008h-3.511L140.574,28.132z
			 M142.88,30.261l-2.804,16.562h5.581l-2.62-16.562H142.88z"/>
		<path fill="#3EA4DD" d="M165.623,32.703v2.754h-3.512v-2.676c0-1.12-0.161-1.895-0.484-2.324s-0.896-0.645-1.716-0.645
			c-0.751,0-1.275,0.244-1.572,0.732s-0.445,1.514-0.445,3.076v17.832c0,1.602,0.157,2.644,0.472,3.125
			c0.314,0.482,0.891,0.723,1.729,0.723c0.716,0,1.231-0.228,1.546-0.684c0.314-0.456,0.471-1.23,0.471-2.324v-3.105h3.512v3.203
			c0,1.966-0.411,3.298-1.231,3.994c-0.821,0.696-2.289,1.045-4.402,1.045c-2.079,0-3.528-0.449-4.35-1.348
			c-0.82-0.898-1.231-2.571-1.231-5.02V34.011c0-2.435,0.411-4.095,1.231-4.98c0.821-0.885,2.271-1.328,4.35-1.328
			c2.131,0,3.603,0.345,4.415,1.035C165.217,29.428,165.623,30.75,165.623,32.703z"/>
		<path fill="#3EA4DD" d="M169.972,28.132h3.538v28.809h-3.538V28.132z"/>
		<path fill="#3EA4DD" d="M179.404,28.132h3.904c3.302,0,5.459,0.388,6.472,1.162c1.013,0.775,1.52,2.549,1.52,5.322v15.84
			c0,2.761-0.516,4.531-1.546,5.312s-3.179,1.172-6.445,1.172h-3.904V28.132z M182.732,30.261v24.551h1.074
			c1.606,0,2.668-0.198,3.184-0.596c0.515-0.397,0.772-1.272,0.772-2.627V33.542c0-1.367-0.262-2.256-0.786-2.666
			c-0.523-0.41-1.581-0.615-3.17-0.615H182.732z"/>
		<path fill="#3EA4DD" d="M200.444,28.132h4.874l5.58,28.809h-3.589l-1.337-8.008h-6.341l-1.44,8.008h-3.511L200.444,28.132z
			 M202.75,30.261l-2.804,16.562h5.581l-2.62-16.562H202.75z"/>
		<path fill="#3EA4DD" d="M214.436,28.132h3.904c3.302,0,5.459,0.388,6.472,1.162c1.013,0.775,1.52,2.549,1.52,5.322v15.84
			c0,2.761-0.516,4.531-1.546,5.312s-3.179,1.172-6.445,1.172h-3.904V28.132z M217.764,30.261v24.551h1.074
			c1.606,0,2.668-0.198,3.184-0.596c0.515-0.397,0.772-1.272,0.772-2.627V33.542c0-1.367-0.262-2.256-0.786-2.666
			c-0.523-0.41-1.581-0.615-3.17-0.615H217.764z"/>
		<path fill="#3EA4DD" d="M240.401,28.132h9.224v2.285h-5.896v10.371h5.633v2.266h-5.633v11.602h6.053v2.285h-9.381V28.132z"/>
		<path fill="#3EA4DD" d="M254.576,28.132h4.56l5.528,27.09h0.053l-0.498-27.09h3.013v28.809h-4.611l-5.476-26.719h-0.105
			l0.472,26.719h-2.935V28.132z"/>
		<path fill="#3EA4DD" d="M292.464,32.703v2.754h-3.512v-2.676c0-1.12-0.161-1.895-0.484-2.324s-0.896-0.645-1.716-0.645
			c-0.751,0-1.275,0.244-1.572,0.732s-0.445,1.514-0.445,3.076v17.832c0,1.602,0.157,2.644,0.472,3.125
			c0.314,0.482,0.891,0.723,1.729,0.723c0.716,0,1.231-0.228,1.546-0.684c0.314-0.456,0.471-1.23,0.471-2.324v-3.105h3.512v3.203
			c0,1.966-0.411,3.298-1.231,3.994c-0.821,0.696-2.289,1.045-4.402,1.045c-2.079,0-3.528-0.449-4.35-1.348
			c-0.82-0.898-1.231-2.571-1.231-5.02V34.011c0-2.435,0.411-4.095,1.231-4.98c0.821-0.885,2.271-1.328,4.35-1.328
			c2.131,0,3.603,0.345,4.415,1.035C292.058,29.428,292.464,30.75,292.464,32.703z"/>
		<path fill="#3EA4DD" d="M308.813,34.011v17.051c0,2.474-0.446,4.154-1.337,5.039s-2.48,1.328-4.769,1.328
			c-2.253,0-3.825-0.449-4.716-1.348s-1.337-2.571-1.337-5.02V34.011c0-2.422,0.45-4.079,1.35-4.971
			c0.899-0.892,2.484-1.338,4.756-1.338c2.271,0,3.847,0.443,4.729,1.328C308.372,29.917,308.813,31.577,308.813,34.011z
			 M305.328,33.621c0-1.458-0.192-2.458-0.576-2.998c-0.385-0.54-1.065-0.811-2.044-0.811c-0.961,0-1.629,0.264-2.004,0.791
			c-0.376,0.527-0.563,1.533-0.563,3.018v17.832c0,1.498,0.191,2.507,0.576,3.027c0.384,0.521,1.065,0.781,2.044,0.781
			c0.96,0,1.629-0.26,2.004-0.781c0.376-0.521,0.563-1.53,0.563-3.027V33.621z"/>
		<path fill="#3EA4DD" d="M314.682,28.132h3.328v26.523h6v2.285h-9.328V28.132z"/>
		<path fill="#3EA4DD" d="M339.233,34.011v17.051c0,2.474-0.446,4.154-1.337,5.039s-2.48,1.328-4.769,1.328
			c-2.253,0-3.825-0.449-4.716-1.348s-1.337-2.571-1.337-5.02V34.011c0-2.422,0.45-4.079,1.35-4.971
			c0.899-0.892,2.484-1.338,4.756-1.338c2.271,0,3.847,0.443,4.729,1.328C338.792,29.917,339.233,31.577,339.233,34.011z
			 M335.748,33.621c0-1.458-0.192-2.458-0.576-2.998c-0.385-0.54-1.065-0.811-2.044-0.811c-0.961,0-1.629,0.264-2.004,0.791
			c-0.376,0.527-0.563,1.533-0.563,3.018v17.832c0,1.498,0.191,2.507,0.576,3.027c0.384,0.521,1.065,0.781,2.044,0.781
			c0.96,0,1.629-0.26,2.004-0.781c0.376-0.521,0.563-1.53,0.563-3.027V33.621z"/>
		<path fill="#3EA4DD" d="M345.102,28.132h5.791l3.747,26.523h0.262l3.668-26.523h5.634v28.809h-2.909V30.3h-0.523l-3.773,26.641
			h-4.663L348.43,30.3h-0.445v26.641h-2.883V28.132z"/>
		<path fill="#3EA4DD" d="M370.202,28.132h5.083c2.62,0,4.394,0.273,5.319,0.82s1.389,1.53,1.389,2.949v6.523
			c0,1.198-0.306,2.044-0.917,2.539c-0.611,0.495-1.694,0.794-3.249,0.898c1.659,0.078,2.812,0.365,3.459,0.859
			c0.646,0.495,0.969,1.354,0.969,2.578v7.871c0,1.419-0.463,2.402-1.389,2.949s-2.698,0.82-5.318,0.82h-5.346V28.132z
			 M373.53,30.261v10.527h1.179c1.52,0,2.532-0.198,3.039-0.596c0.507-0.397,0.761-1.279,0.761-2.646v-4.004
			c0-1.38-0.254-2.272-0.761-2.676c-0.507-0.403-1.52-0.605-3.039-0.605H373.53z M373.53,42.937v11.875h1.231
			c1.606,0,2.668-0.198,3.184-0.596c0.515-0.397,0.772-1.272,0.772-2.627v-5.41c0-1.354-0.258-2.233-0.772-2.637
			c-0.516-0.403-1.577-0.605-3.184-0.605H373.53z"/>
		<path fill="#3EA4DD" d="M388.071,28.132h3.538v28.809h-3.538V28.132z"/>
		<path fill="#3EA4DD" d="M400.779,28.132h4.874l5.58,28.809h-3.589l-1.337-8.008h-6.341l-1.44,8.008h-3.511L400.779,28.132z
			 M403.085,30.261l-2.804,16.562h5.581l-2.62-16.562H403.085z"/>
		<path fill="#3EA4DD" d="M420.012,28.132h3.537l3.484,13.125h0.288l3.145-13.125h3.433l-5.293,16.562v12.246h-3.38V44.695
			L420.012,28.132z"/>
		<path fill="#3EA4DD" d="M445.243,28.132h9.224v2.285h-5.896v10.371h5.633v2.266h-5.633v11.602h6.053v2.285h-9.381V28.132z"/>
		<path fill="#3EA4DD" d="M459.418,28.132h4.56l5.528,27.09h0.053l-0.498-27.09h3.013v28.809h-4.611l-5.476-26.719h-0.105
			l0.472,26.719h-2.935V28.132z"/>
		<path fill="#3EA4DD" d="M486.248,28.132h9.224v2.285h-5.896v10.371h5.633v2.266h-5.633v11.602h6.053v2.285h-9.381V28.132z"/>
		<path fill="#3EA4DD" d="M500.423,28.132h3.328v26.523h6v2.285h-9.328V28.132z"/>
		<path fill="#3EA4DD" d="M521.175,28.132h5.791l3.747,26.523h0.262l3.668-26.523h5.634v28.809h-2.909V30.3h-0.523l-3.773,26.641
			h-4.663L524.503,30.3h-0.445v26.641h-2.883V28.132z"/>
		<path fill="#3EA4DD" d="M546.118,28.132h3.485v23.32c0,1.498,0.191,2.507,0.576,3.027c0.384,0.521,1.065,0.781,2.044,0.781
			c0.96,0,1.629-0.26,2.004-0.781c0.376-0.521,0.563-1.53,0.563-3.027v-23.32h3.485v22.93c0,2.474-0.446,4.154-1.337,5.039
			s-2.48,1.328-4.769,1.328c-2.253,0-3.825-0.449-4.716-1.348s-1.337-2.571-1.337-5.02V28.132z"/>
		<path fill="#3EA4DD" d="M564.145,28.132h4.56l5.528,27.09h0.053l-0.498-27.09h3.013v28.809h-4.611l-5.476-26.719h-0.105
			l0.472,26.719h-2.935V28.132z"/>
		<path fill="#3EA4DD" d="M582.773,28.132h3.904c3.302,0,5.459,0.388,6.472,1.162c1.013,0.775,1.52,2.549,1.52,5.322v15.84
			c0,2.761-0.516,4.531-1.546,5.312s-3.179,1.172-6.445,1.172h-3.904V28.132z M586.102,30.261v24.551h1.074
			c1.606,0,2.668-0.198,3.184-0.596c0.515-0.397,0.772-1.272,0.772-2.627V33.542c0-1.367-0.262-2.256-0.786-2.666
			c-0.523-0.41-1.581-0.615-3.17-0.615H586.102z"/>
		<path fill="#3EA4DD" d="M612.539,34.011v17.051c0,2.474-0.446,4.154-1.337,5.039s-2.48,1.328-4.769,1.328
			c-2.253,0-3.825-0.449-4.716-1.348s-1.337-2.571-1.337-5.02V34.011c0-2.422,0.45-4.079,1.35-4.971
			c0.899-0.892,2.484-1.338,4.756-1.338c2.271,0,3.847,0.443,4.729,1.328C612.098,29.917,612.539,31.577,612.539,34.011z
			 M609.054,33.621c0-1.458-0.192-2.458-0.576-2.998c-0.385-0.54-1.065-0.811-2.044-0.811c-0.961,0-1.629,0.264-2.004,0.791
			c-0.376,0.527-0.563,1.533-0.563,3.018v17.832c0,1.498,0.191,2.507,0.576,3.027c0.384,0.521,1.065,0.781,2.044,0.781
			c0.96,0,1.629-0.26,2.004-0.781c0.376-0.521,0.563-1.53,0.563-3.027V33.621z"/>
		<path fill="#3EA4DD" d="M619.245,36.863h3.747v3.125h-3.747V36.863z M619.245,53.777h3.747v3.164h-3.747V53.777z"/>
		<path fill="#331842" d="M120.595,63.132h5.791l3.747,26.523h0.262l3.668-26.523h5.634v28.809h-2.909V65.3h-0.523l-3.773,26.641
			h-4.663L123.923,65.3h-0.445v26.641h-2.883V63.132z"/>
		<path fill="#331842" d="M148.971,63.132h4.874l5.58,28.809h-3.589l-1.337-8.008h-6.341l-1.44,8.008h-3.511L148.971,63.132z
			 M151.276,65.261l-2.804,16.562h5.581l-2.62-16.562H151.276z"/>
		<path fill="#331842" d="M162.962,63.132h5.083c2.62,0,4.394,0.273,5.319,0.82s1.389,1.53,1.389,2.949v6.523
			c0,1.198-0.306,2.044-0.917,2.539c-0.611,0.495-1.694,0.794-3.249,0.898c1.659,0.078,2.812,0.365,3.459,0.859
			c0.646,0.495,0.969,1.354,0.969,2.578v11.641h-3.537V81.179c0-1.354-0.258-2.233-0.772-2.637
			c-0.516-0.403-1.577-0.605-3.184-0.605h-1.231v14.004h-3.328V63.132z M166.29,65.261v10.527h1.179c1.52,0,2.532-0.198,3.039-0.596
			c0.507-0.397,0.761-1.279,0.761-2.646v-4.004c0-1.38-0.254-2.272-0.761-2.676c-0.507-0.403-1.52-0.605-3.039-0.605H166.29z"/>
		<path fill="#331842" d="M191.889,67.703v2.754h-3.512v-2.676c0-1.12-0.161-1.895-0.484-2.324s-0.896-0.645-1.716-0.645
			c-0.751,0-1.275,0.244-1.572,0.732s-0.445,1.514-0.445,3.076v17.832c0,1.602,0.157,2.644,0.472,3.125
			c0.314,0.482,0.891,0.723,1.729,0.723c0.716,0,1.231-0.228,1.546-0.684c0.314-0.456,0.471-1.23,0.471-2.324v-3.105h3.512v3.203
			c0,1.966-0.411,3.298-1.231,3.994c-0.821,0.696-2.289,1.045-4.402,1.045c-2.079,0-3.528-0.449-4.35-1.348
			c-0.82-0.898-1.231-2.571-1.231-5.02V69.011c0-2.435,0.411-4.095,1.231-4.98c0.821-0.885,2.271-1.328,4.35-1.328
			c2.131,0,3.603,0.345,4.415,1.035C191.482,64.428,191.889,65.75,191.889,67.703z"/>
		<path fill="#331842" d="M208.238,69.011v17.051c0,2.474-0.446,4.154-1.337,5.039s-2.48,1.328-4.769,1.328
			c-2.253,0-3.825-0.449-4.716-1.348s-1.337-2.571-1.337-5.02V69.011c0-2.422,0.45-4.079,1.35-4.971
			c0.899-0.892,2.484-1.338,4.756-1.338c2.271,0,3.847,0.443,4.729,1.328C207.797,64.917,208.238,66.577,208.238,69.011z
			 M204.753,68.621c0-1.458-0.192-2.458-0.576-2.998c-0.385-0.54-1.065-0.811-2.044-0.811c-0.961,0-1.629,0.264-2.004,0.791
			c-0.376,0.527-0.563,1.533-0.563,3.018v17.832c0,1.498,0.191,2.507,0.576,3.027c0.384,0.521,1.065,0.781,2.044,0.781
			c0.96,0,1.629-0.26,2.004-0.781c0.376-0.521,0.563-1.53,0.563-3.027V68.621z"/>
		<path fill="#331842" d="M233.365,67.703v2.754h-3.512v-2.676c0-1.12-0.161-1.895-0.484-2.324s-0.896-0.645-1.716-0.645
			c-0.751,0-1.275,0.244-1.572,0.732s-0.445,1.514-0.445,3.076v17.832c0,1.602,0.157,2.644,0.472,3.125
			c0.314,0.482,0.891,0.723,1.729,0.723c0.716,0,1.231-0.228,1.546-0.684c0.314-0.456,0.471-1.23,0.471-2.324v-3.105h3.512v3.203
			c0,1.966-0.411,3.298-1.231,3.994c-0.821,0.696-2.289,1.045-4.402,1.045c-2.079,0-3.528-0.449-4.35-1.348
			c-0.82-0.898-1.231-2.571-1.231-5.02V69.011c0-2.435,0.411-4.095,1.231-4.98c0.821-0.885,2.271-1.328,4.35-1.328
			c2.131,0,3.603,0.345,4.415,1.035C232.959,64.428,233.365,65.75,233.365,67.703z"/>
		<path fill="#331842" d="M249.715,69.011v17.051c0,2.474-0.446,4.154-1.337,5.039s-2.48,1.328-4.769,1.328
			c-2.253,0-3.825-0.449-4.716-1.348s-1.337-2.571-1.337-5.02V69.011c0-2.422,0.45-4.079,1.35-4.971
			c0.899-0.892,2.484-1.338,4.756-1.338c2.271,0,3.847,0.443,4.729,1.328C249.273,64.917,249.715,66.577,249.715,69.011z
			 M246.229,68.621c0-1.458-0.192-2.458-0.576-2.998c-0.385-0.54-1.065-0.811-2.044-0.811c-0.961,0-1.629,0.264-2.004,0.791
			c-0.376,0.527-0.563,1.533-0.563,3.018v17.832c0,1.498,0.191,2.507,0.576,3.027c0.384,0.521,1.065,0.781,2.044,0.781
			c0.96,0,1.629-0.26,2.004-0.781c0.376-0.521,0.563-1.53,0.563-3.027V68.621z"/>
		<path fill="#331842" d="M255.583,63.132h4.56l5.528,27.09h0.053l-0.498-27.09h3.013v28.809h-4.611l-5.476-26.719h-0.105
			l0.472,26.719h-2.935V63.132z"/>
		<path fill="#331842" d="M271.671,63.132h11.345v2.285h-3.982v26.523h-3.38V65.417h-3.982V63.132z"/>
		<path fill="#331842" d="M286.5,63.132h9.224v2.285h-5.896v10.371h5.633v2.266h-5.633v11.602h6.053v2.285H286.5V63.132z"/>
		<path fill="#331842" d="M298.081,63.132h3.512l3.248,11.484l3.014-11.484h3.327l-4.401,14.004l4.952,14.805h-3.512l-3.484-12.031
			l-3.38,12.031h-3.327l4.742-14.727L298.081,63.132z"/>
		<path fill="#331842" d="M313.566,63.132h11.345v2.285h-3.982v26.523h-3.38V65.417h-3.982V63.132z"/>
		<path fill="#331842" d="M328.238,63.132h3.485v23.32c0,1.498,0.191,2.507,0.576,3.027c0.384,0.521,1.065,0.781,2.044,0.781
			c0.96,0,1.629-0.26,2.004-0.781c0.376-0.521,0.563-1.53,0.563-3.027v-23.32h3.485v22.93c0,2.474-0.446,4.154-1.337,5.039
			s-2.48,1.328-4.769,1.328c-2.253,0-3.825-0.449-4.716-1.348s-1.337-2.571-1.337-5.02V63.132z"/>
		<path fill="#331842" d="M349.54,63.132h4.874l5.58,28.809h-3.589l-1.337-8.008h-6.341l-1.44,8.008h-3.511L349.54,63.132z
			 M351.846,65.261l-2.804,16.562h5.581l-2.62-16.562H351.846z"/>
		<path fill="#331842" d="M363.531,63.132h3.328v26.523h6v2.285h-9.328V63.132z"/>
		<path fill="#331842" d="M381.323,63.132h3.537l3.484,13.125h0.288l3.145-13.125h3.433l-5.293,16.562v12.246h-3.38V79.695
			L381.323,63.132z"/>
		<path fill="#331842" d="M406.555,63.132h4.56l5.528,27.09h0.053l-0.498-27.09h3.013v28.809h-4.611l-5.476-26.719h-0.105
			l0.472,26.719h-2.935V63.132z"/>
		<path fill="#331842" d="M437.185,69.011v17.051c0,2.474-0.446,4.154-1.337,5.039s-2.48,1.328-4.769,1.328
			c-2.253,0-3.825-0.449-4.716-1.348s-1.337-2.571-1.337-5.02V69.011c0-2.422,0.45-4.079,1.35-4.971
			c0.899-0.892,2.484-1.338,4.756-1.338c2.271,0,3.847,0.443,4.729,1.328C436.743,64.917,437.185,66.577,437.185,69.011z
			 M433.699,68.621c0-1.458-0.192-2.458-0.576-2.998c-0.385-0.54-1.065-0.811-2.044-0.811c-0.961,0-1.629,0.264-2.004,0.791
			c-0.376,0.527-0.563,1.533-0.563,3.018v17.832c0,1.498,0.191,2.507,0.576,3.027c0.384,0.521,1.065,0.781,2.044,0.781
			c0.96,0,1.629-0.26,2.004-0.781c0.376-0.521,0.563-1.53,0.563-3.027V68.621z"/>
		<path fill="#331842" d="M443.053,63.132h5.083c2.62,0,4.394,0.273,5.319,0.82s1.389,1.53,1.389,2.949v6.523
			c0,1.198-0.306,2.044-0.917,2.539c-0.611,0.495-1.694,0.794-3.249,0.898c1.659,0.078,2.812,0.365,3.459,0.859
			c0.646,0.495,0.969,1.354,0.969,2.578v11.641h-3.537V81.179c0-1.354-0.258-2.233-0.772-2.637
			c-0.516-0.403-1.577-0.605-3.184-0.605h-1.231v14.004h-3.328V63.132z M446.381,65.261v10.527h1.179
			c1.52,0,2.532-0.198,3.039-0.596c0.507-0.397,0.761-1.279,0.761-2.646v-4.004c0-1.38-0.254-2.272-0.761-2.676
			c-0.507-0.403-1.52-0.605-3.039-0.605H446.381z"/>
		<path fill="#331842" d="M460.922,63.132h5.791l3.747,26.523h0.262l3.668-26.523h5.634v28.809h-2.909V65.3h-0.523l-3.773,26.641
			h-4.663L464.25,65.3h-0.445v26.641h-2.883V63.132z"/>
		<path fill="#331842" d="M489.298,63.132h4.874l5.58,28.809h-3.589l-1.337-8.008h-6.341l-1.44,8.008h-3.511L489.298,63.132z
			 M491.604,65.261L488.8,81.824h5.581l-2.62-16.562H491.604z"/>
		<path fill="#331842" d="M499.307,63.132h11.345v2.285h-3.982v26.523h-3.38V65.417h-3.982V63.132z"/>
		<path fill="#331842" d="M514.136,63.132h3.538v28.809h-3.538V63.132z"/>
		<path fill="#331842" d="M521.368,63.132h3.38l3.59,25.938h0.366l3.38-25.938h3.171l-4.192,28.809h-5.188L521.368,63.132z"/>
		<path fill="#331842" d="M551.08,69.011v17.051c0,2.474-0.446,4.154-1.337,5.039s-2.48,1.328-4.769,1.328
			c-2.253,0-3.825-0.449-4.716-1.348s-1.337-2.571-1.337-5.02V69.011c0-2.422,0.45-4.079,1.35-4.971
			c0.899-0.892,2.484-1.338,4.756-1.338c2.271,0,3.847,0.443,4.729,1.328C550.639,64.917,551.08,66.577,551.08,69.011z
			 M547.595,68.621c0-1.458-0.192-2.458-0.576-2.998c-0.385-0.54-1.065-0.811-2.044-0.811c-0.961,0-1.629,0.264-2.004,0.791
			c-0.376,0.527-0.563,1.533-0.563,3.018v17.832c0,1.498,0.191,2.507,0.576,3.027c0.384,0.521,1.065,0.781,2.044,0.781
			c0.96,0,1.629-0.26,2.004-0.781c0.376-0.521,0.563-1.53,0.563-3.027V68.621z"/>
	</g>
</g>
</svg>
