<?xml version="1.0" encoding="utf-8"?>
<!-- Generator: Adobe Illustrator 16.0.0, SVG Export Plug-In . SVG Version: 6.00 Build 0)  -->
<!DOCTYPE svg PUBLIC "-//W3C//DTD SVG 1.1//EN" "http://www.w3.org/Graphics/SVG/1.1/DTD/svg11.dtd">
<svg version="1.1" id="Capa_1" xmlns="http://www.w3.org/2000/svg" xmlns:xlink="http://www.w3.org/1999/xlink" x="0px" y="0px"
	 width="178.461px" height="57.79px" viewBox="0 61.524 178.461 57.79" enable-background="new 0 61.524 178.461 57.79"
	 xml:space="preserve">
<g>
	<polygon opacity="0.7" fill="#FFFFFF" enable-background="new    " points="0,65.491 178.461,61.524 178.461,119.313 
		22.82,119.286 	"/>
	<g>
		<g>
			<path fill="#331842" d="M59.826,75.523h4.769v1.182h-3.048v5.362h2.913v1.171h-2.913v5.999h3.129v1.182h-4.85V75.523z"/>
			<path fill="#331842" d="M67.155,75.523h1.721v13.714h3.103v1.182h-4.823L67.155,75.523L67.155,75.523z"/>
			<path fill="#331842" d="M77.885,75.523h4.769v1.182h-3.049v5.362h2.913v1.171h-2.913v5.999h3.13v1.182h-4.85V75.523z"/>
			<path fill="#331842" d="M85.215,75.523h2.357l2.859,14.007h0.026L90.2,75.523h1.559v14.896h-2.384l-2.832-13.815h-0.054
				l0.244,13.815h-1.517V75.523z"/>
			<path fill="#331842" d="M94.847,75.523h4.634v1.182h-2.913v5.402h2.806v1.172h-2.806v7.14h-1.721V75.523z"/>
			<path fill="#331842" d="M107.799,78.563v8.816c0,1.279-0.23,2.148-0.691,2.605c-0.46,0.458-1.281,0.687-2.466,0.687
				c-1.165,0-1.978-0.232-2.438-0.697c-0.459-0.464-0.689-1.329-0.689-2.595v-8.816c0-1.252,0.232-2.109,0.697-2.57
				s1.285-0.692,2.459-0.692s1.988,0.229,2.445,0.687C107.571,76.446,107.799,77.304,107.799,78.563z M105.997,78.361
				c0-0.754-0.099-1.271-0.297-1.551c-0.199-0.279-0.552-0.419-1.058-0.419c-0.497,0-0.843,0.137-1.036,0.409
				c-0.193,0.272-0.291,0.793-0.291,1.561v9.22c0,0.774,0.1,1.296,0.298,1.565c0.198,0.27,0.552,0.404,1.058,0.404
				c0.496,0,0.842-0.135,1.035-0.404c0.194-0.269,0.293-0.791,0.293-1.565v-9.22H105.997z"/>
			<path fill="#331842" d="M110.752,78.563c0-1.259,0.228-2.118,0.684-2.575c0.456-0.458,1.271-0.688,2.445-0.688
				s1.994,0.231,2.459,0.692s0.697,1.318,0.697,2.57v8.816c0,0.768-0.08,1.288-0.244,1.56c-0.162,0.273-0.446,0.504-0.854,0.692
				l0.055,0.061c0.315-0.128,0.631-0.226,0.941-0.293s0.607-0.102,0.887-0.102h0.299v1.121c-0.543,0.007-1.283,0.036-2.223,0.086
				c-0.939,0.051-1.611,0.076-2.02,0.076c-1.209,0-2.034-0.212-2.471-0.637c-0.438-0.424-0.658-1.279-0.658-2.565v-8.815H110.752z
				 M112.554,78.361v9.22c0,0.774,0.1,1.296,0.298,1.565c0.199,0.27,0.551,0.404,1.057,0.404c0.497,0,0.842-0.135,1.037-0.404
				c0.194-0.269,0.292-0.791,0.292-1.565v-9.22c0-0.754-0.1-1.271-0.298-1.551c-0.199-0.279-0.551-0.419-1.057-0.419
				c-0.497,0-0.842,0.137-1.037,0.409C112.651,77.072,112.554,77.594,112.554,78.361z"/>
			<path fill="#331842" d="M119.993,75.523h1.801v12.058c0,0.774,0.1,1.296,0.299,1.565c0.197,0.27,0.551,0.404,1.057,0.404
				c0.496,0,0.842-0.135,1.036-0.404s0.291-0.791,0.291-1.565V75.523h1.802v11.856c0,1.279-0.23,2.148-0.691,2.605
				c-0.461,0.458-1.282,0.687-2.465,0.687c-1.166,0-1.979-0.232-2.438-0.697c-0.461-0.464-0.69-1.329-0.69-2.595V75.523z"/>
			<path fill="#331842" d="M129.312,75.523h4.769v1.182h-3.047v5.362h2.912v1.171h-2.912v5.999h3.129v1.182h-4.851V75.523
				L129.312,75.523z"/>
			<path fill="#331842" d="M45.222,92.759h2.628c1.354,0,2.271,0.143,2.75,0.424c0.479,0.283,0.718,0.793,0.718,1.525v3.373
				c0,0.619-0.158,1.057-0.474,1.313c-0.316,0.256-0.876,0.41-1.68,0.465c0.857,0.039,1.454,0.188,1.788,0.443
				s0.501,0.7,0.501,1.333v4.07c0,0.733-0.239,1.241-0.718,1.524s-1.396,0.424-2.75,0.424h-2.764L45.222,92.759L45.222,92.759z
				 M46.942,93.858v5.443h0.61c0.786,0,1.31-0.103,1.571-0.308c0.262-0.206,0.393-0.662,0.393-1.369v-2.069
				c0-0.714-0.131-1.176-0.393-1.384c-0.262-0.209-0.786-0.313-1.571-0.313H46.942z M46.942,100.414v6.14h0.637
				c0.831,0,1.379-0.103,1.646-0.308s0.399-0.658,0.399-1.358v-2.797c0-0.699-0.133-1.154-0.399-1.363
				c-0.267-0.209-0.815-0.313-1.646-0.313L46.942,100.414L46.942,100.414z"/>
			<path fill="#331842" d="M54.461,92.759h1.829v14.896h-1.829V92.759z"/>
			<path fill="#331842" d="M65.543,95.799v8.816c0,1.278-0.23,2.147-0.691,2.604c-0.46,0.459-1.283,0.688-2.466,0.688
				c-1.165,0-1.978-0.232-2.438-0.697c-0.46-0.465-0.691-1.33-0.691-2.595v-8.816c0-1.252,0.232-2.108,0.697-2.569
				c0.465-0.461,1.285-0.692,2.459-0.692c1.174,0,1.989,0.229,2.445,0.687S65.543,94.54,65.543,95.799z M63.741,95.597
				c0-0.754-0.1-1.271-0.298-1.55c-0.199-0.278-0.551-0.419-1.057-0.419c-0.497,0-0.842,0.137-1.037,0.409
				c-0.195,0.272-0.291,0.793-0.291,1.562v9.219c0,0.774,0.1,1.297,0.298,1.565c0.199,0.269,0.551,0.404,1.057,0.404
				c0.497,0,0.842-0.136,1.037-0.404c0.194-0.269,0.292-0.791,0.292-1.565L63.741,95.597L63.741,95.597z"/>
			<path fill="#331842" d="M68.578,92.759H70.8c1.354,0,2.276,0.143,2.764,0.43c0.487,0.285,0.731,0.791,0.731,1.52v4.282
				c0,0.727-0.244,1.231-0.731,1.515c-0.488,0.282-1.409,0.424-2.764,0.424h-0.501v6.727h-1.72L68.578,92.759L68.578,92.759z
				 M70.298,93.858v5.979h0.46c0.687,0,1.145-0.103,1.375-0.308s0.346-0.668,0.346-1.389v-2.586c0-0.72-0.115-1.183-0.346-1.389
				c-0.23-0.206-0.688-0.309-1.375-0.309H70.298z"/>
			<path fill="#331842" d="M81.624,95.122v1.424h-1.802v-1.384c0-0.585-0.081-0.988-0.244-1.207
				c-0.163-0.22-0.452-0.329-0.867-0.329c-0.397,0-0.677,0.123-0.84,0.369s-0.244,0.682-0.244,1.308v0.728
				c0,0.303,0.056,0.615,0.169,0.934c0.113,0.32,0.278,0.621,0.495,0.904l2.249,2.959c0.379,0.498,0.655,0.968,0.827,1.408
				c0.171,0.44,0.257,0.896,0.257,1.369v1.01c0,1.292-0.219,2.164-0.657,2.615s-1.217,0.677-2.337,0.677
				c-1.093,0-1.854-0.183-2.282-0.546c-0.43-0.363-0.644-1.049-0.644-2.06v-1.655h1.815v1.604c0,0.606,0.081,1.017,0.244,1.231
				c0.163,0.216,0.46,0.324,0.894,0.324c0.442,0,0.747-0.123,0.915-0.369c0.167-0.246,0.25-0.787,0.25-1.621v-1.03
				c0-0.384-0.047-0.731-0.142-1.045c-0.095-0.313-0.233-0.597-0.414-0.854l-2.384-3.171c-0.334-0.424-0.59-0.827-0.766-1.212
				c-0.176-0.384-0.265-0.717-0.265-1v-0.869c0-1.158,0.215-1.964,0.644-2.418c0.429-0.455,1.167-0.682,2.215-0.682
				c1.102,0,1.863,0.178,2.283,0.535C81.413,93.426,81.624,94.112,81.624,95.122z"/>
			<path fill="#331842" d="M84.036,92.759h1.829v14.896h-1.829V92.759z"/>
			<path fill="#331842" d="M94.629,95.122v1.424h-1.814v-1.384c0-0.579-0.083-0.979-0.25-1.202s-0.463-0.333-0.889-0.333
				c-0.389,0-0.658,0.126-0.813,0.379s-0.23,0.783-0.23,1.591v9.221c0,0.828,0.082,1.367,0.244,1.615
				c0.164,0.25,0.461,0.375,0.895,0.375c0.37,0,0.637-0.119,0.799-0.354c0.162-0.236,0.244-0.638,0.244-1.202v-1.605h1.814v1.656
				c0,1.018-0.211,1.705-0.637,2.065c-0.424,0.36-1.183,0.54-2.275,0.54c-1.075,0-1.825-0.232-2.25-0.697
				c-0.425-0.464-0.637-1.33-0.637-2.595v-8.816c0-1.259,0.212-2.118,0.637-2.575c0.424-0.457,1.174-0.687,2.25-0.687
				c1.102,0,1.863,0.178,2.283,0.535C94.42,93.429,94.629,94.112,94.629,95.122z"/>
			<path fill="#331842" d="M103.084,95.799v8.816c0,1.278-0.23,2.147-0.691,2.604c-0.46,0.459-1.283,0.688-2.467,0.688
				c-1.164,0-1.977-0.232-2.438-0.697c-0.46-0.465-0.691-1.33-0.691-2.595v-8.816c0-1.252,0.232-2.108,0.697-2.569
				s1.285-0.692,2.459-0.692s1.989,0.229,2.445,0.687S103.084,94.54,103.084,95.799z M101.282,95.597c0-0.754-0.1-1.271-0.298-1.55
				c-0.198-0.278-0.551-0.419-1.058-0.419c-0.496,0-0.842,0.137-1.036,0.409c-0.195,0.272-0.29,0.792-0.29,1.56v9.221
				c0,0.773,0.1,1.295,0.298,1.564c0.199,0.27,0.552,0.404,1.058,0.404c0.496,0,0.842-0.135,1.037-0.404
				c0.193-0.27,0.291-0.791,0.291-1.564v-9.221H101.282z"/>
			<path fill="#331842" d="M111.334,95.122v1.424h-1.803v-1.384c0-0.585-0.08-0.988-0.242-1.207
				c-0.164-0.22-0.453-0.329-0.867-0.329c-0.397,0-0.678,0.123-0.84,0.369c-0.164,0.246-0.244,0.682-0.244,1.308v0.728
				c0,0.303,0.056,0.615,0.168,0.934c0.113,0.32,0.279,0.621,0.496,0.904l2.248,2.959c0.379,0.498,0.654,0.968,0.826,1.408
				s0.258,0.896,0.258,1.369v1.01c0,1.292-0.219,2.164-0.657,2.615s-1.218,0.677-2.337,0.677c-1.094,0-1.854-0.183-2.283-0.546
				c-0.43-0.363-0.645-1.049-0.645-2.06v-1.655h1.815v1.604c0,0.606,0.081,1.017,0.244,1.231c0.161,0.216,0.46,0.324,0.894,0.324
				c0.442,0,0.748-0.123,0.916-0.369c0.166-0.246,0.25-0.787,0.25-1.621v-1.03c0-0.384-0.048-0.731-0.143-1.045
				c-0.096-0.313-0.232-0.597-0.414-0.854l-2.385-3.171c-0.334-0.424-0.588-0.827-0.766-1.212c-0.176-0.384-0.264-0.717-0.264-1
				v-0.869c0-1.158,0.214-1.964,0.645-2.418c0.43-0.453,1.166-0.682,2.215-0.682c1.102,0,1.861,0.178,2.283,0.535
				C111.125,93.429,111.334,94.112,111.334,95.122z"/>
			<path fill="#331842" d="M119.952,95.799v8.816c0,1.278-0.23,2.147-0.691,2.604c-0.461,0.459-1.282,0.688-2.467,0.688
				c-1.164,0-1.978-0.232-2.438-0.697c-0.46-0.464-0.689-1.33-0.689-2.595v-8.816c0-1.252,0.231-2.108,0.696-2.569
				c0.466-0.461,1.285-0.692,2.459-0.692c1.175,0,1.989,0.229,2.445,0.687S119.952,94.54,119.952,95.799z M118.149,95.597
				c0-0.754-0.1-1.271-0.298-1.55c-0.199-0.278-0.552-0.419-1.058-0.419c-0.496,0-0.842,0.137-1.035,0.409
				c-0.194,0.272-0.291,0.793-0.291,1.562v9.219c0,0.774,0.099,1.297,0.298,1.565c0.198,0.269,0.551,0.404,1.057,0.404
				c0.497,0,0.843-0.136,1.036-0.404s0.292-0.791,0.292-1.565L118.149,95.597L118.149,95.597z"/>
			<path fill="#331842" d="M128.704,95.122v1.424h-1.815v-1.384c0-0.579-0.084-0.979-0.251-1.202s-0.463-0.333-0.887-0.333
				c-0.389,0-0.66,0.126-0.813,0.379s-0.229,0.783-0.229,1.591v9.221c0,0.828,0.082,1.367,0.244,1.615
				c0.161,0.25,0.461,0.375,0.894,0.375c0.37,0,0.637-0.119,0.799-0.354c0.162-0.236,0.244-0.638,0.244-1.202v-1.605h1.815v1.656
				c0,1.018-0.213,1.705-0.638,2.065s-1.185,0.54-2.276,0.54c-1.074,0-1.824-0.232-2.248-0.697c-0.426-0.465-0.638-1.33-0.638-2.595
				v-8.816c0-1.259,0.212-2.118,0.638-2.575c0.424-0.457,1.174-0.687,2.248-0.687c1.103,0,1.863,0.178,2.283,0.535
				C128.493,93.429,128.704,94.112,128.704,95.122z"/>
			<path fill="#331842" d="M130.952,92.759h1.829v14.896h-1.829V92.759z"/>
			<path fill="#331842" d="M137.522,92.759h2.52l2.885,14.896h-1.854l-0.69-4.141h-3.278l-0.745,4.141h-1.814L137.522,92.759z
				 M138.715,93.858l-1.45,8.564h2.885l-1.354-8.564H138.715z"/>
			<path fill="#331842" d="M144.756,92.759h1.722v13.715h3.103v1.182h-4.822V92.759H144.756z"/>
		</g>
	</g>
</g>
</svg>
