<?xml version="1.0" encoding="utf-8"?>
<!-- Generator: Adobe Illustrator 16.0.0, SVG Export Plug-In . SVG Version: 6.00 Build 0)  -->
<!DOCTYPE svg PUBLIC "-//W3C//DTD SVG 1.1//EN" "http://www.w3.org/Graphics/SVG/1.1/DTD/svg11.dtd">
<svg version="1.1" id="Capa_1" xmlns="http://www.w3.org/2000/svg" xmlns:xlink="http://www.w3.org/1999/xlink" x="0px" y="0px"
	 width="178.461px" height="57.79px" viewBox="0 0 178.461 57.79" enable-background="new 0 0 178.461 57.79" xml:space="preserve">
<g>
	<polygon opacity="0.7" fill="#FFFFFF" enable-background="new    " points="0,3.967 178.461,0 178.461,57.79 22.82,57.762 	"/>
	<g>
		<g>
			<path fill="#331842" d="M43.731,12.999h2.994l1.938,13.714h0.136l1.896-13.714h2.913v14.896h-1.504V14.12h-0.271l-1.951,13.775
				H47.47L45.451,14.12h-0.23v13.775h-1.49V12.999z"/>
			<path fill="#331842" d="M62.915,16.039v8.816c0,1.279-0.23,2.148-0.691,2.605c-0.461,0.458-1.283,0.687-2.466,0.687
				c-1.165,0-1.978-0.232-2.438-0.697c-0.461-0.464-0.691-1.329-0.691-2.595v-8.816c0-1.252,0.232-2.109,0.698-2.57
				c0.465-0.461,1.285-0.692,2.459-0.692c1.174,0,1.989,0.229,2.445,0.687S62.915,14.779,62.915,16.039z M61.112,15.837
				c0-0.754-0.099-1.271-0.298-1.551c-0.199-0.279-0.551-0.419-1.057-0.419c-0.497,0-0.842,0.137-1.036,0.409
				c-0.194,0.272-0.292,0.793-0.292,1.561v9.22c0,0.774,0.099,1.296,0.298,1.565c0.198,0.27,0.551,0.404,1.057,0.404
				c0.496,0,0.842-0.135,1.036-0.404c0.194-0.269,0.291-0.791,0.291-1.565L61.112,15.837L61.112,15.837z"/>
			<path fill="#331842" d="M65.949,12.999h2.019c1.707,0,2.822,0.2,3.347,0.601c0.523,0.4,0.786,1.318,0.786,2.752v8.19
				c0,1.427-0.267,2.343-0.799,2.747c-0.533,0.404-1.644,0.605-3.333,0.605H65.95L65.949,12.999L65.949,12.999z M67.67,14.1v12.694
				h0.556c0.831,0,1.379-0.103,1.646-0.308c0.267-0.206,0.4-0.658,0.4-1.358v-9.332c0-0.707-0.135-1.166-0.406-1.378
				S69.048,14.1,68.227,14.1H67.67z"/>
			<path fill="#331842" d="M75.135,12.999h4.769v1.182h-3.048v5.362h2.913v1.171h-2.913v5.999h3.129v1.182h-4.85V12.999z"/>
			<path fill="#331842" d="M82.464,12.999h1.721v13.714h3.103v1.182h-4.823L82.464,12.999L82.464,12.999z"/>
			<path fill="#331842" d="M95.159,16.039v8.816c0,1.279-0.23,2.148-0.691,2.605c-0.461,0.458-1.282,0.687-2.465,0.687
				c-1.166,0-1.979-0.232-2.438-0.697c-0.461-0.464-0.691-1.329-0.691-2.595v-8.816c0-1.252,0.232-2.109,0.698-2.57
				c0.465-0.461,1.285-0.692,2.459-0.692s1.989,0.229,2.445,0.687S95.159,14.779,95.159,16.039z M93.356,15.837
				c0-0.754-0.1-1.271-0.298-1.551c-0.199-0.279-0.552-0.419-1.058-0.419c-0.496,0-0.842,0.137-1.037,0.409
				c-0.193,0.272-0.291,0.793-0.291,1.561v9.22c0,0.774,0.1,1.296,0.298,1.565c0.198,0.27,0.551,0.404,1.057,0.404
				c0.497,0,0.843-0.135,1.037-0.404s0.291-0.791,0.291-1.565L93.356,15.837L93.356,15.837z"/>
			<path fill="#331842" d="M103.409,15.362v1.424h-1.802v-1.384c0-0.586-0.081-0.988-0.244-1.207
				c-0.163-0.219-0.452-0.328-0.866-0.328c-0.397,0-0.678,0.123-0.841,0.369c-0.163,0.246-0.243,0.682-0.243,1.308v0.727
				c0,0.303,0.057,0.615,0.168,0.935c0.112,0.32,0.278,0.621,0.496,0.904l2.248,2.959c0.379,0.499,0.654,0.968,0.826,1.409
				s0.258,0.897,0.258,1.368v1.01c0,1.292-0.219,2.165-0.656,2.616c-0.438,0.451-1.217,0.677-2.338,0.677
				c-1.093,0-1.854-0.182-2.283-0.546c-0.428-0.363-0.644-1.05-0.644-2.06v-1.656h1.815v1.605c0,0.606,0.082,1.017,0.244,1.232
				c0.162,0.215,0.459,0.323,0.894,0.323c0.442,0,0.748-0.123,0.915-0.369c0.167-0.246,0.25-0.786,0.25-1.621v-1.03
				c0-0.384-0.047-0.732-0.143-1.045c-0.094-0.313-0.231-0.597-0.412-0.854l-2.385-3.171c-0.334-0.424-0.59-0.828-0.767-1.212
				c-0.176-0.384-0.264-0.717-0.264-1v-0.868c0-1.158,0.214-1.964,0.644-2.419c0.43-0.454,1.167-0.682,2.215-0.682
				c1.103,0,1.863,0.179,2.283,0.535C103.2,13.669,103.409,14.352,103.409,15.362z"/>
			<path fill="#331842" d="M115.277,15.362v1.424h-1.802v-1.384c0-0.586-0.081-0.988-0.243-1.207
				c-0.163-0.219-0.452-0.328-0.866-0.328c-0.398,0-0.679,0.123-0.841,0.369c-0.163,0.246-0.243,0.682-0.243,1.308v0.727
				c0,0.303,0.055,0.615,0.168,0.935c0.113,0.32,0.278,0.621,0.495,0.904l2.249,2.959c0.379,0.499,0.654,0.968,0.826,1.409
				c0.171,0.441,0.257,0.897,0.257,1.368v1.01c0,1.292-0.219,2.165-0.657,2.616c-0.438,0.451-1.218,0.677-2.336,0.677
				c-1.094,0-1.854-0.182-2.283-0.546c-0.43-0.363-0.645-1.05-0.645-2.06v-1.656h1.814v1.605c0,0.606,0.082,1.017,0.244,1.232
				c0.162,0.215,0.461,0.323,0.895,0.323c0.441,0,0.748-0.123,0.915-0.369c0.167-0.246,0.25-0.786,0.25-1.621v-1.03
				c0-0.384-0.047-0.732-0.142-1.045c-0.096-0.313-0.233-0.597-0.414-0.854l-2.385-3.171c-0.334-0.424-0.589-0.828-0.766-1.212
				c-0.176-0.384-0.264-0.717-0.264-1v-0.868c0-1.158,0.213-1.964,0.644-2.419c0.429-0.454,1.167-0.682,2.215-0.682
				c1.103,0,1.862,0.179,2.283,0.535C115.067,13.669,115.277,14.352,115.277,15.362z"/>
			<path fill="#331842" d="M123.894,16.039v8.816c0,1.279-0.229,2.148-0.69,2.605c-0.461,0.458-1.283,0.687-2.467,0.687
				c-1.165,0-1.979-0.232-2.438-0.697c-0.461-0.464-0.69-1.329-0.69-2.595v-8.816c0-1.252,0.231-2.109,0.697-2.57
				c0.465-0.461,1.284-0.692,2.459-0.692c1.174,0,1.989,0.229,2.444,0.687C123.667,13.922,123.894,14.779,123.894,16.039z
				 M122.09,15.837c0-0.754-0.098-1.271-0.297-1.551c-0.199-0.279-0.551-0.419-1.058-0.419c-0.497,0-0.842,0.137-1.036,0.409
				c-0.193,0.272-0.291,0.793-0.291,1.561v9.22c0,0.774,0.1,1.296,0.299,1.565c0.197,0.27,0.551,0.404,1.057,0.404
				c0.497,0,0.842-0.135,1.035-0.404c0.195-0.269,0.293-0.791,0.293-1.565v-9.22H122.09z"/>
			<path fill="#331842" d="M126.928,12.999h2.628c1.354,0,2.271,0.141,2.75,0.424c0.479,0.283,0.718,0.791,0.718,1.525v3.374
				c0,0.619-0.158,1.057-0.475,1.312c-0.315,0.256-0.875,0.411-1.68,0.465c0.858,0.04,1.455,0.188,1.789,0.444
				s0.502,0.7,0.502,1.333v4.069c0,0.734-0.24,1.242-0.719,1.525c-0.479,0.283-1.396,0.424-2.75,0.424h-2.764V12.999L126.928,12.999
				z M128.648,14.1v5.443h0.608c0.787,0,1.311-0.103,1.572-0.308c0.262-0.205,0.394-0.662,0.394-1.369v-2.07
				c0-0.713-0.132-1.175-0.394-1.383s-0.785-0.313-1.572-0.313H128.648z M128.648,20.654v6.14h0.638c0.83,0,1.379-0.103,1.646-0.308
				c0.266-0.206,0.399-0.658,0.399-1.358V22.33c0-0.7-0.134-1.154-0.399-1.363c-0.267-0.208-0.815-0.313-1.646-0.313H128.648z"/>
			<path fill="#331842" d="M136.167,12.999h2.629c1.354,0,2.271,0.141,2.75,0.424c0.479,0.283,0.718,0.791,0.718,1.525v3.374
				c0,0.619-0.158,1.057-0.474,1.312c-0.316,0.256-0.877,0.411-1.681,0.465c0.858,0.04,1.454,0.188,1.789,0.444
				c0.334,0.256,0.501,0.7,0.501,1.333v6.019h-1.829V22.33c0-0.7-0.133-1.154-0.399-1.363c-0.267-0.208-0.814-0.313-1.646-0.313
				h-0.637v7.241h-1.72V12.999H136.167z M137.888,14.1v5.443h0.61c0.785,0,1.31-0.103,1.571-0.308
				c0.263-0.206,0.394-0.662,0.394-1.369v-2.07c0-0.713-0.131-1.175-0.394-1.383c-0.262-0.208-0.786-0.313-1.571-0.313H137.888z"/>
			<path fill="#331842" d="M145.407,12.999h4.77v1.182h-3.049v5.362h2.914v1.171h-2.914v5.999h3.129v1.182h-4.85V12.999
				L145.407,12.999z"/>
			<path fill="#331842" d="M50.796,30.234h2.019c1.707,0,2.822,0.2,3.347,0.601c0.523,0.401,0.786,1.318,0.786,2.752v8.19
				c0,1.428-0.267,2.343-0.799,2.747c-0.533,0.404-1.644,0.606-3.333,0.606h-2.019L50.796,30.234L50.796,30.234z M52.517,31.335
				v12.694h0.556c0.831,0,1.379-0.103,1.646-0.308c0.267-0.205,0.4-0.658,0.4-1.358v-9.332c0-0.707-0.135-1.167-0.406-1.378
				c-0.271-0.211-0.818-0.318-1.639-0.318H52.517z"/>
			<path fill="#331842" d="M59.981,30.234h1.829V45.13h-1.829V30.234z"/>
			<path fill="#331842" d="M70.074,32.598v1.424h-1.802v-1.384c0-0.585-0.081-0.988-0.244-1.207
				c-0.163-0.219-0.452-0.329-0.867-0.329c-0.397,0-0.677,0.123-0.84,0.369c-0.163,0.246-0.244,0.682-0.244,1.308v0.727
				c0,0.303,0.056,0.615,0.169,0.934c0.113,0.32,0.278,0.621,0.495,0.904l2.249,2.959c0.379,0.498,0.655,0.968,0.827,1.408
				c0.171,0.441,0.257,0.897,0.257,1.369v1.01c0,1.292-0.219,2.164-0.657,2.615s-1.217,0.677-2.337,0.677
				c-1.093,0-1.854-0.182-2.282-0.545c-0.43-0.364-0.644-1.05-0.644-2.06v-1.656h1.815v1.605c0,0.606,0.081,1.017,0.244,1.232
				s0.46,0.323,0.894,0.323c0.442,0,0.747-0.123,0.915-0.369c0.167-0.245,0.25-0.786,0.25-1.621v-1.03
				c0-0.384-0.047-0.732-0.142-1.045c-0.095-0.313-0.233-0.597-0.414-0.854l-2.384-3.171c-0.334-0.424-0.59-0.828-0.766-1.212
				c-0.176-0.384-0.265-0.717-0.265-1V33.11c0-1.158,0.215-1.964,0.644-2.418c0.429-0.455,1.167-0.682,2.215-0.682
				c1.102,0,1.863,0.178,2.283,0.535S70.074,31.588,70.074,32.598z"/>
			<path fill="#331842" d="M78.203,32.598v1.424h-1.815v-1.384c0-0.579-0.083-0.979-0.25-1.202
				c-0.167-0.222-0.463-0.333-0.887-0.333c-0.389,0-0.66,0.126-0.813,0.379s-0.23,0.783-0.23,1.591v9.22
				c0,0.828,0.082,1.367,0.244,1.616c0.163,0.249,0.461,0.374,0.895,0.374c0.37,0,0.637-0.118,0.799-0.354
				c0.163-0.235,0.244-0.637,0.244-1.202v-1.605h1.815v1.656c0,1.017-0.212,1.705-0.637,2.065c-0.425,0.36-1.184,0.54-2.276,0.54
				c-1.075,0-1.824-0.232-2.249-0.697c-0.425-0.464-0.637-1.33-0.637-2.595v-8.816c0-1.259,0.212-2.118,0.637-2.575
				c0.424-0.458,1.174-0.687,2.249-0.687c1.102,0,1.863,0.178,2.283,0.535C77.995,30.905,78.203,31.588,78.203,32.598z"/>
			<path fill="#331842" d="M82.146,30.234h2.521l2.885,14.896h-1.856l-0.691-4.141h-3.279L80.98,45.13h-1.815L82.146,30.234z
				 M83.338,31.335l-1.449,8.564h2.885l-1.355-8.564H83.338z"/>
			<path fill="#331842" d="M89.38,30.234h2.222c1.355,0,2.275,0.143,2.764,0.429c0.487,0.286,0.731,0.792,0.731,1.52v4.282
				c0,0.727-0.244,1.232-0.731,1.515c-0.488,0.282-1.408,0.424-2.764,0.424h-0.501v6.726h-1.72L89.38,30.234L89.38,30.234z
				 M91.101,31.335v5.979h0.461c0.687,0,1.146-0.103,1.375-0.308s0.347-0.668,0.347-1.389v-2.585c0-0.72-0.115-1.183-0.347-1.389
				s-0.688-0.308-1.375-0.308H91.101z"/>
			<path fill="#331842" d="M98.295,30.234h2.52L103.7,45.13h-1.855l-0.691-4.141h-3.277l-0.746,4.141h-1.814L98.295,30.234z
				 M99.487,31.335l-1.449,8.564h2.885l-1.354-8.564H99.487z"/>
			<path fill="#331842" d="M111.247,32.598v1.424h-1.815v-1.384c0-0.579-0.083-0.979-0.25-1.202
				c-0.167-0.222-0.464-0.333-0.888-0.333c-0.39,0-0.66,0.126-0.813,0.379s-0.229,0.783-0.229,1.591v9.22
				c0,0.828,0.08,1.367,0.244,1.616c0.162,0.249,0.459,0.374,0.894,0.374c0.37,0,0.637-0.118,0.799-0.354
				c0.162-0.236,0.244-0.637,0.244-1.202v-1.605h1.815v1.656c0,1.017-0.213,1.705-0.638,2.065c-0.424,0.36-1.183,0.54-2.276,0.54
				c-1.074,0-1.824-0.232-2.248-0.697c-0.426-0.464-0.638-1.33-0.638-2.595v-8.816c0-1.259,0.212-2.118,0.638-2.575
				c0.424-0.458,1.174-0.687,2.248-0.687c1.103,0,1.863,0.178,2.283,0.535C111.036,30.905,111.247,31.588,111.247,32.598z"/>
			<path fill="#331842" d="M113.495,30.234h1.83V45.13h-1.83V30.234z"/>
			<path fill="#331842" d="M118.374,30.234h2.019c1.707,0,2.821,0.2,3.346,0.601c0.523,0.401,0.786,1.318,0.786,2.752v8.19
				c0,1.428-0.268,2.343-0.8,2.747c-0.533,0.404-1.644,0.606-3.333,0.606h-2.02V30.234H118.374z M120.092,31.335v12.694h0.557
				c0.831,0,1.38-0.103,1.646-0.308c0.266-0.205,0.399-0.658,0.399-1.358v-9.332c0-0.707-0.136-1.167-0.405-1.378
				c-0.271-0.212-0.818-0.318-1.641-0.318H120.092z"/>
			<path fill="#331842" d="M129.25,30.234h2.521l2.885,14.896h-1.855l-0.691-4.141h-3.279l-0.744,4.141h-1.815L129.25,30.234z
				 M130.443,31.335l-1.448,8.564h2.885l-1.355-8.564H130.443z"/>
			<path fill="#331842" d="M136.486,30.234h2.019c1.707,0,2.822,0.2,3.347,0.601c0.522,0.401,0.786,1.318,0.786,2.752v8.19
				c0,1.428-0.268,2.343-0.801,2.747c-0.532,0.404-1.644,0.606-3.332,0.606h-2.02L136.486,30.234L136.486,30.234z M138.206,31.335
				v12.694h0.557c0.83,0,1.38-0.103,1.646-0.308c0.266-0.205,0.399-0.658,0.399-1.358v-9.332c0-0.707-0.136-1.167-0.406-1.378
				c-0.271-0.212-0.817-0.318-1.64-0.318H138.206z"/>
		</g>
	</g>
</g>
</svg>
