<?xml version="1.0" encoding="utf-8"?>
<!-- Generator: Adobe Illustrator 16.0.0, SVG Export Plug-In . SVG Version: 6.00 Build 0)  -->
<!DOCTYPE svg PUBLIC "-//W3C//DTD SVG 1.1//EN" "http://www.w3.org/Graphics/SVG/1.1/DTD/svg11.dtd">
<svg version="1.1" id="Capa_1" xmlns="http://www.w3.org/2000/svg" xmlns:xlink="http://www.w3.org/1999/xlink" x="0px" y="0px"
	 width="527.316px" height="328.894px" viewBox="0 0 527.316 328.894" enable-background="new 0 0 527.316 328.894"
	 xml:space="preserve">
<g>
	<g>
		<path fill="#2C5A67" d="M0,0l4.824,328.894l485.494-2.455L517,40.764c-2.938,1.358-6.244,2.037-9.703,1.839
			c-11.23-0.643-19.822-10.275-19.178-21.514c0.174-3.051,1.014-5.914,2.367-8.438L0,0z"/>
		<path fill="#2C5A67" d="M509.037,12.248c-5.527-0.316-10.266,3.907-10.582,9.435c-0.316,5.526,3.908,10.262,9.438,10.579
			c5.525,0.316,10.262-3.909,10.576-9.434C518.787,17.3,514.564,12.564,509.037,12.248z M513.103,26.277
			c0.287,0.324,0.26,0.819-0.062,1.109c-0.326,0.287-0.818,0.26-1.107-0.063l-3.529-3.958l-3.961,3.531
			c-0.324,0.288-0.82,0.26-1.109-0.063c-0.283-0.325-0.254-0.82,0.064-1.109l3.957-3.531l-3.529-3.96
			c-0.289-0.325-0.254-0.817,0.072-1.109c0.314-0.279,0.811-0.259,1.1,0.064l3.531,3.959l3.959-3.53
			c0.322-0.28,0.816-0.251,1.107,0.062c0.287,0.326,0.26,0.819-0.062,1.111l-3.959,3.531L513.103,26.277z"/>
		<g>
			<path fill="#2C5A67" d="M489.64,21.177c0.594-10.378,9.52-18.338,19.898-17.746c10.379,0.593,18.338,9.521,17.746,19.899
				c-0.594,10.378-9.521,18.339-19.898,17.747C497.007,40.482,489.046,31.556,489.64,21.177z M495.458,21.51
				c-0.41,7.17,5.09,13.336,12.26,13.746c7.17,0.41,13.336-5.088,13.746-12.259c0.412-7.17-5.088-13.337-12.258-13.747
				C502.037,8.841,495.869,14.34,495.458,21.51z"/>
		</g>
	</g>
	<g>
		<g>
			<path fill="#A0C219" d="M136.053,82.542h9.223v2.285h-5.895v10.371h5.633v2.266h-5.633v11.602h6.052v2.285h-9.38V82.542z"/>
			<path fill="#A0C219" d="M150.228,82.542h3.328v26.523h6v2.285h-9.328V82.542z"/>
			<path fill="#A0C219" d="M170.979,82.542h5.79l3.747,26.523h0.262l3.668-26.523h5.634v28.809h-2.908V84.71h-0.524l-3.773,26.641
				h-4.664l-3.904-26.641h-0.445v26.641h-2.882L170.979,82.542L170.979,82.542z"/>
			<path fill="#A0C219" d="M208.08,88.421v17.051c0,2.474-0.445,4.154-1.336,5.039c-0.891,0.885-2.48,1.328-4.769,1.328
				c-2.254,0-3.826-0.449-4.717-1.348c-0.891-0.898-1.336-2.571-1.336-5.02v-17.05c0-2.422,0.449-4.079,1.35-4.971
				c0.899-0.892,2.484-1.338,4.755-1.338s3.848,0.443,4.729,1.328C207.639,84.326,208.08,85.986,208.08,88.421z M204.596,88.03
				c0-1.458-0.192-2.458-0.577-2.998c-0.384-0.54-1.066-0.811-2.043-0.811c-0.961,0-1.629,0.264-2.005,0.791
				c-0.376,0.527-0.563,1.533-0.563,3.018v17.832c0,1.498,0.192,2.507,0.577,3.027c0.384,0.521,1.065,0.781,2.043,0.781
				c0.961,0,1.629-0.26,2.005-0.781c0.375-0.521,0.563-1.53,0.563-3.027V88.03z"/>
			<path fill="#A0C219" d="M213.949,82.542h3.904c3.301,0,5.458,0.388,6.472,1.162c1.013,0.775,1.52,2.549,1.52,5.322v15.84
				c0,2.761-0.516,4.531-1.546,5.312c-1.031,0.781-3.18,1.172-6.446,1.172h-3.904V82.542z M217.276,84.671v24.551h1.075
				c1.607,0,2.668-0.198,3.183-0.596c0.515-0.397,0.773-1.272,0.773-2.627V87.952c0-1.367-0.262-2.256-0.786-2.666
				c-0.524-0.41-1.581-0.615-3.17-0.615H217.276z"/>
			<path fill="#A0C219" d="M231.714,82.542h9.223v2.285h-5.896v10.371h5.633v2.266h-5.633v11.602h6.053v2.285h-9.38V82.542z"/>
			<path fill="#A0C219" d="M245.889,82.542h3.327v26.523h6v2.285h-9.327V82.542z"/>
			<path fill="#A0C219" d="M270.438,88.421v17.051c0,2.474-0.444,4.154-1.336,5.039c-0.892,0.885-2.479,1.328-4.769,1.328
				c-2.253,0-3.826-0.449-4.716-1.348c-0.891-0.899-1.336-2.571-1.336-5.02v-17.05c0-2.422,0.45-4.079,1.35-4.971
				c0.899-0.892,2.484-1.338,4.755-1.338c2.271,0,3.847,0.443,4.729,1.328C269.998,84.326,270.438,85.986,270.438,88.421z
				 M266.955,88.03c0-1.458-0.192-2.458-0.576-2.998c-0.385-0.54-1.066-0.811-2.045-0.811c-0.96,0-1.628,0.264-2.003,0.791
				c-0.376,0.527-0.563,1.533-0.563,3.018v17.832c0,1.498,0.192,2.507,0.577,3.027c0.384,0.521,1.065,0.781,2.043,0.781
				c0.96,0,1.628-0.26,2.004-0.781c0.375-0.521,0.563-1.53,0.563-3.027V88.03z"/>
			<path fill="#A0C219" d="M294.596,87.112v2.754h-3.485V87.19c0-1.133-0.156-1.911-0.472-2.334
				c-0.313-0.423-0.874-0.635-1.677-0.635c-0.77,0-1.311,0.238-1.625,0.713c-0.314,0.476-0.471,1.318-0.471,2.529v1.406
				c0,0.586,0.107,1.188,0.326,1.807c0.219,0.619,0.537,1.201,0.956,1.748l4.351,5.723c0.732,0.964,1.267,1.872,1.599,2.725
				c0.331,0.853,0.498,1.735,0.498,2.646v1.953c0,2.5-0.425,4.187-1.271,5.059c-0.848,0.872-2.354,1.309-4.521,1.309
				c-2.113,0-3.585-0.352-4.415-1.055c-0.83-0.703-1.244-2.031-1.244-3.984v-3.203h3.512v3.105c0,1.172,0.156,1.966,0.471,2.383
				s0.892,0.625,1.729,0.625c0.854,0,1.445-0.237,1.769-0.713c0.324-0.475,0.484-1.52,0.484-3.135v-1.992
				c0-0.742-0.092-1.416-0.275-2.021s-0.449-1.155-0.799-1.65l-4.611-6.133c-0.645-0.82-1.139-1.602-1.479-2.344
				c-0.34-0.742-0.511-1.387-0.511-1.934v-1.68c0-2.239,0.415-3.799,1.244-4.678c0.83-0.879,2.258-1.318,4.283-1.318
				c2.132,0,3.604,0.345,4.416,1.035C294.19,83.838,294.596,85.159,294.596,87.112z"/>
			<path fill="#A0C219" d="M311.259,88.421v17.051c0,2.474-0.444,4.154-1.336,5.039c-0.891,0.885-2.479,1.328-4.769,1.328
				c-2.253,0-3.825-0.449-4.716-1.348c-0.891-0.899-1.336-2.571-1.336-5.02v-17.05c0-2.422,0.45-4.079,1.35-4.971
				c0.899-0.892,2.484-1.338,4.756-1.338c2.271,0,3.847,0.443,4.729,1.328C310.819,84.326,311.259,85.986,311.259,88.421z
				 M307.775,88.03c0-1.458-0.191-2.458-0.576-2.998s-1.066-0.811-2.044-0.811c-0.961,0-1.629,0.264-2.004,0.791
				c-0.376,0.527-0.563,1.533-0.563,3.018v17.832c0,1.498,0.192,2.507,0.578,3.027c0.383,0.521,1.064,0.781,2.043,0.781
				c0.959,0,1.627-0.26,2.004-0.781c0.375-0.521,0.562-1.53,0.562-3.027V88.03z"/>
			<path fill="#A0C219" d="M328.186,87.112v2.754h-3.511V87.19c0-1.12-0.161-1.895-0.484-2.324
				c-0.322-0.429-0.896-0.645-1.716-0.645c-0.751,0-1.274,0.244-1.572,0.732c-0.298,0.488-0.446,1.514-0.446,3.076v17.832
				c0,1.602,0.158,2.644,0.473,3.125c0.314,0.482,0.891,0.723,1.729,0.723c0.717,0,1.231-0.228,1.547-0.684
				c0.313-0.456,0.471-1.23,0.471-2.324v-3.105h3.512v3.203c0,1.966-0.411,3.298-1.23,3.994c-0.822,0.696-2.289,1.045-4.402,1.045
				c-2.079,0-3.528-0.449-4.35-1.348c-0.822-0.899-1.231-2.571-1.231-5.02V88.421c0-2.435,0.409-4.095,1.231-4.98
				c0.82-0.885,2.271-1.328,4.35-1.328c2.131,0,3.603,0.345,4.414,1.035S328.186,85.159,328.186,87.112z"/>
			<path fill="#A0C219" d="M332.535,82.542h3.537v28.809h-3.537V82.542z"/>
			<path fill="#A0C219" d="M345.244,82.542h4.873l5.58,28.809h-3.59l-1.336-8.008h-6.341l-1.441,8.008h-3.511L345.244,82.542z
				 M347.548,84.671l-2.803,16.562h5.58l-2.619-16.562H347.548z"/>
			<path fill="#A0C219" d="M359.234,82.542h3.327v26.523h6v2.285h-9.328L359.234,82.542L359.234,82.542z"/>
		</g>
	</g>
</g>
</svg>
