<?xml version="1.0" encoding="utf-8"?>
<!-- Generator: Adobe Illustrator 16.0.0, SVG Export Plug-In . SVG Version: 6.00 Build 0)  -->
<!DOCTYPE svg PUBLIC "-//W3C//DTD SVG 1.1//EN" "http://www.w3.org/Graphics/SVG/1.1/DTD/svg11.dtd">
<svg version="1.1" id="Capa_1" xmlns="http://www.w3.org/2000/svg" xmlns:xlink="http://www.w3.org/1999/xlink" x="0px" y="0px"
	 width="527.316px" height="328.894px" viewBox="0 0 527.316 328.894" enable-background="new 0 0 527.316 328.894"
	 xml:space="preserve">
<g>
	<g>
		<path fill="#2C5A67" d="M0,0l4.824,328.894l485.494-2.455L517,40.764c-2.938,1.358-6.244,2.037-9.703,1.839
			c-11.23-0.643-19.822-10.275-19.178-21.514c0.174-3.051,1.014-5.914,2.367-8.438L0,0z"/>
		<path fill="#2C5A67" d="M509.037,12.248c-5.527-0.316-10.266,3.907-10.582,9.435c-0.316,5.526,3.908,10.262,9.438,10.579
			c5.525,0.316,10.262-3.909,10.576-9.434C518.787,17.3,514.564,12.564,509.037,12.248z M513.103,26.277
			c0.287,0.324,0.26,0.819-0.062,1.109c-0.326,0.287-0.818,0.26-1.107-0.063l-3.529-3.958l-3.961,3.531
			c-0.324,0.288-0.82,0.26-1.109-0.063c-0.283-0.325-0.254-0.82,0.064-1.109l3.957-3.531l-3.529-3.96
			c-0.289-0.325-0.254-0.817,0.072-1.109c0.314-0.279,0.811-0.259,1.1,0.064l3.531,3.959l3.959-3.53
			c0.322-0.28,0.816-0.251,1.107,0.062c0.287,0.326,0.26,0.819-0.062,1.111l-3.959,3.531L513.103,26.277z"/>
		<g>
			<path fill="#2C5A67" d="M489.64,21.177c0.594-10.378,9.52-18.338,19.898-17.746c10.379,0.593,18.338,9.521,17.746,19.899
				c-0.594,10.378-9.521,18.339-19.898,17.747C497.007,40.482,489.046,31.556,489.64,21.177z M495.458,21.51
				c-0.41,7.17,5.09,13.336,12.26,13.746c7.17,0.41,13.336-5.088,13.746-12.259c0.412-7.17-5.088-13.337-12.258-13.747
				C502.037,8.841,495.869,14.34,495.458,21.51z"/>
		</g>
	</g>
	<g>
		<path fill="#A0C219" d="M42.374,97.681h8.285v2.053h-5.296v9.316h5.061v2.035h-5.061v10.422H50.8v2.053h-8.426V97.681z"/>
		<path fill="#A0C219" d="M55.107,97.681h2.989v23.827h5.39v2.053h-8.379V97.681z"/>
		<path fill="#A0C219" d="M73.749,97.681h5.202l3.366,23.827h0.235l3.295-23.827h5.061v25.879h-2.613V99.628h-0.471l-3.389,23.932
			h-4.189l-3.507-23.932h-0.4v23.932H73.75L73.749,97.681L73.749,97.681z"/>
		<path fill="#A0C219" d="M107.078,102.962v15.317c0,2.223-0.4,3.731-1.201,4.527c-0.801,0.796-2.228,1.193-4.284,1.193
			c-2.024,0-3.436-0.403-4.236-1.21c-0.8-0.807-1.201-2.31-1.201-4.509v-15.317c0-2.175,0.404-3.664,1.212-4.465
			c0.808-0.801,2.232-1.202,4.272-1.202s3.456,0.398,4.248,1.193C106.681,99.284,107.078,100.775,107.078,102.962z M103.947,102.611
			c0-1.31-0.173-2.208-0.518-2.693c-0.345-0.485-0.957-0.728-1.836-0.728c-0.863,0-1.463,0.236-1.8,0.71
			c-0.338,0.474-0.506,1.378-0.506,2.711v16.019c0,1.345,0.173,2.251,0.518,2.719c0.345,0.468,0.957,0.702,1.836,0.702
			c0.863,0,1.463-0.234,1.8-0.702c0.337-0.468,0.506-1.374,0.506-2.719V102.611z"/>
		<path fill="#A0C219" d="M112.35,97.681h3.507c2.965,0,4.903,0.348,5.813,1.044c0.91,0.696,1.365,2.29,1.365,4.781v14.229
			c0,2.48-0.463,4.07-1.389,4.772c-0.926,0.702-2.856,1.053-5.79,1.053h-3.507L112.35,97.681L112.35,97.681z M115.339,99.593v22.055
			h0.965c1.443,0,2.396-0.179,2.859-0.535c0.463-0.357,0.694-1.144,0.694-2.36v-16.212c0-1.228-0.235-2.026-0.706-2.395
			c-0.471-0.369-1.42-0.553-2.848-0.553H115.339z"/>
		<path fill="#A0C219" d="M128.308,97.681h8.285v2.053h-5.296v9.316h5.061v2.035h-5.061v10.422h5.437v2.053h-8.426V97.681z"/>
		<path fill="#A0C219" d="M141.041,97.681h2.989v23.827h5.39v2.053h-8.379V97.681z"/>
		<path fill="#A0C219" d="M163.096,102.962v15.317c0,2.223-0.4,3.731-1.201,4.527c-0.801,0.796-2.228,1.193-4.284,1.193
			c-2.024,0-3.436-0.403-4.236-1.21s-1.201-2.31-1.201-4.509v-15.317c0-2.175,0.404-3.664,1.212-4.465
			c0.808-0.801,2.232-1.202,4.272-1.202s3.456,0.398,4.248,1.193C162.699,99.284,163.096,100.775,163.096,102.962z M159.965,102.611
			c0-1.31-0.173-2.208-0.518-2.693c-0.345-0.485-0.957-0.728-1.836-0.728c-0.863,0-1.463,0.236-1.8,0.71
			c-0.338,0.474-0.506,1.378-0.506,2.711v16.019c0,1.345,0.173,2.251,0.518,2.719c0.345,0.468,0.957,0.702,1.836,0.702
			c0.863,0,1.463-0.234,1.8-0.702c0.337-0.468,0.506-1.374,0.506-2.719V102.611z"/>
		<path fill="#A0C219" d="M175.735,97.681h5.202l3.366,23.827h0.235l3.295-23.827h5.061v25.879h-2.613V99.628h-0.471l-3.389,23.932
			h-4.189l-3.507-23.932h-0.4v23.932h-2.589L175.735,97.681L175.735,97.681z"/>
		<path fill="#A0C219" d="M198.283,97.681h8.285v2.053h-5.296v9.316h5.061v2.035h-5.061v10.422h5.437v2.053h-8.426V97.681z
			 M203.25,91.417h3.319l-3.083,3.913h-2.307L203.25,91.417z"/>
		<path fill="#A0C219" d="M211.017,97.681h3.507c2.965,0,4.903,0.348,5.813,1.044c0.91,0.696,1.365,2.29,1.365,4.781v14.229
			c0,2.48-0.463,4.07-1.389,4.772c-0.926,0.702-2.856,1.053-5.79,1.053h-3.507L211.017,97.681L211.017,97.681z M214.006,99.593
			v22.055h0.965c1.443,0,2.396-0.179,2.859-0.535c0.463-0.357,0.694-1.144,0.694-2.36v-16.212c0-1.228-0.235-2.026-0.706-2.395
			c-0.471-0.369-1.42-0.553-2.848-0.553H214.006z"/>
		<path fill="#A0C219" d="M226.975,97.681h3.178v25.879h-3.178V97.681z"/>
		<path fill="#A0C219" d="M245.38,101.787v2.474h-3.154v-2.404c0-1.006-0.145-1.702-0.436-2.088
			c-0.291-0.386-0.804-0.579-1.542-0.579c-0.675,0-1.146,0.219-1.412,0.658c-0.267,0.438-0.4,1.36-0.4,2.763v16.019
			c0,1.439,0.142,2.375,0.424,2.807c0.282,0.432,0.8,0.649,1.553,0.649c0.644,0,1.106-0.205,1.389-0.614
			c0.283-0.409,0.424-1.105,0.424-2.088v-2.79h3.154v2.878c0,1.766-0.369,2.962-1.106,3.588c-0.738,0.625-2.056,0.938-3.954,0.938
			c-1.868,0-3.17-0.403-3.907-1.21c-0.738-0.807-1.106-2.31-1.106-4.509v-15.317c0-2.187,0.369-3.678,1.106-4.474
			c0.737-0.795,2.04-1.193,3.907-1.193c1.914,0,3.236,0.311,3.966,0.93C245.016,98.845,245.38,100.032,245.38,101.787z"/>
		<path fill="#A0C219" d="M260.068,102.962v15.317c0,2.223-0.4,3.731-1.201,4.527c-0.801,0.796-2.228,1.193-4.284,1.193
			c-2.024,0-3.436-0.403-4.236-1.21c-0.8-0.807-1.201-2.31-1.201-4.509v-15.317c0-2.175,0.404-3.664,1.212-4.465
			s2.232-1.202,4.272-1.202s3.456,0.398,4.248,1.193C259.671,99.284,260.068,100.775,260.068,102.962z M256.938,102.611
			c0-1.31-0.173-2.208-0.518-2.693c-0.345-0.485-0.957-0.728-1.836-0.728c-0.863,0-1.463,0.236-1.8,0.71
			c-0.338,0.474-0.506,1.378-0.506,2.711v16.019c0,1.345,0.173,2.251,0.518,2.719c0.345,0.468,0.957,0.702,1.836,0.702
			c0.863,0,1.463-0.234,1.8-0.702c0.337-0.468,0.506-1.374,0.506-2.719V102.611z"/>
		<path fill="#A0C219" d="M271.107,113.033h5.837v2.509h-5.837V113.033z"/>
		<path fill="#A0C219" d="M288.125,97.681h4.096l4.966,24.335h0.047l-0.446-24.335h2.707v25.879h-4.144l-4.919-24.002h-0.094
			l0.422,24.002h-2.635V97.681L288.125,97.681z"/>
		<path fill="#A0C219" d="M315.639,102.962v15.317c0,2.223-0.399,3.731-1.201,4.527c-0.801,0.796-2.228,1.193-4.284,1.193
			c-2.023,0-3.436-0.403-4.236-1.21c-0.799-0.807-1.201-2.31-1.201-4.509v-15.317c0-2.175,0.404-3.664,1.213-4.465
			s2.232-1.202,4.271-1.202c2.041,0,3.457,0.398,4.248,1.193C315.244,99.284,315.639,100.775,315.639,102.962z M312.509,102.611
			c0-1.31-0.174-2.208-0.518-2.693c-0.346-0.485-0.957-0.728-1.837-0.728c-0.862,0-1.463,0.236-1.8,0.71
			c-0.338,0.474-0.506,1.378-0.506,2.711v16.019c0,1.345,0.173,2.251,0.518,2.719c0.346,0.468,0.957,0.702,1.836,0.702
			c0.863,0,1.463-0.234,1.801-0.702c0.336-0.468,0.506-1.374,0.506-2.719V102.611z"/>
		<path fill="#A0C219" d="M320.912,97.681h4.565c2.354,0,3.946,0.246,4.778,0.737s1.248,1.375,1.248,2.649v5.86
			c0,1.076-0.274,1.836-0.824,2.281c-0.549,0.445-1.521,0.713-2.918,0.807c1.49,0.07,2.525,0.328,3.107,0.772
			c0.579,0.445,0.87,1.216,0.87,2.316v10.457h-3.177v-9.667c0-1.216-0.232-2.006-0.693-2.369c-0.464-0.362-1.418-0.544-2.861-0.544
			H323.9v12.58h-2.988V97.681L320.912,97.681z M323.9,99.593v9.457h1.059c1.365,0,2.275-0.179,2.73-0.535
			c0.455-0.357,0.684-1.149,0.684-2.377v-3.597c0-1.239-0.229-2.041-0.684-2.403c-0.455-0.362-1.365-0.544-2.73-0.544L323.9,99.593
			L323.9,99.593z"/>
		<path fill="#A0C219" d="M336.962,97.681h5.203l3.365,23.827h0.235l3.295-23.827h5.062v25.879h-2.613V99.628h-0.471l-3.39,23.932
			h-4.188l-3.508-23.932h-0.399v23.932h-2.589V97.681H336.962z"/>
		<path fill="#A0C219" d="M362.455,97.681h4.377l5.014,25.879h-3.225l-1.201-7.193h-5.695l-1.295,7.193h-3.154L362.455,97.681z
			 M364.525,99.593l-2.52,14.878h5.014l-2.354-14.878H364.525z"/>
		<path fill="#A0C219" d="M375.022,97.681h2.989v23.827h5.39v2.053h-8.379V97.681L375.022,97.681z"/>
		<path fill="#A0C219" d="M386.296,97.681h3.179v25.879h-3.179V97.681z"/>
		<path fill="#A0C219" d="M392.981,97.681h9.345v2.263l-6.732,21.563h7.037v2.053h-9.979v-2.438l6.779-21.388h-6.449L392.981,97.681
			L392.981,97.681z"/>
		<path fill="#A0C219" d="M408.845,97.681h4.377l5.014,25.879h-3.225l-1.201-7.193h-5.695l-1.295,7.193h-3.154L408.845,97.681z
			 M410.917,99.593l-2.52,14.878h5.014l-2.355-14.878H410.917z"/>
		<path fill="#A0C219" d="M421.414,97.681h3.508c2.965,0,4.902,0.348,5.812,1.044c0.91,0.696,1.365,2.29,1.365,4.781v14.229
			c0,2.48-0.463,4.07-1.389,4.772c-0.926,0.702-2.857,1.053-5.791,1.053h-3.506V97.681L421.414,97.681z M424.404,99.593v22.055
			h0.965c1.441,0,2.395-0.179,2.857-0.535c0.465-0.357,0.695-1.144,0.695-2.36v-16.212c0-1.228-0.236-2.026-0.707-2.395
			s-1.42-0.553-2.848-0.553H424.404z"/>
		<path fill="#A0C219" d="M448.152,102.962v15.317c0,2.223-0.4,3.731-1.201,4.527c-0.801,0.796-2.229,1.193-4.283,1.193
			c-2.025,0-3.436-0.403-4.236-1.21s-1.201-2.31-1.201-4.509v-15.317c0-2.175,0.404-3.664,1.213-4.465
			c0.807-0.801,2.23-1.202,4.271-1.202c2.039,0,3.455,0.398,4.248,1.193C447.755,99.284,448.152,100.775,448.152,102.962z
			 M445.021,102.611c0-1.31-0.174-2.208-0.518-2.693c-0.346-0.485-0.957-0.728-1.836-0.728c-0.863,0-1.463,0.236-1.801,0.71
			s-0.506,1.378-0.506,2.711v16.019c0,1.345,0.174,2.251,0.518,2.719c0.346,0.468,0.957,0.702,1.836,0.702
			c0.863,0,1.463-0.234,1.801-0.702c0.336-0.468,0.506-1.374,0.506-2.719V102.611z"/>
		<path fill="#A0C219" d="M453.423,97.681h4.566c2.354,0,3.945,0.246,4.777,0.737s1.248,1.375,1.248,2.649v5.86
			c0,1.076-0.273,1.836-0.822,2.281c-0.551,0.445-1.523,0.713-2.918,0.807c1.488,0.07,2.525,0.328,3.105,0.772
			c0.58,0.445,0.871,1.216,0.871,2.316v10.457h-3.176v-9.667c0-1.216-0.232-2.006-0.695-2.369c-0.463-0.362-1.416-0.544-2.859-0.544
			h-1.105v12.58h-2.99V97.681H453.423z M456.414,99.593v9.457h1.059c1.365,0,2.275-0.179,2.73-0.535
			c0.455-0.357,0.682-1.149,0.682-2.377v-3.597c0-1.239-0.227-2.041-0.682-2.403c-0.455-0.362-1.365-0.544-2.73-0.544
			L456.414,99.593L456.414,99.593z"/>
	</g>
</g>
</svg>
