<?xml version="1.0" encoding="utf-8"?>
<!-- Generator: Adobe Illustrator 16.0.0, SVG Export Plug-In . SVG Version: 6.00 Build 0)  -->
<!DOCTYPE svg PUBLIC "-//W3C//DTD SVG 1.1//EN" "http://www.w3.org/Graphics/SVG/1.1/DTD/svg11.dtd">
<svg version="1.1" id="Capa_1" xmlns="http://www.w3.org/2000/svg" xmlns:xlink="http://www.w3.org/1999/xlink" x="0px" y="0px"
	 width="178.461px" height="57.789px" viewBox="0 123.049 178.461 57.789" enable-background="new 0 123.049 178.461 57.789"
	 xml:space="preserve">
<g>
	<polygon opacity="0.7" fill="#FFFFFF" enable-background="new    " points="0,127.017 178.461,123.049 178.461,180.838 
		22.82,180.812 	"/>
	<g>
		<g>
			<path fill="#331842" d="M94.155,150.675v1.424H92.34v-1.383c0-0.578-0.084-0.98-0.25-1.201c-0.168-0.224-0.463-0.334-0.889-0.334
				c-0.389,0-0.658,0.127-0.813,0.379c-0.154,0.254-0.23,0.783-0.23,1.59v9.222c0,0.828,0.082,1.366,0.244,1.616
				c0.163,0.248,0.46,0.373,0.895,0.373c0.369,0,0.637-0.117,0.799-0.354c0.162-0.234,0.244-0.636,0.244-1.201v-1.606h1.814v1.655
				c0,1.018-0.212,1.705-0.637,2.065c-0.424,0.36-1.184,0.54-2.275,0.54c-1.076,0-1.826-0.232-2.25-0.695
				c-0.425-0.466-0.637-1.33-0.637-2.597v-8.815c0-1.26,0.212-2.117,0.637-2.576c0.424-0.457,1.173-0.687,2.25-0.687
				c1.102,0,1.862,0.179,2.282,0.535S94.155,149.665,94.155,150.675z"/>
			<path fill="#331842" d="M96.404,148.312h1.829v14.896h-1.829V148.312z"/>
			<path fill="#331842" d="M101.282,148.312h4.633v1.183h-2.912v5.403h2.805v1.17h-2.805v7.141h-1.721V148.312z"/>
		</g>
	</g>
</g>
</svg>
