<?xml version="1.0" encoding="utf-8"?>
<!-- Generator: Adobe Illustrator 16.0.0, SVG Export Plug-In . SVG Version: 6.00 Build 0)  -->
<!DOCTYPE svg PUBLIC "-//W3C//DTD SVG 1.1//EN" "http://www.w3.org/Graphics/SVG/1.1/DTD/svg11.dtd">
<svg version="1.1" id="Capa_1" xmlns="http://www.w3.org/2000/svg" xmlns:xlink="http://www.w3.org/1999/xlink" x="0px" y="0px"
	 width="564.996px" height="271.378px" viewBox="0 0 564.996 271.378" enable-background="new 0 0 564.996 271.378"
	 xml:space="preserve">
<g>
	<g>
		<path fill="#F2961C" d="M9.555,7.851v1.87H7.171V7.904c0-0.761-0.11-1.287-0.329-1.579c-0.22-0.292-0.608-0.438-1.166-0.438
			c-0.51,0-0.866,0.166-1.068,0.498c-0.201,0.332-0.302,1.028-0.302,2.09v12.109c0,1.087,0.107,1.795,0.32,2.123
			c0.214,0.327,0.605,0.49,1.174,0.49c0.486,0,0.836-0.154,1.05-0.464s0.32-0.836,0.32-1.579v-2.109h2.384v2.175
			c0,1.335-0.279,2.24-0.836,2.712c-0.558,0.473-1.554,0.709-2.989,0.709c-1.412,0-2.396-0.305-2.954-0.915
			s-0.836-1.747-0.836-3.409V8.739c0-1.653,0.279-2.78,0.836-3.382c0.557-0.601,1.542-0.902,2.954-0.902
			c1.447,0,2.447,0.234,2.998,0.703C9.279,5.627,9.555,6.524,9.555,7.851z"/>
		<path fill="#F2961C" d="M20.657,8.739v11.579c0,1.68-0.302,2.82-0.907,3.422c-0.605,0.601-1.684,0.902-3.238,0.902
			c-1.53,0-2.598-0.305-3.203-0.915s-0.907-1.747-0.907-3.409V8.739c0-1.646,0.305-2.771,0.916-3.375
			c0.611-0.605,1.687-0.909,3.229-0.909s2.613,0.301,3.212,0.902C20.358,5.959,20.657,7.086,20.657,8.739z M18.291,8.475
			c0-0.99-0.131-1.669-0.391-2.036c-0.261-0.367-0.724-0.551-1.388-0.551c-0.653,0-1.106,0.18-1.361,0.538
			c-0.255,0.358-0.382,1.041-0.382,2.049v12.109c0,1.017,0.13,1.703,0.391,2.056c0.261,0.354,0.723,0.53,1.388,0.53
			c0.652,0,1.106-0.177,1.361-0.53c0.255-0.354,0.382-1.039,0.382-2.056V8.475z"/>
		<path fill="#F2961C" d="M24.643,4.747h3.932l2.544,18.012h0.178l2.491-18.012h3.825V24.31h-1.975V6.22h-0.356L32.72,24.311h-3.167
			L26.903,6.22H26.6v18.091h-1.957V4.747z"/>
		<path fill="#F2961C" d="M41.688,4.747h2.918c1.779,0,2.989,0.188,3.63,0.564c0.641,0.376,0.961,1.042,0.961,1.996v5.624
			c0,0.955-0.32,1.618-0.961,1.989c-0.64,0.372-1.85,0.558-3.63,0.558h-0.658v8.833h-2.26V4.747z M43.948,6.193v7.852h0.605
			c0.901,0,1.504-0.135,1.806-0.404c0.302-0.27,0.454-0.878,0.454-1.824V8.421c0-0.946-0.151-1.554-0.454-1.824
			c-0.302-0.27-0.905-0.404-1.806-0.404H43.948z"/>
		<path fill="#F2961C" d="M51.972,4.747h3.452c1.779,0,2.983,0.186,3.612,0.558c0.628,0.371,0.943,1.039,0.943,2.002v4.43
			c0,0.813-0.208,1.388-0.623,1.724s-1.151,0.54-2.206,0.61c1.127,0.053,1.909,0.248,2.348,0.584
			c0.439,0.336,0.658,0.919,0.658,1.75v7.905h-2.402v-7.308c0-0.919-0.175-1.516-0.525-1.791c-0.35-0.274-1.071-0.411-2.162-0.411
			h-0.836v9.51h-2.26L51.972,4.747L51.972,4.747z M54.232,6.193v7.148h0.801c1.032,0,1.72-0.135,2.064-0.404
			c0.344-0.27,0.516-0.869,0.516-1.797V8.421c0-0.937-0.172-1.543-0.516-1.817c-0.344-0.274-1.032-0.411-2.064-0.411H54.232z"/>
		<path fill="#F2961C" d="M64.107,4.747h6.263v1.552h-4.003v7.043h3.825v1.539h-3.825v7.878h4.11v1.552h-6.37V4.747z"/>
		<path fill="#F2961C" d="M73.732,4.747h3.096l3.754,18.396h0.036L80.28,4.747h2.046V24.31h-3.131L75.476,6.167h-0.071l0.32,18.144
			h-1.993V4.747z"/>
		<path fill="#F2961C" d="M93.233,7.851v1.87h-2.366V7.904c0-0.77-0.107-1.298-0.32-1.585c-0.213-0.288-0.593-0.432-1.139-0.432
			c-0.522,0-0.89,0.162-1.103,0.484c-0.214,0.323-0.32,0.896-0.32,1.718v0.955c0,0.397,0.074,0.807,0.222,1.227
			s0.365,0.815,0.649,1.187l2.954,3.886c0.498,0.654,0.86,1.271,1.085,1.85c0.225,0.58,0.338,1.178,0.338,1.797v1.326
			c0,1.698-0.288,2.843-0.863,3.435c-0.575,0.592-1.598,0.889-3.069,0.889c-1.435,0-2.435-0.239-2.998-0.716
			c-0.563-0.478-0.845-1.379-0.845-2.706v-2.175h2.384v2.109c0,0.796,0.107,1.335,0.32,1.618s0.605,0.424,1.174,0.424
			c0.581,0,0.981-0.161,1.201-0.484c0.219-0.323,0.329-1.032,0.329-2.129V19.23c0-0.504-0.062-0.961-0.187-1.373
			c-0.125-0.411-0.305-0.785-0.543-1.121l-3.131-4.165c-0.439-0.557-0.774-1.087-1.005-1.591s-0.347-0.942-0.347-1.313v-1.14
			c0-1.521,0.282-2.58,0.845-3.177s1.533-0.895,2.909-0.895c1.447,0,2.447,0.234,2.998,0.703
			C92.957,5.627,93.233,6.524,93.233,7.851z"/>
		<path fill="#F2961C" d="M96.4,4.747h2.402V24.31H96.4V4.747z"/>
		<path fill="#F2961C" d="M110.954,8.739v11.579c0,1.68-0.302,2.82-0.907,3.422c-0.605,0.601-1.684,0.902-3.238,0.902
			c-1.53,0-2.598-0.305-3.203-0.915s-0.907-1.747-0.907-3.409V8.739c0-1.646,0.305-2.771,0.916-3.375
			c0.611-0.605,1.687-0.909,3.229-0.909c1.542,0,2.613,0.301,3.212,0.902C110.655,5.959,110.954,7.086,110.954,8.739z
			 M108.588,8.475c0-0.99-0.131-1.669-0.391-2.036c-0.261-0.367-0.724-0.551-1.388-0.551c-0.653,0-1.106,0.18-1.361,0.538
			c-0.255,0.358-0.382,1.041-0.382,2.049v12.109c0,1.017,0.13,1.703,0.391,2.056c0.261,0.354,0.723,0.53,1.388,0.53
			c0.652,0,1.106-0.177,1.361-0.53c0.255-0.354,0.382-1.039,0.382-2.056V8.475z M107.396,0.013h2.509l-2.331,2.958h-1.744
			L107.396,0.013z"/>
		<path fill="#F2961C" d="M114.94,4.747h3.096l3.754,18.396h0.036l-0.338-18.396h2.046V24.31h-3.131l-3.719-18.144h-0.071
			l0.32,18.144h-1.993V4.747z"/>
		<path fill="#F2961C" d="M133.159,4.747h2.651c2.242,0,3.707,0.264,4.395,0.79c0.688,0.526,1.032,1.731,1.032,3.614v10.756
			c0,1.875-0.35,3.077-1.05,3.607c-0.7,0.53-2.159,0.796-4.377,0.796h-2.651V4.747z M135.419,6.193v16.671h0.729
			c1.091,0,1.812-0.134,2.162-0.404s0.525-0.864,0.525-1.784V8.421c0-0.928-0.178-1.532-0.534-1.811
			c-0.356-0.279-1.074-0.417-2.153-0.417H135.419z"/>
		<path fill="#F2961C" d="M145.223,4.747h6.263v1.552h-4.003v7.043h3.825v1.539h-3.825v7.878h4.11v1.552h-6.37V4.747z"/>
		<path fill="#F2961C" d="M160.417,4.747h2.26v18.012h4.074v1.552h-6.334V4.747z"/>
		<path fill="#F2961C" d="M171.84,4.747h3.309l3.79,19.563h-2.438l-0.907-5.438h-4.306l-0.979,5.438h-2.384L171.84,4.747z
			 M173.406,6.193l-1.904,11.247h3.79l-1.779-11.247H173.406z"/>
		<path fill="#F2961C" d="M186.91,4.747h2.651c2.242,0,3.707,0.264,4.395,0.79c0.688,0.526,1.032,1.731,1.032,3.614v10.756
			c0,1.875-0.35,3.077-1.05,3.607c-0.7,0.53-2.159,0.796-4.377,0.796h-2.651V4.747z M189.17,6.193v16.671h0.729
			c1.091,0,1.812-0.134,2.162-0.404s0.525-0.864,0.525-1.784V8.421c0-0.928-0.178-1.532-0.534-1.811
			c-0.356-0.279-1.074-0.417-2.153-0.417H189.17z"/>
		<path fill="#F2961C" d="M198.974,4.747h2.402V24.31h-2.402V4.747z"/>
		<path fill="#F2961C" d="M212.229,7.851v1.87h-2.366V7.904c0-0.77-0.107-1.298-0.32-1.585c-0.213-0.288-0.593-0.432-1.139-0.432
			c-0.522,0-0.89,0.162-1.103,0.484c-0.214,0.323-0.32,0.896-0.32,1.718v0.955c0,0.397,0.074,0.807,0.222,1.227
			s0.365,0.815,0.649,1.187l2.954,3.886c0.498,0.654,0.86,1.271,1.085,1.85c0.225,0.58,0.338,1.178,0.338,1.797v1.326
			c0,1.698-0.288,2.843-0.863,3.435c-0.575,0.592-1.598,0.889-3.069,0.889c-1.435,0-2.435-0.239-2.998-0.716
			c-0.563-0.478-0.845-1.379-0.845-2.706v-2.175h2.384v2.109c0,0.796,0.107,1.335,0.32,1.618c0.213,0.283,0.605,0.424,1.174,0.424
			c0.581,0,0.981-0.161,1.201-0.484c0.219-0.323,0.329-1.032,0.329-2.129V19.23c0-0.504-0.062-0.961-0.187-1.373
			c-0.125-0.411-0.305-0.785-0.543-1.121l-3.131-4.165c-0.439-0.557-0.774-1.087-1.005-1.591s-0.347-0.942-0.347-1.313v-1.14
			c0-1.521,0.282-2.58,0.845-3.177s1.533-0.895,2.909-0.895c1.447,0,2.447,0.234,2.998,0.703
			C211.953,5.627,212.229,6.524,212.229,7.851z"/>
		<path fill="#F2961C" d="M222.905,7.851v1.87h-2.384V7.904c0-0.761-0.11-1.287-0.329-1.579c-0.22-0.292-0.608-0.438-1.166-0.438
			c-0.51,0-0.866,0.166-1.068,0.498c-0.202,0.331-0.302,1.027-0.302,2.089v12.109c0,1.087,0.107,1.795,0.32,2.123
			c0.214,0.327,0.605,0.49,1.174,0.49c0.486,0,0.836-0.154,1.05-0.464c0.214-0.31,0.32-0.836,0.32-1.579v-2.109h2.384v2.175
			c0,1.335-0.279,2.24-0.836,2.712c-0.558,0.473-1.554,0.709-2.989,0.709c-1.412,0-2.396-0.305-2.954-0.915
			s-0.836-1.747-0.836-3.409V8.739c0-1.653,0.279-2.78,0.836-3.382c0.557-0.601,1.542-0.902,2.954-0.902
			c1.447,0,2.447,0.234,2.998,0.703C222.629,5.627,222.905,6.524,222.905,7.851z"/>
		<path fill="#F2961C" d="M228.083,4.747h3.309l3.79,19.563h-2.438l-0.907-5.438h-4.306l-0.979,5.438h-2.384L228.083,4.747z
			 M229.648,6.193l-1.904,11.247h3.79l-1.779-11.247H229.648z"/>
		<path fill="#F2961C" d="M237.583,4.747h2.918c1.779,0,2.989,0.188,3.63,0.564c0.641,0.376,0.961,1.042,0.961,1.996v5.624
			c0,0.955-0.32,1.618-0.961,1.989c-0.64,0.372-1.85,0.558-3.63,0.558h-0.658v8.833h-2.26V4.747z M239.843,6.193v7.852h0.605
			c0.901,0,1.504-0.135,1.806-0.404c0.302-0.27,0.454-0.878,0.454-1.824V8.421c0-0.946-0.151-1.554-0.454-1.824
			c-0.302-0.27-0.905-0.404-1.806-0.404H239.843z"/>
		<path fill="#F2961C" d="M249.291,4.747h3.309l3.79,19.563h-2.438l-0.907-5.438h-4.306l-0.979,5.438h-2.384L249.291,4.747z
			 M250.857,6.193l-1.904,11.247h3.79l-1.779-11.247H250.857z"/>
		<path fill="#F2961C" d="M266.301,7.851v1.87h-2.384V7.904c0-0.761-0.11-1.287-0.329-1.579c-0.22-0.292-0.608-0.438-1.166-0.438
			c-0.51,0-0.866,0.166-1.068,0.498c-0.202,0.331-0.302,1.027-0.302,2.089v12.109c0,1.087,0.107,1.795,0.32,2.123
			c0.214,0.327,0.605,0.49,1.174,0.49c0.486,0,0.836-0.154,1.05-0.464c0.214-0.31,0.32-0.836,0.32-1.579v-2.109h2.384v2.175
			c0,1.335-0.279,2.24-0.836,2.712c-0.558,0.473-1.554,0.709-2.989,0.709c-1.412,0-2.396-0.305-2.954-0.915
			s-0.836-1.747-0.836-3.409V8.739c0-1.653,0.279-2.78,0.836-3.382c0.557-0.601,1.542-0.902,2.954-0.902
			c1.447,0,2.447,0.234,2.998,0.703C266.025,5.627,266.301,6.524,266.301,7.851z"/>
		<path fill="#F2961C" d="M269.254,4.747h2.402V24.31h-2.402V4.747z"/>
		<path fill="#F2961C" d="M275.66,4.747h2.651c2.242,0,3.707,0.264,4.395,0.79c0.688,0.526,1.032,1.731,1.032,3.614v10.756
			c0,1.875-0.35,3.077-1.05,3.607c-0.7,0.53-2.159,0.796-4.377,0.796h-2.651V4.747z M277.919,6.193v16.671h0.729
			c1.091,0,1.812-0.134,2.162-0.404s0.525-0.864,0.525-1.784V8.421c0-0.928-0.178-1.532-0.534-1.811
			c-0.356-0.279-1.074-0.417-2.153-0.417H277.919z"/>
		<path fill="#F2961C" d="M289.947,4.747h3.309l3.791,19.563h-2.438l-0.907-5.438h-4.306l-0.979,5.438h-2.383L289.947,4.747z
			 M291.513,6.193l-1.904,11.247h3.79l-1.778-11.247H291.513z"/>
		<path fill="#F2961C" d="M299.449,4.747h2.65c2.242,0,3.707,0.264,4.395,0.79c0.688,0.526,1.032,1.731,1.032,3.614v10.756
			c0,1.875-0.351,3.077-1.05,3.607c-0.7,0.53-2.159,0.796-4.377,0.796h-2.65V4.747z M301.708,6.193v16.671h0.729
			c1.091,0,1.812-0.134,2.162-0.404s0.525-0.864,0.525-1.784V8.421c0-0.928-0.179-1.532-0.535-1.811
			c-0.355-0.279-1.073-0.417-2.152-0.417H301.708z"/>
		<path fill="#F2961C" d="M319.305,4.747h3.309l3.79,19.563h-2.438l-0.907-5.438h-4.306l-0.979,5.438h-2.384L319.305,4.747z
			 M320.871,6.193l-1.904,11.247h3.789l-1.778-11.247H320.871z"/>
		<path fill="#F2961C" d="M334.375,4.747h2.26v18.012h4.074v1.552h-6.334V4.747z"/>
		<path fill="#F2961C" d="M351.046,8.739v11.579c0,1.68-0.303,2.82-0.907,3.422c-0.604,0.601-1.685,0.902-3.238,0.902
			c-1.53,0-2.599-0.305-3.203-0.915s-0.907-1.747-0.907-3.409V8.739c0-1.646,0.305-2.771,0.916-3.375
			c0.611-0.605,1.688-0.909,3.229-0.909s2.612,0.301,3.212,0.902C350.748,5.959,351.046,7.086,351.046,8.739z M348.68,8.475
			c0-0.99-0.132-1.669-0.392-2.036c-0.261-0.367-0.724-0.551-1.388-0.551c-0.653,0-1.106,0.18-1.36,0.538
			c-0.256,0.358-0.383,1.041-0.383,2.049v12.109c0,1.017,0.131,1.703,0.391,2.056c0.262,0.354,0.724,0.53,1.389,0.53
			c0.652,0,1.105-0.177,1.361-0.53c0.255-0.354,0.382-1.039,0.382-2.056V8.475z"/>
		<path fill="#F2961C" d="M360.601,4.747h2.26v18.012h4.074v1.552h-6.334V4.747z"/>
		<path fill="#F2961C" d="M372.024,4.747h3.31l3.789,19.563h-2.438l-0.907-5.438h-4.306l-0.979,5.438h-2.385L372.024,4.747z
			 M373.589,6.193l-1.903,11.247h3.79l-1.779-11.247H373.589z"/>
		<path fill="#F2961C" d="M381.525,4.747h3.452c1.778,0,2.983,0.186,3.612,0.558c0.627,0.371,0.943,1.039,0.943,2.002v4.43
			c0,0.813-0.209,1.388-0.623,1.724c-0.416,0.336-1.152,0.54-2.207,0.61c1.127,0.053,1.909,0.248,2.348,0.584
			c0.439,0.336,0.658,0.919,0.658,1.75v7.905h-2.401v-7.308c0-0.919-0.175-1.516-0.524-1.791c-0.351-0.274-1.072-0.411-2.162-0.411
			h-0.836v9.51h-2.261L381.525,4.747L381.525,4.747z M383.785,6.193v7.148h0.801c1.033,0,1.721-0.135,2.064-0.404
			c0.344-0.27,0.516-0.869,0.516-1.797V8.421c0-0.937-0.172-1.543-0.516-1.817s-1.031-0.411-2.064-0.411H383.785z"/>
		<path fill="#F2961C" d="M401.968,8.739v1.008h-2.365V8.475c0-0.99-0.139-1.669-0.418-2.036c-0.279-0.367-0.762-0.551-1.449-0.551
			c-0.664,0-1.135,0.19-1.406,0.57c-0.273,0.381-0.41,1.053-0.41,2.017v12.083c0,1.035,0.15,1.733,0.447,2.095
			c0.299,0.363,0.828,0.544,1.592,0.544c0.225,0,0.477-0.015,0.75-0.046c0.275-0.031,0.572-0.077,0.895-0.139l0.018-6.87h-2.027
			v-1.446h4.377v9.284c-0.725,0.221-1.43,0.387-2.117,0.498c-0.688,0.11-1.383,0.166-2.082,0.166c-1.566,0-2.66-0.307-3.283-0.922
			c-0.623-0.614-0.934-1.749-0.934-3.402V8.739c0-1.646,0.308-2.771,0.925-3.375c0.617-0.605,1.714-0.909,3.292-0.909
			c1.566,0,2.656,0.298,3.273,0.895C401.66,5.948,401.968,7.077,401.968,8.739z"/>
		<path fill="#F2961C" d="M414.05,8.739v11.579c0,1.68-0.303,2.82-0.908,3.422c-0.604,0.601-1.684,0.902-3.236,0.902
			c-1.531,0-2.6-0.305-3.203-0.915c-0.605-0.61-0.908-1.747-0.908-3.409V8.739c0-1.646,0.305-2.771,0.916-3.375
			c0.611-0.605,1.688-0.909,3.229-0.909c1.543,0,2.613,0.301,3.213,0.902C413.75,5.959,414.05,7.086,414.05,8.739z M411.683,8.475
			c0-0.99-0.131-1.669-0.391-2.036c-0.262-0.367-0.725-0.551-1.389-0.551c-0.652,0-1.105,0.18-1.361,0.538
			c-0.254,0.358-0.381,1.041-0.381,2.049v12.109c0,1.017,0.129,1.703,0.391,2.056c0.262,0.354,0.723,0.53,1.389,0.53
			c0.65,0,1.105-0.177,1.359-0.53c0.256-0.354,0.383-1.039,0.383-2.056V8.475z"/>
		<path fill="#F2961C" d="M423.603,4.747h2.652c2.242,0,3.707,0.264,4.395,0.79c0.688,0.526,1.031,1.731,1.031,3.614v10.756
			c0,1.875-0.35,3.077-1.049,3.607c-0.701,0.53-2.16,0.796-4.377,0.796h-2.652V4.747z M425.865,6.193v16.671h0.729
			c1.09,0,1.812-0.134,2.162-0.404s0.525-0.864,0.525-1.784V8.421c0-0.928-0.18-1.532-0.535-1.811
			c-0.355-0.279-1.074-0.417-2.152-0.417H425.865z"/>
		<path fill="#F2961C" d="M435.667,4.747h6.262v1.552h-4.002v7.043h3.824v1.539h-3.824v7.878h4.109v1.552h-6.369V4.747z"/>
		<path fill="#F2961C" d="M450.863,4.747h2.26v18.012h4.074v1.552h-6.334V4.747z"/>
		<path fill="#F2961C" d="M462.285,4.747h3.309l3.791,19.563h-2.438l-0.908-5.438h-4.305l-0.98,5.438h-2.383L462.285,4.747z
			 M463.851,6.193l-1.904,11.247h3.791l-1.779-11.247H463.851z"/>
		<path fill="#F2961C" d="M477.355,4.747h2.26v8.78h3.719v-8.78h2.26V24.31h-2.26v-9.35h-3.719v9.351h-2.26V4.747z"/>
		<path fill="#F2961C" d="M489.667,4.747h2.402V24.31h-2.402V4.747z"/>
		<path fill="#F2961C" d="M502.923,7.851v1.87h-2.367V7.904c0-0.77-0.105-1.298-0.318-1.585c-0.213-0.288-0.594-0.432-1.141-0.432
			c-0.521,0-0.889,0.162-1.102,0.484c-0.215,0.323-0.32,0.896-0.32,1.718v0.955c0,0.397,0.074,0.807,0.221,1.227
			c0.148,0.42,0.365,0.815,0.65,1.187l2.953,3.886c0.498,0.654,0.861,1.271,1.086,1.85c0.225,0.58,0.338,1.178,0.338,1.797v1.326
			c0,1.698-0.289,2.843-0.863,3.435s-1.598,0.889-3.068,0.889c-1.436,0-2.436-0.239-2.998-0.716
			c-0.564-0.478-0.846-1.379-0.846-2.706v-2.175h2.385v2.109c0,0.796,0.105,1.335,0.318,1.618c0.215,0.283,0.605,0.424,1.176,0.424
			c0.58,0,0.98-0.161,1.199-0.484c0.221-0.323,0.33-1.032,0.33-2.129V19.23c0-0.504-0.062-0.961-0.188-1.373
			c-0.125-0.411-0.305-0.785-0.543-1.121l-3.131-4.165c-0.439-0.557-0.773-1.087-1.004-1.591c-0.232-0.504-0.348-0.942-0.348-1.313
			v-1.14c0-1.521,0.281-2.58,0.844-3.177c0.564-0.597,1.533-0.895,2.91-0.895c1.447,0,2.447,0.234,2.998,0.703
			C502.648,5.627,502.923,6.524,502.923,7.851z"/>
		<path fill="#F2961C" d="M504.365,4.747h7.705v1.552h-2.705v18.012h-2.295V6.299h-2.703V4.747H504.365z"/>
		<path fill="#F2961C" d="M522.583,8.739v11.579c0,1.68-0.301,2.82-0.906,3.422c-0.605,0.601-1.684,0.902-3.238,0.902
			c-1.529,0-2.598-0.305-3.203-0.915s-0.906-1.747-0.906-3.409V8.739c0-1.646,0.305-2.771,0.916-3.375
			c0.611-0.605,1.686-0.909,3.229-0.909c1.541,0,2.613,0.301,3.211,0.902C522.285,5.959,522.583,7.086,522.583,8.739z
			 M520.218,8.475c0-0.99-0.131-1.669-0.391-2.036c-0.262-0.367-0.725-0.551-1.389-0.551c-0.652,0-1.105,0.18-1.361,0.538
			c-0.254,0.358-0.381,1.041-0.381,2.049v12.109c0,1.017,0.129,1.703,0.391,2.056c0.26,0.354,0.723,0.53,1.387,0.53
			c0.652,0,1.107-0.177,1.361-0.53c0.256-0.354,0.383-1.039,0.383-2.056V8.475z"/>
		<path fill="#F2961C" d="M526.57,4.747h3.451c1.779,0,2.982,0.186,3.611,0.558c0.629,0.371,0.943,1.039,0.943,2.002v4.43
			c0,0.813-0.207,1.388-0.623,1.724c-0.414,0.336-1.15,0.54-2.205,0.61c1.127,0.053,1.908,0.248,2.348,0.584
			c0.439,0.336,0.658,0.919,0.658,1.75v7.905h-2.402v-7.308c0-0.919-0.176-1.516-0.525-1.791c-0.35-0.274-1.07-0.411-2.162-0.411
			h-0.836v9.51h-2.26V4.747H526.57z M528.83,6.193v7.148h0.801c1.031,0,1.719-0.135,2.064-0.404c0.344-0.27,0.516-0.869,0.516-1.797
			V8.421c0-0.937-0.172-1.543-0.516-1.817c-0.346-0.274-1.033-0.411-2.064-0.411H528.83z"/>
		<path fill="#F2961C" d="M538.705,4.747h2.4V24.31h-2.4V4.747z"/>
		<path fill="#F2961C" d="M547.333,4.747h3.309l3.789,19.563h-2.438l-0.906-5.438h-4.307l-0.979,5.438h-2.385L547.333,4.747z
			 M548.9,6.193l-1.904,11.247h3.789l-1.779-11.247H548.9z"/>
		<path fill="#F2961C" d="M557.404,10.676h2.545v2.122h-2.545V10.676z M557.404,22.162h2.545v2.148h-2.545V22.162z"/>
		<path fill="#F2961C" d="M2.046,31.91h3.932l2.544,18.012H8.7l2.491-18.012h3.825v19.563h-1.975v-18.09h-0.356l-2.562,18.091H6.957
			L4.306,33.383H4.004v18.091H2.046V31.91z"/>
		<path fill="#F2961C" d="M27.24,35.902v11.579c0,1.68-0.302,2.82-0.907,3.422c-0.605,0.601-1.684,0.901-3.238,0.901
			c-1.53,0-2.598-0.305-3.203-0.915c-0.605-0.61-0.907-1.746-0.907-3.408V35.902c0-1.645,0.305-2.77,0.916-3.375
			c0.611-0.606,1.687-0.909,3.229-0.909s2.613,0.301,3.212,0.902C26.941,33.122,27.24,34.249,27.24,35.902z M24.874,35.637
			c0-0.99-0.131-1.669-0.391-2.036c-0.261-0.367-0.724-0.551-1.388-0.551c-0.653,0-1.106,0.179-1.361,0.537
			s-0.382,1.041-0.382,2.049v12.109c0,1.018,0.13,1.703,0.391,2.056c0.261,0.354,0.723,0.531,1.388,0.531
			c0.652,0,1.106-0.177,1.361-0.531c0.255-0.354,0.382-1.039,0.382-2.056V35.637z"/>
		<path fill="#F2961C" d="M31.226,31.91h2.651c2.242,0,3.707,0.263,4.395,0.789c0.688,0.526,1.032,1.731,1.032,3.614V47.07
			c0,1.874-0.35,3.077-1.05,3.607c-0.7,0.53-2.159,0.796-4.377,0.796h-2.651V31.91z M33.486,33.356v16.671h0.729
			c1.091,0,1.812-0.134,2.162-0.404s0.525-0.864,0.525-1.784V35.584c0-0.928-0.178-1.532-0.534-1.811
			c-0.356-0.278-1.074-0.417-2.153-0.417H33.486z"/>
		<path fill="#F2961C" d="M43.29,31.91h6.263v1.552H45.55v7.043h3.825v1.538H45.55v7.879h4.11v1.552h-6.37V31.91z"/>
		<path fill="#F2961C" d="M52.915,31.91h2.26v18.012h4.074v1.552h-6.334V31.91z"/>
		<path fill="#F2961C" d="M69.587,35.902v11.579c0,1.68-0.302,2.82-0.907,3.422c-0.605,0.601-1.684,0.901-3.238,0.901
			c-1.53,0-2.598-0.305-3.203-0.915c-0.605-0.61-0.907-1.746-0.907-3.408V35.902c0-1.645,0.305-2.77,0.916-3.375
			c0.611-0.606,1.687-0.909,3.229-0.909s2.613,0.301,3.212,0.902C69.287,33.122,69.587,34.249,69.587,35.902z M67.22,35.637
			c0-0.99-0.131-1.669-0.391-2.036c-0.261-0.367-0.724-0.551-1.388-0.551c-0.653,0-1.106,0.179-1.361,0.537
			s-0.382,1.041-0.382,2.049v12.109c0,1.018,0.13,1.703,0.391,2.056c0.261,0.354,0.723,0.531,1.388,0.531
			c0.652,0,1.106-0.177,1.361-0.531c0.255-0.354,0.382-1.039,0.382-2.056V35.637z"/>
		<path fill="#F2961C" d="M80.422,35.014v1.87h-2.366v-1.817c0-0.769-0.107-1.297-0.32-1.585c-0.213-0.288-0.593-0.431-1.139-0.431
			c-0.522,0-0.89,0.162-1.103,0.484c-0.214,0.323-0.32,0.895-0.32,1.717v0.955c0,0.398,0.074,0.807,0.222,1.227
			s0.365,0.815,0.649,1.187l2.954,3.887c0.498,0.654,0.86,1.271,1.085,1.85c0.225,0.58,0.338,1.179,0.338,1.797v1.327
			c0,1.697-0.288,2.843-0.863,3.435c-0.575,0.593-1.598,0.889-3.069,0.889c-1.435,0-2.435-0.238-2.998-0.716
			s-0.845-1.379-0.845-2.706v-2.175h2.384v2.108c0,0.796,0.107,1.336,0.32,1.618c0.213,0.283,0.605,0.425,1.174,0.425
			c0.581,0,0.981-0.161,1.201-0.484c0.219-0.322,0.329-1.032,0.329-2.129v-1.353c0-0.504-0.062-0.961-0.187-1.373
			c-0.125-0.411-0.305-0.784-0.543-1.12l-3.131-4.165c-0.439-0.557-0.774-1.087-1.005-1.591s-0.347-0.942-0.347-1.313V35.69
			c0-1.521,0.282-2.58,0.845-3.177c0.563-0.597,1.533-0.896,2.909-0.896c1.447,0,2.447,0.234,2.998,0.703
			C80.145,32.789,80.422,33.688,80.422,35.014z"/>
		<path fill="#F2961C" d="M89.158,31.91h2.918c1.779,0,2.989,0.188,3.63,0.563c0.641,0.376,0.961,1.042,0.961,1.996v5.624
			c0,0.955-0.32,1.618-0.961,1.989c-0.64,0.371-1.85,0.557-3.63,0.557h-0.658v8.833h-2.26V31.91z M91.418,33.356v7.852h0.605
			c0.901,0,1.504-0.135,1.806-0.405c0.302-0.27,0.454-0.877,0.454-1.824v-3.396c0-0.946-0.151-1.554-0.454-1.823
			c-0.302-0.27-0.905-0.405-1.806-0.405L91.418,33.356L91.418,33.356z"/>
		<path fill="#F2961C" d="M100.866,31.91h3.309l3.79,19.563h-2.438l-0.907-5.438h-4.306l-0.979,5.438h-2.384L100.866,31.91z
			 M102.432,33.356l-1.904,11.247h3.79l-1.779-11.247H102.432z"/>
		<path fill="#F2961C" d="M110.367,31.91h3.452c1.779,0,2.983,0.186,3.612,0.557c0.628,0.372,0.943,1.039,0.943,2.002v4.43
			c0,0.814-0.208,1.388-0.623,1.724s-1.151,0.54-2.206,0.61c1.127,0.053,1.909,0.248,2.348,0.583
			c0.439,0.336,0.658,0.919,0.658,1.75v7.905h-2.402v-7.309c0-0.919-0.175-1.516-0.525-1.79s-1.071-0.411-2.162-0.411h-0.836v9.51
			h-2.26L110.367,31.91L110.367,31.91z M112.627,33.356v7.149h0.801c1.032,0,1.72-0.135,2.064-0.404
			c0.344-0.27,0.516-0.869,0.516-1.798v-2.719c0-0.937-0.172-1.543-0.516-1.817c-0.344-0.274-1.032-0.411-2.064-0.411H112.627z"/>
		<path fill="#F2961C" d="M124.726,31.91h3.309l3.79,19.563h-2.438l-0.907-5.438h-4.306l-0.979,5.438h-2.384L124.726,31.91z
			 M126.292,33.356l-1.904,11.247h3.79l-1.779-11.247H126.292z"/>
		<path fill="#F2961C" d="M147.304,35.014v1.87h-2.384v-1.817c0-0.76-0.11-1.287-0.329-1.579c-0.22-0.292-0.608-0.438-1.166-0.438
			c-0.51,0-0.866,0.166-1.068,0.498s-0.302,1.028-0.302,2.089v12.109c0,1.088,0.107,1.795,0.32,2.123
			c0.214,0.327,0.605,0.491,1.174,0.491c0.486,0,0.836-0.155,1.05-0.464c0.214-0.309,0.32-0.835,0.32-1.579v-2.108h2.384v2.175
			c0,1.335-0.279,2.24-0.836,2.713c-0.558,0.473-1.554,0.709-2.989,0.709c-1.412,0-2.396-0.305-2.954-0.915
			s-0.836-1.746-0.836-3.408V35.902c0-1.653,0.279-2.78,0.836-3.382s1.542-0.902,2.954-0.902c1.447,0,2.447,0.234,2.998,0.703
			C147.027,32.79,147.304,33.688,147.304,35.014z"/>
		<path fill="#F2961C" d="M158.407,35.902v11.579c0,1.68-0.302,2.82-0.907,3.422c-0.605,0.601-1.684,0.901-3.238,0.901
			c-1.53,0-2.598-0.305-3.203-0.915c-0.605-0.61-0.907-1.746-0.907-3.408V35.902c0-1.645,0.305-2.77,0.916-3.375
			c0.611-0.606,1.687-0.909,3.229-0.909s2.613,0.301,3.212,0.902C158.107,33.122,158.407,34.249,158.407,35.902z M156.041,35.637
			c0-0.99-0.131-1.669-0.391-2.036c-0.261-0.367-0.724-0.551-1.388-0.551c-0.653,0-1.106,0.179-1.361,0.537
			s-0.382,1.041-0.382,2.049v12.109c0,1.018,0.13,1.703,0.391,2.056c0.261,0.354,0.723,0.531,1.388,0.531
			c0.652,0,1.106-0.177,1.361-0.531c0.255-0.354,0.382-1.039,0.382-2.056V35.637z"/>
		<path fill="#F2961C" d="M162.393,31.91h3.932l2.544,18.012h0.178l2.491-18.012h3.825v19.563h-1.975v-18.09h-0.356l-2.562,18.091
			h-3.167l-2.651-18.091h-0.302v18.091h-1.957V31.91L162.393,31.91z"/>
		<path fill="#F2961C" d="M179.438,31.91h2.918c1.779,0,2.989,0.188,3.63,0.563c0.641,0.376,0.961,1.042,0.961,1.996v5.624
			c0,0.955-0.32,1.618-0.961,1.989c-0.64,0.371-1.85,0.557-3.63,0.557h-0.658v8.833h-2.26V31.91z M181.698,33.356v7.852h0.605
			c0.901,0,1.504-0.135,1.806-0.405c0.302-0.27,0.454-0.877,0.454-1.824v-3.396c0-0.946-0.151-1.554-0.454-1.823
			c-0.302-0.27-0.905-0.405-1.806-0.405L181.698,33.356L181.698,33.356z"/>
		<path fill="#F2961C" d="M189.722,31.91h3.452c1.779,0,2.983,0.186,3.612,0.557c0.628,0.372,0.943,1.039,0.943,2.002v4.43
			c0,0.814-0.208,1.388-0.623,1.724s-1.151,0.54-2.206,0.61c1.127,0.053,1.909,0.248,2.348,0.583
			c0.439,0.336,0.658,0.919,0.658,1.75v7.905h-2.402v-7.309c0-0.919-0.175-1.516-0.525-1.79s-1.071-0.411-2.162-0.411h-0.836v9.51
			h-2.26L189.722,31.91L189.722,31.91z M191.981,33.356v7.149h0.801c1.032,0,1.72-0.135,2.064-0.404
			c0.344-0.27,0.516-0.869,0.516-1.798v-2.719c0-0.937-0.172-1.543-0.516-1.817c-0.344-0.274-1.032-0.411-2.064-0.411H191.981z"/>
		<path fill="#F2961C" d="M201.856,31.91h6.263v1.552h-4.003v7.043h3.825v1.538h-3.825v7.879h4.11v1.552h-6.37V31.91z"/>
		<path fill="#F2961C" d="M211.482,31.91h3.096l3.754,18.396h0.036L218.03,31.91h2.046v19.563h-3.131l-3.719-18.145h-0.071
			l0.32,18.145h-1.993V31.91L211.482,31.91z"/>
		<path fill="#F2961C" d="M224.133,31.91h2.651c2.242,0,3.707,0.263,4.395,0.789c0.688,0.526,1.032,1.731,1.032,3.614V47.07
			c0,1.874-0.35,3.077-1.05,3.607c-0.7,0.53-2.159,0.796-4.377,0.796h-2.651V31.91z M226.392,33.356v16.671h0.729
			c1.091,0,1.812-0.134,2.162-0.404c0.35-0.27,0.525-0.864,0.525-1.784V35.584c0-0.928-0.178-1.532-0.534-1.811
			c-0.356-0.278-1.074-0.417-2.153-0.417H226.392z"/>
		<path fill="#F2961C" d="M236.196,31.91h6.263v1.552h-4.003v7.043h3.825v1.538h-3.825v7.879h4.11v1.552h-6.37V31.91z"/>
		<path fill="#F2961C" d="M245.822,31.91h3.452c1.779,0,2.983,0.186,3.612,0.557c0.628,0.372,0.943,1.039,0.943,2.002v4.43
			c0,0.814-0.208,1.388-0.623,1.724s-1.151,0.54-2.206,0.61c1.127,0.053,1.909,0.248,2.348,0.583
			c0.439,0.336,0.658,0.919,0.658,1.75v7.905h-2.402v-7.309c0-0.919-0.175-1.516-0.525-1.79s-1.071-0.411-2.162-0.411h-0.836v9.51
			h-2.26L245.822,31.91L245.822,31.91z M248.081,33.356v7.149h0.801c1.032,0,1.72-0.135,2.064-0.404
			c0.344-0.27,0.516-0.869,0.516-1.798v-2.719c0-0.937-0.172-1.543-0.516-1.817c-0.344-0.274-1.032-0.411-2.064-0.411H248.081z"/>
		<path fill="#F2961C" d="M270.375,35.014v1.87h-2.366v-1.817c0-0.769-0.107-1.297-0.32-1.585s-0.593-0.431-1.139-0.431
			c-0.522,0-0.89,0.162-1.103,0.484c-0.214,0.323-0.32,0.895-0.32,1.717v0.955c0,0.398,0.074,0.807,0.222,1.227
			s0.365,0.815,0.649,1.187l2.954,3.887c0.498,0.654,0.86,1.271,1.085,1.85c0.225,0.58,0.338,1.179,0.338,1.797v1.327
			c0,1.697-0.288,2.843-0.863,3.435c-0.575,0.593-1.598,0.889-3.069,0.889c-1.435,0-2.435-0.238-2.998-0.716
			s-0.845-1.379-0.845-2.706v-2.175h2.384v2.108c0,0.796,0.107,1.336,0.32,1.618c0.213,0.283,0.605,0.425,1.174,0.425
			c0.581,0,0.981-0.161,1.201-0.484c0.219-0.322,0.329-1.032,0.329-2.129v-1.353c0-0.504-0.062-0.961-0.187-1.373
			c-0.125-0.411-0.305-0.784-0.543-1.12l-3.131-4.165c-0.439-0.557-0.774-1.087-1.005-1.591s-0.347-0.942-0.347-1.313V35.69
			c0-1.521,0.282-2.58,0.845-3.177c0.563-0.597,1.533-0.896,2.909-0.896c1.447,0,2.447,0.234,2.998,0.703
			C270.098,32.789,270.375,33.688,270.375,35.014z"/>
		<path fill="#F2961C" d="M273.436,31.91h2.366v15.836c0,1.018,0.13,1.703,0.391,2.056c0.261,0.354,0.723,0.531,1.388,0.531
			c0.652,0,1.106-0.177,1.361-0.531c0.255-0.354,0.382-1.039,0.382-2.056V31.91h2.366v15.571c0,1.68-0.302,2.82-0.907,3.422
			c-0.605,0.601-1.684,0.901-3.238,0.901c-1.53,0-2.598-0.305-3.203-0.915c-0.605-0.61-0.907-1.746-0.907-3.408L273.436,31.91
			L273.436,31.91z"/>
		<path fill="#F2961C" d="M291.246,31.91h6.264v1.552h-4.004v7.043h3.826v1.538h-3.826v7.879h4.111v1.552h-6.371V31.91z"/>
		<path fill="#F2961C" d="M299.376,31.91h2.295l2.438,17.613h0.249l2.295-17.613h2.153l-2.847,19.563h-3.523L299.376,31.91z"/>
		<path fill="#F2961C" d="M319.554,35.902v11.579c0,1.68-0.303,2.82-0.907,3.422c-0.604,0.601-1.685,0.901-3.237,0.901
			c-1.531,0-2.599-0.305-3.203-0.915c-0.605-0.61-0.908-1.746-0.908-3.408V35.902c0-1.645,0.306-2.77,0.916-3.375
			c0.611-0.606,1.688-0.909,3.229-0.909s2.613,0.301,3.212,0.902C319.253,33.122,319.554,34.249,319.554,35.902z M317.187,35.637
			c0-0.99-0.131-1.669-0.391-2.036c-0.262-0.367-0.725-0.551-1.389-0.551c-0.652,0-1.105,0.179-1.361,0.537
			c-0.254,0.358-0.381,1.041-0.381,2.049v12.109c0,1.018,0.129,1.703,0.391,2.056c0.261,0.354,0.723,0.531,1.388,0.531
			c0.652,0,1.106-0.177,1.361-0.531c0.255-0.354,0.382-1.039,0.382-2.056V35.637z"/>
		<path fill="#F2961C" d="M323.539,31.91h2.26v18.012h4.074v1.552h-6.334V31.91z"/>
		<path fill="#F2961C" d="M331.955,31.91h2.366v15.836c0,1.018,0.13,1.703,0.392,2.056c0.261,0.354,0.723,0.531,1.388,0.531
			c0.651,0,1.106-0.177,1.36-0.531c0.256-0.354,0.383-1.039,0.383-2.056V31.91h2.365v15.571c0,1.68-0.302,2.82-0.906,3.422
			c-0.605,0.601-1.684,0.901-3.238,0.901c-1.529,0-2.598-0.305-3.203-0.915c-0.605-0.61-0.906-1.746-0.906-3.408V31.91
			L331.955,31.91z"/>
		<path fill="#F2961C" d="M351.705,35.014v1.87h-2.384v-1.817c0-0.76-0.11-1.287-0.329-1.579c-0.22-0.292-0.607-0.438-1.166-0.438
			c-0.51,0-0.865,0.166-1.068,0.498c-0.201,0.332-0.301,1.028-0.301,2.089v12.109c0,1.088,0.106,1.795,0.319,2.123
			c0.214,0.327,0.604,0.491,1.175,0.491c0.485,0,0.836-0.155,1.049-0.464c0.215-0.309,0.32-0.835,0.32-1.579v-2.108h2.385v2.175
			c0,1.335-0.279,2.24-0.836,2.713c-0.559,0.473-1.555,0.709-2.99,0.709c-1.412,0-2.396-0.305-2.953-0.915
			c-0.559-0.61-0.836-1.746-0.836-3.408V35.902c0-1.653,0.279-2.78,0.836-3.382s1.541-0.902,2.953-0.902
			c1.447,0,2.447,0.234,2.998,0.703C351.427,32.79,351.705,33.688,351.705,35.014z"/>
		<path fill="#F2961C" d="M354.658,31.91h2.402v19.563h-2.402V31.91z"/>
		<path fill="#F2961C" d="M369.212,35.902v11.579c0,1.68-0.303,2.82-0.907,3.422c-0.604,0.601-1.685,0.901-3.238,0.901
			c-1.53,0-2.599-0.305-3.203-0.915c-0.604-0.61-0.907-1.746-0.907-3.408V35.902c0-1.645,0.305-2.77,0.916-3.375
			c0.611-0.606,1.688-0.909,3.229-0.909s2.612,0.301,3.212,0.902C368.914,33.122,369.212,34.249,369.212,35.902z M366.846,35.637
			c0-0.99-0.132-1.669-0.392-2.036c-0.261-0.367-0.724-0.551-1.388-0.551c-0.653,0-1.106,0.179-1.36,0.537
			c-0.256,0.358-0.383,1.041-0.383,2.049v12.109c0,1.018,0.131,1.703,0.391,2.056c0.262,0.354,0.724,0.531,1.389,0.531
			c0.652,0,1.105-0.177,1.361-0.531c0.255-0.354,0.382-1.039,0.382-2.056V35.637z M365.654,27.175h2.51l-2.332,2.958h-1.744
			L365.654,27.175z"/>
		<path fill="#F2961C" d="M373.199,31.91h3.096l3.754,18.396h0.035l-0.338-18.396h2.047v19.563h-3.131l-3.72-18.145h-0.071
			l0.32,18.145h-1.993L373.199,31.91L373.199,31.91z"/>
	</g>
	<polygon fill="#F2961C" points="0,213.123 12.129,271.378 170.699,262.774 180.42,213.123 	"/>
	<g>
		<g>
			<path fill="#331842" d="M45.662,222.916h4.746v1.176h-3.033v5.336h2.898v1.166h-2.898v5.97h3.114v1.176h-4.826L45.662,222.916
				L45.662,222.916z"/>
			<path fill="#331842" d="M52.956,222.916h1.712v13.646h3.087v1.176h-4.8L52.956,222.916L52.956,222.916z"/>
			<path fill="#331842" d="M63.634,222.916h2.979l1.928,13.646h0.135l1.887-13.646h2.898v14.822h-1.496V224.03h-0.27l-1.941,13.708
				h-2.4l-2.009-13.708h-0.229v13.708h-1.483L63.634,222.916L63.634,222.916z"/>
			<path fill="#331842" d="M82.724,225.939v8.773c0,1.273-0.229,2.138-0.688,2.594c-0.458,0.456-1.276,0.684-2.454,0.684
				c-1.159,0-1.968-0.232-2.427-0.693c-0.458-0.463-0.688-1.323-0.688-2.584v-8.773c0-1.246,0.231-2.1,0.694-2.559
				c0.463-0.459,1.279-0.688,2.447-0.688s1.979,0.229,2.434,0.684C82.497,223.833,82.724,224.687,82.724,225.939z M80.931,225.74
				c0-0.75-0.099-1.266-0.297-1.543c-0.198-0.277-0.548-0.417-1.052-0.417c-0.494,0-0.838,0.136-1.031,0.407
				c-0.193,0.271-0.29,0.789-0.29,1.553v9.176c0,0.771,0.099,1.289,0.297,1.558c0.198,0.269,0.548,0.401,1.052,0.401
				c0.494,0,0.838-0.133,1.031-0.401s0.29-0.787,0.29-1.558V225.74z"/>
			<path fill="#331842" d="M85.744,222.916h2.009c1.699,0,2.809,0.199,3.33,0.598s0.782,1.312,0.782,2.738v8.149
				c0,1.421-0.265,2.332-0.795,2.733c-0.53,0.402-1.636,0.604-3.316,0.604h-2.009L85.744,222.916L85.744,222.916z M87.456,224.009
				v12.634h0.553c0.827,0,1.373-0.103,1.638-0.306c0.265-0.205,0.398-0.655,0.398-1.353v-9.286c0-0.703-0.135-1.16-0.404-1.371
				c-0.27-0.211-0.814-0.318-1.631-0.318H87.456z"/>
			<path fill="#331842" d="M94.885,222.916h4.746v1.176h-3.033v5.336h2.898v1.166h-2.898v5.97h3.114v1.176h-4.826v-14.823H94.885z"
				/>
			<path fill="#331842" d="M102.178,222.916h1.712v13.646h3.087v1.176h-4.8v-14.822H102.178z"/>
			<path fill="#331842" d="M114.811,225.939v8.773c0,1.273-0.229,2.138-0.688,2.594c-0.458,0.456-1.276,0.684-2.454,0.684
				c-1.159,0-1.968-0.232-2.427-0.693c-0.458-0.463-0.688-1.323-0.688-2.584v-8.773c0-1.246,0.231-2.1,0.694-2.559
				s1.279-0.688,2.447-0.688s1.979,0.229,2.434,0.684C114.584,223.833,114.811,224.687,114.811,225.939z M113.018,225.74
				c0-0.75-0.099-1.266-0.297-1.543c-0.198-0.277-0.548-0.417-1.052-0.417c-0.494,0-0.838,0.136-1.031,0.407
				c-0.193,0.271-0.29,0.789-0.29,1.553v9.176c0,0.771,0.099,1.289,0.297,1.558c0.198,0.269,0.548,0.401,1.052,0.401
				c0.494,0,0.838-0.133,1.031-0.401s0.29-0.787,0.29-1.558V225.74z"/>
			<path fill="#331842" d="M122.051,222.916h2.009c1.699,0,2.809,0.199,3.33,0.598s0.782,1.312,0.782,2.738v8.149
				c0,1.421-0.265,2.332-0.795,2.733c-0.53,0.402-1.636,0.604-3.316,0.604h-2.009v-14.822H122.051z M123.763,224.009v12.634h0.553
				c0.827,0,1.373-0.103,1.638-0.306c0.265-0.205,0.398-0.655,0.398-1.353v-9.286c0-0.703-0.135-1.16-0.404-1.371
				c-0.27-0.211-0.814-0.318-1.631-0.318H123.763z"/>
			<path fill="#331842" d="M131.191,222.916h4.746v1.176h-3.033v5.336h2.898v1.166h-2.898v5.97h3.114v1.176h-4.826L131.191,222.916
				L131.191,222.916z"/>
			<path fill="#331842" d="M28.965,241.783h1.712v13.647h3.087v1.176h-4.8L28.965,241.783L28.965,241.783z"/>
			<path fill="#331842" d="M37.62,241.783h2.508L43,256.605h-1.847l-0.688-4.121h-3.263l-0.741,4.121h-1.807L37.62,241.783z
				 M38.807,242.876l-1.443,8.522h2.872l-1.348-8.522H38.807z"/>
			<path fill="#331842" d="M49.04,241.783h2.211c1.348,0,2.265,0.141,2.75,0.426s0.728,0.789,0.728,1.513v4.261
				c0,0.725-0.243,1.227-0.728,1.508s-1.402,0.422-2.75,0.422h-0.499v6.693H49.04V241.783z M50.752,242.876v5.951h0.458
				c0.683,0,1.139-0.103,1.368-0.308s0.344-0.665,0.344-1.382v-2.573c0-0.717-0.115-1.178-0.344-1.382s-0.685-0.307-1.368-0.307
				H50.752L50.752,242.876z"/>
			<path fill="#331842" d="M56.832,241.783h2.615c1.348,0,2.26,0.141,2.737,0.422c0.476,0.281,0.714,0.787,0.714,1.518v3.357
				c0,0.615-0.157,1.051-0.472,1.307c-0.315,0.254-0.872,0.408-1.672,0.462c0.854,0.04,1.447,0.188,1.78,0.442
				s0.499,0.696,0.499,1.326v5.989h-1.82v-5.538c0-0.695-0.133-1.148-0.398-1.355c-0.265-0.209-0.811-0.312-1.638-0.312h-0.634
				v7.206h-1.712L56.832,241.783L56.832,241.783z M58.544,242.876v5.418h0.607c0.782,0,1.303-0.103,1.564-0.308
				c0.261-0.204,0.391-0.657,0.391-1.36v-2.062c0-0.71-0.13-1.169-0.391-1.377c-0.261-0.208-0.782-0.312-1.564-0.312H58.544
				L58.544,242.876z"/>
			<path fill="#331842" d="M66.027,241.783h4.746v1.176H67.74v5.336h2.898v1.166H67.74v5.97h3.114v1.176h-4.826L66.027,241.783
				L66.027,241.783z"/>
			<path fill="#331842" d="M78.511,244.132v1.418h-1.793v-1.377c0-0.582-0.081-0.982-0.243-1.2s-0.449-0.327-0.863-0.327
				c-0.396,0-0.674,0.123-0.836,0.367s-0.243,0.679-0.243,1.302v0.724c0,0.301,0.056,0.611,0.168,0.93
				c0.112,0.318,0.276,0.617,0.492,0.9l2.238,2.943c0.377,0.496,0.652,0.963,0.823,1.402c0.171,0.438,0.256,0.893,0.256,1.361v1.006
				c0,1.287-0.218,2.153-0.654,2.603c-0.436,0.448-1.211,0.673-2.326,0.673c-1.088,0-1.845-0.182-2.272-0.543
				c-0.427-0.361-0.64-1.045-0.64-2.05v-1.647h1.807v1.598c0,0.603,0.081,1.012,0.243,1.226c0.162,0.215,0.458,0.321,0.89,0.321
				c0.44,0,0.744-0.122,0.91-0.366c0.166-0.245,0.249-0.782,0.249-1.612v-1.025c0-0.383-0.047-0.729-0.141-1.041
				c-0.094-0.311-0.232-0.594-0.411-0.848l-2.373-3.156c-0.333-0.422-0.586-0.824-0.762-1.207c-0.176-0.381-0.263-0.713-0.263-0.994
				v-0.865c0-1.152,0.213-1.954,0.64-2.406c0.427-0.453,1.162-0.679,2.204-0.679c1.096,0,1.854,0.179,2.272,0.533
				S78.511,243.128,78.511,244.132z"/>
			<path fill="#331842" d="M86.6,244.132v1.418h-1.807v-1.377c0-0.575-0.083-0.975-0.249-1.195
				c-0.167-0.221-0.461-0.332-0.883-0.332c-0.386,0-0.656,0.125-0.809,0.376s-0.229,0.778-0.229,1.583v9.176
				c0,0.824,0.081,1.36,0.243,1.608c0.162,0.248,0.458,0.372,0.89,0.372c0.369,0,0.634-0.117,0.795-0.352
				c0.162-0.234,0.243-0.634,0.243-1.197v-1.598H86.6v1.648c0,1.012-0.211,1.697-0.634,2.055c-0.423,0.357-1.177,0.538-2.265,0.538
				c-1.07,0-1.815-0.231-2.238-0.692c-0.423-0.463-0.634-1.324-0.634-2.584v-8.772c0-1.253,0.211-2.106,0.634-2.562
				c0.422-0.457,1.168-0.685,2.238-0.685c1.097,0,1.854,0.178,2.272,0.532C86.391,242.449,86.6,243.128,86.6,244.132z"/>
			<path fill="#331842" d="M88.838,241.783h1.82v14.823h-1.82V241.783z"/>
			<path fill="#331842" d="M93.692,241.783h2.346l2.845,13.938h0.027l-0.256-13.938h1.551v14.823h-2.373l-2.818-13.749H94.96
				l0.243,13.749h-1.51L93.692,241.783L93.692,241.783z"/>
			<path fill="#331842" d="M103.277,241.783h2.009c1.699,0,2.809,0.198,3.33,0.598c0.521,0.397,0.782,1.312,0.782,2.738v8.149
				c0,1.421-0.265,2.332-0.795,2.733s-1.636,0.604-3.316,0.604h-2.009L103.277,241.783L103.277,241.783z M104.99,242.876v12.633
				h0.553c0.827,0,1.373-0.102,1.638-0.307c0.265-0.203,0.398-0.654,0.398-1.352v-9.286c0-0.703-0.135-1.161-0.404-1.372
				c-0.27-0.211-0.814-0.316-1.631-0.316H104.99z"/>
			<path fill="#331842" d="M112.418,241.783h4.746v1.176h-3.033v5.336h2.898v1.166h-2.898v5.97h3.114v1.176h-4.826L112.418,241.783
				L112.418,241.783z"/>
			<path fill="#331842" d="M119.712,241.783h2.346l2.845,13.938h0.027l-0.256-13.938h1.551v14.823h-2.373l-2.818-13.749h-0.054
				l0.243,13.749h-1.51L119.712,241.783L119.712,241.783z"/>
			<path fill="#331842" d="M134.987,244.132v1.418h-1.807v-1.377c0-0.575-0.083-0.975-0.249-1.195
				c-0.167-0.221-0.461-0.332-0.883-0.332c-0.386,0-0.656,0.125-0.809,0.376c-0.153,0.251-0.229,0.778-0.229,1.583v9.176
				c0,0.824,0.081,1.36,0.243,1.608s0.458,0.372,0.89,0.372c0.369,0,0.634-0.117,0.795-0.352c0.162-0.234,0.243-0.634,0.243-1.197
				v-1.598h1.807v1.648c0,1.012-0.211,1.697-0.634,2.055s-1.177,0.538-2.265,0.538c-1.07,0-1.815-0.231-2.238-0.692
				c-0.423-0.463-0.634-1.324-0.634-2.584v-8.772c0-1.253,0.211-2.106,0.634-2.562c0.422-0.457,1.168-0.685,2.238-0.685
				c1.097,0,1.854,0.178,2.272,0.532C134.778,242.449,134.987,243.128,134.987,244.132z"/>
			<path fill="#331842" d="M137.225,241.783h1.82v14.823h-1.82V241.783z"/>
			<path fill="#331842" d="M143.763,241.783h2.508l2.872,14.823h-1.847l-0.688-4.121h-3.263l-0.741,4.121h-1.807L143.763,241.783z
				 M144.95,242.876l-1.443,8.522h2.872l-1.348-8.522H144.95z"/>
		</g>
	</g>
	<polygon fill="#F2961C" points="191.243,213.123 203.372,271.378 361.942,262.774 371.662,213.123 	"/>
	<g>
		<g>
			<path fill="#331842" d="M219.46,222.916h4.746v1.176h-3.033v5.336h2.898v1.166h-2.898v5.97h3.114v1.176h-4.826L219.46,222.916
				L219.46,222.916z"/>
			<path fill="#331842" d="M226.753,222.916h1.712v13.646h3.087v1.176h-4.8L226.753,222.916L226.753,222.916z"/>
			<path fill="#331842" d="M237.431,222.916h2.979l1.928,13.646h0.135l1.887-13.646h2.898v14.822h-1.496V224.03h-0.27l-1.941,13.708
				h-2.4l-2.009-13.708h-0.229v13.708h-1.483L237.431,222.916L237.431,222.916z"/>
			<path fill="#331842" d="M256.521,225.939v8.773c0,1.273-0.229,2.138-0.688,2.594c-0.458,0.456-1.276,0.684-2.454,0.684
				c-1.159,0-1.968-0.232-2.427-0.693c-0.458-0.463-0.688-1.323-0.688-2.584v-8.773c0-1.246,0.231-2.1,0.694-2.559
				s1.279-0.688,2.447-0.688c1.168,0,1.979,0.229,2.434,0.684C256.294,223.833,256.521,224.687,256.521,225.939z M254.729,225.74
				c0-0.75-0.099-1.266-0.297-1.543c-0.198-0.277-0.548-0.417-1.052-0.417c-0.494,0-0.838,0.136-1.031,0.407s-0.29,0.789-0.29,1.553
				v9.176c0,0.771,0.099,1.289,0.297,1.558c0.198,0.269,0.548,0.401,1.052,0.401c0.494,0,0.838-0.133,1.031-0.401
				s0.29-0.787,0.29-1.558V225.74z"/>
			<path fill="#331842" d="M259.542,222.916h2.009c1.699,0,2.809,0.199,3.33,0.598s0.782,1.312,0.782,2.738v8.149
				c0,1.421-0.265,2.332-0.795,2.733c-0.53,0.402-1.636,0.604-3.316,0.604h-2.009L259.542,222.916L259.542,222.916z
				 M261.254,224.009v12.634h0.553c0.827,0,1.373-0.103,1.638-0.306c0.265-0.205,0.398-0.655,0.398-1.353v-9.286
				c0-0.703-0.135-1.16-0.404-1.371c-0.27-0.211-0.814-0.318-1.631-0.318H261.254z"/>
			<path fill="#331842" d="M268.682,222.916h4.746v1.176h-3.033v5.336h2.898v1.166h-2.898v5.97h3.114v1.176h-4.826L268.682,222.916
				L268.682,222.916z"/>
			<path fill="#331842" d="M275.976,222.916h1.712v13.646h3.087v1.176h-4.8L275.976,222.916L275.976,222.916z"/>
			<path fill="#331842" d="M288.608,225.939v8.773c0,1.273-0.229,2.138-0.688,2.594c-0.457,0.456-1.275,0.684-2.453,0.684
				c-1.159,0-1.969-0.232-2.428-0.693c-0.458-0.463-0.688-1.323-0.688-2.584v-8.773c0-1.246,0.231-2.1,0.693-2.559
				c0.463-0.459,1.279-0.688,2.447-0.688s1.979,0.229,2.434,0.684C288.38,223.833,288.608,224.687,288.608,225.939z M286.815,225.74
				c0-0.75-0.099-1.266-0.297-1.543s-0.548-0.417-1.052-0.417c-0.494,0-0.838,0.136-1.031,0.407s-0.29,0.789-0.29,1.553v9.176
				c0,0.771,0.099,1.289,0.297,1.558s0.548,0.401,1.052,0.401c0.494,0,0.838-0.133,1.031-0.401s0.29-0.787,0.29-1.558V225.74z"/>
			<path fill="#331842" d="M295.848,222.916h2.979l1.928,13.646h0.135l1.887-13.646h2.898v14.822h-1.496V224.03h-0.27l-1.941,13.708
				h-2.4l-2.009-13.708h-0.229v13.708h-1.482L295.848,222.916L295.848,222.916z"/>
			<path fill="#331842" d="M308.764,222.916h4.745v1.176h-3.032v5.336h2.897v1.166h-2.897v5.97h3.114v1.176h-4.826L308.764,222.916
				L308.764,222.916z M311.609,219.328h1.9l-1.766,2.24h-1.32L311.609,219.328z"/>
			<path fill="#331842" d="M316.058,222.916h2.009c1.699,0,2.81,0.199,3.33,0.598s0.782,1.312,0.782,2.738v8.149
				c0,1.421-0.266,2.332-0.795,2.733c-0.53,0.402-1.637,0.604-3.316,0.604h-2.009L316.058,222.916L316.058,222.916z M317.77,224.009
				v12.634h0.554c0.826,0,1.372-0.103,1.637-0.306c0.266-0.205,0.398-0.655,0.398-1.353v-9.286c0-0.703-0.135-1.16-0.404-1.371
				s-0.813-0.318-1.631-0.318H317.77z"/>
			<path fill="#331842" d="M325.199,222.916h1.819v14.822h-1.819V222.916z"/>
			<path fill="#331842" d="M335.742,225.267v1.417h-1.808v-1.377c0-0.576-0.083-0.976-0.249-1.196
				c-0.167-0.221-0.461-0.33-0.883-0.33c-0.387,0-0.656,0.125-0.809,0.375c-0.154,0.252-0.229,0.779-0.229,1.584v9.174
				c0,0.824,0.081,1.36,0.243,1.608s0.457,0.372,0.89,0.372c0.369,0,0.634-0.117,0.795-0.352c0.162-0.234,0.243-0.633,0.243-1.195
				v-1.598h1.807v1.647c0,1.013-0.211,1.696-0.634,2.056c-0.423,0.358-1.177,0.537-2.265,0.537c-1.07,0-1.815-0.23-2.238-0.693
				c-0.423-0.461-0.634-1.322-0.634-2.582v-8.774c0-1.252,0.211-2.106,0.634-2.562c0.422-0.457,1.168-0.685,2.238-0.685
				c1.097,0,1.854,0.179,2.271,0.533S335.742,224.262,335.742,225.267z"/>
			<path fill="#331842" d="M344.154,225.939v8.773c0,1.273-0.229,2.138-0.688,2.594s-1.276,0.684-2.454,0.684
				c-1.159,0-1.968-0.232-2.427-0.693c-0.459-0.463-0.688-1.323-0.688-2.584v-8.773c0-1.246,0.231-2.1,0.694-2.559
				s1.279-0.688,2.447-0.688s1.979,0.229,2.434,0.684C343.927,223.833,344.154,224.687,344.154,225.939z M342.361,225.74
				c0-0.75-0.099-1.266-0.297-1.543c-0.197-0.277-0.548-0.417-1.052-0.417c-0.494,0-0.839,0.136-1.031,0.407s-0.29,0.789-0.29,1.553
				v9.176c0,0.771,0.1,1.289,0.297,1.558c0.198,0.269,0.549,0.401,1.053,0.401c0.494,0,0.838-0.133,1.03-0.401
				c0.193-0.269,0.29-0.787,0.29-1.558V225.74z"/>
			<path fill="#331842" d="M219.52,250.576h3.344v1.438h-3.344V250.576z"/>
			<path fill="#331842" d="M229.268,241.783h2.346l2.845,13.938h0.027l-0.256-13.938h1.551v14.823h-2.373l-2.818-13.749h-0.054
				l0.243,13.749h-1.51L229.268,241.783L229.268,241.783z"/>
			<path fill="#331842" d="M245.028,244.807v8.772c0,1.273-0.229,2.139-0.688,2.594c-0.458,0.455-1.276,0.684-2.454,0.684
				c-1.159,0-1.968-0.23-2.427-0.693c-0.458-0.461-0.688-1.322-0.688-2.582v-8.773c0-1.246,0.231-2.1,0.694-2.559
				c0.463-0.459,1.279-0.688,2.447-0.688s1.979,0.229,2.434,0.684C244.801,242.701,245.028,243.554,245.028,244.807z
				 M243.235,244.605c0-0.75-0.099-1.266-0.297-1.542c-0.198-0.278-0.548-0.417-1.052-0.417c-0.494,0-0.838,0.135-1.031,0.406
				s-0.29,0.789-0.29,1.554v9.177c0,0.77,0.099,1.289,0.297,1.557c0.198,0.269,0.548,0.402,1.052,0.402
				c0.494,0,0.838-0.134,1.031-0.402c0.193-0.268,0.29-0.787,0.29-1.557V244.605z"/>
			<path fill="#331842" d="M248.048,241.783h2.615c1.348,0,2.26,0.141,2.737,0.422c0.476,0.281,0.714,0.787,0.714,1.518v3.357
				c0,0.615-0.157,1.051-0.472,1.307c-0.315,0.254-0.872,0.408-1.672,0.462c0.854,0.04,1.447,0.188,1.78,0.442
				s0.499,0.696,0.499,1.326v5.989h-1.82v-5.538c0-0.695-0.133-1.148-0.398-1.355c-0.265-0.209-0.811-0.312-1.638-0.312h-0.634
				v7.206h-1.712L248.048,241.783L248.048,241.783z M249.76,242.876v5.418h0.607c0.782,0,1.303-0.103,1.564-0.308
				c0.261-0.204,0.391-0.657,0.391-1.36v-2.062c0-0.71-0.13-1.169-0.391-1.377c-0.261-0.208-0.782-0.312-1.564-0.312H249.76
				L249.76,242.876z"/>
			<path fill="#331842" d="M257.243,241.783h2.979l1.928,13.647h0.135l1.887-13.647h2.898v14.823h-1.496v-13.708h-0.27
				l-1.941,13.708h-2.4l-2.009-13.708h-0.229v13.708h-1.483L257.243,241.783L257.243,241.783z"/>
			<path fill="#331842" d="M271.844,241.783h2.508l2.872,14.823h-1.847l-0.688-4.121h-3.263l-0.741,4.121h-1.807L271.844,241.783z
				 M273.03,242.876l-1.443,8.522h2.872l-1.348-8.522H273.03z"/>
			<path fill="#331842" d="M279.043,241.783h1.712v13.647h3.086v1.176h-4.799L279.043,241.783L279.043,241.783z"/>
			<path fill="#331842" d="M285.501,241.783h1.819v14.823h-1.819V241.783z"/>
			<path fill="#331842" d="M289.33,241.783h5.353v1.295l-3.856,12.353h4.031v1.176h-5.716v-1.397l3.883-12.25h-3.694V241.783z"/>
			<path fill="#331842" d="M298.417,241.783h2.508l2.871,14.823h-1.846l-0.688-4.121H298l-0.742,4.121h-1.807L298.417,241.783z
				 M299.603,242.876l-1.443,8.522h2.873l-1.349-8.522H299.603z"/>
			<path fill="#331842" d="M305.617,241.783h2.008c1.699,0,2.81,0.198,3.33,0.598c0.521,0.397,0.782,1.312,0.782,2.738v8.149
				c0,1.421-0.265,2.332-0.795,2.733s-1.636,0.604-3.315,0.604h-2.01V241.783L305.617,241.783z M307.328,242.876v12.633h0.553
				c0.828,0,1.373-0.102,1.639-0.307c0.266-0.203,0.398-0.654,0.398-1.352v-9.286c0-0.703-0.135-1.161-0.404-1.372
				s-0.814-0.316-1.631-0.316H307.328z"/>
			<path fill="#331842" d="M320.931,244.807v8.772c0,1.273-0.229,2.139-0.688,2.594s-1.277,0.684-2.455,0.684
				c-1.158,0-1.968-0.23-2.427-0.693c-0.458-0.461-0.688-1.322-0.688-2.582v-8.773c0-1.246,0.231-2.1,0.695-2.559
				c0.463-0.459,1.278-0.688,2.446-0.688s1.979,0.229,2.435,0.684S320.931,243.554,320.931,244.807z M319.138,244.605
				c0-0.75-0.1-1.266-0.297-1.542c-0.198-0.278-0.549-0.417-1.053-0.417c-0.494,0-0.838,0.135-1.031,0.406
				c-0.192,0.271-0.289,0.789-0.289,1.554v9.177c0,0.77,0.099,1.289,0.297,1.557c0.197,0.269,0.548,0.402,1.052,0.402
				c0.494,0,0.838-0.134,1.031-0.402c0.192-0.268,0.29-0.787,0.29-1.557V244.605z"/>
			<path fill="#331842" d="M323.953,241.783h2.614c1.349,0,2.261,0.141,2.737,0.422c0.476,0.281,0.714,0.787,0.714,1.518v3.357
				c0,0.615-0.157,1.051-0.472,1.307c-0.315,0.254-0.873,0.408-1.672,0.462c0.854,0.04,1.446,0.188,1.779,0.442
				s0.499,0.696,0.499,1.326v5.989h-1.819v-5.538c0-0.695-0.133-1.148-0.398-1.355c-0.266-0.209-0.811-0.312-1.639-0.312h-0.633
				v7.206h-1.713v-14.823H323.953z M325.664,242.876v5.418h0.607c0.782,0,1.303-0.103,1.564-0.308
				c0.261-0.204,0.391-0.657,0.391-1.36v-2.062c0-0.71-0.13-1.169-0.391-1.377c-0.262-0.208-0.783-0.312-1.564-0.312H325.664
				L325.664,242.876z"/>
			<path fill="#331842" d="M336.449,250.576h3.344v1.438h-3.344V250.576z"/>
		</g>
	</g>
	<polygon fill="#F2961C" points="380.685,213.123 392.814,271.378 551.384,262.774 561.105,213.123 	"/>
	<g>
		<g>
			<path fill="#331842" d="M436.675,222.916h4.746v1.176h-3.033v5.336h2.898v1.166h-2.898v5.97h3.113v1.176h-4.826V222.916
				L436.675,222.916z"/>
			<path fill="#331842" d="M443.968,222.916h1.713v13.646h3.086v1.176h-4.799V222.916L443.968,222.916z"/>
			<path fill="#331842" d="M454.646,222.916h2.979l1.928,13.646h0.137l1.887-13.646h2.896v14.822h-1.496V224.03h-0.27l-1.941,13.708
				h-2.398l-2.01-13.708h-0.229v13.708h-1.484v-14.822H454.646z"/>
			<path fill="#331842" d="M473.738,225.939v8.773c0,1.273-0.23,2.138-0.689,2.594c-0.457,0.456-1.275,0.684-2.453,0.684
				c-1.16,0-1.969-0.232-2.428-0.693c-0.457-0.463-0.688-1.323-0.688-2.584v-8.773c0-1.246,0.23-2.1,0.693-2.559
				s1.279-0.688,2.447-0.688s1.979,0.229,2.434,0.684C473.509,223.833,473.738,224.687,473.738,225.939z M471.945,225.74
				c0-0.75-0.1-1.266-0.297-1.543c-0.199-0.277-0.549-0.417-1.053-0.417c-0.494,0-0.838,0.136-1.031,0.407s-0.289,0.789-0.289,1.553
				v9.176c0,0.771,0.098,1.289,0.297,1.558c0.197,0.269,0.547,0.401,1.051,0.401c0.494,0,0.838-0.133,1.031-0.401
				s0.291-0.787,0.291-1.558V225.74z"/>
			<path fill="#331842" d="M476.757,222.916h2.008c1.699,0,2.811,0.199,3.33,0.598c0.521,0.398,0.783,1.312,0.783,2.738v8.149
				c0,1.421-0.266,2.332-0.795,2.733c-0.531,0.402-1.637,0.604-3.316,0.604h-2.01V222.916L476.757,222.916z M478.468,224.009v12.634
				h0.555c0.826,0,1.371-0.103,1.637-0.306c0.266-0.205,0.398-0.655,0.398-1.353v-9.286c0-0.703-0.135-1.16-0.404-1.371
				s-0.814-0.318-1.631-0.318H478.468z"/>
			<path fill="#331842" d="M485.898,222.916h4.744v1.176h-3.031v5.336h2.896v1.166h-2.896v5.97h3.113v1.176h-4.826V222.916
				L485.898,222.916z"/>
			<path fill="#331842" d="M493.191,222.916h1.713v13.646h3.086v1.176h-4.799V222.916L493.191,222.916z"/>
			<path fill="#331842" d="M505.824,225.939v8.773c0,1.273-0.23,2.138-0.689,2.594c-0.457,0.456-1.275,0.684-2.453,0.684
				c-1.158,0-1.969-0.232-2.428-0.693c-0.457-0.463-0.688-1.323-0.688-2.584v-8.773c0-1.246,0.23-2.1,0.693-2.559
				s1.279-0.688,2.447-0.688s1.979,0.229,2.434,0.684C505.595,223.833,505.824,224.687,505.824,225.939z M504.031,225.74
				c0-0.75-0.1-1.266-0.297-1.543s-0.549-0.417-1.053-0.417c-0.492,0-0.838,0.136-1.029,0.407c-0.193,0.271-0.291,0.789-0.291,1.553
				v9.176c0,0.771,0.1,1.289,0.297,1.558c0.199,0.269,0.549,0.401,1.053,0.401c0.494,0,0.838-0.133,1.031-0.401
				c0.191-0.269,0.289-0.787,0.289-1.558V225.74z"/>
			<path fill="#331842" d="M455.496,244.132v1.418h-1.793v-1.377c0-0.582-0.08-0.982-0.242-1.2s-0.449-0.327-0.863-0.327
				c-0.396,0-0.674,0.123-0.836,0.367s-0.244,0.679-0.244,1.302v0.724c0,0.301,0.057,0.611,0.168,0.93
				c0.113,0.318,0.277,0.617,0.492,0.9l2.238,2.943c0.377,0.496,0.652,0.963,0.824,1.402c0.17,0.438,0.256,0.893,0.256,1.361v1.006
				c0,1.287-0.219,2.153-0.654,2.603c-0.436,0.448-1.211,0.673-2.326,0.673c-1.088,0-1.846-0.182-2.271-0.543
				c-0.428-0.361-0.641-1.045-0.641-2.05v-1.647h1.807v1.598c0,0.603,0.082,1.012,0.244,1.226c0.162,0.215,0.457,0.321,0.889,0.321
				c0.441,0,0.744-0.122,0.91-0.366c0.166-0.245,0.25-0.782,0.25-1.612v-1.025c0-0.383-0.047-0.729-0.143-1.041
				c-0.094-0.311-0.23-0.594-0.41-0.848l-2.373-3.156c-0.332-0.422-0.586-0.824-0.762-1.207c-0.176-0.381-0.264-0.713-0.264-0.994
				v-0.865c0-1.152,0.213-1.954,0.641-2.406c0.428-0.453,1.162-0.679,2.203-0.679c1.098,0,1.855,0.179,2.273,0.533
				S455.496,243.128,455.496,244.132z"/>
			<path fill="#331842" d="M464.07,244.807v8.772c0,1.273-0.229,2.139-0.688,2.594s-1.275,0.684-2.455,0.684
				c-1.158,0-1.967-0.23-2.426-0.693c-0.459-0.461-0.688-1.322-0.688-2.582v-8.773c0-1.246,0.23-2.1,0.693-2.559
				s1.279-0.688,2.447-0.688s1.979,0.229,2.434,0.684S464.07,243.554,464.07,244.807z M462.277,244.605
				c0-0.75-0.1-1.266-0.297-1.542c-0.197-0.278-0.549-0.417-1.053-0.417c-0.494,0-0.838,0.135-1.029,0.406
				c-0.193,0.271-0.291,0.789-0.291,1.554v9.177c0,0.77,0.1,1.289,0.297,1.557c0.197,0.269,0.549,0.402,1.053,0.402
				c0.494,0,0.838-0.134,1.031-0.402c0.191-0.268,0.289-0.787,0.289-1.557V244.605z"/>
			<path fill="#331842" d="M472.779,244.132v1.418h-1.807v-1.377c0-0.575-0.084-0.975-0.25-1.195s-0.461-0.332-0.883-0.332
				c-0.385,0-0.656,0.125-0.809,0.376s-0.229,0.778-0.229,1.583v9.176c0,0.824,0.08,1.36,0.242,1.608s0.459,0.372,0.891,0.372
				c0.369,0,0.635-0.117,0.795-0.352c0.162-0.234,0.242-0.634,0.242-1.197v-1.598h1.809v1.648c0,1.012-0.211,1.697-0.635,2.055
				s-1.178,0.538-2.266,0.538c-1.07,0-1.814-0.231-2.238-0.692c-0.422-0.463-0.633-1.324-0.633-2.584v-8.772
				c0-1.253,0.211-2.106,0.633-2.562c0.424-0.457,1.168-0.685,2.238-0.685c1.098,0,1.855,0.178,2.273,0.532
				C472.57,242.449,472.779,243.128,472.779,244.132z"/>
			<path fill="#331842" d="M475.017,241.783h1.82v14.823h-1.82V241.783z"/>
			<path fill="#331842" d="M481.556,241.783h2.508l2.871,14.823h-1.846l-0.688-4.121h-3.264l-0.74,4.121h-1.809L481.556,241.783z
				 M482.744,242.876l-1.443,8.522h2.871l-1.348-8.522H482.744z"/>
			<path fill="#331842" d="M488.755,241.783h1.713v13.647h3.086v1.176h-4.799V241.783L488.755,241.783z"/>
		</g>
	</g>
</g>
</svg>
