<?xml version="1.0" encoding="utf-8"?>
<!-- Generator: Adobe Illustrator 16.0.0, SVG Export Plug-In . SVG Version: 6.00 Build 0)  -->
<!DOCTYPE svg PUBLIC "-//W3C//DTD SVG 1.1//EN" "http://www.w3.org/Graphics/SVG/1.1/DTD/svg11.dtd">
<svg version="1.1" id="Capa_1" xmlns="http://www.w3.org/2000/svg" xmlns:xlink="http://www.w3.org/1999/xlink" x="0px" y="0px"
	 width="527.316px" height="328.894px" viewBox="0 0 527.316 328.894" enable-background="new 0 0 527.316 328.894"
	 xml:space="preserve">
<g>
	<g>
		<path fill="#2C5A67" d="M0,0l4.824,328.894l485.494-2.455L517,40.764c-2.938,1.358-6.244,2.037-9.703,1.839
			c-11.23-0.643-19.822-10.275-19.178-21.514c0.174-3.051,1.014-5.914,2.367-8.438L0,0z"/>
		<path fill="#2C5A67" d="M509.037,12.248c-5.527-0.316-10.266,3.907-10.582,9.435c-0.316,5.526,3.908,10.262,9.438,10.579
			c5.525,0.316,10.262-3.909,10.576-9.434C518.787,17.3,514.564,12.564,509.037,12.248z M513.103,26.277
			c0.287,0.324,0.26,0.819-0.062,1.109c-0.326,0.287-0.818,0.26-1.107-0.063l-3.529-3.958l-3.961,3.531
			c-0.324,0.288-0.82,0.26-1.109-0.063c-0.283-0.325-0.254-0.82,0.064-1.109l3.957-3.531l-3.529-3.96
			c-0.289-0.325-0.254-0.817,0.072-1.109c0.314-0.279,0.811-0.259,1.1,0.064l3.531,3.959l3.959-3.53
			c0.322-0.28,0.816-0.251,1.107,0.062c0.287,0.326,0.26,0.819-0.062,1.111l-3.959,3.531L513.103,26.277z"/>
		<g>
			<path fill="#2C5A67" d="M489.64,21.177c0.594-10.378,9.52-18.338,19.898-17.746c10.379,0.593,18.338,9.521,17.746,19.899
				c-0.594,10.378-9.521,18.339-19.898,17.747C497.007,40.482,489.046,31.556,489.64,21.177z M495.458,21.51
				c-0.41,7.17,5.09,13.336,12.26,13.746c7.17,0.41,13.336-5.088,13.746-12.259c0.412-7.17-5.088-13.337-12.258-13.747
				C502.037,8.841,495.869,14.34,495.458,21.51z"/>
		</g>
	</g>
	<g>
		<path fill="#A0C219" d="M45.174,69.943h9.223v2.285h-5.895V82.6h5.633v2.266h-5.633v11.602h6.052v2.285h-9.38V69.943z"/>
		<path fill="#A0C219" d="M59.349,69.943h3.328v26.523h6v2.285h-9.328V69.943z"/>
		<path fill="#A0C219" d="M80.101,69.943h5.79l3.747,26.523H89.9l3.668-26.523h5.634v28.809h-2.908V72.111H95.77l-3.773,26.641
			h-4.664l-3.904-26.641h-0.445v26.641h-2.882L80.101,69.943L80.101,69.943z"/>
		<path fill="#A0C219" d="M117.201,75.822v17.051c0,2.474-0.445,4.154-1.336,5.039c-0.891,0.885-2.48,1.328-4.769,1.328
			c-2.254,0-3.826-0.449-4.717-1.348c-0.891-0.898-1.336-2.571-1.336-5.02v-17.05c0-2.422,0.449-4.079,1.35-4.971
			c0.899-0.892,2.484-1.338,4.755-1.338s3.848,0.443,4.729,1.328C116.76,71.728,117.201,73.388,117.201,75.822z M113.717,75.432
			c0-1.458-0.192-2.458-0.577-2.998c-0.384-0.54-1.066-0.811-2.043-0.811c-0.961,0-1.629,0.264-2.005,0.791
			s-0.563,1.533-0.563,3.018v17.832c0,1.498,0.192,2.507,0.577,3.027c0.384,0.521,1.065,0.781,2.043,0.781
			c0.961,0,1.629-0.26,2.005-0.781c0.375-0.521,0.563-1.53,0.563-3.027V75.432z"/>
		<path fill="#A0C219" d="M123.07,69.943h3.904c3.301,0,5.458,0.388,6.472,1.162c1.013,0.775,1.52,2.549,1.52,5.322v15.84
			c0,2.761-0.516,4.531-1.546,5.312c-1.031,0.781-3.18,1.172-6.446,1.172h-3.904V69.943z M126.397,72.072v24.551h1.075
			c1.607,0,2.668-0.198,3.183-0.596c0.515-0.397,0.773-1.272,0.773-2.627V75.354c0-1.367-0.262-2.256-0.786-2.666
			s-1.581-0.615-3.17-0.615L126.397,72.072L126.397,72.072z"/>
		<path fill="#A0C219" d="M140.835,69.943h9.223v2.285h-5.896V82.6h5.633v2.266h-5.633v11.602h6.053v2.285h-9.38V69.943z"/>
		<path fill="#A0C219" d="M155.01,69.943h3.327v26.523h6v2.285h-9.327V69.943z"/>
		<path fill="#A0C219" d="M179.56,75.822v17.051c0,2.474-0.445,4.154-1.336,5.039c-0.891,0.885-2.48,1.328-4.769,1.328
			c-2.253,0-3.825-0.449-4.716-1.348c-0.891-0.899-1.336-2.571-1.336-5.02v-17.05c0-2.422,0.45-4.079,1.35-4.971
			c0.899-0.892,2.484-1.338,4.755-1.338s3.847,0.443,4.729,1.328C179.119,71.728,179.56,73.388,179.56,75.822z M176.075,75.432
			c0-1.458-0.192-2.458-0.576-2.998c-0.385-0.54-1.066-0.811-2.044-0.811c-0.961,0-1.629,0.264-2.004,0.791
			c-0.376,0.527-0.563,1.533-0.563,3.018v17.832c0,1.498,0.192,2.507,0.577,3.027c0.384,0.521,1.065,0.781,2.043,0.781
			c0.96,0,1.628-0.26,2.004-0.781c0.375-0.521,0.563-1.53,0.563-3.027V75.432L176.075,75.432z"/>
		<path fill="#A0C219" d="M193.63,69.943h3.904c3.301,0,5.458,0.388,6.472,1.162c1.013,0.775,1.52,2.549,1.52,5.322v15.84
			c0,2.761-0.516,4.531-1.546,5.312c-1.031,0.781-3.18,1.172-6.446,1.172h-3.904V69.943z M196.957,72.072v24.551h1.075
			c1.607,0,2.668-0.198,3.183-0.596c0.515-0.397,0.773-1.272,0.773-2.627V75.354c0-1.367-0.262-2.256-0.786-2.666
			s-1.581-0.615-3.17-0.615L196.957,72.072L196.957,72.072z"/>
		<path fill="#A0C219" d="M211.395,69.943h9.223v2.285h-5.896V82.6h5.633v2.266h-5.633v11.602h6.053v2.285h-9.38V69.943z"/>
		<path fill="#A0C219" d="M233.77,69.943h3.328v26.523h6v2.285h-9.328V69.943z"/>
		<path fill="#A0C219" d="M250.591,69.943h4.874l5.581,28.809h-3.589l-1.337-8.008h-6.34l-1.441,8.008h-3.511L250.591,69.943z
			 M252.896,72.072l-2.803,16.562h5.581l-2.62-16.562H252.896z"/>
		<path fill="#A0C219" d="M272.783,69.943h4.297c2.621,0,4.402,0.277,5.346,0.83c0.943,0.554,1.416,1.533,1.416,2.939v8.281
			c0,1.406-0.473,2.383-1.416,2.93c-0.942,0.547-2.725,0.82-5.346,0.82h-0.969v13.008h-3.328V69.943z M276.111,72.072v11.562h0.891
			c1.328,0,2.215-0.198,2.66-0.596c0.444-0.397,0.668-1.292,0.668-2.686v-5c0-1.393-0.224-2.288-0.668-2.686
			c-0.445-0.397-1.332-0.596-2.66-0.596h-0.891V72.072z"/>
		<path fill="#A0C219" d="M287.928,69.943h5.083c2.619,0,4.393,0.273,5.318,0.82c0.926,0.547,1.39,1.53,1.39,2.949v6.523
			c0,1.198-0.306,2.044-0.917,2.539c-0.612,0.495-1.695,0.794-3.249,0.898c1.659,0.078,2.812,0.365,3.458,0.859
			c0.646,0.495,0.97,1.354,0.97,2.578V98.75h-3.537V87.99c0-1.354-0.258-2.233-0.772-2.637c-0.516-0.403-1.576-0.605-3.184-0.605
			h-1.232v14.004h-3.326L287.928,69.943L287.928,69.943z M291.255,72.072V82.6h1.18c1.52,0,2.531-0.198,3.039-0.596
			c0.506-0.397,0.76-1.279,0.76-2.646v-4.004c0-1.38-0.253-2.272-0.76-2.676c-0.508-0.403-1.52-0.604-3.039-0.604L291.255,72.072
			L291.255,72.072z"/>
		<path fill="#A0C219" d="M305.796,69.943h9.224v2.285h-5.896V82.6h5.633v2.266h-5.633v11.602h6.053v2.285h-9.381V69.943z"/>
		<path fill="#A0C219" d="M330.059,74.514v2.754h-3.485v-2.676c0-1.133-0.156-1.911-0.472-2.334
			c-0.313-0.423-0.874-0.635-1.677-0.635c-0.77,0-1.311,0.238-1.625,0.713c-0.314,0.476-0.471,1.318-0.471,2.529v1.406
			c0,0.586,0.107,1.188,0.326,1.807s0.537,1.201,0.956,1.748l4.351,5.723c0.732,0.964,1.267,1.872,1.599,2.725
			c0.331,0.853,0.498,1.735,0.498,2.646v1.953c0,2.5-0.425,4.187-1.271,5.059c-0.848,0.872-2.354,1.309-4.521,1.309
			c-2.113,0-3.585-0.352-4.415-1.055s-1.244-2.031-1.244-3.984v-3.203h3.512v3.105c0,1.172,0.156,1.966,0.471,2.383
			s0.892,0.625,1.729,0.625c0.854,0,1.445-0.237,1.769-0.713c0.324-0.475,0.484-1.52,0.484-3.135v-1.992
			c0-0.742-0.092-1.416-0.275-2.021s-0.449-1.155-0.799-1.65l-4.61-6.133c-0.646-0.82-1.14-1.602-1.479-2.344
			c-0.341-0.742-0.512-1.387-0.512-1.934v-1.68c0-2.239,0.415-3.799,1.244-4.678c0.83-0.879,2.258-1.318,4.283-1.318
			c2.132,0,3.604,0.345,4.416,1.035C329.653,71.239,330.059,72.561,330.059,74.514z"/>
		<path fill="#A0C219" d="M345.78,74.514v2.754h-3.511v-2.676c0-1.12-0.161-1.895-0.484-2.324c-0.322-0.429-0.896-0.645-1.716-0.645
			c-0.751,0-1.274,0.244-1.571,0.732c-0.299,0.488-0.447,1.514-0.447,3.076v17.832c0,1.602,0.158,2.644,0.473,3.125
			c0.314,0.482,0.891,0.723,1.729,0.723c0.717,0,1.231-0.228,1.547-0.684c0.313-0.456,0.472-1.229,0.472-2.324v-3.105h3.511v3.203
			c0,1.966-0.41,3.298-1.23,3.994c-0.821,0.696-2.289,1.045-4.402,1.045c-2.079,0-3.527-0.449-4.35-1.348s-1.231-2.571-1.231-5.02
			v-17.05c0-2.435,0.41-4.095,1.231-4.98c0.82-0.885,2.271-1.328,4.35-1.328c2.131,0,3.604,0.345,4.415,1.035
			C345.375,71.239,345.78,72.561,345.78,74.514z"/>
		<path fill="#A0C219" d="M350.128,69.943h3.537v28.809h-3.537V69.943z"/>
		<path fill="#A0C219" d="M359.562,69.943h4.559l5.529,27.09h0.053l-0.498-27.09h3.012v28.809h-4.61l-5.478-26.719h-0.104
			l0.473,26.719h-2.936V69.943z"/>
		<path fill="#A0C219" d="M378.19,69.943h3.903c3.302,0,5.459,0.388,6.473,1.162c1.014,0.775,1.52,2.549,1.52,5.322v15.84
			c0,2.761-0.516,4.531-1.545,5.312c-1.031,0.781-3.181,1.172-6.447,1.172h-3.903V69.943L378.19,69.943z M381.518,72.072v24.551
			h1.075c1.607,0,2.668-0.198,3.183-0.596c0.515-0.397,0.772-1.272,0.772-2.627V75.354c0-1.367-0.262-2.256-0.785-2.666
			s-1.581-0.615-3.17-0.615L381.518,72.072L381.518,72.072z"/>
		<path fill="#A0C219" d="M395.955,69.943h9.223v2.285h-5.895V82.6h5.633v2.266h-5.633v11.602h6.053v2.285h-9.381V69.943z"/>
		<path fill="#A0C219" d="M410.13,69.943h4.559l5.527,27.09h0.053l-0.496-27.09h3.012v28.809h-4.611l-5.475-26.719h-0.105
			l0.473,26.719h-2.936V69.943L410.13,69.943z"/>
		<path fill="#A0C219" d="M439.816,74.514v2.754h-3.512v-2.676c0-1.12-0.162-1.895-0.484-2.324c-0.324-0.43-0.896-0.645-1.717-0.645
			c-0.752,0-1.275,0.244-1.572,0.732s-0.445,1.514-0.445,3.076v17.832c0,1.602,0.156,2.644,0.471,3.125
			c0.314,0.482,0.893,0.723,1.73,0.723c0.715,0,1.23-0.228,1.545-0.684c0.314-0.456,0.473-1.229,0.473-2.324v-3.105h3.51v3.203
			c0,1.966-0.408,3.298-1.23,3.994c-0.82,0.696-2.287,1.045-4.4,1.045c-2.08,0-3.529-0.449-4.35-1.348
			c-0.822-0.898-1.232-2.571-1.232-5.02v-17.05c0-2.435,0.41-4.095,1.232-4.98c0.82-0.885,2.27-1.328,4.35-1.328
			c2.131,0,3.604,0.345,4.414,1.035C439.41,71.239,439.816,72.561,439.816,74.514z"/>
		<path fill="#A0C219" d="M444.166,69.943h3.537v28.809h-3.537V69.943z"/>
		<path fill="#A0C219" d="M456.873,69.943h4.875l5.58,28.809h-3.588l-1.336-8.008h-6.342l-1.439,8.008h-3.512L456.873,69.943z
			 M459.177,72.072l-2.803,16.562h5.582l-2.621-16.562H459.177z"/>
	</g>
</g>
</svg>
