<?xml version="1.0" encoding="utf-8"?>
<!-- Generator: Adobe Illustrator 16.0.0, SVG Export Plug-In . SVG Version: 6.00 Build 0)  -->
<!DOCTYPE svg PUBLIC "-//W3C//DTD SVG 1.1//EN" "http://www.w3.org/Graphics/SVG/1.1/DTD/svg11.dtd">
<svg version="1.1" id="Capa_1" xmlns="http://www.w3.org/2000/svg" xmlns:xlink="http://www.w3.org/1999/xlink" x="0px" y="0px"
	 width="178.461px" height="57.79px" viewBox="0 0 178.461 57.79" enable-background="new 0 0 178.461 57.79" xml:space="preserve">
<g>
	<polygon opacity="0.7" fill="#FFFFFF" enable-background="new    " points="0,3.968 178.461,0 178.461,57.79 22.82,57.762 	"/>
	<g>
		<g>
			<path fill="#331842" d="M34.952,12.999h1.72v13.714h3.103v1.183h-4.823V12.999z"/>
			<path fill="#331842" d="M43.649,12.999h2.52l2.886,14.896h-1.856l-0.691-4.142H43.23l-0.745,4.142H40.67L43.649,12.999z
				 M44.841,14.1l-1.45,8.563h2.886L44.923,14.1H44.841z"/>
			<path fill="#331842" d="M55.124,12.999h2.019c1.707,0,2.822,0.2,3.347,0.602c0.523,0.399,0.786,1.317,0.786,2.752v8.189
				c0,1.427-0.267,2.343-0.799,2.747c-0.533,0.404-1.644,0.605-3.333,0.605h-2.019L55.124,12.999L55.124,12.999z M56.845,14.1
				v12.693H57.4c0.831,0,1.379-0.103,1.646-0.308c0.267-0.206,0.4-0.658,0.4-1.358v-9.332c0-0.707-0.135-1.166-0.406-1.378
				S58.222,14.1,57.4,14.1H56.845z"/>
			<path fill="#331842" d="M64.31,12.999h1.829v14.896H64.31V12.999z"/>
			<path fill="#331842" d="M74.403,15.362v1.424h-1.802v-1.384c0-0.586-0.081-0.988-0.243-1.207
				c-0.163-0.219-0.452-0.328-0.867-0.328c-0.397,0-0.678,0.123-0.84,0.369c-0.163,0.246-0.244,0.682-0.244,1.308v0.728
				c0,0.303,0.056,0.614,0.169,0.935c0.113,0.32,0.278,0.621,0.495,0.904l2.249,2.959c0.379,0.499,0.654,0.968,0.826,1.409
				c0.171,0.44,0.257,0.896,0.257,1.368v1.01c0,1.292-0.219,2.165-0.657,2.616c-0.438,0.45-1.218,0.677-2.337,0.677
				c-1.093,0-1.854-0.183-2.283-0.546s-0.644-1.051-0.644-2.061v-1.655h1.815v1.604c0,0.606,0.081,1.017,0.244,1.232
				c0.162,0.215,0.46,0.322,0.894,0.322c0.442,0,0.748-0.123,0.915-0.369c0.167-0.245,0.25-0.785,0.25-1.62v-1.03
				c0-0.384-0.047-0.732-0.142-1.045c-0.095-0.313-0.233-0.598-0.414-0.854l-2.384-3.171c-0.334-0.424-0.589-0.828-0.766-1.212
				c-0.176-0.384-0.264-0.717-0.264-1v-0.868c0-1.158,0.214-1.964,0.644-2.419c0.429-0.454,1.167-0.682,2.215-0.682
				c1.102,0,1.862,0.179,2.283,0.535C74.193,13.669,74.403,14.352,74.403,15.362z"/>
			<path fill="#331842" d="M82.531,15.362v1.424h-1.815v-1.384c0-0.579-0.083-0.979-0.25-1.202
				c-0.167-0.222-0.463-0.333-0.888-0.333c-0.389,0-0.659,0.126-0.813,0.379c-0.154,0.252-0.23,0.782-0.23,1.591v9.221
				c0,0.827,0.081,1.366,0.244,1.615c0.163,0.249,0.46,0.374,0.894,0.374c0.37,0,0.637-0.117,0.799-0.353
				c0.163-0.236,0.244-0.637,0.244-1.202v-1.604h1.815v1.655c0,1.018-0.212,1.705-0.637,2.065c-0.424,0.359-1.183,0.541-2.276,0.541
				c-1.075,0-1.825-0.232-2.249-0.697c-0.425-0.464-0.637-1.329-0.637-2.595v-8.816c0-1.259,0.212-2.118,0.637-2.575
				c0.424-0.458,1.174-0.687,2.249-0.687c1.102,0,1.863,0.179,2.283,0.535C82.321,13.669,82.531,14.352,82.531,15.362z"/>
			<path fill="#331842" d="M86.474,12.999h2.521l2.884,14.896h-1.855l-0.691-4.142h-3.279l-0.745,4.142h-1.815L86.474,12.999z
				 M87.666,14.1l-1.449,8.563h2.885L87.747,14.1H87.666z"/>
			<path fill="#331842" d="M93.708,12.999h2.223c1.355,0,2.275,0.144,2.764,0.429c0.487,0.286,0.73,0.794,0.73,1.521v4.282
				c0,0.728-0.243,1.231-0.73,1.515c-0.488,0.283-1.408,0.424-2.764,0.424h-0.501v6.727h-1.72V12.999H93.708z M95.429,14.1v5.979
				h0.461c0.687,0,1.146-0.103,1.375-0.308s0.346-0.668,0.346-1.389v-2.586c0-0.72-0.114-1.183-0.346-1.389
				c-0.229-0.205-0.688-0.308-1.375-0.308H95.429z"/>
			<path fill="#331842" d="M102.624,12.999h2.52l2.886,14.896h-1.856l-0.69-4.142h-3.278l-0.744,4.142h-1.815L102.624,12.999z
				 M103.815,14.1l-1.449,8.563h2.885l-1.354-8.563H103.815z"/>
			<path fill="#331842" d="M115.575,15.362v1.424h-1.816v-1.384c0-0.579-0.082-0.979-0.25-1.202
				c-0.166-0.222-0.463-0.333-0.887-0.333c-0.39,0-0.66,0.126-0.813,0.379c-0.154,0.252-0.229,0.782-0.229,1.591v9.221
				c0,0.827,0.08,1.366,0.243,1.615s0.46,0.374,0.894,0.374c0.371,0,0.638-0.117,0.8-0.353c0.163-0.236,0.243-0.637,0.243-1.202
				v-1.604h1.816v1.655c0,1.018-0.213,1.705-0.638,2.065c-0.424,0.359-1.183,0.541-2.276,0.541c-1.074,0-1.824-0.232-2.248-0.697
				c-0.426-0.464-0.638-1.329-0.638-2.595v-8.816c0-1.259,0.212-2.118,0.638-2.575c0.424-0.458,1.174-0.687,2.248-0.687
				c1.103,0,1.863,0.179,2.283,0.535C115.364,13.669,115.575,14.352,115.575,15.362z"/>
			<path fill="#331842" d="M117.823,12.999h1.829v14.896h-1.829V12.999z"/>
			<path fill="#331842" d="M122.702,12.999h2.019c1.706,0,2.821,0.2,3.346,0.602c0.522,0.399,0.786,1.317,0.786,2.752v8.189
				c0,1.427-0.268,2.343-0.801,2.747c-0.532,0.404-1.643,0.605-3.332,0.605h-2.02V12.999H122.702z M124.42,14.1v12.693h0.557
				c0.831,0,1.38-0.103,1.646-0.308c0.266-0.206,0.399-0.658,0.399-1.358v-9.332c0-0.707-0.136-1.166-0.405-1.378
				c-0.271-0.212-0.818-0.317-1.641-0.317H124.42z"/>
			<path fill="#331842" d="M133.581,12.999h2.52l2.886,14.896h-1.856l-0.689-4.142h-3.279l-0.744,4.142h-1.815L133.581,12.999z
				 M134.771,14.1l-1.449,8.563h2.886l-1.354-8.563H134.771z"/>
			<path fill="#331842" d="M140.814,12.999h2.019c1.707,0,2.822,0.2,3.347,0.602c0.524,0.399,0.786,1.317,0.786,2.752v8.189
				c0,1.427-0.268,2.343-0.799,2.747c-0.533,0.404-1.645,0.605-3.334,0.605h-2.019V12.999z M142.536,14.1v12.693h0.555
				c0.83,0,1.38-0.103,1.646-0.308c0.267-0.206,0.399-0.658,0.399-1.358v-9.332c0-0.707-0.135-1.166-0.406-1.378
				s-0.816-0.317-1.641-0.317H142.536z"/>
			<path fill="#331842" d="M152.709,12.999h1.828l1.803,6.786h0.148l1.625-6.786h1.775l-2.737,8.563v6.332h-1.747v-6.332
				L152.709,12.999z"/>
			<path fill="#331842" d="M49.448,30.234h1.72v13.714h3.103v1.182h-4.823V30.234z"/>
			<path fill="#331842" d="M58.146,30.234h2.52l2.886,14.896h-1.856l-0.691-4.141h-3.278L56.98,45.13h-1.815L58.146,30.234z
				 M59.337,31.335l-1.45,8.564h2.886l-1.354-8.564H59.337z"/>
			<path fill="#331842" d="M70.596,32.598v1.424h-1.802v-1.384c0-0.586-0.081-0.988-0.244-1.207
				c-0.162-0.22-0.452-0.329-0.867-0.329c-0.397,0-0.677,0.123-0.84,0.369c-0.162,0.245-0.244,0.682-0.244,1.308v0.727
				c0,0.304,0.056,0.615,0.169,0.935c0.113,0.319,0.277,0.621,0.494,0.903l2.249,2.959c0.379,0.498,0.655,0.969,0.827,1.408
				c0.171,0.441,0.257,0.897,0.257,1.369v1.01c0,1.292-0.219,2.164-0.657,2.615s-1.217,0.677-2.337,0.677
				c-1.093,0-1.854-0.182-2.283-0.545c-0.429-0.362-0.644-1.05-0.644-2.06v-1.656h1.815v1.605c0,0.605,0.082,1.017,0.244,1.231
				c0.163,0.215,0.461,0.323,0.895,0.323c0.442,0,0.747-0.123,0.914-0.369c0.167-0.245,0.251-0.786,0.251-1.621v-1.03
				c0-0.384-0.048-0.731-0.143-1.045c-0.095-0.313-0.232-0.597-0.413-0.854l-2.384-3.171c-0.334-0.424-0.589-0.828-0.766-1.212
				c-0.177-0.385-0.264-0.717-0.264-1V33.11c0-1.158,0.215-1.964,0.644-2.418c0.429-0.454,1.167-0.683,2.215-0.683
				c1.102,0,1.863,0.179,2.283,0.535C70.385,30.902,70.596,31.588,70.596,32.598z"/>
			<path fill="#331842" d="M77.248,30.234h2.628c1.354,0,2.271,0.142,2.75,0.424c0.479,0.283,0.718,0.792,0.718,1.525v3.373
				c0,0.618-0.158,1.057-0.474,1.312c-0.316,0.256-0.876,0.411-1.68,0.465c0.857,0.04,1.454,0.188,1.788,0.444
				s0.501,0.7,0.501,1.333v4.07c0,0.733-0.239,1.241-0.718,1.524s-1.396,0.424-2.75,0.424h-2.764L77.248,30.234L77.248,30.234z
				 M78.968,31.335v5.443h0.61c0.786,0,1.31-0.104,1.571-0.309c0.262-0.205,0.393-0.661,0.393-1.368v-2.07
				c0-0.713-0.131-1.175-0.393-1.383c-0.262-0.209-0.786-0.313-1.571-0.313H78.968z M78.968,37.89v6.14h0.637
				c0.831,0,1.379-0.104,1.646-0.308c0.267-0.205,0.399-0.658,0.399-1.358v-2.797c0-0.7-0.133-1.155-0.399-1.364
				c-0.267-0.208-0.815-0.312-1.646-0.312L78.968,37.89L78.968,37.89z"/>
			<path fill="#331842" d="M88.181,30.234h2.521l2.885,14.896H91.73l-0.69-4.141h-3.278l-0.745,4.141H85.2L88.181,30.234z
				 M89.373,31.335l-1.45,8.564h2.885l-1.354-8.564H89.373z"/>
			<path fill="#331842" d="M95.417,30.234h2.627c1.354,0,2.271,0.142,2.75,0.424c0.479,0.283,0.719,0.792,0.719,1.525v3.373
				c0,0.618-0.158,1.057-0.475,1.312c-0.315,0.256-0.875,0.411-1.68,0.465c0.857,0.04,1.454,0.188,1.789,0.444
				c0.334,0.256,0.501,0.7,0.501,1.333v6.019h-1.829v-5.563c0-0.7-0.133-1.155-0.398-1.364c-0.268-0.208-0.815-0.312-1.646-0.312
				h-0.637v7.24h-1.721V30.234L95.417,30.234z M97.136,31.335v5.443h0.61c0.785,0,1.31-0.104,1.571-0.309
				c0.263-0.205,0.394-0.661,0.394-1.368v-2.07c0-0.713-0.131-1.175-0.394-1.383c-0.262-0.209-0.786-0.313-1.571-0.313H97.136z"/>
			<path fill="#331842" d="M104.655,30.234h2.629c1.354,0,2.271,0.142,2.75,0.424c0.479,0.283,0.717,0.792,0.717,1.525v3.373
				c0,0.618-0.158,1.057-0.474,1.312c-0.315,0.256-0.876,0.411-1.68,0.465c0.856,0.04,1.454,0.188,1.788,0.444
				s0.501,0.7,0.501,1.333v6.019h-1.829v-5.563c0-0.7-0.133-1.155-0.398-1.364c-0.268-0.208-0.816-0.312-1.646-0.312h-0.637v7.24
				h-1.721V30.234z M106.375,31.335v5.443h0.609c0.786,0,1.311-0.104,1.571-0.309c0.262-0.205,0.394-0.661,0.394-1.368v-2.07
				c0-0.713-0.132-1.175-0.394-1.383c-0.263-0.209-0.786-0.313-1.571-0.313H106.375z"/>
			<path fill="#331842" d="M113.895,30.234h4.77v1.182h-3.049v5.362h2.913v1.172h-2.913v5.999h3.129v1.182h-4.85V30.234z"/>
			<path fill="#331842" d="M121.224,30.234h2.628c1.355,0,2.271,0.142,2.75,0.424c0.479,0.283,0.718,0.792,0.718,1.525v3.373
				c0,0.618-0.157,1.057-0.474,1.312c-0.316,0.256-0.876,0.411-1.68,0.465c0.857,0.04,1.453,0.188,1.789,0.444
				c0.334,0.256,0.5,0.7,0.5,1.333v6.019h-1.828v-5.563c0-0.7-0.135-1.155-0.4-1.364c-0.266-0.208-0.814-0.312-1.646-0.312h-0.637
				v7.24h-1.721L121.224,30.234L121.224,30.234z M122.944,31.335v5.443h0.609c0.785,0,1.31-0.104,1.572-0.309
				c0.262-0.205,0.393-0.661,0.393-1.368v-2.07c0-0.713-0.131-1.175-0.393-1.383c-0.263-0.209-0.787-0.313-1.572-0.313H122.944z"/>
			<path fill="#331842" d="M132.157,30.234h2.52l2.887,14.896h-1.855l-0.691-4.141h-3.278l-0.745,4.141h-1.814L132.157,30.234z
				 M133.349,31.335l-1.45,8.564h2.887l-1.354-8.564H133.349z"/>
			<path fill="#331842" d="M144.607,32.598v1.424h-1.802v-1.384c0-0.586-0.081-0.988-0.244-1.207
				c-0.162-0.22-0.452-0.329-0.867-0.329c-0.396,0-0.677,0.123-0.84,0.369c-0.162,0.245-0.244,0.682-0.244,1.308v0.727
				c0,0.304,0.057,0.615,0.169,0.935c0.113,0.319,0.277,0.621,0.494,0.903l2.249,2.959c0.379,0.498,0.654,0.969,0.827,1.408
				c0.171,0.441,0.257,0.897,0.257,1.369v1.01c0,1.292-0.219,2.164-0.656,2.615c-0.439,0.451-1.218,0.677-2.338,0.677
				c-1.093,0-1.854-0.182-2.283-0.545c-0.429-0.362-0.644-1.05-0.644-2.06v-1.656h1.815v1.605c0,0.605,0.082,1.017,0.244,1.231
				s0.461,0.323,0.895,0.323c0.441,0,0.746-0.123,0.914-0.369c0.167-0.245,0.251-0.786,0.251-1.621v-1.03
				c0-0.384-0.048-0.731-0.144-1.045c-0.095-0.313-0.231-0.597-0.412-0.854l-2.385-3.171c-0.334-0.424-0.589-0.828-0.766-1.212
				c-0.178-0.385-0.264-0.717-0.264-1V33.11c0-1.158,0.215-1.964,0.644-2.418s1.167-0.683,2.215-0.683
				c1.103,0,1.863,0.179,2.283,0.535C144.396,30.902,144.607,31.588,144.607,32.598z"/>
		</g>
	</g>
</g>
</svg>
