<?xml version="1.0" encoding="utf-8"?>
<!-- Generator: Adobe Illustrator 16.0.0, SVG Export Plug-In . SVG Version: 6.00 Build 0)  -->
<!DOCTYPE svg PUBLIC "-//W3C//DTD SVG 1.1//EN" "http://www.w3.org/Graphics/SVG/1.1/DTD/svg11.dtd">
<svg version="1.1" id="Capa_1" xmlns="http://www.w3.org/2000/svg" xmlns:xlink="http://www.w3.org/1999/xlink" x="0px" y="0px"
	 width="178.461px" height="57.79px" viewBox="0 61.524 178.461 57.79" enable-background="new 0 61.524 178.461 57.79"
	 xml:space="preserve">
<g>
	<polygon opacity="0.7" fill="#FFFFFF" enable-background="new    " points="0,65.491 178.461,61.524 178.461,119.314 
		22.82,119.286 	"/>
	<g>
		<g>
			<path fill="#331842" d="M61.601,77.885v1.425h-1.802v-1.385c0-0.586-0.081-0.987-0.244-1.207
				c-0.163-0.219-0.452-0.327-0.867-0.327c-0.397,0-0.677,0.123-0.84,0.368c-0.163,0.246-0.244,0.683-0.244,1.309v0.727
				c0,0.304,0.056,0.615,0.169,0.936c0.113,0.319,0.278,0.621,0.495,0.903l2.249,2.959c0.379,0.499,0.655,0.969,0.827,1.409
				c0.171,0.441,0.257,0.897,0.257,1.368v1.01c0,1.292-0.219,2.165-0.657,2.616s-1.217,0.677-2.337,0.677
				c-1.093,0-1.854-0.182-2.282-0.546c-0.43-0.362-0.644-1.05-0.644-2.06V86.41h1.815v1.605c0,0.605,0.081,1.017,0.244,1.231
				c0.163,0.215,0.46,0.323,0.894,0.323c0.442,0,0.747-0.123,0.915-0.369c0.167-0.246,0.25-0.786,0.25-1.621v-1.03
				c0-0.384-0.047-0.731-0.142-1.045c-0.095-0.313-0.233-0.597-0.414-0.854l-2.384-3.171c-0.334-0.424-0.59-0.828-0.766-1.212
				c-0.176-0.385-0.265-0.718-0.265-1V78.4c0-1.158,0.215-1.964,0.644-2.419c0.429-0.454,1.167-0.683,2.215-0.683
				c1.102,0,1.863,0.18,2.283,0.535C61.391,76.193,61.601,76.876,61.601,77.885z"/>
			<path fill="#331842" d="M64.013,75.523h1.829v14.896h-1.829V75.523z"/>
			<path fill="#331842" d="M67.575,75.523h5.866v1.182h-2.059v13.714h-1.748V76.705h-2.06L67.575,75.523L67.575,75.523z"/>
			<path fill="#331842" d="M75.162,75.523h1.802v12.058c0,0.774,0.1,1.296,0.298,1.565c0.199,0.27,0.551,0.403,1.057,0.403
				c0.497,0,0.842-0.135,1.037-0.403c0.194-0.27,0.291-0.791,0.291-1.565V75.523h1.802v11.855c0,1.279-0.23,2.148-0.69,2.605
				c-0.461,0.458-1.283,0.687-2.466,0.687c-1.165,0-1.979-0.231-2.438-0.696c-0.461-0.465-0.691-1.329-0.691-2.596V75.523H75.162z"
				/>
			<path fill="#331842" d="M86.177,75.523h2.52l2.886,14.896h-1.855l-0.691-4.141h-3.278l-0.745,4.141h-1.815L86.177,75.523z
				 M87.369,76.624l-1.45,8.564h2.886l-1.354-8.564H87.369z"/>
			<path fill="#331842" d="M99.127,77.885v1.425h-1.814v-1.385c0-0.578-0.083-0.979-0.25-1.201s-0.463-0.333-0.889-0.333
				c-0.389,0-0.658,0.126-0.813,0.379c-0.154,0.252-0.23,0.781-0.23,1.591v9.22c0,0.828,0.082,1.367,0.244,1.616
				c0.164,0.249,0.461,0.374,0.895,0.374c0.37,0,0.637-0.118,0.799-0.354c0.163-0.235,0.244-0.637,0.244-1.201V86.41h1.814v1.656
				c0,1.017-0.211,1.705-0.637,2.064c-0.424,0.36-1.183,0.541-2.275,0.541c-1.075,0-1.825-0.231-2.25-0.696
				c-0.424-0.465-0.637-1.329-0.637-2.596v-8.815c0-1.259,0.213-2.118,0.637-2.575c0.425-0.458,1.175-0.688,2.25-0.688
				c1.102,0,1.863,0.18,2.283,0.535C98.918,76.193,99.127,76.876,99.127,77.885z"/>
			<path fill="#331842" d="M101.377,75.523h1.828v14.896h-1.828V75.523z"/>
			<path fill="#331842" d="M112.459,78.563v8.815c0,1.279-0.23,2.148-0.69,2.605c-0.461,0.458-1.283,0.687-2.466,0.687
				c-1.165,0-1.979-0.231-2.438-0.696c-0.462-0.465-0.691-1.329-0.691-2.596v-8.815c0-1.252,0.231-2.109,0.697-2.57
				c0.465-0.461,1.285-0.692,2.459-0.692s1.989,0.229,2.445,0.688S112.459,77.304,112.459,78.563z M110.657,78.361
				c0-0.754-0.1-1.271-0.298-1.551s-0.551-0.419-1.058-0.419c-0.496,0-0.842,0.137-1.036,0.408
				c-0.194,0.272-0.292,0.793-0.292,1.562v9.22c0,0.774,0.1,1.296,0.298,1.565c0.199,0.27,0.551,0.403,1.058,0.403
				c0.496,0,0.842-0.135,1.037-0.403c0.193-0.27,0.29-0.791,0.29-1.565L110.657,78.361L110.657,78.361z"/>
			<path fill="#331842" d="M115.495,75.523h2.356l2.858,14.007h0.026l-0.258-14.007h1.558v14.896h-2.384l-2.832-13.814h-0.054
				l0.244,13.814h-1.518V75.523H115.495z"/>
			<path fill="#331842" d="M125.125,75.523h4.77v1.182h-3.049v5.362h2.912v1.171h-2.912v5.999h3.13v1.182h-4.851V75.523z"/>
			<path fill="#331842" d="M137.672,77.885v1.425h-1.803v-1.385c0-0.586-0.08-0.987-0.244-1.207
				c-0.162-0.219-0.451-0.327-0.867-0.327c-0.396,0-0.676,0.123-0.84,0.368c-0.162,0.246-0.244,0.683-0.244,1.309v0.727
				c0,0.304,0.058,0.615,0.17,0.936c0.111,0.319,0.277,0.621,0.494,0.903l2.25,2.959c0.379,0.499,0.654,0.969,0.826,1.409
				c0.172,0.441,0.258,0.897,0.258,1.368v1.01c0,1.292-0.219,2.165-0.657,2.616s-1.218,0.677-2.337,0.677
				c-1.094,0-1.854-0.182-2.283-0.546c-0.43-0.362-0.645-1.05-0.645-2.06V86.41h1.815v1.605c0,0.605,0.082,1.017,0.244,1.231
				c0.163,0.215,0.46,0.323,0.894,0.323c0.442,0,0.748-0.123,0.916-0.369c0.166-0.246,0.25-0.786,0.25-1.621v-1.03
				c0-0.384-0.048-0.731-0.143-1.045c-0.096-0.313-0.232-0.597-0.413-0.854l-2.385-3.171c-0.334-0.424-0.589-0.828-0.767-1.212
				c-0.176-0.385-0.264-0.718-0.264-1V78.4c0-1.158,0.214-1.964,0.645-2.419c0.429-0.454,1.166-0.683,2.215-0.683
				c1.102,0,1.863,0.18,2.283,0.535C137.461,76.193,137.672,76.876,137.672,77.885z"/>
			<path fill="#331842" d="M32.026,92.759h2.019c1.707,0,2.822,0.2,3.346,0.602c0.524,0.4,0.786,1.317,0.786,2.752v8.189
				c0,1.429-0.267,2.344-0.799,2.747c-0.532,0.404-1.644,0.606-3.333,0.606h-2.019V92.759z M33.747,93.859v12.694h0.555
				c0.831,0,1.38-0.104,1.646-0.309c0.266-0.205,0.399-0.658,0.399-1.357v-9.332c0-0.707-0.135-1.167-0.406-1.379
				c-0.271-0.211-0.817-0.317-1.64-0.317H33.747z"/>
			<path fill="#331842" d="M41.211,92.759h4.769v1.183h-3.049v5.361h2.913v1.173h-2.913v5.999h3.13v1.182h-4.85V92.759z"/>
			<path fill="#331842" d="M51.643,92.759h1.748l1.856,13.411h0.189l1.748-13.411h1.639l-2.167,14.896h-2.682L51.643,92.759z"/>
			<path fill="#331842" d="M60.721,92.759h1.802v12.059c0,0.773,0.099,1.296,0.298,1.564c0.198,0.27,0.551,0.404,1.057,0.404
				c0.497,0,0.842-0.135,1.036-0.404c0.194-0.269,0.292-0.791,0.292-1.564V92.759h1.802v11.856c0,1.279-0.23,2.147-0.691,2.605
				c-0.46,0.458-1.282,0.687-2.466,0.687c-1.165,0-1.978-0.232-2.438-0.697c-0.46-0.464-0.69-1.33-0.69-2.595V92.759H60.721z"/>
			<path fill="#331842" d="M70.041,92.759h1.721v13.715h3.103v1.182h-4.823L70.041,92.759L70.041,92.759z"/>
			<path fill="#331842" d="M76.531,92.759h2.357l2.859,14.008h0.027l-0.257-14.008h1.558v14.896H80.69L77.858,93.84h-0.054
				l0.244,13.815h-1.517C76.531,107.655,76.531,92.759,76.531,92.759z"/>
			<path fill="#331842" d="M86.163,92.759h4.769v1.183h-3.048v5.361h2.914v1.173h-2.914v5.999h3.129v1.182h-4.85V92.759z"/>
			<path fill="#331842" d="M93.493,92.759h2.627c1.355,0,2.271,0.143,2.75,0.425c0.479,0.282,0.719,0.792,0.719,1.524v3.373
				c0,0.619-0.158,1.058-0.475,1.313c-0.316,0.256-0.876,0.411-1.68,0.465c0.857,0.04,1.454,0.188,1.789,0.443
				c0.334,0.257,0.501,0.7,0.501,1.333v6.02h-1.829v-5.564c0-0.699-0.134-1.154-0.4-1.363c-0.266-0.208-0.814-0.313-1.646-0.313
				h-0.638v7.241h-1.721V92.759H93.493z M95.213,93.859v5.442h0.608c0.786,0,1.31-0.103,1.572-0.308
				c0.262-0.206,0.394-0.662,0.394-1.369v-2.069c0-0.714-0.132-1.176-0.394-1.384c-0.263-0.209-0.786-0.313-1.572-0.313H95.213z"/>
			<path fill="#331842" d="M104.426,92.759h2.52l2.887,14.896h-1.856l-0.69-4.141h-3.279l-0.744,4.141h-1.815L104.426,92.759z
				 M105.618,93.859l-1.449,8.563h2.886l-1.354-8.563H105.618z"/>
			<path fill="#331842" d="M111.661,92.759h2.627c1.355,0,2.271,0.143,2.75,0.425c0.479,0.282,0.719,0.792,0.719,1.524v3.373
				c0,0.619-0.158,1.058-0.475,1.313c-0.318,0.255-0.877,0.411-1.681,0.465c0.858,0.04,1.454,0.188,1.788,0.443
				c0.334,0.257,0.501,0.7,0.501,1.333v4.07c0,0.734-0.24,1.242-0.718,1.525c-0.479,0.283-1.396,0.424-2.75,0.424h-2.764V92.759
				H111.661z M113.381,93.859v5.442h0.609c0.785,0,1.309-0.103,1.57-0.308c0.262-0.206,0.393-0.662,0.393-1.369v-2.069
				c0-0.714-0.131-1.176-0.393-1.384c-0.262-0.209-0.785-0.313-1.57-0.313H113.381z M113.381,100.414v6.141h0.637
				c0.831,0,1.379-0.104,1.646-0.309c0.267-0.205,0.399-0.658,0.399-1.357v-2.798c0-0.699-0.133-1.154-0.399-1.363
				c-0.267-0.208-0.815-0.313-1.646-0.313L113.381,100.414L113.381,100.414z"/>
			<path fill="#331842" d="M120.899,92.759h1.829v14.896h-1.829V92.759z"/>
			<path fill="#331842" d="M125.777,92.759h1.72v13.715h3.104v1.182h-4.823V92.759z"/>
			<path fill="#331842" d="M132.267,92.759h1.829v14.896h-1.829V92.759z"/>
			<path fill="#331842" d="M137.144,92.759h2.019c1.707,0,2.822,0.2,3.346,0.602c0.525,0.4,0.787,1.317,0.787,2.752v8.189
				c0,1.429-0.268,2.344-0.799,2.747c-0.533,0.404-1.646,0.606-3.334,0.606h-2.019V92.759z M138.864,93.859v12.694h0.555
				c0.832,0,1.379-0.104,1.646-0.309s0.398-0.658,0.398-1.357v-9.332c0-0.707-0.135-1.167-0.405-1.379s-0.817-0.317-1.64-0.317
				H138.864z"/>
			<path fill="#331842" d="M148.022,92.759h2.52l2.887,14.896h-1.856l-0.69-4.141h-3.278l-0.745,4.141h-1.814L148.022,92.759z
				 M149.213,93.859l-1.449,8.563h2.886l-1.354-8.563H149.213z"/>
			<path fill="#331842" d="M155.256,92.759h2.02c1.707,0,2.822,0.2,3.346,0.602c0.524,0.4,0.787,1.317,0.787,2.752v8.189
				c0,1.429-0.268,2.344-0.8,2.747c-0.532,0.404-1.646,0.606-3.333,0.606h-2.02V92.759z M156.978,93.859v12.694h0.556
				c0.83,0,1.379-0.104,1.646-0.309s0.399-0.658,0.399-1.357v-9.332c0-0.707-0.136-1.167-0.406-1.379
				c-0.271-0.212-0.817-0.317-1.639-0.317H156.978z"/>
		</g>
	</g>
</g>
</svg>
