<?xml version="1.0" encoding="utf-8"?>
<!-- Generator: Adobe Illustrator 16.0.0, SVG Export Plug-In . SVG Version: 6.00 Build 0)  -->
<!DOCTYPE svg PUBLIC "-//W3C//DTD SVG 1.1//EN" "http://www.w3.org/Graphics/SVG/1.1/DTD/svg11.dtd">
<svg version="1.1" id="Capa_1" xmlns="http://www.w3.org/2000/svg" xmlns:xlink="http://www.w3.org/1999/xlink" x="0px" y="0px"
	 width="602.457px" height="279.568px" viewBox="0 0 602.457 279.568" enable-background="new 0 0 602.457 279.568"
	 xml:space="preserve">
<g>
	<g>
		<path fill="#F2961C" d="M17.822,3.797h2.651c2.242,0,3.707,0.263,4.395,0.789C25.555,5.112,25.9,6.316,25.9,8.2v10.756
			c0,1.875-0.35,3.077-1.05,3.606c-0.7,0.531-2.159,0.796-4.377,0.796h-2.651V3.797z M20.082,5.242v16.672h0.729
			c1.091,0,1.812-0.136,2.162-0.404s0.525-0.864,0.525-1.784V7.471c0-0.929-0.178-1.532-0.534-1.811s-1.074-0.418-2.153-0.418
			H20.082z"/>
		<path fill="#F2961C" d="M29.885,3.797h2.402V23.36h-2.402V3.797z"/>
		<path fill="#F2961C" d="M43.14,6.9v1.87h-2.366V6.953c0-0.77-0.107-1.297-0.32-1.585c-0.213-0.287-0.593-0.432-1.139-0.432
			c-0.522,0-0.89,0.161-1.103,0.484c-0.214,0.323-0.32,0.895-0.32,1.717v0.955c0,0.398,0.074,0.807,0.222,1.227
			c0.148,0.421,0.365,0.816,0.649,1.188l2.954,3.886c0.498,0.654,0.86,1.271,1.085,1.851c0.225,0.579,0.338,1.179,0.338,1.797v1.327
			c0,1.697-0.288,2.843-0.863,3.435c-0.575,0.592-1.598,0.889-3.069,0.889c-1.435,0-2.435-0.238-2.998-0.716
			s-0.845-1.38-0.845-2.706v-2.175h2.384v2.108c0,0.796,0.107,1.335,0.32,1.617c0.213,0.283,0.605,0.426,1.174,0.426
			c0.581,0,0.981-0.162,1.201-0.484c0.219-0.323,0.329-1.032,0.329-2.129v-1.352c0-0.505-0.062-0.963-0.187-1.373
			c-0.125-0.411-0.305-0.784-0.543-1.121l-3.131-4.165c-0.439-0.558-0.774-1.088-1.005-1.593c-0.231-0.504-0.347-0.94-0.347-1.312
			V7.577c0-1.521,0.282-2.58,0.845-3.177s1.533-0.896,2.909-0.896c1.447,0,2.447,0.234,2.998,0.703S43.14,5.574,43.14,6.9z"/>
		<path fill="#F2961C" d="M53.816,6.9v1.87h-2.384V6.953c0-0.761-0.11-1.286-0.329-1.578c-0.22-0.292-0.608-0.438-1.166-0.438
			c-0.51,0-0.866,0.166-1.068,0.497c-0.202,0.332-0.302,1.028-0.302,2.089v12.109c0,1.088,0.107,1.795,0.32,2.122
			c0.214,0.327,0.605,0.491,1.174,0.491c0.486,0,0.836-0.155,1.05-0.465c0.214-0.31,0.32-0.836,0.32-1.578v-2.108h2.384v2.175
			c0,1.335-0.279,2.239-0.836,2.712c-0.558,0.474-1.554,0.709-2.989,0.709c-1.412,0-2.396-0.305-2.954-0.915
			c-0.558-0.609-0.836-1.746-0.836-3.408V7.789c0-1.653,0.279-2.781,0.836-3.382c0.557-0.602,1.542-0.902,2.954-0.902
			c1.447,0,2.447,0.234,2.998,0.703C53.539,4.677,53.816,5.574,53.816,6.9z"/>
		<path fill="#F2961C" d="M58.993,3.797h3.309l3.79,19.562h-2.438l-0.907-5.438h-4.306l-0.979,5.438h-2.384L58.993,3.797z
			 M60.559,5.242L58.655,16.49h3.79L60.666,5.242H60.559z"/>
		<path fill="#F2961C" d="M68.495,3.797h2.918c1.779,0,2.989,0.188,3.63,0.562c0.641,0.376,0.961,1.041,0.961,1.996v5.624
			c0,0.955-0.32,1.618-0.961,1.99c-0.64,0.371-1.85,0.557-3.63,0.557h-0.658v8.833h-2.26V3.797z M70.754,5.242v7.852h0.605
			c0.901,0,1.504-0.135,1.806-0.405c0.302-0.27,0.454-0.877,0.454-1.822V7.471c0-0.946-0.151-1.554-0.454-1.824
			c-0.302-0.27-0.905-0.404-1.806-0.404H70.754z"/>
		<path fill="#F2961C" d="M80.202,3.797h3.309l3.79,19.562h-2.438l-0.907-5.438H79.65l-0.979,5.438h-2.384L80.202,3.797z
			 M81.768,5.242L79.864,16.49h3.79L81.875,5.242H81.768z"/>
		<path fill="#F2961C" d="M97.212,6.9v1.87h-2.384V6.953c0-0.761-0.11-1.286-0.329-1.578c-0.22-0.292-0.608-0.438-1.166-0.438
			c-0.51,0-0.866,0.166-1.068,0.497c-0.202,0.332-0.302,1.028-0.302,2.089v12.109c0,1.088,0.107,1.795,0.32,2.122
			c0.214,0.327,0.605,0.491,1.174,0.491c0.486,0,0.836-0.155,1.05-0.465c0.214-0.31,0.32-0.836,0.32-1.578v-2.108h2.384v2.175
			c0,1.335-0.279,2.239-0.836,2.712c-0.558,0.474-1.554,0.709-2.989,0.709c-1.412,0-2.396-0.305-2.954-0.915
			c-0.558-0.609-0.836-1.746-0.836-3.408V7.789c0-1.653,0.279-2.781,0.836-3.382c0.557-0.602,1.542-0.902,2.954-0.902
			c1.447,0,2.447,0.234,2.998,0.703C96.935,4.677,97.212,5.574,97.212,6.9z"/>
		<path fill="#F2961C" d="M100.166,3.797h2.402V23.36h-2.402V3.797z"/>
		<path fill="#F2961C" d="M106.571,3.797h2.651c2.242,0,3.707,0.263,4.395,0.789c0.688,0.525,1.032,1.729,1.032,3.614v10.756
			c0,1.875-0.35,3.077-1.05,3.606c-0.7,0.531-2.159,0.796-4.377,0.796h-2.651V3.797z M108.831,5.242v16.672h0.729
			c1.091,0,1.812-0.136,2.162-0.404c0.35-0.269,0.525-0.864,0.525-1.784V7.471c0-0.929-0.178-1.532-0.534-1.811
			s-1.074-0.418-2.153-0.418H108.831z"/>
		<path fill="#F2961C" d="M120.858,3.797h3.309l3.79,19.562h-2.438l-0.907-5.438h-4.306l-0.979,5.438h-2.384L120.858,3.797z
			 M122.424,5.242L120.52,16.49h3.79l-1.78-11.247H122.424z"/>
		<path fill="#F2961C" d="M130.359,3.797h2.651c2.242,0,3.707,0.263,4.395,0.789c0.688,0.525,1.032,1.729,1.032,3.614v10.756
			c0,1.875-0.35,3.077-1.05,3.606c-0.7,0.531-2.159,0.796-4.377,0.796h-2.651V3.797z M132.619,5.242v16.672h0.729
			c1.091,0,1.812-0.136,2.162-0.404c0.35-0.269,0.525-0.864,0.525-1.784V7.471c0-0.929-0.178-1.532-0.534-1.811
			s-1.074-0.418-2.153-0.418H132.619z"/>
		<path fill="#F2961C" d="M142.084,21.211h2.562l-1.868,4.43h-1.957L142.084,21.211z"/>
		<path fill="#F2961C" d="M153.561,3.797h2.918c1.779,0,2.989,0.188,3.63,0.562c0.641,0.376,0.961,1.041,0.961,1.996v5.624
			c0,0.955-0.32,1.618-0.961,1.99c-0.64,0.371-1.85,0.557-3.63,0.557h-0.658v8.833h-2.26V3.797z M155.82,5.242v7.852h0.605
			c0.901,0,1.504-0.135,1.806-0.405c0.302-0.27,0.454-0.877,0.454-1.822V7.471c0-0.946-0.151-1.554-0.454-1.824
			c-0.302-0.27-0.905-0.404-1.806-0.404H155.82z"/>
		<path fill="#F2961C" d="M171.994,7.789v11.579c0,1.68-0.302,2.82-0.907,3.422c-0.605,0.601-1.684,0.901-3.238,0.901
			c-1.53,0-2.598-0.305-3.203-0.915c-0.605-0.609-0.907-1.745-0.907-3.408V7.789c0-1.646,0.305-2.771,0.916-3.375
			c0.611-0.606,1.687-0.909,3.229-0.909s2.613,0.301,3.212,0.902C171.694,5.008,171.994,6.136,171.994,7.789z M169.627,7.523
			c0-0.989-0.131-1.669-0.391-2.036c-0.261-0.366-0.724-0.55-1.388-0.55c-0.653,0-1.106,0.18-1.361,0.537
			c-0.255,0.358-0.382,1.041-0.382,2.049v12.109c0,1.017,0.13,1.702,0.391,2.056c0.261,0.354,0.723,0.531,1.388,0.531
			c0.652,0,1.106-0.177,1.361-0.531c0.255-0.354,0.382-1.039,0.382-2.056V7.523z"/>
		<path fill="#F2961C" d="M175.979,3.797h3.452c1.779,0,2.983,0.186,3.612,0.557c0.628,0.372,0.943,1.039,0.943,2.003v4.431
			c0,0.813-0.208,1.389-0.623,1.725s-1.151,0.539-2.206,0.61c1.127,0.053,1.909,0.248,2.348,0.583
			c0.439,0.336,0.658,0.92,0.658,1.751V20.8c0,0.964-0.314,1.632-0.943,2.003c-0.629,0.371-1.833,0.557-3.612,0.557h-3.63
			L175.979,3.797L175.979,3.797z M178.239,5.242v7.148h0.801c1.032,0,1.72-0.135,2.064-0.405c0.344-0.27,0.516-0.868,0.516-1.797
			V7.471c0-0.938-0.172-1.543-0.516-1.817c-0.344-0.272-1.032-0.41-2.064-0.41L178.239,5.242L178.239,5.242z M178.239,13.85v8.064
			h0.836c1.091,0,1.812-0.136,2.162-0.404c0.35-0.269,0.525-0.864,0.525-1.784v-3.674c0-0.919-0.175-1.517-0.525-1.791
			c-0.35-0.274-1.071-0.411-2.162-0.411H178.239z"/>
		<path fill="#F2961C" d="M188.114,3.797h3.452c1.779,0,2.983,0.186,3.612,0.557c0.628,0.372,0.943,1.039,0.943,2.003v4.431
			c0,0.813-0.208,1.389-0.623,1.725s-1.151,0.539-2.206,0.61c1.127,0.053,1.909,0.248,2.348,0.583
			c0.439,0.336,0.658,0.92,0.658,1.751v7.904h-2.402v-7.308c0-0.919-0.175-1.517-0.525-1.791s-1.071-0.411-2.162-0.411h-0.836v9.51
			h-2.26L188.114,3.797L188.114,3.797z M190.374,5.242v7.148h0.801c1.032,0,1.72-0.135,2.064-0.405
			c0.344-0.27,0.516-0.868,0.516-1.797V7.471c0-0.938-0.172-1.543-0.516-1.817c-0.344-0.272-1.032-0.41-2.064-0.41L190.374,5.242
			L190.374,5.242z"/>
		<path fill="#F2961C" d="M200.249,3.797h6.263v1.552h-4.003v7.043h3.825v1.538h-3.825v7.878h4.11v1.552h-6.37V3.797z"/>
		<path fill="#F2961C" d="M208.522,3.797h7.064v1.711l-5.089,16.3h5.32v1.552h-7.544v-1.843l5.124-16.168h-4.875V3.797
			L208.522,3.797z"/>
		<path fill="#F2961C" d="M220.514,3.797h3.309l3.79,19.562h-2.438l-0.907-5.438h-4.306l-0.979,5.438H216.6L220.514,3.797z
			 M222.08,5.242l-1.904,11.247h3.79l-1.779-11.247H222.08z"/>
		<path fill="#F2961C" d="M233.574,3.797h2.402l2.366,8.913h0.196l2.135-8.913h2.331l-3.594,11.247v8.315h-2.295v-8.315
			L233.574,3.797z"/>
		<path fill="#F2961C" d="M258.857,7.789v11.579c0,1.68-0.302,2.82-0.907,3.422c-0.605,0.601-1.684,0.901-3.238,0.901
			c-1.53,0-2.598-0.305-3.203-0.915c-0.605-0.609-0.907-1.745-0.907-3.408V7.789c0-1.646,0.305-2.771,0.916-3.375
			c0.611-0.606,1.687-0.909,3.229-0.909s2.613,0.301,3.212,0.902C258.557,5.008,258.857,6.136,258.857,7.789z M256.49,7.523
			c0-0.989-0.131-1.669-0.391-2.036c-0.261-0.366-0.724-0.55-1.388-0.55c-0.653,0-1.106,0.18-1.361,0.537
			c-0.255,0.358-0.382,1.041-0.382,2.049v12.109c0,1.017,0.13,1.702,0.391,2.056c0.261,0.354,0.723,0.531,1.388,0.531
			c0.652,0,1.106-0.177,1.361-0.531c0.255-0.354,0.382-1.039,0.382-2.056V7.523z"/>
		<path fill="#F2961C" d="M261.117,3.797h7.704v1.552h-2.704V23.36h-2.295V5.349h-2.704L261.117,3.797L261.117,3.797z"/>
		<path fill="#F2961C" d="M271.188,3.797h3.452c1.779,0,2.983,0.186,3.612,0.557c0.628,0.372,0.943,1.039,0.943,2.003v4.431
			c0,0.813-0.208,1.389-0.623,1.725c-0.415,0.336-1.151,0.539-2.206,0.61c1.127,0.053,1.909,0.248,2.348,0.583
			c0.439,0.336,0.658,0.92,0.658,1.751v7.904h-2.402v-7.308c0-0.919-0.175-1.517-0.525-1.791s-1.071-0.411-2.162-0.411h-0.836v9.51
			h-2.26L271.188,3.797L271.188,3.797z M273.447,5.242v7.148h0.801c1.032,0,1.72-0.135,2.064-0.405
			c0.344-0.27,0.516-0.868,0.516-1.797V7.471c0-0.938-0.172-1.543-0.516-1.817c-0.344-0.272-1.032-0.41-2.064-0.41L273.447,5.242
			L273.447,5.242z"/>
		<path fill="#F2961C" d="M285.546,3.797h3.309l3.79,19.562h-2.438l-0.907-5.438h-4.306l-0.979,5.438h-2.384L285.546,3.797z
			 M287.112,5.242l-1.904,11.247h3.79l-1.779-11.247H287.112z"/>
		<path fill="#F2961C" d="M301.897,6.9v1.87h-2.366V6.953c0-0.77-0.107-1.297-0.32-1.585c-0.213-0.287-0.593-0.432-1.139-0.432
			c-0.522,0-0.89,0.161-1.103,0.484c-0.214,0.323-0.32,0.895-0.32,1.717v0.955c0,0.398,0.074,0.807,0.222,1.227
			c0.148,0.421,0.365,0.816,0.649,1.188l2.954,3.886c0.498,0.654,0.86,1.271,1.085,1.851c0.226,0.579,0.338,1.179,0.338,1.797v1.327
			c0,1.697-0.288,2.843-0.863,3.435c-0.575,0.592-1.598,0.889-3.069,0.889c-1.435,0-2.435-0.238-2.998-0.716
			s-0.845-1.38-0.845-2.706v-2.175h2.384v2.108c0,0.796,0.107,1.335,0.32,1.617c0.213,0.283,0.605,0.426,1.174,0.426
			c0.581,0,0.981-0.162,1.201-0.484c0.219-0.323,0.329-1.032,0.329-2.129v-1.352c0-0.505-0.062-0.963-0.187-1.373
			c-0.125-0.411-0.305-0.784-0.543-1.121l-3.131-4.165c-0.439-0.558-0.774-1.088-1.005-1.593c-0.231-0.504-0.347-0.94-0.347-1.312
			V7.577c0-1.521,0.282-2.58,0.845-3.177s1.533-0.896,2.909-0.896c1.447,0,2.447,0.234,2.998,0.703
			C301.62,4.677,301.897,5.574,301.897,6.9z"/>
		<path fill="#F2961C" d="M317.483,6.9v1.87h-2.366V6.953c0-0.77-0.107-1.297-0.32-1.585c-0.213-0.287-0.592-0.432-1.139-0.432
			c-0.521,0-0.89,0.161-1.103,0.484c-0.214,0.323-0.32,0.895-0.32,1.717v0.955c0,0.398,0.074,0.807,0.222,1.227
			c0.148,0.421,0.365,0.816,0.649,1.188l2.954,3.886c0.498,0.654,0.859,1.271,1.085,1.851s0.338,1.179,0.338,1.797v1.327
			c0,1.697-0.288,2.843-0.862,3.435c-0.576,0.592-1.599,0.889-3.07,0.889c-1.434,0-2.434-0.238-2.998-0.716
			c-0.562-0.478-0.844-1.38-0.844-2.706v-2.175h2.383v2.108c0,0.796,0.107,1.335,0.32,1.617c0.213,0.283,0.605,0.426,1.174,0.426
			c0.582,0,0.981-0.162,1.201-0.484c0.219-0.323,0.33-1.032,0.33-2.129v-1.352c0-0.505-0.062-0.963-0.188-1.373
			c-0.125-0.411-0.305-0.784-0.543-1.121l-3.131-4.165c-0.439-0.558-0.774-1.088-1.006-1.593c-0.23-0.504-0.347-0.94-0.347-1.312
			V7.577c0-1.521,0.282-2.58,0.845-3.177c0.563-0.597,1.533-0.896,2.91-0.896c1.446,0,2.446,0.234,2.997,0.703
			C317.207,4.677,317.483,5.574,317.483,6.9z"/>
		<path fill="#F2961C" d="M320.65,3.797h2.402V23.36h-2.402V3.797z"/>
		<path fill="#F2961C" d="M325.33,3.797h7.705v1.552h-2.705V23.36h-2.295V5.349h-2.703V3.797H325.33z"/>
		<path fill="#F2961C" d="M335.294,3.797h2.365v15.836c0,1.017,0.131,1.702,0.391,2.056c0.262,0.354,0.724,0.531,1.389,0.531
			c0.652,0,1.105-0.177,1.361-0.531c0.255-0.354,0.382-1.039,0.382-2.056V3.797h2.366v15.571c0,1.68-0.303,2.82-0.907,3.422
			c-0.604,0.601-1.685,0.901-3.238,0.901c-1.53,0-2.598-0.305-3.202-0.915c-0.605-0.609-0.908-1.745-0.908-3.408V3.797H335.294z"/>
		<path fill="#F2961C" d="M349.759,3.797h3.309l3.79,19.562h-2.438l-0.906-5.438h-4.307l-0.979,5.438h-2.385L349.759,3.797z
			 M351.326,5.242l-1.904,11.247h3.789l-1.778-11.247H351.326z"/>
		<path fill="#F2961C" d="M366.769,6.9v1.87h-2.385V6.953c0-0.761-0.109-1.286-0.328-1.578c-0.221-0.292-0.607-0.438-1.166-0.438
			c-0.51,0-0.866,0.166-1.068,0.497c-0.201,0.332-0.302,1.028-0.302,2.089v12.109c0,1.088,0.106,1.795,0.319,2.122
			c0.215,0.327,0.605,0.491,1.175,0.491c0.485,0,0.836-0.155,1.05-0.465s0.32-0.836,0.32-1.578v-2.108h2.384v2.175
			c0,1.335-0.278,2.239-0.836,2.712c-0.558,0.474-1.554,0.709-2.989,0.709c-1.412,0-2.396-0.305-2.953-0.915
			c-0.559-0.609-0.837-1.746-0.837-3.408V7.789c0-1.653,0.279-2.781,0.837-3.382c0.557-0.602,1.541-0.902,2.953-0.902
			c1.447,0,2.447,0.234,2.998,0.703S366.769,5.574,366.769,6.9z"/>
		<path fill="#F2961C" d="M369.722,3.797h2.402V23.36h-2.402V3.797z"/>
		<path fill="#F2961C" d="M384.276,7.789v11.579c0,1.68-0.302,2.82-0.907,3.422c-0.604,0.601-1.684,0.901-3.238,0.901
			c-1.529,0-2.598-0.305-3.203-0.915c-0.604-0.609-0.906-1.745-0.906-3.408V7.789c0-1.646,0.305-2.771,0.916-3.375
			c0.611-0.606,1.688-0.909,3.229-0.909c1.543,0,2.613,0.301,3.213,0.902C383.977,5.008,384.276,6.136,384.276,7.789z M381.91,7.523
			c0-0.989-0.131-1.669-0.391-2.036c-0.262-0.366-0.725-0.55-1.389-0.55c-0.652,0-1.105,0.18-1.36,0.537
			c-0.255,0.358-0.382,1.041-0.382,2.049v12.109c0,1.017,0.13,1.702,0.391,2.056c0.262,0.354,0.723,0.531,1.389,0.531
			c0.651,0,1.105-0.177,1.36-0.531c0.255-0.354,0.382-1.039,0.382-2.056V7.523z"/>
		<path fill="#F2961C" d="M388.262,3.797h3.096l3.754,18.396h0.036L394.81,3.797h2.047V23.36h-3.132l-3.72-18.144h-0.07l0.32,18.144
			h-1.994L388.262,3.797L388.262,3.797z"/>
		<path fill="#F2961C" d="M400.914,3.797h6.262v1.552h-4.002v7.043h3.824v1.538h-3.824v7.878h4.109v1.552h-6.369V3.797z"/>
		<path fill="#F2961C" d="M417.388,6.9v1.87h-2.365V6.953c0-0.77-0.107-1.297-0.32-1.585c-0.213-0.287-0.594-0.432-1.141-0.432
			c-0.521,0-0.889,0.161-1.102,0.484c-0.215,0.323-0.32,0.895-0.32,1.717v0.955c0,0.398,0.074,0.807,0.223,1.227
			c0.146,0.421,0.363,0.816,0.648,1.188l2.953,3.886c0.498,0.654,0.861,1.271,1.086,1.851s0.338,1.179,0.338,1.797v1.327
			c0,1.697-0.289,2.843-0.863,3.435s-1.598,0.889-3.068,0.889c-1.436,0-2.436-0.238-2.998-0.716
			c-0.564-0.478-0.846-1.38-0.846-2.706v-2.175h2.385v2.108c0,0.796,0.105,1.335,0.32,1.617c0.213,0.283,0.604,0.426,1.174,0.426
			c0.58,0,0.98-0.162,1.201-0.484c0.219-0.323,0.328-1.032,0.328-2.129v-1.352c0-0.505-0.062-0.963-0.188-1.373
			c-0.125-0.411-0.305-0.784-0.543-1.121l-3.131-4.165c-0.439-0.558-0.773-1.088-1.004-1.593c-0.232-0.504-0.348-0.94-0.348-1.312
			V7.577c0-1.521,0.281-2.58,0.846-3.177c0.562-0.597,1.531-0.896,2.908-0.896c1.447,0,2.447,0.234,2.998,0.703
			S417.388,5.574,417.388,6.9z"/>
		<path fill="#F2961C" d="M426.125,3.797h2.652c2.24,0,3.707,0.263,4.395,0.789c0.688,0.525,1.031,1.729,1.031,3.614v10.756
			c0,1.875-0.35,3.077-1.049,3.606c-0.701,0.531-2.16,0.796-4.377,0.796h-2.652V3.797z M428.384,5.242v16.672h0.729
			c1.092,0,1.812-0.136,2.162-0.404s0.525-0.864,0.525-1.784V7.471c0-0.929-0.178-1.532-0.535-1.811
			c-0.355-0.278-1.072-0.418-2.152-0.418H428.384z"/>
		<path fill="#F2961C" d="M438.187,3.797h6.264v1.552h-4.002v7.043h3.824v1.538h-3.824v7.878h4.109v1.552h-6.371V3.797z"/>
		<path fill="#F2961C" d="M451.888,3.797h2.295l2.438,17.613h0.25l2.295-17.613h2.152L458.47,23.36h-3.521L451.888,3.797z"/>
		<path fill="#F2961C" d="M463.808,3.797h2.367v15.836c0,1.017,0.129,1.702,0.391,2.056c0.262,0.354,0.723,0.531,1.389,0.531
			c0.652,0,1.105-0.177,1.361-0.531c0.254-0.354,0.381-1.039,0.381-2.056V3.797h2.365v15.571c0,1.68-0.301,2.82-0.906,3.422
			c-0.605,0.601-1.684,0.901-3.238,0.901c-1.529,0-2.598-0.305-3.203-0.915c-0.604-0.609-0.906-1.745-0.906-3.408V3.797
			L463.808,3.797z"/>
		<path fill="#F2961C" d="M476.05,3.797h2.26v18.011h4.074v1.552h-6.334V3.797z"/>
		<path fill="#F2961C" d="M484.574,3.797h3.096l3.754,18.396h0.035l-0.338-18.396h2.045V23.36h-3.131l-3.719-18.144h-0.07
			l0.32,18.144h-1.994V3.797H484.574z"/>
		<path fill="#F2961C" d="M497.222,3.797h6.264v1.552h-4.002v7.043h3.824v1.538h-3.824v7.878h4.109v1.552h-6.371V3.797z"/>
		<path fill="#F2961C" d="M506.849,3.797h3.451c1.779,0,2.984,0.186,3.613,0.557c0.627,0.372,0.943,1.039,0.943,2.003v4.431
			c0,0.813-0.209,1.389-0.623,1.725c-0.416,0.336-1.152,0.539-2.207,0.61c1.127,0.053,1.908,0.248,2.348,0.583
			c0.439,0.336,0.658,0.92,0.658,1.751v7.904h-2.402v-7.308c0-0.919-0.174-1.517-0.523-1.791c-0.352-0.274-1.072-0.411-2.162-0.411
			h-0.836v9.51h-2.262V3.797H506.849z M509.109,5.242v7.148h0.801c1.033,0,1.721-0.135,2.064-0.405
			c0.344-0.27,0.516-0.868,0.516-1.797V7.471c0-0.938-0.172-1.543-0.516-1.817c-0.344-0.272-1.031-0.41-2.064-0.41L509.109,5.242
			L509.109,5.242z"/>
		<path fill="#F2961C" d="M521.208,3.797h3.309l3.789,19.562h-2.438l-0.906-5.438h-4.307l-0.979,5.438h-2.385L521.208,3.797z
			 M522.773,5.242l-1.904,11.247h3.791L522.88,5.242H522.773z"/>
		<path fill="#F2961C" d="M530.708,3.797h3.453c1.779,0,2.982,0.186,3.611,0.557c0.629,0.372,0.943,1.039,0.943,2.003v4.431
			c0,0.813-0.209,1.389-0.623,1.725c-0.416,0.336-1.15,0.539-2.207,0.61c1.127,0.053,1.91,0.248,2.35,0.583
			c0.438,0.336,0.656,0.92,0.656,1.751V20.8c0,0.964-0.312,1.632-0.941,2.003s-1.834,0.557-3.613,0.557h-3.629V3.797L530.708,3.797z
			 M532.968,5.242v7.148h0.801c1.033,0,1.721-0.135,2.064-0.405c0.344-0.27,0.516-0.868,0.516-1.797V7.471
			c0-0.938-0.172-1.543-0.516-1.817c-0.344-0.272-1.031-0.41-2.064-0.41L532.968,5.242L532.968,5.242z M532.968,13.85v8.064h0.836
			c1.092,0,1.812-0.136,2.162-0.404c0.352-0.269,0.525-0.864,0.525-1.784v-3.674c0-0.919-0.174-1.517-0.525-1.791
			c-0.35-0.274-1.07-0.411-2.162-0.411H532.968z"/>
		<path fill="#F2961C" d="M542.843,3.797h2.402V23.36h-2.402V3.797z"/>
		<path fill="#F2961C" d="M549.25,3.797h2.26v18.011h4.074v1.552h-6.334V3.797z"/>
		<path fill="#F2961C" d="M557.771,3.797h2.402V23.36h-2.402V3.797z"/>
		<path fill="#F2961C" d="M564.177,3.797h2.65c2.242,0,3.707,0.263,4.395,0.789c0.689,0.525,1.033,1.729,1.033,3.614v10.756
			c0,1.875-0.35,3.077-1.051,3.606c-0.699,0.531-2.158,0.796-4.377,0.796h-2.65V3.797z M566.437,5.242v16.672h0.729
			c1.092,0,1.812-0.136,2.162-0.404s0.525-0.864,0.525-1.784V7.471c0-0.929-0.178-1.532-0.533-1.811
			c-0.357-0.278-1.074-0.418-2.154-0.418H566.437z"/>
		<path fill="#F2961C" d="M578.464,3.797h3.309l3.789,19.562h-2.438l-0.906-5.438h-4.307l-0.979,5.438h-2.385L578.464,3.797z
			 M580.031,5.242l-1.904,11.247h3.789l-1.779-11.247H580.031z"/>
		<path fill="#F2961C" d="M587.964,3.797h2.652c2.242,0,3.707,0.263,4.395,0.789c0.688,0.525,1.031,1.729,1.031,3.614v10.756
			c0,1.875-0.35,3.077-1.049,3.606c-0.701,0.531-2.16,0.796-4.377,0.796h-2.652V3.797z M590.224,5.242v16.672h0.73
			c1.09,0,1.811-0.136,2.162-0.404c0.35-0.269,0.523-0.864,0.523-1.784V7.471c0-0.929-0.178-1.532-0.533-1.811
			s-1.074-0.418-2.152-0.418H590.224z"/>
	</g>
	<g>
		<g>
			<path fill="#575756" d="M43.103,205.612v6.834H41.55l-0.002-4.613l-0.618,4.613h-1.102l-0.652-4.509l-0.002,4.509H37.62v-6.834
				h2.3c0.068,0.411,0.138,0.896,0.211,1.453l0.252,1.739l0.408-3.191L43.103,205.612L43.103,205.612z"/>
			<path fill="#575756" d="M45.29,209.015h-1.6v-0.375c0-0.434,0.05-0.768,0.15-1.003c0.1-0.235,0.3-0.442,0.602-0.623
				c0.301-0.18,0.692-0.27,1.174-0.27c0.577,0,1.011,0.102,1.304,0.306s0.469,0.454,0.528,0.751
				c0.059,0.297,0.089,0.908,0.089,1.834v2.812h-1.659v-0.498c-0.104,0.199-0.239,0.35-0.403,0.449
				c-0.165,0.101-0.361,0.15-0.589,0.15c-0.298,0-0.572-0.083-0.821-0.251s-0.374-0.534-0.374-1.101v-0.46
				c0-0.419,0.066-0.704,0.198-0.856c0.132-0.152,0.46-0.329,0.984-0.532c0.56-0.219,0.86-0.367,0.899-0.443
				c0.04-0.075,0.059-0.229,0.059-0.464c0-0.292-0.022-0.482-0.065-0.571c-0.044-0.09-0.116-0.134-0.217-0.134
				c-0.115,0-0.187,0.037-0.215,0.112c-0.028,0.074-0.042,0.269-0.042,0.58v0.587H45.29z M47.084,205.325l-1.389,1.144h-0.857
				l0.743-1.144H47.084z M45.83,209.783c-0.273,0.199-0.431,0.366-0.475,0.502c-0.044,0.135-0.065,0.33-0.065,0.583
				c0,0.29,0.019,0.477,0.057,0.561c0.038,0.084,0.113,0.127,0.226,0.127c0.107,0,0.177-0.033,0.209-0.099
				c0.032-0.066,0.048-0.24,0.048-0.521V209.783z"/>
			<path fill="#575756" d="M51.605,208.635h-1.511v-0.304c0-0.26-0.015-0.423-0.044-0.492c-0.03-0.069-0.103-0.104-0.221-0.104
				c-0.096,0-0.167,0.031-0.215,0.096c-0.048,0.063-0.072,0.158-0.072,0.285c0,0.171,0.012,0.297,0.036,0.377
				c0.024,0.081,0.096,0.168,0.215,0.264s0.365,0.235,0.737,0.418c0.495,0.242,0.82,0.47,0.975,0.684
				c0.155,0.215,0.232,0.525,0.232,0.934c0,0.456-0.059,0.8-0.177,1.032c-0.118,0.231-0.316,0.41-0.593,0.535
				c-0.277,0.125-0.612,0.188-1.003,0.188c-0.433,0-0.804-0.067-1.112-0.202s-0.52-0.318-0.635-0.549
				c-0.115-0.231-0.173-0.58-0.173-1.047v-0.271h1.511v0.354c0,0.301,0.019,0.497,0.057,0.587c0.038,0.09,0.113,0.135,0.226,0.135
				c0.121,0,0.206-0.03,0.253-0.091c0.047-0.062,0.072-0.188,0.072-0.382c0-0.268-0.031-0.436-0.093-0.502
				c-0.065-0.068-0.395-0.269-0.992-0.601c-0.501-0.28-0.806-0.537-0.916-0.766c-0.11-0.229-0.165-0.502-0.165-0.817
				c0-0.447,0.059-0.776,0.177-0.989c0.118-0.213,0.319-0.376,0.602-0.492c0.283-0.115,0.612-0.173,0.986-0.173
				c0.372,0,0.687,0.047,0.948,0.141c0.26,0.095,0.46,0.219,0.599,0.374s0.224,0.298,0.253,0.43c0.03,0.132,0.044,0.339,0.044,0.621
				L51.605,208.635L51.605,208.635z"/>
			<path fill="#575756" d="M57.199,208.635h-1.511v-0.304c0-0.26-0.015-0.423-0.044-0.492c-0.03-0.069-0.103-0.104-0.221-0.104
				c-0.096,0-0.167,0.031-0.215,0.096c-0.048,0.063-0.072,0.158-0.072,0.285c0,0.171,0.012,0.297,0.036,0.377
				c0.024,0.081,0.096,0.168,0.215,0.264c0.119,0.096,0.365,0.235,0.737,0.418c0.495,0.242,0.82,0.47,0.975,0.684
				c0.155,0.215,0.232,0.525,0.232,0.934c0,0.456-0.059,0.8-0.177,1.032c-0.118,0.231-0.316,0.41-0.593,0.535
				s-0.612,0.188-1.003,0.188c-0.433,0-0.804-0.067-1.112-0.202c-0.308-0.135-0.52-0.318-0.635-0.549
				c-0.115-0.231-0.173-0.58-0.173-1.047v-0.271h1.511v0.354c0,0.301,0.019,0.497,0.057,0.587s0.113,0.135,0.226,0.135
				c0.121,0,0.206-0.03,0.253-0.091c0.047-0.062,0.072-0.188,0.072-0.382c0-0.268-0.031-0.436-0.093-0.502
				c-0.065-0.068-0.395-0.269-0.992-0.601c-0.501-0.28-0.806-0.537-0.916-0.766c-0.11-0.229-0.165-0.502-0.165-0.817
				c0-0.447,0.059-0.776,0.177-0.989s0.319-0.376,0.602-0.492c0.283-0.115,0.612-0.173,0.986-0.173c0.372,0,0.687,0.047,0.948,0.141
				c0.26,0.095,0.46,0.219,0.599,0.374c0.139,0.155,0.224,0.298,0.253,0.43c0.03,0.132,0.044,0.339,0.044,0.621L57.199,208.635
				L57.199,208.635z"/>
			<path fill="#575756" d="M59.31,209.015h-1.6v-0.375c0-0.434,0.05-0.768,0.15-1.003s0.3-0.442,0.602-0.623
				c0.301-0.18,0.692-0.27,1.174-0.27c0.577,0,1.011,0.102,1.304,0.306s0.469,0.454,0.528,0.751
				c0.059,0.297,0.089,0.908,0.089,1.834v2.812h-1.659v-0.498c-0.104,0.199-0.239,0.35-0.403,0.449
				c-0.165,0.101-0.361,0.15-0.589,0.15c-0.298,0-0.572-0.083-0.821-0.251s-0.374-0.534-0.374-1.101v-0.46
				c0-0.419,0.066-0.704,0.198-0.856c0.132-0.152,0.46-0.329,0.984-0.532c0.56-0.219,0.86-0.367,0.899-0.443
				c0.04-0.075,0.059-0.229,0.059-0.464c0-0.292-0.022-0.482-0.065-0.571c-0.044-0.09-0.116-0.134-0.217-0.134
				c-0.115,0-0.187,0.037-0.215,0.112c-0.028,0.074-0.042,0.269-0.042,0.58v0.587H59.31z M59.85,209.783
				c-0.273,0.199-0.431,0.366-0.475,0.502c-0.044,0.135-0.065,0.33-0.065,0.583c0,0.29,0.019,0.477,0.057,0.561
				c0.038,0.084,0.113,0.127,0.226,0.127c0.107,0,0.177-0.033,0.209-0.099c0.032-0.066,0.048-0.24,0.048-0.521V209.783z"/>
			<path fill="#575756" d="M63.898,205.612v6.834h-1.756v-6.834H63.898z"/>
			<path fill="#575756" d="M68.415,206.845v5.603H66.68l0.03-0.466c-0.118,0.189-0.264,0.331-0.437,0.426s-0.372,0.142-0.597,0.142
				c-0.256,0-0.469-0.045-0.637-0.135c-0.169-0.09-0.293-0.209-0.374-0.359c-0.08-0.148-0.13-0.305-0.15-0.466
				c-0.02-0.162-0.03-0.483-0.03-0.965v-3.778h1.706v3.812c0,0.437,0.013,0.694,0.04,0.776s0.099,0.123,0.218,0.123
				c0.126,0,0.202-0.042,0.226-0.127c0.024-0.085,0.036-0.355,0.036-0.813v-3.771h1.704V206.845z"/>
			<path fill="#575756" d="M72.907,205.612v6.834h-1.706v-0.405c-0.163,0.169-0.335,0.296-0.515,0.381
				c-0.18,0.084-0.369,0.126-0.566,0.126c-0.264,0-0.494-0.069-0.688-0.208c-0.194-0.14-0.319-0.301-0.374-0.483
				c-0.055-0.183-0.083-0.48-0.083-0.895v-2.622c0-0.431,0.028-0.736,0.083-0.916c0.055-0.18,0.181-0.338,0.378-0.475
				c0.197-0.137,0.432-0.205,0.705-0.205c0.211,0,0.405,0.038,0.58,0.113c0.176,0.076,0.336,0.19,0.479,0.344v-1.589H72.907z
				 M71.201,208.255c0-0.206-0.018-0.343-0.053-0.414s-0.105-0.105-0.209-0.105c-0.101,0-0.17,0.031-0.205,0.096
				c-0.035,0.063-0.053,0.205-0.053,0.424v2.744c0,0.228,0.017,0.377,0.051,0.449c0.034,0.071,0.098,0.107,0.194,0.107
				c0.11,0,0.183-0.04,0.219-0.121c0.037-0.08,0.055-0.275,0.055-0.589L71.201,208.255L71.201,208.255z"/>
			<path fill="#575756" d="M76.778,206.845l-0.03,0.495c0.152-0.2,0.319-0.35,0.502-0.448c0.183-0.098,0.383-0.147,0.6-0.147
				c0.264,0,0.493,0.07,0.686,0.213c0.193,0.143,0.313,0.306,0.361,0.492c0.048,0.186,0.072,0.501,0.072,0.944v2.36
				c0,0.509-0.03,0.872-0.091,1.087s-0.184,0.387-0.372,0.515c-0.187,0.128-0.413,0.192-0.677,0.192
				c-0.211,0-0.407-0.049-0.587-0.148c-0.18-0.099-0.345-0.244-0.494-0.438v1.284h-1.706v-6.4H76.778L76.778,206.845z
				 M77.263,208.474c0-0.346-0.013-0.556-0.038-0.629s-0.096-0.109-0.211-0.109c-0.113,0-0.185,0.042-0.218,0.126
				c-0.032,0.084-0.048,0.289-0.048,0.612v2.322c0,0.337,0.017,0.548,0.051,0.633c0.034,0.085,0.107,0.127,0.219,0.127
				c0.11,0,0.178-0.039,0.205-0.116c0.027-0.076,0.04-0.265,0.04-0.562V208.474z"/>
			<path fill="#575756" d="M81.054,209.015h-1.6v-0.375c0-0.434,0.05-0.768,0.15-1.003s0.3-0.442,0.602-0.623
				c0.301-0.18,0.692-0.27,1.174-0.27c0.577,0,1.011,0.102,1.304,0.306s0.469,0.454,0.528,0.751s0.089,0.908,0.089,1.834v2.812
				h-1.659v-0.498c-0.104,0.199-0.239,0.35-0.403,0.449c-0.165,0.101-0.361,0.15-0.589,0.15c-0.298,0-0.572-0.083-0.821-0.251
				s-0.374-0.534-0.374-1.101v-0.46c0-0.419,0.066-0.704,0.198-0.856c0.132-0.152,0.46-0.329,0.984-0.532
				c0.56-0.219,0.86-0.367,0.899-0.443c0.04-0.075,0.059-0.229,0.059-0.464c0-0.292-0.022-0.482-0.065-0.571
				c-0.044-0.09-0.116-0.134-0.217-0.134c-0.115,0-0.187,0.037-0.215,0.112c-0.028,0.074-0.042,0.269-0.042,0.58v0.587H81.054z
				 M81.594,209.783c-0.273,0.199-0.431,0.366-0.475,0.502c-0.044,0.135-0.065,0.33-0.065,0.583c0,0.29,0.019,0.477,0.057,0.561
				c0.038,0.084,0.113,0.127,0.226,0.127c0.107,0,0.177-0.033,0.209-0.099c0.032-0.066,0.048-0.24,0.048-0.521
				C81.594,210.936,81.594,209.783,81.594,209.783z"/>
			<path fill="#575756" d="M85.592,206.845l-0.068,0.737c0.248-0.527,0.606-0.808,1.076-0.838v1.971
				c-0.312,0-0.542,0.042-0.688,0.127c-0.146,0.084-0.237,0.202-0.27,0.353c-0.034,0.15-0.051,0.497-0.051,1.041v2.213h-1.706
				v-5.603L85.592,206.845L85.592,206.845z"/>
			<path fill="#575756" d="M88.505,209.015h-1.6v-0.375c0-0.434,0.05-0.768,0.15-1.003c0.1-0.235,0.3-0.442,0.602-0.623
				c0.301-0.18,0.692-0.27,1.174-0.27c0.577,0,1.011,0.102,1.304,0.306c0.293,0.204,0.469,0.454,0.528,0.751
				s0.089,0.908,0.089,1.834v2.812h-1.659v-0.498c-0.104,0.199-0.239,0.35-0.403,0.449c-0.165,0.101-0.361,0.15-0.589,0.15
				c-0.298,0-0.572-0.083-0.821-0.251c-0.249-0.168-0.374-0.534-0.374-1.101v-0.46c0-0.419,0.066-0.704,0.198-0.856
				s0.46-0.329,0.984-0.532c0.56-0.219,0.86-0.367,0.899-0.443c0.04-0.075,0.059-0.229,0.059-0.464c0-0.292-0.022-0.482-0.065-0.571
				c-0.044-0.09-0.116-0.134-0.217-0.134c-0.115,0-0.187,0.037-0.215,0.112c-0.028,0.074-0.042,0.269-0.042,0.58v0.587H88.505z
				 M89.045,209.783c-0.273,0.199-0.431,0.366-0.475,0.502c-0.044,0.135-0.065,0.33-0.065,0.583c0,0.29,0.019,0.477,0.057,0.561
				s0.113,0.127,0.226,0.127c0.107,0,0.177-0.033,0.209-0.099c0.032-0.066,0.048-0.24,0.048-0.521V209.783z"/>
			<path fill="#575756" d="M94.617,205.612v6.834h-1.756v-6.834H94.617z"/>
			<path fill="#575756" d="M96.753,209.015h-1.6v-0.375c0-0.434,0.05-0.768,0.15-1.003c0.1-0.235,0.3-0.442,0.602-0.623
				c0.301-0.18,0.692-0.27,1.174-0.27c0.577,0,1.011,0.102,1.304,0.306s0.469,0.454,0.528,0.751S99,208.709,99,209.635v2.812h-1.66
				v-0.498c-0.104,0.199-0.239,0.35-0.403,0.449c-0.165,0.101-0.361,0.15-0.589,0.15c-0.298,0-0.572-0.083-0.821-0.251
				s-0.374-0.534-0.374-1.101v-0.46c0-0.419,0.066-0.704,0.198-0.856s0.46-0.329,0.984-0.532c0.56-0.219,0.86-0.367,0.899-0.443
				c0.04-0.075,0.059-0.229,0.059-0.464c0-0.292-0.022-0.482-0.065-0.571c-0.044-0.09-0.116-0.134-0.217-0.134
				c-0.115,0-0.187,0.037-0.215,0.112c-0.028,0.074-0.042,0.269-0.042,0.58L96.753,209.015L96.753,209.015z M97.294,209.783
				c-0.273,0.199-0.431,0.366-0.475,0.502c-0.044,0.135-0.065,0.33-0.065,0.583c0,0.29,0.019,0.477,0.057,0.561
				s0.113,0.127,0.226,0.127c0.107,0,0.177-0.033,0.209-0.099c0.032-0.066,0.048-0.24,0.048-0.521V209.783z"/>
			<path fill="#575756" d="M103.069,208.635h-1.511v-0.304c0-0.26-0.015-0.423-0.044-0.492c-0.03-0.069-0.103-0.104-0.221-0.104
				c-0.096,0-0.167,0.031-0.215,0.096c-0.048,0.063-0.072,0.158-0.072,0.285c0,0.171,0.012,0.297,0.036,0.377
				c0.024,0.081,0.096,0.168,0.215,0.264c0.119,0.096,0.365,0.235,0.737,0.418c0.495,0.242,0.82,0.47,0.975,0.684
				c0.155,0.215,0.232,0.525,0.232,0.934c0,0.456-0.059,0.8-0.177,1.032c-0.118,0.231-0.316,0.41-0.593,0.535
				c-0.277,0.125-0.612,0.188-1.003,0.188c-0.433,0-0.804-0.067-1.112-0.202s-0.52-0.318-0.635-0.549
				c-0.115-0.231-0.173-0.58-0.173-1.047v-0.271h1.511v0.354c0,0.301,0.019,0.497,0.057,0.587c0.038,0.09,0.113,0.135,0.226,0.135
				c0.121,0,0.206-0.03,0.253-0.091c0.047-0.062,0.072-0.188,0.072-0.382c0-0.268-0.031-0.436-0.093-0.502
				c-0.065-0.068-0.395-0.269-0.992-0.601c-0.501-0.28-0.806-0.537-0.916-0.766c-0.11-0.229-0.165-0.502-0.165-0.817
				c0-0.447,0.059-0.776,0.177-0.989c0.118-0.213,0.319-0.376,0.602-0.492c0.283-0.115,0.612-0.173,0.986-0.173
				c0.372,0,0.687,0.047,0.948,0.141c0.26,0.095,0.46,0.219,0.599,0.374s0.224,0.298,0.253,0.43c0.03,0.132,0.044,0.339,0.044,0.621
				L103.069,208.635L103.069,208.635z"/>
			<path fill="#575756" d="M39.304,215.45l-0.03,0.494c0.152-0.199,0.319-0.35,0.502-0.447c0.183-0.099,0.383-0.148,0.6-0.148
				c0.264,0,0.493,0.071,0.686,0.213c0.193,0.144,0.313,0.307,0.361,0.492c0.048,0.187,0.072,0.501,0.072,0.945v2.359
				c0,0.51-0.03,0.872-0.091,1.087c-0.061,0.216-0.184,0.388-0.372,0.516c-0.187,0.128-0.413,0.191-0.677,0.191
				c-0.211,0-0.407-0.049-0.587-0.147s-0.345-0.245-0.494-0.439v1.284h-1.706v-6.399H39.304z M39.789,217.08
				c0-0.347-0.013-0.557-0.038-0.629c-0.025-0.073-0.096-0.109-0.211-0.109c-0.113,0-0.185,0.042-0.218,0.126
				c-0.032,0.084-0.048,0.289-0.048,0.612v2.321c0,0.338,0.017,0.549,0.051,0.634c0.034,0.085,0.107,0.127,0.219,0.127
				c0.11,0,0.178-0.039,0.205-0.116s0.04-0.265,0.04-0.563V217.08z"/>
			<path fill="#575756" d="M45.919,218.351h-2.208v1.211c0,0.253,0.018,0.417,0.055,0.49s0.107,0.11,0.211,0.11
				c0.13,0,0.216-0.05,0.26-0.146c0.043-0.097,0.065-0.285,0.065-0.563v-0.739h1.617v0.414c0,0.346-0.022,0.612-0.065,0.798
				s-0.146,0.384-0.306,0.595c-0.16,0.211-0.364,0.369-0.61,0.476c-0.246,0.105-0.555,0.157-0.927,0.157
				c-0.36,0-0.678-0.052-0.954-0.155c-0.276-0.104-0.49-0.247-0.644-0.43c-0.154-0.182-0.26-0.381-0.319-0.6
				c-0.059-0.218-0.089-0.535-0.089-0.952v-1.634c0-0.49,0.066-0.876,0.198-1.159c0.132-0.283,0.349-0.5,0.65-0.649
				c0.301-0.15,0.647-0.227,1.039-0.227c0.478,0,0.873,0.091,1.184,0.272s0.529,0.422,0.654,0.722s0.188,0.721,0.188,1.264
				L45.919,218.351L45.919,218.351z M44.209,217.438v-0.409c0-0.289-0.015-0.477-0.046-0.562c-0.031-0.085-0.094-0.126-0.19-0.126
				c-0.118,0-0.191,0.036-0.219,0.107c-0.028,0.07-0.042,0.265-0.042,0.58v0.409H44.209z"/>
			<path fill="#575756" d="M48.182,215.45l-0.068,0.736c0.248-0.526,0.606-0.807,1.076-0.838v1.971
				c-0.312,0-0.542,0.042-0.688,0.127s-0.237,0.202-0.27,0.354c-0.034,0.15-0.051,0.497-0.051,1.041v2.212h-1.706v-5.602
				L48.182,215.45L48.182,215.45z"/>
			<path fill="#575756" d="M53.053,217.24h-1.511v-0.305c0-0.259-0.015-0.423-0.044-0.492c-0.03-0.068-0.103-0.103-0.221-0.103
				c-0.096,0-0.167,0.031-0.215,0.095c-0.048,0.064-0.072,0.158-0.072,0.285c0,0.171,0.012,0.297,0.036,0.377
				c0.024,0.081,0.096,0.168,0.215,0.264c0.119,0.097,0.365,0.235,0.737,0.419c0.495,0.241,0.82,0.47,0.975,0.684
				c0.155,0.214,0.232,0.525,0.232,0.933c0,0.456-0.059,0.801-0.177,1.032c-0.118,0.232-0.316,0.411-0.593,0.536
				s-0.612,0.188-1.003,0.188c-0.433,0-0.804-0.066-1.112-0.201c-0.308-0.136-0.52-0.318-0.635-0.55
				c-0.115-0.23-0.173-0.579-0.173-1.047v-0.27h1.511v0.354c0,0.302,0.019,0.497,0.057,0.587c0.038,0.091,0.113,0.136,0.226,0.136
				c0.121,0,0.206-0.03,0.253-0.092c0.047-0.061,0.072-0.188,0.072-0.382c0-0.267-0.031-0.435-0.093-0.502
				c-0.065-0.067-0.395-0.268-0.992-0.6c-0.501-0.281-0.806-0.537-0.916-0.767c-0.11-0.229-0.165-0.502-0.165-0.816
				c0-0.448,0.059-0.777,0.177-0.99c0.118-0.212,0.319-0.376,0.602-0.492c0.283-0.114,0.612-0.173,0.986-0.173
				c0.372,0,0.687,0.047,0.948,0.142c0.26,0.095,0.46,0.219,0.599,0.373c0.139,0.155,0.224,0.299,0.253,0.431
				c0.03,0.132,0.044,0.339,0.044,0.621L53.053,217.24L53.053,217.24z"/>
			<path fill="#575756" d="M57.498,217.417v1.372c0,0.504-0.025,0.873-0.076,1.107c-0.051,0.235-0.159,0.455-0.325,0.659
				s-0.379,0.354-0.639,0.452c-0.26,0.097-0.559,0.146-0.897,0.146c-0.377,0-0.697-0.042-0.958-0.125
				c-0.262-0.083-0.465-0.208-0.61-0.375s-0.249-0.369-0.31-0.607c-0.062-0.238-0.093-0.595-0.093-1.07v-1.435
				c0-0.521,0.056-0.928,0.169-1.221c0.113-0.292,0.315-0.526,0.608-0.704s0.667-0.267,1.123-0.267c0.383,0,0.711,0.058,0.986,0.171
				c0.275,0.114,0.486,0.263,0.635,0.445s0.251,0.372,0.306,0.566C57.471,216.725,57.498,217.021,57.498,217.417z M55.793,216.996
				c0-0.287-0.015-0.469-0.046-0.542c-0.031-0.075-0.097-0.112-0.198-0.112s-0.169,0.037-0.203,0.112
				c-0.034,0.073-0.051,0.255-0.051,0.542v2.527c0,0.266,0.017,0.438,0.051,0.518c0.034,0.081,0.1,0.121,0.198,0.121
				c0.101,0,0.168-0.037,0.201-0.11c0.032-0.073,0.048-0.231,0.048-0.473V216.996z"/>
			<path fill="#575756" d="M59.795,215.45l-0.03,0.516c0.124-0.206,0.275-0.36,0.454-0.463c0.179-0.104,0.385-0.154,0.619-0.154
				c0.292,0,0.532,0.069,0.718,0.207s0.305,0.312,0.359,0.521c0.053,0.21,0.08,0.56,0.08,1.049v3.926H60.29v-3.879
				c0-0.386-0.013-0.621-0.038-0.705s-0.096-0.126-0.211-0.126c-0.121,0-0.197,0.048-0.228,0.146
				c-0.031,0.099-0.046,0.356-0.046,0.779v3.787H58.06v-5.602h1.735V215.45z"/>
			<path fill="#575756" d="M64.105,217.62h-1.6v-0.375c0-0.435,0.05-0.769,0.15-1.003c0.1-0.235,0.3-0.442,0.602-0.623
				c0.301-0.181,0.692-0.271,1.174-0.271c0.577,0,1.011,0.103,1.304,0.306c0.293,0.204,0.469,0.454,0.528,0.752
				c0.059,0.297,0.089,0.907,0.089,1.834v2.812h-1.659v-0.499c-0.104,0.2-0.239,0.35-0.403,0.45c-0.165,0.1-0.361,0.149-0.589,0.149
				c-0.298,0-0.572-0.083-0.821-0.251s-0.374-0.533-0.374-1.1v-0.46c0-0.419,0.066-0.705,0.198-0.857
				c0.132-0.151,0.46-0.329,0.984-0.531c0.56-0.22,0.86-0.367,0.899-0.443c0.04-0.076,0.059-0.23,0.059-0.464
				c0-0.292-0.022-0.483-0.065-0.572c-0.044-0.089-0.116-0.133-0.217-0.133c-0.115,0-0.187,0.037-0.215,0.112
				c-0.028,0.073-0.042,0.268-0.042,0.58v0.587H64.105z M64.645,218.389c-0.273,0.2-0.431,0.367-0.475,0.502
				s-0.065,0.33-0.065,0.583c0,0.29,0.019,0.478,0.057,0.562s0.113,0.127,0.226,0.127c0.107,0,0.177-0.033,0.209-0.1
				c0.032-0.065,0.048-0.239,0.048-0.521V218.389z"/>
			<path fill="#575756" d="M70.42,217.24h-1.511v-0.305c0-0.259-0.015-0.423-0.044-0.492c-0.03-0.068-0.103-0.103-0.221-0.103
				c-0.096,0-0.167,0.031-0.215,0.095c-0.048,0.064-0.072,0.158-0.072,0.285c0,0.171,0.012,0.297,0.036,0.377
				c0.024,0.081,0.096,0.168,0.215,0.264c0.119,0.097,0.365,0.235,0.737,0.419c0.495,0.241,0.82,0.47,0.975,0.684
				c0.155,0.214,0.232,0.525,0.232,0.933c0,0.456-0.059,0.801-0.177,1.032c-0.118,0.232-0.316,0.411-0.593,0.536
				c-0.277,0.125-0.612,0.188-1.003,0.188c-0.433,0-0.804-0.066-1.112-0.201c-0.308-0.136-0.52-0.318-0.635-0.55
				c-0.115-0.23-0.173-0.579-0.173-1.047v-0.27h1.511v0.354c0,0.302,0.019,0.497,0.057,0.587c0.038,0.091,0.113,0.136,0.226,0.136
				c0.121,0,0.206-0.03,0.253-0.092c0.047-0.061,0.072-0.188,0.072-0.382c0-0.267-0.031-0.435-0.093-0.502
				c-0.065-0.067-0.395-0.268-0.992-0.6c-0.501-0.281-0.806-0.537-0.916-0.767c-0.11-0.229-0.165-0.502-0.165-0.816
				c0-0.448,0.059-0.777,0.177-0.99c0.118-0.212,0.319-0.376,0.602-0.492c0.283-0.114,0.612-0.173,0.986-0.173
				c0.372,0,0.687,0.047,0.948,0.142c0.26,0.095,0.46,0.219,0.599,0.373c0.139,0.155,0.224,0.299,0.253,0.431
				c0.03,0.132,0.044,0.339,0.044,0.621L70.42,217.24L70.42,217.24z"/>
			<path fill="#575756" d="M76.301,217.565h-1.608v-0.646c0-0.226-0.018-0.378-0.055-0.458c-0.037-0.08-0.104-0.12-0.203-0.12
				c-0.098,0-0.165,0.035-0.198,0.104c-0.034,0.07-0.051,0.229-0.051,0.474v2.643c0,0.2,0.025,0.351,0.076,0.45
				c0.051,0.1,0.125,0.15,0.224,0.15c0.115,0,0.193-0.053,0.234-0.156c0.041-0.104,0.061-0.301,0.061-0.591v-0.667h1.52
				c-0.003,0.446-0.019,0.783-0.049,1.006c-0.03,0.224-0.124,0.454-0.283,0.688c-0.159,0.235-0.367,0.412-0.623,0.532
				c-0.256,0.12-0.573,0.179-0.95,0.179c-0.481,0-0.863-0.082-1.144-0.246c-0.281-0.165-0.481-0.396-0.597-0.692
				c-0.116-0.296-0.175-0.718-0.175-1.265v-1.592c0-0.476,0.048-0.834,0.144-1.076s0.3-0.458,0.612-0.648s0.692-0.285,1.14-0.285
				c0.445,0,0.825,0.094,1.14,0.283c0.315,0.188,0.525,0.426,0.629,0.713C76.249,216.632,76.301,217.039,76.301,217.565z"/>
			<path fill="#575756" d="M80.666,217.417v1.372c0,0.504-0.025,0.873-0.076,1.107c-0.051,0.235-0.159,0.455-0.325,0.659
				s-0.379,0.354-0.639,0.452c-0.26,0.097-0.559,0.146-0.897,0.146c-0.377,0-0.697-0.042-0.958-0.125
				c-0.262-0.083-0.465-0.208-0.61-0.375s-0.249-0.369-0.31-0.607c-0.062-0.238-0.093-0.595-0.093-1.07v-1.435
				c0-0.521,0.056-0.928,0.169-1.221c0.113-0.292,0.315-0.526,0.608-0.704s0.667-0.267,1.123-0.267c0.383,0,0.711,0.058,0.986,0.171
				c0.275,0.114,0.486,0.263,0.635,0.445c0.149,0.183,0.251,0.372,0.306,0.566C80.638,216.725,80.666,217.021,80.666,217.417z
				 M78.96,216.996c0-0.287-0.015-0.469-0.046-0.542c-0.031-0.075-0.097-0.112-0.198-0.112c-0.101,0-0.169,0.037-0.203,0.112
				c-0.034,0.073-0.051,0.255-0.051,0.542v2.527c0,0.266,0.017,0.438,0.051,0.518c0.034,0.081,0.1,0.121,0.198,0.121
				c0.101,0,0.168-0.037,0.201-0.11c0.032-0.073,0.048-0.231,0.048-0.473V216.996z"/>
			<path fill="#575756" d="M82.962,215.45l-0.03,0.516c0.124-0.206,0.275-0.36,0.454-0.463c0.179-0.104,0.385-0.154,0.619-0.154
				c0.292,0,0.532,0.069,0.718,0.207s0.305,0.312,0.359,0.521c0.053,0.21,0.08,0.56,0.08,1.049v3.926h-1.705v-3.879
				c0-0.386-0.013-0.621-0.038-0.705s-0.096-0.126-0.211-0.126c-0.121,0-0.197,0.048-0.228,0.146
				c-0.031,0.099-0.046,0.356-0.046,0.779v3.787h-1.706v-5.602h1.734V215.45z"/>
			<path fill="#575756" d="M91.152,214.218v6.834h-1.706v-0.406c-0.163,0.169-0.335,0.296-0.515,0.381
				c-0.18,0.084-0.369,0.126-0.566,0.126c-0.264,0-0.494-0.068-0.688-0.208c-0.194-0.14-0.319-0.301-0.374-0.482
				c-0.055-0.184-0.083-0.481-0.083-0.896v-2.622c0-0.431,0.028-0.735,0.083-0.916c0.055-0.18,0.181-0.338,0.378-0.475
				c0.197-0.136,0.432-0.205,0.705-0.205c0.211,0,0.405,0.038,0.58,0.114c0.176,0.076,0.336,0.189,0.479,0.343v-1.588H91.152z
				 M89.447,216.86c0-0.206-0.018-0.343-0.053-0.414c-0.035-0.07-0.105-0.104-0.209-0.104c-0.101,0-0.17,0.031-0.205,0.095
				c-0.035,0.064-0.053,0.205-0.053,0.424v2.744c0,0.229,0.017,0.377,0.051,0.449s0.098,0.108,0.194,0.108
				c0.11,0,0.183-0.04,0.219-0.121c0.037-0.08,0.055-0.276,0.055-0.589L89.447,216.86L89.447,216.86z"/>
			<path fill="#575756" d="M93.52,214.218v0.891h-1.756v-0.891H93.52z M93.52,215.45v5.602h-1.756v-5.602H93.52z"/>
			<path fill="#575756" d="M97.615,217.24h-1.511v-0.305c0-0.259-0.015-0.423-0.044-0.492c-0.03-0.068-0.103-0.103-0.221-0.103
				c-0.096,0-0.167,0.031-0.215,0.095c-0.048,0.064-0.072,0.158-0.072,0.285c0,0.171,0.012,0.297,0.036,0.377
				c0.024,0.081,0.096,0.168,0.215,0.264c0.119,0.097,0.365,0.235,0.737,0.419c0.495,0.241,0.82,0.47,0.975,0.684
				c0.155,0.214,0.232,0.525,0.232,0.933c0,0.456-0.059,0.801-0.177,1.032c-0.118,0.232-0.316,0.411-0.593,0.536
				s-0.612,0.188-1.003,0.188c-0.433,0-0.804-0.066-1.112-0.201c-0.308-0.136-0.52-0.318-0.635-0.55
				c-0.115-0.23-0.173-0.579-0.173-1.047v-0.27h1.511v0.354c0,0.302,0.019,0.497,0.057,0.587c0.038,0.091,0.113,0.136,0.226,0.136
				c0.121,0,0.206-0.03,0.253-0.092c0.047-0.061,0.072-0.188,0.072-0.382c0-0.267-0.031-0.435-0.093-0.502
				c-0.065-0.067-0.395-0.268-0.992-0.6c-0.501-0.281-0.806-0.537-0.916-0.767c-0.11-0.229-0.165-0.502-0.165-0.816
				c0-0.448,0.059-0.777,0.177-0.99c0.118-0.212,0.319-0.376,0.602-0.492c0.283-0.114,0.612-0.173,0.986-0.173
				c0.372,0,0.687,0.047,0.948,0.142c0.26,0.095,0.46,0.219,0.599,0.373c0.139,0.155,0.224,0.299,0.253,0.431
				c0.03,0.132,0.044,0.339,0.044,0.621L97.615,217.24L97.615,217.24z"/>
			<path fill="#575756" d="M101.972,217.565h-1.608v-0.646c0-0.226-0.018-0.378-0.055-0.458s-0.104-0.12-0.203-0.12
				c-0.098,0-0.165,0.035-0.198,0.104c-0.034,0.07-0.051,0.229-0.051,0.474v2.643c0,0.2,0.025,0.351,0.076,0.45
				c0.051,0.1,0.125,0.15,0.224,0.15c0.115,0,0.193-0.053,0.234-0.156c0.041-0.104,0.061-0.301,0.061-0.591v-0.667h1.52
				c-0.003,0.446-0.019,0.783-0.049,1.006c-0.03,0.224-0.124,0.454-0.283,0.688c-0.159,0.235-0.367,0.412-0.623,0.532
				c-0.256,0.12-0.573,0.179-0.95,0.179c-0.481,0-0.863-0.082-1.144-0.246c-0.281-0.165-0.481-0.396-0.597-0.692
				c-0.116-0.296-0.175-0.718-0.175-1.265v-1.592c0-0.476,0.048-0.834,0.144-1.076c0.096-0.242,0.3-0.458,0.612-0.648
				c0.312-0.19,0.692-0.285,1.14-0.285c0.445,0,0.825,0.094,1.14,0.283c0.315,0.188,0.525,0.426,0.629,0.713
				C101.92,216.632,101.972,217.039,101.972,217.565z"/>
			<path fill="#575756" d="M104.002,217.62h-1.6v-0.375c0-0.435,0.05-0.769,0.15-1.003c0.1-0.235,0.3-0.442,0.602-0.623
				c0.301-0.181,0.692-0.271,1.174-0.271c0.577,0,1.011,0.103,1.304,0.306c0.293,0.204,0.469,0.454,0.528,0.752
				c0.059,0.297,0.089,0.907,0.089,1.834v2.812h-1.659v-0.499c-0.104,0.2-0.239,0.35-0.403,0.45c-0.165,0.1-0.361,0.149-0.589,0.149
				c-0.298,0-0.572-0.083-0.821-0.251s-0.374-0.533-0.374-1.1v-0.46c0-0.419,0.066-0.705,0.198-0.857
				c0.132-0.151,0.46-0.329,0.984-0.531c0.56-0.22,0.86-0.367,0.899-0.443c0.04-0.076,0.059-0.23,0.059-0.464
				c0-0.292-0.022-0.483-0.065-0.572c-0.044-0.089-0.116-0.133-0.217-0.133c-0.115,0-0.187,0.037-0.215,0.112
				c-0.028,0.073-0.042,0.268-0.042,0.58v0.587H104.002z M104.542,218.389c-0.273,0.2-0.431,0.367-0.475,0.502
				s-0.065,0.33-0.065,0.583c0,0.29,0.019,0.478,0.057,0.562s0.113,0.127,0.226,0.127c0.107,0,0.177-0.033,0.209-0.1
				c0.032-0.065,0.048-0.239,0.048-0.521V218.389z"/>
			<path fill="#575756" d="M108.57,215.45l-0.03,0.494c0.152-0.199,0.319-0.35,0.502-0.447c0.183-0.099,0.383-0.148,0.6-0.148
				c0.264,0,0.493,0.071,0.686,0.213c0.193,0.144,0.313,0.307,0.361,0.492c0.048,0.187,0.072,0.501,0.072,0.945v2.359
				c0,0.51-0.03,0.872-0.091,1.087c-0.061,0.216-0.184,0.388-0.372,0.516c-0.187,0.128-0.413,0.191-0.677,0.191
				c-0.211,0-0.407-0.049-0.587-0.147c-0.18-0.099-0.345-0.245-0.494-0.439v1.284h-1.706v-6.399H108.57z M109.055,217.08
				c0-0.347-0.013-0.557-0.038-0.629c-0.025-0.073-0.096-0.109-0.211-0.109c-0.113,0-0.185,0.042-0.218,0.126
				c-0.032,0.084-0.048,0.289-0.048,0.612v2.321c0,0.338,0.017,0.549,0.051,0.634c0.034,0.085,0.107,0.127,0.219,0.127
				c0.11,0,0.178-0.039,0.205-0.116c0.027-0.077,0.04-0.265,0.04-0.563V217.08z"/>
			<path fill="#575756" d="M112.846,217.62h-1.6v-0.375c0-0.435,0.05-0.769,0.15-1.003c0.1-0.235,0.3-0.442,0.602-0.623
				c0.301-0.181,0.692-0.271,1.174-0.271c0.577,0,1.011,0.103,1.304,0.306c0.293,0.204,0.469,0.454,0.528,0.752
				c0.059,0.297,0.089,0.907,0.089,1.834v2.812h-1.659v-0.499c-0.104,0.2-0.239,0.35-0.403,0.45c-0.165,0.1-0.361,0.149-0.589,0.149
				c-0.298,0-0.572-0.083-0.821-0.251s-0.374-0.533-0.374-1.1v-0.46c0-0.419,0.066-0.705,0.198-0.857
				c0.132-0.151,0.46-0.329,0.984-0.531c0.56-0.22,0.86-0.367,0.899-0.443c0.04-0.076,0.059-0.23,0.059-0.464
				c0-0.292-0.022-0.483-0.065-0.572c-0.044-0.089-0.116-0.133-0.217-0.133c-0.115,0-0.187,0.037-0.215,0.112
				c-0.028,0.073-0.042,0.268-0.042,0.58v0.587H112.846z M113.386,218.389c-0.273,0.2-0.431,0.367-0.475,0.502
				s-0.065,0.33-0.065,0.583c0,0.29,0.019,0.478,0.057,0.562c0.038,0.084,0.113,0.127,0.226,0.127c0.107,0,0.177-0.033,0.209-0.1
				c0.032-0.065,0.048-0.239,0.048-0.521V218.389z"/>
			<path fill="#575756" d="M119.448,217.565h-1.608v-0.646c0-0.226-0.018-0.378-0.055-0.458c-0.037-0.08-0.104-0.12-0.203-0.12
				c-0.098,0-0.165,0.035-0.198,0.104c-0.034,0.07-0.051,0.229-0.051,0.474v2.643c0,0.2,0.025,0.351,0.076,0.45
				c0.051,0.1,0.125,0.15,0.224,0.15c0.115,0,0.193-0.053,0.234-0.156c0.041-0.104,0.061-0.301,0.061-0.591v-0.667h1.52
				c-0.003,0.446-0.019,0.783-0.049,1.006c-0.03,0.224-0.124,0.454-0.283,0.688c-0.159,0.235-0.367,0.412-0.623,0.532
				c-0.256,0.12-0.573,0.179-0.95,0.179c-0.481,0-0.863-0.082-1.144-0.246c-0.281-0.165-0.481-0.396-0.597-0.692
				c-0.116-0.296-0.175-0.718-0.175-1.265v-1.592c0-0.476,0.048-0.834,0.144-1.076s0.3-0.458,0.612-0.648s0.692-0.285,1.14-0.285
				c0.445,0,0.825,0.094,1.14,0.283c0.315,0.188,0.525,0.426,0.629,0.713C119.396,216.632,119.448,217.039,119.448,217.565z"/>
			<path fill="#575756" d="M121.711,214.218v0.891h-1.756v-0.891H121.711z M121.711,215.45v5.602h-1.756v-5.602H121.711z"/>
			<path fill="#575756" d="M126.203,214.218v6.834h-1.706v-0.406c-0.163,0.169-0.335,0.296-0.515,0.381
				c-0.18,0.084-0.369,0.126-0.566,0.126c-0.264,0-0.494-0.068-0.688-0.208s-0.319-0.301-0.374-0.482
				c-0.055-0.184-0.083-0.481-0.083-0.896v-2.622c0-0.431,0.028-0.735,0.083-0.916c0.055-0.18,0.181-0.338,0.378-0.475
				c0.197-0.136,0.432-0.205,0.705-0.205c0.211,0,0.405,0.038,0.58,0.114c0.176,0.076,0.336,0.189,0.479,0.343v-1.588H126.203z
				 M124.497,216.86c0-0.206-0.018-0.343-0.053-0.414c-0.035-0.07-0.105-0.104-0.209-0.104c-0.101,0-0.17,0.031-0.205,0.095
				c-0.035,0.064-0.053,0.205-0.053,0.424v2.744c0,0.229,0.017,0.377,0.051,0.449c0.034,0.072,0.098,0.108,0.194,0.108
				c0.11,0,0.183-0.04,0.219-0.121c0.037-0.08,0.055-0.276,0.055-0.589L124.497,216.86L124.497,216.86z"/>
			<path fill="#575756" d="M128.339,217.62h-1.6v-0.375c0-0.435,0.05-0.769,0.15-1.003c0.1-0.235,0.3-0.442,0.602-0.623
				c0.301-0.181,0.692-0.271,1.174-0.271c0.577,0,1.011,0.103,1.304,0.306c0.293,0.204,0.469,0.454,0.528,0.752
				c0.059,0.297,0.089,0.907,0.089,1.834v2.812h-1.659v-0.499c-0.104,0.2-0.239,0.35-0.403,0.45c-0.165,0.1-0.361,0.149-0.589,0.149
				c-0.298,0-0.572-0.083-0.821-0.251c-0.249-0.168-0.374-0.533-0.374-1.1v-0.46c0-0.419,0.066-0.705,0.198-0.857
				c0.132-0.151,0.46-0.329,0.984-0.531c0.56-0.22,0.86-0.367,0.899-0.443c0.04-0.076,0.059-0.23,0.059-0.464
				c0-0.292-0.022-0.483-0.065-0.572c-0.044-0.089-0.116-0.133-0.217-0.133c-0.115,0-0.187,0.037-0.215,0.112
				c-0.028,0.073-0.042,0.268-0.042,0.58v0.587H128.339z M128.879,218.389c-0.273,0.2-0.431,0.367-0.475,0.502
				c-0.044,0.135-0.065,0.33-0.065,0.583c0,0.29,0.019,0.478,0.057,0.562s0.113,0.127,0.226,0.127c0.107,0,0.177-0.033,0.209-0.1
				c0.032-0.065,0.048-0.239,0.048-0.521V218.389z"/>
			<path fill="#575756" d="M135.051,214.218v6.834h-1.706v-0.406c-0.163,0.169-0.335,0.296-0.515,0.381
				c-0.18,0.084-0.369,0.126-0.566,0.126c-0.264,0-0.494-0.068-0.688-0.208c-0.194-0.14-0.319-0.301-0.374-0.482
				c-0.055-0.184-0.083-0.481-0.083-0.896v-2.622c0-0.431,0.028-0.735,0.083-0.916c0.055-0.18,0.181-0.338,0.378-0.475
				c0.197-0.136,0.432-0.205,0.705-0.205c0.211,0,0.405,0.038,0.58,0.114c0.176,0.076,0.336,0.189,0.479,0.343v-1.588H135.051z
				 M133.345,216.86c0-0.206-0.018-0.343-0.053-0.414c-0.035-0.07-0.105-0.104-0.209-0.104c-0.101,0-0.17,0.031-0.205,0.095
				c-0.035,0.064-0.053,0.205-0.053,0.424v2.744c0,0.229,0.017,0.377,0.051,0.449s0.098,0.108,0.194,0.108
				c0.11,0,0.183-0.04,0.219-0.121c0.037-0.08,0.055-0.276,0.055-0.589v-2.592H133.345z"/>
		</g>
		<path fill="#A0C219" d="M101.733,143.223c-0.149,1.076-0.278,2.155-0.451,3.229c-2.07,12.853-8.703,22.704-19.773,29.459
			c-7.532,4.597-15.801,6.354-24.612,5.508c-5.811-0.559-11.217-2.333-16.286-5.198c-1.77-1-2.072-0.934-3.523,0.517
			c-6.648,6.648-13.293,13.301-19.947,19.942c-2,1.997-4.273,3.469-7.121,4.044c-4.7,0.95-9.97-3.243-10.02-8.036
			c-0.039-3.676,1.696-6.509,4.175-8.992c6.688-6.702,13.389-13.392,20.084-20.087c1.261-1.262,1.34-1.634,0.444-3.198
			c-2.723-4.76-4.512-9.853-5.179-15.282c-0.775-6.319-0.251-12.562,2.001-18.554c4.549-12.104,12.84-20.529,25.015-25.038
			c3.362-1.245,6.845-1.971,10.417-2.267c0.224-0.02,0.443-0.104,0.664-0.158c1.855,0,3.709,0,5.564,0
			c0.29,0.057,0.577,0.141,0.87,0.163c4.351,0.345,8.565,1.333,12.538,3.101c12.769,5.683,20.867,15.329,24.11,28.955
			c0.494,2.074,0.694,4.219,1.031,6.332C101.733,139.514,101.733,141.368,101.733,143.223z M90.942,140.365
			c-0.151-16.805-13.332-30.388-30.425-30.428c-16.87-0.04-30.417,13.338-30.497,30.438c-0.078,16.799,13.74,30.575,30.508,30.451
			C77.51,170.703,90.79,157.279,90.942,140.365z"/>
		<path fill="#A0C219" d="M62.292,115.552c3.562,0.12,6.968,0.84,10.254,2.145c2.289,0.908,3.376,3.271,2.564,5.506
			c-0.807,2.223-3.176,3.379-5.495,2.524c-2.957-1.09-5.95-1.754-9.115-1.362c-6.632,0.813-11.5,4.18-14.573,10.111
			c-0.596,1.151-1.119,2.332-2.343,2.978c-1.623,0.855-3.541,0.64-4.897-0.555c-1.318-1.159-1.809-3.11-1.093-4.806
			c1.446-3.423,3.5-6.45,6.209-8.998c3.77-3.545,8.195-5.882,13.287-6.866C58.804,115.898,60.557,115.771,62.292,115.552z"/>
		<g>
			<path fill="#A0C219" d="M37.576,192.025h1.383l0.991,7.924h0.127l1.06-7.924h1.303L41,200.858h-1.96L37.576,192.025z"/>
			<path fill="#A0C219" d="M48.642,194.328v2.621h-3.354v1.864c0,0.527,0.069,0.886,0.208,1.074
				c0.138,0.189,0.384,0.284,0.738,0.284c0.338,0,0.576-0.097,0.715-0.292c0.138-0.195,0.208-0.55,0.208-1.065v-0.979h1.487v0.722
				c0,0.975-0.177,1.637-0.53,1.989c-0.354,0.352-0.98,0.528-1.879,0.528c-0.891,0-1.516-0.18-1.873-0.537
				c-0.357-0.358-0.536-1.024-0.536-1.998v-4.21c0-0.98,0.175-1.645,0.525-1.994c0.35-0.351,0.978-0.524,1.885-0.524
				c0.891,0,1.516,0.18,1.873,0.537C48.464,192.706,48.642,193.366,48.642,194.328z M47.155,194.062
				c0-0.521-0.069-0.876-0.208-1.064c-0.138-0.189-0.377-0.284-0.715-0.284c-0.346,0-0.59,0.1-0.732,0.301s-0.213,0.55-0.213,1.048
				v1.994h1.867L47.155,194.062L47.155,194.062z"/>
			<path fill="#A0C219" d="M54.095,191.828v1.073h-0.242c-0.607,0-1.037,0.113-1.291,0.34s-0.38,0.617-0.38,1.173v6.443h-1.418
				v-8.833h1.326l0.092,0.542c0.2-0.24,0.444-0.427,0.732-0.559s0.601-0.198,0.939-0.198c0.023,0,0.062,0.003,0.115,0.009
				C54.021,191.825,54.064,191.828,54.095,191.828z"/>
			<path fill="#A0C219" d="M58.648,188.184h1.579v1.34h-1.579V188.184z M58.717,192.025h1.418v8.833h-1.418V192.025z"/>
			<path fill="#A0C219" d="M67.143,193.838v7.021h-1.418v-6.797c0-0.504-0.075-0.854-0.225-1.053s-0.406-0.296-0.767-0.296
				c-0.354,0-0.607,0.102-0.761,0.305c-0.154,0.203-0.23,0.551-0.23,1.044v6.797h-1.418v-8.833h1.326l0.092,0.542
				c0.192-0.245,0.436-0.434,0.732-0.562s0.636-0.193,1.02-0.193c0.6,0,1.024,0.15,1.274,0.451
				C67.018,192.562,67.143,193.088,67.143,193.838z"/>
			<path fill="#A0C219" d="M71.904,187.995v0.911h-0.208c-0.331,0-0.559,0.047-0.686,0.142c-0.127,0.094-0.19,0.265-0.19,0.511
				v2.466h1.084v0.876H70.82v7.957h-1.418v-7.957H68.63v-0.876h0.772v-1.916c0-0.904,0.131-1.486,0.392-1.743
				c0.261-0.259,0.753-0.388,1.476-0.388c0.161,0,0.288,0.001,0.38,0.004C71.743,187.985,71.827,187.99,71.904,187.995z"/>
			<path fill="#A0C219" d="M77.886,194.328v4.228c0,0.974-0.177,1.637-0.53,1.989c-0.354,0.352-0.98,0.528-1.879,0.528
				c-0.891,0-1.516-0.18-1.873-0.537c-0.357-0.358-0.536-1.024-0.536-1.998v-4.21c0-0.98,0.175-1.645,0.525-1.994
				c0.35-0.351,0.978-0.524,1.885-0.524c0.891,0,1.516,0.179,1.873,0.537C77.708,192.706,77.886,193.366,77.886,194.328z
				 M76.4,194.062c0-0.521-0.069-0.876-0.208-1.064c-0.138-0.189-0.377-0.284-0.715-0.284c-0.346,0-0.59,0.1-0.732,0.301
				s-0.213,0.55-0.213,1.048v4.752c0,0.527,0.069,0.886,0.208,1.074c0.138,0.189,0.384,0.284,0.738,0.284
				c0.338,0,0.576-0.097,0.715-0.292c0.138-0.195,0.208-0.55,0.208-1.065L76.4,194.062L76.4,194.062z"/>
			<path fill="#A0C219" d="M83.339,192.566l0.115-0.542h1.325v9.787c0,0.975-0.177,1.636-0.53,1.985
				c-0.354,0.349-0.98,0.523-1.879,0.523c-0.861,0-1.477-0.17-1.85-0.511s-0.559-0.921-0.559-1.74v-0.473h1.487v0.473
				c0,0.539,0.067,0.899,0.202,1.083c0.135,0.184,0.375,0.275,0.72,0.275c0.354,0,0.603-0.099,0.749-0.296
				c0.146-0.198,0.219-0.552,0.219-1.062v-2.147c-0.192,0.252-0.431,0.438-0.715,0.559c-0.284,0.12-0.622,0.181-1.014,0.181
				c-0.599,0-1.024-0.147-1.274-0.442s-0.375-0.815-0.375-1.56v-4.821c0-0.75,0.127-1.276,0.38-1.577
				c0.254-0.301,0.676-0.451,1.268-0.451c0.376,0,0.711,0.064,1.003,0.193C82.905,192.132,83.147,192.32,83.339,192.566z
				 M83.339,194.062c0-0.504-0.073-0.857-0.219-1.061c-0.146-0.204-0.388-0.306-0.726-0.306c-0.354,0-0.604,0.1-0.749,0.297
				c-0.146,0.197-0.219,0.554-0.219,1.069v4.349c0,0.521,0.073,0.88,0.219,1.078c0.146,0.197,0.396,0.296,0.749,0.296
				c0.338,0,0.58-0.104,0.726-0.31c0.146-0.207,0.219-0.562,0.219-1.064V194.062z"/>
			<path fill="#A0C219" d="M90.279,191.828v1.073h-0.242c-0.607,0-1.037,0.113-1.291,0.34s-0.38,0.617-0.38,1.173v6.443h-1.418
				v-8.833h1.326l0.092,0.542c0.2-0.24,0.444-0.427,0.732-0.559s0.601-0.198,0.939-0.198c0.023,0,0.062,0.003,0.115,0.009
				C90.205,191.825,90.248,191.828,90.279,191.828z"/>
			<path fill="#A0C219" d="M95.927,194.087v6.771h-1.326l-0.092-0.542c-0.192,0.247-0.436,0.435-0.732,0.563
				c-0.296,0.129-0.636,0.192-1.02,0.192c-0.6,0-1.024-0.149-1.274-0.45c-0.25-0.302-0.375-0.826-0.375-1.577v-1.762
				c0-0.693,0.251-1.187,0.755-1.479c0.503-0.292,1.385-0.455,2.646-0.49v-1.254c0-0.533-0.067-0.891-0.202-1.074
				c-0.135-0.183-0.375-0.274-0.72-0.274c-0.331,0-0.567,0.084-0.709,0.253s-0.213,0.46-0.213,0.872v0.49h-1.418v-0.241
				c0-0.882,0.173-1.482,0.519-1.8c0.346-0.318,0.96-0.478,1.844-0.478c0.86,0,1.462,0.161,1.804,0.481
				C95.756,192.612,95.927,193.211,95.927,194.087z M94.497,196.175c-0.738,0.023-1.239,0.12-1.504,0.292
				c-0.265,0.172-0.398,0.481-0.398,0.928v1.418c0,0.527,0.069,0.886,0.207,1.074c0.138,0.189,0.384,0.284,0.738,0.284
				c0.346,0,0.594-0.103,0.744-0.305c0.15-0.203,0.225-0.555,0.225-1.053L94.497,196.175z"/>
			<path fill="#A0C219" d="M100.688,187.995v0.911h-0.208c-0.331,0-0.559,0.047-0.686,0.142c-0.127,0.094-0.19,0.265-0.19,0.511
				v2.466h1.084v0.876h-1.084v7.957h-1.418v-7.957h-0.772v-0.876h0.772v-1.916c0-0.904,0.131-1.486,0.392-1.743
				c0.261-0.259,0.753-0.388,1.476-0.388c0.161,0,0.288,0.001,0.38,0.004C100.526,187.985,100.611,187.99,100.688,187.995z"/>
			<path fill="#A0C219" d="M101.829,188.184h1.579v1.34h-1.579V188.184z M101.898,192.025h1.418v8.833h-1.418V192.025z"/>
			<path fill="#A0C219" d="M110.14,194.087v6.771h-1.326l-0.092-0.542c-0.192,0.247-0.436,0.435-0.732,0.563
				c-0.296,0.129-0.636,0.192-1.02,0.192c-0.6,0-1.024-0.149-1.274-0.45c-0.25-0.302-0.375-0.826-0.375-1.577v-1.762
				c0-0.693,0.251-1.187,0.755-1.479c0.503-0.292,1.385-0.455,2.646-0.49v-1.254c0-0.533-0.067-0.891-0.202-1.074
				c-0.135-0.183-0.375-0.274-0.72-0.274c-0.331,0-0.567,0.084-0.709,0.253c-0.142,0.169-0.213,0.46-0.213,0.872v0.49h-1.418v-0.241
				c0-0.882,0.173-1.482,0.519-1.8c0.346-0.318,0.96-0.478,1.844-0.478c0.86,0,1.462,0.161,1.804,0.481
				C109.969,192.612,110.14,193.211,110.14,194.087z M108.71,196.175c-0.738,0.023-1.239,0.12-1.504,0.292s-0.398,0.481-0.398,0.928
				v1.418c0,0.527,0.069,0.886,0.207,1.074c0.138,0.189,0.384,0.284,0.738,0.284c0.346,0,0.594-0.103,0.744-0.305
				c0.15-0.203,0.225-0.555,0.225-1.053L108.71,196.175z"/>
		</g>
	</g>
	<polygon fill="#F2961C" points="448.041,56.103 458.421,92.108 594.136,86.791 602.457,56.103 	"/>
	<g>
		<g>
			<path fill="#331842" d="M473.228,62.156h2.934v0.727h-1.875v3.298h1.793v0.72h-1.793v3.69h1.926v0.727h-2.984V62.156z"/>
			<path fill="#331842" d="M477.738,62.156h1.057v8.435h1.908v0.727h-2.965V62.156z"/>
			<path fill="#331842" d="M487.853,63.608v0.876h-1.115v-0.851c0-0.356-0.053-0.603-0.154-0.739
				c-0.104-0.136-0.285-0.205-0.547-0.205c-0.238,0-0.406,0.078-0.5,0.233s-0.143,0.48-0.143,0.978v5.671
				c0,0.511,0.051,0.842,0.15,0.994c0.1,0.153,0.283,0.229,0.551,0.229c0.229,0,0.393-0.072,0.492-0.217
				c0.1-0.146,0.15-0.392,0.15-0.739v-0.987h1.115v1.02c0,0.625-0.131,1.049-0.393,1.27c-0.26,0.222-0.727,0.333-1.4,0.333
				c-0.66,0-1.121-0.143-1.383-0.429c-0.26-0.286-0.391-0.818-0.391-1.596v-5.423c0-0.773,0.131-1.302,0.391-1.584
				c0.262-0.281,0.723-0.422,1.383-0.422c0.68,0,1.146,0.11,1.404,0.329C487.722,62.567,487.853,62.987,487.853,63.608z"/>
			<path fill="#331842" d="M489.236,62.156h1.125v9.161h-1.125V62.156z M490.037,59.938h1.174l-1.092,1.386h-0.816L490.037,59.938z"
				/>
			<path fill="#331842" d="M492.236,62.156h1.615c0.834,0,1.398,0.087,1.693,0.261c0.293,0.174,0.441,0.485,0.441,0.938v2.075
				c0,0.381-0.098,0.65-0.291,0.807c-0.195,0.158-0.539,0.254-1.033,0.286c0.527,0.025,0.893,0.116,1.1,0.273
				c0.205,0.158,0.309,0.431,0.309,0.82v3.701h-1.125v-3.422c0-0.431-0.082-0.71-0.246-0.839c-0.164-0.128-0.502-0.191-1.014-0.191
				h-0.391v4.453h-1.059V62.156z M493.294,62.832v3.348h0.375c0.482,0,0.805-0.062,0.967-0.188c0.16-0.126,0.24-0.407,0.24-0.843
				v-1.272c0-0.439-0.08-0.724-0.24-0.852c-0.162-0.128-0.482-0.192-0.967-0.192H493.294L493.294,62.832z"/>
			<path fill="#331842" d="M501.435,63.608v0.876h-1.115v-0.851c0-0.356-0.053-0.603-0.154-0.739
				c-0.104-0.136-0.285-0.205-0.547-0.205c-0.238,0-0.406,0.078-0.5,0.233s-0.143,0.48-0.143,0.978v5.671
				c0,0.511,0.051,0.842,0.15,0.994c0.1,0.153,0.283,0.229,0.551,0.229c0.229,0,0.393-0.072,0.492-0.217
				c0.1-0.146,0.15-0.392,0.15-0.739v-0.987h1.115v1.02c0,0.625-0.131,1.049-0.393,1.27c-0.26,0.222-0.727,0.333-1.4,0.333
				c-0.66,0-1.121-0.143-1.383-0.429c-0.26-0.286-0.391-0.818-0.391-1.596v-5.423c0-0.773,0.131-1.302,0.391-1.584
				c0.262-0.281,0.723-0.422,1.383-0.422c0.68,0,1.146,0.11,1.404,0.329C501.306,62.567,501.435,62.987,501.435,63.608z"/>
			<path fill="#331842" d="M502.767,62.156h1.109v7.415c0,0.478,0.061,0.798,0.182,0.964c0.123,0.166,0.34,0.249,0.65,0.249
				c0.305,0,0.518-0.083,0.637-0.249s0.18-0.486,0.18-0.964v-7.415h1.107v7.292c0,0.786-0.141,1.32-0.424,1.603
				s-0.789,0.422-1.518,0.422c-0.717,0-1.217-0.143-1.5-0.429s-0.426-0.818-0.426-1.596v-7.292H502.767z"/>
			<path fill="#331842" d="M508.501,62.156h1.057v8.435h1.908v0.727h-2.965V62.156z"/>
			<path fill="#331842" d="M516.308,64.025v5.423c0,0.786-0.141,1.32-0.424,1.603s-0.789,0.422-1.518,0.422
				c-0.717,0-1.217-0.143-1.5-0.429s-0.424-0.818-0.424-1.596v-5.423c0-0.771,0.143-1.297,0.428-1.581
				c0.287-0.283,0.791-0.425,1.512-0.425c0.723,0,1.225,0.142,1.504,0.422C516.167,62.722,516.308,63.25,516.308,64.025z
				 M515.201,63.9c0-0.464-0.062-0.78-0.184-0.952c-0.123-0.173-0.34-0.259-0.65-0.259c-0.305,0-0.518,0.083-0.637,0.251
				c-0.119,0.167-0.18,0.487-0.18,0.959v5.671c0,0.478,0.062,0.798,0.184,0.964s0.34,0.249,0.65,0.249
				c0.305,0,0.518-0.083,0.637-0.249s0.18-0.486,0.18-0.964V63.9z"/>
			<path fill="#331842" d="M520.083,62.156h1.074l1.143,8.248h0.117l1.074-8.248h1.008l-1.332,9.161h-1.65L520.083,62.156z"/>
			<path fill="#331842" d="M525.716,62.156h1.125v9.161h-1.125V62.156z"/>
			<path fill="#331842" d="M532.232,63.608v0.876h-1.115v-0.851c0-0.356-0.053-0.603-0.154-0.739
				c-0.104-0.136-0.285-0.205-0.547-0.205c-0.238,0-0.406,0.078-0.5,0.233s-0.143,0.48-0.143,0.978v5.671
				c0,0.511,0.051,0.842,0.15,0.994c0.1,0.153,0.283,0.229,0.551,0.229c0.229,0,0.393-0.072,0.492-0.217
				c0.1-0.146,0.15-0.392,0.15-0.739v-0.987h1.115v1.02c0,0.625-0.131,1.049-0.393,1.27c-0.26,0.222-0.727,0.333-1.4,0.333
				c-0.66,0-1.121-0.143-1.383-0.429c-0.26-0.286-0.391-0.818-0.391-1.596v-5.423c0-0.773,0.131-1.302,0.391-1.584
				c0.262-0.281,0.723-0.422,1.383-0.422c0.68,0,1.146,0.11,1.404,0.329C532.103,62.567,532.232,62.987,532.232,63.608z"/>
			<path fill="#331842" d="M533.615,62.156h1.125v9.161h-1.125V62.156z"/>
			<path fill="#331842" d="M540.431,64.025v5.423c0,0.786-0.141,1.32-0.424,1.603s-0.789,0.422-1.518,0.422
				c-0.717,0-1.217-0.143-1.5-0.429s-0.424-0.818-0.424-1.596v-5.423c0-0.771,0.143-1.297,0.428-1.581
				c0.287-0.283,0.791-0.425,1.512-0.425c0.723,0,1.225,0.142,1.504,0.422C540.291,62.722,540.431,63.25,540.431,64.025z
				 M539.324,63.9c0-0.464-0.062-0.78-0.184-0.952c-0.123-0.173-0.34-0.259-0.65-0.259c-0.305,0-0.518,0.083-0.637,0.251
				c-0.119,0.167-0.18,0.487-0.18,0.959v5.671c0,0.478,0.062,0.798,0.184,0.964s0.34,0.249,0.65,0.249
				c0.305,0,0.518-0.083,0.637-0.249s0.18-0.486,0.18-0.964V63.9z"/>
			<path fill="#331842" d="M545.505,63.608v0.876h-1.107v-0.851c0-0.36-0.051-0.607-0.15-0.742c-0.1-0.134-0.277-0.202-0.533-0.202
				c-0.244,0-0.416,0.075-0.516,0.228c-0.102,0.151-0.15,0.419-0.15,0.804v0.447c0,0.187,0.035,0.378,0.104,0.575
				c0.07,0.196,0.172,0.382,0.305,0.556l1.383,1.82c0.232,0.306,0.402,0.595,0.508,0.865c0.105,0.271,0.158,0.553,0.158,0.843v0.621
				c0,0.795-0.135,1.331-0.404,1.608s-0.75,0.416-1.438,0.416c-0.672,0-1.141-0.112-1.404-0.335s-0.396-0.646-0.396-1.267v-1.02
				h1.117v0.987c0,0.373,0.051,0.625,0.15,0.758s0.283,0.199,0.549,0.199c0.273,0,0.459-0.075,0.562-0.228
				c0.104-0.15,0.154-0.482,0.154-0.997v-0.633c0-0.235-0.029-0.449-0.088-0.643c-0.059-0.192-0.143-0.367-0.254-0.525l-1.467-1.95
				c-0.205-0.261-0.363-0.509-0.471-0.745s-0.162-0.441-0.162-0.615v-0.534c0-0.712,0.133-1.208,0.396-1.488
				c0.264-0.278,0.719-0.419,1.361-0.419c0.678,0,1.146,0.11,1.404,0.329C545.376,62.567,545.505,62.987,545.505,63.608z"/>
			<path fill="#331842" d="M550.806,64.025v5.423c0,0.786-0.143,1.32-0.426,1.603s-0.789,0.422-1.516,0.422
				c-0.717,0-1.217-0.143-1.5-0.429s-0.426-0.818-0.426-1.596v-5.423c0-0.771,0.143-1.297,0.43-1.581
				c0.285-0.283,0.789-0.425,1.512-0.425c0.721,0,1.223,0.142,1.504,0.422C550.666,62.722,550.806,63.25,550.806,64.025z
				 M549.697,63.9c0-0.464-0.061-0.78-0.184-0.952c-0.121-0.173-0.338-0.259-0.648-0.259c-0.307,0-0.52,0.083-0.639,0.251
				c-0.117,0.167-0.178,0.487-0.178,0.959v5.671c0,0.478,0.061,0.798,0.182,0.964c0.123,0.166,0.34,0.249,0.65,0.249
				c0.305,0,0.52-0.083,0.637-0.249c0.119-0.166,0.18-0.486,0.18-0.964V63.9z"/>
			<path fill="#331842" d="M555.281,62.156h2.932v0.727h-1.875v3.298h1.793v0.72h-1.793v3.69h1.926v0.727h-2.982V62.156z"/>
			<path fill="#331842" d="M559.789,62.156h1.449l1.758,8.614h0.018l-0.158-8.614h0.959v9.161h-1.469l-1.74-8.497h-0.033l0.15,8.497
				h-0.934V62.156L559.789,62.156z"/>
			<path fill="#331842" d="M564.904,62.156h3.607v0.727h-1.266v8.435h-1.076v-8.435h-1.266V62.156L564.904,62.156z"/>
			<path fill="#331842" d="M569.621,62.156h1.617c0.832,0,1.396,0.087,1.691,0.261c0.293,0.174,0.441,0.485,0.441,0.938v2.075
				c0,0.381-0.096,0.65-0.291,0.807c-0.195,0.158-0.539,0.254-1.033,0.286c0.527,0.025,0.895,0.116,1.1,0.273
				c0.205,0.158,0.309,0.431,0.309,0.82v3.701h-1.125v-3.422c0-0.431-0.082-0.71-0.246-0.839c-0.164-0.128-0.502-0.191-1.012-0.191
				h-0.393v4.453h-1.059V62.156z M570.679,62.832v3.348h0.375c0.482,0,0.805-0.062,0.967-0.188c0.16-0.126,0.24-0.407,0.24-0.843
				v-1.272c0-0.439-0.08-0.724-0.24-0.852s-0.482-0.192-0.967-0.192H570.679L570.679,62.832z"/>
			<path fill="#331842" d="M575.302,62.156h2.934v0.727h-1.875v3.298h1.793v0.72h-1.793v3.69h1.926v0.727h-2.984V62.156z"/>
			<path fill="#331842" d="M462.187,73.816h1.059v8.436h1.908v0.727h-2.967V73.816z"/>
			<path fill="#331842" d="M467.539,73.816h1.549l1.775,9.162h-1.143l-0.424-2.547h-2.018l-0.457,2.547h-1.117L467.539,73.816z
				 M468.271,74.493l-0.893,5.268h1.775l-0.832-5.268H468.271z"/>
			<path fill="#331842" d="M474.595,73.816h1.24c1.051,0,1.736,0.123,2.059,0.369c0.322,0.247,0.482,0.812,0.482,1.693v5.038
				c0,0.878-0.164,1.44-0.492,1.688c-0.328,0.249-1.01,0.373-2.049,0.373h-1.242v-9.162H474.595z M475.654,74.493V82.3h0.342
				c0.512,0,0.848-0.063,1.012-0.189s0.246-0.403,0.246-0.835v-5.738c0-0.436-0.082-0.718-0.25-0.849
				c-0.166-0.13-0.502-0.195-1.008-0.195H475.654z"/>
			<path fill="#331842" d="M480.246,73.816h1.125v9.162h-1.125V73.816z"/>
			<path fill="#331842" d="M486.453,75.269v0.876h-1.107v-0.851c0-0.36-0.051-0.607-0.15-0.742c-0.1-0.134-0.277-0.202-0.533-0.202
				c-0.244,0-0.416,0.075-0.518,0.228c-0.1,0.151-0.148,0.419-0.148,0.804v0.447c0,0.187,0.035,0.378,0.104,0.574
				c0.07,0.197,0.17,0.383,0.305,0.557l1.383,1.819c0.232,0.307,0.402,0.596,0.508,0.866c0.105,0.271,0.158,0.553,0.158,0.842v0.621
				c0,0.795-0.135,1.332-0.404,1.609s-0.75,0.416-1.438,0.416c-0.672,0-1.141-0.112-1.404-0.335s-0.396-0.646-0.396-1.267v-1.02
				h1.117v0.987c0,0.373,0.049,0.625,0.15,0.758c0.1,0.133,0.283,0.199,0.549,0.199c0.273,0,0.459-0.075,0.562-0.228
				c0.104-0.15,0.154-0.482,0.154-0.997v-0.633c0-0.236-0.029-0.45-0.088-0.643s-0.143-0.367-0.254-0.525l-1.467-1.95
				c-0.205-0.261-0.363-0.509-0.471-0.746c-0.107-0.235-0.162-0.44-0.162-0.614v-0.534c0-0.712,0.133-1.208,0.396-1.488
				c0.264-0.279,0.717-0.419,1.361-0.419c0.678,0,1.146,0.11,1.404,0.329C486.324,74.228,486.453,74.648,486.453,75.269z"/>
			<path fill="#331842" d="M491.453,75.269v0.876h-1.117v-0.851c0-0.356-0.051-0.604-0.154-0.739
				c-0.102-0.136-0.283-0.205-0.545-0.205c-0.238,0-0.406,0.078-0.5,0.233c-0.094,0.154-0.143,0.48-0.143,0.978v5.671
				c0,0.511,0.051,0.842,0.15,0.994c0.1,0.153,0.283,0.229,0.551,0.229c0.227,0,0.391-0.072,0.49-0.218
				c0.102-0.145,0.15-0.391,0.15-0.738v-0.987h1.117v1.02c0,0.625-0.131,1.049-0.393,1.27c-0.262,0.222-0.729,0.333-1.4,0.333
				c-0.66,0-1.121-0.143-1.383-0.429s-0.393-0.818-0.393-1.597v-5.422c0-0.773,0.131-1.302,0.393-1.584s0.723-0.422,1.383-0.422
				c0.678,0,1.146,0.11,1.404,0.329C491.324,74.228,491.453,74.648,491.453,75.269z"/>
			<path fill="#331842" d="M493.876,73.816h1.551l1.775,9.162h-1.143l-0.426-2.547h-2.016l-0.459,2.547h-1.115L493.876,73.816z
				 M494.611,74.493l-0.893,5.268h1.775l-0.834-5.268H494.611z"/>
			<path fill="#331842" d="M498.328,73.816h1.365c0.834,0,1.4,0.088,1.699,0.265c0.301,0.176,0.451,0.487,0.451,0.935v2.633
				c0,0.447-0.15,0.759-0.451,0.933c-0.299,0.174-0.865,0.261-1.699,0.261h-0.309v4.137h-1.057V73.816L498.328,73.816z
				 M499.384,74.493v3.677h0.283c0.422,0,0.705-0.063,0.846-0.189c0.143-0.126,0.213-0.411,0.213-0.854v-1.59
				c0-0.443-0.07-0.729-0.213-0.854c-0.141-0.126-0.424-0.188-0.846-0.188L499.384,74.493L499.384,74.493z"/>
			<path fill="#331842" d="M503.808,73.816h1.551l1.775,9.162h-1.143l-0.424-2.547h-2.018l-0.459,2.547h-1.115L503.808,73.816z
				 M504.542,74.493l-0.891,5.268h1.773l-0.832-5.268H504.542z"/>
			<path fill="#331842" d="M511.775,75.269v0.876h-1.115v-0.851c0-0.356-0.053-0.604-0.154-0.739
				c-0.104-0.136-0.285-0.205-0.547-0.205c-0.238,0-0.406,0.078-0.5,0.233c-0.094,0.154-0.141,0.48-0.141,0.978v5.671
				c0,0.511,0.049,0.842,0.148,0.994c0.102,0.153,0.283,0.229,0.551,0.229c0.229,0,0.393-0.072,0.492-0.218
				c0.1-0.145,0.15-0.391,0.15-0.738v-0.987h1.115v1.02c0,0.625-0.131,1.049-0.393,1.27c-0.26,0.222-0.727,0.333-1.398,0.333
				c-0.662,0-1.123-0.143-1.385-0.429c-0.26-0.286-0.391-0.818-0.391-1.597v-5.422c0-0.773,0.131-1.302,0.391-1.584
				c0.262-0.282,0.723-0.422,1.385-0.422c0.678,0,1.145,0.11,1.402,0.329C511.646,74.228,511.775,74.648,511.775,75.269z"/>
			<path fill="#331842" d="M513.16,73.816h1.125v9.162h-1.125V73.816z"/>
			<path fill="#331842" d="M516.158,73.816h1.242c1.049,0,1.734,0.123,2.057,0.369c0.322,0.247,0.484,0.812,0.484,1.693v5.038
				c0,0.878-0.164,1.44-0.492,1.688c-0.328,0.249-1.012,0.373-2.051,0.373h-1.24V73.816L516.158,73.816z M517.216,74.493V82.3h0.342
				c0.512,0,0.85-0.063,1.014-0.189s0.246-0.403,0.246-0.835v-5.738c0-0.436-0.084-0.718-0.25-0.849
				c-0.168-0.13-0.504-0.195-1.01-0.195H517.216z"/>
			<path fill="#331842" d="M522.849,73.816h1.551l1.773,9.162h-1.141l-0.426-2.547h-2.018l-0.457,2.547h-1.117L522.849,73.816z
				 M523.583,74.493l-0.893,5.268h1.775l-0.834-5.268H523.583z"/>
			<path fill="#331842" d="M527.298,73.816h1.242c1.049,0,1.736,0.123,2.057,0.369c0.322,0.247,0.484,0.812,0.484,1.693v5.038
				c0,0.878-0.164,1.44-0.492,1.688c-0.328,0.249-1.012,0.373-2.051,0.373h-1.24V73.816L527.298,73.816z M528.357,74.493V82.3h0.342
				c0.512,0,0.848-0.063,1.012-0.189s0.246-0.403,0.246-0.835v-5.738c0-0.436-0.082-0.718-0.25-0.849
				c-0.166-0.13-0.502-0.195-1.008-0.195H528.357z"/>
			<path fill="#331842" d="M534.615,73.816h1.125l1.107,4.175h0.092l1-4.175h1.094l-1.684,5.268v3.895h-1.076v-3.895L534.615,73.816
				z"/>
			<path fill="#331842" d="M542.638,73.816h1.059v8.436h1.908v0.727h-2.967V73.816z"/>
			<path fill="#331842" d="M547.99,73.816h1.549l1.775,9.162h-1.143l-0.424-2.547h-2.018l-0.459,2.547h-1.115L547.99,73.816z
				 M548.722,74.493l-0.893,5.268h1.775l-0.834-5.268H548.722z"/>
			<path fill="#331842" d="M555.046,73.816h1.367c0.832,0,1.4,0.088,1.699,0.265c0.301,0.176,0.451,0.487,0.451,0.935v2.633
				c0,0.447-0.15,0.759-0.451,0.933c-0.299,0.174-0.867,0.261-1.699,0.261h-0.309v4.137h-1.059V73.816L555.046,73.816z
				 M556.105,74.493v3.677h0.283c0.422,0,0.703-0.063,0.846-0.189s0.213-0.411,0.213-0.854v-1.59c0-0.443-0.07-0.729-0.213-0.854
				s-0.424-0.188-0.846-0.188L556.105,74.493L556.105,74.493z"/>
			<path fill="#331842" d="M563.679,75.686v5.422c0,0.787-0.143,1.321-0.426,1.604s-0.789,0.422-1.516,0.422
				c-0.719,0-1.219-0.143-1.5-0.429c-0.283-0.286-0.426-0.818-0.426-1.597v-5.422c0-0.771,0.143-1.297,0.43-1.581
				c0.285-0.284,0.789-0.425,1.512-0.425c0.721,0,1.223,0.141,1.504,0.422S563.679,74.911,563.679,75.686z M562.572,75.561
				c0-0.464-0.062-0.78-0.184-0.953c-0.123-0.172-0.34-0.258-0.65-0.258c-0.305,0-0.518,0.083-0.637,0.251
				c-0.119,0.167-0.18,0.487-0.18,0.959v5.671c0,0.478,0.061,0.797,0.184,0.963c0.121,0.166,0.34,0.249,0.65,0.249
				c0.305,0,0.518-0.083,0.637-0.249s0.18-0.485,0.18-0.963V75.561z"/>
			<path fill="#331842" d="M565.546,73.816h1.615c0.834,0,1.396,0.087,1.693,0.262c0.293,0.174,0.441,0.485,0.441,0.938v2.075
				c0,0.381-0.098,0.65-0.293,0.807c-0.195,0.158-0.539,0.253-1.033,0.286c0.529,0.025,0.895,0.116,1.102,0.273
				c0.205,0.158,0.307,0.431,0.307,0.819v2.503c0,0.451-0.146,0.765-0.441,0.938s-0.857,0.261-1.691,0.261h-1.699V73.816z
				 M566.603,74.493v3.348h0.375c0.484,0,0.807-0.063,0.969-0.189c0.16-0.126,0.24-0.406,0.24-0.842v-1.272
				c0-0.439-0.08-0.724-0.24-0.852c-0.162-0.128-0.484-0.192-0.969-0.192H566.603z M566.603,78.524V82.3h0.393
				c0.512,0,0.848-0.063,1.012-0.189s0.246-0.403,0.246-0.835v-1.72c0-0.431-0.082-0.71-0.246-0.839
				c-0.164-0.128-0.5-0.192-1.012-0.192L566.603,78.524L566.603,78.524z"/>
			<path fill="#331842" d="M571.228,73.816h1.617c0.832,0,1.396,0.087,1.691,0.262c0.295,0.174,0.443,0.485,0.443,0.938v2.075
				c0,0.381-0.098,0.65-0.293,0.807c-0.195,0.158-0.539,0.253-1.033,0.286c0.527,0.025,0.895,0.116,1.1,0.273
				c0.207,0.158,0.309,0.431,0.309,0.819v3.702h-1.125v-3.422c0-0.431-0.082-0.71-0.246-0.839c-0.164-0.128-0.5-0.192-1.012-0.192
				h-0.393v4.454h-1.059V73.816z M572.287,74.493v3.348h0.375c0.482,0,0.805-0.063,0.967-0.189s0.242-0.406,0.242-0.842v-1.272
				c0-0.439-0.082-0.724-0.242-0.852s-0.482-0.192-0.967-0.192H572.287z"/>
			<path fill="#331842" d="M576.912,73.816h2.932v0.728h-1.875v3.298h1.793v0.72h-1.793v3.69h1.926v0.727h-2.982V73.816z"/>
			<path fill="#331842" d="M580.787,73.816h3.307v0.802l-2.383,7.634h2.492v0.727h-3.533v-0.862l2.4-7.572h-2.283V73.816z"/>
			<path fill="#331842" d="M586.402,73.816h1.551l1.773,9.162h-1.141l-0.426-2.547h-2.018l-0.457,2.547h-1.115L586.402,73.816z
				 M587.134,74.493l-0.891,5.268h1.773l-0.832-5.268H587.134z"/>
		</g>
	</g>
	<polygon fill="#F2961C" points="448.041,102.83 458.421,138.835 594.136,133.519 602.457,102.83 	"/>
	<g>
		<g>
			<path fill="#331842" d="M503.652,115.671h2.932v0.727h-1.875v3.298h1.793v0.721h-1.793v3.689h1.926v0.728h-2.982V115.671z"/>
			<path fill="#331842" d="M508.16,115.671h1.24c1.051,0,1.736,0.123,2.059,0.369c0.322,0.247,0.482,0.811,0.482,1.692v5.038
				c0,0.878-0.164,1.441-0.492,1.689c-0.328,0.249-1.01,0.373-2.049,0.373h-1.242v-9.162H508.16z M509.218,116.348v7.809h0.342
				c0.512,0,0.848-0.063,1.012-0.189s0.246-0.404,0.246-0.835v-5.739c0-0.435-0.082-0.717-0.25-0.848
				c-0.166-0.13-0.502-0.196-1.008-0.196L509.218,116.348L509.218,116.348z"/>
			<path fill="#331842" d="M513.759,115.671h1.107v7.416c0,0.477,0.061,0.797,0.184,0.963c0.121,0.166,0.338,0.249,0.65,0.249
				c0.305,0,0.518-0.083,0.637-0.249s0.178-0.486,0.178-0.963v-7.416h1.109v7.292c0,0.787-0.143,1.321-0.426,1.603
				c-0.283,0.282-0.789,0.422-1.518,0.422c-0.717,0-1.217-0.143-1.5-0.429s-0.424-0.817-0.424-1.596v-7.292H513.759z"/>
			<path fill="#331842" d="M523.007,117.124V118h-1.115v-0.852c0-0.355-0.053-0.603-0.154-0.738
				c-0.104-0.137-0.285-0.205-0.545-0.205c-0.24,0-0.406,0.078-0.5,0.232c-0.096,0.155-0.143,0.481-0.143,0.979v5.671
				c0,0.51,0.049,0.841,0.15,0.994c0.1,0.152,0.283,0.229,0.549,0.229c0.229,0,0.393-0.072,0.492-0.217s0.15-0.391,0.15-0.739
				v-0.986h1.115v1.019c0,0.625-0.131,1.049-0.391,1.271c-0.262,0.222-0.729,0.332-1.4,0.332c-0.662,0-1.123-0.143-1.383-0.429
				c-0.262-0.286-0.393-0.817-0.393-1.596v-5.422c0-0.774,0.131-1.302,0.393-1.584c0.26-0.282,0.721-0.422,1.383-0.422
				c0.678,0,1.146,0.109,1.404,0.329C522.878,116.083,523.007,116.503,523.007,117.124z"/>
			<path fill="#331842" d="M525.433,115.671h1.551l1.773,9.162h-1.141l-0.426-2.547h-2.018l-0.457,2.547h-1.117L525.433,115.671z
				 M526.166,116.348l-0.891,5.269h1.773l-0.832-5.269H526.166z"/>
			<path fill="#331842" d="M533.4,117.124V118h-1.117v-0.852c0-0.355-0.053-0.603-0.154-0.738c-0.102-0.137-0.285-0.205-0.545-0.205
				c-0.24,0-0.406,0.078-0.5,0.232c-0.094,0.155-0.143,0.481-0.143,0.979v5.671c0,0.51,0.051,0.841,0.15,0.994
				c0.1,0.152,0.283,0.229,0.549,0.229c0.229,0,0.393-0.072,0.492-0.217s0.15-0.391,0.15-0.739v-0.986h1.117v1.019
				c0,0.625-0.133,1.049-0.393,1.271c-0.262,0.222-0.729,0.332-1.4,0.332c-0.66,0-1.121-0.143-1.383-0.429s-0.393-0.817-0.393-1.596
				v-5.422c0-0.774,0.131-1.302,0.393-1.584s0.723-0.422,1.383-0.422c0.678,0,1.146,0.109,1.404,0.329
				C533.269,116.083,533.4,116.503,533.4,117.124z"/>
			<path fill="#331842" d="M534.783,115.671h1.125v9.162h-1.125V115.671z"/>
			<path fill="#331842" d="M541.597,117.541v5.422c0,0.787-0.141,1.321-0.424,1.603c-0.283,0.282-0.789,0.422-1.518,0.422
				c-0.717,0-1.217-0.143-1.5-0.429s-0.424-0.817-0.424-1.596v-5.422c0-0.771,0.143-1.297,0.428-1.581
				c0.287-0.284,0.791-0.425,1.512-0.425c0.723,0,1.225,0.141,1.504,0.422C541.457,116.238,541.597,116.766,541.597,117.541z
				 M540.49,117.416c0-0.464-0.061-0.781-0.184-0.953c-0.121-0.172-0.338-0.258-0.648-0.258c-0.307,0-0.52,0.083-0.639,0.251
				c-0.117,0.167-0.178,0.486-0.178,0.959v5.671c0,0.477,0.061,0.797,0.182,0.963c0.123,0.166,0.34,0.249,0.65,0.249
				c0.305,0,0.52-0.083,0.637-0.249c0.119-0.166,0.18-0.486,0.18-0.963V117.416z M539.931,113.453h1.176l-1.092,1.385h-0.816
				L539.931,113.453z"/>
			<path fill="#331842" d="M543.464,115.671h1.451l1.758,8.615h0.018l-0.158-8.615h0.957v9.162h-1.467l-1.74-8.497h-0.033
				l0.15,8.497h-0.934v-9.162H543.464z"/>
		</g>
	</g>
	<polygon fill="#F2961C" points="448.041,149.558 458.421,185.563 594.136,180.246 602.457,149.558 	"/>
	<g>
		<g>
			<path fill="#331842" d="M507.488,160.61h3.607v0.728h-1.266v8.435h-1.076v-8.435h-1.266V160.61L507.488,160.61z"/>
			<path fill="#331842" d="M512.205,160.61h1.617c0.832,0,1.396,0.088,1.691,0.262c0.293,0.174,0.441,0.485,0.441,0.938v2.075
				c0,0.381-0.096,0.65-0.291,0.807c-0.195,0.158-0.539,0.253-1.033,0.286c0.527,0.025,0.895,0.116,1.1,0.273
				c0.205,0.158,0.309,0.431,0.309,0.819v3.702h-1.125v-3.422c0-0.431-0.082-0.71-0.246-0.839c-0.164-0.128-0.502-0.192-1.012-0.192
				h-0.393v4.454h-1.059V160.61z M513.263,161.287v3.348h0.375c0.482,0,0.805-0.062,0.967-0.189c0.16-0.126,0.24-0.406,0.24-0.842
				v-1.272c0-0.439-0.08-0.724-0.24-0.852s-0.482-0.192-0.967-0.192H513.263L513.263,161.287z"/>
			<path fill="#331842" d="M518.929,160.61h1.549l1.775,9.162h-1.141l-0.426-2.547h-2.018l-0.457,2.547h-1.117L518.929,160.61z
				 M519.662,161.287l-0.893,5.268h1.775l-0.832-5.268H519.662z"/>
			<path fill="#331842" d="M523.378,160.61h1.617c0.832,0,1.396,0.088,1.691,0.262s0.441,0.485,0.441,0.938v2.075
				c0,0.381-0.096,0.65-0.291,0.807c-0.195,0.158-0.539,0.253-1.033,0.286c0.527,0.025,0.895,0.116,1.1,0.273
				c0.207,0.158,0.309,0.431,0.309,0.819v2.504c0,0.45-0.146,0.764-0.443,0.938c-0.295,0.174-0.857,0.261-1.689,0.261h-1.701V160.61
				z M524.437,161.287v3.348h0.375c0.482,0,0.805-0.062,0.967-0.189c0.162-0.126,0.24-0.406,0.24-0.842v-1.272
				c0-0.439-0.08-0.724-0.24-0.852s-0.482-0.192-0.967-0.192H524.437L524.437,161.287z M524.437,165.318v3.776h0.393
				c0.51,0,0.848-0.062,1.012-0.189c0.164-0.126,0.246-0.403,0.246-0.835v-1.72c0-0.431-0.082-0.71-0.246-0.839
				c-0.164-0.128-0.502-0.192-1.012-0.192L524.437,165.318L524.437,165.318z"/>
			<path fill="#331842" d="M530.103,160.61h1.551l1.773,9.162h-1.141l-0.426-2.547h-2.018l-0.457,2.547h-1.117L530.103,160.61z
				 M530.835,161.287l-0.891,5.268h1.773l-0.832-5.268H530.835z"/>
			<path fill="#331842" d="M536.119,160.61h1.076v7.292c0,0.767-0.129,1.293-0.389,1.581c-0.258,0.288-0.709,0.433-1.354,0.433
				s-1.092-0.114-1.346-0.342c-0.254-0.229-0.379-0.645-0.379-1.249v-1.02h1.092v0.987c0,0.381,0.047,0.634,0.137,0.758
				c0.092,0.125,0.258,0.187,0.496,0.187c0.25,0,0.424-0.08,0.521-0.241s0.146-0.484,0.146-0.97v-7.416H536.119z"/>
			<path fill="#331842" d="M542.876,162.479v5.422c0,0.787-0.141,1.321-0.424,1.604s-0.789,0.422-1.518,0.422
				c-0.717,0-1.217-0.143-1.5-0.429s-0.426-0.818-0.426-1.597v-5.422c0-0.771,0.145-1.297,0.43-1.581
				c0.285-0.283,0.789-0.425,1.512-0.425s1.223,0.142,1.504,0.422C542.736,161.176,542.876,161.705,542.876,162.479z
				 M541.769,162.355c0-0.464-0.061-0.78-0.184-0.953c-0.121-0.172-0.338-0.258-0.65-0.258c-0.305,0-0.518,0.083-0.637,0.251
				c-0.119,0.167-0.178,0.487-0.178,0.959v5.671c0,0.478,0.061,0.798,0.182,0.963c0.123,0.166,0.34,0.249,0.65,0.249
				c0.305,0,0.518-0.083,0.637-0.249c0.119-0.165,0.18-0.485,0.18-0.963V162.355z"/>
		</g>
	</g>
	<polygon fill="#F2961C" points="448.041,196.285 458.421,232.291 594.136,226.973 602.457,196.285 	"/>
	<g>
		<g>
			<path fill="#331842" d="M516.974,208.791v0.876h-1.107v-0.852c0-0.359-0.049-0.606-0.15-0.741
				c-0.1-0.135-0.277-0.202-0.533-0.202c-0.244,0-0.416,0.075-0.516,0.227c-0.102,0.152-0.15,0.419-0.15,0.804v0.447
				c0,0.188,0.035,0.378,0.104,0.575c0.07,0.197,0.172,0.382,0.305,0.556l1.383,1.82c0.232,0.306,0.402,0.595,0.508,0.866
				c0.105,0.271,0.158,0.552,0.158,0.842v0.621c0,0.795-0.135,1.332-0.404,1.609c-0.27,0.276-0.748,0.416-1.438,0.416
				c-0.672,0-1.141-0.112-1.404-0.336c-0.264-0.223-0.396-0.646-0.396-1.267v-1.019h1.117v0.986c0,0.373,0.051,0.625,0.15,0.758
				c0.1,0.134,0.283,0.199,0.551,0.199c0.271,0,0.459-0.075,0.561-0.227c0.104-0.151,0.154-0.483,0.154-0.997v-0.633
				c0-0.236-0.029-0.45-0.088-0.644c-0.059-0.191-0.143-0.367-0.254-0.524l-1.467-1.95c-0.205-0.261-0.361-0.509-0.471-0.746
				c-0.107-0.236-0.162-0.441-0.162-0.615v-0.534c0-0.712,0.133-1.208,0.396-1.487s0.719-0.419,1.361-0.419
				c0.68,0,1.146,0.109,1.404,0.328C516.845,207.75,516.974,208.17,516.974,208.791z"/>
			<path fill="#331842" d="M519.5,207.338h1.551l1.775,9.162h-1.143l-0.426-2.547h-2.016l-0.459,2.547h-1.115L519.5,207.338z
				 M520.234,208.015l-0.893,5.269h1.775l-0.834-5.269H520.234z"/>
			<path fill="#331842" d="M523.949,207.338h1.059v8.435h1.908v0.728h-2.967V207.338z"/>
			<path fill="#331842" d="M527.89,207.338H529v7.416c0,0.477,0.061,0.797,0.182,0.963c0.123,0.166,0.34,0.249,0.65,0.249
				c0.305,0,0.518-0.083,0.637-0.249s0.18-0.486,0.18-0.963v-7.416h1.107v7.292c0,0.787-0.141,1.321-0.424,1.603
				c-0.283,0.282-0.789,0.422-1.518,0.422c-0.717,0-1.217-0.143-1.5-0.429s-0.426-0.817-0.426-1.596v-7.292H527.89z"/>
			<path fill="#331842" d="M533.625,207.338h1.24c1.051,0,1.736,0.123,2.059,0.369c0.322,0.247,0.482,0.811,0.482,1.692v5.038
				c0,0.878-0.164,1.441-0.492,1.689c-0.328,0.249-1.01,0.373-2.049,0.373h-1.242v-9.162H533.625z M534.681,208.015v7.809h0.344
				c0.51,0,0.848-0.063,1.012-0.189s0.246-0.404,0.246-0.835v-5.739c0-0.435-0.084-0.717-0.25-0.848
				c-0.168-0.13-0.504-0.196-1.008-0.196L534.681,208.015L534.681,208.015z"/>
		</g>
	</g>
	<polygon fill="#F2961C" points="448.041,243.013 458.421,279.019 594.136,273.701 602.457,243.013 	"/>
	<g>
		<g>
			<path fill="#331842" d="M483.169,255.065h1.059v8.436h1.908v0.727h-2.967V255.065z"/>
			<path fill="#331842" d="M488.519,255.065h1.551l1.773,9.162h-1.141l-0.426-2.547h-2.018l-0.457,2.547h-1.117L488.519,255.065z
				 M489.251,255.742l-0.891,5.268h1.773l-0.832-5.268H489.251z"/>
			<path fill="#331842" d="M499.392,256.935v5.422c0,0.787-0.141,1.321-0.424,1.604s-0.789,0.422-1.518,0.422
				c-0.717,0-1.217-0.144-1.5-0.429c-0.283-0.286-0.424-0.818-0.424-1.597v-5.422c0-0.771,0.143-1.297,0.428-1.581
				c0.287-0.284,0.791-0.425,1.512-0.425c0.723,0,1.225,0.141,1.504,0.422C499.251,255.632,499.392,256.161,499.392,256.935z
				 M498.285,256.811c0-0.464-0.061-0.781-0.184-0.953c-0.121-0.172-0.338-0.258-0.648-0.258c-0.305,0-0.52,0.083-0.637,0.251
				c-0.119,0.167-0.18,0.487-0.18,0.959v5.671c0,0.478,0.061,0.797,0.184,0.963c0.121,0.166,0.338,0.249,0.648,0.249
				c0.307,0,0.52-0.083,0.639-0.249c0.117-0.166,0.178-0.485,0.178-0.963V256.811z"/>
			<path fill="#331842" d="M501.259,255.065h1.842l1.191,8.436h0.084l1.166-8.436h1.793v9.162h-0.926v-8.472h-0.166l-1.201,8.472
				h-1.482l-1.24-8.472h-0.143v8.472h-0.918V255.065L501.259,255.065z"/>
			<path fill="#331842" d="M512.451,256.519v0.876h-1.109v-0.851c0-0.36-0.049-0.607-0.148-0.742
				c-0.102-0.134-0.279-0.202-0.533-0.202c-0.244,0-0.418,0.075-0.518,0.228c-0.1,0.151-0.15,0.419-0.15,0.804v0.447
				c0,0.187,0.035,0.378,0.104,0.574c0.07,0.197,0.172,0.383,0.305,0.557l1.383,1.819c0.232,0.307,0.402,0.596,0.508,0.866
				c0.105,0.271,0.158,0.553,0.158,0.842v0.621c0,0.795-0.135,1.332-0.404,1.609s-0.748,0.416-1.438,0.416
				c-0.672,0-1.141-0.112-1.404-0.335s-0.396-0.646-0.396-1.267v-1.02h1.117v0.987c0,0.373,0.051,0.625,0.15,0.758
				s0.283,0.199,0.551,0.199c0.271,0,0.459-0.075,0.562-0.228c0.102-0.15,0.152-0.482,0.152-0.997v-0.633
				c0-0.235-0.027-0.45-0.088-0.643c-0.057-0.192-0.143-0.367-0.254-0.525l-1.465-1.95c-0.207-0.261-0.363-0.509-0.473-0.746
				c-0.107-0.235-0.16-0.44-0.16-0.614v-0.534c0-0.712,0.131-1.208,0.395-1.488c0.264-0.279,0.719-0.419,1.363-0.419
				c0.678,0,1.145,0.11,1.402,0.329C512.322,255.478,512.451,255.897,512.451,256.519z"/>
			<path fill="#331842" d="M516.542,255.065h1.615c0.834,0,1.396,0.087,1.691,0.262c0.295,0.174,0.443,0.485,0.443,0.938v2.075
				c0,0.381-0.098,0.65-0.293,0.807c-0.195,0.158-0.539,0.253-1.033,0.286c0.529,0.025,0.895,0.116,1.102,0.273
				c0.205,0.158,0.307,0.431,0.307,0.819v3.702h-1.125v-3.422c0-0.431-0.082-0.71-0.246-0.839c-0.164-0.128-0.5-0.192-1.012-0.192
				h-0.393v4.454h-1.057V255.065z M517.599,255.742v3.348h0.375c0.484,0,0.807-0.063,0.969-0.189c0.16-0.126,0.24-0.406,0.24-0.842
				v-1.272c0-0.439-0.082-0.724-0.24-0.852c-0.162-0.128-0.484-0.192-0.969-0.192H517.599z"/>
			<path fill="#331842" d="M522.224,255.065h2.934v0.728h-1.875v3.298h1.793v0.72h-1.793v3.69h1.926v0.727h-2.984V255.065z"/>
			<path fill="#331842" d="M530.25,256.519v0.876h-1.117v-0.851c0-0.356-0.051-0.604-0.154-0.739
				c-0.102-0.136-0.283-0.205-0.545-0.205c-0.238,0-0.406,0.078-0.5,0.233c-0.094,0.154-0.143,0.48-0.143,0.978v5.671
				c0,0.511,0.051,0.842,0.15,0.994c0.1,0.153,0.283,0.229,0.551,0.229c0.227,0,0.391-0.072,0.492-0.218
				c0.1-0.145,0.148-0.391,0.148-0.738v-0.987h1.117v1.019c0,0.625-0.131,1.05-0.393,1.271c-0.262,0.222-0.729,0.333-1.4,0.333
				c-0.66,0-1.121-0.143-1.383-0.429s-0.393-0.818-0.393-1.597v-5.422c0-0.773,0.131-1.302,0.393-1.584s0.723-0.422,1.383-0.422
				c0.678,0,1.146,0.11,1.404,0.329C530.121,255.478,530.25,255.897,530.25,256.519z"/>
			<path fill="#331842" d="M535.449,256.935v5.422c0,0.787-0.143,1.321-0.426,1.604s-0.789,0.422-1.518,0.422
				c-0.717,0-1.217-0.144-1.5-0.429c-0.283-0.286-0.424-0.818-0.424-1.597v-5.422c0-0.771,0.143-1.297,0.428-1.581
				c0.287-0.284,0.791-0.425,1.514-0.425c0.721,0,1.223,0.141,1.504,0.422C535.306,255.632,535.449,256.161,535.449,256.935z
				 M534.339,256.811c0-0.464-0.061-0.781-0.182-0.953c-0.123-0.172-0.34-0.258-0.65-0.258c-0.305,0-0.518,0.083-0.637,0.251
				c-0.119,0.167-0.18,0.487-0.18,0.959v5.671c0,0.478,0.061,0.797,0.184,0.963c0.121,0.166,0.338,0.249,0.65,0.249
				c0.305,0,0.518-0.083,0.637-0.249s0.178-0.485,0.178-0.963V256.811z"/>
			<path fill="#331842" d="M537.316,255.065h1.842l1.189,8.436h0.084l1.166-8.436h1.793v9.162h-0.926v-8.472h-0.166l-1.201,8.472
				h-1.482l-1.24-8.472h-0.143v8.472h-0.918v-9.162H537.316z"/>
			<path fill="#331842" d="M545.298,255.065h1.125v9.162h-1.125V255.065z"/>
			<path fill="#331842" d="M548.296,255.065h2.934v0.728h-1.875v3.298h1.791v0.72h-1.791v3.69h1.926v0.727h-2.984V255.065z"/>
			<path fill="#331842" d="M552.804,255.065h1.451l1.758,8.615h0.018l-0.158-8.615h0.957v9.162h-1.467l-1.74-8.497h-0.033
				l0.15,8.497h-0.934v-9.162H552.804z"/>
			<path fill="#331842" d="M558.73,255.065h1.24c1.051,0,1.736,0.123,2.059,0.369c0.322,0.247,0.482,0.812,0.482,1.693v5.038
				c0,0.878-0.164,1.44-0.492,1.688c-0.326,0.249-1.01,0.373-2.049,0.373h-1.242v-9.162H558.73z M559.789,255.742v7.808h0.342
				c0.51,0,0.848-0.063,1.012-0.189s0.246-0.403,0.246-0.835v-5.738c0-0.436-0.084-0.718-0.25-0.849
				c-0.168-0.13-0.504-0.195-1.008-0.195L559.789,255.742L559.789,255.742z"/>
			<path fill="#331842" d="M565.421,255.065h1.549l1.775,9.162h-1.143l-0.424-2.547h-2.018l-0.457,2.547h-1.117L565.421,255.065z
				 M566.154,255.742l-0.893,5.268h1.775l-0.832-5.268H566.154z"/>
		</g>
	</g>
</g>
</svg>
