<?xml version="1.0" encoding="utf-8"?>
<!-- Generator: Adobe Illustrator 16.0.0, SVG Export Plug-In . SVG Version: 6.00 Build 0)  -->
<!DOCTYPE svg PUBLIC "-//W3C//DTD SVG 1.1//EN" "http://www.w3.org/Graphics/SVG/1.1/DTD/svg11.dtd">
<svg version="1.1" id="Capa_1" xmlns="http://www.w3.org/2000/svg" xmlns:xlink="http://www.w3.org/1999/xlink" x="0px" y="0px"
	 width="527.316px" height="328.894px" viewBox="0 0 527.316 328.894" enable-background="new 0 0 527.316 328.894"
	 xml:space="preserve">
<g>
	<g>
		<path fill="#2C5A67" d="M0,0l4.824,328.894l485.494-2.455L517,40.764c-2.939,1.357-6.246,2.037-9.705,1.839
			c-11.229-0.643-19.82-10.275-19.178-21.514c0.176-3.051,1.014-5.914,2.367-8.438L0,0z"/>
		<path fill="#2C5A67" d="M509.037,12.247c-5.527-0.316-10.266,3.907-10.582,9.435c-0.316,5.526,3.908,10.262,9.438,10.579
			c5.525,0.315,10.262-3.909,10.576-9.434C518.787,17.3,514.564,12.563,509.037,12.247z M513.103,26.276
			c0.287,0.324,0.262,0.819-0.062,1.109c-0.326,0.287-0.818,0.26-1.107-0.064l-3.529-3.959l-3.961,3.531
			c-0.324,0.288-0.82,0.26-1.109-0.063c-0.281-0.325-0.254-0.819,0.064-1.108l3.957-3.531l-3.529-3.96
			c-0.289-0.324-0.254-0.817,0.072-1.109c0.314-0.279,0.811-0.259,1.102,0.064l3.531,3.959l3.959-3.53
			c0.32-0.28,0.814-0.252,1.107,0.062c0.287,0.326,0.258,0.819-0.064,1.11l-3.959,3.531L513.103,26.276z"/>
		<g>
			<path fill="#2C5A67" d="M489.64,21.177c0.594-10.379,9.521-18.339,19.898-17.746c10.379,0.593,18.34,9.521,17.746,19.899
				s-9.521,18.339-19.898,17.746C497.007,40.481,489.046,31.556,489.64,21.177z M495.458,21.51
				c-0.41,7.171,5.09,13.336,12.26,13.746c7.17,0.41,13.338-5.088,13.746-12.259c0.412-7.17-5.088-13.337-12.258-13.747
				C502.037,8.841,495.869,14.34,495.458,21.51z"/>
		</g>
	</g>
	<g>
		<path fill="#A0C219" d="M90.45,61.265h9.223v2.285h-5.895v10.371h5.633v2.266h-5.633v11.602h6.052v2.285h-9.38V61.265z"/>
		<path fill="#A0C219" d="M104.625,61.265h3.327v26.523h6.001v2.285h-9.328V61.265z"/>
		<path fill="#A0C219" d="M136.434,65.835v2.754h-3.511v-2.676c0-1.12-0.162-1.895-0.485-2.324
			c-0.323-0.429-0.896-0.645-1.716-0.645c-0.752,0-1.275,0.244-1.572,0.732c-0.297,0.488-0.445,1.514-0.445,3.076v17.832
			c0,1.602,0.157,2.643,0.472,3.125c0.314,0.481,0.891,0.723,1.729,0.723c0.716,0,1.23-0.228,1.545-0.684
			c0.314-0.456,0.473-1.23,0.473-2.324v-3.105h3.511v3.203c0,1.966-0.411,3.297-1.231,3.994c-0.821,0.696-2.289,1.045-4.402,1.045
			c-2.078,0-3.528-0.449-4.35-1.348c-0.82-0.898-1.23-2.572-1.23-5.02V67.144c0-2.435,0.41-4.095,1.23-4.98
			c0.821-0.886,2.271-1.328,4.35-1.328c2.131,0,3.604,0.345,4.415,1.035C136.027,62.56,136.434,63.882,136.434,65.835z"/>
		<path fill="#A0C219" d="M140.783,61.265h3.537v28.809h-3.537V61.265z M143.298,54.292h3.695l-3.433,4.355h-2.568L143.298,54.292z"
			/>
		<path fill="#A0C219" d="M150.216,61.265h5.082c2.621,0,4.394,0.273,5.319,0.82c0.925,0.547,1.389,1.53,1.389,2.949v6.523
			c0,1.198-0.306,2.044-0.917,2.539c-0.611,0.495-1.694,0.794-3.249,0.898c1.659,0.078,2.812,0.364,3.458,0.859
			s0.97,1.354,0.97,2.578v11.641h-3.537v-10.76c0-1.354-0.258-2.233-0.772-2.637c-0.516-0.404-1.577-0.605-3.184-0.605h-1.231
			v14.004h-3.327L150.216,61.265L150.216,61.265z M153.543,63.394v10.527h1.179c1.52,0,2.533-0.199,3.039-0.596
			c0.507-0.397,0.76-1.279,0.76-2.646v-4.004c0-1.38-0.253-2.272-0.76-2.676c-0.506-0.404-1.52-0.605-3.039-0.605H153.543z"/>
		<path fill="#A0C219" d="M179.142,65.835v2.754h-3.512v-2.676c0-1.12-0.161-1.895-0.484-2.324
			c-0.323-0.429-0.896-0.645-1.716-0.645c-0.751,0-1.275,0.244-1.572,0.732c-0.298,0.488-0.445,1.514-0.445,3.076v17.832
			c0,1.602,0.157,2.643,0.472,3.125c0.314,0.481,0.891,0.723,1.729,0.723c0.717,0,1.232-0.228,1.547-0.684
			c0.314-0.456,0.471-1.23,0.471-2.324v-3.105h3.512v3.203c0,1.966-0.411,3.297-1.231,3.994c-0.821,0.696-2.289,1.045-4.402,1.045
			c-2.079,0-3.528-0.449-4.349-1.348c-0.822-0.898-1.232-2.572-1.232-5.02V67.144c0-2.435,0.41-4.095,1.232-4.98
			c0.82-0.886,2.27-1.328,4.349-1.328c2.131,0,3.603,0.345,4.415,1.035C178.735,62.56,179.142,63.882,179.142,65.835z"/>
		<path fill="#A0C219" d="M183.333,61.265h3.485v23.32c0,1.497,0.192,2.506,0.576,3.027c0.384,0.521,1.065,0.781,2.044,0.781
			c0.96,0,1.629-0.261,2.004-0.781c0.376-0.521,0.563-1.53,0.563-3.027v-23.32h3.485v22.93c0,2.474-0.445,4.153-1.337,5.039
			c-0.891,0.885-2.48,1.328-4.769,1.328c-2.253,0-3.825-0.449-4.716-1.348c-0.892-0.898-1.337-2.572-1.337-5.02V61.265H183.333z"/>
		<path fill="#A0C219" d="M201.36,61.265h3.327v26.523h6v2.285h-9.327V61.265z"/>
		<path fill="#A0C219" d="M225.91,67.144v17.051c0,2.474-0.445,4.153-1.336,5.039c-0.891,0.885-2.48,1.328-4.769,1.328
			c-2.254,0-3.825-0.449-4.717-1.348c-0.891-0.898-1.336-2.572-1.336-5.02v-17.05c0-2.422,0.449-4.079,1.35-4.971
			c0.899-0.892,2.484-1.338,4.756-1.338c2.27,0,3.847,0.442,4.729,1.328C225.47,63.048,225.91,64.708,225.91,67.144z
			 M222.426,66.753c0-1.458-0.192-2.458-0.576-2.998c-0.385-0.541-1.065-0.811-2.044-0.811c-0.961,0-1.629,0.264-2.004,0.791
			c-0.377,0.527-0.564,1.533-0.564,3.018v17.832c0,1.497,0.192,2.506,0.577,3.027c0.384,0.521,1.065,0.781,2.044,0.781
			c0.96,0,1.628-0.261,2.004-0.781c0.375-0.521,0.563-1.53,0.563-3.027V66.753z"/>
		<path fill="#A0C219" d="M237.779,61.265h3.38l3.59,25.938h0.367l3.38-25.938h3.17l-4.192,28.809h-5.188L237.779,61.265z"/>
		<path fill="#A0C219" d="M255.491,61.265h3.537v28.809h-3.537V61.265L255.491,61.265z"/>
		<path fill="#A0C219" d="M275.98,65.835v2.754h-3.511v-2.676c0-1.12-0.162-1.895-0.484-2.324c-0.323-0.43-0.896-0.645-1.717-0.645
			c-0.751,0-1.274,0.244-1.572,0.732c-0.297,0.488-0.444,1.514-0.444,3.076v17.832c0,1.602,0.156,2.643,0.472,3.125
			c0.313,0.481,0.892,0.723,1.729,0.723c0.715,0,1.23-0.228,1.545-0.684s0.473-1.23,0.473-2.324v-3.105h3.511v3.203
			c0,1.966-0.41,3.297-1.231,3.994c-0.82,0.696-2.287,1.045-4.4,1.045c-2.079,0-3.528-0.449-4.35-1.348
			c-0.822-0.899-1.231-2.572-1.231-5.02V67.144c0-2.435,0.409-4.095,1.231-4.98c0.82-0.886,2.271-1.328,4.35-1.328
			c2.131,0,3.604,0.345,4.415,1.035C275.574,62.56,275.98,63.882,275.98,65.835z"/>
		<path fill="#A0C219" d="M280.33,61.265h3.537v28.809h-3.537V61.265z"/>
		<path fill="#A0C219" d="M301.763,67.144v17.051c0,2.474-0.445,4.153-1.336,5.039c-0.891,0.885-2.48,1.328-4.77,1.328
			c-2.254,0-3.824-0.449-4.717-1.348c-0.891-0.898-1.336-2.572-1.336-5.02v-17.05c0-2.422,0.449-4.079,1.35-4.971
			c0.899-0.892,2.484-1.338,4.756-1.338c2.271,0,3.848,0.442,4.729,1.328C301.321,63.048,301.763,64.708,301.763,67.144z
			 M298.278,66.753c0-1.458-0.192-2.458-0.575-2.998c-0.386-0.541-1.066-0.811-2.045-0.811c-0.961,0-1.629,0.264-2.005,0.791
			s-0.563,1.533-0.563,3.018v17.832c0,1.497,0.193,2.506,0.578,3.027c0.383,0.521,1.063,0.781,2.043,0.781
			c0.961,0,1.629-0.261,2.004-0.781c0.375-0.521,0.563-1.53,0.563-3.027V66.753z"/>
		<path fill="#A0C219" d="M317.72,65.835v2.754h-3.485v-2.676c0-1.133-0.157-1.911-0.472-2.334s-0.873-0.635-1.678-0.635
			c-0.769,0-1.31,0.237-1.623,0.713c-0.314,0.475-0.473,1.318-0.473,2.529v1.406c0,0.586,0.108,1.188,0.327,1.807
			c0.22,0.618,0.537,1.201,0.956,1.748l4.35,5.723c0.733,0.963,1.268,1.872,1.6,2.725c0.331,0.854,0.498,1.735,0.498,2.646v1.953
			c0,2.5-0.424,4.186-1.271,5.059c-0.848,0.872-2.354,1.309-4.52,1.309c-2.113,0-3.586-0.352-4.415-1.055
			c-0.829-0.703-1.244-2.031-1.244-3.984V82.32h3.511v3.105c0,1.172,0.157,1.966,0.473,2.383c0.313,0.417,0.891,0.625,1.729,0.625
			c0.855,0,1.445-0.238,1.77-0.713c0.322-0.476,0.483-1.521,0.483-3.135v-1.992c0-0.742-0.092-1.416-0.274-2.021
			c-0.184-0.605-0.449-1.156-0.799-1.65l-4.611-6.133c-0.646-0.82-1.141-1.602-1.48-2.344c-0.34-0.742-0.511-1.387-0.511-1.934
			v-1.68c0-2.24,0.414-3.799,1.244-4.678c0.829-0.879,2.258-1.318,4.284-1.318c2.131,0,3.603,0.345,4.414,1.035
			S317.72,63.882,317.72,65.835z"/>
		<path fill="#A0C219" d="M334.382,67.144v17.051c0,2.474-0.444,4.153-1.336,5.039c-0.891,0.885-2.479,1.328-4.769,1.328
			c-2.254,0-3.825-0.449-4.717-1.348c-0.892-0.898-1.336-2.572-1.336-5.02v-17.05c0-2.422,0.448-4.079,1.351-4.971
			c0.898-0.892,2.483-1.338,4.756-1.338c2.27,0,3.846,0.442,4.729,1.328C333.942,63.048,334.382,64.708,334.382,67.144z
			 M330.898,66.753c0-1.458-0.191-2.458-0.576-2.998c-0.385-0.541-1.064-0.811-2.044-0.811c-0.961,0-1.629,0.264-2.004,0.791
			c-0.377,0.527-0.563,1.533-0.563,3.018v17.832c0,1.497,0.191,2.506,0.576,3.027s1.065,0.781,2.045,0.781
			c0.959,0,1.627-0.261,2.004-0.781c0.375-0.521,0.562-1.53,0.562-3.027V66.753z"/>
		<path fill="#A0C219" d="M348.453,61.265h9.223v2.285h-5.896v10.371h5.634v2.266h-5.634v11.602h6.054v2.285h-9.381V61.265z"/>
		<path fill="#A0C219" d="M362.628,61.265h4.559l5.529,27.09h0.053l-0.498-27.09h3.014v28.809h-4.611l-5.477-26.719h-0.105
			l0.473,26.719h-2.936V61.265L362.628,61.265z"/>
		<path fill="#A0C219" d="M378.716,61.265h11.345v2.285h-3.981v26.523h-3.381V63.55h-3.982V61.265L378.716,61.265z"/>
		<path fill="#A0C219" d="M393.546,61.265h5.082c2.621,0,4.395,0.273,5.318,0.82c0.926,0.547,1.389,1.53,1.389,2.949v6.523
			c0,1.198-0.305,2.044-0.916,2.539c-0.611,0.495-1.695,0.794-3.25,0.898c1.66,0.078,2.812,0.364,3.459,0.859
			s0.969,1.354,0.969,2.578v11.641h-3.537v-10.76c0-1.354-0.258-2.233-0.771-2.637c-0.516-0.404-1.576-0.605-3.184-0.605h-1.23
			v14.004h-3.328V61.265L393.546,61.265z M396.873,63.394v10.527h1.18c1.52,0,2.533-0.199,3.039-0.596
			c0.506-0.397,0.76-1.279,0.76-2.646v-4.004c0-1.38-0.254-2.272-0.76-2.676s-1.52-0.605-3.039-0.605H396.873z"/>
		<path fill="#A0C219" d="M411.416,61.265h9.223v2.285h-5.896v10.371h5.633v2.266h-5.633v11.602h6.053v2.285h-9.379V61.265z"/>
		<path fill="#A0C219" d="M55.733,92.265h3.328v26.523h6v2.285h-9.328V92.265z"/>
		<path fill="#A0C219" d="M72.555,92.265h4.874l5.58,28.809H79.42l-1.337-8.008h-6.34l-1.441,8.008H66.79L72.555,92.265z
			 M74.86,94.394l-2.803,16.562h5.58l-2.62-16.562H74.86z"/>
		<path fill="#A0C219" d="M94.747,92.265h3.904c3.301,0,5.458,0.387,6.472,1.162c1.013,0.774,1.52,2.549,1.52,5.322v15.84
			c0,2.76-0.516,4.531-1.546,5.312c-1.031,0.781-3.18,1.172-6.445,1.172h-3.904L94.747,92.265L94.747,92.265z M98.075,94.394v24.551
			h1.074c1.606,0,2.668-0.199,3.184-0.596c0.515-0.397,0.772-1.273,0.772-2.627V97.675c0-1.367-0.262-2.256-0.786-2.666
			c-0.523-0.41-1.581-0.615-3.17-0.615H98.075z"/>
		<path fill="#A0C219" d="M112.512,92.265h3.537v28.809h-3.537V92.265z"/>
		<path fill="#A0C219" d="M132.032,96.835v2.754h-3.485v-2.676c0-1.133-0.157-1.911-0.472-2.334
			c-0.314-0.423-0.873-0.635-1.677-0.635c-0.769,0-1.31,0.237-1.624,0.713c-0.314,0.475-0.472,1.318-0.472,2.529v1.406
			c0,0.586,0.108,1.188,0.327,1.807c0.219,0.618,0.537,1.201,0.956,1.748l4.35,5.723c0.733,0.963,1.267,1.872,1.599,2.725
			c0.331,0.854,0.498,1.735,0.498,2.646v1.953c0,2.5-0.424,4.186-1.271,5.059c-0.848,0.872-2.354,1.309-4.52,1.309
			c-2.113,0-3.586-0.352-4.415-1.055c-0.829-0.703-1.244-2.031-1.244-3.984v-3.203h3.511v3.105c0,1.172,0.157,1.966,0.472,2.383
			c0.314,0.417,0.891,0.625,1.729,0.625c0.855,0,1.445-0.238,1.769-0.713c0.323-0.476,0.484-1.521,0.484-3.135v-1.992
			c0-0.742-0.092-1.416-0.274-2.021c-0.184-0.605-0.45-1.156-0.8-1.65l-4.611-6.133c-0.646-0.82-1.14-1.602-1.48-2.344
			c-0.34-0.742-0.511-1.387-0.511-1.934v-1.68c0-2.24,0.414-3.799,1.244-4.678c0.83-0.879,2.258-1.318,4.284-1.318
			c2.131,0,3.603,0.345,4.415,1.035S132.032,94.882,132.032,96.835z"/>
		<path fill="#A0C219" d="M147.753,96.835v2.754h-3.512v-2.676c0-1.12-0.161-1.895-0.484-2.324
			c-0.323-0.429-0.896-0.645-1.717-0.645c-0.751,0-1.274,0.244-1.571,0.732c-0.298,0.488-0.446,1.514-0.446,3.076v17.832
			c0,1.602,0.158,2.643,0.473,3.125c0.314,0.481,0.891,0.723,1.729,0.723c0.717,0,1.231-0.228,1.546-0.684
			c0.314-0.456,0.472-1.23,0.472-2.324v-3.105h3.512v3.203c0,1.966-0.411,3.297-1.232,3.994c-0.82,0.696-2.288,1.045-4.401,1.045
			c-2.079,0-3.528-0.449-4.35-1.348c-0.822-0.899-1.231-2.572-1.231-5.02V98.144c0-2.435,0.41-4.095,1.231-4.98
			c0.821-0.886,2.271-1.328,4.35-1.328c2.131,0,3.603,0.345,4.415,1.035C147.347,93.56,147.753,94.882,147.753,96.835z"/>
		<path fill="#A0C219" d="M155.377,92.265h4.873l5.581,28.809h-3.59l-1.336-8.008h-6.341l-1.44,8.008h-3.512L155.377,92.265z
			 M157.683,94.394l-2.804,16.562h5.581l-2.62-16.562H157.683z"/>
		<path fill="#A0C219" d="M169.368,92.265h4.297c2.62,0,4.402,0.276,5.346,0.83c0.943,0.553,1.414,1.533,1.414,2.939v8.281
			c0,1.406-0.471,2.383-1.414,2.93c-0.943,0.547-2.726,0.82-5.346,0.82h-0.969v13.008h-3.328V92.265z M172.696,94.394v11.562h0.891
			c1.327,0,2.214-0.199,2.659-0.596c0.445-0.397,0.668-1.292,0.668-2.686v-5c0-1.394-0.223-2.289-0.668-2.686
			c-0.445-0.397-1.332-0.596-2.659-0.596h-0.891V94.394z"/>
		<path fill="#A0C219" d="M186.608,92.265h4.873l5.581,28.809h-3.589l-1.337-8.008h-6.341l-1.44,8.008h-3.511L186.608,92.265z
			 M188.914,94.394l-2.804,16.562h5.581l-2.62-16.562H188.914z"/>
		<path fill="#A0C219" d="M211.657,96.835v2.754h-3.512v-2.676c0-1.12-0.161-1.895-0.484-2.324
			c-0.323-0.429-0.896-0.645-1.716-0.645c-0.751,0-1.275,0.244-1.572,0.732c-0.298,0.488-0.445,1.514-0.445,3.076v17.832
			c0,1.602,0.157,2.643,0.472,3.125c0.314,0.481,0.891,0.723,1.729,0.723c0.717,0,1.232-0.228,1.547-0.684
			c0.314-0.456,0.471-1.23,0.471-2.324v-3.105h3.512v3.203c0,1.966-0.411,3.297-1.231,3.994c-0.821,0.696-2.289,1.045-4.402,1.045
			c-2.079,0-3.528-0.449-4.349-1.348c-0.822-0.898-1.232-2.572-1.232-5.02V98.144c0-2.435,0.41-4.095,1.232-4.98
			c0.82-0.886,2.27-1.328,4.349-1.328c2.131,0,3.603,0.345,4.415,1.035C211.251,93.56,211.657,94.882,211.657,96.835z"/>
		<path fill="#A0C219" d="M216.007,92.265h3.537v28.809h-3.537V92.265z"/>
		<path fill="#A0C219" d="M225.438,92.265h3.904c3.301,0,5.458,0.387,6.472,1.162c1.013,0.774,1.52,2.549,1.52,5.322v15.84
			c0,2.76-0.516,4.531-1.546,5.312c-1.031,0.781-3.18,1.172-6.445,1.172h-3.904L225.438,92.265L225.438,92.265z M228.767,94.394
			v24.551h1.074c1.606,0,2.668-0.199,3.184-0.596c0.515-0.397,0.772-1.273,0.772-2.627V97.675c0-1.367-0.262-2.256-0.786-2.666
			c-0.523-0.41-1.581-0.615-3.17-0.615H228.767z"/>
		<path fill="#A0C219" d="M246.479,92.265h4.873l5.581,28.809h-3.59l-1.336-8.008h-6.341l-1.441,8.008h-3.511L246.479,92.265z
			 M248.784,94.394l-2.804,16.562h5.581l-2.62-16.562H248.784z"/>
		<path fill="#A0C219" d="M260.47,92.265h3.904c3.301,0,5.457,0.387,6.472,1.162c1.013,0.774,1.521,2.549,1.521,5.322v15.84
			c0,2.76-0.517,4.531-1.547,5.312c-1.031,0.781-3.18,1.172-6.445,1.172h-3.903L260.47,92.265L260.47,92.265z M263.797,94.394
			v24.551h1.076c1.605,0,2.668-0.199,3.183-0.596s0.772-1.273,0.772-2.627V97.675c0-1.367-0.263-2.256-0.785-2.666
			c-0.524-0.41-1.582-0.615-3.17-0.615H263.797z"/>
		<path fill="#A0C219" d="M283.475,92.265h3.537l3.483,13.125h0.289l3.145-13.125h3.432l-5.292,16.562v12.246h-3.38v-12.246
			L283.475,92.265z"/>
		<path fill="#A0C219" d="M308.707,92.265h3.326v26.523h6.002v2.285h-9.328V92.265z"/>
		<path fill="#A0C219" d="M325.527,92.265h4.873l5.581,28.809h-3.59l-1.336-8.008h-6.341l-1.44,8.008h-3.512L325.527,92.265z
			 M327.833,94.394l-2.805,16.562h5.581l-2.62-16.562H327.833z"/>
		<path fill="#A0C219" d="M347.72,92.265h4.297c2.62,0,4.402,0.276,5.346,0.83c0.942,0.553,1.414,1.533,1.414,2.939v8.281
			c0,1.406-0.472,2.383-1.414,2.93c-0.943,0.547-2.726,0.82-5.346,0.82h-0.971v13.008h-3.326V92.265z M351.046,94.394v11.562h0.893
			c1.327,0,2.214-0.199,2.659-0.596c0.444-0.397,0.668-1.292,0.668-2.686v-5c0-1.394-0.224-2.289-0.668-2.686
			c-0.445-0.397-1.332-0.596-2.659-0.596h-0.893V94.394z"/>
		<path fill="#A0C219" d="M374.865,98.144v17.051c0,2.474-0.445,4.153-1.337,5.039c-0.892,0.885-2.479,1.328-4.771,1.328
			c-2.252,0-3.824-0.449-4.715-1.348c-0.892-0.899-1.336-2.572-1.336-5.02v-17.05c0-2.422,0.449-4.079,1.349-4.971
			c0.899-0.892,2.485-1.338,4.756-1.338s3.849,0.442,4.729,1.328C374.423,94.048,374.865,95.708,374.865,98.144z M371.38,97.753
			c0-1.458-0.193-2.458-0.577-2.998c-0.384-0.541-1.065-0.811-2.044-0.811c-0.961,0-1.629,0.264-2.004,0.791
			c-0.377,0.527-0.563,1.533-0.563,3.018v17.832c0,1.497,0.192,2.506,0.576,3.027s1.065,0.781,2.044,0.781
			c0.961,0,1.629-0.261,2.004-0.781c0.376-0.521,0.564-1.53,0.564-3.027V97.753z"/>
		<path fill="#A0C219" d="M380.733,92.265h5.083c2.62,0,4.393,0.273,5.318,0.82c0.925,0.547,1.389,1.53,1.389,2.949v6.523
			c0,1.198-0.307,2.044-0.917,2.539c-0.61,0.495-1.694,0.794-3.249,0.898c1.659,0.078,2.812,0.364,3.459,0.859
			s0.971,1.354,0.971,2.578v7.871c0,1.419-0.465,2.402-1.39,2.949c-0.927,0.547-2.698,0.82-5.319,0.82h-5.345V92.265L380.733,92.265
			z M384.061,94.394v10.527h1.179c1.52,0,2.533-0.199,3.04-0.596c0.507-0.397,0.761-1.279,0.761-2.646v-4.004
			c0-1.38-0.254-2.272-0.761-2.676c-0.507-0.404-1.521-0.605-3.04-0.605H384.061z M384.061,107.069v11.875h1.231
			c1.606,0,2.668-0.199,3.184-0.596s0.773-1.273,0.773-2.627v-5.41c0-1.354-0.26-2.233-0.773-2.637
			c-0.516-0.404-1.576-0.605-3.184-0.605H384.061z"/>
		<path fill="#A0C219" d="M398.603,92.265h5.082c2.621,0,4.395,0.273,5.318,0.82c0.926,0.547,1.389,1.53,1.389,2.949v6.523
			c0,1.198-0.305,2.044-0.916,2.539c-0.611,0.495-1.693,0.794-3.25,0.898c1.66,0.078,2.812,0.364,3.459,0.859
			s0.971,1.354,0.971,2.578v11.641h-3.537V110.31c0-1.354-0.258-2.233-0.773-2.637c-0.516-0.404-1.574-0.605-3.184-0.605h-1.23
			v14.004h-3.326V92.265H398.603z M401.929,94.394v10.527h1.18c1.52,0,2.533-0.199,3.041-0.596c0.506-0.397,0.76-1.279,0.76-2.646
			v-4.004c0-1.38-0.254-2.272-0.76-2.676c-0.508-0.404-1.521-0.605-3.041-0.605H401.929z"/>
		<path fill="#A0C219" d="M416.472,92.265h9.223v2.285h-5.896v10.371h5.635v2.266h-5.635v11.602h6.053v2.285h-9.379V92.265z"/>
		<path fill="#A0C219" d="M428.656,92.265h10.4v2.52l-7.492,24.004h7.834v2.285h-11.109v-2.715l7.545-23.809h-7.178V92.265
			L428.656,92.265z"/>
		<path fill="#A0C219" d="M446.314,92.265h4.873l5.58,28.809h-3.588l-1.338-8.008h-6.34l-1.441,8.008h-3.512L446.314,92.265z
			 M448.621,94.394l-2.803,16.562h5.578l-2.619-16.562H448.621z"/>
	</g>
</g>
</svg>
