<?xml version="1.0" encoding="utf-8"?>
<!-- Generator: Adobe Illustrator 16.0.0, SVG Export Plug-In . SVG Version: 6.00 Build 0)  -->
<!DOCTYPE svg PUBLIC "-//W3C//DTD SVG 1.1//EN" "http://www.w3.org/Graphics/SVG/1.1/DTD/svg11.dtd">
<svg version="1.1" id="Capa_1" xmlns="http://www.w3.org/2000/svg" xmlns:xlink="http://www.w3.org/1999/xlink" x="0px" y="0px"
	 width="154.416px" height="36.005px" viewBox="448.041 149.558 154.416 36.005"
	 enable-background="new 448.041 149.558 154.416 36.005" xml:space="preserve">
<g>
	<polygon fill="#F2961C" points="448.041,149.558 458.421,185.563 594.136,180.246 602.457,149.558 	"/>
	<g>
		<g>
			<path fill="#331842" d="M507.488,160.61h3.606v0.728h-1.266v8.436h-1.076v-8.436h-1.266L507.488,160.61L507.488,160.61z"/>
			<path fill="#331842" d="M512.205,160.61h1.617c0.832,0,1.396,0.088,1.69,0.262c0.293,0.174,0.441,0.485,0.441,0.938v2.074
				c0,0.382-0.096,0.65-0.291,0.808c-0.195,0.158-0.539,0.253-1.033,0.286c0.527,0.024,0.896,0.115,1.1,0.272
				c0.205,0.158,0.31,0.432,0.31,0.819v3.702h-1.125v-3.422c0-0.432-0.082-0.71-0.246-0.84c-0.164-0.128-0.502-0.191-1.012-0.191
				h-0.394v4.454h-1.059L512.205,160.61L512.205,160.61z M513.263,161.287v3.348h0.375c0.482,0,0.806-0.062,0.968-0.188
				c0.159-0.126,0.239-0.406,0.239-0.842v-1.272c0-0.438-0.08-0.724-0.239-0.852c-0.16-0.128-0.482-0.192-0.968-0.192
				L513.263,161.287L513.263,161.287z"/>
			<path fill="#331842" d="M518.929,160.61h1.55l1.774,9.162h-1.141l-0.427-2.547h-2.018l-0.457,2.547h-1.117L518.929,160.61z
				 M519.662,161.287l-0.894,5.269h1.775l-0.832-5.269H519.662z"/>
			<path fill="#331842" d="M523.378,160.61h1.617c0.832,0,1.396,0.088,1.69,0.262s0.441,0.485,0.441,0.938v2.074
				c0,0.382-0.096,0.65-0.291,0.808c-0.195,0.158-0.539,0.253-1.033,0.286c0.527,0.024,0.896,0.115,1.101,0.272
				c0.206,0.158,0.309,0.432,0.309,0.819v2.504c0,0.45-0.146,0.764-0.443,0.938c-0.295,0.174-0.856,0.261-1.688,0.261h-1.701
				L523.378,160.61L523.378,160.61z M524.438,161.287v3.348h0.375c0.481,0,0.805-0.062,0.967-0.188
				c0.162-0.126,0.239-0.406,0.239-0.842v-1.272c0-0.438-0.079-0.724-0.239-0.852s-0.482-0.192-0.967-0.192L524.438,161.287
				L524.438,161.287z M524.438,165.318v3.775h0.393c0.51,0,0.848-0.062,1.012-0.188c0.164-0.126,0.246-0.403,0.246-0.835v-1.72
				c0-0.432-0.082-0.71-0.246-0.84c-0.164-0.128-0.502-0.191-1.012-0.191L524.438,165.318L524.438,165.318z"/>
			<path fill="#331842" d="M530.104,160.61h1.551l1.772,9.162h-1.141l-0.426-2.547h-2.019l-0.457,2.547h-1.117L530.104,160.61z
				 M530.835,161.287l-0.891,5.269h1.772l-0.832-5.269H530.835z"/>
			<path fill="#331842" d="M536.119,160.61h1.076v7.292c0,0.767-0.129,1.293-0.39,1.581c-0.258,0.288-0.709,0.433-1.354,0.433
				c-0.646,0-1.092-0.114-1.346-0.342c-0.255-0.229-0.38-0.645-0.38-1.249v-1.02h1.093v0.986c0,0.381,0.047,0.634,0.137,0.758
				c0.092,0.125,0.258,0.188,0.496,0.188c0.25,0,0.424-0.08,0.521-0.241c0.098-0.161,0.146-0.483,0.146-0.97V160.61L536.119,160.61z
				"/>
			<path fill="#331842" d="M542.876,162.479v5.422c0,0.787-0.141,1.321-0.424,1.604c-0.283,0.283-0.789,0.422-1.519,0.422
				c-0.717,0-1.217-0.143-1.5-0.429c-0.282-0.286-0.426-0.817-0.426-1.597v-5.422c0-0.771,0.146-1.297,0.43-1.581
				c0.285-0.283,0.789-0.425,1.513-0.425c0.723,0,1.223,0.142,1.504,0.422C542.736,161.176,542.876,161.705,542.876,162.479z
				 M541.769,162.355c0-0.464-0.061-0.78-0.184-0.953c-0.121-0.172-0.338-0.258-0.65-0.258c-0.305,0-0.518,0.083-0.637,0.251
				c-0.119,0.167-0.178,0.486-0.178,0.959v5.671c0,0.478,0.061,0.798,0.182,0.963c0.123,0.166,0.34,0.249,0.65,0.249
				c0.305,0,0.518-0.083,0.637-0.249c0.119-0.165,0.18-0.485,0.18-0.963V162.355z"/>
		</g>
	</g>
</g>
</svg>
