<?xml version="1.0" encoding="utf-8"?>
<!-- Generator: Adobe Illustrator 16.0.0, SVG Export Plug-In . SVG Version: 6.00 Build 0)  -->
<!DOCTYPE svg PUBLIC "-//W3C//DTD SVG 1.1//EN" "http://www.w3.org/Graphics/SVG/1.1/DTD/svg11.dtd">
<svg version="1.1" id="Capa_1" xmlns="http://www.w3.org/2000/svg" xmlns:xlink="http://www.w3.org/1999/xlink" x="0px" y="0px"
	 width="602.457px" height="279.568px" viewBox="0 0 602.457 279.568" enable-background="new 0 0 602.457 279.568"
	 xml:space="preserve">
<g>
	<g>
		<path fill="#F2961C" d="M17.822,3.797h2.651c2.242,0,3.707,0.264,4.395,0.789C25.555,5.112,25.9,6.316,25.9,8.2v10.756
			c0,1.875-0.35,3.077-1.05,3.606c-0.7,0.53-2.159,0.796-4.377,0.796h-2.651V3.797z M20.082,5.242v16.672h0.729
			c1.091,0,1.812-0.136,2.162-0.404c0.35-0.268,0.525-0.863,0.525-1.783V7.471c0-0.93-0.178-1.532-0.534-1.812
			s-1.074-0.418-2.153-0.418H20.082z"/>
		<path fill="#F2961C" d="M29.885,3.797h2.402V23.36h-2.402V3.797z"/>
		<path fill="#F2961C" d="M43.14,6.9v1.87h-2.366V6.953c0-0.77-0.107-1.297-0.32-1.585c-0.213-0.287-0.593-0.432-1.139-0.432
			c-0.522,0-0.89,0.161-1.103,0.483c-0.214,0.323-0.32,0.896-0.32,1.718v0.954c0,0.398,0.074,0.808,0.222,1.228
			c0.148,0.421,0.365,0.815,0.649,1.188l2.954,3.887c0.498,0.653,0.86,1.271,1.085,1.851c0.225,0.579,0.338,1.179,0.338,1.797v1.327
			c0,1.697-0.288,2.843-0.863,3.435c-0.575,0.593-1.598,0.89-3.069,0.89c-1.435,0-2.435-0.238-2.998-0.716
			c-0.563-0.479-0.845-1.38-0.845-2.706v-2.176h2.384v2.108c0,0.796,0.107,1.335,0.32,1.617c0.213,0.283,0.605,0.426,1.174,0.426
			c0.581,0,0.981-0.162,1.201-0.483c0.219-0.323,0.329-1.032,0.329-2.13v-1.352c0-0.505-0.062-0.963-0.187-1.373
			c-0.125-0.411-0.305-0.784-0.543-1.121l-3.131-4.165c-0.439-0.558-0.774-1.088-1.005-1.593c-0.231-0.504-0.347-0.94-0.347-1.313
			v-1.14c0-1.521,0.282-2.58,0.845-3.177c0.563-0.598,1.533-0.896,2.909-0.896c1.447,0,2.447,0.234,2.998,0.703
			S43.14,5.574,43.14,6.9z"/>
		<path fill="#F2961C" d="M53.816,6.9v1.87h-2.384V6.953c0-0.761-0.11-1.286-0.329-1.578c-0.22-0.292-0.608-0.438-1.166-0.438
			c-0.51,0-0.866,0.166-1.068,0.497c-0.202,0.332-0.302,1.027-0.302,2.089v12.108c0,1.088,0.107,1.795,0.32,2.122
			c0.214,0.327,0.605,0.491,1.174,0.491c0.486,0,0.836-0.155,1.05-0.465c0.214-0.311,0.32-0.836,0.32-1.578v-2.108h2.384v2.176
			c0,1.335-0.279,2.238-0.836,2.712c-0.558,0.474-1.554,0.709-2.989,0.709c-1.412,0-2.396-0.306-2.954-0.915
			S46.2,21.029,46.2,19.367V7.789c0-1.653,0.279-2.781,0.836-3.382c0.557-0.602,1.542-0.902,2.954-0.902
			c1.447,0,2.447,0.234,2.998,0.703C53.539,4.677,53.816,5.574,53.816,6.9z"/>
		<path fill="#F2961C" d="M58.993,3.797h3.309l3.79,19.563h-2.438l-0.907-5.438h-4.306l-0.979,5.438h-2.384L58.993,3.797z
			 M60.559,5.242L58.655,16.49h3.79L60.666,5.242H60.559z"/>
		<path fill="#F2961C" d="M68.495,3.797h2.918c1.779,0,2.989,0.188,3.63,0.563c0.641,0.376,0.961,1.041,0.961,1.996v5.624
			c0,0.955-0.32,1.618-0.961,1.989c-0.64,0.371-1.85,0.558-3.63,0.558h-0.658v8.833h-2.26V3.797z M70.754,5.242v7.852h0.605
			c0.901,0,1.504-0.135,1.806-0.404c0.302-0.271,0.454-0.877,0.454-1.822V7.471c0-0.946-0.151-1.555-0.454-1.824
			c-0.302-0.271-0.905-0.404-1.806-0.404L70.754,5.242L70.754,5.242z"/>
		<path fill="#F2961C" d="M80.202,3.797h3.309l3.79,19.563h-2.438l-0.907-5.438H79.65l-0.979,5.438h-2.384L80.202,3.797z
			 M81.768,5.242L79.864,16.49h3.79L81.875,5.242H81.768z"/>
		<path fill="#F2961C" d="M97.212,6.9v1.87h-2.384V6.953c0-0.761-0.11-1.286-0.329-1.578c-0.22-0.292-0.608-0.438-1.166-0.438
			c-0.51,0-0.866,0.166-1.068,0.497c-0.202,0.332-0.302,1.027-0.302,2.089v12.108c0,1.088,0.107,1.795,0.32,2.122
			c0.214,0.327,0.605,0.491,1.174,0.491c0.486,0,0.836-0.155,1.05-0.465c0.214-0.311,0.32-0.836,0.32-1.578v-2.108h2.384v2.176
			c0,1.335-0.279,2.238-0.836,2.712c-0.558,0.474-1.554,0.709-2.989,0.709c-1.412,0-2.396-0.306-2.954-0.915
			s-0.836-1.746-0.836-3.408V7.789c0-1.653,0.279-2.781,0.836-3.382c0.557-0.602,1.542-0.902,2.954-0.902
			c1.447,0,2.447,0.234,2.998,0.703C96.935,4.677,97.212,5.574,97.212,6.9z"/>
		<path fill="#F2961C" d="M100.166,3.797h2.402V23.36h-2.402V3.797z"/>
		<path fill="#F2961C" d="M106.571,3.797h2.651c2.242,0,3.707,0.264,4.395,0.789s1.032,1.729,1.032,3.614v10.756
			c0,1.875-0.35,3.077-1.05,3.606c-0.7,0.53-2.159,0.796-4.377,0.796h-2.651V3.797z M108.831,5.242v16.672h0.729
			c1.091,0,1.812-0.136,2.162-0.404c0.35-0.269,0.525-0.863,0.525-1.783V7.471c0-0.93-0.178-1.532-0.534-1.812
			s-1.074-0.418-2.153-0.418H108.831z"/>
		<path fill="#F2961C" d="M120.858,3.797h3.309l3.79,19.563h-2.438l-0.907-5.438h-4.306l-0.979,5.438h-2.384L120.858,3.797z
			 M122.424,5.242L120.52,16.49h3.79l-1.78-11.247L122.424,5.242L122.424,5.242z"/>
		<path fill="#F2961C" d="M130.359,3.797h2.651c2.242,0,3.707,0.264,4.395,0.789s1.032,1.729,1.032,3.614v10.756
			c0,1.875-0.35,3.077-1.05,3.606c-0.7,0.53-2.159,0.796-4.377,0.796h-2.651V3.797z M132.619,5.242v16.672h0.729
			c1.091,0,1.812-0.136,2.162-0.404c0.35-0.269,0.525-0.863,0.525-1.783V7.471c0-0.93-0.178-1.532-0.534-1.812
			s-1.074-0.418-2.153-0.418H132.619z"/>
		<path fill="#F2961C" d="M142.084,21.211h2.562l-1.868,4.431h-1.957L142.084,21.211z"/>
		<path fill="#F2961C" d="M153.561,3.797h2.918c1.779,0,2.989,0.188,3.63,0.563c0.641,0.376,0.961,1.041,0.961,1.996v5.624
			c0,0.955-0.32,1.618-0.961,1.989c-0.64,0.371-1.85,0.558-3.63,0.558h-0.658v8.833h-2.26V3.797z M155.82,5.242v7.852h0.605
			c0.901,0,1.504-0.135,1.806-0.404c0.302-0.271,0.454-0.877,0.454-1.822V7.471c0-0.946-0.151-1.555-0.454-1.824
			c-0.302-0.271-0.905-0.404-1.806-0.404L155.82,5.242L155.82,5.242z"/>
		<path fill="#F2961C" d="M171.994,7.789v11.579c0,1.68-0.302,2.82-0.907,3.422s-1.684,0.901-3.238,0.901
			c-1.53,0-2.598-0.306-3.203-0.915s-0.907-1.745-0.907-3.408V7.789c0-1.646,0.305-2.771,0.916-3.375
			c0.611-0.605,1.687-0.909,3.229-0.909s2.613,0.302,3.212,0.902C171.694,5.008,171.994,6.135,171.994,7.789z M169.627,7.523
			c0-0.989-0.131-1.669-0.391-2.036c-0.261-0.366-0.724-0.55-1.388-0.55c-0.653,0-1.106,0.18-1.361,0.537
			c-0.255,0.357-0.382,1.041-0.382,2.049v12.108c0,1.018,0.13,1.702,0.391,2.057c0.261,0.354,0.723,0.53,1.388,0.53
			c0.652,0,1.106-0.177,1.361-0.53c0.255-0.354,0.382-1.039,0.382-2.057V7.523z"/>
		<path fill="#F2961C" d="M175.979,3.797h3.452c1.779,0,2.983,0.187,3.612,0.558c0.628,0.372,0.943,1.039,0.943,2.003v4.431
			c0,0.813-0.208,1.389-0.623,1.726c-0.415,0.336-1.151,0.538-2.206,0.609c1.127,0.053,1.909,0.248,2.348,0.583
			c0.439,0.336,0.658,0.92,0.658,1.751V20.8c0,0.965-0.314,1.633-0.943,2.003c-0.629,0.371-1.833,0.558-3.612,0.558h-3.63
			L175.979,3.797L175.979,3.797z M178.239,5.242v7.148h0.801c1.032,0,1.72-0.136,2.064-0.405c0.344-0.271,0.516-0.868,0.516-1.797
			V7.471c0-0.938-0.172-1.544-0.516-1.817c-0.344-0.272-1.032-0.41-2.064-0.41L178.239,5.242L178.239,5.242z M178.239,13.85v8.063
			h0.836c1.091,0,1.812-0.136,2.162-0.404c0.35-0.269,0.525-0.863,0.525-1.783v-3.675c0-0.919-0.175-1.517-0.525-1.791
			c-0.35-0.273-1.071-0.41-2.162-0.41H178.239z"/>
		<path fill="#F2961C" d="M188.114,3.797h3.452c1.779,0,2.983,0.187,3.612,0.558c0.628,0.372,0.943,1.039,0.943,2.003v4.431
			c0,0.813-0.208,1.389-0.623,1.726c-0.415,0.336-1.151,0.538-2.206,0.609c1.127,0.053,1.909,0.248,2.348,0.583
			c0.439,0.336,0.658,0.92,0.658,1.751v7.904h-2.402v-7.309c0-0.919-0.175-1.517-0.525-1.79c-0.35-0.274-1.071-0.411-2.162-0.411
			h-0.836v9.51h-2.26L188.114,3.797L188.114,3.797z M190.374,5.242v7.148h0.801c1.032,0,1.72-0.136,2.064-0.405
			c0.344-0.271,0.516-0.868,0.516-1.797V7.471c0-0.938-0.172-1.544-0.516-1.817c-0.344-0.272-1.032-0.41-2.064-0.41L190.374,5.242
			L190.374,5.242z"/>
		<path fill="#F2961C" d="M200.249,3.797h6.263v1.553h-4.003v7.043h3.825v1.538h-3.825v7.878h4.11v1.552h-6.37V3.797z"/>
		<path fill="#F2961C" d="M208.522,3.797h7.064v1.711l-5.089,16.301h5.32v1.552h-7.544v-1.843l5.124-16.168h-4.875V3.797
			L208.522,3.797z"/>
		<path fill="#F2961C" d="M220.514,3.797h3.309l3.79,19.563h-2.438l-0.907-5.438h-4.306l-0.979,5.438H216.6L220.514,3.797z
			 M222.08,5.242l-1.904,11.247h3.79l-1.779-11.247H222.08z"/>
		<path fill="#F2961C" d="M233.574,3.797h2.402l2.366,8.913h0.196l2.135-8.913h2.331l-3.594,11.247v8.315h-2.295v-8.315
			L233.574,3.797z"/>
		<path fill="#F2961C" d="M258.857,7.789v11.579c0,1.68-0.302,2.82-0.907,3.422c-0.605,0.602-1.684,0.901-3.238,0.901
			c-1.53,0-2.598-0.306-3.203-0.915s-0.907-1.745-0.907-3.408V7.789c0-1.646,0.305-2.771,0.916-3.375
			c0.611-0.605,1.687-0.909,3.229-0.909s2.613,0.302,3.212,0.902C258.557,5.008,258.857,6.135,258.857,7.789z M256.49,7.523
			c0-0.989-0.131-1.669-0.391-2.036c-0.261-0.366-0.724-0.55-1.388-0.55c-0.653,0-1.106,0.18-1.361,0.537s-0.382,1.041-0.382,2.049
			v12.108c0,1.018,0.13,1.702,0.391,2.057c0.261,0.354,0.723,0.53,1.388,0.53c0.652,0,1.106-0.177,1.361-0.53
			c0.255-0.354,0.382-1.039,0.382-2.057V7.523z"/>
		<path fill="#F2961C" d="M261.117,3.797h7.704v1.553h-2.704V23.36h-2.295V5.349h-2.704L261.117,3.797L261.117,3.797z"/>
		<path fill="#F2961C" d="M271.188,3.797h3.452c1.779,0,2.983,0.187,3.612,0.558c0.628,0.372,0.943,1.039,0.943,2.003v4.431
			c0,0.813-0.208,1.389-0.623,1.726c-0.415,0.336-1.151,0.538-2.206,0.609c1.127,0.053,1.909,0.248,2.348,0.583
			c0.439,0.336,0.658,0.92,0.658,1.751v7.904h-2.402v-7.309c0-0.919-0.175-1.517-0.525-1.79c-0.35-0.274-1.071-0.411-2.162-0.411
			h-0.836v9.51h-2.26L271.188,3.797L271.188,3.797z M273.447,5.242v7.148h0.801c1.032,0,1.72-0.136,2.064-0.405
			c0.344-0.271,0.516-0.868,0.516-1.797V7.471c0-0.938-0.172-1.544-0.516-1.817c-0.344-0.272-1.032-0.41-2.064-0.41L273.447,5.242
			L273.447,5.242z"/>
		<path fill="#F2961C" d="M285.546,3.797h3.309l3.79,19.563h-2.438l-0.907-5.438h-4.306l-0.979,5.438h-2.384L285.546,3.797z
			 M287.112,5.242l-1.904,11.247h3.79l-1.779-11.247H287.112z"/>
		<path fill="#F2961C" d="M301.896,6.9v1.87h-2.365V6.953c0-0.77-0.107-1.297-0.32-1.585c-0.213-0.287-0.593-0.432-1.139-0.432
			c-0.522,0-0.89,0.161-1.103,0.483c-0.214,0.323-0.32,0.896-0.32,1.718v0.954c0,0.398,0.074,0.808,0.222,1.228
			c0.148,0.421,0.365,0.815,0.649,1.188l2.954,3.887c0.498,0.653,0.86,1.271,1.085,1.851c0.226,0.579,0.337,1.179,0.337,1.797v1.327
			c0,1.697-0.288,2.843-0.862,3.435c-0.575,0.593-1.598,0.89-3.069,0.89c-1.435,0-2.435-0.238-2.998-0.716
			c-0.563-0.479-0.845-1.38-0.845-2.706v-2.176h2.384v2.108c0,0.796,0.107,1.335,0.32,1.617c0.213,0.283,0.605,0.426,1.174,0.426
			c0.581,0,0.981-0.162,1.201-0.483c0.219-0.323,0.329-1.032,0.329-2.13v-1.352c0-0.505-0.062-0.963-0.187-1.373
			c-0.125-0.411-0.305-0.784-0.543-1.121l-3.131-4.165c-0.439-0.558-0.774-1.088-1.005-1.593c-0.231-0.504-0.347-0.94-0.347-1.313
			v-1.14c0-1.521,0.282-2.58,0.845-3.177c0.563-0.598,1.533-0.896,2.909-0.896c1.447,0,2.447,0.234,2.998,0.703
			C301.62,4.677,301.896,5.574,301.896,6.9z"/>
		<path fill="#F2961C" d="M317.482,6.9v1.87h-2.365V6.953c0-0.77-0.107-1.297-0.32-1.585c-0.213-0.287-0.592-0.432-1.139-0.432
			c-0.521,0-0.891,0.161-1.104,0.483c-0.214,0.323-0.32,0.896-0.32,1.718v0.954c0,0.398,0.074,0.808,0.223,1.228
			c0.148,0.421,0.365,0.815,0.648,1.188l2.955,3.887c0.498,0.653,0.858,1.271,1.084,1.851c0.227,0.58,0.338,1.179,0.338,1.797v1.327
			c0,1.697-0.287,2.843-0.861,3.435c-0.576,0.593-1.6,0.89-3.07,0.89c-1.434,0-2.434-0.238-2.998-0.716
			c-0.562-0.479-0.844-1.38-0.844-2.706v-2.176h2.383v2.108c0,0.796,0.107,1.335,0.32,1.617c0.213,0.283,0.605,0.426,1.174,0.426
			c0.582,0,0.98-0.162,1.201-0.483c0.219-0.323,0.33-1.032,0.33-2.13v-1.352c0-0.505-0.063-0.963-0.188-1.373
			c-0.125-0.411-0.306-0.784-0.544-1.121l-3.131-4.165c-0.438-0.558-0.774-1.088-1.006-1.593c-0.229-0.504-0.347-0.94-0.347-1.313
			v-1.14c0-1.521,0.281-2.58,0.845-3.177c0.563-0.598,1.532-0.896,2.91-0.896c1.446,0,2.446,0.234,2.997,0.703
			C317.207,4.677,317.482,5.574,317.482,6.9z"/>
		<path fill="#F2961C" d="M320.65,3.797h2.401V23.36h-2.401V3.797z"/>
		<path fill="#F2961C" d="M325.33,3.797h7.705v1.553h-2.705V23.36h-2.295V5.349h-2.703V3.797H325.33z"/>
		<path fill="#F2961C" d="M335.294,3.797h2.365v15.836c0,1.018,0.131,1.702,0.391,2.057c0.263,0.354,0.724,0.53,1.39,0.53
			c0.651,0,1.104-0.177,1.36-0.53c0.255-0.354,0.382-1.039,0.382-2.057V3.797h2.366v15.571c0,1.68-0.303,2.82-0.907,3.422
			c-0.604,0.602-1.685,0.901-3.238,0.901c-1.529,0-2.598-0.306-3.201-0.915c-0.605-0.609-0.908-1.745-0.908-3.408L335.294,3.797
			L335.294,3.797z"/>
		<path fill="#F2961C" d="M349.759,3.797h3.31l3.789,19.563h-2.438l-0.906-5.438h-4.307l-0.979,5.438h-2.386L349.759,3.797z
			 M351.326,5.242l-1.904,11.247h3.789l-1.777-11.247H351.326z"/>
		<path fill="#F2961C" d="M366.77,6.9v1.87h-2.386V6.953c0-0.761-0.108-1.286-0.327-1.578c-0.222-0.292-0.607-0.438-1.166-0.438
			c-0.511,0-0.867,0.166-1.068,0.497c-0.201,0.332-0.303,1.027-0.303,2.089v12.108c0,1.088,0.106,1.795,0.319,2.122
			c0.216,0.327,0.604,0.491,1.175,0.491c0.485,0,0.836-0.155,1.051-0.465c0.213-0.311,0.319-0.836,0.319-1.578v-2.108h2.384v2.176
			c0,1.335-0.277,2.238-0.836,2.712c-0.558,0.474-1.554,0.709-2.988,0.709c-1.412,0-2.396-0.306-2.953-0.915
			c-0.559-0.609-0.838-1.746-0.838-3.408V7.789c0-1.653,0.279-2.781,0.838-3.382c0.557-0.602,1.541-0.902,2.953-0.902
			c1.447,0,2.447,0.234,2.998,0.703S366.77,5.574,366.77,6.9z"/>
		<path fill="#F2961C" d="M369.723,3.797h2.401V23.36h-2.401V3.797z"/>
		<path fill="#F2961C" d="M384.275,7.789v11.579c0,1.68-0.301,2.82-0.906,3.422c-0.604,0.602-1.684,0.901-3.238,0.901
			c-1.529,0-2.598-0.306-3.203-0.915c-0.604-0.609-0.906-1.745-0.906-3.408V7.789c0-1.646,0.306-2.771,0.916-3.375
			c0.611-0.605,1.688-0.909,3.229-0.909c1.543,0,2.612,0.302,3.213,0.902C383.977,5.008,384.275,6.135,384.275,7.789z M381.91,7.523
			c0-0.989-0.131-1.669-0.391-2.036c-0.263-0.366-0.726-0.55-1.39-0.55c-0.651,0-1.104,0.18-1.36,0.537
			c-0.254,0.357-0.381,1.041-0.381,2.049v12.108c0,1.018,0.129,1.702,0.391,2.057c0.262,0.354,0.723,0.53,1.389,0.53
			c0.65,0,1.105-0.177,1.359-0.53c0.256-0.354,0.383-1.039,0.383-2.057V7.523z"/>
		<path fill="#F2961C" d="M388.262,3.797h3.096l3.754,18.396h0.037l-0.338-18.396h2.047V23.36h-3.133l-3.72-18.145h-0.069
			l0.319,18.145h-1.993V3.797L388.262,3.797z"/>
		<path fill="#F2961C" d="M400.914,3.797h6.262v1.553h-4.002v7.043h3.824v1.538h-3.824v7.878h4.109v1.552h-6.369V3.797z"/>
		<path fill="#F2961C" d="M417.388,6.9v1.87h-2.364V6.953c0-0.77-0.107-1.297-0.32-1.585c-0.213-0.287-0.594-0.432-1.141-0.432
			c-0.521,0-0.89,0.161-1.103,0.483c-0.215,0.323-0.32,0.896-0.32,1.718v0.954c0,0.398,0.074,0.808,0.224,1.228
			c0.146,0.421,0.362,0.815,0.647,1.188l2.953,3.887c0.498,0.653,0.861,1.271,1.086,1.851c0.226,0.58,0.338,1.179,0.338,1.797v1.327
			c0,1.697-0.289,2.843-0.862,3.435c-0.574,0.593-1.599,0.89-3.068,0.89c-1.436,0-2.436-0.238-2.998-0.716
			c-0.563-0.479-0.846-1.38-0.846-2.706v-2.176h2.385v2.108c0,0.796,0.105,1.335,0.32,1.617c0.213,0.283,0.604,0.426,1.174,0.426
			c0.58,0,0.979-0.162,1.201-0.483c0.219-0.323,0.328-1.032,0.328-2.13v-1.352c0-0.505-0.063-0.963-0.188-1.373
			c-0.125-0.411-0.305-0.784-0.543-1.121l-3.131-4.165c-0.439-0.558-0.773-1.088-1.004-1.593c-0.232-0.504-0.349-0.94-0.349-1.313
			v-1.14c0-1.521,0.281-2.58,0.847-3.177c0.562-0.598,1.53-0.896,2.908-0.896c1.446,0,2.446,0.234,2.997,0.703
			C417.11,4.676,417.388,5.574,417.388,6.9z"/>
		<path fill="#F2961C" d="M426.125,3.797h2.652c2.239,0,3.707,0.264,4.395,0.789c0.688,0.525,1.031,1.729,1.031,3.614v10.756
			c0,1.875-0.351,3.077-1.049,3.606c-0.701,0.53-2.16,0.796-4.377,0.796h-2.652V3.797L426.125,3.797z M428.384,5.242v16.672h0.729
			c1.092,0,1.812-0.136,2.162-0.404c0.35-0.268,0.524-0.863,0.524-1.783V7.471c0-0.93-0.178-1.532-0.535-1.812
			c-0.354-0.278-1.071-0.418-2.151-0.418H428.384z"/>
		<path fill="#F2961C" d="M438.188,3.797h6.264v1.553h-4.002v7.043h3.824v1.538h-3.824v7.878h4.108v1.552h-6.37V3.797z"/>
		<path fill="#F2961C" d="M451.888,3.797h2.295l2.438,17.613h0.25l2.295-17.613h2.152L458.47,23.36h-3.521L451.888,3.797z"/>
		<path fill="#F2961C" d="M463.808,3.797h2.367v15.836c0,1.018,0.129,1.702,0.392,2.057c0.262,0.354,0.723,0.53,1.389,0.53
			c0.652,0,1.104-0.177,1.361-0.53c0.254-0.354,0.381-1.039,0.381-2.057V3.797h2.365v15.571c0,1.68-0.302,2.82-0.906,3.422
			c-0.605,0.602-1.685,0.901-3.238,0.901c-1.529,0-2.598-0.306-3.203-0.915c-0.604-0.609-0.906-1.745-0.906-3.408L463.808,3.797
			L463.808,3.797z"/>
		<path fill="#F2961C" d="M476.05,3.797h2.26v18.012h4.074v1.552h-6.334V3.797z"/>
		<path fill="#F2961C" d="M484.574,3.797h3.096l3.754,18.396h0.035l-0.338-18.396h2.045V23.36h-3.131l-3.719-18.145h-0.07
			l0.32,18.145h-1.994V3.797H484.574z"/>
		<path fill="#F2961C" d="M497.222,3.797h6.265v1.553h-4.002v7.043h3.823v1.538h-3.823v7.878h4.108v1.552h-6.371V3.797z"/>
		<path fill="#F2961C" d="M506.849,3.797h3.451c1.779,0,2.984,0.187,3.613,0.558c0.627,0.372,0.942,1.039,0.942,2.003v4.431
			c0,0.813-0.209,1.389-0.622,1.726c-0.416,0.336-1.152,0.538-2.207,0.609c1.127,0.053,1.907,0.248,2.348,0.583
			c0.439,0.336,0.658,0.92,0.658,1.751v7.904h-2.402v-7.309c0-0.919-0.174-1.517-0.522-1.79c-0.353-0.274-1.072-0.411-2.162-0.411
			h-0.836v9.51h-2.263V3.797H506.849z M509.109,5.242v7.148h0.801c1.033,0,1.721-0.136,2.063-0.405
			c0.345-0.271,0.517-0.868,0.517-1.797V7.471c0-0.938-0.172-1.544-0.517-1.817c-0.344-0.272-1.03-0.41-2.063-0.41L509.109,5.242
			L509.109,5.242z"/>
		<path fill="#F2961C" d="M521.208,3.797h3.309l3.789,19.563h-2.438l-0.906-5.438h-4.307l-0.979,5.438h-2.385L521.208,3.797z
			 M522.773,5.242l-1.904,11.247h3.791l-1.78-11.247H522.773z"/>
		<path fill="#F2961C" d="M530.708,3.797h3.453c1.779,0,2.981,0.187,3.611,0.558c0.629,0.372,0.942,1.039,0.942,2.003v4.431
			c0,0.813-0.209,1.389-0.623,1.726c-0.416,0.336-1.149,0.538-2.207,0.609c1.127,0.053,1.91,0.248,2.351,0.583
			c0.438,0.336,0.655,0.92,0.655,1.751V20.8c0,0.965-0.312,1.633-0.94,2.003c-0.629,0.371-1.834,0.558-3.613,0.558h-3.629V3.797
			L530.708,3.797z M532.968,5.242v7.148h0.802c1.032,0,1.721-0.136,2.063-0.405c0.344-0.271,0.516-0.868,0.516-1.797V7.471
			c0-0.938-0.172-1.544-0.516-1.817c-0.344-0.272-1.031-0.41-2.063-0.41L532.968,5.242L532.968,5.242z M532.968,13.85v8.063h0.836
			c1.093,0,1.813-0.136,2.162-0.404c0.353-0.269,0.525-0.863,0.525-1.783v-3.675c0-0.919-0.174-1.517-0.525-1.791
			c-0.35-0.273-1.069-0.41-2.162-0.41H532.968z"/>
		<path fill="#F2961C" d="M542.843,3.797h2.402V23.36h-2.402V3.797z"/>
		<path fill="#F2961C" d="M549.25,3.797h2.26v18.012h4.074v1.552h-6.334V3.797z"/>
		<path fill="#F2961C" d="M557.771,3.797h2.401V23.36h-2.401V3.797z"/>
		<path fill="#F2961C" d="M564.177,3.797h2.65c2.242,0,3.707,0.264,4.395,0.789c0.689,0.525,1.033,1.729,1.033,3.614v10.756
			c0,1.875-0.35,3.077-1.051,3.606c-0.699,0.53-2.158,0.796-4.377,0.796h-2.65V3.797z M566.438,5.242v16.672h0.729
			c1.092,0,1.813-0.136,2.162-0.404c0.35-0.268,0.525-0.863,0.525-1.783V7.471c0-0.93-0.179-1.532-0.533-1.812
			c-0.357-0.278-1.074-0.418-2.154-0.418H566.438z"/>
		<path fill="#F2961C" d="M578.464,3.797h3.31l3.789,19.563h-2.438l-0.906-5.438h-4.307l-0.979,5.438h-2.385L578.464,3.797z
			 M580.031,5.242l-1.904,11.247h3.789l-1.779-11.247H580.031z"/>
		<path fill="#F2961C" d="M587.964,3.797h2.652c2.242,0,3.707,0.264,4.395,0.789c0.688,0.525,1.031,1.729,1.031,3.614v10.756
			c0,1.875-0.35,3.077-1.049,3.606c-0.701,0.53-2.16,0.796-4.377,0.796h-2.652V3.797z M590.224,5.242v16.672h0.73
			c1.09,0,1.811-0.136,2.162-0.404c0.35-0.269,0.522-0.863,0.522-1.783V7.471c0-0.93-0.178-1.532-0.533-1.812
			c-0.354-0.279-1.073-0.418-2.151-0.418H590.224z"/>
	</g>
</g>
</svg>
