<?xml version="1.0" encoding="utf-8"?>
<!-- Generator: Adobe Illustrator 16.0.0, SVG Export Plug-In . SVG Version: 6.00 Build 0)  -->
<!DOCTYPE svg PUBLIC "-//W3C//DTD SVG 1.1//EN" "http://www.w3.org/Graphics/SVG/1.1/DTD/svg11.dtd">
<svg version="1.1" id="Capa_1" xmlns="http://www.w3.org/2000/svg" xmlns:xlink="http://www.w3.org/1999/xlink" x="0px" y="0px"
	 width="527.316px" height="328.894px" viewBox="0 0 527.316 328.894" enable-background="new 0 0 527.316 328.894"
	 xml:space="preserve">
<g>
	<g>
		<path fill="#2C5A67" d="M0,0l4.824,328.894l485.494-2.455L517,40.764c-2.939,1.357-6.246,2.037-9.705,1.839
			c-11.229-0.643-19.82-10.275-19.178-21.514c0.176-3.051,1.014-5.914,2.367-8.438L0,0z"/>
		<path fill="#2C5A67" d="M509.037,12.247c-5.527-0.316-10.266,3.907-10.582,9.435c-0.316,5.526,3.908,10.262,9.438,10.579
			c5.525,0.315,10.262-3.909,10.576-9.434C518.787,17.3,514.564,12.563,509.037,12.247z M513.103,26.276
			c0.287,0.324,0.262,0.819-0.062,1.109c-0.326,0.287-0.818,0.26-1.107-0.064l-3.529-3.959l-3.961,3.531
			c-0.324,0.288-0.82,0.26-1.109-0.063c-0.281-0.325-0.254-0.819,0.064-1.108l3.957-3.531l-3.529-3.96
			c-0.289-0.324-0.254-0.817,0.072-1.109c0.314-0.279,0.811-0.259,1.102,0.064l3.531,3.959l3.959-3.53
			c0.32-0.28,0.814-0.252,1.107,0.062c0.287,0.326,0.258,0.819-0.064,1.11l-3.959,3.531L513.103,26.276z"/>
		<g>
			<path fill="#2C5A67" d="M489.64,21.177c0.594-10.379,9.521-18.339,19.898-17.746c10.379,0.593,18.34,9.521,17.746,19.899
				s-9.521,18.339-19.898,17.746C497.007,40.481,489.046,31.556,489.64,21.177z M495.458,21.51
				c-0.41,7.171,5.09,13.336,12.26,13.746c7.17,0.41,13.338-5.088,13.746-12.259c0.412-7.17-5.088-13.337-12.258-13.747
				C502.037,8.841,495.869,14.34,495.458,21.51z"/>
		</g>
	</g>
	<g>
		<path fill="#A0C219" d="M198.177,60.807h11.345v2.285h-3.982v26.523h-3.38V63.092h-3.982v-2.285H198.177z"/>
		<path fill="#A0C219" d="M213.007,60.807h5.082c2.621,0,4.394,0.273,5.319,0.82c0.925,0.547,1.389,1.53,1.389,2.949V71.1
			c0,1.198-0.306,2.045-0.917,2.539c-0.611,0.495-1.694,0.795-3.249,0.898c1.659,0.078,2.812,0.365,3.458,0.859
			c0.646,0.495,0.97,1.354,0.97,2.578v11.641h-3.537V78.854c0-1.354-0.258-2.232-0.772-2.637c-0.516-0.403-1.577-0.605-3.184-0.605
			h-1.231v14.004h-3.327L213.007,60.807L213.007,60.807z M216.334,62.936v10.527h1.179c1.52,0,2.533-0.198,3.039-0.596
			c0.507-0.396,0.76-1.279,0.76-2.646v-4.004c0-1.38-0.253-2.271-0.76-2.676c-0.506-0.403-1.52-0.605-3.039-0.605H216.334z"/>
		<path fill="#A0C219" d="M234.15,60.807h4.874l5.58,28.809h-3.589l-1.337-8.008h-6.34l-1.441,8.008h-3.512L234.15,60.807z
			 M236.456,62.936l-2.803,16.562h5.58l-2.62-16.562H236.456z"/>
		<path fill="#A0C219" d="M248.142,60.807h5.084c2.619,0,4.393,0.273,5.318,0.82c0.925,0.547,1.389,1.53,1.389,2.949V71.1
			c0,1.198-0.306,2.045-0.917,2.539c-0.612,0.495-1.694,0.795-3.249,0.898c1.659,0.078,2.812,0.365,3.459,0.859
			c0.646,0.495,0.969,1.354,0.969,2.578v7.871c0,1.42-0.463,2.402-1.389,2.949c-0.926,0.547-2.698,0.82-5.318,0.82h-5.346V60.807
			L248.142,60.807z M251.47,62.936v10.527h1.179c1.52,0,2.532-0.198,3.04-0.596c0.506-0.396,0.76-1.279,0.76-2.646v-4.004
			c0-1.38-0.254-2.271-0.76-2.676c-0.508-0.403-1.521-0.605-3.04-0.605H251.47z M251.47,75.611v11.875h1.231
			c1.606,0,2.668-0.198,3.184-0.596c0.515-0.396,0.772-1.272,0.772-2.627v-5.41c0-1.354-0.258-2.232-0.772-2.637
			c-0.516-0.403-1.577-0.605-3.184-0.605H251.47L251.47,75.611z"/>
		<path fill="#A0C219" d="M269.287,60.807h4.873l5.58,28.809h-3.589l-1.337-8.008h-6.341l-1.44,8.008h-3.511L269.287,60.807z
			 M271.591,62.936l-2.803,16.562h5.58l-2.619-16.562H271.591z"/>
		<path fill="#A0C219" d="M288.205,60.807h3.379v22.93c0,2.409-0.405,4.066-1.219,4.971c-0.812,0.905-2.23,1.357-4.258,1.357
			s-3.438-0.358-4.23-1.074c-0.795-0.716-1.192-2.024-1.192-3.926v-3.203h3.433v3.105c0,1.198,0.146,1.992,0.434,2.383
			c0.287,0.391,0.808,0.586,1.559,0.586c0.786,0,1.332-0.254,1.639-0.762c0.306-0.508,0.459-1.523,0.459-3.047v-23.32H288.205z"/>
		<path fill="#A0C219" d="M309.453,66.686v17.051c0,2.475-0.445,4.154-1.336,5.039c-0.892,0.886-2.48,1.328-4.77,1.328
			c-2.254,0-3.825-0.449-4.717-1.348c-0.891-0.899-1.336-2.571-1.336-5.02v-17.05c0-2.422,0.449-4.078,1.35-4.971
			c0.898-0.892,2.484-1.338,4.756-1.338s3.848,0.443,4.729,1.328C309.012,62.591,309.453,64.251,309.453,66.686z M305.968,66.295
			c0-1.458-0.192-2.457-0.576-2.998c-0.385-0.54-1.064-0.811-2.044-0.811c-0.961,0-1.63,0.264-2.005,0.791
			c-0.375,0.527-0.562,1.533-0.562,3.018v17.832c0,1.498,0.191,2.507,0.576,3.027c0.385,0.521,1.064,0.781,2.044,0.781
			c0.96,0,1.628-0.26,2.004-0.781s0.563-1.529,0.563-3.027V66.295z"/>
	</g>
</g>
</svg>
