<?xml version="1.0" encoding="utf-8"?>
<!-- Generator: Adobe Illustrator 16.0.0, SVG Export Plug-In . SVG Version: 6.00 Build 0)  -->
<!DOCTYPE svg PUBLIC "-//W3C//DTD SVG 1.1//EN" "http://www.w3.org/Graphics/SVG/1.1/DTD/svg11.dtd">
<svg version="1.1" id="Capa_1" xmlns="http://www.w3.org/2000/svg" xmlns:xlink="http://www.w3.org/1999/xlink" x="0px" y="0px"
	 width="527.316px" height="328.894px" viewBox="0 0 527.316 328.894" enable-background="new 0 0 527.316 328.894"
	 xml:space="preserve">
<g>
	<g>
		<path fill="#2C5A67" d="M0,0l4.824,328.894l485.494-2.455L517,40.764c-2.939,1.357-6.246,2.037-9.705,1.839
			c-11.229-0.643-19.82-10.275-19.178-21.514c0.176-3.051,1.014-5.914,2.367-8.438L0,0z"/>
		<path fill="#2C5A67" d="M509.037,12.247c-5.527-0.316-10.266,3.907-10.582,9.435c-0.316,5.526,3.908,10.262,9.438,10.579
			c5.525,0.315,10.262-3.909,10.576-9.434C518.787,17.3,514.564,12.563,509.037,12.247z M513.103,26.276
			c0.287,0.324,0.262,0.819-0.062,1.109c-0.326,0.287-0.818,0.26-1.107-0.064l-3.529-3.959l-3.961,3.531
			c-0.324,0.288-0.82,0.26-1.109-0.063c-0.281-0.325-0.254-0.819,0.064-1.108l3.957-3.531l-3.529-3.96
			c-0.289-0.324-0.254-0.817,0.072-1.109c0.314-0.279,0.811-0.259,1.102,0.064l3.531,3.959l3.959-3.53
			c0.32-0.28,0.814-0.252,1.107,0.062c0.287,0.326,0.258,0.819-0.064,1.11l-3.959,3.531L513.103,26.276z"/>
		<g>
			<path fill="#2C5A67" d="M489.64,21.177c0.594-10.379,9.521-18.339,19.898-17.746c10.379,0.593,18.34,9.521,17.746,19.899
				s-9.521,18.339-19.898,17.746C497.007,40.481,489.046,31.556,489.64,21.177z M495.458,21.51
				c-0.41,7.171,5.09,13.336,12.26,13.746c7.17,0.41,13.338-5.088,13.746-12.259c0.412-7.17-5.088-13.337-12.258-13.747
				C502.037,8.841,495.869,14.34,495.458,21.51z"/>
		</g>
	</g>
	<g>
		<path fill="#A0C219" d="M186.11,82.998h9.223v2.285h-5.895v10.371h5.633v2.266h-5.633v11.602h6.053v2.285h-9.381V82.998z"/>
		<path fill="#A0C219" d="M200.286,82.998h3.903c3.302,0,5.458,0.387,6.472,1.162c1.013,0.774,1.52,2.549,1.52,5.322v15.84
			c0,2.76-0.516,4.531-1.546,5.312c-1.03,0.781-3.179,1.172-6.445,1.172h-3.903L200.286,82.998L200.286,82.998z M203.613,85.127
			v24.551h1.074c1.606,0,2.668-0.199,3.184-0.596c0.515-0.397,0.772-1.273,0.772-2.627V88.408c0-1.367-0.262-2.256-0.786-2.666
			c-0.523-0.41-1.581-0.615-3.17-0.615H203.613z"/>
		<path fill="#A0C219" d="M217.893,82.998h3.485v23.32c0,1.497,0.191,2.506,0.576,3.027c0.384,0.521,1.065,0.781,2.043,0.781
			c0.961,0,1.629-0.261,2.005-0.781c0.376-0.521,0.563-1.53,0.563-3.027v-23.32h3.484v22.93c0,2.474-0.445,4.153-1.336,5.039
			c-0.891,0.885-2.48,1.328-4.769,1.328c-2.253,0-3.825-0.449-4.716-1.348c-0.892-0.898-1.337-2.572-1.337-5.021V82.998H217.893z"/>
		<path fill="#A0C219" d="M246.976,87.568v2.754h-3.511v-2.676c0-1.12-0.161-1.895-0.484-2.324
			c-0.323-0.429-0.896-0.646-1.716-0.646c-0.752,0-1.275,0.244-1.572,0.732c-0.298,0.488-0.445,1.514-0.445,3.076v17.832
			c0,1.602,0.156,2.643,0.471,3.125c0.314,0.481,0.892,0.723,1.729,0.723c0.716,0,1.231-0.228,1.546-0.684
			c0.314-0.456,0.472-1.23,0.472-2.324v-3.105h3.511v3.203c0,1.966-0.41,3.297-1.23,3.994c-0.822,0.696-2.289,1.045-4.402,1.045
			c-2.079,0-3.528-0.449-4.35-1.348c-0.822-0.899-1.231-2.572-1.231-5.02V88.877c0-2.435,0.41-4.095,1.231-4.98
			c0.821-0.886,2.271-1.328,4.35-1.328c2.131,0,3.603,0.345,4.415,1.035C246.569,84.293,246.976,85.615,246.976,87.568z"/>
		<path fill="#A0C219" d="M254.601,82.998h4.873l5.581,28.809h-3.589l-1.337-8.008h-6.341l-1.441,8.008h-3.511L254.601,82.998z
			 M256.906,85.127l-2.804,16.562h5.581l-2.62-16.562H256.906z"/>
		<path fill="#A0C219" d="M279.649,87.568v2.754h-3.512v-2.676c0-1.12-0.161-1.895-0.484-2.324
			c-0.323-0.429-0.896-0.646-1.717-0.646c-0.751,0-1.274,0.244-1.571,0.732c-0.298,0.488-0.445,1.514-0.445,3.076v17.832
			c0,1.602,0.158,2.643,0.473,3.125c0.314,0.481,0.891,0.723,1.729,0.723c0.717,0,1.231-0.228,1.547-0.684
			c0.313-0.456,0.471-1.23,0.471-2.324v-3.105h3.513v3.203c0,1.966-0.411,3.297-1.231,3.994c-0.82,0.696-2.289,1.045-4.401,1.045
			c-2.079,0-3.528-0.449-4.351-1.348c-0.822-0.899-1.23-2.572-1.23-5.02V88.877c0-2.435,0.41-4.095,1.23-4.98
			c0.821-0.886,2.271-1.328,4.351-1.328c2.131,0,3.603,0.345,4.415,1.035C279.244,84.293,279.649,85.615,279.649,87.568z"/>
		<path fill="#A0C219" d="M283.998,82.998h3.537v28.809h-3.537V82.998z"/>
		<path fill="#A0C219" d="M305.431,88.877v17.051c0,2.474-0.445,4.153-1.336,5.039c-0.891,0.885-2.48,1.328-4.77,1.328
			c-2.252,0-3.824-0.449-4.716-1.348c-0.892-0.898-1.337-2.572-1.337-5.021v-17.05c0-2.422,0.45-4.079,1.35-4.971
			c0.899-0.892,2.484-1.338,4.756-1.338c2.271,0,3.848,0.442,4.729,1.328S305.431,86.442,305.431,88.877z M301.946,88.486
			c0-1.458-0.192-2.458-0.575-2.998c-0.386-0.541-1.066-0.811-2.045-0.811c-0.961,0-1.629,0.264-2.005,0.791
			c-0.375,0.527-0.562,1.533-0.562,3.018v17.832c0,1.497,0.191,2.506,0.576,3.027c0.383,0.521,1.064,0.781,2.043,0.781
			c0.961,0,1.629-0.261,2.004-0.781c0.377-0.521,0.563-1.53,0.563-3.027V88.486L301.946,88.486z M300.19,76.025h3.694l-3.432,4.355
			h-2.568L300.19,76.025z"/>
		<path fill="#A0C219" d="M311.3,82.998h4.559l5.529,27.09h0.053l-0.498-27.09h3.014v28.809h-4.611l-5.477-26.719h-0.104
			l0.472,26.719H311.3V82.998z"/>
	</g>
</g>
</svg>
