<?xml version="1.0" encoding="utf-8"?>
<!-- Generator: Adobe Illustrator 16.0.0, SVG Export Plug-In . SVG Version: 6.00 Build 0)  -->
<!DOCTYPE svg PUBLIC "-//W3C//DTD SVG 1.1//EN" "http://www.w3.org/Graphics/SVG/1.1/DTD/svg11.dtd">
<svg version="1.1" id="Capa_1" xmlns="http://www.w3.org/2000/svg" xmlns:xlink="http://www.w3.org/1999/xlink" x="0px" y="0px"
	 width="154.416px" height="36.005px" viewBox="448.041 102.83 154.416 36.005"
	 enable-background="new 448.041 102.83 154.416 36.005" xml:space="preserve">
<g>
	<polygon fill="#F2961C" points="448.041,102.83 458.421,138.835 594.136,133.519 602.457,102.83 	"/>
	<g>
		<g>
			<path fill="#331842" d="M503.652,115.671h2.932v0.728h-1.875v3.298h1.793v0.721h-1.793v3.689h1.926v0.728h-2.981L503.652,115.671
				L503.652,115.671z"/>
			<path fill="#331842" d="M508.16,115.671h1.24c1.051,0,1.735,0.123,2.059,0.369c0.322,0.247,0.482,0.812,0.482,1.692v5.038
				c0,0.878-0.164,1.44-0.492,1.688c-0.328,0.249-1.01,0.373-2.049,0.373h-1.242v-9.162L508.16,115.671L508.16,115.671z
				 M509.218,116.348v7.809h0.342c0.513,0,0.849-0.063,1.013-0.189s0.246-0.403,0.246-0.835v-5.738c0-0.436-0.082-0.718-0.25-0.849
				c-0.166-0.13-0.502-0.195-1.009-0.195L509.218,116.348L509.218,116.348z"/>
			<path fill="#331842" d="M513.759,115.671h1.107v7.416c0,0.478,0.061,0.797,0.184,0.963c0.121,0.166,0.338,0.249,0.65,0.249
				c0.305,0,0.518-0.083,0.637-0.249s0.178-0.485,0.178-0.963v-7.416h1.109v7.292c0,0.787-0.143,1.321-0.426,1.604
				s-0.789,0.422-1.519,0.422c-0.717,0-1.217-0.143-1.5-0.429s-0.424-0.817-0.424-1.597v-7.292H513.759z"/>
			<path fill="#331842" d="M523.007,117.124V118h-1.115v-0.852c0-0.355-0.053-0.604-0.153-0.738
				c-0.104-0.137-0.285-0.205-0.545-0.205c-0.24,0-0.406,0.078-0.5,0.232c-0.097,0.154-0.144,0.48-0.144,0.979v5.671
				c0,0.511,0.049,0.842,0.15,0.994c0.1,0.152,0.283,0.229,0.549,0.229c0.229,0,0.394-0.072,0.492-0.218
				c0.099-0.145,0.149-0.391,0.149-0.738v-0.986h1.115v1.02c0,0.625-0.131,1.049-0.391,1.271c-0.262,0.222-0.729,0.332-1.4,0.332
				c-0.662,0-1.123-0.143-1.383-0.429c-0.262-0.286-0.393-0.817-0.393-1.597v-5.422c0-0.773,0.131-1.302,0.393-1.584
				c0.26-0.282,0.721-0.422,1.383-0.422c0.678,0,1.146,0.109,1.404,0.329C522.878,116.083,523.007,116.503,523.007,117.124z"/>
			<path fill="#331842" d="M525.433,115.671h1.552l1.772,9.162h-1.141l-0.426-2.547h-2.019l-0.457,2.547h-1.117L525.433,115.671z
				 M526.166,116.348l-0.891,5.269h1.772l-0.832-5.269H526.166z"/>
			<path fill="#331842" d="M533.4,117.124V118h-1.117v-0.852c0-0.355-0.053-0.604-0.154-0.738c-0.102-0.137-0.285-0.205-0.545-0.205
				c-0.24,0-0.406,0.078-0.5,0.232s-0.143,0.48-0.143,0.979v5.671c0,0.511,0.051,0.842,0.149,0.994
				c0.101,0.152,0.283,0.229,0.549,0.229c0.229,0,0.394-0.072,0.492-0.218c0.1-0.145,0.15-0.391,0.15-0.738v-0.986h1.117v1.02
				c0,0.625-0.134,1.049-0.394,1.271c-0.262,0.222-0.729,0.332-1.399,0.332c-0.66,0-1.121-0.143-1.384-0.429
				c-0.262-0.286-0.393-0.817-0.393-1.597v-5.422c0-0.773,0.131-1.302,0.393-1.584c0.263-0.282,0.724-0.422,1.384-0.422
				c0.678,0,1.146,0.109,1.403,0.329C533.269,116.083,533.4,116.503,533.4,117.124z"/>
			<path fill="#331842" d="M534.783,115.671h1.125v9.162h-1.125V115.671z"/>
			<path fill="#331842" d="M541.597,117.541v5.422c0,0.787-0.141,1.321-0.424,1.604s-0.789,0.422-1.518,0.422
				c-0.718,0-1.218-0.143-1.5-0.429c-0.283-0.286-0.425-0.817-0.425-1.597v-5.422c0-0.771,0.144-1.297,0.429-1.581
				c0.287-0.284,0.791-0.425,1.512-0.425c0.723,0,1.225,0.141,1.504,0.422C541.457,116.238,541.597,116.766,541.597,117.541z
				 M540.49,117.416c0-0.464-0.062-0.781-0.185-0.953c-0.121-0.172-0.338-0.258-0.647-0.258c-0.308,0-0.521,0.083-0.64,0.251
				c-0.116,0.167-0.178,0.486-0.178,0.959v5.671c0,0.478,0.062,0.797,0.183,0.963c0.123,0.166,0.34,0.249,0.649,0.249
				c0.306,0,0.521-0.083,0.638-0.249c0.118-0.166,0.18-0.485,0.18-0.963V117.416L540.49,117.416z M539.931,113.453h1.177
				l-1.093,1.385h-0.815L539.931,113.453z"/>
			<path fill="#331842" d="M543.464,115.671h1.451l1.758,8.615h0.019l-0.158-8.615h0.957v9.162h-1.467l-1.74-8.497h-0.033
				l0.15,8.497h-0.935v-9.162H543.464z"/>
		</g>
	</g>
</g>
</svg>
