<?xml version="1.0" encoding="utf-8"?>
<!-- Generator: Adobe Illustrator 16.0.0, SVG Export Plug-In . SVG Version: 6.00 Build 0)  -->
<!DOCTYPE svg PUBLIC "-//W3C//DTD SVG 1.1//EN" "http://www.w3.org/Graphics/SVG/1.1/DTD/svg11.dtd">
<svg version="1.1" id="Capa_1" xmlns="http://www.w3.org/2000/svg" xmlns:xlink="http://www.w3.org/1999/xlink" x="0px" y="0px"
	 width="135.051px" height="122.738px" viewBox="0 99.112 135.051 122.738" enable-background="new 0 99.112 135.051 122.738"
	 xml:space="preserve">
<g>
	<g>
		<g>
			<path fill="#575756" d="M43.103,205.612v6.834H41.55l-0.002-4.613l-0.618,4.613h-1.102l-0.652-4.509l-0.002,4.509H37.62v-6.834
				h2.3c0.068,0.411,0.138,0.896,0.211,1.453l0.252,1.739l0.408-3.191L43.103,205.612L43.103,205.612z"/>
			<path fill="#575756" d="M45.29,209.015h-1.6v-0.375c0-0.435,0.05-0.769,0.15-1.003c0.1-0.235,0.3-0.442,0.602-0.623
				c0.301-0.181,0.692-0.271,1.174-0.271c0.577,0,1.011,0.103,1.304,0.306c0.293,0.204,0.469,0.454,0.528,0.751
				c0.059,0.298,0.089,0.908,0.089,1.834v2.813h-1.659v-0.498c-0.104,0.199-0.239,0.35-0.403,0.449
				c-0.165,0.101-0.361,0.149-0.589,0.149c-0.298,0-0.572-0.083-0.821-0.251s-0.374-0.533-0.374-1.101v-0.46
				c0-0.419,0.066-0.704,0.198-0.856c0.132-0.151,0.46-0.329,0.984-0.531c0.56-0.22,0.86-0.367,0.899-0.443
				c0.04-0.075,0.059-0.229,0.059-0.464c0-0.292-0.022-0.482-0.065-0.571c-0.044-0.09-0.116-0.134-0.217-0.134
				c-0.115,0-0.187,0.037-0.215,0.112c-0.028,0.073-0.042,0.269-0.042,0.579v0.588H45.29L45.29,209.015z M47.084,205.325
				l-1.389,1.144h-0.857l0.743-1.144H47.084z M45.83,209.783c-0.273,0.199-0.431,0.366-0.475,0.502
				c-0.044,0.135-0.065,0.33-0.065,0.583c0,0.29,0.019,0.478,0.057,0.562c0.038,0.084,0.113,0.127,0.226,0.127
				c0.107,0,0.177-0.033,0.209-0.1c0.032-0.065,0.048-0.24,0.048-0.521V209.783z"/>
			<path fill="#575756" d="M51.605,208.635h-1.511v-0.304c0-0.26-0.015-0.423-0.044-0.492c-0.03-0.068-0.103-0.104-0.221-0.104
				c-0.096,0-0.167,0.031-0.215,0.096c-0.048,0.063-0.072,0.158-0.072,0.285c0,0.171,0.012,0.297,0.036,0.377
				c0.024,0.081,0.096,0.168,0.215,0.264c0.119,0.097,0.365,0.235,0.737,0.418c0.495,0.242,0.82,0.471,0.975,0.685
				c0.155,0.215,0.232,0.524,0.232,0.934c0,0.456-0.059,0.8-0.177,1.032c-0.118,0.231-0.316,0.41-0.593,0.535
				c-0.277,0.125-0.612,0.188-1.003,0.188c-0.433,0-0.804-0.066-1.112-0.201c-0.308-0.136-0.52-0.318-0.635-0.55
				c-0.115-0.23-0.173-0.58-0.173-1.047v-0.271h1.511v0.354c0,0.301,0.019,0.497,0.057,0.587c0.038,0.09,0.113,0.136,0.226,0.136
				c0.121,0,0.206-0.03,0.253-0.092c0.047-0.062,0.072-0.188,0.072-0.382c0-0.268-0.031-0.436-0.093-0.502
				c-0.065-0.067-0.395-0.269-0.992-0.601c-0.501-0.28-0.806-0.537-0.916-0.767c-0.11-0.229-0.165-0.502-0.165-0.816
				c0-0.447,0.059-0.776,0.177-0.989c0.118-0.213,0.319-0.376,0.602-0.492c0.283-0.115,0.612-0.173,0.986-0.173
				c0.372,0,0.687,0.047,0.948,0.141c0.26,0.096,0.46,0.22,0.599,0.374c0.139,0.155,0.224,0.299,0.253,0.431
				c0.03,0.132,0.044,0.339,0.044,0.621L51.605,208.635L51.605,208.635z"/>
			<path fill="#575756" d="M57.199,208.635h-1.511v-0.304c0-0.26-0.015-0.423-0.044-0.492c-0.03-0.068-0.103-0.104-0.221-0.104
				c-0.096,0-0.167,0.031-0.215,0.096c-0.048,0.063-0.072,0.158-0.072,0.285c0,0.171,0.012,0.297,0.036,0.377
				c0.024,0.081,0.096,0.168,0.215,0.264c0.119,0.097,0.365,0.235,0.737,0.418c0.495,0.242,0.82,0.471,0.975,0.685
				c0.155,0.215,0.232,0.524,0.232,0.934c0,0.456-0.059,0.8-0.177,1.032c-0.118,0.231-0.316,0.41-0.593,0.535
				s-0.612,0.188-1.003,0.188c-0.433,0-0.804-0.066-1.112-0.201c-0.308-0.136-0.52-0.318-0.635-0.55
				c-0.115-0.23-0.173-0.58-0.173-1.047v-0.271h1.511v0.354c0,0.301,0.019,0.497,0.057,0.587c0.038,0.091,0.113,0.136,0.226,0.136
				c0.121,0,0.206-0.03,0.253-0.092s0.072-0.188,0.072-0.382c0-0.268-0.031-0.436-0.093-0.502c-0.065-0.067-0.395-0.269-0.992-0.601
				c-0.501-0.28-0.806-0.537-0.916-0.767c-0.11-0.229-0.165-0.502-0.165-0.816c0-0.447,0.059-0.776,0.177-0.989
				s0.319-0.376,0.602-0.492c0.283-0.115,0.612-0.173,0.986-0.173c0.372,0,0.687,0.047,0.948,0.141
				c0.26,0.096,0.46,0.22,0.599,0.374c0.139,0.155,0.224,0.299,0.253,0.431c0.03,0.132,0.044,0.339,0.044,0.621L57.199,208.635
				L57.199,208.635z"/>
			<path fill="#575756" d="M59.31,209.015h-1.6v-0.375c0-0.435,0.05-0.769,0.15-1.003c0.1-0.235,0.3-0.442,0.602-0.623
				c0.301-0.181,0.692-0.271,1.174-0.271c0.577,0,1.011,0.103,1.304,0.306c0.293,0.204,0.469,0.454,0.528,0.751
				c0.059,0.298,0.089,0.908,0.089,1.834v2.813h-1.659v-0.498c-0.104,0.199-0.239,0.35-0.403,0.449
				c-0.165,0.101-0.361,0.149-0.589,0.149c-0.298,0-0.572-0.083-0.821-0.251s-0.374-0.533-0.374-1.101v-0.46
				c0-0.419,0.066-0.704,0.198-0.856c0.132-0.151,0.46-0.329,0.984-0.531c0.56-0.22,0.86-0.367,0.899-0.443
				c0.04-0.075,0.059-0.229,0.059-0.464c0-0.292-0.022-0.482-0.065-0.571c-0.044-0.09-0.116-0.134-0.217-0.134
				c-0.115,0-0.187,0.037-0.215,0.112c-0.028,0.073-0.042,0.269-0.042,0.579v0.588H59.31L59.31,209.015z M59.85,209.783
				c-0.273,0.199-0.431,0.366-0.475,0.502c-0.044,0.135-0.065,0.33-0.065,0.583c0,0.29,0.019,0.478,0.057,0.562
				c0.038,0.084,0.113,0.127,0.226,0.127c0.107,0,0.177-0.033,0.209-0.1c0.032-0.065,0.048-0.24,0.048-0.521V209.783z"/>
			<path fill="#575756" d="M63.898,205.612v6.834h-1.756v-6.834H63.898z"/>
			<path fill="#575756" d="M68.415,206.845v5.603H66.68l0.03-0.466c-0.118,0.188-0.264,0.331-0.437,0.426s-0.372,0.142-0.597,0.142
				c-0.256,0-0.469-0.045-0.637-0.135c-0.169-0.09-0.293-0.209-0.374-0.358c-0.08-0.148-0.13-0.306-0.15-0.467
				c-0.02-0.162-0.03-0.482-0.03-0.965v-3.777h1.706v3.812c0,0.438,0.013,0.694,0.04,0.776s0.099,0.123,0.218,0.123
				c0.126,0,0.202-0.042,0.226-0.127c0.024-0.085,0.036-0.355,0.036-0.813v-3.771h1.704V206.845z"/>
			<path fill="#575756" d="M72.907,205.612v6.834h-1.706v-0.405c-0.163,0.169-0.335,0.296-0.515,0.381
				c-0.18,0.084-0.369,0.126-0.566,0.126c-0.264,0-0.494-0.068-0.688-0.208c-0.194-0.14-0.319-0.301-0.374-0.482
				c-0.055-0.184-0.083-0.48-0.083-0.896v-2.622c0-0.431,0.028-0.735,0.083-0.916c0.055-0.18,0.181-0.338,0.378-0.475
				c0.197-0.137,0.432-0.205,0.705-0.205c0.211,0,0.405,0.038,0.58,0.113c0.176,0.076,0.336,0.189,0.479,0.344v-1.589H72.907z
				 M71.201,208.255c0-0.206-0.018-0.343-0.053-0.414c-0.035-0.07-0.105-0.104-0.209-0.104c-0.101,0-0.17,0.031-0.205,0.096
				c-0.035,0.063-0.053,0.205-0.053,0.424V211c0,0.229,0.017,0.377,0.051,0.449c0.034,0.071,0.098,0.107,0.194,0.107
				c0.11,0,0.183-0.04,0.219-0.121c0.037-0.08,0.055-0.275,0.055-0.589L71.201,208.255L71.201,208.255z"/>
			<path fill="#575756" d="M76.778,206.845l-0.03,0.494c0.152-0.199,0.319-0.35,0.502-0.447c0.183-0.099,0.383-0.147,0.6-0.147
				c0.264,0,0.493,0.07,0.686,0.213c0.193,0.144,0.313,0.307,0.361,0.492s0.072,0.501,0.072,0.944v2.359
				c0,0.51-0.03,0.872-0.091,1.087c-0.061,0.216-0.184,0.388-0.372,0.516c-0.187,0.128-0.413,0.191-0.677,0.191
				c-0.211,0-0.407-0.049-0.587-0.147c-0.18-0.1-0.345-0.244-0.494-0.438v1.284h-1.706v-6.399L76.778,206.845L76.778,206.845z
				 M77.263,208.474c0-0.347-0.013-0.557-0.038-0.629c-0.025-0.073-0.096-0.109-0.211-0.109c-0.113,0-0.185,0.042-0.218,0.126
				c-0.032,0.084-0.048,0.289-0.048,0.612v2.321c0,0.337,0.017,0.549,0.051,0.634c0.034,0.085,0.107,0.127,0.219,0.127
				c0.11,0,0.178-0.039,0.205-0.116c0.027-0.076,0.04-0.266,0.04-0.563V208.474z"/>
			<path fill="#575756" d="M81.054,209.015h-1.6v-0.375c0-0.435,0.05-0.769,0.15-1.003c0.1-0.235,0.3-0.442,0.602-0.623
				c0.301-0.181,0.692-0.271,1.174-0.271c0.577,0,1.011,0.103,1.304,0.306c0.293,0.204,0.469,0.454,0.528,0.751
				c0.059,0.298,0.089,0.908,0.089,1.834v2.813h-1.659v-0.498c-0.104,0.199-0.239,0.35-0.403,0.449
				c-0.165,0.101-0.361,0.149-0.589,0.149c-0.298,0-0.572-0.083-0.821-0.251s-0.374-0.533-0.374-1.101v-0.46
				c0-0.419,0.066-0.704,0.198-0.856c0.132-0.151,0.46-0.329,0.984-0.531c0.56-0.22,0.86-0.367,0.899-0.443
				c0.04-0.075,0.059-0.229,0.059-0.464c0-0.292-0.022-0.482-0.065-0.571c-0.044-0.09-0.116-0.134-0.217-0.134
				c-0.115,0-0.187,0.037-0.215,0.112c-0.028,0.073-0.042,0.269-0.042,0.579v0.588H81.054L81.054,209.015z M81.594,209.783
				c-0.273,0.199-0.431,0.366-0.475,0.502c-0.044,0.135-0.065,0.33-0.065,0.583c0,0.29,0.019,0.478,0.057,0.562
				c0.038,0.084,0.113,0.127,0.226,0.127c0.107,0,0.177-0.033,0.209-0.1c0.032-0.065,0.048-0.24,0.048-0.521
				C81.594,210.936,81.594,209.783,81.594,209.783z"/>
			<path fill="#575756" d="M85.592,206.845l-0.068,0.736c0.248-0.526,0.606-0.808,1.076-0.838v1.971
				c-0.312,0-0.542,0.042-0.688,0.127c-0.146,0.084-0.237,0.202-0.27,0.354c-0.034,0.149-0.051,0.497-0.051,1.041v2.213h-1.706
				v-5.603L85.592,206.845L85.592,206.845z"/>
			<path fill="#575756" d="M88.505,209.015h-1.6v-0.375c0-0.435,0.05-0.769,0.15-1.003c0.1-0.235,0.3-0.442,0.602-0.623
				c0.301-0.181,0.692-0.271,1.174-0.271c0.577,0,1.011,0.103,1.304,0.306c0.293,0.204,0.469,0.454,0.528,0.751
				c0.059,0.298,0.089,0.908,0.089,1.834v2.813h-1.659v-0.498c-0.104,0.199-0.239,0.35-0.403,0.449
				c-0.165,0.101-0.361,0.149-0.589,0.149c-0.298,0-0.572-0.083-0.821-0.251c-0.249-0.168-0.374-0.533-0.374-1.101v-0.46
				c0-0.419,0.066-0.704,0.198-0.856c0.132-0.151,0.46-0.329,0.984-0.531c0.56-0.22,0.86-0.367,0.899-0.443
				c0.04-0.075,0.059-0.229,0.059-0.464c0-0.292-0.022-0.482-0.065-0.571c-0.044-0.09-0.116-0.134-0.217-0.134
				c-0.115,0-0.187,0.037-0.215,0.112c-0.028,0.073-0.042,0.269-0.042,0.579v0.588H88.505L88.505,209.015z M89.045,209.783
				c-0.273,0.199-0.431,0.366-0.475,0.502c-0.044,0.135-0.065,0.33-0.065,0.583c0,0.29,0.019,0.478,0.057,0.562
				s0.113,0.127,0.226,0.127c0.107,0,0.177-0.033,0.209-0.1c0.032-0.065,0.048-0.24,0.048-0.521V209.783z"/>
			<path fill="#575756" d="M94.617,205.612v6.834h-1.756v-6.834H94.617z"/>
			<path fill="#575756" d="M96.753,209.015h-1.6v-0.375c0-0.435,0.05-0.769,0.15-1.003c0.1-0.235,0.3-0.442,0.602-0.623
				c0.301-0.181,0.692-0.271,1.174-0.271c0.577,0,1.011,0.103,1.304,0.306c0.293,0.204,0.469,0.454,0.528,0.751
				c0.059,0.298,0.089,0.908,0.089,1.834v2.813h-1.66v-0.498c-0.104,0.199-0.239,0.35-0.403,0.449
				c-0.165,0.101-0.361,0.149-0.589,0.149c-0.298,0-0.572-0.083-0.821-0.251s-0.374-0.533-0.374-1.101v-0.46
				c0-0.419,0.066-0.704,0.198-0.856c0.132-0.151,0.46-0.329,0.984-0.531c0.56-0.22,0.86-0.367,0.899-0.443
				c0.04-0.075,0.059-0.229,0.059-0.464c0-0.292-0.022-0.482-0.065-0.571c-0.044-0.09-0.116-0.134-0.217-0.134
				c-0.115,0-0.187,0.037-0.215,0.112c-0.028,0.073-0.042,0.269-0.042,0.579L96.753,209.015L96.753,209.015z M97.294,209.783
				c-0.273,0.199-0.431,0.366-0.475,0.502c-0.044,0.135-0.065,0.33-0.065,0.583c0,0.29,0.019,0.478,0.057,0.562
				s0.113,0.127,0.226,0.127c0.107,0,0.177-0.033,0.209-0.1c0.032-0.065,0.048-0.24,0.048-0.521V209.783z"/>
			<path fill="#575756" d="M103.069,208.635h-1.511v-0.304c0-0.26-0.015-0.423-0.044-0.492c-0.03-0.068-0.103-0.104-0.221-0.104
				c-0.096,0-0.167,0.031-0.215,0.096c-0.048,0.063-0.072,0.158-0.072,0.285c0,0.171,0.012,0.297,0.036,0.377
				c0.024,0.081,0.096,0.168,0.215,0.264c0.119,0.097,0.365,0.235,0.737,0.418c0.495,0.242,0.82,0.471,0.975,0.685
				c0.155,0.215,0.232,0.524,0.232,0.934c0,0.456-0.059,0.8-0.177,1.032c-0.118,0.231-0.316,0.41-0.593,0.535
				c-0.277,0.125-0.612,0.188-1.003,0.188c-0.433,0-0.804-0.066-1.112-0.201c-0.308-0.136-0.52-0.318-0.635-0.55
				c-0.115-0.23-0.173-0.58-0.173-1.047v-0.271h1.511v0.354c0,0.301,0.019,0.497,0.057,0.587c0.038,0.09,0.113,0.136,0.226,0.136
				c0.121,0,0.206-0.03,0.253-0.092c0.047-0.062,0.072-0.188,0.072-0.382c0-0.268-0.031-0.436-0.093-0.502
				c-0.065-0.067-0.395-0.269-0.992-0.601c-0.501-0.28-0.806-0.537-0.916-0.767c-0.11-0.229-0.165-0.502-0.165-0.816
				c0-0.447,0.059-0.776,0.177-0.989c0.118-0.213,0.319-0.376,0.602-0.492c0.283-0.115,0.612-0.173,0.986-0.173
				c0.372,0,0.687,0.047,0.948,0.141c0.26,0.096,0.46,0.22,0.599,0.374c0.139,0.155,0.224,0.299,0.253,0.431
				c0.03,0.132,0.044,0.339,0.044,0.621L103.069,208.635L103.069,208.635z"/>
			<path fill="#575756" d="M39.304,215.45l-0.03,0.494c0.152-0.199,0.319-0.351,0.502-0.447c0.183-0.099,0.383-0.147,0.6-0.147
				c0.264,0,0.493,0.07,0.686,0.213c0.193,0.144,0.313,0.307,0.361,0.492c0.048,0.187,0.072,0.501,0.072,0.944v2.359
				c0,0.51-0.03,0.872-0.091,1.087c-0.061,0.216-0.184,0.388-0.372,0.516c-0.187,0.128-0.413,0.191-0.677,0.191
				c-0.211,0-0.407-0.049-0.587-0.147c-0.18-0.098-0.345-0.245-0.494-0.438v1.284h-1.706v-6.399L39.304,215.45L39.304,215.45z
				 M39.789,217.08c0-0.347-0.013-0.557-0.038-0.629c-0.025-0.073-0.096-0.109-0.211-0.109c-0.113,0-0.185,0.042-0.218,0.126
				c-0.032,0.084-0.048,0.289-0.048,0.612v2.321c0,0.338,0.017,0.549,0.051,0.634c0.034,0.085,0.107,0.127,0.219,0.127
				c0.11,0,0.178-0.039,0.205-0.116c0.027-0.076,0.04-0.265,0.04-0.563V217.08z"/>
			<path fill="#575756" d="M45.919,218.351h-2.208v1.211c0,0.253,0.018,0.417,0.055,0.489c0.037,0.073,0.107,0.11,0.211,0.11
				c0.13,0,0.216-0.05,0.26-0.146c0.043-0.098,0.065-0.285,0.065-0.563v-0.739h1.617v0.414c0,0.347-0.022,0.612-0.065,0.798
				c-0.043,0.187-0.146,0.385-0.306,0.596c-0.16,0.211-0.364,0.369-0.61,0.476c-0.246,0.105-0.555,0.157-0.927,0.157
				c-0.36,0-0.678-0.052-0.954-0.155c-0.276-0.104-0.49-0.247-0.644-0.43c-0.154-0.182-0.26-0.381-0.319-0.601
				c-0.059-0.218-0.089-0.534-0.089-0.951v-1.635c0-0.489,0.066-0.876,0.198-1.158c0.132-0.283,0.349-0.5,0.65-0.649
				c0.301-0.15,0.647-0.227,1.039-0.227c0.478,0,0.873,0.091,1.184,0.271s0.529,0.422,0.654,0.722
				c0.125,0.301,0.188,0.722,0.188,1.265L45.919,218.351L45.919,218.351z M44.209,217.438v-0.409c0-0.289-0.015-0.478-0.046-0.563
				c-0.031-0.085-0.094-0.126-0.19-0.126c-0.118,0-0.191,0.036-0.219,0.107c-0.028,0.07-0.042,0.265-0.042,0.58v0.409
				L44.209,217.438L44.209,217.438z"/>
			<path fill="#575756" d="M48.182,215.45l-0.068,0.736c0.248-0.526,0.606-0.808,1.076-0.838v1.971
				c-0.312,0-0.542,0.042-0.688,0.127s-0.237,0.202-0.27,0.354c-0.034,0.15-0.051,0.497-0.051,1.041v2.212h-1.706v-5.602
				L48.182,215.45L48.182,215.45z"/>
			<path fill="#575756" d="M53.053,217.24h-1.511v-0.305c0-0.26-0.015-0.423-0.044-0.492c-0.03-0.068-0.103-0.104-0.221-0.104
				c-0.096,0-0.167,0.031-0.215,0.096c-0.048,0.063-0.072,0.157-0.072,0.285c0,0.171,0.012,0.297,0.036,0.377
				c0.024,0.081,0.096,0.168,0.215,0.264c0.119,0.097,0.365,0.235,0.737,0.419c0.495,0.241,0.82,0.47,0.975,0.684
				c0.155,0.215,0.232,0.525,0.232,0.934c0,0.456-0.059,0.801-0.177,1.032c-0.118,0.231-0.316,0.41-0.593,0.535
				s-0.612,0.188-1.003,0.188c-0.433,0-0.804-0.066-1.112-0.201c-0.308-0.136-0.52-0.318-0.635-0.55
				c-0.115-0.23-0.173-0.579-0.173-1.047v-0.271h1.511v0.354c0,0.302,0.019,0.497,0.057,0.587c0.038,0.091,0.113,0.136,0.226,0.136
				c0.121,0,0.206-0.03,0.253-0.092s0.072-0.188,0.072-0.382c0-0.268-0.031-0.436-0.093-0.502c-0.065-0.067-0.395-0.269-0.992-0.601
				c-0.501-0.28-0.806-0.537-0.916-0.767c-0.11-0.229-0.165-0.502-0.165-0.816c0-0.447,0.059-0.776,0.177-0.989
				s0.319-0.376,0.602-0.492c0.283-0.114,0.612-0.173,0.986-0.173c0.372,0,0.687,0.047,0.948,0.142
				c0.26,0.095,0.46,0.219,0.599,0.373c0.139,0.155,0.224,0.299,0.253,0.431c0.03,0.132,0.044,0.339,0.044,0.621L53.053,217.24
				L53.053,217.24z"/>
			<path fill="#575756" d="M57.498,217.417v1.372c0,0.504-0.025,0.873-0.076,1.107c-0.051,0.234-0.159,0.455-0.325,0.659
				c-0.166,0.203-0.379,0.354-0.639,0.451s-0.559,0.146-0.897,0.146c-0.377,0-0.697-0.042-0.958-0.125
				c-0.262-0.083-0.465-0.208-0.61-0.375s-0.249-0.369-0.31-0.607c-0.062-0.237-0.093-0.595-0.093-1.069v-1.436
				c0-0.521,0.056-0.928,0.169-1.221c0.113-0.292,0.315-0.526,0.608-0.704s0.667-0.267,1.123-0.267c0.383,0,0.711,0.058,0.986,0.171
				s0.486,0.263,0.635,0.444c0.149,0.183,0.251,0.372,0.306,0.566C57.471,216.725,57.498,217.021,57.498,217.417z M55.793,216.996
				c0-0.287-0.015-0.469-0.046-0.542c-0.031-0.075-0.097-0.112-0.198-0.112s-0.169,0.037-0.203,0.112
				c-0.034,0.073-0.051,0.255-0.051,0.542v2.527c0,0.266,0.017,0.438,0.051,0.518c0.034,0.081,0.1,0.121,0.198,0.121
				c0.101,0,0.168-0.037,0.201-0.11c0.032-0.072,0.048-0.23,0.048-0.473V216.996z"/>
			<path fill="#575756" d="M59.795,215.45l-0.03,0.516c0.124-0.206,0.275-0.359,0.454-0.463c0.179-0.104,0.385-0.153,0.619-0.153
				c0.292,0,0.532,0.068,0.718,0.207c0.186,0.138,0.305,0.312,0.359,0.521c0.053,0.21,0.08,0.561,0.08,1.049v3.926H60.29v-3.879
				c0-0.386-0.013-0.621-0.038-0.705s-0.096-0.126-0.211-0.126c-0.121,0-0.197,0.049-0.228,0.146
				c-0.031,0.099-0.046,0.355-0.046,0.779v3.787H58.06v-5.603h1.735V215.45z"/>
			<path fill="#575756" d="M64.105,217.62h-1.6v-0.375c0-0.435,0.05-0.769,0.15-1.003c0.1-0.235,0.3-0.442,0.602-0.623
				c0.301-0.181,0.692-0.271,1.174-0.271c0.577,0,1.011,0.103,1.304,0.306c0.293,0.204,0.469,0.454,0.528,0.752
				c0.059,0.297,0.089,0.907,0.089,1.834v2.812h-1.659v-0.499c-0.104,0.2-0.239,0.351-0.403,0.45
				c-0.165,0.101-0.361,0.149-0.589,0.149c-0.298,0-0.572-0.083-0.821-0.251s-0.374-0.533-0.374-1.101v-0.46
				c0-0.419,0.066-0.705,0.198-0.856c0.132-0.151,0.46-0.329,0.984-0.531c0.56-0.22,0.86-0.367,0.899-0.443
				c0.04-0.075,0.059-0.229,0.059-0.464c0-0.292-0.022-0.482-0.065-0.571c-0.044-0.09-0.116-0.134-0.217-0.134
				c-0.115,0-0.187,0.037-0.215,0.112c-0.028,0.073-0.042,0.269-0.042,0.58v0.587H64.105z M64.645,218.389
				c-0.273,0.199-0.431,0.366-0.475,0.502c-0.044,0.135-0.065,0.33-0.065,0.583c0,0.29,0.019,0.478,0.057,0.562
				s0.113,0.127,0.226,0.127c0.107,0,0.177-0.033,0.209-0.1c0.032-0.065,0.048-0.239,0.048-0.521V218.389z"/>
			<path fill="#575756" d="M70.42,217.24h-1.511v-0.305c0-0.26-0.015-0.423-0.044-0.492c-0.03-0.068-0.103-0.104-0.221-0.104
				c-0.096,0-0.167,0.031-0.215,0.096c-0.048,0.063-0.072,0.157-0.072,0.285c0,0.171,0.012,0.297,0.036,0.377
				c0.024,0.081,0.096,0.168,0.215,0.264c0.119,0.097,0.365,0.235,0.737,0.419c0.495,0.241,0.82,0.47,0.975,0.684
				c0.155,0.215,0.232,0.525,0.232,0.934c0,0.456-0.059,0.801-0.177,1.032s-0.316,0.41-0.593,0.535
				c-0.277,0.125-0.612,0.188-1.003,0.188c-0.433,0-0.804-0.066-1.112-0.201c-0.308-0.136-0.52-0.318-0.635-0.55
				c-0.115-0.23-0.173-0.579-0.173-1.047v-0.271h1.511v0.354c0,0.302,0.019,0.497,0.057,0.587c0.038,0.091,0.113,0.136,0.226,0.136
				c0.121,0,0.206-0.03,0.253-0.092c0.047-0.062,0.072-0.188,0.072-0.382c0-0.268-0.031-0.436-0.093-0.502
				c-0.065-0.067-0.395-0.269-0.992-0.601c-0.501-0.28-0.806-0.537-0.916-0.767s-0.165-0.502-0.165-0.816
				c0-0.447,0.059-0.776,0.177-0.989c0.118-0.213,0.319-0.376,0.602-0.492c0.283-0.114,0.612-0.173,0.986-0.173
				c0.372,0,0.687,0.047,0.948,0.142c0.26,0.095,0.46,0.219,0.599,0.373c0.139,0.155,0.224,0.299,0.253,0.431
				c0.03,0.132,0.044,0.339,0.044,0.621L70.42,217.24L70.42,217.24z"/>
			<path fill="#575756" d="M76.301,217.565h-1.608v-0.646c0-0.226-0.018-0.378-0.055-0.458c-0.037-0.08-0.104-0.12-0.203-0.12
				c-0.098,0-0.165,0.035-0.198,0.104c-0.034,0.07-0.051,0.229-0.051,0.474v2.644c0,0.2,0.025,0.351,0.076,0.45
				c0.051,0.1,0.125,0.149,0.224,0.149c0.115,0,0.193-0.053,0.234-0.156s0.061-0.301,0.061-0.591v-0.667h1.52
				c-0.003,0.446-0.019,0.783-0.049,1.006c-0.03,0.225-0.124,0.454-0.283,0.688c-0.159,0.234-0.367,0.412-0.623,0.532
				c-0.256,0.119-0.573,0.179-0.95,0.179c-0.481,0-0.863-0.082-1.144-0.246c-0.281-0.165-0.481-0.396-0.597-0.692
				c-0.116-0.296-0.175-0.718-0.175-1.265v-1.592c0-0.477,0.048-0.834,0.144-1.076s0.3-0.458,0.612-0.648
				c0.312-0.189,0.692-0.284,1.14-0.284c0.445,0,0.825,0.094,1.14,0.282s0.525,0.427,0.629,0.714
				C76.249,216.632,76.301,217.039,76.301,217.565z"/>
			<path fill="#575756" d="M80.666,217.417v1.372c0,0.504-0.025,0.873-0.076,1.107c-0.051,0.234-0.159,0.455-0.325,0.659
				c-0.166,0.203-0.379,0.354-0.639,0.451c-0.26,0.098-0.559,0.146-0.897,0.146c-0.377,0-0.697-0.042-0.958-0.125
				c-0.262-0.083-0.465-0.208-0.61-0.375s-0.249-0.369-0.31-0.607c-0.062-0.237-0.093-0.595-0.093-1.069v-1.436
				c0-0.521,0.056-0.928,0.169-1.221c0.113-0.292,0.315-0.526,0.608-0.704s0.667-0.267,1.123-0.267c0.383,0,0.711,0.058,0.986,0.171
				s0.486,0.263,0.635,0.444c0.149,0.184,0.251,0.372,0.306,0.566C80.638,216.725,80.666,217.021,80.666,217.417z M78.96,216.996
				c0-0.287-0.015-0.469-0.046-0.542c-0.031-0.075-0.097-0.112-0.198-0.112c-0.101,0-0.169,0.037-0.203,0.112
				c-0.034,0.073-0.051,0.255-0.051,0.542v2.527c0,0.266,0.017,0.438,0.051,0.518c0.034,0.081,0.1,0.121,0.198,0.121
				c0.101,0,0.168-0.037,0.201-0.11c0.032-0.072,0.048-0.23,0.048-0.473V216.996z"/>
			<path fill="#575756" d="M82.962,215.45l-0.03,0.516c0.124-0.206,0.275-0.359,0.454-0.463c0.179-0.104,0.385-0.153,0.619-0.153
				c0.292,0,0.532,0.068,0.718,0.207c0.186,0.138,0.305,0.312,0.359,0.521c0.053,0.21,0.08,0.561,0.08,1.049v3.926h-1.705v-3.879
				c0-0.386-0.013-0.621-0.038-0.705s-0.096-0.126-0.211-0.126c-0.121,0-0.197,0.049-0.228,0.146
				c-0.031,0.099-0.046,0.355-0.046,0.779v3.787h-1.706v-5.603h1.734V215.45L82.962,215.45z"/>
			<path fill="#575756" d="M91.152,214.218v6.834h-1.706v-0.405c-0.163,0.169-0.335,0.296-0.515,0.381
				c-0.18,0.084-0.369,0.126-0.566,0.126c-0.264,0-0.494-0.068-0.688-0.208c-0.194-0.14-0.319-0.301-0.374-0.482
				c-0.055-0.184-0.083-0.48-0.083-0.896v-2.622c0-0.431,0.028-0.735,0.083-0.916c0.055-0.18,0.181-0.338,0.378-0.475
				c0.197-0.137,0.432-0.205,0.705-0.205c0.211,0,0.405,0.038,0.58,0.113c0.176,0.076,0.336,0.189,0.479,0.344v-1.589H91.152z
				 M89.447,216.86c0-0.206-0.018-0.343-0.053-0.414c-0.035-0.07-0.105-0.104-0.209-0.104c-0.101,0-0.17,0.031-0.205,0.096
				c-0.035,0.063-0.053,0.205-0.053,0.424v2.744c0,0.229,0.017,0.377,0.051,0.449c0.034,0.071,0.098,0.107,0.194,0.107
				c0.11,0,0.183-0.04,0.219-0.121c0.037-0.08,0.055-0.275,0.055-0.589L89.447,216.86L89.447,216.86z"/>
			<path fill="#575756" d="M93.52,214.218v0.892h-1.756v-0.892H93.52z M93.52,215.45v5.602h-1.756v-5.602H93.52z"/>
			<path fill="#575756" d="M97.615,217.24h-1.511v-0.305c0-0.26-0.015-0.423-0.044-0.492c-0.03-0.068-0.103-0.104-0.221-0.104
				c-0.096,0-0.167,0.031-0.215,0.096c-0.048,0.063-0.072,0.157-0.072,0.285c0,0.171,0.012,0.297,0.036,0.377
				c0.024,0.081,0.096,0.168,0.215,0.264c0.119,0.097,0.365,0.235,0.737,0.419c0.495,0.241,0.82,0.47,0.975,0.684
				c0.155,0.215,0.232,0.525,0.232,0.934c0,0.456-0.059,0.801-0.177,1.032c-0.118,0.231-0.316,0.41-0.593,0.535
				s-0.612,0.188-1.003,0.188c-0.433,0-0.804-0.066-1.112-0.201c-0.308-0.136-0.52-0.318-0.635-0.55
				c-0.115-0.23-0.173-0.579-0.173-1.047v-0.271h1.511v0.354c0,0.302,0.019,0.497,0.057,0.587c0.038,0.091,0.113,0.136,0.226,0.136
				c0.121,0,0.206-0.03,0.253-0.092s0.072-0.188,0.072-0.382c0-0.268-0.031-0.436-0.093-0.502c-0.065-0.067-0.395-0.269-0.992-0.601
				c-0.501-0.28-0.806-0.537-0.916-0.767c-0.11-0.229-0.165-0.502-0.165-0.816c0-0.447,0.059-0.776,0.177-0.989
				c0.118-0.213,0.319-0.376,0.602-0.492c0.283-0.114,0.612-0.173,0.986-0.173c0.372,0,0.687,0.047,0.948,0.142
				c0.26,0.095,0.46,0.219,0.599,0.373c0.139,0.155,0.224,0.299,0.253,0.431c0.03,0.132,0.044,0.339,0.044,0.621L97.615,217.24
				L97.615,217.24z"/>
			<path fill="#575756" d="M101.972,217.565h-1.608v-0.646c0-0.226-0.018-0.378-0.055-0.458s-0.104-0.12-0.203-0.12
				c-0.098,0-0.165,0.035-0.198,0.104c-0.034,0.07-0.051,0.229-0.051,0.474v2.644c0,0.2,0.025,0.351,0.076,0.45
				c0.051,0.1,0.125,0.149,0.224,0.149c0.115,0,0.193-0.053,0.234-0.156s0.061-0.301,0.061-0.591v-0.667h1.52
				c-0.003,0.446-0.019,0.783-0.049,1.006c-0.03,0.225-0.124,0.454-0.283,0.688c-0.159,0.234-0.367,0.412-0.623,0.532
				c-0.256,0.119-0.573,0.179-0.95,0.179c-0.481,0-0.863-0.082-1.144-0.246c-0.281-0.165-0.481-0.396-0.597-0.692
				c-0.116-0.296-0.175-0.718-0.175-1.265v-1.592c0-0.477,0.048-0.834,0.144-1.076c0.096-0.242,0.3-0.458,0.612-0.648
				c0.312-0.189,0.692-0.284,1.14-0.284c0.445,0,0.825,0.094,1.14,0.282s0.525,0.427,0.629,0.714
				C101.92,216.632,101.972,217.039,101.972,217.565z"/>
			<path fill="#575756" d="M104.002,217.62h-1.6v-0.375c0-0.435,0.05-0.769,0.15-1.003c0.1-0.235,0.3-0.442,0.602-0.623
				c0.301-0.181,0.692-0.271,1.174-0.271c0.577,0,1.011,0.103,1.304,0.306c0.293,0.204,0.469,0.454,0.528,0.752
				c0.059,0.297,0.089,0.907,0.089,1.834v2.812h-1.659v-0.499c-0.104,0.2-0.239,0.351-0.403,0.45
				c-0.165,0.101-0.361,0.149-0.589,0.149c-0.298,0-0.572-0.083-0.821-0.251s-0.374-0.533-0.374-1.101v-0.46
				c0-0.419,0.066-0.705,0.198-0.856s0.46-0.329,0.984-0.531c0.56-0.22,0.86-0.367,0.899-0.443c0.04-0.075,0.059-0.229,0.059-0.464
				c0-0.292-0.022-0.482-0.065-0.571c-0.044-0.09-0.116-0.134-0.217-0.134c-0.115,0-0.187,0.037-0.215,0.112
				c-0.028,0.073-0.042,0.269-0.042,0.58v0.587H104.002z M104.542,218.389c-0.273,0.199-0.431,0.366-0.475,0.502
				c-0.044,0.135-0.065,0.33-0.065,0.583c0,0.29,0.019,0.478,0.057,0.562s0.113,0.127,0.226,0.127c0.107,0,0.177-0.033,0.209-0.1
				c0.032-0.065,0.048-0.239,0.048-0.521V218.389z"/>
			<path fill="#575756" d="M108.57,215.45l-0.03,0.494c0.152-0.199,0.319-0.351,0.502-0.447c0.183-0.099,0.383-0.147,0.6-0.147
				c0.264,0,0.493,0.07,0.686,0.213c0.193,0.144,0.313,0.307,0.361,0.492c0.048,0.187,0.072,0.501,0.072,0.944v2.359
				c0,0.51-0.03,0.872-0.091,1.087c-0.061,0.216-0.184,0.388-0.372,0.516c-0.187,0.128-0.413,0.191-0.677,0.191
				c-0.211,0-0.407-0.049-0.587-0.147c-0.18-0.099-0.345-0.245-0.494-0.438v1.284h-1.706v-6.399L108.57,215.45L108.57,215.45z
				 M109.055,217.08c0-0.347-0.013-0.557-0.038-0.629c-0.025-0.073-0.096-0.109-0.211-0.109c-0.113,0-0.185,0.042-0.218,0.126
				c-0.032,0.084-0.048,0.289-0.048,0.612v2.321c0,0.338,0.017,0.549,0.051,0.634c0.034,0.085,0.107,0.127,0.219,0.127
				c0.11,0,0.178-0.039,0.205-0.116c0.027-0.076,0.04-0.265,0.04-0.563V217.08z"/>
			<path fill="#575756" d="M112.846,217.62h-1.6v-0.375c0-0.435,0.05-0.769,0.15-1.003c0.1-0.235,0.3-0.442,0.602-0.623
				c0.301-0.181,0.692-0.271,1.174-0.271c0.577,0,1.011,0.103,1.304,0.306c0.293,0.204,0.469,0.454,0.528,0.752
				c0.059,0.297,0.089,0.907,0.089,1.834v2.812h-1.659v-0.499c-0.104,0.2-0.239,0.351-0.403,0.45
				c-0.165,0.101-0.361,0.149-0.589,0.149c-0.298,0-0.572-0.083-0.821-0.251s-0.374-0.533-0.374-1.101v-0.46
				c0-0.419,0.066-0.705,0.198-0.856c0.132-0.151,0.46-0.329,0.984-0.531c0.56-0.22,0.86-0.367,0.899-0.443
				c0.04-0.075,0.059-0.229,0.059-0.464c0-0.292-0.022-0.482-0.065-0.571c-0.044-0.09-0.116-0.134-0.217-0.134
				c-0.115,0-0.187,0.037-0.215,0.112c-0.028,0.073-0.042,0.269-0.042,0.58v0.587H112.846z M113.386,218.389
				c-0.273,0.199-0.431,0.366-0.475,0.502c-0.044,0.135-0.065,0.33-0.065,0.583c0,0.29,0.019,0.478,0.057,0.562
				c0.038,0.084,0.113,0.127,0.226,0.127c0.107,0,0.177-0.033,0.209-0.1c0.032-0.065,0.048-0.239,0.048-0.521V218.389z"/>
			<path fill="#575756" d="M119.448,217.565h-1.608v-0.646c0-0.226-0.018-0.378-0.055-0.458c-0.037-0.08-0.104-0.12-0.203-0.12
				c-0.098,0-0.165,0.035-0.198,0.104c-0.034,0.07-0.051,0.229-0.051,0.474v2.644c0,0.2,0.025,0.351,0.076,0.45
				c0.051,0.1,0.125,0.149,0.224,0.149c0.115,0,0.193-0.053,0.234-0.156s0.061-0.301,0.061-0.591v-0.667h1.52
				c-0.003,0.446-0.019,0.783-0.049,1.006c-0.03,0.225-0.124,0.454-0.283,0.688c-0.159,0.234-0.367,0.412-0.623,0.532
				c-0.256,0.119-0.573,0.179-0.95,0.179c-0.481,0-0.863-0.082-1.144-0.246c-0.281-0.165-0.481-0.396-0.597-0.692
				c-0.116-0.296-0.175-0.718-0.175-1.265v-1.592c0-0.477,0.048-0.834,0.144-1.076s0.3-0.458,0.612-0.648
				c0.312-0.189,0.692-0.284,1.14-0.284c0.445,0,0.825,0.094,1.14,0.282s0.525,0.427,0.629,0.714
				C119.396,216.632,119.448,217.039,119.448,217.565z"/>
			<path fill="#575756" d="M121.711,214.218v0.892h-1.756v-0.892H121.711z M121.711,215.45v5.602h-1.756v-5.602H121.711z"/>
			<path fill="#575756" d="M126.203,214.218v6.834h-1.706v-0.405c-0.163,0.169-0.335,0.296-0.515,0.381
				c-0.18,0.084-0.369,0.126-0.566,0.126c-0.264,0-0.494-0.068-0.688-0.208s-0.319-0.301-0.374-0.482
				c-0.055-0.184-0.083-0.48-0.083-0.896v-2.622c0-0.431,0.028-0.735,0.083-0.916c0.055-0.18,0.181-0.338,0.378-0.475
				c0.197-0.137,0.432-0.205,0.705-0.205c0.211,0,0.405,0.038,0.58,0.113c0.176,0.076,0.336,0.189,0.479,0.344v-1.589H126.203z
				 M124.497,216.86c0-0.206-0.018-0.343-0.053-0.414c-0.035-0.07-0.105-0.104-0.209-0.104c-0.101,0-0.17,0.031-0.205,0.096
				c-0.035,0.063-0.053,0.205-0.053,0.424v2.744c0,0.229,0.017,0.377,0.051,0.449c0.034,0.071,0.098,0.107,0.194,0.107
				c0.11,0,0.183-0.04,0.219-0.121c0.037-0.08,0.055-0.275,0.055-0.589L124.497,216.86L124.497,216.86z"/>
			<path fill="#575756" d="M128.339,217.62h-1.6v-0.375c0-0.435,0.05-0.769,0.15-1.003c0.1-0.235,0.3-0.442,0.602-0.623
				c0.301-0.181,0.692-0.271,1.174-0.271c0.577,0,1.011,0.103,1.304,0.306c0.293,0.204,0.469,0.454,0.528,0.752
				c0.059,0.297,0.089,0.907,0.089,1.834v2.812h-1.659v-0.499c-0.104,0.2-0.239,0.351-0.403,0.45
				c-0.165,0.101-0.361,0.149-0.589,0.149c-0.298,0-0.572-0.083-0.821-0.251c-0.249-0.168-0.374-0.533-0.374-1.101v-0.46
				c0-0.419,0.066-0.705,0.198-0.856s0.46-0.329,0.984-0.531c0.56-0.22,0.86-0.367,0.899-0.443c0.04-0.075,0.059-0.229,0.059-0.464
				c0-0.292-0.022-0.482-0.065-0.571c-0.044-0.09-0.116-0.134-0.217-0.134c-0.115,0-0.187,0.037-0.215,0.112
				c-0.028,0.073-0.042,0.269-0.042,0.58v0.587H128.339z M128.879,218.389c-0.273,0.199-0.431,0.366-0.475,0.502
				c-0.044,0.135-0.065,0.33-0.065,0.583c0,0.29,0.019,0.478,0.057,0.562s0.113,0.127,0.226,0.127c0.107,0,0.177-0.033,0.209-0.1
				c0.032-0.065,0.048-0.239,0.048-0.521V218.389z"/>
			<path fill="#575756" d="M135.051,214.218v6.834h-1.706v-0.405c-0.163,0.169-0.335,0.296-0.515,0.381
				c-0.18,0.084-0.369,0.126-0.566,0.126c-0.264,0-0.494-0.068-0.688-0.208c-0.194-0.14-0.319-0.301-0.374-0.482
				c-0.055-0.184-0.083-0.48-0.083-0.896v-2.622c0-0.431,0.028-0.735,0.083-0.916c0.055-0.18,0.181-0.338,0.378-0.475
				c0.197-0.137,0.432-0.205,0.705-0.205c0.211,0,0.405,0.038,0.58,0.113c0.176,0.076,0.336,0.189,0.479,0.344v-1.589H135.051z
				 M133.345,216.86c0-0.206-0.018-0.343-0.053-0.414c-0.035-0.07-0.105-0.104-0.209-0.104c-0.101,0-0.17,0.031-0.205,0.096
				c-0.035,0.063-0.053,0.205-0.053,0.424v2.744c0,0.229,0.017,0.377,0.051,0.449c0.034,0.071,0.098,0.107,0.194,0.107
				c0.11,0,0.183-0.04,0.219-0.121c0.037-0.08,0.055-0.275,0.055-0.589v-2.592H133.345z"/>
		</g>
		<path fill="#A0C219" d="M101.733,143.223c-0.149,1.075-0.278,2.154-0.451,3.229c-2.07,12.854-8.703,22.704-19.773,29.459
			c-7.532,4.597-15.801,6.354-24.612,5.508c-5.811-0.559-11.217-2.333-16.286-5.197c-1.77-1-2.072-0.935-3.523,0.517
			c-6.648,6.647-13.293,13.301-19.947,19.942c-2,1.996-4.273,3.469-7.121,4.044c-4.7,0.949-9.97-3.243-10.02-8.036
			c-0.039-3.676,1.696-6.509,4.175-8.992c6.688-6.702,13.389-13.392,20.084-20.087c1.261-1.262,1.34-1.634,0.444-3.198
			c-2.723-4.76-4.512-9.853-5.179-15.282c-0.775-6.318-0.251-12.562,2.001-18.554c4.549-12.104,12.84-20.529,25.015-25.038
			c3.362-1.245,6.845-1.971,10.417-2.267c0.224-0.021,0.443-0.104,0.664-0.158c1.855,0,3.709,0,5.564,0
			c0.29,0.057,0.577,0.141,0.87,0.163c4.351,0.345,8.565,1.333,12.538,3.101c12.769,5.684,20.867,15.329,24.11,28.955
			c0.494,2.074,0.694,4.219,1.031,6.332C101.733,139.514,101.733,141.368,101.733,143.223z M90.942,140.365
			c-0.151-16.805-13.332-30.388-30.425-30.428c-16.87-0.04-30.417,13.338-30.497,30.438c-0.078,16.799,13.74,30.575,30.508,30.451
			C77.51,170.703,90.79,157.279,90.942,140.365z"/>
		<path fill="#A0C219" d="M62.292,115.552c3.562,0.12,6.968,0.841,10.254,2.146c2.289,0.908,3.376,3.271,2.564,5.506
			c-0.807,2.223-3.176,3.379-5.495,2.524c-2.957-1.09-5.95-1.754-9.115-1.362c-6.632,0.813-11.5,4.18-14.573,10.111
			c-0.596,1.15-1.119,2.332-2.343,2.978c-1.623,0.855-3.541,0.64-4.897-0.555c-1.318-1.159-1.809-3.11-1.093-4.807
			c1.446-3.423,3.5-6.449,6.209-8.997c3.77-3.546,8.195-5.883,13.287-6.866C58.804,115.898,60.557,115.771,62.292,115.552z"/>
		<g>
			<path fill="#A0C219" d="M37.576,192.025h1.383l0.991,7.924h0.127l1.06-7.924h1.303L41,200.858h-1.96L37.576,192.025z"/>
			<path fill="#A0C219" d="M48.642,194.328v2.621h-3.354v1.864c0,0.526,0.069,0.886,0.208,1.074
				c0.138,0.188,0.384,0.283,0.738,0.283c0.338,0,0.576-0.097,0.715-0.292c0.138-0.194,0.208-0.55,0.208-1.064v-0.979h1.487v0.723
				c0,0.975-0.177,1.637-0.53,1.988c-0.354,0.353-0.98,0.528-1.879,0.528c-0.891,0-1.516-0.18-1.873-0.537
				c-0.357-0.357-0.536-1.023-0.536-1.998v-4.21c0-0.979,0.175-1.645,0.525-1.994c0.35-0.351,0.978-0.523,1.885-0.523
				c0.891,0,1.516,0.18,1.873,0.537C48.464,192.706,48.642,193.366,48.642,194.328z M47.155,194.062
				c0-0.521-0.069-0.876-0.208-1.064c-0.138-0.188-0.377-0.284-0.715-0.284c-0.346,0-0.59,0.101-0.732,0.302
				c-0.142,0.2-0.213,0.55-0.213,1.048v1.994h1.867L47.155,194.062L47.155,194.062z"/>
			<path fill="#A0C219" d="M54.095,191.828v1.073h-0.242c-0.607,0-1.037,0.113-1.291,0.34s-0.38,0.617-0.38,1.173v6.443h-1.418
				v-8.833h1.326l0.092,0.542c0.2-0.24,0.444-0.427,0.732-0.56c0.288-0.132,0.601-0.197,0.939-0.197
				c0.023,0,0.062,0.003,0.115,0.009C54.021,191.825,54.064,191.828,54.095,191.828z"/>
			<path fill="#A0C219" d="M58.648,188.184h1.579v1.34h-1.579V188.184z M58.717,192.025h1.418v8.833h-1.418V192.025z"/>
			<path fill="#A0C219" d="M67.143,193.838v7.021h-1.418v-6.797c0-0.504-0.075-0.854-0.225-1.054
				c-0.15-0.198-0.406-0.296-0.767-0.296c-0.354,0-0.607,0.103-0.761,0.306c-0.154,0.203-0.23,0.551-0.23,1.044v6.797h-1.418v-8.833
				h1.326l0.092,0.542c0.192-0.245,0.436-0.435,0.732-0.563s0.636-0.192,1.02-0.192c0.6,0,1.024,0.149,1.274,0.451
				C67.018,192.562,67.143,193.088,67.143,193.838z"/>
			<path fill="#A0C219" d="M71.904,187.995v0.911h-0.208c-0.331,0-0.559,0.047-0.686,0.142c-0.127,0.095-0.19,0.266-0.19,0.512
				v2.466h1.084v0.876H70.82v7.957h-1.418v-7.957H68.63v-0.876h0.772v-1.916c0-0.904,0.131-1.486,0.392-1.743
				c0.261-0.259,0.753-0.388,1.476-0.388c0.161,0,0.288,0.001,0.38,0.004C71.743,187.985,71.827,187.99,71.904,187.995z"/>
			<path fill="#A0C219" d="M77.886,194.328v4.229c0,0.974-0.177,1.637-0.53,1.988c-0.354,0.353-0.98,0.528-1.879,0.528
				c-0.891,0-1.516-0.18-1.873-0.537c-0.357-0.358-0.536-1.023-0.536-1.998v-4.21c0-0.979,0.175-1.645,0.525-1.994
				c0.35-0.351,0.978-0.523,1.885-0.523c0.891,0,1.516,0.179,1.873,0.537S77.886,193.366,77.886,194.328z M76.4,194.062
				c0-0.521-0.069-0.876-0.208-1.064c-0.138-0.188-0.377-0.284-0.715-0.284c-0.346,0-0.59,0.101-0.732,0.302
				c-0.142,0.2-0.213,0.55-0.213,1.048v4.752c0,0.526,0.069,0.886,0.208,1.074c0.138,0.188,0.384,0.283,0.738,0.283
				c0.338,0,0.576-0.097,0.715-0.292c0.138-0.194,0.208-0.55,0.208-1.064L76.4,194.062L76.4,194.062z"/>
			<path fill="#A0C219" d="M83.339,192.566l0.115-0.542h1.325v9.787c0,0.975-0.177,1.636-0.53,1.984
				c-0.354,0.35-0.98,0.523-1.879,0.523c-0.861,0-1.477-0.17-1.85-0.511c-0.373-0.342-0.559-0.922-0.559-1.74v-0.474h1.487v0.474
				c0,0.539,0.067,0.898,0.202,1.083c0.135,0.184,0.375,0.274,0.72,0.274c0.354,0,0.603-0.099,0.749-0.296s0.219-0.552,0.219-1.062
				v-2.147c-0.192,0.252-0.431,0.438-0.715,0.56c-0.284,0.12-0.622,0.181-1.014,0.181c-0.599,0-1.024-0.146-1.274-0.442
				c-0.25-0.295-0.375-0.814-0.375-1.56v-4.821c0-0.75,0.127-1.275,0.38-1.577c0.254-0.301,0.676-0.45,1.268-0.45
				c0.376,0,0.711,0.063,1.003,0.192C82.905,192.132,83.147,192.32,83.339,192.566z M83.339,194.062
				c0-0.504-0.073-0.857-0.219-1.062s-0.388-0.306-0.726-0.306c-0.354,0-0.604,0.1-0.749,0.297
				c-0.146,0.197-0.219,0.554-0.219,1.069v4.349c0,0.521,0.073,0.88,0.219,1.078c0.146,0.197,0.396,0.296,0.749,0.296
				c0.338,0,0.58-0.104,0.726-0.31c0.146-0.207,0.219-0.563,0.219-1.064V194.062z"/>
			<path fill="#A0C219" d="M90.279,191.828v1.073h-0.242c-0.607,0-1.037,0.113-1.291,0.34s-0.38,0.617-0.38,1.173v6.443h-1.418
				v-8.833h1.326l0.092,0.542c0.2-0.24,0.444-0.427,0.732-0.56c0.288-0.132,0.601-0.197,0.939-0.197
				c0.023,0,0.062,0.003,0.115,0.009C90.205,191.825,90.248,191.828,90.279,191.828z"/>
			<path fill="#A0C219" d="M95.927,194.087v6.771h-1.326l-0.092-0.542c-0.192,0.247-0.436,0.435-0.732,0.563
				c-0.296,0.129-0.636,0.192-1.02,0.192c-0.6,0-1.024-0.149-1.274-0.45c-0.25-0.302-0.375-0.826-0.375-1.577v-1.762
				c0-0.693,0.251-1.187,0.755-1.479c0.503-0.293,1.385-0.455,2.646-0.49v-1.254c0-0.533-0.067-0.892-0.202-1.074
				c-0.135-0.184-0.375-0.274-0.72-0.274c-0.331,0-0.567,0.084-0.709,0.253s-0.213,0.46-0.213,0.872v0.49h-1.418v-0.241
				c0-0.882,0.173-1.481,0.519-1.8c0.346-0.318,0.96-0.478,1.844-0.478c0.86,0,1.462,0.16,1.804,0.48
				C95.756,192.612,95.927,193.211,95.927,194.087z M94.497,196.175c-0.738,0.023-1.239,0.12-1.504,0.292
				c-0.265,0.173-0.398,0.481-0.398,0.929v1.418c0,0.526,0.069,0.886,0.207,1.074c0.138,0.188,0.384,0.283,0.738,0.283
				c0.346,0,0.594-0.103,0.744-0.305c0.15-0.203,0.225-0.555,0.225-1.053L94.497,196.175z"/>
			<path fill="#A0C219" d="M100.688,187.995v0.911h-0.208c-0.331,0-0.559,0.047-0.686,0.142s-0.19,0.266-0.19,0.512v2.466h1.084
				v0.876h-1.084v7.957h-1.418v-7.957h-0.772v-0.876h0.772v-1.916c0-0.904,0.131-1.486,0.392-1.743
				c0.261-0.259,0.753-0.388,1.476-0.388c0.161,0,0.288,0.001,0.38,0.004C100.526,187.985,100.611,187.99,100.688,187.995z"/>
			<path fill="#A0C219" d="M101.829,188.184h1.579v1.34h-1.579V188.184z M101.898,192.025h1.418v8.833h-1.418V192.025z"/>
			<path fill="#A0C219" d="M110.14,194.087v6.771h-1.326l-0.092-0.542c-0.192,0.247-0.436,0.435-0.732,0.563
				c-0.296,0.129-0.636,0.192-1.02,0.192c-0.6,0-1.024-0.149-1.274-0.45c-0.25-0.302-0.375-0.826-0.375-1.577v-1.762
				c0-0.693,0.251-1.187,0.755-1.479c0.503-0.293,1.385-0.455,2.646-0.49v-1.254c0-0.533-0.067-0.892-0.202-1.074
				c-0.135-0.184-0.375-0.274-0.72-0.274c-0.331,0-0.567,0.084-0.709,0.253c-0.142,0.169-0.213,0.46-0.213,0.872v0.49h-1.418v-0.241
				c0-0.882,0.173-1.481,0.519-1.8s0.96-0.478,1.844-0.478c0.86,0,1.462,0.16,1.804,0.48
				C109.969,192.612,110.14,193.211,110.14,194.087z M108.71,196.175c-0.738,0.023-1.239,0.12-1.504,0.292
				c-0.265,0.173-0.398,0.481-0.398,0.929v1.418c0,0.526,0.069,0.886,0.207,1.074c0.138,0.188,0.384,0.283,0.738,0.283
				c0.346,0,0.594-0.103,0.744-0.305c0.15-0.203,0.225-0.555,0.225-1.053L108.71,196.175z"/>
		</g>
	</g>
</g>
</svg>
