<?xml version="1.0" encoding="utf-8"?>
<!-- Generator: Adobe Illustrator 22.0.1, SVG Export Plug-In . SVG Version: 6.00 Build 0)  -->
<svg version="1.1" id="Capa_1" xmlns="http://www.w3.org/2000/svg" xmlns:xlink="http://www.w3.org/1999/xlink" x="0px" y="0px"
	 viewBox="0 0 1277.9 601.8" style="enable-background:new 0 0 1277.9 601.8;" xml:space="preserve">
<style type="text/css">
	.st0{opacity:0.9;fill:#FFFFFF;enable-background:new    ;}
	.st1{fill:#F2961C;}
	.st2{fill:#2C5A67;}
</style>
<g>
	<rect y="0" class="st0" width="1277.9" height="601.8"/>
	<g>
		<path class="st1" d="M110.7,50.2v39.4h-9l0-26.6l-3.6,26.6h-6.4l-3.8-26l0,26h-9V50.2h13.3c0.4,2.4,0.8,5.2,1.2,8.4l1.5,10
			l2.4-18.4L110.7,50.2L110.7,50.2z"/>
		<path class="st1" d="M123.3,69.9h-9.2v-2.2c0-2.5,0.3-4.4,0.9-5.8c0.6-1.4,1.7-2.6,3.5-3.6c1.7-1,4-1.6,6.8-1.6
			c3.3,0,5.8,0.6,7.5,1.8c1.7,1.2,2.7,2.6,3,4.3c0.3,1.7,0.5,5.2,0.5,10.6v16.2h-9.6v-2.9c-0.6,1.2-1.4,2-2.3,2.6
			c-0.9,0.6-2.1,0.9-3.4,0.9c-1.7,0-3.3-0.5-4.7-1.4c-1.4-1-2.2-3.1-2.2-6.3v-2.7c0-2.4,0.4-4.1,1.1-4.9c0.8-0.9,2.7-1.9,5.7-3.1
			c3.2-1.3,5-2.1,5.2-2.6c0.2-0.4,0.3-1.3,0.3-2.7c0-1.7-0.1-2.8-0.4-3.3c-0.3-0.5-0.7-0.8-1.3-0.8c-0.7,0-1.1,0.2-1.2,0.6
			c-0.2,0.4-0.2,1.5-0.2,3.4C123.3,66.5,123.3,69.9,123.3,69.9z M133.7,48.6l-8,6.6h-4.9l4.3-6.6H133.7z M126.4,74.3
			c-1.6,1.2-2.5,2.1-2.7,2.9s-0.4,1.9-0.4,3.4c0,1.7,0.1,2.8,0.3,3.2c0.2,0.5,0.7,0.7,1.3,0.7c0.6,0,1-0.2,1.2-0.6
			c0.2-0.4,0.3-1.4,0.3-3C126.4,81,126.4,74.3,126.4,74.3z"/>
		<path class="st1" d="M159.8,67.7H151v-1.8c0-1.5-0.1-2.4-0.3-2.8c-0.2-0.4-0.6-0.6-1.3-0.6c-0.6,0-1,0.2-1.2,0.5s-0.4,0.9-0.4,1.6
			c0,1,0.1,1.7,0.2,2.2s0.6,1,1.2,1.5c0.7,0.6,2.1,1.4,4.3,2.4c2.9,1.4,4.7,2.7,5.6,3.9s1.3,3,1.3,5.4c0,2.6-0.3,4.6-1,6
			s-1.8,2.4-3.4,3.1c-1.6,0.7-3.5,1.1-5.8,1.1c-2.5,0-4.6-0.4-6.4-1.2c-1.8-0.8-3-1.8-3.7-3.2c-0.7-1.3-1-3.3-1-6v-1.6h8.7v2
			c0,1.7,0.1,2.9,0.3,3.4c0.2,0.5,0.7,0.8,1.3,0.8c0.7,0,1.2-0.2,1.5-0.5c0.3-0.3,0.4-1.1,0.4-2.2c0-1.5-0.2-2.5-0.5-2.9
			c-0.4-0.4-2.3-1.5-5.7-3.5c-2.9-1.6-4.7-3.1-5.3-4.4c-0.6-1.3-0.9-2.9-0.9-4.7c0-2.6,0.3-4.5,1-5.7s1.8-2.2,3.5-2.8
			c1.6-0.7,3.5-1,5.7-1c2.1,0,4,0.3,5.5,0.8s2.7,1.3,3.5,2.2c0.8,0.9,1.3,1.7,1.5,2.5c0.2,0.8,0.3,2,0.3,3.6L159.8,67.7
			C159.7,67.7,159.8,67.7,159.8,67.7z"/>
		<path class="st1" d="M192,67.7h-8.7v-1.8c0-1.5-0.1-2.4-0.3-2.8c-0.2-0.4-0.6-0.6-1.3-0.6c-0.6,0-1,0.2-1.2,0.5s-0.4,0.9-0.4,1.6
			c0,1,0.1,1.7,0.2,2.2s0.6,1,1.2,1.5c0.7,0.6,2.1,1.4,4.3,2.4c2.9,1.4,4.7,2.7,5.6,3.9s1.3,3,1.3,5.4c0,2.6-0.3,4.6-1,6
			c-0.7,1.3-1.8,2.4-3.4,3.1c-1.6,0.7-3.5,1.1-5.8,1.1c-2.5,0-4.6-0.4-6.4-1.2c-1.8-0.8-3-1.8-3.7-3.2c-0.7-1.3-1-3.3-1-6v-1.6h8.7
			v2c0,1.7,0.1,2.9,0.3,3.4c0.2,0.5,0.7,0.8,1.3,0.8c0.7,0,1.2-0.2,1.5-0.5c0.3-0.3,0.4-1.1,0.4-2.2c0-1.5-0.2-2.5-0.5-2.9
			c-0.4-0.4-2.3-1.5-5.7-3.5c-2.9-1.6-4.7-3.1-5.3-4.4c-0.6-1.3-0.9-2.9-0.9-4.7c0-2.6,0.3-4.5,1-5.7c0.7-1.2,1.8-2.2,3.5-2.8
			c1.6-0.7,3.5-1,5.7-1c2.1,0,4,0.3,5.5,0.8s2.7,1.3,3.5,2.2c0.8,0.9,1.3,1.7,1.5,2.5c0.2,0.8,0.3,2,0.3,3.6L192,67.7
			C192,67.7,192,67.7,192,67.7z"/>
		<path class="st1" d="M204.2,69.9H195v-2.2c0-2.5,0.3-4.4,0.9-5.8c0.6-1.4,1.7-2.6,3.5-3.6s4-1.6,6.8-1.6c3.3,0,5.8,0.6,7.5,1.8
			c1.7,1.2,2.7,2.6,3,4.3c0.3,1.7,0.5,5.2,0.5,10.6v16.2h-9.6v-2.9c-0.6,1.2-1.4,2-2.3,2.6c-0.9,0.6-2.1,0.9-3.4,0.9
			c-1.7,0-3.3-0.5-4.7-1.4c-1.4-1-2.2-3.1-2.2-6.3v-2.7c0-2.4,0.4-4.1,1.1-4.9c0.8-0.9,2.7-1.9,5.7-3.1c3.2-1.3,5-2.1,5.2-2.6
			c0.2-0.4,0.3-1.3,0.3-2.7c0-1.7-0.1-2.8-0.4-3.3c-0.3-0.5-0.7-0.8-1.3-0.8c-0.7,0-1.1,0.2-1.2,0.6s-0.2,1.5-0.2,3.4L204.2,69.9
			L204.2,69.9z M207.3,74.3c-1.6,1.2-2.5,2.1-2.7,2.9s-0.4,1.9-0.4,3.4c0,1.7,0.1,2.8,0.3,3.2s0.7,0.7,1.3,0.7c0.6,0,1-0.2,1.2-0.6
			c0.2-0.4,0.3-1.4,0.3-3L207.3,74.3L207.3,74.3z"/>
		<path class="st1" d="M230.7,50.2v39.4h-10.1V50.2C220.6,50.2,230.7,50.2,230.7,50.2z"/>
		<path class="st1" d="M256.8,57.4v32.3h-10l0.2-2.7c-0.7,1.1-1.5,1.9-2.5,2.5c-1,0.5-2.1,0.8-3.4,0.8c-1.5,0-2.7-0.3-3.7-0.8
			s-1.7-1.2-2.2-2.1c-0.5-0.9-0.8-1.8-0.9-2.7s-0.2-2.8-0.2-5.6V57.4h9.8v22c0,2.5,0.1,4,0.2,4.5c0.2,0.5,0.6,0.7,1.3,0.7
			c0.7,0,1.2-0.2,1.3-0.7s0.2-2.1,0.2-4.7V57.4H256.8z"/>
		<path class="st1" d="M282.7,50.2v39.4h-9.8v-2.3c-0.9,1-1.9,1.7-3,2.2c-1,0.5-2.1,0.7-3.3,0.7c-1.5,0-2.9-0.4-4-1.2
			s-1.8-1.7-2.2-2.8c-0.3-1.1-0.5-2.8-0.5-5.2V66c0-2.5,0.2-4.2,0.5-5.3c0.3-1,1-2,2.2-2.7c1.1-0.8,2.5-1.2,4.1-1.2
			c1.2,0,2.3,0.2,3.4,0.7c1,0.4,1.9,1.1,2.8,2v-9.2L282.7,50.2L282.7,50.2L282.7,50.2z M272.8,65.5c0-1.2-0.1-2-0.3-2.4
			c-0.2-0.4-0.6-0.6-1.2-0.6c-0.6,0-1,0.2-1.2,0.5s-0.3,1.2-0.3,2.4v15.8c0,1.3,0.1,2.2,0.3,2.6s0.6,0.6,1.1,0.6
			c0.6,0,1.1-0.2,1.3-0.7s0.3-1.6,0.3-3.4L272.8,65.5L272.8,65.5z"/>
		<path class="st1" d="M305,57.4l-0.2,2.9c0.9-1.2,1.8-2,2.9-2.6c1.1-0.6,2.2-0.9,3.5-0.9c1.5,0,2.8,0.4,4,1.2
			c1.1,0.8,1.8,1.8,2.1,2.8c0.3,1.1,0.4,2.9,0.4,5.5v13.6c0,2.9-0.2,5-0.5,6.3c-0.3,1.2-1.1,2.2-2.1,3c-1.1,0.7-2.4,1.1-3.9,1.1
			c-1.2,0-2.3-0.3-3.4-0.9c-1-0.6-2-1.4-2.9-2.5v7.4H295V57.4H305z M307.8,66.8c0-2-0.1-3.2-0.2-3.6c-0.1-0.4-0.6-0.6-1.2-0.6
			c-0.6,0-1.1,0.2-1.3,0.7s-0.3,1.7-0.3,3.5v13.4c0,1.9,0.1,3.2,0.3,3.7s0.6,0.7,1.3,0.7c0.6,0,1-0.2,1.2-0.7
			c0.2-0.4,0.2-1.5,0.2-3.3L307.8,66.8L307.8,66.8z"/>
		<path class="st1" d="M329.7,69.9h-9.2v-2.2c0-2.5,0.3-4.4,0.9-5.8c0.6-1.4,1.7-2.6,3.5-3.6c1.7-1,4-1.6,6.8-1.6
			c3.3,0,5.8,0.6,7.5,1.8c1.7,1.2,2.7,2.6,3,4.3c0.3,1.7,0.5,5.2,0.5,10.6v16.2h-9.6v-2.9c-0.6,1.2-1.4,2-2.3,2.6
			c-1,0.6-2.1,0.9-3.4,0.9c-1.7,0-3.3-0.5-4.7-1.4c-1.4-1-2.2-3.1-2.2-6.3v-2.7c0-2.4,0.4-4.1,1.1-4.9c0.8-0.9,2.7-1.9,5.7-3.1
			c3.2-1.3,5-2.1,5.2-2.6c0.2-0.4,0.3-1.3,0.3-2.7c0-1.7-0.1-2.8-0.4-3.3c-0.3-0.5-0.7-0.8-1.3-0.8c-0.7,0-1.1,0.2-1.2,0.6
			c-0.2,0.4-0.2,1.5-0.2,3.4L329.7,69.9L329.7,69.9z M332.8,74.3c-1.6,1.2-2.5,2.1-2.7,2.9c-0.3,0.8-0.4,1.9-0.4,3.4
			c0,1.7,0.1,2.8,0.3,3.2c0.2,0.5,0.7,0.7,1.3,0.7c0.6,0,1-0.2,1.2-0.6c0.2-0.4,0.3-1.4,0.3-3L332.8,74.3L332.8,74.3z"/>
		<path class="st1" d="M355.9,57.4l-0.4,4.3c1.4-3,3.5-4.7,6.2-4.8v11.4c-1.8,0-3.1,0.2-4,0.7s-1.4,1.2-1.6,2
			c-0.2,0.9-0.3,2.9-0.3,6v12.8H346V57.4H355.9z"/>
		<path class="st1" d="M372.7,69.9h-9.2v-2.2c0-2.5,0.3-4.4,0.9-5.8c0.6-1.4,1.7-2.6,3.5-3.6c1.7-1,4-1.6,6.8-1.6
			c3.3,0,5.8,0.6,7.5,1.8c1.7,1.2,2.7,2.6,3,4.3c0.3,1.7,0.5,5.2,0.5,10.6v16.2h-9.6v-2.9c-0.6,1.2-1.4,2-2.3,2.6
			c-1,0.6-2.1,0.9-3.4,0.9c-1.7,0-3.3-0.5-4.7-1.4c-1.4-1-2.2-3.1-2.2-6.3v-2.7c0-2.4,0.4-4.1,1.1-4.9s2.7-1.9,5.7-3.1
			c3.2-1.3,5-2.1,5.2-2.6c0.2-0.4,0.3-1.3,0.3-2.7c0-1.7-0.1-2.8-0.4-3.3c-0.3-0.5-0.7-0.8-1.3-0.8c-0.7,0-1.1,0.2-1.2,0.6
			c-0.2,0.4-0.2,1.5-0.2,3.4L372.7,69.9L372.7,69.9z M375.8,74.3c-1.6,1.2-2.5,2.1-2.7,2.9c-0.3,0.8-0.4,1.9-0.4,3.4
			c0,1.7,0.1,2.8,0.3,3.2c0.2,0.5,0.7,0.7,1.3,0.7c0.6,0,1-0.2,1.2-0.6c0.2-0.4,0.3-1.4,0.3-3L375.8,74.3L375.8,74.3z"/>
		<path class="st1" d="M408,50.2v39.4h-10.1V50.2C397.8,50.2,408,50.2,408,50.2z"/>
		<path class="st1" d="M420.3,69.9h-9.2v-2.2c0-2.5,0.3-4.4,0.9-5.8c0.6-1.4,1.7-2.6,3.5-3.6c1.7-1,4-1.6,6.8-1.6
			c3.3,0,5.8,0.6,7.5,1.8c1.7,1.2,2.7,2.6,3,4.3c0.3,1.7,0.5,5.2,0.5,10.6v16.2h-9.6v-2.9c-0.6,1.2-1.4,2-2.3,2.6
			c-0.9,0.6-2.1,0.9-3.4,0.9c-1.7,0-3.3-0.5-4.7-1.4c-1.4-1-2.2-3.1-2.2-6.3v-2.7c0-2.4,0.4-4.1,1.1-4.9s2.7-1.9,5.7-3.1
			c3.2-1.3,5-2.1,5.2-2.6c0.2-0.4,0.3-1.3,0.3-2.7c0-1.7-0.1-2.8-0.4-3.3c-0.3-0.5-0.7-0.8-1.3-0.8c-0.7,0-1.1,0.2-1.2,0.6
			c-0.2,0.4-0.2,1.5-0.2,3.4L420.3,69.9L420.3,69.9z M423.4,74.3c-1.6,1.2-2.5,2.1-2.7,2.9c-0.3,0.8-0.4,1.9-0.4,3.4
			c0,1.7,0.1,2.8,0.3,3.2c0.2,0.5,0.7,0.7,1.3,0.7c0.6,0,1-0.2,1.2-0.6c0.2-0.4,0.3-1.4,0.3-3L423.4,74.3L423.4,74.3z"/>
		<path class="st1" d="M456.7,67.7H448v-1.8c0-1.5-0.1-2.4-0.3-2.8c-0.2-0.4-0.6-0.6-1.3-0.6c-0.6,0-1,0.2-1.2,0.5
			c-0.3,0.4-0.4,0.9-0.4,1.6c0,1,0.1,1.7,0.2,2.2c0.1,0.5,0.6,1,1.2,1.5c0.7,0.6,2.1,1.4,4.3,2.4c2.9,1.4,4.7,2.7,5.6,3.9
			c0.9,1.2,1.3,3,1.3,5.4c0,2.6-0.3,4.6-1,6c-0.7,1.3-1.8,2.4-3.4,3.1c-1.6,0.7-3.5,1.1-5.8,1.1c-2.5,0-4.6-0.4-6.4-1.2
			c-1.8-0.8-3-1.8-3.7-3.2s-1-3.3-1-6v-1.6h8.7v2c0,1.7,0.1,2.9,0.3,3.4c0.2,0.5,0.7,0.8,1.3,0.8c0.7,0,1.2-0.2,1.5-0.5
			c0.3-0.3,0.4-1.1,0.4-2.2c0-1.5-0.2-2.5-0.5-2.9c-0.4-0.4-2.3-1.5-5.7-3.5c-2.9-1.6-4.7-3.1-5.3-4.4c-0.6-1.3-1-2.9-1-4.7
			c0-2.6,0.3-4.5,1-5.7c0.7-1.2,1.8-2.2,3.5-2.8c1.6-0.7,3.5-1,5.7-1c2.1,0,4,0.3,5.5,0.8c1.5,0.5,2.7,1.3,3.5,2.2
			c0.8,0.9,1.3,1.7,1.5,2.5c0.2,0.8,0.3,2,0.3,3.6L456.7,67.7L456.7,67.7z"/>
		<path class="st1" d="M88.8,107l-0.2,2.9c0.9-1.2,1.8-2,2.9-2.6c1.1-0.6,2.2-0.9,3.5-0.9c1.5,0,2.8,0.4,4,1.2
			c1.1,0.8,1.8,1.8,2.1,2.8s0.4,2.9,0.4,5.5v13.6c0,2.9-0.2,5-0.5,6.3c-0.3,1.2-1.1,2.2-2.1,3c-1.1,0.7-2.4,1.1-3.9,1.1
			c-1.2,0-2.3-0.3-3.4-0.9c-1-0.6-2-1.4-2.9-2.5v7.4h-9.8V107L88.8,107L88.8,107z M91.6,116.4c0-2-0.1-3.2-0.2-3.6
			c-0.1-0.4-0.6-0.6-1.2-0.6c-0.7,0-1.1,0.2-1.3,0.7s-0.3,1.7-0.3,3.5v13.4c0,1.9,0.1,3.2,0.3,3.7s0.6,0.7,1.3,0.7
			c0.6,0,1-0.2,1.2-0.7c0.2-0.4,0.2-1.5,0.2-3.3L91.6,116.4L91.6,116.4z"/>
		<path class="st1" d="M126.9,123.7h-12.7v7c0,1.5,0.1,2.4,0.3,2.8s0.6,0.6,1.2,0.6c0.7,0,1.2-0.3,1.5-0.8c0.3-0.6,0.4-1.6,0.4-3.3
			v-4.3h9.3v2.4c0,2-0.1,3.5-0.4,4.6s-0.8,2.2-1.8,3.4s-2.1,2.1-3.5,2.7c-1.4,0.6-3.2,0.9-5.3,0.9c-2.1,0-3.9-0.3-5.5-0.9
			c-1.6-0.6-2.8-1.4-3.7-2.5c-0.9-1-1.5-2.2-1.8-3.5c-0.3-1.3-0.5-3.1-0.5-5.5v-9.4c0-2.8,0.4-5.1,1.1-6.7c0.8-1.6,2-2.9,3.8-3.8
			c1.7-0.9,3.7-1.3,6-1.3c2.8,0,5,0.5,6.8,1.6c1.8,1,3.1,2.4,3.8,4.2c0.7,1.7,1.1,4.2,1.1,7.3L126.9,123.7L126.9,123.7z
			 M117.1,118.5v-2.4c0-1.7-0.1-2.8-0.3-3.2s-0.5-0.7-1.1-0.7c-0.7,0-1.1,0.2-1.3,0.6c-0.2,0.4-0.2,1.5-0.2,3.3v2.4H117.1z"/>
		<path class="st1" d="M140,107l-0.4,4.3c1.4-3,3.5-4.7,6.2-4.8v11.4c-1.8,0-3.1,0.2-4,0.7s-1.4,1.2-1.6,2c-0.2,0.9-0.3,2.9-0.3,6
			v12.8h-9.8V107H140z"/>
		<path class="st1" d="M168.1,117.3h-8.7v-1.8c0-1.5-0.1-2.4-0.3-2.8c-0.2-0.4-0.6-0.6-1.3-0.6c-0.6,0-1,0.2-1.2,0.5
			s-0.4,0.9-0.4,1.6c0,1,0.1,1.7,0.2,2.2c0.1,0.5,0.6,1,1.2,1.5c0.7,0.6,2.1,1.4,4.3,2.4c2.9,1.4,4.7,2.7,5.6,3.9s1.3,3,1.3,5.4
			c0,2.6-0.3,4.6-1,6c-0.7,1.3-1.8,2.4-3.4,3.1c-1.6,0.7-3.5,1.1-5.8,1.1c-2.5,0-4.6-0.4-6.4-1.2c-1.8-0.8-3-1.8-3.7-3.2
			c-0.7-1.3-1-3.3-1-6V128h8.7v2c0,1.7,0.1,2.9,0.3,3.4c0.2,0.5,0.7,0.8,1.3,0.8c0.7,0,1.2-0.2,1.5-0.5c0.3-0.3,0.4-1.1,0.4-2.2
			c0-1.5-0.2-2.5-0.5-2.9c-0.4-0.4-2.3-1.5-5.7-3.5c-2.9-1.6-4.7-3.1-5.3-4.4c-0.6-1.3-0.9-2.9-0.9-4.7c0-2.6,0.3-4.5,1-5.7
			c0.7-1.2,1.8-2.2,3.5-2.8s3.5-1,5.7-1c2.1,0,4,0.3,5.5,0.8s2.7,1.3,3.5,2.2c0.8,0.9,1.3,1.7,1.5,2.5c0.2,0.8,0.3,2,0.3,3.6
			L168.1,117.3L168.1,117.3L168.1,117.3z"/>
		<path class="st1" d="M193.8,118.4v7.9c0,2.9-0.1,5-0.4,6.4s-0.9,2.6-1.9,3.8c-1,1.2-2.2,2-3.7,2.6c-1.5,0.6-3.2,0.8-5.2,0.8
			c-2.2,0-4-0.2-5.5-0.7c-1.5-0.5-2.7-1.2-3.5-2.2s-1.4-2.1-1.8-3.5c-0.4-1.4-0.5-3.4-0.5-6.2v-8.3c0-3,0.3-5.4,1-7
			c0.6-1.7,1.8-3,3.5-4.1s3.8-1.5,6.5-1.5c2.2,0,4.1,0.3,5.7,1s2.8,1.5,3.7,2.6c0.9,1.1,1.4,2.1,1.8,3.3
			C193.6,114.4,193.8,116.1,193.8,118.4z M183.9,115.9c0-1.7-0.1-2.7-0.3-3.1s-0.6-0.6-1.1-0.6c-0.6,0-1,0.2-1.2,0.6
			c-0.2,0.4-0.3,1.5-0.3,3.1v14.6c0,1.5,0.1,2.5,0.3,3s0.6,0.7,1.1,0.7c0.6,0,1-0.2,1.2-0.6s0.3-1.3,0.3-2.7L183.9,115.9
			L183.9,115.9z"/>
		<path class="st1" d="M207,107l-0.2,3c0.7-1.2,1.6-2.1,2.6-2.7c1-0.6,2.2-0.9,3.6-0.9c1.7,0,3.1,0.4,4.1,1.2c1.1,0.8,1.8,1.8,2.1,3
			c0.3,1.2,0.5,3.2,0.5,6.1v22.7h-9.8V117c0-2.2-0.1-3.6-0.2-4.1s-0.6-0.7-1.2-0.7c-0.7,0-1.1,0.3-1.3,0.8c-0.2,0.6-0.3,2.1-0.3,4.5
			v21.9H197V107L207,107L207,107z"/>
		<path class="st1" d="M231.9,119.5h-9.2v-2.2c0-2.5,0.3-4.4,0.9-5.8c0.6-1.4,1.7-2.6,3.5-3.6c1.7-1,4-1.6,6.8-1.6
			c3.3,0,5.8,0.6,7.5,1.8c1.7,1.2,2.7,2.6,3,4.3c0.3,1.7,0.5,5.2,0.5,10.6v16.2h-9.6v-2.9c-0.6,1.2-1.4,2-2.3,2.6
			c-0.9,0.6-2.1,0.9-3.4,0.9c-1.7,0-3.3-0.5-4.7-1.4c-1.4-1-2.2-3.1-2.2-6.3v-2.7c0-2.4,0.4-4.1,1.1-4.9c0.8-0.9,2.7-1.9,5.7-3.1
			c3.2-1.3,5-2.1,5.2-2.6c0.2-0.4,0.3-1.3,0.3-2.7c0-1.7-0.1-2.8-0.4-3.3c-0.3-0.5-0.7-0.8-1.3-0.8c-0.7,0-1.1,0.2-1.2,0.6
			c-0.2,0.4-0.2,1.5-0.2,3.3L231.9,119.5L231.9,119.5z M235,124c-1.6,1.2-2.5,2.1-2.7,2.9s-0.4,1.9-0.4,3.4c0,1.7,0.1,2.8,0.3,3.2
			c0.2,0.5,0.7,0.7,1.3,0.7c0.6,0,1-0.2,1.2-0.6c0.2-0.4,0.3-1.4,0.3-3L235,124L235,124z"/>
		<path class="st1" d="M268.3,117.3h-8.7v-1.8c0-1.5-0.1-2.4-0.3-2.8c-0.2-0.4-0.6-0.6-1.3-0.6c-0.6,0-1,0.2-1.2,0.5
			s-0.4,0.9-0.4,1.6c0,1,0.1,1.7,0.2,2.2s0.6,1,1.2,1.5c0.7,0.6,2.1,1.4,4.3,2.4c2.9,1.4,4.7,2.7,5.6,3.9s1.3,3,1.3,5.4
			c0,2.6-0.3,4.6-1,6s-1.8,2.4-3.4,3.1c-1.6,0.7-3.5,1.1-5.8,1.1c-2.5,0-4.6-0.4-6.4-1.2c-1.8-0.8-3-1.8-3.7-3.2c-0.7-1.3-1-3.3-1-6
			V128h8.7v2c0,1.7,0.1,2.9,0.3,3.4c0.2,0.5,0.7,0.8,1.3,0.8c0.7,0,1.2-0.2,1.5-0.5c0.3-0.3,0.4-1.1,0.4-2.2c0-1.5-0.2-2.5-0.5-2.9
			c-0.4-0.4-2.3-1.5-5.7-3.5c-2.9-1.6-4.7-3.1-5.3-4.4c-0.6-1.3-0.9-2.9-0.9-4.7c0-2.6,0.3-4.5,1-5.7s1.8-2.2,3.5-2.8
			c1.6-0.7,3.5-1,5.7-1c2.1,0,4,0.3,5.5,0.8s2.7,1.3,3.5,2.2c0.8,0.9,1.3,1.7,1.5,2.5c0.2,0.8,0.3,2,0.3,3.6L268.3,117.3
			L268.3,117.3L268.3,117.3z"/>
		<path class="st1" d="M302.3,119.2H293v-3.7c0-1.3-0.1-2.2-0.3-2.6s-0.6-0.7-1.2-0.7s-1,0.2-1.1,0.6c-0.2,0.4-0.3,1.3-0.3,2.7v15.2
			c0,1.2,0.1,2,0.4,2.6c0.3,0.6,0.7,0.9,1.3,0.9c0.7,0,1.1-0.3,1.4-0.9s0.4-1.7,0.4-3.4V126h8.8c0,2.6-0.1,4.5-0.3,5.8
			c-0.2,1.3-0.7,2.6-1.6,4c-0.9,1.4-2.1,2.4-3.6,3.1c-1.5,0.7-3.3,1-5.5,1c-2.8,0-5-0.5-6.6-1.4c-1.6-0.9-2.8-2.3-3.4-4
			s-1-4.1-1-7.3V118c0-2.7,0.3-4.8,0.8-6.2c0.6-1.4,1.7-2.6,3.5-3.7s4-1.6,6.6-1.6c2.6,0,4.8,0.5,6.6,1.6c1.8,1.1,3,2.5,3.6,4.1
			C302,113.8,302.3,116.2,302.3,119.2z"/>
		<path class="st1" d="M327.5,118.4v7.9c0,2.9-0.1,5-0.4,6.4s-0.9,2.6-1.9,3.8c-1,1.2-2.2,2-3.7,2.6c-1.5,0.6-3.2,0.8-5.2,0.8
			c-2.2,0-4-0.2-5.5-0.7c-1.5-0.5-2.7-1.2-3.5-2.2c-0.8-1-1.4-2.1-1.8-3.5c-0.4-1.4-0.5-3.4-0.5-6.2v-8.3c0-3,0.3-5.4,1-7
			s1.8-3,3.5-4.1s3.8-1.5,6.5-1.5c2.2,0,4.1,0.3,5.7,1c1.6,0.7,2.8,1.5,3.7,2.6s1.5,2.1,1.8,3.3
			C327.3,114.4,327.5,116.1,327.5,118.4z M317.6,115.9c0-1.7-0.1-2.7-0.3-3.1c-0.2-0.4-0.6-0.6-1.1-0.6c-0.6,0-1,0.2-1.2,0.6
			c-0.2,0.4-0.3,1.5-0.3,3.1v14.6c0,1.5,0.1,2.5,0.3,3s0.6,0.7,1.1,0.7c0.6,0,1-0.2,1.2-0.6s0.3-1.3,0.3-2.7V115.9z"/>
		<path class="st1" d="M340.7,107l-0.2,3c0.7-1.2,1.6-2.1,2.6-2.7c1-0.6,2.2-0.9,3.6-0.9c1.7,0,3.1,0.4,4.1,1.2
			c1.1,0.8,1.8,1.8,2.1,3s0.5,3.2,0.5,6.1v22.7h-9.8V117c0-2.2-0.1-3.6-0.2-4.1s-0.6-0.7-1.2-0.7c-0.7,0-1.1,0.3-1.3,0.8
			c-0.2,0.6-0.3,2.1-0.3,4.5v21.9h-9.8V107L340.7,107L340.7,107z"/>
		<path class="st1" d="M388,99.9v39.4h-9.8V137c-0.9,1-1.9,1.7-3,2.2c-1,0.5-2.1,0.7-3.3,0.7c-1.5,0-2.9-0.4-4-1.2s-1.8-1.7-2.2-2.8
			c-0.3-1.1-0.5-2.8-0.5-5.2v-15.1c0-2.5,0.2-4.2,0.5-5.3c0.3-1,1-2,2.2-2.7c1.1-0.8,2.5-1.2,4.1-1.2c1.2,0,2.3,0.2,3.4,0.7
			c1,0.4,1.9,1.1,2.8,2v-9.2H388z M378.1,115.2c0-1.2-0.1-2-0.3-2.4c-0.2-0.4-0.6-0.6-1.2-0.6c-0.6,0-1,0.2-1.2,0.5
			c-0.2,0.4-0.3,1.2-0.3,2.4V131c0,1.3,0.1,2.2,0.3,2.6c0.2,0.4,0.6,0.6,1.1,0.6c0.6,0,1.1-0.2,1.3-0.7c0.2-0.5,0.3-1.6,0.3-3.4
			L378.1,115.2L378.1,115.2z"/>
		<path class="st1" d="M401.6,99.9v5.1h-10.1v-5.1H401.6z M401.6,107v32.3h-10.1V107H401.6z"/>
		<path class="st1" d="M425.3,117.3h-8.7v-1.8c0-1.5-0.1-2.4-0.3-2.8c-0.2-0.4-0.6-0.6-1.3-0.6c-0.6,0-1,0.2-1.2,0.5
			c-0.3,0.4-0.4,0.9-0.4,1.6c0,1,0.1,1.7,0.2,2.2s0.6,1,1.2,1.5c0.7,0.6,2.1,1.4,4.3,2.4c2.9,1.4,4.7,2.7,5.6,3.9
			c0.9,1.2,1.3,3,1.3,5.4c0,2.6-0.3,4.6-1,6c-0.7,1.3-1.8,2.4-3.4,3.1c-1.6,0.7-3.5,1.1-5.8,1.1c-2.5,0-4.6-0.4-6.4-1.2
			c-1.8-0.8-3-1.8-3.7-3.2c-0.7-1.3-1-3.3-1-6V128h8.7v2c0,1.7,0.1,2.9,0.3,3.4c0.2,0.5,0.7,0.8,1.3,0.8c0.7,0,1.2-0.2,1.5-0.5
			c0.3-0.3,0.4-1.1,0.4-2.2c0-1.5-0.2-2.5-0.5-2.9c-0.4-0.4-2.3-1.5-5.7-3.5c-2.9-1.6-4.7-3.1-5.3-4.4c-0.6-1.3-1-2.9-1-4.7
			c0-2.6,0.3-4.5,1-5.7s1.8-2.2,3.5-2.8s3.5-1,5.7-1c2.1,0,4,0.3,5.5,0.8s2.7,1.3,3.5,2.2c0.8,0.9,1.3,1.7,1.5,2.5
			c0.2,0.8,0.3,2,0.3,3.6L425.3,117.3L425.3,117.3L425.3,117.3z"/>
		<path class="st1" d="M450.4,119.2h-9.3v-3.7c0-1.3-0.1-2.2-0.3-2.6s-0.6-0.7-1.2-0.7c-0.6,0-1,0.2-1.1,0.6
			c-0.2,0.4-0.3,1.3-0.3,2.7v15.2c0,1.2,0.1,2,0.4,2.6c0.3,0.6,0.7,0.9,1.3,0.9c0.7,0,1.1-0.3,1.4-0.9c0.2-0.6,0.4-1.7,0.4-3.4V126
			h8.8c0,2.6-0.1,4.5-0.3,5.8c-0.2,1.3-0.7,2.6-1.6,4c-0.9,1.4-2.1,2.4-3.6,3.1c-1.5,0.7-3.3,1-5.5,1c-2.8,0-5-0.5-6.6-1.4
			s-2.8-2.3-3.4-4s-1-4.1-1-7.3V118c0-2.7,0.3-4.8,0.8-6.2c0.6-1.4,1.7-2.6,3.5-3.7c1.8-1.1,4-1.6,6.6-1.6c2.6,0,4.8,0.5,6.6,1.6
			s3,2.5,3.6,4.1C450.1,113.8,450.4,116.2,450.4,119.2z"/>
		<path class="st1" d="M462.1,119.5h-9.2v-2.2c0-2.5,0.3-4.4,0.9-5.8c0.6-1.4,1.7-2.6,3.5-3.6c1.7-1,4-1.6,6.8-1.6
			c3.3,0,5.8,0.6,7.5,1.8c1.7,1.2,2.7,2.6,3,4.3c0.3,1.7,0.5,5.2,0.5,10.6v16.2h-9.6v-2.9c-0.6,1.2-1.4,2-2.3,2.6
			c-0.9,0.6-2.1,0.9-3.4,0.9c-1.7,0-3.3-0.5-4.7-1.4s-2.2-3.1-2.2-6.3v-2.7c0-2.4,0.4-4.1,1.1-4.9c0.8-0.9,2.7-1.9,5.7-3.1
			c3.2-1.3,5-2.1,5.2-2.6c0.2-0.4,0.3-1.3,0.3-2.7c0-1.7-0.1-2.8-0.4-3.3c-0.3-0.5-0.7-0.8-1.3-0.8c-0.7,0-1.1,0.2-1.2,0.6
			c-0.2,0.4-0.2,1.5-0.2,3.3L462.1,119.5L462.1,119.5z M465.2,124c-1.6,1.2-2.5,2.1-2.7,2.9c-0.3,0.8-0.4,1.9-0.4,3.4
			c0,1.7,0.1,2.8,0.3,3.2c0.2,0.5,0.7,0.7,1.3,0.7c0.6,0,1-0.2,1.2-0.6c0.2-0.4,0.3-1.4,0.3-3V124z"/>
		<path class="st1" d="M488.5,107l-0.2,2.9c0.9-1.2,1.8-2,2.9-2.6c1.1-0.6,2.2-0.9,3.5-0.9c1.5,0,2.8,0.4,4,1.2s1.8,1.8,2.1,2.8
			s0.4,2.9,0.4,5.5v13.6c0,2.9-0.2,5-0.5,6.3c-0.4,1.2-1.1,2.2-2.1,3c-1.1,0.7-2.4,1.1-3.9,1.1c-1.2,0-2.3-0.3-3.4-0.9
			c-1-0.6-2-1.4-2.9-2.5v7.4h-9.8V107L488.5,107L488.5,107z M491.3,116.4c0-2-0.1-3.2-0.2-3.6c-0.1-0.4-0.6-0.6-1.2-0.6
			c-0.6,0-1.1,0.2-1.3,0.7s-0.3,1.7-0.3,3.5v13.4c0,1.9,0.1,3.2,0.3,3.7c0.2,0.5,0.6,0.7,1.3,0.7c0.6,0,1-0.2,1.2-0.7
			c0.2-0.4,0.2-1.5,0.2-3.3L491.3,116.4L491.3,116.4z"/>
		<path class="st1" d="M513.2,119.5h-9.2v-2.2c0-2.5,0.3-4.4,0.9-5.8c0.6-1.4,1.7-2.6,3.5-3.6c1.7-1,4-1.6,6.8-1.6
			c3.3,0,5.8,0.6,7.5,1.8c1.7,1.2,2.7,2.6,3,4.3c0.3,1.7,0.5,5.2,0.5,10.6v16.2h-9.6v-2.9c-0.6,1.2-1.4,2-2.3,2.6
			c-1,0.6-2.1,0.9-3.4,0.9c-1.7,0-3.3-0.5-4.7-1.4c-1.4-1-2.2-3.1-2.2-6.3v-2.7c0-2.4,0.4-4.1,1.1-4.9c0.8-0.9,2.7-1.9,5.7-3.1
			c3.2-1.3,5-2.1,5.2-2.6c0.2-0.4,0.3-1.3,0.3-2.7c0-1.7-0.1-2.8-0.4-3.3c-0.3-0.5-0.7-0.8-1.3-0.8c-0.7,0-1.1,0.2-1.2,0.6
			c-0.2,0.4-0.2,1.5-0.2,3.3L513.2,119.5L513.2,119.5z M516.3,124c-1.6,1.2-2.5,2.1-2.7,2.9s-0.4,1.9-0.4,3.4c0,1.7,0.1,2.8,0.3,3.2
			c0.2,0.5,0.7,0.7,1.3,0.7c0.6,0,1-0.2,1.2-0.6c0.2-0.4,0.3-1.4,0.3-3L516.3,124L516.3,124z"/>
		<path class="st1" d="M551.3,119.2H542v-3.7c0-1.3-0.1-2.2-0.3-2.6s-0.6-0.7-1.2-0.7c-0.6,0-1,0.2-1.1,0.6
			c-0.2,0.4-0.3,1.3-0.3,2.7v15.2c0,1.2,0.1,2,0.4,2.6c0.3,0.6,0.7,0.9,1.3,0.9c0.7,0,1.1-0.3,1.4-0.9c0.2-0.6,0.4-1.7,0.4-3.4V126
			h8.8c0,2.6-0.1,4.5-0.3,5.8c-0.2,1.3-0.7,2.6-1.6,4s-2.1,2.4-3.6,3.1s-3.3,1-5.5,1c-2.8,0-5-0.5-6.6-1.4s-2.8-2.3-3.4-4
			s-1-4.1-1-7.3V118c0-2.7,0.3-4.8,0.8-6.2c0.6-1.4,1.7-2.6,3.5-3.7s4-1.6,6.6-1.6c2.6,0,4.8,0.5,6.6,1.6c1.8,1.1,3,2.5,3.6,4.1
			C551,113.8,551.3,116.2,551.3,119.2z"/>
		<path class="st1" d="M564.3,99.9v5.1h-10.1v-5.1H564.3z M564.3,107v32.3h-10.1V107H564.3z"/>
		<path class="st1" d="M590.2,99.9v39.4h-9.8V137c-0.9,1-1.9,1.7-3,2.2s-2.1,0.7-3.3,0.7c-1.5,0-2.8-0.4-4-1.2
			c-1.1-0.8-1.8-1.7-2.2-2.8c-0.3-1.1-0.5-2.8-0.5-5.2v-15.1c0-2.5,0.2-4.2,0.5-5.3c0.3-1,1-2,2.2-2.7c1.1-0.8,2.5-1.2,4.1-1.2
			c1.2,0,2.3,0.2,3.3,0.7c1,0.4,1.9,1.1,2.8,2v-9.2H590.2z M580.4,115.2c0-1.2-0.1-2-0.3-2.4c-0.2-0.4-0.6-0.6-1.2-0.6
			c-0.6,0-1,0.2-1.2,0.5s-0.3,1.2-0.3,2.4V131c0,1.3,0.1,2.2,0.3,2.6c0.2,0.4,0.6,0.6,1.1,0.6c0.6,0,1.1-0.2,1.3-0.7
			c0.2-0.5,0.3-1.6,0.3-3.4L580.4,115.2L580.4,115.2z"/>
		<path class="st1" d="M602.6,119.5h-9.2v-2.2c0-2.5,0.3-4.4,0.9-5.8c0.6-1.4,1.7-2.6,3.5-3.6c1.7-1,4-1.6,6.8-1.6
			c3.3,0,5.8,0.6,7.5,1.8c1.7,1.2,2.7,2.6,3,4.3c0.3,1.7,0.5,5.2,0.5,10.6v16.2h-9.6v-2.9c-0.6,1.2-1.4,2-2.3,2.6
			c-1,0.6-2.1,0.9-3.4,0.9c-1.7,0-3.3-0.5-4.7-1.4c-1.4-1-2.2-3.1-2.2-6.3v-2.7c0-2.4,0.4-4.1,1.1-4.9c0.8-0.9,2.7-1.9,5.7-3.1
			c3.2-1.3,5-2.1,5.2-2.6c0.2-0.4,0.3-1.3,0.3-2.7c0-1.7-0.1-2.8-0.4-3.3c-0.3-0.5-0.7-0.8-1.3-0.8c-0.7,0-1.1,0.2-1.2,0.6
			c-0.2,0.4-0.2,1.5-0.2,3.3L602.6,119.5L602.6,119.5z M605.7,124c-1.6,1.2-2.5,2.1-2.7,2.9c-0.3,0.8-0.4,1.9-0.4,3.4
			c0,1.7,0.1,2.8,0.3,3.2c0.2,0.5,0.7,0.7,1.3,0.7c0.6,0,1-0.2,1.2-0.6c0.2-0.4,0.3-1.4,0.3-3V124z"/>
		<path class="st1" d="M641.3,99.9v39.4h-9.8V137c-0.9,1-1.9,1.7-3,2.2c-1,0.5-2.1,0.7-3.3,0.7c-1.5,0-2.9-0.4-4-1.2
			c-1.1-0.8-1.8-1.7-2.2-2.8c-0.3-1.1-0.5-2.8-0.5-5.2v-15.1c0-2.5,0.2-4.2,0.5-5.3c0.3-1,1-2,2.2-2.7c1.1-0.8,2.5-1.2,4.1-1.2
			c1.2,0,2.3,0.2,3.4,0.7c1,0.4,1.9,1.1,2.8,2v-9.2H641.3z M631.5,115.2c0-1.2-0.1-2-0.3-2.4c-0.2-0.4-0.6-0.6-1.2-0.6
			c-0.6,0-1,0.2-1.2,0.5c-0.2,0.4-0.3,1.2-0.3,2.4V131c0,1.3,0.1,2.2,0.3,2.6s0.6,0.6,1.1,0.6c0.6,0,1.1-0.2,1.3-0.7
			c0.2-0.5,0.3-1.6,0.3-3.4L631.5,115.2L631.5,115.2z"/>
	</g>
	<g>
		<path class="st2" d="M1252.1,17.6c-5.5-0.3-10.3,3.9-10.6,9.4c-0.3,5.5,3.9,10.3,9.4,10.6c5.5,0.3,10.3-3.9,10.6-9.4
			C1261.8,22.7,1257.6,17.9,1252.1,17.6z M1256.2,31.6c0.3,0.3,0.3,0.8-0.1,1.1c-0.3,0.3-0.8,0.3-1.1-0.1l-3.5-4l-4,3.5
			c-0.3,0.3-0.8,0.3-1.1-0.1c-0.3-0.3-0.3-0.8,0.1-1.1l4-3.5l-3.5-4c-0.3-0.3-0.3-0.8,0.1-1.1c0.3-0.3,0.8-0.3,1.1,0.1l3.5,4l4-3.5
			c0.3-0.3,0.8-0.3,1.1,0.1c0.3,0.3,0.3,0.8-0.1,1.1l-4,3.5L1256.2,31.6z"/>
		<g>
			<path class="st2" d="M1232.7,26.5c0.6-10.4,9.5-18.3,19.9-17.7s18.3,9.5,17.7,19.9s-9.5,18.3-19.9,17.7
				C1240.1,45.8,1232.1,36.9,1232.7,26.5z M1238.5,26.9c-0.4,7.2,5.1,13.3,12.3,13.7c7.2,0.4,13.3-5.1,13.7-12.3
				c0.4-7.2-5.1-13.3-12.3-13.7C1245.1,14.2,1238.9,19.7,1238.5,26.9z"/>
		</g>
	</g>
	
		<image style="overflow:visible;enable-background:new    ;" width="288" height="89" xlink:href="2631480DE43423AB.png"  transform="matrix(1 0 0 1 918.4365 46.4077)">
	</image>
</g>
</svg>
