<?xml version="1.0" encoding="utf-8"?>
<!-- Generator: Adobe Illustrator 16.0.0, SVG Export Plug-In . SVG Version: 6.00 Build 0)  -->
<!DOCTYPE svg PUBLIC "-//W3C//DTD SVG 1.1//EN" "http://www.w3.org/Graphics/SVG/1.1/DTD/svg11.dtd">
<svg version="1.1" id="Capa_1" xmlns="http://www.w3.org/2000/svg" xmlns:xlink="http://www.w3.org/1999/xlink" x="0px" y="0px"
	 width="676.887px" height="328.894px" viewBox="0 0 676.887 328.894" enable-background="new 0 0 676.887 328.894"
	 xml:space="preserve">
<g>
	<g>
		<path fill="#2C5A67" d="M0,0l4.824,328.894l635.064-2.455l26.683-285.675c-2.938,1.357-6.245,2.037-9.704,1.839
			c-11.23-0.643-19.821-10.275-19.178-21.514c0.175-3.051,1.014-5.914,2.366-8.438L0,0z"/>
		<path fill="#2C5A67" d="M658.609,12.247c-5.528-0.316-10.267,3.907-10.582,9.435c-0.316,5.526,3.906,10.262,9.437,10.579
			c5.526,0.315,10.263-3.909,10.577-9.434C668.358,17.3,664.137,12.563,658.609,12.247z M662.676,26.276
			c0.287,0.324,0.26,0.819-0.063,1.109c-0.325,0.287-0.818,0.26-1.106-0.064l-3.531-3.959l-3.96,3.531
			c-0.325,0.288-0.819,0.26-1.108-0.063c-0.282-0.325-0.254-0.819,0.062-1.108l3.958-3.531l-3.528-3.96
			c-0.289-0.324-0.256-0.817,0.07-1.109c0.316-0.279,0.812-0.259,1.103,0.064l3.53,3.959l3.958-3.53
			c0.323-0.28,0.817-0.252,1.109,0.062c0.287,0.326,0.258,0.819-0.064,1.11l-3.959,3.531L662.676,26.276z"/>
		<g>
			<path fill="#2C5A67" d="M639.213,21.177c0.593-10.379,9.521-18.339,19.898-17.746c10.378,0.593,18.34,9.521,17.744,19.899
				c-0.594,10.378-9.52,18.339-19.898,17.746C646.578,40.481,638.618,31.556,639.213,21.177z M645.031,21.51
				c-0.41,7.171,5.09,13.336,12.258,13.746c7.172,0.41,13.338-5.088,13.748-12.259c0.412-7.17-5.088-13.337-12.26-13.747
				C651.607,8.841,645.441,14.34,645.031,21.51z"/>
		</g>
	</g>
	<g>
		<path fill="#A0C219" d="M221.75,23.14h3.328v26.523h6v2.285h-9.328V23.14z"/>
		<path fill="#A0C219" d="M238.571,23.14h4.874l5.58,28.809h-3.589L244.1,43.94h-6.34l-1.441,8.008h-3.512L238.571,23.14z
			 M240.877,25.269l-2.803,16.562h5.58l-2.62-16.562H240.877z"/>
		<path fill="#A0C219" d="M272.764,29.019V46.07c0,2.475-0.445,4.154-1.336,5.039c-0.891,0.886-2.48,1.328-4.769,1.328
			c-2.253,0-3.825-0.449-4.716-1.348c-0.892-0.898-1.337-2.571-1.337-5.02v-17.05c0-2.422,0.45-4.078,1.35-4.971
			c0.899-0.892,2.484-1.338,4.755-1.338s3.848,0.443,4.73,1.328C272.322,24.924,272.764,26.584,272.764,29.019z M269.279,28.628
			c0-1.458-0.192-2.457-0.576-2.998c-0.385-0.54-1.066-0.811-2.044-0.811c-0.961,0-1.629,0.264-2.005,0.791
			c-0.375,0.527-0.562,1.533-0.562,3.018V46.46c0,1.498,0.191,2.507,0.576,3.027c0.384,0.521,1.065,0.781,2.043,0.781
			c0.961,0,1.629-0.26,2.005-0.781s0.563-1.529,0.563-3.027V28.628L269.279,28.628z"/>
		<path fill="#A0C219" d="M278.633,23.14h5.791l3.746,26.523h0.262l3.669-26.523h5.633v28.809h-2.908V25.308h-0.524l-3.772,26.641
			h-4.664l-3.903-26.641h-0.445v26.641h-2.883V23.14H278.633z"/>
		<path fill="#A0C219" d="M313.821,27.71v2.754h-3.485v-2.676c0-1.133-0.156-1.91-0.471-2.334c-0.314-0.423-0.874-0.635-1.678-0.635
			c-0.769,0-1.31,0.238-1.624,0.713c-0.314,0.476-0.472,1.318-0.472,2.529v1.406c0,0.586,0.109,1.188,0.328,1.807
			c0.218,0.619,0.537,1.201,0.956,1.748l4.349,5.723c0.734,0.964,1.267,1.872,1.599,2.725c0.332,0.854,0.498,1.735,0.498,2.646
			v1.953c0,2.5-0.424,4.187-1.271,5.059c-0.848,0.873-2.354,1.309-4.52,1.309c-2.114,0-3.586-0.352-4.415-1.055
			c-0.83-0.703-1.245-2.031-1.245-3.984v-3.203h3.512V47.3c0,1.172,0.156,1.967,0.471,2.383c0.314,0.417,0.892,0.625,1.729,0.625
			c0.856,0,1.445-0.237,1.769-0.713c0.323-0.475,0.484-1.52,0.484-3.135v-1.992c0-0.742-0.091-1.416-0.274-2.021
			c-0.183-0.605-0.45-1.155-0.8-1.65l-4.611-6.133c-0.646-0.82-1.139-1.602-1.48-2.344c-0.34-0.742-0.51-1.387-0.51-1.934v-1.68
			c0-2.239,0.414-3.799,1.244-4.678c0.829-0.879,2.258-1.318,4.283-1.318c2.131,0,3.604,0.346,4.416,1.035
			C313.415,24.436,313.821,25.757,313.821,27.71z"/>
		<path fill="#A0C219" d="M326.686,23.14h5.084c2.619,0,4.393,0.273,5.318,0.82c0.925,0.547,1.389,1.53,1.389,2.949v6.523
			c0,1.198-0.306,2.045-0.917,2.539c-0.612,0.495-1.694,0.795-3.249,0.898c1.659,0.078,2.812,0.365,3.459,0.859
			c0.646,0.495,0.969,1.354,0.969,2.578v11.641h-3.537v-10.76c0-1.354-0.258-2.232-0.772-2.637
			c-0.516-0.403-1.577-0.605-3.184-0.605h-1.231v14.004h-3.328L326.686,23.14L326.686,23.14z M330.014,25.269v10.527h1.179
			c1.52,0,2.532-0.198,3.04-0.596c0.506-0.396,0.76-1.279,0.76-2.646V28.55c0-1.38-0.254-2.271-0.76-2.676
			c-0.508-0.403-1.521-0.605-3.04-0.605H330.014z"/>
		<path fill="#A0C219" d="M344.555,23.14h9.223v2.285h-5.895v10.371h5.633v2.266h-5.633v11.602h6.053v2.285h-9.381V23.14z"/>
		<path fill="#A0C219" d="M369.787,27.71v2.754h-3.512v-2.676c0-1.119-0.162-1.895-0.484-2.324
			c-0.323-0.429-0.896-0.645-1.716-0.645c-0.751,0-1.275,0.244-1.572,0.732c-0.298,0.488-0.444,1.514-0.444,3.076V46.46
			c0,1.602,0.156,2.644,0.471,3.125c0.314,0.482,0.892,0.723,1.729,0.723c0.718,0,1.232-0.228,1.548-0.684
			c0.313-0.455,0.471-1.23,0.471-2.324v-3.105h3.512v3.203c0,1.967-0.411,3.298-1.23,3.994c-0.822,0.697-2.289,1.045-4.402,1.045
			c-2.079,0-3.528-0.449-4.35-1.348c-0.822-0.898-1.231-2.571-1.231-5.02v-17.05c0-2.435,0.409-4.095,1.231-4.98
			c0.82-0.885,2.271-1.328,4.35-1.328c2.131,0,3.603,0.346,4.414,1.035C369.381,24.436,369.787,25.757,369.787,27.71z"/>
		<path fill="#A0C219" d="M386.137,29.019V46.07c0,2.475-0.445,4.154-1.337,5.039c-0.891,0.886-2.479,1.328-4.769,1.328
			c-2.254,0-3.825-0.449-4.717-1.348c-0.892-0.898-1.336-2.571-1.336-5.02v-17.05c0-2.422,0.449-4.078,1.35-4.971
			c0.898-0.892,2.484-1.338,4.756-1.338s3.848,0.443,4.729,1.328C385.695,24.924,386.137,26.584,386.137,29.019z M382.65,28.628
			c0-1.458-0.191-2.457-0.575-2.998c-0.386-0.54-1.065-0.811-2.044-0.811c-0.961,0-1.629,0.264-2.004,0.791
			c-0.377,0.527-0.563,1.533-0.563,3.018V46.46c0,1.498,0.192,2.507,0.576,3.027c0.384,0.521,1.065,0.781,2.044,0.781
			c0.96,0,1.629-0.26,2.004-0.781c0.376-0.521,0.562-1.529,0.562-3.027V28.628z"/>
		<path fill="#A0C219" d="M392.006,23.14h5.79l3.747,26.523h0.262l3.668-26.523h5.634v28.809h-2.908V25.308h-0.523l-3.774,26.64
			h-4.664l-3.903-26.641h-0.444v26.641h-2.883V23.14L392.006,23.14z"/>
		<path fill="#A0C219" d="M417.106,23.14h3.536v28.809h-3.536V23.14z"/>
		<path fill="#A0C219" d="M426.539,23.14h9.223v2.285h-5.896v10.371h5.633v2.266h-5.633v11.602h6.052v2.285h-9.379V23.14z"/>
		<path fill="#A0C219" d="M440.713,23.14h4.561l5.527,27.09h0.054l-0.498-27.09h3.013v28.809h-4.611l-5.476-26.719h-0.105
			l0.474,26.719h-2.937L440.713,23.14L440.713,23.14z"/>
		<path fill="#A0C219" d="M459.342,23.14h3.904c3.302,0,5.459,0.388,6.472,1.162c1.014,0.775,1.521,2.549,1.521,5.322v15.84
			c0,2.761-0.516,4.531-1.546,5.312c-1.03,0.781-3.18,1.172-6.445,1.172h-3.904L459.342,23.14L459.342,23.14z M462.67,25.269V49.82
			h1.074c1.605,0,2.668-0.198,3.184-0.596c0.516-0.396,0.772-1.272,0.772-2.627V28.55c0-1.367-0.262-2.256-0.786-2.666
			c-0.523-0.41-1.581-0.615-3.17-0.615H462.67z"/>
		<path fill="#A0C219" d="M480.382,23.14h4.873l5.581,28.809h-3.59l-1.336-8.008h-6.341l-1.44,8.008h-3.512L480.382,23.14z
			 M482.688,25.269l-2.804,16.562h5.581l-2.62-16.562H482.688z"/>
	</g>
	<g opacity="0.5">
		<g>
			<path fill="#FFFFFF" d="M225.969,315.753c-0.582-0.734-1.074-1.594-1.477-2.578c-0.403-0.984-0.604-2.004-0.604-3.059
				c0-0.932,0.15-1.82,0.451-2.672c0.352-0.988,0.895-1.974,1.629-2.953h0.756c-0.473,0.812-0.785,1.393-0.938,1.74
				c-0.238,0.537-0.426,1.102-0.562,1.688c-0.168,0.73-0.252,1.465-0.252,2.203c0,1.879,0.584,3.756,1.752,5.631H225.969z"/>
			<path fill="#FFFFFF" d="M228.277,313.228v-8.59h1.137v8.59H228.277z"/>
			<path fill="#FFFFFF" d="M231.283,313.228v-6.223h0.949v0.885c0.457-0.684,1.117-1.025,1.98-1.025c0.375,0,0.72,0.066,1.034,0.203
				c0.314,0.135,0.55,0.311,0.706,0.529c0.156,0.219,0.266,0.479,0.328,0.779c0.039,0.195,0.059,0.537,0.059,1.025v3.824h-1.055
				v-3.783c0-0.432-0.041-0.752-0.123-0.965s-0.228-0.383-0.437-0.51s-0.454-0.189-0.735-0.189c-0.449,0-0.837,0.143-1.163,0.428
				c-0.326,0.285-0.489,0.826-0.489,1.623v3.396h-1.054V313.228z"/>
			<path fill="#FFFFFF" d="M238.209,313.228v-5.402h-0.932v-0.82h0.932v-0.662c0-0.418,0.037-0.729,0.111-0.932
				c0.102-0.272,0.28-0.494,0.536-0.664s0.614-0.256,1.075-0.256c0.297,0,0.625,0.035,0.984,0.105l-0.158,0.92
				c-0.219-0.039-0.426-0.059-0.621-0.059c-0.32,0-0.547,0.067-0.68,0.205c-0.133,0.137-0.199,0.393-0.199,0.768v0.574h1.213v0.82
				h-1.213v5.4h-1.048V313.228z"/>
			<path fill="#FFFFFF" d="M240.898,310.117c0-1.152,0.32-2.006,0.961-2.561c0.535-0.461,1.188-0.691,1.957-0.691
				c0.855,0,1.555,0.279,2.098,0.842c0.543,0.561,0.814,1.334,0.814,2.322c0,0.801-0.12,1.432-0.36,1.891
				c-0.24,0.459-0.59,0.814-1.049,1.068s-0.96,0.381-1.503,0.381c-0.871,0-1.575-0.279-2.112-0.838S240.898,311.167,240.898,310.117
				z M241.982,310.117c0,0.797,0.174,1.395,0.521,1.791c0.347,0.395,0.785,0.594,1.312,0.594c0.523,0,0.959-0.199,1.307-0.598
				s0.521-1.006,0.521-1.822c0-0.77-0.175-1.352-0.524-1.748c-0.349-0.396-0.784-0.596-1.304-0.596
				c-0.527,0-0.965,0.197-1.312,0.592S241.982,309.32,241.982,310.117z"/>
			<path fill="#FFFFFF" d="M247.953,313.228v-6.223h0.949v0.943c0.242-0.441,0.466-0.732,0.671-0.873
				c0.205-0.143,0.431-0.211,0.677-0.211c0.355,0,0.717,0.111,1.084,0.34l-0.363,0.979c-0.258-0.152-0.516-0.229-0.773-0.229
				c-0.23,0-0.438,0.068-0.621,0.207c-0.183,0.139-0.314,0.332-0.393,0.578c-0.117,0.375-0.176,0.785-0.176,1.229v3.258h-1.055
				V313.228z"/>
			<path fill="#FFFFFF" d="M251.961,313.228v-6.223h0.943v0.873c0.195-0.305,0.455-0.551,0.779-0.736
				c0.324-0.184,0.693-0.277,1.107-0.277c0.461,0,0.839,0.096,1.134,0.287s0.503,0.459,0.624,0.803
				c0.492-0.727,1.133-1.09,1.922-1.09c0.617,0,1.092,0.172,1.424,0.514s0.498,0.867,0.498,1.578v4.271h-1.049v-3.92
				c0-0.422-0.034-0.727-0.103-0.912c-0.069-0.184-0.192-0.334-0.372-0.447c-0.18-0.113-0.391-0.17-0.633-0.17
				c-0.438,0-0.801,0.146-1.09,0.438s-0.434,0.756-0.434,1.396v3.615h-1.055v-4.043c0-0.469-0.086-0.82-0.258-1.055
				c-0.172-0.236-0.453-0.352-0.844-0.352c-0.297,0-0.571,0.078-0.823,0.232c-0.252,0.156-0.435,0.387-0.548,0.688
				c-0.113,0.301-0.17,0.732-0.17,1.301v3.229H251.961z"/>
			<path fill="#FFFFFF" d="M266.217,311.224l1.09,0.135c-0.172,0.637-0.49,1.131-0.955,1.482s-1.059,0.527-1.781,0.527
				c-0.91,0-1.632-0.281-2.165-0.842c-0.533-0.561-0.8-1.348-0.8-2.357c0-1.047,0.27-1.859,0.809-2.438
				c0.539-0.58,1.238-0.867,2.098-0.867c0.832,0,1.512,0.283,2.039,0.85c0.527,0.566,0.791,1.363,0.791,2.391
				c0,0.062-0.002,0.156-0.006,0.281h-4.641c0.039,0.684,0.232,1.207,0.58,1.57s0.781,0.545,1.301,0.545
				c0.387,0,0.717-0.102,0.99-0.305S266.057,311.669,266.217,311.224z M262.754,309.519h3.475c-0.047-0.523-0.18-0.916-0.398-1.178
				c-0.336-0.406-0.771-0.609-1.307-0.609c-0.484,0-0.892,0.162-1.222,0.486C262.972,308.542,262.789,308.976,262.754,309.519z"/>
			<path fill="#FFFFFF" d="M272.064,313.228v-8.59h1.711l2.033,6.082c0.188,0.566,0.324,0.99,0.41,1.271
				c0.098-0.312,0.25-0.771,0.457-1.377l2.057-5.978h1.529v8.589h-1.096v-7.188l-2.496,7.188h-1.025l-2.484-7.311v7.311h-1.096
				V313.228z"/>
			<path fill="#FFFFFF" d="M286.039,313.228v-0.914c-0.484,0.703-1.143,1.055-1.975,1.055c-0.367,0-0.71-0.07-1.028-0.211
				c-0.318-0.141-0.555-0.316-0.709-0.529c-0.154-0.213-0.263-0.475-0.325-0.783c-0.043-0.207-0.064-0.535-0.064-0.982v-3.855h1.055
				v3.451c0,0.551,0.021,0.922,0.064,1.113c0.066,0.275,0.207,0.494,0.422,0.652s0.48,0.236,0.797,0.236s0.613-0.08,0.891-0.242
				s0.474-0.383,0.589-0.662c0.115-0.279,0.173-0.686,0.173-1.217v-3.334h1.055v6.223H286.039L286.039,313.228z"/>
			<path fill="#FFFFFF" d="M288.635,313.228v-6.223h0.949v0.885c0.457-0.684,1.117-1.025,1.98-1.025c0.375,0,0.72,0.066,1.034,0.203
				c0.314,0.135,0.55,0.311,0.706,0.529c0.156,0.219,0.266,0.479,0.328,0.779c0.039,0.195,0.059,0.537,0.059,1.025v3.824h-1.055
				v-3.783c0-0.432-0.041-0.752-0.123-0.965s-0.228-0.383-0.437-0.51s-0.454-0.189-0.735-0.189c-0.449,0-0.837,0.143-1.163,0.428
				c-0.326,0.285-0.489,0.826-0.489,1.623v3.396h-1.054V313.228z"/>
			<path fill="#FFFFFF" d="M299.346,313.228v-0.785c-0.395,0.617-0.975,0.926-1.74,0.926c-0.496,0-0.952-0.137-1.368-0.41
				s-0.738-0.654-0.967-1.146c-0.229-0.49-0.343-1.053-0.343-1.689c0-0.621,0.104-1.186,0.311-1.689
				c0.207-0.506,0.518-0.895,0.932-1.164c0.414-0.268,0.877-0.402,1.389-0.402c0.375,0,0.709,0.078,1.002,0.236
				s0.531,0.363,0.715,0.617v-3.081h1.049v8.589H299.346L299.346,313.228z M296.012,310.123c0,0.797,0.168,1.393,0.504,1.787
				s0.732,0.592,1.189,0.592c0.461,0,0.853-0.188,1.175-0.564c0.322-0.377,0.483-0.951,0.483-1.727c0-0.852-0.164-1.477-0.492-1.875
				s-0.732-0.598-1.213-0.598c-0.469,0-0.86,0.191-1.175,0.574S296.012,309.298,296.012,310.123z"/>
			<path fill="#FFFFFF" d="M301.988,305.851v-1.213h1.055v1.213H301.988z M301.988,313.228v-6.223h1.055v6.223H301.988z"/>
			<path fill="#FFFFFF" d="M308.709,312.46c-0.391,0.332-0.767,0.566-1.128,0.703s-0.749,0.205-1.163,0.205
				c-0.684,0-1.209-0.168-1.576-0.502c-0.367-0.334-0.551-0.76-0.551-1.279c0-0.305,0.069-0.584,0.208-0.836s0.32-0.453,0.545-0.605
				s0.478-0.268,0.759-0.346c0.207-0.055,0.52-0.107,0.938-0.158c0.852-0.102,1.479-0.223,1.881-0.363
				c0.004-0.145,0.006-0.236,0.006-0.275c0-0.43-0.1-0.73-0.299-0.908c-0.27-0.236-0.67-0.355-1.201-0.355
				c-0.496,0-0.862,0.086-1.099,0.26c-0.237,0.174-0.411,0.482-0.524,0.924l-1.031-0.141c0.094-0.441,0.248-0.799,0.463-1.07
				c0.215-0.27,0.525-0.479,0.932-0.627c0.407-0.146,0.877-0.219,1.412-0.219c0.531,0,0.963,0.061,1.295,0.188
				c0.332,0.125,0.576,0.281,0.732,0.473c0.156,0.189,0.266,0.428,0.328,0.717c0.035,0.18,0.053,0.504,0.053,0.973v1.406
				c0,0.98,0.022,1.602,0.067,1.861c0.045,0.258,0.134,0.508,0.267,0.746h-1.102C308.811,313.009,308.74,312.753,308.709,312.46z
				 M308.621,310.105c-0.383,0.156-0.957,0.289-1.723,0.398c-0.434,0.062-0.74,0.133-0.92,0.211s-0.318,0.191-0.416,0.342
				c-0.098,0.152-0.146,0.318-0.146,0.502c0,0.281,0.106,0.516,0.319,0.703c0.213,0.188,0.524,0.281,0.935,0.281
				c0.406,0,0.768-0.09,1.084-0.268s0.549-0.42,0.697-0.729c0.113-0.238,0.17-0.59,0.17-1.055V310.105L308.621,310.105z"/>
			<path fill="#FFFFFF" d="M311.299,313.228v-8.59h1.055v8.59H311.299z"/>
			<path fill="#FFFFFF" d="M321.359,313.228v-0.785c-0.395,0.617-0.975,0.926-1.74,0.926c-0.496,0-0.952-0.137-1.368-0.41
				s-0.738-0.654-0.967-1.146c-0.229-0.49-0.343-1.053-0.343-1.689c0-0.621,0.104-1.186,0.311-1.689
				c0.207-0.506,0.518-0.895,0.932-1.164c0.414-0.268,0.877-0.402,1.389-0.402c0.375,0,0.709,0.078,1.002,0.236
				s0.531,0.363,0.715,0.617v-3.081h1.049v8.589H321.359L321.359,313.228z M318.025,310.123c0,0.797,0.168,1.393,0.504,1.787
				c0.336,0.395,0.732,0.592,1.189,0.592c0.461,0,0.853-0.188,1.175-0.564c0.322-0.377,0.483-0.951,0.483-1.727
				c0-0.852-0.164-1.477-0.492-1.875c-0.328-0.398-0.732-0.598-1.213-0.598c-0.469,0-0.86,0.191-1.175,0.574
				S318.025,309.298,318.025,310.123z"/>
			<path fill="#FFFFFF" d="M328.256,311.224l1.09,0.135c-0.172,0.637-0.49,1.131-0.955,1.482c-0.465,0.352-1.059,0.527-1.781,0.527
				c-0.91,0-1.632-0.281-2.165-0.842c-0.533-0.561-0.8-1.348-0.8-2.357c0-1.047,0.27-1.859,0.809-2.438
				c0.539-0.58,1.238-0.867,2.098-0.867c0.832,0,1.512,0.283,2.039,0.85c0.527,0.566,0.791,1.363,0.791,2.391
				c0,0.062-0.002,0.156-0.006,0.281h-4.641c0.039,0.684,0.232,1.207,0.58,1.57s0.781,0.545,1.301,0.545
				c0.387,0,0.717-0.102,0.99-0.305S328.096,311.669,328.256,311.224z M324.793,309.519h3.475c-0.047-0.523-0.18-0.916-0.398-1.178
				c-0.336-0.406-0.771-0.609-1.307-0.609c-0.484,0-0.892,0.162-1.222,0.486C325.011,308.542,324.828,308.976,324.793,309.519z"/>
			<path fill="#FFFFFF" d="M334.139,313.228v-8.59h2.959c0.668,0,1.178,0.041,1.529,0.123c0.492,0.113,0.912,0.318,1.26,0.615
				c0.453,0.383,0.793,0.871,1.018,1.467s0.337,1.277,0.337,2.043c0,0.652-0.076,1.23-0.229,1.734
				c-0.152,0.504-0.348,0.92-0.586,1.25s-0.498,0.59-0.781,0.779s-0.625,0.334-1.025,0.432c-0.4,0.098-0.86,0.145-1.38,0.145h-3.1
				V313.228z M335.275,312.214h1.834c0.566,0,1.011-0.053,1.333-0.158c0.322-0.105,0.58-0.254,0.771-0.445
				c0.27-0.27,0.479-0.633,0.63-1.086c0.151-0.455,0.226-1.008,0.226-1.656c0-0.898-0.146-1.588-0.441-2.07
				s-0.652-0.807-1.075-0.971c-0.305-0.117-0.795-0.176-1.471-0.176h-1.805L335.275,312.214L335.275,312.214z"/>
			<path fill="#FFFFFF" d="M342.676,305.851v-1.213h1.055v1.213H342.676z M342.676,313.228v-6.223h1.055v6.223H342.676z"/>
			<path fill="#FFFFFF" d="M344.914,311.371l1.043-0.164c0.059,0.418,0.223,0.738,0.488,0.961c0.268,0.223,0.643,0.334,1.123,0.334
				c0.484,0,0.844-0.098,1.078-0.295c0.233-0.197,0.352-0.43,0.352-0.695c0-0.236-0.104-0.426-0.311-0.561
				c-0.146-0.094-0.504-0.213-1.078-0.357c-0.773-0.195-1.311-0.365-1.608-0.508s-0.524-0.34-0.681-0.592
				c-0.154-0.252-0.23-0.529-0.23-0.834c0-0.277,0.062-0.535,0.19-0.771c0.127-0.236,0.3-0.434,0.519-0.59
				c0.164-0.121,0.389-0.223,0.672-0.307c0.282-0.084,0.586-0.127,0.91-0.127c0.488,0,0.917,0.07,1.286,0.211
				s0.642,0.332,0.817,0.572c0.175,0.238,0.297,0.561,0.363,0.963l-1.031,0.141c-0.047-0.32-0.184-0.57-0.407-0.75
				s-0.542-0.27-0.952-0.27c-0.484,0-0.83,0.08-1.037,0.24s-0.311,0.348-0.311,0.562c0,0.137,0.043,0.26,0.129,0.369
				c0.086,0.111,0.221,0.207,0.404,0.279c0.104,0.039,0.416,0.131,0.932,0.271c0.746,0.199,1.267,0.361,1.562,0.488
				c0.295,0.127,0.525,0.312,0.693,0.555s0.252,0.543,0.252,0.902c0,0.352-0.104,0.682-0.309,0.992s-0.5,0.551-0.887,0.721
				c-0.388,0.17-0.824,0.256-1.312,0.256c-0.809,0-1.426-0.168-1.85-0.504S345.031,312.031,344.914,311.371z"/>
			<path fill="#FFFFFF" d="M355.396,310.949l1.037,0.135c-0.113,0.715-0.404,1.275-0.871,1.68s-1.039,0.605-1.72,0.605
				c-0.852,0-1.536-0.277-2.054-0.834c-0.518-0.559-0.775-1.355-0.775-2.395c0-0.672,0.11-1.26,0.334-1.764
				c0.223-0.504,0.562-0.883,1.017-1.135c0.454-0.252,0.95-0.377,1.485-0.377c0.676,0,1.229,0.17,1.657,0.512
				s0.705,0.828,0.826,1.457l-1.024,0.158c-0.099-0.418-0.271-0.732-0.52-0.943s-0.548-0.316-0.898-0.316
				c-0.531,0-0.964,0.189-1.296,0.57c-0.331,0.381-0.497,0.984-0.497,1.809c0,0.836,0.159,1.443,0.479,1.822
				c0.319,0.379,0.737,0.568,1.254,0.568c0.414,0,0.76-0.127,1.037-0.381C355.145,311.867,355.322,311.476,355.396,310.949z"/>
			<path fill="#FFFFFF" d="M361.396,312.46c-0.392,0.332-0.768,0.566-1.129,0.703c-0.36,0.137-0.748,0.205-1.162,0.205
				c-0.685,0-1.209-0.168-1.576-0.502s-0.551-0.76-0.551-1.279c0-0.305,0.068-0.584,0.207-0.836c0.14-0.252,0.32-0.453,0.545-0.605
				c0.226-0.152,0.479-0.268,0.76-0.346c0.207-0.055,0.52-0.107,0.938-0.158c0.853-0.102,1.479-0.223,1.881-0.363
				c0.004-0.145,0.006-0.236,0.006-0.275c0-0.43-0.1-0.73-0.299-0.908c-0.27-0.236-0.67-0.355-1.201-0.355
				c-0.496,0-0.861,0.086-1.099,0.26s-0.411,0.482-0.524,0.924l-1.03-0.141c0.094-0.441,0.248-0.799,0.463-1.07
				c0.215-0.27,0.524-0.479,0.933-0.627c0.406-0.146,0.877-0.219,1.412-0.219c0.53,0,0.963,0.061,1.295,0.188
				c0.332,0.125,0.575,0.281,0.731,0.473c0.155,0.189,0.267,0.428,0.328,0.717c0.034,0.18,0.053,0.504,0.053,0.973v1.406
				c0,0.98,0.022,1.602,0.067,1.861c0.045,0.258,0.134,0.508,0.267,0.746h-1.103C361.498,313.009,361.428,312.753,361.396,312.46z
				 M361.309,310.105c-0.383,0.156-0.957,0.289-1.723,0.398c-0.434,0.062-0.74,0.133-0.92,0.211s-0.318,0.191-0.416,0.342
				c-0.098,0.152-0.146,0.318-0.146,0.502c0,0.281,0.106,0.516,0.319,0.703c0.214,0.188,0.524,0.281,0.935,0.281
				c0.406,0,0.769-0.09,1.084-0.268c0.316-0.178,0.55-0.42,0.697-0.729c0.113-0.238,0.17-0.59,0.17-1.055V310.105L361.309,310.105z"
				/>
			<path fill="#FFFFFF" d="M364.01,315.613v-8.607h0.961v0.811c0.228-0.316,0.482-0.555,0.769-0.713s0.631-0.236,1.036-0.236
				c0.531,0,1,0.137,1.406,0.41c0.406,0.271,0.713,0.658,0.92,1.156s0.312,1.043,0.312,1.639c0,0.637-0.114,1.209-0.343,1.719
				c-0.229,0.51-0.562,0.9-0.996,1.172c-0.436,0.273-0.895,0.408-1.374,0.408c-0.353,0-0.667-0.074-0.946-0.223
				c-0.279-0.15-0.509-0.338-0.688-0.562v3.029h-1.057V315.613z M364.965,310.152c0,0.801,0.162,1.393,0.486,1.775
				c0.324,0.381,0.717,0.574,1.178,0.574c0.469,0,0.87-0.199,1.204-0.596s0.501-1.012,0.501-1.842c0-0.795-0.163-1.389-0.488-1.781
				c-0.326-0.395-0.717-0.592-1.17-0.592c-0.449,0-0.847,0.209-1.191,0.629C365.139,308.74,364.965,309.351,364.965,310.152z"/>
			<path fill="#FFFFFF" d="M374.744,312.46c-0.391,0.332-0.768,0.566-1.128,0.703c-0.361,0.137-0.749,0.205-1.163,0.205
				c-0.684,0-1.209-0.168-1.576-0.502s-0.551-0.76-0.551-1.279c0-0.305,0.068-0.584,0.208-0.836
				c0.139-0.252,0.319-0.453,0.545-0.605s0.478-0.268,0.759-0.346c0.207-0.055,0.52-0.107,0.938-0.158
				c0.853-0.102,1.479-0.223,1.882-0.363c0.004-0.145,0.006-0.236,0.006-0.275c0-0.43-0.101-0.73-0.299-0.908
				c-0.271-0.236-0.671-0.355-1.201-0.355c-0.496,0-0.862,0.086-1.099,0.26c-0.237,0.174-0.412,0.482-0.524,0.924l-1.03-0.141
				c0.094-0.441,0.247-0.799,0.463-1.07c0.215-0.27,0.524-0.479,0.932-0.627c0.406-0.146,0.877-0.219,1.412-0.219
				c0.531,0,0.963,0.061,1.295,0.188c0.332,0.125,0.576,0.281,0.732,0.473c0.155,0.189,0.266,0.428,0.327,0.717
				c0.035,0.18,0.054,0.504,0.054,0.973v1.406c0,0.98,0.021,1.602,0.066,1.861c0.045,0.258,0.135,0.508,0.268,0.746h-1.103
				C374.846,313.009,374.775,312.753,374.744,312.46z M374.656,310.105c-0.383,0.156-0.957,0.289-1.723,0.398
				c-0.435,0.062-0.74,0.133-0.92,0.211c-0.181,0.078-0.318,0.191-0.416,0.342c-0.099,0.152-0.146,0.318-0.146,0.502
				c0,0.281,0.105,0.516,0.318,0.703s0.524,0.281,0.936,0.281c0.406,0,0.768-0.09,1.084-0.268s0.549-0.42,0.697-0.729
				c0.113-0.238,0.17-0.59,0.17-1.055V310.105L374.656,310.105z"/>
			<path fill="#FFFFFF" d="M381.418,310.949l1.037,0.135c-0.113,0.715-0.403,1.275-0.87,1.68s-1.04,0.605-1.72,0.605
				c-0.852,0-1.536-0.277-2.055-0.834c-0.518-0.559-0.775-1.355-0.775-2.395c0-0.672,0.111-1.26,0.334-1.764
				s0.562-0.883,1.018-1.135c0.454-0.252,0.949-0.377,1.484-0.377c0.676,0,1.229,0.17,1.658,0.512
				c0.429,0.342,0.705,0.828,0.826,1.457l-1.025,0.158c-0.098-0.418-0.271-0.732-0.52-0.943s-0.547-0.316-0.898-0.316
				c-0.531,0-0.963,0.189-1.295,0.57s-0.498,0.984-0.498,1.809c0,0.836,0.16,1.443,0.48,1.822c0.319,0.379,0.737,0.568,1.254,0.568
				c0.414,0,0.76-0.127,1.037-0.381C381.167,311.867,381.344,311.476,381.418,310.949z"/>
			<path fill="#FFFFFF" d="M383.363,305.851v-1.213h1.055v1.213H383.363z M383.363,313.228v-6.223h1.055v6.223H383.363z"/>
			<path fill="#FFFFFF" d="M390.061,313.228v-0.785c-0.395,0.617-0.975,0.926-1.74,0.926c-0.495,0-0.951-0.137-1.367-0.41
				s-0.738-0.654-0.967-1.146c-0.229-0.49-0.344-1.053-0.344-1.689c0-0.621,0.104-1.186,0.312-1.689
				c0.207-0.506,0.519-0.895,0.933-1.164c0.413-0.268,0.877-0.402,1.389-0.402c0.375,0,0.709,0.078,1.002,0.236
				s0.531,0.363,0.715,0.617v-3.081h1.049v8.589H390.061L390.061,313.228z M386.727,310.123c0,0.797,0.168,1.393,0.504,1.787
				s0.732,0.592,1.189,0.592c0.461,0,0.854-0.188,1.175-0.564c0.322-0.377,0.483-0.951,0.483-1.727c0-0.852-0.164-1.477-0.492-1.875
				s-0.732-0.598-1.213-0.598c-0.469,0-0.859,0.191-1.176,0.574C386.883,308.695,386.727,309.298,386.727,310.123z"/>
			<path fill="#FFFFFF" d="M396.758,312.46c-0.391,0.332-0.767,0.566-1.128,0.703c-0.36,0.137-0.749,0.205-1.163,0.205
				c-0.684,0-1.209-0.168-1.576-0.502s-0.551-0.76-0.551-1.279c0-0.305,0.069-0.584,0.208-0.836c0.14-0.252,0.32-0.453,0.546-0.605
				c0.225-0.152,0.478-0.268,0.758-0.346c0.207-0.055,0.521-0.107,0.938-0.158c0.853-0.102,1.479-0.223,1.881-0.363
				c0.004-0.145,0.006-0.236,0.006-0.275c0-0.43-0.1-0.73-0.299-0.908c-0.27-0.236-0.67-0.355-1.2-0.355
				c-0.496,0-0.863,0.086-1.1,0.26c-0.237,0.174-0.411,0.482-0.523,0.924l-1.031-0.141c0.094-0.441,0.248-0.799,0.463-1.07
				c0.215-0.27,0.525-0.479,0.932-0.627c0.407-0.146,0.877-0.219,1.412-0.219c0.531,0,0.963,0.061,1.295,0.188
				c0.332,0.125,0.576,0.281,0.732,0.473c0.155,0.189,0.266,0.428,0.328,0.717c0.034,0.18,0.053,0.504,0.053,0.973v1.406
				c0,0.98,0.021,1.602,0.066,1.861c0.045,0.258,0.135,0.508,0.268,0.746h-1.103C396.859,313.009,396.789,312.753,396.758,312.46z
				 M396.67,310.105c-0.383,0.156-0.957,0.289-1.723,0.398c-0.434,0.062-0.74,0.133-0.92,0.211s-0.318,0.191-0.416,0.342
				c-0.098,0.152-0.146,0.318-0.146,0.502c0,0.281,0.105,0.516,0.319,0.703c0.213,0.188,0.524,0.281,0.935,0.281
				c0.406,0,0.768-0.09,1.084-0.268s0.549-0.42,0.697-0.729c0.113-0.238,0.17-0.59,0.17-1.055V310.105L396.67,310.105z"/>
			<path fill="#FFFFFF" d="M403.408,313.228v-0.785c-0.396,0.617-0.976,0.926-1.74,0.926c-0.496,0-0.952-0.137-1.368-0.41
				s-0.738-0.654-0.967-1.146c-0.229-0.49-0.343-1.053-0.343-1.689c0-0.621,0.104-1.186,0.311-1.689
				c0.207-0.506,0.519-0.895,0.933-1.164c0.414-0.268,0.877-0.402,1.389-0.402c0.375,0,0.709,0.078,1.002,0.236
				s0.531,0.363,0.715,0.617v-3.081h1.049v8.589H403.408L403.408,313.228z M400.074,310.123c0,0.797,0.168,1.393,0.504,1.787
				s0.731,0.592,1.188,0.592c0.461,0,0.854-0.188,1.176-0.564c0.321-0.377,0.482-0.951,0.482-1.727c0-0.852-0.164-1.477-0.492-1.875
				c-0.327-0.398-0.731-0.598-1.213-0.598c-0.469,0-0.859,0.191-1.175,0.574C400.23,308.695,400.074,309.298,400.074,310.123z"/>
			<path fill="#FFFFFF" d="M405.635,310.65v-1.061h3.24v1.061H405.635z"/>
			<path fill="#FFFFFF" d="M413.164,309.044c0-1.426,0.383-2.543,1.148-3.35c0.765-0.807,1.754-1.21,2.965-1.21
				c0.793,0,1.508,0.188,2.145,0.568c0.637,0.379,1.122,0.907,1.456,1.585s0.501,1.445,0.501,2.307c0,0.871-0.176,1.648-0.527,2.338
				c-0.351,0.688-0.85,1.207-1.493,1.561c-0.645,0.355-1.341,0.531-2.086,0.531c-0.81,0-1.531-0.195-2.169-0.586
				c-0.637-0.391-1.118-0.924-1.446-1.6C413.329,310.511,413.164,309.798,413.164,309.044z M414.336,309.062
				c0,1.035,0.278,1.852,0.835,2.445c0.557,0.596,1.255,0.895,2.095,0.895c0.855,0,1.561-0.301,2.112-0.902
				c0.552-0.6,0.829-1.455,0.829-2.561c0-0.699-0.118-1.311-0.354-1.83c-0.235-0.521-0.581-0.928-1.036-1.214
				c-0.455-0.287-0.967-0.431-1.532-0.431c-0.806,0-1.497,0.275-2.077,0.828S414.336,307.769,414.336,309.062z"/>
			<path fill="#FFFFFF" d="M422.809,313.228v-8.59h1.711l2.033,6.082c0.188,0.566,0.324,0.99,0.41,1.271
				c0.098-0.312,0.25-0.771,0.457-1.377l2.057-5.978h1.529v8.589h-1.096v-7.188l-2.496,7.188h-1.025l-2.483-7.311v7.311h-1.097
				V313.228z"/>
			<path fill="#FFFFFF" d="M432.453,310.468l1.072-0.094c0.051,0.43,0.169,0.781,0.354,1.057c0.186,0.277,0.474,0.498,0.864,0.668
				c0.39,0.17,0.83,0.256,1.317,0.256c0.435,0,0.816-0.064,1.148-0.193s0.579-0.305,0.741-0.529s0.243-0.471,0.243-0.734
				c0-0.271-0.078-0.506-0.234-0.707s-0.414-0.369-0.773-0.508c-0.229-0.09-0.739-0.229-1.528-0.418s-1.342-0.367-1.658-0.535
				c-0.41-0.217-0.716-0.482-0.917-0.801s-0.302-0.676-0.302-1.068c0-0.436,0.123-0.84,0.369-1.217
				c0.245-0.377,0.604-0.663,1.077-0.857c0.474-0.195,0.998-0.293,1.576-0.293c0.638,0,1.198,0.103,1.686,0.308
				c0.486,0.204,0.859,0.507,1.122,0.905c0.262,0.398,0.401,0.85,0.422,1.354l-1.09,0.082c-0.06-0.543-0.258-0.953-0.596-1.23
				c-0.338-0.276-0.837-0.416-1.497-0.416c-0.688,0-1.188,0.127-1.503,0.379c-0.314,0.252-0.472,0.555-0.472,0.91
				c0,0.309,0.111,0.562,0.334,0.762c0.219,0.199,0.79,0.404,1.714,0.613s1.559,0.391,1.901,0.547c0.5,0.23,0.869,0.523,1.106,0.877
				c0.238,0.354,0.357,0.76,0.357,1.221c0,0.457-0.131,0.889-0.394,1.293c-0.262,0.404-0.638,0.719-1.128,0.943
				c-0.489,0.223-1.042,0.336-1.654,0.336c-0.777,0-1.43-0.113-1.954-0.34c-0.525-0.227-0.938-0.566-1.236-1.021
				S432.469,311.042,432.453,310.468z"/>
			<path fill="#FFFFFF" d="M440.984,313.228v-1.201h1.2v1.201c0,0.441-0.077,0.799-0.233,1.068
				c-0.156,0.271-0.404,0.482-0.744,0.631l-0.293-0.451c0.223-0.098,0.387-0.24,0.492-0.432c0.104-0.189,0.164-0.461,0.176-0.816
				H440.984L440.984,313.228z"/>
			<path fill="#FFFFFF" d="M452.627,312.214v1.014h-5.678c-0.008-0.254,0.033-0.498,0.123-0.732
				c0.145-0.387,0.376-0.768,0.693-1.143c0.318-0.375,0.778-0.809,1.381-1.301c0.934-0.766,1.563-1.373,1.893-1.818
				c0.329-0.447,0.492-0.871,0.492-1.27c0-0.418-0.149-0.771-0.448-1.059s-0.688-0.431-1.169-0.431
				c-0.508,0-0.914,0.151-1.219,0.457c-0.306,0.306-0.459,0.728-0.463,1.267l-1.084-0.111c0.073-0.809,0.354-1.426,0.838-1.85
				c0.483-0.424,1.135-0.636,1.95-0.636c0.824,0,1.478,0.229,1.957,0.687c0.48,0.457,0.722,1.021,0.722,1.699
				c0,0.344-0.07,0.682-0.211,1.014c-0.142,0.332-0.374,0.682-0.7,1.049s-0.868,0.871-1.626,1.512
				c-0.633,0.531-1.039,0.893-1.219,1.08c-0.181,0.189-0.328,0.381-0.445,0.572H452.627L452.627,312.214z"/>
			<path fill="#FFFFFF" d="M453.758,308.992c0-1.016,0.104-1.832,0.313-2.451s0.52-1.098,0.932-1.434s0.931-0.504,1.556-0.504
				c0.461,0,0.865,0.093,1.214,0.277c0.348,0.186,0.635,0.453,0.86,0.804c0.227,0.351,0.404,0.774,0.533,1.276
				s0.193,1.18,0.193,2.031c0,1.008-0.104,1.82-0.312,2.439s-0.517,1.098-0.929,1.436s-0.934,0.508-1.562,0.508
				c-0.828,0-1.479-0.297-1.95-0.891C454.041,311.769,453.758,310.605,453.758,308.992z M454.842,308.992
				c0,1.41,0.165,2.35,0.495,2.814c0.33,0.467,0.737,0.701,1.222,0.701c0.485,0,0.893-0.234,1.223-0.703s0.495-1.406,0.495-2.812
				c0-1.414-0.165-2.354-0.495-2.818c-0.33-0.463-0.741-0.696-1.233-0.696c-0.483,0-0.871,0.205-1.16,0.614
				C455.023,306.615,454.842,307.582,454.842,308.992z"/>
			<path fill="#FFFFFF" d="M464.404,313.228h-1.056v-6.721c-0.254,0.242-0.587,0.484-0.999,0.727
				c-0.411,0.242-0.781,0.424-1.109,0.545v-1.02c0.59-0.277,1.104-0.613,1.547-1.008c0.441-0.396,0.754-0.777,0.938-1.148h0.681
				L464.404,313.228L464.404,313.228z"/>
			<path fill="#FFFFFF" d="M470.188,313.228h-1.055v-6.721c-0.254,0.242-0.587,0.484-0.999,0.727s-0.782,0.424-1.109,0.545v-1.02
				c0.59-0.277,1.104-0.613,1.547-1.008c0.441-0.396,0.754-0.777,0.938-1.148h0.681v8.625H470.188z"/>
			<path fill="#FFFFFF" d="M473.873,315.753h-0.756c1.168-1.875,1.752-3.752,1.752-5.631c0-0.734-0.084-1.463-0.252-2.188
				c-0.133-0.586-0.318-1.146-0.558-1.688c-0.151-0.352-0.467-0.938-0.942-1.758h0.756c0.734,0.98,1.277,1.965,1.629,2.953
				c0.301,0.852,0.451,1.742,0.451,2.672c0,1.055-0.202,2.074-0.606,3.059C474.943,314.16,474.451,315.019,473.873,315.753z"/>
		</g>
	</g>
	<g>
		<path fill="#FFFFFF" d="M111.51,151.576c0.738-1.365,1.675-1.262,2.828-0.546c-0.583,0.478-1.15,0.945-1.804,1.482
			c0.579,0.365,0.962,0.68,1.399,0.865c0.549,0.232,0.781,0.568,0.695,1.158c-0.039,0.262-0.007,0.535-0.007,1.005
			c-1.136-0.634-2.12-1.184-3.04-1.697c-1.945,1.948-3.909,3.915-5.965,5.974c1.309,0.89,2.664,1.811,4.065,2.764
			c-0.148,0.397-0.315,0.844-0.509,1.359c-1.759-0.785-3.259-1.892-4.611-3.027c-1.988,1.99-3.947,3.952-5.936,5.941
			c1.781,1.657,3.828,3.099,6.061,4.274c3.051,1.608,6.279,2.674,9.709,3.101c0.41,0.051,0.673,0.181,0.613,0.668
			c-0.037,0.306-0.007,0.619-0.007,0.999c-5.617-0.602-10.612-2.622-15.097-5.907c-0.065,0.044-0.12,0.06-0.127,0.087
			c-0.273,1.209-0.282,1.217-1.478,1.18c-0.212-0.008-0.427,0.017-0.634-0.014c-0.924-0.139-1.674,0.068-2.238,0.891
			c-0.129,0.188-0.6,0.306-0.833,0.225c-1.329-0.456-2.155,0.234-2.905,1.163c-0.064,0.08-0.128,0.161-0.254,0.321
			c6.723,6.222,14.615,9.729,23.791,10.574c0,0.248,0,0.494,0,0.738c0,0.249,0,0.497,0,0.816c-4.725-0.352-9.17-1.479-13.428-3.362
			c-4.248-1.881-8.057-4.433-11.367-7.528c-1.984,1.985-3.934,3.935-5.959,5.961c9.053,8.4,19.843,13.09,32.361,13.439
			c13.704,0.383,25.514-4.365,35.603-13.727c-1.217-1.209-2.354-2.34-3.491-3.471c-0.689-0.688-1.39-1.361-2.057-2.068
			c-0.316-0.334-0.521-0.346-0.872-0.018c-3.651,3.408-7.802,6.045-12.429,7.93c-3.738,1.522-7.629,2.424-11.641,2.817
			c-0.169,0.017-0.34,0.013-0.508,0.011c-0.082-0.002-0.161-0.021-0.245-0.035c-0.022-0.078-0.051-0.135-0.052-0.194
			c-0.037-1.231-0.035-1.22,1.164-1.414c1.645-0.267,3.281-0.569,4.928-0.822c1.104-0.17,1.719-0.835,1.829-1.882
			c0.36-3.439-0.149-6.666-2.575-9.34c-1.209-1.332-2.694-2.307-4.305-3.078c-0.533-0.255-0.727-0.575-0.688-1.162
			c0.066-1.031,0.078-2.068,0.062-3.104c-0.008-0.472,0.189-0.647,0.609-0.793c1.652-0.572,3.33-1.096,4.922-1.809
			c2.183-0.977,3.948-2.483,4.809-4.796c1.286-3.459,0.519-7.935-3.492-10.714c-1.824-1.264-3.854-2.083-5.921-2.835
			c-0.188-0.068-0.448-0.306-0.45-0.467c-0.027-2.72-0.02-5.44,0.085-8.215c1.265,0.682,2.464,1.237,4.001,0.834
			c-0.148-0.234-0.275-0.512-0.473-0.722c-0.225-0.238-0.385-0.982-0.198-1.24c0.261-0.359,0.505-0.733,0.804-1.059
			c0.105-0.116,0.346-0.108,0.525-0.157c0.032,0.069,0.064,0.139,0.098,0.208c-0.437,0.415-0.873,0.83-1.309,1.245
			c0.021,0.04,0.042,0.08,0.062,0.12c0.16-0.049,0.361-0.052,0.475-0.153c0.864-0.761,1.926-0.672,2.957-0.724
			c0.109-0.006,0.253-0.013,0.322-0.08c0.711-0.688,1.41-1.389,2.105-2.08c-0.41-0.534-1.25-0.574-1.778-0.045
			c-0.454,0.454-0.972,0.678-1.575,0.712c-0.209,0.012-0.428-0.133-0.619-0.292c0.512-0.215,0.966-0.728,1.448-0.214
			c0.361-0.319,0.69-0.649,1.06-0.925c0.358-0.268,0.234-0.47-0.057-0.673c1.399-0.818,1.399-0.818,2.832,0.266
			c1.891-1.963,3.802-3.948,5.746-5.965c-0.412-0.336-0.209-0.646,0.008-1.013c0.375-0.635,0.686-1.306,1.068-2.051
			c0.248,0.412,0.479,0.791,0.771,1.274c0.624-0.625,1.218-1.207,1.787-1.811c0.06-0.062,0.009-0.274-0.047-0.388
			c-0.11-0.223-0.261-0.426-0.423-0.68c0.314-0.111,0.582-0.205,0.936-0.33c-0.632-0.792-1.229-1.525-1.805-2.276
			c-0.145-0.19-0.289-0.435-0.305-0.664c-0.283-4.266-0.334-4.465-2.234-8.042c0.316-0.188,0.621-0.397,0.953-0.547
			c0.121-0.054,0.326-0.002,0.459,0.067c1.256,0.649,2.559,1.229,3.737,2c0.847,0.554,1.622,1.286,1.858,2.382
			c0.146,0.686,0.318,1.367,0.521,2.231c0.363,0.226,1.7-0.38,1.376,0.928c1.712-1.712,3.52-3.519,5.388-5.386
			c-3.856-3.798-8.386-6.942-13.447-9.328c-5.06-2.384-10.386-3.826-15.962-4.415c0.053-0.332,0.084-0.58,0.134-0.825
			c0.041-0.204,0.103-0.403,0.183-0.707c0.918,0.11,1.837,0.188,2.744,0.336c8.562,1.398,16.323,4.691,23.15,10.052
			c9.749,7.656,15.975,17.556,18.615,29.689c0.994,4.572,1.291,9.204,0.975,13.856c-1.355,19.946-14.091,36.592-31.714,43.715
			c-4.606,1.862-9.382,3.051-14.338,3.445c-15.29,1.212-28.585-3.393-39.735-13.914c-7.748-7.312-12.609-16.293-14.727-26.748
			c-0.914-4.519-1.222-9.084-0.845-13.673c1.013-12.335,5.812-22.982,14.477-31.833c6.896-7.043,15.182-11.673,24.788-13.896
			c1.785-0.413,3.607-0.663,5.416-0.961c0.648-0.107,0.805,0.121,0.883,1.088c0.047,0.567-0.385,0.443-0.688,0.48
			c-5.32,0.642-10.403,2.1-15.245,4.401c-4.655,2.212-8.854,5.092-12.617,8.61c-0.168,0.159-0.329,0.327-0.489,0.495
			c-0.042,0.044-0.065,0.106-0.036,0.058c1.977,1.977,3.926,3.927,5.914,5.914c2.434-2.32,5.16-4.392,8.096-6.045
			c-0.398,0.812-0.807,1.67-1.248,2.511c-0.09,0.172-0.297,0.287-0.459,0.417c-1.586,1.26-3.176,2.519-4.764,3.778
			c-0.199,0.157-0.398,0.312-0.593,0.464c1.181,1.161,2.272,2.233,3.379,3.321c-0.966,0.75-1.733,0.712-2.444,0.002
			c-0.645-0.642-1.291-1.28-1.939-1.918c-0.025-0.027-0.072-0.036-0.188-0.091c-3.202,3.337-5.717,7.155-7.566,11.412
			c-2.074,4.773-3.137,9.766-3.225,15.021c2.842,0,5.596,0,8.416,0c0.129-3.825,0.83-7.509,2.271-11.041
			c1.436-3.518,3.468-6.653,6.077-9.492c-1.063-0.782-0.113-1.36,0.117-2.125c0.376,0.345,0.68,0.622,1.04,0.953
			c4.272-4.022,9.257-6.679,14.985-7.909c0.588-0.127,1.187-0.203,1.834-0.312c0,0.568,0,1.045,0,1.571
			c-5.992,1-11.207,3.56-15.635,7.74c1.982,1.975,3.921,3.905,5.712,5.688c-0.653,1.494-1.394,2.732-1.742,4.073
			c-1.138,4.379-0.615,8.469,2.597,11.924c1.282,1.379,2.845,2.387,4.548,3.169c0.501,0.231,0.864,0.537,1.131,1.03
			C110.696,150.521,111.07,150.956,111.51,151.576z M82.771,111.27c-5.166,5.42-8.948,11.688-11.283,18.826
			c-1.556,4.755-2.345,9.637-2.407,14.667c2.848,0,5.605,0,8.403,0c0.282-10.639,4.044-19.838,11.216-27.561
			C86.711,115.213,84.773,113.274,82.771,111.27z M159.098,146.385c-0.413,10.565-4.264,19.623-11.375,27.182
			c2.004,1.993,3.957,3.935,5.929,5.894c0.056-0.051,0.192-0.151,0.301-0.277c1.206-1.414,2.477-2.777,3.594-4.258
			c6.252-8.278,9.53-17.626,9.966-27.984c0.018-0.423-0.106-0.568-0.521-0.561c-0.866,0.019-1.732,0.005-2.6,0.005
			C162.66,146.385,160.932,146.385,159.098,146.385z M167.543,144.772c-0.335-12.92-4.872-24.012-13.545-33.352
			c-2.021,2.025-3.971,3.98-6.023,6.036c1.201,1.187,2.458,2.429,3.717,3.669c0.24,0.236,0.541,0.429,0.724,0.702
			c0.979,1.476,1.937,2.967,2.886,4.462c0.111,0.175,0.124,0.412,0.203,0.691c-0.299-0.058-0.488-0.094-0.828-0.16
			c2.883,5.713,4.301,11.669,4.426,17.951C161.934,144.772,164.674,144.772,167.543,144.772z M77.498,146.385
			c-0.277,0-0.504,0-0.73,0c-2.305,0-4.607-0.001-6.912,0.001c-0.797,0-0.838,0.008-0.756,0.825
			c0.232,2.286,0.365,4.593,0.776,6.849c1.726,9.461,5.913,17.712,12.438,24.777c0.281,0.306,0.52,0.65,0.812,1.021
			c2.021-2.026,3.881-3.897,5.752-5.762c0.303-0.302,0.088-0.472-0.105-0.675c-1.918-2.008-3.613-4.19-5.088-6.543
			c-0.085-0.135-0.196-0.254-0.336-0.433c-0.134,0.41-0.242,0.745-0.345,1.062c-0.642,0.007-0.996-0.312-1.256-0.83
			c-0.274-0.545-0.593-1.072-0.938-1.577c-0.138-0.203-0.375-0.373-0.605-0.472c-0.554-0.239-0.906-0.582-0.877-1.231
			c0.01-0.216-0.045-0.434-0.078-0.708c-0.205,0.088-0.319,0.131-0.429,0.185c-0.632,0.306-1.396-0.016-1.641-0.651
			c-0.073-0.192-0.28-0.334-0.542-0.63c-0.051,0.595-0.084,0.969-0.118,1.364c-0.903-0.544-0.823-2.048-2.151-2.006
			c-0.076,0.492-0.24,0.936-0.185,1.35c0.072,0.53,0.284,1.054,0.506,1.548c0.286,0.637,0.642,1.242,0.966,1.861
			c-0.047,0.031-0.096,0.062-0.143,0.092c-0.146-0.164-0.336-0.307-0.431-0.496c-0.536-1.072-1.056-2.153-1.57-3.236
			c-0.573-1.208-1.048-2.446-0.985-3.816c0.016-0.323,0.054-0.65,0.133-0.963c0.175-0.7,0.82-0.831,1.363-1.096
			c0.41-0.2,0.719-0.2,0.929,0.256c-0.112,0.175-0.226,0.354-0.38,0.594c0.717,0.122,1.338,0.227,2.08,0.353
			c-0.232-0.382-0.379-0.622-0.562-0.922c1.121,0.067,2.184,0.005,3.099,0.778C78.184,153.662,77.652,150.093,77.498,146.385z
			 M149.08,146.385c-0.371,7.808-3.229,14.514-8.463,20.129c0.857,0.875,1.678,1.712,2.565,2.618
			c0.585-0.821,0.157-1.938,0.735-2.799c0.378,0.119,0.752,0.238,1.146,0.363c-0.025,0.197-0.125,0.438-0.056,0.504
			c0.664,0.637,0.468,1.523,0.702,2.281c0.211,0.68,0.379,1.364-0.418,1.842c0.418,0.424,0.779,0.79,1.293,1.311
			c0.143-0.232,0.227-0.438,0.369-0.592c6.504-7.08,9.997-15.426,10.555-25.017c0.029-0.504-0.143-0.656-0.645-0.651
			c-2.219,0.023-4.438,0.01-6.656,0.01C149.854,146.385,149.5,146.385,149.08,146.385z M148.684,135.919
			c-0.266-2.151-0.482-4.307-1.47-6.25c-0.741-1.461-1.666-2.828-2.501-4.241c-0.119-0.201-0.19-0.43-0.283-0.646
			c0.058-0.033,0.116-0.066,0.174-0.1c0.559,0.39,1.116,0.78,1.674,1.17c-0.029,0.056-0.059,0.112-0.088,0.167
			c-0.164,0-0.326,0-0.562,0c0.22,0.332,0.373,0.61,0.569,0.854c1.226,1.519,2.062,3.229,2.476,5.132
			c0.348,1.6,0.789,3.222,0.205,4.846c-0.46,1.281-0.519,2.539-0.152,3.838c0.079,0.281,0.097,0.582,0.125,0.875
			c0.102,1.063,0.196,2.127,0.293,3.191c2.801,0,5.557,0,8.371,0c0-0.229,0.005-0.413-0.002-0.598
			c-0.176-5.05-1.238-9.901-3.27-14.534c-0.365-0.831-0.377-0.857-1.221-0.522c-0.468,0.185-0.752,0.105-1.07-0.289
			c-0.702-0.87-1.449-1.707-2.202-2.535c-0.433-0.475-0.733-1.163-1.57-1.072c-0.103,0.012-0.22-0.114-0.326-0.181
			c-0.61-0.377-1.212-0.771-1.833-1.129c-0.335-0.193-0.497-0.388-0.364-0.807c0.144-0.455-0.159-0.882-0.635-0.944
			c-0.46-0.06-0.928-0.099-1.389-0.084c-0.227,0.008-0.497,0.104-0.663,0.254c-0.609,0.553-1.176,1.155-1.777,1.717
			c-0.23,0.215-0.268,0.366-0.055,0.629c0.887,1.101,1.754,2.219,2.631,3.328c0.045,0.057,0.13,0.082,0.217,0.133
			c0.148-0.291,0.279-0.549,0.424-0.835c0.782,0.359-0.047,0.954,0.246,1.371c0.259-0.03,0.524-0.062,0.748-0.087
			c-0.125,0.38-0.225,0.69-0.344,1.052c0,0-0.1,0-0.2,0c-0.034,0.051-0.067,0.102-0.101,0.152c0.322,0.313,0.598,0.796,0.978,0.898
			c0.558,0.15,0.825,0.418,0.806,0.927c-0.02,0.523,0.148,0.932,0.441,1.342c0.109,0.152,0.096,0.402,0.111,0.61
			c0.02,0.271-0.056,0.568,0.031,0.81c0.158,0.433,0.427,0.824,0.612,1.248C147.92,136.029,148.193,136.125,148.684,135.919z
			 M89.078,144.802c1.169,0,2.222-0.02,3.273,0.009c0.441,0.012,0.637-0.156,0.609-0.576c-0.039-0.591,0.168-1.068,0.605-1.459
			c0.318-0.284,0.541-0.574,0.219-1.023c-0.074-0.103,0.004-0.367,0.083-0.521c0.456-0.881,0.917-1.758,1.415-2.616
			c0.09-0.159,0.37-0.339,0.523-0.31c0.701,0.133,1.217-0.148,1.723-0.574c0.213-0.181,0.512-0.267,0.777-0.38
			c0.441-0.189,0.893-0.36,1.193-0.945c-0.72,0.129-1.279,0.23-1.84,0.331c-0.027-0.066-0.055-0.133-0.081-0.199
			c0.354-0.172,0.692-0.41,1.067-0.501c0.775-0.187,1.394-0.444,1.76-1.274c0.336-0.759,0.899-1.422,1.391-2.107
			c0.34-0.475,0.729-0.915,0.994-1.244c-1.998-1.998-3.945-3.944-5.937-5.935C91.936,130.882,89.33,137.301,89.078,144.802z
			 M141.012,146.385c0.412,0.834,0.73,1.519,1.09,2.18c0.074,0.136,0.289,0.215,0.457,0.275c0.818,0.296,1.606,0.143,2.467-0.308
			c0,0.379,0,0.642,0,0.905c-0.254-0.031-0.508-0.051-0.759-0.097c-0.168-0.031-0.329-0.098-0.642-0.195
			c0.179,0.578,0.311,1.009,0.438,1.427c-0.806,0.286-1.591,0.682-2.421,0.827c-0.811,0.143-1.666,0.031-2.522,0.031
			c0.323,0.475,0.327,0.769-0.39,0.957c-0.459,0.121-0.93,0.518-1.212,0.92c-0.566,0.808-1.013,1.701-1.495,2.567
			c-0.056,0.102-0.02,0.255-0.026,0.384c0.132-0.051,0.303-0.065,0.388-0.159c0.351-0.385,0.746-0.328,0.922,0.176
			c0.301,0.855,0.432,1.711-0.02,2.571c-0.086,0.166-0.064,0.393-0.082,0.592c-0.022,0.255,0.039,0.547-0.064,0.759
			c-0.321,0.655-0.703,1.28-1.084,1.957c0.242,0.227,0.494,0.462,0.79,0.738c0.456-0.677,0.864-1.283,1.274-1.893
			c0.067,0.065,0.113,0.088,0.123,0.122c0.145,0.505,0.316,1.007,0.414,1.521c0.068,0.379,0.123,0.796,0.035,1.162
			c-0.208,0.873-0.123,1.121,0.794,1.589c0.514-0.595,1.083-1.167,1.55-1.813c0.914-1.266,1.848-2.527,2.636-3.871
			c2.3-3.928,3.49-8.205,3.814-12.735c0.03-0.429-0.101-0.615-0.562-0.597c-0.78,0.029-1.563,0.007-2.346,0.007
			C143.443,146.385,142.307,146.385,141.012,146.385z M96.141,150.501c-0.082,0.02-0.164,0.038-0.244,0.057
			c-0.121-0.467-0.316-0.93-0.338-1.401c-0.018-0.381,0.186-0.769,0.273-1.157c0.312-1.378,0.16-1.728-1.281-1.616
			c-0.147,0.011-0.309-0.034-0.441,0.011c-0.201,0.066-0.383,0.192-0.574,0.289c-0.242,0.121-0.48,0.317-0.731,0.34
			c-0.705,0.064-1.263,0.803-0.942,1.44c0.266,0.53,0.254,1,0.014,1.49c-0.182,0.37,0.016,0.489,0.29,0.684
			c0.358,0.255,0.684,0.585,0.942,0.94c0.27,0.372,0.475,0.8,0.648,1.229c0.104,0.258,0.183,0.585,0.117,0.842
			c-0.131,0.514-0.066,0.963,0.216,1.387c0.567,0.859,0.77,1.799,0.753,2.823c-0.018,1.041,0.211,2.033,0.682,2.986
			c0.198,0.397,0.178,0.916,0.203,1.382c0.027,0.512-0.188,1.129,0.027,1.52c0.377,0.684,1.003,1.229,1.455,1.754
			c2.009-2.007,3.971-3.968,5.956-5.953c-1.628-1.735-2.978-3.763-3.966-6.029c-0.983-2.259-1.486-4.636-1.688-7.086
			c-0.486,0-0.894,0-1.318,0C96.764,147.84,95.767,149.147,96.141,150.501z M136.398,133.353c0.274-0.016,0.527-0.03,0.928-0.053
			c-0.312,0.267-0.478,0.407-0.594,0.506c0.736,0.838,1.404,1.626,2.109,2.379c0.131,0.141,0.402,0.186,0.615,0.203
			c0.163,0.013,0.335-0.088,0.502-0.138c0.035,0.224,0.074,0.448,0.104,0.635c-0.354-0.071-0.561-0.112-0.767-0.154
			c0.007,0.226-0.069,0.511,0.039,0.666c0.218,0.312,0.536,0.553,0.969,0.976c0.331-0.682,0.616-1.201,0.838-1.747
			c0.187-0.454,1.085-0.851,1.427-0.546c0.448,0.401,0.853,0.854,1.137,1.145c-0.336,0.996-0.64,1.892-0.953,2.819
			c0.408,0.054,0.932,0.278,1.117,0.115c0.41-0.359,1.104-0.513,1.139-1.237c0.025-0.509,0.252-0.863,0.713-1.162
			c0.271-0.175,0.559-0.701,0.482-0.969c-0.525-1.854-0.955-3.81-3.081-4.606c-0.339-0.127-0.415-0.385-0.44-0.743
			c-0.039-0.549,0.08-0.93,0.722-1.041c-1.077-1.792-2.249-3.418-3.601-4.827c-2.007,2.007-3.944,3.945-5.906,5.908
			c0.518,0.691,1.042,1.458,1.646,2.155c0.177,0.204,0.582,0.208,0.973,0.332C136.461,133.688,136.437,133.554,136.398,133.353z
			 M87.506,146.438c-0.155-0.022-0.257-0.049-0.358-0.049c-2.515-0.003-5.029,0.007-7.544-0.012c-0.516-0.004-0.521,0.263-0.5,0.643
			c0.171,3.171,0.663,6.288,1.574,9.334c0.311,1.037,0.578,1.183,1.633,0.904c0.143-0.037,0.279-0.09,0.42-0.137
			c1.775-0.587,1.788-0.589,1.633-2.475c-0.092-1.125-0.034-2.18,0.905-2.994c0.235-0.204,0.422-0.476,0.591-0.743
			c0.265-0.42,0.586-0.838,0.713-1.303c0.109-0.4,0.281-0.541,0.642-0.644c0.179-0.051,0.434-0.289,0.433-0.441
			C87.643,147.832,87.561,147.143,87.506,146.438z M104.33,158.454c1.999-2,3.953-3.952,5.896-5.897
			c-0.576-0.859-1.186-1.767-1.813-2.704c-1.003,2.53-1.003,2.53-1.837,2.799c-0.151-0.307-0.307-0.62-0.479-0.968
			c0.409-0.124,0.763-0.23,1.241-0.374c-0.496-0.614-0.93-1.15-1.5-1.854c-0.308,0.751-0.531,1.295-0.772,1.885
			c-0.224-0.141-0.532-0.338-0.863-0.547c0.124-0.173,0.215-0.303,0.341-0.481c-0.371-0.261-0.754-0.742-1.046-0.692
			c-0.685,0.118-0.974-0.379-1.428-0.619c-0.235-0.125-0.501-0.354-0.72-0.32c-0.738,0.114-1.197-0.238-1.607-0.761
			c-0.107-0.137-0.258-0.24-0.389-0.358C99.774,151.816,101.496,155.426,104.33,158.454z M138.525,174.431
			c0.281,0.195,0.431,0.309,0.588,0.408c0.651,0.42,0.67,0.67,0.08,1.201c-0.172,0.155-0.378,0.287-0.507,0.474
			c-0.099,0.144-0.122,0.351-0.144,0.532c-0.034,0.312,0.008,0.642-0.073,0.938c-0.097,0.35-0.287,0.674-0.437,1.01
			c0.043,0.033,0.086,0.067,0.127,0.102c2.58-1.529,4.973-3.303,7.027-5.303c-2.012-2.012-3.956-3.959-5.934-5.938
			c-0.396,0.352-0.861,0.764-1.414,1.251c0.342,0.336,0.635,0.862,0.914,0.856c1.023-0.024,1.271,0.828,1.785,1.246
			C139.842,172.322,139.19,173.367,138.525,174.431z M141.611,141.478c0.018,0.08,0.036,0.16,0.055,0.24
			c0.098,0.077,0.209,0.141,0.291,0.231c0.145,0.159,0.273,0.334,0.407,0.502c-0.194,0.085-0.392,0.164-0.584,0.254
			c-0.275,0.129-0.577,0.227-0.812,0.41c-0.256,0.202-0.471,0.47-0.662,0.739c-0.127,0.181-0.309,0.481-0.241,0.607
			c0.095,0.173,0.397,0.324,0.613,0.326c2.008,0.024,4.017,0.015,6.024,0.015c0.246,0,0.49,0,0.873,0
			c-0.15-1.499-0.289-2.894-0.428-4.288c-0.066-0.006-0.133-0.012-0.199-0.018c-0.291,0.371-0.582,0.743-0.873,1.115
			c-0.104-0.261-0.12-0.491-0.058-0.697c0.164-0.545,0.331-1.093,0.554-1.615c0.258-0.603,0.093-1.129-0.177-1.745
			c-0.074,0.166-0.139,0.255-0.153,0.352c-0.131,0.798-0.372,1.517-1.199,1.873c-0.101,0.043-0.192,0.179-0.227,0.29
			c-0.133,0.432-0.461,0.514-0.854,0.619C143.166,140.902,142.393,141.209,141.611,141.478z M97.481,144.798
			c0.062-0.647,0.111-1.19,0.166-1.733c0.159-1.598,0.312-1.387-1.323-1.736c-0.635-0.135-1.276,0.057-1.505,0.521
			c-0.251,0.508-0.265,1.241-0.114,1.805c0.115,0.438,0.574,0.942,0.998,1.099C96.219,144.942,96.857,144.798,97.481,144.798z
			 M91.865,149.211c-0.812-0.495-0.769-1.139-0.443-1.862c0.123-0.272,0.149-0.588,0.238-0.96c-0.779,0-1.472-0.023-2.16,0.02
			c-0.135,0.009-0.375,0.281-0.363,0.415c0.093,1.109,0.225,2.215,0.369,3.318c0.018,0.129,0.167,0.305,0.292,0.346
			c0.683,0.227,1.282-0.021,1.684-0.655C91.594,149.655,91.702,149.476,91.865,149.211z M134.013,135.521
			c0.036-0.372,0.22-0.812,0.076-1.066c-0.378-0.663-0.897-1.245-1.347-1.841c-0.977,0.487-1.203,1.302-1.193,2.159
			c0.003,0.306,0.387,0.606,0.597,0.91c-0.114,0.065-0.271,0.155-0.458,0.262c0.381,0.193,0.714,0.361,1.09,0.552
			c0.094-0.208,0.193-0.431,0.257-0.573c-0.202-0.27-0.351-0.468-0.501-0.666c0.046-0.074,0.092-0.147,0.137-0.222
			C133.064,135.179,133.459,135.321,134.013,135.521z M130.502,162.146c0.598,0.378,1.119,0.721,1.654,1.039
			c0.131,0.077,0.305,0.094,0.463,0.107c0.281,0.023,0.572-0.011,0.848,0.04c0.349,0.064,0.683,0.207,1.031,0.279
			c0.115,0.024,0.308-0.032,0.365-0.118c0.049-0.073-0.014-0.263-0.082-0.364c-0.092-0.136-0.223-0.26-0.361-0.349
			c-0.795-0.509-1.594-1.015-2.404-1.498c-0.107-0.064-0.334-0.051-0.439,0.021C131.201,161.565,130.853,161.867,130.502,162.146z
			 M88.416,170.662c0.629,0.688,1.227,1.342,1.729,1.891c0.541-0.459,0.996-0.846,1.455-1.234c-0.083-0.095-0.115-0.154-0.165-0.186
			c-0.411-0.254-0.822-0.506-1.238-0.75C89.306,169.86,89.304,169.862,88.416,170.662z"/>
		<path fill="#FFFFFF" d="M122.412,203.655c2.127,1.427,4.295,2.798,6.369,4.298c2.092,1.514,3.948,3.305,5.731,5.379
			c-1.196,0.151-2.286,0.312-3.381,0.404c-0.155,0.014-0.38-0.279-0.501-0.477c-2.238-3.59-5.186-6.424-9.107-8.062
			c-3.535-1.479-3.019-1.48-6.58,0.012c-3.876,1.627-6.816,4.412-9.007,7.979c-0.292,0.476-0.588,0.632-1.112,0.542
			c-0.893-0.152-1.793-0.264-2.837-0.411c3.487-4.007,7.573-7.086,12.144-9.68c-0.457,0-0.916-0.022-1.371,0.004
			c-3.423,0.19-6.663,1.207-9.928,2.147c-3.033,0.875-6.064,1.859-9.167,2.373c-5.919,0.98-11.823,0.932-17.474-1.537
			c-2.082-0.91-3.967-2.137-5.658-3.586c1.199,0.326,2.406,0.729,3.646,0.978c2.558,0.513,5.146,0.429,7.678-0.093
			c3.838-0.788,7.641-1.747,11.463-2.611c4.105-0.93,8.265-1.493,12.478-1.533c4.066-0.039,8.019,0.661,11.862,1.996
			c0.357,0.124,0.832,0.118,1.191-0.007c4.879-1.701,9.882-2.24,15.027-1.854c5.182,0.389,10.202,1.555,15.204,2.871
			c3.165,0.834,6.369,1.486,9.661,1.533c2.232,0.031,4.418-0.271,6.508-1.104c0.23-0.092,0.459-0.187,0.752-0.192
			c-0.537,0.417-1.065,0.847-1.615,1.247c-3.43,2.496-7.287,3.848-11.489,4.264c-6.202,0.615-12.174-0.429-18.063-2.33
			c-2.842-0.918-5.764-1.603-8.676-2.279c-1.218-0.281-2.504-0.27-3.759-0.393C122.404,203.574,122.408,203.615,122.412,203.655z"/>
		<path fill="#FFFFFF" d="M122.869,102.312c1.92,0.05,3.643,0.423,5.33,0.988c3.166,1.061,5.938,2.694,8.074,5.334
			c4.084,5.043,3.35,14.435-4.041,18.339c-2.845,1.503-5.895,2.373-8.979,3.183c-2.77,0.728-5.549,1.438-8.273,2.318
			c-1.094,0.354-2.156,1.005-3.052,1.744c-2.269,1.874-2.262,5.234-0.046,7.175c0.627,0.551,1.396,0.938,2.083,1.425
			c0.185,0.13,0.427,0.353,0.431,0.536c0.031,1.875,0.02,3.75,0.02,5.673c-0.133-0.03-0.293-0.053-0.444-0.102
			c-2.177-0.699-4.293-1.528-6.19-2.837c-3.258-2.247-4.57-5.386-4.338-9.277c0.282-4.688,2.959-7.553,7.028-9.386
			c2.94-1.324,6.071-2.024,9.181-2.798c2.764-0.688,5.547-1.32,8.092-2.663c1.88-0.991,3.367-2.348,3.906-4.496
			c0.742-2.959-0.319-5.732-2.855-7.476c-1.778-1.224-3.778-1.843-5.926-2.074C122.869,106.074,122.869,104.232,122.869,102.312z"/>
		<path fill="#FFFFFF" d="M115.735,123.762c0-1.698,0.027-3.237-0.005-4.775c-0.144-6.883-0.258-13.767-0.49-20.646
			c-0.06-1.797-0.518-3.58-0.773-5.372c-0.266-1.841-0.471-3.685-0.061-5.537c0.637-2.884,3.857-4.224,6.361-2.636
			c0.987,0.626,1.387,1.601,1.576,2.698c0.303,1.741,0.137,3.483-0.293,5.151c-1.035,4.023-0.884,8.121-0.984,12.207
			c-0.141,5.742-0.256,11.485-0.395,17.227c-0.004,0.169-0.121,0.454-0.239,0.486C118.934,122.97,117.424,123.338,115.735,123.762z"
			/>
		<path fill="#FFFFFF" d="M57.402,187.958c2.584,2.633,5.896,3.731,9.344,4.512c3.555,0.805,7.148,1.441,10.682,2.328
			c1.764,0.441,3.428,1.277,5.137,1.935c0.146,0.058,0.294,0.108,0.606,0.226c-0.825-0.916-1.546-1.682-2.229-2.478
			c-2.52-2.924-3.975-6.323-4.605-10.122c-0.271-1.628-0.746-3.223-1.105-4.734c0.559,0.524,1.264,1.166,1.945,1.832
			c2.824,2.752,5.461,5.662,7.29,9.197c0.589,1.141,1.097,2.33,1.544,3.533c0.854,2.291,1.67,4.592,3.164,6.656
			c-2.893-0.713-5.719-0.262-8.535-0.203c-5.541,0.115-10.879-0.57-15.598-3.799C61.707,194.561,59.277,191.496,57.402,187.958z"/>
		<path fill="#FFFFFF" d="M161.486,179.578c-0.975,1.824-1.177,3.856-1.547,5.836c-0.77,4.129-2.818,7.549-5.697,10.529
			c-0.275,0.286-0.546,0.578-0.918,0.973c0.232-0.051,0.334-0.051,0.414-0.094c3.037-1.604,6.336-2.375,9.663-3.08
			c3.212-0.683,6.431-1.354,9.599-2.207c2.319-0.625,4.385-1.836,6.094-3.593c-0.887,1.757-1.967,3.377-3.227,4.875
			c-3.588,4.257-8.15,6.71-13.656,7.495c-3.285,0.469-6.572,0.322-9.859,0.193c-1.667-0.065-3.318-0.1-5.054,0.355
			c1.658-2.261,2.481-4.793,3.403-7.281c1.478-4,3.952-7.34,6.885-10.371c1.23-1.271,2.512-2.494,3.77-3.738
			C161.399,179.505,161.442,179.541,161.486,179.578z"/>
		<path fill="#FFFFFF" d="M169.768,165.923c-0.398,2.224-0.139,4.349-0.041,6.476c0.153,3.298,0.242,6.599-0.984,9.752
			c-0.424,1.091-0.984,2.13-1.509,3.251c0.149-0.119,0.275-0.206,0.386-0.311c2.008-1.885,4.396-3.2,6.779-4.524
			c2.142-1.188,4.307-2.34,6.388-3.626c2.982-1.842,5.546-4.146,7.38-7.221c-0.193,0.641-0.377,1.285-0.584,1.921
			c-0.215,0.661-0.439,1.321-0.686,1.971c-1.197,3.167-2.796,6.101-5.107,8.606c-2.62,2.842-5.871,4.666-9.54,5.744
			c-2.546,0.75-5.146,1.315-7.694,2.056c-1.32,0.382-2.582,0.964-3.691,1.388c0.518-1.082,1.191-2.32,1.715-3.623
			c0.83-2.07,1.148-4.273,1.414-6.471c0.662-5.482,2.492-10.527,5.559-15.122C169.596,166.123,169.652,166.064,169.768,165.923z"/>
		<path fill="#FFFFFF" d="M69.083,185.283c-0.591-1.521-1.333-3.111-1.823-4.777c-0.779-2.648-0.611-5.393-0.492-8.114
			c0.095-2.126,0.357-4.252,0.098-6.44c0.821,1.467,1.688,2.912,2.452,4.408c1.776,3.479,2.69,7.212,3.188,11.066
			c0.463,3.574,1.176,7.078,3.303,10.137c-3.344-1.887-7.126-2.273-10.704-3.318c-3.661-1.07-7.021-2.66-9.769-5.371
			c-2.635-2.603-4.406-5.75-5.711-9.178c-0.492-1.297-0.894-2.629-1.346-3.972c0.096,0,0.143-0.011,0.149,0.001
			c1.838,3.203,4.511,5.566,7.63,7.438c2.336,1.399,4.741,2.678,7.117,4.006C65.336,182.373,67.434,183.664,69.083,185.283z"/>
		<path fill="#FFFFFF" d="M60.885,172.903c-0.127-0.646-0.248-1.294-0.381-1.94c-1.05-5.063-0.432-9.97,1.287-14.805
			c0.561-1.577,0.869-3.242,1.297-4.879c0.156,0.453,0.348,0.963,0.508,1.482c1.168,3.755,1.275,7.575,0.842,11.46
			c-0.32,2.867-0.622,5.757-0.621,8.637c0.001,2.21,0.486,4.42,0.742,6.512c-2.447-2.543-5.787-4.166-8.732-6.338
			c-3.66-2.697-6.755-5.861-8.68-10.05c-1.531-3.331-2.195-6.849-2.303-10.49c0-0.054,0.033-0.108,0.08-0.247
			c0.238,0.495,0.436,0.928,0.652,1.351c1.273,2.472,3.125,4.502,5.021,6.491c2.975,3.118,5.996,6.195,8.342,9.845
			c0.637,0.986,1.227,2.001,1.838,3.003C60.813,172.925,60.85,172.914,60.885,172.903z"/>
		<path fill="#FFFFFF" d="M175.711,172.946c0.07-0.096,0.152-0.187,0.208-0.288c2.103-3.93,4.965-7.273,7.986-10.51
			c2.015-2.158,3.962-4.383,5.837-6.664c0.762-0.927,1.248-2.079,1.938-3.262c-0.082,1.129-0.113,2.147-0.236,3.154
			c-0.469,3.821-1.633,7.4-3.785,10.625c-2.073,3.107-4.814,5.531-7.86,7.635c-1.998,1.379-4.032,2.705-6.017,4.104
			c-0.717,0.506-1.334,1.149-1.953,1.692c0.232-1.39,0.501-2.832,0.708-4.282c0.315-2.207,0.233-4.42,0.029-6.634
			c-0.268-2.897-0.622-5.792-0.739-8.696c-0.117-2.871,0.541-5.654,1.504-8.357c0.027-0.077,0.07-0.148,0.144-0.3
			c0.194,0.969,0.319,1.874,0.562,2.746c0.581,2.09,1.271,4.15,1.815,6.249c1.018,3.925,0.778,7.862-0.06,11.787
			c-0.067,0.32-0.123,0.643-0.185,0.965C175.642,172.921,175.676,172.934,175.711,172.946z"/>
		<path fill="#FFFFFF" d="M55.691,157.243c0-0.735-0.005-1.47,0-2.205c0.037-4.77,1.314-9.104,4.362-12.869
			c1.218-1.505,2.279-3.136,3.403-4.698c0,0.874,0.037,1.821-0.006,2.766c-0.17,3.704-1.26,7.161-2.84,10.491
			c-1.13,2.38-2.34,4.745-2.85,7.355c-0.352,1.793-0.523,3.622-0.775,5.433c0.117,0.019,0.059,0.023,0.051,0.006
			c-1.341-2.827-3.615-4.916-5.684-7.164c-2.388-2.596-4.361-5.423-5.231-8.911c-0.685-2.744-0.731-5.515-0.397-8.3
			c0.16-1.337,0.418-2.662,0.686-3.992c0.164,3.503,1.826,6.429,3.518,9.334c2.192,3.765,4.223,7.599,5.36,11.839
			c0.081,0.302,0.171,0.602,0.255,0.903C55.593,157.234,55.643,157.238,55.691,157.243z"/>
		<path fill="#FFFFFF" d="M173.019,137.44c1.64,2.297,3.327,4.562,4.906,6.899c1.78,2.636,2.55,5.627,2.755,8.771
			c0.082,1.242,0.082,2.489,0.123,3.733c0.004,0.133,0.035,0.265,0.046,0.338c0.69-1.903,1.245-3.904,2.125-5.752
			c1.368-2.872,2.941-5.647,4.454-8.449c1.148-2.125,2.195-4.281,2.51-6.714c0.047-0.37,0.063-0.744,0.189-1.133
			c0.219,1.345,0.486,2.686,0.645,4.037c0.355,3,0.279,5.981-0.576,8.909c-0.834,2.856-2.398,5.289-4.361,7.484
			c-1.225,1.369-2.533,2.667-3.707,4.078c-1.015,1.22-1.893,2.554-2.776,3.763c0.009-2.117-0.184-4.37-0.93-6.508
			c-0.679-1.947-1.5-3.849-2.349-5.73c-1.208-2.68-2.364-5.375-2.737-8.315c-0.228-1.795-0.3-3.61-0.442-5.416
			C172.936,137.437,172.977,137.439,173.019,137.44z"/>
		<path fill="#FFFFFF" d="M182.155,140.962c0.159-1.54,0.261-3.032,0.479-4.508c0.363-2.459,0.818-4.905,1.203-7.361
			c0.518-3.304,0.9-6.614,0.2-9.942c-0.106-0.505-0.247-1.003-0.329-1.521c1.398,1.948,2.513,4.039,3.312,6.296
			c1.749,4.943,1.37,9.797-0.7,14.545c-0.834,1.913-1.834,3.752-2.715,5.646c-0.518,1.114-0.947,2.269-1.29,3.098
			c-0.757-1.653-1.469-3.686-2.565-5.487c-1.277-2.101-2.836-4.041-4.369-5.974c-2.99-3.767-5.205-7.926-6.615-12.52
			c-0.048-0.157-0.092-0.316-0.201-0.379c2.16,1.903,4.359,3.763,6.472,5.718c3.468,3.213,5.708,7.173,6.899,11.737
			c0.037,0.143,0.076,0.284,0.119,0.425C182.074,140.793,182.104,140.847,182.155,140.962z"/>
		<path fill="#FFFFFF" d="M54.191,147.609c-0.375-1.891-1.296-3.513-2.14-5.163c-1.31-2.558-2.558-5.139-3.205-7.961
			c-1.046-4.549-0.372-8.888,1.666-13.035c0.647-1.319,1.423-2.575,2.273-3.798c-0.161,0.803-0.341,1.603-0.481,2.41
			c-0.357,2.058-0.312,4.13-0.016,6.183c0.509,3.524,1.123,7.034,1.642,10.558c0.199,1.353,0.256,2.726,0.394,4.262
			c0.102-0.311,0.172-0.484,0.217-0.665c1.352-5.366,4.246-9.737,8.486-13.262c1.668-1.385,3.268-2.851,4.928-4.307
			c-0.73,1.832-1.419,3.725-2.232,5.562c-1.51,3.411-3.751,6.354-6.105,9.212c-2.401,2.915-4.329,6.082-5.32,9.763
			C54.277,147.44,54.237,147.507,54.191,147.609z"/>
		<path fill="#FFFFFF" d="M121.877,145.661c2.754,0.998,5.213,1.966,7.078,4.009c2.207,2.418,2.833,7.753-1.397,10.386
			c-1.833,1.141-3.862,1.763-5.884,2.435c-1.639,0.544-3.256,1.156-4.871,1.767c-0.41,0.155-0.797,0.39-1.16,0.637
			c-0.541,0.367-0.799,0.892-0.791,1.563c0.019,1.498,0.006,2.994,0.006,4.564c-1.715-1.001-3.359-2.102-3.881-4.232
			c-0.473-1.939,0.074-3.582,1.606-4.882c1.648-1.398,3.634-2.107,5.638-2.783c1.238-0.417,2.508-0.763,3.698-1.288
			c0.851-0.376,1.69-0.896,2.364-1.532c1.153-1.092,1.071-2.629-0.135-3.661c-0.551-0.472-1.252-0.767-1.873-1.161
			c-0.156-0.1-0.379-0.271-0.383-0.412C121.867,149.32,121.877,147.572,121.877,145.661z"/>
		<path fill="#FFFFFF" d="M62.498,105.454c-1.611,2.468-2.191,5.254-2.639,8.074c-0.57,3.593-0.766,7.247-1.871,10.927
			c0.183-0.17,0.249-0.207,0.278-0.263c2.176-4.107,5.529-7.04,9.415-9.439c1.365-0.844,2.766-1.633,4.1-2.521
			c0.996-0.662,1.912-1.442,2.889-2.188c-0.449,1.039-0.872,2.136-1.389,3.187c-1.268,2.573-3.164,4.623-5.434,6.343
			c-1.751,1.326-3.547,2.594-5.269,3.957c-2.911,2.305-5.126,5.183-6.772,8.506c-0.064,0.133-0.131,0.265-0.199,0.395
			c-0.02,0.035-0.056,0.061-0.137,0.146c-0.039-0.708-0.07-1.366-0.112-2.023c-0.183-2.843-0.511-5.685-0.521-8.527
			c-0.014-4.152,0.849-8.129,3.124-11.701C59.176,108.421,60.691,106.802,62.498,105.454z"/>
		<path fill="#FFFFFF" d="M174.119,105.325c1.049,1.081,2.17,2.101,3.133,3.255c2.479,2.972,3.728,6.467,4.204,10.28
			c0.438,3.511,0.123,6.997-0.226,10.487c-0.107,1.07-0.146,2.147-0.221,3.301c-0.221-0.422-0.422-0.799-0.617-1.18
			c-1.982-3.864-4.878-6.911-8.38-9.434c-1.628-1.172-3.247-2.365-4.779-3.657c-2.653-2.237-4.329-5.13-5.423-8.568
			c1.365,1.617,3.082,2.5,4.684,3.551c2.222,1.458,4.465,2.898,6.571,4.513c2.113,1.621,3.729,3.726,5.019,6.066
			c0.076,0.139,0.176,0.266,0.367,0.551c-0.279-1.263-0.572-2.336-0.746-3.429c-0.358-2.27-0.602-4.559-0.986-6.824
			c-0.812-4.773-0.837-4.77-2.729-8.783C174.033,105.411,174.076,105.368,174.119,105.325z"/>
		<path fill="#FFFFFF" d="M113.597,103.096c0.041,1.994,0.085,3.847,0.101,5.701c0.002,0.131-0.188,0.323-0.332,0.387
			c-1.721,0.758-3.143,1.875-4.253,3.401c-0.282,0.387-0.661,0.716-1.036,1.02c-2.261,1.824-4.701,3.381-7.305,4.657
			c-0.824,0.405-1.811,0.477-2.714,0.73c-0.247,0.069-0.54,0.187-0.685,0.378c-0.644,0.858-1.246,1.749-1.855,2.632
			c-0.117,0.169-0.205,0.36-0.404,0.508c0.101-0.431,0.201-0.86,0.315-1.347c-0.685,0.141-1.3,0.267-1.915,0.393
			c1.279-0.321,2.299-1.002,2.967-2.116c0.289-0.481,0.375-1.088,0.535-1.644c0.123-0.422,0.189-0.861,0.331-1.276
			c0.339-0.993,0.681-1.986,1.073-2.959c0.296-0.736,0.582-1.503,1.033-2.144c0.752-1.067,1.593-2.08,2.472-3.047
			c1.071-1.179,2.409-2.021,3.946-2.424c1.908-0.5,3.717-1.225,5.496-2.053C112.045,103.58,112.777,103.386,113.597,103.096z
			 M101.615,112.909c1.816-0.023,2.307-1.512,3.291-2.437c-0.426-0.108-0.816-0.128-1.202-0.101
			c-0.212,0.015-0.521,0.039-0.614,0.175C102.585,111.286,102.134,112.063,101.615,112.909z"/>
		<path fill="#FFFFFF" d="M116.54,157.808c-0.034-0.666-0.083-1.252-0.091-1.839c-0.074-4.077-0.135-8.153-0.207-12.229
			c-0.056-3.021-0.105-6.041-0.203-9.059c-0.021-0.607,0.186-0.863,0.738-1.004c1.061-0.271,2.11-0.59,3.168-0.88
			c0.134-0.037,0.281-0.023,0.427-0.033c0,1.151,0.017,2.266-0.003,3.381c-0.059,3.4-0.125,6.801-0.195,10.201
			c-0.07,3.315-0.145,6.63-0.24,9.944c-0.005,0.195-0.177,0.499-0.34,0.557C118.623,157.187,117.632,157.472,116.54,157.808z"/>
		<path fill="#FFFFFF" d="M174.76,116.382c-2.158-2.338-4.855-3.874-7.346-5.677c-2.2-1.593-3.909-3.578-5.2-5.958
			c-1.187-2.188-2.327-4.411-4.035-6.266c-0.54-0.586-1.074-1.177-1.511-1.655C165.457,98.657,173.078,107.383,174.76,116.382z"/>
		<path fill="#FFFFFF" d="M61.718,116.405c1.782-9.279,9.519-17.801,18.092-19.574c-0.427,0.471-0.96,1.065-1.499,1.652
			c-1.429,1.555-2.516,3.347-3.445,5.22c-1.65,3.324-4.025,5.95-7.133,7.973C65.613,113.056,63.494,114.457,61.718,116.405z"/>
		<path fill="#FFFFFF" d="M46.968,239.858c0,2.847,0,5.69,0,8.577c-0.703,0-1.329,0-2.011,0c0-3.732,0-7.479,0-11.297
			c1.018,0,2.027-0.021,3.033,0.023c0.147,0.006,0.355,0.303,0.41,0.5c0.604,2.174,1.18,4.354,1.766,6.53
			c0.049,0.181,0.111,0.354,0.227,0.722c0.147-0.476,0.252-0.777,0.334-1.084c0.547-2.059,1.104-4.113,1.617-6.179
			c0.107-0.425,0.289-0.532,0.69-0.522c0.923,0.023,1.849,0.008,2.808,0.008c0,3.798,0,7.527,0,11.3c-0.664,0-1.307,0-2.041,0
			c0-2.88,0-5.74,0-8.601c-0.053-0.01-0.107-0.018-0.162-0.024c-0.06,0.188-0.133,0.373-0.18,0.563
			c-0.628,2.515-1.264,5.027-1.865,7.549c-0.104,0.438-0.279,0.566-0.721,0.563c-1.558-0.013-1.553,0.003-1.926-1.517
			c-0.541-2.211-1.088-4.422-1.637-6.631c-0.043-0.174-0.113-0.344-0.172-0.514C47.082,239.835,47.025,239.847,46.968,239.858z"/>
		<path fill="#FFFFFF" d="M119.693,164.926c0,1.457,0.018,2.804-0.003,4.152c-0.085,5.318-0.171,10.639-0.284,15.959
			c-0.039,1.854-0.131,3.707-0.251,5.56c-0.028,0.423-0.213,0.86-0.421,1.241c-0.285,0.52-0.864,0.531-1.069-0.012
			c-0.285-0.757-0.536-1.572-0.563-2.371c-0.109-3.248-0.123-6.5-0.18-9.752c-0.074-4.328-0.147-8.654-0.243-12.98
			c-0.011-0.477,0.13-0.73,0.581-0.885C118.074,165.56,118.87,165.237,119.693,164.926z"/>
		<path fill="#FFFFFF" d="M71.514,223.466c-0.028-1.008,0.168-2.159,0.805-3.201c1.17-1.915,3.078-2.594,5.351-2.362
			c3.699,0.377,5.042,3.291,4.795,6.442c-0.039,0.5-0.132,1.006-0.275,1.486c-0.805,2.697-3.235,3.896-5.888,3.562
			C73.09,228.994,71.492,227.014,71.514,223.466z M80.221,223.63c-0.02-0.002-0.039-0.004-0.059-0.004
			c0-0.254,0.014-0.508-0.002-0.76c-0.115-1.662-1.203-2.887-2.691-3.041c-1.764-0.184-3.069,0.66-3.512,2.295
			c-0.275,1.018-0.277,2.045,0.014,3.062c0.438,1.528,1.588,2.353,3.207,2.312c1.421-0.035,2.533-0.99,2.86-2.488
			C80.137,224.555,80.162,224.089,80.221,223.63z"/>
		<path fill="#FFFFFF" d="M158.742,240.453c-0.756,0.053-1.427,0.102-2.089,0.146c-0.044-0.031-0.095-0.047-0.107-0.079
			c-0.597-1.501-1.954-2.045-3.414-1.3c-0.306,0.156-0.66,0.576-0.661,0.873c0,0.305,0.348,0.756,0.651,0.884
			c0.751,0.315,1.565,0.479,2.352,0.712c0.565,0.167,1.144,0.309,1.685,0.535c1.258,0.523,1.918,1.511,1.932,2.859
			c0.014,1.332-0.566,2.412-1.798,2.961c-1.756,0.785-3.585,0.81-5.339,0.008c-1.326-0.604-1.874-1.803-2.057-3.282
			c0.701-0.087,1.361-0.17,2.057-0.256c0.062,0.13,0.137,0.253,0.182,0.386c0.559,1.643,2.513,2.331,3.98,1.395
			c0.473-0.303,0.788-0.725,0.742-1.308c-0.047-0.582-0.463-0.897-0.973-1.048c-0.827-0.244-1.677-0.414-2.503-0.664
			c-0.561-0.169-1.135-0.357-1.636-0.65c-0.984-0.578-1.495-1.474-1.439-2.635c0.055-1.104,0.593-1.953,1.577-2.422
			c1.696-0.807,3.45-0.785,5.137,0.004C158.165,238.11,158.668,239.139,158.742,240.453z"/>
		<path fill="#FFFFFF" d="M89.881,222.283c0.031-0.431,0.053-0.74,0.078-1.088c0.619,0,1.223,0,1.896,0
			c0.01,0.199,0.028,0.402,0.029,0.604c0.002,2.238,0.009,4.478-0.005,6.716c-0.004,0.547-0.038,1.101-0.13,1.639
			c-0.19,1.106-0.79,1.896-1.909,2.212c-1.334,0.377-2.676,0.354-3.994-0.037c-1.137-0.336-1.738-1.27-1.578-2.385
			c0.68,0.068,1.365,0.128,2.047,0.217c0.115,0.014,0.246,0.131,0.316,0.237c0.426,0.636,1.092,0.83,2.07,0.584
			c0.709-0.179,1.004-0.513,1.066-1.298c0.036-0.477,0.007-0.959,0.007-1.438c-0.592,0.33-1.114,0.756-1.708,0.93
			c-1.88,0.553-3.58-0.604-4.051-2.691c-0.232-1.027-0.2-2.066,0.116-3.064c0.823-2.596,3.906-3.099,5.415-1.414
			C89.614,222.082,89.702,222.136,89.881,222.283z M89.884,225.257c-0.114-0.537-0.166-1.002-0.313-1.436
			c-0.277-0.806-0.928-1.236-1.73-1.218c-0.753,0.017-1.476,0.478-1.598,1.278c-0.133,0.854-0.121,1.761,0.014,2.613
			c0.109,0.7,0.668,1.168,1.426,1.242c0.8,0.079,1.425-0.267,1.762-0.975C89.673,226.283,89.751,225.729,89.884,225.257z"/>
		<path fill="#FFFFFF" d="M83.201,241.321c0-1.479,0-2.8,0-4.149c0.717,0,1.361,0,2.051,0c0,3.738,0,7.468,0,11.25
			c-0.598,0-1.216,0-1.877,0c-0.024-0.321-0.049-0.646-0.07-0.937c-0.586,0.332-1.123,0.769-1.736,0.959
			c-1.75,0.544-3.512-0.521-4.053-2.383c-0.336-1.162-0.33-2.342,0.015-3.497c0.69-2.312,3.364-3.107,5.229-1.577
			C82.854,241.065,82.955,241.134,83.201,241.321z M79.393,244.222c0.074,0.531,0.096,0.955,0.195,1.361
			c0.226,0.906,0.858,1.428,1.683,1.442c0.816,0.015,1.495-0.5,1.755-1.372c0.266-0.893,0.25-1.792-0.054-2.674
			c-0.267-0.768-0.852-1.205-1.593-1.225c-0.765-0.02-1.397,0.354-1.677,1.1C79.529,243.317,79.479,243.828,79.393,244.222z"/>
		<path fill="#FFFFFF" d="M117.088,248.445c-0.633,0-1.234,0-1.877,0c-0.025-0.348-0.051-0.672-0.072-0.959
			c-0.587,0.333-1.124,0.771-1.737,0.959c-1.882,0.576-3.766-0.645-4.121-2.757c-0.166-0.989-0.139-2.084,0.1-3.058
			c0.581-2.381,3.323-3.195,5.217-1.641c0.094,0.076,0.194,0.145,0.437,0.326c0-0.787,0-1.445,0-2.105c0-0.67,0-1.34,0-2.041
			c0.722,0,1.367,0,2.055,0C117.088,240.912,117.088,244.641,117.088,248.445z M111.225,244.173c0.078,0.572,0.1,1.02,0.206,1.443
			c0.219,0.866,0.854,1.385,1.647,1.408c0.807,0.023,1.46-0.443,1.748-1.288c0.323-0.952,0.297-1.916-0.053-2.851
			c-0.257-0.684-0.772-1.094-1.531-1.131c-0.783-0.037-1.369,0.318-1.668,1.016C111.371,243.242,111.318,243.777,111.225,244.173z"
			/>
		<path fill="#FFFFFF" d="M189.59,241.287c0-1.431,0-2.746,0-4.105c0.719,0,1.363,0,2.063,0c0,3.725,0,7.468,0,11.253
			c-0.597,0-1.199,0-1.872,0c-0.019-0.315-0.039-0.642-0.062-1.048c-0.155,0.109-0.273,0.172-0.368,0.261
			c-1.602,1.506-4.019,1.181-5.051-0.754c-0.866-1.624-0.868-3.353-0.062-4.992c0.896-1.825,3.27-2.257,4.864-0.974
			C189.226,241.027,189.357,241.117,189.59,241.287z M185.805,244.218c0.074,0.531,0.095,0.957,0.195,1.361
			c0.225,0.907,0.855,1.43,1.68,1.445c0.817,0.016,1.494-0.496,1.756-1.369c0.273-0.914,0.252-1.836-0.07-2.734
			c-0.26-0.723-0.856-1.146-1.57-1.166c-0.768-0.021-1.4,0.354-1.68,1.097C185.941,243.314,185.891,243.824,185.805,244.218z"/>
		<path fill="#FFFFFF" d="M126.678,223.576c-0.301-0.029-0.596-0.05-0.889-0.09c-0.27-0.037-0.537-0.098-0.872-0.16
			c0.257-0.984,0.774-1.711,1.731-2.025c1.217-0.398,2.461-0.381,3.68-0.008c1.023,0.312,1.469,0.998,1.509,2.23
			c0.026,0.803-0.019,1.607,0.011,2.409c0.041,1.104,0.123,2.208,0.191,3.392c-0.418,0-0.998,0.086-1.529-0.037
			c-0.261-0.062-0.431-0.513-0.697-0.857c-0.099,0.07-0.275,0.197-0.451,0.324c-0.933,0.681-1.958,0.854-3.063,0.547
			c-0.929-0.26-1.579-1.053-1.628-1.963c-0.062-1.152,0.36-1.948,1.393-2.289c0.977-0.323,2.004-0.489,2.998-0.758
			c0.29-0.078,0.723-0.041,0.705-0.558c-0.015-0.487-0.169-0.854-0.668-1.03C128.143,222.365,127.436,222.615,126.678,223.576z
			 M129.672,225.531c-0.691,0.153-1.387,0.295-2.076,0.465c-0.48,0.119-0.867,0.354-0.83,0.941c0.03,0.48,0.464,0.87,1.034,0.932
			C129.197,228.021,129.999,227.05,129.672,225.531z"/>
		<path fill="#FFFFFF" d="M95.627,223.597c-0.59-0.083-1.152-0.163-1.779-0.252c0.246-1.008,0.771-1.729,1.723-2.045
			c1.216-0.401,2.463-0.381,3.68-0.01c1.025,0.312,1.473,0.996,1.513,2.229c0.026,0.822-0.021,1.648,0.011,2.473
			c0.041,1.082,0.125,2.166,0.195,3.328c-0.439,0-1.037,0.08-1.593-0.037c-0.233-0.051-0.376-0.52-0.61-0.871
			c-0.123,0.088-0.301,0.213-0.475,0.34c-0.932,0.682-1.957,0.857-3.062,0.551c-0.93-0.258-1.582-1.053-1.633-1.959
			c-0.064-1.154,0.358-1.951,1.389-2.293c0.977-0.322,2.004-0.489,3-0.758c0.287-0.078,0.721-0.039,0.707-0.553
			c-0.013-0.488-0.164-0.855-0.664-1.035C97.041,222.351,96.263,222.623,95.627,223.597z M98.607,225.523
			c-0.736,0.167-1.434,0.312-2.124,0.486c-0.491,0.123-0.861,0.388-0.784,0.97c0.074,0.573,0.492,0.815,1.005,0.883
			C98.087,228.046,98.885,227.098,98.607,225.523z"/>
		<path fill="#FFFFFF" d="M98.949,248.476c-0.559,0-1.107,0.09-1.602-0.035c-0.289-0.072-0.49-0.49-0.805-0.832
			c-0.057,0.041-0.233,0.166-0.408,0.294c-0.932,0.681-1.957,0.856-3.062,0.55c-0.93-0.257-1.582-1.051-1.633-1.959
			c-0.063-1.154,0.358-1.951,1.39-2.293c0.976-0.322,2.003-0.49,2.999-0.759c0.289-0.077,0.721-0.037,0.707-0.553
			c-0.012-0.487-0.164-0.854-0.664-1.034c-0.986-0.354-1.765-0.083-2.396,0.887c-0.56-0.076-1.139-0.156-1.783-0.244
			c0.246-1.011,0.771-1.729,1.723-2.045c1.216-0.402,2.462-0.382,3.68-0.012c1.025,0.312,1.473,0.997,1.514,2.229
			c0.026,0.822,0.004,1.647,0.004,2.473c0.001,0.55-0.035,1.104,0.019,1.646C98.682,247.328,98.826,247.855,98.949,248.476z
			 M96.439,244.683c-0.692,0.154-1.389,0.296-2.078,0.467c-0.482,0.119-0.867,0.355-0.826,0.945c0.033,0.48,0.469,0.867,1.039,0.927
			C95.975,247.169,96.777,246.191,96.439,244.683z"/>
		<path fill="#FFFFFF" d="M138.617,242.748c-0.594-0.084-1.156-0.164-1.791-0.254c0.288-1.021,0.814-1.754,1.81-2.063
			c1.138-0.354,2.295-0.345,3.438-0.037c1.16,0.312,1.643,0.978,1.686,2.287c0.026,0.802,0.004,1.606,0.005,2.409
			c0.001,0.57-0.036,1.145,0.019,1.711c0.05,0.537,0.197,1.064,0.317,1.67c-0.582,0-1.182,0.08-1.737-0.039
			c-0.231-0.051-0.371-0.525-0.598-0.876c-0.132,0.097-0.31,0.225-0.486,0.353c-0.934,0.678-1.959,0.854-3.064,0.543
			c-0.93-0.263-1.576-1.055-1.623-1.967c-0.061-1.152,0.364-1.945,1.398-2.287c0.976-0.322,2.002-0.488,3-0.757
			c0.287-0.078,0.718-0.043,0.698-0.562c-0.018-0.487-0.175-0.852-0.673-1.026C140.027,241.505,139.268,241.773,138.617,242.748z
			 M141.599,244.684c-0.69,0.151-1.386,0.291-2.073,0.46c-0.508,0.125-0.921,0.383-0.828,0.998c0.09,0.598,0.535,0.83,1.078,0.876
			C141.158,247.136,141.902,246.203,141.599,244.684z"/>
		<path fill="#FFFFFF" d="M165.789,247.667c-0.664,0.287-1.307,0.693-2.003,0.83c-0.587,0.115-1.265,0.017-1.849-0.164
			c-0.9-0.278-1.377-1.094-1.381-2.059c-0.003-1.006,0.422-1.747,1.364-2.059c0.977-0.323,2.003-0.494,2.997-0.766
			c0.307-0.084,0.764-0.037,0.742-0.592c-0.021-0.525-0.229-0.879-0.752-1.035c-0.996-0.296-1.655-0.045-2.329,0.922
			c-0.563-0.08-1.142-0.162-1.786-0.254c0.304-1.029,0.832-1.763,1.832-2.068c1.119-0.344,2.256-0.33,3.379-0.045
			c1.188,0.302,1.688,0.99,1.728,2.32c0.023,0.803-0.021,1.607,0.011,2.409c0.041,1.104,0.123,2.206,0.192,3.364
			c-0.436,0-1.022,0.088-1.558-0.038C166.121,248.373,165.961,247.905,165.789,247.667z M165.588,244.675
			c-0.73,0.164-1.428,0.307-2.118,0.479c-0.485,0.121-0.873,0.371-0.806,0.955c0.07,0.605,0.508,0.85,1.05,0.907
			C165.076,247.162,165.812,246.277,165.588,244.675z"/>
		<path fill="#FFFFFF" d="M126.426,244.935c-1.893,0-3.66,0-5.416,0c-0.148,0.924,0.293,1.691,1.107,1.992
			c0.867,0.32,1.413,0.066,2.111-1c0.323,0.029,0.657,0.051,0.988,0.091c0.312,0.038,0.623,0.096,0.936,0.146
			c-0.344,1.592-1.788,2.387-3.233,2.434c-3.374,0.105-4.378-2.317-4.146-4.75c0.059-0.614,0.242-1.254,0.522-1.803
			c0.72-1.41,2.275-2.08,3.913-1.787c1.734,0.311,2.794,1.371,3.051,3.082C126.335,243.833,126.365,244.333,126.426,244.935z
			 M124.248,243.565c0.026-1.144-0.672-1.854-1.738-1.81c-0.957,0.041-1.6,0.791-1.513,1.81
			C122.061,243.565,123.127,243.565,124.248,243.565z"/>
		<path fill="#FFFFFF" d="M155.326,225.248c-0.009,2.453-1.799,4.219-4.256,4.201c-2.547-0.019-4.201-1.726-4.188-4.314
			c0.014-2.372,1.804-4.111,4.223-4.105C153.6,221.035,155.335,222.771,155.326,225.248z M148.975,225.138
			c0.021,0.007,0.043,0.014,0.064,0.021c0.023,0.293,0.027,0.59,0.074,0.879c0.151,0.947,0.858,1.703,1.687,1.823
			c0.854,0.125,1.657-0.262,2.041-1.056c0.493-1.021,0.509-2.078,0.015-3.104c-0.334-0.695-0.906-1.088-1.705-1.101
			c-0.824-0.015-1.429,0.38-1.769,1.097C149.171,224.143,149.105,224.656,148.975,225.138z"/>
		<path fill="#FFFFFF" d="M73.334,248.433c0-1.422,0.001-2.792-0.001-4.16c0-0.316-0.005-0.634-0.017-0.949
			c-0.035-0.959-0.467-1.505-1.23-1.564c-0.91-0.072-1.729,0.486-1.857,1.355c-0.106,0.727-0.123,1.471-0.139,2.207
			c-0.021,1.029-0.005,2.059-0.005,3.12c-0.716,0-1.362,0-2.093,0c0-1.356,0-2.7,0-4.044c0-1.329,0-2.658,0-4.039
			c0.648,0,1.266,0,1.924,0c0.021,0.332,0.043,0.66,0.059,0.893c0.717-0.334,1.412-0.793,2.172-0.978
			c1.866-0.45,3.237,0.649,3.268,2.552c0.029,1.854,0.006,3.709,0.006,5.607C74.725,248.433,74.082,248.433,73.334,248.433z"/>
		<path fill="#FFFFFF" d="M110.385,229.291c-0.706,0-1.333,0-2.044,0c0-0.744,0.001-1.457-0.001-2.168
			c-0.004-0.973,0.001-1.943-0.02-2.916c-0.021-0.998-0.465-1.552-1.254-1.602c-0.945-0.061-1.734,0.512-1.842,1.445
			c-0.104,0.898-0.107,1.81-0.131,2.716c-0.018,0.819-0.004,1.644-0.004,2.511c-0.704,0-1.364,0-2.059,0c0-2.693,0-5.365,0-8.08
			c0.619,0,1.221,0,1.879,0c0.027,0.328,0.056,0.668,0.074,0.885c0.752-0.336,1.472-0.801,2.256-0.981
			c1.783-0.412,3.146,0.712,3.179,2.538c0.03,1.73,0.015,3.463,0.015,5.195C110.434,228.975,110.404,229.117,110.385,229.291z"/>
		<path fill="#FFFFFF" d="M164.543,229.294c-0.699,0-1.326,0-2.045,0c0-0.549,0.002-1.069,0-1.592c-0.006-1.16,0-2.322-0.02-3.484
			c-0.018-1.004-0.458-1.557-1.244-1.612c-0.946-0.065-1.763,0.504-1.848,1.437c-0.111,1.193-0.104,2.399-0.137,3.602
			c-0.015,0.525-0.002,1.053-0.002,1.631c-0.696,0-1.357,0-2.057,0c0-2.682,0-5.354,0-8.072c0.607,0,1.209,0,1.88,0
			c0.024,0.317,0.051,0.658,0.067,0.883c0.747-0.336,1.465-0.799,2.248-0.98c1.784-0.417,3.156,0.704,3.189,2.523
			c0.031,1.73,0.014,3.463,0.014,5.195C164.59,228.964,164.562,229.108,164.543,229.294z"/>
		<path fill="#FFFFFF" d="M179.725,240.328c0.74,0,1.371,0,2.049,0c0,2.692,0,5.365,0,8.094c-0.6,0-1.216,0-1.879,0
			c-0.02-0.326-0.041-0.655-0.055-0.873c-0.732,0.326-1.449,0.779-2.229,0.968c-1.762,0.424-3.17-0.716-3.205-2.521
			c-0.033-1.754-0.014-3.508-0.014-5.261c0-0.122,0.025-0.243,0.043-0.396c0.676,0,1.321,0,2.055,0c0,0.363-0.002,0.714,0,1.064
			c0.004,1.373-0.014,2.747,0.022,4.119c0.024,0.963,0.486,1.461,1.283,1.5c0.93,0.045,1.724-0.525,1.801-1.406
			c0.095-1.092,0.097-2.191,0.125-3.287C179.738,241.681,179.725,241.03,179.725,240.328z"/>
		<path fill="#FFFFFF" d="M63.547,240.326c0.736,0,1.366,0,2.046,0c0,2.707,0,5.395,0,8.117c-0.622,0-1.226,0-1.874,0
			c-0.021-0.344-0.043-0.672-0.057-0.895c-0.729,0.326-1.444,0.779-2.224,0.968c-1.765,0.425-3.179-0.71-3.21-2.515
			c-0.033-1.873-0.007-3.748-0.007-5.658c0.708,0,1.354,0,2.089,0c0,0.23,0,0.453,0,0.677c0.005,1.479-0.009,2.958,0.02,4.437
			c0.019,1.01,0.47,1.527,1.282,1.568c0.956,0.049,1.733-0.527,1.812-1.465c0.094-1.111,0.093-2.232,0.119-3.352
			C63.559,241.601,63.547,240.992,63.547,240.326z"/>
		<path fill="#FFFFFF" d="M116.704,222.761c0-0.584,0-1.059,0-1.569c2.21,0,4.378,0,6.626,0c0.042,0.685,0.208,1.341-0.365,1.979
			c-1.169,1.307-2.27,2.675-3.397,4.018c-0.116,0.141-0.226,0.289-0.413,0.529c1.523,0,2.942,0,4.417,0c0,0.562,0,1.052,0,1.574
			c-2.409,0-4.786,0-7.198,0c-0.102-0.785-0.098-1.459,0.497-2.113c1.149-1.266,2.201-2.62,3.292-3.938
			c0.103-0.125,0.191-0.26,0.354-0.48C119.208,222.761,117.998,222.761,116.704,222.761z"/>
		<path fill="#FFFFFF" d="M141.12,223.604c-0.626,0.079-1.248,0.158-1.916,0.243c-0.278-0.729-0.712-1.268-1.6-1.249
			c-0.995,0.021-1.668,0.61-1.782,1.764c-0.066,0.662-0.02,1.353,0.092,2.011c0.162,0.951,0.777,1.467,1.613,1.5
			c0.887,0.037,1.303-0.297,1.659-1.326c0.027-0.08,0.067-0.153,0.127-0.284c0.626,0.071,1.266,0.147,1.964,0.229
			c-0.141,0.844-0.49,1.518-1.078,2.062c-1.879,1.739-5.433,0.903-6.291-1.497c-0.434-1.208-0.428-2.452,0.01-3.662
			c0.625-1.73,2.389-2.645,4.371-2.307C139.92,221.365,140.887,222.21,141.12,223.604z"/>
		<path fill="#FFFFFF" d="M170.006,237.166c0.683,0,1.327,0,2.016,0c0,3.754,0,7.479,0,11.258c-0.654,0-1.314,0-2.016,0
			C170.006,244.693,170.006,240.966,170.006,237.166z"/>
		<path fill="#FFFFFF" d="M134.732,248.446c-0.686,0-1.33,0-2.014,0c0-3.753,0-7.479,0-11.259c0.649,0,1.309,0,2.014,0
			C134.732,240.919,134.732,244.645,134.732,248.446z"/>
		<path fill="#FFFFFF" d="M100.884,237.166c0.681,0,1.325,0,2.015,0c0,3.754,0,7.48,0,11.258c-0.656,0-1.314,0-2.015,0
			C100.884,244.692,100.884,240.966,100.884,237.166z"/>
		<path fill="#FFFFFF" d="M121.391,170.862c4.224,1.904,6.232,5.087,6.004,9.392c-0.031-0.014-0.084-0.021-0.091-0.043
			c-0.942-2.695-2.831-4.545-5.3-5.848c-0.48-0.253-0.662-0.527-0.627-1.066C121.43,172.509,121.391,171.716,121.391,170.862z"/>
		<path fill="#FFFFFF" d="M87.546,248.423c0-2.701,0-5.356,0-8.064c0.668,0,1.327,0,2.033,0c0,2.672,0,5.342,0,8.064
			C88.928,248.423,88.269,248.423,87.546,248.423z"/>
		<path fill="#FFFFFF" d="M114.822,229.294c-0.692,0-1.336,0-2.018,0c0-2.699,0-5.369,0-8.09c0.654,0,1.314,0,2.018,0
			C114.822,223.884,114.822,226.554,114.822,229.294z"/>
		<path fill="#FFFFFF" d="M145.014,221.199c0,2.698,0,5.367,0,8.081c-0.664,0-1.309,0-2.008,0c0-2.668,0-5.354,0-8.081
			C143.643,221.199,144.288,221.199,145.014,221.199z"/>
		<path fill="#FFFFFF" d="M122.674,114.823c2.557,0.346,4.936,1.016,7.328,2c-0.193,0.493-0.373,0.949-0.531,1.355
			c-1.664-0.483-3.233-0.95-4.811-1.392c-0.508-0.142-1.028-0.252-1.551-0.31c-0.41-0.045-0.558-0.21-0.508-0.609
			C122.639,115.559,122.646,115.244,122.674,114.823z"/>
		<path fill="#FFFFFF" d="M114.449,140.782c-1.468-0.401-2.361-1.602-2.389-2.898c-0.026-1.333,0.766-2.485,2.168-3.06
			c0.037,1.115,0.086,2.198,0.096,3.281c0.002,0.133-0.18,0.291-0.309,0.398c-0.581,0.482-0.605,0.951-0.104,1.489
			C114.127,140.223,114.271,140.517,114.449,140.782z"/>
		<path fill="#FFFFFF" d="M153.564,217.732c-0.735,0.771-1.322,1.486-2.02,2.068c-0.266,0.221-0.788,0.132-1.367,0.205
			c0.386-0.803,0.697-1.473,1.033-2.129c0.042-0.08,0.208-0.137,0.318-0.14C152.152,217.726,152.775,217.732,153.564,217.732z"/>
		<path fill="#FFFFFF" d="M112.807,218.013c0.684,0,1.326,0,2.014,0c0,0.584,0,1.142,0,1.75c-0.658,0-1.316,0-2.014,0
			C112.807,219.199,112.807,218.641,112.807,218.013z"/>
		<path fill="#FFFFFF" d="M87.561,238.93c0-0.61,0-1.169,0-1.761c0.675,0,1.318,0,2.014,0c0,0.58,0,1.152,0,1.761
			C88.906,238.93,88.264,238.93,87.561,238.93z"/>
		<path fill="#FFFFFF" d="M142.971,219.763c0-0.596,0-1.139,0-1.73c0.675,0,1.332,0,2.035,0c0,0.564,0,1.123,0,1.73
			C144.348,219.763,143.69,219.763,142.971,219.763z"/>
		<path fill="#FFFFFF" d="M128.488,100.407c-0.185,0.104-0.371,0.299-0.555,0.295c-1.49-0.034-2.978-0.104-4.467-0.171
			c-0.09-0.004-0.178-0.07-0.256-0.247c0.255,0,0.514,0.031,0.762-0.007c0.338-0.053,0.663-0.189,1.001-0.234
			c0.532-0.07,1.074-0.15,1.607-0.125c0.63,0.029,1.257,0.165,1.886,0.253C128.475,100.25,128.481,100.329,128.488,100.407z"/>
		<path fill="#FFFFFF" d="M121.846,153.25c0.628,0.379,1.356,0.495,1.383,1.274c0.029,0.881-0.731,1.125-1.383,1.511
			C121.846,155.105,121.846,154.234,121.846,153.25z"/>
		<path fill="#FFFFFF" d="M143.094,108.783c-0.67-0.429-1.339-0.856-2.008-1.284c0.447-0.686,0.566-0.709,1.389-0.262
			C143.137,107.597,143.364,108.151,143.094,108.783z"/>
		<path fill="#FFFFFF" d="M94.59,121.954c-0.069,0.288-0.119,0.494-0.2,0.831c-0.2-0.276-0.341-0.47-0.495-0.682
			C94.081,122.062,94.288,122.019,94.59,121.954z"/>
		<path fill="#FFFFFF" d="M77.873,169.183c-0.523-0.794-0.945-1.436-1.402-2.131C77.217,167.214,77.762,168.013,77.873,169.183z"/>
		<path fill="#FFFFFF" d="M96.049,152.915c-0.286-0.619-0.572-1.238-0.881-1.905c0.371,0.049,0.633,0.084,0.992,0.132
			c0.078,0.521,0.164,1.098,0.25,1.673C96.291,152.848,96.17,152.881,96.049,152.915z"/>
		<path fill="#FFFFFF" d="M138.27,132.107c0.16-0.168,0.291-0.396,0.488-0.496c0.619-0.316,0.697-0.484,0.376-1.053
			c-0.366-0.647-0.079-1.665,0.591-2.07c0.144-0.087,0.314-0.132,0.449-0.228c0.502-0.356,0.803-0.175,1.004,0.378
			c-0.135,0.108-0.275,0.224-0.442,0.359c0.15,0.27,0.29,0.521,0.431,0.772c-0.021,0.035-0.043,0.069-0.064,0.103
			c-0.227-0.145-0.453-0.288-0.678-0.436c-0.225-0.148-0.447-0.298-0.689-0.46c-0.365,0.426-0.7,0.733-0.218,1.308
			c0.884,1.054,0.701,1.52-0.638,1.902c-0.139,0.04-0.279,0.075-0.42,0.112C138.396,132.235,138.333,132.171,138.27,132.107z"/>
	</g>
</g>
</svg>
