<?xml version="1.0" encoding="utf-8"?>
<!-- Generator: Adobe Illustrator 16.0.0, SVG Export Plug-In . SVG Version: 6.00 Build 0)  -->
<!DOCTYPE svg PUBLIC "-//W3C//DTD SVG 1.1//EN" "http://www.w3.org/Graphics/SVG/1.1/DTD/svg11.dtd">
<svg version="1.1" id="Capa_1" xmlns="http://www.w3.org/2000/svg" xmlns:xlink="http://www.w3.org/1999/xlink" x="0px" y="0px"
	 width="734.339px" height="413.176px" viewBox="0 0 734.339 413.176" enable-background="new 0 0 734.339 413.176"
	 xml:space="preserve">
<g>
	<g>
		<g>
			<path fill="#F39200" d="M265.438,205.523c-0.002,0.02-0.008,0.039-0.016,0.056l-0.105,0.209
				c-0.014,0.029-0.037,0.054-0.064,0.071l-0.174,0.105c-0.051,0.03-0.115,0.032-0.168,0.007l-0.348-0.174l-0.643-0.428l-0.26-0.129
				c-0.018-0.008-0.031-0.019-0.045-0.032l-0.105-0.104l0,0c-0.014-0.013-0.023-0.029-0.031-0.046l-0.121-0.241l-0.227-0.169
				l-0.5-0.2l-2.795-0.714l-1.416,0.164l-0.551,0.423c-0.012,0.008-0.021,0.015-0.033,0.02l-0.383,0.174
				c-0.014,0.006-0.027,0.01-0.041,0.013l-0.383,0.07c-0.023,0.003-0.045,0.003-0.068-0.002l-0.312-0.069
				c-0.014-0.003-0.027-0.008-0.041-0.015l-0.277-0.139l-0.334-0.134l-0.291-0.145c-0.012-0.005-0.023-0.013-0.033-0.021
				l-0.209-0.174c-0.016-0.011-0.027-0.027-0.037-0.042l-0.105-0.174c-0.012-0.021-0.02-0.044-0.023-0.069l-0.031-0.252
				l-0.477-1.089c-0.004-0.011-0.008-0.022-0.01-0.034l-0.139-0.66c-0.002-0.012-0.004-0.024-0.004-0.036v-0.271l-0.086-0.172
				l-0.301-0.43l-0.266-0.295c-0.008-0.009-0.014-0.02-0.02-0.03l-0.252-0.44l-0.139-0.069l-0.182-0.031l-0.32,0.002
				c-0.041,0-0.08-0.014-0.113-0.041l-0.242-0.208c-0.008-0.008-0.018-0.016-0.023-0.025l-0.223-0.287l-0.195-0.11l-0.18-0.052
				l-0.221,0.048l-0.158,0.159l-0.338,0.54l-0.131,0.263c-0.016,0.029-0.037,0.054-0.066,0.071l-0.521,0.313l-0.553,0.245
				l-0.141,0.112l-0.371,0.493l-0.027,0.359l0.258,0.255c0.023,0.024,0.039,0.053,0.047,0.086l0.277,1.25
				c0.004,0.021,0.006,0.043,0.002,0.065l-0.064,0.425l0.057,0.399l0.336,0.306c0.018,0.016,0.031,0.035,0.041,0.056l0.174,0.382
				c0.01,0.022,0.016,0.046,0.016,0.071v0.001v0.346l0.033,0.256l0.236,0.734c0.016,0.05,0.008,0.108-0.023,0.152
				c-0.029,0.044-0.08,0.071-0.133,0.074l-0.66,0.035c-0.018,0.002-0.035-0.001-0.051-0.005l-0.258-0.063h-0.443l-0.199,0.141
				l-0.186,0.189c-0.016,0.015-0.033,0.027-0.053,0.036l-1.562,0.695c-0.014,0.005-0.027,0.011-0.043,0.013l-0.389,0.063
				l-0.449,0.24l-0.219,0.406l-0.221,0.299c-0.023,0.031-0.057,0.053-0.094,0.063l-0.383,0.105l-0.377,0.039l-0.303,0.062
				l-0.334,0.182l-0.363,0.396c-0.01,0.011-0.02,0.019-0.031,0.027l-0.834,0.555l-1.121,1.092c-0.035,0.034-0.082,0.055-0.129,0.048
				l-0.73-0.034l-1.207-0.3l-0.246,0.173l-0.431,0.896l-0.32,0.535l-0.607,0.718l-0.461,0.462l-0.153,0.207l0.029,0.421
				c0.002,0.027-0.002,0.053-0.011,0.077l-0.209,0.522l-0.463,0.787l-1.53,1.879l-0.303,0.674c-0.005,0.014-0.014,0.025-0.022,0.037
				l-0.125,0.157l-0.13,0.292c-0.017,0.038-0.045,0.067-0.081,0.085l-0.208,0.104c-0.027,0.013-0.058,0.021-0.087,0.018l-0.66-0.035
				c-0.04-0.002-0.077-0.019-0.107-0.044l-0.457-0.411l-0.055,0.344c-0.002,0.013-0.006,0.026-0.01,0.038l-0.521,1.286l-0.495,0.888
				l-1.733,2.326l-0.263,0.754l-0.103,0.953l-0.104,1.937l-0.105,0.777l-0.249,0.794c-0.004,0.013-0.01,0.024-0.017,0.036
				l-0.694,1.181c-0.011,0.017-0.022,0.033-0.038,0.046l-0.418,0.347l-1.11,0.73l-0.576,0.61c-0.015,0.018-0.034,0.03-0.056,0.039
				l-0.677,0.306l-0.487,0.356l-0.229,0.293l-0.785,1.37l-0.602,1.745l2.172,0.712l1.079,0.133l0.481,0.145
				c0.013,0.004,0.025,0.009,0.036,0.016l0.417,0.244l0.341,0.298c0.013,0.011,0.024,0.024,0.033,0.04l0.208,0.348l0.667,1.746
				l0.325,0.488l0.437,0.403l0.439,0.337c0.017,0.013,0.031,0.029,0.042,0.046l0.278,0.453c0.015,0.025,0.024,0.053,0.025,0.083
				l0.034,0.834c0.001,0.016-0.001,0.033-0.005,0.049l-1.319,5.176l-0.136,1.159l-0.033,0.717l0.104,0.805l0.194,0.607l0.369,0.57
				l1.407,1.576l0.362,0.541l0.254,0.505c0.013,0.025,0.02,0.05,0.02,0.078v0.486c0,0.018-0.004,0.037-0.009,0.054l-0.14,0.417
				c-0.006,0.017-0.014,0.032-0.023,0.047l-0.348,0.486l-0.535,0.573l-0.423,0.555l-0.226,0.675v0.77l0.202,1.023l0.503,1.074
				l0.771,0.971l0.898,0.633l13.803,4.854l0.629,0.098l0.842-0.003l2.209-0.172l0.014-0.001c0.01,0,0.02,0.001,0.027,0.002
				l1.842,0.296l0.217-0.287l0.068-11.233l-0.035-2.984l0.105-0.959c0.004-0.034,0.018-0.064,0.039-0.092l0.16-0.193l0.199-0.399
				l0.305-0.44l0.02-0.123l-0.051-0.128c-0.01-0.021-0.012-0.043-0.012-0.065v-0.242c0-0.046,0.018-0.09,0.049-0.123l0.209-0.208
				c0.01-0.009,0.02-0.017,0.031-0.023l0.455-0.28c0.039-0.023,0.086-0.03,0.131-0.019l0.139,0.034
				c0.07,0.018,0.123,0.08,0.131,0.153l0.029,0.331l0.055,0.067h0.068l0.232-0.059l0.674-0.403c0.025-0.015,0.057-0.024,0.088-0.024
				h0.141c0.045,0,0.088,0.018,0.121,0.05l0.104,0.104c0.014,0.013,0.023,0.026,0.031,0.041l0.271,0.487l0.664-0.09
				c0.025-0.004,0.053-0.001,0.078,0.006l0.209,0.07c0.02,0.007,0.037,0.017,0.053,0.03l0.127,0.102l0.018-0.03l0.133-0.699
				c0.014-0.071,0.07-0.129,0.145-0.139c0.072-0.013,0.145,0.026,0.18,0.089l0.277,0.521c0.018,0.033,0.023,0.069,0.02,0.104
				l-0.035,0.277l0.004,0.229l0.229-0.206c0.031-0.028,0.074-0.044,0.117-0.044h0.416c0.031,0,0.062,0.008,0.09,0.024l0.174,0.104
				c0.027,0.017,0.051,0.042,0.064,0.071l0.027,0.055l0.225-0.414c0.031-0.051,0.088-0.084,0.15-0.084h0.275
				c0.047,0,0.092,0.019,0.125,0.051v0.001l0.139,0.139c0.037,0.037,0.055,0.089,0.049,0.141l-0.02,0.188l0.162-0.209
				c0.021-0.027,0.049-0.048,0.082-0.059l0.209-0.069c0.035-0.012,0.076-0.012,0.113,0.001l0.539,0.19l0.33-0.091
				c0.01-0.002,0.023-0.005,0.035-0.005l0.543-0.032l0.092-0.062v-0.054l-0.102-0.126c-0.023-0.031-0.037-0.07-0.037-0.109v-0.14
				c0-0.064,0.037-0.125,0.096-0.154l0.764-0.383c0.047-0.023,0.102-0.024,0.15-0.002l0.334,0.152l0.537-0.095
				c0.035-0.006,0.074-0.001,0.107,0.016l0.139,0.068c0.037,0.02,0.068,0.052,0.084,0.091l0.121,0.305l0.09,0.072h0.113l0.158-0.067
				l0.051-0.085v-0.334c0-0.055,0.025-0.106,0.07-0.139l0.139-0.105c0.049-0.037,0.111-0.044,0.168-0.022l0.174,0.07
				c0.012,0.004,0.021,0.009,0.031,0.017l0.252,0.169l0.057-0.012l0.312-0.282l0.457-0.385c0.02-0.017,0.041-0.028,0.064-0.035
				l0.383-0.105c0.016-0.004,0.031-0.005,0.047-0.005h0.207c0.047,0,0.092,0.018,0.123,0.05l0.1,0.099l0.119,0.017l0.258-0.171
				l0.475-0.375c0.01-0.008,0.02-0.014,0.029-0.02l0.371-0.184l0.111-0.198c0.012-0.018,0.023-0.034,0.041-0.047l0.207-0.174
				c0.023-0.018,0.049-0.031,0.078-0.036l0.422-0.086l0.018-0.049l-0.066-0.152l-0.219-0.22c-0.043-0.044-0.061-0.109-0.045-0.169
				l0.105-0.381c0.012-0.048,0.045-0.088,0.09-0.11l0.363-0.183l0.291-0.545c0.016-0.027,0.039-0.051,0.066-0.066l2.014-1.147
				c0.012-0.005,0.023-0.01,0.035-0.015l0.453-0.139c0.023-0.007,0.049-0.009,0.074-0.006l0.242,0.035
				c0.049,0.007,0.092,0.032,0.119,0.073l0.225,0.32l0.182,0.121c0.021,0.014,0.039,0.034,0.053,0.055l0.17,0.284l0.414,0.097
				l0.229-0.279l0.197-0.464c0.012-0.023,0.027-0.045,0.047-0.062l0.277-0.242c0.021-0.02,0.047-0.032,0.076-0.039l0.764-0.173
				c0.039-0.009,0.08-0.004,0.117,0.014l0.277,0.139c0.047,0.023,0.08,0.067,0.092,0.118l0.174,0.798l0.041,0.101l0.033,0.023
				l0.057-0.016l0.152-0.866c0.008-0.035,0.023-0.067,0.049-0.092l0.314-0.313c0.055-0.055,0.141-0.066,0.207-0.028l0.242,0.139
				c0.029,0.016,0.051,0.038,0.066,0.063l0.232,0.4v-0.174l0,0l0.07-0.511c0.006-0.037,0.021-0.072,0.049-0.099l0.277-0.278
				c0.033-0.032,0.076-0.05,0.123-0.05h0.264l-0.043-0.026c-0.016-0.011-0.029-0.022-0.041-0.037l-0.174-0.208
				c-0.031-0.038-0.045-0.087-0.039-0.137l0.035-0.242c0.012-0.085,0.086-0.148,0.172-0.148h0.174c0.031,0,0.062,0.007,0.088,0.024
				l0.145,0.085l0.453,0.065l0.207,0.05l0.453-0.391c0.01-0.01,0.021-0.019,0.035-0.025l0.209-0.104
				c0.021-0.012,0.047-0.018,0.07-0.018l0.816-0.035l0.379-0.095l0.344-0.188l0.889-0.786c0.029-0.026,0.062-0.04,0.102-0.043
				l0.416-0.035c0.035-0.002,0.07,0.005,0.102,0.022l0.711,0.411l0.078-0.274c0.004-0.016,0.012-0.034,0.021-0.047l0.209-0.313
				c0.027-0.042,0.072-0.07,0.123-0.077l0.277-0.035c0.053-0.007,0.105,0.012,0.145,0.049l0.348,0.348
				c0.018,0.02,0.033,0.041,0.041,0.066l0.139,0.395l-0.057-0.557c-0.006-0.03-0.002-0.06,0.01-0.088l0.07-0.173
				c0.012-0.032,0.033-0.061,0.064-0.081l0.312-0.209l0.324-0.181c0.016-0.008,0.031-0.014,0.047-0.017l0.312-0.07
				c0.018-0.004,0.037-0.004,0.057-0.002l0.131,0.014l0.023-0.354l-0.066-0.397l-0.037-0.468c-0.002-0.023,0.002-0.046,0.008-0.067
				l0.105-0.312c0.014-0.044,0.045-0.081,0.088-0.101l0.277-0.139c0.014-0.007,0.029-0.013,0.045-0.016l0.902-0.173l0.471-0.134
				c0.033-0.01,0.066-0.01,0.1,0.001l0.346,0.104c0.043,0.013,0.08,0.042,0.102,0.081l0.297,0.526l0.293,0.234l0.484,0.129
				l0.871,0.065c0.039,0.002,0.074,0.016,0.102,0.041l0.156,0.138c0.037-0.031,0.082-0.044,0.133-0.041
				c0.053,0.007,0.1,0.036,0.127,0.081l0.129,0.208l0.191,0.021l0.277-0.092l0.418-0.097l0.033-0.035
				c0.025-0.025,0.057-0.04,0.092-0.048l2.477-0.481l0.436-0.217l0.221-0.251c0.014-0.016,0.027-0.029,0.045-0.038l0.314-0.173
				c0.033-0.02,0.074-0.027,0.111-0.02l0.209,0.035c0.041,0.007,0.08,0.029,0.107,0.062l0.139,0.174
				c0.016,0.02,0.027,0.042,0.033,0.066l0.156,0.624l0.055,0.031l0.082-0.098l0.062-0.369l-0.004-0.701
				c0-0.038,0.012-0.075,0.035-0.104l0.104-0.14c0.039-0.052,0.105-0.077,0.168-0.065l0.209,0.033
				c0.035,0.007,0.066,0.022,0.092,0.047l0.84,0.806l0.207,0.069l0.189-0.094l0.361-0.363c0.023-0.022,0.051-0.038,0.082-0.045
				l0.139-0.035c0.078-0.02,0.16,0.018,0.195,0.09l0.07,0.141c0.014,0.025,0.02,0.056,0.02,0.085l-0.033,0.621l0.049,0.115
				l0.342,0.05l0.932-0.419l0.221-0.221l0.154-0.222c0.023-0.033,0.059-0.057,0.1-0.067l0.277-0.068
				c0.014-0.004,0.029-0.005,0.043-0.005h0.312l0.57-0.068c0.014-0.002,0.029-0.001,0.045,0l0.486,0.07l0.492,0.162l0.17-0.064
				l0.281-0.407c0.033-0.047,0.086-0.074,0.145-0.074h0.172c0.033,0,0.062,0.009,0.09,0.025l0.799,0.488l0.389,0.177l0.123-0.015
				l0.139-0.385c0.008-0.018,0.016-0.035,0.027-0.051l0.139-0.173c0.041-0.049,0.102-0.074,0.166-0.062l0.209,0.036
				c0.031,0.005,0.062,0.02,0.088,0.042l0.342,0.312l0.055-0.018l0.088-0.131l0.131-0.593c0.006-0.022,0.014-0.042,0.025-0.06
				l0.139-0.208c0.033-0.048,0.088-0.077,0.146-0.077h0.207c0.041,0,0.08,0.014,0.111,0.041l0.209,0.174
				c0.025,0.021,0.045,0.05,0.053,0.083l0.1,0.326l0.141,0.227l0.135,0.088h0.328c0.018,0,0.033,0.002,0.049,0.008l0.242,0.068
				c0.018,0.005,0.031,0.012,0.045,0.02l0.236,0.148l0,0h0.172l0.221-0.056l0.77-0.602c0.037-0.031,0.088-0.044,0.137-0.035
				l0.207,0.035c0.025,0.004,0.053,0.014,0.072,0.029l0.244,0.174l0.227,0.193l0.135,0.039l0.152-0.087l0.117-0.147
				c0.045-0.058,0.123-0.078,0.191-0.056l0.209,0.07l0.451,0.224l0.258-0.06v-11.396l0.055-28.766l0.014-7.34l-0.332,0.312
				c-0.014,0.014-0.029,0.025-0.047,0.034l-0.314,0.139l-0.328,0.076l-0.365,0.167l-0.645,0.375l-1.297,1.06
				c-0.023,0.021-0.053,0.034-0.086,0.038l-1.365,0.205l-6.738,2.902l-1.826,1.275l-0.994,0.5l-2.148,0.636l-0.305,0.041
				l-0.266,0.001l-0.176,0.027l-0.195,0.139l-1.828,1.967l-1.787,1.509l-0.926,0.57c-0.012,0.008-0.027,0.016-0.043,0.02
				l-0.869,0.244c-0.029,0.008-0.062,0.008-0.094-0.001l-0.486-0.139c-0.037-0.01-0.072-0.035-0.094-0.067l-0.244-0.348
				l-0.193-0.322l-0.82-0.524l-0.23-0.087h-0.191h-0.002l-3.73,0.83l-0.232,0.106l-0.98,1.521c-0.023,0.036-0.061,0.062-0.102,0.074
				l-0.521,0.138c-0.023,0.006-0.049,0.008-0.074,0.004l-0.592-0.105c-0.025-0.004-0.047-0.013-0.068-0.027l-0.361-0.252
				l-1.018,0.572c-0.01,0.007-0.021,0.012-0.031,0.015l-0.557,0.173c-0.076,0.023-0.156-0.005-0.199-0.073l-0.232-0.365
				l-0.105-0.105l-0.254-0.127l-0.318-0.093l-0.166-0.018l-0.061,0.06l-0.473,0.915c-0.021,0.039-0.057,0.07-0.1,0.084l-0.209,0.07
				c-0.059,0.018-0.123,0.006-0.168-0.036l-0.32-0.267l-0.115,0.096c-0.031,0.026-0.07,0.042-0.111,0.042h-0.174l-1.084-0.167
				l-0.137,0.069l-0.447,0.376c-0.023,0.017-0.051,0.028-0.078,0.032l-0.242,0.035c-0.021,0.002-0.041,0.002-0.059-0.001
				l-0.174-0.035c-0.021-0.004-0.039-0.012-0.057-0.021l-0.521-0.313c-0.043-0.026-0.072-0.07-0.082-0.121l-0.121-0.736
				l-0.037-0.016l-0.334,0.062c-0.021,0.003-0.043,0.003-0.066,0l-0.172-0.036c-0.09-0.018-0.15-0.103-0.139-0.194l0.061-0.422
				l-0.102-0.152c-0.012-0.017-0.02-0.035-0.025-0.054l-0.088-0.304l-0.361-0.426c-0.014-0.015-0.023-0.032-0.029-0.051
				l-0.082-0.213l-0.111-0.056h-0.305c-0.049,0-0.096-0.02-0.127-0.055l-2.084-2.223c-0.012-0.01-0.02-0.022-0.025-0.035
				l-1.586-2.895l-1.059-1.024c-0.012-0.011-0.021-0.025-0.029-0.039l-0.139-0.243c-0.01-0.017-0.016-0.034-0.02-0.052l-0.049-0.235
				l-0.791,5.506L265.438,205.523z M246.861,219.536c-0.051,0-0.096-0.022-0.127-0.057c-0.025,0.013-0.051,0.023-0.082,0.023
				c-0.094,0-0.174-0.077-0.174-0.174c0-0.096,0.076-0.173,0.172-0.173h0.002c0.051,0,0.096,0.022,0.127,0.056
				c0.023-0.013,0.051-0.022,0.08-0.022h0.002c0.098,0,0.174,0.078,0.174,0.174C247.035,219.458,246.959,219.536,246.861,219.536z"
				/>
		</g>
	</g>
	<g>
		<g>
			<g>
				<g>
					<path fill="#FFFFFF" d="M520.093,175.865v28.459h-6.469l-0.009-19.213l-2.575,19.213h-4.588l-2.716-18.773l-0.009,18.773
						h-6.469v-28.459h9.576c0.283,1.711,0.576,3.728,0.878,6.05l1.051,7.239l1.7-13.289H520.093z"/>
					<path fill="#FFFFFF" d="M523.063,175.865h12.34v5.695h-4.939v5.396h4.623v5.414h-4.623v6.258h5.432v5.695h-12.832V175.865z"/>
					<path fill="#FFFFFF" d="M552.929,175.865v5.695h-4.395v22.764h-7.4V181.56h-4.377v-5.695H552.929z"/>
					<path fill="#FFFFFF" d="M567.409,175.865l4.231,28.459h-7.563l-0.396-5.115h-2.647l-0.444,5.115h-7.651l3.774-28.459H567.409z
						 M563.486,194.164c-0.374-3.224-0.75-7.208-1.127-11.953c-0.754,5.45-1.228,9.434-1.421,11.953H563.486z"/>
				</g>
			</g>
		</g>
	</g>
	<g>
		<g>
			<path fill="#F2961C" d="M498.204,225.136v4.156h-1.68v-12.987h3.686c1.043,0.141,1.926,0.571,2.646,1.291
				c0.86,0.866,1.29,1.905,1.29,3.117c0,1.223-0.43,2.266-1.29,3.129c-0.86,0.863-1.899,1.295-3.117,1.295H498.204z
				 M498.204,217.993v5.455h1.534c0.747,0,1.387-0.267,1.92-0.799c0.532-0.533,0.8-1.178,0.8-1.936c0-0.752-0.268-1.393-0.8-1.924
				c-0.533-0.53-1.173-0.795-1.92-0.795H498.204z"/>
			<path fill="#F2961C" d="M512.434,226.427l1.681,0.601c-0.412,0.568-0.709,0.944-0.894,1.128
				c-0.903,0.904-1.994,1.355-3.271,1.355c-1.272,0-2.359-0.452-3.264-1.355s-1.355-1.994-1.355-3.271
				c0-1.277,0.451-2.368,1.355-3.271c0.904-0.903,1.991-1.355,3.264-1.355c1.276,0,2.367,0.452,3.271,1.355
				c0.185,0.184,0.481,0.555,0.894,1.112l-1.681,0.617c-0.217-0.265-0.362-0.436-0.438-0.511c-0.562-0.563-1.244-0.844-2.045-0.844
				c-0.796,0-1.477,0.283-2.042,0.848s-0.849,1.249-0.849,2.05c0,0.795,0.283,1.476,0.849,2.041s1.246,0.848,2.042,0.848
				c0.801,0,1.484-0.281,2.053-0.844C512.073,226.854,512.217,226.687,512.434,226.427z"/>
			<path fill="#F2961C" d="M517.295,216.305c2.11,0.011,3.755,0.608,4.935,1.793c1.294,1.304,1.94,2.871,1.94,4.7
				c0,1.834-0.646,3.401-1.94,4.7c-1.18,1.185-2.824,1.783-4.935,1.794h-1.233v-12.987H517.295z M517.741,218.018v9.57
				c1.337,0,2.433-0.43,3.287-1.291c0.963-0.963,1.445-2.129,1.445-3.499c0-1.363-0.482-2.529-1.445-3.498
				C520.174,218.445,519.078,218.018,517.741,218.018z"/>
			<path fill="#F2961C" d="M533.757,225.197c0.881-0.658,1.634-1.219,2.256-1.685s1.178-0.966,1.668-1.501s0.734-1.131,0.734-1.786
				s-0.23-1.212-0.693-1.672s-1.021-0.69-1.676-0.69c-0.645,0-1.199,0.23-1.664,0.69c-0.396,0.395-0.642,1.077-0.739,2.045
				l-1.681-0.608c0.174-1.125,0.576-2.008,1.21-2.646c0.796-0.801,1.753-1.201,2.874-1.201c1.131,0,2.092,0.398,2.885,1.193
				s1.189,1.759,1.189,2.89c0,1.115-0.385,2.086-1.152,2.914c-0.487,0.525-1.055,1.03-1.701,1.514s-1.365,1.024-2.154,1.619
				c-0.693,0.514-1.08,0.958-1.161,1.331h6.169v1.688h-8.142C532.282,227.22,532.874,225.854,533.757,225.197z"/>
			<path fill="#F2961C" d="M546.216,222.604l-1.016-0.024v-1.664c0.736-0.011,1.221-0.061,1.453-0.15s0.487-0.28,0.764-0.572
				c0.275-0.292,0.414-0.627,0.414-1.006c0-0.374-0.131-0.688-0.39-0.946c-0.26-0.257-0.577-0.385-0.95-0.385
				c-0.367,0-0.682,0.127-0.941,0.381c-0.146,0.151-0.314,0.481-0.503,0.99l-1.567-0.617c0.233-0.73,0.518-1.255,0.854-1.575
				c0.6-0.595,1.32-0.893,2.158-0.893c0.855,0,1.58,0.3,2.176,0.901s0.893,1.315,0.893,2.143c0,0.844-0.5,1.659-1.502,2.443
				c0.482,0.032,0.988,0.306,1.518,0.819c0.774,0.833,1.162,1.808,1.162,2.922c0,1.125-0.396,2.087-1.189,2.886
				c-0.793,0.798-1.755,1.197-2.886,1.197c-1.12,0-2.078-0.4-2.874-1.201c-0.633-0.638-1.035-1.523-1.209-2.654l1.68-0.608
				c0.098,0.974,0.344,1.658,0.739,2.053c0.466,0.46,1.021,0.69,1.664,0.69c0.654,0,1.214-0.23,1.676-0.69
				c0.463-0.459,0.694-1.017,0.694-1.672c0-0.66-0.231-1.242-0.694-1.745C547.876,223.123,547.168,222.782,546.216,222.604z"/>
			<path fill="#F2961C" d="M554.792,227.385c0.229,0.227,0.344,0.503,0.344,0.828c0,0.335-0.114,0.617-0.344,0.844
				c-0.23,0.227-0.508,0.341-0.832,0.341c-0.32,0-0.596-0.114-0.828-0.341c-0.232-0.228-0.35-0.509-0.35-0.844
				c0-0.325,0.117-0.601,0.35-0.828c0.232-0.228,0.508-0.341,0.828-0.341C554.284,227.043,554.562,227.157,554.792,227.385z"/>
			<path fill="#F2961C" d="M563.196,216.305v12.987h-1.68v-10.795h-1.242l1.704-2.191H563.196z"/>
			<path fill="#F2961C" d="M574.462,216.305h1.47v7.8h1.145v1.68h-1.145v3.506h-1.681v-3.506h-5.316L574.462,216.305z
				 M574.251,220.096l-2.395,4.01h2.395V220.096z"/>
			<path fill="#F2961C" d="M581.833,221.281c0.48-0.52,1.279-0.779,2.395-0.779c1.119,0,2.051,0.371,2.791,1.112
				c0.898,0.904,1.348,1.994,1.348,3.271c0,1.271-0.449,2.358-1.348,3.259s-1.985,1.352-3.262,1.352
				c-1.272,0-2.359-0.449-3.264-1.348c-0.865-0.871-1.301-2.081-1.307-3.628v-0.024c0-1.532,0.414-2.879,1.242-4.042
				c0.832-1.169,1.959-2.551,3.376-4.147h2.208C584.048,218.34,582.655,219.998,581.833,221.281z M580.858,224.885
				c0,0.801,0.283,1.482,0.848,2.045c0.566,0.562,1.249,0.844,2.051,0.844c0.795,0,1.475-0.281,2.041-0.844
				c0.564-0.563,0.848-1.245,0.848-2.045s-0.283-1.483-0.848-2.046c-0.566-0.562-1.246-0.844-2.041-0.844
				c-0.802,0-1.484,0.281-2.051,0.844C581.142,223.402,580.858,224.084,580.858,224.885z"/>
			<path fill="#27515D" d="M498.456,236.253l4.213,7.281l4.196-7.281h1.534v12.987h-1.681v-9.383l-4.05,7.013l-4.066-7.013v9.383
				h-1.681v-12.987H498.456z"/>
			<path fill="#27515D" d="M518.229,236.253v1.68h-5.316v3.969h5.316v1.681h-5.316v3.969h5.316v1.688h-6.997v-12.987H518.229z"/>
			<path fill="#27515D" d="M524.364,237.934v11.307h-1.688v-11.307h-3.027v-1.68h7.743v1.68H524.364z"/>
			<path fill="#27515D" d="M533.245,236.253l4.725,12.987h-1.787l-1.672-4.594h-3.441l-1.664,4.594h-1.793l4.724-12.987H533.245z
				 M533.902,242.966l-1.112-3.044l-1.104,3.044H533.902z"/>
		</g>
	</g>
	<g>
		<g>
			<polyline fill="none" stroke="#FFFFFF" stroke-width="2" points="284.941,217.252 405.439,185.55 486.031,185.55 			"/>
			<g>
				<circle fill="#FFFFFF" cx="285.051" cy="217.224" r="2.256"/>
			</g>
		</g>
	</g>
</g>
</svg>
