<?xml version="1.0" encoding="utf-8"?>
<!-- Generator: Adobe Illustrator 16.0.0, SVG Export Plug-In . SVG Version: 6.00 Build 0)  -->
<!DOCTYPE svg PUBLIC "-//W3C//DTD SVG 1.1//EN" "http://www.w3.org/Graphics/SVG/1.1/DTD/svg11.dtd">
<svg version="1.1" id="Capa_1" xmlns="http://www.w3.org/2000/svg" xmlns:xlink="http://www.w3.org/1999/xlink" x="0px" y="0px"
	 width="734.338px" height="413.176px" viewBox="0 0 734.338 413.176" enable-background="new 0 0 734.338 413.176"
	 xml:space="preserve">
<g>
	<g>
		<g>
			<path fill="#F39200" d="M202.104,193.551l-0.077,0.183l0.196-0.04c0.02-0.004,0.04-0.004,0.06-0.001l0.241,0.035l0.932,0.283
				l1.509,0.229l0.224-0.14c0.027-0.018,0.06-0.027,0.092-0.027h0.174c0.029,0,0.059,0.008,0.084,0.022l0.6,0.333l0.179,0.03
				l2.056-0.003l0.889,0.105c0.031,0.003,0.06,0.015,0.084,0.034l0.797,0.597l0.176,0.023l0.264-0.146
				c0.021-0.012,0.043-0.019,0.068-0.021l0.354-0.031l0.269-0.12l0.122-0.092c0.016-0.011,0.031-0.021,0.05-0.026l0.28-0.093
				l0.217-0.186l0.475-0.287l0.254-1.777l-0.529-0.53l-0.68-0.542l-0.432-0.43l-0.324-0.396l-0.449-0.688l-0.159-0.134l-0.191-0.054
				l-0.468-0.034l-0.636-0.173h-0.256l-0.509,0.034l-0.621-0.071c-0.055-0.005-0.103-0.037-0.13-0.083l-0.104-0.173
				c-0.012-0.02-0.02-0.042-0.023-0.065l-0.028-0.207l-0.198-0.31l-0.1-0.05c-0.004,0.005-0.008,0.009-0.013,0.013l-0.487,0.417
				c-0.011,0.009-0.023,0.017-0.035,0.023l-0.278,0.139c-0.018,0.009-0.038,0.015-0.058,0.018l-0.312,0.034
				c-0.015,0.002-0.029,0.002-0.044,0l-0.243-0.034c-0.024-0.004-0.048-0.013-0.068-0.024l-0.277-0.174
				c-0.029-0.019-0.054-0.046-0.067-0.079l-0.104-0.243l-0.719-1.75l-0.573,0.906l-0.044,0.116l-0.033,0.771
				c0,0.014-0.002,0.027-0.006,0.04l-0.069,0.243c-0.007,0.018-0.014,0.034-0.022,0.049l-0.14,0.209l-0.369,0.373
				c-0.011,0.01-0.021,0.019-0.033,0.027l-0.174,0.104c-0.036,0.022-0.079,0.029-0.122,0.021l-0.522-0.103
				c-0.015-0.004-0.03-0.009-0.044-0.016l-0.417-0.208c-0.038-0.019-0.067-0.051-0.084-0.09l-0.052-0.128l-0.516-0.388
				c-0.016-0.01-0.027-0.024-0.038-0.039l-0.243-0.348c-0.008-0.011-0.016-0.022-0.02-0.035l-0.139-0.347l-0.077-0.339l-0.035-0.371
				l-0.146-0.289l-0.287-0.255c-0.054-0.049-0.072-0.126-0.045-0.194l0.521-1.32l0.328-0.517c0.013-0.02,0.029-0.037,0.049-0.051
				l0.104-0.069c0.019-0.012,0.04-0.021,0.062-0.026l0.174-0.034c0.017-0.003,0.031-0.005,0.049-0.002l0.416,0.035l0.167,0.039
				c0.02,0.005,0.037,0.014,0.055,0.025l0.199,0.132l0.124-0.646c0.002-0.017,0.01-0.032,0.017-0.047l0.513-0.991l0.09-0.336
				l-0.045-0.471l-0.229-0.172c-0.037-0.027-0.062-0.068-0.067-0.113l-0.07-0.452c-0.004-0.032,0-0.065,0.012-0.095l0.104-0.243
				c0.011-0.024,0.026-0.046,0.048-0.063l0.452-0.383c0.037-0.031,0.086-0.045,0.133-0.039l0.278,0.034
				c0.016,0.002,0.03,0.006,0.046,0.013l0.361,0.151l0.323-0.089c0.064-0.017,0.132,0.002,0.176,0.051l0.288,0.321l0.261,0.115
				l0.695,0.127l0.46-0.172l0.421-0.615l0.045-0.111l-0.171-0.197l-0.153-0.227c-0.011-0.016-0.02-0.035-0.023-0.054l-0.069-0.278
				c-0.005-0.014-0.006-0.028-0.006-0.042v-0.113l0,0l-0.101-0.126l-0.654-0.722l-0.252-0.186l-0.133-0.063l-0.15,0.021
				l-0.312,0.219c-0.029,0.021-0.064,0.031-0.1,0.031h-0.239l-0.869,0.4c-0.012,0.006-0.026,0.011-0.038,0.013l-0.174,0.035
				l-0.883,0.106c-0.045,0.006-0.094-0.008-0.131-0.038l-0.381-0.313c-0.037-0.028-0.059-0.07-0.063-0.115l-0.035-0.313v-2.217
				l-0.324,0.043c-0.017,0.002-0.034,0.002-0.051-0.001l-1.077-0.173c-0.013-0.002-0.024-0.005-0.035-0.01l-0.801-0.312
				l-0.546-0.326c-0.01-0.006-0.021-0.013-0.028-0.021l-0.452-0.417c-0.015-0.014-0.027-0.031-0.038-0.05l-0.25-0.504l-0.527-0.263
				l-0.737,0.796l-0.031,0.563l-0.281,1.312c-0.007,0.024-0.016,0.045-0.028,0.065c-0.015,0.019-0.032,0.036-0.053,0.048
				l-0.486,0.291l-0.729,0.438l-0.391,0.332l-0.393,1.242l0.063,0.932l1.89,3.126c0.008,0.013,0.016,0.026,0.018,0.042l0.244,0.833
				c0.006,0.018,0.006,0.038,0.006,0.057l-0.033,0.643l0.322,0.545c0.017,0.028,0.025,0.061,0.025,0.093l-0.034,1.072l0.12,0.121
				c0.014,0.013,0.024,0.027,0.031,0.044l0.801,1.564l0.257,0.416l0.814,0.713c0.038,0.033,0.06,0.08,0.06,0.13v0.614l0.094,0.164
				l0.118,0.071l0.163,0.055h0.518l0.273-0.152c0.081-0.045,0.186-0.018,0.233,0.062l0.104,0.174
				c0.02,0.034,0.028,0.073,0.022,0.112l-0.068,0.521c-0.003,0.017-0.009,0.033-0.014,0.048l-0.14,0.312
				c-0.013,0.029-0.033,0.052-0.058,0.071l-0.115,0.082l0.304,0.523c0.018,0.032,0.025,0.069,0.022,0.104l-0.028,0.286l0.086,0.13
				l0.181,0.127l0.301,0.031l0.124,0l0.297-0.269c0.023-0.02,0.051-0.033,0.079-0.041l0.257-0.056l0.057-0.014
				c0.02-0.003,0.039-0.005,0.059-0.002s0.038,0.009,0.057,0.017l0.209,0.104c0.045,0.022,0.078,0.064,0.09,0.113l0.035,0.139
				l0.035,0.14c0.003,0.013,0.005,0.027,0.005,0.042v0.208C202.118,193.506,202.113,193.529,202.104,193.551z"/>
		</g>
	</g>
	<g>
		<g>
			<g>
				<g>
					<path fill="#FFFFFF" d="M497.265,175.865h5.238c3.492,0,5.856,0.135,7.093,0.404s2.244,0.958,3.023,2.065
						s1.169,2.874,1.169,5.3c0,2.215-0.275,3.703-0.826,4.465s-1.635,1.219-3.252,1.371c1.465,0.363,2.449,0.85,2.953,1.459
						s0.817,1.169,0.94,1.679s0.185,1.913,0.185,4.21v7.506h-6.873v-9.457c0-1.523-0.12-2.467-0.36-2.83s-0.87-0.545-1.89-0.545
						v12.832h-7.4V175.865z M504.665,180.734v6.328c0.832,0,1.415-0.114,1.749-0.343s0.501-0.97,0.501-2.224v-1.564
						c0-0.902-0.161-1.494-0.483-1.775S505.521,180.734,504.665,180.734z"/>
					<path fill="#FFFFFF" d="M524.054,175.865v28.459h-7.4v-28.459H524.054z"/>
					<path fill="#FFFFFF" d="M542.704,184.478h-6.873v-2.109c0-0.984-0.088-1.611-0.264-1.881s-0.469-0.404-0.879-0.404
						c-0.445,0-0.782,0.182-1.011,0.545s-0.343,0.915-0.343,1.653c0,0.95,0.128,1.666,0.386,2.146
						c0.245,0.481,0.941,1.061,2.091,1.74c3.294,1.955,5.369,3.56,6.225,4.813s1.283,3.275,1.283,6.064
						c0,2.027-0.237,3.521-0.712,4.482s-1.392,1.767-2.751,2.417s-2.941,0.976-4.746,0.976c-1.98,0-3.671-0.375-5.071-1.125
						s-2.317-1.705-2.751-2.865s-0.65-2.807-0.65-4.939v-1.863h6.873v3.463c0,1.066,0.097,1.752,0.29,2.057s0.536,0.457,1.028,0.457
						s0.858-0.193,1.099-0.58s0.36-0.961,0.36-1.723c0-1.676-0.229-2.771-0.686-3.287c-0.469-0.516-1.623-1.377-3.463-2.584
						c-1.84-1.219-3.059-2.104-3.656-2.654s-1.093-1.312-1.485-2.285s-0.589-2.215-0.589-3.727c0-2.18,0.278-3.773,0.835-4.781
						s1.456-1.796,2.698-2.364s2.742-0.853,4.5-0.853c1.922,0,3.56,0.311,4.913,0.932s2.25,1.403,2.689,2.347
						s0.659,2.546,0.659,4.808V184.478z"/>
					<path fill="#FFFFFF" d="M558.432,175.865l4.232,28.459h-7.562l-0.397-5.115h-2.647l-0.445,5.115h-7.65l3.775-28.459H558.432z
						 M554.51,194.164c-0.375-3.224-0.75-7.208-1.127-11.953c-0.754,5.45-1.228,9.434-1.42,11.953H554.51z"/>
					<path fill="#FFFFFF" d="M563.921,175.865h5.238c3.492,0,5.856,0.135,7.093,0.404s2.244,0.958,3.023,2.065
						s1.169,2.874,1.169,5.3c0,2.215-0.275,3.703-0.826,4.465s-1.635,1.219-3.252,1.371c1.465,0.363,2.449,0.85,2.953,1.459
						s0.817,1.169,0.94,1.679s0.185,1.913,0.185,4.21v7.506h-6.873v-9.457c0-1.523-0.12-2.467-0.36-2.83s-0.87-0.545-1.89-0.545
						v12.832h-7.4V175.865z M571.321,180.734v6.328c0.832,0,1.415-0.114,1.749-0.343s0.501-0.97,0.501-2.224v-1.564
						c0-0.902-0.161-1.494-0.483-1.775S572.177,180.734,571.321,180.734z"/>
					<path fill="#FFFFFF" d="M596.102,175.865l4.232,28.459h-7.562l-0.397-5.115h-2.647l-0.445,5.115h-7.65l3.775-28.459H596.102z
						 M592.18,194.164c-0.375-3.224-0.75-7.208-1.127-11.953c-0.754,5.45-1.228,9.434-1.42,11.953H592.18z"/>
					<path fill="#FFFFFF" d="M608.991,175.865v22.764h4.5v5.695h-11.9v-28.459H608.991z"/>
					<path fill="#FFFFFF" d="M615.284,175.865h5.537c3.574,0,5.991,0.164,7.251,0.492s2.218,0.867,2.874,1.617
						s1.066,1.585,1.23,2.505s0.246,2.728,0.246,5.423v9.967c0,2.555-0.12,4.263-0.36,5.124s-0.659,1.535-1.257,2.021
						s-1.336,0.826-2.215,1.02s-2.203,0.29-3.973,0.29h-9.334V175.865z M622.685,180.734v18.721c1.066,0,1.723-0.214,1.969-0.642
						s0.369-1.591,0.369-3.489v-11.057c0-1.289-0.041-2.115-0.123-2.479s-0.27-0.63-0.562-0.8S623.493,180.734,622.685,180.734z"/>
					<path fill="#FFFFFF" d="M647.975,175.865l4.232,28.459h-7.562l-0.397-5.115H641.6l-0.445,5.115h-7.65l3.775-28.459H647.975z
						 M644.053,194.164c-0.375-3.224-0.75-7.208-1.127-11.953c-0.754,5.45-1.228,9.434-1.42,11.953H644.053z"/>
				</g>
			</g>
		</g>
	</g>
	<g>
		<g>
			<path fill="#F2961C" d="M498.211,225.136v4.156h-1.681v-12.987h3.685c1.045,0.141,1.927,0.571,2.646,1.291
				c0.86,0.866,1.291,1.905,1.291,3.117c0,1.223-0.431,2.266-1.291,3.129c-0.86,0.863-1.899,1.295-3.117,1.295H498.211z
				 M498.211,217.993v5.455h1.533c0.747,0,1.387-0.267,1.92-0.799c0.533-0.533,0.799-1.178,0.799-1.936
				c0-0.752-0.266-1.393-0.799-1.924c-0.533-0.53-1.173-0.795-1.92-0.795H498.211z"/>
			<path fill="#F2961C" d="M512.439,226.427l1.68,0.601c-0.411,0.568-0.709,0.944-0.893,1.128c-0.904,0.904-1.994,1.355-3.271,1.355
				c-1.271,0-2.359-0.452-3.263-1.355s-1.355-1.994-1.355-3.271c0-1.277,0.452-2.368,1.355-3.271
				c0.903-0.903,1.991-1.355,3.263-1.355c1.277,0,2.367,0.452,3.271,1.355c0.184,0.184,0.481,0.555,0.893,1.112l-1.68,0.617
				c-0.217-0.265-0.363-0.436-0.438-0.511c-0.563-0.563-1.245-0.844-2.046-0.844c-0.795,0-1.476,0.283-2.041,0.848
				s-0.848,1.249-0.848,2.05c0,0.795,0.282,1.476,0.848,2.041s1.246,0.848,2.041,0.848c0.801,0,1.486-0.281,2.055-0.844
				C512.079,226.854,512.223,226.687,512.439,226.427z"/>
			<path fill="#F2961C" d="M517.301,216.305c2.11,0.011,3.756,0.608,4.936,1.793c1.293,1.304,1.939,2.871,1.939,4.7
				c0,1.834-0.646,3.401-1.939,4.7c-1.18,1.185-2.825,1.783-4.936,1.794h-1.233v-12.987H517.301z M517.748,218.018v9.57
				c1.336,0,2.432-0.43,3.287-1.291c0.963-0.963,1.444-2.129,1.444-3.499c0-1.363-0.481-2.529-1.444-3.498
				C520.18,218.445,519.084,218.018,517.748,218.018z"/>
			<path fill="#F2961C" d="M533.762,225.197c0.883-0.658,1.635-1.219,2.257-1.685s1.179-0.966,1.668-1.501s0.735-1.131,0.735-1.786
				s-0.232-1.212-0.695-1.672c-0.462-0.46-1.021-0.69-1.676-0.69c-0.644,0-1.198,0.23-1.664,0.69
				c-0.395,0.395-0.641,1.077-0.738,2.045l-1.68-0.608c0.173-1.125,0.576-2.008,1.209-2.646c0.795-0.801,1.754-1.201,2.873-1.201
				c1.131,0,2.094,0.398,2.886,1.193c0.793,0.795,1.189,1.759,1.189,2.89c0,1.115-0.384,2.086-1.153,2.914
				c-0.486,0.525-1.053,1.03-1.699,1.514c-0.647,0.484-1.365,1.024-2.156,1.619c-0.692,0.514-1.079,0.958-1.16,1.331h6.169v1.688
				h-8.142C532.287,227.22,532.88,225.854,533.762,225.197z"/>
			<path fill="#F2961C" d="M546.611,229.454c-1.332,0-2.395-0.399-3.19-1.197c-0.796-0.798-1.192-1.76-1.192-2.886
				c0-1.385,0.76-2.633,2.28-3.742c-0.73-0.785-1.096-1.599-1.096-2.443c0-0.828,0.296-1.542,0.889-2.143s1.316-0.901,2.171-0.901
				h0.268c0.855,0,1.58,0.3,2.176,0.901s0.893,1.315,0.893,2.143c0,0.844-0.395,1.65-1.185,2.419c1.58,1.125,2.37,2.381,2.37,3.766
				c0,1.125-0.398,2.087-1.193,2.886C549.006,229.055,547.942,229.454,546.611,229.454z M546.611,227.733
				c0.854,0,1.514-0.23,1.977-0.69c0.463-0.459,0.693-1.017,0.693-1.672c0-0.66-0.23-1.236-0.689-1.729
				c-0.455-0.498-1.115-0.836-1.98-1.015c-0.871,0.179-1.534,0.517-1.988,1.015c-0.455,0.493-0.683,1.069-0.683,1.729
				c0,0.655,0.229,1.212,0.69,1.672C545.09,227.503,545.75,227.733,546.611,227.733z M546.57,217.863
				c-0.037-0.005-0.07-0.008-0.098-0.008c-0.367,0-0.682,0.128-0.941,0.385c-0.26,0.257-0.39,0.572-0.39,0.946
				c0,0.379,0.137,0.714,0.41,1.006c0.272,0.292,0.521,0.482,0.743,0.568c0.119,0.043,0.225,0.073,0.316,0.089
				c0.092-0.017,0.197-0.046,0.316-0.089c0.217-0.086,0.463-0.276,0.738-0.568c0.276-0.292,0.414-0.627,0.414-1.006
				c0-0.374-0.13-0.688-0.39-0.946c-0.26-0.257-0.576-0.385-0.95-0.385c-0.021,0-0.051,0.002-0.089,0.008H546.57z"/>
			<path fill="#F2961C" d="M554.684,227.385c0.23,0.227,0.345,0.503,0.345,0.828c0,0.335-0.114,0.617-0.345,0.844
				c-0.23,0.227-0.508,0.341-0.832,0.341c-0.319,0-0.596-0.114-0.828-0.341c-0.232-0.228-0.35-0.509-0.35-0.844
				c0-0.325,0.117-0.601,0.35-0.828c0.232-0.228,0.509-0.341,0.828-0.341C554.176,227.043,554.453,227.157,554.684,227.385z"/>
			<path fill="#F2961C" d="M563.101,221.211c-1.345,1.507-2.386,2.783-3.121,3.827c-0.735,1.044-1.131,2.462-1.185,4.253h-1.713
				c0.064-2.213,0.514-3.903,1.348-5.069c0.832-1.166,1.826-2.395,2.979-3.685s1.771-2.142,1.858-2.553h-6.169v-1.68h8.076
				C565.137,218.069,564.445,219.705,563.101,221.211z"/>
			<path fill="#F2961C" d="M573.673,216.305v12.987h-1.681v-10.795h-1.242l1.705-2.191H573.673z"/>
			<path fill="#F2961C" d="M585.256,216.305v12.987h-1.68v-10.795h-1.242l1.704-2.191H585.256z"/>
			<path fill="#27515D" d="M499.744,245.084h-1.533v4.156h-1.681v-12.987h3.685c1.045,0.141,1.927,0.571,2.646,1.291
				c0.86,0.866,1.291,1.905,1.291,3.117c0,1.223-0.431,2.268-1.291,3.133c-0.596,0.595-1.05,0.931-1.363,1.006l2.881,4.44h-2.037
				L499.744,245.084z M498.211,237.941v5.455h1.533c0.747,0,1.387-0.267,1.92-0.799c0.533-0.533,0.799-1.178,0.799-1.936
				c0-0.752-0.266-1.393-0.799-1.924c-0.533-0.53-1.173-0.795-1.92-0.795H498.211z"/>
			<path fill="#27515D" d="M507.877,236.253v12.987h-1.68v-12.987H507.877z"/>
			<path fill="#27515D" d="M513.787,242.576c-0.92-0.308-1.666-0.748-2.236-1.319c-0.571-0.571-0.856-1.278-0.856-2.123
				c0-0.828,0.296-1.54,0.889-2.135s1.312-0.893,2.155-0.893c0.833,0,1.547,0.295,2.143,0.885c0.336,0.325,0.617,0.842,0.844,1.55
				l-1.525,0.601c-0.184-0.498-0.352-0.823-0.504-0.974c-0.265-0.26-0.584-0.39-0.957-0.39c-0.379,0-0.701,0.131-0.967,0.394
				c-0.265,0.263-0.396,0.583-0.396,0.962s0.132,0.701,0.396,0.966c0.299,0.292,0.709,0.56,1.234,0.804
				c1.018,0.33,1.881,0.85,2.59,1.558c0.795,0.785,1.193,1.737,1.193,2.857s-0.396,2.077-1.189,2.869
				c-0.793,0.793-1.747,1.189-2.861,1.189c-1.121,0-2.076-0.398-2.865-1.193c-0.633-0.633-1.033-1.507-1.201-2.622l1.631-0.593
				c0.104,0.958,0.354,1.637,0.755,2.038c0.466,0.465,1.025,0.698,1.681,0.698c0.654,0,1.215-0.232,1.68-0.698
				c0.466-0.465,0.698-1.028,0.698-1.688c0-0.655-0.232-1.215-0.698-1.68C514.975,243.196,514.431,242.841,513.787,242.576z"/>
			<path fill="#27515D" d="M524.241,236.253l4.724,12.987h-1.785l-1.672-4.594h-3.441l-1.664,4.594h-1.795l4.725-12.987H524.241z
				 M524.898,242.966l-1.111-3.044l-1.104,3.044H524.898z"/>
			<path fill="#27515D" d="M533.803,245.084h-1.533v4.156h-1.681v-12.987h3.685c1.045,0.141,1.927,0.571,2.646,1.291
				c0.86,0.866,1.291,1.905,1.291,3.117c0,1.223-0.431,2.268-1.291,3.133c-0.596,0.595-1.05,0.931-1.363,1.006l2.881,4.44H536.4
				L533.803,245.084z M532.27,237.941v5.455h1.533c0.747,0,1.387-0.267,1.92-0.799c0.533-0.533,0.799-1.178,0.799-1.936
				c0-0.752-0.266-1.393-0.799-1.924c-0.533-0.53-1.173-0.795-1.92-0.795H532.27z"/>
			<path fill="#27515D" d="M544.915,236.253l4.724,12.987h-1.785l-1.672-4.594h-3.441l-1.664,4.594h-1.795l4.725-12.987H544.915z
				 M545.572,242.966l-1.111-3.044l-1.104,3.044H545.572z"/>
			<path fill="#27515D" d="M551.262,249.24v-12.987h1.681v11.298h4.643v1.688H551.262z"/>
			<path fill="#27515D" d="M560.767,236.253c2.11,0.011,3.755,0.608,4.935,1.793c1.294,1.304,1.94,2.871,1.94,4.7
				c0,1.834-0.646,3.401-1.94,4.7c-1.18,1.185-2.824,1.783-4.935,1.794h-1.233v-12.987H560.767z M561.213,237.966v9.57
				c1.337,0,2.433-0.43,3.287-1.291c0.963-0.963,1.445-2.129,1.445-3.499c0-1.363-0.482-2.529-1.445-3.498
				C563.646,238.394,562.55,237.966,561.213,237.966z"/>
			<path fill="#27515D" d="M574.095,236.253l4.724,12.987h-1.785l-1.672-4.594h-3.441l-1.664,4.594h-1.795l4.725-12.987H574.095z
				 M574.752,242.966l-1.111-3.044l-1.104,3.044H574.752z"/>
		</g>
	</g>
	<g>
		<g>
			<polyline fill="none" stroke="#FFFFFF" stroke-width="2" points="198.544,175.955 198.544,163.362 405.543,163.362 
				405.445,185.55 486.037,185.55 			"/>
			<g>
				<circle fill="#FFFFFF" cx="198.544" cy="175.842" r="2.255"/>
			</g>
		</g>
	</g>
</g>
</svg>
