<?xml version="1.0" encoding="utf-8"?>
<!-- Generator: Adobe Illustrator 22.0.1, SVG Export Plug-In . SVG Version: 6.00 Build 0)  -->
<svg version="1.1" id="Capa_1" xmlns="http://www.w3.org/2000/svg" xmlns:xlink="http://www.w3.org/1999/xlink" x="0px" y="0px"
	 viewBox="0 0 753.5 370.7" style="enable-background:new 0 0 753.5 370.7;" xml:space="preserve">
<style type="text/css">
	.st0{fill:#F2961C;}
	.st1{fill:#A0C219;}
	.st2{fill:#95C11F;}
	.st3{fill:#662483;}
	.st4{enable-background:new    ;}
	.st5{fill:#575756;}
	.st6{fill:#3C691A;}
	.st7{fill:none;stroke:#575756;stroke-width:2;}
	.st8{fill:#A5A5A5;}
	.st9{font-family:'ArialMT';}
	.st10{font-size:13.1799px;}
</style>
<g>
	<g>
		<path class="st0" d="M4.5,224.9v-6c0-1.6,0.1-2.9,0.4-3.7c0.3-0.9,0.6-1.5,1.1-2s1.1-0.7,1.7-0.9c0.7-0.2,1.7-0.2,3.2-0.2h2
			c1.5,0,2.5,0.1,3.2,0.5c0.7,0.3,1.2,0.9,1.5,1.7c0.4,0.8,0.5,1.9,0.5,3.2v1.6h9.2v5.9H4.5z M8.5,219h5.8c0-0.2,0-0.3,0-0.4
			c0-0.5-0.1-0.9-0.4-1.1s-0.8-0.3-1.7-0.3h-1.9c-0.8,0-1.3,0.1-1.5,0.4C8.6,217.7,8.5,218.2,8.5,219z"/>
		<path class="st0" d="M15.7,198v5.4h-2.2c-0.8,0-1.3,0.1-1.5,0.2c-0.3,0.1-0.4,0.3-0.4,0.7c0,0.3,0.1,0.6,0.4,0.7
			c0.2,0.1,0.8,0.2,1.6,0.2h8.8c0.7,0,1.2-0.1,1.5-0.3c0.3-0.2,0.5-0.4,0.5-0.7c0-0.4-0.2-0.6-0.5-0.8c-0.3-0.1-1-0.2-2-0.2h-2.2
			V198c1.5,0,2.6,0.1,3.4,0.2c0.7,0.1,1.5,0.4,2.3,0.9c0.8,0.5,1.4,1.2,1.8,2.1s0.6,1.9,0.6,3.2c0,1.6-0.3,2.9-0.8,3.8
			s-1.3,1.6-2.3,2c-1,0.4-2.4,0.6-4.2,0.6H15c-1.6,0-2.8-0.2-3.6-0.5c-0.8-0.3-1.5-1-2.2-2c-0.6-1-1-2.3-1-3.8
			c0-1.5,0.3-2.8,0.9-3.8s1.4-1.8,2.4-2.1C12.6,198.2,14,198,15.7,198z"/>
		<path class="st0" d="M4.5,196.1v-4.4c0-2.9,0.1-4.8,0.4-5.8c0.3-1,0.7-1.8,1.3-2.3c0.6-0.5,1.3-0.9,2-1s2.2-0.2,4.4-0.2h8
			c2,0,3.4,0.1,4.1,0.3c0.7,0.2,1.2,0.5,1.6,1c0.4,0.5,0.7,1.1,0.8,1.8c0.2,0.7,0.2,1.8,0.2,3.2v7.5L4.5,196.1L4.5,196.1z
			 M8.5,190.2h15c0-0.9-0.2-1.4-0.5-1.6c-0.3-0.2-1.3-0.3-2.8-0.3h-8.9c-1,0-1.7,0-2,0.1c-0.3,0.1-0.5,0.2-0.6,0.4
			C8.5,189.1,8.5,189.5,8.5,190.2z"/>
		<path class="st0" d="M8.7,169.5l2.5,0.2c-1.8-0.8-2.7-2-2.8-3.6h6.6c0,1,0.1,1.8,0.4,2.3c0.3,0.5,0.7,0.8,1.2,0.9
			c0.5,0.1,1.7,0.2,3.5,0.2h7.4v5.7H8.7V169.5z"/>
		<path class="st0" d="M18.4,152v7.4h4c0.8,0,1.4-0.1,1.6-0.2c0.2-0.1,0.4-0.4,0.4-0.7c0-0.4-0.2-0.7-0.5-0.9
			c-0.3-0.1-1-0.2-1.9-0.2h-2.5V152H21c1.2,0,2,0.1,2.7,0.2c0.6,0.1,1.3,0.5,2,1c0.7,0.5,1.2,1.2,1.6,2c0.4,0.8,0.5,1.9,0.5,3.1
			c0,1.2-0.2,2.3-0.5,3.2s-0.8,1.6-1.4,2.1c-0.6,0.5-1.3,0.9-2,1.1s-1.8,0.3-3.2,0.3h-5.5c-1.6,0-2.9-0.2-3.9-0.7
			c-0.9-0.4-1.7-1.2-2.2-2.2c-0.5-1-0.8-2.2-0.8-3.5c0-1.6,0.3-2.9,0.9-4s1.4-1.8,2.4-2.2c1-0.4,2.4-0.6,4.2-0.6L18.4,152L18.4,152z
			 M15.3,157.7h-1.4c-1,0-1.6,0.1-1.9,0.2c-0.3,0.1-0.4,0.3-0.4,0.6c0,0.4,0.1,0.6,0.4,0.7c0.2,0.1,0.9,0.1,1.9,0.1h1.4L15.3,157.7
			L15.3,157.7z"/>
		<path class="st0" d="M8.7,137.2h14.4c1.9,0,3.2,0,3.8,0.1c0.6,0.1,1.2,0.4,1.8,1c0.6,0.5,1.1,1.3,1.5,2.3c0.3,1,0.5,2.2,0.5,3.7
			c0,1.8-0.3,3.3-0.9,4.4s-1.8,1.7-3.6,1.7v-5.5c0.8,0,1.2-0.3,1.2-0.9c0-0.4-0.1-0.7-0.4-0.9c-0.3-0.1-0.8-0.2-1.6-0.2h-1.4
			c0.4,0.5,0.8,1,1,1.5s0.3,1.1,0.3,1.7c0,1-0.2,1.9-0.6,2.5c-0.4,0.7-1,1.1-1.6,1.4s-1.6,0.4-2.9,0.4h-6.8c-1.8,0-3.1-0.3-3.8-1
			c-0.8-0.6-1.2-1.6-1.2-2.9c0-0.7,0.1-1.4,0.4-2s0.7-1.1,1.3-1.6l-1.4-0.4L8.7,137.2L8.7,137.2z M13.6,142.9c-0.9,0-1.4,0-1.6,0.1
			c-0.2,0.1-0.4,0.3-0.4,0.7c0,0.3,0.1,0.6,0.4,0.7s0.8,0.2,1.6,0.2h6.3c0.8,0,1.4-0.1,1.6-0.2c0.2-0.1,0.4-0.3,0.4-0.6
			c0-0.4-0.1-0.6-0.5-0.7s-1-0.2-2-0.2L13.6,142.9L13.6,142.9z"/>
		<path class="st0" d="M4.5,129.3h3v5.9h-3V129.3z M8.7,129.3h18.7v5.9H8.7V129.3z"/>
		<path class="st0" d="M14.6,115.6v5h-1c-0.9,0-1.4,0-1.6,0.1s-0.3,0.3-0.3,0.7c0,0.3,0.1,0.6,0.3,0.7c0.2,0.2,0.5,0.2,1,0.2
			c0.6,0,1,0,1.3-0.1c0.3-0.1,0.6-0.3,0.9-0.7c0.3-0.4,0.8-1.2,1.4-2.5c0.8-1.7,1.6-2.7,2.3-3.3c0.7-0.5,1.8-0.8,3.1-0.8
			c1.5,0,2.7,0.2,3.4,0.6c0.8,0.4,1.4,1.1,1.8,2c0.4,0.9,0.6,2,0.6,3.3c0,1.4-0.2,2.7-0.7,3.7c-0.5,1-1.1,1.7-1.8,2.1
			c-0.8,0.4-1.9,0.6-3.5,0.6h-0.9v-5H22c1,0,1.7-0.1,2-0.2s0.5-0.4,0.5-0.8c0-0.4-0.1-0.7-0.3-0.8c-0.2-0.2-0.6-0.2-1.3-0.2
			c-0.9,0-1.5,0.1-1.7,0.3c-0.2,0.2-0.9,1.3-2,3.3c-0.9,1.7-1.8,2.7-2.6,3.1c-0.8,0.4-1.7,0.6-2.7,0.6c-1.5,0-2.6-0.2-3.3-0.6
			c-0.7-0.4-1.3-1.1-1.6-2c-0.4-0.9-0.6-2-0.6-3.3c0-1.2,0.2-2.3,0.5-3.2c0.3-0.9,0.7-1.5,1.2-2c0.5-0.5,1-0.7,1.4-0.8
			c0.4-0.1,1.1-0.1,2.1-0.1H14.6z"/>
		<path class="st0" d="M6.2,107.6h2.9v-1.5h3v1.5h10c1.2,0,1.9-0.1,2.1-0.2c0.1-0.1,0.2-0.7,0.2-1.6h3v2.3c0,1.3-0.1,2.2-0.2,2.8
			s-0.4,1-0.7,1.5c-0.4,0.4-0.8,0.7-1.3,0.8c-0.5,0.1-1.7,0.2-3.5,0.2h-9.5v1.2h-3v-1.2H6.2V107.6z"/>
		<path class="st0" d="M8.7,99.2l2.5,0.2c-1.8-0.8-2.7-2-2.8-3.6h6.6c0,1,0.1,1.8,0.4,2.3c0.3,0.5,0.7,0.8,1.2,0.9s1.7,0.2,3.5,0.2
			h7.4v5.7H8.7V99.2z"/>
		<path class="st0" d="M15.9,89.4v5.3h-1.3c-1.4,0-2.6-0.2-3.4-0.5c-0.8-0.3-1.5-1-2.1-2c-0.6-1-0.9-2.3-0.9-3.9
			c0-1.9,0.3-3.4,1-4.4c0.7-1,1.5-1.6,2.5-1.8c1-0.2,3-0.3,6.1-0.3h9.4v5.5h-1.7c0.7,0.3,1.2,0.8,1.5,1.3c0.3,0.6,0.5,1.2,0.5,2
			c0,1-0.3,1.9-0.8,2.7c-0.6,0.8-1.8,1.2-3.7,1.2h-1.5c-1.4,0-2.4-0.2-2.9-0.7c-0.5-0.4-1.1-1.5-1.8-3.3c-0.7-1.9-1.2-2.9-1.5-3
			c-0.3-0.1-0.8-0.2-1.6-0.2c-1,0-1.6,0.1-1.9,0.2c-0.3,0.1-0.4,0.4-0.4,0.7c0,0.4,0.1,0.6,0.4,0.7s0.9,0.1,1.9,0.1L15.9,89.4
			C15.9,89.4,15.9,89.4,15.9,89.4z M18.5,87.6c0.7,0.9,1.2,1.4,1.7,1.6c0.5,0.1,1.1,0.2,1.9,0.2c1,0,1.6-0.1,1.9-0.2
			c0.3-0.1,0.4-0.4,0.4-0.8c0-0.4-0.1-0.6-0.3-0.7c-0.2-0.1-0.8-0.2-1.7-0.2L18.5,87.6L18.5,87.6z"/>
		<path class="st0" d="M4.5,67h22.8v5.7H26c0.6,0.5,1,1.1,1.3,1.7c0.3,0.6,0.4,1.2,0.4,1.9c0,0.9-0.2,1.6-0.7,2.3
			c-0.5,0.6-1,1.1-1.6,1.2c-0.6,0.2-1.6,0.3-3,0.3h-8.8c-1.4,0-2.5-0.1-3.1-0.3C10,79.7,9.5,79.2,9,78.6c-0.5-0.7-0.7-1.4-0.7-2.4
			c0-0.7,0.1-1.4,0.4-1.9c0.3-0.6,0.6-1.1,1.1-1.6H4.5V67z M13.4,72.7c-0.7,0-1.1,0.1-1.4,0.2c-0.2,0.1-0.4,0.4-0.4,0.7
			c0,0.3,0.1,0.6,0.3,0.7c0.2,0.1,0.7,0.2,1.4,0.2h9.2c0.8,0,1.3-0.1,1.5-0.2c0.2-0.1,0.4-0.3,0.4-0.6c0-0.4-0.1-0.6-0.4-0.7
			c-0.3-0.1-0.9-0.2-2-0.2L13.4,72.7L13.4,72.7z"/>
		<path class="st0" d="M15.9,59.9v5.3h-1.3c-1.4,0-2.6-0.2-3.4-0.5c-0.8-0.3-1.5-1-2.1-2c-0.6-1-0.9-2.3-0.9-3.9
			c0-1.9,0.3-3.4,1-4.4c0.7-1,1.5-1.6,2.5-1.8c1-0.2,3-0.3,6.1-0.3h9.4v5.5h-1.7c0.7,0.3,1.2,0.8,1.5,1.3c0.3,0.6,0.5,1.2,0.5,2
			c0,1-0.3,1.9-0.8,2.7c-0.6,0.8-1.8,1.2-3.7,1.2h-1.5c-1.4,0-2.4-0.2-2.9-0.7S17.7,63,17,61.3c-0.7-1.9-1.2-2.9-1.5-3
			c-0.3-0.1-0.8-0.2-1.6-0.2c-1,0-1.6,0.1-1.9,0.2c-0.3,0.1-0.4,0.4-0.4,0.7c0,0.4,0.1,0.6,0.4,0.7s0.9,0.1,1.9,0.1L15.9,59.9
			C15.9,59.9,15.9,59.9,15.9,59.9z M18.5,58.1c0.7,0.9,1.2,1.4,1.7,1.6c0.5,0.1,1.1,0.2,1.9,0.2c1,0,1.6-0.1,1.9-0.2
			c0.3-0.1,0.4-0.4,0.4-0.8c0-0.4-0.1-0.6-0.3-0.7c-0.2-0.1-0.8-0.2-1.7-0.2L18.5,58.1L18.5,58.1z"/>
		<path class="st0" d="M14.6,38.8v5h-1c-0.9,0-1.4,0-1.6,0.1c-0.2,0.1-0.3,0.3-0.3,0.7c0,0.3,0.1,0.6,0.3,0.7c0.2,0.2,0.5,0.2,1,0.2
			c0.6,0,1,0,1.3-0.1c0.3-0.1,0.6-0.3,0.9-0.7c0.3-0.4,0.8-1.2,1.4-2.5c0.8-1.7,1.6-2.7,2.3-3.3c0.7-0.5,1.8-0.8,3.1-0.8
			c1.5,0,2.7,0.2,3.4,0.6s1.4,1.1,1.8,2c0.4,0.9,0.6,2,0.6,3.3c0,1.4-0.2,2.7-0.7,3.7c-0.5,1-1.1,1.7-1.8,2.1
			c-0.8,0.4-1.9,0.6-3.5,0.6h-0.9v-5H22c1,0,1.7-0.1,2-0.2s0.5-0.4,0.5-0.8c0-0.4-0.1-0.7-0.3-0.8c-0.2-0.2-0.6-0.2-1.3-0.2
			c-0.9,0-1.5,0.1-1.7,0.3c-0.2,0.2-0.9,1.3-2,3.3c-0.9,1.7-1.8,2.7-2.6,3.1c-0.8,0.4-1.7,0.6-2.7,0.6c-1.5,0-2.6-0.2-3.3-0.6
			s-1.3-1.1-1.6-2s-0.6-2-0.6-3.3c0-1.2,0.2-2.3,0.5-3.2c0.3-0.9,0.7-1.5,1.2-2c0.5-0.5,1-0.7,1.4-0.8c0.4-0.1,1.1-0.1,2.1-0.1
			C13.6,38.8,14.6,38.8,14.6,38.8z"/>
		<path class="st0" d="M44.5,213.4v5h-1c-0.9,0-1.4,0-1.6,0.1s-0.3,0.3-0.3,0.7c0,0.3,0.1,0.6,0.3,0.7c0.2,0.2,0.5,0.2,1,0.2
			c0.6,0,1,0,1.3-0.1c0.3-0.1,0.6-0.3,0.9-0.7c0.3-0.4,0.8-1.2,1.4-2.5c0.8-1.7,1.6-2.7,2.3-3.3c0.7-0.5,1.8-0.8,3.1-0.8
			c1.5,0,2.7,0.2,3.4,0.6c0.8,0.4,1.4,1.1,1.8,2c0.4,0.9,0.6,2,0.6,3.4c0,1.4-0.2,2.7-0.7,3.7c-0.5,1-1.1,1.7-1.8,2.1
			c-0.8,0.4-1.9,0.6-3.5,0.6h-0.9v-5h1.2c1,0,1.7-0.1,2-0.2s0.5-0.4,0.5-0.8c0-0.4-0.1-0.7-0.3-0.8c-0.2-0.2-0.6-0.2-1.3-0.2
			c-0.9,0-1.5,0.1-1.7,0.3c-0.2,0.2-0.9,1.3-2,3.3c-0.9,1.7-1.8,2.7-2.6,3.1c-0.8,0.4-1.7,0.6-2.7,0.6c-1.5,0-2.6-0.2-3.3-0.6
			s-1.3-1.1-1.6-2c-0.4-0.9-0.6-2-0.6-3.3c0-1.2,0.2-2.3,0.5-3.2s0.7-1.5,1.2-2c0.5-0.5,1-0.7,1.4-0.8c0.4-0.1,1.1-0.1,2.1-0.1
			L44.5,213.4L44.5,213.4z"/>
		<path class="st0" d="M48.2,198.6v7.4h4c0.8,0,1.4-0.1,1.6-0.2c0.2-0.1,0.4-0.4,0.4-0.7c0-0.4-0.2-0.7-0.5-0.9
			c-0.3-0.1-1-0.2-1.9-0.2h-2.5v-5.4h1.4c1.2,0,2,0.1,2.7,0.2c0.6,0.1,1.3,0.5,2,1c0.7,0.5,1.2,1.2,1.6,2c0.4,0.8,0.5,1.9,0.5,3.1
			c0,1.2-0.2,2.3-0.5,3.2s-0.8,1.6-1.4,2.1c-0.6,0.5-1.3,0.9-2,1.1c-0.7,0.2-1.8,0.3-3.2,0.3H45c-1.6,0-2.9-0.2-3.9-0.7
			c-0.9-0.4-1.7-1.2-2.2-2.2s-0.8-2.2-0.8-3.5c0-1.6,0.3-2.9,0.9-4s1.4-1.8,2.4-2.2c1-0.4,2.4-0.6,4.2-0.6L48.2,198.6L48.2,198.6z
			 M45.2,204.3h-1.4c-1,0-1.6,0.1-1.9,0.2c-0.3,0.1-0.4,0.3-0.4,0.6c0,0.4,0.1,0.6,0.4,0.7c0.2,0.1,0.9,0.1,1.9,0.1h1.4L45.2,204.3
			L45.2,204.3z"/>
		<path class="st0" d="M38.5,183.8H53c1.9,0,3.2,0,3.8,0.1c0.6,0.1,1.2,0.4,1.8,1c0.6,0.5,1.1,1.3,1.5,2.3c0.3,1,0.5,2.2,0.5,3.7
			c0,1.8-0.3,3.3-0.9,4.4s-1.8,1.7-3.6,1.7v-5.5c0.8,0,1.2-0.3,1.2-0.9c0-0.4-0.1-0.7-0.4-0.9c-0.3-0.1-0.8-0.2-1.6-0.2h-1.4
			c0.4,0.5,0.8,1,1,1.5s0.3,1.1,0.3,1.7c0,1-0.2,1.9-0.6,2.5c-0.4,0.7-1,1.1-1.6,1.4s-1.6,0.4-2.9,0.4h-6.8c-1.8,0-3.1-0.3-3.8-1
			c-0.8-0.6-1.2-1.6-1.2-2.9c0-0.7,0.1-1.4,0.4-2s0.7-1.1,1.3-1.6l-1.4-0.4L38.5,183.8L38.5,183.8z M43.5,189.5
			c-0.9,0-1.4,0-1.6,0.1c-0.2,0.1-0.4,0.3-0.4,0.7c0,0.3,0.1,0.6,0.4,0.7c0.3,0.1,0.8,0.2,1.6,0.2h6.3c0.8,0,1.4-0.1,1.6-0.2
			c0.2-0.1,0.4-0.3,0.4-0.6c0-0.4-0.2-0.6-0.5-0.7c-0.3-0.1-1-0.2-2-0.2H43.5z"/>
		<path class="st0" d="M33.5,170.4l3.8,4.6v2.9l-3.8-2.5V170.4z M38.5,168.7h18.7v5.8l-1.6-0.1c0.6,0.4,1.1,0.9,1.4,1.5
			c0.3,0.6,0.5,1.2,0.5,2c0,0.9-0.2,1.6-0.5,2.1s-0.7,1-1.2,1.2s-1,0.4-1.6,0.5c-0.5,0.1-1.6,0.1-3.2,0.1H38.5v-5.7h12.7
			c1.5,0,2.3,0,2.6-0.1c0.3-0.1,0.4-0.3,0.4-0.7c0-0.4-0.1-0.7-0.4-0.8c-0.3-0.1-1.2-0.1-2.7-0.1H38.5V168.7z"/>
		<path class="st0" d="M38.5,160.9l1.7,0.1c-0.7-0.4-1.2-0.9-1.5-1.5s-0.5-1.3-0.5-2.1c0-1,0.2-1.8,0.7-2.4c0.5-0.6,1-1,1.7-1.2
			c0.7-0.2,1.9-0.3,3.5-0.3h13.1v5.7h-13c-1.3,0-2.1,0-2.4,0.1c-0.3,0.1-0.4,0.3-0.4,0.7c0,0.4,0.2,0.7,0.5,0.8
			c0.3,0.1,1.2,0.2,2.6,0.2h12.6v5.7H38.5V160.9z"/>
		<path class="st0" d="M38.5,140.8L41,141c-1.8-0.8-2.7-2-2.8-3.6h6.6c0,1,0.1,1.8,0.4,2.3s0.7,0.8,1.2,0.9s1.7,0.2,3.5,0.2h7.4v5.7
			H38.5V140.8z"/>
		<path class="st0" d="M33.5,124.9l3.8,4.6v2.9l-3.8-2.5V124.9z M48.2,123.2v7.4h4c0.8,0,1.4-0.1,1.6-0.2c0.2-0.1,0.4-0.4,0.4-0.7
			c0-0.4-0.2-0.7-0.5-0.9c-0.3-0.1-1-0.2-1.9-0.2h-2.5v-5.4h1.4c1.2,0,2,0.1,2.7,0.2c0.6,0.1,1.3,0.5,2,1c0.7,0.5,1.2,1.2,1.6,2
			c0.4,0.8,0.5,1.9,0.5,3.1c0,1.2-0.2,2.3-0.5,3.2c-0.3,0.9-0.8,1.6-1.4,2.2s-1.3,0.9-2,1.1c-0.7,0.2-1.8,0.3-3.2,0.3H45
			c-1.6,0-2.9-0.2-3.9-0.7c-0.9-0.4-1.7-1.2-2.2-2.2c-0.5-1-0.8-2.2-0.8-3.5c0-1.6,0.3-2.9,0.9-4s1.4-1.8,2.4-2.2
			c1-0.4,2.4-0.6,4.2-0.6L48.2,123.2L48.2,123.2z M45.2,128.9h-1.4c-1,0-1.6,0.1-1.9,0.2c-0.3,0.1-0.4,0.3-0.4,0.6
			c0,0.4,0.1,0.6,0.4,0.7c0.2,0.1,0.9,0.1,1.9,0.1h1.4L45.2,128.9L45.2,128.9z"/>
		<path class="st0" d="M38.5,108.4H53c1.9,0,3.2,0,3.8,0.1c0.6,0.1,1.2,0.4,1.8,1c0.6,0.5,1.1,1.3,1.5,2.3c0.3,1,0.5,2.2,0.5,3.7
			c0,1.8-0.3,3.3-0.9,4.4c-0.6,1.1-1.8,1.7-3.6,1.7V116c0.8,0,1.2-0.3,1.2-0.9c0-0.4-0.1-0.7-0.4-0.9S56,114,55.2,114h-1.4
			c0.4,0.5,0.8,1,1,1.5s0.3,1.1,0.3,1.7c0,1-0.2,1.9-0.6,2.5c-0.4,0.7-1,1.1-1.6,1.4c-0.7,0.2-1.6,0.4-2.9,0.4h-6.8
			c-1.8,0-3.1-0.3-3.8-1c-0.8-0.6-1.2-1.6-1.2-2.9c0-0.7,0.1-1.4,0.4-2c0.3-0.6,0.7-1.1,1.3-1.6l-1.4-0.4L38.5,108.4L38.5,108.4z
			 M43.5,114.1c-0.9,0-1.4,0.1-1.6,0.1c-0.2,0.1-0.4,0.3-0.4,0.7c0,0.3,0.1,0.6,0.4,0.7c0.3,0.1,0.8,0.2,1.6,0.2h6.3
			c0.8,0,1.4-0.1,1.6-0.2c0.2-0.1,0.4-0.3,0.4-0.6c0-0.4-0.2-0.6-0.5-0.7s-1-0.2-2-0.2L43.5,114.1L43.5,114.1z"/>
		<path class="st0" d="M34.4,100.5h3v5.9h-3V100.5z M38.5,100.5h18.7v5.9H38.5V100.5z"/>
		<path class="st0" d="M38.5,92.8l1.8,0.1c-0.7-0.4-1.2-1-1.6-1.6c-0.4-0.6-0.5-1.3-0.5-2.1c0-1.5,0.7-2.7,2.1-3.6
			c-0.7-0.5-1.2-1-1.6-1.6c-0.4-0.6-0.5-1.3-0.5-2c0-1,0.2-1.8,0.7-2.4c0.5-0.6,1-1,1.7-1.2c0.7-0.2,1.8-0.3,3.3-0.3h13.3v5.5H45.1
			c-1.6,0-2.6,0.1-3,0.2c-0.4,0.1-0.6,0.4-0.6,0.8c0,0.4,0.2,0.7,0.6,0.8c0.4,0.1,1.4,0.2,3,0.2h12.2v5.5H45.4c-1.8,0-2.9,0-3.3,0.1
			c-0.4,0.1-0.6,0.3-0.6,0.7c0,0.3,0.1,0.5,0.3,0.6c0.2,0.2,0.4,0.3,0.7,0.3c0.3,0,0.9,0,1.8,0h13v5.5H38.5V92.8z"/>
		<path class="st0" d="M48.2,63.3v7.4h4c0.8,0,1.4-0.1,1.6-0.2c0.2-0.1,0.4-0.4,0.4-0.7c0-0.4-0.2-0.7-0.5-0.9
			c-0.3-0.1-1-0.2-1.9-0.2h-2.5v-5.4h1.4c1.2,0,2,0.1,2.7,0.2c0.6,0.1,1.3,0.5,2,1c0.7,0.5,1.2,1.2,1.6,2c0.4,0.8,0.5,1.9,0.5,3.1
			c0,1.2-0.2,2.3-0.5,3.2c-0.3,0.9-0.8,1.6-1.4,2.2c-0.6,0.5-1.3,0.9-2,1.1s-1.8,0.3-3.2,0.3H45c-1.6,0-2.9-0.2-3.9-0.7
			c-0.9-0.4-1.7-1.2-2.2-2.2c-0.5-1-0.8-2.2-0.8-3.5c0-1.6,0.3-2.9,0.9-4s1.4-1.8,2.4-2.2c1-0.4,2.4-0.6,4.2-0.6L48.2,63.3
			L48.2,63.3z M45.2,69h-1.4c-1,0-1.6,0.1-1.9,0.2c-0.3,0.1-0.4,0.3-0.4,0.6c0,0.4,0.1,0.6,0.4,0.7c0.2,0.1,0.9,0.1,1.9,0.1h1.4
			L45.2,69L45.2,69z"/>
		<path class="st0" d="M38.5,55.6l1.7,0.1c-0.7-0.4-1.2-0.9-1.5-1.5c-0.3-0.6-0.5-1.3-0.5-2.1c0-1,0.2-1.8,0.7-2.4
			c0.5-0.6,1-1,1.7-1.2s1.9-0.3,3.5-0.3h13.1V54h-13c-1.3,0-2.1,0-2.4,0.1c-0.3,0.1-0.4,0.3-0.4,0.7c0,0.4,0.2,0.7,0.5,0.8
			c0.3,0.1,1.2,0.2,2.6,0.2h12.6v5.7H38.5V55.6z"/>
		<path class="st0" d="M64.3,212.1h22.8v5.7h-1.4c0.6,0.5,1,1.1,1.3,1.7c0.3,0.6,0.4,1.2,0.4,1.9c0,0.9-0.2,1.6-0.7,2.3
			c-0.5,0.6-1,1.1-1.6,1.2s-1.6,0.3-3,0.3h-8.8c-1.4,0-2.5-0.1-3.1-0.3c-0.6-0.2-1.1-0.6-1.6-1.3s-0.7-1.4-0.7-2.4
			c0-0.7,0.1-1.4,0.4-1.9c0.3-0.6,0.6-1.1,1.1-1.6h-5.3L64.3,212.1L64.3,212.1z M73.1,217.8c-0.7,0-1.1,0.1-1.4,0.2
			c-0.2,0.1-0.4,0.4-0.4,0.7c0,0.3,0.1,0.6,0.3,0.7c0.2,0.1,0.7,0.2,1.4,0.2h9.2c0.8,0,1.3-0.1,1.5-0.2c0.2-0.1,0.4-0.3,0.4-0.6
			c0-0.4-0.1-0.6-0.4-0.7c-0.3-0.1-0.9-0.2-2-0.2L73.1,217.8L73.1,217.8z"/>
		<path class="st0" d="M78.1,197.2v7.4h4c0.8,0,1.4-0.1,1.6-0.2c0.2-0.1,0.4-0.4,0.4-0.7c0-0.4-0.2-0.7-0.5-0.9
			c-0.3-0.1-1-0.2-1.9-0.2h-2.5v-5.4h1.4c1.2,0,2,0.1,2.7,0.2c0.6,0.1,1.3,0.5,2,1s1.2,1.2,1.6,2s0.5,1.9,0.5,3.1
			c0,1.2-0.2,2.3-0.5,3.2s-0.8,1.6-1.4,2.1c-0.6,0.5-1.3,0.9-2,1.1s-1.8,0.3-3.2,0.3h-5.5c-1.6,0-2.9-0.2-3.9-0.7
			c-0.9-0.4-1.7-1.2-2.2-2.2c-0.5-1-0.8-2.2-0.8-3.5c0-1.6,0.3-2.9,0.9-4s1.4-1.8,2.4-2.2c1-0.4,2.4-0.6,4.2-0.6L78.1,197.2
			L78.1,197.2z M75.1,202.9h-1.4c-1,0-1.6,0.1-1.9,0.2c-0.3,0.1-0.4,0.3-0.4,0.6c0,0.4,0.1,0.6,0.4,0.7c0.2,0.1,0.9,0.1,1.9,0.1h1.4
			L75.1,202.9L75.1,202.9L75.1,202.9z"/>
		<path class="st0" d="M74.4,178.6v5h-1c-0.9,0-1.4,0.1-1.6,0.1c-0.2,0.1-0.3,0.3-0.3,0.7c0,0.3,0.1,0.6,0.3,0.7
			c0.2,0.2,0.5,0.2,1,0.2c0.6,0,1,0,1.3-0.1c0.3-0.1,0.6-0.3,0.9-0.7c0.3-0.4,0.8-1.2,1.4-2.5c0.8-1.7,1.6-2.7,2.3-3.3
			c0.7-0.5,1.8-0.8,3.1-0.8c1.5,0,2.7,0.2,3.4,0.6c0.8,0.4,1.4,1.1,1.8,2c0.4,0.9,0.6,2,0.6,3.4c0,1.4-0.2,2.7-0.7,3.7
			c-0.5,1-1.1,1.7-1.8,2.1c-0.8,0.4-1.9,0.6-3.5,0.6h-0.9v-5h1.2c1,0,1.7-0.1,2-0.2c0.3-0.1,0.5-0.4,0.5-0.8c0-0.4-0.1-0.7-0.3-0.8
			c-0.2-0.2-0.6-0.2-1.3-0.2c-0.9,0-1.5,0.1-1.7,0.3c-0.2,0.2-0.9,1.3-2,3.3c-0.9,1.7-1.8,2.7-2.6,3.1c-0.8,0.4-1.7,0.6-2.7,0.6
			c-1.5,0-2.6-0.2-3.3-0.6c-0.7-0.4-1.3-1.1-1.6-2s-0.6-2-0.6-3.3c0-1.2,0.2-2.3,0.5-3.2c0.3-0.9,0.7-1.5,1.2-2
			c0.5-0.5,1-0.7,1.4-0.8c0.4-0.1,1.1-0.1,2.1-0.1L74.4,178.6L74.4,178.6z"/>
		<path class="st0" d="M75.7,171.5v5.3h-1.3c-1.4,0-2.6-0.2-3.3-0.5c-0.8-0.3-1.5-1-2.1-2c-0.6-1-0.9-2.3-0.9-3.9
			c0-1.9,0.3-3.4,1-4.4c0.7-1,1.5-1.6,2.5-1.8c1-0.2,3-0.3,6.1-0.3h9.4v5.5h-1.7c0.7,0.3,1.2,0.8,1.5,1.3c0.3,0.6,0.5,1.2,0.5,2
			c0,1-0.3,1.9-0.8,2.7c-0.6,0.8-1.8,1.2-3.7,1.2h-1.5c-1.4,0-2.4-0.2-2.9-0.7c-0.5-0.4-1.1-1.5-1.8-3.3c-0.7-1.9-1.2-2.9-1.5-3
			c-0.3-0.1-0.8-0.2-1.6-0.2c-1,0-1.6,0.1-1.9,0.2c-0.3,0.1-0.4,0.4-0.4,0.7c0,0.4,0.1,0.6,0.4,0.7s0.9,0.1,1.9,0.1L75.7,171.5
			C75.7,171.5,75.7,171.5,75.7,171.5z M78.2,169.7c0.7,0.9,1.2,1.4,1.7,1.6c0.5,0.1,1.1,0.2,1.9,0.2c1,0,1.6-0.1,1.9-0.2
			c0.3-0.1,0.4-0.4,0.4-0.8c0-0.4-0.1-0.6-0.3-0.7c-0.2-0.1-0.8-0.2-1.7-0.2L78.2,169.7L78.2,169.7z"/>
		<path class="st0" d="M64.3,156.2h22.8v5.9H64.3V156.2z"/>
		<path class="st0" d="M68.4,141.1h18.7v5.8l-1.6-0.1c0.6,0.4,1.1,0.9,1.4,1.5s0.5,1.2,0.5,2c0,0.9-0.2,1.6-0.5,2.1s-0.7,1-1.2,1.2
			c-0.5,0.3-1,0.4-1.6,0.5c-0.5,0.1-1.6,0.1-3.2,0.1H68.4v-5.7h12.7c1.5,0,2.3,0,2.6-0.1s0.4-0.3,0.4-0.7c0-0.4-0.1-0.7-0.4-0.8
			c-0.3-0.1-1.2-0.1-2.7-0.1H68.4V141.1z"/>
		<path class="st0" d="M64.3,126.1h22.8v5.7h-1.4c0.6,0.5,1,1.1,1.3,1.7c0.3,0.6,0.4,1.2,0.4,1.9c0,0.9-0.2,1.6-0.7,2.3
			c-0.5,0.6-1,1.1-1.6,1.2c-0.6,0.2-1.6,0.3-3,0.3h-8.8c-1.4,0-2.5-0.1-3.1-0.3c-0.6-0.2-1.1-0.6-1.6-1.3s-0.7-1.4-0.7-2.4
			c0-0.7,0.1-1.4,0.4-1.9c0.3-0.6,0.6-1.1,1.1-1.6h-5.3L64.3,126.1L64.3,126.1z M73.1,131.8c-0.7,0-1.1,0.1-1.4,0.2
			c-0.2,0.1-0.4,0.4-0.4,0.7c0,0.3,0.1,0.6,0.3,0.7c0.2,0.1,0.7,0.2,1.4,0.2h9.2c0.8,0,1.3-0.1,1.5-0.2c0.2-0.1,0.4-0.3,0.4-0.6
			c0-0.4-0.1-0.6-0.4-0.7c-0.3-0.1-0.9-0.2-2-0.2L73.1,131.8L73.1,131.8z"/>
	</g>
	<g>
		<path class="st1" d="M13,319.9v5.9h-2.1c-1.3,0-2.1,0.1-2.5,0.2c-0.3,0.1-0.5,0.4-0.5,0.8c0,0.4,0.1,0.6,0.4,0.7
			c0.3,0.1,1,0.2,2.2,0.2h11c1,0,1.7-0.1,2-0.2c0.3-0.1,0.5-0.4,0.5-0.8c0-0.4-0.2-0.7-0.5-0.9c-0.4-0.2-1.1-0.2-2.1-0.2h-2.7v1.2
			h-3.5v-7h12.3v3.7l-1.6,0.5c0.7,0.4,1.2,0.9,1.6,1.5c0.4,0.6,0.5,1.3,0.5,2.2c0,1-0.2,1.9-0.7,2.8c-0.5,0.9-1.1,1.5-1.8,2
			c-0.7,0.5-1.5,0.7-2.2,0.8c-0.8,0.1-2,0.2-3.5,0.2h-6.8c-2.2,0-3.8-0.1-4.8-0.4c-1-0.2-1.9-0.9-2.7-2c-0.8-1.1-1.2-2.6-1.2-4.3
			c0-1.7,0.4-3.2,1.1-4.3c0.7-1.1,1.6-1.9,2.5-2.2s2.4-0.5,4.3-0.5L13,319.9C13,319.9,13,319.9,13,319.9z"/>
		<path class="st1" d="M4.5,317.6v-4.2c0-2.8,0.1-4.7,0.3-5.7c0.2-1,0.8-1.8,1.7-2.4c0.9-0.6,2.3-0.9,4.3-0.9c1.8,0,3,0.2,3.6,0.7
			c0.6,0.4,1,1.3,1.1,2.6c0.3-1.2,0.7-2,1.2-2.4c0.5-0.4,0.9-0.7,1.3-0.8c0.4-0.1,1.5-0.1,3.4-0.1h6v5.5h-7.6c-1.2,0-2,0.1-2.3,0.3
			c-0.3,0.2-0.4,0.7-0.4,1.5h10.3v5.9L4.5,317.6L4.5,317.6z M8.5,311.7h5.1c0-0.7-0.1-1.1-0.3-1.4s-0.8-0.4-1.8-0.4h-1.3
			c-0.7,0-1.2,0.1-1.4,0.4S8.5,311,8.5,311.7z"/>
		<path class="st1" d="M0,291.1l3.8,4.6v2.9L0,296.1C0,296.1,0,291.1,0,291.1z M4.5,291.8l22.8-3.4v6.1l-4.1,0.3v2.1l4.1,0.4v6.1
			l-22.8-3V291.8z M19.2,295c-2.6,0.3-5.8,0.6-9.6,0.9c4.4,0.6,7.6,1,9.6,1.1V295z"/>
		<path class="st1" d="M4.5,287.4v-10.1h4.6v4.1h4.3v-3.7h4.3v3.7h9.6v5.9H4.5z"/>
		<path class="st1" d="M4.5,270h22.8v5.9H4.5V270z"/>
		<path class="st1" d="M14.5,253.7v5.9h-4c-1.2,0-1.9,0.1-2.2,0.2s-0.4,0.4-0.4,0.8c0,0.5,0.2,0.8,0.5,0.9c0.3,0.1,1.1,0.2,2.3,0.2
			h10.6c1.1,0,1.8-0.1,2.2-0.2c0.3-0.1,0.5-0.4,0.5-0.9c0-0.4-0.2-0.7-0.5-0.9c-0.3-0.1-1.1-0.2-2.4-0.2h-2.9v-5.9h0.9
			c2.4,0,4,0.2,5,0.5c1,0.3,1.9,1.1,2.6,2.2c0.7,1.1,1.1,2.6,1.1,4.2c0,1.7-0.3,3.2-0.9,4.3c-0.6,1.1-1.5,1.9-2.6,2.2
			c-1.1,0.4-2.8,0.6-5,0.6h-6.7c-1.6,0-2.9-0.1-3.7-0.2c-0.8-0.1-1.6-0.4-2.4-1c-0.8-0.6-1.4-1.3-1.8-2.3c-0.4-1-0.7-2.1-0.7-3.4
			c0-1.8,0.3-3.2,1-4.3c0.7-1.1,1.5-1.9,2.5-2.2c1-0.4,2.6-0.5,4.7-0.5L14.5,253.7L14.5,253.7z"/>
		<path class="st1" d="M4.5,241.3l22.8-3.4v6.1l-4.1,0.3v2.1l4.1,0.4v6.1l-22.8-3C4.5,249.9,4.5,241.3,4.5,241.3z M19.2,244.5
			c-2.6,0.3-5.8,0.6-9.6,0.9c4.4,0.6,7.6,1,9.6,1.1V244.5z"/>
		<path class="st1" d="M44.3,241.7c0.3-0.8,0.8-1.5,1.5-1.9c0.7-0.5,2.3-0.7,4.8-0.7c1.8,0,3.2,0.2,4.1,0.5c0.9,0.4,1.6,1.1,2.2,2.1
			c0.6,1,0.8,2.4,0.8,4.2c0,1.7-0.3,3-0.8,4c-0.5,1-1.2,1.7-2.1,2.1c-0.9,0.4-2.4,0.6-4.4,0.6c-1.4,0-2.6-0.1-3.6-0.3
			c-1-0.2-1.8-0.9-2.4-2c-0.3,0.7-0.9,1.2-1.6,1.6c-0.7,0.4-1.7,0.5-2.8,0.5c-2,0-3.4-0.5-4.4-1.6c-1-1.1-1.5-2.7-1.5-4.9
			c0-2.5,0.5-4.2,1.6-5.2s2.5-1.4,4.5-1.4c1.2,0,2.1,0.2,2.7,0.5C43.2,240.1,43.8,240.7,44.3,241.7z M39.4,244.9
			c-0.8,0-1.3,0.1-1.5,0.2s-0.4,0.4-0.4,0.8c0,0.4,0.1,0.6,0.4,0.8c0.3,0.1,0.8,0.2,1.5,0.2h1.7c0.7,0,1.2-0.1,1.4-0.2
			c0.3-0.1,0.4-0.4,0.4-0.8c0-0.4-0.1-0.6-0.4-0.8c-0.3-0.1-0.8-0.2-1.6-0.2L39.4,244.9L39.4,244.9z M48.9,244.8
			c-0.9,0-1.5,0.1-1.7,0.3c-0.3,0.2-0.4,0.5-0.4,0.8c0,0.4,0.1,0.6,0.4,0.8c0.3,0.2,0.9,0.2,1.8,0.2h3c1,0,1.6-0.1,1.9-0.3
			c0.3-0.2,0.4-0.5,0.4-0.9c0-0.4-0.1-0.7-0.4-0.8c-0.3-0.1-0.9-0.2-1.9-0.2L48.9,244.8L48.9,244.8z"/>
	</g>
	<g>
		<path class="st0" d="M366.9,93.4v1.9h-2.4v-1.8c0-0.8-0.1-1.3-0.3-1.6c-0.2-0.3-0.6-0.4-1.2-0.4c-0.5,0-0.9,0.2-1.1,0.5
			c-0.2,0.3-0.3,1-0.3,2.1v12.1c0,1.1,0.1,1.8,0.3,2.1c0.2,0.3,0.6,0.5,1.2,0.5c0.5,0,0.8-0.2,1-0.5s0.3-0.8,0.3-1.6v-2.1h2.4v2.2
			c0,1.3-0.3,2.2-0.8,2.7c-0.6,0.5-1.6,0.7-3,0.7c-1.4,0-2.4-0.3-3-0.9c-0.6-0.6-0.8-1.7-0.8-3.4V94.2c0-1.7,0.3-2.8,0.8-3.4
			s1.5-0.9,3-0.9c1.4,0,2.4,0.2,3,0.7C366.6,91.1,366.9,92,366.9,93.4z"/>
		<path class="st0" d="M378,94.2v11.6c0,1.7-0.3,2.8-0.9,3.4c-0.6,0.6-1.7,0.9-3.2,0.9c-1.5,0-2.6-0.3-3.2-0.9
			c-0.6-0.6-0.9-1.7-0.9-3.4V94.2c0-1.6,0.3-2.8,0.9-3.4c0.6-0.6,1.7-0.9,3.2-0.9s2.6,0.3,3.2,0.9C377.7,91.5,378,92.6,378,94.2z
			 M375.6,94c0-1-0.1-1.7-0.4-2c-0.3-0.4-0.7-0.6-1.4-0.6c-0.7,0-1.1,0.2-1.4,0.5s-0.4,1-0.4,2v12.1c0,1,0.1,1.7,0.4,2.1
			s0.7,0.5,1.4,0.5c0.7,0,1.1-0.2,1.4-0.5c0.3-0.4,0.4-1,0.4-2.1L375.6,94L375.6,94z"/>
		<path class="st0" d="M381.9,90.2h3.5c1.8,0,3,0.2,3.6,0.6c0.6,0.4,0.9,1,0.9,2v4.4c0,0.8-0.2,1.4-0.6,1.7
			c-0.4,0.3-1.2,0.5-2.2,0.6c1.1,0.1,1.9,0.2,2.3,0.6c0.4,0.3,0.7,0.9,0.7,1.8v5.3c0,1-0.3,1.6-0.9,2c-0.6,0.4-1.8,0.6-3.6,0.6h-3.6
			V90.2z M384.2,91.7v7.1h0.8c1,0,1.7-0.1,2.1-0.4c0.3-0.3,0.5-0.9,0.5-1.8v-2.7c0-0.9-0.2-1.5-0.5-1.8c-0.3-0.3-1-0.4-2.1-0.4
			H384.2z M384.2,100.3v8.1h0.8c1.1,0,1.8-0.1,2.2-0.4c0.4-0.3,0.5-0.9,0.5-1.8v-3.7c0-0.9-0.2-1.5-0.5-1.8
			c-0.4-0.3-1.1-0.4-2.2-0.4L384.2,100.3L384.2,100.3z"/>
		<path class="st0" d="M394.1,90.2h6.3v1.6h-4v7h3.8v1.5h-3.8v7.9h4.1v1.6h-6.4V90.2z"/>
		<path class="st0" d="M403.7,90.2h3.5c1.8,0,3,0.2,3.6,0.6c0.6,0.4,0.9,1,0.9,2v4.4c0,0.8-0.2,1.4-0.6,1.7s-1.1,0.5-2.2,0.6
			c1.1,0.1,1.9,0.2,2.3,0.6c0.4,0.3,0.7,0.9,0.7,1.8v7.9h-2.4v-7.3c0-0.9-0.2-1.5-0.5-1.8c-0.4-0.3-1.1-0.4-2.2-0.4H406v9.5h-2.3
			L403.7,90.2L403.7,90.2z M406,91.7v7.1h0.8c1,0,1.7-0.1,2.1-0.4c0.3-0.3,0.5-0.9,0.5-1.8v-2.7c0-0.9-0.2-1.5-0.5-1.8
			c-0.3-0.3-1-0.4-2.1-0.4H406z"/>
		<path class="st0" d="M414.1,90.2h7.7v1.6h-2.7v18h-2.3v-18h-2.7L414.1,90.2L414.1,90.2z"/>
		<path class="st0" d="M424.1,90.2h2.4v15.8c0,1,0.1,1.7,0.4,2.1s0.7,0.5,1.4,0.5c0.7,0,1.1-0.2,1.4-0.5c0.3-0.4,0.4-1,0.4-2.1V90.2
			h2.4v15.6c0,1.7-0.3,2.8-0.9,3.4c-0.6,0.6-1.7,0.9-3.2,0.9c-1.5,0-2.6-0.3-3.2-0.9s-0.9-1.7-0.9-3.4L424.1,90.2L424.1,90.2z"/>
		<path class="st0" d="M436.3,90.2h3.5c1.8,0,3,0.2,3.6,0.6c0.6,0.4,0.9,1,0.9,2v4.4c0,0.8-0.2,1.4-0.6,1.7s-1.2,0.5-2.2,0.6
			c1.1,0.1,1.9,0.2,2.3,0.6c0.4,0.3,0.7,0.9,0.7,1.8v7.9h-2.4v-7.3c0-0.9-0.2-1.5-0.5-1.8c-0.4-0.3-1.1-0.4-2.2-0.4h-0.8v9.5h-2.3
			L436.3,90.2L436.3,90.2z M438.6,91.7v7.1h0.8c1,0,1.7-0.1,2.1-0.4c0.3-0.3,0.5-0.9,0.5-1.8v-2.7c0-0.9-0.2-1.5-0.5-1.8
			c-0.3-0.3-1-0.4-2.1-0.4H438.6z"/>
		<path class="st0" d="M450.7,90.2h3.3l3.8,19.6h-2.4l-0.9-5.4h-4.3l-1,5.4h-2.4L450.7,90.2z M452.2,91.7l-1.9,11.2h3.8l-1.8-11.2
			H452.2z"/>
		<path class="st0" d="M465.7,90.2h6.3v1.6h-4v7h3.8v1.5H468v7.9h4.1v1.6h-6.4V90.2z"/>
		<path class="st0" d="M475.4,90.2h3.1l3.8,18.4h0l-0.3-18.4h2v19.6h-3.1l-3.7-18.1H477l0.3,18.1h-2L475.4,90.2L475.4,90.2z"/>
		<path class="st0" d="M500.4,93.4v1.9h-2.4v-1.8c0-0.8-0.1-1.3-0.3-1.6c-0.2-0.3-0.6-0.4-1.1-0.4c-0.5,0-0.9,0.2-1.1,0.5
			c-0.2,0.3-0.3,0.9-0.3,1.7v1c0,0.4,0.1,0.8,0.2,1.2c0.1,0.4,0.4,0.8,0.6,1.2l3,3.9c0.5,0.7,0.9,1.3,1.1,1.9
			c0.2,0.6,0.3,1.2,0.3,1.8v1.3c0,1.7-0.3,2.8-0.9,3.4c-0.6,0.6-1.6,0.9-3.1,0.9c-1.4,0-2.4-0.2-3-0.7c-0.6-0.5-0.8-1.4-0.8-2.7
			v-2.2h2.4v2.1c0,0.8,0.1,1.3,0.3,1.6c0.2,0.3,0.6,0.4,1.2,0.4c0.6,0,1-0.2,1.2-0.5c0.2-0.3,0.3-1,0.3-2.1v-1.4
			c0-0.5-0.1-1-0.2-1.4c-0.1-0.4-0.3-0.8-0.5-1.1l-3.1-4.2c-0.4-0.6-0.8-1.1-1-1.6s-0.3-0.9-0.3-1.3V94c0-1.5,0.3-2.6,0.8-3.2
			c0.6-0.6,1.5-0.9,2.9-0.9c1.4,0,2.4,0.2,3,0.7C500.2,91.1,500.4,92,500.4,93.4z"/>
		<path class="st0" d="M505.8,90.2h3.3l3.8,19.6h-2.4l-0.9-5.4h-4.3l-1,5.4h-2.4L505.8,90.2z M507.4,91.7l-1.9,11.2h3.8l-1.8-11.2
			H507.4z"/>
		<path class="st0" d="M515.3,90.2h2.3v18h4.1v1.6h-6.3L515.3,90.2L515.3,90.2z"/>
		<path class="st0" d="M523.7,90.2h2.4v15.8c0,1,0.1,1.7,0.4,2.1s0.7,0.5,1.4,0.5c0.7,0,1.1-0.2,1.4-0.5s0.4-1,0.4-2.1V90.2h2.4
			v15.6c0,1.7-0.3,2.8-0.9,3.4c-0.6,0.6-1.7,0.9-3.2,0.9c-1.5,0-2.6-0.3-3.2-0.9c-0.6-0.6-0.9-1.7-0.9-3.4L523.7,90.2L523.7,90.2z"
			/>
		<path class="st0" d="M536,90.2h2.7c2.2,0,3.7,0.3,4.4,0.8c0.7,0.5,1,1.7,1,3.6v10.8c0,1.9-0.4,3.1-1.1,3.6
			c-0.7,0.5-2.2,0.8-4.4,0.8H536L536,90.2L536,90.2z M538.2,91.7v16.7h0.7c1.1,0,1.8-0.1,2.2-0.4c0.4-0.3,0.5-0.9,0.5-1.8V93.9
			c0-0.9-0.2-1.5-0.5-1.8c-0.4-0.3-1.1-0.4-2.2-0.4H538.2z"/>
	</g>
	<path class="st2" d="M336.4,136.4c-1.1,17.4-6.7,33.4-15.5,48.2c-5.8,9.7-13.1,18.2-21.5,25.8c-1.7,1.6-2.7,1.4-4.2-0.4
		c-22.4-26.9-44.9-53.7-67.3-80.5c-1.7-2-3-2.5-5.6-1.7c-26.7,9-53.4,17.8-80.1,26.6c-6.7,2.2-13.3,4.4-20,6.6
		c-1.8,0.6-2.5,0.3-3.1-1.6c-3-10.1-4.8-20.3-4.8-30.8C114,109.6,118,91.5,127,74.6c10.1-18.9,24.3-33.7,42.9-44.5
		c15.9-9.2,33.1-14.1,51.4-14.8c20.9-0.8,40.6,4,58.9,14.2c13.4,7.5,24.8,17.4,34,29.6c12.4,16.4,20,34.9,22,55.5
		c0.7,7.2,0.5,14.4,0.8,21.7C336.8,136.3,336.6,136.4,336.4,136.4z"/>
	<path class="st3" d="M205.3,261.2c-29-3.2-52.2-13.6-71.3-32.7c-11.8-11.8-20.5-25.5-26.2-41.2c-0.7-1.9-0.4-2.8,1.7-3.5
		c24.5-8.1,49-16.2,73.5-24.3c9.2-3.1,18.5-6.1,27.6-9.3c1.7-0.6,2.7-0.3,3.9,1.1c22.8,27.3,45.6,54.5,68.5,81.7
		c1.2,1.5,1.3,2.4-0.3,3.7c-18.3,14.8-39.3,22.8-62.7,24.3C214.5,261.3,208.8,261.1,205.3,261.2z"/>
	<g>
		<g>
			<g class="st4">
				<path class="st5" d="M169.4,275.3c0.6,0.2,1.1,0.5,1.4,1c0.3,0.5,0.5,1.6,0.5,3.3c0,1.3-0.1,2.3-0.4,3s-0.8,1.3-1.5,1.6
					c-0.7,0.4-1.7,0.6-2.8,0.6c-1.3,0-2.3-0.2-3-0.6c-0.7-0.4-1.2-1-1.4-1.6c-0.2-0.6-0.3-1.7-0.3-3.3v-1.3h4.1v2.6
					c0,0.7,0,1.2,0.1,1.3c0.1,0.2,0.3,0.3,0.6,0.3c0.3,0,0.5-0.1,0.6-0.4s0.2-0.9,0.2-1.9V279c0-0.6-0.1-1.1-0.2-1.4
					c-0.1-0.3-0.3-0.5-0.6-0.6s-0.8-0.1-1.6-0.2v-2.4c1,0,1.6,0,1.8-0.1c0.2-0.1,0.4-0.2,0.5-0.5s0.2-0.6,0.2-1.2v-0.9
					c0-0.6-0.1-0.9-0.2-1.1c-0.1-0.2-0.3-0.3-0.5-0.3c-0.3,0-0.5,0.1-0.6,0.3c-0.1,0.2-0.2,0.6-0.2,1.2v1.3h-4.1v-1.4
					c0-1.6,0.4-2.6,1.1-3.2c0.7-0.5,1.8-0.8,3.4-0.8c1.9,0,3.3,0.4,3.9,1.1c0.7,0.8,1,1.8,1,3.2c0,0.9-0.1,1.6-0.4,2
					C170.5,274.6,170,275,169.4,275.3z"/>
				<path class="st5" d="M180,268.3v16.3h-4.1v-8.7c0-1.3,0-2-0.1-2.3c-0.1-0.3-0.2-0.4-0.5-0.6c-0.3-0.1-0.9-0.2-1.8-0.2h-0.4v-1.9
					c2-0.4,3.5-1.3,4.5-2.6L180,268.3L180,268.3L180,268.3z"/>
				<path class="st5" d="M188.2,271.1v2.8c0,0.7-0.1,1.3-0.2,1.6c-0.1,0.4-0.4,0.7-0.9,1c-0.5,0.3-1.1,0.4-1.8,0.4
					c-0.9,0-1.5-0.1-2-0.4c-0.4-0.3-0.8-0.6-0.9-0.9c-0.2-0.4-0.2-0.9-0.2-1.6v-2.9c0-0.8,0.1-1.4,0.2-1.8c0.2-0.4,0.5-0.7,1-0.9
					c0.5-0.2,1-0.4,1.7-0.4c0.8,0,1.4,0.1,1.9,0.4c0.5,0.3,0.8,0.6,1,1C188.1,269.7,188.2,270.3,188.2,271.1z M185.6,270.3
					c0-0.4,0-0.7-0.1-0.8c0-0.1-0.2-0.1-0.4-0.1c-0.2,0-0.3,0.1-0.4,0.2c-0.1,0.1-0.1,0.4-0.1,0.8v4.1c0,0.5,0,0.8,0.1,0.8
					c0,0.1,0.2,0.1,0.4,0.1c0.2,0,0.3-0.1,0.3-0.2c0.1-0.1,0.1-0.4,0.1-0.8L185.6,270.3L185.6,270.3z M192.9,268l-6.4,16.9H185
					l6.4-16.9H192.9z M195.7,278.9v2.8c0,0.7-0.1,1.3-0.2,1.6c-0.1,0.4-0.4,0.7-0.9,1c-0.5,0.3-1.1,0.4-1.8,0.4
					c-0.9,0-1.5-0.1-2-0.4c-0.5-0.3-0.8-0.6-0.9-0.9c-0.2-0.4-0.2-0.9-0.2-1.5v-2.9c0-0.8,0.1-1.4,0.2-1.8c0.2-0.4,0.5-0.7,1-0.9
					c0.5-0.2,1-0.4,1.7-0.4c0.8,0,1.4,0.1,1.9,0.4c0.5,0.3,0.8,0.6,1,1C195.6,277.6,195.7,278.2,195.7,278.9z M193.1,278.2
					c0-0.4,0-0.7-0.1-0.8c0-0.1-0.2-0.2-0.4-0.2c-0.2,0-0.3,0.1-0.3,0.2s-0.1,0.4-0.1,0.8v4.1c0,0.5,0,0.7,0.1,0.8s0.2,0.1,0.4,0.1
					c0.2,0,0.3-0.1,0.3-0.2c0-0.1,0.1-0.4,0.1-0.8L193.1,278.2L193.1,278.2z"/>
			</g>
		</g>
	</g>
	<g>
		<g>
			<g class="st4">
				<path class="st6" d="M169.8,297.5l1,0.9c-1.2,1.1-2.4,1.6-3.8,1.6c-1.4,0-2.6-0.5-3.6-1.5s-1.5-2.2-1.5-3.6
					c0-1.4,0.5-2.6,1.5-3.6c1-1,2.2-1.5,3.6-1.5c1.3,0,2.6,0.5,3.8,1.6l-1,0.9c-0.9-0.8-1.8-1.2-2.8-1.2c-1.1,0-2,0.4-2.7,1.1
					c-0.7,0.7-1.1,1.6-1.1,2.7c0,1.1,0.4,2,1.1,2.7c0.7,0.7,1.6,1.1,2.7,1.1C168,298.7,168.9,298.3,169.8,297.5z"/>
				<path class="st6" d="M172.2,295.4h4.2v1.3h-4.2V295.4z"/>
				<path class="st6" d="M190.3,297.5l1,0.9c-1.2,1.1-2.4,1.6-3.8,1.6c-1.4,0-2.6-0.5-3.6-1.5s-1.5-2.2-1.5-3.6
					c0-1.4,0.5-2.6,1.5-3.6c1-1,2.2-1.5,3.6-1.5c1.3,0,2.6,0.5,3.8,1.6l-1,0.9c-0.9-0.8-1.8-1.2-2.8-1.2c-1.1,0-2,0.4-2.7,1.1
					c-0.7,0.7-1.1,1.6-1.1,2.7c0,1.1,0.4,2,1.1,2.7c0.7,0.7,1.6,1.1,2.7,1.1C188.5,298.7,189.4,298.3,190.3,297.5z"/>
				<path class="st6" d="M201.5,291.2c1,1,1.5,2.2,1.5,3.6c0,1.4-0.5,2.6-1.5,3.6c-1,1-2.2,1.5-3.6,1.5s-2.6-0.5-3.6-1.5
					c-1-1-1.5-2.2-1.5-3.6c0-1.4,0.5-2.6,1.5-3.6c1-1,2.2-1.5,3.6-1.5S200.5,290.2,201.5,291.2z M197.9,291c-1.1,0-2,0.4-2.7,1.1
					c-0.7,0.7-1.1,1.7-1.1,2.7c0,1.1,0.4,2,1.1,2.7c0.8,0.8,1.7,1.1,2.7,1.1c1.1,0,2-0.4,2.7-1.1c0.7-0.8,1.1-1.7,1.1-2.7
					c0-1.1-0.4-2-1.1-2.7C199.8,291.4,198.9,291,197.9,291z"/>
				<path class="st6" d="M204.8,289.8h1.2l4.1,7.2v-7.2h1.3v10.1h-1.1l-4.2-7.3v7.3h-1.3V289.8z"/>
				<path class="st6" d="M216.3,291.1v8.8H215v-8.8h-2.3v-1.3h6v1.3H216.3z"/>
				<path class="st6" d="M222.4,296.7h-1.2v3.2h-1.3v-10.1h2.9c0.8,0.1,1.5,0.4,2.1,1c0.7,0.7,1,1.5,1,2.4c0,0.9-0.3,1.8-1,2.4
					c-0.5,0.5-0.8,0.7-1.1,0.8l2.2,3.4h-1.6L222.4,296.7z M221.2,291.1v4.2h1.2c0.6,0,1.1-0.2,1.5-0.6s0.6-0.9,0.6-1.5
					c0-0.6-0.2-1.1-0.6-1.5s-0.9-0.6-1.5-0.6L221.2,291.1L221.2,291.1z"/>
				<path class="st6" d="M232.8,289.8h1.3v7.1c-0.1,0.8-0.4,1.5-1,2.1c-0.7,0.7-1.5,1-2.4,1c-0.9,0-1.7-0.3-2.4-1
					c-0.7-0.7-1-1.5-1-2.4v-6.7h1.3v6.7c0,0.6,0.2,1.1,0.6,1.5c0.4,0.4,0.9,0.6,1.5,0.6c0.6,0,1.1-0.2,1.5-0.6
					c0.4-0.4,0.6-0.9,0.6-1.5L232.8,289.8L232.8,289.8z"/>
				<path class="st6" d="M238,289.8c0.6,0,1.1,0.2,1.5,0.6c0.4,0.4,0.6,0.9,0.6,1.5c0,0.6-0.3,1-0.9,1.1c0.4,0.1,0.9,0.4,1.5,0.9
					s0.8,1.3,0.8,2.3s-0.3,1.8-1,2.6c-0.6,0.7-1.3,1-2,1v0H236v-10.1L238,289.8L238,289.8z M237.3,291.1v1.6h0.8
					c0.2,0,0.4-0.1,0.5-0.2c0.2-0.1,0.2-0.3,0.2-0.6s-0.1-0.4-0.2-0.6s-0.4-0.2-0.6-0.2H237.3z M237.3,294.1v4.5h1.3v0
					c0.3,0,0.6-0.2,1-0.6c0.4-0.5,0.7-1,0.7-1.6c0-0.6-0.2-1.1-0.7-1.6s-1-0.7-1.6-0.7L237.3,294.1L237.3,294.1z"/>
				<path class="st6" d="M248.6,289.8h1.3v7.1c-0.1,0.8-0.4,1.5-1,2.1c-0.7,0.7-1.5,1-2.4,1c-0.9,0-1.7-0.3-2.4-1
					c-0.7-0.7-1-1.5-1-2.4v-6.7h1.3v6.7c0,0.6,0.2,1.1,0.6,1.5c0.4,0.4,0.9,0.6,1.5,0.6c0.6,0,1.1-0.2,1.5-0.6
					c0.4-0.4,0.6-0.9,0.6-1.5L248.6,289.8L248.6,289.8z"/>
				<path class="st6" d="M254.8,291.1v8.8h-1.3v-8.8h-2.3v-1.3h6v1.3H254.8z"/>
				<path class="st6" d="M259.9,289.8v10.1h-1.3v-10.1L259.9,289.8L259.9,289.8z"/>
				<path class="st6" d="M264.9,299.9l-3.7-10.1h1.4l2.6,7.2l2.6-7.2h1.4l-3.7,10.1H264.9z"/>
				<path class="st6" d="M278.9,291.2c1,1,1.5,2.2,1.5,3.6c0,1.4-0.5,2.6-1.5,3.6c-1,1-2.2,1.5-3.6,1.5s-2.6-0.5-3.6-1.5
					c-1-1-1.5-2.2-1.5-3.6c0-1.4,0.5-2.6,1.5-3.6c1-1,2.2-1.5,3.6-1.5S277.9,290.2,278.9,291.2z M275.3,291c-1.1,0-2,0.4-2.7,1.1
					c-0.7,0.7-1.1,1.7-1.1,2.7c0,1.1,0.4,2,1.1,2.7c0.8,0.8,1.7,1.1,2.7,1.1c1.1,0,2-0.4,2.7-1.1c0.7-0.8,1.1-1.7,1.1-2.7
					c0-1.1-0.4-2-1.1-2.7C277.2,291.4,276.3,291,275.3,291z"/>
			</g>
		</g>
	</g>
	<g>
		<g>
			<g class="st4">
				<path class="st5" d="M460.7,14.3h-9c0-1.7,0-2.7-0.1-3.2c0-0.4-0.2-0.8-0.5-1.1c-0.3-0.3-0.8-0.4-1.3-0.4
					c-0.5,0-0.8,0.1-1.1,0.4c-0.3,0.3-0.5,0.6-0.5,1.1c0,0.4-0.1,1.3-0.1,2.7v5.7c0.5-1,1.1-1.7,2-2.2c0.9-0.5,2-0.7,3.3-0.7
					c1.6,0,3.1,0.4,4.3,1.3c1.3,0.9,2.1,2,2.4,3.2c0.3,1.2,0.5,2.9,0.5,5V29c0,2.5-0.1,4.4-0.3,5.6c-0.2,1.2-0.7,2.4-1.5,3.4
					c-0.8,1-2,1.8-3.4,2.4s-3.1,0.9-5.1,0.9c-2.4,0-4.4-0.3-5.9-1c-1.5-0.7-2.7-1.6-3.6-2.9c-0.8-1.2-1.3-2.6-1.5-3.9
					c-0.1-1.4-0.2-4-0.2-8v-5c0-4.3,0.1-7.1,0.2-8.6c0.1-1.4,0.6-2.8,1.5-4.1s2.1-2.2,3.7-2.9c1.6-0.6,3.4-1,5.4-1
					c2.5,0,4.6,0.4,6.2,1.2c1.6,0.8,2.8,2,3.5,3.4C460.3,10.2,460.7,12,460.7,14.3z M451.7,25.5c0-1.3-0.1-2.1-0.4-2.6
					c-0.3-0.5-0.7-0.7-1.4-0.7c-0.6,0-1.1,0.2-1.4,0.7c-0.3,0.5-0.4,1.3-0.4,2.6V32c0,1.6,0.1,2.6,0.4,3.1c0.3,0.5,0.7,0.7,1.4,0.7
					c0.4,0,0.8-0.2,1.2-0.6c0.4-0.4,0.6-1.4,0.6-3L451.7,25.5C451.7,25.5,451.7,25.5,451.7,25.5z"/>
				<path class="st5" d="M463.8,31.1h9c0,1.7,0,2.7,0.1,3.2c0,0.4,0.2,0.8,0.5,1.1c0.3,0.3,0.8,0.4,1.3,0.4c0.5,0,0.8-0.1,1.1-0.4
					c0.3-0.3,0.5-0.6,0.5-1.1c0-0.4,0.1-1.3,0.1-2.7v-5.7c-0.4,1-1.1,1.7-2,2.2c-0.9,0.5-2,0.7-3.3,0.7c-1.6,0-3.1-0.4-4.3-1.3
					c-1.3-0.9-2.1-2-2.4-3.2c-0.3-1.2-0.5-2.9-0.5-5v-2.9c0-2.5,0.1-4.4,0.3-5.6c0.2-1.2,0.7-2.4,1.5-3.4c0.8-1,2-1.9,3.4-2.4
					s3.2-0.9,5.1-0.9c2.4,0,4.4,0.3,5.9,1c1.5,0.7,2.7,1.6,3.6,2.9c0.8,1.2,1.3,2.6,1.5,3.9c0.1,1.4,0.2,4,0.2,8v5
					c0,4.3-0.1,7.1-0.2,8.6c-0.1,1.4-0.6,2.8-1.5,4.1c-0.9,1.3-2.1,2.2-3.7,2.9c-1.6,0.6-3.3,1-5.4,1c-2.5,0-4.6-0.4-6.2-1.2
					c-1.6-0.8-2.8-2-3.5-3.4C464.1,35.2,463.8,33.4,463.8,31.1z M472.7,19.9c0,1.5,0.2,2.4,0.6,2.8c0.4,0.4,0.8,0.5,1.2,0.5
					c0.6,0,1.1-0.2,1.4-0.7c0.3-0.5,0.4-1.3,0.4-2.6v-6.5c0-1.6-0.1-2.6-0.4-3.1c-0.3-0.5-0.7-0.7-1.4-0.7c-0.4,0-0.8,0.2-1.2,0.6
					c-0.4,0.4-0.6,1.4-0.6,3L472.7,19.9L472.7,19.9z"/>
				<path class="st5" d="M508.7,10.9V17c0,1.6-0.2,2.8-0.5,3.6c-0.3,0.8-1,1.5-2,2.1c-1,0.6-2.3,0.9-4,0.9c-1.9,0-3.3-0.3-4.3-0.9
					c-1-0.6-1.7-1.3-2-2c-0.3-0.8-0.5-1.9-0.5-3.4v-6.4c0-1.8,0.2-3.1,0.5-3.9s1.1-1.5,2.1-2.1c1-0.5,2.3-0.8,3.8-0.8
					c1.7,0,3.1,0.3,4.1,0.9c1,0.6,1.8,1.3,2.1,2.1C508.6,7.9,508.7,9.2,508.7,10.9z M503.1,9.3c0-0.9,0-1.5-0.1-1.8
					c-0.1-0.2-0.4-0.3-0.8-0.3c-0.4,0-0.7,0.1-0.8,0.4c-0.1,0.2-0.2,0.8-0.2,1.7v9c0,1,0.1,1.7,0.2,1.9c0.1,0.2,0.4,0.3,0.8,0.3
					c0.4,0,0.6-0.1,0.7-0.4c0.1-0.2,0.2-0.8,0.2-1.7L503.1,9.3L503.1,9.3z M519.2,4.1l-14,37.3h-3.4l14.1-37.3H519.2z M525.4,28.2
					v6.2c0,1.6-0.2,2.8-0.5,3.6c-0.3,0.8-1,1.5-1.9,2.1c-1,0.6-2.3,0.9-4,0.9c-1.9,0-3.3-0.3-4.3-0.9s-1.7-1.3-2-2.1
					c-0.3-0.8-0.5-1.9-0.5-3.4v-6.5c0-1.8,0.2-3.1,0.5-3.9c0.4-0.9,1.1-1.5,2.1-2.1c1-0.5,2.3-0.8,3.8-0.8c1.7,0,3.1,0.3,4.1,0.9
					c1,0.6,1.7,1.3,2.1,2.1C525.2,25.2,525.4,26.5,525.4,28.2z M519.7,26.7c0-0.9,0-1.5-0.1-1.8c-0.1-0.2-0.4-0.3-0.8-0.3
					c-0.4,0-0.7,0.1-0.8,0.4s-0.2,0.8-0.2,1.8v9c0,1,0.1,1.6,0.2,1.8c0.1,0.2,0.4,0.3,0.8,0.3c0.4,0,0.7-0.1,0.8-0.3
					c0.1-0.2,0.2-0.8,0.2-1.7L519.7,26.7L519.7,26.7z"/>
			</g>
		</g>
	</g>
	<g>
		<g>
			<polyline class="st7" points="213.1,66.4 384.6,66.4 384.7,21.8 431.1,21.8 			"/>
			<g>
				<circle class="st5" cx="213.4" cy="66.4" r="7.5"/>
			</g>
		</g>
	</g>
	<g>
		<g>
			<path class="st6" d="M438.1,61.8c-0.9-0.3-1.7-0.7-2.2-1.3c-0.6-0.6-0.9-1.3-0.9-2.1c0-0.8,0.3-1.5,0.9-2.1
				c0.6-0.6,1.3-0.9,2.1-0.9c0.8,0,1.5,0.3,2.1,0.9c0.3,0.3,0.6,0.8,0.8,1.5l-1.5,0.6c-0.2-0.5-0.3-0.8-0.5-1
				c-0.3-0.3-0.6-0.4-1-0.4c-0.4,0-0.7,0.1-1,0.4c-0.3,0.3-0.4,0.6-0.4,1c0,0.4,0.1,0.7,0.4,1c0.3,0.3,0.7,0.6,1.2,0.8
				c1,0.3,1.9,0.8,2.6,1.5c0.8,0.8,1.2,1.7,1.2,2.8c0,1.1-0.4,2.1-1.2,2.8c-0.8,0.8-1.7,1.2-2.8,1.2c-1.1,0-2.1-0.4-2.8-1.2
				c-0.6-0.6-1-1.5-1.2-2.6l1.6-0.6c0.1,1,0.4,1.6,0.7,2c0.5,0.5,1,0.7,1.7,0.7c0.6,0,1.2-0.2,1.7-0.7c0.5-0.5,0.7-1,0.7-1.7
				c0-0.6-0.2-1.2-0.7-1.7C439.3,62.4,438.8,62.1,438.1,61.8z"/>
			<path class="st6" d="M443.8,62.7h5.4v1.7h-5.4V62.7z"/>
			<path class="st6" d="M454.1,61.8c-0.9-0.3-1.7-0.7-2.2-1.3c-0.6-0.6-0.9-1.3-0.9-2.1c0-0.8,0.3-1.5,0.9-2.1
				c0.6-0.6,1.3-0.9,2.1-0.9c0.8,0,1.5,0.3,2.1,0.9c0.3,0.3,0.6,0.8,0.8,1.5l-1.5,0.6c-0.2-0.5-0.4-0.8-0.5-1
				c-0.3-0.3-0.6-0.4-1-0.4c-0.4,0-0.7,0.1-1,0.4c-0.3,0.3-0.4,0.6-0.4,1c0,0.4,0.1,0.7,0.4,1c0.3,0.3,0.7,0.6,1.2,0.8
				c1,0.3,1.9,0.8,2.6,1.5c0.8,0.8,1.2,1.7,1.2,2.8c0,1.1-0.4,2.1-1.2,2.8c-0.8,0.8-1.7,1.2-2.8,1.2c-1.1,0-2.1-0.4-2.8-1.2
				c-0.6-0.6-1-1.5-1.2-2.6l1.6-0.6c0.1,1,0.4,1.6,0.7,2c0.5,0.5,1,0.7,1.7,0.7s1.2-0.2,1.7-0.7c0.5-0.5,0.7-1,0.7-1.7
				c0-0.6-0.2-1.2-0.7-1.7C455.3,62.4,454.8,62.1,454.1,61.8z"/>
			<path class="st6" d="M466.8,55.5h1.7v9.1c-0.1,1-0.6,1.9-1.3,2.6c-0.9,0.9-1.9,1.3-3.1,1.3s-2.2-0.4-3.1-1.3s-1.3-1.9-1.3-3.1
				v-8.6h1.7v8.6c0,0.7,0.3,1.4,0.8,1.9c0.5,0.5,1.2,0.8,1.9,0.8c0.8,0,1.4-0.3,1.9-0.8c0.5-0.5,0.8-1.2,0.8-1.9L466.8,55.5
				L466.8,55.5z"/>
			<path class="st6" d="M473.5,55.5c0.7,0,1.4,0.3,1.9,0.8c0.5,0.5,0.8,1.2,0.8,1.9c0,0.8-0.4,1.2-1.2,1.4c0.6,0.1,1.2,0.5,1.9,1.2
				s1.1,1.7,1.1,3c0,1.3-0.4,2.4-1.3,3.3c-0.8,0.9-1.7,1.3-2.5,1.3v0h-3.3V55.5H473.5z M472.6,57.2v2h1.1c0.2,0,0.5-0.1,0.6-0.3
				c0.2-0.2,0.3-0.4,0.3-0.7s-0.1-0.5-0.3-0.7c-0.2-0.2-0.5-0.3-0.8-0.3C473.5,57.2,472.6,57.2,472.6,57.2z M472.6,60.9v5.8h1.6v0
				c0.3,0,0.8-0.3,1.3-0.8c0.6-0.6,0.8-1.3,0.8-2.1c0-0.8-0.3-1.5-0.8-2c-0.6-0.6-1.2-0.8-2-0.8L472.6,60.9L472.6,60.9z"/>
			<path class="st6" d="M483.2,61.8c-0.9-0.3-1.7-0.7-2.2-1.3c-0.6-0.6-0.9-1.3-0.9-2.1c0-0.8,0.3-1.5,0.9-2.1
				c0.6-0.6,1.3-0.9,2.1-0.9c0.8,0,1.5,0.3,2.1,0.9c0.3,0.3,0.6,0.8,0.8,1.5l-1.5,0.6c-0.2-0.5-0.3-0.8-0.5-1
				c-0.3-0.3-0.6-0.4-1-0.4c-0.4,0-0.7,0.1-1,0.4c-0.3,0.3-0.4,0.6-0.4,1c0,0.4,0.1,0.7,0.4,1c0.3,0.3,0.7,0.6,1.2,0.8
				c1,0.3,1.9,0.8,2.6,1.5c0.8,0.8,1.2,1.7,1.2,2.8c0,1.1-0.4,2.1-1.2,2.8c-0.8,0.8-1.7,1.2-2.8,1.2c-1.1,0-2.1-0.4-2.8-1.2
				c-0.6-0.6-1-1.5-1.2-2.6l1.6-0.6c0.1,1,0.4,1.6,0.7,2c0.5,0.5,1,0.7,1.7,0.7c0.6,0,1.2-0.2,1.7-0.7c0.5-0.5,0.7-1,0.7-1.7
				c0-0.6-0.2-1.2-0.7-1.7C484.4,62.4,483.9,62.1,483.2,61.8z"/>
			<path class="st6" d="M490.7,55.5v12.9H489V55.5H490.7z"/>
			<path class="st6" d="M494.5,55.5c2.1,0,3.7,0.6,4.9,1.8c1.3,1.3,1.9,2.8,1.9,4.7c0,1.8-0.6,3.4-1.9,4.7c-1.2,1.2-2.8,1.8-4.9,1.8
				h-1.2V55.5H494.5z M494.9,57.2v9.5c1.3,0,2.4-0.4,3.3-1.3c1-1,1.4-2.1,1.4-3.5c0-1.4-0.5-2.5-1.4-3.5
				C497.3,57.7,496.2,57.2,494.9,57.2z"/>
			<path class="st6" d="M505.1,55.5v12.9h-1.7V55.5H505.1z"/>
			<path class="st6" d="M512.5,55.5l4.7,12.9h-1.8l-1.7-4.6h-3.4l-1.6,4.6h-1.8l4.7-12.9H512.5z M513.2,62.2l-1.1-3l-1.1,3H513.2z"
				/>
			<path class="st6" d="M520,55.5c2.1,0,3.7,0.6,4.9,1.8c1.3,1.3,1.9,2.8,1.9,4.7c0,1.8-0.6,3.4-1.9,4.7c-1.2,1.2-2.8,1.8-4.9,1.8
				h-1.2V55.5H520z M520.5,57.2v9.5c1.3,0,2.4-0.4,3.3-1.3c1-1,1.4-2.1,1.4-3.5c0-1.4-0.5-2.5-1.4-3.5
				C522.9,57.7,521.8,57.2,520.5,57.2z"/>
			<path class="st6" d="M539.9,57.3c1.3,1.3,1.9,2.8,1.9,4.7c0,1.8-0.6,3.4-1.9,4.7s-2.8,1.9-4.7,1.9s-3.4-0.6-4.7-1.9
				s-1.9-2.8-1.9-4.7c0-1.8,0.6-3.4,1.9-4.7c1.3-1.3,2.8-1.9,4.7-1.9S538.6,56,539.9,57.3z M535.3,57c-1.4,0-2.5,0.5-3.5,1.4
				s-1.4,2.1-1.4,3.5s0.5,2.5,1.4,3.5c1,1,2.1,1.4,3.5,1.4c1.4,0,2.5-0.5,3.5-1.4s1.4-2.1,1.4-3.5c0-1.4-0.5-2.5-1.4-3.5
				S536.6,57,535.3,57z"/>
		</g>
	</g>
</g>
<text transform="matrix(1 0 0 1 159.3011 337.5448)"><tspan x="0" y="0" class="st8 st9 st10">Figura 13. S-Subsidiado 69 %</tspan><tspan x="23.8" y="15.8" class="st8 st9 st10">Fuente: MSPS (2018)</tspan></text>
</svg>
