<?xml version="1.0" encoding="utf-8"?>
<!-- Generator: Adobe Illustrator 16.0.0, SVG Export Plug-In . SVG Version: 6.00 Build 0)  -->
<!DOCTYPE svg PUBLIC "-//W3C//DTD SVG 1.1//EN" "http://www.w3.org/Graphics/SVG/1.1/DTD/svg11.dtd">
<svg version="1.1" id="Capa_1" xmlns="http://www.w3.org/2000/svg" xmlns:xlink="http://www.w3.org/1999/xlink" x="0px" y="0px"
	 width="734.338px" height="413.176px" viewBox="0 0 734.338 413.176" enable-background="new 0 0 734.338 413.176"
	 xml:space="preserve">
<g>
	<g>
		<g>
			<path fill="#F39200" d="M351.514,332.792c-0.014-0.017-0.025-0.036-0.031-0.058l-0.094-0.273l-0.084-0.086l-0.293-0.116
				l-0.289-0.031c-0.02-0.003-0.039-0.009-0.057-0.018l-1.639-0.819l-0.26-0.026l-1.131,0.666c-0.021,0.012-0.045,0.02-0.068,0.022
				l-0.277,0.035c-0.049,0.006-0.094-0.007-0.131-0.036l-0.174-0.139c-0.023-0.02-0.041-0.045-0.053-0.074l-0.174-0.452
				c-0.004-0.011-0.008-0.024-0.01-0.036l-0.07-0.451c-0.004-0.025-0.002-0.05,0.004-0.073l0.104-0.382l0.186-0.409l0.082-0.342
				l-0.082-0.303l-0.289-0.353l-0.92-0.814l-0.293-0.173l-0.27-0.055l-0.154,0.062l-0.105,0.042l-0.154,0.181l-0.164,0.588
				c-0.01,0.036-0.033,0.07-0.062,0.092l-0.209,0.157l-0.07,0.052c-0.029,0.023-0.066,0.035-0.104,0.035h-0.486
				c-0.021,0-0.043-0.004-0.064-0.013l-1.012-0.404h-0.479l-0.148,0.08l-0.176,0.097l-0.332,0.3
				c-0.012,0.009-0.023,0.017-0.035,0.023l-0.277,0.151l-0.104,0.057c-0.006,0.002-0.014,0.001-0.02,0.004
				c-0.025,0.01-0.051,0.018-0.076,0.017l-0.451-0.035c-0.035-0.003-0.07-0.016-0.098-0.039l-0.383-0.312
				c-0.039-0.034-0.064-0.083-0.064-0.135v-0.312c0-0.023,0.006-0.047,0.016-0.069l0.299-0.696v-0.451
				c0-0.019,0.002-0.037,0.008-0.055l0.035-0.104c0.006-0.02,0.018-0.038,0.029-0.053l0.139-0.174
				c0.008-0.009,0.016-0.018,0.025-0.024l0.391-0.327l0.158-0.285l0.023-0.062l0.039-0.108l-0.033-0.052l-0.396,0.027l-0.229,0.082
				l-0.129,0.047l-0.121,0.075l-0.197,0.12c-0.018,0.01-0.037,0.019-0.057,0.021l-0.277,0.056l-0.068,0.015
				c-0.02,0.003-0.039,0.003-0.059,0.001c-0.02-0.003-0.037-0.008-0.053-0.017l-0.602-0.299l-0.137,0.097l-0.096,0.127l-0.096,0.128
				c-0.016,0.021-0.035,0.037-0.057,0.048l-0.312,0.174c-0.025,0.015-0.055,0.022-0.084,0.022h-0.209
				c-0.018,0-0.035-0.002-0.055-0.009l-0.209-0.068l-0.439-0.234h-0.189l-0.314,0.169l-0.271,0.335l-0.219,0.271l0.266,0.424
				l0.564,0.433c0.023,0.018,0.041,0.042,0.053,0.067l0.279,0.625c0.012,0.023,0.014,0.048,0.014,0.073
				c0,0.024-0.004,0.049-0.016,0.071l-0.178,0.387l-0.029,0.063l0,0v0.002c-0.014,0.028-0.037,0.052-0.064,0.068
				c-0.002,0.001-0.004,0.005-0.006,0.008l0,0l0,0l-0.174,0.101l-0.242,0.142c-0.02,0.012-0.041,0.02-0.062,0.022l-0.451,0.069l0,0
				l0,0c-0.021,0.003-0.045,0.003-0.066-0.002l-0.451-0.104c-0.023-0.006-0.049-0.016-0.068-0.033l-1.146-0.902l-0.232-0.267
				c-0.031-0.037-0.047-0.085-0.041-0.132l0.035-0.313c0.002-0.018,0.008-0.035,0.014-0.052l0.277-0.625l0.047-0.223l-0.047-0.103
				l-0.127,0.058l-0.57,0.503c-0.023,0.018-0.047,0.032-0.074,0.039l-0.104,0.026l-0.312,0.079c-0.055,0.012-0.111,0-0.154-0.036
				l-0.416-0.347c-0.016-0.011-0.025-0.025-0.035-0.039l-0.312-0.486c-0.01-0.014-0.016-0.028-0.021-0.042l-0.139-0.453
				c-0.008-0.026-0.008-0.054-0.004-0.082l0.068-0.382c0.008-0.035,0.023-0.067,0.049-0.092l0.277-0.277
				c0.01-0.009,0.018-0.017,0.029-0.023l0.662-0.431l0.439-0.672l-0.424-0.634l-0.709-0.741c-0.021-0.022-0.035-0.048-0.043-0.078
				l-0.209-0.833c-0.014-0.052-0.002-0.107,0.033-0.15l0.242-0.312c0.012-0.017,0.029-0.032,0.047-0.042l0.348-0.209l0.236-0.184
				l0.023-0.238l-0.23-0.695l-0.076-0.406l-0.002-0.447l0.139-0.931v-0.403l-0.088-0.345l-0.25-0.227l-0.291,0.024l-0.025,0.001
				l-0.129,0.052l-0.195,0.078c-0.027,0.012-0.059,0.014-0.088,0.01l-0.244-0.034c-0.01-0.003-0.02-0.008-0.029-0.011
				c-0.047-0.015-0.084-0.047-0.104-0.093c-0.01-0.018-0.014-0.038-0.016-0.057l-0.033-0.521c-0.004-0.042,0.008-0.082,0.033-0.116
				l0.484-0.66l0,0l0,0l1.48-1.379l0.131-0.178l-0.049-0.133l-0.447-0.269l-0.477-0.127h-0.4l-0.391,0.131l-0.215,0.108
				l-0.213,0.107l-0.176,0.225l0.062,0.556c0.004,0.043-0.008,0.086-0.031,0.121l-0.174,0.243l0,0l0,0
				c-0.029,0.039-0.068,0.063-0.115,0.071l-0.383,0.058l-0.068,0.011l0,0l0,0c-0.021,0.004-0.041,0.003-0.061-0.001l-1.197-0.239
				l-0.986,0.034c-0.064,0.006-0.131-0.035-0.162-0.096l-0.104-0.209c-0.018-0.033-0.023-0.074-0.016-0.111l0.07-0.348l-0.004-0.312
				l-0.16-0.387l-0.266-0.426l-0.314-0.376l-0.338-0.214l-0.326-0.091l-0.102,0.009l-1.049,0.093
				c-0.031,0.001-0.061-0.002-0.086-0.014l-0.312-0.139c-0.025-0.012-0.047-0.028-0.064-0.049l-0.467-0.565l-0.242-0.135h-0.234
				l-0.484,0.1c-0.02,0.003-0.039,0.005-0.057,0.002l-0.279-0.035c-0.016-0.001-0.031-0.007-0.047-0.013l-0.244-0.104
				c-0.014-0.007-0.029-0.016-0.041-0.028l-0.645-0.542l-0.398-0.2l-0.465-0.153l-0.305,0.023l-0.025,0.002l-0.182,0.285
				l-0.098,0.358c-0.012,0.037-0.033,0.069-0.064,0.093l-0.279,0.208c-0.02,0.016-0.045,0.026-0.072,0.031l-0.381,0.07
				c-0.014,0.001-0.025,0.002-0.039,0.002l0,0l0,0l-0.834-0.035c-0.016,0-0.033-0.004-0.049-0.009l-0.207-0.068
				c-0.037-0.013-0.068-0.037-0.09-0.069l-0.139-0.209l-0.568-1.239l-0.553-1.552l-0.852-1.089c-0.02-0.024-0.031-0.055-0.035-0.086
				l-0.035-0.277c-0.004-0.035,0.002-0.068,0.018-0.1l0.131-0.26l0.094-0.377v-0.371l-0.098-0.322l-0.162-0.32l-0.682-0.986
				l-0.283-0.312l-0.082-0.05l-0.135-0.084h-0.219l-0.451,0.226c-0.018,0.008-0.035,0.014-0.057,0.016l-0.277,0.034l0,0l0,0
				c-0.025,0.005-0.051,0.001-0.076-0.006l-0.418-0.139l-0.926-0.462l-0.424-0.128l-0.535-0.214
				c-0.037-0.014-0.068-0.042-0.088-0.078l-0.209-0.383c-0.008-0.014-0.014-0.029-0.016-0.046l-0.201-0.938l-0.275-0.383h-0.357
				l-0.436,0.202l-0.504,0.233c-0.021,0.01-0.047,0.016-0.074,0.016h-0.381l-0.396-0.035c-0.016-0.001-0.029-0.005-0.045-0.01
				l-0.383-0.139l-0.365-0.181c-0.016-0.008-0.031-0.02-0.045-0.032l-0.398-0.398l-1.439,1.439c-0.012,0.012-0.027,0.023-0.041,0.03
				l-1.215,0.66l-4.318,1.917l-0.98,0.662l-0.469,0.316l-0.828,0.96l-0.268,0.97l-0.359,0.758c-0.006,0.018-0.02,0.035-0.033,0.048
				l-0.242,0.244l-0.244,0.243c-0.016,0.015-0.033,0.028-0.055,0.038l-0.219,0.093l-0.51,0.219
				c-0.012,0.005-0.023,0.009-0.035,0.011l-0.904,0.174c-0.012,0.001-0.021,0.003-0.035,0.003l-3.195-0.036l-0.674,0.099
				l-0.508,0.254l-0.885,0.849c-0.012,0.011-0.025,0.021-0.039,0.028l-0.576,0.306l-0.646,0.339l-0.326,0.36l-0.287,0.478
				l-0.424,0.711l-0.182,0.244l-0.244,0.327l-0.537,0.539l-0.377,0.569l-0.131,0.696l0.002,0.801l0.035,0.65
				c0,0.013,0,0.026-0.002,0.039l-0.086,0.486l-0.02,0.105c-0.006,0.035-0.021,0.067-0.049,0.092l-0.277,0.278l-0.637,0.532
				c-0.023,0.02-0.053,0.033-0.082,0.038l-1.043,0.173c-0.043,0.008-0.086-0.002-0.123-0.025l-0.799-0.521
				c-0.01-0.007-0.02-0.014-0.029-0.022L283,318.227l-0.639-0.395l-0.48,0.197l-0.707,0.641l-0.516,0.582l-0.582,0.655l-0.293,0.495
				l-0.256,0.33l0,0l0,0c-0.029,0.038-0.072,0.061-0.121,0.067l-0.311,0.03l-0.035,0.004c-0.006,0-0.012,0-0.012,0
				c-0.031,0-0.055-0.005-0.078-0.015c0-0.002-0.002,0-0.002,0l-0.592-0.279l-0.609-0.393l-2.461-2.009l-0.621-0.25l-0.123,0.026
				l-0.455,0.096l-0.303,0.193l-0.539,0.345c-0.018,0.012-0.039,0.021-0.061,0.025l-1.598,0.312l0,0l0,0
				c-0.045,0.009-0.092,0-0.129-0.025l-2.541-1.705l-0.77,0.543l-0.543,0.385l-0.264,0.28l-0.246,0.263
				c-0.02,0.022-0.047,0.038-0.074,0.046l-0.557,0.173c-0.016,0.005-0.033,0.008-0.051,0.008h-0.607l-0.781,0.169
				c-0.016,0.003-0.033,0.006-0.049,0.004l-0.938-0.07c-0.035-0.002-0.066-0.014-0.094-0.035l-0.904-0.695l-0.885-0.884
				l-0.725-0.558l-0.334-0.111l-0.121,0.04l-0.184,0.153l-0.256,0.165l-0.145,0.092c-0.021,0.013-0.045,0.021-0.07,0.026
				l-0.521,0.069l-1.104-0.034l-1.025,0.07h-0.002l0,0c-0.012,0-0.025,0-0.039-0.001l-1.736-0.279
				c-0.02-0.002-0.039-0.009-0.057-0.02l-0.312-0.173c-0.029-0.016-0.053-0.039-0.068-0.067l-0.174-0.312l-0.27-0.674l-0.137-0.114
				l-0.178-0.025l-0.537,0.034c-0.016,0.001-0.031,0-0.045-0.003l-0.035-0.008l-0.139-0.027c-0.027-0.005-0.053-0.017-0.074-0.035
				l-0.174-0.139c-0.016-0.013-0.029-0.027-0.041-0.045c-0.002-0.005-0.004-0.011-0.006-0.018c-0.006-0.012-0.012-0.024-0.016-0.038
				l-0.035-0.173c-0.004-0.024-0.004-0.049,0.002-0.074l0.094-0.41l-0.012-0.052l-0.064-0.063l-0.217-0.027
				c-0.02-0.002-0.039-0.008-0.057-0.017l-0.139-0.069l-0.676-0.426l-0.359-0.146h-0.27l-0.621,0.327l-0.322,0.145
				c-0.023,0.009-0.047,0.014-0.07,0.014h-0.418l-1.762-0.342l-12.677,3.929l0.013,0.041l1.105,2.415
				c0.021,0.042,0.021,0.092,0.003,0.136l-0.069,0.173c-0.011,0.026-0.026,0.049-0.047,0.066l-0.252,0.222l-0.074,0.146
				l-0.028,0.365l0.14,0.251l0.774,0.875l0.099,0.075l0.189,0.053h0.357c0.02,0,0.038,0.004,0.056,0.009l0.208,0.07
				c0.05,0.016,0.089,0.053,0.107,0.101s0.016,0.101-0.01,0.146l-0.165,0.302l0.087,0.172l0.223,0.223
				c0.013,0.013,0.023,0.029,0.032,0.045l0.139,0.277c0.024,0.049,0.024,0.106,0,0.155l-0.139,0.277
				c-0.029,0.06-0.089,0.098-0.154,0.098h-0.313l-0.378-0.066l-0.204,0.046l-0.052,0.089l0.069,0.121l0.555,0.359
				c0.02,0.013,0.037,0.03,0.05,0.049l0.208,0.312c0.009,0.013,0.016,0.026,0.021,0.041l0.338,1.017l0.482,0.642l0.567,0.316
				l1.361,0.238l1.422,0.552l0.49-0.028l0.336-0.611c0.029-0.049,0.078-0.082,0.135-0.088c0.055-0.006,0.111,0.015,0.15,0.058
				l0.242,0.279c0.014,0.017,0.025,0.035,0.033,0.057l0.557,1.597l0.078,0.156l0.158,0.132l0.199,0.074l0.039-0.009l0.07-0.07
				c0.014-0.015,0.029-0.025,0.045-0.034l0.232-0.115l0.111-0.197c0.018-0.029,0.043-0.054,0.074-0.068l0.139-0.07
				c0.066-0.032,0.146-0.02,0.201,0.033l0.174,0.173c0.025,0.026,0.043,0.059,0.047,0.095l0.035,0.208
				c0.006,0.037,0,0.078-0.018,0.111l-0.18,0.329l0.01,0.068l0.182,0.1l0.662-0.158c0.033-0.008,0.068-0.006,0.1,0.005l0.383,0.139
				c0.035,0.013,0.064,0.036,0.086,0.067l0.139,0.209c0.008,0.012,0.014,0.023,0.02,0.037l0.34,0.92l0.396,0.628l0.23,0.23
				l0.27,0.175l0.609,0.237l0.35,0.061l0.201-0.002l0.305-0.166l0.359-0.554c0.018-0.031,0.047-0.055,0.08-0.067l0.348-0.139
				c0.084-0.034,0.18,0.002,0.219,0.083l0.199,0.396l0.277,0.308l0.402,0.216l0.781,0.17c0.021,0.006,0.045,0.017,0.062,0.031
				l0.426,0.327l0.486,0.13c0.041,0.01,0.076,0.036,0.1,0.071l0.139,0.208c0.012,0.017,0.02,0.035,0.025,0.055l0.064,0.259
				l0.164,0.331c0.008,0.014,0.014,0.03,0.016,0.046l0.043,0.234l0.217-0.028c0.025-0.003,0.053-0.001,0.076,0.006l0.104,0.036
				c0.055,0.018,0.096,0.06,0.111,0.115l0.105,0.347c0.004,0.012,0.006,0.025,0.008,0.038l0.055,0.598l0.199,0.284l0.338,0.154
				c0.086,0.039,0.125,0.139,0.088,0.226l-0.104,0.244c-0.006,0.016-0.016,0.031-0.027,0.044l-0.303,0.357l0.119,0.195l0.82,0.395
				c0.029,0.014,0.053,0.035,0.07,0.061l0.26,0.391l0.461,0.329c0.016,0.01,0.029,0.024,0.039,0.04l0.174,0.242
				c0.018,0.023,0.027,0.049,0.031,0.076l0.035,0.244l0.035,0.569l0.238,0.942c0.004,0.013,0.006,0.028,0.006,0.042v0.451
				c0,0.065-0.035,0.125-0.092,0.154l-0.539,0.285l-0.148,0.328l-0.266,0.728l-0.062,0.811l0.424,0.514l1.469,0.888
				c0.035,0.021,0.061,0.053,0.074,0.09l0.133,0.371h0.223l0.346,0.034l0.221-0.031c0.023-0.003,0.045-0.002,0.066,0.002l0.279,0.07
				c0.014,0.004,0.029,0.009,0.041,0.017l0.312,0.174c0.014,0.007,0.023,0.015,0.035,0.024l0.516,0.484l0.076,0.012l0.115-0.183
				c0.008-0.013,0.018-0.026,0.029-0.036l0.383-0.348c0.023-0.021,0.053-0.035,0.082-0.041l0.348-0.07
				c0.027-0.005,0.055-0.004,0.08,0.002l0.709,0.194l0.023-0.01l0.057-0.521c0.01-0.088,0.084-0.156,0.174-0.156h0.242
				c0.049,0,0.096,0.022,0.129,0.059l0.613,0.681l0.227,0.162l0.395,0.194c0.033,0.017,0.061,0.044,0.078,0.078l0.139,0.278
				c0.018,0.034,0.021,0.074,0.016,0.111l-0.164,0.814l0.107,0.239l0.539,0.641c0.014,0.017,0.023,0.034,0.031,0.053l0.139,0.382
				c0.014,0.038,0.014,0.076,0.002,0.114l-0.07,0.209l-0.238,0.58l-0.027,0.255l0.096,0.35l0.129,0.288l0.4,0.562
				c0.008,0.01,0.016,0.023,0.02,0.037l0.174,0.451l0.109,0.531l0.188,0.44l0.289,0.289c0.059,0.058,0.068,0.146,0.025,0.215
				l-0.695,1.111l-0.195,0.494c-0.008,0.024-0.025,0.048-0.045,0.066l-0.869,0.764l-0.172,0.204l-0.053,0.128l-0.027,0.195
				l0.025,0.144l0.221,0.315c0.008,0.012,0.014,0.024,0.02,0.038l0.086,0.231l0.275,0.214l0.119,0.118
				c0.027,0.027,0.045,0.061,0.051,0.099l0.1,0.709l0.041,0.102l0.311,0.197l0.98,0.237c0.029,0.006,0.059,0.023,0.082,0.045
				l0.207,0.208c0.021,0.022,0.037,0.049,0.047,0.078l0.064,0.249l0.078-0.068l0.25-0.5l0.031-0.216
				c0.008-0.057,0.043-0.106,0.094-0.131c0.053-0.026,0.111-0.025,0.162,0.004l1.633,0.903c0.031,0.017,0.055,0.043,0.07,0.074
				l0.053,0.104l0.318,0.255c0.023,0.021,0.043,0.046,0.055,0.077l0.381,1.076l0.182,0.328l0.135,0.113h0.129l0.953-0.205
				l0.293-0.088l0.246-0.248c0.018-0.017,0.039-0.031,0.062-0.041l0.66-0.242l0.576-0.272c0.043-0.02,0.092-0.022,0.135-0.006
				l0.383,0.14c0.012,0.004,0.025,0.011,0.035,0.018l0.393,0.261c0.004-0.026,0.012-0.052,0.027-0.074l0.139-0.208l0.195-0.201
				c0.014-0.013,0.029-0.025,0.047-0.033l0.275-0.139c0.084-0.042,0.186-0.01,0.23,0.071l0.209,0.383l0.082,0.237l0.096,0.559
				l0.27-0.098l0.229-0.229l0.613-1.259l0.293-0.41c0.039-0.052,0.104-0.079,0.168-0.068l0.451,0.068
				c0.021,0.004,0.043,0.012,0.062,0.022l0.416,0.244l1.037,0.827l0.42,0.129l2.373,0.376c0.031,0.005,0.061,0.018,0.084,0.039
				l0.209,0.173c0.025,0.021,0.043,0.048,0.053,0.078l0.09,0.269l0.262,0.232l0.379,0.191l0.371,0.092l0.475-0.031l0.92-0.272
				c0.012-0.004,0.025-0.007,0.039-0.008l0.531-0.033l0.113-0.038l0.023-0.061l-0.031-0.411c-0.006-0.05,0.014-0.101,0.051-0.136
				l0.102-0.105c0.025-0.023,0.055-0.039,0.086-0.047l0.625-0.139c0.014-0.002,0.025-0.004,0.037-0.004h0.244
				c0.014,0,0.027,0.001,0.039,0.004l1.449,0.337l0.254-0.075l1.01-1.179l0.643-0.573c0.016-0.014,0.035-0.024,0.055-0.032
				l0.66-0.244c0.02-0.007,0.039-0.01,0.061-0.01h0.764l1.449,0.206l0.332-0.083l0.211-0.238l0.096-0.474
				c0.006-0.034,0.023-0.065,0.047-0.088l0.174-0.174l1.105-0.831l0.951-1.529c0.031-0.055,0.088-0.088,0.15-0.088h0.158
				l1.312-0.841l0.541-0.254c0.059-0.027,0.129-0.02,0.182,0.022l0.174,0.139c0.043,0.035,0.066,0.088,0.064,0.142l-0.033,0.786
				l0.127,0.233l0.307-0.047l0.775-0.372c0.031-0.014,0.064-0.02,0.098-0.016l0.521,0.07c0.021,0.003,0.043,0.01,0.062,0.022
				l0.486,0.278l0.428,0.351l0.447,0.224l1.332,0.273c0.029,0.007,0.057,0.02,0.078,0.038l0.244,0.208
				c0.023,0.022,0.043,0.051,0.053,0.082l0.139,0.451c0.004,0.017,0.008,0.034,0.008,0.052v0.931l0.129,0.256l0.195,0.088
				l0.072-0.101l0.234-0.873c0.008-0.029,0.023-0.056,0.045-0.078l0.312-0.312c0.045-0.046,0.109-0.064,0.17-0.044l0.244,0.069
				c0.045,0.013,0.08,0.042,0.104,0.08l0.416,0.73l0.51,0.676c0.008,0.012,0.016,0.024,0.021,0.037l0.104,0.243
				c0.016,0.04,0.02,0.084,0.004,0.124l-0.068,0.209c-0.01,0.028-0.027,0.054-0.049,0.075l-0.293,0.259l-0.039,0.066l0.168,0.318
				l0.615-0.141l1.684-0.824c0.086-0.042,0.189-0.006,0.232,0.078l0.111,0.223l0.258-0.065l0.465-0.266l0.371-0.149
				c0.033-0.014,0.07-0.017,0.105-0.008l0.279,0.07c0.021,0.005,0.043,0.016,0.061,0.03l0.254,0.189l0.176,0.051l0.16-0.024
				l0.416-0.32l0.629-0.333l0.428-1.053c0.016-0.041,0.047-0.073,0.088-0.092l0.52-0.243c0.016-0.006,0.031-0.011,0.049-0.014
				l0.658-0.104l0.305-0.002c0.031,0,0.062,0.007,0.088,0.024l0.568,0.333l0.256,0.057l0.264-0.051l-0.158-0.445
				c-0.004-0.012-0.006-0.023-0.008-0.036l-0.07-0.555c-0.004-0.046,0.008-0.092,0.035-0.128l0.244-0.313
				c0.033-0.042,0.084-0.066,0.137-0.066h0.66c0.023,0,0.047,0.004,0.066,0.013l1.008,0.417l0.502,0.115l0.432-0.215
				c0.053-0.027,0.119-0.023,0.172,0.01l0.695,0.452c0.01,0.007,0.021,0.016,0.029,0.025l1.203,1.271l0.766,0.499l0.848,0.306
				l0.4,0.098l0.604,0.066c0.049,0.006,0.09,0.03,0.119,0.069l0.104,0.138c0.01,0.012,0.018,0.026,0.023,0.039l0.068,0.175
				c0.01,0.019,0.014,0.041,0.014,0.063v0.595l0.766,0.587c0.021,0.017,0.037,0.038,0.049,0.061l0.139,0.278
				c0.01,0.017,0.016,0.035,0.018,0.053l0.035,0.244l0.002,0.337l0.025,0.197l0.047,0.045h0.852l0.049-0.028v-0.388
				c0-0.02,0.002-0.037,0.008-0.055l0.07-0.208c0.012-0.037,0.035-0.068,0.068-0.089l0.416-0.279c0.059-0.039,0.135-0.039,0.193,0
				l0.312,0.209c0.016,0.01,0.027,0.021,0.039,0.036l0.254,0.318l0.283,0.141l0.385,0.032c0.014,0,0.025,0.004,0.039,0.008
				l0.418,0.139l0.439,0.218c0.012,0.007,0.023,0.015,0.035,0.024l0.279,0.244c0.014,0.013,0.025,0.027,0.037,0.044l0.137,0.244
				l0.113,0.26l0.102,0.146l0.156,0.091l0.166-0.023l0.537-0.202l0.297-0.075c0.014-0.004,0.027-0.005,0.043-0.005h0.486
				l0.498,0.035c0.035,0.002,0.066,0.014,0.096,0.036l0.311,0.242c0.053,0.042,0.078,0.109,0.064,0.174l-0.105,0.486
				c-0.01,0.052-0.045,0.096-0.09,0.119l-0.531,0.265v0.095l0.07,0.141l0.18,0.157l0.445-0.139l0.471-0.269
				c0.01-0.006,0.021-0.012,0.035-0.016l0.451-0.138c0.039-0.013,0.084-0.01,0.123,0.008l0.521,0.244
				c0.031,0.014,0.057,0.037,0.074,0.066l0.277,0.451c0.01,0.013,0.014,0.024,0.018,0.039l0.307,0.949l0.234,0.354l0.303,0.125
				l0.35-0.146l0.391-0.142c0.057-0.021,0.123-0.01,0.17,0.03l0.453,0.382c0.025,0.022,0.045,0.052,0.055,0.085l0.068,0.243
				c0.006,0.015,0.006,0.032,0.006,0.047v0.209l0.02,0.097l0.1,0.058l0.053-0.021l0.096-0.119l0.094-0.222l0.148-0.261
				c0.014-0.025,0.033-0.045,0.057-0.061l0.486-0.312c0.061-0.037,0.137-0.036,0.195,0.005l0.244,0.173
				c0.031,0.024,0.057,0.058,0.066,0.096l0.273,1.025l0.166,0.332l0.145,0.232l0.387,0.256c0.078,0.052,0.1,0.157,0.051,0.237
				l-0.521,0.833l-5.523,8.583l-3.646,5.731l-6.137,9.593l0.727,0.075c0.021,0.003,0.043,0.009,0.062,0.02l3.197,1.667l0.234,0.167
				l1.197,0.299h0.566l0.531-0.25l0.885-0.815c0.008-0.008,0.018-0.016,0.027-0.022l0.521-0.312c0.021-0.013,0.045-0.02,0.07-0.022
				l0.662-0.07c0.025-0.003,0.049,0,0.074,0.009l0.902,0.312c0.018,0.007,0.033,0.016,0.049,0.026l0.869,0.66l0.783,0.818
				l0.574,0.819c0.008,0.015,0.016,0.029,0.021,0.044l0.277,0.835l0.146,0.859l0.225,0.701l0.574,0.575l2.34,1.204l0.725,0.574
				l0.508,0.577l0.428,0.606l0.486,1.023l0.246-0.494l1.387-7.513l2.709-15.11l2.084-11.291l1.355-7.538l1.389-7.539l2.293-12.749
				l0.346-1.175v-0.427c0-0.014,0.002-0.029,0.006-0.044l0.41-1.576v-1.054l0.381-2.163l-0.064-0.964L351.514,332.792z"/>
		</g>
	</g>
	<g>
		<g>
			<g>
				<g>
					<path fill="#FFFFFF" d="M510.559,175.865l4.231,28.459h-7.563l-0.396-5.115h-2.647l-0.444,5.115h-7.651l3.774-28.459H510.559z
						 M506.636,194.164c-0.374-3.224-0.75-7.208-1.127-11.953c-0.754,5.45-1.228,9.434-1.421,11.953H506.636z"/>
					<path fill="#FFFFFF" d="M538.881,175.865v28.459h-6.469l-0.009-19.213l-2.575,19.213h-4.588l-2.716-18.773l-0.009,18.773
						h-6.469v-28.459h9.576c0.283,1.711,0.576,3.728,0.878,6.05l1.051,7.239l1.7-13.289H538.881z"/>
					<path fill="#FFFFFF" d="M554.645,175.865l4.231,28.459h-7.563l-0.396-5.115h-2.647l-0.444,5.115h-7.651l3.774-28.459H554.645z
						 M550.722,194.164c-0.374-3.224-0.75-7.208-1.127-11.953c-0.754,5.45-1.228,9.434-1.421,11.953H550.722z"/>
					<path fill="#FFFFFF" d="M572.508,175.865v5.695l-5.512,17.068h5.512v5.695h-13.641v-4.131l5.695-18.633h-5.027v-5.695H572.508z
						"/>
					<path fill="#FFFFFF" d="M591.334,192.529c0,2.859-0.067,4.884-0.202,6.073s-0.557,2.276-1.266,3.261s-1.667,1.74-2.874,2.268
						s-2.613,0.791-4.219,0.791c-1.523,0-2.892-0.249-4.104-0.747s-2.188-1.245-2.927-2.241s-1.178-2.08-1.318-3.252
						s-0.211-3.223-0.211-6.152v-4.869c0-2.859,0.067-4.884,0.202-6.073s0.557-2.276,1.266-3.261s1.667-1.74,2.874-2.268
						s2.613-0.791,4.219-0.791c1.523,0,2.892,0.249,4.104,0.747s2.188,1.245,2.927,2.241s1.178,2.08,1.318,3.252
						s0.211,3.223,0.211,6.152V192.529z M583.934,183.177c0-1.324-0.073-2.171-0.22-2.54s-0.448-0.554-0.905-0.554
						c-0.387,0-0.683,0.149-0.888,0.448s-0.308,1.181-0.308,2.646v13.289c0,1.652,0.067,2.672,0.202,3.059s0.448,0.58,0.94,0.58
						c0.504,0,0.826-0.223,0.967-0.668s0.211-1.506,0.211-3.182V183.177z"/>
					<path fill="#FFFFFF" d="M610.617,175.865v28.459h-6.486l-3.85-12.938v12.938h-6.188v-28.459h6.188l4.148,12.814v-12.814
						H610.617z"/>
					<path fill="#FFFFFF" d="M626.381,175.865l4.231,28.459h-7.563l-0.396-5.115h-2.647l-0.444,5.115h-7.651l3.774-28.459H626.381z
						 M622.458,194.164c-0.374-3.224-0.75-7.208-1.127-11.953c-0.754,5.45-1.228,9.434-1.421,11.953H622.458z"/>
					<path fill="#FFFFFF" d="M647.549,184.478h-6.873v-2.109c0-0.984-0.088-1.611-0.264-1.881s-0.469-0.404-0.879-0.404
						c-0.445,0-0.782,0.182-1.011,0.545s-0.343,0.915-0.343,1.653c0,0.95,0.129,1.666,0.385,2.146
						c0.246,0.481,0.943,1.061,2.092,1.74c3.295,1.955,5.369,3.56,6.225,4.813s1.283,3.275,1.283,6.064
						c0,2.027-0.237,3.521-0.712,4.482s-1.392,1.767-2.751,2.417s-2.941,0.976-4.746,0.976c-1.98,0-3.671-0.375-5.071-1.125
						s-2.317-1.705-2.751-2.865s-0.65-2.807-0.65-4.939v-1.863h6.873v3.463c0,1.066,0.097,1.752,0.29,2.057s0.536,0.457,1.028,0.457
						s0.858-0.193,1.099-0.58s0.36-0.961,0.36-1.723c0-1.676-0.229-2.771-0.686-3.287c-0.469-0.516-1.623-1.377-3.463-2.584
						c-1.84-1.219-3.059-2.104-3.656-2.654s-1.093-1.312-1.485-2.285s-0.589-2.215-0.589-3.727c0-2.18,0.278-3.773,0.835-4.781
						s1.456-1.796,2.698-2.364s2.742-0.853,4.5-0.853c1.922,0,3.56,0.311,4.913,0.932s2.25,1.403,2.689,2.347
						s0.659,2.546,0.659,4.808V184.478z"/>
				</g>
			</g>
		</g>
	</g>
	<g>
		<g>
			<path fill="#F2961C" d="M498.711,225.136v4.156h-1.681v-12.987h3.685c1.045,0.141,1.927,0.571,2.646,1.291
				c0.86,0.866,1.291,1.905,1.291,3.117c0,1.223-0.431,2.266-1.291,3.129c-0.86,0.863-1.899,1.295-3.117,1.295H498.711z
				 M498.711,217.993v5.455h1.533c0.747,0,1.387-0.267,1.92-0.799c0.533-0.533,0.799-1.178,0.799-1.936
				c0-0.752-0.266-1.393-0.799-1.924c-0.533-0.53-1.173-0.795-1.92-0.795H498.711z"/>
			<path fill="#F2961C" d="M512.939,226.427l1.68,0.601c-0.411,0.568-0.709,0.944-0.893,1.128c-0.904,0.904-1.994,1.355-3.271,1.355
				c-1.271,0-2.359-0.452-3.263-1.355s-1.355-1.994-1.355-3.271c0-1.277,0.452-2.368,1.355-3.271
				c0.903-0.903,1.991-1.355,3.263-1.355c1.277,0,2.367,0.452,3.271,1.355c0.184,0.184,0.481,0.555,0.893,1.112l-1.68,0.617
				c-0.217-0.265-0.363-0.436-0.438-0.511c-0.563-0.563-1.245-0.844-2.046-0.844c-0.795,0-1.476,0.283-2.041,0.848
				s-0.848,1.249-0.848,2.05c0,0.795,0.282,1.476,0.848,2.041s1.246,0.848,2.041,0.848c0.801,0,1.486-0.281,2.055-0.844
				C512.579,226.854,512.723,226.687,512.939,226.427z"/>
			<path fill="#F2961C" d="M517.801,216.305c2.11,0.011,3.756,0.608,4.936,1.793c1.293,1.304,1.939,2.871,1.939,4.7
				c0,1.834-0.646,3.401-1.939,4.7c-1.18,1.185-2.825,1.783-4.936,1.794h-1.233v-12.987H517.801z M518.248,218.018v9.57
				c1.336,0,2.432-0.43,3.287-1.291c0.963-0.963,1.444-2.129,1.444-3.499c0-1.363-0.481-2.529-1.444-3.498
				C520.68,218.445,519.584,218.018,518.248,218.018z"/>
			<path fill="#F2961C" d="M534.262,225.197c0.883-0.658,1.635-1.219,2.257-1.685s1.179-0.966,1.668-1.501s0.735-1.131,0.735-1.786
				s-0.232-1.212-0.695-1.672c-0.462-0.46-1.021-0.69-1.676-0.69c-0.644,0-1.198,0.23-1.664,0.69
				c-0.395,0.395-0.641,1.077-0.738,2.045l-1.68-0.608c0.173-1.125,0.576-2.008,1.209-2.646c0.795-0.801,1.754-1.201,2.873-1.201
				c1.131,0,2.094,0.398,2.886,1.193c0.793,0.795,1.189,1.759,1.189,2.89c0,1.115-0.384,2.086-1.153,2.914
				c-0.486,0.525-1.053,1.03-1.699,1.514c-0.647,0.484-1.365,1.024-2.156,1.619c-0.692,0.514-1.079,0.958-1.16,1.331h6.169v1.688
				h-8.142C532.787,227.22,533.38,225.854,534.262,225.197z"/>
			<path fill="#F2961C" d="M544.68,227.385c0.23,0.227,0.346,0.503,0.346,0.828c0,0.335-0.115,0.617-0.346,0.844
				c-0.23,0.227-0.507,0.341-0.832,0.341c-0.318,0-0.595-0.114-0.828-0.341c-0.232-0.228-0.349-0.509-0.349-0.844
				c0-0.325,0.116-0.601,0.349-0.828c0.233-0.228,0.51-0.341,0.828-0.341C544.173,227.043,544.449,227.157,544.68,227.385z"/>
			<path fill="#F2961C" d="M553.098,221.211c-1.345,1.507-2.385,2.783-3.121,3.827c-0.736,1.044-1.131,2.462-1.186,4.253h-1.713
				c0.065-2.213,0.515-3.903,1.348-5.069c0.834-1.166,1.826-2.395,2.979-3.685c1.152-1.291,1.772-2.142,1.858-2.553h-6.168v-1.68
				h8.076C555.133,218.069,554.441,219.705,553.098,221.211z"/>
			<path fill="#F2961C" d="M566.268,224.885c0,1.271-0.451,2.358-1.352,3.259c-0.901,0.901-1.99,1.352-3.268,1.352
				c-1.271,0-2.357-0.451-3.259-1.352s-1.352-1.987-1.352-3.259v-3.969c0-1.271,0.45-2.358,1.352-3.259
				c0.901-0.901,1.987-1.351,3.259-1.351c1.277,0,2.366,0.45,3.268,1.351c0.9,0.901,1.352,1.988,1.352,3.259V224.885z
				 M564.547,220.916c0-0.795-0.283-1.475-0.849-2.038c-0.565-0.562-1.249-0.844-2.05-0.844c-0.795,0-1.476,0.282-2.041,0.844
				c-0.566,0.563-0.848,1.242-0.848,2.038v3.969c0,0.801,0.281,1.482,0.848,2.045c0.565,0.562,1.246,0.844,2.041,0.844
				c0.801,0,1.484-0.281,2.05-0.844c0.565-0.563,0.849-1.245,0.849-2.045V220.916z"/>
			<path fill="#F2961C" d="M571.746,222.604l-1.016-0.024v-1.664c0.736-0.011,1.221-0.061,1.453-0.15s0.487-0.28,0.764-0.572
				c0.275-0.292,0.414-0.627,0.414-1.006c0-0.374-0.131-0.688-0.39-0.946c-0.26-0.257-0.577-0.385-0.95-0.385
				c-0.367,0-0.682,0.127-0.941,0.381c-0.146,0.151-0.314,0.481-0.503,0.99l-1.567-0.617c0.233-0.73,0.518-1.255,0.854-1.575
				c0.6-0.595,1.32-0.893,2.158-0.893c0.855,0,1.58,0.3,2.176,0.901s0.893,1.315,0.893,2.143c0,0.844-0.5,1.659-1.502,2.443
				c0.482,0.032,0.988,0.306,1.518,0.819c0.774,0.833,1.162,1.808,1.162,2.922c0,1.125-0.396,2.087-1.189,2.886
				c-0.793,0.798-1.755,1.197-2.886,1.197c-1.12,0-2.078-0.4-2.874-1.201c-0.633-0.638-1.035-1.523-1.209-2.654l1.68-0.608
				c0.098,0.974,0.344,1.658,0.739,2.053c0.466,0.46,1.021,0.69,1.664,0.69c0.654,0,1.214-0.23,1.676-0.69
				c0.463-0.459,0.694-1.017,0.694-1.672c0-0.66-0.231-1.242-0.694-1.745C573.406,223.123,572.698,222.782,571.746,222.604z"/>
			<path fill="#27515D" d="M503.417,238.058l5.948,16.354h-2.248l-2.105-5.785h-4.334l-2.096,5.785h-2.258l5.948-16.354H503.417z
				 M504.245,246.511l-1.4-3.833l-1.39,3.833H504.245z"/>
			<path fill="#27515D" d="M513.843,238.058l5.305,9.168l5.284-9.168h1.932v16.354h-2.115v-11.816l-5.101,8.832l-5.12-8.832v11.816
				h-2.116v-16.354H513.843z"/>
			<path fill="#27515D" d="M536.002,238.058l5.949,16.354h-2.248l-2.105-5.785h-4.334l-2.096,5.785h-2.259l5.948-16.354H536.002z
				 M536.83,246.511l-1.4-3.833l-1.39,3.833H536.83z"/>
			<path fill="#27515D" d="M552.213,240.173h-7.747v-2.116h11.407l-8.229,14.228h7.768v2.126h-11.416L552.213,240.173z"/>
			<path fill="#27515D" d="M572.982,240.296c1.636,1.636,2.453,3.608,2.453,5.918s-0.817,4.283-2.453,5.918
				c-1.635,1.635-3.607,2.453-5.918,2.453c-2.31,0-4.282-0.818-5.918-2.453c-1.635-1.635-2.453-3.608-2.453-5.918
				s0.818-4.283,2.453-5.918c1.636-1.635,3.608-2.453,5.918-2.453C569.375,237.843,571.348,238.661,572.982,240.296z
				 M567.064,239.979c-1.724,0-3.193,0.608-4.41,1.825s-1.824,2.687-1.824,4.411c0,1.724,0.609,3.196,1.83,4.416
				c1.219,1.22,2.688,1.83,4.404,1.83c1.725,0,3.194-0.61,4.411-1.83c1.216-1.22,1.824-2.692,1.824-4.416
				c0-1.724-0.608-3.194-1.824-4.411C570.259,240.587,568.789,239.979,567.064,239.979z"/>
			<path fill="#27515D" d="M578.258,238.058h1.932l6.746,11.673v-11.673h2.125v16.354h-1.85l-6.838-11.816v11.816h-2.115V238.058z"
				/>
			<path fill="#27515D" d="M598.199,238.058l5.948,16.354h-2.249l-2.105-5.785h-4.334l-2.095,5.785h-2.259l5.949-16.354H598.199z
				 M599.027,246.511l-1.4-3.833l-1.391,3.833H599.027z"/>
			<path fill="#27515D" d="M610.935,246.02c-1.159-0.389-2.097-0.942-2.815-1.661c-0.72-0.719-1.079-1.61-1.079-2.673
				c0-1.042,0.373-1.938,1.119-2.688c0.747-0.75,1.651-1.125,2.714-1.125c1.049,0,1.949,0.372,2.699,1.114
				c0.422,0.409,0.775,1.06,1.062,1.952l-1.922,0.756c-0.231-0.627-0.443-1.036-0.634-1.227c-0.334-0.327-0.735-0.491-1.206-0.491
				c-0.477,0-0.883,0.166-1.217,0.496s-0.5,0.734-0.5,1.211c0,0.477,0.166,0.883,0.5,1.216c0.375,0.368,0.893,0.706,1.555,1.012
				c1.28,0.416,2.367,1.07,3.26,1.962c1.002,0.988,1.503,2.188,1.503,3.598c0,1.411-0.499,2.615-1.497,3.613
				c-0.998,0.999-2.199,1.498-3.604,1.498c-1.41,0-2.613-0.501-3.607-1.502c-0.798-0.797-1.303-1.898-1.514-3.302l2.055-0.746
				c0.129,1.206,0.446,2.062,0.951,2.565c0.586,0.586,1.291,0.879,2.115,0.879s1.529-0.293,2.115-0.879
				c0.586-0.586,0.88-1.294,0.88-2.126c0-0.824-0.294-1.529-0.88-2.116C612.43,246.8,611.745,246.354,610.935,246.02z"/>
		</g>
	</g>
	<g>
		<g>
			<polyline fill="none" stroke="#FFFFFF" stroke-width="2" points="300.953,328.512 405.947,185.55 486.537,185.55 			"/>
			<g>
				<circle fill="#FFFFFF" cx="301.02" cy="328.421" r="2.256"/>
			</g>
		</g>
	</g>
</g>
</svg>
