<?xml version="1.0" encoding="utf-8"?>
<!-- Generator: Adobe Illustrator 22.0.1, SVG Export Plug-In . SVG Version: 6.00 Build 0)  -->
<svg version="1.1" id="Capa_1" xmlns="http://www.w3.org/2000/svg" xmlns:xlink="http://www.w3.org/1999/xlink" x="0px" y="0px"
	 viewBox="0 0 734.3 413.2" style="enable-background:new 0 0 734.3 413.2;" xml:space="preserve">
<style type="text/css">
	.st0{fill:#2C5A67;}
	.st1{fill:#F2961C;}
	.st2{fill:#A0C219;}
	.st3{fill:none;}
	.st4{enable-background:new    ;}
	.st5{fill:#FFFFFF;}
	.st6{fill:#1FAEBE;}
	.st7{opacity:0.7;fill:#95C11F;enable-background:new    ;}
	.st8{opacity:0.7;fill:#E02386;enable-background:new    ;}
	.st9{opacity:0.7;fill:#2FAC66;enable-background:new    ;}
	.st10{fill:none;stroke:#FFFFFF;stroke-width:2;}
	.st11{fill:#A5A5A5;}
	.st12{font-family:'ArialMT';}
	.st13{font-size:13.1799px;}
</style>
<g>
	<g>
		<path class="st0" d="M0,0l6.7,413.2l676.1-3.4l37.2-353c-4.1,1.9-8.7,2.8-13.5,2.6c-15.6-0.9-27.6-14.3-26.7-30
			c0.2-4.2,1.4-8.2,3.3-11.8L0,0z"/>
		<path class="st0" d="M708.9,17.1c-7.7-0.4-14.3,5.4-14.7,13.1c-0.4,7.7,5.4,14.3,13.1,14.7c7.7,0.4,14.3-5.4,14.7-13.1
			C722.5,24.1,716.6,17.5,708.9,17.1z M714.5,36.6c0.4,0.5,0.4,1.1-0.1,1.5c-0.5,0.4-1.1,0.4-1.5-0.1l-4.9-5.5l-5.5,4.9
			c-0.5,0.4-1.1,0.4-1.5-0.1c-0.4-0.5-0.4-1.1,0.1-1.5l5.5-4.9l-4.9-5.5c-0.4-0.5-0.4-1.1,0.1-1.5c0.4-0.4,1.1-0.4,1.5,0.1l4.9,5.5
			l5.5-4.9c0.4-0.4,1.1-0.4,1.5,0.1c0.4,0.5,0.4,1.1-0.1,1.5l-5.5,4.9L714.5,36.6z"/>
		<g>
			<path class="st0" d="M681.9,29.5C682.7,15,695.1,4,709.6,4.8C724,5.6,735.1,18,734.3,32.5C733.5,46.9,721,58,706.6,57.2
				C692.1,56.4,681,43.9,681.9,29.5z M690,30c-0.6,10,7.1,18.6,17.1,19.1c10,0.6,18.6-7.1,19.1-17.1c0.6-10-7.1-18.6-17.1-19.1
				C699.1,12.3,690.5,20,690,30z"/>
		</g>
	</g>
	<g>
		<path class="st1" d="M28.8,276.3v-6c0-1.6,0.1-2.9,0.4-3.7c0.3-0.9,0.6-1.5,1.1-2c0.5-0.4,1.1-0.7,1.7-0.9
			c0.7-0.2,1.7-0.2,3.2-0.2h2c1.5,0,2.5,0.1,3.2,0.5c0.7,0.3,1.2,0.9,1.5,1.7c0.4,0.8,0.5,1.9,0.5,3.2v1.6h9.2v5.9L28.8,276.3
			L28.8,276.3z M32.7,270.4h5.8c0-0.2,0-0.3,0-0.4c0-0.5-0.1-0.9-0.4-1.1c-0.3-0.2-0.8-0.3-1.7-0.3h-1.9c-0.8,0-1.3,0.1-1.5,0.4
			C32.8,269.1,32.7,269.6,32.7,270.4z"/>
		<path class="st1" d="M39.9,249.4v5.4h-2.2c-0.8,0-1.3,0.1-1.5,0.2s-0.4,0.3-0.4,0.7c0,0.3,0.1,0.5,0.4,0.7s0.8,0.2,1.6,0.2h8.8
			c0.7,0,1.2-0.1,1.5-0.3c0.3-0.2,0.5-0.4,0.5-0.7c0-0.4-0.2-0.6-0.5-0.8c-0.3-0.1-1-0.2-2-0.2h-2.2v-5.1c1.5,0,2.6,0.1,3.4,0.2
			c0.7,0.1,1.5,0.4,2.3,0.9c0.8,0.5,1.4,1.2,1.8,2.1c0.4,0.9,0.6,1.9,0.6,3.2c0,1.6-0.3,2.9-0.8,3.8s-1.3,1.6-2.3,2
			c-1,0.4-2.4,0.6-4.2,0.6h-5.3c-1.6,0-2.8-0.2-3.6-0.5s-1.5-1-2.2-2c-0.6-1-1-2.3-1-3.8c0-1.5,0.3-2.8,0.9-3.8
			c0.6-1.1,1.4-1.8,2.4-2.1C36.8,249.5,38.2,249.4,39.9,249.4z"/>
		<path class="st1" d="M28.8,247.5v-4.4c0-2.9,0.1-4.8,0.4-5.8c0.3-1,0.7-1.8,1.3-2.3c0.6-0.5,1.3-0.9,2-1c0.7-0.1,2.2-0.2,4.4-0.2
			h8c2,0,3.4,0.1,4.1,0.3c0.7,0.2,1.2,0.5,1.6,1c0.4,0.5,0.7,1.1,0.8,1.8s0.2,1.8,0.2,3.2v7.5L28.8,247.5L28.8,247.5z M32.7,241.6
			h15c0-0.9-0.2-1.4-0.5-1.6c-0.3-0.2-1.3-0.3-2.8-0.3h-8.9c-1,0-1.7,0-2,0.1c-0.3,0.1-0.5,0.2-0.6,0.5
			C32.7,240.5,32.7,240.9,32.7,241.6z"/>
		<path class="st1" d="M32.9,220.9l2.5,0.2c-1.8-0.8-2.7-2-2.8-3.6h6.6c0,1,0.1,1.8,0.4,2.3c0.3,0.5,0.7,0.8,1.2,0.9
			c0.5,0.1,1.7,0.2,3.5,0.2h7.4v5.7H32.9V220.9z"/>
		<path class="st1" d="M42.6,203.4v7.4h4c0.8,0,1.4-0.1,1.6-0.2c0.2-0.1,0.4-0.4,0.4-0.7c0-0.4-0.2-0.7-0.5-0.9
			c-0.3-0.1-1-0.2-1.9-0.2h-2.5v-5.4h1.4c1.2,0,2,0.1,2.7,0.2c0.6,0.1,1.3,0.5,2,1c0.7,0.5,1.2,1.2,1.6,2c0.4,0.8,0.5,1.9,0.5,3.1
			c0,1.2-0.2,2.3-0.5,3.2c-0.3,0.9-0.8,1.6-1.4,2.2c-0.6,0.5-1.3,0.9-2,1.1c-0.7,0.2-1.8,0.3-3.2,0.3h-5.5c-1.6,0-2.9-0.2-3.9-0.7
			c-0.9-0.4-1.7-1.2-2.2-2.2c-0.5-1-0.8-2.2-0.8-3.5c0-1.6,0.3-2.9,0.9-4s1.4-1.8,2.4-2.2c1-0.4,2.4-0.6,4.2-0.6L42.6,203.4
			C42.6,203.4,42.6,203.4,42.6,203.4z M39.5,209.1h-1.4c-1,0-1.6,0.1-1.9,0.2c-0.3,0.1-0.4,0.3-0.4,0.6c0,0.4,0.1,0.6,0.4,0.7
			c0.2,0.1,0.9,0.1,1.9,0.1h1.4L39.5,209.1L39.5,209.1z"/>
		<path class="st1" d="M32.9,188.6h14.4c1.9,0,3.2,0,3.8,0.1c0.6,0.1,1.2,0.4,1.8,1s1.1,1.3,1.5,2.3c0.3,1,0.5,2.2,0.5,3.7
			c0,1.8-0.3,3.3-0.9,4.4s-1.8,1.7-3.6,1.7v-5.5c0.8,0,1.2-0.3,1.2-0.9c0-0.4-0.1-0.7-0.4-0.9s-0.8-0.2-1.6-0.2h-1.4
			c0.4,0.5,0.8,1,1,1.5c0.2,0.5,0.3,1.1,0.3,1.7c0,1-0.2,1.9-0.6,2.5s-1,1.1-1.6,1.4c-0.7,0.2-1.6,0.4-2.9,0.4h-6.8
			c-1.8,0-3.1-0.3-3.8-1c-0.8-0.6-1.2-1.6-1.2-2.9c0-0.7,0.1-1.4,0.4-2c0.3-0.6,0.7-1.1,1.3-1.6l-1.4-0.4L32.9,188.6L32.9,188.6z
			 M37.8,194.3c-0.9,0-1.4,0-1.6,0.1c-0.2,0.1-0.4,0.3-0.4,0.7c0,0.3,0.1,0.6,0.4,0.7c0.3,0.1,0.8,0.2,1.6,0.2h6.3
			c0.8,0,1.4-0.1,1.6-0.2c0.2-0.1,0.4-0.3,0.4-0.6c0-0.4-0.2-0.6-0.5-0.7s-1-0.2-2-0.2L37.8,194.3L37.8,194.3z"/>
		<path class="st1" d="M28.8,180.7h3v5.9h-3V180.7z M32.9,180.7h18.7v5.9H32.9V180.7z"/>
		<path class="st1" d="M38.9,167v5h-1c-0.9,0-1.4,0-1.6,0.1c-0.2,0.1-0.3,0.3-0.3,0.7c0,0.3,0.1,0.6,0.3,0.7c0.2,0.2,0.5,0.2,1,0.2
			c0.6,0,1,0,1.3-0.1c0.3-0.1,0.6-0.3,0.9-0.7c0.3-0.4,0.8-1.2,1.4-2.5c0.8-1.7,1.6-2.7,2.3-3.3c0.7-0.5,1.8-0.8,3.1-0.8
			c1.5,0,2.7,0.2,3.4,0.6s1.4,1.1,1.8,2c0.4,0.9,0.6,2,0.6,3.4c0,1.4-0.2,2.7-0.7,3.7c-0.5,1-1.1,1.7-1.8,2.1s-1.9,0.6-3.5,0.6H45
			v-5h1.2c1,0,1.7-0.1,2-0.2s0.5-0.4,0.5-0.8c0-0.4-0.1-0.7-0.3-0.8c-0.2-0.2-0.6-0.2-1.3-0.2c-0.9,0-1.5,0.1-1.7,0.3
			c-0.2,0.2-0.9,1.3-2,3.3c-0.9,1.7-1.8,2.7-2.6,3.1c-0.8,0.4-1.7,0.6-2.7,0.6c-1.5,0-2.6-0.2-3.3-0.6s-1.3-1.1-1.6-2
			c-0.4-0.9-0.6-2-0.6-3.3c0-1.2,0.2-2.3,0.5-3.2s0.7-1.5,1.2-2c0.5-0.5,1-0.7,1.4-0.8c0.4-0.1,1.1-0.1,2.1-0.1L38.9,167L38.9,167z"
			/>
		<path class="st1" d="M30.4,159h2.9v-1.5h3v1.5h10c1.2,0,1.9-0.1,2.1-0.2c0.1-0.1,0.2-0.7,0.2-1.6h3v2.3c0,1.3-0.1,2.2-0.2,2.8
			c-0.1,0.6-0.4,1-0.7,1.5c-0.4,0.4-0.8,0.7-1.3,0.8c-0.5,0.1-1.7,0.2-3.5,0.2h-9.5v1.2h-3v-1.2h-2.9L30.4,159L30.4,159z"/>
		<path class="st1" d="M32.9,150.5l2.5,0.2c-1.8-0.8-2.7-2-2.8-3.6h6.6c0,1,0.1,1.8,0.4,2.3s0.7,0.8,1.2,0.9
			c0.5,0.1,1.7,0.2,3.5,0.2h7.4v5.7H32.9V150.5z"/>
		<path class="st1" d="M40.1,140.8v5.3h-1.3c-1.4,0-2.6-0.2-3.3-0.5c-0.8-0.3-1.5-1-2.1-2c-0.6-1-0.9-2.3-0.9-3.9
			c0-1.9,0.3-3.4,1-4.4c0.7-1,1.5-1.6,2.5-1.8c1-0.2,3-0.3,6.1-0.3h9.4v5.5h-1.7c0.7,0.3,1.2,0.8,1.5,1.3s0.5,1.2,0.5,2
			c0,1-0.3,1.9-0.8,2.7c-0.6,0.8-1.8,1.2-3.7,1.2h-1.5c-1.4,0-2.4-0.2-2.9-0.7s-1.1-1.5-1.8-3.3c-0.7-1.9-1.2-2.9-1.5-3
			c-0.3-0.1-0.8-0.2-1.6-0.2c-1,0-1.6,0.1-1.9,0.2c-0.3,0.1-0.4,0.4-0.4,0.7c0,0.4,0.1,0.6,0.4,0.7s0.9,0.1,1.9,0.1H40.1z M42.7,139
			c0.7,0.9,1.2,1.4,1.7,1.6c0.5,0.1,1.1,0.2,1.9,0.2c1,0,1.6-0.1,1.9-0.2c0.3-0.1,0.4-0.4,0.4-0.8c0-0.4-0.1-0.6-0.3-0.7
			c-0.2-0.1-0.8-0.2-1.7-0.2L42.7,139L42.7,139z"/>
		<path class="st1" d="M28.8,118.4h22.8v5.7h-1.4c0.6,0.5,1,1.1,1.3,1.7c0.3,0.6,0.4,1.2,0.4,1.9c0,0.9-0.2,1.6-0.7,2.3
			c-0.5,0.6-1,1.1-1.6,1.2c-0.6,0.2-1.6,0.3-3,0.3h-8.8c-1.4,0-2.5-0.1-3.1-0.3c-0.6-0.2-1.1-0.6-1.6-1.3c-0.5-0.7-0.7-1.4-0.7-2.4
			c0-0.7,0.1-1.4,0.4-1.9c0.3-0.6,0.6-1.1,1.1-1.6h-5.3C28.8,124.1,28.8,118.4,28.8,118.4z M37.6,124.1c-0.7,0-1.1,0.1-1.4,0.2
			c-0.2,0.1-0.4,0.3-0.4,0.7c0,0.3,0.1,0.6,0.3,0.7c0.2,0.1,0.7,0.2,1.4,0.2h9.2c0.8,0,1.3-0.1,1.5-0.2c0.2-0.1,0.4-0.3,0.4-0.6
			c0-0.4-0.1-0.6-0.4-0.7s-0.9-0.2-2-0.2H37.6z"/>
		<path class="st1" d="M40.1,111.2v5.3h-1.3c-1.4,0-2.6-0.2-3.3-0.5c-0.8-0.3-1.5-1-2.1-2c-0.6-1-0.9-2.3-0.9-3.9
			c0-1.9,0.3-3.4,1-4.4c0.7-1,1.5-1.6,2.5-1.8c1-0.2,3-0.3,6.1-0.3h9.4v5.5h-1.7c0.7,0.3,1.2,0.8,1.5,1.3s0.5,1.2,0.5,2
			c0,1-0.3,1.9-0.8,2.7c-0.6,0.8-1.8,1.2-3.7,1.2h-1.5c-1.4,0-2.4-0.2-2.9-0.7s-1.1-1.5-1.8-3.3c-0.7-1.9-1.2-2.9-1.5-3
			c-0.3-0.1-0.8-0.2-1.6-0.2c-1,0-1.6,0.1-1.9,0.2c-0.3,0.1-0.4,0.4-0.4,0.7c0,0.4,0.1,0.6,0.4,0.7s0.9,0.1,1.9,0.1H40.1z
			 M42.7,109.4c0.7,0.9,1.2,1.4,1.7,1.6c0.5,0.1,1.1,0.2,1.9,0.2c1,0,1.6-0.1,1.9-0.2c0.3-0.1,0.4-0.4,0.4-0.8
			c0-0.4-0.1-0.6-0.3-0.7c-0.2-0.1-0.8-0.2-1.7-0.2L42.7,109.4L42.7,109.4z"/>
		<path class="st1" d="M38.9,90.1v5h-1c-0.9,0-1.4,0-1.6,0.1c-0.2,0.1-0.3,0.3-0.3,0.7c0,0.3,0.1,0.6,0.3,0.7c0.2,0.2,0.5,0.2,1,0.2
			c0.6,0,1,0,1.3-0.1c0.3-0.1,0.6-0.3,0.9-0.7c0.3-0.4,0.8-1.2,1.4-2.5c0.8-1.7,1.6-2.7,2.3-3.3c0.7-0.5,1.8-0.8,3.1-0.8
			c1.5,0,2.7,0.2,3.4,0.6c0.8,0.4,1.4,1.1,1.8,2s0.6,2,0.6,3.3c0,1.4-0.2,2.7-0.7,3.7c-0.5,1-1.1,1.7-1.8,2.1s-1.9,0.6-3.5,0.6H45
			v-5h1.2c1,0,1.7-0.1,2-0.2s0.5-0.4,0.5-0.8c0-0.4-0.1-0.7-0.3-0.8C48.1,95.1,47.7,95,47,95c-0.9,0-1.5,0.1-1.7,0.3
			c-0.2,0.2-0.9,1.3-2,3.3c-0.9,1.7-1.8,2.7-2.6,3.1c-0.8,0.4-1.7,0.6-2.7,0.6c-1.5,0-2.6-0.2-3.3-0.6s-1.3-1.1-1.6-2
			s-0.6-2-0.6-3.3c0-1.2,0.2-2.3,0.5-3.2s0.7-1.5,1.2-2c0.5-0.5,1-0.7,1.4-0.8c0.4-0.1,1.1-0.1,2.1-0.1L38.9,90.1L38.9,90.1z"/>
		<path class="st1" d="M32.9,77.3l1.7,0.1c-0.7-0.5-1.2-1.1-1.5-1.7s-0.5-1.3-0.5-2c0-0.9,0.2-1.6,0.7-2.3s1-1,1.6-1.2
			c0.6-0.2,1.7-0.2,3.2-0.2h7.9c1.7,0,2.9,0.1,3.6,0.3c0.7,0.2,1.3,0.6,1.7,1.2c0.4,0.6,0.6,1.4,0.6,2.3c0,0.7-0.2,1.4-0.5,2
			c-0.3,0.6-0.8,1.2-1.5,1.7h4.3v5.7H32.9L32.9,77.3L32.9,77.3z M38.3,75.7c-1.2,0-1.9,0-2.1,0.1c-0.2,0.1-0.4,0.3-0.4,0.7
			c0,0.4,0.1,0.6,0.4,0.7c0.3,0.1,1,0.2,2,0.2h7.8c1.1,0,1.8-0.1,2.1-0.2c0.3-0.1,0.4-0.4,0.4-0.7c0-0.4-0.1-0.6-0.4-0.7
			c-0.3-0.1-0.9-0.1-1.9-0.1L38.3,75.7L38.3,75.7z"/>
		<path class="st1" d="M39.4,55.2H44c1.7,0,2.9,0.1,3.7,0.3c0.8,0.2,1.5,0.5,2.2,1.1c0.7,0.6,1.2,1.3,1.5,2.1c0.3,0.9,0.5,1.9,0.5,3
			c0,1.3-0.1,2.3-0.4,3.2c-0.3,0.9-0.7,1.6-1.3,2c-0.6,0.5-1.2,0.8-2,1c-0.8,0.2-2,0.3-3.6,0.3h-4.8c-1.7,0-3.1-0.2-4.1-0.6
			s-1.8-1.1-2.4-2s-0.9-2.2-0.9-3.8c0-1.3,0.2-2.4,0.6-3.3c0.4-0.9,0.9-1.6,1.5-2.1s1.2-0.8,1.9-1C37.1,55.3,38.1,55.2,39.4,55.2z
			 M38,60.9c-1,0-1.6,0.1-1.8,0.2s-0.4,0.3-0.4,0.7s0.1,0.6,0.4,0.7s0.9,0.2,1.8,0.2h8.4c0.9,0,1.5-0.1,1.7-0.2
			c0.3-0.1,0.4-0.3,0.4-0.7c0-0.3-0.1-0.6-0.4-0.7c-0.2-0.1-0.8-0.2-1.6-0.2H38z"/>
		<path class="st1" d="M32.9,47.6l2.5,0.2c-1.8-0.8-2.7-2-2.8-3.6h6.6c0,1,0.1,1.8,0.4,2.3s0.7,0.8,1.2,0.9c0.5,0.1,1.7,0.2,3.5,0.2
			h7.4v5.7H32.9V47.6z"/>
		<path class="st1" d="M62.8,267.6h4.1l10.8,4.2v-4.2h3.8v9.7h-3.9l-11-4.3v3.9h-3.8L62.8,267.6L62.8,267.6z"/>
		<path class="st1" d="M69.3,253.4h4.6c1.7,0,2.9,0.1,3.7,0.3c0.8,0.2,1.5,0.5,2.2,1.1c0.7,0.6,1.2,1.3,1.5,2.1
			c0.3,0.9,0.5,1.9,0.5,3c0,1.3-0.1,2.3-0.4,3.2c-0.3,0.9-0.7,1.6-1.3,2c-0.6,0.5-1.2,0.8-2,1c-0.8,0.2-2,0.3-3.6,0.3h-4.8
			c-1.7,0-3.1-0.2-4.1-0.6s-1.8-1.1-2.4-2s-0.9-2.2-0.9-3.8c0-1.3,0.2-2.4,0.6-3.3c0.4-0.9,0.9-1.6,1.5-2.1c0.6-0.5,1.2-0.8,1.9-1
			C67,253.5,68,253.4,69.3,253.4z M67.9,259.1c-1,0-1.6,0.1-1.8,0.2c-0.2,0.1-0.4,0.3-0.4,0.7c0,0.3,0.1,0.6,0.4,0.7
			s0.9,0.2,1.8,0.2h8.4c0.9,0,1.5-0.1,1.7-0.2c0.3-0.1,0.4-0.3,0.4-0.7c0-0.3-0.1-0.6-0.4-0.7c-0.2-0.1-0.8-0.2-1.6-0.2H67.9z"/>
		<path class="st1" d="M62.8,245.8l1.7,0.1c-0.7-0.4-1.2-0.9-1.5-1.5c-0.3-0.6-0.5-1.3-0.5-2.1c0-1,0.2-1.8,0.7-2.4
			c0.5-0.6,1-1,1.7-1.2c0.7-0.2,1.9-0.3,3.5-0.3h13.1v5.7h-13c-1.3,0-2.1,0-2.4,0.1c-0.3,0.1-0.4,0.3-0.4,0.7c0,0.4,0.2,0.7,0.5,0.8
			c0.3,0.1,1.2,0.2,2.6,0.2h12.7v5.7H62.8V245.8z"/>
		<path class="st1" d="M70,231.4v5.3h-1.3c-1.4,0-2.6-0.2-3.3-0.5c-0.8-0.3-1.5-1-2.1-2c-0.6-1-0.9-2.3-0.9-3.9c0-1.9,0.3-3.4,1-4.4
			c0.7-1,1.5-1.6,2.5-1.8c1-0.2,3-0.3,6.1-0.3h9.4v5.5h-1.7c0.7,0.3,1.2,0.8,1.5,1.3c0.3,0.6,0.5,1.2,0.5,2c0,1-0.3,1.9-0.8,2.7
			c-0.6,0.8-1.8,1.2-3.7,1.2h-1.5c-1.4,0-2.4-0.2-2.9-0.7s-1.1-1.5-1.8-3.3c-0.7-1.9-1.2-2.9-1.5-3c-0.3-0.1-0.8-0.2-1.6-0.2
			c-1,0-1.6,0.1-1.9,0.2c-0.3,0.1-0.4,0.4-0.4,0.7c0,0.4,0.1,0.6,0.4,0.7c0.2,0.1,0.9,0.1,1.9,0.1L70,231.4L70,231.4z M72.6,229.6
			c0.7,0.9,1.2,1.4,1.7,1.6s1.1,0.2,1.9,0.2c1,0,1.6-0.1,1.9-0.2c0.3-0.1,0.4-0.4,0.4-0.8c0-0.4-0.1-0.6-0.3-0.7
			c-0.2-0.1-0.8-0.2-1.7-0.2L72.6,229.6L72.6,229.6z"/>
		<path class="st1" d="M62.8,203.9h14.4c1.9,0,3.2,0,3.8,0.1c0.6,0.1,1.2,0.4,1.8,1s1.1,1.3,1.5,2.3c0.3,1,0.5,2.2,0.5,3.7
			c0,1.8-0.3,3.3-0.9,4.4c-0.6,1.1-1.8,1.7-3.6,1.7v-5.5c0.8,0,1.2-0.3,1.2-0.9c0-0.4-0.1-0.7-0.4-0.9c-0.3-0.1-0.8-0.2-1.6-0.2H78
			c0.4,0.5,0.8,1,1,1.5c0.2,0.5,0.3,1.1,0.3,1.7c0,1-0.2,1.9-0.6,2.5s-1,1.1-1.6,1.4c-0.7,0.2-1.6,0.4-2.9,0.4h-6.8
			c-1.8,0-3.1-0.3-3.8-1c-0.8-0.6-1.2-1.6-1.2-2.9c0-0.7,0.1-1.4,0.4-2c0.3-0.6,0.7-1.1,1.3-1.6l-1.4-0.4L62.8,203.9L62.8,203.9z
			 M67.7,209.6c-0.9,0-1.4,0.1-1.6,0.1c-0.2,0.1-0.4,0.3-0.4,0.7c0,0.3,0.1,0.6,0.4,0.7c0.3,0.1,0.8,0.2,1.6,0.2H74
			c0.8,0,1.4-0.1,1.6-0.2c0.2-0.1,0.4-0.3,0.4-0.6c0-0.4-0.2-0.6-0.5-0.7c-0.3-0.1-1-0.2-2-0.2L67.7,209.6L67.7,209.6z"/>
		<path class="st1" d="M72.4,188.9v7.4h4c0.8,0,1.4-0.1,1.6-0.2c0.2-0.1,0.4-0.4,0.4-0.7c0-0.4-0.2-0.7-0.5-0.9
			c-0.3-0.1-1-0.2-1.9-0.2h-2.5v-5.4H75c1.2,0,2,0.1,2.7,0.2c0.6,0.1,1.3,0.5,2,1c0.7,0.5,1.2,1.2,1.6,2s0.5,1.9,0.5,3.1
			c0,1.2-0.2,2.3-0.5,3.2c-0.3,0.9-0.8,1.6-1.4,2.2c-0.6,0.5-1.3,0.9-2,1.1c-0.7,0.2-1.8,0.3-3.2,0.3h-5.5c-1.6,0-2.9-0.2-3.9-0.7
			c-0.9-0.4-1.7-1.2-2.2-2.2c-0.5-1-0.8-2.2-0.8-3.5c0-1.6,0.3-2.9,0.9-4c0.6-1,1.4-1.8,2.4-2.2c1-0.4,2.4-0.6,4.2-0.6L72.4,188.9
			L72.4,188.9L72.4,188.9z M69.4,194.6H68c-1,0-1.6,0.1-1.9,0.2c-0.3,0.1-0.4,0.3-0.4,0.6c0,0.4,0.1,0.6,0.4,0.7
			c0.2,0.1,0.9,0.1,1.9,0.1h1.4L69.4,194.6L69.4,194.6z"/>
		<path class="st1" d="M69.3,174.2h4.6c1.7,0,2.9,0.1,3.7,0.3c0.8,0.2,1.5,0.5,2.2,1.1c0.7,0.6,1.2,1.3,1.5,2.1
			c0.3,0.9,0.5,1.9,0.5,3c0,1.3-0.1,2.3-0.4,3.2c-0.3,0.9-0.7,1.6-1.3,2c-0.6,0.5-1.2,0.8-2,1c-0.8,0.2-2,0.3-3.6,0.3h-4.8
			c-1.7,0-3.1-0.2-4.1-0.6s-1.8-1.1-2.4-2c-0.6-1-0.9-2.2-0.9-3.8c0-1.3,0.2-2.4,0.6-3.3c0.4-0.9,0.9-1.6,1.5-2.1
			c0.6-0.5,1.2-0.8,1.9-1C67,174.3,68,174.2,69.3,174.2z M67.9,179.9c-1,0-1.6,0.1-1.8,0.2s-0.4,0.3-0.4,0.7s0.1,0.6,0.4,0.7
			s0.9,0.2,1.8,0.2h8.4c0.9,0,1.5-0.1,1.7-0.2c0.3-0.1,0.4-0.3,0.4-0.7c0-0.3-0.1-0.6-0.4-0.7c-0.2-0.1-0.8-0.2-1.6-0.2H67.9z"/>
		<path class="st1" d="M62.8,159.3h14.4c1.9,0,3.2,0,3.8,0.1c0.6,0.1,1.2,0.4,1.8,1s1.1,1.3,1.5,2.3c0.3,1,0.5,2.2,0.5,3.7
			c0,1.8-0.3,3.3-0.9,4.4c-0.6,1.1-1.8,1.7-3.6,1.7v-5.5c0.8,0,1.2-0.3,1.2-0.9c0-0.4-0.1-0.7-0.4-0.9s-0.8-0.2-1.6-0.2H78
			c0.4,0.5,0.8,1,1,1.5s0.3,1.1,0.3,1.7c0,1-0.2,1.9-0.6,2.5s-1,1.1-1.6,1.4c-0.7,0.2-1.6,0.4-2.9,0.4h-6.8c-1.8,0-3.1-0.3-3.8-1
			c-0.8-0.6-1.2-1.6-1.2-2.9c0-0.7,0.1-1.4,0.4-2c0.3-0.6,0.7-1.1,1.3-1.6l-1.4-0.4L62.8,159.3L62.8,159.3z M67.7,165.1
			c-0.9,0-1.4,0-1.6,0.1c-0.2,0.1-0.4,0.3-0.4,0.7c0,0.3,0.1,0.6,0.4,0.7s0.8,0.2,1.6,0.2H74c0.8,0,1.4-0.1,1.6-0.2
			c0.2-0.1,0.4-0.3,0.4-0.6c0-0.4-0.2-0.6-0.5-0.7c-0.3-0.1-1-0.2-2-0.2L67.7,165.1L67.7,165.1z"/>
		<path class="st1" d="M62.8,151.6l2.5,0.2c-1.8-0.8-2.7-2-2.8-3.6H69c0,1,0.1,1.8,0.4,2.3s0.7,0.8,1.2,0.9s1.7,0.2,3.5,0.2h7.4v5.7
			H62.8V151.6z"/>
		<path class="st1" d="M57.7,135.9l3.8,4.6v2.9l-3.8-2.5V135.9z M70,141.9v5.3h-1.3c-1.4,0-2.6-0.2-3.3-0.5c-0.8-0.3-1.5-1-2.1-2
			c-0.6-1-0.9-2.3-0.9-3.9c0-1.9,0.3-3.4,1-4.4c0.7-1,1.5-1.6,2.5-1.8c1-0.2,3-0.3,6.1-0.3h9.4v5.5h-1.7c0.7,0.3,1.2,0.8,1.5,1.3
			s0.5,1.2,0.5,2c0,1-0.3,1.9-0.8,2.7c-0.6,0.8-1.8,1.2-3.7,1.2h-1.5c-1.4,0-2.4-0.2-2.9-0.7c-0.5-0.4-1.1-1.5-1.8-3.3
			c-0.7-1.9-1.2-2.9-1.5-3c-0.3-0.1-0.8-0.2-1.6-0.2c-1,0-1.6,0.1-1.9,0.2c-0.3,0.1-0.4,0.4-0.4,0.7c0,0.4,0.1,0.6,0.4,0.7
			s0.9,0.1,1.9,0.1L70,141.9L70,141.9z M72.6,140.1c0.7,0.9,1.2,1.4,1.7,1.6c0.5,0.1,1.1,0.2,1.9,0.2c1,0,1.6-0.1,1.9-0.2
			c0.3-0.1,0.4-0.4,0.4-0.8c0-0.4-0.1-0.6-0.3-0.7c-0.2-0.1-0.8-0.2-1.7-0.2L72.6,140.1L72.6,140.1z"/>
		<path class="st1" d="M58.6,125.2h2.9c0,1.2,0.1,1.9,0.2,2.1s0.4,0.3,0.9,0.3h0.6v-2.4h3v1.4h15.3v5.7H66.2v1.2h-3v-1.2
			c-1.2,0-2.1,0-2.5-0.1c-0.4-0.1-0.8-0.3-1.1-0.6c-0.3-0.3-0.6-0.8-0.7-1.4c-0.2-0.6-0.3-1.5-0.3-2.8V125.2z"/>
		<path class="st1" d="M58.6,118.2h3v5.9h-3V118.2z M62.8,118.2h18.7v5.9H62.8V118.2z"/>
		<path class="st1" d="M69.8,103.6v5.4h-2.2c-0.8,0-1.3,0.1-1.5,0.2s-0.4,0.3-0.4,0.7s0.1,0.6,0.4,0.7s0.8,0.2,1.6,0.2h8.8
			c0.7,0,1.2-0.1,1.5-0.3c0.3-0.2,0.5-0.4,0.5-0.7c0-0.4-0.2-0.6-0.5-0.8c-0.3-0.1-1-0.2-2-0.2h-2.2v-5.1c1.5,0,2.6,0.1,3.4,0.2
			c0.7,0.1,1.5,0.4,2.3,0.9s1.4,1.2,1.8,2.1s0.6,1.9,0.6,3.2c0,1.6-0.3,2.9-0.8,3.8c-0.6,0.9-1.3,1.6-2.3,2c-1,0.4-2.4,0.6-4.2,0.6
			h-5.3c-1.6,0-2.8-0.2-3.6-0.5c-0.8-0.3-1.5-1-2.2-2c-0.6-1-1-2.3-1-3.8c0-1.5,0.3-2.8,0.9-3.8s1.4-1.8,2.4-2.1
			C66.7,103.7,68.1,103.6,69.8,103.6z"/>
		<path class="st1" d="M70,96.8v5.3h-1.3c-1.4,0-2.6-0.2-3.3-0.5c-0.8-0.3-1.5-1-2.1-2c-0.6-1-0.9-2.3-0.9-3.9c0-1.9,0.3-3.4,1-4.4
			c0.7-1,1.5-1.6,2.5-1.8c1-0.2,3-0.3,6.1-0.3h9.4v5.5h-1.7c0.7,0.3,1.2,0.8,1.5,1.3s0.5,1.2,0.5,2c0,1-0.3,1.9-0.8,2.7
			c-0.6,0.8-1.8,1.2-3.7,1.2h-1.5c-1.4,0-2.4-0.2-2.9-0.7c-0.5-0.4-1.1-1.5-1.8-3.3c-0.7-1.9-1.2-2.9-1.5-3C69.4,95,68.9,95,68.1,95
			c-1,0-1.6,0.1-1.9,0.2c-0.3,0.1-0.4,0.4-0.4,0.7c0,0.4,0.1,0.6,0.4,0.7s0.9,0.1,1.9,0.1H70z M72.6,95c0.7,0.9,1.2,1.4,1.7,1.6
			c0.5,0.1,1.1,0.2,1.9,0.2c1,0,1.6-0.1,1.9-0.2c0.3-0.1,0.4-0.4,0.4-0.8c0-0.4-0.1-0.6-0.3-0.7C77.9,95,77.4,95,76.4,95L72.6,95
			L72.6,95z"/>
	</g>
	<g>
		<path class="st2" d="M37.2,371.3v5.9h-2.1c-1.3,0-2.1,0.1-2.5,0.2s-0.5,0.4-0.5,0.8c0,0.4,0.1,0.6,0.4,0.7c0.3,0.1,1,0.2,2.2,0.2
			h11c1,0,1.7-0.1,2-0.2c0.3-0.1,0.5-0.4,0.5-0.8c0-0.4-0.2-0.7-0.5-0.9c-0.4-0.2-1.1-0.2-2.1-0.2h-2.7v1.2h-3.5v-7h12.3v3.7
			l-1.6,0.5c0.7,0.4,1.2,0.9,1.6,1.5s0.5,1.3,0.5,2.2c0,1-0.2,1.9-0.7,2.8c-0.5,0.9-1.1,1.5-1.8,2s-1.5,0.7-2.2,0.8
			c-0.8,0.1-2,0.2-3.5,0.2H37c-2.2,0-3.8-0.1-4.8-0.4c-1-0.2-1.9-0.9-2.7-2c-0.8-1.1-1.2-2.6-1.2-4.3c0-1.7,0.4-3.2,1.1-4.3
			c0.7-1.1,1.6-1.9,2.5-2.2s2.4-0.5,4.3-0.5L37.2,371.3L37.2,371.3z"/>
		<path class="st2" d="M28.8,369v-4.2c0-2.8,0.1-4.7,0.3-5.7c0.2-1,0.8-1.8,1.7-2.4c0.9-0.6,2.3-0.9,4.3-0.9c1.8,0,3,0.2,3.6,0.7
			c0.6,0.4,1,1.3,1.1,2.6c0.3-1.2,0.7-2,1.2-2.4c0.5-0.4,0.9-0.7,1.3-0.8s1.5-0.1,3.4-0.1h6v5.5H44c-1.2,0-2,0.1-2.3,0.3
			c-0.3,0.2-0.4,0.7-0.4,1.5h10.3v5.9L28.8,369L28.8,369z M32.7,363.1h5.1c0-0.7-0.1-1.1-0.3-1.4c-0.2-0.3-0.8-0.4-1.8-0.4h-1.3
			c-0.7,0-1.2,0.1-1.4,0.4C32.8,361.9,32.7,362.4,32.7,363.1z"/>
		<path class="st2" d="M24.2,342.5l3.8,4.6v2.9l-3.8-2.5V342.5z M28.8,343.2l22.8-3.4v6.1l-4.1,0.3v2.1l4.1,0.4v6.1l-22.8-3
			C28.8,351.8,28.8,343.2,28.8,343.2z M43.4,346.3c-2.6,0.3-5.8,0.6-9.6,0.9c4.4,0.6,7.6,1,9.6,1.1V346.3z"/>
		<path class="st2" d="M28.8,338.8v-10.1h4.6v4.1h4.3v-3.7H42v3.7h9.6v5.9H28.8z"/>
		<path class="st2" d="M28.8,321.4h22.8v5.9H28.8V321.4z"/>
		<path class="st2" d="M38.7,305.1v5.9h-4c-1.2,0-1.9,0.1-2.2,0.2s-0.4,0.4-0.4,0.8c0,0.5,0.2,0.8,0.5,0.9c0.3,0.1,1.1,0.2,2.3,0.2
			h10.6c1.1,0,1.8-0.1,2.2-0.2c0.3-0.1,0.5-0.4,0.5-0.9c0-0.4-0.2-0.7-0.5-0.9c-0.3-0.1-1.1-0.2-2.4-0.2h-2.9v-5.9h0.9
			c2.4,0,4,0.2,5,0.5c1,0.3,1.9,1.1,2.6,2.2c0.7,1.1,1.1,2.5,1.1,4.2c0,1.7-0.3,3.2-0.9,4.3c-0.6,1.1-1.5,1.9-2.6,2.2
			c-1.1,0.4-2.8,0.6-5,0.6h-6.7c-1.6,0-2.9-0.1-3.7-0.2c-0.8-0.1-1.6-0.4-2.4-1c-0.8-0.6-1.4-1.3-1.8-2.3c-0.4-1-0.7-2.1-0.7-3.4
			c0-1.7,0.3-3.2,1-4.3c0.7-1.1,1.5-1.9,2.5-2.2c1-0.4,2.6-0.5,4.7-0.5L38.7,305.1L38.7,305.1z"/>
		<path class="st2" d="M28.8,292.7l22.8-3.4v6.1l-4.1,0.3v2.1l4.1,0.4v6.1l-22.8-3C28.8,301.3,28.8,292.7,28.8,292.7z M43.4,295.9
			c-2.6,0.3-5.8,0.6-9.6,0.9c4.4,0.6,7.6,1,9.6,1.1V295.9z"/>
		<path class="st2" d="M58.6,291.3h14.9v-1.6h3.9v1.6h4v5.7h-4v6.8h-3.9l-14.9-4.9V291.3z M73.6,297h-9.7l9.7,2.5V297z"/>
	</g>
	<path id="b2" class="st3" d="M188.8,244.8c-18.5-53.8,10.1-112.3,63.9-130.8c5.5-1.9,11.2-3.3,16.9-4.3l16.5,101.6L188.8,244.8z"/>
	<g>
		<g>
			<g class="st4">
				<path class="st5" d="M126.4,137.2v11.6h-2.9v-6.2c0-0.9,0-1.4-0.1-1.6s-0.2-0.3-0.4-0.4c-0.2-0.1-0.6-0.1-1.3-0.1h-0.3V139
					c1.4-0.3,2.5-0.9,3.2-1.9H126.4z"/>
				<path class="st5" d="M133.3,137.2v2.5l-1.8,9.1h-2.9l2.1-9.5h-2.9v-2.1L133.3,137.2L133.3,137.2z"/>
				<path class="st5" d="M138.7,139.1v2c0,0.5,0,0.9-0.1,1.2c-0.1,0.3-0.3,0.5-0.6,0.7c-0.3,0.2-0.7,0.3-1.3,0.3
					c-0.6,0-1.1-0.1-1.4-0.3s-0.5-0.4-0.6-0.7s-0.2-0.6-0.2-1.1v-2.1c0-0.6,0.1-1,0.2-1.3c0.1-0.3,0.3-0.5,0.7-0.7s0.7-0.3,1.2-0.3
					c0.5,0,1,0.1,1.3,0.3c0.3,0.2,0.6,0.4,0.7,0.7C138.6,138.2,138.7,138.6,138.7,139.1z M136.8,138.6c0-0.3,0-0.5,0-0.6
					c0-0.1-0.1-0.1-0.3-0.1c-0.1,0-0.2,0-0.2,0.1s-0.1,0.3-0.1,0.6v2.9c0,0.3,0,0.5,0.1,0.6c0,0.1,0.1,0.1,0.3,0.1
					c0.1,0,0.2,0,0.2-0.1s0.1-0.3,0.1-0.5L136.8,138.6L136.8,138.6L136.8,138.6z M142,136.9l-4.5,12h-1.1l4.5-12H142z M144.1,144.7
					v2c0,0.5,0,0.9-0.1,1.2s-0.3,0.5-0.6,0.7c-0.3,0.2-0.7,0.3-1.3,0.3c-0.6,0-1.1-0.1-1.4-0.3c-0.3-0.2-0.5-0.4-0.7-0.7
					c-0.1-0.3-0.2-0.6-0.2-1.1v-2.1c0-0.6,0.1-1,0.2-1.3c0.1-0.3,0.3-0.5,0.7-0.7c0.3-0.2,0.7-0.3,1.2-0.3c0.5,0,1,0.1,1.3,0.3
					c0.3,0.2,0.6,0.4,0.7,0.7C144,143.8,144.1,144.2,144.1,144.7z M142.2,144.2c0-0.3,0-0.5,0-0.6c0-0.1-0.1-0.1-0.3-0.1
					c-0.1,0-0.2,0-0.2,0.1s-0.1,0.3-0.1,0.6v2.9c0,0.3,0,0.5,0.1,0.6c0,0.1,0.1,0.1,0.3,0.1c0.1,0,0.2,0,0.2-0.1
					c0-0.1,0.1-0.3,0.1-0.5V144.2z"/>
			</g>
		</g>
	</g>
	<g>
		<g>
			<g class="st4">
				<path class="st6" d="M119.5,153.4h-3.4v-0.9h5l-3.6,6.2h3.4v0.9h-5L119.5,153.4z"/>
				<path class="st6" d="M128.6,153.5c0.7,0.7,1.1,1.6,1.1,2.6c0,1-0.4,1.9-1.1,2.6s-1.6,1.1-2.6,1.1s-1.9-0.4-2.6-1.1
					s-1.1-1.6-1.1-2.6c0-1,0.4-1.9,1.1-2.6c0.7-0.7,1.6-1.1,2.6-1.1C127,152.4,127.9,152.8,128.6,153.5z M126,153.3
					c-0.8,0-1.4,0.3-1.9,0.8c-0.5,0.5-0.8,1.2-0.8,1.9s0.3,1.4,0.8,1.9c0.5,0.5,1.2,0.8,1.9,0.8c0.8,0,1.4-0.3,1.9-0.8
					c0.5-0.5,0.8-1.2,0.8-1.9s-0.3-1.4-0.8-1.9C127.4,153.6,126.8,153.3,126,153.3z"/>
				<path class="st6" d="M130.9,152.5h0.8l3,5.1v-5.1h0.9v7.2h-0.8l-3-5.2v5.2h-0.9L130.9,152.5L130.9,152.5z"/>
				<path class="st6" d="M139.7,152.5l2.6,7.2h-1l-0.9-2.5h-1.9l-0.9,2.5h-1l2.6-7.2H139.7z M140,156.2l-0.6-1.7l-0.6,1.7H140z"/>
				<path class="st6" d="M117.5,168.4h-0.8v2.3h-0.9v-7.2h2c0.6,0.1,1.1,0.3,1.5,0.7c0.5,0.5,0.7,1.1,0.7,1.7c0,0.7-0.2,1.2-0.7,1.7
					c-0.3,0.3-0.6,0.5-0.8,0.6l1.6,2.4H119L117.5,168.4z M116.7,164.4v3h0.8c0.4,0,0.8-0.1,1.1-0.4c0.3-0.3,0.4-0.6,0.4-1.1
					c0-0.4-0.1-0.8-0.4-1.1c-0.3-0.3-0.6-0.4-1.1-0.4L116.7,164.4L116.7,164.4z"/>
				<path class="st6" d="M124.9,163.5h0.9v5c-0.1,0.6-0.3,1.1-0.7,1.5c-0.5,0.5-1.1,0.7-1.7,0.7s-1.2-0.2-1.7-0.7
					c-0.5-0.5-0.7-1-0.7-1.7v-4.8h0.9v4.8c0,0.4,0.1,0.8,0.4,1.1c0.3,0.3,0.6,0.4,1.1,0.4c0.4,0,0.8-0.1,1.1-0.4s0.4-0.6,0.4-1.1
					C124.9,168.3,124.9,163.5,124.9,163.5z"/>
				<path class="st6" d="M129,168.4h-0.8v2.3h-0.9v-7.2h2c0.6,0.1,1.1,0.3,1.5,0.7c0.5,0.5,0.7,1.1,0.7,1.7c0,0.7-0.2,1.2-0.7,1.7
					c-0.3,0.3-0.6,0.5-0.8,0.6l1.6,2.4h-1.1L129,168.4z M128.1,164.4v3h0.8c0.4,0,0.8-0.1,1.1-0.4c0.3-0.3,0.4-0.6,0.4-1.1
					c0-0.4-0.1-0.8-0.4-1.1c-0.3-0.3-0.6-0.4-1.1-0.4L128.1,164.4L128.1,164.4z"/>
				<path class="st6" d="M135.1,163.5l2.6,7.2h-1l-0.9-2.5h-1.9l-0.9,2.5h-1l2.6-7.2H135.1z M135.5,167.2l-0.6-1.7l-0.6,1.7H135.5z"
					/>
				<path class="st6" d="M138.6,170.6v-7.2h0.9v6.2h2.6v0.9L138.6,170.6L138.6,170.6z"/>
			</g>
		</g>
	</g>
	<g>
		<g>
			<g class="st4">
				<path class="st5" d="M138,286.8c0.4,0.2,0.8,0.4,1,0.8s0.3,1.2,0.3,2.4c0,0.9-0.1,1.6-0.3,2.1c-0.2,0.4-0.5,0.8-1.1,1.1
					c-0.5,0.3-1.2,0.4-2.1,0.4c-0.9,0-1.5-0.1-2-0.4c-0.5-0.3-0.9-0.6-1.1-1.1c-0.2-0.4-0.3-1.2-0.3-2.2c0-0.7,0.1-1.3,0.2-1.8
					s0.4-0.9,1-1.2c-0.4-0.2-0.6-0.4-0.8-0.8c-0.2-0.4-0.3-0.9-0.3-1.4c0-1,0.3-1.7,0.8-2.2c0.6-0.5,1.4-0.7,2.5-0.7
					c1.3,0,2.2,0.3,2.6,0.8s0.7,1.3,0.7,2.3c0,0.6-0.1,1.1-0.2,1.4C138.8,286.2,138.5,286.5,138,286.8z M136.4,289.1
					c0-0.4,0-0.7-0.1-0.9c-0.1-0.1-0.2-0.2-0.4-0.2c-0.2,0-0.3,0.1-0.4,0.2s-0.1,0.4-0.1,0.9v1.5c0,0.5,0,0.8,0.1,1s0.2,0.2,0.4,0.2
					c0.2,0,0.3-0.1,0.4-0.2c0.1-0.1,0.1-0.5,0.1-1L136.4,289.1L136.4,289.1z M136.4,284.3c0-0.4,0-0.6-0.1-0.8
					c-0.1-0.1-0.2-0.2-0.4-0.2c-0.2,0-0.3,0.1-0.4,0.2c-0.1,0.1-0.1,0.4-0.1,0.8v0.9c0,0.3,0,0.6,0.1,0.7s0.2,0.2,0.4,0.2
					c0.2,0,0.3-0.1,0.4-0.2c0.1-0.1,0.1-0.4,0.1-0.8L136.4,284.3L136.4,284.3z"/>
				<path class="st5" d="M145,283.7v2c0,0.5,0,0.9-0.1,1.2c-0.1,0.3-0.3,0.5-0.6,0.7c-0.3,0.2-0.7,0.3-1.3,0.3
					c-0.6,0-1.1-0.1-1.4-0.3c-0.3-0.2-0.5-0.4-0.6-0.7s-0.2-0.6-0.2-1.1v-2.1c0-0.6,0.1-1,0.2-1.3c0.1-0.3,0.3-0.5,0.7-0.7
					c0.3-0.2,0.7-0.3,1.2-0.3c0.5,0,1,0.1,1.3,0.3c0.3,0.2,0.6,0.4,0.7,0.7C145,282.8,145,283.2,145,283.7z M143.2,283.2
					c0-0.3,0-0.5,0-0.6c0-0.1-0.1-0.1-0.3-0.1c-0.1,0-0.2,0-0.2,0.1s-0.1,0.3-0.1,0.6v2.9c0,0.3,0,0.5,0.1,0.6
					c0,0.1,0.1,0.1,0.3,0.1c0.1,0,0.2,0,0.2-0.1c0-0.1,0.1-0.3,0.1-0.5L143.2,283.2L143.2,283.2L143.2,283.2z M148.4,281.5l-4.5,12
					h-1.1l4.5-12H148.4z M150.4,289.3v2c0,0.5,0,0.9-0.1,1.2c-0.1,0.3-0.3,0.5-0.6,0.7c-0.3,0.2-0.7,0.3-1.3,0.3
					c-0.6,0-1.1-0.1-1.4-0.3c-0.3-0.2-0.5-0.4-0.7-0.7c-0.1-0.3-0.2-0.6-0.2-1.1v-2.1c0-0.6,0.1-1,0.2-1.3c0.1-0.3,0.3-0.5,0.7-0.7
					c0.3-0.2,0.7-0.3,1.2-0.3c0.5,0,1,0.1,1.3,0.3c0.3,0.2,0.6,0.4,0.7,0.7C150.3,288.4,150.4,288.8,150.4,289.3z M148.6,288.8
					c0-0.3,0-0.5,0-0.6c0-0.1-0.1-0.1-0.3-0.1c-0.1,0-0.2,0-0.2,0.1s-0.1,0.3-0.1,0.6v2.9c0,0.3,0,0.5,0.1,0.6
					c0,0.1,0.1,0.1,0.3,0.1c0.1,0,0.2,0,0.2-0.1c0-0.1,0.1-0.3,0.1-0.5V288.8z"/>
			</g>
		</g>
	</g>
	<g>
		<g>
			<g class="st4">
				<path class="st6" d="M122.3,302.5l0.7,0.6c-0.8,0.8-1.7,1.2-2.7,1.2c-1,0-1.9-0.4-2.6-1.1s-1.1-1.6-1.1-2.6c0-1,0.4-1.9,1.1-2.6
					s1.6-1.1,2.6-1.1c0.9,0,1.8,0.4,2.7,1.2l-0.7,0.6c-0.6-0.6-1.3-0.9-2-0.9c-0.7,0-1.4,0.3-1.9,0.8c-0.5,0.5-0.8,1.2-0.8,1.9
					c0,0.8,0.3,1.4,0.8,1.9c0.5,0.5,1.2,0.8,1.9,0.8C121,303.4,121.7,303.1,122.3,302.5z"/>
				<path class="st6" d="M128,297.1v0.9H125v2.2h2.9v0.9H125v2.2h2.9v0.9h-3.9v-7.2L128,297.1L128,297.1z"/>
				<path class="st6" d="M129.2,297.1h0.8l3,5.1v-5.1h0.9v7.2h-0.8l-3-5.2v5.2h-0.9L129.2,297.1L129.2,297.1z"/>
				<path class="st6" d="M137.4,298v6.2h-0.9V298h-1.7v-0.9h4.3v0.9H137.4z"/>
				<path class="st6" d="M141.8,302h-0.8v2.3H140v-7.2h2c0.6,0.1,1.1,0.3,1.5,0.7c0.5,0.5,0.7,1,0.7,1.7c0,0.7-0.2,1.2-0.7,1.7
					c-0.3,0.3-0.6,0.5-0.8,0.6l1.6,2.4h-1.1L141.8,302z M140.9,298v3h0.8c0.4,0,0.8-0.1,1.1-0.4c0.3-0.3,0.4-0.6,0.4-1.1
					s-0.1-0.8-0.4-1.1c-0.3-0.3-0.6-0.4-1.1-0.4L140.9,298L140.9,298z"/>
				<path class="st6" d="M151.4,298.1c0.7,0.7,1.1,1.6,1.1,2.6c0,1-0.4,1.9-1.1,2.6s-1.6,1.1-2.6,1.1s-1.9-0.4-2.6-1.1
					s-1.1-1.6-1.1-2.6c0-1,0.4-1.9,1.1-2.6c0.7-0.7,1.6-1.1,2.6-1.1C149.8,297,150.7,297.4,151.4,298.1z M148.8,297.9
					c-0.8,0-1.4,0.3-1.9,0.8c-0.5,0.5-0.8,1.2-0.8,1.9s0.3,1.4,0.8,1.9c0.5,0.5,1.2,0.8,1.9,0.8c0.8,0,1.4-0.3,1.9-0.8
					c0.5-0.5,0.8-1.2,0.8-1.9s-0.3-1.4-0.8-1.9C150.2,298.2,149.5,297.9,148.8,297.9z"/>
				<path class="st6" d="M111.2,313v2.3h-0.9v-7.2h2c0.6,0.1,1.1,0.3,1.5,0.7c0.5,0.5,0.7,1,0.7,1.7c0,0.7-0.2,1.2-0.7,1.7
					c-0.5,0.5-1,0.7-1.7,0.7L111.2,313L111.2,313z M111.2,309v3h0.8c0.4,0,0.8-0.1,1.1-0.4c0.3-0.3,0.4-0.6,0.4-1.1
					c0-0.4-0.1-0.8-0.4-1.1c-0.3-0.3-0.6-0.4-1.1-0.4L111.2,309L111.2,309z"/>
				<path class="st6" d="M121.6,309.1c0.7,0.7,1.1,1.6,1.1,2.6c0,1-0.4,1.9-1.1,2.6c-0.7,0.7-1.6,1.1-2.6,1.1s-1.9-0.4-2.6-1.1
					s-1.1-1.6-1.1-2.6c0-1,0.4-1.9,1.1-2.6c0.7-0.7,1.6-1.1,2.6-1.1C120,308,120.9,308.3,121.6,309.1z M119,308.9
					c-0.8,0-1.4,0.3-1.9,0.8c-0.5,0.5-0.8,1.2-0.8,1.9s0.3,1.4,0.8,1.9c0.5,0.5,1.2,0.8,1.9,0.8c0.8,0,1.4-0.3,1.9-0.8
					s0.8-1.2,0.8-1.9s-0.3-1.4-0.8-1.9C120.4,309.2,119.7,308.9,119,308.9z"/>
				<path class="st6" d="M125.3,308.1c0.4,0,0.8,0.1,1.1,0.4c0.3,0.3,0.4,0.6,0.4,1.1c0,0.4-0.2,0.7-0.6,0.8c0.3,0,0.7,0.3,1.1,0.7
					c0.4,0.4,0.6,0.9,0.6,1.6s-0.2,1.3-0.7,1.8c-0.5,0.5-0.9,0.7-1.4,0.7v0h-1.8v-7.2L125.3,308.1
					C125.3,308.1,125.3,308.1,125.3,308.1z M124.8,309v1.1h0.6c0.1,0,0.3-0.1,0.4-0.2c0.1-0.1,0.2-0.2,0.2-0.4s-0.1-0.3-0.2-0.4
					s-0.3-0.2-0.4-0.2L124.8,309L124.8,309z M124.8,311.1v3.2h0.9v0c0.2,0,0.4-0.2,0.7-0.5c0.3-0.3,0.5-0.7,0.5-1.1
					c0-0.4-0.2-0.8-0.5-1.1c-0.3-0.3-0.7-0.5-1.1-0.5H124.8L124.8,311.1z"/>
				<path class="st6" d="M128.9,315.2v-7.2h0.9v6.2h2.6v0.9L128.9,315.2L128.9,315.2z"/>
				<path class="st6" d="M136.1,308.1l2.6,7.2h-1l-0.9-2.5h-1.9l-0.9,2.5h-1l2.6-7.2H136.1z M136.5,311.8l-0.6-1.7l-0.6,1.7H136.5z"
					/>
				<path class="st6" d="M140.3,308.1c1.2,0,2.1,0.3,2.7,1c0.7,0.7,1.1,1.6,1.1,2.6c0,1-0.4,1.9-1.1,2.6c-0.6,0.7-1.6,1-2.7,1h-0.7
					v-7.2L140.3,308.1L140.3,308.1z M140.6,309v5.3c0.7,0,1.3-0.2,1.8-0.7c0.5-0.5,0.8-1.2,0.8-1.9c0-0.8-0.3-1.4-0.8-1.9
					C141.9,309.3,141.3,309,140.6,309z"/>
				<path class="st6" d="M151.4,309.1c0.7,0.7,1.1,1.6,1.1,2.6c0,1-0.4,1.9-1.1,2.6s-1.6,1.1-2.6,1.1s-1.9-0.4-2.6-1.1
					s-1.1-1.6-1.1-2.6c0-1,0.4-1.9,1.1-2.6c0.7-0.7,1.6-1.1,2.6-1.1C149.8,308,150.7,308.3,151.4,309.1z M148.8,308.9
					c-0.8,0-1.4,0.3-1.9,0.8c-0.5,0.5-0.8,1.2-0.8,1.9s0.3,1.4,0.8,1.9c0.5,0.5,1.2,0.8,1.9,0.8c0.8,0,1.4-0.3,1.9-0.8
					s0.8-1.2,0.8-1.9s-0.3-1.4-0.8-1.9C150.2,309.2,149.5,308.9,148.8,308.9z"/>
			</g>
		</g>
	</g>
	<path class="st7" d="M288.4,332.7c-26.5,0.2-49.9-8.6-70.2-25.5c-1.7-1.4-3.2-3-4.9-4.4c-1.7-1.4-1.5-2.5,0.1-3.7
		c0.5-0.4,0.9-0.9,1.3-1.3c23.9-23.9,47.7-47.7,71.6-71.6c2.2-2.2,2.2-2.2,0-4.3c-24.1-24.1-48.3-48.3-72.4-72.4
		c-2.4-2.4-2.5-2.5,0.1-4.8c15.4-14.4,33.4-23.8,54.2-27.6c23.5-4.3,46.4-1.9,67.8,8.9c32.8,16.4,53.1,42.8,59.8,78.8
		c5.6,30.3-1,58.3-19,83.2c-18.2,25.1-43.1,39.5-73.7,44.1c-1.7,0.3-3.4,0.5-5.1,0.5C294.8,332.7,291.6,332.7,288.4,332.7z"/>
	<path class="st8" d="M260.9,213.5c-5.4,1.6-10.4,3-15.4,4.5c-28.6,8.3-57.3,16.6-85.9,24.9c-2.8,0.8-3,0.7-3.7-2
		c-6.9-28.7-3.5-55.9,11-81.7c4.3-7.6,9.6-14.5,15.5-21c1.2-1.3,2-1.4,3.4-0.1c24.5,24.5,49,49,73.5,73.6
		C259.7,212.1,260.1,212.6,260.9,213.5z"/>
	<path class="st9" d="M264,234.1c-1,1.1-1.6,1.7-2.1,2.3c-24.2,24.2-48.3,48.3-72.5,72.5c-2.3,2.3-2.3,2.3-4.5,0
		c-11.6-12.1-19.7-26.2-24.8-42.1c-0.6-1.9-0.2-2.8,1.8-3.3c33.4-9.6,66.7-19.3,100-29C262.3,234.3,262.8,234.3,264,234.1z"/>
	<g>
		<g>
			<g class="st4">
				<path class="st5" d="M473.5,67.1v7.8l-5.7,28.1h-8.9l6.4-29.4h-8.9v-6.4L473.5,67.1L473.5,67.1z"/>
				<path class="st5" d="M495,67.1v5.7h-11.1V79c1.4-1.6,3.2-2.5,5.4-2.5c2.5,0,4.3,0.7,5.6,2.1c1.3,1.4,1.9,4,1.9,8v5.1
					c0,2.5-0.1,4.4-0.4,5.6s-0.8,2.3-1.6,3.3c-0.8,1-1.9,1.8-3.3,2.3c-1.4,0.5-3.2,0.8-5.2,0.8c-2.3,0-4.3-0.4-6.1-1.2
					c-1.8-0.8-3-2-3.7-3.6c-0.7-1.6-1.1-4.1-1.1-7.4v-1.9h9v2.2c0,2.3,0.1,4,0.2,4.9c0.2,1,0.7,1.5,1.7,1.5c0.4,0,0.8-0.1,1.1-0.4
					c0.3-0.3,0.4-0.6,0.4-0.9c0-0.3,0-1.7,0.1-4.2v-7.1c0-1.3-0.1-2.3-0.4-2.7c-0.3-0.5-0.7-0.7-1.4-0.7c-0.4,0-0.8,0.1-1,0.4
					c-0.3,0.3-0.5,0.5-0.5,0.8c-0.1,0.3-0.1,1-0.1,2h-8.9l0.4-18.1L495,67.1L495,67.1L495,67.1z"/>
				<path class="st5" d="M520.3,73.2v6.2c0,1.6-0.2,2.8-0.5,3.6c-0.3,0.8-1,1.5-1.9,2.1c-1,0.6-2.3,0.9-4,0.9
					c-1.9,0-3.3-0.3-4.3-0.9c-1-0.6-1.7-1.3-2-2.1c-0.3-0.8-0.5-1.9-0.5-3.4v-6.4c0-1.8,0.2-3.1,0.5-3.9c0.4-0.8,1.1-1.5,2.1-2.1
					c1-0.5,2.3-0.8,3.8-0.8c1.7,0,3.1,0.3,4.1,0.9c1,0.6,1.8,1.3,2.1,2.1C520.1,70.3,520.3,71.5,520.3,73.2z M514.6,71.7
					c0-0.9,0-1.5-0.1-1.8c-0.1-0.2-0.4-0.3-0.8-0.3c-0.4,0-0.7,0.1-0.8,0.4c-0.1,0.2-0.2,0.8-0.2,1.7v9c0,1,0.1,1.7,0.2,1.9
					c0.1,0.2,0.4,0.3,0.8,0.3c0.4,0,0.6-0.1,0.7-0.4s0.2-0.8,0.2-1.7L514.6,71.7L514.6,71.7z M530.7,66.4l-14,37.3h-3.4l14.1-37.3
					H530.7z M536.9,90.6v6.2c0,1.6-0.2,2.8-0.5,3.6s-1,1.5-1.9,2.1c-1,0.6-2.3,0.9-4,0.9c-1.9,0-3.3-0.3-4.3-0.9
					c-1-0.6-1.7-1.3-2-2.1c-0.3-0.8-0.5-1.9-0.5-3.4v-6.5c0-1.8,0.2-3.1,0.5-3.9c0.4-0.8,1.1-1.5,2.1-2.1c1-0.5,2.3-0.8,3.8-0.8
					c1.7,0,3.1,0.3,4.1,0.9c1,0.6,1.7,1.3,2.1,2.1C536.7,87.6,536.9,88.9,536.9,90.6z M531.2,89c0-0.9,0-1.5-0.1-1.8
					c-0.1-0.2-0.4-0.3-0.8-0.3c-0.4,0-0.7,0.1-0.8,0.4c-0.1,0.2-0.2,0.8-0.2,1.8v9c0,1,0.1,1.6,0.2,1.8c0.1,0.2,0.4,0.3,0.8,0.3
					c0.4,0,0.7-0.1,0.8-0.3c0.1-0.2,0.2-0.8,0.2-1.7L531.2,89L531.2,89z"/>
			</g>
		</g>
	</g>
	<g>
		<g>
			<polyline class="st10" points="306.2,161.6 395,161.6 395.1,116.9 441.5,116.9 			"/>
			<g>
				<circle class="st5" cx="306.6" cy="161.6" r="7.5"/>
			</g>
		</g>
	</g>
	<g>
		<g>
			<path class="st6" d="M459.9,119.6h-6.1v-1.7h9l-6.5,11.2h6.1v1.7h-9L459.9,119.6z"/>
			<path class="st6" d="M476.2,119.6c1.3,1.3,1.9,2.8,1.9,4.7c0,1.8-0.6,3.4-1.9,4.7c-1.3,1.3-2.8,1.9-4.7,1.9
				c-1.8,0-3.4-0.6-4.7-1.9c-1.3-1.3-1.9-2.8-1.9-4.7c0-1.8,0.6-3.4,1.9-4.7c1.3-1.3,2.8-1.9,4.7-1.9
				C473.4,117.7,474.9,118.4,476.2,119.6z M471.6,119.4c-1.4,0-2.5,0.5-3.5,1.4c-1,1-1.4,2.1-1.4,3.5s0.5,2.5,1.4,3.5
				c1,1,2.1,1.4,3.5,1.4c1.4,0,2.5-0.5,3.5-1.4c1-1,1.4-2.1,1.4-3.5c0-1.4-0.5-2.5-1.4-3.5S472.9,119.4,471.6,119.4z"/>
			<path class="st6" d="M480.4,117.9h1.5l5.3,9.2v-9.2h1.7v12.9h-1.5l-5.4-9.3v9.3h-1.7L480.4,117.9L480.4,117.9z"/>
			<path class="st6" d="M496.1,117.9l4.7,12.9H499l-1.7-4.6h-3.4l-1.7,4.6h-1.8l4.7-12.9H496.1z M496.8,124.5l-1.1-3l-1.1,3H496.8z"
				/>
			<path class="st6" d="M515.2,117.9h1.7v9.1c-0.1,1-0.6,1.9-1.3,2.6c-0.9,0.9-1.9,1.3-3.1,1.3s-2.2-0.4-3.1-1.3
				c-0.9-0.9-1.3-1.9-1.3-3.1v-8.6h1.7v8.6c0,0.7,0.3,1.4,0.8,1.9c0.5,0.5,1.2,0.8,1.9,0.8c0.8,0,1.4-0.3,1.9-0.8
				c0.5-0.5,0.8-1.2,0.8-1.9L515.2,117.9L515.2,117.9z"/>
			<path class="st6" d="M522.5,126.6h-1.5v4.1h-1.7v-12.9h3.7c1,0.1,1.9,0.6,2.6,1.3c0.9,0.9,1.3,1.9,1.3,3.1c0,1.2-0.4,2.2-1.3,3.1
				c-0.6,0.6-1,0.9-1.4,1l2.9,4.4h-2L522.5,126.6z M520.9,119.6v5.4h1.5c0.7,0,1.4-0.3,1.9-0.8c0.5-0.5,0.8-1.2,0.8-1.9
				c0-0.7-0.3-1.4-0.8-1.9c-0.5-0.5-1.2-0.8-1.9-0.8C522.5,119.6,520.9,119.6,520.9,119.6z"/>
			<path class="st6" d="M531.3,117.9c0.7,0,1.4,0.3,1.9,0.8c0.5,0.5,0.8,1.2,0.8,1.9c0,0.8-0.4,1.2-1.2,1.4c0.6,0.1,1.2,0.5,1.9,1.2
				s1.1,1.7,1.1,3c0,1.3-0.4,2.4-1.3,3.3c-0.8,0.9-1.7,1.3-2.5,1.3v0h-3.3v-12.9L531.3,117.9L531.3,117.9z M530.4,119.6v2h1.1
				c0.2,0,0.5-0.1,0.6-0.3c0.2-0.2,0.3-0.4,0.3-0.7s-0.1-0.5-0.3-0.7c-0.2-0.2-0.5-0.3-0.8-0.3H530.4z M530.4,123.3v5.8h1.6v0
				c0.3,0,0.8-0.3,1.3-0.8c0.6-0.6,0.8-1.3,0.8-2.1c0-0.8-0.3-1.5-0.8-2c-0.6-0.6-1.2-0.8-2-0.8L530.4,123.3L530.4,123.3z"/>
			<path class="st6" d="M542.5,117.9l4.7,12.9h-1.8l-1.7-4.6h-3.4l-1.7,4.6h-1.8l4.7-12.9H542.5z M543.1,124.5l-1.1-3l-1.1,3H543.1z
				"/>
			<path class="st6" d="M548.8,117.9h1.5l5.3,9.2v-9.2h1.7v12.9h-1.5l-5.4-9.3v9.3h-1.7L548.8,117.9L548.8,117.9z"/>
			<path class="st6" d="M564.5,117.9l4.7,12.9h-1.8l-1.7-4.6h-3.4l-1.7,4.6h-1.8l4.7-12.9H564.5z M565.1,124.5l-1.1-3l-1.1,3H565.1z
				"/>
		</g>
	</g>
	<text transform="matrix(1 0 0 1 406.6754 387.9949)"><tspan x="0" y="0" class="st11 st12 st13">Figura 9. Zona urbana 75 %</tspan><tspan x="18.3" y="15.8" class="st11 st12 st13">Fuente: MSPS (2018)</tspan></text>
</g>
</svg>
