<?xml version="1.0" encoding="utf-8"?>
<!-- Generator: Adobe Illustrator 16.0.0, SVG Export Plug-In . SVG Version: 6.00 Build 0)  -->
<!DOCTYPE svg PUBLIC "-//W3C//DTD SVG 1.1//EN" "http://www.w3.org/Graphics/SVG/1.1/DTD/svg11.dtd">
<svg version="1.1" id="Capa_1" xmlns="http://www.w3.org/2000/svg" xmlns:xlink="http://www.w3.org/1999/xlink" x="0px" y="0px"
	 width="197.461px" height="39.794px" viewBox="0 0 197.461 39.794" enable-background="new 0 0 197.461 39.794"
	 xml:space="preserve">
<g>
	<polygon opacity="0.7" fill="#FFFFFF" enable-background="new    " points="0,2.731 197.461,0 197.461,39.794 25.25,39.775 	"/>
	<g>
		<g>
			<path fill="#331842" d="M29.884,12.999h1.829v14.896h-1.829V12.999z"/>
			<path fill="#331842" d="M34.762,12.999h2.357l2.859,14.007h0.027l-0.257-14.007h1.558v14.896h-2.384L36.09,14.08h-0.054
				l0.244,13.815h-1.517L34.762,12.999L34.762,12.999z"/>
			<path fill="#331842" d="M44.394,12.999h4.633v1.182h-2.913v5.402h2.805v1.172h-2.805v7.14h-1.72V12.999z"/>
			<path fill="#331842" d="M57.346,16.038v8.816c0,1.279-0.23,2.148-0.691,2.605c-0.46,0.458-1.282,0.687-2.466,0.687
				c-1.165,0-1.978-0.232-2.438-0.697c-0.46-0.464-0.69-1.329-0.69-2.595v-8.816c0-1.252,0.232-2.109,0.697-2.57
				c0.465-0.461,1.285-0.692,2.459-0.692c1.174,0,1.989,0.229,2.445,0.687S57.346,14.779,57.346,16.038z M55.543,15.836
				c0-0.754-0.099-1.271-0.298-1.551c-0.199-0.279-0.551-0.419-1.057-0.419c-0.497,0-0.842,0.137-1.036,0.409
				c-0.194,0.272-0.291,0.793-0.291,1.561v9.22c0,0.774,0.099,1.296,0.298,1.565c0.198,0.27,0.551,0.404,1.057,0.404
				c0.497,0,0.842-0.135,1.036-0.404s0.292-0.791,0.292-1.565L55.543,15.836L55.543,15.836z"/>
			<path fill="#331842" d="M60.38,12.999h2.628c1.354,0,2.271,0.141,2.75,0.424c0.479,0.283,0.718,0.791,0.718,1.525v3.374
				c0,0.619-0.158,1.057-0.474,1.312c-0.316,0.256-0.876,0.411-1.68,0.465c0.858,0.04,1.454,0.188,1.789,0.444
				c0.334,0.256,0.501,0.7,0.501,1.333v6.019h-1.829V22.33c0-0.7-0.133-1.154-0.399-1.363c-0.267-0.208-0.815-0.313-1.646-0.313
				h-0.637v7.241h-1.72L60.38,12.999L60.38,12.999z M62.101,14.099v5.443h0.61c0.786,0,1.31-0.103,1.572-0.308
				c0.262-0.206,0.393-0.662,0.393-1.369v-2.07c0-0.713-0.131-1.175-0.393-1.383c-0.262-0.208-0.786-0.313-1.572-0.313H62.101z"/>
			<path fill="#331842" d="M69.62,12.999h2.994l1.938,13.714h0.135l1.896-13.714h2.913v14.896h-1.504V14.119h-0.271L75.77,27.894
				h-2.412L71.34,14.119h-0.23v13.775h-1.49V12.999z"/>
			<path fill="#331842" d="M84.292,12.999h2.52l2.885,14.896h-1.855l-0.691-4.141h-3.278l-0.745,4.141h-1.815L84.292,12.999z
				 M85.484,14.099l-1.45,8.564h2.885l-1.354-8.564H85.484z"/>
			<path fill="#331842" d="M97.244,15.361v1.424h-1.815v-1.384c0-0.579-0.083-0.979-0.25-1.202
				c-0.167-0.222-0.463-0.333-0.888-0.333c-0.388,0-0.659,0.126-0.812,0.379c-0.154,0.252-0.23,0.782-0.23,1.591v9.22
				c0,0.828,0.081,1.367,0.244,1.616c0.162,0.249,0.46,0.374,0.894,0.374c0.371,0,0.637-0.118,0.8-0.353
				c0.162-0.236,0.244-0.637,0.244-1.202v-1.605h1.815v1.656c0,1.017-0.212,1.705-0.637,2.065c-0.425,0.36-1.183,0.541-2.276,0.541
				c-1.075,0-1.825-0.232-2.249-0.697c-0.425-0.464-0.637-1.329-0.637-2.595V16.04c0-1.259,0.212-2.118,0.637-2.575
				c0.424-0.458,1.174-0.687,2.249-0.687c1.102,0,1.862,0.179,2.283,0.535C97.034,13.668,97.244,14.352,97.244,15.361z"/>
			<path fill="#331842" d="M99.493,12.999h1.829v14.896h-1.829V12.999z"/>
			<path fill="#331842" d="M110.575,16.038v8.816c0,1.279-0.229,2.148-0.691,2.605c-0.459,0.458-1.281,0.687-2.465,0.687
				c-1.166,0-1.979-0.232-2.438-0.697c-0.46-0.464-0.69-1.329-0.69-2.595v-8.816c0-1.252,0.232-2.109,0.697-2.57
				c0.465-0.461,1.285-0.692,2.459-0.692s1.989,0.229,2.445,0.687S110.575,14.779,110.575,16.038z M108.773,15.836
				c0-0.754-0.099-1.271-0.298-1.551c-0.199-0.279-0.551-0.419-1.057-0.419c-0.498,0-0.842,0.137-1.037,0.409
				c-0.193,0.272-0.291,0.793-0.291,1.561v9.22c0,0.774,0.1,1.296,0.299,1.565c0.197,0.27,0.551,0.404,1.057,0.404
				c0.497,0,0.842-0.135,1.036-0.404s0.292-0.791,0.292-1.565L108.773,15.836L108.773,15.836z M107.866,9.393h1.909L108,11.645
				h-1.328L107.866,9.393z"/>
			<path fill="#331842" d="M113.609,12.999h2.356l2.859,14.007h0.026l-0.257-14.007h1.558v14.896h-2.385l-2.831-13.815h-0.055
				l0.244,13.815h-1.519V12.999H113.609z"/>
			<path fill="#331842" d="M127.482,12.999h2.222c1.355,0,2.276,0.143,2.764,0.429c0.488,0.286,0.732,0.793,0.732,1.521v4.282
				c0,0.728-0.244,1.232-0.732,1.515c-0.486,0.283-1.408,0.424-2.764,0.424h-0.5v6.726h-1.722V12.999L127.482,12.999z
				 M129.204,14.099v5.979h0.461c0.686,0,1.145-0.103,1.375-0.308c0.229-0.205,0.344-0.668,0.344-1.388v-2.586
				c0-0.72-0.114-1.183-0.344-1.389c-0.23-0.205-0.689-0.308-1.375-0.308H129.204z"/>
			<path fill="#331842" d="M141.518,16.038v8.816c0,1.279-0.23,2.148-0.691,2.605c-0.461,0.458-1.283,0.687-2.466,0.687
				c-1.165,0-1.978-0.232-2.438-0.697c-0.461-0.464-0.69-1.329-0.69-2.595v-8.816c0-1.252,0.231-2.109,0.698-2.57
				c0.465-0.461,1.285-0.692,2.459-0.692s1.988,0.229,2.445,0.687C141.29,13.921,141.518,14.779,141.518,16.038z M139.715,15.836
				c0-0.754-0.098-1.271-0.297-1.551c-0.199-0.279-0.551-0.419-1.058-0.419c-0.497,0-0.842,0.137-1.036,0.409
				c-0.193,0.272-0.291,0.793-0.291,1.561v9.22c0,0.774,0.098,1.296,0.297,1.565c0.198,0.27,0.551,0.404,1.058,0.404
				c0.495,0,0.842-0.135,1.036-0.404c0.193-0.269,0.291-0.791,0.291-1.565V15.836L139.715,15.836z"/>
			<path fill="#331842" d="M144.553,12.999h2.628c1.354,0,2.271,0.141,2.75,0.424c0.479,0.283,0.718,0.791,0.718,1.525v3.374
				c0,0.619-0.158,1.057-0.475,1.312c-0.317,0.255-0.877,0.411-1.68,0.465c0.857,0.04,1.453,0.188,1.787,0.444
				s0.502,0.7,0.502,1.333v6.019h-1.83V22.33c0-0.7-0.133-1.154-0.399-1.363c-0.267-0.208-0.815-0.313-1.646-0.313h-0.638v7.241
				h-1.722V12.999H144.553z M146.273,14.099v5.443h0.608c0.787,0,1.311-0.103,1.572-0.308c0.262-0.206,0.393-0.662,0.393-1.369
				v-2.07c0-0.713-0.131-1.175-0.393-1.383c-0.263-0.208-0.785-0.313-1.572-0.313H146.273z"/>
			<path fill="#331842" d="M163.249,15.361v1.424h-1.802v-1.384c0-0.586-0.081-0.988-0.243-1.207
				c-0.162-0.219-0.451-0.328-0.867-0.328c-0.396,0-0.678,0.123-0.84,0.369c-0.162,0.246-0.244,0.682-0.244,1.308v0.727
				c0,0.303,0.057,0.615,0.17,0.935c0.113,0.32,0.277,0.621,0.494,0.904l2.25,2.959c0.379,0.499,0.653,0.968,0.826,1.409
				c0.17,0.441,0.256,0.897,0.256,1.368v1.01c0,1.292-0.219,2.165-0.656,2.616c-0.438,0.451-1.219,0.677-2.338,0.677
				c-1.092,0-1.854-0.182-2.282-0.546c-0.429-0.363-0.644-1.05-0.644-2.06v-1.656h1.814v1.605c0,0.606,0.081,1.017,0.244,1.232
				c0.162,0.215,0.46,0.323,0.894,0.323c0.442,0,0.748-0.123,0.915-0.369c0.167-0.246,0.25-0.786,0.25-1.621v-1.03
				c0-0.384-0.047-0.732-0.142-1.045s-0.233-0.597-0.414-0.854l-2.384-3.171c-0.334-0.424-0.59-0.828-0.767-1.212
				c-0.176-0.384-0.264-0.717-0.264-1v-0.868c0-1.158,0.214-1.964,0.644-2.419c0.43-0.454,1.168-0.682,2.215-0.682
				c1.103,0,1.862,0.179,2.283,0.535C163.04,13.668,163.249,14.352,163.249,15.361z"/>
			<path fill="#331842" d="M165.661,12.999h4.769v1.182h-3.048v5.362h2.912v1.171h-2.912v5.999h3.129v1.182h-4.85V12.999
				L165.661,12.999z"/>
			<path fill="#331842" d="M171.648,12.999h1.815l1.68,5.938l1.559-5.938h1.721l-2.276,7.241l2.562,7.655h-1.815l-1.802-6.221
				l-1.748,6.221h-1.721l2.451-7.614L171.648,12.999z"/>
			<path fill="#331842" d="M186.659,16.038v8.816c0,1.279-0.229,2.148-0.691,2.605c-0.461,0.457-1.282,0.687-2.465,0.687
				c-1.166,0-1.979-0.232-2.438-0.697c-0.46-0.464-0.69-1.329-0.69-2.595v-8.816c0-1.252,0.231-2.109,0.696-2.57
				c0.466-0.461,1.285-0.692,2.459-0.692c1.175,0,1.989,0.229,2.445,0.687S186.659,14.779,186.659,16.038z M184.857,15.836
				c0-0.754-0.101-1.271-0.298-1.551c-0.199-0.279-0.551-0.419-1.057-0.419c-0.498,0-0.842,0.137-1.037,0.409
				s-0.291,0.793-0.291,1.561v9.22c0,0.774,0.1,1.296,0.298,1.565c0.198,0.27,0.551,0.404,1.057,0.404
				c0.497,0,0.843-0.135,1.037-0.404s0.292-0.791,0.292-1.565L184.857,15.836L184.857,15.836z"/>
		</g>
	</g>
</g>
</svg>
