<?xml version="1.0" encoding="utf-8"?>
<!-- Generator: Adobe Illustrator 16.0.0, SVG Export Plug-In . SVG Version: 6.00 Build 0)  -->
<!DOCTYPE svg PUBLIC "-//W3C//DTD SVG 1.1//EN" "http://www.w3.org/Graphics/SVG/1.1/DTD/svg11.dtd">
<svg version="1.1" id="Capa_1" xmlns="http://www.w3.org/2000/svg" xmlns:xlink="http://www.w3.org/1999/xlink" x="0px" y="0px"
	 width="197.461px" height="39.795px" viewBox="0 42.236 197.461 39.795" enable-background="new 0 42.236 197.461 39.795"
	 xml:space="preserve">
<g>
	<polygon opacity="0.7" fill="#FFFFFF" enable-background="new    " points="0,44.968 197.461,42.236 197.461,82.031 25.25,82.012 	
		"/>
	<g>
		<g>
			<path fill="#331842" d="M92.475,55.235h4.769v1.182h-3.049v5.363h2.913v1.171h-2.913v5.999h3.13v1.182h-4.85V55.235z"/>
			<path fill="#331842" d="M99.805,55.235h2.02c1.706,0,2.821,0.201,3.346,0.601c0.523,0.401,0.785,1.318,0.785,2.752v8.19
				c0,1.427-0.267,2.343-0.799,2.747c-0.533,0.404-1.644,0.606-3.332,0.606h-2.02V55.235z M101.525,56.336V69.03h0.556
				c0.83,0,1.379-0.104,1.646-0.308c0.267-0.205,0.399-0.658,0.399-1.358v-9.331c0-0.707-0.135-1.167-0.406-1.379
				c-0.271-0.212-0.817-0.318-1.641-0.318H101.525z"/>
			<path fill="#331842" d="M110.683,55.235h2.521l2.885,14.896h-1.855l-0.689-4.141h-3.279l-0.745,4.141h-1.815L110.683,55.235z
				 M111.875,56.336l-1.449,8.564h2.886l-1.354-8.564H111.875z"/>
			<path fill="#331842" d="M117.918,55.235h2.019c1.707,0,2.821,0.201,3.347,0.601c0.523,0.401,0.785,1.318,0.785,2.752v8.19
				c0,1.427-0.268,2.343-0.799,2.747c-0.533,0.404-1.645,0.606-3.333,0.606h-2.019V55.235z M119.639,56.336V69.03h0.555
				c0.831,0,1.379-0.104,1.646-0.308c0.267-0.205,0.398-0.658,0.398-1.358v-9.331c0-0.707-0.135-1.167-0.406-1.379
				c-0.271-0.212-0.816-0.318-1.639-0.318H119.639z"/>
		</g>
	</g>
</g>
</svg>
