<?xml version="1.0" encoding="utf-8"?>
<!-- Generator: Adobe Illustrator 22.0.1, SVG Export Plug-In . SVG Version: 6.00 Build 0)  -->
<svg version="1.1" id="Capa_1" xmlns="http://www.w3.org/2000/svg" xmlns:xlink="http://www.w3.org/1999/xlink" x="0px" y="0px"
	 viewBox="0 0 1277.9 601.8" style="enable-background:new 0 0 1277.9 601.8;" xml:space="preserve">
<style type="text/css">
	.st0{fill:#C6C6C6;}
	.st1{fill:#575756;}
	.st2{fill:#706F6F;}
	.st3{fill:#FFFFFF;}
	.st4{fill:#A5A5A5;}
	.st5{font-family:'ArialMT';}
	.st6{font-size:14px;}
</style>
<g>
	<g>
		<rect x="200.8" y="370.7" class="st0" width="709.6" height="125"/>
		<g>
			<g>
				<path class="st1" d="M386.6,406.8v0.7h-4.5v4.9h4.5v0.7h-4.5v5.6h-0.7v-11.8L386.6,406.8L386.6,406.8z"/>
				<path class="st1" d="M389.7,417.2c0.6,0.6,1.4,0.9,2.2,0.9c0.9,0,1.7-0.3,2.4-1c0.1-0.1,0.2-0.2,0.2-0.3l0.7,0.2
					c-0.1,0.2-0.3,0.3-0.4,0.5c-0.8,0.8-1.7,1.2-2.9,1.2c-1.1,0-2.1-0.4-2.9-1.2c-0.8-0.8-1.2-1.7-1.2-2.9c0-1.1,0.4-2.1,1.2-2.9
					c0.8-0.8,1.7-1.2,2.9-1.2c1,0,1.8,0.3,2.5,0.9c0.1,0.1,0.2,0.2,0.4,0.3c0,0,0.1,0.1,0.1,0.1l-0.5,0.5L389.7,417.2z M393.9,412.1
					c-0.6-0.4-1.2-0.7-2-0.7c-0.9,0-1.7,0.3-2.4,1c-0.7,0.6-1,1.4-1,2.4c0,0.8,0.2,1.4,0.7,2L393.9,412.1z"/>
				<path class="st1" d="M397,411.4h0.7v0.2c0.4-0.4,0.9-0.6,1.5-0.6c0.6,0,1.1,0.2,1.5,0.6c0.1,0.1,0.2,0.2,0.3,0.4
					c0.1-0.1,0.2-0.2,0.3-0.4c0.4-0.4,0.9-0.6,1.5-0.6c0.6,0,1.1,0.2,1.5,0.6c0.4,0.4,0.6,0.9,0.6,1.4v5.6h-0.7V413h0
					c0-0.4-0.2-0.7-0.4-1c-0.3-0.3-0.6-0.4-1.1-0.4c-0.4,0-0.8,0.1-1,0.4c-0.3,0.3-0.4,0.6-0.4,1.1v5.5h-0.7V413h0
					c0-0.4-0.2-0.7-0.4-1c-0.3-0.3-0.6-0.4-1.1-0.4s-0.8,0.1-1,0.4c-0.3,0.2-0.4,0.6-0.4,0.9v5.6H397L397,411.4L397,411.4z"/>
				<path class="st1" d="M408.5,417.2c0.6,0.6,1.4,0.9,2.2,0.9c0.9,0,1.7-0.3,2.4-1c0.1-0.1,0.2-0.2,0.2-0.3l0.7,0.2
					c-0.1,0.2-0.3,0.3-0.4,0.5c-0.8,0.8-1.7,1.2-2.9,1.2c-1.1,0-2.1-0.4-2.9-1.2c-0.8-0.8-1.2-1.7-1.2-2.9c0-1.1,0.4-2.1,1.2-2.9
					c0.8-0.8,1.7-1.2,2.9-1.2c1,0,1.8,0.3,2.5,0.9c0.1,0.1,0.2,0.2,0.4,0.3c0,0,0.1,0.1,0.1,0.1l-0.5,0.5L408.5,417.2z M412.7,412.1
					c-0.6-0.4-1.2-0.7-2-0.7c-0.9,0-1.7,0.3-2.4,1c-0.7,0.6-1,1.4-1,2.4c0,0.8,0.2,1.4,0.7,2L412.7,412.1z"/>
				<path class="st1" d="M416.4,413v5.6h-0.7v-7.2h0.7v0.5c0.6-0.6,1.3-0.9,2.1-0.9c0.9,0,1.5,0.3,2.1,0.8c0.5,0.5,0.8,1.2,0.8,2
					v4.8h-0.7v-4.8c0-0.6-0.2-1.1-0.7-1.6s-1-0.6-1.6-0.6c-0.6,0-1.1,0.2-1.6,0.6C416.7,412.5,416.5,412.7,416.4,413z"/>
				<path class="st1" d="M424.6,409c0.1,0.1,0.2,0.3,0.2,0.5c0,0.2-0.1,0.3-0.2,0.5c-0.1,0.1-0.3,0.2-0.5,0.2
					c-0.2,0-0.3-0.1-0.5-0.2s-0.2-0.3-0.2-0.5c0-0.2,0.1-0.3,0.2-0.5c0.1-0.1,0.3-0.2,0.5-0.2C424.3,408.8,424.4,408.9,424.6,409z
					 M424.4,411.4v7.2h-0.7v-7.2H424.4z"/>
				<path class="st1" d="M427.4,413v5.6h-0.7v-7.2h0.7v0.5c0.6-0.6,1.3-0.9,2.1-0.9c0.9,0,1.5,0.3,2.1,0.8c0.5,0.5,0.8,1.2,0.8,2
					v4.8h-0.7v-4.8c0-0.6-0.2-1.1-0.7-1.6c-0.4-0.4-1-0.6-1.6-0.6s-1.1,0.2-1.6,0.6C427.7,412.5,427.5,412.7,427.4,413z"/>
				<path class="st1" d="M438.2,410.7c1.1,0,2.1,0.4,2.9,1.2c0.8,0.8,1.2,1.7,1.2,2.9c0,1.1-0.4,2.1-1.2,2.9
					c-0.8,0.8-1.7,1.2-2.9,1.2c-1.1,0-2.1-0.4-2.9-1.2s-1.2-1.7-1.2-2.9c0-1.1,0.4-2.1,1.2-2.9C436.2,411.1,437.1,410.7,438.2,410.7
					z M435.9,412.4c-0.7,0.7-1,1.4-1,2.4s0.3,1.7,1,2.4c0.7,0.6,1.4,1,2.4,1s1.7-0.3,2.4-1c0.6-0.6,1-1.4,1-2.4c0-0.9-0.3-1.7-1-2.4
					c-0.7-0.7-1.4-1-2.4-1S436.5,411.7,435.9,412.4z"/>
			</g>
			<g>
				<g>
					<path class="st1" d="M384.5,433.7h0.5l0.6-2.6h1.3l-0.6,2.6h2.6l-0.3,1.3H386l-0.1,0.6h2.6l-0.3,1.3h-2.6l-0.6,2.6h-1.3
						l0.6-2.6h-0.5l-0.6,2.6h-1.3l0.6-2.6h-2.6l0.3-1.3h2.6l0.1-0.6h-2.6l0.3-1.3h2.6l0.6-2.6h1.3L384.5,433.7z M384.7,435h-0.5
						l-0.1,0.6h0.5L384.7,435z"/>
					<path class="st1" d="M392.4,434c0.4-0.4,1-0.6,1.9-0.6c0.9,0,1.6,0.3,2.2,0.9c0.7,0.7,1,1.6,1,2.5c0,1-0.4,1.8-1,2.5
						s-1.5,1.1-2.5,1.1c-1,0-1.8-0.4-2.5-1c-0.7-0.7-1-1.6-1-2.8v0c0-1.2,0.3-2.2,1-3.1c0.6-0.9,1.5-2,2.6-3.2h1.7
						C394.1,431.7,393,433,392.4,434z M391.6,436.8c0,0.6,0.2,1.2,0.7,1.6c0.4,0.4,1,0.7,1.6,0.7c0.6,0,1.1-0.2,1.6-0.7
						c0.4-0.4,0.7-1,0.7-1.6s-0.2-1.2-0.7-1.6c-0.4-0.4-1-0.7-1.6-0.7c-0.6,0-1.2,0.2-1.6,0.7C391.8,435.7,391.6,436.2,391.6,436.8z
						"/>
					<path class="st1" d="M403.5,436.4c-0.4,0.4-1,0.6-1.9,0.6c-0.9,0-1.6-0.3-2.2-0.9c-0.7-0.7-1-1.5-1-2.5c0-1,0.4-1.8,1-2.5
						c0.7-0.7,1.5-1.1,2.5-1.1c1,0,1.8,0.3,2.5,1c0.7,0.7,1,1.6,1,2.8v0c0,1.2-0.3,2.2-1,3.1c-0.6,0.9-1.5,2-2.6,3.2h-1.7
						C401.8,438.7,402.9,437.4,403.5,436.4z M404.3,433.6c0-0.6-0.2-1.2-0.7-1.6c-0.4-0.4-1-0.7-1.6-0.7c-0.6,0-1.1,0.2-1.6,0.7
						c-0.4,0.4-0.7,1-0.7,1.6c0,0.6,0.2,1.2,0.7,1.6c0.4,0.4,1,0.7,1.6,0.7c0.6,0,1.2-0.2,1.6-0.7
						C404.1,434.7,404.3,434.2,404.3,433.6z"/>
					<path class="st1" d="M413.7,436.8c0,1-0.4,1.8-1.1,2.5c-0.7,0.7-1.5,1.1-2.5,1.1c-1,0-1.8-0.4-2.5-1.1
						c-0.7-0.7-1.1-1.5-1.1-2.5v-3.1c0-1,0.4-1.8,1.1-2.5c0.7-0.7,1.5-1.1,2.5-1.1c1,0,1.8,0.4,2.5,1.1c0.7,0.7,1.1,1.5,1.1,2.5
						V436.8z M412.4,433.7c0-0.6-0.2-1.1-0.7-1.6c-0.4-0.4-1-0.7-1.6-0.7c-0.6,0-1.1,0.2-1.6,0.7c-0.4,0.4-0.7,1-0.7,1.6v3.1
						c0,0.6,0.2,1.2,0.7,1.6c0.4,0.4,1,0.7,1.6,0.7c0.6,0,1.2-0.2,1.6-0.7c0.4-0.4,0.7-1,0.7-1.6V433.7z"/>
					<path class="st1" d="M416.4,438.8c0.2,0.2,0.3,0.4,0.3,0.6c0,0.3-0.1,0.5-0.3,0.7c-0.2,0.2-0.4,0.3-0.6,0.3
						c-0.2,0-0.5-0.1-0.6-0.3c-0.2-0.2-0.3-0.4-0.3-0.7c0-0.3,0.1-0.5,0.3-0.6c0.2-0.2,0.4-0.3,0.6-0.3
						C416,438.5,416.2,438.6,416.4,438.8z"/>
					<path class="st1" d="M422.9,430.2v10.1h-1.3v-8.4h-1l1.3-1.7H422.9L422.9,430.2z"/>
					<path class="st1" d="M431.9,430.2v10.1h-1.3v-8.4h-1l1.3-1.7H431.9L431.9,430.2z"/>
					<path class="st1" d="M440.9,430.2v10.1h-1.3v-8.4h-1l1.3-1.7H440.9L440.9,430.2z"/>
					<path class="st1" d="M398.8,447.4h1.1v6.1h0.9v1.3h-0.9v2.7h-1.3v-2.7h-4.1L398.8,447.4z M398.6,450.4l-1.9,3.1h1.9V450.4z"/>
					<path class="st1" d="M407.5,453.7c-0.4,0.4-1,0.6-1.9,0.6c-0.9,0-1.6-0.3-2.2-0.9c-0.7-0.7-1-1.6-1-2.5c0-1,0.4-1.8,1-2.5
						c0.7-0.7,1.5-1.1,2.5-1.1c1,0,1.8,0.4,2.5,1c0.7,0.7,1,1.6,1,2.8v0c0,1.2-0.3,2.2-1,3.1c-0.6,0.9-1.5,2-2.6,3.2h-1.7
						C405.8,456,406.9,454.7,407.5,453.7z M408.3,450.9c0-0.6-0.2-1.2-0.7-1.6c-0.4-0.4-1-0.7-1.6-0.7c-0.6,0-1.1,0.2-1.6,0.7
						c-0.4,0.4-0.7,1-0.7,1.6c0,0.6,0.2,1.2,0.7,1.6s1,0.7,1.6,0.7c0.6,0,1.2-0.2,1.6-0.7C408.1,452,408.3,451.5,408.3,450.9z"/>
					<path class="st1" d="M412.8,455.8l-1.5,3h-1.2l0.8-3H412.8z"/>
					<path class="st1" d="M418.8,447.4h1.1v6.1h0.9v1.3H420v2.7h-1.3v-2.7h-4.1L418.8,447.4z M418.7,450.4l-1.9,3.1h1.9V450.4z"/>
					<path class="st1" d="M425.4,450.2c0.3,0.3,0.5,0.7,0.5,1.2c0,0.5-0.2,0.9-0.5,1.2c-0.3,0.3-0.7,0.5-1.2,0.5
						c-0.5,0-0.9-0.2-1.2-0.5c-0.3-0.3-0.5-0.7-0.5-1.2c0-0.5,0.2-0.9,0.5-1.2c0.3-0.3,0.7-0.5,1.2-0.5S425.1,449.8,425.4,450.2z
						 M429.4,449.4l-5.8,8.3l-1.1-0.7l5.8-8.3L429.4,449.4z M424.2,451c-0.1,0-0.2,0-0.3,0.1c-0.1,0.1-0.1,0.2-0.1,0.3
						c0,0.1,0,0.2,0.1,0.3s0.2,0.1,0.3,0.1c0.1,0,0.2,0,0.3-0.1c0.1-0.1,0.1-0.2,0.1-0.3c0-0.1,0-0.2-0.1-0.3S424.3,451,424.2,451z
						 M428.9,453.7c0.3,0.3,0.5,0.7,0.5,1.2c0,0.5-0.2,0.9-0.5,1.2c-0.3,0.3-0.8,0.5-1.2,0.5c-0.5,0-0.9-0.2-1.2-0.5
						c-0.3-0.3-0.5-0.8-0.5-1.2c0-0.5,0.2-0.9,0.5-1.2s0.7-0.5,1.2-0.5C428.2,453.2,428.6,453.3,428.9,453.7z M427.7,454.5
						c-0.1,0-0.2,0-0.3,0.1c-0.1,0.1-0.1,0.2-0.1,0.3c0,0.1,0,0.2,0.1,0.3c0.1,0.1,0.2,0.1,0.3,0.1c0.1,0,0.2,0,0.3-0.1
						s0.1-0.2,0.1-0.3c0-0.1,0-0.2-0.1-0.3S427.8,454.5,427.7,454.5z"/>
				</g>
			</g>
		</g>
		<g>
			<g>
				<path class="st1" d="M520,406.8l4.4,7.6l4.4-7.6h0.8l0,0.1v11.7h-0.7V408l-4.5,7.8L520,408v10.6h-0.7v-11.7l0-0.1H520z"/>
				<path class="st1" d="M539.6,418.6H539v-1.5c-0.1,0.2-0.3,0.3-0.4,0.5c-0.8,0.8-1.7,1.2-2.9,1.2c-1.1,0-2.1-0.4-2.9-1.2
					c-0.8-0.8-1.2-1.7-1.2-2.9c0-1.1,0.4-2.1,1.2-2.9c0.8-0.8,1.7-1.2,2.9-1.2c1.1,0,2.1,0.4,2.9,1.2c0.2,0.2,0.3,0.3,0.4,0.5v-1
					h0.7V418.6z M539,415.4v-1.3c-0.1-0.6-0.4-1.2-0.9-1.7c-0.7-0.7-1.4-1-2.4-1c-0.9,0-1.7,0.3-2.4,1c-0.7,0.7-1,1.4-1,2.4
					s0.3,1.7,1,2.4c0.7,0.6,1.4,1,2.4,1s1.7-0.3,2.4-1C538.5,416.6,538.8,416,539,415.4z"/>
				<path class="st1" d="M543.8,414.9c-0.6-0.3-1-0.6-1.2-0.8c-0.3-0.3-0.5-0.7-0.5-1.2c0-0.5,0.2-0.9,0.5-1.2
					c0.3-0.3,0.7-0.5,1.2-0.5c0.5,0,0.9,0.2,1.2,0.5c0.3,0.3,0.5,0.7,0.5,1.1v0l-0.6,0.2c0-0.4-0.2-0.7-0.4-0.8
					c-0.2-0.2-0.4-0.3-0.7-0.3c-0.3,0-0.5,0.1-0.8,0.3c-0.2,0.2-0.3,0.5-0.3,0.8c0,0.3,0.1,0.5,0.3,0.8c0.1,0.1,0.4,0.3,0.8,0.6
					c0.6,0.3,1.1,0.6,1.3,0.9c0.4,0.4,0.6,0.9,0.6,1.5c0,0.6-0.2,1.1-0.6,1.5c-0.4,0.4-0.9,0.6-1.5,0.6c-0.6,0-1.1-0.2-1.5-0.6
					c-0.4-0.4-0.6-0.9-0.6-1.4l0.7-0.2c0,0.4,0.1,0.8,0.4,1.1c0.3,0.3,0.6,0.4,1,0.4c0.4,0,0.8-0.1,1-0.4s0.4-0.6,0.4-1.1
					c0-0.4-0.1-0.8-0.4-1C544.6,415.4,544.3,415.2,543.8,414.9z"/>
				<path class="st1" d="M553.9,416.8l0.7,0.2c-0.1,0.2-0.3,0.3-0.4,0.5c-0.8,0.8-1.7,1.2-2.9,1.2c-1.1,0-2.1-0.4-2.9-1.2
					c-0.8-0.8-1.2-1.7-1.2-2.9c0-1.1,0.4-2.1,1.2-2.9c0.8-0.8,1.7-1.2,2.9-1.2c1.1,0,2.1,0.4,2.9,1.2c0.2,0.2,0.3,0.3,0.4,0.5
					l-0.7,0.3c-0.1-0.1-0.2-0.2-0.2-0.3c-0.7-0.6-1.4-1-2.4-1c-0.9,0-1.7,0.3-2.4,1c-0.7,0.6-1,1.4-1,2.4c0,0.9,0.3,1.7,1,2.4
					c0.7,0.7,1.4,1,2.4,1c0.9,0,1.7-0.3,2.4-1C553.8,417,553.9,416.9,553.9,416.8z"/>
				<path class="st1" d="M559.4,418.7c-0.9,0-1.6-0.3-2.2-0.8c-0.5-0.5-0.8-1.2-0.8-2v-4.5h0.7v4.4c0,0.6,0.2,1.1,0.7,1.6
					c0.4,0.4,1,0.7,1.6,0.7c0.6,0,1.1-0.2,1.6-0.6c0.4-0.4,0.7-1,0.7-1.6v-4.4h0.7v4.5c0,0.8-0.3,1.5-0.8,2
					C560.9,418.4,560.2,418.7,559.4,418.7z"/>
				<path class="st1" d="M565.1,406.8v11.8h-0.7v-11.8H565.1z"/>
				<path class="st1" d="M568.3,409c0.1,0.1,0.2,0.3,0.2,0.5c0,0.2-0.1,0.3-0.2,0.5c-0.1,0.1-0.3,0.2-0.5,0.2s-0.3-0.1-0.5-0.2
					c-0.1-0.1-0.2-0.3-0.2-0.5c0-0.2,0.1-0.3,0.2-0.5c0.1-0.1,0.3-0.2,0.5-0.2C568,408.8,568.2,408.9,568.3,409z M568.2,411.4v7.2
					h-0.7v-7.2H568.2z"/>
				<path class="st1" d="M571.2,413v5.6h-0.7v-7.2h0.7v0.5c0.6-0.6,1.3-0.9,2.1-0.9c0.9,0,1.5,0.3,2.1,0.8c0.5,0.5,0.8,1.2,0.8,2
					v4.8h-0.7v-4.8c0-0.6-0.2-1.1-0.7-1.6s-1-0.6-1.6-0.6c-0.6,0-1.1,0.2-1.6,0.6C571.5,412.5,571.3,412.7,571.2,413z"/>
				<path class="st1" d="M582,410.7c1.1,0,2.1,0.4,2.9,1.2s1.2,1.7,1.2,2.9c0,1.1-0.4,2.1-1.2,2.9c-0.8,0.8-1.7,1.2-2.9,1.2
					c-1.1,0-2.1-0.4-2.9-1.2s-1.2-1.7-1.2-2.9c0-1.1,0.4-2.1,1.2-2.9C579.9,411.1,580.9,410.7,582,410.7z M579.6,412.4
					c-0.7,0.7-1,1.4-1,2.4s0.3,1.7,1,2.4c0.7,0.6,1.4,1,2.4,1s1.7-0.3,2.4-1c0.7-0.6,1-1.4,1-2.4c0-0.9-0.3-1.7-1-2.4
					c-0.7-0.7-1.4-1-2.4-1C581.1,411.4,580.3,411.7,579.6,412.4z"/>
			</g>
			<g>
				<g>
					<path class="st1" d="M526.5,433.7h0.5l0.6-2.6h1.3l-0.6,2.6h2.6l-0.3,1.3H528l-0.1,0.6h2.6l-0.3,1.3h-2.6l-0.6,2.6h-1.3
						l0.6-2.6h-0.5l-0.6,2.6h-1.3l0.6-2.6h-2.6l0.3-1.3h2.6l0.1-0.6h-2.6l0.3-1.3h2.6l0.6-2.6h1.3L526.5,433.7z M526.7,435h-0.5
						l-0.1,0.6h0.5L526.7,435z"/>
					<path class="st1" d="M537.4,434c-1,1.2-1.9,2.2-2.4,3c-0.6,0.8-0.9,1.9-0.9,3.3h-1.3c0.1-1.7,0.4-3,1-3.9
						c0.6-0.9,1.4-1.9,2.3-2.9c0.9-1,1.4-1.7,1.4-2h-4.8v-1.3h6.3C539,431.5,538.4,432.8,537.4,434z"/>
					<path class="st1" d="M547.6,436.8c0,1-0.3,1.8-1.1,2.5c-0.7,0.7-1.5,1.1-2.5,1.1c-1,0-1.8-0.4-2.5-1.1
						c-0.7-0.7-1.1-1.5-1.1-2.5v-3.1c0-1,0.4-1.8,1.1-2.5c0.7-0.7,1.5-1.1,2.5-1.1c1,0,1.8,0.4,2.5,1.1c0.7,0.7,1.1,1.5,1.1,2.5
						V436.8z M546.3,433.7c0-0.6-0.2-1.1-0.7-1.6c-0.4-0.4-1-0.7-1.6-0.7c-0.6,0-1.1,0.2-1.6,0.7c-0.4,0.4-0.7,1-0.7,1.6v3.1
						c0,0.6,0.2,1.2,0.7,1.6c0.4,0.4,1,0.7,1.6,0.7c0.6,0,1.2-0.2,1.6-0.7c0.4-0.4,0.7-1,0.7-1.6V433.7z"/>
					<path class="st1" d="M553.8,434c-1,1.2-1.9,2.2-2.4,3c-0.6,0.8-0.9,1.9-0.9,3.3h-1.3c0.1-1.7,0.4-3,1-3.9
						c0.6-0.9,1.4-1.9,2.3-2.9c0.9-1,1.4-1.7,1.4-2h-4.8v-1.3h6.3C555.3,431.5,554.8,432.8,553.8,434z"/>
					<path class="st1" d="M558.5,438.8c0.2,0.2,0.3,0.4,0.3,0.6c0,0.3-0.1,0.5-0.3,0.7c-0.2,0.2-0.4,0.3-0.6,0.3
						c-0.2,0-0.5-0.1-0.6-0.3c-0.2-0.2-0.3-0.4-0.3-0.7c0-0.3,0.1-0.5,0.3-0.6s0.4-0.3,0.6-0.3C558.1,438.5,558.4,438.6,558.5,438.8
						z"/>
					<path class="st1" d="M565.1,436.4c-0.4,0.4-1,0.6-1.9,0.6c-0.9,0-1.6-0.3-2.2-0.9c-0.7-0.7-1-1.5-1-2.5c0-1,0.4-1.8,1-2.5
						c0.7-0.7,1.5-1.1,2.5-1.1c1,0,1.8,0.3,2.5,1c0.7,0.7,1,1.6,1,2.8v0c0,1.2-0.3,2.2-1,3.1c-0.6,0.9-1.5,2-2.6,3.2h-1.7
						C563.3,438.7,564.4,437.4,565.1,436.4z M565.8,433.6c0-0.6-0.2-1.2-0.7-1.6c-0.4-0.4-1-0.7-1.6-0.7c-0.6,0-1.1,0.2-1.6,0.7
						c-0.4,0.4-0.7,1-0.7,1.6c0,0.6,0.2,1.2,0.7,1.6c0.4,0.4,1,0.7,1.6,0.7c0.6,0,1.2-0.2,1.6-0.7
						C565.6,434.7,565.8,434.2,565.8,433.6z"/>
					<path class="st1" d="M573.2,436.4c-0.4,0.4-1,0.6-1.9,0.6c-0.9,0-1.6-0.3-2.2-0.9c-0.7-0.7-1-1.5-1-2.5c0-1,0.3-1.8,1-2.5
						s1.5-1.1,2.5-1.1c1,0,1.8,0.3,2.5,1c0.7,0.7,1,1.6,1,2.8v0c0,1.2-0.3,2.2-1,3.1c-0.6,0.9-1.5,2-2.6,3.2H570
						C571.5,438.7,572.6,437.4,573.2,436.4z M574,433.6c0-0.6-0.2-1.2-0.7-1.6c-0.4-0.4-1-0.7-1.6-0.7c-0.6,0-1.1,0.2-1.6,0.7
						c-0.4,0.4-0.7,1-0.7,1.6c0,0.6,0.2,1.2,0.7,1.6c0.4,0.4,1,0.7,1.6,0.7c0.6,0,1.2-0.2,1.6-0.7C573.7,434.7,574,434.2,574,433.6z
						"/>
					<path class="st1" d="M578.3,434c0.4-0.4,1-0.6,1.9-0.6c0.9,0,1.6,0.3,2.2,0.9c0.7,0.7,1,1.6,1,2.5c0,1-0.4,1.8-1,2.5
						c-0.7,0.7-1.5,1.1-2.5,1.1c-1,0-1.8-0.4-2.5-1c-0.7-0.7-1-1.6-1-2.8v0c0-1.2,0.3-2.2,1-3.1c0.6-0.9,1.5-2,2.6-3.2h1.7
						C580.1,431.7,579,433,578.3,434z M577.6,436.8c0,0.6,0.2,1.2,0.7,1.6c0.4,0.4,1,0.7,1.6,0.7c0.6,0,1.1-0.2,1.6-0.7
						c0.4-0.4,0.7-1,0.7-1.6s-0.2-1.2-0.7-1.6c-0.4-0.4-1-0.7-1.6-0.7c-0.6,0-1.2,0.2-1.6,0.7C577.8,435.7,577.6,436.2,577.6,436.8z
						"/>
					<path class="st1" d="M537.3,450.2c0.2-0.1,0.5-0.1,0.7-0.1c0.5,0,0.9,0.1,1.4,0.2c1,0.3,1.7,0.9,2.2,1.8
						c0.3,0.6,0.4,1.1,0.4,1.7c0,0.4-0.1,0.7-0.2,1.1c-0.3,1-0.9,1.7-1.8,2.2c-0.5,0.3-1.1,0.4-1.7,0.4c-0.4,0-0.7-0.1-1.1-0.2
						c-0.8-0.2-1.5-0.8-2-1.5l0.9-1c0.5,0.7,1,1.1,1.5,1.3c0.2,0.1,0.5,0.1,0.7,0.1c0.4,0,0.7-0.1,1.1-0.3c0.6-0.3,1-0.8,1.1-1.4
						c0.1-0.2,0.1-0.5,0.1-0.7c0-0.4-0.1-0.7-0.3-1.1c-0.3-0.6-0.8-1-1.4-1.2c-0.3-0.1-0.6-0.1-0.9-0.1c-0.4,0-1,0.1-1.7,0.3
						l-0.8-0.7l1.1-3.1v-0.5h3.7v1.3h-2.6L537.3,450.2z"/>
					<path class="st1" d="M550.4,454.1c0,1-0.4,1.8-1.1,2.5c-0.7,0.7-1.5,1.1-2.5,1.1c-1,0-1.8-0.4-2.5-1.1
						c-0.7-0.7-1.1-1.5-1.1-2.5V451c0-1,0.4-1.8,1.1-2.5c0.7-0.7,1.5-1.1,2.5-1.1c1,0,1.8,0.4,2.5,1.1c0.7,0.7,1.1,1.5,1.1,2.5
						V454.1z M549.1,451c0-0.6-0.2-1.1-0.7-1.6c-0.4-0.4-1-0.7-1.6-0.7c-0.6,0-1.1,0.2-1.6,0.7s-0.7,1-0.7,1.6v3.1
						c0,0.6,0.2,1.2,0.7,1.6c0.4,0.4,1,0.7,1.6,0.7c0.6,0,1.2-0.2,1.6-0.7c0.4-0.4,0.7-1,0.7-1.6V451z"/>
					<path class="st1" d="M553.7,455.8l-1.5,3H551l0.8-3H553.7z"/>
					<path class="st1" d="M556.9,451.3c0.4-0.4,1-0.6,1.9-0.6c0.9,0,1.6,0.3,2.2,0.9c0.7,0.7,1,1.6,1,2.5c0,1-0.3,1.8-1,2.5
						s-1.5,1.1-2.5,1.1c-1,0-1.8-0.4-2.5-1c-0.7-0.7-1-1.6-1-2.8v0c0-1.2,0.3-2.2,1-3.1c0.6-0.9,1.5-2,2.6-3.2h1.7
						C558.6,449,557.5,450.3,556.9,451.3z M556.1,454.1c0,0.6,0.2,1.2,0.7,1.6c0.4,0.4,1,0.7,1.6,0.7c0.6,0,1.1-0.2,1.6-0.7
						c0.4-0.4,0.7-1,0.7-1.6s-0.2-1.2-0.7-1.6s-1-0.7-1.6-0.7c-0.6,0-1.2,0.2-1.6,0.7C556.3,453,556.1,453.5,556.1,454.1z"/>
					<path class="st1" d="M565.9,450.2c0.3,0.3,0.5,0.7,0.5,1.2c0,0.5-0.2,0.9-0.5,1.2c-0.3,0.3-0.7,0.5-1.2,0.5
						c-0.5,0-0.9-0.2-1.2-0.5c-0.3-0.3-0.5-0.7-0.5-1.2c0-0.5,0.2-0.9,0.5-1.2c0.3-0.3,0.7-0.5,1.2-0.5S565.6,449.8,565.9,450.2z
						 M569.8,449.4l-5.8,8.3l-1.1-0.7l5.8-8.3L569.8,449.4z M564.7,451c-0.1,0-0.2,0-0.3,0.1s-0.1,0.2-0.1,0.3c0,0.1,0,0.2,0.1,0.3
						c0.1,0.1,0.2,0.1,0.3,0.1c0.1,0,0.2,0,0.3-0.1s0.1-0.2,0.1-0.3c0-0.1,0-0.2-0.1-0.3C564.9,451,564.8,451,564.7,451z
						 M569.4,453.7c0.3,0.3,0.5,0.7,0.5,1.2c0,0.5-0.2,0.9-0.5,1.2c-0.3,0.3-0.8,0.5-1.2,0.5c-0.5,0-0.9-0.2-1.2-0.5
						c-0.3-0.3-0.5-0.8-0.5-1.2c0-0.5,0.2-0.9,0.5-1.2s0.7-0.5,1.2-0.5C568.6,453.2,569.1,453.3,569.4,453.7z M568.2,454.5
						c-0.1,0-0.2,0-0.3,0.1c-0.1,0.1-0.1,0.2-0.1,0.3c0,0.1,0,0.2,0.1,0.3c0.1,0.1,0.2,0.1,0.3,0.1s0.2,0,0.3-0.1s0.1-0.2,0.1-0.3
						c0-0.1,0-0.2-0.1-0.3S568.3,454.5,568.2,454.5z"/>
				</g>
			</g>
		</g>
		<g>
			<g>
				<path class="st1" d="M656.9,406.8h0.7l6,10.5v-10.5h0.7v11.8h-0.7l-6.1-10.6v10.6h-0.7L656.9,406.8L656.9,406.8z"/>
				<path class="st1" d="M670.1,410.7c1.1,0,2.1,0.4,2.9,1.2s1.2,1.7,1.2,2.9c0,1.1-0.4,2.1-1.2,2.9c-0.8,0.8-1.7,1.2-2.9,1.2
					c-1.1,0-2.1-0.4-2.9-1.2c-0.8-0.8-1.2-1.7-1.2-2.9c0-1.1,0.4-2.1,1.2-2.9S669,410.7,670.1,410.7z M667.7,412.4
					c-0.7,0.7-1,1.4-1,2.4s0.3,1.7,1,2.4c0.7,0.6,1.4,1,2.4,1s1.7-0.3,2.4-1c0.7-0.6,1-1.4,1-2.4c0-0.9-0.3-1.7-1-2.4
					c-0.7-0.7-1.4-1-2.4-1S668.4,411.7,667.7,412.4z"/>
				<path class="st1" d="M688.9,418.6h-0.7v-1.5c-0.1,0.2-0.3,0.3-0.4,0.5c-0.8,0.8-1.7,1.2-2.9,1.2c-1.1,0-2.1-0.4-2.9-1.2
					s-1.2-1.7-1.2-2.9c0-1.1,0.4-2.1,1.2-2.9s1.7-1.2,2.9-1.2c1.1,0,2.1,0.4,2.9,1.2c0.2,0.2,0.3,0.3,0.4,0.5v-5.6h0.7V418.6z
					 M688.2,415.4v-1.3c-0.1-0.6-0.4-1.2-0.9-1.7c-0.7-0.7-1.4-1-2.4-1s-1.7,0.3-2.4,1c-0.7,0.7-1,1.4-1,2.4s0.3,1.7,1,2.4
					c0.7,0.6,1.4,1,2.4,1s1.7-0.3,2.4-1C687.8,416.6,688.1,416,688.2,415.4z"/>
				<path class="st1" d="M692.5,417.2c0.6,0.6,1.4,0.9,2.2,0.9c0.9,0,1.7-0.3,2.4-1c0.1-0.1,0.2-0.2,0.2-0.3l0.7,0.2
					c-0.1,0.2-0.3,0.3-0.4,0.5c-0.8,0.8-1.7,1.2-2.9,1.2c-1.1,0-2.1-0.4-2.9-1.2c-0.8-0.8-1.2-1.7-1.2-2.9c0-1.1,0.4-2.1,1.2-2.9
					s1.7-1.2,2.9-1.2c1,0,1.8,0.3,2.5,0.9c0.1,0.1,0.2,0.2,0.4,0.3c0,0,0.1,0.1,0.1,0.1l-0.5,0.5L692.5,417.2z M696.7,412.1
					c-0.6-0.4-1.2-0.7-2-0.7c-0.9,0-1.7,0.3-2.4,1c-0.7,0.6-1,1.4-1,2.4c0,0.8,0.2,1.4,0.7,2L696.7,412.1z"/>
				<path class="st1" d="M700.7,412v6.6h-0.7V412h-0.7v-0.7h0.7v-2c0-0.5,0.2-1,0.6-1.4c0.4-0.4,0.9-0.6,1.4-0.6
					c0.3,0,0.6,0.1,0.9,0.2l-0.2,0.6c-0.2-0.1-0.4-0.1-0.6-0.1c-0.3,0-0.7,0.1-1,0.4c-0.3,0.3-0.4,0.6-0.4,1v1.9h1.5v0.7H700.7z"/>
				<path class="st1" d="M704.3,409c0.1,0.1,0.2,0.3,0.2,0.5c0,0.2-0.1,0.3-0.2,0.5c-0.1,0.1-0.3,0.2-0.5,0.2
					c-0.2,0-0.3-0.1-0.5-0.2c-0.1-0.1-0.2-0.3-0.2-0.5c0-0.2,0.1-0.3,0.2-0.5c0.1-0.1,0.3-0.2,0.5-0.2
					C704,408.8,704.2,408.9,704.3,409z M704.2,411.4v7.2h-0.7v-7.2H704.2z"/>
				<path class="st1" d="M707.2,413v5.6h-0.7v-7.2h0.7v0.5c0.6-0.6,1.3-0.9,2.1-0.9c0.9,0,1.5,0.3,2.1,0.8c0.5,0.5,0.8,1.2,0.8,2
					v4.8h-0.7v-4.8c0-0.6-0.2-1.1-0.7-1.6s-1-0.6-1.6-0.6c-0.6,0-1.1,0.2-1.6,0.6C707.5,412.5,707.3,412.7,707.2,413z"/>
				<path class="st1" d="M715.4,409c0.1,0.1,0.2,0.3,0.2,0.5c0,0.2-0.1,0.3-0.2,0.5c-0.1,0.1-0.3,0.2-0.5,0.2s-0.3-0.1-0.5-0.2
					c-0.1-0.1-0.2-0.3-0.2-0.5c0-0.2,0.1-0.3,0.2-0.5c0.1-0.1,0.3-0.2,0.5-0.2C715.1,408.8,715.2,408.9,715.4,409z M715.2,411.4v7.2
					h-0.7v-7.2H715.2z"/>
				<path class="st1" d="M725.4,418.6h-0.7v-1.5c-0.1,0.2-0.3,0.3-0.4,0.5c-0.8,0.8-1.7,1.2-2.9,1.2c-1.1,0-2.1-0.4-2.9-1.2
					c-0.8-0.8-1.2-1.7-1.2-2.9c0-1.1,0.4-2.1,1.2-2.9s1.7-1.2,2.9-1.2c1.1,0,2.1,0.4,2.9,1.2c0.2,0.2,0.3,0.3,0.4,0.5v-5.6h0.7
					V418.6z M724.7,415.4v-1.3c-0.1-0.6-0.4-1.2-0.9-1.7c-0.7-0.7-1.4-1-2.4-1s-1.7,0.3-2.4,1s-1,1.4-1,2.4s0.3,1.7,1,2.4
					c0.7,0.6,1.4,1,2.4,1s1.7-0.3,2.4-1C724.3,416.6,724.6,416,724.7,415.4z"/>
				<path class="st1" d="M731.2,410.7c1.1,0,2.1,0.4,2.9,1.2s1.2,1.7,1.2,2.9c0,1.1-0.4,2.1-1.2,2.9c-0.8,0.8-1.7,1.2-2.9,1.2
					c-1.1,0-2.1-0.4-2.9-1.2c-0.8-0.8-1.2-1.7-1.2-2.9c0-1.1,0.4-2.1,1.2-2.9S730.1,410.7,731.2,410.7z M728.8,412.4
					c-0.7,0.7-1,1.4-1,2.4s0.3,1.7,1,2.4c0.7,0.6,1.4,1,2.4,1s1.7-0.3,2.4-1c0.7-0.6,1-1.4,1-2.4c0-0.9-0.3-1.7-1-2.4
					c-0.7-0.7-1.4-1-2.4-1S729.5,411.7,728.8,412.4z"/>
			</g>
			<g>
				<g>
					<path class="st1" d="M683.4,433.7h0.5l0.6-2.6h1.3l-0.6,2.6h2.6l-0.3,1.3H685l-0.1,0.6h2.6l-0.3,1.3h-2.6l-0.6,2.6h-1.3
						l0.6-2.6h-0.5l-0.6,2.6h-1.3l0.6-2.6h-2.6l0.3-1.3h2.6l0.1-0.6h-2.6l0.3-1.3h2.6l0.6-2.6h1.3L683.4,433.7z M683.6,435h-0.5
						l-0.1,0.6h0.5L683.6,435z"/>
					<path class="st1" d="M691,437.1c0.7-0.5,1.3-0.9,1.8-1.3c0.5-0.4,0.9-0.8,1.3-1.2s0.6-0.9,0.6-1.4s-0.2-0.9-0.5-1.3
						c-0.4-0.4-0.8-0.5-1.3-0.5c-0.5,0-0.9,0.2-1.3,0.5c-0.3,0.3-0.5,0.8-0.6,1.6l-1.3-0.5c0.1-0.9,0.4-1.6,0.9-2.1
						c0.6-0.6,1.4-0.9,2.2-0.9c0.9,0,1.6,0.3,2.2,0.9c0.6,0.6,0.9,1.4,0.9,2.2c0,0.9-0.3,1.6-0.9,2.3c-0.4,0.4-0.8,0.8-1.3,1.2
						c-0.5,0.4-1.1,0.8-1.7,1.3c-0.5,0.4-0.8,0.7-0.9,1h4.8v1.3h-6.3C689.9,438.7,690.3,437.6,691,437.1z"/>
					<path class="st1" d="M702.3,430.2h1.1v6.1h0.9v1.3h-0.9v2.7h-1.3v-2.7H698L702.3,430.2z M702.2,433.1l-1.9,3.1h1.9V433.1z"/>
					<path class="st1" d="M709.2,435.1l-0.8,0v-1.3c0.6,0,0.9,0,1.1-0.1c0.2-0.1,0.4-0.2,0.6-0.4c0.2-0.2,0.3-0.5,0.3-0.8
						c0-0.3-0.1-0.5-0.3-0.7c-0.2-0.2-0.4-0.3-0.7-0.3c-0.3,0-0.5,0.1-0.7,0.3c-0.1,0.1-0.2,0.4-0.4,0.8l-1.2-0.5
						c0.2-0.6,0.4-1,0.7-1.2c0.5-0.5,1-0.7,1.7-0.7c0.7,0,1.2,0.2,1.7,0.7s0.7,1,0.7,1.7c0,0.7-0.4,1.3-1.2,1.9
						c0.4,0,0.8,0.2,1.2,0.6c0.6,0.6,0.9,1.4,0.9,2.3c0,0.9-0.3,1.6-0.9,2.2c-0.6,0.6-1.4,0.9-2.2,0.9c-0.9,0-1.6-0.3-2.2-0.9
						c-0.5-0.5-0.8-1.2-0.9-2.1l1.3-0.5c0.1,0.8,0.3,1.3,0.6,1.6c0.4,0.4,0.8,0.5,1.3,0.5c0.5,0,0.9-0.2,1.3-0.5s0.5-0.8,0.5-1.3
						c0-0.5-0.2-1-0.5-1.4S710,435.2,709.2,435.1z"/>
					<path class="st1" d="M689.7,454.1c0,1-0.4,1.8-1.1,2.5c-0.7,0.7-1.5,1.1-2.5,1.1c-1,0-1.8-0.4-2.5-1.1
						c-0.7-0.7-1.1-1.5-1.1-2.5V451c0-1,0.4-1.8,1.1-2.5c0.7-0.7,1.5-1.1,2.5-1.1c1,0,1.8,0.4,2.5,1.1c0.7,0.7,1.1,1.5,1.1,2.5
						V454.1z M688.3,451c0-0.6-0.2-1.1-0.7-1.6c-0.4-0.4-1-0.7-1.6-0.7c-0.6,0-1.1,0.2-1.6,0.7c-0.4,0.4-0.7,1-0.7,1.6v3.1
						c0,0.6,0.2,1.2,0.7,1.6c0.4,0.4,1,0.7,1.6,0.7c0.6,0,1.2-0.2,1.6-0.7c0.4-0.4,0.7-1,0.7-1.6V451z"/>
					<path class="st1" d="M692.9,455.8l-1.5,3h-1.2l0.8-3H692.9z"/>
					<path class="st1" d="M701.2,454.1c0,1-0.3,1.8-1.1,2.5c-0.7,0.7-1.5,1.1-2.5,1.1c-1,0-1.8-0.4-2.5-1.1
						c-0.7-0.7-1.1-1.5-1.1-2.5V451c0-1,0.4-1.8,1.1-2.5c0.7-0.7,1.5-1.1,2.5-1.1c1,0,1.8,0.4,2.5,1.1c0.7,0.7,1.1,1.5,1.1,2.5
						V454.1z M699.8,451c0-0.6-0.2-1.1-0.7-1.6s-1-0.7-1.6-0.7c-0.6,0-1.1,0.2-1.6,0.7s-0.7,1-0.7,1.6v3.1c0,0.6,0.2,1.2,0.7,1.6
						c0.4,0.4,1,0.7,1.6,0.7c0.6,0,1.2-0.2,1.6-0.7c0.4-0.4,0.7-1,0.7-1.6V451z"/>
					<path class="st1" d="M705.1,450.2c0.3,0.3,0.5,0.7,0.5,1.2c0,0.5-0.2,0.9-0.5,1.2c-0.3,0.3-0.7,0.5-1.2,0.5
						c-0.5,0-0.9-0.2-1.2-0.5c-0.3-0.3-0.5-0.7-0.5-1.2c0-0.5,0.2-0.9,0.5-1.2c0.3-0.3,0.7-0.5,1.2-0.5
						C704.4,449.7,704.8,449.8,705.1,450.2z M709.1,449.4l-5.8,8.3l-1.1-0.7l5.8-8.3L709.1,449.4z M703.9,451c-0.1,0-0.2,0-0.3,0.1
						c-0.1,0.1-0.1,0.2-0.1,0.3c0,0.1,0,0.2,0.1,0.3s0.2,0.1,0.3,0.1c0.1,0,0.2,0,0.3-0.1s0.1-0.2,0.1-0.3c0-0.1,0-0.2-0.1-0.3
						S704,451,703.9,451z M708.6,453.7c0.3,0.3,0.5,0.7,0.5,1.2c0,0.5-0.2,0.9-0.5,1.2c-0.3,0.3-0.8,0.5-1.2,0.5
						c-0.5,0-0.9-0.2-1.2-0.5c-0.3-0.3-0.5-0.8-0.5-1.2c0-0.5,0.2-0.9,0.5-1.2c0.3-0.3,0.7-0.5,1.2-0.5
						C707.9,453.2,708.3,453.3,708.6,453.7z M707.4,454.5c-0.1,0-0.2,0-0.3,0.1s-0.1,0.2-0.1,0.3c0,0.1,0,0.2,0.1,0.3
						c0.1,0.1,0.2,0.1,0.3,0.1c0.1,0,0.2,0,0.3-0.1s0.1-0.2,0.1-0.3c0-0.1,0-0.2-0.1-0.3C707.6,454.5,707.5,454.5,707.4,454.5z"/>
				</g>
			</g>
		</g>
		<g>
			<g>
				<path class="st1" d="M796.7,406.8h0.7l6,10.5v-10.5h0.7v11.8h-0.7l-6.1-10.6v10.6h-0.7L796.7,406.8L796.7,406.8z"/>
				<path class="st1" d="M809.9,410.7c1.1,0,2.1,0.4,2.9,1.2s1.2,1.7,1.2,2.9c0,1.1-0.4,2.1-1.2,2.9c-0.8,0.8-1.7,1.2-2.9,1.2
					c-1.1,0-2.1-0.4-2.9-1.2c-0.8-0.8-1.2-1.7-1.2-2.9c0-1.1,0.4-2.1,1.2-2.9S808.8,410.7,809.9,410.7z M807.6,412.4
					c-0.7,0.7-1,1.4-1,2.4s0.3,1.7,1,2.4c0.7,0.6,1.4,1,2.4,1s1.7-0.3,2.4-1c0.7-0.6,1-1.4,1-2.4c0-0.9-0.3-1.7-1-2.4
					c-0.7-0.7-1.4-1-2.4-1S808.2,411.7,807.6,412.4z"/>
				<path class="st1" d="M820.9,411.4h0.7v1.3c0.1-0.2,0.3-0.4,0.5-0.6c0.6-0.6,1.2-0.9,1.8-0.9v0.7c-0.4,0-0.8,0.3-1.3,0.7
					c-0.6,0.6-1,1.4-1,2.2v3.7h-0.7V411.4z"/>
				<path class="st1" d="M826.7,417.2c0.6,0.6,1.4,0.9,2.2,0.9c0.9,0,1.7-0.3,2.4-1c0.1-0.1,0.2-0.2,0.2-0.3l0.7,0.2
					c-0.1,0.2-0.3,0.3-0.4,0.5c-0.8,0.8-1.7,1.2-2.9,1.2c-1.1,0-2.1-0.4-2.9-1.2c-0.8-0.8-1.2-1.7-1.2-2.9c0-1.1,0.4-2.1,1.2-2.9
					s1.7-1.2,2.9-1.2c1,0,1.8,0.3,2.5,0.9c0.1,0.1,0.2,0.2,0.4,0.3c0,0,0.1,0.1,0.1,0.1l-0.5,0.5L826.7,417.2z M830.9,412.1
					c-0.6-0.4-1.2-0.7-2-0.7c-0.9,0-1.7,0.3-2.4,1c-0.7,0.6-1,1.4-1,2.4c0,0.8,0.2,1.4,0.7,2L830.9,412.1z"/>
				<path class="st1" d="M834,411.4h0.7v1c0.1-0.2,0.3-0.3,0.4-0.5c0.8-0.8,1.7-1.2,2.9-1.2c1.1,0,2.1,0.4,2.9,1.2
					c0.8,0.8,1.2,1.7,1.2,2.9c0,1.1-0.4,2.1-1.2,2.9c-0.8,0.8-1.7,1.2-2.9,1.2c-1.1,0-2.1-0.4-2.9-1.2c-0.2-0.2-0.3-0.3-0.4-0.5v4.2
					H834V411.4z M834.6,414.1v1.4c0.1,0.6,0.4,1.2,0.9,1.7c0.7,0.6,1.4,1,2.4,1s1.7-0.3,2.4-1c0.7-0.7,1-1.4,1-2.4s-0.3-1.7-1-2.4
					s-1.4-1-2.4-1s-1.7,0.3-2.4,1C835.1,412.9,834.8,413.4,834.6,414.1z"/>
				<path class="st1" d="M847.4,410.7c1.1,0,2.1,0.4,2.9,1.2c0.8,0.8,1.2,1.7,1.2,2.9c0,1.1-0.4,2.1-1.2,2.9
					c-0.8,0.8-1.7,1.2-2.9,1.2c-1.1,0-2.1-0.4-2.9-1.2c-0.8-0.8-1.2-1.7-1.2-2.9c0-1.1,0.4-2.1,1.2-2.9
					C845.3,411.1,846.3,410.7,847.4,410.7z M845,412.4c-0.7,0.7-1,1.4-1,2.4s0.3,1.7,1,2.4c0.7,0.6,1.4,1,2.4,1s1.7-0.3,2.4-1
					c0.7-0.6,1-1.4,1-2.4c0-0.9-0.3-1.7-1-2.4s-1.4-1-2.4-1S845.7,411.7,845,412.4z"/>
				<path class="st1" d="M853.2,411.4h0.7v1.3c0.1-0.2,0.3-0.4,0.5-0.6c0.6-0.6,1.2-0.9,1.8-0.9v0.7c-0.4,0-0.8,0.3-1.3,0.7
					c-0.6,0.6-1,1.4-1,2.2v3.7h-0.7V411.4z"/>
				<path class="st1" d="M858.9,411.4v-3.1h0.7v3.1h1.5v0.7h-1.5v6.6h-0.7V412h-1.5v-0.7H858.9z"/>
				<path class="st1" d="M870.6,418.6h-0.7v-1.5c-0.1,0.2-0.3,0.3-0.4,0.5c-0.8,0.8-1.7,1.2-2.9,1.2c-1.1,0-2.1-0.4-2.9-1.2
					c-0.8-0.8-1.2-1.7-1.2-2.9c0-1.1,0.4-2.1,1.2-2.9s1.7-1.2,2.9-1.2c1.1,0,2.1,0.4,2.9,1.2c0.2,0.2,0.3,0.3,0.4,0.5v-1h0.7V418.6z
					 M869.9,415.4v-1.3c-0.1-0.6-0.4-1.2-0.9-1.7c-0.7-0.7-1.4-1-2.4-1s-1.7,0.3-2.4,1s-1,1.4-1,2.4s0.3,1.7,1,2.4
					c0.7,0.6,1.4,1,2.4,1s1.7-0.3,2.4-1C869.5,416.6,869.8,416,869.9,415.4z"/>
				<path class="st1" d="M880.6,418.6h-0.7v-1.5c-0.1,0.2-0.3,0.3-0.4,0.5c-0.8,0.8-1.7,1.2-2.9,1.2c-1.1,0-2.1-0.4-2.9-1.2
					c-0.8-0.8-1.2-1.7-1.2-2.9c0-1.1,0.4-2.1,1.2-2.9c0.8-0.8,1.7-1.2,2.9-1.2c1.1,0,2.1,0.4,2.9,1.2c0.2,0.2,0.3,0.3,0.4,0.5v-5.6
					h0.7V418.6z M879.9,415.4v-1.3c-0.1-0.6-0.4-1.2-0.9-1.7c-0.7-0.7-1.4-1-2.4-1s-1.7,0.3-2.4,1c-0.7,0.7-1,1.4-1,2.4
					s0.3,1.7,1,2.4c0.7,0.6,1.4,1,2.4,1s1.7-0.3,2.4-1C879.5,416.6,879.8,416,879.9,415.4z"/>
				<path class="st1" d="M886.4,410.7c1.1,0,2.1,0.4,2.9,1.2c0.8,0.8,1.2,1.7,1.2,2.9c0,1.1-0.4,2.1-1.2,2.9
					c-0.8,0.8-1.7,1.2-2.9,1.2c-1.1,0-2.1-0.4-2.9-1.2c-0.8-0.8-1.2-1.7-1.2-2.9c0-1.1,0.4-2.1,1.2-2.9
					C884.3,411.1,885.3,410.7,886.4,410.7z M884,412.4c-0.7,0.7-1,1.4-1,2.4s0.3,1.7,1,2.4c0.7,0.6,1.4,1,2.4,1s1.7-0.3,2.4-1
					c0.7-0.6,1-1.4,1-2.4c0-0.9-0.3-1.7-1-2.4s-1.4-1-2.4-1S884.7,411.7,884,412.4z"/>
			</g>
			<g>
				<g>
					<path class="st1" d="M820.6,433.7h0.5l0.6-2.6h1.3l-0.6,2.6h2.6l-0.3,1.3h-2.6l-0.1,0.6h2.6l-0.3,1.3h-2.6l-0.6,2.6h-1.3
						l0.6-2.6h-0.5l-0.6,2.6h-1.3l0.7-2.6h-2.6l0.3-1.3h2.6l0.1-0.6h-2.6l0.3-1.3h2.6l0.6-2.6h1.3L820.6,433.7z M820.8,435h-0.5
						l-0.1,0.6h0.5L820.8,435z"/>
					<path class="st1" d="M831.5,430.2v10.1h-1.3v-8.4h-1l1.3-1.7H831.5L831.5,430.2z"/>
					<path class="st1" d="M838.6,435.1l-0.8,0v-1.3c0.6,0,0.9,0,1.1-0.1s0.4-0.2,0.6-0.4c0.2-0.2,0.3-0.5,0.3-0.8
						c0-0.3-0.1-0.5-0.3-0.7c-0.2-0.2-0.4-0.3-0.7-0.3c-0.3,0-0.5,0.1-0.7,0.3c-0.1,0.1-0.2,0.4-0.4,0.8l-1.2-0.5
						c0.2-0.6,0.4-1,0.7-1.2c0.5-0.5,1-0.7,1.7-0.7c0.7,0,1.2,0.2,1.7,0.7s0.7,1,0.7,1.7c0,0.7-0.4,1.3-1.2,1.9
						c0.4,0,0.8,0.2,1.2,0.6c0.6,0.6,0.9,1.4,0.9,2.3c0,0.9-0.3,1.6-0.9,2.2c-0.6,0.6-1.4,0.9-2.2,0.9c-0.9,0-1.6-0.3-2.2-0.9
						c-0.5-0.5-0.8-1.2-0.9-2.1l1.3-0.5c0.1,0.8,0.3,1.3,0.6,1.6c0.4,0.4,0.8,0.5,1.3,0.5c0.5,0,0.9-0.2,1.3-0.5
						c0.4-0.4,0.5-0.8,0.5-1.3c0-0.5-0.2-1-0.5-1.4C839.9,435.5,839.4,435.2,838.6,435.1z"/>
					<path class="st1" d="M845.3,438.8c0.2,0.2,0.3,0.4,0.3,0.6c0,0.3-0.1,0.5-0.3,0.7c-0.2,0.2-0.4,0.3-0.6,0.3
						c-0.2,0-0.5-0.1-0.6-0.3c-0.2-0.2-0.3-0.4-0.3-0.7c0-0.3,0.1-0.5,0.3-0.6c0.2-0.2,0.4-0.3,0.6-0.3
						C844.9,438.5,845.1,438.6,845.3,438.8z"/>
					<path class="st1" d="M851.8,430.2v10.1h-1.3v-8.4h-1l1.3-1.7H851.8L851.8,430.2z"/>
					<path class="st1" d="M857.8,434c0.4-0.4,1-0.6,1.9-0.6c0.9,0,1.6,0.3,2.2,0.9c0.7,0.7,1,1.6,1,2.5c0,1-0.3,1.8-1,2.5
						c-0.7,0.7-1.5,1.1-2.5,1.1c-1,0-1.8-0.4-2.5-1c-0.7-0.7-1-1.6-1-2.8v0c0-1.2,0.3-2.2,1-3.1c0.6-0.9,1.5-2,2.6-3.2h1.7
						C859.5,431.7,858.4,433,857.8,434z M857,436.8c0,0.6,0.2,1.2,0.7,1.6c0.4,0.4,1,0.7,1.6,0.7c0.6,0,1.1-0.2,1.6-0.7
						c0.4-0.4,0.7-1,0.7-1.6s-0.2-1.2-0.7-1.6c-0.4-0.4-1-0.7-1.6-0.7c-0.6,0-1.2,0.2-1.6,0.7S857,436.2,857,436.8z"/>
					<path class="st1" d="M866.2,432.9c0.2,0,0.5-0.1,0.7-0.1c0.5,0,0.9,0.1,1.4,0.2c1,0.3,1.7,0.9,2.2,1.8c0.3,0.6,0.4,1.1,0.4,1.7
						c0,0.4-0.1,0.7-0.2,1.1c-0.3,1-0.9,1.7-1.8,2.2c-0.5,0.3-1.1,0.4-1.7,0.4c-0.4,0-0.7-0.1-1.1-0.2c-0.8-0.2-1.5-0.8-2-1.5l0.9-1
						c0.5,0.7,1,1.1,1.5,1.3c0.2,0.1,0.5,0.1,0.7,0.1c0.4,0,0.7-0.1,1.1-0.3c0.6-0.3,1-0.8,1.1-1.4c0.1-0.2,0.1-0.5,0.1-0.7
						c0-0.4-0.1-0.7-0.3-1.1c-0.3-0.6-0.8-1-1.4-1.2c-0.3-0.1-0.6-0.1-0.9-0.1c-0.4,0-1,0.1-1.7,0.3l-0.8-0.7l1.1-3.1v-0.5h3.7v1.3
						h-2.6L866.2,432.9z"/>
					<path class="st1" d="M837.2,454.1c0,1-0.4,1.8-1.1,2.5c-0.7,0.7-1.5,1.1-2.5,1.1c-1,0-1.8-0.4-2.5-1.1
						c-0.7-0.7-1.1-1.5-1.1-2.5V451c0-1,0.3-1.8,1.1-2.5c0.7-0.7,1.5-1.1,2.5-1.1c1,0,1.8,0.4,2.5,1.1c0.7,0.7,1.1,1.5,1.1,2.5
						V454.1z M835.8,451c0-0.6-0.2-1.1-0.7-1.6s-1-0.7-1.6-0.7c-0.6,0-1.1,0.2-1.6,0.7c-0.4,0.4-0.7,1-0.7,1.6v3.1
						c0,0.6,0.2,1.2,0.7,1.6c0.4,0.4,1,0.7,1.6,0.7c0.6,0,1.2-0.2,1.6-0.7c0.4-0.4,0.7-1,0.7-1.6V451z"/>
					<path class="st1" d="M840.4,455.8l-1.5,3h-1.2l0.8-3H840.4z"/>
					<path class="st1" d="M846.7,453.7c-0.4,0.4-1,0.6-1.9,0.6c-0.9,0-1.6-0.3-2.2-0.9c-0.7-0.7-1-1.6-1-2.5c0-1,0.3-1.8,1-2.5
						c0.7-0.7,1.5-1.1,2.5-1.1c1,0,1.8,0.4,2.5,1c0.7,0.7,1,1.6,1,2.8v0c0,1.2-0.3,2.2-1,3.1c-0.6,0.9-1.5,2-2.6,3.2h-1.7
						C845,456,846,454.7,846.7,453.7z M847.4,450.9c0-0.6-0.2-1.2-0.7-1.6s-1-0.7-1.6-0.7c-0.6,0-1.1,0.2-1.6,0.7
						c-0.4,0.4-0.7,1-0.7,1.6c0,0.6,0.2,1.2,0.7,1.6c0.4,0.4,1,0.7,1.6,0.7c0.6,0,1.2-0.2,1.6-0.7S847.4,451.5,847.4,450.9z"/>
					<path class="st1" d="M852.7,450.2c0.3,0.3,0.5,0.7,0.5,1.2c0,0.5-0.2,0.9-0.5,1.2c-0.3,0.3-0.7,0.5-1.2,0.5
						c-0.5,0-0.9-0.2-1.2-0.5c-0.3-0.3-0.5-0.7-0.5-1.2c0-0.5,0.2-0.9,0.5-1.2c0.3-0.3,0.7-0.5,1.2-0.5
						C851.9,449.7,852.3,449.8,852.7,450.2z M856.6,449.4l-5.8,8.3l-1.1-0.7l5.8-8.3L856.6,449.4z M851.4,451c-0.1,0-0.2,0-0.3,0.1
						c-0.1,0.1-0.1,0.2-0.1,0.3c0,0.1,0,0.2,0.1,0.3c0.1,0.1,0.2,0.1,0.3,0.1c0.1,0,0.2,0,0.3-0.1c0.1-0.1,0.1-0.2,0.1-0.3
						c0-0.1,0-0.2-0.1-0.3C851.7,451,851.6,451,851.4,451z M856.2,453.7c0.3,0.3,0.5,0.7,0.5,1.2c0,0.5-0.2,0.9-0.5,1.2
						c-0.3,0.3-0.8,0.5-1.2,0.5c-0.5,0-0.9-0.2-1.2-0.5c-0.3-0.3-0.5-0.8-0.5-1.2c0-0.5,0.2-0.9,0.5-1.2s0.7-0.5,1.2-0.5
						C855.4,453.2,855.8,453.3,856.2,453.7z M854.9,454.5c-0.1,0-0.2,0-0.3,0.1c-0.1,0.1-0.1,0.2-0.1,0.3c0,0.1,0,0.2,0.1,0.3
						c0.1,0.1,0.2,0.1,0.3,0.1s0.2,0,0.3-0.1s0.1-0.2,0.1-0.3c0-0.1,0-0.2-0.1-0.3S855.1,454.5,854.9,454.5z"/>
				</g>
			</g>
		</g>
		<g>
			<g>
				<g>
					<path class="st1" d="M247.8,387.3l-4.9,0.2l-0.1,13.5l-6,0.5l0.1-13.9l-4.8,0.2l-0.3-5.4l15.6-0.6L247.8,387.3z"/>
					<path class="st1" d="M251.5,401.3c-3.8,0-7.1-3.3-7.1-7c0-3.5,3.2-6.5,7-6.5c3.7,0,7,3.1,7,6.7
						C258.4,398,255.1,401.3,251.5,401.3z M253.9,394.6c0-1.4-1-2.5-2.3-2.5c-1.4,0-2.4,1-2.4,2.3c0,1.4,1,2.5,2.4,2.5
						S253.9,396,253.9,394.6z"/>
					<path class="st1" d="M259.4,388.2h2l0.1-2.8l4-0.5l0.2,3.1l2.6,0l0.6,3.7h-3.2c0,1.2,0,2.4,0,2.9c0,2,0.5,2.8,1.8,2.8
						c0.8,0,1.2-0.3,2.1-1.3l1,3.5c-0.9,1.1-2.3,1.6-4.3,1.6c-3.8,0-5-1.6-5-6.2c0-1.1,0-2.2,0-3.4l-1.5,0L259.4,388.2z"/>
					<path class="st1" d="M284.4,401.2h-4.4l-0.1-1.7c-0.8,1.1-2.1,1.8-3.7,1.8c-3.3,0-6-3-6-6.8c0-3.8,2.8-6.7,6.5-6.7
						c1.6,0,2.6,0.5,3.1,1.5l0-1.4h3.9L284.4,401.2z M277.1,397.1c1.3,0,2.4-1.4,2.4-3c0-1.3-1-2.3-2.3-2.3c-1.4,0-2.7,1.2-2.7,2.6
						S275.7,397.1,277.1,397.1z"/>
					<path class="st1" d="M293.5,400.7c-1,0.4-2,0.7-3.1,0.7c-3,0-5.1-1.8-5.1-4.5l0-13.6l4.3-1.4l0.2,14c0,0.8,0.5,1.3,1.4,1.3
						c0.4,0,0.8-0.1,1.2-0.4L293.5,400.7z"/>
					<path class="st1" d="M231.6,408.7c0.1,3.9,0.4,7.8,0.4,11.8c0,5.7-2.1,8.5-6.3,8.5c-4.5,0-8.2-3.2-8.2-7c0-0.2,0-0.4,0-0.6
						l4.3,1c0.1,1.5,1.3,2.4,3,2.4c1.9,0,2.8-1.1,2.8-3.3c0-0.6-0.1-1.3-0.2-2.2c-0.8,1-2.1,1.6-3.8,1.6c-3.5,0-6.1-2.5-6.1-6
						c0-3.5,3-6.6,6.3-6.6c1.4,0,2.8,0.6,4,1.6v-1.4L231.6,408.7L231.6,408.7L231.6,408.7z M226.5,414.7c0-1.4-1.1-2.4-2.4-2.4
						c-1.3,0-2.3,1-2.3,2.5c0,1.4,0.9,2.5,2.2,2.5C225.5,417.3,226.5,416.1,226.5,414.7z"/>
					<path class="st1" d="M245.9,417.6c-0.5,2.5-3.3,4.5-6.3,4.5c-3.7,0-6.9-3.2-6.9-6.8c0-3.7,3.2-6.7,7.2-6.7
						c3.8,0,6.1,2.7,6.1,7.1l-8.8,0.5c0.4,1.3,1.4,2,2.6,2c1,0,2-0.5,2.5-1.4L245.9,417.6z M241.2,413.4c-0.2-0.9-1-1.5-2-1.5
						c-1.2,0-2.1,0.7-2,1.6L241.2,413.4z"/>
					<path class="st1" d="M246.9,408.7l4.2-0.1v2.1c1.1-1.3,2.7-2.2,4.1-2.2c2.7,0,4.4,2.8,4.4,7.3c0,0.4,0,3.3,0,6.1h-4.4l0.1-6.9
						c0-1.2-0.7-2.1-1.7-2.1c-1.2,0-2.3,0.9-2.4,2c0,0.4,0,1.1,0,3.2c0,0.4,0,2.1,0,3.9h-4.3L246.9,408.7L246.9,408.7z"/>
					<path class="st1" d="M273.4,417.6c-0.5,2.5-3.3,4.5-6.3,4.5c-3.7,0-6.9-3.2-6.9-6.8c0-3.7,3.2-6.7,7.2-6.7
						c3.8,0,6.1,2.7,6.1,7.1l-8.8,0.5c0.4,1.3,1.4,2,2.6,2c1,0,2-0.5,2.5-1.4L273.4,417.6z M268.7,413.4c-0.2-0.9-1-1.5-2-1.5
						c-1.2,0-2.1,0.7-2,1.6L268.7,413.4z"/>
					<path class="st1" d="M274.4,408.7h4.4l0,1.9c0.5-1.3,1.8-2.1,3.2-2.1c1.2,0,2.4,0.6,3.3,1.7l-1.7,3.9c-0.5-0.6-1.2-1-2-1
						c-1.8,0-2.7,1.7-2.7,5.3v3.8h-4.4L274.4,408.7L274.4,408.7z"/>
					<path class="st1" d="M299,421.9h-4.4l-0.1-1.7c-0.8,1.1-2.1,1.8-3.7,1.8c-3.3,0-6-3-6-6.8c0-3.8,2.8-6.7,6.5-6.7
						c1.6,0,2.6,0.5,3.1,1.5l0-1.4h3.9L299,421.9z M291.7,417.8c1.3,0,2.4-1.4,2.4-3c0-1.3-1-2.3-2.3-2.3c-1.4,0-2.7,1.2-2.7,2.6
						C289,416.5,290.3,417.8,291.7,417.8z"/>
					<path class="st1" d="M308,421.5c-1,0.4-2,0.7-3.1,0.7c-3,0-5.1-1.8-5.1-4.5l0-13.6l4.3-1.4l0.2,14c0,0.8,0.5,1.3,1.4,1.3
						c0.4,0,0.8-0.1,1.2-0.4L308,421.5z"/>
				</g>
			</g>
			<g>
				<path class="st1" d="M221.2,433.6v11.1h-0.7v-11.1h-3v-0.7h6.6v0.7H221.2z"/>
				<path class="st1" d="M228.7,436.8c1.1,0,2.1,0.4,2.9,1.2c0.8,0.8,1.2,1.7,1.2,2.9c0,1.1-0.4,2.1-1.2,2.9
					c-0.8,0.8-1.7,1.2-2.9,1.2c-1.1,0-2.1-0.4-2.9-1.2c-0.8-0.8-1.2-1.7-1.2-2.9c0-1.1,0.4-2.1,1.2-2.9
					C226.6,437.2,227.6,436.8,228.7,436.8z M226.3,438.5c-0.7,0.7-1,1.4-1,2.4s0.3,1.7,1,2.4c0.7,0.6,1.4,1,2.4,1s1.7-0.3,2.4-1
					c0.7-0.6,1-1.4,1-2.4c0-0.9-0.3-1.7-1-2.4c-0.7-0.7-1.4-1-2.4-1S227,437.8,226.3,438.5z"/>
				<path class="st1" d="M235.5,437.4v-3.1h0.7v3.1h1.5v0.7h-1.5v6.6h-0.7v-6.6H234v-0.7H235.5z"/>
				<path class="st1" d="M247.2,444.7h-0.7v-1.5c-0.1,0.2-0.3,0.3-0.4,0.5c-0.8,0.8-1.7,1.2-2.9,1.2c-1.1,0-2.1-0.4-2.9-1.2
					c-0.8-0.8-1.2-1.7-1.2-2.9c0-1.1,0.4-2.1,1.2-2.9c0.8-0.8,1.7-1.2,2.9-1.2c1.1,0,2.1,0.4,2.9,1.2c0.2,0.2,0.3,0.3,0.4,0.5v-1
					h0.7V444.7z M246.5,441.5v-1.3c-0.1-0.6-0.4-1.2-0.9-1.7c-0.7-0.7-1.4-1-2.4-1s-1.7,0.3-2.4,1s-1,1.4-1,2.4s0.3,1.7,1,2.4
					c0.7,0.6,1.4,1,2.4,1s1.7-0.3,2.4-1C246.1,442.7,246.4,442.1,246.5,441.5z"/>
				<path class="st1" d="M250.1,432.9v11.8h-0.7v-11.8H250.1z"/>
				<path class="st1" d="M264.6,443.2c-0.1,0.2-0.3,0.3-0.4,0.5c-0.8,0.8-1.7,1.2-2.9,1.2c-1.1,0-2.1-0.4-2.9-1.2s-1.2-1.7-1.2-2.9
					c0-1.1,0.4-2.1,1.2-2.9s1.7-1.2,2.9-1.2c1.1,0,2.1,0.4,2.9,1.2c0.2,0.2,0.3,0.3,0.4,0.5v-1h0.7v5.6c0,1.1-0.4,2-1.2,2.8
					c-0.8,0.8-1.7,1.2-2.9,1.2c-1.1,0-2.1-0.4-2.9-1.2c-0.2-0.2-0.3-0.3-0.4-0.5l0.7-0.2c0.1,0.1,0.2,0.2,0.2,0.3
					c0.7,0.6,1.4,1,2.4,1c0.9,0,1.7-0.3,2.4-1C264.2,444.7,264.5,444,264.6,443.2z M264.6,440.1c-0.1-0.6-0.4-1.2-0.9-1.7
					c-0.7-0.7-1.4-1-2.4-1s-1.7,0.3-2.4,1c-0.7,0.7-1,1.4-1,2.4s0.3,1.7,1,2.4c0.7,0.7,1.4,1,2.4,1s1.7-0.3,2.4-1
					c0.5-0.5,0.8-1,0.9-1.7V440.1z"/>
				<path class="st1" d="M268.9,443.3c0.6,0.6,1.4,0.9,2.2,0.9c0.9,0,1.7-0.3,2.4-1c0.1-0.1,0.2-0.2,0.2-0.3l0.7,0.2
					c-0.1,0.2-0.3,0.3-0.4,0.5c-0.8,0.8-1.7,1.2-2.9,1.2c-1.1,0-2.1-0.4-2.9-1.2s-1.2-1.7-1.2-2.9c0-1.1,0.4-2.1,1.2-2.9
					s1.7-1.2,2.9-1.2c1,0,1.8,0.3,2.5,0.9c0.1,0.1,0.2,0.2,0.4,0.3c0,0,0.1,0.1,0.1,0.1l-0.5,0.5L268.9,443.3z M273.1,438.1
					c-0.6-0.4-1.2-0.7-2-0.7c-0.9,0-1.7,0.3-2.4,1s-1,1.4-1,2.4c0,0.8,0.2,1.4,0.7,2L273.1,438.1z"/>
				<path class="st1" d="M276.8,439v5.6h-0.7v-7.2h0.7v0.5c0.6-0.6,1.3-0.9,2.1-0.9c0.9,0,1.5,0.3,2.1,0.8s0.8,1.2,0.8,2v4.8h-0.7
					v-4.8c0-0.6-0.2-1.1-0.7-1.6c-0.4-0.4-1-0.6-1.6-0.6c-0.6,0-1.1,0.2-1.6,0.6C277.1,438.5,276.9,438.8,276.8,439z"/>
				<path class="st1" d="M285.4,443.3c0.6,0.6,1.4,0.9,2.2,0.9c0.9,0,1.7-0.3,2.4-1c0.1-0.1,0.2-0.2,0.2-0.3l0.7,0.2
					c-0.1,0.2-0.3,0.3-0.4,0.5c-0.8,0.8-1.7,1.2-2.9,1.2c-1.1,0-2.1-0.4-2.9-1.2s-1.2-1.7-1.2-2.9c0-1.1,0.4-2.1,1.2-2.9
					s1.7-1.2,2.9-1.2c1,0,1.8,0.3,2.5,0.9c0.1,0.1,0.2,0.2,0.4,0.3c0,0,0.1,0.1,0.1,0.1l-0.5,0.5L285.4,443.3z M289.6,438.1
					c-0.6-0.4-1.2-0.7-2-0.7c-0.9,0-1.7,0.3-2.4,1c-0.7,0.6-1,1.4-1,2.4c0,0.8,0.2,1.4,0.7,2L289.6,438.1z"/>
				<path class="st1" d="M292.7,437.4h0.7v1.3c0.1-0.2,0.3-0.4,0.5-0.6c0.6-0.6,1.2-0.9,1.8-0.9v0.7c-0.4,0-0.8,0.3-1.3,0.7
					c-0.6,0.6-1,1.4-1,2.2v3.7h-0.7V437.4z"/>
				<path class="st1" d="M304.9,444.7h-0.7v-1.5c-0.1,0.2-0.3,0.3-0.4,0.5c-0.8,0.8-1.7,1.2-2.9,1.2c-1.1,0-2.1-0.4-2.9-1.2
					c-0.8-0.8-1.2-1.7-1.2-2.9c0-1.1,0.4-2.1,1.2-2.9c0.8-0.8,1.7-1.2,2.9-1.2c1.1,0,2.1,0.4,2.9,1.2c0.2,0.2,0.3,0.3,0.4,0.5v-1
					h0.7V444.7z M304.2,441.5v-1.3c-0.1-0.6-0.4-1.2-0.9-1.7c-0.7-0.7-1.4-1-2.4-1s-1.7,0.3-2.4,1c-0.7,0.7-1,1.4-1,2.4
					s0.3,1.7,1,2.4c0.7,0.6,1.4,1,2.4,1s1.7-0.3,2.4-1C303.8,442.7,304.1,442.1,304.2,441.5z"/>
				<path class="st1" d="M307.8,432.9v11.8h-0.7v-11.8H307.8z"/>
			</g>
			<g>
				<g>
					<path class="st1" d="M229.5,459.8h0.5l0.6-2.6h1.3l-0.6,2.6h2.6l-0.3,1.3h-2.6l-0.1,0.6h2.6l-0.3,1.3h-2.6l-0.6,2.6h-1.3
						l0.6-2.6h-0.5l-0.6,2.6h-1.3l0.6-2.6h-2.6l0.3-1.3h2.6l0.1-0.6h-2.6l0.3-1.3h2.6l0.6-2.6h1.3L229.5,459.8z M229.7,461.1h-0.5
						l-0.1,0.6h0.5L229.7,461.1z"/>
					<path class="st1" d="M240.4,456.2v10.1h-1.3v-8.4h-1l1.3-1.7H240.4L240.4,456.2z"/>
					<path class="st1" d="M246,464.9c0.2,0.2,0.3,0.4,0.3,0.6c0,0.3-0.1,0.5-0.3,0.7c-0.2,0.2-0.4,0.3-0.6,0.3
						c-0.2,0-0.5-0.1-0.6-0.3c-0.2-0.2-0.3-0.4-0.3-0.7c0-0.3,0.1-0.5,0.3-0.6c0.2-0.2,0.4-0.3,0.6-0.3
						C245.6,464.6,245.8,464.7,246,464.9z"/>
					<path class="st1" d="M252.3,456.2h1.1v6.1h0.9v1.3h-0.9v2.7h-1.3v-2.7H248L252.3,456.2z M252.1,459.2l-1.9,3.1h1.9V459.2z"/>
					<path class="st1" d="M261,456.2v10.1h-1.3v-8.4h-1l1.3-1.7H261L261,456.2z"/>
					<path class="st1" d="M270,456.2v10.1h-1.3v-8.4h-1l1.3-1.7H270L270,456.2z"/>
					<path class="st1" d="M275.6,464.9c0.2,0.2,0.3,0.4,0.3,0.6c0,0.3-0.1,0.5-0.3,0.7c-0.2,0.2-0.4,0.3-0.6,0.3
						c-0.2,0-0.5-0.1-0.6-0.3c-0.2-0.2-0.3-0.4-0.3-0.7c0-0.3,0.1-0.5,0.3-0.6c0.2-0.2,0.4-0.3,0.6-0.3
						C275.2,464.6,275.4,464.7,275.6,464.9z"/>
					<path class="st1" d="M279.3,459c0.2,0,0.5-0.1,0.7-0.1c0.5,0,0.9,0.1,1.4,0.2c1,0.3,1.7,0.9,2.2,1.8c0.3,0.6,0.4,1.1,0.4,1.7
						c0,0.4-0.1,0.7-0.2,1.1c-0.3,1-0.9,1.7-1.8,2.2c-0.5,0.3-1.1,0.4-1.7,0.4c-0.4,0-0.7-0.1-1.1-0.2c-0.8-0.2-1.5-0.7-2-1.5l0.9-1
						c0.5,0.7,1,1.1,1.5,1.3c0.2,0.1,0.5,0.1,0.7,0.1c0.4,0,0.7-0.1,1.1-0.3c0.6-0.3,1-0.8,1.1-1.4c0.1-0.2,0.1-0.5,0.1-0.7
						c0-0.4-0.1-0.7-0.3-1.1c-0.3-0.6-0.8-1-1.4-1.2c-0.3-0.1-0.6-0.1-0.9-0.1c-0.4,0-1,0.1-1.7,0.3l-0.8-0.7l1.1-3.1v-0.5h3.7v1.3
						h-2.6L279.3,459z"/>
					<path class="st1" d="M290.4,456.2v10.1h-1.3v-8.4h-1l1.3-1.7H290.4L290.4,456.2z"/>
					<path class="st1" d="M296.6,459c0.2,0,0.5-0.1,0.7-0.1c0.5,0,0.9,0.1,1.4,0.2c1,0.3,1.7,0.9,2.2,1.8c0.3,0.6,0.4,1.1,0.4,1.7
						c0,0.4-0.1,0.7-0.2,1.1c-0.3,1-0.9,1.7-1.8,2.2c-0.5,0.3-1.1,0.4-1.7,0.4c-0.4,0-0.7-0.1-1.1-0.2c-0.8-0.2-1.5-0.7-2-1.5l0.9-1
						c0.5,0.7,1,1.1,1.5,1.3c0.2,0.1,0.5,0.1,0.7,0.1c0.4,0,0.7-0.1,1.1-0.3c0.6-0.3,1-0.8,1.1-1.4c0.1-0.2,0.1-0.5,0.1-0.7
						c0-0.4-0.1-0.7-0.3-1.1c-0.3-0.6-0.8-1-1.4-1.2c-0.3-0.1-0.6-0.1-0.9-0.1c-0.5,0-1,0.1-1.7,0.3l-0.8-0.7l1.1-3.1v-0.5h3.7v1.3
						h-2.6L296.6,459z"/>
					<path class="st1" d="M246.3,473.5v10.1H245v-8.4h-1l1.3-1.7L246.3,473.5L246.3,473.5z"/>
					<path class="st1" d="M257.3,480.2c0,1-0.4,1.8-1.1,2.5c-0.7,0.7-1.5,1.1-2.5,1.1c-1,0-1.8-0.4-2.5-1.1s-1.1-1.5-1.1-2.5v-3.1
						c0-1,0.4-1.8,1.1-2.5c0.7-0.7,1.5-1.1,2.5-1.1c1,0,1.8,0.4,2.5,1.1c0.7,0.7,1.1,1.5,1.1,2.5V480.2z M256,477.1
						c0-0.6-0.2-1.1-0.7-1.6s-1-0.7-1.6-0.7c-0.6,0-1.1,0.2-1.6,0.7c-0.4,0.4-0.7,1-0.7,1.6v3.1c0,0.6,0.2,1.2,0.7,1.6
						c0.4,0.4,1,0.7,1.6,0.7c0.6,0,1.2-0.2,1.6-0.7c0.4-0.4,0.7-1,0.7-1.6V477.1z"/>
					<path class="st1" d="M265.5,480.2c0,1-0.4,1.8-1.1,2.5c-0.7,0.7-1.5,1.1-2.5,1.1c-1,0-1.8-0.4-2.5-1.1
						c-0.7-0.7-1.1-1.5-1.1-2.5v-3.1c0-1,0.4-1.8,1.1-2.5c0.7-0.7,1.5-1.1,2.5-1.1c1,0,1.8,0.4,2.5,1.1c0.7,0.7,1.1,1.5,1.1,2.5
						V480.2z M264.1,477.1c0-0.6-0.2-1.1-0.7-1.6s-1-0.7-1.6-0.7c-0.6,0-1.1,0.2-1.6,0.7c-0.4,0.4-0.7,1-0.7,1.6v3.1
						c0,0.6,0.2,1.2,0.7,1.6c0.4,0.4,1,0.7,1.6,0.7c0.6,0,1.2-0.2,1.6-0.7c0.4-0.4,0.7-1,0.7-1.6V477.1z"/>
					<path class="st1" d="M268.7,481.9l-1.5,3H266l0.8-3H268.7z"/>
					<path class="st1" d="M277,480.2c0,1-0.4,1.8-1.1,2.5c-0.7,0.7-1.5,1.1-2.5,1.1c-1,0-1.8-0.4-2.5-1.1c-0.7-0.7-1.1-1.5-1.1-2.5
						v-3.1c0-1,0.4-1.8,1.1-2.5c0.7-0.7,1.5-1.1,2.5-1.1c1,0,1.8,0.4,2.5,1.1c0.7,0.7,1.1,1.5,1.1,2.5V480.2z M275.6,477.1
						c0-0.6-0.2-1.1-0.7-1.6c-0.4-0.4-1-0.7-1.6-0.7c-0.6,0-1.1,0.2-1.6,0.7c-0.4,0.4-0.7,1-0.7,1.6v3.1c0,0.6,0.2,1.2,0.7,1.6
						c0.4,0.4,1,0.7,1.6,0.7c0.6,0,1.2-0.2,1.6-0.7c0.4-0.4,0.7-1,0.7-1.6V477.1z"/>
					<path class="st1" d="M280.9,476.3c0.3,0.3,0.5,0.7,0.5,1.2c0,0.5-0.2,0.9-0.5,1.2c-0.3,0.3-0.7,0.5-1.2,0.5
						c-0.5,0-0.9-0.2-1.2-0.5c-0.3-0.3-0.5-0.7-0.5-1.2c0-0.5,0.2-0.9,0.5-1.2c0.3-0.3,0.7-0.5,1.2-0.5
						C280.2,475.8,280.6,475.9,280.9,476.3z M284.9,475.5l-5.8,8.3L278,483l5.8-8.3L284.9,475.5z M279.7,477c-0.1,0-0.2,0-0.3,0.1
						c-0.1,0.1-0.1,0.2-0.1,0.3c0,0.1,0,0.2,0.1,0.3c0.1,0.1,0.2,0.1,0.3,0.1c0.1,0,0.2,0,0.3-0.1s0.1-0.2,0.1-0.3
						c0-0.1,0-0.2-0.1-0.3S279.8,477,279.7,477z M284.4,479.8c0.3,0.3,0.5,0.7,0.5,1.2c0,0.5-0.2,0.9-0.5,1.2
						c-0.3,0.3-0.8,0.5-1.2,0.5c-0.5,0-0.9-0.2-1.2-0.5c-0.3-0.3-0.5-0.8-0.5-1.2c0-0.5,0.2-0.9,0.5-1.2c0.3-0.3,0.7-0.5,1.2-0.5
						C283.7,479.2,284.1,479.4,284.4,479.8z M283.2,480.5c-0.1,0-0.2,0-0.3,0.1c-0.1,0.1-0.1,0.2-0.1,0.3c0,0.1,0,0.2,0.1,0.3
						c0.1,0.1,0.2,0.1,0.3,0.1s0.2,0,0.3-0.1s0.1-0.2,0.1-0.3c0-0.1,0-0.2-0.1-0.3C283.4,480.6,283.3,480.5,283.2,480.5z"/>
				</g>
			</g>
		</g>
	</g>
	<g>
		<g>
			<path class="st2" d="M834.7,264.4H828v-4h6.7V264.4z M821.3,264.4h-6.7v-4h6.7V264.4z M807.9,264.4h-6.7v-4h6.7V264.4z
				 M794.5,264.4h-6.7v-4h6.7V264.4z M781.1,264.4h-6.7v-4h6.7V264.4z M767.7,264.4H761v-4h6.7V264.4z M754.3,264.4h-6.7v-4h6.7
				V264.4z M740.9,264.4h-6.7v-4h6.7V264.4z M727.5,264.4h-6.7v-4h6.7V264.4z M714.1,264.4h-6.7v-4h6.7V264.4z M700.7,264.4h-6.7v-4
				h6.7V264.4z M687.2,264.4h-6.7v-4h6.7V264.4z M673.8,264.4h-6.7v-4h6.7V264.4z M660.4,264.4h-6.7v-4h6.7V264.4z M647,264.4h-6.7
				v-4h6.7V264.4z M633.6,264.4h-6.7v-4h6.7V264.4z M620.2,264.4h-6.7v-4h6.7V264.4z M606.8,264.4h-6.7v-4h6.7V264.4z M593.4,264.4
				h-6.7v-4h6.7V264.4z M580,264.4h-6.7v-4h6.7V264.4z M566.6,264.4h-6.7v-4h6.7V264.4z M553.2,264.4h-6.7v-4h6.7V264.4z
				 M539.8,264.4H533v-4h6.7V264.4z M526.3,264.4h-6.7v-4h6.7V264.4z M512.9,264.4h-6.7v-4h6.7V264.4z M499.5,264.4h-6.7v-4h6.7
				V264.4z M486.1,264.4h-6.7v-4h6.7V264.4z M472.7,264.4H466v-4h6.7V264.4z M459.3,264.4h-6.7v-4h6.7V264.4z M445.9,264.4h-6.7v-4
				h6.7V264.4z M432.5,264.4h-6.7v-4h6.7V264.4z M419.1,264.4h-6.7v-4h6.7V264.4z M405.7,264.4H399v-4h6.7V264.4z M392.3,264.4h-6.7
				v-4h6.7V264.4z M378.9,264.4h-6.7v-4h6.7V264.4z M365.4,264.4h-6.7v-4h6.7V264.4z M352,264.4h-6.7v-4h6.7V264.4z M338.6,264.4
				h-6.7v-4h6.7V264.4z M325.2,264.4h-6.7v-4h6.7V264.4z M311.8,264.4h-6.7v-4h6.7V264.4z M298.4,264.4h-6.7v-4h6.7V264.4z
				 M285,264.4h-6.7v-4h6.7V264.4z M271.6,264.4h-6.7v-4h6.7V264.4z"/>
		</g>
		<g>
			<g>
				<path class="st2" d="M279.9,320.5c-33.6,6.9-66.5-14.7-73.4-48.3c-6.9-33.6,14.7-66.5,48.3-73.4c33.6-6.9,66.5,14.7,73.4,48.3
					C335.1,280.7,313.5,313.5,279.9,320.5z"/>
			</g>
			<g>
				<path class="st2" d="M202.4,273.1c-7.4-35.8,15.7-71,51.5-78.4c35.8-7.4,71,15.7,78.4,51.5c7.4,35.8-15.7,71-51.5,78.4
					C244.9,332,209.8,308.9,202.4,273.1z M330.4,246.6c-7.2-34.8-41.4-57.3-76.2-50.1c-34.8,7.2-57.3,41.4-50.1,76.2
					c7.2,34.8,41.4,57.3,76.2,50.1S337.6,281.4,330.4,246.6z"/>
			</g>
			<g>
				<g>
					<path class="st3" d="M267.4,240.6l-5.6-6.8v6.8H257l-0.1-16.2l4,0.3l5.9,7.1l0-7.7l4.7-0.1v16.6H267.4z"/>
					<path class="st3" d="M278.5,240.7c-3.2,0-6.1-2.8-6.1-6c0-3,2.8-5.6,6-5.6c3.2,0,6,2.7,6,5.7
						C284.5,237.9,281.7,240.7,278.5,240.7z M280.6,235c0-1.2-0.9-2.1-2-2.1c-1.2,0-2.1,0.9-2.1,2c0,1.2,0.9,2.2,2.1,2.2
						S280.6,236.2,280.6,235z"/>
					<path class="st3" d="M226.2,252.8c0.5,1.3,1.6,2.1,2.9,2.1v4.5c-0.1,0-0.3,0-0.4,0c-3.2,0-6.2-2.5-6.9-5.8h-0.2v4.1H217
						l0.3-15.4c1.3-0.5,3-0.9,4.4-0.9c4.2,0,7.5,2.7,7.5,6.2C229.2,249.8,228,251.8,226.2,252.8z M221.6,249.2
						c0.2,0.1,0.5,0.1,0.8,0.1c1.3,0,2.2-0.7,2.2-1.8s-0.9-1.9-2-1.9c-0.3,0-0.6,0-0.9,0.1L221.6,249.2z"/>
					<path class="st3" d="M241.3,254.2c-0.5,2.2-2.8,3.9-5.4,3.9c-3.1,0-5.9-2.7-5.9-5.9c0-3.2,2.8-5.7,6.2-5.7
						c3.2,0,5.2,2.3,5.2,6.1l-7.6,0.4c0.4,1.1,1.2,1.7,2.2,1.7c0.9,0,1.7-0.4,2.1-1.2L241.3,254.2z M237.4,250.6
						c-0.1-0.8-0.9-1.3-1.7-1.3c-1,0-1.8,0.6-1.7,1.4L237.4,250.6z"/>
					<path class="st3" d="M245.8,248.1c0.3-1,1.3-1.6,2.7-1.6c3,0,5.5,2.6,5.5,5.8c0,3-2.2,5.4-4.9,5.4c-1,0-1.8-0.3-2.9-1.2
						l0.5,6.8h-4.2v-16.9l3.2,0L245.8,248.1z M248.4,254.3c1.2,0,2-0.8,2-2.1c0-1.3-0.9-2.2-2.1-2.2c-1.2,0-2.1,0.9-2.1,2
						C246.1,253.2,247.2,254.3,248.4,254.3z"/>
					<path class="st3" d="M260.9,258c-3.2,0-6.1-2.8-6.1-6c0-3,2.8-5.6,6-5.6c3.2,0,6,2.7,6,5.7C266.8,255.2,264,258,260.9,258z
						 M262.9,252.3c0-1.2-0.9-2.1-2-2.1c-1.2,0-2.1,0.9-2.1,2c0,1.2,0.9,2.2,2.1,2.2C262.1,254.3,262.9,253.5,262.9,252.3z"/>
					<path class="st3" d="M267.7,246.6h3.8l0,1.7c0.4-1.1,1.5-1.8,2.7-1.8c1,0,2.1,0.5,2.8,1.4l-1.5,3.3c-0.4-0.6-1-0.9-1.7-0.9
						c-1.5,0-2.3,1.5-2.3,4.5v3.2h-3.8V246.6z"/>
					<path class="st3" d="M277.5,246.8h1.7l0.1-2.4l3.4-0.4l0.1,2.7l2.3,0l0.5,3.2h-2.8c0,1,0,2.1,0,2.5c0,1.7,0.4,2.4,1.6,2.4
						c0.7,0,1.1-0.2,1.8-1.1l0.9,3c-0.7,0.9-2,1.4-3.7,1.4c-3.2,0-4.3-1.3-4.3-5.4c0-1,0-1.9,0-2.9l-1.3,0L277.5,246.8z"/>
					<path class="st3" d="M298.9,257.9h-3.7l-0.1-1.4c-0.7,1-1.8,1.5-3.2,1.5c-2.9,0-5.2-2.6-5.2-5.8c0-3.3,2.4-5.7,5.5-5.7
						c1.3,0,2.3,0.4,2.7,1.3l0-1.2h3.4L298.9,257.9z M292.7,254.4c1.1,0,2.1-1.2,2.1-2.5c0-1.1-0.9-2-2-2c-1.2,0-2.3,1-2.3,2.2
						C290.4,253.3,291.5,254.4,292.7,254.4z"/>
					<path class="st3" d="M307.8,257.1c-0.4,0.5-1.2,0.9-2.1,0.9c-3.3,0-6.2-2.7-6.2-5.9c0-2.9,2.3-5.5,4.9-5.5c1.5,0,3,0.8,3.4,1.8
						l0-6.3h4v16.2l-3.8-0.2L307.8,257.1z M307.8,252.5c0-1.3-1-2.2-2.4-2.2c-1.3,0-2.2,0.7-2.2,1.8c0,1.3,1.1,2.4,2.4,2.4
						C306.9,254.5,307.8,253.7,307.8,252.5z"/>
					<path class="st3" d="M318.7,258c-3.2,0-6.1-2.8-6.1-6c0-3,2.8-5.6,6-5.6c3.2,0,6,2.7,6,5.7C324.7,255.2,321.9,258,318.7,258z
						 M320.8,252.3c0-1.2-0.9-2.1-2-2.1c-1.2,0-2.1,0.9-2.1,2c0,1.2,0.9,2.2,2.1,2.2S320.8,253.5,320.8,252.3z"/>
				</g>
			</g>
			<g>
				<path class="st3" d="M227.4,267.5v10.6h-0.6v-10.6H224v-0.6h6.3v0.6H227.4z"/>
				<path class="st3" d="M234.5,270.6c1.1,0,2,0.4,2.7,1.1c0.7,0.8,1.1,1.7,1.1,2.7c0,1.1-0.4,2-1.1,2.7c-0.7,0.8-1.7,1.1-2.7,1.1
					c-1.1,0-2-0.4-2.7-1.1s-1.1-1.7-1.1-2.7c0-1.1,0.4-2,1.1-2.7C232.6,271,233.5,270.6,234.5,270.6z M232.3,272.2
					c-0.6,0.6-0.9,1.4-0.9,2.2c0,0.9,0.3,1.6,0.9,2.2c0.6,0.6,1.4,0.9,2.2,0.9s1.6-0.3,2.2-0.9s0.9-1.4,0.9-2.2s-0.3-1.6-0.9-2.2
					s-1.4-0.9-2.2-0.9S232.9,271.6,232.3,272.2z"/>
				<path class="st3" d="M241,271.2v-2.9h0.6v2.9h1.4v0.6h-1.4v6.2H241v-6.2h-1.4v-0.6H241z"/>
				<path class="st3" d="M252.1,278.1h-0.6v-1.4c-0.1,0.2-0.3,0.3-0.4,0.5c-0.8,0.8-1.7,1.1-2.7,1.1c-1.1,0-2-0.4-2.7-1.1
					c-0.8-0.8-1.1-1.7-1.1-2.7c0-1.1,0.4-2,1.1-2.7c0.8-0.8,1.7-1.1,2.7-1.1c1.1,0,2,0.4,2.7,1.1c0.1,0.1,0.3,0.3,0.4,0.5v-1h0.6
					V278.1z M251.5,275.1v-1.2c-0.1-0.6-0.4-1.2-0.9-1.6c-0.6-0.6-1.4-0.9-2.2-0.9c-0.9,0-1.6,0.3-2.2,0.9c-0.6,0.6-0.9,1.4-0.9,2.2
					c0,0.9,0.3,1.6,0.9,2.2c0.6,0.6,1.4,0.9,2.2,0.9c0.9,0,1.6-0.3,2.2-0.9C251.1,276.2,251.4,275.7,251.5,275.1z"/>
				<path class="st3" d="M254.9,266.9v11.2h-0.6v-11.2L254.9,266.9L254.9,266.9z"/>
				<path class="st3" d="M268.7,276.7c-0.1,0.1-0.2,0.3-0.4,0.4c-0.8,0.8-1.7,1.1-2.7,1.1c-1.1,0-2-0.4-2.7-1.1
					c-0.8-0.8-1.1-1.7-1.1-2.7c0-1.1,0.4-2,1.1-2.7c0.8-0.7,1.7-1.1,2.7-1.1c1.1,0,2,0.4,2.7,1.1c0.1,0.1,0.3,0.3,0.4,0.5v-1h0.6
					v5.3c0,1-0.4,1.9-1.1,2.6c-0.8,0.8-1.7,1.1-2.7,1.1c-1.1,0-2-0.4-2.7-1.1c-0.2-0.2-0.3-0.3-0.4-0.5l0.7-0.2
					c0.1,0.1,0.1,0.2,0.2,0.2c0.6,0.6,1.4,0.9,2.2,0.9c0.9,0,1.6-0.3,2.2-0.9C268.3,278.2,268.6,277.5,268.7,276.7z M268.7,273.8
					c-0.1-0.6-0.4-1.1-0.9-1.6c-0.6-0.6-1.4-0.9-2.2-0.9s-1.6,0.3-2.2,0.9s-0.9,1.4-0.9,2.2c0,0.9,0.3,1.6,0.9,2.2s1.4,0.9,2.2,0.9
					s1.6-0.3,2.2-0.9c0.5-0.5,0.7-1,0.9-1.6V273.8z"/>
				<path class="st3" d="M272.8,276.8c0.6,0.5,1.3,0.8,2.1,0.8c0.9,0,1.6-0.3,2.2-0.9c0.1-0.1,0.2-0.2,0.2-0.2l0.7,0.2
					c-0.1,0.2-0.3,0.3-0.4,0.5c-0.8,0.8-1.7,1.1-2.7,1.1c-1.1,0-2-0.4-2.7-1.1c-0.8-0.8-1.1-1.7-1.1-2.7c0-1.1,0.4-2,1.1-2.7
					c0.8-0.8,1.7-1.1,2.7-1.1c0.9,0,1.7,0.3,2.4,0.8c0.1,0.1,0.2,0.2,0.3,0.3c0,0,0.1,0.1,0.1,0.1l-0.5,0.5L272.8,276.8z
					 M276.8,271.9c-0.5-0.4-1.2-0.6-1.9-0.6c-0.9,0-1.6,0.3-2.2,0.9c-0.6,0.6-0.9,1.4-0.9,2.2c0,0.7,0.2,1.4,0.6,1.9L276.8,271.9z"
					/>
				<path class="st3" d="M280.3,272.8v5.3h-0.6v-6.9h0.6v0.4c0.6-0.6,1.2-0.9,2-0.9c0.8,0,1.5,0.3,2,0.8c0.5,0.5,0.8,1.1,0.8,1.9
					v4.6h-0.6v-4.5c0-0.6-0.2-1.1-0.6-1.5c-0.4-0.4-0.9-0.6-1.5-0.6s-1.1,0.2-1.5,0.6C280.6,272.3,280.4,272.5,280.3,272.8z"/>
				<path class="st3" d="M288.5,276.8c0.6,0.5,1.3,0.8,2.1,0.8c0.9,0,1.6-0.3,2.2-0.9c0.1-0.1,0.2-0.2,0.2-0.2l0.7,0.2
					c-0.1,0.2-0.3,0.3-0.4,0.5c-0.8,0.8-1.7,1.1-2.7,1.1c-1.1,0-2-0.4-2.7-1.1s-1.1-1.7-1.1-2.7c0-1.1,0.4-2,1.1-2.7
					c0.8-0.8,1.7-1.1,2.7-1.1c0.9,0,1.7,0.3,2.4,0.8c0.1,0.1,0.2,0.2,0.3,0.3c0,0,0.1,0.1,0.1,0.1l-0.5,0.5L288.5,276.8z
					 M292.5,271.9c-0.5-0.4-1.2-0.6-1.9-0.6c-0.9,0-1.6,0.3-2.2,0.9c-0.6,0.6-0.9,1.4-0.9,2.2c0,0.7,0.2,1.4,0.6,1.9L292.5,271.9z"
					/>
				<path class="st3" d="M295.4,271.2h0.6v1.3c0.1-0.2,0.3-0.4,0.5-0.5c0.6-0.6,1.1-0.8,1.7-0.9v0.7c-0.4,0-0.8,0.2-1.2,0.7
					c-0.6,0.6-0.9,1.3-0.9,2.1v3.5h-0.6V271.2z"/>
				<path class="st3" d="M307,278.1h-0.6v-1.4c-0.1,0.2-0.3,0.3-0.4,0.5c-0.8,0.8-1.7,1.1-2.7,1.1c-1.1,0-2-0.4-2.7-1.1
					c-0.8-0.8-1.1-1.7-1.1-2.7c0-1.1,0.4-2,1.1-2.7c0.8-0.8,1.7-1.1,2.7-1.1c1.1,0,2,0.4,2.7,1.1c0.1,0.1,0.3,0.3,0.4,0.5v-1h0.6
					V278.1z M306.4,275.1v-1.2c-0.1-0.6-0.4-1.2-0.9-1.6c-0.6-0.6-1.4-0.9-2.2-0.9c-0.9,0-1.6,0.3-2.2,0.9c-0.6,0.6-0.9,1.4-0.9,2.2
					c0,0.9,0.3,1.6,0.9,2.2c0.6,0.6,1.4,0.9,2.2,0.9c0.9,0,1.6-0.3,2.2-0.9C306,276.2,306.3,275.7,306.4,275.1z"/>
				<path class="st3" d="M309.8,266.9v11.2h-0.6v-11.2L309.8,266.9L309.8,266.9z"/>
			</g>
			<g>
				<g>
					<path class="st3" d="M250.3,291.8h0.5l0.6-2.5h1.3l-0.6,2.5h2.5l-0.3,1.2h-2.5l-0.1,0.5h2.5l-0.3,1.2h-2.5l-0.6,2.5h-1.3
						l0.6-2.5h-0.5l-0.6,2.5h-1.3l0.6-2.5h-2.5l0.3-1.2h2.5l0.1-0.5h-2.5l0.3-1.2h2.5l0.6-2.5h1.3L250.3,291.8z M250.5,293.1H250
						l-0.1,0.5h0.5L250.5,293.1z"/>
					<path class="st3" d="M260.7,292.1c-1,1.1-1.8,2.1-2.3,2.8c-0.5,0.8-0.8,1.8-0.9,3.1h-1.3c0-1.6,0.4-2.9,1-3.7
						c0.6-0.9,1.4-1.8,2.2-2.7c0.9-1,1.3-1.6,1.4-1.9h-4.6v-1.2h6C262.2,289.7,261.7,291,260.7,292.1z"/>
					<path class="st3" d="M265.2,296.6c0.2,0.2,0.3,0.4,0.3,0.6c0,0.2-0.1,0.5-0.3,0.6c-0.2,0.2-0.4,0.3-0.6,0.3
						c-0.2,0-0.4-0.1-0.6-0.3s-0.3-0.4-0.3-0.6c0-0.2,0.1-0.4,0.3-0.6s0.4-0.3,0.6-0.3C264.8,296.4,265,296.5,265.2,296.6z"/>
					<path class="st3" d="M273.3,294.8c0,0.9-0.3,1.7-1,2.4c-0.7,0.7-1.5,1-2.4,1c-0.9,0-1.7-0.3-2.4-1c-0.7-0.7-1-1.5-1-2.4v-2.9
						c0-0.9,0.3-1.7,1-2.4c0.7-0.7,1.5-1,2.4-1c0.9,0,1.7,0.3,2.4,1c0.7,0.7,1,1.5,1,2.4V294.8z M272.1,291.8c0-0.6-0.2-1.1-0.6-1.5
						c-0.4-0.4-0.9-0.6-1.5-0.6c-0.6,0-1.1,0.2-1.5,0.6c-0.4,0.4-0.6,0.9-0.6,1.5v2.9c0,0.6,0.2,1.1,0.6,1.5
						c0.4,0.4,0.9,0.6,1.5,0.6c0.6,0,1.1-0.2,1.5-0.6c0.4-0.4,0.6-0.9,0.6-1.5V291.8z"/>
					<path class="st3" d="M279.2,292.1c-1,1.1-1.8,2.1-2.3,2.8c-0.5,0.8-0.8,1.8-0.9,3.1h-1.3c0-1.6,0.4-2.9,1-3.7
						c0.6-0.9,1.4-1.8,2.2-2.7c0.9-1,1.3-1.6,1.4-1.9h-4.6v-1.2h6C280.7,289.7,280.2,291,279.2,292.1z"/>
					<path class="st3" d="M284.1,292.1c0.4-0.4,0.9-0.6,1.8-0.6c0.8,0,1.5,0.3,2.1,0.8c0.7,0.7,1,1.5,1,2.4c0,0.9-0.3,1.7-1,2.4
						s-1.5,1-2.4,1c-0.9,0-1.7-0.3-2.4-1c-0.6-0.6-1-1.5-1-2.7v0c0-1.1,0.3-2.1,0.9-3c0.6-0.9,1.4-1.9,2.5-3.1h1.6
						C285.7,289.9,284.7,291.2,284.1,292.1z M283.4,294.8c0,0.6,0.2,1.1,0.6,1.5s0.9,0.6,1.5,0.6c0.6,0,1.1-0.2,1.5-0.6
						c0.4-0.4,0.6-0.9,0.6-1.5s-0.2-1.1-0.6-1.5c-0.4-0.4-0.9-0.6-1.5-0.6c-0.6,0-1.1,0.2-1.5,0.6
						C283.6,293.7,283.4,294.2,283.4,294.8z"/>
					<path class="st3" d="M261.3,311.2c0,0.9-0.3,1.7-1,2.4c-0.7,0.7-1.5,1-2.4,1c-0.9,0-1.7-0.3-2.4-1c-0.7-0.7-1-1.5-1-2.4v-2.9
						c0-0.9,0.3-1.7,1-2.4c0.7-0.7,1.5-1,2.4-1c0.9,0,1.7,0.3,2.4,1c0.7,0.7,1,1.5,1,2.4V311.2z M260,308.3c0-0.6-0.2-1.1-0.6-1.5
						c-0.4-0.4-0.9-0.6-1.5-0.6c-0.6,0-1.1,0.2-1.5,0.6c-0.4,0.4-0.6,0.9-0.6,1.5v2.9c0,0.6,0.2,1.1,0.6,1.5
						c0.4,0.4,0.9,0.6,1.5,0.6c0.6,0,1.1-0.2,1.5-0.6c0.4-0.4,0.6-0.9,0.6-1.5V308.3z"/>
					<path class="st3" d="M264.4,312.8l-1.4,2.9h-1.2l0.8-2.9H264.4z"/>
					<path class="st3" d="M267.7,307.5c0.2,0,0.5-0.1,0.7-0.1c0.4,0,0.9,0.1,1.3,0.2c0.9,0.3,1.6,0.9,2.1,1.8
						c0.3,0.5,0.4,1.1,0.4,1.6c0,0.3-0.1,0.7-0.2,1c-0.3,0.9-0.9,1.6-1.7,2.1c-0.5,0.3-1.1,0.4-1.6,0.4c-0.4,0-0.7-0.1-1.1-0.2
						c-0.7-0.2-1.4-0.7-1.9-1.5l0.9-1c0.4,0.7,0.9,1.1,1.4,1.2c0.2,0.1,0.5,0.1,0.7,0.1c0.4,0,0.7-0.1,1-0.3
						c0.5-0.3,0.9-0.7,1.1-1.3c0.1-0.2,0.1-0.5,0.1-0.7c0-0.3-0.1-0.7-0.3-1c-0.3-0.6-0.7-0.9-1.3-1.1c-0.3-0.1-0.5-0.1-0.9-0.1
						c-0.4,0-1,0.1-1.6,0.3l-0.8-0.7l1.1-3v-0.5h3.5v1.2h-2.5L267.7,307.5z"/>
					<path class="st3" d="M276.1,307.5c0.3,0.3,0.5,0.7,0.5,1.2s-0.2,0.8-0.5,1.2c-0.3,0.3-0.7,0.5-1.2,0.5c-0.5,0-0.8-0.2-1.2-0.5
						c-0.3-0.3-0.5-0.7-0.5-1.2s0.2-0.8,0.5-1.2c0.3-0.3,0.7-0.5,1.2-0.5C275.4,307,275.8,307.2,276.1,307.5z M279.9,306.7l-5.5,7.9
						l-1-0.7l5.5-7.9L279.9,306.7z M275,308.2c-0.1,0-0.2,0-0.3,0.1s-0.1,0.2-0.1,0.3c0,0.1,0,0.2,0.1,0.3s0.2,0.1,0.3,0.1
						c0.1,0,0.2,0,0.3-0.1s0.1-0.2,0.1-0.3c0-0.1,0-0.2-0.1-0.3C275.2,308.3,275.1,308.2,275,308.2z M279.5,310.8
						c0.3,0.3,0.5,0.7,0.5,1.2c0,0.5-0.2,0.9-0.5,1.2c-0.3,0.3-0.7,0.5-1.2,0.5c-0.5,0-0.8-0.2-1.2-0.5c-0.3-0.3-0.5-0.7-0.5-1.2
						c0-0.5,0.2-0.8,0.5-1.2s0.7-0.5,1.2-0.5C278.8,310.3,279.2,310.5,279.5,310.8z M278.3,311.5c-0.1,0-0.2,0-0.3,0.1
						s-0.1,0.2-0.1,0.3c0,0.1,0,0.2,0.1,0.3s0.2,0.1,0.3,0.1c0.1,0,0.2,0,0.3-0.1c0.1-0.1,0.1-0.2,0.1-0.3c0-0.1,0-0.2-0.1-0.3
						C278.5,311.6,278.4,311.5,278.3,311.5z"/>
				</g>
			</g>
		</g>
		<g>
			<g>
				<path class="st2" d="M419.6,309.4c-23.8,4.9-47.1-10.4-52-34.2c-4.9-23.8,10.4-47.1,34.2-52c23.8-4.9,47.1,10.4,52,34.2
					C458.7,281.1,443.4,304.4,419.6,309.4z"/>
			</g>
			<g>
				<path class="st2" d="M360.7,276.6c-5.6-27.3,12-54,39.2-59.6c27.3-5.6,54,12,59.6,39.2c5.6,27.3-12,54-39.2,59.6
					C393.1,321.4,366.4,303.8,360.7,276.6z M457.2,256.6c-5.4-26-30.9-42.7-56.8-37.4c-26,5.4-42.7,30.9-37.4,56.8
					c5.4,26,30.9,42.7,56.8,37.4C445.9,308.1,462.6,282.6,457.2,256.6z"/>
			</g>
			<g>
				<path class="st2" d="M362,213.4l0.7,0.7l-5.1,4.9l5.3,5.5l5.1-4.9l0.7,0.7l-5.1,4.9l6,6.3l-0.7,0.7L356.2,219L362,213.4z"/>
				<path class="st2" d="M377.5,222.1c1.3,0.2,2.5,0,3.7-0.7c1.2-0.8,2-1.9,2.3-3.3c0-0.2,0.1-0.4,0.1-0.5l1.1-0.2
					c0,0.3-0.1,0.7-0.2,1c-0.4,1.7-1.3,3-2.8,4c-1.5,0.9-3.1,1.2-4.8,0.8s-3-1.3-4-2.8c-0.9-1.5-1.2-3.1-0.8-4.8s1.3-3,2.8-3.9
					c1.3-0.8,2.6-1.1,4-0.9c0.2,0,0.5,0.1,0.7,0.1c0.1,0,0.2,0,0.3,0.1l-0.2,1.1L377.5,222.1z M378.8,211.8
					c-1.1-0.1-2.2,0.2-3.2,0.8c-1.2,0.8-2,1.8-2.3,3.2c-0.3,1.4-0.1,2.7,0.7,3.9c0.6,1,1.5,1.7,2.5,2.1L378.8,211.8z"/>
				<path class="st2" d="M385,207.4l1-0.3l0.1,0.3c0.4-0.8,1.1-1.3,1.9-1.6c0.9-0.3,1.7-0.2,2.6,0.2c0.2,0.1,0.4,0.3,0.6,0.4
					c0.1-0.2,0.2-0.5,0.3-0.7c0.4-0.8,1.1-1.4,2-1.6c0.9-0.3,1.7-0.2,2.6,0.2c0.8,0.4,1.3,1,1.6,1.9l2.6,8.4l-1,0.3l-2.6-8.4l0,0
					c-0.2-0.6-0.6-1-1.1-1.3c-0.6-0.3-1.2-0.4-1.8-0.2c-0.6,0.2-1.1,0.6-1.4,1.1c-0.3,0.6-0.4,1.2-0.2,1.8l2.5,8.2l-1,0.3l-2.6-8.4
					l0,0c-0.2-0.6-0.6-1-1.1-1.3c-0.6-0.3-1.2-0.4-1.8-0.2s-1.1,0.6-1.4,1.1c-0.3,0.5-0.3,1-0.2,1.6l2.6,8.4l-1,0.3L385,207.4z"/>
				<path class="st2" d="M405.6,212c1,0.9,2.2,1.3,3.5,1.2c1.4-0.1,2.7-0.6,3.6-1.7c0.1-0.1,0.2-0.3,0.4-0.4l1.1,0.4
					c-0.2,0.3-0.4,0.6-0.6,0.8c-1.2,1.3-2.7,2-4.4,2c-1.7,0.1-3.3-0.5-4.5-1.7s-2-2.7-2-4.4c-0.1-1.7,0.5-3.3,1.7-4.5
					c1.2-1.3,2.7-2,4.4-2c1.5-0.1,2.8,0.3,4,1.2c0.2,0.1,0.4,0.3,0.6,0.5c0.1,0.1,0.1,0.1,0.2,0.2l-0.8,0.8L405.6,212z M411.9,203.6
					c-0.9-0.7-2-1-3.2-0.9c-1.4,0.1-2.6,0.6-3.6,1.7c-1,1.1-1.4,2.3-1.4,3.8c0,1.2,0.4,2.2,1.2,3.1L411.9,203.6z"/>
				<path class="st2" d="M419.6,205.7l-1.7,8.6l-1-0.2l2.1-11.1l1,0.2l-0.1,0.7c1.1-0.7,2.3-1,3.5-0.8c1.3,0.3,2.3,0.9,3,1.8
					c0.7,1,0.9,2.1,0.7,3.4l-1.4,7.4l-1-0.2l1.4-7.3c0.2-0.9,0-1.8-0.6-2.6c-0.6-0.8-1.3-1.3-2.2-1.5c-0.9-0.2-1.8,0-2.6,0.5
					C420.2,205,419.9,205.3,419.6,205.7z"/>
				<path class="st2" d="M433.8,206.7l-3.8,10.7l-1-0.4l3.8-10.7L433.8,206.7z M435.3,203.3c0.1,0.3,0.1,0.5,0,0.8
					c-0.1,0.3-0.3,0.5-0.5,0.6c-0.3,0.1-0.5,0.1-0.8,0c-0.3-0.1-0.5-0.3-0.6-0.5c-0.1-0.3-0.1-0.5,0-0.8c0.1-0.3,0.3-0.5,0.5-0.6
					c0.3-0.1,0.5-0.1,0.8,0C435,202.9,435.2,203,435.3,203.3z"/>
				<path class="st2" d="M438.5,211.3l-4.2,7.7l-0.9-0.5l5.4-9.9l0.9,0.5l-0.3,0.6c1.3-0.4,2.5-0.3,3.6,0.3c1.2,0.6,1.9,1.5,2.3,2.7
					c0.3,1.1,0.2,2.3-0.4,3.4l-3.6,6.7l-0.9-0.5l3.6-6.6c0.5-0.8,0.5-1.7,0.3-2.7c-0.3-0.9-0.9-1.6-1.7-2.1s-1.7-0.6-2.6-0.3
					C439.3,210.8,438.9,211.1,438.5,211.3z"/>
				<path class="st2" d="M456.5,219.2c1.3,1.2,2,2.6,2.1,4.4s-0.5,3.3-1.6,4.6c-1.2,1.3-2.6,2-4.4,2.1c-1.7,0.1-3.3-0.5-4.6-1.6
					c-1.3-1.2-2-2.6-2.1-4.4c-0.1-1.7,0.5-3.3,1.6-4.6c1.2-1.3,2.6-2,4.4-2.1C453.7,217.5,455.2,218.1,456.5,219.2z M452,218.7
					c-1.4,0.1-2.6,0.6-3.6,1.7c-1,1.1-1.4,2.3-1.3,3.8c0.1,1.4,0.6,2.6,1.7,3.6c1.1,1,2.3,1.4,3.8,1.4c1.4-0.1,2.6-0.6,3.6-1.7
					c1-1.1,1.4-2.3,1.3-3.8c-0.1-1.4-0.6-2.6-1.7-3.6S453.4,218.6,452,218.7z"/>
			</g>
			<g>
				<g>
					<path class="st3" d="M388.2,254.9h0.6l0.7-3h1.5l-0.7,3h3l-0.4,1.5h-3l-0.2,0.6h3l-0.4,1.5h-3l-0.7,3h-1.5l0.7-3h-0.6l-0.7,3
						h-1.5l0.8-3h-3l0.4-1.5h3l0.2-0.6h-3l0.4-1.5h3l0.7-3h1.5L388.2,254.9z M388.4,256.4h-0.6l-0.2,0.6h0.6L388.4,256.4z"/>
					<path class="st3" d="M400.8,250.7v11.7h-1.5v-9.7h-1.1l1.5-2H400.8z"/>
					<path class="st3" d="M407.2,260.7c0.2,0.2,0.3,0.5,0.3,0.7c0,0.3-0.1,0.6-0.3,0.8c-0.2,0.2-0.5,0.3-0.8,0.3
						c-0.3,0-0.5-0.1-0.7-0.3s-0.3-0.5-0.3-0.8c0-0.3,0.1-0.5,0.3-0.7c0.2-0.2,0.5-0.3,0.7-0.3C406.8,260.4,407,260.5,407.2,260.7z"
						/>
					<path class="st3" d="M411.5,253.9c0.3-0.1,0.6-0.1,0.9-0.1c0.5,0,1.1,0.1,1.6,0.3c1.1,0.4,2,1.1,2.5,2.1c0.3,0.6,0.5,1.3,0.5,2
						c0,0.4-0.1,0.8-0.2,1.3c-0.3,1.1-1,2-2.1,2.5c-0.6,0.3-1.3,0.5-2,0.5c-0.4,0-0.9-0.1-1.3-0.2c-0.9-0.3-1.7-0.9-2.4-1.8l1.1-1.2
						c0.5,0.8,1.1,1.3,1.7,1.5c0.3,0.1,0.6,0.1,0.8,0.1c0.4,0,0.8-0.1,1.3-0.3c0.7-0.4,1.1-0.9,1.3-1.6c0.1-0.3,0.1-0.6,0.1-0.8
						c0-0.4-0.1-0.8-0.3-1.3c-0.4-0.7-0.9-1.1-1.6-1.4c-0.3-0.1-0.7-0.2-1.1-0.2c-0.5,0-1.2,0.1-2,0.4l-0.9-0.8l1.3-3.6v-0.6h4.3
						v1.5h-3L411.5,253.9z"/>
					<path class="st3" d="M424.4,257.9c-0.4,0.5-1.2,0.7-2.2,0.7c-1,0-1.8-0.3-2.5-1c-0.8-0.8-1.2-1.8-1.2-2.9
						c0-1.1,0.4-2.1,1.2-2.9c0.8-0.8,1.8-1.2,2.9-1.2c1.1,0,2.1,0.4,2.9,1.2c0.8,0.8,1.2,1.9,1.2,3.3v0c0,1.4-0.4,2.6-1.1,3.6
						c-0.8,1.1-1.8,2.3-3,3.7h-2C422.4,260.6,423.6,259.1,424.4,257.9z M425.3,254.7c0-0.7-0.3-1.3-0.8-1.8
						c-0.5-0.5-1.1-0.8-1.8-0.8c-0.7,0-1.3,0.3-1.8,0.8c-0.5,0.5-0.8,1.1-0.8,1.8s0.3,1.3,0.8,1.8c0.5,0.5,1.1,0.8,1.8,0.8
						c0.7,0,1.3-0.3,1.8-0.8C425,256,425.3,255.4,425.3,254.7z"/>
					<path class="st3" d="M432,262.6c-1.2,0-2.2-0.4-2.9-1.1c-0.7-0.7-1.1-1.6-1.1-2.6c0-1.2,0.7-2.4,2.1-3.4c-0.7-0.7-1-1.4-1-2.2
						c0-0.7,0.3-1.4,0.8-1.9c0.5-0.5,1.2-0.8,2-0.8h0.2c0.8,0,1.4,0.3,2,0.8c0.5,0.5,0.8,1.2,0.8,1.9c0,0.8-0.4,1.5-1.1,2.2
						c1.4,1,2.1,2.1,2.1,3.4c0,1-0.4,1.9-1.1,2.6C434.2,262.2,433.2,262.6,432,262.6z M432,261c0.8,0,1.4-0.2,1.8-0.6
						c0.4-0.4,0.6-0.9,0.6-1.5c0-0.6-0.2-1.1-0.6-1.6c-0.4-0.4-1-0.8-1.8-0.9c-0.8,0.2-1.4,0.5-1.8,0.9c-0.4,0.4-0.6,1-0.6,1.6
						c0,0.6,0.2,1.1,0.6,1.5C430.7,260.8,431.2,261,432,261z M432,252.1C431.9,252.1,431.9,252.1,432,252.1c-0.4,0-0.7,0.1-0.9,0.3
						c-0.2,0.2-0.4,0.5-0.4,0.9c0,0.3,0.1,0.6,0.4,0.9c0.2,0.3,0.5,0.4,0.7,0.5c0.1,0,0.2,0.1,0.3,0.1c0.1,0,0.2,0,0.3-0.1
						c0.2-0.1,0.4-0.2,0.7-0.5c0.2-0.3,0.4-0.6,0.4-0.9c0-0.3-0.1-0.6-0.4-0.9c-0.2-0.2-0.5-0.3-0.9-0.3
						C432.1,252.1,432.1,252.1,432,252.1L432,252.1z"/>
					<path class="st3" d="M401.6,278.4c0,1.1-0.4,2.1-1.2,2.9c-0.8,0.8-1.8,1.2-2.9,1.2c-1.1,0-2.1-0.4-2.9-1.2s-1.2-1.8-1.2-2.9
						v-3.6c0-1.1,0.4-2.1,1.2-2.9c0.8-0.8,1.8-1.2,2.9-1.2c1.1,0,2.1,0.4,2.9,1.2c0.8,0.8,1.2,1.8,1.2,2.9V278.4z M400.1,274.9
						c0-0.7-0.3-1.3-0.8-1.8c-0.5-0.5-1.1-0.8-1.8-0.8c-0.7,0-1.3,0.3-1.8,0.8c-0.5,0.5-0.8,1.1-0.8,1.8v3.6c0,0.7,0.3,1.3,0.8,1.8
						c0.5,0.5,1.1,0.8,1.8,0.8c0.7,0,1.3-0.3,1.8-0.8c0.5-0.5,0.8-1.1,0.8-1.8V274.9z"/>
					<path class="st3" d="M405.4,280.4l-1.7,3.5h-1.4l0.9-3.5H405.4z"/>
					<path class="st3" d="M412.6,270.7v11.7h-1.5v-9.7H410l1.5-2H412.6z"/>
					<path class="st3" d="M420.6,273.9c0.4,0.4,0.6,0.9,0.6,1.4s-0.2,1-0.6,1.4c-0.4,0.4-0.9,0.6-1.4,0.6c-0.6,0-1-0.2-1.4-0.6
						c-0.4-0.4-0.6-0.9-0.6-1.4s0.2-1,0.6-1.4c0.4-0.4,0.9-0.6,1.4-0.6C419.7,273.3,420.2,273.5,420.6,273.9z M425.1,273l-6.7,9.6
						l-1.2-0.9l6.7-9.6L425.1,273z M419.1,274.8c-0.1,0-0.3,0-0.4,0.1s-0.1,0.2-0.1,0.4c0,0.1,0.1,0.3,0.1,0.4
						c0.1,0.1,0.2,0.1,0.4,0.1c0.1,0,0.3,0,0.4-0.1c0.1-0.1,0.2-0.2,0.2-0.4c0-0.1-0.1-0.3-0.2-0.4
						C419.4,274.9,419.3,274.8,419.1,274.8z M424.6,277.9c0.4,0.4,0.6,0.9,0.6,1.4c0,0.6-0.2,1-0.6,1.4c-0.4,0.4-0.9,0.6-1.4,0.6
						c-0.6,0-1-0.2-1.4-0.6c-0.4-0.4-0.6-0.9-0.6-1.4c0-0.6,0.2-1,0.6-1.4c0.4-0.4,0.9-0.6,1.4-0.6
						C423.7,277.4,424.2,277.6,424.6,277.9z M423.2,278.9c-0.1,0-0.3,0-0.4,0.1c-0.1,0.1-0.1,0.2-0.1,0.4c0,0.1,0,0.3,0.1,0.4
						c0.1,0.1,0.2,0.1,0.4,0.1c0.1,0,0.3,0,0.4-0.1s0.2-0.2,0.2-0.4c0-0.1-0.1-0.3-0.2-0.4C423.4,278.9,423.3,278.9,423.2,278.9z"/>
				</g>
			</g>
		</g>
		<g>
			<g>
				<path class="st2" d="M565.2,309.5c-23.8,4.9-47.1-10.4-52-34.2c-4.9-23.8,10.4-47.1,34.2-52c23.8-4.9,47.1,10.4,52,34.2
					C604.4,281.2,589,304.5,565.2,309.5z"/>
			</g>
			<g>
				<path class="st2" d="M506.9,276.6c-5.6-27.3,12-54,39.2-59.6c27.2-5.6,54,12,59.6,39.2c5.6,27.2-12,54-39.2,59.6
					C539.3,321.4,512.5,303.8,506.9,276.6z M603.4,256.6c-5.4-26-30.9-42.7-56.8-37.4c-26,5.4-42.7,30.9-37.4,56.8
					c5.4,26,30.9,42.7,56.8,37.4C592,308.1,608.8,282.6,603.4,256.6z"/>
			</g>
			<g>
				<path class="st2" d="M499.3,219.6l13.4,3.6l-3.5-13.4l0.8-0.8l0,0.1l12.9,13l-0.7,0.7l-11.7-11.8l3.6,13.6l-13.5-3.7l11.7,11.8
					l-0.7,0.7l-12.9-13l-0.1,0L499.3,219.6z"/>
				<path class="st2" d="M536.7,214.9l-0.9,0.5l-1-2.1c-0.1,0.3-0.1,0.7-0.2,1c-0.5,1.7-1.6,2.9-3.2,3.7c-1.6,0.8-3.2,0.9-4.8,0.4
					s-2.9-1.6-3.7-3.1c-0.8-1.6-0.9-3.2-0.4-4.8c0.5-1.7,1.6-2.9,3.1-3.7c1.6-0.8,3.2-0.9,4.8-0.4c0.3,0.1,0.6,0.2,0.9,0.4l-0.7-1.4
					l0.9-0.5L536.7,214.9z M533.5,210.9l-0.9-1.8c-0.6-0.8-1.5-1.4-2.5-1.7c-1.4-0.4-2.7-0.3-4,0.3s-2.2,1.7-2.6,3
					c-0.4,1.4-0.3,2.7,0.3,4c0.7,1.3,1.7,2.2,3,2.6c1.4,0.4,2.7,0.3,4-0.3c1.3-0.7,2.2-1.7,2.6-3
					C533.8,212.9,533.8,211.9,533.5,210.9z"/>
				<path class="st2" d="M541.6,207.7c-1-0.2-1.7-0.5-2.1-0.7c-0.6-0.4-1.1-0.9-1.2-1.7c-0.2-0.7-0.1-1.4,0.3-2.1s0.9-1.1,1.7-1.2
					c0.7-0.2,1.4-0.1,2,0.3c0.6,0.4,0.9,0.8,1.1,1.4l0,0.1l-0.8,0.6c-0.2-0.5-0.5-0.9-0.9-1.1c-0.4-0.2-0.8-0.3-1.2-0.1
					c-0.4,0.1-0.8,0.4-1,0.8c-0.2,0.4-0.3,0.8-0.2,1.3c0.1,0.4,0.4,0.8,0.8,1c0.2,0.1,0.7,0.3,1.4,0.5c1.1,0.3,1.9,0.6,2.4,0.9
					c0.8,0.5,1.3,1.2,1.5,2.1c0.2,0.9,0.1,1.8-0.4,2.6c-0.5,0.8-1.2,1.3-2.1,1.5c-0.9,0.2-1.7,0.1-2.5-0.4s-1.3-1.1-1.5-1.9l0.9-0.5
					c0.2,0.7,0.5,1.1,1.1,1.5c0.6,0.3,1.1,0.4,1.8,0.3c0.6-0.2,1.1-0.5,1.4-1.1c0.3-0.6,0.4-1.1,0.3-1.8c-0.2-0.6-0.5-1.1-1.1-1.4
					C543,208.2,542.4,207.9,541.6,207.7z"/>
				<path class="st2" d="M558.4,208.8l1.1,0.3c-0.2,0.3-0.4,0.6-0.6,0.8c-1.2,1.3-2.6,2-4.4,2.1c-1.7,0.1-3.3-0.5-4.6-1.6
					s-2-2.6-2.1-4.4c-0.1-1.7,0.5-3.3,1.6-4.6c1.2-1.3,2.6-2,4.4-2.1c1.8-0.1,3.3,0.5,4.6,1.6c0.3,0.2,0.5,0.5,0.7,0.8l-1.1,0.5
					c-0.1-0.1-0.3-0.3-0.4-0.4c-1.1-1-2.3-1.4-3.8-1.3c-1.4,0.1-2.6,0.6-3.6,1.7c-1,1.1-1.4,2.3-1.4,3.8c0.1,1.4,0.6,2.7,1.7,3.6
					c1.1,1,2.3,1.4,3.8,1.4c1.4-0.1,2.6-0.6,3.6-1.7C558.2,209,558.3,208.9,558.4,208.8z"/>
				<path class="st2" d="M566.8,212.7c-1.4-0.3-2.4-0.9-3.1-1.9c-0.7-1-0.9-2.1-0.7-3.4l1.3-6.9l1,0.2l-1.3,6.8
					c-0.2,0.9,0,1.8,0.6,2.6c0.6,0.8,1.3,1.3,2.3,1.5c0.9,0.2,1.8,0,2.6-0.6s1.3-1.3,1.5-2.2l1.3-6.8l1,0.2l-1.3,6.9
					c-0.3,1.2-0.9,2.2-1.8,2.9C569.3,212.8,568.1,213,566.8,212.7z"/>
				<path class="st2" d="M581.6,197.5l-6.1,17.4l-1-0.3l6.1-17.4L581.6,197.5z"/>
				<path class="st2" d="M584.4,206.3l-4.6,10.3l-0.9-0.4l4.6-10.3L584.4,206.3z M586.1,203c0.1,0.3,0.1,0.5,0,0.8
					c-0.1,0.3-0.3,0.4-0.6,0.5c-0.3,0.1-0.5,0.1-0.8,0s-0.4-0.3-0.5-0.6c-0.1-0.3-0.1-0.5,0-0.8c0.1-0.3,0.3-0.4,0.6-0.5
					c0.3-0.1,0.5-0.1,0.8,0C585.8,202.6,586,202.8,586.1,203z"/>
				<path class="st2" d="M588.7,211.3l-4.8,7.4l-0.9-0.6l6.1-9.5l0.9,0.6l-0.4,0.6c1.3-0.3,2.5-0.1,3.5,0.6c1.1,0.7,1.8,1.7,2.1,2.8
					s0,2.3-0.6,3.4l-4.1,6.4l-0.9-0.6l4.1-6.3c0.5-0.8,0.7-1.7,0.5-2.6c-0.2-0.9-0.7-1.7-1.5-2.2c-0.8-0.5-1.7-0.7-2.6-0.5
					C589.6,210.9,589.1,211.1,588.7,211.3z"/>
				<path class="st2" d="M606.1,220.6c1.2,1.3,1.8,2.8,1.7,4.5c0,1.7-0.7,3.2-2,4.4c-1.3,1.2-2.8,1.8-4.5,1.7c-1.7,0-3.2-0.7-4.4-2
					c-1.2-1.3-1.8-2.8-1.7-4.5c0-1.7,0.7-3.2,2-4.4c1.3-1.2,2.8-1.8,4.5-1.7C603.4,218.6,604.9,219.3,606.1,220.6z M601.6,219.7
					c-1.4,0-2.7,0.4-3.7,1.4c-1,1-1.6,2.2-1.6,3.7c0,1.4,0.4,2.7,1.4,3.7c1,1,2.2,1.6,3.7,1.6s2.7-0.4,3.7-1.4c1-1,1.6-2.2,1.6-3.7
					c0-1.4-0.4-2.7-1.4-3.7C604.3,220.3,603.1,219.7,601.6,219.7z"/>
			</g>
			<g>
				<g>
					<path class="st3" d="M534.9,255.8h0.6l0.7-3h1.5l-0.7,3h3l-0.4,1.5h-3l-0.2,0.6h3l-0.4,1.5h-3l-0.7,3h-1.5l0.7-3H534l-0.7,3
						h-1.5l0.8-3h-3l0.4-1.5h3l0.2-0.6h-3l0.4-1.5h3l0.7-3h1.5L534.9,255.8z M535.1,257.3h-0.6l-0.2,0.6h0.6L535.1,257.3z"/>
					<path class="st3" d="M547.2,251.7h1.3v7h1v1.5h-1v3.2H547v-3.2h-4.8L547.2,251.7z M547,255.1l-2.2,3.6h2.2V255.1z"/>
					<path class="st3" d="M553.4,261.6c0.2,0.2,0.3,0.5,0.3,0.7c0,0.3-0.1,0.6-0.3,0.8s-0.5,0.3-0.7,0.3c-0.3,0-0.5-0.1-0.7-0.3
						c-0.2-0.2-0.3-0.5-0.3-0.8c0-0.3,0.1-0.5,0.3-0.7c0.2-0.2,0.5-0.3,0.7-0.3C552.9,261.3,553.2,261.4,553.4,261.6z"/>
					<path class="st3" d="M559.1,263.5c-1.2,0-2.2-0.4-2.9-1.1c-0.7-0.7-1.1-1.6-1.1-2.6c0-1.2,0.7-2.4,2.1-3.4
						c-0.7-0.7-1-1.4-1-2.2c0-0.7,0.3-1.4,0.8-1.9c0.5-0.5,1.2-0.8,2-0.8h0.2c0.8,0,1.4,0.3,2,0.8c0.5,0.5,0.8,1.2,0.8,1.9
						c0,0.8-0.4,1.5-1.1,2.2c1.4,1,2.1,2.1,2.1,3.4c0,1-0.4,1.9-1.1,2.6C561.3,263.1,560.3,263.5,559.1,263.5z M559.1,262
						c0.8,0,1.4-0.2,1.8-0.6c0.4-0.4,0.6-0.9,0.6-1.5c0-0.6-0.2-1.1-0.6-1.6c-0.4-0.4-1-0.8-1.8-0.9c-0.8,0.2-1.4,0.5-1.8,0.9
						c-0.4,0.4-0.6,1-0.6,1.6c0,0.6,0.2,1.1,0.6,1.5C557.8,261.7,558.4,262,559.1,262z M559.1,253.1
						C559.1,253.1,559,253.1,559.1,253.1c-0.4,0-0.7,0.1-0.9,0.3s-0.4,0.5-0.4,0.9c0,0.3,0.1,0.6,0.4,0.9s0.5,0.4,0.7,0.5
						c0.1,0,0.2,0.1,0.3,0.1c0.1,0,0.2,0,0.3-0.1c0.2-0.1,0.4-0.2,0.7-0.5c0.2-0.3,0.4-0.6,0.4-0.9c0-0.3-0.1-0.6-0.4-0.9
						c-0.2-0.2-0.5-0.3-0.9-0.3C559.2,253.1,559.2,253.1,559.1,253.1L559.1,253.1z"/>
					<path class="st3" d="M568.6,263.5c-1.2,0-2.2-0.4-2.9-1.1s-1.1-1.6-1.1-2.6c0-1.2,0.7-2.4,2.1-3.4c-0.7-0.7-1-1.4-1-2.2
						c0-0.7,0.3-1.4,0.8-1.9c0.5-0.5,1.2-0.8,2-0.8h0.2c0.8,0,1.4,0.3,2,0.8s0.8,1.2,0.8,1.9c0,0.8-0.4,1.5-1.1,2.2
						c1.4,1,2.1,2.1,2.1,3.4c0,1-0.4,1.9-1.1,2.6C570.8,263.1,569.8,263.5,568.6,263.5z M568.6,262c0.8,0,1.4-0.2,1.8-0.6
						s0.6-0.9,0.6-1.5c0-0.6-0.2-1.1-0.6-1.6c-0.4-0.4-1-0.8-1.8-0.9c-0.8,0.2-1.4,0.5-1.8,0.9c-0.4,0.4-0.6,1-0.6,1.6
						c0,0.6,0.2,1.1,0.6,1.5S567.8,262,568.6,262z M568.6,253.1C568.5,253.1,568.5,253.1,568.6,253.1c-0.4,0-0.7,0.1-0.9,0.3
						c-0.2,0.2-0.3,0.5-0.3,0.9c0,0.3,0.1,0.6,0.4,0.9c0.2,0.3,0.5,0.4,0.7,0.5c0.1,0,0.2,0.1,0.3,0.1c0.1,0,0.2,0,0.3-0.1
						c0.2-0.1,0.4-0.2,0.7-0.5c0.2-0.3,0.4-0.6,0.4-0.9c0-0.3-0.1-0.6-0.4-0.9c-0.2-0.2-0.5-0.3-0.9-0.3
						C568.7,253.1,568.7,253.1,568.6,253.1L568.6,253.1z"/>
					<path class="st3" d="M576.3,256.1c0.4-0.5,1.2-0.7,2.2-0.7c1,0,1.8,0.3,2.5,1c0.8,0.8,1.2,1.8,1.2,2.9c0,1.1-0.4,2.1-1.2,2.9
						c-0.8,0.8-1.8,1.2-2.9,1.2c-1.1,0-2.1-0.4-2.9-1.2c-0.8-0.8-1.2-1.9-1.2-3.3v0c0-1.4,0.4-2.6,1.1-3.6c0.8-1.1,1.8-2.3,3-3.7h2
						C578.3,253.5,577.1,255,576.3,256.1z M575.5,259.4c0,0.7,0.3,1.3,0.8,1.8c0.5,0.5,1.1,0.8,1.8,0.8c0.7,0,1.3-0.3,1.8-0.8
						c0.5-0.5,0.8-1.1,0.8-1.8s-0.3-1.3-0.8-1.8c-0.5-0.5-1.1-0.8-1.8-0.8c-0.7,0-1.3,0.3-1.8,0.8S575.5,258.7,575.5,259.4z"/>
					<path class="st3" d="M548.4,279.4c0,1.1-0.4,2.1-1.2,2.9c-0.8,0.8-1.8,1.2-2.9,1.2c-1.1,0-2.1-0.4-2.9-1.2
						c-0.8-0.8-1.2-1.8-1.2-2.9v-3.6c0-1.1,0.4-2.1,1.2-2.9c0.8-0.8,1.8-1.2,2.9-1.2c1.1,0,2.1,0.4,2.9,1.2c0.8,0.8,1.2,1.8,1.2,2.9
						V279.4z M546.9,275.8c0-0.7-0.3-1.3-0.8-1.8c-0.5-0.5-1.1-0.8-1.8-0.8c-0.7,0-1.3,0.3-1.8,0.8c-0.5,0.5-0.8,1.1-0.8,1.8v3.6
						c0,0.7,0.3,1.3,0.8,1.8c0.5,0.5,1.1,0.8,1.8,0.8c0.7,0,1.3-0.3,1.8-0.8c0.5-0.5,0.8-1.1,0.8-1.8V275.8z"/>
					<path class="st3" d="M552.2,281.3l-1.7,3.5h-1.4l0.9-3.5H552.2z"/>
					<path class="st3" d="M557.3,277.3l-0.9,0v-1.5c0.7,0,1.1-0.1,1.3-0.1c0.2-0.1,0.4-0.3,0.7-0.5s0.4-0.6,0.4-0.9
						c0-0.3-0.1-0.6-0.4-0.9c-0.2-0.2-0.5-0.3-0.9-0.3c-0.3,0-0.6,0.1-0.8,0.3c-0.1,0.1-0.3,0.4-0.5,0.9l-1.4-0.6
						c0.2-0.7,0.5-1.1,0.8-1.4c0.5-0.5,1.2-0.8,1.9-0.8c0.8,0,1.4,0.3,2,0.8s0.8,1.2,0.8,1.9c0,0.8-0.5,1.5-1.4,2.2
						c0.4,0,0.9,0.3,1.4,0.7c0.7,0.8,1,1.6,1,2.6c0,1-0.4,1.9-1.1,2.6s-1.6,1.1-2.6,1.1c-1,0-1.9-0.4-2.6-1.1
						c-0.6-0.6-0.9-1.4-1.1-2.4l1.5-0.5c0.1,0.9,0.3,1.5,0.7,1.8c0.4,0.4,0.9,0.6,1.5,0.6c0.6,0,1.1-0.2,1.5-0.6
						c0.4-0.4,0.6-0.9,0.6-1.5c0-0.6-0.2-1.1-0.6-1.6C558.8,277.8,558.1,277.5,557.3,277.3z"/>
					<path class="st3" d="M566.5,274.8c0.4,0.4,0.6,0.9,0.6,1.4s-0.2,1-0.6,1.4s-0.9,0.6-1.4,0.6s-1-0.2-1.4-0.6
						c-0.4-0.4-0.6-0.9-0.6-1.4c0-0.6,0.2-1,0.6-1.4c0.4-0.4,0.9-0.6,1.4-0.6C565.6,274.3,566.1,274.5,566.5,274.8z M571.1,273.9
						l-6.7,9.6l-1.2-0.9l6.7-9.6L571.1,273.9z M565.1,275.8c-0.1,0-0.3,0-0.4,0.1c-0.1,0.1-0.1,0.2-0.1,0.4c0,0.1,0,0.3,0.1,0.4
						c0.1,0.1,0.2,0.1,0.4,0.1c0.1,0,0.3,0,0.4-0.1c0.1-0.1,0.2-0.2,0.2-0.4c0-0.1-0.1-0.3-0.2-0.4
						C565.3,275.8,565.2,275.8,565.1,275.8z M570.5,278.9c0.4,0.4,0.6,0.9,0.6,1.4c0,0.6-0.2,1-0.6,1.4c-0.4,0.4-0.9,0.6-1.4,0.6
						c-0.6,0-1-0.2-1.4-0.6c-0.4-0.4-0.6-0.9-0.6-1.4c0-0.6,0.2-1,0.6-1.4c0.4-0.4,0.9-0.6,1.4-0.6
						C569.7,278.3,570.1,278.5,570.5,278.9z M569.1,279.8c-0.1,0-0.3,0-0.4,0.1c-0.1,0.1-0.2,0.2-0.2,0.4c0,0.1,0.1,0.3,0.2,0.4
						c0.1,0.1,0.2,0.1,0.4,0.1c0.1,0,0.3,0,0.4-0.1c0.1-0.1,0.2-0.2,0.2-0.4c0-0.1-0.1-0.3-0.2-0.4S569.2,279.8,569.1,279.8z"/>
				</g>
			</g>
		</g>
		<g>
			<g>
				<path class="st2" d="M705.4,309.5c-23.8,4.9-47.1-10.4-52-34.2c-4.9-23.8,10.4-47.1,34.2-52c23.8-4.9,47.1,10.4,52,34.2
					C744.5,281.3,729.2,304.6,705.4,309.5z"/>
			</g>
			<g>
				<path class="st2" d="M646.6,276.7c-5.6-27.3,12-54,39.2-59.6c27.3-5.6,54,12,59.6,39.2c5.6,27.2-12,54-39.2,59.6
					C678.9,321.5,652.2,303.9,646.6,276.7z M743.1,256.7c-5.4-26-30.9-42.7-56.8-37.4c-26,5.4-42.7,30.9-37.4,56.8
					c5.4,26,30.9,42.7,56.8,37.4C731.7,308.2,748.4,282.7,743.1,256.7z"/>
			</g>
			<g>
				<path class="st2" d="M630.8,231.1l0.6-0.9l18.9,1.2l-13.7-9.1l0.6-0.9l15.4,10.2l-0.6,0.9l-19.1-1.2l13.8,9.2l-0.6,0.9
					L630.8,231.1z"/>
				<path class="st2" d="M650.9,216.1c1.3-1.2,2.8-1.7,4.6-1.6c1.7,0.1,3.2,0.8,4.3,2.1c1.2,1.3,1.7,2.8,1.6,4.6
					c-0.1,1.7-0.8,3.2-2.1,4.3c-1.3,1.2-2.8,1.7-4.6,1.6c-1.7-0.1-3.2-0.8-4.3-2.1c-1.2-1.3-1.7-2.8-1.6-4.6
					C648.9,218.7,649.6,217.2,650.9,216.1z M649.9,220.5c-0.1,1.4,0.3,2.7,1.3,3.8c1,1.1,2.2,1.7,3.6,1.8c1.4,0.1,2.7-0.3,3.8-1.3
					c1.1-1,1.7-2.1,1.8-3.6c0.1-1.4-0.3-2.7-1.3-3.8s-2.2-1.7-3.6-1.8c-1.4-0.1-2.7,0.3-3.8,1.3C650.6,217.8,650,219,649.9,220.5z"
					/>
				<path class="st2" d="M684.8,212.2l-1,0.3l-0.7-2.2c-0.1,0.3-0.2,0.6-0.4,0.9c-0.8,1.6-2,2.6-3.7,3.1c-1.7,0.5-3.3,0.4-4.8-0.4
					c-1.6-0.8-2.6-2-3.1-3.7c-0.5-1.7-0.4-3.3,0.4-4.8c0.8-1.6,2-2.6,3.7-3.1c1.7-0.5,3.3-0.4,4.8,0.4c0.3,0.2,0.6,0.3,0.9,0.5
					l-2.6-8.3l1-0.3L684.8,212.2z M682.3,207.8l-0.6-2c-0.5-0.9-1.2-1.6-2.2-2.1c-1.3-0.7-2.6-0.8-4-0.3s-2.4,1.3-3.1,2.6
					s-0.8,2.6-0.3,4c0.4,1.4,1.3,2.4,2.6,3.1c1.3,0.7,2.6,0.8,4,0.3c1.4-0.4,2.4-1.3,3.1-2.6C682.2,209.8,682.4,208.8,682.3,207.8z"
					/>
				<path class="st2" d="M690.2,209.5c1,0.8,2.2,1.2,3.5,1.2c1.4-0.1,2.6-0.6,3.6-1.7c0.1-0.1,0.2-0.3,0.3-0.4l1.1,0.3
					c-0.2,0.3-0.4,0.6-0.6,0.8c-1.2,1.3-2.6,2-4.4,2.1c-1.7,0.1-3.3-0.5-4.6-1.6c-1.3-1.2-2-2.6-2.1-4.4c-0.1-1.7,0.5-3.3,1.6-4.6
					c1.2-1.3,2.6-2,4.4-2.1c1.5-0.1,2.8,0.3,4,1.2c0.2,0.1,0.4,0.3,0.6,0.5c0.1,0.1,0.1,0.1,0.2,0.2l-0.7,0.8L690.2,209.5z
					 M696.4,201.1c-0.9-0.6-2-0.9-3.2-0.9c-1.4,0.1-2.6,0.6-3.6,1.7s-1.4,2.3-1.3,3.8c0.1,1.2,0.5,2.2,1.2,3.1L696.4,201.1z"/>
				<path class="st2" d="M704.3,201.7l-1.3,10.2l-1-0.1l1.3-10.2l-1.1-0.1l0.1-1l1.1,0.1l0.4-3c0.2-0.8,0.6-1.5,1.2-2.1
					c0.7-0.5,1.5-0.7,2.3-0.6c0.4,0.1,0.9,0.2,1.3,0.4l-0.4,0.9c-0.3-0.2-0.6-0.3-0.9-0.3c-0.5-0.1-1.1,0.1-1.6,0.5
					c-0.5,0.4-0.8,0.8-0.9,1.4l-0.4,3l2.3,0.3l-0.1,1L704.3,201.7z"/>
				<path class="st2" d="M710.7,201.8l-2.4,11.1l-1-0.2l2.4-11.1L710.7,201.8z M711.7,198.2c0.2,0.2,0.2,0.5,0.1,0.8
					c-0.1,0.3-0.2,0.5-0.5,0.7c-0.2,0.2-0.5,0.2-0.8,0.1s-0.5-0.2-0.7-0.4s-0.2-0.5-0.1-0.8c0.1-0.3,0.2-0.5,0.5-0.6
					c0.2-0.2,0.5-0.2,0.8-0.1C711.4,197.8,711.6,197.9,711.7,198.2z"/>
				<path class="st2" d="M716,205.7l-3.2,8.2l-1-0.4l4.1-10.6l1,0.4l-0.3,0.7c1.2-0.5,2.4-0.6,3.6-0.1c1.2,0.5,2.1,1.3,2.6,2.3
					c0.5,1.1,0.5,2.2,0.1,3.4l-2.7,7.1l-1-0.4l2.7-7c0.3-0.9,0.3-1.8-0.1-2.7c-0.4-0.9-1.1-1.5-1.9-1.8c-0.9-0.3-1.8-0.3-2.7,0.1
					C716.7,205.2,716.3,205.4,716,205.7z"/>
				<path class="st2" d="M729.8,209.3l-5.6,9.8l-0.9-0.5l5.6-9.8L729.8,209.3z M731.9,206.2c0.1,0.3,0,0.5-0.1,0.8
					c-0.1,0.3-0.4,0.4-0.6,0.5c-0.3,0.1-0.5,0-0.8-0.1c-0.2-0.1-0.4-0.4-0.5-0.6c-0.1-0.3,0-0.5,0.1-0.8c0.1-0.2,0.4-0.4,0.6-0.5
					c0.3-0.1,0.5,0,0.8,0.1C731.6,205.7,731.8,205.9,731.9,206.2z"/>
				<path class="st2" d="M736.7,228.6l-0.8-0.7l1.5-1.8c-0.3,0.1-0.7,0.1-1,0.2c-1.7,0.1-3.3-0.3-4.6-1.5c-1.3-1.1-2.1-2.6-2.2-4.3
					s0.3-3.3,1.5-4.6c1.1-1.3,2.6-2.1,4.3-2.2s3.3,0.3,4.6,1.5c1.3,1.1,2.1,2.6,2.2,4.3c0,0.3,0,0.7,0,1l5.6-6.7l0.8,0.7
					L736.7,228.6z M739.1,224.1l1.3-1.6c0.5-0.9,0.7-1.9,0.6-3c-0.1-1.4-0.7-2.6-1.8-3.6s-2.4-1.3-3.8-1.2c-1.4,0.1-2.6,0.7-3.6,1.8
					c-0.9,1.1-1.3,2.4-1.2,3.8c0.1,1.4,0.7,2.6,1.8,3.6c1.1,0.9,2.4,1.3,3.8,1.2C737.4,225.2,738.4,224.8,739.1,224.1z"/>
				<path class="st2" d="M752.3,228.8c1,1.4,1.3,3,1,4.7c-0.3,1.7-1.2,3.1-2.7,4.1c-1.4,1-3,1.3-4.7,1c-1.7-0.3-3.1-1.2-4.1-2.6
					c-1-1.4-1.3-3-1-4.7s1.2-3.1,2.6-4.1c1.4-1,3-1.3,4.7-1C750,226.5,751.3,227.4,752.3,228.8z M748,227.3c-1.4-0.3-2.7,0-3.9,0.8
					s-1.9,1.9-2.2,3.4c-0.3,1.4,0,2.7,0.8,3.9c0.8,1.2,1.9,1.9,3.4,2.2c1.4,0.3,2.7,0,3.9-0.8c1.2-0.8,1.9-1.9,2.2-3.4
					c0.3-1.4,0-2.7-0.8-3.9C750.6,228.2,749.4,227.5,748,227.3z"/>
			</g>
			<g>
				<g>
					<path class="st3" d="M690.3,257.1h0.6l0.7-3h1.5l-0.7,3h3l-0.4,1.5h-3l-0.2,0.6h3l-0.4,1.5h-3l-0.7,3h-1.5l0.7-3h-0.6l-0.7,3
						h-1.5l0.8-3h-3l0.4-1.5h3l0.2-0.6h-3l0.4-1.5h3l0.7-3h1.5L690.3,257.1z M690.5,258.6h-0.6l-0.2,0.6h0.6L690.5,258.6z"/>
					<path class="st3" d="M705.2,260.7c0,1.1-0.4,2.1-1.2,2.9c-0.8,0.8-1.8,1.2-2.9,1.2c-1.1,0-2.1-0.4-2.9-1.2
						c-0.8-0.8-1.2-1.8-1.2-2.9v-3.6c0-1.1,0.4-2.1,1.2-2.9c0.8-0.8,1.8-1.2,2.9-1.2c1.1,0,2.1,0.4,2.9,1.2s1.2,1.8,1.2,2.9V260.7z
						 M703.7,257.1c0-0.7-0.3-1.3-0.8-1.8s-1.1-0.8-1.8-0.8c-0.7,0-1.3,0.3-1.8,0.8s-0.8,1.1-0.8,1.8v3.6c0,0.7,0.3,1.3,0.8,1.8
						c0.5,0.5,1.1,0.8,1.8,0.8c0.7,0,1.3-0.3,1.8-0.8s0.8-1.1,0.8-1.8V257.1z"/>
					<path class="st3" d="M687.7,280.7c0,1.1-0.4,2.1-1.2,2.9c-0.8,0.8-1.8,1.2-2.9,1.2c-1.1,0-2.1-0.4-2.9-1.2
						c-0.8-0.8-1.2-1.8-1.2-2.9v-3.6c0-1.1,0.4-2.1,1.2-2.9c0.8-0.8,1.8-1.2,2.9-1.2c1.2,0,2.1,0.4,2.9,1.2s1.2,1.8,1.2,2.9V280.7z
						 M686.2,277.1c0-0.7-0.3-1.3-0.8-1.8s-1.1-0.8-1.8-0.8c-0.7,0-1.3,0.3-1.8,0.8c-0.5,0.5-0.8,1.1-0.8,1.8v3.6
						c0,0.7,0.3,1.3,0.8,1.8c0.5,0.5,1.1,0.8,1.8,0.8c0.7,0,1.3-0.3,1.8-0.8s0.8-1.1,0.8-1.8V277.1z"/>
					<path class="st3" d="M691.5,282.6l-1.7,3.5h-1.4l0.9-3.5H691.5z"/>
					<path class="st3" d="M701.1,280.7c0,1.1-0.4,2.1-1.2,2.9c-0.8,0.8-1.8,1.2-2.9,1.2c-1.1,0-2.1-0.4-2.9-1.2
						c-0.8-0.8-1.2-1.8-1.2-2.9v-3.6c0-1.1,0.4-2.1,1.2-2.9c0.8-0.8,1.8-1.2,2.9-1.2c1.1,0,2.1,0.4,2.9,1.2s1.2,1.8,1.2,2.9V280.7z
						 M699.5,277.1c0-0.7-0.3-1.3-0.8-1.8c-0.5-0.5-1.1-0.8-1.8-0.8c-0.7,0-1.3,0.3-1.8,0.8c-0.5,0.5-0.8,1.1-0.8,1.8v3.6
						c0,0.7,0.3,1.3,0.8,1.8c0.5,0.5,1.1,0.8,1.8,0.8c0.7,0,1.3-0.3,1.8-0.8c0.5-0.5,0.8-1.1,0.8-1.8V277.1z"/>
					<path class="st3" d="M705.6,276.1c0.4,0.4,0.6,0.9,0.6,1.4c0,0.6-0.2,1-0.6,1.4s-0.9,0.6-1.4,0.6c-0.6,0-1-0.2-1.4-0.6
						s-0.6-0.9-0.6-1.4s0.2-1,0.6-1.4s0.9-0.6,1.4-0.6C704.8,275.5,705.2,275.7,705.6,276.1z M710.2,275.2l-6.7,9.6l-1.2-0.9
						l6.7-9.6L710.2,275.2z M704.2,277c-0.1,0-0.3,0-0.4,0.1s-0.1,0.2-0.1,0.4c0,0.1,0,0.3,0.1,0.4c0.1,0.1,0.2,0.1,0.4,0.1
						c0.1,0,0.3,0,0.4-0.1c0.1-0.1,0.2-0.2,0.2-0.4c0-0.1-0.1-0.3-0.2-0.4C704.5,277.1,704.3,277,704.2,277z M709.7,280.2
						c0.4,0.4,0.6,0.9,0.6,1.4c0,0.6-0.2,1-0.6,1.4s-0.9,0.6-1.4,0.6c-0.6,0-1-0.2-1.4-0.6c-0.4-0.4-0.6-0.9-0.6-1.4
						c0-0.6,0.2-1,0.6-1.4c0.4-0.4,0.9-0.6,1.4-0.6C708.8,279.6,709.3,279.8,709.7,280.2z M708.2,281.1c-0.1,0-0.3,0-0.4,0.1
						s-0.1,0.2-0.1,0.4c0,0.1,0,0.3,0.1,0.4c0.1,0.1,0.2,0.1,0.4,0.1s0.3,0,0.4-0.1c0.1-0.1,0.2-0.2,0.2-0.4c0-0.1-0.1-0.3-0.2-0.4
						C708.5,281.1,708.4,281.1,708.2,281.1z"/>
				</g>
			</g>
		</g>
		<g>
			<g>
				<path class="st2" d="M849.3,309.4c-23.8,4.9-47.1-10.4-52-34.2c-4.9-23.8,10.4-47.1,34.2-52c23.8-4.9,47.1,10.4,52,34.2
					C888.5,281.1,873.2,304.4,849.3,309.4z"/>
			</g>
			<g>
				<path class="st2" d="M790.5,276.6c-5.6-27.3,12-54,39.2-59.6c27.2-5.6,54,12,59.6,39.2c5.6,27.2-12,54-39.2,59.6
					C822.9,321.4,796.1,303.8,790.5,276.6z M887,256.6c-5.4-26-30.9-42.7-56.8-37.4c-26,5.4-42.7,30.9-37.4,56.8
					c5.4,26,30.9,42.7,56.8,37.4C875.6,308.1,892.4,282.6,887,256.6z"/>
			</g>
			<g>
				<path class="st2" d="M769.3,245.2l0.4-1.1l18.8-2.7l-15.2-6.1l0.4-1l17.1,6.9l-0.4,1l-18.9,2.7l15.4,6.2l-0.4,1L769.3,245.2z"/>
				<path class="st2" d="M785.9,226.4c1.1-1.4,2.4-2.2,4.2-2.5c1.7-0.2,3.3,0.2,4.7,1.2c1.4,1.1,2.2,2.4,2.5,4.2s-0.2,3.3-1.2,4.7
					c-1.1,1.4-2.4,2.2-4.2,2.5c-1.7,0.2-3.3-0.2-4.7-1.2c-1.4-1.1-2.2-2.4-2.5-4.2S784.9,227.8,785.9,226.4z M785.8,231
					c0.2,1.4,0.9,2.6,2,3.5c1.2,0.9,2.4,1.2,3.9,1c1.4-0.2,2.6-0.9,3.4-2c0.9-1.2,1.2-2.4,1-3.9c-0.2-1.4-0.9-2.6-2-3.4
					c-1.2-0.9-2.4-1.2-3.9-1c-1.4,0.2-2.6,0.9-3.5,2S785.6,229.5,785.8,231z"/>
				<path class="st2" d="M801.6,212.6l0.9-0.6l1.2,1.7c0-0.4,0-0.8,0.1-1.2c0.2-1.3,0.8-2.2,1.5-2.8l0.6,0.9c-0.5,0.4-0.9,1.1-1.1,2
					c-0.3,1.4,0,2.6,0.7,3.8l3.3,4.9l-0.9,0.6L801.6,212.6z"/>
				<path class="st2" d="M814.7,215.4c1.2,0.4,2.5,0.4,3.7-0.2c1.3-0.6,2.3-1.5,2.8-2.9c0.1-0.2,0.1-0.3,0.2-0.5l1.2-0.1
					c-0.1,0.3-0.2,0.7-0.3,1c-0.6,1.6-1.8,2.8-3.4,3.5c-1.6,0.7-3.2,0.7-4.8,0.1c-1.6-0.6-2.8-1.8-3.5-3.4c-0.7-1.6-0.7-3.2-0.1-4.8
					s1.8-2.8,3.4-3.5c1.4-0.6,2.8-0.7,4.1-0.3c0.2,0.1,0.5,0.1,0.7,0.2c0.1,0,0.2,0.1,0.3,0.1l-0.4,1L814.7,215.4z M817.5,205.4
					c-1.1-0.3-2.2-0.2-3.3,0.3c-1.3,0.6-2.2,1.5-2.8,2.9s-0.5,2.7,0.1,4c0.5,1.1,1.2,1.9,2.2,2.5L817.5,205.4z"/>
				<path class="st2" d="M824.2,201.9l1-0.2l0.2,1.6c0.2-0.3,0.3-0.6,0.5-0.9c1-1.4,2.4-2.2,4.1-2.5c1.7-0.3,3.3,0.1,4.7,1.1
					c1.4,1,2.2,2.4,2.5,4.1c0.3,1.7-0.1,3.3-1.1,4.7c-1,1.4-2.4,2.2-4.1,2.5c-1.7,0.3-3.3-0.1-4.7-1.1c-0.3-0.2-0.5-0.4-0.8-0.7
					l1,6.5l-1,0.2L824.2,201.9z M825.9,206l0.3,2.1c0.3,0.9,1,1.7,1.8,2.4c1.2,0.9,2.5,1.2,3.9,0.9c1.4-0.2,2.6-0.9,3.4-2.1
					c0.9-1.2,1.2-2.5,0.9-3.9c-0.2-1.4-0.9-2.6-2.1-3.4s-2.5-1.2-3.9-0.9s-2.6,0.9-3.4,2.1C826.3,204,826,205,825.9,206z"/>
				<path class="st2" d="M848,199.6c1.7,0.2,3.2,1,4.2,2.3c1.1,1.4,1.5,2.9,1.3,4.7c-0.2,1.7-1,3.1-2.3,4.2s-2.9,1.5-4.7,1.4
					c-1.7-0.2-3.1-1-4.2-2.3c-1.1-1.4-1.5-2.9-1.4-4.6c0.2-1.7,1-3.2,2.3-4.3C844.7,199.9,846.3,199.4,848,199.6z M844.1,201.8
					c-1.1,0.9-1.8,2.1-1.9,3.5c-0.2,1.4,0.2,2.7,1.1,3.8c0.9,1.1,2.1,1.8,3.5,1.9c1.4,0.2,2.7-0.2,3.8-1.1c1.1-0.9,1.8-2.1,1.9-3.5
					s-0.2-2.7-1.1-3.8c-0.9-1.1-2.1-1.8-3.5-1.9C846.5,200.6,845.2,200.9,844.1,201.8z"/>
				<path class="st2" d="M858.8,202.8l1,0.3l-0.6,2c0.3-0.2,0.6-0.4,1-0.6c1.1-0.6,2.2-0.8,3.1-0.5l-0.3,1.1c-0.6-0.2-1.4,0-2.3,0.4
					c-1.2,0.6-2.1,1.6-2.5,2.9l-1.7,5.6l-1-0.3L858.8,202.8z"/>
				<path class="st2" d="M868.6,206.4l2.1-4.4l0.9,0.4l-2.1,4.4l2.1,1l-0.4,0.9l-2.1-1l-4.4,9.3l-0.9-0.4l4.4-9.3l-2.1-1l0.4-0.9
					L868.6,206.4z"/>
				<path class="st2" d="M879,226.5l-0.8-0.6l1.4-1.8c-0.3,0.1-0.7,0.2-1,0.2c-1.7,0.2-3.3-0.2-4.7-1.2c-1.4-1.1-2.2-2.4-2.5-4.2
					s0.2-3.3,1.2-4.7c1.1-1.4,2.4-2.2,4.2-2.5c1.7-0.2,3.3,0.2,4.7,1.2c1.4,1.1,2.2,2.4,2.5,4.2c0,0.3,0.1,0.7,0.1,1l1-1.3l0.8,0.6
					L879,226.5z M881.2,221.9l1.2-1.6c0.5-0.9,0.6-1.9,0.5-3c-0.2-1.4-0.9-2.6-2-3.5c-1.2-0.9-2.4-1.2-3.9-1s-2.6,0.9-3.5,2
					c-0.9,1.2-1.2,2.4-1,3.9c0.2,1.4,0.9,2.6,2,3.4s2.4,1.2,3.9,1C879.5,223,880.4,222.6,881.2,221.9z"/>
				<path class="st2" d="M888.8,238.6l-0.6-0.8l1.8-1.4c-0.3,0-0.7,0-1-0.1c-1.7-0.2-3.1-1.1-4.2-2.5c-1.1-1.4-1.5-3-1.2-4.7
					c0.2-1.7,1.1-3.1,2.4-4.2c1.4-1.1,3-1.5,4.7-1.2c1.7,0.2,3.1,1.1,4.2,2.4c1.1,1.4,1.5,3,1.2,4.7c-0.1,0.3-0.1,0.7-0.2,1l7-5.3
					l0.6,0.8L888.8,238.6z M892.1,234.8l1.6-1.2c0.7-0.8,1.1-1.7,1.3-2.8c0.2-1.4-0.1-2.7-1-3.9c-0.9-1.2-2-1.8-3.5-2
					c-1.4-0.2-2.7,0.1-3.9,1c-1.2,0.9-1.8,2-2,3.5c-0.2,1.4,0.1,2.7,1,3.9s2,1.8,3.5,2C890.2,235.4,891.2,235.2,892.1,234.8z"/>
				<path class="st2" d="M903.9,242.2c0.6,1.6,0.6,3.2-0.1,4.8c-0.7,1.6-1.9,2.7-3.5,3.4c-1.6,0.6-3.2,0.6-4.8-0.1
					c-1.6-0.7-2.7-1.8-3.4-3.5c-0.6-1.6-0.6-3.2,0.1-4.8c0.7-1.6,1.8-2.7,3.5-3.4c1.6-0.6,3.2-0.6,4.9,0.1
					C902.1,239.4,903.3,240.6,903.9,242.2z M900.1,239.7c-1.3-0.6-2.7-0.6-4-0.1s-2.3,1.5-2.9,2.8c-0.6,1.3-0.6,2.7,0,4
					c0.5,1.3,1.5,2.3,2.8,2.9s2.7,0.6,4,0.1c1.3-0.5,2.3-1.5,2.9-2.8c0.6-1.3,0.6-2.7,0.1-4C902.3,241.3,901.4,240.3,900.1,239.7z"
					/>
			</g>
			<g>
				<g>
					<path class="st3" d="M828.2,251.8h0.6l0.7-3h1.5l-0.7,3h3l-0.4,1.5h-3l-0.2,0.6h3l-0.4,1.5h-3l-0.7,3h-1.5l0.7-3h-0.6l-0.7,3
						H825l0.8-3h-3l0.4-1.5h3l0.2-0.6h-3l0.4-1.5h3l0.7-3h1.5L828.2,251.8z M828.5,253.3h-0.6l-0.2,0.6h0.6L828.5,253.3z"/>
					<path class="st3" d="M837.6,250.8c0.3-0.1,0.6-0.1,0.9-0.1c0.5,0,1.1,0.1,1.6,0.3c1.1,0.4,2,1.1,2.5,2.1c0.3,0.6,0.5,1.3,0.5,2
						c0,0.4-0.1,0.8-0.2,1.3c-0.3,1.1-1,2-2.1,2.5c-0.6,0.3-1.3,0.5-2,0.5c-0.4,0-0.9-0.1-1.3-0.2c-0.9-0.3-1.7-0.9-2.4-1.8l1.1-1.2
						c0.5,0.8,1.1,1.3,1.7,1.5c0.3,0.1,0.6,0.1,0.8,0.1c0.4,0,0.8-0.1,1.3-0.3c0.7-0.4,1.1-0.9,1.3-1.6c0.1-0.3,0.1-0.6,0.1-0.8
						c0-0.4-0.1-0.8-0.3-1.3c-0.4-0.7-0.9-1.1-1.6-1.4c-0.3-0.1-0.7-0.2-1.1-0.2c-0.5,0-1.2,0.1-2,0.4l-0.9-0.8l1.3-3.6v-0.6h4.3
						v1.5h-3L837.6,250.8z"/>
					<path class="st3" d="M850.4,254.9c-0.4,0.5-1.2,0.7-2.2,0.7c-1,0-1.8-0.3-2.5-1c-0.8-0.8-1.2-1.8-1.2-2.9
						c0-1.1,0.4-2.1,1.2-2.9c0.8-0.8,1.8-1.2,2.9-1.2c1.1,0,2.1,0.4,2.9,1.2c0.8,0.8,1.2,1.9,1.2,3.3v0c0,1.4-0.4,2.6-1.1,3.6
						c-0.8,1.1-1.8,2.3-3,3.7h-2C848.5,257.5,849.7,256,850.4,254.9z M851.3,251.6c0-0.7-0.3-1.3-0.8-1.8s-1.1-0.8-1.8-0.8
						c-0.7,0-1.3,0.3-1.8,0.8c-0.5,0.5-0.8,1.1-0.8,1.8s0.3,1.3,0.8,1.8c0.5,0.5,1.1,0.8,1.8,0.8c0.7,0,1.3-0.3,1.8-0.8
						C851.1,253,851.3,252.4,851.3,251.6z"/>
					<path class="st3" d="M856.1,255.7c0.8-0.6,1.5-1.1,2-1.5c0.6-0.4,1.1-0.9,1.5-1.4s0.7-1,0.7-1.6c0-0.6-0.2-1.1-0.6-1.5
						c-0.4-0.4-0.9-0.6-1.5-0.6c-0.6,0-1.1,0.2-1.5,0.6c-0.4,0.4-0.6,1-0.7,1.8l-1.5-0.5c0.2-1,0.5-1.8,1.1-2.4
						c0.7-0.7,1.6-1.1,2.6-1.1c1,0,1.9,0.4,2.6,1.1c0.7,0.7,1.1,1.6,1.1,2.6c0,1-0.3,1.9-1,2.6c-0.4,0.5-0.9,0.9-1.5,1.4
						s-1.2,0.9-1.9,1.5c-0.6,0.5-1,0.9-1,1.2h5.6v1.5h-7.3C854.8,257.5,855.3,256.3,856.1,255.7z"/>
					<path class="st3" d="M835.3,275.4c0,1.1-0.4,2.1-1.2,2.9c-0.8,0.8-1.8,1.2-2.9,1.2c-1.1,0-2.1-0.4-2.9-1.2
						c-0.8-0.8-1.2-1.8-1.2-2.9v-3.6c0-1.1,0.4-2.1,1.2-2.9c0.8-0.8,1.8-1.2,2.9-1.2c1.2,0,2.1,0.4,2.9,1.2c0.8,0.8,1.2,1.8,1.2,2.9
						V275.4z M833.7,271.8c0-0.7-0.3-1.3-0.8-1.8c-0.5-0.5-1.1-0.8-1.8-0.8c-0.7,0-1.3,0.3-1.8,0.8c-0.5,0.5-0.8,1.1-0.8,1.8v3.6
						c0,0.7,0.3,1.3,0.8,1.8c0.5,0.5,1.1,0.8,1.8,0.8c0.7,0,1.3-0.3,1.8-0.8c0.5-0.5,0.8-1.1,0.8-1.8V271.8z"/>
					<path class="st3" d="M839,277.3l-1.7,3.5h-1.4l0.9-3.5H839z"/>
					<path class="st3" d="M848.6,275.4c0,1.1-0.4,2.1-1.2,2.9c-0.8,0.8-1.8,1.2-2.9,1.2c-1.1,0-2.1-0.4-2.9-1.2
						c-0.8-0.8-1.2-1.8-1.2-2.9v-3.6c0-1.1,0.4-2.1,1.2-2.9c0.8-0.8,1.8-1.2,2.9-1.2c1.1,0,2.1,0.4,2.9,1.2c0.8,0.8,1.2,1.8,1.2,2.9
						V275.4z M847.1,271.8c0-0.7-0.3-1.3-0.8-1.8c-0.5-0.5-1.1-0.8-1.8-0.8c-0.7,0-1.3,0.3-1.8,0.8c-0.5,0.5-0.8,1.1-0.8,1.8v3.6
						c0,0.7,0.3,1.3,0.8,1.8c0.5,0.5,1.1,0.8,1.8,0.8c0.7,0,1.3-0.3,1.8-0.8c0.5-0.5,0.8-1.1,0.8-1.8V271.8z"/>
					<path class="st3" d="M853.2,270.9c0.4,0.4,0.6,0.9,0.6,1.4s-0.2,1-0.6,1.4s-0.9,0.6-1.4,0.6c-0.6,0-1-0.2-1.4-0.6
						c-0.4-0.4-0.6-0.9-0.6-1.4c0-0.6,0.2-1,0.6-1.4c0.4-0.4,0.9-0.6,1.4-0.6C852.3,270.3,852.8,270.5,853.2,270.9z M857.8,269.9
						l-6.7,9.6l-1.2-0.9l6.7-9.6L857.8,269.9z M851.8,271.8c-0.1,0-0.3,0-0.4,0.1s-0.1,0.2-0.1,0.4c0,0.1,0,0.3,0.1,0.4
						s0.2,0.1,0.4,0.1c0.1,0,0.3,0,0.4-0.1c0.1-0.1,0.2-0.2,0.2-0.4c0-0.1-0.1-0.3-0.2-0.4S851.9,271.8,851.8,271.8z M857.2,274.9
						c0.4,0.4,0.6,0.9,0.6,1.4c0,0.6-0.2,1-0.6,1.4s-0.9,0.6-1.4,0.6c-0.6,0-1-0.2-1.4-0.6c-0.4-0.4-0.6-0.9-0.6-1.4
						c0-0.6,0.2-1,0.6-1.4c0.4-0.4,0.9-0.6,1.4-0.6C856.4,274.3,856.8,274.5,857.2,274.9z M855.8,275.8c-0.1,0-0.3,0-0.4,0.1
						s-0.1,0.2-0.1,0.4c0,0.1,0,0.3,0.1,0.4c0.1,0.1,0.2,0.1,0.4,0.1c0.1,0,0.3,0,0.4-0.1c0.1-0.1,0.2-0.2,0.2-0.4
						c0-0.1-0.1-0.3-0.2-0.4C856.1,275.9,855.9,275.8,855.8,275.8z"/>
				</g>
			</g>
		</g>
	</g>
</g>
<text transform="matrix(1 0 0 1 303.4771 522.9987)"><tspan x="0" y="0" class="st4 st5 st6">Figura 7. Distribucin de la poblacin con discapacidad por grupos de edad y sexo</tspan><tspan x="188.3" y="16.8" class="st4 st5 st6">Fuente: MSPS (2018)</tspan></text>
</svg>
