<?xml version="1.0" encoding="utf-8"?>
<!-- Generator: Adobe Illustrator 16.0.0, SVG Export Plug-In . SVG Version: 6.00 Build 0)  -->
<!DOCTYPE svg PUBLIC "-//W3C//DTD SVG 1.1//EN" "http://www.w3.org/Graphics/SVG/1.1/DTD/svg11.dtd">
<svg version="1.1" id="Capa_1" xmlns="http://www.w3.org/2000/svg" xmlns:xlink="http://www.w3.org/1999/xlink" x="0px" y="0px"
	 width="734.339px" height="413.176px" viewBox="0 0 734.339 413.176" enable-background="new 0 0 734.339 413.176"
	 xml:space="preserve">
<g>
	<g>
		<g>
			<path fill="#F39200" d="M202.423,207.235c-0.003,0.016-0.009,0.031-0.017,0.047l-0.124,0.247l-0.031,0.384l0.031,0.29
				l0.053,0.129l0.058,0.078l0.678,0.226c0.015,0.005,0.029,0.013,0.041,0.021l0.417,0.278l0.311,0.141l1.13-1.292l0.363-0.633
				l0.169-0.337l0.485-0.664l0.13-0.392c0.012-0.034,0.033-0.063,0.062-0.084l0.496-0.365l0.797-1.195l0.271-1.46l0.172-1.583
				c0.001-0.02,0.007-0.038,0.016-0.056l0.521-1.111c0.006-0.013,0.013-0.024,0.021-0.035l0.678-0.847l0.407-1.086
				c0.005-0.015,0.012-0.028,0.021-0.04l0.174-0.243l0.535-0.574c0.013-0.014,0.028-0.026,0.045-0.034l1.073-0.57l0.237-0.355
				l0.132-0.527c0.003-0.014,0.009-0.028,0.016-0.041l0.46-0.843l-0.114,0.068l-0.219,0.191c-0.018,0.016-0.037,0.026-0.059,0.033
				l-0.286,0.096l-0.116,0.087c-0.01,0.008-0.021,0.015-0.033,0.02l-0.313,0.14c-0.018,0.007-0.035,0.012-0.055,0.014l-0.346,0.031
				l-0.28,0.155c-0.025,0.015-0.055,0.022-0.084,0.022c-0.007,0-0.015-0.001-0.021-0.001l0,0l0,0l-0.278-0.034
				c-0.03-0.004-0.059-0.016-0.083-0.034l-0.796-0.597l-0.823-0.099l-2.063,0.002l-0.236-0.037c-0.02-0.003-0.039-0.01-0.056-0.02
				l-0.586-0.326h-0.079l-0.138,0.087l0.086,0.546l0.036,0.394c0.004,0.045-0.01,0.091-0.04,0.127l-0.173,0.208
				c-0.033,0.04-0.083,0.063-0.135,0.063h-0.658l-0.21,0.09c-0.03,0.013-0.062,0.017-0.096,0.012l-1.492-0.228l-0.768,1.075
				l0.027,0.247c0.005,0.041-0.005,0.082-0.027,0.115l-0.18,0.269v0.156c0,0.017-0.002,0.034-0.008,0.049l-0.166,0.565l0.034,1.712
				l0.161,0.387c0.031,0.074,0.006,0.161-0.06,0.207l-0.224,0.16l-0.103,0.128l-0.087,0.305l0.242,0.1h0.383
				c0.021,0,0.044,0.005,0.064,0.013l1.041,0.417c0.042,0.016,0.075,0.046,0.094,0.087l0.521,1.112
				c0.032,0.066,0.018,0.145-0.034,0.197l-0.019,0.019v0.866l0.033,0.293c0.003,0.021,0.002,0.041-0.004,0.061l-0.034,0.141
				l-0.392,0.896l-0.289,0.473l-0.25,0.66l0.032,0.381c0.001,0.015,0,0.03-0.003,0.045L202.423,207.235z"/>
		</g>
	</g>
	<g>
		<g>
			<g>
				<g>
					<path fill="#FFFFFF" d="M514.187,204.324v3.445h-5.59c-1.348,0-2.297-0.104-2.848-0.312s-0.923-0.517-1.116-0.925
						c-0.193-0.409-0.29-1.145-0.29-2.208c-1.676-0.047-3.117-0.486-4.324-1.318s-2.004-1.89-2.391-3.173s-0.58-3.202-0.58-5.757
						v-8.807c0-1.934,0.114-3.407,0.343-4.421s0.7-1.969,1.415-2.865s1.635-1.573,2.76-2.03s2.373-0.686,3.744-0.686
						c1.652,0,3.126,0.281,4.421,0.843c1.295,0.562,2.262,1.277,2.9,2.144c0.639,0.867,1.055,1.766,1.248,2.698
						c0.193,0.931,0.29,2.316,0.29,4.156v9.243c0,2.53-0.123,4.247-0.369,5.148c-0.246,0.902-0.718,1.62-1.415,2.153
						c-0.697,0.533-1.626,0.94-2.786,1.221c0.035,0.637,0.167,1.038,0.396,1.203s0.771,0.248,1.626,0.248H514.187z M506.769,183.177
						c0-1.324-0.073-2.171-0.22-2.54s-0.448-0.554-0.905-0.554c-0.387,0-0.683,0.149-0.888,0.448s-0.308,1.181-0.308,2.646v13.289
						c0,1.652,0.067,2.672,0.202,3.059s0.448,0.58,0.94,0.58c0.504,0,0.826-0.223,0.967-0.668s0.211-1.506,0.211-3.182V183.177z"/>
					<path fill="#FFFFFF" d="M533.751,175.865v19.02c0,2.156-0.07,3.671-0.211,4.544s-0.557,1.77-1.248,2.689
						s-1.603,1.617-2.733,2.092s-2.464,0.712-3.999,0.712c-1.699,0-3.199-0.281-4.5-0.844s-2.273-1.295-2.918-2.197
						s-1.025-1.854-1.143-2.856s-0.176-3.108-0.176-6.319v-16.84h7.4v21.34c0,1.242,0.067,2.036,0.202,2.382
						s0.407,0.519,0.817,0.519c0.469,0,0.771-0.19,0.905-0.571s0.202-1.28,0.202-2.698v-20.971H533.751z"/>
					<path fill="#FFFFFF" d="M544.017,175.865v28.459h-7.4v-28.459H544.017z"/>
					<path fill="#FFFFFF" d="M563.511,175.865v28.459h-6.486l-3.85-12.938v12.938h-6.188v-28.459h6.188l4.148,12.814v-12.814
						H563.511z"/>
					<path fill="#FFFFFF" d="M566.481,175.865h5.537c3.574,0,5.991,0.164,7.251,0.492s2.218,0.867,2.874,1.617
						s1.066,1.585,1.23,2.505s0.246,2.728,0.246,5.423v9.967c0,2.555-0.12,4.263-0.36,5.124s-0.659,1.535-1.257,2.021
						s-1.336,0.826-2.215,1.02s-2.203,0.29-3.973,0.29h-9.334V175.865z M573.882,180.734v18.721c1.066,0,1.723-0.214,1.969-0.642
						s0.369-1.591,0.369-3.489v-11.057c0-1.289-0.041-2.115-0.123-2.479s-0.27-0.63-0.562-0.8S574.69,180.734,573.882,180.734z"/>
					<path fill="#FFFFFF" d="M593.78,175.865v28.459h-7.4v-28.459H593.78z"/>
					<path fill="#FFFFFF" d="M613.661,192.529c0,2.859-0.067,4.884-0.202,6.073s-0.557,2.276-1.266,3.261s-1.667,1.74-2.874,2.268
						s-2.613,0.791-4.219,0.791c-1.523,0-2.892-0.249-4.104-0.747s-2.188-1.245-2.927-2.241s-1.178-2.08-1.318-3.252
						s-0.211-3.223-0.211-6.152v-4.869c0-2.859,0.067-4.884,0.202-6.073s0.557-2.276,1.266-3.261s1.667-1.74,2.874-2.268
						s2.613-0.791,4.219-0.791c1.523,0,2.892,0.249,4.104,0.747s2.188,1.245,2.927,2.241s1.178,2.08,1.318,3.252
						s0.211,3.223,0.211,6.152V192.529z M606.261,183.177c0-1.324-0.073-2.171-0.22-2.54s-0.448-0.554-0.905-0.554
						c-0.387,0-0.683,0.149-0.888,0.448s-0.308,1.181-0.308,2.646v13.289c0,1.652,0.067,2.672,0.202,3.059s0.448,0.58,0.94,0.58
						c0.504,0,0.826-0.223,0.967-0.668s0.211-1.506,0.211-3.182V183.177z"/>
				</g>
			</g>
		</g>
	</g>
	<g>
		<g>
			<path fill="#F2961C" d="M498.204,225.136v4.156h-1.68v-12.987h3.686c1.043,0.141,1.926,0.571,2.646,1.291
				c0.86,0.866,1.29,1.905,1.29,3.117c0,1.223-0.43,2.266-1.29,3.129c-0.86,0.863-1.899,1.295-3.117,1.295H498.204z
				 M498.204,217.993v5.455h1.534c0.747,0,1.387-0.267,1.92-0.799c0.532-0.533,0.8-1.178,0.8-1.936c0-0.752-0.268-1.393-0.8-1.924
				c-0.533-0.53-1.173-0.795-1.92-0.795H498.204z"/>
			<path fill="#F2961C" d="M512.434,226.427l1.681,0.601c-0.412,0.568-0.709,0.944-0.894,1.128
				c-0.903,0.904-1.994,1.355-3.271,1.355c-1.272,0-2.359-0.452-3.264-1.355s-1.355-1.994-1.355-3.271
				c0-1.277,0.451-2.368,1.355-3.271c0.904-0.903,1.991-1.355,3.264-1.355c1.276,0,2.367,0.452,3.271,1.355
				c0.185,0.184,0.481,0.555,0.894,1.112l-1.681,0.617c-0.217-0.265-0.362-0.436-0.438-0.511c-0.562-0.563-1.244-0.844-2.045-0.844
				c-0.796,0-1.477,0.283-2.042,0.848s-0.849,1.249-0.849,2.05c0,0.795,0.283,1.476,0.849,2.041s1.246,0.848,2.042,0.848
				c0.801,0,1.484-0.281,2.053-0.844C512.073,226.854,512.217,226.687,512.434,226.427z"/>
			<path fill="#F2961C" d="M517.295,216.305c2.11,0.011,3.755,0.608,4.935,1.793c1.294,1.304,1.94,2.871,1.94,4.7
				c0,1.834-0.646,3.401-1.94,4.7c-1.18,1.185-2.824,1.783-4.935,1.794h-1.233v-12.987H517.295z M517.741,218.018v9.57
				c1.337,0,2.433-0.43,3.287-1.291c0.963-0.963,1.445-2.129,1.445-3.499c0-1.363-0.482-2.529-1.445-3.498
				C520.174,218.445,519.078,218.018,517.741,218.018z"/>
			<path fill="#F2961C" d="M537.985,216.305v12.987h-1.68v-10.795h-1.242l1.704-2.191H537.985z"/>
			<path fill="#F2961C" d="M547.571,229.454c-1.332,0-2.395-0.399-3.19-1.197c-0.796-0.798-1.192-1.76-1.192-2.886
				c0-1.385,0.76-2.633,2.28-3.742c-0.73-0.785-1.096-1.599-1.096-2.443c0-0.828,0.296-1.542,0.889-2.143s1.316-0.901,2.171-0.901
				h0.268c0.855,0,1.58,0.3,2.176,0.901s0.893,1.315,0.893,2.143c0,0.844-0.395,1.65-1.185,2.419c1.58,1.125,2.37,2.381,2.37,3.766
				c0,1.125-0.398,2.087-1.193,2.886C549.966,229.055,548.902,229.454,547.571,229.454z M547.571,227.733
				c0.854,0,1.514-0.23,1.977-0.69c0.463-0.459,0.693-1.017,0.693-1.672c0-0.66-0.23-1.236-0.689-1.729
				c-0.455-0.498-1.115-0.836-1.98-1.015c-0.871,0.179-1.534,0.517-1.988,1.015c-0.455,0.493-0.683,1.069-0.683,1.729
				c0,0.655,0.229,1.212,0.69,1.672C546.05,227.503,546.71,227.733,547.571,227.733z M547.53,217.863
				c-0.037-0.005-0.07-0.008-0.098-0.008c-0.367,0-0.682,0.128-0.941,0.385c-0.26,0.257-0.39,0.572-0.39,0.946
				c0,0.379,0.137,0.714,0.41,1.006c0.272,0.292,0.521,0.482,0.743,0.568c0.119,0.043,0.225,0.073,0.316,0.089
				c0.092-0.017,0.197-0.046,0.316-0.089c0.217-0.086,0.463-0.276,0.738-0.568c0.276-0.292,0.414-0.627,0.414-1.006
				c0-0.374-0.13-0.688-0.39-0.946c-0.26-0.257-0.576-0.385-0.95-0.385c-0.021,0-0.051,0.002-0.089,0.008H547.53z"/>
			<path fill="#F2961C" d="M555.644,227.385c0.23,0.227,0.345,0.503,0.345,0.828c0,0.335-0.114,0.617-0.345,0.844
				c-0.23,0.227-0.508,0.341-0.832,0.341c-0.319,0-0.596-0.114-0.828-0.341c-0.232-0.228-0.35-0.509-0.35-0.844
				c0-0.325,0.117-0.601,0.35-0.828c0.232-0.228,0.509-0.341,0.828-0.341C555.136,227.043,555.413,227.157,555.644,227.385z"/>
			<path fill="#F2961C" d="M564.062,221.211c-1.346,1.507-2.386,2.783-3.121,3.827c-0.736,1.044-1.131,2.462-1.186,4.253h-1.713
				c0.064-2.213,0.514-3.903,1.348-5.069c0.833-1.166,1.826-2.395,2.979-3.685s1.772-2.142,1.859-2.553h-6.169v-1.68h8.076
				C566.097,218.069,565.405,219.705,564.062,221.211z"/>
			<path fill="#F2961C" d="M572.246,222.604l-1.015-0.024v-1.664c0.736-0.011,1.221-0.061,1.453-0.15s0.486-0.28,0.764-0.572
				c0.275-0.292,0.413-0.627,0.413-1.006c0-0.374-0.13-0.688-0.39-0.946c-0.26-0.257-0.576-0.385-0.949-0.385
				c-0.368,0-0.682,0.127-0.941,0.381c-0.146,0.151-0.314,0.481-0.504,0.99l-1.566-0.617c0.232-0.73,0.518-1.255,0.853-1.575
				c0.601-0.595,1.32-0.893,2.159-0.893c0.855,0,1.58,0.3,2.176,0.901c0.595,0.601,0.893,1.315,0.893,2.143
				c0,0.844-0.501,1.659-1.502,2.443c0.481,0.032,0.987,0.306,1.518,0.819c0.773,0.833,1.161,1.808,1.161,2.922
				c0,1.125-0.396,2.087-1.189,2.886c-0.792,0.798-1.755,1.197-2.886,1.197c-1.119,0-2.078-0.4-2.873-1.201
				c-0.633-0.638-1.036-1.523-1.209-2.654l1.68-0.608c0.098,0.974,0.344,1.658,0.738,2.053c0.466,0.46,1.021,0.69,1.664,0.69
				c0.654,0,1.214-0.23,1.676-0.69c0.463-0.459,0.695-1.017,0.695-1.672c0-0.66-0.232-1.242-0.695-1.745
				C573.906,223.123,573.198,222.782,572.246,222.604z"/>
			<path fill="#F2961C" d="M581.346,221.281c0.481-0.52,1.28-0.779,2.395-0.779c1.12,0,2.051,0.371,2.792,1.112
				c0.898,0.904,1.348,1.994,1.348,3.271c0,1.271-0.449,2.358-1.348,3.259s-1.986,1.352-3.263,1.352
				c-1.272,0-2.359-0.449-3.263-1.348c-0.866-0.871-1.302-2.081-1.307-3.628v-0.024c0-1.532,0.413-2.879,1.241-4.042
				c0.833-1.169,1.959-2.551,3.376-4.147h2.209C583.562,218.34,582.168,219.998,581.346,221.281z M580.372,224.885
				c0,0.801,0.282,1.482,0.848,2.045c0.565,0.562,1.248,0.844,2.05,0.844c0.796,0,1.476-0.281,2.041-0.844
				c0.565-0.563,0.849-1.245,0.849-2.045s-0.283-1.483-0.849-2.046c-0.565-0.562-1.245-0.844-2.041-0.844
				c-0.802,0-1.484,0.281-2.05,0.844C580.654,223.402,580.372,224.084,580.372,224.885z"/>
			<path fill="#27515D" d="M505.745,248.794c0.124,0.076,0.254,0.162,0.39,0.26c0.378,0.2,0.636,0.322,0.771,0.365
				c0.061,0.016,0.117,0.024,0.171,0.024c0.092,0,0.185-0.027,0.276-0.082c0.141-0.081,0.232-0.2,0.275-0.357
				c0.017-0.049,0.035-0.249,0.057-0.601h1.697c-0.039,0.53-0.082,0.882-0.131,1.055c-0.173,0.601-0.533,1.052-1.079,1.355
				c-0.347,0.2-0.709,0.3-1.087,0.3c-0.212,0-0.423-0.03-0.634-0.089c-0.347-0.092-0.81-0.325-1.388-0.698
				c-0.466-0.244-0.787-0.393-0.967-0.447c-0.103-0.027-0.199-0.041-0.291-0.041c-0.163,0-0.32,0.043-0.471,0.13
				c-0.25,0.141-0.412,0.352-0.488,0.633c-0.01,0.027-0.029,0.206-0.057,0.536h-1.696c0.044-0.514,0.087-0.85,0.13-1.006
				c0.092-0.331,0.232-0.623,0.422-0.877c-1.277-0.243-2.402-0.852-3.376-1.826c-1.299-1.299-1.948-2.865-1.948-4.7
				s0.649-3.401,1.948-4.7c1.298-1.299,2.865-1.948,4.699-1.948c1.835,0,3.401,0.649,4.7,1.948s1.947,2.865,1.947,4.7
				s-0.648,3.401-1.947,4.7C507.085,248.015,506.442,248.469,505.745,248.794z M502.969,237.779c-1.368,0-2.536,0.483-3.503,1.449
				c-0.965,0.966-1.448,2.133-1.448,3.502s0.484,2.538,1.453,3.506c0.968,0.969,2.135,1.453,3.498,1.453
				c1.369,0,2.536-0.484,3.503-1.453c0.966-0.968,1.449-2.137,1.449-3.506s-0.483-2.537-1.449-3.502
				C505.505,238.262,504.338,237.779,502.969,237.779z"/>
			<path fill="#27515D" d="M519,236.253h1.688v9.147c-0.146,1.044-0.576,1.927-1.291,2.646c-0.865,0.866-1.907,1.299-3.125,1.299
				c-1.217,0-2.258-0.432-3.121-1.294c-0.863-0.863-1.294-1.904-1.294-3.121v-8.677h1.688v8.677c0,0.747,0.266,1.387,0.799,1.919
				c0.533,0.533,1.176,0.8,1.928,0.8c0.758,0,1.402-0.265,1.932-0.795c0.531-0.53,0.796-1.171,0.796-1.924V236.253z"/>
			<path fill="#27515D" d="M524.966,236.253v12.987h-1.68v-12.987H524.966z"/>
			<path fill="#27515D" d="M527.571,236.253h1.533l5.357,9.269v-9.269h1.688v12.987h-1.469l-5.431-9.383v9.383h-1.68V236.253z"/>
			<path fill="#27515D" d="M539.819,236.253c2.11,0.011,3.756,0.608,4.936,1.793c1.293,1.304,1.939,2.871,1.939,4.7
				c0,1.834-0.646,3.401-1.939,4.7c-1.18,1.185-2.825,1.783-4.936,1.794h-1.233v-12.987H539.819z M540.267,237.966v9.57
				c1.336,0,2.432-0.43,3.287-1.291c0.963-0.963,1.444-2.129,1.444-3.499c0-1.363-0.481-2.529-1.444-3.498
				C542.698,238.394,541.603,237.966,540.267,237.966z"/>
			<path fill="#27515D" d="M550.574,236.253v12.987h-1.681v-12.987H550.574z"/>
			<path fill="#27515D" d="M564.324,238.031c1.299,1.299,1.948,2.865,1.948,4.7s-0.649,3.401-1.948,4.7
				c-1.298,1.299-2.865,1.948-4.7,1.948c-1.834,0-3.4-0.649-4.699-1.948s-1.947-2.865-1.947-4.7s0.648-3.401,1.947-4.7
				s2.865-1.948,4.699-1.948C561.459,236.083,563.026,236.732,564.324,238.031z M559.624,237.779c-1.368,0-2.535,0.483-3.502,1.449
				c-0.966,0.966-1.449,2.133-1.449,3.502s0.484,2.538,1.453,3.506c0.969,0.969,2.135,1.453,3.498,1.453
				c1.369,0,2.537-0.484,3.503-1.453c0.966-0.968,1.449-2.137,1.449-3.506s-0.483-2.537-1.449-3.502
				S560.993,237.779,559.624,237.779z"/>
		</g>
	</g>
	<g>
		<g>
			<polyline fill="none" stroke="#FFFFFF" stroke-width="2" points="204.939,199.568 204.468,167.688 404.541,167.688 
				405.439,185.55 486.031,185.55 			"/>
			<g>
				<circle fill="#FFFFFF" cx="204.938" cy="199.455" r="2.256"/>
			</g>
		</g>
	</g>
</g>
</svg>
