<?xml version="1.0" encoding="utf-8"?>
<!-- Generator: Adobe Illustrator 16.0.0, SVG Export Plug-In . SVG Version: 6.00 Build 0)  -->
<!DOCTYPE svg PUBLIC "-//W3C//DTD SVG 1.1//EN" "http://www.w3.org/Graphics/SVG/1.1/DTD/svg11.dtd">
<svg version="1.1" id="Capa_1" xmlns="http://www.w3.org/2000/svg" xmlns:xlink="http://www.w3.org/1999/xlink" x="0px" y="0px"
	 width="734.338px" height="413.176px" viewBox="0 0 734.338 413.176" enable-background="new 0 0 734.338 413.176"
	 xml:space="preserve">
<g>
	<g>
		<g>
			<path fill="#F39200" d="M255.445,41.521l-0.113,0.231c-0.014,0.028-0.035,0.053-0.062,0.069l-0.25,0.157l-0.293,0.391
				l-0.121,0.123c-0.02,0.021-0.045,0.035-0.072,0.044l-0.281,0.084l-0.072,0.126l0.057,0.284l0.002,0.312l-0.035,0.3l-0.068,1.238
				c0,0.019-0.006,0.038-0.012,0.056l-0.139,0.347l-0.127,0.546v0.223l0.023,0.106l0.262,0.428c0.008,0.011,0.014,0.023,0.018,0.036
				l0.105,0.312l0.146,1.003l0.439,1.568l3.428-0.466l1.561,0.068l0.547,0.107l0.602,0.032l0.834,0.172l0.393-0.033
				c0.041-0.003,0.078,0.007,0.111,0.029l0.312,0.209c0.016,0.011,0.031,0.025,0.043,0.042l0.178,0.243l0.102,0.139
				c0.012,0.018,0.021,0.039,0.027,0.06l0.104,0.417l0.107,0.639c0.002,0.016,0.004,0.034,0,0.05l-0.033,0.278l-0.111,0.346
				l-0.021,0.158l0.115,0.232l0.625,0.187c0.014,0.005,0.027,0.011,0.039,0.018l0.604,0.369l0.668,0.167
				c0.018,0.004,0.033,0.011,0.047,0.019l0.938,0.556l0.928,0.782c0.014,0.011,0.025,0.024,0.035,0.039l0.166,0.261l0.076,0.122
				c0.02,0.03,0.029,0.065,0.027,0.099c-0.002,0.034-0.012,0.068-0.033,0.097l-0.266,0.363l-0.303,0.812
				c-0.006,0.018-0.016,0.034-0.027,0.049l-0.293,0.357l-0.268,0.804c-0.014,0.041-0.043,0.076-0.082,0.097l-0.266,0.148
				l-0.428,0.822c-0.018,0.033-0.045,0.059-0.076,0.075l-0.23,0.115l-0.156,0.284l0.256,0.078c0.031,0.009,0.057,0.027,0.078,0.051
				l0.279,0.313c0.012,0.015,0.023,0.031,0.029,0.051l0.141,0.347l0.119,0.358l0.082,0.041l0.281-0.084l0.4-0.167
				c0.014-0.005,0.027-0.009,0.039-0.011l0.453-0.069c0.008-0.001,0.018-0.002,0.027-0.002c0.012,0,0.021,0.001,0.033,0.003
				l0.348,0.069l0.449,0.185l0.314,0.059l0.375,0.03l0.396-0.066l0.365-0.1l0.881-0.375c0.012-0.005,0.023-0.008,0.037-0.01
				l0.455-0.093l0.139-0.479c0.006-0.021,0.016-0.042,0.029-0.06l0.383-0.486l0.395-0.397l0.279-0.409l0.445-1.229
				c0.008-0.02,0.018-0.038,0.031-0.054l1.424-1.668l0.609-1.019l1.131-3.199l0.529-1.062c0.006-0.013,0.014-0.024,0.023-0.036
				l0.627-0.729c0.008-0.011,0.02-0.021,0.033-0.03l1.006-0.694l0.418-0.39l0.395-0.559l0.791-1.996
				c0.008-0.018,0.018-0.035,0.031-0.049l0.625-0.729l0.146-0.206l0.061-0.214l0.029-0.417c0.002-0.023,0.008-0.044,0.018-0.064
				l0.104-0.209c0.016-0.026,0.035-0.049,0.061-0.066l0.418-0.278c0.02-0.014,0.045-0.024,0.07-0.027l0.486-0.07l0.996-0.069
				l1.297-0.478l0.482-0.079c0.016-0.002,0.029-0.002,0.041-0.001l0.453,0.035l0.85,0.235l0.322-0.107l0.197-0.227l1.381-2.622
				l4.412-8.269l0.428-0.609c0.016-0.02,0.031-0.036,0.051-0.048l0.453-0.277c0.014-0.009,0.029-0.016,0.047-0.02l12.158-3.196
				l0.891-0.397l0.779-0.645l0.441-0.259c0.025-0.016,0.055-0.025,0.086-0.025h0.596l0.055-0.089l0.473-1.257l0.111-0.224
				c0.023-0.047,0.066-0.081,0.117-0.092l0.312-0.069l0.361-0.133l0.299-0.149l0.428-0.496c0.014-0.015,0.031-0.027,0.047-0.038
				l1.633-0.903l0.586-0.458l0.266-0.331l0.25-0.477l0.123-0.456l-0.119-0.415l-0.854-1.298c-0.01-0.015-0.018-0.031-0.021-0.048
				l-0.168-0.604l-1.412-2.413c-0.012-0.019-0.02-0.039-0.021-0.062l-0.066-0.417l-0.416-0.672l-0.412-0.317l-0.762-0.365
				l-1.055-0.204l-0.482-0.182c-0.014-0.006-0.031-0.015-0.043-0.025l-0.463-0.364l-0.152-0.051h-0.807
				c-0.012,0-0.025-0.001-0.037-0.004l-0.314-0.069c-0.021-0.006-0.045-0.016-0.064-0.031l-0.141-0.104l-0.33-0.329l-0.703-0.465
				l-0.441-0.22l-0.459-0.065l-1.645,0.002l-0.555-0.107c-0.016-0.004-0.029-0.008-0.043-0.016l-0.67-0.335l-0.428-0.061
				l-0.43,0.092l-0.146,0.086l0.201-0.067c0.061-0.021,0.125-0.006,0.17,0.034c0.047,0.041,0.068,0.104,0.057,0.165l-0.016,0.079
				c0.002,0,0.004-0.001,0.006-0.001l0.242-0.07c0.016-0.004,0.033-0.007,0.049-0.007h0.279c0.074,0,0.143,0.049,0.164,0.121
				c0.023,0.072-0.002,0.15-0.064,0.194l-0.244,0.174l-0.137,0.14l0.029,0.013l0.518-0.274c0.02-0.01,0.039-0.017,0.062-0.02
				l0.312-0.035c0.068-0.008,0.139,0.029,0.172,0.092s0.023,0.141-0.021,0.195l-0.244,0.278c-0.018,0.019-0.039,0.034-0.061,0.045
				l-0.314,0.139l-0.326,0.11l-0.404,0.23l0.01,0.005c0.07,0.034,0.107,0.113,0.094,0.189l-0.035,0.174
				c-0.006,0.024-0.016,0.046-0.029,0.066l-0.174,0.243c-0.033,0.046-0.086,0.073-0.143,0.073h-0.139
				c-0.076,0-0.145-0.05-0.166-0.124l-0.09-0.297l-0.168-0.141c-0.014-0.01-0.023-0.022-0.031-0.037l-0.141-0.208
				c-0.031-0.045-0.037-0.101-0.02-0.152l0.049-0.147l-0.145,0.023l-0.158,0.079l-0.113,0.127l0.123,0.061
				c0.072,0.037,0.111,0.119,0.092,0.198l-0.105,0.417c-0.002,0.012-0.008,0.024-0.014,0.036l-0.139,0.278
				c-0.012,0.024-0.029,0.045-0.051,0.062l-0.277,0.208l-0.473,0.257c-0.027,0.014-0.055,0.021-0.084,0.021h-0.312v0.173
				c0,0.077-0.051,0.144-0.123,0.166l-0.348,0.104c-0.037,0.011-0.074,0.009-0.111-0.003l-0.277-0.104
				c-0.025-0.01-0.051-0.026-0.068-0.046l-0.312-0.348c-0.039-0.041-0.053-0.096-0.041-0.15l0.068-0.347
				c0.008-0.034,0.023-0.065,0.049-0.09l-0.031,0.011c-0.021,0.008-0.045,0.012-0.07,0.008l-0.355-0.03l-0.004,0.003l-0.121,0.36
				c-0.01,0.031-0.029,0.057-0.053,0.078l-0.869,0.729l-0.961,0.683l0.029,0.053l0.059-0.074c0.016-0.018,0.033-0.032,0.051-0.043
				l0.242-0.138c0.021-0.012,0.043-0.019,0.066-0.021l0.277-0.036c0.014-0.001,0.027-0.001,0.041,0l0.312,0.035
				c0.012,0.001,0.023,0.004,0.035,0.008l0.312,0.104c0.035,0.012,0.066,0.036,0.088,0.065l0.225,0.323l0.221,0.156
				c0.037,0.027,0.062,0.067,0.07,0.113c0.006,0.045-0.004,0.092-0.029,0.129l-0.115,0.158l0.059,0.115l0.129,0.19l0.119,0.271
				c0.018,0.044,0.018,0.094,0,0.138l-0.105,0.243c-0.023,0.056-0.074,0.095-0.135,0.103l-0.244,0.035
				c-0.014,0.002-0.029,0.002-0.041,0l-0.314-0.034l-0.24,0.001l-0.166,0.109l-0.16,0.166l-0.119,0.234l-0.064,0.292
				c-0.01,0.051-0.043,0.094-0.09,0.118l-0.141,0.069l-0.699,0.316c-0.047,0.021-0.098,0.021-0.145,0l-0.383-0.174
				c-0.031-0.014-0.057-0.038-0.076-0.067l-0.355-0.583l-0.303-0.151c-0.049-0.025-0.084-0.072-0.094-0.126
				c-0.008-0.054,0.008-0.111,0.047-0.15l0.939-0.973l0.053-0.238l-0.629-0.157l-2.361,0.444c-0.031,0.007-0.062,0.003-0.094-0.008
				l-0.65-0.248l-0.43,0.258l-0.158,0.158l-0.018,0.083l0.18,0.09c0.018,0.008,0.033,0.02,0.045,0.033l0.209,0.208l0.152,0.188
				c0.016,0.021,0.027,0.045,0.033,0.072l0.105,0.486l0.072,1.382l-0.035,0.474c-0.002,0.02-0.006,0.039-0.014,0.057l-0.139,0.313
				c-0.006,0.012-0.012,0.023-0.02,0.034l-0.504,0.671l-0.234,0.77c-0.006,0.014-0.012,0.029-0.02,0.042l-0.824,1.304l-0.307,0.817
				l-0.025,0.176c-0.002,0.014-0.006,0.027-0.012,0.04l-0.104,0.243c-0.008,0.018-0.02,0.035-0.033,0.05l-0.416,0.451l-0.266,0.366
				c-0.02,0.027-0.047,0.048-0.078,0.06l-1.229,0.478l-0.99,0.717c-0.016,0.013-0.035,0.021-0.055,0.026l-0.729,0.199l-0.562,0.463
				l-0.408,0.227l-0.445,0.151c-0.018,0.005-0.033,0.008-0.053,0.009l-1.365,0.034l-0.502,0.156l-0.459,0.363
				c-0.012,0.008-0.023,0.015-0.035,0.021l-0.52,0.243c-0.041,0.019-0.086,0.021-0.127,0.008l-0.369-0.113l-0.658,0.471
				l-0.371,0.188c-0.014,0.007-0.029,0.012-0.045,0.016l-1.424,0.277l-0.844,0.306l-0.389,0.229l-4.041,3.354
				c-0.008,0.007-0.018,0.015-0.029,0.02l-2.826,1.483l-1.303,1.268c-0.014,0.013-0.031,0.025-0.049,0.034l-0.746,0.339
				l-0.238,0.178l-0.295,0.46c-0.01,0.015-0.021,0.028-0.035,0.04l-0.209,0.173c-0.016,0.012-0.033,0.022-0.051,0.03l-0.309,0.129
				l-0.256,0.515c-0.01,0.017-0.02,0.032-0.033,0.045l-0.312,0.312c-0.012,0.011-0.021,0.019-0.035,0.027l-0.59,0.347l-0.662,0.498
				l-0.162,0.194c-0.01,0.012-0.023,0.024-0.037,0.033l-0.207,0.139c-0.021,0.014-0.045,0.023-0.07,0.026l-2.57,0.417l-3.656,0.003
				l0.051,0.468c0.002,0.025,0,0.05-0.01,0.073L255.445,41.521z"/>
		</g>
	</g>
	<g>
		<g>
			<g>
				<g>
					<path fill="#FFFFFF" d="M505.165,175.865v22.764h4.5v5.695h-11.9v-28.459H505.165z"/>
					<path fill="#FFFFFF" d="M524.25,175.865l4.232,28.459h-7.563l-0.397-5.115h-2.647l-0.445,5.115h-7.651l3.775-28.459H524.25z
						 M520.328,194.164c-0.375-3.224-0.75-7.208-1.127-11.953c-0.754,5.45-1.228,9.434-1.42,11.953H520.328z"/>
					<path fill="#FFFFFF" d="M553.065,186.341h-7.4v-2.584c0-1.629-0.07-2.648-0.211-3.059s-0.475-0.615-1.002-0.615
						c-0.457,0-0.768,0.176-0.932,0.527s-0.246,1.254-0.246,2.707v13.658c0,1.277,0.082,2.118,0.246,2.522s0.492,0.606,0.984,0.606
						c0.539,0,0.905-0.229,1.099-0.686s0.29-1.348,0.29-2.672v-3.375h-1.494v-4.324h8.666v15.275h-4.65l-0.685-2.039
						c-0.504,0.879-1.141,1.538-1.909,1.978s-1.674,0.659-2.718,0.659c-1.243,0-2.407-0.302-3.492-0.905
						c-1.085-0.604-1.909-1.351-2.472-2.241s-0.915-1.825-1.056-2.804s-0.211-2.446-0.211-4.403v-8.455
						c0-2.719,0.146-4.693,0.439-5.924s1.134-2.358,2.522-3.384s3.185-1.538,5.388-1.538c2.168,0,3.967,0.445,5.396,1.336
						s2.361,1.948,2.795,3.173s0.65,3.003,0.65,5.335V186.341z"/>
					<path fill="#FFFFFF" d="M572.753,175.865v19.02c0,2.156-0.07,3.671-0.211,4.544s-0.557,1.77-1.248,2.689
						s-1.603,1.617-2.733,2.092s-2.464,0.712-3.999,0.712c-1.699,0-3.199-0.281-4.5-0.844s-2.273-1.295-2.918-2.197
						s-1.025-1.854-1.143-2.856s-0.176-3.108-0.176-6.319v-16.84h7.4v21.34c0,1.242,0.067,2.036,0.202,2.382
						s0.407,0.519,0.817,0.519c0.469,0,0.771-0.19,0.905-0.571s0.202-1.28,0.202-2.698v-20.971H572.753z"/>
					<path fill="#FFFFFF" d="M588.411,175.865l4.232,28.459h-7.563l-0.397-5.115h-2.647l-0.445,5.115h-7.651l3.775-28.459H588.411z
						 M584.488,194.164c-0.375-3.224-0.75-7.208-1.127-11.953c-0.754,5.45-1.228,9.434-1.42,11.953H584.488z"/>
					<path fill="#FFFFFF" d="M602.952,175.865v19.02c0,2.848-0.029,4.679-0.088,5.493c-0.059,0.814-0.326,1.55-0.803,2.206
						s-1.122,1.11-1.936,1.362s-2.041,0.378-3.68,0.378h-3.707v-4.975c0.445,0.035,0.768,0.053,0.967,0.053
						c0.527,0,0.943-0.129,1.248-0.387s0.48-0.574,0.527-0.949s0.07-1.102,0.07-2.18v-20.021H602.952z"/>
					<path fill="#FFFFFF" d="M613.218,175.865v28.459h-7.4v-28.459H613.218z"/>
					<path fill="#FFFFFF" d="M616.188,175.865h5.238c3.492,0,5.856,0.135,7.093,0.404s2.244,0.958,3.023,2.065
						s1.169,2.874,1.169,5.3c0,2.215-0.275,3.703-0.826,4.465s-1.635,1.219-3.252,1.371c1.465,0.363,2.449,0.85,2.953,1.459
						s0.817,1.169,0.94,1.679s0.185,1.913,0.185,4.21v7.506h-6.873v-9.457c0-1.523-0.12-2.467-0.36-2.83s-0.87-0.545-1.89-0.545
						v12.832h-7.4V175.865z M623.589,180.734v6.328c0.832,0,1.415-0.114,1.749-0.343s0.501-0.97,0.501-2.224v-1.564
						c0-0.902-0.161-1.494-0.483-1.775S624.444,180.734,623.589,180.734z"/>
					<path fill="#FFFFFF" d="M648.37,175.865l4.232,28.459h-7.563l-0.397-5.115h-2.647l-0.445,5.115h-7.651l3.775-28.459H648.37z
						 M644.447,194.164c-0.375-3.224-0.75-7.208-1.127-11.953c-0.754,5.45-1.228,9.434-1.42,11.953H644.447z"/>
				</g>
			</g>
		</g>
	</g>
	<g>
		<g>
			<path fill="#F2961C" d="M498.71,225.136v4.156h-1.68v-12.987h3.685c1.044,0.141,1.926,0.571,2.646,1.291
				c0.86,0.866,1.291,1.905,1.291,3.117c0,1.223-0.43,2.266-1.291,3.129c-0.86,0.863-1.899,1.295-3.117,1.295H498.71z
				 M498.71,217.993v5.455h1.534c0.747,0,1.387-0.267,1.92-0.799c0.533-0.533,0.799-1.178,0.799-1.936
				c0-0.752-0.267-1.393-0.799-1.924c-0.533-0.53-1.173-0.795-1.92-0.795H498.71z"/>
			<path fill="#F2961C" d="M512.939,226.427l1.68,0.601c-0.412,0.568-0.709,0.944-0.893,1.128c-0.904,0.904-1.994,1.355-3.271,1.355
				c-1.272,0-2.359-0.452-3.263-1.355s-1.355-1.994-1.355-3.271c0-1.277,0.452-2.368,1.355-3.271
				c0.904-0.903,1.991-1.355,3.263-1.355c1.277,0,2.367,0.452,3.271,1.355c0.184,0.184,0.481,0.555,0.893,1.112l-1.68,0.617
				c-0.217-0.265-0.363-0.436-0.438-0.511c-0.563-0.563-1.245-0.844-2.045-0.844c-0.795,0-1.476,0.283-2.042,0.848
				s-0.848,1.249-0.848,2.05c0,0.795,0.283,1.476,0.848,2.041s1.246,0.848,2.042,0.848c0.801,0,1.485-0.281,2.054-0.844
				C512.579,226.854,512.723,226.687,512.939,226.427z"/>
			<path fill="#F2961C" d="M517.801,216.305c2.11,0.011,3.755,0.608,4.935,1.793c1.293,1.304,1.94,2.871,1.94,4.7
				c0,1.834-0.646,3.401-1.94,4.7c-1.18,1.185-2.825,1.783-4.935,1.794h-1.233v-12.987H517.801z M518.248,218.018v9.57
				c1.336,0,2.432-0.43,3.287-1.291c0.963-0.963,1.445-2.129,1.445-3.499c0-1.363-0.482-2.529-1.445-3.498
				C520.68,218.445,519.584,218.018,518.248,218.018z"/>
			<path fill="#F2961C" d="M538.491,216.305v12.987h-1.68v-10.795h-1.242l1.705-2.191H538.491z"/>
			<path fill="#F2961C" d="M549.757,216.305h1.469v7.8h1.145v1.68h-1.145v3.506h-1.68v-3.506h-5.316L549.757,216.305z
				 M549.546,220.096l-2.395,4.01h2.395V220.096z"/>
			<path fill="#F2961C" d="M556.604,227.385c0.23,0.227,0.345,0.503,0.345,0.828c0,0.335-0.115,0.617-0.345,0.844
				c-0.23,0.227-0.507,0.341-0.832,0.341c-0.319,0-0.595-0.114-0.828-0.341c-0.232-0.228-0.349-0.509-0.349-0.844
				c0-0.325,0.117-0.601,0.349-0.828c0.233-0.228,0.509-0.341,0.828-0.341C556.097,227.043,556.374,227.157,556.604,227.385z"/>
			<path fill="#F2961C" d="M565.009,216.305v12.987h-1.68v-10.795h-1.242l1.705-2.191H565.009z"/>
			<path fill="#F2961C" d="M576.604,221.211c-1.345,1.507-2.385,2.783-3.121,3.827c-0.736,1.044-1.131,2.462-1.185,4.253h-1.713
				c0.065-2.213,0.514-3.903,1.348-5.069c0.833-1.166,1.826-2.395,2.979-3.685c1.152-1.291,1.772-2.142,1.858-2.553h-6.168v-1.68
				h8.076C578.64,218.069,577.948,219.705,576.604,221.211z"/>
			<path fill="#F2961C" d="M587.176,216.305v12.987h-1.68v-10.795h-1.242l1.705-2.191H587.176z"/>
			<path fill="#27515D" d="M497.03,249.24v-12.987h1.68v11.298h4.643v1.688H497.03z"/>
			<path fill="#27515D" d="M510.123,236.253l4.724,12.987h-1.786l-1.672-4.594h-3.441l-1.664,4.594h-1.794l4.724-12.987H510.123z
				 M510.78,242.966l-1.112-3.044l-1.104,3.044H510.78z"/>
			<path fill="#27515D" d="M533.231,247.462c-1.336,1.277-2.865,1.916-4.586,1.916c-1.834,0-3.398-0.647-4.691-1.94
				c-1.293-1.293-1.94-2.857-1.94-4.692c0-1.829,0.646-3.393,1.94-4.691c1.293-1.299,2.857-1.948,4.691-1.948
				c1.715,0,3.341,0.701,4.878,2.103l-1.258,1.145c-1.158-1.028-2.365-1.542-3.62-1.542c-1.358,0-2.52,0.482-3.486,1.445
				c-0.966,0.963-1.449,2.127-1.449,3.49c0,1.369,0.483,2.536,1.449,3.499c0.966,0.963,2.128,1.445,3.486,1.445
				c1.169,0,2.138-0.309,2.906-0.925v-3.92h1.68V247.462z"/>
			<path fill="#27515D" d="M542.898,236.253h1.688v9.147c-0.146,1.044-0.577,1.927-1.291,2.646
				c-0.866,0.866-1.908,1.299-3.125,1.299c-1.218,0-2.258-0.432-3.121-1.294c-0.863-0.863-1.294-1.904-1.294-3.121v-8.677h1.688
				v8.677c0,0.747,0.267,1.387,0.8,1.919c0.533,0.533,1.175,0.8,1.928,0.8c0.757,0,1.401-0.265,1.932-0.795s0.795-1.171,0.795-1.924
				V236.253z"/>
			<path fill="#27515D" d="M551.519,236.253l4.724,12.987h-1.786l-1.672-4.594h-3.441l-1.664,4.594h-1.794l4.724-12.987H551.519z
				 M552.176,242.966l-1.112-3.044l-1.104,3.044H552.176z"/>
			<path fill="#27515D" d="M562.988,246.456c0,0.898-0.247,1.597-0.739,2.094c-0.525,0.53-1.161,0.795-1.907,0.795
				c-0.742,0-1.374-0.264-1.896-0.792c-0.522-0.527-0.783-1.229-0.783-2.106l1.331-0.52c0.151,0.822,0.344,1.328,0.576,1.518
				c0.173,0.146,0.406,0.219,0.698,0.219h0.033c0.308-0.005,0.562-0.105,0.763-0.3c0.163-0.167,0.244-0.495,0.244-0.982v-10.13h1.68
				V246.456z"/>
			<path fill="#27515D" d="M567.314,236.253v12.987h-1.68v-12.987H567.314z"/>
			<path fill="#27515D" d="M573.134,245.084H571.6v4.156h-1.68v-12.987h3.685c1.044,0.141,1.926,0.571,2.646,1.291
				c0.86,0.866,1.291,1.905,1.291,3.117c0,1.223-0.43,2.268-1.291,3.133c-0.595,0.595-1.05,0.931-1.364,1.006l2.881,4.44h-2.037
				L573.134,245.084z M571.6,237.941v5.455h1.534c0.747,0,1.387-0.267,1.92-0.799c0.533-0.533,0.799-1.178,0.799-1.936
				c0-0.752-0.267-1.393-0.799-1.924c-0.533-0.53-1.173-0.795-1.92-0.795H571.6z"/>
			<path fill="#27515D" d="M584.246,236.253l4.724,12.987h-1.786l-1.672-4.594h-3.441l-1.664,4.594h-1.794l4.724-12.987H584.246z
				 M584.903,242.966l-1.112-3.044l-1.104,3.044H584.903z"/>
		</g>
	</g>
	<g>
		<g>
			<polyline fill="none" stroke="#FFFFFF" stroke-width="2" points="284.695,32.67 405.945,185.55 486.537,185.55 			"/>
			<g>
				<circle fill="#FFFFFF" cx="284.766" cy="32.759" r="2.256"/>
			</g>
		</g>
	</g>
</g>
</svg>
