<?xml version="1.0" encoding="utf-8"?>
<!-- Generator: Adobe Illustrator 16.0.0, SVG Export Plug-In . SVG Version: 6.00 Build 0)  -->
<!DOCTYPE svg PUBLIC "-//W3C//DTD SVG 1.1//EN" "http://www.w3.org/Graphics/SVG/1.1/DTD/svg11.dtd">
<svg version="1.1" id="Capa_1" xmlns="http://www.w3.org/2000/svg" xmlns:xlink="http://www.w3.org/1999/xlink" x="0px" y="0px"
	 width="734.337px" height="413.176px" viewBox="0 0 734.337 413.176" enable-background="new 0 0 734.337 413.176"
	 xml:space="preserve">
<g>
	<g>
		<g>
			<path fill="#F39200" d="M208.305,175.52c-0.009,0.048-0.038,0.09-0.081,0.116c-0.041,0.026-0.092,0.032-0.138,0.019l-0.562-0.165
				l-0.526,0.033c-0.011,0-0.023,0-0.034-0.001l-0.471-0.068l-0.501,0.034c-0.022,0.001-0.045-0.001-0.066-0.008l-0.208-0.07
				c-0.026-0.009-0.05-0.023-0.069-0.042l-0.242-0.243l-0.551-0.396l-0.236,0.024l-1.491,1.05c-0.01,0.007-0.021,0.012-0.032,0.018
				l-1.109,0.476v2.282l0.025,0.223l0.27,0.221l0.936-0.123l0.885-0.409c0.022-0.011,0.048-0.017,0.073-0.017h0.223l0.303-0.212
				c0.021-0.015,0.048-0.025,0.074-0.03l0.244-0.034c0.034-0.005,0.07,0,0.102,0.017l0.209,0.104l0.305,0.226l0.83,0.933
				c0.024,0.031,0.038,0.069,0.038,0.109l0,0v0.152l0.056,0.228l0.123,0.184l0.23,0.26c0.021,0.024,0.035,0.055,0.041,0.087
				c0.004,0.032,0,0.065-0.013,0.096l-0.104,0.243l-0.469,0.69c-0.021,0.03-0.049,0.051-0.083,0.064l-0.556,0.208
				c-0.028,0.011-0.062,0.014-0.092,0.009l-0.764-0.14c-0.014-0.001-0.027-0.006-0.04-0.011l-0.312-0.139
				c-0.022-0.01-0.042-0.024-0.059-0.043l-0.24-0.268l-0.281,0.076l0,0c-0.036,0.011-0.074,0.007-0.11-0.007h-0.001l-0.395-0.165
				l-0.179-0.022l-0.362,0.307l-0.068,0.16l0.052,0.332l0.109,0.083l0.11,0.083c0.032,0.024,0.056,0.059,0.065,0.098l0.034,0.139
				l0.04,0.48c0.001,0.02-0.001,0.041-0.006,0.059l-0.104,0.383c-0.003,0.011-0.008,0.023-0.013,0.034l-0.51,0.986l-0.169,0.878
				c-0.012,0.057-0.05,0.105-0.104,0.128c-0.055,0.022-0.115,0.016-0.164-0.017l-0.392-0.261l-0.109-0.028l-0.365-0.028
				l-0.116,0.024l-0.019,0.011l-0.026,0.019l-0.293,0.456l-0.461,1.176l0.221,0.198c0.018,0.014,0.031,0.032,0.041,0.052
				l0.174,0.348c0.01,0.02,0.016,0.04,0.017,0.062l0.036,0.382l0.065,0.291l0.123,0.302l0.216,0.309l0.534,0.4
				c0.025,0.019,0.044,0.045,0.057,0.075l0.045,0.112l0.337,0.169l0.359,0.072l0.073,0.014l0.097-0.059l0.333-0.332l0.04-0.062
				l0.062-0.096l0.057-0.199l0.033-0.778c0.001-0.02,0.006-0.039,0.013-0.057l0.027-0.07l0.042-0.104l0.675-1.071
				c0.023-0.038,0.061-0.064,0.104-0.075l0.139-0.035c0.084-0.021,0.17,0.022,0.201,0.102l0.883,2.137l0.201,0.125l0.184,0.026
				l0.261-0.029l0.231-0.115l0.451-0.388l0.057-0.084c0.036-0.055,0.098-0.083,0.16-0.076c0.021,0.002,0.041,0.007,0.062,0.017
				l0.276,0.14c0.03,0.014,0.055,0.036,0.07,0.062l0.243,0.382c0.014,0.021,0.022,0.044,0.024,0.068l0.031,0.209l0.042,0.07
				l0.506,0.059l0.489-0.035l0.29,0c0.015,0,0.03,0.002,0.046,0.006l0.625,0.174l0.451,0.029c0.013,0,0.025,0.003,0.037,0.006
				l0.044,0.012l0.199,0.057c0.022,0.007,0.044,0.018,0.063,0.034l0.166,0.139l0.042,0.035l0,0l0,0
				c0.014,0.011,0.025,0.024,0.034,0.039l0.452,0.695l0.302,0.367l0.404,0.403l0.682,0.543l0.443,0.443l0.408-0.708l0.426-0.604
				l0.146-0.295l0.026-0.293l-0.179-0.299l-0.386-0.701c-0.017-0.03-0.023-0.067-0.02-0.103l0.033-0.312l0.111-0.378l0.699-1.37
				l-0.241-0.428l-0.369-0.185c-0.021-0.01-0.038-0.022-0.051-0.038c-0.042-0.046-0.058-0.113-0.035-0.175l0.208-0.59
				c0.008-0.021,0.019-0.041,0.034-0.058l0.556-0.625l0.498-0.463c0.012-0.011,0.025-0.021,0.04-0.029l0.348-0.173
				c0.018-0.009,0.037-0.015,0.057-0.018l0.277-0.034c0.028-0.004,0.056,0,0.083,0.01l0.248,0.093h0.288l0.371-0.124l0.308-0.184
				l0.19-0.222c0.016-0.019,0.035-0.034,0.056-0.044l0.661-0.313c0.023-0.011,0.049-0.016,0.075-0.016
				c0.023,0,0.05,0.005,0.073,0.016l0.159,0.075l0.343,0.159l0.281,0.057l0.222-0.083l0.184-0.461
				c0.005-0.012,0.011-0.022,0.018-0.032l0.959-1.439l0.133-0.395c0.015-0.046,0.05-0.085,0.095-0.104l0.532-0.232l0.19-0.158
				c0.013-0.011,0.028-0.021,0.044-0.027l0.416-0.174c0.022-0.008,0.045-0.013,0.068-0.013h0.312l0.461-0.067l0.84-0.271
				c0.018-0.005,0.035-0.009,0.053-0.009l0,0h0.488l0,0l0.846,0.167l0.401-0.185c0.015-0.007,0.03-0.012,0.047-0.015l0.691-0.104
				c0.025-0.004,0.052-0.002,0.077,0.005l0.834,0.243l0.865,0.365l0.039-0.011l-0.01-0.066l-0.004-0.026
				c-0.008-0.056,0.011-0.112,0.053-0.151l0.617-0.602l0.097-0.455c0.004-0.018,0.011-0.035,0.02-0.052l0.44-0.745l0.168-0.603
				c0.008-0.032,0.026-0.062,0.053-0.083l0.342-0.324l-0.117-0.439c-0.007-0.026-0.008-0.053-0.003-0.078
				c0.005-0.026,0.016-0.05,0.032-0.071l0.104-0.14c0.025-0.033,0.061-0.057,0.102-0.065l0.13-0.029l-0.05-0.168l-0.019-0.114
				l-0.057-0.361c-0.003-0.014-0.003-0.027-0.003-0.041l0.036-0.417c0.001-0.018,0.005-0.035,0.011-0.051l0.074-0.182l-0.111-0.042
				c-0.033-0.013-0.061-0.033-0.08-0.062l-0.174-0.243c-0.017-0.022-0.026-0.048-0.031-0.075c-0.004-0.027-0.002-0.055,0.008-0.082
				l0.069-0.208c0.018-0.052,0.058-0.093,0.109-0.109l0.312-0.104l0.371-0.074l-0.292-0.08c-0.024-0.006-0.046-0.019-0.064-0.034
				c-0.02-0.015-0.035-0.035-0.046-0.058c-0.022-0.044-0.024-0.096-0.005-0.143l0.417-1.007l0.117-0.54l-0.084-0.19l-0.138-0.046
				c-0.08-0.027-0.129-0.109-0.114-0.193l0,0v-0.001l0.034-0.208c0.004-0.027,0.014-0.051,0.029-0.073l0.175-0.243l0.179-0.364
				c-0.035-0.015-0.066-0.042-0.086-0.076l0,0l0,0l-0.173-0.312c-0.015-0.026-0.022-0.055-0.022-0.084v-0.727l-0.227-0.227l0,0
				c-0.01-0.011-0.02-0.021-0.026-0.034l-0.01-0.017l-0.058,0.038c-0.065,0.043-0.151,0.038-0.211-0.013l-0.315-0.256l-0.142,0.046
				c-0.011,0.004-0.022,0.007-0.035,0.008l-0.252,0.027l-0.058,0.06l-0.024,0.122l-0.185,0.449l-0.094,0.456
				c-0.004,0.017-0.011,0.034-0.019,0.049l-0.312,0.556c-0.022,0.038-0.058,0.067-0.1,0.08l-0.764,0.243
				c-0.041,0.013-0.083,0.01-0.121-0.005l-0.243-0.104l-1.002-0.676l-0.407-0.372l-0.374-0.114l-1.382,0.269l-1.414,0.43
				l-0.278,0.433l-0.259,0.298c-0.014,0.016-0.03,0.028-0.049,0.038l-0.45,0.244l-0.473,0.183c-0.015,0.006-0.031,0.01-0.049,0.012
				l-0.725,0.057l-0.054,0.483l0.035,0.843c0.002,0.029-0.005,0.059-0.018,0.084l-0.174,0.347c-0.008,0.014-0.016,0.027-0.025,0.038
				l-0.756,0.854v0.108l0,0c0,0.058-0.029,0.112-0.078,0.145l-0.208,0.139c-0.024,0.017-0.056,0.027-0.086,0.029l-0.563,0.033
				l-0.254,0.095l-0.33,0.166l-0.471,0.303l-0.336,0.275l-0.19,0.417c-0.007,0.012-0.014,0.024-0.022,0.035l-0.277,0.348
				l-0.266,0.434c-0.022,0.037-0.059,0.063-0.101,0.076l-0.243,0.069c-0.086,0.023-0.175-0.02-0.209-0.102l-0.317-0.779
				l-0.466,0.181c-0.057,0.022-0.12,0.013-0.17-0.025c-0.047-0.037-0.072-0.097-0.065-0.159l0.103-0.851l-0.031-0.377L213.743,174
				l-0.136-0.215l-0.263-0.118l-0.192-0.114c-0.016-0.009-0.03-0.021-0.042-0.035l-0.243-0.278c-0.021-0.024-0.035-0.054-0.04-0.085
				l-0.035-0.209c-0.003-0.017-0.004-0.035-0.002-0.053l0.035-0.243l0.031-0.409l-0.052-0.182l-0.052-0.071l-0.47-0.156
				c-0.021-0.007-0.04-0.018-0.056-0.031l-0.189-0.157l-0.145-0.062l-0.969,0.517c-0.024,0.014-0.053,0.021-0.082,0.021h-0.381
				c-0.027,0-0.054-0.007-0.077-0.019l-0.14-0.069l-0.889-0.34c-0.021-0.01-0.042-0.023-0.06-0.04l-0.209-0.209
				c-0.021-0.02-0.034-0.045-0.044-0.073l-0.087-0.293l-0.204-0.152l-0.244-0.062l-0.752-0.272h-0.074v0.588l0.092,0.207
				l0.271,0.081c0.085,0.025,0.137,0.112,0.121,0.199l-0.141,0.729l0.003,0.289l0.376,1.262c0.004,0.012,0.006,0.024,0.007,0.038
				l0.034,0.485l-0.034,0.478L208.305,175.52z"/>
		</g>
	</g>
	<g>
		<g>
			<g>
				<g>
					<path fill="#FFFFFF" d="M514.689,188.257h-7.4v-4.946c0-1.438-0.079-2.336-0.237-2.692s-0.507-0.535-1.046-0.535
						c-0.609,0-0.996,0.217-1.16,0.65s-0.246,1.371-0.246,2.812v13.219c0,1.383,0.082,2.285,0.246,2.707s0.533,0.633,1.107,0.633
						c0.551,0,0.911-0.211,1.081-0.634s0.255-1.416,0.255-2.978v-3.577h7.4v1.109c0,2.946-0.208,5.035-0.624,6.267
						c-0.416,1.232-1.336,2.312-2.76,3.239c-1.424,0.927-3.179,1.391-5.265,1.391c-2.168,0-3.955-0.393-5.361-1.178
						s-2.338-1.872-2.795-3.261s-0.686-3.478-0.686-6.267v-8.314c0-2.051,0.07-3.589,0.211-4.614s0.56-2.013,1.257-2.962
						s1.664-1.696,2.9-2.241s2.657-0.817,4.263-0.817c2.18,0,3.979,0.421,5.396,1.264c1.418,0.842,2.35,1.893,2.795,3.151
						s0.668,3.215,0.668,5.872V188.257z"/>
					<path fill="#FFFFFF" d="M530.136,175.865l4.232,28.459h-7.562l-0.397-5.115h-2.647l-0.445,5.115h-7.65l3.775-28.459H530.136z
						 M526.214,194.164c-0.375-3.224-0.75-7.208-1.127-11.953c-0.754,5.45-1.228,9.434-1.42,11.953H526.214z"/>
					<path fill="#FFFFFF" d="M543.025,175.865v22.764h4.5v5.695h-11.9v-28.459H543.025z"/>
					<path fill="#FFFFFF" d="M549.318,175.865h5.537c3.574,0,5.991,0.164,7.251,0.492s2.218,0.867,2.874,1.617
						s1.066,1.585,1.23,2.505s0.246,2.728,0.246,5.423v9.967c0,2.555-0.12,4.263-0.36,5.124s-0.659,1.535-1.257,2.021
						s-1.336,0.826-2.215,1.02s-2.203,0.29-3.973,0.29h-9.334V175.865z M556.719,180.734v18.721c1.066,0,1.723-0.214,1.969-0.642
						s0.369-1.591,0.369-3.489v-11.057c0-1.289-0.041-2.115-0.123-2.479s-0.27-0.63-0.562-0.8S557.527,180.734,556.719,180.734z"/>
					<path fill="#FFFFFF" d="M582.009,175.865l4.232,28.459h-7.562l-0.397-5.115h-2.647l-0.445,5.115h-7.65l3.775-28.459H582.009z
						 M578.087,194.164c-0.375-3.224-0.75-7.208-1.127-11.953c-0.754,5.45-1.228,9.434-1.42,11.953H578.087z"/>
					<path fill="#FFFFFF" d="M603.178,184.478h-6.873v-2.109c0-0.984-0.088-1.611-0.264-1.881s-0.469-0.404-0.879-0.404
						c-0.445,0-0.782,0.182-1.011,0.545s-0.343,0.915-0.343,1.653c0,0.95,0.128,1.666,0.386,2.146
						c0.245,0.481,0.941,1.061,2.091,1.74c3.294,1.955,5.369,3.56,6.225,4.813s1.283,3.275,1.283,6.064
						c0,2.027-0.237,3.521-0.712,4.482s-1.392,1.767-2.751,2.417s-2.941,0.976-4.746,0.976c-1.98,0-3.671-0.375-5.071-1.125
						s-2.317-1.705-2.751-2.865s-0.65-2.807-0.65-4.939v-1.863h6.873v3.463c0,1.066,0.097,1.752,0.29,2.057s0.536,0.457,1.028,0.457
						s0.858-0.193,1.099-0.58s0.36-0.961,0.36-1.723c0-1.676-0.229-2.771-0.686-3.287c-0.469-0.516-1.623-1.377-3.463-2.584
						c-1.84-1.219-3.059-2.104-3.656-2.654s-1.093-1.312-1.485-2.285s-0.589-2.215-0.589-3.727c0-2.18,0.278-3.773,0.835-4.781
						s1.456-1.796,2.698-2.364s2.742-0.853,4.5-0.853c1.922,0,3.56,0.311,4.913,0.932s2.25,1.403,2.689,2.347
						s0.659,2.546,0.659,4.808V184.478z"/>
				</g>
			</g>
		</g>
	</g>
	<g>
		<g>
			<path fill="#F2961C" d="M498.354,225.136v4.156h-1.68v-12.987h3.686c1.043,0.141,1.926,0.571,2.646,1.291
				c0.86,0.866,1.29,1.905,1.29,3.117c0,1.223-0.43,2.266-1.29,3.129c-0.86,0.863-1.899,1.295-3.117,1.295H498.354z
				 M498.354,217.993v5.455h1.534c0.747,0,1.387-0.267,1.92-0.799c0.532-0.533,0.8-1.178,0.8-1.936c0-0.752-0.268-1.393-0.8-1.924
				c-0.533-0.53-1.173-0.795-1.92-0.795H498.354z"/>
			<path fill="#F2961C" d="M512.584,226.427l1.681,0.601c-0.412,0.568-0.709,0.944-0.894,1.128
				c-0.903,0.904-1.994,1.355-3.271,1.355c-1.272,0-2.359-0.452-3.264-1.355s-1.355-1.994-1.355-3.271
				c0-1.277,0.451-2.368,1.355-3.271c0.904-0.903,1.991-1.355,3.264-1.355c1.276,0,2.367,0.452,3.271,1.355
				c0.185,0.184,0.481,0.555,0.894,1.112l-1.681,0.617c-0.217-0.265-0.362-0.436-0.438-0.511c-0.562-0.563-1.244-0.844-2.045-0.844
				c-0.796,0-1.477,0.283-2.042,0.848s-0.849,1.249-0.849,2.05c0,0.795,0.283,1.476,0.849,2.041s1.246,0.848,2.042,0.848
				c0.801,0,1.484-0.281,2.053-0.844C512.224,226.854,512.367,226.687,512.584,226.427z"/>
			<path fill="#F2961C" d="M517.445,216.305c2.11,0.011,3.755,0.608,4.935,1.793c1.294,1.304,1.94,2.871,1.94,4.7
				c0,1.834-0.646,3.401-1.94,4.7c-1.18,1.185-2.824,1.783-4.935,1.794h-1.233v-12.987H517.445z M517.892,218.018v9.57
				c1.337,0,2.433-0.43,3.287-1.291c0.963-0.963,1.445-2.129,1.445-3.499c0-1.363-0.482-2.529-1.445-3.498
				C520.324,218.445,519.229,218.018,517.892,218.018z"/>
			<path fill="#F2961C" d="M533.907,225.197c0.881-0.658,1.634-1.219,2.256-1.685s1.178-0.966,1.668-1.501s0.734-1.131,0.734-1.786
				s-0.23-1.212-0.693-1.672s-1.021-0.69-1.676-0.69c-0.645,0-1.199,0.23-1.664,0.69c-0.396,0.395-0.642,1.077-0.739,2.045
				l-1.681-0.608c0.174-1.125,0.576-2.008,1.21-2.646c0.796-0.801,1.753-1.201,2.874-1.201c1.131,0,2.092,0.398,2.885,1.193
				s1.189,1.759,1.189,2.89c0,1.115-0.385,2.086-1.152,2.914c-0.487,0.525-1.055,1.03-1.701,1.514s-1.365,1.024-2.154,1.619
				c-0.693,0.514-1.08,0.958-1.161,1.331h6.169v1.688h-8.142C532.433,227.22,533.024,225.854,533.907,225.197z"/>
			<path fill="#F2961C" d="M545.157,219.812c0.303-0.065,0.619-0.098,0.949-0.098c0.605,0,1.188,0.098,1.744,0.292
				c1.25,0.427,2.182,1.217,2.793,2.37c0.385,0.714,0.576,1.45,0.576,2.208c0,0.471-0.072,0.942-0.219,1.413
				c-0.385,1.255-1.152,2.194-2.306,2.816c-0.703,0.374-1.431,0.56-2.183,0.56c-0.477,0-0.959-0.076-1.445-0.227
				c-1.007-0.309-1.878-0.963-2.613-1.964l1.185-1.315c0.601,0.888,1.245,1.434,1.932,1.64c0.313,0.097,0.62,0.146,0.917,0.146
				c0.477,0,0.941-0.119,1.396-0.357c0.741-0.395,1.234-0.996,1.477-1.802c0.098-0.308,0.146-0.614,0.146-0.917
				c0-0.471-0.121-0.936-0.365-1.396c-0.4-0.747-1.006-1.261-1.818-1.542c-0.352-0.125-0.74-0.187-1.168-0.187
				c-0.58,0-1.32,0.144-2.225,0.43l-1.015-0.885l1.462-4.034v-0.657h4.756v1.68h-3.336L545.157,219.812z"/>
			<path fill="#F2961C" d="M554.99,227.385c0.229,0.227,0.345,0.503,0.345,0.828c0,0.335-0.115,0.617-0.345,0.844
				c-0.23,0.227-0.507,0.341-0.832,0.341c-0.319,0-0.595-0.114-0.828-0.341c-0.232-0.228-0.349-0.509-0.349-0.844
				c0-0.325,0.116-0.601,0.349-0.828c0.233-0.228,0.509-0.341,0.828-0.341C554.483,227.043,554.76,227.157,554.99,227.385z"/>
			<path fill="#F2961C" d="M563.388,224.316c-0.482,0.52-1.28,0.779-2.395,0.779c-1.121,0-2.051-0.371-2.793-1.112
				c-0.898-0.903-1.348-1.994-1.348-3.271c0-1.271,0.449-2.358,1.348-3.259s1.986-1.352,3.264-1.352
				c1.271,0,2.359,0.449,3.263,1.348c0.866,0.871,1.302,2.081,1.307,3.628v0.024c0,1.531-0.414,2.879-1.241,4.042
				c-0.834,1.169-1.959,2.552-3.377,4.148h-2.208C561.171,227.257,562.564,225.599,563.388,224.316z M564.361,220.712
				c0-0.801-0.282-1.482-0.849-2.045c-0.564-0.562-1.248-0.844-2.049-0.844c-0.796,0-1.477,0.282-2.041,0.844
				c-0.566,0.563-0.85,1.245-0.85,2.045s0.283,1.483,0.85,2.045c0.564,0.563,1.245,0.844,2.041,0.844
				c0.801,0,1.484-0.281,2.049-0.844C564.079,222.195,564.361,221.513,564.361,220.712z"/>
			<path fill="#F2961C" d="M573.887,221.211c-1.345,1.507-2.386,2.783-3.121,3.827c-0.735,1.044-1.131,2.462-1.185,4.253h-1.713
				c0.064-2.213,0.514-3.903,1.348-5.069c0.832-1.166,1.826-2.395,2.979-3.685s1.771-2.142,1.858-2.553h-6.169v-1.68h8.076
				C575.923,218.069,575.231,219.705,573.887,221.211z"/>
			<path fill="#F2961C" d="M580.554,221.281c0.482-0.52,1.28-0.779,2.395-0.779c1.121,0,2.051,0.371,2.793,1.112
				c0.898,0.904,1.348,1.994,1.348,3.271c0,1.271-0.449,2.358-1.348,3.259s-1.986,1.352-3.264,1.352
				c-1.271,0-2.359-0.449-3.263-1.348c-0.866-0.871-1.302-2.081-1.307-3.628v-0.024c0-1.532,0.413-2.879,1.241-4.042
				c0.834-1.169,1.959-2.551,3.377-4.147h2.208C582.771,218.34,581.376,219.998,580.554,221.281z M579.58,224.885
				c0,0.801,0.282,1.482,0.849,2.045c0.564,0.562,1.248,0.844,2.049,0.844c0.796,0,1.477-0.281,2.041-0.844
				c0.566-0.563,0.849-1.245,0.849-2.045s-0.282-1.483-0.849-2.046c-0.564-0.562-1.245-0.844-2.041-0.844
				c-0.801,0-1.484,0.281-2.049,0.844C579.862,223.402,579.58,224.084,579.58,224.885z"/>
			<path fill="#27515D" d="M506.724,246.147l1.258,1.128c-1.537,1.402-3.163,2.103-4.879,2.103c-1.834,0-3.398-0.647-4.691-1.94
				c-1.293-1.293-1.939-2.857-1.939-4.692c0-1.829,0.646-3.393,1.939-4.691s2.857-1.948,4.691-1.948
				c1.716,0,3.342,0.701,4.879,2.103l-1.258,1.145c-1.158-1.028-2.365-1.542-3.621-1.542c-1.357,0-2.52,0.482-3.486,1.445
				c-0.965,0.963-1.448,2.127-1.448,3.49c0,1.369,0.483,2.536,1.448,3.499c0.967,0.963,2.129,1.445,3.486,1.445
				C504.358,247.69,505.565,247.176,506.724,246.147z"/>
			<path fill="#27515D" d="M514.499,236.253l4.725,12.987h-1.786l-1.672-4.594h-3.441l-1.664,4.594h-1.794l4.725-12.987H514.499z
				 M515.157,242.966l-1.112-3.044l-1.104,3.044H515.157z"/>
			<path fill="#27515D" d="M520.847,249.24v-12.987h1.68v11.298h4.643v1.688H520.847z"/>
			<path fill="#27515D" d="M530.352,236.253c2.11,0.011,3.755,0.608,4.935,1.793c1.294,1.304,1.94,2.871,1.94,4.7
				c0,1.834-0.646,3.401-1.94,4.7c-1.18,1.185-2.824,1.783-4.935,1.794h-1.233v-12.987H530.352z M530.798,237.966v9.57
				c1.337,0,2.433-0.43,3.287-1.291c0.963-0.963,1.445-2.129,1.445-3.499c0-1.363-0.482-2.529-1.445-3.498
				C533.23,238.394,532.135,237.966,530.798,237.966z"/>
			<path fill="#27515D" d="M543.68,236.253l4.724,12.987h-1.785l-1.672-4.594h-3.441l-1.664,4.594h-1.795l4.725-12.987H543.68z
				 M544.337,242.966l-1.111-3.044l-1.104,3.044H544.337z"/>
			<path fill="#27515D" d="M553.793,242.576c-0.92-0.308-1.665-0.748-2.236-1.319s-0.856-1.278-0.856-2.123
				c0-0.828,0.297-1.54,0.889-2.135c0.593-0.595,1.312-0.893,2.155-0.893c0.833,0,1.548,0.295,2.144,0.885
				c0.335,0.325,0.616,0.842,0.844,1.55l-1.525,0.601c-0.185-0.498-0.353-0.823-0.504-0.974c-0.266-0.26-0.584-0.39-0.958-0.39
				c-0.378,0-0.7,0.131-0.966,0.394c-0.266,0.263-0.397,0.583-0.397,0.962s0.132,0.701,0.397,0.966
				c0.298,0.292,0.709,0.56,1.234,0.804c1.017,0.33,1.88,0.85,2.589,1.558c0.796,0.785,1.193,1.737,1.193,2.857
				s-0.396,2.077-1.189,2.869c-0.792,0.793-1.747,1.189-2.861,1.189c-1.12,0-2.075-0.398-2.865-1.193
				c-0.633-0.633-1.033-1.507-1.201-2.622l1.632-0.593c0.103,0.958,0.354,1.637,0.754,2.038c0.466,0.465,1.025,0.698,1.681,0.698
				s1.215-0.232,1.681-0.698c0.465-0.465,0.697-1.028,0.697-1.688c0-0.655-0.232-1.215-0.697-1.68
				C554.981,243.196,554.437,242.841,553.793,242.576z"/>
		</g>
	</g>
	<g>
		<g>
			<polyline fill="none" stroke="#FFFFFF" stroke-width="2" points="223.213,173.539 223.213,153.369 404.541,153.369 
				405.591,185.55 486.184,185.55 			"/>
			<g>
				<circle fill="#FFFFFF" cx="223.213" cy="173.426" r="2.256"/>
			</g>
		</g>
	</g>
</g>
</svg>
