<?xml version="1.0" encoding="utf-8"?>
<!-- Generator: Adobe Illustrator 22.0.1, SVG Export Plug-In . SVG Version: 6.00 Build 0)  -->
<svg version="1.1" id="Capa_1" xmlns="http://www.w3.org/2000/svg" xmlns:xlink="http://www.w3.org/1999/xlink" x="0px" y="0px"
	 viewBox="0 0 1277.9 601.8" style="enable-background:new 0 0 1277.9 601.8;" xml:space="preserve">
<style type="text/css">
	.st0{fill:#951B81;}
	.st1{fill:#FFFFFF;}
	.st2{fill:#E6332A;}
	.st3{fill:#A5A5A5;}
	.st4{font-family:'ArialMT';}
	.st5{font-size:14px;}
</style>
<g>
	<g>
		<g>
			<path class="st0" d="M835.2,265.7h-6.7v-4h6.7V265.7z M821.8,265.7h-6.7v-4h6.7V265.7z M808.4,265.7h-6.7v-4h6.7V265.7z
				 M795,265.7h-6.7v-4h6.7V265.7z M781.6,265.7h-6.7v-4h6.7V265.7z M768.2,265.7h-6.7v-4h6.7V265.7z M754.8,265.7h-6.7v-4h6.7
				V265.7z M741.4,265.7h-6.7v-4h6.7V265.7z M727.9,265.7h-6.7v-4h6.7V265.7z M714.5,265.7h-6.7v-4h6.7V265.7z M701.1,265.7h-6.7v-4
				h6.7V265.7z M687.7,265.7H681v-4h6.7V265.7z M674.3,265.7h-6.7v-4h6.7V265.7z M660.9,265.7h-6.7v-4h6.7V265.7z M647.5,265.7h-6.7
				v-4h6.7V265.7z M634.1,265.7h-6.7v-4h6.7V265.7z M620.7,265.7H614v-4h6.7V265.7z M607.3,265.7h-6.7v-4h6.7V265.7z M593.9,265.7
				h-6.7v-4h6.7V265.7z M580.5,265.7h-6.7v-4h6.7V265.7z M567.1,265.7h-6.7v-4h6.7V265.7z M553.6,265.7h-6.7v-4h6.7V265.7z
				 M540.2,265.7h-6.7v-4h6.7V265.7z M526.8,265.7h-6.7v-4h6.7V265.7z M513.4,265.7h-6.7v-4h6.7V265.7z M500,265.7h-6.7v-4h6.7
				V265.7z M486.6,265.7h-6.7v-4h6.7V265.7z M473.2,265.7h-6.7v-4h6.7V265.7z M459.8,265.7h-6.7v-4h6.7V265.7z M446.4,265.7h-6.7v-4
				h6.7V265.7z M433,265.7h-6.7v-4h6.7V265.7z M419.6,265.7h-6.7v-4h6.7V265.7z M406.2,265.7h-6.7v-4h6.7V265.7z M392.7,265.7H386
				v-4h6.7V265.7z M379.3,265.7h-6.7v-4h6.7V265.7z M365.9,265.7h-6.7v-4h6.7V265.7z M352.5,265.7h-6.7v-4h6.7V265.7z M339.1,265.7
				h-6.7v-4h6.7V265.7z M325.7,265.7H319v-4h6.7V265.7z M312.3,265.7h-6.7v-4h6.7V265.7z M298.9,265.7h-6.7v-4h6.7V265.7z
				 M285.5,265.7h-6.7v-4h6.7V265.7z M272.1,265.7h-6.7v-4h6.7V265.7z"/>
		</g>
		<g>
			<g>
				<path class="st0" d="M280.4,321.8c-33.6,6.9-66.5-14.7-73.4-48.3s14.7-66.5,48.3-73.4c33.6-6.9,66.5,14.7,73.4,48.3
					C335.6,282,314,314.8,280.4,321.8z"/>
			</g>
			<g>
				<path class="st0" d="M202.8,274.3c-7.4-35.8,15.7-71,51.5-78.4c35.8-7.4,71,15.7,78.4,51.5c7.4,35.8-15.7,71-51.5,78.4
					C245.4,333.3,210.2,310.2,202.8,274.3z M330.9,247.9c-7.2-34.8-41.4-57.3-76.2-50.1s-57.3,41.4-50.1,76.2
					c7.2,34.8,41.4,57.3,76.2,50.1C315.6,316.9,338.1,282.7,330.9,247.9z"/>
			</g>
			<g>
				<g>
					<path class="st1" d="M232.8,219.5c1.1-0.4,2.3-0.7,3.6-0.7c5.2,0,9.3,4,9.3,9.2c0,4.8-3.7,7.5-10.2,7.5c-1,0-2-0.1-3.3-0.2
						L232.8,219.5z M236.5,231c0.2,0,0.4,0,0.6,0c2.3,0,3.9-1.6,3.9-3.8c0-2.2-1.5-3.4-4.2-3.4L236.5,231z"/>
					<path class="st1" d="M257.5,231.6c-0.5,2.2-2.8,3.9-5.4,3.9c-3.1,0-5.9-2.7-5.9-5.9c0-3.2,2.8-5.7,6.2-5.7
						c3.2,0,5.2,2.3,5.2,6.1l-7.6,0.4c0.4,1.1,1.2,1.7,2.2,1.7c0.9,0,1.7-0.4,2.1-1.2L257.5,231.6z M253.5,227.9
						c-0.1-0.8-0.9-1.3-1.7-1.3c-1,0-1.8,0.6-1.7,1.4L253.5,227.9z"/>
					<path class="st1" d="M267.6,235.3V224h-3v-4.5h4.6c0.9,0,2.1,0.2,3,0.3v15.4L267.6,235.3L267.6,235.3z"/>
					<path class="st1" d="M277.9,224.7c0.5-0.1,1.1-0.2,1.6-0.2c3,0,5.1,2.2,5.1,5.2c0,3.2-2.6,5.6-5.8,5.6c-2.2,0-4.1-1.1-5.4-3.1
						l3.1-2c0.4,0.7,1.2,1.2,2,1.2c1.3,0,2.3-0.9,2.3-1.9c0-1-0.9-1.6-2.2-1.6c-1,0-1.7,0.3-2,0.9l-2.6-1.3l0-8.1h9.8v3.6h-6
						L277.9,224.7z"/>
					<path class="st1" d="M304.2,235.3h-3.7l-0.1-1.4c-0.7,1-1.8,1.5-3.2,1.5c-2.9,0-5.2-2.6-5.2-5.8c0-3.3,2.4-5.7,5.5-5.7
						c1.3,0,2.3,0.4,2.7,1.3l0-1.2h3.4L304.2,235.3z M298,231.7c1.1,0,2.1-1.2,2.1-2.5c0-1.1-0.9-2-2-2c-1.2,0-2.3,1-2.3,2.2
						S296.8,231.7,298,231.7z"/>
					<path class="st1" d="M237.4,252.6v-11.2h-3v-4.5h4.6c0.9,0,2.1,0.2,3,0.3v15.4L237.4,252.6L237.4,252.6z"/>
					<path class="st1" d="M254.6,241.7c0,1.4-0.6,2.3-1.8,2.8c1.3,0.4,2,1.7,2,3.3c0,2.8-2.5,4.9-5.8,4.9c-3,0-5.1-1.9-5.1-4.6
						c0-1.6,0.7-2.7,2.3-3.6c-1.2-0.7-2-2-2-3.4c0-2.4,2.3-4.3,5.2-4.3C252.4,236.8,254.6,239,254.6,241.7z M247.5,248.1
						c0,0.7,0.9,1.3,1.9,1.3c1,0,1.8-0.6,1.8-1.3c0-0.8-0.8-1.4-1.7-1.4C248.4,246.7,247.5,247.3,247.5,248.1z M249.5,243
						c0.8,0,1.6-0.7,1.6-1.6c0-0.9-0.7-1.6-1.6-1.6c-0.9,0-1.7,0.7-1.7,1.6S248.6,243,249.5,243z"/>
					<path class="st1" d="M273.8,252.6h-3.7l-0.1-1.4c-0.7,1-1.8,1.5-3.2,1.5c-2.9,0-5.2-2.6-5.2-5.8c0-3.3,2.4-5.7,5.5-5.7
						c1.3,0,2.3,0.4,2.7,1.3l0-1.2h3.4L273.8,252.6z M267.5,249.1c1.1,0,2.1-1.2,2.1-2.5c0-1.1-0.9-2-2-2c-1.2,0-2.3,1-2.3,2.2
						S266.4,249.1,267.5,249.1z"/>
					<path class="st1" d="M274.3,241.7l3.4-0.1v1.7c0.9-1.1,2.3-1.8,3.5-1.8c2.2,0,3.7,2.3,3.7,6c0,0.4,0,2.7,0,5.1h-3.7l0.1-5.7
						c0-1-0.6-1.7-1.4-1.7c-1,0-2,0.8-2,1.6c0,0.3,0,0.9,0,2.6c0,0.3,0,1.7,0,3.2h-3.5L274.3,241.7L274.3,241.7z M275.4,240.3
						c0.6-1.9,1.5-2.9,2.7-2.9c1.1,0,2.1,0.8,2.8,0.8c0.4,0,0.6-0.2,0.7-0.7l2.1,0.2c-0.4,2-1.1,3.1-2.2,3.1s-2.2-1-3-1
						c-0.4,0-0.6,0.2-0.7,0.7L275.4,240.3z"/>
					<path class="st1" d="M291.8,252.7c-3.2,0-6.1-2.8-6.1-6c0-3,2.8-5.6,6-5.6c3.2,0,6,2.7,6,5.7
						C297.7,249.9,294.9,252.7,291.8,252.7z M293.8,247c0-1.2-0.9-2.1-2-2.1c-1.2,0-2.1,0.9-2.1,2c0,1.2,0.9,2.2,2.1,2.2
						S293.8,248.2,293.8,247z"/>
					<path class="st1" d="M306.5,245.2c-1.3-0.7-2.2-1-3.2-1c-0.9,0-1.4,0.3-1.4,0.6c0,0.6,1.3,0.6,1.8,0.6c2.6,0,4.3,1.3,4.3,3.3
						c0,2.3-2.4,4.2-5.3,4.2c-1.8,0-3.7-0.8-4.7-1.9l2.2-2.4c0.7,0.6,1.6,0.9,2.6,0.9c0.9,0,1.5-0.3,1.5-0.7c0-0.6-1-0.5-1.6-0.5
						c-2.3,0-4.2-1.6-4.2-3.5c0-2,2.2-3.8,4.8-3.8c1.6,0,3.3,0.7,4.7,1.9L306.5,245.2z"/>
				</g>
			</g>
			<g>
				<path class="st1" d="M227.9,268.8v10.6h-0.6v-10.6h-2.8v-0.6h6.3v0.6H227.9z"/>
				<path class="st1" d="M235,271.9c1.1,0,2,0.4,2.7,1.1c0.7,0.8,1.1,1.7,1.1,2.7c0,1.1-0.4,2-1.1,2.7c-0.7,0.8-1.7,1.1-2.7,1.1
					c-1.1,0-2-0.4-2.7-1.1s-1.1-1.7-1.1-2.7c0-1.1,0.4-2,1.1-2.7C233,272.3,233.9,271.9,235,271.9z M232.8,273.5
					c-0.6,0.6-0.9,1.4-0.9,2.2c0,0.9,0.3,1.6,0.9,2.2c0.6,0.6,1.4,0.9,2.2,0.9s1.6-0.3,2.2-0.9s0.9-1.4,0.9-2.2s-0.3-1.6-0.9-2.2
					s-1.4-0.9-2.2-0.9S233.4,272.9,232.8,273.5z"/>
				<path class="st1" d="M241.5,272.5v-2.9h0.6v2.9h1.4v0.6h-1.4v6.2h-0.6v-6.2h-1.4v-0.6H241.5z"/>
				<path class="st1" d="M252.6,279.4H252V278c-0.1,0.2-0.3,0.3-0.4,0.5c-0.8,0.8-1.7,1.1-2.7,1.1c-1.1,0-2-0.4-2.7-1.1
					c-0.8-0.8-1.1-1.7-1.1-2.7c0-1.1,0.4-2,1.1-2.7c0.8-0.8,1.7-1.1,2.7-1.1c1.1,0,2,0.4,2.7,1.1c0.1,0.1,0.3,0.3,0.4,0.5v-1h0.6
					V279.4z M252,276.4v-1.2c-0.1-0.6-0.4-1.2-0.9-1.6c-0.6-0.6-1.4-0.9-2.2-0.9c-0.9,0-1.6,0.3-2.2,0.9c-0.6,0.6-0.9,1.4-0.9,2.2
					c0,0.9,0.3,1.6,0.9,2.2c0.6,0.6,1.4,0.9,2.2,0.9c0.9,0,1.6-0.3,2.2-0.9C251.6,277.5,251.9,277,252,276.4z"/>
				<path class="st1" d="M255.4,268.2v11.2h-0.6v-11.2H255.4z"/>
				<path class="st1" d="M269.2,278c-0.1,0.1-0.2,0.3-0.4,0.4c-0.8,0.8-1.7,1.1-2.7,1.1c-1.1,0-2-0.4-2.7-1.1
					c-0.8-0.8-1.1-1.7-1.1-2.7c0-1.1,0.4-2,1.1-2.7c0.8-0.7,1.7-1.1,2.7-1.1c1.1,0,2,0.4,2.7,1.1c0.1,0.1,0.3,0.3,0.4,0.5v-1h0.6
					v5.3c0,1-0.4,1.9-1.1,2.6c-0.8,0.8-1.7,1.1-2.7,1.1c-1.1,0-2-0.4-2.7-1.1c-0.2-0.2-0.3-0.3-0.4-0.5l0.7-0.2
					c0.1,0.1,0.1,0.2,0.2,0.2c0.6,0.6,1.4,0.9,2.2,0.9c0.9,0,1.6-0.3,2.2-0.9C268.8,279.5,269.1,278.8,269.2,278z M269.2,275.1
					c-0.1-0.6-0.4-1.1-0.9-1.6c-0.6-0.6-1.4-0.9-2.2-0.9s-1.6,0.3-2.2,0.9s-0.9,1.4-0.9,2.2c0,0.9,0.3,1.6,0.9,2.2s1.4,0.9,2.2,0.9
					s1.6-0.3,2.2-0.9c0.5-0.5,0.7-1,0.9-1.6V275.1z"/>
				<path class="st1" d="M273.3,278.1c0.6,0.5,1.3,0.8,2.1,0.8c0.9,0,1.6-0.3,2.2-0.9c0.1-0.1,0.2-0.2,0.2-0.2l0.7,0.2
					c-0.1,0.2-0.3,0.3-0.4,0.5c-0.8,0.8-1.7,1.1-2.7,1.1c-1.1,0-2-0.4-2.7-1.1c-0.8-0.8-1.1-1.7-1.1-2.7c0-1.1,0.4-2,1.1-2.7
					c0.8-0.8,1.7-1.1,2.7-1.1c0.9,0,1.7,0.3,2.4,0.8c0.1,0.1,0.2,0.2,0.3,0.3c0,0,0.1,0.1,0.1,0.1l-0.5,0.5L273.3,278.1z
					 M277.3,273.2c-0.5-0.4-1.2-0.6-1.9-0.6c-0.9,0-1.6,0.3-2.2,0.9c-0.6,0.6-0.9,1.4-0.9,2.2c0,0.7,0.2,1.4,0.6,1.9L277.3,273.2z"
					/>
				<path class="st1" d="M280.8,274.1v5.3h-0.6v-6.9h0.6v0.4c0.6-0.6,1.2-0.9,2-0.9c0.8,0,1.5,0.3,2,0.8c0.5,0.5,0.8,1.1,0.8,1.9
					v4.6h-0.6v-4.5c0-0.6-0.2-1.1-0.6-1.5c-0.4-0.4-0.9-0.6-1.5-0.6s-1.1,0.2-1.5,0.6C281.1,273.6,280.9,273.8,280.8,274.1z"/>
				<path class="st1" d="M289,278.1c0.6,0.5,1.3,0.8,2.1,0.8c0.9,0,1.6-0.3,2.2-0.9c0.1-0.1,0.2-0.2,0.2-0.2l0.7,0.2
					c-0.1,0.2-0.3,0.3-0.4,0.5c-0.8,0.8-1.7,1.1-2.7,1.1c-1.1,0-2-0.4-2.7-1.1s-1.1-1.7-1.1-2.7c0-1.1,0.4-2,1.1-2.7
					c0.8-0.8,1.7-1.1,2.7-1.1c0.9,0,1.7,0.3,2.4,0.8c0.1,0.1,0.2,0.2,0.3,0.3c0,0,0.1,0.1,0.1,0.1l-0.5,0.5L289,278.1z M293,273.2
					c-0.5-0.4-1.2-0.6-1.9-0.6c-0.9,0-1.6,0.3-2.2,0.9c-0.6,0.6-0.9,1.4-0.9,2.2c0,0.7,0.2,1.4,0.6,1.9L293,273.2z"/>
				<path class="st1" d="M295.9,272.5h0.6v1.3c0.1-0.2,0.3-0.4,0.5-0.5c0.6-0.6,1.1-0.8,1.7-0.9v0.7c-0.4,0-0.8,0.2-1.2,0.7
					c-0.6,0.6-0.9,1.3-0.9,2.1v3.5h-0.6V272.5z"/>
				<path class="st1" d="M307.5,279.4h-0.6V278c-0.1,0.2-0.3,0.3-0.4,0.5c-0.8,0.8-1.7,1.1-2.7,1.1c-1.1,0-2-0.4-2.7-1.1
					c-0.8-0.8-1.1-1.7-1.1-2.7c0-1.1,0.4-2,1.1-2.7c0.8-0.8,1.7-1.1,2.7-1.1c1.1,0,2,0.4,2.7,1.1c0.1,0.1,0.3,0.3,0.4,0.5v-1h0.6
					V279.4z M306.9,276.4v-1.2c-0.1-0.6-0.4-1.2-0.9-1.6c-0.6-0.6-1.4-0.9-2.2-0.9c-0.9,0-1.6,0.3-2.2,0.9c-0.6,0.6-0.9,1.4-0.9,2.2
					c0,0.9,0.3,1.6,0.9,2.2c0.6,0.6,1.4,0.9,2.2,0.9c0.9,0,1.6-0.3,2.2-0.9C306.5,277.5,306.8,277,306.9,276.4z"/>
				<path class="st1" d="M310.2,268.2v11.2h-0.6v-11.2H310.2z"/>
			</g>
			<g>
				<g>
					<path class="st1" d="M246.3,293.1h0.5l0.6-2.5h1.3l-0.6,2.5h2.5l-0.3,1.2h-2.5l-0.1,0.5h2.5l-0.3,1.2h-2.5l-0.6,2.5h-1.3
						l0.6-2.5h-0.5l-0.6,2.5h-1.3l0.6-2.5h-2.5l0.3-1.2h2.5l0.1-0.5h-2.5l0.3-1.2h2.5l0.6-2.5h1.3L246.3,293.1z M246.5,294.4H246
						l-0.1,0.5h0.5L246.5,294.4z"/>
					<path class="st1" d="M254,292.3c0.2,0,0.5-0.1,0.7-0.1c0.4,0,0.9,0.1,1.3,0.2c0.9,0.3,1.6,0.9,2.1,1.8c0.3,0.5,0.4,1.1,0.4,1.6
						c0,0.3-0.1,0.7-0.2,1c-0.3,0.9-0.9,1.6-1.7,2.1c-0.5,0.3-1.1,0.4-1.6,0.4c-0.4,0-0.7-0.1-1.1-0.2c-0.7-0.2-1.4-0.7-1.9-1.5
						l0.9-1c0.4,0.7,0.9,1.1,1.4,1.2c0.2,0.1,0.5,0.1,0.7,0.1c0.4,0,0.7-0.1,1-0.3c0.5-0.3,0.9-0.7,1.1-1.3c0.1-0.2,0.1-0.5,0.1-0.7
						c0-0.3-0.1-0.7-0.3-1c-0.3-0.6-0.7-0.9-1.3-1.1c-0.3-0.1-0.5-0.1-0.9-0.1c-0.4,0-1,0.1-1.6,0.3l-0.8-0.7l1.1-3v-0.5h3.5v1.2
						h-2.5L254,292.3z"/>
					<path class="st1" d="M264.3,289.7h1.1v5.8h0.8v1.2h-0.8v2.6h-1.2v-2.6h-3.9L264.3,289.7z M264.2,292.5l-1.8,3h1.8V292.5z"/>
					<path class="st1" d="M269.4,297.9c0.2,0.2,0.3,0.4,0.3,0.6c0,0.2-0.1,0.5-0.3,0.6c-0.2,0.2-0.4,0.3-0.6,0.3
						c-0.2,0-0.4-0.1-0.6-0.3s-0.3-0.4-0.3-0.6c0-0.2,0.1-0.4,0.3-0.6s0.4-0.3,0.6-0.3C269,297.7,269.2,297.8,269.4,297.9z"/>
					<path class="st1" d="M275.6,295.7c-0.4,0.4-0.9,0.6-1.8,0.6c-0.8,0-1.5-0.3-2.1-0.8c-0.7-0.7-1-1.5-1-2.4c0-0.9,0.3-1.7,1-2.4
						c0.7-0.7,1.5-1,2.4-1c0.9,0,1.7,0.3,2.4,1c0.6,0.6,1,1.5,1,2.7v0c0,1.1-0.3,2.1-0.9,3c-0.6,0.9-1.4,1.9-2.5,3.1h-1.6
						C274,297.8,275,296.6,275.6,295.7z M276.3,293c0-0.6-0.2-1.1-0.6-1.5c-0.4-0.4-0.9-0.6-1.5-0.6c-0.6,0-1.1,0.2-1.5,0.6
						s-0.6,0.9-0.6,1.5s0.2,1.1,0.6,1.5c0.4,0.4,0.9,0.6,1.5,0.6c0.6,0,1.1-0.2,1.5-0.6C276.1,294.1,276.3,293.6,276.3,293z"/>
					<path class="st1" d="M283.3,289.7v9.6h-1.2v-8h-0.9l1.3-1.6H283.3z"/>
					<path class="st1" d="M290.4,299.5c-1,0-1.8-0.3-2.4-0.9s-0.9-1.3-0.9-2.1c0-1,0.6-1.9,1.7-2.8c-0.5-0.6-0.8-1.2-0.8-1.8
						c0-0.6,0.2-1.1,0.7-1.6c0.4-0.4,1-0.7,1.6-0.7h0.2c0.6,0,1.2,0.2,1.6,0.7c0.4,0.4,0.7,1,0.7,1.6c0,0.6-0.3,1.2-0.9,1.8
						c1.2,0.8,1.8,1.8,1.8,2.8c0,0.8-0.3,1.5-0.9,2.1C292.2,299.2,291.4,299.5,290.4,299.5z M290.4,298.2c0.6,0,1.1-0.2,1.5-0.5
						s0.5-0.8,0.5-1.2c0-0.5-0.2-0.9-0.5-1.3c-0.3-0.4-0.8-0.6-1.5-0.8c-0.6,0.1-1.1,0.4-1.5,0.8c-0.3,0.4-0.5,0.8-0.5,1.3
						c0,0.5,0.2,0.9,0.5,1.2C289.3,298,289.8,298.2,290.4,298.2z M290.4,290.9C290.4,290.9,290.4,290.9,290.4,290.9
						c-0.3,0-0.6,0.1-0.8,0.3c-0.2,0.2-0.3,0.4-0.3,0.7c0,0.3,0.1,0.5,0.3,0.7c0.2,0.2,0.4,0.4,0.5,0.4c0.1,0,0.2,0.1,0.2,0.1
						c0.1,0,0.1,0,0.2-0.1c0.2-0.1,0.3-0.2,0.5-0.4c0.2-0.2,0.3-0.5,0.3-0.7c0-0.3-0.1-0.5-0.3-0.7c-0.2-0.2-0.4-0.3-0.7-0.3
						C290.5,290.9,290.5,290.9,290.4,290.9L290.4,290.9z"/>
					<path class="st1" d="M258.1,310.8l-0.8,0v-1.2c0.5,0,0.9,0,1.1-0.1s0.4-0.2,0.6-0.4c0.2-0.2,0.3-0.5,0.3-0.7
						c0-0.3-0.1-0.5-0.3-0.7c-0.2-0.2-0.4-0.3-0.7-0.3c-0.3,0-0.5,0.1-0.7,0.3c-0.1,0.1-0.2,0.4-0.4,0.7l-1.2-0.5
						c0.2-0.5,0.4-0.9,0.6-1.2c0.4-0.4,1-0.7,1.6-0.7c0.6,0,1.2,0.2,1.6,0.7c0.4,0.4,0.7,1,0.7,1.6c0,0.6-0.4,1.2-1.1,1.8
						c0.4,0,0.7,0.2,1.1,0.6c0.6,0.6,0.9,1.3,0.9,2.2c0,0.8-0.3,1.5-0.9,2.1c-0.6,0.6-1.3,0.9-2.1,0.9c-0.8,0-1.5-0.3-2.1-0.9
						c-0.5-0.5-0.8-1.1-0.9-2l1.2-0.5c0.1,0.7,0.3,1.2,0.5,1.5c0.3,0.3,0.8,0.5,1.2,0.5c0.5,0,0.9-0.2,1.2-0.5
						c0.3-0.3,0.5-0.8,0.5-1.2c0-0.5-0.2-0.9-0.5-1.3C259.3,311.2,258.8,311,258.1,310.8z"/>
					<path class="st1" d="M265,314.1l-1.4,2.9h-1.2l0.8-2.9H265z"/>
					<path class="st1" d="M270.9,312.1c-0.4,0.4-0.9,0.6-1.8,0.6c-0.8,0-1.5-0.3-2.1-0.8c-0.7-0.7-1-1.5-1-2.4c0-0.9,0.3-1.7,1-2.4
						s1.5-1,2.4-1c0.9,0,1.7,0.3,2.4,1c0.6,0.6,1,1.5,1,2.7v0c0,1.1-0.3,2.1-0.9,3c-0.6,0.9-1.4,1.9-2.5,3.1h-1.6
						C269.3,314.3,270.3,313,270.9,312.1z M271.6,309.4c0-0.6-0.2-1.1-0.6-1.5c-0.4-0.4-0.9-0.6-1.5-0.6c-0.6,0-1.1,0.2-1.5,0.6
						c-0.4,0.4-0.6,0.9-0.6,1.5c0,0.6,0.2,1.1,0.6,1.5s0.9,0.6,1.5,0.6c0.6,0,1.1-0.2,1.5-0.6C271.4,310.5,271.6,310,271.6,309.4z"
						/>
					<path class="st1" d="M276.6,308.8c0.3,0.3,0.5,0.7,0.5,1.2c0,0.5-0.2,0.8-0.5,1.2c-0.3,0.3-0.7,0.5-1.2,0.5s-0.8-0.2-1.2-0.5
						s-0.5-0.7-0.5-1.2c0-0.5,0.2-0.8,0.5-1.2s0.7-0.5,1.2-0.5S276.3,308.5,276.6,308.8z M280.4,308l-5.5,7.9l-1-0.7l5.5-7.9
						L280.4,308z M275.5,309.5c-0.1,0-0.2,0-0.3,0.1s-0.1,0.2-0.1,0.3c0,0.1,0,0.2,0.1,0.3s0.2,0.1,0.3,0.1s0.2,0,0.3-0.1
						c0.1-0.1,0.1-0.2,0.1-0.3c0-0.1,0-0.2-0.1-0.3C275.7,309.6,275.6,309.5,275.5,309.5z M279.9,312.1c0.3,0.3,0.5,0.7,0.5,1.2
						c0,0.5-0.2,0.9-0.5,1.2c-0.3,0.3-0.7,0.5-1.2,0.5c-0.5,0-0.8-0.2-1.2-0.5c-0.3-0.3-0.5-0.7-0.5-1.2c0-0.5,0.2-0.8,0.5-1.2
						c0.3-0.3,0.7-0.5,1.2-0.5C279.2,311.6,279.6,311.8,279.9,312.1z M278.8,312.8c-0.1,0-0.2,0-0.3,0.1c-0.1,0.1-0.1,0.2-0.1,0.3
						c0,0.1,0,0.2,0.1,0.3s0.2,0.1,0.3,0.1s0.2,0,0.3-0.1s0.1-0.2,0.1-0.3c0-0.1,0-0.2-0.1-0.3C279,312.9,278.9,312.8,278.8,312.8z"
						/>
				</g>
			</g>
		</g>
		<g>
			<g>
				<path class="st0" d="M420.1,310.7c-23.8,4.9-47.1-10.4-52-34.2c-4.9-23.8,10.4-47.1,34.2-52.1c23.8-4.9,47.1,10.4,52,34.2
					C459.2,282.4,443.9,305.7,420.1,310.7z"/>
			</g>
			<g>
				<path class="st0" d="M361.2,277.8c-5.6-27.3,12-54,39.2-59.6c27.3-5.6,54,12,59.6,39.2c5.6,27.3-12,54-39.2,59.6
					C393.6,322.7,366.8,305.1,361.2,277.8z M457.7,257.9c-5.4-26-30.9-42.7-56.8-37.4c-26,5.4-42.7,30.9-37.4,56.8
					c5.4,26,30.9,42.7,56.8,37.4C446.3,309.4,463.1,283.9,457.7,257.9z"/>
			</g>
			<g>
				<path class="st0" d="M362.5,214.7l0.7,0.7l-5.1,4.9l5.3,5.5l5.1-4.9l0.7,0.7l-5.1,4.9l6,6.3l-0.7,0.7l-12.8-13.3L362.5,214.7z"
					/>
				<path class="st0" d="M378,223.4c1.3,0.2,2.5,0,3.7-0.7c1.2-0.8,2-1.9,2.3-3.3c0-0.2,0.1-0.4,0.1-0.5l1.1-0.2
					c0,0.3-0.1,0.7-0.2,1c-0.4,1.7-1.3,3-2.8,4c-1.5,0.9-3.1,1.2-4.8,0.8c-1.7-0.4-3-1.3-4-2.8c-0.9-1.5-1.2-3.1-0.8-4.8
					c0.4-1.7,1.3-3,2.8-3.9c1.3-0.8,2.6-1.1,4-0.9c0.2,0,0.5,0.1,0.7,0.1c0.1,0,0.2,0,0.3,0.1l-0.2,1.1L378,223.4z M379.3,213.1
					c-1.1-0.1-2.2,0.2-3.2,0.8c-1.2,0.8-2,1.8-2.3,3.3c-0.3,1.4-0.1,2.7,0.7,3.9c0.6,1,1.5,1.7,2.5,2.1L379.3,213.1z"/>
				<path class="st0" d="M385.5,208.7l1-0.3l0.1,0.3c0.4-0.8,1.1-1.3,1.9-1.6c0.9-0.3,1.7-0.2,2.6,0.2c0.2,0.1,0.4,0.3,0.6,0.4
					c0.1-0.2,0.2-0.5,0.3-0.7c0.4-0.8,1.1-1.4,2-1.6c0.9-0.3,1.7-0.2,2.6,0.2c0.8,0.4,1.3,1,1.6,1.9l2.6,8.4l-1,0.3l-2.6-8.4l0,0
					c-0.2-0.6-0.6-1-1.1-1.3c-0.6-0.3-1.2-0.4-1.8-0.2c-0.6,0.2-1.1,0.6-1.4,1.1c-0.3,0.6-0.4,1.2-0.2,1.8l2.5,8.2l-1,0.3l-2.6-8.4
					l0,0c-0.2-0.6-0.6-1-1.1-1.3c-0.6-0.3-1.2-0.4-1.8-0.2c-0.6,0.2-1.1,0.6-1.4,1.1c-0.3,0.5-0.3,1-0.2,1.6l2.6,8.4l-1,0.3
					L385.5,208.7z"/>
				<path class="st0" d="M406,213.3c1,0.9,2.2,1.3,3.5,1.2c1.4-0.1,2.7-0.6,3.6-1.7c0.1-0.1,0.2-0.3,0.4-0.4l1.1,0.4
					c-0.2,0.3-0.4,0.6-0.6,0.8c-1.2,1.3-2.7,2-4.4,2c-1.7,0.1-3.3-0.5-4.5-1.7s-2-2.7-2-4.4c-0.1-1.7,0.5-3.3,1.7-4.5
					c1.2-1.3,2.7-2,4.4-2c1.5-0.1,2.8,0.3,4,1.2c0.2,0.1,0.4,0.3,0.6,0.5c0.1,0.1,0.1,0.1,0.2,0.2l-0.8,0.8L406,213.3z M412.4,204.9
					c-0.9-0.7-2-1-3.2-0.9c-1.4,0.1-2.6,0.6-3.6,1.7c-1,1.1-1.4,2.3-1.4,3.8c0,1.2,0.4,2.2,1.2,3.1L412.4,204.9z"/>
				<path class="st0" d="M420.1,206.9l-1.7,8.6l-1-0.2l2.1-11.1l1,0.2l-0.1,0.7c1.1-0.7,2.3-1,3.5-0.8c1.3,0.3,2.3,0.9,3,1.9
					c0.7,1,0.9,2.1,0.7,3.4l-1.4,7.4l-1-0.2l1.4-7.3c0.2-0.9,0-1.8-0.6-2.6c-0.6-0.8-1.3-1.3-2.2-1.5c-0.9-0.2-1.8,0-2.6,0.5
					C420.7,206.3,420.3,206.6,420.1,206.9z"/>
				<path class="st0" d="M434.3,208l-3.8,10.7l-1-0.3l3.8-10.7L434.3,208z M435.8,204.6c0.1,0.3,0.1,0.5,0,0.8
					c-0.1,0.3-0.3,0.5-0.5,0.6c-0.3,0.1-0.5,0.1-0.8,0c-0.3-0.1-0.5-0.3-0.6-0.5c-0.1-0.3-0.1-0.5,0-0.8c0.1-0.3,0.3-0.5,0.5-0.6
					c0.3-0.1,0.5-0.1,0.8,0C435.5,204.1,435.7,204.3,435.8,204.6z"/>
				<path class="st0" d="M439,212.6l-4.2,7.7l-0.9-0.5l5.4-9.9l0.9,0.5l-0.3,0.6c1.3-0.4,2.5-0.3,3.6,0.3c1.2,0.6,1.9,1.5,2.3,2.7
					c0.3,1.1,0.2,2.3-0.4,3.4l-3.6,6.7l-0.9-0.5l3.6-6.6c0.5-0.8,0.5-1.7,0.3-2.7c-0.3-0.9-0.9-1.6-1.7-2.1
					c-0.8-0.5-1.7-0.6-2.6-0.3C439.8,212.1,439.4,212.3,439,212.6z"/>
				<path class="st0" d="M457,220.5c1.3,1.2,2,2.6,2.1,4.4c0.1,1.7-0.5,3.3-1.6,4.6c-1.2,1.3-2.6,2-4.4,2.1s-3.3-0.5-4.6-1.6
					c-1.3-1.2-2-2.6-2.1-4.4c-0.1-1.7,0.5-3.3,1.6-4.6c1.2-1.3,2.6-2,4.4-2.1C454.2,218.8,455.7,219.4,457,220.5z M452.5,220
					c-1.4,0.1-2.6,0.6-3.6,1.7c-1,1.1-1.4,2.3-1.3,3.8c0.1,1.4,0.6,2.6,1.7,3.6c1.1,1,2.3,1.4,3.8,1.4c1.4-0.1,2.6-0.6,3.6-1.7
					c1-1.1,1.4-2.3,1.3-3.8c-0.1-1.4-0.6-2.6-1.7-3.6C455.2,220.4,453.9,219.9,452.5,220z"/>
			</g>
			<g>
				<g>
					<path class="st1" d="M384.4,258.5h0.6l0.7-3h1.5l-0.7,3h3l-0.4,1.5h-3l-0.2,0.6h3l-0.4,1.5h-3l-0.7,3h-1.5l0.7-3h-0.6l-0.7,3
						h-1.5l0.8-3h-3l0.4-1.5h3l0.2-0.6h-3l0.4-1.5h3l0.7-3h1.5L384.4,258.5z M384.6,260H384l-0.2,0.6h0.6L384.6,260z"/>
					<path class="st1" d="M393.2,262.4c0.8-0.6,1.5-1.1,2-1.5s1.1-0.9,1.5-1.4c0.4-0.5,0.7-1,0.7-1.6c0-0.6-0.2-1.1-0.6-1.5
						c-0.4-0.4-0.9-0.6-1.5-0.6c-0.6,0-1.1,0.2-1.5,0.6c-0.4,0.4-0.6,1-0.7,1.8l-1.5-0.5c0.2-1,0.5-1.8,1.1-2.4
						c0.7-0.7,1.6-1.1,2.6-1.1c1,0,1.9,0.4,2.6,1.1c0.7,0.7,1.1,1.6,1.1,2.6c0,1-0.3,1.9-1,2.6c-0.4,0.5-0.9,0.9-1.5,1.4
						c-0.6,0.4-1.2,0.9-1.9,1.5c-0.6,0.5-1,0.9-1,1.2h5.6v1.5h-7.3C391.9,264.2,392.4,262.9,393.2,262.4z"/>
					<path class="st1" d="M408.9,262.1c0,1.1-0.4,2.1-1.2,2.9c-0.8,0.8-1.8,1.2-2.9,1.2c-1.1,0-2.1-0.4-2.9-1.2
						c-0.8-0.8-1.2-1.8-1.2-2.9v-3.6c0-1.1,0.4-2.1,1.2-2.9c0.8-0.8,1.8-1.2,2.9-1.2c1.1,0,2.1,0.4,2.9,1.2c0.8,0.8,1.2,1.8,1.2,2.9
						V262.1z M407.4,258.5c0-0.7-0.3-1.3-0.8-1.8c-0.5-0.5-1.1-0.8-1.8-0.8c-0.7,0-1.3,0.3-1.8,0.8c-0.5,0.5-0.8,1.1-0.8,1.8v3.6
						c0,0.7,0.3,1.3,0.8,1.8c0.5,0.5,1.1,0.8,1.8,0.8c0.7,0,1.3-0.3,1.8-0.8c0.5-0.5,0.8-1.1,0.8-1.8V258.5z"/>
					<path class="st1" d="M412,264.3c0.2,0.2,0.3,0.5,0.3,0.7c0,0.3-0.1,0.6-0.3,0.8s-0.5,0.3-0.8,0.3c-0.3,0-0.5-0.1-0.7-0.3
						s-0.3-0.5-0.3-0.8c0-0.3,0.1-0.5,0.3-0.7c0.2-0.2,0.5-0.3,0.7-0.3C411.5,264,411.8,264.1,412,264.3z"/>
					<path class="st1" d="M421.9,262.1c0,1.1-0.4,2.1-1.2,2.9c-0.8,0.8-1.8,1.2-2.9,1.2c-1.1,0-2.1-0.4-2.9-1.2
						c-0.8-0.8-1.2-1.8-1.2-2.9v-3.6c0-1.1,0.4-2.1,1.2-2.9c0.8-0.8,1.8-1.2,2.9-1.2c1.1,0,2.1,0.4,2.9,1.2c0.8,0.8,1.2,1.8,1.2,2.9
						V262.1z M420.4,258.5c0-0.7-0.3-1.3-0.8-1.8c-0.5-0.5-1.1-0.8-1.8-0.8c-0.7,0-1.3,0.3-1.8,0.8c-0.5,0.5-0.8,1.1-0.8,1.8v3.6
						c0,0.7,0.3,1.3,0.8,1.8c0.5,0.5,1.1,0.8,1.8,0.8c0.7,0,1.3-0.3,1.8-0.8c0.5-0.5,0.8-1.1,0.8-1.8V258.5z"/>
					<path class="st1" d="M426.8,260l-0.9,0v-1.5c0.7,0,1.1-0.1,1.3-0.1c0.2-0.1,0.4-0.3,0.7-0.5c0.2-0.3,0.4-0.6,0.4-0.9
						c0-0.3-0.1-0.6-0.4-0.9c-0.2-0.2-0.5-0.3-0.9-0.3c-0.3,0-0.6,0.1-0.8,0.3c-0.1,0.1-0.3,0.4-0.5,0.9l-1.4-0.6
						c0.2-0.7,0.5-1.1,0.8-1.4c0.5-0.5,1.2-0.8,1.9-0.8c0.8,0,1.4,0.3,2,0.8c0.5,0.5,0.8,1.2,0.8,1.9c0,0.8-0.5,1.5-1.4,2.2
						c0.4,0,0.9,0.3,1.4,0.7c0.7,0.8,1,1.6,1,2.6c0,1-0.4,1.9-1.1,2.6c-0.7,0.7-1.6,1.1-2.6,1.1c-1,0-1.9-0.4-2.6-1.1
						c-0.6-0.6-0.9-1.4-1.1-2.4l1.5-0.5c0.1,0.9,0.3,1.5,0.7,1.8c0.4,0.4,0.9,0.6,1.5,0.6c0.6,0,1.1-0.2,1.5-0.6s0.6-0.9,0.6-1.5
						c0-0.6-0.2-1.1-0.6-1.6S427.7,260.2,426.8,260z"/>
					<path class="st1" d="M436.7,266.2c-1.2,0-2.2-0.4-2.9-1.1s-1.1-1.6-1.1-2.6c0-1.2,0.7-2.4,2.1-3.4c-0.7-0.7-1-1.4-1-2.2
						c0-0.7,0.3-1.4,0.8-1.9s1.2-0.8,2-0.8h0.2c0.8,0,1.4,0.3,2,0.8c0.5,0.5,0.8,1.2,0.8,1.9c0,0.8-0.4,1.5-1.1,2.2
						c1.4,1,2.1,2.1,2.1,3.4c0,1-0.4,1.9-1.1,2.6C438.9,265.8,437.9,266.2,436.7,266.2z M436.7,264.6c0.8,0,1.4-0.2,1.8-0.6
						c0.4-0.4,0.6-0.9,0.6-1.5c0-0.6-0.2-1.1-0.6-1.6c-0.4-0.4-1-0.8-1.8-0.9c-0.8,0.2-1.4,0.5-1.8,0.9c-0.4,0.4-0.6,1-0.6,1.6
						c0,0.6,0.2,1.1,0.6,1.5S436,264.6,436.7,264.6z M436.7,255.7C436.7,255.7,436.6,255.7,436.7,255.7c-0.4,0-0.7,0.1-0.9,0.3
						c-0.2,0.2-0.4,0.5-0.4,0.9c0,0.3,0.1,0.6,0.4,0.9s0.5,0.4,0.7,0.5c0.1,0,0.2,0.1,0.3,0.1c0.1,0,0.2,0,0.3-0.1
						c0.2-0.1,0.4-0.2,0.7-0.5c0.2-0.3,0.4-0.6,0.4-0.9c0-0.3-0.1-0.6-0.4-0.9c-0.2-0.2-0.5-0.3-0.9-0.3
						C436.8,255.7,436.8,255.7,436.7,255.7L436.7,255.7z"/>
					<path class="st1" d="M399.5,274.3V286H398v-9.7h-1.1l1.5-2H399.5z"/>
					<path class="st1" d="M406.7,284l-1.7,3.5h-1.4l0.9-3.5H406.7z"/>
					<path class="st1" d="M413.6,274.3h1.3v7h1v1.5h-1v3.2h-1.5v-3.2h-4.8L413.6,274.3z M413.4,277.8l-2.2,3.6h2.2V277.8z"/>
					<path class="st1" d="M421.3,277.5c0.4,0.4,0.6,0.9,0.6,1.4s-0.2,1-0.6,1.4c-0.4,0.4-0.9,0.6-1.4,0.6s-1-0.2-1.4-0.6
						s-0.6-0.9-0.6-1.4s0.2-1,0.6-1.4s0.9-0.6,1.4-0.6S420.9,277.1,421.3,277.5z M425.8,276.6l-6.7,9.6l-1.2-0.9l6.7-9.6
						L425.8,276.6z M419.8,278.4c-0.1,0-0.3,0-0.4,0.1c-0.1,0.1-0.1,0.2-0.1,0.4c0,0.1,0,0.3,0.1,0.4c0.1,0.1,0.2,0.1,0.4,0.1
						s0.3,0,0.4-0.1c0.1-0.1,0.2-0.2,0.2-0.4c0-0.1-0.1-0.3-0.2-0.4C420.1,278.5,420,278.4,419.8,278.4z M425.3,281.6
						c0.4,0.4,0.6,0.9,0.6,1.4c0,0.6-0.2,1-0.6,1.4c-0.4,0.4-0.9,0.6-1.4,0.6c-0.6,0-1-0.2-1.4-0.6c-0.4-0.4-0.6-0.9-0.6-1.4
						c0-0.6,0.2-1,0.6-1.4c0.4-0.4,0.9-0.6,1.4-0.6C424.4,281,424.9,281.2,425.3,281.6z M423.9,282.5c-0.1,0-0.3,0-0.4,0.1
						c-0.1,0.1-0.1,0.2-0.1,0.4c0,0.1,0,0.3,0.1,0.4c0.1,0.1,0.2,0.1,0.4,0.1s0.3,0,0.4-0.1s0.2-0.2,0.2-0.4c0-0.1-0.1-0.3-0.2-0.4
						C424.1,282.5,424,282.5,423.9,282.5z"/>
				</g>
			</g>
		</g>
		<g>
			<g>
				<path class="st0" d="M565.7,310.8c-23.8,4.9-47.1-10.4-52-34.2c-4.9-23.8,10.4-47.1,34.2-52c23.8-4.9,47.1,10.4,52,34.2
					C604.8,282.5,589.5,305.8,565.7,310.8z"/>
			</g>
			<g>
				<path class="st0" d="M507.4,277.9c-5.6-27.3,12-54,39.2-59.6c27.2-5.6,54,12,59.6,39.2c5.6,27.2-12,54-39.2,59.6
					C539.8,322.7,513,305.1,507.4,277.9z M603.9,257.9c-5.4-26-30.9-42.7-56.8-37.4c-26,5.4-42.7,30.9-37.4,56.8
					c5.4,26,30.9,42.7,56.8,37.4C592.5,309.4,609.3,283.9,603.9,257.9z"/>
			</g>
			<g>
				<path class="st0" d="M499.8,220.9l13.4,3.6l-3.5-13.4l0.8-0.8l0,0.1l12.9,13l-0.7,0.7L511,212.4l3.6,13.6l-13.5-3.7l11.7,11.8
					l-0.7,0.7l-12.9-13l-0.1,0L499.8,220.9z"/>
				<path class="st0" d="M537.2,216.2l-0.9,0.5l-1-2.1c-0.1,0.3-0.1,0.7-0.2,1c-0.5,1.7-1.6,2.9-3.2,3.7c-1.6,0.8-3.2,0.9-4.8,0.4
					c-1.7-0.5-2.9-1.6-3.7-3.1c-0.8-1.6-0.9-3.2-0.4-4.8s1.6-2.9,3.1-3.7c1.6-0.8,3.2-0.9,4.8-0.4c0.3,0.1,0.6,0.2,0.9,0.4l-0.7-1.4
					l0.9-0.5L537.2,216.2z M534,212.2l-0.9-1.8c-0.6-0.8-1.5-1.4-2.5-1.7c-1.4-0.4-2.7-0.3-4,0.3c-1.3,0.7-2.2,1.7-2.6,3
					c-0.4,1.4-0.3,2.7,0.3,4c0.7,1.3,1.7,2.2,3,2.6c1.4,0.4,2.7,0.3,4-0.3c1.3-0.7,2.2-1.7,2.6-3C534.3,214.2,534.3,213.2,534,212.2
					z"/>
				<path class="st0" d="M542.1,208.9c-1-0.2-1.7-0.5-2.1-0.7c-0.6-0.4-1.1-0.9-1.2-1.7c-0.2-0.7-0.1-1.4,0.3-2.1s0.9-1.1,1.7-1.2
					c0.7-0.2,1.4-0.1,2,0.3c0.6,0.4,0.9,0.8,1.1,1.4l0,0.1l-0.8,0.6c-0.2-0.5-0.5-0.9-0.9-1.1c-0.4-0.2-0.8-0.3-1.2-0.1
					c-0.4,0.1-0.8,0.4-1,0.8s-0.3,0.8-0.2,1.3c0.1,0.4,0.4,0.8,0.8,1c0.2,0.1,0.7,0.3,1.4,0.5c1.1,0.3,1.9,0.6,2.4,0.9
					c0.8,0.5,1.3,1.2,1.5,2.1c0.2,0.9,0.1,1.8-0.4,2.6c-0.5,0.8-1.2,1.3-2.1,1.5c-0.9,0.2-1.7,0.1-2.5-0.4s-1.3-1.1-1.5-1.9l0.9-0.5
					c0.2,0.7,0.5,1.1,1.1,1.5s1.1,0.4,1.8,0.3c0.6-0.2,1.1-0.5,1.4-1.1c0.3-0.6,0.4-1.1,0.3-1.8c-0.2-0.6-0.5-1.1-1.1-1.4
					C543.5,209.5,542.9,209.2,542.1,208.9z"/>
				<path class="st0" d="M558.9,210.1l1.1,0.3c-0.2,0.3-0.4,0.6-0.6,0.8c-1.2,1.3-2.6,2-4.4,2.1c-1.7,0.1-3.3-0.5-4.6-1.6
					c-1.3-1.2-2-2.6-2.1-4.4c-0.1-1.7,0.5-3.3,1.6-4.6c1.2-1.3,2.6-2,4.4-2.1c1.8-0.1,3.3,0.5,4.6,1.6c0.3,0.2,0.5,0.5,0.7,0.8
					l-1.1,0.5c-0.1-0.1-0.3-0.3-0.4-0.4c-1.1-1-2.3-1.4-3.8-1.3c-1.4,0.1-2.6,0.6-3.6,1.7c-1,1.1-1.4,2.3-1.4,3.8
					c0.1,1.4,0.6,2.7,1.7,3.6c1.1,1,2.3,1.4,3.8,1.4c1.4-0.1,2.7-0.6,3.6-1.7C558.7,210.3,558.8,210.2,558.9,210.1z"/>
				<path class="st0" d="M567.3,214c-1.4-0.3-2.4-0.9-3.1-1.9c-0.7-1-0.9-2.1-0.7-3.4l1.3-6.9l1,0.2l-1.3,6.8
					c-0.2,0.9,0,1.8,0.6,2.6c0.6,0.8,1.3,1.3,2.3,1.5c0.9,0.2,1.8,0,2.6-0.6c0.8-0.5,1.3-1.3,1.5-2.2l1.3-6.8l1,0.2l-1.3,6.9
					c-0.3,1.2-0.9,2.2-1.8,2.9S568.6,214.3,567.3,214z"/>
				<path class="st0" d="M582.1,198.8l-6.1,17.4l-1-0.3l6.1-17.4L582.1,198.8z"/>
				<path class="st0" d="M584.9,207.6l-4.6,10.3l-0.9-0.4l4.6-10.3L584.9,207.6z M586.6,204.3c0.1,0.3,0.1,0.5,0,0.8
					c-0.1,0.3-0.3,0.4-0.6,0.5c-0.3,0.1-0.5,0.1-0.8,0c-0.3-0.1-0.4-0.3-0.5-0.6c-0.1-0.3-0.1-0.5,0-0.8c0.1-0.3,0.3-0.4,0.6-0.5
					c0.3-0.1,0.5-0.1,0.8,0C586.3,203.9,586.5,204.1,586.6,204.3z"/>
				<path class="st0" d="M589.2,212.6l-4.8,7.4l-0.9-0.6l6.1-9.5l0.9,0.6l-0.4,0.6c1.3-0.3,2.5-0.1,3.5,0.6c1.1,0.7,1.8,1.7,2.1,2.8
					c0.2,1.2,0,2.3-0.6,3.4l-4.1,6.4l-0.9-0.6l4.1-6.3c0.5-0.8,0.7-1.7,0.5-2.6c-0.2-0.9-0.7-1.7-1.5-2.2c-0.8-0.5-1.7-0.7-2.6-0.5
					C590,212.2,589.6,212.3,589.2,212.6z"/>
				<path class="st0" d="M606.6,221.8c1.2,1.3,1.8,2.8,1.7,4.5c0,1.7-0.7,3.2-2,4.4c-1.3,1.2-2.8,1.8-4.5,1.7c-1.7,0-3.2-0.7-4.4-2
					c-1.2-1.3-1.8-2.8-1.7-4.5c0-1.7,0.7-3.2,2-4.4c1.3-1.2,2.8-1.8,4.5-1.7C603.9,219.9,605.4,220.6,606.6,221.8z M602.1,221
					c-1.4,0-2.7,0.4-3.7,1.4c-1,1-1.6,2.2-1.6,3.7s0.4,2.7,1.4,3.7c1,1,2.2,1.6,3.7,1.6c1.4,0,2.7-0.4,3.7-1.4s1.6-2.2,1.6-3.7
					c0-1.4-0.4-2.7-1.4-3.7C604.8,221.6,603.5,221,602.1,221z"/>
			</g>
			<g>
				<g>
					<path class="st1" d="M533.1,259.9h0.6l0.7-3h1.5l-0.7,3h3l-0.4,1.5h-3l-0.2,0.6h3l-0.4,1.5h-3l-0.7,3H532l0.7-3h-0.6l-0.7,3
						h-1.5l0.8-3h-3l0.4-1.5h3l0.2-0.6h-3l0.4-1.5h3l0.7-3h1.5L533.1,259.9z M533.3,261.4h-0.6l-0.2,0.6h0.6L533.3,261.4z"/>
					<path class="st1" d="M541.9,263.8c0.8-0.6,1.5-1.1,2-1.5c0.6-0.4,1.1-0.9,1.5-1.4c0.4-0.5,0.7-1,0.7-1.6c0-0.6-0.2-1.1-0.6-1.5
						c-0.4-0.4-0.9-0.6-1.5-0.6c-0.6,0-1.1,0.2-1.5,0.6c-0.4,0.4-0.6,1-0.7,1.8l-1.5-0.5c0.2-1,0.5-1.8,1.1-2.4
						c0.7-0.7,1.6-1.1,2.6-1.1c1,0,1.9,0.4,2.6,1.1c0.7,0.7,1.1,1.6,1.1,2.6c0,1-0.3,1.9-1,2.6c-0.4,0.5-0.9,0.9-1.5,1.4
						c-0.6,0.4-1.2,0.9-1.9,1.5c-0.6,0.5-1,0.9-1,1.2h5.6v1.5h-7.3C540.6,265.6,541.1,264.4,541.9,263.8z"/>
					<path class="st1" d="M555.2,263c-0.4,0.5-1.2,0.7-2.2,0.7c-1,0-1.8-0.3-2.5-1c-0.8-0.8-1.2-1.8-1.2-2.9c0-1.1,0.4-2.1,1.2-2.9
						c0.8-0.8,1.8-1.2,2.9-1.2c1.1,0,2.1,0.4,2.9,1.2c0.8,0.8,1.2,1.9,1.2,3.3v0c0,1.4-0.4,2.6-1.1,3.6c-0.8,1.1-1.8,2.3-3,3.7h-2
						C553.2,265.6,554.5,264.2,555.2,263z M556.1,259.8c0-0.7-0.3-1.3-0.8-1.8c-0.5-0.5-1.1-0.8-1.8-0.8c-0.7,0-1.3,0.3-1.8,0.8
						c-0.5,0.5-0.8,1.1-0.8,1.8s0.3,1.3,0.8,1.8c0.5,0.5,1.1,0.8,1.8,0.8c0.7,0,1.3-0.3,1.8-0.8
						C555.9,261.1,556.1,260.5,556.1,259.8z"/>
					<path class="st1" d="M560.7,265.8c0.2,0.2,0.3,0.5,0.3,0.7c0,0.3-0.1,0.6-0.3,0.8s-0.5,0.3-0.7,0.3c-0.3,0-0.5-0.1-0.7-0.3
						c-0.2-0.2-0.3-0.5-0.3-0.8c0-0.3,0.1-0.5,0.3-0.7c0.2-0.2,0.5-0.3,0.7-0.3C560.2,265.5,560.5,265.6,560.7,265.8z"/>
					<path class="st1" d="M564.5,263.8c0.8-0.6,1.5-1.1,2-1.5c0.6-0.4,1.1-0.9,1.5-1.4s0.7-1,0.7-1.6c0-0.6-0.2-1.1-0.6-1.5
						c-0.4-0.4-0.9-0.6-1.5-0.6c-0.6,0-1.1,0.2-1.5,0.6c-0.4,0.4-0.6,1-0.7,1.8l-1.5-0.5c0.2-1,0.5-1.8,1.1-2.4
						c0.7-0.7,1.6-1.1,2.6-1.1c1,0,1.9,0.4,2.6,1.1c0.7,0.7,1.1,1.6,1.1,2.6c0,1-0.3,1.9-1,2.6c-0.4,0.5-0.9,0.9-1.5,1.4
						c-0.6,0.4-1.2,0.9-1.9,1.5c-0.6,0.5-1,0.9-1,1.2h5.6v1.5h-7.3C563.1,265.6,563.7,264.4,564.5,263.8z"/>
					<path class="st1" d="M576,267.6c-1.2,0-2.2-0.4-2.9-1.1c-0.7-0.7-1.1-1.6-1.1-2.6c0-1.2,0.7-2.4,2.1-3.4c-0.7-0.7-1-1.4-1-2.2
						c0-0.7,0.3-1.4,0.8-1.9c0.5-0.5,1.2-0.8,2-0.8h0.2c0.8,0,1.4,0.3,2,0.8c0.5,0.5,0.8,1.2,0.8,1.9c0,0.8-0.4,1.5-1.1,2.2
						c1.4,1,2.1,2.1,2.1,3.4c0,1-0.4,1.9-1.1,2.6C578.2,267.3,577.2,267.6,576,267.6z M576,266.1c0.8,0,1.4-0.2,1.8-0.6
						s0.6-0.9,0.6-1.5c0-0.6-0.2-1.1-0.6-1.6c-0.4-0.4-1-0.8-1.8-0.9c-0.8,0.2-1.4,0.5-1.8,0.9c-0.4,0.4-0.6,1-0.6,1.6
						c0,0.6,0.2,1.1,0.6,1.5S575.3,266.1,576,266.1z M576,257.2C576,257.2,575.9,257.2,576,257.2c-0.4,0-0.7,0.1-0.9,0.3
						c-0.2,0.2-0.4,0.5-0.4,0.9c0,0.3,0.1,0.6,0.4,0.9c0.2,0.3,0.5,0.4,0.7,0.5c0.1,0,0.2,0.1,0.3,0.1c0.1,0,0.2,0,0.3-0.1
						c0.2-0.1,0.4-0.2,0.7-0.5s0.4-0.6,0.4-0.9c0-0.3-0.1-0.6-0.4-0.9s-0.5-0.3-0.9-0.3C576.1,257.2,576.1,257.2,576,257.2
						L576,257.2z"/>
					<path class="st1" d="M587.3,255.8v11.7h-1.5v-9.7h-1.1l1.5-2H587.3z"/>
					<path class="st1" d="M545.1,283.8c0.8-0.6,1.5-1.1,2-1.5c0.6-0.4,1.1-0.9,1.5-1.4c0.4-0.5,0.7-1,0.7-1.6c0-0.6-0.2-1.1-0.6-1.5
						c-0.4-0.4-0.9-0.6-1.5-0.6c-0.6,0-1.1,0.2-1.5,0.6c-0.4,0.4-0.6,1-0.7,1.8l-1.5-0.5c0.2-1,0.5-1.8,1.1-2.4
						c0.7-0.7,1.6-1.1,2.6-1.1c1,0,1.9,0.4,2.6,1.1c0.7,0.7,1.1,1.6,1.1,2.6c0,1-0.3,1.9-1,2.6c-0.4,0.5-0.9,0.9-1.5,1.4
						s-1.2,0.9-1.9,1.5c-0.6,0.5-1,0.9-1,1.2h5.6v1.5h-7.3C543.8,285.6,544.3,284.4,545.1,283.8z"/>
					<path class="st1" d="M555.1,285.5l-1.7,3.5H552l0.9-3.5H555.1z"/>
					<path class="st1" d="M562.4,275.8v11.7h-1.5v-9.7h-1.1l1.5-2H562.4z"/>
					<path class="st1" d="M570.3,279c0.4,0.4,0.6,0.9,0.6,1.4s-0.2,1-0.6,1.4c-0.4,0.4-0.9,0.6-1.4,0.6c-0.6,0-1-0.2-1.4-0.6
						c-0.4-0.4-0.6-0.9-0.6-1.4c0-0.6,0.2-1,0.6-1.4c0.4-0.4,0.9-0.6,1.4-0.6C569.4,278.4,569.9,278.6,570.3,279z M574.9,278.1
						l-6.7,9.6l-1.2-0.9l6.7-9.6L574.9,278.1z M568.9,279.9c-0.1,0-0.3,0-0.4,0.1s-0.1,0.2-0.1,0.4c0,0.1,0,0.3,0.1,0.4
						c0.1,0.1,0.2,0.1,0.4,0.1s0.3,0,0.4-0.1s0.2-0.2,0.2-0.4c0-0.1-0.1-0.3-0.2-0.4C569.1,279.9,569,279.9,568.9,279.9z M574.3,283
						c0.4,0.4,0.6,0.9,0.6,1.4c0,0.6-0.2,1-0.6,1.4c-0.4,0.4-0.9,0.6-1.4,0.6c-0.6,0-1-0.2-1.4-0.6c-0.4-0.4-0.6-0.9-0.6-1.4
						c0-0.6,0.2-1,0.6-1.4c0.4-0.4,0.9-0.6,1.4-0.6C573.5,282.4,574,282.6,574.3,283z M572.9,283.9c-0.1,0-0.3,0-0.4,0.1
						c-0.1,0.1-0.1,0.2-0.1,0.4c0,0.1,0.1,0.3,0.1,0.4c0.1,0.1,0.2,0.1,0.4,0.1s0.3,0,0.4-0.1c0.1-0.1,0.2-0.2,0.2-0.4
						c0-0.1-0.1-0.3-0.2-0.4S573.1,283.9,572.9,283.9z"/>
				</g>
			</g>
		</g>
		<g>
			<g>
				<path class="st0" d="M705.9,310.8c-23.8,4.9-47.1-10.4-52-34.2c-4.9-23.8,10.4-47.1,34.2-52c23.8-4.9,47.1,10.4,52,34.2
					C745,282.6,729.7,305.9,705.9,310.8z"/>
			</g>
			<g>
				<path class="st0" d="M647,278c-5.6-27.3,12-54,39.2-59.6c27.3-5.6,54,12,59.6,39.2c5.6,27.2-12,54-39.2,59.6
					S652.7,305.2,647,278z M743.6,258c-5.4-26-30.9-42.7-56.8-37.4c-26,5.4-42.7,30.9-37.4,56.8c5.4,26,30.9,42.7,56.8,37.4
					C732.2,309.5,748.9,284,743.6,258z"/>
			</g>
			<g>
				<path class="st0" d="M631.3,232.3l0.6-0.9l18.9,1.2l-13.7-9.1l0.6-0.9l15.4,10.2l-0.6,0.9l-19.1-1.2l13.8,9.2l-0.6,0.9
					L631.3,232.3z"/>
				<path class="st0" d="M651.4,217.4c1.3-1.2,2.8-1.7,4.6-1.6c1.7,0.1,3.2,0.8,4.3,2.1c1.2,1.3,1.7,2.8,1.6,4.6
					c-0.1,1.7-0.8,3.2-2.1,4.4c-1.3,1.2-2.8,1.7-4.6,1.6c-1.7-0.1-3.2-0.8-4.3-2.1c-1.2-1.3-1.7-2.8-1.6-4.6
					C649.4,220,650.1,218.5,651.4,217.4z M650.4,221.8c-0.1,1.4,0.3,2.7,1.3,3.8s2.1,1.7,3.6,1.8c1.4,0.1,2.7-0.3,3.8-1.3
					c1.1-1,1.7-2.1,1.8-3.6s-0.3-2.7-1.3-3.8c-1-1.1-2.2-1.7-3.6-1.8c-1.4-0.1-2.7,0.3-3.8,1.3C651,219.1,650.5,220.3,650.4,221.8z"
					/>
				<path class="st0" d="M685.3,213.5l-1,0.3l-0.7-2.2c-0.1,0.3-0.2,0.6-0.4,0.9c-0.8,1.6-2,2.6-3.7,3.1c-1.7,0.5-3.3,0.4-4.8-0.4
					c-1.6-0.8-2.6-2-3.1-3.7c-0.5-1.7-0.4-3.3,0.4-4.8s2-2.6,3.7-3.1c1.7-0.5,3.3-0.4,4.8,0.4c0.3,0.2,0.6,0.3,0.9,0.5l-2.6-8.3
					l1-0.3L685.3,213.5z M682.8,209.1l-0.6-2c-0.5-0.9-1.2-1.6-2.2-2.1c-1.3-0.7-2.6-0.8-4-0.3c-1.4,0.4-2.4,1.3-3.1,2.6
					c-0.7,1.3-0.8,2.6-0.3,4c0.4,1.4,1.3,2.4,2.6,3.1c1.3,0.7,2.6,0.8,4,0.3c1.4-0.4,2.4-1.3,3.1-2.6
					C682.7,211.1,682.9,210.1,682.8,209.1z"/>
				<path class="st0" d="M690.7,210.8c1,0.8,2.2,1.2,3.5,1.2c1.4-0.1,2.6-0.6,3.6-1.7c0.1-0.1,0.2-0.3,0.3-0.4l1.1,0.3
					c-0.2,0.3-0.4,0.6-0.6,0.8c-1.2,1.3-2.6,2-4.4,2.1c-1.7,0.1-3.3-0.5-4.6-1.6s-2-2.6-2.1-4.4c-0.1-1.7,0.5-3.3,1.6-4.6
					c1.2-1.3,2.6-2,4.4-2.1c1.5-0.1,2.8,0.3,4,1.2c0.2,0.1,0.4,0.3,0.6,0.5c0.1,0.1,0.1,0.1,0.2,0.2l-0.7,0.8L690.7,210.8z
					 M696.9,202.4c-0.9-0.6-2-0.9-3.2-0.9c-1.4,0.1-2.6,0.6-3.6,1.7c-1,1.1-1.4,2.3-1.4,3.8c0.1,1.2,0.5,2.2,1.2,3.1L696.9,202.4z"
					/>
				<path class="st0" d="M704.8,203l-1.3,10.2l-1-0.1l1.3-10.2l-1.1-0.1l0.1-1l1.1,0.1l0.4-3c0.2-0.8,0.6-1.5,1.2-2.1
					c0.7-0.5,1.5-0.7,2.3-0.6c0.4,0.1,0.9,0.2,1.3,0.4l-0.4,0.9c-0.3-0.2-0.6-0.3-0.9-0.3c-0.5-0.1-1.1,0.1-1.6,0.5
					c-0.5,0.4-0.8,0.8-0.9,1.4l-0.4,3l2.3,0.3l-0.1,1L704.8,203z"/>
				<path class="st0" d="M711.2,203.1l-2.4,11.1l-1-0.2l2.4-11.1L711.2,203.1z M712.2,199.5c0.2,0.2,0.2,0.5,0.1,0.8
					c-0.1,0.3-0.2,0.5-0.5,0.7c-0.2,0.2-0.5,0.2-0.8,0.1c-0.3-0.1-0.5-0.2-0.7-0.4c-0.2-0.2-0.2-0.5-0.1-0.8
					c0.1-0.3,0.2-0.5,0.5-0.6c0.2-0.2,0.5-0.2,0.8-0.1C711.9,199.1,712.1,199.2,712.2,199.5z"/>
				<path class="st0" d="M716.5,207l-3.2,8.2l-1-0.4l4.1-10.6l1,0.4l-0.3,0.7c1.2-0.5,2.4-0.6,3.6-0.1c1.2,0.5,2.1,1.3,2.6,2.3
					c0.5,1.1,0.5,2.2,0.1,3.4l-2.7,7.1l-1-0.4l2.7-7c0.3-0.9,0.3-1.8-0.1-2.7c-0.4-0.9-1.1-1.5-1.9-1.8c-0.9-0.3-1.8-0.3-2.7,0
					C717.2,206.5,716.8,206.7,716.5,207z"/>
				<path class="st0" d="M730.3,210.6l-5.6,9.8l-0.9-0.5l5.6-9.8L730.3,210.6z M732.3,207.4c0.1,0.3,0,0.5-0.1,0.8
					c-0.1,0.3-0.4,0.4-0.6,0.5c-0.3,0.1-0.5,0-0.8-0.1c-0.2-0.1-0.4-0.4-0.5-0.6c-0.1-0.3,0-0.5,0.1-0.8c0.1-0.2,0.4-0.4,0.6-0.5
					c0.3-0.1,0.5,0,0.8,0.1C732.1,207,732.3,207.2,732.3,207.4z"/>
				<path class="st0" d="M737.2,229.9l-0.8-0.7l1.5-1.8c-0.3,0.1-0.7,0.1-1,0.2c-1.7,0.1-3.3-0.3-4.6-1.5c-1.3-1.1-2.1-2.6-2.2-4.3
					c-0.1-1.7,0.3-3.3,1.5-4.6c1.1-1.3,2.6-2.1,4.3-2.2c1.7-0.1,3.3,0.3,4.6,1.5c1.3,1.1,2.1,2.6,2.2,4.3c0,0.3,0,0.7,0,1l5.6-6.7
					l0.8,0.7L737.2,229.9z M739.6,225.4l1.3-1.6c0.5-0.9,0.7-1.9,0.6-3c-0.1-1.4-0.7-2.6-1.8-3.6c-1.1-0.9-2.4-1.3-3.8-1.2
					c-1.4,0.1-2.6,0.7-3.6,1.8s-1.3,2.4-1.2,3.8c0.1,1.4,0.7,2.6,1.8,3.6c1.1,0.9,2.4,1.3,3.8,1.2
					C737.9,226.4,738.8,226.1,739.6,225.4z"/>
				<path class="st0" d="M752.8,230.1c1,1.4,1.3,3,1,4.7c-0.3,1.7-1.2,3.1-2.7,4.1c-1.4,1-3,1.3-4.7,1c-1.7-0.3-3.1-1.2-4.1-2.6
					c-1-1.4-1.3-3-1-4.7c0.3-1.7,1.2-3.1,2.6-4.1c1.4-1,3-1.3,4.7-1C750.4,227.8,751.8,228.7,752.8,230.1z M748.5,228.5
					c-1.4-0.3-2.7,0-3.9,0.8c-1.2,0.8-1.9,1.9-2.2,3.4c-0.3,1.4,0,2.7,0.8,3.9c0.8,1.2,1.9,1.9,3.4,2.2c1.4,0.3,2.7,0,3.9-0.8
					c1.2-0.8,1.9-1.9,2.2-3.4c0.3-1.4,0-2.7-0.8-3.9C751,229.5,749.9,228.8,748.5,228.5z"/>
			</g>
			<g>
				<g>
					<path class="st1" d="M686,258.4h0.6l0.7-3h1.5l-0.7,3h3l-0.4,1.5h-3l-0.2,0.6h3l-0.4,1.5h-3l-0.7,3h-1.5l0.7-3h-0.6l-0.7,3
						h-1.6l0.8-3h-3l0.4-1.5h3l0.2-0.6h-3l0.4-1.5h3l0.7-3h1.5L686,258.4z M686.2,259.9h-0.6l-0.2,0.6h0.6L686.2,259.9z"/>
					<path class="st1" d="M696.4,259.9l-0.9,0v-1.5c0.7,0,1.1-0.1,1.3-0.1c0.2-0.1,0.4-0.3,0.7-0.5c0.2-0.3,0.4-0.6,0.4-0.9
						c0-0.3-0.1-0.6-0.4-0.9c-0.2-0.2-0.5-0.3-0.9-0.3c-0.3,0-0.6,0.1-0.8,0.3c-0.1,0.1-0.3,0.4-0.5,0.9l-1.4-0.6
						c0.2-0.7,0.5-1.1,0.8-1.4c0.5-0.5,1.2-0.8,1.9-0.8c0.8,0,1.4,0.3,2,0.8c0.5,0.5,0.8,1.2,0.8,1.9c0,0.8-0.5,1.5-1.4,2.2
						c0.4,0,0.9,0.3,1.4,0.7c0.7,0.8,1,1.6,1,2.6c0,1-0.4,1.9-1.1,2.6c-0.7,0.7-1.6,1.1-2.6,1.1c-1,0-1.9-0.4-2.6-1.1
						c-0.6-0.6-0.9-1.4-1.1-2.4l1.5-0.5c0.1,0.9,0.3,1.5,0.7,1.8c0.4,0.4,0.9,0.6,1.5,0.6c0.6,0,1.1-0.2,1.5-0.6
						c0.4-0.4,0.6-0.9,0.6-1.5c0-0.6-0.2-1.1-0.6-1.6C697.9,260.4,697.3,260.1,696.4,259.9z"/>
					<path class="st1" d="M708.1,261.4c-0.4,0.5-1.2,0.7-2.2,0.7c-1,0-1.8-0.3-2.5-1c-0.8-0.8-1.2-1.8-1.2-2.9
						c0-1.1,0.4-2.1,1.2-2.9c0.8-0.8,1.8-1.2,2.9-1.2c1.1,0,2.1,0.4,2.9,1.2c0.8,0.8,1.2,1.9,1.2,3.3v0c0,1.4-0.4,2.6-1.1,3.6
						c-0.8,1.1-1.8,2.3-3,3.7h-2C706.1,264.1,707.4,262.6,708.1,261.4z M709,258.2c0-0.7-0.3-1.3-0.8-1.8c-0.5-0.5-1.1-0.8-1.8-0.8
						c-0.7,0-1.3,0.3-1.8,0.8c-0.5,0.5-0.8,1.1-0.8,1.8s0.3,1.3,0.8,1.8c0.5,0.5,1.1,0.8,1.8,0.8c0.7,0,1.3-0.3,1.8-0.8
						C708.8,259.5,709,258.9,709,258.2z"/>
					<path class="st1" d="M688.2,281.9c0,1.1-0.4,2.1-1.2,2.9c-0.8,0.8-1.8,1.2-2.9,1.2c-1.1,0-2.1-0.4-2.9-1.2
						c-0.8-0.8-1.2-1.8-1.2-2.9v-3.6c0-1.1,0.4-2.1,1.2-2.9c0.8-0.8,1.8-1.2,2.9-1.2c1.1,0,2.1,0.4,2.9,1.2c0.8,0.8,1.2,1.8,1.2,2.9
						V281.9z M686.6,278.4c0-0.7-0.3-1.3-0.8-1.8c-0.5-0.5-1.1-0.8-1.8-0.8c-0.7,0-1.3,0.3-1.8,0.8s-0.8,1.1-0.8,1.8v3.6
						c0,0.7,0.3,1.3,0.8,1.8c0.5,0.5,1.1,0.8,1.8,0.8c0.7,0,1.3-0.3,1.8-0.8c0.5-0.5,0.8-1.1,0.8-1.8V278.4z"/>
					<path class="st1" d="M692,283.9l-1.7,3.5h-1.4l0.9-3.5H692z"/>
					<path class="st1" d="M701.5,281.9c0,1.1-0.4,2.1-1.2,2.9c-0.8,0.8-1.8,1.2-2.9,1.2c-1.1,0-2.1-0.4-2.9-1.2
						c-0.8-0.8-1.2-1.8-1.2-2.9v-3.6c0-1.1,0.4-2.1,1.2-2.9s1.8-1.2,2.9-1.2c1.1,0,2.1,0.4,2.9,1.2s1.2,1.8,1.2,2.9V281.9z
						 M700,278.4c0-0.7-0.3-1.3-0.8-1.8c-0.5-0.5-1.1-0.8-1.8-0.8c-0.7,0-1.3,0.3-1.8,0.8c-0.5,0.5-0.8,1.1-0.8,1.8v3.6
						c0,0.7,0.3,1.3,0.8,1.8c0.5,0.5,1.1,0.8,1.8,0.8c0.7,0,1.3-0.3,1.8-0.8c0.5-0.5,0.8-1.1,0.8-1.8V278.4z"/>
					<path class="st1" d="M706.1,277.4c0.4,0.4,0.6,0.9,0.6,1.4c0,0.6-0.2,1-0.6,1.4c-0.4,0.4-0.9,0.6-1.4,0.6c-0.6,0-1-0.2-1.4-0.6
						c-0.4-0.4-0.6-0.9-0.6-1.4s0.2-1,0.6-1.4c0.4-0.4,0.9-0.6,1.4-0.6C705.2,276.8,705.7,277,706.1,277.4z M710.7,276.5l-6.7,9.6
						l-1.2-0.9l6.7-9.6L710.7,276.5z M704.7,278.3c-0.1,0-0.3,0-0.4,0.1c-0.1,0.1-0.1,0.2-0.1,0.4c0,0.1,0,0.3,0.1,0.4
						c0.1,0.1,0.2,0.1,0.4,0.1c0.1,0,0.3,0,0.4-0.1c0.1-0.1,0.2-0.2,0.2-0.4c0-0.1-0.1-0.3-0.2-0.4
						C705,278.4,704.8,278.3,704.7,278.3z M710.2,281.4c0.4,0.4,0.6,0.9,0.6,1.4c0,0.6-0.2,1-0.6,1.4c-0.4,0.4-0.9,0.6-1.4,0.6
						c-0.6,0-1-0.2-1.4-0.6s-0.6-0.9-0.6-1.4c0-0.6,0.2-1,0.6-1.4s0.9-0.6,1.4-0.6C709.3,280.9,709.8,281.1,710.2,281.4z
						 M708.7,282.4c-0.1,0-0.3,0-0.4,0.1c-0.1,0.1-0.1,0.2-0.1,0.4c0,0.1,0,0.3,0.1,0.4c0.1,0.1,0.2,0.1,0.4,0.1
						c0.1,0,0.3,0,0.4-0.1c0.1-0.1,0.2-0.2,0.2-0.4c0-0.1-0.1-0.3-0.2-0.4C709,282.4,708.9,282.4,708.7,282.4z"/>
				</g>
			</g>
		</g>
		<g>
			<g>
				<path class="st0" d="M849.8,310.7c-23.8,4.9-47.1-10.4-52-34.2c-4.9-23.8,10.4-47.1,34.2-52c23.8-4.9,47.1,10.4,52,34.2
					C888.9,282.4,873.6,305.7,849.8,310.7z"/>
			</g>
			<g>
				<path class="st0" d="M791,277.8c-5.6-27.2,12-54,39.2-59.6c27.2-5.6,54,12,59.6,39.2c5.6,27.2-12,54-39.2,59.6
					C823.3,322.7,796.6,305.1,791,277.8z M887.5,257.9c-5.4-26-30.9-42.7-56.8-37.4c-26,5.4-42.7,30.9-37.4,56.8
					c5.4,26,30.9,42.7,56.8,37.4C876.1,309.4,892.9,283.9,887.5,257.9z"/>
			</g>
			<g>
				<path class="st0" d="M769.8,246.5l0.4-1.1l18.8-2.7l-15.2-6.1l0.4-1l17.1,6.9l-0.4,1l-18.9,2.7l15.4,6.2l-0.4,1L769.8,246.5z"/>
				<path class="st0" d="M786.4,227.7c1.1-1.4,2.4-2.2,4.2-2.5c1.7-0.2,3.3,0.2,4.7,1.2c1.4,1,2.2,2.4,2.5,4.2
					c0.2,1.7-0.2,3.3-1.2,4.7c-1,1.4-2.4,2.2-4.2,2.5c-1.7,0.2-3.3-0.2-4.7-1.2c-1.4-1.1-2.2-2.4-2.5-4.2
					C784.9,230.7,785.3,229.1,786.4,227.7z M786.3,232.3c0.2,1.4,0.9,2.6,2,3.5c1.2,0.9,2.4,1.2,3.9,1c1.4-0.2,2.6-0.9,3.4-2
					c0.9-1.2,1.2-2.4,1-3.9c-0.2-1.4-0.9-2.6-2-3.4c-1.2-0.9-2.4-1.2-3.9-1c-1.4,0.2-2.6,0.9-3.4,2
					C786.4,229.5,786.1,230.8,786.3,232.3z"/>
				<path class="st0" d="M802.1,213.9l0.9-0.6l1.2,1.7c0-0.4,0-0.8,0.1-1.2c0.2-1.3,0.8-2.2,1.5-2.8l0.6,0.9c-0.5,0.4-0.9,1.1-1.1,2
					c-0.3,1.4,0,2.6,0.7,3.8l3.3,4.9l-0.9,0.6L802.1,213.9z"/>
				<path class="st0" d="M815.1,216.7c1.3,0.4,2.5,0.4,3.7-0.2c1.3-0.6,2.3-1.5,2.8-2.9c0.1-0.2,0.1-0.3,0.2-0.5l1.2-0.1
					c-0.1,0.3-0.2,0.7-0.3,1c-0.6,1.6-1.8,2.8-3.4,3.5c-1.6,0.7-3.2,0.7-4.8,0.1c-1.6-0.6-2.8-1.8-3.5-3.4c-0.7-1.6-0.7-3.2-0.1-4.8
					c0.6-1.6,1.8-2.8,3.4-3.5c1.4-0.6,2.8-0.7,4.1-0.3c0.2,0.1,0.5,0.1,0.7,0.2c0.1,0,0.2,0.1,0.3,0.1l-0.4,1L815.1,216.7z
					 M818,206.6c-1.1-0.3-2.2-0.2-3.3,0.3c-1.3,0.6-2.2,1.5-2.8,2.9c-0.5,1.3-0.5,2.7,0.1,4c0.5,1.1,1.2,1.9,2.2,2.5L818,206.6z"/>
				<path class="st0" d="M824.7,203.2l1-0.2l0.2,1.6c0.2-0.3,0.3-0.6,0.5-0.9c1-1.4,2.4-2.2,4.1-2.5c1.7-0.3,3.3,0.1,4.7,1.1
					c1.4,1,2.2,2.4,2.5,4.1c0.3,1.7-0.1,3.3-1.1,4.7c-1,1.4-2.4,2.3-4.1,2.5c-1.7,0.3-3.3-0.1-4.7-1.1c-0.3-0.2-0.5-0.4-0.8-0.7
					l1,6.5l-1,0.2L824.7,203.2z M826.4,207.3l0.3,2.1c0.3,0.9,1,1.7,1.8,2.4c1.2,0.9,2.5,1.2,3.9,0.9c1.4-0.2,2.6-0.9,3.4-2.1
					c0.9-1.2,1.2-2.5,0.9-3.9c-0.2-1.4-0.9-2.6-2.1-3.4c-1.2-0.9-2.5-1.2-3.9-0.9c-1.4,0.2-2.6,0.9-3.4,2.1
					C826.7,205.3,826.4,206.2,826.4,207.3z"/>
				<path class="st0" d="M848.5,200.9c1.7,0.2,3.2,1,4.2,2.3s1.5,2.9,1.3,4.7c-0.2,1.7-1,3.1-2.3,4.2c-1.4,1.1-2.9,1.5-4.7,1.4
					c-1.7-0.2-3.1-1-4.2-2.3c-1.1-1.4-1.5-2.9-1.4-4.6c0.2-1.7,1-3.2,2.3-4.3C845.2,201.2,846.8,200.7,848.5,200.9z M844.5,203.1
					c-1.1,0.9-1.8,2.1-1.9,3.5c-0.2,1.4,0.2,2.7,1.1,3.8c0.9,1.1,2.1,1.8,3.5,1.9c1.4,0.2,2.7-0.2,3.8-1.1c1.1-0.9,1.8-2.1,1.9-3.5
					c0.2-1.4-0.2-2.7-1.1-3.8c-0.9-1.1-2.1-1.8-3.5-1.9C846.9,201.9,845.7,202.2,844.5,203.1z"/>
				<path class="st0" d="M859.3,204l1,0.3l-0.6,2c0.3-0.2,0.6-0.4,1-0.6c1.1-0.6,2.2-0.8,3.1-0.5l-0.3,1.1c-0.6-0.2-1.4,0-2.3,0.4
					c-1.2,0.6-2.1,1.6-2.5,2.9l-1.7,5.6l-1-0.3L859.3,204z"/>
				<path class="st0" d="M869.1,207.7l2.1-4.4l0.9,0.4l-2.1,4.4l2.1,1l-0.4,0.9l-2.1-1l-4.4,9.3l-0.9-0.4l4.4-9.3l-2.1-1l0.4-0.9
					L869.1,207.7z"/>
				<path class="st0" d="M879.5,227.8l-0.8-0.6l1.4-1.8c-0.3,0.1-0.6,0.2-1,0.2c-1.7,0.2-3.3-0.2-4.7-1.2c-1.4-1.1-2.2-2.4-2.5-4.2
					c-0.2-1.7,0.2-3.3,1.2-4.7c1.1-1.4,2.5-2.2,4.2-2.5c1.7-0.2,3.3,0.2,4.7,1.2c1.4,1.1,2.2,2.5,2.5,4.2c0,0.3,0.1,0.7,0.1,1l1-1.3
					l0.8,0.6L879.5,227.8z M881.7,223.2l1.2-1.6c0.5-0.9,0.6-1.9,0.5-3c-0.2-1.4-0.9-2.6-2-3.5c-1.2-0.9-2.4-1.2-3.9-1
					c-1.4,0.2-2.6,0.9-3.5,2c-0.9,1.2-1.2,2.4-1,3.9s0.9,2.6,2,3.4c1.2,0.9,2.4,1.2,3.9,1C880,224.3,880.9,223.9,881.7,223.2z"/>
				<path class="st0" d="M889.2,239.9l-0.6-0.8l1.8-1.4c-0.3,0-0.7,0-1-0.1c-1.7-0.2-3.1-1.1-4.2-2.5c-1.1-1.4-1.5-3-1.2-4.7
					s1.1-3.1,2.4-4.2c1.4-1.1,3-1.5,4.7-1.2s3.1,1.1,4.2,2.4c1.1,1.4,1.5,3,1.2,4.7c-0.1,0.3-0.1,0.7-0.2,1l7-5.3l0.6,0.8
					L889.2,239.9z M892.6,236.1l1.6-1.2c0.7-0.8,1.1-1.7,1.3-2.8c0.2-1.4-0.1-2.7-1-3.9s-2-1.8-3.5-2c-1.4-0.2-2.7,0.1-3.9,1
					c-1.2,0.9-1.8,2-2,3.5c-0.2,1.4,0.1,2.7,1,3.9c0.9,1.2,2,1.8,3.5,2C890.7,236.7,891.7,236.5,892.6,236.1z"/>
				<path class="st0" d="M904.4,243.5c0.6,1.6,0.6,3.2-0.1,4.8c-0.7,1.6-1.9,2.7-3.5,3.4c-1.6,0.6-3.2,0.6-4.8-0.1
					c-1.6-0.7-2.7-1.8-3.4-3.5c-0.6-1.6-0.6-3.2,0.1-4.8c0.7-1.6,1.8-2.7,3.5-3.4c1.6-0.6,3.2-0.6,4.9,0.1
					C902.6,240.7,903.7,241.9,904.4,243.5z M900.6,241c-1.3-0.6-2.7-0.6-4-0.1s-2.3,1.5-2.9,2.8c-0.6,1.3-0.6,2.7,0,4
					c0.5,1.3,1.5,2.3,2.8,2.9c1.3,0.6,2.7,0.6,4,0.1c1.3-0.5,2.3-1.5,2.9-2.8c0.6-1.3,0.6-2.7,0.1-4
					C902.8,242.6,901.9,241.6,900.6,241z"/>
			</g>
			<g>
				<g>
					<path class="st1" d="M822.2,253.1h0.6l0.7-3h1.5l-0.7,3h3l-0.4,1.5h-3l-0.2,0.6h3l-0.4,1.5h-3l-0.7,3h-1.5l0.7-3h-0.6l-0.7,3
						H819l0.8-3h-3l0.4-1.5h3l0.2-0.6h-3l0.4-1.5h3l0.7-3h1.5L822.2,253.1z M822.4,254.6h-0.6l-0.2,0.6h0.6L822.4,254.6z"/>
					<path class="st1" d="M831.6,252.1c0.3-0.1,0.6-0.1,0.9-0.1c0.5,0,1.1,0.1,1.6,0.3c1.1,0.4,2,1.1,2.5,2.1c0.3,0.6,0.5,1.3,0.5,2
						c0,0.4-0.1,0.8-0.2,1.3c-0.3,1.1-1,2-2.1,2.5c-0.6,0.3-1.3,0.5-2,0.5c-0.4,0-0.9-0.1-1.3-0.2c-0.9-0.3-1.7-0.9-2.4-1.8l1.1-1.2
						c0.5,0.8,1.1,1.3,1.7,1.5c0.3,0.1,0.6,0.1,0.8,0.1c0.4,0,0.8-0.1,1.3-0.3c0.7-0.4,1.1-0.9,1.3-1.6c0.1-0.3,0.1-0.6,0.1-0.8
						c0-0.4-0.1-0.8-0.3-1.3c-0.4-0.7-0.9-1.1-1.6-1.4c-0.3-0.1-0.7-0.2-1.1-0.2c-0.5,0-1.2,0.1-2,0.4l-0.9-0.8l1.3-3.6V249h4.3v1.5
						h-3L831.6,252.1z"/>
					<path class="st1" d="M840.4,258.9c0.2,0.2,0.3,0.5,0.3,0.7c0,0.3-0.1,0.6-0.3,0.8s-0.5,0.3-0.7,0.3c-0.3,0-0.5-0.1-0.7-0.3
						c-0.2-0.2-0.3-0.5-0.3-0.8c0-0.3,0.1-0.5,0.3-0.7c0.2-0.2,0.5-0.3,0.7-0.3C840,258.6,840.2,258.7,840.4,258.9z"/>
					<path class="st1" d="M844.8,252.1c0.3-0.1,0.6-0.1,0.9-0.1c0.5,0,1.1,0.1,1.6,0.3c1.1,0.4,2,1.1,2.5,2.1c0.3,0.6,0.5,1.3,0.5,2
						c0,0.4-0.1,0.8-0.2,1.3c-0.3,1.1-1,2-2.1,2.5c-0.6,0.3-1.3,0.5-2,0.5c-0.4,0-0.9-0.1-1.3-0.2c-0.9-0.3-1.7-0.9-2.4-1.8l1.1-1.2
						c0.5,0.8,1.1,1.3,1.7,1.5c0.3,0.1,0.6,0.1,0.8,0.1c0.4,0,0.8-0.1,1.3-0.3c0.7-0.4,1.1-0.9,1.3-1.6c0.1-0.3,0.1-0.6,0.1-0.8
						c0-0.4-0.1-0.8-0.3-1.3c-0.4-0.7-0.9-1.1-1.6-1.4c-0.3-0.1-0.7-0.2-1.1-0.2c-0.5,0-1.2,0.1-2,0.4l-0.9-0.8l1.3-3.6V249h4.3v1.5
						h-3L844.8,252.1z"/>
					<path class="st1" d="M854.1,253.4c0.4-0.5,1.2-0.7,2.2-0.7c1,0,1.8,0.3,2.5,1c0.8,0.8,1.2,1.8,1.2,2.9c0,1.1-0.4,2.1-1.2,2.9
						c-0.8,0.8-1.8,1.2-2.9,1.2c-1.1,0-2.1-0.4-2.9-1.2c-0.8-0.8-1.2-1.9-1.2-3.3v0c0-1.4,0.4-2.6,1.1-3.6c0.8-1.1,1.8-2.3,3-3.7h2
						C856.1,250.8,854.8,252.3,854.1,253.4z M853.2,256.7c0,0.7,0.3,1.3,0.8,1.8c0.5,0.5,1.1,0.8,1.8,0.8c0.7,0,1.3-0.3,1.8-0.8
						c0.5-0.5,0.8-1.1,0.8-1.8c0-0.7-0.3-1.3-0.8-1.8c-0.5-0.5-1.1-0.8-1.8-0.8c-0.7,0-1.3,0.3-1.8,0.8
						C853.5,255.4,853.2,256,853.2,256.7z"/>
					<path class="st1" d="M869.4,256.7c0,1.1-0.4,2.1-1.2,2.9c-0.8,0.8-1.8,1.2-2.9,1.2c-1.1,0-2.1-0.4-2.9-1.2
						c-0.8-0.8-1.2-1.8-1.2-2.9v-3.6c0-1.1,0.4-2.1,1.2-2.9c0.8-0.8,1.8-1.2,2.9-1.2c1.2,0,2.1,0.4,2.9,1.2c0.8,0.8,1.2,1.8,1.2,2.9
						V256.7z M867.8,253.1c0-0.7-0.3-1.3-0.8-1.8c-0.5-0.5-1.1-0.8-1.8-0.8c-0.7,0-1.3,0.3-1.8,0.8c-0.5,0.5-0.8,1.1-0.8,1.8v3.6
						c0,0.7,0.3,1.3,0.8,1.8c0.5,0.5,1.1,0.8,1.8,0.8c0.7,0,1.3-0.3,1.8-0.8c0.5-0.5,0.8-1.1,0.8-1.8V253.1z"/>
					<path class="st1" d="M835.5,276.7c0,1.1-0.4,2.1-1.2,2.9c-0.8,0.8-1.8,1.2-2.9,1.2c-1.1,0-2.1-0.4-2.9-1.2
						c-0.8-0.8-1.2-1.8-1.2-2.9v-3.6c0-1.1,0.4-2.1,1.2-2.9c0.8-0.8,1.8-1.2,2.9-1.2c1.1,0,2.1,0.4,2.9,1.2c0.8,0.8,1.2,1.8,1.2,2.9
						V276.7z M834,273.1c0-0.7-0.3-1.3-0.8-1.8s-1.1-0.8-1.8-0.8c-0.7,0-1.3,0.3-1.8,0.8c-0.5,0.5-0.8,1.1-0.8,1.8v3.6
						c0,0.7,0.3,1.3,0.8,1.8c0.5,0.5,1.1,0.8,1.8,0.8c0.7,0,1.3-0.3,1.8-0.8c0.5-0.5,0.8-1.1,0.8-1.8V273.1z"/>
					<path class="st1" d="M839.3,278.6l-1.7,3.5h-1.4l0.9-3.5H839.3z"/>
					<path class="st1" d="M846.2,269h1.3v7h1v1.5h-1v3.2H846v-3.2h-4.8L846.2,269z M846,272.4l-2.2,3.6h2.2V272.4z"/>
					<path class="st1" d="M853.9,272.1c0.4,0.4,0.6,0.9,0.6,1.4s-0.2,1-0.6,1.4c-0.4,0.4-0.9,0.6-1.4,0.6c-0.6,0-1-0.2-1.4-0.6
						c-0.4-0.4-0.6-0.9-0.6-1.4c0-0.6,0.2-1,0.6-1.4c0.4-0.4,0.9-0.6,1.4-0.6C853,271.6,853.5,271.8,853.9,272.1z M858.5,271.2
						l-6.7,9.6l-1.2-0.9l6.7-9.6L858.5,271.2z M852.5,273.1c-0.1,0-0.3,0-0.4,0.1s-0.1,0.2-0.1,0.4c0,0.1,0,0.3,0.1,0.4
						c0.1,0.1,0.2,0.1,0.4,0.1c0.1,0,0.3,0,0.4-0.1c0.1-0.1,0.2-0.2,0.2-0.4c0-0.1-0.1-0.3-0.2-0.4
						C852.7,273.1,852.6,273.1,852.5,273.1z M857.9,276.2c0.4,0.4,0.6,0.9,0.6,1.4c0,0.6-0.2,1-0.6,1.4c-0.4,0.4-0.9,0.6-1.4,0.6
						c-0.6,0-1-0.2-1.4-0.6c-0.4-0.4-0.6-0.9-0.6-1.4c0-0.6,0.2-1,0.6-1.4c0.4-0.4,0.9-0.6,1.4-0.6
						C857.1,275.6,857.5,275.8,857.9,276.2z M856.5,277.1c-0.1,0-0.3,0-0.4,0.1s-0.1,0.2-0.1,0.4c0,0.1,0,0.3,0.1,0.4
						c0.1,0.1,0.2,0.1,0.4,0.1s0.3,0,0.4-0.1c0.1-0.1,0.2-0.2,0.2-0.4c0-0.1-0.1-0.3-0.2-0.4C856.8,277.1,856.6,277.1,856.5,277.1z"
						/>
				</g>
			</g>
		</g>
	</g>
	<g>
		<g>
			<path class="st2" d="M835.2,439h-6.7v-4h6.7V439z M821.8,439h-6.7v-4h6.7V439z M808.4,439h-6.7v-4h6.7V439z M795,439h-6.7v-4h6.7
				V439z M781.6,439h-6.7v-4h6.7V439z M768.2,439h-6.7v-4h6.7V439z M754.8,439h-6.7v-4h6.7V439z M741.4,439h-6.7v-4h6.7V439z
				 M727.9,439h-6.7v-4h6.7V439z M714.5,439h-6.7v-4h6.7V439z M701.1,439h-6.7v-4h6.7V439z M687.7,439H681v-4h6.7V439z M674.3,439
				h-6.7v-4h6.7V439z M660.9,439h-6.7v-4h6.7V439z M647.5,439h-6.7v-4h6.7V439z M634.1,439h-6.7v-4h6.7V439z M620.7,439H614v-4h6.7
				V439z M607.3,439h-6.7v-4h6.7V439z M593.9,439h-6.7v-4h6.7V439z M580.5,439h-6.7v-4h6.7V439z M567.1,439h-6.7v-4h6.7V439z
				 M553.6,439h-6.7v-4h6.7V439z M540.2,439h-6.7v-4h6.7V439z M526.8,439h-6.7v-4h6.7V439z M513.4,439h-6.7v-4h6.7V439z M500,439
				h-6.7v-4h6.7V439z M486.6,439h-6.7v-4h6.7V439z M473.2,439h-6.7v-4h6.7V439z M459.8,439h-6.7v-4h6.7V439z M446.4,439h-6.7v-4h6.7
				V439z M433,439h-6.7v-4h6.7V439z M419.6,439h-6.7v-4h6.7V439z M406.2,439h-6.7v-4h6.7V439z M392.7,439H386v-4h6.7V439z
				 M379.3,439h-6.7v-4h6.7V439z M365.9,439h-6.7v-4h6.7V439z M352.5,439h-6.7v-4h6.7V439z M339.1,439h-6.7v-4h6.7V439z M325.7,439
				H319v-4h6.7V439z M312.3,439h-6.7v-4h6.7V439z M298.9,439h-6.7v-4h6.7V439z M285.5,439h-6.7v-4h6.7V439z M272.1,439h-6.7v-4h6.7
				V439z"/>
		</g>
		<g>
			<g>
				<path class="st2" d="M280.4,495.1c-33.6,6.9-66.5-14.7-73.4-48.3s14.7-66.5,48.3-73.4c33.6-6.9,66.5,14.7,73.4,48.3
					C335.6,455.3,314,488.2,280.4,495.1z"/>
			</g>
			<g>
				<path class="st2" d="M202.8,447.7c-7.4-35.8,15.7-71,51.5-78.4c35.8-7.4,71,15.7,78.4,51.5c7.4,35.8-15.7,71-51.5,78.4
					C245.4,506.6,210.2,483.5,202.8,447.7z M330.9,421.2c-7.2-34.8-41.4-57.3-76.2-50.1s-57.3,41.4-50.1,76.2
					c7.2,34.8,41.4,57.3,76.2,50.1C315.6,490.2,338.1,456,330.9,421.2z"/>
			</g>
			<g>
				<g>
					<path class="st1" d="M235.3,399.4c1.1-0.4,2.3-0.7,3.6-0.7c5.2,0,9.3,4,9.3,9.2c0,4.8-3.7,7.5-10.2,7.5c-1,0-2-0.1-3.3-0.2
						L235.3,399.4z M239,410.9c0.2,0,0.4,0,0.6,0c2.3,0,3.9-1.6,3.9-3.8c0-2.2-1.5-3.4-4.2-3.4L239,410.9z"/>
					<path class="st1" d="M260,411.5c-0.5,2.2-2.8,3.9-5.4,3.9c-3.1,0-5.9-2.7-5.9-5.9c0-3.2,2.8-5.7,6.2-5.7c3.2,0,5.2,2.3,5.2,6.1
						l-7.6,0.4c0.4,1.1,1.2,1.7,2.2,1.7c0.9,0,1.7-0.4,2.1-1.2L260,411.5z M256,407.9c-0.1-0.8-0.9-1.3-1.7-1.3
						c-1,0-1.8,0.6-1.7,1.4L256,407.9z"/>
					<path class="st1" d="M270.1,415.2V404h-3v-4.5h4.6c0.9,0,2.1,0.2,3,0.3v15.4H270.1z"/>
					<path class="st1" d="M278.5,412.9c1.9-1,4-2.7,4.8-3.8c-0.4,0.2-0.9,0.3-1.4,0.3c-2.6,0-4.7-2.1-4.7-4.6c0-2.8,2.8-5.2,6.1-5.2
						c3.1,0,5.5,2.4,5.5,5.6c0,0.8-0.2,1.7-0.5,2.6c-1.1,3.1-3.6,5.8-7.1,7.6L278.5,412.9z M283.2,406.6c1,0,1.9-0.8,1.9-1.8
						c0-1-1-1.7-2.2-1.7c-1.1,0-1.9,0.7-1.9,1.6C280.9,405.6,282,406.6,283.2,406.6z"/>
					<path class="st1" d="M308,415.2h-3.7l-0.1-1.4c-0.7,1-1.8,1.5-3.2,1.5c-2.9,0-5.2-2.6-5.2-5.8c0-3.3,2.4-5.7,5.5-5.7
						c1.3,0,2.3,0.4,2.7,1.3l0-1.2h3.4L308,415.2z M301.7,411.7c1.1,0,2.1-1.2,2.1-2.5c0-1.1-0.9-2-2-2c-1.2,0-2.3,1-2.3,2.2
						C299.5,410.6,300.5,411.7,301.7,411.7z"/>
					<path class="st1" d="M244.2,432.5l-11.7,0l-0.2-3.6c4.4-2.4,7.2-5.1,7.2-6.8c0-1-0.7-1.7-1.8-1.7c-1.1,0-1.9,0.9-2.1,2.2
						l-3.5-0.7c0.1-3.2,2.6-5.4,6-5.4c3.2,0,5.4,2,5.4,5.1c0,3.3-2.7,4.9-4.4,7.1h4.6L244.2,432.5z"/>
					<path class="st1" d="M255.4,419.2c-1.8,0.9-4,2.7-4.8,3.8c0.4-0.2,0.9-0.3,1.4-0.3c2.6,0,4.8,2,4.8,4.6c0,2.8-2.8,5.2-6.1,5.2
						c-3.1,0-5.5-2.4-5.5-5.6c0-0.8,0.2-1.7,0.5-2.6c1.1-3.1,3.6-5.8,7.1-7.6L255.4,419.2z M251,425.7c-1.1,0-1.9,0.8-1.9,1.8
						c0,1,1,1.7,2.1,1.7c1,0,1.7-0.8,1.7-1.8C252.9,426.5,252.1,425.7,251,425.7z"/>
					<path class="st1" d="M275.9,432.5h-3.7l-0.1-1.4c-0.7,1-1.8,1.5-3.2,1.5c-2.9,0-5.2-2.6-5.2-5.8c0-3.3,2.4-5.7,5.5-5.7
						c1.3,0,2.3,0.4,2.7,1.3l0-1.2h3.4L275.9,432.5z M269.6,429c1.1,0,2.1-1.2,2.1-2.5c0-1.1-0.9-2-2-2c-1.2,0-2.3,1-2.3,2.2
						S268.5,429,269.6,429z"/>
					<path class="st1" d="M276.4,421.6l3.4-0.1v1.7c0.9-1.1,2.3-1.8,3.5-1.8c2.2,0,3.7,2.3,3.7,6c0,0.4,0,2.7,0,5.1h-3.7l0.1-5.7
						c0-1-0.6-1.7-1.4-1.7c-1,0-2,0.8-2,1.6c0,0.3,0,0.9,0,2.6c0,0.3,0,1.7,0,3.2h-3.5L276.4,421.6L276.4,421.6z M277.5,420.2
						c0.6-1.9,1.5-2.9,2.7-2.9c1.1,0,2.1,0.8,2.8,0.8c0.4,0,0.6-0.2,0.7-0.7l2.1,0.2c-0.4,2-1.1,3.1-2.2,3.1c-1.1,0-2.2-1-3-1
						c-0.4,0-0.6,0.2-0.7,0.7L277.5,420.2z"/>
					<path class="st1" d="M293.9,432.6c-3.2,0-6.1-2.8-6.1-6c0-3,2.8-5.6,6-5.6c3.2,0,6,2.7,6,5.7
						C299.8,429.8,297,432.6,293.9,432.6z M295.9,426.9c0-1.2-0.9-2.1-2-2.1c-1.2,0-2.1,0.9-2.1,2c0,1.2,0.9,2.2,2.1,2.2
						S295.9,428.1,295.9,426.9z"/>
					<path class="st1" d="M308.6,425.1c-1.3-0.7-2.2-1-3.2-1c-0.9,0-1.4,0.3-1.4,0.6c0,0.6,1.3,0.6,1.8,0.6c2.6,0,4.3,1.3,4.3,3.3
						c0,2.3-2.4,4.2-5.3,4.2c-1.8,0-3.7-0.8-4.7-1.9l2.2-2.4c0.7,0.6,1.6,0.9,2.6,0.9c0.9,0,1.5-0.3,1.5-0.7c0-0.6-1-0.5-1.6-0.5
						c-2.3,0-4.2-1.6-4.2-3.5c0-2,2.2-3.8,4.8-3.8c1.6,0,3.3,0.7,4.7,1.9L308.6,425.1z"/>
				</g>
			</g>
			<g>
				<path class="st1" d="M227.9,442.2v10.6h-0.6v-10.6h-2.8v-0.6h6.3v0.6H227.9z"/>
				<path class="st1" d="M235,445.2c1.1,0,2,0.4,2.7,1.1c0.7,0.8,1.1,1.7,1.1,2.7c0,1.1-0.4,2-1.1,2.7c-0.7,0.8-1.7,1.1-2.7,1.1
					c-1.1,0-2-0.4-2.7-1.1c-0.8-0.8-1.1-1.7-1.1-2.7c0-1.1,0.4-2,1.1-2.7C233,445.6,233.9,445.2,235,445.2z M232.8,446.8
					c-0.6,0.6-0.9,1.4-0.9,2.2c0,0.9,0.3,1.6,0.9,2.2c0.6,0.6,1.4,0.9,2.2,0.9s1.6-0.3,2.2-0.9c0.6-0.6,0.9-1.4,0.9-2.2
					s-0.3-1.6-0.9-2.2s-1.4-0.9-2.2-0.9S233.4,446.2,232.8,446.8z"/>
				<path class="st1" d="M241.5,445.8v-2.9h0.6v2.9h1.4v0.6h-1.4v6.2h-0.6v-6.2h-1.4v-0.6H241.5z"/>
				<path class="st1" d="M252.6,452.7H252v-1.4c-0.1,0.2-0.3,0.3-0.4,0.5c-0.8,0.8-1.7,1.1-2.7,1.1c-1.1,0-2-0.4-2.7-1.1
					c-0.8-0.8-1.1-1.7-1.1-2.7c0-1.1,0.4-2,1.1-2.7c0.8-0.8,1.7-1.1,2.7-1.1c1.1,0,2,0.4,2.7,1.1c0.1,0.1,0.3,0.3,0.4,0.5v-1h0.6
					V452.7z M252,449.7v-1.2c-0.1-0.6-0.4-1.2-0.9-1.6c-0.6-0.6-1.4-0.9-2.2-0.9c-0.9,0-1.6,0.3-2.2,0.9c-0.6,0.6-0.9,1.4-0.9,2.2
					c0,0.9,0.3,1.6,0.9,2.2c0.6,0.6,1.4,0.9,2.2,0.9c0.9,0,1.6-0.3,2.2-0.9C251.6,450.8,251.9,450.3,252,449.7z"/>
				<path class="st1" d="M255.4,441.5v11.2h-0.6v-11.2H255.4z"/>
				<path class="st1" d="M269.2,451.4c-0.1,0.1-0.2,0.3-0.4,0.4c-0.8,0.8-1.7,1.1-2.7,1.1c-1.1,0-2-0.4-2.7-1.1
					c-0.8-0.8-1.1-1.7-1.1-2.7c0-1.1,0.4-2,1.1-2.7c0.8-0.7,1.7-1.1,2.7-1.1c1.1,0,2,0.4,2.7,1.1c0.1,0.1,0.3,0.3,0.4,0.5v-1h0.6
					v5.3c0,1-0.4,1.9-1.1,2.6c-0.8,0.8-1.7,1.1-2.7,1.1c-1.1,0-2-0.4-2.7-1.1c-0.2-0.2-0.3-0.3-0.4-0.5l0.7-0.2
					c0.1,0.1,0.1,0.2,0.2,0.2c0.6,0.6,1.4,0.9,2.2,0.9c0.9,0,1.6-0.3,2.2-0.9C268.8,452.8,269.1,452.1,269.2,451.4z M269.2,448.4
					c-0.1-0.6-0.4-1.1-0.9-1.6c-0.6-0.6-1.4-0.9-2.2-0.9s-1.6,0.3-2.2,0.9c-0.6,0.6-0.9,1.4-0.9,2.2c0,0.9,0.3,1.6,0.9,2.2
					c0.6,0.6,1.4,0.9,2.2,0.9s1.6-0.3,2.2-0.9c0.5-0.5,0.7-1,0.9-1.6V448.4z"/>
				<path class="st1" d="M273.3,451.4c0.6,0.5,1.3,0.8,2.1,0.8c0.9,0,1.6-0.3,2.2-0.9c0.1-0.1,0.2-0.2,0.2-0.2l0.7,0.2
					c-0.1,0.2-0.3,0.3-0.4,0.5c-0.8,0.8-1.7,1.1-2.7,1.1c-1.1,0-2-0.4-2.7-1.1c-0.8-0.8-1.1-1.7-1.1-2.7c0-1.1,0.4-2,1.1-2.7
					c0.8-0.8,1.7-1.1,2.7-1.1c0.9,0,1.7,0.3,2.4,0.8c0.1,0.1,0.2,0.2,0.3,0.3c0,0,0.1,0.1,0.1,0.1l-0.5,0.5L273.3,451.4z
					 M277.3,446.5c-0.5-0.4-1.2-0.6-1.9-0.6c-0.9,0-1.6,0.3-2.2,0.9c-0.6,0.6-0.9,1.4-0.9,2.2c0,0.7,0.2,1.4,0.6,1.9L277.3,446.5z"
					/>
				<path class="st1" d="M280.8,447.4v5.3h-0.6v-6.9h0.6v0.4c0.6-0.6,1.2-0.9,2-0.9c0.8,0,1.5,0.3,2,0.8c0.5,0.5,0.8,1.1,0.8,1.9
					v4.6h-0.6v-4.5c0-0.6-0.2-1.1-0.6-1.5c-0.4-0.4-0.9-0.6-1.5-0.6s-1.1,0.2-1.5,0.6C281.1,446.9,280.9,447.1,280.8,447.4z"/>
				<path class="st1" d="M289,451.4c0.6,0.5,1.3,0.8,2.1,0.8c0.9,0,1.6-0.3,2.2-0.9c0.1-0.1,0.2-0.2,0.2-0.2l0.7,0.2
					c-0.1,0.2-0.3,0.3-0.4,0.5c-0.8,0.8-1.7,1.1-2.7,1.1c-1.1,0-2-0.4-2.7-1.1c-0.8-0.8-1.1-1.7-1.1-2.7c0-1.1,0.4-2,1.1-2.7
					c0.8-0.8,1.7-1.1,2.7-1.1c0.9,0,1.7,0.3,2.4,0.8c0.1,0.1,0.2,0.2,0.3,0.3c0,0,0.1,0.1,0.1,0.1l-0.5,0.5L289,451.4z M293,446.5
					c-0.5-0.4-1.2-0.6-1.9-0.6c-0.9,0-1.6,0.3-2.2,0.9c-0.6,0.6-0.9,1.4-0.9,2.2c0,0.7,0.2,1.4,0.6,1.9L293,446.5z"/>
				<path class="st1" d="M295.9,445.8h0.6v1.3c0.1-0.2,0.3-0.4,0.5-0.5c0.6-0.6,1.1-0.8,1.7-0.9v0.7c-0.4,0-0.8,0.2-1.2,0.7
					c-0.6,0.6-0.9,1.3-0.9,2.1v3.5h-0.6V445.8z"/>
				<path class="st1" d="M307.5,452.7h-0.6v-1.4c-0.1,0.2-0.3,0.3-0.4,0.5c-0.8,0.8-1.7,1.1-2.7,1.1c-1.1,0-2-0.4-2.7-1.1
					c-0.8-0.8-1.1-1.7-1.1-2.7c0-1.1,0.4-2,1.1-2.7c0.8-0.8,1.7-1.1,2.7-1.1c1.1,0,2,0.4,2.7,1.1c0.1,0.1,0.3,0.3,0.4,0.5v-1h0.6
					V452.7z M306.9,449.7v-1.2c-0.1-0.6-0.4-1.2-0.9-1.6c-0.6-0.6-1.4-0.9-2.2-0.9c-0.9,0-1.6,0.3-2.2,0.9c-0.6,0.6-0.9,1.4-0.9,2.2
					c0,0.9,0.3,1.6,0.9,2.2c0.6,0.6,1.4,0.9,2.2,0.9c0.9,0,1.6-0.3,2.2-0.9C306.5,450.8,306.8,450.3,306.9,449.7z"/>
				<path class="st1" d="M310.2,441.5v11.2h-0.6v-11.2H310.2z"/>
			</g>
			<g>
				<g>
					<path class="st1" d="M242.2,466.5h0.5l0.6-2.5h1.3l-0.6,2.5h2.5l-0.3,1.2h-2.5l-0.1,0.5h2.5l-0.3,1.2h-2.5l-0.6,2.5h-1.3
						l0.6-2.5h-0.5l-0.6,2.5h-1.3l0.6-2.5h-2.5l0.3-1.2h2.5l0.1-0.5h-2.5l0.3-1.2h2.5l0.6-2.5h1.3L242.2,466.5z M242.4,467.7h-0.5
						l-0.1,0.5h0.5L242.4,467.7z"/>
					<path class="st1" d="M252.5,463.1v9.6h-1.2v-8h-0.9l1.3-1.6H252.5z"/>
					<path class="st1" d="M258,469.6c0.7-0.5,1.2-0.9,1.7-1.2c0.5-0.3,0.9-0.7,1.2-1.1c0.4-0.4,0.5-0.8,0.5-1.3s-0.2-0.9-0.5-1.2
						c-0.3-0.3-0.8-0.5-1.2-0.5c-0.5,0-0.9,0.2-1.2,0.5c-0.3,0.3-0.5,0.8-0.5,1.5l-1.2-0.4c0.1-0.8,0.4-1.5,0.9-2
						c0.6-0.6,1.3-0.9,2.1-0.9c0.8,0,1.5,0.3,2.1,0.9c0.6,0.6,0.9,1.3,0.9,2.1c0,0.8-0.3,1.5-0.9,2.2c-0.4,0.4-0.8,0.8-1.3,1.1
						c-0.5,0.4-1,0.8-1.6,1.2c-0.5,0.4-0.8,0.7-0.9,1h4.6v1.2h-6C256.9,471.1,257.3,470.1,258,469.6z"/>
					<path class="st1" d="M269,469c-0.4,0.4-0.9,0.6-1.8,0.6c-0.8,0-1.5-0.3-2.1-0.8c-0.7-0.7-1-1.5-1-2.4c0-0.9,0.3-1.7,1-2.4
						c0.7-0.7,1.5-1,2.4-1c0.9,0,1.7,0.3,2.4,1c0.6,0.6,1,1.5,1,2.7v0c0,1.1-0.3,2.1-0.9,3c-0.6,0.9-1.4,1.9-2.5,3.1h-1.6
						C267.3,471.2,268.3,469.9,269,469z M269.7,466.3c0-0.6-0.2-1.1-0.6-1.5c-0.4-0.4-0.9-0.6-1.5-0.6c-0.6,0-1.1,0.2-1.5,0.6
						c-0.4,0.4-0.6,0.9-0.6,1.5s0.2,1.1,0.6,1.5c0.4,0.4,0.9,0.6,1.5,0.6c0.6,0,1.1-0.2,1.5-0.6
						C269.5,467.4,269.7,466.9,269.7,466.3z"/>
					<path class="st1" d="M273.4,471.3c0.2,0.2,0.3,0.4,0.3,0.6c0,0.2-0.1,0.5-0.3,0.6s-0.4,0.3-0.6,0.3c-0.2,0-0.4-0.1-0.6-0.3
						c-0.2-0.2-0.3-0.4-0.3-0.6c0-0.2,0.1-0.4,0.3-0.6c0.2-0.2,0.4-0.3,0.6-0.3C273.1,471,273.3,471.1,273.4,471.3z"/>
					<path class="st1" d="M276.5,469.6c0.7-0.5,1.2-0.9,1.7-1.2c0.5-0.3,0.9-0.7,1.2-1.1c0.4-0.4,0.5-0.8,0.5-1.3s-0.2-0.9-0.5-1.2
						c-0.3-0.3-0.8-0.5-1.2-0.5c-0.5,0-0.9,0.2-1.2,0.5c-0.3,0.3-0.5,0.8-0.5,1.5l-1.2-0.4c0.1-0.8,0.4-1.5,0.9-2
						c0.6-0.6,1.3-0.9,2.1-0.9c0.8,0,1.5,0.3,2.1,0.9c0.6,0.6,0.9,1.3,0.9,2.1c0,0.8-0.3,1.5-0.9,2.2c-0.4,0.4-0.8,0.8-1.3,1.1
						c-0.5,0.4-1,0.8-1.6,1.2c-0.5,0.4-0.8,0.7-0.9,1h4.6v1.2h-6C275.4,471.1,275.9,470.1,276.5,469.6z"/>
					<path class="st1" d="M287.5,463.1v9.6h-1.2v-8h-0.9l1.3-1.6H287.5z"/>
					<path class="st1" d="M293.2,466.7c0.4-0.4,0.9-0.6,1.8-0.6c0.8,0,1.5,0.3,2.1,0.8c0.7,0.7,1,1.5,1,2.4c0,0.9-0.3,1.7-1,2.4
						c-0.7,0.7-1.5,1-2.4,1c-0.9,0-1.7-0.3-2.4-1c-0.6-0.6-1-1.5-1-2.7v0c0-1.1,0.3-2.1,0.9-3c0.6-0.9,1.4-1.9,2.5-3.1h1.6
						C294.8,464.6,293.8,465.8,293.2,466.7z M292.5,469.4c0,0.6,0.2,1.1,0.6,1.5s0.9,0.6,1.5,0.6c0.6,0,1.1-0.2,1.5-0.6
						c0.4-0.4,0.6-0.9,0.6-1.5c0-0.6-0.2-1.1-0.6-1.5c-0.4-0.4-0.9-0.6-1.5-0.6c-0.6,0-1.1,0.2-1.5,0.6S292.5,468.8,292.5,469.4z"/>
					<path class="st1" d="M259.9,485.4c-0.4,0.4-0.9,0.6-1.8,0.6c-0.8,0-1.5-0.3-2.1-0.8c-0.7-0.7-1-1.5-1-2.4c0-0.9,0.3-1.7,1-2.4
						s1.5-1,2.4-1c0.9,0,1.7,0.3,2.4,1c0.6,0.6,1,1.5,1,2.7v0c0,1.1-0.3,2.1-0.9,3c-0.6,0.9-1.4,1.9-2.5,3.1h-1.6
						C258.2,487.6,259.2,486.4,259.9,485.4z M260.6,482.7c0-0.6-0.2-1.1-0.6-1.5c-0.4-0.4-0.9-0.6-1.5-0.6c-0.6,0-1.1,0.2-1.5,0.6
						c-0.4,0.4-0.6,0.9-0.6,1.5c0,0.6,0.2,1.1,0.6,1.5c0.4,0.4,0.9,0.6,1.5,0.6c0.6,0,1.1-0.2,1.5-0.6
						C260.4,483.8,260.6,483.3,260.6,482.7z"/>
					<path class="st1" d="M264.9,487.4l-1.4,2.9h-1.2l0.8-2.9H264.9z"/>
					<path class="st1" d="M267.7,486.1c0.7-0.5,1.2-0.9,1.7-1.2c0.5-0.3,0.9-0.7,1.2-1.1c0.4-0.4,0.5-0.8,0.5-1.3s-0.2-0.9-0.5-1.2
						c-0.3-0.3-0.8-0.5-1.2-0.5c-0.5,0-0.9,0.2-1.2,0.5c-0.3,0.3-0.5,0.8-0.5,1.5l-1.2-0.4c0.1-0.8,0.4-1.5,0.9-2
						c0.6-0.6,1.3-0.9,2.1-0.9c0.8,0,1.5,0.3,2.1,0.9c0.6,0.6,0.9,1.3,0.9,2.1c0,0.8-0.3,1.5-0.9,2.2c-0.4,0.4-0.8,0.8-1.3,1.1
						c-0.5,0.4-1,0.8-1.6,1.2c-0.5,0.4-0.8,0.7-0.9,1h4.6v1.2h-6C266.6,487.6,267,486.5,267.7,486.1z"/>
					<path class="st1" d="M276.6,482.1c0.3,0.3,0.5,0.7,0.5,1.2c0,0.5-0.2,0.8-0.5,1.2c-0.3,0.3-0.7,0.5-1.2,0.5s-0.8-0.2-1.2-0.5
						s-0.5-0.7-0.5-1.2c0-0.5,0.2-0.8,0.5-1.2s0.7-0.5,1.2-0.5S276.3,481.8,276.6,482.1z M280.4,481.3l-5.5,7.9l-1-0.7l5.5-7.9
						L280.4,481.3z M275.5,482.8c-0.1,0-0.2,0-0.3,0.1s-0.1,0.2-0.1,0.3c0,0.1,0,0.2,0.1,0.3s0.2,0.1,0.3,0.1s0.2,0,0.3-0.1
						c0.1-0.1,0.1-0.2,0.1-0.3c0-0.1,0-0.2-0.1-0.3C275.7,482.9,275.6,482.8,275.5,482.8z M279.9,485.4c0.3,0.3,0.5,0.7,0.5,1.2
						c0,0.5-0.2,0.9-0.5,1.2c-0.3,0.3-0.7,0.5-1.2,0.5c-0.5,0-0.8-0.2-1.2-0.5c-0.3-0.3-0.5-0.7-0.5-1.2c0-0.5,0.2-0.8,0.5-1.2
						c0.3-0.3,0.7-0.5,1.2-0.5C279.2,484.9,279.6,485.1,279.9,485.4z M278.8,486.2c-0.1,0-0.2,0-0.3,0.1s-0.1,0.2-0.1,0.3
						c0,0.1,0,0.2,0.1,0.3s0.2,0.1,0.3,0.1s0.2,0,0.3-0.1s0.1-0.2,0.1-0.3c0-0.1,0-0.2-0.1-0.3C279,486.2,278.9,486.2,278.8,486.2z"
						/>
				</g>
			</g>
		</g>
		<g>
			<g>
				<path class="st2" d="M420.1,484c-23.8,4.9-47.1-10.4-52-34.2c-4.9-23.8,10.4-47.1,34.2-52.1c23.8-4.9,47.1,10.4,52,34.2
					C459.2,455.8,443.9,479.1,420.1,484z"/>
			</g>
			<g>
				<path class="st2" d="M361.2,451.2c-5.6-27.2,12-54,39.2-59.6c27.3-5.6,54,12,59.6,39.2c5.6,27.3-12,54-39.2,59.6
					C393.6,496,366.8,478.4,361.2,451.2z M457.7,431.2c-5.4-26-30.9-42.7-56.8-37.4c-26,5.4-42.7,30.9-37.4,56.8
					c5.4,26,30.9,42.7,56.8,37.4C446.3,482.7,463.1,457.2,457.7,431.2z"/>
			</g>
			<g>
				<path class="st2" d="M362.5,388.1l0.7,0.7l-5.1,4.9l5.3,5.5l5.1-4.9l0.7,0.7l-5.1,4.9l6,6.3l-0.7,0.7l-12.8-13.3L362.5,388.1z"
					/>
				<path class="st2" d="M378,396.8c1.3,0.2,2.5,0,3.7-0.7c1.2-0.8,2-1.9,2.3-3.3c0-0.2,0.1-0.4,0.1-0.5l1.1-0.2
					c0,0.3-0.1,0.7-0.2,1c-0.4,1.7-1.3,3-2.8,4c-1.5,0.9-3.1,1.2-4.8,0.8c-1.7-0.4-3-1.3-4-2.8c-0.9-1.5-1.2-3.1-0.8-4.8
					c0.4-1.7,1.3-3,2.8-3.9c1.3-0.8,2.6-1.1,4-0.9c0.2,0,0.5,0.1,0.7,0.1c0.1,0,0.2,0,0.3,0.1l-0.2,1.1L378,396.8z M379.3,386.4
					c-1.1-0.1-2.2,0.1-3.2,0.8c-1.2,0.8-2,1.8-2.3,3.2c-0.3,1.4-0.1,2.7,0.7,3.9c0.6,1,1.5,1.7,2.5,2.1L379.3,386.4z"/>
				<path class="st2" d="M385.5,382l1-0.3l0.1,0.3c0.4-0.8,1.1-1.3,1.9-1.6c0.9-0.3,1.7-0.2,2.6,0.2c0.2,0.1,0.4,0.3,0.6,0.4
					c0.1-0.2,0.2-0.5,0.3-0.7c0.4-0.8,1.1-1.4,2-1.6c0.9-0.3,1.7-0.2,2.6,0.2c0.8,0.4,1.3,1,1.6,1.9l2.6,8.4l-1,0.3l-2.6-8.4l0,0
					c-0.2-0.6-0.6-1-1.1-1.3c-0.6-0.3-1.2-0.4-1.8-0.2c-0.6,0.2-1.1,0.6-1.4,1.1c-0.3,0.6-0.4,1.2-0.2,1.8l2.5,8.2l-1,0.3l-2.6-8.4
					l0,0c-0.2-0.6-0.6-1-1.1-1.3c-0.6-0.3-1.2-0.4-1.8-0.2c-0.6,0.2-1.1,0.6-1.4,1.1c-0.3,0.5-0.3,1-0.2,1.6l2.6,8.4l-1,0.3
					L385.5,382z"/>
				<path class="st2" d="M406,386.6c1,0.9,2.2,1.3,3.5,1.2c1.4-0.1,2.7-0.6,3.6-1.7c0.1-0.1,0.2-0.3,0.4-0.4l1.1,0.4
					c-0.2,0.3-0.4,0.6-0.6,0.8c-1.2,1.3-2.7,2-4.4,2c-1.7,0.1-3.3-0.5-4.5-1.7c-1.3-1.2-2-2.7-2-4.4c-0.1-1.7,0.5-3.3,1.7-4.5
					c1.2-1.3,2.7-2,4.4-2c1.5-0.1,2.8,0.3,4,1.2c0.2,0.1,0.4,0.3,0.6,0.5c0.1,0.1,0.1,0.1,0.2,0.2l-0.8,0.8L406,386.6z M412.4,378.3
					c-0.9-0.7-2-1-3.2-0.9c-1.4,0.1-2.6,0.6-3.6,1.7c-1,1.1-1.4,2.3-1.4,3.8c0,1.2,0.4,2.2,1.2,3.1L412.4,378.3z"/>
				<path class="st2" d="M420.1,380.3l-1.7,8.6l-1-0.2l2.1-11.1l1,0.2l-0.1,0.7c1.1-0.7,2.3-1,3.5-0.8c1.3,0.3,2.3,0.9,3,1.9
					c0.7,1,0.9,2.1,0.7,3.4l-1.4,7.4l-1-0.2l1.4-7.3c0.2-0.9,0-1.8-0.6-2.6c-0.6-0.8-1.3-1.3-2.2-1.5c-0.9-0.2-1.8,0-2.6,0.5
					C420.7,379.6,420.3,379.9,420.1,380.3z"/>
				<path class="st2" d="M434.3,381.3l-3.8,10.7l-1-0.4l3.8-10.7L434.3,381.3z M435.8,377.9c0.1,0.3,0.1,0.5,0,0.8
					c-0.1,0.3-0.3,0.5-0.5,0.6s-0.5,0.1-0.8,0c-0.3-0.1-0.5-0.3-0.6-0.5c-0.1-0.3-0.1-0.5,0-0.8c0.1-0.3,0.3-0.5,0.5-0.6
					c0.3-0.1,0.5-0.1,0.8,0C435.5,377.5,435.7,377.6,435.8,377.9z"/>
				<path class="st2" d="M439,385.9l-4.2,7.7l-0.9-0.5l5.4-9.9l0.9,0.5l-0.3,0.6c1.3-0.4,2.5-0.3,3.6,0.3c1.2,0.6,1.9,1.5,2.3,2.7
					c0.3,1.1,0.2,2.3-0.4,3.4l-3.6,6.7l-0.9-0.5l3.6-6.6c0.5-0.8,0.5-1.7,0.3-2.7c-0.3-0.9-0.8-1.6-1.7-2.1
					c-0.8-0.5-1.7-0.6-2.6-0.3C439.8,385.5,439.4,385.7,439,385.9z"/>
				<path class="st2" d="M457,393.9c1.3,1.2,2,2.6,2.1,4.4c0.1,1.7-0.5,3.3-1.6,4.6c-1.2,1.3-2.6,2-4.4,2.1
					c-1.7,0.1-3.3-0.5-4.6-1.6c-1.3-1.2-2-2.6-2.1-4.4c-0.1-1.7,0.5-3.3,1.6-4.6c1.2-1.3,2.6-2,4.4-2.1S455.7,392.7,457,393.9z
					 M452.5,393.3c-1.4,0.1-2.6,0.6-3.6,1.7c-1,1.1-1.4,2.3-1.3,3.8c0.1,1.4,0.6,2.6,1.7,3.6c1.1,1,2.3,1.4,3.8,1.4
					c1.4-0.1,2.6-0.6,3.6-1.7c1-1.1,1.4-2.3,1.3-3.8c-0.1-1.4-0.6-2.6-1.7-3.6C455.2,393.7,453.9,393.3,452.5,393.3z"/>
			</g>
			<g>
				<g>
					<path class="st1" d="M383.9,424.3h0.6l0.7-3h1.5l-0.7,3h3l-0.4,1.5h-3l-0.2,0.6h3l-0.4,1.5h-3l-0.7,3h-1.5l0.7-3H383l-0.7,3
						h-1.5l0.8-3h-3l0.4-1.5h3l0.2-0.6h-3l0.4-1.5h3l0.7-3h1.5L383.9,424.3z M384.1,425.8h-0.6l-0.2,0.6h0.6L384.1,425.8z"/>
					<path class="st1" d="M393.3,423.3c0.3-0.1,0.6-0.1,0.9-0.1c0.5,0,1.1,0.1,1.6,0.3c1.1,0.4,2,1.1,2.5,2.1c0.3,0.6,0.5,1.3,0.5,2
						c0,0.4-0.1,0.8-0.2,1.3c-0.3,1.1-1,2-2.1,2.5c-0.6,0.3-1.3,0.5-2,0.5c-0.4,0-0.9-0.1-1.3-0.2c-0.9-0.3-1.7-0.9-2.4-1.8l1.1-1.2
						c0.5,0.8,1.1,1.3,1.7,1.5c0.3,0.1,0.6,0.1,0.8,0.1c0.4,0,0.8-0.1,1.3-0.3c0.7-0.4,1.1-0.9,1.3-1.6c0.1-0.3,0.1-0.6,0.1-0.8
						c0-0.4-0.1-0.8-0.3-1.3c-0.4-0.7-0.9-1.1-1.6-1.4c-0.3-0.1-0.7-0.2-1.1-0.2c-0.5,0-1.2,0.1-2,0.4l-0.9-0.8l1.3-3.6v-0.6h4.3
						v1.5h-3L393.3,423.3z"/>
					<path class="st1" d="M404,425.8l-0.9,0v-1.5c0.7,0,1.1-0.1,1.3-0.1s0.4-0.3,0.7-0.5c0.2-0.3,0.4-0.6,0.4-0.9
						c0-0.3-0.1-0.6-0.4-0.9c-0.2-0.2-0.5-0.3-0.9-0.3c-0.3,0-0.6,0.1-0.8,0.3c-0.1,0.1-0.3,0.4-0.5,0.9l-1.4-0.6
						c0.2-0.7,0.5-1.1,0.8-1.4c0.5-0.5,1.2-0.8,1.9-0.8c0.8,0,1.4,0.3,2,0.8c0.5,0.5,0.8,1.2,0.8,1.9c0,0.8-0.5,1.5-1.4,2.2
						c0.4,0,0.9,0.3,1.4,0.7c0.7,0.8,1,1.6,1,2.6c0,1-0.4,1.9-1.1,2.6c-0.7,0.7-1.6,1.1-2.6,1.1c-1,0-1.9-0.4-2.6-1.1
						c-0.6-0.6-0.9-1.4-1.1-2.4l1.5-0.5c0.1,0.9,0.3,1.5,0.7,1.9c0.4,0.4,0.9,0.6,1.5,0.6c0.6,0,1.1-0.2,1.5-0.6s0.6-0.9,0.6-1.5
						c0-0.6-0.2-1.1-0.6-1.6S404.8,426,404,425.8z"/>
					<path class="st1" d="M411.7,430.1c0.2,0.2,0.3,0.5,0.3,0.7c0,0.3-0.1,0.6-0.3,0.8s-0.5,0.3-0.7,0.3c-0.3,0-0.5-0.1-0.7-0.3
						s-0.3-0.5-0.3-0.8c0-0.3,0.1-0.5,0.3-0.7s0.5-0.3,0.7-0.3C411.2,429.8,411.5,429.9,411.7,430.1z"/>
					<path class="st1" d="M419,420.1h1.3v7h1v1.5h-1v3.2h-1.5v-3.2H414L419,420.1z M418.8,423.5l-2.2,3.6h2.2V423.5z"/>
					<path class="st1" d="M429.1,424.5c-1.2,1.4-2.1,2.5-2.8,3.4c-0.7,0.9-1,2.2-1.1,3.8h-1.5c0.1-2,0.5-3.5,1.2-4.6
						c0.8-1,1.6-2.2,2.7-3.3c1-1.2,1.6-1.9,1.7-2.3h-5.6v-1.5h7.3C431,421.7,430.3,423.2,429.1,424.5z"/>
					<path class="st1" d="M438.4,420.1h1.3v7h1v1.5h-1v3.2h-1.5v-3.2h-4.8L438.4,420.1z M438.2,423.5l-2.2,3.6h2.2V423.5z"/>
					<path class="st1" d="M398,445.8l-0.9,0v-1.5c0.7,0,1.1-0.1,1.3-0.1c0.2-0.1,0.4-0.3,0.7-0.5c0.2-0.3,0.4-0.6,0.4-0.9
						c0-0.3-0.1-0.6-0.4-0.9c-0.2-0.2-0.5-0.3-0.9-0.3c-0.3,0-0.6,0.1-0.8,0.3c-0.1,0.1-0.3,0.4-0.5,0.9l-1.4-0.6
						c0.2-0.7,0.5-1.1,0.8-1.4c0.5-0.5,1.2-0.8,1.9-0.8c0.8,0,1.4,0.3,2,0.8c0.5,0.5,0.8,1.2,0.8,1.9c0,0.8-0.5,1.5-1.4,2.2
						c0.4,0,0.9,0.3,1.4,0.7c0.7,0.8,1,1.6,1,2.6c0,1-0.4,1.9-1.1,2.6c-0.7,0.7-1.6,1.1-2.6,1.1c-1,0-1.9-0.4-2.6-1.1
						c-0.6-0.6-0.9-1.4-1.1-2.4l1.5-0.5c0.1,0.9,0.3,1.5,0.7,1.8c0.4,0.4,0.9,0.6,1.5,0.6c0.6,0,1.1-0.2,1.5-0.6
						c0.4-0.4,0.6-0.9,0.6-1.5c0-0.6-0.2-1.1-0.6-1.6C399.5,446.3,398.9,446,398,445.8z"/>
					<path class="st1" d="M406.4,449.8l-1.7,3.5h-1.4l0.9-3.5H406.4z"/>
					<path class="st1" d="M411.9,452c-1.2,0-2.2-0.4-2.9-1.1c-0.7-0.7-1.1-1.6-1.1-2.6c0-1.2,0.7-2.4,2.1-3.4c-0.7-0.7-1-1.4-1-2.2
						c0-0.7,0.3-1.4,0.8-1.9c0.5-0.5,1.2-0.8,2-0.8h0.2c0.8,0,1.4,0.3,2,0.8c0.5,0.5,0.8,1.2,0.8,1.9c0,0.8-0.4,1.5-1.1,2.2
						c1.4,1,2.1,2.1,2.1,3.4c0,1-0.4,1.9-1.1,2.6C414,451.6,413.1,452,411.9,452z M411.9,450.4c0.8,0,1.4-0.2,1.8-0.6
						s0.6-0.9,0.6-1.5c0-0.6-0.2-1.1-0.6-1.6c-0.4-0.4-1-0.8-1.8-0.9c-0.8,0.2-1.4,0.5-1.8,0.9c-0.4,0.4-0.6,1-0.6,1.6
						c0,0.6,0.2,1.1,0.6,1.5S411.1,450.4,411.9,450.4z M411.8,441.5C411.8,441.5,411.8,441.5,411.8,441.5c-0.4,0-0.7,0.1-0.9,0.3
						c-0.2,0.2-0.4,0.5-0.4,0.9c0,0.3,0.1,0.6,0.4,0.9c0.2,0.3,0.5,0.4,0.7,0.5c0.1,0,0.2,0.1,0.3,0.1c0.1,0,0.2,0,0.3-0.1
						c0.2-0.1,0.4-0.2,0.7-0.5c0.2-0.3,0.4-0.6,0.4-0.9c0-0.3-0.1-0.6-0.4-0.9c-0.2-0.2-0.5-0.3-0.9-0.3
						C412,441.5,411.9,441.5,411.8,441.5L411.8,441.5z"/>
					<path class="st1" d="M420.6,443.3c0.4,0.4,0.6,0.9,0.6,1.4c0,0.6-0.2,1-0.6,1.4c-0.4,0.4-0.9,0.6-1.4,0.6c-0.6,0-1-0.2-1.4-0.6
						c-0.4-0.4-0.6-0.9-0.6-1.4c0-0.6,0.2-1,0.6-1.4c0.4-0.4,0.9-0.6,1.4-0.6C419.8,442.7,420.2,442.9,420.6,443.3z M425.2,442.4
						l-6.7,9.6l-1.2-0.9l6.7-9.6L425.2,442.4z M419.2,444.2c-0.1,0-0.3,0-0.4,0.1c-0.1,0.1-0.1,0.2-0.1,0.4c0,0.1,0.1,0.3,0.1,0.4
						s0.2,0.1,0.4,0.1s0.3-0.1,0.4-0.1c0.1-0.1,0.2-0.2,0.2-0.4c0-0.1-0.1-0.3-0.2-0.4C419.5,444.3,419.3,444.2,419.2,444.2z
						 M424.7,447.3c0.4,0.4,0.6,0.9,0.6,1.4c0,0.6-0.2,1-0.6,1.4c-0.4,0.4-0.9,0.6-1.4,0.6c-0.6,0-1-0.2-1.4-0.6
						c-0.4-0.4-0.6-0.9-0.6-1.4c0-0.6,0.2-1,0.6-1.4c0.4-0.4,0.9-0.6,1.4-0.6C423.8,446.8,424.3,447,424.7,447.3z M423.2,448.3
						c-0.1,0-0.3,0.1-0.4,0.1c-0.1,0.1-0.1,0.2-0.1,0.4c0,0.1,0.1,0.3,0.1,0.4c0.1,0.1,0.2,0.1,0.4,0.1c0.1,0,0.3-0.1,0.4-0.1
						c0.1-0.1,0.2-0.2,0.2-0.4c0-0.1-0.1-0.3-0.2-0.4C423.5,448.3,423.4,448.3,423.2,448.3z"/>
				</g>
			</g>
		</g>
		<g>
			<g>
				<path class="st2" d="M565.7,484.1c-23.8,4.9-47.1-10.4-52-34.2c-4.9-23.8,10.4-47.1,34.2-52c23.8-4.9,47.1,10.4,52,34.2
					C604.8,455.9,589.5,479.2,565.7,484.1z"/>
			</g>
			<g>
				<path class="st2" d="M507.4,451.2c-5.6-27.3,12-54,39.2-59.6c27.2-5.6,54,12,59.6,39.2c5.6,27.2-12,54-39.2,59.6
					C539.8,496,513,478.4,507.4,451.2z M603.9,431.2c-5.4-26-30.9-42.7-56.8-37.4c-26,5.4-42.7,30.9-37.4,56.8
					c5.4,26,30.9,42.7,56.8,37.4C592.5,482.7,609.3,457.2,603.9,431.2z"/>
			</g>
			<g>
				<path class="st2" d="M499.8,394.2l13.4,3.6l-3.5-13.4l0.8-0.8l0,0.1l12.9,13l-0.7,0.7L511,385.8l3.6,13.6l-13.5-3.7l11.7,11.8
					l-0.7,0.7l-12.9-13l-0.1,0L499.8,394.2z"/>
				<path class="st2" d="M537.2,389.5l-0.9,0.5l-1-2.1c-0.1,0.3-0.1,0.7-0.2,1c-0.5,1.7-1.6,2.9-3.2,3.7c-1.6,0.8-3.2,0.9-4.8,0.4
					c-1.7-0.5-2.9-1.6-3.7-3.1c-0.8-1.6-0.9-3.2-0.4-4.8c0.5-1.7,1.6-2.9,3.1-3.7c1.6-0.8,3.2-0.9,4.8-0.4c0.3,0.1,0.6,0.2,0.9,0.4
					l-0.7-1.4l0.9-0.5L537.2,389.5z M534,385.6l-0.9-1.8c-0.6-0.8-1.5-1.4-2.5-1.7c-1.4-0.4-2.7-0.3-4,0.3c-1.3,0.7-2.2,1.7-2.6,3
					c-0.4,1.4-0.3,2.7,0.3,4c0.7,1.3,1.7,2.2,3,2.6s2.7,0.3,4-0.3c1.3-0.7,2.2-1.7,2.6-3C534.3,387.5,534.3,386.5,534,385.6z"/>
				<path class="st2" d="M542.1,382.3c-1-0.2-1.7-0.5-2.1-0.7c-0.6-0.4-1.1-0.9-1.2-1.7c-0.2-0.7-0.1-1.4,0.3-2.1s0.9-1.1,1.7-1.2
					c0.7-0.2,1.4-0.1,2,0.3c0.6,0.4,0.9,0.8,1.1,1.4l0,0.1l-0.8,0.6c-0.2-0.5-0.5-0.9-0.9-1.1c-0.4-0.2-0.8-0.3-1.2-0.1
					c-0.4,0.1-0.8,0.4-1,0.8s-0.3,0.8-0.2,1.3c0.1,0.4,0.4,0.8,0.8,1c0.2,0.1,0.7,0.3,1.4,0.5c1.1,0.3,1.9,0.6,2.4,0.9
					c0.8,0.5,1.3,1.2,1.5,2c0.2,0.9,0.1,1.8-0.4,2.6c-0.5,0.8-1.2,1.3-2.1,1.5c-0.9,0.2-1.7,0.1-2.5-0.4c-0.8-0.5-1.3-1.1-1.5-1.9
					l0.9-0.5c0.2,0.7,0.5,1.1,1.1,1.5c0.6,0.3,1.1,0.4,1.8,0.3c0.6-0.2,1.1-0.5,1.4-1.1s0.4-1.1,0.3-1.8c-0.2-0.6-0.5-1.1-1.1-1.4
					C543.5,382.8,542.9,382.6,542.1,382.3z"/>
				<path class="st2" d="M558.9,383.4l1.1,0.3c-0.2,0.3-0.4,0.6-0.6,0.8c-1.2,1.3-2.6,2-4.4,2.1c-1.7,0.1-3.3-0.5-4.6-1.6
					c-1.3-1.2-2-2.6-2.1-4.4c-0.1-1.7,0.5-3.3,1.6-4.6c1.2-1.3,2.6-2,4.4-2.1c1.8-0.1,3.3,0.5,4.6,1.6c0.3,0.2,0.5,0.5,0.7,0.8
					l-1.1,0.5c-0.1-0.1-0.3-0.3-0.4-0.4c-1.1-1-2.3-1.4-3.8-1.3c-1.4,0.1-2.6,0.6-3.6,1.7c-1,1.1-1.4,2.3-1.4,3.8
					c0.1,1.4,0.6,2.6,1.7,3.6c1.1,1,2.3,1.4,3.8,1.4c1.4-0.1,2.7-0.6,3.6-1.7C558.7,383.7,558.8,383.5,558.9,383.4z"/>
				<path class="st2" d="M567.3,387.4c-1.4-0.3-2.4-0.9-3.1-1.9c-0.7-1-0.9-2.1-0.7-3.4l1.3-6.9l1,0.2l-1.3,6.8
					c-0.2,0.9,0,1.8,0.6,2.6c0.6,0.8,1.3,1.3,2.3,1.5c0.9,0.2,1.8,0,2.6-0.6c0.8-0.5,1.3-1.3,1.5-2.2l1.3-6.8l1,0.2l-1.3,6.9
					c-0.3,1.2-0.9,2.2-1.8,2.9C569.8,387.4,568.6,387.6,567.3,387.4z"/>
				<path class="st2" d="M582,372.1l-6.1,17.4l-1-0.3l6.1-17.4L582,372.1z"/>
				<path class="st2" d="M584.9,381l-4.6,10.3l-0.9-0.4l4.6-10.3L584.9,381z M586.6,377.7c0.1,0.3,0.1,0.5,0,0.8
					c-0.1,0.3-0.3,0.4-0.6,0.5c-0.3,0.1-0.5,0.1-0.8,0c-0.3-0.1-0.4-0.3-0.5-0.6c-0.1-0.3-0.1-0.5,0-0.8c0.1-0.3,0.3-0.4,0.6-0.5
					c0.3-0.1,0.5-0.1,0.8,0C586.3,377.2,586.5,377.4,586.6,377.7z"/>
				<path class="st2" d="M589.2,385.9l-4.8,7.4l-0.9-0.6l6.1-9.5l0.9,0.6l-0.4,0.6c1.3-0.3,2.5-0.1,3.5,0.6c1.1,0.7,1.8,1.7,2.1,2.8
					c0.2,1.2,0,2.3-0.6,3.4l-4.1,6.4l-0.9-0.6l4.1-6.3c0.5-0.8,0.7-1.7,0.5-2.6c-0.2-0.9-0.7-1.7-1.5-2.2s-1.7-0.7-2.6-0.5
					C590,385.5,589.6,385.7,589.2,385.9z"/>
				<path class="st2" d="M606.6,395.2c1.2,1.3,1.8,2.8,1.7,4.5s-0.7,3.2-2,4.4c-1.3,1.2-2.8,1.8-4.5,1.7s-3.2-0.7-4.4-2
					c-1.2-1.3-1.8-2.8-1.7-4.5c0-1.7,0.7-3.2,2-4.4c1.3-1.2,2.8-1.8,4.5-1.7C603.9,393.3,605.4,393.9,606.6,395.2z M602.1,394.3
					c-1.4,0-2.7,0.4-3.7,1.4c-1,1-1.6,2.2-1.6,3.7c0,1.4,0.4,2.7,1.4,3.7c1,1,2.2,1.6,3.7,1.6c1.4,0,2.7-0.4,3.7-1.4
					c1-1,1.6-2.2,1.6-3.7c0-1.4-0.4-2.7-1.4-3.7C604.8,394.9,603.5,394.3,602.1,394.3z"/>
			</g>
			<g>
				<g>
					<path class="st1" d="M533.4,429.5h0.6l0.7-3h1.5l-0.7,3h3l-0.4,1.5h-3l-0.2,0.6h3l-0.4,1.5h-3l-0.7,3h-1.5l0.7-3h-0.6l-0.7,3
						h-1.5l0.8-3h-3l0.4-1.5h3l0.2-0.6h-3l0.4-1.5h3l0.7-3h1.5L533.4,429.5z M533.7,431h-0.6l-0.2,0.6h0.6L533.7,431z"/>
					<path class="st1" d="M546.1,429.8c-1.2,1.4-2.1,2.5-2.8,3.4c-0.7,0.9-1,2.2-1.1,3.8h-1.5c0.1-2,0.5-3.5,1.2-4.6
						c0.8-1.1,1.6-2.2,2.7-3.3c1-1.2,1.6-1.9,1.7-2.3h-5.6v-1.5h7.3C547.9,426.9,547.3,428.4,546.1,429.8z"/>
					<path class="st1" d="M553.4,431l-0.9,0v-1.5c0.7,0,1.1-0.1,1.3-0.1s0.4-0.3,0.7-0.5c0.2-0.3,0.4-0.6,0.4-0.9
						c0-0.3-0.1-0.6-0.4-0.9c-0.2-0.2-0.5-0.3-0.9-0.3c-0.3,0-0.6,0.1-0.8,0.3c-0.1,0.1-0.3,0.4-0.5,0.9l-1.4-0.6
						c0.2-0.7,0.5-1.1,0.8-1.4c0.5-0.5,1.2-0.8,1.9-0.8c0.8,0,1.4,0.3,2,0.8c0.5,0.5,0.8,1.2,0.8,1.9c0,0.8-0.5,1.5-1.4,2.2
						c0.4,0,0.9,0.3,1.4,0.7c0.7,0.8,1,1.6,1,2.6c0,1-0.4,1.9-1.1,2.6s-1.6,1.1-2.6,1.1c-1,0-1.9-0.4-2.6-1.1
						c-0.6-0.6-0.9-1.4-1.1-2.4l1.5-0.5c0.1,0.9,0.3,1.5,0.7,1.8c0.4,0.4,0.9,0.6,1.5,0.6c0.6,0,1.1-0.2,1.5-0.6s0.6-0.9,0.6-1.5
						c0-0.6-0.2-1.1-0.6-1.6S554.3,431.2,553.4,431z"/>
					<path class="st1" d="M561.1,435.3c0.2,0.2,0.3,0.5,0.3,0.7c0,0.3-0.1,0.6-0.3,0.8c-0.2,0.2-0.5,0.3-0.7,0.3
						c-0.3,0-0.5-0.1-0.7-0.3c-0.2-0.2-0.3-0.5-0.3-0.8c0-0.3,0.1-0.5,0.3-0.7s0.5-0.3,0.7-0.3C560.7,435,560.9,435.1,561.1,435.3z"
						/>
					<path class="st1" d="M568.7,429.8c-1.2,1.4-2.1,2.5-2.8,3.4c-0.7,0.9-1,2.2-1.1,3.8h-1.5c0.1-2,0.5-3.5,1.2-4.6
						c0.8-1.1,1.6-2.2,2.7-3.3c1-1.2,1.6-1.9,1.7-2.3h-5.6v-1.5h7.3C570.6,426.9,569.9,428.4,568.7,429.8z"/>
					<path class="st1" d="M576.1,431l-0.9,0v-1.5c0.7,0,1.1-0.1,1.3-0.1s0.4-0.3,0.7-0.5c0.2-0.3,0.4-0.6,0.4-0.9
						c0-0.3-0.1-0.6-0.4-0.9c-0.2-0.2-0.5-0.3-0.9-0.3c-0.3,0-0.6,0.1-0.8,0.3c-0.1,0.1-0.3,0.4-0.5,0.9l-1.4-0.6
						c0.2-0.7,0.5-1.1,0.8-1.4c0.5-0.5,1.2-0.8,1.9-0.8c0.8,0,1.4,0.3,2,0.8c0.5,0.5,0.8,1.2,0.8,1.9c0,0.8-0.5,1.5-1.4,2.2
						c0.4,0,0.9,0.3,1.4,0.7c0.7,0.8,1,1.6,1,2.6c0,1-0.4,1.9-1.1,2.6s-1.6,1.1-2.6,1.1c-1,0-1.9-0.4-2.6-1.1
						c-0.6-0.6-0.9-1.4-1.1-2.4l1.5-0.5c0.1,0.9,0.3,1.5,0.7,1.8c0.4,0.4,0.9,0.6,1.5,0.6c0.6,0,1.1-0.2,1.5-0.6s0.6-0.9,0.6-1.5
						c0-0.6-0.2-1.1-0.6-1.6S576.9,431.2,576.1,431z"/>
					<path class="st1" d="M584,433.3c0.8-0.6,1.5-1.1,2-1.5s1.1-0.9,1.5-1.4c0.4-0.5,0.7-1,0.7-1.6c0-0.6-0.2-1.1-0.6-1.5
						s-0.9-0.6-1.5-0.6c-0.6,0-1.1,0.2-1.5,0.6c-0.4,0.4-0.6,1-0.7,1.8l-1.5-0.5c0.2-1,0.5-1.8,1.1-2.4c0.7-0.7,1.6-1.1,2.6-1.1
						c1,0,1.9,0.4,2.6,1.1c0.7,0.7,1.1,1.6,1.1,2.6c0,1-0.3,1.9-1,2.6c-0.4,0.5-0.9,0.9-1.5,1.4c-0.6,0.4-1.2,0.9-1.9,1.5
						c-0.6,0.5-1,0.9-1,1.2h5.6v1.5h-7.3C582.7,435.2,583.2,433.9,584,433.3z"/>
					<path class="st1" d="M546.1,448.5c0.3-0.1,0.6-0.1,0.9-0.1c0.5,0,1.1,0.1,1.6,0.3c1.1,0.4,2,1.1,2.5,2.1c0.3,0.6,0.5,1.3,0.5,2
						c0,0.4-0.1,0.8-0.2,1.3c-0.3,1.1-1,2-2.1,2.5c-0.6,0.3-1.3,0.5-2,0.5c-0.4,0-0.9-0.1-1.3-0.2c-0.9-0.3-1.7-0.9-2.4-1.8l1.1-1.2
						c0.5,0.8,1.1,1.3,1.7,1.5c0.3,0.1,0.6,0.1,0.8,0.1c0.4,0,0.8-0.1,1.3-0.3c0.7-0.4,1.1-0.9,1.3-1.6c0.1-0.3,0.1-0.6,0.1-0.8
						c0-0.4-0.1-0.8-0.3-1.3c-0.4-0.7-0.9-1.1-1.6-1.4c-0.3-0.1-0.7-0.2-1.1-0.2c-0.5,0-1.2,0.1-2,0.4l-0.9-0.8l1.3-3.6v-0.6h4.3
						v1.5h-3L546.1,448.5z"/>
					<path class="st1" d="M555.6,455l-1.7,3.5h-1.4l0.9-3.5H555.6z"/>
					<path class="st1" d="M560.7,451l-0.9,0v-1.5c0.7,0,1.1-0.1,1.3-0.1c0.2-0.1,0.4-0.3,0.7-0.5c0.2-0.3,0.4-0.6,0.4-0.9
						c0-0.3-0.1-0.6-0.4-0.9c-0.2-0.2-0.5-0.3-0.9-0.3c-0.3,0-0.6,0.1-0.8,0.3c-0.1,0.1-0.3,0.4-0.5,0.9l-1.4-0.6
						c0.2-0.7,0.5-1.1,0.8-1.4c0.5-0.5,1.2-0.8,1.9-0.8c0.8,0,1.4,0.3,2,0.8c0.5,0.5,0.8,1.2,0.8,1.9c0,0.8-0.5,1.5-1.4,2.2
						c0.4,0,0.9,0.3,1.4,0.7c0.7,0.8,1,1.6,1,2.6c0,1-0.4,1.9-1.1,2.6c-0.7,0.7-1.6,1.1-2.6,1.1c-1,0-1.9-0.4-2.6-1.1
						c-0.6-0.6-0.9-1.4-1.1-2.4l1.5-0.5c0.1,0.9,0.3,1.5,0.7,1.9c0.4,0.4,0.9,0.6,1.5,0.6c0.6,0,1.1-0.2,1.5-0.6
						c0.4-0.4,0.6-0.9,0.6-1.5c0-0.6-0.2-1.1-0.6-1.6C562.2,451.5,561.5,451.2,560.7,451z"/>
					<path class="st1" d="M569.9,448.5c0.4,0.4,0.6,0.9,0.6,1.4c0,0.6-0.2,1-0.6,1.4c-0.4,0.4-0.9,0.6-1.4,0.6c-0.6,0-1-0.2-1.4-0.6
						c-0.4-0.4-0.6-0.9-0.6-1.4c0-0.6,0.2-1,0.6-1.4c0.4-0.4,0.9-0.6,1.4-0.6C569,447.9,569.5,448.1,569.9,448.5z M574.5,447.6
						l-6.7,9.6l-1.2-0.9l6.7-9.6L574.5,447.6z M568.5,449.4c-0.1,0-0.3,0.1-0.4,0.1c-0.1,0.1-0.1,0.2-0.1,0.4c0,0.1,0,0.3,0.1,0.4
						c0.1,0.1,0.2,0.1,0.4,0.1c0.1,0,0.3-0.1,0.4-0.1c0.1-0.1,0.2-0.2,0.2-0.4c0-0.1-0.1-0.3-0.2-0.4
						C568.7,449.5,568.6,449.4,568.5,449.4z M573.9,452.6c0.4,0.4,0.6,0.9,0.6,1.4c0,0.6-0.2,1-0.6,1.4c-0.4,0.4-0.9,0.6-1.4,0.6
						c-0.6,0-1-0.2-1.4-0.6c-0.4-0.4-0.6-0.9-0.6-1.4c0-0.6,0.2-1,0.6-1.4c0.4-0.4,0.9-0.6,1.4-0.6
						C573.1,452,573.5,452.2,573.9,452.6z M572.5,453.5c-0.1,0-0.3,0.1-0.4,0.1c-0.1,0.1-0.1,0.2-0.1,0.4c0,0.1,0,0.3,0.1,0.4
						c0.1,0.1,0.2,0.1,0.4,0.1c0.1,0,0.3-0.1,0.4-0.1c0.1-0.1,0.2-0.2,0.2-0.4c0-0.1-0.1-0.3-0.2-0.4
						C572.8,453.5,572.6,453.5,572.5,453.5z"/>
				</g>
			</g>
		</g>
		<g>
			<g>
				<path class="st2" d="M705.9,484.1c-23.8,4.9-47.1-10.4-52-34.2c-4.9-23.8,10.4-47.1,34.2-52c23.8-4.9,47.1,10.4,52,34.2
					C745,455.9,729.7,479.2,705.9,484.1z"/>
			</g>
			<g>
				<path class="st2" d="M647,451.3c-5.6-27.3,12-54,39.2-59.6c27.3-5.6,54,12,59.6,39.2c5.6,27.2-12,54-39.2,59.6
					C679.4,496.1,652.7,478.6,647,451.3z M743.6,431.3c-5.4-26-30.9-42.7-56.8-37.4c-26,5.4-42.7,30.9-37.4,56.8
					c5.4,26,30.9,42.7,56.8,37.4C732.2,482.8,748.9,457.3,743.6,431.3z"/>
			</g>
			<g>
				<path class="st2" d="M631.3,405.7l0.6-1l18.9,1.2l-13.7-9.1l0.6-0.9l15.4,10.2l-0.6,0.9l-19.1-1.2l13.8,9.2l-0.6,0.9
					L631.3,405.7z"/>
				<path class="st2" d="M651.4,390.7c1.3-1.2,2.8-1.7,4.6-1.6c1.7,0.1,3.2,0.8,4.3,2.1c1.2,1.3,1.7,2.8,1.6,4.6
					c-0.1,1.7-0.8,3.2-2.1,4.4c-1.3,1.1-2.8,1.7-4.6,1.6s-3.2-0.8-4.3-2.1c-1.2-1.3-1.7-2.8-1.6-4.6
					C649.4,393.3,650.1,391.8,651.4,390.7z M650.4,395.1c-0.1,1.4,0.3,2.7,1.3,3.8c1,1.1,2.1,1.7,3.6,1.8c1.4,0.1,2.7-0.3,3.8-1.3
					c1.1-1,1.7-2.1,1.8-3.6c0.1-1.4-0.3-2.7-1.3-3.8c-1-1.1-2.1-1.7-3.6-1.8s-2.7,0.3-3.8,1.3C651,392.5,650.5,393.7,650.4,395.1z"
					/>
				<path class="st2" d="M685.3,386.8l-1,0.3l-0.7-2.2c-0.1,0.3-0.2,0.6-0.4,0.9c-0.8,1.6-2,2.6-3.7,3.1c-1.7,0.5-3.3,0.4-4.8-0.4
					s-2.6-2-3.1-3.7c-0.5-1.7-0.4-3.3,0.4-4.8c0.8-1.6,2-2.6,3.7-3.1c1.7-0.5,3.3-0.4,4.8,0.4c0.3,0.2,0.6,0.3,0.9,0.5l-2.6-8.3
					l1-0.3L685.3,386.8z M682.8,382.4l-0.6-2c-0.5-0.9-1.2-1.6-2.2-2.1c-1.3-0.7-2.6-0.8-4-0.3c-1.4,0.4-2.4,1.3-3.1,2.6
					c-0.7,1.3-0.8,2.6-0.3,4c0.4,1.4,1.3,2.4,2.6,3.1c1.3,0.7,2.6,0.8,4,0.3c1.4-0.4,2.4-1.3,3.1-2.6
					C682.7,384.4,682.9,383.4,682.8,382.4z"/>
				<path class="st2" d="M690.7,384.2c1,0.8,2.2,1.2,3.5,1.2c1.4-0.1,2.6-0.6,3.6-1.7c0.1-0.1,0.2-0.3,0.3-0.4l1.1,0.3
					c-0.2,0.3-0.4,0.6-0.6,0.8c-1.2,1.3-2.6,2-4.4,2.1c-1.7,0.1-3.3-0.5-4.6-1.6c-1.3-1.2-2-2.6-2.1-4.4c-0.1-1.7,0.5-3.3,1.6-4.6
					c1.2-1.3,2.6-2,4.4-2.1c1.5-0.1,2.8,0.3,4,1.2c0.2,0.1,0.4,0.3,0.6,0.5c0.1,0.1,0.1,0.1,0.2,0.2l-0.7,0.8L690.7,384.2z
					 M696.9,375.8c-0.9-0.6-2-0.9-3.2-0.9c-1.4,0.1-2.6,0.6-3.6,1.7c-1,1.1-1.4,2.3-1.4,3.8c0.1,1.2,0.5,2.2,1.2,3.1L696.9,375.8z"
					/>
				<path class="st2" d="M704.8,376.3l-1.3,10.2l-1-0.1l1.3-10.2l-1.1-0.1l0.1-1l1.1,0.1l0.4-3c0.1-0.8,0.6-1.5,1.2-2.1
					c0.7-0.5,1.5-0.7,2.3-0.6c0.4,0.1,0.9,0.2,1.3,0.4l-0.4,0.9c-0.3-0.2-0.6-0.3-0.9-0.3c-0.5-0.1-1.1,0.1-1.6,0.5
					c-0.5,0.4-0.8,0.8-0.9,1.4l-0.4,3l2.3,0.3l-0.1,1L704.8,376.3z"/>
				<path class="st2" d="M711.2,376.4l-2.4,11.1l-1-0.2l2.4-11.1L711.2,376.4z M712.2,372.8c0.2,0.2,0.2,0.5,0.1,0.8
					c-0.1,0.3-0.2,0.5-0.5,0.7c-0.2,0.2-0.5,0.2-0.8,0.1c-0.3-0.1-0.5-0.2-0.7-0.4c-0.2-0.2-0.2-0.5-0.1-0.8
					c0.1-0.3,0.2-0.5,0.5-0.6c0.2-0.2,0.5-0.2,0.8-0.1C711.9,372.4,712.1,372.6,712.2,372.8z"/>
				<path class="st2" d="M716.5,380.3l-3.2,8.2l-1-0.4l4.1-10.6l1,0.4l-0.3,0.7c1.2-0.5,2.4-0.6,3.6-0.1c1.2,0.5,2.1,1.3,2.6,2.3
					s0.5,2.2,0.1,3.4l-2.7,7.1l-1-0.4l2.7-7c0.3-0.9,0.3-1.8-0.1-2.7s-1.1-1.5-1.9-1.8s-1.8-0.3-2.7,0
					C717.2,379.8,716.8,380,716.5,380.3z"/>
				<path class="st2" d="M730.3,383.9l-5.6,9.8l-0.9-0.5l5.6-9.8L730.3,383.9z M732.3,380.8c0.1,0.3,0,0.5-0.1,0.8
					c-0.1,0.3-0.4,0.4-0.6,0.5c-0.3,0.1-0.5,0-0.8-0.1c-0.2-0.1-0.4-0.4-0.5-0.6c-0.1-0.3,0-0.5,0.1-0.8c0.1-0.2,0.3-0.4,0.6-0.5
					c0.3-0.1,0.5,0,0.8,0.1C732.1,380.3,732.3,380.5,732.3,380.8z"/>
				<path class="st2" d="M737.2,403.2l-0.8-0.7l1.5-1.8c-0.3,0.1-0.7,0.1-1,0.2c-1.7,0.1-3.3-0.4-4.6-1.5c-1.3-1.1-2.1-2.6-2.2-4.3
					c-0.1-1.7,0.3-3.3,1.5-4.6c1.1-1.3,2.6-2.1,4.3-2.2c1.7-0.1,3.3,0.3,4.6,1.5c1.3,1.1,2.1,2.6,2.2,4.3c0,0.3,0,0.7,0,1l5.6-6.7
					l0.8,0.7L737.2,403.2z M739.6,398.8l1.3-1.6c0.5-0.9,0.7-1.9,0.6-3c-0.1-1.4-0.7-2.6-1.8-3.6c-1.1-0.9-2.4-1.3-3.8-1.2
					c-1.4,0.1-2.6,0.7-3.6,1.8s-1.3,2.4-1.2,3.8c0.1,1.4,0.7,2.6,1.8,3.6c1.1,0.9,2.4,1.3,3.8,1.2
					C737.9,399.8,738.8,399.4,739.6,398.8z"/>
				<path class="st2" d="M752.8,403.4c1,1.4,1.3,3,1,4.7s-1.2,3.1-2.7,4.1c-1.4,1-3,1.3-4.7,1s-3.1-1.2-4.1-2.6c-1-1.4-1.3-3-1-4.7
					c0.3-1.7,1.2-3.1,2.6-4.1c1.4-1,3-1.3,4.7-1C750.4,401.1,751.8,402,752.8,403.4z M748.5,401.9c-1.4-0.3-2.7,0-3.9,0.8
					c-1.2,0.8-1.9,1.9-2.2,3.4s0,2.7,0.8,3.9c0.8,1.2,1.9,1.9,3.4,2.2c1.4,0.3,2.7,0,3.9-0.8c1.2-0.8,1.9-1.9,2.2-3.4
					c0.3-1.4,0-2.7-0.8-3.9C751,402.9,749.9,402.1,748.5,401.9z"/>
			</g>
			<g>
				<g>
					<path class="st1" d="M690.5,431.7h0.6l0.7-3h1.5l-0.7,3h3l-0.4,1.5h-3l-0.2,0.6h3l-0.4,1.5h-3l-0.7,3h-1.5l0.7-3h-0.6l-0.7,3
						h-1.5l0.8-3h-3l0.4-1.5h3l0.2-0.6h-3l0.4-1.5h3l0.7-3h1.5L690.5,431.7z M690.8,433.2h-0.6l-0.2,0.6h0.6L690.8,433.2z"/>
					<path class="st1" d="M702.9,427.5h1.3v7h1v1.5h-1v3.2h-1.5v-3.2h-4.8L702.9,427.5z M702.7,431l-2.2,3.6h2.2V431z"/>
					<path class="st1" d="M688.2,455.3c0,1.1-0.4,2.1-1.2,2.9c-0.8,0.8-1.8,1.2-2.9,1.2c-1.1,0-2.1-0.4-2.9-1.2
						c-0.8-0.8-1.2-1.8-1.2-2.9v-3.6c0-1.1,0.4-2.1,1.2-2.9c0.8-0.8,1.8-1.2,2.9-1.2c1.1,0,2.1,0.4,2.9,1.2c0.8,0.8,1.2,1.8,1.2,2.9
						V455.3z M686.6,451.7c0-0.7-0.3-1.3-0.8-1.8c-0.5-0.5-1.1-0.8-1.8-0.8c-0.7,0-1.3,0.3-1.8,0.8c-0.5,0.5-0.8,1.1-0.8,1.8v3.6
						c0,0.7,0.3,1.3,0.8,1.8c0.5,0.5,1.1,0.8,1.8,0.8c0.7,0,1.3-0.3,1.8-0.8c0.5-0.5,0.8-1.1,0.8-1.8V451.7z"/>
					<path class="st1" d="M692,457.2l-1.7,3.5h-1.4l0.9-3.5H692z"/>
					<path class="st1" d="M701.5,455.3c0,1.1-0.4,2.1-1.2,2.9c-0.8,0.8-1.8,1.2-2.9,1.2c-1.1,0-2.1-0.4-2.9-1.2
						c-0.8-0.8-1.2-1.8-1.2-2.9v-3.6c0-1.1,0.4-2.1,1.2-2.9s1.8-1.2,2.9-1.2c1.1,0,2.1,0.4,2.9,1.2s1.2,1.8,1.2,2.9V455.3z
						 M700,451.7c0-0.7-0.3-1.3-0.8-1.8c-0.5-0.5-1.1-0.8-1.8-0.8c-0.7,0-1.3,0.3-1.8,0.8c-0.5,0.5-0.8,1.1-0.8,1.8v3.6
						c0,0.7,0.3,1.3,0.8,1.8c0.5,0.5,1.1,0.8,1.8,0.8c0.7,0,1.3-0.3,1.8-0.8c0.5-0.5,0.8-1.1,0.8-1.8V451.7z"/>
					<path class="st1" d="M706.1,450.7c0.4,0.4,0.6,0.9,0.6,1.4c0,0.6-0.2,1-0.6,1.4c-0.4,0.4-0.9,0.6-1.4,0.6c-0.6,0-1-0.2-1.4-0.6
						c-0.4-0.4-0.6-0.9-0.6-1.4s0.2-1,0.6-1.4c0.4-0.4,0.9-0.6,1.4-0.6C705.2,450.1,705.7,450.3,706.1,450.7z M710.7,449.8l-6.7,9.6
						l-1.2-0.9l6.7-9.6L710.7,449.8z M704.7,451.6c-0.1,0-0.3,0.1-0.4,0.1c-0.1,0.1-0.1,0.2-0.1,0.4c0,0.1,0,0.3,0.1,0.4
						c0.1,0.1,0.2,0.1,0.4,0.1c0.1,0,0.3,0,0.4-0.1c0.1-0.1,0.2-0.2,0.2-0.4c0-0.1-0.1-0.3-0.2-0.4S704.8,451.6,704.7,451.6z
						 M710.2,454.8c0.4,0.4,0.6,0.9,0.6,1.4c0,0.6-0.2,1-0.6,1.4c-0.4,0.4-0.9,0.6-1.4,0.6c-0.6,0-1-0.2-1.4-0.6
						c-0.4-0.4-0.6-0.9-0.6-1.4c0-0.6,0.2-1,0.6-1.4c0.4-0.4,0.9-0.6,1.4-0.6C709.3,454.2,709.8,454.4,710.2,454.8z M708.7,455.7
						c-0.1,0-0.3,0.1-0.4,0.1c-0.1,0.1-0.1,0.2-0.1,0.4c0,0.1,0,0.3,0.1,0.4c0.1,0.1,0.2,0.1,0.4,0.1c0.1,0,0.3-0.1,0.4-0.1
						c0.1-0.1,0.2-0.2,0.2-0.4c0-0.1-0.1-0.3-0.2-0.4S708.9,455.7,708.7,455.7z"/>
				</g>
			</g>
		</g>
		<g>
			<g>
				<path class="st2" d="M849.8,484c-23.8,4.9-47.1-10.4-52-34.2c-4.9-23.8,10.4-47.1,34.2-52c23.8-4.9,47.1,10.4,52,34.2
					C888.9,455.8,873.6,479.1,849.8,484z"/>
			</g>
			<g>
				<path class="st2" d="M791,451.2c-5.6-27.2,12-54,39.2-59.6c27.2-5.6,54,12,59.6,39.2c5.6,27.2-12,54-39.2,59.6
					C823.3,496,796.6,478.4,791,451.2z M887.5,431.2c-5.4-26-30.9-42.7-56.8-37.4c-26,5.4-42.7,30.9-37.4,56.8
					c5.4,26,30.9,42.7,56.8,37.4C876.1,482.7,892.9,457.2,887.5,431.2z"/>
			</g>
			<g>
				<path class="st2" d="M769.8,419.8l0.4-1.1l18.8-2.7l-15.2-6.1l0.4-1l17.1,6.9l-0.4,1l-18.9,2.7l15.4,6.2l-0.4,1L769.8,419.8z"/>
				<path class="st2" d="M786.4,401.1c1.1-1.4,2.4-2.2,4.2-2.5c1.7-0.2,3.3,0.2,4.7,1.2c1.4,1.1,2.2,2.4,2.5,4.2
					c0.2,1.7-0.2,3.3-1.2,4.7c-1.1,1.4-2.4,2.2-4.2,2.5c-1.7,0.2-3.3-0.2-4.7-1.2c-1.4-1.1-2.2-2.4-2.5-4.2
					C784.9,404,785.3,402.4,786.4,401.1z M786.3,405.6c0.2,1.4,0.9,2.6,2,3.5s2.4,1.2,3.9,1c1.4-0.2,2.6-0.9,3.4-2s1.2-2.4,1-3.9
					c-0.2-1.4-0.9-2.6-2-3.4c-1.2-0.9-2.4-1.2-3.9-1c-1.4,0.2-2.6,0.9-3.5,2C786.4,402.9,786.1,404.2,786.3,405.6z"/>
				<path class="st2" d="M802.1,387.2l0.9-0.6l1.2,1.7c0-0.4,0-0.8,0.1-1.2c0.2-1.3,0.8-2.2,1.5-2.8l0.6,0.9c-0.5,0.4-0.9,1.1-1.1,2
					c-0.3,1.4,0,2.6,0.7,3.8l3.3,4.9l-0.9,0.6L802.1,387.2z"/>
				<path class="st2" d="M815.1,390c1.2,0.4,2.5,0.4,3.7-0.2c1.3-0.6,2.2-1.5,2.8-2.9c0.1-0.2,0.1-0.3,0.2-0.5l1.2-0.1
					c-0.1,0.3-0.2,0.7-0.3,1c-0.6,1.6-1.8,2.8-3.4,3.5c-1.6,0.7-3.2,0.7-4.8,0.1c-1.6-0.6-2.8-1.8-3.5-3.4c-0.7-1.6-0.7-3.2-0.1-4.8
					c0.6-1.6,1.8-2.8,3.4-3.5c1.4-0.6,2.8-0.7,4.1-0.3c0.2,0.1,0.5,0.1,0.7,0.2c0.1,0,0.2,0.1,0.3,0.1l-0.4,1L815.1,390z M818,380
					c-1.1-0.3-2.2-0.2-3.3,0.3c-1.3,0.6-2.2,1.5-2.8,2.9c-0.5,1.3-0.5,2.7,0.1,4c0.5,1.1,1.2,1.9,2.2,2.5L818,380z"/>
				<path class="st2" d="M824.7,376.6l1-0.2l0.2,1.6c0.1-0.3,0.3-0.6,0.5-0.9c1-1.4,2.4-2.2,4.1-2.5c1.7-0.3,3.3,0.1,4.7,1.1
					c1.4,1,2.2,2.4,2.5,4.1c0.3,1.7-0.1,3.3-1.1,4.7c-1,1.4-2.4,2.2-4.1,2.5c-1.7,0.3-3.3-0.1-4.7-1.1c-0.3-0.2-0.5-0.4-0.8-0.6
					l1,6.5l-1,0.2L824.7,376.6z M826.4,380.6l0.3,2.1c0.3,0.9,1,1.7,1.8,2.4c1.2,0.9,2.5,1.2,3.9,0.9c1.4-0.2,2.6-0.9,3.4-2.1
					c0.9-1.2,1.2-2.5,0.9-3.9c-0.2-1.4-0.9-2.6-2.1-3.4c-1.2-0.9-2.5-1.2-3.9-0.9c-1.4,0.2-2.6,0.9-3.4,2.1
					C826.7,378.6,826.4,379.6,826.4,380.6z"/>
				<path class="st2" d="M848.5,374.2c1.7,0.2,3.2,1,4.2,2.3c1.1,1.4,1.5,2.9,1.3,4.7c-0.2,1.7-1,3.1-2.3,4.2
					c-1.4,1.1-2.9,1.5-4.7,1.4c-1.7-0.2-3.1-1-4.2-2.3c-1.1-1.4-1.5-2.9-1.4-4.6c0.2-1.7,1-3.2,2.3-4.3
					C845.2,374.5,846.8,374.1,848.5,374.2z M844.5,376.5c-1.1,0.9-1.8,2.1-1.9,3.5s0.2,2.7,1.1,3.8c0.9,1.1,2.1,1.8,3.5,1.9
					c1.4,0.2,2.7-0.2,3.8-1.1c1.1-0.9,1.8-2.1,1.9-3.5c0.2-1.4-0.2-2.7-1.1-3.8c-0.9-1.1-2.1-1.8-3.5-1.9S845.7,375.6,844.5,376.5z"
					/>
				<path class="st2" d="M859.3,377.4l1,0.3l-0.6,2c0.3-0.2,0.6-0.4,1-0.6c1.1-0.6,2.2-0.8,3.1-0.5l-0.3,1.1c-0.6-0.2-1.4,0-2.3,0.4
					c-1.2,0.6-2.1,1.6-2.5,2.9l-1.7,5.6l-1-0.3L859.3,377.4z"/>
				<path class="st2" d="M869.1,381l2.1-4.4l0.9,0.4l-2.1,4.4l2.1,1l-0.4,0.9l-2.1-1l-4.4,9.3l-0.9-0.4l4.4-9.3l-2.1-1l0.4-0.9
					L869.1,381z"/>
				<path class="st2" d="M879.5,401.1l-0.8-0.6l1.4-1.8c-0.3,0.1-0.6,0.2-1,0.2c-1.7,0.2-3.3-0.2-4.7-1.2c-1.4-1.1-2.2-2.4-2.5-4.2
					c-0.2-1.7,0.2-3.3,1.2-4.7c1.1-1.4,2.5-2.2,4.2-2.5c1.7-0.2,3.3,0.2,4.7,1.2c1.4,1.1,2.2,2.4,2.5,4.2c0,0.3,0.1,0.7,0.1,1l1-1.3
					l0.8,0.6L879.5,401.1z M881.7,396.5l1.2-1.6c0.5-0.9,0.6-1.9,0.5-3c-0.2-1.4-0.9-2.6-2-3.5c-1.2-0.9-2.4-1.2-3.9-1
					c-1.4,0.2-2.6,0.9-3.5,2c-0.9,1.2-1.2,2.4-1,3.9c0.2,1.4,0.9,2.6,2,3.4c1.2,0.9,2.4,1.2,3.9,1
					C880,397.6,880.9,397.2,881.7,396.5z"/>
				<path class="st2" d="M889.2,413.2l-0.6-0.8l1.8-1.4c-0.3,0-0.7,0-1-0.1c-1.7-0.2-3.1-1.1-4.2-2.5c-1.1-1.4-1.5-3-1.2-4.7
					c0.2-1.7,1.1-3.1,2.4-4.2c1.4-1.1,3-1.5,4.7-1.2s3.1,1.1,4.2,2.4c1.1,1.4,1.5,3,1.2,4.7c-0.1,0.3-0.1,0.7-0.2,1l7-5.3l0.6,0.8
					L889.2,413.2z M892.6,409.4l1.6-1.2c0.7-0.8,1.1-1.7,1.3-2.8c0.2-1.4-0.1-2.7-1-3.9c-0.9-1.1-2-1.8-3.5-2
					c-1.4-0.2-2.7,0.1-3.9,1c-1.2,0.9-1.8,2-2,3.5s0.1,2.7,1,3.9s2,1.8,3.5,2C890.7,410,891.7,409.8,892.6,409.4z"/>
				<path class="st2" d="M904.4,416.8c0.6,1.6,0.6,3.2-0.1,4.8c-0.7,1.6-1.9,2.7-3.5,3.4c-1.6,0.6-3.2,0.6-4.8-0.1
					c-1.6-0.7-2.7-1.8-3.4-3.5c-0.6-1.6-0.6-3.2,0.1-4.8c0.7-1.6,1.8-2.7,3.5-3.4c1.6-0.6,3.2-0.6,4.9,0.1
					C902.6,414,903.7,415.2,904.4,416.8z M900.6,414.4c-1.3-0.6-2.7-0.6-4-0.1c-1.3,0.5-2.3,1.5-2.9,2.8c-0.6,1.3-0.6,2.7,0,4
					s1.5,2.3,2.8,2.9c1.3,0.6,2.7,0.6,4,0.1c1.3-0.5,2.3-1.5,2.9-2.8c0.6-1.3,0.6-2.7,0.1-4C902.8,415.9,901.9,414.9,900.6,414.4z"
					/>
			</g>
			<g>
				<g>
					<path class="st1" d="M822.3,426.4h0.6l0.7-3h1.5l-0.7,3h3l-0.4,1.5h-3l-0.2,0.6h3l-0.4,1.5h-3l-0.7,3h-1.5l0.7-3h-0.6l-0.7,3
						h-1.5l0.8-3h-3l0.4-1.5h3l0.2-0.6h-3l0.4-1.5h3l0.7-3h1.5L822.3,426.4z M822.5,427.9h-0.6l-0.2,0.6h0.6L822.5,427.9z"/>
					<path class="st1" d="M831.1,430.3c0.8-0.6,1.5-1.1,2-1.5c0.6-0.4,1.1-0.9,1.5-1.4c0.4-0.5,0.7-1,0.7-1.6s-0.2-1.1-0.6-1.5
						c-0.4-0.4-0.9-0.6-1.5-0.6c-0.6,0-1.1,0.2-1.5,0.6c-0.4,0.4-0.6,1-0.7,1.8l-1.5-0.5c0.2-1,0.5-1.8,1.1-2.4
						c0.7-0.7,1.6-1.1,2.6-1.1c1,0,1.9,0.4,2.6,1.1c0.7,0.7,1.1,1.6,1.1,2.6c0,1-0.3,1.9-1,2.6c-0.4,0.5-0.9,0.9-1.5,1.4
						s-1.2,0.9-1.9,1.5c-0.6,0.5-1,0.9-1,1.2h5.6v1.5h-7.3C829.8,432.1,830.3,430.9,831.1,430.3z"/>
					<path class="st1" d="M840.5,432.3c0.2,0.2,0.3,0.5,0.3,0.7c0,0.3-0.1,0.6-0.3,0.8s-0.5,0.3-0.7,0.3c-0.3,0-0.5-0.1-0.7-0.3
						c-0.2-0.2-0.3-0.5-0.3-0.8c0-0.3,0.1-0.5,0.3-0.7c0.2-0.2,0.5-0.3,0.7-0.3C840,432,840.3,432.1,840.5,432.3z"/>
					<path class="st1" d="M850.4,430c0,1.1-0.4,2.1-1.2,2.9c-0.8,0.8-1.8,1.2-2.9,1.2c-1.1,0-2.1-0.4-2.9-1.2
						c-0.8-0.8-1.2-1.8-1.2-2.9v-3.6c0-1.1,0.4-2.1,1.2-2.9c0.8-0.8,1.8-1.2,2.9-1.2c1.1,0,2.1,0.4,2.9,1.2c0.8,0.8,1.2,1.8,1.2,2.9
						V430z M848.9,426.4c0-0.7-0.3-1.3-0.8-1.8c-0.5-0.5-1.1-0.8-1.8-0.8c-0.7,0-1.3,0.3-1.8,0.8c-0.5,0.5-0.8,1.1-0.8,1.8v3.6
						c0,0.7,0.3,1.3,0.8,1.8c0.5,0.5,1.1,0.8,1.8,0.8c0.7,0,1.3-0.3,1.8-0.8c0.5-0.5,0.8-1.1,0.8-1.8V426.4z"/>
					<path class="st1" d="M859.8,430c0,1.1-0.4,2.1-1.2,2.9c-0.8,0.8-1.8,1.2-2.9,1.2c-1.1,0-2.1-0.4-2.9-1.2
						c-0.8-0.8-1.2-1.8-1.2-2.9v-3.6c0-1.1,0.4-2.1,1.2-2.9c0.8-0.8,1.8-1.2,2.9-1.2c1.2,0,2.1,0.4,2.9,1.2c0.8,0.8,1.2,1.8,1.2,2.9
						V430z M858.3,426.4c0-0.7-0.3-1.3-0.8-1.8s-1.1-0.8-1.8-0.8c-0.7,0-1.3,0.3-1.8,0.8c-0.5,0.5-0.8,1.1-0.8,1.8v3.6
						c0,0.7,0.3,1.3,0.8,1.8c0.5,0.5,1.1,0.8,1.8,0.8c0.7,0,1.3-0.3,1.8-0.8s0.8-1.1,0.8-1.8V426.4z"/>
					<path class="st1" d="M863.4,426.8c0.4-0.5,1.2-0.7,2.2-0.7c1,0,1.8,0.3,2.5,1c0.8,0.8,1.2,1.8,1.2,2.9c0,1.1-0.4,2.1-1.2,2.9
						c-0.8,0.8-1.8,1.2-2.9,1.2c-1.1,0-2.1-0.4-2.9-1.2c-0.8-0.8-1.2-1.9-1.2-3.3v0c0-1.4,0.4-2.6,1.1-3.6c0.8-1.1,1.8-2.3,3-3.7h2
						C865.4,424.1,864.1,425.6,863.4,426.8z M862.5,430c0,0.7,0.3,1.3,0.8,1.8c0.5,0.5,1.1,0.8,1.8,0.8c0.7,0,1.3-0.3,1.8-0.8
						c0.5-0.5,0.8-1.1,0.8-1.8s-0.3-1.3-0.8-1.8c-0.5-0.5-1.1-0.8-1.8-0.8c-0.7,0-1.3,0.3-1.8,0.8
						C862.8,428.7,862.5,429.3,862.5,430z"/>
					<path class="st1" d="M835.2,450c0,1.1-0.4,2.1-1.2,2.9c-0.8,0.8-1.8,1.2-2.9,1.2c-1.1,0-2.1-0.4-2.9-1.2
						c-0.8-0.8-1.2-1.8-1.2-2.9v-3.6c0-1.1,0.4-2.1,1.2-2.9c0.8-0.8,1.8-1.2,2.9-1.2c1.1,0,2.1,0.4,2.9,1.2c0.8,0.8,1.2,1.8,1.2,2.9
						V450z M833.7,446.4c0-0.7-0.3-1.3-0.8-1.8c-0.5-0.5-1.1-0.8-1.8-0.8c-0.7,0-1.3,0.3-1.8,0.8c-0.5,0.5-0.8,1.1-0.8,1.8v3.6
						c0,0.7,0.3,1.3,0.8,1.8c0.5,0.5,1.1,0.8,1.8,0.8c0.7,0,1.3-0.3,1.8-0.8c0.5-0.5,0.8-1.1,0.8-1.8V446.4z"/>
					<path class="st1" d="M839,452l-1.7,3.5h-1.4l0.9-3.5H839z"/>
					<path class="st1" d="M846.2,442.3V454h-1.5v-9.7h-1.1l1.5-2L846.2,442.3L846.2,442.3z"/>
					<path class="st1" d="M854.2,445.5c0.4,0.4,0.6,0.9,0.6,1.4c0,0.6-0.2,1-0.6,1.4c-0.4,0.4-0.9,0.6-1.4,0.6c-0.6,0-1-0.2-1.4-0.6
						c-0.4-0.4-0.6-0.9-0.6-1.4c0-0.6,0.2-1,0.6-1.4c0.4-0.4,0.9-0.6,1.4-0.6C853.3,444.9,853.8,445.1,854.2,445.5z M858.7,444.6
						l-6.7,9.6l-1.2-0.9l6.7-9.6L858.7,444.6z M852.7,446.4c-0.1,0-0.3,0.1-0.4,0.1c-0.1,0.1-0.1,0.2-0.1,0.4c0,0.1,0.1,0.3,0.1,0.4
						c0.1,0.1,0.2,0.1,0.4,0.1c0.1,0,0.3-0.1,0.4-0.1s0.2-0.2,0.2-0.4c0-0.1-0.1-0.3-0.2-0.4C853,446.4,852.9,446.4,852.7,446.4z
						 M858.2,449.5c0.4,0.4,0.6,0.9,0.6,1.4c0,0.6-0.2,1-0.6,1.4c-0.4,0.4-0.9,0.6-1.4,0.6c-0.6,0-1-0.2-1.4-0.6
						c-0.4-0.4-0.6-0.9-0.6-1.4c0-0.6,0.2-1,0.6-1.4c0.4-0.4,0.9-0.6,1.4-0.6C857.3,448.9,857.8,449.1,858.2,449.5z M856.8,450.4
						c-0.1,0-0.3,0-0.4,0.1c-0.1,0.1-0.1,0.2-0.1,0.4c0,0.1,0,0.3,0.1,0.4c0.1,0.1,0.2,0.1,0.4,0.1s0.3,0,0.4-0.1
						c0.1-0.1,0.2-0.2,0.2-0.4c0-0.1-0.1-0.3-0.2-0.4C857,450.5,856.9,450.4,856.8,450.4z"/>
				</g>
			</g>
		</g>
	</g>
</g>
<text transform="matrix(1 0 0 1 401.6006 532.9987)"><tspan x="0" y="0" class="st3 st4 st5">Figura 6. Pirmide poblacional de PcD registradas</tspan><tspan x="88.3" y="16.8" class="st3 st4 st5">Fuente: MSPS (2018)</tspan></text>
</svg>
