<?xml version="1.0" encoding="utf-8"?>
<!-- Generator: Adobe Illustrator 16.0.0, SVG Export Plug-In . SVG Version: 6.00 Build 0)  -->
<!DOCTYPE svg PUBLIC "-//W3C//DTD SVG 1.1//EN" "http://www.w3.org/Graphics/SVG/1.1/DTD/svg11.dtd">
<svg version="1.1" id="Capa_1" xmlns="http://www.w3.org/2000/svg" xmlns:xlink="http://www.w3.org/1999/xlink" x="0px" y="0px"
	 width="734.338px" height="413.177px" viewBox="0 0 734.338 413.177" enable-background="new 0 0 734.338 413.177"
	 xml:space="preserve">
<g>
	<g>
		<g>
			<path fill="#F39200" d="M176.155,114.154l0.071,0.788l0.01,0.12l0,0l0,0c0.002,0.021,0,0.043-0.005,0.062l-0.139,0.487
				c-0.007,0.019-0.015,0.037-0.025,0.053l-0.15,0.21l-0.063,0.41c-0.008,0.051-0.037,0.095-0.08,0.122l-0.422,0.259l-0.141,0.198
				l-0.131,0.327l-0.443,2.365c-0.005,0.03-0.02,0.06-0.041,0.083l-0.312,0.348c-0.01,0.011-0.019,0.02-0.029,0.027l-0.35,0.242
				l-0.461,0.467l-0.548,0.369c-0.037,0.025-0.081,0.034-0.125,0.027l-0.424-0.07v0.643c0.048,0.021,0.084,0.062,0.099,0.111
				l0.068,0.243c0.014,0.045,0.008,0.094-0.016,0.134c-0.025,0.041-0.062,0.071-0.109,0.082l-0.1,0.026l-0.036,0.027l0.101,0.202
				l0.229,0.261l2.974,2.73l2.414,1.724c0.011,0.007,0.02,0.016,0.027,0.024l2.432,2.64l1.884,2.336l0.429,0.359l0.572,0.347
				l0.762,0.1l0.346,0.111c0.018,0.006,0.033,0.015,0.049,0.026l0.278,0.209l1.017,0.875c0.011,0.01,0.021,0.021,0.03,0.033
				l0.312,0.451c0.01,0.014,0.016,0.028,0.021,0.044l0.486,1.459c0.006,0.016,0.008,0.032,0.01,0.05l0.069,2.641l-0.071,0.482
				c-0.002,0.018-0.009,0.035-0.018,0.052l-0.104,0.208l-0.77,1.297c-0.033,0.055-0.094,0.087-0.161,0.084l-0.555-0.034
				c-0.026-0.002-0.052-0.009-0.074-0.022l-0.312-0.174l-0.388-0.125l-1.878-0.478H181.9l-1.479,0.138l-0.666,0.102l-0.434,0.166
				l-0.104,0.062l-0.158,0.098l-0.067,0.223l0.202,0.43l0.26,0.164c0.029,0.017,0.051,0.04,0.064,0.068l0.14,0.279l0.116,0.412
				l0.109,0.895c0.002,0.023,0,0.047-0.007,0.07l-0.104,0.348c-0.006,0.02-0.015,0.038-0.026,0.055l-0.091,0.119l-0.117,0.158
				l-0.295,0.297l-0.088,0.12c-0.018,0.021-0.037,0.039-0.062,0.052l-0.209,0.104c-0.028,0.015-0.062,0.02-0.094,0.018l-1.054-0.099
				l-0.259,0.161l-0.42,0.26c-0.022,0.014-0.048,0.022-0.073,0.025l-0.294,0.033l-0.859,0.285l0.014,0.044
				c0.007,0.019,0.009,0.036,0.009,0.056v0.847l0.049,0.194l0.294,0.205c0.033,0.023,0.058,0.057,0.068,0.095l0.069,0.243
				c0.012,0.042,0.008,0.088-0.012,0.126l-0.07,0.139c-0.006,0.013-0.014,0.024-0.023,0.036l-0.195,0.228l0.078,0.007l0.193,0.037
				c0.029,0.006,0.056,0.019,0.077,0.037l0.001,0.001c0.021,0.018,0.039,0.041,0.05,0.067l0.067,0.174
				c0.01,0.021,0.014,0.043,0.014,0.064v0.21l0.039,0.098l0.076,0.049c0.006-0.014,0.013-0.027,0.021-0.04l0.174-0.243
				c0.012-0.017,0.027-0.032,0.045-0.044l0.209-0.139c0.012-0.008,0.023-0.011,0.036-0.015c0.009-0.004,0.016-0.009,0.024-0.011
				c0.01-0.002,0.02,0,0.029-0.001c0.012,0,0.024-0.003,0.035-0.001c0.043,0.008,0.082,0.031,0.11,0.068l0.104,0.139
				c0.009,0.014,0.012,0.029,0.018,0.044c0.016,0.039,0.02,0.08,0.006,0.12l-0.128,0.354v0.166l0.083,0.145l0.146,0.049l0.488,0.062
				c0.038,0.005,0.073,0.021,0.101,0.049l0.104,0.104c0.02,0.021,0.035,0.046,0.044,0.073c0.004,0.014,0.001,0.029,0.002,0.043
				s0.005,0.027,0.002,0.041l0,0l0,0l-0.014,0.069l-0.056,0.278c-0.008,0.039-0.03,0.075-0.061,0.1
				c-0.029,0.025-0.068,0.039-0.11,0.039h-0.14c-0.036,0-0.073-0.012-0.104-0.034l-0.08-0.061l-0.135,0.224l-0.006,0.049
				l-0.051,0.35l0.037,0.074l0.123-0.062c0.045-0.022,0.096-0.024,0.142-0.007l0.348,0.14c0.026,0.011,0.049,0.026,0.067,0.048
				l0.209,0.244c0.016,0.019,0.026,0.039,0.033,0.062l0.104,0.348c0.005,0.016,0.008,0.032,0.008,0.05v0.337l0.182,0.156
				c0.017,0.014,0.029,0.029,0.038,0.047l0.06,0.104l0.104,0.188l0.115,0.116l0.211-0.071c0.069-0.022,0.146-0.001,0.19,0.057
				l0.557,0.694c0.018,0.022,0.028,0.047,0.033,0.074l0.035,0.174c0.01,0.054-0.004,0.108-0.039,0.148l-0.226,0.259l-0.101,0.228
				l0.019,0.056l0.292,0.08c0.038,0.011,0.067,0.035,0.09,0.066c0.01,0.015,0.022,0.026,0.027,0.042
				c0.01,0.027,0.014,0.056,0.009,0.082c-0.004,0.027-0.014,0.055-0.03,0.078l-0.174,0.242c-0.021,0.03-0.053,0.053-0.086,0.064
				l-0.131,0.043l0.084,0.184l0.193,0.225v0.001l0,0c0.004,0.005,0.004,0.013,0.008,0.019c0.016,0.022,0.028,0.046,0.032,0.072
				l0.034,0.278c0.006,0.04-0.004,0.081-0.024,0.115l-0.137,0.212l0.13,0.057c0.025,0.012,0.048,0.029,0.066,0.051
				c0.016,0.021,0.027,0.048,0.033,0.076c0.01,0.057-0.008,0.113-0.048,0.154l-0.18,0.18l-0.126,0.378l-0.009,0.058l-0.049,0.328
				l0.083,0.303l0.074,0.074l0.337,0.092c0.011,0.002,0.018,0.008,0.024,0.012c0.01,0.004,0.018,0.006,0.027,0.012l0.068,0.045
				l0.035,0.023c0.037,0.025,0.064,0.066,0.072,0.11l0.128,0.608l0.629,0.662c0.009,0.01,0.018,0.021,0.024,0.031l0.242,0.418
				c0.012,0.018,0.019,0.039,0.021,0.062l0.064,0.441l0.166,0.224l0.269,0.208l0.591,0.165l0.564,0.064l1.814-0.071l1.01-0.238
				l2.455-0.213l0.742-0.17l0.922-0.107l0.889-0.001l0.854,0.105c0.031,0.004,0.06,0.016,0.084,0.034l0.416,0.312
				c0.018,0.013,0.031,0.027,0.043,0.045l0.244,0.383c0.012,0.021,0.022,0.047,0.025,0.072l0.17,1.438l0.541,1.413l0.614,0.777
				l0.517,0.213h0.59c0.029,0,0.057,0.008,0.082,0.021l0.59,0.312c0.051,0.026,0.084,0.075,0.092,0.131l0.141,1.042l0,0l0,0
				c0.003,0.029,0,0.059-0.012,0.085l-0.172,0.446l-0.446,1.167l-0.063,0.509l0.101,0.602l0.159,0.477l0.828,1.412
				c0.012,0.021,0.02,0.042,0.021,0.064l0.062,0.521l0.007,0.069l0,0l0,0c0.004,0.021,0.002,0.045-0.004,0.066l-0.279,1.007
				l-0.024,0.299l0.22,0.406l0.121,0.148l0.872,0.904l0.668,0.334c0.034,0.017,0.06,0.044,0.077,0.077l0.265,0.528l0.413,0.383
				l0.507,0.303l0.756,0.294l1.034,0.167l0.473-0.063l1.176-0.505l1.067-0.751l0.446-0.315c0.024-0.017,0.053-0.027,0.084-0.031
				l0.346-0.033c0.043-0.005,0.085,0.007,0.12,0.031l0.624,0.451l0.236,0.232l0.137,0.046l0.031-0.003l0.456-0.029
				c0.013-0.001,0.023,0,0.036,0l0.469,0.068l0.537-0.034l0,0l0,0c0.02-0.001,0.041,0.002,0.061,0.007l0.406,0.119l0.068-0.366
				l0.033-0.433l-0.002-0.031l-0.032-0.41l-0.376-1.268c-0.006-0.017-0.008-0.033-0.008-0.05v-0.348l0.113-0.607l-0.197-0.06
				c-0.02-0.006-0.036-0.018-0.053-0.029c-0.023-0.018-0.045-0.039-0.057-0.066l-0.139-0.312c-0.01-0.022-0.016-0.047-0.016-0.071
				v-0.799c0-0.048,0.02-0.091,0.051-0.122c0.031-0.032,0.075-0.052,0.124-0.052h0.276c0.021,0,0.042,0.004,0.06,0.011l0.766,0.277
				l0.261,0.064c0.021,0.006,0.043,0.016,0.061,0.03l0.278,0.208c0.03,0.021,0.053,0.053,0.062,0.089l0.091,0.306l0.152,0.152
				l0.984,0.391h0.3l0.468-0.249l0.536-0.286c0.023-0.013,0.048-0.019,0.074-0.021c0.026-0.001,0.052,0.004,0.076,0.015l0.243,0.104
				c0.015,0.007,0.029,0.015,0.043,0.026l0.183,0.152l0.489,0.162c0.034,0.012,0.064,0.033,0.084,0.062l0.104,0.14
				c0.006,0.005,0.007,0.012,0.011,0.019c0.007,0.012,0.015,0.023,0.019,0.037l0.055,0.188l0.016,0.055
				c0.005,0.02,0.007,0.04,0.005,0.061l-0.066,0.68l0.022,0.133l0.191,0.221l0.152,0.091l0.293,0.129
				c0.032,0.015,0.059,0.037,0.077,0.066l0.173,0.277c0.008,0.012,0.013,0.023,0.018,0.036l0.556,1.598
				c0.005,0.014,0.008,0.027,0.009,0.043l0.035,0.416c0,0.012,0,0.023,0,0.035l-0.062,0.512l-0.008,0.069l0.256-0.099l0.1-0.039
				h0.002c0.021-0.008,0.04-0.012,0.061-0.012h0.001c0.031,0,0.06,0.01,0.085,0.025c0.006,0.004,0.012,0.008,0.017,0.012
				c0.024,0.018,0.045,0.04,0.058,0.07h0.001l0.323,0.793l0.028-0.007l0.243-0.396l0.22-0.276l0.056-0.071l0.2-0.432
				c0.011-0.024,0.028-0.045,0.048-0.062l0.383-0.312l0.502-0.324l0.363-0.183l0.062-0.024l0.232-0.088
				c0.016-0.005,0.033-0.01,0.051-0.01l0.544-0.032l0.091-0.062v-0.08l0,0c0-0.043,0.016-0.084,0.043-0.115l0.737-0.832l0.048-0.055
				l0.144-0.286l-0.032-0.824l0,0l0,0l0.006-0.063l0.063-0.588c0.009-0.084,0.076-0.147,0.159-0.154l0.067-0.006l0.775-0.062
				l0.429-0.164l0.403-0.219l0.222-0.254l0.299-0.467c0.022-0.033,0.056-0.06,0.096-0.072l1.146-0.346l0.348-0.105l0.235-0.046
				l1.206-0.236c0.027-0.005,0.057-0.005,0.084,0.004l0.452,0.14c0.024,0.008,0.046,0.021,0.065,0.037l0.418,0.383l0.951,0.645
				l0.154,0.063l0.639-0.204l0.267-0.473l0.026-0.126l0.071-0.334l0.184-0.448l0.024-0.141c0.003-0.018,0.016-0.029,0.024-0.045
				c0.008-0.015,0.011-0.032,0.022-0.044l0.141-0.14l0,0c0.027-0.026,0.064-0.045,0.103-0.049l0.294-0.033l0.192-0.063
				c0.021-0.008,0.044-0.011,0.067-0.009c0.021,0.002,0.044,0.008,0.064,0.019l0.139,0.069c0.014,0.007,0.026,0.015,0.037,0.025
				l0.178,0.155l0.06-0.04l0.278-0.559l0.207-1.432c0.002-0.018,0.006-0.036,0.016-0.054l0.173-0.347l0.293-0.406l0.329-0.333
				c0.02-0.018,0.04-0.031,0.064-0.04l0.212-0.08l0.04-0.081l-0.321-0.903c-0.008-0.023-0.013-0.049-0.009-0.072l0.034-0.418
				c0.004-0.04,0.021-0.079,0.051-0.107l0.104-0.104c0.014-0.015,0.031-0.026,0.05-0.036l0.451-0.207l0.034-0.102l-0.062-0.446
				l0.031-1.003l-0.029-0.295l-0.154-0.336l-0.298-0.365l-0.155-0.267c-0.015-0.026-0.023-0.056-0.023-0.086v-0.348
				c0-0.013,0.001-0.025,0.005-0.038l0.069-0.312c0.004-0.016,0.01-0.033,0.019-0.047l0.299-0.532l0.203-0.981
				c0.003-0.014,0.007-0.026,0.013-0.039l0.278-0.59c0.006-0.015,0.016-0.028,0.024-0.041l0.451-0.52
				c0.012-0.012,0.022-0.021,0.035-0.029l1.441-0.996l0.576-0.645l1.062-1.613c0.045-0.067,0.13-0.095,0.206-0.066l0.225,0.084
				l0.137-0.039l0.119-0.145l0.08-0.211l-0.025-0.2l-0.111-0.196l-0.37-0.402c-0.021-0.022-0.034-0.05-0.042-0.08l-0.069-0.312
				l-0.072-2.186l0,0l0,0c-0.001-0.024,0.003-0.049,0.012-0.07l0.347-0.869l0.026-0.143l0.148-0.378
				c0.021-0.051,0.062-0.089,0.115-0.103l0.383-0.105l0.931-0.139l0.846-0.405l4.258-3.164l0.299-0.396l0.713-1.399
				c0.008-0.015,0.016-0.027,0.027-0.04l0.951-1.019l0.127-0.316c0.012-0.031,0.033-0.058,0.061-0.076l0.242-0.175l1.936-0.952
				l0.496-0.375l0.27-0.541l-0.127-0.89l-0.154-0.306l-0.266-0.334l-0.25-0.355c-0.014-0.02-0.023-0.041-0.027-0.063l-0.105-0.486
				l-0.244-3.045l0,0l0,0c-0.002-0.013-0.002-0.027,0-0.04l0.09-0.602l-7.163,6.833c-0.019,0.019-0.042,0.03-0.067,0.038
				c-0.007,0.002-0.014,0.002-0.022,0.004s-0.021,0.006-0.029,0.006c-0.014,0-0.028-0.002-0.042-0.006l-0.388-0.097l-0.665,0.067
				c-0.015,0-0.029,0-0.043-0.002l-0.453-0.069c-0.014-0.002-0.027-0.007-0.042-0.013l-0.556-0.242
				c-0.029-0.014-0.053-0.034-0.072-0.061l-0.243-0.347c-0.014-0.021-0.024-0.042-0.028-0.065l-0.104-0.521l-0.068-0.514
				l-0.237-0.642l-0.212-0.741l-0.376-0.921l-0.182-0.754l-0.039-0.621c-0.002-0.021,0.001-0.041,0.008-0.062l0.234-0.774v-0.911
				l-0.101-0.524c-0.004-0.021-0.004-0.044,0-0.065l0.104-0.521c0.004-0.018,0.01-0.034,0.019-0.051l0.174-0.312
				c0.007-0.012,0.016-0.023,0.024-0.033l0.486-0.521l0.18-0.273l0.131-0.362l0.123-0.491l-0.328-1.035l-0.713,0.556l-0.227,0.388
				l-0.407,0.986c-0.006,0.016-0.015,0.031-0.025,0.044l-0.313,0.382l-0.541,0.473c-0.021,0.02-0.047,0.032-0.075,0.038
				l-0.451,0.104c-0.03,0.007-0.062,0.006-0.091-0.003l-0.451-0.14c-0.024-0.007-0.048-0.021-0.066-0.038l-0.488-0.451l-0.814-0.99
				c-0.008-0.013-0.018-0.025-0.023-0.04l-0.451-1.007c-0.006-0.013-0.012-0.027-0.014-0.043l-0.104-0.624l-0.003-0.759l0.315-1.973
				c0.002-0.017,0.007-0.032,0.014-0.047l0.278-0.591c0.012-0.025,0.031-0.048,0.054-0.065l0.521-0.382l0.516-0.311l0.383-0.384
				l0.323-0.612l0.058-0.346l-0.07-0.213l-0.226-0.141l-0.306-0.169c-0.023-0.015-0.047-0.036-0.062-0.061l-0.278-0.452
				c-0.007-0.013-0.014-0.026-0.017-0.041l-0.209-0.695l-0.248-2.372l-0.225-0.608l-0.223-0.254l-0.462-0.639l-0.41-0.717
				l-5.397-4.406l-0.126,0.032l-0.173,0.044l-0.354,0.256l-0.356,0.395l-0.238,0.371l-0.367,0.579l-0.703,0.946
				c-0.018,0.024-0.039,0.043-0.066,0.055c-0.023,0.012-0.053,0.018-0.082,0.016l-1.286-0.07l-0.465,0.036l-0.295,0.06l-0.323,0.193
				c-0.01,0.006-0.021,0.012-0.033,0.017l-0.312,0.104c-0.03,0.01-0.061,0.012-0.093,0.005l-0.733-0.175l-0.492-0.03l-1.707,0.174
				l-0.559,0.167l-0.281,0.113l-0.77,1.171l-1.441,1.551l-0.859,1.101c-0.007,0.009-0.016,0.019-0.024,0.026l-0.66,0.556
				l-1.231,0.844l-0.332,0.339l-0.719,1.604c-0.014,0.032-0.036,0.059-0.067,0.078l-0.624,0.381l-0.375,0.348l-0.249,0.373
				l-0.104,0.445l-0.34,1.471c-0.006,0.019-0.012,0.037-0.021,0.054l-0.558,0.868l0,0c-0.015,0.022-0.033,0.041-0.055,0.055
				l-0.452,0.278l-0.895,0.36l-1.42,0.287l-0.787,0.264l-0.615,0.453l-1.602,2.281l-0.095,0.32l-0.029,0.218
				c-0.007,0.052-0.036,0.096-0.079,0.122l-0.278,0.175c-0.013,0.009-0.028,0.015-0.045,0.02l-0.188,0.054l-0.055,0.016
				c-0.016,0.004-0.031,0.007-0.047,0.007c-0.003,0-0.006,0-0.009-0.001l-2.292-0.104l-1.524-0.035l-8.79-0.242
				c-0.074-0.002-0.139-0.051-0.161-0.122l-0.625-1.98l-1.451-3.176c-0.006-0.013-0.01-0.024-0.013-0.037l-0.209-1.042l-0.003-2.293
				l0,0c0-0.016,0.002-0.031,0.007-0.047l0.868-3.161c0.004-0.015,0.012-0.03,0.019-0.044l0.822-1.334l0.307-1.088l0.063-0.598
				l-0.071-2.164c0-0.032,0.008-0.063,0.023-0.091l0.451-0.8l0.699-1.086l1.207-2.414l1.125-1.62l1.223-1.429l0.005-0.07
				l0.062-0.881l-0.035-0.989l-0.305-1.886l-0.73-1.098l-0.342-0.31l-1.218-0.44c-0.024-0.008-0.046-0.021-0.063-0.039l-0.348-0.348
				c-0.012-0.012-0.021-0.024-0.029-0.037l-0.416-0.729l-0.547-0.786c-0.014-0.02-0.023-0.041-0.028-0.064l-0.382-1.876
				l-0.153-0.425l-0.597-0.598l-0.034,0.033l-1.241,0.855L185.67,98.7l-0.328,0.257c-0.012,0.011-0.028,0.02-0.045,0.025
				l-1.563,0.591c-0.012,0.004-0.023,0.008-0.035,0.009l-0.138,0.021c0.005,0.017,0.007,0.032,0.007,0.05v0.14
				c0,0.058-0.028,0.112-0.077,0.144l-0.17,0.113l-0.067,0.137l-0.032,0.521c-0.002,0.035-0.016,0.069-0.038,0.098l-0.14,0.173
				c-0.012,0.016-0.026,0.028-0.043,0.039l-0.278,0.174c-0.015,0.008-0.028,0.016-0.044,0.02l-2.293,0.66
				c-0.012,0.004-0.024,0.006-0.036,0.007l-0.536,0.032l-2.241,0.704l-0.245,0.427l-0.608,0.721l-0.24,0.374
				c0.01,0.001,0.02,0.001,0.028,0.002l0.695,0.104c0.017,0.002,0.032,0.008,0.048,0.014l0.833,0.382l0.758,0.538l0.509,0.504
				c0.02,0.02,0.033,0.043,0.042,0.068l0.139,0.417l0.108,0.43l0.101,0.224l0.252,0.111l0.34,0.223
				c0.035,0.024,0.061,0.061,0.071,0.103l0.104,0.417c0.004,0.014,0.006,0.028,0.006,0.043v3.3l0.137,0.733l0.303,0.766
				c0.005,0.013,0.009,0.025,0.011,0.039l0.069,0.486c0.003,0.025,0.001,0.051-0.007,0.075l-0.234,0.774v0.529l0.025,0.188
				c0.029-0.047,0.079-0.078,0.136-0.082c0.069-0.005,0.136,0.032,0.167,0.096l0.278,0.556c0.011,0.021,0.017,0.044,0.019,0.068
				l0.035,0.66l-0.141,1.484c-0.002,0.013-0.004,0.026-0.007,0.039l-0.071,0.208c-0.006,0.021-0.018,0.041-0.031,0.058l-0.18,0.209
				l-0.021,0.101l0.065,0.493c0.004,0.026,0.002,0.053-0.008,0.077l-0.068,0.209c-0.007,0.021-0.018,0.039-0.031,0.057l-0.174,0.207
				c-0.014,0.017-0.029,0.031-0.047,0.041l-0.244,0.139l-0.303,0.115c-0.013,0.005-0.025,0.008-0.039,0.01l-0.277,0.035
				l-1.486-0.033c-0.014,0-0.031-0.003-0.047-0.008l-1.25-0.382c-0.035-0.011-0.066-0.032-0.088-0.062l-0.625-0.833
				c-0.034-0.045-0.044-0.105-0.025-0.16l0.389-1.169c-0.07-0.022-0.119-0.089-0.119-0.165v-0.104c0-0.043,0.016-0.085,0.044-0.116
				l0.347-0.383c0.029-0.031,0.068-0.05,0.109-0.055l0.555-0.069c0.022-0.004,0.046-0.002,0.067,0.005l0.383,0.105l-0.146-0.175
				c-0.04-0.05-0.051-0.118-0.026-0.178s0.081-0.101,0.145-0.106l0.102-0.009c-0.071-0.023-0.119-0.091-0.119-0.165v-0.14
				c0-0.071,0.043-0.136,0.109-0.161l0.215-0.085c-0.008-0.021-0.014-0.043-0.014-0.066v-0.278c0-0.016,0.004-0.031,0.008-0.047
				l0.069-0.243c0.005-0.015,0.011-0.03,0.019-0.044l0.116-0.187h-0.988l-0.021,0.292c-0.007,0.081-0.069,0.147-0.15,0.158
				l-0.521,0.069c-0.039,0.005-0.078-0.003-0.11-0.022l-0.592-0.348C176.192,114.204,176.17,114.181,176.155,114.154z"/>
		</g>
	</g>
	<g>
		<g>
			<g>
				<g>
					<path fill="#FFFFFF" d="M510.057,175.864l4.232,28.459h-7.562l-0.397-5.115h-2.647l-0.445,5.115h-7.65l3.775-28.459H510.057z
						 M506.135,194.163c-0.375-3.223-0.75-7.207-1.127-11.953c-0.754,5.45-1.228,9.435-1.42,11.953H506.135z"/>
					<path fill="#FFFFFF" d="M532.069,175.864v28.459h-6.486l-3.85-12.938v12.938h-6.188v-28.459h6.188l4.148,12.814v-12.814
						H532.069z"/>
					<path fill="#FFFFFF" d="M549.946,175.864v5.695h-4.395v22.764h-7.4V181.56h-4.377v-5.695H549.946z"/>
					<path fill="#FFFFFF" d="M559.034,175.864v28.459h-7.4v-28.459H559.034z"/>
					<path fill="#FFFFFF" d="M578.915,192.528c0,2.859-0.067,4.885-0.202,6.074s-0.557,2.275-1.266,3.26s-1.667,1.74-2.874,2.268
						s-2.613,0.791-4.219,0.791c-1.523,0-2.892-0.248-4.104-0.746s-2.188-1.246-2.927-2.242s-1.178-2.08-1.318-3.252
						s-0.211-3.223-0.211-6.152v-4.869c0-2.859,0.067-4.883,0.202-6.072s0.557-2.277,1.266-3.262s1.667-1.74,2.874-2.268
						s2.613-0.791,4.219-0.791c1.523,0,2.892,0.25,4.104,0.748s2.188,1.244,2.927,2.24s1.178,2.08,1.318,3.252
						s0.211,3.223,0.211,6.152V192.528z M571.515,183.177c0-1.324-0.073-2.17-0.22-2.539s-0.448-0.555-0.905-0.555
						c-0.387,0-0.683,0.15-0.888,0.449s-0.308,1.18-0.308,2.645v13.289c0,1.652,0.067,2.672,0.202,3.059s0.448,0.58,0.94,0.58
						c0.504,0,0.826-0.223,0.967-0.668s0.211-1.506,0.211-3.182V183.177z"/>
					<path fill="#FFFFFF" d="M598.603,204.323v3.445h-5.59c-1.348,0-2.297-0.104-2.848-0.312s-0.923-0.517-1.116-0.925
						c-0.193-0.41-0.29-1.146-0.29-2.209c-1.676-0.047-3.117-0.486-4.324-1.318s-2.004-1.889-2.391-3.172s-0.58-3.203-0.58-5.758
						v-8.807c0-1.934,0.114-3.406,0.343-4.42s0.7-1.969,1.415-2.865s1.635-1.574,2.76-2.031s2.373-0.686,3.744-0.686
						c1.652,0,3.126,0.281,4.421,0.844s2.262,1.277,2.9,2.145s1.055,1.766,1.248,2.697s0.29,2.316,0.29,4.156v9.242
						c0,2.531-0.123,4.247-0.369,5.148c-0.246,0.902-0.718,1.62-1.415,2.153c-0.697,0.532-1.626,0.94-2.786,1.222
						c0.035,0.637,0.167,1.037,0.396,1.202s0.771,0.247,1.626,0.247H598.603z M591.185,183.177c0-1.324-0.073-2.17-0.22-2.539
						s-0.448-0.555-0.905-0.555c-0.387,0-0.683,0.15-0.888,0.449s-0.308,1.18-0.308,2.645v13.289c0,1.652,0.067,2.672,0.202,3.059
						s0.448,0.58,0.94,0.58c0.504,0,0.826-0.223,0.967-0.668s0.211-1.506,0.211-3.182V183.177z"/>
					<path fill="#FFFFFF" d="M618.167,175.864v19.02c0,2.156-0.07,3.672-0.211,4.545s-0.557,1.77-1.248,2.689
						s-1.603,1.617-2.733,2.092s-2.464,0.711-3.999,0.711c-1.699,0-3.199-0.281-4.5-0.844s-2.273-1.295-2.918-2.197
						s-1.025-1.854-1.143-2.855s-0.176-3.109-0.176-6.32v-16.84h7.4v21.34c0,1.242,0.067,2.037,0.202,2.383s0.407,0.518,0.817,0.518
						c0.469,0,0.771-0.189,0.905-0.57s0.202-1.281,0.202-2.699v-20.971H618.167z"/>
					<path fill="#FFFFFF" d="M628.433,175.864v28.459h-7.4v-28.459H628.433z"/>
					<path fill="#FFFFFF" d="M644.195,175.864l4.232,28.459h-7.562l-0.397-5.115h-2.647l-0.445,5.115h-7.65l3.775-28.459H644.195z
						 M640.273,194.163c-0.375-3.223-0.75-7.207-1.127-11.953c-0.754,5.45-1.228,9.435-1.42,11.953H640.273z"/>
				</g>
			</g>
		</g>
	</g>
	<g>
		<g>
			<path fill="#F2961C" d="M498.211,225.136v4.156h-1.681v-12.986h3.685c1.045,0.141,1.927,0.57,2.646,1.29
				c0.86,0.866,1.291,1.905,1.291,3.116c0,1.224-0.431,2.267-1.291,3.129c-0.86,0.863-1.899,1.295-3.117,1.295H498.211z
				 M498.211,217.993v5.455h1.533c0.747,0,1.387-0.268,1.92-0.8c0.533-0.533,0.799-1.179,0.799-1.937
				c0-0.752-0.266-1.393-0.799-1.924c-0.533-0.529-1.173-0.795-1.92-0.795H498.211z"/>
			<path fill="#F2961C" d="M512.439,226.427l1.68,0.601c-0.411,0.568-0.709,0.944-0.893,1.128c-0.904,0.904-1.994,1.355-3.271,1.355
				c-1.271,0-2.359-0.451-3.263-1.355c-0.903-0.903-1.355-1.994-1.355-3.271c0-1.277,0.452-2.368,1.355-3.271
				s1.991-1.355,3.263-1.355c1.277,0,2.367,0.452,3.271,1.355c0.184,0.185,0.481,0.555,0.893,1.112l-1.68,0.617
				c-0.217-0.266-0.363-0.436-0.438-0.512c-0.563-0.562-1.245-0.844-2.046-0.844c-0.795,0-1.476,0.282-2.041,0.848
				s-0.848,1.249-0.848,2.05c0,0.796,0.282,1.476,0.848,2.041s1.246,0.849,2.041,0.849c0.801,0,1.486-0.281,2.055-0.844
				C512.079,226.854,512.223,226.687,512.439,226.427z"/>
			<path fill="#F2961C" d="M517.301,216.306c2.11,0.01,3.756,0.607,4.936,1.793c1.293,1.305,1.939,2.871,1.939,4.699
				c0,1.835-0.646,3.401-1.939,4.7c-1.18,1.185-2.825,1.783-4.936,1.794h-1.233v-12.986H517.301z M517.748,218.018v9.569
				c1.336,0,2.432-0.43,3.287-1.29c0.963-0.963,1.444-2.13,1.444-3.499c0-1.363-0.481-2.529-1.444-3.498
				C520.18,218.445,519.084,218.018,517.748,218.018z"/>
			<path fill="#F2961C" d="M537.991,216.306v12.986h-1.681v-10.795h-1.242l1.705-2.191H537.991z"/>
			<path fill="#F2961C" d="M549.586,221.212c-1.345,1.507-2.385,2.783-3.121,3.826c-0.736,1.045-1.131,2.463-1.186,4.254h-1.713
				c0.065-2.213,0.515-3.902,1.348-5.068c0.834-1.166,1.826-2.395,2.979-3.686c1.152-1.291,1.772-2.142,1.858-2.553h-6.168v-1.68
				h8.076C551.621,218.069,550.93,219.704,549.586,221.212z"/>
			<path fill="#F2961C" d="M560.158,216.306v12.986h-1.68v-10.795h-1.242l1.704-2.191H560.158z"/>
			<path fill="#F2961C" d="M567.313,227.385c0.229,0.228,0.345,0.503,0.345,0.827c0,0.336-0.115,0.617-0.345,0.845
				c-0.23,0.228-0.507,0.341-0.832,0.341c-0.319,0-0.595-0.113-0.828-0.341c-0.232-0.228-0.349-0.509-0.349-0.845
				c0-0.324,0.116-0.6,0.349-0.827c0.233-0.228,0.509-0.341,0.828-0.341C566.807,227.044,567.083,227.157,567.313,227.385z"/>
			<path fill="#F2961C" d="M573.332,222.604l-1.016-0.024v-1.664c0.736-0.01,1.221-0.061,1.453-0.15
				c0.232-0.089,0.487-0.279,0.764-0.572c0.275-0.291,0.414-0.627,0.414-1.006c0-0.373-0.131-0.688-0.39-0.945
				c-0.26-0.258-0.577-0.386-0.95-0.386c-0.367,0-0.682,0.127-0.941,0.382c-0.146,0.15-0.314,0.48-0.503,0.99l-1.567-0.617
				c0.233-0.73,0.518-1.256,0.854-1.574c0.6-0.596,1.32-0.894,2.158-0.894c0.855,0,1.58,0.3,2.176,0.901
				c0.596,0.6,0.893,1.314,0.893,2.143c0,0.844-0.5,1.658-1.502,2.443c0.482,0.032,0.988,0.306,1.518,0.819
				c0.774,0.833,1.162,1.808,1.162,2.923c0,1.125-0.396,2.087-1.189,2.885c-0.793,0.799-1.755,1.197-2.886,1.197
				c-1.12,0-2.078-0.4-2.874-1.201c-0.633-0.639-1.035-1.523-1.209-2.654l1.68-0.608c0.098,0.974,0.344,1.658,0.739,2.054
				c0.466,0.459,1.021,0.689,1.664,0.689c0.654,0,1.214-0.23,1.676-0.689c0.463-0.46,0.694-1.018,0.694-1.672
				c0-0.66-0.231-1.242-0.694-1.746C574.992,223.123,574.284,222.782,573.332,222.604z"/>
			<path fill="#F2961C" d="M586.327,224.316c-0.481,0.52-1.28,0.779-2.395,0.779c-1.12,0-2.051-0.37-2.792-1.112
				c-0.898-0.903-1.348-1.994-1.348-3.271c0-1.271,0.449-2.357,1.348-3.258c0.898-0.901,1.986-1.352,3.263-1.352
				c1.271,0,2.359,0.449,3.263,1.348c0.866,0.871,1.302,2.08,1.307,3.627v0.025c0,1.531-0.414,2.879-1.241,4.041
				c-0.833,1.17-1.959,2.553-3.376,4.148h-2.209C584.111,227.257,585.504,225.599,586.327,224.316z M587.301,220.712
				c0-0.801-0.282-1.482-0.848-2.045s-1.249-0.844-2.05-0.844c-0.796,0-1.476,0.281-2.041,0.844s-0.849,1.244-0.849,2.045
				s0.283,1.483,0.849,2.046c0.565,0.563,1.245,0.845,2.041,0.845c0.801,0,1.484-0.281,2.05-0.845
				C587.019,222.195,587.301,221.513,587.301,220.712z"/>
			<path fill="#F2961C" d="M594.428,222.604l-1.016-0.024v-1.664c0.736-0.01,1.221-0.061,1.453-0.15
				c0.232-0.089,0.487-0.279,0.764-0.572c0.275-0.291,0.414-0.627,0.414-1.006c0-0.373-0.131-0.688-0.39-0.945
				c-0.26-0.258-0.577-0.386-0.95-0.386c-0.367,0-0.682,0.127-0.941,0.382c-0.146,0.15-0.314,0.48-0.503,0.99l-1.567-0.617
				c0.233-0.73,0.518-1.256,0.854-1.574c0.6-0.596,1.32-0.894,2.158-0.894c0.855,0,1.58,0.3,2.176,0.901
				c0.596,0.6,0.893,1.314,0.893,2.143c0,0.844-0.5,1.658-1.502,2.443c0.482,0.032,0.988,0.306,1.518,0.819
				c0.774,0.833,1.162,1.808,1.162,2.923c0,1.125-0.396,2.087-1.189,2.885c-0.793,0.799-1.755,1.197-2.886,1.197
				c-1.12,0-2.078-0.4-2.874-1.201c-0.633-0.639-1.035-1.523-1.209-2.654l1.68-0.608c0.098,0.974,0.344,1.658,0.739,2.054
				c0.466,0.459,1.021,0.689,1.664,0.689c0.654,0,1.214-0.23,1.676-0.689c0.463-0.46,0.694-1.018,0.694-1.672
				c0-0.66-0.231-1.242-0.694-1.746C596.088,223.123,595.38,222.782,594.428,222.604z"/>
			<path fill="#27515D" d="M501.352,236.253l4.725,12.987h-1.787l-1.672-4.595h-3.441l-1.664,4.595h-1.793l4.724-12.987H501.352z
				 M502.009,242.966l-1.112-3.044l-1.104,3.044H502.009z"/>
			<path fill="#27515D" d="M507.699,236.253h1.533l5.357,9.27v-9.27h1.688v12.987h-1.469l-5.431-9.384v9.384h-1.68V236.253z"/>
			<path fill="#27515D" d="M522.617,237.934v11.307h-1.688v-11.307h-3.027v-1.681h7.743v1.681H522.617z"/>
			<path fill="#27515D" d="M529.111,236.253v12.987h-1.68v-12.987H529.111z"/>
			<path fill="#27515D" d="M542.861,238.03c1.299,1.299,1.947,2.865,1.947,4.7s-0.648,3.401-1.947,4.7s-2.865,1.947-4.7,1.947
				c-1.834,0-3.401-0.648-4.699-1.947c-1.299-1.299-1.948-2.865-1.948-4.7s0.649-3.401,1.948-4.7
				c1.298-1.299,2.865-1.947,4.699-1.947C539.996,236.083,541.562,236.731,542.861,238.03z M538.161,237.779
				c-1.368,0-2.536,0.483-3.503,1.448c-0.965,0.967-1.448,2.134-1.448,3.503s0.484,2.538,1.453,3.507
				c0.968,0.969,2.135,1.453,3.498,1.453c1.369,0,2.536-0.484,3.503-1.453c0.966-0.969,1.449-2.138,1.449-3.507
				s-0.483-2.536-1.449-3.503C540.697,238.263,539.53,237.779,538.161,237.779z"/>
			<path fill="#27515D" d="M556.271,248.794c0.124,0.076,0.254,0.162,0.39,0.26c0.379,0.2,0.636,0.322,0.771,0.365
				c0.059,0.016,0.115,0.024,0.17,0.024c0.092,0,0.184-0.027,0.275-0.081c0.141-0.082,0.232-0.201,0.276-0.357
				c0.017-0.049,0.035-0.249,0.058-0.601h1.695c-0.037,0.53-0.08,0.882-0.129,1.056c-0.174,0.6-0.533,1.052-1.08,1.355
				c-0.346,0.199-0.709,0.3-1.088,0.3c-0.211,0-0.422-0.03-0.633-0.089c-0.346-0.092-0.809-0.325-1.389-0.698
				c-0.465-0.243-0.787-0.393-0.965-0.446c-0.104-0.027-0.201-0.041-0.293-0.041c-0.162,0-0.318,0.043-0.471,0.13
				c-0.248,0.141-0.411,0.352-0.486,0.634c-0.012,0.026-0.03,0.205-0.057,0.535h-1.697c0.043-0.514,0.087-0.85,0.13-1.006
				c0.093-0.331,0.233-0.623,0.423-0.877c-1.277-0.244-2.403-0.853-3.377-1.826c-1.299-1.299-1.948-2.865-1.948-4.7
				s0.649-3.401,1.948-4.7s2.865-1.947,4.699-1.947s3.401,0.648,4.699,1.947c1.299,1.299,1.949,2.865,1.949,4.7
				s-0.65,3.401-1.949,4.7C557.609,248.015,556.969,248.47,556.271,248.794z M553.494,237.779c-1.369,0-2.536,0.483-3.502,1.448
				c-0.967,0.967-1.449,2.134-1.449,3.503s0.484,2.538,1.453,3.507s2.135,1.453,3.498,1.453c1.369,0,2.537-0.484,3.502-1.453
				c0.967-0.969,1.449-2.138,1.449-3.507s-0.482-2.536-1.449-3.503C556.031,238.263,554.863,237.779,553.494,237.779z"/>
			<path fill="#27515D" d="M569.525,236.253h1.688v9.148c-0.146,1.044-0.576,1.926-1.29,2.646c-0.866,0.866-1.907,1.299-3.125,1.299
				s-2.259-0.432-3.121-1.294c-0.863-0.863-1.294-1.904-1.294-3.121v-8.678h1.688v8.678c0,0.746,0.267,1.387,0.8,1.919
				c0.532,0.533,1.175,0.8,1.928,0.8c0.757,0,1.401-0.266,1.932-0.795c0.53-0.531,0.796-1.172,0.796-1.924V236.253z"/>
			<path fill="#27515D" d="M575.491,236.253v12.987h-1.681v-12.987H575.491z"/>
			<path fill="#27515D" d="M582.918,236.253l4.725,12.987h-1.787l-1.672-4.595h-3.441l-1.664,4.595h-1.793l4.724-12.987H582.918z
				 M583.575,242.966l-1.112-3.044l-1.104,3.044H583.575z"/>
		</g>
	</g>
	<g>
		<g>
			<polyline fill="none" stroke="#FFFFFF" stroke-width="2" points="220.936,134.585 405.445,185.55 486.037,185.55 			"/>
			<g>
				<circle fill="#FFFFFF" cx="221.044" cy="134.615" r="2.256"/>
			</g>
		</g>
	</g>
</g>
</svg>
