<?xml version="1.0" encoding="utf-8"?>
<!-- Generator: Adobe Illustrator 16.0.0, SVG Export Plug-In . SVG Version: 6.00 Build 0)  -->
<!DOCTYPE svg PUBLIC "-//W3C//DTD SVG 1.1//EN" "http://www.w3.org/Graphics/SVG/1.1/DTD/svg11.dtd">
<svg version="1.1" id="Capa_1" xmlns="http://www.w3.org/2000/svg" xmlns:xlink="http://www.w3.org/1999/xlink" x="0px" y="0px"
	 width="197.461px" height="39.795px" viewBox="0 126.71 197.461 39.795" enable-background="new 0 126.71 197.461 39.795"
	 xml:space="preserve">
<g>
	<polygon opacity="0.7" fill="#FFFFFF" enable-background="new    " points="0,129.442 197.461,126.71 197.461,166.505 
		25.25,166.486 	"/>
	<g>
		<g>
			<path fill="#331842" d="M78.216,139.708h1.748l1.855,13.412h0.19l1.748-13.412h1.64l-2.168,14.896h-2.683L78.216,139.708z"/>
			<path fill="#331842" d="M87.374,139.708h1.829v14.896h-1.829V139.708z"/>
			<path fill="#331842" d="M91.113,139.708h1.748l1.855,13.412h0.19l1.748-13.412h1.64l-2.168,14.896h-2.683L91.113,139.708z"/>
			<path fill="#331842" d="M100.271,139.708h1.829v14.896h-1.829V139.708z"/>
			<path fill="#331842" d="M105.149,139.708h4.77v1.182h-3.049v5.363h2.912v1.171h-2.912v5.999h3.129v1.182h-4.85V139.708z"/>
			<path fill="#331842" d="M112.479,139.708h2.357l2.858,14.008h0.027l-0.257-14.008h1.558v14.896h-2.384l-2.832-13.815h-0.055
				l0.244,13.815h-1.517L112.479,139.708L112.479,139.708z"/>
			<path fill="#331842" d="M122.111,139.708h2.019c1.707,0,2.822,0.201,3.347,0.601c0.522,0.401,0.786,1.318,0.786,2.752v8.19
				c0,1.427-0.268,2.343-0.801,2.747c-0.532,0.404-1.644,0.606-3.332,0.606h-2.02L122.111,139.708L122.111,139.708z M123.831,140.81
				v12.694h0.557c0.83,0,1.38-0.103,1.646-0.308c0.266-0.205,0.399-0.658,0.399-1.358v-9.331c0-0.707-0.136-1.167-0.406-1.379
				s-0.817-0.318-1.64-0.318H123.831z"/>
			<path fill="#331842" d="M132.989,139.708h2.521l2.885,14.896h-1.855l-0.691-4.141h-3.279l-0.744,4.141h-1.816L132.989,139.708z
				 M134.182,140.81l-1.449,8.564h2.885l-1.354-8.564H134.182z"/>
		</g>
	</g>
</g>
</svg>
