<?xml version="1.0" encoding="utf-8"?>
<!-- Generator: Adobe Illustrator 16.0.0, SVG Export Plug-In . SVG Version: 6.00 Build 0)  -->
<!DOCTYPE svg PUBLIC "-//W3C//DTD SVG 1.1//EN" "http://www.w3.org/Graphics/SVG/1.1/DTD/svg11.dtd">
<svg version="1.1" id="Capa_1" xmlns="http://www.w3.org/2000/svg" xmlns:xlink="http://www.w3.org/1999/xlink" x="0px" y="0px"
	 width="734.338px" height="413.177px" viewBox="0 0 734.338 413.177" enable-background="new 0 0 734.338 413.177"
	 xml:space="preserve">
<g>
	<g>
		<g>
			<path fill="#F39200" d="M185.309,257.622c-0.009,0.03-0.025,0.058-0.048,0.08l-0.599,0.564l-0.15,0.36l-0.031,0.256l0.067,0.935
				l0.45,0.803l1.674,1.298c0.012,0.011,0.022,0.02,0.031,0.031l1.215,1.563l1.009,1.631l0.595,0.595l0.797,0.466l1.716,0.514
				c0.013,0.005,0.023,0.008,0.034,0.015l0.382,0.208l0.785,0.294l0.876,0.032c0.022,0.002,0.044,0.007,0.064,0.017l0.812,0.372
				l1.472,0.238l1.158,0.033l0.585,0.102l0.54-0.096l0.438-0.188l0.394-0.393l0.368-0.471l0.431-0.432l1.238-0.888l0.309-0.312
				l0.301-0.535c0.005-0.011,0.012-0.021,0.02-0.028l0.451-0.521l1.532-1.671l1.135-1.549l1.56-2.322
				c0.007-0.012,0.017-0.023,0.027-0.031l1.754-1.582l1.759-2.794l0.728-1.213l0.517-0.964c0.01-0.02,0.023-0.037,0.04-0.051
				l0.486-0.416l1.09-0.775l0.232-0.134l0.85-0.951l0.336-0.472l0.296-0.665l0.755-2.617c0.006-0.017,0.013-0.034,0.023-0.048
				l0.347-0.521l0.3-0.305c0.021-0.021,0.047-0.036,0.075-0.044l0.243-0.07c0.022-0.005,0.046-0.008,0.068-0.005l0.278,0.035
				c0.022,0.003,0.043,0.009,0.062,0.02l0.695,0.383l0.197,0.073l0.68-0.216l1.954-1.51l0.757-0.859l0.141-0.337l-0.148-0.597
				l-0.475-0.505l-0.537-0.336c-0.033-0.021-0.059-0.052-0.072-0.089l-0.209-0.592c-0.012-0.035-0.013-0.072-0.001-0.109l0.139-0.45
				l0.281-0.74l0.461-0.854l1.059-1.346l1.27-1.166c0.013-0.011,0.025-0.02,0.04-0.027l0.208-0.105l0.313-0.113l0.014-0.051
				l0.629-1.821l0.812-1.418l0.257-0.333c0.01-0.014,0.021-0.025,0.034-0.034l0.521-0.383c0.011-0.006,0.021-0.013,0.032-0.018
				l0.663-0.299l0.567-0.6c0.009-0.011,0.02-0.02,0.031-0.026l1.111-0.729l0.378-0.316l0.669-1.138l0.237-0.745l0.098-0.737
				l0.104-1.93l0.104-0.982c0.001-0.013,0.005-0.025,0.009-0.037l0.277-0.801c0.006-0.016,0.015-0.032,0.025-0.046l1.736-2.327
				l0.475-0.85l0.504-1.248l0.085-0.536l-0.751-0.562c-0.011-0.009-0.02-0.019-0.029-0.028l-0.592-0.721l-0.011,0.035
				c-0.009,0.029-0.026,0.057-0.05,0.078l-1.459,1.32l-0.938,0.629l-0.264,0.295l-0.188,0.253l-0.235,0.505
				c-0.007,0.014-0.016,0.026-0.024,0.037l-0.174,0.209c-0.021,0.024-0.048,0.043-0.078,0.054l-0.274,0.091l-0.059,0.059
				l-0.204,0.375l0.026,0.204l0.062,0.153c0.008,0.021,0.012,0.043,0.012,0.064v0.244c0,0.031-0.009,0.062-0.024,0.088l-0.104,0.174
				l-0.297,0.34c-0.01,0.01-0.021,0.021-0.034,0.028l-0.207,0.139l-0.166,0.14l-0.113,0.225l-0.094,0.473l0.03,0.303l0.098,0.294
				l0.042,0.273c0.005,0.035-0.001,0.069-0.017,0.103l-0.139,0.277c-0.011,0.021-0.025,0.04-0.043,0.055l-0.473,0.405l-0.439,0.575
				l-0.899,1.279l-1.27,1.273c-0.025,0.025-0.057,0.043-0.092,0.049l-1.319,0.242c-0.015,0.003-0.029,0.005-0.043,0.003
				l-1.111-0.068l-1.11-0.284c-0.029-0.008-0.057-0.023-0.079-0.045L220,227.579c-0.013-0.014-0.024-0.028-0.032-0.045l-0.104-0.208
				c-0.019-0.038-0.023-0.08-0.013-0.12l0.208-0.834l0.031-0.389l0.039-0.168c0.005-0.021,0.016-0.042,0.029-0.062l0.191-0.255
				l0.051-0.154v-0.216c0-0.018,0.004-0.037,0.01-0.054l0.18-0.537h-2.007l0,0l-0.306,0.084l-0.103,0.13
				c-0.016,0.02-0.036,0.035-0.059,0.047l-0.246,0.123l-0.15,0.173l-0.029,0.327c-0.005,0.055-0.035,0.104-0.081,0.133
				c-0.046,0.029-0.104,0.034-0.154,0.015l-0.45-0.173c-0.041-0.017-0.074-0.047-0.094-0.086l-0.1-0.198l-0.086-0.014l-0.196,0.049
				l-0.278,0.278l-0.155,0.22c-0.008,0.012-0.017,0.021-0.027,0.031l-0.276,0.243c-0.063,0.056-0.158,0.059-0.225,0.005
				l-0.347-0.279l-0.289-0.156l-0.673-0.437l-0.18-0.026l-0.628,0.095l-0.188,0.134l-0.296,0.396
				c-0.014,0.019-0.029,0.032-0.049,0.044l-0.174,0.105c-0.013,0.007-0.025,0.013-0.038,0.016l-0.625,0.197l-0.217,0.186
				c-0.021,0.018-0.045,0.03-0.071,0.037l-0.277,0.069c-0.014,0.004-0.028,0.005-0.042,0.005h-0.208
				c-0.014,0-0.027-0.001-0.039-0.004l-0.422-0.097l-0.193,0.023l-0.289,0.261l-0.438,0.707l-0.704,0.918l-0.651,1.029l-0.497,1.03
				l-0.067,0.87c-0.003,0.041-0.021,0.08-0.051,0.11l-0.554,0.555l-0.163,0.716c-0.006,0.024-0.018,0.049-0.033,0.069l-0.418,0.521
				c-0.008,0.009-0.016,0.019-0.025,0.026l-2.292,1.875l-0.835,0.904l-0.51,1.02l-0.226,0.303c-0.025,0.035-0.062,0.059-0.104,0.066
				l-0.348,0.07c-0.014,0.002-0.029,0.005-0.043,0.002l-0.626-0.033c-0.016-0.001-0.031-0.005-0.048-0.01l-1.875-0.66l-0.477-0.254
				c-0.013-0.006-0.025-0.016-0.036-0.025l-0.443-0.412l-0.289-0.029l-0.206,0.001l-0.536,0.375l0.104,0.25l3.027,2.648l0.643,0.747
				l0.271,0.239l0.351,0.128c0.017,0.006,0.031,0.015,0.045,0.023l0.417,0.312c0.012,0.01,0.022,0.02,0.032,0.031l0.277,0.348
				c0.009,0.012,0.018,0.024,0.022,0.037l0.278,0.627l0.305,0.54c0.023,0.042,0.029,0.09,0.016,0.135l-0.486,1.633l-0.446,0.931
				l-0.03,0.615l0.638,1.242c0.044,0.085,0.011,0.189-0.073,0.234l-0.567,0.301l-0.242,0.242l-0.267,0.466
				c-0.03,0.052-0.084,0.085-0.143,0.087l-0.8,0.035c-0.027,0.002-0.055-0.004-0.08-0.016l-0.452-0.209
				c-0.016-0.007-0.03-0.016-0.044-0.027l-0.765-0.695l-0.745-0.527l-0.183,0.061l-0.524,0.623l-0.574,0.505l-0.571,0.396
				l-1.688,0.845l-0.776,0.319l-1.862,0.494c-0.018,0.004-0.036,0.006-0.055,0.005l-0.591-0.035l-0.468-0.071
				c-0.029-0.006-0.057-0.018-0.081-0.035l-1.284-1.008l-0.325-0.323l-0.516-0.097l-0.26,1.031l0.81,1.786
				c0.01,0.022,0.016,0.047,0.016,0.071v0.383c0,0.036-0.011,0.071-0.032,0.102l-0.163,0.227l-0.097,0.227l-0.309,0.892
				l-0.361,0.622c-0.016,0.026-0.038,0.047-0.064,0.062l-0.215,0.123l-0.247,0.304l0.028,0.346l0.067,0.328
				c0.008,0.038,0.003,0.077-0.016,0.111l-0.069,0.139c-0.015,0.03-0.038,0.054-0.066,0.071l-0.173,0.105
				c-0.011,0.004-0.022,0.012-0.034,0.016l-0.665,0.209c-0.029,0.01-0.06,0.011-0.09,0.003l-0.433-0.1h-0.396l-0.366-0.036
				c-0.025-0.002-0.052-0.011-0.074-0.025l-0.249-0.155l-0.322-0.054l-0.229,0.128l-0.322,0.408l0.033,1.014l0.068,0.683
				c0.002,0.022,0,0.045-0.006,0.065L185.309,257.622z"/>
		</g>
	</g>
	<g>
		<g>
			<g>
				<g>
					<path fill="#FFFFFF" d="M514.291,175.864v28.459h-7.4V192.37h-2.215v11.953h-7.4v-28.459h7.4v10.178h2.215v-10.178H514.291z"/>
					<path fill="#FFFFFF" d="M534.084,175.864v19.02c0,2.156-0.07,3.672-0.211,4.545s-0.557,1.77-1.248,2.689
						s-1.603,1.617-2.733,2.092s-2.464,0.711-3.999,0.711c-1.699,0-3.199-0.281-4.5-0.844s-2.273-1.295-2.918-2.197
						s-1.025-1.854-1.143-2.855s-0.176-3.109-0.176-6.32v-16.84h7.4v21.34c0,1.242,0.067,2.037,0.202,2.383s0.407,0.518,0.817,0.518
						c0.469,0,0.771-0.189,0.905-0.57s0.202-1.281,0.202-2.699v-20.971H534.084z"/>
					<path fill="#FFFFFF" d="M544.35,175.864v28.459h-7.4v-28.459H544.35z"/>
					<path fill="#FFFFFF" d="M554.721,175.864v22.764h4.5v5.695h-11.9v-28.459H554.721z"/>
					<path fill="#FFFFFF" d="M573.806,175.864l4.232,28.459h-7.563l-0.397-5.115h-2.647l-0.445,5.115h-7.651l3.775-28.459H573.806z
						 M569.884,194.163c-0.375-3.223-0.75-7.207-1.127-11.953c-0.754,5.45-1.228,9.435-1.42,11.953H569.884z"/>
				</g>
			</g>
		</g>
	</g>
	<g>
		<g>
			<path fill="#F2961C" d="M498.22,225.136v4.156h-1.68v-12.986h3.685c1.044,0.141,1.926,0.57,2.646,1.29
				c0.86,0.866,1.291,1.905,1.291,3.116c0,1.224-0.43,2.267-1.291,3.129c-0.86,0.863-1.899,1.295-3.117,1.295H498.22z
				 M498.22,217.993v5.455h1.534c0.747,0,1.387-0.268,1.92-0.8c0.533-0.533,0.799-1.179,0.799-1.937
				c0-0.752-0.267-1.393-0.799-1.924c-0.533-0.529-1.173-0.795-1.92-0.795H498.22z"/>
			<path fill="#F2961C" d="M512.449,226.427l1.68,0.601c-0.412,0.568-0.709,0.944-0.893,1.128c-0.904,0.904-1.994,1.355-3.271,1.355
				c-1.272,0-2.359-0.451-3.263-1.355c-0.904-0.903-1.355-1.994-1.355-3.271c0-1.277,0.452-2.368,1.355-3.271
				s1.991-1.355,3.263-1.355c1.277,0,2.367,0.452,3.271,1.355c0.184,0.185,0.481,0.555,0.893,1.112l-1.68,0.617
				c-0.217-0.266-0.363-0.436-0.438-0.512c-0.563-0.562-1.245-0.844-2.045-0.844c-0.795,0-1.476,0.282-2.042,0.848
				s-0.848,1.249-0.848,2.05c0,0.796,0.283,1.476,0.848,2.041s1.246,0.849,2.042,0.849c0.801,0,1.485-0.281,2.054-0.844
				C512.089,226.854,512.232,226.687,512.449,226.427z"/>
			<path fill="#F2961C" d="M517.311,216.306c2.11,0.01,3.755,0.607,4.935,1.793c1.293,1.305,1.94,2.871,1.94,4.699
				c0,1.835-0.646,3.401-1.94,4.7c-1.18,1.185-2.825,1.783-4.935,1.794h-1.233v-12.986H517.311z M517.757,218.018v9.569
				c1.336,0,2.432-0.43,3.287-1.29c0.963-0.963,1.445-2.13,1.445-3.499c0-1.363-0.482-2.529-1.445-3.498
				C520.189,218.445,519.094,218.018,517.757,218.018z"/>
			<path fill="#F2961C" d="M537.684,216.306h1.469v7.8h1.145v1.681h-1.145v3.506h-1.68v-3.506h-5.316L537.684,216.306z
				 M537.473,220.096l-2.395,4.01h2.395V220.096z"/>
			<path fill="#F2961C" d="M548.95,224.316c-0.481,0.52-1.28,0.779-2.395,0.779c-1.12,0-2.051-0.37-2.792-1.112
				c-0.898-0.903-1.348-1.994-1.348-3.271c0-1.271,0.449-2.357,1.348-3.258c0.898-0.901,1.986-1.352,3.263-1.352
				c1.271,0,2.359,0.449,3.263,1.348c0.866,0.871,1.301,2.08,1.307,3.627v0.025c0,1.531-0.414,2.879-1.242,4.041
				c-0.833,1.17-1.959,2.553-3.376,4.148h-2.208C546.734,227.257,548.127,225.599,548.95,224.316z M549.924,220.712
				c0-0.801-0.283-1.482-0.848-2.045s-1.249-0.844-2.05-0.844c-0.795,0-1.476,0.281-2.041,0.844
				c-0.566,0.562-0.849,1.244-0.849,2.045s0.283,1.483,0.849,2.046c0.565,0.563,1.246,0.845,2.041,0.845
				c0.801,0,1.484-0.281,2.05-0.845C549.642,222.195,549.924,221.513,549.924,220.712z"/>
			<path fill="#F2961C" d="M555.01,227.385c0.23,0.228,0.345,0.503,0.345,0.827c0,0.336-0.115,0.617-0.345,0.845
				c-0.23,0.228-0.507,0.341-0.832,0.341c-0.319,0-0.595-0.113-0.828-0.341c-0.232-0.228-0.349-0.509-0.349-0.845
				c0-0.324,0.117-0.6,0.349-0.827c0.233-0.228,0.509-0.341,0.828-0.341C554.502,227.044,554.779,227.157,555.01,227.385z"/>
			<path fill="#F2961C" d="M561.418,229.454c-1.331,0-2.395-0.398-3.19-1.197c-0.795-0.798-1.193-1.76-1.193-2.885
				c0-1.386,0.76-2.633,2.281-3.742c-0.73-0.785-1.096-1.6-1.096-2.443c0-0.828,0.296-1.543,0.889-2.143
				c0.592-0.602,1.316-0.901,2.171-0.901h0.268c0.855,0,1.58,0.3,2.175,0.901c0.595,0.6,0.893,1.314,0.893,2.143
				c0,0.844-0.395,1.65-1.185,2.419c1.58,1.126,2.37,2.381,2.37,3.767c0,1.125-0.398,2.087-1.193,2.885
				C563.812,229.056,562.75,229.454,561.418,229.454z M561.418,227.733c0.855,0,1.514-0.23,1.977-0.689
				c0.463-0.46,0.694-1.018,0.694-1.672c0-0.66-0.23-1.236-0.69-1.729c-0.454-0.497-1.115-0.836-1.98-1.015
				c-0.871,0.179-1.534,0.518-1.988,1.015c-0.455,0.493-0.682,1.069-0.682,1.729c0,0.654,0.23,1.212,0.69,1.672
				C559.897,227.503,560.558,227.733,561.418,227.733z M561.377,217.863c-0.038-0.005-0.07-0.008-0.097-0.008
				c-0.368,0-0.682,0.128-0.942,0.386c-0.26,0.257-0.39,0.572-0.39,0.945c0,0.379,0.137,0.715,0.41,1.006
				c0.273,0.293,0.521,0.482,0.743,0.568c0.119,0.044,0.225,0.073,0.316,0.09c0.092-0.017,0.198-0.046,0.317-0.09
				c0.216-0.086,0.462-0.275,0.738-0.568c0.276-0.291,0.414-0.627,0.414-1.006c0-0.373-0.13-0.688-0.39-0.945
				c-0.26-0.258-0.576-0.386-0.95-0.386c-0.021,0-0.051,0.003-0.089,0.008H561.377z"/>
			<path fill="#F2961C" d="M573.918,216.306v12.986h-1.68v-10.795h-1.242l1.705-2.191H573.918z"/>
			<path fill="#F2961C" d="M585.184,216.306h1.469v7.8h1.145v1.681h-1.145v3.506h-1.68v-3.506h-5.316L585.184,216.306z
				 M584.973,220.096l-2.395,4.01h2.395V220.096z"/>
			<path fill="#27515D" d="M498.22,243.866v5.374h-1.68v-12.987h1.68v5.934h4.009v-5.934h1.681v12.987h-1.681v-5.374H498.22z"/>
			<path fill="#27515D" d="M513.488,236.253h1.688v9.148c-0.146,1.044-0.577,1.926-1.291,2.646
				c-0.866,0.866-1.908,1.299-3.125,1.299c-1.218,0-2.258-0.432-3.121-1.294c-0.863-0.863-1.294-1.904-1.294-3.121v-8.678h1.688
				v8.678c0,0.746,0.267,1.387,0.8,1.919c0.533,0.533,1.175,0.8,1.928,0.8c0.757,0,1.401-0.266,1.932-0.795
				c0.53-0.531,0.795-1.172,0.795-1.924V236.253z"/>
			<path fill="#27515D" d="M519.454,236.253v12.987h-1.68v-12.987H519.454z"/>
			<path fill="#27515D" d="M522.06,249.24v-12.987h1.68v11.299h4.643v1.688H522.06z"/>
			<path fill="#27515D" d="M535.152,236.253l4.724,12.987h-1.786l-1.672-4.595h-3.441l-1.664,4.595h-1.794l4.724-12.987H535.152z
				 M535.809,242.966l-1.112-3.044l-1.104,3.044H535.809z"/>
		</g>
	</g>
	<g>
		<g>
			<polyline fill="none" stroke="#FFFFFF" stroke-width="2" points="221.002,233.116 405.457,185.55 486.047,185.55 			"/>
			<g>
				<circle fill="#FFFFFF" cx="221.111" cy="233.088" r="2.256"/>
			</g>
		</g>
	</g>
</g>
</svg>
