<?xml version="1.0" encoding="utf-8"?>
<!-- Generator: Adobe Illustrator 16.0.0, SVG Export Plug-In . SVG Version: 6.00 Build 0)  -->
<!DOCTYPE svg PUBLIC "-//W3C//DTD SVG 1.1//EN" "http://www.w3.org/Graphics/SVG/1.1/DTD/svg11.dtd">
<svg version="1.1" id="Capa_1" xmlns="http://www.w3.org/2000/svg" xmlns:xlink="http://www.w3.org/1999/xlink" x="0px" y="0px"
	 width="734.338px" height="413.176px" viewBox="0 0 734.338 413.176" enable-background="new 0 0 734.338 413.176"
	 xml:space="preserve">
<g>
	<g>
		<g>
			<path fill="#F39200" d="M246.828,313.463l-1.135-0.495c-0.012-0.004-0.021-0.011-0.031-0.017l-0.486-0.347
				c-0.012-0.009-0.023-0.019-0.031-0.03l-0.752-0.886l-1.268-0.925l-0.334-0.166l-0.355,0.089l-0.352,0.163
				c-0.023,0.011-0.047,0.016-0.072,0.016h-0.418c-0.053,0-0.102-0.024-0.135-0.065l-0.139-0.174
				c-0.018-0.021-0.029-0.044-0.035-0.07l-0.098-0.425l-0.064-0.107l-0.119-0.061l-0.684,0.062l-0.155,0.062l-0.204,0.043
				c-0.039,0.009-0.078,0.004-0.111-0.015l-0.278-0.139c-0.021-0.012-0.04-0.026-0.056-0.044l-0.174-0.209
				c-0.008-0.01-0.016-0.022-0.021-0.033l-0.105-0.209l-0.218-0.722l-0.068-0.336l-0.106-0.185l-0.212-0.152l-0.79-0.393
				l-0.414-0.089l-0.75,0.293c-0.021,0.008-0.043,0.012-0.063,0.012h-0.382c-0.055,0-0.107-0.026-0.14-0.07l-0.208-0.277
				c-0.02-0.025-0.03-0.056-0.033-0.087l-0.036-0.348l-0.048-0.239l-0.267-0.112l-0.208,0.084l-0.218,0.62
				c-0.015,0.043-0.045,0.078-0.087,0.099l-0.346,0.173c-0.039,0.018-0.082,0.023-0.124,0.012l-0.382-0.104
				c-0.019-0.005-0.035-0.013-0.051-0.023l-0.189-0.126l-0.139-0.047l-0.367,0.092l-0.408,0.039
				c-0.015,0.001-0.029,0.001-0.043-0.001l-0.451-0.068l-0.508-0.144c-0.013-0.004-0.025-0.01-0.037-0.016l-0.312-0.173
				c-0.024-0.013-0.046-0.032-0.061-0.056l-0.138-0.208c-0.012-0.016-0.021-0.033-0.025-0.05l-0.129-0.487l-0.096-0.12l-0.107-0.063
				l0,0h-0.299l-0.383-0.067l-0.179,0.03c-0.047,0.009-0.096-0.003-0.133-0.033l-0.14-0.103c-0.027-0.021-0.049-0.051-0.061-0.084
				l-0.104-0.312l-0.105-0.586l-0.263-0.46c-0.021-0.037-0.027-0.079-0.019-0.121l0.033-0.173c0.006-0.027,0.018-0.052,0.035-0.074
				l0.139-0.173l0.295-0.564l0.068-0.087l-0.383-0.117c-0.016-0.005-0.031-0.013-0.045-0.022l-0.313-0.208
				c-0.06-0.041-0.089-0.116-0.071-0.187l0.068-0.277c0.008-0.022,0.017-0.044,0.031-0.062l0.207-0.277l0.098-0.202l-0.123-0.873
				l-0.506-0.631l-0.777-0.421l-2.612-0.48c-0.019-0.004-0.037-0.011-0.054-0.02l-1.479-0.826l-0.989-0.308
				c-0.036-0.011-0.068-0.034-0.09-0.064l-0.175-0.242c-0.016-0.024-0.025-0.051-0.031-0.08l-0.104-0.799l-0.341-1.046
				c-0.003-0.012-0.006-0.022-0.007-0.033l-0.035-0.314l0.136-1.592l-0.194-0.498l-0.766-0.147l-0.41,0.125
				c-0.017,0.005-0.033,0.008-0.052,0.008h-0.208l-0.268-0.037c-0.057-0.007-0.105-0.042-0.131-0.093l-0.069-0.14
				c-0.009-0.014-0.013-0.03-0.017-0.045l-0.064-0.357l-0.03-0.062l-0.222-0.097h-0.172l-0.559,0.229l-0.828,0.183
				c-0.033,0.008-0.065,0.005-0.096-0.006l-0.486-0.174c-0.029-0.01-0.059-0.03-0.078-0.056l-0.382-0.486
				c-0.011-0.015-0.021-0.029-0.026-0.044l-0.312-0.8c-0.004-0.01-0.007-0.021-0.01-0.035l-0.041-0.249
				c-0.023,0.067-0.086,0.117-0.162,0.117c-0.096,0-0.176-0.078-0.176-0.174c0-0.096,0.076-0.173,0.172-0.173h0.004
				c0.056,0,0.104,0.028,0.136,0.07l-0.001-0.006c-0.004-0.02-0.004-0.041,0.001-0.06l0.138-0.765l-0.002-0.354l-0.119-0.326
				l-0.535-0.636l-0.226-0.371c-0.011-0.02-0.021-0.042-0.022-0.063l-0.034-0.244c-0.003-0.017-0.002-0.034,0-0.051l0.063-0.403
				l-0.073-0.166l-0.185-0.185l-0.207-0.144l-0.539-0.237l-0.389-0.087l-1.29,0.169c-0.013,0.001-0.023,0.003-0.035,0.001
				l-1.981-0.139c-0.016-0.001-0.031-0.005-0.047-0.01l-0.938-0.348c-0.024-0.009-0.047-0.023-0.063-0.043l-1.403-1.471
				l-0.886-0.426l-1.029-0.132l-1.58,0.137h-0.431c-0.021,0-0.038-0.002-0.056-0.008l-0.417-0.139
				c-0.014-0.005-0.028-0.013-0.041-0.021l-0.417-0.278l-0.408-0.218l-0.904-0.101c-0.02-0.003-0.04-0.008-0.058-0.017l-0.417-0.208
				c-0.021-0.011-0.04-0.026-0.056-0.044l-1.285-1.528c-0.008-0.009-0.015-0.02-0.021-0.03l-0.278-0.521
				c-0.01-0.021-0.017-0.043-0.02-0.066l-0.034-0.382l-0.001-0.3l-0.077-0.232l-0.275-0.193l-0.324-0.088l-0.873,0.068l-0.432,0.001
				c-0.022,0-0.047-0.005-0.068-0.015l-0.608-0.271l-0.293-0.058l-0.233,0.051l-0.211,0.186l-0.09,0.237
				c-0.008,0.02-0.018,0.037-0.031,0.052l-0.207,0.244c-0.027,0.03-0.063,0.051-0.105,0.059l-0.416,0.069
				c-0.012,0.003-0.024,0.004-0.037,0.003l-0.707-0.034l-0.268,0.06l-0.328,0.165l-0.246,0.154l-0.195,0.195
				c-0.012,0.012-0.022,0.021-0.036,0.028l-0.243,0.139c-0.012,0.006-0.023,0.012-0.037,0.016l-0.347,0.105
				c-0.019,0.005-0.037,0.008-0.056,0.006l-3.3-0.104l-0.724-0.143c-0.014-0.002-0.028-0.008-0.041-0.014l-0.938-0.451l-1.644-0.512
				c-0.02-0.005-0.037-0.016-0.054-0.028l-0.452-0.347c-0.014-0.01-0.025-0.023-0.035-0.038l-0.592-0.834
				c-0.014-0.02-0.023-0.041-0.027-0.064l-0.209-1.008c-0.004-0.013-0.004-0.027-0.004-0.04l0.071-2.051
				c0-0.017,0.003-0.032,0.008-0.048l0.138-0.417l0.391-0.819l0.088-0.329v-0.262l-0.095-0.286l-0.259-0.645l-0.383-0.318
				c-0.033-0.029-0.055-0.067-0.061-0.109l-0.029-0.206l-0.431-0.662L185,271.892l-0.752-0.294l-0.396-0.248l-0.312-0.114
				l-0.266,0.071l-1.179,1.787l-0.537,0.609c-0.013,0.016-0.028,0.028-0.046,0.038l-0.625,0.348
				c-0.014,0.008-0.031,0.013-0.047,0.017l-0.625,0.14c-0.016,0.002-0.031,0.005-0.049,0.002l-1.875-0.103h-0.689l-0.646,0.549
				c-0.027,0.023-0.062,0.037-0.1,0.041l-0.416,0.035c-0.059,0.004-0.111-0.019-0.147-0.061l-0.03-0.037l-0.009,0.063l0.066,0.462
				c0.003,0.016,0.003,0.031,0,0.046l-0.035,0.277c-0.001,0.02-0.007,0.039-0.017,0.058l-0.104,0.207
				c-0.008,0.017-0.02,0.032-0.033,0.045l-0.312,0.312l-0.265,0.193c-0.013,0.009-0.026,0.015-0.039,0.021l-1.668,0.625
				l-0.283,0.078l-0.022,0.229l-0.035,0.995l0.138,1.245h0.071l0,0c0.028,0,0.055,0.007,0.078,0.018l0.139,0.07l0.492,0.349
				l0.256,0.097c0.023,0.007,0.043,0.021,0.061,0.04l0.105,0.104c0.02,0.018,0.033,0.042,0.041,0.067l0.07,0.208
				c0.008,0.019,0.01,0.037,0.01,0.056v0.207c0,0.02-0.002,0.038-0.01,0.056l-0.208,0.625l-1.223,2.624l-0.667,1.16
				c-0.014,0.022-0.029,0.042-0.053,0.056l-0.426,0.295l-0.4,0.565l-1.465,1.816l-0.352,0.406l0.793,0.823l1.062,0.853l0.435,0.266
				l0.334,0.166c0.016,0.009,0.031,0.02,0.043,0.033l0.14,0.14c0.017,0.014,0.028,0.034,0.038,0.053l0.104,0.244
				c0.012,0.026,0.016,0.056,0.014,0.084l-0.035,0.382c-0.002,0.021-0.008,0.043-0.018,0.062l-0.07,0.139
				c-0.011,0.022-0.027,0.042-0.046,0.057l-0.157,0.126l-0.056,0.075v0.185l0.028,0.195l0.479,1.091l0.08,0.344l0.069,0.723
				l0.198,0.462c0.006,0.014,0.01,0.028,0.012,0.042l0.07,0.451c0.004,0.027,0.002,0.056-0.007,0.082l-0.104,0.312
				c-0.012,0.035-0.035,0.065-0.064,0.087l-0.188,0.133l-0.057,0.286l0.318,0.068c0.035,0.008,0.068,0.027,0.094,0.054l0.873,0.974
				l0.628,0.22l0.912,0.034l0.293,0.035c0.013,0.002,0.024,0.005,0.036,0.009l0.384,0.14c0.014,0.006,0.028,0.013,0.04,0.022
				l0.244,0.174l0.543,0.539l0.337,0.242l0.319,0.096l0.293,0.025l1.611-0.239c0.018-0.003,0.032-0.003,0.047,0l0.279,0.034
				c0.015,0.002,0.031,0.006,0.045,0.013l0.802,0.333h0.132l-0.027-0.757c-0.004-0.075,0.042-0.143,0.112-0.168l0.276-0.105
				c0.037-0.013,0.077-0.014,0.113-0.004l0.781,0.239l1.129,0.103c0.012,0.001,0.023,0.004,0.035,0.006l0.347,0.105
				c0.021,0.006,0.041,0.017,0.059,0.029l0.347,0.279l0.609,0.54l0.375,0.144l0.271-0.054l0.57-0.301
				c0.02-0.011,0.041-0.017,0.062-0.02l2.285-0.238l0.289-0.193l-0.227-1.453l0.033-1.903c0-0.05,0.023-0.099,0.061-0.132
				c0.039-0.034,0.092-0.048,0.142-0.039l0.188,0.031l0.48-0.032l0.384-0.118l0.558-0.656c0.01-0.012,0.02-0.021,0.033-0.029
				l0.693-0.486c0.01-0.006,0.021-0.013,0.031-0.017l0.244-0.105c0.043-0.018,0.092-0.018,0.137,0l0.242,0.105
				c0.023,0.009,0.045,0.024,0.062,0.042l0.612,0.679l0.415,0.289l0.465,0.166l0.458,0.13l0.571,0.034l0.464-0.035l0.312,0.036
				c0.015,0.001,0.029,0.005,0.043,0.01l0.174,0.07c0.036,0.014,0.066,0.042,0.087,0.075l0.139,0.244
				c0.008,0.014,0.016,0.031,0.019,0.048l0.13,0.585l0.061,0.076h0.305l0.562-0.198c0.01-0.004,0.023-0.007,0.037-0.008l0.52-0.07
				c0.065-0.009,0.133,0.022,0.169,0.079l0.243,0.383c0.01,0.015,0.018,0.032,0.022,0.05l0.06,0.243l1.541,1.95
				c0.006,0.009,0.014,0.02,0.019,0.03l0.14,0.278c0.005,0.013,0.011,0.026,0.014,0.039l0.096,0.423l0.216,0.335l0.571,0.506
				l1.4,0.851c0.027,0.017,0.05,0.041,0.064,0.069l0.154,0.312l0.905,0.67l0.638,0.333l0.373,0.168l0.419,0.093l0.493,0.031
				l0.534-0.035l0.977-0.238l0.443-0.039c0.022-0.001,0.043,0,0.062,0.005l0.487,0.14c0.027,0.007,0.053,0.023,0.074,0.044
				l0.643,0.643l0.225,0.128l0.385,0.125c0.022,0.007,0.044,0.019,0.062,0.036l1.112,1.007l1.311,0.802l0.535,0.169
				c0.02,0.005,0.038,0.015,0.053,0.027l0.42,0.323l1.244,0.235l1.521,0.563l0.402,0.215l0.248-0.1l0.328-0.262l0.27-0.303
				l0.087-0.23l0.066-0.433c0.005-0.036,0.022-0.07,0.05-0.097l0.243-0.243c0.022-0.024,0.054-0.041,0.088-0.048l0.347-0.07
				c0.016-0.002,0.031-0.004,0.047-0.002l0.486,0.036l1.075,0.283c0.011,0.003,0.021,0.007,0.034,0.012l0.484,0.244l0.48,0.364
				c0.012,0.012,0.025,0.025,0.036,0.039l0.892,1.268l0.234,0.207l0.156,0.052l0.396,0.034l0.223,0.036
				c0.035,0.007,0.068,0.023,0.094,0.048l0.139,0.139l0.943,1.049l0.271,0.207l0.498,0.2l0.772,0.166l0.364,0.13l0.149-0.021
				l0.186-0.16l0.577-0.883c0.024-0.036,0.062-0.062,0.104-0.074l0.277-0.068c0.057-0.015,0.112,0,0.154,0.036l0.488,0.417
				c0.01,0.01,0.02,0.02,0.028,0.03l0.347,0.487l0.813,1.62c0.036,0.076,0.017,0.167-0.053,0.218l-0.629,0.464l-0.054,0.097
				l0.218,0.073l0.212,0.027l0.459,0.139l0.57,0.034c0.022,0.001,0.046,0.008,0.067,0.018l0.139,0.069
				c0.015,0.008,0.028,0.018,0.04,0.03l0.542,0.508h0.192l0.411-0.252c0.021-0.012,0.046-0.021,0.069-0.023l0.278-0.035
				c0.048-0.008,0.097,0.007,0.133,0.039l0.208,0.173c0.016,0.014,0.028,0.029,0.039,0.046l0.65,1.095l0.959,1.028l0.601,0.429
				l1.413,0.86l0.301,0.262l0.3,0.369l0.19,0.287l0.062,0.03h0.271c0.046,0,0.09,0.019,0.123,0.051l0.104,0.105
				c0.026,0.025,0.043,0.061,0.049,0.098l0.04,0.284l12.133-3.76L246.828,313.463z"/>
		</g>
	</g>
	<g>
		<g>
			<g>
				<g>
					<path fill="#FFFFFF" d="M497.765,175.865h7.453c2.016,0,3.565,0.158,4.649,0.475s1.898,0.773,2.443,1.371
						s0.914,1.321,1.107,2.171s0.29,2.165,0.29,3.946v2.479c0,1.816-0.188,3.141-0.562,3.973s-1.063,1.471-2.065,1.916
						s-2.312,0.668-3.929,0.668h-1.986v11.461h-7.4V175.865z M505.165,180.734v7.242c0.211,0.012,0.393,0.018,0.545,0.018
						c0.68,0,1.151-0.167,1.415-0.501s0.396-1.028,0.396-2.083v-2.338c0-0.973-0.152-1.605-0.457-1.898
						S506.126,180.734,505.165,180.734z"/>
					<path fill="#FFFFFF" d="M532.657,175.865v19.02c0,2.156-0.07,3.671-0.211,4.544s-0.557,1.77-1.248,2.689
						s-1.603,1.617-2.733,2.092s-2.464,0.712-3.999,0.712c-1.699,0-3.199-0.281-4.5-0.844s-2.273-1.295-2.918-2.197
						s-1.025-1.854-1.143-2.856s-0.176-3.108-0.176-6.319v-16.84h7.4v21.34c0,1.242,0.067,2.036,0.202,2.382
						s0.407,0.519,0.817,0.519c0.469,0,0.771-0.19,0.905-0.571s0.202-1.28,0.202-2.698v-20.971H532.657z"/>
					<path fill="#FFFFFF" d="M550.429,175.865v5.695h-4.395v22.764h-7.4V181.56h-4.377v-5.695H550.429z"/>
					<path fill="#FFFFFF" d="M568.938,175.865v19.02c0,2.156-0.07,3.671-0.211,4.544s-0.557,1.77-1.248,2.689
						s-1.603,1.617-2.733,2.092s-2.464,0.712-3.999,0.712c-1.699,0-3.199-0.281-4.5-0.844s-2.273-1.295-2.918-2.197
						s-1.025-1.854-1.143-2.856s-0.176-3.108-0.176-6.319v-16.84h7.4v21.34c0,1.242,0.067,2.036,0.202,2.382
						s0.407,0.519,0.817,0.519c0.469,0,0.771-0.19,0.905-0.571s0.202-1.28,0.202-2.698v-20.971H568.938z"/>
					<path fill="#FFFFFF" d="M594.638,175.865v28.459h-6.469l-0.009-19.213l-2.575,19.213h-4.588l-2.716-18.773l-0.009,18.773
						h-6.469v-28.459h9.575c0.285,1.711,0.577,3.728,0.879,6.05l1.051,7.239l1.701-13.289H594.638z"/>
					<path fill="#FFFFFF" d="M610.4,175.865l4.232,28.459h-7.562l-0.397-5.115h-2.647l-0.445,5.115h-7.65l3.775-28.459H610.4z
						 M606.479,194.164c-0.375-3.224-0.75-7.208-1.127-11.953c-0.754,5.45-1.228,9.434-1.42,11.953H606.479z"/>
					<path fill="#FFFFFF" d="M631.657,175.865l-5.396,18.158v10.301h-6.855v-10.301l-5.203-18.158H621
						c1.062,5.555,1.662,9.293,1.798,11.215c0.41-3.036,1.097-6.775,2.062-11.215H631.657z"/>
					<path fill="#FFFFFF" d="M649.833,192.529c0,2.859-0.067,4.884-0.202,6.073s-0.557,2.276-1.266,3.261s-1.667,1.74-2.874,2.268
						s-2.613,0.791-4.219,0.791c-1.523,0-2.892-0.249-4.104-0.747s-2.188-1.245-2.927-2.241s-1.178-2.08-1.318-3.252
						s-0.211-3.223-0.211-6.152v-4.869c0-2.859,0.067-4.884,0.202-6.073s0.557-2.276,1.266-3.261s1.667-1.74,2.874-2.268
						s2.613-0.791,4.219-0.791c1.523,0,2.892,0.249,4.104,0.747s2.188,1.245,2.927,2.241s1.178,2.08,1.318,3.252
						s0.211,3.223,0.211,6.152V192.529z M642.433,183.177c0-1.324-0.073-2.171-0.22-2.54s-0.448-0.554-0.905-0.554
						c-0.387,0-0.683,0.149-0.888,0.448s-0.308,1.181-0.308,2.646v13.289c0,1.652,0.067,2.672,0.202,3.059s0.448,0.58,0.94,0.58
						c0.504,0,0.826-0.223,0.967-0.668s0.211-1.506,0.211-3.182V183.177z"/>
				</g>
			</g>
		</g>
	</g>
	<g>
		<g>
			<path fill="#F2961C" d="M498.711,225.136v4.156h-1.681v-12.987h3.685c1.045,0.141,1.927,0.571,2.646,1.291
				c0.86,0.866,1.291,1.905,1.291,3.117c0,1.223-0.431,2.266-1.291,3.129c-0.86,0.863-1.899,1.295-3.117,1.295H498.711z
				 M498.711,217.993v5.455h1.533c0.747,0,1.387-0.267,1.92-0.799c0.533-0.533,0.799-1.178,0.799-1.936
				c0-0.752-0.266-1.393-0.799-1.924c-0.533-0.53-1.173-0.795-1.92-0.795H498.711z"/>
			<path fill="#F2961C" d="M512.939,226.427l1.68,0.601c-0.411,0.568-0.709,0.944-0.893,1.128c-0.904,0.904-1.994,1.355-3.271,1.355
				c-1.271,0-2.359-0.452-3.263-1.355s-1.355-1.994-1.355-3.271c0-1.277,0.452-2.368,1.355-3.271
				c0.903-0.903,1.991-1.355,3.263-1.355c1.277,0,2.367,0.452,3.271,1.355c0.184,0.184,0.481,0.555,0.893,1.112l-1.68,0.617
				c-0.217-0.265-0.363-0.436-0.438-0.511c-0.563-0.563-1.245-0.844-2.046-0.844c-0.795,0-1.476,0.283-2.041,0.848
				s-0.848,1.249-0.848,2.05c0,0.795,0.282,1.476,0.848,2.041s1.246,0.848,2.041,0.848c0.801,0,1.486-0.281,2.055-0.844
				C512.579,226.854,512.723,226.687,512.939,226.427z"/>
			<path fill="#F2961C" d="M517.801,216.305c2.11,0.011,3.756,0.608,4.936,1.793c1.293,1.304,1.939,2.871,1.939,4.7
				c0,1.834-0.646,3.401-1.939,4.7c-1.18,1.185-2.825,1.783-4.936,1.794h-1.233v-12.987H517.801z M518.248,218.018v9.57
				c1.336,0,2.432-0.43,3.287-1.291c0.963-0.963,1.444-2.129,1.444-3.499c0-1.363-0.481-2.529-1.444-3.498
				C520.68,218.445,519.584,218.018,518.248,218.018z"/>
			<path fill="#F2961C" d="M538.491,216.305v12.987h-1.681v-10.795h-1.242l1.705-2.191H538.491z"/>
			<path fill="#F2961C" d="M545.845,225.197c0.882-0.658,1.634-1.219,2.257-1.685c0.621-0.465,1.178-0.966,1.668-1.501
				c0.489-0.536,0.734-1.131,0.734-1.786s-0.231-1.212-0.694-1.672c-0.462-0.46-1.021-0.69-1.676-0.69
				c-0.644,0-1.198,0.23-1.664,0.69c-0.396,0.395-0.642,1.077-0.739,2.045l-1.68-0.608c0.174-1.125,0.576-2.008,1.209-2.646
				c0.796-0.801,1.754-1.201,2.874-1.201c1.131,0,2.093,0.398,2.886,1.193s1.189,1.759,1.189,2.89c0,1.115-0.385,2.086-1.153,2.914
				c-0.487,0.525-1.054,1.03-1.7,1.514s-1.365,1.024-2.155,1.619c-0.692,0.514-1.079,0.958-1.161,1.331h6.17v1.688h-8.143
				C544.37,227.22,544.963,225.854,545.845,225.197z"/>
			<path fill="#F2961C" d="M556.264,227.385c0.229,0.227,0.344,0.503,0.344,0.828c0,0.335-0.114,0.617-0.344,0.844
				c-0.23,0.227-0.508,0.341-0.832,0.341c-0.32,0-0.596-0.114-0.828-0.341c-0.232-0.228-0.35-0.509-0.35-0.844
				c0-0.325,0.117-0.601,0.35-0.828c0.232-0.228,0.508-0.341,0.828-0.341C555.756,227.043,556.033,227.157,556.264,227.385z"/>
			<path fill="#F2961C" d="M562.281,222.604l-1.015-0.024v-1.664c0.735-0.011,1.22-0.061,1.453-0.15
				c0.232-0.089,0.487-0.28,0.763-0.572c0.276-0.292,0.414-0.627,0.414-1.006c0-0.374-0.13-0.688-0.389-0.946
				c-0.26-0.257-0.577-0.385-0.95-0.385c-0.368,0-0.683,0.127-0.942,0.381c-0.146,0.151-0.313,0.481-0.502,0.99l-1.567-0.617
				c0.233-0.73,0.517-1.255,0.853-1.575c0.601-0.595,1.32-0.893,2.159-0.893c0.854,0,1.579,0.3,2.175,0.901s0.893,1.315,0.893,2.143
				c0,0.844-0.5,1.659-1.501,2.443c0.481,0.032,0.987,0.306,1.518,0.819c0.774,0.833,1.161,1.808,1.161,2.922
				c0,1.125-0.396,2.087-1.189,2.886c-0.793,0.798-1.754,1.197-2.885,1.197c-1.121,0-2.078-0.4-2.874-1.201
				c-0.634-0.638-1.036-1.523-1.21-2.654l1.681-0.608c0.098,0.974,0.344,1.658,0.739,2.053c0.465,0.46,1.02,0.69,1.664,0.69
				c0.654,0,1.213-0.23,1.676-0.69c0.463-0.459,0.693-1.017,0.693-1.672c0-0.66-0.23-1.242-0.693-1.745
				S563.234,222.782,562.281,222.604z"/>
			<path fill="#F2961C" d="M575.285,216.305v12.987h-1.68v-10.795h-1.242l1.704-2.191H575.285z"/>
			<path fill="#F2961C" d="M586.859,224.316c-0.481,0.52-1.279,0.779-2.395,0.779c-1.12,0-2.051-0.371-2.792-1.112
				c-0.898-0.903-1.348-1.994-1.348-3.271c0-1.271,0.449-2.358,1.348-3.259c0.897-0.901,1.985-1.352,3.263-1.352
				c1.271,0,2.359,0.449,3.264,1.348c0.865,0.871,1.301,2.081,1.307,3.628v0.024c0,1.531-0.414,2.879-1.242,4.042
				c-0.834,1.169-1.959,2.552-3.377,4.148h-2.207C584.644,227.257,586.037,225.599,586.859,224.316z M587.834,220.712
				c0-0.801-0.283-1.482-0.849-2.045c-0.565-0.562-1.249-0.844-2.05-0.844c-0.795,0-1.477,0.282-2.041,0.844
				c-0.566,0.563-0.849,1.245-0.849,2.045s0.282,1.483,0.849,2.045c0.564,0.563,1.246,0.844,2.041,0.844
				c0.801,0,1.484-0.281,2.05-0.844C587.551,222.195,587.834,221.513,587.834,220.712z"/>
			<path fill="#27515D" d="M499.461,249.178v5.233h-2.115v-16.354h4.641c1.314,0.177,2.426,0.719,3.332,1.625
				c1.084,1.09,1.625,2.399,1.625,3.925c0,1.54-0.541,2.854-1.625,3.94c-1.084,1.087-2.393,1.63-3.926,1.63H499.461z
				 M499.461,240.184v6.869h1.932c0.941,0,1.746-0.335,2.418-1.007c0.672-0.671,1.007-1.483,1.007-2.438
				c0-0.947-0.335-1.755-1.007-2.422c-0.672-0.668-1.477-1.002-2.418-1.002H499.461z"/>
			<path fill="#27515D" d="M518.043,238.058h2.127v11.52c-0.185,1.315-0.727,2.426-1.625,3.332c-1.091,1.09-2.402,1.635-3.936,1.635
				s-2.844-0.543-3.93-1.63c-1.088-1.086-1.631-2.397-1.631-3.93v-10.927h2.126v10.927c0,0.94,0.335,1.746,1.007,2.417
				c0.671,0.671,1.48,1.007,2.428,1.007c0.953,0,1.765-0.333,2.433-1.001c0.667-0.668,1.001-1.476,1.001-2.422V238.058z"/>
			<path fill="#27515D" d="M528.152,240.173v14.238h-2.125v-14.238h-3.812v-2.116h9.75v2.116H528.152z"/>
			<path fill="#27515D" d="M543.004,238.058h2.126v11.52c-0.185,1.315-0.726,2.426-1.625,3.332c-1.091,1.09-2.401,1.635-3.935,1.635
				s-2.844-0.543-3.931-1.63c-1.087-1.086-1.63-2.397-1.63-3.93v-10.927h2.125v10.927c0,0.94,0.336,1.746,1.008,2.417
				c0.67,0.671,1.48,1.007,2.428,1.007c0.953,0,1.764-0.333,2.432-1.001s1.002-1.476,1.002-2.422V238.058z"/>
			<path fill="#27515D" d="M550.629,238.058l5.305,9.168l5.285-9.168h1.932v16.354h-2.116v-11.816l-5.101,8.832l-5.121-8.832v11.816
				h-2.115v-16.354H550.629z"/>
			<path fill="#27515D" d="M572.789,238.058l5.948,16.354h-2.249l-2.105-5.785h-4.334l-2.095,5.785h-2.259l5.949-16.354H572.789z
				 M573.617,246.511l-1.4-3.833l-1.391,3.833H573.617z"/>
			<path fill="#27515D" d="M584.666,247.85l-5.652-9.792h2.433l4.272,7.4l4.283-7.4h2.442l-5.663,9.792v6.562h-2.115V247.85z"/>
			<path fill="#27515D" d="M608.113,240.296c1.635,1.636,2.453,3.608,2.453,5.918s-0.818,4.283-2.453,5.918
				s-3.607,2.453-5.918,2.453s-4.283-0.818-5.918-2.453c-1.636-1.635-2.453-3.608-2.453-5.918s0.817-4.283,2.453-5.918
				c1.635-1.635,3.607-2.453,5.918-2.453S606.479,238.661,608.113,240.296z M602.195,239.979c-1.725,0-3.194,0.608-4.41,1.825
				c-1.217,1.216-1.824,2.687-1.824,4.411c0,1.724,0.609,3.196,1.829,4.416s2.688,1.83,4.405,1.83c1.724,0,3.193-0.61,4.41-1.83
				s1.824-2.692,1.824-4.416c0-1.724-0.607-3.194-1.824-4.411S603.919,239.979,602.195,239.979z"/>
		</g>
	</g>
	<g>
		<g>
			<polyline fill="none" stroke="#FFFFFF" stroke-width="2" points="198.289,288.555 405.945,185.55 486.537,185.55 			"/>
			<g>
				<circle fill="#FFFFFF" cx="198.391" cy="288.505" r="2.256"/>
			</g>
		</g>
	</g>
</g>
</svg>
