<?xml version="1.0" encoding="utf-8"?>
<!-- Generator: Adobe Illustrator 16.0.0, SVG Export Plug-In . SVG Version: 6.00 Build 0)  -->
<!DOCTYPE svg PUBLIC "-//W3C//DTD SVG 1.1//EN" "http://www.w3.org/Graphics/SVG/1.1/DTD/svg11.dtd">
<svg version="1.1" id="Capa_1" xmlns="http://www.w3.org/2000/svg" xmlns:xlink="http://www.w3.org/1999/xlink" x="0px" y="0px"
	 width="734.338px" height="413.177px" viewBox="0 0 734.338 413.177" enable-background="new 0 0 734.338 413.177"
	 xml:space="preserve">
<g>
	<g>
		<g>
			<path fill="#F39200" d="M230.079,171.813l-0.168,0.257l0.067,0.021c0.047,0.016,0.085,0.05,0.104,0.095l0.139,0.312
				c0.015,0.034,0.02,0.072,0.011,0.107l-0.138,0.626l-0.352,0.854l0.192,0.053c0.043,0.013,0.079,0.04,0.103,0.079l0.104,0.173
				c0.045,0.075,0.027,0.171-0.04,0.226l-0.174,0.139c-0.022,0.018-0.05,0.03-0.077,0.035l-0.383,0.07l-0.206,0.068l-0.014,0.044
				l0.091,0.128l0.229,0.086c0.044,0.016,0.08,0.05,0.098,0.093c0.02,0.042,0.02,0.091,0.002,0.134l-0.129,0.323l-0.031,0.37
				l0.067,0.432l0.099,0.324c0.014,0.046,0.008,0.096-0.017,0.138s-0.065,0.071-0.112,0.081l-0.265,0.076l0.117,0.439
				c0.014,0.052,0.003,0.105-0.029,0.148l-0.104,0.139c-0.007,0.01-0.016,0.019-0.024,0.026l-0.273,0.243l-0.16,0.577
				c-0.005,0.015-0.011,0.028-0.019,0.042l-0.437,0.739l-0.099,0.459c-0.005,0.021-0.013,0.042-0.025,0.061l-0.069,0.104
				c-0.007,0.011-0.017,0.021-0.025,0.03l-0.524,0.494l0.021,0.145l0.136,0.51c0.003,0.013,0.006,0.024,0.006,0.037l0.174,3.786
				c0.001,0.016-0.001,0.03-0.004,0.046l-0.312,1.424l-0.029,0.424l0.061,0.163l0.023,0.06l0.336,0.506
				c0.014,0.019,0.021,0.039,0.026,0.062l0.035,0.174l0,0l0,0c0.012,0.057-0.007,0.115-0.048,0.156l-0.104,0.104
				c-0.015,0.015-0.03,0.025-0.049,0.034l-0.493,0.23l-0.066,0.066v0.072l0.055,0.158l0.213,0.613
				c0.007,0.018,0.01,0.037,0.01,0.057v0.244c0,0.017-0.002,0.033-0.007,0.049l-0.085,0.281l0.073,0.147
				c0.024,0.047,0.025,0.103,0.003,0.15s-0.064,0.083-0.115,0.096l-0.207,0.052l-0.09,0.157l-0.059,0.234v0.326l0.205,1.114l0,0l0,0
				c0.005,0.03,0.004,0.059-0.006,0.087l-0.104,0.312c-0.009,0.026-0.023,0.049-0.042,0.067l-0.284,0.283l-0.16,0.483
				c-0.014,0.04-0.042,0.075-0.079,0.095l-0.244,0.14c-0.013,0.009-0.027,0.015-0.044,0.019l-0.25,0.062l-0.214,0.133l-0.093,0.188
				l0.022,0.182l0.321,0.45c0.026,0.035,0.037,0.078,0.032,0.121l0,0l0,0l-0.032,0.28l0.019,0.076l0.052,0.067l0.261,0.087
				c0.048,0.016,0.087,0.053,0.106,0.1l0.068,0.174c0.009,0.02,0.013,0.041,0.014,0.062c0,0.021-0.004,0.043-0.012,0.062
				l-0.104,0.278c-0.006,0.017-0.014,0.032-0.025,0.047l-0.382,0.486l-0.085,0.137l0.166,0.146c0.018,0.016,0.031,0.033,0.042,0.053
				l0.069,0.14c0.012,0.022,0.018,0.048,0.018,0.073c0.001,0.025-0.004,0.051-0.015,0.073c-0.02,0.048-0.06,0.083-0.108,0.099
				l-0.18,0.053l0.261,0.84c0.005,0.018,0.008,0.034,0.008,0.052v0.938c0,0.015-0.003,0.029-0.006,0.044l-0.243,0.903l-1.667,3.688
				l-0.088,0.584l0.126,0.126l0.428-0.028l0.014-0.002l0.628-0.168l0.554-0.041l0.535-0.101c0.047-0.009,0.096,0.001,0.135,0.03
				c0.039,0.028,0.064,0.07,0.069,0.119l0.024,0.188l0.58,0.305c0.036,0.02,0.064,0.053,0.08,0.09l0.076,0.191l0.224-0.082
				c0.061-0.021,0.129-0.009,0.176,0.035l0.74,0.672l0.429,0.145l0.195-0.057c0,0,0.002,0.002,0.003,0
				c0.034-0.01,0.07-0.008,0.104,0.006h0.001l0.213,0.079l0.136-0.059l0.341-0.464l0.131-0.328c0.009-0.021,0.022-0.041,0.039-0.059
				l0.139-0.139c0.011-0.01,0.021-0.02,0.034-0.025l0.173-0.104l0.651-0.258l0.379-0.07l0.036-0.008l0,0
				c0.04-0.006,0.081,0,0.116,0.02l0.244,0.139c0.013,0.008,0.025,0.018,0.037,0.029l0.312,0.312l0.398,0.297
				c0.022,0.017,0.041,0.039,0.053,0.064l0.521,1.112l0.159,0.215c0.007,0.012,0.015,0.024,0.02,0.036l0.111,0.279l0.027,0.07
				c0.006,0.012,0.009,0.025,0.011,0.04v0.001l0,0v0.002l0.019,0.139l0.018,0.139l0.066,0.268l0.068,0.268
				c0.004,0.017,0.005,0.035,0.005,0.053l-0.035,0.557c-0.003,0.038-0.019,0.074-0.045,0.104l-0.73,0.8l-0.14,0.229l-0.118,0.504
				l0.149,0.329c0.018,0.039,0.021,0.082,0.008,0.124l-0.256,0.83l0.415,0.734c0.012,0.02,0.019,0.042,0.021,0.066l0.034,0.312
				c0.002,0.021,0.001,0.042-0.004,0.062l-0.104,0.417l-0.213,0.605l-0.623,1.147l-0.293,1.596l0.734,0.895l0.675,0.507l1.599-2.22
				l0.58-1.059l0.583-1.341l0.131-0.464l0.062-0.345l-0.026-0.415l-0.005-0.064l-0.082-0.266l-0.051-0.166l-0.032-0.299
				l-0.009-0.083l-0.002-0.26l-0.033-0.475c-0.002-0.024,0.001-0.049,0.01-0.074l0.694-1.841c0.008-0.017,0.017-0.033,0.027-0.046
				l0.14-0.174c0.007-0.01,0.015-0.019,0.024-0.026l0.208-0.173c0.064-0.054,0.159-0.054,0.224,0.001l0.432,0.365l0.021,0.009
				l0.197,0.085l0.506,0.147l0.033-0.017l0.065-0.109l0.266-0.997v-0.983c0-0.04,0.013-0.079,0.039-0.11l0.439-0.541l0.234-0.469
				l0.127-0.317l0.066-0.366l-0.003-0.351l0.21-1.245l0.247-0.886l0.025-0.294l-0.021-0.034l-0.381,0.026
				c-0.06,0.003-0.115-0.021-0.151-0.068c-0.035-0.048-0.045-0.108-0.024-0.164l0.859-2.336l0.032-0.883l-0.264-0.927l-0.11-0.193
				l-0.249-0.187c-0.014-0.011-0.025-0.022-0.036-0.035l-0.104-0.139l-0.322-0.536c-0.011-0.019-0.02-0.039-0.022-0.06
				c-0.012-0.062,0.013-0.126,0.065-0.167l0.624-0.486c0.012-0.009,0.023-0.017,0.036-0.021l0.597-0.265l0.101-0.102l0.039-0.066
				h-0.109c-0.051,0-0.1-0.021-0.133-0.061s-0.047-0.091-0.039-0.141l0,0l0,0l0.03-0.178l-0.028-0.143l0,0l0,0
				c-0.015-0.069,0.015-0.139,0.074-0.179l0.367-0.245l0.121-0.329c0.02-0.054,0.062-0.093,0.117-0.108l0.318-0.088l0.021-0.032
				l0.012-0.018l0.473-1.117c0.006-0.015,0.014-0.028,0.023-0.04l0.139-0.174c0.018-0.022,0.039-0.04,0.064-0.051l0.262-0.117
				l0.156-0.259v-0.202l-0.045-0.136l-0.014-0.045c-0.008-0.022-0.012-0.046-0.01-0.068c0.006-0.067,0.051-0.129,0.119-0.151
				l0.104-0.034c0.041-0.015,0.086-0.013,0.125,0.005l0.279,0.125h0.207l0.432,0.035c0.018,0.001,0.035,0.006,0.053,0.013
				l0.66,0.278c0.078,0.032,0.121,0.117,0.102,0.199l-0.139,0.591l-0.002,0.015l-0.029,0.41l0.035,1.837l0.062,0.222l0,0
				c0.008,0.031,0.01,0.063,0,0.095v0.001l-0.07,0.242c-0.01,0.034-0.027,0.064-0.055,0.086l-0.193,0.16l-0.068,0.092l-0.016,0.084
				l0.031,0.084l0.26,0.206l0.383-0.029c0.057-0.005,0.111,0.02,0.148,0.063c0.018,0.023,0.029,0.049,0.035,0.076
				c0.006,0.026,0.004,0.055-0.004,0.083l-0.451,1.528c-0.014,0.046-0.047,0.084-0.088,0.106l-0.324,0.161l-0.104,0.104
				l-0.684,1.129l-0.287,0.395l-0.266,0.47c-0.012,0.019-0.025,0.034-0.041,0.047l-0.416,0.347l-0.125,0.153l-0.057,0.254v0.575
				l0.197,0.525l0.092,0.146c0.02,0.034,0.027,0.074,0.021,0.113l0,0v0.001l-0.104,0.729c-0.004,0.024-0.012,0.048-0.025,0.069
				l-0.955,1.503l-0.064,0.282l-0.027,0.285l0.322,0.838l0.537,0.638l0.293,0.474l0.221,0.508c0.012,0.031,0.016,0.064,0.012,0.098
				l-0.035,0.208c-0.004,0.022-0.012,0.043-0.021,0.062l-0.209,0.348l-0.189,0.23c-0.01,0.013-0.023,0.023-0.037,0.032l-0.367,0.245
				l-0.045,0.133l-0.066,0.711c-0.002,0.016-0.006,0.031-0.012,0.045l-0.365,0.957l0.414,0.02l1.094-1.06l0.84-0.563l0.367-0.402
				c0.012-0.014,0.029-0.025,0.045-0.034l0.383-0.209c0.016-0.008,0.031-0.015,0.047-0.017l0.348-0.07l0.365-0.037l0.297-0.084
				l0.172-0.23l0.23-0.429c0.016-0.031,0.041-0.055,0.07-0.071l0.521-0.277c0.016-0.01,0.035-0.016,0.053-0.018l0.395-0.066
				l1.514-0.673l0.186-0.186l0.266-0.192c0.029-0.021,0.064-0.031,0.102-0.031h0.521c0.014,0,0.027,0,0.041,0.005l0.252,0.062
				l0.41-0.021l-0.176-0.549l-0.041-0.31v-0.331l-0.145-0.316l-0.178-0.16l-0.178-0.162c-0.029-0.027-0.049-0.063-0.055-0.104
				l-0.07-0.487c-0.002-0.016-0.002-0.034,0-0.051l0.066-0.419l-0.213-0.957l-0.049-0.212l-0.137-0.139l-0.139-0.139
				c-0.035-0.036-0.055-0.084-0.051-0.135l0.035-0.487c0.002-0.031,0.012-0.062,0.031-0.088l0.422-0.562
				c0.008-0.011,0.018-0.021,0.027-0.028l0.174-0.141c0.012-0.009,0.025-0.017,0.039-0.023l0.557-0.242l0.457-0.277l0.117-0.232
				l0.355-0.57c0.006-0.011,0.016-0.021,0.023-0.03l0.209-0.208c0.023-0.024,0.053-0.04,0.084-0.048l0.314-0.069
				c0.027-0.006,0.057-0.005,0.086,0.004l0.242,0.068c0.006,0.002,0.012,0.005,0.016,0.008c0.008,0.002,0.016,0.005,0.021,0.009
				l0.244,0.139c0.02,0.011,0.037,0.026,0.051,0.044l0,0l0,0l0.053,0.067l0.18,0.231l0.182,0.155h0.283l0.236,0.037
				c0.018,0.003,0.033,0.008,0.049,0.016l0.209,0.105c0.031,0.014,0.057,0.038,0.074,0.068l0.268,0.471l0.266,0.3l0.326,0.467
				l0.117,0.23c0.012,0.023,0.018,0.051,0.018,0.077v0.294l0.027,0.133l0.105,0.494l0.479,1.094c0.006,0.016,0.01,0.032,0.014,0.048
				l0.029,0.243l0.07,0.115l0.17,0.143l0.26,0.131l0.135,0.053l0.199,0.08l0.137,0.068l0.135,0.066l0.258,0.058l0.328-0.06
				l0.344-0.157l0.574-0.439c0.025-0.019,0.055-0.031,0.086-0.034l1.494-0.173c0.021-0.003,0.041-0.002,0.062,0.003l2.848,0.73
				l0.543,0.215c0.016,0.006,0.027,0.014,0.041,0.022l0.277,0.209c0.021,0.015,0.039,0.037,0.051,0.06l0.127,0.254l0.064,0.064
				l0.252,0.125l0.645,0.429l0.242,0.12l0.049-0.029l0.068-0.136l0.066-0.526l0.766-5.077l0.742-5.17l-0.238,0.405l-0.064,0.191
				c-0.008,0.025-0.023,0.049-0.041,0.067l-0.174,0.174c-0.012,0.011-0.025,0.021-0.039,0.028l-0.311,0.174
				c-0.023,0.013-0.049,0.02-0.074,0.021l-0.973,0.07c-0.027,0.002-0.053-0.003-0.078-0.013l-0.912-0.371l-0.492-0.034
				c-0.066-0.004-0.123-0.045-0.148-0.105l-0.174-0.416c-0.006-0.017-0.01-0.032-0.012-0.05l-0.062-0.579l-0.117-0.078l-0.201-0.058
				l-0.398-0.03l-0.383,0.128c-0.025,0.008-0.049,0.011-0.078,0.007l-0.277-0.034c-0.037-0.005-0.074-0.022-0.102-0.05l-0.172-0.173
				l-0.002-0.001c-0.012-0.013-0.023-0.029-0.031-0.045l-0.139-0.277l-0.418-0.737l-0.844-0.325
				c-0.053-0.02-0.094-0.065-0.107-0.121l-0.033-0.138c-0.006-0.024-0.008-0.049-0.004-0.073l0.059-0.32l-0.098-0.171l-0.334-0.368
				l-0.352-0.557l-0.16-0.134l-0.639-0.191l-1.887-0.034c-0.055-0.002-0.105-0.027-0.139-0.072l-0.52-0.73
				c-0.021-0.029-0.033-0.064-0.033-0.102v-0.311v-0.001c0-0.028,0.008-0.057,0.021-0.082l0.701-1.306l-0.096-0.707
				c-0.008-0.064,0.018-0.127,0.068-0.164l0.879-0.649l0.02-0.185l-0.322-0.612c-0.01-0.019-0.018-0.038-0.02-0.058l-0.068-0.486
				c-0.004-0.023-0.002-0.05,0.006-0.073l0.09-0.302l-0.051-0.207l-0.578-0.949c-0.008-0.015-0.016-0.03-0.02-0.047l-0.172-0.66
				c-0.008-0.023-0.01-0.049-0.004-0.074l0.092-0.525l-0.438-0.718l-0.357-0.294l-0.621-0.484c-0.027-0.02-0.047-0.046-0.057-0.076
				l-0.211-0.596c-0.006-0.018-0.008-0.037-0.008-0.055v-0.243l0,0c0-0.022,0.002-0.044,0.012-0.064l0.139-0.348l0.098-0.197
				l-0.113-0.159c-0.021-0.029-0.031-0.064-0.031-0.1v-0.119l0,0l-0.172-0.122l-0.986-0.88c-0.016-0.015-0.031-0.033-0.039-0.053
				l-0.244-0.486c-0.01-0.017-0.014-0.034-0.016-0.053l-0.018-0.115l-0.139,0.047c-0.018,0.006-0.035,0.009-0.055,0.009h-0.279
				c-0.021,0-0.043-0.004-0.064-0.013l-0.346-0.139c-0.023-0.009-0.043-0.021-0.059-0.039l-0.451-0.449l-0.424,0.112
				c-0.039,0.012-0.082,0.007-0.121-0.011l-1.217-0.592c-0.059-0.027-0.096-0.09-0.096-0.155l-0.016-1.141l-0.248,0.025
				l-0.162,0.079l-0.504,0.438l-1.225,1.26l0,0v0.381c0,0.02-0.004,0.039-0.01,0.059l-0.174,0.486
				c-0.02,0.051-0.059,0.091-0.111,0.107l-0.625,0.197l-1.5,1.363c-0.055,0.051-0.139,0.061-0.203,0.021l-1.043-0.605l-0.344-0.031
				c-0.027-0.003-0.053-0.011-0.074-0.024l-0.348-0.209l-0.268-0.226c-0.01-0.009-0.02-0.02-0.027-0.031l-0.244-0.348
				c-0.021-0.029-0.031-0.064-0.031-0.1v-0.302l0,0l-0.963,0.059c-0.027,0.001-0.053-0.003-0.08-0.015l-0.697-0.314l-0.708-0.403
				l-0.481-0.032l-0.281,0.034c-0.06,0.005-0.118-0.018-0.155-0.064l-0.139-0.173c-0.018-0.021-0.03-0.048-0.035-0.075l-0.035-0.174
				c-0.003-0.018-0.004-0.036-0.002-0.055l0.064-0.55l-0.146-0.409l-0.978-0.944c-0.014-0.014-0.024-0.028-0.032-0.045l-0.348-0.66
				c-0.009-0.017-0.016-0.036-0.019-0.056l-0.034-0.243c-0.004-0.022-0.003-0.045,0.003-0.067l0.069-0.277
				c0.003-0.013,0.009-0.026,0.016-0.039l0.277-0.521c0.006-0.011,0.014-0.021,0.021-0.031l0.18-0.21l0.054-0.237l-0.022-0.136
				l-0.151-0.211c-0.011-0.016-0.02-0.032-0.024-0.051l-0.104-0.348c-0.005-0.016-0.007-0.032-0.007-0.05v-0.417l-0.031-0.424
				l-0.146-0.205c-0.01-0.014-0.018-0.029-0.023-0.045l-0.068-0.209c-0.009-0.022-0.011-0.047-0.009-0.07l0.03-0.332l-0.028-0.057
				l-0.209-0.149c-0.027-0.021-0.049-0.048-0.062-0.081l-0.122-0.337l-0.103-0.083l-0.06-0.012l-0.287,0.201l-0.682,0.58
				l-0.36,0.254l-0.196,0.164c-0.021,0.018-0.045,0.03-0.071,0.036l-0.591,0.139c-0.024,0.006-0.048,0.007-0.073,0.001l-1.076-0.208
				l-0.364-0.107l-0.345-0.138l-0.363-0.061l-0.069,0.018l-0.25,0.188c-0.012,0.008-0.022,0.015-0.034,0.02l-0.557,0.244
				c-0.012,0.005-0.023,0.009-0.036,0.011l-1.251,0.243l-0.241,0.09v0.633l0.121,0.219l0.117,0.047
				c0.045,0.019,0.081,0.055,0.098,0.1c0.018,0.046,0.015,0.096-0.007,0.14L230.079,171.813z"/>
		</g>
	</g>
	<g>
		<g>
			<g>
				<g>
					<path fill="#FFFFFF" d="M510.527,194.114h-5.851v-3.91c0-1.137-0.062-1.847-0.188-2.129c-0.125-0.281-0.401-0.423-0.827-0.423
						c-0.482,0-0.788,0.172-0.917,0.515c-0.13,0.343-0.195,1.084-0.195,2.224v10.45c0,1.093,0.065,1.807,0.195,2.14
						c0.129,0.334,0.421,0.501,0.875,0.501c0.435,0,0.72-0.167,0.854-0.502c0.134-0.334,0.202-1.119,0.202-2.354v-2.828h5.851v0.877
						c0,2.329-0.165,3.98-0.493,4.955c-0.329,0.974-1.056,1.827-2.182,2.561c-1.125,0.733-2.513,1.1-4.162,1.1
						c-1.714,0-3.127-0.311-4.239-0.932c-1.111-0.62-1.848-1.479-2.209-2.577c-0.361-1.099-0.542-2.75-0.542-4.955v-6.573
						c0-1.621,0.056-2.837,0.167-3.647c0.111-0.811,0.442-1.592,0.994-2.342c0.551-0.75,1.315-1.341,2.293-1.771
						c0.977-0.431,2.101-0.646,3.37-0.646c1.723,0,3.145,0.333,4.266,0.999s1.857,1.497,2.209,2.491
						c0.352,0.995,0.528,2.542,0.528,4.643V194.114z"/>
					<path fill="#FFFFFF" d="M525.925,184.317v15.036c0,1.705-0.056,2.902-0.167,3.593c-0.111,0.69-0.44,1.398-0.986,2.126
						c-0.547,0.728-1.267,1.278-2.161,1.654c-0.894,0.375-1.948,0.562-3.162,0.562c-1.343,0-2.529-0.223-3.558-0.667
						c-1.028-0.445-1.797-1.023-2.307-1.737c-0.51-0.713-0.811-1.466-0.903-2.259c-0.093-0.792-0.139-2.457-0.139-4.995v-13.313
						h5.851v16.871c0,0.981,0.053,1.609,0.16,1.883s0.322,0.41,0.646,0.41c0.37,0,0.609-0.15,0.716-0.452
						c0.106-0.301,0.16-1.012,0.16-2.133v-16.579H525.925z"/>
					<path fill="#FFFFFF" d="M541.253,184.317v22.499h-5.128l-3.043-10.229v10.229h-4.892v-22.499h4.892l3.28,10.131v-10.131
						H541.253z"/>
					<path fill="#FFFFFF" d="M543.602,184.317h4.377c2.826,0,4.736,0.13,5.732,0.389c0.996,0.26,1.753,0.686,2.272,1.278
						c0.519,0.594,0.843,1.254,0.973,1.98c0.129,0.728,0.194,2.156,0.194,4.287v7.88c0,2.02-0.095,3.37-0.285,4.051
						c-0.19,0.682-0.521,1.214-0.994,1.599s-1.056,0.653-1.751,0.806c-0.695,0.153-1.742,0.229-3.141,0.229h-7.379V184.317z
						 M549.453,188.167v14.8c0.843,0,1.362-0.169,1.556-0.507c0.195-0.338,0.292-1.258,0.292-2.759v-8.741
						c0-1.02-0.033-1.672-0.097-1.96c-0.065-0.286-0.213-0.497-0.445-0.632C550.527,188.234,550.092,188.167,549.453,188.167z"/>
					<path fill="#FFFFFF" d="M565.184,184.317v22.499h-5.851v-22.499H565.184z"/>
					<path fill="#FFFFFF" d="M580.596,184.317v22.499h-5.128l-3.043-10.229v10.229h-4.892v-22.499h4.892l3.28,10.131v-10.131
						H580.596z"/>
					<path fill="#FFFFFF" d="M593.058,184.317l3.346,22.499h-5.979l-0.314-4.044h-2.093l-0.352,4.044h-6.048l2.984-22.499H593.058z
						 M589.958,198.784c-0.296-2.549-0.593-5.698-0.891-9.45c-0.596,4.309-0.971,7.458-1.123,9.45H589.958z"/>
					<path fill="#FFFFFF" d="M615.45,184.317v22.499h-5.114l-0.007-15.189l-2.036,15.189h-3.627l-2.147-14.842l-0.007,14.842h-5.114
						v-22.499h7.57c0.225,1.353,0.456,2.947,0.694,4.783l0.831,5.723l1.345-10.506H615.45z"/>
					<path fill="#FFFFFF" d="M627.912,184.317l3.346,22.499h-5.979l-0.314-4.044h-2.093l-0.352,4.044h-6.048l2.984-22.499H627.912z
						 M624.811,198.784c-0.296-2.549-0.593-5.698-0.891-9.45c-0.596,4.309-0.971,7.458-1.123,9.45H624.811z"/>
					<path fill="#FFFFFF" d="M632.251,184.317h4.141c2.761,0,4.63,0.106,5.607,0.319s1.774,0.758,2.39,1.633
						c0.616,0.876,0.924,2.272,0.924,4.19c0,1.751-0.218,2.928-0.653,3.529c-0.436,0.603-1.292,0.964-2.571,1.084
						c1.158,0.287,1.937,0.672,2.335,1.153c0.398,0.482,0.646,0.925,0.743,1.327c0.098,0.403,0.146,1.513,0.146,3.329v5.934h-5.434
						v-7.477c0-1.204-0.095-1.95-0.285-2.237s-0.688-0.431-1.494-0.431v10.145h-5.851V184.317z M638.102,188.167v5.003
						c0.658,0,1.119-0.091,1.383-0.271c0.264-0.181,0.396-0.767,0.396-1.758v-1.237c0-0.713-0.127-1.181-0.382-1.403
						S638.778,188.167,638.102,188.167z"/>
					<path fill="#FFFFFF" d="M661.24,194.114h-5.851v-3.91c0-1.137-0.062-1.847-0.188-2.129c-0.125-0.281-0.401-0.423-0.827-0.423
						c-0.482,0-0.788,0.172-0.917,0.515c-0.13,0.343-0.195,1.084-0.195,2.224v10.45c0,1.093,0.065,1.807,0.195,2.14
						c0.129,0.334,0.421,0.501,0.875,0.501c0.435,0,0.72-0.167,0.854-0.502c0.134-0.334,0.202-1.119,0.202-2.354v-2.828h5.851v0.877
						c0,2.329-0.165,3.98-0.493,4.955c-0.329,0.974-1.056,1.827-2.182,2.561c-1.125,0.733-2.513,1.1-4.162,1.1
						c-1.714,0-3.127-0.311-4.239-0.932c-1.111-0.62-1.848-1.479-2.209-2.577c-0.361-1.099-0.542-2.75-0.542-4.955v-6.573
						c0-1.621,0.056-2.837,0.167-3.647c0.111-0.811,0.442-1.592,0.994-2.342c0.551-0.75,1.315-1.341,2.293-1.771
						c0.977-0.431,2.101-0.646,3.37-0.646c1.723,0,3.145,0.333,4.266,0.999s1.857,1.497,2.209,2.491
						c0.352,0.995,0.528,2.542,0.528,4.643V194.114z"/>
					<path fill="#FFFFFF" d="M673.452,184.317l3.346,22.499h-5.979l-0.314-4.044h-2.093l-0.352,4.044h-6.048l2.984-22.499H673.452z
						 M670.352,198.784c-0.296-2.549-0.593-5.698-0.891-9.45c-0.596,4.309-0.971,7.458-1.123,9.45H670.352z"/>
				</g>
			</g>
		</g>
	</g>
	<g>
		<g>
			<path fill="#F2961C" d="M498.121,225.136v4.156h-1.68v-12.986h3.685c1.044,0.141,1.926,0.57,2.646,1.29
				c0.86,0.866,1.291,1.905,1.291,3.116c0,1.224-0.43,2.267-1.291,3.129c-0.86,0.863-1.899,1.295-3.117,1.295H498.121z
				 M498.121,217.993v5.455h1.534c0.747,0,1.387-0.268,1.92-0.8c0.533-0.533,0.799-1.179,0.799-1.937
				c0-0.752-0.267-1.393-0.799-1.924c-0.533-0.529-1.173-0.795-1.92-0.795H498.121z"/>
			<path fill="#F2961C" d="M512.35,226.427l1.68,0.601c-0.412,0.568-0.709,0.944-0.893,1.128c-0.904,0.904-1.994,1.355-3.271,1.355
				c-1.272,0-2.359-0.451-3.263-1.355c-0.904-0.903-1.355-1.994-1.355-3.271c0-1.277,0.452-2.368,1.355-3.271
				s1.991-1.355,3.263-1.355c1.277,0,2.367,0.452,3.271,1.355c0.184,0.185,0.481,0.555,0.893,1.112l-1.68,0.617
				c-0.217-0.266-0.363-0.436-0.438-0.512c-0.563-0.562-1.245-0.844-2.045-0.844c-0.795,0-1.476,0.282-2.042,0.848
				s-0.848,1.249-0.848,2.05c0,0.796,0.283,1.476,0.848,2.041s1.246,0.849,2.042,0.849c0.801,0,1.485-0.281,2.054-0.844
				C511.989,226.854,512.133,226.687,512.35,226.427z"/>
			<path fill="#F2961C" d="M517.211,216.306c2.11,0.01,3.755,0.607,4.935,1.793c1.293,1.305,1.94,2.871,1.94,4.699
				c0,1.835-0.646,3.401-1.94,4.7c-1.18,1.185-2.825,1.783-4.935,1.794h-1.233v-12.986H517.211z M517.658,218.018v9.569
				c1.336,0,2.432-0.43,3.287-1.29c0.963-0.963,1.445-2.13,1.445-3.499c0-1.363-0.482-2.529-1.445-3.498
				C520.09,218.445,518.994,218.018,517.658,218.018z"/>
			<path fill="#F2961C" d="M537.584,216.306h1.469v7.8h1.145v1.681h-1.145v3.506h-1.68v-3.506h-5.316L537.584,216.306z
				 M537.374,220.096l-2.395,4.01h2.395V220.096z"/>
			<path fill="#F2961C" d="M544.955,221.28c0.481-0.52,1.28-0.779,2.395-0.779c1.12,0,2.051,0.371,2.792,1.112
				c0.898,0.903,1.348,1.994,1.348,3.271c0,1.271-0.449,2.358-1.348,3.259s-1.986,1.352-3.263,1.352
				c-1.272,0-2.359-0.449-3.263-1.348c-0.866-0.871-1.301-2.08-1.307-3.629v-0.023c0-1.531,0.414-2.879,1.242-4.043
				c0.833-1.168,1.959-2.551,3.376-4.146h2.208C547.17,218.34,545.777,219.998,544.955,221.28z M543.98,224.885
				c0,0.801,0.283,1.482,0.848,2.046c0.565,0.562,1.249,0.844,2.05,0.844c0.795,0,1.476-0.281,2.041-0.844
				c0.565-0.563,0.848-1.245,0.848-2.046s-0.283-1.483-0.848-2.046s-1.246-0.844-2.041-0.844c-0.801,0-1.484,0.281-2.05,0.844
				S543.98,224.084,543.98,224.885z"/>
			<path fill="#F2961C" d="M554.91,227.385c0.23,0.228,0.345,0.503,0.345,0.827c0,0.336-0.115,0.617-0.345,0.845
				c-0.23,0.228-0.507,0.341-0.832,0.341c-0.319,0-0.595-0.113-0.828-0.341c-0.232-0.228-0.349-0.509-0.349-0.845
				c0-0.324,0.117-0.6,0.349-0.827c0.233-0.228,0.509-0.341,0.828-0.341C554.403,227.044,554.68,227.157,554.91,227.385z"/>
			<path fill="#F2961C" d="M560.929,222.604l-1.015-0.024v-1.664c0.736-0.01,1.22-0.061,1.453-0.15
				c0.232-0.089,0.487-0.279,0.763-0.572c0.276-0.291,0.414-0.627,0.414-1.006c0-0.373-0.13-0.688-0.389-0.945
				c-0.26-0.258-0.577-0.386-0.95-0.386c-0.368,0-0.682,0.127-0.942,0.382c-0.146,0.15-0.314,0.48-0.503,0.99l-1.567-0.617
				c0.233-0.73,0.517-1.256,0.853-1.574c0.601-0.596,1.32-0.894,2.159-0.894c0.855,0,1.58,0.3,2.175,0.901
				c0.595,0.6,0.893,1.314,0.893,2.143c0,0.844-0.5,1.658-1.501,2.443c0.481,0.032,0.987,0.306,1.518,0.819
				c0.774,0.833,1.161,1.808,1.161,2.923c0,1.125-0.396,2.087-1.189,2.885c-0.792,0.799-1.754,1.197-2.885,1.197
				c-1.12,0-2.078-0.4-2.874-1.201c-0.633-0.639-1.036-1.523-1.209-2.654l1.68-0.608c0.098,0.974,0.344,1.658,0.739,2.054
				c0.465,0.459,1.02,0.689,1.664,0.689c0.654,0,1.213-0.23,1.676-0.689c0.463-0.46,0.694-1.018,0.694-1.672
				c0-0.66-0.231-1.242-0.694-1.746C562.589,223.123,561.881,222.782,560.929,222.604z"/>
			<path fill="#F2961C" d="M569.703,225.197c0.882-0.657,1.634-1.22,2.256-1.685s1.178-0.966,1.668-1.502
				c0.49-0.535,0.735-1.131,0.735-1.785s-0.231-1.213-0.694-1.672c-0.462-0.461-1.021-0.69-1.676-0.69
				c-0.644,0-1.199,0.229-1.664,0.69c-0.395,0.395-0.641,1.076-0.739,2.045l-1.68-0.608c0.173-1.126,0.576-2.008,1.209-2.646
				c0.795-0.801,1.753-1.201,2.874-1.201c1.131,0,2.093,0.397,2.885,1.193c0.793,0.796,1.189,1.759,1.189,2.89
				c0,1.115-0.384,2.086-1.153,2.914c-0.487,0.525-1.054,1.029-1.7,1.514c-0.647,0.484-1.365,1.023-2.155,1.619
				c-0.693,0.514-1.08,0.958-1.161,1.331h6.169v1.688h-8.142C568.229,227.22,568.821,225.854,569.703,225.197z"/>
			<path fill="#F2961C" d="M587.146,224.885c0,1.271-0.45,2.358-1.352,3.259c-0.901,0.9-1.99,1.352-3.267,1.352
				c-1.271,0-2.358-0.451-3.259-1.352s-1.352-1.987-1.352-3.259v-3.97c0-1.271,0.451-2.357,1.352-3.259s1.987-1.351,3.259-1.351
				c1.277,0,2.366,0.449,3.267,1.351c0.901,0.901,1.352,1.987,1.352,3.259V224.885z M585.425,220.915
				c0-0.795-0.283-1.475-0.848-2.037s-1.249-0.844-2.05-0.844c-0.795,0-1.476,0.281-2.041,0.844
				c-0.566,0.562-0.848,1.242-0.848,2.037v3.97c0,0.801,0.282,1.482,0.848,2.046c0.565,0.562,1.246,0.844,2.041,0.844
				c0.801,0,1.484-0.281,2.05-0.844c0.565-0.563,0.848-1.245,0.848-2.046V220.915z"/>
			<path fill="#27515D" d="M506.489,246.147l1.258,1.129c-1.537,1.401-3.163,2.102-4.878,2.102c-1.834,0-3.398-0.646-4.691-1.939
				c-1.293-1.293-1.94-2.857-1.94-4.691c0-1.829,0.646-3.393,1.94-4.691c1.293-1.299,2.857-1.949,4.691-1.949
				c1.715,0,3.341,0.701,4.878,2.104l-1.258,1.145c-1.158-1.029-2.365-1.543-3.62-1.543c-1.358,0-2.52,0.482-3.486,1.445
				c-0.966,0.963-1.449,2.127-1.449,3.49c0,1.369,0.483,2.535,1.449,3.498c0.966,0.963,2.128,1.445,3.486,1.445
				C504.124,247.69,505.331,247.176,506.489,246.147z"/>
			<path fill="#27515D" d="M516.911,236.253h1.688v9.148c-0.146,1.044-0.577,1.926-1.291,2.646
				c-0.866,0.866-1.908,1.299-3.125,1.299c-1.218,0-2.258-0.432-3.121-1.294c-0.863-0.863-1.294-1.904-1.294-3.121v-8.678h1.688
				v8.678c0,0.746,0.267,1.387,0.8,1.919c0.533,0.533,1.175,0.8,1.928,0.8c0.757,0,1.401-0.266,1.932-0.795
				c0.53-0.531,0.795-1.172,0.795-1.924V236.253z"/>
			<path fill="#27515D" d="M521.035,236.253h1.534l5.357,9.27v-9.27h1.688v12.987h-1.469l-5.43-9.384v9.384h-1.68V236.253z"/>
			<path fill="#27515D" d="M533.283,236.253c2.11,0.012,3.755,0.609,4.935,1.794c1.293,1.304,1.94,2.871,1.94,4.7
				c0,1.834-0.646,3.4-1.94,4.699c-1.18,1.186-2.825,1.783-4.935,1.794h-1.233v-12.987H533.283z M533.729,237.966v9.57
				c1.336,0,2.432-0.431,3.287-1.291c0.963-0.963,1.445-2.129,1.445-3.498c0-1.363-0.482-2.529-1.445-3.498
				C536.162,238.394,535.066,237.966,533.729,237.966z"/>
			<path fill="#27515D" d="M544.038,236.253v12.987h-1.68v-12.987H544.038z"/>
			<path fill="#27515D" d="M546.643,236.253h1.534l5.357,9.27v-9.27h1.688v12.987h-1.469l-5.43-9.384v9.384h-1.68V236.253z"/>
			<path fill="#27515D" d="M562.479,236.253l4.724,12.987h-1.786l-1.672-4.595h-3.441l-1.664,4.595h-1.794l4.724-12.987H562.479z
				 M563.136,242.966l-1.112-3.044l-1.104,3.044H563.136z"/>
			<path fill="#27515D" d="M570.758,236.253l4.212,7.281l4.197-7.281h1.534v12.987h-1.68v-9.384l-4.05,7.014l-4.066-7.014v9.384
				h-1.68v-12.987H570.758z"/>
			<path fill="#27515D" d="M588.356,236.253l4.724,12.987h-1.786l-1.672-4.595h-3.441l-1.664,4.595h-1.794l4.724-12.987H588.356z
				 M589.013,242.966l-1.112-3.044l-1.104,3.044H589.013z"/>
			<path fill="#27515D" d="M597.917,245.085h-1.534v4.155h-1.68v-12.987h3.685c1.044,0.141,1.926,0.571,2.646,1.291
				c0.86,0.865,1.291,1.904,1.291,3.117c0,1.223-0.43,2.268-1.291,3.133c-0.595,0.596-1.05,0.931-1.364,1.006l2.881,4.44h-2.037
				L597.917,245.085z M596.383,237.941v5.454h1.534c0.747,0,1.387-0.266,1.92-0.799c0.533-0.533,0.799-1.178,0.799-1.936
				c0-0.752-0.267-1.394-0.799-1.924c-0.533-0.531-1.173-0.796-1.92-0.796H596.383z"/>
			<path fill="#27515D" d="M614.256,246.147l1.258,1.129c-1.537,1.401-3.163,2.102-4.878,2.102c-1.834,0-3.398-0.646-4.691-1.939
				c-1.293-1.293-1.94-2.857-1.94-4.691c0-1.829,0.646-3.393,1.94-4.691c1.293-1.299,2.857-1.949,4.691-1.949
				c1.715,0,3.341,0.701,4.878,2.104l-1.258,1.145c-1.158-1.029-2.365-1.543-3.62-1.543c-1.358,0-2.52,0.482-3.486,1.445
				c-0.966,0.963-1.449,2.127-1.449,3.49c0,1.369,0.483,2.535,1.449,3.498c0.966,0.963,2.128,1.445,3.486,1.445
				C611.892,247.69,613.099,247.176,614.256,246.147z"/>
			<path fill="#27515D" d="M622.033,236.253l4.724,12.987h-1.786l-1.672-4.595h-3.441l-1.664,4.595h-1.794l4.724-12.987H622.033z
				 M622.69,242.966l-1.112-3.044l-1.104,3.044H622.69z"/>
		</g>
	</g>
	<g>
		<g>
			<polyline fill="none" stroke="#FFFFFF" stroke-width="2" points="251.48,193.122 405.377,193.122 405.357,185.55 485.949,185.55 
							"/>
			<g>
				<circle fill="#FFFFFF" cx="251.594" cy="193.122" r="2.256"/>
			</g>
		</g>
	</g>
</g>
</svg>
