<?xml version="1.0" encoding="utf-8"?>
<!-- Generator: Adobe Illustrator 16.0.0, SVG Export Plug-In . SVG Version: 6.00 Build 0)  -->
<!DOCTYPE svg PUBLIC "-//W3C//DTD SVG 1.1//EN" "http://www.w3.org/Graphics/SVG/1.1/DTD/svg11.dtd">
<svg version="1.1" id="Capa_1" xmlns="http://www.w3.org/2000/svg" xmlns:xlink="http://www.w3.org/1999/xlink" x="0px" y="0px"
	 width="734.339px" height="413.177px" viewBox="0 0 734.339 413.177" enable-background="new 0 0 734.339 413.177"
	 xml:space="preserve">
<g>
	<g>
		<g>
			<path fill="#F39200" d="M217.119,52.467l-0.521,0.486l-0.122,0.155c-0.042,0.053-0.11,0.076-0.177,0.06l-0.012-0.003
				l-0.061,0.106l-0.058,0.258l0.024,0.188l0.096,0.097l0.472,0.369c0.014,0.012,0.026,0.025,0.036,0.04l0.14,0.208
				c0.013,0.019,0.021,0.04,0.025,0.062l0.07,0.347l0.003,0.555c0,0.031-0.008,0.06-0.022,0.086l-0.14,0.243
				c-0.016,0.027-0.037,0.049-0.064,0.065l-0.242,0.139l-0.13,0.11l-0.027,0.277l-0.271,0.893l0.055,0.245l0.285,0.537l0.065,0.049
				l0.853,0.066l0.433,0.071l0.413,0.147c0.047,0.017,0.083,0.053,0.102,0.098l0.07,0.174c0.021,0.053,0.015,0.114-0.018,0.161
				l-0.107,0.162l0.191,0.115c0.022,0.013,0.042,0.032,0.057,0.054l0.63,0.977l1.203-0.253c0.057-0.012,0.117,0.006,0.158,0.048
				l1.01,1.008l0.477,0.127c0.021,0.006,0.043,0.017,0.062,0.031l0.625,0.486c0.01,0.007,0.018,0.016,0.025,0.024l1.361,1.602
				l1.096-2.193c0.007-0.012,0.014-0.023,0.022-0.034l0.383-0.451l0.249-0.376l0.132-0.494l0.135-1.055
				c0.003-0.018,0.008-0.036,0.017-0.053l0.416-0.868c0.014-0.027,0.032-0.05,0.058-0.068l0.916-0.634l0.405-0.281l0.416-0.735
				l0.065-0.488l-0.068-1.43l-0.003-0.067l0,0l0,0l0.088-1.019l0.087-1.019l-0.001-0.443l-0.061-0.181l-0.381-1.074
				c-0.005-0.011-0.007-0.023-0.009-0.036l-0.035-0.278c-0.002-0.018-0.001-0.036,0.002-0.054l0.104-0.556
				c0.002-0.014,0.007-0.028,0.013-0.041l0.208-0.451l0.083-0.345l-0.086-0.376l-0.176-0.234l-0.265-0.231
				c-0.011-0.011-0.021-0.021-0.029-0.035l-0.209-0.312c-0.012-0.02-0.021-0.043-0.026-0.066l-0.169-0.948l-0.153-0.307
				l-0.254-0.305l-0.254-0.305l-0.426-0.394l-0.416-0.385l0.002,0.033c0.003,0.056-0.021,0.109-0.063,0.145l-0.382,0.312
				c-0.027,0.022-0.061,0.035-0.096,0.039l-0.799,0.069l-0.516,0.001l-0.021,0.258c-0.004,0.046-0.026,0.09-0.063,0.12l-0.556,0.451
				l-0.294,0.329c-0.018,0.02-0.041,0.036-0.066,0.046l-0.451,0.173c-0.016,0.006-0.031,0.009-0.048,0.01l-0.388,0.033l-0.286,0.127
				l-0.182,0.105l-0.07,0.139l-0.1,0.533c-0.002,0.012-0.006,0.024-0.011,0.036l-0.087,0.203l0.03,0.338
				c0.005,0.049-0.011,0.096-0.044,0.133l-0.312,0.348c-0.012,0.013-0.027,0.025-0.042,0.034l-0.487,0.278
				c-0.013,0.007-0.025,0.013-0.039,0.016l-0.843,0.236l-1.471,0.958l-0.271,0.118l-0.305,0.079
				c-0.014,0.003-0.027,0.005-0.041,0.005h-0.242l-0.172,0.073l-0.208,0.255l0.041,0.069c0.012,0.021,0.021,0.044,0.023,0.069
				l0.069,0.591c0.004,0.032-0.001,0.063-0.014,0.093l-0.158,0.347v0.234l0.154,0.312C217.19,52.331,217.175,52.415,217.119,52.467z
				"/>
		</g>
	</g>
	<g>
		<g>
			<g>
				<g>
					<path fill="#FFFFFF" d="M510.558,175.865l4.232,28.459h-7.562l-0.397-5.115h-2.647l-0.445,5.115h-7.65l3.775-28.459H510.558z
						 M506.636,194.164c-0.375-3.224-0.75-7.208-1.127-11.953c-0.754,5.45-1.228,9.434-1.42,11.953H506.636z"/>
					<path fill="#FFFFFF" d="M530.953,175.865v5.695h-4.395v22.764h-7.4V181.56h-4.377v-5.695H530.953z"/>
					<path fill="#FFFFFF" d="M540.041,175.865v22.764h4.5v5.695h-11.9v-28.459H540.041z"/>
					<path fill="#FFFFFF" d="M559.126,175.865l4.232,28.459h-7.562l-0.397-5.115h-2.647l-0.445,5.115h-7.65l3.775-28.459H559.126z
						 M559.992,170.205l-5.783,4.764h-3.568l3.094-4.764H559.992z M555.204,194.164c-0.375-3.224-0.75-7.208-1.127-11.953
						c-0.754,5.45-1.228,9.434-1.42,11.953H555.204z"/>
					<path fill="#FFFFFF" d="M581.139,175.865v28.459h-6.486l-3.85-12.938v12.938h-6.188v-28.459h6.188l4.148,12.814v-12.814
						H581.139z"/>
					<path fill="#FFFFFF" d="M599.016,175.865v5.695h-4.395v22.764h-7.4V181.56h-4.377v-5.695H599.016z"/>
					<path fill="#FFFFFF" d="M608.104,175.865v28.459h-7.4v-28.459H608.104z"/>
					<path fill="#FFFFFF" d="M628.354,188.257h-7.4v-4.946c0-1.438-0.079-2.336-0.237-2.692s-0.507-0.535-1.046-0.535
						c-0.609,0-0.996,0.217-1.16,0.65s-0.246,1.371-0.246,2.812v13.219c0,1.383,0.082,2.285,0.246,2.707s0.533,0.633,1.107,0.633
						c0.551,0,0.911-0.211,1.081-0.634s0.255-1.416,0.255-2.978v-3.577h7.4v1.109c0,2.946-0.208,5.035-0.624,6.267
						c-0.416,1.232-1.336,2.312-2.76,3.239c-1.424,0.927-3.179,1.391-5.265,1.391c-2.168,0-3.955-0.393-5.361-1.178
						s-2.338-1.872-2.795-3.261s-0.686-3.478-0.686-6.267v-8.314c0-2.051,0.07-3.589,0.211-4.614s0.56-2.013,1.257-2.962
						s1.664-1.696,2.9-2.241s2.657-0.817,4.263-0.817c2.18,0,3.979,0.421,5.396,1.264c1.418,0.842,2.35,1.893,2.795,3.151
						s0.668,3.215,0.668,5.872V188.257z"/>
					<path fill="#FFFFFF" d="M647.918,192.529c0,2.859-0.067,4.884-0.202,6.073s-0.557,2.276-1.266,3.261s-1.667,1.74-2.874,2.268
						s-2.613,0.791-4.219,0.791c-1.523,0-2.892-0.249-4.104-0.747s-2.188-1.245-2.927-2.241s-1.178-2.08-1.318-3.252
						s-0.211-3.223-0.211-6.152v-4.869c0-2.859,0.067-4.884,0.202-6.073s0.557-2.276,1.266-3.261s1.667-1.74,2.874-2.268
						s2.613-0.791,4.219-0.791c1.523,0,2.892,0.249,4.104,0.747s2.188,1.245,2.927,2.241s1.178,2.08,1.318,3.252
						s0.211,3.223,0.211,6.152V192.529z M640.518,183.177c0-1.324-0.073-2.171-0.22-2.54s-0.448-0.554-0.905-0.554
						c-0.387,0-0.683,0.149-0.888,0.448s-0.308,1.181-0.308,2.646v13.289c0,1.652,0.067,2.672,0.202,3.059s0.448,0.58,0.94,0.58
						c0.504,0,0.826-0.223,0.967-0.668s0.211-1.506,0.211-3.182V183.177z"/>
				</g>
			</g>
		</g>
	</g>
	<g>
		<g>
			<path fill="#F2961C" d="M498.71,225.136v4.156h-1.68v-12.987h3.686c1.043,0.141,1.926,0.571,2.646,1.291
				c0.86,0.866,1.29,1.905,1.29,3.117c0,1.223-0.43,2.266-1.29,3.129c-0.86,0.863-1.899,1.295-3.117,1.295H498.71z M498.71,217.993
				v5.455h1.534c0.747,0,1.387-0.267,1.92-0.799c0.532-0.533,0.8-1.178,0.8-1.936c0-0.752-0.268-1.393-0.8-1.924
				c-0.533-0.53-1.173-0.795-1.92-0.795H498.71z"/>
			<path fill="#F2961C" d="M512.939,226.427l1.681,0.601c-0.412,0.568-0.709,0.944-0.894,1.128
				c-0.903,0.904-1.994,1.355-3.271,1.355c-1.272,0-2.359-0.452-3.264-1.355s-1.355-1.994-1.355-3.271
				c0-1.277,0.451-2.368,1.355-3.271c0.904-0.903,1.991-1.355,3.264-1.355c1.276,0,2.367,0.452,3.271,1.355
				c0.185,0.184,0.481,0.555,0.894,1.112l-1.681,0.617c-0.217-0.265-0.362-0.436-0.438-0.511c-0.562-0.563-1.244-0.844-2.045-0.844
				c-0.796,0-1.477,0.283-2.042,0.848s-0.849,1.249-0.849,2.05c0,0.795,0.283,1.476,0.849,2.041s1.246,0.848,2.042,0.848
				c0.801,0,1.484-0.281,2.053-0.844C512.579,226.854,512.723,226.687,512.939,226.427z"/>
			<path fill="#F2961C" d="M517.801,216.305c2.11,0.011,3.755,0.608,4.935,1.793c1.294,1.304,1.94,2.871,1.94,4.7
				c0,1.834-0.646,3.401-1.94,4.7c-1.18,1.185-2.824,1.783-4.935,1.794h-1.233v-12.987H517.801z M518.247,218.018v9.57
				c1.337,0,2.433-0.43,3.287-1.291c0.963-0.963,1.445-2.129,1.445-3.499c0-1.363-0.482-2.529-1.445-3.498
				C520.68,218.445,519.584,218.018,518.247,218.018z"/>
			<path fill="#F2961C" d="M538.175,216.305h1.469v7.8h1.145v1.68h-1.145v3.506h-1.68v-3.506h-5.316L538.175,216.305z
				 M537.964,220.096l-2.395,4.01h2.395V220.096z"/>
			<path fill="#F2961C" d="M552.046,224.885c0,1.271-0.45,2.358-1.352,3.259c-0.9,0.901-1.99,1.352-3.268,1.352
				c-1.271,0-2.357-0.451-3.258-1.352c-0.901-0.901-1.352-1.987-1.352-3.259v-3.969c0-1.271,0.45-2.358,1.352-3.259
				c0.9-0.901,1.986-1.351,3.258-1.351c1.277,0,2.367,0.45,3.268,1.351c0.901,0.901,1.352,1.988,1.352,3.259V224.885z
				 M550.325,220.916c0-0.795-0.283-1.475-0.848-2.038c-0.566-0.562-1.25-0.844-2.051-0.844c-0.795,0-1.475,0.282-2.041,0.844
				c-0.565,0.563-0.848,1.242-0.848,2.038v3.969c0,0.801,0.282,1.482,0.848,2.045c0.566,0.562,1.246,0.844,2.041,0.844
				c0.801,0,1.484-0.281,2.051-0.844c0.564-0.563,0.848-1.245,0.848-2.045V220.916z"/>
			<path fill="#F2961C" d="M555.483,227.385c0.23,0.227,0.346,0.503,0.346,0.828c0,0.335-0.115,0.617-0.346,0.844
				c-0.23,0.227-0.507,0.341-0.832,0.341c-0.318,0-0.595-0.114-0.828-0.341c-0.232-0.228-0.349-0.509-0.349-0.844
				c0-0.325,0.116-0.601,0.349-0.828c0.233-0.228,0.51-0.341,0.828-0.341C554.977,227.043,555.253,227.157,555.483,227.385z"/>
			<path fill="#F2961C" d="M559.659,225.197c0.883-0.658,1.635-1.219,2.257-1.685s1.179-0.966,1.668-1.501s0.735-1.131,0.735-1.786
				s-0.232-1.212-0.695-1.672c-0.462-0.46-1.021-0.69-1.676-0.69c-0.644,0-1.198,0.23-1.664,0.69
				c-0.395,0.395-0.641,1.077-0.738,2.045l-1.68-0.608c0.173-1.125,0.576-2.008,1.209-2.646c0.795-0.801,1.754-1.201,2.873-1.201
				c1.131,0,2.094,0.398,2.886,1.193c0.793,0.795,1.189,1.759,1.189,2.89c0,1.115-0.384,2.086-1.153,2.914
				c-0.486,0.525-1.053,1.03-1.699,1.514c-0.647,0.484-1.365,1.024-2.156,1.619c-0.692,0.514-1.079,0.958-1.16,1.331h6.169v1.688
				h-8.142C558.185,227.22,558.777,225.854,559.659,225.197z"/>
			<path fill="#F2961C" d="M572.509,229.454c-1.331,0-2.395-0.399-3.189-1.197c-0.796-0.798-1.193-1.76-1.193-2.886
				c0-1.385,0.76-2.633,2.281-3.742c-0.73-0.785-1.096-1.599-1.096-2.443c0-0.828,0.295-1.542,0.889-2.143
				c0.592-0.601,1.316-0.901,2.171-0.901h0.268c0.854,0,1.58,0.3,2.175,0.901c0.596,0.601,0.894,1.315,0.894,2.143
				c0,0.844-0.396,1.65-1.185,2.419c1.58,1.125,2.369,2.381,2.369,3.766c0,1.125-0.397,2.087-1.193,2.886
				C574.903,229.055,573.841,229.454,572.509,229.454z M572.509,227.733c0.855,0,1.514-0.23,1.977-0.69
				c0.463-0.459,0.693-1.017,0.693-1.672c0-0.66-0.229-1.236-0.689-1.729c-0.454-0.498-1.115-0.836-1.98-1.015
				c-0.871,0.179-1.533,0.517-1.988,1.015c-0.455,0.493-0.682,1.069-0.682,1.729c0,0.655,0.229,1.212,0.689,1.672
				C570.988,227.503,571.648,227.733,572.509,227.733z M572.468,217.863c-0.037-0.005-0.07-0.008-0.097-0.008
				c-0.368,0-0.683,0.128-0.942,0.385c-0.26,0.257-0.389,0.572-0.389,0.946c0,0.379,0.137,0.714,0.41,1.006
				c0.272,0.292,0.52,0.482,0.742,0.568c0.119,0.043,0.225,0.073,0.316,0.089c0.092-0.017,0.197-0.046,0.316-0.089
				c0.217-0.086,0.463-0.276,0.738-0.568c0.277-0.292,0.414-0.627,0.414-1.006c0-0.374-0.129-0.688-0.389-0.946
				c-0.26-0.257-0.576-0.385-0.95-0.385c-0.021,0-0.052,0.002-0.089,0.008H572.468z"/>
			<path fill="#F2961C" d="M581.104,221.281c0.481-0.52,1.279-0.779,2.395-0.779c1.12,0,2.051,0.371,2.792,1.112
				c0.898,0.904,1.348,1.994,1.348,3.271c0,1.271-0.449,2.358-1.348,3.259s-1.985,1.352-3.263,1.352
				c-1.271,0-2.359-0.449-3.264-1.348c-0.865-0.871-1.301-2.081-1.307-3.628v-0.024c0-1.532,0.414-2.879,1.242-4.042
				c0.833-1.169,1.959-2.551,3.377-4.147h2.207C583.32,218.34,581.927,219.998,581.104,221.281z M580.13,224.885
				c0,0.801,0.283,1.482,0.849,2.045c0.565,0.562,1.249,0.844,2.05,0.844c0.795,0,1.476-0.281,2.041-0.844
				c0.565-0.563,0.848-1.245,0.848-2.045s-0.282-1.483-0.848-2.046c-0.565-0.562-1.246-0.844-2.041-0.844
				c-0.801,0-1.484,0.281-2.05,0.844C580.413,223.402,580.13,224.084,580.13,224.885z"/>
			<path fill="#27515D" d="M501.852,236.253l4.724,12.987h-1.785l-1.672-4.594h-3.441l-1.664,4.594h-1.795l4.725-12.987H501.852z
				 M502.509,242.966l-1.111-3.044l-1.104,3.044H502.509z"/>
			<path fill="#27515D" d="M511.511,237.934v11.307h-1.688v-11.307h-3.028v-1.68h7.744v1.68H511.511z"/>
			<path fill="#27515D" d="M516.161,249.24v-12.987h1.681v11.298h4.643v1.688H516.161z"/>
			<path fill="#27515D" d="M529.254,236.253l4.724,12.987h-1.785l-1.672-4.594h-3.441l-1.664,4.594h-1.795l4.725-12.987H529.254z
				 M529.294,233.185h2.046l-2.208,2.265h-1.599L529.294,233.185z M529.911,242.966l-1.111-3.044l-1.104,3.044H529.911z"/>
			<path fill="#27515D" d="M535.602,236.253h1.534l5.357,9.269v-9.269h1.688v12.987h-1.469l-5.43-9.383v9.383h-1.681V236.253z"/>
			<path fill="#27515D" d="M550.521,237.934v11.307h-1.688v-11.307h-3.028v-1.68h7.744v1.68H550.521z"/>
			<path fill="#27515D" d="M557.014,236.253v12.987h-1.681v-12.987H557.014z"/>
			<path fill="#27515D" d="M569.668,246.147l1.259,1.128c-1.537,1.402-3.164,2.103-4.879,2.103c-1.834,0-3.398-0.647-4.691-1.94
				c-1.293-1.293-1.939-2.857-1.939-4.692c0-1.829,0.646-3.393,1.939-4.691s2.857-1.948,4.691-1.948
				c1.715,0,3.342,0.701,4.879,2.103l-1.259,1.145c-1.157-1.028-2.364-1.542-3.62-1.542c-1.358,0-2.52,0.482-3.486,1.445
				c-0.966,0.963-1.449,2.127-1.449,3.49c0,1.369,0.483,2.536,1.449,3.499c0.967,0.963,2.128,1.445,3.486,1.445
				C567.304,247.69,568.511,247.176,569.668,246.147z"/>
			<path fill="#27515D" d="M584.091,238.031c1.299,1.299,1.949,2.865,1.949,4.7s-0.65,3.401-1.949,4.7
				c-1.298,1.299-2.865,1.948-4.699,1.948s-3.4-0.649-4.699-1.948s-1.948-2.865-1.948-4.7s0.649-3.401,1.948-4.7
				s2.865-1.948,4.699-1.948S582.793,236.732,584.091,238.031z M579.392,237.779c-1.369,0-2.536,0.483-3.502,1.449
				c-0.967,0.966-1.449,2.133-1.449,3.502s0.484,2.538,1.453,3.506c0.969,0.969,2.135,1.453,3.498,1.453
				c1.369,0,2.537-0.484,3.502-1.453c0.967-0.968,1.449-2.137,1.449-3.506s-0.482-2.537-1.449-3.502
				C581.929,238.262,580.761,237.779,579.392,237.779z"/>
		</g>
	</g>
	<g>
		<g>
			<polyline fill="none" stroke="#FFFFFF" stroke-width="2" points="226.607,50.181 405.947,185.55 486.537,185.55 			"/>
			<g>
				<circle fill="#FFFFFF" cx="226.698" cy="50.249" r="2.256"/>
			</g>
		</g>
	</g>
</g>
</svg>
