<?xml version="1.0" encoding="utf-8"?>
<!-- Generator: Adobe Illustrator 16.0.0, SVG Export Plug-In . SVG Version: 6.00 Build 0)  -->
<!DOCTYPE svg PUBLIC "-//W3C//DTD SVG 1.1//EN" "http://www.w3.org/Graphics/SVG/1.1/DTD/svg11.dtd">
<svg version="1.1" id="Capa_1" xmlns="http://www.w3.org/2000/svg" xmlns:xlink="http://www.w3.org/1999/xlink" x="0px" y="0px"
	 width="734.338px" height="413.177px" viewBox="0 0 734.338 413.177" enable-background="new 0 0 734.338 413.177"
	 xml:space="preserve">
<g>
	<g>
		<g>
			<path fill="none" d="M298.219,12.163l0.084-0.013c0.059-0.009,0.121,0.013,0.158,0.059c0.039,0.046,0.053,0.11,0.033,0.167
				l-0.111,0.337l0.078,0.117l0.076,0.065c0.006-0.048,0.031-0.092,0.07-0.123l0.139-0.104l0.43-0.243l-0.115-0.049
				c-0.076-0.032-0.119-0.113-0.104-0.194l0.037-0.174v-0.001l-0.09,0.089c-0.055,0.054-0.139,0.066-0.205,0.03
				c-0.068-0.036-0.104-0.112-0.09-0.187l0.033-0.154L298.219,12.163z"/>
			<polygon fill="none" points="298.748,13.215 298.793,13.146 298.715,13.107 			"/>
			<polygon fill="#A0C219" points="298.406,11.485 298.182,11.731 298.557,11.397 			"/>
			<path fill="#F39200" d="M258.68,90.059l-0.398,0.704l0.098,0.847c0.002,0.012,0.002,0.024,0,0.037l-0.311,3.247l0.102,0.92v0.193
				c0,0.015,0,0.03-0.004,0.044l-0.162,0.615l0.301,1.138l0.172,0.548l0.041,0.271c0.004,0.031,0,0.063-0.014,0.092l-0.104,0.244
				c-0.01,0.022-0.025,0.044-0.043,0.061l-0.348,0.312l-0.596,0.389l-0.102,0.101l-0.037,0.094l0.061,0.333
				c0.006,0.032,0.002,0.065-0.012,0.096l-0.068,0.173c-0.008,0.022-0.021,0.042-0.039,0.059l-0.242,0.244l-0.848,0.673l-0.322,0.29
				l-0.301,0.467l-0.121,0.242l-0.061,0.273v0.433l0.223,0.541l0.65,0.922c0.006,0.01,0.012,0.021,0.018,0.032l0.426,1.018
				l0.082,0.041c0.031,0.016,0.057,0.041,0.074,0.072l0.174,0.312c0.023,0.04,0.027,0.087,0.016,0.13l-0.277,1.008
				c-0.008,0.025-0.02,0.049-0.039,0.069l-0.523,0.59l-0.01,0.043l0.393,0.053c0.014,0.001,0.027,0.005,0.041,0.01l0.348,0.139
				c0.014,0.005,0.027,0.013,0.039,0.022l0.482,0.344c0.041,0.029,0.066,0.072,0.072,0.121l0.062,0.489l0.08,0.069l0.305-0.459
				c0.01-0.016,0.023-0.028,0.037-0.04l0.615-0.493l-0.119-0.78l-0.164-0.36l-0.113-0.409c-0.01-0.035-0.008-0.072,0.006-0.106
				l0.104-0.277c0.021-0.059,0.072-0.101,0.133-0.111l0.209-0.035c0.016-0.002,0.031-0.002,0.047-0.001l0.871,0.105
				c0.029,0.003,0.057,0.014,0.08,0.031l0.424,0.318c0.039,0.031,0.062,0.075,0.064,0.124l0.07,1.042
				c0.002,0.017,0,0.032-0.004,0.048l-0.312,1.494c-0.002,0.012-0.006,0.024-0.012,0.036l-0.383,0.834l-0.162,0.665
				c-0.004,0.016-0.012,0.034-0.021,0.048l-0.268,0.436l-0.162,0.453l-0.066,0.503l0.1,1.722l0.242,0.16
				c0.027,0.019,0.049,0.044,0.062,0.076l0.348,0.799c0.008,0.017,0.012,0.035,0.014,0.053l0.035,0.382l-0.033,0.583l0.082,0.247
				l0.244,0.271l0.939,0.098c0.049,0.005,0.092,0.03,0.123,0.068l0.285,0.382l0.342,0.155c0.049,0.022,0.086,0.067,0.098,0.121
				l0.07,0.312c0.004,0.019,0.004,0.038,0.002,0.057l-0.035,0.313l-0.072,0.332c-0.004,0.023-0.016,0.046-0.031,0.065l-0.312,0.417
				l-0.215,0.252c-0.008,0.01-0.018,0.018-0.027,0.026l-0.277,0.208c-0.012,0.009-0.025,0.016-0.037,0.021l-0.395,0.164
				l-0.117,0.094l-0.088,0.232l-0.092,0.37l0.066,0.806l-0.033,0.513c-0.002,0.012-0.004,0.024-0.008,0.036l-0.068,0.243
				l-0.115,0.239l-0.537,0.721l-0.199,0.333c-0.008,0.012-0.016,0.023-0.027,0.034l-0.277,0.277l-0.229,0.296l-0.369,0.335
				l-0.469,0.327l-0.752,0.361l-0.312,0.081c-0.021,0.005-0.045,0.007-0.07,0.002l-0.207-0.034
				c-0.016-0.002-0.027-0.007-0.041-0.012l-0.242-0.104c-0.014-0.006-0.027-0.013-0.037-0.021l-0.453-0.348l-0.133-0.079
				l-0.426-0.098c-0.031-0.007-0.061-0.023-0.084-0.046l-0.172-0.174l-0.268-0.3l-0.15-0.091l-0.207-0.086l-0.32-0.064l0.227,0.272
				l0.381,0.312l0.537,0.269c0.014,0.006,0.025,0.015,0.037,0.024l0.557,0.486l0.605,0.675c0.01,0.011,0.018,0.024,0.025,0.039
				l0.07,0.139c0.01,0.024,0.018,0.051,0.018,0.078v0.159l0,0l0.24,0.393l0.145,0.144l0.33,0.198l0.322,0.126l0.426,0.096
				l1.27,0.171c0.021,0.003,0.045,0.011,0.064,0.021l0.416,0.244c0.033,0.019,0.057,0.048,0.072,0.082l0.072,0.167l0.162,0.045
				l0.432,0.065l0.73-0.037l1.006,0.093l0.021-0.053l0.236-1.051c0.004-0.019,0.01-0.037,0.021-0.054l0.348-0.555
				c0.01-0.017,0.021-0.03,0.035-0.042l0.209-0.174c0.021-0.019,0.049-0.031,0.076-0.037l0.174-0.035
				c0.02-0.003,0.037-0.003,0.057-0.001l0.277,0.035c0.016,0.002,0.029,0.006,0.043,0.012l0.311,0.123l0.41-0.032
				c0.014-0.001,0.025,0,0.037,0.001l0.73,0.104l0.496-0.002l0.268,0.036c0.016,0.003,0.031,0.006,0.045,0.013l0.215,0.092
				l0.525,0.034c0.014,0,0.027,0.003,0.039,0.006l0.268,0.081l0.174-0.125c0.014-0.011,0.031-0.02,0.049-0.024l0.451-0.14
				c0.029-0.007,0.059-0.01,0.088-0.004l0.832,0.174c0.049,0.011,0.09,0.039,0.113,0.08c0.025,0.042,0.033,0.092,0.02,0.138
				l-0.07,0.243l-0.025,0.188l0.168,0.734l0.094,0.278l0.182,0.304l1.643,1.3c0.033,0.025,0.055,0.062,0.062,0.103l0.07,0.348
				c0.004,0.022,0.004,0.047-0.002,0.071l-0.059,0.268l0.119,0.385l0.682,1.056l0.229,0.258c0.02,0.024,0.033,0.054,0.039,0.085
				l0.02,0.117l0.227,0.101c0.064,0.029,0.105,0.093,0.104,0.164l-0.035,1.319c-0.002,0.039-0.016,0.077-0.039,0.107l-0.783,0.94
				l0.566,0.807l0.102,0.075l0.225,0.096c0.049,0.022,0.088,0.067,0.1,0.122l0.068,0.312c0.006,0.019,0.006,0.037,0.004,0.055
				l-0.031,0.31l0.127,0.382c0.016,0.046,0.012,0.096-0.012,0.139l-0.174,0.312l-0.285,0.429l-0.818,1.277l0.086,0.214l0.059,0.04
				l0.576,0.254l0.496,0.066l0.609,0.142c0.016,0.003,0.033,0.011,0.049,0.02l0.174,0.104c0.016,0.009,0.029,0.021,0.041,0.034
				l0.225,0.259l0.258,0.161l0.557,0.462l0.455-0.228c0.012-0.006,0.021-0.01,0.035-0.013l0.139-0.035
				c0.014-0.004,0.027-0.005,0.041-0.005h0.279l0.293-0.034c0.029-0.004,0.057,0,0.084,0.011l0.174,0.069
				c0.043,0.017,0.076,0.051,0.096,0.093l0.104,0.243l0.059,0.189l0.15-0.274c0.021-0.039,0.057-0.066,0.098-0.081l0.104-0.035
				c0.029-0.009,0.059-0.011,0.09-0.005l0.486,0.097l0.625-0.132l0.211-0.093c0.016-0.007,0.031-0.012,0.049-0.014l0.312-0.034
				c0.016-0.002,0.033-0.001,0.051,0.001l0.381,0.07c0.055,0.01,0.102,0.044,0.125,0.093l0.213,0.462
				c0.006,0.015,0.012,0.03,0.012,0.047l0.105,0.943c0.002,0.013,0.002,0.028-0.002,0.042l-0.1,0.667l0.074,0.441l0.242-0.019
				l0.084-0.062l0.184-0.216l0.166-0.296c0.035-0.065,0.107-0.1,0.182-0.087l0.59,0.104c0.02,0.003,0.037,0.01,0.053,0.019
				l1.297,0.717l0.465,0.093l0.354-0.059l0.371-0.217l0.611-0.577l0.262-0.33l0.225-0.319l0.236-0.639l0.424-0.852
				c0.035-0.073,0.121-0.111,0.199-0.089l0.521,0.138c0.055,0.014,0.098,0.054,0.117,0.106l0.156,0.405l0.029,0.022l0.135-0.039
				l0.186-0.124l0.316-0.349l0.061-0.304c0.004-0.015,0.01-0.03,0.016-0.044l0.104-0.208c0.01-0.017,0.02-0.033,0.033-0.045
				l0.141-0.139c0.018-0.018,0.039-0.032,0.062-0.041l0.486-0.174c0.021-0.006,0.041-0.012,0.062-0.01l1.91,0.035
				c0.014,0,0.027,0.001,0.041,0.006l0.66,0.173l0.469,0.18l0.434,0.231h0.299l-0.348-0.282l-0.299-0.199l-0.6-0.263l-0.299-0.186
				c-0.018-0.01-0.029-0.021-0.041-0.035l-0.418-0.485c-0.008-0.011-0.016-0.021-0.02-0.034l-1.287-2.466l-0.252-0.718l-0.18-0.673
				l-0.072-0.722c-0.002-0.015-0.002-0.03,0-0.045l0.035-0.209l0.199-0.934l-0.002-0.008l-0.096-0.072
				c-0.012-0.01-0.023-0.021-0.033-0.033l-0.764-0.995l-0.719-0.188l-1.887,0.036l-1.18-0.212l-1.033-0.354
				c-0.016-0.005-0.029-0.013-0.043-0.022l-0.869-0.626c-0.02-0.014-0.037-0.032-0.047-0.052l-0.627-1.042
				c-0.01-0.018-0.018-0.038-0.021-0.058l-0.104-0.556c-0.006-0.03-0.004-0.061,0.006-0.09l0.348-0.973l0.092-0.467l-0.064-0.421
				l-0.305-0.873l-0.078-0.519c-0.002-0.013-0.002-0.026-0.002-0.039l0.209-2.466c0.002-0.013,0.004-0.025,0.008-0.037l0.451-1.459
				l0.061-0.374l-0.066-0.987l-0.092-0.354l-0.154-0.217l-0.48-0.581c-0.008-0.01-0.016-0.021-0.021-0.032l-0.104-0.209
				c-0.021-0.043-0.023-0.093-0.006-0.139l0.104-0.278c0.012-0.034,0.035-0.062,0.064-0.083l0.209-0.139l0.488-0.212l0.326-0.294
				l0.252-0.284l0.186-0.344l0.102-0.429c0.002-0.017,0.01-0.033,0.02-0.049l0.24-0.417c0.027-0.044,0.07-0.075,0.123-0.083
				l0.416-0.069c0.02-0.004,0.041-0.003,0.062,0l0.521,0.104l0.256-0.002l0.299-0.434l-0.031-0.821l-0.514-1.575l-0.754-1.433
				c-0.006-0.012-0.012-0.025-0.014-0.038l-0.141-0.556c-0.004-0.019-0.004-0.038-0.004-0.058l0.035-0.382l0.215-0.794l0.027-0.328
				l-0.066-0.359l-0.125-0.368l-0.229-0.328l-0.26-0.254l-0.158-0.103l-0.43-0.132c-0.023-0.007-0.043-0.02-0.062-0.036
				l-0.277-0.243l-2.41-2.583l-2.26-2.467l-0.506-0.826c-0.008-0.015-0.016-0.031-0.02-0.047l-1.043-4.065l-1.447-5.554
				l-0.357-0.421c-0.047-0.055-0.055-0.134-0.02-0.197l0.273-0.485l-0.055-0.148l-0.334-0.212l-0.34-0.312l-0.059,0.068
				c-0.033,0.039-0.082,0.063-0.133,0.063h-0.174c-0.02,0-0.037-0.004-0.055-0.009l-0.209-0.07l-0.201-0.021l-0.238,0.089
				l-0.146,0.09l-0.793,0.518c-0.012,0.008-0.023,0.013-0.037,0.018l-0.486,0.174c-0.031,0.012-0.064,0.013-0.098,0.006
				l-0.451-0.104c-0.041-0.01-0.078-0.034-0.102-0.069l-0.418-0.591c-0.014-0.019-0.023-0.042-0.027-0.066l-0.105-0.521
				c-0.002-0.013-0.004-0.027-0.002-0.04l0.033-0.973l-0.061-0.51l-0.242-0.272c-0.01-0.011-0.02-0.024-0.025-0.038l-0.105-0.208
				c-0.02-0.042-0.023-0.089-0.008-0.133l0.086-0.258l-0.252-0.757l-0.072-0.106l-0.393,0.025l-0.963,0.895
				c-0.008,0.009-0.018,0.015-0.029,0.022l-0.52,0.313c-0.014,0.007-0.027,0.013-0.041,0.018l-0.566,0.166l-0.393,0.263
				l-0.775,0.746c-0.014,0.012-0.027,0.022-0.043,0.03l-0.834,0.417c-0.02,0.009-0.039,0.016-0.059,0.017l-0.975,0.104l-2.566,0.07
				l-1.006,0.234L258.68,90.059z"/>
		</g>
	</g>
	<g>
		<g>
			<g>
				<g>
					<path fill="#FFFFFF" d="M513.705,134.903v28.459h-6.486l-3.85-12.938v12.938h-6.188v-28.459h6.188l4.148,12.814v-12.814
						H513.705z"/>
					<path fill="#FFFFFF" d="M533.586,151.567c0,2.859-0.067,4.884-0.202,6.073s-0.557,2.276-1.266,3.261s-1.667,1.74-2.874,2.268
						s-2.613,0.791-4.219,0.791c-1.523,0-2.892-0.249-4.104-0.747s-2.188-1.245-2.927-2.241s-1.178-2.08-1.318-3.252
						s-0.211-3.223-0.211-6.152v-4.869c0-2.859,0.067-4.884,0.202-6.073s0.557-2.276,1.266-3.261s1.667-1.74,2.874-2.268
						s2.613-0.791,4.219-0.791c1.523,0,2.892,0.249,4.104,0.747s2.188,1.245,2.927,2.241s1.178,2.08,1.318,3.252
						s0.211,3.223,0.211,6.152V151.567z M526.186,142.216c0-1.324-0.073-2.171-0.22-2.54s-0.448-0.554-0.905-0.554
						c-0.387,0-0.683,0.149-0.888,0.448s-0.308,1.181-0.308,2.646v13.289c0,1.652,0.067,2.672,0.202,3.059s0.448,0.58,0.94,0.58
						c0.504,0,0.826-0.223,0.967-0.668s0.211-1.506,0.211-3.182V142.216z"/>
					<path fill="#FFFFFF" d="M536.346,134.903h5.238c3.492,0,5.856,0.135,7.093,0.404s2.244,0.958,3.023,2.065
						s1.169,2.874,1.169,5.3c0,2.215-0.275,3.703-0.826,4.465s-1.635,1.219-3.252,1.371c1.465,0.363,2.449,0.85,2.953,1.459
						s0.817,1.169,0.94,1.679s0.185,1.913,0.185,4.21v7.506h-6.873v-9.457c0-1.523-0.12-2.467-0.36-2.83s-0.87-0.545-1.89-0.545
						v12.832h-7.4V134.903z M543.746,139.772v6.328c0.832,0,1.415-0.114,1.749-0.343s0.501-0.97,0.501-2.224v-1.564
						c0-0.902-0.161-1.494-0.483-1.775S544.602,139.772,543.746,139.772z"/>
					<path fill="#FFFFFF" d="M570.641,134.903v5.695h-4.395v22.764h-7.4v-22.764h-4.377v-5.695H570.641z"/>
					<path fill="#FFFFFF" d="M572.328,134.903h12.34v5.695h-4.939v5.396h4.623v5.414h-4.623v6.258h5.432v5.695h-12.832V134.903z"/>
					<path fill="#FFFFFF" d="M593.633,134.903h5.537c3.574,0,5.991,0.164,7.251,0.492s2.218,0.867,2.874,1.617
						s1.066,1.585,1.23,2.505s0.246,2.728,0.246,5.423v9.967c0,2.555-0.12,4.263-0.36,5.124s-0.659,1.535-1.257,2.021
						s-1.336,0.826-2.215,1.02s-2.203,0.29-3.973,0.29h-9.334V134.903z M601.033,139.772v18.721c1.066,0,1.723-0.214,1.969-0.642
						s0.369-1.591,0.369-3.489v-11.057c0-1.289-0.041-2.115-0.123-2.479s-0.27-0.63-0.562-0.8S601.842,139.772,601.033,139.772z"/>
					<path fill="#FFFFFF" d="M613.531,134.903h12.34v5.695h-4.939v5.396h4.623v5.414h-4.623v6.258h5.432v5.695h-12.832V134.903z"/>
					<path fill="#FFFFFF" d="M512.861,186.717h-6.873v-2.109c0-0.984-0.088-1.611-0.264-1.881s-0.469-0.404-0.879-0.404
						c-0.445,0-0.782,0.182-1.011,0.545s-0.343,0.915-0.343,1.653c0,0.95,0.128,1.666,0.385,2.146
						c0.246,0.481,0.942,1.061,2.091,1.74c3.294,1.955,5.369,3.56,6.225,4.813s1.283,3.275,1.283,6.064
						c0,2.027-0.237,3.521-0.712,4.482s-1.392,1.767-2.751,2.417s-2.941,0.976-4.746,0.976c-1.98,0-3.671-0.375-5.071-1.125
						s-2.317-1.705-2.751-2.865s-0.65-2.807-0.65-4.939v-1.863h6.873v3.463c0,1.066,0.097,1.752,0.29,2.057s0.536,0.457,1.028,0.457
						s0.858-0.193,1.099-0.58s0.36-0.961,0.36-1.723c0-1.676-0.229-2.771-0.686-3.287c-0.469-0.516-1.623-1.377-3.463-2.584
						c-1.84-1.219-3.059-2.104-3.656-2.654s-1.093-1.312-1.485-2.285s-0.589-2.215-0.589-3.727c0-2.18,0.278-3.773,0.835-4.781
						s1.456-1.796,2.698-2.364s2.742-0.853,4.5-0.853c1.922,0,3.56,0.311,4.913,0.932s2.25,1.403,2.689,2.347
						s0.659,2.546,0.659,4.808V186.717z"/>
					<path fill="#FFFFFF" d="M528.589,178.104l4.232,28.459h-7.563l-0.397-5.115h-2.647l-0.445,5.115h-7.651l3.775-28.459H528.589z
						 M524.667,196.402c-0.375-3.224-0.75-7.208-1.127-11.953c-0.754,5.45-1.228,9.434-1.42,11.953H524.667z"/>
					<path fill="#FFFFFF" d="M550.602,178.104v28.459h-6.486l-3.85-12.938v12.938h-6.188v-28.459h6.188l4.148,12.814v-12.814
						H550.602z"/>
					<path fill="#FFFFFF" d="M568.479,178.104v5.695h-4.395v22.764h-7.4v-22.764h-4.377v-5.695H568.479z"/>
					<path fill="#FFFFFF" d="M582.958,178.104l4.232,28.459h-7.563l-0.397-5.115h-2.647l-0.445,5.115h-7.651l3.775-28.459H582.958z
						 M579.036,196.402c-0.375-3.224-0.75-7.208-1.127-11.953c-0.754,5.45-1.228,9.434-1.42,11.953H579.036z"/>
					<path fill="#FFFFFF" d="M604.971,178.104v28.459h-6.486l-3.85-12.938v12.938h-6.188v-28.459h6.188l4.148,12.814v-12.814
						H604.971z"/>
					<path fill="#FFFFFF" d="M607.941,178.104h5.537c3.574,0,5.991,0.164,7.251,0.492s2.218,0.867,2.874,1.617
						s1.066,1.585,1.23,2.505s0.246,2.728,0.246,5.423v9.967c0,2.555-0.12,4.263-0.36,5.124s-0.659,1.535-1.257,2.021
						s-1.336,0.826-2.215,1.02s-2.203,0.29-3.973,0.29h-9.334V178.104z M615.342,182.973v18.721c1.066,0,1.723-0.214,1.969-0.642
						s0.369-1.591,0.369-3.489v-11.057c0-1.289-0.041-2.115-0.123-2.479s-0.27-0.63-0.562-0.8S616.15,182.973,615.342,182.973z"/>
					<path fill="#FFFFFF" d="M627.84,178.104h12.34v5.695h-4.939v5.396h4.623v5.414h-4.623v6.258h5.432v5.695H627.84V178.104z"/>
					<path fill="#FFFFFF" d="M642.799,178.104h5.238c3.492,0,5.856,0.135,7.093,0.404s2.244,0.958,3.023,2.065
						s1.169,2.874,1.169,5.3c0,2.215-0.275,3.703-0.826,4.465s-1.635,1.219-3.252,1.371c1.465,0.363,2.449,0.85,2.953,1.459
						s0.817,1.169,0.94,1.679s0.185,1.913,0.185,4.21v7.506h-6.873v-9.457c0-1.523-0.12-2.467-0.36-2.83s-0.87-0.545-1.89-0.545
						v12.832h-7.4V178.104z M650.199,182.973v6.328c0.832,0,1.415-0.114,1.749-0.343s0.501-0.97,0.501-2.224v-1.564
						c0-0.902-0.161-1.494-0.483-1.775S651.055,182.973,650.199,182.973z"/>
				</g>
			</g>
		</g>
	</g>
	<g>
		<g>
			<path fill="#F2961C" d="M498.126,225.136v4.156h-1.68v-12.987h3.685c1.044,0.141,1.926,0.571,2.646,1.291
				c0.86,0.866,1.291,1.905,1.291,3.117c0,1.223-0.43,2.266-1.291,3.129c-0.86,0.863-1.899,1.295-3.117,1.295H498.126z
				 M498.126,217.993v5.455h1.534c0.747,0,1.387-0.267,1.92-0.799c0.533-0.533,0.799-1.178,0.799-1.936
				c0-0.752-0.267-1.393-0.799-1.924c-0.533-0.53-1.173-0.795-1.92-0.795H498.126z"/>
			<path fill="#F2961C" d="M512.355,226.427l1.68,0.601c-0.412,0.568-0.709,0.944-0.893,1.128c-0.904,0.904-1.994,1.355-3.271,1.355
				c-1.272,0-2.359-0.452-3.263-1.355s-1.355-1.994-1.355-3.271c0-1.277,0.452-2.368,1.355-3.271
				c0.904-0.903,1.991-1.355,3.263-1.355c1.277,0,2.367,0.452,3.271,1.355c0.184,0.184,0.481,0.555,0.893,1.112l-1.68,0.617
				c-0.217-0.265-0.363-0.436-0.438-0.511c-0.563-0.563-1.245-0.844-2.045-0.844c-0.795,0-1.476,0.283-2.042,0.848
				s-0.848,1.249-0.848,2.05c0,0.795,0.283,1.476,0.848,2.041s1.246,0.848,2.042,0.848c0.801,0,1.485-0.281,2.054-0.844
				C511.995,226.854,512.139,226.687,512.355,226.427z"/>
			<path fill="#F2961C" d="M517.217,216.305c2.11,0.011,3.755,0.608,4.935,1.793c1.293,1.304,1.94,2.871,1.94,4.7
				c0,1.834-0.646,3.401-1.94,4.7c-1.18,1.185-2.825,1.783-4.935,1.794h-1.233v-12.987H517.217z M517.664,218.018v9.57
				c1.336,0,2.432-0.43,3.287-1.291c0.963-0.963,1.445-2.129,1.445-3.499c0-1.363-0.482-2.529-1.445-3.498
				C520.096,218.445,519,218.018,517.664,218.018z"/>
			<path fill="#F2961C" d="M535.521,222.604l-1.015-0.024v-1.664c0.736-0.011,1.22-0.061,1.453-0.15
				c0.232-0.089,0.487-0.28,0.763-0.572c0.276-0.292,0.414-0.627,0.414-1.006c0-0.374-0.13-0.688-0.389-0.946
				c-0.26-0.257-0.577-0.385-0.95-0.385c-0.368,0-0.682,0.127-0.942,0.381c-0.146,0.151-0.314,0.481-0.503,0.99l-1.567-0.617
				c0.233-0.73,0.517-1.255,0.853-1.575c0.601-0.595,1.32-0.893,2.159-0.893c0.855,0,1.58,0.3,2.175,0.901
				c0.595,0.601,0.893,1.315,0.893,2.143c0,0.844-0.5,1.659-1.501,2.443c0.481,0.032,0.987,0.306,1.518,0.819
				c0.774,0.833,1.161,1.808,1.161,2.922c0,1.125-0.396,2.087-1.189,2.886c-0.792,0.798-1.754,1.197-2.885,1.197
				c-1.12,0-2.078-0.4-2.874-1.201c-0.633-0.638-1.036-1.523-1.209-2.654l1.68-0.608c0.098,0.974,0.344,1.658,0.739,2.053
				c0.465,0.46,1.02,0.69,1.664,0.69c0.654,0,1.213-0.23,1.676-0.69c0.463-0.459,0.694-1.017,0.694-1.672
				c0-0.66-0.231-1.242-0.694-1.745C537.181,223.123,536.473,222.782,535.521,222.604z"/>
			<path fill="#F2961C" d="M546.137,222.604l-1.015-0.024v-1.664c0.736-0.011,1.22-0.061,1.453-0.15
				c0.232-0.089,0.487-0.28,0.763-0.572c0.276-0.292,0.414-0.627,0.414-1.006c0-0.374-0.13-0.688-0.389-0.946
				c-0.26-0.257-0.577-0.385-0.95-0.385c-0.368,0-0.682,0.127-0.942,0.381c-0.146,0.151-0.314,0.481-0.503,0.99l-1.567-0.617
				c0.233-0.73,0.517-1.255,0.853-1.575c0.601-0.595,1.32-0.893,2.159-0.893c0.855,0,1.58,0.3,2.175,0.901
				c0.595,0.601,0.893,1.315,0.893,2.143c0,0.844-0.5,1.659-1.501,2.443c0.481,0.032,0.987,0.306,1.518,0.819
				c0.774,0.833,1.161,1.808,1.161,2.922c0,1.125-0.396,2.087-1.189,2.886c-0.792,0.798-1.754,1.197-2.885,1.197
				c-1.12,0-2.078-0.4-2.874-1.201c-0.633-0.638-1.036-1.523-1.209-2.654l1.68-0.608c0.098,0.974,0.344,1.658,0.739,2.053
				c0.465,0.46,1.02,0.69,1.664,0.69c0.654,0,1.213-0.23,1.676-0.69c0.463-0.459,0.694-1.017,0.694-1.672
				c0-0.66-0.231-1.242-0.694-1.745C547.797,223.123,547.09,222.782,546.137,222.604z"/>
			<path fill="#F2961C" d="M554.713,227.385c0.23,0.227,0.345,0.503,0.345,0.828c0,0.335-0.115,0.617-0.345,0.844
				c-0.23,0.227-0.507,0.341-0.832,0.341c-0.319,0-0.595-0.114-0.828-0.341c-0.232-0.228-0.349-0.509-0.349-0.844
				c0-0.325,0.117-0.601,0.349-0.828c0.233-0.228,0.509-0.341,0.828-0.341C554.206,227.043,554.483,227.157,554.713,227.385z"/>
			<path fill="#F2961C" d="M563.13,221.211c-1.345,1.507-2.385,2.783-3.121,3.827c-0.736,1.044-1.131,2.462-1.185,4.253h-1.713
				c0.065-2.213,0.514-3.903,1.348-5.069c0.833-1.166,1.826-2.395,2.979-3.685c1.152-1.291,1.772-2.142,1.858-2.553h-6.168v-1.68
				h8.076C565.166,218.069,564.475,219.705,563.13,221.211z"/>
			<path fill="#F2961C" d="M570.107,219.812c0.303-0.065,0.619-0.098,0.949-0.098c0.606,0,1.188,0.098,1.745,0.292
				c1.25,0.427,2.181,1.217,2.792,2.37c0.384,0.714,0.576,1.45,0.576,2.208c0,0.471-0.073,0.942-0.219,1.413
				c-0.384,1.255-1.152,2.194-2.305,2.816c-0.703,0.374-1.431,0.56-2.183,0.56c-0.477,0-0.958-0.076-1.445-0.227
				c-1.007-0.309-1.878-0.963-2.614-1.964l1.185-1.315c0.601,0.888,1.245,1.434,1.932,1.64c0.314,0.097,0.62,0.146,0.917,0.146
				c0.476,0,0.941-0.119,1.396-0.357c0.741-0.395,1.234-0.996,1.477-1.802c0.098-0.308,0.146-0.614,0.146-0.917
				c0-0.471-0.122-0.936-0.365-1.396c-0.401-0.747-1.007-1.261-1.818-1.542c-0.352-0.125-0.741-0.187-1.169-0.187
				c-0.579,0-1.32,0.144-2.224,0.43l-1.015-0.885l1.461-4.034v-0.657h4.756v1.68h-3.336L570.107,219.812z"/>
			<path fill="#F2961C" d="M584.051,216.305h1.469v7.8h1.145v1.68h-1.145v3.506h-1.68v-3.506h-5.316L584.051,216.305z
				 M583.84,220.096l-2.395,4.01h2.395V220.096z"/>
			<path fill="#27515D" d="M496.446,236.253h1.534l5.357,9.269v-9.269h1.688v12.987h-1.469l-5.43-9.383v9.383h-1.68V236.253z"/>
			<path fill="#27515D" d="M518.605,238.031c1.299,1.299,1.948,2.865,1.948,4.7s-0.649,3.401-1.948,4.7
				c-1.298,1.299-2.865,1.948-4.7,1.948c-1.834,0-3.401-0.649-4.699-1.948c-1.299-1.299-1.948-2.865-1.948-4.7
				s0.649-3.401,1.948-4.7c1.298-1.299,2.865-1.948,4.699-1.948C515.74,236.083,517.307,236.732,518.605,238.031z M513.905,237.779
				c-1.369,0-2.536,0.483-3.502,1.449c-0.966,0.966-1.449,2.133-1.449,3.502s0.484,2.538,1.453,3.506
				c0.968,0.969,2.135,1.453,3.498,1.453c1.369,0,2.537-0.484,3.502-1.453c0.966-0.968,1.449-2.137,1.449-3.506
				s-0.483-2.537-1.449-3.502C516.442,238.262,515.274,237.779,513.905,237.779z"/>
			<path fill="#27515D" d="M526.007,245.084h-1.534v4.156h-1.68v-12.987h3.685c1.044,0.141,1.926,0.571,2.646,1.291
				c0.86,0.866,1.291,1.905,1.291,3.117c0,1.223-0.43,2.268-1.291,3.133c-0.595,0.595-1.05,0.931-1.364,1.006l2.881,4.44h-2.037
				L526.007,245.084z M524.474,237.941v5.455h1.534c0.747,0,1.387-0.267,1.92-0.799c0.533-0.533,0.799-1.178,0.799-1.936
				c0-0.752-0.267-1.393-0.799-1.924c-0.533-0.53-1.173-0.795-1.92-0.795H524.474z"/>
			<path fill="#27515D" d="M536.324,237.934v11.307h-1.688v-11.307h-3.028v-1.68h7.744v1.68H536.324z"/>
			<path fill="#27515D" d="M547.972,236.253v1.68h-5.316v3.969h5.316v1.681h-5.316v3.969h5.316v1.688h-6.997v-12.987H547.972z"/>
			<path fill="#27515D" d="M557.185,236.253c2.11,0.011,3.755,0.608,4.935,1.793c1.293,1.304,1.94,2.871,1.94,4.7
				c0,1.834-0.646,3.401-1.94,4.7c-1.18,1.185-2.825,1.783-4.935,1.794h-1.233v-12.987H557.185z M557.631,237.966v9.57
				c1.336,0,2.432-0.43,3.287-1.291c0.963-0.963,1.445-2.129,1.445-3.499c0-1.363-0.482-2.529-1.445-3.498
				C560.063,238.394,558.968,237.966,557.631,237.966z"/>
			<path fill="#27515D" d="M573.094,236.253v1.68h-5.316v3.969h5.316v1.681h-5.316v3.969h5.316v1.688h-6.997v-12.987H573.094z"/>
			<path fill="#27515D" d="M584.376,242.576c-0.92-0.308-1.665-0.748-2.236-1.319c-0.571-0.571-0.856-1.278-0.856-2.123
				c0-0.828,0.296-1.54,0.889-2.135c0.592-0.595,1.311-0.893,2.155-0.893c0.833,0,1.548,0.295,2.143,0.885
				c0.335,0.325,0.617,0.842,0.844,1.55l-1.526,0.601c-0.184-0.498-0.352-0.823-0.503-0.974c-0.265-0.26-0.584-0.39-0.958-0.39
				c-0.378,0-0.701,0.131-0.966,0.394c-0.265,0.263-0.397,0.583-0.397,0.962s0.132,0.701,0.397,0.966
				c0.298,0.292,0.709,0.56,1.234,0.804c1.017,0.33,1.88,0.85,2.589,1.558c0.795,0.785,1.193,1.737,1.193,2.857
				s-0.396,2.077-1.189,2.869c-0.792,0.793-1.747,1.189-2.861,1.189c-1.12,0-2.075-0.398-2.865-1.193
				c-0.633-0.633-1.033-1.507-1.201-2.622l1.631-0.593c0.103,0.958,0.354,1.637,0.755,2.038c0.465,0.465,1.025,0.698,1.68,0.698
				s1.215-0.232,1.681-0.698c0.465-0.465,0.698-1.028,0.698-1.688c0-0.655-0.232-1.215-0.698-1.68
				C585.564,243.196,585.02,242.841,584.376,242.576z"/>
			<path fill="#27515D" d="M594.831,236.253l4.724,12.987h-1.786l-1.672-4.594h-3.441l-1.664,4.594h-1.794l4.724-12.987H594.831z
				 M595.488,242.966l-1.112-3.044l-1.104,3.044H595.488z"/>
			<path fill="#27515D" d="M601.178,236.253h1.534l5.357,9.269v-9.269h1.688v12.987h-1.469l-5.43-9.383v9.383h-1.68V236.253z"/>
			<path fill="#27515D" d="M616.097,237.934v11.307h-1.688v-11.307h-3.028v-1.68h7.744v1.68H616.097z"/>
			<path fill="#27515D" d="M624.977,236.253l4.724,12.987h-1.786l-1.672-4.594h-3.441l-1.664,4.594h-1.794l4.724-12.987H624.977z
				 M625.634,242.966l-1.112-3.044l-1.104,3.044H625.634z"/>
			<path fill="#27515D" d="M631.324,236.253h1.534l5.357,9.269v-9.269h1.688v12.987h-1.469l-5.43-9.383v9.383h-1.68V236.253z"/>
			<path fill="#27515D" d="M643.572,236.253c2.11,0.011,3.755,0.608,4.935,1.793c1.293,1.304,1.94,2.871,1.94,4.7
				c0,1.834-0.646,3.401-1.94,4.7c-1.18,1.185-2.825,1.783-4.935,1.794h-1.233v-12.987H643.572z M644.019,237.966v9.57
				c1.336,0,2.432-0.43,3.287-1.291c0.963-0.963,1.445-2.129,1.445-3.499c0-1.363-0.482-2.529-1.445-3.498
				C646.451,238.394,645.355,237.966,644.019,237.966z"/>
			<path fill="#27515D" d="M659.481,236.253v1.68h-5.316v3.969h5.316v1.681h-5.316v3.969h5.316v1.688h-6.997v-12.987H659.481z"/>
			<path fill="#27515D" d="M664.928,245.084h-1.534v4.156h-1.68v-12.987h3.685c1.044,0.141,1.926,0.571,2.646,1.291
				c0.86,0.866,1.291,1.905,1.291,3.117c0,1.223-0.43,2.268-1.291,3.133c-0.595,0.595-1.05,0.931-1.364,1.006l2.881,4.44h-2.037
				L664.928,245.084z M663.394,237.941v5.455h1.534c0.747,0,1.387-0.267,1.92-0.799c0.533-0.533,0.799-1.178,0.799-1.936
				c0-0.752-0.267-1.393-0.799-1.924c-0.533-0.53-1.173-0.795-1.92-0.795H663.394z"/>
		</g>
	</g>
	<g>
		<g>
			<polyline fill="none" stroke="#FFFFFF" stroke-width="2" points="276.969,122.954 405.363,185.55 485.953,185.55 			"/>
			<g>
				<circle fill="#FFFFFF" cx="277.07" cy="123.003" r="2.256"/>
			</g>
		</g>
	</g>
</g>
</svg>
