<?xml version="1.0" encoding="utf-8"?>
<!-- Generator: Adobe Illustrator 16.0.0, SVG Export Plug-In . SVG Version: 6.00 Build 0)  -->
<!DOCTYPE svg PUBLIC "-//W3C//DTD SVG 1.1//EN" "http://www.w3.org/Graphics/SVG/1.1/DTD/svg11.dtd">
<svg version="1.1" id="Capa_1" xmlns="http://www.w3.org/2000/svg" xmlns:xlink="http://www.w3.org/1999/xlink" x="0px" y="0px"
	 width="197.461px" height="39.795px" viewBox="0 252.573 197.461 39.795" enable-background="new 0 252.573 197.461 39.795"
	 xml:space="preserve">
<g>
	<polygon opacity="0.7" fill="#FFFFFF" enable-background="new    " points="0,255.305 197.461,252.573 197.461,292.368 
		25.25,292.349 	"/>
	<g>
		<g>
			<path fill="#331842" d="M43.662,267.935v1.424h-1.815v-1.383c0-0.579-0.083-0.979-0.25-1.202s-0.463-0.333-0.887-0.333
				c-0.389,0-0.66,0.126-0.813,0.379s-0.23,0.783-0.23,1.591v9.221c0,0.828,0.082,1.367,0.244,1.615
				c0.163,0.25,0.461,0.375,0.895,0.375c0.37,0,0.637-0.119,0.799-0.354c0.163-0.235,0.244-0.636,0.244-1.202v-1.605h1.815v1.656
				c0,1.016-0.212,1.704-0.637,2.064c-0.425,0.359-1.184,0.54-2.276,0.54c-1.075,0-1.824-0.231-2.249-0.696s-0.637-1.33-0.637-2.596
				v-8.816c0-1.259,0.212-2.117,0.637-2.574c0.424-0.459,1.174-0.688,2.249-0.688c1.102,0,1.863,0.178,2.283,0.535
				C43.452,266.243,43.662,266.924,43.662,267.935z"/>
			<path fill="#331842" d="M52.116,268.612v8.816c0,1.279-0.23,2.146-0.691,2.605c-0.46,0.457-1.282,0.687-2.466,0.687
				c-1.165,0-1.978-0.231-2.438-0.696s-0.69-1.33-0.69-2.596v-8.816c0-1.252,0.232-2.109,0.697-2.57
				c0.465-0.461,1.285-0.69,2.459-0.69c1.174,0,1.989,0.229,2.445,0.687C51.888,266.497,52.116,267.353,52.116,268.612z
				 M50.314,268.411c0-0.754-0.099-1.271-0.298-1.551c-0.199-0.279-0.551-0.419-1.057-0.419c-0.497,0-0.842,0.136-1.036,0.409
				c-0.194,0.271-0.291,0.792-0.291,1.561v9.221c0,0.773,0.099,1.295,0.298,1.564c0.198,0.27,0.551,0.404,1.057,0.404
				c0.497,0,0.842-0.135,1.036-0.404s0.292-0.791,0.292-1.564L50.314,268.411L50.314,268.411z"/>
			<path fill="#331842" d="M55.151,265.572h2.628c1.354,0,2.271,0.142,2.75,0.425c0.479,0.281,0.718,0.791,0.718,1.524v3.373
				c0,0.62-0.158,1.058-0.474,1.313s-0.876,0.41-1.68,0.463c0.858,0.041,1.454,0.188,1.789,0.444c0.334,0.257,0.501,0.7,0.501,1.333
				v4.07c0,0.734-0.239,1.242-0.718,1.525s-1.396,0.424-2.75,0.424h-2.764V265.572z M56.871,266.672v5.443h0.61
				c0.786,0,1.31-0.103,1.572-0.308c0.262-0.205,0.393-0.661,0.393-1.368v-2.07c0-0.714-0.131-1.175-0.393-1.384
				c-0.262-0.208-0.786-0.313-1.572-0.313H56.871L56.871,266.672z M56.871,273.227v6.141h0.637c0.831,0,1.38-0.104,1.646-0.309
				c0.266-0.205,0.399-0.658,0.399-1.357v-2.798c0-0.7-0.133-1.155-0.399-1.364c-0.267-0.207-0.815-0.313-1.646-0.313H56.871z"/>
			<path fill="#331842" d="M64.391,265.572h4.769v1.183h-3.048v5.363h2.913v1.17h-2.913v6h3.129v1.182h-4.85V265.572z"/>
			<path fill="#331842" d="M71.72,265.572h2.628c1.355,0,2.271,0.142,2.75,0.425c0.479,0.282,0.718,0.791,0.718,1.524v3.373
				c0,0.62-0.158,1.058-0.475,1.313c-0.317,0.256-0.876,0.41-1.68,0.463c0.858,0.041,1.454,0.188,1.788,0.444
				c0.334,0.257,0.501,0.7,0.501,1.333v6.02h-1.829v-5.563c0-0.7-0.133-1.155-0.4-1.364c-0.266-0.207-0.815-0.313-1.646-0.313H73.44
				v7.24h-1.72V265.572z M73.44,266.672v5.443h0.609c0.786,0,1.31-0.103,1.571-0.308c0.262-0.205,0.393-0.661,0.393-1.368v-2.07
				c0-0.714-0.131-1.175-0.393-1.384c-0.262-0.208-0.785-0.313-1.571-0.313H73.44L73.44,266.672z"/>
			<path fill="#331842" d="M79.645,265.572h5.866v1.183h-2.059v13.715h-1.748v-13.715h-2.059V265.572z"/>
			<path fill="#331842" d="M87.232,265.572h1.802v12.06c0,0.773,0.099,1.295,0.298,1.564c0.198,0.27,0.551,0.404,1.057,0.404
				c0.496,0,0.842-0.135,1.036-0.404c0.194-0.27,0.291-0.791,0.291-1.564v-12.06h1.802v11.856c0,1.279-0.23,2.146-0.691,2.605
				c-0.461,0.457-1.283,0.687-2.466,0.687c-1.165,0-1.978-0.232-2.438-0.696c-0.461-0.465-0.691-1.33-0.691-2.596V265.572z"/>
			<path fill="#331842" d="M96.553,265.572h2.628c1.354,0,2.271,0.142,2.75,0.425c0.479,0.282,0.718,0.791,0.718,1.524v3.373
				c0,0.62-0.158,1.058-0.475,1.313c-0.317,0.256-0.877,0.41-1.68,0.463c0.857,0.041,1.453,0.188,1.787,0.444
				c0.334,0.257,0.502,0.7,0.502,1.333v6.02h-1.83v-5.563c0-0.7-0.133-1.155-0.399-1.364c-0.267-0.207-0.815-0.313-1.646-0.313
				h-0.637v7.24H96.55v-14.896H96.553z M98.273,266.672v5.443h0.609c0.787,0,1.31-0.103,1.572-0.308s0.393-0.661,0.393-1.368v-2.07
				c0-0.714-0.131-1.175-0.393-1.384c-0.263-0.208-0.785-0.313-1.572-0.313H98.273L98.273,266.672z"/>
			<path fill="#331842" d="M107.486,265.572h2.521l2.886,14.896h-1.856l-0.689-4.141h-3.279l-0.745,4.141h-1.815L107.486,265.572z
				 M108.678,266.672l-1.449,8.564h2.887l-1.355-8.564H108.678z"/>
			<path fill="#331842" d="M118.961,265.572h4.769v1.183h-3.048v5.363h2.913v1.17h-2.913v6h3.129v1.182h-4.85V265.572z"/>
			<path fill="#331842" d="M126.29,265.572h2.357l2.857,14.009h0.027l-0.257-14.009h1.558v14.896h-2.385l-2.83-13.814h-0.056
				l0.244,13.814h-1.519v-14.896H126.29z"/>
			<path fill="#331842" d="M145.379,267.935v1.424h-1.803v-1.383c0-0.585-0.08-0.988-0.244-1.207
				c-0.162-0.22-0.451-0.329-0.867-0.329c-0.396,0-0.676,0.123-0.84,0.369c-0.162,0.246-0.244,0.682-0.244,1.309v0.728
				c0,0.303,0.057,0.614,0.17,0.934c0.113,0.32,0.277,0.621,0.494,0.904l2.248,2.959c0.379,0.498,0.656,0.968,0.828,1.409
				c0.17,0.441,0.256,0.896,0.256,1.369v1.01c0,1.293-0.219,2.165-0.656,2.615c-0.438,0.451-1.217,0.677-2.338,0.677
				c-1.092,0-1.854-0.183-2.282-0.546s-0.644-1.051-0.644-2.061v-1.656h1.814v1.606c0,0.606,0.082,1.017,0.244,1.231
				c0.163,0.217,0.461,0.324,0.895,0.324c0.442,0,0.748-0.123,0.914-0.369c0.168-0.246,0.252-0.787,0.252-1.621v-1.03
				c0-0.384-0.049-0.731-0.144-1.045s-0.231-0.599-0.413-0.854l-2.384-3.171c-0.335-0.425-0.589-0.827-0.767-1.212
				c-0.177-0.384-0.264-0.717-0.264-1v-0.869c0-1.158,0.215-1.964,0.645-2.418c0.429-0.455,1.166-0.682,2.215-0.682
				c1.102,0,1.863,0.178,2.283,0.535S145.379,266.924,145.379,267.935z"/>
			<path fill="#331842" d="M149.484,265.572h2.521l2.886,14.896h-1.856l-0.689-4.141h-3.279l-0.745,4.141h-1.815L149.484,265.572z
				 M150.676,266.672l-1.449,8.564h2.886l-1.354-8.564H150.676z"/>
			<path fill="#331842" d="M156.719,265.572h1.72v13.716h3.103v1.182h-4.822V265.572z"/>
			<path fill="#331842" d="M163.127,265.572h1.802v12.06c0,0.773,0.099,1.295,0.298,1.564c0.197,0.27,0.551,0.404,1.057,0.404
				c0.498,0,0.842-0.135,1.036-0.404s0.292-0.791,0.292-1.564v-12.06h1.803v11.856c0,1.279-0.23,2.146-0.691,2.605
				c-0.46,0.457-1.282,0.687-2.467,0.687c-1.164,0-1.978-0.232-2.438-0.696c-0.46-0.465-0.689-1.33-0.689-2.596v-11.856H163.127z"/>
			<path fill="#331842" d="M172.447,265.572h2.019c1.707,0,2.822,0.201,3.348,0.601c0.523,0.402,0.786,1.318,0.786,2.752v8.191
				c0,1.426-0.267,2.342-0.8,2.746c-0.532,0.404-1.643,0.605-3.332,0.605h-2.02L172.447,265.572L172.447,265.572z M174.168,266.672
				v12.695h0.556c0.831,0,1.379-0.104,1.646-0.309c0.268-0.205,0.4-0.658,0.4-1.357v-9.332c0-0.707-0.135-1.166-0.406-1.379
				c-0.271-0.212-0.818-0.318-1.639-0.318H174.168z"/>
		</g>
	</g>
</g>
</svg>
