<?xml version="1.0" encoding="utf-8"?>
<!-- Generator: Adobe Illustrator 16.0.0, SVG Export Plug-In . SVG Version: 6.00 Build 0)  -->
<!DOCTYPE svg PUBLIC "-//W3C//DTD SVG 1.1//EN" "http://www.w3.org/Graphics/SVG/1.1/DTD/svg11.dtd">
<svg version="1.1" id="Capa_1" xmlns="http://www.w3.org/2000/svg" xmlns:xlink="http://www.w3.org/1999/xlink" x="0px" y="0px"
	 width="734.338px" height="413.176px" viewBox="0 0 734.338 413.176" enable-background="new 0 0 734.338 413.176"
	 xml:space="preserve">
<g>
	<g>
		<g>
			<path fill="#F39200" d="M291.92,144.008l-0.488,0.873l-0.271,0.987c-0.006,0.021-0.016,0.042-0.029,0.06l-0.453,0.591
				c-0.016,0.022-0.039,0.04-0.064,0.052l-0.459,0.214l-0.139,0.333l-0.553,4.422l-0.248,0.861c-0.004,0.015-0.012,0.028-0.02,0.041
				l-0.209,0.347l-0.289,0.367c-0.02,0.023-0.043,0.041-0.068,0.051l-0.418,0.174c-0.016,0.006-0.031,0.011-0.049,0.013
				l-0.312,0.034l-0.217,0.056l-0.158,0.133l-0.193,0.291l-0.266,0.27l-0.188,0.151c-0.039,0.031-0.088,0.043-0.137,0.036
				l-0.209-0.035c-0.031-0.005-0.061-0.018-0.084-0.04l-0.205-0.176l-0.094-0.016l-0.152,0.101l-0.164,0.169l-0.105,0.184v0.267
				c0,0.017-0.002,0.035-0.008,0.051l-0.174,0.556c-0.01,0.031-0.027,0.057-0.051,0.079l-0.605,0.538l-0.562,0.926l-0.059,0.266
				v0.189l0.096,0.528l0.494,0.824l0.891,0.924c0.012,0.012,0.02,0.024,0.027,0.039l0.576,1.084l0.145,0.129l0.145,0.128
				l0.199,0.131l0.197,0.132l0.918,0.44l0.723,0.513l0.553,0.098l0.303,0.027l1.266-0.934c0.018-0.014,0.039-0.023,0.062-0.029
				l1.268-0.309l1.303-0.617c0.014-0.006,0.025-0.01,0.039-0.013l0.486-0.104c0.012-0.002,0.023-0.003,0.037-0.003h0.486
				l0.432,0.035l0.68-0.033l2.51-0.929l0.613-0.145c0.012-0.003,0.025-0.005,0.037-0.005h1.738l0.49-0.196
				c0.016-0.005,0.031-0.009,0.049-0.011l0.348-0.035c0.021-0.001,0.043,0,0.064,0.005l0.244,0.07l0.633,0.313l0.287,0.057
				l0.656-0.164c0.014-0.004,0.027-0.006,0.043-0.006h0.416l0.521,0.068l0.549-0.064l1.574-0.617
				c0.014-0.005,0.025-0.009,0.037-0.01l0.453-0.07l0.719-0.002l0.799-0.366l0.535-0.337c0.016-0.009,0.033-0.016,0.051-0.021
				l0.277-0.069c0.027-0.007,0.057-0.007,0.084,0l0.242,0.06l0.344-0.062c0.016-0.004,0.031-0.005,0.047-0.003h0.002l0,0l0.318,0.03
				l0.4-0.277c0.037-0.026,0.084-0.037,0.129-0.028l0.799,0.139l0.74,0.279l0.537,0.067l1.225-0.037
				c0.012,0.001,0.023,0.001,0.035,0.003l0.764,0.139l1.707,0.625l2.199,0.137h0.197l0.49-0.196l0.516-0.113l0.498-0.072l0,0l0,0
				c0.018-0.002,0.035-0.002,0.053,0.001l0.418,0.069c0.012,0.002,0.025,0.006,0.037,0.012l0.904,0.381
				c0.014,0.006,0.025,0.013,0.037,0.021l0.092,0.069h1.227l1.777-0.311l1.23-0.105l0.863,0.033l0.459-0.131l0.943-0.475
				l1.652-0.599c0.012-0.004,0.023-0.007,0.037-0.009l0.592-0.069l0.518,0.034c0.016,0,0.029,0.003,0.043,0.008l0.711,0.237
				l0.328,0.033l0.607-0.001l0.643-0.069l0.846-0.036l0.617,0.071l0.33,0.072c0.012,0.002,0.023,0.006,0.033,0.011l0.766,0.348
				c0.014,0.007,0.027,0.015,0.039,0.024l0.209,0.174c0.01,0.009,0.02,0.02,0.029,0.031l0.277,0.382l0.141,0.137l0.678,0.407
				c0.012,0.007,0.021,0.016,0.033,0.025l0.174,0.174c0.01,0.011,0.02,0.023,0.027,0.037l0.139,0.243l0.203,0.503l0.223,0.195
				l1.535,0.58l0.471,0.252l0.584,0.47l0.197,0.232c0.016,0.019,0.027,0.04,0.033,0.063l0.07,0.243l0.035,0.362l0.322,0.411
				l0.6,0.245l0.133-0.145c0.012-0.015,0.027-0.027,0.043-0.036l0.695-0.417c0.016-0.009,0.031-0.016,0.049-0.021l0.73-0.174
				c0.014-0.003,0.029-0.006,0.045-0.004l4.949,0.173l0.889-0.164l0.592-0.363l1.377-0.842l-5.969-7.52l-1.771-2.259l-7.469-9.483
				l-0.711-0.609l-0.596-0.157l-0.844,0.034l-0.809,0.198l-1.299,0.752c-0.029,0.017-0.061,0.024-0.096,0.023l-0.729-0.035
				c-0.025-0.002-0.047-0.007-0.068-0.018l-2.432-1.181l-0.322-0.094c-0.035-0.011-0.066-0.032-0.088-0.062l-0.191-0.254
				l-0.049-0.032l-0.141-0.023l-0.525,0.098c-0.02,0.004-0.037,0.005-0.057,0.001l-0.631-0.105
				c-0.023-0.004-0.047-0.013-0.066-0.026l-0.207-0.139c-0.016-0.01-0.031-0.024-0.043-0.039l-1.168-1.512l-0.096-0.077
				l-0.303,0.056l-0.641,0.204c-0.018,0.005-0.035,0.008-0.051,0.008h-0.383c-0.014,0-0.025-0.001-0.037-0.004l-0.799-0.173
				l-0.227-0.074c-0.02-0.007-0.037-0.018-0.055-0.03l-0.432-0.34l-0.633,0.032l-1.359,0.308l-1.045,0.105l-0.85,0.272
				c-0.014,0.004-0.027,0.007-0.041,0.007l-0.451,0.033l-0.121,0.06l-0.08,0.185c-0.006,0.014-0.014,0.027-0.021,0.039l-0.242,0.312
				c-0.012,0.012-0.021,0.023-0.035,0.032l-0.971,0.729c-0.016,0.01-0.031,0.019-0.047,0.025l-1.182,0.417
				c-0.012,0.004-0.021,0.007-0.033,0.008l-1.252,0.173c-0.016,0.002-0.029,0.002-0.045,0.001l-1.604-0.2l-0.135,0.09l-0.191,0.225
				c-0.01,0.01-0.018,0.018-0.029,0.026l-0.277,0.208c-0.02,0.014-0.039,0.024-0.062,0.029l-0.416,0.104
				c-0.023,0.006-0.045,0.006-0.066,0.003l-0.244-0.034c-0.037-0.005-0.07-0.022-0.098-0.049l-0.154-0.154l-0.217-0.108h-1.105
				c-0.023,0-0.047-0.005-0.068-0.015l-0.312-0.139c-0.041-0.018-0.074-0.05-0.09-0.091l-0.105-0.243
				c-0.006-0.015-0.01-0.031-0.012-0.047l-0.061-0.511l-0.105-0.07l-0.281-0.028l-0.949,0.169c-0.014,0.003-0.031,0.004-0.045,0.002
				l-0.383-0.035l-0.795-0.214l-0.324-0.027l-0.305,0.061l-0.609,0.271l-0.287,0.108c-0.057,0.022-0.125,0.01-0.174-0.03
				l-0.42-0.357l-0.439-0.117l-0.297,0.074c-0.031,0.062-0.1,0.1-0.168,0.094l-0.451-0.035c-0.053-0.004-0.102-0.033-0.133-0.077
				l-0.154-0.224l-0.086,0.015l-0.281,0.188c-0.02,0.013-0.041,0.021-0.062,0.026l-0.174,0.035l-0.174,0.003
				c-0.037,0-0.072-0.012-0.104-0.034l-0.279-0.208c-0.012-0.009-0.021-0.019-0.031-0.031l-0.127-0.158l-0.113-0.091l-0.742-0.033
				l-0.215,0.025l-0.039,0.049l0.082,0.297c0.016,0.059,0,0.123-0.043,0.167c-0.043,0.045-0.107,0.063-0.166,0.047l-0.67-0.167
				l-0.494,0.032l-0.535,0.102l-0.523,0.027l0.037,0.225c0.014,0.075-0.023,0.15-0.092,0.184l-0.141,0.07
				c-0.031,0.016-0.066,0.021-0.102,0.017l-0.244-0.035l-0.201,0.001l-0.238,0.147l-0.221,0.194l-0.27,0.157
				c-0.018,0.01-0.037,0.017-0.057,0.02l-0.381,0.069c-0.018,0.003-0.031,0.004-0.047,0.003l-0.764-0.07l-1.779-0.418l-0.16,0.506
				l-0.254,0.512L291.92,144.008z"/>
		</g>
	</g>
	<g>
		<g>
			<g>
				<g>
					<path fill="#FFFFFF" d="M510.557,175.865l4.232,28.459h-7.562l-0.397-5.115h-2.647l-0.445,5.115h-7.65l3.775-28.459H510.557z
						 M506.635,194.164c-0.375-3.224-0.75-7.208-1.127-11.953c-0.754,5.45-1.228,9.434-1.42,11.953H506.635z"/>
					<path fill="#FFFFFF" d="M516.046,175.865h5.238c3.492,0,5.856,0.135,7.093,0.404s2.244,0.958,3.023,2.065
						s1.169,2.874,1.169,5.3c0,2.215-0.275,3.703-0.826,4.465s-1.635,1.219-3.252,1.371c1.465,0.363,2.449,0.85,2.953,1.459
						s0.817,1.169,0.94,1.679s0.185,1.913,0.185,4.21v7.506h-6.873v-9.457c0-1.523-0.12-2.467-0.36-2.83s-0.87-0.545-1.89-0.545
						v12.832h-7.4V175.865z M523.446,180.734v6.328c0.832,0,1.415-0.114,1.749-0.343s0.501-0.97,0.501-2.224v-1.564
						c0-0.902-0.161-1.494-0.483-1.775S524.302,180.734,523.446,180.734z"/>
					<path fill="#FFFFFF" d="M548.227,175.865l4.232,28.459h-7.562l-0.397-5.115h-2.647l-0.445,5.115h-7.65l3.775-28.459H548.227z
						 M544.305,194.164c-0.375-3.224-0.75-7.208-1.127-11.953c-0.754,5.45-1.228,9.434-1.42,11.953H544.305z"/>
					<path fill="#FFFFFF" d="M570.538,175.865v19.02c0,2.156-0.07,3.671-0.211,4.544s-0.557,1.77-1.248,2.689
						s-1.603,1.617-2.733,2.092s-2.464,0.712-3.999,0.712c-1.699,0-3.199-0.281-4.5-0.844s-2.273-1.295-2.918-2.197
						s-1.025-1.854-1.143-2.856s-0.176-3.108-0.176-6.319v-16.84h7.4v21.34c0,1.242,0.067,2.036,0.202,2.382
						s0.407,0.519,0.817,0.519c0.469,0,0.771-0.19,0.905-0.571s0.202-1.28,0.202-2.698v-20.971H570.538z"/>
					<path fill="#FFFFFF" d="M590.683,188.257h-7.4v-4.946c0-1.438-0.079-2.336-0.237-2.692s-0.507-0.535-1.046-0.535
						c-0.609,0-0.996,0.217-1.16,0.65s-0.246,1.371-0.246,2.812v13.219c0,1.383,0.082,2.285,0.246,2.707s0.533,0.633,1.107,0.633
						c0.551,0,0.911-0.211,1.081-0.634s0.255-1.416,0.255-2.978v-3.577h7.4v1.109c0,2.946-0.208,5.035-0.624,6.267
						c-0.416,1.232-1.336,2.312-2.76,3.239c-1.424,0.927-3.179,1.391-5.265,1.391c-2.168,0-3.955-0.393-5.361-1.178
						s-2.338-1.872-2.795-3.261s-0.686-3.478-0.686-6.267v-8.314c0-2.051,0.07-3.589,0.211-4.614s0.56-2.013,1.257-2.962
						s1.664-1.696,2.9-2.241s2.657-0.817,4.263-0.817c2.18,0,3.979,0.421,5.396,1.264c1.418,0.842,2.35,1.893,2.795,3.151
						s0.668,3.215,0.668,5.872V188.257z"/>
					<path fill="#FFFFFF" d="M606.129,175.865l4.232,28.459h-7.562l-0.397-5.115h-2.647l-0.445,5.115h-7.65l3.775-28.459H606.129z
						 M602.207,194.164c-0.375-3.224-0.75-7.208-1.127-11.953c-0.754,5.45-1.228,9.434-1.42,11.953H602.207z"/>
				</g>
			</g>
		</g>
	</g>
	<g>
		<g>
			<path fill="#F2961C" d="M498.711,225.136v4.156h-1.681v-12.987h3.685c1.045,0.141,1.927,0.571,2.646,1.291
				c0.86,0.866,1.291,1.905,1.291,3.117c0,1.223-0.431,2.266-1.291,3.129c-0.86,0.863-1.899,1.295-3.117,1.295H498.711z
				 M498.711,217.993v5.455h1.533c0.747,0,1.387-0.267,1.92-0.799c0.533-0.533,0.799-1.178,0.799-1.936
				c0-0.752-0.266-1.393-0.799-1.924c-0.533-0.53-1.173-0.795-1.92-0.795H498.711z"/>
			<path fill="#F2961C" d="M512.939,226.427l1.68,0.601c-0.411,0.568-0.709,0.944-0.893,1.128c-0.904,0.904-1.994,1.355-3.271,1.355
				c-1.271,0-2.359-0.452-3.263-1.355s-1.355-1.994-1.355-3.271c0-1.277,0.452-2.368,1.355-3.271
				c0.903-0.903,1.991-1.355,3.263-1.355c1.277,0,2.367,0.452,3.271,1.355c0.184,0.184,0.481,0.555,0.893,1.112l-1.68,0.617
				c-0.217-0.265-0.363-0.436-0.438-0.511c-0.563-0.563-1.245-0.844-2.046-0.844c-0.795,0-1.476,0.283-2.041,0.848
				s-0.848,1.249-0.848,2.05c0,0.795,0.282,1.476,0.848,2.041s1.246,0.848,2.041,0.848c0.801,0,1.486-0.281,2.055-0.844
				C512.579,226.854,512.723,226.687,512.939,226.427z"/>
			<path fill="#F2961C" d="M517.801,216.305c2.11,0.011,3.756,0.608,4.936,1.793c1.293,1.304,1.939,2.871,1.939,4.7
				c0,1.834-0.646,3.401-1.939,4.7c-1.18,1.185-2.825,1.783-4.936,1.794h-1.233v-12.987H517.801z M518.248,218.018v9.57
				c1.336,0,2.432-0.43,3.287-1.291c0.963-0.963,1.444-2.129,1.444-3.499c0-1.363-0.481-2.529-1.444-3.498
				C520.68,218.445,519.584,218.018,518.248,218.018z"/>
			<path fill="#F2961C" d="M538.504,221.211c-1.346,1.507-2.386,2.783-3.121,3.827c-0.736,1.044-1.131,2.462-1.186,4.253h-1.713
				c0.064-2.213,0.514-3.903,1.348-5.069c0.833-1.166,1.826-2.395,2.979-3.685s1.772-2.142,1.859-2.553h-6.169v-1.68h8.076
				C540.539,218.069,539.848,219.705,538.504,221.211z"/>
			<path fill="#F2961C" d="M544.648,227.385c0.229,0.227,0.344,0.503,0.344,0.828c0,0.335-0.114,0.617-0.344,0.844
				c-0.23,0.227-0.508,0.341-0.832,0.341c-0.32,0-0.596-0.114-0.828-0.341c-0.232-0.228-0.35-0.509-0.35-0.844
				c0-0.325,0.117-0.601,0.35-0.828c0.232-0.228,0.508-0.341,0.828-0.341C544.141,227.043,544.418,227.157,544.648,227.385z"/>
			<path fill="#F2961C" d="M549.457,219.812c0.303-0.065,0.619-0.098,0.949-0.098c0.605,0,1.188,0.098,1.745,0.292
				c1.25,0.427,2.181,1.217,2.792,2.37c0.385,0.714,0.576,1.45,0.576,2.208c0,0.471-0.072,0.942-0.219,1.413
				c-0.385,1.255-1.152,2.194-2.305,2.816c-0.703,0.374-1.432,0.56-2.184,0.56c-0.477,0-0.958-0.076-1.445-0.227
				c-1.006-0.309-1.877-0.963-2.613-1.964l1.186-1.315c0.6,0.888,1.244,1.434,1.932,1.64c0.313,0.097,0.619,0.146,0.917,0.146
				c0.476,0,0.941-0.119,1.396-0.357c0.742-0.395,1.234-0.996,1.478-1.802c0.098-0.308,0.146-0.614,0.146-0.917
				c0-0.471-0.122-0.936-0.365-1.396c-0.401-0.747-1.007-1.261-1.818-1.542c-0.353-0.125-0.741-0.187-1.169-0.187
				c-0.579,0-1.32,0.144-2.225,0.43l-1.014-0.885l1.461-4.034v-0.657h4.756v1.68h-3.336L549.457,219.812z"/>
			<path fill="#F2961C" d="M561.721,229.454c-1.33,0-2.395-0.399-3.189-1.197c-0.795-0.798-1.193-1.76-1.193-2.886
				c0-1.385,0.761-2.633,2.281-3.742c-0.73-0.785-1.096-1.599-1.096-2.443c0-0.828,0.296-1.542,0.889-2.143
				c0.592-0.601,1.316-0.901,2.172-0.901h0.268c0.854,0,1.58,0.3,2.175,0.901s0.894,1.315,0.894,2.143
				c0,0.844-0.396,1.65-1.186,2.419c1.58,1.125,2.37,2.381,2.37,3.766c0,1.125-0.397,2.087-1.193,2.886
				C564.115,229.055,563.053,229.454,561.721,229.454z M561.721,227.733c0.855,0,1.515-0.23,1.977-0.69
				c0.463-0.459,0.694-1.017,0.694-1.672c0-0.66-0.229-1.236-0.69-1.729c-0.453-0.498-1.114-0.836-1.98-1.015
				c-0.871,0.179-1.533,0.517-1.988,1.015c-0.454,0.493-0.682,1.069-0.682,1.729c0,0.655,0.23,1.212,0.689,1.672
				C560.201,227.503,560.861,227.733,561.721,227.733z M561.681,217.863c-0.038-0.005-0.07-0.008-0.097-0.008
				c-0.369,0-0.683,0.128-0.942,0.385c-0.26,0.257-0.39,0.572-0.39,0.946c0,0.379,0.137,0.714,0.41,1.006
				c0.273,0.292,0.521,0.482,0.742,0.568c0.119,0.043,0.225,0.073,0.316,0.089c0.093-0.017,0.198-0.046,0.317-0.089
				c0.216-0.086,0.462-0.276,0.738-0.568c0.276-0.292,0.414-0.627,0.414-1.006c0-0.374-0.13-0.688-0.39-0.946
				c-0.26-0.257-0.576-0.385-0.949-0.385c-0.021,0-0.052,0.002-0.09,0.008H561.681z"/>
			<path fill="#F2961C" d="M574.234,221.211c-1.346,1.507-2.386,2.783-3.121,3.827c-0.736,1.044-1.131,2.462-1.186,4.253h-1.713
				c0.064-2.213,0.514-3.903,1.348-5.069c0.833-1.166,1.826-2.395,2.979-3.685s1.772-2.142,1.859-2.553h-6.169v-1.68h8.076
				C576.27,218.069,575.578,219.705,574.234,221.211z"/>
			<path fill="#27515D" d="M503.417,238.058l5.948,16.354h-2.248l-2.105-5.785h-4.334l-2.096,5.785h-2.258l5.948-16.354H503.417z
				 M504.245,246.511l-1.4-3.833l-1.39,3.833H504.245z"/>
			<path fill="#27515D" d="M515.457,249.178h-1.932v5.233h-2.115v-16.354h4.641c1.314,0.177,2.426,0.719,3.332,1.625
				c1.084,1.09,1.625,2.399,1.625,3.925c0,1.54-0.541,2.855-1.625,3.945c-0.75,0.75-1.322,1.172-1.717,1.268l3.628,5.591h-2.565
				L515.457,249.178z M513.525,240.184v6.869h1.932c0.941,0,1.746-0.335,2.418-1.007c0.672-0.671,1.007-1.483,1.007-2.438
				c0-0.947-0.335-1.755-1.007-2.422c-0.672-0.668-1.477-1.002-2.418-1.002H513.525z"/>
			<path fill="#27515D" d="M529.451,238.058l5.948,16.354h-2.249l-2.105-5.785h-4.334l-2.095,5.785h-2.259l5.949-16.354H529.451z
				 M530.279,246.511l-1.4-3.833l-1.391,3.833H530.279z"/>
			<path fill="#27515D" d="M546.029,238.058h2.126v11.52c-0.185,1.315-0.726,2.426-1.625,3.332c-1.091,1.09-2.401,1.635-3.935,1.635
				s-2.844-0.543-3.931-1.63c-1.087-1.086-1.63-2.397-1.63-3.93v-10.927h2.125v10.927c0,0.94,0.336,1.746,1.008,2.417
				c0.67,0.671,1.48,1.007,2.428,1.007c0.953,0,1.764-0.333,2.432-1.001s1.002-1.476,1.002-2.422V238.058z"/>
			<path fill="#27515D" d="M563.875,250.517l1.585,1.421c-1.936,1.765-3.983,2.647-6.144,2.647c-2.31,0-4.279-0.814-5.907-2.443
				c-1.629-1.628-2.442-3.598-2.442-5.908c0-2.303,0.813-4.272,2.442-5.908c1.628-1.635,3.598-2.453,5.907-2.453
				c2.16,0,4.208,0.883,6.144,2.647l-1.585,1.441c-1.457-1.294-2.978-1.942-4.559-1.942c-1.71,0-3.174,0.606-4.39,1.819
				s-1.824,2.678-1.824,4.395c0,1.724,0.608,3.193,1.824,4.406s2.68,1.819,4.39,1.819
				C560.897,252.459,562.418,251.812,563.875,250.517z"/>
			<path fill="#27515D" d="M573.668,238.058l5.948,16.354h-2.249l-2.105-5.785h-4.334l-2.095,5.785h-2.259l5.949-16.354H573.668z
				 M574.496,246.511l-1.4-3.833l-1.391,3.833H574.496z"/>
		</g>
	</g>
	<g>
		<g>
			<polyline fill="none" stroke="#FFFFFF" stroke-width="2" points="324.522,151.75 405.945,185.55 486.537,185.55 			"/>
			<g>
				<circle fill="#FFFFFF" cx="324.626" cy="151.793" r="2.256"/>
			</g>
		</g>
	</g>
</g>
</svg>
