<?xml version="1.0" encoding="utf-8"?>
<!-- Generator: Adobe Illustrator 16.0.0, SVG Export Plug-In . SVG Version: 6.00 Build 0)  -->
<!DOCTYPE svg PUBLIC "-//W3C//DTD SVG 1.1//EN" "http://www.w3.org/Graphics/SVG/1.1/DTD/svg11.dtd">
<svg version="1.1" id="Capa_1" xmlns="http://www.w3.org/2000/svg" xmlns:xlink="http://www.w3.org/1999/xlink" x="0px" y="0px"
	 width="197.461px" height="39.795px" viewBox="0 0 197.461 39.795" enable-background="new 0 0 197.461 39.795"
	 xml:space="preserve">
<g>
	<polygon opacity="0.7" fill="#FFFFFF" enable-background="new    " points="0,2.73 197.461,0 197.461,39.795 25.25,39.775 	"/>
	<g>
		<g>
			<path fill="#331842" d="M50.815,12.998h2.357l2.858,14.008h0.027l-0.258-14.008h1.558v14.896h-2.384l-2.832-13.815h-0.054
				l0.244,13.815h-1.518V12.998H50.815z"/>
			<path fill="#331842" d="M60.448,12.998h1.829v14.896h-1.829V12.998z"/>
			<path fill="#331842" d="M64.187,12.998h1.748l1.856,13.41h0.189l1.748-13.41h1.639L69.2,27.892h-2.682L64.187,12.998z"/>
			<path fill="#331842" d="M73.346,12.998h4.769v1.182h-3.048v5.363h2.913v1.17h-2.913v6h3.129v1.182h-4.85V12.998z"/>
			<path fill="#331842" d="M80.675,12.998h1.721v13.715h3.103v1.182h-4.823L80.675,12.998L80.675,12.998z"/>
			<path fill="#331842" d="M91.404,12.998h2.019c1.707,0,2.822,0.199,3.347,0.602c0.523,0.399,0.787,1.318,0.787,2.752v8.189
				c0,1.428-0.268,2.344-0.8,2.746c-0.532,0.404-1.644,0.604-3.333,0.604h-2.019L91.404,12.998L91.404,12.998z M93.125,14.097
				v12.695h0.557c0.83,0,1.379-0.104,1.646-0.31c0.267-0.207,0.399-0.658,0.399-1.356v-9.332c0-0.707-0.135-1.166-0.406-1.38
				c-0.271-0.211-0.817-0.317-1.639-0.317H93.125z"/>
			<path fill="#331842" d="M100.59,12.998h4.77v1.182h-3.049v5.363h2.914v1.17h-2.914v6h3.131v1.182h-4.852V12.998z"/>
			<path fill="#331842" d="M112.161,12.998h4.769v1.182h-3.048v5.363h2.912v1.17h-2.912v6h3.13v1.182h-4.851V12.998z"/>
			<path fill="#331842" d="M124.706,15.361v1.424h-1.804V15.4c0-0.586-0.08-0.988-0.243-1.207c-0.162-0.22-0.451-0.328-0.867-0.328
				c-0.396,0-0.676,0.123-0.84,0.369c-0.162,0.246-0.244,0.685-0.244,1.31v0.727c0,0.306,0.058,0.615,0.17,0.937
				c0.113,0.322,0.276,0.621,0.494,0.904l2.248,2.959c0.379,0.5,0.655,0.969,0.827,1.407c0.171,0.441,0.257,0.898,0.257,1.369v1.011
				c0,1.293-0.22,2.164-0.656,2.614c-0.438,0.451-1.217,0.679-2.338,0.679c-1.092,0-1.854-0.183-2.282-0.548
				c-0.429-0.36-0.644-1.049-0.644-2.059v-1.656h1.813v1.604c0,0.605,0.082,1.018,0.243,1.23c0.162,0.213,0.462,0.324,0.896,0.324
				c0.443,0,0.748-0.123,0.914-0.369c0.168-0.246,0.252-0.787,0.252-1.621v-1.029c0-0.385-0.049-0.73-0.146-1.045
				c-0.094-0.313-0.229-0.598-0.411-0.854l-2.386-3.171c-0.334-0.424-0.588-0.827-0.767-1.213c-0.178-0.383-0.264-0.717-0.264-1
				v-0.866c0-1.158,0.215-1.966,0.646-2.421c0.428-0.452,1.166-0.682,2.215-0.682c1.103,0,1.86,0.18,2.283,0.534
				C124.495,13.668,124.706,14.351,124.706,15.361z"/>
			<path fill="#331842" d="M125.803,12.998h5.865v1.182h-2.061v13.715h-1.748V14.18h-2.06L125.803,12.998L125.803,12.998z"/>
			<path fill="#331842" d="M133.389,12.998h1.803v12.059c0,0.773,0.1,1.295,0.299,1.564c0.197,0.27,0.551,0.404,1.057,0.404
				c0.496,0,0.844-0.137,1.037-0.404c0.191-0.271,0.291-0.791,0.291-1.564V12.998h1.801v11.854c0,1.279-0.229,2.148-0.689,2.605
				c-0.461,0.459-1.281,0.688-2.465,0.688c-1.166,0-1.979-0.23-2.438-0.695c-0.461-0.465-0.69-1.33-0.69-2.598V12.998H133.389z"/>
			<path fill="#331842" d="M142.709,12.998h2.02c1.707,0,2.822,0.199,3.35,0.602c0.521,0.399,0.783,1.318,0.783,2.752v8.189
				c0,1.428-0.266,2.344-0.799,2.746c-0.533,0.404-1.645,0.604-3.332,0.604h-2.02V12.994h-0.002V12.998z M144.432,14.097v12.695
				h0.555c0.832,0,1.381-0.104,1.646-0.31c0.268-0.205,0.4-0.658,0.4-1.356v-9.332c0-0.707-0.137-1.166-0.406-1.38
				c-0.271-0.211-0.818-0.317-1.641-0.317H144.432z"/>
			<path fill="#331842" d="M151.896,12.998h1.828v14.896h-1.828V12.998z"/>
			<path fill="#331842" d="M162.979,16.037v8.814c0,1.279-0.229,2.148-0.689,2.605c-0.461,0.455-1.283,0.686-2.469,0.686
				c-1.162,0-1.979-0.23-2.438-0.695c-0.461-0.463-0.691-1.328-0.691-2.596v-8.814c0-1.252,0.232-2.109,0.697-2.57
				s1.285-0.691,2.459-0.691s1.988,0.229,2.445,0.688C162.749,13.92,162.979,14.777,162.979,16.037z M161.176,15.836
				c0-0.754-0.1-1.271-0.299-1.551c-0.197-0.279-0.551-0.42-1.057-0.42c-0.496,0-0.842,0.139-1.037,0.41
				c-0.195,0.271-0.291,0.793-0.291,1.561v9.221c0,0.773,0.1,1.295,0.299,1.564c0.199,0.269,0.551,0.404,1.057,0.404
				c0.498,0,0.842-0.137,1.037-0.404c0.193-0.271,0.291-0.791,0.291-1.564V15.836L161.176,15.836z"/>
			<path fill="#331842" d="M171.229,15.361v1.424h-1.803V15.4c0-0.586-0.08-0.988-0.242-1.207c-0.164-0.22-0.453-0.328-0.867-0.328
				c-0.396,0-0.678,0.123-0.84,0.369c-0.164,0.246-0.244,0.685-0.244,1.31v0.727c0,0.306,0.057,0.615,0.168,0.937
				c0.113,0.322,0.279,0.621,0.496,0.904l2.248,2.959c0.379,0.5,0.654,0.969,0.826,1.407c0.172,0.441,0.258,0.898,0.258,1.369v1.011
				c0,1.293-0.221,2.164-0.658,2.614c-0.437,0.451-1.217,0.679-2.336,0.679c-1.094,0-1.854-0.183-2.281-0.548
				c-0.432-0.36-0.646-1.049-0.646-2.059v-1.656h1.814v1.604c0,0.605,0.082,1.018,0.244,1.23s0.461,0.324,0.895,0.324
				c0.441,0,0.748-0.123,0.914-0.369c0.168-0.246,0.25-0.787,0.25-1.621v-1.029c0-0.385-0.047-0.73-0.141-1.045
				c-0.096-0.313-0.234-0.598-0.414-0.854l-2.385-3.171c-0.334-0.424-0.59-0.827-0.768-1.213c-0.176-0.383-0.264-0.717-0.264-1
				v-0.866c0-1.158,0.213-1.966,0.645-2.421c0.43-0.452,1.168-0.682,2.215-0.682c1.104,0,1.861,0.18,2.283,0.534
				C171.018,13.668,171.229,14.351,171.229,15.361z"/>
		</g>
	</g>
</g>
</svg>
