<?xml version="1.0" encoding="utf-8"?>
<!-- Generator: Adobe Illustrator 16.0.0, SVG Export Plug-In . SVG Version: 6.00 Build 0)  -->
<!DOCTYPE svg PUBLIC "-//W3C//DTD SVG 1.1//EN" "http://www.w3.org/Graphics/SVG/1.1/DTD/svg11.dtd">
<svg version="1.1" id="Capa_1" xmlns="http://www.w3.org/2000/svg" xmlns:xlink="http://www.w3.org/1999/xlink" x="0px" y="0px"
	 width="1224.02px" height="554.256px" viewBox="0 0 1224.02 554.256" enable-background="new 0 0 1224.02 554.256"
	 xml:space="preserve">
<g>
	<g>
		<g>
			<path fill="none" stroke="#0093AF" stroke-width="2" stroke-miterlimit="10" d="M1120.158,512.203c0,5.5-4.5,10-10,10H754.66
				c-5.5,0-10-4.5-10-10v-166.39c0-5.5,4.5-10,10-10h355.498c5.5,0,10,4.5,10,10V512.203z"/>
		</g>
		
			<line fill="none" stroke="#0093AF" stroke-width="2" stroke-miterlimit="10" x1="933.502" y1="335.186" x2="933.502" y2="305.82"/>
		
			<rect x="927.826" y="292.785" transform="matrix(-0.7072 -0.707 0.707 -0.7072 1382.6489 1169.5374)" fill="none" stroke="#0093AF" stroke-width="2" stroke-miterlimit="10" width="11.351" height="11.354"/>
		<g>
			<g>
				<path fill="#0093AF" d="M882.717,284.183c-5.5,0-10-4.5-10-10v-9.369c0-5.5,4.5-10,10-10h99.408c5.5,0,10,4.5,10,10v9.369
					c0,5.5-4.5,10-10,10H882.717z"/>
			</g>
			<g>
				<g>
					<path fill="#FFFFFF" d="M891.048,273.013v-9.144h2.963c1.123,0,1.854,0.046,2.195,0.138c0.523,0.137,0.963,0.436,1.316,0.895
						c0.353,0.46,0.529,1.054,0.529,1.781c0,0.561-0.102,1.033-0.306,1.415c-0.204,0.383-0.462,0.684-0.776,0.901
						c-0.314,0.219-0.633,0.363-0.957,0.434c-0.441,0.088-1.079,0.131-1.915,0.131h-1.204v3.449H891.048z M892.894,265.416v2.595
						h1.011c0.728,0,1.214-0.048,1.46-0.144c0.244-0.096,0.438-0.245,0.576-0.449c0.14-0.203,0.209-0.44,0.209-0.711
						c0-0.332-0.098-0.606-0.293-0.823c-0.195-0.216-0.443-0.352-0.742-0.405c-0.221-0.041-0.663-0.062-1.328-0.062H892.894z"/>
					<path fill="#FFFFFF" d="M899.149,269.607c0-0.582,0.144-1.146,0.431-1.69c0.286-0.544,0.693-0.96,1.22-1.247
						c0.525-0.287,1.113-0.431,1.762-0.431c1.002,0,1.822,0.325,2.463,0.977c0.641,0.65,0.961,1.473,0.961,2.467
						c0,1.002-0.324,1.832-0.971,2.491s-1.46,0.988-2.441,0.988c-0.607,0-1.186-0.137-1.736-0.411s-0.971-0.677-1.257-1.207
						C899.293,271.014,899.149,270.368,899.149,269.607z M900.946,269.701c0,0.657,0.155,1.16,0.467,1.509
						c0.312,0.35,0.697,0.524,1.154,0.524s0.841-0.175,1.15-0.524c0.311-0.349,0.465-0.856,0.465-1.521
						c0-0.648-0.154-1.147-0.465-1.497c-0.31-0.349-0.693-0.523-1.15-0.523s-0.842,0.175-1.154,0.523
						C901.102,268.541,900.946,269.044,900.946,269.701z"/>
					<path fill="#FFFFFF" d="M910.395,266.39v1.396h-1.197v2.67c0,0.54,0.011,0.855,0.034,0.944c0.023,0.09,0.074,0.163,0.156,0.222
						c0.08,0.058,0.18,0.087,0.296,0.087c0.162,0,0.397-0.056,0.704-0.168l0.15,1.359c-0.408,0.175-0.869,0.262-1.385,0.262
						c-0.316,0-0.601-0.053-0.854-0.159c-0.253-0.105-0.439-0.243-0.558-0.411c-0.119-0.169-0.201-0.396-0.246-0.683
						c-0.038-0.204-0.057-0.615-0.057-1.235v-2.888h-0.805v-1.396h0.805v-1.316l1.759-1.022v2.339H910.395z"/>
					<path fill="#FFFFFF" d="M915.446,270.904l1.746,0.294c-0.225,0.64-0.578,1.127-1.062,1.462s-1.092,0.502-1.818,0.502
						c-1.152,0-2.004-0.376-2.558-1.129c-0.437-0.603-0.655-1.363-0.655-2.282c0-1.098,0.287-1.957,0.861-2.579
						c0.574-0.621,1.299-0.933,2.177-0.933c0.985,0,1.763,0.325,2.333,0.977c0.568,0.65,0.842,1.647,0.816,2.99h-4.391
						c0.012,0.52,0.154,0.924,0.424,1.213c0.271,0.289,0.607,0.434,1.011,0.434c0.274,0,0.505-0.075,0.692-0.225
						S915.351,271.237,915.446,270.904z M915.546,269.134c-0.012-0.508-0.143-0.894-0.393-1.157s-0.553-0.396-0.91-0.396
						c-0.383,0-0.699,0.14-0.949,0.418c-0.249,0.279-0.371,0.657-0.367,1.136H915.546z"/>
					<path fill="#FFFFFF" d="M924.739,273.013h-1.753v-3.38c0-0.716-0.037-1.178-0.112-1.388c-0.074-0.21-0.196-0.374-0.365-0.49
						c-0.168-0.116-0.371-0.175-0.607-0.175c-0.304,0-0.576,0.084-0.817,0.25s-0.406,0.387-0.495,0.661
						c-0.09,0.274-0.135,0.781-0.135,1.521v3h-1.752v-6.623h1.627v0.973c0.578-0.749,1.307-1.123,2.184-1.123
						c0.387,0,0.74,0.07,1.061,0.209c0.319,0.14,0.562,0.317,0.727,0.533c0.164,0.217,0.277,0.462,0.342,0.736
						s0.098,0.667,0.098,1.179V273.013z"/>
					<path fill="#FFFFFF" d="M932.292,268.348l-1.729,0.312c-0.058-0.345-0.189-0.604-0.396-0.779s-0.474-0.262-0.802-0.262
						c-0.436,0-0.785,0.15-1.045,0.452c-0.26,0.301-0.389,0.806-0.389,1.512c0,0.786,0.131,1.342,0.396,1.666
						s0.618,0.486,1.063,0.486c0.332,0,0.605-0.095,0.816-0.284c0.213-0.189,0.362-0.515,0.449-0.976l1.722,0.293
						c-0.179,0.79-0.521,1.387-1.028,1.79c-0.508,0.403-1.188,0.604-2.04,0.604c-0.969,0-1.741-0.306-2.317-0.917
						c-0.576-0.61-0.863-1.457-0.863-2.538c0-1.094,0.289-1.944,0.867-2.554s1.359-0.914,2.345-0.914
						c0.807,0,1.448,0.174,1.924,0.521C931.741,267.107,932.084,267.637,932.292,268.348z"/>
					<path fill="#FFFFFF" d="M933.62,265.491v-1.622h1.752v1.622H933.62z M933.62,273.013v-6.623h1.752v6.623H933.62z"/>
					<path fill="#FFFFFF" d="M938.479,268.41l-1.591-0.287c0.18-0.641,0.486-1.114,0.924-1.422c0.436-0.308,1.085-0.462,1.945-0.462
						c0.781,0,1.363,0.093,1.746,0.277c0.383,0.186,0.652,0.421,0.809,0.705c0.155,0.285,0.233,0.808,0.233,1.568l-0.019,2.046
						c0,0.582,0.027,1.012,0.084,1.288s0.161,0.572,0.314,0.889h-1.733c-0.046-0.116-0.103-0.289-0.169-0.518
						c-0.028-0.104-0.049-0.173-0.062-0.206c-0.3,0.291-0.62,0.51-0.96,0.655c-0.342,0.146-0.705,0.218-1.092,0.218
						c-0.682,0-1.22-0.185-1.613-0.555c-0.393-0.37-0.589-0.838-0.589-1.403c0-0.374,0.089-0.708,0.269-1.001
						c0.179-0.293,0.43-0.518,0.752-0.674s0.786-0.292,1.394-0.408c0.819-0.154,1.386-0.298,1.702-0.431v-0.175
						c0-0.337-0.083-0.576-0.249-0.72c-0.167-0.144-0.48-0.216-0.942-0.216c-0.312,0-0.555,0.062-0.729,0.185
						C938.728,267.887,938.587,268.103,938.479,268.41z M940.823,269.832c-0.225,0.075-0.58,0.164-1.066,0.269
						c-0.486,0.104-0.805,0.205-0.954,0.305c-0.229,0.162-0.343,0.368-0.343,0.618c0,0.245,0.092,0.457,0.274,0.636
						s0.415,0.269,0.698,0.269c0.316,0,0.617-0.104,0.904-0.312c0.213-0.157,0.352-0.351,0.418-0.58
						c0.046-0.149,0.068-0.434,0.068-0.854V269.832z"/>
					<path fill="#FFFFFF" d="M950.347,273.013h-1.627v-0.973c-0.271,0.378-0.59,0.66-0.958,0.845s-0.739,0.277-1.113,0.277
						c-0.761,0-1.413-0.307-1.955-0.92s-0.813-1.469-0.813-2.566c0-1.122,0.264-1.976,0.791-2.56
						c0.528-0.585,1.195-0.877,2.002-0.877c0.74,0,1.381,0.308,1.922,0.923v-3.293h1.752V273.013z M945.669,269.558
						c0,0.707,0.098,1.218,0.293,1.534c0.283,0.457,0.678,0.686,1.186,0.686c0.403,0,0.746-0.171,1.029-0.514
						c0.283-0.344,0.424-0.855,0.424-1.538c0-0.761-0.137-1.309-0.412-1.644c-0.273-0.334-0.625-0.502-1.054-0.502
						c-0.415,0-0.764,0.166-1.044,0.496C945.81,268.407,945.669,268.9,945.669,269.558z"/>
					<path fill="#FFFFFF" d="M951.669,269.607c0-0.582,0.144-1.146,0.431-1.69c0.286-0.544,0.693-0.96,1.22-1.247
						c0.525-0.287,1.113-0.431,1.762-0.431c1.002,0,1.822,0.325,2.463,0.977c0.641,0.65,0.961,1.473,0.961,2.467
						c0,1.002-0.324,1.832-0.971,2.491s-1.46,0.988-2.441,0.988c-0.607,0-1.186-0.137-1.736-0.411s-0.971-0.677-1.257-1.207
						C951.812,271.014,951.669,270.368,951.669,269.607z M953.466,269.701c0,0.657,0.155,1.16,0.467,1.509
						c0.312,0.35,0.697,0.524,1.154,0.524s0.841-0.175,1.15-0.524c0.311-0.349,0.465-0.856,0.465-1.521
						c0-0.648-0.154-1.147-0.465-1.497c-0.31-0.349-0.693-0.523-1.15-0.523s-0.842,0.175-1.154,0.523
						C953.621,268.541,953.466,269.044,953.466,269.701z"/>
					<path fill="#FFFFFF" d="M961.555,273.013h-1.753v-6.623h1.628v0.941c0.278-0.445,0.529-0.738,0.751-0.88
						c0.223-0.141,0.476-0.212,0.758-0.212c0.4,0,0.784,0.11,1.154,0.331l-0.543,1.527c-0.295-0.19-0.569-0.286-0.822-0.286
						c-0.246,0-0.453,0.067-0.624,0.202c-0.171,0.136-0.305,0.38-0.402,0.733s-0.146,1.093-0.146,2.22V273.013z"/>
					<path fill="#FFFFFF" d="M968.683,270.904l1.746,0.294c-0.224,0.64-0.578,1.127-1.062,1.462s-1.091,0.502-1.818,0.502
						c-1.151,0-2.004-0.376-2.557-1.129c-0.438-0.603-0.655-1.363-0.655-2.282c0-1.098,0.287-1.957,0.86-2.579
						c0.574-0.621,1.3-0.933,2.178-0.933c0.984,0,1.762,0.325,2.332,0.977c0.569,0.65,0.842,1.647,0.816,2.99h-4.391
						c0.013,0.52,0.154,0.924,0.424,1.213c0.271,0.289,0.607,0.434,1.012,0.434c0.273,0,0.504-0.075,0.691-0.225
						S968.587,271.237,968.683,270.904z M968.782,269.134c-0.012-0.508-0.143-0.894-0.393-1.157
						c-0.249-0.264-0.553-0.396-0.91-0.396c-0.383,0-0.699,0.14-0.948,0.418c-0.249,0.279-0.372,0.657-0.368,1.136H968.782z"/>
					<path fill="#FFFFFF" d="M971.333,271.123l1.76-0.269c0.074,0.341,0.227,0.6,0.455,0.776s0.549,0.266,0.961,0.266
						c0.453,0,0.793-0.083,1.021-0.25c0.154-0.116,0.231-0.271,0.231-0.468c0-0.133-0.042-0.243-0.125-0.33
						c-0.087-0.083-0.282-0.16-0.586-0.23c-1.413-0.312-2.31-0.597-2.688-0.854c-0.523-0.357-0.785-0.854-0.785-1.491
						c0-0.573,0.227-1.056,0.68-1.446c0.453-0.392,1.156-0.587,2.107-0.587c0.906,0,1.58,0.147,2.021,0.443
						c0.44,0.295,0.744,0.731,0.91,1.31l-1.652,0.306c-0.071-0.258-0.205-0.455-0.402-0.593c-0.197-0.137-0.479-0.206-0.846-0.206
						c-0.461,0-0.792,0.064-0.991,0.193c-0.134,0.092-0.2,0.21-0.2,0.355c0,0.125,0.059,0.231,0.176,0.318
						c0.157,0.116,0.703,0.28,1.637,0.493c0.934,0.212,1.585,0.472,1.955,0.779c0.365,0.312,0.549,0.746,0.549,1.304
						c0,0.606-0.254,1.129-0.761,1.565s-1.258,0.654-2.251,0.654c-0.902,0-1.617-0.183-2.143-0.549
						C971.84,272.248,971.495,271.751,971.333,271.123z"/>
				</g>
			</g>
		</g>
		<g>
			<path fill="#0093AF" d="M386.204,376.55c-5.5,0-10-4.5-10-10v-15.72c0-5.5,4.5-10,10-10h125.229c5.5,0,10,4.5,10,10v15.72
				c0,5.5-4.5,10-10,10H386.204z"/>
		</g>
		<g>
			<g>
				<path fill="#FFFFFF" d="M398.499,362.966v-11.12h3.604c1.365,0,2.255,0.056,2.67,0.167c0.637,0.167,1.17,0.529,1.6,1.088
					c0.43,0.56,0.645,1.281,0.645,2.166c0,0.683-0.123,1.257-0.371,1.722c-0.248,0.466-0.562,0.831-0.944,1.097
					c-0.382,0.265-0.771,0.44-1.164,0.526c-0.536,0.106-1.312,0.16-2.329,0.16h-1.464v4.194H398.499z M400.744,353.727v3.155h1.229
					c0.885,0,1.477-0.058,1.774-0.174s0.532-0.299,0.702-0.546c0.169-0.248,0.254-0.536,0.254-0.865
					c0-0.404-0.119-0.738-0.357-1.001c-0.237-0.263-0.538-0.428-0.902-0.493c-0.268-0.051-0.807-0.076-1.615-0.076H400.744z"/>
				<path fill="#FFFFFF" d="M408.353,358.824c0-0.708,0.174-1.394,0.523-2.056c0.349-0.662,0.844-1.168,1.482-1.518
					c0.641-0.349,1.354-0.522,2.144-0.522c1.218,0,2.218,0.396,2.996,1.187c0.778,0.792,1.168,1.792,1.168,3
					c0,1.219-0.394,2.229-1.179,3.03c-0.787,0.802-1.777,1.202-2.971,1.202c-0.738,0-1.442-0.166-2.112-0.5s-1.18-0.823-1.528-1.468
					C408.526,360.535,408.353,359.75,408.353,358.824z M410.537,358.938c0,0.8,0.189,1.411,0.569,1.836
					c0.379,0.425,0.847,0.638,1.402,0.638c0.557,0,1.023-0.213,1.4-0.638s0.564-1.041,0.564-1.851c0-0.789-0.188-1.396-0.564-1.82
					s-0.844-0.638-1.4-0.638c-0.556,0-1.023,0.213-1.402,0.638C410.727,357.527,410.537,358.139,410.537,358.938z"/>
				<path fill="#FFFFFF" d="M422.028,354.91v1.699h-1.456v3.246c0,0.658,0.015,1.041,0.042,1.149
					c0.027,0.109,0.091,0.198,0.189,0.27c0.099,0.07,0.219,0.106,0.36,0.106c0.197,0,0.483-0.068,0.857-0.205l0.182,1.653
					c-0.495,0.213-1.057,0.318-1.684,0.318c-0.384,0-0.731-0.064-1.04-0.193c-0.308-0.129-0.534-0.296-0.678-0.5
					c-0.145-0.205-0.244-0.482-0.301-0.831c-0.045-0.248-0.067-0.748-0.067-1.502v-3.512h-0.979v-1.699h0.979v-1.601l2.139-1.244
					v2.845H422.028z"/>
				<path fill="#FFFFFF" d="M428.173,360.402l2.124,0.356c-0.272,0.778-0.704,1.371-1.293,1.778s-1.326,0.61-2.212,0.61
					c-1.4,0-2.438-0.457-3.109-1.372c-0.531-0.733-0.797-1.659-0.797-2.776c0-1.335,0.35-2.381,1.047-3.137
					c0.698-0.756,1.58-1.134,2.647-1.134c1.198,0,2.144,0.396,2.837,1.187c0.693,0.792,1.024,2.004,0.994,3.638h-5.34
					c0.015,0.632,0.187,1.124,0.516,1.475c0.328,0.352,0.738,0.527,1.229,0.527c0.334,0,0.614-0.091,0.842-0.272
					C427.885,361.1,428.057,360.807,428.173,360.402z M428.294,358.248c-0.015-0.617-0.174-1.086-0.477-1.407
					c-0.305-0.321-0.674-0.481-1.108-0.481c-0.466,0-0.85,0.169-1.153,0.508c-0.303,0.339-0.452,0.799-0.447,1.381H428.294z"/>
				<path fill="#FFFFFF" d="M439.476,362.966h-2.132v-4.111c0-0.87-0.046-1.433-0.137-1.688c-0.091-0.256-0.239-0.454-0.443-0.596
					c-0.205-0.142-0.452-0.212-0.739-0.212c-0.369,0-0.701,0.101-0.994,0.303s-0.494,0.471-0.604,0.805
					c-0.108,0.333-0.162,0.95-0.162,1.851v3.648h-2.132v-8.056h1.979v1.184c0.703-0.91,1.588-1.365,2.654-1.365
					c0.471,0,0.9,0.084,1.29,0.254c0.39,0.169,0.685,0.386,0.884,0.648s0.339,0.562,0.418,0.895
					c0.078,0.334,0.117,0.812,0.117,1.434V362.966z"/>
				<path fill="#FFFFFF" d="M448.661,357.292l-2.102,0.379c-0.07-0.419-0.23-0.735-0.481-0.948c-0.25-0.212-0.575-0.318-0.975-0.318
					c-0.53,0-0.954,0.184-1.271,0.55c-0.316,0.367-0.475,0.98-0.475,1.84c0,0.956,0.161,1.631,0.482,2.025
					c0.32,0.395,0.752,0.592,1.293,0.592c0.404,0,0.736-0.115,0.994-0.346c0.258-0.229,0.439-0.626,0.546-1.187l2.094,0.356
					c-0.218,0.961-0.635,1.687-1.252,2.177c-0.616,0.49-1.444,0.735-2.48,0.735c-1.179,0-2.118-0.371-2.817-1.114
					c-0.701-0.744-1.051-1.772-1.051-3.088c0-1.33,0.352-2.365,1.055-3.106c0.702-0.74,1.652-1.11,2.852-1.11
					c0.98,0,1.762,0.211,2.34,0.633C447.992,355.784,448.408,356.427,448.661,357.292z"/>
				<path fill="#FFFFFF" d="M450.276,353.817v-1.972h2.132v1.972H450.276z M450.276,362.966v-8.056h2.132v8.056H450.276z"/>
				<path fill="#FFFFFF" d="M456.186,357.368l-1.935-0.35c0.218-0.778,0.592-1.354,1.123-1.729c0.531-0.374,1.32-0.561,2.367-0.561
					c0.95,0,1.658,0.112,2.123,0.337c0.465,0.226,0.793,0.511,0.982,0.857s0.285,0.982,0.285,1.907l-0.023,2.488
					c0,0.708,0.034,1.23,0.103,1.566c0.068,0.337,0.196,0.697,0.383,1.081h-2.108c-0.056-0.142-0.124-0.352-0.205-0.63
					c-0.035-0.126-0.061-0.21-0.076-0.25c-0.363,0.354-0.753,0.619-1.168,0.797c-0.414,0.177-0.857,0.265-1.327,0.265
					c-0.829,0-1.483-0.225-1.961-0.675s-0.717-1.019-0.717-1.707c0-0.455,0.108-0.86,0.326-1.217s0.522-0.63,0.914-0.819
					s0.957-0.355,1.695-0.497c0.996-0.187,1.687-0.361,2.071-0.523v-0.212c0-0.41-0.102-0.702-0.304-0.877
					c-0.202-0.174-0.584-0.261-1.146-0.261c-0.379,0-0.676,0.074-0.888,0.224C456.489,356.731,456.317,356.993,456.186,357.368z
					 M459.038,359.098c-0.273,0.091-0.706,0.199-1.297,0.326c-0.592,0.126-0.979,0.25-1.161,0.371
					c-0.278,0.197-0.417,0.447-0.417,0.751c0,0.299,0.111,0.557,0.334,0.773c0.223,0.218,0.505,0.326,0.85,0.326
					c0.384,0,0.75-0.126,1.1-0.379c0.258-0.192,0.427-0.427,0.508-0.705c0.056-0.183,0.084-0.528,0.084-1.039V359.098z"/>
				<path fill="#FFFFFF" d="M470.62,362.966h-1.979v-1.184c-0.329,0.461-0.717,0.803-1.165,1.028
					c-0.447,0.225-0.898,0.337-1.354,0.337c-0.926,0-1.718-0.372-2.378-1.118c-0.659-0.746-0.989-1.787-0.989-3.122
					c0-1.365,0.32-2.403,0.963-3.113c0.643-0.711,1.453-1.065,2.436-1.065c0.899,0,1.678,0.374,2.336,1.122v-4.005h2.131V362.966z
					 M464.931,358.764c0,0.859,0.119,1.481,0.357,1.866c0.344,0.556,0.824,0.834,1.441,0.834c0.49,0,0.907-0.209,1.252-0.626
					c0.344-0.417,0.516-1.04,0.516-1.869c0-0.926-0.168-1.592-0.501-1.999c-0.334-0.407-0.761-0.61-1.282-0.61
					c-0.506,0-0.93,0.2-1.271,0.603S464.931,357.965,464.931,358.764z"/>
				<path fill="#FFFFFF" d="M472.229,358.824c0-0.708,0.175-1.394,0.523-2.056s0.843-1.168,1.483-1.518
					c0.639-0.349,1.354-0.522,2.143-0.522c1.219,0,2.217,0.396,2.996,1.187c0.779,0.792,1.168,1.792,1.168,3
					c0,1.219-0.393,2.229-1.18,3.03c-0.786,0.802-1.775,1.202-2.969,1.202c-0.739,0-1.443-0.166-2.113-0.5s-1.18-0.823-1.528-1.468
					S472.229,359.75,472.229,358.824z M474.413,358.938c0,0.8,0.189,1.411,0.568,1.836c0.38,0.425,0.848,0.638,1.404,0.638
					c0.556,0,1.022-0.213,1.398-0.638c0.377-0.425,0.566-1.041,0.566-1.851c0-0.789-0.189-1.396-0.566-1.82
					c-0.376-0.425-0.843-0.638-1.398-0.638c-0.557,0-1.024,0.213-1.404,0.638C474.603,357.527,474.413,358.139,474.413,358.938z"/>
				<path fill="#FFFFFF" d="M484.251,362.966h-2.131v-8.056h1.979v1.146c0.339-0.541,0.644-0.897,0.914-1.069
					s0.577-0.258,0.921-0.258c0.486,0,0.953,0.134,1.404,0.401l-0.66,1.858c-0.359-0.232-0.693-0.349-1.002-0.349
					c-0.298,0-0.551,0.082-0.758,0.246c-0.207,0.165-0.371,0.462-0.489,0.892c-0.119,0.43-0.179,1.33-0.179,2.7V362.966z"/>
				<path fill="#FFFFFF" d="M492.921,360.402l2.124,0.356c-0.272,0.778-0.704,1.371-1.293,1.778s-1.326,0.61-2.212,0.61
					c-1.4,0-2.438-0.457-3.109-1.372c-0.531-0.733-0.797-1.659-0.797-2.776c0-1.335,0.35-2.381,1.047-3.137
					c0.698-0.756,1.58-1.134,2.647-1.134c1.198,0,2.144,0.396,2.837,1.187c0.693,0.792,1.024,2.004,0.994,3.638h-5.34
					c0.015,0.632,0.187,1.124,0.516,1.475c0.328,0.352,0.738,0.527,1.229,0.527c0.334,0,0.614-0.091,0.842-0.272
					C492.633,361.1,492.805,360.807,492.921,360.402z M493.042,358.248c-0.015-0.617-0.174-1.086-0.477-1.407
					c-0.305-0.321-0.674-0.481-1.108-0.481c-0.466,0-0.85,0.169-1.153,0.508c-0.303,0.339-0.452,0.799-0.447,1.381H493.042z"/>
				<path fill="#FFFFFF" d="M496.146,360.667l2.139-0.326c0.091,0.415,0.275,0.729,0.554,0.945c0.278,0.215,0.667,0.322,1.168,0.322
					c0.552,0,0.966-0.102,1.244-0.304c0.187-0.142,0.28-0.331,0.28-0.569c0-0.161-0.051-0.296-0.151-0.401
					c-0.106-0.102-0.345-0.195-0.713-0.281c-1.72-0.379-2.81-0.726-3.27-1.039c-0.638-0.435-0.956-1.039-0.956-1.812
					c0-0.698,0.275-1.285,0.827-1.76c0.552-0.476,1.405-0.713,2.563-0.713c1.103,0,1.922,0.179,2.458,0.538s0.905,0.89,1.107,1.593
					l-2.011,0.372c-0.086-0.313-0.248-0.554-0.488-0.721s-0.583-0.25-1.028-0.25c-0.562,0-0.964,0.078-1.206,0.234
					c-0.162,0.111-0.242,0.256-0.242,0.433c0,0.151,0.07,0.28,0.212,0.387c0.192,0.142,0.856,0.342,1.991,0.6
					s1.928,0.574,2.378,0.948c0.445,0.379,0.667,0.907,0.667,1.585c0,0.738-0.308,1.373-0.925,1.904s-1.53,0.796-2.738,0.796
					c-1.097,0-1.966-0.222-2.605-0.667S496.343,361.431,496.146,360.667z"/>
			</g>
		</g>
		<g>
			<g>
				<path fill="#FFFFFF" d="M769.372,362.6v-15.398h4.99c1.891,0,3.123,0.077,3.697,0.231c0.882,0.231,1.621,0.733,2.216,1.507
					c0.595,0.774,0.893,1.773,0.893,2.999c0,0.945-0.171,1.74-0.515,2.385c-0.344,0.644-0.779,1.149-1.308,1.518
					c-0.528,0.367-1.065,0.61-1.612,0.729c-0.742,0.147-1.816,0.221-3.225,0.221h-2.027v5.809H769.372z M772.481,349.807v4.369
					h1.701c1.227,0,2.045-0.08,2.459-0.241c0.412-0.161,0.736-0.413,0.971-0.757c0.234-0.343,0.352-0.742,0.352-1.197
					c0-0.56-0.164-1.022-0.493-1.387c-0.329-0.363-0.745-0.591-1.25-0.683c-0.371-0.069-1.116-0.104-2.237-0.104H772.481z"/>
				<path fill="#FFFFFF" d="M783.017,356.864c0-0.979,0.242-1.929,0.725-2.846c0.483-0.918,1.168-1.618,2.054-2.101
					c0.886-0.483,1.874-0.726,2.968-0.726c1.687,0,3.07,0.549,4.148,1.645s1.617,2.48,1.617,4.154c0,1.688-0.545,3.086-1.633,4.195
					c-1.09,1.11-2.46,1.665-4.112,1.665c-1.022,0-1.997-0.23-2.925-0.693c-0.929-0.462-1.634-1.14-2.117-2.032
					C783.259,359.233,783.017,358.146,783.017,356.864z M786.042,357.022c0,1.106,0.262,1.953,0.787,2.542
					c0.525,0.588,1.173,0.882,1.943,0.882c0.77,0,1.416-0.294,1.938-0.882c0.521-0.589,0.783-1.442,0.783-2.563
					c0-1.092-0.262-1.933-0.783-2.521s-1.168-0.883-1.938-0.883c-0.771,0-1.418,0.295-1.943,0.883S786.042,355.916,786.042,357.022z
					"/>
				<path fill="#FFFFFF" d="M801.954,351.445v2.353h-2.017v4.495c0,0.91,0.019,1.441,0.058,1.592s0.126,0.274,0.263,0.373
					c0.137,0.098,0.303,0.146,0.499,0.146c0.273,0,0.668-0.095,1.188-0.283l0.252,2.289c-0.688,0.295-1.465,0.441-2.332,0.441
					c-0.533,0-1.012-0.089-1.439-0.268s-0.74-0.41-0.939-0.693c-0.2-0.283-0.338-0.667-0.416-1.15
					c-0.062-0.343-0.094-1.036-0.094-2.079v-4.863h-1.355v-2.353h1.355v-2.217l2.962-1.723v3.939H801.954z"/>
				<path fill="#FFFFFF" d="M810.462,359.05l2.941,0.493c-0.379,1.078-0.976,1.899-1.791,2.463
					c-0.816,0.564-1.836,0.846-3.062,0.846c-1.939,0-3.375-0.634-4.306-1.901c-0.735-1.015-1.103-2.296-1.103-3.844
					c0-1.849,0.482-3.297,1.449-4.344c0.967-1.046,2.188-1.57,3.666-1.57c1.659,0,2.969,0.549,3.928,1.645s1.418,2.774,1.376,5.036
					h-7.395c0.021,0.875,0.259,1.557,0.714,2.043s1.023,0.729,1.702,0.729c0.462,0,0.851-0.126,1.166-0.378
					S810.301,359.609,810.462,359.05z M810.63,356.066c-0.021-0.854-0.241-1.504-0.662-1.948c-0.42-0.444-0.931-0.667-1.533-0.667
					c-0.645,0-1.176,0.234-1.596,0.704c-0.42,0.469-0.627,1.106-0.62,1.911H810.63z"/>
				<path fill="#FFFFFF" d="M826.112,362.6h-2.951v-5.693c0-1.204-0.063-1.982-0.189-2.337c-0.126-0.354-0.331-0.628-0.614-0.824
					c-0.284-0.196-0.625-0.294-1.024-0.294c-0.512,0-0.97,0.14-1.376,0.42c-0.405,0.28-0.685,0.651-0.835,1.113
					s-0.226,1.316-0.226,2.563v5.052h-2.952v-11.154h2.742v1.638c0.973-1.26,2.198-1.891,3.676-1.891
					c0.651,0,1.246,0.118,1.785,0.353s0.947,0.534,1.225,0.897c0.276,0.364,0.469,0.777,0.578,1.24
					c0.107,0.462,0.162,1.123,0.162,1.984V362.6z"/>
				<path fill="#FFFFFF" d="M838.831,354.743l-2.908,0.525c-0.099-0.581-0.32-1.02-0.668-1.313c-0.346-0.294-0.797-0.441-1.35-0.441
					c-0.734,0-1.321,0.254-1.759,0.762c-0.438,0.508-0.657,1.357-0.657,2.547c0,1.324,0.223,2.259,0.668,2.805
					c0.444,0.546,1.041,0.819,1.791,0.819c0.56,0,1.018-0.159,1.375-0.478s0.609-0.867,0.757-1.645l2.899,0.494
					c-0.302,1.33-0.879,2.335-1.734,3.015c-0.854,0.679-1.998,1.019-3.434,1.019c-1.632,0-2.933-0.515-3.902-1.544
					c-0.971-1.029-1.455-2.454-1.455-4.274c0-1.842,0.486-3.275,1.461-4.302c0.973-1.025,2.289-1.539,3.949-1.539
					c1.357,0,2.438,0.293,3.24,0.878C837.905,352.654,838.481,353.546,838.831,354.743z"/>
				<path fill="#FFFFFF" d="M841.069,349.933v-2.731h2.951v2.731H841.069z M841.069,362.6v-11.154h2.951V362.6H841.069z"/>
				<path fill="#FFFFFF" d="M849.251,354.848l-2.678-0.482c0.301-1.079,0.818-1.877,1.555-2.396
					c0.734-0.518,1.827-0.777,3.276-0.777c1.316,0,2.297,0.156,2.94,0.468c0.645,0.312,1.098,0.707,1.361,1.187
					c0.262,0.48,0.394,1.36,0.394,2.642l-0.032,3.445c0,0.98,0.048,1.704,0.143,2.169c0.094,0.466,0.271,0.965,0.53,1.497h-2.92
					c-0.077-0.196-0.172-0.486-0.284-0.872c-0.049-0.175-0.084-0.29-0.104-0.347c-0.505,0.49-1.044,0.858-1.618,1.104
					s-1.187,0.367-1.838,0.367c-1.148,0-2.053-0.312-2.715-0.935s-0.992-1.411-0.992-2.363c0-0.63,0.15-1.192,0.451-1.686
					c0.301-0.494,0.723-0.872,1.266-1.135s1.325-0.492,2.348-0.688c1.379-0.26,2.336-0.501,2.867-0.726v-0.294
					c0-0.567-0.14-0.972-0.42-1.213s-0.809-0.362-1.586-0.362c-0.525,0-0.935,0.104-1.229,0.31
					C849.671,353.968,849.433,354.33,849.251,354.848z M853.2,357.243c-0.378,0.126-0.977,0.276-1.796,0.451
					s-1.354,0.347-1.606,0.515c-0.386,0.273-0.578,0.62-0.578,1.04c0,0.413,0.154,0.771,0.462,1.071s0.7,0.452,1.177,0.452
					c0.531,0,1.039-0.176,1.523-0.525c0.356-0.267,0.592-0.592,0.703-0.978c0.077-0.252,0.115-0.731,0.115-1.438V357.243z"/>
				<path fill="#FFFFFF" d="M869.239,362.6h-2.741v-1.639c-0.456,0.638-0.993,1.112-1.612,1.424
					c-0.62,0.311-1.244,0.467-1.875,0.467c-1.281,0-2.379-0.517-3.293-1.549c-0.914-1.033-1.371-2.474-1.371-4.322
					c0-1.891,0.445-3.328,1.334-4.312c0.89-0.984,2.014-1.477,3.372-1.477c1.246,0,2.325,0.519,3.235,1.555v-5.546h2.951V362.6z
					 M861.362,356.78c0,1.19,0.164,2.052,0.493,2.584c0.476,0.771,1.142,1.155,1.995,1.155c0.68,0,1.258-0.288,1.733-0.866
					c0.476-0.577,0.714-1.44,0.714-2.589c0-1.281-0.23-2.204-0.693-2.768c-0.461-0.563-1.053-0.846-1.774-0.846
					c-0.7,0-1.286,0.278-1.759,0.835S861.362,355.675,861.362,356.78z"/>
				<path fill="#FFFFFF" d="M871.466,356.864c0-0.979,0.242-1.929,0.725-2.846c0.483-0.918,1.168-1.618,2.054-2.101
					c0.886-0.483,1.874-0.726,2.968-0.726c1.687,0,3.07,0.549,4.148,1.645s1.617,2.48,1.617,4.154c0,1.688-0.545,3.086-1.633,4.195
					c-1.09,1.11-2.46,1.665-4.112,1.665c-1.022,0-1.997-0.23-2.925-0.693c-0.929-0.462-1.634-1.14-2.117-2.032
					C871.708,359.233,871.466,358.146,871.466,356.864z M874.491,357.022c0,1.106,0.262,1.953,0.787,2.542
					c0.525,0.588,1.173,0.882,1.943,0.882c0.77,0,1.416-0.294,1.938-0.882c0.521-0.589,0.783-1.442,0.783-2.563
					c0-1.092-0.262-1.933-0.783-2.521s-1.168-0.883-1.938-0.883c-0.771,0-1.418,0.295-1.943,0.883S874.491,355.916,874.491,357.022z
					"/>
				<path fill="#FFFFFF" d="M888.114,362.6h-2.952v-11.154h2.741v1.586c0.469-0.75,0.891-1.243,1.266-1.481s0.801-0.357,1.276-0.357
					c0.673,0,1.319,0.187,1.943,0.557l-0.914,2.574c-0.497-0.322-0.96-0.483-1.386-0.483c-0.414,0-0.764,0.113-1.051,0.341
					s-0.514,0.64-0.678,1.234c-0.164,0.596-0.246,1.842-0.246,3.739V362.6z"/>
				<path fill="#FFFFFF" d="M900.119,359.05l2.94,0.493c-0.378,1.078-0.975,1.899-1.791,2.463c-0.815,0.564-1.836,0.846-3.062,0.846
					c-1.939,0-3.375-0.634-4.306-1.901c-0.736-1.015-1.104-2.296-1.104-3.844c0-1.849,0.483-3.297,1.449-4.344
					c0.967-1.046,2.188-1.57,3.666-1.57c1.66,0,2.969,0.549,3.928,1.645c0.96,1.096,1.418,2.774,1.377,5.036h-7.395
					c0.021,0.875,0.259,1.557,0.714,2.043s1.022,0.729,1.702,0.729c0.462,0,0.85-0.126,1.166-0.378
					C899.72,360.016,899.958,359.609,900.119,359.05z M900.287,356.066c-0.021-0.854-0.241-1.504-0.662-1.948
					c-0.42-0.444-0.931-0.667-1.533-0.667c-0.645,0-1.177,0.234-1.597,0.704c-0.42,0.469-0.627,1.106-0.619,1.911H900.287z"/>
				<path fill="#FFFFFF" d="M904.583,359.417l2.962-0.451c0.126,0.574,0.382,1.01,0.767,1.308c0.385,0.297,0.924,0.446,1.617,0.446
					c0.764,0,1.338-0.141,1.723-0.42c0.26-0.196,0.389-0.459,0.389-0.788c0-0.225-0.07-0.41-0.21-0.557
					c-0.147-0.141-0.476-0.27-0.987-0.389c-2.381-0.525-3.89-1.005-4.527-1.439c-0.882-0.602-1.323-1.438-1.323-2.51
					c0-0.967,0.382-1.778,1.146-2.438c0.763-0.657,1.946-0.987,3.55-0.987c1.526,0,2.661,0.249,3.403,0.746s1.253,1.232,1.533,2.206
					l-2.783,0.515c-0.119-0.435-0.346-0.767-0.678-0.998s-0.807-0.347-1.423-0.347c-0.777,0-1.334,0.108-1.671,0.325
					c-0.224,0.154-0.336,0.354-0.336,0.6c0,0.21,0.099,0.389,0.295,0.535c0.266,0.196,1.185,0.473,2.757,0.83
					c1.571,0.356,2.669,0.795,3.293,1.312c0.616,0.525,0.925,1.257,0.925,2.195c0,1.022-0.428,1.901-1.282,2.637
					s-2.118,1.103-3.792,1.103c-1.52,0-2.722-0.308-3.607-0.924C905.435,361.312,904.856,360.475,904.583,359.417z"/>
				<path fill="#FFFFFF" d="M772.839,405.232c-1.043-1.316-1.926-2.857-2.646-4.622c-0.722-1.765-1.082-3.592-1.082-5.482
					c0-1.667,0.27-3.264,0.809-4.79c0.63-1.771,1.604-3.536,2.92-5.294h1.355c-0.848,1.457-1.408,2.497-1.682,3.12
					c-0.427,0.966-0.763,1.975-1.008,3.024c-0.301,1.31-0.451,2.626-0.451,3.95c0,3.368,1.047,6.732,3.141,10.094H772.839z"/>
				<path fill="#FFFFFF" d="M778.773,392.354c-0.784-0.287-1.365-0.696-1.743-1.229c-0.379-0.532-0.567-1.169-0.567-1.912
					c0-1.12,0.402-2.062,1.208-2.825c0.805-0.763,1.876-1.145,3.214-1.145c1.345,0,2.427,0.391,3.245,1.171
					c0.82,0.781,1.229,1.731,1.229,2.852c0,0.715-0.188,1.336-0.562,1.864c-0.375,0.529-0.944,0.937-1.707,1.224
					c0.945,0.309,1.664,0.806,2.158,1.492c0.494,0.686,0.74,1.505,0.74,2.457c0,1.317-0.466,2.423-1.396,3.319
					c-0.932,0.896-2.157,1.345-3.677,1.345s-2.745-0.45-3.677-1.35c-0.931-0.899-1.396-2.022-1.396-3.366
					c0-1.002,0.254-1.84,0.762-2.516S777.835,392.6,778.773,392.354z M777.786,396.262c0,0.54,0.127,1.062,0.383,1.565
					s0.637,0.895,1.141,1.171c0.504,0.277,1.047,0.415,1.627,0.415c0.904,0,1.65-0.29,2.238-0.872
					c0.588-0.581,0.882-1.319,0.882-2.216c0-0.91-0.303-1.663-0.909-2.259c-0.605-0.595-1.363-0.893-2.273-0.893
					c-0.889,0-1.627,0.294-2.211,0.883C778.079,394.645,777.786,395.38,777.786,396.262z M778.396,389.151
					c0,0.729,0.234,1.323,0.703,1.785c0.469,0.463,1.078,0.693,1.828,0.693c0.729,0,1.325-0.229,1.791-0.688
					c0.465-0.459,0.698-1.021,0.698-1.687c0-0.692-0.239-1.275-0.72-1.748c-0.479-0.473-1.076-0.709-1.791-0.709
					c-0.721,0-1.32,0.23-1.796,0.692C778.634,387.954,778.396,388.507,778.396,389.151z"/>
				<path fill="#FFFFFF" d="M789.592,405.232h-1.354c2.094-3.361,3.141-6.726,3.141-10.094c0-1.316-0.15-2.623-0.452-3.918
					c-0.237-1.051-0.571-2.059-0.997-3.025c-0.273-0.63-0.838-1.681-1.691-3.151h1.354c1.316,1.758,2.29,3.522,2.92,5.294
					c0.54,1.526,0.81,3.123,0.81,4.79c0,1.891-0.363,3.718-1.088,5.482S790.628,403.916,789.592,405.232z"/>
				<path fill="#FFFFFF" d="M805.263,400.705v-13.581h-5.072v-1.817h12.205v1.817h-5.094v13.581H805.263z"/>
				<path fill="#FFFFFF" d="M811.155,395.128c0-2.065,0.574-3.596,1.723-4.59c0.959-0.826,2.129-1.24,3.508-1.24
					c1.534,0,2.787,0.503,3.761,1.508s1.46,2.393,1.46,4.164c0,1.436-0.215,2.565-0.646,3.388c-0.43,0.823-1.057,1.462-1.879,1.917
					c-0.823,0.455-1.722,0.683-2.695,0.683c-1.561,0-2.823-0.5-3.785-1.502C811.638,398.454,811.155,397.012,811.155,395.128z
					 M813.099,395.128c0,1.429,0.312,2.498,0.936,3.209c0.623,0.71,1.406,1.065,2.352,1.065c0.939,0,1.72-0.356,2.343-1.071
					c0.624-0.714,0.935-1.803,0.935-3.267c0-1.379-0.312-2.424-0.939-3.135s-1.406-1.066-2.338-1.066
					c-0.945,0-1.729,0.354-2.352,1.061C813.41,392.632,813.099,393.699,813.099,395.128z"/>
				<path fill="#FFFFFF" d="M823.823,400.705v-11.154h1.69v1.564c0.351-0.546,0.815-0.985,1.397-1.318
					c0.58-0.332,1.242-0.499,1.984-0.499c0.826,0,1.504,0.172,2.033,0.515c0.528,0.344,0.901,0.823,1.118,1.439
					c0.882-1.303,2.03-1.954,3.445-1.954c1.106,0,1.957,0.307,2.552,0.92c0.596,0.612,0.894,1.556,0.894,2.83v7.657h-1.88v-7.026
					c0-0.757-0.062-1.301-0.184-1.634c-0.123-0.332-0.346-0.601-0.668-0.804s-0.7-0.305-1.135-0.305
					c-0.783,0-1.436,0.262-1.953,0.783s-0.777,1.356-0.777,2.505v6.48h-1.891v-7.247c0-0.841-0.154-1.471-0.462-1.891
					c-0.308-0.421-0.812-0.631-1.513-0.631c-0.532,0-1.023,0.141-1.476,0.421c-0.452,0.279-0.778,0.689-0.981,1.229
					s-0.305,1.316-0.305,2.332v5.787H823.823z"/>
				<path fill="#FFFFFF" d="M849.021,399.329c-0.7,0.596-1.374,1.016-2.021,1.261c-0.648,0.245-1.344,0.367-2.086,0.367
					c-1.225,0-2.166-0.299-2.824-0.897c-0.658-0.6-0.988-1.364-0.988-2.296c0-0.546,0.125-1.045,0.373-1.496
					c0.248-0.452,0.574-0.814,0.977-1.087c0.402-0.273,0.856-0.479,1.361-0.62c0.371-0.098,0.931-0.192,1.68-0.283
					c1.527-0.183,2.65-0.399,3.372-0.651c0.007-0.259,0.011-0.424,0.011-0.494c0-0.77-0.18-1.312-0.536-1.628
					c-0.483-0.427-1.201-0.641-2.153-0.641c-0.889,0-1.546,0.156-1.969,0.468c-0.424,0.312-0.738,0.862-0.94,1.654l-1.849-0.252
					c0.168-0.792,0.444-1.431,0.83-1.917c0.385-0.487,0.941-0.861,1.67-1.124s1.572-0.395,2.531-0.395
					c0.952,0,1.726,0.112,2.32,0.337c0.596,0.224,1.033,0.506,1.313,0.845c0.28,0.34,0.476,0.769,0.589,1.287
					c0.062,0.322,0.094,0.903,0.094,1.743v2.521c0,1.758,0.041,2.869,0.121,3.335s0.24,0.912,0.479,1.339h-1.975
					C849.202,400.313,849.077,399.854,849.021,399.329z M848.863,395.106c-0.687,0.28-1.716,0.519-3.089,0.715
					c-0.777,0.111-1.326,0.238-1.648,0.378s-0.57,0.345-0.746,0.614c-0.175,0.27-0.262,0.569-0.262,0.898
					c0,0.504,0.19,0.924,0.572,1.26c0.381,0.337,0.939,0.505,1.675,0.505c0.729,0,1.376-0.159,1.943-0.479
					c0.567-0.318,0.983-0.754,1.25-1.308c0.203-0.427,0.305-1.057,0.305-1.891V395.106z"/>
				<path fill="#FFFFFF" d="M866.919,400.705v-1.407c-0.707,1.106-1.748,1.659-3.12,1.659c-0.89,0-1.706-0.245-2.452-0.735
					s-1.324-1.175-1.733-2.053c-0.409-0.879-0.614-1.89-0.614-3.03c0-1.114,0.186-2.124,0.557-3.03
					c0.371-0.907,0.928-1.603,1.67-2.085c0.742-0.483,1.572-0.726,2.489-0.726c0.673,0,1.271,0.143,1.796,0.426
					s0.953,0.653,1.281,1.108v-5.525h1.881v15.398H866.919z M860.942,395.139c0,1.428,0.301,2.496,0.902,3.203
					c0.604,0.707,1.313,1.061,2.133,1.061c0.826,0,1.528-0.338,2.105-1.014c0.578-0.675,0.867-1.706,0.867-3.093
					c0-1.526-0.295-2.647-0.883-3.361s-1.312-1.071-2.174-1.071c-0.84,0-1.543,0.343-2.105,1.029
					C861.224,392.579,860.942,393.661,860.942,395.139z"/>
				<path fill="#FFFFFF" d="M879.281,397.113l1.954,0.241c-0.309,1.142-0.879,2.027-1.713,2.657
					c-0.833,0.63-1.897,0.945-3.193,0.945c-1.631,0-2.925-0.502-3.881-1.507c-0.955-1.005-1.434-2.414-1.434-4.228
					c0-1.877,0.483-3.333,1.449-4.37c0.967-1.036,2.221-1.555,3.761-1.555c1.491,0,2.71,0.508,3.655,1.523s1.418,2.444,1.418,4.285
					c0,0.112-0.004,0.28-0.011,0.505h-8.319c0.07,1.225,0.417,2.163,1.041,2.814c0.623,0.651,1.4,0.977,2.332,0.977
					c0.692,0,1.284-0.182,1.774-0.546S878.993,397.911,879.281,397.113z M873.073,394.057h6.229
					c-0.084-0.938-0.322-1.643-0.714-2.111c-0.603-0.729-1.384-1.093-2.343-1.093c-0.867,0-1.598,0.291-2.189,0.872
					S873.137,393.083,873.073,394.057z"/>
				<path fill="#FFFFFF" d="M896.864,396.619l1.859,0.241c-0.203,1.282-0.724,2.285-1.561,3.01s-1.864,1.087-3.082,1.087
					c-1.527,0-2.754-0.499-3.682-1.497c-0.928-0.997-1.393-2.428-1.393-4.29c0-1.204,0.2-2.259,0.6-3.162
					c0.398-0.903,1.006-1.58,1.822-2.032c0.815-0.451,1.703-0.678,2.662-0.678c1.211,0,2.202,0.307,2.973,0.92
					c0.77,0.612,1.264,1.482,1.48,2.609l-1.838,0.284c-0.175-0.749-0.484-1.313-0.93-1.691c-0.444-0.378-0.981-0.567-1.611-0.567
					c-0.953,0-1.727,0.342-2.322,1.024c-0.595,0.683-0.893,1.763-0.893,3.24c0,1.499,0.287,2.588,0.861,3.267
					c0.574,0.68,1.324,1.019,2.248,1.019c0.742,0,1.361-0.228,1.859-0.683C896.415,398.265,896.731,397.564,896.864,396.619z"/>
				<path fill="#FFFFFF" d="M899.637,395.128c0-2.065,0.573-3.596,1.723-4.59c0.959-0.826,2.128-1.24,3.508-1.24
					c1.534,0,2.787,0.503,3.761,1.508c0.973,1.005,1.459,2.393,1.459,4.164c0,1.436-0.215,2.565-0.646,3.388
					c-0.431,0.823-1.058,1.462-1.88,1.917s-1.721,0.683-2.694,0.683c-1.562,0-2.823-0.5-3.786-1.502
					C900.118,398.454,899.637,397.012,899.637,395.128z M901.579,395.128c0,1.429,0.312,2.498,0.936,3.209
					c0.623,0.71,1.407,1.065,2.353,1.065c0.938,0,1.72-0.356,2.343-1.071c0.623-0.714,0.935-1.803,0.935-3.267
					c0-1.379-0.313-2.424-0.94-3.135s-1.406-1.066-2.337-1.066c-0.945,0-1.729,0.354-2.353,1.061
					C901.892,392.632,901.579,393.699,901.579,395.128z"/>
				<path fill="#FFFFFF" d="M912.304,400.705v-11.154h1.701v1.586c0.82-1.226,2.003-1.839,3.551-1.839
					c0.672,0,1.29,0.121,1.854,0.363c0.564,0.241,0.986,0.558,1.266,0.95c0.28,0.393,0.477,0.857,0.588,1.396
					c0.07,0.351,0.105,0.963,0.105,1.839v6.858h-1.891v-6.785c0-0.771-0.073-1.347-0.221-1.728
					c-0.146-0.382-0.408-0.687-0.782-0.914c-0.375-0.228-0.813-0.342-1.318-0.342c-0.806,0-1.501,0.256-2.085,0.767
					c-0.584,0.512-0.877,1.481-0.877,2.91v6.092H912.304z"/>
				<path fill="#FFFFFF" d="M931.546,396.619l1.859,0.241c-0.203,1.282-0.723,2.285-1.561,3.01
					c-0.836,0.725-1.863,1.087-3.082,1.087c-1.527,0-2.754-0.499-3.682-1.497c-0.928-0.997-1.392-2.428-1.392-4.29
					c0-1.204,0.2-2.259,0.599-3.162s1.006-1.58,1.822-2.032c0.816-0.451,1.703-0.678,2.662-0.678c1.212,0,2.203,0.307,2.973,0.92
					c0.771,0.612,1.264,1.482,1.481,2.609l-1.838,0.284c-0.175-0.749-0.485-1.313-0.93-1.691s-0.981-0.567-1.612-0.567
					c-0.953,0-1.727,0.342-2.321,1.024s-0.894,1.763-0.894,3.24c0,1.499,0.287,2.588,0.861,3.267
					c0.574,0.68,1.324,1.019,2.248,1.019c0.742,0,1.362-0.228,1.859-0.683S931.413,397.564,931.546,396.619z"/>
				<path fill="#FFFFFF" d="M935.033,387.481v-2.175h1.891v2.175H935.033z M935.033,400.705v-11.154h1.891v11.154H935.033z"/>
				<path fill="#FFFFFF" d="M947.438,397.113l1.953,0.241c-0.309,1.142-0.879,2.027-1.713,2.657
					c-0.832,0.63-1.896,0.945-3.192,0.945c-1.632,0-2.925-0.502-3.881-1.507s-1.435-2.414-1.435-4.228
					c0-1.877,0.484-3.333,1.45-4.37c0.966-1.036,2.22-1.555,3.761-1.555c1.49,0,2.709,0.508,3.654,1.523s1.418,2.444,1.418,4.285
					c0,0.112-0.004,0.28-0.01,0.505h-8.319c0.07,1.225,0.417,2.163,1.04,2.814s1.4,0.977,2.332,0.977
					c0.693,0,1.285-0.182,1.775-0.546S947.15,397.911,947.438,397.113z M941.23,394.057h6.229c-0.084-0.938-0.322-1.643-0.714-2.111
					c-0.604-0.729-1.384-1.093-2.343-1.093c-0.868,0-1.599,0.291-2.19,0.872S941.294,393.083,941.23,394.057z"/>
				<path fill="#FFFFFF" d="M951.765,400.705v-11.154h1.702v1.586c0.819-1.226,2.003-1.839,3.55-1.839
					c0.672,0,1.291,0.121,1.854,0.363c0.564,0.241,0.986,0.558,1.266,0.95c0.281,0.393,0.477,0.857,0.589,1.396
					c0.069,0.351,0.104,0.963,0.104,1.839v6.858h-1.891v-6.785c0-0.771-0.072-1.347-0.221-1.728
					c-0.146-0.382-0.407-0.687-0.781-0.914c-0.375-0.228-0.814-0.342-1.318-0.342c-0.806,0-1.501,0.256-2.086,0.767
					c-0.584,0.512-0.877,1.481-0.877,2.91v6.092H951.765z"/>
				<path fill="#FFFFFF" d="M971.007,396.619l1.859,0.241c-0.203,1.282-0.723,2.285-1.56,3.01s-1.864,1.087-3.083,1.087
					c-1.526,0-2.754-0.499-3.682-1.497c-0.928-0.997-1.391-2.428-1.391-4.29c0-1.204,0.199-2.259,0.598-3.162
					c0.399-0.903,1.007-1.58,1.822-2.032c0.816-0.451,1.703-0.678,2.663-0.678c1.212,0,2.202,0.307,2.973,0.92
					c0.771,0.612,1.264,1.482,1.481,2.609l-1.838,0.284c-0.176-0.749-0.486-1.313-0.93-1.691c-0.445-0.378-0.982-0.567-1.613-0.567
					c-0.952,0-1.726,0.342-2.32,1.024c-0.596,0.683-0.894,1.763-0.894,3.24c0,1.499,0.287,2.588,0.861,3.267
					c0.574,0.68,1.323,1.019,2.248,1.019c0.742,0,1.362-0.228,1.858-0.683C970.56,398.265,970.874,397.564,971.007,396.619z"/>
				<path fill="#FFFFFF" d="M974.495,387.481v-2.175h1.891v2.175H974.495z M974.495,400.705v-11.154h1.891v11.154H974.495z"/>
				<path fill="#FFFFFF" d="M986.542,399.329c-0.7,0.596-1.374,1.016-2.021,1.261c-0.648,0.245-1.344,0.367-2.086,0.367
					c-1.225,0-2.166-0.299-2.824-0.897c-0.658-0.6-0.988-1.364-0.988-2.296c0-0.546,0.125-1.045,0.373-1.496
					c0.248-0.452,0.574-0.814,0.977-1.087c0.402-0.273,0.856-0.479,1.361-0.62c0.371-0.098,0.931-0.192,1.68-0.283
					c1.527-0.183,2.65-0.399,3.372-0.651c0.007-0.259,0.011-0.424,0.011-0.494c0-0.77-0.18-1.312-0.536-1.628
					c-0.483-0.427-1.201-0.641-2.153-0.641c-0.889,0-1.546,0.156-1.969,0.468c-0.424,0.312-0.738,0.862-0.94,1.654l-1.849-0.252
					c0.168-0.792,0.444-1.431,0.83-1.917c0.385-0.487,0.941-0.861,1.67-1.124s1.572-0.395,2.531-0.395
					c0.952,0,1.726,0.112,2.32,0.337c0.596,0.224,1.033,0.506,1.313,0.845c0.28,0.34,0.476,0.769,0.589,1.287
					c0.062,0.322,0.094,0.903,0.094,1.743v2.521c0,1.758,0.041,2.869,0.121,3.335s0.24,0.912,0.479,1.339h-1.975
					C986.724,400.313,986.599,399.854,986.542,399.329z M986.385,395.106c-0.687,0.28-1.716,0.519-3.089,0.715
					c-0.777,0.111-1.326,0.238-1.648,0.378s-0.57,0.345-0.746,0.614c-0.175,0.27-0.262,0.569-0.262,0.898
					c0,0.504,0.19,0.924,0.572,1.26c0.381,0.337,0.939,0.505,1.675,0.505c0.729,0,1.376-0.159,1.943-0.479
					c0.567-0.318,0.983-0.754,1.25-1.308c0.203-0.427,0.305-1.057,0.305-1.891V395.106z"/>
				<path fill="#FFFFFF" d="M772.839,431.046c-1.043-1.316-1.926-2.857-2.646-4.622c-0.722-1.765-1.082-3.592-1.082-5.482
					c0-1.667,0.27-3.264,0.809-4.79c0.63-1.771,1.604-3.536,2.92-5.294h1.355c-0.848,1.457-1.408,2.497-1.682,3.12
					c-0.427,0.966-0.763,1.975-1.008,3.024c-0.301,1.31-0.451,2.626-0.451,3.95c0,3.368,1.047,6.732,3.141,10.094H772.839z"/>
				<path fill="#FFFFFF" d="M776.147,422.958l1.817-0.168c0.153,0.854,0.448,1.474,0.882,1.859c0.435,0.385,0.991,0.577,1.67,0.577
					c0.582,0,1.091-0.133,1.529-0.399c0.438-0.266,0.796-0.621,1.076-1.065c0.279-0.445,0.515-1.046,0.703-1.802
					c0.189-0.756,0.284-1.526,0.284-2.311c0-0.084-0.004-0.21-0.011-0.378c-0.378,0.602-0.895,1.091-1.549,1.465
					c-0.655,0.375-1.364,0.562-2.127,0.562c-1.275,0-2.354-0.462-3.235-1.386c-0.882-0.925-1.323-2.143-1.323-3.655
					c0-1.562,0.46-2.818,1.381-3.771c0.921-0.953,2.074-1.429,3.461-1.429c1.002,0,1.917,0.27,2.746,0.809
					c0.83,0.539,1.461,1.308,1.891,2.306c0.432,0.998,0.646,2.441,0.646,4.332c0,1.968-0.213,3.535-0.641,4.701
					c-0.428,1.165-1.062,2.053-1.906,2.662s-1.833,0.914-2.967,0.914c-1.205,0-2.189-0.334-2.952-1.003
					S776.302,424.169,776.147,422.958z M783.889,416.162c0-1.085-0.289-1.946-0.866-2.584c-0.578-0.637-1.273-0.956-2.086-0.956
					c-0.84,0-1.571,0.344-2.194,1.029c-0.624,0.687-0.935,1.576-0.935,2.668c0,0.98,0.295,1.777,0.887,2.39
					c0.592,0.613,1.322,0.919,2.19,0.919c0.875,0,1.595-0.306,2.158-0.919C783.606,418.097,783.889,417.248,783.889,416.162z"/>
				<path fill="#FFFFFF" d="M789.592,431.046h-1.354c2.094-3.361,3.141-6.726,3.141-10.094c0-1.316-0.15-2.623-0.452-3.918
					c-0.237-1.051-0.571-2.059-0.997-3.025c-0.273-0.63-0.838-1.681-1.691-3.151h1.354c1.316,1.758,2.29,3.522,2.92,5.294
					c0.54,1.526,0.81,3.123,0.81,4.79c0,1.891-0.363,3.718-1.088,5.482S790.628,429.729,789.592,431.046z"/>
				<path fill="#FFFFFF" d="M798.856,426.519l5.913-15.398h2.195l6.302,15.398h-2.32l-1.797-4.663h-6.438l-1.69,4.663H798.856z
					 M803.3,420.195h5.22l-1.606-4.265c-0.49-1.295-0.855-2.359-1.094-3.192c-0.195,0.987-0.473,1.968-0.829,2.94L803.3,420.195z"/>
				<path fill="#FFFFFF" d="M821.933,422.433l1.859,0.241c-0.203,1.282-0.724,2.285-1.561,3.01s-1.864,1.087-3.082,1.087
					c-1.527,0-2.754-0.499-3.682-1.497c-0.928-0.997-1.393-2.428-1.393-4.29c0-1.204,0.2-2.259,0.6-3.162
					c0.398-0.903,1.006-1.58,1.822-2.032c0.815-0.451,1.703-0.678,2.662-0.678c1.211,0,2.202,0.307,2.973,0.92
					c0.77,0.612,1.264,1.482,1.48,2.609l-1.838,0.284c-0.175-0.749-0.484-1.313-0.93-1.691c-0.444-0.378-0.981-0.567-1.611-0.567
					c-0.953,0-1.727,0.342-2.322,1.024c-0.595,0.683-0.893,1.763-0.893,3.24c0,1.499,0.287,2.588,0.861,3.267
					c0.574,0.68,1.324,1.019,2.248,1.019c0.742,0,1.361-0.228,1.859-0.683C821.483,424.078,821.8,423.378,821.933,422.433z"/>
				<path fill="#FFFFFF" d="M832.688,422.433l1.859,0.241c-0.203,1.282-0.724,2.285-1.56,3.01c-0.838,0.725-1.865,1.087-3.083,1.087
					c-1.526,0-2.754-0.499-3.682-1.497c-0.928-0.997-1.392-2.428-1.392-4.29c0-1.204,0.199-2.259,0.599-3.162
					s1.007-1.58,1.822-2.032c0.815-0.451,1.703-0.678,2.663-0.678c1.211,0,2.201,0.307,2.973,0.92
					c0.77,0.612,1.264,1.482,1.48,2.609l-1.838,0.284c-0.176-0.749-0.485-1.313-0.93-1.691c-0.445-0.378-0.982-0.567-1.612-0.567
					c-0.952,0-1.726,0.342-2.321,1.024s-0.893,1.763-0.893,3.24c0,1.499,0.287,2.588,0.861,3.267
					c0.574,0.68,1.323,1.019,2.248,1.019c0.742,0,1.361-0.228,1.858-0.683S832.555,423.378,832.688,422.433z"/>
				<path fill="#FFFFFF" d="M843.8,422.927l1.954,0.241c-0.309,1.142-0.879,2.027-1.712,2.657c-0.834,0.63-1.898,0.945-3.193,0.945
					c-1.632,0-2.926-0.502-3.881-1.507c-0.956-1.005-1.434-2.414-1.434-4.228c0-1.877,0.482-3.333,1.449-4.37
					c0.967-1.036,2.22-1.555,3.76-1.555c1.492,0,2.711,0.508,3.656,1.523s1.418,2.444,1.418,4.285c0,0.112-0.004,0.28-0.012,0.505
					h-8.318c0.07,1.225,0.416,2.163,1.04,2.814c0.623,0.651,1.4,0.977,2.332,0.977c0.692,0,1.284-0.182,1.774-0.546
					S843.513,423.725,843.8,422.927z M837.593,419.87h6.229c-0.084-0.938-0.322-1.643-0.715-2.111
					c-0.602-0.729-1.383-1.093-2.342-1.093c-0.868,0-1.598,0.291-2.189,0.872S837.655,418.896,837.593,419.87z"/>
				<path fill="#FFFFFF" d="M847.371,423.188l1.87-0.294c0.104,0.75,0.396,1.324,0.877,1.723c0.479,0.399,1.15,0.599,2.012,0.599
					c0.867,0,1.512-0.177,1.932-0.53s0.631-0.769,0.631-1.244c0-0.428-0.186-0.764-0.557-1.009c-0.26-0.168-0.904-0.382-1.934-0.641
					c-1.386-0.35-2.347-0.653-2.883-0.908c-0.535-0.256-0.941-0.609-1.219-1.062c-0.275-0.451-0.414-0.95-0.414-1.496
					c0-0.497,0.113-0.958,0.342-1.382c0.227-0.423,0.537-0.775,0.929-1.056c0.294-0.217,0.694-0.4,1.202-0.551
					s1.053-0.227,1.634-0.227c0.876,0,1.644,0.127,2.306,0.379s1.15,0.593,1.465,1.023c0.315,0.431,0.533,1.007,0.652,1.729
					l-1.85,0.252c-0.084-0.574-0.327-1.022-0.729-1.345c-0.403-0.322-0.972-0.483-1.707-0.483c-0.868,0-1.487,0.144-1.858,0.431
					c-0.372,0.287-0.558,0.624-0.558,1.009c0,0.245,0.077,0.466,0.231,0.661c0.154,0.203,0.396,0.372,0.725,0.505
					c0.189,0.069,0.746,0.23,1.67,0.482c1.338,0.357,2.271,0.65,2.799,0.877c0.529,0.229,0.943,0.559,1.245,0.993
					s0.452,0.974,0.452,1.617c0,0.631-0.184,1.224-0.552,1.78s-0.897,0.987-1.591,1.292s-1.479,0.457-2.354,0.457
					c-1.449,0-2.555-0.301-3.313-0.903C848.065,425.266,847.581,424.372,847.371,423.188z"/>
				<path fill="#FFFFFF" d="M858.894,413.295v-2.175h1.891v2.175H858.894z M858.894,426.519v-11.154h1.891v11.154H858.894z"/>
				<path fill="#FFFFFF" d="M865.405,426.519h-1.754V411.12h1.891v5.493c0.799-1.001,1.817-1.502,3.057-1.502
					c0.687,0,1.336,0.139,1.949,0.415c0.611,0.277,1.116,0.666,1.512,1.166c0.396,0.501,0.705,1.104,0.93,1.812
					c0.225,0.708,0.336,1.464,0.336,2.27c0,1.911-0.473,3.389-1.418,4.433c-0.945,1.043-2.08,1.564-3.402,1.564
					c-1.317,0-2.35-0.55-3.1-1.648V426.519z M865.385,420.857c0,1.337,0.183,2.304,0.546,2.898c0.596,0.974,1.4,1.46,2.416,1.46
					c0.826,0,1.541-0.358,2.143-1.076s0.903-1.787,0.903-3.209c0-1.456-0.288-2.531-0.866-3.225s-1.276-1.04-2.096-1.04
					c-0.826,0-1.541,0.359-2.143,1.077C865.686,418.461,865.385,419.499,865.385,420.857z"/>
				<path fill="#FFFFFF" d="M875.636,413.295v-2.175h1.891v2.175H875.636z M875.636,426.519v-11.154h1.891v11.154H875.636z"/>
				<path fill="#FFFFFF" d="M880.362,426.519V411.12h1.891v15.398H880.362z"/>
				<path fill="#FFFFFF" d="M885.194,413.295v-2.175h1.891v2.175H885.194z M885.194,426.519v-11.154h1.891v11.154H885.194z"/>
				<path fill="#FFFFFF" d="M897.2,426.519v-1.407c-0.707,1.106-1.747,1.659-3.119,1.659c-0.89,0-1.707-0.245-2.453-0.735
					s-1.323-1.175-1.732-2.053c-0.41-0.879-0.615-1.89-0.615-3.03c0-1.114,0.186-2.124,0.557-3.03
					c0.371-0.907,0.928-1.603,1.67-2.085c0.742-0.483,1.572-0.726,2.49-0.726c0.672,0,1.271,0.143,1.796,0.426
					c0.524,0.283,0.952,0.653,1.281,1.108v-5.525h1.88v15.398H897.2z M891.224,420.952c0,1.428,0.301,2.496,0.903,3.203
					s1.313,1.061,2.132,1.061c0.826,0,1.529-0.338,2.106-1.014c0.577-0.675,0.866-1.706,0.866-3.093
					c0-1.526-0.294-2.647-0.882-3.361c-0.589-0.714-1.313-1.071-2.175-1.071c-0.84,0-1.542,0.343-2.105,1.029
					C891.505,418.393,891.224,419.475,891.224,420.952z"/>
				<path fill="#FFFFFF" d="M909.206,425.143c-0.701,0.596-1.375,1.016-2.022,1.261s-1.343,0.367-2.085,0.367
					c-1.225,0-2.167-0.299-2.825-0.897c-0.658-0.6-0.987-1.364-0.987-2.296c0-0.546,0.124-1.045,0.373-1.496
					c0.248-0.452,0.574-0.814,0.977-1.087c0.402-0.273,0.855-0.479,1.36-0.62c0.371-0.098,0.931-0.192,1.681-0.283
					c1.526-0.183,2.65-0.399,3.371-0.651c0.008-0.259,0.011-0.424,0.011-0.494c0-0.77-0.179-1.312-0.536-1.628
					c-0.482-0.427-1.201-0.641-2.152-0.641c-0.89,0-1.547,0.156-1.97,0.468c-0.424,0.312-0.737,0.862-0.94,1.654l-1.848-0.252
					c0.168-0.792,0.443-1.431,0.829-1.917c0.386-0.487,0.942-0.861,1.67-1.124c0.729-0.263,1.572-0.395,2.532-0.395
					c0.951,0,1.725,0.112,2.32,0.337c0.596,0.224,1.033,0.506,1.312,0.845c0.281,0.34,0.477,0.769,0.589,1.287
					c0.063,0.322,0.095,0.903,0.095,1.743v2.521c0,1.758,0.04,2.869,0.121,3.335c0.08,0.466,0.239,0.912,0.478,1.339h-1.975
					C909.388,426.127,909.262,425.668,909.206,425.143z M909.048,420.92c-0.686,0.28-1.715,0.519-3.088,0.715
					c-0.777,0.111-1.327,0.238-1.648,0.378c-0.322,0.14-0.571,0.345-0.746,0.614c-0.176,0.27-0.263,0.569-0.263,0.898
					c0,0.504,0.19,0.924,0.572,1.26c0.382,0.337,0.94,0.505,1.675,0.505c0.729,0,1.377-0.159,1.943-0.479
					c0.568-0.318,0.984-0.754,1.25-1.308c0.203-0.427,0.305-1.057,0.305-1.891V420.92z"/>
				<path fill="#FFFFFF" d="M921.127,426.519v-1.407c-0.707,1.106-1.747,1.659-3.12,1.659c-0.889,0-1.706-0.245-2.451-0.735
					c-0.746-0.49-1.324-1.175-1.734-2.053c-0.409-0.879-0.613-1.89-0.613-3.03c0-1.114,0.186-2.124,0.557-3.03
					c0.371-0.907,0.928-1.603,1.67-2.085c0.742-0.483,1.571-0.726,2.488-0.726c0.673,0,1.271,0.143,1.797,0.426
					s0.952,0.653,1.281,1.108v-5.525h1.881v15.398H921.127z M915.15,420.952c0,1.428,0.302,2.496,0.903,3.203
					c0.603,0.707,1.312,1.061,2.133,1.061c0.826,0,1.527-0.338,2.105-1.014c0.578-0.675,0.867-1.706,0.867-3.093
					c0-1.526-0.295-2.647-0.883-3.361s-1.312-1.071-2.174-1.071c-0.841,0-1.543,0.343-2.106,1.029S915.15,419.475,915.15,420.952z"
					/>
				<path fill="#FFFFFF" d="M772.839,456.859c-1.043-1.316-1.926-2.857-2.646-4.622c-0.722-1.765-1.082-3.592-1.082-5.482
					c0-1.667,0.27-3.264,0.809-4.79c0.63-1.771,1.604-3.536,2.92-5.294h1.355c-0.848,1.457-1.408,2.497-1.682,3.12
					c-0.427,0.966-0.763,1.975-1.008,3.024c-0.301,1.31-0.451,2.626-0.451,3.95c0,3.368,1.047,6.732,3.141,10.094H772.839z"/>
				<path fill="#FFFFFF" d="M775.874,448.268l1.891-0.253c0.217,1.072,0.587,1.844,1.108,2.316c0.522,0.473,1.157,0.709,1.907,0.709
					c0.889,0,1.64-0.308,2.252-0.924c0.613-0.616,0.92-1.38,0.92-2.29c0-0.868-0.284-1.584-0.852-2.148
					c-0.566-0.563-1.288-0.845-2.164-0.845c-0.356,0-0.801,0.069-1.334,0.21l0.211-1.66c0.126,0.015,0.227,0.021,0.305,0.021
					c0.805,0,1.529-0.21,2.174-0.631c0.645-0.42,0.967-1.067,0.967-1.942c0-0.693-0.234-1.268-0.704-1.723s-1.075-0.683-1.817-0.683
					c-0.734,0-1.348,0.23-1.838,0.692c-0.49,0.463-0.805,1.156-0.945,2.08l-1.891-0.336c0.23-1.268,0.756-2.249,1.576-2.946
					c0.818-0.696,1.838-1.045,3.057-1.045c0.84,0,1.613,0.18,2.32,0.541c0.707,0.36,1.248,0.853,1.623,1.476
					s0.562,1.285,0.562,1.985c0,0.665-0.18,1.271-0.536,1.816c-0.357,0.547-0.886,0.98-1.586,1.303
					c0.91,0.21,1.617,0.646,2.122,1.308c0.504,0.662,0.756,1.49,0.756,2.484c0,1.345-0.49,2.484-1.471,3.419
					s-2.22,1.402-3.719,1.402c-1.352,0-2.473-0.403-3.365-1.208C776.51,450.592,776.001,449.549,775.874,448.268z"/>
				<path fill="#FFFFFF" d="M794.948,452.332h-1.891v-12.048c-0.455,0.435-1.052,0.869-1.791,1.303
					c-0.738,0.435-1.401,0.76-1.99,0.977v-1.827c1.058-0.497,1.982-1.1,2.773-1.807s1.352-1.394,1.681-2.059h1.218V452.332z"/>
				<path fill="#FFFFFF" d="M801.556,456.859H800.2c2.094-3.361,3.141-6.726,3.141-10.094c0-1.316-0.15-2.623-0.451-3.918
					c-0.238-1.051-0.571-2.059-0.998-3.025c-0.273-0.63-0.837-1.681-1.691-3.151h1.355c1.316,1.758,2.289,3.522,2.92,5.294
					c0.539,1.526,0.809,3.123,0.809,4.79c0,1.891-0.362,3.718-1.088,5.482C803.472,454.002,802.592,455.543,801.556,456.859z"/>
				<path fill="#FFFFFF" d="M813.729,452.332v-15.398h6.827c1.372,0,2.415,0.139,3.13,0.415c0.715,0.277,1.285,0.766,1.712,1.466
					s0.641,1.474,0.641,2.321c0,1.092-0.354,2.013-1.061,2.762c-0.708,0.75-1.8,1.226-3.277,1.429
					c0.539,0.259,0.948,0.515,1.229,0.767c0.595,0.546,1.158,1.229,1.69,2.049l2.679,4.19h-2.562l-2.038-3.203
					c-0.595-0.925-1.085-1.632-1.471-2.122s-0.729-0.833-1.034-1.029s-0.615-0.333-0.93-0.41c-0.231-0.049-0.609-0.073-1.135-0.073
					h-2.363v6.838H813.729z M815.767,443.729h4.381c0.931,0,1.658-0.096,2.184-0.289c0.525-0.192,0.925-0.5,1.197-0.924
					c0.273-0.424,0.41-0.884,0.41-1.381c0-0.729-0.264-1.327-0.793-1.797c-0.529-0.469-1.363-0.703-2.505-0.703h-4.874V443.729z"/>
				<path fill="#FFFFFF" d="M836.627,448.74l1.954,0.241c-0.309,1.142-0.879,2.027-1.713,2.657c-0.833,0.63-1.897,0.945-3.193,0.945
					c-1.631,0-2.925-0.502-3.881-1.507c-0.955-1.005-1.434-2.414-1.434-4.228c0-1.877,0.483-3.333,1.449-4.37
					c0.967-1.036,2.221-1.555,3.761-1.555c1.491,0,2.71,0.508,3.655,1.523s1.418,2.444,1.418,4.285c0,0.112-0.004,0.28-0.011,0.505
					h-8.319c0.07,1.225,0.417,2.163,1.041,2.814c0.623,0.651,1.4,0.977,2.332,0.977c0.692,0,1.284-0.182,1.774-0.546
					S836.339,449.538,836.627,448.74z M830.419,445.684h6.229c-0.084-0.938-0.322-1.643-0.714-2.111
					c-0.603-0.729-1.384-1.093-2.343-1.093c-0.867,0-1.598,0.291-2.189,0.872S830.482,444.71,830.419,445.684z"/>
				<path fill="#FFFFFF" d="M848.233,448.246l1.859,0.241c-0.203,1.282-0.724,2.285-1.561,3.01s-1.864,1.087-3.082,1.087
					c-1.527,0-2.754-0.499-3.682-1.497c-0.928-0.997-1.393-2.428-1.393-4.29c0-1.204,0.2-2.259,0.6-3.162
					c0.398-0.903,1.006-1.58,1.822-2.032c0.815-0.451,1.703-0.678,2.662-0.678c1.211,0,2.202,0.307,2.973,0.92
					c0.77,0.612,1.264,1.482,1.48,2.609l-1.838,0.284c-0.175-0.749-0.484-1.313-0.93-1.691c-0.444-0.378-0.981-0.567-1.611-0.567
					c-0.953,0-1.727,0.342-2.322,1.024c-0.595,0.683-0.893,1.763-0.893,3.24c0,1.499,0.287,2.588,0.861,3.267
					c0.574,0.68,1.324,1.019,2.248,1.019c0.742,0,1.361-0.228,1.859-0.683C847.784,449.892,848.101,449.191,848.233,448.246z"/>
				<path fill="#FFFFFF" d="M851.006,446.755c0-2.065,0.573-3.596,1.723-4.59c0.959-0.826,2.128-1.24,3.508-1.24
					c1.534,0,2.787,0.503,3.761,1.508c0.973,1.005,1.459,2.393,1.459,4.164c0,1.436-0.215,2.565-0.646,3.388
					c-0.431,0.823-1.058,1.462-1.88,1.917s-1.721,0.683-2.694,0.683c-1.562,0-2.823-0.5-3.786-1.502
					C851.487,450.081,851.006,448.639,851.006,446.755z M852.948,446.755c0,1.429,0.312,2.498,0.936,3.209
					c0.623,0.71,1.407,1.065,2.353,1.065c0.938,0,1.72-0.356,2.343-1.071c0.623-0.714,0.935-1.803,0.935-3.267
					c0-1.379-0.313-2.424-0.94-3.135s-1.406-1.066-2.337-1.066c-0.945,0-1.729,0.354-2.353,1.061
					C853.261,444.259,852.948,445.326,852.948,446.755z"/>
				<path fill="#FFFFFF" d="M863.673,456.607v-15.43h1.723v1.449c0.406-0.567,0.865-0.993,1.376-1.276s1.131-0.426,1.858-0.426
					c0.953,0,1.793,0.246,2.521,0.735c0.729,0.49,1.277,1.182,1.648,2.075c0.371,0.893,0.557,1.871,0.557,2.936
					c0,1.142-0.204,2.169-0.613,3.083c-0.41,0.913-1.006,1.613-1.786,2.101c-0.78,0.486-1.602,0.729-2.463,0.729
					c-0.63,0-1.196-0.133-1.696-0.399c-0.501-0.266-0.912-0.602-1.234-1.008v5.431H863.673z M865.385,446.817
					c0,1.436,0.29,2.497,0.872,3.183c0.581,0.687,1.285,1.029,2.111,1.029c0.84,0,1.56-0.355,2.158-1.065
					c0.599-0.711,0.898-1.812,0.898-3.304c0-1.422-0.293-2.485-0.877-3.193c-0.585-0.707-1.283-1.061-2.096-1.061
					c-0.806,0-1.518,0.376-2.138,1.129S865.385,445.383,865.385,446.817z"/>
				<path fill="#FFFFFF" d="M875.647,439.108v-2.175h1.891v2.175H875.647z M875.647,452.332v-11.154h1.891v11.154H875.647z"/>
				<path fill="#FFFFFF" d="M880.374,452.332v-15.398h1.891v15.398H880.374z"/>
				<path fill="#FFFFFF" d="M892.474,450.956c-0.7,0.596-1.374,1.016-2.021,1.261c-0.648,0.245-1.344,0.367-2.086,0.367
					c-1.225,0-2.166-0.299-2.824-0.897c-0.658-0.6-0.988-1.364-0.988-2.296c0-0.546,0.125-1.045,0.373-1.496
					c0.248-0.452,0.574-0.814,0.977-1.087c0.402-0.273,0.856-0.479,1.361-0.62c0.371-0.098,0.931-0.192,1.68-0.283
					c1.527-0.183,2.65-0.399,3.372-0.651c0.007-0.259,0.011-0.424,0.011-0.494c0-0.77-0.18-1.312-0.536-1.628
					c-0.483-0.427-1.201-0.641-2.153-0.641c-0.889,0-1.546,0.156-1.969,0.468c-0.424,0.312-0.738,0.862-0.94,1.654l-1.849-0.252
					c0.168-0.792,0.444-1.431,0.83-1.917c0.385-0.487,0.941-0.861,1.67-1.124s1.572-0.395,2.531-0.395
					c0.952,0,1.726,0.112,2.32,0.337c0.596,0.224,1.033,0.506,1.313,0.845c0.28,0.34,0.476,0.769,0.589,1.287
					c0.062,0.322,0.094,0.903,0.094,1.743v2.521c0,1.758,0.041,2.869,0.121,3.335s0.24,0.912,0.479,1.339h-1.975
					C892.655,451.94,892.53,451.481,892.474,450.956z M892.316,446.733c-0.687,0.28-1.716,0.519-3.089,0.715
					c-0.777,0.111-1.326,0.238-1.648,0.378s-0.57,0.345-0.746,0.614c-0.175,0.27-0.262,0.569-0.262,0.898
					c0,0.504,0.19,0.924,0.572,1.26c0.381,0.337,0.939,0.505,1.675,0.505c0.729,0,1.376-0.159,1.943-0.479
					c0.567-0.318,0.983-0.754,1.25-1.308c0.203-0.427,0.305-1.057,0.305-1.891V446.733z"/>
				<path fill="#FFFFFF" d="M904.437,448.246l1.859,0.241c-0.203,1.282-0.723,2.285-1.56,3.01s-1.864,1.087-3.083,1.087
					c-1.526,0-2.754-0.499-3.682-1.497c-0.928-0.997-1.391-2.428-1.391-4.29c0-1.204,0.199-2.259,0.598-3.162
					c0.399-0.903,1.007-1.58,1.822-2.032c0.816-0.451,1.703-0.678,2.663-0.678c1.212,0,2.202,0.307,2.973,0.92
					c0.771,0.612,1.264,1.482,1.481,2.609l-1.838,0.284c-0.176-0.749-0.486-1.313-0.93-1.691c-0.445-0.378-0.982-0.567-1.613-0.567
					c-0.952,0-1.726,0.342-2.32,1.024c-0.596,0.683-0.894,1.763-0.894,3.24c0,1.499,0.287,2.588,0.861,3.267
					c0.574,0.68,1.323,1.019,2.248,1.019c0.742,0,1.362-0.228,1.858-0.683C903.989,449.892,904.304,449.191,904.437,448.246z"/>
				<path fill="#FFFFFF" d="M907.925,439.108v-2.175h1.891v2.175H907.925z M907.925,452.332v-11.154h1.891v11.154H907.925z"/>
				<path fill="#FFFFFF" d="M911.989,446.755c0-2.065,0.574-3.596,1.723-4.59c0.959-0.826,2.129-1.24,3.508-1.24
					c1.533,0,2.787,0.503,3.76,1.508c0.974,1.005,1.461,2.393,1.461,4.164c0,1.436-0.216,2.565-0.646,3.388
					c-0.431,0.823-1.057,1.462-1.88,1.917s-1.722,0.683-2.694,0.683c-1.562,0-2.824-0.5-3.786-1.502
					C912.471,450.081,911.989,448.639,911.989,446.755z M913.933,446.755c0,1.429,0.311,2.498,0.935,3.209
					c0.623,0.71,1.407,1.065,2.353,1.065c0.938,0,1.719-0.356,2.342-1.071c0.624-0.714,0.936-1.803,0.936-3.267
					c0-1.379-0.313-2.424-0.939-3.135c-0.627-0.711-1.406-1.066-2.338-1.066c-0.945,0-1.729,0.354-2.353,1.061
					C914.243,444.259,913.933,445.326,913.933,446.755z M916.169,439.791l1.397-2.941h2.479l-2.312,2.941H916.169z"/>
				<path fill="#FFFFFF" d="M924.656,452.332v-11.154h1.702v1.586c0.818-1.226,2.002-1.839,3.55-1.839
					c0.672,0,1.29,0.121,1.854,0.363c0.563,0.241,0.985,0.558,1.266,0.95s0.476,0.857,0.589,1.396
					c0.069,0.351,0.104,0.963,0.104,1.839v6.858h-1.891v-6.785c0-0.771-0.073-1.347-0.221-1.728
					c-0.147-0.382-0.407-0.687-0.782-0.914s-0.814-0.342-1.318-0.342c-0.805,0-1.5,0.256-2.085,0.767
					c-0.585,0.512-0.877,1.481-0.877,2.91v6.092H924.656z"/>
				<path fill="#FFFFFF" d="M949.833,452.332v-1.407c-0.707,1.106-1.747,1.659-3.119,1.659c-0.89,0-1.707-0.245-2.453-0.735
					s-1.323-1.175-1.732-2.053c-0.41-0.879-0.615-1.89-0.615-3.03c0-1.114,0.186-2.124,0.557-3.03
					c0.371-0.907,0.928-1.603,1.67-2.085c0.742-0.483,1.572-0.726,2.49-0.726c0.672,0,1.271,0.143,1.796,0.426
					c0.524,0.283,0.952,0.653,1.281,1.108v-5.525h1.88v15.398H949.833z M943.856,446.766c0,1.428,0.301,2.496,0.903,3.203
					s1.313,1.061,2.132,1.061c0.826,0,1.529-0.338,2.106-1.014c0.577-0.675,0.866-1.706,0.866-3.093
					c0-1.526-0.294-2.647-0.882-3.361c-0.589-0.714-1.313-1.071-2.175-1.071c-0.84,0-1.542,0.343-2.105,1.029
					C944.138,444.206,943.856,445.288,943.856,446.766z"/>
				<path fill="#FFFFFF" d="M962.196,448.74l1.953,0.241c-0.309,1.142-0.879,2.027-1.713,2.657c-0.832,0.63-1.896,0.945-3.192,0.945
					c-1.632,0-2.925-0.502-3.881-1.507s-1.435-2.414-1.435-4.228c0-1.877,0.484-3.333,1.45-4.37c0.966-1.036,2.22-1.555,3.761-1.555
					c1.49,0,2.709,0.508,3.654,1.523s1.418,2.444,1.418,4.285c0,0.112-0.004,0.28-0.01,0.505h-8.319
					c0.07,1.225,0.417,2.163,1.04,2.814s1.4,0.977,2.332,0.977c0.693,0,1.285-0.182,1.775-0.546S961.908,449.538,962.196,448.74z
					 M955.988,445.684h6.229c-0.084-0.938-0.322-1.643-0.714-2.111c-0.604-0.729-1.384-1.093-2.343-1.093
					c-0.868,0-1.599,0.291-2.19,0.872S956.052,444.71,955.988,445.684z"/>
				<path fill="#FFFFFF" d="M979.736,452.332v-1.407c-0.707,1.106-1.747,1.659-3.12,1.659c-0.889,0-1.706-0.245-2.451-0.735
					c-0.746-0.49-1.324-1.175-1.734-2.053c-0.409-0.879-0.613-1.89-0.613-3.03c0-1.114,0.186-2.124,0.557-3.03
					c0.371-0.907,0.928-1.603,1.67-2.085c0.742-0.483,1.571-0.726,2.488-0.726c0.673,0,1.271,0.143,1.797,0.426
					s0.952,0.653,1.281,1.108v-5.525h1.881v15.398H979.736z M973.76,446.766c0,1.428,0.302,2.496,0.903,3.203
					c0.603,0.707,1.312,1.061,2.133,1.061c0.826,0,1.527-0.338,2.105-1.014c0.578-0.675,0.867-1.706,0.867-3.093
					c0-1.526-0.295-2.647-0.883-3.361s-1.312-1.071-2.174-1.071c-0.841,0-1.543,0.343-2.106,1.029S973.76,445.288,973.76,446.766z"
					/>
				<path fill="#FFFFFF" d="M991.741,450.956c-0.699,0.596-1.373,1.016-2.021,1.261c-0.647,0.245-1.343,0.367-2.085,0.367
					c-1.226,0-2.167-0.299-2.825-0.897c-0.658-0.6-0.987-1.364-0.987-2.296c0-0.546,0.124-1.045,0.372-1.496
					c0.249-0.452,0.574-0.814,0.978-1.087c0.402-0.273,0.856-0.479,1.36-0.62c0.371-0.098,0.932-0.192,1.68-0.283
					c1.527-0.183,2.65-0.399,3.373-0.651c0.006-0.259,0.01-0.424,0.01-0.494c0-0.77-0.179-1.312-0.535-1.628
					c-0.483-0.427-1.201-0.641-2.154-0.641c-0.889,0-1.545,0.156-1.969,0.468s-0.737,0.862-0.939,1.654l-1.85-0.252
					c0.168-0.792,0.445-1.431,0.83-1.917c0.385-0.487,0.941-0.861,1.67-1.124s1.572-0.395,2.531-0.395
					c0.953,0,1.727,0.112,2.321,0.337c0.595,0.224,1.033,0.506,1.313,0.845c0.279,0.34,0.476,0.769,0.588,1.287
					c0.062,0.322,0.095,0.903,0.095,1.743v2.521c0,1.758,0.04,2.869,0.12,3.335c0.081,0.466,0.24,0.912,0.479,1.339h-1.975
					C991.924,451.94,991.798,451.481,991.741,450.956z M991.585,446.733c-0.688,0.28-1.717,0.519-3.089,0.715
					c-0.777,0.111-1.327,0.238-1.649,0.378s-0.57,0.345-0.745,0.614s-0.263,0.569-0.263,0.898c0,0.504,0.191,0.924,0.572,1.26
					c0.382,0.337,0.94,0.505,1.676,0.505c0.729,0,1.375-0.159,1.943-0.479c0.566-0.318,0.983-0.754,1.25-1.308
					c0.203-0.427,0.305-1.057,0.305-1.891V446.733z"/>
				<path fill="#FFFFFF" d="M1000.554,450.641l0.273,1.67c-0.532,0.112-1.008,0.169-1.428,0.169c-0.688,0-1.219-0.109-1.598-0.326
					c-0.377-0.217-0.645-0.502-0.798-0.855s-0.231-1.098-0.231-2.232v-6.418h-1.387v-1.47h1.387v-2.763l1.881-1.135v3.897h1.9v1.47
					h-1.9v6.523c0,0.539,0.033,0.886,0.1,1.039c0.066,0.154,0.175,0.277,0.326,0.368c0.15,0.091,0.365,0.137,0.646,0.137
					C999.935,450.715,1000.211,450.69,1000.554,450.641z"/>
				<path fill="#FFFFFF" d="M1001.699,446.755c0-2.065,0.573-3.596,1.723-4.59c0.959-0.826,2.128-1.24,3.508-1.24
					c1.534,0,2.787,0.503,3.761,1.508c0.973,1.005,1.459,2.393,1.459,4.164c0,1.436-0.215,2.565-0.646,3.388
					c-0.431,0.823-1.058,1.462-1.88,1.917s-1.721,0.683-2.694,0.683c-1.562,0-2.823-0.5-3.786-1.502
					C1002.181,450.081,1001.699,448.639,1001.699,446.755z M1003.642,446.755c0,1.429,0.312,2.498,0.936,3.209
					c0.623,0.71,1.407,1.065,2.353,1.065c0.938,0,1.72-0.356,2.343-1.071c0.623-0.714,0.935-1.803,0.935-3.267
					c0-1.379-0.313-2.424-0.94-3.135s-1.406-1.066-2.337-1.066c-0.945,0-1.729,0.354-2.353,1.061
					C1003.954,444.259,1003.642,445.326,1003.642,446.755z"/>
				<path fill="#FFFFFF" d="M1013.61,449.002l1.869-0.294c0.105,0.75,0.397,1.324,0.877,1.723c0.479,0.399,1.15,0.599,2.012,0.599
					c0.868,0,1.512-0.177,1.933-0.53c0.42-0.354,0.63-0.769,0.63-1.244c0-0.428-0.186-0.764-0.557-1.009
					c-0.259-0.168-0.903-0.382-1.933-0.641c-1.386-0.35-2.347-0.653-2.883-0.908c-0.536-0.256-0.942-0.609-1.219-1.062
					c-0.276-0.451-0.415-0.95-0.415-1.496c0-0.497,0.113-0.958,0.342-1.382c0.228-0.423,0.537-0.775,0.93-1.056
					c0.294-0.217,0.694-0.4,1.202-0.551s1.052-0.227,1.634-0.227c0.875,0,1.644,0.127,2.305,0.379
					c0.662,0.252,1.15,0.593,1.466,1.023s0.532,1.007,0.651,1.729l-1.849,0.252c-0.084-0.574-0.327-1.022-0.729-1.345
					c-0.403-0.322-0.973-0.483-1.707-0.483c-0.869,0-1.488,0.144-1.859,0.431s-0.557,0.624-0.557,1.009
					c0,0.245,0.076,0.466,0.23,0.661c0.154,0.203,0.396,0.372,0.725,0.505c0.189,0.069,0.746,0.23,1.67,0.482
					c1.338,0.357,2.271,0.65,2.8,0.877c0.528,0.229,0.943,0.559,1.245,0.993c0.301,0.435,0.451,0.974,0.451,1.617
					c0,0.631-0.184,1.224-0.551,1.78c-0.368,0.557-0.898,0.987-1.592,1.292s-1.478,0.457-2.354,0.457
					c-1.449,0-2.554-0.301-3.312-0.903C1014.305,451.079,1013.819,450.186,1013.61,449.002z"/>
				<path fill="#FFFFFF" d="M1031.015,456.628l-0.211-1.775c0.414,0.112,0.773,0.168,1.082,0.168c0.42,0,0.756-0.069,1.008-0.21
					c0.253-0.14,0.459-0.336,0.621-0.588c0.118-0.189,0.311-0.658,0.577-1.407c0.034-0.105,0.091-0.26,0.168-0.462l-4.233-11.176
					h2.038l2.321,6.459c0.301,0.819,0.57,1.681,0.809,2.584c0.217-0.868,0.477-1.716,0.777-2.542l2.385-6.501h1.891l-4.244,11.344
					c-0.455,1.225-0.809,2.068-1.061,2.531c-0.336,0.623-0.721,1.08-1.155,1.37c-0.435,0.291-0.952,0.437-1.555,0.437
					C1031.868,456.859,1031.462,456.782,1031.015,456.628z"/>
				<path fill="#FFFFFF" d="M776.862,474.554l1.953,0.241c-0.309,1.142-0.879,2.027-1.713,2.657
					c-0.832,0.63-1.896,0.945-3.192,0.945c-1.632,0-2.925-0.502-3.881-1.507s-1.435-2.414-1.435-4.228
					c0-1.877,0.484-3.333,1.45-4.37c0.966-1.036,2.22-1.555,3.761-1.555c1.49,0,2.709,0.508,3.654,1.523s1.418,2.444,1.418,4.285
					c0,0.112-0.004,0.28-0.01,0.505h-8.319c0.07,1.225,0.417,2.163,1.04,2.814s1.4,0.977,2.332,0.977
					c0.693,0,1.285-0.182,1.775-0.546S776.574,475.352,776.862,474.554z M770.654,471.497h6.229
					c-0.084-0.938-0.322-1.643-0.714-2.111c-0.604-0.729-1.384-1.093-2.343-1.093c-0.868,0-1.599,0.291-2.19,0.872
					S770.718,470.523,770.654,471.497z"/>
				<path fill="#FFFFFF" d="M780.433,474.815l1.869-0.294c0.105,0.75,0.398,1.324,0.877,1.723c0.48,0.399,1.15,0.599,2.012,0.599
					c0.869,0,1.513-0.177,1.934-0.53c0.42-0.354,0.629-0.769,0.629-1.244c0-0.428-0.186-0.764-0.557-1.009
					c-0.258-0.168-0.902-0.382-1.932-0.641c-1.387-0.35-2.348-0.653-2.883-0.908c-0.537-0.256-0.942-0.609-1.219-1.062
					c-0.277-0.451-0.415-0.95-0.415-1.496c0-0.497,0.113-0.958,0.341-1.382c0.229-0.423,0.537-0.775,0.93-1.056
					c0.295-0.217,0.695-0.4,1.203-0.551s1.052-0.227,1.633-0.227c0.875,0,1.645,0.127,2.306,0.379s1.15,0.593,1.466,1.023
					c0.314,0.431,0.531,1.007,0.65,1.729l-1.848,0.252c-0.084-0.574-0.328-1.022-0.73-1.345s-0.972-0.483-1.707-0.483
					c-0.868,0-1.488,0.144-1.859,0.431s-0.557,0.624-0.557,1.009c0,0.245,0.077,0.466,0.231,0.661
					c0.153,0.203,0.396,0.372,0.725,0.505c0.188,0.069,0.745,0.23,1.67,0.482c1.337,0.357,2.271,0.65,2.8,0.877
					c0.528,0.229,0.943,0.559,1.244,0.993s0.451,0.974,0.451,1.617c0,0.631-0.184,1.224-0.551,1.78s-0.898,0.987-1.592,1.292
					s-1.477,0.457-2.353,0.457c-1.449,0-2.554-0.301-3.313-0.903C781.128,476.893,780.643,475.999,780.433,474.815z"/>
				<path fill="#FFFFFF" d="M796.072,476.454l0.272,1.67c-0.531,0.112-1.008,0.169-1.428,0.169c-0.687,0-1.219-0.109-1.597-0.326
					s-0.645-0.502-0.798-0.855c-0.154-0.354-0.231-1.098-0.231-2.232v-6.418h-1.387v-1.47h1.387v-2.763l1.88-1.135v3.897h1.901v1.47
					h-1.901v6.523c0,0.539,0.033,0.886,0.1,1.039c0.066,0.154,0.176,0.277,0.326,0.368s0.365,0.137,0.646,0.137
					C795.452,476.528,795.729,476.504,796.072,476.454z"/>
				<path fill="#FFFFFF" d="M805.2,476.77c-0.701,0.596-1.375,1.016-2.022,1.261s-1.343,0.367-2.085,0.367
					c-1.225,0-2.167-0.299-2.825-0.897c-0.658-0.6-0.987-1.364-0.987-2.296c0-0.546,0.124-1.045,0.373-1.496
					c0.248-0.452,0.574-0.814,0.977-1.087c0.402-0.273,0.855-0.479,1.36-0.62c0.371-0.098,0.931-0.192,1.681-0.283
					c1.526-0.183,2.65-0.399,3.371-0.651c0.008-0.259,0.011-0.424,0.011-0.494c0-0.77-0.179-1.312-0.536-1.628
					c-0.482-0.427-1.201-0.641-2.152-0.641c-0.89,0-1.547,0.156-1.97,0.468c-0.424,0.312-0.737,0.862-0.94,1.654l-1.848-0.252
					c0.168-0.792,0.443-1.431,0.829-1.917c0.386-0.487,0.942-0.861,1.67-1.124c0.729-0.263,1.572-0.395,2.532-0.395
					c0.951,0,1.725,0.112,2.32,0.337c0.596,0.224,1.033,0.506,1.312,0.845c0.281,0.34,0.477,0.769,0.589,1.287
					c0.063,0.322,0.095,0.903,0.095,1.743v2.521c0,1.758,0.04,2.869,0.121,3.335c0.08,0.466,0.239,0.912,0.478,1.339h-1.975
					C805.382,477.754,805.256,477.295,805.2,476.77z M805.042,472.547c-0.686,0.28-1.715,0.519-3.088,0.715
					c-0.777,0.111-1.327,0.238-1.648,0.378c-0.322,0.14-0.571,0.345-0.746,0.614c-0.176,0.27-0.263,0.569-0.263,0.898
					c0,0.504,0.19,0.924,0.572,1.26c0.382,0.337,0.94,0.505,1.675,0.505c0.729,0,1.377-0.159,1.943-0.479
					c0.568-0.318,0.984-0.754,1.25-1.308c0.203-0.427,0.305-1.057,0.305-1.891V472.547z"/>
				<path fill="#FFFFFF" d="M817.121,478.146v-1.407c-0.707,1.106-1.747,1.659-3.12,1.659c-0.889,0-1.706-0.245-2.451-0.735
					c-0.746-0.49-1.324-1.175-1.734-2.053c-0.409-0.879-0.613-1.89-0.613-3.03c0-1.114,0.186-2.124,0.557-3.03
					c0.371-0.907,0.928-1.603,1.67-2.085c0.742-0.483,1.571-0.726,2.488-0.726c0.673,0,1.271,0.143,1.797,0.426
					s0.952,0.653,1.281,1.108v-5.525h1.881v15.398H817.121z M811.145,472.579c0,1.428,0.302,2.496,0.903,3.203
					c0.603,0.707,1.312,1.061,2.133,1.061c0.826,0,1.527-0.338,2.105-1.014c0.578-0.675,0.867-1.706,0.867-3.093
					c0-1.526-0.295-2.647-0.883-3.361s-1.312-1.071-2.174-1.071c-0.841,0-1.543,0.343-2.106,1.029S811.145,471.102,811.145,472.579z
					"/>
				<path fill="#FFFFFF" d="M822.415,465.604l1.396-2.941h2.479l-2.311,2.941H822.415z M822.509,478.146v-11.154h1.891v11.154
					H822.509z"/>
				<path fill="#FFFFFF" d="M827.067,474.815l1.87-0.294c0.104,0.75,0.397,1.324,0.877,1.723c0.479,0.399,1.15,0.599,2.012,0.599
					c0.868,0,1.513-0.177,1.933-0.53s0.63-0.769,0.63-1.244c0-0.428-0.186-0.764-0.557-1.009c-0.259-0.168-0.903-0.382-1.933-0.641
					c-1.387-0.35-2.348-0.653-2.883-0.908c-0.536-0.256-0.941-0.609-1.219-1.062c-0.276-0.451-0.414-0.95-0.414-1.496
					c0-0.497,0.113-0.958,0.341-1.382c0.228-0.423,0.537-0.775,0.929-1.056c0.295-0.217,0.695-0.4,1.203-0.551
					s1.053-0.227,1.633-0.227c0.876,0,1.645,0.127,2.307,0.379c0.661,0.252,1.15,0.593,1.465,1.023s0.532,1.007,0.651,1.729
					l-1.849,0.252c-0.084-0.574-0.328-1.022-0.73-1.345s-0.971-0.483-1.707-0.483c-0.867,0-1.487,0.144-1.858,0.431
					c-0.372,0.287-0.558,0.624-0.558,1.009c0,0.245,0.078,0.466,0.232,0.661c0.153,0.203,0.395,0.372,0.725,0.505
					c0.188,0.069,0.745,0.23,1.67,0.482c1.337,0.357,2.27,0.65,2.799,0.877c0.529,0.229,0.943,0.559,1.244,0.993
					c0.302,0.435,0.452,0.974,0.452,1.617c0,0.631-0.184,1.224-0.552,1.78c-0.367,0.557-0.897,0.987-1.591,1.292
					s-1.478,0.457-2.353,0.457c-1.449,0-2.555-0.301-3.314-0.903C827.763,476.893,827.278,475.999,827.067,474.815z"/>
				<path fill="#FFFFFF" d="M842.708,476.454l0.272,1.67c-0.532,0.112-1.009,0.169-1.429,0.169c-0.686,0-1.219-0.109-1.596-0.326
					c-0.379-0.217-0.645-0.502-0.799-0.855s-0.23-1.098-0.23-2.232v-6.418h-1.387v-1.47h1.387v-2.763l1.879-1.135v3.897h1.902v1.47
					h-1.902v6.523c0,0.539,0.033,0.886,0.101,1.039c0.066,0.154,0.175,0.277,0.325,0.368s0.366,0.137,0.646,0.137
					C842.088,476.528,842.364,476.504,842.708,476.454z"/>
				<path fill="#FFFFFF" d="M844.567,464.922v-2.175h1.891v2.175H844.567z M844.567,478.146v-11.154h1.891v11.154H844.567z"/>
				<path fill="#FFFFFF" d="M856.614,474.06l1.859,0.241c-0.203,1.282-0.723,2.285-1.561,3.01c-0.836,0.725-1.863,1.087-3.082,1.087
					c-1.527,0-2.754-0.499-3.682-1.497c-0.928-0.997-1.392-2.428-1.392-4.29c0-1.204,0.2-2.259,0.599-3.162s1.006-1.58,1.822-2.032
					c0.816-0.451,1.703-0.678,2.662-0.678c1.212,0,2.203,0.307,2.973,0.92c0.771,0.612,1.264,1.482,1.481,2.609l-1.838,0.284
					c-0.175-0.749-0.485-1.313-0.93-1.691s-0.981-0.567-1.612-0.567c-0.953,0-1.727,0.342-2.321,1.024s-0.894,1.763-0.894,3.24
					c0,1.499,0.287,2.588,0.861,3.267c0.574,0.68,1.324,1.019,2.248,1.019c0.742,0,1.362-0.228,1.859-0.683
					S856.481,475.005,856.614,474.06z"/>
				<path fill="#FFFFFF" d="M867.37,476.77c-0.701,0.596-1.375,1.016-2.022,1.261s-1.343,0.367-2.085,0.367
					c-1.225,0-2.167-0.299-2.825-0.897c-0.658-0.6-0.987-1.364-0.987-2.296c0-0.546,0.124-1.045,0.373-1.496
					c0.248-0.452,0.574-0.814,0.977-1.087c0.402-0.273,0.855-0.479,1.36-0.62c0.371-0.098,0.931-0.192,1.681-0.283
					c1.526-0.183,2.65-0.399,3.371-0.651c0.008-0.259,0.011-0.424,0.011-0.494c0-0.77-0.179-1.312-0.536-1.628
					c-0.482-0.427-1.201-0.641-2.152-0.641c-0.89,0-1.547,0.156-1.97,0.468c-0.424,0.312-0.737,0.862-0.94,1.654l-1.848-0.252
					c0.168-0.792,0.443-1.431,0.829-1.917c0.386-0.487,0.942-0.861,1.67-1.124c0.729-0.263,1.572-0.395,2.532-0.395
					c0.951,0,1.725,0.112,2.32,0.337c0.596,0.224,1.033,0.506,1.312,0.845c0.281,0.34,0.477,0.769,0.589,1.287
					c0.063,0.322,0.095,0.903,0.095,1.743v2.521c0,1.758,0.04,2.869,0.121,3.335c0.08,0.466,0.239,0.912,0.478,1.339h-1.975
					C867.552,477.754,867.426,477.295,867.37,476.77z M867.212,472.547c-0.686,0.28-1.715,0.519-3.088,0.715
					c-0.777,0.111-1.327,0.238-1.648,0.378c-0.322,0.14-0.571,0.345-0.746,0.614c-0.176,0.27-0.263,0.569-0.263,0.898
					c0,0.504,0.19,0.924,0.572,1.26c0.382,0.337,0.94,0.505,1.675,0.505c0.729,0,1.377-0.159,1.943-0.479
					c0.568-0.318,0.984-0.754,1.25-1.308c0.203-0.427,0.305-1.057,0.305-1.891V472.547z"/>
				<path fill="#FFFFFF" d="M871.298,474.815l1.869-0.294c0.105,0.75,0.398,1.324,0.877,1.723c0.48,0.399,1.15,0.599,2.012,0.599
					c0.869,0,1.513-0.177,1.934-0.53c0.42-0.354,0.629-0.769,0.629-1.244c0-0.428-0.186-0.764-0.557-1.009
					c-0.258-0.168-0.902-0.382-1.932-0.641c-1.387-0.35-2.348-0.653-2.883-0.908c-0.537-0.256-0.942-0.609-1.219-1.062
					c-0.277-0.451-0.415-0.95-0.415-1.496c0-0.497,0.113-0.958,0.341-1.382c0.229-0.423,0.537-0.775,0.93-1.056
					c0.295-0.217,0.695-0.4,1.203-0.551s1.052-0.227,1.633-0.227c0.875,0,1.645,0.127,2.306,0.379s1.15,0.593,1.466,1.023
					c0.314,0.431,0.531,1.007,0.65,1.729l-1.848,0.252c-0.084-0.574-0.328-1.022-0.73-1.345s-0.972-0.483-1.707-0.483
					c-0.868,0-1.488,0.144-1.859,0.431s-0.557,0.624-0.557,1.009c0,0.245,0.077,0.466,0.231,0.661
					c0.153,0.203,0.396,0.372,0.725,0.505c0.188,0.069,0.745,0.23,1.67,0.482c1.337,0.357,2.271,0.65,2.8,0.877
					c0.528,0.229,0.943,0.559,1.244,0.993s0.451,0.974,0.451,1.617c0,0.631-0.184,1.224-0.551,1.78s-0.898,0.987-1.592,1.292
					s-1.477,0.457-2.353,0.457c-1.449,0-2.554-0.301-3.313-0.903C871.993,476.893,871.508,475.999,871.298,474.815z"/>
				<path fill="#FFFFFF" d="M772.839,508.486c-1.043-1.316-1.926-2.857-2.646-4.622c-0.722-1.765-1.082-3.592-1.082-5.482
					c0-1.667,0.27-3.264,0.809-4.79c0.63-1.771,1.604-3.536,2.92-5.294h1.355c-0.848,1.457-1.408,2.497-1.682,3.12
					c-0.427,0.966-0.763,1.975-1.008,3.024c-0.301,1.31-0.451,2.626-0.451,3.95c0,3.368,1.047,6.732,3.141,10.094H772.839z"/>
				<path fill="#FFFFFF" d="M775.874,499.895l1.891-0.253c0.217,1.072,0.587,1.844,1.108,2.316c0.522,0.473,1.157,0.709,1.907,0.709
					c0.889,0,1.64-0.308,2.252-0.924c0.613-0.616,0.92-1.38,0.92-2.29c0-0.868-0.284-1.584-0.852-2.148
					c-0.566-0.563-1.288-0.845-2.164-0.845c-0.356,0-0.801,0.069-1.334,0.21l0.211-1.66c0.126,0.015,0.227,0.021,0.305,0.021
					c0.805,0,1.529-0.21,2.174-0.631c0.645-0.42,0.967-1.067,0.967-1.942c0-0.693-0.234-1.268-0.704-1.723s-1.075-0.683-1.817-0.683
					c-0.734,0-1.348,0.23-1.838,0.692c-0.49,0.463-0.805,1.156-0.945,2.08l-1.891-0.336c0.23-1.268,0.756-2.249,1.576-2.946
					c0.818-0.696,1.838-1.045,3.057-1.045c0.84,0,1.613,0.18,2.32,0.541c0.707,0.36,1.248,0.853,1.623,1.476
					s0.562,1.285,0.562,1.985c0,0.665-0.18,1.271-0.536,1.816c-0.357,0.547-0.886,0.98-1.586,1.303
					c0.91,0.21,1.617,0.646,2.122,1.308c0.504,0.662,0.756,1.49,0.756,2.484c0,1.345-0.49,2.484-1.471,3.419
					s-2.22,1.402-3.719,1.402c-1.352,0-2.473-0.403-3.365-1.208C776.51,502.219,776.001,501.176,775.874,499.895z"/>
				<path fill="#FFFFFF" d="M797.764,502.142v1.817h-10.178c-0.015-0.455,0.06-0.893,0.22-1.312c0.26-0.693,0.675-1.376,1.246-2.049
					c0.57-0.672,1.395-1.449,2.473-2.332c1.674-1.372,2.805-2.459,3.393-3.261s0.883-1.56,0.883-2.274
					c0-0.749-0.268-1.381-0.804-1.896s-1.234-0.772-2.096-0.772c-0.91,0-1.638,0.273-2.185,0.819
					c-0.547,0.547-0.822,1.303-0.83,2.27l-1.943-0.2c0.133-1.449,0.635-2.554,1.502-3.313c0.869-0.76,2.035-1.14,3.498-1.14
					c1.478,0,2.646,0.409,3.508,1.229s1.293,1.835,1.293,3.046c0,0.616-0.127,1.223-0.379,1.817c-0.252,0.596-0.67,1.222-1.255,1.88
					s-1.556,1.562-2.915,2.71c-1.135,0.952-1.862,1.599-2.185,1.938c-0.321,0.339-0.588,0.681-0.798,1.023H797.764z"/>
				<path fill="#FFFFFF" d="M801.556,508.486H800.2c2.094-3.361,3.141-6.726,3.141-10.094c0-1.316-0.15-2.623-0.451-3.918
					c-0.238-1.051-0.571-2.059-0.998-3.025c-0.273-0.63-0.837-1.681-1.691-3.151h1.355c1.316,1.758,2.289,3.522,2.92,5.294
					c0.539,1.526,0.809,3.123,0.809,4.79c0,1.891-0.362,3.718-1.088,5.482C803.472,505.629,802.592,507.17,801.556,508.486z"/>
				<path fill="#FFFFFF" d="M824.685,498.561l2.037,0.515c-0.427,1.673-1.195,2.949-2.305,3.828c-1.11,0.879-2.467,1.318-4.07,1.318
					c-1.66,0-3.01-0.338-4.049-1.014c-1.041-0.676-1.832-1.654-2.375-2.936c-0.542-1.281-0.813-2.657-0.813-4.128
					c0-1.604,0.306-3.002,0.919-4.196c0.613-1.193,1.484-2.101,2.615-2.721c1.131-0.619,2.376-0.93,3.734-0.93
					c1.541,0,2.836,0.393,3.887,1.177c1.05,0.784,1.781,1.888,2.195,3.309l-2.007,0.473c-0.356-1.12-0.876-1.936-1.554-2.447
					c-0.68-0.511-1.534-0.767-2.563-0.767c-1.184,0-2.173,0.283-2.968,0.851s-1.354,1.329-1.675,2.284
					c-0.322,0.956-0.483,1.941-0.483,2.957c0,1.31,0.191,2.453,0.572,3.43c0.382,0.977,0.976,1.707,1.781,2.189
					c0.805,0.483,1.676,0.725,2.615,0.725c1.141,0,2.107-0.328,2.898-0.987C823.868,500.833,824.404,499.855,824.685,498.561z"/>
				<path fill="#FFFFFF" d="M828.287,498.382c0-2.065,0.573-3.596,1.723-4.59c0.959-0.826,2.128-1.24,3.508-1.24
					c1.534,0,2.787,0.503,3.761,1.508c0.973,1.005,1.459,2.393,1.459,4.164c0,1.436-0.215,2.565-0.646,3.388
					c-0.431,0.823-1.058,1.462-1.88,1.917s-1.721,0.683-2.694,0.683c-1.562,0-2.823-0.5-3.786-1.502
					C828.769,501.708,828.287,500.266,828.287,498.382z M830.229,498.382c0,1.429,0.312,2.498,0.936,3.209
					c0.623,0.71,1.407,1.065,2.353,1.065c0.938,0,1.72-0.356,2.343-1.071c0.623-0.714,0.935-1.803,0.935-3.267
					c0-1.379-0.313-2.424-0.94-3.135s-1.406-1.066-2.337-1.066c-0.945,0-1.729,0.354-2.353,1.061
					C830.542,495.886,830.229,496.953,830.229,498.382z"/>
				<path fill="#FFFFFF" d="M840.251,498.382c0-2.065,0.573-3.596,1.723-4.59c0.959-0.826,2.128-1.24,3.508-1.24
					c1.533,0,2.787,0.503,3.76,1.508s1.46,2.393,1.46,4.164c0,1.436-0.216,2.565-0.646,3.388c-0.432,0.823-1.058,1.462-1.881,1.917
					c-0.822,0.455-1.721,0.683-2.693,0.683c-1.562,0-2.824-0.5-3.787-1.502C840.731,501.708,840.251,500.266,840.251,498.382z
					 M842.193,498.382c0,1.429,0.312,2.498,0.935,3.209c0.623,0.71,1.408,1.065,2.354,1.065c0.938,0,1.719-0.356,2.342-1.071
					c0.623-0.714,0.936-1.803,0.936-3.267c0-1.379-0.314-2.424-0.94-3.135c-0.627-0.711-1.406-1.066-2.337-1.066
					c-0.945,0-1.73,0.354-2.354,1.061C842.505,495.886,842.193,496.953,842.193,498.382z"/>
				<path fill="#FFFFFF" d="M852.917,508.234v-15.43h1.723v1.449c0.406-0.567,0.865-0.993,1.377-1.276
					c0.51-0.283,1.131-0.426,1.858-0.426c0.952,0,1.792,0.246,2.521,0.735c0.729,0.49,1.278,1.182,1.649,2.075
					c0.371,0.893,0.557,1.871,0.557,2.936c0,1.142-0.204,2.169-0.614,3.083c-0.41,0.913-1.005,1.613-1.785,2.101
					c-0.781,0.486-1.602,0.729-2.463,0.729c-0.631,0-1.196-0.133-1.697-0.399c-0.5-0.266-0.912-0.602-1.234-1.008v5.431H852.917z
					 M854.63,498.444c0,1.436,0.29,2.497,0.871,3.183c0.582,0.687,1.285,1.029,2.111,1.029c0.84,0,1.561-0.355,2.158-1.065
					c0.6-0.711,0.898-1.812,0.898-3.304c0-1.422-0.293-2.485-0.877-3.193c-0.584-0.707-1.283-1.061-2.096-1.061
					c-0.805,0-1.518,0.376-2.137,1.129C854.939,495.915,854.63,497.01,854.63,498.444z"/>
				<path fill="#FFFFFF" d="M872.517,500.367l1.954,0.241c-0.309,1.142-0.879,2.027-1.712,2.657
					c-0.834,0.63-1.898,0.945-3.193,0.945c-1.632,0-2.926-0.502-3.881-1.507c-0.956-1.005-1.434-2.414-1.434-4.228
					c0-1.877,0.482-3.333,1.449-4.37c0.967-1.036,2.22-1.555,3.76-1.555c1.492,0,2.711,0.508,3.656,1.523s1.418,2.444,1.418,4.285
					c0,0.112-0.004,0.28-0.012,0.505h-8.318c0.07,1.225,0.416,2.163,1.04,2.814c0.623,0.651,1.4,0.977,2.332,0.977
					c0.692,0,1.284-0.182,1.774-0.546S872.229,501.165,872.517,500.367z M866.31,497.311h6.229
					c-0.084-0.938-0.322-1.643-0.715-2.111c-0.602-0.729-1.383-1.093-2.342-1.093c-0.868,0-1.598,0.291-2.189,0.872
					S866.372,496.337,866.31,497.311z"/>
				<path fill="#FFFFFF" d="M876.823,503.959v-11.154h1.701v1.69c0.435-0.791,0.836-1.312,1.203-1.564s0.771-0.379,1.213-0.379
					c0.637,0,1.285,0.203,1.943,0.609l-0.651,1.754c-0.462-0.272-0.925-0.409-1.386-0.409c-0.414,0-0.785,0.124-1.113,0.373
					c-0.33,0.248-0.564,0.593-0.705,1.034c-0.209,0.673-0.314,1.407-0.314,2.206v5.84H876.823z"/>
				<path fill="#FFFFFF" d="M891.286,502.583c-0.699,0.596-1.373,1.016-2.021,1.261c-0.647,0.245-1.343,0.367-2.085,0.367
					c-1.226,0-2.167-0.299-2.825-0.897c-0.658-0.6-0.987-1.364-0.987-2.296c0-0.546,0.124-1.045,0.372-1.496
					c0.249-0.452,0.574-0.814,0.978-1.087c0.402-0.273,0.856-0.479,1.36-0.62c0.371-0.098,0.932-0.192,1.68-0.283
					c1.527-0.183,2.65-0.399,3.373-0.651c0.006-0.259,0.01-0.424,0.01-0.494c0-0.77-0.179-1.312-0.535-1.628
					c-0.483-0.427-1.201-0.641-2.154-0.641c-0.889,0-1.545,0.156-1.969,0.468s-0.737,0.862-0.939,1.654l-1.85-0.252
					c0.168-0.792,0.445-1.431,0.83-1.917c0.385-0.487,0.941-0.861,1.67-1.124s1.572-0.395,2.531-0.395
					c0.953,0,1.727,0.112,2.321,0.337c0.595,0.224,1.033,0.506,1.313,0.845c0.279,0.34,0.476,0.769,0.588,1.287
					c0.062,0.322,0.095,0.903,0.095,1.743v2.521c0,1.758,0.04,2.869,0.12,3.335c0.081,0.466,0.24,0.912,0.479,1.339h-1.975
					C891.469,503.567,891.343,503.108,891.286,502.583z M891.13,498.36c-0.688,0.28-1.717,0.519-3.089,0.715
					c-0.777,0.111-1.327,0.238-1.649,0.378s-0.57,0.345-0.745,0.614s-0.263,0.569-0.263,0.898c0,0.504,0.191,0.924,0.572,1.26
					c0.382,0.337,0.94,0.505,1.676,0.505c0.729,0,1.375-0.159,1.943-0.479c0.566-0.318,0.983-0.754,1.25-1.308
					c0.203-0.427,0.305-1.057,0.305-1.891V498.36z"/>
				<path fill="#FFFFFF" d="M903.25,499.873l1.859,0.241c-0.203,1.282-0.724,2.285-1.56,3.01c-0.838,0.725-1.865,1.087-3.083,1.087
					c-1.526,0-2.754-0.499-3.682-1.497c-0.928-0.997-1.392-2.428-1.392-4.29c0-1.204,0.199-2.259,0.599-3.162
					s1.007-1.58,1.822-2.032c0.815-0.451,1.703-0.678,2.663-0.678c1.211,0,2.201,0.307,2.973,0.92
					c0.77,0.612,1.264,1.482,1.48,2.609l-1.838,0.284c-0.176-0.749-0.485-1.313-0.93-1.691c-0.445-0.378-0.982-0.567-1.612-0.567
					c-0.952,0-1.726,0.342-2.321,1.024s-0.893,1.763-0.893,3.24c0,1.499,0.287,2.588,0.861,3.267
					c0.574,0.68,1.323,1.019,2.248,1.019c0.742,0,1.361-0.228,1.858-0.683S903.117,500.818,903.25,499.873z"/>
				<path fill="#FFFFFF" d="M906.737,490.735v-2.175h1.891v2.175H906.737z M906.737,503.959v-11.154h1.891v11.154H906.737z"/>
				<path fill="#FFFFFF" d="M910.802,498.382c0-2.065,0.574-3.596,1.723-4.59c0.959-0.826,2.129-1.24,3.508-1.24
					c1.534,0,2.787,0.503,3.761,1.508s1.46,2.393,1.46,4.164c0,1.436-0.215,2.565-0.646,3.388c-0.43,0.823-1.057,1.462-1.879,1.917
					c-0.823,0.455-1.722,0.683-2.695,0.683c-1.561,0-2.823-0.5-3.785-1.502C911.284,501.708,910.802,500.266,910.802,498.382z
					 M912.745,498.382c0,1.429,0.312,2.498,0.936,3.209c0.623,0.71,1.406,1.065,2.352,1.065c0.939,0,1.72-0.356,2.343-1.071
					c0.624-0.714,0.935-1.803,0.935-3.267c0-1.379-0.312-2.424-0.939-3.135s-1.406-1.066-2.338-1.066
					c-0.945,0-1.729,0.354-2.352,1.061C913.057,495.886,912.745,496.953,912.745,498.382z M914.982,491.418l1.397-2.941h2.479
					l-2.311,2.941H914.982z"/>
				<path fill="#FFFFFF" d="M923.47,503.959v-11.154h1.701v1.586c0.819-1.226,2.002-1.839,3.551-1.839
					c0.672,0,1.289,0.121,1.854,0.363c0.563,0.241,0.985,0.558,1.266,0.95c0.279,0.393,0.476,0.857,0.588,1.396
					c0.07,0.351,0.105,0.963,0.105,1.839v6.858h-1.891v-6.785c0-0.771-0.074-1.347-0.221-1.728
					c-0.147-0.382-0.408-0.687-0.783-0.914s-0.813-0.342-1.318-0.342c-0.805,0-1.5,0.256-2.084,0.767
					c-0.585,0.512-0.877,1.481-0.877,2.91v6.092H923.47z"/>
				<path fill="#FFFFFF" d="M941.42,490.735v-2.175h1.891v2.175H941.42z M941.42,503.959v-11.154h1.891v11.154H941.42z"/>
				<path fill="#FFFFFF" d="M946.188,503.959v-11.154h1.701v1.586c0.82-1.226,2.003-1.839,3.551-1.839
					c0.672,0,1.29,0.121,1.854,0.363c0.564,0.241,0.986,0.558,1.266,0.95c0.28,0.393,0.477,0.857,0.588,1.396
					c0.07,0.351,0.105,0.963,0.105,1.839v6.858h-1.891v-6.785c0-0.771-0.073-1.347-0.221-1.728
					c-0.146-0.382-0.408-0.687-0.782-0.914c-0.375-0.228-0.813-0.342-1.318-0.342c-0.806,0-1.501,0.256-2.085,0.767
					c-0.584,0.512-0.877,1.481-0.877,2.91v6.092H946.188z"/>
				<path fill="#FFFFFF" d="M962.28,502.268l0.272,1.67c-0.532,0.112-1.009,0.169-1.429,0.169c-0.686,0-1.219-0.109-1.596-0.326
					c-0.379-0.217-0.645-0.502-0.799-0.855s-0.23-1.098-0.23-2.232v-6.418h-1.387v-1.47h1.387v-2.763l1.879-1.135v3.897h1.902v1.47
					h-1.902v6.523c0,0.539,0.033,0.886,0.101,1.039c0.066,0.154,0.175,0.277,0.325,0.368s0.366,0.137,0.646,0.137
					C961.66,502.342,961.937,502.317,962.28,502.268z"/>
				<path fill="#FFFFFF" d="M971.765,500.367l1.953,0.241c-0.309,1.142-0.879,2.027-1.712,2.657s-1.897,0.945-3.192,0.945
					c-1.633,0-2.926-0.502-3.881-1.507c-0.957-1.005-1.435-2.414-1.435-4.228c0-1.877,0.483-3.333,1.45-4.37
					c0.966-1.036,2.219-1.555,3.76-1.555c1.491,0,2.71,0.508,3.655,1.523s1.418,2.444,1.418,4.285c0,0.112-0.004,0.28-0.011,0.505
					h-8.318c0.07,1.225,0.416,2.163,1.039,2.814s1.4,0.977,2.332,0.977c0.693,0,1.285-0.182,1.775-0.546
					S971.478,501.165,971.765,500.367z M965.558,497.311h6.229c-0.084-0.938-0.322-1.643-0.715-2.111
					c-0.603-0.729-1.383-1.093-2.342-1.093c-0.869,0-1.599,0.291-2.19,0.872S965.62,496.337,965.558,497.311z"/>
				<path fill="#FFFFFF" d="M976.071,503.959v-11.154h1.701v1.69c0.434-0.791,0.835-1.312,1.203-1.564
					c0.367-0.252,0.771-0.379,1.213-0.379c0.637,0,1.285,0.203,1.943,0.609l-0.652,1.754c-0.461-0.272-0.924-0.409-1.386-0.409
					c-0.413,0-0.784,0.124-1.113,0.373c-0.329,0.248-0.563,0.593-0.704,1.034c-0.21,0.673-0.314,1.407-0.314,2.206v5.84H976.071z"/>
				<path fill="#FFFFFF" d="M983.255,503.959v-11.154h1.702v1.586c0.819-1.226,2.003-1.839,3.55-1.839
					c0.672,0,1.291,0.121,1.854,0.363c0.564,0.241,0.986,0.558,1.266,0.95c0.281,0.393,0.477,0.857,0.589,1.396
					c0.069,0.351,0.104,0.963,0.104,1.839v6.858h-1.891v-6.785c0-0.771-0.072-1.347-0.221-1.728
					c-0.146-0.382-0.407-0.687-0.781-0.914c-0.375-0.228-0.814-0.342-1.318-0.342c-0.806,0-1.501,0.256-2.086,0.767
					c-0.584,0.512-0.877,1.481-0.877,2.91v6.092H983.255z"/>
				<path fill="#FFFFFF" d="M1002.497,502.583c-0.699,0.596-1.373,1.016-2.021,1.261c-0.647,0.245-1.343,0.367-2.085,0.367
					c-1.226,0-2.167-0.299-2.825-0.897c-0.658-0.6-0.987-1.364-0.987-2.296c0-0.546,0.124-1.045,0.372-1.496
					c0.249-0.452,0.574-0.814,0.978-1.087c0.402-0.273,0.856-0.479,1.36-0.62c0.371-0.098,0.932-0.192,1.68-0.283
					c1.527-0.183,2.65-0.399,3.373-0.651c0.006-0.259,0.01-0.424,0.01-0.494c0-0.77-0.179-1.312-0.535-1.628
					c-0.483-0.427-1.201-0.641-2.154-0.641c-0.889,0-1.545,0.156-1.969,0.468s-0.737,0.862-0.939,1.654l-1.85-0.252
					c0.168-0.792,0.445-1.431,0.83-1.917c0.385-0.487,0.941-0.861,1.67-1.124s1.572-0.395,2.531-0.395
					c0.953,0,1.727,0.112,2.321,0.337c0.595,0.224,1.033,0.506,1.313,0.845c0.279,0.34,0.476,0.769,0.588,1.287
					c0.062,0.322,0.095,0.903,0.095,1.743v2.521c0,1.758,0.04,2.869,0.12,3.335c0.081,0.466,0.24,0.912,0.479,1.339h-1.975
					C1002.68,503.567,1002.554,503.108,1002.497,502.583z M1002.341,498.36c-0.688,0.28-1.717,0.519-3.089,0.715
					c-0.777,0.111-1.327,0.238-1.649,0.378s-0.57,0.345-0.745,0.614s-0.263,0.569-0.263,0.898c0,0.504,0.191,0.924,0.572,1.26
					c0.382,0.337,0.94,0.505,1.676,0.505c0.729,0,1.375-0.159,1.943-0.479c0.566-0.318,0.983-0.754,1.25-1.308
					c0.203-0.427,0.305-1.057,0.305-1.891V498.36z"/>
				<path fill="#FFFFFF" d="M1014.461,499.873l1.859,0.241c-0.203,1.282-0.724,2.285-1.56,3.01
					c-0.838,0.725-1.865,1.087-3.083,1.087c-1.526,0-2.754-0.499-3.682-1.497c-0.928-0.997-1.392-2.428-1.392-4.29
					c0-1.204,0.199-2.259,0.599-3.162s1.007-1.58,1.822-2.032c0.815-0.451,1.703-0.678,2.663-0.678c1.211,0,2.201,0.307,2.973,0.92
					c0.77,0.612,1.264,1.482,1.48,2.609l-1.838,0.284c-0.176-0.749-0.485-1.313-0.93-1.691c-0.445-0.378-0.982-0.567-1.612-0.567
					c-0.952,0-1.726,0.342-2.321,1.024s-0.893,1.763-0.893,3.24c0,1.499,0.287,2.588,0.861,3.267
					c0.574,0.68,1.323,1.019,2.248,1.019c0.742,0,1.361-0.228,1.858-0.683S1014.328,500.818,1014.461,499.873z"/>
				<path fill="#FFFFFF" d="M1017.948,490.735v-2.175h1.891v2.175H1017.948z M1017.948,503.959v-11.154h1.891v11.154H1017.948z"/>
				<path fill="#FFFFFF" d="M1022.013,498.382c0-2.065,0.574-3.596,1.723-4.59c0.959-0.826,2.129-1.24,3.508-1.24
					c1.534,0,2.787,0.503,3.761,1.508s1.46,2.393,1.46,4.164c0,1.436-0.215,2.565-0.646,3.388c-0.43,0.823-1.057,1.462-1.879,1.917
					c-0.823,0.455-1.722,0.683-2.695,0.683c-1.561,0-2.823-0.5-3.785-1.502C1022.495,501.708,1022.013,500.266,1022.013,498.382z
					 M1023.956,498.382c0,1.429,0.312,2.498,0.936,3.209c0.623,0.71,1.406,1.065,2.352,1.065c0.939,0,1.72-0.356,2.343-1.071
					c0.624-0.714,0.935-1.803,0.935-3.267c0-1.379-0.312-2.424-0.939-3.135s-1.406-1.066-2.338-1.066
					c-0.945,0-1.729,0.354-2.352,1.061C1024.268,495.886,1023.956,496.953,1023.956,498.382z"/>
				<path fill="#FFFFFF" d="M1034.681,503.959v-11.154h1.701v1.586c0.819-1.226,2.002-1.839,3.551-1.839
					c0.672,0,1.289,0.121,1.854,0.363c0.563,0.241,0.985,0.558,1.266,0.95c0.279,0.393,0.476,0.857,0.588,1.396
					c0.07,0.351,0.105,0.963,0.105,1.839v6.858h-1.891v-6.785c0-0.771-0.074-1.347-0.221-1.728
					c-0.147-0.382-0.408-0.687-0.783-0.914s-0.813-0.342-1.318-0.342c-0.805,0-1.5,0.256-2.084,0.767
					c-0.585,0.512-0.877,1.481-0.877,2.91v6.092H1034.681z"/>
				<path fill="#FFFFFF" d="M1053.923,502.583c-0.701,0.596-1.375,1.016-2.022,1.261s-1.343,0.367-2.085,0.367
					c-1.225,0-2.167-0.299-2.825-0.897c-0.658-0.6-0.987-1.364-0.987-2.296c0-0.546,0.124-1.045,0.373-1.496
					c0.248-0.452,0.574-0.814,0.977-1.087c0.402-0.273,0.855-0.479,1.36-0.62c0.371-0.098,0.931-0.192,1.681-0.283
					c1.526-0.183,2.65-0.399,3.371-0.651c0.008-0.259,0.011-0.424,0.011-0.494c0-0.77-0.179-1.312-0.536-1.628
					c-0.482-0.427-1.201-0.641-2.152-0.641c-0.89,0-1.547,0.156-1.97,0.468c-0.424,0.312-0.737,0.862-0.94,1.654l-1.848-0.252
					c0.168-0.792,0.443-1.431,0.829-1.917c0.386-0.487,0.942-0.861,1.67-1.124c0.729-0.263,1.572-0.395,2.532-0.395
					c0.951,0,1.725,0.112,2.32,0.337c0.596,0.224,1.033,0.506,1.312,0.845c0.281,0.34,0.477,0.769,0.589,1.287
					c0.063,0.322,0.095,0.903,0.095,1.743v2.521c0,1.758,0.04,2.869,0.121,3.335c0.08,0.466,0.239,0.912,0.478,1.339h-1.975
					C1054.104,503.567,1053.979,503.108,1053.923,502.583z M1053.765,498.36c-0.686,0.28-1.715,0.519-3.088,0.715
					c-0.777,0.111-1.327,0.238-1.648,0.378c-0.322,0.14-0.571,0.345-0.746,0.614c-0.176,0.27-0.263,0.569-0.263,0.898
					c0,0.504,0.19,0.924,0.572,1.26c0.382,0.337,0.94,0.505,1.675,0.505c0.729,0,1.377-0.159,1.943-0.479
					c0.568-0.318,0.984-0.754,1.25-1.308c0.203-0.427,0.305-1.057,0.305-1.891V498.36z"/>
				<path fill="#FFFFFF" d="M1058.565,503.959v-15.398h1.891v15.398H1058.565z"/>
			</g>
		</g>
	</g>
</g>
</svg>
