<?xml version="1.0" encoding="utf-8"?>
<!-- Generator: Adobe Illustrator 16.0.0, SVG Export Plug-In . SVG Version: 6.00 Build 0)  -->
<!DOCTYPE svg PUBLIC "-//W3C//DTD SVG 1.1//EN" "http://www.w3.org/Graphics/SVG/1.1/DTD/svg11.dtd">
<svg version="1.1" id="Capa_1" xmlns="http://www.w3.org/2000/svg" xmlns:xlink="http://www.w3.org/1999/xlink" x="0px" y="0px"
	 width="527.316px" height="328.895px" viewBox="0 0 527.316 328.895" enable-background="new 0 0 527.316 328.895"
	 xml:space="preserve">
<g>
	<g>
		<path fill="#A0C219" d="M0,0l4.824,328.895l485.494-2.455L517,40.764c-2.939,1.358-6.246,2.037-9.705,1.84
			c-11.229-0.643-19.82-10.275-19.178-21.514c0.174-3.051,1.014-5.914,2.367-8.439L0,0z"/>
		<path fill="#A0C219" d="M509.037,12.248c-5.527-0.316-10.266,3.907-10.582,9.435c-0.316,5.526,3.908,10.262,9.438,10.579
			c5.525,0.315,10.262-3.909,10.576-9.434C518.785,17.301,514.564,12.564,509.037,12.248z M513.103,26.277
			c0.287,0.324,0.262,0.818-0.062,1.109c-0.326,0.287-0.818,0.26-1.107-0.063l-3.529-3.959l-3.961,3.531
			c-0.324,0.287-0.82,0.26-1.109-0.063c-0.283-0.325-0.254-0.819,0.064-1.108l3.957-3.531l-3.529-3.96
			c-0.289-0.325-0.254-0.817,0.072-1.109c0.314-0.278,0.811-0.259,1.1,0.063l3.531,3.959l3.961-3.529
			c0.322-0.281,0.814-0.252,1.107,0.062c0.287,0.326,0.26,0.818-0.064,1.11l-3.959,3.53L513.103,26.277z"/>
		<g>
			<path fill="#A0C219" d="M489.64,21.178c0.594-10.379,9.521-18.339,19.898-17.746c10.379,0.593,18.34,9.521,17.746,19.898
				c-0.594,10.379-9.521,18.34-19.898,17.747C497.007,40.482,489.046,31.557,489.64,21.178z M495.458,21.511
				c-0.41,7.171,5.09,13.336,12.26,13.746c7.17,0.409,13.336-5.089,13.746-12.259c0.412-7.17-5.088-13.337-12.258-13.747
				C502.037,8.842,495.869,14.34,495.458,21.511z"/>
		</g>
	</g>
	<g>
		<path fill="#2C5A67" d="M166.283,82.543h11.345v2.285h-3.982v26.523h-3.38V84.828h-3.982L166.283,82.543L166.283,82.543z"/>
		<path fill="#2C5A67" d="M181.113,82.543h5.083c2.62,0,4.393,0.273,5.319,0.82c0.926,0.547,1.389,1.53,1.389,2.949v6.523
			c0,1.198-0.306,2.045-0.917,2.539c-0.612,0.495-1.694,0.795-3.249,0.898c1.659,0.078,2.812,0.365,3.458,0.859
			c0.646,0.495,0.969,1.354,0.969,2.578v11.641h-3.537v-10.76c0-1.354-0.258-2.232-0.772-2.637
			c-0.516-0.403-1.577-0.605-3.184-0.605h-1.231v14.004h-3.328V82.543L181.113,82.543z M184.44,84.672v10.527h1.179
			c1.52,0,2.533-0.198,3.04-0.596c0.506-0.396,0.76-1.279,0.76-2.646v-4.004c0-1.38-0.253-2.271-0.76-2.676
			c-0.507-0.403-1.52-0.605-3.04-0.605H184.44z"/>
		<path fill="#2C5A67" d="M202.257,82.543h4.874l5.581,28.809h-3.589l-1.337-8.008h-6.34l-1.441,8.008h-3.511L202.257,82.543z
			 M204.562,84.672l-2.803,16.562h5.581l-2.62-16.562H204.562z"/>
		<path fill="#2C5A67" d="M216.249,82.543h5.083c2.62,0,4.393,0.273,5.319,0.82c0.926,0.547,1.389,1.53,1.389,2.949v6.523
			c0,1.198-0.306,2.045-0.917,2.539c-0.612,0.495-1.694,0.795-3.249,0.898c1.659,0.078,2.812,0.365,3.458,0.859
			c0.646,0.495,0.969,1.354,0.969,2.578v7.871c0,1.42-0.463,2.402-1.389,2.949c-0.926,0.547-2.698,0.82-5.318,0.82h-5.345V82.543z
			 M219.576,84.672v10.527h1.179c1.52,0,2.533-0.198,3.04-0.596c0.506-0.396,0.76-1.279,0.76-2.646v-4.004
			c0-1.38-0.253-2.271-0.76-2.676c-0.507-0.403-1.52-0.605-3.04-0.605H219.576z M219.576,97.348v11.875h1.231
			c1.606,0,2.668-0.198,3.184-0.596c0.515-0.396,0.772-1.272,0.772-2.627v-5.41c0-1.354-0.258-2.232-0.772-2.637
			c-0.516-0.403-1.577-0.605-3.184-0.605H219.576z"/>
		<path fill="#2C5A67" d="M237.393,82.543h4.874l5.581,28.809h-3.589l-1.337-8.008h-6.34l-1.441,8.008h-3.511L237.393,82.543z
			 M239.698,84.672l-2.803,16.562h5.581l-2.62-16.562H239.698z"/>
		<path fill="#2C5A67" d="M256.31,82.543h3.38v22.93c0,2.409-0.406,4.066-1.218,4.971c-0.812,0.905-2.231,1.357-4.258,1.357
			c-2.027,0-3.437-0.358-4.231-1.074s-1.192-2.024-1.192-3.926v-3.203h3.433v3.105c0,1.198,0.144,1.992,0.433,2.383
			c0.288,0.391,0.808,0.586,1.559,0.586c0.786,0,1.332-0.254,1.638-0.762c0.306-0.508,0.458-1.523,0.458-3.047v-23.32H256.31z"/>
		<path fill="#2C5A67" d="M277.559,88.422v17.051c0,2.475-0.445,4.154-1.336,5.039c-0.892,0.885-2.479,1.328-4.769,1.328
			c-2.254,0-3.826-0.449-4.717-1.348c-0.891-0.898-1.336-2.571-1.336-5.02v-17.05c0-2.422,0.45-4.078,1.35-4.971
			c0.898-0.892,2.484-1.338,4.756-1.338c2.271,0,3.847,0.443,4.729,1.328C277.119,84.327,277.559,85.987,277.559,88.422z
			 M274.074,88.031c0-1.458-0.191-2.457-0.576-2.998c-0.385-0.54-1.064-0.811-2.043-0.811c-0.961,0-1.629,0.264-2.004,0.791
			c-0.377,0.527-0.563,1.533-0.563,3.018v17.832c0,1.498,0.192,2.507,0.575,3.027c0.385,0.521,1.065,0.781,2.045,0.781
			c0.959,0,1.627-0.26,2.004-0.781c0.376-0.521,0.562-1.529,0.562-3.027V88.031z"/>
	</g>
	<g>
		<path fill="#2C5A67" d="M123.517,95.37c0.05,0.39,0.04,0.8,0.03,1.21c-0.01,0.34-0.24,0.6-0.54,0.68
			c-0.63,0.18-1.271,0.36-1.92,0.41c-1,0.06-2.021,0.01-3.03,0.01v-0.07h-3.8c-0.091,0-0.19-0.02-0.28-0.039
			c-1.33-0.311-1.77-1.141-1.3-2.44c0.181-0.48,0.62-0.771,1.21-0.771c2.52-0.01,5.04-0.01,7.57-0.01c0.31,0,0.619,0,0.93,0.01
			C122.977,94.38,123.437,94.77,123.517,95.37z"/>
		<path fill="#2C5A67" d="M118.767,70.63c-20.81,0-37.68,16.87-37.68,37.67c0,20.81,16.87,37.68,37.68,37.68
			s37.67-16.87,37.67-37.68C156.437,87.5,139.576,70.63,118.767,70.63z M136.607,122.59c0,0.7-0.32,1.3-0.891,1.69
			c-0.41,0.27-0.91,0.399-1.37,0.6h-32.54c-0.061-0.021-0.12-0.06-0.18-0.07c-1.2-0.189-2.061-1.069-2.08-2.26
			c-0.04-2.59-0.02-5.18-0.03-7.77c0-0.33,0.21-0.32,0.42-0.33c0.761-0.04,1.511-0.08,2.271-0.08c3.3-0.011,6.6,0.02,9.91-0.021
			c1.189-0.01,2.22,0.32,3.149,1.03c0.24,0.18,0.46,0.37,0.69,0.56c0.4,0.351,0.869,0.54,1.39,0.591c1.229,0.1,2.36-0.021,3.33-0.96
			c0.86-0.82,1.931-1.23,3.16-1.221c3.38,0.03,6.771,0.01,10.149,0.021c0.76,0,1.51,0.05,2.271,0.08c0.2,0.01,0.38,0.029,0.38,0.33
			C136.627,117.39,136.627,119.99,136.607,122.59z M138.787,110.06c-0.01,0.96-0.94,2.19-1.871,2.41
			c-0.779,0.17-1.59,0.271-2.389,0.28c-3.591,0.03-7.181,0.01-10.761,0.01c-0.33,0-0.649-0.02-0.97-0.08
			c-0.96-0.18-1.721-0.74-2.439-1.359c-0.561-0.49-1.201-0.75-1.951-0.711c-0.34,0.011-0.689-0.05-1.01,0.03
			c-0.449,0.101-0.89,0.26-1.3,0.46c-0.26,0.13-0.47,0.37-0.7,0.55c-0.91,0.721-1.92,1.131-3.119,1.12
			c-3.531-0.029-7.061,0-10.601-0.02c-0.69,0-1.39-0.09-2.08-0.18c-0.569-0.08-1.101-0.29-1.42-0.82
			c-0.271-0.45-0.55-0.91-0.819-1.36V99.63c0.02-0.03,0.059-0.06,0.069-0.09c0.46-1.311,1.22-1.86,2.601-1.86
			c2.52,0,5.029,0.01,7.549,0c0.69,0,1.371-0.08,2-0.39c0.391-0.2,0.61-0.48,0.57-0.931c-0.02-0.27-0.01-0.539,0-0.81
			c0.07-1.44,0.69-2.57,1.99-3.22c0.48-0.24,1.04-0.32,1.57-0.471h8.74c0.09,0.021,0.18,0.061,0.27,0.07
			c1.27,0.13,2.199,0.79,2.83,1.891c0.439,0.75,0.47,1.579,0.46,2.42c-0.011,0.67,0.12,0.92,0.76,1.119
			c0.58,0.181,1.2,0.301,1.81,0.311c2.601,0.03,5.201,0.01,7.811,0.02c1.279,0,2.391,1.021,2.4,2.261
			C138.807,103.32,138.797,106.689,138.787,110.06z"/>
	</g>
</g>
</svg>
