<?xml version="1.0" encoding="utf-8"?>
<!-- Generator: Adobe Illustrator 16.0.0, SVG Export Plug-In . SVG Version: 6.00 Build 0)  -->
<!DOCTYPE svg PUBLIC "-//W3C//DTD SVG 1.1//EN" "http://www.w3.org/Graphics/SVG/1.1/DTD/svg11.dtd">
<svg version="1.1" id="Capa_1" xmlns="http://www.w3.org/2000/svg" xmlns:xlink="http://www.w3.org/1999/xlink" x="0px" y="0px"
	 width="731.246px" height="195.381px" viewBox="0 0 731.246 195.381" enable-background="new 0 0 731.246 195.381"
	 xml:space="preserve">
<g>
	<g>
		<g>
			<path fill="#331842" d="M215.934,52.596v4.822c0,1.3-0.275,2.891-0.826,4.771c-0.55,1.881-1.354,3.898-2.408,6.053
				l-18.995,38.731h21.816v5.592h-29.593v-7.438l17.343-35.5l0.207-0.462c2.478-4.822,3.716-8.909,3.716-12.261v-4.669
				c0-3.146-0.447-5.387-1.342-6.72c-0.895-1.334-2.375-2.001-4.439-2.001c-2.157,0-3.682,0.71-4.577,2.129
				c-0.895,1.42-1.342,3.942-1.342,7.566v4.925h-8.878v-3.898c0-6.156,1.101-10.371,3.304-12.646
				c2.202-2.274,6.032-3.411,11.493-3.411c5.23,0,8.958,1.095,11.183,3.283C214.82,43.652,215.934,47.363,215.934,52.596z"/>
			<path fill="#331842" d="M228.94,104.256h9.704v8.312h-9.704V104.256z"/>
		</g>
	</g>
</g>
</svg>
