<?xml version="1.0" encoding="utf-8"?>
<!-- Generator: Adobe Illustrator 16.0.0, SVG Export Plug-In . SVG Version: 6.00 Build 0)  -->
<!DOCTYPE svg PUBLIC "-//W3C//DTD SVG 1.1//EN" "http://www.w3.org/Graphics/SVG/1.1/DTD/svg11.dtd">
<svg version="1.1" id="Capa_1" xmlns="http://www.w3.org/2000/svg" xmlns:xlink="http://www.w3.org/1999/xlink" x="0px" y="0px"
	 width="197.461px" height="39.795px" viewBox="0 84.473 197.461 39.795" enable-background="new 0 84.473 197.461 39.795"
	 xml:space="preserve">
<g>
	<polygon opacity="0.7" fill="#FFFFFF" enable-background="new    " points="0,87.205 197.461,84.473 197.461,124.268 
		25.25,124.248 	"/>
	<g>
		<g>
			<path fill="#331842" d="M56.91,92.249v1.377h-1.755v-1.338c0-0.561-0.081-0.947-0.243-1.162s-0.448-0.322-0.858-0.322
				c-0.376,0-0.638,0.122-0.786,0.366s-0.223,0.757-0.223,1.538v8.916c0,0.801,0.079,1.32,0.236,1.562
				c0.157,0.241,0.445,0.361,0.865,0.361c0.358,0,0.615-0.114,0.772-0.342c0.157-0.229,0.236-0.615,0.236-1.162v-1.553h1.755v1.602
				c0,0.983-0.205,1.648-0.615,1.997c-0.411,0.348-1.145,0.521-2.201,0.521c-1.039,0-1.764-0.225-2.175-0.674
				c-0.41-0.449-0.615-1.286-0.615-2.51v-8.525c0-1.218,0.205-2.048,0.615-2.489c0.411-0.442,1.136-0.664,2.175-0.664
				c1.065,0,1.802,0.173,2.208,0.518C56.707,90.611,56.91,91.272,56.91,92.249z"/>
			<path fill="#331842" d="M65.084,92.903v8.525c0,1.237-0.223,2.077-0.668,2.521c-0.445,0.442-1.24,0.663-2.384,0.663
				c-1.126,0-1.913-0.225-2.358-0.674c-0.445-0.449-0.668-1.286-0.668-2.51v-8.525c0-1.211,0.225-2.04,0.674-2.484
				c0.45-0.446,1.243-0.669,2.378-0.669c1.135,0,1.923,0.222,2.365,0.664C64.864,90.855,65.084,91.686,65.084,92.903z
				 M63.342,92.708c0-0.729-0.096-1.229-0.288-1.499c-0.192-0.271-0.533-0.405-1.022-0.405c-0.48,0-0.814,0.132-1.002,0.396
				c-0.188,0.264-0.281,0.767-0.281,1.509v8.916c0,0.749,0.096,1.253,0.288,1.514s0.533,0.391,1.022,0.391
				c0.48,0,0.814-0.13,1.002-0.391s0.281-0.765,0.281-1.514V92.708z"/>
			<path fill="#331842" d="M68.019,89.964h2.28l2.764,13.545h0.026L72.84,89.964h1.507v14.404h-2.306l-2.738-13.359H69.25
				l0.236,13.359h-1.468L68.019,89.964L68.019,89.964z"/>
			<path fill="#331842" d="M82.377,92.249v1.377h-1.742v-1.338c0-0.566-0.079-0.956-0.236-1.167
				c-0.157-0.212-0.437-0.317-0.838-0.317c-0.385,0-0.655,0.118-0.812,0.356c-0.157,0.236-0.236,0.658-0.236,1.265v0.703
				c0,0.293,0.054,0.594,0.164,0.903c0.109,0.309,0.269,0.601,0.479,0.874l2.175,2.86c0.367,0.481,0.633,0.937,0.799,1.362
				s0.249,0.867,0.249,1.323v0.977c0,1.25-0.212,2.093-0.636,2.529c-0.423,0.436-1.177,0.653-2.26,0.653
				c-1.057,0-1.792-0.176-2.207-0.526c-0.415-0.353-0.622-1.017-0.622-1.992v-1.602h1.755v1.553c0,0.586,0.079,0.982,0.236,1.19
				c0.157,0.208,0.445,0.313,0.864,0.313c0.428,0,0.723-0.119,0.885-0.356c0.161-0.237,0.242-0.76,0.242-1.566v-0.996
				c0-0.371-0.046-0.708-0.138-1.011c-0.092-0.304-0.225-0.578-0.399-0.825l-2.306-3.066c-0.323-0.41-0.57-0.801-0.74-1.172
				c-0.17-0.371-0.256-0.693-0.256-0.967v-0.84c0-1.12,0.208-1.899,0.623-2.339s1.128-0.659,2.142-0.659
				c1.065,0,1.801,0.173,2.207,0.518C82.175,90.611,82.377,91.272,82.377,92.249z"/>
			<path fill="#331842" d="M84.709,89.964h1.769v14.404h-1.769V89.964z"/>
			<path fill="#331842" d="M89.425,89.964h1.952c1.65,0,2.729,0.193,3.236,0.581c0.506,0.387,0.76,1.273,0.76,2.661v7.92
				c0,1.38-0.258,2.266-0.773,2.656c-0.515,0.39-1.59,0.586-3.223,0.586h-1.952V89.964z M91.089,91.028v12.275h0.537
				c0.804,0,1.334-0.1,1.592-0.298c0.257-0.199,0.386-0.637,0.386-1.313v-9.022c0-0.685-0.131-1.128-0.393-1.333
				c-0.262-0.205-0.79-0.309-1.585-0.309H91.089z"/>
			<path fill="#331842" d="M98.308,89.964h4.61v1.143h-2.947v5.187h2.816v1.133h-2.816v5.801h3.025v1.144h-4.688V89.964z"/>
			<path fill="#331842" d="M105.395,89.964h2.542c1.31,0,2.196,0.137,2.659,0.41c0.463,0.272,0.693,0.765,0.693,1.475v3.262
				c0,0.6-0.152,1.022-0.457,1.271c-0.307,0.247-0.848,0.396-1.625,0.449c0.83,0.039,1.405,0.183,1.729,0.43
				c0.322,0.247,0.484,0.677,0.484,1.289v5.82h-1.77v-5.382c0-0.677-0.129-1.115-0.387-1.317s-0.788-0.303-1.592-0.303h-0.615v7.002
				h-1.664V89.964H105.395z M107.059,91.028v5.265h0.589c0.761,0,1.267-0.101,1.521-0.298c0.252-0.199,0.379-0.641,0.379-1.323
				v-2.002c0-0.69-0.127-1.136-0.379-1.338c-0.254-0.202-0.76-0.304-1.521-0.304H107.059z"/>
			<path fill="#331842" d="M115.967,89.964h2.437l2.791,14.404H119.4l-0.668-4.004h-3.171l-0.721,4.004h-1.754L115.967,89.964z
				 M117.12,91.028l-1.402,8.281h2.791l-1.309-8.281H117.12z"/>
			<path fill="#331842" d="M128.493,92.249v1.377h-1.757v-1.338c0-0.561-0.081-0.947-0.241-1.162
				c-0.162-0.215-0.447-0.322-0.858-0.322c-0.375,0-0.638,0.122-0.786,0.366s-0.223,0.757-0.223,1.538v8.916
				c0,0.801,0.078,1.32,0.235,1.562s0.445,0.361,0.864,0.361c0.357,0,0.615-0.114,0.773-0.342c0.156-0.229,0.234-0.615,0.234-1.162
				v-1.553h1.756v1.602c0,0.983-0.205,1.648-0.615,1.997c-0.41,0.348-1.145,0.521-2.201,0.521c-1.039,0-1.764-0.225-2.174-0.674
				c-0.412-0.449-0.617-1.286-0.617-2.51v-8.525c0-1.218,0.205-2.048,0.617-2.489c0.41-0.442,1.135-0.664,2.174-0.664
				c1.066,0,1.802,0.173,2.207,0.518C128.288,90.611,128.493,91.272,128.493,92.249z"/>
			<path fill="#331842" d="M130.667,89.964h1.77v14.404h-1.77V89.964z"/>
			<path fill="#331842" d="M141.381,92.903v8.525c0,1.237-0.223,2.077-0.668,2.521c-0.444,0.442-1.239,0.663-2.383,0.663
				c-1.127,0-1.914-0.225-2.358-0.674c-0.445-0.449-0.668-1.286-0.668-2.51v-8.525c0-1.211,0.225-2.04,0.674-2.484
				c0.45-0.446,1.243-0.669,2.378-0.669s1.923,0.222,2.365,0.664C141.163,90.855,141.381,91.686,141.381,92.903z M139.64,92.708
				c0-0.729-0.097-1.229-0.288-1.499c-0.191-0.271-0.533-0.405-1.021-0.405c-0.48,0-0.814,0.132-1.002,0.396
				c-0.188,0.264-0.281,0.767-0.281,1.509v8.916c0,0.749,0.096,1.253,0.287,1.514c0.192,0.261,0.533,0.391,1.022,0.391
				c0.479,0,0.813-0.13,1.002-0.391s0.281-0.765,0.281-1.514V92.708z"/>
			<path fill="#331842" d="M144.317,89.964h2.28l2.764,13.545h0.026l-0.249-13.545h1.507v14.404h-2.307l-2.737-13.359h-0.054
				l0.236,13.359h-1.468L144.317,89.964L144.317,89.964z"/>
			<path fill="#331842" d="M153.631,89.964h4.611v1.143h-2.947v5.187h2.815v1.133h-2.815v5.801h3.025v1.144h-4.689V89.964z"/>
			<path fill="#331842" d="M165.763,92.249v1.377h-1.743v-1.338c0-0.566-0.078-0.956-0.234-1.167
				c-0.158-0.212-0.438-0.317-0.84-0.317c-0.384,0-0.654,0.118-0.813,0.356c-0.156,0.236-0.235,0.658-0.235,1.265v0.703
				c0,0.293,0.056,0.594,0.164,0.903c0.108,0.309,0.269,0.601,0.478,0.874l2.174,2.86c0.367,0.481,0.634,0.937,0.8,1.362
				s0.249,0.867,0.249,1.323v0.977c0,1.25-0.213,2.093-0.635,2.529c-0.424,0.436-1.178,0.653-2.26,0.653
				c-1.058,0-1.793-0.176-2.209-0.526c-0.414-0.353-0.621-1.017-0.621-1.992v-1.602h1.756v1.553c0,0.586,0.078,0.982,0.234,1.19
				c0.157,0.208,0.445,0.313,0.865,0.313c0.428,0,0.723-0.119,0.884-0.356c0.162-0.237,0.242-0.76,0.242-1.566v-0.996
				c0-0.371-0.046-0.708-0.138-1.011c-0.092-0.304-0.225-0.578-0.399-0.825l-2.306-3.066c-0.323-0.41-0.569-0.801-0.74-1.172
				c-0.17-0.371-0.255-0.693-0.255-0.967v-0.84c0-1.12,0.207-1.899,0.622-2.339c0.414-0.439,1.129-0.659,2.142-0.659
				c1.065,0,1.802,0.173,2.208,0.518C165.56,90.611,165.763,91.272,165.763,92.249z"/>
			<path fill="#331842" d="M27.748,107.199h2.542c1.31,0,2.196,0.137,2.659,0.409c0.463,0.273,0.694,0.767,0.694,1.476v3.262
				c0,0.6-0.152,1.022-0.458,1.271s-0.848,0.396-1.625,0.448c0.83,0.039,1.406,0.184,1.729,0.431
				c0.323,0.248,0.485,0.678,0.485,1.289v5.819h-1.769v-5.381c0-0.677-0.129-1.116-0.386-1.318c-0.257-0.2-0.788-0.303-1.591-0.303
				h-0.616v7.002h-1.664V107.199z M29.412,108.264v5.264h0.59c0.76,0,1.266-0.1,1.52-0.298c0.253-0.197,0.38-0.64,0.38-1.322v-2.003
				c0-0.688-0.127-1.136-0.38-1.338c-0.253-0.2-0.76-0.303-1.52-0.303H29.412z"/>
			<path fill="#331842" d="M36.683,107.199h4.611v1.143h-2.948v5.186h2.817v1.134h-2.817v5.801h3.026v1.143h-4.69L36.683,107.199
				L36.683,107.199z"/>
			<path fill="#331842" d="M48.814,109.484v1.377h-1.743v-1.338c0-0.565-0.079-0.955-0.236-1.167
				c-0.157-0.212-0.437-0.316-0.838-0.316c-0.384,0-0.655,0.119-0.812,0.355c-0.157,0.237-0.236,0.659-0.236,1.266v0.702
				c0,0.294,0.055,0.595,0.164,0.903c0.109,0.31,0.269,0.602,0.479,0.874l2.174,2.861c0.367,0.481,0.633,0.936,0.799,1.361
				c0.166,0.427,0.249,0.868,0.249,1.323v0.978c0,1.25-0.212,2.094-0.636,2.528c-0.424,0.436-1.177,0.654-2.26,0.654
				c-1.057,0-1.793-0.176-2.208-0.527c-0.415-0.351-0.622-1.016-0.622-1.991v-1.603h1.755v1.553c0,0.587,0.079,0.983,0.236,1.191
				c0.157,0.209,0.445,0.313,0.865,0.313c0.428,0,0.723-0.119,0.884-0.356c0.161-0.237,0.242-0.76,0.242-1.567v-0.996
				c0-0.37-0.046-0.708-0.137-1.011c-0.092-0.303-0.226-0.577-0.4-0.825l-2.306-3.065c-0.323-0.41-0.57-0.801-0.74-1.172
				c-0.17-0.371-0.255-0.693-0.255-0.968v-0.84c0-1.119,0.207-1.898,0.622-2.339c0.415-0.439,1.129-0.659,2.142-0.659
				c1.065,0,1.801,0.174,2.208,0.519C48.611,107.848,48.814,108.508,48.814,109.484z"/>
			<path fill="#331842" d="M57.146,110.139v8.525c0,1.236-0.223,2.077-0.668,2.52c-0.446,0.442-1.241,0.664-2.385,0.664
				c-1.126,0-1.913-0.225-2.358-0.674c-0.446-0.449-0.668-1.285-0.668-2.51v-8.525c0-1.211,0.225-2.039,0.675-2.485
				c0.45-0.445,1.242-0.669,2.378-0.669c1.135,0,1.924,0.223,2.364,0.664C56.925,108.092,57.146,108.922,57.146,110.139z
				 M55.403,109.943c0-0.729-0.096-1.229-0.288-1.499c-0.192-0.27-0.533-0.404-1.022-0.404c-0.48,0-0.814,0.132-1.002,0.396
				c-0.188,0.265-0.282,0.768-0.282,1.509v8.916c0,0.749,0.096,1.255,0.288,1.515c0.192,0.261,0.533,0.391,1.022,0.391
				c0.48,0,0.814-0.13,1.002-0.391c0.188-0.26,0.282-0.766,0.282-1.515V109.943z"/>
			<path fill="#331842" d="M60.081,107.199h1.664v13.262h3v1.143h-4.664V107.199z"/>
			<path fill="#331842" d="M66.277,107.199h1.742v11.659c0,0.749,0.096,1.254,0.288,1.515s0.533,0.391,1.022,0.391
				c0.48,0,0.814-0.13,1.002-0.391s0.281-0.766,0.281-1.515v-11.659h1.743v11.465c0,1.236-0.223,2.077-0.668,2.52
				c-0.446,0.442-1.241,0.664-2.384,0.664c-1.127,0-1.913-0.225-2.358-0.674c-0.445-0.449-0.668-1.285-0.668-2.51V107.199z"/>
			<path fill="#331842" d="M80.818,109.484v1.377h-1.755v-1.338c0-0.56-0.081-0.946-0.242-1.162
				c-0.162-0.215-0.448-0.321-0.858-0.321c-0.375,0-0.638,0.122-0.786,0.365c-0.148,0.244-0.223,0.758-0.223,1.538v8.916
				c0,0.802,0.079,1.322,0.236,1.563c0.157,0.241,0.445,0.361,0.864,0.361c0.358,0,0.616-0.113,0.773-0.343
				c0.157-0.228,0.236-0.614,0.236-1.162v-1.553h1.755v1.603c0,0.982-0.206,1.647-0.616,1.997c-0.411,0.349-1.144,0.521-2.201,0.521
				c-1.04,0-1.764-0.225-2.175-0.674c-0.411-0.449-0.616-1.285-0.616-2.51v-8.525c0-1.217,0.205-2.047,0.616-2.49
				c0.411-0.441,1.135-0.664,2.175-0.664c1.065,0,1.801,0.173,2.208,0.519C80.616,107.848,80.818,108.508,80.818,109.484z"/>
			<path fill="#331842" d="M82.993,107.199h1.769v14.403h-1.769V107.199z"/>
			<path fill="#331842" d="M93.709,110.139v8.525c0,1.236-0.223,2.077-0.668,2.52c-0.445,0.443-1.24,0.664-2.385,0.664
				c-1.126,0-1.912-0.225-2.357-0.674c-0.446-0.449-0.668-1.285-0.668-2.51v-8.525c0-1.211,0.225-2.039,0.674-2.485
				c0.45-0.445,1.243-0.669,2.378-0.669c1.136,0,1.924,0.223,2.365,0.664C93.489,108.092,93.709,108.922,93.709,110.139z
				 M91.967,109.943c0-0.729-0.097-1.229-0.288-1.499c-0.192-0.271-0.533-0.404-1.022-0.404c-0.48,0-0.814,0.132-1.002,0.396
				c-0.188,0.265-0.281,0.768-0.281,1.509v8.916c0,0.749,0.096,1.255,0.288,1.515c0.192,0.261,0.532,0.391,1.021,0.391
				c0.48,0,0.814-0.13,1.002-0.391c0.188-0.26,0.282-0.766,0.282-1.515V109.943z M91.089,103.713h1.847l-1.716,2.178h-1.284
				L91.089,103.713z"/>
			<path fill="#331842" d="M96.644,107.199h2.279l2.765,13.545h0.025l-0.248-13.545h1.506v14.403h-2.307l-2.738-13.358h-0.053
				l0.236,13.358h-1.467L96.644,107.199L96.644,107.199z"/>
			<path fill="#331842" d="M109.941,107.668h5.345v1.055h-3.732v4.678c0.271-0.194,0.544-0.337,0.818-0.425
				c0.275-0.088,0.596-0.132,0.963-0.132c0.752,0,1.287,0.158,1.605,0.474s0.479,0.858,0.479,1.626v3.818
				c0,1.205-0.203,2.021-0.609,2.446c-0.406,0.427-1.135,0.64-2.182,0.64c-1.039,0-1.77-0.222-2.188-0.664
				c-0.419-0.441-0.629-1.256-0.629-2.44v-0.957h1.69v1.182c0,0.697,0.082,1.177,0.248,1.44c0.166,0.263,0.451,0.396,0.853,0.396
				c0.411,0,0.7-0.133,0.871-0.4c0.171-0.267,0.256-0.744,0.256-1.436v-3.74c0-0.54-0.081-0.92-0.242-1.138
				s-0.438-0.327-0.832-0.327c-0.401,0-0.687,0.107-0.853,0.322c-0.165,0.215-0.248,0.596-0.248,1.143v0.254h-1.611L109.941,107.668
				L109.941,107.668z"/>
			<path fill="#331842" d="M119.766,114.348c-0.629-0.143-1.066-0.352-1.316-0.625c-0.248-0.272-0.373-0.752-0.373-1.436V110.5
				c0-1.179,0.205-1.982,0.615-2.412c0.411-0.43,1.137-0.646,2.176-0.646c1.029,0,1.752,0.22,2.168,0.654
				c0.414,0.438,0.623,1.237,0.623,2.402v1.787c0,0.664-0.125,1.138-0.375,1.421c-0.248,0.283-0.695,0.497-1.343,0.64
				c0.646,0.15,1.095,0.366,1.343,0.649c0.25,0.282,0.375,0.754,0.375,1.411v2.354c0,1.205-0.203,2.021-0.609,2.446
				c-0.406,0.427-1.135,0.64-2.182,0.64c-1.031,0-1.754-0.22-2.168-0.659c-0.416-0.438-0.623-1.255-0.623-2.445v-2.334
				c0-0.685,0.123-1.162,0.366-1.437C118.688,114.699,119.127,114.491,119.766,114.348z M119.741,110.021v2.246
				c0,0.605,0.08,1.017,0.242,1.23c0.161,0.215,0.447,0.321,0.857,0.321s0.701-0.114,0.871-0.347
				c0.172-0.231,0.256-0.633,0.256-1.206v-2.246c0-0.586-0.081-0.992-0.242-1.221c-0.162-0.229-0.448-0.342-0.857-0.342
				c-0.41,0-0.701,0.111-0.871,0.337C119.827,109.021,119.741,109.43,119.741,110.021z M119.741,116.408v2.832
				c0,0.611,0.08,1.024,0.242,1.239c0.161,0.215,0.447,0.322,0.857,0.322s0.701-0.115,0.871-0.347
				c0.172-0.232,0.256-0.637,0.256-1.217v-2.831c0-0.587-0.081-0.992-0.242-1.222c-0.162-0.228-0.448-0.342-0.857-0.342
				c-0.41,0-0.701,0.111-0.871,0.332C119.827,115.399,119.741,115.81,119.741,116.408z"/>
			<path fill="#331842" d="M131.767,110.5v2.362c0,0.464-0.104,0.806-0.313,1.025c-0.209,0.222-0.56,0.368-1.049,0.439
				c0.489,0.064,0.84,0.209,1.049,0.43c0.209,0.222,0.313,0.563,0.313,1.025v2.979c0,1.205-0.203,2.021-0.608,2.446
				c-0.406,0.427-1.135,0.64-2.183,0.64c-1.03,0-1.753-0.22-2.168-0.659c-0.415-0.438-0.622-1.255-0.622-2.445v-0.957h1.664v1.182
				c0,0.69,0.085,1.169,0.255,1.436c0.17,0.269,0.46,0.4,0.871,0.4c0.41,0,0.696-0.132,0.858-0.396
				c0.16-0.265,0.242-0.743,0.242-1.44v-3.047c0-0.423-0.107-0.708-0.322-0.854c-0.213-0.146-0.644-0.22-1.289-0.22h-0.459v-1.063
				h0.459c0.637,0,1.064-0.076,1.283-0.229s0.328-0.44,0.328-0.864v-2.383c0-0.762-0.074-1.26-0.223-1.494
				c-0.148-0.233-0.415-0.352-0.799-0.352c-0.393,0-0.67,0.134-0.832,0.399c-0.162,0.269-0.243,0.749-0.243,1.445v0.898h-1.69V110.5
				c0-1.165,0.205-1.966,0.617-2.402c0.41-0.436,1.125-0.654,2.147-0.654c1.004,0,1.708,0.218,2.108,0.649
				C131.564,108.525,131.767,109.328,131.767,110.5z"/>
			<path fill="#331842" d="M138.801,107.199h1.951c1.65,0,2.729,0.192,3.236,0.58c0.508,0.389,0.76,1.274,0.76,2.661v7.92
				c0,1.382-0.258,2.267-0.772,2.656c-0.515,0.391-1.591,0.586-3.224,0.586h-1.951V107.199L138.801,107.199z M140.465,108.264
				v12.275h0.537c0.804,0,1.334-0.101,1.592-0.298c0.257-0.198,0.386-0.637,0.386-1.313v-9.023c0-0.684-0.131-1.128-0.394-1.333
				c-0.262-0.204-0.789-0.308-1.584-0.308H140.465z"/>
			<path fill="#331842" d="M147.684,107.199h4.611v1.143h-2.948v5.186h2.817v1.134h-2.817v5.801h3.026v1.143h-4.689V107.199
				L147.684,107.199z"/>
			<path fill="#331842" d="M164.23,110.188v0.918c0,0.248-0.054,0.552-0.157,0.908c-0.104,0.358-0.258,0.742-0.457,1.152
				l-3.617,7.373h4.153v1.063h-5.633v-1.416l3.301-6.758l0.04-0.088c0.473-0.918,0.707-1.695,0.707-2.334v-0.889
				c0-0.6-0.085-1.025-0.255-1.279c-0.171-0.254-0.452-0.381-0.845-0.381c-0.411,0-0.701,0.135-0.872,0.404
				c-0.171,0.271-0.255,0.752-0.255,1.44v0.938h-1.69V110.5c0-1.172,0.21-1.976,0.629-2.407s1.147-0.649,2.188-0.649
				c0.996,0,1.705,0.209,2.128,0.625S164.23,109.191,164.23,110.188z"/>
			<path fill="#331842" d="M172.47,110.5v8.262c0,1.205-0.203,2.021-0.609,2.446c-0.405,0.426-1.133,0.64-2.181,0.64
				c-1.031,0-1.754-0.22-2.168-0.659c-0.415-0.438-0.622-1.255-0.622-2.445V110.5c0-1.179,0.205-1.982,0.616-2.412
				c0.41-0.43,1.135-0.646,2.175-0.646c1.03,0,1.753,0.22,2.168,0.654C172.262,108.534,172.47,109.335,172.47,110.5z
				 M170.78,110.305c0-0.703-0.08-1.187-0.242-1.45c-0.16-0.263-0.447-0.396-0.857-0.396c-0.411,0-0.701,0.135-0.872,0.405
				c-0.17,0.271-0.255,0.751-0.255,1.439v8.662c0,0.69,0.085,1.169,0.255,1.436c0.171,0.269,0.461,0.4,0.872,0.4
				c0.41,0,0.695-0.132,0.857-0.396c0.162-0.265,0.242-0.743,0.242-1.44V110.305z"/>
			<path fill="#331842" d="M177.094,107.668h1.638v13.936h-1.638v-12.401c-0.314,0.209-0.629,0.385-0.943,0.526
				c-0.314,0.145-0.638,0.262-0.969,0.353v-1.357c0.375-0.137,0.723-0.293,1.041-0.469
				C176.542,108.078,176.833,107.883,177.094,107.668z"/>
			<path fill="#331842" d="M185.006,114.348c-0.629-0.143-1.066-0.352-1.315-0.625c-0.249-0.272-0.374-0.752-0.374-1.436V110.5
				c0-1.179,0.205-1.982,0.616-2.412c0.409-0.43,1.135-0.646,2.175-0.646c1.03,0,1.753,0.22,2.168,0.654
				c0.415,0.438,0.622,1.237,0.622,2.402v1.787c0,0.664-0.124,1.138-0.373,1.421s-0.696,0.497-1.343,0.64
				c0.646,0.15,1.094,0.366,1.343,0.649c0.249,0.282,0.373,0.754,0.373,1.411v2.354c0,1.205-0.203,2.021-0.608,2.446
				c-0.406,0.426-1.133,0.64-2.182,0.64c-1.031,0-1.753-0.22-2.168-0.659c-0.415-0.438-0.623-1.255-0.623-2.445v-2.334
				c0-0.685,0.123-1.162,0.367-1.437C183.929,114.699,184.37,114.491,185.006,114.348z M184.981,110.021v2.246
				c0,0.605,0.081,1.017,0.243,1.23s0.446,0.321,0.858,0.321c0.41,0,0.701-0.114,0.871-0.347c0.17-0.23,0.256-0.633,0.256-1.206
				v-2.246c0-0.586-0.082-0.992-0.244-1.221c-0.161-0.229-0.447-0.342-0.857-0.342c-0.411,0-0.701,0.111-0.871,0.337
				C185.066,109.021,184.981,109.43,184.981,110.021z M184.981,116.408v2.832c0,0.611,0.081,1.024,0.243,1.239
				s0.446,0.322,0.858,0.322c0.41,0,0.701-0.115,0.871-0.347s0.256-0.637,0.256-1.217v-2.831c0-0.587-0.082-0.992-0.244-1.222
				c-0.161-0.228-0.447-0.342-0.857-0.342c-0.411,0-0.701,0.111-0.871,0.332C185.066,115.399,184.981,115.81,184.981,116.408z"/>
		</g>
	</g>
</g>
</svg>
