<?xml version="1.0" encoding="utf-8"?>
<!-- Generator: Adobe Illustrator 16.0.0, SVG Export Plug-In . SVG Version: 6.00 Build 0)  -->
<!DOCTYPE svg PUBLIC "-//W3C//DTD SVG 1.1//EN" "http://www.w3.org/Graphics/SVG/1.1/DTD/svg11.dtd">
<svg version="1.1" id="Capa_1" xmlns="http://www.w3.org/2000/svg" xmlns:xlink="http://www.w3.org/1999/xlink" x="0px" y="0px"
	 width="706.289px" height="274.386px" viewBox="0 0 706.289 274.386" enable-background="new 0 0 706.289 274.386"
	 xml:space="preserve">
<g>
	<g>
		<path fill="#F2961C" d="M9.329,7.839v1.87H6.944V7.892c0-0.76-0.11-1.286-0.329-1.578C6.396,6.021,6.007,5.876,5.45,5.876
			c-0.51,0-0.866,0.166-1.068,0.497C4.18,6.705,4.08,7.401,4.08,8.462v12.109c0,1.088,0.107,1.795,0.32,2.122
			c0.214,0.327,0.605,0.491,1.174,0.491c0.486,0,0.836-0.155,1.05-0.465c0.214-0.309,0.32-0.835,0.32-1.578v-2.108h2.384v2.175
			c0,1.335-0.279,2.239-0.836,2.713c-0.558,0.473-1.554,0.709-2.989,0.709c-1.412,0-2.396-0.305-2.954-0.915
			c-0.558-0.61-0.836-1.746-0.836-3.409V8.728c0-1.653,0.279-2.781,0.836-3.383c0.557-0.601,1.542-0.901,2.954-0.901
			c1.447,0,2.447,0.234,2.998,0.703S9.329,6.513,9.329,7.839z"/>
		<path fill="#F2961C" d="M20.431,8.728v11.578c0,1.681-0.302,2.821-0.907,3.422c-0.605,0.602-1.684,0.902-3.238,0.902
			c-1.53,0-2.598-0.305-3.203-0.915c-0.605-0.61-0.907-1.746-0.907-3.409V8.728c0-1.645,0.305-2.77,0.916-3.375
			c0.611-0.606,1.687-0.909,3.229-0.909s2.613,0.301,3.212,0.901C20.131,5.946,20.431,7.074,20.431,8.728z M18.064,8.462
			c0-0.99-0.131-1.669-0.391-2.035c-0.261-0.367-0.724-0.551-1.388-0.551c-0.653,0-1.106,0.179-1.361,0.537
			c-0.255,0.357-0.382,1.041-0.382,2.049v12.109c0,1.018,0.13,1.702,0.391,2.056c0.261,0.354,0.723,0.53,1.388,0.53
			c0.652,0,1.106-0.176,1.361-0.53c0.255-0.354,0.382-1.038,0.382-2.056V8.462z"/>
		<path fill="#F2961C" d="M24.417,4.735h3.096l3.754,18.396h0.036L30.964,4.735h2.046v19.562h-3.131L26.16,6.154h-0.071l0.32,18.144
			h-1.993L24.417,4.735L24.417,4.735z"/>
		<path fill="#F2961C" d="M43.917,7.839v1.87h-2.366V7.892c0-0.77-0.107-1.297-0.32-1.585c-0.213-0.287-0.593-0.431-1.139-0.431
			c-0.522,0-0.89,0.161-1.103,0.484c-0.214,0.322-0.32,0.895-0.32,1.717v0.955c0,0.398,0.074,0.807,0.222,1.227
			c0.148,0.421,0.365,0.816,0.649,1.188l2.954,3.887c0.498,0.654,0.86,1.271,1.085,1.85s0.338,1.179,0.338,1.797v1.326
			c0,1.698-0.288,2.844-0.863,3.436c-0.575,0.592-1.598,0.889-3.069,0.889c-1.435,0-2.435-0.238-2.998-0.716
			s-0.845-1.38-0.845-2.706v-2.175h2.384v2.108c0,0.796,0.107,1.336,0.32,1.618c0.213,0.283,0.605,0.425,1.174,0.425
			c0.581,0,0.981-0.162,1.201-0.484c0.219-0.322,0.329-1.032,0.329-2.129V19.22c0-0.504-0.062-0.962-0.187-1.373
			c-0.125-0.411-0.305-0.784-0.543-1.12l-3.131-4.165c-0.439-0.558-0.774-1.088-1.005-1.592c-0.231-0.504-0.347-0.941-0.347-1.313
			V8.515c0-1.521,0.282-2.579,0.845-3.176c0.563-0.597,1.533-0.896,2.909-0.896c1.447,0,2.447,0.234,2.998,0.703
			C43.64,5.615,43.917,6.513,43.917,7.839z"/>
		<path fill="#F2961C" d="M47.084,4.735h2.402v19.562h-2.402V4.735z"/>
		<path fill="#F2961C" d="M53.489,4.735h2.651c2.242,0,3.707,0.263,4.395,0.789s1.032,1.73,1.032,3.614v10.757
			c0,1.874-0.35,3.076-1.05,3.607c-0.7,0.53-2.159,0.795-4.377,0.795h-2.651V4.735z M55.749,6.181v16.672h0.729
			c1.091,0,1.812-0.135,2.162-0.404c0.35-0.269,0.525-0.864,0.525-1.784V8.409c0-0.929-0.178-1.532-0.534-1.811
			C58.275,6.32,57.557,6.18,56.478,6.18L55.749,6.181L55.749,6.181z"/>
		<path fill="#F2961C" d="M65.552,4.735h6.263v1.552h-4.003v7.043h3.825v1.538h-3.825v7.879h4.11v1.551h-6.37V4.735z"/>
		<path fill="#F2961C" d="M75.178,4.735h3.452c1.779,0,2.983,0.186,3.612,0.557c0.628,0.371,0.943,1.039,0.943,2.003v4.43
			c0,0.813-0.208,1.389-0.623,1.725s-1.151,0.539-2.206,0.61c1.127,0.053,1.909,0.247,2.348,0.583
			c0.439,0.337,0.658,0.92,0.658,1.751v7.904H80.96V16.99c0-0.919-0.175-1.517-0.525-1.79c-0.35-0.274-1.071-0.412-2.162-0.412
			h-0.836v9.51h-2.26V4.735H75.178z M77.438,6.181v7.149h0.801c1.032,0,1.72-0.135,2.064-0.405c0.344-0.27,0.516-0.868,0.516-1.797
			V8.409c0-0.938-0.172-1.543-0.516-1.817c-0.344-0.273-1.032-0.411-2.064-0.411H77.438z"/>
		<path fill="#F2961C" d="M89.537,4.735h3.309l3.79,19.562h-2.438l-0.907-5.438h-4.306l-0.979,5.438h-2.384L89.537,4.735z
			 M91.103,6.181l-1.904,11.247h3.79l-1.78-11.247H91.103z"/>
		<path fill="#F2961C" d="M106.547,7.839v1.87h-2.384V7.892c0-0.76-0.11-1.286-0.329-1.578c-0.22-0.292-0.608-0.438-1.166-0.438
			c-0.51,0-0.866,0.166-1.068,0.497c-0.202,0.332-0.302,1.028-0.302,2.089v12.109c0,1.088,0.107,1.795,0.32,2.122
			c0.214,0.327,0.605,0.491,1.174,0.491c0.486,0,0.836-0.155,1.05-0.465c0.214-0.309,0.32-0.835,0.32-1.578v-2.108h2.384v2.175
			c0,1.335-0.279,2.239-0.836,2.713c-0.558,0.473-1.554,0.709-2.989,0.709c-1.412,0-2.396-0.305-2.954-0.915
			c-0.558-0.61-0.836-1.746-0.836-3.409V8.728c0-1.653,0.279-2.781,0.836-3.383c0.557-0.601,1.542-0.901,2.954-0.901
			c1.447,0,2.447,0.234,2.998,0.703C106.27,5.616,106.547,6.513,106.547,7.839z"/>
		<path fill="#F2961C" d="M109.5,4.735h2.402v19.562H109.5V4.735z"/>
		<path fill="#F2961C" d="M124.054,8.728v11.578c0,1.681-0.302,2.821-0.907,3.422c-0.605,0.602-1.684,0.902-3.238,0.902
			c-1.53,0-2.598-0.305-3.203-0.915c-0.605-0.61-0.907-1.746-0.907-3.409V8.728c0-1.645,0.305-2.77,0.916-3.375
			c0.611-0.606,1.687-0.909,3.229-0.909s2.613,0.301,3.212,0.901C123.755,5.946,124.054,7.074,124.054,8.728z M121.688,8.462
			c0-0.99-0.131-1.669-0.391-2.035c-0.261-0.367-0.724-0.551-1.388-0.551c-0.653,0-1.106,0.179-1.361,0.537
			c-0.255,0.357-0.382,1.041-0.382,2.049v12.109c0,1.018,0.13,1.702,0.391,2.056c0.261,0.354,0.723,0.53,1.388,0.53
			c0.652,0,1.106-0.176,1.361-0.53c0.255-0.354,0.382-1.038,0.382-2.056V8.462z"/>
		<path fill="#F2961C" d="M128.04,4.735h3.096l3.754,18.396h0.036l-0.338-18.396h2.046v19.562h-3.131l-3.719-18.144h-0.071
			l0.32,18.144h-1.993V4.735L128.04,4.735z"/>
		<path fill="#F2961C" d="M140.69,4.735h6.263v1.552h-4.003v7.043h3.825v1.538h-3.825v7.879h4.11v1.551h-6.37V4.735z"/>
		<path fill="#F2961C" d="M157.166,7.839v1.87H154.8V7.892c0-0.77-0.107-1.297-0.32-1.585c-0.213-0.287-0.593-0.431-1.139-0.431
			c-0.522,0-0.89,0.161-1.103,0.484c-0.214,0.322-0.32,0.895-0.32,1.717v0.955c0,0.398,0.074,0.807,0.222,1.227
			c0.148,0.421,0.365,0.816,0.649,1.188l2.954,3.887c0.498,0.654,0.86,1.271,1.085,1.85s0.338,1.179,0.338,1.797v1.326
			c0,1.698-0.288,2.844-0.863,3.436c-0.575,0.592-1.598,0.889-3.069,0.889c-1.435,0-2.435-0.238-2.998-0.716
			s-0.845-1.38-0.845-2.706v-2.175h2.384v2.108c0,0.796,0.107,1.336,0.32,1.618c0.213,0.283,0.605,0.425,1.174,0.425
			c0.581,0,0.981-0.162,1.201-0.484c0.219-0.322,0.329-1.032,0.329-2.129V19.22c0-0.504-0.062-0.962-0.187-1.373
			c-0.125-0.411-0.305-0.784-0.543-1.12l-3.131-4.165c-0.439-0.558-0.774-1.088-1.005-1.592c-0.231-0.504-0.347-0.941-0.347-1.313
			V8.515c0-1.521,0.282-2.579,0.845-3.176c0.563-0.597,1.533-0.896,2.909-0.896c1.447,0,2.447,0.234,2.998,0.703
			C156.889,5.615,157.166,6.513,157.166,7.839z"/>
		<path fill="#F2961C" d="M172.752,7.839v1.87h-2.366V7.892c0-0.77-0.107-1.297-0.32-1.585c-0.213-0.287-0.593-0.431-1.139-0.431
			c-0.522,0-0.89,0.161-1.103,0.484c-0.214,0.322-0.32,0.895-0.32,1.717v0.955c0,0.398,0.074,0.807,0.222,1.227
			c0.148,0.421,0.365,0.816,0.649,1.188l2.954,3.887c0.498,0.654,0.86,1.271,1.085,1.85s0.338,1.179,0.338,1.797v1.326
			c0,1.698-0.288,2.844-0.863,3.436c-0.575,0.592-1.598,0.889-3.069,0.889c-1.435,0-2.435-0.238-2.998-0.716
			s-0.845-1.38-0.845-2.706v-2.175h2.384v2.108c0,0.796,0.107,1.336,0.32,1.618c0.213,0.283,0.605,0.425,1.174,0.425
			c0.581,0,0.981-0.162,1.201-0.484c0.219-0.322,0.329-1.032,0.329-2.129V19.22c0-0.504-0.062-0.962-0.187-1.373
			c-0.125-0.411-0.305-0.784-0.543-1.12l-3.131-4.165c-0.439-0.558-0.774-1.088-1.005-1.592c-0.231-0.504-0.347-0.941-0.347-1.313
			V8.515c0-1.521,0.282-2.579,0.845-3.176c0.563-0.597,1.533-0.896,2.909-0.896c1.447,0,2.447,0.234,2.998,0.703
			C172.475,5.615,172.752,6.513,172.752,7.839z"/>
		<path fill="#F2961C" d="M184.068,8.728v11.578c0,1.681-0.302,2.821-0.907,3.422c-0.605,0.602-1.684,0.902-3.238,0.902
			c-1.53,0-2.598-0.305-3.203-0.915c-0.605-0.61-0.907-1.746-0.907-3.409V8.728c0-1.645,0.305-2.77,0.916-3.375
			c0.611-0.606,1.687-0.909,3.229-0.909s2.613,0.301,3.212,0.901C183.769,5.946,184.068,7.074,184.068,8.728z M181.702,8.462
			c0-0.99-0.131-1.669-0.391-2.035c-0.261-0.367-0.724-0.551-1.388-0.551c-0.653,0-1.106,0.179-1.361,0.537
			c-0.255,0.357-0.382,1.041-0.382,2.049v12.109c0,1.018,0.13,1.702,0.391,2.056c0.261,0.354,0.723,0.53,1.388,0.53
			c0.652,0,1.106-0.176,1.361-0.53c0.255-0.354,0.382-1.038,0.382-2.056V8.462z"/>
		<path fill="#F2961C" d="M188.054,4.735h3.452c1.779,0,2.983,0.186,3.612,0.557c0.628,0.371,0.943,1.039,0.943,2.003v4.43
			c0,0.813-0.208,1.389-0.623,1.725s-1.151,0.539-2.206,0.61c1.127,0.053,1.909,0.247,2.348,0.583
			c0.439,0.337,0.658,0.92,0.658,1.751v5.345c0,0.964-0.314,1.632-0.943,2.003c-0.629,0.371-1.833,0.557-3.612,0.557h-3.63
			L188.054,4.735L188.054,4.735z M190.313,6.181v7.149h0.801c1.032,0,1.72-0.135,2.064-0.405c0.344-0.27,0.516-0.868,0.516-1.797
			V8.409c0-0.938-0.172-1.543-0.516-1.817c-0.344-0.273-1.032-0.411-2.064-0.411H190.313z M190.313,14.788v8.064h0.836
			c1.091,0,1.812-0.135,2.162-0.404c0.35-0.269,0.525-0.864,0.525-1.784V16.99c0-0.919-0.175-1.517-0.525-1.79
			c-0.35-0.274-1.071-0.412-2.162-0.412H190.313z"/>
		<path fill="#F2961C" d="M200.188,4.735h3.452c1.779,0,2.983,0.186,3.612,0.557c0.628,0.371,0.943,1.039,0.943,2.003v4.43
			c0,0.813-0.208,1.389-0.623,1.725c-0.415,0.336-1.151,0.539-2.206,0.61c1.127,0.053,1.909,0.247,2.348,0.583
			c0.439,0.337,0.658,0.92,0.658,1.751v7.904h-2.402V16.99c0-0.919-0.175-1.517-0.525-1.79c-0.35-0.274-1.071-0.412-2.162-0.412
			h-0.836v9.51h-2.26L200.188,4.735L200.188,4.735z M202.448,6.181v7.149h0.801c1.032,0,1.72-0.135,2.064-0.405
			c0.344-0.27,0.516-0.868,0.516-1.797V8.409c0-0.938-0.172-1.543-0.516-1.817c-0.344-0.273-1.032-0.411-2.064-0.411H202.448z"/>
		<path fill="#F2961C" d="M212.323,4.735h6.263v1.552h-4.003v7.043h3.825v1.538h-3.825v7.879h4.11v1.551h-6.37V4.735z"/>
		<path fill="#F2961C" d="M227.518,4.735h2.26v18.012h4.074v1.551h-6.334V4.735z"/>
		<path fill="#F2961C" d="M238.94,4.735h3.309l3.79,19.562h-2.438l-0.907-5.438h-4.306l-0.979,5.438h-2.384L238.94,4.735z
			 M240.506,6.181l-1.904,11.247h3.79l-1.779-11.247H240.506z"/>
		<path fill="#F2961C" d="M254.011,4.735h3.452c1.779,0,2.983,0.186,3.612,0.557c0.628,0.371,0.943,1.039,0.943,2.003v4.43
			c0,0.813-0.208,1.389-0.623,1.725s-1.151,0.539-2.206,0.61c1.127,0.053,1.909,0.247,2.348,0.583
			c0.439,0.337,0.658,0.92,0.658,1.751v7.904h-2.402V16.99c0-0.919-0.175-1.517-0.525-1.79c-0.35-0.274-1.071-0.412-2.162-0.412
			h-0.836v9.51h-2.26L254.011,4.735L254.011,4.735z M256.271,6.181v7.149h0.801c1.032,0,1.72-0.135,2.064-0.405
			c0.344-0.27,0.516-0.868,0.516-1.797V8.409c0-0.938-0.172-1.543-0.516-1.817c-0.344-0.273-1.032-0.411-2.064-0.411H256.271z"/>
		<path fill="#F2961C" d="M266.145,4.735h6.263v1.552h-4.003v7.043h3.825v1.538h-3.825v7.879h4.11v1.551h-6.37V4.735z"/>
		<path fill="#F2961C" d="M282.621,7.839v1.87h-2.366V7.892c0-0.77-0.107-1.297-0.32-1.585c-0.213-0.287-0.593-0.431-1.139-0.431
			c-0.522,0-0.89,0.161-1.103,0.484c-0.214,0.322-0.32,0.895-0.32,1.717v0.955c0,0.398,0.074,0.807,0.222,1.227
			c0.148,0.421,0.365,0.816,0.649,1.188l2.954,3.887c0.498,0.654,0.86,1.271,1.085,1.85c0.225,0.579,0.338,1.179,0.338,1.797v1.326
			c0,1.698-0.288,2.844-0.863,3.436c-0.575,0.592-1.598,0.889-3.069,0.889c-1.435,0-2.435-0.238-2.998-0.716
			s-0.845-1.38-0.845-2.706v-2.175h2.384v2.108c0,0.796,0.107,1.336,0.32,1.618c0.213,0.283,0.605,0.425,1.174,0.425
			c0.581,0,0.981-0.162,1.201-0.484c0.219-0.322,0.329-1.032,0.329-2.129V19.22c0-0.504-0.062-0.962-0.187-1.373
			c-0.125-0.411-0.305-0.784-0.543-1.12l-3.131-4.165c-0.439-0.558-0.774-1.088-1.005-1.592c-0.231-0.504-0.347-0.941-0.347-1.313
			V8.515c0-1.521,0.282-2.579,0.845-3.176c0.563-0.597,1.533-0.896,2.909-0.896c1.447,0,2.447,0.234,2.998,0.703
			S282.621,6.513,282.621,7.839z"/>
		<path fill="#F2961C" d="M293.937,8.728v11.578c0,1.681-0.302,2.821-0.907,3.422c-0.605,0.602-1.684,0.902-3.238,0.902
			c-1.53,0-2.598-0.305-3.203-0.915c-0.605-0.61-0.907-1.746-0.907-3.409V8.728c0-1.645,0.305-2.77,0.916-3.375
			c0.611-0.606,1.687-0.909,3.229-0.909s2.613,0.301,3.212,0.901C293.637,5.946,293.937,7.074,293.937,8.728z M291.571,8.462
			c0-0.99-0.131-1.669-0.391-2.035c-0.261-0.367-0.724-0.551-1.388-0.551c-0.653,0-1.106,0.179-1.361,0.537
			c-0.255,0.357-0.382,1.041-0.382,2.049v12.109c0,1.018,0.13,1.702,0.391,2.056c0.261,0.354,0.723,0.53,1.388,0.53
			c0.652,0,1.106-0.176,1.361-0.53s0.382-1.038,0.382-2.056V8.462z"/>
		<path fill="#F2961C" d="M297.923,4.735h2.26v18.012h4.074v1.551h-6.334V4.735z"/>
		<path fill="#F2961C" d="M306.339,4.735h2.366v15.836c0,1.018,0.13,1.702,0.391,2.056c0.261,0.354,0.723,0.53,1.388,0.53
			c0.652,0,1.106-0.176,1.361-0.53c0.255-0.354,0.382-1.038,0.382-2.056V4.735h2.366v15.57c0,1.681-0.302,2.821-0.907,3.422
			c-0.605,0.602-1.684,0.902-3.238,0.902c-1.53,0-2.598-0.305-3.203-0.915c-0.605-0.61-0.907-1.746-0.907-3.409L306.339,4.735
			L306.339,4.735z"/>
		<path fill="#F2961C" d="M326.088,7.839v1.87h-2.384V7.892c0-0.76-0.11-1.286-0.329-1.578c-0.22-0.292-0.608-0.438-1.166-0.438
			c-0.51,0-0.866,0.166-1.068,0.497c-0.202,0.332-0.302,1.028-0.302,2.089v12.109c0,1.088,0.107,1.795,0.32,2.122
			c0.214,0.327,0.605,0.491,1.174,0.491c0.486,0,0.836-0.155,1.05-0.465c0.214-0.309,0.32-0.835,0.32-1.578v-2.108h2.384v2.175
			c0,1.335-0.279,2.239-0.836,2.713c-0.558,0.473-1.554,0.709-2.989,0.709c-1.412,0-2.396-0.305-2.954-0.915
			c-0.558-0.61-0.836-1.746-0.836-3.409V8.728c0-1.653,0.279-2.781,0.836-3.383c0.557-0.601,1.542-0.901,2.954-0.901
			c1.447,0,2.447,0.234,2.998,0.703C325.811,5.616,326.088,6.513,326.088,7.839z"/>
		<path fill="#F2961C" d="M329.042,4.735h2.402v19.562h-2.402V4.735z"/>
		<path fill="#F2961C" d="M343.596,8.728v11.578c0,1.681-0.302,2.821-0.907,3.422c-0.605,0.602-1.684,0.902-3.238,0.902
			c-1.53,0-2.598-0.305-3.203-0.915c-0.605-0.61-0.907-1.746-0.907-3.409V8.728c0-1.645,0.305-2.77,0.916-3.375
			c0.611-0.606,1.687-0.909,3.229-0.909s2.613,0.301,3.212,0.901C343.296,5.946,343.596,7.074,343.596,8.728z M341.229,8.462
			c0-0.99-0.131-1.669-0.391-2.035c-0.261-0.367-0.724-0.551-1.388-0.551c-0.653,0-1.106,0.179-1.361,0.537
			c-0.255,0.357-0.382,1.041-0.382,2.049v12.109c0,1.018,0.13,1.702,0.391,2.056c0.261,0.354,0.723,0.53,1.388,0.53
			c0.652,0,1.106-0.176,1.361-0.53c0.255-0.354,0.382-1.038,0.382-2.056V8.462z M340.038,0h2.509l-2.331,2.958h-1.744L340.038,0z"/>
		<path fill="#F2961C" d="M347.582,4.735h3.096l3.753,18.396h0.036L354.13,4.735h2.046v19.562h-3.131l-3.719-18.144h-0.071
			l0.32,18.144h-1.993V4.735L347.582,4.735z"/>
		<path fill="#F2961C" d="M365.641,5.372h7.26v1.432h-5.071v6.354c0.366-0.266,0.739-0.457,1.112-0.577
			c0.373-0.119,0.81-0.179,1.308-0.179c1.021,0,1.746,0.215,2.179,0.644c0.434,0.429,0.649,1.165,0.649,2.208v5.186
			c0,1.637-0.276,2.744-0.827,3.322c-0.553,0.579-1.539,0.869-2.962,0.869c-1.412,0-2.402-0.301-2.972-0.902
			c-0.568-0.601-0.854-1.706-0.854-3.315v-1.3h2.295v1.604c0,0.945,0.113,1.598,0.338,1.956c0.225,0.358,0.611,0.537,1.156,0.537
			c0.557,0,0.952-0.182,1.184-0.544c0.23-0.362,0.347-1.013,0.347-1.949v-5.08c0-0.734-0.11-1.249-0.329-1.545
			c-0.221-0.297-0.596-0.445-1.131-0.445c-0.545,0-0.93,0.146-1.155,0.438s-0.338,0.809-0.338,1.552v0.345h-2.188V5.372
			L365.641,5.372z"/>
		<path fill="#F2961C" d="M378.984,14.444c-0.854-0.195-1.449-0.479-1.787-0.85c-0.338-0.371-0.508-1.021-0.508-1.949V9.218
			c0-1.6,0.279-2.692,0.836-3.275c0.558-0.584,1.543-0.875,2.955-0.875c1.398,0,2.381,0.296,2.944,0.888
			c0.563,0.593,0.845,1.681,0.845,3.263v2.428c0,0.901-0.168,1.545-0.506,1.93c-0.339,0.385-0.947,0.674-1.824,0.869
			c0.877,0.203,1.485,0.497,1.824,0.882c0.338,0.384,0.506,1.023,0.506,1.916v3.196c0,1.637-0.275,2.744-0.826,3.322
			c-0.553,0.579-1.539,0.869-2.963,0.869c-1.399,0-2.381-0.299-2.944-0.896c-0.563-0.597-0.845-1.704-0.845-3.322v-3.17
			c0-0.929,0.166-1.578,0.498-1.949C377.52,14.921,378.119,14.639,378.984,14.444z M378.95,8.568v3.05
			c0,0.823,0.11,1.38,0.329,1.672s0.607,0.438,1.164,0.438c0.558,0,0.953-0.156,1.184-0.471c0.23-0.313,0.348-0.859,0.348-1.639
			v-3.05c0-0.796-0.11-1.349-0.33-1.658c-0.219-0.309-0.607-0.464-1.164-0.464c-0.559,0-0.953,0.152-1.184,0.457
			C379.064,7.209,378.95,7.764,378.95,8.568z M378.95,17.242v3.847c0,0.831,0.11,1.393,0.329,1.685s0.607,0.438,1.164,0.438
			c0.558,0,0.953-0.157,1.184-0.471c0.23-0.313,0.348-0.864,0.348-1.651v-3.847c0-0.796-0.11-1.349-0.33-1.657
			c-0.219-0.31-0.607-0.465-1.164-0.465c-0.559,0-0.953,0.15-1.184,0.451C379.064,15.872,378.95,16.429,378.95,17.242z"/>
		<path fill="#F2961C" d="M395.283,9.218v3.21c0,0.628-0.143,1.093-0.428,1.393c-0.285,0.301-0.758,0.5-1.422,0.597
			c0.664,0.089,1.139,0.283,1.422,0.584c0.285,0.301,0.428,0.765,0.428,1.393v4.045c0,1.637-0.276,2.744-0.827,3.322
			c-0.552,0.579-1.539,0.869-2.962,0.869c-1.4,0-2.381-0.299-2.945-0.896c-0.564-0.597-0.845-1.704-0.845-3.322v-1.3h2.26v1.605
			c0,0.938,0.116,1.587,0.347,1.949c0.231,0.362,0.627,0.544,1.184,0.544s0.945-0.179,1.165-0.537
			c0.219-0.358,0.329-1.011,0.329-1.956v-4.139c0-0.574-0.146-0.961-0.437-1.16s-0.875-0.299-1.752-0.299h-0.623v-1.445h0.623
			c0.866,0,1.447-0.104,1.744-0.312c0.296-0.207,0.444-0.599,0.444-1.174V8.953c0-1.034-0.1-1.711-0.301-2.029
			c-0.203-0.318-0.564-0.478-1.086-0.478c-0.533,0-0.91,0.182-1.129,0.544c-0.221,0.362-0.33,1.017-0.33,1.963v1.22h-2.295V9.218
			c0-1.582,0.279-2.67,0.836-3.263c0.558-0.592,1.53-0.888,2.918-0.888c1.364,0,2.319,0.293,2.865,0.881
			C395.01,6.537,395.283,7.626,395.283,9.218z"/>
		<path fill="#F2961C" d="M404.838,4.735h2.651c2.242,0,3.707,0.263,4.395,0.789c0.688,0.526,1.032,1.73,1.032,3.614v10.757
			c0,1.874-0.35,3.076-1.05,3.607c-0.7,0.53-2.159,0.795-4.377,0.795h-2.651V4.735z M407.098,6.181v16.672h0.729
			c1.091,0,1.812-0.135,2.162-0.404c0.35-0.269,0.524-0.864,0.524-1.784V8.409c0-0.929-0.178-1.532-0.533-1.811
			c-0.356-0.278-1.074-0.418-2.153-0.418L407.098,6.181L407.098,6.181z"/>
		<path fill="#F2961C" d="M416.901,4.735h6.263v1.552h-4.003v7.043h3.825v1.538h-3.825v7.879h4.11v1.551h-6.37V4.735z"/>
		<path fill="#F2961C" d="M439.373,8.794v1.246c0,0.337-0.071,0.748-0.213,1.234c-0.143,0.486-0.351,1.008-0.623,1.564
			l-4.911,10.014h5.64v1.445h-7.65v-1.923l4.483-9.178l0.054-0.12c0.641-1.246,0.961-2.303,0.961-3.17V8.701
			c0-0.813-0.116-1.393-0.348-1.737c-0.23-0.346-0.613-0.518-1.147-0.518c-0.559,0-0.952,0.184-1.184,0.551
			c-0.23,0.366-0.347,1.019-0.347,1.956v1.272h-2.295V9.218c0-1.592,0.285-2.681,0.854-3.27c0.568-0.588,1.56-0.881,2.971-0.881
			c1.352,0,2.315,0.282,2.891,0.848C439.086,6.481,439.373,7.44,439.373,8.794z"/>
		<path fill="#F2961C" d="M450.565,9.218v11.221c0,1.637-0.276,2.744-0.827,3.322c-0.553,0.579-1.539,0.869-2.962,0.869
			c-1.4,0-2.382-0.299-2.945-0.896c-0.564-0.597-0.845-1.704-0.845-3.322V9.218c0-1.6,0.278-2.692,0.836-3.275
			c0.557-0.584,1.542-0.875,2.954-0.875c1.398,0,2.381,0.296,2.944,0.888C450.283,6.548,450.565,7.636,450.565,9.218z M448.27,8.953
			c0-0.955-0.109-1.612-0.328-1.97c-0.22-0.358-0.608-0.537-1.165-0.537c-0.559,0-0.952,0.184-1.184,0.551
			c-0.23,0.366-0.347,1.019-0.347,1.956v11.765c0,0.938,0.116,1.587,0.347,1.949c0.231,0.362,0.626,0.544,1.184,0.544
			c0.557,0,0.945-0.179,1.165-0.537c0.219-0.358,0.328-1.011,0.328-1.956V8.953z"/>
		<path fill="#F2961C" d="M456.846,5.372h2.225v18.926h-2.225V7.454c-0.427,0.283-0.854,0.521-1.28,0.717
			c-0.428,0.194-0.866,0.354-1.317,0.477V6.804c0.51-0.186,0.98-0.397,1.415-0.636C456.095,5.929,456.49,5.663,456.846,5.372z"/>
		<path fill="#F2961C" d="M467.593,14.444c-0.854-0.195-1.45-0.479-1.788-0.85c-0.338-0.371-0.507-1.021-0.507-1.949V9.218
			c0-1.6,0.279-2.692,0.836-3.275c0.558-0.584,1.542-0.875,2.954-0.875c1.399,0,2.381,0.296,2.945,0.888
			c0.562,0.593,0.845,1.681,0.845,3.263v2.428c0,0.901-0.169,1.545-0.507,1.93c-0.338,0.385-0.946,0.674-1.824,0.869
			c0.878,0.203,1.486,0.497,1.824,0.882c0.338,0.384,0.507,1.023,0.507,1.916v3.196c0,1.637-0.276,2.744-0.827,3.322
			c-0.552,0.579-1.539,0.869-2.962,0.869c-1.399,0-2.381-0.299-2.945-0.896c-0.563-0.597-0.845-1.704-0.845-3.322v-3.17
			c0-0.929,0.166-1.578,0.498-1.949C466.127,14.921,466.727,14.639,467.593,14.444z M467.557,8.568v3.05
			c0,0.823,0.11,1.38,0.329,1.672c0.22,0.292,0.608,0.438,1.165,0.438c0.558,0,0.952-0.156,1.184-0.471
			c0.23-0.313,0.347-0.859,0.347-1.639v-3.05c0-0.796-0.11-1.349-0.329-1.658c-0.219-0.309-0.608-0.464-1.165-0.464
			c-0.558,0-0.952,0.152-1.183,0.457C467.673,7.209,467.557,7.764,467.557,8.568z M467.557,17.242v3.847
			c0,0.831,0.11,1.393,0.329,1.685c0.22,0.292,0.608,0.438,1.165,0.438c0.558,0,0.952-0.157,1.184-0.471
			c0.23-0.313,0.347-0.864,0.347-1.651v-3.847c0-0.796-0.11-1.349-0.329-1.657c-0.219-0.31-0.608-0.465-1.165-0.465
			c-0.558,0-0.952,0.15-1.183,0.451C467.673,15.872,467.557,16.429,467.557,17.242z"/>
	</g>
</g>
</svg>
