<?xml version="1.0" encoding="utf-8"?>
<!-- Generator: Adobe Illustrator 16.0.0, SVG Export Plug-In . SVG Version: 6.00 Build 0)  -->
<!DOCTYPE svg PUBLIC "-//W3C//DTD SVG 1.1//EN" "http://www.w3.org/Graphics/SVG/1.1/DTD/svg11.dtd">
<svg version="1.1" id="Capa_1" xmlns="http://www.w3.org/2000/svg" xmlns:xlink="http://www.w3.org/1999/xlink" x="0px" y="0px"
	 width="691.49px" height="358.754px" viewBox="0 0 691.49 358.754" enable-background="new 0 0 691.49 358.754"
	 xml:space="preserve">
<g>
	<g>
		<path fill="#F2961C" d="M1.534,0.292H4.63l3.754,18.396H8.42L8.082,0.292h2.046v19.563H6.996L3.278,1.711H3.207l0.32,18.145H1.534
			V0.292z"/>
		<path fill="#F2961C" d="M22.333,4.284v11.579c0,1.68-0.302,2.82-0.907,3.422c-0.605,0.601-1.684,0.901-3.238,0.901
			c-1.53,0-2.598-0.305-3.203-0.915s-0.907-1.746-0.907-3.408V4.284c0-1.645,0.305-2.77,0.916-3.376C15.605,0.303,16.681,0,18.223,0
			s2.613,0.301,3.212,0.902C22.034,1.504,22.333,2.631,22.333,4.284z M19.967,4.019c0-0.99-0.131-1.669-0.391-2.036
			c-0.261-0.366-0.724-0.55-1.388-0.55c-0.653,0-1.106,0.179-1.361,0.537c-0.255,0.358-0.382,1.041-0.382,2.049v12.109
			c0,1.017,0.13,1.702,0.391,2.056c0.261,0.354,0.723,0.531,1.388,0.531c0.652,0,1.106-0.178,1.361-0.531
			c0.255-0.354,0.382-1.039,0.382-2.056V4.019z"/>
		<path fill="#F2961C" d="M26.319,0.292h3.452c1.779,0,2.983,0.186,3.612,0.557c0.628,0.372,0.943,1.039,0.943,2.003v4.43
			c0,0.814-0.208,1.389-0.623,1.725s-1.151,0.539-2.206,0.609c1.127,0.054,1.909,0.248,2.348,0.584
			c0.439,0.336,0.658,0.92,0.658,1.751v7.905h-2.402v-7.309c0-0.92-0.175-1.517-0.525-1.791c-0.35-0.273-1.071-0.41-2.162-0.41
			h-0.836v9.51h-2.26L26.319,0.292L26.319,0.292z M28.579,1.737v7.149h0.801c1.032,0,1.72-0.135,2.064-0.404
			c0.344-0.271,0.516-0.869,0.516-1.798V3.966c0-0.938-0.172-1.543-0.516-1.817C31.1,1.876,30.412,1.738,29.38,1.738L28.579,1.737
			L28.579,1.737z"/>
		<path fill="#F2961C" d="M38.453,0.292h3.932l2.544,18.011h0.178l2.491-18.011h3.825v19.563h-1.975V1.764h-0.356L46.53,19.856
			h-3.167l-2.65-18.092h-0.302v18.092h-1.957L38.453,0.292L38.453,0.292z"/>
		<path fill="#F2961C" d="M57.723,0.292h3.309l3.79,19.563h-2.438l-0.907-5.438h-4.306l-0.979,5.438h-2.384L57.723,0.292z
			 M59.288,1.737l-1.904,11.247h3.79L59.395,1.737H59.288z"/>
		<path fill="#F2961C" d="M64.52,0.292h7.704v1.552H69.52v18.012h-2.295V1.844H64.52V0.292z"/>
		<path fill="#F2961C" d="M74.59,0.292h2.402v19.563H74.59V0.292z"/>
		<path fill="#F2961C" d="M79.501,0.292h2.295l2.438,17.613h0.249l2.295-17.613h2.153l-2.847,19.563h-3.523L79.501,0.292z"/>
		<path fill="#F2961C" d="M91.529,0.292h2.402v19.563h-2.402V0.292z"/>
		<path fill="#F2961C" d="M97.934,0.292h2.651c2.242,0,3.707,0.263,4.395,0.789s1.032,1.73,1.032,3.614v10.756
			c0,1.875-0.35,3.077-1.05,3.607c-0.7,0.531-2.159,0.797-4.377,0.797h-2.651V0.292z M100.194,1.737v16.672h0.729
			c1.091,0,1.812-0.135,2.162-0.404s0.525-0.864,0.525-1.784V3.966c0-0.929-0.178-1.532-0.534-1.811
			c-0.356-0.278-1.074-0.418-2.153-0.418H100.194z"/>
		<path fill="#F2961C" d="M112.221,0.292h3.309l3.79,19.563h-2.438l-0.907-5.438h-4.306l-0.979,5.438h-2.384L112.221,0.292z
			 M113.787,1.737l-1.904,11.247h3.79l-1.779-11.247H113.787z"/>
		<path fill="#F2961C" d="M121.722,0.292h2.651c2.242,0,3.707,0.263,4.395,0.789s1.032,1.73,1.032,3.614v10.756
			c0,1.875-0.35,3.077-1.05,3.607c-0.7,0.531-2.159,0.797-4.377,0.797h-2.651V0.292z M123.982,1.737v16.672h0.729
			c1.091,0,1.812-0.135,2.162-0.404s0.525-0.864,0.525-1.784V3.966c0-0.929-0.178-1.532-0.534-1.811
			c-0.356-0.278-1.074-0.418-2.153-0.418H123.982z"/>
		<path fill="#F2961C" d="M139.355,0.292h6.263v1.552h-4.003v7.043h3.825v1.538h-3.825v7.878h4.11v1.553h-6.37V0.292z"/>
		<path fill="#F2961C" d="M148.98,0.292h3.096l3.754,18.396h0.036l-0.338-18.396h2.046v19.563h-3.131L150.724,1.71h-0.071
			l0.32,18.145h-1.993V0.292L148.98,0.292z"/>
		<path fill="#F2961C" d="M174.708,3.396v1.87h-2.384V3.448c0-0.76-0.11-1.286-0.329-1.578c-0.22-0.292-0.608-0.438-1.166-0.438
			c-0.51,0-0.866,0.165-1.068,0.497c-0.202,0.332-0.302,1.028-0.302,2.089v12.109c0,1.088,0.107,1.795,0.32,2.122
			c0.214,0.327,0.605,0.491,1.174,0.491c0.486,0,0.836-0.155,1.05-0.465s0.32-0.835,0.32-1.578V14.59h2.384v2.175
			c0,1.335-0.279,2.239-0.836,2.712c-0.558,0.474-1.554,0.71-2.989,0.71c-1.412,0-2.396-0.305-2.954-0.915
			c-0.558-0.61-0.836-1.746-0.836-3.408V4.284c0-1.653,0.279-2.78,0.836-3.382C168.487,0.301,169.471,0,170.883,0
			c1.447,0,2.447,0.234,2.998,0.703C174.432,1.172,174.708,2.069,174.708,3.396z"/>
		<path fill="#F2961C" d="M185.811,4.284v11.579c0,1.68-0.302,2.82-0.907,3.422c-0.605,0.601-1.684,0.901-3.238,0.901
			c-1.53,0-2.598-0.305-3.203-0.915s-0.907-1.746-0.907-3.408V4.284c0-1.645,0.305-2.77,0.916-3.376
			C179.082,0.303,180.159,0,181.701,0s2.613,0.301,3.212,0.902C185.511,1.504,185.811,2.631,185.811,4.284z M183.444,4.019
			c0-0.99-0.131-1.669-0.391-2.036c-0.261-0.366-0.724-0.55-1.388-0.55c-0.653,0-1.106,0.179-1.361,0.537
			c-0.255,0.358-0.382,1.041-0.382,2.049v12.109c0,1.017,0.13,1.702,0.391,2.056s0.723,0.531,1.388,0.531
			c0.652,0,1.106-0.178,1.361-0.531c0.255-0.354,0.382-1.039,0.382-2.056V4.019z"/>
		<path fill="#F2961C" d="M189.796,0.292h2.26v18.011h4.074v1.553h-6.334V0.292z"/>
		<path fill="#F2961C" d="M206.468,4.284v11.579c0,1.68-0.302,2.82-0.907,3.422c-0.605,0.601-1.684,0.901-3.238,0.901
			c-1.53,0-2.598-0.305-3.203-0.915s-0.907-1.746-0.907-3.408V4.284c0-1.645,0.305-2.77,0.916-3.376
			C199.74,0.303,200.816,0,202.358,0s2.613,0.301,3.212,0.902C206.168,1.504,206.468,2.631,206.468,4.284z M204.102,4.019
			c0-0.99-0.131-1.669-0.391-2.036c-0.261-0.366-0.724-0.55-1.388-0.55c-0.653,0-1.106,0.179-1.361,0.537
			c-0.255,0.358-0.382,1.041-0.382,2.049v12.109c0,1.017,0.13,1.702,0.391,2.056c0.261,0.354,0.723,0.531,1.388,0.531
			c0.652,0,1.106-0.178,1.361-0.531c0.255-0.354,0.382-1.039,0.382-2.056V4.019z"/>
		<path fill="#F2961C" d="M210.454,0.292h3.932l2.544,18.011h0.178l2.491-18.011h3.825v19.563h-1.975V1.764h-0.356l-2.562,18.092
			h-3.167l-2.651-18.092h-0.302v18.092h-1.957V0.292L210.454,0.292z"/>
		<path fill="#F2961C" d="M227.499,0.292h3.452c1.779,0,2.983,0.186,3.612,0.557c0.628,0.372,0.943,1.039,0.943,2.003v4.43
			c0,0.814-0.208,1.389-0.623,1.725s-1.151,0.539-2.206,0.609c1.127,0.054,1.909,0.248,2.348,0.584s0.658,0.92,0.658,1.751v5.345
			c0,0.964-0.314,1.632-0.943,2.003c-0.629,0.371-1.833,0.558-3.612,0.558h-3.63L227.499,0.292L227.499,0.292z M229.759,1.737v7.149
			h0.801c1.032,0,1.72-0.135,2.064-0.404c0.344-0.271,0.516-0.869,0.516-1.798V3.966c0-0.938-0.172-1.543-0.516-1.817
			c-0.344-0.273-1.032-0.411-2.064-0.411L229.759,1.737L229.759,1.737z M229.759,10.346v8.063h0.836
			c1.091,0,1.812-0.135,2.162-0.404c0.35-0.269,0.525-0.864,0.525-1.784v-3.674c0-0.92-0.175-1.517-0.525-1.791
			c-0.35-0.273-1.071-0.41-2.162-0.41H229.759z"/>
		<path fill="#F2961C" d="M239.633,0.292h2.402v19.563h-2.402V0.292z"/>
		<path fill="#F2961C" d="M248.263,0.292h3.309l3.79,19.563h-2.438l-0.907-5.438h-4.306l-0.979,5.438h-2.384L248.263,0.292z
			 M249.828,1.737l-1.904,11.247h3.79l-1.779-11.247H249.828z"/>
		<path fill="#F2961C" d="M263.226,4.284c0-1.653,0.299-2.78,0.898-3.382c0.6-0.601,1.67-0.902,3.212-0.902s2.618,0.303,3.229,0.908
			c0.611,0.606,0.916,1.731,0.916,3.376v11.579c0,1.008-0.107,1.69-0.32,2.049c-0.213,0.357-0.587,0.661-1.121,0.908l0.071,0.08
			c0.415-0.168,0.827-0.297,1.237-0.385c0.409-0.089,0.798-0.133,1.165-0.133h0.391v1.473c-0.712,0.008-1.684,0.046-2.918,0.112
			c-1.234,0.066-2.117,0.1-2.651,0.1c-1.59,0-2.672-0.278-3.247-0.836c-0.575-0.557-0.863-1.68-0.863-3.368L263.226,4.284
			L263.226,4.284z M265.593,4.019v12.109c0,1.017,0.13,1.702,0.391,2.056c0.261,0.354,0.723,0.531,1.388,0.531
			c0.652,0,1.106-0.178,1.361-0.531c0.255-0.354,0.382-1.039,0.382-2.056V4.019c0-0.99-0.131-1.669-0.391-2.036
			c-0.261-0.366-0.724-0.55-1.388-0.55c-0.653,0-1.106,0.179-1.361,0.537C265.72,2.328,265.593,3.011,265.593,4.019z"/>
		<path fill="#F2961C" d="M275.361,0.292h2.366v15.836c0,1.017,0.13,1.702,0.391,2.056c0.261,0.354,0.723,0.531,1.388,0.531
			c0.652,0,1.106-0.178,1.361-0.531c0.255-0.354,0.382-1.039,0.382-2.056V0.292h2.366v15.571c0,1.68-0.302,2.82-0.907,3.422
			c-0.605,0.601-1.684,0.901-3.238,0.901c-1.53,0-2.598-0.305-3.203-0.915s-0.907-1.746-0.907-3.408L275.361,0.292L275.361,0.292z"
			/>
		<path fill="#F2961C" d="M287.602,0.292h6.263v1.552h-4.003v7.043h3.825v1.538h-3.825v7.878h4.11v1.553h-6.37V0.292z"/>
		<path fill="#F2961C" d="M310.946,4.284v11.579c0,1.68-0.302,2.82-0.907,3.422c-0.605,0.601-1.684,0.901-3.238,0.901
			c-1.53,0-2.598-0.305-3.203-0.915s-0.907-1.746-0.907-3.408V4.284c0-1.645,0.305-2.77,0.916-3.376
			C304.217,0.303,305.294,0,306.836,0s2.613,0.301,3.212,0.902C310.646,1.504,310.946,2.631,310.946,4.284z M308.579,4.019
			c0-0.99-0.131-1.669-0.391-2.036c-0.261-0.366-0.724-0.55-1.388-0.55c-0.653,0-1.106,0.179-1.361,0.537
			c-0.255,0.358-0.382,1.041-0.382,2.049v12.109c0,1.017,0.13,1.702,0.391,2.056c0.261,0.354,0.723,0.531,1.388,0.531
			c0.652,0,1.106-0.178,1.361-0.531c0.255-0.354,0.382-1.039,0.382-2.056V4.019z"/>
		<path fill="#F2961C" d="M313.206,0.292h7.704v1.552h-2.704v18.012h-2.295V1.844h-2.704L313.206,0.292L313.206,0.292z"/>
		<path fill="#F2961C" d="M331.425,4.284v11.579c0,1.68-0.302,2.82-0.907,3.422c-0.605,0.601-1.684,0.901-3.238,0.901
			c-1.53,0-2.598-0.305-3.203-0.915s-0.907-1.746-0.907-3.408V4.284c0-1.645,0.305-2.77,0.916-3.376
			C324.697,0.303,325.773,0,327.315,0s2.613,0.301,3.212,0.902C331.125,1.504,331.425,2.631,331.425,4.284z M329.059,4.019
			c0-0.99-0.131-1.669-0.391-2.036c-0.261-0.366-0.724-0.55-1.388-0.55c-0.653,0-1.106,0.179-1.361,0.537
			c-0.255,0.358-0.382,1.041-0.382,2.049v12.109c0,1.017,0.13,1.702,0.391,2.056c0.261,0.354,0.723,0.531,1.388,0.531
			c0.652,0,1.106-0.178,1.361-0.531c0.255-0.354,0.382-1.039,0.382-2.056V4.019z"/>
		<path fill="#F2961C" d="M335.411,0.292h3.452c1.779,0,2.983,0.186,3.612,0.557c0.628,0.372,0.943,1.039,0.943,2.003v4.43
			c0,0.814-0.208,1.389-0.623,1.725s-1.151,0.539-2.206,0.609c1.127,0.054,1.909,0.248,2.348,0.584s0.658,0.92,0.658,1.751v7.905
			h-2.402v-7.309c0-0.92-0.175-1.517-0.525-1.791c-0.35-0.273-1.071-0.41-2.162-0.41h-0.836v9.51h-2.26L335.411,0.292L335.411,0.292
			z M337.67,1.737v7.149h0.801c1.032,0,1.72-0.135,2.064-0.404c0.344-0.271,0.516-0.869,0.516-1.798V3.966
			c0-0.938-0.172-1.543-0.516-1.817c-0.344-0.273-1.032-0.411-2.064-0.411L337.67,1.737L337.67,1.737z"/>
		<path fill="#F2961C" d="M355.854,4.284v1.008h-2.367V4.019c0-0.99-0.139-1.669-0.418-2.036c-0.278-0.366-0.762-0.55-1.449-0.55
			c-0.664,0-1.133,0.19-1.406,0.57s-0.408,1.052-0.408,2.016v12.083c0,1.034,0.148,1.733,0.446,2.096
			c0.298,0.362,0.828,0.544,1.591,0.544c0.227,0,0.477-0.016,0.751-0.047c0.274-0.03,0.572-0.077,0.894-0.14l0.019-6.87h-2.028
			V10.24h4.377v9.284c-0.724,0.221-1.429,0.387-2.117,0.497c-0.688,0.11-1.381,0.166-2.081,0.166c-1.566,0-2.66-0.308-3.283-0.922
			c-0.623-0.614-0.935-1.748-0.935-3.401V4.284c0-1.645,0.309-2.77,0.926-3.376C348.979,0.303,350.078,0,351.655,0
			c1.566,0,2.656,0.299,3.273,0.896S355.854,2.622,355.854,4.284z"/>
		<path fill="#F2961C" d="M362.01,0.292h3.31l3.789,19.563h-2.438l-0.906-5.438h-4.307l-0.979,5.438h-2.385L362.01,0.292z
			 M363.576,1.737l-1.904,11.247h3.79l-1.779-11.247H363.576z"/>
		<path fill="#F2961C" d="M377.081,0.292h2.26v18.011h4.074v1.553h-6.334V0.292z"/>
		<path fill="#F2961C" d="M388.504,0.292h3.31l3.789,19.563h-2.438l-0.907-5.438h-4.306l-0.979,5.438h-2.385L388.504,0.292z
			 M390.069,1.737l-1.904,11.247h3.79l-1.779-11.247H390.069z"/>
		<path fill="#F2961C" d="M411.083,3.396v1.87h-2.384V3.448c0-0.76-0.11-1.286-0.329-1.578c-0.22-0.292-0.608-0.438-1.166-0.438
			c-0.51,0-0.866,0.165-1.068,0.497c-0.202,0.332-0.302,1.028-0.302,2.089v12.109c0,1.088,0.107,1.795,0.32,2.122
			c0.214,0.327,0.604,0.491,1.174,0.491c0.486,0,0.836-0.155,1.05-0.465s0.32-0.835,0.32-1.578V14.59h2.384v2.175
			c0,1.335-0.279,2.239-0.836,2.712c-0.558,0.474-1.554,0.71-2.989,0.71c-1.412,0-2.396-0.305-2.954-0.915
			c-0.558-0.61-0.836-1.746-0.836-3.408V4.284c0-1.653,0.279-2.78,0.836-3.382C404.861,0.301,405.845,0,407.257,0
			c1.447,0,2.447,0.234,2.998,0.703C410.806,1.172,411.083,2.069,411.083,3.396z"/>
		<path fill="#F2961C" d="M422.185,4.284v11.579c0,1.68-0.302,2.82-0.906,3.422c-0.605,0.601-1.685,0.901-3.238,0.901
			c-1.53,0-2.598-0.305-3.203-0.915c-0.604-0.61-0.907-1.746-0.907-3.408V4.284c0-1.645,0.306-2.77,0.916-3.376
			C415.456,0.303,416.533,0,418.075,0s2.613,0.301,3.212,0.902C421.885,1.504,422.185,2.631,422.185,4.284z M419.818,4.019
			c0-0.99-0.132-1.669-0.392-2.036c-0.261-0.366-0.724-0.55-1.388-0.55c-0.653,0-1.106,0.179-1.361,0.537
			c-0.255,0.358-0.382,1.041-0.382,2.049v12.109c0,1.017,0.13,1.702,0.392,2.056c0.261,0.354,0.723,0.531,1.388,0.531
			c0.651,0,1.105-0.178,1.36-0.531c0.256-0.354,0.383-1.039,0.383-2.056V4.019z"/>
		<path fill="#F2961C" d="M426.17,0.292h3.932l2.545,18.011h0.178l2.491-18.011h3.824v19.563h-1.975V1.764h-0.356l-2.562,18.092
			h-3.167l-2.65-18.092h-0.302v18.092h-1.957L426.17,0.292L426.17,0.292z"/>
		<path fill="#F2961C" d="M443.216,0.292h2.918c1.779,0,2.989,0.188,3.63,0.563c0.642,0.376,0.961,1.041,0.961,1.996v5.623
			c0,0.955-0.319,1.619-0.961,1.99c-0.64,0.371-1.85,0.557-3.63,0.557h-0.658v8.834h-2.26V0.292z M445.475,1.737V9.59h0.605
			c0.901,0,1.504-0.135,1.806-0.405c0.303-0.27,0.454-0.877,0.454-1.823V3.966c0-0.946-0.15-1.554-0.454-1.823
			c-0.302-0.271-0.904-0.405-1.806-0.405L445.475,1.737L445.475,1.737z"/>
		<path fill="#F2961C" d="M453.5,0.292h6.263v1.552h-4.003v7.043h3.825v1.538h-3.825v7.878h4.11v1.553h-6.37V0.292z"/>
		<path fill="#F2961C" d="M461.4,0.292h7.703v1.552H466.4v18.012h-2.295V1.844H461.4V0.292z"/>
		<path fill="#F2961C" d="M471.47,0.292h6.264v1.552h-4.003v7.043h3.824v1.538h-3.824v7.878h4.109v1.553h-6.37V0.292z"/>
		<path fill="#F2961C" d="M481.096,0.292h3.097l3.754,18.396h0.036l-0.339-18.396h2.047v19.563h-3.132L482.84,1.711h-0.071
			l0.32,18.145h-1.993V0.292L481.096,0.292z"/>
		<path fill="#F2961C" d="M501.255,3.396v1.87h-2.384V3.448c0-0.76-0.11-1.286-0.329-1.578c-0.22-0.292-0.608-0.438-1.166-0.438
			c-0.51,0-0.866,0.165-1.068,0.497c-0.201,0.332-0.302,1.028-0.302,2.089v12.109c0,1.088,0.107,1.795,0.32,2.122
			c0.214,0.327,0.604,0.491,1.174,0.491c0.486,0,0.836-0.155,1.05-0.465s0.32-0.835,0.32-1.578V14.59h2.384v2.175
			c0,1.335-0.279,2.239-0.836,2.712c-0.558,0.474-1.554,0.71-2.989,0.71c-1.412,0-2.396-0.305-2.954-0.915
			c-0.558-0.61-0.836-1.746-0.836-3.408V4.284c0-1.653,0.279-2.78,0.836-3.382C495.033,0.301,496.018,0,497.429,0
			c1.447,0,2.447,0.234,2.998,0.703C500.978,1.172,501.255,2.069,501.255,3.396z"/>
		<path fill="#F2961C" d="M504.208,0.292h2.402v19.563h-2.402V0.292z"/>
		<path fill="#F2961C" d="M512.838,0.292h3.31l3.79,19.563h-2.438l-0.907-5.438h-4.306l-0.979,5.438h-2.384L512.838,0.292z
			 M514.403,1.737L512.5,12.984h3.79l-1.78-11.247H514.403z"/>
		<path fill="#F2961C" d="M1.534,27.455h2.918c1.779,0,2.989,0.188,3.63,0.563c0.641,0.376,0.961,1.041,0.961,1.996v5.623
			c0,0.955-0.32,1.618-0.961,1.989c-0.64,0.372-1.85,0.558-3.63,0.558H3.794v8.833h-2.26V27.455z M3.794,28.9v7.852h0.605
			c0.901,0,1.504-0.135,1.806-0.404c0.302-0.27,0.454-0.877,0.454-1.824v-3.395c0-0.946-0.151-1.555-0.454-1.824
			C5.902,29.035,5.3,28.9,4.398,28.9H3.794z"/>
		<path fill="#F2961C" d="M13.241,27.455h3.309l3.79,19.562h-2.438l-0.907-5.438H12.69l-0.979,5.438H9.327L13.241,27.455z
			 M14.807,28.9l-1.904,11.247h3.79L14.914,28.9H14.807z"/>
		<path fill="#F2961C" d="M22.743,27.455h3.452c1.779,0,2.983,0.186,3.612,0.557c0.628,0.371,0.943,1.039,0.943,2.003v4.43
			c0,0.813-0.208,1.388-0.623,1.724c-0.415,0.337-1.151,0.54-2.206,0.61c1.127,0.054,1.909,0.248,2.348,0.584
			c0.439,0.336,0.658,0.92,0.658,1.751v7.904h-2.402V39.71c0-0.92-0.175-1.517-0.525-1.791c-0.35-0.273-1.071-0.411-2.162-0.411
			h-0.836v9.51h-2.26L22.743,27.455L22.743,27.455z M25.003,28.9v7.148h0.801c1.032,0,1.72-0.135,2.064-0.404
			c0.344-0.27,0.516-0.869,0.516-1.797v-2.719c0-0.938-0.172-1.543-0.516-1.817c-0.344-0.274-1.032-0.411-2.064-0.411H25.003z"/>
		<path fill="#F2961C" d="M37.101,27.455h3.309l3.79,19.562h-2.438l-0.907-5.438H36.55l-0.979,5.438h-2.384L37.101,27.455z
			 M38.667,28.9l-1.904,11.247h3.79L38.774,28.9H38.667z"/>
		<path fill="#F2961C" d="M52.172,27.455h2.651c2.242,0,3.707,0.263,4.395,0.789c0.688,0.525,1.032,1.73,1.032,3.614v10.756
			c0,1.875-0.35,3.077-1.05,3.607c-0.7,0.53-2.159,0.796-4.377,0.796h-2.651V27.455z M54.431,28.9v16.672h0.729
			c1.091,0,1.812-0.135,2.162-0.404c0.35-0.269,0.525-0.864,0.525-1.784V31.129c0-0.929-0.178-1.532-0.534-1.811
			c-0.356-0.279-1.074-0.418-2.153-0.418H54.431z"/>
		<path fill="#F2961C" d="M64.235,27.455h6.263v1.551h-4.003v7.043h3.825v1.539h-3.825v7.878h4.11v1.552h-6.37V27.455z"/>
		<path fill="#F2961C" d="M80.711,30.559v1.87h-2.366v-1.817c0-0.77-0.107-1.298-0.32-1.585c-0.213-0.287-0.593-0.431-1.139-0.431
			c-0.522,0-0.89,0.161-1.103,0.483c-0.214,0.323-0.32,0.896-0.32,1.718v0.955c0,0.398,0.074,0.807,0.222,1.227
			s0.365,0.816,0.649,1.188l2.954,3.886c0.498,0.654,0.86,1.271,1.085,1.851c0.225,0.58,0.338,1.178,0.338,1.797v1.326
			c0,1.698-0.288,2.843-0.863,3.436c-0.575,0.592-1.598,0.889-3.069,0.889c-1.435,0-2.435-0.239-2.998-0.717
			c-0.563-0.477-0.845-1.379-0.845-2.705v-2.176h2.384v2.109c0,0.796,0.107,1.335,0.32,1.618c0.213,0.283,0.605,0.425,1.174,0.425
			c0.581,0,0.981-0.162,1.201-0.484c0.219-0.323,0.329-1.032,0.329-2.129v-1.354c0-0.504-0.062-0.961-0.187-1.372
			c-0.125-0.411-0.305-0.784-0.543-1.121l-3.131-4.164c-0.439-0.558-0.774-1.088-1.005-1.592s-0.347-0.942-0.347-1.313v-1.141
			c0-1.521,0.282-2.579,0.845-3.176c0.563-0.598,1.533-0.896,2.909-0.896c1.447,0,2.447,0.234,2.998,0.702
			C80.435,28.335,80.711,29.232,80.711,30.559z"/>
		<path fill="#F2961C" d="M86.102,27.455h3.309l3.79,19.562h-2.438l-0.907-5.438H85.55l-0.979,5.438h-2.384L86.102,27.455z
			 M87.667,28.9l-1.904,11.247h3.79L87.774,28.9H87.667z"/>
		<path fill="#F2961C" d="M95.603,27.455h3.452c1.779,0,2.983,0.186,3.612,0.557c0.628,0.371,0.943,1.039,0.943,2.003v4.43
			c0,0.813-0.208,1.388-0.623,1.724c-0.415,0.337-1.151,0.54-2.206,0.61c1.127,0.054,1.909,0.248,2.348,0.584
			c0.439,0.336,0.658,0.92,0.658,1.751v7.904h-2.402V39.71c0-0.92-0.175-1.517-0.525-1.791c-0.35-0.273-1.071-0.411-2.162-0.411
			h-0.836v9.51h-2.26L95.603,27.455L95.603,27.455z M97.863,28.9v7.148h0.801c1.032,0,1.72-0.135,2.064-0.404
			c0.344-0.27,0.516-0.869,0.516-1.797v-2.719c0-0.938-0.172-1.543-0.516-1.817c-0.344-0.274-1.032-0.411-2.064-0.411H97.863z"/>
		<path fill="#F2961C" d="M107.738,27.455h3.452c1.779,0,2.983,0.186,3.612,0.557c0.628,0.371,0.943,1.039,0.943,2.003v4.43
			c0,0.813-0.208,1.388-0.623,1.724c-0.415,0.337-1.151,0.54-2.206,0.61c1.127,0.054,1.909,0.248,2.348,0.584
			c0.439,0.336,0.658,0.92,0.658,1.751v7.904h-2.402V39.71c0-0.92-0.175-1.517-0.525-1.791c-0.35-0.273-1.071-0.411-2.162-0.411
			h-0.836v9.51h-2.26L107.738,27.455L107.738,27.455z M109.997,28.9v7.148h0.801c1.032,0,1.72-0.135,2.064-0.404
			c0.344-0.27,0.516-0.869,0.516-1.797v-2.719c0-0.938-0.172-1.543-0.516-1.817c-0.344-0.274-1.032-0.411-2.064-0.411H109.997z"/>
		<path fill="#F2961C" d="M128.021,31.447v11.578c0,1.68-0.302,2.82-0.907,3.422c-0.605,0.602-1.684,0.902-3.238,0.902
			c-1.53,0-2.598-0.305-3.203-0.915s-0.907-1.747-0.907-3.409V31.447c0-1.646,0.305-2.771,0.916-3.376
			c0.611-0.605,1.687-0.908,3.229-0.908s2.613,0.301,3.212,0.901C127.722,28.666,128.021,29.793,128.021,31.447z M125.655,31.182
			c0-0.99-0.131-1.669-0.391-2.036c-0.261-0.366-0.724-0.55-1.388-0.55c-0.653,0-1.106,0.179-1.361,0.537
			c-0.255,0.357-0.382,1.041-0.382,2.049v12.109c0,1.017,0.13,1.702,0.391,2.056c0.261,0.354,0.723,0.53,1.388,0.53
			c0.652,0,1.106-0.177,1.361-0.53c0.255-0.354,0.382-1.039,0.382-2.056V31.182z"/>
		<path fill="#F2961C" d="M132.007,27.455h2.26v18.011h4.074v1.552h-6.334V27.455z"/>
		<path fill="#F2961C" d="M140.53,27.455h2.26v18.011h4.074v1.552h-6.334V27.455z"/>
		<path fill="#F2961C" d="M151.952,27.455h3.309l3.79,19.562h-2.438l-0.907-5.438H151.4l-0.979,5.438h-2.384L151.952,27.455z
			 M153.518,28.9l-1.904,11.247h3.79L153.625,28.9H153.518z"/>
		<path fill="#F2961C" d="M161.454,27.455h3.452c1.779,0,2.983,0.186,3.612,0.557c0.628,0.371,0.943,1.039,0.943,2.003v4.43
			c0,0.813-0.208,1.388-0.623,1.724c-0.415,0.337-1.151,0.54-2.206,0.61c1.127,0.054,1.909,0.248,2.348,0.584
			c0.439,0.336,0.658,0.92,0.658,1.751v7.904h-2.402V39.71c0-0.92-0.175-1.517-0.525-1.791c-0.35-0.273-1.071-0.411-2.162-0.411
			h-0.836v9.51h-2.26L161.454,27.455L161.454,27.455z M163.713,28.9v7.148h0.801c1.032,0,1.72-0.135,2.064-0.404
			c0.344-0.27,0.516-0.869,0.516-1.797v-2.719c0-0.938-0.172-1.543-0.516-1.817c-0.344-0.274-1.032-0.411-2.064-0.411H163.713z"/>
		<path fill="#F2961C" d="M179.157,27.455h6.263v1.551h-4.003v7.043h3.825v1.539h-3.825v7.878h4.11v1.552h-6.37V27.455z"/>
		<path fill="#F2961C" d="M188.783,27.455h2.26v18.011h4.074v1.552h-6.334V27.455z"/>
		<path fill="#F2961C" d="M202.875,27.455h2.918c1.779,0,2.989,0.188,3.63,0.563c0.641,0.376,0.961,1.041,0.961,1.996v5.623
			c0,0.955-0.32,1.618-0.961,1.989c-0.64,0.372-1.85,0.558-3.63,0.558h-0.658v8.833h-2.26V27.455z M205.135,28.9v7.852h0.605
			c0.901,0,1.504-0.135,1.806-0.404c0.302-0.27,0.454-0.877,0.454-1.824v-3.395c0-0.946-0.151-1.555-0.454-1.824
			c-0.302-0.27-0.905-0.404-1.806-0.404L205.135,28.9L205.135,28.9z"/>
		<path fill="#F2961C" d="M213.159,27.455h3.452c1.779,0,2.983,0.186,3.612,0.557c0.628,0.371,0.943,1.039,0.943,2.003v4.43
			c0,0.813-0.208,1.388-0.623,1.724c-0.415,0.337-1.151,0.54-2.206,0.61c1.127,0.054,1.909,0.248,2.348,0.584
			c0.439,0.336,0.658,0.92,0.658,1.751v7.904h-2.402V39.71c0-0.92-0.175-1.517-0.525-1.791c-0.35-0.273-1.071-0.411-2.162-0.411
			h-0.836v9.51h-2.26L213.159,27.455L213.159,27.455z M215.419,28.9v7.148h0.801c1.032,0,1.72-0.135,2.064-0.404
			c0.344-0.27,0.516-0.869,0.516-1.797v-2.719c0-0.938-0.172-1.543-0.516-1.817c-0.344-0.274-1.032-0.411-2.064-0.411H215.419z"/>
		<path fill="#F2961C" d="M233.442,31.447v11.578c0,1.68-0.302,2.82-0.907,3.422c-0.605,0.602-1.684,0.902-3.238,0.902
			c-1.53,0-2.598-0.305-3.203-0.915c-0.605-0.61-0.907-1.747-0.907-3.409V31.447c0-1.646,0.305-2.771,0.916-3.376
			c0.611-0.605,1.687-0.908,3.229-0.908s2.613,0.301,3.212,0.901C233.143,28.666,233.442,29.793,233.442,31.447z M231.076,31.182
			c0-0.99-0.131-1.669-0.391-2.036c-0.261-0.366-0.724-0.55-1.388-0.55c-0.653,0-1.106,0.179-1.361,0.537
			c-0.255,0.357-0.382,1.041-0.382,2.049v12.109c0,1.017,0.13,1.702,0.391,2.056c0.261,0.354,0.723,0.53,1.388,0.53
			c0.652,0,1.106-0.177,1.361-0.53c0.255-0.354,0.382-1.039,0.382-2.056V31.182z"/>
		<path fill="#F2961C" d="M244.937,30.559v1.87h-2.384v-1.817c0-0.76-0.11-1.287-0.329-1.578c-0.22-0.292-0.608-0.438-1.166-0.438
			c-0.51,0-0.866,0.165-1.068,0.497c-0.202,0.331-0.302,1.028-0.302,2.089v12.109c0,1.088,0.107,1.795,0.32,2.122
			c0.214,0.327,0.605,0.491,1.174,0.491c0.486,0,0.836-0.155,1.05-0.465s0.32-0.836,0.32-1.578v-2.109h2.384v2.176
			c0,1.335-0.279,2.239-0.836,2.712c-0.558,0.474-1.554,0.71-2.989,0.71c-1.412,0-2.396-0.305-2.954-0.915
			c-0.558-0.61-0.836-1.747-0.836-3.409V31.447c0-1.654,0.279-2.781,0.836-3.383c0.557-0.601,1.542-0.901,2.954-0.901
			c1.447,0,2.447,0.234,2.998,0.702C244.661,28.335,244.937,29.232,244.937,30.559z"/>
		<path fill="#F2961C" d="M247.89,27.455h6.263v1.551h-4.003v7.043h3.825v1.539h-3.825v7.878h4.11v1.552h-6.37V27.455z"/>
		<path fill="#F2961C" d="M264.366,30.559v1.87H262v-1.817c0-0.77-0.107-1.298-0.32-1.585c-0.213-0.287-0.593-0.431-1.139-0.431
			c-0.522,0-0.89,0.161-1.103,0.483c-0.214,0.323-0.32,0.896-0.32,1.718v0.955c0,0.398,0.074,0.807,0.222,1.227
			s0.365,0.816,0.649,1.188l2.954,3.886c0.498,0.654,0.86,1.271,1.085,1.851c0.225,0.58,0.338,1.178,0.338,1.797v1.326
			c0,1.698-0.288,2.843-0.863,3.436c-0.575,0.592-1.598,0.889-3.069,0.889c-1.435,0-2.435-0.239-2.998-0.717
			c-0.563-0.477-0.845-1.379-0.845-2.705v-2.176h2.384v2.109c0,0.796,0.107,1.335,0.32,1.618c0.213,0.283,0.605,0.425,1.174,0.425
			c0.581,0,0.981-0.162,1.201-0.484c0.219-0.323,0.329-1.032,0.329-2.129v-1.354c0-0.504-0.062-0.961-0.187-1.372
			c-0.125-0.411-0.305-0.784-0.543-1.121l-3.131-4.164c-0.439-0.558-0.774-1.088-1.005-1.592s-0.347-0.942-0.347-1.313v-1.141
			c0-1.521,0.282-2.579,0.845-3.176c0.563-0.598,1.533-0.896,2.909-0.896c1.447,0,2.447,0.234,2.998,0.702
			C264.09,28.335,264.366,29.232,264.366,30.559z"/>
		<path fill="#F2961C" d="M275.682,31.447v11.578c0,1.68-0.302,2.82-0.907,3.422c-0.605,0.602-1.684,0.902-3.238,0.902
			c-1.53,0-2.598-0.305-3.203-0.915s-0.907-1.747-0.907-3.409V31.447c0-1.646,0.305-2.771,0.916-3.376
			c0.611-0.605,1.687-0.908,3.229-0.908s2.613,0.301,3.212,0.901C275.382,28.666,275.682,29.793,275.682,31.447z M273.315,31.182
			c0-0.99-0.131-1.669-0.391-2.036c-0.261-0.366-0.724-0.55-1.388-0.55c-0.653,0-1.106,0.179-1.361,0.537
			c-0.255,0.357-0.382,1.041-0.382,2.049v12.109c0,1.017,0.13,1.702,0.391,2.056c0.261,0.354,0.723,0.53,1.388,0.53
			c0.652,0,1.106-0.177,1.361-0.53c0.255-0.354,0.382-1.039,0.382-2.056V31.182z"/>
		<path fill="#F2961C" d="M285.236,27.455h2.651c2.242,0,3.707,0.263,4.395,0.789c0.688,0.525,1.032,1.73,1.032,3.614v10.756
			c0,1.875-0.35,3.077-1.05,3.607c-0.7,0.53-2.159,0.796-4.377,0.796h-2.651V27.455z M287.496,28.9v16.672h0.729
			c1.091,0,1.812-0.135,2.162-0.404c0.35-0.269,0.525-0.864,0.525-1.784V31.129c0-0.929-0.178-1.532-0.534-1.811
			c-0.356-0.279-1.074-0.418-2.153-0.418H287.496z"/>
		<path fill="#F2961C" d="M297.3,27.455h6.263v1.551h-4.003v7.043h3.825v1.539h-3.825v7.878h4.11v1.552h-6.37V27.455z"/>
		<path fill="#F2961C" d="M320.003,30.559v1.87h-2.384v-1.817c0-0.76-0.11-1.287-0.329-1.578c-0.22-0.292-0.608-0.438-1.166-0.438
			c-0.51,0-0.866,0.165-1.068,0.497c-0.202,0.331-0.302,1.028-0.302,2.089v12.109c0,1.088,0.107,1.795,0.32,2.122
			c0.214,0.327,0.605,0.491,1.174,0.491c0.486,0,0.836-0.155,1.05-0.465c0.214-0.31,0.32-0.836,0.32-1.578v-2.109h2.384v2.176
			c0,1.335-0.279,2.239-0.836,2.712c-0.558,0.474-1.554,0.71-2.989,0.71c-1.412,0-2.396-0.305-2.954-0.915s-0.836-1.747-0.836-3.409
			V31.447c0-1.654,0.279-2.781,0.836-3.383c0.557-0.601,1.542-0.901,2.954-0.901c1.447,0,2.447,0.234,2.998,0.702
			C319.727,28.335,320.003,29.232,320.003,30.559z"/>
		<path fill="#F2961C" d="M322.956,27.455h6.263v1.551h-4.003v7.043h3.825v1.539h-3.825v7.878h4.11v1.552h-6.37V27.455z"/>
		<path fill="#F2961C" d="M332.582,27.455h3.452c1.779,0,2.983,0.186,3.612,0.557c0.628,0.371,0.943,1.039,0.943,2.003v4.43
			c0,0.813-0.208,1.388-0.623,1.724c-0.415,0.337-1.151,0.54-2.206,0.61c1.127,0.054,1.909,0.248,2.348,0.584
			c0.439,0.336,0.658,0.92,0.658,1.751v7.904h-2.402V39.71c0-0.92-0.175-1.517-0.525-1.791c-0.35-0.273-1.071-0.411-2.162-0.411
			h-0.836v9.51h-2.26L332.582,27.455L332.582,27.455z M334.842,28.9v7.148h0.801c1.032,0,1.72-0.135,2.064-0.404
			c0.344-0.27,0.516-0.869,0.516-1.797v-2.719c0-0.938-0.172-1.543-0.516-1.817c-0.344-0.274-1.032-0.411-2.064-0.411H334.842z"/>
		<path fill="#F2961C" d="M342.991,27.455h7.703v1.551h-2.703v18.012h-2.295V29.006h-2.704L342.991,27.455L342.991,27.455z"/>
		<path fill="#F2961C" d="M353.062,27.455h2.401v19.562h-2.401V27.455z"/>
		<path fill="#F2961C" d="M359.467,27.455h6.085v1.551h-3.824v7.097h3.683v1.538h-3.683v9.377h-2.261V27.455L359.467,27.455z"/>
		<path fill="#F2961C" d="M368.327,27.455h2.402v19.562h-2.402V27.455z"/>
		<path fill="#F2961C" d="M382.241,30.559v1.87h-2.385v-1.817c0-0.76-0.109-1.287-0.328-1.578c-0.221-0.292-0.608-0.438-1.166-0.438
			c-0.51,0-0.866,0.165-1.068,0.497c-0.202,0.331-0.302,1.028-0.302,2.089v12.109c0,1.088,0.106,1.795,0.319,2.122
			c0.215,0.327,0.605,0.491,1.174,0.491c0.486,0,0.837-0.155,1.051-0.465s0.32-0.836,0.32-1.578v-2.109h2.384v2.176
			c0,1.335-0.279,2.239-0.837,2.712c-0.557,0.474-1.553,0.71-2.988,0.71c-1.412,0-2.396-0.305-2.954-0.915s-0.836-1.747-0.836-3.409
			V31.447c0-1.654,0.278-2.781,0.836-3.383c0.558-0.601,1.542-0.901,2.954-0.901c1.447,0,2.447,0.234,2.998,0.702
			C381.965,28.335,382.241,29.232,382.241,30.559z"/>
		<path fill="#F2961C" d="M387.418,27.455h3.31l3.789,19.562h-2.438l-0.907-5.438h-4.306l-0.979,5.438h-2.385L387.418,27.455z
			 M388.983,28.9l-1.903,11.247h3.79L389.091,28.9H388.983z"/>
		<path fill="#F2961C" d="M404.428,30.559v1.87h-2.384v-1.817c0-0.76-0.11-1.287-0.329-1.578c-0.22-0.292-0.607-0.438-1.166-0.438
			c-0.51,0-0.866,0.165-1.067,0.497c-0.202,0.331-0.303,1.028-0.303,2.089v12.109c0,1.088,0.107,1.795,0.32,2.122
			c0.214,0.327,0.605,0.491,1.174,0.491c0.486,0,0.836-0.155,1.05-0.465c0.215-0.31,0.32-0.836,0.32-1.578v-2.109h2.384v2.176
			c0,1.335-0.278,2.239-0.836,2.712c-0.558,0.474-1.554,0.71-2.989,0.71c-1.411,0-2.396-0.305-2.953-0.915
			c-0.559-0.61-0.836-1.747-0.836-3.409V31.447c0-1.654,0.278-2.781,0.836-3.383c0.557-0.601,1.542-0.901,2.953-0.901
			c1.447,0,2.447,0.234,2.998,0.702C404.152,28.335,404.428,29.232,404.428,30.559z"/>
		<path fill="#F2961C" d="M407.382,27.455h2.402v19.562h-2.402V27.455z"/>
		<path fill="#F2961C" d="M421.936,31.447v11.578c0,1.68-0.302,2.82-0.906,3.422c-0.605,0.602-1.685,0.902-3.238,0.902
			c-1.53,0-2.598-0.305-3.203-0.915c-0.604-0.61-0.907-1.747-0.907-3.409V31.447c0-1.646,0.306-2.771,0.916-3.376
			c0.611-0.605,1.688-0.908,3.229-0.908s2.613,0.301,3.212,0.901C421.636,28.666,421.936,29.793,421.936,31.447z M419.569,31.182
			c0-0.99-0.132-1.669-0.392-2.036c-0.261-0.366-0.724-0.55-1.388-0.55c-0.653,0-1.106,0.179-1.361,0.537
			c-0.255,0.357-0.382,1.041-0.382,2.049v12.109c0,1.017,0.13,1.702,0.392,2.056c0.261,0.354,0.723,0.53,1.388,0.53
			c0.652,0,1.105-0.177,1.361-0.53c0.255-0.354,0.382-1.039,0.382-2.056V31.182z M418.377,22.72h2.509l-2.331,2.958h-1.744
			L418.377,22.72z"/>
		<path fill="#F2961C" d="M425.921,27.455h3.096l3.755,18.396h0.035l-0.338-18.396h2.046v19.562h-3.131l-3.719-18.144h-0.071
			l0.32,18.144h-1.993V27.455L425.921,27.455z"/>
		<path fill="#F2961C" d="M442.13,27.455h2.402l2.366,8.912h0.195l2.136-8.912h2.33l-3.594,11.247v8.315h-2.295v-8.315
			L442.13,27.455z"/>
		<path fill="#F2961C" d="M459.265,27.455h3.452c1.779,0,2.983,0.186,3.612,0.557c0.628,0.371,0.943,1.039,0.943,2.003v4.43
			c0,0.813-0.208,1.388-0.623,1.724c-0.415,0.337-1.151,0.54-2.206,0.61c1.127,0.054,1.908,0.248,2.348,0.584
			c0.439,0.336,0.658,0.92,0.658,1.751v7.904h-2.402V39.71c0-0.92-0.175-1.517-0.524-1.791c-0.351-0.273-1.071-0.411-2.162-0.411
			h-0.836v9.51h-2.261L459.265,27.455L459.265,27.455z M461.524,28.9v7.148h0.801c1.032,0,1.72-0.135,2.063-0.404
			c0.345-0.27,0.517-0.869,0.517-1.797v-2.719c0-0.938-0.172-1.543-0.517-1.817c-0.344-0.274-1.031-0.411-2.063-0.411H461.524z"/>
		<path fill="#F2961C" d="M471.399,27.455h2.26v18.011h4.074v1.552h-6.334V27.455z"/>
		<path fill="#F2961C" d="M487.43,30.559v1.87h-2.384v-1.817c0-0.76-0.11-1.287-0.329-1.578c-0.22-0.292-0.607-0.438-1.166-0.438
			c-0.51,0-0.866,0.165-1.067,0.497c-0.202,0.331-0.303,1.028-0.303,2.089v12.109c0,1.088,0.107,1.795,0.32,2.122
			c0.214,0.327,0.605,0.491,1.174,0.491c0.486,0,0.836-0.155,1.05-0.465c0.215-0.31,0.32-0.836,0.32-1.578v-2.109h2.384v2.176
			c0,1.335-0.278,2.239-0.836,2.712c-0.558,0.474-1.554,0.71-2.989,0.71c-1.411,0-2.396-0.305-2.953-0.915
			c-0.559-0.61-0.836-1.747-0.836-3.409V31.447c0-1.654,0.278-2.781,0.836-3.383c0.557-0.601,1.542-0.901,2.953-0.901
			c1.447,0,2.447,0.234,2.998,0.702C487.155,28.335,487.43,29.232,487.43,30.559z"/>
		<path fill="#F2961C" d="M490.384,27.455h2.918c1.779,0,2.989,0.188,3.63,0.563c0.642,0.376,0.961,1.041,0.961,1.996v5.623
			c0,0.955-0.319,1.618-0.961,1.989c-0.64,0.372-1.85,0.558-3.63,0.558h-0.658v8.833h-2.26V27.455z M492.644,28.9v7.852h0.605
			c0.901,0,1.504-0.135,1.806-0.404c0.303-0.27,0.454-0.877,0.454-1.824v-3.395c0-0.946-0.15-1.555-0.454-1.824
			c-0.302-0.27-0.904-0.404-1.806-0.404L492.644,28.9L492.644,28.9z"/>
		<path fill="#F2961C" d="M500.668,27.455h2.651c2.241,0,3.707,0.263,4.395,0.789c0.688,0.525,1.032,1.73,1.032,3.614v10.756
			c0,1.875-0.35,3.077-1.05,3.607c-0.7,0.53-2.159,0.796-4.377,0.796h-2.651V27.455z M502.928,28.9v16.672h0.729
			c1.091,0,1.812-0.135,2.162-0.404c0.35-0.269,0.524-0.864,0.524-1.784V31.129c0-0.929-0.178-1.532-0.534-1.811
			c-0.355-0.279-1.073-0.418-2.152-0.418H502.928z"/>
	</g>
	<polygon fill="#F2961C" points="1.49,152.141 3.021,177.592 23.033,173.83 24.26,152.141 	"/>
	<g>
		<g>
			<path fill="#331842" d="M12.155,156.861h1.474v12.542h-1.474v-11.162c-0.283,0.188-0.566,0.346-0.849,0.475
				c-0.283,0.129-0.574,0.234-0.873,0.316v-1.222c0.338-0.123,0.65-0.264,0.938-0.422C11.657,157.23,11.919,157.055,12.155,156.861z
				"/>
		</g>
	</g>
	<polygon fill="#F2961C" points="37.492,152.141 39.023,177.592 59.035,173.83 60.262,152.141 	"/>
	<g>
		<g>
			<path fill="#331842" d="M51.363,159.129v0.826c0,0.223-0.047,0.495-0.141,0.817c-0.094,0.322-0.232,0.668-0.413,1.037
				l-3.254,6.636h3.738v0.958h-5.07v-1.274l2.971-6.082l0.035-0.079c0.424-0.826,0.637-1.526,0.637-2.101v-0.8
				c0-0.539-0.077-0.923-0.23-1.151c-0.153-0.228-0.407-0.343-0.76-0.343c-0.37,0-0.631,0.122-0.784,0.365
				c-0.153,0.243-0.23,0.675-0.23,1.296v0.844H46.34v-0.668c0-1.055,0.189-1.776,0.566-2.167c0.377-0.389,1.033-0.584,1.969-0.584
				c0.896,0,1.535,0.188,1.916,0.562C51.172,157.597,51.363,158.232,51.363,159.129z"/>
		</g>
	</g>
	<polygon fill="#F2961C" points="73.493,152.141 75.024,177.592 95.036,173.83 96.263,152.141 	"/>
	<g>
		<g>
			<path fill="#331842" d="M87.294,159.41v2.127c0,0.416-0.094,0.724-0.283,0.923c-0.188,0.199-0.503,0.331-0.943,0.396
				c0.44,0.059,0.755,0.188,0.943,0.387c0.189,0.199,0.283,0.507,0.283,0.923v2.681c0,1.084-0.183,1.818-0.548,2.202
				c-0.365,0.383-1.02,0.575-1.963,0.575c-0.928,0-1.578-0.198-1.951-0.593c-0.374-0.396-0.56-1.13-0.56-2.202v-0.861h1.497v1.063
				c0,0.621,0.077,1.052,0.23,1.292c0.153,0.24,0.415,0.36,0.784,0.36c0.369,0,0.627-0.119,0.772-0.355
				c0.145-0.238,0.218-0.67,0.218-1.297v-2.742c0-0.381-0.096-0.637-0.289-0.77c-0.193-0.131-0.58-0.197-1.161-0.197H83.91v-0.958
				h0.413c0.574,0,0.959-0.068,1.156-0.206c0.196-0.138,0.295-0.397,0.295-0.778v-2.145c0-0.686-0.067-1.134-0.2-1.345
				c-0.133-0.211-0.373-0.316-0.719-0.316c-0.354,0-0.603,0.12-0.749,0.36c-0.146,0.24-0.218,0.674-0.218,1.301v0.809h-1.521v-0.633
				c0-1.049,0.185-1.77,0.554-2.162s1.014-0.589,1.934-0.589c0.904,0,1.537,0.195,1.898,0.584
				C87.113,157.634,87.294,158.355,87.294,159.41z"/>
		</g>
	</g>
	<polygon fill="#F2961C" points="109.495,152.141 111.026,177.592 131.038,173.83 132.265,152.141 	"/>
	<g>
		<g>
			<path fill="#331842" d="M120.395,156.861h2.111v8.332h1.273v0.879h-1.273v3.331h-1.403v-3.331h-3.136v-1.116L120.395,156.861z
				 M121.149,157.723l-1.957,7.471h1.91l0.188-7.471H121.149z"/>
		</g>
	</g>
	<polygon fill="#F2961C" points="145.496,152.141 147.027,177.592 167.039,173.83 168.266,152.141 	"/>
	<g>
		<g>
			<path fill="#331842" d="M154.439,156.861h4.811v0.949h-3.36v4.21c0.244-0.176,0.49-0.303,0.737-0.383
				c0.248-0.078,0.536-0.118,0.866-0.118c0.676,0,1.157,0.143,1.444,0.427c0.287,0.284,0.43,0.771,0.43,1.463v3.437
				c0,1.084-0.183,1.818-0.548,2.202c-0.365,0.383-1.02,0.575-1.963,0.575c-0.935,0-1.592-0.199-1.969-0.598
				c-0.377-0.398-0.566-1.131-0.566-2.197v-0.861h1.521v1.063c0,0.627,0.075,1.059,0.224,1.297c0.149,0.236,0.405,0.355,0.766,0.355
				c0.369,0,0.631-0.12,0.784-0.36c0.153-0.24,0.23-0.671,0.23-1.292v-3.366c0-0.486-0.073-0.827-0.218-1.024
				c-0.146-0.195-0.395-0.294-0.749-0.294c-0.362,0-0.617,0.097-0.766,0.29c-0.149,0.193-0.224,0.536-0.224,1.028v0.229h-1.45
				V156.861z"/>
		</g>
	</g>
	<polygon fill="#F2961C" points="181.498,152.141 183.029,177.592 203.041,173.83 204.268,152.141 	"/>
	<g>
		<g>
			<path fill="#331842" d="M195.345,159.41v0.87h-1.521v-1.046c0-0.615-0.073-1.046-0.218-1.292
				c-0.146-0.246-0.395-0.369-0.749-0.369c-0.346,0-0.585,0.102-0.719,0.303c-0.134,0.203-0.2,0.655-0.2,1.358v2.883
				c0.204-0.152,0.428-0.264,0.672-0.334c0.244-0.07,0.538-0.105,0.884-0.105c0.7,0,1.199,0.182,1.498,0.545
				c0.299,0.363,0.448,0.981,0.448,1.854v2.769c0,1.084-0.183,1.818-0.548,2.202c-0.365,0.383-1.02,0.575-1.963,0.575
				c-0.927,0-1.578-0.198-1.951-0.593c-0.374-0.396-0.56-1.13-0.56-2.202v-7.418c0-1.066,0.181-1.791,0.542-2.175
				c0.361-0.384,0.994-0.576,1.898-0.576c0.927,0,1.574,0.196,1.94,0.589C195.164,157.641,195.345,158.361,195.345,159.41z
				 M193.942,164.218c0-0.621-0.076-1.055-0.23-1.301c-0.154-0.246-0.415-0.369-0.784-0.369c-0.37,0-0.631,0.123-0.784,0.369
				s-0.23,0.68-0.23,1.301v2.812c0,0.621,0.077,1.052,0.23,1.292c0.153,0.24,0.414,0.36,0.784,0.36c0.377,0,0.641-0.12,0.79-0.36
				c0.149-0.24,0.224-0.671,0.224-1.292V164.218z"/>
		</g>
	</g>
	<polygon fill="#F2961C" points="217.499,152.141 219.03,177.592 239.042,173.83 240.269,152.141 	"/>
	<g>
		<g>
			<path fill="#331842" d="M225.888,156.861h5.2v1.345l-2.441,11.197h-1.544l2.629-11.593h-3.844V156.861z"/>
		</g>
	</g>
	<polygon fill="#F2961C" points="253.501,152.141 255.032,177.592 275.043,173.83 276.271,152.141 	"/>
	<g>
		<g>
			<path fill="#331842" d="M263.894,162.873c-0.566-0.129-0.961-0.316-1.185-0.562s-0.336-0.677-0.336-1.292v-1.608
				c0-1.061,0.185-1.784,0.554-2.171c0.369-0.387,1.022-0.58,1.957-0.58c0.927,0,1.578,0.196,1.951,0.589s0.56,1.113,0.56,2.162
				v1.608c0,0.598-0.112,1.023-0.336,1.279c-0.224,0.254-0.627,0.446-1.208,0.575c0.582,0.135,0.985,0.329,1.208,0.585
				c0.224,0.254,0.336,0.678,0.336,1.27v2.118c0,1.084-0.183,1.818-0.548,2.202c-0.365,0.383-1.02,0.575-1.963,0.575
				c-0.927,0-1.578-0.198-1.951-0.593c-0.373-0.396-0.56-1.13-0.56-2.202v-2.101c0-0.615,0.11-1.046,0.33-1.292
				C262.923,163.189,263.32,163.002,263.894,162.873z M263.87,158.979V161c0,0.545,0.073,0.914,0.218,1.107s0.403,0.29,0.772,0.29
				c0.369,0,0.631-0.104,0.784-0.312s0.23-0.57,0.23-1.086v-2.021c0-0.527-0.073-0.894-0.218-1.099
				c-0.145-0.205-0.403-0.308-0.772-0.308c-0.37,0-0.631,0.102-0.784,0.303C263.947,158.079,263.87,158.446,263.87,158.979z
				 M263.87,164.728v2.549c0,0.551,0.073,0.923,0.218,1.116s0.403,0.29,0.772,0.29c0.369,0,0.631-0.104,0.784-0.312
				c0.153-0.207,0.23-0.572,0.23-1.094v-2.549c0-0.527-0.073-0.894-0.218-1.099c-0.145-0.205-0.403-0.308-0.772-0.308
				c-0.37,0-0.631,0.1-0.784,0.299C263.947,163.819,263.87,164.188,263.87,164.728z"/>
		</g>
	</g>
	<polygon fill="#F2961C" points="289.502,152.141 291.033,177.592 311.045,173.83 312.271,152.141 	"/>
	<g>
		<g>
			<path fill="#331842" d="M303.35,159.428v7.418c0,1.055-0.183,1.781-0.548,2.18c-0.365,0.399-1.004,0.598-1.916,0.598
				c-0.912,0-1.551-0.196-1.916-0.589c-0.365-0.393-0.548-1.122-0.548-2.188v-0.861h1.497v1.046c0,0.633,0.073,1.069,0.218,1.31
				c0.145,0.241,0.395,0.36,0.749,0.36s0.599-0.105,0.737-0.316c0.138-0.211,0.207-0.662,0.207-1.354v-2.865
				c-0.197,0.146-0.413,0.255-0.649,0.325c-0.236,0.07-0.503,0.105-0.802,0.105c-0.747,0-1.279-0.179-1.597-0.536
				c-0.318-0.357-0.478-0.981-0.478-1.872v-2.777c0-1.078,0.183-1.806,0.548-2.185c0.365-0.377,1.02-0.566,1.963-0.566
				c0.935,0,1.592,0.199,1.969,0.598C303.161,157.655,303.35,158.379,303.35,159.428z M301.829,159.252
				c0-0.633-0.073-1.07-0.218-1.313c-0.146-0.243-0.403-0.365-0.772-0.365c-0.37,0-0.631,0.123-0.784,0.369
				c-0.153,0.246-0.23,0.683-0.23,1.31v2.786c0,0.639,0.074,1.078,0.224,1.318c0.149,0.24,0.405,0.36,0.766,0.36
				c0.369,0,0.631-0.123,0.784-0.369c0.153-0.246,0.23-0.683,0.23-1.31V159.252z"/>
		</g>
	</g>
	<polygon fill="#F2961C" points="1.49,187.613 5.646,358.754 691.49,349.861 670.399,185.982 	"/>
</g>
</svg>
