<?xml version="1.0" encoding="utf-8"?>
<!-- Generator: Adobe Illustrator 16.0.0, SVG Export Plug-In . SVG Version: 6.00 Build 0)  -->
<!DOCTYPE svg PUBLIC "-//W3C//DTD SVG 1.1//EN" "http://www.w3.org/Graphics/SVG/1.1/DTD/svg11.dtd">
<svg version="1.1" id="Capa_1" xmlns="http://www.w3.org/2000/svg" xmlns:xlink="http://www.w3.org/1999/xlink" x="0px" y="0px"
	 width="197.461px" height="39.795px" viewBox="0 0 197.461 39.795" enable-background="new 0 0 197.461 39.795"
	 xml:space="preserve">
<g>
	<polygon opacity="0.7" fill="#FFFFFF" enable-background="new    " points="0,2.73 197.461,0 197.461,39.795 25.25,39.775 	"/>
	<g>
		<g>
			<path fill="#331842" d="M52.516,12.997h2.994l1.938,13.715h0.136l1.896-13.715h2.913v14.896H60.89V14.118h-0.271l-1.951,13.774
				h-2.412l-2.019-13.774h-0.23v13.774h-1.49L52.516,12.997L52.516,12.997z"/>
			<path fill="#331842" d="M67.188,12.997h2.52l2.886,14.896h-1.856l-0.69-4.141h-3.279l-0.745,4.141h-1.815L67.188,12.997z
				 M68.38,14.098l-1.449,8.564h2.886l-1.355-8.564H68.38z"/>
			<path fill="#331842" d="M74.423,12.997h2.628c1.354,0,2.271,0.142,2.75,0.425c0.479,0.282,0.718,0.791,0.718,1.523v3.373
				c0,0.62-0.158,1.059-0.474,1.313c-0.316,0.256-0.876,0.41-1.68,0.464c0.857,0.04,1.454,0.188,1.788,0.444s0.501,0.7,0.501,1.333
				v6.02h-1.829v-5.563c0-0.7-0.133-1.155-0.399-1.364c-0.267-0.208-0.815-0.313-1.646-0.313h-0.637v7.241h-1.72V12.997z
				 M76.144,14.098v5.443h0.61c0.786,0,1.31-0.103,1.571-0.309c0.262-0.205,0.393-0.66,0.393-1.367v-2.07
				c0-0.714-0.131-1.175-0.393-1.384c-0.262-0.208-0.786-0.313-1.571-0.313H76.144z"/>
			<path fill="#331842" d="M89.38,15.36v1.425h-1.815V15.4c0-0.577-0.083-0.979-0.25-1.2c-0.167-0.224-0.463-0.334-0.888-0.334
				c-0.388,0-0.659,0.127-0.812,0.379c-0.154,0.253-0.23,0.782-0.23,1.591v9.221c0,0.828,0.081,1.366,0.244,1.616
				c0.162,0.248,0.46,0.373,0.894,0.373c0.371,0,0.637-0.117,0.8-0.354c0.162-0.234,0.244-0.637,0.244-1.2v-1.606h1.815v1.656
				c0,1.017-0.212,1.705-0.637,2.064c-0.425,0.36-1.183,0.54-2.276,0.54c-1.075,0-1.825-0.23-2.249-0.695
				c-0.425-0.466-0.637-1.33-0.637-2.597v-8.815c0-1.26,0.212-2.117,0.637-2.575c0.424-0.458,1.174-0.688,2.249-0.688
				c1.102,0,1.862,0.179,2.283,0.535C89.17,13.667,89.38,14.351,89.38,15.36z"/>
			<path fill="#331842" d="M97.833,16.037v8.815c0,1.279-0.23,2.147-0.69,2.605c-0.461,0.458-1.283,0.687-2.466,0.687
				c-1.165,0-1.979-0.23-2.438-0.695c-0.461-0.466-0.691-1.33-0.691-2.597v-8.815c0-1.252,0.232-2.109,0.698-2.57
				c0.466-0.461,1.285-0.691,2.459-0.691c1.174,0,1.989,0.229,2.445,0.688S97.833,14.778,97.833,16.037z M96.032,15.835
				c0-0.754-0.1-1.271-0.298-1.55c-0.199-0.279-0.551-0.42-1.057-0.42c-0.497,0-0.843,0.137-1.037,0.409
				c-0.194,0.271-0.292,0.792-0.292,1.561v9.221c0,0.774,0.1,1.296,0.298,1.565c0.198,0.269,0.551,0.403,1.057,0.403
				c0.497,0,0.842-0.135,1.037-0.403c0.194-0.271,0.291-0.791,0.291-1.565v-9.221H96.032z"/>
			<path fill="#331842" d="M107.656,12.997h1.748v11.855c0,1.246-0.21,2.104-0.63,2.57s-1.154,0.701-2.202,0.701
				s-1.776-0.186-2.188-0.556c-0.41-0.369-0.616-1.047-0.616-2.029v-1.656h1.774v1.606c0,0.618,0.074,1.028,0.225,1.23
				c0.148,0.202,0.417,0.304,0.806,0.304c0.406,0,0.688-0.132,0.847-0.395c0.16-0.263,0.237-0.787,0.237-1.575V12.997z"/>
			<path fill="#331842" d="M112.357,12.997h1.802v12.059c0,0.774,0.1,1.296,0.299,1.565c0.198,0.27,0.551,0.403,1.057,0.403
				c0.497,0,0.842-0.135,1.037-0.403c0.193-0.271,0.291-0.791,0.291-1.565V12.997h1.803v11.855c0,1.279-0.23,2.147-0.691,2.605
				s-1.283,0.687-2.466,0.687c-1.165,0-1.978-0.23-2.438-0.695c-0.459-0.466-0.69-1.33-0.69-2.597V12.997H112.357z"/>
			<path fill="#331842" d="M121.678,12.997h2.628c1.354,0,2.271,0.142,2.75,0.425c0.479,0.282,0.718,0.791,0.718,1.523v3.373
				c0,0.62-0.158,1.059-0.475,1.313c-0.315,0.256-0.875,0.41-1.68,0.464c0.858,0.04,1.455,0.188,1.789,0.444s0.502,0.7,0.502,1.333
				v6.02h-1.83v-5.563c0-0.7-0.133-1.155-0.398-1.364c-0.268-0.208-0.814-0.313-1.646-0.313h-0.637v7.241h-1.72L121.678,12.997
				L121.678,12.997z M123.398,14.098v5.443h0.61c0.785,0,1.31-0.103,1.572-0.309c0.262-0.205,0.393-0.66,0.393-1.367v-2.07
				c0-0.714-0.131-1.175-0.393-1.384c-0.263-0.208-0.787-0.313-1.572-0.313H123.398z"/>
			<path fill="#331842" d="M130.917,12.997h1.83v14.896h-1.83V12.997z M132.217,9.392h1.91l-1.774,2.253h-1.328L132.217,9.392z"/>
			<path fill="#331842" d="M135.793,12.997h2.02c1.707,0,2.822,0.2,3.348,0.601c0.522,0.401,0.785,1.318,0.785,2.752v8.191
				c0,1.427-0.267,2.342-0.799,2.746c-0.533,0.403-1.645,0.605-3.333,0.605h-2.019V12.997H135.793z M137.515,14.098v12.695h0.556
				c0.831,0,1.379-0.104,1.646-0.31c0.267-0.205,0.4-0.657,0.4-1.357v-9.331c0-0.707-0.136-1.167-0.406-1.379
				c-0.271-0.212-0.818-0.318-1.64-0.318H137.515z"/>
			<path fill="#331842" d="M144.98,12.997h1.829v14.896h-1.829V12.997z"/>
			<path fill="#331842" d="M155.575,15.36v1.425h-1.816V15.4c0-0.577-0.082-0.979-0.25-1.2c-0.166-0.224-0.463-0.334-0.887-0.334
				c-0.389,0-0.66,0.127-0.813,0.379c-0.154,0.253-0.23,0.782-0.23,1.591v9.221c0,0.828,0.082,1.366,0.244,1.616
				c0.162,0.248,0.461,0.373,0.895,0.373c0.371,0,0.637-0.117,0.8-0.354c0.162-0.234,0.244-0.637,0.244-1.2v-1.606h1.815v1.656
				c0,1.017-0.213,1.705-0.638,2.064c-0.425,0.36-1.183,0.54-2.276,0.54c-1.074,0-1.824-0.23-2.248-0.695
				c-0.426-0.466-0.638-1.33-0.638-2.597v-8.815c0-1.26,0.212-2.117,0.638-2.575c0.424-0.458,1.174-0.688,2.248-0.688
				c1.103,0,1.862,0.179,2.283,0.535C155.364,13.667,155.575,14.351,155.575,15.36z"/>
			<path fill="#331842" d="M164.028,16.037v8.815c0,1.279-0.23,2.147-0.689,2.605c-0.461,0.458-1.283,0.687-2.467,0.687
				c-1.164,0-1.979-0.23-2.438-0.695c-0.461-0.466-0.691-1.33-0.691-2.597v-8.815c0-1.252,0.232-2.109,0.698-2.57
				s1.285-0.691,2.459-0.691c1.175,0,1.989,0.229,2.445,0.688S164.028,14.778,164.028,16.037z M162.226,15.835
				c0-0.754-0.101-1.271-0.298-1.55c-0.199-0.279-0.551-0.42-1.057-0.42c-0.498,0-0.844,0.137-1.037,0.409
				c-0.194,0.271-0.293,0.792-0.293,1.561v9.221c0,0.774,0.101,1.296,0.299,1.565c0.197,0.269,0.551,0.403,1.057,0.403
				c0.497,0,0.842-0.135,1.037-0.403c0.193-0.271,0.291-0.791,0.291-1.565L162.226,15.835L162.226,15.835z"/>
		</g>
	</g>
</g>
</svg>
