<?xml version="1.0" encoding="utf-8"?>
<!-- Generator: Adobe Illustrator 16.0.0, SVG Export Plug-In . SVG Version: 6.00 Build 0)  -->
<!DOCTYPE svg PUBLIC "-//W3C//DTD SVG 1.1//EN" "http://www.w3.org/Graphics/SVG/1.1/DTD/svg11.dtd">
<svg version="1.1" id="Capa_1" xmlns="http://www.w3.org/2000/svg" xmlns:xlink="http://www.w3.org/1999/xlink" x="0px" y="0px"
	 width="56.063px" height="56.064px" viewBox="0 0 56.063 56.064" enable-background="new 0 0 56.063 56.064" xml:space="preserve">
<g>
	<g>
		<path fill="#A0C219" d="M28.031,54.064C13.678,54.064,2,42.386,2,28.031C2,13.678,13.678,2,28.031,2
			c14.354,0,26.032,11.678,26.032,26.031C54.063,42.386,42.386,54.064,28.031,54.064z"/>
		<path fill="#FFFFFF" d="M28.031,4c13.273,0,24.032,10.76,24.032,24.031c0,13.273-10.759,24.033-24.032,24.033
			C14.76,52.064,4,41.305,4,28.031C4,14.76,14.76,4,28.031,4 M28.031,0C12.575,0,0,12.575,0,28.031
			c0,15.458,12.575,28.033,28.031,28.033c15.457,0,28.032-12.575,28.032-28.033C56.063,12.575,43.488,0,28.031,0L28.031,0z"/>
	</g>
	<g>
		<g>
			<path fill="#FFFFFF" d="M26.542,15.206h3.028v25.77h-3.028V18.041c-0.581,0.386-1.163,0.711-1.744,0.976
				s-1.179,0.481-1.793,0.649v-2.51c0.694-0.253,1.337-0.542,1.926-0.867C25.52,15.965,26.057,15.604,26.542,15.206z"/>
		</g>
	</g>
</g>
</svg>
