<?xml version="1.0" encoding="utf-8"?>
<!-- Generator: Adobe Illustrator 16.0.0, SVG Export Plug-In . SVG Version: 6.00 Build 0)  -->
<!DOCTYPE svg PUBLIC "-//W3C//DTD SVG 1.1//EN" "http://www.w3.org/Graphics/SVG/1.1/DTD/svg11.dtd">
<svg version="1.1" id="Capa_1" xmlns="http://www.w3.org/2000/svg" xmlns:xlink="http://www.w3.org/1999/xlink" x="0px" y="0px"
	 width="324.814px" height="56.064px" viewBox="0 0 324.814 56.064" enable-background="new 0 0 324.814 56.064"
	 xml:space="preserve">
<g>
	<g>
		<path fill="#0093AF" d="M28.031,54.064C13.678,54.064,2,42.386,2,28.031C2,13.678,13.678,2,28.031,2
			c14.354,0,26.032,11.678,26.032,26.031C54.063,42.386,42.386,54.064,28.031,54.064z"/>
		<g>
			<path fill="#FFFFFF" d="M28.031,4c13.273,0,24.032,10.76,24.032,24.031c0,13.273-10.759,24.033-24.032,24.033
				C14.76,52.064,4,41.305,4,28.031C4,14.76,14.76,4,28.031,4 M28.031,0C12.574,0,0,12.575,0,28.031
				c0,15.458,12.574,28.033,28.031,28.033s28.032-12.576,28.032-28.033C56.063,12.575,43.488,0,28.031,0L28.031,0z"/>
		</g>
	</g>
	<g>
		<g>
			<path fill="#FFFFFF" d="M26.542,15.206h3.028v25.77h-3.028V18.041c-0.581,0.386-1.163,0.711-1.744,0.976
				s-1.179,0.481-1.793,0.649v-2.51c0.694-0.253,1.337-0.542,1.926-0.867C25.52,15.965,26.057,15.604,26.542,15.206z"/>
		</g>
	</g>
	<g>
		<path fill="#0093AF" d="M95.22,54.064c-14.354,0-26.031-11.679-26.031-26.033C69.188,13.678,80.866,2,95.22,2
			s26.031,11.678,26.031,26.031C121.251,42.386,109.573,54.064,95.22,54.064z"/>
		<path fill="#FFFFFF" d="M95.22,4c13.272,0,24.031,10.76,24.031,24.031c0,13.273-10.759,24.033-24.031,24.033
			s-24.031-10.76-24.031-24.033C71.188,14.76,81.947,4,95.22,4 M95.22,0C79.764,0,67.188,12.575,67.188,28.031
			c0,15.458,12.575,28.033,28.031,28.033s28.031-12.575,28.031-28.033C123.251,12.575,110.676,0,95.22,0L95.22,0z"/>
	</g>
	<g>
		<g>
			<path fill="#FFFFFF" d="M100.319,19.865v1.697c0,0.458-0.097,1.018-0.291,1.68s-0.477,1.372-0.848,2.131l-6.687,13.634h7.68
				v1.969H89.757v-2.618l6.104-12.497l0.073-0.162c0.872-1.697,1.308-3.136,1.308-4.316v-1.644c0-1.107-0.157-1.896-0.473-2.365
				c-0.314-0.47-0.835-0.704-1.562-0.704c-0.759,0-1.295,0.25-1.61,0.749c-0.315,0.5-0.473,1.388-0.473,2.664v1.733h-3.125v-1.372
				c0-2.167,0.388-3.651,1.163-4.452c0.775-0.8,2.123-1.2,4.045-1.2c1.842,0,3.154,0.385,3.938,1.155S100.319,18.023,100.319,19.865
				z"/>
		</g>
	</g>
	<g>
		<path fill="#0093AF" d="M162.407,54.064c-14.354,0-26.031-11.679-26.031-26.033C136.376,13.678,148.054,2,162.407,2
			c14.354,0,26.032,11.678,26.032,26.031C188.439,42.386,176.762,54.064,162.407,54.064z"/>
		<path fill="#FFFFFF" d="M162.407,4c13.272,0,24.032,10.76,24.032,24.031c0,13.273-10.76,24.033-24.032,24.033
			s-24.031-10.76-24.031-24.033C138.376,14.76,149.135,4,162.407,4 M162.407,0c-15.456,0-28.031,12.575-28.031,28.031
			c0,15.458,12.575,28.033,28.031,28.033s28.032-12.575,28.032-28.033C190.439,12.575,177.863,0,162.407,0L162.407,0z"/>
	</g>
	<g>
		<g>
			<path fill="#FFFFFF" d="M167.361,20.443v4.37c0,0.854-0.193,1.486-0.582,1.896c-0.387,0.41-1.033,0.681-1.938,0.812
				c0.904,0.121,1.551,0.386,1.938,0.795c0.389,0.409,0.582,1.042,0.582,1.896v5.508c0,2.228-0.375,3.735-1.127,4.523
				c-0.75,0.788-2.096,1.183-4.033,1.183c-1.906,0-3.242-0.406-4.01-1.219c-0.767-0.812-1.15-2.32-1.15-4.523v-1.77h3.076V36.1
				c0,1.276,0.158,2.161,0.473,2.654c0.315,0.494,0.852,0.741,1.611,0.741s1.288-0.244,1.587-0.731
				c0.299-0.488,0.448-1.376,0.448-2.664v-5.634c0-0.783-0.198-1.31-0.594-1.58c-0.396-0.271-1.191-0.406-2.387-0.406h-0.848v-1.969
				h0.848c1.18,0,1.971-0.142,2.375-0.425c0.403-0.282,0.605-0.815,0.605-1.598v-4.406c0-1.409-0.138-2.33-0.412-2.763
				c-0.274-0.434-0.768-0.65-1.478-0.65c-0.727,0-1.239,0.247-1.538,0.74c-0.299,0.494-0.448,1.385-0.448,2.673v1.661h-3.126v-1.3
				c0-2.155,0.38-3.636,1.139-4.442c0.76-0.807,2.084-1.21,3.974-1.21c1.856,0,3.157,0.4,3.9,1.2
				C166.99,16.792,167.361,18.276,167.361,20.443z"/>
		</g>
	</g>
	<g>
		<path fill="#0093AF" d="M229.596,54.064c-14.354,0-26.031-11.679-26.031-26.033C203.564,13.678,215.242,2,229.596,2
			s26.031,11.678,26.031,26.031C255.627,42.386,243.949,54.064,229.596,54.064z"/>
		<path fill="#FFFFFF" d="M229.596,4c13.271,0,24.031,10.76,24.031,24.031c0,13.273-10.76,24.033-24.031,24.033
			c-13.272,0-24.031-10.76-24.031-24.033C205.564,14.76,216.323,4,229.596,4 M229.596,0c-15.457,0-28.031,12.575-28.031,28.031
			c0,15.458,12.574,28.033,28.031,28.033c15.456,0,28.031-12.575,28.031-28.033C257.627,12.575,245.052,0,229.596,0L229.596,0z"/>
	</g>
	<g>
		<g>
			<path fill="#FFFFFF" d="M228.59,15.206h4.336v17.119h2.617v1.807h-2.617v6.844h-2.883v-6.844H223.6v-2.294L228.59,15.206z
				 M230.141,16.976l-4.021,15.35h3.924l0.389-15.35H230.141z"/>
		</g>
	</g>
	<g>
		<path fill="#0093AF" d="M296.783,54.064c-14.354,0-26.031-11.679-26.031-26.033C270.752,13.678,282.43,2,296.783,2
			s26.031,11.678,26.031,26.031C322.814,42.386,311.137,54.064,296.783,54.064z"/>
		<path fill="#FFFFFF" d="M296.783,4c13.271,0,24.031,10.76,24.031,24.031c0,13.273-10.76,24.033-24.031,24.033
			c-13.272,0-24.031-10.76-24.031-24.033C272.752,14.76,283.511,4,296.783,4 M296.783,0c-15.457,0-28.031,12.575-28.031,28.031
			c0,15.458,12.574,28.033,28.031,28.033s28.031-12.575,28.031-28.033C324.814,12.575,312.24,0,296.783,0L296.783,0z"/>
	</g>
	<g>
		<g>
			<path fill="#FFFFFF" d="M291.756,15.206h9.885v1.95h-6.904v8.65c0.5-0.361,1.005-0.623,1.514-0.786
				c0.508-0.162,1.102-0.243,1.78-0.243c1.389,0,2.378,0.292,2.968,0.876s0.885,1.586,0.885,3.006v7.062
				c0,2.228-0.376,3.735-1.127,4.523s-2.096,1.183-4.033,1.183c-1.923,0-3.271-0.409-4.047-1.228
				c-0.774-0.818-1.162-2.323-1.162-4.515v-1.77h3.125V36.1c0,1.288,0.153,2.176,0.461,2.664c0.307,0.487,0.831,0.731,1.574,0.731
				c0.759,0,1.296-0.247,1.611-0.741c0.314-0.493,0.473-1.378,0.473-2.654v-6.916c0-0.999-0.15-1.7-0.449-2.104
				c-0.299-0.402-0.811-0.604-1.538-0.604c-0.743,0-1.269,0.198-1.575,0.596s-0.459,1.102-0.459,2.113v0.47h-2.98V15.206z"/>
		</g>
	</g>
</g>
</svg>
