<?xml version="1.0" encoding="utf-8"?>
<!-- Generator: Adobe Illustrator 16.0.0, SVG Export Plug-In . SVG Version: 6.00 Build 0)  -->
<!DOCTYPE svg PUBLIC "-//W3C//DTD SVG 1.1//EN" "http://www.w3.org/Graphics/SVG/1.1/DTD/svg11.dtd">
<svg version="1.1" id="Capa_1" xmlns="http://www.w3.org/2000/svg" xmlns:xlink="http://www.w3.org/1999/xlink" x="0px" y="0px"
	 width="32.235px" height="32.235px" viewBox="0 0 32.235 32.235" enable-background="new 0 0 32.235 32.235" xml:space="preserve">
<path fill="#2C5A67" d="M16.118,0C7.219,0,0,7.218,0,16.117c0,8.901,7.219,16.118,16.118,16.118s16.117-7.217,16.117-16.118
	C32.235,7.218,25.018,0,16.118,0z M10.285,13.657c0-0.559,0.646-0.881,1.094-0.547l3.147,2.351c0.438,0.328,0.438,0.984,0,1.312
	l-3.147,2.353c-0.448,0.333-1.094,0.012-1.094-0.548V13.657z M25.267,16.773L11.379,27.157c-0.448,0.34-1.094,0.017-1.094-0.547
	v-2.03c0-0.546,0.262-1.062,0.699-1.391l8.742-6.537c0.353-0.267,0.353-0.801,0-1.069l-8.742-6.536
	c-0.438-0.328-0.699-0.845-0.699-1.385V5.627c0-0.566,0.646-0.888,1.094-0.548l13.888,10.382
	C25.704,15.789,25.704,16.445,25.267,16.773z"/>
</svg>
