<?xml version="1.0" encoding="utf-8"?>
<!-- Generator: Adobe Illustrator 16.0.0, SVG Export Plug-In . SVG Version: 6.00 Build 0)  -->
<!DOCTYPE svg PUBLIC "-//W3C//DTD SVG 1.1//EN" "http://www.w3.org/Graphics/SVG/1.1/DTD/svg11.dtd">
<svg version="1.1" id="Capa_1" xmlns="http://www.w3.org/2000/svg" xmlns:xlink="http://www.w3.org/1999/xlink" x="0px" y="0px"
	 width="56.062px" height="56.064px" viewBox="0 0 56.062 56.064" enable-background="new 0 0 56.062 56.064" xml:space="preserve">
<g>
	<g>
		<path fill="#E94E1B" d="M28.031,54.064C13.678,54.064,2,42.386,2,28.031C2,13.678,13.678,2,28.031,2s26.031,11.678,26.031,26.031
			C54.062,42.386,42.385,54.064,28.031,54.064z"/>
		<g>
			<path fill="#FFFFFF" d="M28.031,4c13.271,0,24.031,10.76,24.031,24.031c0,13.273-10.76,24.033-24.031,24.033
				C14.759,52.064,4,41.305,4,28.031C4,14.76,14.759,4,28.031,4 M28.031,0C12.575,0,0,12.575,0,28.031
				c0,15.458,12.575,28.033,28.031,28.033s28.031-12.576,28.031-28.033C56.062,12.575,43.487,0,28.031,0L28.031,0z"/>
		</g>
	</g>
	<g>
		<g>
			<path fill="#FFFFFF" d="M23.004,15.206h9.884v1.95h-6.904v8.65c0.5-0.361,1.006-0.623,1.514-0.786
				c0.51-0.162,1.104-0.243,1.781-0.243c1.389,0,2.378,0.292,2.968,0.876c0.589,0.584,0.884,1.586,0.884,3.006v7.062
				c0,2.228-0.375,3.735-1.126,4.523s-2.096,1.183-4.034,1.183c-1.922,0-3.27-0.409-4.045-1.228s-1.163-2.323-1.163-4.515v-1.77
				h3.125V36.1c0,1.288,0.153,2.176,0.46,2.664c0.307,0.487,0.832,0.731,1.575,0.731c0.759,0,1.296-0.247,1.61-0.741
				c0.315-0.493,0.473-1.378,0.473-2.654v-6.916c0-0.999-0.149-1.7-0.447-2.104c-0.3-0.402-0.812-0.604-1.539-0.604
				c-0.743,0-1.268,0.198-1.574,0.596s-0.461,1.102-0.461,2.113v0.47h-2.979V15.206z"/>
		</g>
	</g>
</g>
</svg>
