<?xml version="1.0" encoding="utf-8"?>
<!-- Generator: Adobe Illustrator 16.0.0, SVG Export Plug-In . SVG Version: 6.00 Build 0)  -->
<!DOCTYPE svg PUBLIC "-//W3C//DTD SVG 1.1//EN" "http://www.w3.org/Graphics/SVG/1.1/DTD/svg11.dtd">
<svg version="1.1" id="Capa_1" xmlns="http://www.w3.org/2000/svg" xmlns:xlink="http://www.w3.org/1999/xlink" x="0px" y="0px"
	 width="106.891px" height="59.984px" viewBox="0 0 106.891 59.984" enable-background="new 0 0 106.891 59.984"
	 xml:space="preserve">
<g>
	<g>
		<g>
			<path fill="#FFFFFF" d="M29.991,57.984C14.557,57.984,2,45.427,2,29.992S14.557,2,29.991,2s27.991,12.558,27.991,27.992
				S45.426,57.984,29.991,57.984z"/>
			<path fill="#A0C219" d="M29.991,4c14.354,0,25.991,11.64,25.991,25.992c0,14.355-11.637,25.992-25.991,25.992
				C15.637,55.984,4,44.348,4,29.992C4,15.639,15.637,4,29.991,4 M29.991,0C13.454,0,0,13.455,0,29.992s13.454,29.992,29.991,29.992
				s29.991-13.455,29.991-29.992S46.528,0,29.991,0L29.991,0z"/>
		</g>
		<g>
			<g>
				<path fill="#A0C219" d="M31.107,19.755v2.754h-3.484v-2.676c0-1.133-0.157-1.911-0.472-2.334
					c-0.315-0.423-0.874-0.635-1.677-0.635c-0.771,0-1.312,0.237-1.625,0.713c-0.314,0.476-0.473,1.318-0.473,2.529v1.406
					c0,0.586,0.109,1.188,0.328,1.807c0.218,0.618,0.537,1.201,0.956,1.748l4.351,5.723c0.732,0.964,1.266,1.872,1.598,2.726
					c0.332,0.853,0.498,1.734,0.498,2.646v1.953c0,2.5-0.424,4.187-1.271,5.059s-2.354,1.31-4.52,1.31
					c-2.114,0-3.586-0.353-4.415-1.056c-0.83-0.702-1.245-2.03-1.245-3.983V36.24h3.512v3.104c0,1.173,0.156,1.967,0.472,2.384
					c0.314,0.417,0.892,0.625,1.729,0.625c0.855,0,1.445-0.237,1.77-0.713c0.323-0.477,0.484-1.521,0.484-3.136v-1.991
					c0-0.742-0.092-1.416-0.274-2.021c-0.184-0.605-0.45-1.155-0.8-1.65l-4.61-6.133c-0.646-0.819-1.142-1.602-1.48-2.344
					c-0.341-0.742-0.512-1.387-0.512-1.934v-1.681c0-2.239,0.415-3.799,1.245-4.678c0.829-0.879,2.257-1.318,4.284-1.318
					c2.131,0,3.603,0.346,4.414,1.035C30.701,16.48,31.107,17.802,31.107,19.755z"/>
				<path fill="#A0C219" d="M35.771,15.185h3.538v28.809h-3.538V15.185z"/>
			</g>
		</g>
	</g>
	<path fill="#A0C219" d="M85.631,31.222c0.34-0.813,0.539-1.176,0.646-1.563c1.812-6.581,6.062-11.176,11.893-14.407
		c1.716-0.95,3.612-1.57,5.438-2.316c0.381-0.156,0.854-0.35,1.21-0.251c0.643,0.176,1.379,0.419,1.8,0.884
		c0.595,0.661,0.122,1.367-0.448,1.867c-1.44,1.262-2.857,2.556-4.378,3.717c-4.532,3.46-6.935,7.952-6.935,13.705
		c0,2.572-0.053,5.146-0.196,7.714c-0.137,2.446-1.124,4.365-3.638,5.229c-1.124,0.39-2.156,1.077-3.295,1.38
		c-1.697,0.445-2.643-0.091-3.189-1.745c-1.021-3.081-2.973-5.461-5.51-7.357c-2.974-2.219-6.007-4.356-9.073-6.446
		c-2.344-1.598-2.52-2.861-0.425-4.818c0.651-0.61,1.386-1.141,2.124-1.648c2.736-1.893,4.151-1.979,6.87-0.047
		c1.551,1.103,2.858,2.537,4.299,3.797C83.658,29.644,84.536,30.325,85.631,31.222z"/>
</g>
</svg>
